<?xml version="1.0" encoding="utf-8" standalone="no"?>
<!DOCTYPE svg PUBLIC "-//W3C//DTD SVG 1.1//EN"
  "http://www.w3.org/Graphics/SVG/1.1/DTD/svg11.dtd">
<svg xmlns:xlink="http://www.w3.org/1999/xlink" width="350.026405pt" height="266.112pt" viewBox="0 0 350.026405 266.112" xmlns="http://www.w3.org/2000/svg" version="1.1">
 <metadata>
  <rdf:RDF xmlns:dc="http://purl.org/dc/elements/1.1/" xmlns:cc="http://creativecommons.org/ns#" xmlns:rdf="http://www.w3.org/1999/02/22-rdf-syntax-ns#">
   <cc:Work>
    <dc:type rdf:resource="http://purl.org/dc/dcmitype/StillImage"/>
    <dc:date>2024-02-02T21:57:59.177147</dc:date>
    <dc:format>image/svg+xml</dc:format>
    <dc:creator>
     <cc:Agent>
      <dc:title>Matplotlib v3.8.2, https://matplotlib.org/</dc:title>
     </cc:Agent>
    </dc:creator>
   </cc:Work>
  </rdf:RDF>
 </metadata>
 <defs>
  <style type="text/css">*{stroke-linejoin: round; stroke-linecap: butt}</style>
 </defs>
 <g id="figure_1">
  <g id="patch_1">
   <path d="M -0 266.112 
L 350.026405 266.112 
L 350.026405 0 
L -0 0 
L -0 266.112 
z
" style="fill: none"/>
  </g>
  <g id="axes_1">
   <g id="PatchCollection_1">
    <path d="M 243.053035 23.762473 
L 243.85455 23.733467 
L 244.421679 24.007127 
L 245.202267 24.554448 
L 246.452672 25.784027 
L 248.121623 26.446109 
L 248.815362 26.886235 
L 249.29669 27.603805 
L 249.425393 28.688357 
L 249.315524 29.242613 
L 248.948251 30.296268 
L 248.818501 31.010055 
L 248.443903 31.703033 
L 248.167663 32.702461 
L 247.564957 33.78449 
L 247.274068 35.529863 
L 247.535659 35.536799 
L 247.75121 35.565804 
L 248.519241 36.161677 
L 248.952436 36.339493 
L 249.72256 35.860273 
L 252.193026 35.04812 
L 252.919203 35.090997 
L 253.532372 35.490768 
L 254.147634 36.215905 
L 253.996958 36.384893 
L 254.093223 37.212179 
L 253.996958 38.232415 
L 253.680956 38.664975 
L 252.933852 39.127801 
L 252.766434 39.564775 
L 252.984077 40.311981 
L 252.996634 40.819576 
L 252.766434 41.579393 
L 252.517399 42.78375 
L 252.199304 43.244685 
L 252.11141 44.313473 
L 252.396021 46.282061 
L 252.199304 47.26068 
L 251.908415 48.156066 
L 252.061184 49.093069 
L 252.044442 50.634142 
L 251.923064 50.940591 
L 251.906322 51.622219 
L 251.159218 52.851798 
L 251.232464 53.438844 
L 250.975058 54.029042 
L 250.816011 55.031622 
L 250.816011 56.803477 
L 251.358027 57.87731 
L 251.420809 59.406402 
L 251.596598 59.846529 
L 252.948501 62.139221 
L 253.23939 63.762266 
L 253.735367 64.648824 
L 254.417596 65.342433 
L 255.267244 65.777515 
L 256.217343 65.981815 
L 257.200925 65.981815 
L 258.194971 65.800215 
L 258.98393 65.481155 
L 264.858218 61.245096 
L 265.387679 60.684534 
L 266.260346 60.116406 
L 266.75423 59.468197 
L 267.553652 58.937271 
L 269.602434 58.132684 
L 270.51277 57.952346 
L 271.910713 58.200784 
L 272.592942 57.869113 
L 275.610657 57.435923 
L 275.790631 57.203879 
L 275.914102 56.733486 
L 276.757472 55.455354 
L 277.701292 53.563693 
L 278.303998 52.764152 
L 279.109699 52.288084 
L 280.562052 51.945693 
L 281.007803 51.432422 
L 282.451786 50.591264 
L 283.908325 50.450651 
L 284.3185 50.182035 
L 284.550793 49.845319 
L 284.898185 49.132794 
L 285.21628 48.758876 
L 286.166379 48.115711 
L 286.603759 48.275872 
L 286.823496 48.176244 
L 288.131451 46.926487 
L 289.045973 46.742365 
L 289.527301 46.80416 
L 290.203252 47.095475 
L 291.463074 46.427089 
L 292.367133 46.401866 
L 294.792605 47.26068 
L 296.198919 47.620096 
L 297.797763 47.685043 
L 297.644994 48.50224 
L 297.640809 49.528151 
L 297.506874 49.882522 
L 296.816274 50.550909 
L 296.521199 50.690892 
L 295.31788 50.915999 
L 294.890964 51.272262 
L 294.635651 51.750221 
L 294.723545 52.26097 
L 295.047918 52.448875 
L 295.903844 52.190978 
L 296.320297 52.222506 
L 297.119719 52.83036 
L 297.64918 52.513191 
L 298.703915 52.562374 
L 299.474039 51.87381 
L 299.882121 51.755896 
L 300.750603 51.660683 
L 302.318057 51.055351 
L 303.845748 50.519381 
L 306.589315 49.881261 
L 306.961821 49.460051 
L 306.995305 48.623937 
L 307.323863 48.296049 
L 307.859602 48.287852 
L 308.447658 48.438554 
L 308.941542 48.373607 
L 309.180113 47.720984 
L 309.286842 48.038783 
L 309.521228 47.881145 
L 309.751428 47.865381 
L 309.950237 47.9896 
L 310.245312 48.466299 
L 310.674321 48.538812 
L 311.260285 48.641593 
L 311.999018 48.533137 
L 313.34255 48.973264 
L 315.575491 48.839586 
L 316.161455 48.52494 
L 318.756438 50.057816 
L 319.329846 50.649275 
L 320.256925 52.17017 
L 320.857538 52.499319 
L 318.867353 52.918637 
L 318.649709 52.778654 
L 317.720538 50.912846 
L 317.398258 50.872491 
L 316.942043 51.298745 
L 316.374913 51.761571 
L 315.876844 51.920471 
L 315.809877 52.078109 
L 315.242747 52.566158 
L 315.121369 52.522019 
L 314.736307 52.200437 
L 314.451696 52.230073 
L 313.566472 52.472836 
L 312.915633 52.486708 
L 312.656135 52.62543 
L 312.036687 53.812132 
L 311.731149 53.977337 
L 311.300047 54.03787 
L 310.529923 53.940764 
L 310.247405 54.062461 
L 310.203457 54.533485 
L 310.536201 55.050539 
L 311.180762 55.50769 
L 312.440584 56.110499 
L 312.794255 56.517206 
L 313.302788 57.401242 
L 313.874103 57.756874 
L 313.888752 58.099265 
L 313.809228 58.285278 
L 313.671108 59.060859 
L 313.346735 59.152289 
L 312.949117 58.812421 
L 312.440584 58.156015 
L 312.042966 58.032426 
L 311.609771 58.060801 
L 310.768494 58.285278 
L 310.243219 58.706488 
L 308.552295 59.744379 
L 307.562434 60.526896 
L 307.076921 60.698407 
L 305.745946 60.538246 
L 305.415295 60.618326 
L 305.124406 60.835237 
L 304.992564 61.174474 
L 304.894205 62.01185 
L 304.699582 62.257765 
L 303.504634 62.639881 
L 302.91867 62.636098 
L 301.715351 62.266593 
L 300.05791 61.24888 
L 299.430092 60.997919 
L 298.191196 60.774704 
L 295.50204 60.661834 
L 292.854739 61.100069 
L 291.569804 60.909642 
L 290.230457 61.086197 
L 289.259431 61.016836 
L 287.957754 61.396429 
L 286.425877 61.140425 
L 283.073326 61.569201 
L 282.349242 62.005544 
L 282.070909 61.992933 
L 281.445184 61.745756 
L 280.942929 61.8643 
L 280.45323 62.117783 
L 279.863081 62.277943 
L 278.073798 62.366221 
L 276.382874 62.124088 
L 275.041435 62.216149 
L 273.737665 62.517553 
L 272.756175 63.005602 
L 271.487982 64.046015 
L 271.063158 64.156993 
L 270.136079 64.098982 
L 269.303173 64.365075 
L 268.407486 64.418042 
L 266.618203 64.815291 
L 265.400235 65.409272 
L 265.322804 65.720765 
L 265.768555 66.59219 
L 265.414884 66.791445 
L 263.728145 67.113028 
L 263.313785 67.44596 
L 263.405865 68.075252 
L 263.079399 68.377918 
L 262.248586 68.57339 
L 261.827948 68.802911 
L 261.501482 69.130799 
L 260.262587 69.893769 
L 259.756146 70.364162 
L 259.429681 70.483967 
L 258.11754 70.5672 
L 257.701087 70.828249 
L 257.728293 71.600046 
L 258.130096 72.596321 
L 257.891525 72.866198 
L 257.251151 72.998614 
L 256.953983 72.881331 
L 256.357555 72.258344 
L 254.783824 71.328908 
L 254.40504 71.368003 
L 254.208323 71.578608 
L 253.796056 72.724954 
L 253.632823 72.984742 
L 253.12429 73.474052 
L 253.023839 73.846078 
L 253.350305 74.542209 
L 252.956872 74.751553 
L 252.084204 74.98738 
L 251.745182 75.209335 
L 249.788481 77.209451 
L 248.506685 77.648316 
L 248.402048 77.808476 
L 248.161385 78.557574 
L 247.970946 78.68999 
L 247.355684 78.977523 
L 246.452672 79.662304 
L 246.248631 80.405096 
L 245.5957 81.050783 
L 245.404215 81.427854 
L 245.505712 81.884374 
L 245.727542 82.083629 
L 246.740422 82.690222 
L 247.257326 83.237542 
L 248.960807 83.830263 
L 249.261113 84.177067 
L 249.347962 84.976609 
L 249.563513 85.346113 
L 250.48222 85.988017 
L 250.772063 86.357521 
L 251.579857 87.913727 
L 251.791222 89.032329 
L 252.224417 89.399311 
L 252.47973 89.828088 
L 252.569717 90.260647 
L 252.452524 90.704557 
L 251.830984 91.656693 
L 252.021422 92.071597 
L 252.427412 92.395702 
L 253.873487 93.178849 
L 254.061832 93.540787 
L 254.049276 94.008658 
L 253.823261 94.912871 
L 254.060454 95.619072 
L 254.647796 96.462772 
L 254.616405 96.938209 
L 254.417596 97.296364 
L 253.429828 98.147611 
L 252.808288 98.944631 
L 252.772712 99.60419 
L 253.136846 100.220871 
L 254.258549 101.49585 
L 254.875904 101.990204 
L 254.961706 102.318092 
L 254.785916 102.796052 
L 254.277383 103.575416 
L 252.877348 104.541424 
L 252.349981 105.189633 
L 252.320682 106.259052 
L 252.431597 106.504967 
L 252.398113 106.734489 
L 251.872839 107.349909 
L 251.552651 108.174673 
L 251.059985 108.466195 
L 248.623878 109.44713 
L 247.906072 109.996973 
L 247.220703 111.578401 
L 245.882403 113.364129 
L 245.100769 113.772727 
L 243.465302 115.214173 
L 243.43705 115.58746 
L 243.662019 116.637963 
L 243.595051 117.233205 
L 243.377408 117.722515 
L 243.006995 117.901592 
L 241.707604 117.800707 
L 241.410243 117.935642 
L 241.173765 118.368201 
L 241.146559 118.904802 
L 241.45419 119.908644 
L 242.446143 121.23722 
L 243.076055 121.838768 
L 244.515852 122.643354 
L 244.603746 123.243641 
L 244.010458 124.946136 
L 244.006272 125.388154 
L 244.261585 126.733755 
L 244.233333 127.318909 
L 244.105677 127.646166 
L 243.54064 128.294375 
L 243.315672 128.781162 
L 243.312533 130.027136 
L 242.990253 130.329171 
L 241.581847 130.682281 
L 241.113075 131.233385 
L 240.824279 131.328599 
L 240.44968 131.29644 
L 239.904525 131.122408 
L 239.702576 131.179157 
L 239.614682 131.491281 
L 239.254733 132.210743 
L 237.819121 132.484403 
L 235.082879 132.455398 
L 231.748116 132.824902 
L 230.077072 132.463595 
L 228.071192 132.286409 
L 227.376406 131.932669 
L 226.227498 131.822322 
L 221.853696 130.28251 
L 221.17042 130.235219 
L 219.553787 130.58959 
L 219.216858 130.930719 
L 219.241971 131.684861 
L 219.204302 132.046169 
L 218.578576 132.771305 
L 218.702047 133.133873 
L 219.476356 134.048807 
L 219.9242 135.36288 
L 220.58341 136.439865 
L 220.936034 137.386326 
L 221.242619 137.578015 
L 222.035763 137.688361 
L 223.123982 138.159385 
L 223.986186 138.00616 
L 224.188134 138.269101 
L 224.48007 139.613441 
L 224.752125 139.895299 
L 225.24287 140.168959 
L 225.321347 140.32912 
L 225.30879 140.920579 
L 224.860947 142.921956 
L 225.112074 143.829953 
L 225.551547 144.310435 
L 226.259936 144.626342 
L 226.514202 145.197623 
L 227.581494 146.411439 
L 227.902727 147.169995 
L 227.758329 147.971428 
L 223.929682 151.122935 
L 223.49021 151.086993 
L 223.006789 150.921788 
L 222.768218 151.018894 
L 221.935312 152.538528 
L 221.689417 152.647613 
L 220.901504 152.638786 
L 219.385323 153.577049 
L 218.530443 153.640105 
L 217.176448 152.954062 
L 216.389582 153.08774 
L 215.438437 153.783871 
L 214.887003 153.841251 
L 214.520776 153.699377 
L 213.449299 153.814137 
L 212.634181 153.924484 
L 211.959276 154.371547 
L 211.229116 155.478052 
L 211.03429 155.894333 
L 211.413074 158.540136 
L 211.093933 159.361117 
L 210.569704 159.765302 
L 210.073728 160.46963 
L 209.387313 160.99362 
L 209.167576 161.322138 
L 209.307789 161.991155 
L 209.630069 162.271752 
L 209.943979 162.45209 
L 210.236961 163.872727 
L 210.174179 164.17224 
L 209.929329 164.65083 
L 208.862038 166.285856 
L 208.504181 166.589152 
L 207.664997 166.888665 
L 207.256915 167.15665 
L 206.641653 167.943581 
L 206.262869 168.867972 
L 206.164511 169.877488 
L 206.377969 170.92736 
L 206.902198 172.291878 
L 206.95347 173.336075 
L 206.81221 174.379641 
L 206.802793 175.411857 
L 206.631189 176.970585 
L 207.027762 179.280933 
L 207.719408 181.453821 
L 207.599076 181.679559 
L 206.629097 182.427395 
L 206.078709 183.040293 
L 203.573713 186.894236 
L 203.263989 187.094752 
L 202.998213 187.532357 
L 202.359931 188.136427 
L 201.629569 188.673658 
L 201.087552 188.908224 
L 200.353004 188.855258 
L 199.664497 189.083518 
L 198.379561 189.761994 
L 197.575954 189.857838 
L 197.038122 189.466895 
L 195.430907 187.090969 
L 195.370218 186.104783 
L 195.236283 185.805901 
L 194.983063 185.65709 
L 193.842526 185.442702 
L 191.979998 184.479216 
L 191.526922 184.486783 
L 191.048734 184.657032 
L 189.778448 185.454052 
L 189.848554 185.694924 
L 190.200132 185.855084 
L 190.642744 185.928228 
L 192.245774 185.954712 
L 192.432027 186.174144 
L 192.16939 186.479332 
L 191.38357 186.86397 
L 190.633327 186.736598 
L 188.509208 185.954712 
L 186.463566 185.860129 
L 185.487308 184.84746 
L 184.521514 184.407333 
L 184.105061 184.4376 
L 183.845563 184.759182 
L 183.192631 186.222066 
L 182.4246 187.075836 
L 182.242533 187.763139 
L 180.840405 188.654742 
L 180.612297 188.987674 
L 180.392561 189.110001 
L 179.572211 189.155401 
L 178.680709 189.062079 
L 178.114626 189.34709 
L 176.868406 190.794841 
L 175.765538 191.594382 
L 175.150276 191.852909 
L 174.525597 191.918487 
L 173.210317 191.617082 
L 172.572035 191.632216 
L 172.31149 192.063514 
L 172.459027 192.427974 
L 173.019879 193.219949 
L 173.139164 194.174607 
L 173.432146 194.537806 
L 173.836043 194.798855 
L 174.235754 194.916138 
L 175.919354 194.685356 
L 176.649716 194.931272 
L 176.744935 195.954029 
L 176.535662 196.41055 
L 176.225938 196.5581 
L 175.407682 196.526572 
L 175.079123 196.6262 
L 173.2438 197.946579 
L 172.869202 198.090345 
L 171.787262 198.299689 
L 171.040157 198.633882 
L 169.836839 198.801609 
L 168.061159 199.492696 
L 166.764713 199.370368 
L 165.379327 199.38298 
L 164.962874 199.230386 
L 163.820244 198.679282 
L 163.417394 198.698198 
L 162.229771 198.892409 
L 161.514058 198.720898 
L 161.360242 198.592265 
L 161.413607 198.249244 
L 161.57684 197.899918 
L 161.534985 197.356381 
L 161.391633 197.018404 
L 161.093419 196.85446 
L 159.902657 196.882204 
L 159.146136 197.106681 
L 157.78063 197.802812 
L 156.181786 199.321185 
L 155.407476 199.430902 
L 154.915685 199.784012 
L 154.22927 202.534486 
L 153.842115 203.094418 
L 151.939825 205.1248 
L 151.483611 205.335405 
L 148.746322 205.914253 
L 148.403114 206.107202 
L 148.218954 206.445179 
L 146.22877 214.290526 
L 146.167034 215.353639 
L 146.511288 216.322169 
L 147.155848 217.294483 
L 147.319081 218.29328 
L 146.938204 221.516669 
L 146.895303 223.461296 
L 145.588395 226.243299 
L 145.243094 227.55485 
L 145.363426 227.882738 
L 146.076 228.402314 
L 147.622527 230.137597 
L 147.331637 230.271275 
L 146.37526 231.76947 
L 144.76386 232.985177 
L 121.290771 240.18862 
L 120.283123 240.15457 
L 116.915923 239.512036 
L 109.978528 239.451503 
L 104.512321 241.169131 
L 103.800794 241.551877 
L 103.338301 242.182431 
L 102.60166 243.699542 
L 102.04918 243.936 
L 99.738808 242.887389 
L 91.570889 241.230295 
L 69.477955 243.418316 
L 67.391505 243.00215 
L 37.050082 232.736739 
L 36.409707 232.427768 
L 45.07151 221.686919 
L 55.805114 208.295223 
L 55.727683 208.138846 
L 55.807207 207.527209 
L 55.928585 207.456587 
L 55.76326 205.504393 
L 56.294813 204.197886 
L 56.194362 203.233139 
L 55.338436 200.143427 
L 54.599703 198.717115 
L 54.591332 198.231589 
L 54.731545 197.183609 
L 54.591332 196.732133 
L 53.867248 195.781258 
L 53.469629 195.455892 
L 52.94854 195.242765 
L 36.625258 192.782345 
L 35.9514 192.491029 
L 35.712829 190.204642 
L 35.36125 188.454226 
L 35.618656 186.650843 
L 35.294283 183.210543 
L 35.409383 181.172594 
L 35.187554 180.420974 
L 35.36125 179.883742 
L 35.003394 179.495321 
L 35.160348 179.120773 
L 35.689809 178.422119 
L 35.811187 178.014782 
L 36.083242 176.072677 
L 36.125096 174.085172 
L 33.722644 165.264989 
L 31.006283 155.893072 
L 30.711208 154.333083 
L 30.68191 152.40422 
L 30.805381 152.06309 
L 34.641352 146.814993 
L 35.225223 146.291634 
L 35.888618 145.874207 
L 36.099984 145.596133 
L 36.212991 145.108715 
L 36.162765 143.931472 
L 36.520622 143.6906 
L 37.780444 143.515937 
L 37.958326 143.208858 
L 37.778352 142.8589 
L 37.123328 142.364546 
L 36.443191 142.191775 
L 35.660511 142.133764 
L 34.172581 142.214475 
L 32.586293 142.091517 
L 30.951872 141.410519 
L 29.675307 140.175895 
L 29.17096 138.394581 
L 29.334193 137.59567 
L 29.959918 136.179447 
L 30.003866 135.220375 
L 29.202943 129.376184 
L 29.168867 129.050409 
L 29.290245 127.95829 
L 29.859467 126.808791 
L 30.49775 125.980874 
L 31.207185 125.243757 
L 32.16984 124.732378 
L 32.485842 124.387465 
L 32.345629 123.867889 
L 37.343064 123.568376 
L 37.112864 123.111225 
L 35.610285 121.162815 
L 35.093381 120.245359 
L 34.848532 120.024035 
L 34.172581 119.626786 
L 33.869135 118.877058 
L 33.479888 118.749056 
L 33.777055 118.235785 
L 34.281403 117.977258 
L 35.894896 117.687204 
L 36.290422 117.418588 
L 37.71557 115.862382 
L 38.49825 115.781671 
L 38.709616 115.502966 
L 38.791232 114.908985 
L 38.749378 113.702105 
L 39.115605 113.277112 
L 39.75598 112.780236 
L 40.264513 111.675506 
L 40.886053 111.468685 
L 41.135088 109.801501 
L 41.074399 108.579489 
L 41.423885 107.887141 
L 41.490852 107.410442 
L 41.785927 106.494879 
L 42.053796 105.136666 
L 42.543494 104.455668 
L 42.330036 104.233714 
L 42.353056 103.816287 
L 42.336314 103.435433 
L 41.511779 102.232337 
L 41.844523 101.782122 
L 41.618508 101.204534 
L 41.754536 100.164121 
L 42.045425 99.927033 
L 42.959947 99.836233 
L 43.349195 99.616801 
L 43.510335 99.184241 
L 43.416162 97.928178 
L 43.627528 97.157642 
L 44.163266 96.344228 
L 44.339055 95.578736 
L 44.562977 95.109604 
L 45.307989 94.07928 
L 45.433552 93.572315 
L 45.383327 93.079222 
L 45.021285 91.853426 
L 45.297525 91.752537 
L 46.530142 91.55076 
L 46.869164 91.791631 
L 46.678726 92.130869 
L 47.33375 92.741245 
L 47.260504 93.101922 
L 47.685328 93.529437 
L 48.221066 93.699686 
L 49.537393 94.887649 
L 50.468657 95.909146 
L 51.80591 96.438811 
L 54.536921 96.849932 
L 55.74024 96.759132 
L 58.176175 95.920496 
L 59.358567 95.943196 
L 60.493872 96.600233 
L 62.569859 98.616743 
L 63.127571 98.987508 
L 64.244042 99.473035 
L 64.541209 99.778222 
L 64.895926 100.592898 
L 65.00998 102.379886 
L 65.604315 103.514883 
L 65.924502 103.347155 
L 67.894806 100.701353 
L 68.554016 100.098544 
L 69.101264 100.068277 
L 70.651976 101.398745 
L 71.273516 101.315512 
L 72.049918 101.592955 
L 72.384755 101.512245 
L 74.157296 100.698831 
L 75.207846 99.566356 
L 76.566026 98.910581 
L 78.401349 97.47418 
L 80.169705 96.736432 
L 81.410693 96.561138 
L 81.681701 96.281173 
L 81.804126 95.827174 
L 81.889927 94.902783 
L 82.097108 94.136029 
L 82.025955 93.880025 
L 81.689025 93.610148 
L 81.624151 93.311265 
L 81.609502 91.702093 
L 82.146287 91.181256 
L 83.700137 90.683118 
L 84.382367 90.052565 
L 84.399109 89.882315 
L 84.296565 89.754944 
L 83.646773 89.452278 
L 83.363208 89.076468 
L 82.326261 88.158382 
L 81.766456 86.787559 
L 81.852258 86.365088 
L 82.165121 86.046028 
L 82.594131 85.953967 
L 87.001417 86.051072 
L 88.768726 85.690396 
L 90.406286 84.938776 
L 90.706592 84.673943 
L 91.466253 83.748291 
L 91.84399 83.54273 
L 92.253118 83.454453 
L 94.751836 83.30312 
L 95.565908 83.097559 
L 97.468198 82.00418 
L 98.725927 81.720431 
L 99.293057 81.838975 
L 101.219413 82.5742 
L 101.228831 82.267751 
L 101.039439 80.678756 
L 101.465309 79.975058 
L 102.803609 78.978784 
L 103.519322 78.631979 
L 104.272704 78.494519 
L 105.895615 78.657202 
L 106.215802 77.67606 
L 106.454373 77.380961 
L 107.13451 77.029112 
L 109.307809 76.442698 
L 109.978528 75.914294 
L 110.392888 75.43129 
L 111.982316 73.035186 
L 112.341218 72.191506 
L 112.573511 71.291075 
L 112.612227 69.813058 
L 112.232397 68.382962 
L 112.293086 67.386688 
L 112.552584 66.423202 
L 112.887421 65.641316 
L 115.800498 60.466993 
L 116.074646 59.640968 
L 115.990937 58.68631 
L 115.605875 56.830591 
L 115.697955 55.879086 
L 116.074646 55.258621 
L 116.664795 54.832367 
L 120.333348 52.924943 
L 121.831742 52.447614 
L 130.707003 52.22692 
L 131.424809 51.864982 
L 132.362351 50.621531 
L 133.191072 49.716686 
L 133.299893 49.221702 
L 133.288383 48.681948 
L 133.12829 47.63586 
L 133.42755 46.569594 
L 134.097223 45.435858 
L 134.693651 45.219579 
L 135.526556 45.228406 
L 135.794426 45.013388 
L 135.972308 44.02468 
L 136.84079 44.34374 
L 137.341998 45.31227 
L 137.870412 45.743569 
L 142.415818 47.380486 
L 142.784139 47.684412 
L 143.696568 48.742481 
L 144.339036 48.975786 
L 145.226353 48.992811 
L 145.700356 49.273407 
L 146.021589 49.431046 
L 146.764508 50.056555 
L 147.296061 50.106999 
L 149.175331 49.60697 
L 149.380418 49.703445 
L 149.68491 50.137266 
L 149.936038 50.258332 
L 150.317961 50.091866 
L 150.985541 49.460051 
L 151.71695 49.132163 
L 152.720413 49.147297 
L 154.308794 49.736864 
L 155.07264 49.682636 
L 155.684763 49.273407 
L 158.333111 49.160538 
L 160.193546 48.738698 
L 161.17085 48.758876 
L 161.539171 48.927233 
L 162.349056 49.486534 
L 162.77388 49.60697 
L 163.022915 49.827664 
L 163.54819 51.25839 
L 163.956272 51.504936 
L 164.854052 51.837238 
L 165.262134 52.197914 
L 165.844959 53.443888 
L 166.298035 53.621074 
L 166.750064 53.535318 
L 167.522281 53.052945 
L 169.378531 52.577508 
L 169.780335 52.288084 
L 170.818328 51.370628 
L 171.238967 51.25839 
L 171.704599 51.479714 
L 172.086522 52.48923 
L 172.418219 52.772979 
L 172.636909 52.69353 
L 173.043945 52.107115 
L 174.103912 52.008748 
L 174.769399 52.440047 
L 175.025759 52.471575 
L 175.748796 52.440047 
L 176.168388 52.540936 
L 176.526245 52.749018 
L 176.76377 53.074384 
L 176.85585 53.530274 
L 176.704127 55.455354 
L 176.953162 55.783242 
L 177.915817 56.355784 
L 178.831385 56.56702 
L 179.111811 56.869686 
L 179.647549 57.802274 
L 179.867286 57.987026 
L 180.526495 58.384906 
L 181.340567 59.420905 
L 181.524727 59.826351 
L 181.802028 59.957035 
L 182.204864 59.866706 
L 182.412044 59.73429 
L 184.000424 58.468139 
L 184.377116 58.315545 
L 185.073994 57.692558 
L 185.603454 57.620675 
L 186.437407 57.889921 
L 186.923966 57.893704 
L 187.137424 57.543747 
L 186.984655 56.024744 
L 187.137424 55.620559 
L 187.52144 55.351943 
L 187.913827 55.380949 
L 188.706971 55.620559 
L 189.234338 55.566331 
L 189.63091 55.372751 
L 189.763799 55.008922 
L 189.473956 54.438902 
L 190.730639 54.348102 
L 192.086727 54.01517 
L 192.465511 53.438844 
L 192.869407 53.387769 
L 194.07168 52.921159 
L 194.185734 52.528325 
L 194.432676 52.175845 
L 194.890983 52.107115 
L 194.613697 51.607086 
L 194.84285 51.347928 
L 195.209078 51.330273 
L 196.415536 51.398373 
L 196.916744 51.532681 
L 197.670126 51.99866 
L 197.91079 52.016315 
L 197.996592 51.779227 
L 197.944274 51.25839 
L 197.704656 50.523164 
L 197.777902 50.246982 
L 198.223653 50.106999 
L 198.647431 50.21041 
L 199.618457 51.387023 
L 199.843425 51.329012 
L 199.9512 51.112101 
L 199.785875 50.653058 
L 199.326521 50.258332 
L 199.277342 49.887566 
L 201.248692 50.321387 
L 201.658867 50.683325 
L 201.973822 51.112101 
L 202.272036 51.999921 
L 203.500468 52.940707 
L 204.050855 54.010125 
L 206.522368 55.604165 
L 206.929403 55.566962 
L 207.796841 55.287015 
L 208.106563 55.186738 
L 208.651719 54.621762 
L 209.803766 53.808348 
L 210.500644 52.68218 
L 210.56238 52.370056 
L 209.846667 52.144317 
L 210.009899 51.607086 
L 209.843528 51.385762 
L 209.709593 50.545864 
L 209.341273 49.576073 
L 209.414518 49.262057 
L 209.468929 49.093069 
L 209.410333 48.985244 
L 209.182225 48.849675 
L 209.209431 47.46498 
L 209.437538 46.942881 
L 209.962813 46.486361 
L 210.161622 46.077762 
L 211.498876 45.034826 
L 211.847315 44.010177 
L 212.252258 43.838036 
L 215.012567 44.078907 
L 215.464596 43.995044 
L 216.320522 43.641303 
L 216.981824 43.599687 
L 218.003076 43.84245 
L 218.41325 43.578248 
L 218.825518 43.46727 
L 219.675166 43.053627 
L 220.152308 43.078849 
L 220.485052 43.358815 
L 220.893134 44.095302 
L 221.68837 44.418145 
L 221.949961 44.745402 
L 222.138307 44.815394 
L 222.768218 44.926371 
L 222.640562 44.745402 
L 223.197228 44.83431 
L 224.41101 45.149587 
L 224.992788 44.926371 
L 225.885337 43.790114 
L 226.219127 43.071283 
L 226.778932 42.977961 
L 226.93798 42.745287 
L 227.112722 42.011322 
L 227.366989 41.65506 
L 227.504063 40.579335 
L 227.255028 39.528202 
L 227.366989 39.246345 
L 226.990298 38.816308 
L 226.662786 37.943621 
L 225.765005 37.642217 
L 225.423891 37.13273 
L 225.141372 36.422096 
L 225.046153 35.671737 
L 225.281585 35.051272 
L 225.688621 35.373485 
L 226.143789 35.461763 
L 227.091795 35.217108 
L 226.861595 34.818598 
L 226.93798 34.384777 
L 228.234425 33.581452 
L 228.402889 33.460386 
L 229.31218 32.312779 
L 230.421326 31.279301 
L 231.319106 30.794406 
L 231.568141 30.383285 
L 232.093416 29.037683 
L 232.688797 27.926018 
L 232.876096 27.325731 
L 233.602273 27.022434 
L 233.878513 25.985174 
L 233.859679 25.482623 
L 233.945481 25.265712 
L 234.133826 25.164824 
L 234.782572 25.09168 
L 235.498285 24.585976 
L 235.661518 24.299704 
L 235.258668 24.007127 
L 235.258668 23.841922 
L 235.63222 23.618076 
L 236.816704 23.499532 
L 237.206998 22.911856 
L 237.53451 22.839973 
L 238.359045 22.875914 
L 238.866531 22.993828 
L 239.07999 22.816642 
L 239.196136 22.713232 
L 239.432614 22.675398 
L 240.753126 23.168491 
L 240.966584 22.918792 
L 240.899617 22.364536 
L 241.047154 22.191133 
L 241.777517 22.243469 
L 242.218036 22.544243 
L 242.542409 22.95095 
L 242.843762 23.59979 
L 243.053035 23.762473 
L 243.053035 23.762473 
" clip-path="url(#p935ecb2f49)" style="fill: none; stroke: #000000; stroke-width: 2"/>
   </g>
  </g>
 </g>
 <defs>
  <clipPath id="p935ecb2f49">
   <rect x="0" y="-0" width="350.026405" height="266.112"/>
  </clipPath>
 </defs>
</svg>
