<?xml version="1.0" encoding="utf-8" standalone="no"?>
<!DOCTYPE svg PUBLIC "-//W3C//DTD SVG 1.1//EN"
  "http://www.w3.org/Graphics/SVG/1.1/DTD/svg11.dtd">
<svg xmlns:xlink="http://www.w3.org/1999/xlink" width="237.152929pt" height="266.112pt" viewBox="0 0 237.152929 266.112" xmlns="http://www.w3.org/2000/svg" version="1.1">
 <metadata>
  <rdf:RDF xmlns:dc="http://purl.org/dc/elements/1.1/" xmlns:cc="http://creativecommons.org/ns#" xmlns:rdf="http://www.w3.org/1999/02/22-rdf-syntax-ns#">
   <cc:Work>
    <dc:type rdf:resource="http://purl.org/dc/dcmitype/StillImage"/>
    <dc:date>2024-02-02T21:57:59.201153</dc:date>
    <dc:format>image/svg+xml</dc:format>
    <dc:creator>
     <cc:Agent>
      <dc:title>Matplotlib v3.8.2, https://matplotlib.org/</dc:title>
     </cc:Agent>
    </dc:creator>
   </cc:Work>
  </rdf:RDF>
 </metadata>
 <defs>
  <style type="text/css">*{stroke-linejoin: round; stroke-linecap: butt}</style>
 </defs>
 <g id="figure_1">
  <g id="patch_1">
   <path d="M 0 266.112 
L 237.152929 266.112 
L 237.152929 0 
L 0 0 
L 0 266.112 
z
" style="fill: none"/>
  </g>
  <g id="axes_1">
   <g id="PatchCollection_1">
    <path d="M 20.849177 222.169589 
L 20.864922 222.384909 
L 20.502702 222.046491 
L 20.282299 221.569604 
L 19.762744 219.968793 
L 19.794252 219.522259 
L 19.951715 219.322165 
L 20.282362 219.045086 
L 20.565733 219.13758 
L 20.594145 219.939924 
L 20.661632 220.295828 
L 20.661632 220.963976 
L 20.675975 221.585102 
L 20.849177 222.169589 
" clip-path="url(#p67c9a93f4a)" style="fill: none; stroke: #000000; stroke-width: 2"/>
    <path d="M 56.648452 45.946262 
L 57.268186 46.258796 
L 59.531202 46.154618 
L 60.787151 46.536045 
L 63.89406 46.598215 
L 64.61928 46.470513 
L 66.12576 46.781367 
L 68.15308 46.403301 
L 94.267595 46.05212 
L 95.403224 46.653665 
L 97.039914 46.495718 
L 98.351903 47.107344 
L 98.086538 47.606391 
L 98.348607 48.134003 
L 98.462334 49.337093 
L 98.907356 49.392542 
L 98.571117 49.790772 
L 98.887577 49.822697 
L 99.080419 49.968883 
L 99.538627 50.447766 
L 99.922664 50.622517 
L 99.995186 50.840955 
L 100.415484 51.407213 
L 100.224289 52.096133 
L 100.23253 53.956217 
L 99.947387 54.018388 
L 99.886403 54.181377 
L 99.904533 54.870297 
L 100.100672 55.085374 
L 100.290218 55.083694 
L 100.323183 55.295411 
L 100.085838 55.891915 
L 100.431966 55.907037 
L 100.334721 56.327111 
L 100.73524 56.974023 
L 100.479765 57.595732 
L 100.53086 57.859538 
L 100.834133 58.691283 
L 100.951158 59.581838 
L 101.074775 59.847324 
L 102.012616 61.334383 
L 102.108213 61.789742 
L 102.465879 62.023303 
L 103.031221 62.103957 
L 103.416906 62.379525 
L 103.6081 62.777755 
L 103.690512 63.774168 
L 103.63612 64.079981 
L 104.123995 64.41772 
L 104.344858 64.829392 
L 104.153664 65.714906 
L 103.642713 65.575442 
L 103.609748 65.982073 
L 103.936098 67.045698 
L 103.988841 68.055554 
L 104.339913 68.364728 
L 104.598685 68.732712 
L 104.710764 69.433394 
L 105.137655 69.564457 
L 106.261746 70.317228 
L 106.334162 70.739584 
L 106.431514 71.353969 
L 106.657321 71.506876 
L 106.88148 71.24811 
L 107.103991 71.385894 
L 107.58857 71.550563 
L 107.647906 71.668184 
L 107.3743 71.832852 
L 107.189698 71.925268 
L 107.1419 72.273089 
L 107.743503 72.983853 
L 108.246212 74.11637 
L 109.340635 74.753201 
L 109.281299 75.059014 
L 109.357118 75.32282 
L 109.380193 75.961332 
L 109.617538 75.847072 
L 109.617538 76.078952 
L 109.882902 76.191532 
L 109.784008 76.487263 
L 109.726321 76.633449 
L 109.812028 76.841805 
L 110.233975 77.335811 
L 110.759759 77.470235 
L 110.848763 77.972642 
L 111.152037 78.086902 
L 111.003697 78.233088 
L 111.114128 78.268374 
L 111.480035 78.308701 
L 111.572335 78.82287 
L 111.804735 78.752298 
L 111.987689 78.960654 
L 111.755288 79.585723 
L 112.165697 79.983953 
L 112.192069 80.076369 
L 112.241516 80.195669 
L 112.286018 80.125097 
L 112.457433 79.963789 
L 112.686537 80.639267 
L 113.385385 81.368514 
L 113.199136 81.832275 
L 113.452963 82.225463 
L 114.344654 82.448942 
L 114.79462 82.440541 
L 116.147815 81.958297 
L 116.627449 81.996943 
L 117.364206 82.176735 
L 118.615211 81.570149 
L 119.147589 81.628959 
L 119.617333 81.857479 
L 120.431558 82.559841 
L 120.8568 82.655618 
L 122.285814 82.623693 
L 122.183624 82.215381 
L 122.201754 81.763383 
L 122.350094 81.388677 
L 122.885768 81.148395 
L 123.793942 80.797214 
L 125.763574 80.874508 
L 126.56626 81.119831 
L 127.426635 80.819058 
L 128.816091 80.807296 
L 128.763347 79.883135 
L 128.957838 79.745351 
L 132.63833 79.836087 
L 132.813042 80.493081 
L 133.060276 80.879549 
L 142.338149 80.879549 
L 141.945871 79.199256 
L 141.992021 78.690127 
L 142.750206 76.033584 
L 142.743613 75.640396 
L 142.339797 73.923137 
L 143.747383 73.94162 
L 143.976487 73.697977 
L 144.142958 73.061146 
L 144.398433 72.750292 
L 144.851695 72.383988 
L 144.861585 71.879901 
L 144.314373 70.241615 
L 144.264927 69.725765 
L 144.43799 67.091066 
L 144.779173 66.267723 
L 145.32144 65.439338 
L 145.283531 65.266268 
L 144.990147 64.621036 
L 157.308998 64.621036 
L 157.378224 63.849781 
L 157.579308 63.370898 
L 157.895767 63.236474 
L 162.367408 63.223032 
L 160.979601 66.916316 
L 160.880707 67.674128 
L 160.916968 69.245201 
L 181.081383 69.196473 
L 181.076438 69.253603 
L 181.237964 69.369543 
L 181.462123 69.571178 
L 181.95824 70.737301 
L 181.84616 70.942297 
L 182.165917 71.661462 
L 182.101636 71.984079 
L 182.29283 72.227721 
L 182.118118 72.765415 
L 182.090098 73.25438 
L 182.184047 73.504744 
L 182.131304 74.240712 
L 181.84616 74.57509 
L 181.744867 75.085416 
L 180.850631 77.705476 
L 180.756682 78.4196 
L 180.877003 79.029546 
L 180.824259 79.219419 
L 180.540764 79.696623 
L 180.659437 81.092946 
L 181.422566 81.699532 
L 181.562665 82.420377 
L 182.281292 83.672195 
L 182.317553 84.366156 
L 182.619179 85.433142 
L 183.243857 86.195995 
L 182.99992 86.330418 
L 182.914212 86.518611 
L 183.616357 88.259395 
L 183.553724 88.975199 
L 183.255395 90.253902 
L 183.489443 90.327835 
L 183.026291 91.341051 
L 182.561491 93.678339 
L 182.146138 95.899686 
L 182.184047 96.744873 
L 181.954943 98.606637 
L 182.14449 100.905278 
L 181.97637 101.589157 
L 181.48355 102.602374 
L 181.26104 103.886117 
L 181.638484 104.383484 
L 181.834623 105.045519 
L 182.184047 107.149246 
L 182.579622 107.787757 
L 183.591633 108.858104 
L 183.81744 109.489894 
L 184.262462 109.278177 
L 184.29213 109.804109 
L 184.484973 110.259468 
L 185.559617 111.428952 
L 185.961784 111.365101 
L 187.061152 112.248935 
L 187.638032 114.072052 
L 187.855598 114.959247 
L 187.745166 115.486859 
L 188.712676 117.723328 
L 189.086824 118.388724 
L 189.223626 118.87937 
L 189.50877 119.354893 
L 189.312631 120.270652 
L 188.846182 121.194813 
L 188.880795 121.540954 
L 189.390097 122.315569 
L 189.456026 124.236143 
L 189.716446 124.656216 
L 189.606015 124.805762 
L 189.606015 125.740005 
L 189.449434 125.877789 
L 188.750585 126.042458 
L 187.796261 126.529743 
L 187.150156 127.220343 
L 187.153453 127.48751 
L 187.298497 127.739554 
L 187.638032 128.875432 
L 187.689127 129.577794 
L 187.97427 129.828158 
L 188.028662 130.108766 
L 188.399513 130.893463 
L 188.585762 132.328433 
L 188.529723 133.012312 
L 188.300619 133.677708 
L 188.706083 133.655865 
L 189.004412 133.469352 
L 189.937309 132.550232 
L 191.532793 132.009178 
L 191.995945 131.610948 
L 192.500303 130.310402 
L 193.083775 130.224707 
L 195.498428 131.132065 
L 196.116514 131.194236 
L 196.698338 131.091738 
L 197.735073 130.468349 
L 198.115813 130.483472 
L 199.360225 131.194236 
L 200.687048 131.286652 
L 203.59617 130.789285 
L 206.411342 129.216531 
L 207.083819 129.023297 
L 208.349658 129.0401 
L 211.22087 129.734061 
L 211.847196 129.683652 
L 212.455392 129.754225 
L 213.754195 130.083562 
L 214.398652 129.732381 
L 214.616218 129.204769 
L 215.387589 128.40495 
L 215.587024 127.694186 
L 215.887002 127.54464 
L 216.096327 128.618347 
L 216.46553 129.335832 
L 216.305651 129.939057 
L 216.338616 131.691602 
L 216.650131 131.742011 
L 216.676503 134.472487 
L 217.390185 136.236794 
L 217.2369 136.456913 
L 216.564423 137.090383 
L 216.521569 137.47517 
L 216.561127 138.130484 
L 216.491901 138.322038 
L 216.050176 139.005917 
L 215.682621 139.975446 
L 215.682621 140.387117 
L 216.107864 141.403695 
L 216.22324 143.183125 
L 215.880409 143.974542 
L 215.677677 148.348345 
L 215.761736 149.075911 
L 216.674854 150.413424 
L 216.722653 152.693582 
L 215.268916 155.009025 
L 214.678851 157.341272 
L 214.368984 158.073879 
L 214.263498 158.717431 
L 214.408542 159.238322 
L 214.733242 159.693681 
L 215.956227 161.053038 
L 216.416083 162.160351 
L 184.18994 162.160351 
L 184.252572 213.606715 
L 184.676167 214.130967 
L 185.23162 215.01144 
L 184.697594 215.01144 
L 184.925049 215.444956 
L 185.094817 215.98601 
L 185.340403 216.222931 
L 185.401387 216.837918 
L 186.194184 217.0782 
L 186.162868 217.281516 
L 185.882669 217.775522 
L 185.785424 218.351862 
L 186.23539 219.753226 
L 186.713376 219.894371 
L 186.929294 220.626979 
L 188.518185 221.803184 
L 189.035728 221.662039 
L 189.225275 221.626753 
L 189.40658 221.789741 
L 189.831822 221.861994 
L 190.09389 222.229978 
L 190.627916 222.900415 
L 191.031732 223.034838 
L 191.155349 223.175983 
L 192.849727 225.780437 
L 193.354084 225.935023 
L 193.589781 226.272762 
L 193.65571 226.696196 
L 193.749659 226.766768 
L 193.952391 226.768449 
L 195.125929 227.307823 
L 196.164312 228.494109 
L 196.388471 228.927625 
L 196.713172 229.925719 
L 196.922497 230.100469 
L 197.418613 230.360915 
L 198.483368 231.201061 
L 200.436518 231.94375 
L 201.197999 232.832625 
L 201.321616 233.269501 
L 202.01552 234.193662 
L 202.39626 234.497795 
L 203.268172 234.941393 
L 203.48409 235.890758 
L 204.034598 235.936126 
L 204.578513 235.830268 
L 205.328457 235.939487 
L 205.890502 236.283947 
L 206.554738 236.939261 
L 206.454196 237.381178 
L 206.544849 237.591214 
L 174.641758 243.630187 
L 174.381338 243.295808 
L 172.274904 242.359885 
L 172.01778 242.297715 
L 170.573933 242.467424 
L 170.308568 242.531275 
L 170.048148 242.418696 
L 167.101118 243.200032 
L 166.880255 243.630187 
L 165.472669 243.936 
L 165.128189 243.630187 
L 164.376598 243.319333 
L 164.137605 243.531049 
L 163.613468 243.376463 
L 163.240969 243.104255 
L 162.036115 243.080731 
L 161.633947 243.184909 
L 160.4225 242.484227 
L 159.196219 241.541583 
L 158.784162 241.6424 
L 157.976531 241.06606 
L 157.223291 241.175279 
L 157.051875 241.06606 
L 156.498071 241.519739 
L 156.122275 241.366832 
L 155.695384 241.346669 
L 155.314643 241.444126 
L 155.080595 241.6424 
L 154.961923 241.519739 
L 154.528439 241.649122 
L 152.448376 241.519739 
L 151.850069 241.187041 
L 149.229388 241.254253 
L 148.964023 241.6424 
L 148.342641 241.507977 
L 147.866303 241.242491 
L 147.722908 240.95012 
L 147.39491 240.867785 
L 146.122479 241.104707 
L 143.386421 241.139993 
L 140.600917 240.239356 
L 139.887234 240.289765 
L 139.232888 240.188947 
L 136.996244 240.536768 
L 134.914532 240.162062 
L 133.492112 239.468102 
L 132.872378 239.323596 
L 132.335056 238.725412 
L 131.267005 237.68195 
L 130.820335 237.39294 
L 130.602769 236.838443 
L 129.506698 235.870595 
L 128.959487 234.830493 
L 128.532596 234.685988 
L 128.504576 234.517959 
L 128.138669 233.820637 
L 127.977143 233.60556 
L 127.954068 233.506423 
L 126.976669 233.496341 
L 60.223458 233.558512 
L 60.073469 233.881128 
L 59.720748 233.934897 
L 58.906524 233.859284 
L 58.481281 234.054198 
L 58.032963 233.973544 
L 57.072047 233.857604 
L 56.620432 234.054198 
L 56.249581 233.981946 
L 56.017181 233.803835 
L 55.085933 232.671317 
L 52.05237 231.014549 
L 50.654673 229.888752 
L 49.296534 229.149424 
L 49.449819 228.683982 
L 48.633946 227.334707 
L 47.921912 227.151555 
L 47.636769 227.06586 
L 46.782987 226.585297 
L 46.009968 226.751646 
L 45.901185 226.682754 
L 44.894118 226.864225 
L 44.365037 226.724761 
L 44.142527 226.474397 
L 43.931553 226.585297 
L 43.634873 226.3719 
L 42.924487 226.514724 
L 41.21033 226.808776 
L 40.371382 227.287659 
L 39.18301 227.652283 
L 38.873143 228.233664 
L 38.320987 228.49747 
L 38.085291 228.872175 
L 36.834286 229.371222 
L 35.973911 229.98957 
L 35.181114 230.177763 
L 34.080098 230.980943 
L 33.879014 230.997746 
L 33.315321 230.871724 
L 32.07915 230.695293 
L 31.535235 230.485256 
L 31.086917 230.750743 
L 30.053478 230.713776 
L 28.851921 230.755783 
L 28.7316 230.44997 
L 27.986601 230.0467 
L 27.757498 229.593021 
L 27.533339 229.591341 
L 27.266326 229.70392 
L 26.234535 229.492203 
L 25.49613 229.58966 
L 24.111619 230.10215 
L 23.360027 230.656646 
L 22.412296 231.157373 
L 22.202971 231.466547 
L 21.795859 231.456466 
L 21.175567 231.056318 
L 21.060062 230.693798 
L 21.526849 225.045426 
L 21.337518 223.399873 
L 21.621071 223.322954 
L 21.699989 224.014922 
L 21.904748 224.306767 
L 22.172102 223.614806 
L 22.06587 220.402997 
L 22.195651 218.698889 
L 21.523382 212.214546 
L 21.598656 211.951256 
L 21.956853 211.215632 
L 21.596107 210.464853 
L 20.834807 209.287299 
L 20.81737 208.586702 
L 21.076933 207.643356 
L 21.601251 207.288775 
L 21.924408 207.157791 
L 22.06587 207.251729 
L 22.138547 207.534865 
L 22.32154 207.622187 
L 22.551253 207.553388 
L 23.493468 206.542566 
L 23.602485 205.645528 
L 23.926939 205.259193 
L 24.908089 204.687629 
L 25.117037 204.314524 
L 25.170248 203.843513 
L 25.678992 202.184389 
L 25.514169 201.755716 
L 26.020318 198.194025 
L 26.160482 197.979688 
L 26.828858 197.431939 
L 27.203927 197.5616 
L 27.351878 197.39357 
L 27.41028 196.833914 
L 27.312943 196.614285 
L 27.075443 196.495209 
L 26.828858 196.524316 
L 27.026126 195.663001 
L 27.445321 194.685256 
L 27.59457 193.896709 
L 28.163013 193.163731 
L 28.466703 191.793035 
L 28.792455 191.774512 
L 28.931321 191.562822 
L 29.066294 191.11298 
L 29.384259 190.596984 
L 29.446554 189.13632 
L 29.703522 187.945562 
L 29.881323 186.426683 
L 30.133099 186.013887 
L 30.318687 185.442322 
L 30.491297 184.362701 
L 30.491297 182.7909 
L 30.068209 181.238944 
L 30.122717 181.24556 
L 30.195395 181.279959 
L 30.665204 181.010054 
L 30.698948 180.56815 
L 30.278455 179.893387 
L 30.532827 179.480591 
L 30.613292 179.133948 
L 31.007828 178.517399 
L 31.144099 178.025219 
L 31.459468 177.440424 
L 31.52955 176.614832 
L 31.661928 176.420341 
L 32.341984 176.180866 
L 32.780646 176.396526 
L 33.047996 176.040621 
L 33.151821 175.461119 
L 33.268625 173.762303 
L 33.262136 171.970873 
L 33.548953 171.325217 
L 33.39062 170.915067 
L 33.43215 170.854206 
L 33.401002 170.09212 
L 33.211521 169.323419 
L 33.362068 168.811393 
L 33.534677 168.623518 
L 34.212138 168.410504 
L 34.51972 167.996385 
L 35.153055 167.718541 
L 35.293219 167.279284 
L 35.216648 166.818857 
L 35.402236 166.543659 
L 35.504763 166.292277 
L 35.960297 166.051479 
L 36.197798 165.678375 
L 36.391172 165.755113 
L 37.178947 165.273517 
L 38.226285 163.921344 
L 38.845344 163.415933 
L 39.119183 162.981968 
L 40.102929 161.849424 
L 40.323558 161.412813 
L 40.326153 160.98414 
L 39.826494 159.56846 
L 40.017273 159.155663 
L 40.754433 158.39887 
L 41.135991 158.177918 
L 42.179436 157.177681 
L 42.724519 156.844269 
L 43.100886 156.229043 
L 43.830259 155.661448 
L 44.154713 155.691879 
L 44.694605 155.845354 
L 45.398022 155.280406 
L 45.675754 155.326713 
L 46.21954 155.623079 
L 46.787983 155.514588 
L 47.248708 155.152068 
L 48.52576 153.667589 
L 48.621799 152.69249 
L 49.046185 151.915851 
L 50.159712 150.942075 
L 50.159712 151.053212 
L 49.885872 151.215949 
L 49.941678 151.505701 
L 50.192157 151.25961 
L 50.51142 150.735677 
L 51.186285 149.921992 
L 51.565247 148.635972 
L 52.227134 147.147524 
L 52.504867 145.760952 
L 52.924062 145.247602 
L 53.205688 144.58607 
L 53.654733 142.142368 
L 53.384787 139.198548 
L 53.517164 137.071059 
L 53.654733 136.783954 
L 53.527546 136.637094 
L 53.742984 134.845664 
L 54.085608 134.231762 
L 54.088203 133.787212 
L 54.48274 131.469202 
L 54.433423 128.738395 
L 54.19722 128.217107 
L 52.647627 125.78796 
L 52.642435 125.510116 
L 52.774813 125.234918 
L 53.258898 124.650124 
L 53.290046 124.384187 
L 52.99025 123.868192 
L 52.227134 123.149768 
L 52.159647 122.969831 
L 50.648989 121.137386 
L 49.396595 119.971765 
L 49.317429 119.66746 
L 49.23307 118.214735 
L 49.099395 117.866768 
L 48.041675 116.27909 
L 47.858682 115.485251 
L 46.044334 112.978043 
L 46.23122 112.509678 
L 46.328556 112.170973 
L 46.200072 111.50944 
L 45.416191 110.138745 
L 44.03142 108.323499 
L 44.110587 108.043009 
L 44.468785 107.659321 
L 44.576503 107.368246 
L 44.455806 106.764928 
L 44.210519 106.193364 
L 43.666734 104.378119 
L 43.638182 103.399051 
L 42.906213 102.195061 
L 41.70703 100.17871 
L 41.251497 99.101735 
L 40.924447 98.630724 
L 40.860854 97.723101 
L 41.465636 96.447666 
L 42.36113 95.354814 
L 43.160585 95.008171 
L 42.81277 95.526813 
L 41.6655 96.495297 
L 40.985444 98.276142 
L 41.190499 98.466664 
L 41.35662 98.323773 
L 42.559696 96.39739 
L 42.942552 96.360344 
L 43.174861 96.143361 
L 43.540846 95.283369 
L 44.03142 94.674759 
L 44.085929 93.952365 
L 44.834769 93.214095 
L 45.121587 93.118834 
L 44.140437 94.230209 
L 45.456423 93.392709 
L 45.561546 93.13868 
L 45.674457 93.118834 
L 46.662095 93.261725 
L 47.044951 93.122803 
L 47.458955 91.205682 
L 46.990443 90.546796 
L 46.810046 90.062554 
L 46.437573 88.447091 
L 47.041058 88.224816 
L 47.083886 88.066048 
L 47.025484 86.490278 
L 46.873639 86.106589 
L 45.207242 83.605996 
L 44.849045 82.589882 
L 44.419468 81.809273 
L 44.140437 81.198017 
L 44.001571 80.453131 
L 42.942552 78.528071 
L 40.014385 71.677263 
L 39.570882 70.037523 
L 38.589955 68.912618 
L 38.673342 68.349447 
L 38.588263 67.923064 
L 38.323622 64.683517 
L 38.078334 63.64888 
L 38.315835 63.220207 
L 38.252242 63.037624 
L 37.786326 63.341929 
L 37.46836 63.203007 
L 36.308112 61.569022 
L 34.929385 60.278148 
L 33.816346 58.616857 
L 32.341984 55.903657 
L 31.343576 53.606424 
L 30.124763 51.910523 
L 29.491603 50.732888 
L 29.421651 50.197425 
L 29.664587 49.902233 
L 30.355977 49.606731 
L 30.250147 49.856691 
L 30.214572 50.320724 
L 31.939746 50.103364 
L 32.959895 49.869426 
L 33.803066 49.42281 
L 34.29494 49.35082 
L 35.329558 48.802766 
L 35.717055 48.814543 
L 36.876781 49.133954 
L 38.773439 48.597294 
L 39.107021 48.347566 
L 39.827581 48.026179 
L 40.757494 46.724276 
L 42.003564 46.508024 
L 42.766049 46.54694 
L 43.931553 45.996671 
L 45.278155 46.112611 
L 45.942391 46.28232 
L 46.4451 46.552847 
L 47.05 45.996671 
L 48.848216 46.030276 
L 49.510803 46.169741 
L 49.954177 46.013473 
L 51.213422 46.149577 
L 56.030367 45.756389 
L 56.648452 45.946262 
L 56.648452 45.946262 
" clip-path="url(#p67c9a93f4a)" style="fill: none; stroke: #000000; stroke-width: 2"/>
    <path d="M 37.810037 22.481813 
L 38.276485 22.476772 
L 38.658874 22.369234 
L 38.907756 22.513739 
L 39.140156 22.841396 
L 39.426948 23.622732 
L 39.738463 23.982315 
L 40.369734 24.494804 
L 41.416358 25.768466 
L 42.158061 26.144852 
L 42.024554 26.610293 
L 41.454268 26.820329 
L 38.322635 27.564699 
L 37.839705 27.843628 
L 37.391387 28.48886 
L 37.106244 29.428144 
L 36.150272 30.051532 
L 35.861832 30.84295 
L 35.471202 30.977374 
L 34.714666 31.134481 
L 34.666867 31.465499 
L 34.408095 32.078805 
L 33.813085 32.466953 
L 32.042889 33.127308 
L 32.064316 33.439843 
L 32.217601 33.680125 
L 33.392787 34.17245 
L 33.498274 34.718545 
L 33.152146 43.881182 
L 30.528168 43.854297 
L 29.165084 44.050892 
L 28.388833 44.480312 
L 27.615335 43.149309 
L 27.383025 42.119964 
L 27.74901 41.090619 
L 28.118888 40.863052 
L 28.521211 40.757207 
L 28.737946 40.380133 
L 28.691225 39.664355 
L 27.767918 37.423962 
L 27.779535 36.985109 
L 27.145744 35.854121 
L 27.022363 35.078606 
L 26.147247 34.021112 
L 25.40645 32.646817 
L 26.220744 32.920831 
L 26.32513 33.301318 
L 26.638274 33.374691 
L 26.898024 33.205726 
L 27.231321 32.634556 
L 27.147775 32.169612 
L 26.835345 32.106379 
L 26.679066 32.51877 
L 26.595719 32.952323 
L 26.48107 32.899562 
L 26.304336 32.402627 
L 26.17937 32.360402 
L 26.096083 32.508442 
L 25.939769 32.519115 
L 25.752112 32.413519 
L 25.188325 32.392858 
L 25.323306 32.213517 
L 27.121282 30.658118 
L 27.54158 29.969198 
L 28.100329 28.228415 
L 28.439864 28.320831 
L 28.785992 28.887089 
L 29.158491 28.672012 
L 30.168854 28.467016 
L 30.335325 28.267061 
L 31.077028 26.583408 
L 31.057249 25.886086 
L 31.207238 25.659247 
L 31.878066 25.692853 
L 32.964248 25.33159 
L 34.983327 24.908156 
L 35.159687 24.719963 
L 35.728325 23.804204 
L 36.493103 23.162332 
L 36.80297 22.399479 
L 37.182062 22.176 
L 37.810037 22.481813 
L 37.810037 22.481813 
" clip-path="url(#p67c9a93f4a)" style="fill: none; stroke: #000000; stroke-width: 2"/>
   </g>
  </g>
 </g>
 <defs>
  <clipPath id="p67c9a93f4a">
   <rect x="0" y="-0" width="237.152929" height="266.112"/>
  </clipPath>
 </defs>
</svg>
