<?xml version="1.0" encoding="utf-8" standalone="no"?>
<!DOCTYPE svg PUBLIC "-//W3C//DTD SVG 1.1//EN"
  "http://www.w3.org/Graphics/SVG/1.1/DTD/svg11.dtd">
<svg xmlns:xlink="http://www.w3.org/1999/xlink" width="117.178439pt" height="266.112pt" viewBox="0 0 117.178439 266.112" xmlns="http://www.w3.org/2000/svg" version="1.1">
 <metadata>
  <rdf:RDF xmlns:dc="http://purl.org/dc/elements/1.1/" xmlns:cc="http://creativecommons.org/ns#" xmlns:rdf="http://www.w3.org/1999/02/22-rdf-syntax-ns#">
   <cc:Work>
    <dc:type rdf:resource="http://purl.org/dc/dcmitype/StillImage"/>
    <dc:date>2024-02-02T21:57:59.249165</dc:date>
    <dc:format>image/svg+xml</dc:format>
    <dc:creator>
     <cc:Agent>
      <dc:title>Matplotlib v3.8.2, https://matplotlib.org/</dc:title>
     </cc:Agent>
    </dc:creator>
   </cc:Work>
  </rdf:RDF>
 </metadata>
 <defs>
  <style type="text/css">*{stroke-linejoin: round; stroke-linecap: butt}</style>
 </defs>
 <g id="figure_1">
  <g id="patch_1">
   <path d="M 0 266.112 
L 117.178439 266.112 
L 117.178439 0 
L 0 0 
L 0 266.112 
z
" style="fill: none"/>
  </g>
  <g id="axes_1">
   <g id="PatchCollection_1">
    <path d="M 36.090099 27.754366 
L 35.992874 27.678419 
L 35.735512 28.084739 
L 35.323734 28.952443 
L 35.123564 30.581523 
L 35.157878 31.078982 
L 35.34661 31.760613 
L 36.301708 34.037149 
L 38.120396 35.421297 
L 39.058336 35.894073 
L 40.064906 36.015589 
L 40.945654 35.73838 
L 43.038862 34.519417 
L 43.559304 34.021959 
L 44.931899 33.082105 
L 47.631336 33.16185 
L 49.038246 32.761226 
L 51.028509 30.154317 
L 52.218091 29.307499 
L 53.642158 30.116343 
L 54.785988 31.346698 
L 57.548335 32.844768 
L 58.497713 34.037149 
L 60.053321 37.733908 
L 60.356436 38.149722 
L 61.099925 38.857936 
L 61.374444 39.423747 
L 61.357286 40.031329 
L 60.785372 40.893337 
L 60.716742 41.364213 
L 60.974104 41.823698 
L 61.837695 42.552796 
L 62.157967 42.99899 
L 62.289507 43.5667 
L 62.192282 44.559717 
L 62.27235 45.081858 
L 62.752758 46.285631 
L 63.204571 46.784988 
L 63.862272 46.881821 
L 67.642628 46.792583 
L 68.494781 46.934985 
L 75.334879 51.886782 
L 76.701755 53.341182 
L 77.759797 54.772799 
L 79.853005 59.263213 
L 80.447796 61.220767 
L 80.590775 62.519475 
L 80.602213 64.871958 
L 80.939642 66.244715 
L 82.678263 70.76171 
L 83.210143 74.1243 
L 82.626791 75.468576 
L 82.174978 76.045779 
L 81.774638 76.343874 
L 81.437208 76.748296 
L 81.174127 77.634987 
L 81.185566 78.16852 
L 81.465804 79.074198 
L 81.431489 79.613427 
L 80.024579 80.465941 
L 79.955949 82.093123 
L 80.396324 83.948148 
L 80.533583 85.467104 
L 80.173277 86.110762 
L 78.886469 87.367698 
L 78.34315 88.081608 
L 77.897057 89.059436 
L 77.736921 89.834103 
L 78.177295 95.15045 
L 78.457533 96.718772 
L 79.629958 100.12693 
L 79.635677 100.770587 
L 79.338282 101.533863 
L 78.869312 102.012334 
L 78.125823 102.460426 
L 77.325142 102.798394 
L 74.625705 103.386989 
L 74.831595 104.431272 
L 74.671458 106.413509 
L 75.06036 107.507158 
L 75.678028 107.788165 
L 76.101245 108.228662 
L 76.987713 110.138749 
L 77.210759 111.737451 
L 77.60538 112.071621 
L 78.526163 112.219719 
L 78.94366 112.496929 
L 79.601362 113.431087 
L 79.938792 114.334866 
L 79.927354 115.329782 
L 79.538452 116.556339 
L 79.01229 117.55885 
L 78.291678 118.470224 
L 77.496717 118.95629 
L 76.701755 118.705662 
L 76.484428 120.292971 
L 76.781823 122.50685 
L 77.719763 126.471325 
L 78.417499 128.335844 
L 80.464953 131.240847 
L 81.339983 132.945876 
L 81.620221 134.605335 
L 81.585906 135.90784 
L 81.974808 136.906554 
L 83.541854 137.643248 
L 85.629342 137.783751 
L 86.229853 138.247033 
L 86.796048 139.431818 
L 87.865528 144.23172 
L 88.935009 148.458215 
L 89.735689 150.155649 
L 91.045374 151.275879 
L 92.440845 151.587265 
L 93.4131 151.196134 
L 95.254665 149.639204 
L 96.387056 149.358197 
L 99.30954 149.783504 
L 102.060449 150.607538 
L 102.98695 151.511317 
L 103.438763 152.893567 
L 103.558865 158.327633 
L 103.221435 159.88836 
L 102.266338 161.027577 
L 102.809657 161.475669 
L 103.364414 163.173103 
L 104.942898 164.684464 
L 106.412719 166.492022 
L 106.978914 167.524912 
L 107.339221 168.80843 
L 107.413569 170.251438 
L 107.219119 171.599512 
L 106.532821 175.001973 
L 106.424157 176.186759 
L 106.132481 176.92725 
L 105.755017 177.344963 
L 104.737009 178.058873 
L 104.359545 178.810756 
L 103.644652 179.00822 
L 103.05558 179.422136 
L 102.72387 180.075287 
L 102.763904 180.986661 
L 102.420755 181.776518 
L 101.888874 182.539793 
L 100.51056 183.492938 
L 99.275225 183.18535 
L 98.011293 182.57397 
L 96.530035 182.604349 
L 95.792265 183.105604 
L 94.825729 185.17898 
L 94.333882 185.459986 
L 93.184334 185.737196 
L 92.692488 186.253641 
L 92.600981 186.944766 
L 92.869781 189.713064 
L 92.681049 190.62064 
L 92.435126 191.228222 
L 91.828897 192.378832 
L 90.810889 194.949665 
L 90.376233 195.344593 
L 89.169494 196.092679 
L 88.734839 196.806589 
L 88.483196 198.481238 
L 88.597579 199.950828 
L 88.586141 201.458392 
L 87.968473 203.212786 
L 87.665358 203.459617 
L 86.84752 203.714042 
L 86.590159 204.116565 
L 86.561563 204.568455 
L 87.024814 207.116503 
L 86.944746 207.450674 
L 85.880985 210.35188 
L 85.474925 210.640482 
L 82.020561 212.318928 
L 80.642247 212.455634 
L 77.708325 212.01134 
L 76.701755 212.280954 
L 75.832445 212.793602 
L 73.996599 212.573353 
L 72.944276 213.059419 
L 72.206506 213.936616 
L 71.5774 215.098618 
L 71.11415 216.40492 
L 70.879665 217.722615 
L 69.964601 217.920079 
L 67.202254 218.007419 
L 66.533114 218.22387 
L 66.813352 218.797276 
L 67.642628 223.25921 
L 67.928585 223.699707 
L 69.243989 225.032591 
L 71.794728 229.354021 
L 72.017775 230.629944 
L 71.571681 232.095737 
L 70.610865 233.113438 
L 69.667206 233.003313 
L 68.689232 232.399528 
L 66.55599 231.560305 
L 66.006952 231.472965 
L 65.543701 231.666632 
L 65.154799 232.217253 
L 65.292059 232.517247 
L 65.61805 232.828633 
L 65.801063 233.405837 
L 65.715276 233.785576 
L 65.303497 234.894414 
L 66.618901 237.233606 
L 66.453046 238.031058 
L 65.692399 238.984203 
L 64.662953 239.595583 
L 63.827957 240.423414 
L 63.662102 242.033507 
L 63.175975 241.729716 
L 62.695567 241.574023 
L 62.226597 241.574023 
L 61.780503 241.729716 
L 61.345848 242.223377 
L 61.111363 243.711954 
L 60.236334 243.936 
L 59.109662 243.400568 
L 57.531178 241.938573 
L 54.991877 240.571512 
L 50.937002 239.204452 
L 49.872723 239.853297 
L 49.818684 240.283867 
L 49.44041 240.283867 
L 49.138691 239.207441 
L 49.327828 237.987492 
L 50.196958 235.762879 
L 49.251272 235.35922 
L 48.976573 235.096093 
L 49.818684 233.212349 
L 50.831918 229.537551 
L 50.949003 228.6495 
L 50.588742 227.133534 
L 50.007821 226.711934 
L 49.147697 226.640172 
L 47.927313 226.185682 
L 47.832744 225.70727 
L 47.769698 225.393313 
L 47.549038 225.139157 
L 46.238588 224.469381 
L 45.292903 224.4335 
L 44.869596 224.137483 
L 44.869596 223.680002 
L 46.229582 222.074334 
L 46.79249 221.670674 
L 45.833295 220.728802 
L 42.491872 213.92938 
L 42.037042 213.597482 
L 40.267259 213.543661 
L 39.389123 213.376217 
L 38.790189 213.050299 
L 39.231509 212.598798 
L 37.727418 211.546293 
L 37.41219 212.24298 
L 37.349144 212.598798 
L 37.169013 211.937993 
L 36.903321 211.615065 
L 36.178295 211.043961 
L 36.106243 210.750934 
L 35.709956 209.883814 
L 35.255126 209.160217 
L 35.052479 209.30972 
L 34.503081 208.735627 
L 30.855436 207.533618 
L 27.793217 205.673794 
L 26.01893 204.047195 
L 22.893665 202.970769 
L 21.065339 201.559456 
L 15.801023 195.567353 
L 14.91388 193.940755 
L 14.166338 190.657657 
L 13.761044 189.754655 
L 11.82464 187.808119 
L 11.045576 186.5792 
L 11.045576 186.495478 
L 10.73485 186.369895 
L 10.73485 185.867563 
L 12.207418 185.090144 
L 13.112574 185.009412 
L 13.977201 185.616397 
L 16.472009 188.875574 
L 17.206042 190.615796 
L 17.50776 191.683251 
L 17.633852 192.687915 
L 18.151727 193.010842 
L 19.313569 192.732766 
L 20.475412 192.167642 
L 20.993287 191.66232 
L 21.362555 184.994462 
L 21.20494 183.906076 
L 19.786412 183.068856 
L 17.886034 181.11634 
L 16.368434 178.918637 
L 16.093735 177.33988 
L 16.472009 177.797361 
L 16.769225 178.981429 
L 17.219551 178.846876 
L 17.633852 178.846876 
L 18.705629 180.084765 
L 19.394628 179.702036 
L 19.759393 178.326603 
L 19.867471 176.562461 
L 19.178471 175.151148 
L 17.71491 174.385689 
L 16.381944 174.765429 
L 16.093735 176.792697 
L 15.697448 175.65946 
L 11.554444 169.266688 
L 11.829144 168.393587 
L 12.581189 167.66999 
L 13.472835 166.994234 
L 14.166338 166.252696 
L 14.661697 165.104509 
L 14.882357 163.87559 
L 14.940899 159.507096 
L 15.12103 158.317047 
L 15.616389 157.521688 
L 17.219551 156.950585 
L 17.070944 156.32267 
L 16.472009 155.174483 
L 16.715186 154.582449 
L 17.476237 153.544894 
L 17.633852 153.416321 
L 17.192532 152.573121 
L 16.354924 151.475765 
L 15.805526 150.518942 
L 16.282872 150.112292 
L 17.120479 149.792355 
L 18.205766 148.213597 
L 19.110922 147.552791 
L 18.340864 148.419912 
L 18.8047 150.142193 
L 18.354374 151.613308 
L 18.354374 153.165155 
L 18.768674 153.165155 
L 18.939798 152.11564 
L 18.930792 152.342885 
L 19.110922 153.165155 
L 19.840451 152.169461 
L 22.745057 150.752167 
L 23.677233 149.60996 
L 23.771801 147.800967 
L 23.19088 146.356763 
L 22.461351 145.029171 
L 22.12811 143.584967 
L 21.938973 145.471702 
L 21.254476 147.164082 
L 19.826941 149.364774 
L 19.804425 149.041847 
L 19.489197 148.605296 
L 20.083628 147.995322 
L 20.718588 146.957767 
L 21.119378 145.615225 
L 20.993287 144.087299 
L 20.718588 143.7255 
L 19.822438 143.348751 
L 19.489197 143.082635 
L 19.092909 142.260365 
L 19.128935 141.865676 
L 19.363105 141.521818 
L 19.966543 135.939355 
L 19.678334 134.761267 
L 19.124432 133.684841 
L 19.164962 133.20643 
L 20.371836 132.659247 
L 20.560974 131.825017 
L 20.651039 129.995094 
L 22.907174 126.341227 
L 23.298958 124.935893 
L 23.118828 123.446838 
L 22.54241 122.164097 
L 21.718313 121.258106 
L 20.826666 120.917238 
L 19.615288 120.917238 
L 18.59755 120.725873 
L 17.895041 120.074038 
L 17.633852 118.683655 
L 17.633852 115.648732 
L 17.444715 114.996897 
L 16.62512 114.234429 
L 16.472009 113.391229 
L 17.201538 114.357022 
L 18.435433 114.28825 
L 19.345092 113.268636 
L 19.110922 111.381901 
L 20.421372 110.646343 
L 21.785862 109.525067 
L 22.857639 108.000131 
L 23.298958 106.050604 
L 23.163861 104.833645 
L 22.77658 104.370184 
L 22.177646 104.18779 
L 21.407587 103.814031 
L 20.61051 103.048573 
L 19.723366 101.541577 
L 19.110922 100.761168 
L 23.933919 101.410014 
L 25.987407 100.782099 
L 27.072694 98.249509 
L 27.450968 98.249509 
L 27.486995 99.056828 
L 27.694145 99.487398 
L 28.081426 99.55916 
L 28.630824 99.299024 
L 28.189504 97.325577 
L 27.919308 96.814274 
L 27.450968 97.289696 
L 27.198786 96.697662 
L 25.568604 95.238507 
L 26.703427 93.24712 
L 26.604355 90.947755 
L 26.316146 88.489916 
L 26.325152 87.165315 
L 27.333884 87.512163 
L 27.856262 86.55534 
L 27.901295 85.009474 
L 27.450968 83.61012 
L 27.095211 83.628061 
L 20.470908 80.916066 
L 19.678334 80.395794 
L 18.669602 79.950273 
L 14.916086 81.142611 
L 14.866348 80.372905 
L 14.906382 78.451426 
L 14.466008 77.669164 
L 13.951285 77.175503 
L 13.819744 76.883104 
L 14.105702 75.337566 
L 14.237242 74.813526 
L 13.882655 73.11989 
L 14.168612 72.854073 
L 14.620425 72.793314 
L 14.952135 72.519902 
L 15.243812 71.281953 
L 14.820595 70.76171 
L 14.311591 69.654771 
L 14.111421 68.249737 
L 14.174332 66.795336 
L 14.443131 65.532704 
L 15.45542 63.337812 
L 15.185893 62.467775 
L 14.357344 61.473294 
L 11.188937 59.149291 
L 10.313979 58.18978 
L 9.76487 57.017056 
L 9.925006 56.238591 
L 11.566401 54.487994 
L 16.868049 46.346389 
L 16.919522 45.96665 
L 16.885207 44.960342 
L 16.993871 44.426809 
L 17.80027 42.803424 
L 20.631247 39.569946 
L 21.369017 38.366174 
L 22.461374 37.65796 
L 23.364999 36.636462 
L 24.131365 35.406108 
L 24.800505 34.025757 
L 25.109339 32.920716 
L 25.77276 32.358702 
L 26.567721 31.91061 
L 27.254019 31.137841 
L 27.562852 30.258745 
L 27.871686 28.33157 
L 28.191959 27.317666 
L 29.11846 25.836684 
L 31.124868 23.660438 
L 32.121012 22.774089 
L 33.40782 22.176 
L 34.671751 22.817759 
L 35.523904 24.410764 
L 35.992874 26.284776 
L 36.090099 27.754366 
L 36.090099 27.754366 
" clip-path="url(#p23b2869ec8)" style="fill: none; stroke: #000000; stroke-width: 2"/>
   </g>
  </g>
 </g>
 <defs>
  <clipPath id="p23b2869ec8">
   <rect x="0" y="-0" width="117.178439" height="266.112"/>
  </clipPath>
 </defs>
</svg>
