<?xml version="1.0" encoding="utf-8" standalone="no"?>
<!DOCTYPE svg PUBLIC "-//W3C//DTD SVG 1.1//EN"
  "http://www.w3.org/Graphics/SVG/1.1/DTD/svg11.dtd">
<svg xmlns:xlink="http://www.w3.org/1999/xlink" width="318.64337pt" height="266.112pt" viewBox="0 0 318.64337 266.112" xmlns="http://www.w3.org/2000/svg" version="1.1">
 <metadata>
  <rdf:RDF xmlns:dc="http://purl.org/dc/elements/1.1/" xmlns:cc="http://creativecommons.org/ns#" xmlns:rdf="http://www.w3.org/1999/02/22-rdf-syntax-ns#">
   <cc:Work>
    <dc:type rdf:resource="http://purl.org/dc/dcmitype/StillImage"/>
    <dc:date>2024-02-02T21:57:59.297174</dc:date>
    <dc:format>image/svg+xml</dc:format>
    <dc:creator>
     <cc:Agent>
      <dc:title>Matplotlib v3.8.2, https://matplotlib.org/</dc:title>
     </cc:Agent>
    </dc:creator>
   </cc:Work>
  </rdf:RDF>
 </metadata>
 <defs>
  <style type="text/css">*{stroke-linejoin: round; stroke-linecap: butt}</style>
 </defs>
 <g id="figure_1">
  <g id="patch_1">
   <path d="M 0 266.112 
L 318.64337 266.112 
L 318.64337 0 
L 0 0 
L 0 266.112 
z
" style="fill: none"/>
  </g>
  <g id="axes_1">
   <g id="PatchCollection_1">
    <path d="M 249.083614 169.470752 
L 242.043462 177.831215 
L 233.778937 181.699877 
L 224.825701 181.803735 
L 216.025512 178.584177 
L 214.112427 175.468476 
L 212.046296 174.637623 
L 209.827118 175.754082 
L 207.1488 178.895747 
L 199.113844 206.002343 
L 175.391595 216.050479 
L 128.712332 222.152058 
L 124.580069 226.877538 
L 121.366087 232.641585 
L 116.69816 238.353703 
L 108.127541 243.105146 
L 102.082194 243.936 
L 57.239491 237.938276 
L 48.745396 231.603018 
L 48.745396 219.010394 
L 27.395372 185.568539 
L 39.945206 179.830457 
L 44.153992 178.739962 
L 58.769959 168.172544 
L 56.244687 152.282469 
L 43.235712 140.65052 
L 26.553614 142.883439 
L 29.002363 131.459204 
L 41.246105 110.168581 
L 41.322627 106.29992 
L 35.124233 102.093724 
L 36.042514 92.6168 
L 40.174777 82.464809 
L 43.465282 76.415157 
L 59.841287 69.7164 
L 71.24327 30.121037 
L 94.659426 31.341353 
L 116.392066 23.006853 
L 127.717528 22.176 
L 167.892304 49.749951 
L 176.003783 53.566685 
L 260.179504 61.87522 
L 253.751541 82.28306 
L 265.689188 89.864598 
L 282.906949 95.213218 
L 289.140238 104.289825 
L 292.089756 108.584767 
L 273.494573 110.324367 
L 259.949935 123.514167 
L 251.761932 144.389361 
L 249.083614 169.470752 
" clip-path="url(#p7a749b9547)" style="fill: none; stroke: #000000; stroke-width: 2"/>
   </g>
  </g>
 </g>
 <defs>
  <clipPath id="p7a749b9547">
   <rect x="0" y="-0" width="318.64337" height="266.112"/>
  </clipPath>
 </defs>
</svg>
