<?xml version="1.0" encoding="utf-8" standalone="no"?>
<!DOCTYPE svg PUBLIC "-//W3C//DTD SVG 1.1//EN"
  "http://www.w3.org/Graphics/SVG/1.1/DTD/svg11.dtd">
<svg xmlns:xlink="http://www.w3.org/1999/xlink" width="337.940577pt" height="266.112pt" viewBox="0 0 337.940577 266.112" xmlns="http://www.w3.org/2000/svg" version="1.1">
 <metadata>
  <rdf:RDF xmlns:dc="http://purl.org/dc/elements/1.1/" xmlns:cc="http://creativecommons.org/ns#" xmlns:rdf="http://www.w3.org/1999/02/22-rdf-syntax-ns#">
   <cc:Work>
    <dc:type rdf:resource="http://purl.org/dc/dcmitype/StillImage"/>
    <dc:date>2024-02-02T21:57:59.321180</dc:date>
    <dc:format>image/svg+xml</dc:format>
    <dc:creator>
     <cc:Agent>
      <dc:title>Matplotlib v3.8.2, https://matplotlib.org/</dc:title>
     </cc:Agent>
    </dc:creator>
   </cc:Work>
  </rdf:RDF>
 </metadata>
 <defs>
  <style type="text/css">*{stroke-linejoin: round; stroke-linecap: butt}</style>
 </defs>
 <g id="figure_1">
  <g id="patch_1">
   <path d="M 0 266.112 
L 337.940577 266.112 
L 337.940577 0 
L 0 0 
L 0 266.112 
z
" style="fill: none"/>
  </g>
  <g id="axes_1">
   <g id="PatchCollection_1">
    <path d="M 162.334258 140.323064 
L 163.829031 141.268817 
L 164.04801 141.404671 
L 166.052149 141.820071 
L 166.480587 141.995114 
L 167.689734 142.486278 
L 168.289548 144.309856 
L 167.480276 145.778125 
L 165.690356 146.412981 
L 163.59577 146.326766 
L 161.862976 145.62137 
L 161.986747 145.025702 
L 161.534506 144.205353 
L 160.834724 143.99896 
L 160.22539 145.221646 
L 160.663349 145.62137 
L 159.073367 146.661175 
L 157.164437 147.037386 
L 155.222185 146.820543 
L 153.475109 146.099471 
L 152.465899 145.52993 
L 152.456378 145.527317 
L 151.875607 145.328761 
L 150.280865 145.221646 
L 149.257374 145.088404 
L 148.595675 144.848047 
L 148.571873 144.351658 
L 149.481114 143.432031 
L 150.142812 143.024469 
L 150.2285 142.972217 
L 150.2285 142.966992 
L 151.666148 142.431414 
L 152.280243 142.117905 
L 153.394182 141.117288 
L 153.722651 140.900444 
L 154.132048 140.631349 
L 154.38435 140.550359 
L 155.074611 140.323064 
L 155.62206 140.33874 
L 156.478936 140.707113 
L 156.607468 140.735852 
L 156.907375 140.801166 
L 157.30725 140.631349 
L 158.706815 139.484427 
L 160.320598 138.79732 
L 160.963256 138.418496 
L 161.4631 137.731388 
L 161.777288 138.525612 
L 161.705882 138.713717 
L 161.4631 139.045514 
L 161.4631 139.048127 
L 162.062913 140.033068 
L 162.334258 140.323064 
" clip-path="url(#pf5bf829ba9)" style="fill: none; stroke: #000000; stroke-width: 2"/>
    <path d="M 181.975766 139.14218 
L 181.504484 140.801166 
L 180.923712 139.656857 
L 179.66696 139.095153 
L 178.191229 138.671916 
L 176.929717 137.948232 
L 176.28706 136.278796 
L 176.28706 136.273571 
L 177.086811 134.941157 
L 178.357844 134.402966 
L 178.657751 134.672061 
L 179.143314 135.103136 
L 180.633326 136.762122 
L 181.361671 137.574634 
L 181.980526 139.139567 
L 181.975766 139.14218 
" clip-path="url(#pf5bf829ba9)" style="fill: none; stroke: #000000; stroke-width: 2"/>
    <path d="M 184.841541 137.208873 
L 184.341697 137.336889 
L 183.699039 137.323826 
L 183.342008 137.125271 
L 182.342319 135.941773 
L 181.599692 135.416646 
L 181.057004 135.165838 
L 180.842785 134.753051 
L 181.142692 133.749822 
L 181.57113 133.164604 
L 182.266152 132.678665 
L 183.099226 132.406957 
L 183.941821 132.433083 
L 184.455947 133.512077 
L 185.036718 134.423866 
L 186.341075 135.941773 
L 185.926918 136.482577 
L 185.398511 136.916265 
L 184.841541 137.208873 
" clip-path="url(#pf5bf829ba9)" style="fill: none; stroke: #000000; stroke-width: 2"/>
    <path d="M 88.957086 138.167689 
L 87.991963 139.123606 
L 87.226284 138.295888 
L 86.587182 137.212844 
L 85.883183 135.683506 
L 86.008075 134.407941 
L 86.957708 133.308296 
L 87.700334 132.244977 
L 89.099899 131.427241 
L 90.466752 131.85336 
L 91.105153 132.87301 
L 91.425717 134.530815 
L 91.303975 135.518536 
L 90.042463 137.182747 
L 88.957086 138.167689 
" clip-path="url(#pf5bf829ba9)" style="fill: none; stroke: #000000; stroke-width: 2"/>
    <path d="M 189.958997 132.020296 
L 190.006601 132.898122 
L 189.382985 134.763501 
L 188.416619 135.23899 
L 186.817117 132.438308 
L 186.669544 131.991557 
L 187.083701 131.921018 
L 187.731118 132.093448 
L 188.297609 132.453984 
L 188.559432 132.579387 
L 188.635599 132.286779 
L 188.473744 131.944531 
L 187.612108 131.299225 
L 187.426451 130.703557 
L 188.178598 130.612117 
L 189.406787 131.440304 
L 189.958997 132.020296 
" clip-path="url(#pf5bf829ba9)" style="fill: none; stroke: #000000; stroke-width: 2"/>
    <path d="M 136.864148 134.28296 
L 134.565705 135.355399 
L 133.479617 136.051326 
L 132.076873 136.236406 
L 131.246016 136.870255 
L 131.243234 137.571205 
L 130.729491 138.525017 
L 129.905122 137.502052 
L 129.076695 137.435028 
L 127.994731 136.857205 
L 127.417632 137.811112 
L 125.186535 137.484438 
L 124.358002 137.354207 
L 123.122647 137.605985 
L 122.913189 137.679137 
L 122.760855 137.673912 
L 122.618042 137.334277 
L 122.646605 136.963291 
L 122.827501 136.498252 
L 123.03696 136.106366 
L 123.217856 135.939161 
L 125.407651 136.41465 
L 125.997943 136.270958 
L 127.502237 135.599526 
L 127.802144 135.322593 
L 128.116332 135.092686 
L 130.04432 134.315947 
L 131.130039 133.810662 
L 131.640153 133.812898 
L 132.209781 134.834987 
L 132.782128 135.156093 
L 133.300433 134.89413 
L 133.428965 134.19396 
L 133.357558 133.504239 
L 133.000527 132.871996 
L 133.000527 132.869383 
L 135.195082 129.616725 
L 136.228094 128.885204 
L 136.280459 129.25619 
L 136.542282 129.891046 
L 136.627969 130.238519 
L 137.98469 130.996166 
L 137.998971 131.004004 
L 137.613377 133.480726 
L 136.864148 134.28296 
" clip-path="url(#pf5bf829ba9)" style="fill: none; stroke: #000000; stroke-width: 2"/>
    <path d="M 197.870821 128.101431 
L 197.061549 128.373139 
L 195.523932 128.088368 
L 192.724803 127.171354 
L 189.930434 126.293528 
L 189.930434 125.282461 
L 189.930434 125.279848 
L 192.301125 123.056545 
L 193.124678 121.831247 
L 193.524554 121.831247 
L 193.524554 121.833859 
L 193.124678 123.184562 
L 193.124678 123.187174 
L 193.548356 124.349771 
L 194.581368 125.175345 
L 196.752121 126.293528 
L 197.823217 127.367297 
L 197.870821 128.101431 
" clip-path="url(#pf5bf829ba9)" style="fill: none; stroke: #000000; stroke-width: 2"/>
    <path d="M 72.436063 124.530821 
L 71.734344 124.851555 
L 70.881757 124.386347 
L 70.57709 123.99446 
L 70.291465 123.827255 
L 69.920152 123.479783 
L 69.868899 122.620265 
L 70.377226 121.91646 
L 70.821417 121.14897 
L 71.47205 120.752253 
L 72.80699 121.656418 
L 73.197377 123.18852 
L 72.436063 124.530821 
" clip-path="url(#pf5bf829ba9)" style="fill: none; stroke: #000000; stroke-width: 2"/>
    <path d="M 303.890767 74.781553 
L 302.72361 75.183052 
L 302.521919 73.464946 
L 302.843478 73.131487 
L 303.354517 73.124177 
L 304.20366 73.725345 
L 303.890767 74.781553 
" clip-path="url(#pf5bf829ba9)" style="fill: none; stroke: #000000; stroke-width: 2"/>
    <path d="M 297.55626 29.127152 
L 297.314431 34.887152 
L 296.921458 35.809548 
L 295.790905 37.385585 
L 295.506755 38.344479 
L 295.766722 39.43941 
L 297.127013 41.251023 
L 297.399071 42.050654 
L 296.981915 42.890101 
L 296.226198 43.470747 
L 295.597441 44.140977 
L 295.549075 45.242544 
L 295.827179 48.11259 
L 296.258026 48.939323 
L 296.486164 49.071484 
L 297.858547 49.317014 
L 298.384526 49.745032 
L 298.964917 51.039042 
L 299.376027 51.520148 
L 300.29498 51.772313 
L 301.232069 51.596461 
L 303.661717 50.899791 
L 304.904188 51.623474 
L 306.246627 52.159053 
L 307.227275 52.368059 
L 307.693796 53.104805 
L 308.979111 57.431232 
L 308.688725 64.014926 
L 308.883902 65.739226 
L 308.802975 66.217328 
L 308.350735 67.016776 
L 308.40786 67.604606 
L 309.517039 69.699892 
L 309.740778 70.556818 
L 309.778862 71.058432 
L 309.721737 71.779503 
L 309.474195 73.038765 
L 309.288538 74.956397 
L 308.74585 77.751854 
L 308.512589 87.507215 
L 309.75982 92.583451 
L 306.582547 92.938396 
L 306.014248 93.590378 
L 305.681732 97.279963 
L 305.3734 97.915355 
L 303.405473 99.40654 
L 301.473898 101.301346 
L 300.42194 101.812313 
L 298.233383 102.084387 
L 297.350705 102.485862 
L 296.395478 104.879779 
L 295.137965 106.412682 
L 294.781266 107.51259 
L 294.255287 108.172866 
L 293.136826 108.488074 
L 291.799072 108.522422 
L 290.972451 108.406783 
L 289.182913 106.970101 
L 287.459877 102.548903 
L 285.277366 100.568074 
L 284.86021 99.617475 
L 285.047628 98.809548 
L 286.075403 98.497659 
L 286.891578 98.696737 
L 287.647295 99.083281 
L 289.049907 100.098581 
L 288.330464 95.896369 
L 287.665433 93.998488 
L 285.926263 92.975395 
L 283.560376 92.614894 
L 281.311362 93.200516 
L 279.020963 94.725781 
L 277.357449 96.246415 
L 275.586048 98.497659 
L 274.975428 100.481806 
L 275.465133 105.415631 
L 275.465133 106.623373 
L 275.211212 109.015631 
L 275.332127 110.19517 
L 276.511046 112.839594 
L 276.704509 114.082175 
L 275.066114 115.591853 
L 274.70337 117.745217 
L 273.88115 118.63941 
L 273.288667 119.530286 
L 273.367262 120.884018 
L 274.098796 123.593143 
L 273.96579 127.070378 
L 274.153208 128.045862 
L 274.528044 128.497106 
L 275.700917 129.293419 
L 276.142256 129.860793 
L 276.275262 130.399963 
L 276.069707 133.510562 
L 275.694871 134.442912 
L 273.421674 138.507429 
L 272.956152 139.630562 
L 273.046838 140.602728 
L 273.748143 140.952774 
L 277.411861 141.762359 
L 278.397316 141.817106 
L 281.674106 140.479963 
L 283.42737 141.219871 
L 284.352368 143.524203 
L 285.041582 146.246599 
L 287.212002 150.173419 
L 286.565108 151.193696 
L 282.865116 152.107797 
L 276.05157 154.911484 
L 274.963337 154.777106 
L 273.439811 153.584295 
L 272.387852 153.768442 
L 271.42658 154.133419 
L 270.525765 154.156645 
L 268.621357 153.833143 
L 266.680675 153.785032 
L 265.012052 154.098581 
L 263.415977 154.748903 
L 260.562388 156.326599 
L 258.07759 157.278857 
L 255.562563 157.756645 
L 255.326779 158.693972 
L 255.840667 159.850286 
L 256.820077 160.747797 
L 258.942131 162.030194 
L 259.87922 163.438673 
L 260.145233 165.286783 
L 260.33265 170.155908 
L 260.084775 171.008627 
L 257.352101 175.086415 
L 256.820077 176.171392 
L 254.891486 184.139502 
L 254.081357 185.380424 
L 251.886754 187.804203 
L 250.792476 189.463189 
L 250.139536 191.603281 
L 248.918297 198.006968 
L 247.624509 201.935447 
L 242.056384 211.813051 
L 240.236617 217.987797 
L 240.031062 219.895631 
L 240.399852 229.263926 
L 239.771095 238.630562 
L 235.883685 243.776737 
L 235.001008 243.936 
L 87.460814 224.02153 
L 86.021928 223.542083 
L 84.852078 222.503558 
L 39.007246 162.675539 
L 29.575894 150.362544 
L 28.699262 148.852866 
L 28.384884 147.183926 
L 28.523936 141.412313 
L 28.161715 138.943624 
L 29.408946 137.130496 
L 29.466071 134.293238 
L 28.433059 131.991557 
L 29.589842 130.677431 
L 30.094447 131.769488 
L 31.346438 133.603517 
L 31.58922 134.862779 
L 31.58922 138.567413 
L 31.970054 140.824679 
L 32.803128 141.357645 
L 33.636202 140.443243 
L 34.202692 137.538058 
L 34.597808 138.327056 
L 35.178579 140.323064 
L 35.568934 140.986659 
L 35.845039 141.143414 
L 36.378206 141.195665 
L 36.87329 141.067649 
L 37.187478 140.767202 
L 37.258885 140.458918 
L 37.025624 140.323064 
L 38.149084 137.572021 
L 39.243981 136.738609 
L 40.453129 138.567413 
L 40.614983 139.957304 
L 40.01517 144.069499 
L 40.100857 145.553443 
L 40.881567 149.420056 
L 40.814921 151.58327 
L 40.938692 152.27299 
L 41.486141 153.579278 
L 41.605151 154.211522 
L 42.204965 155.347993 
L 43.599769 155.716366 
L 46.441742 155.784293 
L 47.127243 156.008975 
L 47.650889 156.312034 
L 48.655339 157.294362 
L 49.183746 157.654898 
L 49.631226 157.654898 
L 49.79308 157.370127 
L 49.45509 156.860675 
L 49.34084 156.163117 
L 50.597592 155.975011 
L 53.939409 156.170954 
L 54.344045 156.053389 
L 54.753442 156.170954 
L 55.481787 156.860675 
L 57.295508 157.7385 
L 57.781071 157.714987 
L 60.251731 157.260399 
L 61.284743 157.539945 
L 61.865515 157.189859 
L 62.451047 157.539945 
L 63.360288 157.101032 
L 64.364737 157.043555 
L 65.421551 157.116707 
L 66.478365 157.059231 
L 67.449492 156.698695 
L 69.67737 155.303579 
L 70.662778 155.15205 
L 72.528864 155.144212 
L 73.304813 154.90908 
L 75.470806 152.95226 
L 76.30388 152.675327 
L 77.270246 152.487221 
L 78.393706 152.011732 
L 79.33627 151.366426 
L 80.059854 149.955635 
L 81.840253 149.187537 
L 82.70665 148.489979 
L 83.477838 147.698368 
L 84.50133 146.927658 
L 85.529581 146.334603 
L 86.324572 146.099471 
L 86.962469 145.626595 
L 87.143365 144.539763 
L 87.162406 143.356266 
L 87.324261 142.590781 
L 88.466763 141.937637 
L 89.528337 142.313848 
L 90.447099 143.199511 
L 92.551206 146.099471 
L 93.208145 146.350279 
L 93.446166 146.180461 
L 93.636583 145.851277 
L 94.150708 145.62137 
L 95.474106 145.663171 
L 97.868599 146.363342 
L 99.139633 146.538384 
L 99.882259 146.410368 
L 101.767387 145.62137 
L 102.443367 145.63182 
L 103.776285 146.099471 
L 108.755688 146.538384 
L 109.317419 146.426044 
L 111.392963 145.62137 
L 111.669068 145.381013 
L 111.835683 144.753994 
L 112.192714 144.743544 
L 112.492621 144.939487 
L 112.992466 145.62137 
L 114.706218 147.047837 
L 115.782074 147.565127 
L 118.119442 146.538384 
L 119.319069 147.00081 
L 120.418727 147.601703 
L 121.408895 147.377021 
L 120.604383 146.901532 
L 120.375883 146.29019 
L 120.352081 145.563893 
L 120.180705 144.743544 
L 121.518385 144.456161 
L 123.056001 145.156331 
L 124.460326 146.303252 
L 125.407651 147.377021 
L 126.216923 148.70421 
L 126.692965 149.04907 
L 129.930053 149.242401 
L 137.927565 147.698368 
L 138.441691 148.045841 
L 139.241442 148.949793 
L 139.855537 149.375643 
L 140.688611 149.571586 
L 141.555008 149.514109 
L 142.226228 149.171862 
L 143.916178 150.334458 
L 144.454106 150.485988 
L 144.696888 150.73157 
L 145.449035 151.899392 
L 145.853671 152.275603 
L 146.339234 152.369655 
L 147.653111 152.246864 
L 148.6528 151.729574 
L 149.252613 151.875878 
L 150.280865 152.275603 
L 152.960983 150.864811 
L 153.522713 150.971927 
L 154.674736 151.363813 
L 161.791569 151.41084 
L 163.26254 151.227959 
L 163.900437 150.684543 
L 167.489797 148.730336 
L 171.183885 148.118993 
L 172.345429 147.510263 
L 173.573618 147.275131 
L 175.115995 146.538384 
L 177.515249 146.099471 
L 178.267396 145.629208 
L 179.333731 144.78012 
L 180.295336 143.763828 
L 180.704733 142.794562 
L 181.285505 142.319073 
L 185.131927 141.195665 
L 188.240484 138.904435 
L 188.768891 138.810383 
L 189.240173 138.013547 
L 190.349351 138.071023 
L 192.724803 139.045514 
L 193.167522 138.321831 
L 195.338275 136.634106 
L 196.433173 135.092686 
L 198.751499 130.457975 
L 198.42303 128.848628 
L 198.608686 128.096206 
L 199.55125 127.610266 
L 198.751499 127.171354 
L 198.751499 126.693252 
L 199.66074 126.779467 
L 201.098388 127.448287 
L 201.950504 127.610266 
L 201.579191 126.80298 
L 200.579502 125.703085 
L 200.379564 124.937601 
L 201.250722 125.345162 
L 202.183765 125.627321 
L 203.021599 126.003532 
L 203.578569 126.693252 
L 203.945121 126.693252 
L 203.764225 125.000302 
L 202.664567 124.467337 
L 201.11743 124.388959 
L 199.55125 124.062387 
L 196.123745 121.75287 
L 194.757504 121.42891 
L 194.757504 121.034411 
L 195.462046 120.83063 
L 196.18087 120.352528 
L 196.780684 119.657583 
L 197.08059 120.598111 
L 197.551872 121.034411 
L 197.394778 120.376042 
L 197.594716 119.798662 
L 198.351624 118.800658 
L 198.751499 118.800658 
L 199.21326 120.571985 
L 200.346241 122.306736 
L 201.783889 123.388343 
L 203.178693 123.184562 
L 202.821661 122.993843 
L 201.950504 122.27016 
L 202.621724 122.304123 
L 203.878476 122.711685 
L 204.37832 122.745649 
L 204.573497 122.520967 
L 205.078102 121.630078 
L 205.378009 121.42891 
L 207.572564 117.00843 
L 206.601438 116.590418 
L 206.153958 116.018264 
L 206.372938 115.508811 
L 207.372627 115.29458 
L 207.981961 114.905306 
L 208.153336 114.02748 
L 208.491326 113.118304 
L 209.571942 112.624527 
L 209.571942 112.224803 
L 209.062577 111.851204 
L 208.819795 111.192835 
L 208.377076 109.557362 
L 208.691264 109.092323 
L 208.267586 108.820615 
L 207.810586 108.352964 
L 207.9772 107.320996 
L 208.515128 106.722716 
L 210.804892 105.170846 
L 211.704612 103.77573 
L 213.599261 104.692744 
L 214.460898 104.512476 
L 215.303492 103.932484 
L 215.598639 103.078172 
L 214.803648 102.064492 
L 221.168335 98.333732 
L 224.029349 96.264572 
L 225.804987 94.623874 
L 226.976051 93.840101 
L 229.470513 92.943987 
L 231.765038 91.60896 
L 231.45085 90.292222 
L 233.383582 89.88466 
L 233.654926 90.104116 
L 238.020235 84.973015 
L 243.994566 77.36258 
L 244.294473 76.341062 
L 244.246869 75.458011 
L 245.360808 74.446944 
L 246.293851 74.588023 
L 247.169769 75.844673 
L 247.464915 76.719886 
L 247.222134 77.568973 
L 246.455705 78.749858 
L 248.07901 78.248243 
L 248.393198 77.10916 
L 247.940958 75.698368 
L 246.608039 73.01264 
L 246.931748 72.453548 
L 248.693105 70.546367 
L 249.20723 70.332136 
L 250.092669 70.379162 
L 249.821325 69.574489 
L 249.864169 68.803779 
L 250.221201 68.161085 
L 250.89242 67.75091 
L 251.482713 68.25775 
L 252.663298 67.251908 
L 254.519863 64.681133 
L 254.881655 64.681133 
L 255.138718 65.462293 
L 255.476708 65.509319 
L 255.819459 65.028605 
L 256.081282 64.24222 
L 256.481158 64.681133 
L 257.276149 62.29585 
L 257.833118 61.256045 
L 258.475775 60.696953 
L 257.74743 60.315517 
L 258.118744 59.531744 
L 258.87089 58.512839 
L 259.275527 57.431232 
L 259.532589 56.3444 
L 260.175247 55.074688 
L 261.074967 54.034883 
L 262.074656 53.645609 
L 261.574811 54.695865 
L 260.932154 55.558015 
L 260.560841 56.349626 
L 260.908352 57.188263 
L 261.817593 57.556636 
L 262.964855 57.35808 
L 264.240648 56.966194 
L 265.478359 56.74935 
L 265.844911 56.245123 
L 266.754152 53.742274 
L 267.268278 52.806972 
L 268.820176 51.150598 
L 269.75798 50.43214 
L 271.771639 49.656204 
L 273.271172 47.545242 
L 273.913829 47.064528 
L 274.442237 46.983538 
L 275.184863 46.751019 
L 275.841801 46.406159 
L 276.127427 45.972471 
L 276.38925 45.820942 
L 278.122044 45.353291 
L 280.20711 43.668179 
L 283.387073 39.655261 
L 284.981815 38.299334 
L 284.634304 38.881938 
L 284.262991 40.198677 
L 283.663177 41.31686 
L 283.901198 41.700908 
L 284.324876 41.813249 
L 284.548616 41.609468 
L 284.672387 40.64804 
L 285.215075 38.832299 
L 285.348367 37.622676 
L 285.71968 37.06881 
L 288.180819 34.75668 
L 289.137665 33.343276 
L 289.494696 32.428874 
L 289.737478 31.245377 
L 289.337602 31.245377 
L 289.128144 31.841044 
L 288.780633 32.342659 
L 288.328393 32.726708 
L 287.780944 32.956614 
L 289.30904 30.41719 
L 290.575313 27.70011 
L 291.865006 23.058444 
L 293.221466 22.942452 
L 296.189923 22.176 
L 296.854955 22.255631 
L 297.773907 24.730839 
L 298.070148 26.044756 
L 297.943187 27.219318 
L 297.55626 29.127152 
M 302.583122 69.927574 
L 301.003727 71.118554 
L 301.123246 72.161253 
L 301.311175 72.805864 
L 301.662544 73.336162 
L 301.09157 74.011086 
L 299.52675 74.788127 
L 299.394987 76.37902 
L 299.482829 77.005735 
L 300.204293 77.363834 
L 301.129291 77.625954 
L 302.090564 77.211207 
L 304.485716 75.399847 
L 305.847271 74.917758 
L 307.482218 74.071953 
L 307.759927 72.306485 
L 305.434462 71.837561 
L 304.341733 70.154376 
L 302.583122 69.927574 
L 302.583122 69.927574 
" clip-path="url(#pf5bf829ba9)" style="fill: none; stroke: #000000; stroke-width: 2"/>
   </g>
  </g>
 </g>
 <defs>
  <clipPath id="pf5bf829ba9">
   <rect x="0" y="-0" width="337.940577" height="266.112"/>
  </clipPath>
 </defs>
</svg>
