<?xml version="1.0" encoding="utf-8" standalone="no"?>
<!DOCTYPE svg PUBLIC "-//W3C//DTD SVG 1.1//EN"
  "http://www.w3.org/Graphics/SVG/1.1/DTD/svg11.dtd">
<svg xmlns:xlink="http://www.w3.org/1999/xlink" width="124.892326pt" height="266.112pt" viewBox="0 0 124.892326 266.112" xmlns="http://www.w3.org/2000/svg" version="1.1">
 <metadata>
  <rdf:RDF xmlns:dc="http://purl.org/dc/elements/1.1/" xmlns:cc="http://creativecommons.org/ns#" xmlns:rdf="http://www.w3.org/1999/02/22-rdf-syntax-ns#">
   <cc:Work>
    <dc:type rdf:resource="http://purl.org/dc/dcmitype/StillImage"/>
    <dc:date>2024-02-02T21:57:59.346186</dc:date>
    <dc:format>image/svg+xml</dc:format>
    <dc:creator>
     <cc:Agent>
      <dc:title>Matplotlib v3.8.2, https://matplotlib.org/</dc:title>
     </cc:Agent>
    </dc:creator>
   </cc:Work>
  </rdf:RDF>
 </metadata>
 <defs>
  <style type="text/css">*{stroke-linejoin: round; stroke-linecap: butt}</style>
 </defs>
 <g id="figure_1">
  <g id="patch_1">
   <path d="M 0 266.112 
L 124.892326 266.112 
L 124.892326 0 
L 0 0 
L 0 266.112 
z
" style="fill: none"/>
  </g>
  <g id="axes_1">
   <g id="PatchCollection_1">
    <path d="M 36.177744 242.830893 
L 36.177682 242.830894 
L 36.177683 242.830888 
L 36.239275 242.613625 
L 36.24113 242.250443 
L 36.291658 242.291631 
L 36.411523 242.471204 
L 36.463167 242.531966 
L 36.561992 242.620938 
L 36.607472 242.674105 
L 36.626387 242.778268 
L 36.526925 242.824925 
L 36.177744 242.830893 
" clip-path="url(#p494b341328)" style="fill: none; stroke: #000000; stroke-width: 2"/>
    <path d="M 58.707655 241.695947 
L 59.068099 241.770814 
L 59.380938 241.789802 
L 59.567961 241.902646 
L 59.697177 241.708967 
L 59.863373 241.770272 
L 59.999389 241.693234 
L 60.027868 241.731753 
L 60.206603 241.913496 
L 60.359409 241.81313 
L 61.108139 241.743146 
L 61.069247 241.788717 
L 61.17466 241.809875 
L 61.396962 241.688894 
L 61.467733 241.788717 
L 61.270084 241.948217 
L 61.088799 242.152204 
L 60.925579 242.18801 
L 60.534318 242.330692 
L 60.65482 241.984023 
L 60.592763 241.972088 
L 60.082275 242.135928 
L 59.954121 242.219476 
L 59.927981 242.28512 
L 59.802165 242.334489 
L 59.07235 242.421835 
L 59.0749 242.34968 
L 59.17245 242.102835 
L 59.039196 242.120738 
L 58.923156 242.100122 
L 58.744634 242.193977 
L 57.885816 242.562347 
L 57.957012 242.471204 
L 57.957012 242.421835 
L 57.896017 242.422377 
L 57.742998 242.512978 
L 57.763613 242.523285 
L 57.810794 242.562347 
L 57.747461 242.609003 
L 57.435897 242.754398 
L 57.225071 242.947534 
L 56.856126 242.867241 
L 56.994268 242.699061 
L 56.523947 242.471204 
L 56.664215 242.266132 
L 57.076303 242.106632 
L 57.442698 242.229784 
L 57.850111 242.062146 
L 57.509857 241.736636 
L 57.695605 241.7247 
L 57.885816 241.925431 
L 58.122357 241.953642 
L 58.360387 241.881488 
L 58.42372 241.995416 
L 58.478764 242.152204 
L 58.550173 242.106632 
L 58.537209 242.063773 
L 58.525307 241.731753 
L 58.634546 241.637355 
L 58.707655 241.695947 
L 58.707655 241.695947 
" clip-path="url(#p494b341328)" style="fill: none; stroke: #000000; stroke-width: 2"/>
    <path d="M 38.205032 230.127311 
L 38.390143 231.046878 
L 38.333823 230.978521 
L 38.002067 230.300796 
L 37.768447 230.364081 
L 37.191332 230.831864 
L 36.87454 231.060521 
L 36.650683 231.603241 
L 36.717664 231.846531 
L 37.236835 232.241056 
L 38.605372 232.347851 
L 39.012404 232.548275 
L 39.195429 232.891573 
L 39.248111 233.301579 
L 39.345236 233.744273 
L 39.679752 234.265089 
L 41.36931 235.590024 
L 41.948608 235.905541 
L 41.803537 235.934554 
L 41.770373 236.211098 
L 41.832218 236.309294 
L 44.08167 237.745417 
L 45.019117 238.13397 
L 45.301473 238.34143 
L 46.036462 238.588345 
L 46.37518 238.844477 
L 46.62436 239.232995 
L 47.857083 240.102509 
L 48.53891 240.385768 
L 50.853959 241.238605 
L 51.61714 241.338428 
L 53.647829 241.09972 
L 54.522162 241.23535 
L 54.379345 241.424146 
L 54.251616 241.523969 
L 54.144503 241.984023 
L 54.167456 242.020915 
L 53.955992 242.256367 
L 53.992122 242.395794 
L 53.664831 242.60412 
L 53.388547 243.100524 
L 53.191323 243.038677 
L 53.165394 242.880804 
L 52.846605 242.818957 
L 52.728015 242.886772 
L 52.769883 243.017518 
L 52.653631 243.14284 
L 52.050482 243.150435 
L 51.768672 243.401078 
L 51.55402 243.245376 
L 51.440924 242.972962 
L 50.105338 242.99381 
L 50.297176 243.188914 
L 50.075059 243.40502 
L 49.014505 243.541701 
L 48.099299 243.625757 
L 48.099353 243.840932 
L 47.217256 243.929535 
L 46.485694 243.635988 
L 46.309934 243.458585 
L 45.700409 243.165626 
L 45.101722 243.113544 
L 44.655417 242.957299 
L 39.188816 242.563432 
L 38.948449 242.415867 
L 38.172941 242.249314 
L 37.948088 242.265047 
L 37.879867 242.538476 
L 36.645302 242.514605 
L 36.241682 242.142428 
L 36.31619 227.85356 
L 36.316311 227.853622 
L 36.534576 228.008239 
L 36.680581 228.284923 
L 38.205032 230.127311 
L 38.205032 230.127311 
" clip-path="url(#p494b341328)" style="fill: none; stroke: #000000; stroke-width: 2"/>
    <path d="M 70.736188 146.821475 
L 70.584103 147.004706 
L 70.483995 147.21374 
L 70.364745 147.352783 
L 70.22046 147.358159 
L 70.08985 147.306369 
L 70.124713 147.103202 
L 70.066923 146.988376 
L 69.921634 147.076391 
L 69.777319 147.075332 
L 69.692972 146.99203 
L 69.786107 146.872002 
L 69.893015 146.6822 
L 69.921965 146.415654 
L 70.029805 146.092716 
L 70.121399 146.087099 
L 70.258501 146.107183 
L 70.441583 146.108526 
L 70.584041 146.255446 
L 70.674036 146.440094 
L 70.783589 146.624926 
L 70.736188 146.821475 
" clip-path="url(#p494b341328)" style="fill: none; stroke: #000000; stroke-width: 2"/>
    <path d="M 70.855367 145.781484 
L 70.821992 145.882756 
L 70.770865 145.742855 
L 70.713482 145.571192 
L 70.590799 145.411725 
L 70.352229 145.054562 
L 70.236933 144.799734 
L 70.311192 144.463918 
L 70.408916 144.458407 
L 70.564907 144.504187 
L 70.720582 144.568819 
L 70.855967 144.760197 
L 70.83453 145.045558 
L 70.82547 145.413399 
L 70.855367 145.781484 
" clip-path="url(#p494b341328)" style="fill: none; stroke: #000000; stroke-width: 2"/>
    <path d="M 71.354243 137.942799 
L 71.380172 137.946597 
L 71.405675 137.907535 
L 71.417151 137.837008 
L 71.437129 137.806627 
L 71.482184 137.858166 
L 71.556781 137.996508 
L 71.654756 138.325274 
L 71.667082 138.427267 
L 71.620539 138.522207 
L 71.514913 138.530345 
L 71.400149 138.486401 
L 71.326615 138.427267 
L 71.240754 138.336667 
L 70.911551 138.220025 
L 70.792324 138.145158 
L 70.700087 138.056185 
L 70.483098 137.745865 
L 70.425716 137.616746 
L 70.420615 137.511498 
L 70.522628 137.496307 
L 70.716452 137.590705 
L 71.236504 137.711144 
L 71.342767 137.88258 
L 71.354243 137.942799 
" clip-path="url(#p494b341328)" style="fill: none; stroke: #000000; stroke-width: 2"/>
    <path d="M 70.918564 137.024318 
L 71.077109 137.152352 
L 71.103462 137.239154 
L 71.060745 137.310767 
L 70.976372 137.353083 
L 70.879035 137.355253 
L 70.775747 137.309682 
L 70.483736 137.081824 
L 70.407864 137.159947 
L 70.305851 137.145299 
L 70.249532 137.063379 
L 70.308614 136.94077 
L 70.722615 136.962471 
L 70.918564 137.024318 
" clip-path="url(#p494b341328)" style="fill: none; stroke: #000000; stroke-width: 2"/>
    <path d="M 50.39192 23.22672 
L 51.213926 24.296732 
L 51.374252 24.356675 
L 52.597207 24.235411 
L 52.874672 24.272617 
L 55.157018 24.240234 
L 56.138404 24.513077 
L 56.758789 24.807968 
L 56.939762 24.765939 
L 57.150426 24.874111 
L 57.560417 25.217232 
L 57.65421 25.539682 
L 57.567434 26.000621 
L 57.753266 26.237636 
L 57.740446 26.482919 
L 57.853807 26.595914 
L 57.959881 26.870824 
L 58.241395 27.310404 
L 58.10887 27.707266 
L 58.197535 27.942214 
L 58.249493 27.989755 
L 58.445446 28.399708 
L 58.628444 28.609163 
L 58.78742 29.409088 
L 58.778783 29.324341 
L 59.252067 27.041006 
L 59.647888 26.519436 
L 60.179338 25.198629 
L 60.383118 24.632273 
L 60.61281 24.088655 
L 60.690004 23.857152 
L 60.835485 23.608424 
L 60.975297 23.577419 
L 61.567476 23.67319 
L 61.842243 23.933631 
L 62.169102 23.620826 
L 62.369914 23.579486 
L 66.747018 23.686281 
L 66.914091 24.561307 
L 67.446351 24.973327 
L 67.632587 25.201385 
L 67.692777 25.386036 
L 67.666596 25.629941 
L 68.644474 26.394038 
L 69.149613 26.744674 
L 69.45123 26.888049 
L 69.557034 27.025848 
L 69.714391 27.304892 
L 69.680382 27.687974 
L 69.95245 27.853333 
L 69.913853 28.086903 
L 70.013719 28.162004 
L 69.970534 28.354234 
L 70.04044 28.378349 
L 70.912784 29.905166 
L 70.901718 30.1222 
L 71.16002 30.492191 
L 71.784048 30.960709 
L 72.558145 32.09273 
L 72.672586 32.148539 
L 72.994857 32.191257 
L 73.366656 32.55987 
L 73.460179 32.562626 
L 73.435482 32.617746 
L 73.406467 32.761057 
L 74.26599 33.294341 
L 74.646291 33.556849 
L 74.731717 33.753213 
L 75.279092 34.039835 
L 75.582334 34.595856 
L 75.582873 34.766727 
L 76.12242 35.632451 
L 76.287064 35.756471 
L 76.486392 35.68826 
L 77.264037 36.085598 
L 77.618792 36.096146 
L 77.776419 36.220166 
L 78.224737 36.293888 
L 78.278313 36.344185 
L 78.39235 36.569487 
L 78.674539 36.634253 
L 78.846066 36.778253 
L 80.63043 37.097258 
L 81.202771 36.975995 
L 83.283359 38.672305 
L 83.465143 38.88176 
L 83.822906 39.023004 
L 84.168254 39.286201 
L 84.628583 39.819485 
L 84.820757 40.17983 
L 85.523194 40.597362 
L 86.09405 40.965286 
L 86.275429 41.011449 
L 86.596889 41.22366 
L 87.706483 42.140026 
L 88.158579 42.257844 
L 88.198796 42.342591 
L 89.534302 42.747721 
L 90.136198 43.564182 
L 90.324324 43.460833 
L 90.654422 43.203837 
L 91.656862 43.896279 
L 91.857943 43.947264 
L 91.982641 44.118825 
L 92.500055 44.164298 
L 93.109239 44.80162 
L 93.379417 45.401736 
L 93.540552 45.52989 
L 93.700878 46.079709 
L 94.132731 46.552361 
L 94.070382 47.23998 
L 93.910327 47.454258 
L 93.828814 47.656823 
L 93.711404 47.700919 
L 93.54811 47.708498 
L 93.40101 47.953092 
L 93.176176 48.008211 
L 93.033934 48.328595 
L 93.124893 48.494643 
L 92.78022 48.912175 
L 92.802353 49.230492 
L 92.475764 49.530205 
L 92.601001 49.651469 
L 92.538652 49.779622 
L 92.316518 50.053154 
L 92.557546 50.224025 
L 92.489529 50.330819 
L 91.711923 50.966763 
L 91.319746 51.173462 
L 91.176965 51.608219 
L 91.128921 51.522095 
L 91.034453 51.471798 
L 91.046869 51.590994 
L 91.271163 51.859014 
L 90.936746 52.172508 
L 90.922711 52.590729 
L 90.729996 53.137103 
L 90.839309 53.342424 
L 90.734585 53.574616 
L 90.738363 53.930138 
L 90.963197 54.21056 
L 90.847137 54.486159 
L 90.864411 54.640494 
L 90.567781 54.670121 
L 90.317576 55.671922 
L 90.048748 55.65263 
L 90.046858 55.891712 
L 90.175335 56.089454 
L 90.106778 56.156287 
L 89.815547 56.242412 
L 89.654411 56.378833 
L 89.298402 56.599312 
L 89.253058 56.993418 
L 89.109736 57.318625 
L 89.053865 57.198739 
L 88.975862 57.202184 
L 88.888412 57.409572 
L 88.871137 57.701707 
L 88.488137 57.834683 
L 88.385842 58.162646 
L 88.488677 58.329383 
L 88.682741 58.566398 
L 88.668976 59.036982 
L 88.690029 59.014935 
L 89.15697 58.78481 
L 90.580467 58.642187 
L 91.229327 58.721422 
L 91.805581 58.683919 
L 93.403169 59.152045 
L 94.500616 59.70462 
L 95.296846 59.658458 
L 96.107111 60.177272 
L 96.649627 60.155224 
L 97.547342 59.719778 
L 97.73061 59.805214 
L 98.243031 60.306804 
L 98.43588 60.264775 
L 98.938424 59.947935 
L 99.069085 59.904429 
L 99.416727 59.962305 
L 100.017813 60.764297 
L 100.35115 60.799436 
L 100.800683 59.852755 
L 100.809185 59.52617 
L 101.885579 58.961193 
L 102.476274 59.138954 
L 102.830528 59.161002 
L 103.236201 59.689462 
L 103.551859 59.886516 
L 104.455917 58.965327 
L 104.491275 58.418952 
L 104.369006 58.045516 
L 104.5933 57.95388 
L 104.705582 57.591467 
L 105.136626 57.475716 
L 105.243509 56.904538 
L 105.528802 56.687504 
L 105.773339 56.651676 
L 106.15391 56.492517 
L 106.650002 56.644097 
L 106.854997 56.540058 
L 106.836913 56.019177 
L 107.281048 55.585109 
L 107.623022 55.514142 
L 107.786991 55.195137 
L 107.998734 54.661164 
L 108.395229 54.649451 
L 108.501843 54.670121 
L 108.617094 54.413814 
L 108.719659 53.556013 
L 109.072969 53.116433 
L 109.36447 51.489023 
L 109.249759 51.256831 
L 109.360962 50.68083 
L 109.289571 50.056599 
L 109.549628 49.906397 
L 109.587145 49.267008 
L 109.646255 49.001056 
L 109.357723 48.181838 
L 109.406981 47.942757 
L 109.670007 47.894527 
L 109.582016 47.428562 
L 109.86704 47.427387 
L 110.045719 47.636842 
L 110.311309 47.875924 
L 110.380405 48.190106 
L 110.432768 48.163925 
L 110.743702 47.446679 
L 110.890532 47.478373 
L 111.036553 47.296478 
L 111.231427 47.307502 
L 111.381766 47.587234 
L 111.444114 47.44599 
L 111.7232 47.467349 
L 111.699988 47.350908 
L 111.636019 47.115271 
L 111.689461 47.126295 
L 111.911056 47.117338 
L 112.13481 46.901682 
L 112.157212 46.932687 
L 112.147766 47.530737 
L 112.248711 47.578277 
L 112.268954 47.532803 
L 112.284879 47.262717 
L 112.338321 47.297856 
L 112.524828 47.359176 
L 112.630632 47.362621 
L 112.795276 47.524536 
L 112.98799 47.933111 
L 113.248992 47.858699 
L 113.330504 48.352021 
L 113.359114 48.569744 
L 113.550749 48.871524 
L 113.584218 49.864369 
L 113.624704 50.080025 
L 113.944276 50.449327 
L 114.361554 51.513138 
L 114.484632 51.994058 
L 114.423633 52.21247 
L 114.156154 52.769179 
L 114.140499 53.671076 
L 114.097854 53.829545 
L 114.129163 54.034177 
L 114.059527 54.389699 
L 114.043332 54.887844 
L 113.919984 55.106256 
L 114.036854 55.255768 
L 114.024438 55.428017 
L 114.087597 55.433529 
L 114.106221 55.444553 
L 114.218503 56.292019 
L 113.90163 57.129839 
L 113.735367 57.276596 
L 113.710535 57.601802 
L 113.613908 57.740291 
L 113.661142 57.860176 
L 113.542112 58.018645 
L 113.506754 57.978683 
L 113.332123 57.727889 
L 113.242244 57.984884 
L 113.10648 58.035181 
L 112.904319 57.955258 
L 112.813629 58.232923 
L 112.777192 58.220521 
L 112.690011 58.183316 
L 112.660052 58.221899 
L 112.622264 58.343852 
L 112.237645 58.829594 
L 111.891353 58.7917 
L 111.856264 58.59947 
L 111.792296 58.55124 
L 111.506193 59.27193 
L 111.467327 59.487586 
L 111.328594 59.581979 
L 111.218471 59.784544 
L 111.037632 59.72529 
L 110.900789 59.557175 
L 110.818467 59.95197 
L 110.758277 59.900295 
L 110.685672 59.669482 
L 110.394981 59.655013 
L 110.290526 59.750783 
L 110.375007 59.987798 
L 109.930198 60.177961 
L 109.804421 60.113884 
L 109.638157 59.945769 
L 109.531814 60.118707 
L 109.376616 60.440469 
L 109.315482 60.434268 
L 109.235994 60.287512 
L 109.199286 60.326784 
L 109.062443 60.615474 
L 108.894155 60.603761 
L 108.590643 60.603761 
L 108.608727 60.490077 
L 108.5121 60.437713 
L 108.36257 60.697465 
L 108.302921 61.007513 
L 108.025185 61.086059 
L 107.947182 61.841199 
L 107.843807 61.887362 
L 107.446232 62.18432 
L 107.069979 62.116798 
L 107.339078 62.599785 
L 107.254597 62.599785 
L 107.086984 62.550866 
L 106.912083 62.614943 
L 106.871057 62.800972 
L 106.764173 62.773412 
L 106.566465 62.619077 
L 106.384952 62.776168 
L 106.134612 63.05659 
L 106.027323 63.065547 
L 105.853232 63.028341 
L 105.754446 63.239174 
L 105.619492 63.396954 
L 105.496413 63.510638 
L 105.457682 63.75661 
L 105.010309 64.170697 
L 104.83055 64.15485 
L 104.603017 64.565493 
L 104.479669 64.557225 
L 104.468063 64.504172 
L 104.455917 64.4022 
L 104.273054 64.458698 
L 104.140664 64.664019 
L 103.920958 64.903101 
L 103.458875 65.141494 
L 103.552533 65.366107 
L 103.956721 65.607256 
L 104.027842 65.771926 
L 103.808002 66.312788 
L 103.759553 66.291429 
L 103.656988 66.034434 
L 103.094229 65.904213 
L 102.763861 66.115046 
L 102.782485 66.695871 
L 102.523643 66.773038 
L 102.150899 67.116848 
L 102.156432 67.49993 
L 102.057646 67.654954 
L 101.732811 67.915395 
L 101.129836 68.689138 
L 100.776256 68.795933 
L 100.730911 68.899971 
L 100.583406 69.704719 
L 100.225373 69.943112 
L 100.119299 70.47364 
L 100.035492 70.727191 
L 99.589739 70.886349 
L 99.046683 71.334197 
L 98.837774 71.847499 
L 98.82023 72.067289 
L 98.585949 72.553032 
L 98.183516 72.964363 
L 98.093232 73.154526 
L 97.505236 73.984078 
L 97.226421 74.267256 
L 96.938429 74.817075 
L 96.351108 75.408924 
L 95.900631 75.450263 
L 95.525188 75.695546 
L 95.436389 75.918092 
L 95.349478 76.801386 
L 94.898731 77.192047 
L 94.182394 78.061561 
L 93.715723 78.361964 
L 93.751621 78.908338 
L 93.638529 79.121927 
L 92.466587 80.360054 
L 92.421242 80.860266 
L 92.859573 82.083235 
L 92.859573 82.877649 
L 92.766725 83.005113 
L 92.423671 83.053343 
L 92.285748 83.243506 
L 92.580758 83.987622 
L 92.285748 84.731739 
L 92.269554 85.277424 
L 91.793705 86.334345 
L 91.497886 86.556202 
L 91.431758 86.762212 
L 91.931359 87.586252 
L 91.884125 87.879765 
L 91.51516 89.004208 
L 90.800982 89.411405 
L 90.830672 89.68287 
L 91.046329 90.095579 
L 90.995316 90.937877 
L 90.850375 91.280309 
L 90.909485 91.421553 
L 91.320556 92.133976 
L 91.294105 92.336541 
L 90.779526 93.241644 
L 90.77787 93.224739 
L 90.660981 93.822593 
L 90.887959 95.782707 
L 91.087308 96.388156 
L 90.991671 96.792332 
L 91.011224 97.334849 
L 90.630377 97.561621 
L 90.563643 97.561621 
L 89.823414 97.430332 
L 89.577947 97.611532 
L 89.668483 97.718951 
L 89.568595 98.347728 
L 89.64638 98.763839 
L 89.618752 98.980846 
L 89.422377 99.158791 
L 89.179247 99.632951 
L 89.027078 100.486873 
L 88.999875 100.987074 
L 89.000725 101.895248 
L 89.529916 103.45824 
L 89.594524 103.70183 
L 89.799186 103.903646 
L 89.780697 104.540561 
L 89.650206 105.100439 
L 89.52099 105.334806 
L 89.316964 105.44331 
L 88.988186 105.378208 
L 88.845369 105.514922 
L 89.387565 105.913617 
L 89.450285 106.034915 
L 89.196354 106.681189 
L 89.350543 106.8723 
L 89.347993 107.070861 
L 90.022832 107.645986 
L 90.179298 107.974932 
L 91.20688 108.617609 
L 91.823728 108.841994 
L 92.147393 109.1514 
L 92.498324 109.126361 
L 93.084293 109.657994 
L 93.460482 109.819363 
L 93.895266 110.178243 
L 94.321166 110.347915 
L 95.994918 112.327855 
L 96.378465 113.20227 
L 96.10529 113.740502 
L 95.205986 115.110227 
L 94.993541 116.013171 
L 95.261324 117.019541 
L 95.75226 118.062259 
L 96.482288 118.808762 
L 97.461609 119.393596 
L 97.914927 119.198289 
L 98.26007 119.219448 
L 98.217565 118.969347 
L 98.288549 118.948732 
L 98.432641 119.119082 
L 98.627103 119.567744 
L 98.616902 120.402677 
L 98.759507 120.930004 
L 98.777359 122.887948 
L 98.685548 123.110923 
L 97.629292 124.673372 
L 96.181988 127.163526 
L 94.37424 129.408462 
L 94.217608 130.252619 
L 94.249699 130.821177 
L 93.947487 131.277976 
L 92.546089 132.220328 
L 91.011649 133.126874 
L 88.863221 133.985137 
L 88.015878 134.182613 
L 86.271463 134.88463 
L 83.298645 135.484654 
L 82.322937 135.864416 
L 81.956754 135.849225 
L 76.856974 136.763909 
L 75.891042 136.809481 
L 75.406694 136.933175 
L 73.919861 136.809481 
L 73.449752 137.002617 
L 72.465331 136.795375 
L 72.300835 136.731901 
L 72.026676 136.809481 
L 71.773345 136.79863 
L 70.598075 136.412358 
L 70.340918 136.077083 
L 70.110752 135.6626 
L 68.949083 135.582307 
L 68.914654 135.893712 
L 68.979475 136.259368 
L 69.122717 136.192096 
L 69.199652 136.326641 
L 69.258734 136.664086 
L 69.501227 136.622855 
L 69.46446 136.741666 
L 69.199652 137.309682 
L 69.135894 137.712229 
L 69.155659 137.890175 
L 69.160972 138.220025 
L 69.589 138.629626 
L 69.306765 138.538483 
L 69.279987 138.694185 
L 69.520567 138.770138 
L 70.055708 138.815167 
L 70.689036 139.183536 
L 70.790624 139.518811 
L 70.592762 139.655526 
L 69.841694 138.997452 
L 69.449583 138.997452 
L 69.552871 139.229107 
L 69.767097 139.296379 
L 69.911828 139.573606 
L 70.224454 139.830759 
L 70.657795 140.003822 
L 70.583198 140.221914 
L 70.55472 140.280505 
L 70.47991 140.898975 
L 70.277798 142.510251 
L 70.075048 142.651305 
L 69.566047 142.516219 
L 69.339282 142.33339 
L 69.341832 142.473902 
L 69.449583 142.610074 
L 69.289551 142.721833 
L 69.285088 143.089117 
L 69.019217 143.953346 
L 69.154596 144.483928 
L 68.894889 145.070932 
L 68.572912 145.256473 
L 68.372925 145.644915 
L 68.678963 146.516197 
L 68.815829 146.712046 
L 69.234506 146.936648 
L 69.323342 147.186749 
L 69.450858 147.354929 
L 69.552871 147.269211 
L 69.623429 147.740659 
L 69.536931 147.815526 
L 69.260434 147.743914 
L 69.125268 147.587669 
L 69.214954 147.862725 
L 69.248746 148.078647 
L 69.984299 147.769955 
L 69.684849 148.16762 
L 69.449583 148.870179 
L 69.168198 149.410526 
L 66.745611 150.536792 
L 66.63531 150.62468 
L 66.420658 150.826496 
L 66.048312 150.923607 
L 65.189706 151.291433 
L 63.205136 151.287093 
L 61.638605 151.317474 
L 61.182736 151.150379 
L 60.427205 150.559035 
L 60.144757 150.468435 
L 60.161972 150.255226 
L 59.576037 150.3187 
L 58.307893 149.663882 
L 57.602943 149.478341 
L 57.118808 149.235293 
L 56.395156 149.108344 
L 55.727186 149.084474 
L 55.818998 148.915208 
L 56.047251 148.892965 
L 56.024723 149.006894 
L 56.135024 148.961322 
L 56.595356 148.907613 
L 56.550513 148.769271 
L 56.306533 148.651545 
L 56.456151 148.502353 
L 56.327785 148.414465 
L 55.542713 148.334715 
L 55.308509 148.456781 
L 55.573317 148.424773 
L 55.668316 148.456781 
L 55.616672 148.615739 
L 55.739513 148.726412 
L 55.113835 148.750283 
L 54.541715 149.478884 
L 54.367018 149.898249 
L 54.348741 150.326838 
L 54.715561 152.457303 
L 54.943814 153.248293 
L 55.308509 153.752834 
L 55.187369 154.372931 
L 55.068992 154.693016 
L 55.263879 155.548023 
L 54.900034 156.830533 
L 55.407547 157.771258 
L 56.008783 158.216122 
L 57.225921 158.575268 
L 57.459913 158.63169 
L 57.854149 158.562248 
L 58.049036 158.715238 
L 58.061787 158.760809 
L 57.81802 158.917054 
L 57.340686 159.738968 
L 57.528771 159.831738 
L 57.949361 159.800272 
L 58.341684 159.900095 
L 58.838358 159.745478 
L 59.945408 159.777486 
L 60.237206 158.997347 
L 60.021492 158.677262 
L 58.712118 158.507996 
L 58.885327 158.420108 
L 59.63937 158.32137 
L 61.479032 157.393195 
L 61.694806 157.443519 
L 62.003087 157.82117 
L 62.300199 158.537835 
L 62.586259 158.925192 
L 62.625364 159.200248 
L 62.588686 159.869507 
L 62.616863 161.148427 
L 62.401786 161.689317 
L 62.469795 161.933449 
L 62.202224 162.273065 
L 61.86197 162.423885 
L 59.92288 162.816667 
L 59.63937 162.570907 
L 59.264899 162.161307 
L 59.173725 162.092407 
L 59.247046 161.701795 
L 59.315267 161.064337 
L 58.881076 160.75456 
L 58.801379 160.54135 
L 58.459637 160.373713 
L 58.200142 160.304813 
L 57.145587 160.403551 
L 56.609383 160.67915 
L 56.187093 161.106111 
L 55.668316 161.201051 
L 55.480868 161.387677 
L 55.278331 162.157509 
L 55.992206 162.434193 
L 57.011057 163.026621 
L 57.457575 163.212162 
L 57.982515 163.281062 
L 58.354861 163.432967 
L 58.837083 163.261531 
L 58.840909 163.290827 
L 58.884477 163.549065 
L 58.772263 163.657569 
L 58.148711 164.049266 
L 56.489518 164.574423 
L 55.094495 165.587845 
L 55.043277 165.854763 
L 55.059429 166.2291 
L 54.452454 166.779213 
L 54.167456 167.233842 
L 53.825076 167.507271 
L 53.518613 168.075828 
L 53.554105 168.566807 
L 53.63444 168.873329 
L 53.645279 169.195584 
L 53.757068 169.359424 
L 53.915187 170.041911 
L 54.013374 170.0137 
L 54.06936 170.09331 
L 53.94793 170.179175 
L 54.101929 170.504247 
L 54.288216 170.495204 
L 54.158794 170.594462 
L 54.021025 170.819338 
L 54.058197 171.21334 
L 53.702932 171.368106 
L 53.671813 171.858823 
L 53.923358 172.356505 
L 53.977511 172.489321 
L 54.106953 172.514537 
L 54.033984 172.836226 
L 53.803474 172.971134 
L 53.531489 173.329913 
L 53.558089 173.352485 
L 53.635443 173.398284 
L 53.622389 173.434547 
L 53.625518 173.553459 
L 53.656808 173.541763 
L 53.78736 173.542016 
L 53.75765 173.613198 
L 53.749228 173.714143 
L 53.680961 173.696733 
L 53.591318 173.810196 
L 53.562201 173.646692 
L 53.314671 173.699392 
L 53.277229 174.039882 
L 53.32201 174.041062 
L 53.390659 174.125973 
L 53.26416 174.100696 
L 53.131351 174.162818 
L 53.119655 174.099932 
L 52.913379 174.097356 
L 52.83081 174.198317 
L 52.85602 174.264775 
L 52.758608 174.29338 
L 52.652117 174.287245 
L 51.903891 174.711471 
L 51.629041 175.156859 
L 51.584993 175.599787 
L 51.465719 175.655473 
L 51.526606 176.057844 
L 52.540104 176.470731 
L 52.338445 176.593325 
L 52.154699 176.697595 
L 52.129534 176.822015 
L 52.214138 176.974542 
L 52.124874 176.953219 
L 52.013455 176.971872 
L 52.039608 177.013268 
L 52.115768 177.109304 
L 51.793132 177.209272 
L 51.685321 177.221642 
L 51.656264 177.342862 
L 51.338931 177.082367 
L 50.924684 177.156354 
L 50.935724 177.034908 
L 50.790281 176.955283 
L 50.615896 176.978633 
L 50.517747 177.184238 
L 50.227235 177.203906 
L 49.954919 176.945447 
L 49.806835 176.952018 
L 49.464206 176.847482 
L 48.884286 177.030164 
L 48.469811 177.241297 
L 48.122603 177.239965 
L 47.985871 177.275371 
L 47.929876 177.348899 
L 47.446641 177.513926 
L 47.296682 177.803905 
L 47.66513 177.920306 
L 47.568273 178.049189 
L 46.970253 177.853615 
L 46.968086 178.035776 
L 47.310932 178.212588 
L 47.303492 178.365334 
L 46.543445 178.355285 
L 45.186754 178.634901 
L 44.478878 179.257649 
L 43.650851 180.449136 
L 43.017504 181.146445 
L 42.956696 181.523808 
L 42.91387 181.923713 
L 42.7433 182.1981 
L 42.436256 182.424573 
L 42.341458 182.67263 
L 42.126908 182.906895 
L 41.956479 183.147503 
L 42.032843 183.312965 
L 41.795876 183.543535 
L 41.555934 184.458219 
L 41.566135 184.682821 
L 42.111053 186.512188 
L 42.606811 187.373857 
L 43.316077 187.832133 
L 43.532119 187.935167 
L 43.805918 188.197728 
L 44.138338 188.301668 
L 44.388458 188.638315 
L 44.909811 189.205786 
L 45.428163 189.715752 
L 45.9327 190.301671 
L 46.756125 190.599077 
L 47.291593 190.538208 
L 47.484567 190.557739 
L 47.738748 190.666242 
L 48.169327 190.704218 
L 48.99317 190.85486 
L 50.147096 190.698793 
L 50.959175 191.279616 
L 51.318143 191.747266 
L 51.539295 192.534208 
L 51.133526 194.47554 
L 50.744763 195.256844 
L 49.716888 195.311865 
L 49.403328 195.588828 
L 48.941222 195.781094 
L 48.492367 196.016546 
L 48.007807 196.016546 
L 48.467714 196.074053 
L 49.922458 195.397421 
L 50.55313 195.390467 
L 50.642947 195.483001 
L 50.943735 196.24766 
L 51.284802 196.336821 
L 51.110443 196.496993 
L 51.283686 196.581106 
L 51.156353 196.613356 
L 50.893058 196.677366 
L 50.839125 196.553541 
L 50.419625 196.533489 
L 50.291013 196.795369 
L 50.406014 196.863758 
L 50.306916 197.17916 
L 50.2277 197.303993 
L 50.574732 197.553772 
L 50.32777 197.709375 
L 50.188294 197.587056 
L 49.96092 197.633866 
L 49.472963 197.746091 
L 49.308753 197.9923 
L 49.207092 198.159489 
L 48.79577 198.316862 
L 48.657227 198.54256 
L 48.385253 198.68573 
L 48.186236 199.065456 
L 48.19744 199.298269 
L 47.681791 199.29118 
L 47.617861 199.44912 
L 47.593406 199.592499 
L 47.19394 199.750442 
L 46.6402 199.797891 
L 45.546508 200.722936 
L 45.393027 200.896592 
L 44.103046 201.542606 
L 44.055824 201.873439 
L 43.808051 202.231284 
L 43.781657 202.379597 
L 43.136322 202.706213 
L 42.698124 202.952124 
L 41.814357 203.909632 
L 41.60288 204.377934 
L 41.513429 204.457028 
L 41.603218 204.664786 
L 41.557422 204.822684 
L 41.326513 205.084093 
L 41.28987 205.249073 
L 41.04162 205.486183 
L 41.105378 205.548572 
L 41.099002 205.694509 
L 40.859275 205.822337 
L 40.922069 205.961742 
L 40.773039 206.086509 
L 40.469075 206.159989 
L 40.6748 206.202305 
L 41.029638 206.195421 
L 41.172167 206.070191 
L 41.491113 205.238795 
L 41.643495 205.357606 
L 41.623913 205.745082 
L 41.387613 206.221836 
L 41.067168 208.060729 
L 41.095687 208.160714 
L 40.786589 209.396104 
L 40.465428 209.953932 
L 39.687364 210.544972 
L 38.705775 211.017188 
L 37.879654 211.058376 
L 37.756177 210.993817 
L 35.834302 208.451039 
L 35.730589 208.441816 
L 36.156916 208.808015 
L 36.576394 209.609177 
L 36.496533 209.840968 
L 35.930575 210.059601 
L 35.397158 210.045744 
L 35.022116 210.006962 
L 34.502187 210.202827 
L 34.300712 210.358529 
L 34.407825 210.358529 
L 34.988022 210.207709 
L 35.264306 210.133927 
L 36.090421 210.221825 
L 36.628977 210.084623 
L 36.883672 210.424401 
L 36.922664 210.66209 
L 37.268634 210.988072 
L 37.551455 211.117044 
L 37.76686 211.249023 
L 37.703002 211.385709 
L 37.306046 211.595468 
L 35.016631 212.460728 
L 34.894085 212.670195 
L 34.1421 213.693351 
L 33.953852 214.287103 
L 33.60065 215.314966 
L 33.678793 215.483505 
L 33.656703 216.279996 
L 32.333569 217.246869 
L 32.22603 217.482864 
L 32.382662 217.355915 
L 33.344041 216.792521 
L 33.494901 216.778273 
L 33.611702 217.304919 
L 34.04398 219.066472 
L 34.609088 220.542661 
L 34.466057 220.733627 
L 34.012101 220.739052 
L 33.746443 220.954974 
L 33.47356 220.919168 
L 32.886137 220.654962 
L 32.340582 220.65442 
L 31.894064 220.758583 
L 31.521718 220.962569 
L 31.149585 221.091146 
L 32.78049 220.879906 
L 33.551289 221.155855 
L 33.510563 221.268352 
L 33.227879 221.501289 
L 33.332017 221.500746 
L 34.081956 221.122404 
L 34.36775 220.998972 
L 34.705868 221.226736 
L 35.276324 222.281579 
L 36.016166 223.623262 
L 37.701051 225.85029 
L 37.323552 226.194793 
L 37.283319 226.119675 
L 37.252036 225.9024 
L 37.220392 225.589204 
L 33.26259 224.509546 
L 31.836529 224.47303 
L 29.394938 223.639343 
L 18.883626 223.394061 
L 18.918984 222.709887 
L 18.322757 222.113905 
L 17.72491 221.728066 
L 17.131381 221.53308 
L 17.061205 221.400104 
L 16.973755 220.919184 
L 16.739744 220.786897 
L 16.460659 220.763471 
L 16.351346 220.607758 
L 16.496287 220.405882 
L 16.878747 219.983527 
L 16.917344 219.743067 
L 17.012082 219.528789 
L 17.064984 218.91007 
L 17.356755 218.460844 
L 17.271194 218.368518 
L 16.705736 217.994048 
L 16.588865 217.62888 
L 16.87011 217.234774 
L 17.01775 217.14107 
L 17.169438 217.118334 
L 17.31303 216.661529 
L 17.325985 215.831977 
L 16.921123 215.024472 
L 17.120315 214.582825 
L 16.699798 214.391973 
L 16.059305 214.265198 
L 15.833932 214.357523 
L 15.473604 214.702022 
L 15.136489 214.653792 
L 14.754568 214.36648 
L 14.636348 214.387839 
L 13.800712 214.826041 
L 13.208803 215.309028 
L 12.750499 215.391708 
L 12.550766 215.253219 
L 12.420401 214.433313 
L 12.111355 213.967551 
L 12.046847 212.686706 
L 11.792324 212.045939 
L 11.572079 211.803412 
L 11.359391 211.703508 
L 10.650881 211.0152 
L 10.702974 210.811257 
L 10.97936 210.320002 
L 10.866403 210.114681 
L 10.510259 209.72402 
L 10.667616 209.435331 
L 10.687319 209.241034 
L 11.060872 208.83797 
L 11.049806 208.656764 
L 10.654795 207.987059 
L 10.757225 207.65014 
L 10.415251 207.123746 
L 10.635901 206.774425 
L 10.600408 206.550501 
L 10.751152 206.368606 
L 11.06573 206.090251 
L 11.087593 205.641714 
L 12.721618 205.614844 
L 12.796653 205.448795 
L 12.969124 205.367494 
L 12.522426 205.184221 
L 12.584235 204.852813 
L 12.983699 204.315396 
L 13.06872 203.981921 
L 13.637687 203.352867 
L 14.393431 203.22058 
L 14.821775 203.015948 
L 15.608288 202.198109 
L 15.683053 201.736481 
L 15.533794 200.663713 
L 15.491418 200.324037 
L 15.689531 199.938199 
L 16.108968 199.691538 
L 16.525437 199.531691 
L 16.90088 199.215442 
L 17.123014 199.240934 
L 17.115727 199.03079 
L 17.009113 198.714541 
L 17.085497 198.332148 
L 16.910326 197.393734 
L 16.624493 197.206327 
L 16.512751 196.987915 
L 16.041221 196.74401 
L 15.861193 196.356105 
L 17.032595 193.670396 
L 16.939207 193.510548 
L 16.767005 193.420979 
L 16.891703 193.16605 
L 17.196969 193.024117 
L 17.81128 192.974509 
L 18.510343 191.921722 
L 18.485512 191.615807 
L 18.650696 191.578601 
L 19.158933 191.821128 
L 19.416156 191.568266 
L 19.359475 191.207921 
L 19.118447 190.969528 
L 18.674987 190.670504 
L 18.702248 190.538905 
L 19.147057 190.24746 
L 18.860684 189.817526 
L 19.046111 188.921141 
L 19.644498 188.784031 
L 19.872031 188.511877 
L 20.336003 188.191493 
L 20.372441 187.988239 
L 20.343291 187.283396 
L 20.347879 187.052582 
L 19.947335 185.977747 
L 19.836673 185.088941 
L 19.147597 184.606643 
L 19.273914 184.480557 
L 19.902531 184.342068 
L 20.727101 183.394698 
L 20.575412 182.962697 
L 20.264478 182.714658 
L 19.96353 182.578926 
L 19.955163 182.363959 
L 20.012923 182.169662 
L 19.749223 181.705278 
L 19.817779 181.437258 
L 19.838562 181.202999 
L 20.025879 180.839898 
L 19.928982 180.740682 
L 20.009954 180.586347 
L 20.414817 180.415476 
L 21.370562 180.24805 
L 21.411048 180.044107 
L 21.270156 179.647244 
L 21.970029 179.319282 
L 22.268547 178.706075 
L 22.027789 178.316792 
L 21.328996 177.669135 
L 21.025349 176.963602 
L 20.850179 176.778951 
L 20.171629 176.687314 
L 19.838292 176.440653 
L 19.070403 176.483371 
L 18.650696 176.288385 
L 18.318168 176.272538 
L 18.311151 175.945954 
L 18.303863 175.329991 
L 18.452313 175.290029 
L 18.766756 175.407847 
L 19.582689 175.512575 
L 20.060157 175.309321 
L 20.628314 175.458144 
L 21.328726 175.210794 
L 21.537635 175.272804 
L 22.170301 175.602144 
L 22.552491 175.438852 
L 22.718485 174.988248 
L 22.698241 174.516974 
L 22.939 174.156629 
L 23.237518 174.062237 
L 23.242917 173.727384 
L 23.075573 173.467632 
L 22.951955 173.178254 
L 22.697702 173.083861 
L 22.426984 173.080416 
L 21.638311 172.935038 
L 19.631543 172.946062 
L 19.411567 172.652549 
L 19.725741 172.35697 
L 19.600773 171.938749 
L 19.720073 171.625944 
L 19.562716 170.88734 
L 19.944096 170.685463 
L 20.478515 169.767031 
L 19.99241 168.882359 
L 19.944906 168.717689 
L 19.87446 168.762473 
L 19.665821 168.754206 
L 19.676617 168.521325 
L 19.817779 168.37319 
L 20.221022 168.154089 
L 20.249903 168.069343 
L 20.144908 167.556729 
L 19.479584 167.208786 
L 19.320878 167.088211 
L 19.442067 166.774718 
L 19.296856 166.614182 
L 18.936529 166.548727 
L 19.032346 166.43642 
L 19.081199 166.112592 
L 19.176477 165.989951 
L 19.279582 165.719864 
L 20.004286 165.560706 
L 20.006985 164.741488 
L 19.902531 164.667766 
L 19.423443 164.47967 
L 18.417765 164.294329 
L 18.026667 163.873352 
L 17.95973 163.349715 
L 18.113578 162.684144 
L 18.061486 160.457995 
L 18.463109 160.057688 
L 18.301704 159.74764 
L 18.337062 159.258452 
L 18.003725 158.842643 
L 18.164051 158.531216 
L 18.394283 158.242526 
L 18.493609 157.88976 
L 18.650696 157.756784 
L 18.819658 157.760918 
L 19.100093 158.104727 
L 19.25718 157.942813 
L 19.371621 157.856688 
L 19.887146 157.72509 
L 20.07959 157.48463 
L 20.039914 157.087768 
L 19.851788 156.740513 
L 19.880398 156.520034 
L 19.670139 155.844129 
L 19.449624 155.49963 
L 19.386466 155.029045 
L 19.089027 154.612202 
L 19.162442 154.326958 
L 19.468518 154.041024 
L 19.203738 152.709882 
L 19.340851 152.057402 
L 19.350028 151.816254 
L 19.321418 151.409745 
L 19.40266 151.261611 
L 19.43397 149.681742 
L 19.113588 149.110563 
L 18.965139 148.320973 
L 19.469328 147.701565 
L 19.724931 146.435189 
L 19.826416 146.334595 
L 20.16947 146.345619 
L 20.398622 145.618728 
L 20.240456 145.471971 
L 20.007525 145.536048 
L 19.675808 144.847051 
L 19.731679 144.366131 
L 19.743015 144.123605 
L 19.920345 144.105002 
L 20.354087 144.252447 
L 20.369472 143.786685 
L 20.439918 143.595833 
L 20.661513 143.132827 
L 20.680676 142.893056 
L 20.349499 142.482414 
L 20.240726 140.81642 
L 20.387016 140.715827 
L 20.78729 141.056191 
L 21.295258 140.936995 
L 21.336284 140.696535 
L 21.094446 140.474678 
L 21.513884 139.818064 
L 21.43615 139.479077 
L 21.772996 139.045698 
L 21.825628 138.499324 
L 21.753562 136.495032 
L 21.988922 136.179472 
L 22.666392 135.715777 
L 22.734139 135.6517 
L 23.210258 135.540772 
L 23.672206 135.236924 
L 24.2934 135.16458 
L 24.397585 134.968905 
L 24.591919 134.803545 
L 24.534023 134.54655 
L 24.790571 134.022223 
L 24.552782 133.612959 
L 24.183817 133.322202 
L 24.062223 133.090699 
L 23.831722 131.617624 
L 23.840811 131.217528 
L 23.802302 130.956876 
L 23.873018 130.696436 
L 23.653312 130.254789 
L 22.928743 127.859836 
L 23.104184 127.60973 
L 23.260191 127.41061 
L 23.212687 127.088849 
L 23.282323 126.547986 
L 22.856408 125.695697 
L 22.895005 125.42561 
L 23.160055 125.025303 
L 23.271527 124.393493 
L 23.459653 124.282565 
L 23.196222 124.00421 
L 23.110122 123.611482 
L 22.843182 123.408917 
L 22.979216 123.428209 
L 23.176519 123.362754 
L 23.192984 123.176725 
L 23.070445 122.968648 
L 23.062078 122.74059 
L 22.905801 122.5208 
L 23.158165 121.866942 
L 23.246425 121.439075 
L 23.625107 121.510731 
L 23.636173 121.401869 
L 23.565187 120.702538 
L 23.699062 120.155474 
L 24.325654 119.971512 
L 24.406761 119.627703 
L 24.611487 119.624258 
L 24.932138 119.815799 
L 25.445504 119.614612 
L 25.33997 119.239108 
L 25.337001 119.096486 
L 25.885455 118.294494 
L 26.023108 118.057479 
L 26.17979 117.853536 
L 26.790052 117.941728 
L 26.940256 117.704024 
L 27.144172 117.130089 
L 27.0327 116.515504 
L 27.10733 116.299159 
L 26.950378 116.285379 
L 26.953212 116.049053 
L 27.281825 115.694909 
L 27.182229 115.335942 
L 26.940256 114.552552 
L 26.996397 114.17636 
L 26.821497 113.334406 
L 26.743628 112.733601 
L 26.910701 112.640586 
L 26.851322 112.474538 
L 26.42851 112.324337 
L 26.221086 112.249236 
L 26.124593 111.991551 
L 26.312585 111.655321 
L 27.128787 111.371454 
L 27.22339 110.90776 
L 27.202068 110.424773 
L 27.300719 109.948676 
L 27.6821 108.835946 
L 27.496133 108.564482 
L 27.830819 108.232385 
L 27.958216 107.495848 
L 28.477655 106.723482 
L 28.551205 106.576037 
L 28.841626 106.232227 
L 28.896543 105.48346 
L 28.937443 105.44057 
L 29.422469 105.419211 
L 29.639475 105.465374 
L 29.645143 105.419211 
L 29.658504 105.384761 
L 30.041908 105.149125 
L 29.858641 104.310616 
L 29.850139 103.31157 
L 29.620582 103.298479 
L 29.636506 101.995586 
L 29.881043 101.669691 
L 29.702229 101.212197 
L 30.163097 99.222374 
L 30.000343 98.698737 
L 29.642849 98.515464 
L 29.458637 98.546469 
L 29.09588 98.921283 
L 28.877659 98.429339 
L 28.576441 98.05797 
L 28.610449 97.049279 
L 28.969293 96.77368 
L 29.073207 96.044032 
L 28.864433 95.932415 
L 28.41679 95.382595 
L 28.334738 95.183475 
L 28.229474 94.130688 
L 28.379813 94.07488 
L 28.428801 94.05421 
L 28.31355 93.762075 
L 28.247288 93.36039 
L 27.866852 92.953882 
L 27.810448 92.355993 
L 27.620426 92.200808 
L 27.467387 92.128464 
L 27.351867 91.365744 
L 27.377778 91.150088 
L 27.26833 91.014356 
L 27.225819 90.774585 
L 27.124334 90.538948 
L 27.308007 90.483139 
L 27.661182 90.572709 
L 27.70963 90.512766 
L 27.812735 89.765549 
L 27.511652 89.474793 
L 26.911241 89.394869 
L 26.62028 88.911882 
L 26.553478 88.357929 
L 26.394502 88.156053 
L 26.05941 87.25829 
L 26.223785 85.872029 
L 26.176416 85.622612 
L 26.312585 85.23953 
L 26.349022 84.74483 
L 26.704896 84.190187 
L 26.846868 84.386552 
L 26.936748 84.619432 
L 27.095184 84.511949 
L 27.471841 83.818818 
L 27.75592 83.837421 
L 27.686418 83.663105 
L 27.397346 83.301382 
L 27.376428 83.182185 
L 27.580884 81.981953 
L 27.689117 81.631942 
L 27.736891 81.309492 
L 27.918674 80.871979 
L 28.119351 80.173336 
L 28.396412 79.858465 
L 28.380757 79.287286 
L 28.99048 79.575287 
L 29.333129 79.426464 
L 29.655805 79.012377 
L 29.790219 78.348873 
L 29.937049 78.255169 
L 30.006011 78.00713 
L 29.77119 77.593043 
L 29.369297 77.546192 
L 29.250672 77.411148 
L 29.554589 76.525098 
L 29.517163 75.047215 
L 29.289539 74.549056 
L 29.312886 74.150127 
L 28.985622 72.109318 
L 29.27267 71.817873 
L 29.226245 71.650446 
L 29.252292 71.63391 
L 29.500202 71.440991 
L 29.69926 71.176417 
L 30.076187 71.062043 
L 30.207227 70.772664 
L 30.37646 69.318881 
L 30.543938 68.890325 
L 30.501697 67.865787 
L 30.846505 67.349039 
L 30.960407 66.247334 
L 31.753263 65.264135 
L 31.884168 64.847981 
L 32.219934 64.94513 
L 32.934112 63.481012 
L 33.377841 63.270868 
L 33.467586 63.088972 
L 33.805376 61.700644 
L 33.975148 61.569735 
L 33.924405 61.123954 
L 34.089859 60.926212 
L 34.286218 60.262708 
L 34.318202 59.920965 
L 34.729272 59.563376 
L 35.00161 58.785499 
L 35.04628 58.251526 
L 35.410116 57.680348 
L 35.84089 57.639697 
L 36.534284 58.013822 
L 37.012832 57.386146 
L 37.389354 57.34205 
L 37.830115 57.2325 
L 37.878968 57.178069 
L 37.90299 56.801877 
L 37.999347 56.248613 
L 37.922153 56.062583 
L 36.526187 53.650406 
L 36.492179 52.786404 
L 36.590156 52.285503 
L 36.741844 52.056067 
L 37.40123 51.457329 
L 37.457911 51.223759 
L 37.415805 50.886151 
L 36.766946 48.177704 
L 36.66438 47.83045 
L 36.63496 47.273741 
L 36.408507 46.756993 
L 36.42929 46.508954 
L 37.01904 44.634883 
L 37.285979 44.583208 
L 37.613648 44.507419 
L 37.675457 44.284873 
L 37.277612 43.736431 
L 37.22363 43.257579 
L 37.161821 43.076372 
L 37.035234 42.901367 
L 36.890833 42.862783 
L 36.69461 42.676754 
L 36.604731 42.06148 
L 37.07761 40.921191 
L 37.236046 41.124445 
L 37.610409 40.203256 
L 37.954003 40.177763 
L 38.317299 39.498412 
L 42.924635 37.131708 
L 43.042585 36.933277 
L 44.744357 30.267578 
L 43.804536 29.077681 
L 44.225863 28.330119 
L 44.67823 27.858845 
L 44.73545 27.088547 
L 44.850971 27.101638 
L 45.049354 26.934212 
L 45.294431 26.713044 
L 45.94302 26.378191 
L 45.991604 26.030937 
L 46.317113 24.972638 
L 46.502271 24.963681 
L 46.746808 24.912006 
L 46.766781 24.880312 
L 48.195406 24.327048 
L 48.334139 24.112081 
L 48.465584 24.029401 
L 48.878409 22.176 
L 49.546837 22.482604 
L 49.708242 22.689992 
L 49.797312 23.049648 
L 50.39192 23.22672 
L 50.39192 23.22672 
" clip-path="url(#p494b341328)" style="fill: none; stroke: #000000; stroke-width: 2"/>
   </g>
  </g>
 </g>
 <defs>
  <clipPath id="p494b341328">
   <rect x="0" y="-0" width="124.892326" height="266.112"/>
  </clipPath>
 </defs>
</svg>
