<?xml version="1.0" encoding="utf-8" standalone="no"?>
<!DOCTYPE svg PUBLIC "-//W3C//DTD SVG 1.1//EN"
  "http://www.w3.org/Graphics/SVG/1.1/DTD/svg11.dtd">
<svg xmlns:xlink="http://www.w3.org/1999/xlink" width="265.678781pt" height="266.112pt" viewBox="0 0 265.678781 266.112" xmlns="http://www.w3.org/2000/svg" version="1.1">
 <metadata>
  <rdf:RDF xmlns:dc="http://purl.org/dc/elements/1.1/" xmlns:cc="http://creativecommons.org/ns#" xmlns:rdf="http://www.w3.org/1999/02/22-rdf-syntax-ns#">
   <cc:Work>
    <dc:type rdf:resource="http://purl.org/dc/dcmitype/StillImage"/>
    <dc:date>2024-02-02T21:57:59.370192</dc:date>
    <dc:format>image/svg+xml</dc:format>
    <dc:creator>
     <cc:Agent>
      <dc:title>Matplotlib v3.8.2, https://matplotlib.org/</dc:title>
     </cc:Agent>
    </dc:creator>
   </cc:Work>
  </rdf:RDF>
 </metadata>
 <defs>
  <style type="text/css">*{stroke-linejoin: round; stroke-linecap: butt}</style>
 </defs>
 <g id="figure_1">
  <g id="patch_1">
   <path d="M 0 266.112 
L 265.678781 266.112 
L 265.678781 0 
L 0 0 
L 0 266.112 
z
" style="fill: none"/>
  </g>
  <g id="axes_1">
   <g id="PatchCollection_1">
    <path d="M 169.739221 83.301019 
L 167.397752 85.090758 
L 164.991241 84.372973 
L 164.572089 83.494632 
L 164.43478 82.540734 
L 164.579316 81.586836 
L 164.991241 80.680161 
L 165.865679 80.052099 
L 166.830451 79.768763 
L 167.853037 79.749874 
L 168.864784 79.88682 
L 170.685927 80.916274 
L 169.739221 83.301019 
" clip-path="url(#pec4219dee7)" style="fill: none; stroke: #000000; stroke-width: 2"/>
    <path d="M 131.646976 22.176 
L 134.234155 27.59244 
L 133.529546 29.519125 
L 133.916178 30.652469 
L 135.11582 31.162473 
L 139.683131 31.167196 
L 140.87916 31.549699 
L 144.539513 34.383059 
L 145.446472 35.681682 
L 145.536806 37.136141 
L 143.137522 38.869212 
L 136.221514 38.581154 
L 135.477158 41.518404 
L 136.376889 43.043696 
L 137.890895 44.054261 
L 139.242299 44.191207 
L 139.668678 43.105086 
L 139.871027 41.442848 
L 141.027309 42.056742 
L 143.310964 44.408431 
L 144.741863 45.286773 
L 145.825876 46.443728 
L 146.974931 47.397626 
L 150.270333 47.780129 
L 153.334479 49.026808 
L 154.927979 49.28181 
L 158.855723 47.340959 
L 160.785267 47.133179 
L 161.211646 49.295977 
L 160.597371 52.252116 
L 161.457356 53.17768 
L 163.141191 53.616851 
L 164.991241 55.123254 
L 167.983119 58.938845 
L 169.088813 60.058023 
L 170.512485 60.51136 
L 172.160186 60.629417 
L 173.374281 61.266923 
L 173.500749 63.288053 
L 172.189093 67.051699 
L 170.346269 69.134219 
L 162.100537 73.082034 
L 159.365209 75.315666 
L 157.605493 78.389862 
L 157.598267 82.281009 
L 158.595559 84.401307 
L 159.939736 85.718819 
L 161.352568 86.828552 
L 162.570277 88.344399 
L 162.844894 89.246352 
L 163.003882 91.267482 
L 163.325473 92.249714 
L 163.972268 92.972221 
L 165.421233 93.926119 
L 166.010214 94.988629 
L 168.272189 99.795896 
L 172.413122 103.663432 
L 188.756835 112.946218 
L 191.730249 116.224661 
L 193.13224 116.300218 
L 194.599272 115.870491 
L 196.131345 115.776046 
L 197.150318 116.314384 
L 198.154837 117.291894 
L 199.950687 119.667194 
L 200.127742 120.734426 
L 200.080769 121.277487 
L 198.812472 127.151986 
L 197.959715 129.390341 
L 196.626378 131.184802 
L 195.076238 132.544815 
L 194.816075 133.238988 
L 193.992224 137.441805 
L 193.515258 138.414592 
L 192.575779 139.207933 
L 187.69049 139.689604 
L 176.199944 137.777086 
L 171.773554 140.657669 
L 171.99397 142.825189 
L 174.212585 143.831032 
L 181.504385 144.586594 
L 183.415863 145.53577 
L 184.929868 147.221619 
L 188.593835 154.796135 
L 191.744702 157.960053 
L 195.538751 159.915072 
L 199.950687 161.256196 
L 201.862165 163.135658 
L 204.557746 168.651265 
L 206.75468 170.426837 
L 209.406901 171.201289 
L 210.610156 171.886018 
L 211.618289 173.137418 
L 213.258763 176.277725 
L 214.284963 177.269401 
L 215.838716 177.755795 
L 218.266907 177.24579 
L 223.043795 174.776045 
L 225.435852 174.950769 
L 226.425918 175.767721 
L 228.073619 178.020242 
L 229.121499 178.785249 
L 230.50181 179.026085 
L 234.91736 178.601081 
L 236.044734 178.851361 
L 237.204629 179.616368 
L 238.061 180.796935 
L 238.270576 182.303338 
L 237.641848 183.465015 
L 236.622875 184.102521 
L 235.806251 184.858084 
L 235.784571 186.369209 
L 236.26515 187.332552 
L 236.239856 188.187282 
L 235.76289 188.857844 
L 234.892158 189.278191 
L 229.771907 190.250912 
L 227.553292 191.639259 
L 226.635494 193.990947 
L 227.596653 196.862086 
L 229.887535 198.661269 
L 234.91736 200.937402 
L 236.033894 201.87241 
L 236.550607 203.199367 
L 236.919172 204.653826 
L 237.598487 205.999671 
L 239.289549 207.8083 
L 242.736713 210.365407 
L 243.296182 211.149635 
L 243.538883 211.78917 
L 242.924608 212.096118 
L 241.453963 212.152785 
L 238.212762 214.499751 
L 237.352777 214.627252 
L 233.103443 212.436121 
L 230.653572 212.115007 
L 229.042005 213.645021 
L 229.110659 216.45477 
L 230.899282 218.263398 
L 233.226298 219.606883 
L 234.91736 220.992868 
L 235.799024 223.996229 
L 236.189269 226.588754 
L 235.98692 229.148222 
L 234.91736 232.600199 
L 234.67165 233.709932 
L 234.552408 234.840915 
L 234.621063 235.953008 
L 234.91736 237.020241 
L 237.345551 242.24779 
L 236.088095 241.891259 
L 228.803522 238.576227 
L 227.849589 238.361364 
L 227.105233 238.460532 
L 225.410558 239.022482 
L 222.69691 239.133455 
L 221.771885 239.345957 
L 220.416868 240.01888 
L 216.781808 242.70585 
L 215.560486 243.3103 
L 210.90284 243.936 
L 206.826948 236.004953 
L 203.184661 225.653745 
L 201.768217 222.758996 
L 199.950687 220.109804 
L 198.472815 217.635336 
L 197.83686 215.234064 
L 198.263239 212.908347 
L 200.42404 210.034848 
L 200.568575 209.376092 
L 200.409586 208.686641 
L 199.950687 207.968857 
L 198.523402 206.585232 
L 193.515258 204.096598 
L 191.845877 202.783808 
L 190.516153 201.319905 
L 189.078028 200.129894 
L 185.110538 199.095718 
L 184.52517 197.716816 
L 184.969616 195.889299 
L 187.321926 191.965095 
L 187.632676 190.524804 
L 187.000335 186.340876 
L 187.227978 184.01752 
L 187.213524 182.468617 
L 186.584796 181.316384 
L 185.002136 180.164151 
L 183.072591 179.413311 
L 181.059281 179.537599 
L 172.48539 181.64222 
L 170.613659 182.426117 
L 164.991241 186.048095 
L 162.671451 186.931159 
L 161.883735 186.80838 
L 161.122198 186.354212 
L 158.913537 184.074188 
L 157.692214 183.427237 
L 154.382359 183.115568 
L 153.363386 182.700008 
L 152.658777 181.670554 
L 151.831313 179.772203 
L 149.656059 176.679118 
L 147.784328 177.316624 
L 145.796969 179.181919 
L 143.22063 179.800536 
L 141.851159 178.91275 
L 141.576542 177.581071 
L 142.263084 174.289651 
L 142.378712 172.155187 
L 142.075188 170.464615 
L 141.356126 168.939323 
L 136.199834 162.28565 
L 133.82223 161.081472 
L 131.198916 161.988147 
L 128.207812 164.227256 
L 126.385895 165.255955 
L 124.001065 165.832072 
L 120.944146 165.784849 
L 117.699331 166.379855 
L 115.715586 167.258196 
L 114.635185 165.402346 
L 109.605361 158.706172 
L 109.27293 158.630615 
L 108.138329 158.706172 
L 106.844739 157.908109 
L 104.315373 154.966136 
L 103.383122 155.542253 
L 103.122958 155.013359 
L 103.101278 153.983905 
L 102.884475 153.091397 
L 101.829368 152.312223 
L 101.236774 151.70305 
L 100.976611 150.909709 
L 100.651407 149.521363 
L 99.86369 148.189684 
L 98.06784 146.173276 
L 94.024469 142.631576 
L 84.326158 136.9318 
L 81.767886 136.133737 
L 79.404736 136.133737 
L 75.191535 137.28597 
L 73.189723 137.53625 
L 71.758825 137.961254 
L 71.028922 138.060422 
L 70.436328 137.862087 
L 69.547437 136.997912 
L 68.860895 136.813744 
L 67.368569 137.210414 
L 64.936764 138.924597 
L 63.823844 139.311823 
L 55.411896 137.876254 
L 47.765985 133.635658 
L 41.363077 131.808141 
L 38.161623 130.032569 
L 37.258278 127.397544 
L 38.226664 126.490869 
L 41.391984 125.801418 
L 42.074913 124.620851 
L 41.62324 123.591397 
L 39.440759 120.899705 
L 38.696403 119.289412 
L 39.975539 118.293014 
L 38.898752 115.794935 
L 35.787633 111.74323 
L 33.897835 109.962936 
L 33.182386 108.532089 
L 33.659352 107.035131 
L 34.25556 106.015121 
L 35.35764 102.327031 
L 35.35764 101.703692 
L 32.528364 99.290613 
L 31.043265 97.633098 
L 30.754195 96.42892 
L 33.146252 93.586115 
L 34.656645 92.542494 
L 36.311573 92.344159 
L 36.008049 91.413873 
L 35.787633 91.040814 
L 36.835513 91.390261 
L 37.258278 91.72082 
L 37.18601 89.529688 
L 38.118262 87.640782 
L 41.081233 84.17936 
L 40.546453 82.111008 
L 40.972832 81.544336 
L 42.425411 78.965978 
L 42.631373 78.224582 
L 42.266422 71.896745 
L 42.020712 70.38562 
L 41.370304 68.671437 
L 38.465147 64.057782 
L 37.749698 62.244432 
L 37.373906 60.166635 
L 37.218531 58.334395 
L 36.91862 56.587157 
L 36.11645 54.792695 
L 33.926742 52.067948 
L 31.169734 49.80126 
L 28.159789 48.309023 
L 25.16791 47.884019 
L 23.83096 46.627896 
L 22.718039 44.016483 
L 22.139898 41.112289 
L 22.428969 38.977825 
L 23.129964 39.152548 
L 23.82012 39.166715 
L 24.506662 39.015603 
L 28.282643 37.495033 
L 31.252841 37.381698 
L 42.656667 38.96838 
L 44.365795 38.826712 
L 45.735266 38.255318 
L 48.994534 35.421958 
L 51.993639 34.189446 
L 58.468815 34.052501 
L 61.634136 33.287493 
L 64.445345 32.036093 
L 65.840109 31.889702 
L 68.80308 32.711377 
L 70.277339 32.44693 
L 71.650423 31.714979 
L 72.748891 30.63358 
L 73.106615 29.741071 
L 73.153589 28.966619 
L 73.334258 28.286613 
L 74.165335 27.705774 
L 74.909692 27.69633 
L 76.806716 28.470781 
L 80.188839 30.789414 
L 81.482429 31.275808 
L 83.126516 31.006639 
L 83.773311 30.57219 
L 84.846485 29.495513 
L 85.673949 29.231066 
L 86.537547 29.330234 
L 90.266554 31.563866 
L 91.795014 32.116371 
L 93.366834 32.224983 
L 95.065122 31.73859 
L 96.929626 29.840239 
L 97.681209 29.816627 
L 98.049774 30.506078 
L 98.30271 31.441087 
L 98.685728 32.13526 
L 100.12024 32.541375 
L 101.150053 31.6347 
L 102.002811 30.184964 
L 102.906156 28.999675 
L 104.409321 28.329113 
L 105.825766 28.518004 
L 108.74899 29.665515 
L 119.000147 29.873295 
L 120.835744 29.627737 
L 121.529513 28.673839 
L 120.785157 27.630218 
L 118.161843 26.38354 
L 117.583703 25.094361 
L 118.942333 23.73907 
L 125.692126 24.796858 
L 128.344347 24.711857 
L 129.197104 24.135741 
L 130.779764 22.723783 
L 131.646976 22.176 
M 130.042635 45.735388 
L 132.579227 46.594841 
L 133.57652 44.48871 
L 132.799644 41.872574 
L 130.042635 41.220901 
L 128.958621 41.976464 
L 128.730978 43.242031 
L 129.168197 44.620933 
L 130.042635 45.735388 
M 144.539513 51.383219 
L 146.158307 51.642944 
L 146.895437 50.632379 
L 144.893624 48.918196 
L 144.329937 48.908751 
L 143.867425 49.28181 
L 144.539513 51.383219 
L 144.539513 51.383219 
" clip-path="url(#pec4219dee7)" style="fill: none; stroke: #000000; stroke-width: 2"/>
   </g>
  </g>
 </g>
 <defs>
  <clipPath id="pec4219dee7">
   <rect x="0" y="-0" width="265.678781" height="266.112"/>
  </clipPath>
 </defs>
</svg>
