<?xml version="1.0" encoding="utf-8" standalone="no"?>
<!DOCTYPE svg PUBLIC "-//W3C//DTD SVG 1.1//EN"
  "http://www.w3.org/Graphics/SVG/1.1/DTD/svg11.dtd">
<svg xmlns:xlink="http://www.w3.org/1999/xlink" width="227.08453pt" height="266.112pt" viewBox="0 0 227.08453 266.112" xmlns="http://www.w3.org/2000/svg" version="1.1">
 <metadata>
  <rdf:RDF xmlns:dc="http://purl.org/dc/elements/1.1/" xmlns:cc="http://creativecommons.org/ns#" xmlns:rdf="http://www.w3.org/1999/02/22-rdf-syntax-ns#">
   <cc:Work>
    <dc:type rdf:resource="http://purl.org/dc/dcmitype/StillImage"/>
    <dc:date>2024-02-02T21:57:59.533228</dc:date>
    <dc:format>image/svg+xml</dc:format>
    <dc:creator>
     <cc:Agent>
      <dc:title>Matplotlib v3.8.2, https://matplotlib.org/</dc:title>
     </cc:Agent>
    </dc:creator>
   </cc:Work>
  </rdf:RDF>
 </metadata>
 <defs>
  <style type="text/css">*{stroke-linejoin: round; stroke-linecap: butt}</style>
 </defs>
 <g id="figure_1">
  <g id="patch_1">
   <path d="M 0 266.112 
L 227.08453 266.112 
L 227.08453 0 
L 0 0 
L 0 266.112 
z
" style="fill: none"/>
  </g>
  <g id="axes_1">
   <g id="PatchCollection_1">
    <path d="M 170.324869 243.021623 
L 170.279715 243.092069 
L 170.209339 243.08214 
L 169.972582 242.893497 
L 169.886747 242.888296 
L 169.828168 242.859456 
L 169.772437 242.816905 
L 169.700027 242.774827 
L 169.621108 242.752133 
L 169.48361 242.731803 
L 169.423403 242.694925 
L 169.423403 242.655211 
L 169.642668 242.604622 
L 169.847288 242.631098 
L 170.109266 242.853783 
L 170.267104 242.947395 
L 170.324869 243.021623 
" clip-path="url(#p83ed0c5dfb)" style="fill: none; stroke: #000000; stroke-width: 2"/>
    <path d="M 163.955214 241.653368 
L 164.043489 241.659987 
L 164.202547 241.624055 
L 164.237532 241.64533 
L 164.22126 241.739416 
L 164.176512 241.817899 
L 164.111831 241.856668 
L 164.032506 241.855722 
L 163.944637 241.815535 
L 163.692015 241.815535 
L 163.573637 241.791422 
L 163.462987 241.739416 
L 163.559805 241.616963 
L 163.61391 241.58434 
L 163.702185 241.577248 
L 163.789647 241.594269 
L 163.955214 241.653368 
" clip-path="url(#p83ed0c5dfb)" style="fill: none; stroke: #000000; stroke-width: 2"/>
    <path d="M 168.453595 240.857189 
L 168.364913 240.953638 
L 168.19243 240.903522 
L 168.12002 240.930944 
L 168.045983 240.941818 
L 167.976013 240.922434 
L 167.915807 240.863808 
L 168.452781 240.638759 
L 168.635027 240.625521 
L 168.635027 240.665236 
L 168.521937 240.724807 
L 168.453595 240.857189 
" clip-path="url(#p83ed0c5dfb)" style="fill: none; stroke: #000000; stroke-width: 2"/>
    <path d="M 166.883352 239.301708 
L 166.820705 239.388701 
L 167.234012 239.328184 
L 167.301541 239.32913 
L 167.276319 239.413286 
L 167.21652 239.504062 
L 167.148178 239.583018 
L 167.096921 239.63077 
L 166.921184 239.731947 
L 166.854062 239.803811 
L 166.871961 239.887968 
L 166.91915 239.997183 
L 166.855282 240.055336 
L 166.744226 240.094105 
L 166.801585 240.147057 
L 166.357768 240.291731 
L 166.274374 240.246816 
L 166.274374 239.94754 
L 166.259729 239.870948 
L 166.213354 239.707362 
L 166.206032 239.665757 
L 166.238982 239.602875 
L 166.290239 239.561743 
L 166.345564 239.527702 
L 166.391939 239.487987 
L 166.564828 239.289415 
L 166.669375 239.197694 
L 166.808907 239.119211 
L 166.95983 239.070986 
L 167.096921 239.070986 
L 167.039562 239.193912 
L 166.883352 239.301708 
" clip-path="url(#p83ed0c5dfb)" style="fill: none; stroke: #000000; stroke-width: 2"/>
    <path d="M 166.376887 238.913074 
L 166.400075 239.034109 
L 166.454992 239.027489 
L 166.4794 239.051129 
L 166.464756 239.105027 
L 166.428551 239.131503 
L 166.383803 239.153252 
L 166.339868 239.190129 
L 166.291866 239.272395 
L 166.218236 239.442599 
L 166.134842 239.564579 
L 166.076263 239.617532 
L 166.013209 239.645899 
L 165.964393 239.63077 
L 165.930629 239.575926 
L 165.944867 239.558906 
L 166.003446 239.356552 
L 165.998564 239.348987 
L 166.059177 239.200531 
L 166.149487 239.052547 
L 166.259322 238.943333 
L 166.376887 238.913074 
" clip-path="url(#p83ed0c5dfb)" style="fill: none; stroke: #000000; stroke-width: 2"/>
    <path d="M 167.663185 239.062476 
L 167.57491 239.070986 
L 167.478091 239.024653 
L 167.386969 238.956098 
L 167.312931 238.865322 
L 167.26737 238.750434 
L 167.433344 238.751853 
L 167.674982 238.905037 
L 167.84421 238.913074 
L 167.805971 238.988721 
L 167.742511 239.036945 
L 167.663185 239.062476 
" clip-path="url(#p83ed0c5dfb)" style="fill: none; stroke: #000000; stroke-width: 2"/>
    <path d="M 165.160152 238.573138 
L 164.786711 239.127721 
L 164.931938 239.007632 
L 165.176017 239.031272 
L 165.113777 238.833645 
L 165.283005 238.772183 
L 165.346873 238.913074 
L 165.61658 238.526332 
L 166.116943 238.329651 
L 166.189353 238.425154 
L 165.79069 238.631291 
L 165.928188 238.764618 
L 166.066906 238.631291 
L 166.064059 238.84972 
L 165.517728 239.432198 
L 165.802894 239.273813 
L 165.664176 239.589165 
L 165.356636 239.802866 
L 165.244359 240.269037 
L 165.58607 240.387235 
L 165.529932 239.971179 
L 165.774011 239.705471 
L 165.963986 239.792464 
L 166.113688 240.205683 
L 166.137689 240.386289 
L 166.317901 240.448225 
L 167.005391 240.214194 
L 167.434971 239.828397 
L 167.499652 239.917281 
L 167.488668 240.144221 
L 167.433344 240.201901 
L 167.507381 240.260527 
L 167.602572 240.215612 
L 167.851533 239.716818 
L 168.19243 239.46813 
L 168.23433 239.778754 
L 168.325047 239.828397 
L 168.085849 240.026968 
L 168.533328 240.106397 
L 168.155005 240.269037 
L 168.464985 240.326245 
L 168.464985 240.466664 
L 167.784818 240.50496 
L 167.244589 240.404255 
L 166.657578 240.814165 
L 166.730395 240.877991 
L 167.344661 240.539001 
L 167.605826 240.625521 
L 167.150212 240.804236 
L 167.472396 240.883665 
L 167.43375 240.993352 
L 167.915807 241.180577 
L 167.301541 241.339435 
L 167.725425 241.311067 
L 168.874225 241.180577 
L 168.563837 241.395224 
L 168.155005 241.498292 
L 168.805883 241.526187 
L 169.184206 241.220292 
L 169.206173 241.325251 
L 169.253361 241.418391 
L 169.835084 240.790998 
L 170.999749 240.546092 
L 170.959476 240.669491 
L 171.214132 240.655307 
L 171.419972 240.512997 
L 171.608727 240.187717 
L 171.923589 240.057227 
L 172.628978 240.169751 
L 172.853531 240.300714 
L 172.987774 240.808018 
L 173.08622 241.01841 
L 172.862074 241.530442 
L 172.563077 241.815535 
L 171.923589 241.78764 
L 171.801549 241.942715 
L 172.576094 242.294944 
L 171.685611 242.294944 
L 171.461059 241.834919 
L 170.750788 241.763055 
L 170.32609 241.835392 
L 169.355875 241.77582 
L 169.870882 242.016944 
L 169.808642 242.042474 
L 169.746402 242.068005 
L 169.972582 242.25523 
L 169.851356 242.293526 
L 169.736638 242.318111 
L 169.321704 242.018362 
L 169.231394 242.191403 
L 169.321704 242.377683 
L 168.704183 242.093536 
L 169.313568 242.837235 
L 170.13286 243.058501 
L 170.928966 243.333192 
L 170.570576 243.075521 
L 170.489623 242.767262 
L 170.935881 242.681214 
L 171.723444 242.824942 
L 171.863789 243.081195 
L 171.527367 243.315699 
L 171.068091 243.333192 
L 171.385801 243.405529 
L 171.624185 243.543584 
L 171.465533 243.726081 
L 171.012359 243.767687 
L 170.860217 243.889194 
L 169.887968 243.819694 
L 169.522662 243.689203 
L 169.184206 243.250927 
L 169.137424 242.766316 
L 168.937279 242.6415 
L 168.704183 242.655211 
L 168.780661 242.737476 
L 168.772525 242.853783 
L 168.430814 242.675068 
L 168.819714 243.123273 
L 168.806696 243.444298 
L 168.564244 243.606938 
L 167.33978 243.239107 
L 167.111973 243.032497 
L 166.650256 243.01264 
L 166.382175 242.581455 
L 166.26339 242.626843 
L 166.404956 243.072685 
L 166.165759 242.970089 
L 165.964393 242.731803 
L 166.024193 242.891133 
L 166.135249 243.135093 
L 165.817946 243.247617 
L 165.672718 242.882623 
L 165.606817 243.123273 
L 165.765468 243.486849 
L 165.373721 243.867918 
L 164.980754 243.890612 
L 164.20092 243.868864 
L 164.073999 243.526563 
L 164.459644 242.694925 
L 164.357945 242.558289 
L 164.754167 242.248138 
L 164.480391 241.854776 
L 164.278212 241.86896 
L 164.531648 241.651004 
L 164.866036 241.616963 
L 164.848951 241.517204 
L 164.866036 241.418391 
L 164.426287 241.50633 
L 164.319706 241.378676 
L 164.405947 241.350782 
L 164.493815 241.339435 
L 164.20987 241.185305 
L 164.097593 240.764522 
L 164.175699 240.848206 
L 164.288789 240.938981 
L 164.900207 240.585807 
L 164.51741 240.609446 
L 164.251363 240.506378 
L 164.493815 240.387235 
L 164.298552 240.385344 
L 164.105729 240.387235 
L 164.126883 240.306388 
L 164.14885 240.22554 
L 163.989792 240.189608 
L 164.023556 240.020349 
L 164.382759 240.058173 
L 164.311976 239.54094 
L 164.761082 239.596729 
L 164.204581 238.850666 
L 164.322146 238.802441 
L 164.736268 238.589686 
L 164.760675 238.473379 
L 164.902241 238.38544 
L 165.029569 237.835112 
L 165.323685 237.736772 
L 165.622682 237.758993 
L 165.549052 237.832748 
L 165.827709 238.155664 
L 165.160152 238.573138 
L 165.160152 238.573138 
" clip-path="url(#p83ed0c5dfb)" style="fill: none; stroke: #000000; stroke-width: 2"/>
    <path d="M 163.58584 237.682873 
L 163.466242 237.702258 
L 163.361288 237.676254 
L 163.296607 237.638431 
L 163.375932 237.593043 
L 163.507735 237.560421 
L 163.599672 237.560421 
L 163.653369 237.631339 
L 163.58584 237.682873 
" clip-path="url(#p83ed0c5dfb)" style="fill: none; stroke: #000000; stroke-width: 2"/>
    <path d="M 164.288789 237.441277 
L 164.196039 237.512196 
L 164.146002 237.447424 
L 164.150884 237.330172 
L 164.22126 237.239869 
L 164.338825 237.226158 
L 164.399845 237.288566 
L 164.388861 237.377451 
L 164.288789 237.441277 
" clip-path="url(#p83ed0c5dfb)" style="fill: none; stroke: #000000; stroke-width: 2"/>
    <path d="M 79.607923 224.698156 
L 79.38459 224.936443 
L 79.210887 224.905239 
L 79.1279 224.901456 
L 79.058744 224.936443 
L 78.909856 224.914222 
L 78.795138 224.857014 
L 78.701168 224.769075 
L 78.615333 224.661751 
L 78.549839 224.512822 
L 78.604757 224.426775 
L 78.947281 224.216856 
L 79.064846 224.228203 
L 79.157596 224.306686 
L 79.195429 224.441904 
L 79.23204 224.477836 
L 79.312587 224.494856 
L 79.437881 224.502894 
L 79.489951 224.538353 
L 79.531038 224.583741 
L 79.607923 224.698156 
" clip-path="url(#p83ed0c5dfb)" style="fill: none; stroke: #000000; stroke-width: 2"/>
    <path d="M 71.657447 223.052846 
L 71.572833 223.053318 
L 71.385705 222.988546 
L 71.275056 222.973889 
L 71.201018 222.914318 
L 71.159525 222.817869 
L 71.146914 222.690688 
L 71.217697 222.644827 
L 71.609444 222.568708 
L 71.676159 222.651919 
L 71.734738 222.758297 
L 71.760774 222.875076 
L 71.730264 222.988546 
L 71.657447 223.052846 
" clip-path="url(#p83ed0c5dfb)" style="fill: none; stroke: #000000; stroke-width: 2"/>
    <path d="M 207.958234 180.122054 
L 207.91552 180.127727 
L 207.816668 180.110234 
L 207.797141 180.078084 
L 207.767445 179.980689 
L 207.789412 179.937665 
L 207.830092 179.918281 
L 207.872399 179.937665 
L 207.899248 179.957523 
L 207.961081 180.040261 
L 207.981421 180.085176 
L 207.958234 180.122054 
" clip-path="url(#p83ed0c5dfb)" style="fill: none; stroke: #000000; stroke-width: 2"/>
    <path d="M 208.061154 175.216853 
L 207.917961 175.263186 
L 207.758089 175.154444 
L 207.672661 174.975729 
L 207.753614 174.812144 
L 207.954572 174.793232 
L 208.108342 174.92845 
L 208.160819 175.106692 
L 208.061154 175.216853 
" clip-path="url(#p83ed0c5dfb)" style="fill: none; stroke: #000000; stroke-width: 2"/>
    <path d="M 22.211459 84.855249 
L 22.124811 84.989522 
L 22.025959 85.006542 
L 21.977143 84.972501 
L 21.940531 84.905365 
L 21.929547 84.807497 
L 21.963718 84.745089 
L 22.021484 84.725232 
L 22.074774 84.719086 
L 22.102844 84.736106 
L 22.117488 84.798514 
L 22.098776 84.828773 
L 22.074368 84.850521 
L 22.057689 84.887399 
L 22.086978 84.92144 
L 22.151659 84.914821 
L 22.189898 84.852885 
L 22.180135 84.764946 
L 22.177288 84.712467 
L 22.209018 84.729487 
L 22.211459 84.855249 
" clip-path="url(#p83ed0c5dfb)" style="fill: none; stroke: #000000; stroke-width: 2"/>
    <path d="M 18.937949 79.654081 
L 18.923711 79.656445 
L 18.927779 79.640843 
L 18.937949 79.654081 
" clip-path="url(#p83ed0c5dfb)" style="fill: none; stroke: #000000; stroke-width: 2"/>
    <path d="M 34.072492 54.187223 
L 34.037507 54.277054 
L 33.900416 54.204244 
L 33.969165 54.167839 
L 34.072492 54.187223 
" clip-path="url(#p83ed0c5dfb)" style="fill: none; stroke: #000000; stroke-width: 2"/>
    <path d="M 92.868343 47.358238 
L 92.870377 47.409772 
L 92.836206 47.383769 
L 92.868343 47.358238 
" clip-path="url(#p83ed0c5dfb)" style="fill: none; stroke: #000000; stroke-width: 2"/>
    <path d="M 56.770644 22.176 
L 56.804816 22.288051 
L 56.712472 22.262521 
L 56.770644 22.176 
" clip-path="url(#p83ed0c5dfb)" style="fill: none; stroke: #000000; stroke-width: 2"/>
   </g>
  </g>
 </g>
 <defs>
  <clipPath id="p83ed0c5dfb">
   <rect x="0" y="-0" width="227.08453" height="266.112"/>
  </clipPath>
 </defs>
</svg>
