<?xml version="1.0" encoding="utf-8" standalone="no"?>
<!DOCTYPE svg PUBLIC "-//W3C//DTD SVG 1.1//EN"
  "http://www.w3.org/Graphics/SVG/1.1/DTD/svg11.dtd">
<svg xmlns:xlink="http://www.w3.org/1999/xlink" width="77.927585pt" height="266.112pt" viewBox="0 0 77.927585 266.112" xmlns="http://www.w3.org/2000/svg" version="1.1">
 <metadata>
  <rdf:RDF xmlns:dc="http://purl.org/dc/elements/1.1/" xmlns:cc="http://creativecommons.org/ns#" xmlns:rdf="http://www.w3.org/1999/02/22-rdf-syntax-ns#">
   <cc:Work>
    <dc:type rdf:resource="http://purl.org/dc/dcmitype/StillImage"/>
    <dc:date>2024-02-02T21:57:59.557235</dc:date>
    <dc:format>image/svg+xml</dc:format>
    <dc:creator>
     <cc:Agent>
      <dc:title>Matplotlib v3.8.2, https://matplotlib.org/</dc:title>
     </cc:Agent>
    </dc:creator>
   </cc:Work>
  </rdf:RDF>
 </metadata>
 <defs>
  <style type="text/css">*{stroke-linejoin: round; stroke-linecap: butt}</style>
 </defs>
 <g id="figure_1">
  <g id="patch_1">
   <path d="M 0 266.112 
L 77.927585 266.112 
L 77.927585 0 
L 0 0 
L 0 266.112 
z
" style="fill: none"/>
  </g>
  <g id="axes_1">
   <g id="PatchCollection_1">
    <path d="M 41.214754 202.707311 
L 45.973263 206.422048 
L 46.253175 203.758191 
L 47.022934 201.998579 
L 49.728753 198.210525 
L 51.361575 200.776626 
L 53.58921 202.267409 
L 56.388333 202.75619 
L 59.677303 202.316287 
L 58.277741 203.904825 
L 57.472993 205.029022 
L 56.26004 205.835511 
L 53.647525 206.422048 
L 54.953783 210.723322 
L 57.892862 212.751764 
L 61.671678 212.641788 
L 65.555461 210.51559 
L 67.689792 210.51559 
L 69.159332 211.994153 
L 70.139025 213.484935 
L 71.433619 216.857525 
L 69.485896 216.710891 
L 65.543798 217.004159 
L 63.596075 216.857525 
L 66.255242 220.205676 
L 68.716137 221.806434 
L 70.115699 223.419412 
L 69.474233 226.926417 
L 66.243579 232.131936 
L 63.001261 232.351887 
L 59.292423 230.445641 
L 54.627218 229.150371 
L 52.399583 230.237909 
L 52.294616 232.962863 
L 53.647525 240.355678 
L 51.501531 243.936 
L 46.801337 241.663168 
L 42.147795 237.410772 
L 40.118431 235.13794 
L 38.182371 235.626721 
L 32.315875 238.510529 
L 28.362114 239.219262 
L 22.390652 239.255921 
L 18.658487 238.412773 
L 9.503023 232.816229 
L 7.578626 230.079055 
L 9.514686 225.985513 
L 10.774291 222.551825 
L 9.747946 219.619138 
L 9.852913 217.040818 
L 14.506455 214.621352 
L 12.453765 213.814863 
L 6.493965 210.51559 
L 9.654642 207.521805 
L 14.739715 205.322291 
L 21.34098 203.342727 
L 19.020041 199.37138 
L 19.498224 195.815498 
L 22.110739 192.699518 
L 26.239446 190.023441 
L 35.383247 191.172077 
L 39.022107 196.51201 
L 41.214754 202.707311 
" clip-path="url(#p430457cbea)" style="fill: none; stroke: #000000; stroke-width: 2"/>
    <path d="M 24.466668 31.585037 
L 28.257147 32.941405 
L 34.263598 30.851865 
L 37.984099 31.585037 
L 42.602652 35.104261 
L 46.591403 39.869877 
L 49.740416 45.099835 
L 51.851421 50.036525 
L 53.904111 59.030097 
L 54.184024 63.991226 
L 53.647525 68.683525 
L 51.711465 74.328947 
L 49.740416 75.355387 
L 46.789674 75.086558 
L 41.891208 76.870609 
L 40.083442 71.506236 
L 34.986705 67.693743 
L 22.320673 62.524883 
L 18.635161 64.553324 
L 17.060655 60.227611 
L 16.465841 47.971424 
L 15.159584 42.460417 
L 13.491773 37.853655 
L 12.313809 33.149137 
L 12.547069 27.295982 
L 13.59674 28.285764 
L 14.039934 29.263327 
L 14.506455 31.585037 
L 16.255907 35.226456 
L 20.804482 40.713024 
L 22.320673 43.877882 
L 22.239032 48.0814 
L 21.10772 51.637283 
L 21.10772 54.459994 
L 24.466668 56.36624 
L 25.889555 50.769696 
L 26.309424 43.120272 
L 24.536646 36.350653 
L 19.381594 33.454625 
L 17.305578 30.167571 
L 18.670151 24.399954 
L 22.647238 22.176 
L 28.362114 29.532156 
L 26.437717 30.680792 
L 24.466668 31.585037 
" clip-path="url(#p430457cbea)" style="fill: none; stroke: #000000; stroke-width: 2"/>
   </g>
  </g>
 </g>
 <defs>
  <clipPath id="p430457cbea">
   <rect x="0" y="-0" width="77.927585" height="266.112"/>
  </clipPath>
 </defs>
</svg>
