<?xml version="1.0" encoding="utf-8" standalone="no"?>
<!DOCTYPE svg PUBLIC "-//W3C//DTD SVG 1.1//EN"
  "http://www.w3.org/Graphics/SVG/1.1/DTD/svg11.dtd">
<svg xmlns:xlink="http://www.w3.org/1999/xlink" width="357.12pt" height="183.02953pt" viewBox="0 0 357.12 183.02953" xmlns="http://www.w3.org/2000/svg" version="1.1">
 <metadata>
  <rdf:RDF xmlns:dc="http://purl.org/dc/elements/1.1/" xmlns:cc="http://creativecommons.org/ns#" xmlns:rdf="http://www.w3.org/1999/02/22-rdf-syntax-ns#">
   <cc:Work>
    <dc:type rdf:resource="http://purl.org/dc/dcmitype/StillImage"/>
    <dc:date>2024-02-02T21:57:59.625251</dc:date>
    <dc:format>image/svg+xml</dc:format>
    <dc:creator>
     <cc:Agent>
      <dc:title>Matplotlib v3.8.2, https://matplotlib.org/</dc:title>
     </cc:Agent>
    </dc:creator>
   </cc:Work>
  </rdf:RDF>
 </metadata>
 <defs>
  <style type="text/css">*{stroke-linejoin: round; stroke-linecap: butt}</style>
 </defs>
 <g id="figure_1">
  <g id="patch_1">
   <path d="M 0 183.02953 
L 357.12 183.02953 
L 357.12 0 
L 0 0 
L 0 183.02953 
z
" style="fill: none"/>
  </g>
  <g id="axes_1">
   <g id="PatchCollection_1">
    <path d="M 249.848301 19.458342 
L 253.026035 18.547667 
L 253.695456 17.607035 
L 253.79224 16.828168 
L 253.949513 16.591513 
L 254.24793 16.588517 
L 254.800404 17.247558 
L 256.627197 17.268528 
L 257.498251 17.511175 
L 259.373437 18.445815 
L 261.107479 19.017983 
L 261.946272 19.488299 
L 263.873882 21.123919 
L 267.091942 22.349137 
L 270.120467 24.0237 
L 270.995554 24.227404 
L 271.894837 24.227404 
L 272.55216 24.0237 
L 274.278137 23.223864 
L 275.471803 23.220868 
L 275.697632 23.388624 
L 275.854906 24.101587 
L 276.048473 24.398156 
L 276.314629 24.508994 
L 277.06067 24.562916 
L 277.778483 24.997284 
L 278.105128 24.976315 
L 277.705895 25.494561 
L 278.197879 25.380726 
L 278.637439 25.3987 
L 278.92779 25.659321 
L 278.968117 26.270432 
L 279.629473 26.102676 
L 279.835138 26.351314 
L 279.891595 27.040312 
L 283.81537 29.844233 
L 285.884123 30.724952 
L 289.489319 30.512261 
L 294.989863 31.267163 
L 295.800427 31.147337 
L 296.53437 31.629635 
L 297.147334 31.452893 
L 297.574796 31.060463 
L 299.55483 27.72931 
L 300.232317 27.285955 
L 301.760694 27.429745 
L 302.825315 27.088242 
L 303.184222 27.208068 
L 303.84961 27.627458 
L 306.180486 28.29249 
L 306.902331 28.376368 
L 307.648373 28.672937 
L 307.954855 29.370921 
L 308.100031 30.20371 
L 308.382316 30.889712 
L 308.894464 31.243198 
L 309.515493 31.351041 
L 310.999511 31.291128 
L 311.596344 31.491836 
L 313.007774 32.411498 
L 313.725587 32.675114 
L 314.475661 32.585245 
L 315.975809 32.061008 
L 316.617002 32.108938 
L 317.54048 33.385082 
L 318.080856 37.222499 
L 319.427764 38.765255 
L 319.790703 41.476311 
L 319.500352 42.50082 
L 317.923583 44.229305 
L 317.717917 45.000683 
L 316.697655 46.45357 
L 316.302455 47.233934 
L 316.141148 48.062229 
L 315.693523 51.522196 
L 315.528185 51.958062 
L 315.503989 52.594636 
L 315.624968 52.943628 
L 315.927418 53.124864 
L 316.935582 53.336057 
L 317.746146 54.113426 
L 317.923583 54.573257 
L 317.609036 55.459967 
L 317.883256 55.702614 
L 318.189738 56.589324 
L 318.318783 56.930827 
L 319.790703 57.955337 
L 319.826997 58.206971 
L 319.790703 59.147602 
L 320.399634 61.229574 
L 320.585136 62.278048 
L 320.589169 63.53472 
L 320.867422 64.437906 
L 321.851391 65.510346 
L 322.387734 65.836871 
L 323.012796 65.932731 
L 323.424127 66.19485 
L 324.194364 67.589321 
L 324.702479 68.130035 
L 324.303246 68.619822 
L 324.101613 69.206968 
L 323.879817 70.285399 
L 324.500846 70.769195 
L 324.291148 71.720312 
L 325.186398 72.208601 
L 326.44862 72.65645 
L 327.36 73.472762 
L 324.912177 75.518786 
L 325.323508 75.995093 
L 325.307378 76.35457 
L 325.117843 76.717043 
L 324.932341 77.311677 
L 324.464552 77.723578 
L 324.504879 77.975212 
L 324.984765 78.273279 
L 324.59763 80.064672 
L 324.210495 80.65032 
L 323.569302 81.156584 
L 322.218362 81.457646 
L 321.730411 81.713773 
L 321.742509 82.345854 
L 321.988501 82.606475 
L 323.113612 83.216088 
L 323.488649 84.299012 
L 323.742707 84.665978 
L 323.157971 85.317531 
L 323.210396 86.315079 
L 323.472519 87.489371 
L 323.545107 89.382617 
L 323.738674 89.966767 
L 324.069352 90.408624 
L 324.512944 90.687219 
L 323.710445 91.061674 
L 320.867422 91.443618 
L 317.774374 92.220988 
L 316.294389 91.948384 
L 315.725785 90.429594 
L 315.209605 90.868455 
L 314.4434 92.092175 
L 314.011906 92.519054 
L 313.66913 92.601434 
L 311.471332 92.25394 
L 311.051935 91.996314 
L 310.616408 91.542475 
L 310.317992 90.943346 
L 309.963118 89.810994 
L 309.471134 89.464997 
L 306.345825 88.244273 
L 304.708566 88.037574 
L 303.276973 88.687628 
L 303.043079 89.247813 
L 303.111634 90.011702 
L 302.897903 90.510476 
L 302.567225 90.83101 
L 301.01062 91.656309 
L 300.288774 92.235966 
L 300.107304 92.19852 
L 299.687908 91.7312 
L 299.401589 92.021777 
L 298.466013 93.420742 
L 299.171728 93.829647 
L 301.357428 94.717855 
L 302.43818 94.475208 
L 305.006983 95.529674 
L 306.2934 95.307997 
L 307.144291 95.700426 
L 307.82581 96.620088 
L 308.156488 97.791384 
L 307.938724 98.91475 
L 308.60008 99.289205 
L 309.140456 99.841901 
L 309.442905 100.568344 
L 309.398546 101.461045 
L 308.983182 102.200969 
L 307.845973 102.683267 
L 307.402381 103.167063 
L 307.559654 105.502166 
L 305.551391 107.083865 
L 301.357428 109.016054 
L 300.88964 108.24917 
L 300.369427 107.883702 
L 299.881476 108.018505 
L 299.486275 108.752438 
L 299.498373 111.145956 
L 299.135434 111.403581 
L 299.111238 111.746582 
L 299.22012 111.968259 
L 299.67581 112.246854 
L 300.861411 114.7587 
L 301.018685 115.711314 
L 300.760595 116.487185 
L 300.208121 116.99944 
L 298.994291 117.668966 
L 299.123336 118.679995 
L 298.52247 119.950147 
L 298.659581 120.907255 
L 298.893475 121.110959 
L 299.530635 121.115452 
L 299.792757 121.489907 
L 299.804855 121.999166 
L 299.474177 123.308262 
L 299.998423 123.658752 
L 301.317102 123.017685 
L 301.958294 123.080593 
L 302.434147 123.784569 
L 302.248645 124.463082 
L 301.357428 125.656845 
L 300.534766 126.175091 
L 300.280709 127.02136 
L 300.57106 127.786747 
L 301.817151 128.290015 
L 301.954261 128.591077 
L 301.796988 128.908615 
L 301.357428 129.194698 
L 299.611288 129.91515 
L 299.123336 130.361501 
L 300.240382 130.500798 
L 300.796889 130.689524 
L 301.357428 131.213761 
L 301.530832 131.841348 
L 300.792856 132.022584 
L 299.776627 132.034567 
L 299.127369 132.16338 
L 298.768462 132.370079 
L 298.357131 132.154393 
L 297.683678 131.639142 
L 296.856983 131.535793 
L 295.268116 131.732007 
L 293.812327 131.433941 
L 293.280016 131.507334 
L 292.909012 132.148401 
L 292.73964 133.027622 
L 292.425093 133.292737 
L 292.037958 133.37961 
L 291.642758 133.724109 
L 291.541941 134.077595 
L 291.554039 134.751614 
L 291.291916 135.174 
L 291.021728 135.38669 
L 290.207132 135.740176 
L 289.215098 136.4801 
L 288.76344 136.956407 
L 287.347978 138.924544 
L 286.847928 139.414331 
L 286.222867 139.712397 
L 283.663485 141.209528 
L 281.839369 141.746438 
L 281.460299 142.155343 
L 281.496593 142.282658 
L 281.669997 142.411471 
L 281.702258 142.821874 
L 281.37158 145.639275 
L 281.403842 146.654798 
L 281.851467 148.073234 
L 282.682194 148.615445 
L 283.121753 149.51264 
L 283.206439 150.850194 
L 283.2012 150.843458 
L 282.472496 149.906567 
L 282.045034 149.601011 
L 280.4602 149.31343 
L 277.814777 147.947417 
L 276.729992 147.728735 
L 275.645207 147.824596 
L 272.999785 148.915009 
L 271.967424 148.974922 
L 268.979226 148.521083 
L 268.350131 148.130151 
L 267.99929 150.257057 
L 267.596024 150.565608 
L 267.091942 150.712395 
L 266.503174 150.541643 
L 265.672447 150.553626 
L 264.837687 150.778299 
L 264.240854 151.244121 
L 263.836988 152.178883 
L 263.588492 153.058563 
L 263.482714 153.300629 
L 262.756836 153.884779 
L 261.587365 154.095972 
L 260.523267 153.368694 
L 259.829127 152.744938 
L 258.67982 152.303081 
L 251.529919 152.686523 
L 245.952754 152.072416 
L 243.706565 152.809344 
L 242.254808 154.930259 
L 241.504734 153.827862 
L 240.944195 153.720019 
L 239.401933 154.642848 
L 238.738331 154.734044 
L 238.18989 154.665144 
L 237.697906 154.879333 
L 237.044615 155.849921 
L 236.601023 156.8265 
L 235.601538 159.617447 
L 235.286377 160.356864 
L 235.068613 160.553078 
L 234.205625 160.95749 
L 233.205526 161.128242 
L 232.858717 160.87511 
L 232.20946 161.176172 
L 231.781998 161.845698 
L 231.326308 162.410376 
L 231.048054 163.126335 
L 230.350405 163.078405 
L 229.164804 164.186792 
L 228.769603 164.306618 
L 227.922745 164.384505 
L 227.543676 164.543274 
L 226.967006 165.395534 
L 226.277421 167.470016 
L 225.599935 167.777069 
L 225.083755 167.221377 
L 224.644195 166.228322 
L 224.111885 165.474918 
L 222.764977 165.804439 
L 222.111687 165.699591 
L 220.905922 165.127424 
L 220.563146 164.531291 
L 220.377644 164.258688 
L 219.962281 164.162827 
L 218.647634 164.459396 
L 210.289195 164.19564 
L 209.872573 164.078949 
L 207.678808 162.136275 
L 207.10617 161.841205 
L 206.469011 161.646488 
L 205.783459 161.628514 
L 204.468813 161.871161 
L 203.82762 161.790279 
L 200.258719 160.058798 
L 199.081183 159.85809 
L 196.016364 160.29096 
L 192.848712 159.597469 
L 192.239781 159.72029 
L 191.651013 159.657382 
L 186.928771 158.084669 
L 185.271349 158.021761 
L 184.972933 157.807573 
L 184.420459 157.16351 
L 184.150271 157.057164 
L 181.771003 157.235405 
L 180.065189 156.928352 
L 176.088989 157.798586 
L 174.516253 157.717703 
L 173.693591 157.379196 
L 171.213507 155.816969 
L 168.01561 155.059071 
L 158.881642 154.386549 
L 156.663681 152.905205 
L 155.349035 152.452863 
L 155.042553 152.494802 
L 154.417491 152.744938 
L 154.050519 152.75692 
L 153.691613 152.595156 
L 152.606828 151.871708 
L 150.679218 151.671 
L 148.408832 151.976556 
L 147.836195 151.919638 
L 147.19097 151.6021 
L 145.985205 150.763321 
L 143.868061 150.382874 
L 142.283226 149.720837 
L 140.932286 148.501611 
L 140.19431 146.641317 
L 139.851534 145.372663 
L 139.202277 144.945784 
L 138.391712 144.831949 
L 137.577116 144.511416 
L 136.980283 144.014139 
L 136.887531 143.62171 
L 137.000446 142.201776 
L 137.254503 141.38097 
L 137.242405 140.668007 
L 136.883499 139.400851 
L 136.266502 138.96798 
L 134.625211 138.909565 
L 134.0929 138.708857 
L 133.19765 137.601968 
L 132.762123 137.378792 
L 131.431347 137.040285 
L 132.003984 136.462126 
L 132.008017 135.931897 
L 131.483771 134.738134 
L 131.076473 132.738543 
L 130.818383 132.16338 
L 131.229714 131.147857 
L 133.592851 129.808805 
L 134.423578 128.665968 
L 134.447774 127.13819 
L 133.528328 126.817657 
L 131.015983 127.319427 
L 127.063979 129.410385 
L 124.281446 129.545188 
L 122.559501 130.150308 
L 120.902079 131.060983 
L 119.555172 132.148401 
L 117.784836 132.435983 
L 117.353341 132.717573 
L 116.587136 133.354147 
L 116.135479 133.460493 
L 115.405568 133.178902 
L 114.143346 132.226288 
L 112.744014 132.148401 
L 110.735751 131.732007 
L 109.80824 131.820379 
L 107.924989 132.432987 
L 107.570116 132.367083 
L 107.24347 132.16338 
L 106.811976 131.664605 
L 106.557919 131.513325 
L 105.872367 131.347067 
L 105.481199 131.438434 
L 105.134391 131.706544 
L 104.831941 132.16338 
L 103.505197 133.467982 
L 102.311531 133.406571 
L 101.097701 132.804447 
L 99.706435 132.495896 
L 96.972293 132.96022 
L 94.270413 133.852922 
L 93.572763 134.278303 
L 91.04832 136.833585 
L 90.725708 137.546548 
L 90.314377 139.585083 
L 89.548172 141.593661 
L 89.523976 142.486362 
L 89.354604 142.673589 
L 88.761804 143.028573 
L 87.886717 144.55635 
L 87.342308 145.141998 
L 86.785802 145.221383 
L 86.124446 144.995212 
L 84.765441 144.85891 
L 84.09602 144.954771 
L 82.406336 145.434074 
L 82.007103 145.26482 
L 80.990874 144.496438 
L 80.591641 144.490446 
L 79.849632 144.706133 
L 79.466529 144.691154 
L 77.893793 143.886824 
L 77.071131 144.151939 
L 76.651735 144.136961 
L 76.417841 143.629199 
L 76.59931 143.343115 
L 77.466332 142.625659 
L 77.655866 142.224243 
L 77.276797 141.638595 
L 74.292631 139.817245 
L 73.691765 139.65548 
L 73.00218 139.733367 
L 69.034046 140.846248 
L 67.41695 140.663514 
L 66.150696 139.616537 
L 66.057945 138.379337 
L 66.541864 136.409702 
L 66.332166 135.431625 
L 65.985357 135.009239 
L 64.658613 133.9368 
L 63.844016 132.603739 
L 63.231053 132.018091 
L 62.799558 132.018091 
L 61.666382 132.67863 
L 60.682413 133.825961 
L 60.000894 135.156026 
L 59.980731 136.238951 
L 59.008861 136.285383 
L 58.250721 136.083177 
L 57.617594 136.203003 
L 57.024794 137.220023 
L 56.702181 138.8856 
L 56.302948 139.477239 
L 54.601167 140.359456 
L 53.328351 140.64121 
L 52.786471 140.620077 
L 51.100821 140.068879 
L 50.221701 139.550633 
L 48.713488 138.090257 
L 44.539688 136.719751 
L 43.57185 135.964849 
L 43.075833 135.248891 
L 43.011311 134.705182 
L 43.136323 134.08059 
L 43.233107 132.720569 
L 43.394413 131.824872 
L 43.245205 131.645134 
L 43.003245 131.664605 
L 42.837906 131.520814 
L 42.902429 130.860275 
L 34.877442 128.399355 
L 32.832885 128.656981 
L 32.102974 128.460766 
L 33.179693 127.075282 
L 33.449881 125.568474 
L 33.054681 124.090125 
L 32.12717 122.778033 
L 30.965764 122.083044 
L 30.961732 121.579777 
L 31.348867 120.708045 
L 31.389193 120.294646 
L 31.054483 119.490316 
L 30.683478 118.985551 
L 30.510074 118.476291 
L 30.772197 117.668966 
L 30.114874 117.053362 
L 29.76 116.523133 
L 31.014156 114.375258 
L 32.344933 112.754615 
L 32.494141 112.356195 
L 32.877244 110.814937 
L 34.38949 108.887242 
L 34.76856 108.006523 
L 34.800821 105.550096 
L 33.683775 104.558539 
L 32.232019 103.890511 
L 31.078679 102.141056 
L 30.78723 100.770226 
L 30.881079 100.828965 
L 33.328901 101.504482 
L 35.829149 101.461045 
L 36.89377 100.951786 
L 37.458342 100.065076 
L 37.942261 99.01061 
L 38.793152 98.016057 
L 39.357724 97.713497 
L 39.942459 97.647593 
L 40.494933 97.848301 
L 40.950623 98.348573 
L 41.079668 99.034575 
L 41.003048 99.740049 
L 41.152256 100.352658 
L 41.946689 100.766056 
L 42.261237 100.742091 
L 42.938723 100.376623 
L 44.112226 100.813987 
L 45.273631 100.906851 
L 45.862399 100.790021 
L 46.33422 100.409575 
L 46.443102 101.36818 
L 47.693225 103.182041 
L 47.765813 103.872537 
L 48.193275 104.130162 
L 48.536051 103.98038 
L 48.882859 103.674825 
L 49.326451 103.471121 
L 51.588772 106.982013 
L 51.407302 107.591626 
L 50.520118 108.288113 
L 50.94758 108.791381 
L 51.298421 110.570792 
L 51.67749 110.942252 
L 51.939613 110.930269 
L 52.750177 110.459954 
L 52.943745 110.485417 
L 53.548643 110.734055 
L 53.713982 110.605242 
L 54.177738 110.088494 
L 55.891617 109.773952 
L 56.60943 110.164883 
L 56.581201 111.208864 
L 55.875486 113.353744 
L 55.984368 114.081685 
L 55.887584 114.468123 
L 55.698049 114.656848 
L 55.024596 114.921962 
L 54.508416 115.938983 
L 54.68182 116.040835 
L 57.782933 115.657392 
L 58.633824 115.323378 
L 60.379964 114.240454 
L 61.142136 113.536478 
L 61.843819 112.583864 
L 62.944734 110.459954 
L 63.348 110.185852 
L 64.505372 109.669104 
L 65.15463 108.79887 
L 65.723235 107.626076 
L 66.078108 106.322972 
L 66.070043 105.079781 
L 65.699039 103.851567 
L 65.364328 103.477112 
L 64.815887 103.17605 
L 65.259479 100.328693 
L 64.606189 98.540294 
L 65.190924 98.308132 
L 66.279741 98.179319 
L 66.453145 98.720033 
L 66.404754 98.947702 
L 66.070043 99.59476 
L 66.138598 100.092037 
L 66.344264 100.358649 
L 66.662844 100.586318 
L 67.271775 100.867908 
L 68.933229 101.122538 
L 69.392952 101.041655 
L 69.888969 100.640239 
L 70.67937 99.530354 
L 71.219746 99.151405 
L 72.163388 99.163388 
L 77.313091 101.122538 
L 77.599409 101.604836 
L 77.792977 101.880435 
L 78.127687 101.982287 
L 79.281027 101.841492 
L 81.406237 100.957777 
L 81.946613 100.995223 
L 82.361977 101.231879 
L 83.257227 101.910391 
L 82.930582 102.308812 
L 81.672393 103.173055 
L 81.938548 103.632886 
L 83.946811 104.570522 
L 86.011532 106.949061 
L 85.934911 107.739911 
L 85.717148 108.012514 
L 86.116381 108.797372 
L 86.660789 109.117906 
L 90.72974 109.177819 
L 91.491912 108.942661 
L 94.040552 107.16325 
L 95.02452 106.892144 
L 95.85928 107.236643 
L 95.774594 108.812351 
L 96.71017 108.920194 
L 97.561061 108.527765 
L 99.387855 106.517689 
L 100.113733 106.284029 
L 101.807449 106.243588 
L 102.440576 105.969486 
L 102.775286 105.394323 
L 102.626078 104.962951 
L 102.202649 104.682858 
L 101.722763 104.55105 
L 103.561655 102.419651 
L 104.448839 102.209956 
L 105.408611 102.341764 
L 106.291763 102.623354 
L 108.12259 102.317799 
L 108.969447 101.979291 
L 109.679195 101.185446 
L 109.876795 100.649226 
L 110.183277 99.307179 
L 110.449433 98.693072 
L 111.671328 97.575698 
L 112.393173 97.599663 
L 114.094954 97.941166 
L 117.272688 97.954646 
L 119.470486 98.408486 
L 119.873752 98.273682 
L 120.26492 97.288116 
L 120.704479 97.024499 
L 123.978997 96.353476 
L 133.254108 96.681498 
L 134.367121 95.246586 
L 134.508264 94.876624 
L 134.54859 94.334413 
L 134.375186 92.46663 
L 133.859006 92.015786 
L 133.447675 91.314806 
L 133.371055 90.841494 
L 133.988051 90.58986 
L 135.266403 89.592312 
L 135.931792 89.322704 
L 135.810812 89.587818 
L 135.572885 90.664752 
L 135.322861 91.012246 
L 135.193816 91.416658 
L 135.407546 92.056227 
L 135.794681 92.402224 
L 136.21811 92.337818 
L 137.089164 91.880982 
L 137.940055 91.758161 
L 140.19431 92.240459 
L 140.855666 92.132616 
L 142.388075 91.542475 
L 143.029268 91.668292 
L 143.210738 92.002306 
L 143.831767 93.712817 
L 144.146314 94.091766 
L 145.307719 95.029402 
L 145.85616 95.300507 
L 146.658659 95.321477 
L 147.481321 95.159712 
L 148.090252 94.888607 
L 149.828327 93.330873 
L 150.570336 92.956418 
L 151.961603 92.620906 
L 153.35287 92.620906 
L 155.542602 93.187082 
L 156.212023 93.100208 
L 155.808758 94.112735 
L 156.421722 94.867637 
L 157.433918 95.538661 
L 158.208189 96.290567 
L 157.143567 96.820796 
L 156.667714 98.164341 
L 156.873379 99.59476 
L 157.837184 100.376623 
L 158.805022 100.613278 
L 159.1357 100.879891 
L 160.918134 102.855516 
L 162.829613 104.308403 
L 163.257075 104.483648 
L 164.317664 104.17959 
L 164.910464 104.612461 
L 165.152424 104.762243 
L 165.57182 104.742771 
L 165.842008 104.506115 
L 166.955021 103.17605 
L 166.842107 102.341764 
L 166.628376 101.727657 
L 166.596115 100.358649 
L 166.692899 100.207369 
L 167.108263 99.184357 
L 167.023577 99.217309 
L 166.991315 97.902222 
L 167.096165 97.941166 
L 167.749455 96.951106 
L 168.309994 95.676461 
L 168.418876 94.271504 
L 168.309994 93.528585 
L 167.99948 92.68681 
L 167.237307 91.377714 
L 166.757421 90.795062 
L 166.273503 90.429594 
L 165.668604 90.332235 
L 164.680603 90.768101 
L 164.095868 90.868455 
L 161.922266 90.462546 
L 161.285106 89.813989 
L 162.269074 88.271234 
L 162.640079 86.69253 
L 165.156457 82.651409 
L 164.974987 82.468675 
L 164.132162 81.210505 
L 162.80945 78.142968 
L 161.051212 76.51933 
L 160.115635 75.959145 
L 159.801088 75.499314 
L 159.577576 74.80919 
L 159.474443 74.185725 
L 158.889708 72.891608 
L 156.143468 70.027774 
L 155.433721 68.757622 
L 155.23612 67.993733 
L 155.312741 67.211871 
L 155.550668 66.795476 
L 156.292677 66.61424 
L 157.006457 65.555281 
L 158.55903 64.473854 
L 159.067145 63.892699 
L 160.135799 62.388887 
L 160.724567 62.075842 
L 162.886071 61.65795 
L 162.833646 61.520151 
L 163.438545 61.034857 
L 164.696734 60.33837 
L 166.14849 58.954384 
L 166.777585 58.509531 
L 170.82234 56.915849 
L 176.197871 55.985702 
L 177.508485 55.259259 
L 181.323378 51.958062 
L 181.867787 51.054876 
L 182.166203 49.525601 
L 182.517045 48.827616 
L 182.597698 48.223994 
L 182.597698 46.04766 
L 182.7832 45.515934 
L 183.307445 44.418031 
L 183.416327 43.853352 
L 183.331641 43.344093 
L 182.968702 42.785406 
L 182.670286 41.269611 
L 182.884016 40.866697 
L 183.234858 40.546164 
L 184.509177 40.07435 
L 185.815758 39.900603 
L 189.860513 41.014982 
L 190.542032 41.377454 
L 191.175159 41.841779 
L 191.771992 42.746463 
L 193.455627 43.546299 
L 193.802435 41.99905 
L 194.133113 41.338511 
L 194.266191 41.368467 
L 195.387269 41.107847 
L 195.895384 40.517705 
L 196.806764 38.327891 
L 196.927744 37.492107 
L 196.955973 36.518523 
L 196.750307 34.646247 
L 196.851124 33.954254 
L 197.371336 33.465964 
L 196.689817 33.058557 
L 196.274454 32.252729 
L 196.072821 32.324624 
L 196.161539 31.773426 
L 197.326977 29.358939 
L 198.895681 29.772337 
L 199.63769 30.170758 
L 201.202361 31.413949 
L 203.82762 32.833883 
L 204.170396 33.199352 
L 205.267279 34.837968 
L 205.771361 35.107576 
L 205.872177 35.461061 
L 205.799589 35.823534 
L 205.315671 35.925386 
L 205.053548 36.467597 
L 204.831752 36.54848 
L 204.759164 36.716235 
L 205.110005 37.824623 
L 206.110104 38.939002 
L 207.436848 39.487204 
L 212.965621 40.098315 
L 216.836971 41.446354 
L 217.51849 41.284589 
L 218.304859 40.662994 
L 220.333285 39.801747 
L 220.950282 39.177155 
L 221.825368 36.889983 
L 222.393973 36.503545 
L 223.329549 37.587967 
L 224.886155 38.390799 
L 225.345878 38.501638 
L 225.930613 38.372825 
L 227.100083 37.818632 
L 227.700949 37.770701 
L 227.950974 37.987885 
L 228.128411 38.98843 
L 228.43086 39.021382 
L 229.027693 38.81618 
L 229.281751 38.8716 
L 229.701147 39.418305 
L 229.931008 39.963511 
L 230.23749 40.34246 
L 230.878683 40.384399 
L 231.661018 39.613021 
L 231.858618 38.106213 
L 231.838455 36.334291 
L 231.979598 34.769068 
L 232.717574 33.591781 
L 234.770197 31.818361 
L 234.967797 30.709973 
L 235.358965 30.029963 
L 235.7461 28.774789 
L 236.334868 28.553111 
L 238.371359 28.82871 
L 240.387688 29.640529 
L 241.178089 29.568634 
L 241.625714 28.553111 
L 241.367624 28.073808 
L 241.121631 27.250007 
L 241.186154 26.845595 
L 241.46844 26.114659 
L 242.295135 22.48394 
L 242.299167 20.881272 
L 242.137861 19.107852 
L 242.153992 17.457253 
L 242.686302 16.235031 
L 242.650008 15.650881 
L 242.835511 15.360304 
L 243.690434 15.252461 
L 245.860003 15.980402 
L 248.896594 16.223049 
L 249.348252 17.828713 
L 249.332121 18.616567 
L 249.074031 19.443364 
L 249.848301 19.458342 
L 249.848301 19.458342 
" clip-path="url(#pa021659259)" style="fill: none; stroke: #000000; stroke-width: 2"/>
   </g>
  </g>
 </g>
 <defs>
  <clipPath id="pa021659259">
   <rect x="0" y="-0" width="357.12" height="183.02953"/>
  </clipPath>
 </defs>
</svg>
