<?xml version="1.0" encoding="utf-8" standalone="no"?>
<!DOCTYPE svg PUBLIC "-//W3C//DTD SVG 1.1//EN"
  "http://www.w3.org/Graphics/SVG/1.1/DTD/svg11.dtd">
<svg xmlns:xlink="http://www.w3.org/1999/xlink" width="340.302487pt" height="266.112pt" viewBox="0 0 340.302487 266.112" xmlns="http://www.w3.org/2000/svg" version="1.1">
 <metadata>
  <rdf:RDF xmlns:dc="http://purl.org/dc/elements/1.1/" xmlns:cc="http://creativecommons.org/ns#" xmlns:rdf="http://www.w3.org/1999/02/22-rdf-syntax-ns#">
   <cc:Work>
    <dc:type rdf:resource="http://purl.org/dc/dcmitype/StillImage"/>
    <dc:date>2024-02-02T21:57:59.648255</dc:date>
    <dc:format>image/svg+xml</dc:format>
    <dc:creator>
     <cc:Agent>
      <dc:title>Matplotlib v3.8.2, https://matplotlib.org/</dc:title>
     </cc:Agent>
    </dc:creator>
   </cc:Work>
  </rdf:RDF>
 </metadata>
 <defs>
  <style type="text/css">*{stroke-linejoin: round; stroke-linecap: butt}</style>
 </defs>
 <g id="figure_1">
  <g id="patch_1">
   <path d="M 0 266.112 
L 340.302487 266.112 
L 340.302487 0 
L 0 0 
L 0 266.112 
z
" style="fill: none"/>
  </g>
  <g id="axes_1">
   <g id="PatchCollection_1">
    <path d="M 42.919787 157.891196 
L 46.130946 162.038802 
L 46.629355 163.09704 
L 46.839739 164.269949 
L 46.759592 165.750828 
L 46.283725 168.034396 
L 46.474072 168.958307 
L 47.423303 169.574248 
L 49.209059 169.145055 
L 50.58657 167.850924 
L 51.883936 167.408626 
L 53.391685 169.55459 
L 53.965231 170.871655 
L 54.453621 171.585885 
L 55.159909 171.874197 
L 57.454092 172.090432 
L 58.300636 172.539282 
L 59.83844 174.128279 
L 60.35939 174.436249 
L 60.905385 174.521433 
L 61.45639 174.410039 
L 62.513317 173.908768 
L 66.410423 171.39586 
L 67.707789 170.851998 
L 73.921619 169.325251 
L 75.046169 169.305593 
L 76.383608 169.826522 
L 77.480608 170.625934 
L 77.916403 171.425347 
L 77.926421 172.499967 
L 77.768633 174.11845 
L 78.206932 177.014682 
L 77.99154 178.013948 
L 76.361067 180.736538 
L 76.053005 182.004459 
L 76.458745 182.961133 
L 79.208759 183.678638 
L 80.205577 184.504261 
L 81.127257 185.519908 
L 82.284367 186.430714 
L 85.755696 188.157314 
L 86.745 189.117265 
L 87.06308 189.615259 
L 87.173281 190.093597 
L 87.073099 190.550638 
L 85.575368 192.544255 
L 85.279829 194.157823 
L 85.720633 195.823812 
L 86.745 197.540583 
L 88.004797 199.378577 
L 88.986588 201.386938 
L 91.511191 208.568546 
L 94.336342 214.07106 
L 93.860474 214.136585 
L 91.045341 213.410889 
L 87.839496 211.93001 
L 77.625873 209.734902 
L 74.029315 208.296614 
L 69.711442 208.250746 
L 66.951409 207.561089 
L 65.24172 207.429816 
L 65.012875 207.377617 
L 64.016057 206.782972 
L 62.673609 206.419305 
L 61.5716 205.865614 
L 60.542223 205.161213 
L 59.983705 204.486299 
L 59.896045 203.804833 
L 60.344362 202.083147 
L 60.111438 201.658869 
L 58.954328 201.126473 
L 58.495992 200.780825 
L 58.250545 200.246792 
L 57.669485 198.382588 
L 57.213654 197.887869 
L 56.342065 197.294862 
L 56.018976 196.652711 
L 56.437238 195.717333 
L 56.161736 195.037505 
L 55.515558 194.624693 
L 54.839325 194.487089 
L 54.363457 194.252835 
L 54.373475 193.710611 
L 54.498704 193.114328 
L 54.363457 192.71626 
L 53.907626 192.662201 
L 53.13121 193.071736 
L 53.005982 193.189682 
L 47.956775 191.492569 
L 46.68696 191.892275 
L 46.373889 190.932325 
L 45.867967 187.77399 
L 43.548738 183.193749 
L 43.10042 182.938199 
L 42.216308 181.680107 
L 42.056016 181.22798 
L 41.790532 180.903628 
L 39.872034 179.468617 
L 39.594027 178.931307 
L 39.215837 178.826466 
L 38.436917 178.790427 
L 37.202166 177.882897 
L 37.021837 177.43077 
L 37.425072 176.660844 
L 36.410723 175.753314 
L 35.814636 174.475565 
L 34.361987 168.381682 
L 33.780928 167.012196 
L 32.759064 166.275033 
L 33.094676 165.799972 
L 31.977639 165.767209 
L 30.752511 165.453553 
L 29.930511 164.860023 
L 29.385413 164.070096 
L 28.831904 161.668582 
L 28.358541 160.872446 
L 29.733548 160.263057 
L 31.982649 159.850246 
L 34.101512 159.883009 
L 35.754526 159.483302 
L 37.302348 158.608535 
L 39.090609 157.216116 
L 40.908924 156.58707 
L 42.556929 157.422522 
L 42.919787 157.891196 
L 42.919787 157.891196 
" clip-path="url(#pfd57079511)" style="fill: none; stroke: #000000; stroke-width: 2"/>
    <path d="M 311.032836 120.611052 
L 311.727015 121.3566 
L 311.943946 122.352383 
L 311.612633 123.010219 
L 310.701523 122.775462 
L 310.094117 122.971523 
L 309.376272 122.373021 
L 308.902968 121.433992 
L 309.013406 120.611052 
L 309.644478 121.106364 
L 310.109893 120.959318 
L 310.535867 120.63427 
L 311.032836 120.611052 
" clip-path="url(#pfd57079511)" style="fill: none; stroke: #000000; stroke-width: 2"/>
    <path d="M 297.43718 111.478741 
L 298.02881 111.79605 
L 298.758487 111.556134 
L 299.0898 111.950835 
L 299.200237 113.274247 
L 299.673541 113.970779 
L 300.277004 114.515106 
L 300.773973 115.376742 
L 300.821303 116.130029 
L 300.44266 116.563426 
L 299.720872 116.72853 
L 298.758487 116.676935 
L 298.999083 115.134245 
L 297.417459 112.987894 
L 297.43718 111.478741 
" clip-path="url(#pfd57079511)" style="fill: none; stroke: #000000; stroke-width: 2"/>
    <path d="M 49.970447 79.958131 
L 49.459515 80.659256 
L 48.337469 80.47906 
L 47.87162 79.021115 
L 48.021894 78.857301 
L 48.192205 78.762289 
L 48.382552 78.732802 
L 48.582917 78.768841 
L 49.970447 79.958131 
" clip-path="url(#pfd57079511)" style="fill: none; stroke: #000000; stroke-width: 2"/>
    <path d="M 40.738614 75.69569 
L 40.047354 77.156911 
L 38.289148 76.560628 
L 37.683043 75.787426 
L 37.37999 74.830752 
L 37.537778 73.952708 
L 38.289148 73.428503 
L 40.200132 73.88063 
L 40.738614 75.69569 
" clip-path="url(#pfd57079511)" style="fill: none; stroke: #000000; stroke-width: 2"/>
    <path d="M 108.634914 22.176 
L 109.674309 22.446293 
L 110.981693 22.393873 
L 113.220775 22.692014 
L 114.094869 23.199838 
L 114.365362 24.398957 
L 114.132438 26.974114 
L 114.400426 28.05201 
L 115.259493 28.754772 
L 116.181173 28.74822 
L 117.022708 28.215824 
L 118.600585 26.86272 
L 119.597402 26.515434 
L 121.555973 26.120642 
L 122.432572 25.470301 
L 123.24906 24.65123 
L 123.6548 24.661059 
L 123.860175 25.36546 
L 124.556444 28.715457 
L 125.027303 29.449344 
L 128.210607 32.332471 
L 129.039619 32.833742 
L 129.650733 33.002471 
L 130.913035 33.166285 
L 131.479067 33.441493 
L 131.704478 33.810074 
L 132.145281 35.458044 
L 132.801478 36.327896 
L 135.210871 38.339533 
L 136.408054 40.246328 
L 136.828821 42.143295 
L 137.587281 43.311433 
L 139.568817 43.044272 
L 140.495507 42.683882 
L 141.427206 42.497134 
L 142.303804 42.726473 
L 143.070202 43.607793 
L 143.42585 44.705347 
L 143.596161 45.779967 
L 143.939286 46.707155 
L 145.284239 47.840748 
L 145.935426 49.665636 
L 147.435661 51.523288 
L 147.803833 52.273556 
L 147.984162 53.823237 
L 147.893997 57.14211 
L 148.374874 58.593503 
L 149.226427 59.43223 
L 152.913149 61.624062 
L 154.420898 62.18103 
L 159.44005 62.656091 
L 160.496977 63.013206 
L 161.86447 64.900344 
L 162.743573 65.591639 
L 163.735382 65.601468 
L 165.45101 64.474427 
L 166.387718 64.107484 
L 167.35949 64.222153 
L 171.334237 66.220685 
L 172.263431 66.413985 
L 176.383444 66.050318 
L 178.437188 65.431101 
L 179.576766 64.726701 
L 179.782141 64.107484 
L 179.536693 63.294966 
L 179.316291 61.991006 
L 179.456547 60.670665 
L 179.907369 60.054724 
L 180.553547 59.596044 
L 181.264844 58.750764 
L 181.675593 57.597513 
L 181.906013 56.6048 
L 182.416945 56.074042 
L 183.674238 56.287001 
L 184.763724 55.674336 
L 186.359133 51.136687 
L 187.278309 49.383876 
L 188.878727 48.410821 
L 194.466416 47.342753 
L 195.896523 46.582656 
L 198.433649 44.423587 
L 202.623789 41.84843 
L 203.733313 40.660778 
L 204.712598 38.839166 
L 206.756325 33.336652 
L 210.402974 28.710543 
L 212.743505 25.039202 
L 213.24824 25.477653 
L 214.739147 26.362506 
L 216.45093 27.87166 
L 220.726442 33.683834 
L 222.383006 35.327134 
L 223.061409 36.315178 
L 223.341447 37.855288 
L 226.65063 41.515951 
L 228.50046 45.447489 
L 229.482566 45.800914 
L 230.299015 46.636753 
L 232.882466 50.707597 
L 234.487755 51.29062 
L 235.209543 52.358636 
L 238.42801 58.99117 
L 239.130078 60.010171 
L 239.737484 61.196856 
L 240.029355 62.579601 
L 240.628874 68.077046 
L 240.936521 69.240513 
L 241.468988 69.730665 
L 241.800301 70.460734 
L 242.624639 74.998512 
L 244.93594 78.806222 
L 250.74969 85.335566 
L 251.230882 86.060475 
L 251.664744 87.084636 
L 252.690236 87.96691 
L 254.898988 89.326438 
L 255.979698 89.042665 
L 256.894753 89.842387 
L 257.762477 90.915563 
L 258.73275 91.449571 
L 259.265217 92.066131 
L 259.048286 93.454036 
L 258.204227 95.817086 
L 257.845305 97.710621 
L 257.904468 98.414893 
L 258.105622 98.817334 
L 258.92996 100.004018 
L 259.269161 100.566403 
L 260.128996 101.379024 
L 261.075604 102.091035 
L 261.726397 102.392866 
L 263.8326 102.519273 
L 264.779208 102.772089 
L 265.548327 103.215806 
L 267.275886 104.745597 
L 268.230382 105.209951 
L 270.660009 105.535 
L 272.734658 106.185097 
L 273.878476 106.285707 
L 274.765921 106.105124 
L 277.459809 104.985513 
L 278.619404 104.784293 
L 284.137339 104.985513 
L 284.543592 105.387954 
L 285.131277 106.719105 
L 285.995057 107.779381 
L 286.918 108.61264 
L 287.900106 109.159547 
L 292.282111 110.098576 
L 293.130114 110.573249 
L 293.662581 111.522597 
L 294.254211 112.987894 
L 294.987832 114.350002 
L 295.946273 114.943344 
L 296.999374 115.325147 
L 297.898652 116.292553 
L 298.608607 117.564369 
L 299.0898 118.877461 
L 299.586769 124.111772 
L 299.922026 124.632881 
L 300.324334 125.819565 
L 300.572819 127.130078 
L 300.415051 128.009772 
L 299.48422 126.198788 
L 298.478449 124.632881 
L 297.275468 123.226918 
L 294.881339 121.276628 
L 293.859791 120.706503 
L 292.763304 120.298903 
L 290.597938 119.999652 
L 288.775718 119.40115 
L 287.805445 119.272163 
L 287.261145 119.334077 
L 286.152825 119.744257 
L 284.291163 119.744257 
L 283.439216 120.108001 
L 281.798429 121.475268 
L 280.828156 121.475268 
L 280.481066 121.168278 
L 279.475295 119.744257 
L 278.966494 119.540457 
L 277.720126 119.323758 
L 276.450094 118.632385 
L 275.487709 119.168973 
L 273.878476 120.611052 
L 274.209789 122.112466 
L 272.845096 123.51327 
L 270.872996 124.54259 
L 267.654529 125.270079 
L 264.830482 126.913379 
L 261.122935 128.288385 
L 260.255211 128.925583 
L 258.393548 130.984223 
L 257.557378 131.572405 
L 257.020967 132.266358 
L 256.918418 133.636204 
L 257.218177 136.035371 
L 254.603173 137.056952 
L 254.118036 138.037256 
L 254.236362 139.316812 
L 254.898988 140.601527 
L 255.33285 141.0762 
L 256.023085 141.617948 
L 256.401728 142.095201 
L 256.602882 142.747878 
L 256.330732 143.150318 
L 255.845596 143.465048 
L 254.993648 144.25961 
L 254.252139 144.713646 
L 253.905049 145.361163 
L 253.684174 146.119609 
L 253.656565 146.689734 
L 253.905049 147.96155 
L 254.461182 149.321078 
L 254.626838 150.058886 
L 254.402019 150.794114 
L 253.337085 151.936943 
L 253.242424 152.543184 
L 253.490908 153.231977 
L 253.621067 153.6112 
L 253.573737 154.060076 
L 253.368638 154.338689 
L 252.579798 154.924292 
L 252.283983 155.822045 
L 252.303704 156.219326 
L 252.579798 156.657884 
L 252.358923 157.488563 
L 252.635017 158.355358 
L 253.739393 159.903208 
L 253.68023 160.444955 
L 253.01366 160.963485 
L 251.759405 161.675495 
L 249.495434 164.446145 
L 248.564603 166.032691 
L 248.611934 167.123925 
L 248.047913 168.176462 
L 247.550944 169.572107 
L 247.168356 171.042563 
L 246.959314 172.322119 
L 247.0027 174.035072 
L 247.483892 175.206278 
L 251.996057 179.385471 
L 252.579798 180.110381 
L 252.970274 180.930741 
L 252.926888 181.209354 
L 252.709957 181.433792 
L 252.406254 183.546606 
L 252.473305 184.181224 
L 252.879557 184.908714 
L 252.283983 184.591405 
L 251.838289 184.194123 
L 251.230882 183.177702 
L 250.931123 183.177702 
L 251.112556 184.116731 
L 251.522753 185.15379 
L 252.118327 186.061861 
L 252.879557 186.603609 
L 252.879557 187.075703 
L 251.787014 186.809989 
L 251.100723 186.038644 
L 250.485428 185.133152 
L 248.000583 183.461475 
L 246.387405 184.090933 
L 245.137094 185.731654 
L 244.640125 187.743858 
L 244.675622 194.683382 
L 244.281202 196.638832 
L 243.366148 199.675196 
L 243.224157 201.916998 
L 243.003282 203.266207 
L 242.545755 204.393557 
L 238.909203 206.993944 
L 236.992322 207.75497 
L 235.64735 206.632779 
L 235.801173 205.889811 
L 235.856392 204.953363 
L 236.309975 204.470949 
L 238.487173 204.037552 
L 239.232627 203.64543 
L 239.871587 202.675444 
L 240.266007 201.408788 
L 240.309393 200.139551 
L 239.76115 198.945127 
L 238.790877 198.436917 
L 236.475631 198.367264 
L 236.475631 197.802299 
L 236.006272 194.474423 
L 235.146436 193.739194 
L 234.227438 193.496698 
L 232.156733 193.568931 
L 231.58088 193.775311 
L 231.296897 194.280941 
L 231.107576 194.925879 
L 230.665825 196.161578 
L 230.681602 196.850371 
L 230.579053 197.345683 
L 230.346345 197.47983 
L 229.991367 197.541744 
L 229.900651 200.503296 
L 230.066307 202.061464 
L 230.855147 203.423571 
L 230.657937 204.971421 
L 229.186751 209.934858 
L 228.121817 212.357242 
L 226.749235 214.062456 
L 224.998011 213.598101 
L 225.140002 216.887281 
L 225.356933 217.885644 
L 226.516527 220.857514 
L 227.056891 241.3101 
L 223.927634 240.640061 
L 222.377307 240.628594 
L 221.29283 241.236344 
L 220.336085 242.229058 
L 219.108848 243.018641 
L 217.796455 243.595267 
L 216.629327 243.936 
L 214.144796 243.72468 
L 212.596974 242.178275 
L 211.274563 239.902898 
L 207.903416 235.560187 
L 207.106964 234.2808 
L 206.330548 233.553465 
L 205.704407 232.693441 
L 205.36629 231.014347 
L 204.810276 229.641586 
L 203.670698 229.641586 
L 201.213718 230.816132 
L 199.723501 230.780093 
L 198.846903 229.929898 
L 198.085515 228.775009 
L 195.736231 226.846918 
L 195.646067 225.775574 
L 195.846432 224.53714 
L 195.490783 223.089023 
L 194.879669 222.56318 
L 188.462969 219.318024 
L 185.312224 216.742867 
L 184.350471 214.93436 
L 184.23526 212.32644 
L 184.686083 211.605658 
L 187.225713 210.00028 
L 187.365969 209.590745 
L 187.355951 209.112408 
L 187.521252 208.702873 
L 196.470069 207.086028 
L 198.478731 205.809917 
L 198.917031 205.138279 
L 199.30081 204.291958 
L 199.528145 203.434613 
L 199.553191 202.551655 
L 199.29522 201.750605 
L 197.832553 198.562783 
L 197.103724 197.835449 
L 194.333674 196.665816 
L 191.573641 193.941589 
L 190.391486 192.239561 
L 189.740298 190.540809 
L 189.830463 188.36372 
L 190.722088 186.561766 
L 192.124646 185.202109 
L 193.757623 184.343723 
L 196.793158 183.724506 
L 199.342807 181.978248 
L 201.111031 181.404899 
L 200.034067 179.108226 
L 198.671583 177.214536 
L 195.350528 174.108621 
L 187.205677 164.214252 
L 184.23526 161.413032 
L 183.298553 160.761052 
L 182.612301 160.584133 
L 182.051278 161.43269 
L 181.545356 161.904474 
L 180.949269 162.055183 
L 177.262547 161.983105 
L 176.110446 162.297628 
L 175.173738 162.95616 
L 172.338568 165.881879 
L 165.636348 169.698747 
L 163.071672 172.336153 
L 162.44553 172.768622 
L 161.358548 172.893121 
L 157.967365 174.066029 
L 155.938666 175.199623 
L 154.355779 176.546174 
L 151.94082 179.697189 
L 150.338454 181.362307 
L 148.319773 182.525387 
L 143.490969 184.435459 
L 141.17174 185.877023 
L 140.700882 186.420885 
L 140.53558 187.053208 
L 138.782383 189.900296 
L 137.715438 192.775233 
L 137.209515 193.386259 
L 133.97612 195.24391 
L 133.387547 195.355304 
L 132.661222 195.155451 
L 131.308756 194.541148 
L 130.547368 194.562444 
L 129.730879 194.945769 
L 128.994537 195.571539 
L 128.335836 196.348017 
L 126.815564 198.937917 
L 126.42986 199.255717 
L 125.252714 200.017452 
L 124.664141 200.954468 
L 123.850157 202.877645 
L 123.053704 203.6574 
L 120.24358 205.118622 
L 119.359468 205.877081 
L 118.71329 206.730552 
L 117.348301 209.613679 
L 116.792287 210.521209 
L 116.121064 211.281306 
L 115.369694 211.913629 
L 114.588269 212.4149 
L 113.538855 212.847369 
L 112.664761 212.899789 
L 110.981693 209.272946 
L 110.776318 208.532507 
L 110.728731 207.760942 
L 110.981693 206.206347 
L 111.086884 205.82466 
L 111.723044 203.811385 
L 111.8633 202.035641 
L 111.592807 200.236963 
L 110.981693 198.153248 
L 109.809555 197.19166 
L 108.196614 196.259558 
L 106.956854 195.004742 
L 106.909267 193.055355 
L 108.026304 191.99384 
L 109.7244 192.216627 
L 112.669771 193.736821 
L 113.265857 193.648362 
L 115.512454 192.02005 
L 116.531812 191.980734 
L 116.957589 191.767776 
L 116.727169 191.160026 
L 116.08099 190.481836 
L 114.012218 189.005871 
L 112.840081 187.751056 
L 112.369223 186.817316 
L 112.113757 185.808221 
L 111.755604 184.887586 
L 110.981693 184.238882 
L 107.495336 182.659715 
L 105.90744 181.411452 
L 105.241226 179.419473 
L 105.877386 177.787885 
L 107.41519 176.824658 
L 110.981693 176.146468 
L 111.567761 175.858155 
L 111.898364 175.392923 
L 111.915896 174.799916 
L 111.582789 174.131555 
L 111.597816 173.083145 
L 112.163848 172.55894 
L 112.870136 172.116642 
L 113.305931 171.310677 
L 113.160666 170.265543 
L 112.567083 169.446473 
L 111.763117 168.915716 
L 110.981693 168.742073 
L 107.921112 169.036938 
L 106.964368 168.869848 
L 106.238043 168.33909 
L 105.095961 166.776304 
L 104.40971 166.209507 
L 102.751686 166.088285 
L 99.440649 167.80178 
L 97.75758 168.155618 
L 96.680617 167.818161 
L 95.96932 167.130142 
L 94.832246 164.951415 
L 94.133472 164.083201 
L 93.299451 163.60814 
L 91.461099 163.07083 
L 89.938323 161.838948 
L 88.069916 158.012252 
L 86.745 156.708292 
L 83.686924 155.777828 
L 81.057129 154.421448 
L 78.873147 152.22634 
L 76.333516 146.971185 
L 75.284103 145.801553 
L 73.959187 145.14302 
L 68.904971 144.618815 
L 67.367167 143.920967 
L 67.214389 142.417154 
L 70.282483 140.418623 
L 78.247005 141.745517 
L 81.63318 141.411336 
L 82.284367 140.860921 
L 82.61497 140.186007 
L 83.36634 136.788503 
L 84.440799 135.844934 
L 85.364984 134.599947 
L 85.956062 133.04699 
L 86.867724 128.594524 
L 86.745 127.854085 
L 85.500231 126.206115 
L 84.803961 125.527925 
L 84.097673 125.154429 
L 83.035737 125.219955 
L 82.018883 125.518096 
L 81.047111 125.465676 
L 78.948284 123.149345 
L 67.657697 116.750768 
L 64.787464 114.067494 
L 62.811361 109.995077 
L 61.807029 109.333268 
L 61.358712 108.831997 
L 61.135805 108.15053 
L 61.025605 106.748282 
L 60.835257 106.122512 
L 59.991218 105.070826 
L 59.011933 104.3009 
L 58.080234 103.386818 
L 57.388974 101.915767 
L 57.393983 99.216112 
L 58.613707 97.083253 
L 60.509664 95.533572 
L 66.225085 92.794601 
L 67.502414 91.349761 
L 68.411572 88.738565 
L 68.323912 87.336316 
L 67.482378 86.894019 
L 66.340295 86.812111 
L 65.353496 86.497588 
L 64.587098 85.72111 
L 62.513317 83.073875 
L 61.230979 82.028741 
L 60.063851 81.724047 
L 59.467764 81.081896 
L 59.89354 79.030944 
L 59.598001 77.530407 
L 58.260563 77.674564 
L 55.538099 79.021115 
L 54.433585 78.844196 
L 52.309712 77.979258 
L 50.025547 77.713879 
L 49.229095 77.05207 
L 48.477725 76.249381 
L 47.485917 75.639993 
L 45.903031 74.008405 
L 45.101569 73.582488 
L 44.961313 74.735739 
L 44.665775 75.489284 
L 43.729067 75.394272 
L 42.679653 74.693148 
L 42.056016 73.634909 
L 42.571957 71.597062 
L 47.365698 71.796915 
L 49.02873 70.59452 
L 48.966116 69.585426 
L 48.337469 68.684448 
L 45.800343 66.71868 
L 44.971332 66.453301 
L 41.805559 66.450025 
L 40.974043 66.096186 
L 40.706055 65.309879 
L 41.194445 63.973156 
L 39.401175 60.215262 
L 51.383023 50.448668 
L 52.938359 49.914634 
L 54.523749 49.996541 
L 57.762154 51.647787 
L 58.516029 51.795219 
L 59.49281 51.710036 
L 61.095732 51.228423 
L 61.812038 51.356198 
L 62.513317 52.149058 
L 64.091194 53.613555 
L 71.058899 56.290277 
L 74.214653 56.922599 
L 75.346717 57.368173 
L 75.406827 57.761327 
L 74.715566 58.134823 
L 73.603539 58.524701 
L 72.526575 59.848318 
L 73.683685 61.656825 
L 75.687338 63.350663 
L 79.063494 65.391786 
L 86.25661 67.96039 
L 88.595875 68.245427 
L 89.768012 68.140586 
L 90.724757 67.7933 
L 93.234333 66.201027 
L 94.313801 65.955306 
L 97.957946 65.938925 
L 98.829535 66.240343 
L 99.595932 66.980782 
L 101.003499 68.720487 
L 103.858705 71.282539 
L 104.865541 71.875546 
L 107.750802 72.80601 
L 108.544749 73.497305 
L 109.89972 75.305812 
L 110.768804 75.833294 
L 111.828236 75.787426 
L 112.254012 75.125617 
L 112.524506 74.129627 
L 113.070501 73.11398 
L 114.094869 72.478382 
L 115.0441 72.570118 
L 115.96578 72.819115 
L 116.917516 72.668406 
L 117.854224 71.364446 
L 118.259964 69.326599 
L 118.515429 67.151149 
L 118.986288 65.444206 
L 119.271809 65.051053 
L 120.198498 64.055063 
L 120.301185 63.638975 
L 120.448955 62.04015 
L 120.874731 61.545432 
L 121.425736 61.525774 
L 121.120179 60.601863 
L 119.597402 58.301913 
L 118.660694 57.266609 
L 118.277239 56.684901 
L 117.939379 56.46392 
L 117.188009 56.755509 
L 116.421612 54.986317 
L 114.042273 53.587345 
L 109.323669 51.624853 
L 107.054532 49.54769 
L 106.067733 49.308522 
L 105.501701 49.049696 
L 102.967079 47.326372 
L 102.133058 46.271409 
L 101.702273 44.892095 
L 101.243937 41.959823 
L 100.056772 39.581243 
L 99.385549 39.607454 
L 99.064964 40.085791 
L 98.824526 40.670607 
L 98.398749 41.014616 
L 97.09387 39.944911 
L 96.475242 37.092908 
L 96.452701 33.877238 
L 96.911037 31.705064 
L 97.847745 30.73037 
L 98.904672 30.6157 
L 101.173809 31.123524 
L 102.18315 31.028512 
L 102.957061 30.658292 
L 103.663349 30.039075 
L 105.747148 27.549101 
L 106.786543 25.901132 
L 108.634914 22.176 
M 62.513317 103.36716 
L 64.181359 103.865155 
L 65.804318 102.623444 
L 66.460514 100.968922 
L 65.198213 100.254693 
L 63.788142 100.172786 
L 63.119422 100.369363 
L 62.513317 100.805108 
L 62.227797 101.434154 
L 62.127614 102.095963 
L 62.222787 102.757772 
L 62.513317 103.36716 
L 62.513317 103.36716 
" clip-path="url(#pfd57079511)" style="fill: none; stroke: #000000; stroke-width: 2"/>
   </g>
  </g>
 </g>
 <defs>
  <clipPath id="pfd57079511">
   <rect x="0" y="-0" width="340.302487" height="266.112"/>
  </clipPath>
 </defs>
</svg>
