<?xml version="1.0" encoding="utf-8" standalone="no"?>
<!DOCTYPE svg PUBLIC "-//W3C//DTD SVG 1.1//EN"
  "http://www.w3.org/Graphics/SVG/1.1/DTD/svg11.dtd">
<svg xmlns:xlink="http://www.w3.org/1999/xlink" width="227.132907pt" height="266.112pt" viewBox="0 0 227.132907 266.112" xmlns="http://www.w3.org/2000/svg" version="1.1">
 <metadata>
  <rdf:RDF xmlns:dc="http://purl.org/dc/elements/1.1/" xmlns:cc="http://creativecommons.org/ns#" xmlns:rdf="http://www.w3.org/1999/02/22-rdf-syntax-ns#">
   <cc:Work>
    <dc:type rdf:resource="http://purl.org/dc/dcmitype/StillImage"/>
    <dc:date>2024-02-02T21:57:59.671260</dc:date>
    <dc:format>image/svg+xml</dc:format>
    <dc:creator>
     <cc:Agent>
      <dc:title>Matplotlib v3.8.2, https://matplotlib.org/</dc:title>
     </cc:Agent>
    </dc:creator>
   </cc:Work>
  </rdf:RDF>
 </metadata>
 <defs>
  <style type="text/css">*{stroke-linejoin: round; stroke-linecap: butt}</style>
 </defs>
 <g id="figure_1">
  <g id="patch_1">
   <path d="M 0 266.112 
L 227.132907 266.112 
L 227.132907 0 
L 0 0 
L 0 266.112 
z
" style="fill: none"/>
  </g>
  <g id="axes_1">
   <g id="PatchCollection_1">
    <path d="M 165.279759 23.205122 
L 165.629263 23.077808 
L 166.11645 23.640112 
L 166.646001 25.083006 
L 167.233802 25.889329 
L 172.799384 30.462028 
L 176.209692 32.064064 
L 179.577637 32.191378 
L 176.183215 36.467011 
L 174.811677 38.641961 
L 170.924773 48.116255 
L 170.088082 51.373374 
L 169.643259 52.455545 
L 168.658294 53.739295 
L 166.211769 56.062778 
L 165.375078 57.33592 
L 164.977915 59.860983 
L 166.11645 60.964372 
L 168.107561 60.985591 
L 170.26813 60.274754 
L 173.943214 58.598451 
L 176.29442 57.728472 
L 175.632481 59.670012 
L 169.738579 65.865966 
L 168.912479 67.213374 
L 168.578862 68.804801 
L 168.541793 71.414741 
L 166.307088 74.438451 
L 165.131485 76.719496 
L 165.353896 78.491285 
L 167.916923 81.812062 
L 169.473803 83.276174 
L 171.337823 83.785431 
L 170.871818 84.910039 
L 171.464915 85.726971 
L 172.354561 86.607561 
L 172.799384 87.92314 
L 173.291866 87.689731 
L 175.320046 84.88882 
L 176.538014 83.880916 
L 177.967802 83.350441 
L 178.799197 83.488364 
L 185.455653 87.477541 
L 187.256126 88.34752 
L 187.520902 88.973482 
L 187.806859 90.649784 
L 188.082226 91.095384 
L 189.448468 91.39245 
L 190.518161 91.127212 
L 191.540194 90.724051 
L 192.805821 90.639175 
L 194.066153 91.105993 
L 196.412064 92.644372 
L 197.762419 93.047534 
L 200.155989 92.835344 
L 204.943131 91.498545 
L 207.336701 91.519764 
L 206.346441 93.291553 
L 203.17443 96.951834 
L 202.496605 98.585699 
L 203.004974 100.092249 
L 205.525637 102.46878 
L 206.537079 103.890454 
L 206.552966 104.431539 
L 206.065779 105.800166 
L 205.981051 106.394299 
L 206.346441 107.168793 
L 207.675614 108.144868 
L 208.099255 108.876924 
L 208.205165 110.171285 
L 208.025118 111.455035 
L 207.135472 113.905833 
L 205.684502 115.974687 
L 205.737457 116.727962 
L 206.245826 119.146931 
L 204.699537 121.905404 
L 202.231829 123.592316 
L 199.388141 123.910601 
L 196.676839 122.563193 
L 196.364404 123.783287 
L 195.707761 124.706315 
L 194.706909 125.268619 
L 193.446578 125.427762 
L 190.645253 126.488713 
L 188.38407 127.889168 
L 186.451209 129.692785 
L 184.566007 131.96322 
L 188.373479 134.042684 
L 188.241091 136.779938 
L 185.550972 139.389878 
L 180.742649 141.628485 
L 179.40818 143.219912 
L 178.592672 143.930749 
L 177.888369 144.185377 
L 175.161181 144.811338 
L 175.002316 145.065966 
L 174.716358 146.179965 
L 172.757019 146.339108 
L 172.704064 146.148137 
L 172.502835 146.126918 
L 170.797681 146.381546 
L 170.532905 146.699831 
L 170.151628 147.909315 
L 169.897444 148.323086 
L 167.043164 150.370722 
L 166.487135 151.601425 
L 166.730729 153.65967 
L 166.69366 155.537554 
L 165.925811 157.447266 
L 161.699994 164.099429 
L 160.975332 166.021644 
L 160.863303 167.929463 
L 161.297535 169.658813 
L 161.880041 171.23963 
L 162.197772 172.841666 
L 161.848268 174.645283 
L 157.278243 173.149342 
L 154.688738 174.804426 
L 150.748879 181.615732 
L 145.36864 187.132678 
L 144.140082 189.233361 
L 142.360791 196.62819 
L 140.496771 201.126623 
L 138.092609 205.285551 
L 135.000031 209.051928 
L 128.020549 214.86594 
L 126.961447 216.393709 
L 124.345465 222.653321 
L 123.05336 224.287185 
L 120.776291 225.570936 
L 119.738371 226.409088 
L 116.222152 228.403676 
L 112.547068 231.851767 
L 106.203047 234.716335 
L 104.487301 234.429878 
L 103.375244 233.867574 
L 102.284369 233.72965 
L 100.621579 234.748163 
L 100.436236 235.108887 
L 100.21912 236.78519 
L 99.689569 237.665779 
L 97.942051 238.482711 
L 97.295998 239.087453 
L 96.914722 240.540956 
L 96.861767 241.867145 
L 96.549331 243.023582 
L 95.368433 243.936 
L 94.902428 243.755638 
L 90.718975 243.426743 
L 85.677649 242.238478 
L 61.688988 242.546154 
L 58.469317 217.741117 
L 55.059009 205.943341 
L 48.730874 195.238344 
L 44.843969 191.036978 
L 43.281794 188.8302 
L 42.30742 186.092946 
L 41.438956 173.987494 
L 43.149406 162.189717 
L 43.34534 154.137098 
L 41.449547 128.05892 
L 41.661368 125.056429 
L 42.106191 123.687802 
L 44.955175 121.056643 
L 43.207657 119.656188 
L 42.498058 117.65099 
L 42.212101 110.807855 
L 42.561605 108.728391 
L 43.329454 106.999041 
L 44.637445 106.266985 
L 45.103449 105.089329 
L 44.314418 98.500823 
L 43.366522 96.983662 
L 41.947325 95.890883 
L 40.199807 95.222484 
L 38.304014 94.999684 
L 36.334085 94.21458 
L 35.45503 92.379135 
L 35.052571 90.257232 
L 34.454178 88.623368 
L 32.913185 87.583636 
L 31.038574 86.957674 
L 29.471103 86.130133 
L 28.803869 84.485658 
L 28.645004 82.830575 
L 28.221363 81.812062 
L 26.696256 79.573455 
L 25.753655 76.825591 
L 25.298241 76.008659 
L 23.762543 75.32965 
L 21.617862 75.12807 
L 19.748546 74.586985 
L 18.927742 72.857634 
L 19.123676 70.672075 
L 19.812093 68.921506 
L 21.114788 67.796898 
L 23.201219 67.53166 
L 21.845568 65.049034 
L 23.608973 54.779027 
L 25.933702 52.497983 
L 31.896447 52.105431 
L 33.564533 52.349449 
L 39.786757 55.065484 
L 42.074418 55.765712 
L 46.400849 56.306797 
L 48.566713 56.826663 
L 50.441324 57.898224 
L 51.691064 58.831861 
L 51.765201 59.309289 
L 51.632814 60.518773 
L 52.008795 62.004105 
L 54.232909 64.094178 
L 54.857779 65.367319 
L 54.635368 66.534366 
L 53.216171 68.274326 
L 52.866667 69.345886 
L 53.09967 70.534151 
L 54.052862 72.666663 
L 54.174659 73.950414 
L 55.080191 75.902564 
L 57.600854 75.669155 
L 62.022605 73.748833 
L 63.860147 73.536643 
L 69.547525 74.597594 
L 71.930504 75.945002 
L 73.879252 75.287212 
L 75.796227 74.067118 
L 78.041523 73.770052 
L 79.100625 73.81249 
L 79.916134 73.494205 
L 80.678687 73.027386 
L 83.728901 71.923997 
L 84.459682 71.966435 
L 89.818738 73.738224 
L 91.751599 74.03529 
L 94.044555 73.748833 
L 95.040111 73.144091 
L 95.484934 72.189235 
L 95.823847 70.035504 
L 96.5864 69.080648 
L 97.762003 69.070039 
L 100.049664 69.759657 
L 102.596804 69.833924 
L 104.667349 69.441372 
L 106.594914 68.306154 
L 108.691936 66.173642 
L 110.058178 64.316978 
L 111.307919 62.195076 
L 112.282292 59.956469 
L 112.833026 57.696643 
L 113.309621 46.026181 
L 115.52844 38.270628 
L 114.792364 30.377152 
L 115.459599 25.125444 
L 115.449008 24.170588 
L 115.745556 23.597674 
L 116.794067 23.565846 
L 117.614871 24.032664 
L 120.299695 26.345538 
L 121.094021 26.462242 
L 121.95719 26.377366 
L 122.942155 26.409195 
L 124.112462 26.822966 
L 125.362203 27.788431 
L 128.539509 31.554808 
L 130.223481 33.02953 
L 132.362867 34.451204 
L 134.714074 35.363622 
L 137.001734 35.289356 
L 138.749253 34.079871 
L 143.377529 28.265859 
L 143.589349 27.544413 
L 143.642304 26.578947 
L 144.007694 25.889329 
L 145.199184 26.006033 
L 148.397672 27.565632 
L 149.668595 27.852088 
L 151.320794 27.777822 
L 153.280133 27.37466 
L 155.207699 26.748699 
L 156.67985 25.995424 
L 157.998432 24.77533 
L 158.893374 23.597674 
L 159.894225 22.664038 
L 161.541129 22.176 
L 162.038907 22.430628 
L 165.279759 23.205122 
L 165.279759 23.205122 
" clip-path="url(#p2bec6685cf)" style="fill: none; stroke: #000000; stroke-width: 2"/>
   </g>
  </g>
 </g>
 <defs>
  <clipPath id="p2bec6685cf">
   <rect x="0" y="-0" width="227.132907" height="266.112"/>
  </clipPath>
 </defs>
</svg>
