<?xml version="1.0" encoding="utf-8" standalone="no"?>
<!DOCTYPE svg PUBLIC "-//W3C//DTD SVG 1.1//EN"
  "http://www.w3.org/Graphics/SVG/1.1/DTD/svg11.dtd">
<svg xmlns:xlink="http://www.w3.org/1999/xlink" width="325.935736pt" height="266.112pt" viewBox="0 0 325.935736 266.112" xmlns="http://www.w3.org/2000/svg" version="1.1">
 <metadata>
  <rdf:RDF xmlns:dc="http://purl.org/dc/elements/1.1/" xmlns:cc="http://creativecommons.org/ns#" xmlns:rdf="http://www.w3.org/1999/02/22-rdf-syntax-ns#">
   <cc:Work>
    <dc:type rdf:resource="http://purl.org/dc/dcmitype/StillImage"/>
    <dc:date>2024-02-02T21:57:59.693265</dc:date>
    <dc:format>image/svg+xml</dc:format>
    <dc:creator>
     <cc:Agent>
      <dc:title>Matplotlib v3.8.2, https://matplotlib.org/</dc:title>
     </cc:Agent>
    </dc:creator>
   </cc:Work>
  </rdf:RDF>
 </metadata>
 <defs>
  <style type="text/css">*{stroke-linejoin: round; stroke-linecap: butt}</style>
 </defs>
 <g id="figure_1">
  <g id="patch_1">
   <path d="M 0 266.112 
L 325.935736 266.112 
L 325.935736 0 
L 0 0 
L 0 266.112 
z
" style="fill: none"/>
  </g>
  <g id="axes_1">
   <g id="PatchCollection_1">
    <path d="M 188.861054 29.397718 
L 189.371093 31.324846 
L 186.296287 29.913146 
L 185.502084 30.027685 
L 185.101339 31.359207 
L 186.595024 31.994902 
L 191.527828 32.160984 
L 192.824784 32.504603 
L 195.549849 33.738766 
L 197.072679 33.326424 
L 198.850529 31.622648 
L 200.475367 29.457851 
L 201.575593 27.665307 
L 202.063774 26.302287 
L 202.30422 25.271431 
L 202.726824 24.604238 
L 203.812478 24.329343 
L 204.009207 24.592784 
L 206.122225 25.972986 
L 207.506617 28.57017 
L 207.258883 30.414256 
L 206.471966 32.186756 
L 206.224233 34.586359 
L 206.675982 35.663031 
L 209.10231 38.308894 
L 209.473909 39.271026 
L 210.19525 41.716445 
L 210.537705 42.440908 
L 211.754512 43.105237 
L 214.479576 42.870431 
L 215.783818 42.999288 
L 217.022484 44.551299 
L 217.058916 48.497186 
L 218.297581 48.809306 
L 220.95707 48.153567 
L 229.299848 48.500049 
L 230.771674 47.964577 
L 233.729899 45.905729 
L 235.121577 45.244263 
L 236.644407 45.416072 
L 238.29839 46.446928 
L 239.602632 48.130659 
L 240.105385 50.278276 
L 240.331259 52.798146 
L 241.941525 54.158303 
L 245.9344 55.349514 
L 246.888901 56.013843 
L 247.566525 56.784121 
L 248.331583 57.325321 
L 249.541103 57.313867 
L 252.492042 56.712534 
L 253.39554 56.807029 
L 254.54677 57.48854 
L 256.018597 59.498708 
L 256.958526 60.280441 
L 259.122547 59.736378 
L 260.324782 59.830873 
L 261.126271 61.775182 
L 260.135339 62.745904 
L 259.909465 64.011566 
L 261.512444 65.712478 
L 260.863966 66.144865 
L 260.149911 66.431214 
L 259.392139 66.545754 
L 258.619795 66.462712 
L 258.903959 67.602381 
L 259.100689 68.049085 
L 258.189905 70.357057 
L 257.658007 71.075792 
L 256.834659 70.377101 
L 256.259044 70.72931 
L 255.902016 71.803118 
L 255.734432 73.272088 
L 256.688934 74.560658 
L 255.574134 77.263791 
L 252.798066 81.667836 
L 254.3719 81.24404 
L 255.049523 81.261221 
L 255.734432 81.667836 
L 254.925656 83.019403 
L 253.708849 85.596542 
L 252.798066 86.959563 
L 252.462897 87.228731 
L 250.830773 87.847244 
L 245.744957 93.49977 
L 245.897969 95.979551 
L 247.041913 97.66901 
L 248.63032 98.774316 
L 250.15315 99.501642 
L 251.253377 99.82808 
L 251.12951 101.133831 
L 250.400883 103.676608 
L 251.683267 104.409662 
L 252.448325 104.56429 
L 253.184238 104.415388 
L 254.291751 102.760292 
L 254.91837 102.279226 
L 255.625138 102.548394 
L 257.06782 104.134766 
L 257.78916 104.638741 
L 263.90234 104.484112 
L 265.476174 104.982359 
L 270.591135 105.148442 
L 272.011958 104.885001 
L 271.85166 105.291616 
L 271.960954 105.698231 
L 273.134043 106.311018 
L 273.170474 107.376236 
L 272.908169 108.544539 
L 273.185047 109.472309 
L 274.117689 109.581122 
L 276.90833 108.813707 
L 278.08142 108.922519 
L 279.436666 110.274086 
L 283.728278 116.825747 
L 282.78835 117.42708 
L 283.611698 119.01918 
L 285.061666 119.780868 
L 289.928893 119.901134 
L 290.089191 120.565463 
L 289.593725 121.550503 
L 288.792236 122.524089 
L 288.792236 122.924978 
L 287.218401 123.864202 
L 284.996089 125.714016 
L 283.699133 127.752819 
L 284.872223 129.236106 
L 284.318466 130.089426 
L 284.413188 130.5934 
L 284.981517 130.833933 
L 285.804865 130.89693 
L 285.243822 131.853335 
L 285.812151 132.380217 
L 286.416912 133.645879 
L 286.977955 134.09831 
L 287.677436 134.132672 
L 290.548226 133.239263 
L 290.708524 133.393892 
L 291.786892 133.90932 
L 294.839839 134.613738 
L 296.122222 134.688189 
L 295.335305 135.46133 
L 295.160435 136.349012 
L 295.36445 137.345506 
L 295.750623 138.467993 
L 296.355383 139.470214 
L 296.858136 139.567573 
L 297.127727 139.945553 
L 297.076724 141.795367 
L 296.573971 144.406868 
L 296.085791 145.890155 
L 296.180512 147.201633 
L 298.628699 151.485412 
L 298.774424 153.031695 
L 297.892786 153.976647 
L 296.020215 154.320265 
L 295.073 154.148456 
L 294.27151 153.833472 
L 293.484593 153.764749 
L 292.530092 154.320265 
L 291.83061 155.179312 
L 291.364289 156.244529 
L 291.218563 157.36129 
L 291.531873 158.357784 
L 290.234917 159.537541 
L 287.203829 160.396588 
L 285.739289 161.095279 
L 285.047093 162.171951 
L 283.4514 163.311619 
L 282.722773 164.273751 
L 283.662702 165.327515 
L 284.056161 166.58745 
L 284.012443 167.835931 
L 283.589839 168.883968 
L 283.065228 169.227586 
L 281.658978 169.342126 
L 281.054218 169.720106 
L 280.923065 170.086633 
L 280.536893 171.87345 
L 281.250947 172.457601 
L 281.49868 173.139111 
L 281.294665 173.883618 
L 280.653473 174.645306 
L 279.60425 174.169967 
L 279.443952 173.29374 
L 279.524101 172.245703 
L 279.218078 171.226301 
L 278.307294 170.33862 
L 277.760824 170.41307 
L 277.309075 170.90559 
L 276.697029 171.289298 
L 275.094049 171.547012 
L 273.989911 171.280217 
L 273.367204 170.974314 
L 272.937314 170.161083 
L 272.704153 169.101593 
L 272.252405 168.603346 
L 271.16675 169.479573 
L 269.665779 169.639929 
L 269.068305 170.665057 
L 268.776854 172.182706 
L 268.215811 173.774806 
L 267.166589 174.880112 
L 264.543532 176.180136 
L 263.377729 177.256808 
L 263.122709 177.961226 
L 262.98427 179.759497 
L 262.8094 180.515458 
L 262.37951 181.145425 
L 261.352146 182.050287 
L 260.929542 182.737525 
L 261.009691 185.062677 
L 260.834821 185.938905 
L 260.324782 186.488695 
L 258.896673 187.130116 
L 258.459497 187.719995 
L 258.379348 189.249097 
L 258.874814 189.867611 
L 259.158979 190.480397 
L 258.386634 192.003773 
L 257.803733 192.55929 
L 256.761796 192.80555 
L 256.26633 193.143442 
L 255.712573 193.887949 
L 255.282684 195.027617 
L 254.998519 195.732035 
L 252.557619 200.032995 
L 252.273454 201.086759 
L 253.104089 201.493374 
L 254.663351 202.701766 
L 255.319115 203.709714 
L 253.468403 203.514997 
L 253.373681 204.488583 
L 253.118662 205.147185 
L 253.796285 205.788607 
L 252.958364 206.361304 
L 252.645054 207.420795 
L 252.747062 208.743727 
L 253.176952 210.135382 
L 253.920151 211.395317 
L 254.634206 211.75039 
L 255.391978 211.88211 
L 256.288189 212.443354 
L 256.75451 213.147772 
L 258.415779 216.492327 
L 258.525073 217.013482 
L 258.64894 218.817479 
L 259.100689 219.189733 
L 260.900397 219.808246 
L 261.352146 219.653618 
L 261.811181 219.68798 
L 262.247334 220.598225 
L 262.313933 221.194175 
L 261.599879 222.660281 
L 261.563448 223.38188 
L 261.352146 223.736952 
L 261.250138 224.132114 
L 261.497871 224.945345 
L 261.978765 225.317598 
L 263.392301 225.48368 
L 263.90234 225.924658 
L 264.295799 227.499576 
L 263.90234 228.461708 
L 262.641815 229.801821 
L 261.738318 232.356053 
L 261.177275 233.467086 
L 260.383072 234.234501 
L 261.57802 234.904557 
L 260.907683 236.634104 
L 259.290132 238.40374 
L 257.61429 239.222698 
L 256.790941 239.016527 
L 255.246252 238.042941 
L 254.48848 237.928401 
L 253.730708 238.340744 
L 252.819925 239.572044 
L 251.945572 239.961478 
L 250.422742 239.69231 
L 248.907198 238.924895 
L 247.318791 238.552642 
L 245.562801 239.468958 
L 244.72488 240.642988 
L 244.564582 241.439038 
L 244.331421 241.885742 
L 243.289485 242.028917 
L 242.684724 241.862834 
L 240.476985 240.809071 
L 239.150884 241.41613 
L 237.38032 242.842147 
L 235.551467 243.936 
L 234.028636 243.523658 
L 233.59146 242.538618 
L 233.664323 241.547851 
L 233.890197 240.505541 
L 233.90477 239.348692 
L 233.613319 238.335017 
L 230.217918 232.052523 
L 228.906389 230.849858 
L 226.720508 230.0309 
L 225.919019 229.53838 
L 225.481843 229.463929 
L 225.219537 229.761732 
L 224.5492 230.930036 
L 224.046448 231.090391 
L 222.873358 230.855585 
L 222.530904 230.420335 
L 222.36332 229.400933 
L 222.581908 227.831741 
L 223.150237 227.459487 
L 223.470832 227.058599 
L 222.982652 225.397776 
L 221.62012 223.691137 
L 220.148294 222.202123 
L 218.625463 222.242212 
L 215.441364 223.147074 
L 213.816526 222.660281 
L 212.534142 221.686695 
L 211.48492 220.650112 
L 208.482977 216.217432 
L 207.645056 215.398474 
L 205.131293 214.659694 
L 203.725043 213.846463 
L 201.101986 211.206327 
L 199.642017 210.494033 
L 198.347776 210.559179 
L 195.287543 211.658758 
L 193.706423 211.916472 
L 191.862997 211.647304 
L 191.229091 210.805439 
L 191.243664 206.659107 
L 191.068793 206.000505 
L 190.376598 204.837929 
L 190.230872 204.282412 
L 190.362025 203.606629 
L 190.988644 202.862122 
L 191.221805 202.283697 
L 192.139875 199.042228 
L 192.016008 197.59903 
L 190.915782 195.560226 
L 187.57867 194.168571 
L 186.638742 192.61656 
L 186.944765 190.846924 
L 189.655257 184.003187 
L 189.720834 182.817702 
L 189.61154 181.895659 
L 189.691688 180.893438 
L 191.01779 177.944045 
L 191.447679 177.840959 
L 192.205451 178.677098 
L 192.365749 176.735653 
L 192.744635 174.444862 
L 192.839357 172.503417 
L 192.190879 171.638643 
L 189.983139 172.102529 
L 189.188936 171.764637 
L 188.86834 170.115268 
L 186.966624 170.997222 
L 179.447194 178.694279 
L 179.039163 179.564779 
L 178.84972 180.658632 
L 179.017304 181.322961 
L 179.27961 181.878478 
L 179.352473 182.640166 
L 178.813289 186.179438 
L 178.317822 187.93762 
L 177.669344 189.203282 
L 176.904286 189.712983 
L 173.96792 190.188322 
L 164.138743 195.130703 
L 162.047583 195.502956 
L 150.943309 192.410389 
L 145.55147 193.200712 
L 144.604255 192.925817 
L 140.655097 190.766746 
L 140.704468 190.771282 
L 141.21614 190.818289 
L 141.128704 189.191828 
L 140.742532 187.496643 
L 140.407364 187.353468 
L 140.698815 186.047717 
L 141.055842 185.217306 
L 141.565881 184.581611 
L 142.85555 183.361765 
L 144.487675 182.182008 
L 146.178089 181.328688 
L 146.199948 180.601362 
L 145.711768 179.719408 
L 145.289164 178.677098 
L 144.101502 173.895072 
L 143.40202 173.534273 
L 142.644248 173.654539 
L 141.237999 174.301688 
L 140.23978 173.791987 
L 140.407364 171.787545 
L 141.76261 167.343411 
L 142.141496 165.327515 
L 142.462092 164.422653 
L 143.212577 163.340254 
L 144.873847 162.028776 
L 145.566042 161.226999 
L 145.733627 160.07015 
L 145.303737 159.348551 
L 144.429384 158.575409 
L 143.482169 157.974077 
L 142.848264 157.744997 
L 141.966625 158.122978 
L 141.930194 158.833123 
L 142.017629 159.594811 
L 141.500304 160.110239 
L 140.203348 159.497452 
L 138.272487 155.322486 
L 136.815233 154.011009 
L 135.314262 153.134781 
L 132.975369 150.52328 
L 131.605551 149.864677 
L 130.111865 150.025033 
L 125.63081 151.926389 
L 124.035117 151.94357 
L 122.774592 151.33651 
L 121.565072 150.483191 
L 120.107818 149.738684 
L 117.178738 149.377884 
L 114.103932 149.61269 
L 113.149431 149.967763 
L 112.581102 150.620638 
L 111.313291 152.791162 
L 110.817825 154.04537 
L 110.497229 154.268723 
L 110.380649 154.165637 
L 110.278641 154.228634 
L 110.001763 154.944506 
L 107.524431 152.607899 
L 106.905098 148.07786 
L 106.897812 142.9064 
L 106.300338 138.622622 
L 105.156394 136.532275 
L 103.75743 135.186435 
L 102.212741 134.413294 
L 100.617048 134.075402 
L 96.06313 134.046767 
L 95.188777 133.393892 
L 95.873687 132.162592 
L 95.982981 131.269183 
L 95.523946 130.690759 
L 94.511154 130.381502 
L 93.505649 130.461679 
L 92.784308 130.937019 
L 92.084827 131.641437 
L 91.130325 132.380217 
L 88.040947 133.508431 
L 86.328674 133.714602 
L 85.097295 133.365257 
L 82.015203 131.755976 
L 81.089847 131.022923 
L 79.982334 129.596906 
L 79.61802 128.336971 
L 79.508726 124.803426 
L 77.643441 118.566748 
L 77.075112 115.359641 
L 78.058759 113.509828 
L 77.257269 110.869691 
L 76.696226 109.844563 
L 75.749011 109.535306 
L 74.758079 109.397858 
L 74.197036 108.744983 
L 73.32997 106.637456 
L 71.18052 102.7832 
L 69.985572 101.654985 
L 68.156719 101.099469 
L 58.859439 104.008773 
L 57.234601 105.022448 
L 55.952218 106.402649 
L 53.831914 110.073642 
L 52.899271 110.789514 
L 51.478232 110.407975 
L 45.838876 107.828667 
L 44.534634 106.734814 
L 44.163034 106.053304 
L 42.815075 103.081003 
L 40.192018 100.578314 
L 39.725696 99.747902 
L 39.507108 98.997668 
L 39.150081 98.356247 
L 38.224725 97.869454 
L 37.554388 97.795003 
L 35.667244 97.955359 
L 34.632594 97.737733 
L 34.115269 97.508654 
L 33.743669 96.878687 
L 33.138909 95.475578 
L 32.818313 95.114778 
L 31.96582 94.679528 
L 31.739945 94.301547 
L 31.812808 93.791846 
L 32.359278 92.560546 
L 32.439427 91.838947 
L 31.04775 86.976744 
L 31.455781 85.963069 
L 33.080619 84.348061 
L 33.495936 83.683732 
L 33.270062 81.478846 
L 32.162549 79.818023 
L 29.6415 77.040439 
L 28.942018 74.901413 
L 28.23525 70.010575 
L 27.162762 67.46818 
L 28.585593 66.43552 
L 31.259137 65.556181 
L 40.82882 58.386186 
L 55.487416 49.854343 
L 69.675561 40.637067 
L 85.507288 35.587291 
L 86.117372 39.855178 
L 85.825921 42.604127 
L 85.774918 45.186993 
L 86.773137 47.970304 
L 88.48541 49.822981 
L 90.620287 50.796567 
L 92.871744 51.057144 
L 96.208855 50.541717 
L 96.412871 49.49368 
L 96.230714 48.09057 
L 96.361867 46.810591 
L 97.134211 46.025995 
L 98.168861 45.771145 
L 99.298233 45.705285 
L 102.103447 45.083908 
L 103.844865 44.983686 
L 105.644574 45.272898 
L 114.26423 48.099161 
L 115.597617 48.963934 
L 115.961931 50.415723 
L 115.84535 51.647023 
L 115.961931 52.803872 
L 117.011154 54.035173 
L 117.885506 54.416016 
L 126.228284 54.312931 
L 127.809404 53.81182 
L 131.022649 51.323449 
L 139.758886 46.9824 
L 143.256295 44.270677 
L 146.032364 40.533824 
L 146.425822 39.431381 
L 146.987791 36.387717 
L 147.036233 36.41624 
L 148.367268 37.651824 
L 148.929516 38.752125 
L 149.428654 40.77235 
L 150.593309 42.170274 
L 151.872709 43.270575 
L 152.733292 44.357347 
L 152.991467 45.060819 
L 153.094737 45.737233 
L 152.905409 46.517365 
L 152.291526 47.518458 
L 153.111949 47.11261 
L 153.679934 46.490308 
L 154.695422 44.357347 
L 152.320213 43.351744 
L 151.76944 42.90982 
L 151.494053 41.926764 
L 151.545688 39.527747 
L 151.327674 38.373333 
L 150.805587 37.484975 
L 149.777867 36.234928 
L 151.824948 36.304452 
L 154.375142 37.670336 
L 155.737674 38.128494 
L 159.023782 38.337529 
L 160.364455 37.635974 
L 160.714196 35.726027 
L 160.284306 34.637902 
L 158.703186 32.782361 
L 158.156716 31.785867 
L 158.207719 30.66338 
L 158.666754 29.798606 
L 158.81248 29.008283 
L 157.959986 28.089104 
L 161.646838 25.972986 
L 165.428412 24.604238 
L 167.512285 24.266346 
L 168.40121 24.426702 
L 168.962253 25.351609 
L 168.867531 27.204286 
L 168.270057 28.584487 
L 168.138904 29.666886 
L 169.486864 30.617564 
L 170.419507 30.703469 
L 172.452376 30.336942 
L 174.703833 30.895322 
L 175.796773 30.823735 
L 176.743988 30.468663 
L 177.472615 29.936054 
L 182.922745 23.352894 
L 185.247064 22.176 
L 186.267142 22.273359 
L 187.549525 22.754425 
L 188.729901 23.518976 
L 189.458528 24.4582 
L 189.61154 26.130478 
L 189.174363 27.719714 
L 188.861054 29.397718 
L 188.861054 29.397718 
" clip-path="url(#p0aae5b7be2)" style="fill: none; stroke: #000000; stroke-width: 2"/>
   </g>
  </g>
 </g>
 <defs>
  <clipPath id="p0aae5b7be2">
   <rect x="0" y="-0" width="325.935736" height="266.112"/>
  </clipPath>
 </defs>
</svg>
