<?xml version="1.0" encoding="utf-8" standalone="no"?>
<!DOCTYPE svg PUBLIC "-//W3C//DTD SVG 1.1//EN"
  "http://www.w3.org/Graphics/SVG/1.1/DTD/svg11.dtd">
<svg xmlns:xlink="http://www.w3.org/1999/xlink" width="130.662056pt" height="266.112pt" viewBox="0 0 130.662056 266.112" xmlns="http://www.w3.org/2000/svg" version="1.1">
 <metadata>
  <rdf:RDF xmlns:dc="http://purl.org/dc/elements/1.1/" xmlns:cc="http://creativecommons.org/ns#" xmlns:rdf="http://www.w3.org/1999/02/22-rdf-syntax-ns#">
   <cc:Work>
    <dc:type rdf:resource="http://purl.org/dc/dcmitype/StillImage"/>
    <dc:date>2024-02-02T21:57:59.716271</dc:date>
    <dc:format>image/svg+xml</dc:format>
    <dc:creator>
     <cc:Agent>
      <dc:title>Matplotlib v3.8.2, https://matplotlib.org/</dc:title>
     </cc:Agent>
    </dc:creator>
   </cc:Work>
  </rdf:RDF>
 </metadata>
 <defs>
  <style type="text/css">*{stroke-linejoin: round; stroke-linecap: butt}</style>
 </defs>
 <g id="figure_1">
  <g id="patch_1">
   <path d="M 0 266.112 
L 130.662056 266.112 
L 130.662056 0 
L 0 0 
L 0 266.112 
z
" style="fill: none"/>
  </g>
  <g id="axes_1">
   <g id="PatchCollection_1">
    <path d="M 102.232443 40.688464 
L 103.205121 40.171553 
L 103.621983 40.253073 
L 105.9842 41.581479 
L 107.278666 42.040956 
L 107.958809 42.585658 
L 109.381258 44.482852 
L 109.735957 44.747792 
L 110.178415 45.870546 
L 110.37222 46.461566 
L 110.668411 46.622754 
L 110.997512 47.191541 
L 111.246167 47.397194 
L 110.467293 48.212395 
L 108.010002 52.388445 
L 107.366426 54.549653 
L 106.65703 56.478343 
L 106.719193 57.302808 
L 107.245756 58.277343 
L 113.586444 67.210274 
L 114.442108 68.022695 
L 114.734642 68.071793 
L 115.396502 68.02918 
L 115.692693 68.3145 
L 115.330682 69.706826 
L 115.330682 70.483119 
L 115.473292 71.199199 
L 116.098585 72.478508 
L 116.826265 75.671685 
L 116.786041 76.727741 
L 116.018138 78.615671 
L 115.974258 79.236335 
L 116.153435 79.664315 
L 117.016412 80.531392 
L 117.191933 80.915834 
L 117.524691 82.092316 
L 117.857449 82.489727 
L 119.261616 82.981626 
L 119.58706 83.674546 
L 119.762581 84.717633 
L 119.773551 86.687083 
L 119.506613 87.648649 
L 118.603413 89.438385 
L 118.285281 90.394393 
L 118.248715 92.245269 
L 118.014687 92.908546 
L 117.477154 93.58016 
L 116.924995 93.665385 
L 114.657852 92.477786 
L 113.911889 92.345316 
L 113.217119 92.570423 
L 112.291978 93.593129 
L 112.193248 93.821015 
L 112.156681 94.526904 
L 112.017727 94.953032 
L 111.125496 96.329609 
L 110.397816 97.951673 
L 110.430726 98.622361 
L 110.935349 99.44034 
L 113.659577 102.379694 
L 113.761965 102.940145 
L 113.637637 103.783136 
L 113.315849 104.56962 
L 111.809296 105.674772 
L 111.578925 106.254676 
L 111.359524 109.317237 
L 111.001169 110.029611 
L 109.856627 111.401556 
L 108.924173 113.107919 
L 108.29888 113.694308 
L 106.170691 113.46179 
L 104.792121 113.829557 
L 102.24707 114.878201 
L 101.676628 115.303403 
L 101.36581 116.020409 
L 101.285363 116.831904 
L 101.40969 117.536867 
L 101.844835 118.641093 
L 102.1264 119.731424 
L 101.877745 120.670757 
L 100.72589 121.318286 
L 99.409484 121.15154 
L 98.839042 121.32755 
L 98.572104 122.211301 
L 98.762251 123.095053 
L 96.341527 126.161319 
L 95.515117 126.54576 
L 94.834974 127.652765 
L 94.69602 128.645828 
L 94.933704 129.646301 
L 95.504147 131.371191 
L 95.50049 133.699145 
L 95.281089 134.443942 
L 94.553409 135.837194 
L 93.375957 139.51486 
L 92.834768 140.635761 
L 91.964478 141.243456 
L 89.134205 141.878015 
L 87.664219 141.237897 
L 86.197889 141.345356 
L 85.521403 141.906732 
L 85.181331 142.160556 
L 84.705962 142.227255 
L 81.978077 142.002148 
L 82.091434 142.952598 
L 82.014644 145.224969 
L 81.707482 146.424611 
L 81.221143 147.101783 
L 81.283307 147.395441 
L 81.608752 147.537175 
L 81.744049 147.787293 
L 81.729422 148.334774 
L 81.155323 149.908667 
L 81.338157 151.09534 
L 81.14801 151.284318 
L 80.551971 151.559448 
L 80.350853 151.829947 
L 80.342967 152.249766 
L 81.1151 162.034776 
L 80.837192 163.245534 
L 80.555627 163.667956 
L 79.849887 164.469261 
L 79.663397 164.917622 
L 79.743844 166.23028 
L 79.429369 168.401678 
L 79.557353 169.255786 
L 79.831604 170.046901 
L 80.767715 172.302598 
L 80.749431 173.089081 
L 80.102199 174.346157 
L 79.827947 174.952926 
L 79.732874 175.608792 
L 79.656083 177.752399 
L 79.209968 180.022918 
L 78.950343 182.601916 
L 78.507885 183.559777 
L 78.548108 183.858066 
L 78.83333 184.297163 
L 79.231908 185.325427 
L 80.394733 186.794641 
L 80.493464 187.309699 
L 80.072945 193.316245 
L 80.259436 194.722466 
L 80.968832 196.056431 
L 82.014644 197.314434 
L 82.797174 198.628018 
L 82.5924 200.649345 
L 82.479042 200.721602 
L 81.345471 200.56412 
L 81.074876 200.721602 
L 80.987116 201.118086 
L 81.692856 210.433605 
L 81.575842 210.772654 
L 81.294277 211.1432 
L 80.778685 212.310419 
L 80.913982 212.777307 
L 81.217487 213.162674 
L 82.146284 213.931557 
L 82.351059 214.270606 
L 82.212105 214.657826 
L 81.396664 214.987612 
L 80.983459 215.185854 
L 80.065632 216.475353 
L 80.182646 217.775968 
L 80.661671 219.150693 
L 80.837192 220.653256 
L 80.36548 222.933038 
L 80.544657 223.639854 
L 81.1151 224.221611 
L 82.124344 224.534722 
L 82.193821 224.898783 
L 82.310835 226.552344 
L 82.113374 226.957165 
L 81.678229 227.247117 
L 81.038309 227.822389 
L 80.632418 228.593124 
L 80.621447 229.327731 
L 80.924952 230.839558 
L 80.851819 231.59825 
L 80.076602 233.87618 
L 79.68168 236.213397 
L 79.647719 238.399886 
L 65.625635 239.720138 
L 62.789547 240.35911 
L 50.679304 241.752304 
L 41.308068 243.936 
L 41.052482 243.187994 
L 41.783818 242.796142 
L 46.329075 241.70859 
L 47.064069 241.664124 
L 45.711096 236.341235 
L 44.800582 234.861831 
L 44.497077 234.632093 
L 43.502459 234.042925 
L 43.425669 233.729814 
L 43.469549 232.600576 
L 43.246492 232.294876 
L 42.657766 231.804829 
L 42.518812 231.145258 
L 42.262844 231.054474 
L 41.582701 231.048916 
L 41.008602 230.642242 
L 40.518606 230.064191 
L 40.405249 229.69735 
L 40.482039 228.787661 
L 40.094431 228.069728 
L 39.637346 227.694551 
L 39.410631 227.291582 
L 39.703166 226.487498 
L 40.507636 225.398094 
L 40.650247 224.843202 
L 39.995701 222.014085 
L 40.262638 220.508743 
L 40.189505 220.010359 
L 39.871373 219.623139 
L 39.289961 219.184042 
L 38.891382 218.589316 
L 38.203926 216.041814 
L 40.876961 216.060342 
L 41.520537 215.867658 
L 41.366957 180.022918 
L 41.516881 170.20253 
L 41.140242 167.127 
L 40.961065 166.796288 
L 40.650247 166.575814 
L 40.825768 165.701326 
L 40.880618 164.774961 
L 42.043443 162.840713 
L 42.175084 162.20708 
L 42.02516 161.856914 
L 40.931811 160.289506 
L 40.880618 159.867083 
L 40.653903 142.27172 
L 40.463756 141.293479 
L 40.182191 140.430108 
L 39.454511 139.145241 
L 34.249061 133.567062 
L 33.578222 132.529147 
L 33.066286 131.099767 
L 32.824945 127.466566 
L 32.419054 126.449418 
L 31.812044 126.746781 
L 31.289139 126.210416 
L 30.930784 125.334075 
L 30.817426 124.6041 
L 30.963694 124.138139 
L 31.812044 122.712464 
L 31.980252 120.833797 
L 31.702344 119.159857 
L 31.548763 109.541417 
L 31.095334 108.321395 
L 11.202979 95.033626 
L 10.917758 94.493555 
L 10.888505 93.669091 
L 11.382157 89.976603 
L 11.901406 87.979361 
L 11.927003 86.577772 
L 11.645438 83.34754 
L 12.153717 82.148824 
L 14.077132 80.31277 
L 14.534218 79.653199 
L 14.643918 79.284506 
L 14.768245 78.082085 
L 15.320404 77.025104 
L 15.269211 76.636957 
L 14.888916 75.522541 
L 14.991303 74.810167 
L 15.89816 72.60264 
L 16.976882 73.199219 
L 18.084857 73.269623 
L 18.234781 73.077865 
L 18.322541 72.659149 
L 18.289631 72.238579 
L 17.678965 71.586419 
L 17.700905 70.822168 
L 17.825232 70.738795 
L 18.724776 69.469676 
L 18.889327 69.528037 
L 19.664544 69.651244 
L 20.37394 70.143143 
L 20.622595 70.575755 
L 20.845652 70.564639 
L 21.368558 70.332122 
L 22.816604 70.575755 
L 23.163989 71.108415 
L 23.423614 71.350196 
L 23.540627 71.188082 
L 23.580851 70.61281 
L 22.955558 69.817989 
L 22.750784 68.597968 
L 22.311982 68.373787 
L 22.290042 68.208895 
L 22.311982 67.616948 
L 21.979224 67.54006 
L 21.624526 67.790178 
L 21.587959 67.249181 
L 21.770793 67.169514 
L 23.142049 66.761914 
L 23.540627 65.925407 
L 23.917266 65.929112 
L 24.988674 66.393221 
L 24.80584 65.775336 
L 24.666886 64.553461 
L 24.005026 63.465909 
L 24.180547 63.016623 
L 24.546215 62.667383 
L 24.91554 62.10508 
L 25.255612 62.375579 
L 25.52255 62.784105 
L 25.475013 62.967525 
L 25.972322 62.881373 
L 26.462317 62.69888 
L 27.13149 62.732229 
L 27.705589 62.896195 
L 28.879385 63.454793 
L 29.384007 62.344082 
L 29.30356 61.992064 
L 28.956175 61.648383 
L 28.879385 61.363989 
L 29.054905 60.933229 
L 29.449827 61.130545 
L 30.08609 61.986506 
L 30.327431 61.690995 
L 30.576085 61.590948 
L 30.828397 61.690995 
L 31.073394 61.986506 
L 31.691374 61.461257 
L 31.621897 61.000854 
L 31.278168 60.509881 
L 31.073394 59.895701 
L 31.380556 59.216676 
L 32.086295 58.758126 
L 33.468522 58.048531 
L 33.132107 57.28428 
L 33.175987 56.983212 
L 33.468522 56.556158 
L 33.929264 56.21433 
L 34.733734 55.871575 
L 34.938508 55.356516 
L 35.516264 55.68167 
L 36.200064 55.822478 
L 39.527645 56.090197 
L 39.311901 57.068438 
L 39.926224 57.031383 
L 40.66853 58.407034 
L 44.826179 57.005445 
L 47.060412 57.068438 
L 48.449951 56.50984 
L 49.126438 56.370885 
L 49.74076 56.556158 
L 50.080832 56.330125 
L 50.512321 56.393118 
L 51.430148 56.823877 
L 52.925731 57.401929 
L 54.176317 57.499197 
L 55.310499 56.868815 
L 59.964846 52.130916 
L 62.550121 50.022511 
L 64.444282 48.964603 
L 64.934278 48.490304 
L 65.062262 48.149402 
L 65.054948 47.130401 
L 65.435243 46.115106 
L 66.795529 44.597721 
L 67.292838 43.665799 
L 68.569021 40.199344 
L 68.499544 39.832503 
L 68.086339 39.211839 
L 68.038802 38.819061 
L 68.239919 38.357731 
L 68.539767 38.279917 
L 68.872525 38.326235 
L 69.179687 38.239157 
L 69.417371 37.970511 
L 69.940277 37.194218 
L 70.294975 37.160869 
L 70.6643 37.296118 
L 70.923924 37.240536 
L 70.872731 36.178923 
L 70.64236 36.010324 
L 69.929307 35.760206 
L 69.311327 35.171038 
L 69.113866 34.815314 
L 67.921788 31.454465 
L 67.545149 28.642023 
L 67.855968 28.019506 
L 68.711631 27.626728 
L 69.19797 27.565587 
L 70.463182 27.554471 
L 71.022655 26.926396 
L 71.285936 26.987536 
L 71.666231 27.254329 
L 72.280554 26.335376 
L 73.128904 26.481741 
L 73.293455 26.839318 
L 73.76151 26.700363 
L 74.244193 26.289057 
L 75.641045 25.974094 
L 76.120071 26.170483 
L 77.004988 25.705448 
L 78.251917 26.037086 
L 78.573705 25.851814 
L 79.184371 24.795758 
L 79.356235 24.256614 
L 79.546383 24.045403 
L 79.930334 23.897185 
L 80.303316 24.147303 
L 80.672641 24.05652 
L 80.998086 23.793432 
L 81.564872 23.119039 
L 81.956137 22.863362 
L 82.296208 22.796664 
L 83.37493 22.750346 
L 84.215967 22.720702 
L 84.636485 22.176 
L 86.333186 23.687827 
L 87.053553 24.073194 
L 87.682502 24.897658 
L 87.909216 25.703595 
L 88.198094 26.003737 
L 89.006221 26.359461 
L 90.476208 26.583641 
L 90.955233 27.437749 
L 92.388653 29.542449 
L 99.1718 35.817641 
L 99.435081 37.396165 
L 99.694705 38.048326 
L 100.502832 39.406376 
L 101.307303 40.269747 
L 101.742448 40.562479 
L 102.232443 40.688464 
L 102.232443 40.688464 
" clip-path="url(#pac2566a89c)" style="fill: none; stroke: #000000; stroke-width: 2"/>
   </g>
  </g>
 </g>
 <defs>
  <clipPath id="pac2566a89c">
   <rect x="0" y="-0" width="130.662056" height="266.112"/>
  </clipPath>
 </defs>
</svg>
