<?xml version="1.0" encoding="utf-8" standalone="no"?>
<!DOCTYPE svg PUBLIC "-//W3C//DTD SVG 1.1//EN"
  "http://www.w3.org/Graphics/SVG/1.1/DTD/svg11.dtd">
<svg xmlns:xlink="http://www.w3.org/1999/xlink" width="357.12pt" height="262.68054pt" viewBox="0 0 357.12 262.68054" xmlns="http://www.w3.org/2000/svg" version="1.1">
 <metadata>
  <rdf:RDF xmlns:dc="http://purl.org/dc/elements/1.1/" xmlns:cc="http://creativecommons.org/ns#" xmlns:rdf="http://www.w3.org/1999/02/22-rdf-syntax-ns#">
   <cc:Work>
    <dc:type rdf:resource="http://purl.org/dc/dcmitype/StillImage"/>
    <dc:date>2024-02-02T21:57:59.745356</dc:date>
    <dc:format>image/svg+xml</dc:format>
    <dc:creator>
     <cc:Agent>
      <dc:title>Matplotlib v3.8.2, https://matplotlib.org/</dc:title>
     </cc:Agent>
    </dc:creator>
   </cc:Work>
  </rdf:RDF>
 </metadata>
 <defs>
  <style type="text/css">*{stroke-linejoin: round; stroke-linecap: butt}</style>
 </defs>
 <g id="figure_1">
  <g id="patch_1">
   <path d="M 0 262.68054 
L 357.12 262.68054 
L 357.12 0 
L 0 0 
L 0 262.68054 
z
" style="fill: none"/>
  </g>
  <g id="axes_1">
   <g id="PatchCollection_1">
    <path d="M 222.508773 24.883097 
L 223.870237 24.282497 
L 226.2132 22.858561 
L 228.562965 22.439931 
L 231.184829 23.053457 
L 236.216708 25.121745 
L 245.68185 28.391231 
L 245.771254 29.267271 
L 245.433074 29.783348 
L 244.9122 30.20695 
L 244.451576 30.807549 
L 244.389382 31.90931 
L 245.47972 34.138686 
L 245.728496 35.309058 
L 243.217415 42.409849 
L 243.438981 44.356824 
L 244.560415 46.218283 
L 250.492163 51.612737 
L 252.194723 53.985302 
L 252.155852 54.304494 
L 251.660244 55.113911 
L 251.283193 56.761581 
L 250.221037 58.609119 
L 250.387211 59.049624 
L 251.097583 60.030073 
L 251.539743 60.413899 
L 251.699115 60.739058 
L 251.656356 60.988645 
L 251.345387 61.608137 
L 251.349274 61.946222 
L 251.695228 62.340987 
L 252.185005 62.58063 
L 252.579548 62.918715 
L 252.65729 63.600853 
L 252.955627 64.280007 
L 254.641666 65.495126 
L 254.625146 65.830228 
L 254.317092 66.524298 
L 254.338471 66.928012 
L 254.570726 67.20743 
L 255.354953 67.723508 
L 255.650374 68.054633 
L 256.267583 69.183282 
L 256.423912 69.401009 
L 256.995319 69.929019 
L 258.26252 70.760311 
L 259.071042 71.722861 
L 259.794046 71.989352 
L 260.050596 72.350308 
L 259.296495 74.464337 
L 259.817369 75.422909 
L 260.808585 75.765966 
L 266.180588 75.686417 
L 266.289427 75.952908 
L 266.188362 77.056658 
L 266.639268 77.485231 
L 267.377821 77.844198 
L 268.046406 77.879995 
L 269.461319 77.742772 
L 271.198862 78.268794 
L 273.231827 79.489879 
L 274.751692 81.109707 
L 274.946048 82.843887 
L 275.649617 84.013265 
L 276.889609 84.926096 
L 281.659107 87.044102 
L 283.886428 87.40307 
L 284.461722 87.807778 
L 285.18084 88.6162 
L 284.158527 89.020909 
L 283.427748 88.671885 
L 282.813582 88.121999 
L 282.133336 87.921136 
L 281.935093 88.129954 
L 281.756285 88.556538 
L 281.379234 89.872089 
L 281.118797 89.953627 
L 280.283066 89.604603 
L 278.261763 89.096481 
L 275.25313 87.893294 
L 274.45627 87.756071 
L 273.962606 89.298338 
L 274.121978 100.074317 
L 274.45627 100.688837 
L 275.53689 101.284465 
L 278.226779 101.511181 
L 279.361818 102.078966 
L 295.22905 115.499968 
L 296.28246 116.090623 
L 297.530226 116.416776 
L 306.144088 117.166531 
L 306.808786 117.092947 
L 307.446274 116.671335 
L 308.931155 114.308713 
L 309.354851 113.608677 
L 309.661934 113.543049 
L 310.221679 113.728002 
L 310.637601 113.44759 
L 311.275089 112.743576 
L 311.621043 112.546691 
L 315.278825 112.852957 
L 316.787028 113.262637 
L 317.77047 114.418094 
L 318.131973 115.374677 
L 318.928833 116.106533 
L 319.616853 116.534112 
L 319.955033 116.963679 
L 320.328196 117.969981 
L 320.615843 120.28885 
L 321.105621 121.374701 
L 321.949126 122.651471 
L 321.824738 123.248093 
L 321.898594 124.095296 
L 321.634269 124.506964 
L 321.082298 124.650154 
L 318.656734 124.807264 
L 318.139747 124.572593 
L 317.902632 124.70385 
L 317.4595 125.212967 
L 315.290486 125.666399 
L 314.722967 126.143696 
L 314.633563 127.259379 
L 315.35268 128.607743 
L 325.400891 142.723809 
L 327.36 144.400316 
L 326.003394 148.121246 
L 325.474746 149.121581 
L 324.028737 150.750358 
L 323.624476 151.840187 
L 323.496201 153.299921 
L 322.975326 153.809038 
L 320.961797 154.944608 
L 318.213602 157.207792 
L 313.090375 162.473972 
L 312.060288 162.970162 
L 310.730892 162.865753 
L 307.706711 161.715268 
L 307.345209 161.957894 
L 306.692173 161.75902 
L 305.973055 161.908176 
L 304.495949 162.50778 
L 303.784605 162.559488 
L 302.120917 162.440163 
L 301.533962 162.627105 
L 300.814844 162.976128 
L 299.077301 163.347028 
L 298.435926 163.69108 
L 297.70126 163.944644 
L 296.912174 162.468006 
L 296.259137 162.50778 
L 296.488477 161.457726 
L 292.224305 161.01921 
L 291.610139 160.670186 
L 291.392461 161.223055 
L 290.047516 161.957894 
L 289.736547 162.416298 
L 289.689901 162.739468 
L 290.047516 163.559823 
L 289.429464 163.944644 
L 288.578184 164.32151 
L 287.82797 164.813723 
L 287.501452 165.542595 
L 287.71913 166.201862 
L 288.08452 166.728878 
L 288.158375 167.223079 
L 287.501452 167.786887 
L 287.241014 167.469683 
L 286.972803 167.362291 
L 286.708479 167.469683 
L 286.451929 167.786887 
L 286.214814 167.372235 
L 285.775569 166.86809 
L 285.35576 166.656289 
L 285.169178 167.118671 
L 285.250808 167.423942 
L 285.620085 167.792853 
L 285.705601 168.170713 
L 285.647294 168.470018 
L 285.169178 169.362962 
L 283.311134 168.587354 
L 282.273273 168.627129 
L 281.880673 168.844896 
L 281.550268 168.839924 
L 281.6008 168.643039 
L 281.317041 168.204522 
L 280.955538 167.914166 
L 280.562939 168.517748 
L 280.174227 168.892625 
L 279.987645 169.374894 
L 280.691214 170.542284 
L 280.838925 171.853857 
L 281.033281 172.517101 
L 279.49398 172.014945 
L 279.326834 172.21183 
L 279.070284 172.91286 
L 278.852605 173.067982 
L 277.418257 173.435899 
L 277.457128 174.01661 
L 277.597065 173.963909 
L 277.834179 173.748131 
L 278.187907 173.830663 
L 278.230666 173.987774 
L 278.187907 174.643063 
L 278.72433 174.881711 
L 279.109155 176.60197 
L 279.536739 177.046453 
L 279.49398 177.663957 
L 279.369592 177.837971 
L 278.825395 177.195609 
L 278.72433 177.006679 
L 278.343392 176.873433 
L 277.037319 176.785929 
L 276.392057 177.006679 
L 275.816763 176.375254 
L 275.373631 176.014298 
L 274.207494 175.887019 
L 273.737153 176.693452 
L 273.286247 177.271181 
L 273.262924 178.091535 
L 273.395086 178.441553 
L 273.912073 178.791571 
L 273.947057 179.243015 
L 273.853766 179.69247 
L 273.694394 179.898304 
L 272.516596 179.822732 
L 271.369895 179.182359 
L 262.864873 179.344441 
L 260.50539 179.804834 
L 255.805859 181.472391 
L 256.260652 179.838642 
L 255.654261 179.684515 
L 255.840843 179.374272 
L 255.848617 178.834329 
L 255.766988 178.779639 
L 226.118937 172.632448 
L 226.013985 173.253929 
L 226.24624 173.96192 
L 225.951791 174.533682 
L 225.474647 175.00203 
L 223.589392 176.393153 
L 222.913033 175.57777 
L 222.199746 174.998053 
L 221.472855 174.998053 
L 220.751793 175.922816 
L 220.576873 176.482646 
L 220.4933 177.355702 
L 220.289226 177.763394 
L 219.84415 178.128327 
L 218.854878 178.602641 
L 218.172688 179.297705 
L 218.040526 179.340463 
L 216.575081 179.28975 
L 215.793769 179.374272 
L 215.253459 179.579112 
L 214.905562 180.22048 
L 214.63152 181.165131 
L 214.250582 182.03421 
L 213.591715 182.444884 
L 211.786147 180.688828 
L 211.898873 180.420348 
L 212.342005 179.806822 
L 212.118496 179.537348 
L 211.768655 179.505529 
L 211.339128 179.567179 
L 211.288595 179.13264 
L 206.738719 179.039169 
L 206.544363 178.763729 
L 206.332515 178.678213 
L 206.110949 178.771684 
L 205.895213 179.039169 
L 205.090579 179.175398 
L 204.249017 180.110105 
L 203.594037 180.202581 
L 203.844757 179.67656 
L 203.452157 179.69247 
L 203.259745 179.569168 
L 202.997364 179.049113 
L 202.71166 178.84825 
L 202.39486 178.783616 
L 197.209439 178.36797 
L 196.142424 178.535024 
L 195.810075 179.120708 
L 186.492644 179.029226 
L 185.550017 178.854217 
L 183.454858 178.02889 
L 178.702852 177.879735 
L 178.047872 178.086564 
L 177.777717 178.76174 
L 177.338472 179.013316 
L 134.010667 179.447855 
L 133.995119 179.039169 
L 130.752287 178.979507 
L 130.804763 179.202246 
L 130.700783 179.475697 
L 130.926236 180.210536 
L 131.338271 180.892674 
L 131.563724 181.629501 
L 131.351876 182.510512 
L 130.845578 183.07432 
L 130.24599 183.53869 
L 129.740664 184.126363 
L 129.462734 184.927824 
L 129.047784 186.712717 
L 128.415155 187.754816 
L 128.279106 188.633838 
L 128.073088 188.998772 
L 127.556101 189.632185 
L 127.758231 190.194004 
L 128.093496 190.308356 
L 128.202335 190.479388 
L 128.119734 190.898017 
L 128.01381 191.045184 
L 127.78447 191.676608 
L 127.17322 192.976249 
L 127.332592 193.711088 
L 128.551204 196.114478 
L 128.714463 197.311699 
L 129.507436 198.230496 
L 129.622106 198.982239 
L 129.916556 199.468486 
L 131.237206 200.645819 
L 131.699773 200.884468 
L 132.311995 200.988877 
L 133.231299 201.012741 
L 133.377066 201.177807 
L 133.213807 201.538763 
L 132.869797 201.900713 
L 132.457762 202.064784 
L 131.606482 202.235816 
L 131.04868 202.829454 
L 130.79213 203.392267 
L 130.603605 204.176824 
L 130.603605 204.984252 
L 130.908744 205.611699 
L 131.237206 205.756877 
L 131.942718 205.880179 
L 132.077796 206.137721 
L 132.169143 206.576237 
L 132.41306 206.667719 
L 132.741522 206.657776 
L 133.72302 207.146011 
L 133.851295 207.350851 
L 133.872674 207.845053 
L 133.748286 208.357153 
L 133.468414 208.696233 
L 132.706538 209.301804 
L 132.214817 210.093322 
L 132.197325 210.85998 
L 132.589924 212.598138 
L 132.589924 215.895466 
L 132.774562 216.675052 
L 133.627786 217.973698 
L 133.872674 218.665779 
L 133.827972 219.652193 
L 133.478131 221.3993 
L 133.641391 222.369804 
L 134.642324 224.207399 
L 134.403266 224.59918 
L 133.103024 226.071841 
L 132.47331 227.357561 
L 132.333374 228.163 
L 132.589924 228.961478 
L 132.897007 229.308513 
L 133.641391 229.4875 
L 133.83186 229.798737 
L 133.999006 230.503745 
L 134.407154 230.824926 
L 133.927094 231.245545 
L 133.604463 231.809352 
L 133.417881 232.438788 
L 133.359574 233.05828 
L 133.425655 233.684732 
L 133.620011 234.080491 
L 134.966899 235.326436 
L 136.323505 237.063599 
L 135.14765 238.199169 
L 134.228346 240.166031 
L 133.522833 240.790495 
L 132.622965 240.719895 
L 131.764882 240.050684 
L 128.01381 234.985367 
L 126.143132 231.295263 
L 125.468717 229.50341 
L 125.011008 228.608477 
L 124.421137 228.002906 
L 123.70785 227.831875 
L 122.413439 228.218685 
L 121.735136 228.18587 
L 121.078212 227.630018 
L 120.708936 226.734091 
L 120.237622 224.880587 
L 119.484492 223.947868 
L 118.612805 223.748995 
L 117.768328 223.731096 
L 117.112376 223.33832 
L 116.947174 222.568678 
L 117.01617 220.91902 
L 116.55749 220.63463 
L 115.975393 221.054254 
L 114.703332 222.887871 
L 114.184402 223.411903 
L 113.286476 223.501397 
L 112.907482 223.001229 
L 112.705352 221.184516 
L 111.533384 221.736391 
L 111.132039 221.524591 
L 110.4722 220.909076 
L 109.997971 220.726112 
L 104.081772 220.229922 
L 101.833072 220.536188 
L 101.190725 220.398965 
L 100.543519 219.797371 
L 100.256844 219.519942 
L 99.749574 219.352888 
L 99.622271 219.442381 
L 99.073215 219.996245 
L 98.836101 219.948515 
L 98.064507 219.62634 
L 95.689475 220.030054 
L 95.308537 220.285606 
L 94.386318 221.182528 
L 93.663313 221.401289 
L 91.100486 221.470634 
L 90.405905 221.678718 
L 88.990021 222.607459 
L 88.183443 222.814288 
L 87.624669 223.115581 
L 87.227211 224.28496 
L 85.70929 224.406273 
L 85.093181 224.793082 
L 85.005721 225.175915 
L 84.772493 225.227622 
L 82.020411 224.298881 
L 81.373205 224.380419 
L 80.694902 224.898486 
L 79.616226 226.432797 
L 78.922375 226.821596 
L 77.505519 227.006548 
L 76.857341 227.242214 
L 76.356874 227.700618 
L 76.963265 227.883582 
L 75.617349 229.443747 
L 75.611519 229.782827 
L 75.723273 230.691681 
L 75.629011 231.175939 
L 74.893373 232.438788 
L 73.295766 231.851115 
L 73.183039 232.458675 
L 73.190814 233.0901 
L 73.064482 233.437134 
L 72.549438 233.188542 
L 72.296775 232.769913 
L 71.974144 231.506069 
L 71.637908 230.944251 
L 70.725406 230.723501 
L 69.377547 230.789129 
L 68.155047 230.663839 
L 67.620568 229.868343 
L 67.706084 229.163335 
L 68.075361 228.166977 
L 68.158934 227.504727 
L 68.070502 227.315797 
L 67.5506 227.138799 
L 66.748881 227.212383 
L 66.600198 227.624052 
L 66.41556 228.153056 
L 66.398068 228.671123 
L 66.256188 229.06887 
L 65.710047 229.224986 
L 65.273718 229.066881 
L 64.732436 228.246527 
L 64.306796 227.88756 
L 63.820906 228.39966 
L 63.377774 228.63632 
L 62.359348 228.698965 
L 62.400163 228.796413 
L 62.020197 229.284648 
L 61.381737 229.592903 
L 61.391455 229.443747 
L 61.200986 229.224986 
L 60.491586 228.852098 
L 60.215601 227.899492 
L 59.568395 227.230281 
L 59.255481 226.887224 
L 58.493605 226.881258 
L 58.360472 227.010526 
L 58.423637 227.188518 
L 58.637429 227.385403 
L 58.066022 227.494784 
L 57.56847 226.686361 
L 57.069947 226.835517 
L 56.890168 226.375124 
L 56.555875 226.071841 
L 56.555875 225.785463 
L 57.24098 225.763587 
L 57.842513 225.54582 
L 57.484897 224.898486 
L 57.300259 224.025429 
L 56.994148 223.447701 
L 56.276002 223.681378 
L 56.023339 222.891848 
L 55.489832 222.411568 
L 54.742533 222.170931 
L 53.549186 222.024758 
L 53.249878 221.662808 
L 52.822295 221.580275 
L 52.532704 221.756279 
L 52.121641 222.353895 
L 51.796094 222.236559 
L 50.690208 221.196449 
L 50.643563 220.759921 
L 51.183873 219.181857 
L 51.113904 218.938236 
L 50.703813 218.037338 
L 50.113942 217.089704 
L 50.910802 217.060867 
L 51.053654 216.540812 
L 50.793217 215.835804 
L 50.372436 215.250121 
L 49.018746 214.345245 
L 48.828277 213.65018 
L 48.454141 213.972356 
L 48.013925 214.164269 
L 47.596059 214.102618 
L 47.289948 213.65018 
L 47.802077 213.410537 
L 46.77782 213.148024 
L 47.118915 212.828831 
L 48.00032 212.519583 
L 47.930352 212.217294 
L 46.97995 211.583881 
L 46.754497 211.191105 
L 47.009104 210.497035 
L 46.002339 210.539793 
L 46.023718 210.121164 
L 46.345378 209.425105 
L 46.239454 208.634582 
L 45.957637 209.138727 
L 45.468832 209.423117 
L 45.011123 209.381353 
L 44.968365 209.210322 
L 45.209366 208.777771 
L 45.209366 206.663742 
L 44.905466 206.073657 
L 44.311441 205.677328 
L 43.695332 205.62562 
L 43.415459 206.137721 
L 43.079223 206.175507 
L 41.230897 205.07474 
L 40.630337 205.238811 
L 38.257249 204.955416 
L 37.975432 205.133408 
L 37.547849 205.639542 
L 36.682964 205.756877 
L 36.319518 205.611699 
L 36.125162 205.524195 
L 35.666482 206.007458 
L 34.906549 205.977627 
L 34.274892 205.820517 
L 33.759848 205.552037 
L 33.238974 204.959393 
L 32.94744 204.302115 
L 32.72393 204.166881 
L 32.115596 204.104235 
L 31.581117 203.905362 
L 31.538358 203.236151 
L 31.079678 202.265647 
L 30.416924 201.394579 
L 29.76 201.012741 
L 29.966017 200.4549 
L 30.41498 198.1768 
L 31.2993 196.785678 
L 31.808513 194.765119 
L 31.69773 194.398197 
L 31.415914 194.133695 
L 31.458672 193.544034 
L 31.71911 192.926531 
L 32.092273 192.581484 
L 31.515036 192.357751 
L 31.262373 191.055128 
L 31.814344 188.421043 
L 32.06895 188.137648 
L 32.622865 187.804534 
L 32.665624 187.100521 
L 33.188442 184.880094 
L 33.050449 184.409758 
L 32.601486 183.598352 
L 31.903748 180.908584 
L 31.394535 179.844608 
L 30.541312 180.049449 
L 30.774539 179.049113 
L 30.333351 176.711351 
L 30.449964 176.10578 
L 30.994161 175.742835 
L 35.384665 175.063681 
L 36.014379 174.789235 
L 36.908417 174.224433 
L 37.291299 173.68648 
L 37.522583 172.117365 
L 37.878254 171.229393 
L 39.061883 170.024218 
L 39.528337 169.220767 
L 39.600249 168.599286 
L 39.339812 164.586012 
L 39.505015 163.886971 
L 40.080309 163.386803 
L 40.898548 162.990049 
L 41.203687 162.654947 
L 41.170647 162.156768 
L 40.966573 161.276751 
L 40.964629 158.091786 
L 40.616732 156.736461 
L 39.279562 155.654587 
L 38.132861 155.565094 
L 37.845214 155.133538 
L 37.837439 154.696015 
L 38.535178 153.486862 
L 38.937495 151.138162 
L 38.900567 150.461991 
L 38.614864 149.696327 
L 38.169788 149.167322 
L 37.575059 148.789462 
L 36.45168 148.349951 
L 36.127106 148.326086 
L 35.474069 148.459331 
L 35.328302 148.298244 
L 34.144674 147.64196 
L 33.905616 147.017496 
L 34.659717 146.870329 
L 34.82492 146.929991 
L 35.503223 147.339672 
L 35.70341 147.278021 
L 36.10767 146.894194 
L 37.573115 146.60185 
L 37.886028 146.343314 
L 38.125086 146.331381 
L 39.06577 146.675433 
L 39.326207 146.45866 
L 40.078365 145.404629 
L 41.536036 144.209397 
L 43.102546 142.586586 
L 44.26188 142.222647 
L 46.054815 141.216346 
L 46.639827 141.168616 
L 49.237396 141.16265 
L 49.996357 140.858373 
L 50.337452 140.562051 
L 51.153747 140.221976 
L 51.969071 140.297548 
L 52.773706 140.490456 
L 53.553073 140.498411 
L 55.159427 139.915711 
L 55.949484 139.929632 
L 56.680263 140.562051 
L 57.330384 140.349256 
L 58.39254 140.164303 
L 58.933822 139.83815 
L 59.483234 138.984511 
L 59.752061 138.489785 
L 60.147576 138.147722 
L 60.546006 138.052263 
L 61.690763 138.11988 
L 62.474903 137.662044 
L 62.62756 137.264722 
L 62.703359 136.646224 
L 63.099845 135.894481 
L 64.446733 135.124839 
L 65.577885 135.073132 
L 65.945218 134.665441 
L 65.002591 132.827847 
L 68.46213 129.918322 
L 68.510719 129.687628 
L 68.444638 129.254083 
L 68.66426 128.07675 
L 69.077267 127.822192 
L 69.63021 127.788383 
L 69.999486 128.09266 
L 70.633087 128.806617 
L 71.749663 128.585867 
L 71.402737 126.937203 
L 70.038358 123.665728 
L 70.337666 122.736987 
L 72.47364 120.014404 
L 72.460035 119.869226 
L 72.256933 119.735981 
L 71.927499 119.236807 
L 71.134526 117.43501 
L 70.510643 116.816513 
L 68.876108 115.547697 
L 68.545703 114.911301 
L 68.774071 112.914608 
L 68.907205 112.809204 
L 69.161812 112.872844 
L 69.562185 112.815171 
L 70.654467 112.385603 
L 71.904176 112.072377 
L 73.151942 111.978906 
L 74.257829 112.217555 
L 75.330674 112.8629 
L 75.845718 113.012056 
L 76.63286 112.914608 
L 77.334486 112.67397 
L 77.848557 112.32793 
L 78.218806 111.849638 
L 79.055509 108.892384 
L 78.575449 107.14826 
L 78.700809 104.964625 
L 78.399557 103.898661 
L 77.70279 103.013673 
L 76.609537 102.078966 
L 76.127534 101.415721 
L 75.124657 99.207227 
L 73.820527 97.851902 
L 73.820527 97.380571 
L 74.251998 96.72727 
L 74.724283 95.447517 
L 75.357884 95.178043 
L 77.765956 95.296373 
L 78.193539 95.176054 
L 78.457864 94.83598 
L 78.373319 94.500878 
L 77.576459 94.054406 
L 77.316994 93.69345 
L 77.48997 93.11771 
L 78.043885 92.436567 
L 79.295539 91.428276 
L 79.658984 91.362648 
L 80.372271 91.452141 
L 80.780419 91.229403 
L 81.491762 90.404076 
L 82.075803 89.471358 
L 83.102975 87.206185 
L 84.041714 86.458419 
L 85.048479 86.193917 
L 85.388602 85.984105 
L 85.963896 85.326827 
L 86.82295 85.019567 
L 87.892881 84.207167 
L 88.092096 83.8482 
L 87.796674 83.639382 
L 87.316615 83.606568 
L 87.100879 83.441503 
L 87.861784 82.694731 
L 88.140685 82.839909 
L 88.360307 83.16109 
L 88.677107 84.167392 
L 88.999739 84.300638 
L 90.109512 84.575084 
L 90.086189 84.988741 
L 89.82478 85.142868 
L 89.178546 85.310917 
L 87.624669 86.676186 
L 88.092096 87.050069 
L 88.964754 87.277779 
L 91.0638 87.351362 
L 92.362099 87.86744 
L 94.598166 88.574437 
L 97.389119 90.818728 
L 99.108199 91.860827 
L 102.452096 94.337801 
L 102.948676 94.264218 
L 103.198423 94.361666 
L 104.13522 95.218812 
L 104.382052 95.260576 
L 105.223614 95.241683 
L 107.274071 95.554909 
L 107.729836 95.437573 
L 108.105915 94.82007 
L 108.064128 94.127989 
L 107.624883 92.793545 
L 107.76482 91.705705 
L 108.592777 91.380547 
L 114.765526 91.007658 
L 115.283485 90.66659 
L 113.955061 81.067943 
L 114.51092 79.647984 
L 114.709163 78.741119 
L 114.866592 76.599248 
L 114.619759 75.674484 
L 113.842335 75.080846 
L 114.590606 74.339046 
L 115.592512 74.68807 
L 117.269805 75.960863 
L 118.318356 76.068254 
L 119.142426 75.893245 
L 119.929568 75.869381 
L 120.872195 76.42921 
L 121.542723 77.064612 
L 121.727362 77.427557 
L 121.832314 77.991365 
L 122.095667 78.583014 
L 122.528109 78.425904 
L 123.182117 77.704986 
L 123.915811 77.399715 
L 125.146086 77.609527 
L 125.675706 77.901871 
L 125.95072 77.85613 
L 128.574527 76.855795 
L 127.516258 73.223364 
L 127.340366 71.161042 
L 127.938011 69.686393 
L 128.603681 68.584631 
L 130.01179 63.535224 
L 129.841729 63.383086 
L 129.625994 63.428827 
L 130.620125 61.795078 
L 136.17385 58.708556 
L 138.935651 55.614079 
L 139.777213 54.894155 
L 142.83249 53.141082 
L 144.881004 52.638926 
L 147.741925 53.262395 
L 156.532652 57.440735 
L 157.73766 57.72413 
L 158.320728 57.631654 
L 161.218577 56.209706 
L 161.364344 55.804998 
L 162.056252 46.353518 
L 162.35556 45.335284 
L 163.484769 44.833127 
L 165.28645 44.751589 
L 168.376712 44.993221 
L 171.019955 44.855003 
L 173.643763 44.356824 
L 186.68117 35.934517 
L 188.28072 35.176807 
L 195.466065 33.414785 
L 196.900413 32.802253 
L 198.232634 31.967039 
L 206.013771 25.115779 
L 208.457581 22.786285 
L 209.148734 22.281827 
L 210.396501 21.94573 
L 219.867473 21.890045 
L 220.215371 22.061077 
L 221.082199 24.381934 
L 221.453419 24.865198 
L 222.508773 24.883097 
L 222.508773 24.883097 
" clip-path="url(#p43b2405fbd)" style="fill: none; stroke: #000000; stroke-width: 2"/>
   </g>
  </g>
 </g>
 <defs>
  <clipPath id="p43b2405fbd">
   <rect x="0" y="0" width="357.12" height="262.68054"/>
  </clipPath>
 </defs>
</svg>
