<?xml version="1.0" encoding="utf-8" standalone="no"?>
<!DOCTYPE svg PUBLIC "-//W3C//DTD SVG 1.1//EN"
  "http://www.w3.org/Graphics/SVG/1.1/DTD/svg11.dtd">
<svg xmlns:xlink="http://www.w3.org/1999/xlink" width="191.368563pt" height="266.112pt" viewBox="0 0 191.368563 266.112" xmlns="http://www.w3.org/2000/svg" version="1.1">
 <metadata>
  <rdf:RDF xmlns:dc="http://purl.org/dc/elements/1.1/" xmlns:cc="http://creativecommons.org/ns#" xmlns:rdf="http://www.w3.org/1999/02/22-rdf-syntax-ns#">
   <cc:Work>
    <dc:type rdf:resource="http://purl.org/dc/dcmitype/StillImage"/>
    <dc:date>2024-02-02T21:57:59.773362</dc:date>
    <dc:format>image/svg+xml</dc:format>
    <dc:creator>
     <cc:Agent>
      <dc:title>Matplotlib v3.8.2, https://matplotlib.org/</dc:title>
     </cc:Agent>
    </dc:creator>
   </cc:Work>
  </rdf:RDF>
 </metadata>
 <defs>
  <style type="text/css">*{stroke-linejoin: round; stroke-linecap: butt}</style>
 </defs>
 <g id="figure_1">
  <g id="patch_1">
   <path d="M 0 266.112 
L 191.368563 266.112 
L 191.368563 0 
L 0 0 
L 0 266.112 
z
" style="fill: none"/>
  </g>
  <g id="axes_1">
   <g id="PatchCollection_1">
    <path d="M 151.121858 207.152733 
L 152.368809 209.642875 
L 152.680547 211.13328 
L 152.604719 211.929083 
L 152.284556 213.511489 
L 152.208728 214.359426 
L 151.894182 215.015695 
L 151.138709 215.046361 
L 150.270899 214.891494 
L 149.596871 214.992695 
L 149.596871 215.195095 
L 149.756953 215.480296 
L 149.773803 215.774697 
L 149.360961 215.997032 
L 148.995863 215.963298 
L 148.695359 215.747097 
L 148.493151 215.438896 
L 148.344303 214.771894 
L 148.240391 214.514293 
L 148.248816 214.242892 
L 148.788038 213.451689 
L 148.877908 213.062221 
L 148.889142 212.163684 
L 148.71221 210.642612 
L 147.98763 208.13407 
L 148.181413 206.738731 
L 148.507193 205.993528 
L 148.830165 205.64546 
L 149.209305 205.680727 
L 149.714826 206.079395 
L 149.883333 206.570064 
L 149.723251 207.152733 
L 149.470491 207.750735 
L 149.360961 208.278203 
L 149.900183 207.603534 
L 150.113626 206.701931 
L 150.074307 205.745127 
L 149.827164 204.910991 
L 150.445022 204.815924 
L 151.012329 204.65339 
L 151.023563 205.257526 
L 151.012329 205.450726 
L 151.121858 207.152733 
" clip-path="url(#p5fb7e701aa)" style="fill: none; stroke: #000000; stroke-width: 2"/>
    <path d="M 54.699413 206.229663 
L 54.278146 206.896665 
L 53.236211 206.326263 
L 51.48374 204.199522 
L 51.480931 204.052321 
L 51.69999 203.819254 
L 51.921858 203.110851 
L 51.907815 202.380982 
L 51.559568 201.126711 
L 51.469698 200.539442 
L 51.24783 199.881639 
L 51.281532 199.532038 
L 51.685948 199.509038 
L 51.829179 199.611772 
L 51.947134 199.789639 
L 52.039813 200.01044 
L 52.174618 200.539442 
L 52.511632 203.078651 
L 52.907623 204.191855 
L 53.699605 204.65339 
L 54.502821 205.193125 
L 54.699413 206.229663 
" clip-path="url(#p5fb7e701aa)" style="fill: none; stroke: #000000; stroke-width: 2"/>
    <path d="M 147.751721 206.376863 
L 147.456834 206.738731 
L 147.161947 206.105462 
L 147.709594 202.982051 
L 147.456834 201.05311 
L 147.583214 200.396841 
L 147.833166 199.912306 
L 148.653233 198.970836 
L 148.788038 199.08737 
L 148.844207 199.210037 
L 148.889142 199.509038 
L 149.304792 200.918177 
L 149.360961 201.450245 
L 149.248624 202.048247 
L 148.762762 203.015784 
L 148.501576 204.320656 
L 147.751721 206.376863 
" clip-path="url(#p5fb7e701aa)" style="fill: none; stroke: #000000; stroke-width: 2"/>
    <path d="M 104.605534 198.851236 
L 104.260095 199.703772 
L 103.973633 199.509038 
L 103.734915 199.509038 
L 103.442836 200.268041 
L 102.878338 201.082244 
L 102.204311 201.626579 
L 101.594878 201.589779 
L 101.594878 201.310711 
L 101.842021 201.252444 
L 102.280139 201.091444 
L 102.558175 201.05311 
L 102.263288 200.623775 
L 102.089165 200.429041 
L 101.830787 200.255774 
L 102.055463 200.00584 
L 102.052655 199.716039 
L 102.002103 199.372571 
L 102.086356 198.970836 
L 102.229587 198.713235 
L 102.381243 198.532301 
L 104.698213 196.913095 
L 104.698213 197.682831 
L 104.83021 197.863765 
L 104.950973 198.1183 
L 105.150373 198.713235 
L 104.605534 198.851236 
" clip-path="url(#p5fb7e701aa)" style="fill: none; stroke: #000000; stroke-width: 2"/>
    <path d="M 95.680286 202.077381 
L 95.360123 202.288982 
L 95.211275 202.200048 
L 95.211275 200.445908 
L 95.346081 199.545838 
L 95.680286 198.713235 
L 96.43295 197.28263 
L 97.033958 196.603361 
L 97.823132 196.397893 
L 97.696752 197.225896 
L 96.828941 198.716302 
L 96.003258 201.671046 
L 95.680286 202.077381 
" clip-path="url(#p5fb7e701aa)" style="fill: none; stroke: #000000; stroke-width: 2"/>
    <path d="M 96.154914 197.449764 
L 95.935855 197.449764 
L 96.152105 196.647828 
L 96.593032 195.55149 
L 97.118212 194.689754 
L 97.587222 194.59622 
L 97.368163 195.536157 
L 96.390824 196.670828 
L 96.154914 197.449764 
" clip-path="url(#p5fb7e701aa)" style="fill: none; stroke: #000000; stroke-width: 2"/>
    <path d="M 99.120635 199.881639 
L 98.556137 200.154574 
L 98.101168 199.915373 
L 97.831557 199.366438 
L 97.823132 198.713235 
L 98.011298 198.179633 
L 98.241591 197.787098 
L 98.429757 197.31023 
L 98.511202 196.514427 
L 98.429757 195.324556 
L 98.556137 194.962688 
L 99.00268 194.59622 
L 99.235781 194.853821 
L 100.550135 196.269093 
L 100.99387 197.281097 
L 100.654048 198.478634 
L 99.912617 198.929436 
L 99.120635 199.881639 
" clip-path="url(#p5fb7e701aa)" style="fill: none; stroke: #000000; stroke-width: 2"/>
    <path d="M 105.386282 190.224671 
L 104.698213 192.540013 
L 104.695404 192.165878 
L 104.639235 191.91901 
L 104.445452 191.486609 
L 104.043844 192.783814 
L 103.841636 194.217485 
L 103.532707 195.511624 
L 102.794085 196.397893 
L 102.145334 196.606428 
L 101.783044 196.42856 
L 101.631388 196.011492 
L 101.594878 195.497823 
L 101.780235 195.157422 
L 103.004719 194.082552 
L 102.794085 193.824951 
L 101.311224 194.711221 
L 101.123058 195.088422 
L 100.906808 195.088422 
L 100.974211 194.208285 
L 101.184844 193.386416 
L 101.578027 192.776147 
L 102.190269 192.540013 
L 102.625578 192.259412 
L 103.543941 191.218275 
L 103.973633 191.229008 
L 104.26852 190.796606 
L 104.672937 190.399472 
L 105.077353 190.166404 
L 105.386282 190.224671 
" clip-path="url(#p5fb7e701aa)" style="fill: none; stroke: #000000; stroke-width: 2"/>
    <path d="M 117.142446 188.565598 
L 117.232316 188.912133 
L 117.232316 190.948407 
L 116.965514 191.82241 
L 116.288678 192.001811 
L 115.937622 191.426809 
L 115.974132 190.374938 
L 116.224083 189.237201 
L 116.50212 188.399998 
L 116.715562 188.680599 
L 116.900919 188.432198 
L 117.041342 188.399998 
L 117.142446 188.565598 
" clip-path="url(#p5fb7e701aa)" style="fill: none; stroke: #000000; stroke-width: 2"/>
    <path d="M 118.305143 189.044 
L 117.911961 189.405868 
L 117.934428 187.392594 
L 118.136636 186.639725 
L 118.61969 186.854392 
L 118.650582 187.547461 
L 118.54667 188.349397 
L 118.305143 189.044 
" clip-path="url(#p5fb7e701aa)" style="fill: none; stroke: #000000; stroke-width: 2"/>
    <path d="M 118.38378 185.802521 
L 117.100319 187.861796 
L 116.558289 187.636395 
L 116.662201 187.10586 
L 117.018874 186.472591 
L 117.232316 185.943589 
L 117.353079 184.235449 
L 117.558096 183.315446 
L 117.911961 182.714377 
L 118.170338 182.994978 
L 118.364121 183.56538 
L 118.501735 184.259983 
L 118.532628 185.023585 
L 118.38378 185.802521 
" clip-path="url(#p5fb7e701aa)" style="fill: none; stroke: #000000; stroke-width: 2"/>
    <path d="M 121.569952 192.586137 
L 120.910321 193.020813 
L 120.057615 192.972414 
L 119.501542 192.831347 
L 119.114532 192.559452 
L 118.90243 192.004328 
L 119.897841 190.800046 
L 120.529434 189.795336 
L 120.765344 189.169734 
L 121.082192 187.334954 
L 121.111374 184.685934 
L 121.307431 181.763207 
L 121.909852 181.659636 
L 123.105348 182.280411 
L 123.862791 182.95147 
L 124.125176 183.892729 
L 124.641002 184.361183 
L 124.986441 185.719721 
L 125.003292 186.596791 
L 125.172022 187.823907 
L 124.612669 188.976514 
L 124.278712 189.545402 
L 124.051228 190.01307 
L 123.608122 190.897213 
L 122.89184 191.496377 
L 122.397032 191.822093 
L 121.959282 191.927571 
L 121.569952 192.586137 
" clip-path="url(#p5fb7e701aa)" style="fill: none; stroke: #000000; stroke-width: 2"/>
    <path d="M 106.065927 180.141434 
L 106.568639 181.061438 
L 106.94778 182.104108 
L 107.032033 182.994978 
L 106.652893 182.231375 
L 106.560214 181.944641 
L 106.315879 182.613177 
L 106.534938 184.118915 
L 106.307453 184.772118 
L 106.130521 184.43785 
L 106.09682 184.033048 
L 106.105245 183.61138 
L 106.071544 183.229579 
L 106.307453 183.229579 
L 106.088394 182.553376 
L 105.8244 181.070638 
L 105.599725 180.400568 
L 105.391899 180.254901 
L 105.161607 180.299368 
L 104.970632 180.233434 
L 104.891996 179.745833 
L 104.976249 179.512765 
L 105.184074 179.436098 
L 105.419984 179.485165 
L 105.599725 179.627766 
L 106.065927 180.141434 
" clip-path="url(#p5fb7e701aa)" style="fill: none; stroke: #000000; stroke-width: 2"/>
    <path d="M 106.773656 180.162901 
L 106.560214 180.400568 
L 106.768039 178.18796 
L 106.855101 178.292227 
L 107.032033 178.316761 
L 107.175264 178.727696 
L 107.234241 179.130964 
L 107.245475 179.862366 
L 106.891611 180.064767 
L 106.773656 180.162901 
" clip-path="url(#p5fb7e701aa)" style="fill: none; stroke: #000000; stroke-width: 2"/>
    <path d="M 124.23157 179.423659 
L 123.356047 179.468647 
L 122.650188 179.018917 
L 122.9902 177.973931 
L 124.200006 177.435907 
L 125.627671 177.011165 
L 126.001848 177.733666 
L 125.66319 178.612648 
L 124.946318 179.10092 
L 124.23157 179.423659 
" clip-path="url(#p5fb7e701aa)" style="fill: none; stroke: #000000; stroke-width: 2"/>
    <path d="M 137.88539 181.25669 
L 136.240639 181.453949 
L 135.154704 180.831395 
L 134.135449 179.32688 
L 133.553642 177.828574 
L 133.351002 176.611438 
L 134.143984 174.689511 
L 134.861521 174.312464 
L 137.926166 178.386013 
L 138.17714 179.990913 
L 137.88539 181.25669 
" clip-path="url(#p5fb7e701aa)" style="fill: none; stroke: #000000; stroke-width: 2"/>
    <path d="M 112.786543 190.663206 
L 110.952626 193.545883 
L 110.351619 194.082552 
L 110.301067 193.920018 
L 110.098858 193.542816 
L 109.306876 194.383086 
L 108.986713 194.58242 
L 108.085201 196.141826 
L 107.781889 196.256826 
L 107.352196 196.49296 
L 106.914078 196.675428 
L 106.560214 196.630961 
L 106.282177 195.799891 
L 106.689402 194.725021 
L 107.335345 193.582683 
L 107.745379 192.540013 
L 105.818783 195.382823 
L 105.268328 195.497823 
L 105.043652 194.748021 
L 105.189691 193.680817 
L 105.577257 192.58908 
L 106.071544 191.76721 
L 105.689595 190.939207 
L 106.020992 189.543868 
L 107.458917 186.36679 
L 107.630232 185.750388 
L 107.745379 185.029719 
L 107.748187 182.824777 
L 107.958821 182.176175 
L 107.680785 181.062971 
L 107.604956 180.326968 
L 107.745379 179.862366 
L 107.745379 179.627766 
L 107.357813 178.92703 
L 106.956205 176.645421 
L 106.560214 175.745351 
L 106.004141 175.24395 
L 104.057887 173.839411 
L 103.499005 173.686077 
L 103.333307 172.296872 
L 103.414752 170.981267 
L 104.184267 167.879323 
L 104.420176 167.463788 
L 104.790892 167.187787 
L 105.386282 166.950119 
L 105.992907 166.801386 
L 106.666935 166.733919 
L 107.013951 167.849951 
L 107.391045 169.183737 
L 107.824105 170.240284 
L 108.420243 171.464027 
L 108.908132 172.353914 
L 109.452171 173.02303 
L 109.994221 173.913128 
L 110.254043 175.739732 
L 110.683102 176.904259 
L 111.497968 177.740767 
L 113.019328 179.13646 
L 113.722895 180.026935 
L 113.032619 183.608706 
L 113.073005 189.692602 
L 112.786543 190.663206 
" clip-path="url(#p5fb7e701aa)" style="fill: none; stroke: #000000; stroke-width: 2"/>
    <path d="M 105.150373 163.348306 
L 105.845463 164.103812 
L 106.483668 164.402511 
L 107.117831 165.170171 
L 107.621807 165.945782 
L 107.07416 166.053116 
L 105.89005 165.804601 
L 104.609838 165.735387 
L 103.602918 166.681785 
L 103.077738 166.874986 
L 102.560037 167.419161 
L 102.495107 168.356484 
L 102.665411 168.943883 
L 102.195407 169.584875 
L 101.849216 169.171921 
L 101.40952 168.753326 
L 101.358968 168.402191 
L 101.224163 168.021923 
L 100.881532 167.776589 
L 99.94351 167.488321 
L 100.235589 167.05592 
L 100.286141 166.709385 
L 100.182228 165.663648 
L 100.199079 164.976712 
L 100.300183 164.30971 
L 100.552943 163.805241 
L 101.016337 163.605907 
L 102.201502 163.823641 
L 102.768809 163.743908 
L 103.004719 163.219506 
L 103.29118 163.179639 
L 104.656086 163.173506 
L 105.150373 163.348306 
" clip-path="url(#p5fb7e701aa)" style="fill: none; stroke: #000000; stroke-width: 2"/>
    <path d="M 106.487194 159.67136 
L 107.245475 160.261695 
L 107.245475 160.493229 
L 106.358006 160.520829 
L 106.071544 160.493229 
L 106.464727 160.758497 
L 106.807357 161.085098 
L 107.07416 161.443899 
L 107.245475 161.805767 
L 106.172648 161.6877 
L 105.858102 161.548166 
L 105.599725 161.266032 
L 105.186883 160.510096 
L 104.891996 160.261695 
L 104.532514 160.152828 
L 104.3949 160.215695 
L 104.274137 160.361362 
L 103.973633 160.493229 
L 103.60011 160.548429 
L 102.662088 160.560696 
L 102.302607 160.493229 
L 101.749342 159.636093 
L 102.437412 158.435488 
L 103.586067 157.494018 
L 104.445452 157.408151 
L 105.17284 158.039887 
L 106.487194 159.67136 
" clip-path="url(#p5fb7e701aa)" style="fill: none; stroke: #000000; stroke-width: 2"/>
    <path d="M 100.7046 158.256088 
L 100.418138 158.435488 
L 100.123251 156.896016 
L 99.94351 156.356281 
L 101.277523 156.351681 
L 101.555559 156.278081 
L 101.830787 156.12168 
L 102.06108 156.488148 
L 102.010528 156.765682 
L 101.476923 157.290084 
L 100.7046 158.256088 
" clip-path="url(#p5fb7e701aa)" style="fill: none; stroke: #000000; stroke-width: 2"/>
    <path d="M 102.830595 145.533975 
L 104.150565 146.527578 
L 104.445452 147.352515 
L 103.181651 146.429445 
L 102.490773 146.153444 
L 102.302607 146.579712 
L 101.68194 146.883313 
L 101.024763 146.700846 
L 100.392862 146.227044 
L 99.305993 145.089306 
L 98.938086 144.555704 
L 99.044807 144.20917 
L 99.94351 144.216837 
L 101.190461 144.666105 
L 102.830595 145.533975 
" clip-path="url(#p5fb7e701aa)" style="fill: none; stroke: #000000; stroke-width: 2"/>
    <path d="M 32.686039 27.297505 
L 33.376201 27.759025 
L 34.45157 28.123178 
L 35.18275 28.111494 
L 35.59649 28.292596 
L 36.299136 29.437632 
L 37.041015 29.842679 
L 37.843529 30.029624 
L 37.622392 30.660562 
L 37.704427 30.919559 
L 38.266187 31.137661 
L 38.228736 31.799756 
L 38.433823 32.080173 
L 39.223854 32.473536 
L 39.687528 32.837689 
L 39.774913 33.303103 
L 39.455691 34.004146 
L 39.011633 34.37414 
L 37.740094 35.005079 
L 37.48329 35.271864 
L 38.089634 35.708069 
L 41.007218 34.650663 
L 42.252006 35.123867 
L 43.079488 36.876473 
L 43.660864 37.135469 
L 44.206574 36.929051 
L 44.72375 35.682753 
L 45.419262 35.221234 
L 46.348395 35.388705 
L 47.871388 36.895946 
L 48.854022 37.219205 
L 50.377015 36.837526 
L 51.076094 36.35848 
L 50.890624 35.657438 
L 49.856273 35.283548 
L 49.981108 34.475402 
L 49.349797 34.767503 
L 49.075159 34.675978 
L 48.854022 34.370246 
L 48.533016 33.295314 
L 47.677001 32.857162 
L 46.683667 32.524167 
L 45.973888 31.776388 
L 45.952488 31.135713 
L 46.236043 30.430776 
L 46.667617 29.799838 
L 47.102758 29.388949 
L 47.669868 29.114374 
L 47.985523 29.207846 
L 48.854022 29.926415 
L 49.241012 30.121149 
L 50.080976 30.970189 
L 51.521935 31.556339 
L 51.682438 32.008122 
L 51.571869 32.335275 
L 51.611103 32.596219 
L 53.257149 33.338155 
L 53.278549 33.852253 
L 52.97716 34.009988 
L 52.477818 33.780202 
L 52.081911 33.830833 
L 52.101528 34.843449 
L 52.324449 35.458809 
L 53.273199 37.188047 
L 53.560321 39.474225 
L 53.818908 40.148005 
L 54.246916 40.632893 
L 57.043231 41.943453 
L 57.403471 42.410814 
L 57.617475 43.141067 
L 57.90638 43.483799 
L 59.126201 44.034896 
L 59.951899 44.989093 
L 60.581427 45.417508 
L 61.276939 45.727135 
L 61.835132 45.791397 
L 62.396892 45.468139 
L 62.810632 45.096197 
L 63.213673 45.090355 
L 63.898485 45.929659 
L 64.240891 45.929659 
L 64.42101 45.859554 
L 66.637732 45.773871 
L 66.800019 45.859554 
L 67.588266 47.101957 
L 67.941372 47.288902 
L 68.399697 47.191535 
L 68.654718 46.846856 
L 68.749236 46.369758 
L 68.710002 45.859554 
L 69.002474 44.835253 
L 70.5112 43.590903 
L 70.803672 42.952175 
L 70.545084 42.482866 
L 69.273545 42.391341 
L 69.269978 41.943453 
L 69.648052 41.631878 
L 70.557568 41.123622 
L 69.920906 41.041834 
L 69.35558 40.771154 
L 69.127309 40.299897 
L 69.719386 39.413858 
L 70.204461 39.277544 
L 70.90889 39.485909 
L 70.939208 39.300912 
L 70.703803 38.864707 
L 70.632469 37.721619 
L 70.87144 37.40615 
L 71.616886 37.162732 
L 72.241064 37.28152 
L 72.426534 37.840406 
L 72.4194 39.672854 
L 73.093512 39.90264 
L 74.088629 39.863693 
L 74.500586 40.188899 
L 75.130114 41.883085 
L 75.583089 42.512076 
L 75.627673 42.97749 
L 75.543855 43.448747 
L 75.595572 44.106948 
L 75.789959 44.451627 
L 76.760109 45.857607 
L 76.949146 46.12634 
L 77.159583 46.202286 
L 77.384287 46.101025 
L 77.801594 45.81866 
L 78.30272 46.449598 
L 78.197501 46.965644 
L 77.712426 47.360954 
L 77.038314 47.59074 
L 77.683892 47.980208 
L 78.226035 48.028892 
L 78.500673 48.245046 
L 78.35087 49.140823 
L 76.863544 51.73468 
L 76.731575 52.665509 
L 77.366453 56.048039 
L 78.14935 57.954486 
L 78.500673 59.436412 
L 78.179667 62.084795 
L 78.115466 64.924017 
L 77.28736 68.174211 
L 77.141749 69.25685 
L 77.263018 70.542094 
L 77.567973 71.881864 
L 77.971014 72.617959 
L 78.507806 72.713379 
L 79.736545 72.218754 
L 81.045534 72.168124 
L 88.705085 75.383183 
L 94.117596 76.57106 
L 96.799776 77.704412 
L 98.012464 77.741412 
L 101.518558 76.99558 
L 104.346974 77.250682 
L 105.730865 76.896266 
L 106.219507 76.909898 
L 108.637749 77.591467 
L 109.133525 77.455153 
L 109.682801 76.972212 
L 110.235644 77.042317 
L 111.615968 77.877726 
L 112.582552 77.994566 
L 116.773458 77.423995 
L 117.868444 77.03258 
L 123.396874 76.150435 
L 125.736648 76.14654 
L 126.489228 75.759019 
L 126.860168 75.747335 
L 128.52583 76.611954 
L 133.629819 78.158143 
L 135.316882 78.259404 
L 136.789941 77.885515 
L 137.66379 77.285734 
L 138.263 77.328576 
L 139.300918 78.498927 
L 139.885862 78.641083 
L 140.766844 78.681977 
L 141.572925 78.56319 
L 141.926031 78.212668 
L 142.104367 77.605098 
L 142.500274 77.591467 
L 143.252854 77.904988 
L 143.495392 77.710254 
L 143.702262 77.254577 
L 143.923399 77.046211 
L 144.447708 76.97416 
L 146.116937 77.126052 
L 149.804935 76.664533 
L 151.727402 76.958581 
L 153.296763 76.462009 
L 154.409582 76.510693 
L 155.515268 76.779426 
L 156.702989 77.36168 
L 157.245132 78.10167 
L 157.51977 78.195142 
L 158.019112 78.216563 
L 158.44712 78.46777 
L 158.921494 78.323667 
L 159.196133 78.384034 
L 159.420837 78.582663 
L 159.934446 79.242811 
L 160.833261 79.95067 
L 161.917547 80.311901 
L 163.711611 80.557266 
L 164.00765 80.771474 
L 164.560493 81.547489 
L 165.530643 81.962272 
L 166.386658 82.473449 
L 166.589962 83.541565 
L 167.46381 83.831719 
L 167.470944 83.956349 
L 169.043871 85.116964 
L 168.758533 85.374986 
L 169.607414 85.743034 
L 169.931987 86.061424 
L 170.192358 86.662178 
L 170.302927 87.318432 
L 170.199491 87.738084 
L 169.72155 88.484889 
L 168.491028 88.805227 
L 166.375958 89.510164 
L 165.78097 89.343685 
L 165.636482 89.143648 
L 165.595949 88.867786 
L 163.252652 87.450803 
L 161.938947 87.0127 
L 160.93313 87.449878 
L 160.74766 88.082763 
L 160.890329 88.748754 
L 161.34687 89.959999 
L 161.396804 91.155666 
L 161.304069 91.739869 
L 159.549239 96.649114 
L 159.2211 98.113514 
L 159.064164 99.397785 
L 158.88226 99.967382 
L 158.41209 100.608631 
L 157.063229 101.659621 
L 156.892026 102.377216 
L 157.073929 104.674104 
L 156.949093 105.741246 
L 156.282115 106.658444 
L 155.401133 107.058622 
L 154.388182 107.14041 
L 151.509832 106.894072 
L 151.470598 107.340986 
L 152.248145 108.616494 
L 152.276678 109.129619 
L 151.616834 108.868675 
L 150.539681 108.057608 
L 149.779968 108.301025 
L 149.662266 108.976752 
L 150.022506 110.475231 
L 149.990405 111.218141 
L 148.995288 115.084586 
L 148.560147 115.365003 
L 147.861068 115.186821 
L 146.808883 114.139152 
L 146.726848 113.803236 
L 146.577045 112.706883 
L 146.216806 112.689357 
L 144.019701 112.211285 
L 143.677295 112.712725 
L 144.009001 114.847984 
L 143.613094 115.42537 
L 143.010317 115.653209 
L 142.336205 115.557789 
L 141.715594 115.164427 
L 141.405288 114.582172 
L 140.795378 113.062273 
L 140.435138 112.925959 
L 140.278202 113.372873 
L 139.907262 115.760313 
L 139.639758 116.56067 
L 139.311619 117.083531 
L 138.805143 117.418473 
L 138.006196 117.660917 
L 136.586638 117.829362 
L 135.306182 117.723232 
L 132.688203 117.153635 
L 131.254378 117.277291 
L 130.833504 118.242198 
L 130.780003 119.681283 
L 130.426897 121.219682 
L 130.013156 121.497178 
L 128.789768 121.23526 
L 128.186991 121.483546 
L 127.73045 121.896382 
L 127.366643 122.394902 
L 126.189623 124.492187 
L 126.03982 125.016995 
L 126.068354 125.534014 
L 126.599797 126.881574 
L 126.499928 127.59138 
L 125.807983 129.647771 
L 125.454876 130.266052 
L 124.819999 130.591257 
L 124.163721 130.649678 
L 123.618011 130.841491 
L 123.293439 131.566875 
L 123.439675 132.386705 
L 124.556061 132.895935 
L 124.773631 133.463585 
L 124.470459 134.07505 
L 123.546677 134.094523 
L 123.428974 135.00101 
L 123.585911 135.657264 
L 124.852099 138.213148 
L 125.141004 139.445814 
L 125.458443 140.063121 
L 125.743782 140.336723 
L 126.346559 140.714507 
L 126.653297 141.344471 
L 126.817367 142.283089 
L 127.281042 143.884777 
L 127.634148 144.643266 
L 128.076422 144.984051 
L 128.52583 145.102838 
L 128.639965 145.324835 
L 128.490163 145.622778 
L 127.898086 146.312137 
L 127.95872 146.606185 
L 128.293993 147.295544 
L 129.096507 153.360535 
L 129.545915 154.915487 
L 130.369829 156.044944 
L 131.525449 156.357492 
L 131.653851 155.116063 
L 131.008274 151.953582 
L 131.00114 150.276922 
L 131.183043 149.39575 
L 131.56825 148.85439 
L 132.335097 148.82518 
L 132.998508 149.353883 
L 133.790322 150.626469 
L 133.779622 150.594338 
L 133.908024 150.30029 
L 134.132728 150.601154 
L 134.132728 151.266171 
L 134.724805 151.785137 
L 135.120712 153.331325 
L 136.190731 157.171481 
L 136.51887 157.261058 
L 136.608038 157.401267 
L 136.650839 158.511251 
L 136.797075 158.90364 
L 137.242916 159.407028 
L 138.630373 159.898731 
L 138.847944 160.313514 
L 138.951379 160.815928 
L 139.514922 160.495591 
L 139.846628 159.859784 
L 140.007131 159.550157 
L 140.321003 159.418712 
L 141.298287 159.550157 
L 141.765528 159.377817 
L 142.700011 159.170426 
L 143.381256 158.605697 
L 144.205171 157.793656 
L 144.825782 156.757671 
L 144.815081 156.404229 
L 145.10042 156.249415 
L 145.51416 156.26402 
L 146.034903 155.694423 
L 146.181139 155.350717 
L 146.056303 154.911592 
L 145.610462 153.757793 
L 145.08972 151.162962 
L 144.579677 149.965347 
L 144.390641 148.461027 
L 145.043352 146.606185 
L 146.045603 144.842868 
L 146.944419 143.61507 
L 147.500828 143.126288 
L 149.409028 142.295747 
L 149.961871 141.892648 
L 150.411279 141.391207 
L 151.192393 140.063121 
L 151.245894 138.584116 
L 150.336378 134.223047 
L 150.354211 131.972895 
L 150.568215 131.479245 
L 151.049724 131.457824 
L 151.481298 131.97679 
L 151.912872 132.678806 
L 153.357397 134.326256 
L 153.892407 134.603752 
L 154.698487 134.396361 
L 155.294131 133.871552 
L 156.977627 131.657426 
L 158.439986 131.152092 
L 159.124798 132.20755 
L 159.474337 133.649556 
L 159.941579 134.298994 
L 160.462321 133.791711 
L 160.901029 132.051763 
L 161.475272 131.710005 
L 162.185051 132.100446 
L 162.267086 132.905672 
L 161.864046 134.507359 
L 161.960348 135.76242 
L 163.280037 140.059227 
L 163.640277 142.451534 
L 163.82218 142.750451 
L 164.464191 143.517703 
L 164.517692 143.800068 
L 164.510559 144.581925 
L 164.681762 144.831184 
L 165.266705 145.379361 
L 165.298806 145.72404 
L 165.213204 146.836945 
L 165.573444 148.211767 
L 165.33804 148.888468 
L 164.717429 150.197081 
L 164.57476 150.764731 
L 164.542659 152.263209 
L 165.420075 157.596001 
L 165.391541 160.218095 
L 165.655479 161.488734 
L 166.304623 162.475062 
L 167.449543 162.946319 
L 167.948885 163.582125 
L 168.248491 166.512873 
L 168.491028 167.656935 
L 168.894069 168.22069 
L 169.824985 169.042468 
L 170.199491 169.611091 
L 170.349294 170.193346 
L 170.591832 173.094883 
L 170.520497 175.283694 
L 170.648899 175.914632 
L 171.091174 177.090826 
L 171.144675 177.73929 
L 173.149176 190.050377 
L 173.099242 191.006521 
L 172.706902 191.193465 
L 172.193293 191.187623 
L 171.779552 191.559565 
L 172.560666 194.095003 
L 173.702019 200.667277 
L 173.099242 206.431404 
L 173.691319 216.372577 
L 174.055125 218.25955 
L 175.358675 222.461359 
L 175.421183 222.843589 
L 175.107311 223.455054 
L 174.436765 224.173623 
L 173.627118 224.711089 
L 172.928039 224.771456 
L 172.517865 224.298253 
L 172.271761 223.519316 
L 172.007823 221.996496 
L 171.337278 220.481465 
L 170.445596 220.275047 
L 169.297109 220.530149 
L 167.838317 220.386046 
L 166.682697 219.901158 
L 166.390225 219.589584 
L 166.151254 218.929435 
L 165.933684 217.68119 
L 165.477142 217.063883 
L 164.371456 216.684152 
L 163.055333 218.298497 
L 161.389671 218.372496 
L 161.004464 219.112485 
L 160.537223 220.717094 
L 159.574206 222.136705 
L 159.388736 222.794906 
L 159.381602 223.532948 
L 159.627707 225.030453 
L 159.584906 225.766547 
L 159.274601 227.472418 
L 159.734709 228.660295 
L 160.544356 229.435337 
L 160.97593 230.578426 
L 162.386543 231.787356 
L 162.159059 233.240961 
L 162.108507 234.8019 
L 162.260163 236.341372 
L 162.622453 237.725977 
L 163.776725 239.668718 
L 163.852553 240.375587 
L 164.841127 243.241397 
L 164.76249 243.646199 
L 164.470412 243.936 
L 164.25697 243.8118 
L 163.903105 243.388598 
L 163.625069 243.048197 
L 162.833087 241.094723 
L 160.47399 236.697107 
L 159.892641 234.252965 
L 159.665157 233.86963 
L 157.864942 232.299491 
L 157.527928 231.811889 
L 156.578673 230.100683 
L 155.048069 228.25761 
L 154.803734 227.647341 
L 154.753182 226.853071 
L 155.039643 224.418129 
L 154.977857 223.521126 
L 154.798117 222.80199 
L 152.882755 219.23391 
L 152.562592 218.875109 
L 152.180643 218.654308 
L 151.846438 218.113039 
L 151.500999 216.815835 
L 151.714441 216.815835 
L 151.972818 217.051969 
L 152.231195 216.3773 
L 152.646846 215.668897 
L 153.202918 215.267162 
L 153.854478 215.507896 
L 153.421977 215.086228 
L 153.076538 214.396226 
L 152.882755 213.612689 
L 152.891181 212.911954 
L 153.186068 212.490285 
L 153.666312 212.030284 
L 154.000518 211.504348 
L 153.854478 210.87568 
L 154.472337 209.955676 
L 154.331914 209.590742 
L 154.53974 209.235007 
L 154.475145 208.911472 
L 154.022985 208.584871 
L 154.247661 207.526867 
L 154.112855 207.227866 
L 154.000518 207.652601 
L 153.854478 207.766068 
L 154.112855 207.766068 
L 153.663504 209.060206 
L 153.261896 209.603008 
L 152.680547 209.590742 
L 152.410936 209.141473 
L 152.680547 207.508467 
L 152.444637 207.508467 
L 152.267705 208.155536 
L 151.947542 208.106469 
L 151.635804 207.658734 
L 151.500999 207.109799 
L 151.613337 206.266463 
L 151.922266 206.059462 
L 152.366001 205.959795 
L 152.891181 205.450726 
L 152.680547 205.193125 
L 152.107624 205.62246 
L 151.866097 205.306593 
L 152.082348 204.739257 
L 152.891181 204.398856 
L 152.891181 204.138188 
L 151.293174 204.266989 
L 150.085541 204.65339 
L 149.759761 204.339056 
L 149.81593 203.442052 
L 150.17822 202.635516 
L 150.798887 202.316582 
L 150.532084 201.93018 
L 150.66689 201.574446 
L 151.037605 201.273911 
L 151.500999 201.05311 
L 151.500999 200.770976 
L 151.138709 200.81391 
L 150.818546 200.97951 
L 150.327068 201.589779 
L 150.14171 201.120577 
L 149.97882 200.341641 
L 149.723251 198.483234 
L 149.234581 197.908232 
L 149.125052 197.567831 
L 149.125052 196.141826 
L 148.240391 192.291612 
L 148.181413 190.994407 
L 148.653233 191.229008 
L 148.4763 190.730673 
L 148.172988 190.801206 
L 147.923036 191.282675 
L 147.923036 192.001811 
L 147.709594 192.001811 
L 147.338879 191.353208 
L 147.001865 190.529805 
L 146.782806 189.611335 
L 146.749105 188.680599 
L 146.917612 188.105597 
L 147.709594 187.111993 
L 147.659042 186.492524 
L 147.364155 186.18279 
L 146.749105 185.802521 
L 146.639575 184.862585 
L 147.249009 184.413316 
L 148.142095 184.146515 
L 148.889142 183.744781 
L 149.265474 183.073178 
L 150.063073 180.400568 
L 149.360961 180.400568 
L 149.285133 180.969437 
L 148.94812 182.423042 
L 149.007097 182.714377 
L 147.852825 183.784647 
L 147.243392 184.002382 
L 147.136671 184.190982 
L 146.285711 184.652517 
L 146.035759 185.029719 
L 146.125629 185.627721 
L 146.490728 185.912922 
L 147.243392 186.31619 
L 147.229349 187.042993 
L 146.642384 187.502994 
L 145.88972 187.440127 
L 145.356115 186.596791 
L 144.760724 182.288109 
L 144.390008 180.91577 
L 142.056188 176.260553 
L 137.641308 170.015264 
L 136.546013 169.567529 
L 135.93658 169.000194 
L 135.450718 168.313258 
L 135.181107 167.722922 
L 134.911496 167.877789 
L 134.684012 167.695322 
L 134.532356 167.304321 
L 134.473379 166.832052 
L 134.54359 166.370517 
L 134.86937 165.908982 
L 135.082812 164.815712 
L 135.636076 163.224106 
L 135.652927 162.320969 
L 135.397358 162.320969 
L 135.279403 163.023238 
L 134.684012 164.999712 
L 134.341381 165.406047 
L 133.580292 165.645248 
L 133.108473 166.260117 
L 132.931541 167.095787 
L 133.038262 168.003523 
L 132.518699 167.604855 
L 132.013178 167.364121 
L 131.437446 167.23992 
L 130.681974 167.20772 
L 130.681974 167.488321 
L 131.406553 167.704522 
L 131.499232 168.06179 
L 131.153793 168.392991 
L 130.549977 168.541725 
L 128.760995 168.580059 
L 129.943352 169.043127 
L 130.210154 169.266995 
L 130.111859 169.812863 
L 129.679358 170.133331 
L 128.541936 170.318865 
L 128.508235 170.278998 
L 127.126479 169.94473 
L 127.126479 169.266995 
L 126.705211 169.112127 
L 126.18284 169.046194 
L 125.003292 169.03086 
L 125.003292 169.266995 
L 125.44141 169.664129 
L 125.601491 170.073531 
L 125.357156 170.343398 
L 124.556749 170.318865 
L 124.556749 170.597933 
L 126.556364 171.117735 
L 127.471918 171.508736 
L 127.853867 172.258539 
L 127.735912 172.746141 
L 127.460684 173.275142 
L 127.062634 174.723736 
L 125.722749 175.93624 
L 124.819363 176.192495 
L 123.120694 176.546472 
L 121.804375 175.89062 
L 121.127253 174.868398 
L 120.748493 173.256742 
L 120.405862 172.810541 
L 120.035147 172.143538 
L 119.647581 170.998134 
L 119.358311 170.6654 
L 118.855599 170.832534 
L 119.372354 171.367669 
L 119.838556 172.407273 
L 120.113784 173.505143 
L 120.035147 174.225813 
L 119.333035 174.576947 
L 118.212465 174.762481 
L 117.17053 174.707281 
L 116.715562 174.328546 
L 116.50212 173.808744 
L 115.558481 173.123342 
L 114.727181 171.743337 
L 114.463186 170.676133 
L 114.084046 170.512066 
L 113.064579 170.597933 
L 112.904498 170.383265 
L 112.497273 169.03086 
L 111.913116 168.656726 
L 111.649122 168.469658 
L 111.421637 167.796523 
L 110.823438 166.832052 
L 110.772886 166.434918 
L 110.351619 165.406047 
L 110.098858 164.121109 
L 109.256324 162.276502 
L 109.15522 161.419366 
L 108.975479 160.960898 
L 106.307453 157.290084 
L 105.858102 155.864079 
L 105.86091 155.457744 
L 106.256901 153.150069 
L 106.307453 151.605997 
L 106.504045 150.774927 
L 107.172455 149.348922 
L 107.032033 148.637453 
L 107.245475 148.637453 
L 106.678169 147.409248 
L 106.652893 146.907846 
L 107.032033 146.579712 
L 106.914078 146.542912 
L 106.756805 146.489245 
L 106.773656 146.297577 
L 105.903037 146.607312 
L 105.313263 145.817642 
L 104.981866 144.687572 
L 104.891996 143.982236 
L 104.931314 141.768094 
L 105.223393 140.909425 
L 106.071544 140.380423 
L 108.082393 140.391156 
L 108.891226 139.943421 
L 108.91931 138.557283 
L 108.759229 138.042081 
L 108.565446 137.827413 
L 107.621807 137.805947 
L 107.52632 137.962347 
L 107.832441 138.308882 
L 108.447491 138.811817 
L 108.211581 139.58462 
L 107.604956 139.230418 
L 107.225816 139.195152 
L 106.560214 139.58462 
L 105.683978 139.879021 
L 105.189691 140.216355 
L 105.038035 140.081422 
L 104.512855 138.594083 
L 104.647661 137.526879 
L 105.203733 136.649809 
L 106.071544 136.240408 
L 105.858102 135.982807 
L 105.751381 136.185207 
L 105.599725 136.240408 
L 105.33573 135.88314 
L 104.765615 135.94754 
L 103.499005 136.475008 
L 103.695597 137.002477 
L 103.521473 137.321411 
L 103.100206 137.477812 
L 101.976827 137.477812 
L 101.530283 137.321411 
L 100.654048 136.755609 
L 100.932084 137.339812 
L 101.415137 137.723146 
L 101.98806 137.943947 
L 102.558175 138.042081 
L 103.841636 138.091148 
L 104.122481 138.393215 
L 104.195501 141.771161 
L 104.091588 142.182096 
L 103.821977 142.40903 
L 103.538324 142.956432 
L 103.324882 143.623434 
L 103.263096 144.216837 
L 102.103207 143.715435 
L 95.343272 142.39523 
L 94.031727 141.909161 
L 92.854987 141.127159 
L 92.821286 141.562627 
L 93.147066 141.970495 
L 98.162954 145.14144 
L 99.00268 146.434045 
L 100.097975 146.674779 
L 101.594878 147.352515 
L 103.855678 147.607049 
L 104.139332 147.85545 
L 105.150373 149.407189 
L 105.296412 150.026658 
L 105.422792 151.357596 
L 104.698213 150.437593 
L 104.86672 151.170529 
L 105.021184 153.39847 
L 104.891996 154.295473 
L 103.734915 155.864079 
L 103.324882 155.762879 
L 103.240628 155.448544 
L 103.40071 155.074409 
L 103.734915 154.810675 
L 103.734915 154.553074 
L 103.499005 154.553074 
L 102.735108 155.451611 
L 102.257671 155.703078 
L 101.594878 155.864079 
L 100.300183 155.827279 
L 99.870491 155.99748 
L 99.749727 156.863816 
L 99.895767 157.685686 
L 100.376011 158.870957 
L 101.021954 159.999494 
L 101.791469 161.097365 
L 101.732492 161.5359 
L 101.917849 161.848701 
L 102.195886 161.900834 
L 102.302607 162.038835 
L 102.71264 162.363903 
L 102.853062 162.621504 
L 102.67613 162.975705 
L 102.162184 163.237906 
L 100.654048 163.090705 
L 99.994062 163.932508 
L 99.679516 165.188313 
L 99.263866 166.237117 
L 98.294951 166.460984 
L 98.848216 166.950119 
L 98.707793 167.456121 
L 98.241591 167.650855 
L 97.823132 167.20772 
L 97.073276 167.713722 
L 97.578797 168.095524 
L 98.564562 168.426725 
L 99.235781 168.773259 
L 99.558753 168.081724 
L 100.148527 168.187524 
L 100.746726 168.708859 
L 101.123058 169.266995 
L 101.226971 169.654929 
L 101.358968 170.832534 
L 101.780235 172.046938 
L 101.909424 173.364076 
L 101.816745 173.63701 
L 101.476923 174.084745 
L 101.17361 174.254946 
L 100.387245 174.373013 
L 100.064274 174.576947 
L 99.864874 175.145816 
L 99.471691 177.804626 
L 99.572795 177.409024 
L 100.182228 176.774222 
L 100.213121 176.380154 
L 100.1064 175.636484 
L 100.182228 175.23015 
L 100.522051 174.716481 
L 101.033188 174.409813 
L 101.648238 174.314746 
L 102.302607 174.434347 
L 103.532707 175.21635 
L 104.156182 176.29582 
L 104.566216 177.548558 
L 105.150373 178.854963 
L 104.445452 178.574362 
L 104.453878 179.426898 
L 104.701021 180.115367 
L 105.386282 181.450906 
L 105.557598 182.212975 
L 105.588491 182.994978 
L 105.386282 184.540584 
L 104.285371 187.429394 
L 103.470921 188.743466 
L 102.794085 188.912133 
L 101.510624 189.747803 
L 101.358968 190.083604 
L 101.277523 190.594206 
L 101.066889 191.183008 
L 99.746919 193.361882 
L 99.353736 193.542816 
L 98.898768 193.435483 
L 97.806281 192.83748 
L 97.587222 192.540013 
L 97.786622 191.606209 
L 98.62354 189.810669 
L 98.766771 188.912133 
L 98.294951 187.346594 
L 98.505585 186.164389 
L 98.396055 185.695188 
L 97.823132 185.544921 
L 97.974788 186.326923 
L 97.629349 187.995196 
L 97.705177 188.537998 
L 98.382013 189.031733 
L 98.511202 189.405868 
L 98.463458 189.697202 
L 97.991639 190.289071 
L 97.854025 190.482272 
L 97.764155 191.017407 
L 97.331654 190.994407 
L 97.230549 191.371608 
L 96.980598 193.021481 
L 96.837367 193.346549 
L 95.680286 194.971888 
L 95.531438 195.634291 
L 94.865836 197.008162 
L 94.719797 197.696631 
L 94.568141 199.131837 
L 93.978367 201.275445 
L 93.627311 201.779913 
L 91.248555 203.770187 
L 90.594187 203.906654 
L 89.889266 203.782454 
L 88.591763 203.235052 
L 87.979522 203.110851 
L 87.423449 202.80265 
L 87.271793 202.181648 
L 87.507702 201.703246 
L 88.097477 201.822847 
L 87.839099 201.295378 
L 88.041308 200.92431 
L 88.386747 200.577775 
L 88.572104 200.13004 
L 88.403597 199.361838 
L 88.572104 198.970836 
L 88.226665 199.446171 
L 87.614424 200.981043 
L 87.283027 201.310711 
L 86.954438 201.421112 
L 86.524746 201.93018 
L 86.213008 202.083514 
L 85.918121 202.020647 
L 85.468769 201.638846 
L 85.058736 201.589779 
L 85.294645 200.580842 
L 85.387324 198.533835 
L 85.766465 197.682831 
L 87.176306 196.397893 
L 87.861567 194.361619 
L 89.44834 192.831347 
L 89.878033 192.139811 
L 90.181345 191.997211 
L 90.948051 192.279345 
L 91.675439 191.76261 
L 92.211853 190.91774 
L 92.467422 189.914936 
L 92.363509 188.912133 
L 91.318766 191.396142 
L 90.830096 191.76721 
L 89.903309 191.89141 
L 89.333194 192.231812 
L 87.038692 194.861488 
L 86.760655 195.681824 
L 86.024842 196.821095 
L 85.530555 196.913095 
L 85.187924 196.854828 
L 84.089821 196.397893 
L 84.289221 195.875025 
L 84.325731 195.300023 
L 84.586917 194.853821 
L 85.437876 194.153085 
L 85.530555 193.56735 
L 85.4126 192.443412 
L 86.013608 191.089474 
L 86.721337 190.677006 
L 86.920737 190.224671 
L 86.030459 190.548205 
L 85.597958 191.202941 
L 85.058736 193.052148 
L 84.746998 193.472283 
L 83.62081 194.725021 
L 83.62081 196.913095 
L 83.104056 197.36543 
L 82.480581 197.126229 
L 81.952592 196.49296 
L 81.267331 194.082552 
L 81.191503 191.298008 
L 80.87134 189.740136 
L 80.705641 188.430664 
L 80.087783 187.346594 
L 79.913659 186.458791 
L 80.087783 185.544921 
L 80.770236 183.822981 
L 83.811785 179.157031 
L 84.143182 178.286094 
L 84.564449 177.933426 
L 83.508472 178.692429 
L 81.924508 180.446569 
L 81.469539 181.64104 
L 80.87134 181.467772 
L 79.829406 180.632103 
L 79.896808 181.421772 
L 80.216971 182.708244 
L 80.087783 183.51018 
L 78.649857 186.31619 
L 79.068316 187.116593 
L 79.430606 188.455198 
L 79.829406 190.994407 
L 79.877149 192.305412 
L 79.776045 192.944814 
L 79.486775 193.427816 
L 78.908235 193.745217 
L 77.217549 193.542816 
L 77.217549 193.824951 
L 77.947745 194.143885 
L 78.55437 194.542553 
L 78.967212 195.129822 
L 79.076742 196.37336 
L 78.908235 197.449764 
L 79.048657 197.796299 
L 79.514859 198.543035 
L 79.792896 199.260637 
L 80.12991 199.685372 
L 80.323692 200.171441 
L 80.087783 200.770976 
L 79.840639 200.86911 
L 79.071125 201.022444 
L 77.989872 202.075847 
L 77.804515 202.405515 
L 76.844025 202.85325 
L 76.476119 202.90385 
L 76.318846 202.72445 
L 76.136297 202.181648 
L 75.706604 202.288982 
L 74.75454 202.85325 
L 73.532865 202.672316 
L 72.943091 202.433115 
L 72.527441 202.083514 
L 72.246596 201.390445 
L 72.226937 200.971843 
L 72.597652 200.314041 
L 72.527441 199.95524 
L 72.033154 199.228437 
L 71.067048 201.310711 
L 71.460231 202.00378 
L 72.128641 202.949851 
L 72.898156 203.782454 
L 73.589034 204.138188 
L 73.88673 204.513856 
L 73.516014 205.254459 
L 72.766159 205.794194 
L 71.915199 205.56726 
L 71.499549 205.297393 
L 71.114791 205.286659 
L 70.255406 205.450726 
L 70.162728 205.662327 
L 70.617696 206.993265 
L 69.960519 207.680201 
L 69.227514 207.207933 
L 68.241749 205.683794 
L 68.303535 205.018325 
L 67.904735 203.460452 
L 68.005839 202.595649 
L 68.283876 202.111114 
L 68.924202 201.350578 
L 69.185388 200.770976 
L 69.294917 200.14844 
L 69.151686 197.419097 
L 69.606655 194.45822 
L 70.432339 192.967814 
L 70.617696 192.139811 
L 70.499741 191.337875 
L 70.196429 190.549739 
L 69.303342 189.287801 
L 69.280875 188.763399 
L 70.33966 187.351194 
L 70.617696 186.725592 
L 70.777778 185.143186 
L 70.996837 184.407183 
L 71.325425 183.744781 
L 70.946285 184.036115 
L 70.626121 184.512983 
L 70.151494 185.544921 
L 69.749886 185.958922 
L 69.623506 186.28859 
L 69.935243 187.157993 
L 69.733035 187.484594 
L 69.067433 187.999796 
L 68.657399 188.671399 
L 68.696718 189.166667 
L 69.595421 190.923873 
L 69.679675 191.285741 
L 69.617889 192.590613 
L 69.185388 193.685417 
L 68.91016 196.088159 
L 68.736036 196.630961 
L 68.09571 196.983629 
L 67.814865 196.40096 
L 67.862609 194.329419 
L 68.219282 193.54895 
L 68.241749 193.052148 
L 66.685869 189.307734 
L 66.595999 188.537998 
L 66.758889 186.851325 
L 66.71957 186.099989 
L 66.379748 185.28732 
L 66.124179 185.28732 
L 65.837718 187.777462 
L 66.124179 192.540013 
L 66.379748 192.540013 
L 66.410641 192.009477 
L 66.758889 191.248941 
L 66.851567 191.357808 
L 67.020074 192.144411 
L 67.592998 193.354216 
L 67.562105 193.901618 
L 67.275643 194.853821 
L 67.104328 195.024022 
L 66.595999 195.229489 
L 66.708337 195.683357 
L 66.851567 195.884225 
L 66.977948 196.30896 
L 67.713761 197.826965 
L 67.393598 199.831039 
L 67.039733 200.268041 
L 66.124179 201.05311 
L 65.739422 201.712446 
L 65.705721 202.246048 
L 65.907929 203.777854 
L 65.781549 204.647257 
L 65.450152 205.360259 
L 64.983949 205.953662 
L 63.731382 207.057666 
L 63.343816 207.094466 
L 62.461963 206.079395 
L 62.276606 205.518193 
L 62.226054 204.55219 
L 62.332775 202.85325 
L 62.518132 202.166314 
L 62.967484 201.010177 
L 63.060163 200.13004 
L 62.911315 199.371038 
L 62.26818 198.0999 
L 62.116524 197.449764 
L 61.860955 197.449764 
L 61.644705 198.026299 
L 61.743 198.510834 
L 62.116524 199.509038 
L 62.116524 200.11164 
L 61.990144 200.456642 
L 61.054931 201.506979 
L 60.83868 201.88418 
L 60.102867 203.589253 
L 59.928743 203.60152 
L 59.737769 203.110851 
L 59.504667 203.110851 
L 59.521518 204.063055 
L 59.875383 205.533527 
L 59.737769 206.455063 
L 59.150803 207.756868 
L 59.251907 208.18007 
L 59.973678 208.535804 
L 59.57207 209.008073 
L 58.979488 209.445074 
L 58.288609 209.750209 
L 57.61739 209.823809 
L 56.968639 209.440474 
L 56.760814 208.741272 
L 56.892811 208.065069 
L 57.249484 207.766068 
L 57.322503 207.356667 
L 56.201933 203.954188 
L 56.182273 203.509519 
L 56.033426 203.354652 
L 55.713263 203.56472 
L 55.384674 203.935788 
L 55.241443 204.270055 
L 55.039235 204.438723 
L 54.581458 204.311456 
L 53.825986 203.906654 
L 53.317656 203.345452 
L 52.390869 199.637839 
L 52.480739 198.860436 
L 52.848646 197.281097 
L 52.862688 196.397893 
L 52.612736 195.608224 
L 51.84603 194.54102 
L 51.685948 193.953751 
L 51.896582 192.222612 
L 51.80014 191.489461 
L 52.402917 190.722209 
L 52.335149 189.810854 
L 52.146113 189.065022 
L 51.855424 188.434084 
L 50.348481 186.432218 
L 50.020342 185.643545 
L 50.517901 185.296919 
L 49.758188 183.832519 
L 49.342664 181.458711 
L 49.435399 181.07119 
L 49.792071 180.278622 
L 49.649402 179.402319 
L 49.014525 177.906762 
L 48.704219 176.512466 
L 48.292262 176.177523 
L 47.22046 175.751056 
L 47.990873 175.229168 
L 48.20131 174.362602 
L 48.049724 173.348038 
L 47.716235 172.384104 
L 47.290011 171.587642 
L 47.031423 170.265398 
L 46.619466 169.176834 
L 46.535648 168.491371 
L 46.771052 167.978246 
L 47.527199 166.925709 
L 47.812537 165.691095 
L 47.869605 164.958895 
L 47.791136 164.450639 
L 47.397013 164.069934 
L 46.432213 163.756412 
L 46.029172 163.258867 
L 44.934187 160.893822 
L 44.279692 160.058413 
L 44.142373 159.634866 
L 44.163773 158.897798 
L 44.484779 157.824813 
L 44.573947 155.892078 
L 45.039405 154.944697 
L 46.913721 152.925305 
L 48.142459 151.796821 
L 48.319012 151.395669 
L 48.324362 151.085068 
L 48.126409 150.906887 
L 46.878054 150.863071 
L 46.587365 150.717994 
L 43.585963 149.756008 
L 43.132988 149.82806 
L 42.326908 150.375263 
L 41.964885 150.371368 
L 39.698228 149.633326 
L 39.234554 149.213674 
L 38.890364 148.48829 
L 38.867181 147.670407 
L 39.181053 146.943075 
L 40.017451 145.598436 
L 41.695597 141.114685 
L 41.774065 140.302644 
L 41.313957 139.926807 
L 40.860982 140.284144 
L 40.454375 140.913135 
L 40.022801 141.083528 
L 39.512759 140.063121 
L 39.138252 139.888834 
L 38.127084 139.191686 
L 37.545708 138.559774 
L 36.737843 137.098296 
L 36.220668 136.535514 
L 35.94603 136.477094 
L 35.264784 136.55304 
L 34.915245 136.402121 
L 34.579972 136.036995 
L 34.558572 135.788709 
L 34.672707 135.50245 
L 34.740475 135.03022 
L 34.563922 134.889038 
L 33.88446 134.652436 
L 33.834526 134.230837 
L 34.562139 130.799623 
L 34.512205 130.450075 
L 34.262533 129.879505 
L 34.269667 129.519247 
L 34.44087 129.116147 
L 35.125682 127.878612 
L 35.054347 127.19899 
L 35.016897 126.857232 
L 35.129249 126.497948 
L 35.680308 126.054928 
L 37.734744 125.946851 
L 38.196636 125.580751 
L 39.840898 123.860275 
L 39.944333 123.182601 
L 39.848031 122.38127 
L 39.40754 121.217734 
L 40.231454 119.950989 
L 40.215404 119.593652 
L 39.384356 119.395024 
L 39.277354 118.919873 
L 38.62821 118.356118 
L 38.45879 117.925755 
L 38.503374 117.579129 
L 38.765529 116.356199 
L 38.596109 115.225768 
L 38.792279 114.764248 
L 39.138252 114.4332 
L 40.443675 113.885998 
L 40.554243 113.562739 
L 41.071419 112.627042 
L 40.991168 112.486833 
L 40.646978 110.221103 
L 39.855165 109.15396 
L 38.724511 108.457786 
L 37.977282 108.293236 
L 37.609909 109.155908 
L 37.092733 109.956265 
L 36.331236 110.003001 
L 34.628123 109.425614 
L 32.393568 109.321432 
L 31.601754 109.152013 
L 29.044409 107.11899 
L 19.984917 102.377216 
L 18.9898 102.161061 
L 18.920249 101.89817 
L 18.301421 100.954683 
L 18.128435 100.625583 
L 18.01965 98.434825 
L 17.516741 97.914885 
L 17.170768 97.144712 
L 15.94738 96.711429 
L 16.13285 95.576129 
L 16.418188 94.89456 
L 16.867596 94.23928 
L 17.031666 92.589883 
L 17.852014 92.356202 
L 18.094551 92.006654 
L 18.240787 91.038826 
L 18.467274 90.775935 
L 18.914899 90.851881 
L 19.246605 90.167391 
L 20.059819 89.213194 
L 19.95995 88.500468 
L 19.348256 86.86957 
L 19.161003 86.671915 
L 19.161003 86.506391 
L 21.511477 85.354539 
L 22.182022 85.417828 
L 22.745566 85.80048 
L 23.230641 86.436287 
L 23.54273 87.171408 
L 23.573047 87.855898 
L 23.990354 87.88024 
L 26.018039 88.319365 
L 26.333695 88.078869 
L 26.959656 86.968884 
L 28.15986 85.406144 
L 28.580734 84.533735 
L 28.68952 83.541565 
L 29.486683 82.545501 
L 29.889724 81.432596 
L 30.178629 78.960447 
L 30.085894 76.835899 
L 30.424733 76.206908 
L 31.601754 76.004384 
L 32.168864 76.154329 
L 34.337435 76.90795 
L 34.499721 76.921582 
L 35.132815 76.668427 
L 35.560823 76.191329 
L 35.871128 76.078383 
L 37.083816 76.111488 
L 38.130651 76.314011 
L 40.199354 77.083211 
L 42.25914 77.291576 
L 42.539128 77.079316 
L 43.118722 75.998542 
L 43.39336 75.940122 
L 46.207509 76.976107 
L 47.088491 77.030633 
L 46.587365 76.228328 
L 47.216893 76.093962 
L 47.316762 75.720072 
L 47.22046 75.219606 
L 47.257911 74.71135 
L 47.557516 74.306303 
L 48.854022 73.361843 
L 49.096559 72.997691 
L 49.185728 72.617959 
L 49.109043 72.259649 
L 48.854022 71.951969 
L 47.168742 72.033757 
L 46.353745 71.922759 
L 45.570848 71.167191 
L 44.495479 71.026982 
L 44.252941 70.814722 
L 43.43616 69.804052 
L 43.261391 69.034853 
L 43.161522 68.719384 
L 42.790582 68.448703 
L 42.779882 68.218917 
L 43.366609 66.881094 
L 43.318458 66.074895 
L 43.004586 65.582218 
L 41.848966 64.441077 
L 40.800348 64.034083 
L 40.821748 64.696178 
L 40.479342 64.853913 
L 39.566259 64.828597 
L 38.906415 65.498483 
L 38.596109 65.80032 
L 38.191285 65.913266 
L 37.469023 65.745795 
L 35.680308 64.700073 
L 34.209033 64.647495 
L 33.495687 64.507286 
L 33.156848 64.164554 
L 32.891126 63.621246 
L 31.953076 62.90852 
L 31.601754 62.156846 
L 30.303464 61.506435 
L 29.820173 61.039073 
L 29.67037 58.719791 
L 28.757287 57.703279 
L 26.248094 56.026619 
L 24.165124 53.623601 
L 23.045171 53.049135 
L 21.500777 53.495076 
L 20.248855 54.124067 
L 19.603277 54.155225 
L 19.161003 53.68981 
L 18.761529 52.651878 
L 18.217603 52.04236 
L 18.265754 51.37637 
L 18.026783 50.803852 
L 17.762845 49.134981 
L 18.048184 48.840933 
L 18.233654 48.566358 
L 18.872098 46.428178 
L 19.539076 45.168248 
L 20.407575 44.492521 
L 20.644762 43.772005 
L 20.593045 43.359169 
L 20.066952 42.829493 
L 20.074086 42.262817 
L 20.181088 42.060293 
L 20.566294 40.831521 
L 20.848066 40.379738 
L 22.292591 39.402173 
L 22.749132 38.884181 
L 23.125422 38.73813 
L 23.833418 38.588185 
L 25.84862 37.906616 
L 26.454964 37.536621 
L 26.740302 36.975787 
L 26.685018 35.602912 
L 26.811637 35.053762 
L 27.332379 34.331299 
L 27.853122 33.86199 
L 29.475983 32.853268 
L 30.093027 32.023701 
L 30.677971 32.354748 
L 31.343166 32.33138 
L 31.601754 32.265171 
L 32.3686 32.382011 
L 32.293699 31.425867 
L 31.601754 29.392844 
L 31.109545 28.569119 
L 30.192896 28.144598 
L 28.202661 27.760972 
L 27.39658 27.412398 
L 27.154043 27.433819 
L 27.032774 27.690868 
L 26.936472 28.559382 
L 26.777753 28.783326 
L 26.326562 28.64896 
L 26.069757 28.148493 
L 26.026956 27.527292 
L 26.215993 27.02293 
L 26.665401 26.279046 
L 27.628418 23.322984 
L 28.051075 22.625836 
L 28.491566 22.176 
L 28.805438 22.384365 
L 28.926707 24.619912 
L 29.379682 25.132063 
L 31.152346 25.745475 
L 32.033328 26.613989 
L 32.686039 27.297505 
L 32.686039 27.297505 
" clip-path="url(#p5fb7e701aa)" style="fill: none; stroke: #000000; stroke-width: 2"/>
   </g>
  </g>
 </g>
 <defs>
  <clipPath id="p5fb7e701aa">
   <rect x="0" y="-0" width="191.368563" height="266.112"/>
  </clipPath>
 </defs>
</svg>
