<?xml version="1.0" encoding="utf-8" standalone="no"?>
<!DOCTYPE svg PUBLIC "-//W3C//DTD SVG 1.1//EN"
  "http://www.w3.org/Graphics/SVG/1.1/DTD/svg11.dtd">
<svg xmlns:xlink="http://www.w3.org/1999/xlink" width="357.12pt" height="232.305156pt" viewBox="0 0 357.12 232.305156" xmlns="http://www.w3.org/2000/svg" version="1.1">
 <metadata>
  <rdf:RDF xmlns:dc="http://purl.org/dc/elements/1.1/" xmlns:cc="http://creativecommons.org/ns#" xmlns:rdf="http://www.w3.org/1999/02/22-rdf-syntax-ns#">
   <cc:Work>
    <dc:type rdf:resource="http://purl.org/dc/dcmitype/StillImage"/>
    <dc:date>2024-02-02T21:57:59.800367</dc:date>
    <dc:format>image/svg+xml</dc:format>
    <dc:creator>
     <cc:Agent>
      <dc:title>Matplotlib v3.8.2, https://matplotlib.org/</dc:title>
     </cc:Agent>
    </dc:creator>
   </cc:Work>
  </rdf:RDF>
 </metadata>
 <defs>
  <style type="text/css">*{stroke-linejoin: round; stroke-linecap: butt}</style>
 </defs>
 <g id="figure_1">
  <g id="patch_1">
   <path d="M 0 232.305156 
L 357.12 232.305156 
L 357.12 0 
L 0 0 
L 0 232.305156 
z
" style="fill: none"/>
  </g>
  <g id="axes_1">
   <g id="PatchCollection_1">
    <path d="M 57.08006 44.879066 
L 67.174574 43.990857 
L 68.604712 43.383662 
L 70.27075 43.032393 
L 72.054736 42.090657 
L 76.366344 41.488904 
L 83.952895 41.87655 
L 89.088615 44.67165 
L 91.152731 45.012883 
L 95.177759 44.128019 
L 96.229476 44.330417 
L 98.942315 45.89942 
L 116.035168 50.141415 
L 125.490789 49.683093 
L 126.311521 49.433859 
L 128.960471 47.471768 
L 130.631423 46.938174 
L 132.238485 47.12719 
L 142.008638 50.735228 
L 144.244764 51.056388 
L 154.280304 50.357195 
L 159.887821 52.342703 
L 166.055599 52.799353 
L 168.006681 53.267713 
L 169.736607 54.283048 
L 171.368242 55.529218 
L 173.107998 56.527827 
L 175.177029 56.802151 
L 176.268062 56.521136 
L 178.233888 55.656344 
L 179.248745 55.475691 
L 181.391495 55.596127 
L 182.472699 55.4874 
L 183.352406 55.032423 
L 184.246857 54.819989 
L 185.323146 54.361666 
L 186.340461 53.744435 
L 187.08256 53.041897 
L 187.93278 52.444739 
L 191.176392 52.342703 
L 193.152046 51.496312 
L 194.346285 49.44724 
L 195.918946 47.84311 
L 197.344169 47.036864 
L 199.58521 44.221691 
L 199.968546 43.300027 
L 200.420686 42.542289 
L 206.141239 38.398983 
L 206.490173 37.398702 
L 207.330563 36.150859 
L 209.085062 34.220551 
L 210.726527 33.34405 
L 214.564801 32.367187 
L 218.324442 30.741311 
L 232.763431 28.653768 
L 234.360664 28.101773 
L 235.766229 27.864248 
L 236.712283 27.278799 
L 237.2578 27.148328 
L 239.398092 27.148328 
L 241.098531 26.639824 
L 245.600272 24.013667 
L 251.183216 23.458327 
L 252.416772 22.685534 
L 255.876625 24.793151 
L 260.884565 25.78005 
L 261.892051 26.332045 
L 263.124661 26.280256 
L 263.902107 26.870658 
L 263.678495 28.335953 
L 264.678608 29.456669 
L 267.357046 30.711203 
L 267.922221 31.216361 
L 268.841244 32.805437 
L 269.362188 33.170088 
L 278.429558 33.093143 
L 281.230859 32.219988 
L 282.316978 32.601366 
L 283.56471 34.972148 
L 285.427897 37.46561 
L 288.548645 36.709545 
L 291.836488 34.882944 
L 294.480523 34.578511 
L 294.480523 34.585202 
L 295.610873 36.451947 
L 297.758538 43.90053 
L 299.3656 45.150045 
L 309.182441 49.555967 
L 319.326101 51.288895 
L 326.164252 50.896216 
L 326.059769 51.786573 
L 325.912719 59.644364 
L 326.028811 60.474134 
L 326.512528 61.606836 
L 327.321303 63.103056 
L 327.36 64.046097 
L 326.934329 65.705637 
L 326.168122 67.760306 
L 325.305171 69.50414 
L 324.5854 70.236445 
L 324.101683 70.489327 
L 321.895934 72.572972 
L 321.450914 73.197275 
L 321.195512 74.008606 
L 321.160684 75.13604 
L 320.510569 74.240415 
L 317.917846 72.686242 
L 317.387692 72.064573 
L 316.191944 71.579882 
L 313.955237 71.158412 
L 312.88719 71.369147 
L 311.099372 72.280577 
L 310.224812 72.486044 
L 307.125154 72.343798 
L 306.138372 72.486044 
L 304.311857 73.537086 
L 303.015495 75.323067 
L 300.140282 82.767291 
L 299.497906 83.818333 
L 298.669782 84.434733 
L 295.426944 85.304016 
L 294.563993 85.786073 
L 294.095755 85.786073 
L 294.095755 86.228617 
L 295.748132 87.458784 
L 296.07319 87.954012 
L 296.015144 88.712659 
L 295.101887 91.531243 
L 294.447901 94.66593 
L 294.111234 95.26916 
L 293.321808 96.156882 
L 293.124452 96.878651 
L 293.213456 98.327456 
L 293.925487 101.288286 
L 294.095755 102.621187 
L 293.832613 106.999212 
L 294.095755 107.968594 
L 293.1438 108.700899 
L 293.124452 109.765112 
L 293.507556 111.161233 
L 293.770698 112.868189 
L 293.770698 115.960729 
L 293.538513 117.625538 
L 291.10445 117.767784 
L 288.550425 117.32524 
L 286.449158 117.267288 
L 285.949963 117.367387 
L 285.613296 117.757247 
L 285.148927 119.358835 
L 285.203104 119.956796 
L 285.54364 120.444122 
L 286.27502 120.826079 
L 285.001877 121.047351 
L 282.931569 121.950879 
L 281.863522 122.153712 
L 280.992832 122.904456 
L 281.085705 124.603509 
L 282.026051 127.495851 
L 281.259843 127.129698 
L 276.828996 127.013794 
L 275.432022 127.819856 
L 274.816734 129.152757 
L 274.480067 130.75171 
L 273.942174 132.361201 
L 273.090832 131.929194 
L 272.645813 132.540326 
L 272.669031 133.50444 
L 273.253361 134.126109 
L 273.036656 134.908463 
L 273.253361 135.896285 
L 273.431369 135.319397 
L 273.253361 135.05071 
L 273.586158 133.723078 
L 275.072137 135.311495 
L 275.559723 135.453741 
L 276.140184 134.900561 
L 276.523287 134.149816 
L 276.999265 133.841616 
L 277.835128 134.608166 
L 278.264668 133.941715 
L 278.67099 134.023375 
L 279.429459 134.608166 
L 280.098923 134.41587 
L 281.039268 133.931179 
L 281.700993 134.126109 
L 281.627468 134.521237 
L 281.534595 134.505432 
L 281.375935 134.608166 
L 281.658426 135.727697 
L 282.122794 136.528491 
L 282.861914 136.686542 
L 283.999616 135.896285 
L 284.08862 136.504783 
L 284.351762 136.828789 
L 284.769693 136.902546 
L 285.299847 136.776105 
L 285.299847 137.260796 
L 285.025096 137.342456 
L 284.301455 137.70334 
L 284.854827 138.496231 
L 285.299847 138.588428 
L 284.847088 139.231171 
L 284.792912 140.116259 
L 285.079272 141.017152 
L 285.624905 141.680968 
L 286.317587 141.981266 
L 286.874829 141.910143 
L 287.463029 141.720481 
L 288.221497 141.680968 
L 288.221497 142.083999 
L 287.942876 142.439615 
L 287.935137 142.795231 
L 288.159581 143.145578 
L 288.573643 143.490657 
L 287.389504 144.486381 
L 286.828392 145.687572 
L 287.052837 146.888763 
L 288.221497 147.868682 
L 287.993183 148.108394 
L 287.900309 148.350739 
L 289.614602 149.483441 
L 290.643951 150.998101 
L 291.286328 151.574989 
L 291.824221 151.885823 
L 291.499163 152.80779 
L 292.911616 153.63756 
L 293.275371 154.082738 
L 294.095755 155.866085 
L 296.65365 157.517723 
L 297.361812 158.742622 
L 298.023537 158.955991 
L 297.82618 159.667223 
L 298.058364 160.273087 
L 299.021928 161.492717 
L 298.824572 161.584914 
L 298.669782 161.650768 
L 299.211545 162.238193 
L 299.567561 163.075866 
L 299.629477 163.974125 
L 299.319898 164.745943 
L 299.459612 165.401131 
L 297.041011 164.779002 
L 294.716423 165.053327 
L 294.0677 164.849256 
L 292.809572 164.223662 
L 291.197595 163.897483 
L 290.09919 163.966064 
L 289.718311 163.966064 
L 289.531558 164.044682 
L 289.386578 164.695367 
L 289.280915 166.20917 
L 290.020557 166.674184 
L 289.880492 167.067271 
L 289.28583 167.308141 
L 288.666594 167.333232 
L 288.017872 167.110762 
L 285.536017 165.720739 
L 283.781518 165.655503 
L 280.083309 166.634039 
L 279.800721 167.595848 
L 279.550079 167.59752 
L 279.191315 167.31985 
L 278.803065 167.838391 
L 278.31898 168.16457 
L 277.299208 168.529221 
L 277.495791 168.780127 
L 277.771006 168.952416 
L 277.210746 169.392339 
L 277.869298 169.680046 
L 277.092797 170.021279 
L 276.463732 169.574665 
L 275.33584 167.94879 
L 274.615856 167.323196 
L 271.121602 165.324306 
L 269.981423 164.313988 
L 268.934621 163.059455 
L 266.91965 159.904722 
L 265.627119 158.600007 
L 264.108519 157.683361 
L 262.437567 157.283583 
L 261.400594 157.432455 
L 260.801018 157.917541 
L 259.621522 159.617015 
L 259.582206 159.844504 
L 259.375794 159.92814 
L 258.223329 159.620361 
L 256.628553 159.620361 
L 255.896283 159.019858 
L 255.090294 158.54648 
L 254.225331 158.26881 
L 253.323509 158.253756 
L 252.185787 158.839205 
L 251.129156 160.851476 
L 250.210132 161.49547 
L 249.549124 161.778158 
L 248.20499 163.867375 
L 247.792167 163.977773 
L 246.900174 163.830575 
L 246.40626 164.044682 
L 245.895145 164.566568 
L 245.457749 164.559877 
L 245.010524 164.390933 
L 244.48958 164.405988 
L 243.402125 165.227112 
L 242.523755 165.846192 
L 242.000354 165.702339 
L 241.120647 164.921183 
L 240.675879 164.695367 
L 240.105789 164.867656 
L 238.592104 166.279424 
L 237.680452 166.386478 
L 233.210656 165.627067 
L 232.360437 165.732447 
L 231.58885 166.292806 
L 229.377296 168.778454 
L 229.460844 169.032707 
L 230.17837 169.621501 
L 230.139054 169.984479 
L 229.883497 170.892761 
L 229.608281 172.926778 
L 229.215116 174.111058 
L 228.576222 175.00094 
L 226.305694 175.71017 
L 221.415703 175.49439 
L 219.449877 177.247391 
L 218.776582 178.806358 
L 218.599658 180.211435 
L 218.928934 181.511132 
L 219.410561 182.200289 
L 217.582343 182.375924 
L 216.584687 182.079854 
L 215.970366 181.551277 
L 214.707323 180.077618 
L 214.314158 179.828384 
L 213.631034 179.77653 
L 212.589146 180.798557 
L 209.984428 180.882192 
L 208.711555 181.23848 
L 207.07992 182.452868 
L 206.436112 182.571631 
L 206.111751 182.946318 
L 205.846365 183.750892 
L 205.816877 184.68761 
L 205.949571 185.604256 
L 206.175641 186.361994 
L 206.740815 187.220095 
L 207.419025 187.546274 
L 208.087406 187.680091 
L 208.632922 187.946052 
L 209.040831 188.441174 
L 209.316047 188.986478 
L 209.787845 191.127548 
L 209.714127 192.147902 
L 209.797674 192.582807 
L 210.063061 192.80695 
L 210.810074 192.947458 
L 211.075461 193.251892 
L 211.316274 194.104974 
L 211.380164 194.844312 
L 211.134435 196.393243 
L 210.57909 196.978692 
L 210.495542 197.413597 
L 211.188496 198.848783 
L 211.847047 199.487759 
L 211.994484 199.879173 
L 211.910937 200.401059 
L 211.370335 200.662002 
L 211.119692 201.053416 
L 210.588919 202.66591 
L 209.856649 204.308512 
L 209.306218 205.198395 
L 209.011344 205.365666 
L 208.66241 205.275339 
L 204.598066 206.242166 
L 203.983745 206.556636 
L 202.715788 207.433137 
L 201.639498 207.968404 
L 201.11364 208.035313 
L 200.474747 207.908187 
L 199.81128 207.901496 
L 198.626871 208.533781 
L 197.948661 208.677634 
L 197.029637 208.286219 
L 195.633901 206.697144 
L 194.572355 206.282311 
L 194.085814 206.476346 
L 192.311656 207.707461 
L 190.660363 207.834587 
L 190.124675 208.025276 
L 188.876376 209.042285 
L 188.340688 209.122575 
L 187.888549 208.992104 
L 186.428923 208.222656 
L 182.231886 207.924914 
L 181.588078 208.149057 
L 180.49213 210.009112 
L 180.025246 210.196456 
L 178.789234 209.989039 
L 177.570422 210.206492 
L 169.594085 212.862757 
L 168.478479 212.946393 
L 167.377616 212.76574 
L 166.453678 212.193673 
L 164.428878 209.336682 
L 163.323263 208.451586 
L 161.548944 207.597062 
L 161.36219 207.376265 
L 160.851076 206.566672 
L 160.610262 206.563327 
L 159.828846 206.733943 
L 152.058921 203.348376 
L 150.60421 202.425039 
L 149.965317 202.344749 
L 149.493519 202.445112 
L 148.500777 202.806418 
L 146.652901 202.940235 
L 146.505464 203.803353 
L 146.633242 204.930761 
L 146.225334 205.870824 
L 145.281737 205.827334 
L 144.244764 204.877234 
L 142.632788 202.742855 
L 141.703935 201.886426 
L 140.834057 201.461558 
L 139.90029 201.32105 
L 138.804342 201.32105 
L 139.094302 200.675384 
L 137.438094 200.702147 
L 136.789371 200.538221 
L 136.057101 199.842373 
L 136.022699 199.604848 
L 136.086588 198.567768 
L 135.90475 198.350315 
L 135.2806 197.865229 
L 134.582732 196.935201 
L 134.445124 196.403279 
L 134.292773 194.610133 
L 133.703025 192.914004 
L 132.715198 192.000704 
L 131.344034 192.546007 
L 130.292318 192.786878 
L 129.324149 194.198646 
L 128.616451 194.359226 
L 127.61388 194.18861 
L 126.88161 194.265554 
L 124.861725 194.800822 
L 123.588853 194.646933 
L 123.176029 194.710496 
L 122.537136 195.004893 
L 122.094825 194.851003 
L 122.011278 194.493043 
L 122.119398 193.944394 
L 122.075167 193.379018 
L 121.146314 192.770151 
L 120.379642 191.883614 
L 119.549081 191.990667 
L 118.649716 192.382082 
L 117.789667 192.947458 
L 117.091799 193.573052 
L 116.895217 193.984539 
L 116.551197 195.242418 
L 116.197349 195.212309 
L 115.411018 194.258864 
L 113.995624 193.83065 
L 112.098602 193.660033 
L 110.707781 194.325772 
L 110.928936 198.387115 
L 110.638977 198.875546 
L 110.108204 199.14318 
L 109.543029 199.029436 
L 108.491313 198.313515 
L 108.319303 198.775184 
L 107.567375 199.173289 
L 106.77613 199.982881 
L 106.073347 200.033063 
L 103.837221 198.35366 
L 103.453885 198.300134 
L 102.166269 199.521213 
L 101.399597 199.902591 
L 100.416684 200.160189 
L 99.409199 200.277278 
L 98.568808 200.233788 
L 97.856196 200.585057 
L 96.779907 202.421694 
L 96.00832 202.62911 
L 94.445489 202.261114 
L 92.867914 202.274496 
L 91.948891 202.619074 
L 90.617281 203.948495 
L 90.027296 204.341966 
L 88.434978 204.278403 
L 85.299486 202.612383 
L 80.615907 202.471875 
L 79.711627 202.772963 
L 78.266745 203.853535 
L 77.416525 204.328585 
L 76.40904 204.452365 
L 75.912669 203.963934 
L 75.465444 203.217905 
L 74.585737 202.582274 
L 73.740432 202.642492 
L 72.62974 203.130924 
L 71.568195 203.823426 
L 70.880156 204.499201 
L 70.717975 204.994324 
L 70.644256 206.175258 
L 70.393614 206.804197 
L 69.970961 207.252484 
L 69.450017 207.556917 
L 68.378643 207.881423 
L 66.38333 208.118948 
L 56.957196 206.623544 
L 58.09246 205.71359 
L 58.26447 204.509238 
L 58.023657 203.150996 
L 57.925365 201.769337 
L 58.077717 201.371231 
L 58.746097 200.367605 
L 58.687123 199.992917 
L 58.348018 199.0194 
L 58.195666 193.496107 
L 58.465967 192.044194 
L 58.357847 191.605944 
L 57.753356 190.515336 
L 57.674723 189.650544 
L 57.866391 187.823944 
L 58.09246 187.08126 
L 58.32836 186.858789 
L 59.335845 186.472393 
L 60.212394 184.520406 
L 60.839702 183.489949 
L 61.360645 181.984509 
L 61.326243 180.458997 
L 60.485853 179.095737 
L 59.979653 178.853194 
L 58.854218 178.792976 
L 58.333274 178.555451 
L 58.0384 178.078729 
L 57.021086 175.641588 
L 56.514886 173.425246 
L 55.993942 172.398201 
L 55.237099 171.864607 
L 55.114235 171.374502 
L 55.060175 169.964407 
L 54.54906 168.48573 
L 54.195211 166.997017 
L 53.998629 164.747221 
L 53.610378 164.034646 
L 53.472771 162.68644 
L 53.212299 162.361934 
L 52.676611 161.998956 
L 52.40631 161.980556 
L 51.344764 162.24819 
L 50.971258 161.95212 
L 50.484716 160.828058 
L 49.998174 160.774532 
L 47.830851 160.873222 
L 47.516319 160.744423 
L 46.911828 160.001739 
L 45.491519 159.698978 
L 42.729534 158.26881 
L 38.606215 155.264621 
L 37.459284 153.98164 
L 36.876288 152.969661 
L 36.247224 151.107934 
L 34.448494 149.741329 
L 29.76 143.3315 
L 30.669194 142.843068 
L 32.649764 142.806268 
L 33.514727 142.525253 
L 34.202766 141.608607 
L 34.959609 139.231685 
L 35.691879 138.264858 
L 36.419234 137.911915 
L 37.013896 137.779771 
L 37.549584 137.408429 
L 38.055784 136.373021 
L 38.704506 133.999444 
L 38.866687 132.652912 
L 38.675019 131.67103 
L 38.311341 130.75773 
L 37.70685 130.011701 
L 36.247224 128.947856 
L 33.578616 126.53748 
L 33.745711 125.247819 
L 34.492725 121.977669 
L 34.71388 120.38023 
L 34.374775 119.49202 
L 35.613246 117.120116 
L 36.301284 116.32056 
L 36.247224 115.72842 
L 35.539527 115.164716 
L 34.900634 114.189526 
L 33.676907 110.951157 
L 34.124133 110.260327 
L 34.536956 109.878949 
L 35.745939 109.234955 
L 36.247224 108.806741 
L 36.989323 107.662607 
L 37.41689 107.292938 
L 38.070527 107.277883 
L 38.915832 107.408355 
L 39.258941 107.190455 
L 39.50558 106.824579 
L 40.154302 106.376292 
L 41.451747 106.207348 
L 45.034464 107.175848 
L 46.479346 106.821233 
L 47.924228 106.207348 
L 48.521624 105.43275 
L 48.803935 104.706926 
L 49.939199 100.744274 
L 50.273389 100.197297 
L 50.828735 99.862755 
L 52.774902 99.295706 
L 53.403967 98.399132 
L 55.399279 96.512314 
L 55.649922 96.012174 
L 56.229841 94.369571 
L 56.632835 94.011611 
L 57.827074 93.345872 
L 58.795243 91.875559 
L 59.670035 89.744525 
L 60.171321 87.580037 
L 60.01897 86.00267 
L 59.227725 85.651401 
L 56.888392 85.144569 
L 56.043087 84.621011 
L 55.379621 83.956944 
L 54.121493 82.250779 
L 52.676611 80.668394 
L 52.529174 80.156545 
L 52.209728 78.460415 
L 51.610151 77.58726 
L 47.797157 73.892291 
L 47.56055 73.723297 
L 46.779135 73.375373 
L 46.317166 73.321847 
L 45.412886 73.368683 
L 44.960746 73.201411 
L 44.572495 72.783234 
L 44.041722 71.675899 
L 43.682959 71.282812 
L 43.240649 71.160704 
L 42.213505 71.215903 
L 41.707305 71.102159 
L 41.255165 70.760926 
L 40.257508 69.536501 
L 38.679933 68.792145 
L 38.026296 68.183278 
L 37.574156 66.947145 
L 36.68462 63.869356 
L 36.065385 62.362243 
L 36.247224 61.718249 
L 36.306199 61.2248 
L 36.089958 60.371717 
L 36.247224 60.000375 
L 35.883547 59.200819 
L 35.839315 57.715452 
L 35.524783 56.862369 
L 35.033327 56.390664 
L 33.632676 55.626235 
L 33.038014 55.079259 
L 32.227111 53.607273 
L 31.711082 51.917835 
L 31.701253 51.379222 
L 31.878177 50.29865 
L 31.829031 49.795164 
L 30.595476 48.334887 
L 29.971326 46.581886 
L 30.221969 45.171791 
L 30.831375 43.679732 
L 31.283515 41.687533 
L 31.376891 39.747188 
L 32.114076 38.268512 
L 32.222196 37.258194 
L 32.35489 34.578511 
L 32.934808 33.698665 
L 34.006183 33.243687 
L 36.247224 32.889073 
L 37.303856 32.858964 
L 37.839543 32.186534 
L 38.203221 31.253161 
L 38.753652 30.446914 
L 39.726735 30.105681 
L 40.704734 30.17259 
L 41.550039 30.008664 
L 42.110299 29.008383 
L 42.105384 28.439661 
L 41.746621 26.439098 
L 41.839998 25.709796 
L 42.331454 23.792869 
L 42.26265 23.789524 
L 42.115213 23.240875 
L 42.292138 22.762479 
L 43.063724 21.885979 
L 43.786165 20.725117 
L 44.203903 20.293558 
L 46.242098 19.358763 
L 56.455911 26.191537 
L 58.176008 26.930875 
L 60.338416 27.218582 
L 62.37796 28.121846 
L 62.810442 30.112372 
L 61.999539 32.099553 
L 60.338416 33.002817 
L 59.301443 33.139979 
L 57.409336 33.748846 
L 56.426423 33.889354 
L 55.477913 34.501566 
L 54.94714 35.956825 
L 53.797132 40.816051 
L 53.821705 42.281346 
L 54.411452 43.507443 
L 55.61552 44.53616 
L 57.08006 44.879066 
L 57.08006 44.879066 
" clip-path="url(#pea13f9a5f7)" style="fill: none; stroke: #000000; stroke-width: 2"/>
   </g>
  </g>
 </g>
 <defs>
  <clipPath id="pea13f9a5f7">
   <rect x="0" y="0" width="357.12" height="232.305156"/>
  </clipPath>
 </defs>
</svg>
