<?xml version="1.0" encoding="utf-8" standalone="no"?>
<!DOCTYPE svg PUBLIC "-//W3C//DTD SVG 1.1//EN"
  "http://www.w3.org/Graphics/SVG/1.1/DTD/svg11.dtd">
<svg xmlns:xlink="http://www.w3.org/1999/xlink" width="276.904138pt" height="266.112pt" viewBox="0 0 276.904138 266.112" xmlns="http://www.w3.org/2000/svg" version="1.1">
 <metadata>
  <rdf:RDF xmlns:dc="http://purl.org/dc/elements/1.1/" xmlns:cc="http://creativecommons.org/ns#" xmlns:rdf="http://www.w3.org/1999/02/22-rdf-syntax-ns#">
   <cc:Work>
    <dc:type rdf:resource="http://purl.org/dc/dcmitype/StillImage"/>
    <dc:date>2024-02-02T21:57:59.859381</dc:date>
    <dc:format>image/svg+xml</dc:format>
    <dc:creator>
     <cc:Agent>
      <dc:title>Matplotlib v3.8.2, https://matplotlib.org/</dc:title>
     </cc:Agent>
    </dc:creator>
   </cc:Work>
  </rdf:RDF>
 </metadata>
 <defs>
  <style type="text/css">*{stroke-linejoin: round; stroke-linecap: butt}</style>
 </defs>
 <g id="figure_1">
  <g id="patch_1">
   <path d="M 0 266.112 
L 276.904138 266.112 
L 276.904138 0 
L 0 0 
L 0 266.112 
z
" style="fill: none"/>
  </g>
  <g id="axes_1">
   <g id="PatchCollection_1">
    <path d="M 244.132378 234.929505 
L 241.987171 237.706344 
L 240.901257 240.94049 
L 240.181103 241.365853 
L 237.675148 242.459169 
L 236.214581 242.228297 
L 235.786805 242.363288 
L 235.467344 242.528278 
L 234.814712 243.005247 
L 234.584372 243.005247 
L 234.584372 242.732265 
L 234.807857 242.531278 
L 234.309951 242.132034 
L 233.585947 242.040267 
L 231.832567 243.074822 
L 230.671321 243.005247 
L 228.67675 243.491509 
L 227.18753 242.873021 
L 225.030715 242.678268 
L 224.545354 242.750263 
L 223.999582 243.040914 
L 223.858158 243.314353 
L 223.661648 243.643612 
L 223.538316 243.936 
L 223.319227 243.885049 
L 222.923514 243.615922 
L 222.492712 243.096905 
L 222.397374 242.697596 
L 222.314368 242.061848 
L 222.28649 241.23087 
L 221.690237 240.178734 
L 221.580658 239.978285 
L 221.691806 239.71636 
L 222.696482 239.608648 
L 223.261165 239.236618 
L 223.472249 238.437859 
L 223.536181 237.738321 
L 223.140011 237.242509 
L 222.77171 236.836473 
L 222.772651 236.459572 
L 223.931382 237.031705 
L 224.617363 236.766493 
L 225.197805 236.554632 
L 225.594185 236.234067 
L 226.645813 235.907341 
L 226.884843 235.187113 
L 227.629349 234.504126 
L 227.935782 233.818674 
L 228.676369 233.9949 
L 229.34549 233.603854 
L 230.328552 233.594854 
L 230.674063 233.582855 
L 231.015461 233.411866 
L 231.362343 233.144883 
L 231.858673 232.41893 
L 232.138372 232.10695 
L 232.261769 232.26594 
L 232.478399 233.032391 
L 233.01449 233.693848 
L 233.689978 234.609484 
L 234.562379 235.027697 
L 236.678161 235.728346 
L 237.421876 235.25266 
L 238.165102 234.880033 
L 239.851986 234.445457 
L 240.634616 233.420423 
L 241.320343 231.981687 
L 242.978098 229.284133 
L 243.488139 228.568679 
L 244.138028 228.159205 
L 244.864699 228.468185 
L 245.119719 229.116143 
L 245.0827 229.963589 
L 244.414986 233.903834 
L 244.132378 234.929505 
" clip-path="url(#p873ce4b33c)" style="fill: none; stroke: #000000; stroke-width: 2"/>
    <path d="M 243.802326 225.001367 
L 243.488257 225.044249 
L 243.424158 224.655858 
L 243.517621 224.200382 
L 243.277205 223.490977 
L 242.835067 222.779725 
L 242.706904 222.02557 
L 243.045553 221.754543 
L 243.832898 221.487202 
L 244.465716 221.090161 
L 245.054545 220.356136 
L 245.561205 219.990732 
L 245.876553 220.191719 
L 246.28563 220.732101 
L 246.641772 221.05492 
L 247.311834 221.4262 
L 247.979783 221.73062 
L 248.293495 222.097282 
L 248.151587 222.826703 
L 247.518811 223.254675 
L 246.260707 223.403002 
L 245.672266 223.968307 
L 245.290081 224.056203 
L 244.141361 224.639331 
L 243.802326 225.001367 
" clip-path="url(#p873ce4b33c)" style="fill: none; stroke: #000000; stroke-width: 2"/>
    <path d="M 153.553785 196.377756 
L 153.685408 196.62824 
L 153.801949 197.10221 
L 153.559269 197.381192 
L 153.13972 197.393191 
L 152.86002 197.09021 
L 152.662585 196.595242 
L 152.621453 196.305761 
L 152.780498 196.260764 
L 152.979304 196.32826 
L 153.184965 196.48125 
L 153.152059 196.253265 
L 152.966964 195.630805 
L 153.07665 195.558809 
L 153.238437 195.801794 
L 153.553785 196.377756 
" clip-path="url(#p873ce4b33c)" style="fill: none; stroke: #000000; stroke-width: 2"/>
    <path d="M 152.748963 195.144836 
L 152.624195 195.188333 
L 152.498056 195.095339 
L 152.550157 194.141401 
L 152.695491 194.207397 
L 152.785982 194.825357 
L 152.748963 195.144836 
" clip-path="url(#p873ce4b33c)" style="fill: none; stroke: #000000; stroke-width: 2"/>
    <path d="M 150.839054 190.826615 
L 150.743079 191.032101 
L 150.485317 190.712622 
L 150.248121 190.157658 
L 150.131579 189.626692 
L 150.268687 189.527699 
L 150.468864 189.916174 
L 150.534676 190.148659 
L 150.663557 190.366144 
L 150.839054 190.826615 
" clip-path="url(#p873ce4b33c)" style="fill: none; stroke: #000000; stroke-width: 2"/>
    <path d="M 241.701627 187.865806 
L 242.21578 187.936301 
L 242.213038 187.859806 
L 242.407731 187.693317 
L 242.679204 187.520828 
L 242.909544 187.432334 
L 243.148112 187.451833 
L 243.649925 187.621322 
L 243.930996 187.661819 
L 244.763239 187.976799 
L 246.49765 189.187221 
L 247.29973 189.215719 
L 247.1352 189.008732 
L 246.839048 188.41477 
L 247.961959 188.993733 
L 248.522729 189.134724 
L 248.887435 188.942736 
L 249.416671 189.35821 
L 249.936309 189.584695 
L 250.540953 189.677689 
L 251.325208 189.698688 
L 251.550065 189.800681 
L 251.813312 190.049665 
L 252.256169 190.58963 
L 252.577001 190.825115 
L 253.23923 190.825115 
L 253.53127 190.955606 
L 253.828793 191.633563 
L 253.669748 192.373015 
L 253.233746 192.975976 
L 252.707253 193.22046 
L 252.108093 193.020973 
L 250.540953 191.459574 
L 249.858157 190.946607 
L 249.319324 190.640627 
L 248.72702 190.492136 
L 247.872839 190.451639 
L 247.493051 190.496636 
L 246.989866 190.685624 
L 246.723878 190.726121 
L 246.326266 190.645126 
L 246.106894 190.465138 
L 245.934138 190.28515 
L 245.668149 190.199655 
L 244.941479 190.355645 
L 243.606051 191.068099 
L 242.791632 191.230089 
L 242.435152 191.150594 
L 242.210296 190.978105 
L 242.043024 190.807116 
L 241.862042 190.726121 
L 240.586942 190.451639 
L 240.005606 190.292649 
L 239.682032 190.051165 
L 239.758812 189.701687 
L 240.377167 189.215719 
L 240.183846 188.954736 
L 240.170135 188.783747 
L 240.377167 188.41477 
L 240.534841 187.937801 
L 240.475885 187.541827 
L 240.48274 187.207348 
L 240.837849 186.905868 
L 241.415072 187.679818 
L 241.701627 187.865806 
" clip-path="url(#p873ce4b33c)" style="fill: none; stroke: #000000; stroke-width: 2"/>
    <path d="M 224.801634 182.566696 
L 224.199157 182.677184 
L 224.44584 181.682225 
L 224.856713 181.378326 
L 225.267426 181.65482 
L 224.801634 182.566696 
" clip-path="url(#p873ce4b33c)" style="fill: none; stroke: #000000; stroke-width: 2"/>
    <path d="M 229.481333 182.183076 
L 229.262423 182.238078 
L 227.840254 181.794565 
L 227.210978 181.600657 
L 226.526828 181.489651 
L 226.444788 181.296166 
L 227.047026 181.213688 
L 227.621842 181.131267 
L 228.38792 181.325399 
L 229.153618 181.685396 
L 229.481333 182.183076 
" clip-path="url(#p873ce4b33c)" style="fill: none; stroke: #000000; stroke-width: 2"/>
    <path d="M 199.62742 183.081115 
L 198.588144 183.886563 
L 198.887039 182.304165 
L 199.865987 181.251233 
L 201.06705 180.315293 
L 202.018576 179.080873 
L 201.84445 180.115806 
L 200.880583 181.636708 
L 199.62742 183.081115 
" clip-path="url(#p873ce4b33c)" style="fill: none; stroke: #000000; stroke-width: 2"/>
    <path d="M 216.807001 177.297488 
L 216.011777 178.725396 
L 215.63336 179.080873 
L 215.616907 178.710397 
L 215.498995 178.416416 
L 215.278251 178.209429 
L 214.965646 178.098436 
L 215.082188 178.599404 
L 215.360516 179.080873 
L 215.726593 179.314858 
L 216.115979 179.080873 
L 216.343577 179.620838 
L 216.65207 182.37466 
L 216.837165 182.940124 
L 217.267683 183.886563 
L 216.689089 184.029053 
L 216.446408 184.653013 
L 216.327125 185.461461 
L 216.115979 186.149917 
L 215.786921 186.575889 
L 215.30156 187.072357 
L 214.788777 187.48783 
L 214.380197 187.661819 
L 213.993553 187.990298 
L 212.874755 190.199655 
L 211.115665 191.67856 
L 210.804431 191.837549 
L 210.447951 191.864548 
L 208.399564 192.716493 
L 207.557723 192.902481 
L 207.042198 193.38095 
L 206.200358 194.753361 
L 205.928885 195.056342 
L 205.037685 195.85129 
L 204.697659 196.01328 
L 203.933969 196.133272 
L 203.333438 196.458751 
L 202.247546 197.522183 
L 202.205043 197.189204 
L 202.247546 195.887288 
L 202.399735 195.524312 
L 202.753473 195.422318 
L 204.082046 195.531811 
L 204.365858 195.39682 
L 205.383197 194.478879 
L 205.410618 194.243394 
L 205.052767 193.974912 
L 205.052767 193.748426 
L 205.712255 193.319454 
L 205.950822 193.22046 
L 205.753387 193.160464 
L 205.599827 193.092968 
L 205.498367 192.959477 
L 205.470945 192.716493 
L 206.148257 192.44651 
L 207.138174 191.83155 
L 207.916945 191.711558 
L 208.097927 191.591565 
L 208.466746 191.072599 
L 208.912346 190.75312 
L 208.876698 190.289649 
L 208.747817 189.781182 
L 208.754672 189.446704 
L 209.37577 189.19172 
L 210.297133 189.092727 
L 211.130747 188.88574 
L 211.494082 188.300778 
L 211.633932 187.409835 
L 212.020575 186.980863 
L 212.61288 186.806874 
L 213.354632 186.676383 
L 214.69006 186.172415 
L 215.616907 185.306971 
L 215.932255 184.113048 
L 215.424957 182.628144 
L 214.496738 181.932189 
L 212.101469 181.890192 
L 211.0334 181.347227 
L 210.527473 180.855258 
L 210.585059 180.717267 
L 210.992268 180.05131 
L 211.214382 179.838324 
L 211.459805 179.697333 
L 211.724423 179.607339 
L 211.509164 179.367354 
L 211.0334 178.599404 
L 212.148085 178.927883 
L 212.414074 179.080873 
L 212.526502 178.671399 
L 212.776038 178.35642 
L 213.077675 178.212429 
L 213.354632 178.326422 
L 213.558922 178.171932 
L 213.650784 178.119435 
L 213.793376 178.098436 
L 213.793376 177.822454 
L 213.51779 177.744459 
L 213.403991 177.666464 
L 213.3135 177.534473 
L 213.105096 177.297488 
L 214.84362 177.316987 
L 215.674492 177.181995 
L 216.57666 176.814519 
L 216.612308 176.95701 
L 216.62739 177.075502 
L 216.675378 177.189495 
L 216.807001 177.297488 
" clip-path="url(#p873ce4b33c)" style="fill: none; stroke: #000000; stroke-width: 2"/>
    <path d="M 205.052767 175.787085 
L 205.172051 175.821583 
L 205.583374 175.767587 
L 205.720481 175.787085 
L 205.791777 175.895078 
L 205.950822 176.313551 
L 206.608938 176.543037 
L 207.818227 176.628531 
L 208.524332 176.814519 
L 208.273425 176.313551 
L 209.022032 176.49804 
L 211.0334 177.297488 
L 208.524332 179.607339 
L 208.409161 179.307358 
L 208.392708 179.226363 
L 208.043084 179.080873 
L 208.073248 178.473412 
L 207.454892 178.587405 
L 206.578775 178.860387 
L 204.090272 178.203429 
L 203.74339 177.912448 
L 203.192217 177.297488 
L 203.005751 177.72946 
L 202.602655 178.095436 
L 202.2023 178.293424 
L 202.018576 178.212429 
L 202.213269 177.41448 
L 202.207785 176.994508 
L 201.914375 176.814519 
L 199.720653 173.520732 
L 199.846792 173.402239 
L 199.901635 173.280747 
L 199.926314 173.154755 
L 199.970189 173.019764 
L 200.340379 172.997266 
L 200.90252 172.799278 
L 201.120522 172.764781 
L 201.523618 172.881773 
L 202.479258 173.520732 
L 202.816542 173.610726 
L 203.548697 173.676722 
L 203.880497 173.772715 
L 204.822427 174.552665 
L 204.925257 174.867645 
L 204.963647 175.517103 
L 205.052767 175.787085 
" clip-path="url(#p873ce4b33c)" style="fill: none; stroke: #000000; stroke-width: 2"/>
    <path d="M 217.747559 163.156401 
L 220.278565 163.408384 
L 222.17065 163.205897 
L 222.828767 163.408384 
L 222.828767 163.682867 
L 219.827481 164.293327 
L 218.408418 164.263329 
L 217.747559 163.156401 
" clip-path="url(#p873ce4b33c)" style="fill: none; stroke: #000000; stroke-width: 2"/>
    <path d="M 159.696205 151.218671 
L 160.233667 152.060117 
L 159.021635 151.664142 
L 157.603943 151.376161 
L 156.409736 150.93069 
L 155.862677 150.047247 
L 156.993814 150.134241 
L 158.443041 150.548214 
L 159.696205 151.218671 
" clip-path="url(#p873ce4b33c)" style="fill: none; stroke: #000000; stroke-width: 2"/>
    <path d="M 25.781849 148.712333 
L 25.662565 148.772329 
L 25.020902 148.313359 
L 24.960574 148.175368 
L 25.781849 148.712333 
" clip-path="url(#p873ce4b33c)" style="fill: none; stroke: #000000; stroke-width: 2"/>
    <path d="M 24.472471 147.308424 
L 24.416257 147.330922 
L 23.075345 145.801021 
L 23.265924 145.922513 
L 24.120105 146.831454 
L 24.472471 147.308424 
" clip-path="url(#p873ce4b33c)" style="fill: none; stroke: #000000; stroke-width: 2"/>
    <path d="M 144.962623 142.012265 
L 145.258775 142.472736 
L 145.631708 142.844712 
L 146.043031 143.066697 
L 146.570895 143.17769 
L 147.286597 143.207688 
L 147.172797 143.363678 
L 147.11247 143.48367 
L 147.02335 143.588664 
L 146.825915 143.708656 
L 149.030605 146.072503 
L 150.626538 147.005443 
L 150.988502 147.128435 
L 151.516366 148.274361 
L 152.78324 149.189302 
L 155.610399 150.299231 
L 155.12778 150.818197 
L 154.357235 150.606711 
L 152.849052 149.771265 
L 151.137949 149.639273 
L 150.499028 149.306295 
L 150.778727 148.536844 
L 150.153516 148.095873 
L 149.515966 147.501911 
L 148.931888 147.168933 
L 148.456124 147.506411 
L 147.286597 146.252492 
L 146.026578 145.307553 
L 144.603401 144.836583 
L 142.936173 144.991073 
L 142.936173 144.739089 
L 143.930203 144.433109 
L 144.086505 144.350614 
L 144.022065 144.020636 
L 143.79858 143.686157 
L 143.832856 143.480671 
L 143.476377 143.240686 
L 143.196677 142.814714 
L 143.128123 142.340744 
L 143.395483 141.94777 
L 143.810919 142.030264 
L 144.101587 141.911772 
L 144.320959 141.749782 
L 144.526621 141.697286 
L 144.787125 141.818778 
L 144.962623 142.012265 
" clip-path="url(#p873ce4b33c)" style="fill: none; stroke: #000000; stroke-width: 2"/>
    <path d="M 167.385199 142.199753 
L 169.36229 145.495041 
L 169.820229 145.784522 
L 170.427616 146.486477 
L 170.991128 147.323423 
L 171.317444 148.032877 
L 171.727396 150.527216 
L 172.131863 151.166175 
L 172.721426 151.826132 
L 174.71497 155.72888 
L 174.664241 156.109855 
L 174.928858 156.448834 
L 175.016607 157.249782 
L 175.019349 158.878677 
L 175.293564 160.654562 
L 175.863932 161.761491 
L 176.819572 162.436447 
L 179.691976 163.528377 
L 180.928686 164.501814 
L 183.11281 166.978154 
L 182.968847 167.167142 
L 182.783752 167.527119 
L 182.631563 167.710107 
L 183.038772 168.085083 
L 183.328069 169.033021 
L 183.498083 170.148949 
L 183.544699 171.593356 
L 183.478888 171.984831 
L 183.27734 172.14682 
L 182.861904 172.011829 
L 182.667211 171.755346 
L 182.421788 170.502927 
L 182.29702 170.589921 
L 181.962478 170.75191 
L 181.743106 169.791972 
L 180.78061 168.058084 
L 180.430986 166.552182 
L 180.111525 166.036215 
L 178.974903 164.629306 
L 178.625279 164.294827 
L 178.202988 164.087841 
L 174.350264 163.313891 
L 173.512537 162.781425 
L 173.080648 162.424448 
L 170.67441 160.884047 
L 170.146545 160.663562 
L 170.245263 160.303585 
L 170.402937 159.976606 
L 170.612711 159.676625 
L 170.8787 159.381144 
L 171.087104 159.381144 
L 171.424388 159.91361 
L 172.373173 160.38458 
L 172.718684 160.893047 
L 171.850793 160.768555 
L 171.569722 160.663562 
L 171.800063 161.091034 
L 172.146945 161.45551 
L 172.550042 161.668497 
L 172.949025 161.647498 
L 173.360347 161.92348 
L 174.002011 162.472445 
L 174.309132 162.652433 
L 174.68892 162.745427 
L 175.233237 162.793424 
L 175.577377 162.683931 
L 175.353892 162.287957 
L 173.430272 160.128096 
L 173.179365 159.507136 
L 173.306875 158.5127 
L 173.590688 157.795747 
L 173.897809 157.210784 
L 174.078791 156.613823 
L 174.05137 155.737879 
L 173.829255 154.747943 
L 173.448096 153.869 
L 172.949025 153.317036 
L 172.82837 153.486525 
L 172.467777 153.824003 
L 172.525362 152.954059 
L 171.250262 151.865129 
L 171.317444 151.055182 
L 170.863618 150.939689 
L 170.452295 150.7732 
L 170.239779 150.497218 
L 170.396081 150.047247 
L 169.713285 149.499782 
L 169.458265 148.91482 
L 169.24712 147.257427 
L 168.556097 145.495041 
L 168.231152 145.322552 
L 168.010409 145.403546 
L 167.770471 145.586535 
L 167.385199 145.721526 
L 167.615539 143.94714 
L 167.423589 143.414675 
L 166.717485 143.983138 
L 167.034203 143.49567 
L 167.174053 143.33518 
L 167.385199 143.207688 
L 166.962907 143.072697 
L 166.68595 143.33668 
L 166.417219 143.731154 
L 166.003154 143.983138 
L 166.003154 143.708656 
L 166.347294 143.33968 
L 166.610541 142.907708 
L 166.75039 142.372242 
L 166.717485 141.697286 
L 166.921775 141.751282 
L 167.091788 141.857775 
L 167.242607 142.010765 
L 167.385199 142.199753 
" clip-path="url(#p873ce4b33c)" style="fill: none; stroke: #000000; stroke-width: 2"/>
    <path d="M 185.052883 141.767781 
L 184.836253 142.237251 
L 184.496226 142.505734 
L 183.783267 142.472736 
L 183.783267 142.703721 
L 183.993041 142.984203 
L 183.385655 142.993202 
L 182.57672 142.732219 
L 182.170881 142.199753 
L 181.562124 142.480235 
L 180.44881 142.490735 
L 179.851021 142.703721 
L 179.724882 141.859275 
L 179.95248 141.389806 
L 180.476231 141.134822 
L 181.25226 140.941335 
L 182.948281 140.438867 
L 184.206929 140.455366 
L 184.636076 140.644354 
L 185.391539 141.193318 
L 185.052883 141.767781 
" clip-path="url(#p873ce4b33c)" style="fill: none; stroke: #000000; stroke-width: 2"/>
    <path d="M 174.1542 136.806101 
L 173.927973 136.936593 
L 173.718198 136.351631 
L 173.932086 135.819165 
L 174.210414 135.765169 
L 174.310503 135.933158 
L 174.320101 136.335132 
L 174.1542 136.806101 
" clip-path="url(#p873ce4b33c)" style="fill: none; stroke: #000000; stroke-width: 2"/>
    <path d="M 133.441472 130.851486 
L 133.231697 131.079471 
L 132.72577 130.557505 
L 132.104673 129.249589 
L 131.5535 128.405144 
L 131.139436 127.305715 
L 130.791182 126.711753 
L 130.66093 126.327778 
L 130.66093 125.795312 
L 131.493173 126.384774 
L 133.441472 130.851486 
" clip-path="url(#p873ce4b33c)" style="fill: none; stroke: #000000; stroke-width: 2"/>
    <path d="M 196.937369 128.448641 
L 195.558067 130.851486 
L 195.456607 130.428513 
L 195.516934 130.062537 
L 195.788407 129.318585 
L 195.510079 129.753557 
L 195.026089 131.25796 
L 194.991812 131.581939 
L 192.774782 131.833922 
L 192.774782 131.581939 
L 193.347892 130.857485 
L 193.733164 129.714559 
L 193.874385 128.436642 
L 193.716712 127.305715 
L 193.731793 126.420772 
L 194.101984 125.885306 
L 194.688804 125.556827 
L 195.346921 125.291345 
L 195.533387 125.138354 
L 195.717111 124.935868 
L 195.917288 124.815875 
L 196.142145 124.913369 
L 196.646701 125.82081 
L 196.727594 125.910805 
L 196.794777 126.29478 
L 197.101898 126.812246 
L 197.188276 127.053731 
L 197.16771 127.388209 
L 196.982614 128.115662 
L 196.937369 128.448641 
" clip-path="url(#p873ce4b33c)" style="fill: none; stroke: #000000; stroke-width: 2"/>
    <path d="M 83.456157 121.111114 
L 83.253238 121.295603 
L 82.660933 121.471091 
L 82.383976 121.475591 
L 82.238642 121.351099 
L 82.068628 121.286603 
L 81.720375 121.471091 
L 81.487292 121.819069 
L 81.162347 122.827004 
L 80.818207 123.255976 
L 80.380834 123.573955 
L 78.665618 124.4364 
L 78.059602 124.512895 
L 77.84023 124.239912 
L 77.667475 123.750944 
L 77.598921 123.234977 
L 77.694896 122.89 
L 78.003388 122.854002 
L 78.424309 122.970994 
L 78.799983 122.985993 
L 78.959028 122.636516 
L 79.293571 122.512024 
L 81.144523 121.241606 
L 81.303568 121.17411 
L 81.851998 120.853131 
L 82.200252 120.737639 
L 83.580925 120.737639 
L 83.456157 121.111114 
" clip-path="url(#p873ce4b33c)" style="fill: none; stroke: #000000; stroke-width: 2"/>
    <path d="M 78.756109 121.258105 
L 78.959028 121.745573 
L 78.473667 121.624081 
L 77.620858 121.750073 
L 77.119044 121.745573 
L 76.752967 121.591083 
L 76.36221 121.288103 
L 76.227845 120.964124 
L 76.637797 120.737639 
L 77.513914 120.56665 
L 78.385919 120.152676 
L 79.082425 119.959189 
L 79.438905 120.463156 
L 78.941204 120.481155 
L 78.73143 120.791635 
L 78.756109 121.258105 
" clip-path="url(#p873ce4b33c)" style="fill: none; stroke: #000000; stroke-width: 2"/>
    <path d="M 128.295824 121.732074 
L 128.587863 122.248041 
L 127.954426 122.242041 
L 127.571896 122.056053 
L 126.152832 120.229171 
L 125.838856 119.689206 
L 125.827887 119.227236 
L 126.346154 119.527217 
L 126.653275 119.986187 
L 126.8891 120.505154 
L 127.209932 120.989622 
L 127.608915 121.304602 
L 127.970879 121.48459 
L 128.295824 121.732074 
" clip-path="url(#p873ce4b33c)" style="fill: none; stroke: #000000; stroke-width: 2"/>
    <path d="M 85.285173 125.264346 
L 86.113302 125.795312 
L 86.648022 125.561327 
L 86.830375 125.966301 
L 86.743997 126.632258 
L 86.190083 127.68069 
L 85.900786 128.550634 
L 85.42228 128.814617 
L 86.048862 128.991606 
L 86.583581 128.511637 
L 87.629712 126.371275 
L 88.663504 125.039361 
L 88.797869 124.314908 
L 88.956914 122.510524 
L 89.354526 121.972059 
L 90.02224 122.077052 
L 90.525425 122.815004 
L 91.30968 124.398902 
L 91.737456 124.922368 
L 91.978765 125.480332 
L 92.088451 126.129791 
L 92.152892 127.347712 
L 92.365409 128.448641 
L 92.222817 130.16453 
L 92.804153 131.214462 
L 92.695838 131.649434 
L 92.113131 132.234396 
L 91.766248 132.396386 
L 91.032723 132.414385 
L 90.374606 132.688867 
L 90.252581 133.620307 
L 91.430335 132.777361 
L 92.128212 132.459382 
L 92.804153 132.589874 
L 93.089337 133.11334 
L 92.883675 134.50825 
L 93.056431 135.12921 
L 92.480579 136.441625 
L 92.030866 136.67411 
L 91.19451 136.410127 
L 91.305567 136.873597 
L 91.915696 137.379064 
L 92.113131 137.922029 
L 92.063772 138.416997 
L 91.630512 139.421933 
L 91.42485 139.681416 
L 90.36638 140.051892 
L 89.561558 139.703914 
L 88.828033 139.15795 
L 87.973852 138.926965 
L 88.553818 139.634919 
L 88.542849 139.958898 
L 88.224759 140.437367 
L 87.973852 140.437367 
L 87.414453 139.652918 
L 86.414939 139.384435 
L 84.271947 139.45493 
L 85.42228 138.926965 
L 85.252267 138.295505 
L 85.973453 138.315004 
L 87.743512 138.926965 
L 87.949173 138.259508 
L 88.290571 137.787038 
L 88.759479 137.44056 
L 90.569299 136.576616 
L 91.079339 136.173142 
L 91.079339 135.757669 
L 90.476066 135.523684 
L 89.883761 135.867162 
L 89.313394 136.378629 
L 88.767705 136.639612 
L 86.801582 137.922029 
L 87.031923 138.150015 
L 86.225731 138.054021 
L 85.414054 136.890096 
L 84.731258 136.639612 
L 86.945545 135.831164 
L 88.065714 135.154708 
L 88.224759 134.373258 
L 87.742141 134.895225 
L 87.081282 135.109711 
L 84.814893 135.225203 
L 84.012814 135.514685 
L 83.580925 135.405192 
L 83.308081 135.109711 
L 83.103791 134.668739 
L 82.611574 132.189399 
L 82.5677 131.25796 
L 82.776104 130.851486 
L 82.282516 130.681997 
L 82.264692 130.272523 
L 82.408655 129.768556 
L 82.408655 129.318585 
L 82.026125 128.891112 
L 81.295342 128.369146 
L 81.511972 128.058666 
L 81.511972 127.809682 
L 80.853855 127.395709 
L 78.750625 126.551263 
L 79.187998 126.021797 
L 79.671988 126.342777 
L 79.861196 126.240783 
L 79.899586 125.448834 
L 79.796756 125.115856 
L 80.088795 124.787377 
L 80.431564 124.605889 
L 81.343329 124.299909 
L 81.720375 124.008927 
L 81.854741 123.696948 
L 82.200252 122.501525 
L 83.354698 122.42053 
L 83.7907 122.248041 
L 84.248639 121.723075 
L 84.522854 120.989622 
L 85.028781 120.56515 
L 86.420423 119.981687 
L 86.801582 119.47922 
L 87.743512 118.954254 
L 88.304282 120.040184 
L 88.583981 120.532152 
L 89.224274 120.940125 
L 88.903442 121.375097 
L 86.82352 123.108985 
L 85.998132 123.567956 
L 84.961599 123.759943 
L 84.961599 124.008927 
L 85.559388 124.058424 
L 85.810295 124.332906 
L 85.662218 124.643386 
L 84.934177 124.932868 
L 85.285173 125.264346 
L 85.285173 125.264346 
" clip-path="url(#p873ce4b33c)" style="fill: none; stroke: #000000; stroke-width: 2"/>
    <path d="M 81.898615 118.046812 
L 81.269291 118.345293 
L 80.716748 118.055812 
L 80.71949 117.547344 
L 81.204851 117.337358 
L 82.19751 117.217366 
L 82.430592 117.236864 
L 82.289372 117.508347 
L 81.898615 118.046812 
" clip-path="url(#p873ce4b33c)" style="fill: none; stroke: #000000; stroke-width: 2"/>
    <path d="M 87.498089 117.118372 
L 87.492605 117.443851 
L 87.2321 117.646338 
L 86.886589 117.533845 
L 86.527367 117.31336 
L 86.23807 117.191867 
L 85.641652 117.232365 
L 85.287915 117.370356 
L 84.625685 118.08281 
L 83.979908 118.525281 
L 83.543906 118.426288 
L 83.387603 118.060311 
L 83.580925 117.695835 
L 84.322677 117.325359 
L 84.95063 116.875388 
L 85.584067 116.588906 
L 86.258636 116.419417 
L 86.801582 116.461415 
L 87.036036 116.590406 
L 87.307509 116.822891 
L 87.498089 117.118372 
" clip-path="url(#p873ce4b33c)" style="fill: none; stroke: #000000; stroke-width: 2"/>
    <path d="M 118.156718 110.986768 
L 117.94283 111.162257 
L 117.593205 111.009266 
L 117.398513 110.532297 
L 117.489004 109.879839 
L 117.749508 109.738848 
L 117.990817 110.074827 
L 118.097761 110.266814 
L 118.140265 110.521798 
L 118.156718 110.986768 
" clip-path="url(#p873ce4b33c)" style="fill: none; stroke: #000000; stroke-width: 2"/>
    <path d="M 167.280997 122.11005 
L 167.54013 122.656015 
L 168.098158 124.787377 
L 166.569408 124.27891 
L 165.874273 124.218914 
L 165.084533 124.28341 
L 163.559897 124.59389 
L 163.027919 124.886371 
L 162.438357 125.406837 
L 161.604742 125.487832 
L 160.702575 124.884871 
L 160.318673 124.12892 
L 161.049457 123.759943 
L 161.544415 123.626452 
L 162.262859 123.279974 
L 162.92646 122.797006 
L 163.263744 122.248041 
L 163.912263 122.26604 
L 164.212529 121.264105 
L 164.067195 120.062682 
L 163.370688 119.47922 
L 162.386256 119.263234 
L 161.69112 118.717269 
L 159.890898 115.774459 
L 159.624909 114.733526 
L 158.977761 113.776588 
L 158.829685 113.27862 
L 158.626766 112.105696 
L 158.055027 111.225252 
L 157.183023 110.710786 
L 156.07108 110.623791 
L 156.202703 110.236816 
L 156.230125 109.792845 
L 156.179395 109.326375 
L 156.07108 108.885403 
L 155.890098 108.433933 
L 155.718714 108.265943 
L 155.487002 108.151951 
L 153.999384 106.850035 
L 152.913492 106.30407 
L 152.618711 106.095584 
L 152.391112 105.782104 
L 152.358206 105.501622 
L 152.511767 105.203141 
L 153.213758 104.369195 
L 153.493457 104.250703 
L 153.999384 104.312199 
L 154.22287 104.475688 
L 155.12778 105.339632 
L 156.005268 105.68011 
L 156.409736 105.905096 
L 156.779926 106.346067 
L 157.041802 108.696416 
L 157.241979 109.389371 
L 157.571037 109.777846 
L 158.111241 110.271314 
L 158.610313 110.854776 
L 159.016151 112.006702 
L 159.951225 113.722591 
L 161.84331 116.461415 
L 162.447954 116.950383 
L 163.765558 117.668837 
L 164.393511 118.198302 
L 165.228496 119.950189 
L 165.430044 120.233671 
L 165.804348 120.485655 
L 167.280997 122.11005 
" clip-path="url(#p873ce4b33c)" style="fill: none; stroke: #000000; stroke-width: 2"/>
    <path d="M 99.505972 90.336101 
L 100.314907 90.823569 
L 101.603718 91.11905 
L 101.23627 91.561522 
L 97.705749 93.203916 
L 96.89133 93.181417 
L 95.815036 92.711947 
L 95.620343 93.019428 
L 95.233699 93.458899 
L 94.764791 93.739381 
L 94.320563 93.578891 
L 93.810523 93.28491 
L 93.15789 93.217415 
L 92.535422 93.233914 
L 92.113131 93.190417 
L 91.560587 92.564957 
L 91.926664 91.858502 
L 92.730115 91.255541 
L 93.493804 90.927063 
L 93.987391 90.841568 
L 95.126755 90.423095 
L 95.639538 90.366099 
L 97.080539 90.423095 
L 98.510571 90.162112 
L 99.037064 90.171111 
L 99.505972 90.336101 
" clip-path="url(#p873ce4b33c)" style="fill: none; stroke: #000000; stroke-width: 2"/>
    <path d="M 73.190912 87.2493 
L 73.750311 87.381291 
L 74.264464 87.165305 
L 74.760794 86.760332 
L 75.276318 86.511348 
L 75.854912 86.763331 
L 77.213649 87.648274 
L 77.576984 88.158241 
L 77.07517 88.734204 
L 76.990163 89.383662 
L 77.256152 89.988123 
L 77.810067 90.423095 
L 77.386404 91.878001 
L 77.250668 92.785443 
L 77.452216 93.190417 
L 78.0692 93.28491 
L 78.575127 93.586391 
L 79.015242 94.136855 
L 81.065001 99.211028 
L 82.553989 101.435384 
L 83.113388 102.036846 
L 84.092336 102.540813 
L 85.340016 103.784233 
L 85.652621 104.312199 
L 85.633426 105.878098 
L 85.497689 106.725543 
L 85.101448 107.929965 
L 85.374292 108.831407 
L 86.113302 110.397306 
L 86.275089 111.697722 
L 85.966597 112.642661 
L 85.185084 113.221624 
L 83.398572 113.578601 
L 82.408655 114.67353 
L 81.385833 114.808521 
L 81.121215 115.126501 
L 81.511972 115.933449 
L 81.108875 116.344422 
L 79.87902 117.191867 
L 79.270262 117.376355 
L 78.097993 117.385355 
L 77.694896 117.569843 
L 76.367695 118.54178 
L 76.197681 118.838761 
L 76.403343 119.731204 
L 76.197681 119.983187 
L 75.872736 120.064182 
L 75.551905 119.950189 
L 75.04872 119.47922 
L 74.664818 118.465285 
L 74.44956 117.205367 
L 74.097193 116.134436 
L 73.312938 115.681465 
L 72.277775 115.231494 
L 72.051548 114.142564 
L 72.268178 111.631726 
L 71.660791 112.105696 
L 71.245355 112.597664 
L 70.731202 112.984639 
L 69.841373 113.142129 
L 69.168175 112.96364 
L 64.949374 110.568295 
L 62.932522 108.703915 
L 62.290858 107.938965 
L 61.871309 107.102019 
L 62.322393 106.991026 
L 63.663305 106.283071 
L 63.943005 105.959092 
L 64.047207 105.446125 
L 64.294 105.492623 
L 64.883563 105.821101 
L 65.507402 105.320134 
L 65.566359 104.978156 
L 65.322307 104.561183 
L 65.763794 103.926724 
L 66.303998 103.946222 
L 66.759195 104.435191 
L 66.953887 105.203141 
L 66.789358 106.391064 
L 66.264236 107.354002 
L 65.573214 107.85797 
L 65.802184 108.543426 
L 66.048977 108.678417 
L 66.95663 108.102454 
L 67.455701 107.958463 
L 67.729916 107.665982 
L 67.64491 106.850035 
L 68.300284 107.165015 
L 68.305768 107.827972 
L 68.130271 108.601922 
L 68.230359 109.25288 
L 68.788387 109.594858 
L 69.106477 109.129888 
L 69.184628 108.31694 
L 69.024212 107.605986 
L 70.000418 108.049957 
L 70.175916 107.85797 
L 70.15535 107.328504 
L 69.907185 106.961028 
L 69.275119 106.346067 
L 69.232616 106.127082 
L 69.275119 105.339632 
L 69.069458 105.06515 
L 68.335932 104.312199 
L 67.901301 102.869292 
L 67.414569 103.05228 
L 67.771049 103.35826 
L 67.897188 103.931223 
L 67.87525 105.339632 
L 67.557161 104.948158 
L 67.078655 103.796232 
L 66.609747 103.556247 
L 66.552162 103.278765 
L 66.65088 102.647306 
L 66.953887 101.541877 
L 67.469412 101.001912 
L 68.207051 100.394452 
L 68.723946 99.660999 
L 68.585468 98.752058 
L 68.904929 98.527072 
L 69.785159 98.354583 
L 69.966141 98.132598 
L 70.068972 97.667628 
L 70.529653 96.770685 
L 70.633855 96.257719 
L 70.936863 96.223221 
L 70.476182 94.934804 
L 70.916297 93.935868 
L 71.220676 93.716883 
L 71.483922 93.253412 
L 71.409884 92.216979 
L 71.094537 90.561086 
L 70.731202 89.392662 
L 70.02784 87.86276 
L 69.575385 86.454351 
L 69.966141 85.639904 
L 70.533767 85.671402 
L 71.758138 85.905387 
L 72.268178 86.121373 
L 72.680872 86.508348 
L 73.190912 87.2493 
L 73.190912 87.2493 
" clip-path="url(#p873ce4b33c)" style="fill: none; stroke: #000000; stroke-width: 2"/>
    <path d="M 82.116616 77.658919 
L 81.783445 78.045894 
L 81.376235 78.224382 
L 80.857968 78.225882 
L 80.557703 78.192885 
L 79.940719 78.180885 
L 79.969511 78.11189 
L 80.166946 77.9454 
L 80.423337 77.826908 
L 80.628999 77.808909 
L 81.015642 77.841907 
L 81.544877 77.805909 
L 81.943861 77.562925 
L 82.202994 77.226947 
L 82.296227 77.243446 
L 82.116616 77.658919 
" clip-path="url(#p873ce4b33c)" style="fill: none; stroke: #000000; stroke-width: 2"/>
    <path d="M 34.122104 73.435192 
L 34.27018 73.795168 
L 34.196142 73.76817 
L 34.048065 73.408193 
L 34.122104 73.435192 
" clip-path="url(#p873ce4b33c)" style="fill: none; stroke: #000000; stroke-width: 2"/>
    <path d="M 33.687472 72.925224 
L 33.67102 73.067715 
L 33.366641 72.649242 
L 33.383094 72.508251 
L 33.687472 72.925224 
" clip-path="url(#p873ce4b33c)" style="fill: none; stroke: #000000; stroke-width: 2"/>
    <path d="M 120.524566 72.472254 
L 121.048317 72.541249 
L 121.437702 72.736237 
L 121.068883 73.3062 
L 120.905725 73.873163 
L 120.894756 74.503123 
L 120.977021 75.277073 
L 121.506256 74.584117 
L 121.883302 74.930595 
L 122.18631 75.641549 
L 122.49206 76.033024 
L 123.143321 76.213012 
L 127.421078 79.493301 
L 128.657788 80.190756 
L 130.220815 80.562732 
L 131.779728 80.627227 
L 132.340498 80.778718 
L 132.875218 81.20319 
L 134.613742 83.606035 
L 136.651161 85.590407 
L 138.754391 87.151806 
L 139.766245 87.813264 
L 140.203618 88.323231 
L 140.3846 89.025185 
L 140.100788 92.150984 
L 139.956825 92.741945 
L 139.923919 93.064425 
L 139.788182 93.4499 
L 139.47969 93.685385 
L 139.158859 93.830875 
L 138.984732 93.946368 
L 138.866819 94.655822 
L 139.014896 95.31278 
L 139.442671 96.257719 
L 139.574295 96.866679 
L 139.442671 98.626066 
L 139.264431 99.371518 
L 138.47195 100.640436 
L 138.29371 101.153403 
L 138.208703 103.736236 
L 138.326616 105.155144 
L 138.754391 106.346067 
L 137.635593 105.852599 
L 137.052886 104.678175 
L 136.686809 103.325262 
L 136.222014 102.297829 
L 135.663986 101.894355 
L 134.191451 101.294393 
L 133.56624 100.902919 
L 132.856023 100.082472 
L 132.943771 99.741994 
L 133.492202 99.701496 
L 136.797866 100.26246 
L 137.01998 100.163466 
L 137.176283 99.926482 
L 137.316133 99.6415 
L 137.488888 99.391016 
L 138.041432 98.834552 
L 138.203219 98.507573 
L 138.29371 97.996106 
L 138.266288 97.148661 
L 137.990702 97.340649 
L 137.604059 97.931611 
L 137.24895 98.270589 
L 137.04466 97.853616 
L 137.081679 96.908677 
L 137.373718 95.225785 
L 137.564297 94.607825 
L 137.65753 94.460835 
L 137.854965 94.22085 
L 138.822945 93.326908 
L 138.984732 93.064425 
L 139.245236 90.958561 
L 139.234268 90.171111 
L 138.630994 88.474721 
L 137.572524 87.573279 
L 136.361864 86.958319 
L 135.302022 86.121373 
L 132.52148 82.071634 
L 131.668671 81.372679 
L 130.389457 80.904709 
L 127.69118 80.310748 
L 126.30228 79.605793 
L 124.267603 77.684417 
L 122.943144 77.289943 
L 122.208247 77.211948 
L 120.815234 76.86547 
L 120.172199 76.785975 
L 119.4469 76.973463 
L 118.263662 77.628921 
L 117.754992 77.541927 
L 118.596833 76.671983 
L 119.068483 75.226076 
L 119.596347 72.484253 
L 119.366007 72.484253 
L 120.524566 72.472254 
" clip-path="url(#p873ce4b33c)" style="fill: none; stroke: #000000; stroke-width: 2"/>
    <path d="M 34.810384 65.103229 
L 34.906359 65.875679 
L 34.815868 66.18316 
L 34.744572 66.02117 
L 34.522458 66.129163 
L 34.107022 66.259655 
L 34.048065 65.923676 
L 34.28389 65.368712 
L 34.155009 65.185724 
L 33.699812 65.614696 
L 33.457132 65.926676 
L 33.277521 66.210158 
L 33.200741 66.694627 
L 33.555849 66.985608 
L 34.06726 67.195594 
L 34.407287 67.492575 
L 34.279777 67.687563 
L 33.358414 67.543572 
L 32.971771 67.533073 
L 32.849745 67.371083 
L 32.951205 66.835618 
L 33.202112 66.129163 
L 33.655938 65.347714 
L 34.305828 64.806249 
L 34.676018 64.702755 
L 34.810384 65.103229 
" clip-path="url(#p873ce4b33c)" style="fill: none; stroke: #000000; stroke-width: 2"/>
    <path d="M 82.833689 66.844617 
L 82.889903 67.177595 
L 82.477209 67.137098 
L 82.052175 66.64363 
L 81.511972 65.668693 
L 80.825063 64.914242 
L 80.594722 64.455271 
L 80.818207 64.15679 
L 81.244612 64.234785 
L 81.57367 64.608261 
L 82.833689 66.844617 
" clip-path="url(#p873ce4b33c)" style="fill: none; stroke: #000000; stroke-width: 2"/>
    <path d="M 92.220075 45.378002 
L 91.19451 46.49393 
L 91.38646 45.671984 
L 91.213705 45.160517 
L 90.972395 44.676048 
L 90.964169 43.954594 
L 91.274032 44.134583 
L 92.177571 44.880035 
L 92.365409 45.097521 
L 92.220075 45.378002 
" clip-path="url(#p873ce4b33c)" style="fill: none; stroke: #000000; stroke-width: 2"/>
    <path d="M 102.486691 38.923919 
L 102.538792 39.06041 
L 102.522339 39.096408 
L 102.459269 39.06791 
L 102.335873 39.051411 
L 102.305709 39.108407 
L 102.382489 39.171403 
L 102.390716 39.198401 
L 102.322162 39.2134 
L 102.287885 39.648372 
L 102.371521 40.075845 
L 102.182312 40.228835 
L 102.050689 40.245334 
L 101.916323 40.248334 
L 101.621542 40.098343 
L 101.481692 39.69037 
L 101.317163 39.417387 
L 101.118357 39.228399 
L 101.170458 39.075409 
L 101.315792 39.093408 
L 101.477579 38.979415 
L 101.670901 38.784428 
L 101.942374 38.703433 
L 102.263206 38.761929 
L 102.486691 38.923919 
" clip-path="url(#p873ce4b33c)" style="fill: none; stroke: #000000; stroke-width: 2"/>
    <path d="M 81.950716 34.470706 
L 81.947974 34.631196 
L 81.788929 34.896679 
L 81.664161 35.286654 
L 81.450273 35.604633 
L 81.232272 35.613633 
L 81.160976 35.508639 
L 81.081454 35.367649 
L 80.619401 34.812684 
L 80.467212 34.500705 
L 80.398658 34.185725 
L 80.578269 34.038734 
L 81.596978 33.848247 
L 81.747797 34.023735 
L 81.43382 34.406211 
L 81.363895 34.515704 
L 81.613431 34.361214 
L 81.723117 34.253221 
L 81.904099 34.077732 
L 82.272919 33.783751 
L 82.370265 33.893244 
L 82.067257 34.25472 
L 81.950716 34.470706 
" clip-path="url(#p873ce4b33c)" style="fill: none; stroke: #000000; stroke-width: 2"/>
    <path d="M 59.267493 29.526827 
L 62.045383 30.602237 
L 62.744815 30.420586 
L 64.298113 30.797444 
L 66.015822 31.092263 
L 67.124468 31.130429 
L 67.578237 30.463569 
L 68.275247 30.118563 
L 69.328059 30.584817 
L 69.969743 30.700379 
L 71.168978 30.212278 
L 72.789828 30.436095 
L 73.858626 30.111988 
L 74.930807 29.636519 
L 75.613603 29.542025 
L 77.752481 29.506027 
L 78.270748 29.290041 
L 78.588838 28.879067 
L 78.817807 28.403598 
L 79.118073 27.997124 
L 79.648679 27.778138 
L 79.726831 28.462094 
L 79.558188 29.213546 
L 79.466326 29.970997 
L 80.068229 31.274413 
L 80.094279 31.980867 
L 79.811837 32.574829 
L 79.187998 32.835812 
L 78.945317 32.741318 
L 78.37495 32.259849 
L 78.059602 32.079861 
L 77.626342 32.004866 
L 75.424395 32.127858 
L 73.417139 32.583828 
L 68.788211 33.495714 
L 66.912056 33.496643 
L 59.835261 35.274655 
L 59.226504 35.373648 
L 58.59718 35.571635 
L 57.575728 36.43558 
L 56.91487 36.633567 
L 56.323794 37.019354 
L 55.6045 37.374417 
L 55.015679 37.789062 
L 54.701315 38.049488 
L 53.995483 38.110566 
L 53.678257 38.266143 
L 52.302247 38.135846 
L 50.958772 37.669233 
L 50.141679 36.873186 
L 48.676984 35.990298 
L 45.137518 32.409685 
L 43.530426 31.103424 
L 43.173947 30.54696 
L 43.535911 30.54096 
L 43.830692 30.617455 
L 44.081599 30.783944 
L 44.303713 31.049427 
L 48.634942 33.744753 
L 49.637199 35.099166 
L 50.305648 34.976886 
L 50.839632 34.896481 
L 51.925304 35.357849 
L 52.729493 35.368488 
L 53.489864 35.020142 
L 54.17963 34.542852 
L 54.642591 34.333834 
L 55.03769 34.093929 
L 55.300803 33.923105 
L 55.426395 33.624952 
L 55.852319 33.286042 
L 55.939919 32.825123 
L 56.43109 32.419013 
L 56.843595 31.589126 
L 57.46896 31.179557 
L 57.391158 30.788447 
L 56.580327 30.293476 
L 55.179087 30.042992 
L 55.41217 29.564523 
L 56.330791 28.53409 
L 56.528226 28.079619 
L 56.788731 26.52122 
L 57.430394 26.97269 
L 58.022699 27.700143 
L 58.458701 28.493592 
L 58.630086 29.15055 
L 59.267493 29.526827 
" clip-path="url(#p873ce4b33c)" style="fill: none; stroke: #000000; stroke-width: 2"/>
    <path d="M 84.396715 22.219497 
L 87.500831 22.912452 
L 89.272261 23.068442 
L 90.045548 22.471481 
L 91.840286 23.296428 
L 93.264834 24.34636 
L 99.442902 30.258978 
L 100.144893 30.726948 
L 100.934633 30.975932 
L 102.049318 31.049427 
L 101.761392 31.454401 
L 101.307566 31.590892 
L 100.207963 31.553395 
L 100.70155 32.55083 
L 101.399428 33.357778 
L 102.275545 33.894744 
L 104.334901 34.271219 
L 105.261749 34.72119 
L 106.879618 35.877616 
L 108.511199 36.885551 
L 108.815577 37.36552 
L 109.067855 38.040476 
L 109.07334 38.637438 
L 108.626369 38.896921 
L 108.519425 39.153404 
L 108.511199 40.797298 
L 108.626369 41.398759 
L 108.934861 41.790234 
L 109.383203 42.027219 
L 109.913809 42.171209 
L 109.429819 43.302136 
L 109.5066 43.702611 
L 109.913809 44.322071 
L 109.937118 44.908533 
L 109.391429 45.434999 
L 109.11173 45.56999 
L 108.511199 45.692982 
L 108.741539 44.985028 
L 107.647421 45.11402 
L 106.608145 45.692982 
L 105.686782 46.510429 
L 104.935433 47.351875 
L 104.617343 48.263816 
L 104.31982 51.080634 
L 104.370549 51.779589 
L 104.016812 53.855455 
L 104.186825 56.823764 
L 104.06617 59.483092 
L 102.85551 60.635018 
L 101.967053 60.173048 
L 101.18554 59.126115 
L 100.630254 57.974189 
L 100.419108 57.212239 
L 99.877534 56.73227 
L 97.41371 56.198304 
L 96.736399 55.302862 
L 97.282087 55.298362 
L 97.893587 55.091376 
L 98.392658 54.7074 
L 98.771075 53.795459 
L 100.083195 53.426483 
L 101.315792 52.037573 
L 102.105532 51.383615 
L 102.96931 51.023638 
L 102.615572 50.417677 
L 102.394829 49.373745 
L 101.853254 48.881776 
L 101.798411 48.482802 
L 102.008185 48.067329 
L 102.61283 47.402872 
L 102.738969 46.861407 
L 102.629283 45.414 
L 102.057544 44.859036 
L 103.126983 43.302136 
L 103.08448 42.946659 
L 102.789699 42.504188 
L 102.738969 39.904856 
L 103.233927 39.895856 
L 103.600005 39.68887 
L 104.118271 38.896921 
L 104.15529 38.712433 
L 104.211505 37.749495 
L 104.82986 37.386518 
L 105.171258 36.809056 
L 105.319334 36.144598 
L 105.078024 35.601633 
L 103.883817 35.289654 
L 103.095449 34.929677 
L 99.97488 34.478206 
L 99.382575 34.11373 
L 99.004158 33.48827 
L 98.59832 32.583828 
L 98.75188 32.358843 
L 98.79027 32.058862 
L 98.697037 31.737883 
L 98.141751 30.85294 
L 98.022468 30.672952 
L 97.845599 30.612955 
L 97.323219 31.049427 
L 96.63631 30.986431 
L 96.105704 30.774945 
L 95.869879 30.39247 
L 96.067314 29.815007 
L 95.509286 28.565588 
L 93.975052 26.05025 
L 93.056431 24.985319 
L 92.486063 24.580345 
L 91.751167 24.308862 
L 91.001188 24.286364 
L 89.79327 24.826329 
L 88.993933 24.700337 
L 87.012728 24.058379 
L 86.402599 23.983383 
L 85.0658 23.980384 
L 84.668188 23.857391 
L 83.120244 22.972449 
L 82.503259 22.876455 
L 79.837888 23.074442 
L 78.76982 23.461417 
L 78.059602 23.479416 
L 78.258408 23.281429 
L 78.501089 23.227432 
L 79.714491 22.450482 
L 81.240499 22.176 
L 84.396715 22.219497 
L 84.396715 22.219497 
" clip-path="url(#p873ce4b33c)" style="fill: none; stroke: #000000; stroke-width: 2"/>
   </g>
  </g>
 </g>
 <defs>
  <clipPath id="p873ce4b33c">
   <rect x="0" y="-0" width="276.904138" height="266.112"/>
  </clipPath>
 </defs>
</svg>
