<?xml version="1.0" encoding="utf-8" standalone="no"?>
<!DOCTYPE svg PUBLIC "-//W3C//DTD SVG 1.1//EN"
  "http://www.w3.org/Graphics/SVG/1.1/DTD/svg11.dtd">
<svg xmlns:xlink="http://www.w3.org/1999/xlink" width="274.492832pt" height="266.112pt" viewBox="0 0 274.492832 266.112" xmlns="http://www.w3.org/2000/svg" version="1.1">
 <metadata>
  <rdf:RDF xmlns:dc="http://purl.org/dc/elements/1.1/" xmlns:cc="http://creativecommons.org/ns#" xmlns:rdf="http://www.w3.org/1999/02/22-rdf-syntax-ns#">
   <cc:Work>
    <dc:type rdf:resource="http://purl.org/dc/dcmitype/StillImage"/>
    <dc:date>2024-02-02T21:57:59.886387</dc:date>
    <dc:format>image/svg+xml</dc:format>
    <dc:creator>
     <cc:Agent>
      <dc:title>Matplotlib v3.8.2, https://matplotlib.org/</dc:title>
     </cc:Agent>
    </dc:creator>
   </cc:Work>
  </rdf:RDF>
 </metadata>
 <defs>
  <style type="text/css">*{stroke-linejoin: round; stroke-linecap: butt}</style>
 </defs>
 <g id="figure_1">
  <g id="patch_1">
   <path d="M 0 266.112 
L 274.492832 266.112 
L 274.492832 0 
L 0 0 
L 0 266.112 
z
" style="fill: none"/>
  </g>
  <g id="axes_1">
   <g id="PatchCollection_1">
    <path d="M 94.698403 25.699738 
L 95.037625 26.149666 
L 96.249128 26.019313 
L 95.849332 24.90921 
L 96.715557 25.21617 
L 97.430344 26.082387 
L 98.048211 26.498676 
L 98.611561 25.460056 
L 98.920494 26.565955 
L 98.859919 27.062138 
L 98.611561 27.739132 
L 98.968954 27.444787 
L 100.253148 26.574365 
L 101.391962 29.017434 
L 103.893717 30.871811 
L 109.091068 33.239191 
L 109.72105 32.881771 
L 112.513566 32.684139 
L 112.761925 32.31831 
L 113.888623 29.904675 
L 116.16625 31.380608 
L 117.262661 31.826332 
L 120.539779 33.966645 
L 121.618017 33.853112 
L 123.568538 33.239191 
L 124.107657 32.141702 
L 124.568029 32.431843 
L 124.90725 32.97428 
L 124.973883 33.436823 
L 124.792157 33.886751 
L 124.368131 34.399754 
L 125.107148 34.647845 
L 125.80982 34.525902 
L 127.209107 33.798448 
L 126.669988 35.493037 
L 126.367112 36.018655 
L 126.803253 35.867277 
L 129.747208 35.484628 
L 131.031401 35.614981 
L 131.673498 35.530882 
L 132.885002 34.782403 
L 135.047536 32.524351 
L 136.313558 31.872586 
L 138.258021 31.986119 
L 140.002587 32.95746 
L 141.577542 34.483852 
L 144.866775 38.659355 
L 145.92684 39.618081 
L 147.108056 40.084829 
L 147.689578 40.01755 
L 149.422029 39.306916 
L 151.027271 38.999955 
L 151.530045 38.730839 
L 152.499248 37.839393 
L 156.061069 33.626045 
L 156.939409 33.176117 
L 157.854095 33.167707 
L 158.786953 33.66389 
L 162.027725 36.540067 
L 163.324034 37.141373 
L 164.462848 37.364235 
L 165.740984 37.389464 
L 166.988833 37.128758 
L 168.018611 36.498018 
L 168.418408 35.644415 
L 168.594076 33.605021 
L 169.236173 32.814492 
L 170.677862 32.515942 
L 172.089264 33.066788 
L 174.754572 34.950601 
L 175.626855 35.329045 
L 179.76414 35.67385 
L 180.884781 36.178442 
L 181.896387 37.01102 
L 184.052864 39.302711 
L 185.500611 40.219387 
L 187.039221 40.782849 
L 188.450623 40.829103 
L 188.341587 39.68536 
L 188.056884 38.692995 
L 188.087171 37.969746 
L 188.947339 37.616531 
L 189.419826 37.645966 
L 190.837285 37.894057 
L 191.231024 37.742679 
L 192.048789 37.250701 
L 192.43647 37.183422 
L 192.878669 37.381054 
L 193.139142 37.751089 
L 193.872102 39.470908 
L 194.277956 40.00914 
L 194.7565 40.227797 
L 195.307734 39.933452 
L 195.61061 39.050415 
L 195.774163 38.575257 
L 196.083096 38.259886 
L 196.482892 38.217837 
L 196.828171 38.428084 
L 197.118932 38.798118 
L 199.305696 43.200688 
L 200.008368 44.033266 
L 200.698926 44.331816 
L 202.334456 44.487399 
L 202.740309 44.638777 
L 202.976553 44.861638 
L 203.340004 45.870823 
L 203.376349 46.543614 
L 203.891238 47.456085 
L 203.71557 48.259228 
L 202.443491 49.213749 
L 202.019465 50.008482 
L 202.649447 52.346427 
L 204.6666 54.478331 
L 207.065378 56.025748 
L 208.876576 56.622849 
L 215.636767 56.450447 
L 218.14458 55.685148 
L 219.356084 55.512745 
L 220.301057 55.17635 
L 225.558983 51.396111 
L 226.298 51.223709 
L 226.667509 51.711482 
L 226.88558 52.392682 
L 227.17634 52.783741 
L 227.76392 52.783741 
L 228.799755 52.346427 
L 229.381277 52.232894 
L 231.979953 52.783741 
L 232.519072 52.699642 
L 233.003674 52.459961 
L 233.52462 52.459961 
L 234.699779 53.570064 
L 235.281301 53.771901 
L 236.032433 53.620524 
L 236.044548 53.544835 
L 237.195477 54.974513 
L 237.365087 55.651508 
L 237.419605 56.475676 
L 237.213649 56.698538 
L 236.904716 56.778432 
L 236.662415 57.156876 
L 234.590743 66.975405 
L 233.984992 68.480773 
L 233.421642 69.321761 
L 232.240426 70.305716 
L 231.616502 70.970096 
L 231.174303 71.72278 
L 230.332308 74.161644 
L 227.309606 79.085626 
L 226.673566 79.45566 
L 226.382805 79.825695 
L 226.261655 80.372337 
L 226.32223 81.675867 
L 226.207137 82.251944 
L 225.49235 83.454556 
L 225.031979 83.84141 
L 222.960307 84.52261 
L 222.808869 85.805116 
L 223.747785 89.412953 
L 223.632692 91.641569 
L 222.942135 92.835772 
L 222.130427 93.857572 
L 221.627653 95.556366 
L 221.730631 97.107988 
L 222.184945 98.731094 
L 223.487311 101.527378 
L 224.547377 102.809884 
L 225.728593 103.348116 
L 228.242464 103.894758 
L 229.968857 104.668466 
L 230.798737 104.71472 
L 232.688683 104.256382 
L 233.361067 104.386735 
L 234.3545 105.219313 
L 235.366106 106.695246 
L 236.093008 108.4445 
L 236.214159 110.097041 
L 236.583667 111.139865 
L 237.686136 112.287813 
L 240.248466 114.18424 
L 240.872391 114.810776 
L 241.284302 115.046252 
L 241.62958 114.945334 
L 242.28985 114.272544 
L 242.641186 114.264134 
L 243.137903 114.907489 
L 243.26511 116.362398 
L 243.634619 116.879605 
L 244.543247 117.729002 
L 245.942534 119.781012 
L 247.850652 120.899525 
L 248.80774 122.068498 
L 249.352917 122.505812 
L 249.922324 121.790972 
L 250.449328 121.605955 
L 251.182288 122.261925 
L 251.618429 123.792523 
L 251.121712 125.129693 
L 250.122222 126.244001 
L 247.711329 128.047919 
L 246.324157 128.552512 
L 244.888525 128.67866 
L 241.550833 128.342265 
L 238.437268 128.565127 
L 237.564985 128.825833 
L 236.716933 128.872087 
L 235.959743 128.396929 
L 234.445363 126.97566 
L 232.961271 125.924426 
L 232.185908 125.63849 
L 231.331798 125.688949 
L 230.120295 126.088418 
L 229.617521 126.534142 
L 229.296472 127.30785 
L 229.302529 127.888132 
L 229.581175 128.909931 
L 229.453968 129.486008 
L 228.78764 130.141978 
L 229.47214 130.575087 
L 231.489294 132.128811 
L 233.276262 134.449937 
L 236.414057 139.537911 
L 242.404943 146.053462 
L 243.580101 148.732007 
L 244.985446 153.254418 
L 245.082366 155.407346 
L 243.580101 156.893791 
L 243.331743 157.865132 
L 243.222708 159.03831 
L 243.295398 160.167335 
L 243.580101 161.027245 
L 244.004128 161.428817 
L 244.167681 161.800954 
L 244.040473 162.139451 
L 243.580101 162.433797 
L 241.36305 161.536042 
L 240.65432 161.594912 
L 239.92136 163.375703 
L 239.418586 164.067415 
L 238.958215 163.344166 
L 238.473613 161.975458 
L 237.643733 160.419632 
L 236.644242 159.118203 
L 235.656867 158.52741 
L 235.026885 158.716632 
L 233.670001 159.803608 
L 232.979443 160.198872 
L 232.294944 160.228307 
L 230.798737 159.982318 
L 230.15664 160.17154 
L 229.344932 161.515018 
L 228.793698 163.335756 
L 228.091026 164.714975 
L 226.794717 164.714975 
L 224.002201 164.279764 
L 222.542339 164.458474 
L 220.973441 166.333876 
L 219.822513 166.794317 
L 218.568606 166.838469 
L 217.581231 166.487356 
L 216.811926 165.509709 
L 216.181944 164.309199 
L 215.358121 163.487134 
L 214.025467 163.621692 
L 213.159242 164.26715 
L 211.766013 165.841899 
L 210.130482 166.792215 
L 209.785204 167.4608 
L 209.815491 168.146204 
L 210.378841 168.573006 
L 211.281411 168.825302 
L 211.705437 169.09652 
L 212.486857 170.328567 
L 212.45657 170.858389 
L 212.202154 171.526974 
L 212.196096 171.945366 
L 213.486348 171.606868 
L 213.898259 171.918033 
L 215.927528 174.626013 
L 217.666036 179.531073 
L 219.428774 182.939175 
L 219.010805 183.3008 
L 217.472195 183.387001 
L 216.666338 183.938742 
L 216.351554 184.377264 
L 215.515617 185.777508 
L 214.903807 186.334662 
L 214.697852 185.859504 
L 213.50452 184.291062 
L 212.971459 183.376488 
L 212.832136 182.695289 
L 212.844251 181.553648 
L 212.43234 180.967059 
L 210.857385 179.846443 
L 209.433868 179.434359 
L 205.944737 179.76655 
L 204.866499 180.290064 
L 205.066397 180.613844 
L 205.587343 181.692411 
L 204.042676 182.190696 
L 196.56164 187.768546 
L 195.671185 189.095204 
L 197.082587 189.803736 
L 194.556602 193.407367 
L 193.605571 195.465684 
L 193.108855 198.095873 
L 193.139142 200.221469 
L 194.187093 206.421649 
L 191.806488 206.078947 
L 188.323415 206.125201 
L 185.046297 206.877885 
L 183.271444 208.606114 
L 182.144745 211.795559 
L 182.175033 213.204213 
L 182.756555 214.833627 
L 184.143727 217.695087 
L 184.47689 219.253016 
L 184.046806 220.045647 
L 183.313847 220.628031 
L 182.738382 221.5384 
L 182.7929 222.953361 
L 183.338077 224.900247 
L 184.131612 226.849236 
L 186.166938 230.246826 
L 187.360269 231.512512 
L 188.365817 232.849682 
L 188.971569 235.078299 
L 188.947339 237.449884 
L 188.293127 239.127654 
L 187.051336 240.374418 
L 185.25831 241.444574 
L 185.670221 242.25823 
L 185.797429 242.987787 
L 185.579359 243.483969 
L 184.973607 243.572273 
L 184.313337 243.134959 
L 183.634895 243.080295 
L 182.974626 243.366231 
L 182.368874 243.936 
L 181.411786 243.576478 
L 179.315884 243.341001 
L 178.40846 242.70074 
L 177.22604 240.918957 
L 176.583943 240.412262 
L 174.996873 240.517386 
L 171.804561 239.40518 
L 169.872212 238.332921 
L 156.460866 229.189284 
L 155.085809 228.007696 
L 152.565881 225.091572 
L 151.136306 223.973059 
L 149.082808 223.382265 
L 148.440711 222.961771 
L 146.605282 220.020417 
L 146.484132 219.091126 
L 146.550765 217.129523 
L 146.381154 216.338994 
L 145.702712 215.403396 
L 145.16965 215.422318 
L 144.703221 215.832299 
L 144.236793 216.093006 
L 142.988944 215.870144 
L 140.535649 214.884086 
L 139.245397 214.619175 
L 137.949088 214.93034 
L 137.155553 215.786045 
L 136.417179 216.943412 
L 136.388561 216.923547 
L 130.741236 213.377493 
L 131.766722 213.417224 
L 133.355032 214.152261 
L 134.34236 214.433694 
L 133.469505 213.556285 
L 132.159029 212.782221 
L 135.314067 212.104622 
L 136.96777 210.859961 
L 136.749699 208.585089 
L 134.956674 204.279233 
L 132.551839 201.386236 
L 124.034967 195.665419 
L 123.138454 194.58475 
L 122.460012 193.01841 
L 121.969353 191.353255 
L 121.581672 190.48914 
L 120.963805 189.915166 
L 119.776532 189.145663 
L 117.389869 186.883406 
L 115.1183 183.378591 
L 113.809875 179.318724 
L 114.912344 172.479393 
L 113.979486 170.376924 
L 112.16223 169.140672 
L 106.492393 168.251328 
L 103.08201 166.306544 
L 99.913927 163.438777 
L 97.066893 160.085339 
L 87.79889 150.514901 
L 81.280999 145.290266 
L 80.439004 143.942584 
L 79.942288 142.214354 
L 79.730274 140.845647 
L 79.288076 139.661957 
L 76.871126 137.406008 
L 74.963007 134.748487 
L 72.091743 131.786109 
L 69.789886 128.36329 
L 68.881258 127.291031 
L 67.85148 126.492092 
L 65.283092 125.558596 
L 64.804548 124.59987 
L 64.538017 123.401463 
L 63.780827 122.156802 
L 63.193248 121.91712 
L 61.036771 121.96758 
L 60.461307 121.639594 
L 59.801037 121.126592 
L 58.674339 119.995464 
L 57.814171 118.56158 
L 56.511805 115.378442 
L 55.663752 113.894099 
L 53.119594 111.156685 
L 52.162506 109.760646 
L 51.066095 106.262138 
L 50.508804 103.71815 
L 50.454286 102.481899 
L 50.623896 101.594657 
L 51.423489 99.597311 
L 51.568123 98.175496 
L 51.405316 97.423359 
L 50.775334 96.801028 
L 49.557773 96.014705 
L 48.49165 95.741384 
L 47.837438 95.716154 
L 47.619367 95.972655 
L 47.649655 95.33771 
L 48.534052 94.673329 
L 48.885389 94.093048 
L 48.873273 92.839977 
L 48.479535 91.296765 
L 47.037845 87.289459 
L 46.341231 84.266109 
L 45.662789 83.378867 
L 44.420997 83.172825 
L 42.28875 84.114731 
L 41.077247 83.963353 
L 39.8718 82.676642 
L 40.332172 81.373112 
L 41.301375 80.13686 
L 41.561848 79.064601 
L 42.137313 78.740821 
L 41.634538 76.629942 
L 41.174167 75.864644 
L 40.453322 75.519839 
L 39.023748 75.318002 
L 38.290788 75.07832 
L 37.697151 74.683056 
L 36.915731 73.547723 
L 36.473532 71.520943 
L 35.843551 70.637906 
L 35.401352 70.595857 
L 34.91675 70.869178 
L 34.420034 70.999531 
L 33.971777 70.541193 
L 33.396313 68.228477 
L 32.996517 67.765934 
L 32.263557 67.719679 
L 31.851646 68.228477 
L 31.536655 68.926496 
L 31.100513 69.447909 
L 30.597739 69.616106 
L 29.549788 69.696 
L 28.986439 69.881017 
L 28.126271 70.01137 
L 27.61744 69.473138 
L 26.78756 67.900492 
L 25.406446 66.958586 
L 25.07934 66.542297 
L 23.601305 64.116048 
L 22.947093 62.703189 
L 22.874403 61.340789 
L 23.728513 60.218071 
L 24.933959 59.848036 
L 25.95768 59.377083 
L 26.236326 57.938994 
L 25.685091 56.391577 
L 24.746176 54.928259 
L 23.940526 53.292538 
L 23.740628 51.248939 
L 24.207057 49.815055 
L 25.660861 47.317322 
L 25.88499 45.879233 
L 25.188375 43.410935 
L 25.212605 41.892953 
L 26.587662 38.38183 
L 26.842078 37.116143 
L 26.678524 31.658134 
L 27.344852 29.883651 
L 29.246912 28.159626 
L 32.414995 27.650829 
L 38.024257 27.802207 
L 39.369026 27.545705 
L 40.011123 27.57514 
L 40.713796 27.919945 
L 41.228685 28.643194 
L 41.198397 29.358033 
L 40.943981 30.329374 
L 41.452813 30.703614 
L 42.737007 30.97273 
L 43.469967 31.527781 
L 44.366479 32.9911 
L 45.614328 36.170032 
L 46.638049 37.502998 
L 51.998953 42.76758 
L 53.652656 43.785174 
L 55.88788 44.7439 
L 58.050415 45.227468 
L 59.479989 44.844819 
L 60.437077 41.37154 
L 61.902997 38.516388 
L 62.024147 37.561867 
L 61.890882 36.573706 
L 62.327023 35.821023 
L 62.8722 35.446783 
L 64.410809 34.971625 
L 65.040791 34.517492 
L 65.840384 33.277035 
L 67.760617 29.093122 
L 70.516788 27.24295 
L 73.921114 27.356483 
L 85.60001 30.775097 
L 87.09016 30.58167 
L 87.82312 29.94252 
L 87.913982 29.349624 
L 87.87158 28.643194 
L 88.204743 27.671854 
L 88.792323 27.099982 
L 89.446535 26.822456 
L 90.021999 26.431397 
L 90.349105 25.52313 
L 90.821591 25.23299 
L 91.911945 23.883205 
L 92.087613 23.508965 
L 93.692855 22.176 
L 94.177457 22.642748 
L 94.734749 24.997513 
L 94.698403 25.699738 
L 94.698403 25.699738 
" clip-path="url(#p4b2c2c1082)" style="fill: none; stroke: #000000; stroke-width: 2"/>
   </g>
  </g>
 </g>
 <defs>
  <clipPath id="p4b2c2c1082">
   <rect x="0" y="-0" width="274.492832" height="266.112"/>
  </clipPath>
 </defs>
</svg>
