<?xml version="1.0" encoding="utf-8" standalone="no"?>
<!DOCTYPE svg PUBLIC "-//W3C//DTD SVG 1.1//EN"
  "http://www.w3.org/Graphics/SVG/1.1/DTD/svg11.dtd">
<svg xmlns:xlink="http://www.w3.org/1999/xlink" width="305.849458pt" height="266.112pt" viewBox="0 0 305.849458 266.112" xmlns="http://www.w3.org/2000/svg" version="1.1">
 <metadata>
  <rdf:RDF xmlns:dc="http://purl.org/dc/elements/1.1/" xmlns:cc="http://creativecommons.org/ns#" xmlns:rdf="http://www.w3.org/1999/02/22-rdf-syntax-ns#">
   <cc:Work>
    <dc:type rdf:resource="http://purl.org/dc/dcmitype/StillImage"/>
    <dc:date>2024-02-02T21:57:59.954403</dc:date>
    <dc:format>image/svg+xml</dc:format>
    <dc:creator>
     <cc:Agent>
      <dc:title>Matplotlib v3.8.2, https://matplotlib.org/</dc:title>
     </cc:Agent>
    </dc:creator>
   </cc:Work>
  </rdf:RDF>
 </metadata>
 <defs>
  <style type="text/css">*{stroke-linejoin: round; stroke-linecap: butt}</style>
 </defs>
 <g id="figure_1">
  <g id="patch_1">
   <path d="M 0 266.112 
L 305.849458 266.112 
L 305.849458 0 
L 0 0 
L 0 266.112 
z
" style="fill: none"/>
  </g>
  <g id="axes_1">
   <g id="PatchCollection_1">
    <path d="M 158.428797 22.824472 
L 158.96783 23.597516 
L 160.817914 25.518484 
L 161.642318 26.618674 
L 162.188245 27.14141 
L 162.750714 27.318372 
L 163.351785 26.977255 
L 164.23409 25.676818 
L 164.854461 25.250712 
L 168.804155 24.838578 
L 170.768663 25.255369 
L 171.015433 25.502185 
L 171.45245 26.279885 
L 172.613233 28.007592 
L 173.301155 31.050871 
L 173.982184 31.638803 
L 176.03768 32.189481 
L 176.622207 32.049774 
L 176.680108 30.999645 
L 177.391467 30.302275 
L 179.06509 29.590935 
L 180.62291 28.631616 
L 181.954639 28.151956 
L 183.498673 28.195032 
L 185.013757 28.699141 
L 187.110611 30.224272 
L 191.202301 31.312821 
L 191.687569 31.596891 
L 192.153536 32.035803 
L 192.900739 33.07429 
L 192.990348 33.435199 
L 192.886953 33.722762 
L 192.012919 34.023131 
L 191.591067 34.271111 
L 191.290532 35.042991 
L 191.056169 36.613527 
L 190.422012 38.124689 
L 190.300695 38.839521 
L 190.490942 39.782542 
L 190.8287 40.439164 
L 192.153536 41.50792 
L 193.432879 43.331093 
L 193.962262 43.610506 
L 194.688785 43.412589 
L 196.749795 41.045724 
L 199.385682 39.577639 
L 200.097041 39.435603 
L 201.938853 39.883829 
L 202.628154 39.539219 
L 203.670377 37.686941 
L 204.329349 36.876642 
L 205.352271 36.306172 
L 206.416552 36.081477 
L 207.497376 36.144345 
L 210.646103 37.265492 
L 211.342297 37.041961 
L 212.540302 35.938278 
L 213.15378 35.640237 
L 213.621126 35.768302 
L 215.035571 36.871985 
L 220.318374 38.544973 
L 220.547222 38.805759 
L 220.558251 39.193445 
L 220.330781 39.936219 
L 220.635452 40.327398 
L 223.287883 41.64297 
L 223.483644 41.934026 
L 223.593932 42.502166 
L 223.384385 43.698987 
L 223.720764 44.323011 
L 224.261176 44.676935 
L 224.862246 44.809656 
L 225.951342 44.725832 
L 226.31805 44.914436 
L 226.57447 45.356841 
L 226.833647 46.06236 
L 227.611178 47.517638 
L 228.372167 47.645703 
L 229.262743 47.159058 
L 230.424905 46.767879 
L 231.451963 47.242882 
L 232.163322 48.544483 
L 232.348055 50.216307 
L 231.804885 51.808964 
L 232.339783 52.116318 
L 232.174351 52.684459 
L 231.479535 53.20836 
L 231.322375 53.958119 
L 231.530544 54.770746 
L 232.317725 55.932641 
L 232.309454 56.826764 
L 231.979968 57.35765 
L 230.371139 58.477632 
L 229.452991 59.741978 
L 229.078011 60.589532 
L 229.000809 61.434758 
L 229.262743 62.00057 
L 229.723197 62.387092 
L 230.668917 62.878394 
L 231.016325 63.416265 
L 231.461614 65.083432 
L 231.840729 65.642259 
L 233.081471 66.578294 
L 233.453693 67.155749 
L 233.337891 67.563227 
L 233.481265 67.861268 
L 233.823159 68.012617 
L 234.101636 68.629655 
L 233.972048 69.10233 
L 233.759743 69.407356 
L 233.696327 69.728681 
L 233.770772 70.066306 
L 233.972048 70.410916 
L 234.33462 71.279426 
L 234.65997 72.387766 
L 234.639291 73.263262 
L 233.972048 73.458851 
L 232.714763 73.144511 
L 232.174351 73.19108 
L 231.99789 73.733608 
L 232.27361 74.478711 
L 232.659619 74.967684 
L 232.783693 75.505555 
L 232.284639 76.374065 
L 231.807643 76.716347 
L 230.18365 77.040001 
L 229.549493 77.542945 
L 229.618423 78.010963 
L 229.885872 78.690869 
L 229.850028 79.820165 
L 229.439204 80.539655 
L 228.829862 81.16135 
L 228.303236 81.962335 
L 228.157105 83.222024 
L 228.369409 83.941514 
L 228.781611 84.241883 
L 229.881736 84.616763 
L 233.972048 87.562247 
L 234.369085 88.274751 
L 234.46283 89.108335 
L 235.047357 89.003555 
L 237.294478 89.245713 
L 237.920364 90.503074 
L 238.96948 91.350628 
L 238.20987 93.094634 
L 236.878141 95.211191 
L 236.213654 97.176399 
L 236.985672 97.756182 
L 238.968101 98.31268 
L 239.270015 98.941361 
L 240.065468 99.169548 
L 240.501106 100.070657 
L 241.124235 102.380475 
L 241.802507 103.288569 
L 242.086499 103.70536 
L 242.279503 104.431835 
L 242.46975 107.074621 
L 242.753742 108.348281 
L 243.150779 109.028187 
L 247.997944 112.872451 
L 248.651401 113.165835 
L 250.045168 113.522087 
L 252.28126 114.767806 
L 253.105664 114.944768 
L 253.851488 114.965724 
L 254.143751 115.114744 
L 254.447044 115.468668 
L 255.064657 117.170762 
L 255.391386 117.294169 
L 256.200625 116.786568 
L 256.468074 117.09858 
L 256.459803 117.30814 
L 257.071902 119.704111 
L 256.889926 120.384017 
L 256.843054 121.063923 
L 256.537004 122.053512 
L 256.101366 124.647401 
L 255.632641 125.781354 
L 254.59869 127.485776 
L 254.354677 128.601101 
L 255.492024 128.622057 
L 257.78326 129.399758 
L 263.396928 127.935166 
L 263.995241 128.056245 
L 265.56409 129.194855 
L 268.914092 130.133219 
L 269.858435 130.827095 
L 270.700761 131.986661 
L 271.085391 132.226491 
L 272.961668 132.247447 
L 273.480022 132.568773 
L 274.180352 133.565347 
L 274.243768 133.905301 
L 274.180352 134.242925 
L 273.987348 134.568908 
L 271.813292 135.786685 
L 271.784342 136.145265 
L 271.867058 136.936937 
L 272.144157 138.17567 
L 272.622532 139.111705 
L 273.249796 139.796268 
L 273.987348 140.280585 
L 275.327349 140.920907 
L 275.953234 141.400567 
L 276.554304 142.515893 
L 276.754202 142.597388 
L 276.973399 142.497265 
L 277.188461 142.229494 
L 277.657186 142.14567 
L 278.125911 142.217852 
L 278.514676 142.443711 
L 278.28445 143.28428 
L 278.420931 143.780239 
L 278.726981 143.885019 
L 279.534842 143.589306 
L 279.873978 143.593963 
L 280.362003 144.613822 
L 279.959451 147.906244 
L 280.306859 149.324268 
L 279.785747 149.731746 
L 279.355624 149.690998 
L 278.503648 149.381315 
L 276.638399 149.800435 
L 277.064387 150.525746 
L 276.350271 150.950687 
L 275.501053 151.120664 
L 274.65597 151.025197 
L 273.987348 150.665452 
L 273.300804 150.878505 
L 273.096771 151.404734 
L 273.331133 151.899529 
L 273.948747 152.028757 
L 273.322861 153.751807 
L 272.468128 155.205921 
L 271.985618 155.734479 
L 271.547222 155.961502 
L 270.579444 156.285156 
L 269.710924 157.081484 
L 269.040924 158.068745 
L 268.315779 158.794056 
L 266.920634 158.760294 
L 266.782774 158.929106 
L 266.531868 160.019983 
L 266.198247 159.944308 
L 265.230468 160.074701 
L 264.295776 160.761593 
L 263.37487 160.723173 
L 261.431041 159.91171 
L 260.647995 159.999027 
L 259.958694 160.3611 
L 259.319023 160.43561 
L 258.69038 160.273783 
L 256.968507 159.361033 
L 256.013135 159.458827 
L 255.731901 159.351719 
L 255.310049 158.654349 
L 255.023299 156.789264 
L 254.664863 156.009235 
L 254.192002 155.7403 
L 252.494943 155.61922 
L 250.869572 154.964927 
L 250.325024 154.923015 
L 249.792884 155.084842 
L 248.786504 155.63552 
L 248.14959 155.671611 
L 246.86749 155.405004 
L 245.596419 155.405004 
L 244.587283 156.214138 
L 244.090986 158.385414 
L 244.191624 160.415819 
L 243.936583 160.716188 
L 243.004648 160.974646 
L 241.672918 163.135443 
L 241.080119 163.767616 
L 243.095635 165.446425 
L 243.536788 166.305622 
L 244.259175 168.536273 
L 244.838188 169.462994 
L 245.643292 170.262815 
L 246.520083 170.849584 
L 247.3114 171.13249 
L 247.964857 171.224463 
L 248.16889 171.578387 
L 248.232306 172.148856 
L 248.466668 172.902108 
L 248.851298 173.434158 
L 249.176648 173.664674 
L 249.45099 174.010449 
L 249.682595 174.891765 
L 249.701896 176.79527 
L 249.10634 177.676586 
L 247.3114 178.723223 
L 247.606421 179.415935 
L 248.792019 181.065639 
L 249.936258 183.438325 
L 250.901279 184.305671 
L 251.259716 184.77951 
L 251.143913 185.230064 
L 250.78272 185.323202 
L 249.812184 185.0857 
L 249.409632 185.118299 
L 249.853542 185.830803 
L 249.379303 186.043856 
L 249.176648 186.409422 
L 249.241443 186.843677 
L 249.575064 187.276768 
L 250.173378 187.728486 
L 250.211979 188.835662 
L 250.050682 190.175682 
L 250.038275 191.325935 
L 250.711032 192.691568 
L 250.724818 193.504196 
L 250.569036 194.113084 
L 249.951423 195.122465 
L 249.624694 195.443791 
L 250.859921 197.172662 
L 251.334161 197.544049 
L 251.794614 197.714025 
L 252.721034 197.885166 
L 253.148401 198.143624 
L 252.867166 198.515011 
L 252.681055 199.090137 
L 252.61626 199.747923 
L 252.693462 200.375439 
L 252.883709 200.842292 
L 253.1291 201.118213 
L 254.471859 202.086846 
L 254.833052 202.722512 
L 254.940583 203.613142 
L 254.879925 204.942685 
L 251.8277 205.110333 
L 247.156997 204.167312 
L 244.7086 204.180119 
L 242.610367 205.081227 
L 242.072713 205.813524 
L 241.223494 207.469048 
L 240.597609 207.751955 
L 239.95518 207.494661 
L 238.736496 206.404949 
L 238.085796 206.019591 
L 237.058737 205.88687 
L 233.404064 206.109236 
L 232.739578 206.332767 
L 232.32324 206.80777 
L 232.4804 207.569172 
L 232.211573 208.231614 
L 232.121964 208.457474 
L 232.902253 208.569239 
L 233.158673 209.168814 
L 232.921553 209.753254 
L 232.226738 209.807972 
L 231.895873 209.475004 
L 231.520893 209.728805 
L 231.311346 210.007054 
L 231.269988 210.661347 
L 230.702004 211.383165 
L 229.990645 211.911723 
L 229.235171 212.216749 
L 229.293073 212.65799 
L 229.436447 212.845429 
L 229.436447 213.15162 
L 228.838134 213.952605 
L 228.606529 214.073684 
L 227.597392 214.073684 
L 227.495376 214.358919 
L 227.407145 215.163397 
L 226.858462 215.468423 
L 226.340107 216.355561 
L 225.471588 217.610593 
L 225.47986 217.782898 
L 225.675621 218.212497 
L 225.700436 218.912195 
L 225.226197 219.425617 
L 224.630641 219.836587 
L 224.302534 220.227766 
L 225.049736 220.533957 
L 225.049736 220.870417 
L 224.753336 221.203385 
L 224.484509 222.716875 
L 224.186731 222.860074 
L 223.025948 222.995124 
L 223.177594 223.604013 
L 222.86603 224.555183 
L 223.025948 225.176878 
L 222.482779 225.821857 
L 222.660619 226.433074 
L 222.320104 226.590244 
L 221.553601 227.331854 
L 221.553601 227.665986 
L 222.300804 228.28186 
L 222.300804 228.561273 
L 221.88998 228.790625 
L 221.75212 228.897734 
L 221.75212 229.177147 
L 222.060927 229.603253 
L 223.391278 230.099212 
L 223.056278 230.81288 
L 222.82743 231.02244 
L 223.4285 231.580103 
L 223.544303 231.914235 
L 223.391278 232.280965 
L 223.522245 232.822329 
L 223.745578 233.162282 
L 224.302534 233.483607 
L 224.302534 233.821232 
L 223.946854 233.750214 
L 223.646319 233.854995 
L 223.445043 234.172827 
L 223.391278 234.742132 
L 223.494673 235.276511 
L 223.700085 235.384783 
L 223.978562 235.402247 
L 224.302534 235.665361 
L 224.421093 235.963402 
L 224.818131 237.473399 
L 225.005621 237.740006 
L 225.033193 237.975179 
L 224.683028 238.126528 
L 224.840188 239.399024 
L 224.097122 240.224458 
L 223.282368 240.849645 
L 223.210681 241.50976 
L 222.660619 242.487707 
L 222.608379 243.605315 
L 222.50208 243.862654 
L 222.207059 243.936 
L 222.004404 243.509894 
L 221.366112 242.921962 
L 221.007675 242.820675 
L 220.635452 242.868408 
L 220.217736 242.729865 
L 219.623559 241.778695 
L 219.232036 241.386352 
L 218.84327 241.282736 
L 218.049195 241.288557 
L 217.641129 241.119745 
L 217.28545 240.777463 
L 216.469317 239.664466 
L 216.345243 239.140566 
L 216.615449 237.844786 
L 216.513433 236.722475 
L 216.353515 236.415121 
L 216.011622 236.076332 
L 214.664727 235.380126 
L 214.288369 234.958678 
L 213.290261 233.512713 
L 212.541681 232.927109 
L 211.776556 232.704742 
L 208.043302 232.810687 
L 207.431203 233.000455 
L 205.812724 233.901563 
L 205.479103 233.921355 
L 205.051736 233.616329 
L 204.777394 233.589552 
L 204.439637 233.842188 
L 203.720007 235.026203 
L 203.240253 235.158924 
L 200.819428 234.729326 
L 200.483049 234.235695 
L 200.248687 233.549968 
L 199.807534 232.737341 
L 199.347081 232.399716 
L 198.762554 232.312399 
L 198.147698 232.413687 
L 197.621072 232.650024 
L 197.069631 233.176253 
L 196.292099 234.272951 
L 195.674486 234.541886 
L 194.97967 234.62571 
L 194.618477 234.821299 
L 194.353785 235.353349 
L 193.962262 236.452376 
L 193.573496 237.182343 
L 193.042735 237.189329 
L 191.877816 236.682892 
L 191.26296 236.890123 
L 190.219358 237.856428 
L 189.669296 238.060167 
L 189.057196 237.693437 
L 188.726332 236.88081 
L 188.199706 235.026203 
L 187.65378 234.350953 
L 187.20987 234.002851 
L 187.030652 233.491757 
L 187.281557 232.324042 
L 187.176783 231.144684 
L 186.865219 230.405402 
L 185.974643 228.983886 
L 185.413552 227.348153 
L 185.081308 226.792819 
L 184.43888 226.369042 
L 183.366328 226.090792 
L 182.820401 226.118734 
L 182.296533 226.317816 
L 181.764392 226.865001 
L 181.132993 228.290009 
L 180.62291 228.873285 
L 179.92258 229.152699 
L 178.276529 229.170162 
L 177.496241 229.348288 
L 176.649779 229.827948 
L 175.795046 230.533467 
L 175.047844 231.495115 
L 174.523975 232.737341 
L 174.44953 233.496414 
L 174.507432 235.213643 
L 174.377843 235.878414 
L 173.89809 236.452376 
L 173.616855 235.985522 
L 173.236361 234.588455 
L 172.894467 234.552364 
L 172.158294 234.977305 
L 171.717141 234.751446 
L 171.457964 234.272951 
L 171.287017 233.641942 
L 170.567387 229.590446 
L 169.878086 229.294734 
L 167.484833 228.758027 
L 166.761067 228.774326 
L 166.070388 229.02347 
L 164.741415 229.973476 
L 163.710221 230.869927 
L 163.362813 230.724399 
L 163.211167 230.364655 
L 162.750714 228.64859 
L 162.41985 228.264397 
L 161.333511 227.418007 
L 161.108799 226.908077 
L 160.995754 225.667015 
L 160.602852 225.193177 
L 160.059683 225.155922 
L 159.46137 225.460948 
L 158.890629 226.005804 
L 158.369517 226.848702 
L 157.503755 228.5962 
L 156.861327 229.207417 
L 156.34573 229.406499 
L 153.740172 229.39835 
L 153.24939 229.264464 
L 152.750336 228.983886 
L 151.137371 227.1351 
L 150.56663 226.80679 
L 149.954531 226.915062 
L 149.455477 227.406364 
L 149.108069 228.164273 
L 148.93988 229.073531 
L 148.921958 231.223851 
L 148.782719 231.511414 
L 147.256607 233.573253 
L 146.833376 233.638449 
L 146.454261 233.466144 
L 145.661565 232.687279 
L 145.496132 232.325206 
L 146.381195 230.0573 
L 146.590742 228.923347 
L 146.257121 227.982655 
L 145.835268 227.731182 
L 144.33535 227.682285 
L 141.4458 226.455194 
L 140.511108 226.430746 
L 140.017568 226.708995 
L 139.27588 227.568191 
L 138.689975 227.870889 
L 138.139912 227.91513 
L 136.557277 227.634552 
L 135.495754 227.994297 
L 134.913984 228.060658 
L 134.555547 227.70557 
L 134.707194 226.943004 
L 135.101474 225.97437 
L 135.181433 225.193177 
L 134.392872 224.989438 
L 133.744929 225.077919 
L 133.210032 225.012722 
L 132.821266 224.623872 
L 132.608961 223.739062 
L 132.691678 221.574772 
L 132.523488 220.870417 
L 131.809372 220.433834 
L 130.712005 220.178869 
L 128.354596 220.083403 
L 125.666322 221.075321 
L 123.904469 220.767966 
L 118.861543 218.423221 
L 112.988699 218.233453 
L 112.613719 218.025057 
L 112.285612 217.543068 
L 112.224953 217.105321 
L 112.299398 216.374189 
L 111.979562 216.205376 
L 105.77861 215.93062 
L 104.979021 215.56389 
L 103.255769 213.950277 
L 102.450665 213.762837 
L 100.597824 213.823377 
L 94.909713 212.695245 
L 92.657077 213.167919 
L 83.813346 213.011913 
L 79.313589 211.738254 
L 78.105934 211.774344 
L 76.895521 212.188808 
L 74.496754 213.507872 
L 67.002674 214.775711 
L 66.448476 214.750098 
L 64.813454 214.33447 
L 58.17135 214.880491 
L 57.606123 215.101693 
L 57.02711 215.730374 
L 56.056574 217.243863 
L 55.645751 218.119359 
L 55.011594 221.059021 
L 54.258877 222.170854 
L 51.234225 224.352608 
L 47.247308 228.128182 
L 46.18027 228.31213 
L 45.422039 227.561206 
L 44.674837 226.601886 
L 43.618828 226.153661 
L 42.951584 226.088464 
L 41.068414 225.493546 
L 40.442529 225.476083 
L 37.519893 226.380684 
L 37.246929 226.681053 
L 36.924337 227.273643 
L 36.896764 227.634552 
L 37.051168 227.994297 
L 37.839728 230.596335 
L 37.718411 231.286719 
L 37.486806 231.412455 
L 37.241415 231.219194 
L 37.136641 230.616127 
L 36.348081 230.215634 
L 36.017216 229.511279 
L 36.381167 229.511279 
L 35.565035 227.82432 
L 35.47129 227.177012 
L 35.576064 225.523816 
L 35.272771 225.176878 
L 35.272771 224.840417 
L 35.675323 224.70071 
L 36.017216 224.254813 
L 35.722196 223.748376 
L 35.636722 223.458485 
L 35.986887 223.209341 
L 35.74701 222.612095 
L 35.650508 222.37925 
L 36.017216 220.533957 
L 36.469398 219.986772 
L 37.02911 219.627027 
L 37.54195 219.093813 
L 37.839728 218.046013 
L 37.348946 217.350972 
L 36.929851 216.534852 
L 37.227629 216.161136 
L 37.337917 215.184353 
L 37.657753 214.996913 
L 37.577794 214.733799 
L 37.47302 214.689558 
L 37.646724 214.179629 
L 37.666024 212.720858 
L 37.839728 211.891931 
L 38.694461 210.065265 
L 39.113556 209.740447 
L 38.807507 208.970896 
L 38.074091 205.667996 
L 37.337917 205.030002 
L 37.026353 204.314005 
L 36.524542 203.997336 
L 35.258985 204.038084 
L 34.740631 203.866943 
L 33.998943 202.326676 
L 34.106474 202.168342 
L 34.180919 201.629307 
L 34.078902 201.290518 
L 33.632235 201.741072 
L 33.086309 201.097257 
L 32.719601 201.558289 
L 32.465938 201.508227 
L 32.226061 201.250934 
L 31.892439 201.097257 
L 31.431986 201.176424 
L 31.627748 200.760796 
L 31.627748 200.481383 
L 31.068035 200.419679 
L 29.410956 199.773536 
L 29.060791 199.406805 
L 28.649968 199.573289 
L 26.730954 199.035418 
L 26.129883 198.63609 
L 26.342188 197.835104 
L 26.256715 197.242515 
L 25.766353 196.626389 
L 25.487455 196.434544 
L 27.216222 193.024536 
L 28.286017 191.670545 
L 31.534003 186.510709 
L 33.885898 184.493111 
L 36.248822 183.075087 
L 40.70722 181.767665 
L 44.250227 179.283214 
L 45.311751 177.939701 
L 45.678459 176.014076 
L 45.331051 168.854106 
L 45.132532 168.356983 
L 45.182162 167.518742 
L 45.557142 166.632768 
L 45.546113 166.271859 
L 45.317265 164.729264 
L 45.336566 163.842126 
L 45.030516 163.175027 
L 44.222655 162.116748 
L 43.993807 161.353018 
L 44.029651 160.47403 
L 44.84854 158.661335 
L 44.909199 157.569294 
L 44.627964 157.026766 
L 44.170268 156.665857 
L 43.693272 156.133807 
L 41.956234 152.208048 
L 40.889196 147.948156 
L 40.354298 146.523148 
L 39.097013 143.88269 
L 36.833349 136.874069 
L 36.196435 133.730667 
L 36.133019 130.962145 
L 35.485076 130.009811 
L 35.203841 129.08309 
L 34.95845 126.687119 
L 34.056844 123.413324 
L 34.023758 122.093096 
L 34.944664 122.332926 
L 37.79837 123.94421 
L 38.211951 123.909283 
L 39.527137 123.3458 
L 41.195245 123.108298 
L 41.658456 122.768345 
L 42.254012 122.642609 
L 42.959856 122.994204 
L 43.166646 122.959278 
L 45.20422 121.788069 
L 45.606772 121.711231 
L 46.023109 121.883536 
L 46.808912 122.388808 
L 47.247308 122.493588 
L 48.956774 122.472632 
L 49.745335 122.253758 
L 51.394142 121.366621 
L 52.270933 121.208286 
L 53.11188 121.499342 
L 53.859083 122.405107 
L 54.319536 123.699723 
L 54.603528 124.132814 
L 55.119125 124.232937 
L 56.020731 124.193354 
L 56.867192 124.447154 
L 57.826699 124.456468 
L 58.79172 123.967495 
L 61.84946 121.233899 
L 63.194975 120.456198 
L 64.898927 120.123231 
L 65.635101 119.61563 
L 65.830862 119.704111 
L 66.175512 120.581935 
L 66.569793 120.970785 
L 67.057818 121.005712 
L 68.786585 120.72397 
L 69.258066 120.470169 
L 69.605474 119.692468 
L 69.657861 118.460721 
L 69.420741 117.603853 
L 69.062305 116.833137 
L 68.621152 115.172955 
L 68.668025 115.021606 
L 68.836214 115.005307 
L 69.073334 114.707266 
L 69.572388 114.395254 
L 69.663375 113.296228 
L 70.581524 112.746715 
L 71.816752 112.609337 
L 73.043707 112.78397 
L 75.147454 113.596598 
L 76.34408 113.401008 
L 77.50762 112.653577 
L 78.599473 111.440457 
L 79.040626 110.499765 
L 79.586552 108.378551 
L 79.925688 107.787126 
L 80.402685 107.707959 
L 82.095608 108.308697 
L 84.287585 108.187618 
L 84.935528 107.770827 
L 86.005323 106.208439 
L 86.678081 105.889442 
L 87.017217 105.96861 
L 87.321888 106.394715 
L 89.202301 108.937378 
L 88.97621 109.107354 
L 88.353082 109.056129 
L 87.807156 109.365812 
L 87.74374 109.812873 
L 88.386168 110.155155 
L 88.535057 110.541677 
L 88.342053 110.876973 
L 87.581065 111.137759 
L 87.382546 111.454428 
L 87.583822 112.26007 
L 88.190407 112.835196 
L 88.910037 113.186791 
L 91.272961 113.575642 
L 91.857488 113.557014 
L 92.135966 113.394023 
L 92.557818 112.809583 
L 92.847324 112.67919 
L 94.165268 112.767671 
L 94.780124 112.308967 
L 94.992429 111.60112 
L 95.09996 109.333214 
L 95.477697 108.713847 
L 95.279178 108.343624 
L 95.025515 108.141049 
L 94.639507 107.237612 
L 94.145967 106.625231 
L 94.02465 106.59729 
L 93.61107 106.6718 
L 93.509053 106.506481 
L 92.990699 104.895196 
L 92.626748 104.685636 
L 92.226953 104.790416 
L 90.627775 105.621671 
L 89.469749 105.69851 
L 88.890737 105.477308 
L 88.526786 104.895196 
L 88.562629 103.761243 
L 89.06444 102.787953 
L 90.288639 101.330346 
L 90.765635 100.352399 
L 90.864895 99.483888 
L 90.845594 98.545525 
L 90.961397 97.365003 
L 91.25366 96.452252 
L 91.661727 95.909724 
L 93.293991 94.95739 
L 93.804074 94.442804 
L 94.176296 93.741941 
L 94.314157 92.84549 
L 94.16251 91.974651 
L 93.500782 90.375009 
L 93.321563 89.483214 
L 93.467695 88.468012 
L 93.713086 87.576217 
L 93.754444 87.110528 
L 93.746173 84.206957 
L 94.030165 83.804135 
L 94.873869 83.163813 
L 95.190948 83.073003 
L 95.309507 82.693467 
L 95.292964 82.320915 
L 95.025515 81.019314 
L 95.303993 80.17176 
L 95.833376 79.633889 
L 96.453747 79.165872 
L 97.010702 78.525549 
L 97.228521 77.657039 
L 97.325023 77.319414 
L 97.639345 77.0563 
L 98.642967 76.639508 
L 99.130992 76.653479 
L 100.597824 76.881666 
L 103.837539 76.236687 
L 104.799803 75.698816 
L 105.199598 75.268054 
L 106.112232 73.905913 
L 107.220628 71.442417 
L 107.270258 70.89989 
L 107.31713 69.269978 
L 108.15532 67.987004 
L 109.357461 67.782101 
L 112.539274 68.522547 
L 112.801209 68.441051 
L 113.349892 67.777444 
L 113.730386 67.735532 
L 116.545492 68.957966 
L 117.132776 68.855514 
L 117.543599 68.198893 
L 118.205328 65.160271 
L 118.627181 64.596787 
L 119.393683 63.863327 
L 119.804507 63.628154 
L 121.525002 63.183421 
L 122.16743 62.710746 
L 122.462451 61.984271 
L 122.218439 61.225198 
L 121.606339 60.771151 
L 117.179648 60.021391 
L 115.569441 60.440512 
L 115.11726 60.417227 
L 113.526353 59.842101 
L 113.107258 59.562688 
L 112.985941 59.092342 
L 113.245119 58.254101 
L 114.066765 56.689386 
L 114.419687 55.010576 
L 114.648535 54.512289 
L 115.594256 53.590225 
L 115.67973 53.066324 
L 115.177918 52.123304 
L 115.296478 51.038248 
L 115.81759 50.216307 
L 116.471047 49.49216 
L 116.989401 48.705146 
L 117.245821 47.710899 
L 117.311994 46.523392 
L 117.209978 45.314929 
L 116.961829 44.246172 
L 117.524299 43.300823 
L 118.177756 42.958542 
L 118.891872 43.030724 
L 120.311832 43.57558 
L 120.923931 43.531339 
L 123.052493 42.483539 
L 123.584633 41.887457 
L 125.114881 39.212073 
L 126.653401 37.415677 
L 127.273772 37.041961 
L 130.734063 36.618184 
L 131.819022 36.790489 
L 132.399414 37.093187 
L 134.062008 38.440193 
L 134.795424 38.829043 
L 135.313778 38.619483 
L 137.105961 36.846372 
L 137.771826 37.584489 
L 138.60588 38.057164 
L 139.485428 38.3098 
L 142.840945 38.603184 
L 143.590904 38.512375 
L 144.055493 36.858014 
L 144.242983 34.713516 
L 144.98605 32.718038 
L 147.63848 31.055528 
L 148.506999 29.58395 
L 148.620044 28.503551 
L 149.455477 27.686267 
L 151.272474 26.363709 
L 152.094121 24.724484 
L 152.510459 24.313513 
L 152.846838 24.147029 
L 153.949719 23.923498 
L 155.091202 23.399598 
L 156.2768 22.591628 
L 157.416903 22.176 
L 158.428797 22.824472 
L 158.428797 22.824472 
" clip-path="url(#p77fd726629)" style="fill: none; stroke: #000000; stroke-width: 2"/>
   </g>
  </g>
 </g>
 <defs>
  <clipPath id="p77fd726629">
   <rect x="0" y="-0" width="305.849458" height="266.112"/>
  </clipPath>
 </defs>
</svg>
