<?xml version="1.0" encoding="utf-8" standalone="no"?>
<!DOCTYPE svg PUBLIC "-//W3C//DTD SVG 1.1//EN"
  "http://www.w3.org/Graphics/SVG/1.1/DTD/svg11.dtd">
<svg xmlns:xlink="http://www.w3.org/1999/xlink" width="141.514878pt" height="266.112pt" viewBox="0 0 141.514878 266.112" xmlns="http://www.w3.org/2000/svg" version="1.1">
 <metadata>
  <rdf:RDF xmlns:dc="http://purl.org/dc/elements/1.1/" xmlns:cc="http://creativecommons.org/ns#" xmlns:rdf="http://www.w3.org/1999/02/22-rdf-syntax-ns#">
   <cc:Work>
    <dc:type rdf:resource="http://purl.org/dc/dcmitype/StillImage"/>
    <dc:date>2024-02-02T21:57:59.980410</dc:date>
    <dc:format>image/svg+xml</dc:format>
    <dc:creator>
     <cc:Agent>
      <dc:title>Matplotlib v3.8.2, https://matplotlib.org/</dc:title>
     </cc:Agent>
    </dc:creator>
   </cc:Work>
  </rdf:RDF>
 </metadata>
 <defs>
  <style type="text/css">*{stroke-linejoin: round; stroke-linecap: butt}</style>
 </defs>
 <g id="figure_1">
  <g id="patch_1">
   <path d="M 0 266.112 
L 141.514878 266.112 
L 141.514878 0 
L 0 0 
L 0 266.112 
z
" style="fill: none"/>
  </g>
  <g id="axes_1">
   <g id="PatchCollection_1">
    <path d="M 128.048109 121.948917 
L 128.058013 123.960187 
L 127.50336 123.960187 
L 127.533074 123.082416 
L 127.50336 122.799041 
L 127.044451 122.944184 
L 126.734109 123.182634 
L 126.529416 123.517846 
L 126.351135 123.960187 
L 126.417165 118.811059 
L 126.139838 116.671925 
L 125.241829 115.790698 
L 126.255391 114.885281 
L 127.19632 116.402373 
L 128.563143 120.483662 
L 128.186772 121.10916 
L 128.048109 121.948917 
" clip-path="url(#p14b5e3967b)" style="fill: none; stroke: #000000; stroke-width: 2"/>
    <path d="M 105.871896 106.0039 
L 106.627941 107.123576 
L 106.456263 107.963333 
L 106.228459 108.346926 
L 106.20865 108.858383 
L 105.868595 109.625568 
L 105.307339 109.563364 
L 105.158771 108.858383 
L 105.049821 107.092474 
L 104.940872 106.719249 
L 104.290475 106.805643 
L 103.590556 106.480799 
L 103.121742 105.889859 
L 102.851019 105.464797 
L 102.603406 105.226347 
L 102.61331 104.725258 
L 103.158059 104.365855 
L 104.363108 104.842755 
L 105.871896 106.0039 
" clip-path="url(#p14b5e3967b)" style="fill: none; stroke: #000000; stroke-width: 2"/>
    <path d="M 129.223444 103.605582 
L 129.721972 105.298919 
L 129.38852 106.584473 
L 127.711355 109.902032 
L 126.635064 111.353464 
L 125.809688 112.797984 
L 124.634352 113.572081 
L 123.023217 112.307262 
L 122.191238 113.689578 
L 121.16447 114.48441 
L 120.230144 115.510779 
L 119.649079 117.580798 
L 119.143948 121.378711 
L 118.945858 121.997298 
L 118.529868 122.861245 
L 118.163401 123.918717 
L 118.084165 125.121332 
L 116.928638 123.960187 
L 117.232377 123.676812 
L 117.338025 123.393437 
L 117.37104 123.103151 
L 117.483291 122.799041 
L 117.67808 120.995119 
L 118.427522 117.998948 
L 118.817099 113.924572 
L 119.460893 112.583725 
L 120.500867 111.612648 
L 121.913911 110.572455 
L 123.57787 108.834192 
L 124.396644 108.761621 
L 125.604995 109.266166 
L 126.621858 109.411309 
L 127.404315 108.67177 
L 128.0283 107.006079 
L 128.180169 105.222892 
L 127.50336 104.144685 
L 126.608652 104.946428 
L 125.85921 105.374946 
L 125.241829 105.298919 
L 125.281447 104.759816 
L 126.096919 102.451348 
L 127.070863 102.485906 
L 128.22639 102.76928 
L 129.223444 103.605582 
" clip-path="url(#p14b5e3967b)" style="fill: none; stroke: #000000; stroke-width: 2"/>
    <path d="M 108.565925 101.822394 
L 108.014573 101.822394 
L 107.605187 100.999916 
L 106.892061 98.98519 
L 105.852087 94.278404 
L 106.964695 95.232202 
L 107.770262 97.295309 
L 108.565925 101.822394 
" clip-path="url(#p14b5e3967b)" style="fill: none; stroke: #000000; stroke-width: 2"/>
    <path d="M 101.177156 91.72803 
L 98.545856 91.959568 
L 98.539253 91.562152 
L 98.651504 91.302968 
L 99.100509 90.798423 
L 100.800784 90.010503 
L 105.406384 86.85191 
L 106.350615 86.423392 
L 105.604474 89.181113 
L 103.70941 90.877906 
L 101.177156 91.72803 
" clip-path="url(#p14b5e3967b)" style="fill: none; stroke: #000000; stroke-width: 2"/>
    <path d="M 114.505333 57.64357 
L 113.627133 57.802537 
L 113.389424 57.266889 
L 113.973791 56.427132 
L 114.386479 56.150669 
L 114.63079 56.136846 
L 115.099604 55.939866 
L 115.340614 56.178315 
L 115.162333 57.062998 
L 114.505333 57.64357 
" clip-path="url(#p14b5e3967b)" style="fill: none; stroke: #000000; stroke-width: 2"/>
    <path d="M 116.806482 55.915675 
L 116.136277 56.416765 
L 115.852347 56.358016 
L 115.746699 55.922587 
L 115.61794 55.587375 
L 115.753302 55.293633 
L 116.169292 55.058639 
L 116.598488 54.692325 
L 116.743754 54.218882 
L 116.895623 53.904405 
L 117.027683 53.779997 
L 117.222472 54.118664 
L 117.281899 55.030993 
L 116.806482 55.915675 
" clip-path="url(#p14b5e3967b)" style="fill: none; stroke: #000000; stroke-width: 2"/>
    <path d="M 124.508895 50.607581 
L 124.373533 52.494443 
L 123.300544 53.482799 
L 122.69967 54.443509 
L 121.042314 59.012063 
L 120.253254 60.542978 
L 119.6953 60.159386 
L 119.143948 59.910569 
L 118.945858 60.802163 
L 118.638818 61.434572 
L 118.170004 61.890737 
L 117.483291 62.23286 
L 117.483291 62.806521 
L 118.084165 64.026415 
L 118.846813 62.906739 
L 119.028396 62.398738 
L 119.143948 61.652287 
L 119.649079 61.652287 
L 119.008587 65.322336 
L 117.430467 68.702099 
L 114.894911 71.179901 
L 111.388712 72.137155 
L 111.388712 71.563494 
L 112.230596 71.59114 
L 112.498018 71.563494 
L 115.456167 69.438183 
L 116.509347 67.948737 
L 116.928638 65.764678 
L 115.647654 65.830338 
L 115.991011 63.197025 
L 117.483291 57.885476 
L 117.658271 57.51225 
L 118.034642 57.208141 
L 118.420919 56.810725 
L 118.589295 56.143757 
L 118.638818 55.314368 
L 119.840566 50.842575 
L 120.63953 50.089213 
L 121.913911 50.631772 
L 123.700026 49.446436 
L 124.508895 50.607581 
" clip-path="url(#p14b5e3967b)" style="fill: none; stroke: #000000; stroke-width: 2"/>
    <path d="M 122.333203 46.661069 
L 122.28368 47.096498 
L 121.996449 47.946623 
L 121.223897 48.94189 
L 120.758384 48.537563 
L 120.982887 47.086131 
L 121.303133 46.57813 
L 121.557349 46.778566 
L 121.600268 46.605776 
L 121.464907 46.236007 
L 121.497922 46.090863 
L 121.77855 46.149612 
L 121.986545 46.170347 
L 122.28368 46.318946 
L 122.333203 46.661069 
" clip-path="url(#p14b5e3967b)" style="fill: none; stroke: #000000; stroke-width: 2"/>
    <path d="M 79.797746 23.080104 
L 80.414104 23.455351 
L 80.889999 23.376351 
L 81.363798 23.115215 
L 81.982253 22.937466 
L 87.469305 22.975051 
L 87.469305 22.975082 
L 87.469305 23.279191 
L 88.865842 24.550922 
L 87.271214 26.631308 
L 80.98845 31.161849 
L 80.39748 32.381743 
L 81.325203 33.712222 
L 82.474127 33.784794 
L 86.359999 32.022341 
L 85.904391 33.259514 
L 85.148346 34.572714 
L 83.289599 36.926107 
L 82.843896 37.676014 
L 83.075001 38.063062 
L 83.702287 38.021593 
L 84.418714 37.50668 
L 85.785537 35.972309 
L 88.476264 34.033611 
L 89.747344 33.432303 
L 91.094358 33.183487 
L 92.906884 33.439215 
L 95.264159 34.586537 
L 96.327244 34.925205 
L 98.05063 34.662565 
L 100.50695 32.962316 
L 103.316531 32.098368 
L 104.270666 31.970504 
L 104.693259 32.284981 
L 104.534787 33.48414 
L 104.085782 34.268605 
L 102.474647 35.505778 
L 100.622503 36.300609 
L 100.262639 36.660012 
L 100.236226 37.589619 
L 100.820593 37.786599 
L 101.530417 37.489401 
L 102.137894 36.48031 
L 102.801496 36.013779 
L 103.630174 35.650921 
L 104.415932 35.505778 
L 104.683354 35.968854 
L 105.340354 46.01138 
L 104.693259 53.800732 
L 104.429138 55.127755 
L 103.29342 57.15976 
L 103.0293 58.490239 
L 99.978709 66.289958 
L 98.582172 67.257579 
L 95.217938 73.878873 
L 95.709862 76.0733 
L 94.729315 83.126568 
L 92.748412 90.15219 
L 92.104618 91.57252 
L 89.994956 94.091791 
L 89.143168 95.650352 
L 88.776701 97.468098 
L 89.133264 99.503559 
L 90.113811 100.53684 
L 93.005929 102.012462 
L 93.610105 103.298016 
L 94.385959 104.002998 
L 97.786509 104.600849 
L 98.545856 105.298919 
L 97.56861 106.947331 
L 95.475456 106.926596 
L 93.395507 106.615575 
L 92.457879 107.38276 
L 92.246583 108.699417 
L 88.892254 119.937647 
L 87.736727 133.674413 
L 88.311189 135.467968 
L 89.450208 141.017968 
L 90.219459 141.453397 
L 91.949448 142.040882 
L 92.933296 143.333347 
L 93.606803 144.974848 
L 93.989778 146.82024 
L 94.201074 149.5123 
L 94.669888 151.578863 
L 94.478401 152.567219 
L 93.969969 152.781478 
L 93.256844 152.77111 
L 92.457879 153.061397 
L 91.569775 153.887331 
L 90.460469 155.176341 
L 89.526143 156.648507 
L 89.133264 158.013544 
L 89.493128 159.575562 
L 91.07785 162.084465 
L 91.391493 163.549721 
L 91.533458 163.556632 
L 91.817387 163.781258 
L 92.025382 164.164851 
L 91.949448 164.655573 
L 91.649011 164.738512 
L 90.239268 164.655573 
L 89.209198 165.481507 
L 88.793208 165.99642 
L 88.449852 167.181756 
L 88.047068 167.596451 
L 87.647586 168.173568 
L 87.469305 169.05825 
L 87.551842 170.074253 
L 87.934817 171.415099 
L 88.023958 172.244489 
L 87.274516 178.264476 
L 86.772687 179.187172 
L 86.062863 179.916344 
L 85.250693 181.001462 
L 84.32297 184.471075 
L 83.880568 185.532003 
L 83.603242 187.02836 
L 84.141387 189.164038 
L 83.804634 189.948503 
L 83.22687 190.698409 
L 82.67882 190.753702 
L 82.434509 189.430134 
L 84.976668 179.778112 
L 86.343491 178.319768 
L 86.865129 177.466188 
L 84.725754 178.575497 
L 82.533554 184.142775 
L 80.77055 186.216249 
L 81.305394 186.302644 
L 82.434509 186.848659 
L 81.463866 187.249531 
L 80.962037 187.173503 
L 80.219199 186.848659 
L 80.387576 187.59511 
L 80.59557 187.9476 
L 81.021465 188.040906 
L 81.873253 188.009804 
L 81.873253 188.535085 
L 81.01156 189.119113 
L 80.400782 189.972693 
L 80.258817 190.995607 
L 80.77055 192.066902 
L 79.245255 193.221136 
L 77.584597 196.580164 
L 76.059302 197.288601 
L 75.90083 197.755133 
L 75.785277 200.18801 
L 75.323066 200.471384 
L 74.89387 200.478296 
L 74.623147 200.336608 
L 74.623147 200.18801 
L 73.939735 200.709834 
L 73.84069 200.927549 
L 73.520444 201.342243 
L 72.477168 203.882249 
L 72.156922 204.296944 
L 71.523033 204.659802 
L 69.145949 207.935891 
L 68.528568 209.708712 
L 68.581392 210.672877 
L 68.35689 210.72817 
L 67.472086 210.672877 
L 67.115523 210.880225 
L 66.134976 211.101395 
L 65.761906 211.308743 
L 65.590228 211.640499 
L 65.207253 212.995168 
L 65.207253 209.463351 
L 64.6526 209.463351 
L 64.094646 211.308743 
L 62.955627 211.578294 
L 61.836416 210.869857 
L 61.014341 209.297473 
L 60.33093 209.24218 
L 59.363589 209.463351 
L 59.261242 209.76746 
L 59.297558 211.260362 
L 59.063152 211.834023 
L 58.478785 212.027547 
L 55.738536 212.414596 
L 55.269722 212.732528 
L 54.886747 213.1334 
L 54.305682 213.482435 
L 53.222788 213.627578 
L 52.073865 214.166681 
L 51.737111 215.497161 
L 51.912091 218.793985 
L 51.614955 220.563349 
L 50.845705 221.848903 
L 49.703384 222.643735 
L 48.287038 222.906375 
L 47.87435 223.127546 
L 47.395631 223.663193 
L 46.996149 224.323249 
L 46.639587 225.798872 
L 46.144361 226.230845 
L 45.444442 226.507309 
L 44.661985 226.963473 
L 43.35789 228.179911 
L 42.998026 228.705191 
L 42.803237 229.645166 
L 42.869267 230.585141 
L 42.644765 231.314313 
L 40.525198 231.939811 
L 39.12536 232.796847 
L 37.768441 233.92689 
L 36.853924 235.08458 
L 36.569995 237.192612 
L 38.263667 240.731342 
L 37.96323 242.721877 
L 34.887466 243.936 
L 27.711297 242.06196 
L 25.109595 242.079515 
L 22.795108 242.478901 
L 16.585405 242.184847 
L 15.099018 242.808065 
L 14.363162 242.851953 
L 13.413467 243.17234 
L 12.646164 243.562947 
L 12.463773 243.835056 
L 11.792907 242.724676 
L 11.98578 237.54144 
L 14.064387 217.906813 
L 16.025014 191.600704 
L 18.876834 145.70494 
L 18.753259 121.520306 
L 17.889401 72.226488 
L 18.49318 68.860237 
L 20.226949 66.380535 
L 26.971248 63.922776 
L 28.70921 64.528438 
L 30.046749 65.739762 
L 31.260597 67.095918 
L 32.62539 68.149243 
L 33.591856 68.250186 
L 34.5122 68.057077 
L 35.281599 68.232631 
L 36.394817 70.620167 
L 37.436756 71.418939 
L 40.692552 73.32809 
L 41.420022 73.117425 
L 41.9064 72.432764 
L 42.27328 70.554334 
L 42.633871 69.944284 
L 46.776467 66.828198 
L 47.539577 65.928483 
L 49.086762 61.838071 
L 50.292224 60.828635 
L 51.401249 60.179084 
L 52.371908 59.446146 
L 53.162272 58.188739 
L 53.41804 57.273663 
L 53.665422 55.355734 
L 53.887646 54.51088 
L 55.904437 51.116101 
L 56.17488 50.161526 
L 55.896051 48.97873 
L 55.598354 48.732954 
L 57.908649 47.019106 
L 60.277644 45.884588 
L 61.24411 45.145066 
L 62.059632 43.861326 
L 62.369907 42.575392 
L 62.506177 41.232403 
L 62.812259 39.78847 
L 63.594237 38.421342 
L 66.101599 35.531282 
L 67.105801 33.942517 
L 67.386726 32.968191 
L 67.705388 30.813264 
L 68.437051 28.772447 
L 68.871017 26.204968 
L 69.294501 25.285503 
L 69.912956 24.655702 
L 72.42451 22.707051 
L 73.240031 22.799217 
L 73.990563 23.216158 
L 74.827049 23.453156 
L 75.54194 23.354407 
L 77.1625 22.768495 
L 78.045108 22.325221 
L 78.592283 22.176 
L 79.017864 22.32961 
L 79.797746 23.080104 
L 79.797746 23.080104 
" clip-path="url(#p14b5e3967b)" style="fill: none; stroke: #000000; stroke-width: 2"/>
   </g>
  </g>
 </g>
 <defs>
  <clipPath id="p14b5e3967b">
   <rect x="0" y="-0" width="141.514878" height="266.112"/>
  </clipPath>
 </defs>
</svg>
