<?xml version="1.0" encoding="utf-8" standalone="no"?>
<!DOCTYPE svg PUBLIC "-//W3C//DTD SVG 1.1//EN"
  "http://www.w3.org/Graphics/SVG/1.1/DTD/svg11.dtd">
<svg xmlns:xlink="http://www.w3.org/1999/xlink" width="357.12pt" height="249.228027pt" viewBox="0 0 357.12 249.228027" xmlns="http://www.w3.org/2000/svg" version="1.1">
 <metadata>
  <rdf:RDF xmlns:dc="http://purl.org/dc/elements/1.1/" xmlns:cc="http://creativecommons.org/ns#" xmlns:rdf="http://www.w3.org/1999/02/22-rdf-syntax-ns#">
   <cc:Work>
    <dc:type rdf:resource="http://purl.org/dc/dcmitype/StillImage"/>
    <dc:date>2024-02-02T21:58:00.004415</dc:date>
    <dc:format>image/svg+xml</dc:format>
    <dc:creator>
     <cc:Agent>
      <dc:title>Matplotlib v3.8.2, https://matplotlib.org/</dc:title>
     </cc:Agent>
    </dc:creator>
   </cc:Work>
  </rdf:RDF>
 </metadata>
 <defs>
  <style type="text/css">*{stroke-linejoin: round; stroke-linecap: butt}</style>
 </defs>
 <g id="figure_1">
  <g id="patch_1">
   <path d="M 0 249.228027 
L 357.12 249.228027 
L 357.12 -0 
L 0 -0 
L 0 249.228027 
z
" style="fill: none"/>
  </g>
  <g id="axes_1">
   <g id="PatchCollection_1">
    <path d="M 122.185366 166.617761 
L 127.508293 171.7712 
L 137.186341 176.352034 
L 133.799024 179.78766 
L 123.153171 178.069847 
L 111.539512 179.78766 
L 99.925854 178.642452 
L 96.538537 170.625991 
L 100.409756 167.76297 
L 111.05561 170.625991 
L 117.830244 168.335574 
L 122.185366 166.617761 
" clip-path="url(#p421aaedc46)" style="fill: none; stroke: #000000; stroke-width: 2"/>
    <path d="M 327.36 50.951695 
L 317.681951 64.121594 
L 317.198049 77.291492 
L 311.39122 72.710658 
L 302.680976 64.694198 
L 285.971691 60.548417 
L 280.421463 66.984615 
L 272.679024 57.250342 
L 251.87122 75.573679 
L 255.742439 88.170974 
L 268.323902 92.751808 
L 289.61561 100.768268 
L 263.96878 112.792958 
L 240.741463 128.825878 
L 211.299013 151.097213 
L 193.467446 161.917822 
L 182.189268 177.497243 
L 157.994146 199.82881 
L 125.572683 216.434335 
L 94.602927 228.459025 
L 75.730732 227.88642 
L 61.213659 227.313816 
L 41.857561 214.143917 
L 33.63122 193.530163 
L 29.76 177.497243 
L 41.446025 182.905157 
L 39.769447 172.32434 
L 44.049978 158.130265 
L 37.502439 143.71359 
L 46.696585 147.149216 
L 51.051707 138.560151 
L 56.858537 147.149216 
L 64.600976 155.165676 
L 53.47122 164.899949 
L 49.970346 181.615329 
L 47.180488 186.658912 
L 53.47122 191.81235 
L 76.214634 194.675372 
L 76.214634 199.256206 
L 58.305086 197.53732 
L 56.858537 207.272666 
L 65.084878 218.724752 
L 78.634146 218.724752 
L 96.054634 211.280896 
L 100.893659 200.974019 
L 112.507317 199.82881 
L 133.315122 187.231516 
L 160.95405 170.153506 
L 163.317073 164.899949 
L 143.960976 167.190366 
L 130.411707 161.464323 
L 119.686318 145.872297 
L 123.598333 140.581889 
L 161.919292 146.708855 
L 184.780274 135.587675 
L 198.039643 131.620119 
L 211.707317 116.228584 
L 217.030244 117.946397 
L 238.805854 116.801188 
L 244.612683 108.212124 
L 255.258537 98.477851 
L 245.580488 88.743578 
L 231.216418 94.448176 
L 220.901463 101.913477 
L 218.604404 110.823341 
L 212.675122 109.357333 
L 209.963184 102.88876 
L 216.546341 87.025765 
L 234.483606 74.170627 
L 245.580488 56.677738 
L 265.403337 43.131592 
L 291.820472 20.769002 
L 327.36 50.951695 
" clip-path="url(#p421aaedc46)" style="fill: none; stroke: #000000; stroke-width: 2"/>
   </g>
  </g>
 </g>
 <defs>
  <clipPath id="p421aaedc46">
   <rect x="0" y="-0" width="357.12" height="249.228027"/>
  </clipPath>
 </defs>
</svg>
