<?xml version="1.0" encoding="utf-8" standalone="no"?>
<!DOCTYPE svg PUBLIC "-//W3C//DTD SVG 1.1//EN"
  "http://www.w3.org/Graphics/SVG/1.1/DTD/svg11.dtd">
<svg xmlns:xlink="http://www.w3.org/1999/xlink" width="235.784472pt" height="266.112pt" viewBox="0 0 235.784472 266.112" xmlns="http://www.w3.org/2000/svg" version="1.1">
 <metadata>
  <rdf:RDF xmlns:dc="http://purl.org/dc/elements/1.1/" xmlns:cc="http://creativecommons.org/ns#" xmlns:rdf="http://www.w3.org/1999/02/22-rdf-syntax-ns#">
   <cc:Work>
    <dc:type rdf:resource="http://purl.org/dc/dcmitype/StillImage"/>
    <dc:date>2024-02-02T21:58:00.031420</dc:date>
    <dc:format>image/svg+xml</dc:format>
    <dc:creator>
     <cc:Agent>
      <dc:title>Matplotlib v3.8.2, https://matplotlib.org/</dc:title>
     </cc:Agent>
    </dc:creator>
   </cc:Work>
  </rdf:RDF>
 </metadata>
 <defs>
  <style type="text/css">*{stroke-linejoin: round; stroke-linecap: butt}</style>
 </defs>
 <g id="figure_1">
  <g id="patch_1">
   <path d="M 0 266.112 
L 235.784472 266.112 
L 235.784472 0 
L 0 0 
L 0 266.112 
z
" style="fill: none"/>
  </g>
  <g id="axes_1">
   <g id="PatchCollection_1">
    <path d="M 90.089709 52.793902 
L 90.651872 52.636105 
L 91.214035 53.007189 
L 91.321391 53.385209 
L 91.201968 53.907154 
L 91.344694 54.182866 
L 91.652198 54.260898 
L 92.10326 54.65279 
L 91.725017 54.781109 
L 91.685903 54.935438 
L 91.718359 55.514607 
L 91.541513 55.927308 
L 91.640131 56.771784 
L 92.151113 57.241708 
L 92.359999 57.297198 
L 92.488161 57.141134 
L 92.642121 56.114584 
L 92.740739 55.979329 
L 92.973344 55.911702 
L 93.02078 56.069499 
L 92.970847 56.449253 
L 93.202204 56.678146 
L 93.743978 56.960794 
L 94.102248 57.876366 
L 94.196704 58.224908 
L 94.180476 58.729513 
L 94.347336 59.23932 
L 94.830022 59.575723 
L 94.785915 59.946807 
L 94.564128 60.269338 
L 94.536665 60.574529 
L 94.840841 61.040985 
L 95.321447 61.236931 
L 96.338001 61.339239 
L 97.020836 61.519579 
L 97.379105 61.384324 
L 98.259176 61.899333 
L 98.334908 62.239205 
L 98.526734 62.5548 
L 99.038548 63.11316 
L 98.919541 63.345521 
L 98.99444 63.529329 
L 99.173783 63.617765 
L 99.368938 63.562275 
L 99.528308 62.884267 
L 99.849128 62.948426 
L 99.927773 63.366329 
L 99.808349 63.685392 
L 100.028055 63.973242 
L 100.588138 64.377273 
L 101.546853 64.751825 
L 102.071982 64.77957 
L 102.667018 65.17493 
L 102.709461 65.063952 
L 103.022791 65.121175 
L 103.350269 65.483589 
L 103.346108 66.050619 
L 103.263718 66.413033 
L 102.97369 67.08584 
L 103.115583 67.439584 
L 103.616579 67.65287 
L 103.941144 68.166145 
L 104.279856 68.57191 
L 104.83661 68.920452 
L 105.216101 68.975941 
L 106.109903 68.916984 
L 106.273434 69.444131 
L 106.576778 69.445865 
L 106.768188 69.338355 
L 107.094417 69.079983 
L 107.722742 69.135472 
L 107.955347 69.289802 
L 108.572436 69.834289 
L 108.974397 69.31928 
L 109.221982 69.612333 
L 110.188187 69.645279 
L 110.53647 70.127342 
L 110.836901 70.087459 
L 111.347883 69.893247 
L 111.709065 70.110001 
L 111.885496 70.233118 
L 112.172611 70.236586 
L 112.564585 69.756258 
L 113.112185 68.975941 
L 114.102524 68.736644 
L 116.462694 69.128536 
L 117.339019 69.594992 
L 118.276929 70.297278 
L 119.185711 70.456809 
L 119.459511 70.763734 
L 119.560209 71.2562 
L 120.674549 72.253272 
L 121.219651 72.423208 
L 121.888755 72.880994 
L 123.208652 72.82377 
L 123.422532 72.554994 
L 123.831151 72.291421 
L 124.172361 72.237666 
L 124.317999 71.965422 
L 124.994592 71.772944 
L 125.96579 72.281017 
L 126.145549 72.988504 
L 126.308664 73.168844 
L 126.185496 73.555534 
L 126.237093 73.631832 
L 126.847109 74.323713 
L 127.021875 75.01386 
L 127.406359 75.412688 
L 127.730924 75.49072 
L 128.23608 75.412688 
L 128.289342 75.570486 
L 129.4403 76.910897 
L 129.799818 77.042684 
L 129.904677 77.460587 
L 130.393189 77.892362 
L 130.705271 78.057096 
L 130.734399 77.724161 
L 130.9075 77.632257 
L 131.485059 77.588906 
L 132.055128 77.294119 
L 132.623533 77.755373 
L 132.685117 77.907969 
L 132.779158 78.384829 
L 134.181445 79.002146 
L 135.509665 79.029891 
L 135.72937 79.189422 
L 136.208728 79.803272 
L 136.282795 80.00442 
L 136.563253 80.00442 
L 136.963549 80.228111 
L 137.933916 80.29227 
L 138.11201 80.129271 
L 138.437407 80.264526 
L 139.877144 79.940261 
L 140.311562 80.243717 
L 140.335696 79.858761 
L 140.497979 79.907314 
L 141.033095 80.413653 
L 141.266116 80.401515 
L 141.301069 80.646014 
L 141.351002 82.058388 
L 141.514949 82.287281 
L 141.861152 82.543918 
L 143.148593 83.990105 
L 143.783575 84.349051 
L 144.731471 85.250751 
L 145.169218 85.533399 
L 145.229138 85.665186 
L 145.561193 86.787108 
L 145.748442 86.951842 
L 146.108792 87.012533 
L 147.069171 86.778438 
L 147.378756 86.908491 
L 148.058678 86.572087 
L 148.458143 86.480183 
L 149.746832 86.398684 
L 150.346862 86.908491 
L 151.110005 87.078426 
L 151.829458 87.003863 
L 152.52644 86.742023 
L 153.617478 86.164589 
L 154.110151 86.285971 
L 154.688542 86.391748 
L 155.214504 86.679598 
L 155.386357 86.679598 
L 155.754197 86.563417 
L 156.973813 86.506194 
L 157.066189 86.169791 
L 157.305451 86.010259 
L 158.054864 85.840324 
L 158.456825 85.67559 
L 158.552946 85.843792 
L 158.552946 86.525268 
L 158.862947 86.861672 
L 160.880243 87.158192 
L 161.300097 87.536212 
L 162.406531 88.018275 
L 164.810392 89.941323 
L 165.738315 90.324545 
L 165.902678 90.449396 
L 166.059551 90.726842 
L 166.205606 90.799671 
L 167.710256 91.267861 
L 167.828847 91.581722 
L 167.957008 92.493826 
L 168.259103 93.289749 
L 168.77175 93.827301 
L 168.693105 93.997236 
L 169.073845 94.481033 
L 168.936113 94.800096 
L 168.567024 95.949763 
L 168.280325 96.202932 
L 167.780578 96.398879 
L 167.62953 97.007526 
L 167.661155 97.612705 
L 167.875035 97.988991 
L 168.005277 99.636327 
L 168.881186 100.376761 
L 169.019334 100.650739 
L 169.255268 101.705034 
L 169.784975 102.896317 
L 169.871526 103.595135 
L 169.37594 103.766804 
L 169.641417 104.313026 
L 170.425367 104.862716 
L 170.62385 105.230332 
L 170.893489 113.033501 
L 165.945121 113.095927 
L 166.794816 113.848499 
L 171.353706 119.461579 
L 171.489357 119.870812 
L 172.426018 131.939713 
L 172.733939 132.657605 
L 173.230773 132.796328 
L 200.408513 133.725772 
L 200.859575 133.398039 
L 201.202449 132.902104 
L 201.898183 132.919445 
L 202.06213 133.068572 
L 202.073781 134.934396 
L 201.695954 135.249991 
L 201.675148 135.541309 
L 202.012197 136.153425 
L 201.79582 136.763806 
L 200.188807 138.601886 
L 199.918336 139.113427 
L 199.796 139.685659 
L 199.854256 140.412221 
L 200.182982 141.678068 
L 200.20129 142.447981 
L 200.015706 142.904033 
L 200.021531 143.101713 
L 200.181317 143.935785 
L 200.565802 144.747315 
L 200.740568 146.177896 
L 200.912005 146.472682 
L 200.987736 146.840298 
L 201.102582 148.976633 
L 201.392194 149.476036 
L 201.995552 149.807237 
L 202.823609 150.020523 
L 203.405329 150.403746 
L 203.801465 150.525128 
L 203.983721 150.769628 
L 204.244205 151.32452 
L 204.719401 151.570753 
L 205.07892 151.643583 
L 205.286142 151.780572 
L 205.901983 152.396155 
L 206.665959 152.749899 
L 207.366687 153.327333 
L 208.439415 153.681077 
L 209.049431 153.722694 
L 209.879985 153.525013 
L 210.519128 153.712289 
L 210.739666 153.942916 
L 210.900284 154.317469 
L 210.951881 155.402976 
L 210.978512 156.360165 
L 211.27395 156.883844 
L 211.711696 157.244524 
L 211.968019 157.352034 
L 211.889791 158.068192 
L 212.413256 158.836371 
L 212.381632 159.138093 
L 211.877307 159.18838 
L 213.377796 161.789437 
L 214.205853 163.830399 
L 214.76011 164.851747 
L 215.402582 165.219363 
L 215.992625 165.26098 
L 216.135766 165.423979 
L 216.117458 165.789861 
L 214.71517 165.873095 
L 214.507948 166.067307 
L 211.035935 177.045499 
L 211.681736 177.099255 
L 211.849844 177.239712 
L 212.011295 178.567984 
L 212.107 179.29628 
L 211.204043 179.365642 
L 210.928579 179.542514 
L 205.523324 190.794684 
L 205.647324 191.266342 
L 209.789273 194.992789 
L 209.211714 195.731489 
L 208.852195 195.89969 
L 208.188086 195.766169 
L 208.030796 195.993328 
L 207.761158 196.217019 
L 207.170283 196.416434 
L 206.668456 197.132591 
L 206.141662 197.354548 
L 205.862869 197.742972 
L 204.973228 198.096716 
L 204.961577 197.659738 
L 205.22539 196.421636 
L 205.192933 194.815917 
L 204.918301 193.85526 
L 204.882516 192.523519 
L 204.70775 192.329307 
L 189.984151 183.35913 
L 175.218942 183.549874 
L 149.884148 188.897646 
L 147.08748 189.384911 
L 146.958486 189.584325 
L 144.324978 196.418983 
L 143.741964 197.474196 
L 140.778436 201.736461 
L 138.78361 204.606293 
L 138.647126 205.053675 
L 138.672925 213.220992 
L 133.007186 231.978077 
L 132.639345 232.815617 
L 132.454593 232.649149 
L 132.363881 232.347427 
L 132.173303 232.149746 
L 131.485059 231.671152 
L 130.722748 231.310472 
L 130.495552 231.078111 
L 130.375713 230.781591 
L 130.309967 229.741168 
L 130.159336 228.950447 
L 129.230581 228.768373 
L 126.840451 228.894958 
L 116.092357 228.943511 
L 115.833537 229.083968 
L 115.084541 229.730764 
L 114.901453 229.649264 
L 113.913611 228.933107 
L 111.980368 228.912298 
L 111.694085 229.063159 
L 111.685763 229.162 
L 111.17062 230.17988 
L 110.974217 230.273518 
L 110.833572 230.547496 
L 110.585571 231.489078 
L 109.957247 232.914457 
L 109.515339 233.209243 
L 108.31861 236.238607 
L 107.929548 236.788297 
L 107.098162 237.551274 
L 106.864725 237.95357 
L 106.169823 240.473127 
L 106.159836 241.681751 
L 106.016695 242.00775 
L 105.665499 243.511161 
L 105.365901 243.372438 
L 105.304316 242.588653 
L 105.106665 242.354558 
L 105.230249 241.953995 
L 105.175323 241.497943 
L 104.961859 241.125125 
L 104.434649 240.833807 
L 103.846687 239.819395 
L 103.597438 239.668533 
L 103.573303 239.228088 
L 103.862499 238.400952 
L 103.981922 238.229282 
L 104.006889 237.981315 
L 102.882146 236.814308 
L 102.726105 236.330511 
L 102.347446 236.023586 
L 102.351607 235.853651 
L 102.456467 235.347312 
L 101.692075 234.639824 
L 102.060331 234.005167 
L 102.171432 233.772806 
L 102.16311 233.50403 
L 101.882236 232.961276 
L 101.302597 232.347427 
L 100.618098 232.097725 
L 100.311009 231.875768 
L 99.707651 231.804673 
L 99.262415 231.957268 
L 98.627432 231.808141 
L 97.497697 231.18909 
L 94.471752 230.502411 
L 86.578998 230.490272 
L 85.242872 230.410507 
L 85.051462 230.544028 
L 82.808219 230.795463 
L 82.313881 230.644602 
L 81.842846 230.322071 
L 79.779361 227.951641 
L 79.428166 227.759163 
L 77.861931 227.415824 
L 77.671354 226.600826 
L 77.173687 226.078881 
L 76.475873 225.735541 
L 75.1127 225.307234 
L 74.830162 225.399138 
L 74.064521 228.159726 
L 73.839822 229.971795 
L 73.705835 230.193752 
L 73.637593 230.153869 
L 73.296384 230.263113 
L 72.616462 231.013952 
L 68.540259 232.193097 
L 68.366325 232.448001 
L 67.433409 232.250321 
L 67.215368 232.345693 
L 66.844199 232.657819 
L 66.518802 233.382647 
L 66.211713 235.009174 
L 65.964545 235.397599 
L 66.051927 236.056533 
L 65.868839 236.177916 
L 63.63267 236.94436 
L 62.942761 237.64838 
L 62.338571 237.670922 
L 62.063939 237.68306 
L 62.162141 239.609576 
L 61.984046 239.86448 
L 60.767344 240.795658 
L 60.29298 241.343614 
L 59.468252 242.677089 
L 53.780042 243.856234 
L 52.658213 243.936 
L 50.167384 243.792075 
L 49.525744 243.505959 
L 49.09632 242.989215 
L 48.477982 242.867833 
L 48.304881 242.618131 
L 48.234142 242.184622 
L 48.236639 240.889296 
L 48.754278 238.064549 
L 48.26327 237.122966 
L 47.985309 235.929948 
L 47.26128 234.487229 
L 47.256286 234.15256 
L 47.517603 232.779202 
L 47.372797 232.376905 
L 46.863479 231.563642 
L 47.120635 230.608187 
L 46.644606 229.848679 
L 46.321706 229.635392 
L 45.004305 228.352204 
L 44.936895 228.109439 
L 44.753807 225.352319 
L 44.419255 224.055259 
L 43.417265 222.27787 
L 43.290768 221.698702 
L 43.3665 217.615043 
L 43.144298 216.874609 
L 39.528311 211.181764 
L 39.176283 211.093328 
L 38.269997 211.100264 
L 37.5468 210.659818 
L 37.275497 209.962735 
L 37.262182 207.789986 
L 37.386182 207.398094 
L 37.625861 207.054754 
L 38.730214 206.114906 
L 38.741033 205.807981 
L 38.269997 205.424759 
L 37.849727 205.254823 
L 37.092409 204.772761 
L 35.091757 203.730604 
L 34.396855 202.906936 
L 34.160089 202.393661 
L 34.101834 201.878652 
L 34.284506 201.438206 
L 34.647353 201.157292 
L 35.559464 200.839963 
L 34.922817 199.721509 
L 34.738897 199.163149 
L 34.790494 197.859153 
L 34.262868 197.744706 
L 33.772692 197.437782 
L 33.722343 197.115251 
L 33.996975 196.830869 
L 36.467414 196.187541 
L 37.011684 196.258636 
L 37.233886 195.917031 
L 37.678291 193.785898 
L 37.604223 193.555271 
L 37.572599 192.941422 
L 37.293806 192.601551 
L 36.519843 192.195786 
L 36.013023 191.661702 
L 35.125878 190.860577 
L 35.161664 190.553652 
L 35.369718 190.215515 
L 36.325104 189.319018 
L 38.493032 186.239367 
L 39.277813 185.840538 
L 39.158806 185.518007 
L 38.543797 184.872945 
L 36.822771 183.63831 
L 35.804136 183.138908 
L 35.238228 182.166112 
L 34.87122 181.76555 
L 32.840192 180.092204 
L 31.855678 179.688173 
L 31.675503 179.45061 
L 30.99891 178.035635 
L 30.549512 177.650679 
L 31.158696 176.691756 
L 31.112508 176.149002 
L 30.212464 174.236359 
L 30.364344 173.787243 
L 30.218705 173.343329 
L 29.837134 172.667054 
L 29.692328 171.845121 
L 29.710636 169.450415 
L 29.063587 168.188035 
L 29.077319 167.12507 
L 28.820996 166.091584 
L 28.766069 165.701425 
L 28.600042 165.427448 
L 28.108201 164.905502 
L 27.878925 164.123451 
L 28.945412 163.164528 
L 29.057028 162.426245 
L 28.89964 162.162255 
L 27.842307 162.202138 
L 26.486624 161.548405 
L 26.162059 161.166917 
L 25.512097 161.371534 
L 25.263264 160.958833 
L 25.118042 160.346717 
L 24.999451 158.512106 
L 24.594161 157.733523 
L 24.024508 157.091929 
L 22.720006 155.938794 
L 22.3763 155.418582 
L 22.231494 154.809935 
L 21.966017 151.185797 
L 21.413008 150.554607 
L 20.510052 149.944226 
L 19.648706 149.829779 
L 19.923754 149.401472 
L 20.352346 148.106146 
L 20.799247 148.007306 
L 22.167413 146.873245 
L 23.498546 146.45014 
L 23.8435 146.049577 
L 23.8435 145.678493 
L 23.673728 145.529366 
L 23.825192 145.255388 
L 24.706094 144.618996 
L 25.133022 143.687818 
L 26.9897 141.587899 
L 27.445339 140.4417 
L 27.702911 140.280434 
L 28.577572 140.152115 
L 29.78512 139.460234 
L 30.247833 138.855055 
L 29.736019 137.968962 
L 29.933255 135.834362 
L 30.354357 135.308948 
L 30.891554 135.033236 
L 32.703708 134.308409 
L 33.063642 133.734442 
L 32.900112 133.281858 
L 32.529358 133.028689 
L 31.690483 132.688818 
L 31.034279 131.962256 
L 30.671432 131.738565 
L 30.218705 131.89116 
L 29.519642 131.71082 
L 29.343212 131.773246 
L 28.849291 132.094043 
L 28.436511 132.094043 
L 27.704575 131.745501 
L 27.404977 131.487129 
L 26.844894 130.777908 
L 23.456935 121.944721 
L 23.599244 121.443584 
L 24.727732 119.52227 
L 24.851732 118.8564 
L 25.224566 118.464507 
L 25.777575 118.239082 
L 25.785897 118.093423 
L 25.599896 117.59402 
L 25.693105 117.32351 
L 26.261093 116.694055 
L 26.797458 116.506779 
L 27.01425 115.859983 
L 27.706656 115.865185 
L 27.95965 115.658834 
L 27.9971 115.35191 
L 27.615944 114.973889 
L 26.957244 114.143285 
L 25.734715 113.147948 
L 24.539234 111.458995 
L 24.193032 111.131262 
L 24.090669 110.839944 
L 24.16224 110.527817 
L 24.459758 109.768308 
L 24.414818 108.1071 
L 24.561704 107.879942 
L 24.922055 107.657985 
L 26.07218 107.253954 
L 26.294382 106.770157 
L 26.396329 104.619951 
L 26.603135 104.293952 
L 26.920626 104.261005 
L 27.637998 104.349441 
L 27.732871 104.162165 
L 27.736616 103.0992 
L 27.834401 103.022902 
L 28.223879 102.892849 
L 29.172192 101.914852 
L 30.539109 101.018355 
L 30.468787 100.681951 
L 30.121752 100.047294 
L 30.129242 99.074499 
L 30.218705 98.784914 
L 30.625244 98.490128 
L 31.166186 98.349671 
L 32.254727 98.20748 
L 32.565144 97.867608 
L 32.493573 97.27977 
L 31.732094 95.077542 
L 30.869916 94.500107 
L 30.656452 94.193183 
L 30.55617 93.043516 
L 30.495002 92.474751 
L 30.218705 92.048178 
L 29.991094 91.177691 
L 30.125081 90.517023 
L 29.94657 90.267322 
L 29.076903 89.54943 
L 28.746096 89.065634 
L 28.971627 88.684145 
L 29.181762 88.663337 
L 29.856691 88.718826 
L 29.998168 88.535018 
L 30.00857 87.896892 
L 30.755486 86.71081 
L 30.853272 86.294641 
L 30.793768 85.914887 
L 30.981433 82.63929 
L 30.709714 80.642546 
L 30.801905 78.414274 
L 30.598197 76.043878 
L 30.688909 75.665858 
L 31.196562 75.261827 
L 31.563986 74.542202 
L 31.918094 74.592489 
L 32.369989 73.770555 
L 32.697883 73.543396 
L 34.148438 73.024919 
L 34.521688 72.27408 
L 34.360238 72.088538 
L 33.839269 71.941145 
L 33.689886 71.783348 
L 33.709027 71.50937 
L 34.084358 71.07586 
L 34.793823 70.599 
L 35.112563 70.096129 
L 35.303973 69.607131 
L 35.467088 69.534301 
L 21.079705 43.525471 
L 22.919738 43.508131 
L 24.005783 43.235887 
L 26.568598 43.535875 
L 29.233776 43.821991 
L 30.649794 44.366479 
L 31.100024 44.333533 
L 32.249733 44.600574 
L 33.52802 44.236426 
L 34.285338 44.526011 
L 33.834276 45.3202 
L 33.745229 45.753709 
L 33.860907 46.596452 
L 33.990733 46.684887 
L 34.274103 46.693558 
L 36.570609 46.213229 
L 37.016677 45.980868 
L 37.853056 45.358349 
L 38.811771 45.077435 
L 39.590727 45.05836 
L 40.39465 44.40983 
L 41.432425 44.215618 
L 42.06824 43.655524 
L 42.560913 42.93243 
L 43.208378 41.623232 
L 44.114664 40.627894 
L 44.910264 39.254536 
L 45.781596 38.737793 
L 46.321706 38.616411 
L 46.779425 38.694442 
L 48.938199 38.637219 
L 49.477476 38.888654 
L 50.419547 39.530248 
L 50.967978 39.384589 
L 51.23512 38.900793 
L 51.564678 37.791009 
L 53.490431 35.867961 
L 55.335458 34.862219 
L 55.630063 34.361082 
L 55.677499 34.097509 
L 56.001232 33.903296 
L 57.0698 33.79752 
L 57.217102 33.532212 
L 57.150525 33.018937 
L 57.381049 32.897555 
L 58.41716 32.810853 
L 59.616386 33.029341 
L 59.935958 32.724151 
L 60.147341 32.396418 
L 60.646672 32.321854 
L 60.818941 32.288907 
L 61.555454 31.858866 
L 64.158632 29.110416 
L 66.591205 27.25673 
L 68.065062 26.630743 
L 68.519453 25.94233 
L 70.420239 25.600724 
L 71.726821 25.637139 
L 72.039735 25.520959 
L 72.9739 25.025024 
L 74.846806 24.664344 
L 75.62493 24.206558 
L 76.57449 24.142399 
L 76.792115 24.29326 
L 77.379245 23.951655 
L 78.220617 24.331409 
L 78.528122 24.260313 
L 79.549669 23.712357 
L 80.059819 23.717559 
L 80.910346 23.887495 
L 81.104252 23.778251 
L 81.367649 23.492135 
L 81.406347 23.610049 
L 81.650187 23.956857 
L 81.812886 23.930846 
L 82.100417 23.069029 
L 82.509036 23.727964 
L 83.366221 23.453986 
L 83.315455 24.09558 
L 83.967498 24.067835 
L 84.19511 24.315802 
L 84.905408 24.76145 
L 85.395168 24.816939 
L 85.610296 24.457993 
L 85.735961 24.178813 
L 85.993533 24.111186 
L 86.402984 23.497337 
L 86.574004 23.08637 
L 87.67378 22.176 
L 88.39032 22.292181 
L 88.83306 22.692743 
L 89.701063 24.402504 
L 89.897883 24.622727 
L 89.982769 24.884567 
L 89.910782 25.274725 
L 89.432257 26.32035 
L 89.37525 26.998359 
L 89.579559 28.326631 
L 89.944903 29.556064 
L 90.019803 30.45603 
L 90.212877 31.017858 
L 90.160447 31.175655 
L 89.882071 31.610899 
L 89.716875 32.434566 
L 89.520472 32.822991 
L 88.921275 33.121245 
L 88.515985 33.823531 
L 88.496012 34.317731 
L 88.563005 34.371486 
L 87.949245 35.318271 
L 87.553109 35.401505 
L 87.553109 35.515951 
L 87.766573 36.00495 
L 87.687512 36.403779 
L 87.887244 36.967341 
L 87.783217 38.047646 
L 88.571327 38.781144 
L 88.64373 39.554525 
L 88.362857 41.17585 
L 88.997423 41.349254 
L 89.531707 41.817444 
L 89.662781 42.067145 
L 89.805507 43.596567 
L 89.974863 43.816789 
L 89.920353 44.170533 
L 89.292444 44.876286 
L 89.371921 45.462391 
L 89.432257 45.810933 
L 89.307424 46.114389 
L 88.44275 46.899908 
L 88.387823 47.312609 
L 89.002 47.997554 
L 88.904631 48.252457 
L 88.541368 48.573254 
L 88.563005 48.982487 
L 88.768979 49.289412 
L 89.542526 49.82523 
L 89.48427 50.038516 
L 89.103115 50.574334 
L 89.114766 50.879524 
L 89.653627 52.318776 
L 90.089709 52.793902 
L 90.089709 52.793902 
" clip-path="url(#p2a4d8f3092)" style="fill: none; stroke: #000000; stroke-width: 2"/>
   </g>
  </g>
 </g>
 <defs>
  <clipPath id="p2a4d8f3092">
   <rect x="0" y="-0" width="235.784472" height="266.112"/>
  </clipPath>
 </defs>
</svg>
