<?xml version="1.0" encoding="utf-8" standalone="no"?>
<!DOCTYPE svg PUBLIC "-//W3C//DTD SVG 1.1//EN"
  "http://www.w3.org/Graphics/SVG/1.1/DTD/svg11.dtd">
<svg xmlns:xlink="http://www.w3.org/1999/xlink" width="347.227812pt" height="266.112pt" viewBox="0 0 347.227812 266.112" xmlns="http://www.w3.org/2000/svg" version="1.1">
 <metadata>
  <rdf:RDF xmlns:dc="http://purl.org/dc/elements/1.1/" xmlns:cc="http://creativecommons.org/ns#" xmlns:rdf="http://www.w3.org/1999/02/22-rdf-syntax-ns#">
   <cc:Work>
    <dc:type rdf:resource="http://purl.org/dc/dcmitype/StillImage"/>
    <dc:date>2024-02-02T21:58:00.124443</dc:date>
    <dc:format>image/svg+xml</dc:format>
    <dc:creator>
     <cc:Agent>
      <dc:title>Matplotlib v3.8.2, https://matplotlib.org/</dc:title>
     </cc:Agent>
    </dc:creator>
   </cc:Work>
  </rdf:RDF>
 </metadata>
 <defs>
  <style type="text/css">*{stroke-linejoin: round; stroke-linecap: butt}</style>
 </defs>
 <g id="figure_1">
  <g id="patch_1">
   <path d="M 0 266.112 
L 347.227812 266.112 
L 347.227812 0 
L 0 0 
L 0 266.112 
z
" style="fill: none"/>
  </g>
  <g id="axes_1">
   <g id="PatchCollection_1">
    <path d="M 270.232417 53.794422 
L 272.635703 53.863798 
L 272.704862 53.863798 
L 272.838946 58.743192 
L 274.793215 60.731137 
L 277.625806 62.07479 
L 280.370566 63.941586 
L 285.706378 71.535428 
L 299.583881 111.778932 
L 300.506121 116.83415 
L 300.176749 120.523689 
L 298.46402 128.949053 
L 298.354229 137.33587 
L 299.539965 146.328432 
L 302.328641 154.704235 
L 307.225291 161.240775 
L 314.691037 168.278433 
L 317.765167 172.838041 
L 318.292161 177.254474 
L 315.218031 180.619113 
L 310.562919 180.442896 
L 305.64431 178.289748 
L 301.801647 175.718084 
L 299.935211 175.024231 
L 295.851009 175.189434 
L 293.633243 174.247776 
L 290.317574 171.455841 
L 288.53897 170.817055 
L 282.193086 171.455841 
L 277.757555 170.497663 
L 265.658656 165.998628 
L 262.848022 164.109805 
L 261.15725 161.086586 
L 258.610114 140.08375 
L 256.128851 131.68592 
L 249.1901 115.088503 
L 247.345621 106.822835 
L 246.489256 89.487511 
L 247.976715 72.59179 
L 247.980415 72.595502 
L 251.870626 76.602005 
L 255.760836 74.104445 
L 259.962263 69.395503 
L 264.716964 66.871926 
L 269.316057 65.900652 
L 269.454375 63.411764 
L 267.638944 60.073011 
L 266.394077 56.517456 
L 266.860902 54.878432 
L 268.244088 54.045912 
L 270.232417 53.794422 
" clip-path="url(#pd9de162380)" style="fill: none; stroke: #000000; stroke-width: 2"/>
    <path d="M 230.679442 72.956175 
L 227.297899 75.043243 
L 223.565026 75.131351 
L 219.656489 74.470538 
L 215.76991 74.261281 
L 211.005007 75.571893 
L 207.162344 77.989367 
L 200.311425 84.542428 
L 196.710301 86.816725 
L 188.915184 90.093256 
L 187.089348 91.785053 
L 186.829167 92.026134 
L 186.697418 95.544962 
L 188.2784 99.498826 
L 192.38456 107.362499 
L 193.614212 111.767918 
L 194.338828 116.49273 
L 195.370858 141.399869 
L 196.644426 149.197461 
L 200.443173 155.13927 
L 204.615207 156.659139 
L 207.755212 156.141503 
L 209.336194 157.182283 
L 208.853116 163.283789 
L 206.898847 171.356719 
L 205.317866 174.925109 
L 203.034226 178.554073 
L 197.918557 183.502545 
L 196.578552 184.798754 
L 195.326942 186.764673 
L 195.45869 191.137051 
L 202.090029 188.433225 
L 202.814645 192.150298 
L 201.27758 196.065614 
L 196.424845 203.329049 
L 194.931697 207.47565 
L 193.74596 216.275474 
L 192.121063 219.397815 
L 172.578376 238.09882 
L 162.565494 243.936 
L 153.82618 242.922754 
L 152.772193 241.237681 
L 151.191211 235.951178 
L 150.159182 233.764989 
L 148.46841 232.14049 
L 143.967005 228.963082 
L 130.616495 216.594867 
L 127.586281 212.508841 
L 125.500264 208.340213 
L 121.086691 194.865137 
L 118.407806 192.051176 
L 114.47731 191.819891 
L 105.781912 193.383815 
L 96.493647 191.544552 
L 89.247482 191.032422 
L 88.259368 189.083025 
L 87.886081 185.894602 
L 88.566782 184.644565 
L 91.531122 182.050874 
L 92.23378 180.002354 
L 90.784547 170.486649 
L 87.886081 166.108764 
L 87.886081 160.166955 
L 86.239226 154.197611 
L 84.987615 151.857232 
L 82.747892 149.379184 
L 82.045233 147.985971 
L 81.847611 146.306404 
L 81.364533 144.885657 
L 79.827468 144.290925 
L 76.555715 144.202817 
L 75.23823 143.558524 
L 73.613333 139.191653 
L 71.110112 137.556141 
L 65.88409 135.551675 
L 58.945339 130.133009 
L 54.465891 127.79263 
L 42.828112 126.002929 
L 28.935651 119.372728 
L 82.67242 121.176522 
L 98.596347 118.149964 
L 113.275406 109.868123 
L 134.247961 102.297393 
L 141.648006 99.626391 
L 146.10878 95.229644 
L 149.376556 89.063791 
L 157.053238 81.258915 
L 182.728624 60.784122 
L 190.699233 55.945099 
L 226.437296 34.247542 
L 253.928115 22.835078 
L 259.25338 22.176 
L 263.264619 23.736975 
L 263.575836 26.512042 
L 260.480957 28.697408 
L 253.841665 31.671933 
L 252.078104 34.542393 
L 248.55098 43.01502 
L 247.928546 45.564613 
L 246.493491 48.487106 
L 239.888779 54.61827 
L 237.76213 58.009055 
L 232.919166 62.862258 
L 232.238466 66.138789 
L 232.062801 69.701672 
L 230.679442 72.956175 
" clip-path="url(#pd9de162380)" style="fill: none; stroke: #000000; stroke-width: 2"/>
   </g>
  </g>
 </g>
 <defs>
  <clipPath id="pd9de162380">
   <rect x="0" y="-0" width="347.227812" height="266.112"/>
  </clipPath>
 </defs>
</svg>
