<?xml version="1.0" encoding="utf-8" standalone="no"?>
<!DOCTYPE svg PUBLIC "-//W3C//DTD SVG 1.1//EN"
  "http://www.w3.org/Graphics/SVG/1.1/DTD/svg11.dtd">
<svg xmlns:xlink="http://www.w3.org/1999/xlink" width="357.12pt" height="199.304305pt" viewBox="0 0 357.12 199.304305" xmlns="http://www.w3.org/2000/svg" version="1.1">
 <metadata>
  <rdf:RDF xmlns:dc="http://purl.org/dc/elements/1.1/" xmlns:cc="http://creativecommons.org/ns#" xmlns:rdf="http://www.w3.org/1999/02/22-rdf-syntax-ns#">
   <cc:Work>
    <dc:type rdf:resource="http://purl.org/dc/dcmitype/StillImage"/>
    <dc:date>2024-02-02T21:58:00.160450</dc:date>
    <dc:format>image/svg+xml</dc:format>
    <dc:creator>
     <cc:Agent>
      <dc:title>Matplotlib v3.8.2, https://matplotlib.org/</dc:title>
     </cc:Agent>
    </dc:creator>
   </cc:Work>
  </rdf:RDF>
 </metadata>
 <defs>
  <style type="text/css">*{stroke-linejoin: round; stroke-linecap: butt}</style>
 </defs>
 <g id="figure_1">
  <g id="patch_1">
   <path d="M 0 199.304305 
L 357.12 199.304305 
L 357.12 0 
L 0 0 
L 0 199.304305 
z
" style="fill: none"/>
  </g>
  <g id="axes_1">
   <g id="PatchCollection_1">
    <path d="M 165.480289 18.911273 
L 165.480289 22.529614 
L 168.108858 26.305425 
L 171.478865 26.860485 
L 173.64792 22.529614 
L 176.564931 22.529614 
L 179.190241 24.174315 
L 182.690654 24.174315 
L 187.066171 27.463716 
L 190.858285 27.792656 
L 194.358698 29.108416 
L 195.233802 32.397818 
L 192.608492 33.384638 
L 190.858285 36.674039 
L 187.941274 37.002979 
L 185.315964 39.96344 
L 184.391119 45.190385 
L 185.929601 44.983851 
L 187.47724 45.014831 
L 193.255703 45.840967 
L 195.215435 45.365939 
L 197.385793 45.128425 
L 199.968244 43.726575 
L 201.424307 43.393539 
L 202.880369 43.71883 
L 206.689942 46.254036 
L 212.166204 47.673957 
L 217.679095 48.019902 
L 222.87147 49.155839 
L 227.395338 52.94574 
L 228.686564 54.20818 
L 231.67195 55.739113 
L 235.490681 56.136691 
L 239.089629 55.248595 
L 241.488927 52.93025 
L 242.743522 51.009483 
L 246.470676 46.674849 
L 248.137364 45.365939 
L 250.435929 44.937381 
L 252.697863 45.278162 
L 254.785802 45.138752 
L 256.599012 43.285108 
L 258.320646 46.783279 
L 261.141196 49.364955 
L 268.000259 52.94574 
L 270.445345 53.782203 
L 271.727413 53.980992 
L 274.969213 54.00939 
L 278.513215 55.480946 
L 282.157951 55.945647 
L 284.108525 56.487799 
L 285.976681 57.342334 
L 287.414429 58.439546 
L 288.733127 60.737238 
L 288.385137 62.688985 
L 287.341168 64.684621 
L 286.56277 67.137213 
L 286.471193 69.421996 
L 286.965705 76.454482 
L 286.416247 80.752972 
L 282.267842 86.592723 
L 281.681754 90.416186 
L 283.614013 97.742982 
L 284.447358 99.165486 
L 286.965705 101.212755 
L 287.744104 102.880518 
L 289.136063 104.460503 
L 291.159899 105.090432 
L 293.348571 105.498337 
L 295.312757 106.379818 
L 296.782682 108.456938 
L 296.883416 109.995617 
L 297.350455 110.754629 
L 299.969536 110.486135 
L 306.856072 108.064523 
L 309.246213 107.656618 
L 312.488013 107.857989 
L 313.623559 107.460411 
L 316.24264 105.482847 
L 317.28661 105.131739 
L 319.2555 107.506881 
L 327.01201 121.93845 
L 327.36 123.126021 
L 326.746439 124.845417 
L 323.980836 127.215396 
L 322.753713 128.707604 
L 322.433196 129.611191 
L 322.14931 131.506141 
L 321.892896 132.368421 
L 321.398385 133.168741 
L 320.006773 134.739174 
L 319.759169 135.089507 
L 319.127293 136.545573 
L 318.678569 138.270132 
L 318.422156 140.118612 
L 318.40384 141.941276 
L 319.48444 145.189024 
L 323.898417 149.655324 
L 325.427741 152.851439 
L 326.929592 158.598249 
L 325.940568 163.549904 
L 322.671295 166.838959 
L 317.28661 167.659932 
L 315.720655 166.895756 
L 312.909264 164.458654 
L 311.361625 163.808071 
L 310.024611 164.19016 
L 310.235237 165.496488 
L 310.235237 166.973206 
L 308.33045 167.892283 
L 309.383577 169.234755 
L 309.475154 170.876701 
L 308.742543 172.017801 
L 307.359742 171.842247 
L 306.416506 170.468796 
L 306.160092 168.847503 
L 305.66558 167.386275 
L 303.998892 166.477525 
L 301.352338 166.973206 
L 295.711239 170.701147 
L 293.101316 171.971331 
L 288.815546 172.52381 
L 287.414429 172.420543 
L 283.494964 171.243298 
L 281.892379 171.305259 
L 278.678052 172.436033 
L 277.020522 172.559953 
L 275.848345 171.516956 
L 273.815352 167.050657 
L 272.982008 165.770145 
L 271.69994 165.388057 
L 268.119308 165.171197 
L 266.892186 165.372567 
L 265.307916 166.477525 
L 264.392153 168.04202 
L 263.677858 169.854357 
L 262.643046 171.702837 
L 261.507501 172.849101 
L 260.133856 173.768178 
L 258.641163 174.44974 
L 257.166785 174.857645 
L 255.344417 174.909278 
L 254.09898 174.413597 
L 251.489056 172.802631 
L 248.448724 172.084925 
L 242.148276 172.229499 
L 239.034683 171.842247 
L 236.388128 171.862901 
L 231.543743 174.103796 
L 205.819968 175.611494 
L 194.363776 174.31033 
L 184.391119 169.079854 
L 176.185885 163.147162 
L 173.191341 162.661807 
L 171.396446 163.260756 
L 170.123536 164.288263 
L 168.942202 165.496488 
L 167.486139 166.616935 
L 165.851502 167.16425 
L 162.586808 167.035167 
L 160.970487 167.174577 
L 158.003416 169.115998 
L 155.768955 175.141629 
L 153.552809 177.17599 
L 150.182802 178.141537 
L 140.091096 179.127737 
L 134.495786 180.640599 
L 132.572684 180.82648 
L 131.675237 180.687069 
L 129.763116 180.107052 
L 128.726481 179.829953 
L 128.021343 179.189697 
L 127.659617 179.158717 
L 127.197157 179.551132 
L 127.014004 180.067467 
L 126.7988 181.544186 
L 126.519492 182.210258 
L 126.093663 182.69045 
L 125.773146 182.695613 
L 124.568918 182.261892 
L 120.545405 182.212098 
L 119.133866 181.983071 
L 114.385636 179.85577 
L 112.444219 179.762829 
L 109.348941 181.058831 
L 107.709725 181.089811 
L 106.619968 180.217204 
L 108.034821 177.459974 
L 107.84709 175.719925 
L 105.60805 173.912752 
L 102.100679 172.565117 
L 98.460522 171.950678 
L 92.920157 172.61675 
L 89.769933 170.979968 
L 83.950261 166.890593 
L 80.273473 167.881956 
L 79.05093 167.825159 
L 77.919963 167.93359 
L 76.976727 168.687439 
L 76.060965 169.642659 
L 75.016995 170.344875 
L 72.535278 171.016111 
L 70.035246 171.263952 
L 65.026024 170.974804 
L 62.228368 170.179648 
L 60.982931 168.718419 
L 60.264057 166.684059 
L 59.055251 164.179833 
L 57.654134 162.615337 
L 55.589088 161.061168 
L 53.377521 160.054315 
L 51.49105 160.157582 
L 50.648548 160.782347 
L 49.650367 161.066332 
L 48.606397 160.957901 
L 47.681477 160.405423 
L 47.058758 159.393406 
L 47.067916 158.427859 
L 47.20528 157.390025 
L 46.985497 156.166311 
L 45.405807 154.22489 
L 43.61549 154.436588 
L 41.903014 155.908143 
L 40.538528 157.787603 
L 39.998228 152.841112 
L 39.998228 147.383449 
L 39.572398 144.817263 
L 38.4048 142.555715 
L 36.422174 141.042852 
L 30.868073 138.073925 
L 29.76 137.252952 
L 30.501768 134.371802 
L 31.912043 131.093073 
L 33.816829 128.268719 
L 36.060448 126.71455 
L 41.399345 125.320445 
L 43.455232 123.72497 
L 44.137475 120.807676 
L 46.160271 119.276314 
L 49.318891 119.540155 
L 51.190667 121.123201 
L 53.413399 119.276314 
L 52.009568 116.901744 
L 50.488751 113.076048 
L 49.341166 109.057326 
L 49.916175 106.679802 
L 50.682854 104.57245 
L 52.168295 103.113514 
L 51.481001 101.69399 
L 51.281259 100.612831 
L 51.76064 99.351479 
L 53.038989 98.630707 
L 54.117596 97.414403 
L 53.917854 96.333245 
L 55.116306 94.801603 
L 56.634345 94.486265 
L 57.193623 92.954623 
L 58.192333 91.558127 
L 59.350837 90.792306 
L 61.78769 89.801244 
L 63.385626 90.16163 
L 64.264491 90.567065 
L 64.722664 90.901682 
L 64.962252 89.658885 
L 67.501876 85.822425 
L 71.239436 79.338266 
L 72.868629 75.285667 
L 73.606721 71.621584 
L 76.601265 69.649184 
L 80.213949 67.981421 
L 83.45117 65.50043 
L 86.473187 61.475597 
L 90.997055 52.94574 
L 93.066679 49.302995 
L 94.330432 47.642977 
L 95.795652 46.290179 
L 97.567653 45.624107 
L 99.312181 44.235165 
L 103.428534 38.965964 
L 105.017383 37.966856 
L 106.647441 37.45052 
L 117.279446 35.52459 
L 120.649453 33.996238 
L 122.224565 31.158976 
L 122.865599 29.560918 
L 124.21177 28.419818 
L 127.197157 26.524868 
L 127.984713 25.649679 
L 129.349199 23.716004 
L 130.136755 22.864051 
L 131.08457 22.383859 
L 131.766813 22.691079 
L 134.851672 20.884914 
L 138.076418 21.619683 
L 139.766001 20.641228 
L 141.437268 20.38306 
L 148.561624 17.924453 
L 153.228842 18.911273 
L 155.854152 20.227033 
L 157.89606 19.898093 
L 159.937968 17.595512 
L 162.271576 16.608692 
L 165.480289 18.911273 
L 165.480289 18.911273 
" clip-path="url(#pda619231cc)" style="fill: none; stroke: #000000; stroke-width: 2"/>
   </g>
  </g>
 </g>
 <defs>
  <clipPath id="pda619231cc">
   <rect x="0" y="0" width="357.12" height="199.304305"/>
  </clipPath>
 </defs>
</svg>
