<?xml version="1.0" encoding="utf-8" standalone="no"?>
<!DOCTYPE svg PUBLIC "-//W3C//DTD SVG 1.1//EN"
  "http://www.w3.org/Graphics/SVG/1.1/DTD/svg11.dtd">
<svg xmlns:xlink="http://www.w3.org/1999/xlink" width="253.216535pt" height="266.112pt" viewBox="0 0 253.216535 266.112" xmlns="http://www.w3.org/2000/svg" version="1.1">
 <metadata>
  <rdf:RDF xmlns:dc="http://purl.org/dc/elements/1.1/" xmlns:cc="http://creativecommons.org/ns#" xmlns:rdf="http://www.w3.org/1999/02/22-rdf-syntax-ns#">
   <cc:Work>
    <dc:type rdf:resource="http://purl.org/dc/dcmitype/StillImage"/>
    <dc:date>2024-02-02T21:58:00.196458</dc:date>
    <dc:format>image/svg+xml</dc:format>
    <dc:creator>
     <cc:Agent>
      <dc:title>Matplotlib v3.8.2, https://matplotlib.org/</dc:title>
     </cc:Agent>
    </dc:creator>
   </cc:Work>
  </rdf:RDF>
 </metadata>
 <defs>
  <style type="text/css">*{stroke-linejoin: round; stroke-linecap: butt}</style>
 </defs>
 <g id="figure_1">
  <g id="patch_1">
   <path d="M 0 266.112 
L 253.216535 266.112 
L 253.216535 0 
L 0 0 
L 0 266.112 
z
" style="fill: none"/>
  </g>
  <g id="axes_1">
   <g id="PatchCollection_1">
    <path d="M 140.018139 22.475388 
L 139.108245 24.561044 
L 139.108245 25.247876 
L 139.259506 25.829042 
L 139.911092 27.514674 
L 140.841929 29.157536 
L 141.451628 29.839336 
L 142.217241 30.307288 
L 142.894425 30.870843 
L 143.373806 31.771524 
L 144.095205 33.650878 
L 145.002771 35.359153 
L 145.3274 36.710174 
L 145.618287 37.203285 
L 147.102972 38.823504 
L 148.175762 39.686447 
L 149.243897 41.266413 
L 149.890829 41.855126 
L 150.761162 42.305467 
L 151.324318 42.831283 
L 151.582626 43.689194 
L 151.719924 45.470429 
L 152.525098 47.301982 
L 155.350188 49.913454 
L 155.959887 51.853189 
L 155.883093 52.356362 
L 155.515412 53.259559 
L 155.443272 53.757701 
L 155.527048 54.343899 
L 155.706234 54.801787 
L 156.260082 55.767881 
L 156.94192 56.69372 
L 157.458534 57.762965 
L 159.618076 64.027478 
L 160.185887 64.905516 
L 161.063201 65.466555 
L 162.068505 65.740785 
L 163.518284 65.881673 
L 163.913889 66.241443 
L 164.19314 66.752164 
L 163.869675 67.562274 
L 163.713759 67.685551 
L 164.167542 67.954749 
L 164.851708 68.080543 
L 165.359014 68.359804 
L 165.980348 69.346025 
L 166.408533 69.758627 
L 166.822755 69.924675 
L 168.142217 70.312118 
L 169.05211 70.915927 
L 169.43608 71.323498 
L 170.094647 72.656908 
L 170.511197 72.848114 
L 171.856257 73.333677 
L 173.143139 74.611738 
L 174.965252 74.868357 
L 177.513419 76.19422 
L 178.324411 76.347688 
L 179.800951 76.418132 
L 180.759713 77.082321 
L 181.392682 77.849661 
L 181.897661 77.970423 
L 182.395659 77.957844 
L 183.338132 78.176724 
L 183.744209 78.435859 
L 184.03975 78.861041 
L 185.190497 81.872536 
L 185.595411 84.728047 
L 185.24402 88.2402 
L 186.091082 87.792375 
L 186.872985 87.686708 
L 189.421152 87.694256 
L 191.226976 87.930748 
L 192.504549 87.694256 
L 193.291107 88.066605 
L 194.196346 88.079184 
L 194.596606 88.247747 
L 194.920072 88.564747 
L 195.087622 88.992444 
L 195.0213 89.953506 
L 194.567517 91.68694 
L 195.127183 93.619127 
L 195.178379 94.592768 
L 194.715287 96.839439 
L 194.422074 97.269653 
L 194.346443 98.653381 
L 194.488396 100.532735 
L 194.210308 102.248557 
L 194.394149 102.708961 
L 195.511153 104.158102 
L 197.074959 105.320433 
L 197.745162 106.155702 
L 198.319954 107.079025 
L 199.339221 108.40992 
L 199.378781 108.983538 
L 199.560294 109.393625 
L 199.927975 109.793648 
L 200.658682 111.43651 
L 200.441099 112.196303 
L 200.691261 112.390024 
L 200.574907 112.704508 
L 200.77271 112.966158 
L 200.899536 112.941 
L 201.170642 113.235356 
L 201.50109 113.949863 
L 202.089844 114.460585 
L 202.457525 114.581346 
L 203.760697 114.66437 
L 205.447839 115.004012 
L 208.130977 115.044266 
L 208.965239 115.205282 
L 209.862333 115.517249 
L 211.693755 116.478311 
L 212.177791 116.58901 
L 212.914315 116.375161 
L 214.190726 116.01036 
L 215.895321 116.370129 
L 216.766817 117.067025 
L 217.797719 117.396603 
L 221.099864 118.95141 
L 221.779375 119.135069 
L 223.150032 119.218092 
L 223.801618 119.376592 
L 224.204205 119.648306 
L 225.10479 119.937631 
L 225.477125 120.231988 
L 225.530648 120.699939 
L 224.637045 122.378024 
L 224.543961 123.407014 
L 224.718493 124.43852 
L 225.145514 125.366876 
L 225.826189 126.098994 
L 226.663942 126.541787 
L 227.494714 126.690223 
L 229.735705 126.700286 
L 230.077787 127.195913 
L 230.394272 127.902872 
L 232.115157 129.40233 
L 231.697444 129.550766 
L 231.052839 129.487869 
L 229.821807 129.221187 
L 229.233053 129.291631 
L 228.0346 130.066519 
L 225.10479 130.308042 
L 224.294962 131.269104 
L 223.337363 132.408793 
L 223.510732 134.117068 
L 223.40834 134.403877 
L 223.184939 134.612694 
L 222.665997 135.588851 
L 222.26341 135.900819 
L 220.778725 135.810247 
L 220.557651 136.132279 
L 220.431988 136.597714 
L 220.108522 136.856849 
L 218.184017 137.36757 
L 216.555052 138.29341 
L 215.76384 138.557576 
L 214.322206 138.562608 
L 213.841662 138.982758 
L 213.480962 139.093456 
L 212.060272 138.723623 
L 210.202089 138.854449 
L 209.339901 139.088424 
L 208.175191 139.848217 
L 207.136144 140.945136 
L 206.343769 141.068413 
L 206.134331 141.206786 
L 205.312867 142.338927 
L 205.312867 142.950283 
L 205.375699 143.332695 
L 205.001037 143.838385 
L 204.265676 144.218281 
L 204.051583 144.739066 
L 202.778663 145.22966 
L 202.739103 145.493827 
L 202.932252 146.014611 
L 202.836841 146.555523 
L 202.559917 147.043602 
L 201.903677 147.612188 
L 201.005419 148.007179 
L 200.57258 148.077624 
L 200.309618 148.319147 
L 200.318927 148.875154 
L 200.502767 149.90666 
L 200.142068 150.588461 
L 199.364819 151.134404 
L 198.424673 151.52688 
L 197.568303 151.748276 
L 197.71491 152.193585 
L 197.358865 152.32441 
L 196.632812 152.246418 
L 196.576962 152.437625 
L 196.831778 152.983568 
L 196.972567 153.187353 
L 196.632812 153.411266 
L 196.16972 154.573597 
L 195.843927 154.739644 
L 195.541405 154.59624 
L 194.927053 153.909408 
L 193.771651 154.739644 
L 192.890847 154.475478 
L 192.693044 155.154763 
L 192.269513 155.622714 
L 192.026332 156.377475 
L 191.884379 156.483142 
L 192.020514 156.998895 
L 191.892524 157.544838 
L 191.55975 157.982599 
L 191.108294 158.281988 
L 190.621932 158.427908 
L 189.393227 158.57886 
L 188.77422 159.245566 
L 188.457735 159.077002 
L 188.622959 158.724781 
L 188.443773 158.676979 
L 187.841056 158.92605 
L 187.561805 159.351232 
L 187.33375 159.484573 
L 187.08126 158.729812 
L 186.756631 158.996495 
L 186.226054 159.839311 
L 185.462767 160.485889 
L 184.598252 160.918618 
L 183.760499 161.177753 
L 183.512664 161.464562 
L 183.831475 161.932513 
L 183.40329 162.035664 
L 183.061208 161.751371 
L 183.005357 161.897291 
L 182.740069 162.264608 
L 182.558556 162.040696 
L 182.300248 161.940061 
L 182.069866 161.980315 
L 181.972128 162.174037 
L 182.069866 162.473425 
L 182.379369 162.790425 
L 182.279304 163.07975 
L 182.00238 162.908671 
L 181.753382 162.936345 
L 181.357776 163.411844 
L 181.509037 163.411844 
L 180.964497 163.854637 
L 180.894684 164.07855 
L 180.586345 163.912502 
L 180.77833 165.170437 
L 180.43392 165.422024 
L 180.047623 165.404412 
L 179.512391 164.742739 
L 179.294808 164.921366 
L 178.898039 165.922681 
L 178.461709 166.695053 
L 178.346518 167.150425 
L 178.44891 167.583155 
L 177.807796 168.744228 
L 177.962548 169.239854 
L 177.876445 169.896496 
L 176.294022 176.362279 
L 176.249807 177.446619 
L 175.816968 179.582591 
L 175.579605 180.007773 
L 175.221232 180.329804 
L 174.748833 180.59397 
L 172.286769 181.492136 
L 172.087802 181.854421 
L 170.722962 183.265823 
L 168.644869 184.707416 
L 168.079385 185.44205 
L 167.255594 187.452229 
L 165.781399 188.945377 
L 164.018609 188.692552 
L 162.962108 188.840988 
L 156.990789 190.692668 
L 155.920326 191.399627 
L 154.763761 191.356857 
L 153.721224 191.754365 
L 153.688644 192.350626 
L 153.921354 194.129345 
L 153.909718 195.110534 
L 153.672355 195.892969 
L 153.016115 197.377331 
L 152.974227 198.283044 
L 152.292389 199.462987 
L 151.796718 201.083206 
L 149.827998 205.430628 
L 148.868208 209.163309 
L 147.877894 211.498903 
L 147.391532 212.965655 
L 144.490811 215.19723 
L 142.871154 215.984697 
L 138.172754 216.465228 
L 137.230282 216.301697 
L 136.201707 215.987213 
L 135.333701 215.846325 
L 134.468023 215.972118 
L 133.446429 216.455165 
L 132.106024 217.458996 
L 131.659222 217.642655 
L 129.634651 218.070353 
L 128.268648 217.745805 
L 126.625721 217.926948 
L 125.829855 217.750837 
L 124.638383 216.953307 
L 121.936629 215.972118 
L 121.4875 216.027467 
L 120.417037 216.372141 
L 119.283743 216.185967 
L 118.334289 215.496619 
L 116.779792 213.682677 
L 115.783796 213.121639 
L 114.601633 213.129186 
L 111.781197 213.82105 
L 111.748617 213.70532 
L 111.869626 213.496503 
L 111.848682 213.297749 
L 111.383264 212.965655 
L 111.122629 212.917853 
L 109.959083 213.202146 
L 109.530898 212.940496 
L 109.191143 212.462481 
L 108.171876 211.737911 
L 107.117703 210.507651 
L 106.452154 210.235937 
L 105.858746 209.325193 
L 104.599789 208.945296 
L 104.148333 208.416964 
L 101.202233 206.240737 
L 100.317938 205.777817 
L 99.154392 204.65574 
L 98.863505 204.708573 
L 97.725557 205.007962 
L 97.376493 204.927454 
L 96.350245 204.54001 
L 95.119213 204.311066 
L 94.002209 204.389058 
L 92.931746 204.701026 
L 90.611635 205.694794 
L 90.364963 205.249485 
L 89.827405 205.174009 
L 89.2945 205.450755 
L 88.293851 206.545157 
L 88.149571 206.942665 
L 87.153575 207.599307 
L 86.967408 207.898695 
L 86.606708 208.844662 
L 86.362364 209.131471 
L 85.789899 209.357899 
L 85.638638 209.596906 
L 84.935856 211.883831 
L 85.384985 212.638592 
L 84.849754 213.300265 
L 84.970762 213.775764 
L 84.863716 214.374541 
L 84.733399 214.613549 
L 83.4279 216.271506 
L 83.309218 217.136965 
L 83.686207 217.504282 
L 83.856085 218.00494 
L 83.271985 218.782343 
L 82.820529 219.167271 
L 82.580838 219.574842 
L 82.985752 220.319539 
L 82.927575 221.436585 
L 82.818202 221.844156 
L 82.396998 222.307076 
L 81.517357 222.737289 
L 81.594151 223.479471 
L 80.381736 225.162587 
L 79.939588 225.469523 
L 79.685935 225.79407 
L 79.315927 226.636886 
L 78.894723 227.275917 
L 78.508426 227.429385 
L 77.486832 227.21302 
L 76.772415 227.341329 
L 76.276744 227.741352 
L 75.515785 228.845819 
L 74.340603 229.952801 
L 73.447 230.347792 
L 72.211313 230.67234 
L 71.97395 231.155386 
L 71.066384 232.063615 
L 70.635872 232.936622 
L 69.912146 234.866293 
L 69.055776 236.149386 
L 67.920155 237.2614 
L 66.598366 238.056415 
L 65.176512 238.388509 
L 62.991372 238.403604 
L 61.681219 238.735699 
L 61.413604 238.992318 
L 61.385679 239.372214 
L 61.611406 240.934568 
L 61.518323 241.379877 
L 61.269324 241.810091 
L 60.852774 242.200051 
L 59.577528 243.045382 
L 59.067894 243.236588 
L 58.59084 243.229041 
L 57.252762 242.879335 
L 55.332911 242.831534 
L 54.225214 242.343455 
L 53.710927 242.252884 
L 52.680025 242.28559 
L 50.473941 242.796311 
L 49.52216 242.723351 
L 47.560421 243.271811 
L 46.862293 243.291938 
L 43.888269 242.640328 
L 42.98303 242.091868 
L 42.026595 241.701908 
L 40.769965 241.860408 
L 40.188192 242.159797 
L 39.138673 242.871788 
L 37.204859 243.868072 
L 37.142027 243.936 
L 37.028 243.691961 
L 36.797618 242.919589 
L 36.576544 242.652907 
L 35.969173 242.114511 
L 35.657342 241.442774 
L 35.305951 239.661539 
L 35.29897 238.929421 
L 35.789987 237.279011 
L 35.82722 236.717972 
L 35.722501 236.365751 
L 35.217522 235.560673 
L 35.150036 234.939253 
L 35.217522 234.23481 
L 35.606146 232.634717 
L 36.271695 232.154186 
L 36.583525 231.764227 
L 37.249074 230.551578 
L 38.549918 228.951485 
L 39.066533 228.083511 
L 39.483083 227.142576 
L 40.455807 225.801618 
L 40.534928 225.424237 
L 39.690194 223.962517 
L 39.6134 223.504629 
L 39.664596 221.753585 
L 39.46912 219.645286 
L 38.605769 217.821282 
L 38.475452 217.808702 
L 37.947201 218.025067 
L 37.961164 217.801155 
L 38.200855 217.333203 
L 37.505054 215.285286 
L 37.272345 215.096596 
L 36.697553 214.814818 
L 36.513712 214.565747 
L 36.511385 214.31416 
L 36.692899 213.519146 
L 36.518367 213.373225 
L 36.022696 213.249948 
L 35.952883 212.985782 
L 36.073892 212.812187 
L 36.567236 212.515314 
L 36.706861 212.276307 
L 36.525348 211.632244 
L 35.51539 210.749174 
L 35.557277 210.06989 
L 35.703884 209.684962 
L 36.37176 209.272359 
L 36.078546 209.018257 
L 35.873762 209.025804 
L 35.471175 209.232105 
L 35.247774 209.131471 
L 35.231484 208.8824 
L 35.368783 208.37671 
L 35.029027 208.421996 
L 34.828897 207.720068 
L 33.797995 207.18922 
L 33.653716 206.920022 
L 33.411698 205.971539 
L 33.083578 205.485977 
L 33.181316 205.166461 
L 33.265091 205.018025 
L 33.216222 204.789081 
L 33.069615 204.640645 
L 32.520421 204.290939 
L 32.476207 204.132439 
L 32.434319 203.495924 
L 31.582603 203.07829 
L 31.370838 202.748711 
L 31.568641 202.341141 
L 31.603547 201.983887 
L 31.359202 201.458071 
L 30.749504 200.509588 
L 29.804704 198.693131 
L 26.895839 196.328214 
L 24.945735 195.231295 
L 24.266224 195.14324 
L 24.017225 194.972161 
L 23.414508 194.297908 
L 22.248635 193.387163 
L 21.825104 192.72549 
L 21.282891 192.257538 
L 21.171191 191.860031 
L 21.101378 124.873766 
L 43.474046 124.873766 
L 43.762606 123.980632 
L 43.543859 35.261034 
L 55.202593 34.702511 
L 86.750988 28.367553 
L 88.717382 27.975078 
L 94.877196 27.424102 
L 95.728912 27.46184 
L 96.150115 27.726007 
L 96.25018 28.390196 
L 96.652767 28.541148 
L 96.715599 29.419186 
L 96.973906 29.786503 
L 97.232213 30.387796 
L 98.049023 31.464588 
L 98.172359 32.216833 
L 98.567965 32.317467 
L 98.805328 32.075944 
L 99.466222 32.785419 
L 99.587231 32.976625 
L 100.429639 33.268466 
L 100.648385 33.824473 
L 101.009085 34.247139 
L 100.818263 34.637098 
L 101.553624 35.459787 
L 101.763063 35.970509 
L 101.444251 36.48123 
L 101.644381 36.813325 
L 102.000426 37.85741 
L 102.177285 38.876337 
L 102.470499 39.127924 
L 102.868432 39.115345 
L 103.917951 38.642361 
L 104.450855 37.990751 
L 104.9186 37.905212 
L 105.253702 37.688847 
L 107.371356 35.318899 
L 107.725074 35.205685 
L 107.988036 34.931455 
L 108.669874 34.045869 
L 109.691467 33.225696 
L 109.76128 32.385396 
L 110.675828 31.786619 
L 111.087723 31.796682 
L 111.467039 31.464588 
L 112.286176 31.03689 
L 113.119275 30.292193 
L 113.940739 30.136209 
L 114.694717 29.567623 
L 115.774488 28.204022 
L 116.568026 27.793935 
L 117.017155 27.728523 
L 117.7339 27.871927 
L 118.327308 28.12603 
L 118.539074 27.959982 
L 119.179024 26.795135 
L 119.546705 26.417755 
L 119.877152 26.289446 
L 121.145417 26.427818 
L 121.422341 26.689469 
L 121.976189 27.627888 
L 122.229843 27.839221 
L 122.269403 28.216601 
L 123.037344 28.956266 
L 123.325903 28.883306 
L 124.589514 28.714743 
L 124.978139 28.178863 
L 125.131727 27.992689 
L 126.604777 26.266803 
L 127.379699 25.756081 
L 128.273302 24.75225 
L 128.866711 24.558528 
L 129.145962 24.135862 
L 129.606726 24.032711 
L 130.134976 23.574823 
L 132.764591 22.792388 
L 133.364981 22.294246 
L 133.225355 22.641436 
L 133.793166 23.116935 
L 134.135248 22.958435 
L 134.328397 23.245244 
L 134.612302 23.197443 
L 135.23829 22.792388 
L 135.452383 23.293046 
L 136.148184 23.270403 
L 136.890526 22.948372 
L 137.635196 22.176 
L 138.540435 22.188579 
L 140.018139 22.475388 
L 140.018139 22.475388 
" clip-path="url(#pfb0155b28c)" style="fill: none; stroke: #000000; stroke-width: 2"/>
   </g>
  </g>
 </g>
 <defs>
  <clipPath id="pfb0155b28c">
   <rect x="0" y="-0" width="253.216535" height="266.112"/>
  </clipPath>
 </defs>
</svg>
