<?xml version="1.0" encoding="utf-8" standalone="no"?>
<!DOCTYPE svg PUBLIC "-//W3C//DTD SVG 1.1//EN"
  "http://www.w3.org/Graphics/SVG/1.1/DTD/svg11.dtd">
<svg xmlns:xlink="http://www.w3.org/1999/xlink" width="357.12pt" height="241.3762pt" viewBox="0 0 357.12 241.3762" xmlns="http://www.w3.org/2000/svg" version="1.1">
 <metadata>
  <rdf:RDF xmlns:dc="http://purl.org/dc/elements/1.1/" xmlns:cc="http://creativecommons.org/ns#" xmlns:rdf="http://www.w3.org/1999/02/22-rdf-syntax-ns#">
   <cc:Work>
    <dc:type rdf:resource="http://purl.org/dc/dcmitype/StillImage"/>
    <dc:date>2024-02-02T21:58:00.224465</dc:date>
    <dc:format>image/svg+xml</dc:format>
    <dc:creator>
     <cc:Agent>
      <dc:title>Matplotlib v3.8.2, https://matplotlib.org/</dc:title>
     </cc:Agent>
    </dc:creator>
   </cc:Work>
  </rdf:RDF>
 </metadata>
 <defs>
  <style type="text/css">*{stroke-linejoin: round; stroke-linecap: butt}</style>
 </defs>
 <g id="figure_1">
  <g id="patch_1">
   <path d="M 0 241.3762 
L 357.12 241.3762 
L 357.12 0 
L 0 0 
L 0 241.3762 
z
" style="fill: none"/>
  </g>
  <g id="axes_1">
   <g id="PatchCollection_1">
    <path d="M 215.981629 20.616361 
L 217.008929 20.413555 
L 217.864227 20.727252 
L 218.875033 20.727252 
L 219.723262 20.944884 
L 220.298173 21.423435 
L 221.68597 21.866406 
L 222.94182 21.989157 
L 222.9913 22.616551 
L 226.235777 27.321414 
L 228.603749 28.981221 
L 232.748291 32.992274 
L 240.335229 45.200961 
L 240.808824 46.226852 
L 241.475626 50.191057 
L 241.362529 51.070477 
L 241.053868 51.748869 
L 240.210351 53.042795 
L 239.927608 53.706362 
L 239.941745 53.957201 
L 240.210351 54.827726 
L 240.243338 55.759329 
L 240.41534 56.049306 
L 240.719288 56.094374 
L 240.855948 56.432384 
L 240.255119 58.624705 
L 240.521368 59.664235 
L 240.017143 60.171843 
L 238.636415 61.783024 
L 238.372521 61.946099 
L 238.004955 62.010143 
L 237.267467 61.979307 
L 236.921107 62.117476 
L 236.544116 62.680233 
L 236.042247 65.600166 
L 236.101152 66.159958 
L 236.400389 66.627242 
L 237.008286 66.977705 
L 237.632677 66.927893 
L 238.47855 66.0971 
L 238.879103 66.116076 
L 239.046392 66.612417 
L 239.011049 67.411189 
L 238.730662 68.716382 
L 238.344247 69.34852 
L 237.404126 70.408211 
L 237.10489 71.005955 
L 237.093109 71.557445 
L 237.281604 72.171794 
L 237.627965 72.673472 
L 238.094491 72.885766 
L 238.431426 72.809862 
L 239.286724 72.22042 
L 239.706126 72.136214 
L 240.450683 72.332497 
L 241.089211 72.690076 
L 241.81963 72.674658 
L 242.552406 72.873906 
L 244.425578 72.411959 
L 245.867568 72.741074 
L 247.135199 72.611207 
L 248.480585 73.053585 
L 249.126181 72.945659 
L 251.505935 73.34119 
L 253.869196 73.114664 
L 254.281529 73.332888 
L 254.229693 73.659631 
L 253.810291 74.265677 
L 253.723112 74.593606 
L 253.885689 74.915605 
L 254.505367 75.403051 
L 254.618465 75.682354 
L 254.462956 75.899393 
L 253.310778 76.765766 
L 252.033722 78.913019 
L 251.760404 79.692814 
L 251.677937 80.440588 
L 251.901775 81.111864 
L 252.391863 81.689446 
L 253.617083 82.484066 
L 253.97758 82.623421 
L 255.313541 82.86833 
L 255.808342 82.893236 
L 256.4775 83.345695 
L 257.947764 82.83868 
L 258.734732 82.756253 
L 259.879841 83.783329 
L 260.59848 84.231044 
L 261.324187 84.254764 
L 262.924041 84.001553 
L 265.105875 84.296274 
L 265.829226 84.697143 
L 267.148693 84.847765 
L 267.876757 85.181624 
L 269.834752 86.987902 
L 270.05859 87.356748 
L 270.110427 88.17153 
L 270.576953 88.654826 
L 270.748955 89.233594 
L 273.05331 91.36958 
L 273.746031 91.626942 
L 275.65219 91.542736 
L 276.941027 92.390726 
L 277.162509 92.750085 
L 277.395772 93.475917 
L 277.857586 94.475715 
L 277.874079 94.811353 
L 277.7869 95.799291 
L 278.074355 96.800275 
L 277.973039 97.20233 
L 277.461745 97.650638 
L 275.956139 98.16299 
L 275.470763 98.626716 
L 275.456626 98.914914 
L 275.557942 99.286132 
L 276.045674 100.432994 
L 277.850517 101.511069 
L 278.203946 102.030537 
L 278.91316 102.360245 
L 279.094586 102.688767 
L 279.363192 103.682635 
L 279.610592 104.017087 
L 279.912185 104.234125 
L 281.191597 104.872193 
L 282.079882 105.550586 
L 282.673642 105.826924 
L 283.110716 105.675116 
L 283.48535 105.740346 
L 283.824642 105.95264 
L 285.210083 107.087642 
L 287.040844 107.6249 
L 287.778332 108.11709 
L 288.44749 108.208412 
L 288.807988 108.572514 
L 289.0601 108.636558 
L 289.627942 108.661464 
L 289.750464 108.851224 
L 289.752821 109.156026 
L 289.960165 109.527244 
L 290.301813 109.645844 
L 291.326757 109.743096 
L 291.70846 109.922183 
L 291.805064 110.103641 
L 291.965285 110.745267 
L 292.91483 111.212551 
L 293.600482 111.373847 
L 293.74421 111.709485 
L 293.805471 111.854177 
L 294.07172 111.928895 
L 295.096664 112.011915 
L 295.238035 112.530197 
L 295.318146 113.719755 
L 295.655081 114.306826 
L 296.180512 114.342406 
L 296.133388 114.748018 
L 296.581065 115.82965 
L 297.094715 116.148091 
L 297.867546 116.417906 
L 298.576759 117.307999 
L 300.671414 118.763815 
L 302.019156 119.266679 
L 303.119497 119.892887 
L 303.161909 120.662008 
L 302.989907 120.890906 
L 302.619985 121.586495 
L 301.896634 122.557237 
L 301.260462 123.651322 
L 300.817498 123.930625 
L 300.661989 124.199254 
L 301.093172 124.342167 
L 301.128515 124.68077 
L 300.949445 125.525795 
L 301.104953 125.999602 
L 301.357066 126.214861 
L 302.144034 126.610392 
L 302.521025 126.982797 
L 303.070017 127.712187 
L 303.498844 127.988525 
L 304.446033 128.191331 
L 304.806531 128.453437 
L 304.888998 129.596741 
L 305.101055 129.736096 
L 305.805556 129.810814 
L 306.104793 130.170765 
L 306.116574 130.608399 
L 305.90216 131.031209 
L 305.11048 131.574397 
L 304.288169 132.290741 
L 304.106742 132.736677 
L 304.186852 133.22353 
L 304.54735 133.119162 
L 305.468621 132.477536 
L 305.873886 132.59495 
L 306.312137 133.482671 
L 306.538332 133.895399 
L 306.894117 134.17826 
L 308.230078 134.642579 
L 308.962853 134.737459 
L 310.574489 134.661555 
L 312.611417 135.563509 
L 312.855282 135.868904 
L 312.987229 136.897166 
L 313.171012 137.304557 
L 313.701155 137.54235 
L 314.888676 137.418413 
L 315.105446 137.939067 
L 315.395257 138.33697 
L 315.873564 138.363062 
L 316.867877 138.11756 
L 317.112921 138.381445 
L 317.379171 139.033745 
L 317.800929 139.359302 
L 318.121371 139.817692 
L 318.333429 139.822436 
L 318.95782 139.677744 
L 320.121778 140.193654 
L 320.406878 140.990646 
L 321.184421 141.304343 
L 321.648591 141.959015 
L 321.88421 142.758972 
L 322.296544 143.148573 
L 322.204652 143.695913 
L 322.117473 144.183952 
L 322.374298 144.425303 
L 322.94214 144.236136 
L 323.250801 144.580669 
L 323.243733 145.208063 
L 322.270625 148.071068 
L 322.720658 150.419348 
L 323.70319 152.545254 
L 324.168538 153.12758 
L 326.094725 154.535362 
L 326.467003 155.438501 
L 327.36 156.213552 
L 325.969847 155.670364 
L 325.113371 155.528044 
L 324.181497 154.807549 
L 322.764248 154.511642 
L 319.952133 153.239657 
L 318.979025 153.170276 
L 317.925808 153.476857 
L 316.424913 154.36695 
L 315.110158 155.670364 
L 314.268998 156.974965 
L 313.842527 156.887201 
L 313.639894 156.662454 
L 313.335946 156.671942 
L 312.930681 156.939385 
L 312.782241 156.814855 
L 311.684255 155.71899 
L 311.359101 155.670364 
L 310.27054 155.670364 
L 309.492997 156.155438 
L 308.993484 156.055221 
L 308.856825 156.297758 
L 308.715453 156.297758 
L 308.534026 156.040989 
L 308.142899 155.986433 
L 307.72114 156.130532 
L 307.454891 156.46795 
L 307.299382 156.297758 
L 306.846993 156.617386 
L 306.352193 156.781647 
L 305.958709 156.747253 
L 305.004451 156.321478 
L 304.575624 155.443245 
L 303.406953 154.416762 
L 302.770781 154.716227 
L 302.556368 154.445226 
L 301.154433 154.371694 
L 300.713825 154.186085 
L 300.292067 153.881876 
L 300.124777 153.476857 
L 299.658251 153.633409 
L 299.658251 153.148928 
L 299.370796 153.266342 
L 299.224712 153.070059 
L 299.02208 152.365575 
L 298.951394 152.448595 
L 298.708706 152.66504 
L 298.397689 152.365575 
L 298.089028 152.501372 
L 297.464637 151.895325 
L 297.229018 152.293229 
L 296.885014 152.360831 
L 296.517448 152.223255 
L 296.672956 152.992969 
L 296.260623 152.871997 
L 296.109826 152.965691 
L 295.930756 153.243808 
L 295.353489 153.29362 
L 295.115513 153.476857 
L 294.818633 153.26397 
L 294.182461 152.66504 
L 293.654674 152.684016 
L 293.553358 152.906391 
L 293.558071 153.306666 
L 293.206998 153.152486 
L 292.806445 153.205856 
L 292.507209 153.467369 
L 292.46951 153.932874 
L 292.061889 153.585969 
L 291.593006 152.854207 
L 291.067576 152.836417 
L 290.768339 153.24618 
L 290.537432 153.368338 
L 290.202853 152.536952 
L 290.275895 152.223255 
L 290.174579 152.267137 
L 289.82115 152.365575 
L 289.766958 151.804596 
L 289.448872 151.659904 
L 289.241527 151.751226 
L 289.512489 151.895325 
L 289.298076 152.203093 
L 288.984702 152.226813 
L 288.409791 151.895325 
L 287.460246 150.956013 
L 286.821718 150.741347 
L 286.524838 150.485764 
L 286.091298 150.680268 
L 285.91694 150.723557 
L 285.591786 150.485764 
L 285.591786 150.342851 
L 285.905159 150.016108 
L 285.393866 150.023224 
L 285.207726 149.82279 
L 284.955614 149.232162 
L 283.85056 149.293834 
L 284.034343 149.702411 
L 283.002331 149.92953 
L 282.692491 149.646669 
L 282.645368 149.730875 
L 281.62278 150.293039 
L 281.12798 150.411046 
L 280.725071 150.172067 
L 280.489452 150.458486 
L 279.994652 150.709325 
L 280.28682 151.111972 
L 279.817937 151.262594 
L 279.532838 151.59586 
L 279.391467 152.058993 
L 279.353768 152.59388 
L 278.719952 153.58419 
L 278.873104 154.090019 
L 279.033325 154.183713 
L 279.483358 154.265547 
L 279.650648 154.416762 
L 279.667141 154.585174 
L 279.436234 155.423083 
L 279.04275 156.069453 
L 278.927297 156.867039 
L 278.717596 157.095937 
L 278.368879 157.187852 
L 277.369854 157.282732 
L 276.891547 157.617184 
L 275.228075 157.623114 
L 274.900565 157.424459 
L 274.655521 157.409041 
L 274.309161 157.794491 
L 274.005212 157.961717 
L 273.439726 158.941946 
L 272.629196 158.706525 
L 271.851652 158.274228 
L 270.748955 158.035249 
L 268.246679 159.288851 
L 267.77544 159.169658 
L 267.589301 159.110951 
L 267.396093 159.203459 
L 266.903649 159.67608 
L 266.649181 159.706323 
L 266.378219 159.445996 
L 266.001228 159.701579 
L 265.562976 159.730043 
L 263.82175 159.45667 
L 263.894792 159.218877 
L 264.198741 158.818602 
L 263.883011 158.587925 
L 262.938178 158.178755 
L 262.8133 157.911905 
L 262.815656 157.452923 
L 262.613024 157.237664 
L 262.325568 157.123808 
L 261.524463 156.939385 
L 261.385448 156.769787 
L 261.057937 156.155438 
L 260.014144 155.5233 
L 259.385041 155.370899 
L 258.861966 155.528044 
L 258.725307 156.289456 
L 258.411934 156.155438 
L 258.287055 155.957969 
L 257.943051 155.029924 
L 257.627322 155.361411 
L 257.292742 155.896297 
L 257.141946 156.392046 
L 257.38699 156.611456 
L 257.954832 156.730649 
L 257.994888 157.009952 
L 257.709788 157.323649 
L 257.30688 157.551361 
L 255.669326 157.761876 
L 255.396008 158.010343 
L 255.052004 159.140601 
L 255.009592 159.311978 
L 254.675013 159.445996 
L 254.519505 158.890948 
L 254.14487 158.727873 
L 253.685413 158.842322 
L 253.258942 159.118067 
L 252.389507 160.072204 
L 252.080846 160.006974 
L 251.378701 159.602548 
L 250.949874 159.667778 
L 250.558746 159.896083 
L 249.976766 160.385901 
L 248.405186 161.18408 
L 247.929236 160.801595 
L 247.686548 161.01211 
L 247.601725 161.497184 
L 247.728959 162.020803 
L 247.182323 162.018431 
L 246.051351 161.853577 
L 245.60603 162.123392 
L 244.312481 162.088405 
L 243.435978 162.715206 
L 242.931753 162.907338 
L 241.444996 163.179525 
L 240.56378 163.685947 
L 239.025186 164.16094 
L 237.646814 165.262735 
L 237.243905 165.41395 
L 236.711406 165.474436 
L 236.329703 165.653522 
L 236.075234 165.948243 
L 235.872602 166.618926 
L 235.853752 166.985993 
L 235.743011 167.153219 
L 235.559228 167.227344 
L 234.571984 167.079687 
L 233.766166 166.86087 
L 233.245448 166.782594 
L 232.837826 166.383505 
L 232.147462 166.212128 
L 231.850582 165.571688 
L 230.865694 164.938957 
L 229.956204 163.847243 
L 228.933616 164.363153 
L 228.375199 164.454475 
L 227.628286 164.029294 
L 227.084006 163.735759 
L 226.504382 163.562603 
L 225.594892 161.639504 
L 225.312149 161.61697 
L 224.176465 161.941341 
L 223.792406 161.885599 
L 223.438977 162.409811 
L 223.427196 162.690893 
L 223.728788 163.221035 
L 223.540293 163.448154 
L 223.038424 163.834197 
L 222.776887 164.46337 
L 222.399896 164.395175 
L 221.615284 164.01862 
L 221.231225 164.156196 
L 221.012099 164.490055 
L 220.57856 165.6215 
L 220.13324 166.150456 
L 219.808085 166.355041 
L 219.812797 166.626042 
L 219.980087 167.309178 
L 219.581891 168.136413 
L 219.202544 168.49162 
L 219.157776 169.277939 
L 219.030542 169.503279 
L 218.714812 169.662203 
L 218.229436 169.706085 
L 217.225699 169.674063 
L 216.818077 169.915414 
L 216.693199 170.473427 
L 216.85342 171.553873 
L 217.303453 172.195499 
L 216.987723 172.695991 
L 216.273797 173.1781 
L 215.606995 174.403239 
L 215.61642 174.661194 
L 215.762503 175.343737 
L 215.632913 175.571449 
L 215.126332 176.041105 
L 214.949617 176.397498 
L 214.544352 176.793029 
L 213.605493 177.421041 
L 212.946854 177.693797 
L 210.225452 177.833152 
L 208.03655 177.337403 
L 207.5229 177.009474 
L 206.768919 176.668499 
L 206.226995 176.126497 
L 205.784031 175.971131 
L 204.629497 175.748756 
L 203.345372 175.17236 
L 202.862353 175.264868 
L 202.169632 175.429129 
L 200.29646 175.24352 
L 199.00291 174.517688 
L 198.091064 174.510572 
L 197.322945 174.053962 
L 196.995435 174.013638 
L 196.220248 174.07531 
L 194.971466 174.034986 
L 192.782564 175.17236 
L 192.546944 175.066806 
L 191.849512 175.015808 
L 191.005995 174.546152 
L 189.580499 174.553268 
L 188.68279 174.233641 
L 187.478776 173.370826 
L 187.327979 173.208343 
L 186.790767 173.155566 
L 186.404352 173.305596 
L 186.090978 173.586085 
L 185.812948 173.951966 
L 185.607959 174.07531 
L 185.32286 174.095472 
L 184.745593 173.762799 
L 184.118846 173.667919 
L 183.935063 173.288991 
L 182.87242 172.679387 
L 182.248029 171.711018 
L 181.873395 171.639265 
L 179.682136 170.832785 
L 177.585126 170.382105 
L 176.692129 170.443777 
L 175.768502 171.005941 
L 175.221865 171.084217 
L 173.409954 171.084217 
L 171.466095 171.383682 
L 170.945377 171.26271 
L 170.478851 170.956129 
L 168.028411 168.648172 
L 167.795148 168.153017 
L 167.908245 167.713011 
L 168.273455 166.995481 
L 168.122659 166.523453 
L 167.752737 166.004578 
L 167.30506 165.58592 
L 166.732506 165.247317 
L 166.235349 164.16094 
L 165.443669 163.071599 
L 165.069034 162.907338 
L 164.595439 162.848038 
L 163.111039 162.28113 
L 162.668074 161.911691 
L 161.63135 160.628439 
L 161.195455 160.345577 
L 159.685136 159.758507 
L 157.807251 158.422478 
L 155.229577 157.787968 
L 154.989245 157.480201 
L 154.878504 157.123808 
L 154.037343 155.827509 
L 153.719258 155.611064 
L 152.682533 155.124804 
L 151.989813 154.981298 
L 151.32301 154.716227 
L 148.724131 154.662857 
L 147.885326 154.275035 
L 147.425869 154.362799 
L 146.70723 154.716227 
L 146.238348 154.766039 
L 144.756303 154.716227 
L 144.242654 154.844315 
L 143.905718 155.152082 
L 143.425055 155.827509 
L 141.389305 157.095937 
L 140.157017 157.786782 
L 139.379473 158.97634 
L 139.000127 159.066476 
L 137.951621 159.054616 
L 137.567562 159.203459 
L 136.493138 160.332531 
L 136.236313 160.870976 
L 135.925296 161.809695 
L 135.369235 162.351104 
L 135.183096 163.229337 
L 134.874434 163.559638 
L 134.059192 164.16094 
L 133.182689 165.57406 
L 132.591284 165.854549 
L 132.332103 166.525825 
L 131.55456 167.153219 
L 131.003211 167.935386 
L 129.83454 170.839308 
L 129.294972 171.593011 
L 128.55984 172.126711 
L 127.033028 172.588658 
L 126.57357 172.617715 
L 126.125894 172.529358 
L 125.704135 172.266659 
L 125.263528 172.232265 
L 124.815851 172.659225 
L 124.476559 173.262899 
L 124.365818 173.762799 
L 124.547245 174.154179 
L 125.313008 174.938125 
L 125.433173 175.375759 
L 126.248416 176.895618 
L 126.545296 177.794014 
L 126.861026 179.731938 
L 126.747928 181.745173 
L 126.587707 182.26227 
L 126.111757 183.048588 
L 126.074123 183.848579 
L 126.092907 184.602841 
L 125.640518 187.448056 
L 126.401568 192.793359 
L 125.400187 192.781499 
L 125.122156 192.50101 
L 124.759302 191.657171 
L 123.453972 189.704421 
L 122.883774 189.2318 
L 122.586894 189.247218 
L 121.917735 189.962376 
L 121.71039 190.050733 
L 121.064794 190.062593 
L 120.963477 190.158659 
L 120.782051 190.555377 
L 120.621829 190.551819 
L 120.228345 190.392895 
L 117.787331 190.543517 
L 117.650671 190.859586 
L 117.400915 191.776957 
L 117.137022 192.171895 
L 116.738825 192.553194 
L 116.260518 192.781499 
L 115.765718 192.71449 
L 115.466482 192.379445 
L 115.17667 191.46326 
L 114.776117 191.068915 
L 113.991505 190.806216 
L 113.195113 190.813332 
L 112.419925 191.023847 
L 111.425612 191.401588 
L 111.206486 191.319754 
L 110.280503 190.756997 
L 110.150913 190.854842 
L 108.847938 191.406332 
L 108.522784 191.341102 
L 107.752309 189.770244 
L 107.208029 189.549055 
L 106.55772 189.634447 
L 106.413992 189.552613 
L 106.039358 189.228242 
L 103.624261 189.363446 
L 102.700634 189.227649 
L 101.87361 188.862361 
L 100.926421 188.090868 
L 100.497594 187.967524 
L 100.309099 187.563098 
L 99.786024 187.48245 
L 99.069742 187.899329 
L 97.88929 188.511305 
L 96.946813 189.542532 
L 96.11979 189.602425 
L 95.238574 189.372934 
L 94.908707 189.494499 
L 93.820146 190.386965 
L 93.492636 190.435591 
L 92.26506 190.493705 
L 91.339076 190.783682 
L 90.519121 190.794356 
L 89.98191 191.079589 
L 89.534233 191.387356 
L 88.424467 191.38024 
L 88.007421 191.044009 
L 87.783583 191.025033 
L 86.942422 191.060613 
L 86.310963 190.850098 
L 85.976383 190.883306 
L 85.964602 191.509514 
L 85.516926 191.737819 
L 85.036263 191.765097 
L 82.69892 191.259268 
L 82.17349 191.293662 
L 81.103778 191.606173 
L 80.170726 192.224079 
L 79.468581 193.079778 
L 79.103371 194.103889 
L 78.900739 196.022838 
L 78.33054 197.466793 
L 78.316403 198.030143 
L 78.186813 198.522333 
L 77.138307 200.145968 
L 77.121814 200.712876 
L 77.715574 202.181144 
L 77.564778 203.005415 
L 76.683562 204.709697 
L 76.74718 205.723727 
L 77.555353 206.941749 
L 77.449325 207.494426 
L 71.009852 221.261517 
L 70.623437 221.019573 
L 70.696479 220.235627 
L 70.310063 219.922522 
L 70.156911 219.047254 
L 69.101337 217.268254 
L 69.06835 217.082052 
L 68.967034 215.805916 
L 68.585331 214.972157 
L 68.606536 214.460991 
L 69.06835 213.234667 
L 69.00002 212.766197 
L 68.648948 211.965647 
L 68.585331 211.497177 
L 68.837443 210.901804 
L 69.044788 210.589886 
L 68.493439 210.509238 
L 67.953871 210.549562 
L 67.878473 210.3515 
L 67.894966 210.030094 
L 67.807787 209.249706 
L 67.89261 208.644846 
L 68.507576 208.025754 
L 68.696072 207.483752 
L 68.632455 206.875333 
L 67.788938 205.120053 
L 67.124492 204.219879 
L 66.665034 204.106023 
L 66.019438 204.174811 
L 65.878066 203.939983 
L 65.387978 202.337696 
L 65.008631 201.860924 
L 64.565667 201.489706 
L 64.195745 201.361618 
L 63.12839 201.432778 
L 62.746687 201.246576 
L 61.990349 201.422104 
L 61.639277 201.259622 
L 47.634072 186.318984 
L 45.664296 183.407353 
L 44.321266 180.188548 
L 44.712394 180.187362 
L 45.819804 180.423376 
L 46.265124 180.329682 
L 47.65999 179.78175 
L 48.107667 179.588432 
L 48.05583 179.338779 
L 47.780156 179.14724 
L 46.979051 178.940876 
L 46.757569 178.296285 
L 46.413565 178.163453 
L 46.067204 178.207335 
L 45.808023 177.992076 
L 45.654871 177.376541 
L 45.619528 176.070755 
L 45.183632 174.052776 
L 44.834916 173.40522 
L 43.897152 172.117223 
L 43.590847 171.301848 
L 43.319885 171.136994 
L 42.323215 170.78238 
L 38.706461 168.27814 
L 37.886506 167.476404 
L 37.283321 166.511593 
L 36.986441 165.425217 
L 36.828576 163.684168 
L 36.703698 163.145131 
L 36.903974 162.32857 
L 36.922823 162.096707 
L 36.470435 159.651174 
L 36.253665 159.195157 
L 36.307857 158.580809 
L 35.96621 157.904789 
L 35.985059 157.474271 
L 36.147636 156.625688 
L 36.04632 155.737966 
L 35.952072 154.060369 
L 35.53267 153.057606 
L 35.167461 152.69469 
L 34.69151 152.460455 
L 33.708978 152.131339 
L 33.235383 151.828316 
L 32.782994 151.167714 
L 32.969133 151.111972 
L 33.233027 150.869435 
L 33.560538 150.074222 
L 33.716046 149.678691 
L 34.137805 148.940999 
L 34.144873 148.762506 
L 34.446466 148.655766 
L 34.547782 148.393067 
L 34.599618 147.356502 
L 35.007239 146.469374 
L 35.002527 145.49211 
L 34.385205 143.876185 
L 34.446466 143.518605 
L 34.851731 142.479669 
L 35.318257 140.898138 
L 35.158036 140.433226 
L 35.007239 137.985321 
L 34.677373 137.562512 
L 34.564275 137.101158 
L 34.262683 136.643955 
L 33.982296 136.626165 
L 33.364974 137.007464 
L 33.028038 137.045416 
L 31.922984 136.960024 
L 31.54835 136.706813 
L 30.7873 135.220162 
L 29.997975 134.446296 
L 29.76 133.990279 
L 29.997975 133.648118 
L 30.10636 133.62677 
L 30.464501 133.80467 
L 30.714258 133.41329 
L 30.795993 133.070321 
L 30.747244 132.864765 
L 31.57898 132.072517 
L 31.922984 131.969928 
L 32.92201 130.89126 
L 33.126998 130.5236 
L 34.071831 130.530716 
L 37.683873 128.67937 
L 38.767722 127.157139 
L 38.812489 126.654274 
L 38.763009 125.852538 
L 39.335564 125.067999 
L 42.188912 118.584729 
L 42.49993 118.230114 
L 42.869852 117.978682 
L 44.51683 117.058939 
L 44.691188 116.737533 
L 45.075248 115.69326 
L 45.558267 114.733786 
L 46.309892 112.746049 
L 46.832967 110.895889 
L 47.287712 110.379979 
L 47.810786 110.136849 
L 48.065255 109.668378 
L 47.982788 108.118276 
L 48.833374 106.25507 
L 49.686315 105.526865 
L 51.439322 104.541299 
L 52.600925 103.578267 
L 52.921367 103.068287 
L 53.595238 102.991197 
L 53.644718 102.688767 
L 53.201754 102.277225 
L 53.291289 101.916681 
L 54.695579 99.926572 
L 55.482547 100.180376 
L 56.311927 100.233746 
L 57.973042 100.00722 
L 58.969711 100.086682 
L 60.143095 101.180174 
L 61.017242 101.480233 
L 61.827772 101.424491 
L 65.230113 100.568198 
L 66.306893 99.785438 
L 67.126848 98.741758 
L 68.012776 98.366982 
L 69.461834 98.177222 
L 70.234665 97.910372 
L 71.250184 97.85463 
L 72.97256 96.786043 
L 74.980036 96.501403 
L 75.258066 96.314015 
L 75.352314 95.992609 
L 75.349958 94.433019 
L 75.467767 93.951503 
L 75.814128 93.665677 
L 76.266516 93.771231 
L 76.497423 93.842391 
L 76.806084 93.756999 
L 76.949812 93.583843 
L 77.37157 92.753642 
L 78.134977 92.237732 
L 79.035042 91.96851 
L 79.070385 92.576928 
L 78.947863 93.276669 
L 79.049179 93.696513 
L 79.296579 94.040453 
L 79.904477 94.411671 
L 80.323879 94.557549 
L 80.502949 94.763913 
L 80.618403 95.082947 
L 80.429908 95.833685 
L 80.528868 96.338921 
L 80.764487 96.589167 
L 82.18527 97.114566 
L 82.708345 97.52848 
L 83.549506 98.473722 
L 84.049018 99.30748 
L 84.362392 99.516216 
L 85.108006 99.323417 
L 85.667722 98.912542 
L 85.992877 98.911356 
L 85.95989 98.618414 
L 85.839724 98.35868 
L 86.014082 97.90207 
L 86.25677 97.604384 
L 86.60313 97.411066 
L 87.491415 97.153704 
L 88.473947 97.001895 
L 88.912198 97.046964 
L 89.267983 96.634235 
L 89.513027 96.612887 
L 90.212816 96.731487 
L 90.283502 96.627119 
L 90.25994 96.432615 
L 90.363613 96.221507 
L 90.676986 95.949913 
L 91.381488 96.241669 
L 91.647737 96.381617 
L 91.975248 96.171695 
L 92.4135 95.753037 
L 93.624582 94.398625 
L 94.135876 94.302559 
L 94.355002 93.617051 
L 95.04301 93.051329 
L 98.11784 91.957836 
L 98.579654 91.669638 
L 98.87889 91.320954 
L 99.95567 91.644732 
L 100.228988 91.468018 
L 100.431621 90.94855 
L 100.806255 90.678142 
L 103.002226 90.12428 
L 103.473465 89.473166 
L 103.911716 89.328474 
L 104.821206 89.324916 
L 107.954942 89.855058 
L 108.902131 89.89301 
L 109.792771 89.731714 
L 111.602327 89.049764 
L 113.727612 88.544528 
L 123.708441 88.281235 
L 125.555695 87.886297 
L 126.208361 86.916742 
L 126.224854 85.803088 
L 126.679599 84.908251 
L 127.454786 84.222742 
L 128.423181 83.737075 
L 130.159694 83.078252 
L 130.656851 82.641211 
L 131.611109 81.186582 
L 132.669039 80.065811 
L 133.107291 79.067792 
L 135.385728 76.463929 
L 136.316424 74.626814 
L 136.780594 74.360557 
L 137.004432 74.001792 
L 137.748989 73.491812 
L 137.287175 72.964635 
L 136.236313 72.23821 
L 136.028969 71.871736 
L 133.034249 70.506649 
L 132.706738 69.596394 
L 132.332103 69.802165 
L 131.9504 69.49084 
L 131.948044 69.153423 
L 132.473475 68.377186 
L 132.881096 68.461985 
L 133.043673 68.357024 
L 133.291073 67.832219 
L 133.470144 67.793674 
L 134.429114 67.194743 
L 134.907421 66.73161 
L 135.418715 66.374031 
L 136.302287 65.938769 
L 137.211777 65.684372 
L 137.965758 65.869981 
L 138.158966 65.835587 
L 138.89881 65.948257 
L 139.014264 65.684372 
L 139.297007 65.571702 
L 141.193741 65.530192 
L 141.655555 65.816611 
L 141.867612 65.556284 
L 142.517921 65.884213 
L 143.340232 66.02594 
L 143.641825 65.961303 
L 144.515972 65.63456 
L 144.725673 65.739521 
L 146.678956 65.817797 
L 146.803834 65.832029 
L 147.020604 65.713429 
L 147.543678 65.728847 
L 148.212837 65.453102 
L 148.907914 65.307817 
L 149.511099 65.713429 
L 149.883377 65.546796 
L 151.082679 65.470892 
L 151.195776 65.365931 
L 151.945045 65.086628 
L 152.208938 65.07121 
L 153.283362 64.861288 
L 155.19659 64.9704 
L 155.486401 64.84587 
L 155.766788 64.445002 
L 156.168423 64.581238 
L 156.426522 64.522685 
L 157.180503 64.102841 
L 157.557494 64.093353 
L 157.873224 63.505097 
L 158.045226 63.594047 
L 158.125336 63.945103 
L 158.27142 63.974753 
L 158.398655 63.763052 
L 158.426929 63.505097 
L 159.282227 62.864656 
L 160.007934 62.955978 
L 160.019715 62.636351 
L 160.215279 62.565191 
L 160.582845 62.96428 
L 160.853807 63.23884 
L 161.240222 63.362777 
L 161.58187 63.260188 
L 162.564402 62.707511 
L 163.061559 62.94649 
L 163.575208 63.362777 
L 164.027597 63.263746 
L 166.341378 63.279164 
L 167.361609 62.747242 
L 167.637283 62.864656 
L 168.099097 62.378396 
L 168.699926 61.337681 
L 169.279549 61.140212 
L 169.411496 60.896489 
L 169.027437 59.817822 
L 169.965201 59.167894 
L 170.068873 58.653169 
L 170.276218 58.684598 
L 170.792224 58.939589 
L 172.943427 59.103257 
L 172.646547 58.163351 
L 173.579599 57.693102 
L 174.826025 57.209214 
L 174.995671 57.379405 
L 175.294907 56.899075 
L 175.419785 56.675514 
L 175.780283 56.533194 
L 175.999408 56.268123 
L 176.550757 56.4395 
L 176.699197 55.999494 
L 176.736896 55.420726 
L 176.899474 54.917269 
L 177.646387 54.502168 
L 178.718454 53.20587 
L 178.805633 52.962147 
L 179.613807 52.307475 
L 179.776384 52.021056 
L 180.129813 52.17998 
L 180.061483 51.806983 
L 179.962523 51.709731 
L 179.962523 51.553772 
L 180.285322 51.447032 
L 180.424337 51.155869 
L 180.516228 50.029168 
L 180.839027 49.407704 
L 180.968617 48.86926 
L 181.61657 48.404941 
L 182.182056 48.646292 
L 182.947818 48.177822 
L 182.947818 47.778733 
L 183.522729 46.539956 
L 184.969431 45.670617 
L 185.202694 44.992818 
L 186.698876 43.376893 
L 187.014606 43.575548 
L 188.253963 44.004287 
L 189.047999 43.701264 
L 189.7902 42.956456 
L 190.393385 42.027225 
L 191.580906 39.313063 
L 192.214721 38.48227 
L 192.938072 38.035148 
L 194.043126 38.160271 
L 195.475691 37.721451 
L 195.763146 37.365057 
L 196.220248 36.453616 
L 196.997791 36.061643 
L 196.938886 34.803297 
L 197.636319 33.632715 
L 197.447824 33.312494 
L 197.48081 33.006506 
L 196.856419 32.129459 
L 196.597238 29.960858 
L 196.988366 28.471241 
L 197.304096 28.254203 
L 198.267778 27.884764 
L 198.406794 27.722875 
L 199.502423 27.479152 
L 200.202212 27.754897 
L 200.39542 27.533115 
L 200.918494 27.037367 
L 202.014124 26.370242 
L 203.399564 26.025709 
L 203.644608 25.766568 
L 203.423126 25.285645 
L 203.9839 24.064064 
L 204.419795 23.874897 
L 206.691165 24.01781 
L 207.332049 24.351669 
L 207.638354 23.867781 
L 207.885754 23.147879 
L 209.080343 22.077514 
L 209.615199 22.23288 
L 211.05012 21.333299 
L 212.8691 20.805529 
L 213.505272 20.17339 
L 213.80922 20.114683 
L 214.775259 20.313338 
L 214.982604 20.114683 
L 215.500966 20.580781 
L 215.981629 20.616361 
L 215.981629 20.616361 
" clip-path="url(#pb7b821672d)" style="fill: none; stroke: #000000; stroke-width: 2"/>
   </g>
  </g>
 </g>
 <defs>
  <clipPath id="pb7b821672d">
   <rect x="0" y="-0" width="357.12" height="241.3762"/>
  </clipPath>
 </defs>
</svg>
