<?xml version="1.0" encoding="utf-8" standalone="no"?>
<!DOCTYPE svg PUBLIC "-//W3C//DTD SVG 1.1//EN"
  "http://www.w3.org/Graphics/SVG/1.1/DTD/svg11.dtd">
<svg xmlns:xlink="http://www.w3.org/1999/xlink" width="177.905037pt" height="266.112pt" viewBox="0 0 177.905037 266.112" xmlns="http://www.w3.org/2000/svg" version="1.1">
 <metadata>
  <rdf:RDF xmlns:dc="http://purl.org/dc/elements/1.1/" xmlns:cc="http://creativecommons.org/ns#" xmlns:rdf="http://www.w3.org/1999/02/22-rdf-syntax-ns#">
   <cc:Work>
    <dc:type rdf:resource="http://purl.org/dc/dcmitype/StillImage"/>
    <dc:date>2024-02-02T21:58:00.576544</dc:date>
    <dc:format>image/svg+xml</dc:format>
    <dc:creator>
     <cc:Agent>
      <dc:title>Matplotlib v3.8.2, https://matplotlib.org/</dc:title>
     </cc:Agent>
    </dc:creator>
   </cc:Work>
  </rdf:RDF>
 </metadata>
 <defs>
  <style type="text/css">*{stroke-linejoin: round; stroke-linecap: butt}</style>
 </defs>
 <g id="figure_1">
  <g id="patch_1">
   <path d="M 0 266.112 
L 177.905037 266.112 
L 177.905037 0 
L 0 0 
L 0 266.112 
z
" style="fill: none"/>
  </g>
  <g id="axes_1">
   <g id="PatchCollection_1">
    <path d="M 131.379001 28.287693 
L 131.546098 28.226015 
L 131.571958 28.595083 
L 131.659485 28.701391 
L 131.844485 28.67331 
L 132.339807 28.362911 
L 132.526796 28.523877 
L 132.602387 28.760061 
L 133.376204 29.263017 
L 133.945128 29.112582 
L 134.251472 29.218889 
L 134.382762 29.537813 
L 134.100289 30.174656 
L 134.323085 30.494582 
L 134.716955 29.953015 
L 135.063084 30.175659 
L 135.385342 30.868665 
L 135.719535 30.907779 
L 136.354104 30.760352 
L 136.5769 31.159507 
L 137.141845 33.646708 
L 136.950878 34.072942 
L 136.966792 34.324671 
L 137.052329 34.336706 
L 137.213458 34.482127 
L 137.253243 34.374816 
L 137.495931 34.55935 
L 137.476039 34.867241 
L 137.740608 35.343621 
L 138.031038 36.987379 
L 137.969372 38.57297 
L 137.871898 39.131587 
L 138.05292 39.791497 
L 137.810232 39.90984 
L 137.969372 40.327048 
L 138.462704 40.662017 
L 139.156951 41.36405 
L 139.387704 41.330954 
L 139.715929 41.087248 
L 140.062058 41.050141 
L 140.420122 41.199574 
L 140.786143 41.516491 
L 140.621036 41.846446 
L 140.71453 42.263654 
L 140.867702 42.539453 
L 140.786143 42.926573 
L 140.983078 43.210395 
L 141.396841 43.707835 
L 140.764261 43.880335 
L 140.977111 44.384795 
L 141.054691 44.569329 
L 140.642917 45.052729 
L 140.815982 45.844019 
L 141.042756 46.001475 
L 141.370981 46.045603 
L 141.496304 46.254207 
L 141.969744 47.371441 
L 141.862325 47.569013 
L 141.442594 48.045392 
L 141.476411 48.125625 
L 141.705175 48.443545 
L 141.496304 48.549853 
L 141.299368 48.563894 
L 141.114369 49.356187 
L 141.170068 49.741302 
L 141.677325 50.956821 
L 142.2184 51.635787 
L 142.445174 52.263604 
L 142.188561 52.799155 
L 141.124315 54.112457 
L 141.000982 54.489548 
L 140.84582 56.164899 
L 141.03281 56.354447 
L 141.048724 56.550515 
L 140.919423 56.870943 
L 140.378348 57.820692 
L 140.243079 59.022672 
L 140.511627 62.66973 
L 141.355067 64.542151 
L 141.289422 65.020536 
L 141.048724 65.849937 
L 141.102433 66.580552 
L 142.71969 69.879603 
L 142.69184 70.18599 
L 142.498883 70.528481 
L 142.369583 71.479234 
L 142.61426 71.952604 
L 143.004152 72.093011 
L 143.555173 72.245954 
L 143.648667 72.337218 
L 144.03657 72.517239 
L 144.754688 73.879182 
L 145.192322 74.320961 
L 145.427053 75.588129 
L 145.635924 75.922598 
L 148.287588 78.377705 
L 149.003716 79.396655 
L 149.268286 79.641865 
L 150.1535 80.410089 
L 151.436563 81.17731 
L 152.112907 81.39143 
L 152.946401 82.142103 
L 152.610218 82.242394 
L 148.291566 83.298451 
L 147.205438 83.327535 
L 143.970925 82.281507 
L 142.827109 82.23437 
L 141.772809 82.382299 
L 140.469853 83.081824 
L 139.881036 83.0392 
L 138.759102 82.771927 
L 137.873888 82.739834 
L 135.456954 83.49151 
L 134.685127 83.451394 
L 129.065509 82.063877 
L 123.927288 82.457516 
L 123.827825 82.987049 
L 122.89288 84.844928 
L 122.290139 85.667309 
L 120.716645 87.032762 
L 119.546969 88.714129 
L 119.578797 89.002966 
L 121.289548 90.341842 
L 126.771909 96.661136 
L 126.960887 97.494549 
L 127.314973 98.112839 
L 135.866739 104.997269 
L 136.354104 105.036383 
L 136.871308 105.048417 
L 137.137867 105.197349 
L 138.068834 105.94401 
L 138.293619 106.276473 
L 138.572113 106.445462 
L 138.854586 107.119413 
L 138.969962 107.66399 
L 140.833885 108.293311 
L 141.154154 108.679931 
L 141.965766 110.013792 
L 143.370173 111.488562 
L 146.481353 118.148342 
L 147.658986 122.309388 
L 148.317427 123.904005 
L 149.224522 124.572941 
L 149.638286 124.590994 
L 150.668715 124.815644 
L 150.65479 126.80039 
L 150.400167 127.952726 
L 149.880973 129.014801 
L 147.907642 131.72264 
L 147.832051 132.027523 
L 148.206029 132.37553 
L 148.080706 132.649323 
L 147.59533 132.696459 
L 147.483933 132.805776 
L 147.251191 133.240033 
L 146.344095 133.942065 
L 144.580055 135.018369 
L 144.143989 135.391261 
L 143.402001 137.150353 
L 143.443775 138.475189 
L 143.280657 138.673764 
L 142.663991 138.994693 
L 142.315873 139.680679 
L 142.013508 140.880151 
L 140.646896 144.255423 
L 140.499692 144.527209 
L 140.264961 144.725784 
L 138.796898 145.517577 
L 138.534317 145.817445 
L 136.125341 151.299816 
L 135.60018 152.184377 
L 135.689696 152.852311 
L 135.645933 153.066431 
L 135.450987 153.424467 
L 134.426525 154.597864 
L 131.681367 155.919189 
L 130.883679 155.913172 
L 130.422174 156.587625 
L 129.867175 157.136213 
L 129.576745 157.222964 
L 128.898412 157.960098 
L 128.932229 158.168702 
L 128.635832 158.687704 
L 128.53438 158.68971 
L 128.241961 158.555321 
L 128.041047 158.844659 
L 128.241961 159.230275 
L 129.188842 160.184036 
L 129.550885 161.141809 
L 129.867175 161.355929 
L 131.084593 161.396045 
L 131.605775 161.073612 
L 131.842495 161.088655 
L 132.097119 161.475274 
L 132.192603 161.865404 
L 132.471097 162.222939 
L 132.604376 164.966381 
L 132.339807 166.023441 
L 131.945936 167.20436 
L 132.069269 167.807105 
L 132.467119 168.570816 
L 132.471097 169.397209 
L 132.063302 170.468309 
L 131.997657 171.246061 
L 131.743033 171.336322 
L 131.737065 171.487259 
L 130.7504 173.323074 
L 130.593249 173.370211 
L 130.67083 173.581823 
L 130.975184 173.928828 
L 131.375023 174.18507 
L 132.606366 174.661449 
L 132.914699 174.968337 
L 133.268784 175.816292 
L 133.352333 176.257068 
L 133.356311 179.286839 
L 133.569161 179.638858 
L 133.595021 180.353427 
L 133.809859 180.778157 
L 134.07244 182.808033 
L 133.881472 183.625901 
L 134.008784 183.954352 
L 134.142063 185.426614 
L 134.392708 186.345274 
L 134.901955 187.161136 
L 135.594212 187.839098 
L 138.647704 189.956729 
L 139.717918 190.396001 
L 139.84523 190.592068 
L 140.101843 191.347756 
L 140.76824 192.17465 
L 141.235713 193.25578 
L 141.430659 194.428675 
L 141.460497 195.532872 
L 141.589798 196.053379 
L 141.808615 196.235406 
L 142.101034 196.198298 
L 142.391464 196.310624 
L 142.69184 196.982067 
L 143.254797 197.030207 
L 143.487538 197.192176 
L 143.531302 197.403287 
L 141.975712 198.030101 
L 141.281465 198.068212 
L 140.334584 197.910756 
L 141.468454 200.632636 
L 143.131464 203.094764 
L 155.100754 215.820104 
L 155.570216 215.881281 
L 156.00586 215.739872 
L 156.286344 215.903345 
L 157.11387 215.815089 
L 157.426182 215.923403 
L 158.120428 216.640479 
L 158.277579 217.018573 
L 158.653546 218.193976 
L 158.735105 218.276214 
L 159.385588 218.144834 
L 159.739674 218.394557 
L 160.147469 218.99329 
L 160.913329 220.992077 
L 160.754189 221.450404 
L 160.234996 221.973919 
L 160.163383 222.4854 
L 160.286717 223.584582 
L 161.207737 223.618681 
L 160.819834 224.385902 
L 160.873544 224.782049 
L 161.22763 225.855156 
L 161.138114 226.227233 
L 160.837738 226.892158 
L 160.897415 227.576138 
L 161.22763 228.384478 
L 161.255479 229.26603 
L 161.64935 230.151594 
L 162.216285 230.946896 
L 162.335639 231.605804 
L 162.671822 231.842489 
L 162.679779 232.004959 
L 162.540532 232.438214 
L 162.976176 232.729056 
L 163.079617 232.902558 
L 162.920478 233.114171 
L 162.146661 233.69786 
L 161.788597 233.353864 
L 161.398705 233.285667 
L 161.090372 233.475216 
L 160.728329 234.807573 
L 160.861609 235.157085 
L 160.77806 235.450936 
L 160.557254 235.564264 
L 160.585103 236.000527 
L 160.654727 236.32296 
L 160.308598 236.923699 
L 160.404082 237.744074 
L 160.688544 237.949669 
L 161.032684 238.535866 
L 161.681178 240.233782 
L 162.142683 242.378491 
L 162.081016 242.683875 
L 161.874134 242.776142 
L 161.291286 242.683875 
L 160.425964 243.936 
L 159.504943 242.611666 
L 159.504943 241.815862 
L 159.134943 241.580681 
L 158.904191 241.575667 
L 158.705266 241.68398 
L 157.714622 241.327448 
L 157.654945 241.021061 
L 157.191451 241.23468 
L 156.962687 241.243706 
L 156.501182 240.560729 
L 156.041667 240.256347 
L 155.287743 239.949459 
L 154.412475 238.92048 
L 153.722206 238.752995 
L 153.437744 238.551913 
L 151.609628 238.346819 
L 149.129039 237.700448 
L 148.287588 237.817286 
L 146.916998 238.534864 
L 146.328181 238.756004 
L 146.336138 238.711375 
L 145.639902 238.326761 
L 145.64587 238.137714 
L 145.629956 237.741066 
L 145.369365 237.468777 
L 144.609473 237.166903 
L 144.332968 236.624333 
L 143.927162 236.462865 
L 143.368184 236.662443 
L 142.753507 236.436288 
L 142.500873 237.008445 
L 142.101034 236.901635 
L 141.597755 237.533966 
L 141.275498 237.632251 
L 141.048724 237.28675 
L 140.674745 237.409104 
L 140.378348 237.322855 
L 139.276306 236.563155 
L 139.123134 237.029506 
L 138.946091 237.118764 
L 138.528349 237.166903 
L 137.764479 237.107732 
L 137.844049 236.631353 
L 138.050931 236.088782 
L 137.674963 235.829532 
L 137.613297 235.638478 
L 137.082168 234.981577 
L 136.950878 235.100922 
L 136.913082 235.578304 
L 136.777813 235.758325 
L 136.491362 235.829532 
L 135.246094 235.869648 
L 135.242116 235.298996 
L 134.585665 235.298996 
L 134.70502 235.251859 
L 134.981525 235.034731 
L 134.462332 234.755422 
L 134.323085 234.825625 
L 134.454375 235.298996 
L 134.169913 235.183662 
L 133.521419 234.624543 
L 132.835129 234.54732 
L 132.998247 234.239428 
L 132.538731 234.03283 
L 131.902173 233.316757 
L 131.406851 233.179359 
L 131.134324 233.653733 
L 131.116421 233.999734 
L 130.943356 234.060911 
L 129.425562 234.387858 
L 128.920294 234.667668 
L 128.645778 234.606491 
L 127.971424 234.085984 
L 126.752016 233.919502 
L 125.725566 234.273527 
L 107.00975 234.106042 
L 107.001793 232.75814 
L 106.530341 232.268723 
L 106.015127 231.962837 
L 105.298998 232.052096 
L 105.03045 231.842489 
L 103.906527 231.710106 
L 103.516634 231.938768 
L 102.94771 232.389071 
L 102.128141 232.49237 
L 101.280723 232.185482 
L 100.805293 232.373025 
L 99.695294 232.29179 
L 99.2318 232.352967 
L 98.961262 232.240642 
L 98.796155 232.477327 
L 97.976586 232.200526 
L 97.64836 232.107256 
L 97.184866 232.389071 
L 96.916318 232.560568 
L 96.526426 232.637791 
L 93.462988 232.075163 
L 93.156644 231.842489 
L 92.707075 231.947794 
L 91.300678 231.489467 
L 90.560679 231.438319 
L 89.500411 231.683027 
L 89.152293 231.611821 
L 88.282993 231.136445 
L 88.099982 231.158509 
L 87.497241 231.42829 
L 87.117295 231.48345 
L 85.993371 231.806384 
L 81.441977 231.627868 
L 79.971925 231.757242 
L 77.334185 231.761254 
L 76.34553 231.434307 
L 75.764671 231.002056 
L 75.253435 231.028131 
L 74.752145 231.207651 
L 69.613924 231.398203 
L 69.578117 231.574714 
L 69.697472 232.085192 
L 69.277741 233.344838 
L 69.168333 233.810186 
L 69.045 234.014778 
L 43.035615 233.953601 
L 41.484003 233.261597 
L 41.137875 233.132223 
L 40.204919 232.3991 
L 39.958252 232.091209 
L 39.978145 231.289889 
L 39.962231 230.926838 
L 39.741111 230.599434 
L 39.983893 230.248812 
L 40.118598 229.916354 
L 40.190649 226.306691 
L 40.773326 223.70546 
L 41.179007 222.588051 
L 41.246359 220.125805 
L 41.442151 219.242934 
L 41.738188 218.439032 
L 42.746908 216.844653 
L 42.790765 216.228696 
L 42.053021 213.397666 
L 41.714693 212.818035 
L 42.020128 212.788816 
L 42.240982 212.685367 
L 42.240982 212.554279 
L 41.733489 212.528219 
L 41.442151 212.288944 
L 41.31841 212.112054 
L 40.81405 211.156532 
L 39.38242 209.348147 
L 38.575758 208.642956 
L 36.710253 207.362872 
L 37.136296 207.268109 
L 37.606196 207.031993 
L 39.186628 205.816663 
L 39.611105 205.652408 
L 40.126429 205.638984 
L 39.51086 205.459724 
L 38.97204 205.67215 
L 38.47238 205.999081 
L 37.957055 206.169654 
L 36.639768 206.288897 
L 36.404817 206.17992 
L 36.310837 205.931958 
L 36.400118 205.666623 
L 36.710253 205.507106 
L 36.141673 204.142525 
L 34.966922 202.372045 
L 34.858845 201.917185 
L 35.544899 202.534721 
L 35.789248 203.109614 
L 36.367225 203.265182 
L 37.104969 203.254916 
L 36.910744 203.151467 
L 36.036729 202.789 
L 35.692135 202.111448 
L 35.748523 201.616314 
L 35.972509 201.152767 
L 36.306138 200.846369 
L 37.03605 201.502599 
L 37.433899 201.598151 
L 37.628125 201.122759 
L 38.524069 201.635267 
L 38.680702 201.917185 
L 38.796611 201.507337 
L 38.561661 201.122759 
L 38.622748 201.114073 
L 38.824805 201.122759 
L 37.494987 200.543129 
L 37.368113 200.183031 
L 37.617161 199.922434 
L 38.658773 199.660258 
L 39.062888 199.567075 
L 38.993969 199.360966 
L 39.064454 199.342013 
L 39.064454 199.242513 
L 37.14726 199.574182 
L 36.56615 199.519693 
L 36.263847 199.186445 
L 36.356261 198.69289 
L 36.667962 198.246717 
L 37.355583 197.760269 
L 38.188873 196.484923 
L 38.834203 196.091659 
L 38.874928 195.783681 
L 38.199837 196.186421 
L 37.759697 196.5939 
L 37.759697 196.195898 
L 37.418236 196.456495 
L 36.447108 197.797384 
L 35.502608 198.164589 
L 35.11729 198.091148 
L 35.121989 197.652871 
L 34.858845 197.918207 
L 34.487623 197.722364 
L 34.139897 197.365425 
L 33.947238 196.918462 
L 34.056881 196.461233 
L 33.784339 196.168258 
L 33.561919 196.255124 
L 33.068524 196.9232 
L 33.30504 197.095352 
L 33.674695 197.254869 
L 33.89085 197.806071 
L 34.600399 198.621818 
L 34.332556 198.990602 
L 33.530593 198.59339 
L 33.019967 197.797384 
L 32.61272 197.901623 
L 32.481148 198.254613 
L 33.139009 198.726057 
L 33.135876 199.124849 
L 33.019967 199.586027 
L 33.076355 199.734488 
L 33.530593 200.050363 
L 32.979243 200.246206 
L 31.923533 200.274635 
L 30.390091 199.758969 
L 30.175503 199.096421 
L 30.272616 198.379384 
L 30.62974 197.797384 
L 30.153574 197.905572 
L 29.824644 198.56733 
L 29.169916 199.176969 
L 28.407111 199.110635 
L 28.405544 198.259352 
L 27.90745 198.01139 
L 26.726433 198.069827 
L 25.70205 197.419124 
L 23.797387 196.461233 
L 23.762927 195.913979 
L 24.12945 194.750769 
L 24.178006 194.196408 
L 23.587498 193.644416 
L 23.125429 192.992134 
L 22.7918 192.2443 
L 22.326598 189.479603 
L 22.42841 189.002632 
L 23.114465 187.679115 
L 22.437808 188.293492 
L 22.326598 188.017102 
L 22.45817 187.017357 
L 22.307802 186.876793 
L 21.886458 186.724383 
L 21.585722 186.191344 
L 21.264623 185.944961 
L 21.189439 186.197661 
L 21.786213 187.108171 
L 21.920917 187.548027 
L 21.808141 187.848108 
L 21.632712 187.92076 
L 21.476078 187.79283 
L 21.40716 187.486431 
L 20.47519 186.750443 
L 20.49242 187.203723 
L 20.749299 187.425626 
L 20.409404 187.956296 
L 19.897213 187.682274 
L 19.358393 187.330863 
L 19.041994 187.151604 
L 18.691135 186.09974 
L 17.832783 184.855192 
L 17.713742 184.089195 
L 17.397342 184.578012 
L 17.525781 185.141059 
L 17.81712 185.724638 
L 18.302683 187.525126 
L 18.896324 187.956296 
L 19.0138 188.458537 
L 18.609685 188.688336 
L 16.203795 188.870754 
L 15.98764 188.766515 
L 16.08162 188.525661 
L 16.532725 188.077118 
L 16.086319 187.964982 
L 15.934385 188.069221 
L 15.813777 188.486176 
L 15.447255 188.547772 
L 15.220136 188.486176 
L 14.925665 188.188464 
L 14.82542 187.724917 
L 14.9194 187.377455 
L 15.220136 187.425626 
L 15.320382 187.175295 
L 15.730761 186.486687 
L 15.466051 186.682529 
L 15.223269 186.686478 
L 15.038441 186.520643 
L 14.944461 186.208717 
L 15.135554 185.686733 
L 15.47075 185.293469 
L 16.138008 184.752533 
L 16.06909 184.281879 
L 16.029931 184.05129 
L 16.138008 183.812804 
L 16.269581 183.957317 
L 16.236688 182.800424 
L 16.886983 182.272483 
L 16.696015 181.312704 
L 16.865101 181.015343 
L 17.390262 180.624712 
L 17.507628 180.273696 
L 18.729024 178.280927 
L 19.132841 177.174725 
L 19.699776 176.391959 
L 20.342302 176.161792 
L 20.48155 175.911568 
L 20.976872 173.068337 
L 20.79585 172.343237 
L 20.919184 171.873879 
L 21.460258 170.618745 
L 21.474183 169.034158 
L 22.417085 167.928958 
L 22.502623 167.460602 
L 22.305688 166.943104 
L 20.873431 165.357514 
L 21.020635 165.078706 
L 21.360796 164.825473 
L 21.698968 164.408767 
L 21.784505 163.921356 
L 21.372732 162.881345 
L 21.577624 162.56192 
L 22.257946 162.103593 
L 22.844773 161.456219 
L 24.018428 161.625208 
L 24.233267 160.687494 
L 24.5416 160.527029 
L 26.972458 157.806654 
L 29.612186 155.666959 
L 30.10353 154.974956 
L 30.915142 153.508711 
L 31.406486 153.339722 
L 31.953528 153.342731 
L 32.490625 153.016285 
L 33.073474 151.884509 
L 33.755622 151.48597 
L 34.917504 151.001452 
L 35.221859 150.702086 
L 35.671428 149.845606 
L 35.957879 149.603907 
L 36.762326 149.486673 
L 37.449814 149.482555 
L 37.708785 149.232839 
L 39.168522 144.586381 
L 39.528575 144.178199 
L 39.986102 144.211295 
L 40.734058 144.505647 
L 41.185617 144.315095 
L 46.349698 140.045735 
L 46.618246 140.102901 
L 46.775396 140.417813 
L 47.051901 141.845947 
L 47.252815 142.224042 
L 47.656632 142.539956 
L 48.187761 142.698415 
L 53.14496 142.627209 
L 53.236466 141.887066 
L 53.75168 141.214118 
L 53.942648 141.123857 
L 54.219153 138.90744 
L 54.736357 137.655817 
L 55.092432 138.113141 
L 55.195872 139.067905 
L 55.54399 139.345709 
L 56.051248 139.514197 
L 57.397967 140.231273 
L 58.979417 140.829003 
L 59.610008 141.258246 
L 59.924309 142.032487 
L 60.101352 142.916045 
L 60.487265 143.764 
L 61.101942 144.381788 
L 62.896242 144.711744 
L 63.552693 145.230245 
L 63.922692 146.010002 
L 64.012208 148.463104 
L 64.336455 149.961943 
L 64.714412 150.886119 
L 65.030702 151.179468 
L 65.547906 151.251677 
L 67.40984 151.10074 
L 67.763925 151.257694 
L 68.366667 151.00045 
L 68.995268 151.115783 
L 69.470698 151.002455 
L 69.964031 150.757245 
L 70.339998 150.404725 
L 70.867148 148.501214 
L 71.374406 148.088519 
L 72.134298 148.0128 
L 72.657469 147.71895 
L 73.113007 147.082607 
L 73.795318 145.258326 
L 73.845049 144.731802 
L 73.751554 144.383293 
L 73.202523 143.612561 
L 73.309942 143.092556 
L 73.65806 142.60013 
L 74.841661 141.508972 
L 76.027251 140.702637 
L 76.174455 140.357638 
L 76.677734 140.302479 
L 77.109401 140.243307 
L 77.254616 139.904326 
L 77.310314 139.729821 
L 77.596766 139.544284 
L 78.635152 138.66574 
L 79.112571 138.604563 
L 79.448753 138.730929 
L 79.633753 138.654708 
L 79.808807 138.214434 
L 79.570097 137.728026 
L 78.820152 136.907651 
L 77.592787 135.285956 
L 77.023863 135.085375 
L 77.521175 134.653124 
L 77.911067 134.285058 
L 79.104614 132.501896 
L 81.441977 130.211264 
L 81.955203 129.44304 
L 82.498267 129.011792 
L 82.573858 128.616648 
L 82.267514 127.069168 
L 82.458482 126.243778 
L 83.150739 124.981123 
L 85.062404 122.314403 
L 85.790468 121.551193 
L 85.899876 121.269377 
L 85.607457 118.97323 
L 85.716866 118.501865 
L 86.591346 117.130147 
L 86.649822 116.964415 
L 86.667725 116.578297 
L 86.361381 115.010759 
L 86.31364 114.127702 
L 86.462833 113.290278 
L 86.904445 112.660454 
L 87.324176 112.485448 
L 88.064176 112.610309 
L 88.469982 112.553144 
L 88.851917 112.166023 
L 89.120465 111.732769 
L 89.866432 111.151085 
L 89.800787 110.338232 
L 89.192078 108.957234 
L 89.995733 109.172356 
L 90.566646 109.0149 
L 91.030141 108.732583 
L 91.630893 108.763673 
L 92.535999 109.104159 
L 92.832397 109.032953 
L 94.803739 107.991939 
L 95.145889 107.61585 
L 95.736695 106.214293 
L 95.955512 106.106481 
L 96.970028 106.056335 
L 97.38578 105.482675 
L 97.600618 104.650265 
L 98.034274 100.992676 
L 97.895027 100.285128 
L 97.916908 99.501359 
L 98.302822 98.577183 
L 99.31137 96.645591 
L 99.384972 96.287053 
L 99.402875 95.518829 
L 99.060725 94.544508 
L 98.422177 94.394574 
L 98.684757 93.949285 
L 99.973788 93.304418 
L 100.186638 93.091301 
L 101.002228 92.169633 
L 102.335023 91.588952 
L 103.848838 91.355777 
L 105.102063 90.857334 
L 105.641149 89.480849 
L 105.736632 88.22371 
L 106.172277 86.451078 
L 106.353299 86.131653 
L 106.40104 85.820753 
L 106.19018 85.383989 
L 105.434267 84.492909 
L 105.402439 84.054139 
L 105.549643 83.660499 
L 106.003191 82.947936 
L 106.082761 82.487603 
L 105.77045 81.093066 
L 106.1126 80.431651 
L 106.755126 80.185439 
L 108.264963 80.021464 
L 109.076576 79.597737 
L 109.711145 78.995494 
L 110.059263 78.081347 
L 109.902112 77.208821 
L 110.331789 76.003331 
L 110.98824 72.340227 
L 111.710337 69.912699 
L 112.239476 68.794963 
L 115.910628 63.375774 
L 115.783317 62.639142 
L 115.868854 62.240989 
L 116.081704 61.907524 
L 116.392026 61.643259 
L 117.124068 61.221036 
L 117.354821 60.919664 
L 118.14654 59.334073 
L 118.783099 58.528241 
L 120.247184 57.203907 
L 120.839979 57.201901 
L 121.597881 57.419531 
L 123.344439 58.048853 
L 124.181911 57.728425 
L 124.526051 57.478201 
L 125.289921 56.831829 
L 125.960297 56.707469 
L 128.037069 54.930826 
L 129.580723 54.339614 
L 130.690722 53.466587 
L 132.01556 52.931037 
L 132.447226 52.111163 
L 132.666043 51.224596 
L 132.546688 50.343044 
L 131.768893 49.305039 
L 131.625668 49.218789 
L 131.219862 49.193717 
L 131.016959 48.789547 
L 131.106475 48.619053 
L 131.955882 47.366427 
L 132.62029 43.777035 
L 132.256258 42.939611 
L 132.218463 42.567534 
L 132.562602 42.342884 
L 132.518839 42.139294 
L 132.966419 40.521611 
L 133.481634 39.908837 
L 133.356311 39.517705 
L 133.127548 39.397356 
L 132.339807 39.595931 
L 132.214484 39.192764 
L 131.522227 38.738449 
L 131.14427 38.469671 
L 131.406851 38.337287 
L 131.406851 38.192869 
L 131.195991 38.103611 
L 130.487819 37.541985 
L 130.450024 37.362465 
L 130.549486 37.076638 
L 130.487819 36.879066 
L 129.962658 36.602264 
L 128.731316 36.304402 
L 124.478309 36.122877 
L 124.223685 35.969432 
L 124.034707 35.447923 
L 124.156051 34.482127 
L 124.02675 34.06893 
L 124.00089 32.56959 
L 121.836591 22.237177 
L 128.635832 22.176 
L 128.968036 22.38661 
L 130.358518 24.673731 
L 130.32868 25.068875 
L 130.020347 26.20366 
L 130.219271 26.484975 
L 131.154217 27.278773 
L 131.194001 28.183893 
L 131.379001 28.287693 
L 131.379001 28.287693 
" clip-path="url(#p951499a467)" style="fill: none; stroke: #000000; stroke-width: 2"/>
   </g>
  </g>
 </g>
 <defs>
  <clipPath id="p951499a467">
   <rect x="0" y="-0" width="177.905037" height="266.112"/>
  </clipPath>
 </defs>
</svg>
