<?xml version="1.0" encoding="utf-8" standalone="no"?>
<!DOCTYPE svg PUBLIC "-//W3C//DTD SVG 1.1//EN"
  "http://www.w3.org/Graphics/SVG/1.1/DTD/svg11.dtd">
<svg xmlns:xlink="http://www.w3.org/1999/xlink" width="268.780216pt" height="266.112pt" viewBox="0 0 268.780216 266.112" xmlns="http://www.w3.org/2000/svg" version="1.1">
 <metadata>
  <rdf:RDF xmlns:dc="http://purl.org/dc/elements/1.1/" xmlns:cc="http://creativecommons.org/ns#" xmlns:rdf="http://www.w3.org/1999/02/22-rdf-syntax-ns#">
   <cc:Work>
    <dc:type rdf:resource="http://purl.org/dc/dcmitype/StillImage"/>
    <dc:date>2024-02-02T21:58:00.625556</dc:date>
    <dc:format>image/svg+xml</dc:format>
    <dc:creator>
     <cc:Agent>
      <dc:title>Matplotlib v3.8.2, https://matplotlib.org/</dc:title>
     </cc:Agent>
    </dc:creator>
   </cc:Work>
  </rdf:RDF>
 </metadata>
 <defs>
  <style type="text/css">*{stroke-linejoin: round; stroke-linecap: butt}</style>
 </defs>
 <g id="figure_1">
  <g id="patch_1">
   <path d="M 0 266.112 
L 268.780216 266.112 
L 268.780216 0 
L 0 0 
L 0 266.112 
z
" style="fill: none"/>
  </g>
  <g id="axes_1">
   <g id="PatchCollection_1">
    <path d="M 31.607157 154.564918 
L 31.310103 154.797704 
L 30.973385 154.901434 
L 30.313206 155.031398 
L 30.145141 155.147723 
L 29.782933 155.264282 
L 29.408223 155.574309 
L 29.123722 155.652042 
L 28.864949 155.626549 
L 28.677124 155.412168 
L 28.915976 155.175113 
L 29.264786 154.903857 
L 29.652381 154.606719 
L 29.962862 154.567575 
L 30.558299 154.57956 
L 30.894784 154.630603 
L 31.12785 154.604425 
L 31.347959 154.565356 
L 31.607157 154.564918 
" clip-path="url(#pf377059c7f)" style="fill: none; stroke: #000000; stroke-width: 2"/>
    <path d="M 179.001979 22.176 
L 179.533677 22.329031 
L 179.668422 22.586111 
L 179.931843 22.58246 
L 179.865077 22.667342 
L 179.770391 22.823416 
L 180.027742 22.923205 
L 180.251104 22.823416 
L 180.89691 23.184849 
L 181.518437 23.716655 
L 181.679888 23.704485 
L 181.790355 23.546587 
L 181.650754 23.472657 
L 181.921459 23.500038 
L 181.949379 23.787846 
L 182.005219 23.767767 
L 182.183666 23.71483 
L 182.17881 23.985296 
L 182.437375 24.239638 
L 182.591543 24.02941 
L 182.862247 24.038537 
L 183.313826 24.591944 
L 183.333249 24.353118 
L 183.487416 24.21895 
L 183.872229 24.06531 
L 184.031253 23.914105 
L 184.32138 24.013286 
L 184.677059 24.357986 
L 184.959902 24.237204 
L 185.157771 24.229902 
L 185.267024 24.047665 
L 185.47946 24.109729 
L 185.438187 24.015415 
L 185.399342 23.71483 
L 185.517092 23.773851 
L 185.765946 23.750729 
L 185.887338 23.546587 
L 186.13255 23.769288 
L 186.209027 23.857517 
L 186.420249 23.843217 
L 186.528288 23.941486 
L 186.689739 23.787846 
L 186.8694 24.249982 
L 187.017498 24.189743 
L 187.011428 24.251199 
L 187.017498 24.438305 
L 187.070911 24.414574 
L 187.257854 24.357986 
L 187.344043 24.56578 
L 187.788338 24.817079 
L 188.699992 24.939687 
L 188.948846 24.840201 
L 189.226834 25.149914 
L 189.550951 25.366835 
L 189.941833 25.920546 
L 190.565788 26.02855 
L 191.590338 25.673506 
L 191.756645 25.80524 
L 191.92538 25.672289 
L 192.202154 25.672289 
L 192.484997 25.483358 
L 193.294682 25.557287 
L 193.941702 26.121647 
L 194.220904 25.992346 
L 194.545021 26.152679 
L 194.809655 25.86335 
L 194.97839 25.483358 
L 195.655758 24.814645 
L 196.429026 24.357986 
L 196.971648 24.200696 
L 197.472998 24.236291 
L 197.956138 24.411532 
L 199.193123 24.964634 
L 199.651985 25.040693 
L 200.348776 25.47058 
L 200.703241 25.508914 
L 200.978801 25.644299 
L 201.289564 25.762039 
L 201.310201 25.914461 
L 201.295634 26.50103 
L 202.037947 27.138102 
L 202.150234 27.508053 
L 202.598171 27.766046 
L 203.843654 28.01187 
L 203.997822 28.291463 
L 204.162915 28.974475 
L 204.404485 29.097691 
L 204.737099 29.029846 
L 204.945894 29.212692 
L 205.113415 29.709815 
L 205.041794 30.880822 
L 205.231165 31.354823 
L 205.7313 31.545275 
L 206.171347 31.86442 
L 206.571334 31.824565 
L 206.869958 31.851337 
L 206.916087 31.713518 
L 207.079966 31.679444 
L 207.279049 31.823348 
L 207.411367 31.805702 
L 208.016506 31.893018 
L 207.994049 32.225853 
L 208.018327 32.809379 
L 208.435916 33.434281 
L 208.553666 33.423329 
L 208.85654 33.149516 
L 209.124209 33.259345 
L 209.171552 33.487219 
L 209.715995 34.121248 
L 209.937536 34.280972 
L 210.40004 34.342124 
L 211.41245 34.22195 
L 211.808188 34.513409 
L 212.049758 35.038826 
L 212.59845 35.098152 
L 213.06581 34.737023 
L 213.687337 34.024501 
L 214.176547 33.991339 
L 214.397481 33.971259 
L 214.692464 33.510949 
L 215.352836 33.281859 
L 215.530069 33.039078 
L 216.121248 32.081949 
L 216.521842 32.000718 
L 216.724567 31.84647 
L 216.886018 31.89606 
L 217.055967 32.124542 
L 217.130016 32.616493 
L 217.550033 32.736666 
L 217.90814 32.688597 
L 218.722681 32.708068 
L 219.435252 32.53009 
L 219.52751 32.629879 
L 220.887101 33.513991 
L 221.900725 34.400537 
L 222.196315 34.357944 
L 222.449417 33.808493 
L 223.166844 33.810926 
L 223.57715 33.076195 
L 224.326139 32.339942 
L 224.576206 31.704391 
L 224.818991 31.369731 
L 224.844483 31.044197 
L 224.971945 30.485923 
L 225.400459 30.500526 
L 225.625641 30.690674 
L 225.881171 30.589972 
L 227.488402 31.140032 
L 228.088079 31.5614 
L 228.426763 31.525196 
L 228.914759 31.94778 
L 228.741169 32.304346 
L 228.824929 32.725105 
L 228.720532 33.078629 
L 228.713855 33.593397 
L 228.850421 34.026935 
L 229.167862 34.286448 
L 229.964801 34.318698 
L 230.524418 34.735198 
L 230.600895 35.092372 
L 230.440658 35.334544 
L 230.545662 35.588886 
L 231.217567 35.805198 
L 231.398441 36.023032 
L 231.846378 36.802182 
L 232.021182 36.913533 
L 232.783525 37.163007 
L 233.462106 38.656201 
L 233.566504 38.886508 
L 233.760731 38.953745 
L 234.524894 38.964697 
L 235.311515 39.218735 
L 236.70813 39.928519 
L 237.162137 39.934604 
L 237.511746 39.929128 
L 237.671984 40.23519 
L 237.94633 42.192345 
L 237.843146 43.026258 
L 238.068329 43.067026 
L 238.447679 43.000702 
L 239.157823 42.701942 
L 239.486188 42.703158 
L 239.932304 42.331685 
L 240.115606 42.197821 
L 240.376599 42.468896 
L 240.493135 43.048771 
L 241.181429 43.518817 
L 241.063678 44.126074 
L 241.203279 44.372201 
L 241.870935 44.021721 
L 242.026317 44.407797 
L 241.965621 44.875409 
L 242.105222 45.259964 
L 241.881861 45.728489 
L 241.310711 46.502771 
L 241.182642 46.771717 
L 240.998733 46.830739 
L 240.788118 47.247543 
L 240.079188 49.490985 
L 240.093756 49.716728 
L 240.23457 49.89136 
L 240.984773 50.460283 
L 241.255478 50.935501 
L 241.382939 51.401592 
L 241.365944 51.870725 
L 240.94957 52.802906 
L 240.728636 52.929469 
L 240.711641 53.107143 
L 239.963866 55.154656 
L 239.99907 55.801464 
L 239.688306 56.677666 
L 239.857041 56.728777 
L 240.796616 56.804228 
L 240.97142 57.491803 
L 241.384153 57.918952 
L 241.582022 58.009006 
L 241.920099 57.845326 
L 242.276385 57.143148 
L 242.712183 57.144973 
L 242.910052 57.272144 
L 243.60927 58.22258 
L 243.504873 58.304724 
L 243.736732 58.501261 
L 244.605899 58.566976 
L 245.173407 58.352185 
L 245.231068 59.107909 
L 245.320898 59.31053 
L 246.377741 60.135678 
L 246.276254 60.706065 
L 245.939998 61.316363 
L 243.391371 64.530016 
L 239.349622 67.802083 
L 236.725125 71.083276 
L 236.411934 71.256083 
L 236.031977 71.331533 
L 235.628955 71.314496 
L 235.289664 71.705136 
L 235.145814 71.858471 
L 234.607441 71.672887 
L 234.506078 71.723999 
L 234.11641 72.168793 
L 234.02051 72.645228 
L 233.871198 72.785785 
L 233.856631 73.710665 
L 233.500952 74.221783 
L 233.161054 74.7688 
L 233.046945 74.833907 
L 231.300114 75.342591 
L 230.723501 75.758787 
L 230.483145 76.344138 
L 230.547483 76.95322 
L 230.396956 78.190247 
L 230.643382 79.600689 
L 230.213873 80.308203 
L 229.458596 81.247218 
L 229.376656 81.500343 
L 228.959674 83.527777 
L 228.763019 83.57037 
L 228.538444 83.441373 
L 228.474106 83.574021 
L 227.855006 84.61451 
L 227.838011 84.81774 
L 227.987324 85.556427 
L 227.544243 87.412272 
L 227.050911 90.966613 
L 227.228623 91.406292 
L 227.241976 92.292229 
L 226.885084 92.596466 
L 226.988267 92.883665 
L 226.826815 93.052821 
L 226.67022 94.225958 
L 226.801323 94.933004 
L 226.738199 95.81164 
L 226.605882 95.969843 
L 226.258701 96.087887 
L 226.111816 96.401859 
L 226.072971 97.132028 
L 226.07115 97.480074 
L 226.29269 98.160348 
L 226.236243 99.573223 
L 226.426222 100.007673 
L 226.446858 100.767048 
L 226.495415 101.124831 
L 226.384948 101.816057 
L 225.923658 101.980345 
L 225.050849 102.740937 
L 224.705489 103.210678 
L 223.623279 103.325071 
L 223.487319 103.500311 
L 223.046666 104.319317 
L 222.337737 104.998373 
L 221.071617 107.594121 
L 221.097109 108.024921 
L 221.433366 110.296961 
L 221.18087 111.345969 
L 220.887101 111.804758 
L 220.482866 112.124815 
L 219.387909 112.503286 
L 219.123274 113.018054 
L 218.753029 113.308905 
L 218.027104 113.632613 
L 217.962766 114.193625 
L 218.166705 114.783844 
L 217.920279 115.120939 
L 218.068377 115.34364 
L 218.320873 115.529833 
L 218.399778 115.803646 
L 218.411917 116.796675 
L 219.006738 117.145939 
L 219.598524 117.302925 
L 219.932959 117.788487 
L 219.544505 117.947907 
L 219.443142 118.399394 
L 219.537221 118.597756 
L 220.225514 118.854532 
L 220.651601 119.921795 
L 221.22275 120.207777 
L 221.438221 120.849108 
L 222.244265 121.166732 
L 222.352911 121.340755 
L 222.389935 122.23156 
L 222.240016 122.31553 
L 222.111947 122.752414 
L 222.226056 123.767347 
L 222.426353 123.927984 
L 222.370391 123.979706 
L 222.048823 124.386774 
L 222.024545 124.73117 
L 222.219379 128.646088 
L 222.023331 129.999333 
L 222.234553 131.701842 
L 223.584433 133.664778 
L 223.975316 135.018023 
L 224.423252 138.481454 
L 224.310965 139.476917 
L 223.600214 141.417947 
L 223.367748 142.414627 
L 223.399917 143.401571 
L 223.640274 144.412246 
L 224.034798 145.372417 
L 224.94888 147.04937 
L 225.427165 148.953892 
L 226.56825 151.645779 
L 226.790398 152.635157 
L 226.679931 153.545433 
L 226.302402 154.208669 
L 225.423523 155.393976 
L 225.189236 156.141181 
L 225.219584 156.608489 
L 225.573442 157.926442 
L 225.912733 159.794456 
L 226.245347 160.349384 
L 227.042893 161.378921 
L 227.901135 163.408789 
L 228.272595 163.798212 
L 229.851906 164.996905 
L 231.491913 165.832947 
L 232.409637 166.595973 
L 234.098808 168.563777 
L 234.801061 169.65051 
L 235.683581 171.54408 
L 236.529684 174.912589 
L 239.035217 178.810471 
L 239.894673 180.89145 
L 240.176302 181.951411 
L 218.29538 185.353995 
L 218.337868 185.575479 
L 218.839217 186.622054 
L 218.780342 187.671062 
L 218.341509 188.682345 
L 216.84171 190.663535 
L 214.887905 192.575359 
L 213.797197 193.37611 
L 212.224563 194.208502 
L 211.99149 194.642952 
L 212.180255 195.073751 
L 213.670342 195.599472 
L 213.911913 195.89519 
L 214.095215 196.82007 
L 214.461819 197.149863 
L 214.737986 197.845956 
L 215.107624 197.837438 
L 215.029327 197.928709 
L 214.705817 198.078393 
L 215.179246 199.083591 
L 215.266041 199.866088 
L 215.544636 200.17641 
L 215.720654 200.282284 
L 215.748575 200.453874 
L 216.032632 200.818958 
L 215.815947 200.905361 
L 215.703053 201.114676 
L 215.588337 201.62336 
L 215.179246 202.638294 
L 215.266041 203.486506 
L 215.129475 204.885995 
L 214.545579 205.801139 
L 214.993516 206.318342 
L 215.209594 206.881788 
L 215.107624 207.316238 
L 215.235086 207.820054 
L 215.440239 208.377416 
L 215.306707 208.768056 
L 215.256937 208.878798 
L 215.306707 209.169648 
L 215.309135 209.331502 
L 215.752823 209.998389 
L 215.73158 210.504639 
L 216.06905 210.788188 
L 215.856614 211.244543 
L 215.441453 211.573119 
L 215.171962 211.655871 
L 214.363491 213.046842 
L 214.092787 214.460934 
L 213.80266 214.896601 
L 213.772312 215.394333 
L 213.444553 216.022277 
L 213.545308 216.906998 
L 213.400852 217.250177 
L 213.415419 217.646902 
L 212.925602 218.6521 
L 212.951701 219.125492 
L 212.650649 219.374966 
L 212.014554 220.4617 
L 212.145658 221.367109 
L 212.372661 221.834416 
L 212.614231 222.115531 
L 213.262465 224.331592 
L 213.593865 224.5117 
L 213.81662 225.266207 
L 214.095215 225.191973 
L 214.361063 225.411024 
L 214.537082 225.748118 
L 214.812642 225.592349 
L 214.971665 225.707959 
L 215.3322 226.26532 
L 216.156452 226.64014 
L 216.673582 226.672998 
L 216.776766 227.179248 
L 217.787962 228.074921 
L 217.946985 228.43392 
L 218.642562 228.817258 
L 218.947256 229.190861 
L 220.217017 231.28401 
L 220.386966 231.294963 
L 220.774207 231.1684 
L 220.901668 231.397186 
L 221.34657 231.164749 
L 221.633662 231.092949 
L 222.71041 231.131892 
L 223.17777 231.53105 
L 223.876988 231.583379 
L 224.755867 231.969151 
L 225.103048 232.044602 
L 225.240221 232.12127 
L 225.642029 231.991056 
L 225.801052 231.597982 
L 225.745212 231.386234 
L 225.240221 231.245068 
L 224.860871 230.612255 
L 225.347046 229.49023 
L 226.093 229.179909 
L 226.370988 228.979112 
L 226.681752 229.035092 
L 227.018615 229.307688 
L 227.218912 229.269963 
L 228.985167 228.578737 
L 228.986381 229.894257 
L 228.965744 243.534407 
L 228.78487 243.904359 
L 228.607637 243.936 
L 227.852579 243.927481 
L 226.950635 243.600123 
L 226.709065 243.248425 
L 226.66415 242.947839 
L 226.961561 242.717836 
L 226.956705 242.381959 
L 227.039252 242.294338 
L 227.336055 242.183596 
L 227.45684 241.850153 
L 227.319667 241.601896 
L 226.76005 241.47655 
L 226.343675 241.193001 
L 226.069329 241.178398 
L 225.798625 241.295225 
L 224.877259 242.075288 
L 223.217829 242.703233 
L 221.581464 243.647584 
L 221.031558 243.064666 
L 220.145396 243.118212 
L 219.718096 243.24234 
L 219.526296 243.200964 
L 218.823436 242.184813 
L 218.326942 240.273598 
L 217.878399 240.15312 
L 217.664142 239.704067 
L 217.537287 239.566552 
L 217.565814 239.099244 
L 217.358841 238.990936 
L 217.170076 238.439659 
L 216.962495 238.263201 
L 215.696376 236.76514 
L 215.147684 236.648313 
L 214.99473 236.748102 
L 214.710672 237.228796 
L 214.351352 237.301813 
L 214.227532 237.192288 
L 214.187473 236.582598 
L 213.419061 235.436233 
L 213.868818 234.634265 
L 213.748033 234.412781 
L 213.206625 233.736158 
L 212.816956 232.90255 
L 211.639453 231.958199 
L 211.185446 231.875446 
L 210.64161 231.910738 
L 210.033436 231.503061 
L 209.739667 231.577294 
L 209.393699 231.81825 
L 209.055016 231.488457 
L 208.989464 231.274275 
L 208.881425 231.209776 
L 207.366452 231.095383 
L 207.075111 230.336008 
L 206.168312 229.854097 
L 205.71734 229.917379 
L 205.365303 230.25569 
L 204.454256 230.3713 
L 203.602083 230.221615 
L 203.034166 229.62514 
L 202.219428 228.879323 
L 201.047994 225.845474 
L 198.856867 224.516568 
L 198.57281 223.490681 
L 198.54489 222.518341 
L 198.422284 221.98045 
L 198.14551 221.707854 
L 197.809254 221.834416 
L 196.385325 222.002355 
L 196.226908 222.170294 
L 196.233584 222.394212 
L 196.358618 223.207133 
L 195.769867 224.274395 
L 195.722524 225.238217 
L 195.491879 225.694572 
L 195.081574 226.087646 
L 194.628781 226.344422 
L 194.12986 226.450296 
L 193.280115 226.395534 
L 192.548121 226.969933 
L 191.477443 226.502625 
L 190.105712 226.303046 
L 189.230476 225.726213 
L 188.222921 225.861294 
L 187.861173 226.071826 
L 187.057557 225.976904 
L 186.31828 225.615471 
L 184.139292 225.622772 
L 183.932925 225.529068 
L 183.603953 225.041072 
L 183.352671 224.94615 
L 182.479862 224.314554 
L 182.030712 224.459371 
L 181.13848 224.415561 
L 180.317869 223.826559 
L 179.914848 223.572217 
L 179.284823 223.629413 
L 179.204704 223.859416 
L 178.258453 224.054128 
L 178.184404 223.893491 
L 178.26695 223.41158 
L 178.060584 223.232688 
L 177.229048 222.719137 
L 176.998403 222.609612 
L 176.667003 222.551198 
L 176.460636 222.250612 
L 176.112241 220.970384 
L 176.335602 220.559056 
L 175.880382 219.367665 
L 176.215424 218.91131 
L 176.095246 218.503632 
L 176.431502 218.329609 
L 176.403582 217.40838 
L 176.260339 217.283034 
L 175.890093 217.343882 
L 174.776928 217.893942 
L 174.075282 218.041192 
L 171.453213 218.301619 
L 170.580404 218.728767 
L 170.125184 218.826123 
L 169.239022 218.828557 
L 168.661195 219.13036 
L 168.207189 219.591583 
L 167.736188 219.786294 
L 167.379295 220.245083 
L 167.126799 220.24265 
L 166.386308 220.471436 
L 165.878889 220.336355 
L 165.218516 219.819152 
L 164.322642 219.690156 
L 164.223101 219.478407 
L 164.373627 219.353061 
L 165.009722 219.052475 
L 165.477081 218.276063 
L 165.528066 217.549546 
L 165.384823 217.241658 
L 165.118974 216.928903 
L 165.214874 216.649005 
L 165.354475 216.409266 
L 165.222158 216.169528 
L 164.586063 215.697352 
L 164.101709 215.553753 
L 163.434052 215.522112 
L 162.802814 215.389465 
L 162.329385 215.49899 
L 162.252908 215.352956 
L 162.25048 214.826018 
L 162.147296 214.351409 
L 162.211634 214.038654 
L 161.944572 213.786746 
L 160.887247 213.499546 
L 160.487867 213.48616 
L 160.266933 213.594468 
L 159.913682 214.448765 
L 159.481526 214.807764 
L 159.312791 215.182584 
L 158.917053 215.324967 
L 157.051257 215.071842 
L 156.660375 215.042635 
L 154.480173 214.5303 
L 154.004316 214.557073 
L 153.509036 214.697022 
L 151.43566 215.836084 
L 148.767462 216.196301 
L 148.081597 216.029579 
L 147.399373 215.6146 
L 147.118957 215.603647 
L 145.926887 216.129369 
L 145.024944 215.958996 
L 143.693273 215.42719 
L 143.263545 215.489254 
L 142.892085 216.431171 
L 142.550974 216.719588 
L 141.204735 217.230706 
L 140.469099 217.912196 
L 140.170475 217.928016 
L 140.33921 217.446105 
L 140.380483 216.950808 
L 140.166833 215.688834 
L 139.682479 214.899035 
L 139.682479 214.449982 
L 139.323158 213.251289 
L 139.799015 212.751124 
L 140.010237 212.600222 
L 141.1319 212.179158 
L 141.213233 211.394228 
L 141.021433 211.089991 
L 140.861196 209.45198 
L 140.597775 209.138008 
L 140.652402 208.64271 
L 140.98623 207.919844 
L 141.021433 207.418462 
L 140.850271 207.210364 
L 140.749515 206.855015 
L 139.976248 205.290021 
L 139.761384 204.753348 
L 139.785662 204.225193 
L 139.442123 203.084913 
L 139.257607 202.408291 
L 139.097369 202.222098 
L 138.234271 201.788865 
L 138.035188 201.747488 
L 137.21822 200.637633 
L 137.196369 200.256728 
L 137.123534 200.296888 
L 136.86861 200.410064 
L 136.702303 199.952492 
L 135.665615 198.714856 
L 135.543009 198.224427 
L 135.263807 196.711762 
L 134.95183 196.074081 
L 135.074436 195.831909 
L 135.149699 195.421798 
L 135.636481 194.192681 
L 135.640123 193.711987 
L 135.49688 192.527898 
L 135.637695 190.567396 
L 135.853773 189.348015 
L 136.41339 186.909253 
L 136.62704 186.532 
L 136.538424 186.524698 
L 136.395181 186.457766 
L 136.720512 185.033938 
L 136.62704 184.528905 
L 136.203382 183.773181 
L 136.359171 183.586668 
L 136.446166 183.539527 
L 136.32963 183.321693 
L 135.89019 182.775284 
L 135.631625 181.355107 
L 135.207967 180.805047 
L 135.025879 180.146678 
L 134.542738 179.843659 
L 134.489326 179.634344 
L 134.494181 178.7192 
L 134.702976 178.349248 
L 134.683553 177.390293 
L 135.665615 174.347926 
L 135.617058 173.812469 
L 135.719028 173.354897 
L 135.591566 173.120026 
L 135.665615 172.941135 
L 135.567287 172.707481 
L 135.44104 172.427583 
L 135.528442 172.246258 
L 134.853502 171.227674 
L 131.654821 171.230108 
L 120.002395 171.262965 
L 120.048524 169.576276 
L 121.070646 166.901427 
L 117.544206 167.008518 
L 117.396108 167.355348 
L 117.345123 167.913927 
L 108.272279 167.913927 
L 108.516277 168.50658 
L 108.441014 168.696424 
L 107.980938 169.324368 
L 107.865616 169.702839 
L 107.774572 171.984615 
L 107.865616 172.388641 
L 108.177593 173.171138 
L 108.17031 173.536222 
L 107.648324 174.026652 
L 107.525718 174.487875 
L 107.356983 174.664332 
L 107.131194 174.716661 
L 106.320295 174.650946 
L 106.29723 174.958833 
L 106.622561 176.179431 
L 106.580074 176.487319 
L 106.030167 178.472159 
L 106.066585 178.773962 
L 106.319081 179.689106 
L 99.485921 179.689106 
L 99.230997 179.264392 
L 99.071974 178.868884 
L 96.321229 178.967457 
L 96.360075 179.636778 
L 95.141298 179.673286 
L 94.703073 179.86313 
L 94.551333 179.853394 
L 94.111893 179.685456 
L 92.471886 179.656249 
L 91.597864 180.057841 
L 91.475258 180.656579 
L 91.550521 180.952297 
L 90.18486 180.906053 
L 89.239215 180.231865 
L 88.656534 180.228214 
L 87.781297 180.646844 
L 87.02988 180.470386 
L 85.70185 180.825735 
L 84.950405 180.5535 
L 84.858175 180.379115 
L 84.995349 180.043238 
L 84.858175 179.757255 
L 84.480646 179.515083 
L 84.311911 179.02587 
L 84.185663 179.142697 
L 84.152888 179.193809 
L 84.11647 179.107406 
L 84.097047 179.040474 
L 84.152888 178.952853 
L 83.75108 178.674173 
L 83.965944 178.299353 
L 83.831199 178.148451 
L 83.62119 178.110726 
L 83.592056 177.827177 
L 83.241233 177.772415 
L 83.350486 177.66654 
L 83.350486 177.586222 
L 83.07007 177.476697 
L 83.061573 177.219921 
L 82.363568 176.764783 
L 82.342932 176.508007 
L 82.415767 176.293824 
L 82.245818 176.134404 
L 82.220326 176.04435 
L 82.045521 176.127102 
L 81.783314 175.078094 
L 81.210344 174.790895 
L 81.035539 174.535336 
L 80.682288 173.705378 
L 80.369096 173.343945 
L 80.56818 173.137064 
L 80.76969 173.017803 
L 80.619164 172.877854 
L 80.13481 172.735471 
L 80.040124 172.900976 
L 79.804623 172.62838 
L 79.748783 172.039377 
L 79.317841 171.7753 
L 78.554285 171.259314 
L 78.523937 170.891796 
L 78.01409 170.30036 
L 78.035941 169.669981 
L 77.819863 168.605153 
L 78.196178 168.706159 
L 78.174328 167.766676 
L 78.05415 167.601171 
L 77.815007 167.52207 
L 77.794371 166.578936 
L 77.653556 166.290519 
L 77.235967 166.061733 
L 76.825662 165.988717 
L 76.638718 165.705168 
L 76.57438 165.360772 
L 75.83753 164.264303 
L 75.53405 162.620207 
L 75.684576 162.262425 
L 75.378668 161.774429 
L 75.455145 161.602839 
L 75.200222 161.591887 
L 75.307047 161.313206 
L 75.350748 161.006535 
L 75.066691 160.851983 
L 75.046054 160.806956 
L 75.098253 160.234991 
L 75.390807 160.030544 
L 75.309475 159.705619 
L 75.331325 158.649309 
L 75.443006 158.343855 
L 74.953796 157.697656 
L 74.660027 157.575962 
L 74.317701 157.196274 
L 74.084629 157.173152 
L 74.287353 156.767909 
L 73.968092 156.711929 
L 73.840631 155.739589 
L 73.726522 155.51567 
L 73.923177 155.229688 
L 72.748102 154.736824 
L 72.303807 154.764814 
L 71.559674 154.869471 
L 70.615243 154.404598 
L 51.681721 154.719787 
L 49.825636 154.958309 
L 49.079075 154.768465 
L 48.54495 154.860953 
L 46.026064 154.785502 
L 45.062211 154.509255 
L 43.490184 154.549414 
L 42.753334 154.251262 
L 39.20565 154.536028 
L 38.166534 154.460577 
L 37.809642 154.556716 
L 37.463674 154.449625 
L 36.061596 154.478831 
L 35.693778 154.828095 
L 35.323532 154.632167 
L 34.834322 154.509255 
L 33.488839 154.375367 
L 32.936361 154.502811 
L 32.097661 154.434976 
L 30.781891 153.933625 
L 30.011481 153.991118 
L 29.287908 154.295834 
L 28.927911 154.530371 
L 28.353094 155.307721 
L 28.412606 155.872124 
L 27.817992 156.11785 
L 27.054899 156.092979 
L 26.460167 156.416221 
L 25.036477 156.715075 
L 25.049379 156.431087 
L 25.295347 156.275875 
L 25.295221 155.901676 
L 24.984585 155.824602 
L 24.751428 155.953991 
L 24.583092 156.186507 
L 24.096724 155.468703 
L 23.850117 155.155363 
L 22.853172 154.100356 
L 22.398351 153.331172 
L 22.967032 153.016061 
L 23.970945 152.873678 
L 25.903507 152.893149 
L 26.080739 145.861629 
L 25.93871 145.760623 
L 25.148448 145.443 
L 25.086538 145.104688 
L 25.218855 144.967173 
L 25.404585 144.967173 
L 26.390289 144.626428 
L 26.828514 144.345313 
L 27.158701 143.581679 
L 27.899192 143.450249 
L 28.009659 143.128975 
L 28.287647 142.73225 
L 28.924955 142.283197 
L 29.025711 141.745306 
L 29.355897 141.277998 
L 29.711576 141.075985 
L 32.438042 140.384759 
L 32.53637 140.047665 
L 32.510877 139.65094 
L 32.703891 139.390514 
L 32.990376 139.36009 
L 33.549994 140.142587 
L 33.809773 140.645186 
L 35.947487 142.067797 
L 36.032462 142.477908 
L 36.282529 142.99146 
L 37.501306 141.893774 
L 37.334999 141.690543 
L 37.850915 141.448371 
L 38.000227 141.515303 
L 38.374115 141.820757 
L 38.616899 141.744089 
L 38.871822 141.270697 
L 39.231143 141.118578 
L 39.602603 141.183077 
L 39.664512 141.100324 
L 39.680293 140.754711 
L 39.873307 140.732806 
L 40.039007 140.640318 
L 39.881804 140.134068 
L 40.105773 139.400249 
L 40.14826 139.17268 
L 40.068141 137.90097 
L 40.2041 137.826737 
L 41.189804 137.590649 
L 41.561264 137.905838 
L 41.855032 138.328119 
L 42.647723 138.436427 
L 42.886865 138.358542 
L 43.663774 137.458002 
L 44.102 137.282761 
L 45.585411 137.011382 
L 46.026064 136.803284 
L 46.704646 136.249573 
L 47.238771 136.120577 
L 47.962268 135.829727 
L 48.059381 135.978194 
L 48.029033 136.720532 
L 48.450264 137.281544 
L 48.933404 137.62229 
L 48.895773 137.842557 
L 48.262106 138.625054 
L 47.632081 138.979185 
L 47.52647 139.242046 
L 47.890647 140.175444 
L 48.195341 140.527142 
L 48.222047 140.933602 
L 48.110366 141.389958 
L 48.262106 141.729486 
L 48.072735 142.64463 
L 48.122505 143.002412 
L 48.695476 142.857596 
L 49.076647 142.526586 
L 49.522156 142.47304 
L 49.670254 142.648281 
L 50.07449 142.699393 
L 50.223802 142.885585 
L 51.317545 143.163049 
L 51.663512 143.041355 
L 53.298664 141.988696 
L 53.388494 141.795201 
L 54.351133 140.183963 
L 55.429094 139.008392 
L 56.311615 138.453464 
L 57.843583 136.391956 
L 58.394703 136.10354 
L 60.597969 135.005853 
L 60.920872 134.629817 
L 61.430719 133.249799 
L 61.819173 133.014928 
L 64.030937 132.397936 
L 65.077337 132.161848 
L 65.591643 131.866614 
L 65.874883 131.594751 
L 66.239059 130.691776 
L 67.056027 129.061067 
L 67.533098 128.092377 
L 68.263879 127.200355 
L 69.556704 124.480478 
L 69.515431 124.078886 
L 69.239871 123.847666 
L 69.177961 123.599409 
L 69.247154 122.815695 
L 69.088131 122.398282 
L 69.136688 121.761819 
L 68.999515 119.239088 
L 69.031077 119.0748 
L 69.309064 118.233889 
L 69.556704 116.497306 
L 68.984948 112.394977 
L 69.122121 111.698884 
L 69.192528 111.160993 
L 69.62347 110.536699 
L 73.07289 107.351868 
L 74.15625 105.823463 
L 74.379611 104.552971 
L 75.428439 102.894272 
L 76.769821 100.333815 
L 77.585576 99.728993 
L 78.793427 98.470669 
L 78.988869 98.355059 
L 79.928443 98.133575 
L 80.940853 97.74902 
L 82.148704 97.491027 
L 82.270096 97.419227 
L 82.533517 97.084567 
L 82.938967 96.856998 
L 85.724915 93.577325 
L 86.316094 93.029699 
L 86.453267 92.682869 
L 87.455966 91.631427 
L 87.352783 89.544363 
L 87.034735 88.069423 
L 87.066297 87.773705 
L 87.544582 85.579549 
L 87.759446 85.157269 
L 88.68324 82.62967 
L 89.75756 81.025733 
L 89.809758 79.681007 
L 89.611889 79.262377 
L 89.439512 79.166238 
L 89.143316 78.313159 
L 89.136032 77.980932 
L 89.313265 76.749382 
L 88.963655 75.248886 
L 88.967297 74.315488 
L 88.831338 73.497699 
L 89.134818 72.782134 
L 89.397025 72.492501 
L 89.967568 71.439233 
L 90.010055 70.706023 
L 90.541752 68.725137 
L 91.262821 66.954479 
L 91.198484 63.376351 
L 91.357507 62.596896 
L 91.290742 62.054442 
L 91.317448 60.567028 
L 91.248254 60.034614 
L 91.790877 58.657638 
L 92.605418 57.551434 
L 92.91254 56.88333 
L 93.134687 56.001043 
L 93.288855 55.808765 
L 94.117963 55.038438 
L 95.016264 53.515429 
L 96.604073 49.38146 
L 96.999811 49.004206 
L 97.598274 48.634863 
L 97.81071 48.036733 
L 97.943027 46.331182 
L 97.75487 44.529187 
L 97.362773 41.786797 
L 97.582493 39.793134 
L 97.605557 39.529665 
L 97.933316 38.860952 
L 97.991584 37.828069 
L 97.675965 36.372904 
L 96.763096 34.50915 
L 97.168546 33.980386 
L 97.395549 33.998032 
L 97.843486 34.17814 
L 98.318129 34.115163 
L 98.866821 33.926232 
L 99.245564 33.652419 
L 99.523552 33.265734 
L 100.125657 31.775887 
L 100.409714 31.374598 
L 100.810308 31.052716 
L 101.02153 30.646864 
L 101.299518 30.522431 
L 101.913762 29.663267 
L 102.279152 29.361464 
L 102.458813 28.814142 
L 102.718592 28.519641 
L 102.954092 27.875267 
L 103.50764 27.296 
L 103.705509 27.219637 
L 104.441145 27.179478 
L 104.926713 26.467868 
L 105.47662 26.214743 
L 106.525447 25.563981 
L 106.946678 25.059556 
L 107.211312 24.993841 
L 108.216439 24.993841 
L 108.823399 24.767489 
L 109.255555 24.96646 
L 110.702548 25.018788 
L 112.128905 25.726443 
L 112.60719 26.569787 
L 112.894889 26.675966 
L 113.935219 26.895321 
L 115.905413 28.027081 
L 116.667755 28.874989 
L 117.432525 29.16584 
L 117.869537 29.280537 
L 118.277414 29.83942 
L 118.630665 30.482272 
L 119.059179 30.785292 
L 119.327455 31.293671 
L 119.08103 31.887542 
L 119.252778 32.189947 
L 120.704042 33.482959 
L 120.972318 33.545023 
L 121.973803 33.391384 
L 123.188937 33.351225 
L 123.664794 33.062808 
L 124.12487 33.031168 
L 125.20526 33.262388 
L 126.623119 33.798148 
L 126.967873 34.356119 
L 127.396387 34.522536 
L 127.578475 34.752843 
L 128.017914 34.876668 
L 128.258271 34.925954 
L 128.507124 34.674959 
L 128.757192 34.482985 
L 129.144433 34.48116 
L 129.279178 34.647578 
L 130.304941 35.171169 
L 131.387758 35.35219 
L 131.601408 35.432813 
L 131.954659 35.488792 
L 133.281475 34.888229 
L 134.631355 35.105454 
L 134.819512 35.167518 
L 135.263807 35.167518 
L 136.106268 35.576717 
L 137.147812 35.536253 
L 137.396666 35.488792 
L 138.941987 36.030334 
L 139.280671 36.330311 
L 140.941315 36.853902 
L 142.451432 36.737988 
L 142.751271 36.614164 
L 143.375226 36.117345 
L 143.512399 35.880953 
L 143.794028 35.576717 
L 143.71391 35.094197 
L 144.150921 34.356119 
L 144.425267 34.218299 
L 144.587933 33.961524 
L 144.558799 33.873295 
L 144.297806 33.40112 
L 144.337865 32.791733 
L 144.547873 32.667909 
L 145.315071 32.661824 
L 145.543288 32.464679 
L 145.761794 31.879023 
L 145.951166 31.342958 
L 145.87833 30.965096 
L 146.275282 30.588755 
L 146.809408 29.766403 
L 147.407871 29.994581 
L 147.542616 29.671785 
L 147.898295 29.357204 
L 147.742913 29.085217 
L 147.818176 28.794062 
L 148.019687 28.664762 
L 148.298888 28.707051 
L 148.85972 28.545805 
L 148.956833 28.638597 
L 149.328293 29.532445 
L 150.292146 29.990017 
L 150.579846 29.943164 
L 151.106687 29.678479 
L 151.282706 29.829684 
L 151.758563 30.362099 
L 152.082679 30.563199 
L 152.332747 30.927675 
L 152.671431 31.049065 
L 152.84138 31.213657 
L 153.484758 31.336873 
L 153.776099 31.403501 
L 154.088077 31.374598 
L 154.154842 31.100481 
L 154.259239 30.756389 
L 154.586998 30.513304 
L 155.068924 30.404692 
L 156.031564 29.727461 
L 156.571758 29.595726 
L 157.262479 29.262891 
L 158.051528 29.097691 
L 158.716756 28.707051 
L 159.277588 28.760292 
L 159.48274 28.633121 
L 160.263291 28.741429 
L 160.292426 28.151514 
L 160.436882 28.140866 
L 160.611687 28.312151 
L 161.922721 27.534218 
L 162.2784 27.549734 
L 162.664427 27.741707 
L 162.783391 27.680556 
L 163.332083 27.11072 
L 163.568798 27.052003 
L 163.761811 27.135668 
L 163.914765 27.420433 
L 164.036157 27.263751 
L 164.076217 27.018537 
L 164.354204 26.556401 
L 165.40546 26.33157 
L 165.552344 26.170629 
L 165.531708 26.027333 
L 165.112905 25.853614 
L 165.362973 25.32485 
L 165.525638 25.154782 
L 165.92866 25.800981 
L 165.999067 25.410341 
L 166.268557 25.329718 
L 166.903438 25.567631 
L 167.197207 25.822886 
L 167.370797 26.134424 
L 168.036026 26.397894 
L 168.09915 26.770279 
L 168.748598 27.098551 
L 168.55437 27.42591 
L 168.673334 27.484931 
L 169.677247 27.551559 
L 169.871474 27.420433 
L 170.142179 27.538477 
L 170.591329 27.278659 
L 170.834113 27.339811 
L 171.821031 26.895929 
L 172.255615 26.696046 
L 173.611564 27.133842 
L 173.85192 26.609338 
L 174.044934 26.49312 
L 174.262226 26.38329 
L 174.537786 26.528411 
L 175.426376 26.411888 
L 175.534415 26.310578 
L 176.228777 26.214743 
L 176.385373 25.979568 
L 176.432716 25.557287 
L 176.65365 25.15965 
L 176.70949 24.840201 
L 176.623302 24.762621 
L 176.308896 24.672567 
L 176.229991 24.413053 
L 176.795678 23.221966 
L 177.037248 23.14469 
L 176.969269 22.864184 
L 178.311258 22.411175 
L 178.540689 22.56451 
L 178.967989 22.421519 
L 178.873304 22.2119 
L 179.001979 22.176 
L 179.001979 22.176 
" clip-path="url(#pf377059c7f)" style="fill: none; stroke: #000000; stroke-width: 2"/>
   </g>
  </g>
 </g>
 <defs>
  <clipPath id="pf377059c7f">
   <rect x="0" y="-0" width="268.780216" height="266.112"/>
  </clipPath>
 </defs>
</svg>
