<?xml version="1.0" encoding="utf-8" standalone="no"?>
<!DOCTYPE svg PUBLIC "-//W3C//DTD SVG 1.1//EN"
  "http://www.w3.org/Graphics/SVG/1.1/DTD/svg11.dtd">
<svg xmlns:xlink="http://www.w3.org/1999/xlink" width="229.523975pt" height="266.112pt" viewBox="0 0 229.523975 266.112" xmlns="http://www.w3.org/2000/svg" version="1.1">
 <metadata>
  <rdf:RDF xmlns:dc="http://purl.org/dc/elements/1.1/" xmlns:cc="http://creativecommons.org/ns#" xmlns:rdf="http://www.w3.org/1999/02/22-rdf-syntax-ns#">
   <cc:Work>
    <dc:type rdf:resource="http://purl.org/dc/dcmitype/StillImage"/>
    <dc:date>2024-02-02T21:58:00.650561</dc:date>
    <dc:format>image/svg+xml</dc:format>
    <dc:creator>
     <cc:Agent>
      <dc:title>Matplotlib v3.8.2, https://matplotlib.org/</dc:title>
     </cc:Agent>
    </dc:creator>
   </cc:Work>
  </rdf:RDF>
 </metadata>
 <defs>
  <style type="text/css">*{stroke-linejoin: round; stroke-linecap: butt}</style>
 </defs>
 <g id="figure_1">
  <g id="patch_1">
   <path d="M 0 266.112 
L 229.523975 266.112 
L 229.523975 0 
L 0 0 
L 0 266.112 
z
" style="fill: none"/>
  </g>
  <g id="axes_1">
   <g id="PatchCollection_1">
    <path d="M 184.606041 24.258422 
L 186.822244 24.228223 
L 187.29752 24.10874 
L 187.468199 24.186207 
L 187.875203 24.558443 
L 188.820503 24.482289 
L 189.206501 24.708782 
L 189.532104 25.079706 
L 189.771055 25.545165 
L 190.065148 26.447854 
L 190.427513 26.52007 
L 190.908041 26.382204 
L 192.157938 25.85569 
L 193.300175 26.514818 
L 193.615275 26.481992 
L 194.408277 26.096626 
L 195.272176 25.863568 
L 196.159708 25.85569 
L 197.034111 26.14652 
L 197.480502 26.583094 
L 197.80348 27.597388 
L 198.136961 27.968312 
L 198.688386 28.042496 
L 199.22143 27.789743 
L 199.665196 27.367613 
L 200.056445 26.682225 
L 200.389926 25.56486 
L 200.57636 25.505775 
L 201.085772 25.57799 
L 203.262588 25.430934 
L 203.72736 25.57799 
L 203.824516 25.48608 
L 204.04246 25.032437 
L 204.993012 24.921489 
L 205.738749 24.129748 
L 206.069604 24.112679 
L 206.705055 24.635911 
L 207.119937 25.124348 
L 208.159767 26.79777 
L 208.564146 27.731971 
L 208.873994 28.042496 
L 209.989973 28.055626 
L 210.197414 28.758083 
L 210.396977 31.944084 
L 210.110762 35.624431 
L 209.651241 36.915112 
L 209.252114 37.259119 
L 207.831538 38.067929 
L 207.500683 38.526167 
L 206.660416 41.034002 
L 206.164134 41.920279 
L 205.948815 42.740905 
L 205.489295 43.39872 
L 204.793449 45.029469 
L 204.70417 45.717483 
L 204.066093 47.446707 
L 202.046827 50.945859 
L 201.786869 51.032518 
L 199.996051 52.810323 
L 199.796487 53.21998 
L 199.355347 55.214431 
L 198.236742 57.422902 
L 197.80348 57.552889 
L 197.701072 57.812864 
L 196.900193 58.839632 
L 195.915506 61.514218 
L 195.915506 61.89105 
L 196.128198 63.441706 
L 196.00741 65.872731 
L 196.146579 67.446365 
L 195.75533 69.163116 
L 195.889247 76.976795 
L 194.245475 80.764152 
L 194.127313 81.694414 
L 193.237155 84.54166 
L 193.145251 86.123829 
L 192.964069 86.626709 
L 191.911109 88.396636 
L 191.343929 89.021626 
L 190.855524 89.981431 
L 190.687471 90.565717 
L 190.981564 92.330393 
L 190.973687 94.344539 
L 191.729927 97.582404 
L 191.727301 98.278295 
L 191.346555 100.239921 
L 191.36231 100.956821 
L 191.517234 101.576558 
L 192.003014 102.79765 
L 192.375882 103.005105 
L 192.643717 103.417388 
L 192.856409 104.344368 
L 192.690982 106.810187 
L 192.549187 107.217218 
L 190.367119 110.271262 
L 188.36886 115.725475 
L 187.904087 116.636699 
L 186.801237 122.009506 
L 186.866883 122.652878 
L 187.489206 125.192225 
L 187.712402 129.695824 
L 187.166228 130.449488 
L 185.296635 132.340212 
L 185.12333 132.910055 
L 184.823985 133.128014 
L 184.498381 133.503532 
L 183.967963 133.894807 
L 179.1233 139.729791 
L 177.747363 141.132078 
L 176.993749 141.594255 
L 176.232257 142.340041 
L 174.903586 142.71556 
L 173.125896 143.03068 
L 171.429608 143.726572 
L 168.819529 144.516999 
L 168.748632 144.671934 
L 168.149942 145.367825 
L 167.157377 146.244911 
L 166.361749 147.169265 
L 164.316225 148.823648 
L 164.040512 149.53267 
L 163.452326 150.583072 
L 163.061077 151.520556 
L 162.640943 152.116659 
L 161.695643 153.999505 
L 160.858002 155.091923 
L 159.928618 156.802786 
L 159.240489 157.996285 
L 159.077687 158.705307 
L 159.093442 159.569263 
L 158.94377 160.3203 
L 158.612915 160.963672 
L 156.401963 164.004586 
L 156.320562 164.351219 
L 156.163012 164.424747 
L 155.325371 164.92894 
L 154.973509 165.202044 
L 154.584886 165.700985 
L 152.983127 167.268711 
L 151.906536 168.080146 
L 150.488586 169.437791 
L 149.769107 169.926228 
L 149.138907 170.490819 
L 148.206736 171.83796 
L 148.022928 172.410429 
L 148.088574 173.358417 
L 147.705202 174.913013 
L 147.791855 175.304287 
L 148.085948 175.787472 
L 148.133213 176.026439 
L 148.148968 177.252784 
L 148.994486 183.352994 
L 148.458816 187.100304 
L 147.789229 189.269385 
L 147.760345 189.634399 
L 148.04656 192.021438 
L 147.949405 193.284547 
L 148.085948 194.713094 
L 147.980915 196.086495 
L 148.33015 197.570188 
L 148.175226 198.678362 
L 148.309144 199.214067 
L 149.041751 199.986113 
L 148.871072 201.049645 
L 148.540217 201.816439 
L 147.287695 203.985519 
L 146.765154 205.343164 
L 146.197974 206.448712 
L 144.617222 208.373574 
L 141.639527 214.179672 
L 141.49248 214.437021 
L 141.030333 215.931218 
L 140.289848 216.64024 
L 139.305161 217.154937 
L 138.181304 217.491065 
L 135.925713 217.82982 
L 131.80578 219.203221 
L 131.417157 219.502585 
L 131.096805 219.980518 
L 130.177763 222.70106 
L 129.295483 223.54926 
L 128.665283 223.877511 
L 127.67797 224.237273 
L 123.038122 226.642694 
L 122.633744 227.485642 
L 120.344017 230.731385 
L 119.789966 231.243456 
L 118.435036 231.928843 
L 118.064793 232.538077 
L 116.103296 234.465565 
L 113.56674 238.738076 
L 113.167614 239.066326 
L 111.97286 239.581023 
L 110.2897 240.631425 
L 109.541338 240.894026 
L 108.569779 240.988562 
L 108.286189 240.883522 
L 106.852484 239.893518 
L 106.731696 239.775348 
L 105.865171 239.680812 
L 105.65773 239.405081 
L 105.190332 239.389325 
L 104.392078 239.680812 
L 103.869537 240.234899 
L 103.559689 240.392459 
L 102.630144 240.547393 
L 102.522485 239.775348 
L 102.932115 237.800592 
L 102.588131 236.768571 
L 102.890101 235.841592 
L 102.787694 235.206098 
L 102.12861 234.447183 
L 101.742612 233.966624 
L 101.361866 232.23346 
L 101.569307 231.865819 
L 101.97106 231.500804 
L 102.932115 231.101652 
L 103.945686 229.919949 
L 104.3028 229.41313 
L 104.384201 228.937823 
L 104.218773 228.767133 
L 103.339119 228.202542 
L 102.427955 226.991953 
L 102.249398 226.48776 
L 102.446336 225.986193 
L 102.493601 225.39009 
L 102.283534 225.069717 
L 101.81351 225.103855 
L 100.718537 225.697332 
L 99.56317 225.975689 
L 99.045881 226.335452 
L 98.095329 227.170521 
L 97.142152 227.619568 
L 96.167968 227.934689 
L 93.933383 228.205168 
L 92.985457 228.583312 
L 92.137313 229.720373 
L 91.732935 230.011859 
L 91.039715 230.684117 
L 90.787635 230.694621 
L 90.020891 230.474036 
L 89.072965 230.460906 
L 88.794627 230.216688 
L 88.203814 229.239814 
L 87.634009 228.869547 
L 87.114094 228.817027 
L 85.207738 229.539178 
L 85.107957 229.830665 
L 85.381043 232.283354 
L 85.289139 232.774417 
L 84.893951 233.801185 
L 84.804673 234.357898 
L 85.144718 235.450317 
L 84.976665 235.670901 
L 84.368785 235.697161 
L 84.263751 235.975518 
L 84.334649 236.442947 
L 84.200731 236.621515 
L 83.977535 236.645149 
L 83.150398 236.466581 
L 82.619979 236.810588 
L 82.068554 237.832104 
L 81.543388 237.997542 
L 81.236165 237.858364 
L 80.734631 237.338415 
L 80.411654 237.193984 
L 80.120186 237.236 
L 79.295674 237.716559 
L 79.655413 238.155102 
L 79.58189 238.346801 
L 79.295674 238.496483 
L 77.988009 239.457601 
L 77.019077 240.523759 
L 76.478155 239.415585 
L 76.157803 238.223378 
L 75.918852 237.989664 
L 75.543358 237.784836 
L 74.00462 237.233374 
L 73.542473 236.931384 
L 72.347719 235.894112 
L 71.423425 235.208724 
L 71.108325 234.37628 
L 69.897816 232.687759 
L 69.278119 232.753409 
L 68.860612 233.315374 
L 68.915754 234.171452 
L 67.734129 233.583227 
L 66.066725 231.592715 
L 65.061031 230.791783 
L 64.564748 230.229818 
L 64.107853 229.008725 
L 63.737611 228.496654 
L 63.34111 228.270818 
L 62.731916 228.438882 
L 62.338041 228.520288 
L 61.988806 228.44676 
L 60.988363 227.968827 
L 60.384421 228.318086 
L 59.54678 229.919949 
L 58.672378 230.513426 
L 58.31789 230.920457 
L 57.485501 232.238712 
L 57.086374 232.385768 
L 54.268855 232.900465 
L 52.157685 233.499195 
L 51.469716 233.412536 
L 51.230766 233.767047 
L 51.262276 234.856839 
L 51.141487 235.387293 
L 49.815441 237.800592 
L 49.453076 237.93977 
L 48.205805 238.120964 
L 47.612367 238.457093 
L 47.060942 237.572129 
L 46.821991 237.427699 
L 46.52002 237.427699 
L 46.401858 237.543243 
L 45.629863 240.14824 
L 44.960275 241.224903 
L 41.880832 243.936 
L 41.140783 243.168767 
L 40.565994 242.215548 
L 38.987546 240.455434 
L 38.746519 239.759095 
L 37.044918 237.82607 
L 37.166945 237.6533 
L 37.31663 237.683097 
L 37.65601 238.070581 
L 37.785728 238.000977 
L 37.905471 237.692892 
L 37.835072 237.157321 
L 37.166884 236.28946 
L 36.088807 235.317002 
L 35.988563 234.740026 
L 36.588987 234.746063 
L 37.067705 234.221201 
L 37.181056 233.649162 
L 36.718258 232.692563 
L 33.836493 229.805519 
L 28.880001 225.500092 
L 27.678089 224.755354 
L 26.428494 223.653574 
L 25.429201 221.9188 
L 25.431269 221.073102 
L 25.332025 220.872533 
L 23.094585 219.08922 
L 19.126998 216.424695 
L 19.523502 215.687879 
L 21.212237 211.138758 
L 21.629744 210.337826 
L 22.291454 209.773235 
L 24.733479 208.084714 
L 25.778561 207.874633 
L 26.747494 207.551635 
L 27.78995 206.041681 
L 28.491047 205.561122 
L 29.764577 205.744943 
L 30.707251 206.467094 
L 32.723891 209.728593 
L 33.149276 210.188144 
L 33.700701 210.37459 
L 35.084515 210.196022 
L 35.593927 210.253794 
L 37.056516 210.671329 
L 37.592218 210.660407 
L 38.038578 210.490135 
L 38.587377 210.080478 
L 39.036395 209.544773 
L 39.235958 208.972304 
L 39.057401 208.433972 
L 38.568996 208.171372 
L 37.96768 207.977047 
L 37.442514 207.664553 
L 37.190434 207.1341 
L 37.261331 206.545875 
L 39.054776 202.509704 
L 40.149748 201.69039 
L 40.491106 201.144181 
L 40.223271 200.324868 
L 39.24121 199.865317 
L 38.035952 199.53444 
L 37.111659 199.095897 
L 35.551914 197.932577 
L 33.916019 197.184165 
L 33.65081 196.869044 
L 33.692824 196.724614 
L 33.716456 194.96519 
L 33.842496 194.518769 
L 34.178603 193.888528 
L 34.443812 193.728342 
L 35.378609 193.69683 
L 36.006183 193.310807 
L 36.006183 192.764598 
L 35.633314 192.178999 
L 33.700701 190.125462 
L 32.408791 188.384421 
L 31.902005 188.218982 
L 31.179901 188.439567 
L 30.150574 189.161718 
L 29.714686 189.235246 
L 29.583394 188.639143 
L 29.885365 187.481075 
L 31.736578 184.461169 
L 32.093691 183.28997 
L 32.093691 182.762143 
L 31.957148 182.11352 
L 31.718197 181.543676 
L 31.074867 180.516908 
L 30.87793 179.981203 
L 30.867427 179.537408 
L 31.051235 178.129869 
L 30.959331 177.57053 
L 30.413157 176.089463 
L 30.670489 175.574766 
L 31.610538 175.606278 
L 33.243806 176.173495 
L 33.698075 176.808989 
L 35.018869 177.725464 
L 35.439003 177.759603 
L 35.861762 177.512758 
L 36.723035 176.719704 
L 37.28759 176.493868 
L 38.204005 176.312674 
L 39.275346 175.968667 
L 40.070973 175.574766 
L 40.793077 176.068455 
L 41.654351 177.137239 
L 42.431597 177.670318 
L 43.219348 177.756977 
L 53.305174 175.595774 
L 53.016332 175.036435 
L 53.200141 174.214495 
L 53.71743 172.610006 
L 53.583512 171.184085 
L 54.334501 169.639994 
L 53.344562 169.190947 
L 52.816769 168.376885 
L 52.598825 167.350117 
L 52.386132 164.611193 
L 52.483288 164.267186 
L 52.766878 164.332837 
L 53.552002 165.16528 
L 53.998394 165.304459 
L 54.326623 165.12589 
L 54.455289 164.592811 
L 54.654852 164.049228 
L 54.935817 163.739359 
L 56.453548 162.804501 
L 57.703445 162.770363 
L 58.785289 163.21941 
L 60.576107 164.516657 
L 61.650073 164.86329 
L 62.078084 165.157402 
L 62.372177 165.77714 
L 63.159927 168.158927 
L 63.816386 168.88633 
L 63.871528 169.595352 
L 63.900412 169.87896 
L 64.378314 170.002382 
L 64.262777 170.317503 
L 64.123608 170.958248 
L 64.554245 171.462441 
L 64.682911 172.176715 
L 65.045276 172.163585 
L 65.662347 171.848464 
L 65.882917 172.063797 
L 66.597143 173.132581 
L 66.794081 174.022797 
L 66.975263 174.217121 
L 67.250976 174.238129 
L 67.313996 174.524364 
L 66.959508 174.957655 
L 66.715306 175.868879 
L 66.255785 176.675062 
L 66.597143 176.65668 
L 67.350758 175.903017 
L 67.678987 175.805854 
L 68.309187 175.918773 
L 70.478125 176.790607 
L 70.756464 176.732834 
L 71.242243 176.449226 
L 71.78579 176.464982 
L 76.667215 178.161381 
L 77.15562 178.040585 
L 77.838337 178.132495 
L 78.358252 178.064219 
L 78.702236 178.41873 
L 78.970071 178.266422 
L 79.547754 177.336816 
L 80.587584 176.554266 
L 81.209907 175.863627 
L 82.486062 175.117841 
L 82.559585 174.57951 
L 82.730265 174.316909 
L 84.867693 172.160959 
L 84.96091 171.895732 
L 85.068569 171.113183 
L 85.924591 169.679384 
L 86.273827 169.902594 
L 86.623063 170.238723 
L 87.150855 171.254987 
L 87.381929 172.305389 
L 88.272086 173.951895 
L 88.907538 174.674046 
L 88.991565 175.380442 
L 89.456337 175.695562 
L 89.71892 175.882009 
L 90.06553 176.35469 
L 89.957871 176.520128 
L 89.6559 176.706574 
L 89.296161 177.473368 
L 88.768369 177.738594 
L 88.579309 177.961805 
L 88.532044 179.067353 
L 88.946925 179.432368 
L 89.527235 179.624066 
L 90.149557 179.655578 
L 90.682601 179.545286 
L 91.365318 179.169767 
L 91.612146 179.169767 
L 91.845846 179.340458 
L 91.921995 179.805261 
L 92.084796 179.954943 
L 92.279108 179.957569 
L 93.60778 179.563668 
L 93.862486 179.584676 
L 94.505815 179.915553 
L 94.736888 179.881415 
L 94.889187 179.689717 
L 95.162273 178.907167 
L 95.800351 178.269048 
L 95.789848 177.602042 
L 96.112825 177.126735 
L 97.081758 176.443974 
L 98.405178 176.231267 
L 98.216118 175.422458 
L 96.291382 173.794334 
L 96.209981 172.925126 
L 96.553965 172.657274 
L 97.425742 172.339527 
L 97.764474 171.96926 
L 97.769726 171.782814 
L 97.64106 171.079045 
L 97.777604 170.958248 
L 98.389423 170.629998 
L 98.507585 170.267609 
L 98.64938 168.928346 
L 98.843692 168.174683 
L 98.512837 167.807042 
L 98.36579 167.518181 
L 98.499708 167.279215 
L 98.549599 166.761892 
L 98.856821 166.388999 
L 102.543491 164.844908 
L 102.7273 164.495649 
L 102.548743 163.172142 
L 102.703667 162.518267 
L 102.782442 160.493617 
L 102.945244 159.944781 
L 103.252466 159.603401 
L 103.851156 159.241012 
L 103.656845 159.072948 
L 102.687912 158.849737 
L 102.38069 157.820343 
L 101.71898 157.35554 
L 101.947427 157.153338 
L 102.706293 156.851347 
L 103.118549 156.418056 
L 103.383758 155.903359 
L 104.216147 155.745799 
L 104.205644 155.362402 
L 103.588573 154.5746 
L 103.908925 153.839319 
L 104.042842 152.988493 
L 104.841096 152.205943 
L 104.699301 151.678116 
L 103.806517 151.087265 
L 103.433649 150.701242 
L 103.281351 150.215431 
L 103.352248 149.934449 
L 104.063849 149.112509 
L 104.258161 148.298447 
L 104.242406 147.276931 
L 104.045468 146.94868 
L 103.331241 146.110985 
L 103.323364 145.893026 
L 103.486166 145.236525 
L 103.129052 144.390951 
L 102.404322 142.397813 
L 102.409574 142.032798 
L 102.677409 141.491841 
L 102.937366 139.811198 
L 103.328616 139.186208 
L 103.777633 138.692519 
L 104.063849 138.148936 
L 103.780259 136.105904 
L 103.922054 135.48354 
L 104.954007 133.251436 
L 105.127312 132.42687 
L 104.898864 131.665329 
L 104.3028 130.438984 
L 103.990326 130.105481 
L 102.97938 129.40959 
L 102.417451 128.6533 
L 101.56143 128.117595 
L 99.886148 127.484728 
L 99.450259 127.553004 
L 98.667761 127.870751 
L 97.354844 127.587142 
L 96.5067 127.960035 
L 96.462061 127.009421 
L 96.275627 125.961645 
L 95.963153 124.942755 
L 95.535142 124.073547 
L 94.873432 123.424923 
L 93.943887 122.97325 
L 92.925063 122.81569 
L 92.00077 123.059909 
L 91.612146 122.642374 
L 91.365318 122.545212 
L 90.259842 122.508447 
L 89.986755 122.97325 
L 89.487847 123.128185 
L 89.335549 123.015267 
L 88.161801 121.615606 
L 88.185434 120.89608 
L 88.453269 120.265839 
L 90.420018 117.474395 
L 90.288726 117.190786 
L 90.238835 116.817894 
L 90.346495 116.565797 
L 90.706234 116.100994 
L 90.745621 115.835768 
L 90.546058 115.523273 
L 89.779315 115.286932 
L 89.550867 112.831617 
L 89.177999 111.405696 
L 89.293535 110.799089 
L 90.157435 109.512346 
L 91.058096 107.492948 
L 91.599017 106.917853 
L 93.476488 105.883207 
L 93.951764 105.336998 
L 94.051546 104.811797 
L 93.893996 104.291848 
L 93.60778 103.761394 
L 94.379775 102.689984 
L 95.637549 102.519294 
L 97.063377 102.67948 
L 98.339532 102.611204 
L 98.825311 102.374864 
L 98.919841 102.240937 
L 100.802564 100.612814 
L 100.970617 100.069231 
L 101.046766 98.765419 
L 101.782 97.708452 
L 102.953121 96.704005 
L 103.822272 95.657542 
L 103.567566 94.160718 
L 104.342187 93.193035 
L 104.147876 92.98952 
L 103.541308 92.68359 
L 102.63277 91.742167 
L 101.994692 90.591977 
L 101.598191 89.292104 
L 101.251581 88.774781 
L 100.033195 88.212816 
L 99.636694 87.682363 
L 99.429253 87.03374 
L 99.387239 84.452376 
L 98.856821 82.58266 
L 97.121145 81.311674 
L 95.611291 80.988018 
L 95.154396 81.106189 
L 94.245857 81.457417 
L 93.707562 81.424592 
L 92.470794 80.494329 
L 92.03228 80.397167 
L 87.234882 79.95009 
L 86.875143 80.036748 
L 86.854136 80.157544 
L 86.305337 81.421966 
L 85.948223 81.580183 
L 85.273384 81.450852 
L 84.804673 81.770568 
L 83.864625 81.861822 
L 83.360465 81.907777 
L 82.66987 82.414596 
L 81.758706 82.769107 
L 81.178397 83.54903 
L 80.850168 83.785371 
L 79.999398 83.942931 
L 79.232654 83.94687 
L 78.44753 83.795875 
L 77.174001 83.44399 
L 76.123667 83.643567 
L 75.918852 83.833952 
L 75.756051 84.284312 
L 74.863267 84.465506 
L 74.390617 85.043227 
L 73.400678 85.353096 
L 72.526275 85.287446 
L 71.740515 85.331851 
L 71.662376 84.980203 
L 70.858871 84.468132 
L 71.342025 84.418238 
L 71.827804 83.583168 
L 72.615554 83.386218 
L 72.977919 83.141999 
L 73.426936 82.409344 
L 73.130217 81.930098 
L 73.127591 80.114215 
L 72.720587 79.859493 
L 72.263692 78.630522 
L 71.741151 78.363326 
L 71.89345 78.002907 
L 71.86194 77.655618 
L 71.683383 77.355596 
L 71.394541 77.134355 
L 71.221236 77.322771 
L 70.33633 75.934927 
L 70.772219 75.432047 
L 70.853619 74.821501 
L 70.701321 73.664746 
L 71.045305 72.207969 
L 70.858871 71.772052 
L 71.179223 71.585606 
L 71.633492 70.864767 
L 71.932837 69.524848 
L 71.491697 68.575547 
L 71.163468 68.125187 
L 71.268501 68.009643 
L 71.570472 67.922985 
L 71.914456 67.229719 
L 72.436997 66.433383 
L 72.300454 65.7434 
L 72.665445 65.558923 
L 73.27989 64.937217 
L 74.185802 64.437619 
L 74.44576 63.828386 
L 74.535038 63.011698 
L 74.527161 61.487958 
L 99.46864 61.678344 
L 100.587245 61.24374 
L 102.196881 61.461698 
L 102.596008 61.688848 
L 103.087039 62.143147 
L 103.596451 62.175972 
L 104.116366 61.856912 
L 106.348324 61.34878 
L 106.429725 61.129509 
L 106.366705 60.659454 
L 106.731696 60.274744 
L 107.385528 60.454625 
L 108.225795 61.392109 
L 108.832363 61.662588 
L 108.617044 62.06568 
L 108.863873 62.191728 
L 109.522957 62.166781 
L 109.877444 62.382113 
L 110.378979 62.89878 
L 110.754473 63.049775 
L 110.581168 62.430038 
L 110.764976 62.338128 
L 111.450319 62.703799 
L 110.927778 63.049775 
L 111.177232 63.139059 
L 111.794303 63.049775 
L 111.823187 63.229 
L 111.880955 63.917013 
L 113.821446 63.65113 
L 114.000003 63.415446 
L 114.223199 62.63421 
L 114.590816 62.997255 
L 115.005697 63.744354 
L 115.50198 64.083765 
L 115.228893 64.794099 
L 115.12386 65.417776 
L 116.683605 65.432219 
L 116.917304 65.315361 
L 117.119493 64.704815 
L 117.366322 64.738953 
L 118.574205 65.699415 
L 118.965454 65.812333 
L 119.459111 65.652147 
L 119.758456 66.104476 
L 120.183841 65.975802 
L 121.003101 65.147953 
L 121.375969 65.287788 
L 121.70945 64.53872 
L 122.520833 64.834802 
L 123.258692 64.573515 
L 123.920402 64.937217 
L 124.159353 65.495243 
L 124.298522 65.572053 
L 125.361985 66.04933 
L 125.561548 66.433383 
L 125.519535 67.01373 
L 125.842512 67.250727 
L 126.727418 67.529084 
L 129.014519 66.346725 
L 130.125247 66.19376 
L 131.235974 66.397932 
L 133.399661 67.03999 
L 135.923087 67.425357 
L 136.506022 67.696492 
L 137.283269 67.899351 
L 138.254827 69.138169 
L 140.274093 70.237152 
L 140.465779 70.832599 
L 140.76775 70.820782 
L 141.379569 70.541112 
L 141.458344 70.942235 
L 141.833838 71.128681 
L 142.766009 71.409007 
L 143.028593 71.267203 
L 143.614153 71.390625 
L 143.821594 71.581667 
L 143.931879 71.87381 
L 143.821594 72.623535 
L 144.036913 73.06536 
L 145.037355 74.357355 
L 146.179593 72.718071 
L 146.402789 72.653734 
L 146.948962 72.838867 
L 147.222049 72.718071 
L 147.30345 72.318261 
L 146.694256 69.510405 
L 145.838234 67.287491 
L 145.166021 66.32703 
L 144.911315 66.11498 
L 144.950703 64.932621 
L 145.339326 64.390351 
L 145.247422 63.968221 
L 145.21066 63.397064 
L 145.39972 63.252634 
L 145.55727 63.223748 
L 145.544141 62.628958 
L 145.383965 62.080123 
L 145.441734 61.789949 
L 145.74633 61.221419 
L 145.914384 60.66208 
L 146.321388 60.413922 
L 146.836051 60.503206 
L 147.308701 60.953566 
L 148.540217 59.912355 
L 148.259253 59.572287 
L 155.435656 44.330952 
L 155.553818 43.719092 
L 155.330623 43.262167 
L 154.653158 42.370639 
L 154.58226 41.248021 
L 155.564322 39.361236 
L 155.732375 38.448699 
L 155.070665 36.823202 
L 155.089046 36.195587 
L 155.383139 35.613926 
L 156.257542 34.398086 
L 156.401963 33.85319 
L 156.417718 33.229514 
L 157.053169 31.630933 
L 157.278991 29.506494 
L 157.685995 28.372716 
L 158.468494 27.425385 
L 159.508324 26.741311 
L 160.700452 26.395334 
L 161.798051 26.395334 
L 163.89084 26.917253 
L 164.42651 26.887054 
L 164.925418 26.634301 
L 164.975309 26.417655 
L 164.938547 25.941035 
L 165.550367 25.964669 
L 166.248838 26.181315 
L 167.202016 26.118947 
L 167.871604 26.617232 
L 168.407274 26.464923 
L 168.903556 26.499061 
L 169.116249 26.405838 
L 169.578395 26.04148 
L 170.229602 25.787414 
L 171.26418 25.775597 
L 172.296133 25.413865 
L 173.679947 25.391544 
L 174.105332 25.199189 
L 174.893082 24.403509 
L 175.260699 24.268926 
L 175.586302 24.303064 
L 176.242761 24.522992 
L 177.164428 24.456686 
L 177.707976 23.950523 
L 178.214762 23.31503 
L 180.328558 22.176 
L 181.021778 22.378859 
L 181.244974 22.812806 
L 181.714998 22.915221 
L 182.655046 23.703679 
L 183.576714 24.108084 
L 184.606041 24.258422 
L 184.606041 24.258422 
" clip-path="url(#pbc488119de)" style="fill: none; stroke: #000000; stroke-width: 2"/>
   </g>
  </g>
 </g>
 <defs>
  <clipPath id="pbc488119de">
   <rect x="0" y="-0" width="229.523975" height="266.112"/>
  </clipPath>
 </defs>
</svg>
