<?xml version="1.0" encoding="utf-8" standalone="no"?>
<!DOCTYPE svg PUBLIC "-//W3C//DTD SVG 1.1//EN"
  "http://www.w3.org/Graphics/SVG/1.1/DTD/svg11.dtd">
<svg xmlns:xlink="http://www.w3.org/1999/xlink" width="168.046689pt" height="266.112pt" viewBox="0 0 168.046689 266.112" xmlns="http://www.w3.org/2000/svg" version="1.1">
 <metadata>
  <rdf:RDF xmlns:dc="http://purl.org/dc/elements/1.1/" xmlns:cc="http://creativecommons.org/ns#" xmlns:rdf="http://www.w3.org/1999/02/22-rdf-syntax-ns#">
   <cc:Work>
    <dc:type rdf:resource="http://purl.org/dc/dcmitype/StillImage"/>
    <dc:date>2024-02-02T21:58:00.677567</dc:date>
    <dc:format>image/svg+xml</dc:format>
    <dc:creator>
     <cc:Agent>
      <dc:title>Matplotlib v3.8.2, https://matplotlib.org/</dc:title>
     </cc:Agent>
    </dc:creator>
   </cc:Work>
  </rdf:RDF>
 </metadata>
 <defs>
  <style type="text/css">*{stroke-linejoin: round; stroke-linecap: butt}</style>
 </defs>
 <g id="figure_1">
  <g id="patch_1">
   <path d="M 0 266.112 
L 168.046689 266.112 
L 168.046689 0 
L 0 0 
L 0 266.112 
z
" style="fill: none"/>
  </g>
  <g id="axes_1">
   <g id="PatchCollection_1">
    <path d="M 144.133551 243.915164 
L 143.926021 243.936 
L 143.683678 243.90683 
L 143.512298 243.823486 
L 143.377738 243.680414 
L 143.251881 243.481779 
L 143.328199 243.280366 
L 143.474809 243.081731 
L 143.650875 242.938658 
L 143.813552 242.888652 
L 144.031125 242.969217 
L 144.211877 243.130348 
L 144.548612 243.533174 
L 144.594804 243.722085 
L 144.406688 243.8471 
L 144.133551 243.915164 
" clip-path="url(#paa3f0dd87c)" style="fill: none; stroke: #000000; stroke-width: 2"/>
    <path d="M 114.174849 231.955393 
L 114.144724 232.113745 
L 114.056356 232.251262 
L 113.601797 232.18042 
L 113.545563 232.192921 
L 113.232928 232.034569 
L 112.578203 232.084575 
L 112.3613 231.901219 
L 112.48381 231.773426 
L 112.58222 231.453943 
L 112.605651 231.248363 
L 112.736863 231.137239 
L 113.157949 231.087233 
L 113.477279 231.101123 
L 113.80665 231.184467 
L 114.064389 231.351153 
L 114.168824 231.609518 
L 114.174849 231.955393 
" clip-path="url(#paa3f0dd87c)" style="fill: none; stroke: #000000; stroke-width: 2"/>
    <path d="M 153.957777 213.77404 
L 153.78372 213.899055 
L 153.590248 213.840714 
L 153.441629 213.585128 
L 153.447654 213.28787 
L 153.619034 213.186469 
L 153.852004 213.260089 
L 154.042798 213.490672 
L 153.957777 213.77404 
" clip-path="url(#paa3f0dd87c)" style="fill: none; stroke: #000000; stroke-width: 2"/>
    <path d="M 141.391471 211.059824 
L 141.148459 211.177894 
L 140.843188 211.10983 
L 140.598838 210.854244 
L 140.512478 210.440305 
L 140.757498 210.377798 
L 141.13507 210.526427 
L 141.448374 210.74312 
L 141.391471 211.059824 
" clip-path="url(#paa3f0dd87c)" style="fill: none; stroke: #000000; stroke-width: 2"/>
    <path d="M 138.240354 207.876108 
L 138.322697 207.984455 
L 138.112489 207.802488 
L 138.190145 207.82888 
L 138.240354 207.876108 
" clip-path="url(#paa3f0dd87c)" style="fill: none; stroke: #000000; stroke-width: 2"/>
    <path d="M 137.903619 207.710811 
L 137.844707 207.723312 
L 137.867469 207.676084 
L 138.004037 207.609409 
L 137.903619 207.710811 
" clip-path="url(#paa3f0dd87c)" style="fill: none; stroke: #000000; stroke-width: 2"/>
    <path d="M 147.537051 208.131695 
L 147.316132 208.381725 
L 147.316132 208.148363 
L 147.230442 207.978898 
L 147.117974 207.870552 
L 147.020903 207.742759 
L 146.979397 207.506619 
L 147.055045 207.369103 
L 147.41655 206.970444 
L 147.541068 206.867654 
L 147.508934 207.228808 
L 147.553788 207.698309 
L 147.537051 208.131695 
" clip-path="url(#paa3f0dd87c)" style="fill: none; stroke: #000000; stroke-width: 2"/>
    <path d="M 127.304835 198.161051 
L 127.399898 198.283288 
L 127.632198 198.230504 
L 127.618809 198.28051 
L 127.594709 198.313847 
L 127.515713 198.36802 
L 127.313538 198.283288 
L 127.103999 198.116601 
L 127.015632 197.959638 
L 127.178309 197.905465 
L 127.260652 197.994364 
L 127.304835 198.161051 
" clip-path="url(#paa3f0dd87c)" style="fill: none; stroke: #000000; stroke-width: 2"/>
    <path d="M 113.573011 190.853228 
L 113.747738 190.994912 
L 113.75778 191.133817 
L 113.698868 191.07131 
L 113.67142 190.960185 
L 113.621211 190.944906 
L 113.46389 191.26161 
L 113.457865 191.32134 
L 113.509412 191.693607 
L 113.404308 191.860293 
L 113.227573 191.851959 
L 113.109079 191.693607 
L 113.08431 191.48247 
L 113.15728 191.153264 
L 113.223556 191.04075 
L 113.367488 190.885176 
L 113.573011 190.853228 
" clip-path="url(#paa3f0dd87c)" style="fill: none; stroke: #000000; stroke-width: 2"/>
    <path d="M 14.17661 55.329987 
L 14.099623 55.371658 
L 14.044058 55.329987 
L 14.003891 55.204972 
L 14.146484 55.179969 
L 14.214099 55.177191 
L 14.281044 55.196637 
L 14.17661 55.329987 
" clip-path="url(#paa3f0dd87c)" style="fill: none; stroke: #000000; stroke-width: 2"/>
    <path d="M 93.709663 46.656722 
L 94.397861 47.370696 
L 93.606568 46.676168 
L 93.605898 46.676168 
L 93.472677 46.549764 
L 93.438535 46.495591 
L 93.709663 46.656722 
" clip-path="url(#paa3f0dd87c)" style="fill: none; stroke: #000000; stroke-width: 2"/>
    <path d="M 92.136448 40.775459 
L 91.943646 40.915753 
L 91.931596 40.753234 
L 92.226824 40.622663 
L 92.136448 40.775459 
" clip-path="url(#paa3f0dd87c)" style="fill: none; stroke: #000000; stroke-width: 2"/>
    <path d="M 143.711796 22.756625 
L 143.364349 22.756625 
L 143.088535 22.67606 
L 142.783933 22.481592 
L 142.600503 22.281568 
L 142.68954 22.176 
L 143.711796 22.651057 
L 143.711796 22.756625 
" clip-path="url(#paa3f0dd87c)" style="fill: none; stroke: #000000; stroke-width: 2"/>
   </g>
  </g>
 </g>
 <defs>
  <clipPath id="paa3f0dd87c">
   <rect x="0" y="-0" width="168.046689" height="266.112"/>
  </clipPath>
 </defs>
</svg>
