<?xml version="1.0" encoding="utf-8" standalone="no"?>
<!DOCTYPE svg PUBLIC "-//W3C//DTD SVG 1.1//EN"
  "http://www.w3.org/Graphics/SVG/1.1/DTD/svg11.dtd">
<svg xmlns:xlink="http://www.w3.org/1999/xlink" width="221.067315pt" height="266.112pt" viewBox="0 0 221.067315 266.112" xmlns="http://www.w3.org/2000/svg" version="1.1">
 <metadata>
  <rdf:RDF xmlns:dc="http://purl.org/dc/elements/1.1/" xmlns:cc="http://creativecommons.org/ns#" xmlns:rdf="http://www.w3.org/1999/02/22-rdf-syntax-ns#">
   <cc:Work>
    <dc:type rdf:resource="http://purl.org/dc/dcmitype/StillImage"/>
    <dc:date>2024-02-02T21:58:00.702572</dc:date>
    <dc:format>image/svg+xml</dc:format>
    <dc:creator>
     <cc:Agent>
      <dc:title>Matplotlib v3.8.2, https://matplotlib.org/</dc:title>
     </cc:Agent>
    </dc:creator>
   </cc:Work>
  </rdf:RDF>
 </metadata>
 <defs>
  <style type="text/css">*{stroke-linejoin: round; stroke-linecap: butt}</style>
 </defs>
 <g id="figure_1">
  <g id="patch_1">
   <path d="M 0 266.112 
L 221.067315 266.112 
L 221.067315 0 
L 0 0 
L 0 266.112 
z
" style="fill: none"/>
  </g>
  <g id="axes_1">
   <g id="PatchCollection_1">
    <path d="M 62.079158 157.7479 
L 62.292721 157.860604 
L 62.562663 157.770604 
L 62.821139 157.917084 
L 62.890244 158.145206 
L 62.987172 158.260184 
L 63.020995 158.415684 
L 62.990706 158.495713 
L 63.008375 158.555481 
L 63.299157 158.912066 
L 63.414258 159.181531 
L 63.427889 159.581675 
L 63.29007 159.924078 
L 62.953348 160.02538 
L 62.6661 159.854179 
L 62.331397 159.514816 
L 62.052731 159.142023 
L 61.936115 158.874077 
L 61.974987 158.701357 
L 62.059799 158.62538 
L 62.143601 158.567131 
L 62.20229 158.434981 
L 62.112438 158.299801 
L 61.932689 157.961878 
L 61.955371 157.815438 
L 62.079158 157.7479 
" clip-path="url(#p8bb2165fa5)" style="fill: none; stroke: #000000; stroke-width: 2"/>
    <path d="M 66.998048 159.101502 
L 66.607309 159.117203 
L 66.237269 159.02907 
L 66.010095 158.912066 
L 66.101469 158.835076 
L 66.010095 158.742891 
L 66.269073 158.496726 
L 66.265034 158.3392 
L 66.100964 158.257145 
L 65.879344 158.232833 
L 65.687509 158.104685 
L 65.610774 157.842312 
L 65.658733 157.625018 
L 65.8329 157.637174 
L 66.0106 157.746581 
L 66.476053 158.360474 
L 66.664355 158.506856 
L 67.082354 158.746943 
L 67.288325 158.912066 
L 66.998048 159.101502 
" clip-path="url(#p8bb2165fa5)" style="fill: none; stroke: #000000; stroke-width: 2"/>
    <path d="M 66.21758 157.412283 
L 66.356913 157.467493 
L 66.389223 157.38949 
L 66.42557 157.353021 
L 66.468986 157.330228 
L 66.518459 157.290213 
L 66.864268 157.637174 
L 66.913236 157.733918 
L 66.971797 157.970966 
L 67.026318 158.062645 
L 67.503383 158.429866 
L 67.671491 158.611198 
L 67.609902 158.796581 
L 67.401912 158.822413 
L 67.08084 158.661342 
L 66.518459 158.232833 
L 66.177194 157.780011 
L 66.101469 157.637174 
L 66.061588 157.490792 
L 66.046443 157.34593 
L 66.078247 157.284135 
L 66.179213 157.382398 
L 66.21758 157.412283 
" clip-path="url(#p8bb2165fa5)" style="fill: none; stroke: #000000; stroke-width: 2"/>
    <path d="M 62.223908 154.68223 
L 62.038658 154.728629 
L 61.888115 154.68223 
L 61.888099 154.55462 
L 62.084955 154.531424 
L 62.143263 154.346073 
L 62.201516 154.1029 
L 62.30594 153.975729 
L 62.47924 153.824821 
L 62.583126 153.836024 
L 62.560055 154.010035 
L 62.560039 154.183905 
L 62.548129 154.357489 
L 62.362836 154.56623 
L 62.223908 154.68223 
" clip-path="url(#p8bb2165fa5)" style="fill: none; stroke: #000000; stroke-width: 2"/>
    <path d="M 20.177066 141.513364 
L 20.220986 141.6795 
L 20.201298 141.706346 
L 20.144757 141.724074 
L 20.093264 141.777764 
L 20.028646 141.771686 
L 19.878711 141.903379 
L 19.811569 141.918574 
L 19.767144 141.889197 
L 19.754523 141.858299 
L 19.775221 141.79144 
L 19.834791 141.720021 
L 19.905972 141.695709 
L 19.927175 141.662279 
L 19.939291 141.552872 
L 20.004414 141.517417 
L 20.074081 141.526534 
L 20.140718 141.502728 
L 20.177066 141.513364 
" clip-path="url(#p8bb2165fa5)" style="fill: none; stroke: #000000; stroke-width: 2"/>
    <path d="M 72.648107 138.105042 
L 72.903551 138.23319 
L 73.16152 138.201786 
L 73.415449 138.142018 
L 73.656758 138.190136 
L 73.429584 138.551786 
L 73.269048 138.699181 
L 73.111541 138.635361 
L 72.894464 138.360325 
L 72.589042 138.475809 
L 72.293717 138.524435 
L 71.642486 138.518356 
L 71.398148 138.465173 
L 71.24266 138.453016 
L 71.051834 138.489485 
L 70.941781 138.577618 
L 70.864037 138.687025 
L 70.768624 138.785795 
L 70.311753 138.925592 
L 70.26026 138.963581 
L 70.209777 138.858733 
L 70.214826 138.686012 
L 70.275405 138.524435 
L 70.391516 138.453016 
L 70.556596 138.399326 
L 70.828699 138.159239 
L 70.984187 138.105042 
L 71.149771 138.124796 
L 71.45065 138.192669 
L 71.623302 138.190136 
L 71.565247 138.089847 
L 71.376945 137.959673 
L 71.285066 137.850267 
L 71.716191 137.850267 
L 71.419855 137.776822 
L 71.452669 137.657792 
L 71.656621 137.526099 
L 71.877736 137.418212 
L 71.810089 137.395418 
L 71.768693 137.370093 
L 71.71922 137.347806 
L 71.623302 137.333117 
L 71.639457 137.280947 
L 71.656116 137.244984 
L 71.716191 137.162929 
L 72.046855 137.333117 
L 72.237176 137.491149 
L 72.370451 137.667922 
L 72.470912 137.871034 
L 72.648107 138.105042 
" clip-path="url(#p8bb2165fa5)" style="fill: none; stroke: #000000; stroke-width: 2"/>
    <path d="M 95.199739 62.354682 
L 95.063968 62.496329 
L 94.944223 62.480449 
L 94.800516 62.440909 
L 94.696752 62.503907 
L 94.664851 62.661525 
L 94.616994 62.748199 
L 94.513134 62.748068 
L 94.465181 62.598278 
L 94.449221 62.393378 
L 94.48915 62.235779 
L 94.561026 62.141251 
L 94.697141 62.015767 
L 94.792946 62.078918 
L 94.944355 62.141676 
L 95.167879 62.204969 
L 95.199739 62.354682 
" clip-path="url(#p8bb2165fa5)" style="fill: none; stroke: #000000; stroke-width: 2"/>
    <path d="M 143.327364 36.031141 
L 143.972537 36.256539 
L 145.12456 36.30567 
L 145.766199 36.673398 
L 146.181674 36.936785 
L 146.740016 36.979332 
L 147.238284 37.252849 
L 147.806218 37.361242 
L 148.461992 37.744166 
L 148.75025 38.359578 
L 150.134495 40.890621 
L 149.903787 41.435122 
L 149.754862 41.626583 
L 149.422179 41.871229 
L 148.564978 42.335194 
L 148.134862 42.704948 
L 147.701718 42.922749 
L 147.404847 43.690679 
L 147.031122 43.680663 
L 145.556513 44.455161 
L 139.177867 46.191993 
L 138.838066 46.726551 
L 135.747798 52.343269 
L 135.529813 52.398591 
L 134.826488 52.253533 
L 132.86654 52.767828 
L 132.799863 53.117446 
L 132.671636 53.369286 
L 132.336322 53.760073 
L 131.685571 55.105796 
L 130.587949 56.068772 
L 130.300721 56.62102 
L 129.701901 58.318933 
L 129.366588 58.860889 
L 128.602356 59.741205 
L 128.200365 60.624415 
L 127.801579 61.087249 
L 127.693869 61.568094 
L 127.702844 61.811572 
L 127.453443 64.538718 
L 126.80718 66.726804 
L 126.882834 68.505126 
L 126.932201 68.735417 
L 126.834107 69.057695 
L 126.444939 69.848918 
L 125.762772 70.900988 
L 125.319107 71.972677 
L 125.120996 72.181096 
L 124.440753 72.656795 
L 124.205457 73.209043 
L 123.212981 74.6638 
L 122.630189 75.981862 
L 121.805691 76.746389 
L 121.801844 77.016885 
L 122.143074 77.113255 
L 124.021451 77.008522 
L 124.468963 76.790775 
L 125.11202 76.248819 
L 125.711481 76.002447 
L 126.249393 75.500374 
L 126.610351 75.583677 
L 126.71101 76.191246 
L 126.751401 76.300281 
L 126.902068 76.472356 
L 126.952076 76.77598 
L 126.987338 77.568811 
L 127.209171 77.873078 
L 127.443826 77.932902 
L 128.118941 77.557232 
L 128.512597 77.465566 
L 128.712631 77.504162 
L 128.804954 77.403812 
L 129.314656 77.892376 
L 129.13578 78.178632 
L 129.408262 78.656582 
L 130.681555 83.505557 
L 131.157276 84.169412 
L 133.671805 86.758577 
L 133.911589 86.855389 
L 134.178943 87.19182 
L 134.297552 87.609946 
L 134.216128 88.698682 
L 134.629019 89.472858 
L 134.895731 90.322297 
L 134.919453 90.800569 
L 134.718137 91.085538 
L 134.010965 91.070743 
L 133.394835 92.052052 
L 133.009513 92.24825 
L 133.023618 92.502985 
L 133.371113 92.941052 
L 133.456384 93.696896 
L 133.426892 93.915608 
L 133.178773 94.675954 
L 133.101196 96.234599 
L 133.312129 96.958922 
L 133.122353 98.033184 
L 133.462154 98.583824 
L 134.150689 98.991215 
L 135.068837 99.208439 
L 136.087599 99.193001 
L 136.503055 99.310076 
L 137.02622 99.970072 
L 136.899917 100.583109 
L 137.024938 101.315151 
L 137.158935 101.666377 
L 138.056523 103.234671 
L 139.138117 103.903673 
L 140.944833 104.264548 
L 141.271171 104.151332 
L 141.684702 103.942912 
L 141.896277 103.924901 
L 141.864861 103.703616 
L 143.160594 103.718411 
L 143.19265 103.422506 
L 143.770954 103.414787 
L 144.264627 103.670809 
L 144.59994 103.599406 
L 144.661489 103.711335 
L 145.418028 103.703616 
L 145.665506 103.908819 
L 146.527831 103.69654 
L 147.133703 103.821334 
L 147.838951 103.742855 
L 147.976154 103.973789 
L 148.049884 104.258115 
L 148.21722 104.328875 
L 148.967989 104.413787 
L 149.184692 104.529575 
L 149.56232 104.348816 
L 149.780306 104.161624 
L 150.655775 104.256185 
L 151.328325 104.177063 
L 151.947981 103.946129 
L 152.60835 103.399349 
L 152.764145 103.21087 
L 153.02124 103.202508 
L 153.495038 103.044263 
L 154.035515 103.00438 
L 155.149165 102.819762 
L 155.94353 103.149116 
L 156.496829 103.030754 
L 156.784699 103.075783 
L 157.538673 103.942912 
L 157.868216 103.99759 
L 158.328871 104.004666 
L 158.443313 104.150689 
L 158.627639 104.215659 
L 159.916319 104.831913 
L 160.30645 104.848638 
L 161.005607 104.455599 
L 161.9173 104.318582 
L 162.271847 104.405424 
L 162.88958 105.024251 
L 170.777456 114.990123 
L 171.242599 114.901673 
L 172.17 114.565243 
L 172.41876 114.691645 
L 173.228192 115.507634 
L 173.934722 115.109771 
L 175.286554 113.905247 
L 175.523132 113.800072 
L 176.080919 113.847996 
L 176.547345 114.05545 
L 176.766613 113.992732 
L 177.610025 114.217233 
L 178.665332 114.217233 
L 180.80608 114.820299 
L 180.971492 114.745037 
L 181.43375 114.395419 
L 182.205676 114.354571 
L 183.385363 114.05545 
L 183.642458 114.085684 
L 184.456057 114.310507 
L 184.914468 114.308578 
L 186.327529 113.800072 
L 186.870569 113.726096 
L 188.452248 113.877586 
L 189.62937 113.591974 
L 189.791577 113.37101 
L 189.875566 113.086685 
L 190.45451 112.921042 
L 190.832139 112.610343 
L 191.159758 112.670167 
L 192.025931 112.743821 
L 193.973697 113.197649 
L 194.66484 113.741534 
L 195.00977 114.001737 
L 195.512419 114.047731 
L 195.433779 114.10648 
L 195.053367 114.435624 
L 194.99823 114.607698 
L 195.000794 115.086614 
L 195.458564 115.804825 
L 195.777849 116.032865 
L 195.901588 116.569674 
L 195.853503 116.782597 
L 195.700913 116.908035 
L 195.075166 117.207799 
L 193.338974 119.194219 
L 193.041488 120.221844 
L 193.042129 120.792747 
L 193.246651 121.826161 
L 193.473612 122.06771 
L 193.365901 122.319872 
L 193.204336 122.49259 
L 192.999814 123.010101 
L 192.717074 123.144223 
L 192.383684 123.465215 
L 191.950918 123.659161 
L 191.706646 123.871119 
L 191.509818 123.860184 
L 191.048201 124.244216 
L 190.740456 124.735997 
L 190.627617 125.259619 
L 190.976394 126.745253 
L 190.827651 127.332881 
L 190.909075 127.707586 
L 191.229001 128.303576 
L 191.086028 128.515212 
L 191.086669 129.305149 
L 190.842397 130.268769 
L 190.856502 130.641544 
L 190.997551 131.097623 
L 190.938567 131.254259 
L 191.002039 131.37037 
L 190.914845 131.603234 
L 190.789824 132.351358 
L 190.603254 132.82191 
L 190.417325 134.462251 
L 190.258964 134.604735 
L 190.27884 134.915435 
L 190.578249 135.210053 
L 190.578249 135.125463 
L 190.898175 135.454818 
L 191.052689 135.939522 
L 191.255287 136.067855 
L 191.384796 136.879341 
L 191.393131 137.189397 
L 191.171299 137.597874 
L 191.108467 138.065854 
L 191.445704 139.491663 
L 191.911809 139.930052 
L 192.154158 140.474581 
L 192.390095 141.25905 
L 192.486265 142.296645 
L 193.099831 143.466433 
L 193.256909 144.372159 
L 193.71532 144.757478 
L 194.426979 144.700227 
L 194.893725 144.91926 
L 195.246349 145.390456 
L 196.254853 147.817838 
L 196.437576 147.944241 
L 196.903681 148.128538 
L 197.315289 148.556635 
L 197.255664 149.076719 
L 196.935096 149.597447 
L 196.032379 150.653376 
L 195.252119 151.038695 
L 190.690448 155.273347 
L 190.484003 155.621356 
L 190.475668 156.473047 
L 190.755844 156.155914 
L 190.880224 156.005389 
L 191.777171 155.821413 
L 192.017596 156.017611 
L 192.836966 156.328954 
L 193.321022 156.178429 
L 193.721731 156.64287 
L 193.81149 156.866728 
L 193.953822 157.701051 
L 194.101283 157.817483 
L 194.887954 157.897248 
L 195.127098 158.168708 
L 195.366241 158.581045 
L 195.683602 158.790751 
L 195.972113 159.185076 
L 196.216385 159.341391 
L 196.47925 159.700979 
L 196.86906 159.949282 
L 197.166546 160.460039 
L 197.438387 160.598342 
L 197.787805 160.904539 
L 198.643078 161.299507 
L 198.786051 161.518219 
L 198.859782 161.866229 
L 198.939282 162.115818 
L 198.399447 162.991953 
L 199.182913 164.652234 
L 199.593881 164.821415 
L 199.67274 165.021793 
L 199.67274 165.914332 
L 199.449625 166.418334 
L 200.265789 167.621894 
L 201.367258 170.731786 
L 201.415343 171.531694 
L 201.96736 172.783177 
L 201.929533 173.466009 
L 202.445005 174.08966 
L 202.552716 174.693691 
L 202.324472 175.154916 
L 202.386662 175.449534 
L 202.645039 175.982162 
L 201.365335 176.301868 
L 200.026646 176.561106 
L 199.922783 176.24719 
L 199.876621 175.59813 
L 200.181801 172.015112 
L 200.065755 171.225497 
L 199.641325 169.916441 
L 199.163038 168.941886 
L 197.514041 166.616462 
L 196.86906 165.18229 
L 196.358717 164.776064 
L 195.639364 164.566679 
L 193.738401 165.621643 
L 192.785675 166.63576 
L 190.910998 168.992704 
L 190.01341 169.419514 
L 189.124157 169.538519 
L 188.709984 169.416298 
L 188.293888 169.073434 
L 187.705326 168.047096 
L 187.309746 167.020757 
L 186.837871 166.732894 
L 186.391001 166.543451 
L 186.303807 166.11857 
L 186.196737 166.206377 
L 185.292738 168.479052 
L 185.607535 168.518292 
L 185.72358 168.665922 
L 185.72358 169.163492 
L 186.287137 169.244866 
L 186.449985 169.668782 
L 186.662201 169.773313 
L 171.400959 169.723781 
L 170.460415 169.323988 
L 169.557698 169.133259 
L 169.081976 169.164136 
L 168.228947 169.553636 
L 167.021691 169.600595 
L 166.262588 169.946675 
L 165.65928 169.942815 
L 165.750642 170.42559 
L 165.708648 178.012325 
L 165.992029 178.039342 
L 166.820695 177.618 
L 167.248652 177.718994 
L 167.267886 177.992384 
L 167.398037 178.022617 
L 168.877775 177.856654 
L 169.545196 178.059927 
L 170.631277 178.120395 
L 170.732256 178.232967 
L 171.093535 178.395714 
L 171.877642 177.917121 
L 172.078318 177.953787 
L 172.878774 178.400861 
L 173.746549 179.453252 
L 173.676345 179.902898 
L 173.876058 180.095236 
L 174.390889 180.397573 
L 174.299528 180.624004 
L 174.105584 180.688331 
L 174.078016 180.948213 
L 174.200152 181.788968 
L 173.93344 182.297795 
L 174.529695 182.882528 
L 174.499241 183.263988 
L 174.154952 183.323169 
L 173.792711 183.239543 
L 173.274354 183.559892 
L 172.596034 183.505857 
L 172.648607 183.163637 
L 172.532882 183.027264 
L 172.0344 183.105743 
L 171.704216 183.178433 
L 170.600823 182.136977 
L 170.35014 182.077796 
L 169.787545 182.225749 
L 169.157309 182.512004 
L 168.910473 182.61943 
L 168.599843 183.100597 
L 167.662825 182.875452 
L 166.758826 183.473694 
L 165.786546 183.747727 
L 163.61855 183.981878 
L 163.385818 184.047491 
L 163.201812 183.878954 
L 163.03063 193.193515 
L 163.175526 193.453397 
L 164.69822 195.113035 
L 165.715059 195.567184 
L 165.92471 195.969872 
L 167.020409 196.839574 
L 168.223177 197.3246 
L 168.59247 197.729861 
L 168.749869 198.256056 
L 168.84668 198.873596 
L 169.03325 199.223535 
L 168.952146 199.518153 
L 168.485401 200.329961 
L 168.609781 200.622006 
L 169.175902 201.327031 
L 169.169491 201.770888 
L 169.454796 202.069365 
L 169.615079 202.272639 
L 169.776966 202.913337 
L 170.163249 203.102458 
L 170.510744 203.561753 
L 170.736744 203.658244 
L 170.760145 203.781752 
L 170.798613 204.392859 
L 170.721357 204.79426 
L 171.325626 205.922557 
L 171.057507 206.627027 
L 171.091612 207.184654 
L 165.622095 237.477561 
L 164.36483 243.825357 
L 164.309693 243.936 
L 163.748059 242.923492 
L 163.124235 242.326537 
L 161.868574 241.684552 
L 161.537428 241.352625 
L 160.886356 239.633805 
L 160.015054 238.867026 
L 159.53773 238.699776 
L 159.188953 238.737086 
L 158.92192 238.89919 
L 158.434337 239.34562 
L 158.115052 239.48328 
L 157.784548 239.47942 
L 156.989541 239.223398 
L 155.306243 238.338258 
L 154.766728 238.279077 
L 163.248936 224.987816 
L 163.180014 224.964658 
L 162.934459 224.702204 
L 162.562281 223.878817 
L 162.237867 224.161857 
L 162.00802 224.426884 
L 161.871459 224.251914 
L 161.839081 224.001039 
L 161.593527 223.808058 
L 161.176148 223.965016 
L 160.945981 223.877531 
L 160.806534 223.654959 
L 160.47603 222.8959 
L 160.203868 222.760813 
L 159.35116 223.037419 
L 159.205622 222.726076 
L 159.595432 222.27836 
L 159.438995 222.157425 
L 158.771574 222.163858 
L 158.350669 222.301517 
L 158.135569 222.123975 
L 158.019844 221.86152 
L 157.646704 221.620937 
L 157.01134 221.425383 
L 156.696222 221.14363 
L 156.448424 221.397079 
L 156.447783 221.655674 
L 156.351933 221.707135 
L 155.755037 221.640235 
L 155.640274 221.053572 
L 155.202059 220.703633 
L 155.108453 220.182584 
L 154.556757 220.086093 
L 154.099949 219.922702 
L 153.671991 219.64095 
L 153.028934 218.953936 
L 152.652267 218.723645 
L 152.395493 218.838148 
L 152.084543 218.77768 
L 151.558492 218.553822 
L 151.202021 218.544816 
L 151.07123 218.719786 
L 151.09976 219.382355 
L 150.799068 219.36563 
L 150.323988 219.173935 
L 149.696317 219.368203 
L 149.459098 219.957439 
L 148.608953 220.303518 
L 148.324931 220.161999 
L 147.65174 220.42574 
L 147.554287 220.25463 
L 146.247014 220.776966 
L 146.155973 220.42188 
L 146.361136 220.161999 
L 146.316257 220.033345 
L 145.678328 219.226683 
L 145.505863 219.404226 
L 145.287877 220.017906 
L 145.090408 219.922702 
L 145.004496 219.732294 
L 144.928201 218.978381 
L 144.788434 218.871598 
L 143.817756 218.584699 
L 143.342676 218.259204 
L 143.049677 218.206456 
L 142.393797 218.459904 
L 142.287369 218.248912 
L 142.211074 217.743301 
L 141.940515 217.866809 
L 141.03331 218.462478 
L 140.585157 219.149491 
L 139.908119 219.701417 
L 139.851058 219.978023 
L 139.698468 220.131122 
L 139.479841 220.185157 
L 138.298231 220.07966 
L 137.952018 220.216034 
L 137.605165 220.517084 
L 136.872989 221.204098 
L 135.947832 221.029128 
L 135.564434 221.146203 
L 135.540071 221.488423 
L 134.649535 221.683978 
L 134.141116 221.654387 
L 133.757076 221.386786 
L 133.582688 221.13977 
L 132.076663 220.864451 
L 131.29512 220.289367 
L 131.067518 220.25463 
L 130.912363 220.45533 
L 130.428307 221.28129 
L 130.149413 221.322459 
L 129.958355 220.671469 
L 129.704466 220.83486 
L 129.611501 221.103747 
L 129.078078 220.798837 
L 128.096501 221.283863 
L 127.456008 221.390646 
L 127.240587 221.103747 
L 127.029653 220.528663 
L 126.809103 220.299659 
L 125.954471 219.828785 
L 125.777518 220.244338 
L 125.61467 220.39229 
L 125.4281 220.01662 
L 124.683102 219.743873 
L 124.318296 218.943644 
L 124.175323 218.632301 
L 124.231743 218.426454 
L 125.276792 217.009972 
L 125.109456 216.853014 
L 124.531153 215.219106 
L 124.683102 214.791975 
L 124.611295 214.583555 
L 124.252259 214.065079 
L 124.259953 213.46555 
L 123.921434 213.262277 
L 123.463023 212.88918 
L 123.333514 213.26099 
L 122.727001 213.176078 
L 122.305775 213.489994 
L 121.852493 213.119471 
L 121.176738 213.049997 
L 121.117753 212.836431 
L 120.315694 212.343686 
L 120.066934 212.034916 
L 120.093862 211.553749 
L 120.341981 210.952935 
L 120.643314 210.774105 
L 120.655496 210.536095 
L 120.390707 209.464406 
L 119.416183 208.648739 
L 119.670713 208.280788 
L 119.405925 208.108391 
L 119.32386 207.923129 
L 119.1998 207.447109 
L 118.96226 207.40208 
L 118.82121 206.935065 
L 118.757097 206.824423 
L 117.80373 206.47577 
L 117.394686 206.154135 
L 117.291143 205.930276 
L 117.104252 205.99975 
L 116.90486 206.314952 
L 116.549671 206.428168 
L 116.020094 206.268637 
L 115.727416 206.02548 
L 115.036915 204.989815 
L 114.64967 205.077299 
L 114.462779 204.883032 
L 114.564719 204.561396 
L 114.398986 204.506075 
L 114.17491 204.704202 
L 114.03963 204.787828 
L 113.786382 204.639875 
L 113.726436 204.533092 
L 113.293991 203.534736 
L 113.101971 203.898827 
L 112.763773 203.90912 
L 112.008196 203.619648 
L 111.268006 203.484561 
L 110.938463 203.303159 
L 110.660852 202.939067 
L 110.36016 202.209598 
L 109.974838 201.887963 
L 110.060109 201.741297 
L 110.660852 201.61007 
L 110.394781 200.934636 
L 109.976121 200.835572 
L 109.469625 200.187155 
L 109.531815 199.842362 
L 109.720949 199.617217 
L 108.832016 197.894538 
L 108.765659 197.866234 
L 108.346998 197.379921 
L 107.270534 196.66975 
L 106.74865 196.116538 
L 106.279019 195.429524 
L 105.617369 195.489992 
L 105.338475 195.273853 
L 104.438002 195.091164 
L 104.535455 194.923914 
L 104.876859 194.664032 
L 104.276757 193.55246 
L 104.016777 193.322169 
L 103.869316 193.356906 
L 103.420522 193.962867 
L 103.090338 193.89854 
L 102.401118 193.69012 
L 102.235706 193.561466 
L 101.534946 192.914336 
L 101.211814 192.87188 
L 101.0682 192.732933 
L 100.344359 191.873524 
L 100.083418 191.74101 
L 99.276229 191.562181 
L 98.966562 191.730717 
L 98.862057 192.130832 
L 98.511997 192.466619 
L 98.324145 192.532233 
L 98.094939 192.395859 
L 97.307306 192.106388 
L 96.612957 191.973874 
L 96.073122 191.694694 
L 95.351205 191.249551 
L 94.546581 190.653882 
L 93.584559 190.164996 
L 92.764228 190.314235 
L 92.043593 190.149558 
L 91.196654 189.584766 
L 91.092791 189.413656 
L 90.030431 188.661029 
L 89.837449 188.221032 
L 89.775901 188.064074 
L 88.771243 186.674609 
L 87.88776 186.723498 
L 87.743505 186.261629 
L 87.501156 186.205022 
L 86.927341 186.198589 
L 86.411228 186.028765 
L 86.172726 185.871807 
L 85.706621 185.453681 
L 85.343739 185.663388 
L 85.209742 185.765024 
L 84.785952 186.176718 
L 84.274968 186.278354 
L 84.244193 187.205951 
L 84.37242 188.031911 
L 84.153152 188.178576 
L 82.922174 188.321382 
L 82.419525 188.510504 
L 82.18487 188.429452 
L 81.657216 187.981735 
L 80.874391 187.862087 
L 80.292241 187.802906 
L 80.323657 188.298225 
L 80.134522 188.303371 
L 79.535703 188.088518 
L 78.486166 188.21074 
L 78.096356 187.990741 
L 77.699494 187.62665 
L 77.339176 187.528873 
L 76.842938 187.519867 
L 76.474286 187.395072 
L 75.999847 186.857298 
L 75.355507 186.789111 
L 74.460483 187.039987 
L 71.76259 186.117537 
L 71.579867 185.42795 
L 71.467668 185.009824 
L 71.388167 183.701412 
L 71.220831 183.098024 
L 70.649125 182.977708 
L 70.286699 183.028551 
L 69.834058 182.848435 
L 69.018535 182.283643 
L 68.755029 181.892534 
L 68.674246 180.997101 
L 68.30367 180.705056 
L 67.997208 180.702483 
L 66.758536 181.130902 
L 66.242423 181.066575 
L 65.821839 180.842073 
L 65.635269 180.315234 
L 65.377533 180.338392 
L 64.5338 180.01933 
L 63.654164 179.987166 
L 63.13228 179.732431 
L 61.263694 178.372557 
L 60.288529 178.057354 
L 59.995851 177.833496 
L 58.601384 176.353973 
L 57.727838 176.211167 
L 57.548641 176.31409 
L 57.478758 176.11339 
L 57.171654 175.709416 
L 57.150497 175.470119 
L 56.860063 175.490704 
L 56.665158 175.522867 
L 56.131414 175.243044 
L 55.068413 173.846182 
L 54.340303 173.345469 
L 54.536314 173.252445 
L 54.299549 172.896874 
L 54.019873 172.650202 
L 53.863376 171.777481 
L 53.46011 171.963709 
L 53.230388 171.727474 
L 52.948936 171.594964 
L 52.057073 170.989214 
L 51.947581 170.806265 
L 52.105665 170.477017 
L 52.762349 170.135702 
L 53.127072 169.525761 
L 54.124457 168.524847 
L 54.983089 168.439564 
L 55.469985 168.472376 
L 55.970537 168.643182 
L 57.083626 168.80893 
L 57.415507 169.038774 
L 57.534087 169.015032 
L 57.589963 168.547467 
L 57.756203 168.365178 
L 57.843446 168.048102 
L 57.762179 167.658522 
L 57.854563 167.365252 
L 57.817953 167.292143 
L 57.768957 167.341532 
L 57.530784 167.588496 
L 57.284257 167.588043 
L 57.199371 167.193132 
L 57.306318 166.190649 
L 56.953946 165.912574 
L 56.715666 166.150128 
L 56.45454 166.615232 
L 56.3632 166.516606 
L 56.300201 165.918114 
L 56.038603 164.903779 
L 55.897291 163.941231 
L 56.280168 162.97794 
L 56.614195 162.84007 
L 56.718695 162.487537 
L 57.68595 160.712718 
L 57.595585 161.131603 
L 57.68595 161.554541 
L 58.107094 160.135843 
L 58.3377 160.193545 
L 59.2588 158.996578 
L 59.52342 158.893223 
L 60.328229 158.237774 
L 60.477671 158.249482 
L 60.925713 159.193849 
L 61.17827 159.550751 
L 61.460565 159.558376 
L 61.258841 158.779826 
L 61.373802 158.215922 
L 61.557578 158.0434 
L 61.695357 158.262306 
L 61.787096 158.642214 
L 61.706623 158.91832 
L 62.333417 159.890648 
L 63.09571 160.159099 
L 63.565707 159.786306 
L 63.608113 159.563441 
L 63.508756 158.735565 
L 63.313943 158.309744 
L 63.42883 158.194636 
L 63.7043 158.252284 
L 63.830645 158.160295 
L 64.72642 158.0455 
L 65.002268 157.884419 
L 65.243494 157.9075 
L 65.546156 158.29716 
L 65.776359 158.468361 
L 66.010095 158.403021 
L 65.794533 158.857363 
L 65.808668 159.08428 
L 66.452831 159.257001 
L 67.072763 159.182544 
L 67.376166 159.112645 
L 67.707839 158.715539 
L 67.628076 158.337681 
L 67.309023 157.946653 
L 67.118702 157.815973 
L 67.373137 157.815973 
L 67.373137 157.722268 
L 67.132333 157.606277 
L 67.118702 157.043035 
L 66.943021 156.916914 
L 66.949079 156.787753 
L 67.167166 156.877406 
L 67.926935 156.518288 
L 67.778515 156.430662 
L 67.465521 156.524873 
L 67.327702 156.318722 
L 67.628076 156.179938 
L 68.362099 156.376465 
L 68.481744 156.44839 
L 68.360584 156.181964 
L 67.903713 156.065466 
L 68.241949 155.742311 
L 68.588263 155.677478 
L 68.736178 155.505263 
L 69.02696 155.676465 
L 69.066337 155.768143 
L 69.136508 155.478925 
L 68.867939 155.388259 
L 68.158148 155.403454 
L 68.218222 154.875162 
L 68.38936 154.74043 
L 68.67257 154.861993 
L 68.905801 155.080806 
L 69.086025 155.100053 
L 69.159731 154.909605 
L 69.33945 154.707506 
L 69.286948 154.503382 
L 69.069366 154.337246 
L 69.29654 154.081964 
L 69.163264 153.91988 
L 68.966381 153.911269 
L 68.905801 153.797304 
L 68.905801 153.967492 
L 68.633193 154.075885 
L 68.524149 154.031312 
L 68.481744 153.889995 
L 68.051124 154.230372 
L 68.072831 154.079937 
L 68.991973 152.936562 
L 69.938334 152.137119 
L 70.332866 151.405553 
L 70.512864 151.349426 
L 70.717132 151.433917 
L 70.888269 151.072267 
L 71.076584 151.024405 
L 71.005215 150.896936 
L 70.814605 150.809124 
L 70.34561 150.904153 
L 70.305997 150.792661 
L 70.759535 150.33942 
L 71.260447 150.101234 
L 71.101715 149.957738 
L 71.21338 149.565392 
L 71.501133 149.334423 
L 71.828768 149.309604 
L 72.059475 149.249835 
L 72.301289 149.030515 
L 72.763209 149.755334 
L 73.071155 149.872845 
L 73.014614 149.734061 
L 72.49161 149.055334 
L 72.530987 148.655189 
L 72.648107 148.505262 
L 72.692532 148.611123 
L 72.858117 148.787389 
L 72.894464 148.729647 
L 72.795518 148.176535 
L 72.979781 147.748026 
L 72.894464 147.485146 
L 73.147889 147.485146 
L 73.109522 147.545927 
L 73.071155 147.786014 
L 73.184237 147.878199 
L 73.302367 147.799183 
L 73.57649 147.848315 
L 73.749142 147.994697 
L 73.733997 147.875667 
L 73.605265 147.713076 
L 73.494708 147.662932 
L 73.605265 147.594552 
L 73.656758 147.57024 
L 73.318522 147.485146 
L 73.370519 147.368648 
L 73.480068 147.359024 
L 73.579519 147.408156 
L 73.617381 147.223785 
L 73.187266 147.173134 
L 72.986344 147.230877 
L 73.035817 147.036376 
L 73.367995 147.046506 
L 73.579519 147.060688 
L 73.514396 147.027259 
L 73.318522 146.897591 
L 73.431099 146.842382 
L 73.579519 146.805406 
L 73.541657 146.754755 
L 73.494708 146.628127 
L 74.003576 146.550124 
L 74.003576 146.628127 
L 73.943502 146.741586 
L 74.064661 146.73956 
L 74.427129 146.628127 
L 74.250438 146.583554 
L 74.265583 146.385001 
L 74.563433 145.969661 
L 74.680554 145.608011 
L 74.924387 145.736665 
L 75.560473 145.415536 
L 75.201538 145.377548 
L 74.908737 145.426173 
L 74.945085 145.204827 
L 75.343901 145.087316 
L 75.459002 144.927765 
L 74.562423 145.017417 
L 74.536677 144.601064 
L 74.603315 144.417707 
L 75.13793 144.730225 
L 75.469098 144.724653 
L 75.436789 144.669443 
L 75.235867 144.587895 
L 74.921358 144.529139 
L 74.857749 144.417707 
L 75.235867 144.400485 
L 75.459002 144.162424 
L 75.148531 143.891947 
L 75.162162 143.72733 
L 75.366113 143.560181 
L 75.542804 143.778994 
L 75.535736 143.908155 
L 75.717475 143.729863 
L 75.607422 143.242598 
L 76.17687 143.054175 
L 76.636266 142.377981 
L 75.873972 142.540572 
L 75.960803 142.426606 
L 76.043595 142.377981 
L 75.459002 142.285289 
L 75.501408 142.825232 
L 74.78051 143.238039 
L 73.886961 143.389486 
L 73.409896 143.143321 
L 73.435642 143.028343 
L 73.656758 142.834349 
L 73.397275 142.680369 
L 73.147889 142.41597 
L 73.303377 141.791946 
L 73.494708 141.606056 
L 73.791043 141.617706 
L 73.802149 141.713943 
L 73.656758 141.852728 
L 74.427129 141.690644 
L 74.427129 141.606056 
L 74.003576 141.690644 
L 74.145939 141.392814 
L 74.479631 141.001787 
L 74.680554 140.569732 
L 74.460448 140.509457 
L 74.427129 140.408154 
L 74.237313 140.449688 
L 73.749142 140.060687 
L 73.802149 140.181237 
L 73.749142 140.569732 
L 73.425041 140.513509 
L 73.318522 140.662424 
L 73.38314 140.723205 
L 73.355374 140.743466 
L 73.318522 140.840209 
L 73.225128 140.77335 
L 73.071155 140.747518 
L 73.071155 141.326461 
L 72.732919 142.285289 
L 72.535025 142.303524 
L 72.315929 142.030007 
L 72.393673 141.852728 
L 71.683377 141.250484 
L 71.68792 140.859963 
L 71.962548 140.840209 
L 71.767683 140.569732 
L 71.63037 139.853017 
L 71.734365 139.16264 
L 72.050388 139.001569 
L 72.343695 138.998024 
L 72.560267 138.655115 
L 72.852564 138.661699 
L 73.143346 138.932177 
L 73.541657 138.746794 
L 74.09596 138.105042 
L 72.852564 138.062495 
L 72.681426 137.850267 
L 72.22405 137.085433 
L 72.648107 136.397589 
L 72.870233 135.670237 
L 73.147889 135.455476 
L 72.894464 135.540063 
L 73.071155 132.897588 
L 73.227652 133.177183 
L 73.318522 133.245562 
L 73.409896 132.917342 
L 73.367995 132.7274 
L 73.072165 132.573927 
L 72.986344 132.040569 
L 73.264505 132.081597 
L 73.641613 132.437675 
L 73.826381 132.643319 
L 73.68099 132.2452 
L 73.154957 131.609021 
L 73.071155 131.189628 
L 73.0131 131.21546 
L 72.809653 131.282827 
L 72.702629 130.774795 
L 72.40175 127.103086 
L 72.573897 126.275445 
L 72.732919 125.912782 
L 72.554209 125.804388 
L 72.516851 125.132753 
L 72.399731 125.030437 
L 72.301289 124.290929 
L 72.118036 124.349685 
L 71.959014 124.152651 
L 72.046855 123.942955 
L 72.204362 124.017413 
L 72.301289 123.942955 
L 72.123084 123.747948 
L 71.904997 123.156341 
L 71.623302 123.092521 
L 71.115443 122.668063 
L 70.808001 122.705545 
L 70.692395 122.923346 
L 70.39606 122.798744 
L 70.176459 122.837239 
L 70.118908 122.587528 
L 70.499045 122.360104 
L 70.938247 121.555762 
L 72.22405 121.202217 
L 72.615798 121.392665 
L 73.002498 121.150046 
L 73.126686 120.690639 
L 73.318522 120.667339 
L 73.513386 120.4232 
L 73.870301 120.110176 
L 74.003576 119.677614 
L 73.970258 119.158945 
L 73.782461 118.721319 
L 73.138802 117.527469 
L 72.555723 116.185718 
L 72.555723 116.525081 
L 72.478484 116.525081 
L 72.278572 115.981087 
L 71.960529 115.491289 
L 71.06496 114.345051 
L 71.018515 114.161694 
L 71.115443 112.770811 
L 72.002934 113.446498 
L 72.301289 112.770811 
L 72.339151 112.132605 
L 72.301289 111.997873 
L 72.108949 111.584559 
L 72.426992 111.55822 
L 72.555723 111.65851 
L 72.562286 111.293821 
L 72.301289 110.978263 
L 72.55118 110.461114 
L 72.555723 110.205832 
L 72.716259 110.019435 
L 72.743015 109.464804 
L 72.648107 109.270304 
L 71.877736 108.59107 
L 71.833311 107.81408 
L 71.709123 107.778624 
L 71.288095 107.540564 
L 70.996303 107.610462 
L 70.607584 107.987814 
L 70.692395 108.158002 
L 70.592439 108.176743 
L 70.353149 108.250694 
L 70.429883 107.647944 
L 69.66759 106.203371 
L 69.134489 105.738899 
L 68.516577 105.679637 
L 68.499918 105.881229 
L 68.38936 105.940997 
L 68.326761 105.079926 
L 68.439843 104.720302 
L 68.781613 104.573414 
L 68.929528 104.354601 
L 68.777069 103.869868 
L 68.304548 103.135932 
L 68.481744 103.476308 
L 68.38936 103.476308 
L 68.178846 103.186076 
L 67.131323 102.135063 
L 66.785009 102.037306 
L 66.611348 101.732892 
L 66.359942 101.551054 
L 65.913469 101.137177 
L 66.852142 98.131604 
L 67.42211 98.154119 
L 67.843977 97.782308 
L 67.955534 97.461959 
L 67.918348 97.195002 
L 67.526615 96.265476 
L 67.468272 95.736064 
L 67.54649 95.278698 
L 67.843977 95.115308 
L 67.972204 95.184138 
L 68.707585 95.881443 
L 68.692197 96.072494 
L 68.830041 96.121383 
L 69.267936 96.751145 
L 69.550676 97.515351 
L 69.832134 97.486404 
L 70.708565 96.668163 
L 72.812768 95.260044 
L 72.735191 95.029753 
L 72.48066 94.788526 
L 72.354998 94.27198 
L 72.720445 93.808825 
L 73.037806 93.096724 
L 73.300671 92.834269 
L 74.098242 92.496552 
L 75.002242 92.371758 
L 74.784256 92.049479 
L 74.531649 91.839773 
L 74.427144 91.357963 
L 74.161073 90.386624 
L 73.003826 88.364181 
L 72.383208 88.014242 
L 71.788235 85.934226 
L 71.449716 85.757004 
L 70.964378 85.719695 
L 71.068241 85.065488 
L 71.704247 84.238564 
L 71.643339 83.795029 
L 72.045971 83.623597 
L 72.376155 83.512633 
L 72.478484 83.170732 
L 72.664767 83.283684 
L 72.940404 83.978619 
L 73.320541 84.466897 
L 73.619401 85.443959 
L 74.427129 85.990993 
L 75.235867 86.373916 
L 75.370152 86.531948 
L 76.372745 88.176087 
L 76.807908 88.408577 
L 77.321825 88.455682 
L 77.499021 88.29765 
L 77.568687 88.62587 
L 77.399064 88.548374 
L 77.48539 89.080212 
L 77.637849 89.162267 
L 77.830694 89.058939 
L 77.830694 89.313208 
L 77.999307 89.135928 
L 78.050295 89.26357 
L 77.858965 89.628765 
L 77.661071 89.567984 
L 77.740834 90.011688 
L 78.041208 90.197578 
L 78.321389 90.156044 
L 78.346631 89.915958 
L 79.108924 89.915958 
L 79.0332 90.023845 
L 78.931729 90.426522 
L 79.193736 90.333324 
L 79.193736 90.426522 
L 78.762106 90.6737 
L 78.947379 90.725364 
L 79.024113 90.935567 
L 78.970601 90.876305 
L 78.684867 90.843888 
L 79.108924 91.275943 
L 78.462237 91.038896 
L 78.172969 91.066754 
L 78.010919 91.342803 
L 78.077556 91.35344 
L 77.850383 92.056479 
L 78.181046 92.493093 
L 78.844393 92.701776 
L 79.910595 92.643527 
L 80.125147 92.465741 
L 80.138778 92.205394 
L 80.151903 91.985567 
L 80.29477 91.743454 
L 80.352826 90.628621 
L 80.202386 90.333324 
L 80.171087 90.431081 
L 80.125147 90.6737 
L 80.061539 90.475147 
L 80.013075 89.899243 
L 80.155437 89.480357 
L 79.879295 88.39794 
L 79.821744 86.42862 
L 79.404755 86.086724 
L 79.278547 85.651123 
L 78.640947 85.123337 
L 78.188114 84.910602 
L 77.683284 84.825508 
L 78.346631 83.893525 
L 81.310994 82.954957 
L 81.385708 82.553293 
L 81.488189 82.406404 
L 81.403377 82.406404 
L 81.403377 82.313206 
L 81.640143 82.273698 
L 82.649803 81.849241 
L 83.196534 81.298662 
L 84.121888 80.528256 
L 84.031019 80.380355 
L 84.138548 80.281078 
L 85.415263 79.897648 
L 85.583876 79.69707 
L 85.696958 79.543596 
L 86.255301 79.075579 
L 86.146762 78.642511 
L 86.271455 78.286432 
L 87.120579 77.303798 
L 87.348763 76.093234 
L 87.983839 75.858718 
L 88.033817 75.498588 
L 88.106513 75.16429 
L 88.466962 74.887734 
L 89.720872 74.405997 
L 90.014173 74.159788 
L 90.131871 73.681308 
L 90.41046 73.710745 
L 90.551406 73.837734 
L 91.383871 73.733899 
L 91.779153 73.646272 
L 91.939689 73.810382 
L 91.938174 73.961829 
L 91.584288 73.864579 
L 91.260187 74.038313 
L 91.509573 74.106692 
L 91.679196 74.111757 
L 91.768551 74.293595 
L 92.386968 73.91675 
L 92.948339 73.913711 
L 93.496448 74.064013 
L 94.141287 73.530453 
L 94.439742 72.959133 
L 94.680549 72.169129 
L 94.690481 71.436283 
L 94.402008 70.912684 
L 93.680234 70.388826 
L 93.266208 70.464824 
L 93.121785 70.569517 
L 93.092864 70.445718 
L 93.786218 69.75101 
L 94.113626 68.731592 
L 94.181178 68.179084 
L 94.527345 67.165314 
L 94.521895 66.908138 
L 94.721728 65.798881 
L 94.529271 65.122937 
L 94.740487 64.966675 
L 94.873257 64.85271 
L 95.186756 63.968339 
L 95.257433 63.723694 
L 94.347618 64.27817 
L 93.854031 64.797865 
L 93.34419 65.082379 
L 93.112227 65.046175 
L 93.294039 64.628689 
L 93.929729 64.184114 
L 94.228084 63.622898 
L 94.20991 63.364577 
L 94.494634 63.37572 
L 94.427997 63.271378 
L 94.427997 63.055098 
L 94.494634 62.951263 
L 94.598124 63.204519 
L 94.851549 63.145763 
L 95.44321 62.748658 
L 95.342244 61.846052 
L 95.088315 61.827311 
L 94.918692 61.498585 
L 94.776834 61.738672 
L 94.664257 61.760958 
L 94.711206 61.654591 
L 94.902032 61.255459 
L 95.134254 61.119714 
L 95.603746 60.648151 
L 95.362437 61.330423 
L 95.557302 61.421595 
L 95.721372 61.309149 
L 95.807698 60.732738 
L 95.721372 60.424779 
L 95.51843 60.319931 
L 95.583553 59.988671 
L 95.537109 59.753143 
L 95.333662 59.660451 
L 95.515906 59.426949 
L 96.198436 59.046558 
L 96.111605 58.864214 
L 96.150982 58.839901 
L 96.658841 58.557267 
L 96.908732 58.23158 
L 97.213145 58.091782 
L 98.152129 57.789901 
L 98.444931 57.454083 
L 98.634747 57.667325 
L 98.581235 57.753432 
L 98.745809 57.921594 
L 99.004282 57.382665 
L 98.992166 57.156254 
L 98.745809 57.411536 
L 98.491375 57.270219 
L 98.422718 57.03773 
L 98.523684 56.819423 
L 98.966925 56.670002 
L 99.300113 56.375718 
L 99.715083 56.277961 
L 100.501609 55.759799 
L 101.226545 55.501478 
L 101.395158 55.308497 
L 101.43403 54.984835 
L 101.548627 54.591275 
L 101.83638 54.440841 
L 102.302711 54.335049 
L 102.789534 53.702968 
L 103.559499 53.663608 
L 103.760142 53.498101 
L 103.772124 52.906319 
L 104.362953 53.146622 
L 108.401192 54.399813 
L 109.242239 54.484908 
L 110.552919 54.37731 
L 110.372049 54.508714 
L 109.759185 54.624198 
L 108.009443 54.591275 
L 107.828209 55.184401 
L 108.270946 56.12854 
L 108.08012 56.027238 
L 107.734311 55.722317 
L 107.593463 55.866167 
L 107.506633 55.747643 
L 106.937689 55.707122 
L 106.739291 56.337223 
L 106.823093 56.986066 
L 106.994735 56.924778 
L 107.24715 56.375718 
L 107.246645 56.505892 
L 107.374367 56.642144 
L 107.501079 56.646196 
L 107.501079 57.23375 
L 107.891818 57.308714 
L 108.04882 57.200321 
L 108.101323 56.986066 
L 107.850927 57.032158 
L 107.755514 56.724199 
L 107.925137 56.206543 
L 108.173008 56.250103 
L 108.409774 56.663417 
L 108.582931 57.407991 
L 109.259403 57.407991 
L 109.464364 57.326442 
L 109.781397 56.950103 
L 110.152953 56.209582 
L 110.142351 55.866167 
L 110.65122 54.676369 
L 110.768845 54.399307 
L 111.581622 53.188742 
L 111.545274 53.041347 
L 111.320625 52.713634 
L 111.417552 51.14851 
L 112.115732 50.311752 
L 112.364109 50.291491 
L 112.344925 49.993662 
L 112.444882 50.073691 
L 112.522625 50.241853 
L 112.750304 50.026585 
L 112.77605 50.071665 
L 112.853289 50.071665 
L 112.853289 49.816383 
L 113.328334 50.096484 
L 113.436368 49.892866 
L 113.631233 49.993662 
L 113.776624 49.835124 
L 114.190584 49.848799 
L 114.638874 50.089899 
L 114.94783 50.320869 
L 115.516269 50.441419 
L 115.918113 50.673908 
L 116.406284 50.826368 
L 117.906135 50.932229 
L 119.637702 50.822316 
L 121.661062 50.82029 
L 123.148796 50.542721 
L 123.228055 50.43686 
L 124.081218 49.816383 
L 124.289208 49.476513 
L 124.542128 49.331144 
L 124.852598 48.974559 
L 125.266559 48.789175 
L 125.974331 48.122605 
L 127.473677 47.34055 
L 129.864048 45.458856 
L 132.713814 44.446844 
L 133.683593 44.36175 
L 136.180988 42.822459 
L 136.409676 42.136641 
L 136.853422 41.451837 
L 136.97862 41.03447 
L 137.341088 40.52188 
L 137.309283 39.578754 
L 137.18661 39.228247 
L 136.945806 38.907118 
L 137.341088 38.636134 
L 137.727283 38.773399 
L 139.000969 38.55104 
L 139.438152 38.647784 
L 139.389689 38.878753 
L 138.873752 39.408565 
L 139.05953 39.505309 
L 139.249346 39.819854 
L 139.467433 39.918623 
L 139.898558 39.710447 
L 140.013659 39.407552 
L 140.236794 39.238377 
L 140.753235 39.111749 
L 140.392281 38.365656 
L 140.074743 38.289173 
L 139.796582 38.376293 
L 139.644123 38.474557 
L 139.551234 38.304368 
L 140.606329 37.472168 
L 140.706286 37.276148 
L 140.99202 37.276148 
L 141.283307 37.119636 
L 141.430212 37.191054 
L 141.045532 37.445323 
L 141.007669 37.615005 
L 141.323188 37.849014 
L 141.505937 37.700099 
L 141.549857 37.616525 
L 141.769458 37.616525 
L 142.236931 37.247277 
L 142.245008 37.003644 
L 142.17938 36.99554 
L 142.185438 36.851691 
L 142.500957 36.685048 
L 142.616563 36.673398 
L 142.612525 37.005671 
L 142.86292 37.276148 
L 142.943693 37.143948 
L 142.909365 37.021879 
L 142.823544 36.991995 
L 142.887152 36.926655 
L 143.640359 36.50321 
L 143.170867 36.673398 
L 143.064853 36.535627 
L 143.29455 36.341633 
L 143.154712 36.341126 
L 142.86292 36.50321 
L 142.884123 36.303644 
L 142.955304 36.163847 
L 142.792244 36.268188 
L 142.277317 36.596408 
L 142.588293 36.178029 
L 143.086055 35.993659 
L 143.327364 36.031141 
L 143.327364 36.031141 
" clip-path="url(#p8bb2165fa5)" style="fill: none; stroke: #000000; stroke-width: 2"/>
    <path d="M 18.657527 35.543876 
L 18.500525 35.569201 
L 18.422276 35.455743 
L 18.573725 35.313919 
L 18.47074 35.062182 
L 18.506078 34.812472 
L 18.637334 34.599737 
L 18.827655 34.463485 
L 18.885206 34.602776 
L 18.657527 35.543876 
" clip-path="url(#p8bb2165fa5)" style="fill: none; stroke: #000000; stroke-width: 2"/>
    <path d="M 22.868316 25.343729 
L 22.653763 25.402484 
L 22.610348 25.124915 
L 22.702227 24.860516 
L 22.868316 24.720212 
L 23.041473 24.816956 
L 23.104576 25.034756 
L 23.031881 25.215581 
L 22.868316 25.343729 
" clip-path="url(#p8bb2165fa5)" style="fill: none; stroke: #000000; stroke-width: 2"/>
    <path d="M 38.692218 22.176 
L 38.692218 22.184104 
L 38.699286 22.182078 
L 38.698276 22.194741 
L 38.68616 22.19778 
L 38.68616 22.189169 
L 38.680103 22.191702 
L 38.680103 22.180052 
L 38.692218 22.176 
" clip-path="url(#p8bb2165fa5)" style="fill: none; stroke: #000000; stroke-width: 2"/>
   </g>
  </g>
 </g>
 <defs>
  <clipPath id="p8bb2165fa5">
   <rect x="0" y="-0" width="221.067315" height="266.112"/>
  </clipPath>
 </defs>
</svg>
