<?xml version="1.0" encoding="utf-8" standalone="no"?>
<!DOCTYPE svg PUBLIC "-//W3C//DTD SVG 1.1//EN"
  "http://www.w3.org/Graphics/SVG/1.1/DTD/svg11.dtd">
<svg xmlns:xlink="http://www.w3.org/1999/xlink" width="336.267852pt" height="266.112pt" viewBox="0 0 336.267852 266.112" xmlns="http://www.w3.org/2000/svg" version="1.1">
 <metadata>
  <rdf:RDF xmlns:dc="http://purl.org/dc/elements/1.1/" xmlns:cc="http://creativecommons.org/ns#" xmlns:rdf="http://www.w3.org/1999/02/22-rdf-syntax-ns#">
   <cc:Work>
    <dc:type rdf:resource="http://purl.org/dc/dcmitype/StillImage"/>
    <dc:date>2024-02-02T21:58:00.727579</dc:date>
    <dc:format>image/svg+xml</dc:format>
    <dc:creator>
     <cc:Agent>
      <dc:title>Matplotlib v3.8.2, https://matplotlib.org/</dc:title>
     </cc:Agent>
    </dc:creator>
   </cc:Work>
  </rdf:RDF>
 </metadata>
 <defs>
  <style type="text/css">*{stroke-linejoin: round; stroke-linecap: butt}</style>
 </defs>
 <g id="figure_1">
  <g id="patch_1">
   <path d="M 0 266.112 
L 336.267852 266.112 
L 336.267852 0 
L 0 0 
L 0 266.112 
z
" style="fill: none"/>
  </g>
  <g id="axes_1">
   <g id="PatchCollection_1">
    <path d="M 162.128772 242.448391 
L 157.102812 242.448391 
L 142.648848 239.508592 
L 127.726949 239.101271 
L 124.278101 237.879306 
L 123.342233 236.25002 
L 123.550204 232.495578 
L 122.943622 230.441261 
L 121.089217 228.688008 
L 119.148157 227.855655 
L 117.623038 226.686819 
L 116.999126 223.800149 
L 116.756493 215.954783 
L 118.004318 212.73163 
L 121.487827 213.971304 
L 124.520734 215.60059 
L 133.463474 217.300715 
L 137.484242 218.540389 
L 148.576013 225.943015 
L 150.586397 228.209848 
L 152.354148 228.989071 
L 163.65389 236.497955 
L 166.097546 240.252397 
L 165.369649 241.987941 
L 162.128772 242.448391 
" clip-path="url(#pf4152a0e43)" style="fill: none; stroke: #000000; stroke-width: 2"/>
    <path d="M 298.678878 179.791716 
L 307.673611 208.800092 
L 308.245531 211.846148 
L 308.124215 238.375176 
L 306.945714 242.306714 
L 304.502058 243.936 
L 302.630322 243.156776 
L 300.446629 241.314975 
L 298.678878 239.083561 
L 297.950981 237.18863 
L 297.535039 234.479057 
L 296.373869 232.938319 
L 280.67208 222.100025 
L 278.92166 219.284194 
L 277.621843 215.954783 
L 274.398297 214.343207 
L 265.975483 212.589953 
L 252.734681 205.789455 
L 250.949599 204.354975 
L 242.405468 199.254601 
L 239.52854 196.119996 
L 242.960057 196.013738 
L 245.802323 196.722124 
L 251.278885 199.095214 
L 254.987697 200.051534 
L 261.868061 201.060983 
L 264.381041 202.070432 
L 265.507549 201.167241 
L 267.639249 200.051534 
L 268.731095 199.095214 
L 275.126194 200.423436 
L 280.776066 195.234515 
L 284.016943 187.141213 
L 283.271714 179.791716 
L 285.351421 179.171879 
L 288.280342 177.454045 
L 290.56802 176.816498 
L 291.625204 176.356048 
L 292.543742 175.665372 
L 293.566265 175.134083 
L 295.039391 175.187212 
L 296.269884 176.090403 
L 297.950981 179.11875 
L 298.678878 179.791716 
" clip-path="url(#pf4152a0e43)" style="fill: none; stroke: #000000; stroke-width: 2"/>
    <path d="M 81.245494 146.143417 
L 78.351234 146.568448 
L 75.820924 146.285094 
L 74.694416 144.655808 
L 73.325275 141.928525 
L 61.401621 130.842296 
L 58.247398 129.531783 
L 49.114018 129.000495 
L 46.878333 128.433786 
L 44.434677 127.087854 
L 40.327255 123.793863 
L 38.594166 121.580159 
L 38.004915 119.649809 
L 37.727621 117.754879 
L 36.757091 115.629723 
L 31.332522 110.316834 
L 28.992851 106.828036 
L 28.022321 101.497437 
L 28.611571 99.372282 
L 29.998043 96.733547 
L 34.60806 90.003887 
L 34.660053 87.683925 
L 34.053472 85.346254 
L 33.845501 82.796067 
L 36.791753 44.330749 
L 36.34115 41.780562 
L 35.17998 39.44289 
L 37.259687 35.670739 
L 39.287401 30.32243 
L 41.505756 26.160667 
L 44.018735 26.072119 
L 53.065461 22.990643 
L 58.368715 22.176 
L 62.268166 23.769867 
L 64.815807 27.134697 
L 66.704874 30.641204 
L 67.675404 34.608161 
L 62.92674 75.234055 
L 64.833138 84.053451 
L 74.295805 97.672157 
L 77.727322 106.580102 
L 77.831308 108.811515 
L 77.502021 113.416019 
L 77.727322 115.629723 
L 78.697852 117.22359 
L 80.101655 118.604941 
L 81.401472 120.181098 
L 81.973391 122.377093 
L 82.510649 124.555377 
L 83.845128 127.017016 
L 88.836425 133.675837 
L 88.732439 135.499929 
L 86.323445 139.378338 
L 85.630209 141.574333 
L 85.387577 143.15049 
L 84.832989 144.372454 
L 83.273208 145.488161 
L 81.245494 146.143417 
" clip-path="url(#pf4152a0e43)" style="fill: none; stroke: #000000; stroke-width: 2"/>
   </g>
  </g>
 </g>
 <defs>
  <clipPath id="pf4152a0e43">
   <rect x="-0" y="-0" width="336.267852" height="266.112"/>
  </clipPath>
 </defs>
</svg>
