<?xml version="1.0" encoding="utf-8" standalone="no"?>
<!DOCTYPE svg PUBLIC "-//W3C//DTD SVG 1.1//EN"
  "http://www.w3.org/Graphics/SVG/1.1/DTD/svg11.dtd">
<svg xmlns:xlink="http://www.w3.org/1999/xlink" width="288.003416pt" height="266.112pt" viewBox="0 0 288.003416 266.112" xmlns="http://www.w3.org/2000/svg" version="1.1">
 <metadata>
  <rdf:RDF xmlns:dc="http://purl.org/dc/elements/1.1/" xmlns:cc="http://creativecommons.org/ns#" xmlns:rdf="http://www.w3.org/1999/02/22-rdf-syntax-ns#">
   <cc:Work>
    <dc:type rdf:resource="http://purl.org/dc/dcmitype/StillImage"/>
    <dc:date>2024-02-02T21:58:00.752894</dc:date>
    <dc:format>image/svg+xml</dc:format>
    <dc:creator>
     <cc:Agent>
      <dc:title>Matplotlib v3.8.2, https://matplotlib.org/</dc:title>
     </cc:Agent>
    </dc:creator>
   </cc:Work>
  </rdf:RDF>
 </metadata>
 <defs>
  <style type="text/css">*{stroke-linejoin: round; stroke-linecap: butt}</style>
 </defs>
 <g id="figure_1">
  <g id="patch_1">
   <path d="M 0 266.112 
L 288.003416 266.112 
L 288.003416 0 
L 0 0 
L 0 266.112 
z
" style="fill: none"/>
  </g>
  <g id="axes_1">
   <g id="PatchCollection_1">
    <path d="M 84.33089 240.364579 
L 84.008247 241.831614 
L 83.25783 242.502906 
L 82.445785 243.000718 
L 81.89838 243.936 
L 81.234968 243.936 
L 80.571556 242.993175 
L 78.864086 241.835386 
L 78.247802 240.707767 
L 77.588015 241.348888 
L 77.965036 240.519202 
L 78.095543 239.727229 
L 77.965036 238.939027 
L 77.588015 238.124426 
L 78.798832 238.124426 
L 78.436312 236.378314 
L 79.48762 235.771135 
L 81.115336 235.548628 
L 82.453035 234.956534 
L 83.453591 235.895588 
L 84.019122 237.241942 
L 84.269261 238.791946 
L 84.33089 240.364579 
" clip-path="url(#p74ed3cc101)" style="fill: none; stroke: #000000; stroke-width: 2"/>
    <path d="M 115.406118 241.348888 
L 111.657659 242.819695 
L 108.228219 242.367139 
L 105.193925 240.771879 
L 100.071515 236.427341 
L 98.842572 234.666144 
L 98.320543 232.742781 
L 98.820821 230.838274 
L 100.057014 228.620749 
L 101.644853 226.640817 
L 103.812723 225.049328 
L 109.261401 222.239709 
L 110.852865 221.730584 
L 112.698092 221.557104 
L 114.623074 221.990804 
L 115.873769 223.103337 
L 116.682189 224.559059 
L 117.831378 227.670382 
L 118.853685 232.207256 
L 118.784806 233.40653 
L 118.342531 234.432323 
L 118.636173 235.454346 
L 119.074822 236.483911 
L 119.114699 237.547417 
L 118.516541 238.460072 
L 115.406118 241.348888 
" clip-path="url(#p74ed3cc101)" style="fill: none; stroke: #000000; stroke-width: 2"/>
    <path d="M 168.377564 196.353504 
L 168.551573 196.877715 
L 170.219166 195.836836 
L 171.64387 196.711778 
L 172.126022 198.299495 
L 170.980459 199.408257 
L 172.169525 201.109114 
L 173.557977 202.146221 
L 176.516141 203.779194 
L 175.845479 204.473114 
L 177.38619 204.793674 
L 178.143857 205.44988 
L 179.496057 207.690033 
L 182.247585 210.710844 
L 183.748419 211.668755 
L 185.086118 211.491504 
L 185.372509 211.921432 
L 185.521142 212.238221 
L 185.742279 212.498441 
L 186.249808 212.754889 
L 186.1193 212.875571 
L 186.684832 213.437495 
L 187.322867 213.957934 
L 187.460625 213.961705 
L 187.707139 214.022046 
L 188.497433 213.901364 
L 188.736696 213.961705 
L 188.787449 214.252095 
L 188.678693 215.002584 
L 188.736696 215.289203 
L 192.383649 222.243481 
L 192.731668 222.59044 
L 192.992683 222.692265 
L 193.253697 222.895916 
L 193.601717 223.570978 
L 193.797477 224.008449 
L 194.036741 224.362951 
L 194.352133 224.615629 
L 194.819784 224.774023 
L 194.399261 226.15809 
L 193.790227 227.070745 
L 191.720237 228.632063 
L 192.383649 229.265642 
L 191.5136 230.713821 
L 190.96982 232.173314 
L 190.284657 233.300933 
L 189.012211 233.753489 
L 188.305297 233.844 
L 186.91322 234.232444 
L 186.249808 234.326727 
L 185.532018 234.243758 
L 184.777976 233.847772 
L 184.118189 233.753489 
L 181.160025 233.685606 
L 178.691262 233.353731 
L 176.411011 232.576843 
L 174.025628 231.739615 
L 170.588937 228.688633 
L 169.21136 227.078288 
L 169.196859 224.049934 
L 168.185428 223.322073 
L 166.738973 222.861974 
L 165.510029 222.243481 
L 165.455651 221.900292 
L 164.846617 219.773279 
L 164.600104 219.411234 
L 164.244834 219.052961 
L 163.904065 218.562692 
L 163.682928 217.815974 
L 163.925816 217.069257 
L 165.194637 214.806477 
L 165.510029 213.961705 
L 165.4339 212.747347 
L 164.291962 209.590768 
L 165.143884 209.338091 
L 165.684039 208.712055 
L 165.984931 207.806943 
L 166.064685 206.717037 
L 166.260446 205.717643 
L 166.702721 205.087836 
L 167.137745 204.623966 
L 167.337131 204.126154 
L 167.036239 202.564836 
L 166.293073 200.762154 
L 165.303393 199.291347 
L 164.291962 198.718109 
L 164.882869 198.503145 
L 166.728097 197.507522 
L 165.423024 196.975769 
L 164.846617 196.877715 
L 167.337131 194.924181 
L 168.000543 194.924181 
L 168.051296 195.629415 
L 168.189053 196.017858 
L 168.377564 196.353504 
" clip-path="url(#p74ed3cc101)" style="fill: none; stroke: #000000; stroke-width: 2"/>
    <path d="M 218.593856 196.183796 
L 219.869927 196.794746 
L 221.867413 196.31202 
L 222.911472 196.877715 
L 223.437126 198.039275 
L 223.560383 199.50254 
L 223.466127 201.999141 
L 224.455807 207.282732 
L 224.3253 209.82836 
L 222.911472 212.174109 
L 222.465572 212.35136 
L 221.051743 212.532382 
L 220.475336 212.754889 
L 220.145443 213.199903 
L 219.717669 214.297351 
L 219.257268 214.655624 
L 218.017449 214.772535 
L 216.839259 214.451974 
L 214.950529 213.388468 
L 212.858787 211.85732 
L 211.840106 210.767414 
L 211.296326 209.590768 
L 211.568216 208.448064 
L 212.264254 207.301589 
L 212.623149 206.177741 
L 211.905359 205.106692 
L 213.16693 204.352432 
L 213.728836 203.153159 
L 213.373566 202.146221 
L 211.905359 201.999141 
L 212.405637 200.641473 
L 214.330619 199.193293 
L 215.60669 196.877715 
L 215.189792 196.704235 
L 215.128164 196.621266 
L 215.14629 196.493042 
L 214.950529 196.183796 
L 216.186722 195.652042 
L 217.383039 194.924181 
L 217.408416 195.225885 
L 217.383039 196.183796 
L 218.147957 195.572845 
L 218.354593 195.369195 
L 218.593856 194.924181 
L 219.257268 195.610558 
L 218.593856 196.183796 
" clip-path="url(#p74ed3cc101)" style="fill: none; stroke: #000000; stroke-width: 2"/>
    <path d="M 247.43596 113.931736 
L 249.495075 114.173099 
L 250.394125 113.343413 
L 251.075663 111.910319 
L 252.667126 111.638786 
L 257.934544 112.981369 
L 258.898848 113.373584 
L 259.790647 114.010933 
L 260.149542 114.670911 
L 260.689697 116.43588 
L 261.063093 116.797924 
L 262.585678 117.450359 
L 262.922822 119.015449 
L 262.618305 122.552929 
L 262.951823 122.711323 
L 263.626111 123.605121 
L 264.003132 124.604516 
L 263.473852 125.0797 
L 263.198337 125.479458 
L 263.064204 126.346857 
L 262.824941 127.221798 
L 261.342234 128.175937 
L 256.473588 132.101861 
L 253.221782 133.859287 
L 251.56869 134.387269 
L 246.442655 134.715372 
L 245.53273 134.575834 
L 244.662681 134.127049 
L 243.404736 133.037144 
L 242.378804 132.73544 
L 239.148749 131.25709 
L 238.061189 130.223753 
L 237.506533 128.243821 
L 237.571787 126.482624 
L 238.061189 124.830794 
L 238.98199 123.605121 
L 240.301564 123.126166 
L 241.998158 121.444166 
L 241.030229 113.343413 
L 241.816898 110.469683 
L 242.172168 111.140974 
L 242.563689 111.631243 
L 243.643999 112.426987 
L 245.173835 113.162391 
L 247.43596 113.931736 
" clip-path="url(#p74ed3cc101)" style="fill: none; stroke: #000000; stroke-width: 2"/>
    <path d="M 119.114699 73.593908 
L 120.046376 73.639164 
L 124.998401 72.87359 
L 125.861199 73.050841 
L 129.11663 74.612159 
L 129.838046 74.774325 
L 137.186329 75.389047 
L 139.18744 76.18102 
L 140.931162 77.580173 
L 141.87009 78.119469 
L 142.279737 77.764966 
L 142.279737 80.955486 
L 141.275557 81.189307 
L 134.982207 81.245876 
L 128.101574 78.168495 
L 124.418369 77.274697 
L 120.941801 78.654993 
L 119.691106 80.18237 
L 117.109963 84.847468 
L 116.276166 88.347235 
L 115.500373 87.208302 
L 114.246053 83.776419 
L 113.720399 82.991989 
L 113.114991 82.365953 
L 112.629214 81.585294 
L 112.426202 80.329451 
L 112.368199 79.367769 
L 112.157937 78.662536 
L 111.697537 78.232608 
L 110.896367 78.081756 
L 108.830002 77.45572 
L 107.365421 75.883087 
L 106.836141 73.812644 
L 107.553931 71.696944 
L 112.998984 69.909348 
L 113.64427 69.999859 
L 114.862338 70.486357 
L 115.920897 71.187819 
L 118.016263 73.031985 
L 119.114699 73.593908 
" clip-path="url(#p74ed3cc101)" style="fill: none; stroke: #000000; stroke-width: 2"/>
    <path d="M 243.440988 67.250581 
L 244.615553 68.348029 
L 244.869318 68.879783 
L 244.775062 69.913119 
L 244.398041 71.753514 
L 244.311037 72.703881 
L 244.137027 73.216778 
L 243.314106 73.812644 
L 243.042216 74.280285 
L 243.074843 74.774325 
L 243.259728 75.464473 
L 243.488116 76.037711 
L 243.643999 76.18102 
L 243.053092 76.923966 
L 242.418681 77.267155 
L 241.635638 77.546231 
L 240.606081 78.081756 
L 239.51852 71.040738 
L 238.169945 68.253747 
L 236.292091 69.2192 
L 235.92232 67.876617 
L 235.799063 66.066393 
L 236.074579 64.391936 
L 236.897499 63.471738 
L 236.897499 62.83816 
L 235.835315 62.513828 
L 235.255283 61.627572 
L 235.048646 60.386815 
L 235.117525 57.482913 
L 236.959128 56.019649 
L 241.207864 53.345797 
L 241.693641 54.005774 
L 243.303231 55.521837 
L 243.643999 56.219528 
L 243.535243 56.615514 
L 242.962462 57.712963 
L 242.335302 58.621846 
L 242.498436 58.878295 
L 242.846455 59.06686 
L 243.042216 59.38742 
L 242.792077 64.882205 
L 243.042216 66.632088 
L 243.440988 67.250581 
" clip-path="url(#p74ed3cc101)" style="fill: none; stroke: #000000; stroke-width: 2"/>
    <path d="M 62.550679 48.01695 
L 63.348223 48.899434 
L 63.710743 49.744205 
L 63.261218 50.121335 
L 62.978452 50.517322 
L 63.732494 51.388492 
L 65.008565 52.259662 
L 66.277386 52.655649 
L 66.70516 53.161003 
L 67.132933 54.315021 
L 67.372197 55.604806 
L 67.241689 56.509918 
L 65.81336 57.641308 
L 63.638239 58.425738 
L 61.202104 58.889608 
L 58.950853 59.036689 
L 58.381697 59.240339 
L 57.518899 60.107738 
L 57.17813 60.311389 
L 56.536469 60.220877 
L 50.928282 58.041066 
L 50.032857 57.535712 
L 49.325943 56.853106 
L 48.883669 55.93668 
L 47.723604 56.509918 
L 48.115126 54.533757 
L 49.144683 52.904555 
L 50.44613 51.795793 
L 51.646072 51.388492 
L 54.437477 51.331923 
L 55.579416 50.807712 
L 55.02476 49.548098 
L 57.537025 48.186658 
L 58.062679 47.534223 
L 58.671713 47.534223 
L 59.211868 48.839093 
L 60.103668 48.665613 
L 61.658879 47.534223 
L 62.550679 48.01695 
" clip-path="url(#p74ed3cc101)" style="fill: none; stroke: #000000; stroke-width: 2"/>
    <path d="M 47.999119 22.507874 
L 49.028677 23.216879 
L 51.305303 23.141453 
L 52.588625 23.488412 
L 53.422421 24.133305 
L 53.77044 24.853623 
L 53.806692 26.965551 
L 54.277968 27.387937 
L 56.373335 27.961175 
L 56.844611 28.262879 
L 57.120127 28.745605 
L 58.34182 29.786484 
L 58.671713 30.450233 
L 58.515829 31.442085 
L 57.982925 32.343426 
L 54.763746 35.843192 
L 54.357723 35.854506 
L 53.980702 36.190152 
L 52.305859 36.831273 
L 51.925213 37.148062 
L 51.160295 38.09843 
L 45.787746 40.632744 
L 43.333485 43.1746 
L 41.593388 45.467551 
L 39.374765 47.055268 
L 35.503049 47.534223 
L 32.127987 47.534223 
L 31.091179 47.745416 
L 30.30451 48.073519 
L 29.499716 48.054663 
L 28.423031 47.247604 
L 28.191018 46.101129 
L 28.147515 39.938824 
L 26.929448 37.781641 
L 26.61768 37.528964 
L 25.080595 37.234802 
L 24.496937 36.831273 
L 24.000285 35.277497 
L 24.431684 33.95 
L 26.628556 31.423228 
L 27.886501 30.563372 
L 29.191573 30.382349 
L 30.351638 30.480403 
L 31.185434 30.450233 
L 32.091735 29.801569 
L 34.252355 27.727354 
L 35.948949 26.988179 
L 38.051566 25.683309 
L 40.114306 25.16287 
L 45.541233 22.52296 
L 46.969562 22.176 
L 47.999119 22.507874 
" clip-path="url(#p74ed3cc101)" style="fill: none; stroke: #000000; stroke-width: 2"/>
   </g>
  </g>
 </g>
 <defs>
  <clipPath id="p74ed3cc101">
   <rect x="0" y="-0" width="288.003416" height="266.112"/>
  </clipPath>
 </defs>
</svg>
