<?xml version="1.0" encoding="utf-8" standalone="no"?>
<!DOCTYPE svg PUBLIC "-//W3C//DTD SVG 1.1//EN"
  "http://www.w3.org/Graphics/SVG/1.1/DTD/svg11.dtd">
<svg xmlns:xlink="http://www.w3.org/1999/xlink" width="210.577291pt" height="266.112pt" viewBox="0 0 210.577291 266.112" xmlns="http://www.w3.org/2000/svg" version="1.1">
 <metadata>
  <rdf:RDF xmlns:dc="http://purl.org/dc/elements/1.1/" xmlns:cc="http://creativecommons.org/ns#" xmlns:rdf="http://www.w3.org/1999/02/22-rdf-syntax-ns#">
   <cc:Work>
    <dc:type rdf:resource="http://purl.org/dc/dcmitype/StillImage"/>
    <dc:date>2024-02-02T21:58:00.778146</dc:date>
    <dc:format>image/svg+xml</dc:format>
    <dc:creator>
     <cc:Agent>
      <dc:title>Matplotlib v3.8.2, https://matplotlib.org/</dc:title>
     </cc:Agent>
    </dc:creator>
   </cc:Work>
  </rdf:RDF>
 </metadata>
 <defs>
  <style type="text/css">*{stroke-linejoin: round; stroke-linecap: butt}</style>
 </defs>
 <g id="figure_1">
  <g id="patch_1">
   <path d="M 0 266.112 
L 210.577291 266.112 
L 210.577291 0 
L 0 0 
L 0 266.112 
z
" style="fill: none"/>
  </g>
  <g id="axes_1">
   <g id="PatchCollection_1">
    <path d="M 18.266088 243.899557 
L 17.548108 243.936 
L 18.051321 243.066115 
L 18.516911 242.704852 
L 19.05618 242.378447 
L 19.592314 242.270702 
L 19.592314 242.669993 
L 19.556258 243.175445 
L 19.05618 243.718925 
L 18.266088 243.899557 
" clip-path="url(#p7938a4976c)" style="fill: none; stroke: #000000; stroke-width: 2"/>
    <path d="M 142.657152 119.844816 
L 142.357757 119.959887 
L 141.873927 119.868089 
L 141.643432 119.661187 
L 142.150202 119.408043 
L 142.703044 119.384884 
L 142.657152 119.844816 
" clip-path="url(#p7938a4976c)" style="fill: none; stroke: #000000; stroke-width: 2"/>
    <path d="M 93.542722 65.262633 
L 93.907983 65.457525 
L 94.074153 65.448018 
L 94.450387 65.538334 
L 94.663587 65.72055 
L 94.977115 65.804528 
L 95.384702 65.793437 
L 95.384702 66.034279 
L 94.915977 66.20382 
L 94.324976 66.346424 
L 93.669701 66.403465 
L 93.015994 66.325825 
L 92.348178 66.050124 
L 91.995459 65.69203 
L 91.46246 64.706477 
L 92.188279 64.462466 
L 92.512781 64.440283 
L 93.741813 64.649435 
L 94.878354 64.996439 
L 94.878354 65.262633 
L 93.542722 65.262633 
" clip-path="url(#p7938a4976c)" style="fill: none; stroke: #000000; stroke-width: 2"/>
    <path d="M 90.023443 28.28343 
L 101.776993 32.613808 
L 102.662946 32.712411 
L 103.565822 32.388431 
L 110.392639 27.895967 
L 111.599129 27.609214 
L 112.282009 27.908041 
L 113.748312 28.958462 
L 114.420243 29.055053 
L 115.250451 29.00877 
L 116.13939 29.291498 
L 118.816164 30.492842 
L 120.021657 31.856177 
L 120.778202 32.212354 
L 121.200274 32.254612 
L 121.565605 32.101678 
L 123.965642 30.560255 
L 124.330974 30.74438 
L 124.420565 31.03717 
L 124.492237 31.912521 
L 125.281631 33.109841 
L 125.688772 33.48916 
L 127.478596 34.174348 
L 127.887728 34.45104 
L 128.232154 34.832371 
L 128.966799 35.206659 
L 129.632757 35.765073 
L 129.776102 36.698781 
L 129.082271 37.086149 
L 128.911053 37.386988 
L 129.140008 37.772343 
L 129.227608 37.907168 
L 130.278806 38.850937 
L 130.709837 38.538024 
L 132.382198 38.561166 
L 133.097929 39.259434 
L 133.540906 39.427462 
L 133.983883 39.092413 
L 134.248673 39.092413 
L 134.715541 39.5482 
L 135.671176 38.935454 
L 136.32917 39.092413 
L 136.786083 38.636627 
L 137.304714 38.550098 
L 137.729773 38.837857 
L 137.905968 39.501917 
L 140.489169 41.452843 
L 140.847532 41.508181 
L 141.224808 41.434732 
L 142.01918 40.975928 
L 143.072369 41.185207 
L 143.215715 41.098678 
L 144.004113 40.179056 
L 146.759716 39.163905 
L 149.289969 38.561166 
L 150.64279 37.865915 
L 150.754281 36.808451 
L 150.400895 35.422981 
L 150.337186 33.364397 
L 150.616908 33.166185 
L 151.362087 33.235348 
L 152.136503 34.132169 
L 153.120982 35.935318 
L 153.820151 37.854135 
L 153.730795 39.085283 
L 153.164876 38.388108 
L 152.152179 35.895706 
L 152.804318 39.004474 
L 152.738477 40.260974 
L 151.625451 41.211668 
L 152.214885 41.103922 
L 153.490946 40.173827 
L 153.31537 40.371888 
L 153.274611 40.609562 
L 153.490946 41.211668 
L 153.638304 40.75375 
L 153.801339 39.860098 
L 154.017674 39.375244 
L 155.884736 44.523251 
L 158.226794 50.034105 
L 160.987413 54.648138 
L 168.33809 64.254898 
L 168.929091 64.706477 
L 171.384019 67.710669 
L 172.89993 69.208012 
L 173.817001 68.694637 
L 174.168153 68.91805 
L 175.183985 69.095513 
L 175.394049 69.393397 
L 175.544543 70.727537 
L 175.826719 71.266263 
L 176.328365 71.785976 
L 178.121748 74.447918 
L 178.695505 74.856716 
L 180.915287 77.85457 
L 182.589529 79.435891 
L 183.574009 79.134838 
L 183.796614 79.746451 
L 184.008246 81.315095 
L 184.364101 82.034454 
L 184.958238 82.490787 
L 187.54328 83.390777 
L 188.461919 83.485846 
L 190.214543 83.523874 
L 190.963877 83.919996 
L 191.927977 85.374557 
L 192.614854 85.7946 
L 193.029183 87.25484 
L 192.729552 87.27295 
L 192.141239 86.961043 
L 191.554917 86.866465 
L 191.281168 87.287036 
L 191.119904 88.78117 
L 190.871041 89.279215 
L 190.359378 89.358701 
L 188.969726 89.027677 
L 188.590458 88.848582 
L 188.181327 88.393802 
L 187.688577 87.455063 
L 187.294378 87.009339 
L 186.984792 87.152212 
L 186.613488 87.013363 
L 185.005831 85.652041 
L 182.774026 84.761598 
L 182.063272 84.84209 
L 181.347541 85.448799 
L 180.910537 86.067582 
L 180.838865 86.42879 
L 181.305732 87.256852 
L 181.737759 88.549756 
L 182.166799 88.734887 
L 182.105081 89.051825 
L 181.530705 89.380836 
L 179.476089 89.662558 
L 178.756377 89.917114 
L 178.432855 90.461442 
L 178.333309 91.209012 
L 178.522445 105.911894 
L 179.67518 105.427935 
L 180.030557 105.425923 
L 180.298334 105.625141 
L 180.716424 106.466283 
L 181.808436 106.986463 
L 183.577356 108.295465 
L 185.329354 108.894125 
L 185.851967 109.241247 
L 186.968219 111.337834 
L 186.440279 112.204361 
L 185.287545 112.906654 
L 181.313696 114.537624 
L 180.864746 114.860599 
L 180.489461 115.360656 
L 180.978228 115.726895 
L 180.972255 116.257136 
L 180.612897 116.674689 
L 179.466135 117.391068 
L 179.154558 117.727122 
L 179.108767 118.309684 
L 179.298899 118.860048 
L 179.641335 119.372179 
L 180.85081 120.729476 
L 181.494868 121.639037 
L 181.973681 122.645188 
L 182.279285 123.828421 
L 182.506249 126.543016 
L 182.392767 127.911381 
L 182.031418 129.058393 
L 181.17931 130.111833 
L 180.173902 130.608871 
L 179.084876 130.943919 
L 177.977932 131.514407 
L 176.272721 133.147389 
L 174.179283 134.414133 
L 174.135483 134.902116 
L 174.488869 135.281435 
L 175.772008 136.13767 
L 176.359326 136.860086 
L 176.603212 136.874172 
L 177.068088 136.688034 
L 177.419483 136.737336 
L 178.093405 137.093513 
L 178.3572 137.492955 
L 178.533395 138.728508 
L 180.563124 143.192799 
L 180.371997 144.931428 
L 180.130843 145.81917 
L 179.606305 145.406109 
L 179.665876 144.811925 
L 180.131466 143.558594 
L 180.024866 143.081663 
L 177.400632 138.557945 
L 176.472588 137.577146 
L 171.685007 134.083347 
L 170.374458 132.791988 
L 172.349687 130.375642 
L 172.616187 129.778289 
L 172.371634 129.154001 
L 170.901186 127.135361 
L 170.880806 126.560191 
L 171.155144 126.358961 
L 171.634842 126.216357 
L 172.239952 125.831326 
L 171.785336 125.685553 
L 170.661336 125.745764 
L 170.111094 125.541365 
L 169.824215 125.219713 
L 169.057638 123.703357 
L 169.321002 123.147201 
L 169.584366 123.147201 
L 170.068767 124.088388 
L 170.111094 124.609685 
L 170.280399 124.696832 
L 171.426346 124.235745 
L 171.426346 123.945784 
L 170.899618 123.722371 
L 170.341537 123.307234 
L 169.866541 122.809705 
L 169.584366 122.348618 
L 169.321002 122.348618 
L 169.02942 122.827134 
L 168.328684 122.855655 
L 167.527618 122.76217 
L 166.930347 122.881007 
L 166.648171 122.358125 
L 166.19669 121.809892 
L 165.662124 121.531022 
L 165.115016 121.819399 
L 163.893823 121.098456 
L 163.5364 120.51378 
L 163.774682 119.69143 
L 163.249522 119.69143 
L 163.407854 119.054465 
L 162.862314 118.748658 
L 161.405974 118.363627 
L 161.180233 118.81996 
L 160.97644 118.786686 
L 160.722482 118.601301 
L 160.332139 118.602885 
L 160.148724 118.812038 
L 160.101695 119.086155 
L 159.941796 119.323828 
L 159.421338 119.425235 
L 158.146845 119.233512 
L 157.627955 119.423651 
L 157.436703 120.198466 
L 157.723581 119.957624 
L 157.96343 119.957624 
L 159.316306 122.000031 
L 159.495017 122.619566 
L 160.592367 124.235745 
L 161.100283 124.497186 
L 163.647703 125.327459 
L 164.152484 125.946994 
L 164.640021 126.363715 
L 165.115016 126.073753 
L 165.058581 127.428492 
L 164.825003 127.691517 
L 164.825003 127.957711 
L 165.406598 128.756294 
L 165.641744 130.118955 
L 165.539848 131.535488 
L 165.115016 132.502027 
L 164.249678 132.533717 
L 162.840367 132.078968 
L 161.512574 131.435665 
L 160.882381 130.90803 
L 161.119095 130.90803 
L 161.432624 131.10926 
L 161.956216 131.171056 
L 160.912166 130.638667 
L 160.592367 130.351875 
L 160.592367 130.90803 
L 158.371018 129.933569 
L 157.580926 129.819486 
L 154.567916 130.109448 
L 154.011403 129.844838 
L 153.498784 129.315618 
L 152.559766 128.090808 
L 149.209714 124.963026 
L 148.994947 124.609685 
L 148.828777 124.566904 
L 147.800403 124.091557 
L 147.681262 122.881007 
L 149.126629 120.754622 
L 150.145596 120.233325 
L 150.335281 120.345824 
L 150.457557 120.578744 
L 150.724057 120.30938 
L 151.913897 118.602885 
L 151.431063 117.984934 
L 152.012659 117.289344 
L 153.070818 116.718927 
L 154.017674 116.476501 
L 154.017674 116.235658 
L 152.765127 116.173863 
L 151.581557 117.099205 
L 151.431063 116.725265 
L 151.614478 116.064533 
L 152.153747 115.413308 
L 153.547381 114.643246 
L 153.730795 114.204343 
L 153.490946 113.809805 
L 152.536251 113.168087 
L 152.440625 112.488341 
L 153.545813 112.982701 
L 154.017674 112.996962 
L 153.495649 112.494679 
L 152.705557 112.003487 
L 152.366946 111.699265 
L 151.913897 111.667575 
L 152.381055 111.385536 
L 152.315214 111.181137 
L 151.913897 110.89276 
L 152.285429 110.146465 
L 152.940703 109.54119 
L 151.732051 106.514815 
L 151.100291 105.819225 
L 150.836927 106.08225 
L 149.971588 104.955678 
L 149.183064 103.642136 
L 148.170367 102.612218 
L 146.629374 102.336517 
L 146.718729 101.33195 
L 145.870635 100.473157 
L 144.705876 99.878974 
L 143.843673 99.653976 
L 140.816555 96.75436 
L 137.849007 95.372686 
L 137.374011 95.001915 
L 133.428255 93.541016 
L 133.179 93.723232 
L 132.962665 93.721648 
L 132.782386 93.555276 
L 132.638163 93.251054 
L 132.109867 93.479221 
L 131.437349 92.86127 
L 130.775803 92.742433 
L 131.189661 92.02466 
L 130.639418 91.012171 
L 129.632992 90.124857 
L 128.668892 89.795283 
L 128.668892 90.058308 
L 129.236378 90.219926 
L 129.745862 90.590697 
L 128.744138 90.414818 
L 127.154549 89.478385 
L 126.146555 89.262894 
L 125.169913 89.186839 
L 120.018639 87.748123 
L 119.032592 87.667314 
L 117.047956 87.931923 
L 116.596475 87.551646 
L 116.262567 86.721373 
L 115.734272 86.602537 
L 115.970986 87.158692 
L 115.334523 86.645318 
L 113.9064 85.721561 
L 113.153932 84.347808 
L 112.312108 83.919996 
L 112.180426 83.525458 
L 112.235293 83.118244 
L 112.128694 82.855219 
L 111.525151 82.880571 
L 111.677213 82.438498 
L 111.525151 81.262807 
L 111.752459 80.825488 
L 112.415572 80.164756 
L 112.677369 79.505608 
L 113.218205 78.752976 
L 113.342049 78.192067 
L 113.213502 77.726227 
L 112.912515 77.322182 
L 112.312108 76.718492 
L 110.753871 74.398799 
L 110.318066 74.058134 
L 109.692577 73.790355 
L 109.775662 73.200925 
L 110.318066 72.307273 
L 109.37121 71.527704 
L 109.197202 71.149011 
L 109.396292 70.578595 
L 108.291104 70.239514 
L 104.876779 70.578595 
L 104.876779 70.288633 
L 105.350207 70.103248 
L 105.956884 70.0367 
L 107.292516 70.046206 
L 107.292516 69.780012 
L 106.065052 69.721386 
L 104.96927 69.526494 
L 103.978519 69.188998 
L 103.059881 68.694637 
L 101.471859 67.463489 
L 100.637873 66.764729 
L 100.822855 66.590435 
L 100.178553 66.256108 
L 98.59837 64.77461 
L 97.756546 64.356305 
L 97.116947 63.907894 
L 96.538487 64.174089 
L 96.198309 63.907894 
L 96.500864 63.229733 
L 95.671581 62.578508 
L 94.977115 62.80509 
L 92.370125 62.844702 
L 91.680362 62.667239 
L 91.064279 62.236258 
L 90.098611 61.226938 
L 90.098611 60.984511 
L 90.319649 60.273076 
L 89.64713 59.453895 
L 87.993267 58.300386 
L 88.228413 59.087878 
L 89.34144 59.900721 
L 89.596965 60.851414 
L 89.698862 62.657732 
L 89.930873 63.717756 
L 90.38549 64.440283 
L 89.883844 64.763519 
L 89.954388 65.302245 
L 90.409004 65.810866 
L 91.586304 66.224418 
L 92.004865 66.679166 
L 92.512781 67.653627 
L 92.75263 67.653627 
L 93.063023 67.525284 
L 93.197841 67.62986 
L 93.255843 67.896054 
L 92.573919 67.87704 
L 91.962538 67.653627 
L 91.962538 67.896054 
L 93.566237 69.317341 
L 96.198309 70.434406 
L 96.472646 70.326661 
L 97.087162 70.578595 
L 98.574855 71.434219 
L 99.261482 71.656048 
L 99.998275 71.675062 
L 100.691173 71.375593 
L 101.145789 71.738441 
L 102.558235 72.730332 
L 102.558235 72.972758 
L 101.79009 73.158144 
L 101.824578 73.719053 
L 102.290168 74.371863 
L 102.796517 74.856716 
L 102.186704 75.173614 
L 101.721114 75.653715 
L 102.290168 75.910402 
L 102.962687 75.986457 
L 104.350051 75.943676 
L 104.350051 76.186103 
L 103.807646 76.55212 
L 103.117884 76.842082 
L 102.523747 77.241373 
L 102.125566 78.084321 
L 101.217901 78.602449 
L 101.047028 78.887658 
L 100.691173 79.908069 
L 99.48252 79.309132 
L 98.841354 79.256844 
L 98.563882 79.774972 
L 98.734755 80.093454 
L 99.327324 80.846087 
L 99.233265 80.996613 
L 96.721901 82.324415 
L 96.533784 82.633391 
L 95.69196 85.312762 
L 95.339241 85.994093 
L 94.878354 86.602537 
L 94.59461 86.602537 
L 93.51764 84.376329 
L 90.307107 80.023736 
L 89.940279 79.337653 
L 89.582857 79.11424 
L 88.617189 78.714948 
L 88.551348 78.051047 
L 88.519995 77.780099 
L 87.602924 76.767611 
L 86.326863 76.043499 
L 82.183583 74.566755 
L 81.813619 74.645979 
L 81.012554 75.122911 
L 80.641023 75.035764 
L 80.118998 74.655486 
L 79.361826 74.484361 
L 79.170574 74.191231 
L 78.900939 74.066056 
L 78.529408 74.248272 
L 78.50119 74.324328 
L 76.323735 73.623984 
L 75.281252 73.462366 
L 74.531919 72.972758 
L 74.09925 72.991772 
L 73.813939 73.164482 
L 73.559981 73.181911 
L 73.216667 72.730332 
L 73.492572 72.004635 
L 73.084985 71.023836 
L 68.904082 65.75224 
L 68.593689 64.703308 
L 68.118693 63.969689 
L 66.616891 60.295258 
L 66.315904 58.522215 
L 66.090163 58.034192 
L 66.621594 57.51448 
L 66.842632 57.14054 
L 66.759547 56.825227 
L 65.93967 55.779464 
L 65.423915 55.465735 
L 65.709226 55.082288 
L 66.377042 54.553069 
L 67.143619 53.247449 
L 67.802029 53.50889 
L 68.159452 53.095338 
L 68.438492 52.491648 
L 69.256802 51.873697 
L 68.940138 51.174937 
L 67.957226 50.034105 
L 68.480818 49.767911 
L 68.480818 49.501716 
L 67.957226 49.501716 
L 67.957226 49.235522 
L 68.396166 49.153129 
L 68.678341 48.882181 
L 69.007546 48.146978 
L 69.27091 48.146978 
L 69.807044 48.582713 
L 71.333928 47.838003 
L 72.163211 47.90772 
L 72.111479 47.39593 
L 72.243161 47.14875 
L 72.666424 46.842943 
L 73.019144 46.234499 
L 73.635228 46.312139 
L 74.795283 45.103174 
L 74.707495 44.779938 
L 74.503702 44.532758 
L 74.005191 44.185754 
L 72.426575 45.779751 
L 72.351328 45.473944 
L 72.163211 45.489789 
L 72.163211 45.247362 
L 72.882759 44.556525 
L 73.216667 44.451949 
L 72.953303 44.185754 
L 72.918815 44.220613 
L 72.666424 44.451949 
L 72.78243 44.016214 
L 73.216667 43.895793 
L 73.216667 43.653366 
L 72.953303 43.653366 
L 72.953303 43.363404 
L 73.596036 42.851614 
L 73.723016 41.528566 
L 73.503546 38.963277 
L 72.925085 38.281947 
L 71.650592 37.716284 
L 70.374531 37.508716 
L 69.796071 37.901669 
L 69.565627 37.901669 
L 68.19394 36.691119 
L 68.377354 36.75133 
L 68.60623 36.646754 
L 68.701856 36.429679 
L 68.480818 36.158731 
L 68.198643 36.095351 
L 67.143619 36.158731 
L 66.010214 35.734088 
L 65.118225 35.212791 
L 64.121204 34.773887 
L 62.671135 34.590086 
L 62.671135 34.300125 
L 63.542744 34.081465 
L 65.173092 33.343093 
L 66.090163 33.235348 
L 65.828367 32.848732 
L 65.301639 32.702959 
L 65.301639 32.439934 
L 67.206325 32.325851 
L 67.690726 32.439934 
L 67.892952 32.739403 
L 67.825544 33.501542 
L 67.985443 33.576013 
L 68.480818 34.032346 
L 68.720668 34.032346 
L 69.007546 33.743969 
L 69.007546 33.501542 
L 68.568606 33.067392 
L 68.988735 32.786937 
L 69.810179 32.664932 
L 70.849526 32.82655 
L 71.194408 33.167215 
L 71.507936 33.235348 
L 71.758759 33.143447 
L 71.865359 32.920034 
L 71.823033 32.655425 
L 71.636483 32.439934 
L 71.636483 32.149973 
L 72.208673 31.937651 
L 72.37014 31.509839 
L 72.23689 31.004387 
L 71.923362 30.552807 
L 71.644321 30.349993 
L 70.717845 29.888906 
L 70.393342 29.454756 
L 70.58773 29.413559 
L 71.43896 28.679941 
L 71.780706 28.86691 
L 72.180455 29.236097 
L 72.953303 29.223421 
L 73.417325 28.798777 
L 73.313861 28.233115 
L 72.896868 27.68805 
L 72.098759 27.201527 
L 73.029303 25.692497 
L 73.733088 24.166166 
L 74.818132 22.710266 
L 76.103262 22.176 
L 77.206224 22.742463 
L 78.293259 23.718429 
L 79.53857 24.415692 
L 90.023443 28.28343 
L 90.023443 28.28343 
" clip-path="url(#p7938a4976c)" style="fill: none; stroke: #000000; stroke-width: 2"/>
   </g>
  </g>
 </g>
 <defs>
  <clipPath id="p7938a4976c">
   <rect x="-0" y="-0" width="210.577291" height="266.112"/>
  </clipPath>
 </defs>
</svg>
