<?xml version="1.0" encoding="utf-8" standalone="no"?>
<!DOCTYPE svg PUBLIC "-//W3C//DTD SVG 1.1//EN"
  "http://www.w3.org/Graphics/SVG/1.1/DTD/svg11.dtd">
<svg xmlns:xlink="http://www.w3.org/1999/xlink" width="357.12pt" height="122.026276pt" viewBox="0 0 357.12 122.026276" xmlns="http://www.w3.org/2000/svg" version="1.1">
 <metadata>
  <rdf:RDF xmlns:dc="http://purl.org/dc/elements/1.1/" xmlns:cc="http://creativecommons.org/ns#" xmlns:rdf="http://www.w3.org/1999/02/22-rdf-syntax-ns#">
   <cc:Work>
    <dc:type rdf:resource="http://purl.org/dc/dcmitype/StillImage"/>
    <dc:date>2024-02-02T21:58:00.830155</dc:date>
    <dc:format>image/svg+xml</dc:format>
    <dc:creator>
     <cc:Agent>
      <dc:title>Matplotlib v3.8.2, https://matplotlib.org/</dc:title>
     </cc:Agent>
    </dc:creator>
   </cc:Work>
  </rdf:RDF>
 </metadata>
 <defs>
  <style type="text/css">*{stroke-linejoin: round; stroke-linecap: butt}</style>
 </defs>
 <g id="figure_1">
  <g id="patch_1">
   <path d="M 0 122.026276 
L 357.12 122.026276 
L 357.12 0 
L 0 0 
L 0 122.026276 
z
" style="fill: none"/>
  </g>
  <g id="axes_1">
   <g id="PatchCollection_1">
    <path d="M 210.394217 90.135791 
L 210.859931 90.35846 
L 210.936057 89.897476 
L 211.189065 89.80239 
L 211.511482 89.982932 
L 211.799195 90.35846 
L 211.992869 90.936195 
L 211.930177 91.34422 
L 211.637986 91.441713 
L 211.134209 91.074611 
L 210.812912 90.894069 
L 210.403173 90.773707 
L 210.052768 90.600387 
L 209.690049 89.796372 
L 209.192989 89.441306 
L 208.213423 88.944213 
L 208.60525 88.633681 
L 209.037378 88.734784 
L 209.438161 89.04291 
L 209.73371 89.348628 
L 210.14009 89.904698 
L 210.394217 90.135791 
" clip-path="url(#p675ceb9a63)" style="fill: none; stroke: #000000; stroke-width: 2"/>
    <path d="M 205.048585 87.310909 
L 205.054183 87.584129 
L 204.850433 87.726156 
L 204.622054 87.747821 
L 204.4295 87.678011 
L 204.282845 87.53117 
L 204.13395 87.430066 
L 204.088051 87.302483 
L 204.207838 87.220637 
L 204.344417 87.290447 
L 205.008283 87.419234 
L 204.987013 87.319334 
L 204.971339 87.271189 
L 204.960144 87.194158 
L 205.048585 87.310909 
" clip-path="url(#p675ceb9a63)" style="fill: none; stroke: #000000; stroke-width: 2"/>
    <path d="M 203.598828 87.44451 
L 203.177894 87.469786 
L 202.911452 87.285633 
L 202.951754 87.129163 
L 203.039076 87.095462 
L 203.256259 87.14481 
L 203.63801 87.276004 
L 203.598828 87.44451 
" clip-path="url(#p675ceb9a63)" style="fill: none; stroke: #000000; stroke-width: 2"/>
    <path d="M 207.801446 85.194954 
L 207.855182 85.29004 
L 208.146253 85.135977 
L 208.42389 85.119127 
L 208.96461 85.29004 
L 208.607489 85.714916 
L 207.324537 86.021838 
L 206.882333 86.320334 
L 206.442368 86.079611 
L 205.958742 85.93277 
L 206.294593 85.680011 
L 207.252889 85.462157 
L 207.649193 85.107091 
L 207.796968 85.166068 
L 207.801446 85.194954 
" clip-path="url(#p675ceb9a63)" style="fill: none; stroke: #000000; stroke-width: 2"/>
    <path d="M 200.306366 85.29004 
L 199.832816 85.696862 
L 199.164472 85.469379 
L 198.546506 84.950621 
L 198.222969 84.483618 
L 198.760331 84.365664 
L 199.340234 84.609998 
L 200.306366 85.29004 
" clip-path="url(#p675ceb9a63)" style="fill: none; stroke: #000000; stroke-width: 2"/>
    <path d="M 290.139849 84.584722 
L 290.237246 84.940992 
L 289.723393 84.936177 
L 288.808759 84.685826 
L 288.320655 84.608794 
L 287.888526 84.378904 
L 287.607531 84.002173 
L 287.58738 83.472582 
L 288.944219 83.224638 
L 289.276711 83.270375 
L 289.521883 83.497858 
L 289.918187 84.252524 
L 290.139849 84.584722 
" clip-path="url(#p675ceb9a63)" style="fill: none; stroke: #000000; stroke-width: 2"/>
    <path d="M 195.483543 82.486822 
L 195.491379 82.868368 
L 196.845979 82.827445 
L 197.343039 83.113905 
L 197.659859 83.895051 
L 197.454989 83.895051 
L 196.987037 83.54841 
L 195.057012 83.31852 
L 194.432328 82.683011 
L 194.76818 82.172679 
L 195.040219 81.929549 
L 195.302183 81.948807 
L 195.429806 82.179901 
L 195.483543 82.486822 
" clip-path="url(#p675ceb9a63)" style="fill: none; stroke: #000000; stroke-width: 2"/>
    <path d="M 193.926313 81.780301 
L 193.757267 81.945196 
L 193.680022 81.756228 
L 193.585983 81.645496 
L 192.931073 81.472175 
L 191.547366 80.557428 
L 191.255176 80.222824 
L 191.6067 80.167457 
L 192.108238 80.201158 
L 192.562757 80.327538 
L 192.75755 80.536967 
L 193.078848 80.666957 
L 193.727041 80.745192 
L 194.244252 80.925734 
L 194.167006 81.361443 
L 193.926313 81.780301 
" clip-path="url(#p675ceb9a63)" style="fill: none; stroke: #000000; stroke-width: 2"/>
    <path d="M 188.440743 76.947789 
L 189.663241 77.697641 
L 190.729009 78.752007 
L 191.42646 79.618609 
L 191.288761 79.601759 
L 190.863349 79.618609 
L 190.939476 79.784708 
L 191.051426 80.222824 
L 190.271132 79.82202 
L 189.750562 79.341778 
L 188.796745 78.222416 
L 188.796745 78.002155 
L 189.275893 78.188715 
L 189.629656 78.525727 
L 189.941998 78.908477 
L 190.299119 79.231045 
L 189.938639 78.637663 
L 189.329629 77.870961 
L 188.635536 77.272765 
L 188.028765 77.193326 
L 188.028765 77.413588 
L 188.120565 77.518302 
L 188.145194 77.576076 
L 188.163106 77.649496 
L 188.234754 77.799948 
L 187.921293 77.704862 
L 187.652612 77.545985 
L 187.435428 77.317298 
L 187.276459 77.01158 
L 188.440743 76.947789 
" clip-path="url(#p675ceb9a63)" style="fill: none; stroke: #000000; stroke-width: 2"/>
    <path d="M 184.319848 73.836446 
L 185.40017 74.972658 
L 184.976997 75.149589 
L 184.515762 75.164032 
L 184.076916 75.028024 
L 183.708599 74.752396 
L 183.893317 74.768043 
L 184.459786 74.752396 
L 184.339999 74.433438 
L 184.137369 74.231231 
L 183.91011 74.189105 
L 183.708599 74.347982 
L 182.989877 73.817188 
L 182.751423 73.539153 
L 183.620158 73.410366 
L 184.319848 73.836446 
" clip-path="url(#p675ceb9a63)" style="fill: none; stroke: #000000; stroke-width: 2"/>
    <path d="M 108.481286 60.37763 
L 107.885709 60.399295 
L 107.769281 60.315042 
L 108.101774 60.192273 
L 108.65145 59.731289 
L 108.953716 59.644629 
L 109.211202 59.484548 
L 109.412713 59.254658 
L 109.582878 59.121056 
L 110.368769 58.814135 
L 110.695665 58.799691 
L 111.004648 58.64924 
L 111.253178 58.406109 
L 111.349455 58.196681 
L 111.38304 58.06669 
L 111.430059 58.02336 
L 111.638287 58.256861 
L 111.661797 58.77923 
L 111.192724 59.175219 
L 110.102327 59.579633 
L 109.300763 59.985252 
L 109.116044 60.035803 
L 108.973867 60.132092 
L 108.867515 60.258472 
L 108.481286 60.37763 
" clip-path="url(#p675ceb9a63)" style="fill: none; stroke: #000000; stroke-width: 2"/>
    <path d="M 114.486305 58.268897 
L 113.626526 58.974215 
L 113.145139 58.97903 
L 112.773464 58.593873 
L 112.681665 58.196681 
L 112.76003 58.247232 
L 113.05334 58.568597 
L 113.508978 58.519249 
L 113.878415 58.221956 
L 113.989246 58.045025 
L 113.881773 58.034193 
L 113.962377 57.976419 
L 114.786332 57.615335 
L 114.969931 57.556358 
L 115.341606 57.478123 
L 115.375192 57.629778 
L 114.966573 57.960772 
L 114.486305 58.268897 
" clip-path="url(#p675ceb9a63)" style="fill: none; stroke: #000000; stroke-width: 2"/>
    <path d="M 126.937429 57.427571 
L 124.759994 58.889962 
L 123.906932 59.263083 
L 123.000134 59.34854 
L 122.996775 58.774415 
L 123.255381 58.620353 
L 124.022241 58.743121 
L 124.326746 58.524064 
L 124.585351 58.084744 
L 124.847315 57.748936 
L 125.159657 57.842818 
L 125.520137 58.011324 
L 125.92092 57.904202 
L 126.245576 57.662276 
L 126.379916 57.428775 
L 126.547842 56.922053 
L 126.944146 56.560969 
L 127.806164 56.006102 
L 128.034543 55.918239 
L 128.20023 56.042211 
L 128.262922 56.22516 
L 128.182318 56.319042 
L 128.065889 56.387648 
L 126.937429 57.427571 
" clip-path="url(#p675ceb9a63)" style="fill: none; stroke: #000000; stroke-width: 2"/>
    <path d="M 87.278998 49.566766 
L 89.521365 50.122835 
L 91.064042 50.559747 
L 91.551026 50.775194 
L 91.923821 51.10017 
L 92.073834 51.563562 
L 91.977557 52.111206 
L 91.833141 52.472291 
L 91.85889 52.809303 
L 92.261911 53.289545 
L 93.497843 54.300581 
L 93.86728 54.280119 
L 94.140439 54.419739 
L 94.324037 54.748325 
L 94.462856 55.116631 
L 94.608391 55.391055 
L 94.615108 55.618539 
L 94.467334 55.962772 
L 94.157231 56.521249 
L 93.952362 56.521249 
L 94.100137 56.770398 
L 94.142678 57.023157 
L 94.090061 57.279526 
L 93.952362 57.529878 
L 94.573687 57.925867 
L 94.902821 58.083541 
L 95.284572 58.1365 
L 95.284572 58.355558 
L 95.087539 58.705809 
L 95.309201 59.081337 
L 95.707744 59.39548 
L 96.03464 59.568801 
L 95.755883 60.020156 
L 95.190534 60.626778 
L 94.552416 61.157572 
L 94.055356 61.386259 
L 93.539265 61.484955 
L 90.025142 63.263897 
L 87.923833 64.029396 
L 85.979254 64.243639 
L 85.652359 64.122074 
L 85.40159 63.844039 
L 83.603667 63.810338 
L 83.337225 63.724881 
L 82.798743 63.486566 
L 82.476326 63.405924 
L 81.487804 63.425181 
L 81.239274 63.30482 
L 80.341432 62.10602 
L 79.998864 61.789469 
L 79.225286 61.273119 
L 78.939813 60.93731 
L 78.684566 60.375223 
L 78.496489 59.568801 
L 78.185267 58.837003 
L 78.122575 58.539711 
L 78.308413 58.539711 
L 78.614037 58.841818 
L 79.998864 59.861279 
L 80.180223 60.272915 
L 80.612352 60.625574 
L 81.142997 60.872315 
L 81.604232 60.962586 
L 82.741649 60.962586 
L 82.833448 60.842225 
L 83.603667 60.173015 
L 84.034676 59.884148 
L 84.246262 59.69518 
L 84.336942 59.458068 
L 84.423144 59.486955 
L 84.565321 59.662683 
L 84.595547 59.963586 
L 84.336942 60.375223 
L 84.525019 60.560579 
L 85.022078 59.641018 
L 84.88214 59.299191 
L 84.062663 59.164387 
L 83.739127 58.851447 
L 81.378093 54.686941 
L 81.04448 53.512213 
L 81.331073 52.243604 
L 82.496477 51.321635 
L 82.64761 50.938886 
L 82.886065 50.630761 
L 83.440219 50.238382 
L 84.068261 49.917017 
L 84.525019 49.819525 
L 84.222752 49.675091 
L 83.921606 49.617317 
L 83.603667 49.617317 
L 83.270054 49.448811 
L 83.255501 49.391038 
L 83.433502 49.324839 
L 83.688749 49.129854 
L 87.278998 49.566766 
" clip-path="url(#p675ceb9a63)" style="fill: none; stroke: #000000; stroke-width: 2"/>
    <path d="M 94.325157 49.913406 
L 93.576209 49.949515 
L 92.812707 49.613706 
L 92.531711 49.109392 
L 93.161992 48.949311 
L 94.191936 49.417517 
L 94.647574 49.773787 
L 94.325157 49.913406 
" clip-path="url(#p675ceb9a63)" style="fill: none; stroke: #000000; stroke-width: 2"/>
    <path d="M 67.769401 48.603874 
L 68.189215 48.747104 
L 68.257505 48.743493 
L 68.396324 48.750715 
L 68.249669 48.804878 
L 67.713426 48.822932 
L 67.09546 48.784416 
L 66.676765 48.595449 
L 66.952163 48.440183 
L 67.769401 48.603874 
" clip-path="url(#p675ceb9a63)" style="fill: none; stroke: #000000; stroke-width: 2"/>
    <path d="M 123.310236 45.876484 
L 123.375167 46.285713 
L 123.157984 46.302563 
L 122.869152 46.129243 
L 122.584798 46.153315 
L 122.416872 46.107578 
L 122.293727 45.924628 
L 122.224317 45.700756 
L 122.224317 45.454015 
L 122.39896 45.338468 
L 122.701226 45.411889 
L 122.9867 45.55873 
L 123.12104 45.652612 
L 123.310236 45.876484 
" clip-path="url(#p675ceb9a63)" style="fill: none; stroke: #000000; stroke-width: 2"/>
    <path d="M 224.04433 45.356522 
L 224.494371 45.367355 
L 224.804473 45.209682 
L 225.068676 44.980995 
L 225.37542 44.769159 
L 225.847851 44.630743 
L 226.23296 44.65963 
L 226.566573 44.793231 
L 226.878914 44.971366 
L 226.983028 45.096542 
L 227.238275 45.493735 
L 227.355823 45.577988 
L 227.592038 45.5154 
L 227.988343 45.237365 
L 228.194331 45.173573 
L 228.494359 45.308378 
L 229.377647 45.88852 
L 229.696706 45.999253 
L 230.052708 45.804267 
L 230.278848 45.553915 
L 230.546409 45.526232 
L 231.028916 45.999253 
L 231.238263 46.360337 
L 231.298716 46.725032 
L 231.224829 47.125836 
L 230.630372 48.458237 
L 230.715455 48.743493 
L 231.028916 49.230957 
L 230.603504 49.246604 
L 230.276609 49.375391 
L 229.696706 49.819525 
L 229.826568 49.289934 
L 229.649687 49.049211 
L 229.354138 49.140686 
L 229.132476 49.617317 
L 229.206363 49.708792 
L 229.323911 49.903778 
L 229.344062 50.113206 
L 229.132476 50.241993 
L 228.973506 50.202274 
L 228.870512 50.061451 
L 228.780952 49.880909 
L 228.442861 49.41511 
L 228.31076 49.137075 
L 228.141715 48.869873 
L 227.800266 48.606281 
L 227.40844 48.794045 
L 226.817341 48.667666 
L 226.228482 48.38602 
L 225.845612 48.10317 
L 225.776203 47.845597 
L 225.884795 47.532657 
L 226.046003 47.201663 
L 226.126607 46.891131 
L 225.995626 46.678091 
L 225.697837 46.536065 
L 225.171671 46.385613 
L 225.310489 46.639575 
L 225.364225 46.894742 
L 225.320565 47.149908 
L 225.171671 47.396649 
L 224.983594 46.790027 
L 224.813429 46.790027 
L 224.534673 47.212496 
L 224.084632 47.331654 
L 223.664818 47.154722 
L 223.4801 46.680498 
L 223.241646 46.327839 
L 222.766976 45.943886 
L 222.41881 45.450404 
L 222.558748 44.769159 
L 222.354998 44.569359 
L 222.885643 44.583802 
L 223.268514 44.829339 
L 223.61556 45.142279 
L 224.04433 45.356522 
" clip-path="url(#p675ceb9a63)" style="fill: none; stroke: #000000; stroke-width: 2"/>
    <path d="M 227.630101 42.328229 
L 226.969594 42.345079 
L 226.271024 41.612078 
L 225.171671 39.904149 
L 225.377659 39.506957 
L 225.072035 39.061619 
L 224.582811 38.67887 
L 224.24696 38.471848 
L 224.923141 38.362319 
L 225.525434 38.85219 
L 225.959801 39.583988 
L 226.309087 40.853801 
L 226.737857 41.348487 
L 227.236036 41.803453 
L 227.630101 42.328229 
" clip-path="url(#p675ceb9a63)" style="fill: none; stroke: #000000; stroke-width: 2"/>
    <path d="M 221.310501 40.602246 
L 221.552314 40.705757 
L 222.230733 40.608264 
L 222.558748 40.712978 
L 222.749064 40.977773 
L 222.874448 41.278677 
L 223.071481 41.500142 
L 223.4801 41.539861 
L 223.120739 41.3196 
L 223.230451 41.131836 
L 223.352476 40.969348 
L 223.493534 40.832136 
L 223.651384 40.712978 
L 223.857373 41.071655 
L 224.131651 41.250994 
L 224.401452 41.20646 
L 224.60744 40.897131 
L 224.826863 41.403853 
L 224.527956 41.622911 
L 224.027537 41.734847 
L 223.651384 41.923814 
L 223.969323 42.009271 
L 224.205539 42.182591 
L 224.40593 42.377577 
L 224.60744 42.530436 
L 224.898512 42.629132 
L 225.464981 42.747087 
L 225.751574 42.933647 
L 225.132488 44.172166 
L 224.72163 44.670462 
L 224.419364 44.364744 
L 224.293979 44.422518 
L 223.97716 44.509178 
L 223.856253 44.569359 
L 223.767812 44.341876 
L 223.695045 44.217903 
L 223.4801 43.962737 
L 223.362552 43.368152 
L 222.781529 43.16113 
L 222.319174 43.399446 
L 222.558748 44.14689 
L 222.203865 43.988013 
L 221.236614 43.409074 
L 221.038462 43.245383 
L 220.850385 42.80486 
L 219.972694 42.178981 
L 219.706252 41.721607 
L 220.154053 41.554305 
L 220.511175 41.172759 
L 220.746271 40.687702 
L 220.833592 40.20746 
L 220.872775 39.133836 
L 220.776498 38.799231 
L 220.474232 38.290103 
L 220.890687 38.355098 
L 221.317218 38.499531 
L 221.654189 38.763123 
L 221.790768 39.179574 
L 221.634038 39.45159 
L 221.33625 39.748883 
L 221.145934 40.117189 
L 221.310501 40.602246 
" clip-path="url(#p675ceb9a63)" style="fill: none; stroke: #000000; stroke-width: 2"/>
    <path d="M 215.527143 34.672038 
L 215.745446 35.040344 
L 216.294003 34.735829 
L 216.997052 34.916371 
L 217.688905 35.36532 
L 218.203877 35.86482 
L 218.46808 36.231922 
L 218.707654 36.668834 
L 218.885655 37.131022 
L 218.993128 38.113171 
L 219.119632 38.421296 
L 219.706252 39.07847 
L 219.940228 39.084488 
L 220.321979 39.232533 
L 220.662308 39.280677 
L 220.203312 39.735643 
L 219.545043 39.552694 
L 218.203877 38.674055 
L 217.603823 38.557305 
L 216.938838 38.557305 
L 216.244745 38.412871 
L 215.55737 37.867634 
L 216.139512 37.499328 
L 215.877548 37.008253 
L 215.318915 36.719386 
L 215.009932 36.96733 
L 214.975228 37.242958 
L 214.868875 37.54988 
L 214.687515 37.741254 
L 214.431149 37.665427 
L 214.258745 37.351283 
L 214.245311 36.981774 
L 214.371815 36.75068 
L 214.616986 36.856598 
L 214.623703 36.341451 
L 214.187097 35.754087 
L 213.542262 35.472441 
L 212.926535 35.86482 
L 212.786597 35.711961 
L 212.662332 35.677056 
L 212.530231 35.683074 
L 212.363425 35.645762 
L 212.745176 35.16913 
L 213.287016 35.019882 
L 214.258745 35.040344 
L 215.143153 34.690092 
L 215.527143 34.672038 
" clip-path="url(#p675ceb9a63)" style="fill: none; stroke: #000000; stroke-width: 2"/>
    <path d="M 200.912018 31.58236 
L 200.709388 31.909743 
L 200.638859 32.095099 
L 200.137321 32.266013 
L 199.889911 32.258791 
L 199.837294 32.06862 
L 199.830577 31.58236 
L 199.994024 31.526993 
L 200.376895 31.637726 
L 200.6355 31.601617 
L 200.669085 31.38256 
L 200.730658 31.298307 
L 200.927691 31.397003 
L 200.912018 31.58236 
" clip-path="url(#p675ceb9a63)" style="fill: none; stroke: #000000; stroke-width: 2"/>
    <path d="M 211.278625 31.541437 
L 211.594325 31.972331 
L 211.49357 31.931408 
L 211.236084 31.790585 
L 211.35923 32.188981 
L 213.199694 34.072638 
L 213.302689 34.332618 
L 213.219845 34.625097 
L 213.021693 34.621486 
L 212.774283 34.497514 
L 212.551501 34.433722 
L 209.135895 35.222089 
L 209.135895 35.040344 
L 209.194109 34.950073 
L 209.263518 34.875449 
L 209.317254 34.755087 
L 209.340764 34.5264 
L 209.421368 34.415668 
L 209.602728 34.430111 
L 209.791924 34.46983 
L 209.904994 34.433722 
L 209.928503 34.155687 
L 209.832226 33.870431 
L 209.606086 33.736829 
L 209.238889 33.920982 
L 208.702646 34.158094 
L 207.957057 34.259198 
L 206.711049 34.231515 
L 206.084127 34.042547 
L 205.3307 33.515364 
L 204.194404 33.303528 
L 203.399556 33.050769 
L 202.91593 32.722182 
L 203.312234 32.396003 
L 202.889062 31.927797 
L 202.32819 32.350266 
L 201.881508 32.592192 
L 201.80986 31.588378 
L 201.910615 31.66902 
L 202.168101 31.790585 
L 202.26214 31.204425 
L 202.512909 31.141837 
L 202.805099 31.279049 
L 203.021163 31.285067 
L 203.321191 31.235719 
L 204.54145 31.487274 
L 205.210913 31.913354 
L 205.98561 31.974738 
L 206.768143 31.913354 
L 207.461116 31.972331 
L 208.131699 31.931408 
L 208.568306 31.579952 
L 208.945579 31.175538 
L 209.434802 30.981756 
L 210.059485 31.045548 
L 210.718873 31.230904 
L 211.278625 31.541437 
" clip-path="url(#p675ceb9a63)" style="fill: none; stroke: #000000; stroke-width: 2"/>
    <path d="M 96.639172 30.86982 
L 96.527221 31.059991 
L 96.400717 30.937222 
L 96.460051 29.076435 
L 96.390642 28.82849 
L 96.377208 28.67202 
L 96.480202 28.647948 
L 96.612304 28.77192 
L 96.717537 28.994589 
L 96.757839 29.112543 
L 96.858595 29.466406 
L 96.943677 30.150059 
L 96.782468 30.671224 
L 96.639172 30.86982 
" clip-path="url(#p675ceb9a63)" style="fill: none; stroke: #000000; stroke-width: 2"/>
    <path d="M 187.772399 29.134208 
L 187.584322 29.134208 
L 187.585442 28.938019 
L 187.497001 28.773124 
L 187.274219 28.681649 
L 187.516032 28.584156 
L 188.585159 28.534808 
L 188.230276 28.835712 
L 187.772399 29.134208 
" clip-path="url(#p675ceb9a63)" style="fill: none; stroke: #000000; stroke-width: 2"/>
    <path d="M 194.51965 28.403614 
L 193.88601 28.74183 
L 193.730399 28.335008 
L 193.327378 28.178538 
L 191.678348 28.071417 
L 191.398472 27.95587 
L 191.051426 27.731997 
L 191.514901 27.667002 
L 194.096477 27.82949 
L 194.528606 28.077435 
L 194.51965 28.403614 
" clip-path="url(#p675ceb9a63)" style="fill: none; stroke: #000000; stroke-width: 2"/>
    <path d="M 177.76963 23.819047 
L 179.200356 25.43189 
L 179.795932 25.91815 
L 181.063211 26.309325 
L 182.090916 27.154262 
L 183.217137 27.588767 
L 183.769052 28.161688 
L 184.217973 28.830897 
L 184.459786 29.367709 
L 183.836223 28.811639 
L 183.614561 28.74183 
L 183.371628 28.692482 
L 183.11862 28.578138 
L 182.751423 28.338619 
L 182.341685 27.973924 
L 181.418094 26.94363 
L 180.922154 27.126579 
L 180.417257 27.066399 
L 179.947065 26.837712 
L 179.321263 26.353859 
L 179.142142 26.286456 
L 179.03355 26.158873 
L 178.994368 25.821861 
L 178.900329 25.706314 
L 178.461484 25.377728 
L 178.328263 25.309122 
L 178.099884 25.11895 
L 177.958826 24.7025 
L 177.720372 24.287253 
L 177.200922 24.098285 
L 176.383684 24.438908 
L 176.017606 24.418447 
L 175.971707 23.87682 
L 176.75312 23.637301 
L 177.313992 23.608414 
L 177.76963 23.819047 
" clip-path="url(#p675ceb9a63)" style="fill: none; stroke: #000000; stroke-width: 2"/>
    <path d="M 174.740252 22.182131 
L 175.117525 22.398782 
L 175.270897 22.6046 
L 175.022367 22.868192 
L 174.596956 22.944019 
L 174.402162 22.752645 
L 174.404401 22.545623 
L 174.324916 22.446927 
L 174.217444 22.387949 
L 174.066311 22.409615 
L 173.874876 22.359063 
L 173.343111 21.984739 
L 173.095701 21.698278 
L 173.125927 21.402189 
L 173.471854 21.308307 
L 173.414759 21.120544 
L 173.43491 20.865377 
L 173.582685 20.769088 
L 173.767403 21.096471 
L 173.687918 21.573103 
L 173.881593 21.638098 
L 174.412237 21.753645 
L 174.581283 22.008811 
L 174.740252 22.182131 
" clip-path="url(#p675ceb9a63)" style="fill: none; stroke: #000000; stroke-width: 2"/>
    <path d="M 168.387067 19.019033 
L 168.816956 19.232073 
L 169.044216 19.216426 
L 169.024065 19.613618 
L 168.729635 19.896468 
L 168.144134 19.524551 
L 167.88217 19.6076 
L 167.594458 20.010811 
L 167.322418 20.142005 
L 167.109713 19.413818 
L 167.506017 19.174299 
L 167.940385 19.02144 
L 168.387067 19.019033 
" clip-path="url(#p675ceb9a63)" style="fill: none; stroke: #000000; stroke-width: 2"/>
    <path d="M 170.47942 20.63308 
L 170.161481 20.67641 
L 169.844661 20.481424 
L 169.66666 20.214222 
L 169.749503 20.037291 
L 169.919668 19.896468 
L 169.984599 19.75083 
L 169.738308 19.712315 
L 169.483061 19.571492 
L 169.760698 19.130969 
L 170.380903 18.968481 
L 170.717874 19.069585 
L 170.932819 19.375303 
L 170.972002 19.584732 
L 170.805195 19.726758 
L 170.476061 19.830269 
L 170.281268 20.042105 
L 170.405533 20.208204 
L 170.642867 20.25033 
L 170.687648 20.416429 
L 170.47942 20.63308 
" clip-path="url(#p675ceb9a63)" style="fill: none; stroke: #000000; stroke-width: 2"/>
    <path d="M 159.015698 18.423244 
L 159.266467 18.539994 
L 159.443349 18.712111 
L 159.540746 18.943205 
L 159.560897 19.232073 
L 156.790124 18.754238 
L 156.369191 18.423244 
L 156.537116 18.289643 
L 156.700564 18.221037 
L 156.887521 18.253534 
L 157.119258 18.423244 
L 158.458185 17.767274 
L 159.067196 17.701075 
L 159.560897 18.020033 
L 159.41872 18.104286 
L 159.151158 18.336583 
L 159.015698 18.423244 
" clip-path="url(#p675ceb9a63)" style="fill: none; stroke: #000000; stroke-width: 2"/>
    <path d="M 164.160939 16.308493 
L 164.24938 16.551623 
L 164.353494 16.769478 
L 164.464325 17.160652 
L 164.389318 17.235276 
L 164.234826 17.011404 
L 164.107203 16.874192 
L 163.993013 16.883821 
L 163.811654 16.921133 
L 163.589992 16.891043 
L 163.428783 16.756238 
L 163.330267 16.594953 
L 163.339223 16.525144 
L 163.433261 16.545605 
L 163.476922 16.383117 
L 163.5273 16.029255 
L 163.826207 15.957038 
L 164.160939 16.308493 
" clip-path="url(#p675ceb9a63)" style="fill: none; stroke: #000000; stroke-width: 2"/>
    <path d="M 162.020447 15.780107 
L 161.469651 16.032866 
L 160.911019 15.925744 
L 159.748973 15.375692 
L 159.812785 15.073585 
L 159.957201 14.855731 
L 160.138561 14.63908 
L 160.313204 14.349009 
L 160.518073 14.349009 
L 160.690476 14.729351 
L 160.990503 15.059142 
L 161.357701 15.289032 
L 161.738332 15.375692 
L 162.180536 15.391339 
L 162.327191 15.45152 
L 162.248826 15.574289 
L 162.020447 15.780107 
" clip-path="url(#p675ceb9a63)" style="fill: none; stroke: #000000; stroke-width: 2"/>
    <path d="M 159.208253 15.502072 
L 159.051522 15.514108 
L 158.865685 15.382914 
L 158.735822 15.179503 
L 158.623872 14.955631 
L 158.405569 14.881007 
L 157.999189 14.649913 
L 157.876043 14.596954 
L 157.829024 14.462149 
L 157.782005 14.397154 
L 157.602884 14.285218 
L 157.526758 14.045698 
L 157.794319 13.869971 
L 157.999189 13.831455 
L 158.204058 13.814604 
L 158.442512 13.882007 
L 158.439154 14.046902 
L 158.632828 14.255127 
L 159.035849 14.613804 
L 159.206014 14.844898 
L 159.275423 14.93878 
L 159.386254 15.136173 
L 159.35155 15.332362 
L 159.208253 15.502072 
" clip-path="url(#p675ceb9a63)" style="fill: none; stroke: #000000; stroke-width: 2"/>
    <path d="M 155.538519 13.655727 
L 155.315737 13.711093 
L 155.099673 13.693039 
L 154.392147 13.78331 
L 154.127944 13.995146 
L 153.711488 14.173281 
L 153.335335 14.274385 
L 153.288316 14.220222 
L 153.221145 14.025237 
L 153.326379 13.96626 
L 153.57267 13.995146 
L 153.527889 13.732759 
L 153.664469 13.569067 
L 154.058534 13.512497 
L 154.260045 13.505275 
L 154.893684 13.451113 
L 155.208265 13.454724 
L 155.585538 13.52333 
L 155.538519 13.655727 
" clip-path="url(#p675ceb9a63)" style="fill: none; stroke: #000000; stroke-width: 2"/>
    <path d="M 142.724675 12.753016 
L 143.151206 13.136969 
L 143.151206 12.732555 
L 143.356076 12.732555 
L 143.622518 13.164653 
L 143.796041 13.364453 
L 143.794921 13.501665 
L 143.541913 13.742387 
L 143.085156 14.011997 
L 142.756022 13.981907 
L 142.46495 13.831455 
L 142.124621 13.742387 
L 141.236855 13.831455 
L 140.566272 14.064956 
L 139.204955 14.751016 
L 139.513938 14.411597 
L 141.181999 13.316308 
L 141.673461 13.209186 
L 142.207465 13.22724 
L 142.791846 13.357231 
L 142.684373 13.195947 
L 142.529882 12.887821 
L 142.415692 12.732555 
L 142.603769 12.548402 
L 142.724675 12.753016 
" clip-path="url(#p675ceb9a63)" style="fill: none; stroke: #000000; stroke-width: 2"/>
    <path d="M 151.466883 12.328141 
L 151.705337 12.351009 
L 152.406146 12.328141 
L 152.55504 12.292032 
L 152.748715 12.216204 
L 152.914401 12.225833 
L 152.98605 12.437669 
L 152.924477 12.65432 
L 152.762149 12.775885 
L 152.544965 12.8806 
L 152.313228 13.044291 
L 152.03671 13.003368 
L 151.550845 12.796347 
L 150.996691 12.635062 
L 150.526499 12.732555 
L 150.419027 12.559235 
L 150.29812 12.548402 
L 149.963389 12.732555 
L 150.064144 12.328141 
L 150.244384 12.0814 
L 150.539933 11.958631 
L 150.988854 11.923726 
L 151.100805 11.980296 
L 151.319108 12.242684 
L 151.466883 12.328141 
" clip-path="url(#p675ceb9a63)" style="fill: none; stroke: #000000; stroke-width: 2"/>
    <path d="M 147.6796 12.066956 
L 147.611311 12.271571 
L 147.490404 12.261942 
L 147.403083 12.28481 
L 147.376215 12.49785 
L 147.234038 12.533959 
L 146.918338 12.471371 
L 146.711229 12.58451 
L 146.656374 12.783107 
L 146.562335 12.690428 
L 146.543304 12.313697 
L 146.819821 11.992332 
L 147.29561 11.804568 
L 147.54526 11.746795 
L 147.618028 11.837066 
L 147.6796 12.066956 
" clip-path="url(#p675ceb9a63)" style="fill: none; stroke: #000000; stroke-width: 2"/>
    <path d="M 133.338754 16.484221 
L 134.321678 16.992146 
L 134.867996 17.004182 
L 135.104211 16.871785 
L 136.276332 14.953223 
L 137.327546 14.751016 
L 138.660876 14.946002 
L 138.768348 14.893043 
L 138.818726 15.000164 
L 138.83104 15.46837 
L 139.037029 16.118322 
L 139.543045 16.278403 
L 145.722707 15.137376 
L 147.005659 15.403375 
L 147.693034 15.375692 
L 148.268459 15.131358 
L 148.783431 14.683614 
L 148.934564 14.127544 
L 148.427429 13.557031 
L 148.78567 13.388525 
L 149.505511 13.407783 
L 149.775312 13.557031 
L 149.775312 13.742387 
L 149.540216 13.959038 
L 148.819255 15.375692 
L 149.62082 16.012404 
L 150.619418 17.80579 
L 151.184768 18.202982 
L 151.621374 18.234276 
L 153.158453 18.607397 
L 154.066371 19.505293 
L 154.566789 19.636487 
L 156.46099 19.737591 
L 157.317411 20.352638 
L 158.24548 20.627062 
L 159.151158 20.655948 
L 160.00422 20.477813 
L 161.644294 19.837491 
L 161.438305 19.132173 
L 161.90178 19.116526 
L 164.010925 20.042105 
L 164.561721 19.939798 
L 164.666955 19.232073 
L 165.262531 19.601582 
L 165.495388 19.856748 
L 165.589426 20.140801 
L 166.272324 21.452741 
L 167.463476 22.083435 
L 168.144134 22.126765 
L 168.235934 22.481831 
L 168.806881 22.308511 
L 169.703603 21.464777 
L 171.392935 20.990553 
L 171.634748 21.048327 
L 171.634748 21.274606 
L 170.865649 21.857156 
L 170.234248 21.553845 
L 169.928624 21.794568 
L 169.569263 22.868192 
L 170.040574 23.522958 
L 170.595848 23.77331 
L 171.728786 23.87682 
L 172.214651 24.040512 
L 174.33947 25.443926 
L 174.657409 25.08886 
L 175.284331 25.009422 
L 175.520546 25.159873 
L 176.215759 28.17252 
L 176.961348 28.479442 
L 177.569239 29.054769 
L 177.88382 29.526586 
L 178.516339 30.872227 
L 179.369401 31.790585 
L 179.77914 31.86882 
L 180.890807 31.972331 
L 181.985682 33.628504 
L 184.047809 35.383374 
L 184.853852 35.763716 
L 185.586007 35.645762 
L 186.381975 36.296917 
L 186.882393 36.470238 
L 187.107413 36.15128 
L 187.402962 36.115171 
L 189.360975 36.434129 
L 189.659883 36.221089 
L 189.788626 35.900928 
L 190.408831 35.932222 
L 190.836481 36.19461 
L 191.154421 36.252383 
L 191.745519 36.166927 
L 193.306107 35.645762 
L 193.93303 35.636133 
L 198.164755 36.117579 
L 199.453304 36.050176 
L 199.594362 36.347469 
L 200.119409 38.069841 
L 200.47765 37.867634 
L 200.753048 38.250383 
L 201.008295 38.014475 
L 201.433707 37.076859 
L 200.894106 36.389595 
L 200.665727 36.252383 
L 200.665727 36.050176 
L 201.482965 36.159705 
L 202.361776 37.044362 
L 205.367644 38.108357 
L 205.753873 38.380374 
L 205.988969 38.758309 
L 207.167806 39.65139 
L 207.649193 39.904149 
L 208.306342 40.102746 
L 209.962089 40.385595 
L 210.468104 40.308564 
L 210.468104 41.117393 
L 210.859931 40.897131 
L 211.751056 42.204256 
L 212.942208 42.763937 
L 213.490765 42.751901 
L 214.858799 43.255012 
L 216.461929 43.482495 
L 216.683591 44.364744 
L 216.91085 44.422518 
L 217.616138 44.414092 
L 217.525458 44.458626 
L 217.434778 44.569359 
L 217.72361 44.840172 
L 218.768107 45.173573 
L 219.174487 45.031547 
L 219.435332 45.313192 
L 219.80029 46.090727 
L 220.474232 46.790027 
L 220.655591 47.33045 
L 221.370954 48.490734 
L 222.028103 48.839782 
L 223.386062 50.385223 
L 224.04433 51.454033 
L 224.374584 51.404685 
L 224.531314 51.108596 
L 224.662296 48.89876 
L 224.813429 48.606281 
L 225.115695 48.476291 
L 226.297892 48.606281 
L 226.05384 48.913203 
L 225.17391 49.07208 
L 224.983594 49.324839 
L 225.131368 50.249215 
L 225.545585 50.848615 
L 226.100859 51.259047 
L 226.777039 51.251826 
L 227.073708 51.449218 
L 227.401723 52.415721 
L 227.54278 53.127057 
L 227.799147 53.383427 
L 228.161866 53.560358 
L 229.095532 53.838393 
L 229.499673 53.642204 
L 230.190407 54.077912 
L 231.862946 53.82395 
L 232.343213 53.878112 
L 232.804449 54.094763 
L 234.033665 54.886741 
L 234.049338 54.477512 
L 234.264282 54.271694 
L 234.972928 54.077912 
L 235.016589 54.371594 
L 235.177798 54.520842 
L 235.742028 54.501584 
L 235.553951 54.077912 
L 235.941299 54.205495 
L 236.867129 55.105799 
L 236.471944 55.158758 
L 236.026382 54.979419 
L 235.930104 55.492159 
L 235.993916 56.033786 
L 236.63875 57.732085 
L 236.991394 57.847632 
L 237.824305 57.95355 
L 238.661694 58.355558 
L 239.063596 58.155758 
L 239.208012 57.792266 
L 238.781481 57.084541 
L 238.066118 56.759565 
L 237.770569 56.364779 
L 236.961168 54.488345 
L 236.306258 54.179016 
L 236.129376 53.464069 
L 235.845022 53.246215 
L 235.365874 53.491752 
L 234.972928 53.069283 
L 234.600134 53.415924 
L 234.210546 53.170387 
L 233.469435 52.243604 
L 232.435013 51.352929 
L 232.143942 50.895556 
L 231.955865 50.845004 
L 231.575234 51.030361 
L 231.80921 50.524843 
L 232.246936 49.992845 
L 232.749593 49.651019 
L 233.179483 49.718421 
L 234.136659 50.52725 
L 234.239653 50.769176 
L 234.512812 51.673091 
L 237.995589 54.077912 
L 239.396089 54.516028 
L 240.179742 55.19607 
L 241.111169 55.960365 
L 241.480605 56.098781 
L 243.506908 57.535896 
L 243.889778 57.657461 
L 244.299517 57.659869 
L 244.792098 57.529878 
L 244.578273 58.088355 
L 244.727167 58.445829 
L 245.168252 58.962179 
L 245.071974 59.549543 
L 244.410348 60.265694 
L 244.228988 60.779637 
L 243.987175 60.619556 
L 243.375926 59.973215 
L 241.158188 59.015138 
L 240.642097 58.962179 
L 240.656651 59.015138 
L 240.394687 59.362983 
L 239.849488 59.106613 
L 239.311007 58.743121 
L 238.677367 58.796081 
L 238.455706 59.088559 
L 238.546385 59.413535 
L 240.146157 60.236807 
L 240.917495 60.173015 
L 241.458215 60.399295 
L 241.599273 60.89037 
L 241.400001 61.381444 
L 240.917495 61.605316 
L 240.840249 61.848447 
L 241.254466 62.894387 
L 241.377611 63.092984 
L 241.688833 63.154368 
L 242.30456 63.052061 
L 242.741167 63.102613 
L 242.521744 63.624981 
L 242.792664 63.551561 
L 244.024119 62.982251 
L 244.265932 62.534507 
L 244.605141 60.962586 
L 245.526493 59.34854 
L 246.048182 59.253454 
L 246.553078 59.561579 
L 249.995553 63.644239 
L 250.405292 63.93431 
L 251.40165 64.41696 
L 252.921937 64.743139 
L 253.280178 65.021174 
L 253.092101 65.425588 
L 253.656332 65.425588 
L 253.495123 66.035821 
L 253.27682 66.339132 
L 252.942088 66.441439 
L 251.967 66.504027 
L 251.574054 66.664108 
L 251.298656 66.946957 
L 251.195662 67.363408 
L 251.578532 68.092798 
L 252.984629 67.350168 
L 252.904025 68.08678 
L 253.169347 67.892998 
L 253.468255 66.87474 
L 253.280178 66.87474 
L 253.779477 65.999713 
L 253.826496 65.64585 
L 255.674797 66.223585 
L 256.011768 66.142943 
L 256.474123 66.453475 
L 257.939554 66.84465 
L 258.313468 67.259897 
L 258.475796 67.678755 
L 258.274286 67.866518 
L 257.827604 67.967622 
L 256.286047 68.675347 
L 256.392399 68.232417 
L 256.139391 67.971233 
L 255.866232 67.957993 
L 255.909893 68.270933 
L 255.776672 68.737935 
L 256.143869 68.930514 
L 257.137989 69.19892 
L 257.552206 69.522692 
L 258.53625 69.848871 
L 259.120631 69.886183 
L 259.120631 69.703234 
L 258.341456 69.356593 
L 257.995529 68.67294 
L 258.008963 68.483973 
L 258.539608 68.270933 
L 259.020995 68.256489 
L 259.677024 68.463511 
L 260.286034 68.830614 
L 260.639798 69.29882 
L 260.812201 69.29882 
L 260.812201 68.675347 
L 260.998039 68.675347 
L 260.901762 69.859704 
L 260.586062 70.247268 
L 259.120631 70.311059 
L 259.120631 70.512063 
L 259.683741 70.512063 
L 259.308707 70.71427 
L 259.530369 71.094612 
L 259.80017 71.080169 
L 260.106914 70.932124 
L 260.436048 70.91407 
L 260.671144 71.11387 
L 260.947661 71.629017 
L 261.342846 71.661515 
L 261.767138 71.207752 
L 261.833189 71.112666 
L 262.314576 71.116277 
L 263.440797 70.512063 
L 263.015385 70.361611 
L 261.767138 70.107648 
L 261.434646 69.711659 
L 261.342846 69.238639 
L 261.530923 68.841446 
L 262.032461 68.675347 
L 265.327161 68.774044 
L 266.002222 68.988287 
L 266.394049 69.314467 
L 267.363539 69.733324 
L 268.4002 70.52771 
L 271.322105 71.648275 
L 272.198677 72.238046 
L 272.50766 74.163829 
L 272.777461 74.477972 
L 272.967776 74.456307 
L 273.243174 74.163829 
L 273.991003 73.842464 
L 274.667183 74.113277 
L 274.966091 74.600741 
L 274.967211 74.972658 
L 275.139614 74.972658 
L 275.342244 74.550189 
L 275.530321 75.005155 
L 275.765417 75.105055 
L 275.929984 74.875165 
L 275.906474 74.347982 
L 276.873726 74.404552 
L 277.392056 74.232435 
L 278.057042 73.761822 
L 278.744417 73.848482 
L 279.00974 73.99773 
L 279.238119 74.514081 
L 279.469856 74.558614 
L 279.614272 74.431031 
L 279.474334 74.163829 
L 280.893865 73.135942 
L 281.458095 73.359814 
L 281.924928 73.675161 
L 282.405195 73.539153 
L 283.355654 73.537949 
L 284.13371 73.665532 
L 284.67555 74.134942 
L 284.921841 75.155607 
L 286.007759 74.925717 
L 286.633562 75.333742 
L 287.58738 76.788912 
L 286.861941 78.207973 
L 286.442127 78.626831 
L 286.035747 79.771468 
L 285.653996 80.160236 
L 285.202836 80.435863 
L 284.751676 80.425031 
L 284.343057 79.406773 
L 284.000489 79.618609 
L 283.594109 79.450103 
L 283.267214 79.618609 
L 283.654562 79.714898 
L 283.812412 80.038671 
L 283.033237 80.096444 
L 283.05003 80.457528 
L 283.812412 81.472175 
L 284.120276 81.005173 
L 284.845714 80.786115 
L 286.270843 80.829445 
L 287.58738 81.56365 
L 287.729557 82.285819 
L 287.960175 82.465157 
L 288.339686 82.463953 
L 288.121383 83.169272 
L 287.734035 83.169272 
L 286.625726 82.435067 
L 286.442127 82.040281 
L 286.153295 81.826038 
L 284.113559 82.252117 
L 282.311157 82.040281 
L 282.455573 82.378497 
L 282.41863 82.757635 
L 282.161144 83.653124 
L 282.060388 84.375293 
L 281.935004 84.685826 
L 282.190251 84.945806 
L 282.509309 85.584926 
L 284.000489 86.337185 
L 284.490831 85.381515 
L 285.807368 84.262153 
L 286.083886 83.67479 
L 286.519373 84.028652 
L 286.782456 84.486026 
L 286.838431 84.993951 
L 286.648116 85.511505 
L 287.357881 85.422438 
L 287.614248 85.512709 
L 287.447442 86.110905 
L 287.729557 86.313112 
L 288.339686 86.520134 
L 288.186314 85.867775 
L 289.807356 86.252932 
L 290.235007 85.713712 
L 290.405171 85.713712 
L 290.717513 86.039892 
L 291.174271 86.320334 
L 291.37914 85.713712 
L 290.683928 85.48984 
L 290.405171 85.511505 
L 290.74774 85.050521 
L 291.406008 84.856739 
L 292.658733 84.906087 
L 293.142359 85.107091 
L 293.707708 85.469379 
L 293.894665 85.807594 
L 293.239756 85.93277 
L 293.801747 86.722341 
L 293.989823 86.320334 
L 294.224919 86.955842 
L 294.896622 87.10148 
L 296.450493 86.924548 
L 295.971346 86.603183 
L 294.930207 86.074797 
L 294.385008 85.93277 
L 294.734294 85.552428 
L 295.405996 85.374293 
L 296.130315 85.368275 
L 296.63857 85.511505 
L 296.450493 85.29004 
L 296.871427 85.324945 
L 298.156617 85.595758 
L 298.496947 85.788336 
L 298.589865 85.992951 
L 298.140944 86.118127 
L 298.140944 86.320334 
L 298.959302 86.459953 
L 299.080208 86.320334 
L 299.401506 86.55865 
L 299.876176 86.431066 
L 300.329575 86.455139 
L 300.583702 87.14481 
L 300.638558 86.987136 
L 300.787452 86.520134 
L 301.291229 86.837888 
L 301.524086 86.849924 
L 301.726716 86.722341 
L 301.336009 86.320334 
L 303.548149 86.036281 
L 304.849013 86.544206 
L 304.937453 86.823445 
L 305.133367 86.993154 
L 306.252871 86.924548 
L 307.605232 87.993358 
L 309.780428 88.253339 
L 310.348016 88.437492 
L 310.777906 88.742006 
L 310.38496 88.944213 
L 310.777906 89.650735 
L 310.860749 90.056353 
L 311.154059 90.174307 
L 311.486552 90.429473 
L 312.486269 90.762875 
L 312.582547 91.156456 
L 313.113191 91.58735 
L 314.5831 92.660974 
L 314.879769 93.282039 
L 316.05077 94.82748 
L 317.651661 96.387365 
L 318.627868 96.616051 
L 319.366741 97.074628 
L 319.980229 97.675232 
L 320.20413 98.289075 
L 320.40788 98.289075 
L 320.776197 97.875032 
L 321.33371 97.877439 
L 322.475604 98.070017 
L 324.524296 97.262392 
L 325.138904 97.565703 
L 325.686341 98.070017 
L 326.623366 98.676639 
L 326.956979 99.097904 
L 327.299547 100.143845 
L 327.36 100.713155 
L 327.110351 101.363106 
L 324.679907 102.909751 
L 324.524296 103.964117 
L 323.65892 104.744059 
L 322.637932 104.713969 
L 321.480365 104.410658 
L 320.20413 104.367328 
L 318.472257 104.733227 
L 317.304615 104.823498 
L 315.045386 105.355253 
L 313.995133 105.151827 
L 313.127543 105.517314 
L 311.395872 105.232252 
L 308.648609 105.662417 
L 307.960114 105.982578 
L 306.589841 107.235541 
L 305.978592 107.395622 
L 304.95207 107.47593 
L 304.726964 107.716599 
L 304.560653 108.331971 
L 304.111994 109.041146 
L 303.225732 109.380382 
L 302.246623 109.497692 
L 302.098963 109.149498 
L 301.755514 109.083448 
L 301.678066 109.578701 
L 300.889188 109.804574 
L 300.890716 107.605071 
L 299.732821 107.606049 
L 299.93327 107.322201 
L 300.337652 107.042055 
L 300.694641 106.974519 
L 301.168409 105.998537 
L 301.004636 105.715376 
L 300.959856 104.953488 
L 300.39986 105.06411 
L 299.766965 106.134586 
L 299.256924 105.842631 
L 298.841686 106.007952 
L 298.623451 106.646973 
L 298.71413 106.957506 
L 299.154096 107.020094 
L 299.285077 106.789 
L 299.342172 106.925008 
L 299.458768 107.229584 
L 299.12504 107.422117 
L 299.095713 107.632749 
L 298.582057 107.63027 
L 297.203461 108.615028 
L 297.096447 109.721005 
L 295.671318 110.070053 
L 292.655375 110.210876 
L 291.195541 109.877474 
L 290.796998 110.240966 
L 290.052528 110.340866 
L 289.171478 110.325219 
L 288.347523 110.161527 
L 287.775456 109.819701 
L 286.8653 109.958117 
L 285.740198 109.350291 
L 284.601662 108.528223 
L 283.643367 108.021501 
L 283.041074 107.951691 
L 280.547938 107.954099 
L 278.912343 107.597829 
L 277.304735 107.881882 
L 276.939777 108.112976 
L 276.537875 108.173156 
L 272.907323 107.282482 
L 270.425383 106.991207 
L 269.162582 107.041759 
L 266.966115 107.647177 
L 265.91714 107.800036 
L 263.326607 107.885493 
L 261.562269 108.423508 
L 258.062699 108.210468 
L 254.500438 108.51739 
L 253.931729 108.813479 
L 253.330556 108.788203 
L 252.151718 108.607661 
L 251.728546 108.794221 
L 250.839659 109.526019 
L 250.257517 109.819701 
L 249.608205 109.987003 
L 246.054899 110.153102 
L 245.356328 110.038759 
L 243.981578 109.482689 
L 243.278529 109.350291 
L 242.897898 109.636752 
L 242.709821 109.636752 
L 242.503832 109.438155 
L 242.223956 109.394825 
L 241.951917 109.518797 
L 241.770557 109.819701 
L 241.071987 109.588607 
L 240.271541 109.524815 
L 239.560656 109.713783 
L 239.12293 110.240966 
L 239.872998 110.240966 
L 239.872998 110.443173 
L 239.384894 110.467245 
L 238.613556 110.772963 
L 238.097464 110.847588 
L 235.547234 110.918601 
L 233.803047 111.351902 
L 232.813405 111.453006 
L 231.653599 111.360327 
L 229.423547 111.85742 
L 228.680196 111.619104 
L 228.376811 111.355513 
L 228.194331 111.032944 
L 228.227917 110.486503 
L 228.975745 109.169749 
L 229.525422 109.03013 
L 230.089652 108.423508 
L 230.005689 108.102143 
L 230.133312 107.87466 
L 230.652762 107.395622 
L 231.407308 106.16312 
L 232.719367 104.957099 
L 232.665631 104.699525 
L 232.296194 104.325201 
L 232.343213 104.145863 
L 232.591743 104.162713 
L 233.317182 104.40464 
L 233.590341 104.138641 
L 234.239653 103.852181 
L 234.31578 103.67525 
L 234.803883 102.935027 
L 235.283031 102.598015 
L 236.464108 101.960099 
L 236.915268 101.290889 
L 237.434718 100.905733 
L 240.20549 99.584164 
L 240.736135 99.501115 
L 241.145874 99.273632 
L 241.579122 98.207229 
L 242.153427 97.85096 
L 242.333668 97.86781 
L 242.176937 98.212044 
L 242.342624 98.381754 
L 242.697506 98.397401 
L 243.100528 98.289075 
L 243.476681 98.042334 
L 243.766633 97.675232 
L 243.956948 97.234709 
L 244.024119 96.756874 
L 244.225629 96.587164 
L 245.356328 95.864996 
L 245.44365 94.447138 
L 245.841074 94.040317 
L 246.209391 93.001597 
L 245.087648 91.355053 
L 244.346536 90.853146 
L 243.093811 90.431881 
L 243.271812 90.762875 
L 243.100528 90.965082 
L 241.87691 90.109312 
L 241.770557 89.449731 
L 241.863476 89.249931 
L 242.521744 88.944213 
L 243.100528 88.135384 
L 243.100528 87.935584 
L 242.10305 87.292854 
L 241.570166 87.179715 
L 241.377611 87.733377 
L 240.823457 87.180918 
L 240.356623 86.440695 
L 239.814783 85.790744 
L 239.036728 85.511505 
L 238.249717 85.581315 
L 237.38434 85.787133 
L 236.664499 86.104887 
L 236.306258 86.520134 
L 235.885324 86.357646 
L 235.553951 86.520134 
L 234.596775 86.722341 
L 234.116508 86.640495 
L 232.719367 86.118127 
L 231.405069 86.722341 
L 230.821807 86.320334 
L 230.61358 86.278207 
L 229.584755 86.293854 
L 228.766398 86.091647 
L 228.411515 86.118127 
L 227.060274 86.036281 
L 226.588963 85.884626 
L 225.857926 85.3767 
L 225.344074 85.222638 
L 224.334281 85.107091 
L 223.736466 85.251524 
L 222.558748 86.118127 
L 220.769781 86.171086 
L 219.832756 85.925548 
L 219.536087 85.29004 
L 219.330098 85.29004 
L 219.161053 85.713712 
L 218.257614 84.635274 
L 217.930718 84.483618 
L 217.330664 84.36085 
L 216.999291 84.039485 
L 216.222355 82.752821 
L 215.71522 82.283411 
L 215.157707 81.931956 
L 214.7211 81.948807 
L 214.425551 82.112498 
L 214.325915 81.960843 
L 214.258745 81.472175 
L 213.753849 80.788522 
L 213.47957 80.109684 
L 211.536111 78.680994 
L 211.159958 78.573872 
L 210.193826 78.626831 
L 209.851258 78.428235 
L 208.796685 76.855111 
L 207.785773 76.072761 
L 207.540601 76.043874 
L 207.352525 75.767043 
L 207.183479 74.756007 
L 207.087202 72.832631 
L 206.870018 72.004545 
L 206.449085 71.171643 
L 206.156894 70.332724 
L 206.334895 69.481769 
L 206.586784 69.780265 
L 206.892408 69.823595 
L 207.149894 69.624999 
L 207.257367 69.19892 
L 207.055856 68.895609 
L 206.162492 68.595909 
L 205.958742 68.381665 
L 205.901647 67.864111 
L 205.46616 65.842039 
L 204.832521 64.518063 
L 204.664595 63.523878 
L 204.241423 62.580244 
L 203.681671 61.771415 
L 202.658444 60.880741 
L 202.228555 60.719456 
L 200.430631 60.381241 
L 200.299649 60.160979 
L 200.47765 59.752954 
L 200.788872 59.932292 
L 201.138158 59.99127 
L 201.894942 59.973215 
L 202.004654 59.838411 
L 201.864716 59.5351 
L 201.328473 58.886352 
L 200.47765 58.355558 
L 199.875357 58.261676 
L 199.351429 58.539711 
L 198.076314 58.8358 
L 196.660141 59.016342 
L 196.380265 59.312431 
L 196.236969 59.568801 
L 196.024263 59.594077 
L 194.261044 59.568801 
L 194.074087 59.34854 
L 193.601656 59.612131 
L 193.098999 59.730085 
L 191.372724 59.848039 
L 189.925205 60.560579 
L 188.794506 60.865094 
L 187.704109 60.960179 
L 186.589083 60.857872 
L 184.38366 60.215142 
L 183.929141 59.9347 
L 183.418648 59.458068 
L 183.03018 59.399091 
L 181.062092 59.568801 
L 180.196715 59.218549 
L 179.933631 58.962179 
L 179.274244 57.999288 
L 178.877939 58.743121 
L 178.603661 58.786452 
L 177.908449 58.315838 
L 176.567283 57.918646 
L 176.184412 57.456458 
L 175.863115 56.841411 
L 175.510471 56.723457 
L 173.567012 56.672905 
L 171.713113 56.134889 
L 171.006706 56.145722 
L 170.696604 56.622353 
L 170.509646 57.138704 
L 170.042813 57.06769 
L 168.816956 56.319042 
L 169.381186 56.098781 
L 169.381186 55.914628 
L 168.954655 55.815931 
L 168.865095 55.484937 
L 168.816956 54.703792 
L 168.350123 55.048025 
L 167.864258 55.197274 
L 166.717886 55.105799 
L 165.837956 54.827764 
L 165.589426 54.886741 
L 165.515539 55.09617 
L 165.962221 55.442811 
L 166.187241 55.492159 
L 165.849151 55.860465 
L 165.338657 55.614928 
L 164.870705 55.084134 
L 164.666955 54.602688 
L 164.605382 53.96718 
L 164.416186 53.41111 
L 164.088171 53.016324 
L 161.92417 52.339893 
L 160.759886 52.087134 
L 159.949365 51.405888 
L 158.511922 50.946108 
L 157.663337 50.216717 
L 154.607091 46.862244 
L 154.58694 46.54449 
L 154.351844 46.365151 
L 153.908521 46.385613 
L 153.527889 45.929443 
L 153.532368 45.577988 
L 153.921955 45.655019 
L 154.401103 45.633354 
L 154.873533 45.484106 
L 155.24185 45.173573 
L 154.660828 45.356522 
L 155.034742 44.364744 
L 154.815319 44.27327 
L 154.235416 44.349097 
L 154.267882 43.962737 
L 153.724922 43.96033 
L 153.377876 43.746086 
L 153.344291 43.381391 
L 153.738356 42.933647 
L 152.822602 42.27527 
L 152.609896 41.923814 
L 152.421819 42.225922 
L 152.083729 42.333043 
L 151.67511 42.282491 
L 151.278806 42.109171 
L 151.129912 42.739865 
L 151.389637 43.141872 
L 152.219189 43.742476 
L 152.983811 44.968959 
L 153.153975 45.68872 
L 152.98605 46.385613 
L 151.803853 45.937868 
L 148.384888 46.035361 
L 144.998388 45.797045 
L 141.031985 46.239975 
L 138.642964 45.999253 
L 138.105602 45.813896 
L 137.072299 45.284306 
L 135.991978 45.065248 
L 135.573284 44.767955 
L 135.295647 44.314192 
L 134.491843 42.530436 
L 134.473931 42.061026 
L 134.681039 40.804453 
L 134.554535 40.7202 
L 133.826857 39.593617 
L 133.45854 39.355301 
L 133.089104 39.275863 
L 132.780121 39.379374 
L 132.597642 39.683888 
L 132.604359 40.052194 
L 132.989468 41.3196 
L 133.0085 44.905167 
L 132.793555 45.821118 
L 132.221488 45.780195 
L 132.613315 45.135057 
L 132.498006 44.20346 
L 132.102821 43.346486 
L 131.846455 43.135854 
L 130.906071 43.540268 
L 130.819869 43.791824 
L 130.852335 44.343079 
L 130.734787 44.569359 
L 130.410131 44.718607 
L 129.778731 44.364744 
L 129.579459 44.506771 
L 129.467508 44.891927 
L 129.129418 44.971366 
L 128.13306 44.523621 
L 127.527408 42.554508 
L 126.482911 42.109171 
L 124.846196 42.017696 
L 124.022241 41.539861 
L 123.809535 41.630132 
L 123.406514 42.017696 
L 122.959831 42.2187 
L 122.710182 42.328229 
L 122.62398 42.276473 
L 122.435904 41.923814 
L 120.501401 41.305157 
L 120.353626 41.630132 
L 120.084945 41.750494 
L 118.836698 41.713182 
L 118.285902 41.539861 
L 118.214254 41.902149 
L 118.036253 41.996031 
L 117.517922 41.923814 
L 117.600766 42.041769 
L 117.721672 42.328229 
L 117.418286 42.327025 
L 115.742389 42.016493 
L 114.798647 40.83334 
L 114.699011 40.400039 
L 114.222102 39.901742 
L 109.925446 38.10956 
L 109.262699 37.626911 
L 108.484644 37.481274 
L 108.033484 36.772345 
L 108.006616 36.654391 
L 107.126686 36.596617 
L 106.660972 36.36793 
L 106.401247 35.86482 
L 106.554938 35.401689 
L 106.884873 35.116171 
L 107.645752 34.830979 
L 110.812702 34.939688 
L 111.845801 34.674335 
L 112.577845 34.789933 
L 113.923153 34.632138 
L 115.283306 34.86265 
L 116.700131 34.639041 
L 117.788842 34.174945 
L 118.097825 34.231515 
L 118.382179 34.079859 
L 119.225166 34.011253 
L 119.62035 33.891314 
L 120.240838 33.282228 
L 120.499089 33.174523 
L 120.464943 32.554648 
L 120.575288 32.273234 
L 120.506082 31.813437 
L 120.727657 30.662894 
L 120.330859 30.529232 
L 119.919432 30.516679 
L 117.697632 28.731313 
L 114.282865 27.498019 
L 113.322021 27.533401 
L 111.117718 27.735608 
L 108.194459 28.231867 
L 107.309165 27.848748 
L 105.441467 27.319261 
L 103.350865 27.323899 
L 101.585141 27.52979 
L 101.011955 27.465998 
L 100.138938 27.240966 
L 98.329344 27.478659 
L 96.880985 27.126579 
L 96.558568 27.189167 
L 95.754764 27.52979 
L 94.475836 27.253152 
L 93.498374 27.484573 
L 90.596089 26.710129 
L 90.00611 26.722165 
L 89.434044 27.013439 
L 89.153048 27.493682 
L 88.883248 29.183556 
L 88.477987 29.459184 
L 87.547679 29.769716 
L 85.566157 31.38617 
L 84.517182 31.570323 
L 82.684554 32.525993 
L 81.784473 33.126597 
L 81.031046 33.914964 
L 79.460382 36.917982 
L 78.808831 37.560712 
L 77.915467 37.665427 
L 76.635873 37.371745 
L 76.230613 37.554694 
L 76.197028 38.080674 
L 75.53652 38.059009 
L 75.49174 38.178166 
L 75.49174 38.674055 
L 74.496501 39.315582 
L 74.012875 39.933036 
L 73.791214 40.737051 
L 73.408343 41.117393 
L 73.277361 40.932036 
L 73.261688 41.278677 
L 73.066895 41.482088 
L 72.913137 41.181244 
L 72.684974 41.086057 
L 72.443354 41.11814 
L 72.422207 41.604703 
L 71.96876 42.099815 
L 70.597269 42.2187 
L 69.176618 42.036954 
L 67.960837 41.539861 
L 68.189215 41.290713 
L 68.116448 40.98981 
L 67.755967 40.308564 
L 67.567891 40.308564 
L 67.178303 41.099338 
L 66.496525 41.814285 
L 65.691602 42.330636 
L 64.938176 42.530436 
L 64.99527 42.426925 
L 65.10946 42.109171 
L 61.915515 42.530436 
L 61.733036 42.210275 
L 61.727438 41.923814 
L 61.412857 42.020103 
L 61.085962 42.43535 
L 60.686299 42.530436 
L 58.549166 42.407667 
L 57.937917 42.530436 
L 56.809457 43.641372 
L 56.565405 44.681295 
L 56.434423 44.971366 
L 56.62138 45.342079 
L 56.639292 45.780195 
L 56.326951 45.517807 
L 56.024684 45.585209 
L 55.837727 45.90176 
L 55.870193 46.385613 
L 56.078421 46.776787 
L 56.348221 46.921221 
L 56.66616 46.841783 
L 57.015446 46.569766 
L 56.858715 47.210089 
L 55.907137 47.915407 
L 55.682116 48.51601 
L 56.078421 49.043193 
L 55.956395 49.324839 
L 55.400001 49.808692 
L 54.741733 50.039786 
L 54.224522 49.913406 
L 53.184503 49.357337 
L 52.573253 49.230957 
L 51.975438 49.369373 
L 50.405894 50.241993 
L 48.975167 50.368373 
L 48.350484 50.763158 
L 47.490705 51.020732 
L 44.241904 53.748122 
L 43.060828 54.394463 
L 41.899902 54.501584 
L 41.54278 53.917831 
L 42.644372 51.592449 
L 42.858197 50.426146 
L 42.235753 49.563155 
L 41.138639 49.374187 
L 39.913902 49.559544 
L 37.72863 50.205885 
L 36.662862 50.715014 
L 33.884253 52.570987 
L 32.778183 52.843004 
L 31.581433 52.823746 
L 30.426105 52.462662 
L 30.048832 52.156944 
L 29.824931 51.735679 
L 29.76 51.249418 
L 29.949196 50.560951 
L 30.266016 50.126446 
L 30.449614 50.053026 
L 30.669037 50.278102 
L 30.828007 50.592245 
L 31.252299 50.841393 
L 31.741522 50.848615 
L 32.211714 50.650018 
L 32.535251 50.31421 
L 32.549804 49.938682 
L 32.098644 49.617317 
L 32.567716 49.360947 
L 32.985291 49.362151 
L 33.246136 49.648611 
L 33.243897 50.241993 
L 35.497458 49.029954 
L 37.495773 48.436572 
L 39.837775 47.382205 
L 41.54278 46.183406 
L 42.24247 46.203867 
L 42.414874 46.338672 
L 42.293967 46.569766 
L 43.158224 46.952515 
L 43.7997 46.771973 
L 44.423264 46.391631 
L 45.230426 46.183406 
L 45.630089 46.304971 
L 46.48651 46.963348 
L 46.78094 47.468866 
L 47.527649 46.927239 
L 47.947463 46.992234 
L 48.339289 45.356522 
L 48.010155 45.729643 
L 47.719084 46.24479 
L 47.407862 46.519214 
L 47.023872 46.183406 
L 46.861544 45.61891 
L 46.896248 45.183202 
L 46.80221 44.843783 
L 46.257012 44.569359 
L 46.647719 43.742476 
L 46.137225 43.684702 
L 45.079293 43.211682 
L 44.734486 42.933647 
L 44.076218 41.637354 
L 43.625058 41.539861 
L 43.899336 41.283491 
L 44.459088 40.286899 
L 44.615819 39.107357 
L 44.734486 38.471848 
L 45.196841 37.098524 
L 45.739801 36.266827 
L 46.17081 36.15128 
L 47.453761 34.1268 
L 47.947463 33.8271 
L 47.947463 33.606839 
L 47.383233 33.606839 
L 47.857902 33.220479 
L 49.035621 33.005032 
L 49.550593 32.707739 
L 49.878607 32.259995 
L 50.224534 31.596803 
L 50.352157 30.95648 
L 50.02974 30.578545 
L 50.02974 30.35708 
L 50.59397 30.578545 
L 50.985797 30.280049 
L 51.357472 30.222275 
L 51.67765 30.388374 
L 51.908268 30.761495 
L 52.300094 29.367709 
L 52.571014 29.256977 
L 53.283019 29.194389 
L 53.428555 29.054769 
L 53.536027 28.253162 
L 53.73306 27.898096 
L 54.452901 28.279642 
L 54.741733 28.127986 
L 55.305963 27.52979 
L 55.097735 27.191574 
L 54.814501 26.984553 
L 54.447303 26.902707 
L 53.992785 26.94363 
L 54.317441 26.505514 
L 54.829054 26.3009 
L 55.272378 26.462184 
L 55.956395 27.345637 
L 56.654965 27.119358 
L 58.328624 25.913336 
L 58.704777 26.3009 
L 58.966741 25.672613 
L 59.386555 25.395782 
L 61.041182 25.220054 
L 62.937622 24.261977 
L 63.8892 23.920151 
L 64.648224 23.929779 
L 64.99527 24.091064 
L 65.485613 24.034494 
L 66.065516 23.693871 
L 66.065516 23.472406 
L 65.671451 23.693871 
L 65.635627 23.585546 
L 65.619954 23.485646 
L 65.483374 23.472406 
L 66.069994 23.102896 
L 66.674526 22.923558 
L 68.047038 22.868192 
L 68.163467 22.69126 
L 68.506035 21.756052 
L 68.680678 21.66217 
L 69.821452 21.654948 
L 69.633376 22.059363 
L 70.170738 22.158059 
L 70.493155 21.852341 
L 70.949912 21.048327 
L 71.36077 20.879821 
L 72.007844 21.254145 
L 72.469079 21.452741 
L 72.274286 21.758459 
L 72.574313 21.665781 
L 73.237059 21.160263 
L 73.402746 20.672799 
L 73.812484 20.032476 
L 74.329695 19.471592 
L 75.196191 19.109304 
L 77.176594 17.969481 
L 77.687088 17.945409 
L 78.131531 18.101879 
L 78.496489 18.423244 
L 78.496489 18.607397 
L 78.244601 18.798771 
L 78.138248 19.152634 
L 78.190865 19.567881 
L 78.402451 19.938594 
L 78.738302 20.091453 
L 79.020417 19.910911 
L 79.453665 19.413818 
L 78.951008 19.002182 
L 78.983473 18.617026 
L 79.387614 18.27881 
L 79.998864 18.020033 
L 81.360181 17.690243 
L 81.878511 17.396561 
L 82.163984 17.447112 
L 82.833448 17.798568 
L 83.343942 17.455538 
L 83.603667 17.598768 
L 83.77607 17.903282 
L 83.209601 18.202982 
L 83.322671 18.509904 
L 83.490597 18.611008 
L 83.705542 18.5087 
L 83.960788 18.202982 
L 83.903694 18.787939 
L 84.383961 18.826455 
L 84.982896 18.429262 
L 85.277325 17.697464 
L 85.666913 17.064363 
L 86.559157 17.045105 
L 87.544321 17.202779 
L 88.205948 17.09325 
L 88.811599 16.876599 
L 91.303616 16.992146 
L 93.854965 16.659949 
L 94.514353 16.386728 
L 95.078583 16.426447 
L 96.273094 15.743998 
L 97.033237 15.465963 
L 97.442976 14.953223 
L 98.045269 14.813604 
L 98.476278 14.548809 
L 99.717808 13.662949 
L 100.812683 13.498054 
L 102.079961 12.952816 
L 104.004389 12.637469 
L 104.877602 12.278792 
L 106.7774 12.732555 
L 107.379694 12.668763 
L 109.999333 12.093436 
L 110.268014 12.228241 
L 111.302436 12.952816 
L 112.119674 13.18391 
L 113.881773 13.354824 
L 114.699011 13.557031 
L 115.312499 13.357231 
L 120.753289 13.325937 
L 121.120486 13.136969 
L 121.433947 13.303068 
L 122.6251 13.469167 
L 123.690868 14.197354 
L 123.786025 14.790736 
L 123.563244 15.982314 
L 123.222915 16.416819 
L 123.876705 16.628655 
L 124.595427 16.386728 
L 124.702899 16.235073 
L 124.97158 15.266163 
L 125.403709 14.989332 
L 125.653358 14.98211 
L 128.276356 14.447705 
L 128.571905 14.127544 
L 129.253683 13.934966 
L 130.958688 13.600361 
L 131.980795 13.100861 
L 132.652498 12.589325 
L 133.869398 11.876785 
L 134.321678 11.74198 
L 134.832172 11.94178 
L 134.442584 12.277589 
L 133.681322 12.591732 
L 132.430836 12.916708 
L 130.548949 14.163652 
L 130.548949 14.349009 
L 131.769209 14.660745 
L 133.338754 16.484221 
L 133.338754 16.484221 
" clip-path="url(#p675ceb9a63)" style="fill: none; stroke: #000000; stroke-width: 2"/>
    <path d="M 146.336195 12.11149 
L 146.376498 12.196947 
L 146.351869 12.379896 
L 146.19066 12.435262 
L 145.98691 12.322122 
L 145.790997 12.313697 
L 145.666732 12.500257 
L 145.555901 12.573678 
L 144.97152 12.310086 
L 144.647983 12.208983 
L 144.457668 12.176485 
L 143.949413 12.230648 
L 143.651625 12.208983 
L 142.869091 11.923726 
L 142.60041 11.857527 
L 142.39778 11.584307 
L 142.237691 11.506072 
L 142.350761 11.344788 
L 142.885884 11.41219 
L 143.654983 11.699854 
L 144.615518 11.912894 
L 146.336195 12.11149 
" clip-path="url(#p675ceb9a63)" style="fill: none; stroke: #000000; stroke-width: 2"/>
    <path d="M 140.81928 10.168856 
L 141.572706 10.627433 
L 141.760782 10.616601 
L 141.888406 10.659931 
L 141.976847 10.913894 
L 141.76638 11.158227 
L 141.448441 11.106472 
L 141.142816 11.007776 
L 140.814802 10.963242 
L 140.503579 10.833252 
L 140.367 10.625026 
L 140.248332 10.497443 
L 140.002042 10.414394 
L 140.190118 10.241073 
L 140.81928 10.168856 
" clip-path="url(#p675ceb9a63)" style="fill: none; stroke: #000000; stroke-width: 2"/>
   </g>
  </g>
 </g>
 <defs>
  <clipPath id="p675ceb9a63">
   <rect x="0" y="-0" width="357.12" height="122.026276"/>
  </clipPath>
 </defs>
</svg>
