<?xml version="1.0" encoding="utf-8" standalone="no"?>
<!DOCTYPE svg PUBLIC "-//W3C//DTD SVG 1.1//EN"
  "http://www.w3.org/Graphics/SVG/1.1/DTD/svg11.dtd">
<svg xmlns:xlink="http://www.w3.org/1999/xlink" width="357.12pt" height="110.70262pt" viewBox="0 0 357.12 110.70262" xmlns="http://www.w3.org/2000/svg" version="1.1">
 <metadata>
  <rdf:RDF xmlns:dc="http://purl.org/dc/elements/1.1/" xmlns:cc="http://creativecommons.org/ns#" xmlns:rdf="http://www.w3.org/1999/02/22-rdf-syntax-ns#">
   <cc:Work>
    <dc:type rdf:resource="http://purl.org/dc/dcmitype/StillImage"/>
    <dc:date>2024-02-02T21:58:00.881167</dc:date>
    <dc:format>image/svg+xml</dc:format>
    <dc:creator>
     <cc:Agent>
      <dc:title>Matplotlib v3.8.2, https://matplotlib.org/</dc:title>
     </cc:Agent>
    </dc:creator>
   </cc:Work>
  </rdf:RDF>
 </metadata>
 <defs>
  <style type="text/css">*{stroke-linejoin: round; stroke-linecap: butt}</style>
 </defs>
 <g id="figure_1">
  <g id="patch_1">
   <path d="M 0 110.70262 
L 357.12 110.70262 
L 357.12 0 
L 0 0 
L 0 110.70262 
z
" style="fill: none"/>
  </g>
  <g id="axes_1">
   <g id="PatchCollection_1">
    <path d="M 39.005009 90.999404 
L 41.528066 94.330862 
L 46.332163 94.305448 
L 49.66769 93.034206 
L 50.06195 90.872652 
L 51.37328 88.303085 
L 52.383649 88.865653 
L 54.984811 89.572664 
L 54.963314 88.728812 
L 54.705348 88.135836 
L 53.888454 86.919473 
L 54.984811 88.303085 
L 54.648022 87.520052 
L 54.210912 86.995495 
L 54.160752 86.493745 
L 54.984811 85.748723 
L 54.175083 85.03411 
L 53.673481 84.213065 
L 52.698941 81.932385 
L 55.89486 82.342907 
L 62.336858 85.094928 
L 65.812241 85.748723 
L 75.32834 84.441133 
L 79.147678 84.471542 
L 82.415255 84.86686 
L 85.589676 85.885564 
L 87.352448 88.113029 
L 87.866881 92.871278 
L 84.328802 95.600798 
L 79.323355 96.455708 
L 73.264702 94.8075 
L 69.093173 95.451943 
L 65.339035 96.095096 
L 62.002089 96.737326 
L 59.296516 98.631315 
L 56.188655 101.067294 
L 54.447381 101.295362 
L 43.015497 99.759146 
L 40.090253 99.566103 
L 36.94865 99.904147 
L 34.876886 101.477402 
L 33.036157 99.554443 
L 33.390799 96.676144 
L 34.011482 95.41796 
L 34.628091 93.323502 
L 35.239604 90.183808 
L 35.226088 87.465912 
L 34.376844 84.961954 
L 31.648482 82.886334 
L 29.76 81.642425 
L 30.165695 79.340403 
L 31.2033 77.871253 
L 33.707984 77.021497 
L 36.94865 78.100841 
L 36.44435 80.560684 
L 38.132649 83.687317 
L 39.613435 87.233163 
L 39.005009 90.999404 
" clip-path="url(#p205ce7cdc7)" style="fill: none; stroke: #000000; stroke-width: 2"/>
    <path d="M 285.513753 19.076829 
L 284.825842 19.396124 
L 283.106065 20.468044 
L 278.530423 21.81046 
L 265.489753 28.583096 
L 259.293105 27.716235 
L 261.864744 24.316476 
L 264.860167 22.621502 
L 268.286393 19.865249 
L 272.558343 19.238648 
L 277.681839 19.254394 
L 282.561469 17.320705 
L 285.513753 19.076829 
" clip-path="url(#p205ce7cdc7)" style="fill: none; stroke: #000000; stroke-width: 2"/>
    <path d="M 304.755499 21.689636 
L 297.930894 23.790387 
L 301.781343 19.126395 
L 313.941706 13.859465 
L 319.918499 10.27043 
L 323.968773 9.225218 
L 326.501771 10.258198 
L 327.36 13.067906 
L 319.03904 17.495729 
L 304.755499 21.689636 
" clip-path="url(#p205ce7cdc7)" style="fill: none; stroke: #000000; stroke-width: 2"/>
   </g>
  </g>
 </g>
 <defs>
  <clipPath id="p205ce7cdc7">
   <rect x="0" y="-0" width="357.12" height="110.70262"/>
  </clipPath>
 </defs>
</svg>
