<?xml version="1.0" encoding="utf-8" standalone="no"?>
<!DOCTYPE svg PUBLIC "-//W3C//DTD SVG 1.1//EN"
  "http://www.w3.org/Graphics/SVG/1.1/DTD/svg11.dtd">
<svg xmlns:xlink="http://www.w3.org/1999/xlink" width="357.12pt" height="133.938305pt" viewBox="0 0 357.12 133.938305" xmlns="http://www.w3.org/2000/svg" version="1.1">
 <metadata>
  <rdf:RDF xmlns:dc="http://purl.org/dc/elements/1.1/" xmlns:cc="http://creativecommons.org/ns#" xmlns:rdf="http://www.w3.org/1999/02/22-rdf-syntax-ns#">
   <cc:Work>
    <dc:type rdf:resource="http://purl.org/dc/dcmitype/StillImage"/>
    <dc:date>2024-02-02T21:58:00.931179</dc:date>
    <dc:format>image/svg+xml</dc:format>
    <dc:creator>
     <cc:Agent>
      <dc:title>Matplotlib v3.8.2, https://matplotlib.org/</dc:title>
     </cc:Agent>
    </dc:creator>
   </cc:Work>
  </rdf:RDF>
 </metadata>
 <defs>
  <style type="text/css">*{stroke-linejoin: round; stroke-linecap: butt}</style>
 </defs>
 <g id="figure_1">
  <g id="patch_1">
   <path d="M 0 133.938305 
L 357.12 133.938305 
L 357.12 0 
L 0 0 
L 0 133.938305 
z
" style="fill: none"/>
  </g>
  <g id="axes_1">
   <g id="PatchCollection_1">
    <path d="M 274.409003 50.563202 
L 275.048601 51.353375 
L 275.80602 51.353375 
L 276.445618 51.353375 
L 277.203037 51.804902 
L 277.724814 52.72848 
L 277.472341 52.72848 
L 276.69809 52.88241 
L 276.193145 53.03634 
L 275.696532 53.03634 
L 275.685878 53.034238 
L 275.548405 53.011379 
L 275.418894 52.420621 
L 274.661476 52.266691 
L 273.904057 52.266691 
L 273.651584 51.497042 
L 273.011986 51.178921 
L 272.002094 50.563202 
L 272.372388 50.24508 
L 273.129806 50.24508 
L 274.409003 50.563202 
" clip-path="url(#p6c28d470d5)" style="fill: none; stroke: #000000; stroke-width: 2"/>
    <path d="M 269.962874 47.774252 
L 269.328303 48.067755 
L 268.825022 47.800934 
L 268.67185 47.267292 
L 268.912549 46.306736 
L 269.087603 45.586319 
L 269.875347 45.292816 
L 270.838145 45.452908 
L 270.838145 47.454066 
L 269.962874 47.774252 
" clip-path="url(#p6c28d470d5)" style="fill: none; stroke: #000000; stroke-width: 2"/>
    <path d="M 298.427596 37.704937 
L 299.942433 38.166726 
L 302.248353 38.166726 
L 305.042387 36.914764 
L 307.971073 36.914764 
L 309.502742 38.012796 
L 311.539357 38.936375 
L 313.155184 38.618254 
L 314.064087 38.012796 
L 314.792321 36.991698 
L 314.795992 36.994839 
L 317.062285 38.942191 
L 319.527375 41.754137 
L 321.343059 47.1841 
L 323.171997 50.67479 
L 325.39853 53.89075 
L 327.36 55.23208 
L 325.093707 55.393686 
L 320.892452 54.941189 
L 316.836981 53.777626 
L 315.034549 51.773711 
L 313.099586 50.771754 
L 304.259719 51.902996 
L 296.586132 54.238203 
L 294.916232 55.23208 
L 293.604168 56.621892 
L 293.601615 56.625382 
L 289.136591 55.663408 
L 286.106916 56.309913 
L 284.844551 55.51974 
L 286.864335 53.672583 
L 288.261352 53.3442 
L 288.261352 49.937221 
L 285.214845 49.629362 
L 283.430703 48.079802 
L 283.430728 48.078967 
L 283.565355 43.738983 
L 282.286159 42.343353 
L 278.482233 40.660388 
L 279.357472 38.474586 
L 280.889141 37.232886 
L 283.060409 36.145115 
L 284.322773 37.068694 
L 285.349497 38.166726 
L 287.621753 37.704937 
L 289.658369 36.299045 
L 290.802913 34.903415 
L 291.694984 33.805383 
L 294.62367 36.145115 
L 296.643453 36.914764 
L 298.427596 37.704937 
" clip-path="url(#p6c28d470d5)" style="fill: none; stroke: #000000; stroke-width: 2"/>
    <path d="M 99.184362 17.088612 
L 100.177423 19.736204 
L 101.57444 21.747553 
L 104.116001 23.13292 
L 108.441704 24.52855 
L 111.757515 26.375707 
L 115.073326 27.935529 
L 116.849053 29.485088 
L 117.463404 32.440539 
L 117.463404 34.267172 
L 118.372306 35.847518 
L 120.021796 36.606905 
L 121.418813 36.606905 
L 125.727685 35.385729 
L 127.755884 33.959313 
L 128.286077 33.056258 
L 129.295969 30.880718 
L 130.575165 30.111069 
L 132.106835 30.880718 
L 133.116726 32.28661 
L 135.649871 33.959313 
L 137.812723 33.959313 
L 139.958743 32.594469 
L 143.00525 29.485088 
L 145.942352 26.704091 
L 148.871038 25.298199 
L 152.658132 22.968728 
L 154.442274 21.285763 
L 155.973944 20.95738 
L 160.030342 21.439693 
L 164.356045 22.363272 
L 168.404028 22.363272 
L 170.693116 21.285763 
L 171.728255 20.495591 
L 172.738147 18.792101 
L 176.676725 16.011104 
L 179.218286 16.011104 
L 181.389554 16.934682 
L 183.560821 17.714593 
L 185.580604 17.858261 
L 187.230094 18.638172 
L 189.418193 21.121572 
L 191.050852 23.276588 
L 193.727065 24.83641 
L 197.41317 25.759988 
L 198.692366 25.298199 
L 199.441369 24.22069 
L 199.702258 22.671131 
L 201.730457 21.121572 
L 205.037853 17.550401 
L 206.43487 17.088612 
L 209.111083 17.396472 
L 213.285302 16.934682 
L 216.096168 16.472893 
L 216.988239 17.088612 
L 216.988239 19.572012 
L 217.493185 22.517201 
L 218.772381 23.758901 
L 222.82878 28.243388 
L 223.081253 29.485088 
L 223.333725 32.902329 
L 223.081253 36.145115 
L 223.081253 40.034407 
L 222.054529 44.518894 
L 221.044638 48.079802 
L 221.549583 50.70687 
L 223.081253 52.72848 
L 224.865395 52.72848 
L 227.541608 51.958832 
L 228.669321 48.849451 
L 229.300503 43.133526 
L 232.978192 39.552094 
L 234.257388 40.957986 
L 234.257388 45.760594 
L 235.26728 48.397924 
L 237.287064 49.31124 
L 240.232581 48.079802 
L 241.494946 45.452734 
L 242.908795 44.354702 
L 244.692937 44.662562 
L 246.561237 45.914523 
L 247.975085 45.606664 
L 249.254282 44.970421 
L 251.013176 45.606664 
L 256.104714 48.243994 
L 259.917056 48.849451 
L 262.837326 50.70687 
L 262.604997 53.696823 
L 259.159172 55.005832 
L 254.878397 59.288392 
L 253.672358 61.825606 
L 252.559091 65.057727 
L 251.737395 68.637301 
L 251.445825 72.176473 
L 251.777154 75.966135 
L 251.379559 77.606436 
L 249.828938 78.285182 
L 248.83495 79.03665 
L 247.70843 82.575822 
L 246.992759 83.707064 
L 244.474656 84.442372 
L 239.067361 84.498934 
L 236.986613 85.048394 
L 235.568524 86.53517 
L 233.885371 88.829976 
L 231.937154 90.914693 
L 229.710621 91.835848 
L 224.515377 93.128696 
L 219.797248 95.423502 
L 215.980334 96.280014 
L 213.528497 93.314543 
L 213.369459 98.889951 
L 208.757355 101.758459 
L 196.657208 104.279513 
L 194.218624 105.434996 
L 190.719786 107.786364 
L 188.360721 108.238861 
L 176.631663 106.865209 
L 164.955618 108.238861 
L 162.437515 108.917606 
L 160.131463 110.517506 
L 152.577154 117.555449 
L 150.907095 120.909098 
L 146.851255 120.909098 
L 143.400791 121.38115 
L 142.256247 122.776779 
L 141.128534 122.007131 
L 140.876062 119.215871 
L 142.761193 117.50212 
L 143.518612 118.58989 
L 146.699771 118.58989 
L 146.329477 113.171563 
L 140.985466 112.391652 
L 138.957267 114.413263 
L 137.947375 116.280944 
L 136.920652 115.336842 
L 134.884037 114.413263 
L 134.301084 115.774701 
L 129.551746 114.518281 
L 126.475332 112.109762 
L 125.631257 110.345342 
L 125.510675 107.772229 
L 124.546018 107.992782 
L 121.591754 107.919264 
L 121.049135 107.698712 
L 119.481567 109.610167 
L 118.938947 110.345342 
L 116.768468 110.71293 
L 115.562646 113.65363 
L 112.306928 113.212525 
L 110.377613 112.624385 
L 109.292374 114.021218 
L 109.385063 117.175675 
L 107.516366 117.84634 
L 100.704235 118.727093 
L 93.931864 117.385763 
L 87.490822 114.541496 
L 79.154576 109.313541 
L 76.159359 108.012612 
L 72.766546 107.180341 
L 65.84839 106.445034 
L 62.998958 105.26531 
L 60.255551 103.544205 
L 53.761496 98.356651 
L 52.820521 97.265811 
L 51.800027 91.520716 
L 51.137368 90.599562 
L 51.031343 88.733012 
L 47.254188 78.285182 
L 45.42525 76.709523 
L 41.966172 74.406637 
L 40.49507 72.855219 
L 39.1565 70.867464 
L 38.175765 68.483775 
L 38.069739 65.914239 
L 39.474576 63.360864 
L 36.346827 58.189471 
L 36.042004 56.104753 
L 36.042004 51.773711 
L 35.326333 48.032531 
L 31.787735 41.883421 
L 30.475671 38.829067 
L 29.76 33.851601 
L 30.316633 30.231626 
L 32.185331 29.019581 
L 35.485371 31.314386 
L 40.336032 36.647386 
L 43.052932 38.796746 
L 46.140922 40.073434 
L 52.90004 39.766382 
L 58.784449 36.631225 
L 63.621857 31.839606 
L 67.253226 26.627811 
L 69.678557 20.470621 
L 71.427976 17.125376 
L 74.012345 15.250746 
L 74.330421 14.313431 
L 74.781029 13.368036 
L 75.722004 12.95594 
L 76.530448 13.182189 
L 78.041309 14.200307 
L 79.101563 14.434636 
L 80.744957 14.054862 
L 82.016202 16.318963 
L 84.439942 17.714593 
L 86.838435 18.16612 
L 88.748814 17.714593 
L 90.785429 16.318963 
L 92.964382 11.162113 
L 98.128115 11.832129 
L 99.184362 17.088612 
L 99.184362 17.088612 
" clip-path="url(#p6c28d470d5)" style="fill: none; stroke: #000000; stroke-width: 2"/>
   </g>
  </g>
 </g>
 <defs>
  <clipPath id="p6c28d470d5">
   <rect x="0" y="0" width="357.12" height="133.938305"/>
  </clipPath>
 </defs>
</svg>
