<?xml version="1.0" encoding="utf-8" standalone="no"?>
<!DOCTYPE svg PUBLIC "-//W3C//DTD SVG 1.1//EN"
  "http://www.w3.org/Graphics/SVG/1.1/DTD/svg11.dtd">
<svg xmlns:xlink="http://www.w3.org/1999/xlink" width="357.12pt" height="203.107535pt" viewBox="0 0 357.12 203.107535" xmlns="http://www.w3.org/2000/svg" version="1.1">
 <metadata>
  <rdf:RDF xmlns:dc="http://purl.org/dc/elements/1.1/" xmlns:cc="http://creativecommons.org/ns#" xmlns:rdf="http://www.w3.org/1999/02/22-rdf-syntax-ns#">
   <cc:Work>
    <dc:type rdf:resource="http://purl.org/dc/dcmitype/StillImage"/>
    <dc:date>2024-02-02T21:58:00.954186</dc:date>
    <dc:format>image/svg+xml</dc:format>
    <dc:creator>
     <cc:Agent>
      <dc:title>Matplotlib v3.8.2, https://matplotlib.org/</dc:title>
     </cc:Agent>
    </dc:creator>
   </cc:Work>
  </rdf:RDF>
 </metadata>
 <defs>
  <style type="text/css">*{stroke-linejoin: round; stroke-linecap: butt}</style>
 </defs>
 <g id="figure_1">
  <g id="patch_1">
   <path d="M 0 203.107535 
L 357.12 203.107535 
L 357.12 0 
L 0 0 
L 0 203.107535 
z
" style="fill: none"/>
  </g>
  <g id="axes_1">
   <g id="PatchCollection_1">
    <path d="M 131.94876 18.759797 
L 133.181567 18.225932 
L 134.778302 18.314029 
L 135.278703 18.060311 
L 135.660828 17.117678 
L 136.575197 19.073421 
L 137.12109 19.44695 
L 138.308405 19.73943 
L 138.849748 20.155246 
L 139.718627 21.325167 
L 139.8551 21.991177 
L 139.773216 23.01662 
L 139.432034 23.837679 
L 138.904338 24.817312 
L 138.663235 25.648943 
L 139.168186 26.040092 
L 141.601955 25.049887 
L 142.1342 25.060459 
L 142.370754 25.832184 
L 142.116004 26.737816 
L 141.369951 28.453936 
L 141.215282 29.673191 
L 141.42909 30.184151 
L 142.957588 30.607014 
L 143.585364 30.948829 
L 145.268532 32.203323 
L 146.90166 32.562757 
L 147.856971 32.597995 
L 148.566631 32.407707 
L 148.994247 31.924938 
L 149.412764 31.135593 
L 150.108777 29.30671 
L 151.045892 29.338425 
L 152.638078 28.901466 
L 157.664836 29.264424 
L 157.755818 28.675939 
L 157.787661 25.240176 
L 158.219826 24.760931 
L 158.356299 24.415592 
L 158.306259 22.435183 
L 157.637541 21.480217 
L 156.923332 20.926971 
L 156.736819 20.155246 
L 156.741368 20.155246 
L 157.164434 19.742954 
L 158.30171 19.119231 
L 158.50642 18.805607 
L 158.629245 18.243552 
L 159.46628 18.995896 
L 161.69534 19.475141 
L 162.068367 20.148198 
L 162.586964 20.648586 
L 163.205642 20.948114 
L 163.701494 20.849446 
L 163.847066 20.148198 
L 164.242838 19.256661 
L 164.811475 18.865513 
L 165.325524 19.119231 
L 165.530234 20.155246 
L 165.944202 21.156022 
L 168.450757 21.194784 
L 169.624426 21.76565 
L 170.329537 22.882713 
L 170.284046 23.541675 
L 169.901921 24.257019 
L 169.592582 25.511513 
L 169.724506 26.480574 
L 170.133925 27.68221 
L 170.652523 28.809846 
L 171.12108 29.549856 
L 171.999057 30.240533 
L 172.79515 30.585871 
L 173.463868 31.128545 
L 173.991564 32.407707 
L 174.005211 33.070192 
L 173.845993 34.402211 
L 174.128037 34.966029 
L 174.751264 35.159841 
L 175.238018 34.655929 
L 176.065955 33.429626 
L 177.899243 33.2781 
L 186.706305 36.30862 
L 187.206706 36.636339 
L 188.111978 37.823879 
L 188.575986 37.968358 
L 192.233464 37.097964 
L 193.325249 37.200156 
L 193.561802 38.081121 
L 195.786313 41.805841 
L 196.068358 41.904509 
L 197.287517 41.869271 
L 199.894153 40.903733 
L 200.622009 41.005925 
L 201.213392 41.569743 
L 202.168704 43.564247 
L 202.409806 44.505118 
L 202.309726 45.315606 
L 201.677401 45.823042 
L 201.554575 46.263524 
L 201.677401 46.682863 
L 203.547082 46.344573 
L 206.276543 43.74044 
L 208.132577 43.927205 
L 209.524602 44.977315 
L 210.19332 45.287415 
L 210.934824 45.11827 
L 211.471618 44.45226 
L 212.113042 42.898238 
L 212.681679 42.778427 
L 214.278414 42.810141 
L 215.715931 43.173099 
L 217.067014 43.927205 
L 220.815474 47.842213 
L 221.215795 49.142518 
L 219.832868 49.702811 
L 220.001185 50.442822 
L 219.687297 51.027783 
L 219.559922 51.898176 
L 219.564471 52.299896 
L 219.687297 52.261134 
L 219.309721 52.782665 
L 218.40445 53.667154 
L 217.990482 54.241543 
L 217.235331 54.407164 
L 215.825109 54.01954 
L 215.133645 54.241543 
L 214.792463 55.122508 
L 214.132843 55.682802 
L 213.359496 56.13738 
L 212.440577 56.792818 
L 212.035707 57.046536 
L 211.76731 57.071203 
L 212.063001 58.03674 
L 211.185025 57.839404 
L 210.839293 58.921229 
L 211.253261 60.140485 
L 212.681679 60.390679 
L 213.459576 62.543757 
L 214.023665 62.994811 
L 214.346651 62.924334 
L 214.660539 62.652997 
L 215.174587 62.487375 
L 217.180741 62.487375 
L 217.599259 62.617758 
L 217.908598 63.252053 
L 218.017776 65.102079 
L 218.800222 66.13457 
L 220.760885 66.84639 
L 221.738942 67.526495 
L 222.371267 68.410984 
L 223.490346 70.433679 
L 224.127221 71.293501 
L 224.68676 72.297801 
L 226.019647 73.679155 
L 226.497303 74.968887 
L 226.997704 77.294635 
L 227.411673 78.147409 
L 228.18502 79.155233 
L 229.699871 80.547158 
L 231.546807 81.502124 
L 233.334604 81.371741 
L 234.690236 79.528762 
L 235.668293 78.82399 
L 236.205088 78.06636 
L 236.682743 77.143109 
L 237.474287 75.952044 
L 238.461442 75.109842 
L 239.33487 74.982983 
L 240.217396 75.042888 
L 241.245493 74.782123 
L 241.659461 74.415641 
L 242.391867 73.404293 
L 242.919562 73.041336 
L 243.306236 73.02724 
L 244.120526 73.316197 
L 244.516297 73.288006 
L 244.625476 73.037812 
L 244.616378 72.213229 
L 244.739203 72.026464 
L 245.385176 72.037036 
L 245.649024 72.216753 
L 246.322291 73.326769 
L 246.854536 73.527629 
L 247.13658 72.946192 
L 247.050147 72.047607 
L 246.476961 71.293501 
L 246.413273 69.637287 
L 245.949265 68.414508 
L 245.148623 67.54059 
L 244.075035 66.916867 
L 243.251647 66.074665 
L 242.819482 64.753217 
L 242.491947 63.301387 
L 241.991546 62.053941 
L 240.581324 59.992482 
L 240.576775 59.04104 
L 241.773189 58.322173 
L 242.77854 58.449032 
L 244.670967 59.573143 
L 245.689966 59.453332 
L 250.211774 60.707826 
L 250.693978 61.000306 
L 251.717526 61.85308 
L 252.281615 62.149085 
L 252.886646 62.156132 
L 254.228631 61.881271 
L 254.742679 62.036321 
L 254.647148 62.22661 
L 255.070215 63.847585 
L 255.334063 64.439594 
L 255.766227 64.904743 
L 257.317471 65.877329 
L 258.363765 66.176857 
L 260.429057 66.116951 
L 261.338878 66.501052 
L 260.529138 66.825247 
L 260.806633 67.31154 
L 261.188757 67.681545 
L 261.134168 68.569558 
L 261.220601 69.432903 
L 261.525391 70.134151 
L 262.112225 70.574634 
L 262.589881 69.327187 
L 263.563389 69.253186 
L 264.523249 70.024912 
L 264.932669 71.293501 
L 265.392128 71.494361 
L 265.851587 71.293501 
L 267.143532 69.735955 
L 269.240669 69.545667 
L 273.175642 70.236343 
L 274.194641 69.972054 
L 274.949792 69.358902 
L 276.255384 67.565257 
L 276.901357 66.360097 
L 277.64741 66.634958 
L 277.893061 66.864009 
L 278.834725 68.287649 
L 278.702801 68.706988 
L 278.225146 69.982625 
L 278.138713 70.606349 
L 278.238793 71.293501 
L 278.702801 71.751603 
L 279.389716 73.013145 
L 278.975748 74.045636 
L 278.084124 74.813837 
L 276.209893 75.930901 
L 275.036225 76.389003 
L 272.911794 76.470052 
L 272.429589 76.713198 
L 272.106603 77.400351 
L 272.197585 77.897215 
L 274.335663 80.592968 
L 275.022578 80.903067 
L 275.46839 80.822019 
L 275.841416 80.607063 
L 276.309974 80.497824 
L 276.88771 80.652873 
L 278.084124 81.244882 
L 278.720998 81.442218 
L 278.702801 81.607839 
L 278.293382 81.956702 
L 278.15236 82.330231 
L 278.288833 82.721379 
L 279.189555 83.715108 
L 280.081179 86.125428 
L 280.577032 86.809057 
L 283.429319 89.64224 
L 285.030603 89.980531 
L 286.631887 89.494238 
L 287.928381 88.338412 
L 288.729023 88.130504 
L 290.494075 88.077646 
L 291.927042 87.651259 
L 292.149948 87.351731 
L 292.072613 86.671626 
L 291.763274 86.199429 
L 291.385699 86.188857 
L 291.035418 86.298097 
L 290.803414 86.199429 
L 290.607802 84.655978 
L 291.963435 84.994269 
L 294.533678 86.671626 
L 294.247084 87.929644 
L 294.820271 88.59213 
L 297.631616 89.124233 
L 298.300334 89.494238 
L 299.687811 90.688827 
L 300.206408 90.921401 
L 301.239054 91.136357 
L 301.762201 91.523981 
L 301.948714 91.89751 
L 302.499156 93.416294 
L 303.372583 94.131638 
L 304.009458 94.004779 
L 305.242264 92.930001 
L 305.055751 92.697427 
L 304.96022 92.697427 
L 306.73437 92.478947 
L 308.435734 93.085051 
L 311.706539 94.892791 
L 312.730087 94.889268 
L 314.463295 93.779252 
L 315.113816 94.173924 
L 315.386763 95.410799 
L 315.277584 96.457385 
L 315.468647 97.29254 
L 316.637766 97.923311 
L 315.427705 99.329331 
L 315.445901 101.158214 
L 316.21015 103.230244 
L 317.247346 105.372751 
L 317.688608 107.356684 
L 317.966104 107.867644 
L 318.552938 108.279935 
L 319.90857 108.399747 
L 320.536346 108.590035 
L 321.109533 109.062232 
L 321.973863 110.087676 
L 322.528853 110.422442 
L 323.170277 110.369584 
L 323.857191 110.070056 
L 324.544106 109.950245 
L 325.203725 110.443585 
L 325.38569 110.975688 
L 325.681381 113.322579 
L 325.886091 113.978017 
L 326.6003 115.785757 
L 327.232625 118.692942 
L 327.36 120.102486 
L 327.173487 121.240692 
L 325.372042 121.290026 
L 324.548655 121.607174 
L 322.742661 123.284531 
L 321.509854 123.355008 
L 320.236106 122.960336 
L 318.48925 122.163944 
L 318.184461 122.227373 
L 316.928908 122.896907 
L 314.981893 122.611474 
L 314.076621 123.189387 
L 313.849166 123.749681 
L 313.739988 125.01827 
L 313.517082 125.617326 
L 313.153153 125.990856 
L 311.706539 126.776676 
L 309.832309 129.095376 
L 308.845154 129.750814 
L 307.562307 129.458334 
L 307.453128 132.696761 
L 304.787354 134.811077 
L 298.864423 137.15092 
L 297.567929 138.394843 
L 296.507988 140.142677 
L 295.6846 142.221755 
L 295.125061 144.459406 
L 294.973401 146.698546 
L 295.02953 149.745196 
L 294.738387 151.242836 
L 293.824018 152.818001 
L 292.527523 154.047829 
L 291.067262 154.731457 
L 288.706278 154.544693 
L 287.641788 154.713838 
L 286.71832 155.319942 
L 286.136035 156.511007 
L 285.863089 157.522354 
L 285.521906 159.633147 
L 285.162527 160.56697 
L 284.352787 161.373933 
L 283.511203 161.423267 
L 282.583186 161.26117 
L 281.500499 161.451458 
L 280.790839 162.054038 
L 279.271439 164.725124 
L 278.493543 165.384086 
L 270.036762 168.788135 
L 268.426379 168.530893 
L 267.079845 167.075539 
L 266.438422 166.758391 
L 265.392128 167.072015 
L 263.727157 168.189079 
L 262.962907 168.337081 
L 257.940698 165.732948 
L 255.825366 165.169131 
L 253.855605 165.599042 
L 251.490071 167.360972 
L 251.08975 167.995266 
L 250.830451 169.281475 
L 250.198126 170.102535 
L 248.683275 171.445125 
L 247.600589 173.333914 
L 245.376078 179.911199 
L 244.871127 180.860879 
L 244.175115 181.733034 
L 244.065936 183.028053 
L 242.546536 181.213265 
L 241.936956 176.6992 
L 240.895212 175.198036 
L 240.171905 175.141654 
L 238.479639 175.75833 
L 237.633506 175.864046 
L 236.823765 175.553946 
L 235.23158 174.472121 
L 234.558312 174.236022 
L 232.884243 174.3065 
L 232.183681 174.179641 
L 231.605945 173.763825 
L 231.287508 172.956861 
L 231.12374 171.977228 
L 230.778008 171.156169 
L 229.936424 170.807307 
L 229.122135 170.708639 
L 226.492754 169.926342 
L 225.337282 169.292047 
L 224.932412 169.348428 
L 224.136319 169.693767 
L 223.681409 169.71491 
L 222.412209 169.524622 
L 221.64796 170.046153 
L 219.414351 173.964685 
L 218.932146 174.426311 
L 218.240682 174.634218 
L 217.995031 174.55317 
L 217.412746 174.066877 
L 216.448336 174.253642 
L 210.293401 173.319819 
L 206.226503 173.570013 
L 203.892814 172.533998 
L 199.466537 169.235665 
L 199.170845 168.132697 
L 198.424793 168.330033 
L 198.379302 167.611166 
L 198.051766 167.30459 
L 197.555914 167.283447 
L 197.000924 167.417353 
L 197.451285 166.807726 
L 197.082807 166.832393 
L 196.755272 166.680867 
L 196.273067 166.321433 
L 195.131243 166.127621 
L 194.912886 165.778758 
L 194.735471 164.94008 
L 194.480721 164.742744 
L 192.752062 164.841412 
L 191.187171 165.687138 
L 190.445667 165.926761 
L 189.431217 165.926761 
L 188.444062 165.687138 
L 185.027686 163.7173 
L 181.397503 162.276042 
L 179.223032 160.352014 
L 178.276818 159.798768 
L 176.320704 159.125711 
L 174.205372 158.026266 
L 173.222766 157.740834 
L 171.162022 157.716167 
L 170.943665 157.561117 
L 170.538795 156.940918 
L 170.202162 156.944441 
L 170.024747 157.222826 
L 169.769997 158.498464 
L 168.932962 159.393524 
L 165.575725 160.316775 
L 164.702297 160.299156 
L 164.99344 159.326571 
L 165.011636 158.399796 
L 164.825123 157.47302 
L 164.502137 156.511007 
L 161.076662 156.225574 
L 158.629245 155.369276 
L 157.523814 155.608899 
L 157.455577 156.155097 
L 157.496519 156.525102 
L 156.896037 157.962837 
L 156.877841 159.904484 
L 157.059805 161.990609 
L 157.055256 163.875874 
L 156.12269 168.146792 
L 155.731467 169.482335 
L 156.008962 170.451397 
L 156.300105 171.015214 
L 155.795155 172.209803 
L 154.903531 172.294375 
L 152.628979 171.339409 
L 150.331683 171.015214 
L 149.667514 171.27598 
L 149.408215 171.92437 
L 149.2308 172.752477 
L 148.789537 173.552393 
L 148.566631 174.856222 
L 146.251138 176.942347 
L 145.418652 178.327224 
L 145.259434 180.168441 
L 145.282179 182.252804 
L 145.059273 184.025305 
L 144.176747 184.932699 
L 143.45344 184.883365 
L 143.107708 184.437597 
L 142.848409 183.796254 
L 142.375303 183.15315 
L 142.088709 183.087959 
L 141.415442 183.329343 
L 141.07426 183.29058 
L 140.933237 183.003386 
L 140.874099 182.113611 
L 140.592055 181.858131 
L 139.914238 181.914513 
L 138.594999 182.566427 
L 137.935379 182.717953 
L 137.416781 182.58757 
L 135.660828 181.643176 
L 134.605436 180.367539 
L 133.964013 180.822117 
L 132.976857 183.512584 
L 132.280845 184.247308 
L 129.992646 185.260418 
L 129.105571 185.991619 
L 128.759839 186.132574 
L 128.336773 186.181908 
L 123.969635 184.596171 
L 117.732815 183.877303 
L 116.236161 183.232437 
L 115.867683 182.894146 
L 114.916921 181.548032 
L 114.712211 180.617733 
L 114.794095 180.420397 
L 115.044296 180.325252 
L 115.471912 179.588766 
L 115.88588 179.567622 
L 115.967764 179.141235 
L 115.854036 178.72542 
L 115.062492 178.193317 
L 114.780448 177.633023 
L 113.661369 176.05081 
L 110.699903 174.3805 
L 108.934852 172.918099 
L 108.097817 172.449425 
L 106.328216 171.963133 
L 105.468436 171.050453 
L 103.344005 166.716105 
L 102.320457 165.084558 
L 101.701779 164.732172 
L 100.061827 164.467882 
L 99.229342 164.066162 
L 98.47874 163.301485 
L 97.791825 162.237279 
L 97.323268 160.99688 
L 97.214089 159.707148 
L 96.413447 159.798768 
L 95.662845 159.375905 
L 94.916793 158.766277 
L 94.143445 158.283508 
L 93.133545 158.065029 
L 92.523965 158.350462 
L 92.105447 159.101044 
L 91.650537 160.288585 
L 90.62244 159.784673 
L 89.230415 158.766277 
L 87.965764 157.557593 
L 87.333439 156.511007 
L 87.306144 154.597551 
L 86.814841 153.41001 
L 84.94516 151.471887 
L 83.607724 149.650051 
L 83.07093 149.177854 
L 82.188404 148.832516 
L 79.52718 148.705657 
L 78.280725 147.965646 
L 77.580164 146.820392 
L 77.002428 145.477801 
L 72.880941 139.793815 
L 72.325951 139.46962 
L 70.920278 137.774643 
L 70.720117 137.140349 
L 70.660979 136.481387 
L 70.415328 135.924617 
L 69.651078 135.603946 
L 67.776848 133.753919 
L 67.030795 133.348675 
L 65.347628 132.880002 
L 64.742597 133.073814 
L 64.938208 133.951255 
L 64.114821 134.064019 
L 61.521833 133.679918 
L 60.648405 133.359247 
L 59.952392 132.629808 
L 58.510327 129.36319 
L 57.623252 128.436414 
L 55.594352 127.470877 
L 54.734572 126.748486 
L 54.234171 125.761805 
L 54.015814 124.655313 
L 53.8293 121.268883 
L 53.501765 121.00107 
L 53.037757 121.068023 
L 52.541904 120.916497 
L 51.718517 119.901626 
L 51.158977 118.474462 
L 50.981562 117.674546 
L 50.776853 116.16281 
L 50.467514 115.4228 
L 50.003505 114.908316 
L 48.952663 114.326879 
L 48.502302 113.777157 
L 48.743404 113.075909 
L 48.279396 112.811619 
L 48.652422 111.976465 
L 48.620578 111.070833 
L 48.25665 110.348441 
L 45.508992 108.861372 
L 44.876667 108.286983 
L 43.966847 106.972583 
L 43.511936 106.098666 
L 43.293579 105.379799 
L 43.812177 104.354355 
L 45.631818 103.579106 
L 46.33238 102.867287 
L 46.473402 101.746699 
L 46.496147 100.316012 
L 46.764545 99.353998 
L 47.64707 99.625335 
L 47.970057 98.571701 
L 48.984506 96.693484 
L 49.339336 95.650421 
L 49.47581 94.32545 
L 49.202863 93.83211 
L 48.575087 93.588963 
L 46.773643 92.531805 
L 46.823683 91.791795 
L 47.128473 90.872067 
L 47.014745 89.874815 
L 46.273241 89.170043 
L 44.653761 89.000898 
L 43.935003 88.338412 
L 37.275117 84.779313 
L 37.134095 84.345879 
L 37.034015 83.027955 
L 36.642792 82.354898 
L 36.005917 81.805176 
L 35.300807 81.399932 
L 34.67758 80.83259 
L 34.295455 79.800099 
L 34.26816 78.77818 
L 34.577499 77.227682 
L 34.450125 76.202238 
L 34.113491 75.39175 
L 33.617639 74.630597 
L 32.539502 73.453628 
L 30.365031 72.103989 
L 29.91012 71.293501 
L 30.460562 70.468918 
L 31.211164 69.855766 
L 31.293047 68.981849 
L 31.12928 68.009264 
L 30.77445 67.40316 
L 29.76 66.35305 
L 32.980764 66.589148 
L 33.826897 67.184681 
L 34.086196 67.815452 
L 34.072549 68.985373 
L 34.245415 69.517476 
L 34.736718 69.947387 
L 35.378141 70.144723 
L 36.642792 70.176438 
L 36.95668 70.349107 
L 37.102251 70.595777 
L 37.079506 70.909401 
L 36.756519 71.325216 
L 36.524515 71.543695 
L 36.529064 71.832652 
L 36.642792 71.991226 
L 37.602652 73.020193 
L 37.861951 73.862395 
L 37.907442 74.214781 
L 38.435138 76.092999 
L 38.88095 76.783675 
L 39.631552 76.878819 
L 40.245681 76.434813 
L 40.245681 75.828709 
L 39.990931 75.09927 
L 39.859007 74.253544 
L 39.99548 73.041336 
L 40.232034 72.399993 
L 41.100912 71.293501 
L 41.219189 70.211676 
L 41.578568 69.679573 
L 42.069871 69.337759 
L 42.570272 68.816228 
L 43.935003 66.35305 
L 44.40811 65.8879 
L 45.700055 65.169033 
L 46.38242 64.612263 
L 46.955607 64.531214 
L 47.051138 64.28102 
L 46.955607 63.643201 
L 47.319535 62.652997 
L 48.86623 61.335073 
L 50.64038 60.817066 
L 53.93393 60.573919 
L 56.285816 60.996783 
L 56.859003 60.933353 
L 57.350306 60.46468 
L 58.323814 58.970563 
L 58.887902 58.417317 
L 59.60666 58.160075 
L 60.311771 58.117789 
L 61.098766 58.227029 
L 61.371712 58.121313 
L 61.99039 57.716069 
L 62.386162 57.63502 
L 62.754639 57.74426 
L 66.830635 60.20039 
L 68.336388 60.284963 
L 70.274305 58.272839 
L 70.560899 57.028916 
L 70.847492 54.248591 
L 71.21142 53.998397 
L 71.579898 53.9103 
L 71.943826 53.987825 
L 72.285009 54.241543 
L 73.081102 54.389545 
L 73.909038 54.241543 
L 75.150943 53.81868 
L 77.470985 53.952586 
L 78.553672 53.15267 
L 79.185997 52.021511 
L 80.650808 48.155837 
L 81.506039 48.233362 
L 82.220248 48.726702 
L 82.952654 49.047373 
L 83.876121 48.582224 
L 84.59033 46.767436 
L 86.505502 45.329701 
L 86.532797 45.083031 
L 86.655623 44.998458 
L 87.192417 45.192271 
L 87.42897 45.45656 
L 88.338791 46.841437 
L 89.321397 47.317158 
L 90.140235 47.116298 
L 90.886288 46.446765 
L 91.650537 45.505894 
L 92.087251 45.262748 
L 92.351099 44.942077 
L 92.392041 44.529785 
L 92.137291 43.983587 
L 92.869697 43.437388 
L 93.456531 42.69033 
L 93.629397 41.770603 
L 93.119897 40.724016 
L 94.921342 39.652763 
L 96.918398 39.282757 
L 100.871568 39.303901 
L 101.719975 39.138279 
L 103.394045 38.528651 
L 104.344807 38.433507 
L 106.364609 38.65551 
L 107.156153 38.496937 
L 108.429901 37.71464 
L 108.953048 37.619496 
L 109.253289 37.196632 
L 109.276034 36.837199 
L 109.116816 35.780041 
L 109.303329 35.117555 
L 109.708199 34.627738 
L 110.081225 34.613643 
L 110.508841 34.740502 
L 111.063831 34.659453 
L 111.514193 34.32821 
L 112.18746 33.482484 
L 112.660566 33.151241 
L 113.520347 32.968 
L 115.130729 33.172384 
L 115.976862 33.116003 
L 122.836908 30.025577 
L 123.373702 29.532237 
L 124.178893 28.341172 
L 124.656549 27.879547 
L 126.239637 27.555352 
L 129.692405 27.823165 
L 130.984351 26.748388 
L 131.248198 25.049887 
L 130.07453 24.383878 
L 128.450501 23.915204 
L 127.326872 22.826331 
L 127.367814 22.110988 
L 127.809077 21.719839 
L 126.9311 21.370977 
L 125.443544 21.180689 
L 124.929495 20.849446 
L 125.420798 20.155246 
L 126.039476 18.192456 
L 127.094868 17.142345 
L 128.495992 16.925628 
L 130.133668 17.448921 
L 130.465753 17.744925 
L 130.984351 18.495508 
L 131.462006 18.749225 
L 131.94876 18.759797 
L 131.94876 18.759797 
" clip-path="url(#p732ca776e3)" style="fill: none; stroke: #000000; stroke-width: 2"/>
   </g>
  </g>
 </g>
 <defs>
  <clipPath id="p732ca776e3">
   <rect x="0" y="-0" width="357.12" height="203.107535"/>
  </clipPath>
 </defs>
</svg>
