<?xml version="1.0" encoding="utf-8" standalone="no"?>
<!DOCTYPE svg PUBLIC "-//W3C//DTD SVG 1.1//EN"
  "http://www.w3.org/Graphics/SVG/1.1/DTD/svg11.dtd">
<svg xmlns:xlink="http://www.w3.org/1999/xlink" width="196.726003pt" height="266.112pt" viewBox="0 0 196.726003 266.112" xmlns="http://www.w3.org/2000/svg" version="1.1">
 <metadata>
  <rdf:RDF xmlns:dc="http://purl.org/dc/elements/1.1/" xmlns:cc="http://creativecommons.org/ns#" xmlns:rdf="http://www.w3.org/1999/02/22-rdf-syntax-ns#">
   <cc:Work>
    <dc:type rdf:resource="http://purl.org/dc/dcmitype/StillImage"/>
    <dc:date>2024-02-02T21:58:00.981193</dc:date>
    <dc:format>image/svg+xml</dc:format>
    <dc:creator>
     <cc:Agent>
      <dc:title>Matplotlib v3.8.2, https://matplotlib.org/</dc:title>
     </cc:Agent>
    </dc:creator>
   </cc:Work>
  </rdf:RDF>
 </metadata>
 <defs>
  <style type="text/css">*{stroke-linejoin: round; stroke-linecap: butt}</style>
 </defs>
 <g id="figure_1">
  <g id="patch_1">
   <path d="M 0 266.112 
L 196.726003 266.112 
L 196.726003 0 
L 0 0 
L 0 266.112 
z
" style="fill: none"/>
  </g>
  <g id="axes_1">
   <g id="PatchCollection_1">
    <path d="M 32.266538 64.483348 
L 32.397205 64.652373 
L 32.522064 64.923278 
L 32.36236 64.835292 
L 32.131516 64.573649 
L 31.979071 64.518079 
L 31.799042 64.54818 
L 31.534805 64.680158 
L 31.425916 64.712574 
L 31.105057 64.560914 
L 30.859694 64.227494 
L 30.791457 63.892916 
L 30.999072 63.741256 
L 32.358005 63.345319 
L 33.024404 63.296695 
L 33.26396 63.741256 
L 32.863249 63.796826 
L 32.243308 64.053837 
L 31.913738 64.130246 
L 31.913738 64.305061 
L 32.112642 64.379154 
L 32.266538 64.483348 
" clip-path="url(#p83881c44b1)" style="fill: none; stroke: #000000; stroke-width: 2"/>
    <path d="M 38.390446 61.392263 
L 34.614181 61.797461 
L 35.274774 61.487195 
L 37.705172 61.188506 
L 38.390446 61.392263 
" clip-path="url(#p83881c44b1)" style="fill: none; stroke: #000000; stroke-width: 2"/>
    <path d="M 43.050889 60.361901 
L 43.021852 60.394317 
L 42.972489 60.393159 
L 42.14203 60.709214 
L 39.962801 60.982433 
L 39.241231 60.792569 
L 40.058623 60.337589 
L 41.021201 60.184771 
L 43.042178 60.226449 
L 43.050889 60.361901 
" clip-path="url(#p83881c44b1)" style="fill: none; stroke: #000000; stroke-width: 2"/>
    <path d="M 44.405466 60.049319 
L 44.63631 60.226449 
L 44.579688 60.337589 
L 44.520162 60.38274 
L 44.380784 60.420944 
L 43.666474 60.211399 
L 43.40514 60.226449 
L 43.699866 60.030796 
L 44.064281 59.977541 
L 44.405466 60.049319 
" clip-path="url(#p83881c44b1)" style="fill: none; stroke: #000000; stroke-width: 2"/>
    <path d="M 57.769756 60.294754 
L 57.485193 60.556396 
L 57.398082 60.615439 
L 57.244186 60.577235 
L 57.14546 60.511245 
L 57.038023 60.497353 
L 56.849282 60.615439 
L 56.849282 60.420944 
L 57.072868 60.05395 
L 57.424216 59.908079 
L 57.824926 59.969437 
L 58.202408 60.226449 
L 57.946882 60.226449 
L 57.769756 60.294754 
" clip-path="url(#p83881c44b1)" style="fill: none; stroke: #000000; stroke-width: 2"/>
    <path d="M 48.05542 59.5735 
L 48.029286 59.601285 
L 47.985731 59.600128 
L 47.93782 59.625597 
L 46.636961 59.587393 
L 46.034443 59.727476 
L 45.986532 60.226449 
L 45.463865 60.250761 
L 45.304162 60.115309 
L 45.243184 59.732107 
L 45.333199 59.405633 
L 45.55388 59.274811 
L 46.096872 59.25513 
L 47.688101 59.241238 
L 48.046709 59.449626 
L 48.05542 59.5735 
" clip-path="url(#p83881c44b1)" style="fill: none; stroke: #000000; stroke-width: 2"/>
    <path d="M 51.113018 58.849932 
L 50.713759 59.08842 
L 50.214322 59.288704 
L 49.701819 59.317647 
L 49.264812 59.044427 
L 49.102204 59.264392 
L 48.945405 59.377847 
L 48.794412 59.375532 
L 48.656486 59.25513 
L 49.109464 58.717953 
L 49.858619 58.559347 
L 51.367092 58.656594 
L 51.367092 58.849932 
L 51.113018 58.849932 
" clip-path="url(#p83881c44b1)" style="fill: none; stroke: #000000; stroke-width: 2"/>
    <path d="M 53.438884 58.389163 
L 53.913639 58.663541 
L 53.743773 58.632282 
L 53.552128 58.656594 
L 52.801521 58.491042 
L 52.480662 58.50725 
L 52.454529 58.849932 
L 52.11044 58.616074 
L 52.18884 58.435472 
L 52.506796 58.323174 
L 52.879921 58.282654 
L 53.173195 58.309281 
L 53.438884 58.389163 
" clip-path="url(#p83881c44b1)" style="fill: none; stroke: #000000; stroke-width: 2"/>
    <path d="M 117.109819 51.838841 
L 116.581345 53.32071 
L 116.392604 53.585825 
L 116.171923 53.592772 
L 116.157404 53.394803 
L 116.280811 52.898146 
L 116.202412 52.568198 
L 116.054323 52.564725 
L 115.957049 52.806687 
L 116.0369 53.197992 
L 115.775567 53.405223 
L 115.489553 53.39133 
L 115.202086 53.228093 
L 114.929138 53.003497 
L 115.191923 52.356337 
L 115.837997 51.83421 
L 116.576989 51.606141 
L 117.109819 51.838841 
" clip-path="url(#p83881c44b1)" style="fill: none; stroke: #000000; stroke-width: 2"/>
    <path d="M 117.853166 50.866365 
L 117.752989 50.866365 
L 117.655715 50.350026 
L 117.657166 50.282879 
L 117.752989 50.072176 
L 118.965284 49.523421 
L 119.215003 49.29651 
L 118.913018 49.697078 
L 118.088366 50.407912 
L 117.853166 50.866365 
" clip-path="url(#p83881c44b1)" style="fill: none; stroke: #000000; stroke-width: 2"/>
    <path d="M 161.501621 50.460009 
L 162.044613 50.779537 
L 165.180612 54.019966 
L 165.485501 54.232985 
L 165.495664 54.237616 
L 165.496067 54.237788 
L 165.192612 55.005016 
L 165.045103 55.100585 
L 164.875469 55.147634 
L 165.18708 55.509326 
L 165.330922 55.953416 
L 163.307724 56.173307 
L 162.909917 56.117737 
L 162.610835 55.918611 
L 162.195606 56.360856 
L 161.674391 56.647968 
L 160.650836 56.906137 
L 159.522748 56.923503 
L 158.895548 56.746373 
L 158.568881 56.323809 
L 158.799726 56.242769 
L 159.169948 55.975338 
L 159.744881 55.857252 
L 160.36337 55.520358 
L 160.528881 55.351333 
L 160.659547 54.529359 
L 159.997503 53.346179 
L 160.043962 52.616822 
L 160.942658 52.668919 
L 161.260614 52.792794 
L 161.138658 53.003497 
L 161.182214 53.162103 
L 161.039932 53.717804 
L 161.016703 54.169311 
L 161.295458 53.700438 
L 161.524851 53.584668 
L 162.244969 53.585825 
L 162.15205 53.65413 
L 162.079458 53.728224 
L 162.031547 53.832417 
L 162.003961 53.992181 
L 162.610835 54.169311 
L 162.467102 53.800002 
L 162.695043 53.100745 
L 162.663102 52.342445 
L 162.416287 51.868942 
L 162.003961 52.031021 
L 161.858776 51.567937 
L 161.664228 51.185893 
L 161.421769 50.883731 
L 161.138658 50.67187 
L 160.785858 50.591988 
L 160.430155 50.664923 
L 160.247221 50.882573 
L 160.406925 51.23799 
L 160.406925 51.449851 
L 160.254481 51.529733 
L 160.093325 51.704547 
L 159.962659 51.925669 
L 159.910392 52.13753 
L 159.801503 52.197731 
L 159.178659 52.420011 
L 159.216407 52.037967 
L 159.349977 51.801794 
L 159.492259 51.633926 
L 159.541622 51.449851 
L 159.448703 51.102538 
L 159.315133 51.064333 
L 159.161237 51.168527 
L 158.590659 51.408173 
L 158.327874 51.73812 
L 158.076704 51.97082 
L 157.718097 51.838841 
L 157.860378 51.287771 
L 158.345296 50.350026 
L 158.446926 49.605619 
L 158.290126 49.168005 
L 157.561297 48.449067 
L 157.340615 48.129539 
L 157.506126 47.807695 
L 157.780526 47.535634 
L 158.111548 47.414074 
L 158.446926 47.546053 
L 158.603726 47.821588 
L 158.966689 48.751229 
L 159.178659 49.119381 
L 159.651962 49.572045 
L 160.827962 50.21689 
L 161.501621 50.460009 
" clip-path="url(#p83881c44b1)" style="fill: none; stroke: #000000; stroke-width: 2"/>
    <path d="M 52.996069 47.353873 
L 52.907506 47.417547 
L 52.881373 47.299461 
L 52.807329 47.277464 
L 52.750707 47.150116 
L 52.670855 47.06213 
L 52.563418 46.969514 
L 52.824751 46.948675 
L 52.93364 47.06213 
L 52.996069 47.353873 
" clip-path="url(#p83881c44b1)" style="fill: none; stroke: #000000; stroke-width: 2"/>
    <path d="M 53.518736 47.084127 
L 53.237077 47.166324 
L 53.142706 47.015822 
L 53.454854 46.930151 
L 53.518736 47.084127 
" clip-path="url(#p83881c44b1)" style="fill: none; stroke: #000000; stroke-width: 2"/>
    <path d="M 70.547499 39.158445 
L 69.77221 39.214015 
L 69.404892 39.090141 
L 69.20744 38.769455 
L 69.401988 38.672207 
L 69.433929 38.511286 
L 69.352625 38.338787 
L 69.20744 38.20565 
L 69.77221 37.699731 
L 70.39941 37.4323 
L 71.105009 37.394096 
L 71.889009 37.587433 
L 71.806254 37.622164 
L 71.767054 37.707835 
L 71.758342 37.835183 
L 71.777217 37.992632 
L 71.449098 38.28669 
L 71.222609 38.637476 
L 70.96418 38.958162 
L 70.547499 39.158445 
" clip-path="url(#p83881c44b1)" style="fill: none; stroke: #000000; stroke-width: 2"/>
    <path d="M 112.787657 38.866703 
L 113.83299 40.71325 
L 111.58988 40.361306 
L 111.263214 40.534962 
L 111.343066 40.650733 
L 111.421466 40.701673 
L 110.704251 40.745666 
L 110.236755 40.67273 
L 110.034948 40.437715 
L 110.069792 39.85886 
L 109.987037 39.63658 
L 109.731511 39.547436 
L 109.264015 39.533543 
L 109.07237 39.590271 
L 108.9388 39.759297 
L 108.806681 39.759297 
L 108.747156 39.550909 
L 108.686178 39.432823 
L 108.590356 39.428192 
L 108.378385 39.550909 
L 108.329022 39.158445 
L 108.828459 38.00884 
L 109.528252 37.373257 
L 110.390651 37.237805 
L 111.912191 37.849076 
L 112.368072 38.213754 
L 112.508902 38.387411 
L 112.787657 38.866703 
" clip-path="url(#p83881c44b1)" style="fill: none; stroke: #000000; stroke-width: 2"/>
    <path d="M 66.655085 38.206808 
L 66.146938 38.477712 
L 65.746227 38.470766 
L 65.519738 38.283217 
L 65.336805 37.87223 
L 65.447145 37.413777 
L 65.769456 37.182235 
L 65.900123 37.124349 
L 66.026434 37.04794 
L 67.174848 36.594118 
L 67.211145 36.902069 
L 67.067411 37.59901 
L 66.655085 38.206808 
" clip-path="url(#p83881c44b1)" style="fill: none; stroke: #000000; stroke-width: 2"/>
    <path d="M 146.713065 35.442197 
L 146.710161 35.758252 
L 146.699998 35.726993 
L 146.649183 35.66795 
L 146.578042 35.661004 
L 146.578042 36.049995 
L 146.46625 36.049995 
L 146.46625 35.468824 
L 146.029243 35.802245 
L 145.926161 36.267644 
L 145.908739 36.818714 
L 145.737421 37.409146 
L 145.606754 37.567752 
L 145.354132 37.772667 
L 145.246695 37.992632 
L 145.182813 38.270482 
L 145.149421 38.555279 
L 145.124739 39.158445 
L 145.002784 39.158445 
L 145.002784 38.769455 
L 145.053599 38.115349 
L 145.612561 36.246805 
L 145.733065 35.52671 
L 145.863732 35.327584 
L 146.155554 35.255806 
L 146.402368 35.244228 
L 146.602724 35.275487 
L 146.713065 35.442197 
" clip-path="url(#p83881c44b1)" style="fill: none; stroke: #000000; stroke-width: 2"/>
    <path d="M 150.881329 33.977694 
L 150.7405 34.380577 
L 150.946663 35.289379 
L 151.482396 35.838134 
L 152.227195 36.073149 
L 154.539994 35.661004 
L 155.334157 35.823083 
L 155.872794 36.376469 
L 155.990394 37.109299 
L 155.52435 37.798136 
L 154.341091 38.644422 
L 154.174128 39.061198 
L 154.396261 40.037147 
L 154.782454 40.71325 
L 155.14832 40.891537 
L 155.993297 41.082559 
L 156.364971 41.331467 
L 157.144615 42.514646 
L 157.581623 42.673252 
L 157.111223 43.102763 
L 156.934097 43.472072 
L 156.809238 44.566108 
L 156.234305 44.420237 
L 156.608882 44.333408 
L 156.681475 44.142386 
L 156.608882 43.839066 
L 156.486927 43.839066 
L 156.303994 44.0243 
L 155.742127 44.125021 
L 155.52435 44.031246 
L 155.52435 43.839066 
L 156.460794 43.369036 
L 156.608882 43.044877 
L 155.267372 43.22548 
L 154.914572 43.450076 
L 156.234305 42.478757 
L 155.505475 42.459076 
L 154.939253 42.773973 
L 154.59952 42.478757 
L 152.822454 42.673252 
L 152.503047 42.861959 
L 151.36044 43.936314 
L 151.152826 44.371613 
L 150.715818 44.457283 
L 150.323819 44.649463 
L 150.25413 45.410078 
L 150.502396 45.070869 
L 150.386248 45.003722 
L 151.36044 44.916894 
L 151.454811 45.865058 
L 151.173151 45.993564 
L 150.098782 45.730764 
L 149.465774 45.341774 
L 149.608056 45.191271 
L 149.888263 44.420237 
L 149.50933 44.679564 
L 149.471582 44.906475 
L 149.522397 45.003722 
L 148.977952 45.008353 
L 148.687582 45.188956 
L 147.46222 44.394767 
L 147.562398 44.031246 
L 147.302516 43.95831 
L 146.578042 44.228057 
L 146.456087 44.008092 
L 146.564976 43.815912 
L 146.803079 43.732557 
L 147.074576 43.839066 
L 147.074576 43.660779 
L 145.968265 42.867748 
L 146.213628 42.256477 
L 146.564976 41.752873 
L 147.017953 41.561851 
L 147.562398 41.895271 
L 147.684353 41.700776 
L 147.891968 41.888325 
L 148.138782 41.846648 
L 148.668708 41.507439 
L 148.388501 41.478496 
L 148.176531 41.287474 
L 148.08942 41.009623 
L 148.172175 40.534962 
L 147.928264 40.512966 
L 147.50142 40.148287 
L 146.708709 40.342783 
L 147.151524 39.597217 
L 147.633538 39.486077 
L 148.668708 38.901434 
L 148.780501 38.769455 
L 148.069094 38.458031 
L 147.989242 38.138503 
L 148.076353 37.99842 
L 148.060382 37.798136 
L 147.215405 38.025047 
L 146.869864 37.717097 
L 146.742102 37.10351 
L 146.46625 37.039836 
L 146.875672 36.855761 
L 148.538042 36.730728 
L 148.633864 36.900911 
L 149.050545 37.124349 
L 149.221863 37.700889 
L 149.358337 37.594379 
L 149.425123 37.270221 
L 149.278486 36.827976 
L 149.860678 36.181973 
L 150.498041 35.838134 
L 150.165567 36.668212 
L 150.010219 36.827976 
L 150.123463 36.824502 
L 150.306396 36.907857 
L 150.386248 37.039836 
L 150.132174 37.587433 
L 150.595315 37.533021 
L 150.755018 37.353576 
L 150.862455 37.039836 
L 150.386248 36.827976 
L 150.386248 36.63348 
L 150.628707 36.421619 
L 151.142663 37.172973 
L 151.353181 37.561964 
L 151.238485 37.992632 
L 151.591285 38.467293 
L 152.035551 38.616637 
L 152.954573 38.594641 
L 152.822454 38.381622 
L 153.198484 37.587433 
L 152.926988 36.561702 
L 153.198484 36.246805 
L 152.976351 36.258382 
L 152.39561 36.664738 
L 151.687107 36.543179 
L 151.469329 36.140296 
L 150.920529 35.855499 
L 150.7405 35.468824 
L 150.493685 35.070572 
L 150.114752 35.392415 
L 149.827285 35.761725 
L 149.409152 35.99674 
L 148.783404 36.526971 
L 148.426249 36.421619 
L 148.363819 36.084726 
L 148.49013 35.560283 
L 148.722427 35.079834 
L 149.027315 34.746413 
L 149.143463 34.212709 
L 149.091197 34.09115 
L 147.918101 34.421097 
L 148.028442 33.89897 
L 148.432056 33.565549 
L 150.879878 32.906812 
L 151.377862 32.899866 
L 151.848262 33.137197 
L 151.848262 33.313169 
L 150.881329 33.977694 
L 150.881329 33.977694 
" clip-path="url(#p83881c44b1)" style="fill: none; stroke: #000000; stroke-width: 2"/>
    <path d="M 61.140955 32.285122 
L 61.113369 32.31638 
L 61.062555 32.309434 
L 61.013192 32.343008 
L 60.81574 32.530557 
L 60.63571 32.747048 
L 61.527147 34.301853 
L 61.86688 34.477825 
L 61.622969 34.67232 
L 61.016095 34.876077 
L 60.597962 34.521818 
L 60.261133 33.95454 
L 59.906881 33.507664 
L 60.42374 32.606965 
L 60.743147 32.281649 
L 61.135147 32.148512 
L 61.140955 32.285122 
" clip-path="url(#p83881c44b1)" style="fill: none; stroke: #000000; stroke-width: 2"/>
    <path d="M 64.947708 32.729683 
L 64.79962 32.924178 
L 64.555709 32.997114 
L 64.253724 32.96354 
L 63.980776 32.866293 
L 63.826879 32.747048 
L 63.362287 32.910285 
L 62.78445 32.745891 
L 61.744925 32.148512 
L 62.096273 31.552292 
L 62.498435 31.191086 
L 62.986258 31.011641 
L 63.582968 30.965333 
L 64.576035 31.020903 
L 64.981101 31.25013 
L 65.299056 31.759522 
L 65.299056 31.954017 
L 65.150968 32.183244 
L 64.947708 32.729683 
" clip-path="url(#p83881c44b1)" style="fill: none; stroke: #000000; stroke-width: 2"/>
    <path d="M 70.836301 26.938622 
L 72.237628 27.467927 
L 76.02121 28.29129 
L 76.319914 28.535358 
L 76.585428 29.557211 
L 76.900727 29.674834 
L 78.469844 29.633666 
L 78.643166 29.467523 
L 79.41574 29.173465 
L 79.775291 29.486637 
L 80.341353 29.436647 
L 80.35185 29.429052 
L 80.600116 29.43021 
L 81.662871 28.933552 
L 82.001153 28.544562 
L 82.436708 28.384798 
L 82.892589 27.839516 
L 82.950663 28.86409 
L 83.814515 29.159306 
L 84.910663 29.21256 
L 86.427847 29.919921 
L 86.850336 30.197771 
L 87.242336 30.956071 
L 87.70838 30.881978 
L 88.519965 30.593708 
L 88.450276 30.002118 
L 88.871313 29.975491 
L 89.450601 30.307754 
L 89.860023 30.788203 
L 90.217179 31.986433 
L 90.71226 32.535188 
L 90.482867 32.698425 
L 89.860023 32.535188 
L 89.870186 32.597704 
L 89.137001 33.051526 
L 89.12829 33.313169 
L 89.389623 33.329376 
L 90.321712 33.174243 
L 90.590304 33.507664 
L 90.781949 33.354846 
L 90.985208 33.340954 
L 91.083934 33.51461 
L 90.956171 33.91402 
L 91.046186 34.308799 
L 91.057801 34.872604 
L 90.866156 36.554756 
L 90.572882 37.284113 
L 90.347845 37.587433 
L 89.772912 38.085248 
L 89.054246 38.456873 
L 88.281861 38.691888 
L 87.534158 38.769455 
L 87.534158 38.96395 
L 88.305091 39.339048 
L 92.611281 38.381622 
L 92.945207 38.492762 
L 94.023933 39.370306 
L 93.668229 39.701411 
L 93.666777 40.012835 
L 93.901977 40.818601 
L 93.798896 41.199488 
L 93.546273 41.553747 
L 93.223963 41.808443 
L 92.91617 41.895271 
L 92.962629 41.958945 
L 93.032318 42.096713 
L 92.91617 42.284262 
L 93.107814 42.477599 
L 93.161533 42.716088 
L 92.91617 43.256738 
L 93.30817 43.121286 
L 93.604348 42.780919 
L 94.023933 41.895271 
L 94.389799 40.71325 
L 94.568377 40.60211 
L 95.485947 40.401826 
L 95.861976 39.936426 
L 96.066687 39.87391 
L 96.824554 39.936426 
L 97.216553 40.117029 
L 98.296731 40.923953 
L 101.110418 42.089767 
L 102.700195 43.489438 
L 103.43338 43.660779 
L 104.250772 43.520696 
L 104.851839 43.172225 
L 105.871038 42.284262 
L 107.073171 41.688041 
L 108.56277 41.507439 
L 108.56277 41.700776 
L 107.796193 41.720457 
L 108.105437 41.850121 
L 108.414682 41.755189 
L 108.832815 42.02725 
L 110.085762 41.308313 
L 110.644725 41.507439 
L 109.686503 42.39656 
L 109.415007 42.284262 
L 109.608103 42.749661 
L 109.912992 44.420237 
L 109.780874 44.779127 
L 109.836044 46.568946 
L 109.415007 47.25431 
L 107.343215 48.518529 
L 106.627453 49.379865 
L 106.315305 49.56973 
L 105.182861 49.845265 
L 104.896846 49.701709 
L 104.684876 49.86263 
L 103.813765 51.23799 
L 104.310298 52.20352 
L 104.652935 52.470951 
L 105.139305 52.616822 
L 106.006061 52.616822 
L 106.132372 52.912038 
L 106.218031 53.51289 
L 106.846682 53.585825 
L 107.892015 52.792794 
L 108.231748 52.725647 
L 109.181259 52.245197 
L 111.507125 52.031021 
L 111.630532 52.1931 
L 111.872991 52.792794 
L 112.50745 52.957189 
L 112.604724 53.100745 
L 112.561169 54.045436 
L 112.787657 54.169311 
L 113.467124 54.169311 
L 114.188694 53.585825 
L 114.325168 53.672653 
L 114.618442 54.169311 
L 115.370501 54.258455 
L 116.189345 55.156837 
L 116.392604 55.156837 
L 116.415834 54.856991 
L 116.733789 53.832417 
L 116.655389 53.373964 
L 116.960278 53.038228 
L 117.109819 53.003497 
L 116.999478 52.420011 
L 117.609255 51.838841 
L 117.609255 51.62698 
L 117.4873 51.62698 
L 117.4873 51.449851 
L 118.097077 51.62698 
L 118.458588 51.375757 
L 118.776544 50.619773 
L 119.368899 50.106907 
L 119.458914 49.754963 
L 119.325343 49.654243 
L 119.381966 49.3625 
L 119.964158 48.439805 
L 120.531832 48.070496 
L 121.22872 47.976721 
L 122.71832 48.224471 
L 126.970792 47.367766 
L 127.640095 46.964883 
L 127.731562 47.77991 
L 127.702525 49.243256 
L 128.119206 49.701709 
L 127.946436 49.356711 
L 127.763503 48.3414 
L 127.94934 48.009137 
L 128.463295 47.735918 
L 128.615739 47.351558 
L 128.223739 47.36545 
L 127.875295 47.546053 
L 128.010317 47.27978 
L 129.652361 45.410078 
L 129.886109 45.346404 
L 131.230523 44.659882 
L 132.171323 43.839066 
L 132.814493 42.673252 
L 134.003559 40.95058 
L 134.739648 39.759297 
L 135.22747 38.765982 
L 135.591884 38.594641 
L 135.591884 38.769455 
L 135.469929 38.769455 
L 135.850314 39.340206 
L 136.619795 39.634264 
L 140.680623 39.634264 
L 141.349926 39.936426 
L 141.7608 39.717619 
L 142.273304 39.835706 
L 142.501244 40.152918 
L 142.05843 40.534962 
L 141.602548 40.627579 
L 139.691912 40.474761 
L 138.45929 40.148287 
L 138.319913 40.206173 
L 138.028091 40.534962 
L 137.030669 40.544224 
L 136.92178 40.923953 
L 136.811439 40.71325 
L 136.717069 40.766504 
L 136.445573 40.923953 
L 136.551558 41.275897 
L 136.811439 41.331467 
L 136.672062 41.384721 
L 136.677869 41.507439 
L 136.335232 41.333782 
L 135.951943 41.367356 
L 135.629632 41.568797 
L 135.469929 41.895271 
L 135.179559 41.553747 
L 134.826759 41.388195 
L 134.180685 41.331467 
L 133.890315 41.46113 
L 133.649307 41.791078 
L 133.533159 42.225219 
L 133.631885 42.673252 
L 133.145515 42.478757 
L 133.02356 42.673252 
L 133.14116 43.013619 
L 133.054048 43.350513 
L 132.830463 43.597105 
L 132.535738 43.660779 
L 132.849337 44.603155 
L 132.64753 44.82775 
L 133.425722 45.33367 
L 133.859826 45.439021 
L 134.241663 45.215583 
L 133.753841 45.128755 
L 133.387974 44.82775 
L 133.672537 44.24658 
L 134.421692 43.714034 
L 134.552359 43.520696 
L 134.607529 43.044877 
L 134.909514 42.805231 
L 136.068092 42.284262 
L 135.715292 42.089767 
L 135.715292 41.895271 
L 136.166817 41.791078 
L 136.312003 41.895271 
L 136.312003 41.700776 
L 136.645928 41.978627 
L 137.177306 41.847805 
L 138.110846 41.236535 
L 138.028091 40.923953 
L 138.422994 40.717881 
L 138.868713 40.71325 
L 138.868713 40.923953 
L 138.60012 40.988785 
L 138.42009 41.214538 
L 138.272002 41.895271 
L 138.637868 41.11729 
L 138.980505 41.639418 
L 139.180861 41.727404 
L 139.378312 41.507439 
L 139.587379 41.681095 
L 139.779023 41.672991 
L 140.110045 41.331467 
L 140.35686 41.938107 
L 140.792415 42.322466 
L 141.695467 42.089767 
L 142.032296 41.398614 
L 142.192 41.11729 
L 142.647881 40.697042 
L 143.356385 40.269847 
L 144.064888 40.023255 
L 144.517866 40.148287 
L 144.291377 40.353202 
L 144.282666 40.692411 
L 144.628206 41.331467 
L 145.612561 41.895271 
L 145.275732 42.456761 
L 145.348324 42.894375 
L 145.856472 43.660779 
L 145.958102 44.5198 
L 146.155554 44.617047 
L 146.95262 44.617047 
L 146.95262 44.82775 
L 146.666605 44.881005 
L 146.46625 45.003722 
L 147.049894 44.951625 
L 147.981983 45.448283 
L 148.603375 45.587208 
L 149.060708 45.821065 
L 149.648708 46.952148 
L 150.132174 47.351558 
L 149.644352 47.740548 
L 150.09007 47.737075 
L 150.755018 47.418705 
L 151.106366 47.546053 
L 150.881329 48.011452 
L 150.7405 48.129539 
L 150.951018 48.249941 
L 151.36044 48.129539 
L 151.457714 48.273095 
L 151.942633 49.345134 
L 152.205418 49.685501 
L 152.534988 49.889258 
L 152.954573 49.896204 
L 152.954573 49.701709 
L 152.45804 49.119381 
L 152.45804 48.924885 
L 154.660498 48.518529 
L 155.188972 48.289303 
L 156.100734 47.705817 
L 156.608882 47.546053 
L 156.658245 47.819273 
L 156.364971 48.129539 
L 156.909416 48.393497 
L 158.32497 49.508371 
L 158.32497 49.701709 
L 158.067993 50.119642 
L 157.702126 51.168527 
L 157.21866 51.449851 
L 157.433534 51.604984 
L 158.242215 52.591353 
L 158.869415 52.876149 
L 159.077029 53.510574 
L 159.117681 53.800002 
L 159.527103 53.874095 
L 160.071547 54.106795 
L 160.099133 54.377699 
L 159.788437 54.964658 
L 158.510807 55.957973 
L 158.32497 56.323809 
L 158.484674 56.671122 
L 159.300615 57.003385 
L 159.413859 57.314809 
L 159.962659 57.916818 
L 160.154303 57.878613 
L 161.466776 58.917079 
L 162.05768 59.044427 
L 162.416287 59.449626 
L 162.976702 59.449626 
L 163.64165 59.788834 
L 165.076079 59.889555 
L 165.578419 59.745999 
L 165.925412 59.264392 
L 166.211426 59.316489 
L 166.466952 59.553819 
L 166.519219 60.014588 
L 166.378389 60.226449 
L 165.543575 60.792569 
L 166.029945 61.000957 
L 166.456327 61.023004 
L 166.455649 61.025859 
L 166.404022 62.268255 
L 166.673224 62.825496 
L 167.080715 64.211981 
L 167.045682 65.883702 
L 167.174751 66.470348 
L 167.608056 67.108455 
L 167.794285 67.702453 
L 168.168587 68.303802 
L 168.354816 69.777034 
L 168.876626 72.211102 
L 168.943005 73.006529 
L 169.051792 73.187375 
L 169.627073 73.773286 
L 169.075042 74.534246 
L 169.031509 74.838512 
L 168.855087 75.057961 
L 168.529531 75.166918 
L 168.660895 76.780767 
L 168.697772 77.192449 
L 167.873571 79.555208 
L 167.401677 79.833553 
L 166.274952 80.913757 
L 165.188924 81.460705 
L 164.326002 82.078963 
L 164.432945 82.542105 
L 164.691084 83.90727 
L 164.61733 84.445397 
L 164.432945 84.79018 
L 163.959075 85.187894 
L 164.163743 85.587813 
L 164.47351 85.82306 
L 165.601946 86.117118 
L 166.184603 86.78316 
L 166.67138 87.035315 
L 168.843437 88.702626 
L 169.63998 90.044267 
L 169.979249 90.197912 
L 170.491839 90.878657 
L 171.559429 91.289604 
L 173.252084 92.976028 
L 172.752401 93.997146 
L 172.614112 94.658042 
L 172.946005 94.95357 
L 173.028978 95.257185 
L 172.733962 95.924698 
L 172.302501 96.592945 
L 171.378732 97.387638 
L 171.4783 98.517557 
L 172.276687 100.586992 
L 172.169744 101.104535 
L 172.56986 101.544887 
L 173.174643 101.849237 
L 174.181385 102.178582 
L 174.457963 102.678482 
L 174.452431 103.260717 
L 174.103944 103.888531 
L 174.362083 104.284775 
L 173.993313 105.94694 
L 174.172166 106.354945 
L 175.331948 107.209185 
L 174.867298 107.853172 
L 174.701351 108.638308 
L 174.220106 109.603554 
L 174.157415 111.340704 
L 174.006219 111.897209 
L 173.40328 112.844077 
L 172.379943 113.874016 
L 172.455561 114.671401 
L 172.783686 114.988222 
L 173.246169 115.197945 
L 173.436396 115.824752 
L 173.367662 116.111403 
L 173.480159 116.405948 
L 173.521076 116.527774 
L 173.465014 116.731337 
L 174.033148 117.645008 
L 174.955666 118.369399 
L 175.174937 118.836325 
L 175.2122 119.959975 
L 175.401046 120.32459 
L 175.340732 120.686083 
L 174.810139 121.151959 
L 174.715025 121.503468 
L 174.42352 121.849885 
L 174.782519 122.212156 
L 174.770901 122.663578 
L 175.037328 122.917683 
L 175.963802 123.128742 
L 176.268155 123.413959 
L 176.268155 123.413959 
L 177.307181 124.025687 
L 177.621275 124.021061 
L 177.801815 124.129567 
L 178.104857 124.088243 
L 178.290073 124.398364 
L 178.713328 124.454415 
L 179.07569 125.562709 
L 178.870107 125.51578 
L 178.970491 125.706444 
L 178.976101 126.618068 
L 179.25771 127.209201 
L 178.987222 127.565592 
L 179.749938 129.055805 
L 180.037234 129.380393 
L 180.332169 130.101026 
L 180.013833 130.646795 
L 180.211305 130.840327 
L 179.982141 131.105832 
L 179.475264 133.310832 
L 179.418105 134.47685 
L 179.265146 134.701539 
L 179.313269 134.926485 
L 178.954123 136.288877 
L 177.994469 138.051489 
L 177.09467 140.208407 
L 176.207778 141.340531 
L 176.205934 141.869836 
L 175.75419 142.962263 
L 175.580868 143.163692 
L 175.293227 143.243088 
L 174.906019 143.228385 
L 174.244076 143.078416 
L 173.3074 142.412374 
L 172.687866 142.235939 
L 172.601205 142.022746 
L 172.663896 141.514025 
L 173.069543 140.420129 
L 172.973663 140.098135 
L 172.757932 140.093724 
L 171.771472 140.506876 
L 171.566805 140.343673 
L 171.878415 139.587944 
L 172.016704 139.245366 
L 171.994578 138.539626 
L 171.642402 138.051489 
L 171.422984 137.877995 
L 170.720477 137.60011 
L 170.491839 137.196515 
L 170.349863 136.784098 
L 170.194979 137.177401 
L 169.992156 137.283262 
L 169.344964 137.246504 
L 168.647988 137.464843 
L 168.338221 137.203866 
L 168.109584 136.922305 
L 167.445797 136.703967 
L 166.877891 136.79439 
L 166.450118 137.232537 
L 166.000218 138.341136 
L 166.208573 138.479344 
L 167.167376 138.704298 
L 166.971928 139.16597 
L 167.427359 139.62029 
L 168.085614 139.815839 
L 168.561327 140.093724 
L 168.454384 140.802404 
L 167.93073 141.250843 
L 166.531247 141.139101 
L 165.889587 141.274368 
L 165.695983 141.466976 
L 165.152047 142.169775 
L 162.371519 143.459221 
L 162.028563 143.482746 
L 161.37584 143.397469 
L 160.835592 143.612131 
L 160.38016 144.103209 
L 159.66659 144.294347 
L 159.613118 144.811889 
L 159.646308 145.161819 
L 159.421358 145.375011 
L 159.312571 145.377951 
L 158.796292 145.704356 
L 158.475462 145.770519 
L 157.271428 145.717589 
L 156.249012 146.041053 
L 154.646706 146.032231 
L 153.837255 146.186612 
L 153.10709 146.63358 
L 153.313601 147.070257 
L 153.243535 147.454003 
L 152.708818 147.9936 
L 152.795479 148.393519 
L 152.201759 149.021334 
L 151.899368 149.300689 
L 151.567474 149.384496 
L 151.051196 149.036037 
L 150.704552 148.49791 
L 150.437194 148.452331 
L 150.319187 148.672875 
L 149.550301 149.335976 
L 149.360385 149.91233 
L 148.986083 150.106409 
L 148.053094 149.734425 
L 147.203079 151.819298 
L 146.764242 152.153055 
L 145.823878 152.097184 
L 144.984926 152.335371 
L 144.662252 152.273618 
L 144.376455 152.135411 
L 144.079595 152.276559 
L 143.84727 153.955632 
L 143.06179 154.795168 
L 142.451475 154.759881 
L 140.650032 153.689509 
L 140.489617 153.723326 
L 140.128223 153.936518 
L 139.523439 153.908583 
L 139.232111 154.015914 
L 139.003473 154.24675 
L 138.409753 155.065702 
L 138.177428 155.092167 
L 137.224157 154.915732 
L 135.889209 155.017182 
L 135.170107 155.233315 
L 134.480507 155.924352 
L 134.32378 156.606567 
L 134.09883 156.638914 
L 133.886787 156.832992 
L 133.171373 157.32701 
L 132.415394 158.572347 
L 132.070594 158.936979 
L 132.022653 159.388359 
L 131.574598 160.117624 
L 131.572754 160.976274 
L 131.676009 161.533514 
L 131.42709 161.718771 
L 131.122854 161.679073 
L 130.942157 161.390896 
L 130.52729 160.00147 
L 130.167739 159.49275 
L 130.401908 159.097241 
L 130.215679 158.922277 
L 129.443106 158.826708 
L 129.24397 158.647332 
L 129.173904 158.425318 
L 129.074336 157.673999 
L 128.731379 157.42552 
L 127.425933 157.32701 
L 127.980932 158.018047 
L 128.014121 158.78848 
L 127.48678 159.388359 
L 127.671165 159.726526 
L 128.552526 160.289648 
L 129.190498 161.098308 
L 129.326943 161.436475 
L 129.378571 161.86433 
L 129.264252 162.937643 
L 129.419136 163.368438 
L 130.374251 164.28443 
L 130.471975 165.015164 
L 133.462701 166.776574 
L 134.119112 166.847148 
L 134.41966 167.141206 
L 134.465756 167.557298 
L 134.321936 168.249806 
L 135.417183 168.998184 
L 135.218047 169.98622 
L 134.675955 171.209502 
L 134.318248 171.09629 
L 134.209461 171.49768 
L 134.143082 172.562171 
L 133.859129 172.859169 
L 133.121589 173.182634 
L 132.91139 173.610488 
L 133.18428 174.27506 
L 133.809345 175.063136 
L 134.675955 175.549803 
L 134.923031 175.683599 
L 135.070539 175.985009 
L 135.083446 176.362874 
L 134.978347 176.749561 
L 135.120323 176.821605 
L 135.022599 177.114193 
L 135.20514 177.343558 
L 135.819143 177.800819 
L 135.944525 178.10958 
L 136.213727 179.415199 
L 136.466334 179.882752 
L 136.860919 180.156226 
L 137.048991 180.12829 
L 137.181749 180.240033 
L 137.345851 182.114654 
L 137.548675 182.526336 
L 137.897163 182.827746 
L 138.71952 183.230606 
L 139.079071 183.617292 
L 139.663572 184.980252 
L 139.945681 185.284603 
L 140.299701 185.418399 
L 141.684433 185.531612 
L 141.605147 185.165509 
L 141.850379 185.084643 
L 142.834996 185.449275 
L 143.904429 186.354975 
L 144.027968 186.862225 
L 144.109097 187.126878 
L 146.574326 190.340935 
L 147.092448 191.378961 
L 147.597663 191.687722 
L 148.676316 191.740653 
L 149.251597 192.08176 
L 149.79369 192.841901 
L 150.551512 193.650561 
L 150.750648 194.146049 
L 150.761711 194.944418 
L 151.018007 195.381094 
L 152.094816 196.310318 
L 152.511526 196.52057 
L 152.865546 195.71191 
L 153.227615 195.618425 
L 153.521956 195.683974 
L 154.442038 196.3162 
L 154.766556 196.277972 
L 154.810808 196.816099 
L 155.279146 197.777669 
L 155.583382 198.096723 
L 155.920807 198.264336 
L 156.836279 198.521637 
L 157.251145 199.202382 
L 158.112224 201.01084 
L 158.460711 201.391646 
L 157.887274 202.847234 
L 157.979466 202.811947 
L 158.257888 203.294203 
L 158.480994 203.407415 
L 158.243137 203.647073 
L 158.197041 203.98671 
L 158.27817 205.383487 
L 158.112224 206.167153 
L 157.573819 207.158129 
L 157.061229 207.286044 
L 157.000381 207.271341 
L 156.849186 207.595541 
L 156.690614 208.354946 
L 156.651894 208.311573 
L 155.920807 207.962378 
L 155.647917 207.51835 
L 155.046821 207.11255 
L 153.197439 206.565602 
L 152.600031 206.650878 
L 151.856959 207.039771 
L 151.770298 207.340445 
L 151.82377 207.468361 
L 151.89568 207.981492 
L 152.100347 208.505651 
L 152.050563 208.782801 
L 151.692856 209.847292 
L 151.689169 210.94707 
L 151.49372 211.436677 
L 151.392309 212.040232 
L 151.143389 212.483525 
L 149.399106 214.103786 
L 148.799854 214.460332 
L 146.342001 214.916857 
L 144.204977 215.91739 
L 143.541191 216.596665 
L 142.689332 217.176695 
L 142.713302 217.244329 
L 141.455795 217.60308 
L 140.967175 218.341166 
L 140.73485 218.626403 
L 139.953057 219.251276 
L 139.589818 219.729856 
L 139.359337 219.765878 
L 139.25055 219.970249 
L 139.215516 220.353995 
L 139.464436 221.071497 
L 139.630383 221.352323 
L 140.886045 222.757922 
L 141.206875 223.740076 
L 141.446576 224.2635 
L 141.87435 224.538445 
L 142.678269 225.335343 
L 143.283052 226.840921 
L 143.75139 227.548131 
L 142.46807 229.935885 
L 142.431193 230.306398 
L 141.981293 231.063598 
L 142.272621 231.381916 
L 143.533815 231.531886 
L 143.985559 231.317959 
L 144.262137 231.365743 
L 144.702817 231.83109 
L 145.193281 232.88676 
L 145.232002 233.59691 
L 145.149029 234.002711 
L 144.638282 235.052499 
L 144.590342 235.033385 
L 144.623531 235.703838 
L 144.409645 236.239024 
L 144.46496 237.066798 
L 144.573747 237.621833 
L 143.941307 238.390796 
L 143.638915 238.326838 
L 143.367869 238.114381 
L 143.034132 238.207009 
L 142.882936 238.263615 
L 142.687488 238.177603 
L 141.813502 237.464512 
L 140.847324 236.363999 
L 140.4048 236.247846 
L 139.96412 235.8641 
L 139.870083 235.162036 
L 140.087658 234.50261 
L 140.574435 234.242368 
L 139.477343 233.173466 
L 139.661728 232.676508 
L 139.355649 232.719146 
L 138.354438 232.441261 
L 137.718309 232.441261 
L 136.742912 232.78972 
L 135.669791 233.687333 
L 134.926719 233.756437 
L 134.675955 233.623376 
L 134.001106 232.977182 
L 133.634179 231.973709 
L 133.341007 231.911956 
L 132.337952 232.254534 
L 131.307239 232.017817 
L 130.918187 232.078099 
L 130.326311 232.33393 
L 130.149301 232.164111 
L 130.051577 231.850204 
L 130.389001 230.82247 
L 130.344749 230.832027 
L 129.929883 231.059187 
L 129.253189 231.800214 
L 129.441262 232.144262 
L 129.727059 232.522127 
L 129.673587 233.729972 
L 129.022708 234.465853 
L 124.923827 234.273244 
L 123.22564 234.731975 
L 123.046787 235.215701 
L 122.862402 235.281864 
L 121.857503 235.059115 
L 120.404548 235.052499 
L 119.296394 234.873123 
L 119.235547 234.95546 
L 118.737707 235.421542 
L 118.616013 235.722952 
L 118.385531 236.644825 
L 118.061013 237.034452 
L 117.673805 237.200595 
L 116.836696 237.350564 
L 115.994056 237.147664 
L 115.588409 237.250585 
L 114.747613 238.296697 
L 115.160636 238.498862 
L 115.228858 238.710584 
L 115.075819 238.99288 
L 114.786334 239.127412 
L 113.680023 239.261943 
L 112.455706 240.441117 
L 112.027933 240.388187 
L 112.066654 239.614813 
L 111.684977 239.44573 
L 111.235077 239.578791 
L 110.069763 240.452144 
L 109.721275 240.567562 
L 107.86083 240.538156 
L 107.61191 240.380835 
L 107.429368 239.995619 
L 107.471777 239.992678 
L 107.569501 239.664803 
L 107.510498 239.34428 
L 106.619918 238.306254 
L 105.70168 237.846053 
L 105.579986 237.620363 
L 106.304619 237.000635 
L 105.705368 236.551461 
L 105.205684 236.611008 
L 104.486582 236.966818 
L 103.806201 236.985932 
L 103.586783 236.613948 
L 101.232185 235.652378 
L 100.800724 235.646497 
L 100.553648 235.832489 
L 99.965459 236.574251 
L 99.75526 236.613948 
L 98.717172 236.350766 
L 98.477472 236.108168 
L 98.512505 235.683254 
L 98.621292 235.434775 
L 98.479316 235.116457 
L 97.776808 235.346557 
L 97.802622 235.592096 
L 98.075512 236.224321 
L 97.872689 237.621833 
L 98.276492 237.953384 
L 98.446126 238.556203 
L 98.449814 239.166374 
L 98.027572 240.38157 
L 97.577672 240.920432 
L 97.017142 241.196847 
L 95.844452 243.052355 
L 94.657012 243.747803 
L 93.159805 243.88601 
L 93.467728 243.333181 
L 93.790402 243.164097 
L 93.825436 242.803876 
L 93.784871 242.617149 
L 94.107545 241.56442 
L 94.120452 241.052023 
L 93.792246 240.86015 
L 93.00861 241.014531 
L 92.628776 241.330644 
L 92.355886 241.196847 
L 91.865422 241.433564 
L 91.6921 241.251248 
L 91.579625 240.673423 
L 91.531685 240.377895 
L 91.336237 240.130886 
L 91.741884 239.789043 
L 91.824857 239.489839 
L 91.66813 239.156082 
L 90.790457 237.766657 
L 90.272335 238.090121 
L 90.076886 237.963676 
L 89.881438 237.241763 
L 89.472103 236.734512 
L 89.422319 236.264019 
L 89.206589 236.450746 
L 88.937386 236.508087 
L 88.406357 236.462508 
L 87.779448 236.274311 
L 87.416209 236.438984 
L 87.052971 236.236084 
L 87.019781 235.589155 
L 86.960778 235.252459 
L 86.752423 235.00692 
L 86.499815 234.90841 
L 86.232457 234.940757 
L 85.974318 235.089256 
L 85.585265 235.577393 
L 85.105864 236.530142 
L 84.619087 236.780091 
L 83.4759 236.801411 
L 82.313772 236.441031 
L 77.420693 233.153617 
L 76.727405 232.980858 
L 75.6378 233.006788 
L 75.132028 232.636871 
L 74.992155 232.735962 
L 74.153421 232.351872 
L 72.842411 232.33393 
L 72.504986 232.478019 
L 72.221033 232.810304 
L 71.571997 233.033789 
L 70.873178 233.105098 
L 70.436185 232.981593 
L 69.652549 232.278794 
L 69.650705 232.08104 
L 69.97891 231.998704 
L 69.517947 231.528945 
L 68.935291 231.163578 
L 68.455889 231.140053 
L 68.295474 231.698029 
L 68.441138 231.873729 
L 67.498931 231.888432 
L 67.277668 231.297374 
L 67.202071 231.065068 
L 67.498931 230.494595 
L 67.546871 230.387264 
L 67.428864 230.099822 
L 66.872021 230.06233 
L 66.427653 229.226469 
L 66.197172 229.144133 
L 66.034913 229.326449 
L 65.94272 229.946912 
L 65.721458 230.102763 
L 65.546292 229.96235 
L 65.439349 229.041947 
L 65.1093 228.881686 
L 64.664932 228.85522 
L 64.380979 229.030185 
L 64.546925 229.478624 
L 64.277723 229.625653 
L 62.977808 229.9153 
L 62.65329 230.504887 
L 62.518689 231.07389 
L 62.328772 231.265028 
L 61.701863 231.747284 
L 61.757178 232.165582 
L 61.801431 232.40818 
L 61.687112 232.716206 
L 62.055882 232.841916 
L 62.881928 233.444 
L 63.19907 233.429297 
L 63.977175 232.947042 
L 65.092705 232.833829 
L 65.540761 232.977182 
L 65.439349 233.651311 
L 65.323186 233.588089 
L 65.218087 233.370485 
L 65.059516 233.468995 
L 65.048453 233.755702 
L 65.098237 233.964483 
L 64.948885 234.793728 
L 64.709184 234.880475 
L 64.025115 233.955661 
L 63.490398 234.014473 
L 62.944619 234.4041 
L 62.714137 235.026034 
L 62.16467 235.126013 
L 61.023326 235.118662 
L 60.171467 234.801079 
L 59.854324 234.129156 
L 58.862332 233.954191 
L 57.80765 234.193849 
L 57.597451 234.471734 
L 56.88388 234.802549 
L 56.51511 235.256134 
L 56.262502 235.506819 
L 55.460427 235.700897 
L 53.139019 235.700897 
L 53.056045 235.313476 
L 52.890099 234.924584 
L 51.739536 234.849599 
L 51.488772 234.711391 
L 50.880301 235.625913 
L 50.54472 235.831753 
L 49.058576 236.164774 
L 48.406752 235.960247 
L 47.743911 235.581804 
L 47.790123 235.582241 
L 48.210405 235.586215 
L 48.400322 235.388461 
L 48.634491 234.676104 
L 48.230687 234.721683 
L 47.320765 235.016404 
L 47.397267 234.35264 
L 46.047568 232.137646 
L 46.060475 231.354716 
L 46.46059 230.828352 
L 46.46981 230.363739 
L 46.248547 229.367617 
L 46.296488 228.972844 
L 46.650507 227.914234 
L 46.892051 227.772351 
L 46.930772 227.454033 
L 46.83858 226.5351 
L 47.227632 225.735997 
L 47.205506 225.27359 
L 47.301386 224.89352 
L 47.946734 224.01061 
L 47.908013 223.122554 
L 47.137284 221.669906 
L 47.081968 220.495878 
L 47.443363 219.252747 
L 47.655406 218.857238 
L 47.808445 218.099303 
L 49.124955 216.001932 
L 49.397845 214.344179 
L 50.258923 213.485528 
L 50.28105 213.087815 
L 50.037661 211.629285 
L 50.382461 210.283969 
L 50.588973 209.823767 
L 50.718042 209.023929 
L 51.378141 208.22262 
L 51.167942 207.61833 
L 51.169786 206.628824 
L 51.320982 205.6996 
L 52.281628 204.301353 
L 52.576644 204.199903 
L 52.849534 203.949953 
L 54.057257 202.448785 
L 54.173419 201.651887 
L 54.376243 201.581313 
L 55.014215 201.522502 
L 55.154348 201.272552 
L 55.276042 200.853519 
L 55.554464 200.691787 
L 56.317818 200.222764 
L 56.53908 199.830196 
L 57.348531 197.485081 
L 57.905374 196.376482 
L 58.279675 195.925102 
L 58.073164 195.720732 
L 56.319662 195.338456 
L 53.491194 193.754952 
L 53.16852 193.716724 
L 52.152558 193.828466 
L 50.470966 193.432958 
L 49.834838 193.731427 
L 48.863128 193.578517 
L 48.371746 193.713499 
L 48.027864 193.522646 
L 47.723628 192.983049 
L 47.3272 192.766916 
L 46.547251 192.624298 
L 46.158199 192.365526 
L 45.269463 191.095195 
L 45.34506 190.936403 
L 45.477818 190.846715 
L 45.359811 190.435034 
L 45.037137 190.311529 
L 44.266408 190.257128 
L 44.188966 189.939546 
L 43.842322 189.908669 
L 43.126908 190.217431 
L 42.689915 190.995215 
L 42.166261 191.101076 
L 41.648139 191.740653 
L 41.168738 191.505406 
L 39.350701 191.390723 
L 39.070435 191.237813 
L 38.290486 190.705567 
L 38.128228 190.873181 
L 38.17248 191.32309 
L 37.624856 191.684782 
L 37.232116 191.361317 
L 37.025605 190.580593 
L 37.034824 189.576384 
L 36.649459 189.555799 
L 35.338481 188.866233 
L 34.818515 188.919163 
L 33.894746 188.786837 
L 33.79149 189.182345 
L 33.994314 190.11451 
L 33.68639 190.542365 
L 33.459597 190.596766 
L 32.764465 190.327702 
L 31.759566 190.226252 
L 31.530929 189.827803 
L 31.671061 189.119123 
L 31.486676 188.669214 
L 31.16769 188.842708 
L 31.007275 188.335458 
L 30.791544 187.725287 
L 30.448588 187.554733 
L 30.437525 187.031309 
L 28.952303 185.459567 
L 28.839828 185.128752 
L 28.937552 184.86851 
L 29.254694 184.852337 
L 29.332136 184.622972 
L 29.271289 184.452418 
L 28.281141 183.30412 
L 28.316174 183.292358 
L 28.264546 182.89832 
L 28.153915 182.661603 
L 27.847836 182.354312 
L 26.013204 181.467726 
L 25.185864 181.790622 
L 25.283039 178.625653 
L 25.384451 178.312481 
L 26.464948 176.373166 
L 26.210496 176.08793 
L 26.487074 175.68654 
L 27.763019 174.745553 
L 27.641325 174.599995 
L 27.785145 174.419149 
L 27.940029 174.482371 
L 27.727986 174.101566 
L 27.700328 173.614899 
L 27.881025 173.347306 
L 27.834929 173.019431 
L 27.895776 172.000519 
L 27.82571 171.996108 
L 27.276242 171.828495 
L 26.109085 171.740278 
L 25.806693 171.541788 
L 24.991711 170.840459 
L 24.834984 170.836048 
L 24.423805 170.990429 
L 24.226513 170.403783 
L 24.141696 170.247932 
L 22.998508 169.505435 
L 22.106084 167.539655 
L 21.914324 167.930752 
L 21.772347 167.682273 
L 21.501301 166.882435 
L 21.115936 166.169343 
L 21.16572 165.853231 
L 20.938926 165.025456 
L 20.745322 164.910774 
L 20.977647 164.485859 
L 20.937082 164.479978 
L 20.798794 164.469686 
L 21.121468 162.867069 
L 21.335354 162.480382 
L 21.272663 162.305417 
L 21.091966 162.155447 
L 21.375919 161.505579 
L 21.86454 161.387955 
L 21.982546 160.798368 
L 21.882978 160.474904 
L 21.645121 160.204371 
L 21.829506 159.957362 
L 22.23331 159.664774 
L 22.408476 159.388359 
L 22.77909 159.208983 
L 23.546132 158.98844 
L 23.874337 158.68556 
L 23.795052 158.429729 
L 23.949935 157.869548 
L 24.368489 157.506386 
L 25.484019 157.560787 
L 25.707125 157.318189 
L 25.670248 156.92121 
L 25.050714 155.821432 
L 25.026744 155.484735 
L 25.277508 154.433477 
L 25.222192 153.861533 
L 25.094967 153.836538 
L 24.844203 153.29106 
L 24.836827 152.807334 
L 25.035963 152.608845 
L 24.711446 152.589731 
L 23.501879 152.276559 
L 22.72193 152.457405 
L 22.579954 152.341252 
L 22.283094 151.881051 
L 22.42507 151.635512 
L 22.072895 151.557587 
L 22.048925 151.428201 
L 22.189057 151.209127 
L 21.892197 150.828322 
L 22.220403 150.304898 
L 23.383873 149.235996 
L 23.509255 148.983106 
L 23.46869 148.812552 
L 22.236997 148.781676 
L 21.870071 148.586127 
L 21.661716 148.177386 
L 21.899573 148.023006 
L 20.470588 145.994004 
L 20.173728 145.966068 
L 19.23152 146.135152 
L 19.161454 145.896964 
L 19.218613 145.323551 
L 18.894096 145.061839 
L 18.973381 144.586935 
L 18.468166 143.685646 
L 18.739212 143.75475 
L 18.995507 143.512152 
L 19.050823 142.912273 
L 19.034228 142.666734 
L 19.190956 142.381497 
L 19.436188 142.240349 
L 19.838147 142.275636 
L 20.14607 141.741921 
L 20.151602 141.515496 
L 20.033595 140.742122 
L 20.162665 140.473059 
L 19.580008 140.268689 
L 19.023165 139.851126 
L 18.951255 139.21449 
L 19.091388 138.589616 
L 18.451571 138.667541 
L 17.736157 138.477874 
L 16.788418 138.827803 
L 16.769979 138.110301 
L 16.495245 137.292083 
L 16.393834 136.626041 
L 16.893517 136.361389 
L 17.140593 136.501067 
L 17.590493 136.99729 
L 17.918698 136.962003 
L 18.138117 136.719405 
L 18.720774 135.717401 
L 20.37102 134.417664 
L 21.386982 133.864099 
L 21.652497 133.510494 
L 21.278195 133.159829 
L 21.827663 132.742267 
L 21.418328 132.601119 
L 20.529591 133.213495 
L 20.111037 132.979719 
L 19.983811 132.454089 
L 20.188479 131.252126 
L 21.847945 128.607072 
L 22.478542 128.040274 
L 22.732993 126.812581 
L 22.463791 126.491322 
L 22.624206 125.362138 
L 22.688741 124.799017 
L 22.474854 123.35078 
L 21.755752 122.523006 
L 20.568312 120.898334 
L 20.490871 120.549139 
L 20.795106 119.505967 
L 19.587384 118.978868 
L 19.178049 118.461325 
L 19.417749 117.655606 
L 18.842468 117.175556 
L 18.6378 117.078516 
L 17.942668 117.018969 
L 18.063093 116.609092 
L 18.353847 116.322786 
L 18.385193 115.747902 
L 18.147336 115.197278 
L 17.741689 114.889252 
L 17.802536 114.635627 
L 18.099396 114.427581 
L 19.172517 114.154107 
L 19.797583 113.747571 
L 20.52406 113.554228 
L 21.811068 113.884308 
L 21.571367 113.510854 
L 20.684475 112.653674 
L 21.291102 112.32874 
L 21.866383 112.597068 
L 22.439821 113.056534 
L 23.04276 113.301337 
L 23.747111 113.197682 
L 23.874337 113.319716 
L 24.152759 113.76742 
L 24.836827 113.87034 
L 25.126312 114.037218 
L 25.179784 114.480511 
L 25.849102 114.29599 
L 25.922856 114.012223 
L 25.777191 113.370441 
L 27.283618 113.704932 
L 27.578634 113.572606 
L 28.456307 112.906564 
L 30.231936 112.306685 
L 31.811194 112.256695 
L 32.294283 111.998659 
L 32.709149 111.509787 
L 33.262305 110.622466 
L 33.489098 110.512195 
L 33.461441 109.972598 
L 33.369248 109.835125 
L 32.908285 109.35434 
L 31.068122 108.400121 
L 31.031245 107.966385 
L 31.154783 107.670121 
L 31.860978 107.297402 
L 32.100679 106.773243 
L 32.688867 106.306426 
L 33.844962 106.17851 
L 34.069911 105.976345 
L 34.464496 105.185329 
L 34.81114 104.828783 
L 35.576338 104.499438 
L 35.932201 104.189206 
L 36.542516 103.301885 
L 37.385156 102.682157 
L 37.235804 102.412359 
L 37.077232 101.804393 
L 37.088296 101.283175 
L 37.726268 99.003488 
L 37.475504 98.272018 
L 36.389476 96.548101 
L 36.277001 96.599561 
L 36.000423 96.94361 
L 35.085873 97.101666 
L 34.582502 97.021535 
L 33.660577 96.677487 
L 32.248187 96.482673 
L 31.778005 96.258454 
L 31.425829 95.858535 
L 31.291228 94.932986 
L 31.228537 94.425 
L 31.009119 93.978767 
L 31.304135 93.953037 
L 32.294283 93.465635 
L 31.5844 92.801063 
L 31.659998 92.328365 
L 31.695031 92.073269 
L 31.545679 91.775535 
L 32.174433 91.332242 
L 32.77184 91.152132 
L 34.464496 91.125666 
L 35.410391 91.403551 
L 36.289908 91.276371 
L 37.195239 91.579986 
L 37.519757 90.971286 
L 37.65067 89.968547 
L 37.9715 85.945829 
L 38.290486 85.080563 
L 39.754504 82.855277 
L 40.141713 81.902528 
L 40.305816 80.995358 
L 40.333473 79.975711 
L 40.101148 77.690143 
L 39.946265 77.360797 
L 39.97761 76.79106 
L 40.351912 75.675108 
L 40.388789 74.77529 
L 40.337379 73.967307 
L 40.716312 73.666302 
L 41.032815 73.153437 
L 41.093793 72.814228 
L 40.960223 72.500488 
L 41.410297 71.84754 
L 41.652756 71.729454 
L 42.452726 71.819755 
L 43.40514 72.323359 
L 42.976844 71.719034 
L 42.269793 71.471284 
L 38.207513 71.333517 
L 37.548373 71.020935 
L 37.287039 70.229062 
L 37.359632 67.64158 
L 37.931661 66.09488 
L 38.281557 66.099511 
L 39.000224 66.248855 
L 39.096046 66.019629 
L 39.265913 65.932801 
L 39.395127 65.65495 
L 39.363187 65.29606 
L 39.204935 65.092303 
L 38.451424 64.615327 
L 38.413676 64.241386 
L 38.666298 63.927647 
L 39.241231 63.546761 
L 40.237201 62.629854 
L 40.899245 61.975748 
L 42.307541 61.454779 
L 45.05154 61.160721 
L 45.855865 61.629593 
L 48.48662 61.108624 
L 53.839595 60.398948 
L 55.266765 60.792569 
L 55.266765 61.00443 
L 55.150617 61.80325 
L 55.650053 62.834769 
L 56.38469 63.733152 
L 56.982853 64.130246 
L 56.982853 64.305061 
L 56.83186 64.666266 
L 57.502616 64.901281 
L 57.702971 65.198812 
L 57.647801 65.71052 
L 57.479386 65.972163 
L 56.770882 66.407462 
L 56.068187 66.467662 
L 55.754587 66.655211 
L 56.243861 67.961108 
L 56.48632 68.208858 
L 56.916068 68.021309 
L 57.424216 68.141711 
L 58.626348 69.374672 
L 59.143207 69.319102 
L 59.554081 69.003047 
L 59.930111 68.405669 
L 60.327918 67.426246 
L 60.42374 66.450297 
L 59.906881 65.87723 
L 59.205637 66.055518 
L 58.831059 65.995317 
L 58.865904 65.578541 
L 59.018348 65.110827 
L 59.297104 63.741256 
L 59.535207 63.50161 
L 59.837192 63.386997 
L 60.581992 63.352265 
L 60.923177 63.50161 
L 61.622969 64.518079 
L 62.343087 64.870023 
L 63.866079 65.15482 
L 64.555709 65.472032 
L 64.555709 65.682735 
L 63.736865 66.486186 
L 63.447946 67.099772 
L 63.339057 67.926377 
L 63.463917 70.227904 
L 63.704924 70.751189 
L 63.75719 70.047301 
L 63.582968 67.430877 
L 63.855916 66.81266 
L 64.637012 66.194443 
L 64.79962 65.384046 
L 64.711057 65.241648 
L 63.39568 61.963014 
L 63.378257 61.010218 
L 63.487146 60.591127 
L 64.154998 59.010853 
L 64.93319 56.536828 
L 65.53716 55.857252 
L 65.932064 55.633814 
L 66.707352 55.571298 
L 66.919322 55.659284 
L 67.357781 56.129314 
L 67.990789 56.636391 
L 68.665899 56.968653 
L 70.061128 57.295128 
L 70.826254 57.274289 
L 72.122757 56.969811 
L 72.837068 57.024223 
L 73.170994 56.652599 
L 74.589452 56.323809 
L 76.000652 56.336544 
L 76.30554 56.129314 
L 76.548 56.301812 
L 76.841274 56.351594 
L 77.602044 56.423372 
L 77.994043 56.90961 
L 79.730457 59.815462 
L 80.447672 60.615439 
L 81.193923 61.304277 
L 81.437834 62.164455 
L 82.936145 64.115196 
L 83.267167 64.256437 
L 83.914693 64.408097 
L 84.974544 65.101565 
L 87.158128 65.564649 
L 87.390424 65.472032 
L 87.168291 65.101565 
L 86.498988 64.728782 
L 84.899048 64.55281 
L 84.245715 64.305061 
L 82.959375 63.513187 
L 82.372827 62.883393 
L 82.16376 61.975748 
L 82.041805 60.704583 
L 81.863227 60.54945 
L 80.321361 59.637174 
L 79.90468 58.781627 
L 79.62302 57.863563 
L 79.596887 57.295128 
L 78.946458 57.052008 
L 77.819821 56.131629 
L 77.146162 55.742639 
L 76.479763 55.594452 
L 74.213423 55.545828 
L 73.080979 55.129052 
L 72.873364 55.254085 
L 72.686075 55.545828 
L 72.272298 55.416164 
L 71.645098 54.964658 
L 71.048387 54.267716 
L 69.573306 51.449851 
L 70.260032 51.151161 
L 70.59541 51.12685 
L 71.022254 51.23799 
L 72.106787 51.801794 
L 72.497335 51.62698 
L 72.778994 50.751752 
L 72.873364 49.701709 
L 72.334727 49.133273 
L 72.090816 48.842688 
L 72.141631 48.3414 
L 71.706076 48.216367 
L 71.083232 48.324034 
L 70.502491 48.587992 
L 70.061128 48.924885 
L 69.20744 47.351558 
L 69.352625 46.781965 
L 69.81141 45.841904 
L 69.685099 45.215583 
L 69.904328 45.059292 
L 71.155824 44.684194 
L 71.710431 43.878428 
L 71.889009 43.450076 
L 71.481039 43.524169 
L 70.808832 44.06945 
L 70.425543 44.228057 
L 70.460388 44.133125 
L 70.547499 43.839066 
L 70.005958 43.899267 
L 68.526522 44.228057 
L 67.889159 44.125021 
L 67.613307 44.228057 
L 66.810434 44.82775 
L 66.335678 44.666829 
L 65.82753 44.232688 
L 65.45876 43.607524 
L 65.407945 42.867748 
L 65.660567 42.574847 
L 66.148389 42.367617 
L 67.115322 42.089767 
L 66.794463 42.019146 
L 66.3139 41.732034 
L 66.030789 42.089767 
L 65.878345 41.777185 
L 65.930612 41.456499 
L 66.2747 40.923953 
L 66.655085 41.082559 
L 68.101129 40.71325 
L 70.061128 40.71325 
L 70.514106 40.599794 
L 70.891587 40.379829 
L 71.645098 39.759297 
L 72.630905 39.231381 
L 72.751409 38.769455 
L 72.752861 38.080618 
L 72.298431 37.427669 
L 70.63461 35.664477 
L 70.547499 35.362315 
L 70.383439 35.230336 
L 69.640092 35.339161 
L 69.439736 35.468824 
L 69.317781 35.255806 
L 69.92901 34.866815 
L 69.075321 32.924178 
L 68.562818 32.627804 
L 67.598789 31.844035 
L 66.993367 31.566184 
L 67.093545 30.856508 
L 66.514256 29.70806 
L 66.2747 29.217191 
L 66.173071 28.468153 
L 66.252923 27.808258 
L 66.49535 26.985234 
L 67.120941 27.165046 
L 67.779196 27.191512 
L 69.411004 26.712197 
L 70.836301 26.938622 
L 70.836301 26.938622 
" clip-path="url(#p83881c44b1)" style="fill: none; stroke: #000000; stroke-width: 2"/>
    <path d="M 61.634584 27.04417 
L 62.49408 27.242138 
L 66.382137 27.061535 
L 65.934967 27.38801 
L 63.704924 27.273396 
L 63.426168 27.412322 
L 62.933991 27.767738 
L 62.663947 27.839516 
L 61.434229 27.839516 
L 61.31808 27.783946 
L 61.164184 27.536196 
L 61.013192 27.467892 
L 60.841873 27.474838 
L 60.725725 27.517673 
L 60.185637 27.864986 
L 60.09417 27.94371 
L 60.046259 28.152098 
L 60.020125 28.71243 
L 59.967859 28.828201 
L 60.028837 30.381847 
L 59.982377 30.888924 
L 59.892363 31.281388 
L 59.78057 31.364743 
L 59.66297 30.965333 
L 59.648452 30.215137 
L 59.854614 27.127525 
L 60.023029 26.5232 
L 61.373251 23.039652 
L 62.123858 22.176 
L 62.973191 22.592776 
L 61.884302 22.647188 
L 61.744925 22.787271 
L 62.238554 22.834737 
L 62.385191 23.180892 
L 62.226939 23.572198 
L 61.501014 23.947296 
L 61.164184 24.41038 
L 60.978347 24.981131 
L 61.135147 25.509047 
L 61.030614 26.517412 
L 61.634584 27.04417 
" clip-path="url(#p83881c44b1)" style="fill: none; stroke: #000000; stroke-width: 2"/>
   </g>
  </g>
 </g>
 <defs>
  <clipPath id="p83881c44b1">
   <rect x="0" y="-0" width="196.726003" height="266.112"/>
  </clipPath>
 </defs>
</svg>
