<?xml version="1.0" encoding="utf-8" standalone="no"?>
<!DOCTYPE svg PUBLIC "-//W3C//DTD SVG 1.1//EN"
  "http://www.w3.org/Graphics/SVG/1.1/DTD/svg11.dtd">
<svg xmlns:xlink="http://www.w3.org/1999/xlink" width="244.578418pt" height="266.112pt" viewBox="0 0 244.578418 266.112" xmlns="http://www.w3.org/2000/svg" version="1.1">
 <metadata>
  <rdf:RDF xmlns:dc="http://purl.org/dc/elements/1.1/" xmlns:cc="http://creativecommons.org/ns#" xmlns:rdf="http://www.w3.org/1999/02/22-rdf-syntax-ns#">
   <cc:Work>
    <dc:type rdf:resource="http://purl.org/dc/dcmitype/StillImage"/>
    <dc:date>2024-02-02T21:58:01.006196</dc:date>
    <dc:format>image/svg+xml</dc:format>
    <dc:creator>
     <cc:Agent>
      <dc:title>Matplotlib v3.8.2, https://matplotlib.org/</dc:title>
     </cc:Agent>
    </dc:creator>
   </cc:Work>
  </rdf:RDF>
 </metadata>
 <defs>
  <style type="text/css">*{stroke-linejoin: round; stroke-linecap: butt}</style>
 </defs>
 <g id="figure_1">
  <g id="patch_1">
   <path d="M 0 266.112 
L 244.578418 266.112 
L 244.578418 0 
L 0 0 
L 0 266.112 
z
" style="fill: none"/>
  </g>
  <g id="axes_1">
   <g id="PatchCollection_1">
    <path d="M 202.470291 174.338781 
L 163.770583 235.335154 
L 161.865458 234.661652 
L 160.641636 235.721854 
L 159.417814 237.233205 
L 157.613622 237.89704 
L 156.011299 237.62635 
L 152.995902 236.749831 
L 147.949213 236.231008 
L 145.224001 235.625179 
L 143.154859 233.868918 
L 140.076379 227.075893 
L 137.729668 226.189706 
L 134.815205 226.073696 
L 126.160134 224.00163 
L 120.558309 224.43989 
L 109.569144 227.810622 
L 101.456592 233.195416 
L 98.832314 234.448967 
L 96.990272 234.352292 
L 95.097764 233.701348 
L 92.334702 233.250198 
L 88.347818 234.610092 
L 87.30063 234.713212 
L 85.117937 234.635872 
L 84.070749 234.745437 
L 79.717979 236.717606 
L 78.065189 237.13653 
L 75.756329 237.11075 
L 69.485818 235.657404 
L 62.761105 236.398578 
L 59.480757 237.491005 
L 55.69574 241.364447 
L 52.327075 242.218409 
L 45.413112 242.508434 
L 44.580408 242.850018 
L 44.025272 243.47196 
L 43.381819 243.936 
L 42.322015 243.78132 
L 41.590245 243.162601 
L 41.274827 242.424649 
L 40.858475 241.786594 
L 26.437561 238.841231 
L 23.396931 237.671465 
L 21.870308 235.657404 
L 24.065618 232.106211 
L 24.835238 226.779423 
L 25.125422 202.791151 
L 23.624032 189.234104 
L 20.469852 174.897213 
L 20.381535 168.091298 
L 23.989917 156.780332 
L 25.667941 147.325524 
L 27.5983 143.361852 
L 29.402491 142.130858 
L 34.196846 140.0169 
L 35.408051 138.418541 
L 36.089354 136.639722 
L 37.123925 135.904993 
L 38.499148 135.486068 
L 40.202406 134.667554 
L 41.893046 133.35922 
L 43.243035 131.986436 
L 58.004601 110.930637 
L 62.937739 101.714294 
L 64.287728 100.2255 
L 67.164341 98.807601 
L 68.135828 97.267247 
L 69.990487 92.723526 
L 86.253442 70.430288 
L 89.975375 62.277369 
L 97.330924 52.358522 
L 103.614051 45.571942 
L 105.758894 45.191687 
L 109.077092 46.068206 
L 114.678917 48.575309 
L 133.805868 65.564317 
L 135.420808 63.218338 
L 139.849278 61.974454 
L 141.514685 59.570471 
L 142.549256 58.449042 
L 146.195489 57.759427 
L 147.722112 56.940913 
L 148.428649 53.583071 
L 147.293144 49.670959 
L 146.864175 45.958642 
L 152.188432 40.918655 
L 155.027194 34.170746 
L 157.071103 32.372592 
L 158.156141 32.507937 
L 159.670148 33.713151 
L 160.919204 33.590696 
L 187.449438 22.176 
L 189.436323 23.510672 
L 190.578782 25.71821 
L 191.532487 28.184562 
L 192.833897 30.305828 
L 204.775078 43.946889 
L 207.656062 48.539582 
L 209.384652 50.351285 
L 211.292062 50.889214 
L 213.288882 49.508869 
L 213.288882 53.89857 
L 213.517374 55.999537 
L 214.123374 58.095429 
L 215.087014 59.810711 
L 216.199669 61.175832 
L 217.093768 62.698272 
L 217.461342 64.90581 
L 217.610358 69.665972 
L 217.987866 72.193222 
L 218.742883 73.928803 
L 223.302785 80.3129 
L 223.660424 82.413867 
L 223.302785 89.68098 
L 224.196883 99.084583 
L 223.541211 103.073375 
L 221.762948 106.783053 
L 219.120391 109.863457 
L 215.861899 111.969498 
L 214.898259 112.253687 
L 211.619898 112.822065 
L 208.281931 114.527197 
L 205.847996 114.978854 
L 200.602619 115.095575 
L 198.297832 115.72485 
L 194.324061 118.571812 
L 184.945962 129.853091 
L 184.310159 130.259075 
L 182.38288 131.081192 
L 181.528519 131.634345 
L 180.982126 132.486912 
L 180.515208 134.217418 
L 179.859536 134.958339 
L 178.150814 135.592689 
L 171.474879 135.897177 
L 169.72642 136.551826 
L 167.898485 137.8459 
L 166.080485 138.673092 
L 162.772321 137.45514 
L 160.447665 137.830675 
L 149.082681 141.895589 
L 145.883795 143.859537 
L 143.062418 146.889192 
L 134.518811 162.565247 
L 133.704188 163.63603 
L 132.551794 164.275454 
L 128.766778 165.396985 
L 127.634253 165.457882 
L 124.713532 164.919954 
L 121.494777 165.041749 
L 120.471531 164.919954 
L 119.79599 164.442923 
L 118.643597 162.813912 
L 117.97799 162.372405 
L 115.325498 162.539873 
L 113.894941 163.580207 
L 113.875072 164.442923 
L 115.474514 164.067387 
L 116.010974 166.9042 
L 116.080514 169.893257 
L 116.775924 172.450956 
L 120.789433 174.013994 
L 123.223367 176.257055 
L 124.713532 176.845732 
L 126.412319 176.531094 
L 128.349532 174.719391 
L 129.720483 174.293108 
L 130.783466 174.582372 
L 131.925926 175.115225 
L 133.108122 175.353741 
L 134.220778 174.754915 
L 134.936057 173.171577 
L 134.101565 172.227665 
L 132.849827 171.583165 
L 132.223958 170.882843 
L 133.296876 168.8174 
L 135.740745 167.091968 
L 141.313959 164.919954 
L 149.579402 163.935443 
L 152.22196 163.224971 
L 153.493566 162.291208 
L 154.46714 161.261023 
L 155.480452 160.880414 
L 156.841468 161.900448 
L 157.844845 162.387629 
L 178.031601 162.108515 
L 180.634421 161.580736 
L 183.068355 161.656858 
L 185.700978 163.224971 
L 188.10511 162.661668 
L 189.386651 160.941311 
L 190.310553 159.281852 
L 191.621897 158.886017 
L 192.357045 160.190241 
L 194.214782 167.629897 
L 195.526127 169.512647 
L 196.907012 170.542831 
L 200.711898 172.587975 
L 202.470291 174.338781 
L 202.470291 174.338781 
" clip-path="url(#p883e5659a1)" style="fill: none; stroke: #000000; stroke-width: 2"/>
   </g>
  </g>
 </g>
 <defs>
  <clipPath id="p883e5659a1">
   <rect x="0" y="-0" width="244.578418" height="266.112"/>
  </clipPath>
 </defs>
</svg>
