<?xml version="1.0" encoding="utf-8" standalone="no"?>
<!DOCTYPE svg PUBLIC "-//W3C//DTD SVG 1.1//EN"
  "http://www.w3.org/Graphics/SVG/1.1/DTD/svg11.dtd">
<svg xmlns:xlink="http://www.w3.org/1999/xlink" width="142.304879pt" height="266.112pt" viewBox="0 0 142.304879 266.112" xmlns="http://www.w3.org/2000/svg" version="1.1">
 <metadata>
  <rdf:RDF xmlns:dc="http://purl.org/dc/elements/1.1/" xmlns:cc="http://creativecommons.org/ns#" xmlns:rdf="http://www.w3.org/1999/02/22-rdf-syntax-ns#">
   <cc:Work>
    <dc:type rdf:resource="http://purl.org/dc/dcmitype/StillImage"/>
    <dc:date>2024-02-02T21:58:01.029203</dc:date>
    <dc:format>image/svg+xml</dc:format>
    <dc:creator>
     <cc:Agent>
      <dc:title>Matplotlib v3.8.2, https://matplotlib.org/</dc:title>
     </cc:Agent>
    </dc:creator>
   </cc:Work>
  </rdf:RDF>
 </metadata>
 <defs>
  <style type="text/css">*{stroke-linejoin: round; stroke-linecap: butt}</style>
 </defs>
 <g id="figure_1">
  <g id="patch_1">
   <path d="M 0 266.112 
L 142.304879 266.112 
L 142.304879 0 
L 0 0 
L 0 266.112 
z
" style="fill: none"/>
  </g>
  <g id="axes_1">
   <g id="PatchCollection_1">
    <path d="M 74.232893 243.936 
L 68.675996 242.390488 
L 67.669312 238.276086 
L 69.320275 225.765798 
L 69.07867 210.770161 
L 69.320275 208.577205 
L 66.602227 202.75021 
L 60.340651 195.440359 
L 59.213165 189.279198 
L 58.327283 176.560057 
L 56.07231 167.286989 
L 49.065788 152.186925 
L 48.099372 148.552884 
L 46.911484 139.154504 
L 45.361191 134.643282 
L 33.985659 123.30257 
L 32.173627 119.041971 
L 31.227344 114.154813 
L 29.012639 108.933491 
L 26.153656 104.798204 
L 23.415475 103.12738 
L 20.194085 100.433178 
L 19.106866 94.230247 
L 18.643791 81.76173 
L 16.590156 77.81441 
L 13.872109 75.308176 
L 11.85874 72.551317 
L 11.878874 67.747701 
L 14.294916 64.406054 
L 22.56986 58.558173 
L 25.106704 53.420392 
L 21.683978 52.752063 
L 15.68414 50.559108 
L 11.878874 50.204058 
L 15.966011 44.168209 
L 21.724245 22.176 
L 31.509216 22.57282 
L 37.428519 22.802559 
L 43.025683 24.932858 
L 49.065788 29.506736 
L 57.058861 41.286039 
L 63.461372 45.525753 
L 70.830301 41.641089 
L 76.971074 40.429743 
L 101.534169 50.204058 
L 102.420051 53.691901 
L 105.560906 61.523885 
L 110.473525 69.857115 
L 113.23184 74.765158 
L 120.862506 85.792591 
L 121.587318 86.878625 
L 126.278467 104.9444 
L 127.103948 123.762046 
L 123.681222 138.15201 
L 125.936194 138.966537 
L 127.98983 140.679131 
L 130.446139 141.660739 
L 127.345552 160.394843 
L 128.070364 176.76891 
L 128.231434 180.862427 
L 126.781809 201.058501 
L 116.614298 219.082506 
L 113.050636 221.860249 
L 110.634594 222.486808 
L 108.70176 222.340611 
L 103.668339 223.00894 
L 99.460399 222.006446 
L 96.339678 222.591234 
L 93.661898 225.055698 
L 91.125054 231.738991 
L 84.219201 234.767358 
L 82.608506 238.52671 
L 82.387035 238.860874 
L 80.232731 242.223406 
L 74.232893 243.936 
" clip-path="url(#p2f22787582)" style="fill: none; stroke: #000000; stroke-width: 2"/>
   </g>
  </g>
 </g>
 <defs>
  <clipPath id="p2f22787582">
   <rect x="0" y="-0" width="142.304879" height="266.112"/>
  </clipPath>
 </defs>
</svg>
