<?xml version="1.0" encoding="utf-8" standalone="no"?>
<!DOCTYPE svg PUBLIC "-//W3C//DTD SVG 1.1//EN"
  "http://www.w3.org/Graphics/SVG/1.1/DTD/svg11.dtd">
<svg xmlns:xlink="http://www.w3.org/1999/xlink" width="328.615667pt" height="266.112pt" viewBox="0 0 328.615667 266.112" xmlns="http://www.w3.org/2000/svg" version="1.1">
 <metadata>
  <rdf:RDF xmlns:dc="http://purl.org/dc/elements/1.1/" xmlns:cc="http://creativecommons.org/ns#" xmlns:rdf="http://www.w3.org/1999/02/22-rdf-syntax-ns#">
   <cc:Work>
    <dc:type rdf:resource="http://purl.org/dc/dcmitype/StillImage"/>
    <dc:date>2024-02-02T21:58:01.053207</dc:date>
    <dc:format>image/svg+xml</dc:format>
    <dc:creator>
     <cc:Agent>
      <dc:title>Matplotlib v3.8.2, https://matplotlib.org/</dc:title>
     </cc:Agent>
    </dc:creator>
   </cc:Work>
  </rdf:RDF>
 </metadata>
 <defs>
  <style type="text/css">*{stroke-linejoin: round; stroke-linecap: butt}</style>
 </defs>
 <g id="figure_1">
  <g id="patch_1">
   <path d="M 0 266.112 
L 328.615667 266.112 
L 328.615667 0 
L 0 0 
L 0 266.112 
z
" style="fill: none"/>
  </g>
  <g id="axes_1">
   <g id="PatchCollection_1">
    <path d="M 150.080427 217.040707 
L 151.921417 218.583089 
L 152.603499 218.91198 
L 153.295054 219.51022 
L 154.460277 222.16119 
L 155.385508 222.75943 
L 156.317055 222.98058 
L 163.223134 227.03784 
L 162.850515 225.824348 
L 162.40211 225.070168 
L 162.370532 224.469093 
L 163.223134 223.709242 
L 164.28415 223.709242 
L 165.225171 223.255601 
L 165.610421 223.193225 
L 165.259906 222.43621 
L 165.165173 221.565785 
L 165.225171 220.684018 
L 165.345166 219.901486 
L 168.30717 222.699889 
L 168.547162 223.709242 
L 169.466078 224.945417 
L 170.050268 225.421741 
L 170.694457 225.614538 
L 170.302891 226.000134 
L 170.138686 226.090862 
L 170.707088 227.332707 
L 172.652284 229.011182 
L 173.075427 229.680304 
L 173.179634 230.820079 
L 173.340682 231.333261 
L 173.340682 231.741539 
L 172.9428 232.555259 
L 172.50071 233.068442 
L 172.102829 233.238557 
L 171.758631 233.476719 
L 171.458641 234.222393 
L 172.990167 234.931209 
L 172.841751 236.436733 
L 171.603899 237.908233 
L 169.873432 238.503638 
L 163.835745 237.120031 
L 161.877917 237.593519 
L 160.021139 238.503638 
L 158.552768 239.92694 
L 157.678061 239.771 
L 154.065554 237.528308 
L 151.697214 235.367839 
L 147.431045 232.532577 
L 145.507953 232.090276 
L 143.430129 231.078088 
L 141.330201 230.553564 
L 140.506019 229.788044 
L 140.114454 228.733326 
L 140.367076 227.556693 
L 141.339675 226.964123 
L 142.523845 227.162591 
L 143.625912 227.071863 
L 144.34273 225.614538 
L 143.71433 225.370706 
L 143.18698 224.945417 
L 141.124945 222.2746 
L 140.87548 221.806782 
L 140.87548 220.607466 
L 141.40283 219.501714 
L 143.016459 217.485843 
L 143.565914 217.766534 
L 149.136249 216.575724 
L 150.080427 217.040707 
" clip-path="url(#p7bfd1f958a)" style="fill: none; stroke: #000000; stroke-width: 2"/>
    <path d="M 114.909003 221.072449 
L 115.477405 221.330458 
L 116.064753 221.327623 
L 116.528947 221.160342 
L 116.702626 220.601796 
L 116.431056 219.427997 
L 116.983669 220.258729 
L 117.454179 222.342646 
L 117.874164 222.75943 
L 118.6794 222.767936 
L 119.228855 222.620502 
L 119.333062 222.064791 
L 118.812027 220.856969 
L 119.4499 221.500574 
L 120.188822 221.979733 
L 120.713014 222.614831 
L 120.694068 223.709242 
L 121.060371 223.984263 
L 121.464567 224.188402 
L 118.420461 224.919899 
L 117.586806 225.872547 
L 117.106822 226.090862 
L 116.222642 225.668408 
L 109.547082 218.101095 
L 108.915525 216.533195 
L 108.685006 215.444454 
L 109.253408 216.0994 
L 112.546979 218.004696 
L 113.516419 218.91198 
L 114.429019 220.43168 
L 114.909003 221.072449 
" clip-path="url(#p7bfd1f958a)" style="fill: none; stroke: #000000; stroke-width: 2"/>
    <path d="M 199.809247 213.709274 
L 200.434488 216.0994 
L 200.358701 216.85925 
L 200.005029 217.278869 
L 199.367157 217.45182 
L 198.457714 217.485843 
L 193.872608 216.448137 
L 192.467393 216.660782 
L 191.13165 217.298716 
L 189.814853 218.435656 
L 187.749661 221.355975 
L 187.010739 221.806782 
L 185.883409 221.611149 
L 183.410862 220.335281 
L 183.410862 219.901486 
L 183.960317 219.901486 
L 183.786639 219.189835 
L 183.950844 218.639794 
L 184.310831 218.248528 
L 184.733975 217.999025 
L 184.538192 217.792051 
L 184.168731 217.247681 
L 183.960317 217.052048 
L 184.822393 216.042695 
L 185.327638 215.781851 
L 185.817095 216.0994 
L 186.101296 215.580547 
L 185.817095 214.627899 
L 186.442337 214.687439 
L 187.3802 215.362232 
L 187.958074 215.580547 
L 188.346482 215.503995 
L 189.609597 214.959625 
L 190.080107 214.627899 
L 189.871693 213.93893 
L 189.86222 213.377549 
L 190.03274 212.960765 
L 190.364308 212.722603 
L 190.364308 212.246279 
L 189.098035 211.310643 
L 188.753837 210.820142 
L 188.554896 210.122668 
L 188.687523 209.643509 
L 189.113824 209.396841 
L 189.814853 209.396841 
L 190.657982 210.944894 
L 191.95899 211.55731 
L 195.135723 211.769955 
L 198.533501 212.498617 
L 199.809247 213.709274 
" clip-path="url(#p7bfd1f958a)" style="fill: none; stroke: #000000; stroke-width: 2"/>
    <path d="M 93.328691 208.24856 
L 95.640191 211.080987 
L 96.871727 211.769955 
L 98.589563 212.050646 
L 99.827415 212.827508 
L 100.822118 214.032494 
L 101.785243 215.580547 
L 102.347329 216.677793 
L 103.869382 221.483562 
L 103.84412 222.16686 
L 103.30098 222.317129 
L 102.195755 222.283106 
L 101.61788 222.59782 
L 100.860012 223.218742 
L 100.102143 223.663878 
L 99.543215 223.448398 
L 98.905342 222.870005 
L 97.118035 222.285941 
L 96.464373 221.806782 
L 96.464373 221.330458 
L 97.496969 220.794593 
L 98.715875 221.344634 
L 99.941096 222.240577 
L 101.014743 222.75943 
L 101.014743 222.283106 
L 99.157965 220.590455 
L 97.39592 219.938344 
L 96.994881 219.901486 
L 96.606473 220.05459 
L 96.047545 220.630148 
L 95.668611 220.856969 
L 94.152873 220.769076 
L 92.842392 219.67183 
L 92.078208 217.843086 
L 92.201361 215.580547 
L 91.958212 215.580547 
L 91.958212 215.146752 
L 92.81713 215.767674 
L 93.739203 216.85925 
L 94.645488 217.675805 
L 95.425461 217.485843 
L 95.261256 217.239175 
L 95.005476 216.762851 
L 94.853902 216.303539 
L 95.005476 216.0994 
L 95.217047 215.946296 
L 94.948636 215.606064 
L 93.338165 214.420925 
L 93.069753 213.865214 
L 93.546578 213.198927 
L 93.546578 212.722603 
L 90.499315 213.020306 
L 89.968806 212.960765 
L 89.583557 212.654557 
L 89.113046 212.583675 
L 88.699376 212.407889 
L 88.490962 211.769955 
L 88.629905 211.460912 
L 89.362511 210.893859 
L 89.570925 210.343818 
L 88.857266 210.377842 
L 88.213077 210.633015 
L 87.587836 210.749261 
L 86.9247 210.343818 
L 86.9247 209.830636 
L 90.347741 208.146491 
L 91.71822 207.92534 
L 93.328691 208.24856 
" clip-path="url(#p7bfd1f958a)" style="fill: none; stroke: #000000; stroke-width: 2"/>
    <path d="M 133.849405 218.248528 
L 130.097955 231.129123 
L 129.719021 231.988207 
L 129.185355 232.285909 
L 128.266439 232.319932 
L 127.802245 231.656481 
L 126.813858 227.556693 
L 126.390714 226.794007 
L 125.869679 226.178755 
L 124.666563 225.14105 
L 125.607583 225.073003 
L 126.21072 224.800818 
L 126.700177 224.213919 
L 127.312788 223.193225 
L 127.672775 222.025097 
L 127.900136 221.690536 
L 128.266439 222.044944 
L 128.462222 222.155519 
L 129.453767 221.806782 
L 129.365349 221.117813 
L 129.194828 220.335281 
L 128.853788 220.635819 
L 128.519062 220.735053 
L 128.190652 220.635819 
L 127.843296 220.335281 
L 128.389593 218.659641 
L 129.213775 217.417797 
L 131.380017 214.812191 
L 132.314721 214.114717 
L 134.518856 210.820142 
L 134.790426 208.852471 
L 136.091434 205.407628 
L 137.59454 202.750987 
L 138.466089 203.164936 
L 136.612469 211.769955 
L 135.873547 214.058011 
L 133.849405 218.248528 
" clip-path="url(#p7bfd1f958a)" style="fill: none; stroke: #000000; stroke-width: 2"/>
    <path d="M 291.050325 197.624834 
L 292.516728 198.838859 
L 293.585955 198.598069 
L 294.32495 198.815644 
L 294.959665 200.216263 
L 295.376493 200.746457 
L 295.856476 201.066842 
L 298.637641 203.104578 
L 300.463686 203.740494 
L 301.231028 204.593908 
L 301.047877 204.939809 
L 300.965774 205.177971 
L 300.880514 205.365099 
L 300.70052 205.546555 
L 300.984721 206.56725 
L 301.088928 207.213689 
L 300.97209 207.806259 
L 300.567893 208.659673 
L 299.734238 210.068798 
L 299.494246 210.763437 
L 299.639504 211.341831 
L 299.639504 211.769955 
L 299.751259 212.600808 
L 299.134721 213.330485 
L 298.720798 213.930395 
L 298.176793 214.458243 
L 296.275359 213.921622 
L 294.692434 213.80497 
L 292.534813 212.921542 
L 289.870664 211.211995 
L 286.852813 210.312993 
L 283.698999 207.661661 
L 283.102125 206.8138 
L 283.601598 205.329148 
L 283.771628 202.399415 
L 283.93899 198.152193 
L 284.074775 197.443377 
L 284.396869 196.680692 
L 285.154738 195.294249 
L 285.467359 194.256543 
L 285.738929 193.057227 
L 286.07997 192.32573 
L 286.610478 192.699984 
L 288.17674 195.033405 
L 288.719879 195.640151 
L 289.591888 196.581169 
L 291.050325 197.624834 
" clip-path="url(#p7bfd1f958a)" style="fill: none; stroke: #000000; stroke-width: 2"/>
    <path d="M 39.72211 183.306762 
L 40.366299 183.66684 
L 41.155745 183.527913 
L 41.717831 184.09213 
L 41.7052 184.908685 
L 41.20627 186.465244 
L 41.310477 187.162718 
L 41.604151 187.928239 
L 41.87572 189.229624 
L 42.223077 189.805182 
L 41.26311 190.202119 
L 40.239987 189.102037 
L 39.349491 187.39521 
L 38.130586 184.09213 
L 37.871647 182.586606 
L 38.263213 181.594264 
L 39.576852 181.237021 
L 39.72211 183.306762 
" clip-path="url(#p7bfd1f958a)" style="fill: none; stroke: #000000; stroke-width: 2"/>
    <path d="M 114.473228 171.364639 
L 117.151031 173.255759 
L 117.757326 174.018445 
L 118.578351 175.331171 
L 118.944654 175.532474 
L 119.655156 175.620367 
L 120.299344 175.867035 
L 121.474041 176.706273 
L 120.839326 176.445429 
L 120.233031 176.445429 
L 119.784625 176.808342 
L 119.607789 177.627733 
L 119.749889 177.933941 
L 120.321449 178.401759 
L 120.403551 178.818543 
L 120.201453 179.399771 
L 119.882516 179.558546 
L 119.494109 179.584063 
L 119.077281 179.771191 
L 117.624699 181.906143 
L 118.262572 183.0686 
L 119.639367 183.003389 
L 120.403551 181.455336 
L 120.839326 181.574417 
L 123.340293 180.244679 
L 124.808663 179.771191 
L 124.979184 179.552876 
L 124.903397 179.076552 
L 124.533936 178.384748 
L 124.186579 178.291184 
L 123.50134 177.732637 
L 123.340293 177.389571 
L 123.453973 176.777154 
L 123.937114 177.00681 
L 124.666563 177.865895 
L 125.159177 177.091868 
L 125.032866 175.994622 
L 124.401309 173.581814 
L 124.590776 173.902199 
L 125.190755 174.534462 
L 125.206544 173.360664 
L 124.957079 171.163336 
L 125.696001 171.120807 
L 126.832804 172.425027 
L 128.66432 175.532474 
L 129.062201 177.389571 
L 129.156935 177.542675 
L 129.984275 178.384748 
L 130.230582 179.345901 
L 130.14848 179.907283 
L 129.788492 180.298549 
L 128.658005 181.047058 
L 126.854909 181.843767 
L 124.173948 181.588593 
L 123.510813 181.736027 
L 123.049776 182.149975 
L 122.841362 183.037412 
L 123.20135 183.479713 
L 123.826592 183.50523 
L 124.401309 183.142317 
L 124.180264 182.561088 
L 124.467622 181.846602 
L 127.843296 182.665993 
L 128.424329 183.199022 
L 132.254723 188.892228 
L 132.504189 189.504644 
L 133.48626 192.512857 
L 133.716778 193.649797 
L 133.42942 193.649797 
L 132.971541 192.912629 
L 132.264197 192.436305 
L 131.620008 192.629103 
L 131.335808 193.870947 
L 131.556853 194.724361 
L 132.592607 196.425518 
L 132.90207 197.460389 
L 132.974699 198.960242 
L 132.876807 200.33818 
L 132.617869 201.514813 
L 131.913682 203.459803 
L 131.866316 204.854752 
L 131.740004 205.2205 
L 130.786353 206.538897 
L 129.810597 208.869482 
L 129.194828 209.396841 
L 128.72116 209.515922 
L 127.19595 209.396841 
L 125.456009 209.396841 
L 124.808663 209.515922 
L 124.08553 209.867494 
L 123.416079 210.400524 
L 122.932938 211.080987 
L 122.228752 211.803978 
L 121.398254 211.693403 
L 119.873043 210.820142 
L 117.277343 210.604663 
L 116.431056 210.343818 
L 114.959528 209.396841 
L 113.478526 209.43937 
L 110.431262 207.449016 
L 109.30709 207.346947 
L 109.010258 207.877141 
L 108.988154 209.396841 
L 108.400805 208.937529 
L 107.488205 207.837447 
L 106.844017 207.449016 
L 106.048255 207.432005 
L 104.583042 207.814765 
L 103.90096 207.449016 
L 106.875595 205.109925 
L 107.396629 204.114748 
L 106.724021 203.125242 
L 106.237722 201.985467 
L 105.72616 201.069677 
L 104.990396 200.746457 
L 104.406206 200.919408 
L 103.509394 201.350368 
L 102.868364 201.26531 
L 101.987341 200.33818 
L 101.482095 200.125535 
L 101.014743 200.746457 
L 101.128423 201.835198 
L 102.47364 203.953138 
L 102.337856 205.115596 
L 102.145231 205.203489 
L 100.781067 204.973833 
L 100.680018 204.775364 
L 100.907378 203.295358 
L 100.345292 201.75014 
L 100.256874 201.004466 
L 100.345292 200.270133 
L 100.594758 199.598176 
L 100.547391 199.0453 
L 99.950569 198.673881 
L 98.39378 198.271274 
L 97.468549 197.562458 
L 96.84015 196.212874 
L 96.751732 195.793255 
L 96.84015 195.367966 
L 97.200137 194.738538 
L 97.28224 194.347271 
L 97.200137 193.581751 
L 96.751732 191.965652 
L 96.871727 189.56702 
L 96.473846 189.255141 
L 95.867551 189.204107 
L 94.740222 189.328858 
L 94.225502 189.124719 
L 93.676048 188.625713 
L 92.73187 187.378198 
L 93.385531 187.128695 
L 94.111822 187.037967 
L 94.749695 186.777123 
L 95.138103 185.997426 
L 93.019228 185.044778 
L 93.338165 185.112824 
L 94.342341 185.044778 
L 93.941302 184.228222 
L 93.233958 183.785921 
L 91.692958 183.573277 
L 91.149819 183.34362 
L 89.836179 181.673651 
L 89.836179 181.237021 
L 90.875091 181.719016 
L 91.970843 182.694346 
L 93.050806 183.411667 
L 94.054982 183.142317 
L 90.221429 179.660615 
L 88.781479 179.337396 
L 89.078311 178.614404 
L 89.450929 178.325207 
L 89.886704 178.172103 
L 90.39195 177.865895 
L 91.841374 175.960599 
L 93.934986 175.532474 
L 94.645488 175.662896 
L 94.778115 176.03148 
L 94.797062 176.615544 
L 95.138103 177.389571 
L 97.004354 178.430112 
L 99.025338 177.695779 
L 102.868364 175.010786 
L 107.886086 173.303959 
L 109.594449 172.02242 
L 110.551258 171.682189 
L 111.90279 171.682189 
L 111.928053 171.891998 
L 112.190149 173.10549 
L 112.736446 172.898516 
L 112.872231 172.371157 
L 112.742762 170.945021 
L 113.279585 170.797587 
L 114.473228 171.364639 
L 114.473228 171.364639 
" clip-path="url(#p7bfd1f958a)" style="fill: none; stroke: #000000; stroke-width: 2"/>
    <path d="M 201.375509 175.27163 
L 200.535537 173.948568 
L 199.701882 174.205572 
L 198.968729 172.834588 
L 198.709743 171.500187 
L 199.13348 170.729541 
L 199.642157 169.986225 
L 200.289953 169.31299 
L 200.554484 168.795892 
L 200.844629 168.228374 
L 201.210776 167.508382 
L 201.550841 167.062341 
L 202.052792 166.641414 
L 202.51851 165.265772 
L 203.294062 165.272248 
L 203.461757 165.645306 
L 203.65795 166.20878 
L 204.280529 169.179372 
L 205.180573 169.865829 
L 205.323445 170.859765 
L 205.123801 171.979891 
L 205.058473 173.012466 
L 204.038382 173.556091 
L 203.194472 173.817558 
L 202.85776 174.517176 
L 201.976035 175.147315 
L 201.375509 175.27163 
" clip-path="url(#p7bfd1f958a)" style="fill: none; stroke: #000000; stroke-width: 2"/>
    <path d="M 125.456009 152.566854 
L 126.12546 153.525172 
L 126.589655 153.247317 
L 126.921222 152.504478 
L 127.19595 152.09053 
L 127.312788 152.555513 
L 126.760175 153.576207 
L 125.721263 154.942803 
L 125.528638 156.201659 
L 125.56969 158.526574 
L 125.190755 159.745737 
L 123.933956 160.936547 
L 122.57295 160.556622 
L 121.530881 158.929181 
L 121.192998 156.371775 
L 121.414043 154.959815 
L 121.81824 154.375751 
L 122.380326 154.080884 
L 123.049776 153.513831 
L 123.580284 152.637735 
L 123.889747 151.54616 
L 123.858169 150.36102 
L 123.340293 149.192892 
L 122.629791 148.67404 
L 121.843502 148.333808 
L 121.341414 147.593805 
L 121.464567 145.858625 
L 121.862449 144.948506 
L 122.449797 144.336089 
L 122.948727 144.489193 
L 123.236086 147.412348 
L 123.858169 148.62017 
L 124.732876 149.405537 
L 125.721263 149.711745 
L 125.377065 150.400714 
L 125.222333 151.140717 
L 125.260227 151.87505 
L 125.456009 152.566854 
" clip-path="url(#p7bfd1f958a)" style="fill: none; stroke: #000000; stroke-width: 2"/>
    <path d="M 191.693736 135.35398 
L 195.047305 137.296134 
L 197.810368 137.296134 
L 198.558763 137.704412 
L 199.916611 138.943421 
L 201.069203 139.439592 
L 203.080713 141.146419 
L 202.556521 142.243666 
L 200.964996 144.435323 
L 200.396595 145.611957 
L 199.341894 148.384843 
L 199.185059 149.749993 
L 200.462908 152.357045 
L 201.155323 154.606865 
L 201.299722 156.09959 
L 201.83023 157.471857 
L 202.316529 158.316765 
L 202.152324 158.997228 
L 201.811283 163.408895 
L 202.341869 164.490484 
L 202.178279 166.114938 
L 201.81224 166.769999 
L 201.305157 167.153429 
L 200.198279 169.195445 
L 199.580582 169.816896 
L 199.371715 169.465139 
L 198.476661 169.697506 
L 198.224038 170.550919 
L 198.054142 172.101394 
L 197.017842 171.99067 
L 195.896749 171.064102 
L 195.261644 171.114832 
L 194.354968 171.55195 
L 192.387088 172.876729 
L 191.055863 173.184878 
L 188.580158 175.821671 
L 186.634962 179.907283 
L 187.673874 183.573277 
L 189.559072 185.291445 
L 190.222207 185.521102 
L 192.609494 185.694053 
L 193.259998 185.997426 
L 194.93994 187.457585 
L 195.817805 188.534985 
L 196.199897 189.56702 
L 196.26621 190.763501 
L 196.443046 191.772854 
L 196.992501 193.649797 
L 196.199897 194.60528 
L 194.175756 196.085287 
L 186.041298 198.044453 
L 185.428688 198.730586 
L 184.433985 199.382696 
L 183.647696 200.562165 
L 183.180344 201.979796 
L 183.410862 203.164936 
L 183.117188 203.766011 
L 182.788778 204.021185 
L 182.44458 203.964479 
L 182.081434 203.64126 
L 182.368793 202.144241 
L 181.923545 201.197264 
L 181.137256 200.93642 
L 179.517312 202.206617 
L 179.432051 202.926774 
L 179.643623 203.213135 
L 180.758322 204.114748 
L 184.013999 204.40678 
L 185.491843 204.922798 
L 185.817095 206.538897 
L 185.599208 207.22503 
L 185.352901 207.514227 
L 184.733975 207.92534 
L 183.931897 208.381817 
L 183.546647 208.750401 
L 183.82769 208.920517 
L 185.286587 212.246279 
L 185.245536 213.570346 
L 184.727659 214.284832 
L 183.931897 214.574029 
L 183.022454 214.627899 
L 182.422475 214.874567 
L 181.118309 215.912273 
L 180.227814 216.0994 
L 178.873123 215.512501 
L 176.770037 213.451265 
L 175.462714 213.198927 
L 175.500607 213.61004 
L 175.721652 213.675251 
L 175.393243 213.972954 
L 175.247984 214.114717 
L 174.957468 214.194104 
L 175.127989 215.521006 
L 174.850103 216.31488 
L 174.486958 217.001013 
L 174.401698 217.999025 
L 174.685899 218.778722 
L 175.19746 219.24087 
L 175.784808 219.314587 
L 176.277423 218.91198 
L 175.986906 217.999025 
L 176.32479 217.953661 
L 177.313177 217.485843 
L 177.628955 217.874274 
L 178.257355 219.427997 
L 178.617342 219.705853 
L 179.877299 220.981721 
L 180.515172 221.330458 
L 181.235147 221.236894 
L 181.986701 220.993062 
L 182.690887 220.97605 
L 183.287708 221.56862 
L 184.377145 223.286788 
L 185.551841 224.707255 
L 185.551841 225.14105 
L 182.119328 228.058534 
L 181.554084 228.730491 
L 179.829932 232.319932 
L 179.441525 232.611964 
L 178.399455 233.921855 
L 177.988943 234.222393 
L 177.423699 235.192053 
L 177.404753 237.403557 
L 177.840527 241.355912 
L 177.745793 243.853777 
L 176.972136 243.936 
L 176.163742 242.864271 
L 175.986906 241.8776 
L 175.431136 241.083727 
L 174.161706 238.475286 
L 173.87119 237.593519 
L 173.92803 236.147536 
L 174.395382 235.027607 
L 175.462714 233.269745 
L 174.676425 233.093959 
L 174.130128 232.708363 
L 173.994343 231.996713 
L 174.401698 230.848432 
L 173.959608 230.576246 
L 173.719616 230.219004 
L 173.340682 229.41946 
L 171.540743 227.4688 
L 171.224965 226.567186 
L 171.190229 225.63722 
L 171.180756 225.262966 
L 170.934448 224.707255 
L 170.258682 223.899205 
L 169.658703 223.405869 
L 169.235559 222.716901 
L 169.07767 221.330458 
L 169.068197 220.05459 
L 168.938727 219.070754 
L 168.547162 218.384621 
L 167.7514 217.999025 
L 167.7514 217.485843 
L 169.608178 216.0994 
L 170.163948 216.312044 
L 170.915502 217.267528 
L 171.341803 217.485843 
L 171.761788 217.213658 
L 172.645969 216.235492 
L 172.810173 216.337562 
L 173.062796 216.723157 
L 173.612251 216.405608 
L 174.401698 215.580547 
L 174.401698 215.146752 
L 173.994343 214.602382 
L 173.264895 212.475935 
L 172.810173 211.769955 
L 170.205 210.491252 
L 169.257664 210.196385 
L 168.742945 209.541439 
L 168.424008 209.396841 
L 165.970408 209.249407 
L 165.237802 208.835459 
L 164.606244 208.223043 
L 164.044159 207.449016 
L 166.128297 207.908329 
L 170.227104 209.873165 
L 172.254403 210.343818 
L 171.395485 208.727719 
L 168.99241 206.870623 
L 167.991391 205.115596 
L 171.341803 204.480497 
L 171.55969 204.199806 
L 171.458641 203.64126 
L 170.621827 202.921103 
L 168.414535 203.091219 
L 167.7514 202.175429 
L 168.326117 201.546001 
L 168.654527 200.729446 
L 168.591371 199.929902 
L 167.991391 199.360014 
L 167.116685 199.377026 
L 166.463023 199.983772 
L 165.904095 200.754963 
L 165.345166 201.26531 
L 164.833605 201.219946 
L 163.403128 200.545154 
L 160.485333 199.793809 
L 159.781147 199.360014 
L 159.250639 199.649211 
L 156.56652 198.413037 
L 156.06759 198.537788 
L 154.460277 199.360014 
L 151.785632 199.360014 
L 151.785632 199.836338 
L 152.581394 200.312662 
L 151.239335 200.261628 
L 150.273052 199.898714 
L 149.666757 198.909208 
L 149.401503 196.984065 
L 149.966747 197.412189 
L 150.538306 197.437707 
L 151.011974 196.989735 
L 151.255124 196.031417 
L 150.857243 196.343296 
L 150.443573 196.493565 
L 149.53413 196.547435 
L 149.410977 196.16751 
L 149.518341 194.469188 
L 149.268876 194.086427 
L 148.571005 193.652632 
L 146.436342 191.636761 
L 146.076354 190.990322 
L 146.430026 190.820206 
L 146.992112 190.75216 
L 147.449991 190.513998 
L 147.52262 189.805182 
L 147.219473 189.45928 
L 146.663702 189.294835 
L 145.669 189.328858 
L 145.400588 189.705948 
L 145.223752 190.292847 
L 144.939551 190.75216 
L 144.34273 190.75216 
L 144.09958 190.440281 
L 143.550125 188.892228 
L 143.550125 188.37621 
L 145.147965 188.43008 
L 145.536373 188.138048 
L 145.877414 187.681571 
L 146.808961 187.043637 
L 147.257366 186.950074 
L 148.075233 186.572984 
L 148.457325 185.739417 
L 148.416274 184.90585 
L 147.942606 184.525925 
L 148.09418 183.819944 
L 147.768928 182.252045 
L 146.992112 179.771191 
L 146.505813 178.903601 
L 146.010041 178.316701 
L 145.406904 177.98214 
L 144.607984 177.865895 
L 143.916428 178.373407 
L 143.474338 178.509499 
L 143.284871 178.123904 
L 143.3575 177.185432 
L 143.581703 176.67792 
L 143.954322 176.479452 
L 144.475357 176.436923 
L 145.498479 176.045657 
L 145.905834 175.041974 
L 145.798469 173.732083 
L 145.271119 172.396675 
L 143.556441 170.190841 
L 141.668084 169.039725 
L 137.427177 167.877268 
L 137.427177 167.355579 
L 143.550125 167.877268 
L 142.902779 166.706304 
L 140.480757 165.637411 
L 139.54921 165.022159 
L 138.601874 163.403224 
L 137.957686 163.074334 
L 135.933544 162.92123 
L 135.314618 162.555481 
L 135.314618 162.121686 
L 141.428093 163.074334 
L 142.694365 162.853184 
L 145.119545 161.872183 
L 146.461604 161.651033 
L 146.461604 162.121686 
L 145.621633 162.087663 
L 145.223752 162.240767 
L 144.873238 162.555481 
L 145.48269 163.771808 
L 146.486866 164.724456 
L 147.620512 165.076029 
L 148.605741 164.503306 
L 146.992112 163.074334 
L 147.52262 162.555481 
L 147.885766 162.932571 
L 148.533112 163.097016 
L 149.932011 163.074334 
L 150.560411 162.81916 
L 151.880366 161.858007 
L 153.209794 161.551799 
L 153.812931 161.211567 
L 154.27081 160.562292 
L 154.722373 157.579597 
L 154.583431 157.026721 
L 153.907664 156.025873 
L 153.664515 155.461656 
L 154.652902 156.127943 
L 155.606553 156.292388 
L 156.50968 155.903957 
L 157.349651 154.942803 
L 158.675922 155.237671 
L 159.749569 153.343716 
L 159.954825 150.587841 
L 158.669606 148.282773 
L 157.545434 147.806449 
L 155.057099 147.622157 
L 151.962468 146.437018 
L 151.084603 145.662991 
L 150.724616 144.435323 
L 155.688656 146.845296 
L 156.711779 146.598628 
L 162.692626 147.551276 
L 163.403128 148.231739 
L 165.013599 148.138175 
L 167.7514 147.287597 
L 169.16293 146.408665 
L 169.958692 146.249891 
L 170.40394 146.853801 
L 170.23342 147.551276 
L 169.143983 148.878178 
L 168.812416 149.711745 
L 169.267137 150.440408 
L 169.014514 150.902555 
L 168.389273 151.004625 
L 167.7514 150.664393 
L 167.991391 149.711745 
L 166.756697 149.779792 
L 166.254609 150.054812 
L 165.875675 150.664393 
L 167.798766 154.083719 
L 168.534531 155.99185 
L 167.991391 157.366952 
L 167.400885 157.471857 
L 166.191453 157.137296 
L 165.610421 157.366952 
L 164.899919 158.404658 
L 164.445197 158.787418 
L 163.72838 158.795924 
L 163.72838 159.314777 
L 164.369411 159.524586 
L 166.283029 159.314777 
L 166.804064 159.076615 
L 167.416674 158.591785 
L 168.098756 158.226036 
L 168.812416 158.316765 
L 169.071354 158.872476 
L 169.778699 161.140686 
L 169.740805 161.651033 
L 166.620912 162.223756 
L 165.932515 162.512952 
L 165.648314 162.949583 
L 166.140929 163.508129 
L 166.699857 163.593187 
L 168.442955 163.457094 
L 168.812416 163.289814 
L 169.10609 162.938242 
L 169.753436 163.610199 
L 170.694457 165.022159 
L 170.972342 165.940784 
L 170.947079 166.28385 
L 170.719719 166.706304 
L 170.40394 167.877268 
L 171.095495 167.216652 
L 171.597583 166.556036 
L 173.340682 162.81349 
L 173.255421 162.314484 
L 172.810173 161.169038 
L 172.933327 160.369494 
L 173.233317 159.365812 
L 173.87119 157.800747 
L 174.449065 157.179825 
L 175.822702 156.780053 
L 176.517415 156.371775 
L 177.148972 154.404104 
L 176.35321 152.130224 
L 175.437452 150.086 
L 175.721652 148.759097 
L 176.416365 148.818638 
L 177.783687 150.287303 
L 178.879439 150.967766 
L 178.866808 151.668076 
L 178.639447 152.994978 
L 178.955226 154.194294 
L 179.138377 154.406939 
L 179.432051 154.942803 
L 180.1615 156.975686 
L 180.849897 159.850641 
L 180.963578 162.546975 
L 179.962559 164.026982 
L 178.560502 163.510964 
L 177.887894 163.607363 
L 177.325808 165.558023 
L 175.961644 166.901937 
L 175.462714 167.877268 
L 176.249003 168.053054 
L 177.363701 167.531366 
L 178.257355 166.570212 
L 178.374193 165.455954 
L 178.993119 165.192275 
L 179.630992 165.399249 
L 180.186762 165.991818 
L 180.515172 166.879255 
L 179.308898 166.459637 
L 179.147851 166.621247 
L 179.391 167.25918 
L 179.981506 167.74401 
L 181.28883 168.305392 
L 181.629871 166.845232 
L 182.520366 164.630893 
L 182.637204 163.074334 
L 181.023576 155.461656 
L 181.023576 152.994978 
L 180.881475 151.999802 
L 179.962559 148.282773 
L 179.359422 147.313114 
L 178.655236 146.941695 
L 177.812107 146.992729 
L 174.846946 148.217562 
L 173.729089 148.421701 
L 173.075427 147.806449 
L 173.732247 146.096787 
L 175.740599 144.361606 
L 179.432051 142.056539 
L 185.365532 136.970079 
L 188.460163 135.226393 
L 191.693736 135.35398 
L 191.693736 135.35398 
" clip-path="url(#p7bfd1f958a)" style="fill: none; stroke: #000000; stroke-width: 2"/>
    <path d="M 162.692626 96.729208 
L 162.038964 96.992888 
L 161.243202 96.90783 
L 160.501122 96.485376 
L 160.021139 95.736867 
L 159.916932 94.713337 
L 160.355864 94.347589 
L 163.665224 93.998851 
L 165.345166 93.355247 
L 165.345166 93.876935 
L 165.180962 93.888276 
L 165.05465 93.98184 
L 164.814658 94.307895 
L 164.126261 94.631115 
L 163.592595 95.33993 
L 163.137874 96.128133 
L 162.692626 96.729208 
" clip-path="url(#p7bfd1f958a)" style="fill: none; stroke: #000000; stroke-width: 2"/>
    <path d="M 59.101445 77.57418 
L 58.987765 78.090198 
L 59.063552 78.390735 
L 59.451959 79.360395 
L 59.540377 79.950129 
L 59.451959 80.097563 
L 58.987765 82.371443 
L 58.675144 83.239033 
L 58.476203 83.553747 
L 58.192002 83.794744 
L 58.182529 82.966848 
L 57.986746 82.433819 
L 57.689914 82.104928 
L 57.39624 81.895119 
L 56.477325 82.637957 
L 56.316277 82.890296 
L 56.193124 83.624629 
L 56.294173 84.0726 
L 56.471009 84.39582 
L 56.603636 84.753063 
L 56.919415 87.075142 
L 57.260456 87.789628 
L 57.926748 88.078825 
L 57.680441 88.427562 
L 57.434134 88.586337 
L 57.159406 88.623195 
L 56.846786 88.603348 
L 57.134144 88.807487 
L 57.39624 89.074002 
L 56.881521 89.850863 
L 56.297331 91.430104 
L 55.782612 92.365741 
L 55.27105 93.01218 
L 53.663737 94.307895 
L 53.464796 95.510046 
L 50.370166 96.354954 
L 49.283887 96.944688 
L 48.898637 96.74055 
L 47.862883 94.449658 
L 47.43974 93.876935 
L 46.486089 92.878923 
L 45.554542 92.40827 
L 45.308234 92.365741 
L 44.105118 92.822218 
L 43.707237 92.757007 
L 43.839864 91.931946 
L 44.023015 91.583208 
L 44.313531 91.285506 
L 44.660888 91.064355 
L 45.027191 90.979298 
L 45.204027 90.673089 
L 45.140872 90.001132 
L 45.001929 89.340516 
L 44.894564 89.074002 
L 45.971369 88.274458 
L 48.718643 87.891698 
L 49.688084 86.652688 
L 49.201785 86.700888 
L 48.718643 86.649853 
L 48.260764 86.496749 
L 47.837621 86.221728 
L 48.055508 85.558277 
L 48.832324 84.526242 
L 49.157576 83.794744 
L 49.031264 83.851449 
L 48.949162 83.278727 
L 48.898637 82.133281 
L 49.021791 81.889448 
L 49.321781 81.869601 
L 49.665979 81.917801 
L 49.931233 81.895119 
L 51.045932 81.481171 
L 53.322696 81.106916 
L 54.459499 80.471817 
L 55.308944 80.763849 
L 56.088917 79.760167 
L 57.39624 77.097856 
L 58.286736 77.664908 
L 58.855138 76.885211 
L 59.290912 75.975092 
L 59.780369 76.145208 
L 59.556166 76.70659 
L 59.101445 77.57418 
" clip-path="url(#p7bfd1f958a)" style="fill: none; stroke: #000000; stroke-width: 2"/>
    <path d="M 147.52262 51.835673 
L 147.800506 52.680581 
L 147.770451 53.4164 
L 147.483764 54.011361 
L 146.620887 53.837691 
L 145.703404 53.518827 
L 142.729101 54.217293 
L 143.354342 54.736146 
L 143.799478 55.773318 
L 143.68059 56.902957 
L 142.751866 57.907877 
L 142.222237 58.755171 
L 141.897089 59.694948 
L 141.264517 60.447531 
L 140.064311 60.726552 
L 139.290479 60.111771 
L 138.275898 58.230655 
L 136.907001 57.977092 
L 135.830713 57.421365 
L 135.144098 56.774699 
L 134.518856 56.077225 
L 134.518856 55.640595 
L 135.816171 55.364382 
L 137.090408 54.150907 
L 138.073594 53.289438 
L 139.636122 53.195415 
L 140.536893 52.925013 
L 141.221359 52.171277 
L 144.100697 52.19034 
L 145.669 51.359349 
L 146.739489 51.333832 
L 147.187895 51.501113 
L 147.52262 51.835673 
" clip-path="url(#p7bfd1f958a)" style="fill: none; stroke: #000000; stroke-width: 2"/>
    <path d="M 119.209908 30.579716 
L 118.044685 34.761727 
L 119.127806 37.903197 
L 121.091949 40.789494 
L 122.550846 44.186137 
L 121.420358 47.251055 
L 121.439305 50.883026 
L 122.26033 58.022215 
L 121.597194 59.065591 
L 119.614105 60.500233 
L 118.6794 61.634338 
L 117.308921 64.452588 
L 116.689994 66.346543 
L 116.244747 69.34625 
L 115.281622 72.69753 
L 114.814269 73.806117 
L 114.170081 74.563132 
L 113.746938 74.690719 
L 111.915422 74.665201 
L 110.645991 75.016774 
L 107.396629 72.856304 
L 104.990396 70.301733 
L 103.389398 69.658129 
L 102.094706 68.353909 
L 101.134739 68.056206 
L 100.351608 68.490001 
L 99.252698 70.253534 
L 98.507461 70.434991 
L 99.227436 70.522884 
L 100.045303 69.485178 
L 100.727385 69.008854 
L 101.41894 68.671458 
L 102.221017 69.006019 
L 106.048255 72.975385 
L 107.317685 73.593472 
L 108.80816 74.931716 
L 109.660762 75.235089 
L 112.793286 75.311641 
L 113.516419 75.711413 
L 112.426983 77.046821 
L 112.190149 77.616709 
L 112.00384 78.538169 
L 111.659641 80.948141 
L 111.940684 82.087917 
L 112.363827 85.643335 
L 112.53119 88.444574 
L 112.805917 89.92458 
L 113.759569 92.878923 
L 114.466913 93.752184 
L 114.558489 94.211496 
L 114.024823 94.823913 
L 113.709044 94.846595 
L 112.306987 94.307895 
L 110.560731 94.307895 
L 109.951278 94.577245 
L 109.253408 95.257708 
L 108.599746 94.568739 
L 107.867139 94.024369 
L 107.027168 93.862759 
L 106.048255 94.307895 
L 105.183021 94.994028 
L 104.819876 95.138627 
L 104.194634 95.257708 
L 103.607286 95.544069 
L 102.410485 96.516564 
L 100.989481 97.026911 
L 99.230594 98.336802 
L 93.811832 99.110828 
L 93.811832 99.587152 
L 95.573877 99.899031 
L 101.399993 98.115651 
L 102.697843 97.313272 
L 103.266245 97.163004 
L 103.395714 97.012735 
L 103.493605 96.360624 
L 103.780964 96.210356 
L 104.096743 96.292578 
L 104.857769 96.729208 
L 105.274597 96.627139 
L 105.751423 96.346448 
L 106.146146 95.955182 
L 106.572447 94.557398 
L 107.185058 94.415635 
L 108.457645 94.823913 
L 108.163971 95.736867 
L 110.731252 96.230202 
L 112.344881 96.133803 
L 113.383792 95.498705 
L 114.312181 95.152803 
L 115.032157 96.68668 
L 115.221624 98.991747 
L 114.549015 100.97076 
L 111.934368 102.966784 
L 110.008119 105.132924 
L 109.660762 105.294534 
L 109.253408 108.195007 
L 109.547082 108.986045 
L 109.367088 109.986893 
L 108.928156 110.911188 
L 108.457645 111.47824 
L 109.651289 111.415864 
L 110.096537 111.04728 
L 110.04917 108.407652 
L 110.172323 106.49385 
L 110.563889 105.566719 
L 112.190149 104.341886 
L 113.475368 102.623718 
L 114.160608 102.164405 
L 114.959528 102.674752 
L 115.09847 103.117053 
L 115.344778 105.056372 
L 115.515298 105.286029 
L 116.664732 106.244347 
L 119.576211 107.90014 
L 122.743471 108.271559 
L 131.961049 106.82274 
L 133.249426 106.970174 
L 134.518856 107.673319 
L 135.096731 108.3311 
L 136.347214 110.525592 
L 138.753448 112.949741 
L 138.753448 113.383536 
L 137.853479 114.268138 
L 137.370337 115.872896 
L 137.177712 117.727157 
L 137.142977 119.371609 
L 136.716676 120.919662 
L 133.145219 126.014627 
L 131.335808 127.264978 
L 130.653726 128.217626 
L 130.445312 129.141921 
L 130.546361 131.308061 
L 130.003222 133.428837 
L 128.778001 133.68401 
L 127.426468 132.685998 
L 126.523341 131.069899 
L 127.521202 130.899783 
L 127.931714 130.522694 
L 128.133812 129.640927 
L 128.026447 128.710961 
L 127.634882 128.427435 
L 127.129636 128.336707 
L 126.665442 127.979464 
L 125.733895 127.644903 
L 124.77077 128.796019 
L 123.896063 130.315719 
L 122.651895 131.778715 
L 122.923465 133.400484 
L 123.435026 135.175358 
L 123.605547 136.349157 
L 123.226612 136.836822 
L 122.607686 137.140195 
L 121.947709 137.216747 
L 121.464567 137.038125 
L 121.073002 136.459732 
L 120.403551 134.443861 
L 120.713014 134.112135 
L 121.729822 133.491213 
L 121.451936 132.714351 
L 121.110895 132.342932 
L 119.50674 131.858102 
L 119.153068 131.926148 
L 118.287834 132.496036 
L 117.201556 132.70868 
L 116.532105 132.16431 
L 115.941599 131.18898 
L 115.104786 130.117251 
L 115.970019 130.029358 
L 117.267869 128.971805 
L 117.997318 128.69395 
L 118.546773 129.102227 
L 119.219381 129.828054 
L 119.882516 130.097404 
L 120.403551 129.12491 
L 119.746732 128.013487 
L 119.790941 127.145897 
L 120.927744 124.840829 
L 120.403551 124.849335 
L 119.844623 124.622514 
L 119.333062 124.208566 
L 118.944654 123.675536 
L 118.518353 123.38634 
L 117.514177 123.856993 
L 116.980511 123.414692 
L 116.835253 124.347493 
L 116.623681 124.928722 
L 116.28264 125.232095 
L 115.742659 125.317153 
L 115.458458 125.691408 
L 114.416388 127.979464 
L 113.469052 129.204297 
L 111.372282 130.939477 
L 110.431262 132.257874 
L 109.888123 133.890985 
L 110.147061 134.911679 
L 110.788092 135.864327 
L 111.394387 137.296134 
L 111.650168 139.059667 
L 111.48912 140.403581 
L 111.012295 141.622743 
L 110.311266 143.009186 
L 111.242813 142.549874 
L 111.924895 142.464816 
L 112.111204 142.958152 
L 111.138606 145.15548 
L 111.043873 146.045752 
L 111.072293 149.022777 
L 110.863879 150.14554 
L 109.932332 151.378879 
L 109.783916 151.872215 
L 109.594449 151.86938 
L 108.7229 152.578195 
L 108.457645 152.994978 
L 108.65027 153.1736 
L 108.931313 153.859733 
L 109.079729 154.596901 
L 108.043975 155.93798 
L 107.56715 155.810393 
L 107.204004 155.475833 
L 106.427189 154.058202 
L 106.146146 153.026166 
L 105.786158 152.566854 
L 105.293544 152.391068 
L 101.523147 152.566854 
L 101.021059 152.74264 
L 100.196876 153.990155 
L 99.189543 154.398433 
L 97.143297 154.273681 
L 96.199119 154.509008 
L 97.174875 155.606255 
L 102.726263 156.848099 
L 103.117829 157.159978 
L 102.978886 157.894311 
L 102.337856 159.314777 
L 102.015761 160.531104 
L 102.110495 161.066969 
L 102.650476 161.194556 
L 103.664126 161.169038 
L 103.664126 161.651033 
L 102.072602 162.572493 
L 101.608407 163.355025 
L 102.050497 164.503306 
L 101.545251 165.022159 
L 100.632651 164.443765 
L 96.369639 165.711128 
L 94.427601 166.774351 
L 93.281324 166.879255 
L 90.903511 165.926607 
L 89.17936 164.503306 
L 85.162656 164.480624 
L 84.253213 164.026982 
L 84.016379 164.696104 
L 83.987959 165.022159 
L 84.796352 165.41626 
L 87.587836 165.455954 
L 88.093081 165.770668 
L 90.101433 167.877268 
L 91.187712 169.998043 
L 91.958212 170.210688 
L 95.668611 170.210688 
L 95.033896 171.007397 
L 93.019228 172.629166 
L 91.939265 174.046797 
L 91.415073 174.412546 
L 90.511946 174.534462 
L 90.183536 174.835 
L 89.968806 176.436923 
L 87.52468 177.063516 
L 86.6405 177.715626 
L 86.103676 177.865895 
L 85.636324 177.75532 
L 84.764775 177.369724 
L 84.253213 177.389571 
L 84.518467 177.865895 
L 83.956381 178.679615 
L 82.519588 179.161609 
L 81.865927 179.771191 
L 82.548009 180.210656 
L 83.277457 180.162457 
L 85.187918 179.65211 
L 85.914209 179.32889 
L 88.156237 180.570735 
L 88.314126 181.356102 
L 88.146764 182.30875 
L 87.720463 183.142317 
L 87.189954 183.513736 
L 85.876315 183.785921 
L 85.307914 184.09213 
L 85.51317 184.866156 
L 86.128938 186.473749 
L 86.021574 187.256282 
L 85.794213 187.860193 
L 85.854211 188.379045 
L 86.6405 188.892228 
L 87.120483 189.348705 
L 87.578362 189.995145 
L 87.6952 190.678443 
L 87.164692 191.228484 
L 87.164692 191.747336 
L 87.562573 192.209484 
L 88.999366 194.738538 
L 89.476192 194.948347 
L 89.937229 195.404824 
L 90.101433 196.547435 
L 89.956175 197.361155 
L 89.425667 198.475413 
L 89.305671 199.598176 
L 89.097257 200.108523 
L 88.598327 200.465766 
L 87.455209 200.746457 
L 85.175287 200.312662 
L 84.651094 200.460096 
L 84.073219 201.293663 
L 83.722705 201.741634 
L 82.219599 202.592213 
L 81.723826 202.688612 
L 81.411205 202.989149 
L 81.411205 203.604401 
L 81.7333 204.114748 
L 82.40275 204.114748 
L 82.40275 204.593908 
L 81.259632 204.554214 
L 80.729124 204.693142 
L 80.255456 205.115596 
L 80.647021 205.416133 
L 81.13332 205.535214 
L 82.254334 205.546555 
L 82.769054 205.801729 
L 83.33114 206.428322 
L 84.253213 207.92534 
L 83.249037 209.289101 
L 82.585902 209.935541 
L 81.865927 210.343818 
L 80.094409 210.715238 
L 79.39338 211.259608 
L 79.724948 212.246279 
L 80.204931 212.260455 
L 82.40275 211.341831 
L 83.722705 211.341831 
L 84.278475 210.780449 
L 84.60057 210.477076 
L 85.04266 210.343818 
L 85.882631 210.712402 
L 87.445735 212.501453 
L 88.250971 213.198927 
L 90.382476 213.794332 
L 90.903511 214.194104 
L 91.200343 215.209128 
L 92.090839 221.02425 
L 91.71822 221.330458 
L 91.140345 221.347469 
L 90.594048 221.007238 
L 90.145642 220.942027 
L 89.836179 221.806782 
L 90.322479 221.974062 
L 90.783515 222.2746 
L 91.168765 222.688548 
L 91.427704 223.193225 
L 91.57612 223.780124 
L 91.651907 224.588174 
L 91.484544 225.30266 
L 90.912985 225.614538 
L 90.461421 225.314001 
L 89.908809 224.00978 
L 89.570925 223.709242 
L 87.957297 223.833994 
L 87.455209 223.709242 
L 86.72576 223.261271 
L 86.779442 222.983415 
L 87.095221 222.716901 
L 87.164692 222.283106 
L 86.479453 221.2454 
L 86.223672 220.618807 
L 86.501557 220.335281 
L 87.537311 219.918497 
L 87.328897 219.118954 
L 86.403666 218.566078 
L 85.307914 218.91198 
L 85.093184 219.325928 
L 84.581623 220.743559 
L 83.722705 222.283106 
L 83.429031 222.38234 
L 82.800631 222.285941 
L 82.529062 222.521268 
L 81.865927 223.329317 
L 80.24914 224.758289 
L 79.724948 225.614538 
L 79.493703 227.104639 
L 78.920218 227.306283 
L 78.262514 227.227066 
L 77.480488 226.460099 
L 76.77867 226.625735 
L 76.353569 227.021821 
L 75.800135 227.180255 
L 75.423159 227.587144 
L 74.841652 227.698768 
L 72.010318 227.687966 
L 71.324541 227.399903 
L 71.039804 226.571723 
L 70.747046 224.897359 
L 70.097363 224.299629 
L 61.868045 222.283191 
L 58.82015 220.98691 
L 55.720119 220.432389 
L 54.813771 220.57642 
L 52.170925 221.606244 
L 50.739216 221.54143 
L 49.378621 221.100802 
L 49.688084 219.901486 
L 49.400725 219.427997 
L 49.92176 217.502854 
L 49.59335 215.733651 
L 48.974424 214.015482 
L 48.608121 212.246279 
L 48.756537 209.992246 
L 49.211258 208.126644 
L 49.770186 206.41131 
L 50.196487 204.593908 
L 46.069261 203.834057 
L 45.608224 203.885092 
L 45.462966 204.463485 
L 45.365074 207.159819 
L 45.121925 207.508557 
L 44.74299 207.585109 
L 43.713552 208.943199 
L 43.113573 209.306113 
L 42.513593 209.16435 
L 41.983085 208.398829 
L 41.540995 206.666484 
L 41.594677 204.99935 
L 41.837827 203.312369 
L 41.983085 201.503472 
L 42.709376 200.136876 
L 44.323005 199.887373 
L 45.95558 200.380709 
L 46.776605 201.26531 
L 46.25557 201.407073 
L 45.835585 201.767152 
L 45.159818 202.688612 
L 45.279814 203.468309 
L 47.591314 203.817046 
L 49.707031 204.335899 
L 50.490162 204.009844 
L 50.401744 202.685776 
L 49.688084 200.312662 
L 49.189154 197.327132 
L 48.898637 194.347271 
L 48.974424 193.547728 
L 49.321781 192.566727 
L 49.400725 191.965652 
L 49.334412 191.075379 
L 48.898637 189.328858 
L 48.548123 186.184553 
L 48.263922 184.69604 
L 47.704994 183.360632 
L 46.729238 182.569594 
L 45.336654 182.220857 
L 42.750427 182.149975 
L 40.884176 181.5489 
L 39.302125 180.03487 
L 35.781193 174.667719 
L 35.812771 174.174384 
L 36.633795 174.018445 
L 36.633795 173.581814 
L 35.888558 173.272771 
L 34.998062 173.196219 
L 34.129671 173.425875 
L 33.457062 174.018445 
L 33.011814 174.999445 
L 33.128652 175.654391 
L 34.281244 176.913247 
L 33.684423 177.16842 
L 33.191808 177.865895 
L 34.088619 178.033175 
L 35.14332 178.733485 
L 36.0275 179.774026 
L 36.393803 180.979012 
L 35.894873 181.174645 
L 31.249769 177.227961 
L 30.302434 176.660909 
L 28.028827 176.232784 
L 27.432006 175.617532 
L 27.384639 174.582662 
L 29.566669 168.637118 
L 30.299276 165.940784 
L 30.785575 163.074334 
L 30.851888 160.250413 
L 28.808801 145.858625 
L 28.69512 145.714026 
L 28.69512 145.059081 
L 28.808801 144.911647 
L 29.042477 144.991034 
L 29.5793 145.796249 
L 30.545583 151.140717 
L 31.240296 152.986473 
L 31.341345 153.757664 
L 31.249769 154.42395 
L 30.870835 155.379434 
L 30.785575 156.156295 
L 30.918202 157.111779 
L 31.249769 157.307412 
L 32.992867 156.31507 
L 34.846488 154.823722 
L 35.721195 154.509008 
L 37.233775 153.301187 
L 38.78109 151.65957 
L 38.998977 150.525465 
L 38.749512 149.317644 
L 38.206373 148.138175 
L 37.587447 147.074952 
L 36.134865 145.169656 
L 36.134865 143.009186 
L 35.692775 140.508486 
L 34.694914 138.909398 
L 33.349697 137.936903 
L 30.356116 136.561801 
L 29.544565 136.451226 
L 29.194051 137.038125 
L 29.16563 141.42711 
L 28.928796 143.009186 
L 29.070897 144.168809 
L 28.96669 144.61678 
L 28.398288 144.435323 
L 28.237241 144.066739 
L 27.92462 142.501675 
L 27.747784 137.446403 
L 27.86778 135.872833 
L 28.805643 131.51787 
L 28.928796 129.879089 
L 28.486706 105.756682 
L 28.928796 103.389238 
L 30.671894 97.367142 
L 31.458183 95.498705 
L 32.036058 94.597092 
L 32.272892 94.781384 
L 32.427624 95.390965 
L 32.784454 95.736867 
L 32.756034 96.230202 
L 31.581337 99.110828 
L 31.581337 99.587152 
L 32.083425 99.952901 
L 32.784454 100.020947 
L 32.917081 100.31865 
L 33.27391 101.662564 
L 33.589689 101.963102 
L 35.181213 102.249463 
L 35.607515 102.541495 
L 35.048586 102.876056 
L 35.190687 103.516825 
L 35.08648 104.639589 
L 35.31384 105.294534 
L 35.664355 105.569555 
L 35.967502 105.393768 
L 36.078025 104.923115 
L 35.844349 104.341886 
L 35.844349 103.865562 
L 37.066412 103.46579 
L 38.95161 103.414756 
L 40.675762 103.766328 
L 41.427315 104.580048 
L 41.787302 104.696294 
L 43.707237 106.244347 
L 44.24406 106.000514 
L 44.74299 105.396604 
L 45.450335 103.865562 
L 45.690326 103.865562 
L 46.865023 107.14029 
L 46.896601 107.673319 
L 46.748185 107.968186 
L 46.808183 108.625967 
L 47.060806 109.278077 
L 47.695521 109.788424 
L 48.453389 110.769425 
L 48.898637 111.04728 
L 49.561772 111.035939 
L 52.185893 110.398005 
L 52.394307 110.049268 
L 52.583774 108.864129 
L 52.643772 107.157301 
L 53.038495 105.328557 
L 53.243751 105.166947 
L 53.325854 104.940127 
L 53.133229 104.341886 
L 51.930112 103.389238 
L 51.541704 103.35238 
L 51.24803 103.1851 
L 51.071194 102.827857 
L 51.014354 102.223946 
L 50.840676 101.605859 
L 50.180699 101.254286 
L 50.196487 100.5398 
L 50.711207 100.071982 
L 52.485883 99.952901 
L 54.990007 95.736867 
L 55.574198 95.3938 
L 57.16888 94.900465 
L 59.309859 94.806901 
L 59.385646 94.653797 
L 58.457257 94.307895 
L 56.761525 94.25119 
L 56.363644 93.862759 
L 56.723632 92.620914 
L 57.292033 91.529338 
L 57.75307 90.939604 
L 58.987765 90.02665 
L 60.822439 88.246105 
L 61.542414 88.078825 
L 61.965557 88.163883 
L 62.682375 88.51829 
L 63.118149 88.603348 
L 63.57287 88.478597 
L 64.308635 87.602501 
L 64.990717 87.576983 
L 65.881212 87.86618 
L 66.651712 88.444574 
L 66.98328 89.289482 
L 67.213798 90.919757 
L 67.756937 91.886581 
L 68.382179 92.569879 
L 68.859005 93.355247 
L 69.370566 94.823913 
L 68.290603 95.090427 
L 67.150642 96.899324 
L 66.165413 97.163004 
L 66.165413 97.681856 
L 66.323302 98.316955 
L 65.903317 98.932207 
L 64.842301 100.020947 
L 64.479155 101.007618 
L 64.434946 101.889385 
L 64.595993 104.103724 
L 64.889667 104.775681 
L 65.52754 104.662271 
L 66.165413 103.916597 
L 66.68329 101.637047 
L 67.258007 101.481107 
L 67.959036 101.620035 
L 68.571646 101.486778 
L 68.328497 100.820491 
L 68.015876 100.573823 
L 67.643257 100.658881 
L 67.248534 100.97076 
L 67.845355 99.66654 
L 68.116925 99.065464 
L 68.306392 98.115651 
L 68.571646 98.115651 
L 68.33797 99.680716 
L 69.351619 99.918878 
L 70.73473 99.680716 
L 71.606279 99.799797 
L 72.133629 100.15704 
L 72.724135 100.037959 
L 73.257801 100.091829 
L 73.611473 100.97076 
L 73.497793 101.654058 
L 72.607297 102.949773 
L 72.253625 103.865562 
L 72.676768 104.035678 
L 73.049387 105.294534 
L 73.428322 105.677295 
L 74.40092 106.244347 
L 74.817748 107.208336 
L 75.196682 107.242359 
L 75.992444 105.728329 
L 76.541899 106.238676 
L 77.015567 105.682965 
L 77.002936 104.801199 
L 76.134545 104.341886 
L 74.931428 105.056372 
L 74.855641 105.269017 
L 74.678805 105.331393 
L 74.268293 105.294534 
L 73.936725 105.104572 
L 73.914621 104.701965 
L 74.135666 104.341886 
L 74.205137 101.753292 
L 74.84301 99.524777 
L 75.187209 97.537258 
L 74.40092 95.736867 
L 73.819887 95.152803 
L 73.049387 95.257708 
L 71.489441 95.972194 
L 71.104191 96.516564 
L 70.26422 97.052428 
L 69.443195 97.103463 
L 69.102154 96.210356 
L 69.537929 95.368283 
L 71.325236 94.288048 
L 71.950478 92.141755 
L 71.871533 91.65976 
L 70.902093 91.319529 
L 70.504211 90.973627 
L 69.901074 90.02665 
L 69.474773 88.861357 
L 69.329515 88.030625 
L 69.370566 87.168706 
L 69.569507 86.93905 
L 70.561052 85.223716 
L 70.744203 84.863638 
L 70.712625 84.055588 
L 70.529474 83.256044 
L 70.283166 82.890296 
L 69.828445 82.796732 
L 69.484246 82.55857 
L 68.859005 81.895119 
L 69.582138 80.154268 
L 70.308429 78.773496 
L 71.094717 77.647897 
L 72.569404 76.26996 
L 73.403059 75.924058 
L 73.7441 74.716236 
L 79.497587 72.816611 
L 80.779648 72.856304 
L 85.307914 74.716236 
L 85.307914 75.235089 
L 84.812141 75.561144 
L 84.777406 75.992104 
L 85.077395 76.400381 
L 85.59843 76.664061 
L 86.128938 76.615861 
L 86.507873 76.255783 
L 87.922561 74.044279 
L 88.563592 72.785423 
L 89.274093 71.790246 
L 90.796146 71.23737 
L 92.078208 70.434991 
L 93.934986 70.911315 
L 98.074844 70.434991 
L 95.779133 68.336897 
L 94.617068 67.905937 
L 93.830779 67.253827 
L 93.413951 67.103558 
L 93.101331 67.273674 
L 91.737167 69.096747 
L 90.991929 69.862268 
L 90.164589 70.247863 
L 89.438298 69.697823 
L 88.73727 69.000348 
L 87.998348 69.195981 
L 86.6405 70.434991 
L 85.077395 71.08143 
L 81.708037 71.132465 
L 72.828342 74.279606 
L 72.061 74.353323 
L 71.325236 74.027267 
L 66.98328 70.434991 
L 67.229587 71.353616 
L 66.916966 71.824269 
L 65.638063 72.340287 
L 64.194954 73.281594 
L 63.538135 73.292935 
L 63.781284 72.856304 
L 63.083414 72.414003 
L 62.413963 72.561437 
L 61.750828 73.088796 
L 61.109797 73.806117 
L 60.481398 73.738071 
L 59.685635 74.506427 
L 59.009869 75.339994 
L 58.722511 75.473251 
L 58.390943 74.54045 
L 57.620443 74.180372 
L 56.736263 74.273935 
L 56.073128 74.716236 
L 56.641529 75.320147 
L 55.233157 76.615861 
L 53.306907 77.619544 
L 51.923797 77.216937 
L 51.014354 77.41257 
L 50.104912 77.823683 
L 49.688084 78.32836 
L 49.476512 79.677944 
L 48.955477 80.50017 
L 48.342867 81.123928 
L 47.837621 81.895119 
L 47.506054 84.642487 
L 47.070279 85.280421 
L 45.838742 87.168706 
L 44.964035 87.245258 
L 44.547208 87.440891 
L 44.370372 87.840663 
L 44.079855 88.121354 
L 43.441982 88.376527 
L 42.80411 88.852851 
L 42.513593 89.765806 
L 42.845161 92.127579 
L 42.807267 93.233331 
L 42.223077 93.876935 
L 42.223077 94.307895 
L 43.77355 94.151956 
L 44.13038 94.307895 
L 44.420896 95.155638 
L 44.18722 95.748208 
L 43.681974 96.09978 
L 43.176728 96.210356 
L 42.722007 96.065757 
L 41.812565 95.410812 
L 41.310477 95.257708 
L 40.846282 95.3938 
L 40.069467 96.023228 
L 39.576852 96.210356 
L 39.576852 96.729208 
L 41.427315 96.210356 
L 41.983085 96.388977 
L 42.797794 97.024076 
L 43.176728 97.163004 
L 45.914529 95.980699 
L 46.486089 96.210356 
L 46.593453 96.720703 
L 46.486089 98.634504 
L 47.070279 99.5588 
L 47.332375 100.225086 
L 46.359777 101.739116 
L 45.838742 101.963102 
L 45.289288 102.04816 
L 44.948247 102.26931 
L 44.964035 102.564177 
L 45.450335 102.876056 
L 44.664046 102.893068 
L 43.584083 101.900726 
L 42.633589 100.624858 
L 42.223077 99.799797 
L 41.869405 98.762091 
L 40.997856 97.925689 
L 39.90842 97.367142 
L 38.913717 97.163004 
L 38.225319 96.797255 
L 37.404295 95.912653 
L 36.640111 94.835254 
L 36.134865 93.876935 
L 35.702248 91.364893 
L 35.455941 90.979298 
L 34.92859 90.797841 
L 33.835996 90.077684 
L 33.191808 90.02665 
L 33.750736 92.595397 
L 33.949677 94.100921 
L 33.854943 95.045063 
L 33.277068 95.141462 
L 32.983394 93.675632 
L 32.901292 90.460445 
L 33.356013 87.585489 
L 34.227562 85.439196 
L 41.187323 74.239912 
L 43.277778 72.102125 
L 46.486089 67.103558 
L 47.717625 65.955277 
L 49.107051 65.980795 
L 52.340624 67.103558 
L 54.156352 67.214133 
L 57.664652 66.425931 
L 59.224599 65.637728 
L 61.087693 63.60768 
L 61.782406 63.295802 
L 71.489441 64.68508 
L 75.016688 64.271132 
L 78.531304 62.989593 
L 81.856453 60.78943 
L 84.783721 57.591255 
L 93.132908 42.513333 
L 94.607595 40.378381 
L 97.28224 37.477908 
L 98.621141 34.977207 
L 99.13586 34.625635 
L 100.061092 33.310073 
L 101.939974 32.944324 
L 105.520904 33.199498 
L 109.010258 32.62394 
L 112.190149 31.251673 
L 114.946896 29.295342 
L 119.67726 24.55762 
L 122.26033 22.686347 
L 123.308715 22.295081 
L 124.47078 22.176 
L 125.594952 22.431174 
L 126.523341 23.162671 
L 124.407624 23.936698 
L 122.392957 25.816476 
L 119.209908 30.579716 
L 119.209908 30.579716 
" clip-path="url(#p7bfd1f958a)" style="fill: none; stroke: #000000; stroke-width: 2"/>
   </g>
  </g>
 </g>
 <defs>
  <clipPath id="p7bfd1f958a">
   <rect x="0" y="-0" width="328.615667" height="266.112"/>
  </clipPath>
 </defs>
</svg>
