<?xml version="1.0" encoding="utf-8" standalone="no"?>
<!DOCTYPE svg PUBLIC "-//W3C//DTD SVG 1.1//EN"
  "http://www.w3.org/Graphics/SVG/1.1/DTD/svg11.dtd">
<svg xmlns:xlink="http://www.w3.org/1999/xlink" width="357.12pt" height="245.05639pt" viewBox="0 0 357.12 245.05639" xmlns="http://www.w3.org/2000/svg" version="1.1">
 <metadata>
  <rdf:RDF xmlns:dc="http://purl.org/dc/elements/1.1/" xmlns:cc="http://creativecommons.org/ns#" xmlns:rdf="http://www.w3.org/1999/02/22-rdf-syntax-ns#">
   <cc:Work>
    <dc:type rdf:resource="http://purl.org/dc/dcmitype/StillImage"/>
    <dc:date>2024-02-02T21:58:01.078213</dc:date>
    <dc:format>image/svg+xml</dc:format>
    <dc:creator>
     <cc:Agent>
      <dc:title>Matplotlib v3.8.2, https://matplotlib.org/</dc:title>
     </cc:Agent>
    </dc:creator>
   </cc:Work>
  </rdf:RDF>
 </metadata>
 <defs>
  <style type="text/css">*{stroke-linejoin: round; stroke-linecap: butt}</style>
 </defs>
 <g id="figure_1">
  <g id="patch_1">
   <path d="M 0 245.05639 
L 357.12 245.05639 
L 357.12 0 
L 0 0 
L 0 245.05639 
z
" style="fill: none"/>
  </g>
  <g id="axes_1">
   <g id="PatchCollection_1">
    <path d="M 70.378685 224.14871 
L 68.997101 224.635024 
L 67.648411 223.860395 
L 67.631964 222.022823 
L 68.372098 219.876094 
L 69.273418 218.170522 
L 70.41487 218.820098 
L 71.576059 219.674622 
L 73.635278 221.671983 
L 72.388562 222.067981 
L 70.378685 224.14871 
" clip-path="url(#pde69d697b0)" style="fill: none; stroke: #000000; stroke-width: 2"/>
    <path d="M 296.465137 170.869541 
L 300.241468 171.383644 
L 304.419117 171.258592 
L 305.517805 171.651117 
L 306.333598 172.745323 
L 307.238207 174.423106 
L 307.830315 175.961943 
L 307.695446 176.632361 
L 306.468467 176.357941 
L 303.859904 175.156051 
L 302.501346 174.881631 
L 301.06055 175.058788 
L 298.557251 175.861206 
L 297.182245 176.048785 
L 294.340128 175.288051 
L 292.317093 173.447005 
L 291.014457 171.154382 
L 290.307217 169.049337 
L 291.50788 168.691549 
L 292.925649 168.965969 
L 294.33026 169.660703 
L 295.530922 170.536068 
L 296.465137 170.869541 
" clip-path="url(#pde69d697b0)" style="fill: none; stroke: #000000; stroke-width: 2"/>
    <path d="M 114.132154 23.919353 
L 115.691371 24.551561 
L 116.293347 24.551561 
L 115.691371 22.755673 
L 119.602571 23.391355 
L 120.753891 23.27325 
L 123.142059 22.713989 
L 124.069695 22.755673 
L 125.06312 23.422618 
L 128.619055 27.66397 
L 128.915109 28.476809 
L 128.484186 29.268806 
L 131.530251 29.289648 
L 132.69473 29.862804 
L 135.77369 32.447216 
L 138.704623 33.937421 
L 141.819767 35.031627 
L 145.425045 35.57352 
L 150.306644 35.61173 
L 150.71454 35.365099 
L 151.129016 34.791944 
L 152.105993 34.118051 
L 153.211261 33.551843 
L 154.023764 33.298265 
L 157.178383 34.291735 
L 165.063283 42.621599 
L 166.405394 43.576858 
L 167.879084 44.327171 
L 169.536986 44.82738 
L 173.224501 45.219905 
L 176.188329 46.289795 
L 181.615983 47.359686 
L 182.826514 47.338844 
L 183.635728 47.036635 
L 184.356125 46.414848 
L 187.306795 43.264228 
L 188.836407 42.552125 
L 193.316688 42.621599 
L 195.510776 42.409705 
L 196.504201 42.534757 
L 197.73447 43.260754 
L 200.49106 46.178638 
L 201.359484 48.162104 
L 201.313432 50.329675 
L 199.987768 55.022605 
L 201.606196 55.703445 
L 202.22133 57.217965 
L 202.198304 61.115424 
L 202.395673 62.810576 
L 202.912122 64.165308 
L 208.297013 72.224225 
L 211.020708 74.881583 
L 213.787167 76.007053 
L 215.425331 75.736107 
L 218.563502 74.530743 
L 220.18193 74.259796 
L 223.820103 74.110428 
L 225.431951 73.766535 
L 227.086563 73.092643 
L 229.474731 71.494754 
L 230.399077 71.293281 
L 231.234607 71.473912 
L 232.948429 72.318014 
L 234.010934 72.505592 
L 235.968179 72.015805 
L 237.287263 71.942858 
L 237.724765 72.047068 
L 238.043845 72.307593 
L 238.175425 72.800854 
L 238.432005 73.217695 
L 238.991217 73.057906 
L 239.879379 72.505592 
L 244.570188 74.423059 
L 245.951772 75.423476 
L 246.86625 73.572009 
L 248.353098 72.203383 
L 252.024165 70.174759 
L 254.386017 69.452235 
L 254.94523 70.438758 
L 254.320227 72.474329 
L 253.129433 74.892004 
L 254.741282 75.486002 
L 256.563658 75.475581 
L 258.333402 75.017057 
L 259.800513 74.259796 
L 260.280778 76.132105 
L 259.228142 77.601468 
L 257.777478 78.935358 
L 257.043923 80.404721 
L 256.695237 81.950504 
L 255.754444 83.343447 
L 254.343254 84.364706 
L 252.576799 84.802388 
L 246.231379 83.635235 
L 239.280692 84.166707 
L 237.642528 83.697761 
L 234.645805 82.200609 
L 224.339842 80.922298 
L 223.178653 81.241875 
L 222.734572 82.384713 
L 222.471413 86.445435 
L 221.866147 89.912159 
L 222.116148 91.211312 
L 223.892471 92.493097 
L 228.353016 91.808783 
L 229.892496 92.378465 
L 231.813556 91.760152 
L 235.616204 93.239936 
L 237.622791 93.014147 
L 237.129368 92.586886 
L 236.481339 92.197835 
L 235.708309 91.90952 
L 234.813569 91.794889 
L 234.813569 91.211312 
L 239.129376 90.98205 
L 240.38596 91.211312 
L 241.820176 92.267308 
L 242.932023 94.88993 
L 244.29716 95.928557 
L 245.678745 96.296767 
L 248.458361 96.64066 
L 259.076826 99.520334 
L 260.353147 99.430018 
L 261.87289 98.568548 
L 261.369598 97.943287 
L 260.363015 97.338868 
L 260.353147 96.512134 
L 261.803811 96.098767 
L 263.066974 97.245079 
L 264.767639 100.013595 
L 265.866327 100.65275 
L 267.090017 101.020959 
L 268.136073 101.479484 
L 268.682128 102.39306 
L 269.649238 101.601063 
L 271.62293 100.687487 
L 272.550565 100.013595 
L 271.932142 99.325808 
L 272.228195 99.159072 
L 272.955172 99.13823 
L 273.649254 98.895073 
L 274.751232 97.665393 
L 275.070312 97.641077 
L 277.968351 97.797393 
L 279.662436 98.141286 
L 281.182179 98.686652 
L 282.530869 99.430018 
L 282.685475 99.666228 
L 282.754554 100.298436 
L 283.083503 100.590224 
L 284.886142 101.146012 
L 287.777601 101.757378 
L 289.58353 101.826851 
L 290.451954 102.188113 
L 291.853276 103.077373 
L 293.294071 103.195478 
L 294.123022 103.508108 
L 303.517797 112.26176 
L 306.971759 116.471849 
L 311.846779 120.202572 
L 315.340214 122.648037 
L 316.853378 123.433086 
L 320.504709 126.969284 
L 325.129728 129.789905 
L 327.36 133.207997 
L 326.919209 136.556616 
L 319.320493 148.172573 
L 318.25141 149.214674 
L 318.004699 150.027513 
L 318.152725 152.994028 
L 318.004699 153.841604 
L 317.086932 155.290125 
L 315.754689 155.974438 
L 314.08363 156.175911 
L 312.162569 156.175911 
L 310.6823 155.675703 
L 307.47834 153.556763 
L 306.313861 153.205922 
L 304.978329 154.105603 
L 305.188857 155.477703 
L 305.619779 157.103382 
L 304.932277 158.770744 
L 303.938852 160.104633 
L 303.310559 161.650417 
L 302.063844 166.617767 
L 301.613184 167.50008 
L 300.695417 167.833552 
L 293.859863 168.378918 
L 292.46512 167.882183 
L 292.280909 164.755879 
L 290.313796 160.622211 
L 287.622995 156.603173 
L 285.241407 153.841604 
L 282.705212 152.076979 
L 279.346646 150.642353 
L 275.965053 150.159513 
L 272.067011 151.767823 
L 266.175539 152.042243 
L 264.645928 151.767823 
L 261.10315 150.562459 
L 259.49788 150.29846 
L 258.103138 149.839935 
L 255.764312 147.8391 
L 253.978121 147.380576 
L 252.418904 147.707101 
L 250.833371 148.248994 
L 249.231391 148.360151 
L 247.609674 147.380576 
L 245.918877 148.954149 
L 235.415545 149.766988 
L 232.277374 150.930668 
L 230.619473 150.972352 
L 226.195112 147.894679 
L 224.405631 146.935946 
L 223.218127 146.796999 
L 222.704967 147.595943 
L 222.892467 149.516884 
L 222.668782 150.29846 
L 221.945095 150.538143 
L 220.810222 150.534669 
L 219.767455 150.333196 
L 219.310216 150.027513 
L 217.951658 147.700153 
L 217.306918 147.074893 
L 216.704942 146.880367 
L 204.247654 145.504793 
L 201.64567 145.629845 
L 200.339743 146.018897 
L 197.800259 147.255524 
L 195.708146 148.679729 
L 194.915379 149.061833 
L 192.764054 149.766988 
L 190.898915 150.722247 
L 189.092987 152.334031 
L 187.731139 154.487707 
L 187.194953 157.051277 
L 186.76732 157.746011 
L 184.908759 158.732533 
L 184.484415 159.354321 
L 184.155467 160.295685 
L 181.425192 162.852307 
L 179.461369 165.127562 
L 178.352811 166.082822 
L 177.859388 165.846612 
L 175.898854 165.902191 
L 174.392269 166.159242 
L 173.392265 166.721977 
L 171.964627 165.836191 
L 170.444884 165.51314 
L 160.099447 165.554824 
L 158.362598 166.107137 
L 155.036927 168.003762 
L 153.148761 168.417129 
L 147.546764 168.403234 
L 146.247417 167.882183 
L 146.135574 167.149239 
L 146.721103 166.576083 
L 147.477685 166.075874 
L 147.852687 165.554824 
L 147.622422 164.630827 
L 147.073078 164.123671 
L 146.503997 163.797146 
L 145.892152 162.959991 
L 144.346093 161.949153 
L 143.994118 161.157156 
L 144.191487 160.30958 
L 144.668463 159.920529 
L 145.217807 159.625267 
L 145.642151 159.038216 
L 146.017153 157.322223 
L 146.066495 155.519387 
L 145.846099 153.938867 
L 145.39544 152.917608 
L 143.619117 150.680563 
L 142.550033 149.912882 
L 140.678315 149.183411 
L 139.082914 148.808255 
L 137.066458 148.651939 
L 135.339477 149.120885 
L 134.609211 150.61109 
L 134.885528 152.396557 
L 134.68158 153.112133 
L 132.280254 155.498545 
L 131.619067 155.925807 
L 130.747353 156.175911 
L 129.803271 156.141175 
L 128.122343 155.613177 
L 127.378919 155.54023 
L 126.753916 155.78686 
L 125.628911 156.585805 
L 124.872329 156.759488 
L 123.846009 156.627489 
L 123.487455 156.849804 
L 122.464425 157.926642 
L 121.642053 159.691267 
L 120.155205 160.254001 
L 118.00388 162.824518 
L 116.855849 163.512305 
L 114.938078 163.751988 
L 114.161759 163.4602 
L 113.658468 162.768939 
L 113.234124 161.914416 
L 112.707806 161.157156 
L 111.862408 160.518 
L 111.003852 160.142844 
L 107.497258 159.375163 
L 105.872252 159.3439 
L 104.609089 159.854529 
L 103.931454 161.876206 
L 103.214346 163.123254 
L 103.043293 164.07504 
L 103.197899 165.169246 
L 103.592637 165.770191 
L 104.128823 166.315558 
L 104.701194 167.253449 
L 106.020279 171.897747 
L 106.444622 172.693218 
L 106.45778 173.711004 
L 104.885406 176.114784 
L 103.543295 179.546771 
L 95.891948 190.808414 
L 94.885365 193.427562 
L 94.118914 193.962507 
L 92.510355 194.806609 
L 91.51693 195.650711 
L 90.806401 196.484392 
L 90.253767 197.516073 
L 89.747186 198.936804 
L 88.918235 198.579016 
L 88.592576 198.304596 
L 88.345864 199.141751 
L 88.039942 199.412697 
L 88.592576 199.412697 
L 88.266916 200.131747 
L 87.845862 200.680587 
L 87.329413 201.038375 
L 86.687963 201.163428 
L 86.391909 201.514268 
L 85.865591 203.216367 
L 85.556379 203.834681 
L 84.569533 205.269307 
L 81.845838 213.293487 
L 81.010308 214.853166 
L 77.668189 219.577359 
L 76.858975 219.195255 
L 76.161604 218.52831 
L 76.12213 218.170522 
L 75.332653 217.482735 
L 69.77342 208.225401 
L 68.421441 206.749091 
L 65.701035 205.686147 
L 59.243771 206.561513 
L 56.480602 205.877199 
L 57.260211 205.269307 
L 59.839169 202.570264 
L 60.391802 201.479532 
L 60.273381 199.64196 
L 59.934564 198.349754 
L 58.687848 195.91471 
L 57.812844 194.573873 
L 57.641791 194.080612 
L 57.58587 193.055879 
L 58.138504 189.825365 
L 57.536528 188.33516 
L 56.115469 186.678218 
L 53.164799 184.208438 
L 48.645044 182.488971 
L 49.612186 179.907374 
L 49.904622 178.4295 
L 49.724983 175.950202 
L 49.779292 174.529679 
L 49.587121 173.574576 
L 48.71817 171.128364 
L 48.597018 170.321049 
L 48.822611 168.640243 
L 49.461791 167.03664 
L 54.053027 159.098034 
L 53.877566 158.850986 
L 53.133944 158.182634 
L 51.980913 157.417228 
L 47.636159 155.771715 
L 44.586475 153.726956 
L 43.930584 152.965962 
L 42.702356 151.141781 
L 42.021399 150.535191 
L 38.867274 149.738904 
L 37.655756 149.068346 
L 37.171149 147.489007 
L 37.476117 146.55155 
L 38.081876 146.203036 
L 38.512174 145.735411 
L 38.311647 144.453852 
L 37.789441 143.64433 
L 30.478556 136.115999 
L 29.76 134.719739 
L 31.151157 133.667582 
L 34.154886 133.030111 
L 40.233365 134.157265 
L 43.362424 133.08305 
L 44.415192 131.947072 
L 46.077896 129.099409 
L 47.388378 127.730797 
L 50.113504 126.037784 
L 51.245647 125.104739 
L 52.214862 123.514371 
L 52.766311 122.07179 
L 53.163188 120.494656 
L 53.28434 118.891053 
L 52.632626 115.53606 
L 52.549073 112.075189 
L 52.102065 110.49585 
L 51.500484 109.723826 
L 49.649785 108.025375 
L 48.910342 107.154091 
L 47.765666 104.736555 
L 47.026222 104.136583 
L 45.133747 104.072615 
L 43.124298 104.760819 
L 41.674654 104.988014 
L 41.436528 103.507935 
L 42.831863 102.563861 
L 46.980268 101.443324 
L 48.041391 100.786001 
L 51.546438 96.895003 
L 53.965296 93.500305 
L 55.189348 92.399621 
L 57.929885 90.432064 
L 58.949231 88.921104 
L 59.362818 87.454259 
L 59.730452 82.363316 
L 53.472334 79.319338 
L 50.464427 76.244479 
L 49.023138 74.21516 
L 48.622084 72.512297 
L 49.152645 71.974086 
L 51.333378 70.730026 
L 52.102065 70.125642 
L 53.125589 67.52282 
L 53.572597 67.035342 
L 54.495858 65.074403 
L 54.550167 61.262813 
L 53.58513 54.588119 
L 51.325022 49.243511 
L 50.953212 47.304629 
L 51.166272 43.709206 
L 50.878014 42.198245 
L 50.164787 39.849609 
L 51.714135 40.190029 
L 53.164799 40.929921 
L 52.858877 39.24519 
L 51.42466 35.948676 
L 51.510187 34.465419 
L 49.339126 34.354261 
L 49.062809 33.444159 
L 49.937812 32.096375 
L 51.575977 30.446381 
L 51.990452 30.359539 
L 52.891772 30.383855 
L 53.441116 30.158066 
L 54.822701 28.633125 
L 57.210868 27.736917 
L 58.138504 26.885868 
L 57.58587 25.815977 
L 57.497054 24.860718 
L 57.924687 24.183352 
L 58.964165 23.919353 
L 59.589168 24.016616 
L 60.556277 24.454298 
L 61.1747 24.551561 
L 61.444438 24.37093 
L 62.006941 23.568512 
L 62.299705 23.391355 
L 70.60237 22.755673 
L 72.714221 23.050935 
L 74.799756 23.801248 
L 82.516893 27.799444 
L 84.78335 28.257968 
L 86.934674 27.420813 
L 88.56297 28.608809 
L 89.727449 29.143754 
L 93.3097 29.268806 
L 94.253783 29.008281 
L 94.474179 28.351757 
L 94.516942 27.483339 
L 94.944575 26.59408 
L 95.895237 26.22587 
L 96.576161 27.017868 
L 97.474191 29.268806 
L 98.582748 28.462915 
L 98.914986 27.983548 
L 99.132092 27.420813 
L 98.299852 27.101236 
L 98.286694 26.878921 
L 98.026825 26.302291 
L 99.293277 26.795553 
L 100.355782 26.7365 
L 101.438023 26.465554 
L 102.743949 26.302291 
L 103.5729 25.670083 
L 105.069617 22.859883 
L 106.056463 22.224201 
L 107.286731 21.911571 
L 109.908452 20.608944 
L 111.326221 20.421366 
L 112.632148 20.758312 
L 113.875574 21.487783 
L 114.546629 22.557674 
L 114.132154 23.919353 
L 114.132154 23.919353 
" clip-path="url(#pde69d697b0)" style="fill: none; stroke: #000000; stroke-width: 2"/>
   </g>
  </g>
 </g>
 <defs>
  <clipPath id="pde69d697b0">
   <rect x="0" y="0" width="357.12" height="245.05639"/>
  </clipPath>
 </defs>
</svg>
