<?xml version="1.0" encoding="utf-8" standalone="no"?>
<!DOCTYPE svg PUBLIC "-//W3C//DTD SVG 1.1//EN"
  "http://www.w3.org/Graphics/SVG/1.1/DTD/svg11.dtd">
<svg xmlns:xlink="http://www.w3.org/1999/xlink" width="267.723297pt" height="266.112pt" viewBox="0 0 267.723297 266.112" xmlns="http://www.w3.org/2000/svg" version="1.1">
 <metadata>
  <rdf:RDF xmlns:dc="http://purl.org/dc/elements/1.1/" xmlns:cc="http://creativecommons.org/ns#" xmlns:rdf="http://www.w3.org/1999/02/22-rdf-syntax-ns#">
   <cc:Work>
    <dc:type rdf:resource="http://purl.org/dc/dcmitype/StillImage"/>
    <dc:date>2024-02-02T21:58:01.102217</dc:date>
    <dc:format>image/svg+xml</dc:format>
    <dc:creator>
     <cc:Agent>
      <dc:title>Matplotlib v3.8.2, https://matplotlib.org/</dc:title>
     </cc:Agent>
    </dc:creator>
   </cc:Work>
  </rdf:RDF>
 </metadata>
 <defs>
  <style type="text/css">*{stroke-linejoin: round; stroke-linecap: butt}</style>
 </defs>
 <g id="figure_1">
  <g id="patch_1">
   <path d="M 0 266.112 
L 267.723297 266.112 
L 267.723297 0 
L 0 0 
L 0 266.112 
z
" style="fill: none"/>
  </g>
  <g id="axes_1">
   <g id="PatchCollection_1">
    <path d="M 209.045144 24.066132 
L 209.107032 24.663295 
L 209.468796 25.328679 
L 209.275632 25.454545 
L 208.154608 25.799254 
L 207.332821 25.820127 
L 206.998971 25.97066 
L 206.929744 26.165468 
L 207.30714 26.346362 
L 207.524869 26.596197 
L 207.432195 27.026293 
L 206.943143 27.699899 
L 205.635654 28.424737 
L 204.626285 28.845978 
L 204.37171 29.129335 
L 204.349379 29.551209 
L 204.791536 29.716922 
L 206.142571 29.979407 
L 206.308938 30.072384 
L 206.42171 30.532207 
L 206.364766 31.270328 
L 205.853382 32.583385 
L 205.853382 33.331625 
L 205.961688 33.779431 
L 205.513949 35.114626 
L 205.435883 35.93413 
L 205.206895 36.699656 
L 205.191264 38.192974 
L 205.319668 38.621173 
L 206.032032 39.822279 
L 206.173834 41.58251 
L 205.66915 42.877225 
L 205.716046 43.825966 
L 205.965038 44.261754 
L 207.195485 44.846179 
L 207.088295 45.086527 
L 206.435109 46.018823 
L 205.924842 46.54316 
L 205.22476 49.004827 
L 205.244858 49.460223 
L 205.415692 50.861197 
L 204.811634 51.706841 
L 205.090773 52.11733 
L 205.008148 52.254581 
L 204.551476 52.583478 
L 204.34268 52.962974 
L 203.643172 53.479575 
L 203.552157 53.555621 
L 201.138159 54.684623 
L 200.7161 54.972408 
L 200.503954 55.402187 
L 200.000387 57.049202 
L 199.660953 57.305362 
L 198.97427 57.409091 
L 198.554444 57.607378 
L 197.322881 58.881221 
L 197.174379 59.212331 
L 197.140882 60.114584 
L 196.916454 61.342887 
L 197.118551 62.492445 
L 197.706977 64.221051 
L 199.384047 67.206107 
L 199.399679 68.87937 
L 199.564929 69.451461 
L 199.842952 69.742092 
L 201.152674 70.030193 
L 202.780615 71.022576 
L 203.473998 71.129783 
L 205.738377 74.677759 
L 206.1295 78.080973 
L 206.42506 78.391131 
L 207.750414 79.201672 
L 213.7039 83.412501 
L 213.825604 83.643993 
L 218.953954 106.200627 
L 216.435 107.568712 
L 216.688458 107.969713 
L 217.895457 109.385234 
L 219.277756 111.421865 
L 220.552865 113.796248 
L 222.264548 119.668638 
L 222.503491 121.538923 
L 222.535871 123.861125 
L 221.733066 130.206305 
L 221.872636 130.91786 
L 223.450332 135.11256 
L 223.400246 135.70106 
L 222.485626 138.385717 
L 221.916182 138.747504 
L 221.950795 139.002399 
L 222.215419 139.53148 
L 222.129444 139.766451 
L 221.509755 140.543154 
L 221.132358 142.148424 
L 222.047935 145.413358 
L 222.361688 146.932608 
L 222.480043 147.043295 
L 223.134346 147.465168 
L 223.176775 147.641002 
L 222.874188 149.370873 
L 223.02269 149.970477 
L 222.571601 151.542225 
L 222.368388 151.788897 
L 218.55311 153.645267 
L 218.499515 154.098133 
L 218.404608 154.275864 
L 218.036144 154.631325 
L 217.42092 155.892518 
L 217.673262 156.57245 
L 224.228573 166.143349 
L 224.373725 166.919419 
L 224.623834 172.285182 
L 226.231677 173.260488 
L 226.434891 173.591914 
L 226.759809 175.15544 
L 226.955207 175.381556 
L 228.577565 176.646544 
L 229.006323 176.601953 
L 231.694994 175.632656 
L 231.928355 175.679461 
L 240.79494 178.797973 
L 241.072962 179.173358 
L 245.413022 188.346735 
L 196.947718 220.717461 
L 188.881705 228.321304 
L 178.707073 238.131603 
L 178.22137 238.328624 
L 152.117367 243.936 
L 151.85051 243.861049 
L 151.597051 243.689011 
L 150.960613 243.011926 
L 150.018239 242.46134 
L 149.644192 241.978115 
L 149.62856 241.757374 
L 150.168974 240.819386 
L 150.451463 240.347862 
L 150.603315 239.649272 
L 151.336893 238.883954 
L 151.192857 238.417174 
L 150.960613 238.01048 
L 150.869056 237.380516 
L 150.812111 237.307147 
L 150.673658 236.859025 
L 150.661376 236.386235 
L 150.817694 233.750317 
L 150.498359 233.505858 
L 149.928914 233.291758 
L 149.303642 232.757301 
L 147.935859 232.111525 
L 144.380739 231.417362 
L 143.067667 231.151399 
L 142.206801 230.769689 
L 141.915379 230.57235 
L 141.134906 229.192249 
L 140.736294 228.729895 
L 139.885477 228.044904 
L 139.458952 228.032255 
L 139.208843 228.20619 
L 138.485314 228.787136 
L 138.32453 228.765315 
L 137.080684 228.323834 
L 136.78033 228.568926 
L 136.542504 228.560387 
L 136.149475 227.788744 
L 135.318756 227.672998 
L 133.926409 226.353615 
L 133.869464 225.000078 
L 133.650619 224.650309 
L 132.534061 223.845777 
L 131.944519 223.643379 
L 130.660478 223.20759 
L 130.11783 222.420135 
L 129.637711 222.352458 
L 128.978942 222.455555 
L 128.582564 222.354988 
L 128.503288 222.200027 
L 128.482073 221.656082 
L 128.722133 220.553013 
L 128.834906 218.945846 
L 128.495472 217.912983 
L 64.019568 170.260252 
L 53.399708 162.942297 
L 22.310275 142.227486 
L 22.349354 125.001511 
L 22.672598 124.596083 
L 24.541715 123.460123 
L 25.168663 123.049002 
L 25.701819 122.263445 
L 26.260098 121.987677 
L 26.976369 121.305849 
L 27.712739 120.806811 
L 29.289877 120.019672 
L 30.276356 119.084846 
L 31.420269 118.31605 
L 32.080713 117.700633 
L 32.764884 117.302794 
L 33.42449 116.637411 
L 33.793513 116.475492 
L 36.708718 116.548713 
L 37.690255 115.522235 
L 38.8983 115.008995 
L 39.728831 114.923456 
L 40.936877 115.008995 
L 42.824448 115.778854 
L 43.730482 114.923456 
L 45.240538 114.752376 
L 46.826098 114.324677 
L 48.336155 114.153597 
L 51.280765 114.153597 
L 53.923365 113.725898 
L 54.300879 114.837916 
L 55.206913 115.180075 
L 56.263953 114.837916 
L 57.396495 113.383738 
L 58.378032 111.844021 
L 59.13306 110.389843 
L 60.1901 109.277825 
L 61.322643 108.507967 
L 63.436722 106.79717 
L 64.569265 106.198391 
L 66.154824 105.514072 
L 67.664881 104.316514 
L 68.872926 102.776796 
L 69.929966 102.178017 
L 71.213514 101.835858 
L 72.874577 101.750318 
L 74.686645 101.322619 
L 76.725221 100.296141 
L 76.574216 98.756423 
L 77.102736 98.243184 
L 77.706758 97.302246 
L 77.122651 96.384953 
L 77.060124 95.93019 
L 76.829555 95.591805 
L 76.247828 95.225591 
L 75.797297 94.604482 
L 75.608878 94.557045 
L 75.448373 94.639902 
L 74.939781 95.013706 
L 74.631611 94.892267 
L 74.593648 94.679749 
L 74.916892 93.784137 
L 74.892327 92.636161 
L 75.029385 92.47108 
L 75.623952 92.048574 
L 76.42321 91.998775 
L 76.574216 88.8338 
L 77.310233 88.461068 
L 77.770813 88.562899 
L 78.172495 88.528745 
L 81.330895 87.978402 
L 83.671483 87.294083 
L 85.559053 87.037463 
L 84.361016 83.927983 
L 84.98266 83.589599 
L 86.987997 83.425783 
L 88.926341 82.90524 
L 103.03349 83.425783 
L 103.246752 82.990627 
L 103.192599 82.735732 
L 102.791755 82.519419 
L 102.585192 82.521949 
L 102.009048 82.673115 
L 102.003465 82.397032 
L 102.317218 82.064972 
L 102.668376 80.15484 
L 102.950865 79.717787 
L 103.126722 79.629238 
L 103.975306 79.407865 
L 104.333721 79.144747 
L 104.96011 78.47209 
L 104.792627 78.195374 
L 101.772896 75.968995 
L 101.086772 75.725801 
L 100.732264 75.436751 
L 99.269016 73.095891 
L 99.871957 72.594323 
L 99.975797 72.086114 
L 99.909361 71.546913 
L 98.909484 70.611771 
L 98.568934 69.877445 
L 98.021821 69.371134 
L 97.923005 68.968868 
L 97.92468 67.764599 
L 98.636486 65.497741 
L 98.032428 64.248565 
L 97.84373 64.116057 
L 97.303316 63.880137 
L 97.287126 63.498743 
L 97.716442 62.824821 
L 97.504854 61.86596 
L 97.541142 61.291655 
L 98.045037 58.918003 
L 98.016238 58.747448 
L 96.972815 55.947714 
L 96.55913 55.485677 
L 97.711418 54.173252 
L 97.196126 53.995837 
L 95.894778 52.741601 
L 95.982986 52.534143 
L 96.992354 50.970618 
L 96.79584 50.782768 
L 94.721276 49.453898 
L 94.519737 49.118043 
L 94.463351 48.806224 
L 94.326573 48.707555 
L 93.84087 48.665178 
L 92.408885 47.760711 
L 92.21572 47.517833 
L 92.113555 47.193364 
L 92.098016 46.711787 
L 92.455842 46.666467 
L 92.488811 46.719257 
L 92.807514 46.568853 
L 93.936819 46.886594 
L 94.883256 46.871654 
L 95.044585 46.860697 
L 95.23185 46.719257 
L 96.245105 46.447335 
L 96.616118 46.23667 
L 97.082963 46.218243 
L 97.250886 46.105688 
L 97.605195 45.71673 
L 98.416678 45.42389 
L 98.505035 45.207248 
L 100.002717 44.121052 
L 101.373358 43.908394 
L 102.50574 42.782854 
L 102.744877 41.982027 
L 102.8706 41.791781 
L 103.325136 40.748912 
L 103.762967 40.621418 
L 104.156839 40.17668 
L 104.743252 39.715009 
L 104.949859 39.450059 
L 105.547261 39.239891 
L 105.886185 39.000839 
L 106.275661 38.939581 
L 106.392592 39.092475 
L 106.931969 38.817067 
L 107.196162 38.398226 
L 107.536404 38.379301 
L 107.855107 38.583492 
L 108.424815 38.710987 
L 108.734726 39.024744 
L 109.34136 38.956016 
L 109.742265 38.716963 
L 109.872823 38.370337 
L 110.454401 38.261767 
L 110.940587 37.121285 
L 110.929157 36.911118 
L 110.9907 36.896177 
L 111.25885 36.980842 
L 111.592938 36.987814 
L 112.343757 36.702943 
L 112.847527 37.063514 
L 112.818514 37.358346 
L 112.847527 37.488829 
L 113.306458 37.798602 
L 115.21164 38.081979 
L 116.140932 37.547596 
L 116.482054 37.23882 
L 117.341012 35.440445 
L 117.573995 34.884647 
L 117.772689 34.769603 
L 118.480428 34.139101 
L 119.340266 33.761099 
L 119.704246 33.437879 
L 119.80711 33.044438 
L 120.262525 32.89752 
L 120.98521 32.833275 
L 123.274593 31.494579 
L 124.41401 31.346167 
L 124.776231 31.115083 
L 125.622002 30.826725 
L 126.508215 29.957668 
L 126.989126 29.851091 
L 127.396186 29.606061 
L 128.412517 29.526377 
L 129.101794 29.269395 
L 130.02669 29.185727 
L 130.884769 28.859021 
L 132.058474 29.091102 
L 132.502459 28.971575 
L 134.763708 28.833622 
L 135.231432 28.705131 
L 135.58662 28.767882 
L 136.177429 28.619968 
L 136.784942 28.586103 
L 137.422347 28.691684 
L 138.363068 28.587099 
L 141.514047 27.752406 
L 141.949241 27.924723 
L 142.210357 28.266369 
L 142.653464 28.350038 
L 144.554249 28.158796 
L 145.575856 27.42321 
L 146.560536 26.864424 
L 147.175962 26.082024 
L 147.796662 25.668662 
L 148.35582 25.590472 
L 148.672325 25.630314 
L 149.036305 25.835003 
L 149.619201 26.362413 
L 150.033295 26.487916 
L 150.457059 26.473473 
L 150.908957 26.12336 
L 151.08831 25.613879 
L 152.197834 26.00981 
L 153.710022 26.052142 
L 154.615577 25.720457 
L 154.789655 25.651729 
L 155.131655 25.668662 
L 155.537836 25.480408 
L 156.533946 24.657667 
L 157.959975 24.33893 
L 158.378465 24.407658 
L 158.934106 24.657667 
L 159.749105 24.587446 
L 160.455086 24.748806 
L 161.045895 24.498299 
L 161.729896 24.620813 
L 162.152781 24.407658 
L 162.628417 24.544117 
L 162.783153 24.573999 
L 164.379743 24.476386 
L 165.270351 24.748806 
L 165.712578 24.607865 
L 167.826125 24.605873 
L 169.783179 25.459491 
L 169.971323 25.564574 
L 170.303653 25.639278 
L 170.440805 25.835003 
L 171.057109 26.008316 
L 171.258441 26.00234 
L 171.042163 26.598478 
L 171.100189 26.79221 
L 171.405264 27.005366 
L 173.032625 27.681686 
L 173.414189 27.695133 
L 175.198923 27.39283 
L 175.409926 27.179675 
L 176.057002 26.878867 
L 176.350648 26.246373 
L 176.737487 26.00234 
L 177.413576 25.778228 
L 178.052739 25.377814 
L 178.323526 25.364865 
L 179.512177 25.492858 
L 181.33032 25.117844 
L 183.475517 24.290124 
L 183.704104 23.989315 
L 183.812243 23.108306 
L 184.588558 22.477804 
L 185.421141 22.187953 
L 185.924911 22.176 
L 186.360104 22.310467 
L 186.813761 22.7313 
L 186.895525 22.876724 
L 187.117078 22.985792 
L 187.230492 23.450451 
L 187.405449 23.65514 
L 187.563701 23.59687 
L 188.180006 23.822477 
L 189.948035 23.948477 
L 190.436859 24.323989 
L 190.432463 24.524196 
L 191.177128 24.671612 
L 191.469015 24.657667 
L 192.900319 24.30108 
L 193.428706 24.369808 
L 194.479325 23.390687 
L 194.493392 23.13769 
L 194.438883 23.042567 
L 193.695097 22.310467 
L 193.814666 22.294032 
L 194.247222 22.258174 
L 194.768575 22.431488 
L 194.948807 22.310467 
L 195.453456 22.451409 
L 195.905354 22.320926 
L 196.034593 22.615758 
L 196.250872 22.728312 
L 197.028945 22.652612 
L 198.094511 23.477344 
L 198.778512 23.494277 
L 199.019407 23.487803 
L 199.432621 23.77616 
L 200.059476 23.691495 
L 200.360156 23.404134 
L 200.097281 24.164621 
L 200.28015 24.323989 
L 200.092006 24.675098 
L 200.482362 24.939551 
L 201.547048 25.167149 
L 203.324748 24.703984 
L 203.541026 24.527682 
L 205.054973 23.838911 
L 205.648419 24.232353 
L 206.381655 24.232353 
L 206.576833 24.323989 
L 206.874874 24.321997 
L 207.167641 24.498299 
L 207.911427 24.498299 
L 209.045144 24.066132 
L 209.045144 24.066132 
" clip-path="url(#pedb4d04ef5)" style="fill: none; stroke: #000000; stroke-width: 2"/>
   </g>
  </g>
 </g>
 <defs>
  <clipPath id="pedb4d04ef5">
   <rect x="0" y="-0" width="267.723297" height="266.112"/>
  </clipPath>
 </defs>
</svg>
