<?xml version="1.0" encoding="utf-8" standalone="no"?>
<!DOCTYPE svg PUBLIC "-//W3C//DTD SVG 1.1//EN"
  "http://www.w3.org/Graphics/SVG/1.1/DTD/svg11.dtd">
<svg xmlns:xlink="http://www.w3.org/1999/xlink" width="357.12pt" height="142.100463pt" viewBox="0 0 357.12 142.100463" xmlns="http://www.w3.org/2000/svg" version="1.1">
 <metadata>
  <rdf:RDF xmlns:dc="http://purl.org/dc/elements/1.1/" xmlns:cc="http://creativecommons.org/ns#" xmlns:rdf="http://www.w3.org/1999/02/22-rdf-syntax-ns#">
   <cc:Work>
    <dc:type rdf:resource="http://purl.org/dc/dcmitype/StillImage"/>
    <dc:date>2024-02-02T21:58:01.128224</dc:date>
    <dc:format>image/svg+xml</dc:format>
    <dc:creator>
     <cc:Agent>
      <dc:title>Matplotlib v3.8.2, https://matplotlib.org/</dc:title>
     </cc:Agent>
    </dc:creator>
   </cc:Work>
  </rdf:RDF>
 </metadata>
 <defs>
  <style type="text/css">*{stroke-linejoin: round; stroke-linecap: butt}</style>
 </defs>
 <g id="figure_1">
  <g id="patch_1">
   <path d="M 0 142.100463 
L 357.12 142.100463 
L 357.12 0 
L 0 0 
L 0 142.100463 
z
" style="fill: none"/>
  </g>
  <g id="axes_1">
   <g id="PatchCollection_1">
    <path d="M 240.694569 94.544388 
L 240.412092 94.951332 
L 239.777581 94.887954 
L 239.424061 95.094382 
L 239.123209 95.185326 
L 238.691048 95.150681 
L 238.274761 95.042414 
L 238.020082 94.908164 
L 237.915224 94.516465 
L 238.022593 93.887603 
L 238.086326 91.757129 
L 238.149225 91.517254 
L 238.746602 90.417266 
L 238.999837 89.699819 
L 239.253073 89.517931 
L 240.33167 89.20468 
L 241.301325 88.723976 
L 241.673603 88.598387 
L 242.478041 88.624371 
L 243.696603 89.376463 
L 244.458475 89.568456 
L 244.430338 89.705593 
L 244.380556 89.832626 
L 244.309131 89.948111 
L 244.216061 90.05349 
L 244.018379 90.219499 
L 243.126642 90.603484 
L 243.070368 90.759388 
L 242.820739 90.997575 
L 242.763743 91.092849 
L 242.656244 91.365681 
L 242.510508 91.638513 
L 242.363328 91.792973 
L 242.325811 91.79586 
L 242.137725 92.118617 
L 241.924843 92.544446 
L 241.701285 92.948987 
L 241.584169 93.236433 
L 241.296515 93.353649 
L 241.062131 93.619902 
L 241.072917 94.035073 
L 240.802789 94.288879 
L 240.694569 94.544388 
" clip-path="url(#p8870bae1ae)" style="fill: none; stroke: #000000; stroke-width: 2"/>
    <path d="M 245.69227 88.12376 
L 245.261868 88.39283 
L 244.912066 88.366074 
L 244.831182 87.96274 
L 245.073073 87.290339 
L 245.449378 86.321996 
L 245.933356 85.461112 
L 246.121887 85.918298 
L 246.552495 86.079406 
L 246.767929 86.455819 
L 246.391419 87.020842 
L 245.772675 87.343862 
L 245.69227 88.12376 
" clip-path="url(#p8870bae1ae)" style="fill: none; stroke: #000000; stroke-width: 2"/>
    <path d="M 71.432795 65.136295 
L 71.904636 65.290756 
L 72.261042 65.667523 
L 72.284129 66.051509 
L 71.751684 66.227622 
L 71.17018 66.155445 
L 69.737342 65.500071 
L 70.100962 65.136295 
L 70.379449 65.19115 
L 71.212747 65.179602 
L 71.432795 65.136295 
" clip-path="url(#p8870bae1ae)" style="fill: none; stroke: #000000; stroke-width: 2"/>
    <path d="M 57.059681 62.947866 
L 57.225619 63.199045 
L 57.577696 63.106657 
L 58.062524 63.203376 
L 58.492519 63.40403 
L 58.677215 63.617676 
L 58.715453 63.666757 
L 58.798422 63.723055 
L 58.884277 63.802451 
L 58.931173 63.926596 
L 58.918908 64.047855 
L 58.87562 64.117146 
L 58.83161 64.166227 
L 58.809966 64.223969 
L 58.762349 64.290372 
L 58.530036 64.356776 
L 58.446345 64.398639 
L 58.427587 64.476591 
L 58.460775 64.69168 
L 58.446345 64.772519 
L 58.346783 64.883673 
L 57.765278 65.240231 
L 57.649843 65.266215 
L 57.001242 65.17094 
L 56.748006 64.986165 
L 56.505593 64.749423 
L 56.135479 64.530002 
L 56.299252 64.346671 
L 56.451482 64.112815 
L 56.564032 63.860193 
L 56.681631 63.324634 
L 56.854784 63.046028 
L 57.059681 62.947866 
" clip-path="url(#p8870bae1ae)" style="fill: none; stroke: #000000; stroke-width: 2"/>
    <path d="M 77.695149 53.52723 
L 77.915919 53.665811 
L 78.147511 53.662924 
L 78.380545 53.573423 
L 78.597707 53.455052 
L 78.640274 54.121974 
L 78.31417 54.845195 
L 77.801205 55.48469 
L 77.276697 55.900433 
L 76.645411 56.083765 
L 76.550177 56.196362 
L 76.516268 56.362371 
L 76.307764 56.879163 
L 75.948472 57.419053 
L 75.710387 57.673118 
L 75.449936 57.849232 
L 75.173614 57.937289 
L 74.903063 57.967603 
L 74.299193 57.958942 
L 74.115218 58.016684 
L 73.747269 58.27508 
L 73.501969 58.334266 
L 73.329538 58.282298 
L 72.946438 58.039781 
L 72.775449 57.958942 
L 72.143442 57.866555 
L 71.988326 57.788603 
L 71.962353 57.625481 
L 72.074181 57.434932 
L 72.290622 57.170761 
L 72.437802 57.029293 
L 73.143399 56.694388 
L 73.380762 56.506726 
L 73.567623 55.900433 
L 73.751597 55.880223 
L 74.488939 55.701223 
L 74.696722 55.499125 
L 74.96583 54.930365 
L 75.125275 54.72538 
L 75.593509 54.283652 
L 75.69235 54.133522 
L 75.830872 54.020925 
L 76.470094 53.787069 
L 76.660562 53.597964 
L 76.931113 53.584972 
L 77.480151 53.440616 
L 77.695149 53.52723 
" clip-path="url(#p8870bae1ae)" style="fill: none; stroke: #000000; stroke-width: 2"/>
    <path d="M 61.160513 50.358627 
L 61.143919 50.562169 
L 61.161235 50.731064 
L 61.296149 50.801799 
L 61.477238 50.817678 
L 61.825708 50.89563 
L 62.023391 50.912952 
L 62.226124 51.09484 
L 62.182835 51.512027 
L 61.957015 52.255458 
L 61.965673 52.464773 
L 62.065236 52.72317 
L 62.089766 52.92238 
L 62.047921 52.972905 
L 61.894969 53.362664 
L 61.902184 53.455052 
L 61.604938 53.573423 
L 61.390662 53.850586 
L 61.203801 54.176829 
L 60.988082 54.436669 
L 60.825751 54.55071 
L 60.732682 54.581024 
L 59.866197 54.559371 
L 59.778178 54.618557 
L 59.685108 54.967897 
L 59.450631 55.146898 
L 59.13607 55.198866 
L 58.809966 55.172882 
L 58.205375 54.96501 
L 57.822996 54.889945 
L 57.704675 54.803332 
L 57.620263 54.716719 
L 57.527193 54.679186 
L 57.394443 54.559371 
L 57.016393 54.005046 
L 56.861998 53.830376 
L 56.602991 53.859247 
L 56.271836 53.781295 
L 55.962326 53.63694 
L 55.771858 53.455052 
L 55.741556 53.229857 
L 55.771858 52.366612 
L 55.87575 51.904674 
L 56.072711 51.474495 
L 56.329554 51.099171 
L 56.608041 50.801799 
L 56.779751 50.686314 
L 57.260971 50.479886 
L 57.46659 50.427918 
L 57.659944 50.435136 
L 58.059638 50.531854 
L 58.193831 50.549177 
L 58.361212 50.501539 
L 58.563223 50.367289 
L 58.677215 50.316764 
L 60.358239 50.126215 
L 60.74639 49.932779 
L 60.84451 49.970311 
L 60.949844 50.030941 
L 61.047964 50.106005 
L 61.121554 50.185401 
L 61.160513 50.358627 
" clip-path="url(#p8870bae1ae)" style="fill: none; stroke: #000000; stroke-width: 2"/>
    <path d="M 39.616715 45.934133 
L 40.233571 46.563522 
L 40.398066 46.661684 
L 40.612343 46.826249 
L 40.65996 47.201574 
L 40.584206 47.872826 
L 40.584206 49.398664 
L 40.411053 49.496825 
L 39.184555 49.990521 
L 38.876487 50.055481 
L 38.696842 50.064142 
L 38.530182 50.007844 
L 38.153575 49.756665 
L 37.825307 49.672939 
L 37.294305 49.459293 
L 37.210615 49.447744 
L 37.024476 49.470841 
L 36.942228 49.459293 
L 36.855652 49.39722 
L 36.852766 49.340921 
L 36.865752 49.280292 
L 36.821021 49.205227 
L 36.516561 48.886202 
L 36.283526 48.52387 
L 36.136347 48.125449 
L 36.017304 47.311284 
L 35.792206 46.642918 
L 35.841987 46.419167 
L 37.395311 46.459587 
L 38.054012 46.123238 
L 38.878652 45.934133 
L 39.288447 45.78689 
L 39.408932 45.8071 
L 39.616715 45.934133 
" clip-path="url(#p8870bae1ae)" style="fill: none; stroke: #000000; stroke-width: 2"/>
    <path d="M 51.645775 43.985334 
L 51.994966 44.235069 
L 53.20487 44.643595 
L 53.63703 44.712886 
L 54.212763 44.935193 
L 55.135522 45.971665 
L 55.639829 46.297908 
L 55.564075 46.315231 
L 55.517179 46.339772 
L 55.408959 46.419167 
L 55.648487 46.557748 
L 55.530166 46.878217 
L 55.156445 47.449865 
L 55.022973 47.816528 
L 54.701919 47.924794 
L 54.300782 47.872826 
L 53.542518 47.643301 
L 52.305198 47.643301 
L 51.9625 47.535035 
L 51.647218 47.337268 
L 51.315342 47.230445 
L 50.919255 47.389236 
L 50.673234 47.088976 
L 50.557799 46.634257 
L 50.374546 46.254602 
L 49.927956 46.17665 
L 50.68117 45.137291 
L 50.726623 44.900548 
L 50.620567 44.585853 
L 50.767025 44.276932 
L 51.058499 44.048851 
L 51.391817 43.985334 
L 51.520239 44.079165 
L 51.572906 44.071947 
L 51.645775 43.985334 
" clip-path="url(#p8870bae1ae)" style="fill: none; stroke: #000000; stroke-width: 2"/>
    <path d="M 41.673624 38.636965 
L 41.957883 38.893917 
L 42.224827 39.846663 
L 42.460026 40.018446 
L 42.824368 40.948095 
L 42.934753 41.02316 
L 43.309196 41.43313 
L 43.985212 41.554388 
L 44.110748 41.866196 
L 44.423866 45.10842 
L 44.618663 45.41734 
L 45.441138 46.270481 
L 45.495248 46.679007 
L 47.780142 48.344869 
L 48.192822 48.782266 
L 48.48141 48.956936 
L 48.365253 49.205227 
L 48.596845 50.614137 
L 48.492953 50.949041 
L 48.014619 51.359011 
L 47.871047 51.63906 
L 48.266412 51.37922 
L 48.38329 51.532237 
L 48.475638 52.134199 
L 49.225966 52.272781 
L 49.593916 52.464773 
L 49.565057 52.861751 
L 50.018861 52.990227 
L 50.302399 53.35689 
L 50.181192 53.597964 
L 50.419277 53.697569 
L 51.204957 54.412129 
L 51.373781 54.472758 
L 51.303798 54.845195 
L 50.726623 55.106478 
L 50.17037 56.844518 
L 50.202836 57.603828 
L 49.819014 57.485456 
L 48.960465 58.576783 
L 48.367418 58.409331 
L 47.464859 58.547912 
L 46.89562 58.966543 
L 44.863241 59.63924 
L 44.469318 59.543965 
L 44.195881 59.627691 
L 42.602877 59.402497 
L 40.608736 59.431368 
L 40.235014 59.312996 
L 39.891595 58.872712 
L 39.792032 58.065765 
L 39.23145 57.958942 
L 38.789911 57.263149 
L 38.950799 56.454758 
L 39.435626 55.695448 
L 39.968071 55.172882 
L 42.131036 53.686021 
L 42.191639 53.485366 
L 42.467241 53.455052 
L 43.533573 53.105712 
L 43.937595 53.156236 
L 44.524872 53.460826 
L 44.898593 53.405971 
L 45.257163 52.981566 
L 45.261492 52.793904 
L 45.420937 52.424354 
L 45.668401 52.150079 
L 45.93318 52.255458 
L 46.14457 51.962416 
L 46.157557 51.696802 
L 45.801872 51.275285 
L 44.413044 50.527523 
L 43.655501 49.326486 
L 43.490284 48.731741 
L 43.464311 48.037392 
L 43.107906 47.828076 
L 42.700997 47.675059 
L 42.532173 47.389236 
L 41.455741 46.814701 
L 41.047389 46.365756 
L 41.069033 45.802769 
L 40.715513 45.593454 
L 40.488972 45.203694 
L 40.523602 44.839918 
L 40.947826 44.712886 
L 40.501958 43.991108 
L 40.190283 41.87197 
L 39.796361 41.578929 
L 39.248766 41.561606 
L 38.636238 41.795462 
L 38.023711 42.215536 
L 37.712036 42.283383 
L 37.36068 42.097887 
L 36.942228 41.493759 
L 37.080029 41.262068 
L 37.214943 41.207935 
L 38.413304 40.542457 
L 38.751673 40.191673 
L 38.878652 39.482888 
L 39.317305 39.622912 
L 40.584206 39.192011 
L 40.947826 38.75678 
L 41.673624 38.636965 
L 41.673624 38.636965 
" clip-path="url(#p8870bae1ae)" style="fill: none; stroke: #000000; stroke-width: 2"/>
    <path d="M 57.367027 36.621762 
L 56.993306 36.698271 
L 56.780472 36.627537 
L 56.547438 36.386463 
L 56.317289 36.335939 
L 56.144858 36.272422 
L 55.974591 36.126623 
L 55.837512 35.964945 
L 55.771858 35.850904 
L 55.811539 35.448153 
L 56.092191 35.151502 
L 56.482506 34.960953 
L 56.861998 34.882279 
L 57.263135 35.010756 
L 57.688802 35.216462 
L 58.033665 35.49579 
L 58.193831 35.850904 
L 58.076953 36.109301 
L 57.765278 36.396568 
L 57.367027 36.621762 
" clip-path="url(#p8870bae1ae)" style="fill: none; stroke: #000000; stroke-width: 2"/>
    <path d="M 52.226557 30.981073 
L 51.941577 31.543338 
L 51.149404 31.225756 
L 51.274939 30.850431 
L 51.155175 30.091122 
L 51.282154 29.772818 
L 52.005066 30.179179 
L 52.226557 30.981073 
" clip-path="url(#p8870bae1ae)" style="fill: none; stroke: #000000; stroke-width: 2"/>
    <path d="M 262.252075 18.811908 
L 262.017597 19.276011 
L 261.594095 19.071026 
L 261.42455 19.270237 
L 261.230474 19.434802 
L 260.871183 19.160527 
L 260.606403 18.867485 
L 260.547243 18.539077 
L 260.806972 18.157256 
L 262.209508 16.989421 
L 262.212394 17.158317 
L 262.236924 17.276688 
L 262.320615 17.486003 
L 262.33793 18.080748 
L 262.252075 18.811908 
" clip-path="url(#p8870bae1ae)" style="fill: none; stroke: #000000; stroke-width: 2"/>
    <path d="M 33.285821 17.021179 
L 33.19708 17.097687 
L 33.110504 17.044998 
L 33.062887 16.938896 
L 33.062166 16.837847 
L 33.171829 16.772166 
L 33.253355 16.80248 
L 33.317566 16.936009 
L 33.285821 17.021179 
" clip-path="url(#p8870bae1ae)" style="fill: none; stroke: #000000; stroke-width: 2"/>
    <path d="M 33.200688 16.624201 
L 33.148742 16.684831 
L 33.121326 16.629254 
L 33.200688 16.624201 
" clip-path="url(#p8870bae1ae)" style="fill: none; stroke: #000000; stroke-width: 2"/>
    <path d="M 266.064085 18.626419 
L 266.411808 18.896833 
L 266.826877 19.025165 
L 267.52049 18.949999 
L 267.618531 19.474327 
L 267.989618 19.866656 
L 268.089491 20.152653 
L 268.345588 20.005988 
L 268.611763 19.983988 
L 269.71957 20.307429 
L 269.918359 20.462483 
L 272.005155 22.636794 
L 272.344631 22.801792 
L 273.761637 23.278454 
L 276.069253 25.023769 
L 276.815094 25.386765 
L 278.072211 25.432598 
L 279.470433 25.890927 
L 279.646356 25.85426 
L 279.881837 26.21634 
L 279.91299 26.605003 
L 280.100824 26.765418 
L 280.892478 27.010165 
L 281.608082 26.943249 
L 283.021881 26.406088 
L 283.459856 26.409755 
L 283.989458 26.825917 
L 284.104907 28.101904 
L 284.481493 28.659231 
L 285.646983 29.464056 
L 286.293867 29.72072 
L 286.89677 29.636388 
L 287.628867 29.819719 
L 287.868013 30.679544 
L 287.98163 32.544024 
L 288.403112 34.122508 
L 288.880487 34.489171 
L 289.499883 34.716501 
L 291.720912 35.220663 
L 292.25876 35.436994 
L 292.644508 35.414994 
L 293.845733 35.022665 
L 294.458715 35.176663 
L 295.136752 35.942989 
L 295.663605 36.12082 
L 296.593615 36.17032 
L 297.068241 36.401317 
L 297.757273 37.013644 
L 298.280461 37.11631 
L 299.735492 36.953145 
L 300.367715 37.237309 
L 300.638014 37.229975 
L 300.593117 36.524149 
L 300.812105 36.44165 
L 301.425087 36.608482 
L 302.543848 36.77898 
L 303.633288 37.532472 
L 303.892591 37.499473 
L 304.351641 37.262975 
L 306.110872 37.059477 
L 306.424235 36.850479 
L 306.240981 35.673492 
L 306.2758 34.236173 
L 306.826476 34.243506 
L 307.180154 34.146341 
L 307.812378 33.475348 
L 308.330985 33.176518 
L 308.507824 33.25535 
L 309.337961 33.996009 
L 310.075555 34.238006 
L 311.241962 34.327839 
L 311.348249 34.51667 
L 311.538832 35.125331 
L 311.862274 35.108831 
L 312.710737 34.916333 
L 312.958129 35.392994 
L 314.234487 37.119976 
L 314.315119 37.460973 
L 314.510283 37.74697 
L 314.951008 38.153966 
L 316.028537 38.819459 
L 316.176972 39.06329 
L 317.387359 39.868115 
L 318.023248 40.069779 
L 318.824981 40.064279 
L 319.923584 39.849781 
L 320.276346 39.96528 
L 320.964462 40.586774 
L 321.280574 40.691273 
L 322.114376 41.435598 
L 323.917588 42.467754 
L 324.909904 42.656586 
L 326.363102 43.263413 
L 326.152819 43.534743 
L 325.525177 43.930739 
L 325.006112 44.024238 
L 324.251567 43.950905 
L 323.774192 44.268069 
L 323.317434 44.224069 
L 321.828043 43.49441 
L 320.985536 43.470577 
L 320.343234 43.256079 
L 320.084389 43.342245 
L 319.984974 43.650242 
L 320.243361 44.389068 
L 320.571384 44.610899 
L 321.123893 44.605399 
L 322.591751 45.500056 
L 322.794246 45.758553 
L 323.690354 48.514025 
L 324.527821 49.524181 
L 324.910821 49.680012 
L 325.230597 49.718512 
L 325.302983 49.823011 
L 326.069897 50.442671 
L 326.320038 50.748835 
L 326.566055 50.690169 
L 326.767176 51.005499 
L 326.832231 51.333662 
L 326.833147 52.305319 
L 326.821236 52.596815 
L 326.446941 52.875479 
L 326.257732 53.001978 
L 326.195426 53.386974 
L 326.243072 54.074467 
L 326.123041 54.615294 
L 326.916069 57.451432 
L 326.920192 57.922593 
L 327.36 58.56792 
L 325.206316 58.659586 
L 324.92823 58.338756 
L 324.183763 57.598097 
L 324.07427 57.753928 
L 321.229263 68.634649 
L 320.812362 69.13881 
L 319.838371 70.042634 
L 312.040946 79.128539 
L 301.78509 86.856735 
L 301.520378 87.017291 
L 280.540632 94.407381 
L 279.234953 95.547702 
L 277.442736 97.949344 
L 276.336803 98.933833 
L 275.569888 100.299653 
L 274.714554 101.031145 
L 274.712721 101.419808 
L 274.917507 101.742471 
L 275.419621 102.1953 
L 275.457188 102.682961 
L 275.294092 103.045957 
L 274.184494 103.573952 
L 274.014985 103.251289 
L 273.637025 101.845136 
L 273.415288 101.667305 
L 272.275453 101.401474 
L 271.977209 101.491307 
L 271.799911 101.940469 
L 271.897494 102.48313 
L 271.50808 104.046947 
L 271.062317 105.123102 
L 271.029331 106.105759 
L 271.091637 106.639253 
L 270.730629 106.780418 
L 270.636253 106.901417 
L 270.637169 107.125082 
L 270.863945 108.270903 
L 270.755826 108.611899 
L 270.182701 109.123394 
L 269.856969 109.306726 
L 269.547271 109.988718 
L 269.300337 111.497536 
L 268.823879 111.704701 
L 268.411559 111.772533 
L 268.231054 111.959531 
L 268.145384 112.251028 
L 268.162793 113.307017 
L 267.973126 114.093509 
L 266.89239 116.352152 
L 266.570322 117.474141 
L 266.244131 117.745471 
L 266.097071 118.117634 
L 266.118603 118.783127 
L 266.26154 119.441287 
L 266.477321 119.78045 
L 266.898804 120.037114 
L 266.851158 120.323111 
L 266.321098 121.071103 
L 266.110356 122.378256 
L 265.435985 122.823752 
L 263.812361 123.470912 
L 263.07156 123.888907 
L 261.931725 125.089728 
L 261.731979 125.57739 
L 261.744806 126.063218 
L 262.235467 127.284205 
L 262.047632 127.636202 
L 260.814796 127.821366 
L 260.625587 128.112863 
L 260.301687 129.349434 
L 259.332736 130.258758 
L 258.619423 129.703263 
L 258.149378 129.752763 
L 257.659176 129.69043 
L 256.754821 129.431933 
L 255.496788 129.477766 
L 255.089965 129.3696 
L 254.653365 128.695857 
L 254.263035 128.255862 
L 253.762754 128.013864 
L 253.148855 127.12654 
L 252.477232 126.690211 
L 251.62373 124.037406 
L 251.106956 123.28208 
L 251.118868 122.900751 
L 251.571961 121.914428 
L 251.473005 121.747596 
L 251.112454 121.536765 
L 250.576438 121.481766 
L 250.185193 121.228768 
L 249.290001 120.345111 
L 248.799798 120.10128 
L 248.15887 120.187446 
L 247.54772 120.550442 
L 246.357033 120.917105 
L 245.698695 120.814439 
L 245.257971 120.359777 
L 244.885509 119.804283 
L 244.436081 119.389954 
L 243.515233 119.267122 
L 243.054351 119.212122 
L 242.216426 118.698794 
L 241.323066 117.800471 
L 240.19835 117.358642 
L 239.099747 117.607973 
L 238.800128 117.976469 
L 238.485848 118.878459 
L 238.206845 119.179123 
L 236.843441 120.224112 
L 235.807144 120.779606 
L 235.492407 120.788773 
L 235.197827 120.682441 
L 234.161988 120.016947 
L 234.006681 119.644785 
L 234.07311 119.342288 
L 236.613458 115.838824 
L 235.795233 115.939657 
L 235.027402 116.166987 
L 234.408922 116.100988 
L 234.035085 115.151331 
L 234.097391 114.64717 
L 234.001184 114.419839 
L 233.620475 113.798345 
L 233.806477 113.011854 
L 234.205511 112.296861 
L 234.470312 112.10803 
L 235.156137 111.987031 
L 235.883194 112.122696 
L 236.96393 112.592025 
L 237.334102 112.410527 
L 238.14179 111.319705 
L 239.52352 110.685378 
L 239.808522 110.202365 
L 239.701733 110.076718 
L 239.38837 109.794387 
L 239.340725 109.314059 
L 239.161595 108.797064 
L 238.805625 108.228737 
L 238.755689 107.735575 
L 238.89038 107.475245 
L 238.776305 106.498088 
L 238.898626 105.783096 
L 238.592135 105.007604 
L 238.303053 104.827939 
L 238.304428 104.69044 
L 238.474853 103.698617 
L 238.319088 103.41262 
L 237.919138 103.192622 
L 237.87928 102.822293 
L 238.024966 102.143967 
L 237.775284 101.951469 
L 236.694021 101.560063 
L 236.634139 101.300223 
L 236.688249 101.118336 
L 236.926334 100.975424 
L 237.294284 100.269525 
L 237.05187 100.887367 
L 237.162255 101.251143 
L 237.375088 101.086577 
L 237.474651 100.529365 
L 237.656461 100.269525 
L 238.141289 100.75456 
L 238.38226 100.653511 
L 239.885802 100.412437 
L 240.161403 100.455744 
L 240.33167 100.390784 
L 240.815776 99.84512 
L 241.673603 98.199468 
L 242.070411 98.274533 
L 242.152659 98.697495 
L 242.027123 99.544861 
L 242.33519 99.260481 
L 242.576883 98.870721 
L 243.565296 98.08254 
L 243.835125 97.311682 
L 243.917373 96.627437 
L 244.205961 95.986499 
L 244.954124 94.677195 
L 244.777364 94.368275 
L 244.841575 93.966966 
L 245.114291 92.962252 
L 245.668379 91.153479 
L 246.257098 89.985643 
L 246.322752 89.572786 
L 246.902813 88.234611 
L 247.434536 87.690391 
L 247.586045 87.375696 
L 247.609853 86.948404 
L 247.495861 86.155893 
L 247.198616 85.438446 
L 246.467046 85.37493 
L 246.252769 85.047243 
L 245.689302 83.7466 
L 245.549337 83.278889 
L 245.564488 82.245304 
L 245.43823 81.188622 
L 245.57531 80.559232 
L 245.104912 79.817245 
L 245.075331 79.48234 
L 245.322074 78.975653 
L 245.184273 78.757676 
L 245.458432 78.468965 
L 245.956245 78.258206 
L 246.177015 77.643252 
L 246.762848 77.314121 
L 246.89127 76.930136 
L 245.725375 77.614381 
L 245.538515 78.139834 
L 244.963504 78.17881 
L 244.802616 78.466078 
L 244.50032 79.607929 
L 244.47579 80.120391 
L 244.584011 80.634297 
L 245.12367 81.574051 
L 245.164072 82.112497 
L 244.888471 85.566923 
L 244.577517 86.480693 
L 243.919537 87.134623 
L 243.633835 87.221236 
L 242.763743 87.629762 
L 242.58554 87.541705 
L 242.340241 87.255881 
L 241.833769 87.254438 
L 241.607949 87.081211 
L 241.513437 86.789613 
L 241.7508 86.512451 
L 242.279637 86.155893 
L 242.703861 85.359051 
L 243.294023 85.380704 
L 243.534273 85.669415 
L 243.902222 85.579915 
L 243.969319 85.247897 
L 243.863984 85.054461 
L 243.784622 85.426898 
L 243.545095 85.348946 
L 243.126642 84.943307 
L 242.73777 84.988057 
L 242.126686 85.247897 
L 242.027123 84.999606 
L 242.101434 84.609846 
L 242.510508 83.426131 
L 242.576883 83.206711 
L 243.260836 82.866032 
L 243.62157 82.291497 
L 243.367613 82.389659 
L 243.034294 82.643725 
L 242.510508 82.632176 
L 242.152659 82.985847 
L 241.38718 84.96063 
L 239.630402 87.248664 
L 239.054669 87.498398 
L 238.789168 87.89682 
L 238.455849 87.990651 
L 237.947935 87.574907 
L 237.777668 87.707714 
L 237.715622 88.000755 
L 237.845486 88.409281 
L 238.390917 89.048776 
L 238.383702 89.633416 
L 238.2055 89.795094 
L 237.798591 89.740239 
L 237.05187 89.447197 
L 235.597388 88.325555 
L 235.114725 88.236055 
L 234.439429 87.802988 
L 232.556394 85.584245 
L 231.092533 84.217199 
L 230.003748 83.782103 
L 229.428155 83.80163 
L 228.162645 83.340961 
L 227.417367 82.682701 
L 226.747122 82.536902 
L 226.535732 82.496482 
L 226.401538 82.336247 
L 226.160568 81.470115 
L 225.625237 80.803193 
L 224.89511 80.162254 
L 224.773903 79.802809 
L 224.841722 79.724857 
L 225.048062 79.834567 
L 225.144739 79.967374 
L 225.903003 80.144932 
L 225.992276 80.447636 
L 226.222936 80.696971 
L 226.665203 80.677909 
L 227.299442 80.448064 
L 228.202137 79.720205 
L 228.892915 79.375645 
L 229.526317 78.667372 
L 229.659875 77.613402 
L 229.268658 76.523053 
L 229.215269 76.378698 
L 229.294085 76.193643 
L 229.735437 76.02178 
L 229.738335 75.138685 
L 228.867521 72.176511 
L 227.591963 69.798976 
L 227.636694 69.337039 
L 228.258378 68.899548 
L 228.186454 67.971436 
L 228.774697 67.577183 
L 229.067399 67.579372 
L 229.13511 67.096384 
L 229.259701 65.783655 
L 229.567386 65.634037 
L 229.539134 65.201423 
L 229.011029 64.470057 
L 227.955189 63.205165 
L 227.094149 61.689087 
L 226.49078 60.265738 
L 226.607259 59.900155 
L 228.010924 58.382029 
L 228.068715 58.228455 
L 228.260583 58.151654 
L 228.759897 58.227423 
L 229.239296 57.977945 
L 229.50782 58.035128 
L 229.92941 57.881711 
L 229.891652 58.037095 
L 230.48563 58.209219 
L 231.156445 57.738724 
L 231.482002 58.025902 
L 231.807544 58.064107 
L 232.247902 57.891692 
L 233.032894 57.12542 
L 233.913236 53.647768 
L 234.774822 52.115572 
L 235.253155 52.000974 
L 235.291328 52.460634 
L 235.53981 52.824644 
L 236.019013 53.034869 
L 237.433776 53.11191 
L 237.433969 52.901295 
L 236.402398 52.651587 
L 236.038467 52.651689 
L 235.789591 52.460167 
L 235.3672 51.542503 
L 235.118554 51.446667 
L 234.98482 51.254869 
L 234.965433 50.834241 
L 234.77469 50.334901 
L 234.720081 49.821625 
L 234.468614 49.261651 
L 234.143118 48.878857 
L 233.932706 48.13 
L 234.124431 47.878939 
L 234.487812 47.844055 
L 235.062848 47.38167 
L 235.796513 46.231505 
L 235.999777 45.604793 
L 236.15316 45.317692 
L 236.535687 45.183483 
L 236.996032 44.43684 
L 237.3213 44.724102 
L 238.126408 44.207054 
L 238.624562 43.843067 
L 239.679782 42.693225 
L 240.947805 40.887466 
L 241.071898 40.594424 
L 241.557045 40.438918 
L 241.977948 39.175049 
L 242.054539 37.817026 
L 241.916017 37.061325 
L 241.875614 35.718819 
L 242.087726 35.030965 
L 242.361163 35.21141 
L 242.642536 35.608387 
L 242.669231 35.38608 
L 242.895772 34.882279 
L 242.750757 34.501903 
L 242.510508 34.265881 
L 241.962912 33.224357 
L 241.96652 32.47443 
L 242.400123 31.821222 
L 242.434753 31.45095 
L 242.090612 30.274453 
L 241.930446 30.062972 
L 241.361207 29.88325 
L 241.133944 29.796637 
L 240.874215 29.308715 
L 240.815776 29.035883 
L 240.809283 28.272243 
L 241.010573 27.523038 
L 241.390787 26.887874 
L 241.916017 26.470687 
L 242.478763 26.65474 
L 243.330818 26.526986 
L 243.919537 26.128564 
L 245.179223 25.818922 
L 245.735476 25.511445 
L 245.866783 25.445763 
L 246.534142 24.882777 
L 246.89127 24.422283 
L 247.313329 24.23029 
L 248.374611 23.893942 
L 248.839237 23.562646 
L 248.941686 23.906934 
L 248.58528 25.017027 
L 248.814707 25.437102 
L 249.201415 25.753962 
L 249.564314 26.371082 
L 249.274283 25.575683 
L 248.971266 25.268928 
L 249.053514 24.461259 
L 249.093194 24.123467 
L 249.24831 23.874454 
L 249.564314 23.696175 
L 250.32835 23.915595 
L 251.166698 23.441388 
L 252.371551 22.341399 
L 252.752487 22.242516 
L 254.155024 22.304589 
L 254.732199 22.109709 
L 255.440682 22.081559 
L 255.639808 21.977623 
L 256.066196 22.202818 
L 257.076975 21.956692 
L 257.853997 21.683138 
L 259.192323 19.909732 
L 259.451331 19.768263 
L 259.888541 19.918393 
L 260.234847 20.207104 
L 260.457781 20.570158 
L 260.613618 21.503416 
L 260.952709 21.323693 
L 261.137405 21.060245 
L 261.215323 20.728227 
L 261.381261 19.745166 
L 261.726124 19.313544 
L 261.784563 19.465117 
L 262.032027 19.524302 
L 262.369675 19.284672 
L 262.451922 18.829231 
L 262.741231 18.500822 
L 263.036312 18.453185 
L 263.784476 18.707972 
L 263.655333 18.451741 
L 262.682792 18.212111 
L 262.559421 17.963098 
L 262.776583 17.522092 
L 263.541341 16.627089 
L 263.504349 15.922386 
L 264.544916 16.635898 
L 264.91692 17.154726 
L 265.440108 17.576846 
L 266.064085 18.626419 
L 266.064085 18.626419 
" clip-path="url(#p8870bae1ae)" style="fill: none; stroke: #000000; stroke-width: 2"/>
    <path d="M 29.968505 12.075561 
L 29.847298 12.10371 
L 29.76 11.943476 
L 29.857398 11.841705 
L 29.968505 11.919657 
L 29.968505 12.075561 
" clip-path="url(#p8870bae1ae)" style="fill: none; stroke: #000000; stroke-width: 2"/>
   </g>
  </g>
 </g>
 <defs>
  <clipPath id="p8870bae1ae">
   <rect x="0" y="0" width="357.12" height="142.100463"/>
  </clipPath>
 </defs>
</svg>
