<?xml version="1.0" encoding="utf-8" standalone="no"?>
<!DOCTYPE svg PUBLIC "-//W3C//DTD SVG 1.1//EN"
  "http://www.w3.org/Graphics/SVG/1.1/DTD/svg11.dtd">
<svg xmlns:xlink="http://www.w3.org/1999/xlink" width="300.116919pt" height="266.112pt" viewBox="0 0 300.116919 266.112" xmlns="http://www.w3.org/2000/svg" version="1.1">
 <metadata>
  <rdf:RDF xmlns:dc="http://purl.org/dc/elements/1.1/" xmlns:cc="http://creativecommons.org/ns#" xmlns:rdf="http://www.w3.org/1999/02/22-rdf-syntax-ns#">
   <cc:Work>
    <dc:type rdf:resource="http://purl.org/dc/dcmitype/StillImage"/>
    <dc:date>2024-02-02T21:58:01.155230</dc:date>
    <dc:format>image/svg+xml</dc:format>
    <dc:creator>
     <cc:Agent>
      <dc:title>Matplotlib v3.8.2, https://matplotlib.org/</dc:title>
     </cc:Agent>
    </dc:creator>
   </cc:Work>
  </rdf:RDF>
 </metadata>
 <defs>
  <style type="text/css">*{stroke-linejoin: round; stroke-linecap: butt}</style>
 </defs>
 <g id="figure_1">
  <g id="patch_1">
   <path d="M 0 266.112 
L 300.116919 266.112 
L 300.116919 0 
L 0 0 
L 0 266.112 
z
" style="fill: none"/>
  </g>
  <g id="axes_1">
   <g id="PatchCollection_1">
    <path d="M 215.787557 135.208619 
L 215.800891 135.746545 
L 215.514202 135.469177 
L 215.374191 135.152585 
L 214.807481 133.868474 
L 215.124172 133.853531 
L 215.125839 133.854465 
L 215.227513 133.868474 
L 215.634212 134.748207 
L 215.787557 135.208619 
" clip-path="url(#pfe37dcb8f4)" style="fill: none; stroke: #000000; stroke-width: 2"/>
    <path d="M 215.862563 117.356202 
L 216.310931 117.527106 
L 216.442608 117.917476 
L 216.51428 118.339598 
L 216.777634 118.610429 
L 216.777634 118.752381 
L 216.632623 118.729968 
L 216.364268 118.687009 
L 215.99424 118.263018 
L 215.872563 118.122933 
L 215.43753 117.983782 
L 215.237514 117.863309 
L 215.042499 117.627967 
L 214.834149 117.47294 
L 214.832482 117.47294 
L 214.37078 117.695208 
L 214.180765 117.541114 
L 214.037421 117.271217 
L 213.957414 117.029337 
L 213.957414 117.028404 
L 214.072423 116.879914 
L 214.207434 116.78559 
L 214.357446 116.738895 
L 214.527459 116.729556 
L 214.992495 116.790259 
L 215.152507 116.892988 
L 215.332521 117.008792 
L 215.497534 117.15448 
L 215.602542 117.245068 
L 215.862563 117.356202 
" clip-path="url(#pfe37dcb8f4)" style="fill: none; stroke: #000000; stroke-width: 2"/>
    <path d="M 230.72318 107.958108 
L 230.160608 108.200819 
L 229.676108 108.044623 
L 229.281763 107.699328 
L 229.69114 107.045551 
L 230.717446 107.081404 
L 230.72318 107.958108 
" clip-path="url(#pfe37dcb8f4)" style="fill: none; stroke: #000000; stroke-width: 2"/>
    <path d="M 226.87342 106.188636 
L 226.341712 106.296034 
L 226.108361 106.413706 
L 226.033355 106.658387 
L 226.130029 106.759248 
L 226.211702 106.844233 
L 226.558396 106.880655 
L 227.155109 106.782596 
L 227.413462 106.692008 
L 227.458466 106.736835 
L 227.501802 106.737769 
L 227.598477 106.88906 
L 227.688484 107.062766 
L 227.711819 107.127205 
L 227.713486 107.129072 
L 228.043511 107.414845 
L 228.435208 107.754785 
L 228.435208 107.925688 
L 227.651814 107.981722 
L 226.935092 107.941565 
L 226.338378 107.695015 
L 225.930013 107.1739 
L 225.893344 107.127205 
L 225.923346 106.815282 
L 225.853341 106.367945 
L 225.753333 106.188636 
L 225.825005 106.07937 
L 225.853341 106.056956 
L 225.855007 106.059758 
L 225.893344 106.188636 
L 225.895011 106.1849 
L 225.96835 106.010261 
L 226.068357 105.870176 
L 226.188367 105.773051 
L 226.323377 105.717951 
L 226.325044 105.718885 
L 226.681739 105.908466 
L 226.798414 106.026137 
L 226.87342 106.188636 
" clip-path="url(#pfe37dcb8f4)" style="fill: none; stroke: #000000; stroke-width: 2"/>
    <path d="M 194.97927 35.323433 
L 195.02594 35.557841 
L 194.805923 35.36826 
L 194.735918 35.25806 
L 194.625909 35.256192 
L 194.775921 35.148793 
L 194.899264 35.179612 
L 194.97927 35.323433 
" clip-path="url(#pfe37dcb8f4)" style="fill: none; stroke: #000000; stroke-width: 2"/>
    <path d="M 204.113314 33.29407 
L 204.993383 33.989825 
L 204.551682 33.692845 
L 201.3631 32.359237 
L 200.771388 32.267714 
L 201.413104 32.28826 
L 202.46652 32.770152 
L 202.946557 32.893427 
L 203.561605 33.00923 
L 204.113314 33.29407 
" clip-path="url(#pfe37dcb8f4)" style="fill: none; stroke: #000000; stroke-width: 2"/>
    <path d="M 197.391124 31.727921 
L 200.621376 32.110819 
L 200.491366 32.209813 
L 200.233012 32.209813 
L 199.59963 32.094943 
L 198.991249 32.009958 
L 198.381201 31.92404 
L 197.682814 32.110819 
L 197.346121 32.038909 
L 196.811079 32.222887 
L 194.342554 33.498594 
L 193.909187 33.847872 
L 194.149205 33.495792 
L 194.625909 33.271656 
L 195.022607 33.06433 
L 195.27596 32.921444 
L 195.549314 32.728127 
L 196.616064 32.252772 
L 196.856083 32.030504 
L 197.391124 31.727921 
" clip-path="url(#pfe37dcb8f4)" style="fill: none; stroke: #000000; stroke-width: 2"/>
    <path d="M 37.580347 25.617418 
L 38.003713 25.62022 
L 39.137135 25.544574 
L 39.623839 25.694932 
L 39.998869 25.487606 
L 44.429214 24.374399 
L 48.271179 23.129511 
L 49.187917 22.992228 
L 51.19474 23.091221 
L 59.292038 25.264405 
L 65.200831 26.025532 
L 65.865883 26.313173 
L 67.300995 26.284222 
L 68.766109 26.965035 
L 69.606174 27.217188 
L 70.546247 27.224659 
L 71.649667 26.923009 
L 72.679747 27.501093 
L 72.909765 27.551524 
L 73.469808 27.86438 
L 74.759909 28.281833 
L 76.656723 28.564804 
L 76.990082 28.804816 
L 77.396781 28.49196 
L 77.640133 28.520911 
L 79.063577 28.539589 
L 79.366934 28.791742 
L 79.366934 29.118606 
L 79.716961 29.589292 
L 79.776966 29.657466 
L 79.861973 30.136557 
L 80.006984 30.394313 
L 80.417016 31.39732 
L 80.907054 31.798897 
L 81.4971 32.120158 
L 82.147151 32.333087 
L 83.42725 32.520801 
L 84.393992 32.811244 
L 84.847361 32.579637 
L 85.880775 33.106356 
L 87.092536 32.89903 
L 89.824415 31.727921 
L 90.037765 31.882948 
L 90.14444 32.207945 
L 90.231113 32.845798 
L 90.591141 33.676034 
L 90.731152 34.617405 
L 91.3412 34.970419 
L 92.327943 35.106768 
L 96.243248 35.16 
L 97.013308 35.625082 
L 98.088392 35.607338 
L 99.358491 35.870697 
L 99.773523 35.771704 
L 100.663592 35.343978 
L 101.131962 35.25806 
L 101.895355 35.489667 
L 102.638746 36.053742 
L 103.643825 36.092966 
L 109.592621 38.364208 
L 109.814305 39.189775 
L 109.954316 39.290636 
L 110.336012 39.40177 
L 113.894623 41.212601 
L 117.80326 40.960448 
L 123.627047 38.237198 
L 124.713799 37.451789 
L 125.685541 36.967095 
L 125.990565 36.571122 
L 129.007466 34.453039 
L 129.325824 33.847872 
L 129.895869 33.97675 
L 130.490915 33.705919 
L 131.437655 32.893427 
L 131.175968 32.649679 
L 131.005955 32.736532 
L 131.280977 32.341493 
L 131.440989 32.336823 
L 131.565999 32.579637 
L 131.71601 32.579637 
L 131.951029 32.329352 
L 133.186125 31.326344 
L 133.456146 31.201202 
L 134.031191 30.528794 
L 134.476225 30.349486 
L 134.806251 30.058109 
L 134.654573 30.002075 
L 134.66624 29.887205 
L 135.226284 29.589292 
L 135.166279 30.245823 
L 135.817997 30.709971 
L 136.58639 30.93504 
L 137.336448 31.013488 
L 136.764737 31.468297 
L 136.781405 31.617721 
L 136.844743 31.618655 
L 136.916415 31.640134 
L 136.671396 31.797963 
L 136.744735 31.976338 
L 137.18477 32.267714 
L 138.036503 31.782087 
L 137.931494 32.044513 
L 138.221517 32.207945 
L 138.316524 32.189267 
L 138.396531 32.036107 
L 139.014912 31.468297 
L 139.154923 31.640134 
L 139.434945 31.154507 
L 139.466614 31.587836 
L 139.714967 31.782087 
L 140.006656 31.013488 
L 139.691631 30.857527 
L 138.73489 31.154507 
L 139.014912 31.013488 
L 139.014912 30.856593 
L 138.684886 30.954652 
L 137.476459 31.013488 
L 137.476459 30.856593 
L 138.236518 30.668879 
L 138.956574 30.279443 
L 140.208338 29.197054 
L 140.651706 28.498497 
L 140.936728 27.573003 
L 141.018401 26.612021 
L 140.845055 25.813537 
L 140.985066 25.813537 
L 141.268421 26.682997 
L 141.551776 26.991184 
L 141.965142 27.067764 
L 141.391764 26.648443 
L 141.08674 25.971366 
L 141.218417 25.566988 
L 143.148567 26.623228 
L 143.888625 26.703543 
L 144.775361 26.597079 
L 147.657252 25.855563 
L 153.747726 23.776703 
L 153.747726 23.933598 
L 153.437702 23.975624 
L 151.545888 24.659238 
L 147.88727 26.648443 
L 147.442235 26.753974 
L 146.308813 27.393695 
L 145.227062 27.553391 
L 144.915372 28.17817 
L 145.482082 28.290238 
L 145.752103 28.17817 
L 146.062128 28.352809 
L 146.637172 28.322924 
L 147.192216 28.158558 
L 147.442235 27.93629 
L 147.627249 27.5674 
L 148.037281 27.674798 
L 148.842344 28.335065 
L 148.972354 27.93629 
L 149.667408 27.217188 
L 150.15578 26.995854 
L 151.145857 27.370347 
L 151.6959 27.27042 
L 151.942585 27.393695 
L 151.822576 27.416108 
L 151.802575 27.551524 
L 152.079263 27.624368 
L 152.775984 27.30404 
L 153.047671 27.067764 
L 152.947664 27.047218 
L 152.922662 26.923943 
L 153.047671 26.753974 
L 154.077752 27.069632 
L 154.44778 26.425241 
L 154.327771 26.234726 
L 154.399443 26.083434 
L 154.787807 25.674386 
L 154.759471 25.450251 
L 154.997823 25.315769 
L 155.93623 25.440912 
L 156.332927 25.743495 
L 156.36293 25.939614 
L 156.722958 25.925605 
L 156.92964 25.665047 
L 156.557945 25.485739 
L 156.812965 25.356861 
L 156.952976 25.377406 
L 156.557945 24.855357 
L 155.732881 24.267 
L 154.757805 23.862622 
L 153.832733 23.832737 
L 154.536121 23.543228 
L 156.277923 23.291076 
L 156.917973 23.35925 
L 158.80812 23.933598 
L 162.036705 25.342852 
L 162.87677 25.970432 
L 165.008603 26.923009 
L 165.990346 27.058425 
L 166.51872 27.041615 
L 169.608961 26.189899 
L 171.444104 25.185957 
L 172.190829 24.950614 
L 172.98089 24.966491 
L 173.634275 25.286818 
L 174.030972 26.171221 
L 174.677689 27.012664 
L 174.949377 27.668261 
L 175.274402 28.061433 
L 176.147804 28.726369 
L 176.899529 28.946769 
L 177.534578 29.589292 
L 177.829601 29.720038 
L 178.851347 30.470892 
L 178.224632 30.34108 
L 176.199474 29.118606 
L 176.619507 29.275502 
L 176.474496 29.007472 
L 175.664433 28.632979 
L 174.661021 28.17817 
L 174.471006 27.595417 
L 174.114312 27.224659 
L 174.631019 27.194774 
L 172.85088 25.087898 
L 172.844213 25.185957 
L 172.500853 25.031864 
L 172.367509 25.113113 
L 172.284169 25.342852 
L 172.004148 25.185957 
L 171.999147 25.259735 
L 172.004148 25.485739 
L 171.930809 25.43811 
L 171.710791 25.342852 
L 171.680789 25.651039 
L 171.584115 25.813537 
L 172.004148 25.813537 
L 171.890805 26.068492 
L 172.204163 26.609219 
L 172.144158 26.923943 
L 172.284169 26.923943 
L 172.284169 27.067764 
L 172.144158 27.067764 
L 172.189162 27.169559 
L 172.284169 27.393695 
L 172.144158 27.393695 
L 171.939143 26.90153 
L 171.730793 26.77452 
L 171.444104 26.753974 
L 171.520777 26.582136 
L 171.439104 26.559723 
L 171.290759 26.712882 
L 171.164082 27.067764 
L 171.359097 27.057491 
L 171.444104 26.923943 
L 171.704124 27.077103 
L 171.864137 27.067764 
L 171.864137 27.224659 
L 171.710791 27.224659 
L 171.790798 27.530978 
L 172.069153 27.68227 
L 172.284169 27.693476 
L 171.930809 27.887727 
L 171.727459 27.841032 
L 171.444104 27.693476 
L 171.419102 27.841032 
L 171.357431 27.837297 
L 171.290759 27.86438 
L 171.384099 27.930687 
L 171.584115 28.17817 
L 171.297426 28.526514 
L 171.239088 28.78894 
L 171.424102 28.93743 
L 171.864137 28.946769 
L 171.864137 29.118606 
L 171.18075 28.965447 
L 170.88406 29.118606 
L 170.610706 28.991596 
L 170.467361 29.360486 
L 170.724048 29.639722 
L 170.467361 29.746187 
L 170.467361 29.887205 
L 170.584037 30.105738 
L 170.033994 30.385908 
L 169.990657 30.709971 
L 170.119001 30.911693 
L 170.344018 30.968661 
L 170.594038 30.856593 
L 170.500697 30.783749 
L 170.467361 30.699698 
L 171.254089 30.951851 
L 171.367431 31.468297 
L 171.917474 31.680292 
L 172.42418 32.110819 
L 172.687534 31.582232 
L 172.844213 31.468297 
L 172.75754 31.950189 
L 172.844213 32.110819 
L 172.564191 32.110819 
L 172.564191 32.267714 
L 172.844213 32.267714 
L 172.719203 32.353633 
L 172.704202 32.579637 
L 172.904218 32.467569 
L 172.98089 32.408733 
L 173.000892 32.503991 
L 173.120901 32.579637 
L 173.120901 32.408733 
L 173.260912 32.408733 
L 173.159237 32.73373 
L 173.257579 32.951329 
L 173.427592 32.938254 
L 173.540934 32.579637 
L 173.779286 32.547884 
L 174.489341 31.95766 
L 174.954377 32.110819 
L 174.661021 32.110819 
L 174.661021 32.267714 
L 175.009382 32.313476 
L 175.231065 32.110819 
L 175.524422 32.267714 
L 175.439415 32.510528 
L 175.371076 32.893427 
L 175.664433 32.736532 
L 175.517754 33.143712 
L 175.371076 33.207217 
L 175.371076 33.350104 
L 175.509421 33.546222 
L 175.519421 33.793706 
L 175.094388 34.14672 
L 175.094388 34.303615 
L 175.484419 34.266259 
L 175.791109 33.989825 
L 175.881116 34.420352 
L 176.199474 34.789242 
L 175.841113 34.930261 
L 175.664433 35.25806 
L 175.93112 35.414955 
L 176.31115 35.260861 
L 176.619507 35.414955 
L 176.619507 35.557841 
L 176.479496 35.557841 
L 176.479496 35.728745 
L 176.944532 36.018254 
L 177.217887 36.028526 
L 177.469573 35.870697 
L 177.469573 35.728745 
L 177.16955 35.721274 
L 176.837857 35.343978 
L 176.771185 35.101165 
L 177.077876 35.16467 
L 177.761263 35.414955 
L 177.597916 35.101165 
L 178.029617 35.101165 
L 177.924609 34.856483 
L 177.924609 34.770564 
L 178.169628 34.617405 
L 178.239633 34.784573 
L 178.449649 34.789242 
L 178.369643 34.538957 
L 178.529656 34.375525 
L 178.754673 34.355913 
L 178.978024 34.736944 
L 179.559736 34.835937 
L 179.848092 34.789242 
L 180.339797 34.514676 
L 180.569815 34.109364 
L 180.50981 33.686307 
L 180.139781 33.350104 
L 180.699825 33.350104 
L 180.808166 32.346162 
L 180.699825 31.953924 
L 180.304794 31.331948 
L 180.559814 31.154507 
L 179.818089 30.834179 
L 179.399723 30.76974 
L 179.149704 30.856593 
L 179.004693 30.470892 
L 180.918175 30.783749 
L 181.319873 30.984537 
L 181.551558 31.013488 
L 181.601562 31.39732 
L 181.814911 31.691499 
L 182.119935 31.884816 
L 182.749984 32.044513 
L 184.62013 33.826392 
L 185.200175 34.789242 
L 185.73855 35.255258 
L 186.350265 35.624148 
L 187.085322 35.843614 
L 187.985392 35.870697 
L 188.845459 35.764233 
L 190.370578 35.379467 
L 193.385812 33.842268 
L 193.755841 33.676034 
L 193.755841 33.847872 
L 193.102457 34.089752 
L 191.960702 34.919988 
L 191.29565 35.101165 
L 190.175563 35.60547 
L 188.415425 36.042535 
L 189.408836 36.042535 
L 189.408836 36.197562 
L 189.11548 36.354457 
L 189.978881 36.264803 
L 190.235567 36.042535 
L 190.318907 36.196628 
L 190.52559 36.197562 
L 191.785688 35.414955 
L 193.269137 35.052602 
L 193.560826 35.12638 
L 193.492487 35.239382 
L 193.335809 35.25806 
L 193.335809 35.414955 
L 194.035863 35.101165 
L 194.035863 34.930261 
L 193.47582 34.930261 
L 193.47582 34.789242 
L 193.752508 34.677174 
L 194.099201 34.766829 
L 194.415893 34.983493 
L 194.655911 35.386938 
L 194.735918 35.728745 
L 194.452562 35.728745 
L 195.132615 35.967823 
L 195.449307 35.951013 
L 195.725995 35.728745 
L 195.725995 35.557841 
L 195.432639 35.414955 
L 195.432639 35.25806 
L 196.422716 34.930261 
L 196.321041 34.75749 
L 196.562727 34.14672 
L 196.422716 34.14672 
L 196.291039 34.302681 
L 195.732662 34.841541 
L 195.866006 34.930261 
L 195.125948 34.983493 
L 194.312551 34.789242 
L 194.930933 34.729473 
L 195.282627 34.378327 
L 195.866006 33.521007 
L 196.112691 33.405204 
L 196.856083 33.207217 
L 197.486132 32.734664 
L 197.836159 32.736532 
L 197.836159 32.893427 
L 197.266115 32.893427 
L 197.266115 33.036313 
L 197.521135 33.218424 
L 198.476209 34.538023 
L 198.391202 34.6641 
L 198.132849 34.727605 
L 197.836159 34.930261 
L 197.811157 34.873293 
L 197.786155 34.7743 
L 197.682814 34.789242 
L 197.682814 34.930261 
L 198.026174 35.16 
L 198.209521 35.456046 
L 198.201187 35.807192 
L 197.97617 36.197562 
L 199.08959 35.827738 
L 199.781311 35.870697 
L 199.781311 35.728745 
L 199.361278 35.557841 
L 199.361278 35.728745 
L 199.236268 35.728745 
L 199.236268 35.557841 
L 200.771388 34.930261 
L 200.621376 35.101165 
L 200.771388 35.25806 
L 201.091413 35.115173 
L 201.236424 35.213232 
L 201.319764 35.414955 
L 201.471442 35.414955 
L 201.456441 34.952675 
L 201.751464 34.930261 
L 201.556449 34.830334 
L 201.159751 34.835937 
L 200.923066 34.789242 
L 203.161574 34.617405 
L 202.98156 34.200886 
L 203.569939 34.092553 
L 203.569939 33.676034 
L 204.001639 33.847872 
L 204.276661 33.77316 
L 205.476754 34.303615 
L 206.97187 34.453039 
L 207.371902 34.617405 
L 207.371902 34.459576 
L 207.836938 34.594991 
L 208.516991 34.552032 
L 212.743987 33.491122 
L 216.690961 31.982875 
L 219.829172 30.030316 
L 220.446211 31.29349 
L 223.261597 39.368131 
L 225.566827 45.248577 
L 226.013478 47.073911 
L 226.180708 48.412964 
L 226.709916 49.128153 
L 226.705682 49.440085 
L 226.474948 50.52888 
L 226.661229 51.009231 
L 228.005417 52.287795 
L 230.7827 60.319739 
L 230.911826 61.56628 
L 232.611642 66.123091 
L 233.138733 68.485707 
L 233.10063 70.072051 
L 233.244575 70.621193 
L 233.888966 71.89866 
L 233.482268 72.148011 
L 233.188912 72.524372 
L 232.893889 73.209854 
L 232.632202 73.308848 
L 232.793881 73.364882 
L 232.78388 73.480685 
L 232.473856 73.686143 
L 232.423852 73.818757 
L 232.503859 73.949502 
L 232.218836 74.047562 
L 232.363848 74.249284 
L 232.125496 74.47342 
L 231.553785 75.299921 
L 231.232093 75.501643 
L 230.813727 76.143232 
L 230.992074 76.459823 
L 230.763723 77.107016 
L 230.658715 77.397458 
L 230.548706 78.861812 
L 229.961994 79.370787 
L 229.861986 80.060005 
L 229.593632 80.967755 
L 229.585298 82.576863 
L 229.788647 82.860768 
L 229.771979 83.406166 
L 229.431953 83.60135 
L 228.901911 84.016936 
L 228.855241 84.461472 
L 228.958582 84.928421 
L 228.981918 86.293782 
L 228.435208 86.684152 
L 228.495213 87.035298 
L 228.555218 87.681556 
L 228.508547 88.033636 
L 228.701896 88.409063 
L 228.483545 88.658414 
L 228.563552 88.964733 
L 228.423541 89.361641 
L 228.28353 89.59138 
L 228.173521 89.997626 
L 227.693484 90.666298 
L 227.408462 91.726273 
L 226.585064 92.953417 
L 226.185033 93.750033 
L 226.451721 94.454193 
L 226.205035 94.902464 
L 225.3333 95.645848 
L 225.461644 95.816752 
L 225.183288 95.952167 
L 225.03161 96.253816 
L 224.763256 97.525787 
L 224.418229 98.186054 
L 224.061534 99.028431 
L 224.138207 99.713913 
L 224.341556 100.361105 
L 224.184877 100.746805 
L 224.803259 101.775962 
L 225.053278 102.084149 
L 224.94327 102.417551 
L 224.898266 102.777102 
L 224.467923 104.226182 
L 224.821707 104.868893 
L 224.481567 106.48655 
L 224.634912 106.658387 
L 223.934858 106.815282 
L 223.714841 107.354142 
L 223.448153 107.51664 
L 223.323144 107.850043 
L 222.714763 108.037756 
L 222.513081 108.068575 
L 222.55475 108.161031 
L 222.511414 108.586889 
L 222.301397 109.28171 
L 221.963038 109.493705 
L 221.898033 109.372298 
L 221.593009 109.2098 
L 221.451331 109.348951 
L 221.312987 109.857926 
L 221.124639 110.119418 
L 221.292986 110.402389 
L 221.034632 110.648938 
L 220.357913 110.88895 
L 220.112894 110.883347 
L 220.257905 111.380181 
L 220.997963 111.387653 
L 220.997963 111.529605 
L 220.844617 111.529605 
L 220.951292 111.780824 
L 221.124639 112.156252 
L 220.844617 112.00029 
L 220.997963 112.156252 
L 220.997963 112.327155 
L 220.844617 112.327155 
L 220.387915 111.647277 
L 219.614522 110.991679 
L 219.307831 110.88895 
L 217.334344 110.672286 
L 216.842639 110.35476 
L 215.367524 108.623311 
L 215.190844 108.640121 
L 213.760732 107.433523 
L 213.492378 107.416713 
L 213.25736 107.59789 
L 212.974004 106.985252 
L 212.837327 107.127205 
L 212.652313 106.904937 
L 210.880508 105.547047 
L 210.892176 104.972699 
L 209.910433 104.370334 
L 209.900432 103.965022 
L 209.612076 103.714737 
L 209.020363 102.747217 
L 208.963692 102.340037 
L 208.813681 102.224234 
L 208.770344 102.084149 
L 208.642 102.084149 
L 208.642 102.255986 
L 208.490322 102.255986 
L 208.2103 101.863749 
L 207.796935 100.574968 
L 207.650257 100.674895 
L 206.811858 99.278716 
L 204.133316 97.688286 
L 203.441596 96.585351 
L 202.803212 95.94563 
L 202.806546 95.816752 
L 201.283094 94.635369 
L 200.731384 93.729487 
L 200.493033 93.609014 
L 200.621376 93.43811 
L 200.621376 93.609014 
L 200.771388 93.609014 
L 200.631377 92.85349 
L 200.28635 92.797456 
L 200.113003 93.104708 
L 200.493033 93.43811 
L 200.149673 93.323241 
L 199.929655 93.029063 
L 199.816313 92.606006 
L 199.59963 91.293878 
L 199.236268 90.602793 
L 199.439617 90.146116 
L 199.921321 88.565958 
L 199.549626 88.079397 
L 199.439617 87.618051 
L 198.952913 87.311732 
L 198.821236 86.887742 
L 198.672891 85.432727 
L 198.882907 85.019943 
L 198.739563 83.536911 
L 198.889574 83.38562 
L 198.506211 82.822479 
L 198.381201 82.839289 
L 198.216189 82.4181 
L 198.041175 82.351793 
L 197.836159 82.425571 
L 197.622809 82.156608 
L 196.856083 81.656972 
L 196.499388 80.819265 
L 196.069355 80.435432 
L 195.662656 79.876027 
L 195.399303 79.695784 
L 195.305962 79.448301 
L 194.382557 78.507864 
L 193.602496 78.153917 
L 192.902442 77.567428 
L 192.549081 76.319739 
L 191.955701 75.888277 
L 191.505666 74.889005 
L 191.580672 74.033553 
L 191.502333 73.643184 
L 190.950623 73.381692 
L 189.952212 72.681267 
L 190.108891 72.681267 
L 189.942211 72.433784 
L 189.685524 72.367477 
L 189.790533 72.270352 
L 189.812201 72.041546 
L 189.685524 72.041546 
L 189.540513 72.416974 
L 189.685524 72.681267 
L 189.408836 72.681267 
L 189.562181 71.837023 
L 189.595517 70.763038 
L 189.355499 69.823536 
L 188.708782 69.377132 
L 188.708782 69.234246 
L 188.832125 68.958745 
L 188.758786 67.628873 
L 188.975469 66.941523 
L 188.910464 66.308339 
L 188.708782 65.914234 
L 188.138737 65.053179 
L 188.045397 64.908425 
L 187.57536 64.434938 
L 187.145327 64.230414 
L 187.462018 63.794283 
L 187.57536 63.721439 
L 187.572026 63.080784 
L 187.308673 62.633446 
L 186.470274 61.826557 
L 186.731961 61.601488 
L 186.598617 61.199911 
L 186.358599 60.630232 
L 186.598617 60.431312 
L 186.55028 60.128729 
L 186.598617 59.93261 
L 186.470274 59.93261 
L 186.181918 60.734829 
L 186.348598 61.043016 
L 186.448606 61.210184 
L 186.470274 61.512767 
L 186.318596 61.512767 
L 186.270258 61.222325 
L 186.110246 61.064496 
L 185.880228 61.054223 
L 185.620208 61.199911 
L 185.280181 61.076636 
L 184.88015 61.327855 
L 184.348442 62.140347 
L 184.325107 62.561536 
L 184.450117 62.903343 
L 184.738472 63.142421 
L 185.200175 63.250754 
L 184.831813 63.543998 
L 182.809989 66.291529 
L 182.098267 67.724131 
L 182.084933 68.673906 
L 181.964923 69.061474 
L 181.679901 69.377132 
L 181.679901 69.548036 
L 182.129936 70.034597 
L 182.704981 71.082432 
L 184.008416 71.962165 
L 184.950156 73.045488 
L 185.590205 73.422783 
L 186.668623 74.674208 
L 186.878639 75.124348 
L 187.165328 76.445815 
L 187.435349 77.151843 
L 187.715371 77.711248 
L 187.640365 78.12123 
L 188.275415 81.101302 
L 187.850381 81.738222 
L 187.630364 81.837215 
L 187.558692 82.040805 
L 187.715371 82.283619 
L 187.57536 83.772254 
L 187.710371 84.020671 
L 188.555436 84.947099 
L 188.708782 85.887536 
L 189.255491 86.443206 
L 190.108891 87.625522 
L 190.83228 87.750664 
L 191.290649 88.23816 
L 191.572338 88.932981 
L 192.560748 92.81053 
L 192.779099 92.890846 
L 193.755841 93.43811 
L 194.499233 94.215115 
L 194.690914 94.62603 
L 195.305962 94.863241 
L 196.261036 96.886066 
L 196.202698 96.884198 
L 196.131026 96.899141 
L 197.03943 97.637855 
L 197.431127 98.130954 
L 197.402792 98.624053 
L 197.699482 99.010687 
L 197.919499 99.575696 
L 198.381201 100.218218 
L 199.352944 101.246441 
L 199.591296 101.738606 
L 200.201343 102.084149 
L 200.353022 102.818194 
L 201.046409 103.05914 
L 201.726462 103.885641 
L 202.171497 104.136859 
L 202.129827 104.794324 
L 202.283172 104.936277 
L 202.743208 104.934409 
L 202.919888 105.274349 
L 203.369923 105.472335 
L 204.293329 105.717951 
L 205.743441 107.03755 
L 206.211811 108.016277 
L 206.600175 108.473887 
L 207.09188 109.805627 
L 207.191888 110.125021 
L 207.371902 110.88895 
L 207.231891 110.88895 
L 206.951869 110.88895 
L 206.716851 110.379975 
L 205.68677 109.885943 
L 205.121726 109.634724 
L 204.943379 110.15584 
L 205.121726 110.57516 
L 205.726773 111.259708 
L 205.951791 111.792031 
L 206.671847 111.608053 
L 206.561838 112.251509 
L 206.32182 112.87909 
L 206.520169 113.096688 
L 207.081879 113.501066 
L 207.371902 114.208028 
L 207.156885 114.027786 
L 206.671847 113.410478 
L 206.520169 113.410478 
L 206.591841 113.702789 
L 206.671847 113.90918 
L 206.520169 113.90918 
L 206.391825 113.460909 
L 206.03013 113.498265 
L 205.633433 113.81579 
L 205.411749 114.208028 
L 205.89012 114.456445 
L 206.230146 114.906585 
L 206.811858 115.932006 
L 206.680181 116.262606 
L 206.671847 116.729556 
L 207.011874 116.979841 
L 207.906943 117.387021 
L 208.2103 117.669058 
L 208.270305 117.878252 
L 208.361979 118.610429 
L 208.992028 119.400508 
L 209.122038 119.865589 
L 209.41206 121.202933 
L 210.090447 121.849191 
L 210.880508 122.385249 
L 212.150607 123.088475 
L 212.460631 123.722593 
L 212.370624 124.669567 
L 212.137273 124.906777 
L 212.383959 126.277741 
L 212.597308 126.593399 
L 213.334032 127.19483 
L 213.857407 128.082034 
L 213.550716 128.040943 
L 213.55405 128.408899 
L 213.697394 128.722689 
L 214.28244 129.641646 
L 214.737475 130.633447 
L 215.647546 131.423525 
L 215.800891 132.516188 
L 215.647546 132.770208 
L 215.310853 132.787952 
L 214.900821 132.496576 
L 214.617466 133.231554 
L 214.657469 134.043113 
L 214.737475 134.344762 
L 214.742475 134.939656 
L 214.337444 136.333967 
L 214.527459 137.001705 
L 214.814148 137.242651 
L 215.800891 137.641426 
L 216.014241 137.962688 
L 216.21759 138.672451 
L 216.882642 139.554052 
L 217.174332 140.1835 
L 218.177743 142.81336 
L 219.362835 144.774548 
L 221.09297 148.799654 
L 221.893032 149.985705 
L 222.664759 151.959968 
L 224.431563 154.52072 
L 224.631579 155.170714 
L 226.005019 157.242102 
L 226.921757 158.311417 
L 228.701896 161.883581 
L 228.981918 162.97064 
L 229.478623 163.941895 
L 229.69364 165.113004 
L 230.063669 165.748056 
L 231.075414 167.175988 
L 231.395439 168.156582 
L 232.00882 169.113828 
L 232.253839 170.095356 
L 234.962383 174.875052 
L 235.04239 175.611899 
L 235.26115 176.234264 
L 235.999131 177.132287 
L 236.065803 177.552541 
L 236.139142 178.841322 
L 236.419163 179.440885 
L 237.509248 180.36638 
L 237.862609 181.024778 
L 238.452655 183.127919 
L 239.499403 185.085372 
L 239.167385 185.792819 
L 239.169677 186.423261 
L 240.012777 186.757052 
L 241.031421 188.720261 
L 243.799738 190.878349 
L 244.234772 191.413473 
L 244.988269 193.635851 
L 245.54315 194.254736 
L 246.323318 195.404336 
L 246.664961 195.350792 
L 246.322057 194.713752 
L 246.529599 194.678204 
L 246.94516 195.120309 
L 247.515977 195.367612 
L 248.259725 196.163176 
L 248.553708 196.799762 
L 248.60563 197.471873 
L 249.22766 197.860958 
L 249.867073 197.737296 
L 250.90404 198.056268 
L 251.336042 198.286644 
L 251.646868 198.623064 
L 252.078588 199.650087 
L 252.441316 200.146321 
L 252.302933 200.358509 
L 251.577412 199.454737 
L 251.283631 199.436714 
L 250.229 199.94836 
L 249.055027 199.541489 
L 248.467843 199.52382 
L 248.087867 199.36465 
L 247.715043 198.886534 
L 247.485025 198.696019 
L 246.734967 198.428924 
L 246.55052 198.569332 
L 246.26993 199.106934 
L 246.119383 199.790661 
L 246.25839 200.887551 
L 245.932931 202.541907 
L 246.106125 203.125522 
L 246.484983 203.212557 
L 246.657577 203.49523 
L 246.279931 209.100589 
L 246.233261 209.448 
L 246.503282 210.131614 
L 247.296677 211.454949 
L 247.50336 212.190862 
L 247.480025 213.276053 
L 247.979301 215.976567 
L 249.218238 218.309352 
L 249.617045 219.162594 
L 250.035224 221.621376 
L 250.44989 222.413058 
L 251.305323 223.518125 
L 251.850365 223.829113 
L 251.603679 223.472364 
L 251.025301 222.418926 
L 251.425332 222.432 
L 251.687019 222.638392 
L 252.00371 223.37337 
L 252.285399 224.683631 
L 252.790438 225.185135 
L 253.20047 225.794037 
L 253.568048 226.295011 
L 254.354882 226.92146 
L 255.785671 227.637554 
L 256.370717 227.88317 
L 257.510806 227.966287 
L 259.160934 228.298755 
L 260.741057 228.849755 
L 261.321102 229.222381 
L 262.31618 230.21138 
L 262.641205 230.766116 
L 262.760617 231.826095 
L 263.109777 232.523512 
L 264.361339 233.587426 
L 264.980546 233.871431 
L 264.915023 233.511394 
L 265.023651 233.511248 
L 265.458688 234.028388 
L 265.350621 234.681121 
L 265.698799 235.625862 
L 267.762307 236.682507 
L 268.218366 236.99759 
L 269.456765 238.078805 
L 271.308547 239.924866 
L 271.698577 240.143398 
L 272.001934 240.112579 
L 272.191949 239.746491 
L 272.356962 239.791318 
L 272.987011 240.346054 
L 273.448713 241.308904 
L 273.757071 241.606818 
L 275.029392 242.288923 
L 275.092175 243.405508 
L 274.788818 243.905144 
L 163.201796 243.913465 
L 164.330067 240.405123 
L 164.355469 239.831074 
L 164.173421 239.321072 
L 163.722536 238.860884 
L 163.34574 238.661627 
L 162.95201 238.59758 
L 162.558279 238.671115 
L 162.175132 238.884605 
L 161.645924 239.489491 
L 159.641285 243.766395 
L 159.370331 243.936 
L 31.008844 243.913465 
L 31.008844 78.983453 
L 30.867016 77.662191 
L 30.505038 76.428697 
L 28.807339 72.397306 
L 28.604123 71.603837 
L 28.557553 70.716671 
L 28.743834 68.495195 
L 28.447478 67.551098 
L 27.397529 65.822427 
L 27.259935 64.867062 
L 27.628264 63.214892 
L 27.535123 62.698959 
L 25.771803 58.395963 
L 25.009743 56.886119 
L 25.016094 56.000138 
L 25.344203 55.193623 
L 27.285337 51.913003 
L 27.905569 51.299814 
L 29.101579 49.537341 
L 29.50166 48.749802 
L 29.76203 47.517494 
L 30.382262 45.936487 
L 30.852198 43.755338 
L 31.159139 42.967799 
L 31.288266 42.175516 
L 31.008844 41.250396 
L 30.115541 39.406085 
L 29.84882 38.235452 
L 28.989386 36.346071 
L 28.515216 33.893316 
L 28.496165 32.012237 
L 28.299299 29.24162 
L 28.551202 28.513384 
L 31.878861 25.895767 
L 32.630337 23.945898 
L 33.203998 23.161917 
L 34.483439 22.176 
L 34.453437 22.350639 
L 34.933474 24.583592 
L 35.303503 25.044938 
L 35.746871 25.16261 
L 36.788619 25.224247 
L 37.580347 25.617418 
L 37.580347 25.617418 
" clip-path="url(#pfe37dcb8f4)" style="fill: none; stroke: #000000; stroke-width: 2"/>
   </g>
  </g>
 </g>
 <defs>
  <clipPath id="pfe37dcb8f4">
   <rect x="0" y="-0" width="300.116919" height="266.112"/>
  </clipPath>
 </defs>
</svg>
