<?xml version="1.0" encoding="utf-8" standalone="no"?>
<!DOCTYPE svg PUBLIC "-//W3C//DTD SVG 1.1//EN"
  "http://www.w3.org/Graphics/SVG/1.1/DTD/svg11.dtd">
<svg xmlns:xlink="http://www.w3.org/1999/xlink" width="304.8426pt" height="266.112pt" viewBox="0 0 304.8426 266.112" xmlns="http://www.w3.org/2000/svg" version="1.1">
 <metadata>
  <rdf:RDF xmlns:dc="http://purl.org/dc/elements/1.1/" xmlns:cc="http://creativecommons.org/ns#" xmlns:rdf="http://www.w3.org/1999/02/22-rdf-syntax-ns#">
   <cc:Work>
    <dc:type rdf:resource="http://purl.org/dc/dcmitype/StillImage"/>
    <dc:date>2024-02-02T21:58:01.181235</dc:date>
    <dc:format>image/svg+xml</dc:format>
    <dc:creator>
     <cc:Agent>
      <dc:title>Matplotlib v3.8.2, https://matplotlib.org/</dc:title>
     </cc:Agent>
    </dc:creator>
   </cc:Work>
  </rdf:RDF>
 </metadata>
 <defs>
  <style type="text/css">*{stroke-linejoin: round; stroke-linecap: butt}</style>
 </defs>
 <g id="figure_1">
  <g id="patch_1">
   <path d="M 0 266.112 
L 304.8426 266.112 
L 304.8426 0 
L 0 0 
L 0 266.112 
z
" style="fill: none"/>
  </g>
  <g id="axes_1">
   <g id="PatchCollection_1">
    <path d="M 161.993032 105.54775 
L 163.37533 106.089655 
L 164.470678 106.836172 
L 165.004468 107.667412 
L 165.001382 107.66901 
L 164.813168 108.23809 
L 164.418225 108.671294 
L 164.341088 109.102899 
L 164.628038 109.398628 
L 164.985955 109.413015 
L 165.655506 109.102899 
L 165.374726 108.439506 
L 165.77584 108.324411 
L 165.77584 108.326009 
L 166.173868 108.549805 
L 166.266433 109.099702 
L 166.044277 112.283989 
L 166.152269 112.88504 
L 166.399108 113.450922 
L 167.210592 114.908789 
L 167.58085 114.937563 
L 169.799316 115.589766 
L 170.598458 114.250191 
L 170.916263 114.167067 
L 169.635785 113.743455 
L 169.305638 113.297463 
L 169.589503 112.861062 
L 170.268311 112.640463 
L 171.894363 112.640463 
L 172.807667 112.909018 
L 173.190268 113.177572 
L 173.39391 113.829776 
L 173.508073 114.127104 
L 174.37201 114.37168 
L 175.161895 114.908789 
L 175.649402 115.030278 
L 176.402261 115.153365 
L 176.704639 116.718334 
L 176.470142 117.436077 
L 175.920925 117.731807 
L 174.871859 117.274625 
L 174.520113 117.194698 
L 172.681162 117.65188 
L 171.894363 117.712625 
L 171.082879 117.437676 
L 169.762291 116.791867 
L 168.895268 116.663984 
L 167.016206 117.06202 
L 166.433049 116.956516 
L 165.655506 116.102897 
L 165.313017 116.747108 
L 164.874877 117.081202 
L 164.233096 117.137151 
L 163.304364 116.956516 
L 161.573405 116.313904 
L 161.055043 116.2084 
L 160.197277 116.395429 
L 159.629548 115.61854 
L 158.623679 112.640463 
L 159.320999 112.734777 
L 159.364196 112.904222 
L 159.138955 113.177572 
L 159.67583 113.589995 
L 159.919584 114.250191 
L 160.197277 114.250191 
L 160.555194 114.10952 
L 162.011544 114.785701 
L 162.489795 114.761723 
L 164.081907 114.250191 
L 163.387672 113.003332 
L 162.462026 111.97707 
L 161.332737 111.286502 
L 160.055345 111.030736 
L 158.805722 111.292896 
L 158.361412 111.16821 
L 158.102231 110.471247 
L 158.154684 109.695956 
L 158.487917 109.256358 
L 158.981595 109.192417 
L 160.117055 109.934139 
L 160.619989 109.975701 
L 160.768093 109.662387 
L 160.314526 108.98141 
L 160.061516 108.190134 
L 160.808204 107.824068 
L 162.26764 107.763324 
L 162.418829 107.283763 
L 162.165819 106.660333 
L 161.73385 106.118428 
L 161.35125 105.88664 
L 160.027576 105.97456 
L 159.601778 105.765151 
L 159.138955 105.103357 
L 160.524339 105.216853 
L 161.993032 105.54775 
L 161.993032 105.54775 
" clip-path="url(#pa2fc9434e0)" style="fill: none; stroke: #000000; stroke-width: 2"/>
    <path d="M 165.340786 101.490661 
L 164.665064 101.682485 
L 163.554288 101.311625 
L 162.628642 100.803289 
L 160.999504 100.632246 
L 160.619989 100.240604 
L 160.629246 99.591598 
L 160.931624 98.98735 
L 161.601175 98.731584 
L 162.452769 98.661248 
L 162.789087 98.443847 
L 162.659497 98.114548 
L 162.58236 97.730899 
L 162.566932 97.318477 
L 162.637899 96.886871 
L 162.912507 96.72382 
L 163.869008 97.476732 
L 164.146702 97.638184 
L 164.523132 97.726104 
L 165.20811 98.031424 
L 165.504317 98.501395 
L 165.245136 98.859467 
L 164.615696 99.076868 
L 164.054138 99.594795 
L 163.933804 100.189451 
L 164.171386 100.413246 
L 164.498448 100.592282 
L 164.766885 100.854443 
L 165.155657 101.129391 
L 165.340786 101.490661 
" clip-path="url(#pa2fc9434e0)" style="fill: none; stroke: #000000; stroke-width: 2"/>
    <path d="M 115.112126 35.37353 
L 117.76256 41.487938 
L 120.394481 46.050165 
L 121.313957 49.384716 
L 121.745925 50.167999 
L 121.289273 51.693004 
L 121.992764 52.877521 
L 123.029488 53.953337 
L 123.557106 55.155438 
L 123.751492 56.674049 
L 124.075468 57.994441 
L 125.204757 60.310723 
L 125.371373 61.06843 
L 125.497878 62.662172 
L 125.69535 63.461441 
L 126.287763 64.602798 
L 126.685791 66.847145 
L 127.935414 69.710126 
L 128.759239 72.771327 
L 128.240877 72.502772 
L 128.996822 74.256369 
L 129.20355 75.119579 
L 129.277601 76.259337 
L 128.577196 76.997861 
L 129.188122 78.788224 
L 129.01842 79.795303 
L 128.759239 79.526748 
L 128.805522 80.13739 
L 129.17578 80.306835 
L 129.592321 80.318025 
L 129.795963 80.452302 
L 129.795963 82.183519 
L 130.31124 83.673356 
L 130.31124 85.719485 
L 130.8512 87.194935 
L 130.795662 87.676095 
L 130.56425 88.648006 
L 130.570421 89.207495 
L 131.730564 94.335605 
L 132.017515 96.666273 
L 132.90305 98.619686 
L 134.235981 103.735008 
L 134.970327 105.103357 
L 137.235075 106.497282 
L 137.586821 107.106325 
L 137.886113 107.366887 
L 139.274583 107.993513 
L 139.654098 108.324411 
L 139.672611 108.832746 
L 139.135736 110.068416 
L 139.25607 110.530393 
L 139.792945 111.115458 
L 139.913279 111.420779 
L 139.968818 112.466223 
L 140.178631 113.096047 
L 141.203013 114.250191 
L 140.548889 114.309337 
L 140.098408 114.694585 
L 139.941048 115.266861 
L 140.17246 115.882299 
L 140.332905 115.546606 
L 140.67848 115.145372 
L 141.091935 114.975927 
L 141.468365 115.321212 
L 141.388142 116.064532 
L 140.653796 116.419407 
L 139.394917 116.529706 
L 139.48131 116.900567 
L 140.17246 118.003558 
L 140.431641 119.613286 
L 140.968516 119.816301 
L 141.84788 119.891432 
L 142.680962 119.790724 
L 143.041964 119.479009 
L 143.328914 119.017032 
L 144.004636 118.917922 
L 144.772923 119.071382 
L 145.346823 119.34633 
L 146.263213 120.580402 
L 148.401457 127.159984 
L 149.27465 127.564414 
L 149.361043 128.253384 
L 149.586284 128.907186 
L 149.916431 129.463478 
L 150.317545 129.855119 
L 149.7529 131.99716 
L 149.641823 135.526732 
L 150.083048 135.927965 
L 150.215724 136.527417 
L 150.576726 136.837533 
L 151.070404 136.858314 
L 151.607279 136.584964 
L 151.983708 137.318693 
L 152.418762 137.43219 
L 153.014261 137.253153 
L 153.844257 137.122073 
L 154.106524 136.923854 
L 154.316337 136.465074 
L 154.408902 135.971126 
L 154.353363 135.645024 
L 154.162063 135.280557 
L 154.307081 135.02639 
L 154.766818 134.708281 
L 155.488823 133.407071 
L 155.569045 132.64297 
L 154.810015 131.312986 
L 154.399645 129.736828 
L 154.088011 129.174142 
L 153.585076 129.166149 
L 153.026603 130.107688 
L 152.69337 129.295631 
L 152.600806 128.53153 
L 152.644003 126.063387 
L 152.409506 124.880469 
L 152.495899 124.400908 
L 153.180878 123.929339 
L 153.433888 122.586567 
L 153.686898 122.194925 
L 154.223773 122.588165 
L 154.482954 122.588165 
L 154.519979 122.274852 
L 154.766818 121.517145 
L 154.995145 121.517145 
L 154.995145 122.028677 
L 155.414771 121.696181 
L 156.269451 120.418949 
L 156.827924 121.43562 
L 157.586955 122.252473 
L 161.19389 125.254527 
L 161.749278 125.539067 
L 162.924849 125.839592 
L 163.745589 126.443839 
L 164.029454 126.83708 
L 164.152873 127.249502 
L 164.081907 127.684305 
L 163.807298 128.151078 
L 162.789087 129.051055 
L 162.58236 129.425113 
L 162.008459 130.90376 
L 162.431171 130.865395 
L 162.752062 130.959709 
L 162.971131 131.204285 
L 163.045183 131.610314 
L 162.952618 131.727007 
L 162.505223 132.000357 
L 162.789087 132.427167 
L 162.989644 132.753269 
L 163.878265 133.419859 
L 164.081907 133.758749 
L 164.189899 134.259092 
L 164.85945 135.782498 
L 164.85945 137.68316 
L 165.33153 137.510518 
L 165.849892 137.620817 
L 166.266433 137.918145 
L 166.673717 138.717414 
L 166.84959 138.757378 
L 166.954496 138.998757 
L 166.932898 139.356829 
L 166.670631 140.22004 
L 167.043976 140.920199 
L 167.92334 141.36779 
L 171.335889 142.675394 
L 171.613583 142.900788 
L 171.872764 143.621729 
L 172.440494 143.487452 
L 173.304431 142.755321 
L 174.162197 142.419628 
L 174.760781 141.633147 
L 175.245203 140.74436 
L 175.778992 140.095354 
L 175.729624 140.718784 
L 175.865386 141.260688 
L 176.217132 141.553221 
L 176.837315 141.438126 
L 177.037871 141.092842 
L 176.951478 140.645251 
L 177.025529 140.261602 
L 178.22887 140.047398 
L 178.623812 140.33993 
L 178.48188 140.750754 
L 178.559017 141.020907 
L 179.296449 141.260688 
L 179.558715 141.693892 
L 179.919717 141.70668 
L 180.391797 141.380578 
L 180.721944 140.901017 
L 180.447336 140.271193 
L 180.438079 139.535866 
L 180.650978 139.730887 
L 180.981125 140.33993 
L 182.011678 140.608485 
L 182.104243 140.942579 
L 182.076473 141.633147 
L 182.270859 141.975235 
L 182.560895 142.167059 
L 183.307583 141.975235 
L 184.001818 142.071147 
L 184.368991 142.238993 
L 184.529436 142.608256 
L 184.797874 144.465757 
L 185.893222 144.924537 
L 185.720435 144.264341 
L 186.03824 144.050137 
L 187.071879 144.118874 
L 187.33106 144.299509 
L 187.442137 144.646392 
L 187.263179 144.862194 
L 186.670765 144.655983 
L 186.436268 144.924537 
L 188.250535 146.828396 
L 188.269048 146.737279 
L 188.398639 146.668542 
L 188.577597 146.738878 
L 188.818265 147.365505 
L 188.768897 148.434927 
L 188.454177 149.326911 
L 188.444921 149.766509 
L 188.768897 150.290829 
L 189.73774 150.986193 
L 190.055546 151.435383 
L 190.058631 152.19309 
L 190.823832 151.771076 
L 191.212604 151.742302 
L 191.638401 151.89736 
L 191.638401 151.141252 
L 192.508509 151.528098 
L 194.532589 151.436981 
L 195.649536 152.042827 
L 196.81585 152.899643 
L 197.877258 153.201767 
L 200.438213 153.288088 
L 205.263916 154.485393 
L 205.720569 155.081648 
L 206.331495 156.521931 
L 206.828259 157.190119 
L 209.642224 159.175504 
L 210.546272 160.300874 
L 211.141771 161.651639 
L 211.360841 163.101513 
L 211.650877 163.715352 
L 213.193621 164.725628 
L 213.360237 165.019759 
L 214.066814 165.889363 
L 214.563577 167.465522 
L 215.353462 168.424645 
L 217.099849 169.967234 
L 218.093376 171.122977 
L 218.420438 171.682465 
L 218.679619 172.382625 
L 219.139356 174.128228 
L 219.454076 174.551841 
L 219.972438 174.954672 
L 221.231317 175.729963 
L 221.888526 176.295846 
L 222.456256 177.008794 
L 223.832384 179.646381 
L 224.233497 181.270496 
L 224.563644 181.855561 
L 226.973411 182.590888 
L 227.479431 182.622859 
L 228.701284 182.148093 
L 229.173364 182.08575 
L 229.472656 182.271181 
L 230.210088 183.5628 
L 231.101794 184.373258 
L 232.06138 184.489952 
L 233.199926 184.230988 
L 233.854049 184.493149 
L 235.190065 185.380337 
L 235.680658 185.572162 
L 236.106455 185.88068 
L 236.587791 188.009932 
L 238.152134 189.240807 
L 238.395887 189.755536 
L 238.562504 189.76193 
L 239.778186 191.552293 
L 240.210154 191.766497 
L 240.870449 193.5121 
L 241.262306 193.620801 
L 242.280517 193.243546 
L 242.413193 193.489721 
L 243.317241 194.180289 
L 243.46843 194.544756 
L 243.835603 195.788418 
L 244.872327 196.496571 
L 245.017345 197.035278 
L 245.316637 197.032081 
L 245.557305 196.793899 
L 245.529536 196.642038 
L 245.332065 196.494972 
L 244.363221 195.273689 
L 244.353965 194.985952 
L 245.131508 194.985952 
L 245.159277 193.943705 
L 244.650172 193.499312 
L 244.002219 193.150831 
L 242.891444 193.000568 
L 242.984008 192.775174 
L 243.335754 192.58335 
L 243.835603 192.57216 
L 245.131508 193.64318 
L 246.529234 195.537448 
L 247.763429 196.220024 
L 248.004097 197.188738 
L 248.001012 198.788874 
L 248.426809 200.088486 
L 248.763127 200.683142 
L 249.167326 200.935711 
L 249.537585 201.370513 
L 249.815279 202.368001 
L 250.404607 206.911046 
L 250.944567 207.847789 
L 251.213005 210.047377 
L 252.379319 210.757128 
L 253.181546 211.000106 
L 254.906334 211.151967 
L 255.631424 211.019289 
L 256.069563 210.662815 
L 256.569412 209.542239 
L 257.072347 209.657334 
L 257.217365 209.905108 
L 257.229707 210.240801 
L 257.368554 210.614858 
L 258.056617 211.15996 
L 258.143011 211.565989 
L 258.442303 212.077521 
L 260.352221 213.712825 
L 261.678981 215.952377 
L 262.166488 216.273683 
L 262.922432 216.383982 
L 263.542615 216.671719 
L 264.496031 217.491769 
L 264.795323 218.097615 
L 265.159411 220.297203 
L 265.78268 221.731092 
L 265.930783 222.468018 
L 266.171451 224.210424 
L 266.449145 224.613256 
L 266.98602 224.75073 
L 267.479698 224.59727 
L 268.516422 224.100125 
L 269.028613 225.164751 
L 269.772216 225.812159 
L 270.80894 226.133466 
L 272.16964 226.221385 
L 271.990682 226.421202 
L 271.651278 227.02545 
L 272.305401 226.967902 
L 272.681831 226.756895 
L 272.64172 226.710538 
L 273.465545 226.221385 
L 274.261601 225.150365 
L 274.418961 224.309534 
L 274.779963 224.100125 
L 274.548551 223.708483 
L 274.496098 223.328031 
L 274.585577 222.985944 
L 274.779963 222.710996 
L 276.378246 224.07295 
L 276.760846 224.888204 
L 278.019725 225.831342 
L 278.278906 226.346071 
L 278.42701 228.123645 
L 279.43905 229.977949 
L 279.204553 230.268883 
L 270.964649 233.864459 
L 270.576711 233.903032 
L 270.106482 233.523395 
L 269.769485 233.480762 
L 269.134677 234.047172 
L 268.252999 236.172732 
L 266.599362 237.760304 
L 266.732594 238.929667 
L 267.085265 240.161964 
L 266.865825 241.219668 
L 266.391678 241.477496 
L 265.259211 241.694722 
L 264.937889 242.047967 
L 264.420638 242.80521 
L 263.045219 243.197028 
L 262.543643 243.936 
L 256.603091 238.584542 
L 254.863246 237.794817 
L 253.832662 237.518717 
L 253.166505 237.638496 
L 251.215057 239.776236 
L 249.404678 237.829329 
L 246.312926 233.566028 
L 243.840309 229.281411 
L 242.033848 227.698914 
L 239.925657 226.497069 
L 237.762607 225.591625 
L 234.804086 223.658929 
L 232.82129 220.838045 
L 229.874526 214.362903 
L 228.667606 212.328699 
L 227.378397 210.610183 
L 225.901096 209.054078 
L 219.035761 203.323999 
L 207.33883 195.748519 
L 206.194608 194.599458 
L 200.567542 184.517766 
L 192.589333 175.345579 
L 190.281296 173.679847 
L 187.706795 172.703348 
L 184.281965 172.209008 
L 183.212196 171.859823 
L 176.985588 168.753704 
L 171.503509 163.614396 
L 170.010534 162.716058 
L 168.368653 162.04002 
L 164.963416 161.202586 
L 164.29334 161.210707 
L 162.420264 161.770011 
L 161.879501 161.784222 
L 160.233702 161.486806 
L 159.540115 161.664444 
L 158.372381 162.663274 
L 157.631772 162.874409 
L 156.914673 162.75057 
L 156.338643 162.473456 
L 154.344091 160.724487 
L 153.297833 160.057585 
L 152.161448 159.677948 
L 150.496223 159.798071 
L 148.779722 160.092098 
L 147.764813 159.999726 
L 145.597843 159.293236 
L 145.366648 159.068905 
L 144.59469 158.124889 
L 144.01866 157.638669 
L 143.266294 157.210309 
L 142.611893 157.201174 
L 142.314082 157.986839 
L 141.640088 158.903449 
L 140.092253 159.664752 
L 136.984827 160.536699 
L 136.26381 160.580347 
L 134.210479 160.246388 
L 133.266104 160.398649 
L 132.752771 160.870658 
L 131.925953 162.205477 
L 130.977659 162.215627 
L 130.193945 160.76103 
L 129.092827 157.50265 
L 128.571657 156.661155 
L 127.917256 155.850113 
L 127.153135 155.146669 
L 125.946216 154.467586 
L 124.86469 154.217878 
L 123.508865 154.060542 
L 123.454005 153.924522 
L 122.964184 154.408711 
L 122.905405 155.062418 
L 122.964184 155.796314 
L 122.850545 156.52006 
L 122.313701 157.22858 
L 121.537824 157.71886 
L 119.958641 158.462908 
L 118.708617 159.620089 
L 118.007193 160.114429 
L 116.318289 160.278871 
L 114.057275 161.222887 
L 112.634834 161.460414 
L 111.945165 161.391389 
L 111.255497 161.157923 
L 110.514887 161.133561 
L 108.167664 162.360783 
L 106.756979 162.740419 
L 103.861156 163.075393 
L 101.353271 163.119041 
L 100.883043 162.760721 
L 100.679277 162.408491 
L 100.42457 161.559891 
L 100.118922 161.267551 
L 98.085184 160.153002 
L 97.49348 159.685054 
L 97.050681 159.105448 
L 96.741114 158.415199 
L 96.380606 156.924059 
L 96.137655 156.418553 
L 94.938572 155.52732 
L 94.750481 155.142608 
L 94.491069 153.875469 
L 94.252823 153.282997 
L 93.864884 152.804898 
L 93.281017 152.563311 
L 92.383665 152.506467 
L 90.224533 152.882044 
L 89.538783 152.754145 
L 85.424285 151.049839 
L 85.110799 150.794041 
L 84.895278 150.407299 
L 84.785558 149.756638 
L 84.413294 149.472418 
L 83.986169 149.400348 
L 83.7393 148.949656 
L 83.570801 148.543627 
L 83.562964 147.968082 
L 83.429733 147.834092 
L 83.061387 147.791459 
L 82.896807 147.652395 
L 81.713399 145.536985 
L 81.055079 144.955349 
L 68.676317 174.924324 
L 68.249193 175.36385 
L 67.567362 174.918234 
L 67.171586 174.447241 
L 66.995251 173.79455 
L 66.838508 172.415067 
L 66.544615 172.117651 
L 66.156677 171.922758 
L 65.278917 171.667975 
L 65.05164 171.226418 
L 64.85963 170.243829 
L 64.416832 169.27139 
L 62.336071 167.654381 
L 62.23027 167.236172 
L 62.195002 165.755182 
L 62.050015 165.437465 
L 61.470067 164.853799 
L 60.03587 162.758691 
L 59.318772 162.335406 
L 58.39399 161.53756 
L 57.87282 161.61572 
L 57.046002 161.904 
L 54.240306 161.847156 
L 52.931503 162.146603 
L 51.846059 162.975916 
L 51.27003 163.824516 
L 50.964381 164.599016 
L 50.835068 165.398892 
L 50.705756 167.164102 
L 50.4197 167.811717 
L 50.012169 168.299967 
L 49.538022 168.63291 
L 49.244129 168.691784 
L 48.244894 168.63291 
L 47.469017 169.169883 
L 46.751919 169.025743 
L 46.152377 168.63291 
L 45.243269 167.536633 
L 43.985408 167.368131 
L 41.512791 166.631189 
L 40.294115 166.462687 
L 37.335595 166.552013 
L 36.399057 167.024022 
L 34.690561 167.024022 
L 33.930358 167.149891 
L 32.758706 167.705135 
L 32.233617 167.827959 
L 31.426392 167.85029 
L 30.787665 168.000521 
L 30.309599 168.399444 
L 30.031381 169.169883 
L 29.298608 169.155672 
L 25.40355 135.842036 
L 25.45841 134.98024 
L 25.764058 134.296082 
L 28.55408 131.566554 
L 29.243748 130.483473 
L 31.163848 124.766589 
L 31.904457 123.552564 
L 33.146644 122.716145 
L 32.625474 121.001689 
L 32.723438 119.341031 
L 34.780688 111.814275 
L 35.246998 110.947404 
L 37.120074 109.000497 
L 38.138902 107.321568 
L 42.931313 93.674945 
L 43.546528 92.647693 
L 45.133549 91.003276 
L 45.521488 90.004446 
L 45.419605 89.168027 
L 44.729937 87.576395 
L 44.534008 86.750126 
L 44.741692 84.512908 
L 44.459555 83.719122 
L 42.833349 81.670708 
L 42.574723 80.761204 
L 42.602153 80.221186 
L 43.182101 77.894641 
L 43.174264 75.917282 
L 43.519098 75.176279 
L 44.095128 74.656563 
L 45.345152 73.757209 
L 45.752683 73.215161 
L 46.685303 70.856135 
L 46.900824 68.330636 
L 47.245658 67.853553 
L 47.198636 67.624146 
L 46.924336 67.120671 
L 46.99487 65.54325 
L 46.900824 65.043834 
L 46.046576 63.748603 
L 46.96744 62.42901 
L 47.143776 61.669736 
L 47.006626 60.918583 
L 46.25426 59.87509 
L 46.168052 59.525905 
L 46.250342 59.194992 
L 46.50113 58.900621 
L 47.273088 58.799114 
L 47.876548 59.065062 
L 48.448659 59.45891 
L 49.126572 59.73501 
L 50.494153 60.045622 
L 51.959698 60.942945 
L 52.335881 61.005879 
L 54.39313 60.672936 
L 54.957404 60.756172 
L 56.105545 60.683087 
L 57.908087 59.570568 
L 59.001368 59.477181 
L 62.551592 60.476012 
L 64.687213 57.930212 
L 65.000698 57.146577 
L 65.180953 56.269555 
L 66.01169 54.791611 
L 66.250722 53.987674 
L 66.427058 52.349348 
L 66.391791 51.634738 
L 65.968585 49.836031 
L 66.062631 49.387369 
L 66.470162 49.139692 
L 71.48985 47.586632 
L 73.022011 47.373467 
L 74.569846 46.571561 
L 76.219564 43.615672 
L 77.544041 42.907152 
L 78.315999 43.120317 
L 79.452384 44.208474 
L 80.318388 44.472393 
L 81.223578 44.265318 
L 81.968106 43.696878 
L 83.155433 42.1763 
L 85.753445 40.438498 
L 86.64296 40.115705 
L 87.512882 40.119765 
L 87.869472 40.511583 
L 88.069319 42.799554 
L 88.637512 42.793464 
L 89.264483 42.251416 
L 89.660259 41.500263 
L 89.57405 40.818135 
L 89.527027 40.568427 
L 89.699444 40.217212 
L 89.922803 40.18067 
L 91.259035 39.75637 
L 91.874251 40.140067 
L 92.45028 40.722718 
L 93.120356 41.132807 
L 94.017708 40.998817 
L 94.656435 40.365413 
L 94.754399 39.587868 
L 94.707377 38.755509 
L 94.899387 37.979994 
L 95.553788 37.381102 
L 97.434701 36.473628 
L 98.202741 35.882856 
L 99.248999 34.197837 
L 101.533525 28.180493 
L 102.583702 26.657885 
L 107.978477 22.176 
L 108.0587 22.586824 
L 108.413531 23.015232 
L 108.691225 24.228523 
L 110.304935 26.492053 
L 110.43144 26.885293 
L 110.564116 28.10178 
L 111.366343 29.29429 
L 111.551472 29.962479 
L 115.112126 35.37353 
L 115.112126 35.37353 
" clip-path="url(#pa2fc9434e0)" style="fill: none; stroke: #000000; stroke-width: 2"/>
   </g>
  </g>
 </g>
 <defs>
  <clipPath id="pa2fc9434e0">
   <rect x="0" y="-0" width="304.8426" height="266.112"/>
  </clipPath>
 </defs>
</svg>
