<?xml version="1.0" encoding="utf-8" standalone="no"?>
<!DOCTYPE svg PUBLIC "-//W3C//DTD SVG 1.1//EN"
  "http://www.w3.org/Graphics/SVG/1.1/DTD/svg11.dtd">
<svg xmlns:xlink="http://www.w3.org/1999/xlink" width="301.043187pt" height="266.112pt" viewBox="0 0 301.043187 266.112" xmlns="http://www.w3.org/2000/svg" version="1.1">
 <metadata>
  <rdf:RDF xmlns:dc="http://purl.org/dc/elements/1.1/" xmlns:cc="http://creativecommons.org/ns#" xmlns:rdf="http://www.w3.org/1999/02/22-rdf-syntax-ns#">
   <cc:Work>
    <dc:type rdf:resource="http://purl.org/dc/dcmitype/StillImage"/>
    <dc:date>2024-02-02T21:58:01.233248</dc:date>
    <dc:format>image/svg+xml</dc:format>
    <dc:creator>
     <cc:Agent>
      <dc:title>Matplotlib v3.8.2, https://matplotlib.org/</dc:title>
     </cc:Agent>
    </dc:creator>
   </cc:Work>
  </rdf:RDF>
 </metadata>
 <defs>
  <style type="text/css">*{stroke-linejoin: round; stroke-linecap: butt}</style>
 </defs>
 <g id="figure_1">
  <g id="patch_1">
   <path d="M 0 266.112 
L 301.043187 266.112 
L 301.043187 0 
L 0 0 
L 0 266.112 
z
" style="fill: none"/>
  </g>
  <g id="axes_1">
   <g id="PatchCollection_1">
    <path d="M 28.231723 241.798471 
L 27.771322 242.55493 
L 27.758168 242.641527 
L 27.765879 242.725888 
L 27.765879 242.808573 
L 27.729591 242.886789 
L 27.674252 242.928132 
L 27.612563 242.954949 
L 27.562667 242.995174 
L 27.542709 243.078977 
L 27.50506 243.149371 
L 27.422052 243.225353 
L 27.33859 243.321446 
L 27.300941 243.449385 
L 27.271004 243.769512 
L 27.179831 243.932089 
L 27.016536 243.936 
L 26.775222 243.781803 
L 26.609205 243.584028 
L 26.507599 243.399104 
L 26.358819 243.263343 
L 25.535994 243.139315 
L 25.316453 243.025343 
L 25.163137 242.835949 
L 25.086932 242.352686 
L 25.384946 242.198489 
L 25.861223 242.245419 
L 26.317996 242.367212 
L 26.483105 242.247654 
L 26.91493 241.78618 
L 27.002928 241.659358 
L 27.016536 241.512424 
L 27.064163 241.444264 
L 27.300941 241.327499 
L 27.687406 241.05542 
L 27.909216 241.089499 
L 28.10517 241.216321 
L 28.24397 241.391189 
L 28.297041 241.570527 
L 28.231723 241.798471 
" clip-path="url(#pe608bac37c)" style="fill: none; stroke: #000000; stroke-width: 2"/>
    <path d="M 55.760552 237.080934 
L 55.768263 237.451901 
L 55.839478 237.995501 
L 55.865333 238.08936 
L 55.891188 238.25082 
L 55.938816 238.43798 
L 56.028628 238.608937 
L 56.119348 238.689947 
L 56.296251 238.806712 
L 56.34025 238.890515 
L 56.310766 239.11343 
L 56.223221 239.360369 
L 56.194645 239.607308 
L 56.34025 239.82743 
L 56.34025 239.921289 
L 56.217778 239.986655 
L 56.136584 240.105655 
L 56.028628 240.398965 
L 56.127512 240.59618 
L 56.202809 240.842002 
L 56.181944 241.052067 
L 55.994155 241.139781 
L 55.857168 241.243696 
L 55.497919 241.733105 
L 55.343696 241.890095 
L 54.558972 242.158823 
L 54.431058 242.230893 
L 54.377987 242.242067 
L 54.084056 242.60186 
L 53.951152 242.671137 
L 53.836392 242.608564 
L 53.730703 242.507442 
L 53.624562 242.452132 
L 53.142388 242.413583 
L 52.930104 242.358273 
L 52.750026 242.273353 
L 52.148556 241.710199 
L 52.056929 241.570527 
L 52.012476 241.476668 
L 51.778874 241.330851 
L 51.676814 241.24202 
L 51.631908 241.162687 
L 51.308039 240.379411 
L 51.239546 240.097833 
L 51.2967 239.82743 
L 51.252247 239.670998 
L 51.233196 239.458697 
L 51.245897 239.242486 
L 51.2967 239.078233 
L 51.397852 238.954764 
L 51.836027 238.694416 
L 52.035156 238.530163 
L 52.309583 238.242999 
L 52.497372 237.898849 
L 52.437951 237.569783 
L 52.566772 237.444079 
L 52.611679 237.19714 
L 52.589906 236.924502 
L 52.521413 236.72561 
L 52.645698 236.714436 
L 52.764541 236.722258 
L 52.875672 236.754662 
L 52.977732 236.819469 
L 53.139212 236.773657 
L 53.738415 236.998248 
L 54.582559 236.998248 
L 55.280192 237.180938 
L 55.544186 237.088755 
L 55.503362 236.622812 
L 55.831313 236.55577 
L 55.876219 236.58091 
L 55.936094 236.758014 
L 55.933373 236.865281 
L 55.839478 236.912769 
L 55.760552 237.080934 
" clip-path="url(#pe608bac37c)" style="fill: none; stroke: #000000; stroke-width: 2"/>
    <path d="M 35.789923 238.657344 
L 35.504599 238.761517 
L 35.22388 238.686503 
L 34.642135 238.289644 
L 34.272617 237.682948 
L 34.270882 237.192835 
L 34.321711 236.67533 
L 34.646594 236.180077 
L 35.209547 236.034546 
L 35.727378 236.202979 
L 36.199162 236.537333 
L 36.804261 237.016126 
L 36.936243 237.334545 
L 37.001566 237.64034 
L 36.828581 237.912151 
L 36.610223 238.065772 
L 36.27957 238.405801 
L 36.036677 238.589712 
L 35.789923 238.657344 
" clip-path="url(#pe608bac37c)" style="fill: none; stroke: #000000; stroke-width: 2"/>
    <path d="M 47.933728 231.168928 
L 47.829789 231.557088 
L 47.491712 231.822571 
L 46.66686 232.317784 
L 46.481549 232.69252 
L 46.251272 232.937012 
L 45.945113 233.287868 
L 45.635659 233.566496 
L 45.437922 233.650725 
L 45.283193 233.790569 
L 45.168838 234.047249 
L 45.165108 234.335996 
L 45.226747 234.567272 
L 45.254292 234.703889 
L 45.21833 234.84404 
L 45.110555 234.944338 
L 45.010051 235.064841 
L 44.934724 235.385475 
L 44.572876 236.121512 
L 44.475519 236.721481 
L 44.478538 236.96885 
L 44.329896 237.201051 
L 44.154354 237.438492 
L 43.432322 238.233357 
L 43.267553 238.523048 
L 43.162337 238.694416 
L 42.783937 238.607377 
L 42.174037 238.863802 
L 41.91744 238.973683 
L 41.706749 239.063715 
L 41.524557 239.025951 
L 41.4034 238.835976 
L 41.378872 238.708049 
L 41.397389 238.543571 
L 41.29533 238.498318 
L 41.208239 238.412839 
L 41.174219 238.300543 
L 41.153807 238.042431 
L 41.132034 237.944661 
L 40.979172 237.735713 
L 40.544172 237.268093 
L 40.45436 237.049647 
L 40.379516 236.754662 
L 40.210778 236.526718 
L 40.029339 236.336206 
L 39.914125 236.154634 
L 39.837921 235.549019 
L 39.801633 235.419404 
L 39.646049 235.15347 
L 39.50997 234.832785 
L 39.139835 234.422151 
L 39.034462 234.150027 
L 39.303373 233.962106 
L 39.910867 233.654186 
L 40.130179 233.757434 
L 40.393124 233.955649 
L 40.522853 233.998109 
L 40.6612 233.994757 
L 40.979626 233.89587 
L 41.224284 233.76157 
L 41.585795 233.630883 
L 41.842306 233.521772 
L 42.062816 233.580771 
L 42.508634 233.536324 
L 42.729049 233.516655 
L 42.95373 233.321193 
L 43.238541 233.286344 
L 43.358291 233.228241 
L 43.592975 233.200385 
L 43.81851 233.006245 
L 44.342144 232.498598 
L 44.55987 232.287415 
L 44.62791 232.169533 
L 44.653765 231.970082 
L 44.695042 231.886279 
L 44.905512 231.763927 
L 44.996685 231.688505 
L 45.195814 231.567829 
L 45.444385 231.519223 
L 45.648504 231.424806 
L 45.719265 231.168928 
L 45.900251 231.243792 
L 46.986617 231.279547 
L 47.670642 231.013055 
L 47.933728 231.168928 
" clip-path="url(#pe608bac37c)" style="fill: none; stroke: #000000; stroke-width: 2"/>
    <path d="M 68.81554 237.249657 
L 68.516166 237.703868 
L 68.182318 238.092154 
L 67.71602 238.327919 
L 67.427985 238.326801 
L 66.98981 238.104445 
L 66.763465 238.046342 
L 66.025008 238.092712 
L 65.888929 238.046342 
L 65.929753 237.997177 
L 65.97602 237.835159 
L 66.007318 237.670905 
L 66.002329 237.616154 
L 66.082162 237.591572 
L 66.463184 237.663084 
L 66.68091 237.64353 
L 67.094591 237.496595 
L 67.738246 237.177027 
L 68.530227 236.607727 
L 68.864528 236.256314 
L 69.039617 236.022784 
L 69.161181 235.798193 
L 69.229674 235.531141 
L 69.29091 234.851221 
L 69.387526 234.604841 
L 69.632015 234.185827 
L 69.909617 233.211481 
L 69.971306 233.052814 
L 70.11555 232.933255 
L 70.445769 232.342166 
L 70.69933 231.662805 
L 71.138866 230.958862 
L 71.267688 230.276149 
L 71.428715 229.85937 
L 71.482693 229.363257 
L 71.542568 229.182802 
L 71.658689 229.04369 
L 71.846478 228.919661 
L 72.26152 228.733061 
L 72.671118 228.672723 
L 73.051233 228.80569 
L 73.375101 229.200121 
L 73.499387 229.662713 
L 73.535221 230.282294 
L 73.451306 231.450505 
L 73.37873 231.736552 
L 73.180962 232.258364 
L 73.140592 232.447199 
L 73.127437 232.906997 
L 73.140592 233.052814 
L 73.173251 233.141645 
L 73.276671 233.335509 
L 73.292547 233.436631 
L 73.238569 233.567363 
L 73.038532 233.766814 
L 72.994987 233.84894 
L 72.989544 233.974644 
L 72.970492 234.108729 
L 72.933297 234.231081 
L 72.744601 234.517686 
L 72.653881 234.752334 
L 72.530503 235.21716 
L 72.280571 235.670812 
L 71.911796 235.893728 
L 70.732443 236.101559 
L 70.219878 236.27084 
L 69.847021 236.552418 
L 69.405217 236.678122 
L 69.175696 236.819469 
L 68.81554 237.249657 
" clip-path="url(#pe608bac37c)" style="fill: none; stroke: #000000; stroke-width: 2"/>
    <path d="M 28.446728 227.481606 
L 28.716165 227.553118 
L 29.165227 227.362606 
L 29.387036 227.459259 
L 29.570743 227.635803 
L 29.67371 227.785531 
L 29.65103 228.058169 
L 29.731286 228.386168 
L 29.833447 228.617535 
L 30.051441 228.739499 
L 30.060791 228.99193 
L 29.725745 229.412898 
L 29.567962 229.720941 
L 29.654037 229.993789 
L 29.787005 230.485189 
L 29.697197 230.744151 
L 29.628127 231.103955 
L 29.366337 231.491492 
L 29.143859 232.028892 
L 28.938882 232.490777 
L 28.836369 232.771237 
L 28.767422 232.771237 
L 28.702557 232.638828 
L 28.454666 232.496751 
L 28.376286 232.235256 
L 28.292294 231.558543 
L 28.164334 231.394623 
L 28.08158 231.174972 
L 27.85083 230.836459 
L 27.788972 230.533903 
L 27.362468 229.804143 
L 27.317347 229.457495 
L 27.269766 229.240182 
L 27.217026 229.025812 
L 27.036948 228.882788 
L 26.926723 228.731943 
L 26.986598 228.312929 
L 27.277808 227.85816 
L 27.660644 227.486075 
L 27.941619 227.27599 
L 28.171378 227.436267 
L 28.446728 227.481606 
" clip-path="url(#pe608bac37c)" style="fill: none; stroke: #000000; stroke-width: 2"/>
    <path d="M 77.575414 223.269679 
L 77.53459 223.479186 
L 77.570878 223.665228 
L 77.628031 223.864679 
L 77.651618 224.112735 
L 77.629845 224.209946 
L 77.535951 224.39096 
L 77.499209 224.496551 
L 77.491952 224.610523 
L 77.510096 224.851875 
L 77.499209 224.965288 
L 77.315502 225.301058 
L 76.998438 225.602748 
L 76.63556 225.818959 
L 76.112562 225.961424 
L 76.003699 226.089363 
L 75.916154 226.218978 
L 75.780075 226.277081 
L 75.604986 226.292724 
L 75.349157 226.356414 
L 75.171347 226.37094 
L 74.782161 226.464799 
L 74.483694 226.71509 
L 74.248276 227.074325 
L 74.053683 227.496132 
L 73.984283 227.496132 
L 73.865894 227.30562 
L 73.63592 227.228522 
L 73.105665 227.223493 
L 73.020842 227.14863 
L 72.950081 226.984376 
L 72.920143 226.820123 
L 72.956885 226.745818 
L 73.080717 226.70224 
L 73.175519 226.598325 
L 73.292547 226.37094 
L 73.335185 226.146349 
L 73.380091 225.469222 
L 73.413204 225.288208 
L 73.787875 224.633429 
L 73.984283 224.402692 
L 74.140774 224.276988 
L 74.322213 224.186481 
L 74.535404 224.131171 
L 74.786697 224.112735 
L 74.995351 224.045693 
L 75.37093 223.700425 
L 75.590018 223.550698 
L 75.796858 223.475834 
L 75.974215 223.450134 
L 76.54484 223.450693 
L 76.700424 223.395383 
L 76.824256 223.230012 
L 76.959428 222.894243 
L 77.080085 222.435562 
L 77.165815 222.203149 
L 77.30507 221.999229 
L 77.501024 221.952858 
L 77.710586 222.094764 
L 78.031733 222.424947 
L 77.922416 222.702614 
L 77.87887 222.926088 
L 77.797676 223.110454 
L 77.575414 223.269679 
" clip-path="url(#pe608bac37c)" style="fill: none; stroke: #000000; stroke-width: 2"/>
    <path d="M 77.204371 221.961797 
L 76.924955 222.186947 
L 76.655518 222.143928 
L 76.655518 222.042248 
L 76.828339 221.844473 
L 76.915429 221.538314 
L 77.024293 221.319309 
L 77.263792 221.385793 
L 77.361769 221.63776 
L 77.204371 221.961797 
" clip-path="url(#pe608bac37c)" style="fill: none; stroke: #000000; stroke-width: 2"/>
    <path d="M 179.707929 140.54711 
L 179.698666 140.556889 
L 179.680141 140.555259 
L 179.662939 140.549555 
L 179.652353 140.541406 
L 179.661616 140.538146 
L 179.672863 140.540591 
L 179.68785 140.542126 
L 179.707929 140.54711 
" clip-path="url(#pe608bac37c)" style="fill: none; stroke: #000000; stroke-width: 2"/>
    <path d="M 200.558393 140.411666 
L 200.503634 140.457636 
L 200.454088 140.42435 
L 200.472104 140.368873 
L 200.526154 140.357778 
L 200.558393 140.411666 
" clip-path="url(#pe608bac37c)" style="fill: none; stroke: #000000; stroke-width: 2"/>
    <path d="M 184.110596 139.953752 
L 184.104178 139.963052 
L 184.097498 139.959597 
L 184.099386 139.955877 
L 184.106443 139.947707 
L 184.110596 139.953752 
" clip-path="url(#pe608bac37c)" style="fill: none; stroke: #000000; stroke-width: 2"/>
    <path d="M 184.132929 139.920847 
L 184.134439 139.928752 
L 184.126889 139.927822 
L 184.121226 139.929682 
L 184.117828 139.928287 
L 184.118205 139.924102 
L 184.124246 139.921312 
L 184.132929 139.920847 
" clip-path="url(#pe608bac37c)" style="fill: none; stroke: #000000; stroke-width: 2"/>
    <path d="M 195.136143 139.110012 
L 194.800165 139.234152 
L 194.569162 138.982269 
L 194.534022 138.602671 
L 194.746968 138.384334 
L 195.034471 138.95795 
L 195.132902 139.105442 
L 195.136077 139.109912 
L 195.136143 139.110012 
" clip-path="url(#pe608bac37c)" style="fill: none; stroke: #000000; stroke-width: 2"/>
    <path d="M 167.232972 130.369126 
L 167.211583 130.405603 
L 167.185258 130.395471 
L 167.178677 130.358994 
L 167.201711 130.340756 
L 167.232972 130.369126 
" clip-path="url(#pe608bac37c)" style="fill: none; stroke: #000000; stroke-width: 2"/>
    <path d="M 168.220512 130.496663 
L 168.421909 130.543593 
L 168.71448 130.394424 
L 168.616502 130.68494 
L 168.129339 131.07155 
L 168.071763 131.277593 
L 167.824594 131.051851 
L 167.651773 130.806354 
L 167.525614 130.526799 
L 167.423717 130.218467 
L 167.423995 130.218438 
L 167.576404 130.195532 
L 167.78778 130.215086 
L 168.034083 130.352523 
L 168.220512 130.496663 
" clip-path="url(#pe608bac37c)" style="fill: none; stroke: #000000; stroke-width: 2"/>
    <path d="M 219.357273 105.806692 
L 219.509682 106.318448 
L 219.281976 106.063129 
L 219.233895 105.658082 
L 219.243874 105.20834 
L 219.197153 104.818937 
L 219.253853 104.812233 
L 219.267461 104.835697 
L 219.267461 104.872571 
L 219.281069 104.903857 
L 219.318264 104.96196 
L 219.386303 105.103866 
L 219.439828 105.184876 
L 219.338222 105.489918 
L 219.357273 105.806692 
" clip-path="url(#pe608bac37c)" style="fill: none; stroke: #000000; stroke-width: 2"/>
    <path d="M 243.632901 91.433959 
L 244.174496 92.184832 
L 244.623619 92.41548 
L 245.061726 92.22713 
L 245.247708 92.454677 
L 245.236821 92.754691 
L 244.970337 92.812679 
L 244.590899 92.804972 
L 244.042155 92.459018 
L 243.862263 92.36642 
L 243.646509 92.518367 
L 243.538553 92.591555 
L 243.357344 92.845535 
L 243.181045 92.952625 
L 243.024684 92.905741 
L 243.075965 92.626785 
L 243.030361 92.522131 
L 243.030523 92.379254 
L 243.088584 92.287071 
L 243.140294 92.161367 
L 243.14483 92.052423 
L 243.06409 92.004935 
L 243.023266 91.951301 
L 243.087803 91.847771 
L 243.22592 91.693835 
L 243.304254 91.774027 
L 243.416988 91.727269 
L 243.525852 91.569719 
L 243.563954 91.35686 
L 243.609314 91.350156 
L 243.622015 91.368593 
L 243.622015 91.401555 
L 243.632901 91.433959 
" clip-path="url(#pe608bac37c)" style="fill: none; stroke: #000000; stroke-width: 2"/>
    <path d="M 245.203255 86.551051 
L 245.329355 86.580103 
L 245.420982 86.643793 
L 245.510794 86.737652 
L 245.453641 86.860004 
L 245.521681 87.134877 
L 245.701305 87.590205 
L 245.516237 87.601379 
L 245.369272 87.713116 
L 245.273109 87.889102 
L 245.236821 88.101961 
L 245.178761 88.185764 
L 244.788667 88.43382 
L 244.43849 88.950045 
L 244.298782 89.064017 
L 243.989428 89.223242 
L 243.868772 89.362355 
L 243.827041 89.308721 
L 243.754465 89.243355 
L 243.716363 89.183575 
L 243.533109 89.41096 
L 243.378934 89.49294 
L 243.260951 89.957913 
L 243.24936 90.29402 
L 242.88757 90.300448 
L 242.778323 90.024396 
L 242.585091 89.880814 
L 242.421796 89.94227 
L 242.345591 89.94227 
L 242.307489 89.925509 
L 242.29751 89.915453 
L 242.186832 89.94227 
L 242.10337 89.769636 
L 241.915581 89.71265 
L 241.727792 89.771312 
L 241.653402 89.94227 
L 241.299596 89.71265 
L 241.170774 89.569068 
L 241.120878 89.319894 
L 241.25605 88.988594 
L 241.292338 88.787468 
L 241.190732 88.621538 
L 241.283266 88.537735 
L 241.395758 88.469576 
L 241.522766 88.452815 
L 241.653402 88.527679 
L 241.735049 88.457285 
L 241.842098 88.430468 
L 242.110628 88.43382 
L 242.013558 87.855581 
L 242.019908 87.534337 
L 242.149637 87.394666 
L 242.295696 87.33768 
L 242.462619 87.205271 
L 242.732964 86.92537 
L 242.802818 86.92537 
L 242.905331 87.010849 
L 243.124872 86.847154 
L 243.251879 86.92537 
L 243.473235 86.747708 
L 243.779866 86.593511 
L 244.091941 86.511943 
L 244.324183 86.551051 
L 244.425789 86.420877 
L 244.582734 86.358863 
L 244.743307 86.370596 
L 244.926561 86.51306 
L 245.002765 86.538201 
L 245.203255 86.551051 
" clip-path="url(#pe608bac37c)" style="fill: none; stroke: #000000; stroke-width: 2"/>
    <path d="M 260.8537 86.080126 
L 260.629037 86.397587 
L 260.280254 86.368566 
L 260.087929 85.904665 
L 260.386797 85.630504 
L 260.834465 85.44336 
L 260.887796 85.709511 
L 260.8537 86.080126 
" clip-path="url(#pe608bac37c)" style="fill: none; stroke: #000000; stroke-width: 2"/>
    <path d="M 263.051407 74.689607 
L 263.203816 74.877326 
L 263.262784 74.819781 
L 263.295443 74.80302 
L 263.43878 74.877326 
L 262.928936 75.134321 
L 262.621397 75.248292 
L 262.338352 75.513668 
L 262.131512 75.448302 
L 262.107017 75.891898 
L 262.502554 75.957823 
L 263.356225 75.729879 
L 263.356225 75.814799 
L 263.231032 75.983522 
L 263.203816 76.189118 
L 262.892648 76.376836 
L 262.459009 76.569583 
L 262.44268 76.854512 
L 262.572408 77.16123 
L 263.222867 77.624939 
L 263.546736 77.697568 
L 264.505641 77.623822 
L 265.002783 77.221568 
L 265.322116 77.309841 
L 265.953524 77.666282 
L 266.339082 77.697568 
L 266.283743 77.953446 
L 266.296443 78.238375 
L 266.194838 78.379164 
L 266.262877 78.55068 
L 265.991626 79.12445 
L 265.530771 79.433961 
L 265.49539 79.64682 
L 265.577038 79.863032 
L 264.654421 80.79827 
L 264.303336 81.458636 
L 264.199916 82.222917 
L 264.047507 82.120678 
L 263.866976 82.688861 
L 263.514984 83.049771 
L 262.065286 84.008475 
L 261.83123 84.259883 
L 261.68245 84.243123 
L 261.306872 83.75986 
L 261.065558 83.629128 
L 260.766183 83.138044 
L 260.494025 82.972673 
L 260.076715 83.066532 
L 259.10511 82.998931 
L 258.672378 82.829649 
L 258.394776 82.496114 
L 258.277748 81.746918 
L 258.114453 81.646354 
L 258.147112 81.423998 
L 258.318572 81.089904 
L 258.191564 80.804975 
L 257.502096 80.320595 
L 257.208165 80.237351 
L 256.965037 80.312214 
L 256.097759 80.850787 
L 255.978009 81.222312 
L 255.702222 81.498862 
L 255.39559 81.534617 
L 255.166977 80.959172 
L 255.261325 80.903303 
L 254.963765 80.612228 
L 254.787769 80.779834 
L 254.65169 80.612228 
L 254.271575 80.799946 
L 254.162712 80.724524 
L 254.069271 80.478144 
L 253.867874 80.320595 
L 253.824328 79.797665 
L 253.890553 79.589835 
L 255.123431 78.937849 
L 255.838301 78.292568 
L 256.253796 78.200385 
L 256.836215 77.632202 
L 256.99316 77.404817 
L 257.170063 77.417108 
L 257.906705 76.730484 
L 258.52269 76.325437 
L 258.96903 76.010339 
L 259.307414 76.010339 
L 260.65097 75.346062 
L 261.894734 75.138232 
L 263.051407 74.689607 
L 263.051407 74.689607 
" clip-path="url(#pe608bac37c)" style="fill: none; stroke: #000000; stroke-width: 2"/>
    <path d="M 273.500478 73.442064 
L 273.749049 73.63034 
L 273.725462 73.670007 
L 273.701875 73.77057 
L 273.708226 73.873368 
L 273.78443 73.920298 
L 273.854284 73.878955 
L 273.936839 73.785096 
L 274.046609 73.63034 
L 274.024837 73.429214 
L 274.099227 73.373904 
L 274.166359 73.44765 
L 274.122814 73.63034 
L 274.189946 73.727552 
L 274.502928 73.920298 
L 274.567339 74.024213 
L 274.616328 74.087904 
L 274.731541 74.193495 
L 274.792323 74.223664 
L 274.957433 74.255509 
L 275.036359 74.295734 
L 275.151573 74.447697 
L 275.245921 74.673405 
L 275.235035 74.873973 
L 275.036359 74.951631 
L 275.209633 75.033199 
L 275.385629 75.021466 
L 275.520801 75.057781 
L 275.575233 75.28349 
L 275.624221 75.489086 
L 275.863721 75.86117 
L 275.956255 76.084644 
L 275.880957 76.084644 
L 275.835598 75.998607 
L 275.763022 75.919273 
L 275.674117 75.851114 
L 275.575233 75.804184 
L 275.543481 76.708137 
L 274.964691 76.780766 
L 274.173617 76.412034 
L 272.366484 75.280138 
L 271.990906 75.13879 
L 271.544566 75.129293 
L 270.741698 75.28349 
L 270.310781 75.13879 
L 270.357955 74.975095 
L 270.367027 74.776762 
L 270.405129 74.596307 
L 270.532136 74.482335 
L 270.441417 74.406354 
L 270.214618 74.327579 
L 270.113012 74.244335 
L 270.00687 74.080082 
L 270.004149 74.011922 
L 270.047694 73.941528 
L 270.07491 73.77504 
L 270.212804 73.606876 
L 270.989363 73.443181 
L 271.256078 73.547096 
L 272.331104 73.443181 
L 272.778351 73.462176 
L 272.905358 73.443181 
L 273.06321 73.378373 
L 273.250092 73.234791 
L 273.369842 73.170543 
L 273.400687 73.332561 
L 273.500478 73.442064 
" clip-path="url(#pe608bac37c)" style="fill: none; stroke: #000000; stroke-width: 2"/>
    <path d="M 249.749059 40.741796 
L 249.717951 40.741796 
L 249.464481 40.708094 
L 249.31816 40.604857 
L 249.297421 40.432087 
L 249.419548 40.185525 
L 249.546283 40.131601 
L 249.661497 40.278828 
L 249.774406 40.509425 
L 249.897685 40.70561 
L 249.859664 40.720156 
L 249.749059 40.741796 
" clip-path="url(#pe608bac37c)" style="fill: none; stroke: #000000; stroke-width: 2"/>
    <path d="M 141.814337 23.026319 
L 141.949963 23.064868 
L 142.059733 22.920727 
L 142.165875 22.828544 
L 142.428961 22.735802 
L 142.467064 22.922403 
L 142.741036 23.400079 
L 142.708377 23.61629 
L 142.806354 23.581093 
L 143.172861 23.25929 
L 143.539368 23.024643 
L 144.110901 23.111239 
L 145.483033 23.732497 
L 146.184748 24.851543 
L 146.712736 25.084515 
L 146.674633 25.140942 
L 146.553069 25.365533 
L 146.792115 25.389557 
L 147.009842 25.262735 
L 147.402204 25.33313 
L 147.824957 25.391233 
L 149.080968 25.389557 
L 149.214326 25.47727 
L 149.153997 25.899636 
L 148.977094 26.252725 
L 149.147647 26.490725 
L 149.559513 25.426989 
L 150.199539 25.29905 
L 152.129596 25.262735 
L 152.877578 25.414698 
L 153.491296 25.119712 
L 154.0592 25.172228 
L 155.15237 25.476153 
L 155.561515 25.450453 
L 155.541556 25.385646 
L 155.493021 25.169994 
L 156.066822 25.365533 
L 158.2391 24.888416 
L 158.737604 25.169994 
L 159.951431 25.248209 
L 160.460367 24.990656 
L 161.754934 24.990656 
L 161.738604 24.764388 
L 161.69143 24.655445 
L 161.808458 24.468285 
L 161.754934 24.326379 
L 162.243912 24.263248 
L 162.370012 23.967703 
L 162.546915 23.977759 
L 163.148839 24.323586 
L 164.044694 25.262735 
L 164.102754 25.067754 
L 164.187123 25.126416 
L 164.31776 25.365533 
L 164.896096 25.450453 
L 167.479334 25.446543 
L 167.514261 25.637613 
L 167.25571 26.115289 
L 167.370017 26.052716 
L 167.800027 25.838181 
L 167.892561 25.675045 
L 168.058124 25.647111 
L 168.704047 25.745439 
L 169.887029 26.351054 
L 171.115371 26.460556 
L 171.234213 26.635983 
L 171.368025 26.557767 
L 172.236664 26.742133 
L 172.52742 26.592965 
L 173.692258 26.894654 
L 174.824891 27.343279 
L 177.352789 27.544405 
L 177.648081 27.803076 
L 177.880777 27.595804 
L 178.196027 27.542171 
L 178.504019 27.619269 
L 178.789786 27.803076 
L 179.011595 27.582396 
L 179.530511 27.63603 
L 180.915343 27.50418 
L 181.223336 27.28741 
L 182.193127 27.052762 
L 182.766021 26.949964 
L 182.875338 26.857223 
L 183.452314 26.958903 
L 183.402872 26.93488 
L 183.300812 26.771185 
L 183.879149 26.443796 
L 184.290108 26.490725 
L 184.949186 26.246021 
L 185.280312 26.304683 
L 185.591026 26.490725 
L 184.902011 26.809176 
L 184.753231 26.958903 
L 185.12246 27.228189 
L 185.363774 27.085725 
L 185.654076 26.88795 
L 185.860463 27.052762 
L 185.882235 26.872866 
L 185.742981 26.592965 
L 186.123096 26.592965 
L 186.040087 26.490725 
L 186.851573 26.195739 
L 187.985567 25.972824 
L 187.964248 26.209148 
L 188.305807 26.319768 
L 188.531698 26.490725 
L 189.390812 26.730401 
L 189.34273 26.954434 
L 188.877339 26.908063 
L 188.749425 27.06226 
L 188.572522 27.15556 
L 188.794331 27.192992 
L 189.025212 27.406969 
L 189.182157 27.15556 
L 189.302814 27.31702 
L 189.458398 27.32987 
L 189.951005 27.268415 
L 190.483074 27.43602 
L 191.673314 27.693016 
L 191.935493 27.776818 
L 192.193137 28.041635 
L 192.912542 28.208682 
L 193.167464 28.032696 
L 194.074205 28.66401 
L 194.074205 28.560653 
L 193.894127 27.83995 
L 194.171729 27.655584 
L 194.834888 27.240481 
L 194.759591 27.240481 
L 194.759591 27.15556 
L 195.221353 27.030415 
L 196.316791 27.005833 
L 196.886963 26.88795 
L 197.436723 27.390208 
L 197.609544 28.023757 
L 197.65445 27.970123 
L 197.942031 27.414232 
L 199.922891 27.981297 
L 200.135628 28.275165 
L 201.666973 28.857315 
L 202.624971 28.851728 
L 203.190153 28.791949 
L 203.504496 29.029949 
L 203.751707 28.966259 
L 203.888239 29.123808 
L 204.349548 28.851728 
L 204.582244 28.819325 
L 205.918995 28.365672 
L 206.375768 28.560653 
L 206.313625 28.520428 
L 206.141258 28.365672 
L 206.595763 28.181865 
L 207.416774 27.645527 
L 207.608445 27.770083 
L 207.576794 28.386394 
L 208.035345 28.696459 
L 208.129244 29.074638 
L 209.159831 28.984883 
L 209.268132 29.120758 
L 209.255459 29.324748 
L 209.391987 29.622396 
L 209.788898 29.678803 
L 209.973816 29.49539 
L 210.061955 29.26089 
L 210.228439 29.169715 
L 210.796442 29.270114 
L 211.385185 29.469847 
L 211.642111 29.431532 
L 211.962406 29.72918 
L 212.005035 30.231527 
L 211.71412 31.212807 
L 211.022261 31.946816 
L 211.364446 32.451292 
L 211.88406 32.645703 
L 212.378903 32.61271 
L 212.473955 32.427168 
L 212.578223 31.792139 
L 212.770054 31.596308 
L 213.020068 31.51081 
L 213.27181 31.57112 
L 212.948059 31.932271 
L 212.998177 32.116039 
L 213.396241 32.427168 
L 214.04259 32.531114 
L 214.789175 32.991599 
L 215.30418 32.991244 
L 215.572052 33.160822 
L 216.142936 33.252706 
L 216.667159 33.659977 
L 217.09345 33.785563 
L 217.981748 33.851904 
L 218.841243 33.711772 
L 219.139646 33.804721 
L 219.305554 34.452876 
L 219.355672 34.6519 
L 219.578611 34.76436 
L 219.800397 34.766843 
L 220.381074 35.132606 
L 220.808517 35.777214 
L 220.87995 35.85952 
L 221.174321 35.956371 
L 221.157039 36.127367 
L 221.352326 36.179518 
L 221.636904 36.033 
L 221.65649 35.706261 
L 221.940492 35.713357 
L 222.541908 35.968433 
L 222.882365 35.944309 
L 224.009731 35.23265 
L 224.206567 35.393187 
L 224.854248 35.749897 
L 224.986744 36.005328 
L 225.285436 36.037612 
L 225.808794 35.880096 
L 225.849119 36.355836 
L 226.398688 37.005766 
L 226.669441 37.174279 
L 226.73396 37.234944 
L 227.174077 37.393169 
L 227.560043 37.360531 
L 228.420114 37.072816 
L 229.493906 36.8259 
L 230.265262 37.046918 
L 230.678015 37.619154 
L 230.843635 37.597159 
L 231.354032 37.01499 
L 231.556232 36.949003 
L 231.893232 37.345985 
L 231.947671 37.393169 
L 232.388075 37.42226 
L 232.813214 37.320442 
L 232.998132 37.391041 
L 235.003705 37.24122 
L 235.025894 37.207627 
L 234.961374 36.778716 
L 234.73786 36.436368 
L 234.862291 36.318941 
L 234.739012 36.163908 
L 234.895703 35.779343 
L 234.924506 35.288703 
L 235.486749 35.176597 
L 236.067426 35.331984 
L 237.151588 35.640985 
L 237.579031 35.825462 
L 237.876282 36.030871 
L 238.29566 35.902446 
L 238.56526 36.08586 
L 239.748506 36.210028 
L 240.054974 36.567986 
L 240.253142 36.969934 
L 240.567675 37.111131 
L 240.939816 37.001863 
L 242.574699 37.070333 
L 242.582764 37.320442 
L 242.780932 37.371528 
L 243.4918 38.708283 
L 243.415759 38.976486 
L 243.50793 39.086817 
L 243.28672 39.533821 
L 243.537886 39.503312 
L 243.733749 39.662246 
L 243.77177 39.879363 
L 243.299393 40.117055 
L 243.748727 40.832616 
L 244.643938 40.838293 
L 244.824823 40.616919 
L 245.88479 40.396255 
L 246.079501 39.967699 
L 246.110609 39.979052 
L 246.271908 40.065614 
L 246.531139 40.011335 
L 246.670548 39.916968 
L 246.700503 39.979406 
L 246.694743 40.021623 
L 246.899823 40.099317 
L 247.826142 40.27528 
L 248.713288 40.721575 
L 249.094645 40.801752 
L 249.246727 41.032349 
L 249.499045 41.758198 
L 250.005986 42.034915 
L 250.608554 41.886268 
L 251.430028 41.085564 
L 251.956555 41.146229 
L 252.995783 40.915277 
L 254.089161 41.454874 
L 254.613384 41.532213 
L 254.87031 41.967864 
L 255.291993 42.173628 
L 255.758608 42.325822 
L 256.22868 41.958641 
L 256.986787 42.161211 
L 257.285191 42.145602 
L 257.280582 42.086001 
L 257.040937 41.681214 
L 257.129652 41.562723 
L 257.79674 41.131328 
L 258.872836 41.039799 
L 259.387841 40.644236 
L 259.945476 40.604502 
L 260.311856 40.344105 
L 260.672475 40.470756 
L 260.981248 40.379936 
L 261.381039 40.406898 
L 261.648335 40.791464 
L 262.011259 40.935143 
L 262.587327 40.952172 
L 263.068304 40.876031 
L 262.996068 41.805402 
L 263.327195 42.137819 
L 263.836131 42.088096 
L 264.059301 42.280284 
L 264.179051 42.175251 
L 264.325109 42.200951 
L 264.592731 42.365763 
L 263.983096 43.507156 
L 263.806193 43.426706 
L 263.39342 43.508832 
L 262.741147 43.274185 
L 262.503462 43.508832 
L 262.375547 43.802701 
L 262.416371 44.871465 
L 262.595995 45.04801 
L 262.980646 45.262545 
L 263.442039 45.862173 
L 263.425468 46.031711 
L 263.234698 46.345697 
L 263.412471 47.011788 
L 263.678279 47.273811 
L 263.63927 47.541422 
L 262.724909 48.923783 
L 262.353292 48.893326 
L 261.927472 49.180987 
L 261.820751 49.559148 
L 261.50063 49.726466 
L 260.504004 50.448819 
L 260.303932 50.748349 
L 259.216695 51.021471 
L 258.58169 51.666656 
L 254.913869 53.181907 
L 254.685256 53.405381 
L 254.042962 53.813779 
L 252.883567 54.370788 
L 252.583286 54.750694 
L 251.723265 56.045726 
L 251.358572 56.361383 
L 250.122973 56.880402 
L 248.611586 57.132369 
L 248.275924 57.290477 
L 247.894902 57.274834 
L 245.71582 57.892181 
L 244.766894 57.956988 
L 241.097291 59.159279 
L 240.68361 59.725227 
L 240.335247 59.545889 
L 239.376342 59.639748 
L 238.648772 59.985574 
L 237.389586 61.15155 
L 236.779951 61.909127 
L 235.569753 63.06784 
L 235.35384 63.468976 
L 235.970733 63.749435 
L 236.161244 63.674572 
L 235.970733 63.468976 
L 236.157615 63.482384 
L 236.437031 63.672337 
L 236.992234 64.208675 
L 237.347855 64.266219 
L 237.33334 64.552266 
L 237.06481 64.98804 
L 236.348126 65.185815 
L 236.03968 65.44281 
L 235.48992 66.250669 
L 234.831296 66.614373 
L 234.473861 66.661861 
L 234.212589 66.268547 
L 234.749649 66.20318 
L 235.000942 66.369669 
L 235.369263 66.155134 
L 235.775686 65.559575 
L 235.213225 65.552871 
L 234.075603 65.972444 
L 233.722704 66.402631 
L 232.996948 67.875884 
L 232.654028 68.301043 
L 232.581453 68.653015 
L 232.292965 68.930123 
L 231.386677 70.493882 
L 230.93943 70.872671 
L 230.559315 71.380515 
L 229.896156 71.905679 
L 229.219389 73.178364 
L 228.912757 73.487317 
L 228.34576 73.822528 
L 228.05954 74.221429 
L 227.288424 75.609203 
L 226.590338 76.348902 
L 225.380593 78.312122 
L 225.278988 78.873042 
L 224.121861 80.659158 
L 224.003472 80.903303 
L 223.922765 81.395049 
L 224.033409 82.662044 
L 224.248868 83.569907 
L 225.205862 85.494462 
L 224.90834 85.708151 
L 225.266797 86.910714 
L 226.427043 88.86289 
L 227.80235 89.853997 
L 228.845624 90.051772 
L 229.324623 90.311561 
L 229.673893 90.688673 
L 229.625812 90.71102 
L 229.51332 90.790912 
L 229.734675 90.940081 
L 230.217303 91.315518 
L 230.146542 91.635644 
L 229.74919 91.69263 
L 229.420786 91.924484 
L 229.224832 92.297686 
L 228.929993 92.346292 
L 228.423325 92.862517 
L 228.506333 93.057498 
L 228.128033 93.040737 
L 227.775588 93.143535 
L 227.287063 93.199404 
L 226.997668 93.548023 
L 226.938701 94.132408 
L 226.602585 94.370967 
L 226.139462 94.370967 
L 225.354738 94.587178 
L 225.000025 94.833558 
L 223.767147 95.383304 
L 223.609295 95.598398 
L 223.081308 96.244796 
L 222.996485 96.712416 
L 222.478023 96.777782 
L 222.362356 96.890078 
L 222.320172 97.097909 
L 221.924635 97.075561 
L 221.824843 97.620838 
L 221.989499 98.876203 
L 221.862038 99.037105 
L 221.667898 99.082917 
L 221.015625 99.117555 
L 220.655469 99.491316 
L 220.417784 100.128217 
L 220.212758 101.99199 
L 219.917012 102.103727 
L 219.599494 102.503746 
L 219.129567 103.837886 
L 219.127753 104.520599 
L 218.823842 104.154102 
L 218.405172 104.997716 
L 218.157054 105.070345 
L 218.06452 105.256946 
L 218.10353 105.513941 
L 218.579353 106.294983 
L 219.193978 106.646396 
L 219.416241 106.673213 
L 219.509682 106.506166 
L 219.790912 106.783274 
L 219.745552 106.945292 
L 219.295584 107.221283 
L 219.197153 107.154241 
L 218.784833 107.330785 
L 217.568285 107.638621 
L 217.294765 107.819076 
L 216.755892 107.537499 
L 216.388931 107.468222 
L 215.307555 107.537499 
L 215.122941 107.776057 
L 215.281436 108.145298 
L 214.59819 107.985747 
L 214.469682 107.709384 
L 213.588112 107.666408 
L 213.54348 107.794815 
L 212.851608 107.735369 
L 212.34511 108.018527 
L 211.6629 108.612409 
L 211.293671 108.751521 
L 211.146706 108.961028 
L 210.920814 109.577817 
L 210.620079 109.566084 
L 210.296211 109.792352 
L 210.131555 109.82308 
L 209.307977 110.219917 
L 209.182887 110.491463 
L 208.981685 110.463333 
L 208.815668 110.824802 
L 208.339391 111.573999 
L 207.400444 112.608683 
L 206.986764 114.017687 
L 206.926889 114.399828 
L 206.381211 115.913306 
L 206.423849 116.259132 
L 206.284141 116.364165 
L 205.966169 116.414446 
L 205.281691 117.002742 
L 205.036748 117.734061 
L 204.635768 118.164248 
L 204.519647 118.536333 
L 204.074668 118.937468 
L 203.677317 119.159825 
L 203.460951 119.192229 
L 203.042734 119.060938 
L 201.764043 117.814511 
L 201.280961 117.692718 
L 201.074121 117.734061 
L 200.484898 117.974295 
L 199.946024 117.786577 
L 198.881885 118.042455 
L 198.432823 119.180496 
L 197.967886 119.64197 
L 197.306087 119.817398 
L 197.106051 119.743651 
L 196.877891 119.840304 
L 196.060508 119.409557 
L 195.856843 119.567665 
L 195.739815 119.502858 
L 195.434998 119.09837 
L 194.909278 118.861487 
L 194.302165 119.061199 
L 193.312987 118.887549 
L 192.418305 118.959365 
L 191.624779 118.81791 
L 190.32613 119.063731 
L 189.94284 119.379947 
L 189.537277 119.632277 
L 188.841137 119.624317 
L 188.41351 119.281741 
L 188.035952 119.400834 
L 187.628284 119.205775 
L 187.464429 118.986488 
L 186.744667 119.030149 
L 186.586865 119.175175 
L 186.01322 119.239852 
L 184.817529 118.857154 
L 183.45284 119.202843 
L 182.385453 118.911769 
L 182.126309 118.972567 
L 181.789493 119.217399 
L 180.512549 119.400618 
L 178.332106 119.29782 
L 178.187862 119.424083 
L 177.167093 121.208523 
L 176.465086 121.303229 
L 176.161631 121.897225 
L 175.434072 122.305781 
L 174.960516 122.413049 
L 174.4983 122.39964 
L 172.84902 122.261645 
L 171.93507 122.905874 
L 171.173431 122.972851 
L 170.520705 123.33879 
L 169.790413 123.536006 
L 169.338176 124.267324 
L 169.329104 124.396381 
L 168.905444 125.239995 
L 168.642811 125.476878 
L 168.689532 125.600906 
L 168.198739 126.461281 
L 168.146122 126.603187 
L 168.093524 127.244278 
L 167.874883 127.244419 
L 167.783244 126.94175 
L 167.343254 126.721069 
L 167.127342 126.713807 
L 166.966315 127.613848 
L 166.980377 128.319468 
L 166.669662 128.485397 
L 165.050319 129.093246 
L 164.850283 128.677026 
L 164.185309 128.260247 
L 163.920408 128.358576 
L 162.995977 128.007721 
L 162.586832 127.501553 
L 161.645617 126.654586 
L 160.312494 126.579722 
L 159.806279 125.740018 
L 159.554986 125.327709 
L 158.944898 125.003671 
L 158.669111 124.091897 
L 158.288089 123.656123 
L 157.605425 122.16164 
L 157.266587 121.848218 
L 157.496561 121.80464 
L 157.946983 122.251589 
L 157.88983 122.367795 
L 158.14203 122.691832 
L 158.364747 122.584006 
L 158.723089 122.130913 
L 158.643709 122.121415 
L 158.22141 122.167786 
L 158.131144 121.957162 
L 158.202812 121.538706 
L 158.103928 121.276683 
L 157.446666 120.712411 
L 156.488668 120.61073 
L 156.322651 120.436979 
L 156.066822 119.626327 
L 155.840931 119.113454 
L 155.891733 118.867633 
L 156.304507 118.539685 
L 156.86969 118.266488 
L 156.985811 117.94692 
L 156.890555 117.374826 
L 156.952244 117.047995 
L 157.329637 116.725634 
L 158.233657 116.792676 
L 158.550722 116.383719 
L 158.336624 116.526742 
L 157.767812 116.647418 
L 157.561426 116.468639 
L 156.879669 116.807202 
L 156.793485 117.095484 
L 156.793485 118.079887 
L 156.397041 118.085474 
L 156.082244 117.678751 
L 155.470795 116.335672 
L 155.153277 116.005489 
L 152.122339 113.903157 
L 151.673277 113.752871 
L 150.987438 113.27296 
L 150.768804 113.164575 
L 150.568314 112.857298 
L 150.569675 112.326548 
L 150.703486 112.214252 
L 151.216958 111.398013 
L 150.342422 112.24051 
L 149.992245 112.326548 
L 150.37236 113.085242 
L 150.225394 113.102561 
L 148.887282 112.514266 
L 148.448458 112.372623 
L 148.155176 112.503092 
L 148.62102 112.616505 
L 145.750202 112.757294 
L 145.5293 112.956744 
L 145.132402 112.905345 
L 144.955046 112.804223 
L 144.73403 111.890991 
L 144.808343 111.682389 
L 144.698314 111.231838 
L 144.614208 110.14129 
L 144.446572 109.559475 
L 144.269143 108.665467 
L 143.670031 107.66432 
L 143.869927 107.278336 
L 143.841124 107.194257 
L 144.240915 106.817141 
L 144.376292 106.499981 
L 144.625153 105.426462 
L 144.822169 105.145488 
L 145.846995 104.303631 
L 146.15404 103.770419 
L 146.611438 101.955441 
L 147.877637 101.712427 
L 148.393795 101.190568 
L 149.02459 101.44387 
L 149.30744 101.411586 
L 149.601235 100.490971 
L 150.047112 99.412485 
L 150.125779 98.997508 
L 149.973952 98.890981 
L 149.280365 98.980381 
L 149.143261 99.164505 
L 148.590235 99.340823 
L 148.42087 99.337985 
L 148.160487 99.100292 
L 147.652971 97.924601 
L 147.337861 97.624469 
L 147.218615 97.361589 
L 145.72314 95.666876 
L 145.570482 95.59273 
L 145.838354 95.275925 
L 145.850452 95.11699 
L 145.721988 94.936769 
L 145.831441 94.775706 
L 146.033065 94.083914 
L 146.560168 93.240283 
L 146.386195 93.045162 
L 146.314187 92.850041 
L 146.331469 92.397361 
L 146.560168 91.595237 
L 147.891463 90.472406 
L 148.586202 90.279059 
L 148.936452 89.783807 
L 148.992907 89.570239 
L 148.83852 89.300972 
L 149.328179 88.775565 
L 149.854705 87.675084 
L 149.727394 87.578233 
L 149.804587 87.343378 
L 149.578192 86.82826 
L 149.142108 86.492652 
L 148.557399 86.447242 
L 148.155879 86.652651 
L 147.822335 86.543383 
L 147.692143 86.318107 
L 147.837889 85.910837 
L 147.70136 85.648311 
L 146.697849 85.089911 
L 146.628144 84.526544 
L 146.778498 84.27537 
L 145.933405 83.304733 
L 145.874646 82.708728 
L 146.079727 81.710419 
L 145.997349 81.57348 
L 145.292241 81.34572 
L 145.122301 81.213038 
L 144.9201 80.793706 
L 144.356705 80.436103 
L 143.824418 79.838679 
L 143.362411 78.657311 
L 145.920156 78.726135 
L 146.311307 78.609063 
L 147.536029 78.721878 
L 149.339124 78.46219 
L 149.45549 78.066982 
L 149.42611 77.845608 
L 149.635223 77.246056 
L 149.571856 76.972177 
L 149.739492 76.716746 
L 150.100687 76.555683 
L 150.419253 76.024245 
L 150.549444 75.248019 
L 150.583432 75.194804 
L 150.723993 74.437735 
L 150.915824 74.134766 
L 150.068427 72.847678 
L 149.829358 72.703644 
L 149.399035 72.626305 
L 149.266539 72.439699 
L 149.189346 71.610258 
L 149.399035 71.164673 
L 150.513152 70.767336 
L 150.729178 70.753146 
L 150.967094 70.536739 
L 151.091525 70.128759 
L 151.67105 69.698074 
L 151.866337 69.367433 
L 151.491317 69.035373 
L 151.232662 68.638036 
L 151.167566 68.190323 
L 151.603074 66.957869 
L 151.241879 66.266787 
L 151.308703 66.053218 
L 151.645127 65.374908 
L 151.623236 64.96338 
L 151.419308 63.383257 
L 151.380135 63.071773 
L 151.395689 62.724103 
L 151.577727 62.669469 
L 151.56851 62.314704 
L 151.188305 62.07914 
L 150.854761 61.231961 
L 150.348396 60.639504 
L 150.215901 60.310991 
L 150.613388 59.760396 
L 151.60365 59.787358 
L 151.755732 59.646162 
L 152.289172 58.786211 
L 152.303574 58.34985 
L 153.711486 56.82436 
L 154.541601 56.746312 
L 155.559514 56.217712 
L 155.917829 55.875719 
L 156.313588 55.335057 
L 156.522701 55.271908 
L 156.639643 54.96752 
L 157.143703 54.769561 
L 157.573451 54.04584 
L 157.53543 53.845753 
L 157.606287 53.706685 
L 157.894897 53.425002 
L 158.426608 52.700571 
L 157.687512 51.904833 
L 157.187485 51.603993 
L 156.6431 51.41916 
L 155.508244 51.303152 
L 155.281849 51.485146 
L 154.998999 51.59335 
L 154.685618 51.483727 
L 154.474201 50.995571 
L 154.319814 50.493223 
L 154.351498 50.243823 
L 154.478233 50.001164 
L 154.878601 48.620773 
L 154.303684 48.408269 
L 154.34977 47.588407 
L 154.199416 47.423087 
L 153.928088 47.317721 
L 153.779462 47.611112 
L 153.400985 47.719315 
L 152.273618 47.657586 
L 151.866914 47.078964 
L 151.526457 47.023266 
L 151.456177 47.432665 
L 151.191761 47.583795 
L 150.186521 47.578119 
L 149.659994 47.262023 
L 149.003276 47.596567 
L 148.65245 47.44863 
L 147.954255 46.97218 
L 147.598244 47.097412 
L 147.345926 47.298564 
L 147.321731 47.490492 
L 147.368393 48.152838 
L 147.137389 48.461129 
L 146.771585 48.67186 
L 145.779019 48.953188 
L 145.205831 48.969153 
L 144.786453 49.347332 
L 144.639555 49.464759 
L 144.485169 49.007822 
L 144.187341 48.774741 
L 143.719573 48.802768 
L 143.649293 48.99505 
L 143.252958 49.181302 
L 142.818602 49.195848 
L 142.638868 49.102544 
L 142.631955 48.97341 
L 142.8042 48.541661 
L 142.009225 48.429555 
L 141.525903 48.183703 
L 141.212522 48.333059 
L 140.011419 48.670795 
L 139.934225 48.751682 
L 139.579943 48.750972 
L 139.473947 47.983261 
L 139.254464 48.061309 
L 139.043047 48.627159 
L 138.498086 48.672214 
L 137.864857 49.326965 
L 137.385121 49.454116 
L 136.425391 49.399483 
L 136.428829 49.37329 
L 136.453618 48.862014 
L 136.369512 48.75381 
L 135.970296 48.61013 
L 135.844137 48.364988 
L 135.96684 47.861576 
L 136.722066 46.981404 
L 137.222958 46.650763 
L 137.341916 46.477992 
L 137.367263 46.238526 
L 137.10688 45.882342 
L 136.661579 45.820258 
L 136.294623 45.947974 
L 136.15291 45.845446 
L 136.115466 45.622654 
L 136.149454 45.03197 
L 135.948406 44.691041 
L 135.409782 44.987979 
L 135.035337 45.072768 
L 134.561808 45.404119 
L 132.63025 45.733341 
L 132.041796 46.053339 
L 131.43894 46.099813 
L 131.152633 46.368725 
L 130.949281 46.802957 
L 130.434276 47.023266 
L 130.057545 47.226323 
L 129.764521 47.663215 
L 129.330882 47.88222 
L 128.965282 48.180557 
L 128.788379 48.325815 
L 128.603311 48.265477 
L 128.631434 48.075525 
L 128.444552 45.165334 
L 128.566116 45.069799 
L 129.2134 45.008343 
L 129.244698 44.773696 
L 128.98524 44.592123 
L 131.158879 42.869138 
L 131.497263 42.54119 
L 131.443739 42.017702 
L 131.182466 42.19257 
L 130.904865 42.694828 
L 129.55632 43.254631 
L 128.756627 43.279772 
L 128.799719 43.107138 
L 128.98524 42.614936 
L 129.141278 42.830589 
L 129.205689 42.726673 
L 129.205235 42.075246 
L 129.365809 42.044519 
L 129.821674 42.0948 
L 129.903322 41.91658 
L 130.514317 41.303144 
L 131.041851 40.938881 
L 131.122592 40.740548 
L 131.020986 40.786919 
L 130.659922 40.786919 
L 129.739119 41.268505 
L 129.023343 41.257331 
L 128.665001 40.951731 
L 128.528014 40.544449 
L 128.38377 40.470703 
L 127.919286 40.356731 
L 128.207774 40.105323 
L 128.603311 39.982412 
L 128.831017 40.141079 
L 128.827389 40.270694 
L 128.680423 40.356731 
L 128.7784 40.415393 
L 129.096825 40.499196 
L 129.2134 40.45897 
L 129.228369 40.15337 
L 129.229729 40.004759 
L 129.365809 39.897492 
L 129.2134 39.185168 
L 129.354922 38.816995 
L 129.782211 38.497427 
L 130.2789 37.348212 
L 130.2095 37.348212 
L 130.023071 37.781193 
L 129.676523 38.005225 
L 129.466507 37.931479 
L 129.068702 37.430338 
L 128.873655 37.887901 
L 128.98524 38.005225 
L 128.611476 38.400216 
L 128.45181 38.286244 
L 128.511685 38.142103 
L 127.988687 38.473962 
L 128.146539 38.648831 
L 128.015449 38.743248 
L 127.583171 38.920352 
L 127.400371 39.263943 
L 127.150892 39.513675 
L 126.985783 39.343276 
L 126.907764 38.862807 
L 126.489547 38.61531 
L 126.706367 37.931479 
L 126.839725 37.559395 
L 126.943598 37.083395 
L 127.368619 36.652649 
L 127.690673 36.485043 
L 128.146539 35.979433 
L 128.490819 35.825236 
L 128.531643 35.388903 
L 128.300308 35.274373 
L 128.254041 35.588354 
L 128.081221 35.781659 
L 127.531914 35.921889 
L 126.734036 35.888367 
L 126.770778 36.117987 
L 126.373426 36.436438 
L 126.015084 36.28224 
L 125.774678 35.64087 
L 126.017806 35.591706 
L 126.16205 35.359293 
L 125.917107 35.10565 
L 125.69303 34.919607 
L 125.644949 34.602833 
L 125.774678 34.413439 
L 125.703009 34.149181 
L 125.408171 34.074876 
L 125.096096 33.765923 
L 124.992222 34.103369 
L 124.937791 34.08996 
L 124.779939 33.891068 
L 124.47376 34.165383 
L 124.287332 34.562608 
L 124.235622 34.534673 
L 124.098182 33.916768 
L 124.481925 32.839623 
L 124.1635 32.315017 
L 124.480564 32.112215 
L 124.671529 31.745159 
L 125.01717 31.627835 
L 125.30838 31.620572 
L 126.078588 31.031159 
L 125.889892 31.113286 
L 125.458974 31.151276 
L 125.470767 31.031159 
L 124.956842 31.176976 
L 124.853875 30.9373 
L 125.742019 30.303192 
L 126.352561 30.464652 
L 126.695481 30.374145 
L 127.092832 29.996474 
L 127.234354 29.791995 
L 127.438473 29.955132 
L 128.031779 29.839484 
L 128.224104 29.705958 
L 127.857597 29.638357 
L 127.641685 29.336108 
L 127.413072 29.184146 
L 127.493812 29.143921 
L 127.60449 29.13554 
L 128.961653 28.483555 
L 129.174844 28.385226 
L 129.319542 28.458973 
L 129.859776 28.853963 
L 131.009646 28.934973 
L 131.822039 28.618757 
L 132.202154 28.769602 
L 132.880735 28.432156 
L 133.00865 28.20533 
L 133.488556 27.917048 
L 134.098644 27.77179 
L 134.238806 28.08633 
L 134.485563 28.283546 
L 134.667456 28.003086 
L 134.637972 27.677931 
L 134.740485 27.500269 
L 134.964562 27.534908 
L 135.519765 27.893583 
L 135.634072 28.197508 
L 136.005114 28.56233 
L 136.08404 28.769602 
L 136.164781 28.337738 
L 136.090391 27.705865 
L 136.265026 27.484626 
L 136.471866 27.353894 
L 136.049567 27.235452 
L 135.475766 27.203049 
L 135.025344 26.876777 
L 135.233545 26.727049 
L 136.515865 26.507486 
L 136.548071 26.314739 
L 136.493639 26.304683 
L 136.236449 26.408598 
L 135.558775 26.510838 
L 135.710276 26.408598 
L 135.558775 26.314739 
L 135.426324 26.494077 
L 135.205876 26.576204 
L 134.713723 26.596317 
L 135.081136 25.680073 
L 134.935532 25.431458 
L 134.985881 25.283407 
L 135.517951 25.319162 
L 135.838191 25.168317 
L 137.461162 24.056534 
L 137.595427 24.28783 
L 137.848988 24.244252 
L 137.696579 24.244252 
L 137.797732 24.087262 
L 137.848988 24.056534 
L 137.602685 23.753727 
L 137.76598 23.329685 
L 138.951683 23.045314 
L 139.446558 22.548084 
L 139.755458 22.590544 
L 140.138294 23.29784 
L 140.073884 23.264319 
L 139.903331 23.212361 
L 139.767252 23.569361 
L 139.834384 23.672159 
L 139.683336 23.738084 
L 139.528206 23.736966 
L 139.446558 23.868816 
L 140.107903 23.793952 
L 139.903331 23.493938 
L 140.167778 23.406783 
L 140.443112 23.493938 
L 140.418164 23.448685 
L 140.366454 23.29784 
L 140.948873 22.874356 
L 141.629269 22.625742 
L 142.013013 22.216784 
L 142.124598 22.463164 
L 141.814337 23.026319 
L 141.814337 23.026319 
" clip-path="url(#pe608bac37c)" style="fill: none; stroke: #000000; stroke-width: 2"/>
   </g>
  </g>
 </g>
 <defs>
  <clipPath id="pe608bac37c">
   <rect x="0" y="-0" width="301.043187" height="266.112"/>
  </clipPath>
 </defs>
</svg>
