<?xml version="1.0" encoding="utf-8" standalone="no"?>
<!DOCTYPE svg PUBLIC "-//W3C//DTD SVG 1.1//EN"
  "http://www.w3.org/Graphics/SVG/1.1/DTD/svg11.dtd">
<svg xmlns:xlink="http://www.w3.org/1999/xlink" width="357.12pt" height="232.429814pt" viewBox="0 0 357.12 232.429814" xmlns="http://www.w3.org/2000/svg" version="1.1">
 <metadata>
  <rdf:RDF xmlns:dc="http://purl.org/dc/elements/1.1/" xmlns:cc="http://creativecommons.org/ns#" xmlns:rdf="http://www.w3.org/1999/02/22-rdf-syntax-ns#">
   <cc:Work>
    <dc:type rdf:resource="http://purl.org/dc/dcmitype/StillImage"/>
    <dc:date>2024-02-02T21:58:01.260253</dc:date>
    <dc:format>image/svg+xml</dc:format>
    <dc:creator>
     <cc:Agent>
      <dc:title>Matplotlib v3.8.2, https://matplotlib.org/</dc:title>
     </cc:Agent>
    </dc:creator>
   </cc:Work>
  </rdf:RDF>
 </metadata>
 <defs>
  <style type="text/css">*{stroke-linejoin: round; stroke-linecap: butt}</style>
 </defs>
 <g id="figure_1">
  <g id="patch_1">
   <path d="M 0 232.429814 
L 357.12 232.429814 
L 357.12 0 
L 0 0 
L 0 232.429814 
z
" style="fill: none"/>
  </g>
  <g id="axes_1">
   <g id="PatchCollection_1">
    <path d="M 97.101768 188.810686 
L 96.167948 188.924057 
L 95.196013 188.265776 
L 94.647156 187.435611 
L 94.685271 186.663959 
L 94.776747 185.928878 
L 94.952076 185.387625 
L 95.66864 185.490024 
L 96.648199 186.301904 
L 97.124638 186.817558 
L 97.330459 187.633095 
L 97.101768 188.810686 
" clip-path="url(#pf954deade0)" style="fill: none; stroke: #000000; stroke-width: 2"/>
    <path d="M 131.39774 159.787808 
L 129.911251 160.592373 
L 128.630584 159.370896 
L 128.379024 157.205883 
L 129.190876 155.900292 
L 130.543962 155.42121 
L 131.908483 155.746693 
L 132.320126 157.871478 
L 131.39774 159.787808 
" clip-path="url(#pf954deade0)" style="fill: none; stroke: #000000; stroke-width: 2"/>
    <path d="M 67.623546 116.619201 
L 67.966582 116.809371 
L 68.439209 116.619201 
L 69.559793 115.587894 
L 70.520294 115.876806 
L 71.297842 116.407088 
L 72.098259 116.688686 
L 73.112121 116.253489 
L 74.644348 114.28596 
L 75.612472 113.554537 
L 77.251421 114.410302 
L 79.747961 113.795907 
L 80.796126 114.051905 
L 81.825234 114.702872 
L 83.967303 115.459895 
L 86.15511 117.039769 
L 88.712634 118.228332 
L 89.6617 119.596094 
L 90.340149 121.450252 
L 90.702242 121.99882 
L 91.392126 122.668072 
L 93.282635 123.670122 
L 95.249374 124.171147 
L 96.396639 124.59903 
L 97.96317 125.666908 
L 99.358183 127.078555 
L 100.055689 128.526773 
L 99.666915 129.792136 
L 96.690125 127.671008 
L 95.577164 128.526773 
L 96.705371 128.954656 
L 97.15513 129.459338 
L 97.467673 130.311446 
L 95.447573 130.007905 
L 94.548056 129.470309 
L 93.629482 128.526773 
L 92.96628 126.881071 
L 92.497464 126.62873 
L 91.777088 126.625072 
L 91.331141 127.627122 
L 90.911875 129.448367 
L 90.233426 130.384589 
L 89.53592 130.984356 
L 88.781241 130.757614 
L 88.392467 130.929499 
L 88.220949 131.927892 
L 88.392467 133.595537 
L 88.510624 134.045362 
L 87.435778 134.901128 
L 86.437162 136.155519 
L 85.476661 136.897914 
L 83.395576 135.24124 
L 82.332165 135.296096 
L 81.989129 136.05312 
L 83.018237 137.172197 
L 79.888987 141.516852 
L 79.153365 141.919135 
L 78.402498 142.160505 
L 77.609703 142.694444 
L 76.245183 144.44986 
L 75.604849 144.96917 
L 74.545249 145.152026 
L 72.406992 144.932599 
L 71.389318 145.247111 
L 70.870953 146.37716 
L 73.051137 147.770522 
L 71.480794 149.284568 
L 68.953763 149.635651 
L 68.286749 147.551095 
L 67.577808 147.053727 
L 66.712595 146.826986 
L 65.832136 146.8855 
L 65.066022 147.273154 
L 64.071218 148.40686 
L 63.853962 148.220347 
L 63.327973 147.273154 
L 62.668582 146.709958 
L 62.253127 147.309725 
L 61.852919 148.834743 
L 61.22402 149.452795 
L 60.900041 149.496681 
L 60.880984 149.185826 
L 60.606555 147.551095 
L 59.943352 147.514524 
L 59.123877 147.891207 
L 58.361575 148.505602 
L 57.862267 149.163883 
L 57.359148 149.62468 
L 56.272867 149.076112 
L 55.781183 149.163883 
L 55.434335 149.46011 
L 52.758655 150.974156 
L 51.432249 152.210262 
L 50.818596 153.135512 
L 50.479371 153.431739 
L 50.338345 153.881564 
L 50.250681 157.227826 
L 50.041048 159.202669 
L 49.640839 161.162883 
L 47.963774 165.68308 
L 46.972782 167.20444 
L 46.904174 168.074834 
L 47.117619 170.086248 
L 46.507777 170.996871 
L 39.875749 177.173741 
L 38.400694 177.228598 
L 37.146707 175.330554 
L 37.348718 174.284618 
L 37.1772 173.297197 
L 36.712195 172.554802 
L 35.930836 172.115948 
L 35.843171 171.344297 
L 35.896532 170.978585 
L 37.131461 171.095613 
L 37.497366 170.978585 
L 37.825156 170.356875 
L 38.610327 167.63598 
L 40.371245 164.841943 
L 41.625232 162.121048 
L 42.116917 161.777279 
L 42.795366 161.989392 
L 43.957877 162.647673 
L 44.529603 162.391675 
L 44.784975 161.791908 
L 45.059403 159.915807 
L 45.341455 159.038099 
L 47.117619 156.251376 
L 46.058019 155.088412 
L 44.255175 154.309447 
L 40.996333 153.738936 
L 40.093005 152.773458 
L 38.400694 148.523888 
L 37.322037 147.551095 
L 34.280452 147.514524 
L 32.76347 147.009841 
L 31.421819 145.762765 
L 30.648082 144.20849 
L 30.293611 143.15524 
L 30.270742 142.387246 
L 30.850092 141.96302 
L 33.312328 142.694444 
L 32.771093 141.330339 
L 31.970676 139.926006 
L 31.67719 138.839843 
L 32.671994 138.400989 
L 33.506715 139.00807 
L 34.257582 140.171033 
L 35.016073 140.895142 
L 35.896532 140.189319 
L 35.500135 138.620416 
L 36.113788 137.676879 
L 37.165765 137.380653 
L 38.1377 137.731736 
L 37.714623 136.700429 
L 37.146707 134.765814 
L 35.080869 130.691786 
L 34.07463 129.371567 
L 32.980726 127.444267 
L 32.351827 126.62873 
L 31.025421 125.33411 
L 29.76 123.618922 
L 32.226047 124.767257 
L 32.992161 124.785543 
L 33.689667 124.500288 
L 33.792578 124.182118 
L 33.815447 123.71035 
L 34.261394 122.953327 
L 36.048992 123.02647 
L 37.40589 123.479952 
L 38.583647 124.672172 
L 40.618994 128.497516 
L 40.881988 129.415453 
L 41.057317 131.174526 
L 41.255516 131.456124 
L 41.79675 131.598751 
L 42.223639 131.247668 
L 42.231262 130.468702 
L 41.97208 129.141169 
L 42.238886 126.782328 
L 42.467576 125.754679 
L 42.93258 124.785543 
L 43.550045 124.189433 
L 45.055592 123.38121 
L 45.661622 122.668072 
L 46.404867 120.751743 
L 46.725033 120.484773 
L 47.582623 120.437231 
L 47.708403 120.634715 
L 48.017136 121.636765 
L 48.329679 123.655494 
L 49.008128 124.171147 
L 50.406953 124.423488 
L 50.860522 122.624187 
L 50.910072 120.151976 
L 51.115894 118.374617 
L 52.690047 116.984913 
L 59.299207 116.253489 
L 63.385146 112.958427 
L 64.924996 112.515916 
L 65.435739 112.998655 
L 66.304763 115.105155 
L 67.124238 115.778064 
L 67.623546 116.619201 
L 67.623546 116.619201 
" clip-path="url(#pf954deade0)" style="fill: none; stroke: #000000; stroke-width: 2"/>
    <path d="M 100.753196 113.353396 
L 100.650285 114.209161 
L 100.722703 114.973498 
L 101.103854 115.767093 
L 101.965256 116.842285 
L 102.319726 117.423767 
L 103.047725 118.882956 
L 103.192562 119.625351 
L 102.239685 120.331174 
L 101.850911 121.121112 
L 101.408775 121.687965 
L 100.696023 121.417338 
L 99.945155 120.876085 
L 99.140927 120.59083 
L 97.494354 120.437231 
L 96.842586 120.663972 
L 95.447573 121.49048 
L 94.929207 121.417338 
L 90.751792 117.423767 
L 88.346729 116.469259 
L 87.226145 115.306296 
L 87.39004 113.408252 
L 87.980824 112.936484 
L 89.417763 113.441166 
L 90.111458 113.071798 
L 90.233426 112.589058 
L 90.553593 110.720272 
L 90.751792 110.061991 
L 91.689423 108.792971 
L 92.680416 108.328517 
L 93.709524 108.372403 
L 97.951735 109.641422 
L 99.914663 110.848271 
L 100.547374 111.59798 
L 100.798934 112.464716 
L 100.753196 113.353396 
" clip-path="url(#pf954deade0)" style="fill: none; stroke: #000000; stroke-width: 2"/>
    <path d="M 94.189774 75.703378 
L 97.467673 76.756628 
L 99.529701 76.160518 
L 100.570243 76.134918 
L 101.49644 77.063826 
L 102.697066 78.991126 
L 102.887641 80.004148 
L 102.468375 81.415795 
L 101.97669 81.86562 
L 101.416398 81.690078 
L 100.859918 81.29511 
L 100.375856 81.108597 
L 99.876548 81.298767 
L 98.454855 82.282531 
L 97.494354 82.300817 
L 95.89352 81.342652 
L 94.91015 81.108597 
L 94.635721 81.29511 
L 94.521376 81.70105 
L 94.319366 82.096018 
L 92.604186 82.51293 
L 92.093444 82.458073 
L 91.392126 82.000933 
L 90.039039 78.219475 
L 89.791291 77.707478 
L 90.01617 76.654229 
L 90.599331 76.006919 
L 91.388314 75.674121 
L 92.417422 75.542465 
L 94.189774 75.703378 
" clip-path="url(#pf954deade0)" style="fill: none; stroke: #000000; stroke-width: 2"/>
    <path d="M 71.355015 78.621757 
L 72.113505 79.210553 
L 76.820721 78.892384 
L 81.36023 81.101283 
L 82.084417 82.282531 
L 82.229254 83.207782 
L 81.992941 84.597486 
L 82.084417 85.402052 
L 82.503683 86.25416 
L 83.487053 87.069697 
L 83.864392 87.581694 
L 84.165502 88.130261 
L 84.824893 88.887284 
L 85.156494 89.391966 
L 85.293709 89.805221 
L 85.339447 90.269674 
L 85.316578 91.29001 
L 85.465227 91.882463 
L 85.781582 92.058005 
L 86.109372 92.068976 
L 86.277078 92.156747 
L 86.345686 93.977991 
L 86.017896 94.91787 
L 85.339447 95.027583 
L 83.407011 93.670793 
L 82.915326 93.462337 
L 82.423641 93.381881 
L 82.084417 93.692736 
L 81.96626 94.266903 
L 81.741381 94.566787 
L 81.131539 94.047476 
L 80.353991 94.442445 
L 79.553574 94.449759 
L 78.806518 94.7021 
L 78.227168 95.839463 
L 78.669303 95.854092 
L 78.970413 96.088147 
L 79.153365 96.578201 
L 79.210538 97.368138 
L 79.141931 98.498187 
L 78.924675 98.717614 
L 78.55877 98.728586 
L 78.059462 99.240582 
L 77.205683 99.752578 
L 75.86022 99.803778 
L 74.613856 99.350295 
L 74.064999 98.344588 
L 74.579553 97.404709 
L 75.604849 96.665972 
L 76.34047 95.91992 
L 75.986 94.976384 
L 75.185583 94.910556 
L 74.030695 95.451809 
L 72.887242 96.281974 
L 72.113505 97.06094 
L 71.107266 99.25521 
L 69.506432 104.466602 
L 68.286749 106.379274 
L 66.236156 107.483723 
L 63.636706 107.798235 
L 61.109674 107.099726 
L 59.299207 105.150483 
L 59.726096 104.839628 
L 60.137739 104.400774 
L 60.900041 103.256096 
L 60.252084 102.297932 
L 59.398306 100.644915 
L 58.662685 98.827328 
L 58.342518 97.368138 
L 58.342518 95.195811 
L 58.209115 93.923134 
L 57.747922 92.928398 
L 55.506754 90.247732 
L 54.226086 89.366367 
L 52.831073 88.95677 
L 51.275977 89.084769 
L 48.238203 89.871049 
L 46.744091 89.732078 
L 40.538952 86.33096 
L 39.704231 85.402052 
L 40.211162 83.917263 
L 42.025441 83.617379 
L 45.490104 84.125718 
L 59.299207 82.282531 
L 58.384444 81.668136 
L 58.315837 81.042769 
L 58.90281 80.816028 
L 59.939541 81.415795 
L 60.488398 81.360938 
L 60.446471 78.190218 
L 61.227831 77.367366 
L 62.287431 77.297881 
L 63.110717 76.961426 
L 63.804412 76.215375 
L 64.444746 74.920755 
L 64.608641 74.119847 
L 64.608641 73.362824 
L 64.696306 72.616772 
L 65.11176 71.848777 
L 65.603445 71.622036 
L 67.6083 71.841463 
L 67.638792 71.848777 
L 68.835606 72.03529 
L 70.234431 72.550944 
L 71.057717 73.414023 
L 70.001928 75.966691 
L 70.45931 77.422223 
L 71.355015 78.621757 
" clip-path="url(#pf954deade0)" style="fill: none; stroke: #000000; stroke-width: 2"/>
    <path d="M 156.70617 30.431929 
L 155.463618 30.750099 
L 154.190573 29.367708 
L 154.10672 27.670806 
L 154.724185 26.076303 
L 155.44456 25.911733 
L 156.14969 27.180753 
L 157.045395 29.535936 
L 156.70617 30.431929 
" clip-path="url(#pf954deade0)" style="fill: none; stroke: #000000; stroke-width: 2"/>
    <path d="M 215.933233 27.495265 
L 216.813692 27.963376 
L 217.671282 27.776863 
L 218.460264 26.986925 
L 219.157771 25.659392 
L 218.810923 25.044996 
L 219.477938 22.923869 
L 220.480365 23.58215 
L 221.532342 25.264423 
L 222.355628 26.218931 
L 223.316129 25.981218 
L 223.411417 25.39608 
L 223.209407 24.613457 
L 223.285637 23.816205 
L 223.872609 22.931183 
L 224.417655 22.653242 
L 225.038932 22.806841 
L 226.658824 23.651635 
L 228.442611 25.352194 
L 228.625563 25.714249 
L 228.781835 26.880869 
L 229.216347 27.030811 
L 238.070486 26.880869 
L 238.973814 27.15881 
L 240.883381 28.391258 
L 243.768694 29.060511 
L 246.391014 30.603814 
L 248.270088 31.134096 
L 249.303008 31.177981 
L 250.080556 30.892726 
L 251.666144 29.623707 
L 252.340782 29.338452 
L 254.288464 29.510336 
L 256.102743 30.058904 
L 257.848414 31.006097 
L 259.567406 32.406772 
L 263.683837 36.79897 
L 265.970743 37.629135 
L 267.926048 38.846955 
L 268.871303 39.212667 
L 277.233757 39.936776 
L 290.947572 39.051754 
L 298.166573 40.83277 
L 305.37414 41.275281 
L 312.69224 43.030697 
L 314.632299 42.408987 
L 316.446578 41.183853 
L 317.837779 39.494265 
L 319.518655 36.36743 
L 320.433075 38.054459 
L 322.533903 39.14128 
L 323.535911 40.190946 
L 325.080069 43.683639 
L 325.631899 44.32923 
L 326.839634 45.346384 
L 327.36 45.968752 
L 327.142172 47.664008 
L 326.004627 46.948749 
L 323.944944 48.620783 
L 320.142638 48.931967 
L 318.656568 49.670449 
L 322.054682 50.998787 
L 323.163184 50.956986 
L 322.214423 52.229589 
L 316.739683 52.122765 
L 314.125749 53.567217 
L 313.11406 54.89091 
L 313.510991 56.474697 
L 312.702607 58.41147 
L 311.245581 65.178562 
L 307.721611 74.639487 
L 305.717595 78.369051 
L 305.199649 80.39407 
L 304.313816 81.829232 
L 294.16788 90.862859 
L 291.021478 101.698567 
L 297.778981 134.019909 
L 294.932697 140.824158 
L 294.40507 145.399028 
L 294.990785 149.639492 
L 298.940729 158.231888 
L 301.317473 161.608467 
L 301.60549 164.223342 
L 301.302951 166.578123 
L 301.37072 169.169776 
L 302.263814 169.536694 
L 303.127864 170.265887 
L 303.413461 172.437208 
L 303.190792 173.591376 
L 302.851949 174.580663 
L 302.672846 175.614072 
L 302.93424 176.877387 
L 303.316648 177.378997 
L 308.060454 179.366859 
L 308.830113 180.251644 
L 309.227043 182.030502 
L 308.641329 183.242727 
L 307.547349 184.04391 
L 304.609093 185.286323 
L 296.970598 186.47997 
L 296.36068 186.863144 
L 296.733407 187.062859 
L 297.730575 187.989445 
L 296.433289 188.662903 
L 295.789487 189.199347 
L 295.322367 189.986596 
L 295.10696 191.503038 
L 295.624906 194.038956 
L 295.571659 195.17919 
L 294.758435 196.091842 
L 290.88594 197.496815 
L 290.123543 198.286386 
L 289.806482 198.808897 
L 289.574133 199.521833 
L 289.491842 200.847849 
L 289.598336 201.205479 
L 289.828265 202.689409 
L 289.915396 203.009882 
L 289.685467 205.253194 
L 289.346624 205.687458 
L 288.77059 205.984709 
L 288.131628 206.028832 
L 287.555595 206.237836 
L 287.153824 207.008829 
L 287.178027 208.139774 
L 287.507189 209.637638 
L 288.320413 212.001708 
L 286.776255 213.032795 
L 279.549212 210.285551 
L 275.788052 210.03939 
L 274.672289 209.479724 
L 273.725948 208.3302 
L 272.007529 205.592245 
L 270.903868 204.68656 
L 269.287101 204.115282 
L 268.473877 204.096704 
L 267.650972 204.28713 
L 266.924879 204.147794 
L 266.402092 203.50917 
L 265.826059 203.051683 
L 264.959588 203.467369 
L 264.228655 204.607603 
L 263.187922 207.185322 
L 262.224639 208.072429 
L 261.396893 208.327878 
L 257.761589 208.123518 
L 256.193228 208.652996 
L 254.663593 209.591193 
L 253.279176 210.859151 
L 252.979058 211.439719 
L 252.591808 212.651943 
L 252.112587 212.879526 
L 251.662409 212.721611 
L 250.795939 212.071376 
L 250.350602 211.950618 
L 249.716481 212.336115 
L 249.077519 212.930616 
L 248.351426 213.060663 
L 247.484956 212.043509 
L 245.916595 209.725884 
L 245.125767 208.93119 
L 240.814584 207.008829 
L 238.873496 205.571345 
L 237.280932 203.622961 
L 232.846926 196.142932 
L 231.288247 194.280472 
L 226.113625 189.824037 
L 225.707014 188.716315 
L 225.566636 186.863144 
L 225.707014 186.038739 
L 226.137829 184.96585 
L 225.982929 184.108933 
L 225.634404 183.670024 
L 225.082574 183.386707 
L 215.241597 182.487989 
L 214.065326 181.324532 
L 213.46509 179.529418 
L 213.029434 177.706437 
L 212.322704 176.452412 
L 211.606292 176.429189 
L 208.566384 177.5044 
L 207.394954 177.606579 
L 206.291293 177.434731 
L 205.255401 176.782174 
L 204.267915 175.453836 
L 204.016203 174.740899 
L 203.890346 173.558864 
L 203.488575 172.885406 
L 203.033557 172.560288 
L 201.378065 172.186403 
L 199.53137 170.976501 
L 196.694767 167.460585 
L 194.816607 166.420209 
L 194.342227 166.448076 
L 193.746831 166.684947 
L 193.320856 166.420209 
L 193.025578 165.893054 
L 192.149426 163.647419 
L 191.311999 162.946094 
L 190.460051 162.790502 
L 189.859814 163.387325 
L 189.806567 164.943246 
L 191.118375 167.376984 
L 191.437856 168.812146 
L 190.508457 170.066171 
L 189.007865 170.858065 
L 188.272091 170.858065 
L 187.584723 170.265887 
L 187.01353 168.329114 
L 186.582715 166.113669 
L 185.938913 164.265143 
L 184.723918 163.431448 
L 182.531118 163.49415 
L 181.427457 163.826234 
L 180.406086 164.492725 
L 176.940203 168.12011 
L 175.744571 168.965416 
L 172.147991 169.504182 
L 171.015287 170.249631 
L 169.538898 171.64067 
L 168.319062 171.431666 
L 167.099226 170.630483 
L 165.63736 170.244986 
L 164.949992 171.176216 
L 164.088362 173.661044 
L 163.357428 174.255545 
L 160.511145 174.580663 
L 157.224365 174.269479 
L 156.285285 174.480805 
L 153.826251 176.796107 
L 151.967453 177.803972 
L 151.381738 178.500653 
L 150.61208 180.637141 
L 150.089293 181.545148 
L 148.995313 182.176805 
L 147.659303 182.248795 
L 145.622298 181.386739 
L 146.113983 180.574859 
L 146.476076 179.719094 
L 146.918211 176.614202 
L 149.132699 170.996871 
L 149.936928 167.453124 
L 152.197153 164.644459 
L 153.02044 163.05727 
L 153.02044 158.708958 
L 153.363476 156.737772 
L 153.432083 155.63698 
L 153.180523 154.689787 
L 152.81843 153.859621 
L 152.597362 152.894142 
L 152.585928 151.888435 
L 153.180523 149.964792 
L 153.340607 146.991556 
L 154.301107 145.664022 
L 155.707555 144.727801 
L 156.972976 143.542895 
L 157.529457 141.472967 
L 157.091133 139.549323 
L 156.050591 138.027963 
L 152.08662 134.838957 
L 150.165618 134.012448 
L 148.229371 133.836907 
L 146.598044 134.659758 
L 146.079679 135.394839 
L 145.546068 136.462717 
L 145.134424 137.640308 
L 144.970529 138.708186 
L 144.901922 140.105205 
L 144.71897 140.913428 
L 142.679812 144.358432 
L 142.001363 144.906999 
L 141.155207 145.152026 
L 139.440028 144.66563 
L 138.590061 144.661972 
L 137.789644 145.459224 
L 136.943488 147.507209 
L 136.512788 147.880235 
L 135.689501 147.551095 
L 135.194005 146.995213 
L 133.776123 144.533973 
L 131.614996 142.533531 
L 130.357198 140.924399 
L 127.247005 139.585894 
L 125.367931 139.417667 
L 124.476037 139.015384 
L 124.232101 138.737443 
L 123.485044 137.731736 
L 123.061967 137.676879 
L 122.181508 138.400989 
L 121.75843 138.192533 
L 121.301049 137.808536 
L 120.843668 137.640308 
L 120.42059 138.064534 
L 119.837429 138.98247 
L 119.505827 139.070241 
L 119.151357 138.708186 
L 118.865494 137.962135 
L 118.415735 135.848321 
L 118.118438 133.632108 
L 117.584826 132.929942 
L 116.959738 132.410631 
L 116.452807 131.598751 
L 116.174567 130.424817 
L 116.178379 129.499566 
L 116.452807 127.297982 
L 116.498546 124.635601 
L 116.246986 122.434017 
L 115.538045 121.35151 
L 114.184959 122.053677 
L 113.597986 121.987848 
L 112.69847 121.373453 
L 111.814199 120.572544 
L 111.307268 119.936206 
L 110.968044 118.681815 
L 110.914683 117.650508 
L 110.73173 117.131197 
L 110.026601 117.423767 
L 109.397701 118.290503 
L 109.024173 119.252325 
L 108.631588 119.694836 
L 107.934081 118.989013 
L 107.773998 118.114962 
L 108.071296 117.149483 
L 108.498185 116.173033 
L 108.719253 115.280696 
L 108.448635 113.605737 
L 107.911212 111.38221 
L 107.545307 109.019712 
L 107.758752 106.935156 
L 108.170395 106.145218 
L 108.559169 106.028191 
L 109.54635 106.379274 
L 109.889386 106.189104 
L 110.04947 105.764878 
L 110.030412 105.34431 
L 109.271922 104.576315 
L 109.146142 103.380438 
L 109.412947 102.36376 
L 110.026601 102.33816 
L 111.821822 103.219525 
L 113.567494 102.90867 
L 115.309354 102.232103 
L 117.093141 102.030962 
L 118.011715 102.403988 
L 119.818371 103.610836 
L 120.595919 103.870492 
L 122.032859 103.870492 
L 122.170073 103.585237 
L 122.227246 102.948898 
L 122.143393 102.316217 
L 121.872776 102.030962 
L 121.137154 101.610394 
L 120.958013 100.659543 
L 121.236253 99.620922 
L 121.891833 98.958984 
L 122.673193 99.024812 
L 124.498906 100.045148 
L 125.398423 100.187775 
L 124.136813 98.699329 
L 122.650324 97.646079 
L 121.175269 97.554651 
L 119.932717 98.958984 
L 119.08275 97.821621 
L 118.126061 97.726536 
L 116.132641 98.344588 
L 112.706093 98.106876 
L 111.627435 98.344588 
L 110.689804 98.915098 
L 110.213365 99.35761 
L 109.866517 99.854978 
L 109.580654 99.935434 
L 108.094165 99.518523 
L 107.187025 99.679436 
L 104.560895 100.802171 
L 106.298943 97.576594 
L 107.194648 96.775685 
L 108.745933 96.505059 
L 109.088969 95.865063 
L 106.161729 91.875149 
L 105.76152 90.181904 
L 104.229293 87.874263 
L 104.214047 86.074961 
L 105.227909 84.696228 
L 108.338102 84.915655 
L 109.359586 83.558865 
L 110.167627 84.08549 
L 110.998536 84.147661 
L 111.821822 83.840463 
L 113.712331 82.128932 
L 113.845734 81.540137 
L 113.864792 80.439344 
L 113.559871 78.28896 
L 112.805192 76.731028 
L 111.776084 75.644864 
L 110.666934 74.920755 
L 111.250096 76.09469 
L 112.637485 77.466109 
L 113.224458 78.651014 
L 112.828061 78.903355 
L 111.96666 78.994783 
L 111.627435 79.210553 
L 110.666934 80.439344 
L 110.602139 80.750199 
L 110.609762 81.284138 
L 110.346768 82.282531 
L 109.893198 82.373959 
L 109.603523 81.971676 
L 109.363398 81.415795 
L 109.0661 81.108597 
L 106.051195 80.351574 
L 104.812454 79.323924 
L 103.573713 77.367366 
L 103.89388 77.422223 
L 104.881061 77.367366 
L 104.54946 75.747264 
L 104.816266 74.624529 
L 107.430962 71.731749 
L 107.922647 71.987748 
L 108.719253 73.077568 
L 108.772614 68.43303 
L 107.217517 64.015233 
L 106.500953 60.599486 
L 109.0661 58.95744 
L 109.588277 59.023269 
L 110.571647 59.421894 
L 111.128127 59.516979 
L 111.53977 59.326809 
L 112.210596 58.485672 
L 113.274008 57.937105 
L 113.845734 57.191053 
L 114.508937 56.532772 
L 115.465626 56.452315 
L 118.09938 58.866013 
L 118.659672 58.95744 
L 119.20853 58.149218 
L 119.242833 57.183739 
L 118.918855 56.335288 
L 118.339505 55.841577 
L 118.865494 54.704214 
L 119.894602 54.173932 
L 124.041525 54.082504 
L 126.076872 54.612786 
L 128.264679 54.448215 
L 130.704045 53.519308 
L 133.090051 53.307195 
L 135.056791 55.282038 
L 135.971553 53.197481 
L 135.594214 51.573722 
L 132.602178 47.521636 
L 132.190535 46.658557 
L 132.323937 45.682106 
L 132.914722 44.734913 
L 133.539809 44.157089 
L 134.233504 43.95229 
L 135.056791 44.124175 
L 136.371762 45.078682 
L 139.005515 47.843463 
L 140.362413 48.413973 
L 141.677384 47.74472 
L 141.277176 46.208731 
L 140.053681 44.552057 
L 138.921662 43.509779 
L 139.847859 42.928298 
L 143.98716 42.628414 
L 145.622298 41.99939 
L 146.163532 40.931512 
L 146.918211 37.36948 
L 150.001723 36.630742 
L 151.072758 36.755084 
L 151.991332 37.435308 
L 153.683643 39.366266 
L 154.621274 39.775863 
L 155.486487 39.380894 
L 156.218297 38.6129 
L 156.95773 38.057018 
L 157.845812 38.32033 
L 160.548173 40.218374 
L 161.379082 40.441458 
L 162.217615 40.064775 
L 162.034662 39.230952 
L 161.276172 38.408101 
L 160.407147 38.04239 
L 160.407147 37.36948 
L 161.638265 37.493822 
L 162.126138 37.237824 
L 162.488232 35.438522 
L 162.896064 35.083782 
L 163.425864 35.171553 
L 163.951852 35.533607 
L 164.798007 36.894055 
L 165.392603 38.451987 
L 166.147282 39.472322 
L 167.469876 39.212667 
L 168.011111 38.792098 
L 168.285539 38.419072 
L 169.489977 35.687206 
L 169.070711 34.304816 
L 168.76579 33.778191 
L 167.980619 32.944369 
L 167.820535 32.125175 
L 167.767174 30.640385 
L 167.469876 29.338452 
L 168.914439 28.391258 
L 170.702037 29.835819 
L 173.865591 33.690421 
L 175.047159 34.004933 
L 178.690963 33.076025 
L 179.796301 33.36128 
L 181.732549 34.633957 
L 182.700672 34.919212 
L 183.573508 34.447444 
L 183.1733 32.121517 
L 183.836503 31.177981 
L 184.934218 31.210895 
L 187.209689 32.692028 
L 197.294946 35.533607 
L 196.963345 33.441737 
L 197.592244 32.293402 
L 198.731886 31.839919 
L 203.092254 31.847234 
L 203.583939 31.569293 
L 203.564881 30.932954 
L 203.229468 30.296616 
L 202.741595 30.011361 
L 201.399943 28.358344 
L 200.691002 24.737799 
L 200.530919 21.109939 
L 200.828217 19.464236 
L 201.651503 20.14446 
L 203.191353 23.135981 
L 204.052755 23.816205 
L 205.05137 24.222145 
L 205.847976 25.198595 
L 207.265858 27.495265 
L 208.3064 28.270573 
L 209.815758 28.789884 
L 211.180279 28.500972 
L 211.771063 26.855269 
L 211.40897 25.330252 
L 210.696217 24.309916 
L 210.193098 23.165238 
L 210.467527 21.303766 
L 210.170229 21.226966 
L 209.529895 20.751541 
L 210.654291 19.369151 
L 212.09123 19.822634 
L 214.675434 22.532557 
L 214.328587 23.20181 
L 214.904125 24.350144 
L 215.292899 26.529786 
L 215.933233 27.495265 
L 215.933233 27.495265 
" clip-path="url(#pf954deade0)" style="fill: none; stroke: #000000; stroke-width: 2"/>
   </g>
  </g>
 </g>
 <defs>
  <clipPath id="pf954deade0">
   <rect x="0" y="0" width="357.12" height="232.429814"/>
  </clipPath>
 </defs>
</svg>
