<?xml version="1.0" encoding="utf-8" standalone="no"?>
<!DOCTYPE svg PUBLIC "-//W3C//DTD SVG 1.1//EN"
  "http://www.w3.org/Graphics/SVG/1.1/DTD/svg11.dtd">
<svg xmlns:xlink="http://www.w3.org/1999/xlink" width="343.161482pt" height="266.112pt" viewBox="0 0 343.161482 266.112" xmlns="http://www.w3.org/2000/svg" version="1.1">
 <metadata>
  <rdf:RDF xmlns:dc="http://purl.org/dc/elements/1.1/" xmlns:cc="http://creativecommons.org/ns#" xmlns:rdf="http://www.w3.org/1999/02/22-rdf-syntax-ns#">
   <cc:Work>
    <dc:type rdf:resource="http://purl.org/dc/dcmitype/StillImage"/>
    <dc:date>2024-02-02T21:58:01.287259</dc:date>
    <dc:format>image/svg+xml</dc:format>
    <dc:creator>
     <cc:Agent>
      <dc:title>Matplotlib v3.8.2, https://matplotlib.org/</dc:title>
     </cc:Agent>
    </dc:creator>
   </cc:Work>
  </rdf:RDF>
 </metadata>
 <defs>
  <style type="text/css">*{stroke-linejoin: round; stroke-linecap: butt}</style>
 </defs>
 <g id="figure_1">
  <g id="patch_1">
   <path d="M 0 266.112 
L 343.161482 266.112 
L 343.161482 0 
L 0 0 
L 0 266.112 
z
" style="fill: none"/>
  </g>
  <g id="axes_1">
   <g id="PatchCollection_1">
    <path d="M 126.724925 26.074909 
L 128.262906 25.918134 
L 128.5567 26.036963 
L 128.871788 26.563546 
L 128.909647 26.655576 
L 129.096966 27.376043 
L 129.822577 28.063058 
L 130.15975 29.136019 
L 130.680298 29.651281 
L 131.857445 30.343288 
L 132.088142 30.933941 
L 132.484468 31.127164 
L 132.646153 31.081729 
L 133.586688 31.088719 
L 135.753664 30.737223 
L 136.934755 30.133589 
L 137.654451 30.260407 
L 138.35443 30.262404 
L 138.717236 30.177526 
L 139.854947 29.713192 
L 140.704781 29.632308 
L 141.057728 29.389156 
L 141.686723 28.819973 
L 142.871757 28.212843 
L 143.141889 27.864343 
L 143.445542 26.587674 
L 143.473147 26.654578 
L 144.699588 26.854791 
L 145.306894 27.188812 
L 146.020675 27.933744 
L 146.28292 28.34765 
L 146.836988 29.950352 
L 147.231342 30.665826 
L 147.708511 30.660833 
L 148.382856 29.772107 
L 148.858053 29.697215 
L 150.254067 29.84001 
L 151.817681 29.411125 
L 152.596531 29.036662 
L 152.935675 28.585808 
L 153.08553 28.199363 
L 153.414816 28.203856 
L 154.083246 28.653711 
L 154.696467 29.284806 
L 156.189097 29.621324 
L 157.890736 29.417616 
L 158.462549 29.604348 
L 158.989012 29.932377 
L 160.282494 30.928948 
L 160.643328 30.989861 
L 161.015992 30.88601 
L 161.60358 30.394715 
L 161.952584 30.30734 
L 163.052832 30.44664 
L 164.332511 30.16754 
L 166.04598 30.57945 
L 166.872152 30.911973 
L 167.623397 31.353839 
L 170.381904 33.881714 
L 173.515048 35.409523 
L 174.053341 35.581277 
L 175.776669 35.824428 
L 177.072123 36.30474 
L 178.233496 37.124065 
L 182.248021 41.635595 
L 185.079484 46.594484 
L 185.655241 47.159674 
L 191.540977 50.885831 
L 194.99552 53.704289 
L 195.738877 54.469691 
L 196.38759 55.314979 
L 196.994896 56.315544 
L 198.477667 59.500477 
L 199.475383 60.887988 
L 200.96407 61.838624 
L 202.052488 62.283986 
L 203.113301 62.875138 
L 204.022287 63.653522 
L 205.266474 65.761 
L 206.822202 67.857993 
L 207.73316 68.81562 
L 206.583617 70.352416 
L 206.001945 71.615604 
L 203.460332 75.069651 
L 203.018656 76.0123 
L 202.569092 76.231985 
L 202.358112 76.462654 
L 201.58715 77.890606 
L 199.069198 81.365623 
L 198.538792 81.695151 
L 198.162184 81.873894 
L 197.866418 82.397144 
L 196.835182 82.915401 
L 196.533501 83.52952 
L 196.271256 84.994419 
L 195.707329 86.746906 
L 195.721132 87.801394 
L 196.214074 90.022709 
L 196.448715 92.123197 
L 196.283086 96.665184 
L 195.939998 97.215395 
L 196.178582 97.527447 
L 196.653779 97.708687 
L 198.972582 98.263891 
L 199.136239 98.47409 
L 199.402428 98.426159 
L 199.619323 98.276873 
L 201.226316 98.099627 
L 201.817847 97.499487 
L 202.330507 97.33023 
L 203.381461 97.215395 
L 204.722266 97.444566 
L 204.980568 97.379659 
L 205.824485 97.057122 
L 206.329259 97.053127 
L 206.952338 96.84243 
L 207.9678 97.028163 
L 208.377929 96.833942 
L 209.645777 95.999638 
L 211.36319 95.477387 
L 212.238656 95.409484 
L 214.413519 95.885801 
L 214.894631 96.938292 
L 215.218002 97.210402 
L 217.154281 97.562397 
L 217.436244 97.459545 
L 217.818768 97.061116 
L 218.116505 97.165466 
L 217.879893 97.579373 
L 217.540748 98.694274 
L 217.221321 98.963388 
L 216.420782 99.298408 
L 216.126988 99.604469 
L 215.779957 100.605034 
L 215.482219 100.92158 
L 214.575205 101.783844 
L 214.393802 102.253171 
L 214.070431 103.418999 
L 213.841706 103.740039 
L 212.842018 104.248809 
L 212.867651 104.658222 
L 213.248203 105.52398 
L 213.75692 106.32633 
L 215.103639 107.732314 
L 215.310675 108.260556 
L 215.555175 110.024527 
L 215.912065 111.265248 
L 216.448387 112.444556 
L 216.945273 113.042199 
L 218.775077 114.232493 
L 219.226612 114.69483 
L 219.5697 115.268008 
L 220.332776 117.431905 
L 220.863182 117.962644 
L 221.561189 118.244739 
L 222.43074 118.398019 
L 223.143535 118.720057 
L 223.508313 119.340668 
L 224.060408 122.42125 
L 224.31871 123.183657 
L 224.73574 123.646992 
L 225.4091 123.855693 
L 225.592474 124.046919 
L 225.901056 124.676516 
L 226.643428 125.272661 
L 227.192566 126.495408 
L 227.323689 127.505959 
L 227.566217 127.808026 
L 230.030931 129.294893 
L 230.385849 129.328845 
L 231.156812 129.12963 
L 231.428916 129.278916 
L 238.359691 135.628311 
L 239.10502 136.06868 
L 283.556623 150.948842 
L 294.367842 154.617581 
L 295.487808 155.178776 
L 314.564691 155.178776 
L 282.568765 186.576253 
L 273.538055 196.087614 
L 256.612374 214.79329 
L 256.060278 215.026955 
L 238.05801 213.972467 
L 237.358031 214.141724 
L 235.124015 214.870679 
L 229.654322 216.144353 
L 221.847096 219.890481 
L 218.666629 222.598098 
L 218.540436 222.805301 
L 218.284106 223.455369 
L 217.944961 224.806431 
L 217.657082 225.428539 
L 217.071467 226.092088 
L 216.359657 226.564411 
L 215.56109 226.887447 
L 206.165602 228.508123 
L 203.075837 228.540077 
L 202.456701 228.698351 
L 201.798129 229.03337 
L 200.719571 229.904121 
L 199.033707 231.042988 
L 198.90357 231.418949 
L 198.818784 232.252254 
L 198.556538 232.465948 
L 198.300208 232.846402 
L 197.363617 233.383133 
L 196.513783 233.214874 
L 195.673809 232.765518 
L 194.766794 232.465948 
L 193.68232 232.996687 
L 193.410216 232.94576 
L 192.60179 232.712594 
L 189.610614 233.394117 
L 185.523133 233.631277 
L 184.525417 233.513945 
L 183.600656 233.13399 
L 182.752795 232.465948 
L 181.528325 230.731435 
L 180.721871 230.080369 
L 179.463881 229.586577 
L 179.266704 229.390857 
L 178.947277 228.793214 
L 178.477995 228.251991 
L 177.328453 227.462623 
L 176.908466 226.900429 
L 175.705685 227.700781 
L 169.530099 230.16325 
L 169.315176 230.573162 
L 165.710779 231.73899 
L 165.509658 231.797906 
L 165.436703 232.031571 
L 159.446463 234.970856 
L 159.061967 235.448171 
L 157.83947 238.478825 
L 157.474692 238.965128 
L 154.229157 242.10862 
L 153.813113 243.395275 
L 153.491715 243.903547 
L 152.882438 243.936 
L 152.578785 243.731793 
L 152.168657 242.995349 
L 151.581069 242.795136 
L 149.19917 242.723239 
L 149.374657 242.36675 
L 149.285928 242.166537 
L 148.913217 242.222847 
L 148.173849 242.653839 
L 147.446265 242.672811 
L 146.702908 242.512541 
L 144.555649 241.554415 
L 143.163579 241.792574 
L 142.558245 241.641291 
L 141.26082 241.805555 
L 137.607129 240.70713 
L 136.792787 239.711558 
L 136.800674 239.839374 
L 136.778985 240.242796 
L 135.564374 240.094509 
L 135.509164 239.92625 
L 135.134528 240.047576 
L 134.619896 239.951713 
L 133.992873 239.198294 
L 133.892312 239.153858 
L 133.708938 239.229249 
L 133.661615 239.673113 
L 132.689532 240.103496 
L 131.620832 240.195863 
L 127.557013 239.731529 
L 126.125507 239.8913 
L 125.685802 239.504355 
L 124.871461 239.190305 
L 124.577667 238.837811 
L 124.092611 238.05044 
L 123.737692 237.692453 
L 107.01116 226.924394 
L 106.851447 226.797576 
L 106.677931 226.18096 
L 106.40977 225.962773 
L 105.887251 225.897866 
L 105.402195 225.245302 
L 104.623346 225.064561 
L 103.266767 224.372054 
L 102.129055 224.05401 
L 98.291989 224.04702 
L 97.844397 223.838819 
L 91.067421 223.938676 
L 90.533071 223.717493 
L 86.376578 223.727479 
L 85.970393 223.460362 
L 84.761698 222.316003 
L 84.805076 221.227064 
L 84.55269 220.772216 
L 84.515226 220.438695 
L 81.91446 217.639708 
L 81.447151 216.83686 
L 81.287437 215.897207 
L 81.464897 211.607858 
L 82.194452 210.674696 
L 82.350222 210.287252 
L 82.346278 209.889322 
L 81.738973 208.318075 
L 81.867138 207.868221 
L 82.383742 207.109808 
L 82.289097 206.937555 
L 81.244058 206.529141 
L 79.990012 205.747761 
L 79.506928 205.61595 
L 78.359357 205.957461 
L 77.895991 205.830143 
L 76.639973 204.900976 
L 75.900559 204.759179 
L 75.15523 204.827581 
L 74.735243 205.110675 
L 73.958365 205.970941 
L 73.528519 206.274007 
L 73.067124 206.344406 
L 72.716149 206.177146 
L 72.432214 205.854109 
L 71.730264 204.674301 
L 71.751953 204.438139 
L 72.167997 203.81004 
L 71.945187 203.191427 
L 71.209716 202.590289 
L 69.681594 201.688582 
L 68.829789 201.054491 
L 68.63064 200.682025 
L 68.465011 199.560634 
L 68.192907 199.045372 
L 66.45972 196.404659 
L 66.461692 195.938328 
L 66.564224 195.443537 
L 66.505071 195.227347 
L 66.094943 194.676138 
L 66.16987 194.232774 
L 66.370991 193.823361 
L 66.021987 192.190702 
L 65.018356 191.079795 
L 64.657522 190.133652 
L 63.890503 188.567398 
L 63.8767 187.42903 
L 63.754451 186.927749 
L 62.831662 185.221695 
L 62.675892 184.108292 
L 62.054784 182.22699 
L 61.731414 181.35474 
L 61.500717 181.089621 
L 61.291709 180.524431 
L 59.668941 179.526862 
L 57.880545 179.211314 
L 57.661679 178.005044 
L 57.880545 177.825801 
L 57.772098 177.109328 
L 57.478304 176.561114 
L 56.247919 175.694357 
L 53.357303 174.913477 
L 53.225194 174.82061 
L 53.035904 174.370256 
L 51.799604 173.382672 
L 51.651721 173.191946 
L 51.330322 171.204795 
L 51.070049 171.047022 
L 50.395703 171.278689 
L 50.028954 171.005082 
L 49.508406 170.349022 
L 48.463368 169.501238 
L 48.453509 167.697824 
L 48.3214 167.045759 
L 47.994086 166.514521 
L 45.625989 164.077016 
L 44.856999 163.693566 
L 44.273354 163.595707 
L 43.31113 162.877736 
L 42.452424 161.737371 
L 42.271021 161.646502 
L 41.669631 161.472751 
L 40.947963 161.077318 
L 39.709691 161.195149 
L 39.100414 160.930528 
L 38.65085 160.405282 
L 37.611727 159.95293 
L 37.118784 159.970905 
L 36.125011 160.224541 
L 35.65573 160.537093 
L 35.414188 160.543084 
L 34.354361 160.270475 
L 33.254113 159.301864 
L 32.634977 159.206001 
L 31.930069 158.955361 
L 31.21333 159.140096 
L 31.096996 159.299867 
L 30.842637 159.26292 
L 30.420678 159.07419 
L 29.769994 158.955361 
L 29.568873 158.497018 
L 29.239587 158.299302 
L 29.077902 157.998733 
L 28.59679 156.711578 
L 28.66876 156.50088 
L 29.204096 155.783909 
L 29.385498 155.183769 
L 29.628026 154.852245 
L 30.824891 153.557102 
L 31.033899 153.099758 
L 31.934998 152.850615 
L 32.173582 152.656393 
L 32.323437 152.386281 
L 32.31555 151.899978 
L 31.996123 151.607897 
L 32.110486 150.965818 
L 32.425969 150.621312 
L 32.738495 150.460542 
L 32.765114 150.210401 
L 32.335268 150.001201 
L 31.865986 149.226811 
L 32.078938 148.416473 
L 31.865986 148.231239 
L 32.0257 147.432884 
L 32.112458 147.296579 
L 32.804549 146.981531 
L 32.747368 146.869192 
L 32.729622 146.792302 
L 33.277774 146.307997 
L 33.612975 146.259067 
L 35.866709 146.660491 
L 36.271908 146.380892 
L 38.146076 146.097798 
L 38.039601 145.953006 
L 38.42804 145.93603 
L 39.325195 146.478253 
L 39.95912 146.260066 
L 40.240097 146.147227 
L 40.62755 146.210137 
L 41.224011 146.716411 
L 41.598647 147.377463 
L 42.061028 147.907204 
L 43.218457 147.960128 
L 44.208286 147.139305 
L 44.833337 146.91962 
L 45.487965 146.843229 
L 46.921443 146.741375 
L 47.311853 146.506213 
L 49.59122 144.358792 
L 49.837692 143.917924 
L 50.003321 143.005233 
L 49.1456 125.5248 
L 49.743047 122.654416 
L 52.103257 115.962512 
L 53.227166 114.91751 
L 53.68856 114.057743 
L 53.680673 113.26488 
L 53.925173 112.962813 
L 54.086858 112.145485 
L 54.06714 111.274235 
L 53.05365 106.222479 
L 53.201533 105.53796 
L 54.844018 103.213793 
L 55.883141 101.377427 
L 56.212427 101.090338 
L 58.834882 99.38079 
L 59.069523 99.474655 
L 62.311114 102.382485 
L 62.26182 103.245747 
L 62.460969 103.32064 
L 62.614767 103.165862 
L 62.869126 102.572213 
L 63.103766 102.366009 
L 63.866842 102.375995 
L 64.111341 102.054955 
L 64.306546 101.246614 
L 64.653578 100.917586 
L 65.684814 100.131214 
L 66.006213 99.669875 
L 66.152124 99.008324 
L 66.04762 98.71824 
L 65.298347 98.050697 
L 65.31215 97.838501 
L 66.572111 94.141802 
L 66.645067 93.540165 
L 65.883963 92.248517 
L 65.939173 91.830616 
L 68.413745 86.153757 
L 68.366423 85.792275 
L 67.830101 84.607974 
L 67.865593 83.818106 
L 67.733484 82.695716 
L 68.074601 81.763053 
L 68.626696 80.945226 
L 69.781638 80.30686 
L 71.059862 79.816844 
L 71.675054 78.985037 
L 71.744066 78.364926 
L 71.91561 78.197167 
L 72.629391 77.787754 
L 73.002056 77.360367 
L 73.167685 76.901025 
L 73.356975 75.841545 
L 73.840059 74.77807 
L 74.818057 73.980214 
L 75.127625 72.660107 
L 78.887792 66.511923 
L 79.051449 66.445019 
L 79.585799 66.347159 
L 79.844101 65.943738 
L 80.066911 65.079976 
L 80.843789 64.787396 
L 86.99177 63.993534 
L 87.922446 64.375986 
L 88.220184 64.257156 
L 88.383841 63.8777 
L 88.754534 61.259455 
L 88.671719 60.971368 
L 88.226099 60.200973 
L 88.208353 59.772587 
L 88.878755 58.711109 
L 88.638199 57.868318 
L 90.481805 51.50694 
L 93.31524 47.460742 
L 93.490727 46.913527 
L 93.626779 45.431652 
L 94.766463 42.647145 
L 94.713225 41.683527 
L 94.277464 40.244091 
L 94.354363 39.341385 
L 96.067832 34.079431 
L 96.436553 34.086421 
L 96.576549 33.707464 
L 96.817105 33.511245 
L 98.780988 33.030934 
L 99.802366 32.986997 
L 100.29728 32.75483 
L 102.213841 32.837711 
L 104.203358 33.355968 
L 104.700245 33.932641 
L 105.015728 34.068446 
L 105.323324 34.049474 
L 105.757114 33.809318 
L 106.252028 33.822299 
L 106.695677 33.418379 
L 106.839616 33.099835 
L 107.123551 31.457191 
L 107.413401 31.039789 
L 107.959582 30.631874 
L 108.618153 30.484586 
L 110.029941 30.512546 
L 110.70823 30.332304 
L 111.534402 30.932943 
L 112.648453 32.694916 
L 112.691832 33.34099 
L 112.96788 33.498264 
L 113.821657 34.251684 
L 114.172632 35.315159 
L 114.957397 35.682632 
L 115.014578 35.867367 
L 115.124997 36.682198 
L 115.324146 36.913866 
L 115.667234 37.133052 
L 115.882157 36.916862 
L 122.110981 22.176 
L 122.672936 22.794613 
L 123.120528 23.571 
L 123.372915 23.657875 
L 123.503052 24.269498 
L 123.585866 24.362365 
L 123.988107 24.537613 
L 124.151764 25.047882 
L 124.309506 25.173701 
L 126.724925 26.074909 
L 126.724925 26.074909 
" clip-path="url(#p852112f2ba)" style="fill: none; stroke: #000000; stroke-width: 2"/>
   </g>
  </g>
 </g>
 <defs>
  <clipPath id="p852112f2ba">
   <rect x="0" y="-0" width="343.161482" height="266.112"/>
  </clipPath>
 </defs>
</svg>
