<?xml version="1.0" encoding="utf-8" standalone="no"?>
<!DOCTYPE svg PUBLIC "-//W3C//DTD SVG 1.1//EN"
  "http://www.w3.org/Graphics/SVG/1.1/DTD/svg11.dtd">
<svg xmlns:xlink="http://www.w3.org/1999/xlink" width="120.194111pt" height="266.112pt" viewBox="0 0 120.194111 266.112" xmlns="http://www.w3.org/2000/svg" version="1.1">
 <metadata>
  <rdf:RDF xmlns:dc="http://purl.org/dc/elements/1.1/" xmlns:cc="http://creativecommons.org/ns#" xmlns:rdf="http://www.w3.org/1999/02/22-rdf-syntax-ns#">
   <cc:Work>
    <dc:type rdf:resource="http://purl.org/dc/dcmitype/StillImage"/>
    <dc:date>2024-02-02T21:58:01.318268</dc:date>
    <dc:format>image/svg+xml</dc:format>
    <dc:creator>
     <cc:Agent>
      <dc:title>Matplotlib v3.8.2, https://matplotlib.org/</dc:title>
     </cc:Agent>
    </dc:creator>
   </cc:Work>
  </rdf:RDF>
 </metadata>
 <defs>
  <style type="text/css">*{stroke-linejoin: round; stroke-linecap: butt}</style>
 </defs>
 <g id="figure_1">
  <g id="patch_1">
   <path d="M 0 266.112 
L 120.194111 266.112 
L 120.194111 0 
L 0 0 
L 0 266.112 
z
" style="fill: none"/>
  </g>
  <g id="axes_1">
   <g id="PatchCollection_1">
    <path d="M 26.674461 243.066543 
L 26.52851 243.108741 
L 26.42128 243.034895 
L 26.401175 242.855553 
L 26.474895 242.759728 
L 26.52851 242.754453 
L 26.583614 242.735991 
L 26.796583 242.601485 
L 27.008063 242.572474 
L 27.081038 242.522363 
L 27.176353 242.501264 
L 27.283583 242.530276 
L 27.307411 242.585661 
L 27.235925 242.693793 
L 26.674461 243.066543 
" clip-path="url(#p3d0a97bc87)" style="fill: none; stroke: #000000; stroke-width: 2"/>
    <path d="M 40.186842 240.734219 
L 40.079613 240.855538 
L 39.963448 240.844989 
L 39.960469 240.910923 
L 39.947066 240.94433 
L 39.872601 240.981253 
L 39.732607 241.008506 
L 39.599315 240.866088 
L 39.546445 240.881912 
L 39.518893 240.837076 
L 39.57921 240.659493 
L 39.728139 240.444986 
L 39.929194 240.364985 
L 40.139185 240.43092 
L 40.215139 240.520591 
L 40.183864 240.553997 
L 40.186842 240.734219 
" clip-path="url(#p3d0a97bc87)" style="fill: none; stroke: #000000; stroke-width: 2"/>
    <path d="M 30.667263 239.618606 
L 30.595777 239.726739 
L 30.479612 239.610694 
L 30.402168 239.254647 
L 30.444613 238.964535 
L 30.697049 238.925854 
L 30.701517 238.8186 
L 30.622584 238.744754 
L 30.501951 238.735962 
L 30.439401 238.656841 
L 30.513866 238.505631 
L 30.734281 238.393103 
L 31.012035 238.373762 
L 31.093202 238.444971 
L 31.029162 238.59706 
L 31.003844 238.793985 
L 30.950229 238.959261 
L 30.910018 239.027833 
L 30.856404 239.046294 
L 30.789385 239.14124 
L 30.703751 239.439264 
L 30.667263 239.618606 
" clip-path="url(#p3d0a97bc87)" style="fill: none; stroke: #000000; stroke-width: 2"/>
    <path d="M 26.727331 238.421235 
L 26.729565 239.219482 
L 26.713927 239.590474 
L 26.66478 239.911355 
L 26.60223 239.911355 
L 26.509149 239.708277 
L 26.361709 239.655529 
L 26.224693 239.748717 
L 26.164377 239.97729 
L 26.117464 240.01773 
L 26.013213 239.759266 
L 25.905984 239.405857 
L 25.846412 239.159702 
L 25.812158 238.830908 
L 25.806946 238.491565 
L 25.861305 238.223431 
L 26.005767 238.112661 
L 26.115975 238.247168 
L 26.123421 238.521455 
L 26.157675 238.741237 
L 26.351283 238.716621 
L 26.291712 238.220794 
L 26.382559 238.016836 
L 26.553083 238.088925 
L 26.727331 238.421235 
" clip-path="url(#p3d0a97bc87)" style="fill: none; stroke: #000000; stroke-width: 2"/>
    <path d="M 31.427549 237.764527 
L 31.373934 237.937715 
L 31.277874 238.027386 
L 31.187027 238.044968 
L 31.142348 238.001891 
L 31.154263 237.918374 
L 31.105116 237.914857 
L 30.987462 238.027386 
L 30.840021 238.107386 
L 30.57865 238.095958 
L 30.498228 238.106507 
L 30.350788 238.081012 
L 30.347064 238.004528 
L 30.452804 237.877934 
L 30.520567 237.679251 
L 30.605457 237.484085 
L 30.664284 237.401447 
L 30.773003 237.284523 
L 31.005333 237.155291 
L 31.194474 237.171116 
L 31.30766 237.294194 
L 31.376168 237.463865 
L 31.414145 237.601888 
L 31.427549 237.764527 
" clip-path="url(#p3d0a97bc87)" style="fill: none; stroke: #000000; stroke-width: 2"/>
    <path d="M 22.501454 237.436612 
L 22.352524 237.450678 
L 22.100833 237.405843 
L 22.059133 237.345183 
L 21.973498 237.165841 
L 22.026368 237.020785 
L 22.161894 236.92496 
L 22.267634 236.878366 
L 22.406139 237.032214 
L 22.537197 237.049796 
L 22.612406 237.081445 
L 22.727826 237.205402 
L 22.681658 237.362766 
L 22.501454 237.436612 
" clip-path="url(#p3d0a97bc87)" style="fill: none; stroke: #000000; stroke-width: 2"/>
    <path d="M 19.296489 236.858146 
L 19.076073 237.068258 
L 19.23096 237.081445 
L 19.292765 237.185182 
L 19.275639 237.34782 
L 19.195217 237.537712 
L 19.074584 237.651119 
L 18.946504 237.637932 
L 18.698536 237.537712 
L 18.604711 237.554415 
L 18.353764 237.666944 
L 18.261428 237.744307 
L 18.171326 237.753977 
L 18.075266 237.632658 
L 17.976973 237.477052 
L 17.87719 237.376832 
L 18.032076 237.241446 
L 18.209303 237.202764 
L 18.571202 237.229138 
L 18.487801 236.974191 
L 18.34185 236.896828 
L 18.008248 236.933751 
L 18.312064 236.413308 
L 18.689601 236.176823 
L 19.087243 236.208471 
L 19.451375 236.490671 
L 19.388825 236.722761 
L 19.296489 236.858146 
" clip-path="url(#p3d0a97bc87)" style="fill: none; stroke: #000000; stroke-width: 2"/>
    <path d="M 21.587026 235.88759 
L 21.587026 236.047591 
L 21.484264 236.034404 
L 21.385971 236.045833 
L 21.293635 236.095064 
L 21.205766 236.182098 
L 21.263104 236.245395 
L 21.405332 236.490671 
L 20.706852 236.490671 
L 21.024072 236.625178 
L 20.941416 236.714849 
L 20.849824 236.778146 
L 20.75302 236.802761 
L 20.793976 236.838806 
L 20.836421 236.933751 
L 20.630898 237.194852 
L 20.346442 237.368919 
L 20.05454 237.400568 
L 19.831146 237.229138 
L 19.910079 237.115731 
L 19.932418 237.057708 
L 19.893696 236.786058 
L 20.027733 236.651552 
L 20.07539 236.625178 
L 20.07539 236.490671 
L 19.916036 236.385176 
L 19.944332 236.146053 
L 20.084326 235.891106 
L 20.268999 235.739017 
L 20.780572 235.609786 
L 21.274274 235.606269 
L 21.587026 235.88759 
" clip-path="url(#p3d0a97bc87)" style="fill: none; stroke: #000000; stroke-width: 2"/>
    <path d="M 25.57685 236.684079 
L 25.347498 236.684079 
L 25.252928 236.619903 
L 25.287926 236.57243 
L 25.288671 236.480122 
L 25.275267 236.30078 
L 25.302074 236.176823 
L 25.34303 236.12935 
L 25.351221 236.056382 
L 25.353455 235.920997 
L 25.401113 235.778578 
L 25.480045 235.710006 
L 26.045978 235.448905 
L 26.142782 235.638797 
L 25.981193 236.024734 
L 25.764501 236.209351 
L 25.542596 236.313088 
L 25.534405 236.398363 
L 25.663973 236.529353 
L 25.697483 236.648914 
L 25.57685 236.684079 
" clip-path="url(#p3d0a97bc87)" style="fill: none; stroke: #000000; stroke-width: 2"/>
    <path d="M 17.07297 235.733743 
L 17.571884 235.739017 
L 17.571884 235.88759 
L 17.209985 235.870887 
L 17.071481 235.997481 
L 17.00893 236.342978 
L 16.94638 236.342978 
L 16.870426 236.176823 
L 16.731921 236.088031 
L 16.444487 236.047591 
L 16.305983 235.981657 
L 16.216625 235.844513 
L 16.115353 235.733743 
L 15.941105 235.739017 
L 16.073652 235.453301 
L 16.268005 235.326707 
L 16.696923 235.296816 
L 16.839895 235.609786 
L 17.07297 235.733743 
" clip-path="url(#p3d0a97bc87)" style="fill: none; stroke: #000000; stroke-width: 2"/>
    <path d="M 22.69953 236.891553 
L 22.410606 236.930235 
L 22.163383 236.636606 
L 22.02339 236.047591 
L 22.158915 235.938579 
L 22.592301 235.739017 
L 22.857395 235.411982 
L 22.996644 235.289783 
L 23.153765 235.296816 
L 23.273653 235.606269 
L 22.717401 236.182098 
L 22.773995 236.242757 
L 22.902819 236.432649 
L 22.960901 236.490671 
L 22.69953 236.891553 
" clip-path="url(#p3d0a97bc87)" style="fill: none; stroke: #000000; stroke-width: 2"/>
    <path d="M 57.861806 235.541214 
L 57.711387 235.622094 
L 57.574372 235.596599 
L 57.515545 235.370663 
L 57.587031 235.184288 
L 57.756811 235.129782 
L 58.082967 235.164068 
L 57.963078 235.44451 
L 57.861806 235.541214 
" clip-path="url(#p3d0a97bc87)" style="fill: none; stroke: #000000; stroke-width: 2"/>
    <path d="M 25.07868 235.62561 
L 24.739865 235.861216 
L 24.52913 235.44451 
L 24.649763 235.02077 
L 24.864221 234.605822 
L 25.100275 234.391315 
L 25.284203 234.560108 
L 25.331116 235.077035 
L 25.07868 235.62561 
" clip-path="url(#p3d0a97bc87)" style="fill: none; stroke: #000000; stroke-width: 2"/>
    <path d="M 18.930867 234.304282 
L 18.958419 234.351755 
L 19.099902 234.343843 
L 19.19894 234.400107 
L 19.152027 234.604943 
L 19.047032 234.783406 
L 19.013522 234.925825 
L 18.970333 235.048903 
L 18.883954 235.066485 
L 18.839275 235.048903 
L 18.752151 235.069122 
L 18.620348 234.969781 
L 18.609179 234.673515 
L 18.689601 234.328018 
L 18.834807 234.037906 
L 18.99714 234.050214 
L 19.016501 234.22516 
L 18.930867 234.304282 
" clip-path="url(#p3d0a97bc87)" style="fill: none; stroke: #000000; stroke-width: 2"/>
    <path d="M 55.864661 235.140332 
L 55.884766 235.44451 
L 55.661372 235.2933 
L 55.586162 235.203629 
L 55.630096 235.052419 
L 55.759665 234.707801 
L 55.482656 234.616372 
L 55.282346 234.282304 
L 55.23022 233.845377 
L 55.388086 233.454166 
L 55.539994 233.576364 
L 56.327832 234.560108 
L 56.260069 234.707801 
L 56.103692 234.792197 
L 55.955508 234.929341 
L 55.864661 235.140332 
" clip-path="url(#p3d0a97bc87)" style="fill: none; stroke: #000000; stroke-width: 2"/>
    <path d="M 30.241324 235.68627 
L 30.245792 235.923634 
L 30.303875 236.182098 
L 30.241324 236.200559 
L 30.198879 236.246274 
L 30.159413 236.30078 
L 30.111756 236.342978 
L 30.163881 236.369352 
L 30.303875 236.490671 
L 30.26143 236.704299 
L 30.236856 236.786058 
L 30.363447 237.45859 
L 30.055162 238.08365 
L 29.2986 238.851128 
L 29.2986 238.998821 
L 29.38349 238.990909 
L 29.438594 239.026074 
L 29.550291 239.159702 
L 29.460933 239.291571 
L 29.341045 239.671354 
L 29.292643 239.750475 
L 29.069248 239.708277 
L 28.972444 239.746959 
L 28.856279 239.911355 
L 28.73788 239.505199 
L 28.607567 239.159702 
L 28.527889 239.383879 
L 28.232264 239.821684 
L 28.181628 239.854212 
L 28.153331 239.945641 
L 28.163757 240.191797 
L 28.107163 240.191797 
L 28.122056 239.890256 
L 28.095249 239.683661 
L 28.026741 239.621243 
L 27.913555 239.750475 
L 27.874833 239.489374 
L 27.929192 239.325857 
L 28.009614 239.149152 
L 28.044613 238.851128 
L 27.935894 239.022558 
L 27.612717 239.407616 
L 27.463787 239.679266 
L 27.064656 239.817289 
L 26.914237 239.911355 
L 26.911259 239.346077 
L 26.93062 239.087613 
L 26.982 238.851128 
L 26.928386 238.582994 
L 26.946257 238.318377 
L 26.973064 238.081012 
L 26.948491 237.892 
L 26.839773 237.749581 
L 26.593294 237.586064 
L 26.477129 237.376832 
L 26.668503 237.292435 
L 27.011042 236.998807 
L 27.197204 236.933751 
L 28.107163 236.933751 
L 28.107163 236.786058 
L 26.413834 236.625178 
L 26.513617 236.155724 
L 26.585103 235.549126 
L 26.714672 235.074397 
L 26.982 235.003188 
L 26.786158 235.535939 
L 26.741479 235.783853 
L 26.882962 235.88759 
L 27.798879 235.680995 
L 28.123546 235.398795 
L 28.293325 235.296816 
L 30.071545 234.953078 
L 30.332916 234.633954 
L 30.536205 234.12494 
L 30.767046 233.688014 
L 31.039587 233.447133 
L 31.365743 233.528012 
L 31.302448 234.01417 
L 31.1282 234.299886 
L 30.908529 234.510877 
L 30.708219 234.773736 
L 30.643434 234.982089 
L 30.603223 235.200992 
L 30.54663 235.375059 
L 30.299407 235.512203 
L 30.241324 235.68627 
" clip-path="url(#p3d0a97bc87)" style="fill: none; stroke: #000000; stroke-width: 2"/>
    <path d="M 22.460498 233.700321 
L 22.402415 233.709113 
L 22.366672 233.692409 
L 22.422521 233.608013 
L 22.581131 233.45944 
L 22.690594 233.433946 
L 22.669744 233.545595 
L 22.575918 233.650211 
L 22.460498 233.700321 
" clip-path="url(#p3d0a97bc87)" style="fill: none; stroke: #000000; stroke-width: 2"/>
    <path d="M 22.246784 233.113064 
L 22.374863 233.174603 
L 22.389012 233.320538 
L 22.219977 233.777685 
L 22.107535 233.870872 
L 21.93701 233.866476 
L 21.788081 233.805817 
L 21.66298 233.598343 
L 21.561708 233.602738 
L 21.473839 233.270428 
L 21.51405 233.148229 
L 21.655533 233.146471 
L 21.777656 233.172845 
L 21.932542 233.102515 
L 22.246784 233.113064 
" clip-path="url(#p3d0a97bc87)" style="fill: none; stroke: #000000; stroke-width: 2"/>
    <path d="M 25.722056 233.673948 
L 25.699716 233.927136 
L 25.65057 234.036148 
L 25.477067 234.117028 
L 25.40707 234.09417 
L 25.338562 234.008016 
L 25.266331 233.956147 
L 25.190377 234.043181 
L 25.154634 234.103841 
L 25.042937 234.238347 
L 25.002726 234.264721 
L 24.586468 234.388678 
L 24.452431 234.362304 
L 24.596893 234.117028 
L 24.480728 233.887575 
L 24.272226 233.779443 
L 24.051066 233.770652 
L 23.903626 233.835707 
L 24.278928 233.835707 
L 24.109148 234.256809 
L 23.867138 234.188237 
L 23.617681 233.995708 
L 23.432263 234.043181 
L 23.347374 234.035269 
L 23.316098 233.73197 
L 23.381627 233.344275 
L 23.591618 233.084932 
L 23.822459 233.037459 
L 24.899965 233.12801 
L 25.55451 233.439221 
L 25.722056 233.673948 
" clip-path="url(#p3d0a97bc87)" style="fill: none; stroke: #000000; stroke-width: 2"/>
    <path d="M 26.539679 232.642731 
L 26.67595 232.657676 
L 26.801051 232.638336 
L 26.906046 232.6946 
L 26.982 232.923173 
L 26.772754 233.183395 
L 26.50617 233.396143 
L 26.226927 233.523617 
L 25.976726 233.528012 
L 26.04151 233.392627 
L 26.090657 233.244054 
L 26.164377 232.923173 
L 25.999065 233.062075 
L 25.822583 233.080537 
L 25.477067 232.923173 
L 25.62823 232.568885 
L 25.819605 232.34207 
L 26.034063 232.221629 
L 26.258202 232.186464 
L 26.291712 232.228662 
L 26.290222 232.325366 
L 26.280542 232.425587 
L 26.289478 232.481851 
L 26.539679 232.642731 
" clip-path="url(#p3d0a97bc87)" style="fill: none; stroke: #000000; stroke-width: 2"/>
    <path d="M 24.464346 232.44229 
L 24.363073 232.473939 
L 24.171699 232.421191 
L 24.0533 232.255036 
L 24.051811 232.116134 
L 24.11734 232.044046 
L 24.954324 231.773274 
L 25.221652 231.755692 
L 25.356434 231.915693 
L 25.264097 232.123167 
L 24.464346 232.44229 
" clip-path="url(#p3d0a97bc87)" style="fill: none; stroke: #000000; stroke-width: 2"/>
    <path d="M 24.513492 231.743384 
L 23.643743 232.232179 
L 23.568534 232.205805 
L 23.731612 231.82778 
L 23.876074 231.6669 
L 23.957985 231.637889 
L 24.501578 231.592174 
L 24.513492 231.743384 
" clip-path="url(#p3d0a97bc87)" style="fill: none; stroke: #000000; stroke-width: 2"/>
    <path d="M 16.687987 231.854154 
L 16.731921 232.119651 
L 16.715539 232.256794 
L 16.692455 232.260311 
L 16.62767 232.212838 
L 16.560652 232.228662 
L 16.517463 232.165365 
L 16.520441 232.015034 
L 16.493634 231.967562 
L 16.426615 231.935034 
L 16.244921 231.987781 
L 16.158542 231.852396 
L 16.17418 231.699428 
L 16.23673 231.567559 
L 16.280664 231.440085 
L 16.390872 231.398766 
L 16.557674 231.574592 
L 16.687987 231.854154 
" clip-path="url(#p3d0a97bc87)" style="fill: none; stroke: #000000; stroke-width: 2"/>
    <path d="M 64.235248 231.682724 
L 64.141423 231.688878 
L 64.029725 231.53591 
L 63.856222 231.140303 
L 63.91356 230.97151 
L 64.34769 230.851949 
L 64.47428 230.744696 
L 64.529384 230.623376 
L 64.524916 230.466891 
L 64.568106 230.327989 
L 64.645549 230.222494 
L 64.724482 230.210186 
L 65.10872 230.526672 
L 65.186908 230.633925 
L 65.160101 230.74997 
L 65.039468 230.894147 
L 64.459387 231.099863 
L 64.329818 231.271293 
L 64.235248 231.682724 
" clip-path="url(#p3d0a97bc87)" style="fill: none; stroke: #000000; stroke-width: 2"/>
    <path d="M 22.160405 231.168435 
L 22.160405 231.302062 
L 21.892331 231.189534 
L 21.763507 231.177226 
L 21.649576 231.302062 
L 21.772443 231.421624 
L 22.036049 231.590416 
L 22.160405 231.743384 
L 22.08594 231.904264 
L 22.384544 231.875253 
L 22.510389 231.951737 
L 22.592301 232.186464 
L 22.370395 232.34207 
L 22.279548 232.347344 
L 22.426989 232.455477 
L 22.504432 232.484488 
L 22.592301 232.481851 
L 22.592301 232.642731 
L 22.428478 232.757897 
L 22.25423 232.780754 
L 22.075515 232.736798 
L 21.898289 232.642731 
L 21.870737 232.669984 
L 21.826058 232.740314 
L 21.771699 232.798337 
L 21.712127 232.790425 
L 21.70617 232.737677 
L 21.715105 232.53284 
L 21.712127 232.481851 
L 21.509582 232.276135 
L 21.410544 232.210201 
L 21.126833 232.131958 
L 20.916843 231.987781 
L 20.730681 231.77767 
L 20.650259 231.529756 
L 20.713554 231.280963 
L 20.865462 231.1025 
L 21.048645 231.007555 
L 21.205766 231.006675 
L 21.205766 230.858982 
L 20.769402 230.269088 
L 20.802167 229.988646 
L 20.85876 229.774139 
L 20.948118 229.659852 
L 21.080665 229.678314 
L 21.227361 229.836557 
L 21.629471 230.152164 
L 21.712127 230.342934 
L 21.741913 230.531947 
L 21.817122 230.643596 
L 21.910203 230.697223 
L 21.992114 230.711289 
L 22.160405 231.168435 
" clip-path="url(#p3d0a97bc87)" style="fill: none; stroke: #000000; stroke-width: 2"/>
    <path d="M 19.875825 229.925349 
L 19.75966 230.020295 
L 19.701577 229.812821 
L 19.786467 229.398752 
L 19.999436 228.868638 
L 20.252617 228.48358 
L 20.45665 228.497646 
L 20.423141 228.794791 
L 20.334528 229.018969 
L 20.106666 229.45062 
L 20.007628 229.683589 
L 19.875825 229.925349 
" clip-path="url(#p3d0a97bc87)" style="fill: none; stroke: #000000; stroke-width: 2"/>
    <path d="M 16.437041 229.441829 
L 16.384171 229.45062 
L 16.210668 229.31963 
L 15.897915 229.26952 
L 15.754198 229.08842 
L 15.848769 228.628636 
L 15.778772 228.376327 
L 15.646224 228.148633 
L 15.561335 227.760938 
L 15.754198 227.760938 
L 16.012591 228.140721 
L 16.254602 228.64534 
L 16.279175 228.847539 
L 16.437041 229.441829 
" clip-path="url(#p3d0a97bc87)" style="fill: none; stroke: #000000; stroke-width: 2"/>
    <path d="M 17.691028 228.204018 
L 17.87719 228.497646 
L 17.836234 228.509954 
L 17.808682 228.53457 
L 17.77145 228.541603 
L 17.702197 228.497646 
L 17.659753 228.706879 
L 17.639647 228.908199 
L 17.650817 229.086662 
L 17.702197 229.222047 
L 17.549545 229.198311 
L 17.43189 229.290619 
L 17.405083 229.462049 
L 17.514546 229.678314 
L 17.285939 229.536775 
L 17.053609 229.271278 
L 16.86149 228.873913 
L 16.759473 228.337645 
L 16.63884 228.560064 
L 16.539802 228.63479 
L 16.471294 228.507317 
L 16.446721 228.122259 
L 16.518952 227.815443 
L 16.690221 227.718739 
L 17.071481 227.760938 
L 17.224878 228.127534 
L 17.691028 228.204018 
" clip-path="url(#p3d0a97bc87)" style="fill: none; stroke: #000000; stroke-width: 2"/>
    <path d="M 16.197264 227.600057 
L 16.035675 227.621156 
L 15.964934 227.481375 
L 15.932914 227.289725 
L 15.883767 227.156977 
L 15.700584 227.092801 
L 15.597822 227.025987 
L 15.503997 226.86247 
L 15.421341 226.540709 
L 15.468998 226.405323 
L 15.691648 226.273454 
L 15.744518 226.123124 
L 15.78175 225.954331 
L 15.836854 225.867297 
L 15.941105 225.964001 
L 15.948552 226.149497 
L 15.979827 226.315652 
L 16.037909 226.455434 
L 16.128756 226.567083 
L 16.05727 226.874777 
L 16.011102 227.193901 
L 16.040143 227.420715 
L 16.197264 227.452364 
L 16.197264 227.600057 
" clip-path="url(#p3d0a97bc87)" style="fill: none; stroke: #000000; stroke-width: 2"/>
    <path d="M 15.519634 221.486606 
L 15.537506 221.555178 
L 15.617928 221.522651 
L 15.678989 221.531442 
L 15.713987 221.578915 
L 15.769836 221.555178 
L 15.839088 221.425947 
L 15.910574 221.469903 
L 15.912808 221.756498 
L 15.872597 221.919137 
L 15.753454 221.861115 
L 15.384108 221.594739 
L 15.343153 221.638695 
L 15.316345 221.602651 
L 15.305176 221.529684 
L 15.25305 221.444408 
L 15.168905 221.3521 
L 15.197946 221.265066 
L 15.354322 221.207923 
L 15.491338 221.299352 
L 15.519634 221.486606 
" clip-path="url(#p3d0a97bc87)" style="fill: none; stroke: #000000; stroke-width: 2"/>
    <path d="M 16.446721 220.640007 
L 16.375235 220.840448 
L 16.18535 220.863305 
L 15.982805 220.773634 
L 15.883767 220.800887 
L 15.584419 220.800887 
L 15.445914 220.756052 
L 15.316345 220.640007 
L 15.548676 220.418467 
L 15.995464 220.647919 
L 16.197264 220.5055 
L 16.165989 220.420225 
L 16.152585 220.348137 
L 16.143649 220.279565 
L 16.128756 220.196927 
L 16.18535 220.146816 
L 16.268005 219.994727 
L 16.32162 219.915606 
L 16.055781 219.487471 
L 15.88749 219.340657 
L 15.691648 219.313404 
L 15.935148 218.94417 
L 16.072163 218.857137 
L 16.254602 218.870324 
L 16.410233 219.197359 
L 16.548738 219.403075 
L 16.889042 219.755605 
L 16.710326 219.983299 
L 16.562141 220.051871 
L 16.464593 220.19341 
L 16.446721 220.640007 
" clip-path="url(#p3d0a97bc87)" style="fill: none; stroke: #000000; stroke-width: 2"/>
    <path d="M 17.025312 214.0993 
L 17.324661 214.433368 
L 17.393169 214.514248 
L 17.414019 214.547655 
L 17.340299 214.533589 
L 17.022334 214.341939 
L 16.844363 214.447434 
L 16.688732 214.449193 
L 16.636606 214.415786 
L 16.65001 214.408753 
L 16.664903 214.405236 
L 16.641074 214.322598 
L 16.602352 214.133586 
L 16.634372 214.011387 
L 16.699157 213.985893 
L 16.7349 213.935782 
L 16.728943 213.875123 
L 16.787025 213.745891 
L 16.941912 213.628088 
L 17.045418 213.723034 
L 16.994037 213.909409 
L 17.025312 214.0993 
" clip-path="url(#p3d0a97bc87)" style="fill: none; stroke: #000000; stroke-width: 2"/>
    <path d="M 18.111009 204.898354 
L 18.048459 204.905387 
L 17.841447 204.838573 
L 17.691028 204.723408 
L 17.673156 204.654836 
L 17.773684 204.633737 
L 17.89804 204.414834 
L 18.233876 204.554615 
L 18.258449 204.573077 
L 18.278555 204.660111 
L 18.240578 204.739232 
L 18.17356 204.749782 
L 18.135583 204.808683 
L 18.111009 204.898354 
" clip-path="url(#p3d0a97bc87)" style="fill: none; stroke: #000000; stroke-width: 2"/>
    <path d="M 15.440702 175.577702 
L 15.488359 175.875726 
L 15.495061 176.091991 
L 15.445914 176.1843 
L 15.372194 176.202761 
L 15.215818 176.036606 
L 15.13763 176.119244 
L 15.002849 176.208036 
L 14.806262 176.050672 
L 14.708713 175.84144 
L 14.713181 175.749132 
L 14.762327 175.727153 
L 14.82041 175.786055 
L 14.842005 175.828253 
L 14.880726 175.74122 
L 14.922427 175.572427 
L 14.861365 175.480119 
L 14.748924 175.374623 
L 14.670736 175.196161 
L 14.657332 175.023852 
L 14.710947 174.899016 
L 14.792858 174.821652 
L 14.851685 174.818136 
L 14.883705 174.893741 
L 14.926895 174.947368 
L 15.154757 175.053742 
L 15.25454 175.162754 
L 15.361769 175.340338 
L 15.440702 175.577702 
" clip-path="url(#p3d0a97bc87)" style="fill: none; stroke: #000000; stroke-width: 2"/>
    <path d="M 14.186714 168.823367 
L 14.564996 169.165348 
L 14.923171 169.126666 
L 15.289538 168.976335 
L 15.691648 168.970181 
L 15.691648 169.103809 
L 15.543463 169.172381 
L 15.433255 169.340294 
L 15.249327 169.868649 
L 15.27539 170.037442 
L 15.289538 170.065574 
L 15.284326 170.068211 
L 15.249327 170.163157 
L 15.38113 170.258103 
L 15.883767 170.297664 
L 15.955253 170.350411 
L 16.021527 170.437445 
L 16.088545 170.474368 
L 16.16301 170.378543 
L 16.189817 170.222059 
L 16.160032 170.095464 
L 16.12131 169.981178 
L 16.128756 169.868649 
L 16.35364 169.597878 
L 16.721496 169.407987 
L 17.090841 169.408866 
L 17.326895 169.708648 
L 17.2636 169.997002 
L 17.259877 170.278323 
L 17.303811 170.532391 
L 17.384233 170.753931 
L 17.166051 170.881404 
L 16.918083 170.933273 
L 16.794472 170.856788 
L 16.94638 170.59305 
L 16.784047 170.585138 
L 16.128756 171.197011 
L 16.128756 171.343825 
L 16.192796 171.363166 
L 16.378958 171.477452 
L 16.223327 171.667344 
L 16.058015 171.758773 
L 15.691648 171.785147 
L 15.579206 171.618992 
L 15.470488 171.376353 
L 15.361769 171.080087 
L 15.191989 170.901624 
L 15.072846 170.972833 
L 14.943277 171.109977 
L 14.811474 171.104702 
L 14.686373 170.753931 
L 14.878492 170.753931 
L 14.878492 170.59305 
L 14.760093 170.489313 
L 14.499467 170.126234 
L 14.404896 169.942496 
L 14.347558 169.73678 
L 14.212777 169.050182 
L 14.186714 168.823367 
" clip-path="url(#p3d0a97bc87)" style="fill: none; stroke: #000000; stroke-width: 2"/>
    <path d="M 22.92069 168.082263 
L 23.170892 168.513035 
L 23.146319 168.670399 
L 23.041323 168.944687 
L 22.887181 169.047545 
L 22.74123 169.040512 
L 22.679424 168.968423 
L 22.689105 168.813697 
L 22.65634 168.7504 
L 22.594535 168.796993 
L 22.574429 168.889302 
L 22.565493 168.989522 
L 22.522304 169.044028 
L 22.471668 169.052819 
L 22.415819 168.99128 
L 22.380076 168.844466 
L 22.410606 168.58864 
L 22.514113 168.335452 
L 22.63549 168.269517 
L 22.814206 168.404023 
L 22.88867 168.37765 
L 22.854417 168.269517 
L 22.724103 168.120944 
L 22.683892 168.021603 
L 22.730805 167.995229 
L 22.78442 167.992592 
L 22.817929 168.053252 
L 22.854417 168.079625 
L 22.92069 168.082263 
" clip-path="url(#p3d0a97bc87)" style="fill: none; stroke: #000000; stroke-width: 2"/>
    <path d="M 24.800926 168.261605 
L 24.867945 168.406661 
L 24.851562 168.506002 
L 24.759226 168.707322 
L 24.651997 168.99216 
L 24.523917 169.137216 
L 24.328075 169.131941 
L 24.046598 168.806664 
L 23.661615 168.901609 
L 23.658636 168.943808 
L 23.886499 169.010621 
L 24.065214 169.119633 
L 24.106915 169.351723 
L 24.0533 169.498537 
L 23.975112 169.514361 
L 23.932667 169.550405 
L 23.934156 169.609307 
L 23.863415 169.627769 
L 23.39652 169.385129 
L 23.340672 169.287546 
L 23.37567 169.197875 
L 23.332481 169.110842 
L 23.22823 169.013259 
L 23.243123 168.907763 
L 23.307163 168.857653 
L 23.37716 168.818092 
L 23.427796 168.675674 
L 23.371947 168.469079 
L 23.280355 168.282704 
L 23.247591 168.158747 
L 23.33397 168.092812 
L 23.462049 168.061164 
L 23.622893 167.934569 
L 23.745016 167.989955 
L 23.823204 167.999625 
L 23.895434 168.079625 
L 23.96841 168.222923 
L 24.062236 168.321385 
L 24.111382 168.30644 
L 24.118829 168.198308 
L 24.167231 168.14556 
L 24.248398 168.173692 
L 24.319139 168.240506 
L 24.358606 168.331935 
L 24.404774 168.348638 
L 24.468813 168.282704 
L 24.51796 168.171934 
L 24.542534 168.011054 
L 24.584978 167.847536 
L 24.643061 167.726216 
L 24.685506 167.681381 
L 24.730929 167.720942 
L 24.77114 167.884459 
L 24.783799 168.008416 
L 24.800926 168.261605 
" clip-path="url(#p3d0a97bc87)" style="fill: none; stroke: #000000; stroke-width: 2"/>
    <path d="M 16.742346 168.221165 
L 16.378958 168.823367 
L 16.349172 168.472595 
L 16.263538 168.432156 
L 16.14216 168.512156 
L 16.003655 168.52798 
L 15.561335 167.937207 
L 15.606013 167.850173 
L 15.649203 167.816766 
L 15.754198 167.8027 
L 15.995464 167.678743 
L 16.31045 167.357862 
L 16.629904 167.182037 
L 16.889042 167.495006 
L 16.885319 167.837865 
L 16.742346 168.221165 
" clip-path="url(#p3d0a97bc87)" style="fill: none; stroke: #000000; stroke-width: 2"/>
    <path d="M 23.253548 166.718736 
L 23.341416 166.75566 
L 23.43003 166.745989 
L 23.493325 166.75566 
L 23.493325 166.824232 
L 23.427796 166.882254 
L 23.341416 166.898958 
L 23.348863 166.969288 
L 23.393542 167.111706 
L 23.31163 167.262037 
L 23.157488 167.30951 
L 22.860374 167.130168 
L 22.730805 167.182916 
L 22.632512 167.388631 
L 22.587833 167.512588 
L 22.469434 167.670831 
L 22.304122 167.84314 
L 22.222955 167.876547 
L 22.147746 167.829074 
L 22.132108 167.739403 
L 22.147746 167.694568 
L 22.169341 167.616325 
L 22.214019 167.494127 
L 22.259443 167.396544 
L 22.304122 167.267312 
L 22.355503 167.152146 
L 22.415074 167.071267 
L 22.464966 166.976321 
L 22.491773 166.876979 
L 22.581875 166.729286 
L 22.748677 166.714341 
L 22.891649 166.758297 
L 23.034621 166.668626 
L 23.161956 166.650165 
L 23.208869 166.679176 
L 23.253548 166.718736 
" clip-path="url(#p3d0a97bc87)" style="fill: none; stroke: #000000; stroke-width: 2"/>
    <path d="M 29.895063 158.239554 
L 29.937508 158.27384 
L 29.975485 158.227246 
L 30.007505 158.199114 
L 30.148988 158.205268 
L 30.198879 158.268565 
L 30.168349 158.343291 
L 30.128138 158.373181 
L 30.118457 158.429446 
L 30.109522 158.550765 
L 30.073779 158.6967 
L 30.044737 158.761756 
L 30.020909 158.8989 
L 29.95389 159.092308 
L 29.872724 159.048351 
L 29.770707 158.94901 
L 29.726028 159.014944 
L 29.755814 159.175825 
L 29.715603 159.308573 
L 29.609863 159.333188 
L 29.537632 159.426376 
L 29.382001 159.473849 
L 29.195839 159.34198 
L 29.046164 159.130989 
L 28.948616 158.812745 
L 28.900958 158.726591 
L 28.865215 158.650986 
L 28.850322 158.547249 
L 29.046909 158.410105 
L 29.124352 158.331862 
L 29.198817 158.21318 
L 29.36115 158.068124 
L 29.603906 157.94153 
L 29.767728 157.963508 
L 29.841448 158.107685 
L 29.895063 158.239554 
" clip-path="url(#p3d0a97bc87)" style="fill: none; stroke: #000000; stroke-width: 2"/>
    <path d="M 48.903283 130.407889 
L 48.993225 130.552543 
L 49.209898 130.523525 
L 49.482073 130.552488 
L 50.005191 130.639734 
L 50.372568 130.5877 
L 50.630891 130.890875 
L 50.321531 131.082316 
L 49.719534 131.078857 
L 48.943208 130.852517 
L 48.415063 130.895181 
L 48.249401 131.305989 
L 47.524834 131.755366 
L 47.784778 132.349544 
L 48.348554 132.279801 
L 48.485199 132.414312 
L 48.382438 132.519807 
L 48.278187 132.538269 
L 48.169469 132.527719 
L 48.053303 132.547939 
L 47.972137 132.611236 
L 47.879056 132.771237 
L 47.797145 132.843326 
L 47.63779 132.890799 
L 47.440458 132.873216 
L 47.326527 132.734314 
L 47.417374 132.414312 
L 47.375674 132.337828 
L 47.297486 132.118925 
L 47.17313 131.904418 
L 46.93931 132.435411 
L 46.694321 132.525082 
L 46.381056 131.991915 
L 46.213077 131.62424 
L 46.129733 131.335186 
L 46.064349 131.027049 
L 46.275084 130.763311 
L 46.901004 130.097071 
L 47.69431 130.031142 
L 48.550932 129.782069 
L 48.995542 129.952671 
L 49.122612 130.265703 
L 48.903283 130.407889 
" clip-path="url(#p3d0a97bc87)" style="fill: none; stroke: #000000; stroke-width: 2"/>
    <path d="M 76.576165 22.275926 
L 76.849473 22.652184 
L 77.342184 23.595619 
L 79.247775 26.265151 
L 81.003946 26.909924 
L 80.990706 27.641226 
L 81.217675 28.075542 
L 81.916549 28.432819 
L 87.866912 30.842208 
L 88.01255 31.06439 
L 88.525121 32.748059 
L 89.818843 35.375164 
L 88.763911 37.266501 
L 85.42889 40.728741 
L 85.313514 41.011214 
L 85.082762 43.100169 
L 85.198611 43.674046 
L 86.245977 44.819566 
L 85.142342 45.744022 
L 84.042489 46.099066 
L 81.690526 47.566136 
L 81.269688 47.600747 
L 81.421001 48.204769 
L 81.580825 48.307486 
L 83.423999 48.181323 
L 84.179616 48.324234 
L 84.849647 48.962867 
L 84.07086 51.286286 
L 81.614397 55.569148 
L 81.610141 55.889581 
L 81.916549 57.01947 
L 83.832543 63.056341 
L 84.170159 63.282988 
L 89.693537 65.4434 
L 89.961644 65.788396 
L 92.624743 70.826006 
L 93.197839 71.497017 
L 95.902549 73.801456 
L 95.612219 74.311693 
L 95.573445 74.590815 
L 95.449558 76.270019 
L 95.049998 77.641071 
L 91.318727 82.395092 
L 91.066225 83.071686 
L 90.595265 83.590296 
L 87.580364 88.811011 
L 87.137775 90.611354 
L 87.482011 92.129224 
L 89.614571 95.531732 
L 89.996635 96.730286 
L 90.284128 97.338216 
L 90.412744 97.942796 
L 91.465311 99.611951 
L 91.663987 100.891955 
L 91.879056 102.054276 
L 92.094204 102.750967 
L 92.621906 104.004787 
L 93.916573 106.317041 
L 94.675973 107.338631 
L 94.902941 107.890178 
L 95.905386 112.046318 
L 96.580618 114.446217 
L 96.858655 117.451812 
L 96.717745 117.648873 
L 96.4085 117.534432 
L 95.843916 117.17883 
L 93.659342 117.82807 
L 93.097594 118.23224 
L 93.36712 118.678836 
L 94.048026 119.194097 
L 94.339302 119.625621 
L 94.222035 119.904744 
L 93.359878 121.094069 
L 93.312269 121.216622 
L 93.237559 122.017705 
L 93.351043 123.936395 
L 93.255527 124.720173 
L 92.294693 126.00972 
L 91.974099 126.744372 
L 92.400611 127.180362 
L 93.682985 127.134027 
L 94.290126 127.400869 
L 94.257972 128.403478 
L 94.069777 128.69265 
L 94.061266 128.907016 
L 94.172386 129.09682 
L 94.445694 129.205119 
L 94.40361 129.496524 
L 94.173804 129.806908 
L 92.777001 130.146322 
L 92.406286 130.485735 
L 92.141489 131.087524 
L 92.047864 132.015329 
L 92.463974 133.836327 
L 93.055984 135.30563 
L 93.805926 136.246832 
L 94.69867 136.479062 
L 96.388641 136.493577 
L 96.904049 136.844155 
L 96.868112 137.137792 
L 96.815153 137.878026 
L 97.018479 138.285546 
L 97.3769 138.70758 
L 97.534833 139.125147 
L 97.470998 139.548298 
L 97.064818 140.140038 
L 95.439155 141.015368 
L 95.440101 141.207404 
L 95.528051 141.27551 
L 95.64059 142.2971 
L 95.755965 142.400934 
L 95.729486 142.542728 
L 96.143704 142.817385 
L 96.460514 143.240536 
L 96.391005 143.747423 
L 96.191934 144.297853 
L 96.113441 144.859448 
L 96.301163 145.266968 
L 96.668569 145.630944 
L 97.321104 146.048512 
L 98.754789 146.572146 
L 99.206362 146.936123 
L 99.897198 148.018003 
L 100.722797 148.365232 
L 100.926596 148.689015 
L 100.691589 149.923854 
L 101.182409 151.606407 
L 101.128031 152.332127 
L 100.870327 152.966294 
L 100.476914 153.621675 
L 98.82288 155.682718 
L 98.246474 157.093963 
L 97.660611 157.915701 
L 96.285559 158.53982 
L 95.64059 159.019912 
L 95.826893 159.585973 
L 98.035109 162.470987 
L 99.297623 163.537237 
L 100.287774 165.056782 
L 103.328208 166.924672 
L 104.737306 168.793679 
L 106.832983 170.446087 
L 107.031581 170.805597 
L 107.371088 172.867757 
L 107.606568 173.21052 
L 108.446825 174.005462 
L 109.249254 175.223554 
L 109.36463 175.33632 
L 109.591599 175.728209 
L 109.869635 176.779944 
L 110.177935 177.073581 
L 109.004317 179.606342 
L 108.723444 180.517399 
L 108.141836 183.049602 
L 107.565903 184.267136 
L 107.197079 185.771609 
L 106.994226 186.025611 
L 106.366279 186.549245 
L 106.095335 187.252077 
L 104.665432 189.123875 
L 104.286206 190.119227 
L 104.120708 190.318521 
L 103.079961 191.180453 
L 101.905871 192.329322 
L 101.626889 192.670969 
L 101.372495 193.378266 
L 100.214955 195.184191 
L 98.923597 196.826551 
L 95.612219 202.519541 
L 94.186571 204.325467 
L 93.795523 205.437492 
L 92.195394 207.466716 
L 91.397221 207.988117 
L 91.066225 208.858423 
L 90.906401 209.31116 
L 89.312891 211.420213 
L 88.525121 212.939199 
L 87.856509 213.640914 
L 85.992529 215.055509 
L 85.343776 215.817515 
L 84.665235 216.372969 
L 84.380105 216.926191 
L 83.65286 217.982392 
L 83.497764 218.43178 
L 83.139343 219.074321 
L 82.332658 219.327206 
L 81.916549 219.689508 
L 80.589728 221.289998 
L 79.748052 222.754835 
L 78.871386 223.486696 
L 77.342184 225.825187 
L 75.757931 227.908631 
L 75.338694 227.323132 
L 75.165936 227.521815 
L 75.257527 227.760938 
L 75.101896 227.854125 
L 75.142107 228.393909 
L 75.257527 228.64534 
L 75.069876 228.793033 
L 75.257527 228.928419 
L 74.820419 229.36974 
L 74.189702 229.222047 
L 74.274592 228.97765 
L 74.694573 228.64534 
L 74.150236 228.586438 
L 73.931309 229.055892 
L 74.127152 229.678314 
L 73.786848 229.543808 
L 73.018371 228.755231 
L 72.690726 228.928419 
L 72.778594 228.961825 
L 72.878377 229.222047 
L 72.690726 229.530621 
L 72.947629 229.816337 
L 73.001989 229.973701 
L 72.545519 229.839194 
L 71.745023 229.100728 
L 71.341424 228.928419 
L 70.492525 228.793033 
L 70.477632 228.486218 
L 70.713685 228.418525 
L 71.185048 228.497646 
L 70.972823 228.265557 
L 70.304874 227.760938 
L 70.449335 227.33544 
L 70.329447 227.219395 
L 70.120201 227.331923 
L 69.992122 227.600057 
L 70.202112 228.552152 
L 69.992122 228.793033 
L 69.918401 228.436107 
L 69.625755 228.427316 
L 69.395659 228.043137 
L 69.332363 228.112589 
L 69.174498 228.497646 
L 69.088119 228.436107 
L 68.863235 228.043137 
L 68.671116 228.15127 
L 68.584737 228.417646 
L 68.555696 228.744681 
L 68.47304 228.850176 
L 68.349428 229.313476 
L 68.15433 229.41018 
L 67.738072 229.36974 
L 68.04859 229.951723 
L 68.021783 230.195241 
L 67.950297 230.147768 
L 67.585419 229.604467 
L 66.477383 229.973701 
L 66.670247 229.36974 
L 66.321007 229.425125 
L 66.009 229.746007 
L 65.717842 230.656783 
L 65.504873 230.822938 
L 64.861497 230.071284 
L 64.49662 230.192604 
L 64.472046 230.416781 
L 64.279182 230.502056 
L 64.040895 230.353484 
L 63.632083 229.746007 
L 63.560597 229.33018 
L 63.948559 228.929298 
L 64.125785 228.719186 
L 64.409496 227.975445 
L 64.407262 227.30555 
L 64.521193 227.080493 
L 64.934473 226.686644 
L 65.315732 226.755216 
L 66.107293 227.452364 
L 65.911451 226.616314 
L 65.613592 226.02554 
L 65.247225 225.774989 
L 64.847349 225.964001 
L 64.630656 226.276971 
L 63.477941 228.879187 
L 63.390073 229.604467 
L 63.659635 230.269088 
L 63.346883 230.858982 
L 63.025195 230.957444 
L 63.096681 231.302062 
L 62.993175 231.258106 
L 62.722868 230.858982 
L 62.734038 231.110412 
L 62.637978 231.292392 
L 62.430966 231.370634 
L 62.345332 231.743384 
L 62.18002 231.582504 
L 61.617811 230.329747 
L 61.336334 230.121394 
L 61.313994 230.385132 
L 61.717593 231.168435 
L 60.774869 231.006675 
L 60.51871 231.302062 
L 60.445735 231.154369 
L 59.784487 230.517881 
L 59.665344 230.405352 
L 59.041329 229.578094 
L 58.458269 229.36974 
L 58.458269 229.530621 
L 59.056222 229.960514 
L 59.24983 230.340297 
L 59.480671 230.495023 
L 59.581943 231.086676 
L 59.512691 231.201842 
L 59.278127 231.2036 
L 59.427801 231.632614 
L 59.769594 231.904264 
L 60.189576 232.856359 
L 60.051071 233.232626 
L 59.581943 233.380319 
L 59.570773 232.88625 
L 59.188769 232.189102 
L 59.269191 231.904264 
L 59.156004 231.910418 
L 58.92293 232.186464 
L 58.737512 232.103826 
L 58.000311 231.279205 
L 57.770215 231.168435 
L 58.292213 231.922726 
L 58.458269 232.051958 
L 58.366678 232.490642 
L 58.156687 232.943393 
L 58.231152 233.557903 
L 58.576668 234.560108 
L 58.253491 234.465162 
L 58.015204 234.117028 
L 58.082967 233.969334 
L 57.943718 233.72142 
L 57.390444 233.528012 
L 56.962272 232.927568 
L 56.82749 233.084932 
L 56.885573 233.466474 
L 57.210984 233.750432 
L 57.832765 234.117028 
L 57.207261 234.425601 
L 57.207261 234.560108 
L 57.037481 234.663845 
L 56.79547 234.515272 
L 56.009867 233.380319 
L 56.091033 232.884491 
L 56.201241 232.782512 
L 56.009867 232.642731 
L 56.009867 232.481851 
L 56.51027 232.481851 
L 56.380702 232.017672 
L 56.18337 231.97899 
L 55.580205 232.542511 
L 54.879491 232.790425 
L 54.879491 232.923173 
L 55.017996 233.022514 
L 55.052994 233.542078 
L 54.904065 233.927136 
L 54.843748 233.99395 
L 54.665777 234.539009 
L 53.374558 234.560108 
L 53.39094 234.238347 
L 53.276264 234.083621 
L 52.936705 233.969334 
L 52.9583 234.069555 
L 53.005212 234.425601 
L 52.723735 234.544284 
L 51.807818 234.670878 
L 51.765374 235.036595 
L 51.495066 234.841429 
L 51.483897 235.022529 
L 51.93143 235.44451 
L 51.725163 235.52539 
L 51.86888 235.739017 
L 51.684952 235.89726 
L 50.932112 236.047591 
L 50.994663 235.739017 
L 50.503195 236.208471 
L 50.681911 236.342978 
L 50.623828 236.474847 
L 50.479366 236.469572 
L 50.333415 236.66298 
L 50.163636 236.587375 
L 50.045981 236.342978 
L 50.261929 235.882315 
L 50.23959 235.296816 
L 50.054173 235.259014 
L 49.923859 235.548247 
L 49.61632 236.757926 
L 48.649022 236.751772 
L 48.54775 236.490671 
L 48.884331 236.364077 
L 48.86497 235.973744 
L 48.623704 235.651984 
L 48.297548 235.739017 
L 48.485199 236.342978 
L 47.984796 236.786058 
L 47.208128 236.994411 
L 47.076325 237.147379 
L 46.921439 237.675735 
L 46.685385 236.912652 
L 45.984671 236.488034 
L 45.938503 236.556606 
L 46.191684 236.93551 
L 46.376356 237.107819 
L 46.173812 237.5298 
L 45.929567 237.703867 
L 45.859571 237.965847 
L 46.479862 237.67046 
L 46.352528 238.022111 
L 46.16711 238.260354 
L 46.354761 238.555741 
L 45.737448 239.093767 
L 45.198323 239.935092 
L 44.723982 240.044104 
L 45.059819 239.041899 
L 45.161835 238.851128 
L 44.997268 238.830908 
L 44.766427 239.09113 
L 44.344212 239.750475 
L 44.279428 239.381242 
L 44.120073 239.499924 
L 43.776046 239.911355 
L 43.939868 239.389154 
L 44.187836 239.078822 
L 44.281662 238.260354 
L 43.622648 238.297278 
L 43.464038 238.555741 
L 43.589139 238.716621 
L 43.102139 239.006733 
L 42.53025 238.819479 
L 42.364938 238.927612 
L 42.36047 239.112229 
L 42.589077 239.307395 
L 42.417808 239.437506 
L 41.88464 239.167614 
L 41.449021 239.416407 
L 41.339557 239.307395 
L 41.172756 239.655529 
L 41.002977 239.629156 
L 40.938937 239.404099 
L 41.090845 238.998821 
L 40.922555 239.03047 
L 40.37226 239.871795 
L 39.753457 240.00718 
L 39.080296 240.794878 
L 38.821903 240.549602 
L 37.324416 240.794878 
L 37.204527 240.697295 
L 37.012408 240.33949 
L 36.905924 240.341249 
L 35.694381 240.794878 
L 35.796398 240.466085 
L 36.324354 239.441022 
L 36.713804 239.228274 
L 36.670615 238.885414 
L 36.681785 238.495081 
L 36.762207 238.260354 
L 36.324354 238.489807 
L 35.10462 241.037517 
L 34.751657 241.520158 
L 33.934778 242.060822 
L 33.799252 242.315768 
L 33.89829 243.055114 
L 34.064347 243.142148 
L 34.064347 243.289841 
L 32.388144 243.729405 
L 31.617434 243.666108 
L 31.443186 243.783032 
L 30.741728 243.893802 
L 30.904806 243.754021 
L 31.271917 243.142148 
L 31.642007 243.055994 
L 32.930993 242.312252 
L 33.303317 242.257746 
L 33.282467 241.636203 
L 33.799997 241.670489 
L 34.025625 241.533345 
L 34.452309 240.750043 
L 34.751657 239.655529 
L 34.810484 239.212449 
L 34.655597 239.37333 
L 33.808933 241.372465 
L 33.627983 241.372465 
L 33.641387 241.301256 
L 33.59224 240.976858 
L 33.394164 240.961033 
L 33.303317 241.077078 
L 33.331613 241.230925 
L 32.971204 241.090265 
L 32.777595 241.514884 
L 32.713556 241.376861 
L 32.685259 241.144771 
L 32.783552 240.413337 
L 32.937695 240.222566 
L 33.627983 239.911355 
L 34.121685 238.998821 
L 33.641387 238.783435 
L 32.73664 239.013766 
L 32.089541 238.894205 
L 31.736577 238.51618 
L 31.739556 237.920132 
L 32.184856 237.229138 
L 31.997204 236.933751 
L 31.735088 237.616833 
L 31.485631 237.818153 
L 31.386593 237.230896 
L 31.239153 237.105181 
L 30.921933 237.010235 
L 30.618116 236.625178 
L 30.717899 236.198801 
L 30.549609 235.88759 
L 31.242131 234.560108 
L 31.997204 233.528012 
L 32.184856 232.790425 
L 32.522926 232.384268 
L 32.502076 232.186464 
L 32.316658 232.137233 
L 31.861678 232.858117 
L 31.747003 233.232626 
L 31.226494 233.019877 
L 30.640456 233.352187 
L 29.350725 234.711318 
L 28.206946 235.105167 
L 27.678246 235.427806 
L 27.419109 235.44451 
L 27.55389 235.24319 
L 28.044613 234.841429 
L 27.862174 234.781648 
L 27.84877 234.614614 
L 28.11461 234.062522 
L 28.545016 233.835707 
L 27.871855 234.006258 
L 27.222522 234.519668 
L 26.727331 234.560108 
L 26.815944 234.132852 
L 26.909769 233.874389 
L 27.270179 233.352187 
L 27.558358 232.965371 
L 27.607505 232.642731 
L 28.391619 231.440964 
L 28.326834 231.235249 
L 27.929192 231.735472 
L 27.587399 231.808439 
L 26.851687 231.743384 
L 27.039338 231.168435 
L 25.281969 231.590416 
L 25.177718 231.507778 
L 24.897731 231.115687 
L 24.089043 230.466891 
L 23.682465 230.416781 
L 23.539493 229.872601 
L 23.204401 230.429968 
L 23.045047 230.37722 
L 22.773995 229.920953 
L 22.737507 229.665127 
L 22.592301 229.678314 
L 22.42401 229.469961 
L 22.4672 229.222047 
L 22.02339 229.222047 
L 22.160405 228.64534 
L 21.728509 228.430833 
L 21.274274 228.497646 
L 21.186405 228.719186 
L 21.228106 228.974133 
L 21.461925 229.530621 
L 20.839399 229.357433 
L 20.650259 229.530621 
L 20.963755 227.217637 
L 21.205766 227.156977 
L 21.044922 226.756095 
L 21.15513 226.273454 
L 20.16028 227.288846 
L 19.677004 227.402254 
L 19.50499 227.77852 
L 19.547435 228.269952 
L 19.452865 228.625999 
L 19.451375 228.860726 
L 19.333721 229.146442 
L 19.064903 229.295894 
L 18.571202 229.222047 
L 18.805766 228.946001 
L 18.676942 228.48358 
L 18.201856 227.600057 
L 18.345573 227.584233 
L 18.758853 227.760938 
L 18.758853 227.600057 
L 18.542905 227.495441 
L 17.912188 227.452364 
L 17.514546 227.600057 
L 17.202539 227.317857 
L 17.302321 227.112142 
L 17.384233 227.022471 
L 17.259877 226.714776 
L 17.69773 226.856316 
L 17.764748 226.714776 
L 16.938189 225.877847 
L 16.703625 225.128831 
L 16.696923 224.945972 
L 17.481037 225.158721 
L 17.498909 224.668168 
L 17.326895 224.193439 
L 17.764748 224.193439 
L 17.764748 224.060691 
L 17.372318 223.944646 
L 17.00893 223.602666 
L 17.326895 223.456731 
L 17.011909 223.021563 
L 16.889042 223.01365 
L 16.949358 222.715626 
L 16.766175 222.222436 
L 16.566609 222.203095 
L 16.446721 221.819796 
L 16.542781 221.607047 
L 16.378958 221.175395 
L 16.507037 221.096274 
L 17.196581 221.178033 
L 17.384233 220.935394 
L 17.17871 220.800887 
L 16.883829 220.745502 
L 16.792982 220.307697 
L 17.040205 220.049233 
L 17.384233 220.357807 
L 17.32764 220.13363 
L 17.165306 219.607911 
L 17.013398 219.469009 
L 16.94638 219.16571 
L 16.378958 217.985043 
L 16.566609 217.677348 
L 16.228539 217.257125 
L 16.197264 216.952947 
L 16.39534 216.951189 
L 17.00893 217.381961 
L 17.198815 217.211411 
L 17.195092 217.156025 
L 17.045418 217.00042 
L 16.822024 216.952947 
L 17.081161 216.752506 
L 17.617308 217.063717 
L 17.87719 216.952947 
L 17.626243 216.562615 
L 17.586032 216.290964 
L 17.702197 216.066787 
L 17.446783 215.168319 
L 17.536886 215.161286 
L 17.764748 215.020625 
L 17.635179 215.006559 
L 17.514546 214.886998 
L 17.639647 214.579304 
L 17.514546 214.579304 
L 17.774428 214.402599 
L 18.070798 214.418423 
L 18.008248 214.123036 
L 18.571202 213.840837 
L 18.437165 213.388965 
L 18.259939 213.183249 
L 17.820596 212.942369 
L 18.070798 212.20566 
L 18.446101 212.20566 
L 18.352275 211.133125 
L 18.329936 210.697078 
L 18.207813 210.007842 
L 17.948676 209.755532 
L 17.571884 209.549816 
L 17.836979 209.359925 
L 18.420783 209.428497 
L 18.70226 209.255309 
L 18.425995 208.6997 
L 18.133349 208.356841 
L 17.326895 207.766067 
L 18.548862 207.985849 
L 18.882464 207.766067 
L 18.639709 207.028479 
L 18.505673 206.978369 
L 18.133349 207.028479 
L 17.674645 206.101 
L 17.87719 205.983197 
L 18.112498 205.933966 
L 19.168409 206.457926 
L 20.018797 207.028479 
L 20.018797 206.867599 
L 19.394782 206.146715 
L 19.085009 205.603414 
L 18.879486 204.68121 
L 18.38355 204.211756 
L 18.201856 202.885153 
L 18.371636 202.951087 
L 18.682899 203.235925 
L 18.825871 203.178781 
L 18.582371 202.840317 
L 17.941229 202.329544 
L 17.764748 201.838112 
L 17.787832 200.603817 
L 17.532418 200.398981 
L 17.571884 200.068429 
L 17.153392 199.316775 
L 17.157115 198.955454 
L 17.253175 198.658309 
L 17.065523 198.521165 
L 16.862979 197.96204 
L 16.323854 197.946216 
L 16.003655 197.694785 
L 16.16301 197.265771 
L 16.031207 197.088188 
L 15.629098 196.970385 
L 16.066206 195.027513 
L 16.176414 193.828384 
L 16.32162 194.289046 
L 16.507037 193.350138 
L 16.446721 193.108378 
L 16.578524 192.849915 
L 16.977655 192.444637 
L 17.032014 192.149251 
L 16.949358 191.940018 
L 16.696923 191.634082 
L 16.889042 190.882428 
L 16.687987 190.899132 
L 16.32162 191.634082 
L 16.566609 188.965052 
L 16.075142 189.186592 
L 15.941105 189.099558 
L 15.847279 188.609884 
L 15.941105 187.771197 
L 15.316345 189.102196 
L 15.441446 189.408132 
L 15.242625 189.364175 
L 15.249327 188.590544 
L 15.262731 188.187903 
L 15.123482 188.08065 
L 15.316345 187.623504 
L 15.166671 187.495151 
L 14.816687 187.706142 
L 14.686373 187.91889 
L 14.666268 187.643723 
L 14.878492 186.604595 
L 14.601483 186.819981 
L 14.529253 186.704816 
L 14.521806 185.9347 
L 14.72584 185.396674 
L 14.878492 185.24986 
L 14.623823 184.674032 
L 15.186032 184.010291 
L 15.378896 184.070071 
L 15.235179 183.663914 
L 14.57691 183.479298 
L 14.436172 183.185669 
L 14.226181 183.408967 
L 14.060869 183.774684 
L 14.186714 181.991814 
L 14.369153 181.93555 
L 14.833814 181.440602 
L 14.929873 180.870927 
L 14.529997 180.449825 
L 14.451809 180.074438 
L 14.645418 179.560148 
L 14.844983 179.483664 
L 15.142098 179.743007 
L 15.691648 177.861674 
L 15.911319 177.870466 
L 16.536079 178.164094 
L 16.79745 177.948708 
L 17.083395 177.474858 
L 17.326895 176.298586 
L 17.376042 176.250234 
L 17.702197 176.091112 
L 17.515291 174.931543 
L 17.52795 174.157032 
L 17.737941 174.005822 
L 17.860807 174.111318 
L 17.994844 173.491533 
L 18.253982 173.659446 
L 18.635986 174.160549 
L 19.473715 174.654618 
L 19.764128 174.455935 
L 19.372443 173.847579 
L 18.584605 172.986035 
L 18.526523 172.695044 
L 18.70226 172.37592 
L 18.589073 172.455042 
L 18.33217 172.455042 
L 18.19292 172.068226 
L 18.186963 171.682289 
L 18.070798 171.639212 
L 18.242812 171.323605 
L 18.514608 171.343825 
L 18.514608 171.197011 
L 18.048459 170.883162 
L 18.084202 170.343378 
L 18.446101 170.04975 
L 18.571202 170.015464 
L 19.095434 170.635248 
L 19.386591 170.770634 
L 19.576476 170.297664 
L 20.003904 170.669534 
L 20.257085 170.727557 
L 20.45665 170.59305 
L 20.03369 170.389093 
L 19.893696 170.297664 
L 19.893696 170.163157 
L 20.400802 169.822935 
L 20.769402 169.868649 
L 20.979393 169.775462 
L 21.423948 169.436119 
L 21.649576 169.413262 
L 21.540858 169.944254 
L 21.607131 170.975471 
L 21.524475 171.197011 
L 21.750104 171.250637 
L 22.4672 171.946906 
L 22.211041 171.049317 
L 22.563259 170.797008 
L 22.729316 170.194806 
L 22.841013 169.868649 
L 23.009303 169.735022 
L 23.415881 170.163157 
L 23.778525 169.868649 
L 24.263291 169.953046 
L 24.278928 169.708648 
L 24.328075 169.71744 
L 24.471792 169.868649 
L 25.051873 168.876115 
L 25.221652 168.52798 
L 25.429409 169.080951 
L 25.634932 168.908642 
L 25.944706 167.978526 
L 25.669186 167.269949 
L 25.408559 166.988629 
L 24.906666 166.154337 
L 24.611786 166.088402 
L 24.404029 165.724444 
L 24.361584 165.136307 
L 24.567107 164.867294 
L 24.872413 164.894547 
L 25.681845 165.742026 
L 25.972258 165.787741 
L 26.289478 166.006643 
L 25.176229 164.505973 
L 25.096552 163.941573 
L 25.288671 163.596076 
L 25.70195 163.734099 
L 25.664718 164.384654 
L 26.245543 164.736305 
L 26.226927 165.268177 
L 26.60223 164.825975 
L 26.690843 163.846628 
L 26.937321 162.902445 
L 27.127207 162.651015 
L 27.221032 162.356507 
L 27.607505 162.614091 
L 27.535274 162.34332 
L 27.164439 161.581117 
L 27.444427 160.913859 
L 27.419109 160.831221 
L 27.806326 160.929683 
L 27.973871 160.845287 
L 28.023018 160.043523 
L 28.05057 159.824621 
L 28.226307 159.932753 
L 28.443744 160.282646 
L 28.701392 159.814071 
L 28.935212 160.051435 
L 29.084141 160.536714 
L 29.04393 160.831221 
L 29.524973 161.55738 
L 29.84815 161.364851 
L 30.122181 161.123091 
L 30.202603 161.079135 
L 30.442379 160.194733 
L 30.730558 160.020666 
L 30.866829 159.798247 
L 30.71492 159.651432 
L 30.236856 159.355167 
L 30.866829 159.355167 
L 30.618116 158.912086 
L 30.984483 159.070329 
L 31.110329 158.863734 
L 31.085755 158.457578 
L 30.920443 158.352962 
L 30.838532 158.118235 
L 30.872786 157.867683 
L 31.05448 157.71999 
L 31.242131 157.746364 
L 31.351594 157.901969 
L 31.673282 158.592963 
L 31.770831 158.542853 
L 31.781256 158.32395 
L 31.679984 158.024168 
L 31.679984 157.424603 
L 32.450695 156.517344 
L 32.977906 156.622839 
L 33.14843 156.354705 
L 33.062795 156.115583 
L 33.29587 155.878218 
L 33.575858 155.799097 
L 34.283273 155.83602 
L 34.569218 155.720854 
L 34.751657 155.359533 
L 34.974307 155.621513 
L 35.176106 155.582832 
L 35.56928 155.064146 
L 35.158235 154.591176 
L 35.256528 152.395116 
L 35.392799 152.222807 
L 35.564068 152.221049 
L 35.942349 152.453138 
L 36.132234 152.677316 
L 36.400308 152.535776 
L 36.69072 152.746767 
L 37.296119 152.838196 
L 37.436113 152.614019 
L 37.087618 151.606539 
L 36.944645 151.348955 
L 37.121871 151.090491 
L 37.456963 151.121261 
L 38.386284 149.578392 
L 38.323733 149.578392 
L 38.392986 148.921684 
L 38.496492 148.764321 
L 38.835306 148.921684 
L 39.391558 148.533989 
L 39.643994 147.647829 
L 39.831645 147.68651 
L 40.396833 148.104096 
L 40.230032 147.268046 
L 40.374494 146.596393 
L 40.770646 145.878146 
L 40.955319 145.028909 
L 41.147438 144.844292 
L 41.542846 144.672862 
L 41.690287 144.475059 
L 41.65231 144.108463 
L 41.874215 144.119012 
L 42.463976 143.665382 
L 42.843746 143.583624 
L 42.907786 142.913729 
L 43.015015 142.867135 
L 43.271919 142.935707 
L 43.432763 142.684276 
L 43.531801 142.309768 
L 44.06348 141.968667 
L 44.210175 141.436795 
L 44.163263 141.06844 
L 44.336021 140.914593 
L 44.416443 139.853487 
L 44.742599 139.002491 
L 44.843871 138.770402 
L 44.951845 138.720292 
L 45.224386 138.327322 
L 45.767234 137.92644 
L 45.911696 137.590613 
L 45.786595 137.148412 
L 46.012968 136.780058 
L 46.292211 136.557639 
L 45.841699 136.036316 
L 46.0085 135.953678 
L 46.207321 135.980052 
L 47.030157 136.386209 
L 47.107601 136.161152 
L 46.979521 135.879831 
L 47.051752 135.50884 
L 47.225255 135.401586 
L 47.610238 135.376971 
L 47.652683 134.95499 
L 47.989264 134.729933 
L 49.122618 134.57169 
L 50.932112 133.594101 
L 51.092956 133.678497 
L 51.447409 134.3396 
L 51.590381 134.241138 
L 51.711014 134.423997 
L 51.778777 134.840703 
L 52.056531 135.255651 
L 52.437791 135.512356 
L 52.350667 135.513235 
L 52.125038 135.66005 
L 52.440025 135.795435 
L 53.379026 135.436751 
L 53.284455 134.840703 
L 53.437108 134.023115 
L 53.247968 133.740915 
L 53.005212 133.888608 
L 52.272479 133.363769 
L 52.110146 133.150141 
L 51.859199 132.482884 
L 51.999938 132.253431 
L 51.93143 132.118925 
L 52.087061 132.034529 
L 53.177226 132.322003 
L 53.717096 132.8697 
L 53.922619 132.934755 
L 54.074527 132.844205 
L 54.123674 132.547939 
L 53.657524 130.800234 
L 53.505616 130.409902 
L 53.391685 129.869238 
L 53.03053 129.457807 
L 51.999938 129.156266 
L 52.13174 128.445931 
L 52.559913 127.932521 
L 52.679057 127.405924 
L 52.625442 127.078009 
L 52.738628 127.09735 
L 52.959044 127.031416 
L 53.061806 126.928558 
L 52.999255 126.895151 
L 52.811604 126.782623 
L 52.936705 126.339542 
L 52.625442 126.191849 
L 52.757245 125.972067 
L 52.909153 124.768542 
L 52.874154 124.704366 
L 52.959044 124.670959 
L 53.130313 124.408979 
L 52.500341 123.671391 
L 52.627676 123.594907 
L 53.005212 123.510511 
L 53.317965 122.932924 
L 53.217437 122.571603 
L 53.347006 121.772476 
L 53.284455 121.370715 
L 52.752777 120.485434 
L 51.86888 119.674 
L 51.207632 119.707406 
L 50.917964 119.041907 
L 50.744461 118.561024 
L 50.62085 118.494211 
L 50.392987 118.561024 
L 50.110021 118.28322 
L 49.490474 118.346517 
L 48.776357 117.589589 
L 48.413713 117.523654 
L 48.054793 117.576402 
L 47.734594 117.757502 
L 47.382376 118.147835 
L 47.098665 118.101241 
L 47.055475 117.895525 
L 46.951224 116.813319 
L 46.258702 116.342107 
L 45.992118 115.731993 
L 45.951907 115.334627 
L 46.179769 114.369346 
L 47.048029 112.567135 
L 47.389077 112.401859 
L 47.417374 112.124055 
L 47.270678 112.299001 
L 46.542413 112.788675 
L 46.511138 113.15615 
L 46.287743 113.372415 
L 45.662239 114.631326 
L 44.854296 114.780777 
L 44.618987 115.21067 
L 44.182623 114.995284 
L 43.812533 114.497698 
L 43.457336 114.342972 
L 43.095437 114.055497 
L 43.213836 114.672645 
L 43.150541 114.944295 
L 42.970337 115.088472 
L 42.802046 115.004955 
L 42.49823 114.4555 
L 42.407383 114.055497 
L 42.410283 113.664673 
L 42.053753 113.057301 
L 41.851373 112.199836 
L 41.416349 111.350185 
L 41.421078 110.545195 
L 41.001186 109.023417 
L 40.600208 108.461822 
L 39.902279 106.744099 
L 38.952793 106.407477 
L 38.627472 106.127238 
L 38.391046 105.76047 
L 37.858615 103.62518 
L 37.84443 103.173001 
L 37.959805 102.368569 
L 37.857669 101.462536 
L 37.642049 100.79934 
L 37.734728 100.311433 
L 37.957914 99.983743 
L 38.454408 99.699595 
L 38.454408 99.3546 
L 39.140988 98.814218 
L 39.155174 98.574172 
L 39.834188 98.049421 
L 39.938216 97.347148 
L 39.923084 96.227306 
L 40.029003 95.396637 
L 39.93065 94.001022 
L 40.558597 93.079917 
L 40.907561 93.020743 
L 40.926475 92.671839 
L 40.305148 91.022781 
L 39.012373 88.858462 
L 38.570729 88.597203 
L 38.022222 87.549375 
L 37.901172 87.015692 
L 37.785796 86.372035 
L 37.692171 86.273784 
L 37.016939 84.88096 
L 37.319564 84.271914 
L 37.391438 83.996141 
L 37.224994 83.910171 
L 37.176763 83.75777 
L 37.279845 82.996323 
L 37.458583 82.807077 
L 38.494127 82.360481 
L 38.748521 81.997621 
L 38.953739 81.327168 
L 38.640711 81.139039 
L 38.748521 80.030363 
L 38.76649 79.543572 
L 38.451571 79.298502 
L 37.828353 79.194669 
L 37.205134 78.818969 
L 36.832527 78.85358 
L 36.470323 79.008773 
L 36.130816 79.030544 
L 35.824408 78.658753 
L 35.710924 78.129536 
L 36.02868 77.331802 
L 36.199852 76.888555 
L 36.096771 76.628413 
L 36.82969 75.936188 
L 36.729446 75.079839 
L 36.438169 74.15985 
L 36.154458 70.9678 
L 36.168644 69.938395 
L 36.329413 69.559904 
L 36.637713 69.322091 
L 37.285519 69.109958 
L 37.585307 68.88331 
L 37.815113 68.464626 
L 37.823624 68.085019 
L 37.649615 67.809245 
L 37.014102 67.590413 
L 35.949241 66.488436 
L 35.19457 65.718057 
L 35.16147 65.534952 
L 34.56946 63.86803 
L 34.254541 63.881428 
L 33.280467 64.37715 
L 33.135775 63.884777 
L 33.226562 63.152359 
L 33.045933 61.954363 
L 32.511611 61.282235 
L 32.242086 60.57103 
L 30.884056 59.741477 
L 30.622096 59.428859 
L 30.010227 58.482074 
L 29.464556 58.685276 
L 28.501831 57.782034 
L 28.174617 57.833393 
L 27.785933 57.587765 
L 27.384955 57.546454 
L 26.794837 57.252817 
L 26.036383 57.154566 
L 26.009903 56.894423 
L 25.387631 56.72695 
L 23.274931 56.707969 
L 22.950554 56.36409 
L 22.877735 56.009045 
L 22.725477 55.856086 
L 22.28478 55.197356 
L 21.87529 54.737362 
L 20.208962 54.311978 
L 20.023604 53.635384 
L 19.517653 53.326116 
L 18.702457 52.594814 
L 17.9998 52.419525 
L 17.595985 51.966229 
L 16.995463 50.726924 
L 16.218096 50.610809 
L 15.987344 50.239017 
L 15.446402 49.356988 
L 14.124309 48.229332 
L 12.601728 47.6856 
L 12.407859 47.424341 
L 12.43623 46.984444 
L 12.712375 46.857164 
L 12.862742 46.509935 
L 12.865579 46.122512 
L 12.65185 45.825525 
L 12.219664 45.704944 
L 11.591717 45.165679 
L 10.494702 45.016069 
L 10.016176 44.623064 
L 10.871091 43.274342 
L 11.125485 43.153761 
L 14.118635 44.616365 
L 14.370192 44.462289 
L 14.895057 43.515504 
L 13.771562 41.493538 
L 14.193346 40.43622 
L 14.364518 40.234135 
L 16.333471 39.112061 
L 19.309598 39.54526 
L 19.529947 39.721666 
L 22.825722 45.148932 
L 24.210231 46.624933 
L 24.446656 47.386381 
L 25.151205 48.488358 
L 26.01274 49.240873 
L 26.358868 51.611185 
L 26.537606 51.672592 
L 27.831327 51.310849 
L 28.072481 51.357741 
L 30.407422 52.415059 
L 31.941352 52.177246 
L 32.418932 52.30341 
L 32.661032 52.53564 
L 33.369363 53.582909 
L 33.572689 53.661064 
L 36.171481 52.200693 
L 37.635429 51.998608 
L 38.488453 51.556477 
L 38.792024 50.681147 
L 38.967925 49.734363 
L 39.566554 49.36927 
L 40.265429 49.379318 
L 42.115224 50.244599 
L 42.624958 50.927892 
L 43.957453 51.703854 
L 46.985594 52.622726 
L 47.815921 53.232331 
L 48.506284 54.177999 
L 48.960221 55.026533 
L 49.197593 54.980757 
L 49.398082 54.690469 
L 49.624105 53.941303 
L 49.89363 53.724704 
L 50.128165 53.735869 
L 51.277194 53.021314 
L 51.385004 52.581416 
L 51.280031 52.264333 
L 51.374601 51.977394 
L 51.43418 50.493577 
L 51.554284 50.062611 
L 51.907032 49.456356 
L 54.035809 47.917831 
L 54.467049 47.834094 
L 55.809475 48.127731 
L 56.027932 47.925646 
L 56.711675 46.651729 
L 56.963232 45.875768 
L 57.347188 45.553101 
L 57.395418 45.124369 
L 57.066314 44.471221 
L 56.922567 43.992246 
L 57.010517 43.636085 
L 56.976472 41.961348 
L 56.782603 41.274706 
L 56.810974 40.69413 
L 57.26302 38.65095 
L 58.093347 37.39713 
L 57.764243 36.382239 
L 58.17846 35.573899 
L 58.228583 34.802404 
L 58.35909 34.565707 
L 58.17846 34.154839 
L 58.302348 33.913676 
L 58.851801 33.554166 
L 59.089172 33.192423 
L 59.251833 32.72238 
L 59.262236 32.211027 
L 58.865041 31.310018 
L 59.044724 30.827694 
L 59.262236 30.515076 
L 59.508119 30.356534 
L 61.029755 29.951248 
L 61.669996 29.025676 
L 62.114476 28.234084 
L 63.046939 27.354288 
L 63.313627 26.913274 
L 63.203926 26.520269 
L 63.796881 25.567902 
L 64.100452 25.418292 
L 65.684504 25.206158 
L 66.278406 25.350186 
L 67.126701 25.140843 
L 67.411358 25.221789 
L 67.918255 25.528266 
L 68.434608 25.478582 
L 69.28385 25.925737 
L 71.218758 25.326739 
L 71.590419 24.911404 
L 71.523274 24.867303 
L 71.322785 24.67415 
L 71.560157 24.423498 
L 71.851433 24.359299 
L 72.43966 23.733506 
L 73.520126 23.293608 
L 73.589635 22.919583 
L 73.970753 22.46238 
L 74.45117 22.327843 
L 75.614385 22.529928 
L 76.298128 22.176 
L 76.576165 22.275926 
L 76.576165 22.275926 
" clip-path="url(#p3d0a97bc87)" style="fill: none; stroke: #000000; stroke-width: 2"/>
   </g>
  </g>
 </g>
 <defs>
  <clipPath id="p3d0a97bc87">
   <rect x="0" y="-0" width="120.194111" height="266.112"/>
  </clipPath>
 </defs>
</svg>
