<?xml version="1.0" encoding="utf-8"?>
<!-- Generator: Adobe Illustrator 23.0.1, SVG Export Plug-In . SVG Version: 6.00 Build 0)  -->
<svg version="1.1" xmlns="http://www.w3.org/2000/svg" xmlns:xlink="http://www.w3.org/1999/xlink" x="0px" y="0px"
	 viewBox="0 0 800 600" style="enable-background:new 0 0 800 600;" xml:space="preserve">
<style type="text/css">
	.st0{fill:none;stroke:#000000;stroke-width:0.5;stroke-linecap:round;stroke-linejoin:round;}
	.st1{font-family:'Roboto-Regular';}
	.st2{font-size:14px;}
</style>
<g id="Fiji">
	<path class="st0" d="M356.508,390.83h0.388l-0.154,0.482l-0.524,0.908l-0.144,0.426l-0.032,0.961l0.032,0.62l-0.245,0.911
		l-0.627,0.896l-0.723,0.736l-0.601,0.442l-3.192,1.608l-1.536,1.569v-1.363l-1.822,0.767l-0.766,0.135l0.738-1.086l0.077-0.27
		l-0.347-0.626l-0.266-0.095l-0.326-0.034l-0.549-0.399l-0.62-0.083l-1.813,0.958l-0.805,0.279l0.139,1.356l-1.107,0.85
		l-1.379,0.377l-0.672-0.065l0.067-0.995l0.071-0.368l-0.111-0.205l-1.043-0.995l-0.541-0.301l-0.627-0.141l-0.832,0.034
		l0.169,0.291l0.049,0.025l0.174,0.135l-0.307,0.629l-0.348,0.377l-0.461,0.227l-0.601,0.123l0.03-0.163l-0.212-0.306l-0.328-0.301
		l-0.354-0.132l-0.433,0.092l-0.751,0.291l-0.35,0.065l-0.504,0.224l-0.38,0.485l-0.478,0.485l-0.783,0.218l-0.802,0.042
		l-0.453,0.141l-0.33,0.27l-0.373,0.405l-0.253,0.421l-0.333,0.988l-0.277,0.405l-0.549,0.325l-1.298,0.491l-0.549,0.334
		l-1.817,2.173l-1.081,0.973l-1.169,0.283h-0.528l-0.371,0.448l-1.416-1.329l-4.677,1.691l-2.053-0.362l-0.942-0.036l-0.391-0.098
		l-0.433-0.313l-0.407,0.399l-0.764,0.466l-0.882,0.199l-0.74-0.391l-0.822-0.144l-0.942,0.571l-0.762,0.255l-0.318-1.135
		l-0.206-0.292l-0.461,0.135l-0.502,0.326l-0.32,0.285l-0.38,0.197l-0.36-0.181l-1.208-1.089l-0.197-0.451l-0.266-0.362
		l-2.763-0.748l-5.349-1.449l-1.611-0.224l-1.768-0.457l-3.366-1.621l-1.515,0.228l-1.941-0.881l-0.755-0.097l-3.182,0.162
		l-0.588-0.092l-0.686-0.298l-0.42-0.39l-0.32-0.39l-0.337-0.279l-4.447-1.124l-1.939-0.895l-1.407-2.103l-0.433,0.491l-0.288-0.69
		l-0.039-1.317l-0.099-0.752l-0.214-0.361l-0.303-0.319l-0.268-0.485l-0.114-0.875l-0.298-0.349l-1.144-0.654l-0.03-0.35
		l0.251-0.604l-0.275-0.534l-0.436-0.568l-0.221-0.702l0.185-0.507l0.839-1.154l0.268-0.681l-0.039-0.841l-0.298-0.519l-0.33-0.469
		l-0.159-0.663l0.418-1.31l1.038-0.519l2.855-0.209l1.693-0.659l0.461-0.249l0.626-0.758l0.092-0.546l-0.141-0.492l-0.111-0.684
		v-2.309l0.088-0.856l0.253-0.144l0.414,0.178l2.218,0.642l0.474-0.043l0.68-0.598l0.062-0.46l-0.208-0.445l-0.144-0.553
		l-0.062-0.737l-0.268-1.294l-0.06-0.657l-0.185-0.613l-0.463-0.279l-0.586-0.233l-0.521-0.5l-0.427-1.489l0.832-0.659l1.154-0.546
		l0.586-1.17l0.29-0.445l1.403-0.346l0.541-0.31l0.245-0.771l-0.118-0.727l0.019-0.663l0.678-0.598l0.719,0.829l0.626-0.203
		l0.279-0.743l-0.294-0.785l0.448-0.982l0.552-0.844l0.586-0.286l0.564,0.752h0.39l2.633-2.25l2.575-1.55l0.184-0.258l0.199-0.151
		l0.047-0.301l0.139-0.313l0.495-0.141l0.405,0.071l0.457,0.156l0.23,0.15l-0.23,0.077l-0.365,0.516l0.206,1.169l0.451,1.228
		l0.371,0.694l0.39-0.406l-0.39-0.838l-0.249-0.77l-0.015-0.755l0.264-0.838l0.472-0.365l2.115-1.197l0.38-0.159l2.437,0.817
		l0.326-0.356l0.141-0.768l0.298-0.776l0.288-0.322l0.513-0.258l0.423-0.295l0.438-0.248l1.287-0.236l0.245-0.319l0.161-0.322
		l0.715-0.307l0.283-0.171l0.212,0.162l0.077,0.85l-0.052,0.721l-0.165,0.635l-0.277,0.589l-0.41,0.556l1.015,0.273l0.86-0.537
		l0.785-0.865l0.862-0.713l1.345,0.9l1.847,0.199l1.869-0.228l1.397-0.387l1.817-0.871l0.77-0.55l0.672-0.644l0.77-0.565
		l1.495-0.065l0.976-0.5l2.043,0.322l2.351-0.421l1.879-1.159l0.586-1.9l1.358,0.476l1.731,0.817l1.489,1.027l0.633,1.066
		l0.178,0.789l0.687,1.322l-0.009,0.856l-0.427,0.712l-1.586,1.615l-0.568,0.801l0.672,0.377l0.127,0.516l-0.272,0.531l-0.528,0.383
		l0.834-0.156l1.725-2.038l1.12-0.518l1.5,0.169l1.315,0.481l1.025,0.848l0.702,1.215l0.095,0.559l-0.187,0.77l0.092,0.47
		l0.234,0.116l1.137,0.997l0.154,0.243l0.234,0.224l2.643,1.82l0.637,0.089l0.661-0.018l0.8,0.147l1.105,0.791l1.686,2.363
		l0.459,0.494l1.365,0.163l1.33,0.472l1.126,0.862l0.725,1.262l0.062,1.627l-0.654,1.251l-0.781,1.099l-0.401,1.2l-0.109,0.632
		l-0.199,0.583l-0.101,0.559l0.215,0.506l0.493,0.439l1.171,0.834l0.303,0.314l0.045,0.785l-0.217,0.725l-0.047,0.669l0.603,0.571
		l0.77-0.304l0.414,0.224l-0.056,0.479l-0.656,0.463l0.76,0.314l0.446,0.506l0.062,0.682l-0.406,0.806l-0.236-0.15l-0.626-0.301
		l0.129,0.313l0.3,1.089l-1.995,0.485l0.24,1.887l1.15,2.05l0.824,0.961l1.236,0.12l0.539,0.347l0.337,0.565l0.68,0.782l0.236,0.369
		l0.024,0.291l0.154,0.178l0.672,0.065l0.391-0.163l0.337-0.405l0.258-0.451L356.508,390.83z M345.231,449.654l0.32-1.074
		l-0.961-0.205l-1.292,0.374l-0.648,0.675l-0.137,0.48l-0.586,0.997l-0.139,0.794l1.725,1.182l0.569,0.104l0.339-0.7l0.429-0.654
		l0.847,0.295l0.234-0.672l0.039-0.549l-0.215-0.516L345.231,449.654z M342.65,455.558l-0.693-0.301l-2.298-0.396l-0.494,0.039
		l-0.481-1.037l-2.075-0.105l-0.457-0.883l-0.672,0.365l-0.534-0.04l-0.534-0.205l-0.631-0.12l-0.519,0.141l-0.287,0.316
		l-0.227,0.303l-0.288,0.151l-0.961,0.065l-0.435,0.301l-0.519,1.903l-1.755-0.701l-2.512,0.139l-2.231,0.871l-0.899,1.473v1.206
		l-0.274,1.2l-0.558,0.581l-0.852-0.663l-0.652,0.522l-0.187,0.651l-0.094,0.654l-0.397,0.496l-0.579,0.098l-3.548-0.933
		l-0.725,0.022l-0.667,0.317l-0.487,0.705l-0.234,1.454l-0.656,0.565l-1.253-0.5l-1.137,0.43l-1.912,1.896l0.723,0.565l0.715,0.445
		l0.642,0.154l0.496-0.288h0.433l0.302,0.985l0.738-0.105l1.373-0.88l0.822,0.147l1.633,0.651l0.983,0.154l0.942-0.163l0.455-0.414
		l0.337-0.586l0.601-0.663h0.899l0.332-0.141l0.923-0.77l-0.169,1.728l0.094,0.58l0.539,0.43l0.554,0.034l0.56-0.283l0.429-0.448
		l0.182-0.482l0.122-1.69l-0.283-0.565l-0.933-0.218l-0.448-0.303l-0.139-0.706l0.215-0.755l0.601-0.464l0.307,0.98l0.107-0.326
		l-0.017-1.402l0.313-0.685l0.77-0.156l0.991-0.015l0.98-0.261l2.71-2.237l1.63-0.684l1.68,0.638l-0.245,0.187l-0.307,0.423
		l-0.296,0.304l0.42,0.248l0.36,0.098l0.41-0.07l0.566-0.276l-0.124,0.454l-0.155,0.923l-0.154,0.445l1.068-0.27l1.525-0.055
		l1.418,0.111l0.734,0.214l0.534-0.313l0.242-0.42l-0.028-0.495l-0.281-0.595l1.247,0.227l0.629,0.197l0.45,0.39l0.923-0.629
		l1.326-0.662l0.111-1.102l-0.33-1.236L342.65,455.558z M318.877,418.158l1.15,0.795l0.97-0.236l0.646-0.964l0.215-1.412
		l-0.375-1.217l-0.702-0.605l-0.715,0.193l-0.333,1.176l-0.047,0.405l-0.009,0.334l-0.067,0.298l-0.26,0.325l0.292,0.391l0.06,0.233
		l-0.23,0.156L318.877,418.158z M396.891,391.285l-0.549-0.626l-1.532-2.778l-0.953-0.632l-0.849-0.107l-0.405-0.154l-0.337,0.034
		l-1.379,1.111l-0.435-0.022l-0.672-0.408l0.146,0.657l0.586,1.025l0.129,0.313l-0.067,1.906l0.264,1.894l0.285,0.466l0.562-0.163
		l0.178-0.454l-0.174-1.35l0.245-0.713l0.303,1.124l0.418,0.789l1.201,1.512l0.371,0.783l0.481,1.829l0.635,0.801l1.849,1.127
		l0.8-2.59l-0.131-3.569L396.891,391.285z M402.05,379.012l-0.199-0.435l0.337-0.377l0.088-0.19v-0.298l-1.079-0.332l-1.071-0.574
		l-0.313,0.841l0.204,0.884l0.483,0.81l0.487,0.627l0.405,1.154l0.365,0.334l0.519-0.626l0.094-0.549l-0.114-0.654L402.05,379.012z
		 M290.311,425.708l-0.116-0.859l-0.335-0.746l-0.236-0.082l-0.204-0.043l-0.21-0.086l-0.212-0.245l-0.903,1.203l-0.112,0.519
		l0.165,1.006l0.337,1.112l0.603,1.267l0.772,1.099l0.907,0.613l-0.433-3.179L290.311,425.708z M376.741,365.566l-0.401-0.645
		l-0.811-0.506l-0.521,0.258l-0.075,0.721l0.504,0.884l0.648,0.454l0.476,0.479l0.365,0.586l0.279,0.786h0.466l-0.169-0.936
		L376.741,365.566z M358.816,374.769l-1.019-1.648l-0.79-0.908l0.395,1.249l0.961,2.498l0.828,0.156l0.302,0.411l0.41,0.093
		l0.427-0.307l0.429,0.494l0.187-0.258l0.094-0.214l0.152-0.476l-1.06-0.27L358.816,374.769z M257.3,342.021l-0.785,0.065
		l-1.654-0.672v0.488l0.714,0.464l-0.079,0.7l-0.287,0.902l0.118,1.096l0.661,0.648l0.802-0.233l0.832-0.789l0.893-1.301
		l0.077-0.298l0.184-0.239l0.433-0.083l-0.862-1.353L257.3,342.021z M266.572,331.453l0.521-0.608l0.303-0.848l-0.024-0.914
		l-0.408-0.783l-0.626,1.814l-0.236,0.442h-0.393l-0.281-0.322l-0.74-1.203l-0.075-0.279l-0.502,0.218l-1.407,1.123l-0.444,0.464
		l-0.219,0.623l-0.097,0.74l-0.234,0.628l-0.56,0.258l-0.476,0.353l-0.105,0.813l0.122,0.902l0.244,0.639l-0.215,0.027l-0.684-0.027
		V336l1.755,0.414v-0.81l0.236-0.601l0.448-0.457l0.611-0.387l0.195,0.38l0.187,0.172l0.208,0.125l0.279,0.224l0.23-1.08l1.894-1.32
		L266.572,331.453z M277.042,314.577l0.478-0.353l0.292-0.372l0.23,0.172l0.626,0.279l0.5-1.142l0.893-0.952l3.976-3.216
		l0.268-0.337l0.206-0.581l1.03-0.755l0.448-0.706l0.416-1.169l-0.178-0.906l-0.71-0.531l-1.212-0.085l0.745,1.488l-0.877,1.449
		l-2.883,2.455l-2.371,2.498l-1.186,0.59l-0.792-0.804h-0.429l-0.052,0.675l-0.38,1.62l-0.039,0.408l0.472,0.371L277.042,314.577z
		 M330.323,314.304l1.083-0.451l1.661,0.086l0.122-0.245l-0.35-0.73l0.245-1.363l-1.74,0.034l-0.738-0.12l-0.528-0.353h-0.397
		l0.185,2.348L330.323,314.304z M440.751,288.79l-0.359,0.696l-1.682,1.203l-0.531,0.912v-0.006l-0.011,0.025l-0.001,0.002v0.001
		l-0.04,0.091l-0.759,1.778l-0.174,0.779l0.009,0.531l0.187,0.273l0.317,0.05l0.423-0.113l0.049-0.009v-0.017l3.014-1.183
		l1.086-0.804l0.81-0.878l-0.402-0.418l-0.546-0.279l-0.028-0.62l0.261-0.623l0.313-0.276l0.549-0.043l0.338-0.101l0.276-0.135
		l0.384-0.123v-0.488l-0.39-0.341l-0.077-0.258l0.264-0.194l0.592-0.116v-0.439l-0.893,0.117l-2.473,0.755L440.751,288.79z
		 M397.882,281.811l1.025-0.113l0.772-0.356l-0.822-0.31l-0.903-0.151h-2.158v0.461l0.989,0.353L397.882,281.811z M347.769,298.367
		l0.455,0.114l1.165,0.095l0.863-0.255l0.607-0.524l0.429-0.709l-0.554,0.332l-0.543,0.129l-0.534-0.108l-0.534-0.353l-1.757,0.942
		l0.206,0.236L347.769,298.367z M257.079,31.704l-0.273-1.004l-0.856-0.352h-2.27L252.704,30l-1.688,1.04l-0.764,0.144l-0.946-0.264
		l0.047,0.338l0.305,0.952l0.989-0.141l1.04,0.077l1.008,0.227l0.871,0.317l1.114-0.034l1.424-0.319L257.079,31.704z
		 M273.701,320.693l0.174,0.36l0.457-0.375l0.369-0.436l0.303-0.475l0.206-0.516l-0.811-0.451l0.584-0.745l1.942-1.546l-0.976-0.326
		l-1.264-0.12l-0.787,0.335l0.448,1.012l-1.51,0.801l-0.367,0.611l0.789,1.29L273.701,320.693z M403.376,341.666l-0.659-0.482
		l-0.543-0.043l-0.601,0.172l-2.589,0.375l-0.459,0.687l0.045,0.893l-0.206,0.887l0.474,0.908l0.315,0.97l0.137,1.058v3.922
		l0.466,0.375l1.699-1.36l0.95-1.144l0.661-1.305l0.412-1.488l0.129-1.704l-0.243-2.323L403.376,341.666z M364.386,369.217
		l-0.283-0.906l-0.564-1.531l-1.191-0.685l-0.963,0.286l-0.393,0.393l-1.596,0.96l-0.74,1.983l0.835,2.627l0.352,1.12l0.624,1.144
		l1.073-0.46l0.796-0.283l1.588-0.454l0.399-0.678l0.228-0.74l0.17-0.963l-0.227-0.908L364.386,369.217z M518.858,569.156
		l-0.215-0.558l-0.046-0.583l-0.338,0.522l-0.046,0.51l0.239,0.479l0.516,0.423l0.51,0.052l0.181-0.031l-0.451-0.346
		L518.858,569.156z M515.964,404.057v-0.003l-1.455-1.264l-2.216,1.129l-1.295,1.875l1.301,0.976l0.285,0.147l0.384,0.307
		l0.479,0.319l0.577,0.141h2.154l0.724-0.492l0.387-1.12l-0.218-1.221L515.964,404.057z M528.602,467.968l-0.985-0.918l-0.414-0.969
		l0.829-0.151l0.571,0.022l0.424-0.135l0.368-0.647l-1.755,0.156l-0.976,1.135l-0.203,1.283l0.546,0.62l2.259,1.2l1.191,0.147
		l0.233-1.347l-0.93,0.154L528.602,467.968z M425.191,467.766l-0.348-1.173l-0.697-0.512l-1.32,0.328l0.077,0.814l0.633,1.037
		l0.391,1.019l-0.307-0.14l-0.708-0.191l-0.317-0.125l-0.217,0.509l-0.032,0.12l-0.112,0.043l-0.455,0.236l0.118,0.586l0.257,0.26
		l0.912,0.148l0.74-0.067l1.884-0.473l-0.283-1.059L425.191,467.766z M507.095,448.819l-0.77,0.574l-0.7,0.628l0.506,0.151
		l0.488-0.022l0.482-0.166l0.476-0.295l0.371-0.325l0.331-0.362l0.295-0.402l0.252-0.435l-0.89,0.224L507.095,448.819z
		 M504.806,452.975l-0.902,0.101l-0.706,0.985l-0.193,1.497l0.669,1.442l1.077,0.034l0.85-1.059l-0.015-1.82L504.806,452.975z
		 M547.742,384.822l-1.145-0.832l-0.761-0.399l-2.82,0.215l-1.255,1.878l0.347,2.084l1.97,0.841l1.436,0.322l1.706-0.108
		l1.424-0.604l0.601-1.212l-0.46-1.108L547.742,384.822z M550.221,512.878l-0.335,0.457l-0.101,0.414l0.236,0.322l0.427-0.813
		l0.154-0.402l0.092-0.449L550.221,512.878z M539.026,466.793l-1.178,2.268l-0.138,0.423l0.018,0.162l0.181,0.163l0.595-0.457
		l0.617-0.052l0.482-0.349l0.169-1.292l-0.23-1.261L539.026,466.793z M532.836,433.475l-0.749,0.282l-0.328,0.802l0.577,1.012
		l0.571,0.049l0.494-0.346l0.267-0.596l-0.123-0.693L532.836,433.475z M504.637,342.331l1.185-0.43l0.095-0.359l0.964-2.161
		l-0.418-0.878l-0.985-0.644l-2.004-0.961l-1.307-0.07l-0.724-0.645l-0.577-0.751l-0.878-0.372l0.089,0.516l0.092,1.294l0.252,0.485
		l0.589,0.316l1.372,0.258l0.623,0.322l0.749,0.531l0.123,0.39l-0.009,0.887l-0.276,0.359l-0.491,0.237l-0.325,0.399l0.23,0.847
		l-0.832,0.733l-0.78,1.276l-0.187,1.28l0.936,0.733l0.307-1.228l0.948-1.316L504.637,342.331z M431.876,302.167l-1.06,0.353h2.158
		l1.154-0.096l0.738-0.632l0.328-1.061l-0.062-1.35l-0.423,0.718l-0.658,0.417l-0.708,0.206l-0.583,0.051l-0.249,0.206l0.045,0.93
		l-0.229,0.214L431.876,302.167z M434.611,428.325l-0.995,0.111l-2.489,0.596l-2.381,0.93l-1.249,0.558l0.154,0.728l1.251,0.718
		l0.479,0.666l0.697,0.519l0.039,1.138l0.665,1.105l1.139-0.261l0.067-1.363l1.206-1.031l-0.223-0.743l-0.296-0.003l-0.877,0.402
		l-0.442-0.522l1.129-0.914l0.697-0.657l1.506-0.362l0.489-0.804l-0.272-0.334L434.611,428.325z M446.41,314.712l0.178-0.589
		l0.623-1.17l2.249-2.237l0.335-0.509l-0.331-0.58l-0.574-0.481l-0.78-0.488l-0.031-0.691l-0.23-1.116l-0.58-1.86l-0.528-0.771
		l-0.825-0.229l-1.292,0.374l-1.151,0.725l-4.668,5.048l-0.626,1.005v-0.069l-0.049,0.098l-1.365,2.725l-0.288,1.096l-0.36,0.89
		l-2.279,3.37l-1.51,1.157l-0.755,0.802l-0.324,0.969l0.258,0.899l1.148,1.026l0.318,1.04l0.71,0.22l0.779-0.018l0.809-0.202
		l0.815-0.36l0.908-0.596l0.693-0.613l0.427-0.687l0.051-0.097v0.066l1.08-2.092l2.001-1.744l3.851-2.513l0.546-0.218l0.387,0.065
		l0.236-0.108L446.41,314.712z M429.215,308.866l0.363,0.853l0.764,0.307l0.906-0.709l0.354,0.202l0.938,0.28l-0.223-0.396
		l-0.451-1.04l-0.227-0.396l1.905,0.749l0.97,0.199l0.616-0.457l-0.125-1.028l-0.893-0.639l-1.139-0.251l-0.862,0.076l-0.169-1.512
		l-0.581-1.237l-1.068-0.767l-1.663-0.128l1.322-1.747l0.258-0.065l0.79,0.129l0.245-0.065l0.062-0.301l-0.107-0.783l0.045-0.31
		l2.156-4.051l0.751-1.872l0.346-0.537l0.465-0.491l0.275-0.624l-0.697-1.562v-0.552l-0.183-0.273l-0.957,0.034l-0.451,0.202
		l-0.287,0.36l-0.232,0.423l-0.322,0.362l-3.327,1.595l-0.586,0.43l-0.538,1.007l-1.206,1.05l-2.096,1.359l-0.981,0.329
		l-0.547,0.316l-0.236,0.47l-0.202,0.561l-0.487,0.258l-0.627,0.187l-0.596,0.344l-0.41,0.595l-0.65,1.624l-0.466,0.748
		l-0.249,0.129l-0.779,0.171l-0.268,0.096l-0.112,0.252l-0.215,0.895l-0.101,0.258l-0.581,0.224l-0.715,0.129l-0.611,0.331
		l-0.245,0.881L415,306.122l-0.659,0.503l-0.792,0.322l-0.641,0.117l-0.893,0.322l-1.433,1.673l-0.908,0.74l-0.693-0.884
		l-1.062-0.199l-1.154,0.334l-1.004,0.749l-0.466-0.482l0.639-0.982l0.214-1.236l-0.214-1.148l-0.639-0.687l0.35-0.267l1.036-0.39
		l0.375-0.243l0.764-1.212l0.311-0.406l0.682-0.558l1.616-1.05l0.717-0.589l0.483-0.933l0.125-1.08l-0.022-1.035l0.099-0.81
		l0.337-0.926l0.26-0.497l0.388-0.365l6.052-4.112l1.386-0.439l1.427-0.748l1.573-1.74l1.113-1.958l-0.008-1.43l1.085-0.77
		l2.525-3.649l0.826-1.519l0.5-0.304l-0.058-0.239l0.451-0.538l0.899-0.813l0.433-0.5l0.579-1.038l0.513-0.497l0.524-0.208
		l1.124-0.055l0.509-0.187l3.845-3.576l0.051-0.047v0.032l1.332-0.451l1.08-0.527l0.838-0.823l0.623-1.375l-2.17,0.641l-0.918,0.466
		l-0.786,0.721h-0.061h-0.989l-4.576,2.02l-0.461,0.577l-2.218,1.798l-0.77,0.994l-0.322-0.208l-0.71,0.008l-0.682-0.251
		l0.493-0.317l0.298-0.392l-0.109-0.38l-0.682-0.221l-0.905,0.221l-1.352,1.233l-0.762,0.306l-0.519-0.77l-0.127-1.504l-0.397-0.994
		l-1.871,1.086l-1.542,0.647l-0.318,0.411l-0.215,0.593l-0.524,0.178l-1.201-0.098l-0.242-0.08l-0.199-0.16l-0.262-0.159
		l-0.435-0.05l0.002,0.209l-0.03,0.482l-0.169,0.479l-0.39,0.214l-0.442-0.065l-0.384,0.022l-0.249,0.365v1.022l-0.332-0.702
		l-0.376-0.375l-0.466,0.05l-0.551,0.577l-0.618-0.423l-0.701-0.246l-0.566-0.361l-0.305-0.798l-0.307,0.863l-0.556,2.313
		l-0.341-0.794l-0.408-0.642l-0.569-0.387l-0.832-0.007l0.968,1.16l-0.882,0.365l-2.244-0.181l-0.938,0.577l-0.277,0.844
		l-0.107,1.037l-0.436,1.136l-0.944-0.639l-0.747,0.58l-0.553,1.17l-0.303,1.123l-0.586-0.319l-0.68-0.08l-0.71,0.23l-0.654,0.62
		l0.654,0.438l0.586,0.749l0.393,0.93l0.097,0.985l-0.444-0.151l-0.258,0.022l-0.275,0.077l-0.532,0.052l-0.476-0.203l-0.401-0.893
		l-0.442-0.209l-0.789,0.375l-0.504,0.669l-0.566,0.261l-0.952-0.814l-1,0.891l-1.8-0.228l-1.854-0.497l-1.139,0.059l-0.38,0.227
		l-1.092,0.19l-0.489,0.172l-0.214,0.279l-0.485,0.93l-0.163,0.227l-0.639,0.101l-1.939-0.101l-1.901,0.418l-3.304,1.175
		l-2.928,0.365l-1.746,0.568l-0.95,0.159l-0.251-0.275l-0.564-0.446l-0.596,0.047l-0.339,1.169l-0.281-0.129l-0.738-0.224
		l-0.266-0.141l0.217,0.912l0.474,1.015l0.187,0.835l-0.661,0.344l-0.693,0.573l-0.745,1.086l-0.719,0.611l-0.646-0.835h-0.431
		l0.032,0.685l-0.109,0.46l-0.281,0.338l-0.504,0.316l-0.052-0.438l-0.273-0.583l-0.107-0.337l-1.909,2.666l-0.277,0.706
		l0.215,1.657l-0.215,0.476l-0.822,0.387l-0.204-1.924l-0.59-0.639l-0.951,0.421l-3.51,3.041l-0.39,0.516l-0.154,0.375l-0.298,0.267
		l-0.832,0.184l-0.642-0.12l-1.944-1.221l-1.974-0.282l-0.656-0.209l-0.483-0.43l-0.73-1.062l-0.466-0.31l-0.631,0.052l-2.388,0.89
		l0.562,1.244l0.626,0.73l0.903,0.074l1.362-0.697l-0.189,1.028l-0.802,1.565l-0.309,0.997l-0.687-0.375l-0.292,0.43l-0.251,0.749
		l-0.524,0.546v-1.35l-2.124,1.737l-0.626,1.104l0.169,1.244h-0.433l-0.56-0.403l-0.288,0.393l0.139,0.748l0.71,0.623l-0.129,0.23
		l-0.009,0.065l-0.292,0.144l1.637,1.375l1.837-0.334l3.888-1.94l0.245,0.868l0.554,0.451l1.35,0.481l-0.564,2.016l0.832,1.507
		l1.246,1.249l0.633,1.289l0.174,1.78l0.472,2.126l0.706,1.814l0.847,0.86l0.983,0.445l0.822,0.098l1.817-0.129l0.174-0.258
		l2.236-1.547l-0.832-0.651l0.154-0.386l0.586-0.317l0.481-0.445l0.627-2.531l0.266-0.624l2.547-2.292l0.779-0.446l0.618-0.224
		l0.678,0.108l0.976,0.562v-1.302h0.438l0.015,0.675l0.191,0.568l0.358,0.408l1.225,0.288l0.225,0.362l0.082,0.509l0.268,0.546
		l0.822,0.482l2.482,0.751l0.822,0.353h0.442l0.657-0.685l1.785-1.267l0.605-0.789l-1.169-0.23l-0.71,0.139l-1.611,0.994
		l1.551-4.704l1.324-1.642l1.909,0.537l0.916-0.466l0.832-0.681l0.376-0.911l-0.408-1.127l1.888-1.599l1.212-0.783l4.806-1.875
		l0.678-0.022l0.466-0.258l1.047,0.596l1.577,1.239l1.995,0.439l0.745,0.461l-0.159,0.942l0.367,0.844l-0.834,0.433l-1.143,0.402
		l-0.581,0.801l-0.391,0.933l-0.639,0.461l-0.062,0.156l4.975-0.38l1.77,0.085l2.173,0.761l0.993-0.58l1.101-0.258l2.004-0.065
		l2.632-0.623l1.274,0.061l1.085,1.012l0.918-1.205l2.3-1.507l0.661-1.332h0.425l0.084,0.236l0.305,0.623l0.197-0.789l0.406-0.402
		l0.616-0.144l0.774-0.016l0.731-0.193l1.045-0.881l0.624-0.276l0.878,0.108l1.199,0.288l1.356,0.086l1.339-0.482l0.631,0.891
		l0.903,0.383l2.259,0.077L429.215,308.866z M447.649,452.778l-0.832,2.781l-0.012,0.049l-0.562,1.86l0.862,0.816l0.878-0.254
		l-0.537-1.305l-0.147-1.298l1.102-0.954l1.326,0.227l0.537,2.28l1.329-2.074l-1.611-1.866L447.649,452.778z M492.009,341.592
		l-0.644,0.402l-0.04,1.231l0.494,0.624l0.645,0.077l0.534-0.415l0.184-0.801l-0.411-0.844L492.009,341.592z M492.064,353.238
		l-1.289,0.089l-0.598,0.936l0.172,1.203l1.019,0.89l1.234-0.163l0.396-1.007l-0.249-1.215L492.064,353.238z M499.239,389.133
		l-1.163-0.69l-0.583-0.227l-1.209,0.936l0.589,1.504l0.644,0.755l0.816,0.454l1.157-0.301l-0.006-0.869L499.239,389.133z
		 M481.044,373.13l-0.878,1.003l-0.123,1.225l0.856,0.776l1.648,0.264l0.991-0.927l0.061-1.375l-1.157-1.074L481.044,373.13z"/>
</g>
<g id="Copyright">
	<text transform="matrix(1 0 0 1 681.6426 577.5911)" class="st1 st2">© Vemaps.com</text>
</g>
</svg>
