<?xml version="1.0" encoding="utf-8" standalone="no"?>
<!DOCTYPE svg PUBLIC "-//W3C//DTD SVG 1.1//EN"
  "http://www.w3.org/Graphics/SVG/1.1/DTD/svg11.dtd">
<svg xmlns:xlink="http://www.w3.org/1999/xlink" width="357.12pt" height="9.585358pt" viewBox="0 0 357.12 9.585358" xmlns="http://www.w3.org/2000/svg" version="1.1">
 <metadata>
  <rdf:RDF xmlns:dc="http://purl.org/dc/elements/1.1/" xmlns:cc="http://creativecommons.org/ns#" xmlns:rdf="http://www.w3.org/1999/02/22-rdf-syntax-ns#">
   <cc:Work>
    <dc:type rdf:resource="http://purl.org/dc/dcmitype/StillImage"/>
    <dc:date>2024-02-02T21:58:01.350273</dc:date>
    <dc:format>image/svg+xml</dc:format>
    <dc:creator>
     <cc:Agent>
      <dc:title>Matplotlib v3.8.2, https://matplotlib.org/</dc:title>
     </cc:Agent>
    </dc:creator>
   </cc:Work>
  </rdf:RDF>
 </metadata>
 <defs>
  <style type="text/css">*{stroke-linejoin: round; stroke-linecap: butt}</style>
 </defs>
 <g id="figure_1">
  <g id="patch_1">
   <path d="M 0 9.585358 
L 357.12 9.585358 
L 357.12 0 
L 0 0 
L 0 9.585358 
z
" style="fill: none"/>
  </g>
  <g id="axes_1">
   <g id="PatchCollection_1">
    <path d="M 322.918963 8.779188 
L 322.909141 8.786578 
L 322.893399 8.775599 
L 322.886806 8.761029 
L 322.891044 8.749909 
L 322.907661 8.749486 
L 322.918021 8.756665 
L 322.921788 8.767997 
L 322.918963 8.779188 
" clip-path="url(#p2671c9dcc0)" style="fill: none; stroke: #000000; stroke-width: 2"/>
    <path d="M 30.822035 7.882857 
L 30.827955 7.887291 
L 30.825566 7.887713 
L 30.81894 7.88701 
L 30.818906 7.88701 
L 30.812145 7.88159 
L 30.809017 7.875467 
L 30.809622 7.868921 
L 30.814029 7.862235 
L 30.814634 7.869695 
L 30.81746 7.876874 
L 30.822035 7.882857 
" clip-path="url(#p2671c9dcc0)" style="fill: none; stroke: #000000; stroke-width: 2"/>
    <path d="M 31.231432 7.157839 
L 31.225849 7.168326 
L 31.222754 7.164173 
L 31.224066 7.158824 
L 31.228472 7.152912 
L 31.234662 7.146859 
L 31.233451 7.15263 
L 31.231432 7.157839 
" clip-path="url(#p2671c9dcc0)" style="fill: none; stroke: #000000; stroke-width: 2"/>
    <path d="M 31.074919 6.590409 
L 31.067115 6.596321 
L 31.064727 6.59421 
L 31.064491 6.592098 
L 31.066308 6.586608 
L 31.081747 6.557258 
L 31.088508 6.55212 
L 31.091535 6.568449 
L 31.089315 6.5852 
L 31.082992 6.589705 
L 31.074919 6.590409 
" clip-path="url(#p2671c9dcc0)" style="fill: none; stroke: #000000; stroke-width: 2"/>
    <path d="M 327.19263 6.587453 
L 327.19633 6.601177 
L 327.171641 6.607301 
L 327.161953 6.608145 
L 327.149978 6.606245 
L 327.146615 6.602867 
L 327.145067 6.595265 
L 327.151055 6.592239 
L 327.152535 6.591676 
L 327.152938 6.590127 
L 327.155764 6.583511 
L 327.159935 6.58513 
L 327.169219 6.587594 
L 327.173255 6.589423 
L 327.168075 6.576262 
L 327.1598 6.562819 
L 327.158791 6.552261 
L 327.176081 6.548038 
L 327.18523 6.554654 
L 327.189805 6.569857 
L 327.19263 6.587453 
" clip-path="url(#p2671c9dcc0)" style="fill: none; stroke: #000000; stroke-width: 2"/>
    <path d="M 30.950663 6.544589 
L 30.945147 6.546349 
L 30.937645 6.546067 
L 30.926814 6.548038 
L 30.926781 6.548038 
L 30.93223 6.560566 
L 30.945147 6.572461 
L 30.960283 6.57957 
L 30.97246 6.577599 
L 30.969433 6.595054 
L 30.953825 6.593154 
L 30.924224 6.577599 
L 30.91706 6.569575 
L 30.919717 6.552965 
L 30.932499 6.538255 
L 30.955507 6.536214 
L 30.950663 6.544589 
" clip-path="url(#p2671c9dcc0)" style="fill: none; stroke: #000000; stroke-width: 2"/>
    <path d="M 30.643724 6.417055 
L 30.63259 6.43078 
L 30.618463 6.430357 
L 30.609683 6.411635 
L 30.61224 6.39221 
L 30.62149 6.37947 
L 30.633297 6.378133 
L 30.643522 6.393476 
L 30.643724 6.417055 
" clip-path="url(#p2671c9dcc0)" style="fill: none; stroke: #000000; stroke-width: 2"/>
    <path d="M 326.022932 6.376866 
L 326.028919 6.388338 
L 326.056098 6.389676 
L 326.062422 6.403119 
L 326.06888 6.402626 
L 326.099019 6.407764 
L 326.108101 6.411635 
L 326.114358 6.422967 
L 326.118663 6.439014 
L 326.117183 6.453302 
L 326.099826 6.461889 
L 326.087717 6.470053 
L 326.081864 6.464986 
L 326.07359 6.462452 
L 326.057242 6.459496 
L 326.060942 6.467238 
L 326.061278 6.473643 
L 326.058116 6.479062 
L 326.05112 6.483145 
L 326.0415 6.480329 
L 326.022932 6.478922 
L 326.002951 6.479626 
L 325.988958 6.483145 
L 325.990977 6.477373 
L 325.992995 6.465408 
L 325.994609 6.459496 
L 325.987209 6.463085 
L 325.981827 6.464 
L 325.977118 6.462734 
L 325.971602 6.459496 
L 325.975504 6.455554 
L 325.97954 6.450065 
L 325.982769 6.447672 
L 325.960703 6.439366 
L 325.939377 6.448235 
L 325.903856 6.477233 
L 325.891007 6.480611 
L 325.878023 6.480822 
L 325.867932 6.482863 
L 325.863828 6.491731 
L 325.864097 6.50989 
L 325.862685 6.514113 
L 325.858648 6.501444 
L 325.850777 6.507427 
L 325.847951 6.51721 
L 325.849768 6.52636 
L 325.855621 6.530302 
L 325.867865 6.533117 
L 325.871565 6.540437 
L 325.86995 6.562326 
L 325.867596 6.56859 
L 325.861945 6.574361 
L 325.854612 6.578021 
L 325.847346 6.577599 
L 325.840282 6.572039 
L 325.839071 6.564508 
L 325.841291 6.542126 
L 325.829182 6.55212 
L 325.824809 6.55395 
L 325.813036 6.55395 
L 325.805165 6.562537 
L 325.800725 6.570138 
L 325.794805 6.575488 
L 325.782426 6.577599 
L 325.76951 6.575628 
L 325.748116 6.567182 
L 325.737353 6.565282 
L 325.71939 6.576684 
L 325.709703 6.578021 
L 325.705734 6.565282 
L 325.700083 6.565282 
L 325.693557 6.569012 
L 325.685148 6.567042 
L 325.675797 6.56127 
L 325.666311 6.55395 
L 325.691337 6.529387 
L 325.706272 6.523826 
L 325.722687 6.530302 
L 325.731298 6.522982 
L 325.734325 6.504119 
L 325.740716 6.494969 
L 325.749462 6.490887 
L 325.758948 6.490605 
L 325.805434 6.502711 
L 325.813036 6.501444 
L 325.818216 6.494969 
L 325.819494 6.486523 
L 325.821916 6.478077 
L 325.83046 6.47132 
L 325.841628 6.479907 
L 325.848961 6.472376 
L 325.852526 6.456821 
L 325.852526 6.441196 
L 325.864299 6.422122 
L 325.893563 6.410791 
L 325.926461 6.409031 
L 325.949468 6.418111 
L 325.956263 6.393406 
L 325.961981 6.389535 
L 325.974562 6.38869 
L 325.978329 6.38672 
L 325.981289 6.382778 
L 325.985057 6.378696 
L 325.991851 6.376866 
L 326.000126 6.378414 
L 326.007122 6.381089 
L 326.014119 6.381582 
L 326.022932 6.376866 
" clip-path="url(#p2671c9dcc0)" style="fill: none; stroke: #000000; stroke-width: 2"/>
    <path d="M 29.914841 6.378977 
L 29.935931 6.403189 
L 29.918541 6.430076 
L 29.911477 6.400515 
L 29.89412 6.397559 
L 29.87969 6.409946 
L 29.881607 6.426768 
L 29.888671 6.44366 
L 29.877167 6.446968 
L 29.865865 6.43641 
L 29.873198 6.412269 
L 29.873366 6.411635 
L 29.884264 6.375599 
L 29.914841 6.378977 
" clip-path="url(#p2671c9dcc0)" style="fill: none; stroke: #000000; stroke-width: 2"/>
    <path d="M 326.15109 6.355751 
L 326.148062 6.364479 
L 326.136962 6.360678 
L 326.131311 6.369124 
L 326.126871 6.378203 
L 326.119403 6.376866 
L 326.096799 6.361522 
L 326.098616 6.351246 
L 326.106285 6.338296 
L 326.108101 6.332102 
L 326.116578 6.323304 
L 326.133531 6.318448 
L 326.146111 6.321122 
L 326.14194 6.335058 
L 326.148802 6.341956 
L 326.151628 6.348642 
L 326.15109 6.355751 
" clip-path="url(#p2671c9dcc0)" style="fill: none; stroke: #000000; stroke-width: 2"/>
    <path d="M 30.657044 6.341534 
L 30.650653 6.341815 
L 30.644027 6.339844 
L 30.65321 6.33168 
L 30.663301 6.324219 
L 30.6743 6.318659 
L 30.685972 6.315773 
L 30.682676 6.321404 
L 30.678808 6.326612 
L 30.674468 6.331328 
L 30.669625 6.335551 
L 30.663368 6.339352 
L 30.657044 6.341534 
" clip-path="url(#p2671c9dcc0)" style="fill: none; stroke: #000000; stroke-width: 2"/>
    <path d="M 31.008014 6.148402 
L 31.001556 6.152906 
L 30.994122 6.152273 
L 30.994089 6.152273 
L 30.98652 6.139111 
L 30.990826 6.128695 
L 31.000648 6.125035 
L 31.009932 6.131651 
L 31.011513 6.14066 
L 31.008014 6.148402 
" clip-path="url(#p2671c9dcc0)" style="fill: none; stroke: #000000; stroke-width: 2"/>
    <path d="M 327.27058 6.10421 
L 327.276375 6.110976 
L 327.287897 6.105786 
L 327.291754 6.105816 
L 327.294709 6.115453 
L 327.278878 6.128862 
L 327.277987 6.146547 
L 327.263077 6.149945 
L 327.254363 6.13559 
L 327.253828 6.120799 
L 327.244682 6.114058 
L 327.238425 6.105426 
L 327.222008 6.096086 
L 327.220017 6.086618 
L 327.236369 6.079354 
L 327.267569 6.067267 
L 327.300208 6.059535 
L 327.313233 6.058114 
L 327.31711 6.064304 
L 327.320653 6.068658 
L 327.314285 6.079106 
L 327.294517 6.0838 
L 327.28541 6.092332 
L 327.27058 6.10421 
" clip-path="url(#p2671c9dcc0)" style="fill: none; stroke: #000000; stroke-width: 2"/>
    <path d="M 325.422509 6.044587 
L 325.42816 6.085901 
L 325.41632 6.077948 
L 325.406161 6.06366 
L 325.39829 6.047191 
L 325.39385 6.032762 
L 325.391697 6.019671 
L 325.393177 6.012914 
L 325.405017 5.997289 
L 325.407776 6.000456 
L 325.410534 6.001582 
L 325.413225 6.002145 
L 325.41632 6.003201 
L 325.420692 6.012914 
L 325.42224 6.024105 
L 325.422509 6.044587 
" clip-path="url(#p2671c9dcc0)" style="fill: none; stroke: #000000; stroke-width: 2"/>
    <path d="M 325.824338 5.93317 
L 325.811623 5.936267 
L 325.796554 5.92592 
L 325.804358 5.924231 
L 325.807385 5.92219 
L 325.806578 5.919163 
L 325.802743 5.914096 
L 325.806174 5.909873 
L 325.807049 5.906002 
L 325.807183 5.901638 
L 325.807789 5.896359 
L 325.812162 5.881086 
L 325.821513 5.878552 
L 325.830729 5.886435 
L 325.83564 5.902272 
L 325.832815 5.920642 
L 325.824338 5.93317 
" clip-path="url(#p2671c9dcc0)" style="fill: none; stroke: #000000; stroke-width: 2"/>
    <path d="M 30.782343 5.789588 
L 30.754121 5.789588 
L 30.746553 5.787758 
L 30.740263 5.783605 
L 30.735251 5.779593 
L 30.731517 5.777693 
L 30.714463 5.764954 
L 30.731416 5.740531 
L 30.760445 5.725821 
L 30.779517 5.74229 
L 30.779517 5.742361 
L 30.794048 5.752707 
L 30.796908 5.768614 
L 30.791828 5.783183 
L 30.782343 5.789588 
" clip-path="url(#p2671c9dcc0)" style="fill: none; stroke: #000000; stroke-width: 2"/>
    <path d="M 30.563631 5.579555 
L 30.548462 5.583448 
L 30.537792 5.577516 
L 30.529349 5.56771 
L 30.521605 5.548098 
L 30.537471 5.535882 
L 30.54509 5.538852 
L 30.560353 5.547826 
L 30.563546 5.568212 
L 30.563631 5.579555 
" clip-path="url(#p2671c9dcc0)" style="fill: none; stroke: #000000; stroke-width: 2"/>
    <path d="M 326.791675 5.531492 
L 326.811723 5.56774 
L 326.818922 5.575904 
L 326.831636 5.599412 
L 326.833386 5.645936 
L 326.822891 5.67972 
L 326.798672 5.665009 
L 326.79033 5.654593 
L 326.784006 5.630733 
L 326.779162 5.620527 
L 326.76342 5.60082 
L 326.757971 5.590544 
L 326.754002 5.575904 
L 326.750773 5.585195 
L 326.75306 5.602791 
L 326.750705 5.608703 
L 326.743372 5.610814 
L 326.739605 5.604761 
L 326.736174 5.580057 
L 326.737049 5.555212 
L 326.735367 5.551129 
L 326.727698 5.537757 
L 326.725747 5.52917 
L 326.73456 5.534519 
L 326.740278 5.5348 
L 326.758307 5.520301 
L 326.762747 5.519879 
L 326.768062 5.52185 
L 326.779162 5.523258 
L 326.791675 5.531492 
" clip-path="url(#p2671c9dcc0)" style="fill: none; stroke: #000000; stroke-width: 2"/>
    <path d="M 31.189117 5.543809 
L 31.166748 5.545217 
L 31.147945 5.540994 
L 31.122112 5.530014 
L 31.117571 5.502846 
L 31.134019 5.478353 
L 31.170986 5.475538 
L 31.180977 5.480746 
L 31.195979 5.491585 
L 31.209636 5.505662 
L 31.215657 5.52009 
L 31.207785 5.535927 
L 31.189117 5.543809 
" clip-path="url(#p2671c9dcc0)" style="fill: none; stroke: #000000; stroke-width: 2"/>
    <path d="M 326.889492 5.439501 
L 326.882698 5.447666 
L 326.877921 5.443302 
L 326.872606 5.42824 
L 326.866215 5.420076 
L 326.859892 5.409518 
L 326.857201 5.397975 
L 326.861304 5.386996 
L 326.875365 5.394456 
L 326.889492 5.39882 
L 326.889492 5.402691 
L 326.888349 5.405154 
L 326.883909 5.410081 
L 326.886532 5.415782 
L 326.889223 5.423806 
L 326.890703 5.432322 
L 326.889492 5.439501 
" clip-path="url(#p2671c9dcc0)" style="fill: none; stroke: #000000; stroke-width: 2"/>
    <path d="M 30.354579 5.36954 
L 30.341595 5.381646 
L 30.32 5.378198 
L 30.308799 5.368062 
L 30.31038 5.352085 
L 30.321884 5.338994 
L 30.34025 5.337586 
L 30.35542 5.351593 
L 30.354579 5.36954 
" clip-path="url(#p2671c9dcc0)" style="fill: none; stroke: #000000; stroke-width: 2"/>
    <path d="M 326.351096 5.374608 
L 326.349078 5.380802 
L 326.347867 5.383617 
L 326.345445 5.386996 
L 326.339794 5.38052 
L 326.33421 5.384532 
L 326.328828 5.383336 
L 326.324859 5.377986 
L 326.314007 5.375923 
L 326.301416 5.343295 
L 326.296236 5.326982 
L 326.30663 5.338858 
L 326.319983 5.360371 
L 326.33717 5.371089 
L 326.351096 5.374608 
" clip-path="url(#p2671c9dcc0)" style="fill: none; stroke: #000000; stroke-width: 2"/>
    <path d="M 326.355694 5.352273 
L 326.34161 5.358279 
L 326.333437 5.34336 
L 326.328828 5.328718 
L 326.317867 5.294421 
L 326.327571 5.268504 
L 326.348472 5.255942 
L 326.35363 5.250807 
L 326.366253 5.247091 
L 326.381853 5.256039 
L 326.38926 5.276058 
L 326.392956 5.287886 
L 326.394423 5.299714 
L 326.397383 5.311571 
L 326.395138 5.324165 
L 326.392153 5.333795 
L 326.386938 5.342681 
L 326.36611 5.348582 
L 326.355694 5.352273 
" clip-path="url(#p2671c9dcc0)" style="fill: none; stroke: #000000; stroke-width: 2"/>
    <path d="M 326.567047 5.279591 
L 326.560925 5.279591 
L 326.557292 5.269315 
L 326.552515 5.261643 
L 326.546259 5.255379 
L 326.537782 5.249467 
L 326.531189 5.237924 
L 326.532131 5.228492 
L 326.538993 5.225114 
L 326.549622 5.23173 
L 326.55487 5.240176 
L 326.564826 5.267344 
L 326.567047 5.279591 
" clip-path="url(#p2671c9dcc0)" style="fill: none; stroke: #000000; stroke-width: 2"/>
    <path d="M 30.473352 5.117639 
L 30.457206 5.11975 
L 30.443818 5.108137 
L 30.441598 5.092371 
L 30.449436 5.080124 
L 30.466322 5.078998 
L 30.475303 5.08857 
L 30.478532 5.104477 
L 30.473352 5.117639 
" clip-path="url(#p2671c9dcc0)" style="fill: none; stroke: #000000; stroke-width: 2"/>
    <path d="M 325.932112 5.016287 
L 326.083277 5.188796 
L 326.20538 5.295497 
L 326.198451 5.512982 
L 326.19327 5.69457 
L 326.169388 5.686828 
L 326.170061 5.670922 
L 325.349247 5.724061 
L 325.104436 5.494119 
L 325.099592 5.455478 
L 325.18826 5.41712 
L 325.239052 5.229196 
L 325.547639 5.041554 
L 325.557999 5.072875 
L 325.670482 5.060206 
L 325.932112 5.016287 
L 325.932112 5.016287 
" clip-path="url(#p2671c9dcc0)" style="fill: none; stroke: #000000; stroke-width: 2"/>
    <path d="M 30.478532 4.951675 
L 30.471535 4.957094 
L 30.463093 4.956109 
L 30.456634 4.947945 
L 30.457139 4.931827 
L 30.465582 4.926548 
L 30.475572 4.930138 
L 30.480954 4.941188 
L 30.478532 4.951675 
" clip-path="url(#p2671c9dcc0)" style="fill: none; stroke: #000000; stroke-width: 2"/>
    <path d="M 325.003323 4.924225 
L 325.014625 4.941962 
L 325.008974 4.943018 
L 325.006552 4.946185 
L 325.005543 4.950056 
L 324.993837 4.967089 
L 324.982938 4.977435 
L 324.972444 4.980462 
L 324.963765 4.972016 
L 324.962218 4.957658 
L 324.965985 4.945833 
L 324.966994 4.936683 
L 324.957643 4.93063 
L 324.957643 4.924225 
L 324.979306 4.933023 
L 324.989599 4.932179 
L 325.003323 4.924225 
" clip-path="url(#p2671c9dcc0)" style="fill: none; stroke: #000000; stroke-width: 2"/>
    <path d="M 326.878728 5.036979 
L 326.856461 5.054786 
L 326.850339 5.04986 
L 326.850339 4.99855 
L 326.84859 4.984685 
L 326.844418 4.972016 
L 326.838229 4.960121 
L 326.84092 4.948508 
L 326.840315 4.936824 
L 326.846369 4.927815 
L 326.880276 4.922888 
L 326.888147 4.920636 
L 326.895278 4.921199 
L 326.903889 4.927533 
L 326.903754 4.932742 
L 326.906916 4.963147 
L 326.905234 4.985459 
L 326.899853 5.004955 
L 326.891174 5.021988 
L 326.878728 5.036979 
" clip-path="url(#p2671c9dcc0)" style="fill: none; stroke: #000000; stroke-width: 2"/>
    <path d="M 30.602418 4.96723 
L 30.598381 4.983277 
L 30.586104 4.973705 
L 30.588593 4.956954 
L 30.598785 4.940202 
L 30.609683 4.93063 
L 30.60669 4.91951 
L 30.610928 4.914301 
L 30.617386 4.911205 
L 30.620985 4.906489 
L 30.62112 4.894876 
L 30.619505 4.889808 
L 30.609683 4.88284 
L 30.601509 4.878617 
L 30.583547 4.875239 
L 30.575811 4.871086 
L 30.572548 4.864752 
L 30.571337 4.847789 
L 30.57016 4.841032 
L 30.581664 4.845889 
L 30.589232 4.855743 
L 30.598718 4.864189 
L 30.615839 4.865103 
L 30.642109 4.877702 
L 30.654992 4.886148 
L 30.660475 4.897621 
L 30.647861 4.925915 
L 30.646617 4.93063 
L 30.631076 4.936261 
L 30.61483 4.949986 
L 30.602418 4.96723 
" clip-path="url(#p2671c9dcc0)" style="fill: none; stroke: #000000; stroke-width: 2"/>
    <path d="M 325.121927 4.774661 
L 325.117958 4.785782 
L 325.111096 4.793735 
L 325.104638 4.809571 
L 325.079813 4.826885 
L 325.076786 4.841032 
L 325.073153 4.838076 
L 325.070395 4.836457 
L 325.067973 4.834205 
L 325.065417 4.829208 
L 325.057411 4.834276 
L 325.051558 4.840258 
L 325.048464 4.848141 
L 325.048464 4.858769 
L 325.025456 4.853349 
L 325.025456 4.846945 
L 325.034403 4.847297 
L 325.037229 4.846945 
L 325.034067 4.838569 
L 325.032452 4.826745 
L 325.033798 4.816117 
L 325.040054 4.811471 
L 325.047387 4.808093 
L 325.050482 4.799858 
L 325.05176 4.790145 
L 325.054586 4.781981 
L 325.060438 4.775928 
L 325.078872 4.761218 
L 325.085465 4.758332 
L 325.086406 4.761992 
L 325.096094 4.777758 
L 325.099794 4.781981 
L 325.104974 4.781981 
L 325.108069 4.776209 
L 325.116276 4.75242 
L 325.121591 4.762696 
L 325.121927 4.774661 
" clip-path="url(#p2671c9dcc0)" style="fill: none; stroke: #000000; stroke-width: 2"/>
    <path d="M 325.212815 4.652476 
L 325.206827 4.657402 
L 325.20454 4.652687 
L 325.198754 4.645015 
L 325.188394 4.628123 
L 325.193238 4.620099 
L 325.213017 4.609612 
L 325.207164 4.59631 
L 325.217457 4.591946 
L 325.234006 4.593494 
L 325.246788 4.597788 
L 325.221359 4.618058 
L 325.213689 4.627841 
L 325.224319 4.633754 
L 325.221628 4.64051 
L 325.217659 4.646775 
L 325.212815 4.652476 
" clip-path="url(#p2671c9dcc0)" style="fill: none; stroke: #000000; stroke-width: 2"/>
    <path d="M 325.950276 4.532261 
L 325.959963 4.533809 
L 325.982769 4.533387 
L 325.97954 4.551264 
L 325.984115 4.560837 
L 325.9825 4.564074 
L 325.96077 4.562948 
L 325.946576 4.56886 
L 325.940588 4.558444 
L 325.938166 4.527616 
L 325.943346 4.527616 
L 325.950276 4.532261 
" clip-path="url(#p2671c9dcc0)" style="fill: none; stroke: #000000; stroke-width: 2"/>
    <path d="M 327.311302 4.713709 
L 327.301076 4.71392 
L 327.291793 4.711034 
L 327.287622 4.69738 
L 327.272552 4.683937 
L 327.269188 4.672183 
L 327.273427 4.659444 
L 327.283316 4.648956 
L 327.303095 4.633754 
L 327.332965 4.589553 
L 327.337674 4.577869 
L 327.341441 4.563511 
L 327.359346 4.52773 
L 327.36 4.526433 
L 327.36 4.67989 
L 327.359158 4.681472 
L 327.35355 4.690483 
L 327.344468 4.698506 
L 327.332561 4.706319 
L 327.321932 4.711034 
L 327.311302 4.713709 
" clip-path="url(#p2671c9dcc0)" style="fill: none; stroke: #000000; stroke-width: 2"/>
    <path d="M 29.866168 4.594339 
L 29.863073 4.595747 
L 29.857994 4.594902 
L 29.850829 4.597788 
L 29.800373 4.630727 
L 29.774136 4.653602 
L 29.760009 4.681051 
L 29.76 4.681067 
L 29.76 4.52763 
L 29.760012 4.527611 
L 29.768384 4.514172 
L 29.829537 4.447871 
L 29.844606 4.43837 
L 29.861559 4.433443 
L 29.872357 4.436469 
L 29.879286 4.446605 
L 29.886888 4.471028 
L 29.889882 4.485667 
L 29.890285 4.494747 
L 29.900511 4.501152 
L 29.908046 4.507486 
L 29.912385 4.515087 
L 29.907979 4.521774 
L 29.878512 4.551124 
L 29.870339 4.566467 
L 29.868018 4.574209 
L 29.866168 4.594339 
" clip-path="url(#p2671c9dcc0)" style="fill: none; stroke: #000000; stroke-width: 2"/>
    <path d="M 325.287893 4.541411 
L 325.276187 4.553869 
L 325.269662 4.56886 
L 325.261454 4.5652 
L 325.258427 4.562948 
L 325.254592 4.567805 
L 325.248336 4.57245 
L 325.241406 4.573717 
L 325.235217 4.56886 
L 325.235755 4.563511 
L 325.240734 4.542255 
L 325.241406 4.533387 
L 325.247057 4.533387 
L 325.257418 4.543945 
L 325.272958 4.536202 
L 325.304039 4.503404 
L 325.34178 4.471168 
L 325.353284 4.452165 
L 325.343529 4.432598 
L 325.359405 4.433724 
L 325.368689 4.440692 
L 325.371044 4.452587 
L 325.365595 4.467931 
L 325.359742 4.477221 
L 325.34622 4.487145 
L 325.343529 4.494747 
L 325.34003 4.499181 
L 325.287893 4.541411 
" clip-path="url(#p2671c9dcc0)" style="fill: none; stroke: #000000; stroke-width: 2"/>
    <path d="M 327.291793 4.414158 
L 327.263537 4.414158 
L 327.277396 4.409513 
L 327.283316 4.408949 
L 327.286343 4.406134 
L 327.285738 4.393887 
L 327.288967 4.391213 
L 327.296636 4.390509 
L 327.30592 4.387834 
L 327.314531 4.382345 
L 327.320048 4.372913 
L 327.320855 4.39065 
L 327.31655 4.404586 
L 327.306929 4.412891 
L 327.291793 4.414158 
" clip-path="url(#p2671c9dcc0)" style="fill: none; stroke: #000000; stroke-width: 2"/>
    <path d="M 326.221324 4.342789 
L 326.215673 4.35208 
L 326.207734 4.358977 
L 326.196432 4.362356 
L 326.181161 4.361089 
L 326.175174 4.359611 
L 326.172617 4.358273 
L 326.169926 4.355177 
L 326.192934 4.342789 
L 326.199931 4.347434 
L 326.206927 4.348842 
L 326.214058 4.347153 
L 326.221324 4.342789 
" clip-path="url(#p2671c9dcc0)" style="fill: none; stroke: #000000; stroke-width: 2"/>
    <path d="M 327.359351 4.315494 
L 327.35382 4.316959 
L 327.349649 4.316325 
L 327.347227 4.312736 
L 327.347092 4.305768 
L 327.349379 4.295492 
L 327.359298 4.272145 
L 327.36 4.270579 
L 327.36 4.293967 
L 327.36 4.315341 
L 327.359351 4.315494 
" clip-path="url(#p2671c9dcc0)" style="fill: none; stroke: #000000; stroke-width: 2"/>
    <path d="M 29.760016 4.315196 
L 29.76 4.315202 
L 29.76 4.270942 
L 29.760009 4.270928 
L 29.760014 4.270919 
L 29.767106 4.258681 
L 29.789172 4.242845 
L 29.793848 4.233695 
L 29.800508 4.230387 
L 29.8329 4.220463 
L 29.844606 4.218915 
L 29.844606 4.224686 
L 29.836836 4.226234 
L 29.833405 4.228768 
L 29.834381 4.232147 
L 29.839527 4.236651 
L 29.839527 4.243056 
L 29.834481 4.244675 
L 29.830849 4.246434 
L 29.826442 4.247772 
L 29.819244 4.248335 
L 29.81514 4.251995 
L 29.811709 4.260159 
L 29.812079 4.268324 
L 29.819244 4.271984 
L 29.824491 4.277473 
L 29.813895 4.289016 
L 29.799667 4.299574 
L 29.760016 4.315196 
" clip-path="url(#p2671c9dcc0)" style="fill: none; stroke: #000000; stroke-width: 2"/>
    <path d="M 326.84536 4.140437 
L 326.831905 4.141915 
L 326.817509 4.140367 
L 326.804592 4.135722 
L 326.804592 4.129669 
L 326.832847 4.129669 
L 326.844688 4.131639 
L 326.855451 4.135722 
L 326.84536 4.140437 
" clip-path="url(#p2671c9dcc0)" style="fill: none; stroke: #000000; stroke-width: 2"/>
    <path d="M 327.280491 4.047109 
L 326.935172 4.509738 
L 326.963427 4.495521 
L 327.107461 4.410639 
L 327.312379 4.251502 
L 327.270668 4.431824 
L 327.311975 4.498125 
L 327.178772 4.474265 
L 326.587431 4.538173 
L 326.302591 4.716876 
L 326.22536 4.571676 
L 326.204573 4.521563 
L 326.129562 4.551405 
L 326.125391 4.47891 
L 326.17625 4.456106 
L 326.2999 4.408949 
L 326.717136 4.19231 
L 326.976142 4.074207 
L 326.963427 4.058933 
L 327.090912 4.041197 
L 327.36 3.993329 
L 327.280491 4.047109 
" clip-path="url(#p2671c9dcc0)" style="fill: none; stroke: #000000; stroke-width: 2"/>
    <path d="M 29.76001 3.993899 
L 29.76 3.993902 
L 29.76 3.97617 
L 29.760009 3.976163 
L 29.760011 3.976161 
L 29.770302 3.966661 
L 29.78231 3.960538 
L 29.810767 3.952092 
L 29.802593 3.97018 
L 29.791594 3.981019 
L 29.777466 3.987987 
L 29.76001 3.993899 
" clip-path="url(#p2671c9dcc0)" style="fill: none; stroke: #000000; stroke-width: 2"/>
    <path d="M 324.929388 0.79878 
L 324.94217 0.803425 
L 324.971905 0.803425 
L 324.98314 0.808141 
L 324.986706 0.821584 
L 324.973924 0.83003 
L 324.955289 0.834323 
L 324.94069 0.834746 
L 324.929254 0.830523 
L 324.916068 0.827496 
L 324.902411 0.82644 
L 324.889494 0.828341 
L 324.885458 0.815601 
L 324.884853 0.811097 
L 324.897231 0.814616 
L 324.907255 0.812716 
L 324.929388 0.79878 
" clip-path="url(#p2671c9dcc0)" style="fill: none; stroke: #000000; stroke-width: 2"/>
   </g>
  </g>
 </g>
 <defs>
  <clipPath id="p2671c9dcc0">
   <rect x="0" y="0" width="357.12" height="9.585358"/>
  </clipPath>
 </defs>
</svg>
