<?xml version="1.0" encoding="utf-8" standalone="no"?>
<!DOCTYPE svg PUBLIC "-//W3C//DTD SVG 1.1//EN"
  "http://www.w3.org/Graphics/SVG/1.1/DTD/svg11.dtd">
<svg xmlns:xlink="http://www.w3.org/1999/xlink" width="357.12pt" height="221.755158pt" viewBox="0 0 357.12 221.755158" xmlns="http://www.w3.org/2000/svg" version="1.1">
 <metadata>
  <rdf:RDF xmlns:dc="http://purl.org/dc/elements/1.1/" xmlns:cc="http://creativecommons.org/ns#" xmlns:rdf="http://www.w3.org/1999/02/22-rdf-syntax-ns#">
   <cc:Work>
    <dc:type rdf:resource="http://purl.org/dc/dcmitype/StillImage"/>
    <dc:date>2024-02-02T21:58:01.378281</dc:date>
    <dc:format>image/svg+xml</dc:format>
    <dc:creator>
     <cc:Agent>
      <dc:title>Matplotlib v3.8.2, https://matplotlib.org/</dc:title>
     </cc:Agent>
    </dc:creator>
   </cc:Work>
  </rdf:RDF>
 </metadata>
 <defs>
  <style type="text/css">*{stroke-linejoin: round; stroke-linecap: butt}</style>
 </defs>
 <g id="figure_1">
  <g id="patch_1">
   <path d="M 0 221.755158 
L 357.12 221.755158 
L 357.12 0 
L 0 0 
L 0 221.755158 
z
" style="fill: none"/>
  </g>
  <g id="axes_1">
   <g id="PatchCollection_1">
    <path d="M 160.602182 196.76835 
L 162.449452 198.005062 
L 165.694223 197.558733 
L 167.942937 196.424269 
L 168.947945 198.084226 
L 166.845469 199.63578 
L 165.167126 201.321131 
L 164.47781 203.275561 
L 162.20629 202.182615 
L 160.357316 200.945209 
L 159.07319 199.563869 
L 156.957227 199.859278 
L 155.955032 198.197345 
L 154.108701 196.819811 
L 156.632148 194.713542 
L 158.744057 194.140015 
L 158.448765 192.611818 
L 159.838829 190.235095 
L 161.94791 189.521275 
L 164.768525 189.495834 
L 165.065495 191.023629 
L 163.095593 191.598322 
L 163.112519 193.407118 
L 161.574112 194.951191 
L 160.602182 196.76835 
" clip-path="url(#p1232360031)" style="fill: none; stroke: #000000; stroke-width: 2"/>
    <path d="M 157.337611 167.38809 
L 158.662109 171.096623 
L 162.757243 170.63851 
L 164.531126 171.074808 
L 165.777911 172.841815 
L 165.392726 173.485354 
L 165.054843 174.40158 
L 164.774401 175.481417 
L 164.591944 176.681237 
L 166.051596 177.684722 
L 165.859003 179.517173 
L 164.68993 181.28418 
L 163.19649 182.069516 
L 162.493695 182.254943 
L 161.642232 182.745778 
L 160.925921 183.487485 
L 160.253535 185.51627 
L 159.479785 185.461733 
L 158.797262 184.49097 
L 158.733065 182.876668 
L 158.692519 182.658519 
L 158.621564 182.462185 
L 158.520199 182.265851 
L 158.358015 182.069516 
L 159.256782 181.066031 
L 160.020396 179.320839 
L 160.395446 177.13935 
L 160.111625 174.761526 
L 159.067568 173.038149 
L 157.736312 172.17646 
L 156.573997 171.129345 
L 156.087446 168.827873 
L 156.47939 166.286438 
L 157.337611 167.38809 
" clip-path="url(#p1232360031)" style="fill: none; stroke: #000000; stroke-width: 2"/>
    <path d="M 268.426564 149.456244 
L 268.879326 149.532596 
L 269.629425 149.412614 
L 270.10246 148.801797 
L 269.994338 147.896479 
L 270.352493 147.765589 
L 270.784982 147.994646 
L 271.896615 149.074483 
L 271.913509 149.25991 
L 271.541839 149.467151 
L 271.430338 150.416099 
L 271.183684 151.495937 
L 270.213961 151.528659 
L 268.652945 150.852397 
L 267.906225 150.874212 
L 267.906225 151.430492 
L 268.40967 152.750294 
L 268.014347 153.317481 
L 267.091929 153.197499 
L 266.993943 153.557445 
L 267.865679 154.146447 
L 268.771204 153.731964 
L 269.480757 152.924813 
L 269.629425 153.208406 
L 269.24086 154.430041 
L 269.055025 155.71712 
L 269.196935 156.960569 
L 269.906488 158.509427 
L 269.832154 159.294763 
L 269.5855 159.86195 
L 269.64294 160.690916 
L 270.19031 161.705309 
L 269.78823 162.283404 
L 268.068408 161.967088 
L 267.416296 161.258104 
L 268.014347 160.527305 
L 268.06503 159.611079 
L 267.595373 159.600172 
L 266.703364 159.90558 
L 265.389002 159.207503 
L 264.192898 158.302185 
L 262.283863 157.320515 
L 262.081134 156.633345 
L 262.054103 155.455341 
L 261.648644 154.375503 
L 260.587694 153.382926 
L 259.895035 152.215829 
L 260.486329 151.332325 
L 261.506734 150.590619 
L 262.669049 149.957987 
L 263.87191 149.630763 
L 264.696343 149.074483 
L 265.466715 148.910872 
L 265.689717 148.736352 
L 265.095044 148.125535 
L 265.389002 147.754682 
L 266.62903 147.820127 
L 267.598752 148.223702 
L 268.075166 148.867242 
L 268.426564 149.456244 
" clip-path="url(#p1232360031)" style="fill: none; stroke: #000000; stroke-width: 2"/>
    <path d="M 166.291493 144.820578 
L 166.480707 146.184009 
L 165.767775 147.143865 
L 164.946721 147.438366 
L 164.473686 147.274754 
L 164.328396 146.882086 
L 164.125667 146.445788 
L 163.818194 146.064027 
L 163.395841 146.031305 
L 162.899154 146.129472 
L 162.561272 145.595007 
L 163.051201 143.95889 
L 162.892396 142.933589 
L 163.193112 141.537436 
L 164.223653 140.533951 
L 165.068359 140.828452 
L 165.102147 141.711955 
L 164.825083 142.8027 
L 165.26433 143.806185 
L 165.798184 144.177039 
L 166.291493 144.820578 
" clip-path="url(#p1232360031)" style="fill: none; stroke: #000000; stroke-width: 2"/>
    <path d="M 36.669694 126.179748 
L 36.669694 127.008714 
L 37.443444 127.466827 
L 38.281392 127.597716 
L 39.163265 127.423197 
L 40.072169 127.008714 
L 38.119209 130.302764 
L 35.233694 130.291856 
L 32.19951 128.197626 
L 29.76 125.263522 
L 30.165459 124.849039 
L 30.577675 124.565445 
L 31.462927 124.270944 
L 32.206268 124.63089 
L 33.983529 125.154448 
L 35.368847 126.506971 
L 35.747275 125.961599 
L 36.051369 124.270944 
L 36.321675 123.616497 
L 36.483858 122.700272 
L 36.842014 121.860398 
L 37.723887 121.522267 
L 38.450334 121.707694 
L 39.061901 122.242159 
L 39.599134 123.125662 
L 40.072169 124.270944 
L 39.159886 124.565445 
L 36.669694 126.179748 
" clip-path="url(#p1232360031)" style="fill: none; stroke: #000000; stroke-width: 2"/>
    <path d="M 66.203988 129.833743 
L 65.676892 131.415323 
L 63.879358 135.331097 
L 67.332515 135.331097 
L 66.677024 136.563639 
L 66.095866 139.006908 
L 65.582285 139.988578 
L 64.41997 140.828452 
L 60.530944 141.73377 
L 58.138737 142.540921 
L 56.456083 142.453662 
L 52.543406 140.828452 
L 52.898182 139.486836 
L 53.111048 138.996 
L 51.918323 138.963278 
L 51.397985 138.112497 
L 51.154709 137.021752 
L 50.789796 136.247323 
L 49.968742 135.909192 
L 48.215133 135.723766 
L 47.3907 135.331097 
L 47.089985 135.003874 
L 46.897392 134.665743 
L 46.664253 134.414872 
L 46.255415 134.414872 
L 46.897392 131.469861 
L 46.32975 129.561057 
L 45.025524 128.459405 
L 43.471265 128.001292 
L 44.917401 126.234285 
L 46.059444 125.448949 
L 47.383942 125.241707 
L 50.762766 125.307152 
L 51.242559 125.18717 
L 52.259584 122.929328 
L 53.82398 120.44243 
L 54.797081 119.460759 
L 55.993184 118.849942 
L 56.374991 118.77359 
L 57.270379 118.77359 
L 57.648808 118.849942 
L 58.290784 119.308055 
L 58.520544 119.820705 
L 58.594878 120.278818 
L 58.784092 120.606041 
L 60.466746 121.456822 
L 61.179678 122.438493 
L 60.814765 123.845554 
L 59.243612 125.18717 
L 55.168751 127.554086 
L 53.675311 129.833743 
L 53.472582 130.946303 
L 53.901693 131.262619 
L 59.922756 129.190204 
L 62.446737 126.877825 
L 64.082087 125.961599 
L 65.436995 124.565445 
L 66.203988 121.522267 
L 65.842454 120.409707 
L 65.041673 119.984317 
L 64.656487 119.417129 
L 65.582285 117.857364 
L 66.643235 116.875694 
L 67.569033 116.744804 
L 68.217767 117.519233 
L 68.4678 119.28624 
L 68.312374 120.475152 
L 67.927188 121.838583 
L 67.447395 123.060217 
L 67.028421 123.845554 
L 66.562144 125.067188 
L 66.386445 128.361238 
L 66.203988 129.833743 
" clip-path="url(#p1232360031)" style="fill: none; stroke: #000000; stroke-width: 2"/>
    <path d="M 40.072169 107.713437 
L 38.646305 108.564218 
L 35.382362 108.356976 
L 34.03759 109.120498 
L 33.402372 110.462114 
L 33.152339 112.021879 
L 33.162475 116.024913 
L 32.138692 115.621337 
L 31.094635 114.96689 
L 30.239793 113.930683 
L 29.76 112.36001 
L 30.273581 109.687685 
L 30.9088 107.898863 
L 31.949478 106.731766 
L 33.730117 105.957337 
L 35.517515 105.913708 
L 38.497637 107.353491 
L 40.072169 107.713437 
" clip-path="url(#p1232360031)" style="fill: none; stroke: #000000; stroke-width: 2"/>
    <path d="M 191.960413 62.327541 
L 192.585496 63.200137 
L 201.002145 66.679614 
L 203.235547 68.250286 
L 204.485711 70.180905 
L 200.924432 69.984571 
L 199.46478 70.67174 
L 198.768742 72.76597 
L 199.076215 74.783848 
L 200.140545 74.8602 
L 201.508968 74.39118 
L 202.728723 74.674774 
L 200.515594 76.005482 
L 196.663735 80.433907 
L 194.741185 82.004579 
L 194.190437 80.521166 
L 193.322079 80.041239 
L 192.31519 80.324832 
L 191.342089 81.088354 
L 191.342089 82.004579 
L 191.646183 82.713564 
L 191.544818 83.4989 
L 190.825129 85.658575 
L 191.416423 85.298629 
L 193.14638 84.818701 
L 193.14638 85.658575 
L 190.517656 89.39983 
L 190.220319 90.250611 
L 189.950013 93.970051 
L 189.362098 94.820832 
L 188.334936 95.420742 
L 186.287369 98.038529 
L 185.10816 98.55118 
L 184.175604 98.016714 
L 183.719463 96.849617 
L 183.685675 95.398927 
L 184.023557 93.980958 
L 181.438757 97.111396 
L 180.023031 98.278493 
L 178.867473 97.634954 
L 174.333092 102.216082 
L 176.634071 102.030656 
L 176.289431 103.492254 
L 173.430946 107.255324 
L 169.74465 114.116109 
L 167.490975 116.842971 
L 162.000387 121.882213 
L 153.222204 134.709373 
L 151.553065 138.156127 
L 150.765799 140.23945 
L 149.870411 141.951919 
L 148.599974 143.129924 
L 144.944087 144.100687 
L 139.646092 148.06009 
L 139.010873 144.133409 
L 138.743946 143.566221 
L 136.652454 143.249905 
L 135.540822 142.84633 
L 135.05765 142.235513 
L 134.706252 140.773915 
L 133.888577 140.828452 
L 133.023598 141.548343 
L 132.503259 142.235513 
L 132.314045 143.631666 
L 133.300662 146.380343 
L 133.070902 147.645607 
L 131.405142 148.61637 
L 124.238658 148.06009 
L 122.312728 149.150835 
L 121.329491 149.270817 
L 120.832804 148.06009 
L 121.109867 147.252939 
L 122.603307 145.660452 
L 123.103373 144.558799 
L 117.639816 146.838456 
L 116.298423 148.06009 
L 115.426686 150.503359 
L 115.913237 152.553959 
L 116.866065 154.800894 
L 117.379646 157.789535 
L 116.953914 159.796506 
L 115.940267 161.454438 
L 109.290743 169.373246 
L 108.310884 170.180397 
L 106.479562 170.071323 
L 103.898141 168.195241 
L 102.073577 168.347946 
L 102.414838 168.54428 
L 102.526339 169.242356 
L 102.330367 170.63851 
L 101.766104 170.987548 
L 101.195083 170.442176 
L 100.62744 169.678654 
L 99.242123 168.696984 
L 97.691243 166.188271 
L 97.204692 165.621083 
L 96.241728 165.239323 
L 94.619892 163.799539 
L 93.518396 163.788632 
L 93.004815 164.355819 
L 92.856147 165.272045 
L 93.109558 166.144641 
L 95.342961 167.268108 
L 96.60664 169.111467 
L 97.518923 171.489291 
L 98.052777 173.8453 
L 94.660438 177.881056 
L 89.997662 180.520659 
L 85.517342 180.029823 
L 82.645343 174.761526 
L 83.723187 174.8706 
L 84.537484 175.176009 
L 85.280825 175.263268 
L 86.152561 174.761526 
L 84.591545 173.561706 
L 82.543978 171.249327 
L 80.719413 168.642447 
L 79.861192 166.537309 
L 80.489653 166.122826 
L 81.59115 164.813932 
L 82.040533 163.417779 
L 80.739686 162.785147 
L 72.380477 162.425201 
L 71.306012 162.785147 
L 70.623489 163.766817 
L 71.116797 164.334004 
L 72.198021 164.617598 
L 73.26235 164.704858 
L 74.941625 165.512009 
L 76.820251 167.518979 
L 78.415056 169.951341 
L 79.242867 172.100108 
L 74.421287 172.100108 
L 73.056242 171.849237 
L 72.370341 171.205697 
L 71.94123 170.289472 
L 68.183979 165.16297 
L 67.200741 164.22493 
L 66.126275 164.050411 
L 65.001127 164.094041 
L 63.879358 163.788632 
L 62.416327 162.370664 
L 59.703132 158.574871 
L 58.209692 157.375052 
L 54.388243 156.502456 
L 53.114427 155.02995 
L 53.675311 151.812253 
L 54.54029 150.459729 
L 56.621645 150.917842 
L 61.098586 152.804831 
L 64.717306 153.06661 
L 65.582285 153.644704 
L 65.947198 154.953598 
L 65.906652 156.469734 
L 66.28508 157.527756 
L 67.900158 157.375052 
L 66.714191 152.804831 
L 72.333174 152.052217 
L 77.590623 149.979802 
L 77.590623 149.063576 
L 74.948383 147.558348 
L 72.704844 147.143865 
L 70.7654 146.09675 
L 69.035442 142.726348 
L 76.242472 142.660903 
L 80.016618 143.609851 
L 81.557361 146.391251 
L 82.125004 146.391251 
L 82.449371 145.40958 
L 82.794011 144.787856 
L 83.827931 143.566221 
L 83.966462 144.951468 
L 84.392194 146.129472 
L 85.040928 146.620307 
L 85.861982 145.933138 
L 86.723582 145.006005 
L 87.524363 144.94056 
L 88.406236 145.267784 
L 90.72073 145.660452 
L 91.572194 146.09675 
L 92.950754 147.231124 
L 94.325935 148.74726 
L 95.038866 148.779982 
L 95.785586 147.231124 
L 94.650302 146.391251 
L 94.650302 145.475025 
L 96.762066 145.529562 
L 99.110349 145.071449 
L 101.350508 144.111594 
L 103.1548 142.726348 
L 106.013285 137.610754 
L 105.547007 136.563639 
L 104.621209 135.952822 
L 103.465652 136.705436 
L 100.458499 139.465021 
L 96.478245 140.992063 
L 92.35946 140.904804 
L 88.933333 138.996 
L 95.525417 139.443206 
L 99.424579 137.425328 
L 99.755704 136.705436 
L 100.022631 135.494709 
L 100.654471 134.283982 
L 101.421464 133.247775 
L 102.073577 132.58242 
L 101.299826 131.00084 
L 101.384297 129.953725 
L 101.816786 129.081129 
L 102.073577 128.001292 
L 101.972212 126.72512 
L 101.54648 123.812831 
L 101.458631 121.98038 
L 102.310094 119.689816 
L 104.317115 118.020976 
L 106.594442 117.333807 
L 108.310884 117.857364 
L 107.668908 118.980831 
L 106.97287 119.962502 
L 105.476052 121.522267 
L 108.020306 120.900543 
L 109.067741 120.900543 
L 109.493473 121.98038 
L 109.267091 123.234737 
L 107.689181 127.008714 
L 108.662282 127.641346 
L 111.091656 129.833743 
L 111.216673 127.663161 
L 111.872164 126.005229 
L 112.993934 125.121725 
L 114.548192 125.263522 
L 113.561576 123.289274 
L 113.257482 121.751324 
L 113.412908 117.399251 
L 113.727138 116.144895 
L 114.494131 115.337743 
L 115.440202 115.01052 
L 116.298423 115.108687 
L 116.845792 115.730412 
L 117.437086 117.868272 
L 117.947289 118.849942 
L 118.514931 118.708145 
L 119.271787 118.064606 
L 119.930658 117.922809 
L 120.214479 119.28624 
L 120.576013 119.635278 
L 121.39031 119.100813 
L 123.934564 116.777527 
L 124.171081 114.312443 
L 124.076474 111.509229 
L 124.238658 109.545888 
L 122.015392 108.760552 
L 119.967825 109.207757 
L 117.987834 110.069446 
L 115.987571 110.538466 
L 111.115308 109.807667 
L 108.993407 110.473021 
L 109.493473 113.276236 
L 108.831223 114.814186 
L 108.223035 114.814186 
L 107.523619 114.257906 
L 106.611336 114.116109 
L 102.884494 116.559378 
L 101.766104 116.941139 
L 98.025746 116.941139 
L 96.856673 117.410159 
L 96.228212 118.511811 
L 95.785586 119.722538 
L 95.167262 120.606041 
L 93.494744 120.616949 
L 92.643281 118.631793 
L 91.856015 116.253969 
L 90.372711 115.108687 
L 88.551526 114.312443 
L 86.990509 112.261843 
L 86.064712 109.556796 
L 86.152561 106.797211 
L 87.321634 104.506647 
L 88.659648 104.757518 
L 90.227422 106.022782 
L 98.522433 108.629662 
L 100.890988 108.706015 
L 102.850706 107.811604 
L 106.668776 104.779333 
L 108.594706 104.124886 
L 115.142865 104.801148 
L 120.984851 102.445139 
L 122.708051 102.73964 
L 126.18486 106.273653 
L 128.16485 107.222601 
L 132.793838 107.713437 
L 131.584219 105.226538 
L 129.583956 103.8522 
L 127.272841 103.263198 
L 125.110394 103.132308 
L 123.458149 102.314249 
L 118.562234 96.729636 
L 117.680362 96.206078 
L 116.001086 95.551631 
L 115.115835 94.820832 
L 112.845265 91.232281 
L 110.689576 90.992317 
L 98.498782 85.320444 
L 97.488513 84.338773 
L 96.616777 81.568281 
L 96.430942 79.964887 
L 97.204692 79.255902 
L 102.073577 79.255902 
L 106.067346 80.324832 
L 106.935703 79.6922 
L 105.759873 76.965338 
L 104.053567 75.154701 
L 101.843817 73.933067 
L 99.525944 73.158638 
L 96.363365 72.733248 
L 94.065765 72.929582 
L 92.950754 72.76597 
L 90.34906 71.249835 
L 89.217154 71.009871 
L 88.3961 70.704462 
L 87.470302 69.897311 
L 86.84522 68.850196 
L 86.946585 67.824896 
L 87.250679 66.363298 
L 86.824947 64.748995 
L 85.578161 61.869429 
L 86.517474 61.967596 
L 87.382453 61.891243 
L 88.183234 61.542205 
L 88.933333 60.865943 
L 91.666801 62.763839 
L 100.890988 66.450557 
L 103.783261 68.250286 
L 112.277623 75.514647 
L 119.048785 78.950494 
L 126.502469 80.095776 
L 140.163052 77.423451 
L 138.166167 75.056534 
L 132.276878 74.532977 
L 133.070902 71.489799 
L 134.810996 69.166512 
L 136.760577 67.366783 
L 137.223476 65.599776 
L 137.767466 65.043496 
L 138.743946 65.992444 
L 139.04804 66.810503 
L 139.646092 70.180905 
L 144.663645 65.927 
L 147.400491 64.72718 
L 149.853517 65.534331 
L 149.853517 66.450557 
L 149.383861 66.875948 
L 148.718233 68.283009 
L 156.523314 69.788237 
L 158.97634 71.009871 
L 157.661978 71.664318 
L 156.259766 71.947912 
L 153.303296 71.947912 
L 155.67523 74.674774 
L 160.101488 74.674774 
L 175.725167 71.009871 
L 177.205092 70.399054 
L 180.002758 67.792173 
L 181.702306 67.366783 
L 181.702306 68.283009 
L 175.86032 72.569636 
L 173.714767 73.682196 
L 177.475398 75.841871 
L 181.45903 75.907315 
L 189.639162 72.76597 
L 189.071519 71.511613 
L 188.078145 70.355424 
L 186.936103 69.504643 
L 185.929214 69.177419 
L 185.391981 68.413898 
L 185.341298 64.465402 
L 185.10816 62.785654 
L 185.807576 62.872914 
L 187.246955 62.687487 
L 187.942992 62.785654 
L 187.787566 62.174837 
L 187.422654 60.036977 
L 188.605242 60.015162 
L 190.115576 60.342386 
L 191.409665 61.084092 
L 191.960413 62.327541 
L 191.960413 62.327541 
" clip-path="url(#p1232360031)" style="fill: none; stroke: #000000; stroke-width: 2"/>
    <path d="M 162.735132 61.269259 
L 165.011211 62.971787 
L 165.139938 60.256101 
L 166.983977 60.531383 
L 167.420517 62.672195 
L 169.270766 63.80401 
L 172.394755 64.212586 
L 172.688244 65.782409 
L 170.278393 66.369651 
L 167.164231 67.959859 
L 164.616578 69.402149 
L 162.205496 69.699912 
L 159.787117 68.140241 
L 160.062507 66.139469 
L 161.757993 64.703035 
L 159.770687 64.141023 
L 156.51294 64.725966 
L 153.956353 63.163772 
L 153.384807 61.736945 
L 155.650804 61.443372 
L 158.058113 61.1484 
L 158.7568 58.716487 
L 160.457344 58.851396 
L 161.596337 60.131896 
L 162.735132 61.269259 
" clip-path="url(#p1232360031)" style="fill: none; stroke: #000000; stroke-width: 2"/>
    <path d="M 146.02531 60.189681 
L 144.119654 60.931388 
L 142.430242 60.865943 
L 140.808407 59.840643 
L 139.369028 58.335415 
L 138.179683 56.502964 
L 137.32484 54.452363 
L 141.234139 53.208914 
L 142.514713 53.198007 
L 143.791908 53.557952 
L 147.035578 55.423126 
L 147.582948 55.455849 
L 146.376708 56.241185 
L 145.836096 56.30663 
L 145.836096 57.310115 
L 146.984896 58.880788 
L 146.02531 60.189681 
" clip-path="url(#p1232360031)" style="fill: none; stroke: #000000; stroke-width: 2"/>
    <path d="M 122.130272 55.357682 
L 124.414356 55.608553 
L 126.502469 55.455849 
L 130.982789 54.376011 
L 133.050629 54.965013 
L 133.929123 57.746413 
L 134.300793 58.302693 
L 134.94277 59.731569 
L 135.138742 61.193167 
L 134.182535 61.869429 
L 131.040229 65.534331 
L 129.739382 68.632047 
L 129.337302 69.177419 
L 128.475702 69.101067 
L 126.06998 67.715821 
L 125.110394 67.366783 
L 119.183938 68.522972 
L 117.954046 68.315731 
L 116.433576 67.628562 
L 115.247609 66.385112 
L 115.01447 64.574476 
L 116.180164 62.654765 
L 118.23111 61.542205 
L 122.224879 60.865943 
L 123.137161 61.454946 
L 124.816436 64.029103 
L 125.678036 64.618106 
L 126.904549 64.519939 
L 127.975636 64.225438 
L 128.96901 63.65825 
L 129.955627 62.785654 
L 128.448671 61.302241 
L 123.894018 58.662639 
L 120.704408 57.637338 
L 116.808625 54.735957 
L 115.676719 53.557952 
L 114.32519 51.616427 
L 114.233962 50.711108 
L 115.115835 49.89305 
L 116.474122 49.729438 
L 117.217463 50.591126 
L 117.700634 51.921835 
L 118.25814 53.132562 
L 119.971204 54.605068 
L 122.130272 55.357682 
" clip-path="url(#p1232360031)" style="fill: none; stroke: #000000; stroke-width: 2"/>
    <path d="M 95.94777 56.982891 
L 95.457841 57.190133 
L 95.194292 56.437519 
L 95.113201 55.684905 
L 94.842895 55.095903 
L 93.839384 54.703235 
L 92.21417 54.299659 
L 90.534895 52.903506 
L 89.673295 50.056661 
L 90.818716 48.933194 
L 93.112937 50.852905 
L 94.275252 52.270874 
L 94.923986 52.739894 
L 96.025483 53.99425 
L 96.322819 55.608553 
L 95.94777 56.982891 
" clip-path="url(#p1232360031)" style="fill: none; stroke: #000000; stroke-width: 2"/>
    <path d="M 244.386236 58.760806 
L 246.335817 59.120752 
L 250.566104 59.120752 
L 251.518932 59.546142 
L 252.350122 60.233311 
L 253.27592 60.789591 
L 254.526085 60.865943 
L 254.526085 60.036977 
L 254.215233 58.379045 
L 255.478913 56.928354 
L 257.421736 55.870332 
L 265.318046 55.095903 
L 266.77094 55.881239 
L 268.146121 57.004706 
L 271.531702 58.160896 
L 273.008248 59.578864 
L 276.762121 64.138178 
L 277.30949 65.992444 
L 277.613584 68.708399 
L 277.968361 70.551758 
L 277.576417 72.056986 
L 275.609942 73.682196 
L 273.988107 74.412995 
L 271.839175 74.99109 
L 269.727411 75.154701 
L 268.186667 74.674774 
L 267.372371 73.147731 
L 265.980296 68.588417 
L 264.784192 67.366783 
L 263.381981 67.737636 
L 262.054103 69.231957 
L 259.688927 72.76597 
L 262.49335 72.842322 
L 263.000174 74.652959 
L 261.952738 80.586611 
L 263.037341 81.535559 
L 268.304926 78.590548 
L 270.224098 78.797789 
L 270.589011 80.193943 
L 270.4471 81.895505 
L 269.940277 85.254999 
L 270.031505 87.567378 
L 270.318705 88.396345 
L 271.589142 88.407252 
L 271.913509 88.20001 
L 272.494667 86.956561 
L 273.008248 86.672968 
L 273.352888 87.087451 
L 274.167185 89.836128 
L 275.282196 90.577834 
L 276.596559 90.501482 
L 277.755495 89.727053 
L 278.394093 88.407252 
L 280.137565 89.454367 
L 281.181622 90.828706 
L 281.708718 92.715694 
L 281.84725 95.311667 
L 282.337179 97.122304 
L 283.509631 99.412868 
L 284.921979 101.398024 
L 286.12484 102.216082 
L 287.577734 101.354394 
L 286.895212 99.347423 
L 284.732765 95.81341 
L 285.621396 94.177292 
L 287.408793 94.548146 
L 290.970073 96.729636 
L 290.355127 93.577383 
L 288.358243 92.235767 
L 286.232963 91.4068 
L 285.246346 89.836128 
L 285.807231 88.854457 
L 286.908727 88.014584 
L 287.672341 86.934746 
L 287.260125 85.254999 
L 286.192417 84.665997 
L 283.65492 85.854909 
L 282.418271 85.658575 
L 281.590459 84.600552 
L 281.516125 83.575252 
L 281.603975 82.462692 
L 281.282986 81.088354 
L 280.887664 80.346647 
L 280.299749 79.506774 
L 279.762516 79.343162 
L 279.191495 81.87369 
L 278.37382 82.582674 
L 277.350036 82.877175 
L 276.414102 82.909898 
L 275.454516 82.397248 
L 275.84646 81.208336 
L 277.30949 79.255902 
L 281.110666 71.391632 
L 282.131071 70.180905 
L 283.067005 69.755514 
L 285.29365 67.792173 
L 286.408661 67.366783 
L 303.809601 66.057889 
L 308.377771 64.596291 
L 310.864585 64.618106 
L 313.067577 65.23983 
L 313.993375 65.992444 
L 314.885384 67.366783 
L 316.290975 72.864137 
L 316.841723 73.682196 
L 317.716838 74.39118 
L 320.271229 78.797789 
L 321.149723 79.714015 
L 322.30528 80.390277 
L 324.57585 81.088354 
L 323.896706 82.419063 
L 322.30528 83.422548 
L 321.686956 84.818701 
L 323.805478 84.796886 
L 324.464348 86.018521 
L 323.734523 87.545563 
L 321.686956 88.407252 
L 311.33762 86.978376 
L 304.353592 82.746286 
L 302.630392 82.353618 
L 301.900566 83.422548 
L 302.92435 86.672968 
L 298.491334 84.775072 
L 293.240642 87.491026 
L 294.707051 89.967017 
L 297.504717 92.00671 
L 300.586204 93.413771 
L 302.92435 93.980958 
L 307.698627 92.792047 
L 310.019879 94.242737 
L 317.777657 95.049888 
L 320.879417 95.966114 
L 323.481111 97.776751 
L 324.57585 100.841744 
L 323.048621 102.554213 
L 319.598843 103.841292 
L 313.699417 104.96476 
L 313.699417 105.957337 
L 318.689939 107.789789 
L 320.55505 107.713437 
L 323.859539 106.524525 
L 325.481374 106.306376 
L 327.36 106.797211 
L 327.36 107.713437 
L 325.028612 107.909771 
L 316.601827 112.098231 
L 314.892142 112.425455 
L 309.256265 112.545437 
L 308.154768 112.949012 
L 308.083813 113.98522 
L 307.02962 114.945075 
L 305.924745 115.425003 
L 293.30484 116.930231 
L 286.858045 115.894023 
L 283.59748 116.024913 
L 283.59748 116.941139 
L 284.617885 117.14838 
L 287.516915 118.849942 
L 288.885339 119.351685 
L 293.240642 119.689816 
L 293.240642 120.606041 
L 290.912633 121.325933 
L 286.016718 121.009617 
L 283.59748 121.522267 
L 277.839965 125.176262 
L 275.609942 125.263522 
L 277.400718 126.136118 
L 279.110403 126.005229 
L 284.273245 123.474701 
L 289.838167 123.431071 
L 288.699504 124.936299 
L 286.61477 126.430619 
L 284.347579 127.554086 
L 280.796436 128.590294 
L 274.474658 132.58242 
L 270.497782 134.33852 
L 262.844748 133.105978 
L 258.553642 133.422294 
L 255.560005 134.414872 
L 242.369078 134.218538 
L 240.351921 133.422294 
L 237.523846 130.749969 
L 233.682124 129.299278 
L 231.833907 127.684976 
L 230.043131 126.692398 
L 229.201804 125.721635 
L 228.786209 124.58726 
L 228.482115 123.212922 
L 228.03611 122.056732 
L 227.215056 121.522267 
L 226.177757 122.307603 
L 225.268854 124.194592 
L 224.623498 126.234285 
L 224.380223 127.510457 
L 224.822849 129.190204 
L 225.914209 130.826321 
L 227.313042 132.091585 
L 231.178416 133.291405 
L 234.533587 135.058411 
L 237.577907 137.436235 
L 239.172711 139.988578 
L 238.00026 142.344587 
L 240.179601 143.042664 
L 244.893059 141.73377 
L 247.295403 141.886474 
L 250.430951 142.75907 
L 252.789369 144.493355 
L 252.829915 147.231124 
L 255.100485 149.063576 
L 250.782348 152.008587 
L 249.424061 153.644704 
L 250.397162 154.571838 
L 250.998593 155.782564 
L 251.3804 157.309607 
L 252.086574 161.890736 
L 252.049407 163.243259 
L 251.41081 163.723187 
L 249.998461 163.788632 
L 249.234847 163.145092 
L 246.646669 158.204018 
L 245.69384 156.796957 
L 244.727497 155.62986 
L 243.558424 154.833616 
L 242.034575 154.56093 
L 241.294613 154.277336 
L 240.294481 153.06661 
L 239.764006 152.804831 
L 239.257182 153.06661 
L 239.037559 153.666519 
L 238.68954 154.277336 
L 237.777257 154.56093 
L 237.047432 154.408226 
L 235.831055 153.775594 
L 235.202594 153.644704 
L 234.124749 154.102817 
L 234.178811 155.149932 
L 234.614679 156.404289 
L 234.634952 157.375052 
L 233.509804 158.596686 
L 230.925004 160.200081 
L 229.789719 161.44353 
L 228.421296 162.414293 
L 227.549559 160.854528 
L 226.596731 156.371567 
L 224.866774 158.302185 
L 223.927461 157.178718 
L 223.339545 154.757264 
L 222.677296 152.804831 
L 220.88652 151.888605 
L 219.04844 152.346718 
L 217.615819 152.313996 
L 217.007631 149.979802 
L 215.500675 150.786953 
L 214.270784 150.416099 
L 211.851546 148.06009 
L 211.239979 147.056605 
L 210.773702 146.554863 
L 210.155377 146.391251 
L 209.155245 146.816641 
L 208.776817 147.503811 
L 208.520026 148.300054 
L 207.884808 149.063576 
L 206.695462 149.663485 
L 205.627754 149.805282 
L 204.560045 149.565318 
L 203.353805 149.063576 
L 202.613843 148.540018 
L 202.059716 147.907386 
L 201.427876 147.427458 
L 200.464912 147.231124 
L 199.870239 147.514718 
L 198.653862 148.758167 
L 197.940931 149.063576 
L 197.072573 149.848912 
L 197.552366 151.365047 
L 198.792394 152.292181 
L 201.242041 150.710601 
L 205.593965 151.812253 
L 206.810342 152.673941 
L 206.972525 154.582745 
L 206.938737 156.502456 
L 207.573956 157.375052 
L 209.209306 157.069643 
L 210.331076 156.567901 
L 211.432572 156.458826 
L 212.986831 157.375052 
L 210.155377 160.952695 
L 213.169287 160.756361 
L 214.645833 161.01814 
L 215.879104 161.956181 
L 214.483649 163.275982 
L 211.250116 164.595783 
L 210.155377 165.621083 
L 209.516779 168.118889 
L 210.723019 168.915133 
L 212.642191 168.740614 
L 217.402953 167.082682 
L 219.028167 166.995422 
L 219.2782 168.347946 
L 218.396327 169.48232 
L 214.122115 172.100108 
L 215.172929 173.867115 
L 217.054934 175.503232 
L 218.190219 177.270239 
L 217.007631 179.429914 
L 215.223612 179.822582 
L 213.16253 178.949986 
L 209.587735 176.681237 
L 207.41853 176.419458 
L 205.543283 176.746681 
L 203.850493 176.561255 
L 202.218521 174.761526 
L 201.792789 173.605336 
L 201.606954 172.492776 
L 201.289344 171.380216 
L 200.464912 170.180397 
L 199.501947 169.61321 
L 198.491679 169.373246 
L 197.498305 168.849688 
L 196.552234 167.43172 
L 195.112855 168.086167 
L 191.794851 164.22493 
L 190.206804 163.788632 
L 189.852028 164.617598 
L 189.483736 166.210086 
L 189.071519 168.827873 
L 188.63903 169.689562 
L 187.686202 168.773336 
L 186.240065 166.537309 
L 184.38847 167.846203 
L 185.19263 170.224027 
L 187.942992 173.8453 
L 187.632141 173.823485 
L 187.054362 174.652451 
L 186.48672 175.874085 
L 186.240065 177.09572 
L 186.669176 178.001038 
L 187.672687 178.317354 
L 189.639162 178.513688 
L 191.693486 179.713507 
L 193.014606 181.24055 
L 193.531566 183.225706 
L 193.14638 185.821679 
L 192.639557 186.312514 
L 191.666456 187.566871 
L 191.210315 188.875765 
L 192.244234 189.486582 
L 192.426691 190.010139 
L 194.291801 192.071647 
L 194.741185 192.235259 
L 194.112724 194.591268 
L 192.450343 193.784117 
L 189.639162 190.402807 
L 187.726748 189.268433 
L 183.503219 188.417652 
L 181.702306 186.825164 
L 182.030052 184.229191 
L 181.002889 182.571259 
L 179.340508 181.633219 
L 175.522438 180.673363 
L 174.07968 179.571711 
L 174.042513 177.902871 
L 176.036019 175.677751 
L 174.62705 174.936045 
L 171.768565 175.8959 
L 170.592735 175.219638 
L 170.390005 174.467025 
L 170.447445 172.73274 
L 170.312292 172.100108 
L 167.713977 169.155097 
L 164.642627 166.820903 
L 163.851982 165.991937 
L 162.932942 164.704858 
L 162.341648 163.210537 
L 162.524105 161.770754 
L 163.088368 161.312641 
L 163.811436 161.432623 
L 164.54802 161.847106 
L 165.129177 162.327034 
L 166.87265 164.323097 
L 167.480838 164.704858 
L 169.011445 164.595783 
L 170.085911 163.614113 
L 170.278504 162.04344 
L 169.177008 160.123729 
L 172.599756 159.403837 
L 174.123605 158.356722 
L 174.900734 156.371567 
L 173.410673 155.651675 
L 171.751671 154.408226 
L 170.379869 152.793923 
L 169.74465 150.896027 
L 169.846015 149.696208 
L 170.264989 149.139928 
L 170.92048 149.325354 
L 171.758429 150.437914 
L 172.55921 150.983287 
L 173.76545 151.092361 
L 176.036019 150.896027 
L 174.731793 148.278239 
L 174.056029 147.318384 
L 173.147125 146.391251 
L 174.529064 145.704081 
L 177.485534 145.213246 
L 178.867473 144.558799 
L 178.867473 143.566221 
L 174.211454 142.257328 
L 172.04225 140.817544 
L 172.01184 138.156127 
L 173.988452 136.90177 
L 176.735435 137.916163 
L 179.549995 139.519558 
L 181.702306 139.988578 
L 183.445779 138.352461 
L 182.212508 136.694529 
L 180.019652 135.036596 
L 178.867473 133.422294 
L 179.354023 131.938881 
L 180.42511 131.851621 
L 181.705685 132.1134 
L 182.83759 131.666195 
L 183.35455 130.564542 
L 183.320762 129.386538 
L 182.759877 128.459405 
L 181.702306 128.001292 
L 183.141684 127.085066 
L 189.362098 124.761779 
L 191.027858 126.397897 
L 192.051642 124.979928 
L 193.14638 118.849942 
L 194.450606 120.180651 
L 195.78862 120.44243 
L 198.768742 119.689816 
L 197.363152 116.515748 
L 197.065815 115.108687 
L 205.053354 109.545888 
L 206.435292 111.37834 
L 207.506379 110.516651 
L 208.553815 108.706015 
L 209.871556 107.713437 
L 216.210228 106.524525 
L 217.575273 106.797211 
L 218.051687 107.833419 
L 218.068581 109.022331 
L 217.967216 110.254872 
L 218.092233 111.454692 
L 218.538237 112.458177 
L 219.10588 113.352588 
L 219.59243 114.334258 
L 219.79516 115.5668 
L 219.551884 116.821157 
L 218.778134 119.133536 
L 219.257927 121.096877 
L 219.203866 122.231251 
L 218.710558 124.270944 
L 220.102633 123.681942 
L 221.697437 123.289274 
L 223.079376 122.471215 
L 223.812581 120.606041 
L 223.420637 118.675423 
L 222.420505 116.352136 
L 221.629861 113.94159 
L 221.933955 110.407577 
L 220.849353 109.295017 
L 219.906661 107.746159 
L 220.413484 104.96476 
L 221.150068 104.27759 
L 222.096138 104.146701 
L 222.900298 103.841292 
L 223.244938 102.674195 
L 222.988148 101.419839 
L 222.329277 101.288949 
L 221.498087 101.398024 
L 219.757993 100.350909 
L 213.895734 98.093067 
L 210.155377 94.820832 
L 208.320676 91.646764 
L 209.797222 89.388922 
L 212.15564 86.629338 
L 212.986831 82.004579 
L 217.196845 90.185166 
L 219.839084 93.021103 
L 221.596073 89.39983 
L 219.386322 86.280299 
L 218.842332 83.226214 
L 220.089117 81.633726 
L 223.244938 82.909898 
L 221.072355 80.673871 
L 213.50717 77.183487 
L 211.851546 76.005482 
L 212.152261 73.976697 
L 212.942906 71.817022 
L 214.034266 70.050015 
L 215.2574 69.177419 
L 215.764224 69.417383 
L 217.399574 70.660832 
L 218.092233 71.009871 
L 219.126153 71.031686 
L 221.852863 70.180905 
L 222.575931 69.613717 
L 222.998284 68.315731 
L 223.271969 67.017744 
L 223.52876 66.450557 
L 229.144364 66.286945 
L 231.104081 65.697943 
L 232.752947 64.585383 
L 233.499667 62.785654 
L 233.013117 60.953203 
L 230.641183 57.386467 
L 229.766067 55.06318 
L 228.988938 54.016065 
L 228.110444 53.09984 
L 227.498877 52.728986 
L 227.093418 52.139984 
L 226.079771 48.060598 
L 227.840138 48.78049 
L 230.489136 51.98728 
L 231.752816 52.728986 
L 233.57738 52.990765 
L 237.496815 54.517808 
L 244.386236 58.760806 
L 244.386236 58.760806 
" clip-path="url(#p1232360031)" style="fill: none; stroke: #000000; stroke-width: 2"/>
    <path d="M 162.885639 49.194973 
L 164.899417 49.89305 
L 173.430946 48.976824 
L 174.164151 49.173158 
L 174.221591 49.663993 
L 174.11009 50.307533 
L 174.333092 50.972887 
L 174.880461 51.889113 
L 175.154146 52.728986 
L 175.657591 53.328896 
L 176.880725 53.557952 
L 177.455125 53.198007 
L 177.81328 52.358133 
L 178.056555 51.496445 
L 178.299831 50.972887 
L 179.147915 50.285718 
L 179.752725 50.002124 
L 180.5704 49.89305 
L 182.442268 50.612941 
L 183.851237 52.510837 
L 184.753383 55.172255 
L 185.10816 58.204526 
L 183.091002 58.706268 
L 181.154936 59.797013 
L 176.31984 60.036977 
L 174.363501 59.022584 
L 171.596245 54.572345 
L 169.460829 53.557952 
L 160.111625 52.728986 
L 156.614543 51.834575 
L 155.830656 51.354648 
L 155.276529 50.220273 
L 155.10083 49.064083 
L 155.506289 48.22421 
L 156.705771 48.060598 
L 158.587775 47.078928 
L 160.709676 47.842449 
L 162.885639 49.194973 
" clip-path="url(#p1232360031)" style="fill: none; stroke: #000000; stroke-width: 2"/>
    <path d="M 52.137947 25.525809 
L 51.485834 25.711235 
L 50.350549 25.373104 
L 47.62046 24.086025 
L 46.481797 23.824246 
L 45.735077 23.497023 
L 45.691152 22.798946 
L 46.380432 22.166314 
L 46.863604 21.577312 
L 46.802785 20.933773 
L 46.235142 19.635786 
L 46.282446 18.479596 
L 47.410973 18.774098 
L 48.509091 19.897565 
L 49.661269 21.58822 
L 50.046455 22.362648 
L 50.37758 23.257059 
L 50.566794 23.671542 
L 51.566926 24.271452 
L 52.060234 24.860454 
L 52.137947 25.525809 
" clip-path="url(#p1232360031)" style="fill: none; stroke: #000000; stroke-width: 2"/>
   </g>
  </g>
 </g>
 <defs>
  <clipPath id="p1232360031">
   <rect x="0" y="-0" width="357.12" height="221.755158"/>
  </clipPath>
 </defs>
</svg>
