<?xml version="1.0" encoding="utf-8" standalone="no"?>
<!DOCTYPE svg PUBLIC "-//W3C//DTD SVG 1.1//EN"
  "http://www.w3.org/Graphics/SVG/1.1/DTD/svg11.dtd">
<svg xmlns:xlink="http://www.w3.org/1999/xlink" width="357.12pt" height="227.5474pt" viewBox="0 0 357.12 227.5474" xmlns="http://www.w3.org/2000/svg" version="1.1">
 <metadata>
  <rdf:RDF xmlns:dc="http://purl.org/dc/elements/1.1/" xmlns:cc="http://creativecommons.org/ns#" xmlns:rdf="http://www.w3.org/1999/02/22-rdf-syntax-ns#">
   <cc:Work>
    <dc:type rdf:resource="http://purl.org/dc/dcmitype/StillImage"/>
    <dc:date>2024-02-02T21:58:01.405286</dc:date>
    <dc:format>image/svg+xml</dc:format>
    <dc:creator>
     <cc:Agent>
      <dc:title>Matplotlib v3.8.2, https://matplotlib.org/</dc:title>
     </cc:Agent>
    </dc:creator>
   </cc:Work>
  </rdf:RDF>
 </metadata>
 <defs>
  <style type="text/css">*{stroke-linejoin: round; stroke-linecap: butt}</style>
 </defs>
 <g id="figure_1">
  <g id="patch_1">
   <path d="M 0 227.5474 
L 357.12 227.5474 
L 357.12 0 
L 0 0 
L 0 227.5474 
z
" style="fill: none"/>
  </g>
  <g id="axes_1">
   <g id="PatchCollection_1">
    <path d="M 326.46661 207.28301 
L 326.498723 207.288121 
L 326.531865 207.274704 
L 326.570771 207.287908 
L 326.661551 207.287056 
L 326.696751 207.301538 
L 326.730922 207.322409 
L 326.844345 207.347966 
L 326.877693 207.366708 
L 326.903013 207.387579 
L 326.957357 207.445294 
L 326.976295 207.482351 
L 326.985764 207.567965 
L 326.999762 207.597994 
L 327.061723 207.66146 
L 327.070369 207.679349 
L 327.074074 207.731314 
L 327.079632 207.757723 
L 327.08766 207.778594 
L 327.103511 207.790095 
L 327.147563 207.807984 
L 327.156826 207.822253 
L 327.161149 207.834393 
L 327.191409 207.885506 
L 327.226609 207.907868 
L 327.317183 207.944925 
L 327.348267 207.974954 
L 327.36 208.025641 
L 327.346414 208.069513 
L 327.3248 208.113385 
L 327.283424 208.30655 
L 327.27766 208.360858 
L 327.279101 208.409415 
L 327.274778 208.465214 
L 327.252546 208.511215 
L 327.200054 208.530383 
L 327.110098 208.527827 
L 327.065223 208.535068 
L 326.985764 208.576385 
L 326.92648 208.585117 
L 326.867812 208.581922 
L 326.827054 208.566162 
L 326.784031 208.581496 
L 326.720218 208.584052 
L 326.653111 208.577663 
L 326.601031 208.566162 
L 326.557185 208.544013 
L 326.477521 208.488002 
L 326.40115 208.470325 
L 326.297196 208.430286 
L 326.255408 208.405156 
L 326.235235 208.382581 
L 326.220825 208.359154 
L 326.204769 208.341264 
L 326.177597 208.334023 
L 326.095257 208.333384 
L 326.082906 208.325079 
L 326.064379 208.28866 
L 325.976687 208.18899 
L 325.946221 208.137238 
L 325.934694 208.076541 
L 325.934076 208.030539 
L 325.928107 207.990714 
L 325.821682 207.852708 
L 325.78854 207.796058 
L 325.768779 207.741111 
L 325.768779 207.692554 
L 325.783394 207.640163 
L 325.81036 207.597568 
L 325.89517 207.563067 
L 325.926666 207.522603 
L 325.937987 207.475323 
L 325.925636 207.437414 
L 325.940869 207.42208 
L 325.94581 207.410154 
L 325.940869 207.398227 
L 325.925636 207.383745 
L 325.964954 207.366708 
L 326.048323 207.366282 
L 326.119341 207.316872 
L 326.2305 207.256814 
L 326.35154 207.252129 
L 326.393739 207.256814 
L 326.46661 207.28301 
" clip-path="url(#p9d383b2ad2)" style="fill: none; stroke: #000000; stroke-width: 2"/>
    <path d="M 300.618422 186.16818 
L 300.60113 186.16818 
L 300.566959 186.059565 
L 300.60463 186.018035 
L 300.618422 186.007387 
L 300.635507 186.050407 
L 300.639418 186.087464 
L 300.633243 186.124947 
L 300.618422 186.16818 
" clip-path="url(#p9d383b2ad2)" style="fill: none; stroke: #000000; stroke-width: 2"/>
    <path d="M 300.131792 185.79761 
L 300.116147 185.80911 
L 300.132615 185.807619 
L 300.140232 185.812731 
L 300.143937 185.820611 
L 300.149495 185.827 
L 300.18346 185.856603 
L 300.229777 185.913253 
L 300.254479 185.932847 
L 300.289679 185.941365 
L 300.36852 185.940727 
L 300.411336 185.953718 
L 300.454153 185.982895 
L 300.472268 186.01335 
L 300.47268 186.049555 
L 300.461564 186.096622 
L 300.401867 186.18607 
L 300.379635 186.200126 
L 300.381076 186.230793 
L 300.397339 186.261461 
L 300.442831 186.291064 
L 300.437273 186.326418 
L 300.4206 186.360919 
L 300.411336 186.375188 
L 300.388487 186.430135 
L 300.347111 186.47997 
L 300.329202 186.533 
L 300.375107 186.597317 
L 300.364814 186.61542 
L 300.35411 186.629263 
L 300.341347 186.639698 
L 300.323233 186.65056 
L 300.308205 186.622874 
L 300.290914 186.625642 
L 300.268682 186.641615 
L 300.237187 186.65056 
L 300.20878 186.642893 
L 300.190253 186.629263 
L 300.173579 186.621596 
L 300.149495 186.63267 
L 300.152789 186.594762 
L 300.142702 186.569418 
L 300.118617 186.557704 
L 300.081564 186.561112 
L 300.081564 186.545139 
L 300.127263 186.522777 
L 300.131792 186.47997 
L 300.109148 186.438866 
L 300.061803 186.41331 
L 300.068802 186.399254 
L 300.088152 186.386689 
L 300.116147 186.384133 
L 300.131586 186.393717 
L 300.176667 186.447811 
L 300.219278 186.473368 
L 300.242951 186.461441 
L 300.248921 186.427366 
L 300.237187 186.384133 
L 300.217014 186.351974 
L 300.190253 186.321306 
L 300.116147 186.257628 
L 300.151554 186.242933 
L 300.168022 186.241229 
L 300.168022 186.223339 
L 300.1532 186.20119 
L 300.142084 186.162856 
L 300.133439 186.087038 
L 300.124175 186.049981 
L 300.101944 186.034008 
L 300.073536 186.02485 
L 300.046982 186.007387 
L 300.028867 185.983534 
L 300.017957 185.959681 
L 300.012399 185.930291 
L 300.011164 185.889613 
L 300.133439 185.755654 
L 300.143319 185.772266 
L 300.146407 185.779933 
L 300.149495 185.791221 
L 300.138379 185.793989 
L 300.131792 185.79761 
" clip-path="url(#p9d383b2ad2)" style="fill: none; stroke: #000000; stroke-width: 2"/>
    <path d="M 49.95084 137.699442 
L 49.908417 137.658161 
L 50.254518 137.836737 
L 51.488099 138.258362 
L 51.396756 138.18666 
L 51.276899 138.121327 
L 51.62094 138.227522 
L 52.275773 138.511367 
L 53.605782 139.815821 
L 53.670522 139.72254 
L 53.837466 139.752995 
L 53.844053 139.941155 
L 53.682255 140.293729 
L 53.956859 139.898986 
L 54.140066 140.107911 
L 54.481468 140.374977 
L 54.595097 140.694541 
L 54.640076 141.121229 
L 54.426403 141.317056 
L 54.738884 141.019961 
L 54.805579 140.450476 
L 54.927237 140.474009 
L 55.137615 140.805499 
L 55.266272 141.155624 
L 55.327512 141.182245 
L 55.271315 141.264239 
L 55.280887 141.403948 
L 55.431261 141.791343 
L 55.344804 142.086947 
L 55.055647 142.320926 
L 54.959833 142.536628 
L 54.51122 143.186779 
L 53.489814 144.957435 
L 52.977281 146.21108 
L 52.062277 146.97057 
L 51.306484 146.887534 
L 51.421644 146.767173 
L 51.131718 146.514145 
L 51.125967 146.529698 
L 50.816957 146.758924 
L 50.379977 146.695228 
L 49.937116 146.577031 
L 49.734377 146.731741 
L 49.641962 146.731471 
L 49.639478 146.795573 
L 49.57582 146.876174 
L 48.861071 147.027234 
L 48.637026 146.995047 
L 48.386838 146.876174 
L 48.190896 146.786918 
L 47.928159 146.570133 
L 48.005412 146.512387 
L 48.168413 146.5109 
L 48.344878 146.301418 
L 48.413373 146.283161 
L 48.575329 146.094506 
L 49.02368 145.208569 
L 49.054006 145.19153 
L 49.002243 145.100515 
L 49.031262 144.67195 
L 49.042634 144.561191 
L 49.037928 144.282062 
L 49.476869 143.615209 
L 49.35635 143.130656 
L 48.473763 141.595245 
L 48.465267 141.371022 
L 48.344225 140.92278 
L 48.328539 140.270871 
L 48.273769 140.213666 
L 48.349715 139.50942 
L 48.803687 138.868804 
L 49.329966 138.430656 
L 49.651421 137.623952 
L 49.95084 137.699442 
L 49.95084 137.699442 
" clip-path="url(#p9d383b2ad2)" style="fill: none; stroke: #000000; stroke-width: 2"/>
    <path d="M 31.831264 113.966426 
L 31.876036 114.057471 
L 31.963831 114.001992 
L 32.08343 113.985912 
L 31.938306 114.106348 
L 32.047818 114.369261 
L 32.191913 114.572968 
L 32.195927 114.901157 
L 32.075402 114.938533 
L 32.135099 114.81107 
L 32.035879 114.813945 
L 31.510344 114.668166 
L 31.733279 114.592987 
L 31.788241 114.541448 
L 31.760452 114.497363 
L 31.613886 114.434324 
L 31.510344 114.380655 
L 31.322711 114.136696 
L 31.296157 114.014557 
L 31.222977 113.80478 
L 31.434385 113.725235 
L 31.831264 113.966426 
L 31.831264 113.966426 
" clip-path="url(#p9d383b2ad2)" style="fill: none; stroke: #000000; stroke-width: 2"/>
    <path d="M 30.21287 111.172668 
L 30.190741 111.186511 
L 30.163466 111.170218 
L 30.172935 111.136356 
L 30.198049 111.123045 
L 30.207106 111.132203 
L 30.219766 111.152329 
L 30.21287 111.172668 
" clip-path="url(#p9d383b2ad2)" style="fill: none; stroke: #000000; stroke-width: 2"/>
    <path d="M 30.305503 111.14775 
L 30.279051 111.156695 
L 30.271332 111.144981 
L 30.284506 111.132629 
L 30.298092 111.124536 
L 30.311164 111.098021 
L 30.3265 111.091313 
L 30.341424 111.097382 
L 30.345232 111.10441 
L 30.346364 111.108563 
L 30.348937 111.114739 
L 30.334939 111.127305 
L 30.305503 111.14775 
" clip-path="url(#p9d383b2ad2)" style="fill: none; stroke: #000000; stroke-width: 2"/>
    <path d="M 31.16925 111.095359 
L 31.082793 111.116443 
L 31.006423 111.104091 
L 30.973281 111.036046 
L 30.970708 111.018796 
L 30.964429 110.997818 
L 30.955783 110.980141 
L 30.946623 110.972794 
L 30.938286 110.964169 
L 30.94899 110.945001 
L 30.973281 110.910287 
L 30.980588 110.872591 
L 30.998394 110.844479 
L 31.044093 110.79262 
L 31.099467 110.761846 
L 31.161222 110.775689 
L 31.211552 110.818709 
L 31.240886 110.893569 
L 31.259824 110.909009 
L 31.278865 110.92988 
L 31.287408 110.963849 
L 31.285658 110.99654 
L 31.277939 111.020074 
L 31.261471 111.040519 
L 31.232446 111.063626 
L 31.16925 111.095359 
" clip-path="url(#p9d383b2ad2)" style="fill: none; stroke: #000000; stroke-width: 2"/>
    <path d="M 31.677185 109.964588 
L 31.604623 109.995149 
L 31.546367 109.986843 
L 31.579509 109.96906 
L 31.679141 109.884617 
L 31.740484 109.859699 
L 31.805327 109.879612 
L 31.677185 109.964588 
" clip-path="url(#p9d383b2ad2)" style="fill: none; stroke: #000000; stroke-width: 2"/>
    <path d="M 30.248688 110.047327 
L 30.252496 110.050202 
L 30.252805 110.04754 
L 30.263612 110.038808 
L 30.27164 110.049031 
L 30.298195 110.076078 
L 30.310443 110.047753 
L 30.334939 110.02784 
L 30.366743 110.022729 
L 30.382697 110.038808 
L 30.388975 110.051799 
L 30.373228 110.11026 
L 30.392063 110.162119 
L 30.375286 110.167123 
L 30.329587 110.177453 
L 30.312399 110.204287 
L 30.317854 110.325681 
L 30.350069 110.417258 
L 30.367361 110.560162 
L 30.346467 110.69838 
L 30.266803 110.794643 
L 30.150601 110.863646 
L 30.020297 110.919125 
L 30.016283 110.903791 
L 30.001462 110.865563 
L 30.020297 110.847673 
L 30.002389 110.812533 
L 29.980157 110.79294 
L 29.95422 110.776008 
L 29.924577 110.749494 
L 29.906154 110.718506 
L 29.897096 110.688477 
L 29.886598 110.663879 
L 29.864778 110.649503 
L 29.8339 110.556754 
L 29.831842 110.350385 
L 29.794274 110.256571 
L 29.806522 110.217598 
L 29.794995 110.185971 
L 29.775027 110.157859 
L 29.761235 110.129747 
L 29.76 110.085023 
L 29.770087 110.003455 
L 29.761235 109.96906 
L 29.785937 109.947869 
L 29.828342 109.873223 
L 29.864778 109.842236 
L 29.911712 109.830096 
L 29.935178 109.845004 
L 29.951749 109.867792 
L 29.977069 109.879612 
L 30.040368 109.891858 
L 30.133618 109.92423 
L 30.220384 109.970018 
L 30.263612 110.022729 
L 30.227691 110.038808 
L 30.248688 110.047327 
" clip-path="url(#p9d383b2ad2)" style="fill: none; stroke: #000000; stroke-width: 2"/>
    <path d="M 30.884868 109.895585 
L 30.921406 109.915391 
L 30.938904 109.895904 
L 30.964841 109.909641 
L 30.989337 109.911558 
L 31.015068 109.910599 
L 31.044093 109.915391 
L 31.068383 109.930193 
L 31.123242 109.976834 
L 31.138167 109.986843 
L 31.164515 110.000047 
L 31.301612 110.095672 
L 31.350192 110.109089 
L 31.364396 110.123997 
L 31.335989 110.147637 
L 31.314786 110.147211 
L 31.243768 110.12996 
L 31.224521 110.120802 
L 31.1851 110.110154 
L 30.739229 110.211741 
L 30.653904 110.249437 
L 30.609132 110.256571 
L 30.554581 110.247307 
L 30.504766 110.227927 
L 30.461743 110.202583 
L 30.427778 110.175323 
L 30.401841 110.143164 
L 30.391136 110.110792 
L 30.392063 110.076717 
L 30.401635 110.039234 
L 30.401841 110.039021 
L 30.401841 110.038808 
L 30.443422 109.901974 
L 30.467507 109.872904 
L 30.514235 109.861723 
L 30.520822 109.852458 
L 30.524733 109.830522 
L 30.525454 109.806137 
L 30.522881 109.788567 
L 30.512485 109.776853 
L 30.494885 109.765885 
L 30.473888 109.757473 
L 30.453715 109.753001 
L 30.439614 109.659506 
L 30.427778 109.636079 
L 30.426646 109.61031 
L 30.448569 109.576234 
L 30.488298 109.528848 
L 30.49859 109.511704 
L 30.522881 109.494028 
L 30.601104 109.451859 
L 30.608205 109.44334 
L 30.616337 109.446748 
L 30.698471 109.505847 
L 30.742523 109.549613 
L 30.772371 109.603601 
L 30.783487 109.672604 
L 30.777311 109.741287 
L 30.78112 109.767163 
L 30.800572 109.80816 
L 30.82548 109.845111 
L 30.853064 109.873223 
L 30.884868 109.895585 
" clip-path="url(#p9d383b2ad2)" style="fill: none; stroke: #000000; stroke-width: 2"/>
    <path d="M 210.048482 41.121498 
L 210.048277 41.12416 
L 209.99702 41.050046 
L 210.061657 41.121498 
L 210.048482 41.121498 
" clip-path="url(#p9d383b2ad2)" style="fill: none; stroke: #000000; stroke-width: 2"/>
    <path d="M 209.978905 40.957936 
L 210.068656 41.240975 
L 210.080595 41.141091 
L 210.18846 41.319668 
L 210.0878 42.619325 
L 209.861159 42.960399 
L 209.719122 43.739874 
L 209.685157 43.727095 
L 209.546826 43.795353 
L 209.73806 43.803126 
L 209.729003 43.84029 
L 209.230022 44.337152 
L 209.086133 44.305313 
L 209.149123 44.223851 
L 208.780446 44.081373 
L 208.43647 43.972119 
L 208.471053 43.938044 
L 208.280847 43.813029 
L 208.299374 43.778847 
L 208.34075 43.688867 
L 208.38439 43.705692 
L 208.646643 43.543408 
L 208.587152 43.541278 
L 207.969808 43.3988 
L 208.127695 43.340872 
L 208.273231 42.921425 
L 208.195625 42.920147 
L 207.848768 42.969982 
L 207.866883 42.890651 
L 207.795659 42.825481 
L 207.920198 42.815898 
L 208.193155 42.628802 
L 208.099082 42.48132 
L 207.905171 42.403905 
L 207.72814 42.341291 
L 207.743784 42.269839 
L 207.764781 42.168784 
L 207.743784 42.153557 
L 207.69191 42.134922 
L 207.857825 42.077952 
L 208.054824 42.009056 
L 208.012625 41.982328 
L 207.701585 41.75743 
L 207.795659 41.715901 
L 207.877587 41.646259 
L 208.013448 41.528912 
L 208.211476 41.255776 
L 208.263556 41.283888 
L 208.968593 41.011392 
L 208.976209 40.960598 
L 209.287454 40.826532 
L 209.52727 40.90661 
L 209.581203 40.978487 
L 209.704713 40.676601 
L 209.69442 40.361829 
L 209.753293 40.260455 
L 209.727356 40.239264 
L 209.760498 40.097106 
L 210.015958 40.15333 
L 209.99455 40.193901 
L 210.019663 40.327434 
L 210.063304 40.644655 
L 209.978905 40.957936 
L 209.978905 40.957936 
" clip-path="url(#p9d383b2ad2)" style="fill: none; stroke: #000000; stroke-width: 2"/>
    <path d="M 201.888626 40.082045 
L 201.891673 40.120423 
L 201.836092 40.139487 
L 201.801303 40.152478 
L 201.765897 40.160997 
L 201.734607 40.153011 
L 201.674087 40.128199 
L 201.670382 40.114037 
L 201.696731 40.103814 
L 201.767132 40.10637 
L 201.788952 40.096893 
L 201.797598 40.0888 
L 201.805832 40.086883 
L 201.81283 40.088161 
L 201.84408 40.086534 
L 201.848237 40.068674 
L 201.865559 40.060186 
L 201.888626 40.082045 
" clip-path="url(#p9d383b2ad2)" style="fill: none; stroke: #000000; stroke-width: 2"/>
    <path d="M 182.826038 32.272006 
L 182.854651 32.282548 
L 182.886558 32.274562 
L 182.920935 32.271687 
L 182.956341 32.298095 
L 182.966634 32.33068 
L 182.962517 32.360283 
L 182.964369 32.385733 
L 182.992365 32.40522 
L 182.992365 32.42311 
L 182.979808 32.446323 
L 183.006157 32.464639 
L 183.078925 32.496265 
L 183.09776 32.519905 
L 183.101877 32.541309 
L 183.081395 32.652267 
L 183.055149 32.721056 
L 183.018096 32.762692 
L 182.973427 32.747997 
L 182.937197 32.656952 
L 182.916406 32.622451 
L 182.888719 32.585607 
L 182.740404 32.464426 
L 182.686883 32.436846 
L 182.632333 32.389567 
L 182.59034 32.339199 
L 182.601558 32.315772 
L 182.607219 32.288618 
L 182.578709 32.227921 
L 182.523027 32.137196 
L 182.601558 32.144862 
L 182.687501 32.177341 
L 182.766444 32.223342 
L 182.826038 32.272006 
" clip-path="url(#p9d383b2ad2)" style="fill: none; stroke: #000000; stroke-width: 2"/>
    <path d="M 182.363802 31.622337 
L 182.364934 31.637884 
L 182.348672 31.653218 
L 182.288358 31.63469 
L 182.26242 31.633731 
L 182.306472 31.688997 
L 182.373168 31.68772 
L 182.445833 31.664399 
L 182.507382 31.653218 
L 182.507382 31.671108 
L 182.471358 31.671108 
L 182.471358 31.690595 
L 182.513352 31.705183 
L 182.767988 31.734786 
L 182.827067 31.762259 
L 182.875133 31.802724 
L 182.904467 31.851281 
L 182.881 31.852772 
L 182.862165 31.857032 
L 182.835507 31.867574 
L 182.823156 31.857351 
L 182.81204 31.854157 
L 182.697176 31.838716 
L 182.45242 31.724564 
L 182.310589 31.744157 
L 182.271787 31.732869 
L 182.16917 31.648533 
L 182.141381 31.633731 
L 182.141381 31.617439 
L 182.287328 31.590924 
L 182.332924 31.597952 
L 182.351554 31.608281 
L 182.363802 31.622337 
" clip-path="url(#p9d383b2ad2)" style="fill: none; stroke: #000000; stroke-width: 2"/>
    <path d="M 180.310344 30.417558 
L 180.337516 30.451208 
L 180.280804 30.435022 
L 180.078351 30.433212 
L 180.049223 30.385187 
L 180.068881 30.361653 
L 180.115301 30.35601 
L 180.164808 30.36176 
L 180.263513 30.391682 
L 180.310344 30.417558 
" clip-path="url(#p9d383b2ad2)" style="fill: none; stroke: #000000; stroke-width: 2"/>
    <path d="M 180.537705 29.718906 
L 180.623853 29.751171 
L 180.651437 29.770658 
L 180.663582 29.807396 
L 180.669552 29.860425 
L 180.657201 29.895246 
L 180.615414 29.877889 
L 180.578463 29.818577 
L 180.525045 29.759158 
L 180.46082 29.727744 
L 180.392272 29.752768 
L 180.352131 29.712197 
L 180.312917 29.611888 
L 180.269997 29.572488 
L 180.414298 29.566844 
L 180.460203 29.572488 
L 180.511871 29.595596 
L 180.518458 29.625305 
L 180.508577 29.660019 
L 180.511665 29.697502 
L 180.537705 29.718906 
" clip-path="url(#p9d383b2ad2)" style="fill: none; stroke: #000000; stroke-width: 2"/>
    <path d="M 178.198321 28.791842 
L 178.228581 28.802703 
L 178.304334 28.800148 
L 178.329448 28.820273 
L 178.318847 28.86915 
L 178.251534 28.8831 
L 178.05402 28.870109 
L 177.9231 28.842422 
L 177.878842 28.820273 
L 177.887282 28.779064 
L 177.867726 28.735937 
L 177.840348 28.694194 
L 177.825424 28.656392 
L 177.846729 28.641697 
L 177.856919 28.625085 
L 177.873696 28.624766 
L 177.896133 28.639887 
L 177.92804 28.645211 
L 178.041875 28.687166 
L 178.104865 28.722094 
L 178.111967 28.729335 
L 178.198321 28.791842 
" clip-path="url(#p9d383b2ad2)" style="fill: none; stroke: #000000; stroke-width: 2"/>
    <path d="M 173.312366 25.802363 
L 173.320703 25.807155 
L 173.336759 25.805558 
L 173.336759 25.825045 
L 173.206867 25.872005 
L 173.162404 25.878713 
L 173.162404 25.860824 
L 173.170947 25.859865 
L 173.188753 25.861782 
L 173.196987 25.860824 
L 173.182062 25.835054 
L 173.157669 25.82973 
L 173.093444 25.842934 
L 173.093444 25.825045 
L 173.197192 25.784154 
L 173.254831 25.772973 
L 173.302176 25.789265 
L 173.307528 25.795335 
L 173.312366 25.802363 
" clip-path="url(#p9d383b2ad2)" style="fill: none; stroke: #000000; stroke-width: 2"/>
    <path d="M 192.494188 19.022292 
L 192.635098 19.253886 
L 192.668038 19.360858 
L 192.595099 19.422932 
L 192.781499 19.682721 
L 192.923194 19.744119 
L 193.41259 19.968342 
L 193.592977 19.825126 
L 194.035054 19.796185 
L 194.333868 20.316171 
L 194.4238 20.480348 
L 194.750848 20.495089 
L 194.924961 20.468853 
L 194.896465 20.519026 
L 195.316582 20.743654 
L 195.427951 21.027922 
L 195.575136 20.902016 
L 196.252239 20.923519 
L 196.703989 21.176277 
L 196.581118 21.273106 
L 196.5487 21.485022 
L 196.626345 21.4669 
L 196.694055 21.588343 
L 196.72595 21.650958 
L 196.665298 21.671108 
L 196.518897 21.793227 
L 196.544779 21.836638 
L 196.547916 21.875045 
L 196.527786 21.873828 
L 196.896925 21.912641 
L 197.370374 21.976878 
L 197.916239 21.681927 
L 197.919637 21.588749 
L 198.297665 21.433091 
L 198.400145 21.442558 
L 198.396747 21.488403 
L 198.370604 22.035165 
L 198.487986 22.367172 
L 198.696606 22.356488 
L 199.2111 22.638457 
L 199.48168 22.691605 
L 199.615793 22.801011 
L 199.741279 22.84875 
L 200.061792 23.069862 
L 200.63929 22.990208 
L 201.475604 23.21727 
L 201.88891 23.144448 
L 202.244468 23.204017 
L 202.563674 23.335603 
L 202.703539 23.605941 
L 203.033855 23.940922 
L 203.089017 24.018278 
L 203.376067 23.999345 
L 203.347309 23.913605 
L 203.387308 23.873034 
L 203.805857 24.042215 
L 203.890822 24.143778 
L 204.175257 24.125926 
L 204.659163 24.021794 
L 204.821511 23.983252 
L 204.941769 24.017466 
L 205.010263 24.114702 
L 205.266465 24.243312 
L 205.740175 24.299435 
L 206.819357 24.533801 
L 206.766286 24.575318 
L 206.26591 25.054056 
L 206.182253 25.179421 
L 205.811284 25.518324 
L 205.699653 25.854523 
L 205.672465 26.077529 
L 205.647368 26.187476 
L 205.537306 26.336101 
L 205.334698 26.573374 
L 205.239537 26.901797 
L 205.330253 27.148604 
L 205.197709 27.373503 
L 205.276399 28.068349 
L 205.264172 28.129767 
L 205.004251 28.240235 
L 205.061765 28.290611 
L 204.89994 28.38007 
L 204.831184 28.376554 
L 204.84701 28.479455 
L 204.635461 28.529187 
L 204.194603 28.455803 
L 204.240615 28.381558 
L 204.138134 28.38264 
L 203.785204 28.356945 
L 203.59619 28.547493 
L 203.489789 28.658117 
L 203.445868 28.732497 
L 203.895266 28.768267 
L 203.825987 28.812693 
L 203.662332 28.952663 
L 203.672528 29.017577 
L 202.964315 29.496044 
L 202.936865 29.603625 
L 202.346164 29.920958 
L 202.387993 29.995474 
L 202.284206 30.324843 
L 201.927354 30.49585 
L 201.561091 30.783904 
L 201.622266 30.832725 
L 201.3909 31.178728 
L 201.598737 31.335941 
L 201.362143 31.640224 
L 201.139405 31.753146 
L 201.16581 31.788984 
L 201.183325 31.878105 
L 201.149601 31.934905 
L 201.210514 31.908804 
L 201.899643 31.697699 
L 201.951929 31.587752 
L 201.865395 31.586264 
L 201.808927 31.415054 
L 202.094408 31.225926 
L 202.475311 31.102387 
L 202.806019 31.083251 
L 203.250058 31.242087 
L 203.200124 31.431891 
L 203.347309 31.571118 
L 203.212412 31.923545 
L 203.44979 32.002388 
L 203.407177 32.051208 
L 203.452404 32.161021 
L 203.510964 32.130863 
L 203.761153 32.322223 
L 203.755662 32.539954 
L 203.596975 32.669511 
L 203.231757 32.858707 
L 203.318029 33.069677 
L 203.696841 33.390053 
L 203.855267 33.60278 
L 204.187021 33.850534 
L 204.164538 33.890429 
L 204.057352 34.173885 
L 203.988596 34.257191 
L 203.858404 34.296139 
L 203.44979 34.481278 
L 203.471227 34.523743 
L 203.388877 34.552819 
L 202.941832 34.527935 
L 202.778308 34.622601 
L 202.822751 34.672368 
L 203.099997 34.933375 
L 203.139211 35.134607 
L 203.4443 35.271061 
L 203.785204 35.33043 
L 203.807948 35.489739 
L 203.922716 35.718019 
L 203.739715 35.69895 
L 203.617105 35.817959 
L 203.610308 35.89315 
L 203.432274 36.267486 
L 203.575276 36.368508 
L 203.472534 36.425848 
L 203.520114 36.620995 
L 203.83383 36.876728 
L 204.048464 36.940424 
L 204.746481 37.188584 
L 205.441622 37.04956 
L 205.406852 37.134624 
L 205.500183 37.362228 
L 205.463582 37.38319 
L 204.991963 37.862266 
L 204.932461 38.145941 
L 204.812623 38.129223 
L 204.649034 38.274923 
L 204.544333 38.327634 
L 204.361212 38.362946 
L 204.369572 38.391014 
L 204.199542 38.410405 
L 204.119793 38.468514 
L 204.10068 38.693806 
L 203.962927 38.65969 
L 203.767565 38.69083 
L 203.633678 38.786208 
L 203.666352 38.806736 
L 203.581783 38.952251 
L 203.208941 39.03222 
L 203.103139 39.05998 
L 203.009003 39.215626 
L 202.903013 39.303148 
L 202.748367 39.423607 
L 202.800931 39.435671 
L 203.019351 39.432612 
L 202.944311 39.500448 
L 202.845169 39.656574 
L 202.02825 39.840978 
L 201.742407 39.842652 
L 201.640138 40.001415 
L 201.722733 40.008385 
L 200.948672 39.81215 
L 201.102674 39.941741 
L 200.699353 39.804548 
L 200.598607 39.781704 
L 199.724161 39.571616 
L 199.60191 39.562304 
L 199.619086 39.489285 
L 199.614145 39.347659 
L 199.468336 39.197044 
L 199.137135 39.265499 
L 198.75948 39.190636 
L 198.790333 39.056102 
L 199.287873 38.808416 
L 199.078317 38.856015 
L 198.780658 38.682231 
L 198.764396 38.717371 
L 198.814829 38.856548 
L 198.853529 39.003924 
L 198.681438 39.035869 
L 198.390778 39.024369 
L 198.382471 39.13835 
L 198.359421 39.232878 
L 198.302468 39.12766 
L 198.072739 38.953024 
L 197.995546 38.63165 
L 197.9517 38.611843 
L 198.038157 38.745802 
L 198.141699 39.075482 
L 198.269627 39.220901 
L 198.196191 39.223868 
L 197.625278 39.112052 
L 197.660816 39.001831 
L 197.492448 38.934495 
L 196.654226 38.913624 
L 196.491193 38.791378 
L 196.526599 38.723973 
L 196.461139 38.683082 
L 196.041205 38.733663 
L 194.809603 39.371619 
L 194.283244 39.55307 
L 193.807113 40.146408 
L 193.785499 40.527095 
L 193.796409 41.292194 
L 194.123016 41.615112 
L 194.013878 41.629625 
L 193.75637 41.554569 
L 193.622518 41.516094 
L 193.077699 41.672495 
L 192.775486 41.745996 
L 192.571048 41.821458 
L 192.085573 41.72544 
L 191.601667 41.666612 
L 191.398797 41.737206 
L 191.093709 41.816455 
L 190.431769 41.308843 
L 190.478042 41.274493 
L 190.541569 41.269963 
L 190.410593 41.201465 
L 190.432553 41.148317 
L 189.564345 41.008618 
L 189.413501 40.877438 
L 188.901098 40.793997 
L 188.778749 40.713193 
L 188.242296 40.61731 
L 187.795251 40.532652 
L 187.730416 40.643681 
L 187.745318 40.834162 
L 187.737998 40.943839 
L 187.704796 40.953035 
L 186.881946 40.913614 
L 186.733977 40.958512 
L 186.63934 40.87 
L 186.261051 40.890218 
L 185.852044 40.896371 
L 185.187229 40.574169 
L 184.927237 40.679722 
L 184.699662 40.697776 
L 184.550124 40.658963 
L 184.39196 40.491743 
L 183.690936 40.263666 
L 182.761684 39.945453 
L 182.709921 39.846393 
L 182.648877 39.93619 
L 182.578161 40.050871 
L 182.345096 39.969931 
L 182.334116 39.891088 
L 182.536332 39.586265 
L 182.423656 39.433515 
L 182.183402 39.385235 
L 181.604074 39.261291 
L 181.532703 39.147556 
L 181.651148 39.108706 
L 182.037838 38.969209 
L 182.358347 38.526974 
L 182.583135 37.799251 
L 182.915583 36.151492 
L 182.973427 35.966527 
L 183.075528 35.768783 
L 183.434943 35.718628 
L 183.406947 35.67007 
L 183.151693 35.486276 
L 183.100848 35.481591 
L 183.070279 35.532278 
L 182.888719 35.868347 
L 183.209125 33.572196 
L 183.399125 33.402565 
L 183.389656 33.499999 
L 183.446264 33.565807 
L 184.138744 34.039988 
L 184.534182 34.84502 
L 184.655016 34.997613 
L 184.724388 35.168204 
L 184.568765 34.828834 
L 184.712346 34.842251 
L 184.827828 34.898582 
L 184.417465 34.633965 
L 183.94751 33.546746 
L 182.921758 33.035509 
L 182.964781 32.819556 
L 183.182365 32.783776 
L 183.579758 33.016022 
L 183.185041 32.648646 
L 183.163529 32.621386 
L 183.234239 32.567717 
L 183.372364 32.369654 
L 183.267175 32.228241 
L 183.362689 32.256779 
L 183.424136 32.174785 
L 183.382451 32.141348 
L 183.251324 31.994185 
L 183.065339 31.710294 
L 183.212213 31.428107 
L 183.005128 31.463248 
L 183.00801 31.545881 
L 182.939976 31.532463 
L 182.610822 31.349415 
L 182.384798 31.321835 
L 182.271272 31.178931 
L 181.622021 30.988748 
L 180.812206 30.163484 
L 180.688902 30.039641 
L 180.759406 29.840832 
L 181.036583 29.52244 
L 180.941892 29.418297 
L 180.407917 29.286468 
L 180.607797 29.198724 
L 180.694872 28.908763 
L 181.274751 28.943797 
L 181.223083 28.963177 
L 181.708272 29.107785 
L 180.992222 28.822616 
L 180.420679 28.959344 
L 180.218329 29.000767 
L 179.973573 28.922074 
L 179.957517 28.963177 
L 179.646889 28.856053 
L 179.914494 28.85584 
L 179.775133 28.759364 
L 179.76762 28.820273 
L 179.744667 28.744456 
L 179.610453 28.656392 
L 180.026682 28.550652 
L 179.813319 28.471852 
L 179.766385 28.373886 
L 179.794483 28.356209 
L 180.097289 28.334699 
L 179.419218 28.29892 
L 179.501764 28.274641 
L 179.558785 28.209685 
L 179.36158 28.276771 
L 179.211722 28.318407 
L 178.766879 28.228852 
L 178.717887 28.197971 
L 178.952762 28.229065 
L 178.955541 28.21224 
L 178.970053 28.173905 
L 179.009371 28.206597 
L 179.196077 28.191795 
L 179.177242 28.173905 
L 179.28768 28.028978 
L 179.183108 28.069869 
L 178.847573 28.039095 
L 178.692156 28.100856 
L 178.709241 28.065077 
L 178.594583 27.978824 
L 178.552384 27.922173 
L 178.640282 28.191795 
L 178.607346 28.156016 
L 178.479718 28.144941 
L 178.467676 28.110653 
L 178.458516 28.070401 
L 178.448635 28.138233 
L 178.381116 28.120343 
L 178.176501 28.301156 
L 178.274486 28.407854 
L 178.016967 27.878195 
L 178.189779 27.743384 
L 178.13636 27.762871 
L 178.120613 27.689822 
L 178.039714 27.70047 
L 177.999676 27.706007 
L 178.085927 27.79865 
L 178.0709 27.806743 
L 177.921247 27.941554 
L 177.582109 27.779163 
L 177.685755 27.725494 
L 177.773447 27.598883 
L 177.572228 27.721661 
L 177.20036 27.671932 
L 176.993481 27.618263 
L 176.330437 27.554372 
L 176.055421 27.304131 
L 175.98852 27.294973 
L 175.993049 27.388041 
L 175.866039 27.421691 
L 175.597817 27.272611 
L 175.620872 27.392514 
L 175.38929 27.559377 
L 175.014232 27.490693 
L 175.089058 27.447673 
L 174.98006 27.214896 
L 174.575977 26.988081 
L 174.436204 26.975409 
L 174.117034 26.936116 
L 174.229428 26.866155 
L 175.261458 26.666494 
L 175.214318 26.605159 
L 175.052726 26.487918 
L 174.694135 26.453736 
L 174.548701 26.578644 
L 174.554877 26.475672 
L 174.374552 26.291132 
L 174.49868 26.23757 
L 174.617867 26.148335 
L 174.584828 26.245024 
L 175.005586 26.289216 
L 175.484599 26.23757 
L 175.20382 26.142585 
L 175.277411 26.093069 
L 174.930348 26.164627 
L 174.949183 26.148335 
L 174.81116 26.148335 
L 174.955667 26.02758 
L 175.225537 25.912895 
L 174.641952 26.078481 
L 173.993009 26.111704 
L 174.016064 25.815887 
L 174.063616 25.789265 
L 173.99939 25.756681 
L 174.132575 25.555423 
L 174.158924 25.567243 
L 174.49868 25.555423 
L 174.421589 25.464271 
L 174.454731 25.448298 
L 174.730879 25.39463 
L 176.232041 25.267912 
L 176.195811 25.303691 
L 176.352669 25.37674 
L 176.332084 25.303265 
L 176.390751 25.162171 
L 176.519305 25.165046 
L 177.151985 25.107118 
L 177.115241 25.090932 
L 177.017359 24.973372 
L 177.042987 24.951223 
L 177.451497 24.93163 
L 177.831908 24.823866 
L 177.948008 24.766045 
L 177.962829 24.854747 
L 177.93051 24.964108 
L 178.098278 24.805018 
L 178.256989 24.762211 
L 178.275 24.785958 
L 178.225082 24.984873 
L 178.170943 25.053556 
L 178.467676 24.892656 
L 178.464588 24.912888 
L 178.381116 24.964108 
L 179.067421 25.526672 
L 179.498368 25.583109 
L 179.649153 25.477156 
L 180.30458 25.267912 
L 180.265365 25.326372 
L 180.182305 25.39463 
L 180.383009 25.341067 
L 180.615414 25.501754 
L 180.610473 25.438076 
L 180.89187 25.352887 
L 181.171209 25.644871 
L 180.971946 25.314233 
L 181.171209 25.23373 
L 181.155358 25.214243 
L 181.431815 25.23373 
L 181.369545 25.36524 
L 181.533814 25.430515 
L 182.645405 25.358957 
L 182.45242 25.287399 
L 182.452008 25.293468 
L 182.426071 25.307737 
L 182.39437 25.253856 
L 182.240909 25.144601 
L 182.124295 24.952714 
L 182.174317 24.594816 
L 182.213634 24.321254 
L 182.081581 24.390896 
L 182.045454 24.237024 
L 182.035265 24.008293 
L 182.022914 23.835466 
L 182.068921 23.83323 
L 182.160113 23.851439 
L 181.847838 23.69235 
L 181.864203 23.68053 
L 181.882421 23.672863 
L 181.778981 23.604818 
L 181.63571 23.476823 
L 181.483792 23.29782 
L 181.388175 23.105614 
L 181.325391 22.999447 
L 181.424507 22.846854 
L 181.347931 22.693727 
L 181.155358 22.651133 
L 181.175532 22.589371 
L 181.181707 22.530378 
L 181.273311 22.529952 
L 181.757058 22.645383 
L 182.292886 22.666254 
L 182.557609 22.560194 
L 182.904467 22.667319 
L 182.895821 22.847705 
L 182.885632 23.134791 
L 183.09529 23.44509 
L 183.086953 23.493222 
L 183.190599 23.491944 
L 183.285701 23.511963 
L 183.278291 23.432312 
L 183.364542 23.386949 
L 185.081126 23.540714 
L 185.585871 23.652737 
L 186.258795 23.485129 
L 186.487494 23.338817 
L 187.324275 23.133619 
L 186.726486 23.210928 
L 186.270528 23.025323 
L 186.278351 23.006476 
L 186.726486 22.499497 
L 188.001522 22.135316 
L 189.266471 21.788705 
L 189.781302 21.46254 
L 189.924162 21.246587 
L 190.307455 21.286626 
L 190.108604 21.137652 
L 189.980153 20.997091 
L 190.11128 20.833103 
L 190.150186 20.838321 
L 190.010619 20.731303 
L 190.150186 20.37383 
L 190.057141 20.145099 
L 190.095429 19.829156 
L 190.12219 19.680928 
L 190.136188 19.502671 
L 190.158008 19.496601 
L 190.374562 19.386069 
L 190.452374 19.338151 
L 191.474831 19.139129 
L 192.494188 19.022292 
M 191.036194 41.583103 
L 191.134492 41.58263 
L 191.080899 41.501285 
L 191.025999 41.483502 
L 191.036194 41.583103 
L 191.036194 41.583103 
" clip-path="url(#p9d383b2ad2)" style="fill: none; stroke: #000000; stroke-width: 2"/>
   </g>
  </g>
 </g>
 <defs>
  <clipPath id="p9d383b2ad2">
   <rect x="0" y="-0" width="357.12" height="227.5474"/>
  </clipPath>
 </defs>
</svg>
