<?xml version="1.0" encoding="utf-8" standalone="no"?>
<!DOCTYPE svg PUBLIC "-//W3C//DTD SVG 1.1//EN"
  "http://www.w3.org/Graphics/SVG/1.1/DTD/svg11.dtd">
<svg xmlns:xlink="http://www.w3.org/1999/xlink" width="170.713692pt" height="266.112pt" viewBox="0 0 170.713692 266.112" xmlns="http://www.w3.org/2000/svg" version="1.1">
 <metadata>
  <rdf:RDF xmlns:dc="http://purl.org/dc/elements/1.1/" xmlns:cc="http://creativecommons.org/ns#" xmlns:rdf="http://www.w3.org/1999/02/22-rdf-syntax-ns#">
   <cc:Work>
    <dc:type rdf:resource="http://purl.org/dc/dcmitype/StillImage"/>
    <dc:date>2024-02-02T21:58:01.433294</dc:date>
    <dc:format>image/svg+xml</dc:format>
    <dc:creator>
     <cc:Agent>
      <dc:title>Matplotlib v3.8.2, https://matplotlib.org/</dc:title>
     </cc:Agent>
    </dc:creator>
   </cc:Work>
  </rdf:RDF>
 </metadata>
 <defs>
  <style type="text/css">*{stroke-linejoin: round; stroke-linecap: butt}</style>
 </defs>
 <g id="figure_1">
  <g id="patch_1">
   <path d="M 0 266.112 
L 170.713692 266.112 
L 170.713692 0 
L 0 0 
L 0 266.112 
z
" style="fill: none"/>
  </g>
  <g id="axes_1">
   <g id="PatchCollection_1">
    <path d="M 92.863548 193.592331 
L 93.980352 193.700095 
L 95.14369 193.529469 
L 90.11807 198.190255 
L 90.11807 199.555263 
L 99.319015 198.459664 
L 102.085644 202.150575 
L 108.490347 203.12045 
L 110.766259 205.590037 
L 111.011618 208.553543 
L 109.860971 210.313685 
L 108.160382 210.663918 
L 106.793989 209.424634 
L 105.512203 207.763275 
L 103.794693 206.973007 
L 102.225244 207.188534 
L 101.408793 208.607425 
L 103.422425 209.155224 
L 104.636526 211.01415 
L 105.47836 213.151466 
L 106.438642 214.624238 
L 107.475071 214.839766 
L 109.750983 214.282986 
L 110.766259 214.624238 
L 111.789996 215.917404 
L 112.213028 217.318334 
L 111.899985 218.503736 
L 110.766259 219.285024 
L 110.766259 220.793718 
L 115.089646 223.11064 
L 114.713147 224.996507 
L 113.778247 225.328779 
L 112.585297 225.07733 
L 111.409268 225.167133 
L 107.847339 227.196685 
L 106.032532 227.430174 
L 103.667783 226.675827 
L 103.667783 228.328205 
L 104.852273 228.606595 
L 105.867549 229.387883 
L 106.645928 230.788813 
L 107.149336 232.854286 
L 108.346516 230.339797 
L 110.182475 229.531568 
L 114.319727 229.836899 
L 114.065908 230.654108 
L 113.600573 232.854286 
L 115.893406 233.842121 
L 117.454394 237.066056 
L 117.962032 240.83779 
L 117.086356 243.531886 
L 114.713147 243.936 
L 112.407623 241.699901 
L 108.570723 235.853713 
L 99.132881 226.77461 
L 94.661433 220.227958 
L 95.14369 214.624238 
L 92.398213 211.202737 
L 89.19163 205.976191 
L 86.80573 200.543098 
L 86.501147 196.546856 
L 86.027352 195.478198 
L 85.088221 192.15548 
L 87.211841 192.15548 
L 86.983404 191.347251 
L 86.945331 191.131724 
L 86.501147 190.521062 
L 90.321126 187.92575 
L 92.148624 187.65634 
L 93.667308 189.156054 
L 91.56907 191.526858 
L 90.828764 192.15548 
L 91.814428 193.125355 
L 92.863548 193.592331 
" clip-path="url(#pcb27b402f0)" style="fill: none; stroke: #000000; stroke-width: 2"/>
    <path d="M 97.635348 132.535142 
L 99.733586 132.975177 
L 103.058617 132.418397 
L 104.310792 132.975177 
L 105.292226 134.097717 
L 106.764377 136.737931 
L 107.923485 137.492278 
L 115.829951 139.782259 
L 117.086356 141.344835 
L 117.771668 144.469986 
L 120.783655 147.541255 
L 121.477428 149.696531 
L 120.030659 152.040395 
L 119.332656 153.540108 
L 119.675312 154.222612 
L 119.903749 155.390054 
L 119.675312 161.739139 
L 119.180364 162.448584 
L 118.423137 164.00218 
L 117.475546 165.555775 
L 116.443348 166.26522 
L 115.707272 165.645578 
L 108.930301 151.286048 
L 107.534295 149.696531 
L 98.007616 147.954349 
L 96.33664 147.244904 
L 94.953325 145.673348 
L 94.369541 142.853528 
L 93.925358 139.000971 
L 91.687519 133.639721 
L 90.828764 130.110455 
L 93.227355 130.550491 
L 97.635348 132.535142 
" clip-path="url(#pcb27b402f0)" style="fill: none; stroke: #000000; stroke-width: 2"/>
    <path d="M 24.404289 88.809968 
L 23.109812 88.998554 
L 14.585718 88.181346 
L 14.226141 86.600809 
L 17.022382 84.957411 
L 20.059751 84.804745 
L 23.004054 86.439163 
L 24.429671 87.75029 
L 25.394184 88.414834 
L 24.404289 88.809968 
" clip-path="url(#pcb27b402f0)" style="fill: none; stroke: #000000; stroke-width: 2"/>
    <path d="M 64.54579 80.961169 
L 66.208305 84.580238 
L 67.274346 86.133833 
L 69.859071 87.058806 
L 72.604548 86.88818 
L 75.168122 87.444959 
L 77.211366 90.659913 
L 75.925349 93.479734 
L 74.977757 96.335475 
L 73.725583 98.616476 
L 71.525817 99.694115 
L 69.664476 99.334902 
L 67.963888 98.508712 
L 66.27176 98.293185 
L 64.435801 99.694115 
L 65.264944 100.475402 
L 66.119469 101.014221 
L 67.041678 101.283631 
L 68.048494 101.337513 
L 61.973756 104.3549 
L 60.1801 105.863594 
L 61.068467 103.465849 
L 61.533802 102.711502 
L 60.814648 99.640233 
L 59.630159 96.928176 
L 58.174929 95.599089 
L 56.626632 96.676727 
L 57.489617 97.404133 
L 58.771404 98.921807 
L 59.714765 100.825635 
L 59.528631 102.711502 
L 58.428748 102.962951 
L 53.792318 99.694115 
L 47.32839 98.320126 
L 43.123453 95.32968 
L 41.659762 95.168034 
L 41.659762 93.677301 
L 51.584091 93.677301 
L 49.265876 91.854296 
L 46.592314 90.462346 
L 41.304415 89.276944 
L 38.491253 86.88818 
L 36.536845 81.859201 
L 36.32956 77.512726 
L 38.816987 77.090651 
L 42.514287 80.871366 
L 43.783382 81.616732 
L 44.557531 81.778378 
L 46.973043 81.616732 
L 47.785264 81.140775 
L 48.047544 80.108039 
L 48.132151 79.075302 
L 48.428273 78.599345 
L 49.629684 78.105427 
L 51.448721 75.950151 
L 58.750252 74.073264 
L 58.750252 75.447253 
L 58.048019 75.447253 
L 58.048019 77.090651 
L 62.075283 79.883531 
L 63.403604 80.242743 
L 64.54579 80.961169 
" clip-path="url(#pcb27b402f0)" style="fill: none; stroke: #000000; stroke-width: 2"/>
    <path d="M 151.258876 55.67259 
L 149.617512 56.292232 
L 147.887312 55.959961 
L 146.656289 53.732841 
L 145.577557 50.823218 
L 145.201059 48.371591 
L 146.436312 46.65635 
L 148.187664 45.794239 
L 151.741133 42.220072 
L 154.871569 42.309876 
L 156.487551 43.405474 
L 156.377563 44.824365 
L 153.331733 48.021358 
L 154.017044 50.284399 
L 154.029735 52.331912 
L 153.543249 53.714881 
L 152.604118 54.864362 
L 151.258876 55.67259 
" clip-path="url(#pcb27b402f0)" style="fill: none; stroke: #000000; stroke-width: 2"/>
    <path d="M 61.415353 41.842899 
L 61.89761 42.058427 
L 62.396788 41.986584 
L 63.005954 42.291915 
L 70.129811 43.998175 
L 73.645207 46.153452 
L 75.14274 49.152879 
L 76.46683 54.514129 
L 81.483989 64.491264 
L 81.467067 69.556164 
L 84.961311 70.732585 
L 90.90491 75.905249 
L 96.158966 77.575589 
L 97.068485 78.868755 
L 97.170013 80.781563 
L 96.510083 83.125426 
L 95.520188 84.741883 
L 94.141104 86.169754 
L 92.702795 87.19351 
L 91.539458 87.642526 
L 100.638875 87.211471 
L 102.187172 89.968429 
L 103.642401 93.282167 
L 104.133118 95.62603 
L 103.278594 96.676727 
L 97.212316 96.676727 
L 97.212316 98.320126 
L 100.892694 99.990465 
L 107.923485 99.819839 
L 110.766259 102.711502 
L 109.666376 105.423558 
L 108.845694 109.033646 
L 109.065671 112.176758 
L 112.50492 114.170389 
L 112.306095 116.020335 
L 111.773075 118.876076 
L 112.187646 122.566987 
L 108.799161 123.851173 
L 105.626421 120.438652 
L 102.627125 115.840728 
L 96.07013 111.368529 
L 90.536872 101.849391 
L 86.856494 99.694115 
L 85.371652 99.182236 
L 84.402909 97.646602 
L 83.88681 95.078231 
L 83.721827 91.477123 
L 83.049207 89.456551 
L 81.437455 87.319235 
L 79.529581 85.523171 
L 77.985514 84.481454 
L 69.816768 83.125426 
L 67.99773 82.155551 
L 66.940151 80.054157 
L 67.041678 77.961742 
L 68.695733 77.090651 
L 67.803136 74.450437 
L 66.381748 74.728828 
L 64.710772 76.2016 
L 63.005954 77.090651 
L 61.89761 76.578773 
L 58.97869 73.857736 
L 58.048019 72.56457 
L 57.066585 71.280385 
L 56.740851 70.454196 
L 56.626632 68.801817 
L 56.87199 66.431012 
L 57.464235 65.829331 
L 58.158008 65.766469 
L 58.750252 65.030083 
L 59.325576 62.003715 
L 59.418643 59.740675 
L 59.875517 58.20504 
L 61.533802 57.369871 
L 59.554013 54.110015 
L 59.558243 49.47617 
L 60.878103 40.783221 
L 61.415353 41.842899 
" clip-path="url(#pcb27b402f0)" style="fill: none; stroke: #000000; stroke-width: 2"/>
    <path d="M 92.88893 39.274528 
L 93.337343 41.528588 
L 91.518306 43.091163 
L 89.157788 44.465152 
L 87.99022 46.135491 
L 88.032523 49.835383 
L 88.337106 52.816849 
L 89.178939 55.259496 
L 90.828764 57.369871 
L 89.783875 50.643612 
L 90.24498 48.021358 
L 97.986464 45.291341 
L 100.550038 45.461967 
L 102.187172 48.317709 
L 101.36649 48.533237 
L 99.412082 49.961107 
L 107.534295 51.335096 
L 108.52419 52.367833 
L 107.661205 54.594952 
L 105.782943 56.714307 
L 103.667783 57.369871 
L 103.667783 59.013269 
L 104.869194 59.417383 
L 106.840523 61.419994 
L 107.923485 62.012696 
L 108.773779 61.842069 
L 110.749338 60.656667 
L 111.798457 60.378277 
L 117.484006 62.488653 
L 121.883538 65.550941 
L 122.205043 66.960851 
L 120.830189 67.77806 
L 118.211621 68.04747 
L 111.9719 67.149438 
L 110.055566 68.04747 
L 110.055566 69.556164 
L 122.771906 76.363246 
L 126.511508 80.242743 
L 121.096699 79.506357 
L 115.732654 77.090651 
L 115.732654 78.599345 
L 118.017027 79.093262 
L 120.132186 80.763602 
L 123.609509 84.481454 
L 123.609509 86.133833 
L 121.731247 85.846463 
L 119.590705 86.142813 
L 117.67014 87.220451 
L 116.443348 89.276944 
L 116.895992 89.699019 
L 117.348636 90.345602 
L 117.860505 90.659913 
L 117.860505 92.285351 
L 116.984829 93.210324 
L 116.591409 94.117336 
L 116.637942 95.194975 
L 117.086356 96.676727 
L 113.279069 94.018553 
L 112.255332 89.42961 
L 112.225719 83.924674 
L 111.409268 78.599345 
L 109.598691 74.621064 
L 106.815141 70.112943 
L 103.667783 67.221281 
L 100.757324 68.04747 
L 103.193988 70.921172 
L 106.286351 73.66915 
L 108.951452 77.369041 
L 110.055566 83.125426 
L 108.194225 87.893975 
L 103.976597 84.463493 
L 95.790929 74.073264 
L 91.56484 74.342674 
L 90.473417 73.318917 
L 89.826178 72.349043 
L 87.643334 70.02314 
L 86.856494 69.556164 
L 85.61278 68.370762 
L 79.081167 57.315989 
L 75.468474 46.135491 
L 74.584338 44.806404 
L 73.395618 43.5761 
L 72.456487 42.291915 
L 72.299965 40.783221 
L 73.175641 39.238606 
L 74.267064 39.481075 
L 75.451553 40.388087 
L 76.559897 40.783221 
L 78.818887 39.813347 
L 82.605023 36.885763 
L 87.364132 35.844046 
L 88.633228 36.275101 
L 89.707729 37.155172 
L 90.621478 38.21485 
L 91.594452 39.059 
L 92.88893 39.274528 
" clip-path="url(#pcb27b402f0)" style="fill: none; stroke: #000000; stroke-width: 2"/>
    <path d="M 144.968391 52.84379 
L 143.026675 56.22937 
L 139.777789 56.723288 
L 136.444298 55.277456 
L 134.252992 52.84379 
L 133.542299 54.487188 
L 137.40458 59.87538 
L 139.430903 61.635522 
L 141.414923 60.378277 
L 141.723736 64.239815 
L 142.087544 65.50604 
L 142.83631 66.556737 
L 142.83631 68.04747 
L 141.097649 69.277774 
L 138.982489 69.807612 
L 136.935015 69.268793 
L 135.352875 67.293123 
L 132.50587 61.276309 
L 130.877197 59.552088 
L 129.282367 60.378277 
L 131.511745 67.885824 
L 132.450876 70.247648 
L 132.848526 71.801243 
L 132.146293 71.855125 
L 131.160629 71.280385 
L 130.124201 70.355412 
L 129.840769 69.628006 
L 129.633484 68.819777 
L 129.282367 68.04747 
L 125.766972 63.135235 
L 124.574022 59.767616 
L 125.030896 55.995882 
L 125.758511 54.648834 
L 126.160391 54.792519 
L 126.439592 55.546866 
L 126.833012 55.995882 
L 127.657924 55.699531 
L 127.822907 54.846401 
L 127.831367 53.607117 
L 128.190945 52.089443 
L 128.394 50.194596 
L 128.093647 44.114919 
L 127.86521 42.291915 
L 126.596114 37.756854 
L 125.724668 33.688769 
L 126.261919 30.482795 
L 129.282367 28.596928 
L 128.508219 30.240327 
L 131.418678 38.915315 
L 134.972147 45.084794 
L 139.397061 49.494131 
L 144.968391 52.84379 
" clip-path="url(#pcb27b402f0)" style="fill: none; stroke: #000000; stroke-width: 2"/>
    <path d="M 124.891296 51.335096 
L 123.35569 52.57438 
L 121.096699 51.44286 
L 118.998461 48.398532 
L 117.966263 46.297137 
L 115.157331 39.364331 
L 114.015144 34.28147 
L 114.378952 29.414137 
L 116.096462 27.627054 
L 117.784359 29.324334 
L 118.698108 32.530308 
L 123.169556 42.956458 
L 124.311742 46.243255 
L 124.785538 48.07524 
L 124.891296 51.335096 
" clip-path="url(#pcb27b402f0)" style="fill: none; stroke: #000000; stroke-width: 2"/>
    <path d="M 118.279306 57.576418 
L 116.688706 58.025434 
L 114.810445 56.938815 
L 113.317142 54.54107 
L 112.49223 50.966903 
L 111.451571 47.698067 
L 110.715495 46.297137 
L 108.65956 43.091163 
L 105.909852 37.891558 
L 105.165316 36.059573 
L 103.316667 30.482795 
L 103.126302 27.384585 
L 104.1585 26.441651 
L 105.596809 27.734817 
L 106.984354 30.294208 
L 109.85251 37.640109 
L 117.094817 51.936777 
L 117.771668 52.870731 
L 118.710799 55.259496 
L 118.279306 57.576418 
" clip-path="url(#pcb27b402f0)" style="fill: none; stroke: #000000; stroke-width: 2"/>
    <path d="M 137.874146 38.663866 
L 138.46639 40.073776 
L 139.574734 39.795386 
L 140.71692 38.295673 
L 141.960634 38.21485 
L 142.620564 38.699787 
L 143.415864 39.588839 
L 144.135018 41.824938 
L 143.635841 43.764687 
L 142.95899 45.273381 
L 141.11034 46.135491 
L 137.781079 44.896207 
L 134.688715 41.797997 
L 132.213978 37.433562 
L 130.674142 33.742651 
L 129.701169 28.138932 
L 128.364388 26.764943 
L 127.366032 23.936142 
L 128.753577 22.176 
L 131.198702 22.966268 
L 132.696235 24.672529 
L 133.724202 27.465408 
L 134.523733 30.689343 
L 135.801289 33.114029 
L 137.290362 35.215423 
L 137.886837 37.155172 
L 137.874146 38.663866 
" clip-path="url(#pcb27b402f0)" style="fill: none; stroke: #000000; stroke-width: 2"/>
   </g>
  </g>
 </g>
 <defs>
  <clipPath id="pcb27b402f0">
   <rect x="0" y="-0" width="170.713692" height="266.112"/>
  </clipPath>
 </defs>
</svg>
