<?xml version="1.0" encoding="utf-8" standalone="no"?>
<!DOCTYPE svg PUBLIC "-//W3C//DTD SVG 1.1//EN"
  "http://www.w3.org/Graphics/SVG/1.1/DTD/svg11.dtd">
<svg xmlns:xlink="http://www.w3.org/1999/xlink" width="357.12pt" height="127.167206pt" viewBox="0 0 357.12 127.167206" xmlns="http://www.w3.org/2000/svg" version="1.1">
 <metadata>
  <rdf:RDF xmlns:dc="http://purl.org/dc/elements/1.1/" xmlns:cc="http://creativecommons.org/ns#" xmlns:rdf="http://www.w3.org/1999/02/22-rdf-syntax-ns#">
   <cc:Work>
    <dc:type rdf:resource="http://purl.org/dc/dcmitype/StillImage"/>
    <dc:date>2024-02-02T21:58:01.460299</dc:date>
    <dc:format>image/svg+xml</dc:format>
    <dc:creator>
     <cc:Agent>
      <dc:title>Matplotlib v3.8.2, https://matplotlib.org/</dc:title>
     </cc:Agent>
    </dc:creator>
   </cc:Work>
  </rdf:RDF>
 </metadata>
 <defs>
  <style type="text/css">*{stroke-linejoin: round; stroke-linecap: butt}</style>
 </defs>
 <g id="figure_1">
  <g id="patch_1">
   <path d="M 0 127.167206 
L 357.12 127.167206 
L 357.12 0 
L 0 0 
L 0 127.167206 
z
" style="fill: none"/>
  </g>
  <g id="axes_1">
   <g id="PatchCollection_1">
    <path d="M 229.335259 116.521743 
L 229.278063 116.569939 
L 229.146222 116.569452 
L 229.108415 116.494481 
L 229.160764 116.463324 
L 229.221837 116.454561 
L 229.295513 116.478902 
L 229.335259 116.521743 
" clip-path="url(#p5a990f38ad)" style="fill: none; stroke: #000000; stroke-width: 2"/>
    <path d="M 228.326094 115.985259 
L 228.253387 116.061691 
L 228.113791 116.052928 
L 228.110883 116.002785 
L 228.195222 115.959457 
L 228.326094 115.985259 
" clip-path="url(#p5a990f38ad)" style="fill: none; stroke: #000000; stroke-width: 2"/>
    <path d="M 229.084179 115.999864 
L 229.03377 116.034915 
L 228.931011 116.025179 
L 228.865091 115.963838 
L 228.868968 115.905419 
L 228.938767 115.883999 
L 229.043464 115.924405 
L 229.084179 115.999864 
" clip-path="url(#p5a990f38ad)" style="fill: none; stroke: #000000; stroke-width: 2"/>
    <path d="M 230.248452 82.535322 
L 230.069109 82.665792 
L 230.039057 82.473982 
L 230.219369 82.344485 
L 230.248452 82.535322 
" clip-path="url(#p5a990f38ad)" style="fill: none; stroke: #000000; stroke-width: 2"/>
    <path d="M 229.026984 82.371261 
L 228.811773 82.494428 
L 228.78269 82.312355 
L 228.997901 82.1887 
L 229.026984 82.371261 
" clip-path="url(#p5a990f38ad)" style="fill: none; stroke: #000000; stroke-width: 2"/>
    <path d="M 215.762424 64.27003 
L 215.637368 64.311411 
L 215.68487 64.172178 
L 215.846763 64.028077 
L 216.031922 63.941422 
L 216.149222 63.969658 
L 216.113353 64.080167 
L 215.95146 64.186783 
L 215.762424 64.27003 
" clip-path="url(#p5a990f38ad)" style="fill: none; stroke: #000000; stroke-width: 2"/>
    <path d="M 327.317346 64.013472 
L 327.111829 64.383461 
L 327.034275 64.47109 
L 326.871413 64.506142 
L 326.726969 64.469143 
L 326.584465 64.411697 
L 326.419664 64.381514 
L 326.161798 64.383461 
L 325.987303 64.36058 
L 325.806991 64.3007 
L 325.75852 64.094285 
L 325.901024 63.892739 
L 326.465226 63.405424 
L 326.694979 63.249152 
L 326.931517 63.190733 
L 327.115706 63.320716 
L 327.131217 63.394227 
L 327.111829 63.57484 
L 327.115706 63.655167 
L 327.168055 63.717481 
L 327.249486 63.741335 
L 327.32607 63.773953 
L 327.36 63.862555 
L 327.317346 64.013472 
" clip-path="url(#p5a990f38ad)" style="fill: none; stroke: #000000; stroke-width: 2"/>
    <path d="M 257.267129 58.451465 
L 257.260343 58.474832 
L 257.245801 58.447083 
L 257.225444 58.426636 
L 257.219627 58.411058 
L 257.24871 58.402295 
L 257.284578 58.4169 
L 257.283609 58.433939 
L 257.267129 58.451465 
" clip-path="url(#p5a990f38ad)" style="fill: none; stroke: #000000; stroke-width: 2"/>
    <path d="M 163.858761 47.367856 
L 163.795749 47.431144 
L 163.799626 47.34741 
L 163.80932 47.275846 
L 163.832587 47.214019 
L 163.887843 47.161441 
L 163.914018 47.244202 
L 163.902385 47.309437 
L 163.858761 47.367856 
" clip-path="url(#p5a990f38ad)" style="fill: none; stroke: #000000; stroke-width: 2"/>
    <path d="M 266.598756 47.123956 
L 266.486303 47.188704 
L 266.520233 47.066997 
L 266.554163 47.029024 
L 266.635594 47.015393 
L 266.627838 47.085983 
L 266.598756 47.123956 
" clip-path="url(#p5a990f38ad)" style="fill: none; stroke: #000000; stroke-width: 2"/>
    <path d="M 269.646609 44.163556 
L 269.725132 44.220515 
L 269.841462 44.153819 
L 269.927741 44.161609 
L 270.01305 44.198608 
L 270.131319 44.220515 
L 270.42893 44.207371 
L 270.539444 44.220515 
L 270.548169 44.245343 
L 270.74593 44.375813 
L 270.782768 44.383602 
L 270.859352 44.488757 
L 270.827362 44.514072 
L 270.708123 44.547176 
L 270.773074 44.664989 
L 270.873894 44.709777 
L 270.993132 44.693225 
L 271.115279 44.628963 
L 271.273294 45.251616 
L 271.278141 45.371376 
L 271.184108 45.401072 
L 270.923334 45.378678 
L 270.870985 45.408861 
L 270.894251 45.537384 
L 271.003796 45.759864 
L 271.027062 45.902505 
L 270.982469 46.094315 
L 270.871955 46.206285 
L 270.728481 46.256915 
L 270.156524 46.338216 
L 269.92871 46.323611 
L 269.806563 46.18876 
L 269.549667 46.276389 
L 269.390683 46.168313 
L 269.276291 45.988187 
L 269.156083 45.861611 
L 269.204554 45.704853 
L 269.222004 45.551989 
L 269.185166 45.410809 
L 269.067866 45.289589 
L 269.101796 45.242366 
L 269.156083 45.118712 
L 268.82842 45.098265 
L 268.743111 44.912784 
L 268.822603 44.50677 
L 268.934086 44.391391 
L 269.163839 44.38701 
L 269.367417 44.331025 
L 269.399407 44.056941 
L 269.646609 44.163556 
" clip-path="url(#p5a990f38ad)" style="fill: none; stroke: #000000; stroke-width: 2"/>
    <path d="M 194.124991 39.891155 
L 194.064887 40.017244 
L 194.022233 39.571796 
L 194.037744 39.377552 
L 194.134686 39.476865 
L 194.169585 39.609769 
L 194.165707 39.751923 
L 194.124991 39.891155 
" clip-path="url(#p5a990f38ad)" style="fill: none; stroke: #000000; stroke-width: 2"/>
    <path d="M 162.25825 39.305015 
L 162.246617 39.358566 
L 162.188452 39.244648 
L 162.265036 39.23978 
L 162.276669 39.2612 
L 162.25825 39.305015 
" clip-path="url(#p5a990f38ad)" style="fill: none; stroke: #000000; stroke-width: 2"/>
    <path d="M 191.439701 39.173571 
L 191.603533 39.385828 
L 191.610319 39.566928 
L 191.536643 39.784053 
L 191.414496 39.882392 
L 191.276838 39.705187 
L 191.195407 39.705187 
L 191.094588 39.783566 
L 190.9579 39.776264 
L 190.799884 39.73245 
L 190.626358 39.705187 
L 190.662227 39.662346 
L 190.699065 39.644821 
L 190.789221 39.631189 
L 190.899734 39.576665 
L 191.212857 39.510456 
L 191.276838 39.427208 
L 191.225459 39.307936 
L 190.969533 39.345421 
L 190.870652 39.215438 
L 191.272961 39.118073 
L 191.439701 39.173571 
" clip-path="url(#p5a990f38ad)" style="fill: none; stroke: #000000; stroke-width: 2"/>
    <path d="M 194.225811 38.259309 
L 194.302395 38.316754 
L 194.386735 38.258822 
L 194.487554 38.271966 
L 194.617456 38.307018 
L 194.790013 38.316754 
L 194.668836 38.457934 
L 194.468166 38.597654 
L 194.245199 38.699401 
L 194.058102 38.724716 
L 194.051316 38.577207 
L 194.064887 38.455013 
L 194.139533 38.234967 
L 194.191881 38.244704 
L 194.225811 38.259309 
" clip-path="url(#p5a990f38ad)" style="fill: none; stroke: #000000; stroke-width: 2"/>
    <path d="M 176.812138 24.910004 
L 176.800505 24.955279 
L 176.766575 24.829677 
L 176.822801 24.845743 
L 176.828618 24.873492 
L 176.812138 24.910004 
" clip-path="url(#p5a990f38ad)" style="fill: none; stroke: #000000; stroke-width: 2"/>
    <path d="M 168.068948 24.880794 
L 168.000119 24.965016 
L 167.959403 24.810691 
L 167.989455 24.611579 
L 168.08155 24.46553 
L 168.221146 24.470399 
L 168.239565 24.57458 
L 168.169767 24.730365 
L 168.068948 24.880794 
" clip-path="url(#p5a990f38ad)" style="fill: none; stroke: #000000; stroke-width: 2"/>
    <path d="M 173.409477 20.137144 
L 173.35422 20.160025 
L 173.426926 20.050002 
L 173.464734 20.026148 
L 173.530654 20.043187 
L 173.501572 20.104527 
L 173.460856 20.125947 
L 173.409477 20.137144 
" clip-path="url(#p5a990f38ad)" style="fill: none; stroke: #000000; stroke-width: 2"/>
    <path d="M 31.19474 13.363423 
L 31.352755 13.427684 
L 31.608682 13.313279 
L 31.550517 13.451052 
L 31.410921 13.640914 
L 31.248058 13.812765 
L 31.120095 13.892118 
L 30.954324 13.836619 
L 30.865138 13.585903 
L 30.712939 13.639454 
L 30.601456 13.752398 
L 29.950976 14.78642 
L 29.811379 14.946587 
L 29.76 14.658871 
L 29.869544 14.248476 
L 30.061489 13.880434 
L 30.262159 13.721241 
L 30.345529 13.637507 
L 30.44441 13.237821 
L 30.503544 13.104917 
L 30.680948 13.004631 
L 30.753654 13.088365 
L 30.787584 13.401882 
L 30.808911 13.286017 
L 30.845749 13.167718 
L 30.896159 13.062563 
L 30.958202 12.986618 
L 31.062899 12.909212 
L 31.202495 12.831807 
L 31.306223 12.83132 
L 31.291682 12.986618 
L 31.163719 13.191572 
L 31.19474 13.363423 
" clip-path="url(#p5a990f38ad)" style="fill: none; stroke: #000000; stroke-width: 2"/>
    <path d="M 59.074261 10.730171 
L 58.963747 10.769604 
L 58.949206 10.690251 
L 59.039362 10.607491 
L 59.152784 10.597267 
L 59.172172 10.641082 
L 59.074261 10.730171 
" clip-path="url(#p5a990f38ad)" style="fill: none; stroke: #000000; stroke-width: 2"/>
   </g>
  </g>
 </g>
 <defs>
  <clipPath id="p5a990f38ad">
   <rect x="0" y="-0" width="357.12" height="127.167206"/>
  </clipPath>
 </defs>
</svg>
