<?xml version="1.0" encoding="utf-8" standalone="no"?>
<!DOCTYPE svg PUBLIC "-//W3C//DTD SVG 1.1//EN"
  "http://www.w3.org/Graphics/SVG/1.1/DTD/svg11.dtd">
<svg xmlns:xlink="http://www.w3.org/1999/xlink" width="246.704054pt" height="266.112pt" viewBox="0 0 246.704054 266.112" xmlns="http://www.w3.org/2000/svg" version="1.1">
 <metadata>
  <rdf:RDF xmlns:dc="http://purl.org/dc/elements/1.1/" xmlns:cc="http://creativecommons.org/ns#" xmlns:rdf="http://www.w3.org/1999/02/22-rdf-syntax-ns#">
   <cc:Work>
    <dc:type rdf:resource="http://purl.org/dc/dcmitype/StillImage"/>
    <dc:date>2024-02-02T21:58:01.519312</dc:date>
    <dc:format>image/svg+xml</dc:format>
    <dc:creator>
     <cc:Agent>
      <dc:title>Matplotlib v3.8.2, https://matplotlib.org/</dc:title>
     </cc:Agent>
    </dc:creator>
   </cc:Work>
  </rdf:RDF>
 </metadata>
 <defs>
  <style type="text/css">*{stroke-linejoin: round; stroke-linecap: butt}</style>
 </defs>
 <g id="figure_1">
  <g id="patch_1">
   <path d="M 0 266.112 
L 246.704054 266.112 
L 246.704054 0 
L 0 0 
L 0 266.112 
z
" style="fill: none"/>
  </g>
  <g id="axes_1">
   <g id="PatchCollection_1">
    <path d="M 32.087389 131.226722 
L 31.577115 131.460261 
L 31.092788 131.425662 
L 30.539271 131.050848 
L 30.227918 130.583772 
L 30.225035 130.139761 
L 30.323054 129.666919 
L 30.323054 129.113347 
L 30.161611 128.807729 
L 29.674401 128.294522 
L 29.553319 127.902409 
L 29.553319 127.510296 
L 29.631158 127.239276 
L 30.037647 126.694354 
L 30.435487 126.316656 
L 31.205221 125.846697 
L 31.507926 125.463233 
L 31.698197 125.814982 
L 31.712612 126.106184 
L 31.551169 126.316656 
L 31.245582 126.431984 
L 31.245582 126.694354 
L 32.528472 126.97114 
L 32.813879 128.190727 
L 32.684149 129.687101 
L 32.715861 130.80866 
L 32.087389 131.226722 
" clip-path="url(#pbf7aaa4ec5)" style="fill: none; stroke: #000000; stroke-width: 2"/>
    <path d="M 44.949486 75.774729 
L 44.792095 75.868865 
L 44.690883 75.762079 
L 44.949486 75.774729 
" clip-path="url(#pbf7aaa4ec5)" style="fill: none; stroke: #000000; stroke-width: 2"/>
    <path d="M 128.859599 23.615027 
L 129.40513 23.675444 
L 130.609692 23.51067 
L 133.71446 23.607704 
L 136.420148 23.371528 
L 139.103869 23.539963 
L 141.827864 23.404482 
L 143.259425 23.631504 
L 144.797164 23.697414 
L 145.503792 23.563764 
L 146.865789 23.107889 
L 147.934884 22.91016 
L 148.674463 22.514702 
L 149.011301 22.474424 
L 149.450655 22.633706 
L 150.611282 23.342234 
L 151.252006 23.472223 
L 153.20347 23.025502 
L 154.565468 23.118874 
L 157.153995 23.95556 
L 157.981445 23.763324 
L 158.545282 24.188075 
L 159.391039 24.499315 
L 164.183658 25.215167 
L 164.90127 25.074193 
L 166.248622 24.246661 
L 166.852734 24.416928 
L 167.661877 24.768446 
L 168.361182 24.922235 
L 168.665069 24.490161 
L 169.163003 24.695213 
L 169.613341 24.731829 
L 170.016082 24.583533 
L 170.378549 24.246661 
L 171.443983 24.629303 
L 172.059078 24.731829 
L 172.934125 24.389465 
L 173.501624 24.521285 
L 174.493832 24.949697 
L 176.339118 24.62198 
L 177.459471 23.64432 
L 177.767019 23.521655 
L 178.847097 23.569256 
L 179.835644 23.763324 
L 180.564239 24.246661 
L 180.893754 24.250323 
L 181.647979 23.983023 
L 182.047059 24.145966 
L 183.127137 25.019269 
L 183.463975 25.434865 
L 183.614088 25.954819 
L 183.467636 27.020358 
L 183.489604 30.020162 
L 183.365121 31.158934 
L 183.002654 32.008436 
L 181.527156 32.867092 
L 180.696045 33.701948 
L 180.373852 33.82919 
L 180.362868 34.127614 
L 180.564239 34.791288 
L 180.491013 35.149213 
L 179.593999 36.313617 
L 179.356016 36.868356 
L 178.934968 36.989191 
L 178.788517 37.150303 
L 179.246177 37.778276 
L 179.861273 39.101961 
L 179.810015 39.669516 
L 179.443886 40.970316 
L 178.810484 41.975438 
L 178.363808 42.235415 
L 178.623759 42.843248 
L 178.521243 43.462982 
L 178.279598 44.128486 
L 178.144131 44.874546 
L 178.356485 46.487502 
L 178.242985 47.338835 
L 177.635212 48.04004 
L 178.213695 49.068963 
L 178.869065 49.97522 
L 179.11071 49.712497 
L 179.513451 50.020991 
L 179.762418 50.439334 
L 179.806353 50.923586 
L 179.593999 51.426147 
L 180.322594 51.79872 
L 180.959658 53.512371 
L 181.527156 53.86755 
L 181.490544 54.163228 
L 181.647979 56.637586 
L 181.944543 57.067829 
L 181.867656 57.254573 
L 181.65164 57.379069 
L 181.318463 58.089429 
L 180.813206 58.429962 
L 179.432902 58.938931 
L 179.301096 59.433253 
L 179.037484 59.868989 
L 178.363808 59.93856 
L 178.722614 60.253462 
L 179.48416 60.652581 
L 179.593999 61.146903 
L 179.96745 61.196336 
L 180.688723 61.080994 
L 181.90793 61.172535 
L 182.640186 61.022407 
L 183.288234 60.740461 
L 183.947265 59.934898 
L 185.192101 59.682245 
L 185.4191 59.054272 
L 185.70468 58.788803 
L 186.396663 58.598397 
L 187.707402 58.55995 
L 188.944916 59.001179 
L 190.03964 59.211723 
L 191.108734 59.206231 
L 192.29499 58.986532 
L 192.75265 58.656984 
L 193.561794 57.569475 
L 194.832259 57.075153 
L 195.795177 56.368455 
L 198.037713 56.063623 
L 198.704066 55.639787 
L 198.883469 55.676404 
L 199.403371 55.911664 
L 199.901306 55.69105 
L 200.333337 54.843379 
L 200.695804 53.759532 
L 201.1974 53.638697 
L 208.497998 54.397574 
L 209.142384 54.782962 
L 210.222463 55.694712 
L 210.973026 55.740482 
L 212.876893 55.085963 
L 213.587182 55.155534 
L 214.982131 55.537261 
L 216.259957 56.452353 
L 216.314838 56.648571 
L 217.402239 57.309498 
L 217.614593 57.704956 
L 218.141818 59.91659 
L 218.237012 60.842987 
L 218.200399 63.515989 
L 218.48964 64.420415 
L 219.042494 65.160068 
L 220.741329 65.94366 
L 221.224619 66.665005 
L 221.777472 68.47752 
L 222.16923 69.305052 
L 222.667164 70.081321 
L 223.260292 70.780695 
L 223.933968 71.394021 
L 224.779724 71.820603 
L 225.050659 72.10438 
L 224.984756 72.585887 
L 224.658902 72.915435 
L 223.970581 73.453697 
L 224.091403 73.891264 
L 224.325725 75.540836 
L 223.113841 77.000002 
L 221.480908 78.400582 
L 220.455749 79.874394 
L 220.349572 81.692402 
L 220.11525 82.450363 
L 217.156933 85.053793 
L 216.680966 85.236876 
L 214.901583 85.332078 
L 212.913506 85.108718 
L 211.159751 85.346725 
L 210.083334 86.840677 
L 210.482414 87.580329 
L 210.702091 88.305335 
L 210.562962 89.037665 
L 209.90027 89.799287 
L 207.282452 91.241976 
L 206.528228 92.043876 
L 205.272408 94.859682 
L 204.067846 96.653889 
L 203.906749 97.49973 
L 204.082491 98.38951 
L 204.595071 100.352152 
L 204.745183 102.911643 
L 204.975844 103.153312 
L 205.814278 103.241191 
L 206.092535 103.676927 
L 206.037616 104.046753 
L 205.385908 105.046383 
L 205.455472 105.566337 
L 205.638536 105.961795 
L 205.675149 106.335282 
L 202.896235 109.854125 
L 202.522784 110.73292 
L 202.489833 111.736211 
L 204.338781 113.845319 
L 205.034425 113.629282 
L 205.279731 113.215516 
L 205.415198 112.981171 
L 205.689794 112.885968 
L 207.300759 113.167915 
L 207.842629 113.750117 
L 209.1314 113.409583 
L 210.551978 113.629282 
L 211.848073 114.259085 
L 212.770716 115.163512 
L 213.367505 116.375517 
L 213.803198 117.796236 
L 214.063149 119.257233 
L 214.125391 120.582749 
L 215.307985 120.062795 
L 215.915758 120.059133 
L 217.138627 120.458253 
L 218.837462 119.919991 
L 219.826008 120.205599 
L 221.173361 120.802448 
L 222.366939 121.549424 
L 223.150453 122.603978 
L 224.560047 123.574314 
L 224.99574 124.039343 
L 225.826851 125.749332 
L 226.145383 126.81121 
L 225.903738 127.960967 
L 224.464854 131.073366 
L 224.267145 131.941176 
L 224.274467 132.812648 
L 224.512451 133.713413 
L 224.662563 134.789937 
L 224.263484 135.547898 
L 223.637404 136.236288 
L 223.091873 137.107759 
L 222.905147 137.920645 
L 222.729406 139.451213 
L 222.355955 140.205512 
L 222.348632 140.714481 
L 223.827791 144.976638 
L 223.641065 145.892049 
L 224.035618 146.467582 
L 224.636934 147.060115 
L 224.911531 147.51782 
L 224.970111 147.836384 
L 224.933498 148.942201 
L 224.662563 150.077311 
L 224.208564 150.740069 
L 223.670356 151.223407 
L 223.571501 151.615203 
L 223.783855 152.292607 
L 224.303758 152.830869 
L 225.548594 153.65474 
L 225.746303 154.390731 
L 225.493675 154.797174 
L 224.633273 155.481901 
L 224.505128 155.815111 
L 224.446548 156.668275 
L 223.999871 157.693536 
L 224.464854 158.154903 
L 224.860273 158.79203 
L 224.874918 159.32663 
L 223.714291 159.546329 
L 223.487292 159.853907 
L 223.106518 160.622853 
L 222.436503 161.032957 
L 221.711569 161.289273 
L 221.393038 161.571219 
L 221.62736 161.834858 
L 222.315681 162.219331 
L 222.744051 163.654696 
L 224.365999 164.200282 
L 223.531227 164.705589 
L 223.102857 165.181603 
L 222.875857 165.946887 
L 222.766019 168.770016 
L 222.528035 169.982021 
L 222.79897 171.527236 
L 222.54268 172.014235 
L 221.525244 172.556743 
L 217.402239 174.167283 
L 216.973869 174.687237 
L 216.885998 175.002139 
L 216.904304 175.408581 
L 216.717579 175.741791 
L 216.739547 175.96149 
L 217.383933 176.657203 
L 217.34732 177.008721 
L 217.112998 177.708096 
L 216.750531 180.080842 
L 216.508886 180.322511 
L 215.707065 180.706984 
L 215.666791 181.05484 
L 215.879145 181.948282 
L 215.40684 182.464574 
L 214.191294 182.907634 
L 213.711666 183.281121 
L 213.825165 184.493126 
L 216.508886 186.763347 
L 216.772498 187.891134 
L 216.618724 187.79227 
L 214.575728 188.34884 
L 213.576198 189.139756 
L 213.286957 189.443672 
L 213.12586 189.802514 
L 213.140505 190.732572 
L 212.551039 191.30745 
L 212.250814 191.622352 
L 211.87004 192.713523 
L 211.657686 192.980823 
L 211.335493 193.028424 
L 210.083334 192.537764 
L 209.859996 192.578042 
L 207.95979 193.083349 
L 207.73279 192.874635 
L 207.626613 192.226524 
L 207.300759 191.988517 
L 206.956598 191.988517 
L 205.261424 192.665921 
L 204.3937 192.621982 
L 203.584557 192.354681 
L 203.006074 191.845713 
L 203.046348 191.669953 
L 203.071977 190.304159 
L 203.335589 189.992919 
L 204.071507 189.623093 
L 204.573103 188.553892 
L 204.99415 188.293915 
L 205.144263 188.063232 
L 204.660974 187.404135 
L 203.646798 186.704761 
L 203.529637 185.719778 
L 203.291654 185.371922 
L 202.643607 184.712825 
L 202.207914 184.061052 
L 201.402432 182.416973 
L 201.080239 180.952314 
L 200.772691 180.205338 
L 200.344321 179.535257 
L 199.483919 178.799266 
L 199.37042 178.755326 
L 199.289871 178.945732 
L 198.176841 180.754585 
L 198.081648 181.146382 
L 197.896753 182.215582 
L 197.611173 182.61104 
L 194.678485 185.587959 
L 194.575969 186.338596 
L 194.418534 186.653498 
L 194.06339 186.895166 
L 192.796586 187.378504 
L 192.445103 187.693405 
L 191.628637 188.63811 
L 190.12751 189.773221 
L 189.673511 190.72891 
L 189.30006 190.941286 
L 189.116996 190.882699 
L 188.820432 190.446964 
L 188.593433 190.388377 
L 187.912434 190.538505 
L 187.143565 190.414009 
L 186.462566 190.582444 
L 185.832825 190.509212 
L 179.308419 188.140126 
L 178.898355 188.195051 
L 178.221018 188.590509 
L 177.832922 188.671065 
L 177.093343 188.491644 
L 174.808702 187.455398 
L 173.929994 187.297948 
L 173.472334 187.433428 
L 172.421545 188.484321 
L 171.945578 188.509953 
L 171.843063 188.297577 
L 172.026127 187.968029 
L 172.586303 187.385827 
L 172.827948 186.777994 
L 172.926802 186.115236 
L 173.421076 185.511064 
L 173.333205 185.111945 
L 172.94877 185.082651 
L 172.696142 184.81169 
L 172.600948 184.526081 
L 172.421545 183.570392 
L 172.088369 183.163949 
L 171.118128 181.779846 
L 170.257727 182.219244 
L 169.75247 182.237552 
L 169.4376 180.992592 
L 168.888407 180.304203 
L 169.166665 179.645106 
L 169.327761 179.205709 
L 168.661408 179.033612 
L 168.584521 178.850529 
L 168.683375 178.458733 
L 168.544246 177.649509 
L 168.386811 177.437134 
L 167.628926 176.635233 
L 167.310394 175.884596 
L 166.530541 173.31412 
L 166.120477 172.449971 
L 165.523688 172.039867 
L 163.868939 171.442591 
L 161.529228 169.747676 
L 160.020779 169.121535 
L 158.278009 169.169136 
L 157.897235 169.308278 
L 155.945771 170.674073 
L 155.554014 171.355139 
L 155.312369 172.406031 
L 154.854709 172.655023 
L 154.232291 172.460956 
L 153.137567 171.300214 
L 152.742149 171.208673 
L 152.606681 171.688349 
L 152.903245 175.507446 
L 153.207132 176.93915 
L 153.943049 178.07426 
L 155.323353 178.700402 
L 155.165918 179.311897 
L 154.276226 180.85345 
L 154.210323 181.377065 
L 154.462952 182.841724 
L 154.217646 183.859662 
L 153.741679 185.07899 
L 153.485389 186.225085 
L 153.88813 187.005016 
L 139.825142 190.018551 
L 138.726757 189.897717 
L 137.643017 189.154402 
L 136.442116 187.664112 
L 135.435263 186.975723 
L 134.325895 187.52497 
L 132.832091 188.004645 
L 131.554303 188.257299 
L 130.767127 188.572201 
L 129.566226 189.678018 
L 128.97676 190.022213 
L 128.390955 189.974611 
L 127.746569 189.634078 
L 126.278394 188.381795 
L 125.915927 187.810578 
L 125.428977 187.561586 
L 123.638609 187.019662 
L 122.250983 186.997693 
L 121.969064 187.693405 
L 122.730611 189.758574 
L 122.858756 190.538505 
L 122.617111 193.119966 
L 122.891707 193.866941 
L 123.788722 195.298645 
L 124.121898 196.093222 
L 124.312285 196.997649 
L 124.312285 197.73364 
L 124.140205 198.469631 
L 123.814351 199.366734 
L 121.165835 203.835777 
L 120.812099 205.192414 
L 120.995163 206.023608 
L 121.602936 205.921082 
L 123.038159 204.914129 
L 124.045012 204.60655 
L 124.751639 204.837234 
L 125.330122 205.489007 
L 126.55299 207.264906 
L 129.247695 210.128313 
L 129.767597 210.94486 
L 129.767597 211.706483 
L 128.89255 212.244745 
L 127.219344 212.512045 
L 126.7507 213.39084 
L 126.574958 214.01332 
L 126.549329 216.803495 
L 127.127812 217.312464 
L 129.134195 218.150981 
L 129.881097 218.597702 
L 131.308997 219.77309 
L 132.597769 220.384585 
L 134.278298 220.845953 
L 135.647618 221.486741 
L 136.021069 222.629174 
L 135.545102 223.390797 
L 134.018347 224.533231 
L 133.538719 225.386394 
L 131.51769 230.161181 
L 131.418836 230.98139 
L 131.770319 231.721043 
L 132.502576 232.156778 
L 133.341009 232.42774 
L 134.022008 232.793905 
L 134.270975 233.544543 
L 133.992718 234.342781 
L 133.366638 235.089757 
L 132.60143 235.660974 
L 131.891141 235.931936 
L 131.23211 235.913628 
L 129.192776 235.331426 
L 128.482487 235.25087 
L 126.55299 235.499862 
L 125.784121 235.239885 
L 125.190993 234.599097 
L 122.379128 230.051332 
L 121.064727 229.044379 
L 119.289005 228.788064 
L 118.311442 229.458145 
L 117.64875 230.549316 
L 116.857913 231.563592 
L 115.506899 232.013974 
L 114.049709 232.306906 
L 112.907388 233.009942 
L 111.852939 233.877752 
L 110.644715 234.661345 
L 109.722072 235.448599 
L 109.139928 236.565401 
L 106.785271 242.908599 
L 106.232413 243.936 
L 104.678845 242.942217 
L 102.947543 241.135731 
L 102.395556 238.844531 
L 101.830508 237.578812 
L 101.648885 236.062256 
L 100.910288 235.242972 
L 99.72612 234.3798 
L 95.379716 230.688504 
L 89.668272 226.755168 
L 89.382145 225.160929 
L 89.422506 224.616007 
L 89.630074 224.001888 
L 89.756922 223.206129 
L 89.612777 222.522813 
L 89.278361 221.856797 
L 88.765078 221.440984 
L 87.978118 220.976526 
L 86.959906 220.187054 
L 86.358773 219.909498 
L 86.220475 219.215213 
L 82.801461 215.466387 
L 79.060041 212.32064 
L 72.728636 207.323721 
L 68.143313 203.986786 
L 66.008397 202.176912 
L 63.312142 200.131198 
L 57.03024 192.370452 
L 56.263389 191.012471 
L 56.909158 191.49973 
L 57.921056 192.578042 
L 58.685025 192.970155 
L 59.503768 193.062417 
L 59.988096 192.756799 
L 61.103778 191.496847 
L 60.8472 192.393518 
L 60.749181 192.774098 
L 60.861614 193.212343 
L 61.190265 193.050884 
L 61.366122 192.727967 
L 61.35459 193.373801 
L 61.464141 194.036934 
L 61.763962 194.405982 
L 62.314596 194.181093 
L 63.856948 194.800978 
L 64.381635 195.611153 
L 64.511366 196.378081 
L 64.75353 196.378081 
L 64.946684 195.873523 
L 65.154253 195.905238 
L 65.48002 196.115711 
L 65.557859 195.899472 
L 65.722184 195.873523 
L 65.964348 197.589019 
L 66.486152 197.153658 
L 67.172283 197.104644 
L 67.054084 197.603435 
L 67.192463 197.721646 
L 67.898774 197.326649 
L 68.169766 197.041214 
L 68.645445 196.115711 
L 69.155718 195.928304 
L 70.669241 195.789911 
L 71.064198 195.873523 
L 71.992492 195.778378 
L 72.315376 195.614037 
L 72.517179 195.167143 
L 71.568705 194.665468 
L 71.637895 194.002336 
L 70.084012 193.321904 
L 69.614099 192.727967 
L 69.371935 192.727967 
L 69.614099 193.356502 
L 70.098426 195.167143 
L 69.596802 195.09218 
L 68.711751 194.273355 
L 68.313911 193.607339 
L 67.763277 193.417049 
L 67.062732 193.212343 
L 66.933002 193.304605 
L 66.953182 193.918723 
L 66.48327 194.524192 
L 66.206511 195.167143 
L 65.258037 194.665468 
L 65.396416 194.302187 
L 65.185965 193.569858 
L 65.258037 193.212343 
L 65.583805 193.045118 
L 66.347773 193.027819 
L 66.468855 192.727967 
L 66.050835 192.381985 
L 65.142721 192.082134 
L 64.165418 191.914909 
L 63.542711 191.981222 
L 62.68649 190.06967 
L 62.150271 189.818832 
L 62.072432 190.179231 
L 61.942702 190.202296 
L 61.366122 190.530979 
L 60.463774 190.346455 
L 59.619084 190.980756 
L 58.811872 191.756334 
L 57.981597 191.981222 
L 57.641415 191.790932 
L 57.31853 191.465132 
L 57.087898 191.064369 
L 57.076367 190.528096 
L 57.808623 189.960109 
L 57.13979 189.559346 
L 56.98988 189.562229 
L 56.986997 188.985592 
L 56.98988 188.746287 
L 56.770779 188.593478 
L 56.240326 188.570413 
L 56.084649 188.691507 
L 56.021225 188.936577 
L 56.468075 189.775585 
L 56.589156 190.300325 
L 56.263389 190.752985 
L 55.704106 190.510797 
L 54.222295 188.737638 
L 53.605355 188.331108 
L 53.934005 188.841432 
L 55.035273 190.288792 
L 54.245359 189.758286 
L 53.299767 188.841432 
L 52.492555 187.794836 
L 52.12931 186.684809 
L 51.858317 185.874634 
L 51.650749 182.656998 
L 51.385522 182.138024 
L 47.871267 178.678201 
L 46.922792 178.141928 
L 45.847471 176.864677 
L 45.342963 176.461031 
L 45.585127 175.970889 
L 44.818275 175.7633 
L 44.380075 175.146298 
L 43.889982 173.796967 
L 41.376093 171.274179 
L 41.329966 171.115604 
L 40.952306 170.945496 
L 41.03591 170.602396 
L 41.295372 170.371742 
L 41.451048 170.510134 
L 41.713392 171.155968 
L 42.362045 171.657643 
L 43.166374 171.914246 
L 43.889982 171.8364 
L 43.624755 172.104536 
L 44.086019 172.294827 
L 44.339714 172.104536 
L 44.610707 171.357791 
L 44.829807 171.357791 
L 45.095034 172.104536 
L 44.731788 172.274644 
L 44.610707 172.684057 
L 44.731788 172.900296 
L 44.973952 172.744604 
L 45.155575 172.470701 
L 45.095034 172.326542 
L 46.911261 172.326542 
L 47.897213 172.568729 
L 48.393072 173.159783 
L 48.303702 173.883462 
L 47.51667 174.52353 
L 48.168205 175.17513 
L 48.372891 175.250093 
L 49.341546 175.371186 
L 49.430916 175.581659 
L 49.477042 176.461031 
L 50.197767 176.93964 
L 50.22083 177.106864 
L 50.586959 177.827661 
L 50.794527 177.377884 
L 51.408585 177.072266 
L 51.313449 176.437965 
L 51.079934 175.728701 
L 50.774347 175.235677 
L 50.439931 175.250093 
L 50.053622 174.800316 
L 49.185869 174.200613 
L 48.986949 173.796967 
L 49.402087 173.174198 
L 49.739386 172.943544 
L 49.684611 172.710006 
L 48.531451 170.72349 
L 47.874149 170.048825 
L 47.51667 170.389041 
L 46.790179 169.904665 
L 46.663331 170.236232 
L 46.660449 170.573565 
L 46.790179 171.357791 
L 46.127112 170.815752 
L 45.227647 169.163686 
L 44.610707 168.912849 
L 44.351246 169.146387 
L 43.996649 170.146853 
L 43.65935 170.256414 
L 43.463312 170.544733 
L 43.405654 171.357791 
L 42.875201 170.928196 
L 42.171773 170.85035 
L 42.581145 170.146853 
L 42.500424 169.748973 
L 41.693212 169.155037 
L 40.914829 169.662478 
L 40.390141 169.477954 
L 40.090319 168.780223 
L 40.026895 167.312681 
L 40.211401 166.395828 
L 40.147977 164.547705 
L 39.73284 163.351183 
L 39.73284 161.898057 
L 39.138962 160.427632 
L 38.33175 159.311839 
L 36.368495 157.282076 
L 31.594413 150.463341 
L 30.928463 148.805509 
L 30.761255 148.067413 
L 31.23405 149.013098 
L 31.594413 150.068344 
L 32.029731 150.685346 
L 32.715861 151.452274 
L 33.263612 151.397493 
L 33.817129 151.639681 
L 34.258212 152.057743 
L 34.621458 153.176419 
L 35.451733 154.041375 
L 35.642004 154.73334 
L 35.863988 155.082205 
L 36.982553 156.469018 
L 37.674449 157.011057 
L 39.675182 158.542029 
L 40.718791 158.853413 
L 41.056091 163.256038 
L 41.272308 163.803843 
L 41.693212 163.613553 
L 41.796996 163.250272 
L 41.474111 162.765896 
L 41.57213 162.503526 
L 41.883483 162.368017 
L 42.14871 162.50641 
L 42.413937 163.108995 
L 42.94439 162.503526 
L 43.774666 162.022034 
L 44.72314 161.727949 
L 45.585127 161.65587 
L 45.380441 162.209441 
L 45.337197 162.806261 
L 45.536118 163.319468 
L 46.063688 163.613553 
L 46.314501 162.417031 
L 46.297203 161.831744 
L 46.063688 161.413682 
L 47.170722 161.260873 
L 50.102631 161.65587 
L 51.166421 161.413682 
L 49.704791 160.851461 
L 49.142626 160.430516 
L 48.721722 159.721252 
L 48.393072 158.400752 
L 48.352711 157.628059 
L 48.502622 157.039889 
L 48.214332 156.95051 
L 47.360993 156.535331 
L 46.657566 156.647775 
L 46.640268 156.872664 
L 46.790179 157.400287 
L 46.617205 157.945209 
L 46.467294 158.066303 
L 45.585127 159.248409 
L 44.772149 159.830813 
L 43.80926 160.116248 
L 41.693212 160.205627 
L 41.497175 159.943257 
L 41.453931 159.372386 
L 41.203119 158.853413 
L 41.056091 157.708788 
L 40.211401 157.521381 
L 40.147977 156.964926 
L 40.433384 156.590111 
L 40.952306 156.379639 
L 41.57213 156.313326 
L 41.869069 156.102853 
L 41.92961 155.621361 
L 41.785465 155.119687 
L 41.451048 154.840017 
L 41.451048 154.618012 
L 41.768167 154.531517 
L 42.898264 154.355642 
L 43.180788 154.00966 
L 43.339348 153.337877 
L 43.901513 152.305697 
L 43.786197 151.694461 
L 43.140428 150.463341 
L 43.365294 150.08276 
L 43.226915 149.927068 
L 42.898264 149.736778 
L 42.880967 150.443159 
L 43.140428 152.294164 
L 43.042409 152.674745 
L 42.782948 153.026493 
L 42.431234 153.28598 
L 42.050691 153.389775 
L 41.730689 153.280214 
L 41.436634 152.790072 
L 41.203119 152.663212 
L 40.626539 152.859269 
L 39.620407 154.116338 
L 37.922378 154.433488 
L 37.334267 154.355642 
L 36.939309 153.888566 
L 36.826876 153.144704 
L 36.901832 152.10964 
L 36.365612 151.723293 
L 35.590112 152.2365 
L 35.137497 152.158654 
L 34.621458 151.864569 
L 33.376045 150.930417 
L 32.407391 150.483523 
L 32.096037 149.895353 
L 32.00955 149.174557 
L 32.254597 148.528723 
L 32.07874 148.303834 
L 31.992253 148.067413 
L 32.681266 147.565739 
L 32.514058 146.741147 
L 31.902883 145.905023 
L 31.245582 145.38605 
L 31.689548 146.452829 
L 31.360898 147.73008 
L 31.136032 147.695482 
L 31.020716 147.314901 
L 30.761255 145.143862 
L 30.161611 143.586942 
L 26.647356 139.071872 
L 27.567001 139.942594 
L 28.074392 140.190548 
L 28.604845 140.017557 
L 28.100338 139.798435 
L 28.604845 138.91618 
L 29.066109 138.593263 
L 28.650972 138.408739 
L 27.613128 139.112237 
L 27.001953 138.956545 
L 26.768438 138.388557 
L 26.275462 136.909482 
L 25.923748 137.140137 
L 25.661404 137.140137 
L 25.174194 135.444824 
L 24.637975 134.530854 
L 23.703915 132.417478 
L 22.945712 131.122928 
L 22.4758 129.257506 
L 21.386063 127.850511 
L 20.558671 125.241228 
L 21.040115 124.497366 
L 21.302459 124.756853 
L 20.988223 125.440168 
L 21.374532 125.745786 
L 22.51616 125.967791 
L 22.325889 126.504064 
L 22.51616 126.916359 
L 23.277246 126.893294 
L 23.810582 127.75825 
L 24.107521 128.969188 
L 24.268964 130.451145 
L 24.470767 130.970119 
L 24.813832 131.385298 
L 25.306808 131.552523 
L 25.583566 131.79471 
L 25.831495 132.809592 
L 26.408075 132.982583 
L 26.096722 132.377114 
L 26.131317 131.783177 
L 26.598347 129.949471 
L 27.071142 129.909106 
L 28.316555 130.082098 
L 28.316555 129.83991 
L 27.607362 129.393016 
L 27.365198 129.021085 
L 27.373847 128.605906 
L 27.633308 128.375251 
L 27.976373 128.404083 
L 28.829712 128.807729 
L 29.181425 129.306521 
L 29.446652 129.91199 
L 29.553319 130.451145 
L 29.821429 131.154643 
L 31.101437 132.348282 
L 31.507926 132.982583 
L 31.525223 133.697613 
L 31.280177 134.94315 
L 31.507926 135.444824 
L 31.750089 135.444824 
L 31.902883 134.781691 
L 31.992253 132.630834 
L 32.185407 131.961935 
L 33.030097 131.036432 
L 33.220368 130.451145 
L 33.185774 129.635204 
L 33.652803 129.222908 
L 34.431186 128.891342 
L 34.526322 128.525177 
L 34.500376 127.838979 
L 34.915514 127.660221 
L 35.399841 128.605906 
L 35.327768 127.781315 
L 34.621458 126.625157 
L 34.915514 125.705421 
L 37.011382 123.83135 
L 37.648503 122.556982 
L 40.81681 119.068326 
L 41.693212 117.698813 
L 42.200602 116.231271 
L 42.171773 111.652771 
L 42.437 110.908909 
L 43.235563 109.323157 
L 43.598809 107.460619 
L 43.544034 106.708107 
L 43.140428 105.801345 
L 43.290338 104.936389 
L 43.866918 103.578408 
L 43.624755 103.020512 
L 43.578628 102.263676 
L 42.333216 95.555943 
L 41.92961 94.414201 
L 42.042043 94.094167 
L 42.292855 92.961075 
L 42.448532 92.857281 
L 43.578628 91.853932 
L 43.962054 91.75302 
L 44.305119 92.003857 
L 44.610707 92.695822 
L 44.757734 93.56222 
L 44.685662 94.280133 
L 44.34548 95.599191 
L 44.587643 96.69336 
L 44.039892 96.960055 
L 43.999532 97.722657 
L 44.103316 98.042691 
L 44.602058 97.441547 
L 44.818275 97.18206 
L 45.216116 97.07394 
L 46.375041 97.08259 
L 46.548015 97.195034 
L 46.738287 97.652019 
L 47.666581 98.560223 
L 47.995231 99.249304 
L 48.116313 100.589986 
L 48.632352 100.974891 
L 48.877399 100.970567 
L 48.986949 100.589986 
L 48.790912 99.07343 
L 48.831272 98.436246 
L 49.206049 97.799062 
L 51.408585 98.525625 
L 51.598856 98.914855 
L 51.898678 100.144534 
L 52.12931 100.480425 
L 52.284987 100.235354 
L 53.605355 99.01 
L 54.141574 99.03739 
L 54.452928 99.255071 
L 54.816173 99.975867 
L 56.580508 99.681782 
L 57.872047 100.99219 
L 58.9589 102.706245 
L 60.114943 103.625981 
L 58.817638 101.256002 
L 58.310248 100.589986 
L 58.215112 100.010466 
L 58.907008 99.694757 
L 59.820887 99.738004 
L 60.377287 100.239679 
L 60.812605 99.967218 
L 61.850449 98.744747 
L 63.542711 97.799062 
L 64.113526 97.809153 
L 65.722184 98.306503 
L 66.243989 98.260372 
L 67.67679 97.799062 
L 67.67679 97.533809 
L 65.898041 97.574173 
L 65.203262 97.37235 
L 64.511366 96.807246 
L 63.309197 97.484794 
L 62.611535 97.712566 
L 59.875663 97.879791 
L 59.408633 98.042691 
L 57.814389 97.49921 
L 56.545913 96.550642 
L 55.421582 96.588124 
L 55.041039 96.407924 
L 53.345894 95.137881 
L 52.117778 94.409876 
L 51.610388 93.889461 
L 51.408585 93.181639 
L 51.166421 93.181639 
L 50.964618 93.612675 
L 50.762815 93.739536 
L 50.318849 93.664573 
L 48.986949 94.15039 
L 48.704425 93.74386 
L 48.493973 92.481025 
L 48.116313 92.212888 
L 47.614689 91.706889 
L 45.91666 87.810263 
L 45.466928 87.144247 
L 44.480976 86.032779 
L 43.820792 85.70842 
L 42.644569 85.730044 
L 42.171773 85.176473 
L 42.142944 84.657499 
L 42.284206 82.705582 
L 42.535019 82.274546 
L 44.103316 82.030916 
L 44.501156 81.868016 
L 45.585127 81.305795 
L 46.057922 81.245248 
L 47.162073 81.526359 
L 47.453246 81.451396 
L 47.931808 81.116946 
L 48.58046 80.864668 
L 49.765332 80.241899 
L 50.439931 80.315421 
L 51.019394 80.890616 
L 51.281737 81.708 
L 51.15489 82.438887 
L 50.561012 82.758921 
L 49.021544 82.430238 
L 48.269107 82.525383 
L 47.781897 83.241855 
L 48.60064 82.991017 
L 49.638484 83.054448 
L 50.46876 83.511433 
L 50.682094 84.44991 
L 51.102998 84.315841 
L 51.414351 84.069329 
L 51.598856 83.708931 
L 51.650749 83.241855 
L 52.077418 83.809842 
L 52.140842 84.842023 
L 51.956336 85.855463 
L 51.650749 86.387411 
L 51.988048 87.395084 
L 52.273455 87.705027 
L 52.878864 87.836212 
L 52.723187 87.275432 
L 52.728953 86.554636 
L 52.901927 85.924659 
L 53.443912 85.345139 
L 53.807158 83.806959 
L 54.089682 83.241855 
L 53.605355 82.538357 
L 53.484273 81.808911 
L 53.605355 80.073233 
L 53.242109 75.875314 
L 51.988048 72.548117 
L 51.73147 71.126706 
L 51.431648 70.761983 
L 51.235611 70.348246 
L 51.408585 69.628891 
L 51.852552 68.874938 
L 52.316699 68.521747 
L 52.835621 68.417953 
L 53.475624 68.417953 
L 54.101214 68.240637 
L 54.444279 67.813925 
L 54.686442 67.32955 
L 55.035273 66.969152 
L 55.672394 66.859591 
L 57.739434 66.914371 
L 58.310248 67.090246 
L 58.785926 67.865823 
L 59.082865 69.382379 
L 59.408633 70.13489 
L 59.838135 69.088454 
L 60.891539 69.209849 
L 61.440732 69.411239 
L 62.026537 69.825006 
L 62.945519 70.875898 
L 63.531324 71.329942 
L 64.157404 71.597242 
L 64.787144 71.692445 
L 65.350982 71.567949 
L 65.768368 71.161507 
L 65.896513 70.696477 
L 65.900174 69.647416 
L 66.0869 69.129293 
L 67.811364 68.905932 
L 114.108289 69.059721 
L 113.873967 29.086442 
L 113.603032 27.728887 
L 113.96916 26.939802 
L 114.316982 25.077855 
L 114.591579 24.704367 
L 114.803933 24.206383 
L 114.650159 22.952269 
L 124.107253 22.604413 
L 125.476573 22.176 
L 125.970846 22.229094 
L 126.318668 22.426823 
L 127.039941 23.018179 
L 128.859599 23.615027 
L 128.859599 23.615027 
" clip-path="url(#pbf7aaa4ec5)" style="fill: none; stroke: #000000; stroke-width: 2"/>
   </g>
  </g>
 </g>
 <defs>
  <clipPath id="pbf7aaa4ec5">
   <rect x="0" y="-0" width="246.704054" height="266.112"/>
  </clipPath>
 </defs>
</svg>
