<?xml version="1.0" encoding="utf-8" standalone="no"?>
<!DOCTYPE svg PUBLIC "-//W3C//DTD SVG 1.1//EN"
  "http://www.w3.org/Graphics/SVG/1.1/DTD/svg11.dtd">
<svg xmlns:xlink="http://www.w3.org/1999/xlink" width="357.12pt" height="182.238004pt" viewBox="0 0 357.12 182.238004" xmlns="http://www.w3.org/2000/svg" version="1.1">
 <metadata>
  <rdf:RDF xmlns:dc="http://purl.org/dc/elements/1.1/" xmlns:cc="http://creativecommons.org/ns#" xmlns:rdf="http://www.w3.org/1999/02/22-rdf-syntax-ns#">
   <cc:Work>
    <dc:type rdf:resource="http://purl.org/dc/dcmitype/StillImage"/>
    <dc:date>2024-02-02T21:58:01.581326</dc:date>
    <dc:format>image/svg+xml</dc:format>
    <dc:creator>
     <cc:Agent>
      <dc:title>Matplotlib v3.8.2, https://matplotlib.org/</dc:title>
     </cc:Agent>
    </dc:creator>
   </cc:Work>
  </rdf:RDF>
 </metadata>
 <defs>
  <style type="text/css">*{stroke-linejoin: round; stroke-linecap: butt}</style>
 </defs>
 <g id="figure_1">
  <g id="patch_1">
   <path d="M 0 182.238004 
L 357.12 182.238004 
L 357.12 0 
L 0 0 
L 0 182.238004 
z
" style="fill: none"/>
  </g>
  <g id="axes_1">
   <g id="PatchCollection_1">
    <path d="M 51.667247 19.21158 
L 53.432348 19.425466 
L 54.816921 19.06124 
L 57.686929 17.585739 
L 59.300736 17.398202 
L 60.988589 18.348487 
L 63.216051 20.019076 
L 67.764052 21.572072 
L 69.194472 22.396616 
L 75.264586 27.209043 
L 76.626235 27.543821 
L 81.247591 26.942461 
L 82.760535 27.25244 
L 84.195539 27.966942 
L 85.561773 29.081317 
L 87.10681 29.741573 
L 90.279407 29.132464 
L 91.627303 29.647029 
L 92.030754 30.24064 
L 92.654271 31.641745 
L 93.066892 32.255504 
L 93.708747 32.740622 
L 96.024009 33.458223 
L 97.193102 34.144827 
L 99.164514 36.155042 
L 100.361115 36.813748 
L 101.984091 36.950139 
L 105.234628 36.519268 
L 106.848435 36.697506 
L 109.736782 37.517401 
L 111.130524 37.656892 
L 114.220597 37.309715 
L 115.522646 37.37481 
L 116.806356 37.726637 
L 118.200098 38.411691 
L 119.60301 38.819313 
L 121.02426 38.896808 
L 122.440926 38.614727 
L 126.191193 36.547166 
L 127.323608 36.203089 
L 135.183996 35.620153 
L 137.859199 35.992303 
L 140.380772 37.67704 
L 141.549865 38.837912 
L 142.82899 39.826746 
L 145.53395 41.328595 
L 146.391285 41.511483 
L 147.019386 41.2542 
L 148.211402 40.142925 
L 148.981628 39.777149 
L 150.370786 39.744601 
L 152.438476 39.113794 
L 154.203577 39.160291 
L 155.909077 39.605111 
L 157.14694 40.403307 
L 158.393973 41.579678 
L 159.682268 42.413522 
L 163.464627 43.809978 
L 163.469212 44.608175 
L 163.129946 45.600108 
L 163.006159 46.568793 
L 163.409611 47.196501 
L 165.601087 48.710749 
L 170.362276 53.183749 
L 172.08153 54.121436 
L 186.413235 58.098469 
L 189.46663 59.587919 
L 190.209348 60.237325 
L 192.043219 62.41028 
L 192.863877 62.934144 
L 196.994672 63.936927 
L 198.975253 64.93661 
L 199.470398 66.687992 
L 198.448015 68.138695 
L 196.898394 69.243771 
L 195.651361 70.458889 
L 195.513821 72.23042 
L 196.779192 73.797365 
L 198.778112 74.332079 
L 200.944372 74.499468 
L 202.734689 74.969086 
L 204.307234 76.174905 
L 205.14623 76.588727 
L 205.976057 76.456986 
L 206.631666 75.881975 
L 208.330289 73.702821 
L 210.262731 72.803882 
L 214.510436 72.602395 
L 216.575833 71.976237 
L 218.029176 70.494537 
L 218.849834 68.8036 
L 219.885971 67.580732 
L 223.819625 67.498588 
L 225.625988 66.912727 
L 229.078251 65.066801 
L 230.359669 64.707225 
L 232.58553 64.538287 
L 234.479002 64.776971 
L 236.317458 65.367481 
L 237.958773 66.303618 
L 238.651059 66.87088 
L 239.957693 68.261137 
L 240.484931 69.070182 
L 241.580669 72.568297 
L 242.13083 73.143309 
L 242.52282 72.723287 
L 243.240322 69.418909 
L 244.524032 66.646145 
L 244.801405 65.67901 
L 245.940698 64.153912 
L 247.875432 64.539837 
L 252.716852 68.005404 
L 253.500832 68.397528 
L 254.31232 68.569566 
L 255.551559 68.23875 
L 256.788047 67.690775 
L 257.63392 67.586932 
L 259.071216 68.127846 
L 260.350342 69.232921 
L 264.71954 74.538215 
L 265.556976 76.130918 
L 266.044512 77.217985 
L 266.493811 77.913889 
L 267.970077 78.522998 
L 269.858965 78.257965 
L 273.439598 77.180788 
L 275.993264 77.239684 
L 279.711438 77.89839 
L 283.17287 79.265398 
L 284.983539 81.481266 
L 284.846278 82.867356 
L 279.743531 96.247608 
L 280.188245 97.645614 
L 281.526971 98.513555 
L 283.310411 99.350499 
L 288.181631 102.785069 
L 291.276289 103.592564 
L 291.888344 104.201673 
L 293.144546 107.335563 
L 293.616768 108.003568 
L 294.212776 108.338346 
L 295.047187 108.389492 
L 295.36353 108.263951 
L 295.950369 107.798982 
L 296.32402 107.705988 
L 296.610563 107.854778 
L 297.724639 108.705671 
L 298.526958 108.649875 
L 299.132136 108.493335 
L 299.56768 108.794015 
L 299.865684 110.103677 
L 300.938499 110.608943 
L 302.300148 110.643041 
L 305.683641 109.947138 
L 306.490544 110.103677 
L 307.650468 111.049114 
L 309.587494 113.394106 
L 310.850573 113.970668 
L 313.486763 114.196952 
L 314.573332 114.809161 
L 315.653024 116.284662 
L 313.961278 119.809126 
L 313.009957 121.368321 
L 311.102731 123.724163 
L 310.456291 124.310023 
L 309.747958 124.6603 
L 308.824146 124.750194 
L 306.747286 124.269726 
L 305.779919 124.378219 
L 304.922584 125.300407 
L 304.503086 127.355569 
L 304.523717 130.398015 
L 305.089925 133.096383 
L 306.284234 134.108465 
L 306.673931 133.782987 
L 307.187415 132.777105 
L 307.801762 132.752307 
L 307.902625 133.087084 
L 308.888331 135.002755 
L 309.307829 137.777069 
L 309.702111 139.082082 
L 310.46546 140.080214 
L 313.303376 141.955589 
L 314.206558 142.181873 
L 316.283417 144.147141 
L 320.602184 146.003917 
L 322.779906 147.327528 
L 323.481362 149.001415 
L 324.169064 148.725534 
L 324.531253 148.970418 
L 324.829258 149.484983 
L 325.686592 150.464517 
L 327.080335 152.640571 
L 327.36 153.514712 
L 327.22246 153.589107 
L 326.855685 153.533311 
L 326.465988 154.00138 
L 326.378879 154.463249 
L 326.236754 155.907752 
L 325.975427 156.289026 
L 325.127262 157.222064 
L 324.696302 158.837055 
L 324.462483 160.895317 
L 324.091124 162.823387 
L 323.23379 164.057105 
L 322.362701 164.199695 
L 321.51912 163.964111 
L 320.650323 163.877317 
L 319.712757 164.478676 
L 319.213027 165.439612 
L 318.965454 166.381949 
L 318.575756 167.008106 
L 317.606097 167.051504 
L 316.810655 166.552437 
L 315.5705 164.841352 
L 314.843828 164.187296 
L 312.203054 163.306955 
L 311.281533 162.745893 
L 308.668267 160.321855 
L 307.379972 158.675866 
L 306.678516 157.975313 
L 305.880782 157.690132 
L 302.545429 157.705631 
L 301.55743 157.938115 
L 299.260507 159.444614 
L 298.384833 159.773192 
L 297.312018 159.872386 
L 295.170974 159.602704 
L 288.587375 157.172467 
L 285.497302 155.241297 
L 283.663431 153.638704 
L 282.60437 151.927619 
L 283.590076 150.675303 
L 284.607875 150.306428 
L 285.24056 149.953052 
L 285.185544 149.581077 
L 284.149407 149.159505 
L 281.26106 148.561245 
L 274.883772 146.028715 
L 272.797743 143.892959 
L 272.142134 143.772067 
L 270.675037 144.227736 
L 269.781025 144.308331 
L 269.091031 144.16884 
L 266.127036 142.606545 
L 264.675986 142.52905 
L 263.252443 143.034316 
L 250.190695 153.939384 
L 248.508118 153.99518 
L 244.226028 153.300827 
L 243.364109 154.190467 
L 243.730883 155.03671 
L 245.395121 155.855055 
L 245.867343 156.540109 
L 245.427214 157.166267 
L 244.262706 157.327456 
L 237.759339 157.191066 
L 235.904837 156.437816 
L 235.00624 156.313825 
L 234.052627 156.753995 
L 233.479542 157.532043 
L 232.93855 158.483679 
L 232.285233 159.078839 
L 231.375175 158.812257 
L 231.132187 158.356587 
L 230.971723 157.742829 
L 230.737905 157.290259 
L 230.261098 157.305758 
L 229.972263 157.532043 
L 229.078251 158.551874 
L 228.000852 158.871153 
L 227.003684 158.799858 
L 226.034025 158.437182 
L 223.668331 156.97098 
L 223.120461 156.905885 
L 222.595516 157.079473 
L 221.504362 158.071407 
L 220.461348 158.248095 
L 219.640691 157.928816 
L 217.495061 156.406818 
L 216.291583 155.898452 
L 215.819361 155.904652 
L 215.292123 156.285926 
L 214.920764 157.826523 
L 214.223893 158.536375 
L 213.352804 159.016843 
L 212.41753 159.190431 
L 210.537812 158.651068 
L 209.652969 158.747161 
L 207.869529 159.568606 
L 205.86144 160.070772 
L 201.753568 160.160666 
L 199.850927 160.969712 
L 197.783237 162.829587 
L 196.91444 163.204662 
L 195.830164 163.297656 
L 188.595541 162.256125 
L 186.711239 162.330521 
L 183.8802 163.427847 
L 182.997649 163.303855 
L 183.501964 161.74466 
L 182.871571 160.328055 
L 181.672677 159.190431 
L 180.462322 158.46818 
L 179.063995 158.083806 
L 177.771116 158.176799 
L 173.690752 159.342321 
L 173.05119 158.868053 
L 171.987544 156.202232 
L 171.09124 155.160702 
L 170.217858 155.052209 
L 169.241322 155.163802 
L 168.035552 154.773228 
L 170.435631 153.517812 
L 171.084363 152.941251 
L 171.682663 152.073309 
L 171.623062 151.76333 
L 170.325598 151.589742 
L 168.957072 150.926386 
L 166.816027 149.010715 
L 163.551736 146.741667 
L 162.909881 146.022516 
L 161.584909 143.483786 
L 161.241058 143.083913 
L 160.846776 142.925823 
L 160.181998 142.160175 
L 158.536098 141.506119 
L 158.169324 140.830364 
L 157.921751 140.083314 
L 157.605408 139.692741 
L 157.0094 140.077115 
L 155.918247 141.354229 
L 155.083835 141.075248 
L 154.240254 140.132911 
L 153.103254 139.444757 
L 153.474613 138.849597 
L 154.707892 137.659277 
L 154.982972 136.530953 
L 155.129682 135.926493 
L 155.473533 135.365431 
L 154.629952 134.953159 
L 148.422298 134.410695 
L 146.184975 134.602882 
L 145.061728 134.981057 
L 144.172301 135.67851 
L 143.718418 136.685942 
L 143.301212 139.128578 
L 142.856498 140.095713 
L 141.893716 141.131044 
L 140.564159 143.173807 
L 139.642639 143.793765 
L 138.523977 143.852661 
L 130.743778 140.765268 
L 128.561471 140.89236 
L 127.497826 140.802466 
L 126.759693 140.095713 
L 126.127007 139.711339 
L 125.453059 139.689641 
L 124.059317 140.095713 
L 123.426632 139.804333 
L 122.803115 139.69894 
L 122.179599 139.788834 
L 121.537744 140.095713 
L 119.969784 140.600979 
L 116.792602 139.370362 
L 115.009162 140.095713 
L 114.3994 140.573081 
L 113.010242 142.597245 
L 110.805012 144.395125 
L 110.26402 144.16264 
L 108.498919 142.491853 
L 107.91208 142.293466 
L 106.614616 142.129177 
L 106.096548 141.915291 
L 105.908576 141.537117 
L 105.908576 140.362296 
L 105.569309 140.359196 
L 104.455233 140.876861 
L 103.130261 140.982254 
L 102.566345 140.873761 
L 97.842303 138.85172 
L 100.748339 133.543022 
L 102.055153 131.749048 
L 104.730151 129.977041 
L 105.477417 128.170863 
L 107.556767 124.714717 
L 108.011625 122.459435 
L 108.9791 120.955914 
L 109.07296 120.414061 
L 109.07296 115.295743 
L 108.542293 111.519855 
L 108.466483 110.157899 
L 108.264324 109.328033 
L 105.123639 103.777697 
L 104.199483 102.877049 
L 103.982884 101.734764 
L 103.896244 99.69183 
L 103.538856 96.982563 
L 101.015478 88.393455 
L 100.70141 87.946792 
L 99.510115 86.750809 
L 99.354886 86.328554 
L 96.928977 71.288461 
L 96.156441 68.9087 
L 95.030126 66.902378 
L 93.564473 65.330515 
L 91.752262 64.288302 
L 88.373318 63.665902 
L 87.651321 63.263173 
L 86.936545 62.606603 
L 85.86438 62.011053 
L 84.738065 61.586357 
L 83.850009 61.459436 
L 83.333782 61.610765 
L 82.442116 62.1575 
L 81.878959 62.274657 
L 81.406051 61.986645 
L 79.38807 58.930787 
L 78.370055 55.237886 
L 76.528964 52.047785 
L 75.767258 50.329475 
L 74.669823 50.361205 
L 72.922591 51.144696 
L 71.803496 50.763934 
L 70.482243 48.747849 
L 69.709706 48.279219 
L 69.695266 47.97168 
L 68.655591 46.18991 
L 68.352353 45.945832 
L 65.117808 44.679067 
L 60.673919 44.071312 
L 58.605399 44.181148 
L 56.634348 44.591199 
L 56.107291 44.400818 
L 55.255335 43.551426 
L 54.605538 43.199954 
L 53.457563 42.09428 
L 53.017145 41.933188 
L 51.609252 41.68911 
L 48.049809 39.990327 
L 46.403656 39.802387 
L 45.248462 41.279059 
L 44.800824 40.800666 
L 43.735879 38.411141 
L 42.728694 37.400658 
L 42.288276 36.748969 
L 42.483215 34.852483 
L 41.790098 33.087798 
L 40.815403 31.467119 
L 40.100626 30.590879 
L 38.732443 29.958717 
L 36.302924 29.236246 
L 34.876981 27.823033 
L 34.238014 27.515495 
L 32.191154 27.18599 
L 30.81575 26.62461 
L 29.76 26.394808 
L 29.995472 25.355367 
L 33.007606 17.624487 
L 33.612783 16.67285 
L 34.671844 15.978497 
L 37.670224 15.1865 
L 40.723619 15.19115 
L 51.667247 19.21158 
L 51.667247 19.21158 
" clip-path="url(#pdc11ca9231)" style="fill: none; stroke: #000000; stroke-width: 2"/>
   </g>
  </g>
 </g>
 <defs>
  <clipPath id="pdc11ca9231">
   <rect x="0" y="-0" width="357.12" height="182.238004"/>
  </clipPath>
 </defs>
</svg>
