<?xml version="1.0" encoding="utf-8" standalone="no"?>
<!DOCTYPE svg PUBLIC "-//W3C//DTD SVG 1.1//EN"
  "http://www.w3.org/Graphics/SVG/1.1/DTD/svg11.dtd">
<svg xmlns:xlink="http://www.w3.org/1999/xlink" width="271.484652pt" height="266.112pt" viewBox="0 0 271.484652 266.112" xmlns="http://www.w3.org/2000/svg" version="1.1">
 <metadata>
  <rdf:RDF xmlns:dc="http://purl.org/dc/elements/1.1/" xmlns:cc="http://creativecommons.org/ns#" xmlns:rdf="http://www.w3.org/1999/02/22-rdf-syntax-ns#">
   <cc:Work>
    <dc:type rdf:resource="http://purl.org/dc/dcmitype/StillImage"/>
    <dc:date>2024-02-02T21:58:01.605332</dc:date>
    <dc:format>image/svg+xml</dc:format>
    <dc:creator>
     <cc:Agent>
      <dc:title>Matplotlib v3.8.2, https://matplotlib.org/</dc:title>
     </cc:Agent>
    </dc:creator>
   </cc:Work>
  </rdf:RDF>
 </metadata>
 <defs>
  <style type="text/css">*{stroke-linejoin: round; stroke-linecap: butt}</style>
 </defs>
 <g id="figure_1">
  <g id="patch_1">
   <path d="M 0 266.112 
L 271.484652 266.112 
L 271.484652 0 
L 0 0 
L 0 266.112 
z
" style="fill: none"/>
  </g>
  <g id="axes_1">
   <g id="PatchCollection_1">
    <path d="M 161.476466 239.56287 
L 157.487811 243.936 
L 155.438594 243.117802 
L 156.902321 238.66003 
L 157.670777 235.133313 
L 156.42661 230.873038 
L 156.609576 227.374534 
L 157.890336 225.568855 
L 159.134504 222.775694 
L 160.817789 220.236458 
L 161.878991 219.474687 
L 165.208968 223.960672 
L 166.087204 232.678717 
L 161.476466 239.56287 
" clip-path="url(#pd59948fe49)" style="fill: none; stroke: #000000; stroke-width: 2"/>
    <path d="M 125.249238 200.232916 
L 121.589921 208.86632 
L 121.077617 206.101374 
L 120.821465 199.922565 
L 121.443549 195.182657 
L 124.078256 193.743755 
L 125.249238 200.232916 
" clip-path="url(#pd59948fe49)" style="fill: none; stroke: #000000; stroke-width: 2"/>
    <path d="M 81.73997 230.534473 
L 77.202419 233.440488 
L 74.220076 233.101924 
L 71.457293 231.49374 
L 67.743087 230.534473 
L 24.471675 230.534473 
L 22.623721 228.728793 
L 23.831295 225.061007 
L 27.344239 221.590717 
L 32.339205 220.603236 
L 30.216802 210.756641 
L 33.052771 207.794198 
L 38.596635 207.681343 
L 44.579617 206.383511 
L 64.541185 187.057099 
L 73.835848 183.078962 
L 83.441552 175.799817 
L 92.425173 171.849893 
L 99.853585 178.000488 
L 98.023927 184.010015 
L 90.668701 196.508702 
L 88.601188 211.405557 
L 85.801812 222.239633 
L 85.874998 224.976366 
L 85.289507 226.838473 
L 81.73997 230.534473 
" clip-path="url(#pd59948fe49)" style="fill: none; stroke: #000000; stroke-width: 2"/>
    <path d="M 235.138496 39.97887 
L 227.929644 41.840977 
L 223.721431 38.511755 
L 227.197781 30.978687 
L 233.400321 27.226259 
L 237.84639 26.746626 
L 245.128429 22.514565 
L 246.99468 22.176 
L 248.860931 24.009893 
L 248.860931 27.846962 
L 240.956809 36.565008 
L 235.138496 39.97887 
" clip-path="url(#pd59948fe49)" style="fill: none; stroke: #000000; stroke-width: 2"/>
   </g>
  </g>
 </g>
 <defs>
  <clipPath id="pd59948fe49">
   <rect x="0" y="-0" width="271.484652" height="266.112"/>
  </clipPath>
 </defs>
</svg>
