<?xml version="1.0" encoding="utf-8" standalone="no"?>
<!DOCTYPE svg PUBLIC "-//W3C//DTD SVG 1.1//EN"
  "http://www.w3.org/Graphics/SVG/1.1/DTD/svg11.dtd">
<svg xmlns:xlink="http://www.w3.org/1999/xlink" width="182.536236pt" height="266.112pt" viewBox="0 0 182.536236 266.112" xmlns="http://www.w3.org/2000/svg" version="1.1">
 <metadata>
  <rdf:RDF xmlns:dc="http://purl.org/dc/elements/1.1/" xmlns:cc="http://creativecommons.org/ns#" xmlns:rdf="http://www.w3.org/1999/02/22-rdf-syntax-ns#">
   <cc:Work>
    <dc:type rdf:resource="http://purl.org/dc/dcmitype/StillImage"/>
    <dc:date>2024-02-02T21:58:01.627337</dc:date>
    <dc:format>image/svg+xml</dc:format>
    <dc:creator>
     <cc:Agent>
      <dc:title>Matplotlib v3.8.2, https://matplotlib.org/</dc:title>
     </cc:Agent>
    </dc:creator>
   </cc:Work>
  </rdf:RDF>
 </metadata>
 <defs>
  <style type="text/css">*{stroke-linejoin: round; stroke-linecap: butt}</style>
 </defs>
 <g id="figure_1">
  <g id="patch_1">
   <path d="M 0 266.112 
L 182.536236 266.112 
L 182.536236 0 
L 0 0 
L 0 266.112 
z
" style="fill: none"/>
  </g>
  <g id="axes_1">
   <g id="PatchCollection_1">
    <path d="M 121.043668 23.140817 
L 121.298009 23.711504 
L 121.864977 24.233148 
L 122.559999 24.61747 
L 123.188786 24.777975 
L 123.814924 24.713773 
L 124.975354 24.407921 
L 125.618272 24.39722 
L 126.759273 24.831477 
L 127.27502 25.639356 
L 127.384528 26.70761 
L 127.206136 28.362602 
L 126.22763 29.400539 
L 125.514062 33.201849 
L 125.688922 33.880431 
L 125.625337 34.246919 
L 125.330372 34.527804 
L 124.632701 34.999512 
L 124.150513 35.610326 
L 123.890873 36.212222 
L 123.591542 38.143592 
L 123.382191 39.014829 
L 123.360113 39.73443 
L 123.708948 40.447788 
L 124.384541 40.876695 
L 125.824924 41.245858 
L 126.347735 41.663173 
L 127.727182 42.206217 
L 127.997419 42.529012 
L 128.678311 43.63561 
L 130.486957 44.76985 
L 131.028315 45.344103 
L 132.868754 48.706698 
L 133.13016 48.679947 
L 133.456917 48.151169 
L 134.692414 48.553325 
L 136.060379 48.277791 
L 136.397734 48.615744 
L 136.412747 48.996499 
L 136.251135 49.657248 
L 136.634412 50.28322 
L 137.216394 50.80843 
L 137.575827 51.358608 
L 137.275563 52.056808 
L 137.752453 52.051458 
L 139.251121 51.801782 
L 139.578762 51.958721 
L 140.276433 52.53565 
L 139.437461 53.159838 
L 138.929663 54.717635 
L 138.986183 55.879518 
L 138.806908 58.323663 
L 139.141613 59.215361 
L 139.575229 59.494463 
L 139.951442 59.585416 
L 140.226978 59.812799 
L 140.329421 60.510999 
L 140.184588 61.188689 
L 139.803076 61.28856 
L 139.274966 61.201173 
L 138.676205 61.315311 
L 138.879324 61.655048 
L 138.743323 62.088413 
L 138.732725 62.639482 
L 139.373876 64.138427 
L 139.352681 64.421095 
L 138.676205 65.106811 
L 138.400669 65.630238 
L 138.330902 66.111755 
L 138.474852 67.887126 
L 137.741855 70.569355 
L 137.79131 71.211377 
L 138.215212 71.852509 
L 138.443059 72.195812 
L 138.602022 72.703189 
L 138.679737 73.330944 
L 138.584359 73.934624 
L 138.227576 74.359964 
L 137.614685 74.43665 
L 137.040651 74.118314 
L 136.130146 73.16063 
L 135.640893 74.141498 
L 135.665621 75.150009 
L 136.210511 75.873176 
L 137.275563 75.987313 
L 138.662075 75.634201 
L 139.338551 75.764389 
L 139.631749 76.479531 
L 139.395071 76.954806 
L 138.84135 77.111745 
L 138.210796 77.004741 
L 137.741855 76.696213 
L 137.13073 77.095694 
L 136.309421 77.143846 
L 134.589088 76.951239 
L 134.50519 77.17238 
L 134.356825 78.364581 
L 134.692414 78.682025 
L 135.385669 79.073481 
L 136.257317 78.909408 
L 136.740388 78.934376 
L 137.040651 79.307997 
L 136.909948 79.665568 
L 136.4728 79.966962 
L 135.940274 80.174728 
L 134.515788 80.463638 
L 134.512255 80.954964 
L 134.752466 81.506034 
L 134.473398 81.900164 
L 134.628828 82.362064 
L 135.262031 82.431616 
L 135.897884 82.304104 
L 137.46102 81.757492 
L 137.72066 81.538135 
L 137.854896 81.244766 
L 137.959105 80.546566 
L 138.129548 80.273707 
L 138.647945 80.047215 
L 139.416266 79.909894 
L 140.791297 79.833208 
L 141.433331 79.938428 
L 143.247276 80.600068 
L 143.466292 80.906812 
L 143.526345 81.246549 
L 143.448629 81.600554 
L 143.247276 82.090096 
L 144.26464 82.436967 
L 144.88283 82.978227 
L 145.09478 83.787889 
L 144.776854 85.537401 
L 144.720334 86.548587 
L 144.579034 86.982844 
L 144.232847 87.340415 
L 143.847803 87.565123 
L 143.568735 87.895943 
L 143.536942 88.576309 
L 143.960844 89.811311 
L 143.971441 90.361489 
L 143.558137 91.06593 
L 142.568151 92.0896 
L 142.571683 92.629077 
L 142.391525 93.741025 
L 141.813076 94.812846 
L 141.461591 95.868617 
L 141.927 96.943113 
L 143.5758 99.746613 
L 144.003234 101.433706 
L 143.074183 102.952268 
L 142.904623 103.94562 
L 142.52841 104.126634 
L 141.422733 103.904601 
L 141.062417 104.024981 
L 141.246108 104.160519 
L 141.018261 104.737448 
L 140.659711 105.136037 
L 140.294096 104.360259 
L 139.889623 104.20332 
L 139.458656 104.283573 
L 139.226394 104.610826 
L 139.518709 106.31932 
L 140.520176 108.48258 
L 141.880194 110.388139 
L 143.247276 111.322639 
L 143.830141 111.999438 
L 144.656749 112.763623 
L 145.546942 113.409213 
L 147.786555 114.464092 
L 148.38355 115.732087 
L 148.825114 117.038425 
L 150.135676 118.128972 
L 150.284042 119.388941 
L 150.276977 119.898101 
L 150.411212 120.015805 
L 150.948154 120.199495 
L 151.082389 121.048392 
L 150.824516 121.573602 
L 150.276977 121.915122 
L 148.768594 122.585679 
L 148.196327 122.96376 
L 146.772724 124.127426 
L 146.511318 124.159527 
L 146.334692 124.293282 
L 146.295835 124.740022 
L 146.437135 125.102944 
L 146.938752 125.654905 
L 146.998805 126.131963 
L 146.811582 126.578704 
L 146.37355 127.030795 
L 146.553708 127.877908 
L 146.680879 129.500799 
L 146.995272 130.788411 
L 146.984675 132.73588 
L 147.344991 135.186267 
L 147.316731 137.253224 
L 147.627592 139.22566 
L 147.553409 141.030457 
L 147.648787 141.704581 
L 146.659684 141.536942 
L 146.221652 142.2396 
L 145.931986 144.711388 
L 145.469227 144.950363 
L 144.473058 145.301692 
L 144.126872 145.640537 
L 143.791283 146.434149 
L 143.66058 148.438686 
L 143.830141 150.138263 
L 144.381213 151.657717 
L 145.458629 152.615401 
L 146.080351 152.701004 
L 146.758594 152.57795 
L 148.016168 152.1107 
L 148.242249 152.412094 
L 148.789789 154.675224 
L 148.747398 155.422467 
L 148.291704 156.688678 
L 147.973778 158.290168 
L 147.150703 160.358908 
L 147.03413 161.710723 
L 147.186028 163.264061 
L 147.1613 164.765681 
L 146.507785 165.953423 
L 146.066221 166.199532 
L 143.625255 166.770219 
L 144.017364 167.298104 
L 144.988805 168.054264 
L 145.391511 168.783673 
L 145.310264 169.36506 
L 144.589631 170.575987 
L 144.360018 171.301829 
L 144.469526 171.631757 
L 145.214886 172.151617 
L 146.43007 174.306852 
L 147.016467 174.43169 
L 147.613462 174.76251 
L 148.111546 175.237785 
L 148.401212 175.795096 
L 148.436537 176.355083 
L 148.139806 178.097461 
L 148.330562 178.818845 
L 149.259613 179.587489 
L 149.559876 180.135883 
L 149.881335 180.167985 
L 151.145975 180.201869 
L 151.584006 180.632559 
L 151.562811 180.954462 
L 151.107117 181.717756 
L 151.047064 182.636205 
L 151.259015 183.483319 
L 152.209261 185.137419 
L 152.929894 185.881095 
L 155.476835 187.265902 
L 156.589577 188.615042 
L 157.031141 188.951212 
L 157.730578 189.140252 
L 160.337573 189.150952 
L 161.231298 191.917 
L 162.033179 192.880035 
L 162.545393 193.127035 
L 162.806799 193.429321 
L 163.62281 194.558211 
L 164.092634 194.799861 
L 166.922176 195.124439 
L 167.324883 195.671942 
L 167.217447 196.890844 
L 166.997708 196.97229 
L 165.448409 197.812031 
L 164.277395 198.73041 
L 162.541735 200.606487 
L 162.14398 201.210314 
L 161.301184 202.898222 
L 161.142638 203.573666 
L 161.092571 204.28562 
L 160.739319 205.897698 
L 160.441698 206.53944 
L 159.356911 207.563138 
L 157.974502 208.046199 
L 151.449089 208.79326 
L 139.193773 207.89454 
L 137.725138 207.973178 
L 136.495712 208.329858 
L 136.150806 208.630367 
L 135.038203 208.767983 
L 134.390112 209.235598 
L 132.100933 209.859085 
L 131.57801 210.21436 
L 130.637861 211.097633 
L 129.308301 211.480993 
L 128.829882 211.989331 
L 128.451597 212.612818 
L 127.900859 213.17873 
L 125.023391 214.196811 
L 124.37669 214.806255 
L 124.076288 214.914382 
L 123.533894 214.963531 
L 116.199063 217.353563 
L 114.441151 217.654072 
L 114.021143 217.859093 
L 111.509443 219.9767 
L 111.242419 220.365677 
L 111.063012 220.896484 
L 110.602672 221.376737 
L 109.377419 222.135031 
L 106.327498 222.981794 
L 105.773978 223.405877 
L 105.206551 223.588429 
L 104.922837 223.099751 
L 103.153799 224.346724 
L 102.717103 224.511021 
L 100.719981 226.161014 
L 99.907782 227.124329 
L 99.393203 227.450115 
L 96.852297 227.823645 
L 96.067912 227.788539 
L 95.567241 227.340583 
L 95.334986 227.63688 
L 95.012331 227.750624 
L 94.166753 227.809602 
L 93.343427 228.02024 
L 92.938718 228.003389 
L 92.642488 227.382711 
L 92.3699 227.459944 
L 91.949893 227.809602 
L 90.840072 228.007602 
L 87.274181 229.55368 
L 86.606619 230.358315 
L 85.908461 230.771164 
L 84.55665 231.387629 
L 83.85571 231.533671 
L 81.263346 231.70499 
L 80.100677 232.32988 
L 78.068787 232.536305 
L 76.829626 233.147154 
L 74.451438 233.488386 
L 73.67957 233.78047 
L 73.077374 234.215787 
L 72.586438 233.988299 
L 71.984242 233.943363 
L 71.402907 234.089405 
L 70.980118 234.427829 
L 70.925879 234.707274 
L 71.163698 235.226847 
L 71.085816 235.499271 
L 70.729783 235.87561 
L 67.97331 237.359901 
L 66.987266 238.45662 
L 66.910775 238.709385 
L 66.955279 239.102574 
L 66.335003 239.188234 
L 63.987412 239.863677 
L 61.367233 241.046055 
L 60.820667 241.531925 
L 59.99456 242.717112 
L 59.481372 243.211407 
L 58.99739 243.408002 
L 56.641455 243.71132 
L 56.181115 243.89949 
L 55.061559 243.88966 
L 54.812614 243.662171 
L 54.716652 243.306896 
L 54.672148 242.608985 
L 53.08669 242.088008 
L 52.766817 241.74818 
L 51.312089 240.577036 
L 50.26068 240.068698 
L 49.723849 239.03517 
L 46.174647 237.637942 
L 40.391896 236.437309 
L 34.764909 234.512084 
L 30.306155 234.170851 
L 25.380108 233.300217 
L 20.095839 231.712147 
L 20.243476 231.143081 
L 21.188378 230.896142 
L 23.633322 230.914397 
L 24.371812 231.132056 
L 24.576253 231.335672 
L 25.177058 232.072903 
L 25.627662 232.011116 
L 26.701323 231.601075 
L 26.609534 230.653207 
L 27.559418 230.252996 
L 28.787453 230.056401 
L 29.527333 229.717977 
L 30.887761 229.771374 
L 31.672862 229.657236 
L 32.160349 229.306799 
L 32.488873 228.656751 
L 31.715252 227.612572 
L 31.877748 226.596036 
L 31.72585 226.199231 
L 31.248961 225.508165 
L 31.151817 225.029323 
L 31.376131 222.893705 
L 32.52773 223.10593 
L 32.981658 223.02211 
L 33.320779 222.587853 
L 33.407326 221.985957 
L 33.260727 221.365335 
L 32.328143 219.164623 
L 31.722317 216.694619 
L 31.512133 214.328944 
L 31.243662 213.876853 
L 30.80563 213.519282 
L 28.370846 212.887068 
L 27.815358 213.109992 
L 26.702617 213.787683 
L 26.034089 213.871503 
L 25.226027 213.417628 
L 25.041453 212.52593 
L 25.386756 210.368912 
L 23.166572 210.559735 
L 23.501277 206.621996 
L 23.413847 205.37451 
L 22.997011 204.125241 
L 21.680267 201.700713 
L 21.183949 200.467495 
L 20.148039 194.711583 
L 19.420342 192.785514 
L 18.31439 191.739867 
L 17.908426 191.245552 
L 15.211353 179.055145 
L 15.259042 178.475541 
L 15.505435 178.113512 
L 16.320562 177.537475 
L 16.991739 175.643508 
L 16.912258 175.41345 
L 16.451265 174.519076 
L 15.875465 173.615786 
L 15.923154 172.3683 
L 16.495421 171.03967 
L 20.437706 164.241362 
L 20.920777 163.938185 
L 22.613733 163.383549 
L 22.786826 163.139223 
L 23.069428 161.412896 
L 23.242521 161.065133 
L 24.80919 159.09448 
L 25.112986 158.423923 
L 25.137714 157.953106 
L 24.541602 156.906253 
L 24.50981 156.501422 
L 26.182454 145.924097 
L 26.639032 144.525914 
L 29.239844 138.988468 
L 29.714967 138.342879 
L 29.723798 138.155622 
L 29.652265 137.535 
L 29.946347 137.255007 
L 30.978723 136.50063 
L 31.091764 136.118984 
L 31.339923 133.288733 
L 31.554523 133.263766 
L 31.955463 133.611528 
L 32.003152 133.722099 
L 32.561289 133.251282 
L 34.120894 131.444701 
L 34.749681 130.995285 
L 36.789707 130.310461 
L 37.494443 129.951107 
L 37.831798 129.504366 
L 37.863591 128.90247 
L 37.642809 128.076757 
L 37.107633 126.647365 
L 37.252466 126.103429 
L 37.709926 125.43733 
L 37.992527 125.455164 
L 38.427027 125.660255 
L 38.820902 125.702165 
L 39.287193 125.544334 
L 40.82207 124.635694 
L 41.056982 124.109592 
L 37.748784 104.235422 
L 37.432161 104.367543 
L 37.266596 104.096317 
L 37.354909 103.656709 
L 37.969566 103.226019 
L 38.006658 102.754311 
L 37.310753 100.346726 
L 37.190647 99.456811 
L 36.567159 99.185734 
L 36.033749 97.56641 
L 35.998424 96.861077 
L 35.777642 96.306441 
L 34.913943 95.845433 
L 34.050243 95.651043 
L 32.700823 95.529772 
L 31.879514 94.923417 
L 32.200973 94.435658 
L 32.342273 93.894397 
L 32.407625 92.168069 
L 32.550692 91.880943 
L 33.278389 91.131916 
L 34.272792 89.283426 
L 35.357273 88.714522 
L 35.765278 88.058232 
L 35.811201 87.402834 
L 35.274259 87.105898 
L 34.677264 86.973927 
L 34.19331 86.61814 
L 33.924839 86.085796 
L 33.981359 85.434856 
L 34.332844 84.97474 
L 35.205375 84.500356 
L 35.380234 83.912727 
L 35.380234 82.981794 
L 35.166517 82.134681 
L 35.26896 80.541216 
L 33.573354 78.396682 
L 32.349338 77.279384 
L 32.172713 76.924488 
L 32.11266 76.362718 
L 32.165648 75.80719 
L 32.335208 75.242745 
L 32.628407 74.737152 
L 33.064672 74.359964 
L 32.693758 74.071945 
L 32.368767 73.16063 
L 31.879514 73.032225 
L 31.692291 73.000124 
L 31.413223 72.688921 
L 31.180077 71.972888 
L 31.307247 71.250612 
L 31.879514 70.097646 
L 33.278389 68.425712 
L 33.181245 68.087759 
L 32.368767 66.777854 
L 32.220402 65.907556 
L 32.538328 64.340843 
L 32.578952 63.456278 
L 32.356403 62.835656 
L 31.581017 61.671098 
L 31.413223 60.972007 
L 31.413223 58.015135 
L 31.056439 56.456447 
L 31.072335 55.768948 
L 31.519198 55.059156 
L 32.465911 54.212042 
L 32.578952 53.752818 
L 32.44295 53.125954 
L 31.550991 52.68813 
L 31.030828 52.615011 
L 30.825059 51.990822 
L 29.885411 51.750064 
L 29.608109 51.187402 
L 29.608109 50.463343 
L 30.012581 49.255092 
L 30.519497 48.722748 
L 30.85067 48.605044 
L 31.293117 48.569376 
L 31.667563 48.422246 
L 31.980191 48.097668 
L 32.128556 47.773981 
L 31.996087 47.625959 
L 30.604277 47.51093 
L 30.183908 47.296923 
L 28.983737 46.241152 
L 28.716149 45.805111 
L 28.511263 44.968699 
L 27.891307 44.307058 
L 27.799462 43.969997 
L 27.659928 42.893717 
L 26.635499 41.078219 
L 26.490666 40.419254 
L 26.58781 40.077734 
L 27.426782 38.403124 
L 27.326988 38.026828 
L 26.919421 37.769687 
L 26.838619 37.420473 
L 26.942828 37.213599 
L 27.495666 36.525208 
L 27.619304 35.736947 
L 28.19422 34.802447 
L 28.823891 32.48314 
L 29.283117 31.956146 
L 29.828007 31.539723 
L 30.288117 31.03413 
L 30.480639 30.244086 
L 30.275753 29.583337 
L 29.901307 28.971632 
L 29.696421 28.312667 
L 29.790916 28.06745 
L 29.743227 27.86771 
L 32.690226 27.921212 
L 32.704356 28.2877 
L 72.079509 27.898028 
L 72.478683 27.672428 
L 72.724192 27.066965 
L 73.319421 26.881492 
L 77.637918 27.015246 
L 79.541942 27.755356 
L 80.398576 27.912295 
L 88.866009 27.994331 
L 89.168039 27.469121 
L 90.137714 27.319315 
L 95.137986 27.750006 
L 95.397625 27.930129 
L 95.810929 28.507057 
L 96.167713 28.49279 
L 95.939866 28.964499 
L 96.535094 28.881571 
L 97.299883 28.043374 
L 98.031114 27.921212 
L 98.428521 27.597525 
L 98.621043 27.674211 
L 98.797669 27.930129 
L 102.932475 28.005031 
L 102.978398 28.394703 
L 103.130296 28.426805 
L 103.36874 28.339418 
L 103.686666 28.367953 
L 103.889786 28.609603 
L 103.384637 29.400539 
L 105.025489 30.975278 
L 105.62425 30.607007 
L 105.970436 29.827663 
L 106.219478 28.980549 
L 106.535638 28.405404 
L 107.026657 28.221714 
L 107.736692 28.14592 
L 109.299829 28.094201 
L 109.487052 27.924779 
L 109.808511 27.529756 
L 110.707535 27.104416 
L 111.112008 26.777163 
L 111.297465 26.411567 
L 111.532377 25.126629 
L 112.187658 24.29735 
L 112.848238 24.29735 
L 113.496454 24.81721 
L 114.111111 25.548403 
L 116.257996 23.880927 
L 116.525584 23.368201 
L 116.314516 22.733311 
L 116.409894 22.176 
L 121.043668 23.140817 
L 121.043668 23.140817 
" clip-path="url(#pa03580a074)" style="fill: none; stroke: #000000; stroke-width: 2"/>
   </g>
  </g>
 </g>
 <defs>
  <clipPath id="pa03580a074">
   <rect x="0" y="-0" width="182.536236" height="266.112"/>
  </clipPath>
 </defs>
</svg>
