<?xml version="1.0" encoding="utf-8" standalone="no"?>
<!DOCTYPE svg PUBLIC "-//W3C//DTD SVG 1.1//EN"
  "http://www.w3.org/Graphics/SVG/1.1/DTD/svg11.dtd">
<svg xmlns:xlink="http://www.w3.org/1999/xlink" width="354.650691pt" height="266.112pt" viewBox="0 0 354.650691 266.112" xmlns="http://www.w3.org/2000/svg" version="1.1">
 <metadata>
  <rdf:RDF xmlns:dc="http://purl.org/dc/elements/1.1/" xmlns:cc="http://creativecommons.org/ns#" xmlns:rdf="http://www.w3.org/1999/02/22-rdf-syntax-ns#">
   <cc:Work>
    <dc:type rdf:resource="http://purl.org/dc/dcmitype/StillImage"/>
    <dc:date>2024-02-02T21:58:01.675350</dc:date>
    <dc:format>image/svg+xml</dc:format>
    <dc:creator>
     <cc:Agent>
      <dc:title>Matplotlib v3.8.2, https://matplotlib.org/</dc:title>
     </cc:Agent>
    </dc:creator>
   </cc:Work>
  </rdf:RDF>
 </metadata>
 <defs>
  <style type="text/css">*{stroke-linejoin: round; stroke-linecap: butt}</style>
 </defs>
 <g id="figure_1">
  <g id="patch_1">
   <path d="M 0 266.112 
L 354.650691 266.112 
L 354.650691 0 
L 0 0 
L 0 266.112 
z
" style="fill: none"/>
  </g>
  <g id="axes_1">
   <g id="PatchCollection_1">
    <path d="M 98.971733 23.55748 
L 99.313472 23.442531 
L 99.598597 23.262792 
L 101.141566 22.986914 
L 101.477128 23.078874 
L 101.96812 23.396552 
L 102.66086 23.398642 
L 103.635638 23.187553 
L 103.855915 23.294142 
L 104.41793 23.793649 
L 105.982515 23.60137 
L 106.29852 23.816639 
L 106.672168 23.367292 
L 107.389612 23.735129 
L 109.415338 23.69124 
L 109.925887 24.242996 
L 110.097786 25.00375 
L 110.054554 25.816755 
L 109.903242 26.51272 
L 109.310346 27.88793 
L 109.16624 28.554636 
L 109.343285 29.34047 
L 109.802367 29.992546 
L 110.390116 30.310224 
L 111.081827 30.379193 
L 111.853826 30.293504 
L 112.564066 30.569382 
L 113.216662 30.523402 
L 113.675744 30.126305 
L 113.80647 29.34674 
L 114.473477 27.735361 
L 115.921747 27.718642 
L 117.479127 28.525376 
L 118.468315 29.39063 
L 118.471403 30.166015 
L 118.890341 30.548482 
L 119.271194 30.694781 
L 120.451838 30.78047 
L 121.086936 31.085608 
L 121.493523 31.815013 
L 122.31493 31.921602 
L 124.88826 31.777393 
L 125.706579 31.871443 
L 126.483725 32.19121 
L 127.13941 32.719977 
L 128.473424 34.348075 
L 128.503275 34.630224 
L 128.648411 34.786972 
L 129.267539 34.788743 
L 129.565546 34.701283 
L 131.506867 33.76288 
L 132.177991 33.62703 
L 132.867644 33.65838 
L 133.704491 33.861109 
L 135.43171 34.481835 
L 136.144008 34.993881 
L 137.275244 36.724389 
L 137.920636 37.050427 
L 144.648351 35.305289 
L 146.122355 34.486015 
L 147.441959 33.284273 
L 148.156315 32.935245 
L 149.144474 32.903896 
L 151.546936 33.70018 
L 152.395105 33.783779 
L 152.924182 33.67719 
L 155.328702 32.473359 
L 155.460457 32.584128 
L 157.869094 33.593591 
L 158.688443 33.77124 
L 161.947309 33.907089 
L 163.452192 33.65838 
L 166.517544 32.519338 
L 168.17271 32.21211 
L 171.604504 31.952952 
L 172.948811 32.090891 
L 175.563315 33.031385 
L 176.662642 33.075274 
L 176.654407 33.861109 
L 175.898878 33.963518 
L 174.93954 33.921718 
L 174.319882 34.262386 
L 174.151071 35.16944 
L 174.412522 36.770369 
L 174.424874 37.702502 
L 173.681696 39.301341 
L 172.549431 40.475913 
L 171.907127 41.660935 
L 172.631777 43.295303 
L 173.381131 43.966189 
L 175.820648 45.046711 
L 176.530888 45.619367 
L 178.140763 47.776232 
L 178.803653 48.350978 
L 180.397059 49.285202 
L 181.181411 49.56108 
L 181.957527 49.56526 
L 183.240075 49.034404 
L 183.890613 48.998874 
L 184.520564 48.827495 
L 185.111401 48.217219 
L 185.537545 47.443925 
L 185.786643 46.275623 
L 186.052211 46.139774 
L 186.389832 46.120964 
L 186.706866 45.968395 
L 187.491217 44.810543 
L 188.777882 43.886769 
L 189.236965 43.364273 
L 189.753689 41.627495 
L 190.052196 41.219948 
L 190.591566 41.109179 
L 191.520023 41.142618 
L 193.25136 40.569962 
L 194.043946 40.534432 
L 195.017694 40.797771 
L 195.729992 41.316087 
L 197.329575 43.81153 
L 198.255974 44.501225 
L 199.190607 44.942212 
L 199.907022 45.529498 
L 200.162297 46.656 
L 200.055246 47.015478 
L 199.608516 48.05838 
L 199.793796 48.486827 
L 200.860184 49.56317 
L 202.480353 52.650078 
L 203.635264 53.84346 
L 205.284254 53.776581 
L 205.877149 53.496523 
L 206.272413 53.116145 
L 207.064999 51.680325 
L 207.213223 51.122299 
L 207.522022 50.716842 
L 208.244613 50.223605 
L 209.685679 49.60497 
L 209.4057 48.712546 
L 209.846254 48.223489 
L 210.645016 47.845202 
L 211.454071 47.270456 
L 211.462306 46.977858 
L 211.351138 46.549411 
L 211.365549 46.160673 
L 211.878156 45.836726 
L 211.550829 45.023721 
L 211.592002 44.634984 
L 212.314593 44.377916 
L 214.218858 44.528395 
L 214.885865 43.610891 
L 216.779836 42.124911 
L 217.304796 42.473939 
L 217.895632 42.676668 
L 217.866811 42.095652 
L 218.093264 41.936813 
L 218.455589 41.909643 
L 218.832325 41.709004 
L 219.083482 41.240848 
L 219.365519 41.447756 
L 219.583737 41.683925 
L 219.824601 41.205318 
L 221.339778 40.601312 
L 221.656812 40.764331 
L 222.101484 41.278467 
L 223.414912 41.539716 
L 224.812745 42.202241 
L 225.59092 42.35272 
L 226.848764 42.35272 
L 227.23991 42.528279 
L 228.098374 43.194984 
L 228.508048 43.320383 
L 229.576495 43.443692 
L 230.058222 43.692401 
L 230.871395 44.327756 
L 231.355181 44.561835 
L 232.116887 44.793823 
L 233.504426 45.527408 
L 235.034014 45.868075 
L 236.405085 46.961138 
L 237.123558 47.303896 
L 237.50647 47.312255 
L 238.599621 47.180586 
L 239.023706 47.351965 
L 240.075683 48.10227 
L 240.792099 48.332168 
L 243.00928 48.382328 
L 244.470932 46.65391 
L 244.660329 46.141864 
L 244.575924 45.305869 
L 244.631508 44.616174 
L 244.915603 43.991268 
L 245.518792 43.351733 
L 246.786929 42.528279 
L 251.270701 41.036029 
L 252.70559 39.871907 
L 254.327817 39.106972 
L 255.019529 39.012923 
L 257.463163 39.4351 
L 258.39368 38.496697 
L 258.589253 37.9742 
L 258.465733 37.012807 
L 258.990692 36.864418 
L 259.346841 36.222792 
L 259.521828 35.455768 
L 259.495065 34.941631 
L 259.270671 34.743083 
L 258.30001 34.421225 
L 258.109584 34.036668 
L 257.981947 33.376232 
L 256.884679 32.782676 
L 255.58772 31.407466 
L 255.375678 30.993649 
L 255.950045 30.270514 
L 257.833723 29.810717 
L 258.498672 29.33838 
L 259.003044 29.32584 
L 260.096195 29.844157 
L 260.699384 29.41362 
L 261.220226 29.38227 
L 264.262932 30.028076 
L 265.942802 30.584012 
L 272.057036 33.7378 
L 272.771392 34.498554 
L 273.216064 35.405608 
L 273.281941 36.298032 
L 272.921675 37.196726 
L 271.974689 38.854084 
L 271.908812 39.913707 
L 272.039537 40.317074 
L 272.853739 41.823954 
L 273.337525 41.807234 
L 274.121876 41.489556 
L 274.718889 41.832314 
L 275.24179 42.540819 
L 275.554707 43.435332 
L 275.517651 44.340296 
L 274.920638 45.930775 
L 274.74771 46.810659 
L 274.914462 47.575594 
L 275.647346 48.181689 
L 276.526396 48.229759 
L 277.438385 48.12317 
L 278.265968 48.271559 
L 278.990618 48.898554 
L 279.163545 49.58407 
L 279.185161 51.214258 
L 279.651449 52.041893 
L 279.86555 52.43899 
L 279.898489 52.919687 
L 277.897467 63.244215 
L 278.642703 63.194055 
L 280.686957 64.134549 
L 281.510423 64.017509 
L 282.706507 63.586972 
L 283.249994 63.96735 
L 284.59842 68.425289 
L 285.485704 69.776464 
L 287.659654 70.760848 
L 288.734276 70.833997 
L 289.755374 70.031443 
L 289.97771 70.536174 
L 290.315331 72.136058 
L 290.632365 72.730659 
L 291.101741 72.909353 
L 292.203126 72.940702 
L 294.609705 73.673242 
L 295.807847 74.246943 
L 296.697191 74.984708 
L 295.978717 75.172807 
L 295.151134 75.558409 
L 294.675582 76.084041 
L 294.998792 76.689091 
L 295.731677 76.824941 
L 296.460444 76.705811 
L 296.86806 76.88973 
L 296.641607 77.936813 
L 296.176348 78.472894 
L 295.447581 78.720557 
L 294.642643 78.764447 
L 293.93858 78.680848 
L 292.398699 78.330775 
L 292.026081 78.619193 
L 291.636993 79.676726 
L 291.849036 80.118758 
L 291.645228 80.50436 
L 291.107917 80.590049 
L 290.770296 80.804273 
L 289.666851 81.330949 
L 289.183065 82.031094 
L 288.954554 83.472139 
L 288.616933 84.10854 
L 288.264901 84.294549 
L 287.458934 84.307089 
L 287.132635 84.432488 
L 286.766193 84.918409 
L 286.753841 85.316552 
L 286.854716 85.704244 
L 286.825894 86.162996 
L 286.404898 86.970775 
L 284.213449 89.346044 
L 283.886122 90.013794 
L 283.73378 90.725434 
L 283.912884 91.36079 
L 284.522249 91.782967 
L 285.148083 91.594868 
L 285.835677 91.236435 
L 286.622087 91.154926 
L 288.011685 91.28137 
L 288.717807 91.198816 
L 289.358052 91.002357 
L 290.074467 90.510165 
L 290.469731 89.892575 
L 291.501121 87.71899 
L 292.16607 87.72108 
L 292.964832 87.978148 
L 294.55618 87.900819 
L 295.297299 88.158932 
L 295.688445 88.101457 
L 296.458385 87.67301 
L 296.935996 87.66047 
L 297.812987 88.109817 
L 298.638511 88.889382 
L 299.254052 89.821515 
L 299.494916 90.733794 
L 299.464036 95.66616 
L 298.945252 96.34436 
L 298.111493 98.595274 
L 298.027088 99.429179 
L 299.077007 99.839861 
L 299.254052 100.559861 
L 299.875768 108.56137 
L 300.318381 109.620993 
L 301.535052 111.296116 
L 302.531446 113.172923 
L 303.260213 113.55121 
L 304.118676 113.568975 
L 305.03684 113.388192 
L 305.990002 112.92108 
L 306.253511 113.015129 
L 306.652892 113.648395 
L 306.784646 114.140586 
L 306.831996 115.210659 
L 307.048155 115.72793 
L 307.820155 116.274462 
L 308.857721 116.47092 
L 311.023436 116.573329 
L 311.797494 117.021631 
L 312.384214 117.880615 
L 313.059456 119.825347 
L 313.139744 120.86407 
L 312.923584 121.804563 
L 312.061003 123.74616 
L 311.655446 124.202822 
L 311.15725 125.247814 
L 311.023436 125.834055 
L 310.259672 126.827843 
L 309.343566 127.34198 
L 307.315782 128.105869 
L 306.568487 128.79661 
L 305.763549 129.891762 
L 305.335347 130.907495 
L 305.718258 131.353707 
L 306.220572 131.533446 
L 306.068231 131.927408 
L 305.578269 132.320325 
L 304.723923 132.648453 
L 304.688926 133.00584 
L 304.96067 133.747785 
L 305.316819 133.841835 
L 305.54533 133.900354 
L 305.691496 134.126073 
L 305.780018 135.145985 
L 305.471218 135.343489 
L 305.633853 135.711327 
L 305.798546 135.769846 
L 306.545841 135.707147 
L 306.729062 136.572401 
L 305.211827 147.46018 
L 305.234472 148.351559 
L 305.559741 149.989062 
L 305.858247 150.634868 
L 308.176304 153.941225 
L 308.843311 154.663315 
L 309.495907 155.005028 
L 310.362605 155.184766 
L 311.984833 155.157597 
L 312.802123 154.848279 
L 314.3173 153.987205 
L 315.159293 153.809556 
L 316.804166 153.811646 
L 317.012091 154.162763 
L 315.962173 157.385521 
L 315.834535 158.319745 
L 314.411998 161.831965 
L 314.45523 163.30436 
L 316.480956 164.112139 
L 317.70792 163.924041 
L 318.253466 164.958583 
L 318.685786 165.40375 
L 319.575129 166.098671 
L 321.234412 167.033939 
L 321.736726 167.64944 
L 321.680185 167.691767 
L 321.042956 168.168801 
L 320.091853 168.31301 
L 318.53962 168.40288 
L 314.965779 170.242067 
L 314.36259 170.884737 
L 313.975561 171.864941 
L 313.782047 172.820064 
L 313.613236 174.804505 
L 312.886528 178.310456 
L 313.285909 179.558177 
L 315.109885 180.115158 
L 315.993052 180.217567 
L 318.558148 180.923983 
L 318.977087 180.709759 
L 319.210745 180.716029 
L 319.470137 180.890543 
L 319.978627 181.623083 
L 321.0059 182.628366 
L 321.959062 184.374549 
L 322.33271 184.812401 
L 323.443359 185.564795 
L 323.727455 185.913823 
L 323.93538 186.670398 
L 323.840681 188.222212 
L 323.931263 189.075971 
L 324.427401 190.757364 
L 324.425342 191.459599 
L 324.139188 192.476377 
L 324.015668 193.444041 
L 324.268884 194.307205 
L 325.096467 196.024128 
L 322.774293 196.280151 
L 321.674966 196.127582 
L 320.771213 195.552836 
L 319.519545 193.017684 
L 318.667258 191.858787 
L 317.794384 192.001951 
L 317.648219 192.613271 
L 317.753211 193.281022 
L 317.681157 193.849498 
L 317.003857 194.162996 
L 316.336849 194.140006 
L 315.689399 193.944592 
L 315.120179 193.624824 
L 314.683742 193.237132 
L 314.160841 192.11899 
L 313.88498 191.584999 
L 313.390901 191.191036 
L 312.822709 191.086537 
L 312.211286 191.168046 
L 311.023436 191.480499 
L 310.656994 191.42407 
L 309.63075 191.461689 
L 309.370329 191.333155 
L 308.935951 190.944418 
L 308.596271 190.831559 
L 307.789275 190.894258 
L 306.465553 191.42407 
L 305.652381 191.509759 
L 304.225726 191.218206 
L 303.669887 191.293446 
L 301.514465 193.126363 
L 301.518583 193.612285 
L 302.212353 195.004215 
L 302.276171 195.836029 
L 301.78415 198.139193 
L 301.759446 200.120499 
L 301.108908 200.811239 
L 301.053325 201.236552 
L 304.361598 203.433126 
L 308.242181 204.631733 
L 308.623034 204.577393 
L 311.023436 203.747669 
L 311.517516 203.741399 
L 311.552513 204.135361 
L 311.023436 205.192894 
L 310.784631 206.423896 
L 310.801101 207.033126 
L 311.023436 207.606827 
L 311.766614 208.057219 
L 312.429504 208.799164 
L 313.018105 210.095993 
L 313.137685 210.571472 
L 312.431563 210.515042 
L 311.17166 209.746972 
L 309.504142 210.021806 
L 308.896836 210.000906 
L 308.970948 210.345753 
L 308.905071 211.323866 
L 308.497455 212.897626 
L 306.514961 215.934374 
L 306.422321 217.558293 
L 306.718769 217.97838 
L 307.608112 218.755855 
L 307.81192 219.196842 
L 307.73472 219.602299 
L 307.062566 220.208395 
L 306.908166 220.85838 
L 306.76406 222.206421 
L 306.574663 222.791617 
L 305.267411 224.442705 
L 305.353875 225.007001 
L 305.19124 225.17211 
L 304.563347 225.588017 
L 303.766644 226.61211 
L 303.560778 227.379135 
L 303.671946 228.319628 
L 302.527328 229.615419 
L 301.078028 228.977974 
L 299.569027 227.795042 
L 298.232954 227.450194 
L 296.818652 227.876552 
L 296.077533 227.937161 
L 295.124371 226.839919 
L 294.119743 227.366595 
L 292.310177 229.061573 
L 289.825369 227.331065 
L 289.080132 226.415652 
L 288.831034 225.310049 
L 289.045135 223.79481 
L 284.297855 223.546102 
L 283.982879 224.352836 
L 282.939136 225.633997 
L 282.664304 226.472081 
L 282.508875 228.10018 
L 282.202134 228.750165 
L 282.247425 229.000964 
L 282.694155 229.310282 
L 282.737387 230.252865 
L 282.582987 231.055419 
L 282.187723 231.789004 
L 281.512482 232.522589 
L 280.161998 233.396203 
L 280.01995 233.772401 
L 279.960249 234.597945 
L 279.809966 234.957422 
L 279.472345 235.26883 
L 278.821807 235.459019 
L 278.448159 235.699367 
L 277.364273 237.164447 
L 277.174876 237.599164 
L 277.257222 238.286769 
L 277.551611 239.016174 
L 277.732774 239.783199 
L 277.475441 240.585753 
L 277.034886 240.844911 
L 275.309725 241.511617 
L 274.782707 241.574316 
L 274.027178 240.357945 
L 273.516629 240.042357 
L 273.302528 240.9933 
L 272.88256 240.803112 
L 272.699339 240.861631 
L 272.567584 241.494897 
L 272.390539 241.515797 
L 271.186221 241.967234 
L 270.502744 241.910804 
L 269.953081 242.215942 
L 268.899044 243.081196 
L 267.272699 243.524273 
L 266.815676 243.936 
L 267.188294 242.54198 
L 267.046246 242.004853 
L 265.959272 241.352778 
L 265.936626 240.652633 
L 265.713261 240.487524 
L 264.582025 240.479164 
L 263.593866 239.56166 
L 263.052437 237.028598 
L 262.476011 236.207234 
L 261.863559 236.136174 
L 260.505869 236.499832 
L 259.880035 236.397422 
L 259.64123 236.119454 
L 259.365369 235.3169 
L 259.08745 234.967872 
L 258.465733 234.656464 
L 257.232593 234.597945 
L 256.703516 234.811123 
L 256.617052 235.25002 
L 256.184733 235.456929 
L 255.583603 236.338903 
L 255.130697 235.945986 
L 254.358697 234.579135 
L 253.914026 235.24584 
L 252.754998 236.384882 
L 252.406759 236.534971 
L 252.262977 236.420412 
L 252.701472 236.042125 
L 252.948512 235.630398 
L 253.238784 234.098438 
L 253.617578 233.709701 
L 254.438985 233.082705 
L 255.342739 231.720035 
L 255.68036 230.856871 
L 255.530077 230.296755 
L 256.5275 228.998874 
L 256.722044 227.918351 
L 256.952615 227.308075 
L 257.294353 226.785579 
L 257.728731 226.455361 
L 256.884679 225.464708 
L 256.822919 224.104128 
L 257.216124 222.664128 
L 257.650502 221.623315 
L 256.633522 220.308714 
L 256.287666 219.619019 
L 255.252158 218.285608 
L 254.336052 216.59481 
L 253.946964 214.912372 
L 254.043722 213.204853 
L 254.611913 211.323866 
L 254.898067 210.949759 
L 254.98659 210.546392 
L 254.914537 210.126305 
L 254.710729 209.692633 
L 254.245471 209.139832 
L 253.823445 209.091762 
L 253.39936 209.427205 
L 252.919691 210.019716 
L 252.977333 209.552604 
L 253.411712 208.822154 
L 253.494058 208.403112 
L 252.633536 204.524099 
L 252.238273 204.31092 
L 251.270701 204.112372 
L 250.692216 203.68288 
L 250.622221 202.598177 
L 250.879554 201.446595 
L 251.528034 200.443402 
L 251.464215 200.262618 
L 251.270701 200.087059 
L 250.891906 199.236435 
L 250.690157 198.810078 
L 250.323715 198.462096 
L 251.005133 197.811065 
L 251.927415 197.293794 
L 251.719489 197.185115 
L 251.435394 196.876842 
L 250.735448 196.37002 
L 248.738543 195.521486 
L 248.225936 194.801486 
L 247.902726 194.567408 
L 247.130726 195.302038 
L 246.469895 195.308308 
L 245.782301 195.327118 
L 245.185288 195.462967 
L 244.831198 195.350107 
L 244.884723 194.617567 
L 245.2594 194.102386 
L 245.782301 193.735594 
L 246.111688 193.251762 
L 245.895528 192.386508 
L 245.378803 191.858787 
L 244.5821 191.486769 
L 243.79569 191.478409 
L 243.307787 192.04166 
L 243.044277 193.566305 
L 242.494614 192.965434 
L 242.080823 192.254839 
L 241.897601 191.534839 
L 241.642327 189.640267 
L 241.413815 188.942212 
L 240.993848 188.414491 
L 240.316547 188.318351 
L 240.339192 188.816813 
L 239.861582 189.459483 
L 239.588809 189.811646 
L 239.589839 190.135594 
L 239.723652 190.445956 
L 239.670126 190.71034 
L 238.681967 191.002938 
L 237.605286 191.486769 
L 237.226492 191.040557 
L 237.041212 190.948598 
L 236.281565 191.128337 
L 234.836382 191.228656 
L 234.198196 191.43452 
L 233.522954 191.789817 
L 231.966604 193.013504 
L 230.364963 193.969672 
L 229.516793 194.110746 
L 228.985658 193.929962 
L 228.81273 193.391791 
L 229.21417 191.494084 
L 228.942426 190.902618 
L 228.345413 190.554636 
L 226.078824 189.980935 
L 225.40564 189.966305 
L 224.730399 190.171123 
L 223.384032 191.505579 
L 222.714966 191.891181 
L 222.402049 191.216116 
L 221.164792 191.605898 
L 219.93371 191.534839 
L 219.614617 191.35301 
L 218.257957 191.000848 
L 217.045404 191.174316 
L 216.446333 191.404215 
L 215.944019 191.731298 
L 215.47876 192.16915 
L 215.091731 192.719861 
L 214.128277 194.699077 
L 213.640373 195.325028 
L 211.28732 197.644912 
L 209.889486 198.572865 
L 209.160719 198.866508 
L 208.738693 198.772459 
L 207.007356 197.777626 
L 205.689811 197.706566 
L 204.559604 198.078583 
L 203.773194 198.925028 
L 203.482923 200.281428 
L 202.682102 199.565608 
L 203.091776 198.248917 
L 204.007882 196.885202 
L 204.732532 196.024128 
L 205.319251 195.04497 
L 205.893619 191.549469 
L 206.32388 191.494084 
L 206.435047 191.174316 
L 206.52357 190.158583 
L 206.80149 189.668482 
L 207.414972 189.082241 
L 208.051099 187.903489 
L 208.683109 187.046595 
L 209.448932 186.401835 
L 211.174093 186.167756 
L 211.923447 185.642125 
L 212.466934 184.8542 
L 212.777793 183.987901 
L 210.850883 181.290775 
L 210.249753 180.850833 
L 208.506064 178.563344 
L 208.084038 178.208046 
L 208.106683 177.632255 
L 208.09639 177.453562 
L 207.668187 175.905927 
L 207.598193 172.960093 
L 207.78759 171.556668 
L 208.383023 169.056564 
L 208.306373 168.553358 
L 207.832881 168.162531 
L 206.902364 167.896058 
L 205.319251 167.730949 
L 203.67232 167.789469 
L 202.241548 167.351617 
L 201.957452 165.883402 
L 202.39183 164.137219 
L 203.10207 162.874868 
L 203.937887 162.397306 
L 204.359914 162.132923 
L 204.676948 161.661631 
L 204.728415 161.287524 
L 204.563721 160.255071 
L 205.129854 158.851646 
L 205.078388 158.346914 
L 203.379989 156.85571 
L 202.433004 156.300819 
L 201.957452 155.875507 
L 201.479842 155.161776 
L 200.685198 155.080267 
L 200.036718 155.078177 
L 199.332655 155.046827 
L 198.838576 154.881718 
L 199.647631 154.229643 
L 199.569401 154.001835 
L 198.945626 153.595332 
L 197.918353 152.328801 
L 197.749542 151.611936 
L 198.008934 150.030862 
L 197.70631 149.769614 
L 197.292519 149.573155 
L 197.008423 149.198003 
L 196.664626 147.752778 
L 196.277597 147.352546 
L 195.256499 146.640906 
L 194.96211 146.244853 
L 194.521556 144.869643 
L 194.262165 144.661689 
L 193.391349 144.281312 
L 193.148427 143.89571 
L 192.68111 142.521544 
L 191.734125 140.702212 
L 190.346585 138.906914 
L 188.712005 137.32793 
L 185.751646 135.443808 
L 185.457257 134.970427 
L 184.625556 131.405956 
L 184.185002 131.019309 
L 183.63328 130.970194 
L 182.284855 130.564737 
L 181.27405 130.459193 
L 155.880424 130.600267 
L 155.68691 133.06854 
L 155.415166 133.443692 
L 146.667901 135.358119 
L 145.9906 135.328859 
L 144.584533 134.905637 
L 143.638576 134.319396 
L 142.912897 133.664186 
L 142.196482 133.192894 
L 141.2742 133.158409 
L 135.288633 134.438525 
L 133.482155 135.100006 
L 132.048295 135.94436 
L 131.80949 136.311152 
L 131.833165 136.835739 
L 131.837282 137.261051 
L 131.318499 140.383489 
L 131.485251 141.03661 
L 131.361731 141.133794 
L 130.958232 141.104534 
L 130.880003 141.300993 
L 130.835742 141.948888 
L 130.706046 141.972923 
L 129.468789 142.731588 
L 129.103376 143.103605 
L 128.334465 144.383721 
L 128.286086 146.096464 
L 128.124481 146.446537 
L 127.047799 146.561486 
L 126.860461 146.903199 
L 126.32212 148.519803 
L 125.636585 148.97333 
L 125.706579 149.358932 
L 124.165669 153.999745 
L 123.757024 154.385347 
L 123.498662 154.883808 
L 122.929441 154.675855 
L 122.031863 155.257916 
L 121.711741 155.683228 
L 121.721005 156.004041 
L 121.880552 156.369788 
L 121.856877 156.680151 
L 121.308243 156.83481 
L 120.617561 157.189062 
L 119.666458 158.778496 
L 119.001509 159.337568 
L 118.162604 159.477597 
L 116.618605 159.477597 
L 115.746761 159.942618 
L 114.970644 159.130659 
L 114.137915 159.72317 
L 113.506934 160.970891 
L 113.323713 162.132923 
L 113.499729 162.539425 
L 114.046304 163.215536 
L 114.088507 163.548888 
L 113.943371 163.594868 
L 113.092113 163.772517 
L 112.379815 164.912604 
L 111.853826 166.181225 
L 111.311368 166.859425 
L 110.588777 167.322357 
L 109.051984 168.072662 
L 107.843548 168.964041 
L 107.240359 169.06436 
L 106.332488 168.746682 
L 104.821429 167.789469 
L 104.193536 167.63899 
L 103.15391 167.827089 
L 101.411251 168.37153 
L 100.466299 169.063339 
L 99.649318 168.451155 
L 99.482355 168.000244 
L 99.73523 167.361729 
L 100.48413 167.318942 
L 100.466299 166.853221 
L 101.553987 165.725945 
L 102.777839 163.876226 
L 103.460278 163.491142 
L 104.165411 163.458229 
L 105.444377 163.718243 
L 106.178688 163.491142 
L 106.178688 163.239356 
L 103.75692 163.329867 
L 102.609256 163.217963 
L 102.122957 162.799966 
L 102.195902 162.641982 
L 102.667611 162.108789 
L 102.667611 161.582179 
L 102.983706 160.765932 
L 103.18633 159.926647 
L 102.30775 160.839987 
L 101.921953 161.825736 
L 101.690151 162.893768 
L 101.28166 164.067122 
L 99.900572 163.377591 
L 99.626624 162.938201 
L 99.968654 162.735785 
L 100.046461 162.360575 
L 99.924887 161.305708 
L 99.968654 161.312291 
L 100.193972 160.617823 
L 100.10968 160.476297 
L 99.626624 160.176787 
L 99.511533 159.363832 
L 99.500186 158.162502 
L 99.766029 157.415373 
L 100.466299 157.966668 
L 100.375524 156.702803 
L 100.466299 156.309491 
L 100.193972 156.309491 
L 99.954065 156.604064 
L 99.626624 156.771921 
L 98.404393 157.040163 
L 98.206631 157.45816 
L 97.804624 159.329273 
L 97.542023 159.70942 
L 96.049086 158.875072 
L 96.361938 158.267824 
L 95.966415 157.912362 
L 95.577376 157.277138 
L 95.298565 156.503679 
L 95.251556 155.733511 
L 95.523884 154.973217 
L 96.394358 153.829485 
L 96.660202 152.972097 
L 96.361938 152.972097 
L 95.395825 153.725808 
L 93.920719 153.829485 
L 92.575293 153.399968 
L 91.98525 152.557391 
L 91.711302 151.349478 
L 91.716165 150.717546 
L 92.811958 149.109738 
L 93.004856 148.472868 
L 93.072938 147.72574 
L 92.800611 147.72574 
L 91.92041 149.529381 
L 91.385482 150.289675 
L 90.651171 150.511838 
L 90.09679 150.156376 
L 89.544031 149.417476 
L 89.13554 148.532112 
L 89.018828 147.72574 
L 87.80146 148.239185 
L 85.452638 149.60179 
L 84.292005 150.028015 
L 83.682511 150.284738 
L 83.530137 150.072448 
L 83.614429 149.730151 
L 84.343877 149.384563 
L 85.637431 147.534843 
L 86.460897 146.590236 
L 86.934228 145.515621 
L 87.530754 144.562785 
L 87.640982 143.930853 
L 87.634498 141.32413 
L 87.819291 141.133234 
L 88.363946 140.919299 
L 88.740017 140.205083 
L 89.892545 139.556694 
L 90.108137 138.862226 
L 89.284671 139.309845 
L 88.785405 139.428333 
L 88.394745 139.188067 
L 86.655417 137.112892 
L 86.519253 136.653753 
L 85.97784 136.905539 
L 86.415509 138.174341 
L 86.545189 139.316428 
L 86.117246 140.224831 
L 84.888531 140.79752 
L 83.423151 140.647765 
L 82.695324 139.689992 
L 82.589959 138.391568 
L 82.985482 137.206695 
L 84.64214 135.12 
L 85.292159 133.796891 
L 85.160859 132.462263 
L 84.815586 132.166044 
L 84.67456 132.707466 
L 84.494629 133.8693 
L 84.066686 134.132606 
L 83.280504 135.281275 
L 82.714776 135.524832 
L 82.765027 135.695981 
L 82.593201 135.819405 
L 81.041909 136.362472 
L 79.487374 136.146891 
L 78.884363 135.928018 
L 78.631488 135.651548 
L 78.398065 135.197346 
L 77.8372 134.49465 
L 77.161245 133.849552 
L 76.58255 133.568145 
L 75.506209 132.888488 
L 75.285753 132.588979 
L 74.799454 131.634497 
L 74.446077 131.473223 
L 73.44106 131.334987 
L 73.139555 131.089784 
L 72.354993 130.255436 
L 71.337008 129.934532 
L 70.912307 129.778195 
L 70.299571 129.274624 
L 70.158544 128.270772 
L 70.785869 127.082607 
L 71.81358 126.478651 
L 72.872091 127.217551 
L 72.580311 126.730437 
L 72.034036 126.059008 
L 71.500728 125.581767 
L 71.265684 125.687089 
L 70.9658 126.200535 
L 70.362789 125.986599 
L 69.900806 125.520878 
L 70.014275 125.259218 
L 70.878266 124.908693 
L 71.549358 124.071053 
L 72.62732 122.221334 
L 72.045383 122.501096 
L 71.632029 122.866432 
L 70.844225 123.738631 
L 70.41304 124.015101 
L 69.064372 124.706277 
L 68.991427 125.199975 
L 69.064372 127.066151 
L 68.94766 127.523644 
L 68.616977 127.939995 
L 68.104742 128.234568 
L 67.43365 128.320142 
L 66.52103 128.046963 
L 65.832107 127.434778 
L 65.460899 126.646508 
L 65.501423 125.836844 
L 66.140096 125.176936 
L 67.119177 124.454492 
L 67.697873 123.722174 
L 67.135387 123.050746 
L 66.979771 123.643182 
L 66.522651 123.975605 
L 65.906672 124.120423 
L 65.256653 124.153336 
L 65.353913 125.058448 
L 64.64878 125.738105 
L 63.763716 126.006347 
L 63.326047 125.687089 
L 63.19961 125.407328 
L 62.640366 124.614121 
L 62.512307 124.015101 
L 62.645229 123.722174 
L 63.060204 123.215311 
L 62.90783 122.92403 
L 62.693859 122.845038 
L 62.30482 123.034289 
L 61.862288 123.83737 
L 60.986951 123.350255 
L 58.586256 121.148365 
L 58.174523 120.947595 
L 57.616901 120.815942 
L 57.01389 120.858729 
L 55.948896 121.077602 
L 55.415589 120.815942 
L 54.595365 121.619023 
L 54.193358 121.191152 
L 54.053952 119.295354 
L 54.368425 117.991993 
L 54.353836 117.478548 
L 54.177148 116.950292 
L 53.687607 116.53394 
L 51.220452 113.973297 
L 50.792509 113.084642 
L 50.677418 112.235482 
L 50.692007 111.203655 
L 50.89139 110.277149 
L 51.309607 109.743956 
L 51.293397 109.745602 
L 50.656345 109.801554 
L 50.218677 110.102709 
L 49.404937 110.849838 
L 48.863524 111.047317 
L 48.182706 111.152639 
L 47.566728 111.035797 
L 47.229561 110.571722 
L 46.957233 110.571722 
L 46.681664 111.083522 
L 46.419063 110.902499 
L 46.222922 110.313354 
L 46.143494 109.605721 
L 46.286141 108.35173 
L 46.710842 107.234328 
L 47.151753 107.380791 
L 47.686681 106.946338 
L 48.266998 106.316051 
L 48.863524 105.879951 
L 47.900653 105.856912 
L 47.579696 105.333593 
L 47.628326 104.596338 
L 48.114624 102.338496 
L 48.430718 101.769098 
L 48.863524 102.012655 
L 49.109916 102.012655 
L 49.187723 101.408699 
L 49.489229 101.094378 
L 49.975527 100.732334 
L 50.494246 98.925401 
L 51.457117 96.993399 
L 52.009877 96.767944 
L 52.319487 96.224877 
L 52.371359 95.578133 
L 52.150903 95.035066 
L 52.695558 94.258316 
L 51.910996 94.488708 
L 51.805631 94.803028 
L 51.941795 95.252293 
L 51.854261 95.887517 
L 49.777766 97.441018 
L 49.103432 98.458034 
L 48.54743 99.542523 
L 48.085446 100.854112 
L 47.53755 101.726311 
L 46.415821 103.092207 
L 45.29085 104.082893 
L 44.744574 104.286955 
L 44.50953 103.796549 
L 44.588959 103.166262 
L 44.812656 102.721934 
L 45.157928 102.433944 
L 45.60046 102.266087 
L 45.065531 102.210134 
L 44.50953 102.539266 
L 43.966496 102.012655 
L 44.773752 99.712026 
L 45.446465 98.841473 
L 46.279657 98.234225 
L 46.67518 97.539757 
L 46.143494 97.269869 
L 45.615049 97.957754 
L 43.815744 99.353272 
L 43.352139 100.041157 
L 42.886913 101.551871 
L 42.334154 102.012655 
L 41.948357 101.226031 
L 41.038978 100.166227 
L 40.949824 99.226557 
L 41.486373 99.246305 
L 41.948357 98.876032 
L 42.580545 97.822811 
L 42.901502 96.680724 
L 43.1252 95.035066 
L 42.390889 95.578133 
L 42.136392 95.907265 
L 42.039133 96.289057 
L 41.846234 96.466788 
L 40.703432 96.993399 
L 40.40679 96.993399 
L 40.392201 96.098161 
L 40.494324 95.699912 
L 40.703432 95.336221 
L 40.463525 94.965948 
L 40.435968 94.607195 
L 40.60131 94.269835 
L 40.949824 93.955515 
L 40.200924 93.884751 
L 39.9675 93.412447 
L 40.085833 92.798617 
L 40.40679 92.296691 
L 40.907678 91.974142 
L 42.350364 91.534752 
L 43.002004 91.470571 
L 43.472093 91.210557 
L 44.088071 89.815039 
L 44.759163 89.630726 
L 45.5032 88.74207 
L 46.143494 88.406356 
L 45.644227 87.929115 
L 45.328133 87.279081 
L 45.131992 88.024564 
L 44.937473 88.297743 
L 43.669854 88.809542 
L 43.509376 89.61756 
L 43.083054 90.295571 
L 42.473559 90.614829 
L 41.766805 90.340004 
L 41.36804 90.61812 
L 40.703432 90.64116 
L 40.933614 89.866055 
L 40.703432 89.372357 
L 40.328982 89.268681 
L 40.134463 89.663639 
L 39.020839 91.169416 
L 37.780777 90.934087 
L 36.991352 88.630166 
L 36.030102 88.682827 
L 36.71092 89.382231 
L 36.817906 90.127714 
L 36.326744 91.470571 
L 35.496794 90.838639 
L 35.020222 90.660907 
L 34.396138 90.64116 
L 35.718871 91.651594 
L 36.195443 92.186432 
L 36.326744 92.849632 
L 35.937705 93.588533 
L 35.183942 94.338953 
L 34.454494 94.860626 
L 34.123811 94.909996 
L 34.04114 94.793154 
L 33.66669 94.793154 
L 33.580777 94.909996 
L 33.622923 95.15849 
L 33.853105 95.750927 
L 33.853105 97.131634 
L 34.021688 97.362026 
L 34.770588 97.789897 
L 34.940793 98.234225 
L 34.87109 98.444869 
L 34.396138 99.226557 
L 33.681279 98.871095 
L 32.232109 98.645639 
L 31.528597 98.234225 
L 30.690542 97.360381 
L 30.01945 96.440458 
L 29.620685 95.568259 
L 29.554224 94.778343 
L 29.824931 94.024632 
L 30.439288 93.252819 
L 30.729446 93.104709 
L 31.677729 92.711397 
L 31.846312 92.135417 
L 32.196447 91.470571 
L 31.975992 91.416264 
L 31.950056 91.169416 
L 33.08109 90.001254 
L 34.417163 88.40764 
L 38.238044 81.011181 
L 39.03063 77.834404 
L 39.629701 76.313939 
L 43.582337 70.521544 
L 44.296694 69.730485 
L 45.264266 69.198583 
L 46.913256 69.023025 
L 50.224618 69.405492 
L 51.87052 69.110804 
L 59.617274 64.755274 
L 59.883871 64.353997 
L 60.345012 63.382154 
L 60.6569 63.033126 
L 61.083044 62.803228 
L 61.51948 62.955797 
L 64.854517 63.173155 
L 65.772681 63.049846 
L 66.176179 63.122996 
L 67.248744 63.89838 
L 67.900311 64.050949 
L 68.454092 64.027959 
L 70.280127 63.806421 
L 72.020728 64.086479 
L 72.764935 63.814781 
L 74.797866 62.52735 
L 75.661476 62.957887 
L 76.462296 62.943257 
L 77.148861 62.53153 
L 77.662498 61.764505 
L 77.775724 61.375768 
L 77.861159 60.449904 
L 77.681026 59.992197 
L 77.800428 59.776929 
L 78.39847 59.787379 
L 78.747414 60.036087 
L 78.879168 60.844911 
L 79.214731 61.05391 
L 79.789098 61.216929 
L 79.813802 61.476087 
L 79.727338 61.777045 
L 79.963055 62.075913 
L 80.762846 62.188772 
L 81.786003 62.000673 
L 82.751516 61.616116 
L 83.382497 61.145869 
L 83.588363 60.608743 
L 83.803494 58.14465 
L 83.195158 53.379483 
L 83.326913 51.699135 
L 83.674827 50.062676 
L 83.621302 49.297742 
L 83.183836 48.631036 
L 82.805042 48.442938 
L 81.402062 48.223489 
L 80.282148 47.619483 
L 79.188997 46.265173 
L 78.901814 45.717597 
L 77.81381 45.337219 
L 77.413399 45.055071 
L 76.635224 44.304766 
L 75.874548 43.8387 
L 75.067551 43.575361 
L 73.718097 43.280673 
L 73.883819 42.835507 
L 73.988811 41.554345 
L 74.857567 40.567872 
L 77.278557 39.44346 
L 78.242012 38.653446 
L 78.997542 38.202009 
L 80.087604 37.940761 
L 80.762846 38.137219 
L 80.250239 39.052633 
L 82.948119 39.019193 
L 84.104059 38.590746 
L 84.773125 37.562473 
L 84.932671 36.496581 
L 85.251764 35.712836 
L 85.290879 35.242589 
L 85.206474 33.555971 
L 85.290879 33.219483 
L 85.991854 31.553765 
L 86.140078 30.85989 
L 86.033027 30.168105 
L 85.583209 29.34674 
L 83.576011 26.836668 
L 83.195158 25.737335 
L 83.128252 24.836552 
L 83.448374 22.176 
L 96.336643 22.646247 
L 98.436481 23.243983 
L 98.971733 23.55748 
L 98.971733 23.55748 
" clip-path="url(#p8eea6e9b01)" style="fill: none; stroke: #000000; stroke-width: 2"/>
   </g>
  </g>
 </g>
 <defs>
  <clipPath id="p8eea6e9b01">
   <rect x="0" y="-0" width="354.650691" height="266.112"/>
  </clipPath>
 </defs>
</svg>
