<?xml version="1.0" encoding="utf-8" standalone="no"?>
<!DOCTYPE svg PUBLIC "-//W3C//DTD SVG 1.1//EN"
  "http://www.w3.org/Graphics/SVG/1.1/DTD/svg11.dtd">
<svg xmlns:xlink="http://www.w3.org/1999/xlink" width="357.12pt" height="92.066581pt" viewBox="0 0 357.12 92.066581" xmlns="http://www.w3.org/2000/svg" version="1.1">
 <metadata>
  <rdf:RDF xmlns:dc="http://purl.org/dc/elements/1.1/" xmlns:cc="http://creativecommons.org/ns#" xmlns:rdf="http://www.w3.org/1999/02/22-rdf-syntax-ns#">
   <cc:Work>
    <dc:type rdf:resource="http://purl.org/dc/dcmitype/StillImage"/>
    <dc:date>2024-02-02T21:58:01.699354</dc:date>
    <dc:format>image/svg+xml</dc:format>
    <dc:creator>
     <cc:Agent>
      <dc:title>Matplotlib v3.8.2, https://matplotlib.org/</dc:title>
     </cc:Agent>
    </dc:creator>
   </cc:Work>
  </rdf:RDF>
 </metadata>
 <defs>
  <style type="text/css">*{stroke-linejoin: round; stroke-linecap: butt}</style>
 </defs>
 <g id="figure_1">
  <g id="patch_1">
   <path d="M 0 92.066581 
L 357.12 92.066581 
L 357.12 0 
L 0 0 
L 0 92.066581 
z
" style="fill: none"/>
  </g>
  <g id="axes_1">
   <g id="PatchCollection_1">
    <path d="M 236.209889 28.457509 
L 237.430604 28.063649 
L 243.498425 24.652824 
L 247.502778 23.573648 
L 251.568422 23.883484 
L 255.812832 25.87904 
L 257.725626 27.420345 
L 259.061262 29.103439 
L 260.001059 31.046481 
L 261.321372 35.460336 
L 261.962375 36.823091 
L 262.960909 37.918021 
L 270.936416 43.657872 
L 273.311447 44.779059 
L 275.116981 45.031129 
L 276.830579 44.616264 
L 282.635359 42.531433 
L 288.113253 39.096975 
L 289.987739 38.280373 
L 295.690367 36.983261 
L 300.261664 34.627979 
L 302.266394 34.123839 
L 303.328773 34.087079 
L 305.047478 34.234119 
L 306.079212 34.071324 
L 307.24119 33.551429 
L 309.253582 32.361973 
L 310.579002 32.146663 
L 312.655239 32.509014 
L 315.165621 33.388634 
L 317.538098 34.601722 
L 319.192958 35.959225 
L 319.703718 36.844097 
L 320.334505 38.771384 
L 321.055009 39.805398 
L 321.749309 40.401964 
L 323.991542 41.73321 
L 324.990077 42.562941 
L 327.36 47.368031 
L 326.979484 52.56698 
L 324.1652 56.881058 
L 319.269572 59.034158 
L 311.802271 59.680088 
L 307.833671 60.754012 
L 303.849748 60.801275 
L 299.607892 62.347832 
L 297.896848 62.326826 
L 296.415646 62.996387 
L 291.668138 66.598892 
L 289.507626 67.672816 
L 286.647373 67.772594 
L 281.281847 66.759061 
L 275.66094 67.25795 
L 272.987115 67.047892 
L 270.402673 66.310061 
L 266.799266 64.432663 
L 265.752209 63.710587 
L 264.817519 62.865101 
L 264.061596 61.843691 
L 262.955802 60.690995 
L 261.640596 60.318141 
L 258.530072 60.192106 
L 257.099946 59.774614 
L 255.787294 59.023655 
L 252.043428 55.518303 
L 250.91465 55.11394 
L 247.712189 55.922666 
L 244.050045 56.355911 
L 240.438976 55.922666 
L 237.134364 54.517899 
L 234.376263 52.041834 
L 232.384302 49.245429 
L 231.32703 48.588996 
L 229.304423 48.200388 
L 227.491227 47.606972 
L 224.186614 45.569404 
L 222.700305 45.130907 
L 218.915578 44.821071 
L 215.575212 43.941451 
L 209.06303 40.591017 
L 204.154633 37.012144 
L 199.716135 32.824102 
L 196.998895 31.046481 
L 194.741339 31.960236 
L 190.445853 36.439734 
L 189.061695 38.697864 
L 188.688841 44.983866 
L 188.091252 47.793399 
L 186.05843 50.455892 
L 183.218608 52.354296 
L 179.980394 53.559507 
L 176.76261 54.155548 
L 173.120896 54.160799 
L 162.338766 51.850155 
L 159.25378 51.713617 
L 156.94004 52.587986 
L 154.656946 53.84046 
L 151.684327 54.840864 
L 150.070327 55.003659 
L 143.404918 54.349852 
L 142.158665 54.381361 
L 137.720167 55.804508 
L 130.830023 56.471443 
L 129.685922 57.106871 
L 129.292638 58.54052 
L 128.90446 74.570614 
L 128.240473 75.061626 
L 45.196113 74.302789 
L 41.748487 75.07738 
L 40.287716 77.561323 
L 39.976153 78.538095 
L 38.413229 80.087277 
L 37.784995 80.917008 
L 37.427463 82.05395 
L 37.276608 84.394366 
L 35.772482 83.091837 
L 34.244226 82.566691 
L 34.006944 81.847199 
L 35.11694 79.543998 
L 34.935963 78.009909 
L 33.017599 72.990005 
L 32.945208 71.782582 
L 33.186511 67.027319 
L 32.957273 65.704116 
L 32.402275 64.356102 
L 30.713149 62.412647 
L 30.278803 61.064634 
L 31.050974 59.435439 
L 30.689019 58.906158 
L 29.76 56.598822 
L 30.648802 55.523719 
L 31.710538 52.397651 
L 32.7401 51.744319 
L 33.946618 51.454868 
L 35.233571 50.739511 
L 36.359654 49.846349 
L 42.138876 42.688645 
L 44.672564 40.579789 
L 44.877672 41.621812 
L 45.43267 42.357844 
L 46.285276 42.920206 
L 47.298752 43.416407 
L 49.040159 42.490164 
L 50.797654 42.407464 
L 52.32591 43.011176 
L 53.379603 44.115224 
L 53.914493 45.947034 
L 52.828626 46.261294 
L 51.199827 46.37294 
L 50.0657 47.584498 
L 51.602 48.957322 
L 52.905039 51.868369 
L 53.612863 54.895197 
L 53.379603 56.598822 
L 57.023288 60.940583 
L 57.823611 61.519485 
L 62.822618 61.742776 
L 64.242288 62.152142 
L 65.533262 62.966739 
L 66.305434 63.677961 
L 67.318909 64.165892 
L 69.329772 64.356102 
L 70.286943 65.030109 
L 70.854007 66.613818 
L 70.898246 68.433223 
L 70.311074 69.843262 
L 72.253568 68.205798 
L 73.134326 68.156178 
L 74.425301 69.14858 
L 73.846172 68.118962 
L 71.662374 65.997702 
L 71.413027 64.707578 
L 70.72129 63.864036 
L 69.659554 63.48775 
L 68.284123 63.60353 
L 68.284123 62.908849 
L 71.191832 62.966739 
L 72.547154 62.759988 
L 73.74965 62.152142 
L 74.72693 64.186567 
L 75.861057 63.735851 
L 77.204314 62.325812 
L 78.813005 61.519485 
L 80.650934 60.965394 
L 84.294619 58.534007 
L 86.269287 57.984051 
L 89.020148 58.848268 
L 89.438408 60.862018 
L 89.012105 63.194164 
L 89.269495 64.984624 
L 91.039055 65.47669 
L 93.436004 64.753063 
L 96.814255 62.908849 
L 96.814255 62.152142 
L 95.728389 62.272057 
L 94.714914 62.619398 
L 93.801982 63.181759 
L 93.00568 63.975681 
L 92.068617 64.670363 
L 91.650358 64.074922 
L 91.199924 61.287924 
L 91.147642 60.154931 
L 90.93449 59.162529 
L 89.820472 58.505062 
L 89.502755 57.888945 
L 89.317756 57.090888 
L 89.269495 56.251481 
L 89.58319 54.386591 
L 90.395579 53.121278 
L 94.352958 49.800864 
L 95.092956 48.998672 
L 95.406651 47.931839 
L 95.832954 47.435638 
L 96.798168 47.613443 
L 98.410881 48.27091 
L 112.273774 49.027617 
L 117.566367 47.766438 
L 119.452557 47.584498 
L 121.588094 47.758168 
L 122.517113 47.584498 
L 123.253089 47.261967 
L 124.483737 46.195134 
L 126.639383 46.062814 
L 133.01382 46.819521 
L 135.044792 46.600365 
L 140.803905 44.805771 
L 141.736946 44.268219 
L 143.586941 42.928476 
L 144.511938 42.655565 
L 145.477152 42.994636 
L 146.884757 44.4667 
L 147.849971 44.805771 
L 149.241489 44.780961 
L 150.271051 44.61556 
L 151.212135 44.210329 
L 152.330175 43.416407 
L 153.186803 42.407464 
L 154.755277 39.934728 
L 155.708426 39.252451 
L 156.890814 39.206966 
L 158.121462 39.595657 
L 159.243524 40.224178 
L 160.124282 40.92713 
L 161.145801 41.390252 
L 162.207537 41.212446 
L 163.225034 40.80308 
L 164.146009 40.579789 
L 166.020134 41.113206 
L 167.226652 42.366114 
L 168.159693 43.772018 
L 169.205342 44.805771 
L 172.607723 45.930494 
L 176.943145 46.203404 
L 180.478243 44.73134 
L 181.471609 40.579789 
L 180.739655 40.579789 
L 180.550634 42.105608 
L 179.826723 43.457757 
L 178.793139 44.43362 
L 177.703251 44.805771 
L 175.845213 44.586615 
L 172.454897 43.631428 
L 170.922619 43.416407 
L 169.510993 42.911936 
L 167.882194 41.737592 
L 165.489266 39.570847 
L 164.620573 39.157346 
L 163.743837 39.322746 
L 162.883187 39.678357 
L 162.090907 39.885108 
L 161.198083 39.670087 
L 159.416458 38.495744 
L 158.049071 38.181483 
L 156.931031 37.594312 
L 155.636035 37.313131 
L 153.689519 37.863087 
L 152.684087 38.661144 
L 151.232244 40.64595 
L 150.246921 41.274471 
L 148.557795 41.357172 
L 145.899434 40.091858 
L 144.174113 39.885108 
L 142.388466 40.294474 
L 138.036957 42.655565 
L 134.509903 43.738938 
L 102.846846 46.236484 
L 99.717942 45.107626 
L 97.771426 44.805771 
L 95.913388 45.211002 
L 94.127741 46.186864 
L 91.35275 48.27091 
L 87.210371 52.488621 
L 86.269287 53.195708 
L 85.513202 53.530644 
L 84.781248 54.150895 
L 84.033207 54.440346 
L 83.188644 53.820095 
L 83.13234 53.071658 
L 83.425926 52.01723 
L 83.606903 50.826347 
L 83.188644 49.660274 
L 81.519627 51.198498 
L 81.314519 52.04204 
L 81.905713 53.195708 
L 80.494087 53.820095 
L 80.494087 54.514776 
L 80.964629 54.659502 
L 81.423106 54.969628 
L 81.905713 55.151568 
L 79.951154 56.160511 
L 76.584968 56.656712 
L 73.1665 56.768357 
L 71.04705 56.598822 
L 63.38566 54.709122 
L 60.188387 54.514776 
L 60.787624 53.617479 
L 61.998164 51.107527 
L 62.215337 50.040694 
L 61.998164 48.630656 
L 61.020884 46.616905 
L 60.795668 45.847793 
L 60.393495 45.136572 
L 58.571653 43.763748 
L 57.948285 42.639025 
L 56.966984 42.035313 
L 56.757854 41.654892 
L 56.757854 39.570847 
L 57.602416 35.303515 
L 57.489808 33.699131 
L 56.930788 32.359388 
L 56.278436 31.35729 
L 159.386577 31.744926 
L 160.939286 31.219779 
L 161.138482 27.184029 
L 161.501121 25.114952 
L 162.277475 22.880454 
L 163.298994 20.753612 
L 164.397127 19.023254 
L 167.477005 15.680698 
L 171.655017 12.598088 
L 176.23142 10.857228 
L 180.511584 11.54517 
L 181.436058 12.427416 
L 183.351406 14.982253 
L 184.189051 15.61768 
L 186.293379 15.116165 
L 193.74025 10.334707 
L 200.947065 7.672215 
L 203.061608 7.777244 
L 208.945556 10.019619 
L 218.925793 10.471245 
L 222.536862 11.676456 
L 226.025348 14.512247 
L 227.276708 16.24523 
L 228.160322 18.117377 
L 230.080777 24.71059 
L 230.765195 25.485181 
L 234.825731 27.955994 
L 236.209889 28.457509 
L 236.209889 28.457509 
" clip-path="url(#p526d47bff2)" style="fill: none; stroke: #000000; stroke-width: 2"/>
   </g>
  </g>
 </g>
 <defs>
  <clipPath id="p526d47bff2">
   <rect x="0" y="0" width="357.12" height="92.066581"/>
  </clipPath>
 </defs>
</svg>
