<?xml version="1.0" encoding="utf-8" standalone="no"?>
<!DOCTYPE svg PUBLIC "-//W3C//DTD SVG 1.1//EN"
  "http://www.w3.org/Graphics/SVG/1.1/DTD/svg11.dtd">
<svg xmlns:xlink="http://www.w3.org/1999/xlink" width="357.12pt" height="208.33524pt" viewBox="0 0 357.12 208.33524" xmlns="http://www.w3.org/2000/svg" version="1.1">
 <metadata>
  <rdf:RDF xmlns:dc="http://purl.org/dc/elements/1.1/" xmlns:cc="http://creativecommons.org/ns#" xmlns:rdf="http://www.w3.org/1999/02/22-rdf-syntax-ns#">
   <cc:Work>
    <dc:type rdf:resource="http://purl.org/dc/dcmitype/StillImage"/>
    <dc:date>2024-02-02T21:58:01.723359</dc:date>
    <dc:format>image/svg+xml</dc:format>
    <dc:creator>
     <cc:Agent>
      <dc:title>Matplotlib v3.8.2, https://matplotlib.org/</dc:title>
     </cc:Agent>
    </dc:creator>
   </cc:Work>
  </rdf:RDF>
 </metadata>
 <defs>
  <style type="text/css">*{stroke-linejoin: round; stroke-linecap: butt}</style>
 </defs>
 <g id="figure_1">
  <g id="patch_1">
   <path d="M 0 208.33524 
L 357.12 208.33524 
L 357.12 0 
L 0 0 
L 0 208.33524 
z
" style="fill: none"/>
  </g>
  <g id="axes_1">
   <g id="PatchCollection_1">
    <path d="M 109.971367 169.701912 
L 110.626627 174.004715 
L 111.309518 174.948347 
L 111.992409 175.658088 
L 112.304249 176.504938 
L 111.806884 177.795376 
L 110.646364 178.416399 
L 109.324002 178.513182 
L 108.337166 178.230898 
L 107.567433 178.706747 
L 106.549017 178.654323 
L 103.991136 178.230898 
L 103.766138 178.456725 
L 103.162194 178.868052 
L 102.54246 179.037422 
L 102.250356 178.561573 
L 102.226672 177.763115 
L 102.266146 177.238874 
L 102.570091 176.960624 
L 103.304298 176.875939 
L 104.310872 176.609786 
L 107.034541 175.327414 
L 107.610854 174.843499 
L 107.168751 173.730497 
L 106.075336 173.359496 
L 105.092446 173.899867 
L 104.958236 175.520979 
L 104.251661 174.855597 
L 103.631928 174.10553 
L 104.49245 172.633625 
L 104.9385 171.468198 
L 105.045078 170.282609 
L 104.958236 168.758279 
L 104.437187 166.528242 
L 104.583239 165.245869 
L 105.625338 163.955432 
L 107.508223 165.382978 
L 108.992425 167.318635 
L 109.971367 169.701912 
" clip-path="url(#p9ebd2a5579)" style="fill: none; stroke: #000000; stroke-width: 2"/>
    <path d="M 102.968774 168.02031 
L 103.174036 170.93186 
L 102.901669 172.28682 
L 101.950358 173.76679 
L 99.89379 176.287177 
L 98.768796 176.996917 
L 98.279325 175.827458 
L 97.947748 174.262802 
L 97.383278 173.040919 
L 97.276699 171.762579 
L 98.279325 170.044684 
L 96.060916 170.05275 
L 94.979343 169.076856 
L 94.896449 167.592853 
L 95.681971 166.04836 
L 97.075384 164.92326 
L 102.250356 163.277952 
L 102.645091 164.100606 
L 102.858248 165.43137 
L 102.968774 168.02031 
" clip-path="url(#p9ebd2a5579)" style="fill: none; stroke: #000000; stroke-width: 2"/>
    <path d="M 94.039875 166.665351 
L 93.692508 167.673505 
L 93.858297 169.145411 
L 94.28461 170.064847 
L 95.681971 172.077124 
L 94.300399 172.077124 
L 94.300399 172.819125 
L 95.25171 174.730586 
L 94.868817 176.537199 
L 94.387241 178.013137 
L 95.026711 178.900313 
L 93.037248 180.223011 
L 91.320152 180.299631 
L 89.603056 180.178653 
L 87.621488 180.932752 
L 87.293858 180.069772 
L 87.175438 179.259216 
L 87.282016 178.432529 
L 87.621488 177.492929 
L 87.009649 177.492929 
L 85.750446 179.585858 
L 86.358337 180.932752 
L 85.138607 180.561751 
L 84.818872 180.287533 
L 84.368874 179.585858 
L 82.14257 179.876206 
L 79.750478 178.29542 
L 77.654437 175.811328 
L 76.363654 173.428051 
L 77.630753 172.121482 
L 79.217586 170.960089 
L 80.86363 170.359229 
L 82.316254 170.722164 
L 80.989945 171.286731 
L 80.389948 171.399644 
L 80.47679 171.835167 
L 80.579421 172.145678 
L 80.753104 172.436027 
L 81.053103 172.819125 
L 81.917572 171.952113 
L 83.018882 171.448035 
L 83.95835 170.693936 
L 84.724136 167.330733 
L 85.541236 166.737938 
L 86.429389 166.383067 
L 87.009649 165.310391 
L 87.507015 165.826566 
L 89.00306 166.665351 
L 89.259637 164.233682 
L 90.72805 163.169071 
L 92.666198 163.362637 
L 94.300399 164.693401 
L 94.931975 165.4475 
L 94.647766 166.012067 
L 94.039875 166.665351 
" clip-path="url(#p9ebd2a5579)" style="fill: none; stroke: #000000; stroke-width: 2"/>
    <path d="M 115.316075 163.882845 
L 112.908193 163.955432 
L 110.508206 162.177047 
L 110.468733 159.152584 
L 111.992409 155.995044 
L 114.289765 153.805333 
L 116.804225 153.777105 
L 117.321327 154.797357 
L 116.283175 158.479137 
L 116.184491 162.592407 
L 115.316075 163.882845 
" clip-path="url(#p9ebd2a5579)" style="fill: none; stroke: #000000; stroke-width: 2"/>
    <path d="M 133.260715 155.595815 
L 133.750186 158.858203 
L 133.560713 160.632555 
L 133.075189 161.019686 
L 132.483087 159.902651 
L 131.583092 158.616246 
L 130.189679 158.479137 
L 130.189679 159.221138 
L 130.915991 159.221138 
L 130.915991 159.898618 
L 130.181784 161.233415 
L 129.660734 161.914927 
L 128.926528 162.544015 
L 128.385741 161.761688 
L 128.121269 161.511665 
L 126.92917 161.922992 
L 127.458115 162.975506 
L 127.556798 164.41515 
L 127.343642 165.963675 
L 126.92917 167.34283 
L 126.731803 166.919406 
L 126.419962 166.447589 
L 126.210753 166.04836 
L 125.626546 166.100784 
L 125.401547 166.169339 
L 125.239706 166.169339 
L 124.884444 166.04836 
L 124.288395 166.04836 
L 123.337084 167.161363 
L 122.417352 166.64922 
L 121.76604 165.310391 
L 121.576568 163.955432 
L 122.251564 163.314245 
L 123.364716 162.544015 
L 123.755503 161.814112 
L 122.239722 161.253578 
L 122.239722 160.632555 
L 124.288395 158.479137 
L 124.379184 158.051679 
L 124.193659 156.874155 
L 124.288395 156.454763 
L 124.750235 156.341849 
L 125.401547 156.462828 
L 125.969965 156.495089 
L 126.210753 156.148284 
L 127.244958 154.168269 
L 129.573893 153.494821 
L 132.056774 153.575474 
L 133.560713 153.805333 
L 133.260715 155.595815 
" clip-path="url(#p9ebd2a5579)" style="fill: none; stroke: #000000; stroke-width: 2"/>
    <path d="M 80.389948 153.067364 
L 81.266259 154.228758 
L 82.363622 154.341671 
L 83.626773 154.156171 
L 85.024134 154.422323 
L 85.4465 155.140129 
L 85.726762 156.430567 
L 85.837287 157.72907 
L 85.750446 158.479137 
L 84.605715 158.959018 
L 83.658352 159.563911 
L 83.224144 160.495446 
L 83.64651 161.922992 
L 77.287334 162.467396 
L 76.032077 162.229471 
L 73.434723 160.971294 
L 72.988673 160.943066 
L 73.103146 159.757477 
L 73.466302 158.785616 
L 74.121561 158.116201 
L 75.092609 157.870211 
L 74.958399 156.18861 
L 76.300497 154.623954 
L 78.179434 153.664191 
L 79.667584 153.805333 
L 80.389948 153.067364 
" clip-path="url(#p9ebd2a5579)" style="fill: none; stroke: #000000; stroke-width: 2"/>
    <path d="M 132.897559 134.799606 
L 133.098874 135.025432 
L 133.276504 135.295618 
L 133.600187 135.46902 
L 134.223868 135.416596 
L 134.152815 135.880347 
L 134.046237 136.178761 
L 133.560713 136.832045 
L 134.121236 137.614373 
L 133.643607 138.412831 
L 131.51204 140.154922 
L 131.038358 139.22742 
L 130.915991 138.856419 
L 130.189679 138.856419 
L 129.076527 139.929095 
L 127.505483 139.929095 
L 126.123911 139.219355 
L 125.610756 138.178939 
L 126.088385 137.279666 
L 126.881802 137.182883 
L 127.694955 137.404677 
L 128.200216 137.445003 
L 128.926528 136.703001 
L 129.479156 135.896478 
L 129.88968 135.017367 
L 130.189679 134.061637 
L 130.915991 134.799606 
L 131.417304 134.376181 
L 132.897559 133.384157 
L 133.383083 133.783386 
L 133.402819 134.065669 
L 132.897559 134.799606 
" clip-path="url(#p9ebd2a5579)" style="fill: none; stroke: #000000; stroke-width: 2"/>
    <path d="M 80.484685 139.179029 
L 80.188634 139.73553 
L 79.667584 140.154922 
L 78.842588 140.187183 
L 75.7005 139.477442 
L 73.663669 139.501638 
L 72.503149 139.332268 
L 71.11763 138.856419 
L 72.289992 138.057961 
L 74.054456 137.134491 
L 75.653132 135.961 
L 76.363654 134.428605 
L 77.464964 133.456744 
L 79.95574 132.72684 
L 82.66362 132.416329 
L 84.368874 132.706677 
L 84.842556 133.698701 
L 84.499137 134.638301 
L 81.621521 137.715188 
L 81.053103 138.178939 
L 80.721526 138.614462 
L 80.484685 139.179029 
" clip-path="url(#p9ebd2a5579)" style="fill: none; stroke: #000000; stroke-width: 2"/>
    <path d="M 76.892599 126.536772 
L 77.018914 127.290871 
L 76.703126 129.081354 
L 75.961025 130.549227 
L 74.366297 132.706677 
L 73.983404 133.57369 
L 73.888668 134.158419 
L 73.695248 134.694758 
L 73.095251 134.928649 
L 72.10052 134.932682 
L 71.11763 135.416596 
L 70.67158 135.573868 
L 70.355792 135.969065 
L 69.980794 136.178761 
L 69.400534 135.783564 
L 68.137383 134.331822 
L 67.750543 134.061637 
L 67.529492 134.122126 
L 62.449256 134.061637 
L 61.572945 134.847997 
L 60.795318 135.315781 
L 59.737429 135.416596 
L 60.037427 134.739116 
L 60.459793 134.061637 
L 59.844007 132.823623 
L 59.974269 132.54134 
L 60.459793 132.029197 
L 59.492693 131.476729 
L 59.074274 131.351718 
L 62.674255 129.524942 
L 66.676865 129.440257 
L 70.355792 128.95231 
L 72.988673 125.943977 
L 73.442618 126.081086 
L 73.529459 126.137543 
L 73.521565 126.258521 
L 73.711037 126.621457 
L 74.433402 126.629522 
L 75.155766 126.524674 
L 75.807079 126.298848 
L 76.363654 125.943977 
L 76.718916 126.234326 
L 76.892599 126.536772 
" clip-path="url(#p9ebd2a5579)" style="fill: none; stroke: #000000; stroke-width: 2"/>
    <path d="M 107.129277 126.452087 
L 107.950325 126.516609 
L 108.337166 125.206008 
L 109.537159 126.476283 
L 109.225319 129.125713 
L 110.318734 130.000791 
L 109.11874 132.000969 
L 108.822689 134.412474 
L 109.272687 136.84011 
L 110.318734 138.856419 
L 108.400323 139.541964 
L 105.885863 140.977576 
L 103.754296 141.513914 
L 102.968774 139.477442 
L 102.250356 139.477442 
L 102.120094 139.941193 
L 101.835885 140.42914 
L 101.646412 140.888858 
L 101.338519 140.52189 
L 100.631944 139.848443 
L 100.320104 139.477442 
L 99.751686 140.558184 
L 98.887217 141.356642 
L 97.916169 141.888948 
L 97.00828 142.179296 
L 96.080653 140.884826 
L 92.741197 138.513647 
L 92.314884 137.445003 
L 95.681971 135.416596 
L 97.876696 133.033319 
L 98.279325 133.045417 
L 98.571429 131.400109 
L 99.321425 129.266854 
L 100.29642 127.407817 
L 101.287204 126.621457 
L 102.858248 125.980271 
L 105.05692 123.669581 
L 106.284545 123.851049 
L 106.402966 125.42377 
L 107.129277 126.452087 
" clip-path="url(#p9ebd2a5579)" style="fill: none; stroke: #000000; stroke-width: 2"/>
    <path d="M 151.501406 121.14113 
L 151.457985 122.496089 
L 150.392201 123.63732 
L 150.115887 124.867268 
L 150.672463 125.968173 
L 151.5843 126.972295 
L 151.679036 127.694133 
L 149.819836 127.968351 
L 148.600105 127.790916 
L 147.759321 127.16586 
L 146.863273 127.290871 
L 146.717221 127.56509 
L 144.822494 129.323311 
L 144.336971 129.440257 
L 142.169877 129.323311 
L 142.169877 130.000791 
L 144.23434 130.766988 
L 143.863289 132.315513 
L 142.497507 133.210754 
L 141.573828 132.029197 
L 140.476465 132.331644 
L 139.161999 132.194535 
L 138.060689 131.884023 
L 137.587007 131.690457 
L 137.12122 132.025165 
L 136.292277 131.375913 
L 136.031752 130.460509 
L 137.231746 130.000791 
L 138.510686 129.282985 
L 139.398839 127.790916 
L 140.61857 126.565 
L 142.892242 126.621457 
L 143.081714 125.113258 
L 144.052762 124.020419 
L 145.252755 123.048558 
L 146.144856 121.879099 
L 147.783005 122.314621 
L 149.24747 121.871033 
L 150.494832 121.258075 
L 151.501406 121.14113 
" clip-path="url(#p9ebd2a5579)" style="fill: none; stroke: #000000; stroke-width: 2"/>
    <path d="M 101.824043 95.852584 
L 101.484571 98.421361 
L 100.722733 99.635179 
L 99.755633 100.748182 
L 98.997742 102.135402 
L 98.145115 105.98252 
L 97.57275 107.571371 
L 96.408283 108.966657 
L 95.413551 108.264981 
L 94.276715 108.414188 
L 93.191195 108.837613 
L 92.314884 108.966657 
L 91.087259 108.192394 
L 88.671483 104.538843 
L 87.542541 103.974276 
L 86.358337 103.974276 
L 85.410974 103.748449 
L 85.024134 102.506403 
L 84.98466 99.752125 
L 84.795188 98.457655 
L 84.368874 97.457566 
L 86.062286 96.860738 
L 87.937276 96.92526 
L 91.379363 97.457566 
L 92.670145 97.259968 
L 94.114874 96.747825 
L 97.00828 95.304148 
L 96.637229 94.908951 
L 96.649071 94.840397 
L 96.838544 94.683125 
L 98.235904 94.642799 
L 99.510898 94.578277 
L 100.924048 94.695223 
L 101.63457 95.55417 
L 101.824043 95.852584 
" clip-path="url(#p9ebd2a5579)" style="fill: none; stroke: #000000; stroke-width: 2"/>
    <path d="M 326.999055 40.940308 
L 325.292084 45.022084 
L 325.086545 45.846633 
L 324.988789 47.116746 
L 325.292084 49.979623 
L 325.196834 51.131943 
L 324.419799 53.052477 
L 324.031281 55.664404 
L 322.402014 58.184145 
L 319.587141 59.234037 
L 313.017433 59.315979 
L 314.265702 57.072795 
L 312.621396 56.591382 
L 309.966943 57.23156 
L 308.127124 58.337787 
L 305.780979 60.273686 
L 299.885537 63.029012 
L 297.769996 65.446324 
L 297.524352 66.465488 
L 297.514326 68.585758 
L 297.110769 69.676621 
L 297.855219 70.040242 
L 300.396876 70.398742 
L 302.362023 71.044041 
L 304.214375 72.186119 
L 306.109339 74.024711 
L 307.084393 74.716103 
L 309.733832 75.648202 
L 310.187521 76.232044 
L 310.433164 76.990015 
L 310.972076 77.947722 
L 313.095136 80.308698 
L 314.24565 81.102519 
L 315.82228 81.78879 
L 319.238728 82.32654 
L 320.161144 82.787468 
L 321.226435 84.421202 
L 321.356776 86.295643 
L 320.509557 90.305719 
L 320.188717 94.423344 
L 321.670097 106.100192 
L 321.650044 107.877326 
L 321.146224 112.138351 
L 320.644911 113.454558 
L 319.108387 114.606878 
L 316.757228 115.54922 
L 314.265702 116.010148 
L 312.318101 115.733591 
L 311.744098 115.001228 
L 311.954649 114.263743 
L 311.894492 113.628686 
L 310.495828 113.229215 
L 309.678688 112.717072 
L 309.357848 110.735081 
L 308.508122 110.125632 
L 307.051807 110.100025 
L 306.761046 110.627531 
L 307.199695 111.749123 
L 306.99165 114.017914 
L 306.715928 114.970499 
L 305.465151 116.850062 
L 303.793272 117.858983 
L 301.843165 117.894833 
L 299.740156 116.839819 
L 298.970641 117.433904 
L 294.78969 119.994617 
L 292.977443 120.660402 
L 288.738841 119.974131 
L 287.204823 120.004859 
L 284.292194 120.517002 
L 282.943662 120.573338 
L 281.357006 120.199474 
L 280.429576 119.641238 
L 278.745165 118.299425 
L 277.762591 118.120175 
L 275.526735 118.422339 
L 267.405463 117.889711 
L 266.849005 117.582426 
L 266.342679 117.515847 
L 265.304961 118.079204 
L 264.545472 118.934482 
L 263.42253 121.315944 
L 262.77333 122.299258 
L 261.537593 123.287693 
L 243.908919 132.972306 
L 239.900921 133.694427 
L 231.8373 132.757206 
L 227.821782 133.187406 
L 225.465611 134.490809 
L 223.726055 136.429268 
L 214.100844 150.623296 
L 212.642023 154.349132 
L 210.711967 162.133697 
L 201.407596 180.258418 
L 198.154075 184.178869 
L 195.399852 187.026037 
L 191.634083 189.707728 
L 189.170938 190.97397 
L 188.049892 190.8046 
L 188.318311 189.498032 
L 188.993308 188.828618 
L 189.849882 188.38503 
L 190.698562 187.764007 
L 192.131449 185.529936 
L 192.747235 184.993598 
L 192.747235 184.316118 
L 192.02487 184.316118 
L 191.618294 185.247653 
L 191.120928 186.046111 
L 190.4183 186.663102 
L 189.3762 187.026037 
L 188.235417 187.074429 
L 187.169633 186.832472 
L 186.376217 186.263873 
L 186.068324 185.360566 
L 187.797262 178.085724 
L 188.381469 176.875939 
L 189.407779 176.327503 
L 190.015671 175.037065 
L 190.481458 173.569192 
L 191.05777 172.448125 
L 191.622241 172.165841 
L 192.834076 172.242461 
L 193.351179 172.077124 
L 193.418284 171.698058 
L 193.351179 170.044684 
L 197.38142 169.705944 
L 197.199842 168.879258 
L 196.702477 168.205811 
L 196.063006 167.697701 
L 195.399852 167.34283 
L 196.690634 165.95561 
L 197.460367 164.084475 
L 197.349841 162.318189 
L 195.999849 161.253578 
L 195.123538 163.834453 
L 193.678809 165.705588 
L 191.740661 166.871014 
L 189.3762 167.34283 
L 189.916987 168.931682 
L 189.494621 169.907575 
L 188.531468 170.113239 
L 187.453842 169.367205 
L 186.731478 171.399644 
L 186.344638 171.149622 
L 185.345959 170.722164 
L 185.302538 172.629592 
L 184.742015 173.528866 
L 183.747284 174.149889 
L 182.420975 175.182239 
L 181.307823 176.621884 
L 179.878883 179.416488 
L 177.364423 182.852278 
L 176.29864 183.884628 
L 175.110488 184.316118 
L 173.859179 183.759617 
L 172.363135 182.453049 
L 171.249983 180.981144 
L 171.13551 179.916532 
L 172.201293 179.138237 
L 175.102594 177.674397 
L 176.132851 176.875939 
L 176.626269 175.730675 
L 177.392055 171.399644 
L 176.349955 163.048093 
L 177.392055 160.632555 
L 175.209172 160.971294 
L 174.640754 162.439167 
L 174.960489 164.350628 
L 175.465749 166.04836 
L 175.599959 167.552527 
L 175.493381 169.947901 
L 174.782858 171.657731 
L 172.276293 170.657642 
L 168.842101 170.722164 
L 167.819738 170.415685 
L 166.138168 169.367205 
L 163.876338 169.697879 
L 162.68424 169.508346 
L 162.159243 168.391311 
L 161.89477 167.302504 
L 161.200037 166.580666 
L 160.236884 166.173371 
L 159.147417 166.04836 
L 157.706635 165.011977 
L 157.363216 162.61257 
L 157.465847 157.870211 
L 157.706635 156.801568 
L 157.65532 156.132153 
L 157.13427 155.837772 
L 156.210591 155.716794 
L 156.096117 155.406282 
L 156.076381 154.793324 
L 156.190854 153.732746 
L 156.68822 152.43021 
L 156.802693 151.38173 
L 157.280322 150.462293 
L 159.739519 147.139416 
L 160.773724 146.304664 
L 161.401352 146.445806 
L 163.355289 147.369275 
L 164.476335 147.591069 
L 165.45133 147.28459 
L 166.821059 145.937696 
L 167.792107 145.627184 
L 168.778944 145.070683 
L 169.931569 143.743952 
L 170.934195 142.179296 
L 171.431561 140.888858 
L 166.094748 145.23602 
L 164.148705 146.304664 
L 162.660556 145.413456 
L 162.348715 144.248029 
L 162.826344 141.227598 
L 163.402657 140.25977 
L 164.539493 139.033854 
L 165.321067 137.953113 
L 164.81186 137.445003 
L 163.153974 137.884558 
L 161.886876 139.130637 
L 161.065827 140.816271 
L 160.773724 142.550297 
L 160.165832 143.691528 
L 158.768471 144.413366 
L 157.189533 144.969868 
L 156.076381 145.627184 
L 155.168491 147.187807 
L 154.67902 148.506473 
L 153.834288 149.405747 
L 151.83693 149.744487 
L 150.565884 150.151781 
L 149.484311 150.712315 
L 148.671158 150.438097 
L 148.244844 148.333071 
L 148.540895 147.276525 
L 149.997466 143.69556 
L 153.486921 138.178939 
L 151.789562 138.106352 
L 151.189565 137.42484 
L 151.229039 136.275544 
L 151.501406 134.799606 
L 152.263244 135.275455 
L 153.123765 135.331911 
L 154.000076 134.932682 
L 154.876387 134.061637 
L 154.94744 134.694758 
L 155.480331 136.154565 
L 155.910592 134.847997 
L 156.629009 133.726929 
L 157.434268 133.484972 
L 158.121106 134.799606 
L 158.843471 134.799606 
L 158.752682 133.81968 
L 158.500052 132.924438 
L 158.061896 132.101784 
L 157.465847 131.351718 
L 157.994791 131.182348 
L 157.96716 131.012978 
L 158.121106 130.67827 
L 159.013207 131.065402 
L 160.071096 131.275098 
L 161.436878 131.351718 
L 163.059238 131.767077 
L 163.59213 131.4485 
L 162.826344 130.000791 
L 163.150027 129.242659 
L 163.485551 127.968351 
L 164.148705 127.968351 
L 164.93028 129.053125 
L 166.28422 128.871658 
L 167.405267 128.911984 
L 167.46053 130.67827 
L 169.315783 130.008856 
L 169.264467 128.665994 
L 168.127631 127.141665 
L 166.734218 125.943977 
L 165.976327 126.323043 
L 164.81186 126.621457 
L 164.81186 125.943977 
L 166.92369 125.206008 
L 167.926317 124.645474 
L 168.842101 123.851049 
L 169.560518 125.08503 
L 170.780248 126.508544 
L 172.363135 127.286839 
L 174.143388 126.621457 
L 172.963131 126.439989 
L 172.87629 125.774607 
L 173.081552 124.83904 
L 172.81708 123.851049 
L 172.047347 123.463917 
L 171.230246 123.476015 
L 170.53946 123.185667 
L 170.164462 121.879099 
L 171.273667 122.250099 
L 173.385498 122.701753 
L 174.143388 123.173569 
L 175.465749 122.496089 
L 175.25654 123.14534 
L 174.996015 124.556757 
L 174.747332 125.206008 
L 177.147319 126.919871 
L 177.873631 126.774696 
L 178.781521 125.206008 
L 178.284155 124.334963 
L 176.796005 122.185578 
L 177.060478 121.508098 
L 177.731527 120.733835 
L 178.572312 120.096682 
L 179.37757 119.790203 
L 179.58678 120.007964 
L 180.324934 120.475748 
L 181.347296 120.935466 
L 182.420975 121.14113 
L 183.036761 121.483902 
L 183.38018 122.338817 
L 183.510443 123.439722 
L 183.470969 124.528528 
L 185.345959 123.851049 
L 185.156486 123.516341 
L 184.742015 122.496089 
L 186.194639 122.580774 
L 187.197265 123.125177 
L 187.974892 124.040582 
L 188.713046 125.206008 
L 184.88412 125.960108 
L 183.470969 125.943977 
L 184.505174 127.105371 
L 185.345959 127.290871 
L 184.931488 128.855527 
L 185.476222 129.742703 
L 186.305164 129.658018 
L 187.240686 127.024719 
L 188.381469 126.911805 
L 189.5262 127.145697 
L 190.035407 126.960197 
L 194.014333 126.621457 
L 195.131432 126.056891 
L 195.905112 125.411672 
L 196.406426 124.504333 
L 196.726161 123.173569 
L 195.510378 123.572798 
L 194.634067 124.056712 
L 193.635388 124.431746 
L 190.402511 124.782583 
L 189.680146 124.540626 
L 189.3762 123.512309 
L 189.573568 123.064688 
L 190.070934 122.738046 
L 190.726193 122.544481 
L 191.420926 122.496089 
L 191.041981 121.600848 
L 191.018297 121.068542 
L 191.420926 119.790203 
L 190.319616 119.532115 
L 189.443305 120.052323 
L 188.878835 121.116934 
L 188.713046 122.496089 
L 187.38279 120.97176 
L 186.542005 120.508009 
L 185.345959 120.524139 
L 185.345959 119.790203 
L 186.036745 119.403071 
L 187.453842 117.757763 
L 187.453842 117.080284 
L 186.731478 115.733389 
L 186.068324 115.733389 
L 184.742015 119.112723 
L 183.581495 119.395006 
L 182.120977 118.556222 
L 180.763089 118.435243 
L 181.77361 116.918979 
L 183.147287 116.249564 
L 184.323596 115.467236 
L 184.742015 113.640461 
L 183.924914 114.499408 
L 183.013077 114.971224 
L 182.124924 114.947029 
L 181.367033 114.31794 
L 180.763089 114.31794 
L 180.676248 115.338193 
L 180.384144 115.967281 
L 179.7802 116.301988 
L 178.781521 116.402804 
L 179.069677 117.850514 
L 178.355207 118.241677 
L 177.364423 117.717437 
L 176.796005 116.402804 
L 175.31575 118.532026 
L 174.510491 117.967459 
L 174.992068 116.281825 
L 177.392055 115.055909 
L 176.53548 114.426821 
L 176.180219 113.620298 
L 176.278903 112.692795 
L 176.796005 111.668511 
L 177.392055 111.668511 
L 178.189419 112.063707 
L 179.37757 112.285501 
L 178.951257 110.918444 
L 178.086788 110.015137 
L 176.132851 108.966657 
L 175.465749 108.966657 
L 175.19733 110.579704 
L 174.534176 111.870141 
L 174.013126 113.229134 
L 174.143388 115.055909 
L 173.136815 115.467236 
L 172.276293 116.725413 
L 171.431561 117.080284 
L 170.839459 116.749609 
L 171.099984 115.830172 
L 172.094715 114.31794 
L 170.957879 113.813863 
L 170.756564 112.596013 
L 171.431561 109.636071 
L 170.484197 110.208703 
L 169.876306 111.047487 
L 169.544729 112.104033 
L 169.442098 113.329949 
L 169.05131 113.410601 
L 167.026321 113.37834 
L 166.138168 113.640461 
L 167.46053 114.31794 
L 167.46053 115.055909 
L 169.694728 116.531848 
L 170.164462 117.419023 
L 169.785517 118.745755 
L 168.921048 119.072397 
L 168.005263 118.66107 
L 167.46053 117.757763 
L 166.623692 119.37081 
L 166.138168 121.14113 
L 165.400014 117.314175 
L 164.800018 115.975346 
L 163.485551 116.402804 
L 164.148705 117.757763 
L 162.826344 117.757763 
L 163.20529 120.366867 
L 163.671076 121.483902 
L 164.81186 122.496089 
L 164.148705 123.851049 
L 162.692134 122.806601 
L 161.38951 121.395184 
L 159.447415 118.435243 
L 159.147417 120.185399 
L 159.82636 121.830707 
L 160.80925 123.46795 
L 161.436878 125.206008 
L 160.978986 124.992279 
L 159.447415 124.528528 
L 159.013207 125.863325 
L 158.192159 125.879455 
L 157.50532 124.871301 
L 157.465847 123.173569 
L 156.802693 123.173569 
L 156.392169 124.080908 
L 156.119802 125.089062 
L 156.005329 126.173836 
L 156.076381 127.290871 
L 154.876387 126.621457 
L 154.876387 128.589374 
L 153.865866 127.928025 
L 153.486921 127.044882 
L 153.218501 125.992369 
L 152.496137 124.867268 
L 151.951403 123.766364 
L 152.365875 122.992101 
L 153.486921 122.185578 
L 153.96455 120.685444 
L 154.959282 119.153049 
L 155.871119 117.354502 
L 156.076381 115.055909 
L 152.92245 118.096503 
L 151.244828 118.951418 
L 149.51589 117.757763 
L 149.981677 116.902848 
L 149.965887 114.813952 
L 150.115887 113.640461 
L 148.844841 113.579971 
L 148.063266 113.979201 
L 146.839589 115.378519 
L 146.101435 116.253597 
L 145.236966 116.785902 
L 144.822494 116.072129 
L 144.48697 114.414723 
L 143.958025 112.805709 
L 143.946183 111.14427 
L 145.742226 108.450482 
L 146.527748 106.256738 
L 147.19485 105.244551 
L 150.838251 101.518412 
L 151.907982 100.780443 
L 152.507979 100.554616 
L 152.768504 100.211844 
L 152.827714 99.094809 
L 153.064555 98.11085 
L 153.632973 97.24787 
L 154.876387 96.050182 
L 155.480331 96.050182 
L 155.744804 96.691368 
L 156.392169 97.143022 
L 156.802693 97.457566 
L 157.173743 96.538129 
L 157.65532 96.175193 
L 158.223738 96.267944 
L 158.843471 96.050182 
L 161.081617 96.118737 
L 164.973701 97.191413 
L 167.097374 97.457566 
L 179.081519 97.457566 
L 179.58678 97.118826 
L 181.734137 95.304148 
L 184.280175 94.69119 
L 185.890693 93.271709 
L 187.169633 91.707053 
L 188.713046 90.630344 
L 190.93935 90.630344 
L 191.338032 92.130478 
L 190.674878 94.142754 
L 189.70383 95.675149 
L 188.981466 97.546283 
L 189.052518 100.018278 
L 189.70383 102.449947 
L 190.698562 104.159776 
L 192.573552 105.014691 
L 195.032749 105.426018 
L 197.188 106.15189 
L 198.111679 107.918176 
L 199.141937 109.06344 
L 201.399819 109.579615 
L 203.653755 109.176353 
L 204.67217 107.547175 
L 202.149815 108.418221 
L 200.397193 106.853565 
L 199.059043 104.619495 
L 197.744576 103.490362 
L 194.878802 103.139524 
L 194.014333 102.873371 
L 192.905129 102.191859 
L 192.344605 101.494216 
L 191.870924 100.719954 
L 191.05777 99.772288 
L 190.623562 98.497981 
L 191.499873 97.308359 
L 192.723551 96.159063 
L 193.351179 94.997669 
L 195.131432 90.158528 
L 195.198537 89.54557 
L 195.624851 89.279417 
L 197.057738 89.214895 
L 198.040627 88.936645 
L 198.016943 88.295458 
L 197.420894 87.609913 
L 196.726161 87.190521 
L 196.734055 86.843716 
L 195.731429 86.529172 
L 194.630119 86.46465 
L 193.682756 86.88001 
L 192.913023 87.029216 
L 190.765667 86.150106 
L 189.70383 85.892018 
L 188.330153 86.31141 
L 185.334117 88.126088 
L 183.778862 88.545481 
L 182.942025 89.202797 
L 180.182829 92.28775 
L 178.781521 93.279774 
L 176.571007 93.654807 
L 174.73549 93.295904 
L 170.831564 91.985304 
L 167.065795 91.356215 
L 165.865801 90.779551 
L 164.476335 89.553635 
L 162.656608 88.34385 
L 160.477673 87.847838 
L 158.204001 87.944621 
L 156.076381 88.545481 
L 155.361911 89.009232 
L 153.775077 90.352093 
L 153.155344 90.630344 
L 151.06325 90.521463 
L 149.985624 90.585985 
L 149.184313 90.940856 
L 146.144856 94.017743 
L 145.560648 94.368581 
L 143.555396 95.304148 
L 140.689622 99.437581 
L 139.884363 100.102963 
L 137.942268 100.651399 
L 133.631765 103.260503 
L 131.51204 104.159776 
L 125.235758 105.317138 
L 124.288395 105.885737 
L 123.360768 106.732586 
L 118.734478 109.160222 
L 116.879225 109.636071 
L 118.86474 101.590999 
L 120.652888 98.251991 
L 123.009455 98.106817 
L 123.554188 98.469753 
L 124.292342 98.71171 
L 125.184443 98.808493 
L 126.210753 98.756069 
L 126.210753 98.078589 
L 124.383131 97.965676 
L 122.121301 96.025987 
L 120.258154 96.050182 
L 118.702899 97.215609 
L 118.292375 98.917373 
L 118.102902 100.792541 
L 114.960814 106.962446 
L 113.962135 107.547175 
L 112.063461 107.059229 
L 111.668726 105.797019 
L 112.304249 102.135402 
L 110.68189 102.909665 
L 110.29505 104.522712 
L 110.247682 106.482564 
L 109.592422 108.289177 
L 109.00032 108.607754 
L 106.852963 109.386049 
L 105.952968 109.982876 
L 104.974026 110.833759 
L 104.405608 110.978933 
L 104.018768 110.531312 
L 103.631928 109.636071 
L 103.379298 107.664121 
L 103.939821 105.680073 
L 105.625338 102.135402 
L 107.022699 96.630879 
L 107.610854 95.304148 
L 108.005588 94.912984 
L 108.61348 94.489559 
L 109.308213 94.158885 
L 109.959525 94.017743 
L 110.33847 93.65884 
L 110.977941 91.247335 
L 113.488453 87.448609 
L 114.289765 86.569498 
L 115.663442 85.742811 
L 117.716062 84.90806 
L 119.879208 84.363656 
L 121.576568 84.41608 
L 122.097617 84.996777 
L 122.464721 85.932344 
L 122.973928 86.80339 
L 123.921292 87.190521 
L 125.847597 87.303434 
L 126.692329 87.529261 
L 127.537062 87.924458 
L 127.844955 86.521107 
L 128.55153 85.089527 
L 128.918633 83.875709 
L 128.200216 83.129675 
L 127.639693 83.504709 
L 126.723908 84.41608 
L 125.377863 85.198408 
L 123.56603 85.162114 
L 122.989718 84.762885 
L 122.326563 83.613589 
L 121.576568 83.129675 
L 120.723941 82.87562 
L 116.23186 83.323241 
L 114.980551 82.964338 
L 114.289765 81.774716 
L 113.630558 81.774716 
L 112.939772 83.407926 
L 111.139782 84.440276 
L 108.913478 84.988712 
L 106.947699 85.162114 
L 107.334539 86.166236 
L 107.610854 86.569498 
L 106.927963 86.754998 
L 106.947699 87.190521 
L 106.170072 86.763064 
L 105.625338 86.319476 
L 105.649022 86.779194 
L 105.968757 88.118023 
L 105.787179 89.347972 
L 104.958236 90.630344 
L 103.541139 91.93288 
L 102.210883 92.497446 
L 95.026711 92.602294 
L 94.087243 92.924904 
L 92.153043 93.824177 
L 91.379363 94.017743 
L 90.866208 94.344385 
L 90.250421 95.070256 
L 89.437268 95.771932 
L 88.339905 96.050182 
L 87.400437 95.711442 
L 86.54781 94.989604 
L 85.024134 93.279774 
L 82.655726 93.824177 
L 79.549164 93.239448 
L 76.849178 92.086119 
L 75.7005 90.940856 
L 73.711037 86.569498 
L 72.779463 86.029127 
L 70.182109 85.625865 
L 69.068957 85.162114 
L 68.240014 84.238645 
L 67.63607 83.012729 
L 67.268967 81.601313 
L 66.929495 78.568785 
L 65.974237 76.040333 
L 65.765028 74.673276 
L 68.405803 68.922763 
L 69.424218 67.680717 
L 70.545265 66.737084 
L 71.737364 66.023311 
L 72.988673 65.470842 
L 73.039988 66.648367 
L 73.509723 67.523445 
L 74.243929 67.71701 
L 75.092609 66.825802 
L 75.187345 66.003148 
L 74.326823 64.535275 
L 74.366297 63.446468 
L 75.455765 61.885845 
L 77.109703 60.865593 
L 78.909693 60.099395 
L 86.02676 55.889343 
L 87.621488 54.582774 
L 88.371484 53.655272 
L 89.460952 51.969638 
L 90.325421 51.203441 
L 91.201732 50.808244 
L 93.333299 50.284004 
L 94.300399 49.908971 
L 91.718834 49.812188 
L 89.993844 50.538059 
L 88.663588 51.872855 
L 87.317543 53.598816 
L 85.351764 54.96184 
L 80.366264 56.006288 
L 78.345223 56.679736 
L 75.00182 58.837186 
L 74.042614 59.688068 
L 70.758422 63.446468 
L 68.938695 62.680271 
L 69.080799 60.841397 
L 69.803164 58.615392 
L 69.732111 56.679736 
L 69.234746 58.147608 
L 67.991331 60.107461 
L 67.403177 63.720686 
L 66.451866 65.152265 
L 64.983453 65.63618 
L 63.11241 64.793362 
L 62.449256 65.470842 
L 62.168994 65.043385 
L 61.063737 64.115883 
L 60.86637 65.430516 
L 60.100585 66.019278 
L 58.896644 66.164452 
L 57.424283 66.148322 
L 56.619025 67.229064 
L 56.03087 67.656521 
L 55.600609 66.801606 
L 55.190085 66.470931 
L 54.645351 66.23704 
L 52.774308 65.890234 
L 51.858524 65.212755 
L 51.305895 64.232829 
L 51.128265 63.107728 
L 50.524321 62.591553 
L 48.203281 59.938091 
L 48.14407 59.3211 
L 47.469074 58.954132 
L 45.420401 57.212041 
L 44.508564 56.679736 
L 44.050672 56.780551 
L 42.590153 57.337052 
L 41.855947 57.292694 
L 41.287529 56.816845 
L 39.866484 54.582774 
L 36.254661 51.759942 
L 35.169141 51.203441 
L 33.724412 51.203441 
L 32.627049 51.671224 
L 31.624423 52.251921 
L 30.475745 52.61889 
L 29.76 51.741311 
L 31.973803 50.204965 
L 35.538139 49.344566 
L 48.687581 50.225451 
L 50.477269 50.153751 
L 55.540531 48.888759 
L 60.428334 48.847788 
L 63.366028 47.649375 
L 77.833923 39.813595 
L 78.851589 39.598495 
L 79.889307 39.787988 
L 81.984796 40.617659 
L 82.781884 40.755937 
L 83.238078 40.571566 
L 83.659181 40.243795 
L 84.315902 39.956995 
L 91.645099 38.68176 
L 95.08912 38.989046 
L 101.155008 41.022251 
L 103.019892 41.365387 
L 110.720061 40.817394 
L 128.4114 41.862165 
L 131.755158 41.16053 
L 156.52355 29.483073 
L 161.673522 25.693828 
L 167.573977 22.984594 
L 173.208736 18.928426 
L 175.725328 17.781227 
L 178.507615 17.36127 
L 320.805332 17.960477 
L 320.02579 24.48005 
L 320.188717 26.687384 
L 321.116146 29.381253 
L 326.003948 35.532084 
L 327.099317 37.544804 
L 327.36 39.239995 
L 326.999055 40.940308 
L 326.999055 40.940308 
" clip-path="url(#p9ebd2a5579)" style="fill: none; stroke: #000000; stroke-width: 2"/>
   </g>
  </g>
 </g>
 <defs>
  <clipPath id="p9ebd2a5579">
   <rect x="0" y="-0" width="357.12" height="208.33524"/>
  </clipPath>
 </defs>
</svg>
