<?xml version="1.0" encoding="utf-8" standalone="no"?>
<!DOCTYPE svg PUBLIC "-//W3C//DTD SVG 1.1//EN"
  "http://www.w3.org/Graphics/SVG/1.1/DTD/svg11.dtd">
<svg xmlns:xlink="http://www.w3.org/1999/xlink" width="290.20336pt" height="266.112pt" viewBox="0 0 290.20336 266.112" xmlns="http://www.w3.org/2000/svg" version="1.1">
 <metadata>
  <rdf:RDF xmlns:dc="http://purl.org/dc/elements/1.1/" xmlns:cc="http://creativecommons.org/ns#" xmlns:rdf="http://www.w3.org/1999/02/22-rdf-syntax-ns#">
   <cc:Work>
    <dc:type rdf:resource="http://purl.org/dc/dcmitype/StillImage"/>
    <dc:date>2024-02-02T21:58:01.750424</dc:date>
    <dc:format>image/svg+xml</dc:format>
    <dc:creator>
     <cc:Agent>
      <dc:title>Matplotlib v3.8.2, https://matplotlib.org/</dc:title>
     </cc:Agent>
    </dc:creator>
   </cc:Work>
  </rdf:RDF>
 </metadata>
 <defs>
  <style type="text/css">*{stroke-linejoin: round; stroke-linecap: butt}</style>
 </defs>
 <g id="figure_1">
  <g id="patch_1">
   <path d="M 0 266.112 
L 290.20336 266.112 
L 290.20336 0 
L 0 0 
L 0 266.112 
z
" style="fill: none"/>
  </g>
  <g id="axes_1">
   <g id="PatchCollection_1">
    <path d="M 25.483201 243.392677 
L 24.89873 243.936 
L 24.183613 243.427065 
L 24.396773 243.361728 
L 24.57899 243.200107 
L 24.785274 243.114138 
L 24.520543 242.622396 
L 24.465534 242.134094 
L 24.640876 241.707688 
L 25.074071 241.405078 
L 25.631037 242.361051 
L 25.483201 243.392677 
" clip-path="url(#p0a242d3b60)" style="fill: none; stroke: #000000; stroke-width: 2"/>
    <path d="M 208.327313 89.932254 
L 209.183116 90.072005 
L 265.417192 90.065454 
L 265.740301 91.684599 
L 266.019747 139.360403 
L 210.807394 139.17698 
L 208.750848 139.44338 
L 208.528165 140.061341 
L 208.523799 141.312549 
L 208.370977 141.867185 
L 207.873214 142.351946 
L 207.200798 142.500431 
L 206.449788 142.386884 
L 205.703144 142.068077 
L 205.00453 141.526542 
L 203.908579 140.273151 
L 203.209964 139.779656 
L 202.555014 139.539459 
L 201.298755 139.394672 
L 201.298814 139.394481 
L 201.364137 139.172681 
L 201.30569 138.448824 
L 200.982512 137.369056 
L 201.07534 136.866998 
L 201.401956 136.603933 
L 202.581211 136.299603 
L 203.120987 136.263497 
L 202.86657 136.041697 
L 201.738886 135.752842 
L 200.786543 135.577465 
L 199.731058 134.979122 
L 199.218787 134.84845 
L 197.486003 135.221554 
L 197.035617 135.108076 
L 196.863714 134.685109 
L 197.04937 134.229474 
L 197.640716 133.693029 
L 196.856838 134.023149 
L 195.894181 134.870802 
L 195.075922 135.809581 
L 194.443319 136.72257 
L 193.050903 137.066445 
L 192.002295 137.510044 
L 191.624108 137.011425 
L 190.964 134.982561 
L 190.620194 134.447835 
L 190.162931 134.040343 
L 189.485633 133.693029 
L 188.715507 133.510775 
L 186.326054 134.115996 
L 185.078038 134.7109 
L 184.438558 134.84845 
L 184.067248 134.614615 
L 183.077086 133.507336 
L 182.533872 133.115318 
L 182.616385 132.692352 
L 182.509806 132.358793 
L 181.963154 131.646971 
L 182.623262 131.37531 
L 183.118342 130.87841 
L 183.475901 130.261154 
L 184.163513 128.098178 
L 184.534824 127.331337 
L 185.662508 126.65906 
L 186.253855 125.842357 
L 186.707679 124.884664 
L 186.920839 124.119542 
L 186.810821 122.501608 
L 186.975848 121.8087 
L 188.137913 121.299764 
L 189.801935 119.790152 
L 191.153093 118.053582 
L 191.245921 117.603105 
L 191.741002 116.394384 
L 192.421738 115.147836 
L 193.28813 114.477279 
L 193.83822 114.659533 
L 194.367681 115.156433 
L 195.165312 115.436691 
L 196.292996 115.288825 
L 197.090626 114.914001 
L 197.826372 114.436014 
L 198.768401 113.970063 
L 197.915761 114.013048 
L 196.189854 115.182223 
L 195.440357 115.003408 
L 193.60787 113.263399 
L 192.971828 112.094224 
L 193.405024 110.952558 
L 196.000761 108.332228 
L 196.458023 107.623845 
L 197.654468 106.712576 
L 197.836686 106.413404 
L 198.376462 105.316442 
L 198.568993 105.139346 
L 198.706515 104.855649 
L 198.864666 103.83434 
L 199.579783 102.727061 
L 201.07534 101.248398 
L 201.525726 99.817877 
L 201.360699 98.067552 
L 200.18832 94.615044 
L 199.655421 93.461342 
L 199.610726 92.99883 
L 199.703553 92.553512 
L 200.18832 91.831374 
L 200.539002 86.585556 
L 200.415232 85.633022 
L 200.054236 84.897129 
L 199.717306 83.949753 
L 200.260519 83.215579 
L 201.095969 82.629271 
L 201.58132 83.342125 
L 201.616251 84.132591 
L 201.480894 85.006034 
L 201.572587 85.877294 
L 202.114013 86.547662 
L 203.092073 87.41237 
L 204.161826 88.143879 
L 205.655114 88.598069 
L 208.327313 89.932254 
L 208.327313 89.932254 
" clip-path="url(#p0a242d3b60)" style="fill: none; stroke: #000000; stroke-width: 2"/>
    <path d="M 157.525409 23.051163 
L 158.103004 23.082111 
L 158.519009 22.776062 
L 159.471352 23.068356 
L 160.839701 23.274681 
L 162.273373 23.236855 
L 163.44919 22.776062 
L 163.576398 22.961755 
L 163.707045 23.032249 
L 164.050851 23.092428 
L 165.171659 24.478245 
L 165.591102 25.200383 
L 165.759568 26.094459 
L 165.694244 26.906004 
L 165.522341 27.643617 
L 165.254172 28.302138 
L 164.913804 28.860935 
L 163.387305 30.217523 
L 162.954109 31.386699 
L 161.55138 33.047616 
L 161.431047 33.188605 
L 160.585284 35.458182 
L 159.856415 36.035893 
L 159.657008 37.029692 
L 159.540113 37.25665 
L 159.443848 37.397639 
L 158.230212 38.119777 
L 158.082375 38.80065 
L 158.061747 40.746984 
L 157.797016 41.438173 
L 155.899206 43.62522 
L 154.451782 46.001398 
L 154.059843 46.475946 
L 153.654151 46.202565 
L 152.684618 45.789914 
L 152.464582 45.516534 
L 152.196413 45.630012 
L 151.584438 45.408213 
L 150.412059 44.756569 
L 150.106071 44.861451 
L 149.136538 45.078093 
L 148.710218 45.069496 
L 148.256394 44.871767 
L 147.362498 44.299215 
L 146.812408 44.178859 
L 145.90476 44.14791 
L 144.900846 43.914075 
L 144.089463 43.281344 
L 143.752533 42.039955 
L 143.560001 41.582601 
L 143.174938 41.028961 
L 142.899893 40.477042 
L 143.037416 40.007652 
L 143.202443 39.619073 
L 143.463736 37.830921 
L 143.749095 37.010779 
L 144.302623 35.946485 
L 145.089939 35.246699 
L 146.090415 35.523518 
L 146.626753 35.21575 
L 147.338431 35.248418 
L 148.844303 35.523518 
L 149.555981 35.236383 
L 149.78977 34.560668 
L 149.669437 33.78179 
L 149.287813 33.188605 
L 149.813836 32.906628 
L 150.477382 32.43036 
L 151.061853 31.864686 
L 151.309393 31.326521 
L 151.59819 27.418378 
L 152.14828 25.931118 
L 153.255336 24.125773 
L 154.744017 22.660864 
L 156.4768 22.176 
L 156.383972 22.335902 
L 156.212069 22.776062 
L 157.525409 23.051163 
" clip-path="url(#p0a242d3b60)" style="fill: none; stroke: #000000; stroke-width: 2"/>
   </g>
  </g>
 </g>
 <defs>
  <clipPath id="p0a242d3b60">
   <rect x="0" y="-0" width="290.20336" height="266.112"/>
  </clipPath>
 </defs>
</svg>
