<?xml version="1.0" encoding="utf-8" standalone="no"?>
<!DOCTYPE svg PUBLIC "-//W3C//DTD SVG 1.1//EN"
  "http://www.w3.org/Graphics/SVG/1.1/DTD/svg11.dtd">
<svg xmlns:xlink="http://www.w3.org/1999/xlink" width="252.219952pt" height="266.112pt" viewBox="0 0 252.219952 266.112" xmlns="http://www.w3.org/2000/svg" version="1.1">
 <metadata>
  <rdf:RDF xmlns:dc="http://purl.org/dc/elements/1.1/" xmlns:cc="http://creativecommons.org/ns#" xmlns:rdf="http://www.w3.org/1999/02/22-rdf-syntax-ns#">
   <cc:Work>
    <dc:type rdf:resource="http://purl.org/dc/dcmitype/StillImage"/>
    <dc:date>2024-02-02T21:58:01.898461</dc:date>
    <dc:format>image/svg+xml</dc:format>
    <dc:creator>
     <cc:Agent>
      <dc:title>Matplotlib v3.8.2, https://matplotlib.org/</dc:title>
     </cc:Agent>
    </dc:creator>
   </cc:Work>
  </rdf:RDF>
 </metadata>
 <defs>
  <style type="text/css">*{stroke-linejoin: round; stroke-linecap: butt}</style>
 </defs>
 <g id="figure_1">
  <g id="patch_1">
   <path d="M 0 266.112 
L 252.219952 266.112 
L 252.219952 0 
L 0 0 
L 0 266.112 
z
" style="fill: none"/>
  </g>
  <g id="axes_1">
   <g id="PatchCollection_1">
    <path d="M 182.141381 22.268528 
L 182.651437 49.033182 
L 182.730962 64.483844 
L 180.436887 99.40694 
L 179.633961 110.610936 
L 178.296295 123.154769 
L 178.172173 126.466146 
L 178.603902 127.175527 
L 178.721278 127.001687 
L 179.826234 126.547459 
L 180.299787 126.51942 
L 181.256337 126.12127 
L 185.252528 126.309129 
L 186.741993 126.053977 
L 188.416292 126.042761 
L 193.034442 127.240016 
L 195.013819 126.464358 
L 195.742574 126.795524 
L 197.508159 128.287981 
L 199.314112 127.837594 
L 201.625731 128.356422 
L 203.404064 129.402907 
L 203.601656 130.54212 
L 204.787211 130.738612 
L 210.052095 134.063522 
L 209.408326 136.509738 
L 209.516683 136.874021 
L 210.925326 136.874021 
L 211.492608 136.655451 
L 211.658331 136.191818 
L 211.59884 135.785588 
L 211.475611 135.728185 
L 211.460738 135.502992 
L 211.116545 135.059229 
L 211.122919 134.650791 
L 211.384251 134.569103 
L 211.868671 134.624298 
L 212.338219 134.544818 
L 212.546435 134.063522 
L 212.748276 133.191451 
L 214.003945 131.654839 
L 214.067684 130.8203 
L 213.66825 129.535374 
L 213.617258 128.689796 
L 214.003945 128.689796 
L 214.003945 129.431609 
L 214.329016 129.431609 
L 214.951539 129.020962 
L 216.470664 129.316804 
L 217.212167 129.025378 
L 215.333976 127.382792 
L 214.369385 126.941237 
L 213.260317 125.322938 
L 211.012437 124.051259 
L 210.370793 123.24542 
L 211.122919 122.357894 
L 211.919663 122.825943 
L 214.003945 123.839312 
L 215.520945 125.444365 
L 216.617265 126.077997 
L 219.349565 128.376292 
L 224.731305 130.913026 
L 226.496889 132.515871 
L 227.051423 132.76535 
L 229.352419 134.796504 
L 231.201623 135.596047 
L 230.590815 135.825483 
L 230.427567 136.313357 
L 230.47074 136.902171 
L 230.122658 137.62557 
L 229.800211 137.221812 
L 227.302929 138.343363 
L 226.20202 138.365794 
L 225.907904 138.763944 
L 224.328046 141.496321 
L 221.903618 143.889428 
L 203.00649 158.69302 
L 191.909249 167.350856 
L 190.089241 168.218655 
L 184.78707 170.006126 
L 182.849206 171.100669 
L 182.125191 171.699667 
L 181.500533 172.678219 
L 180.674852 175.180678 
L 181.692113 176.139603 
L 181.689415 177.56958 
L 181.04317 179.110309 
L 180.140587 180.404298 
L 178.8454 181.532858 
L 178.436607 182.167935 
L 178.385339 183.188546 
L 178.633583 183.944191 
L 179.088248 184.643757 
L 180.140587 185.923727 
L 180.631679 186.742458 
L 181.61656 189.141174 
L 182.184554 189.882799 
L 182.662154 190.307586 
L 182.976507 190.79546 
L 183.070947 191.719337 
L 182.93873 192.144124 
L 182.198045 193.091834 
L 182.389625 196.788744 
L 182.146778 197.687386 
L 181.532913 198.277602 
L 180.929842 198.325268 
L 178.977617 197.751875 
L 178.088525 197.868236 
L 177.693223 198.137408 
L 176.96603 199.153813 
L 175.330857 200.578181 
L 174.603663 201.37308 
L 174.084239 202.316584 
L 173.653859 202.777822 
L 172.493588 203.076434 
L 171.959323 203.429723 
L 171.620686 204.137701 
L 171.526245 204.997089 
L 171.639574 206.68362 
L 170.125824 205.570482 
L 169.799329 206.110228 
L 169.730522 205.061578 
L 169.198956 205.270467 
L 168.011702 206.508378 
L 167.190067 206.680816 
L 165.182528 206.037327 
L 164.25566 206.435477 
L 162.96452 208.008451 
L 162.254866 208.525766 
L 162.103761 207.520577 
L 161.533069 206.935969 
L 160.765401 206.87148 
L 160.024716 207.425245 
L 159.684729 208.284633 
L 159.908689 208.89728 
L 160.290499 209.434222 
L 160.441604 210.066496 
L 160.111062 210.596428 
L 159.58759 210.974952 
L 159.278634 211.430581 
L 159.601082 212.198843 
L 160.692546 212.344645 
L 161.05277 212.507269 
L 161.506086 213.002153 
L 161.877103 213.83911 
L 162.068683 215.020944 
L 162.296689 215.24946 
L 162.959124 215.583121 
L 163.126418 215.804627 
L 163.134513 216.651397 
L 162.798574 216.987862 
L 157.191494 218.344938 
L 155.818057 218.980016 
L 154.501283 220.002028 
L 153.45569 221.157225 
L 151.075784 225.587348 
L 151.127052 226.003724 
L 151.503465 226.882739 
L 151.483228 227.184155 
L 150.719607 227.599129 
L 149.953289 227.285095 
L 148.594691 226.216818 
L 147.647586 225.967273 
L 146.87722 226.020547 
L 144.566121 226.910777 
L 144.00892 227.279487 
L 142.897218 228.402439 
L 137.879718 231.956351 
L 137.106654 232.647507 
L 135.833053 234.962106 
L 135.192206 235.482225 
L 133.759405 236.254692 
L 133.134747 236.90379 
L 132.720557 237.687473 
L 132.442632 238.545459 
L 132.313113 239.427277 
L 132.337398 240.281057 
L 133.451267 243.936 
L 133.172103 243.799753 
L 125.484685 240.581607 
L 117.359641 236.899514 
L 112.18774 234.940158 
L 107.99985 233.932707 
L 104.991934 233.439461 
L 101.37555 233.085125 
L 97.337363 233.483931 
L 96.730006 233.667212 
L 90.772926 234.048399 
L 83.807014 233.91548 
L 77.435666 233.2037 
L 69.566784 231.631503 
L 57.274858 226.118947 
L 52.823716 223.560135 
L 46.273678 219.450799 
L 38.669295 213.826051 
L 31.286135 207.087919 
L 21.018329 199.586357 
L 22.069774 199.420181 
L 23.011482 198.271994 
L 24.159612 195.067164 
L 25.274012 192.974071 
L 25.479083 192.14132 
L 25.430514 191.119308 
L 24.471266 188.056074 
L 24.509042 186.83779 
L 23.911367 185.047516 
L 23.868194 183.904936 
L 24.121835 183.255839 
L 25.206554 181.977272 
L 25.798832 180.351024 
L 25.647727 176.973756 
L 25.823117 175.18909 
L 26.442378 174.562423 
L 28.453965 173.998844 
L 28.98823 173.372178 
L 30.021681 170.969257 
L 23.257028 162.100599 
L 22.861726 161.221584 
L 22.842838 160.206581 
L 23.18957 159.260273 
L 46.830779 118.197518 
L 47.459484 117.401217 
L 48.298657 116.977832 
L 113.965981 116.753522 
L 114.922135 116.386479 
L 115.11411 116.117042 
L 115.620043 114.894552 
L 114.517785 115.29831 
L 114.314063 114.373032 
L 115.57687 113.315971 
L 114.906341 112.668275 
L 114.906341 112.33181 
L 116.055819 111.857955 
L 115.711785 111.3112 
L 114.192639 110.447606 
L 113.995663 109.418584 
L 114.365331 108.678361 
L 115.006178 108.184879 
L 115.620043 107.887668 
L 114.914436 107.60728 
L 114.400409 107.192307 
L 114.316761 106.653963 
L 114.906341 106.00066 
L 115.298944 106.314694 
L 115.97487 106.407222 
L 115.263866 105.22679 
L 115.566077 105.179124 
L 115.620043 104.890325 
L 115.928999 105.103419 
L 116.363426 105.22679 
L 116.685874 105.092204 
L 116.688572 104.520213 
L 116.366124 104.649192 
L 115.606551 104.366 
L 115.076334 103.979065 
L 115.441955 103.777186 
L 116.403901 103.465956 
L 117.175616 102.722929 
L 117.483223 101.850924 
L 117.044748 101.152759 
L 116.688572 101.152759 
L 116.688572 101.556517 
L 116.333745 101.556517 
L 116.46866 100.788255 
L 116.963799 100.507868 
L 117.674803 100.558337 
L 118.472152 100.782647 
L 117.801623 99.456414 
L 117.685596 97.964753 
L 117.388782 97.891852 
L 116.926023 98.102143 
L 116.333745 98.186259 
L 115.103317 97.552583 
L 113.460049 97.339488 
L 113.325134 97.031062 
L 113.39529 96.565619 
L 113.122761 95.965589 
L 112.315967 95.31509 
L 111.733133 95.149662 
L 110.481119 95.755299 
L 110.158671 95.270228 
L 109.915824 94.112228 
L 109.409892 94.109424 
L 107.774718 94.653376 
L 107.467111 94.482339 
L 106.733172 94.33093 
L 105.893999 94.300087 
L 105.249104 94.485143 
L 105.521633 93.966426 
L 106.347314 93.167322 
L 106.317633 92.598135 
L 105.715911 92.228024 
L 104.914514 92.177554 
L 104.461198 91.975675 
L 104.890229 91.148532 
L 104.704046 90.270919 
L 105.214026 88.580182 
L 104.504371 88.151189 
L 104.177876 88.692337 
L 103.468222 88.860569 
L 103.468222 88.524104 
L 104.15629 87.253949 
L 103.441239 85.302451 
L 99.911854 80.202202 
L 99.156329 79.599369 
L 97.286403 78.66007 
L 96.514687 78.017983 
L 96.692775 77.008588 
L 95.980423 76.602026 
L 95.492029 77.014196 
L 94.876815 77.008588 
L 91.279973 75.892645 
L 90.316678 75.33187 
L 88.797532 73.792543 
L 87.715511 73.268218 
L 88.557383 72.370978 
L 88.430562 71.944789 
L 87.71821 71.821418 
L 86.80888 71.818614 
L 86.719836 72.045728 
L 86.911416 72.542014 
L 86.965382 73.0383 
L 86.452704 73.268218 
L 86.177477 73.116809 
L 85.219578 72.157883 
L 83.222832 71.442895 
L 82.599523 70.890532 
L 82.367469 69.766178 
L 82.073353 69.191383 
L 80.23041 66.96791 
L 80.028037 66.491251 
L 79.760905 65.453817 
L 79.48298 65.117352 
L 78.929827 65.013609 
L 77.672416 65.150999 
L 77.151643 64.932296 
L 75.295209 62.905094 
L 74.590951 61.6069 
L 74.323819 60.645171 
L 74.102557 60.266648 
L 73.622259 59.983456 
L 72.556428 59.705873 
L 72.351357 59.358192 
L 72.246123 58.517029 
L 71.949309 57.538477 
L 71.495994 56.680491 
L 70.926651 56.192617 
L 69.499247 56.116912 
L 68.101525 56.341222 
L 67.038392 56.156166 
L 66.617457 54.86358 
L 65.813361 54.428979 
L 64.199774 54.095318 
L 62.985537 53.540151 
L 63.206798 52.687772 
L 63.598052 52.617675 
L 86.509369 52.783104 
L 86.566033 22.938654 
L 86.986969 22.473211 
L 88.063593 22.176 
L 182.141381 22.268528 
L 182.141381 22.268528 
" clip-path="url(#pf19f7c2055)" style="fill: none; stroke: #000000; stroke-width: 2"/>
   </g>
  </g>
 </g>
 <defs>
  <clipPath id="pf19f7c2055">
   <rect x="0" y="-0" width="252.219952" height="266.112"/>
  </clipPath>
 </defs>
</svg>
