<?xml version="1.0" encoding="utf-8" standalone="no"?>
<!DOCTYPE svg PUBLIC "-//W3C//DTD SVG 1.1//EN"
  "http://www.w3.org/Graphics/SVG/1.1/DTD/svg11.dtd">
<svg xmlns:xlink="http://www.w3.org/1999/xlink" width="176.770648pt" height="266.112pt" viewBox="0 0 176.770648 266.112" xmlns="http://www.w3.org/2000/svg" version="1.1">
 <metadata>
  <rdf:RDF xmlns:dc="http://purl.org/dc/elements/1.1/" xmlns:cc="http://creativecommons.org/ns#" xmlns:rdf="http://www.w3.org/1999/02/22-rdf-syntax-ns#">
   <cc:Work>
    <dc:type rdf:resource="http://purl.org/dc/dcmitype/StillImage"/>
    <dc:date>2024-02-02T21:58:01.947472</dc:date>
    <dc:format>image/svg+xml</dc:format>
    <dc:creator>
     <cc:Agent>
      <dc:title>Matplotlib v3.8.2, https://matplotlib.org/</dc:title>
     </cc:Agent>
    </dc:creator>
   </cc:Work>
  </rdf:RDF>
 </metadata>
 <defs>
  <style type="text/css">*{stroke-linejoin: round; stroke-linecap: butt}</style>
 </defs>
 <g id="figure_1">
  <g id="patch_1">
   <path d="M 0 266.112 
L 176.770648 266.112 
L 176.770648 0 
L 0 0 
L 0 266.112 
z
" style="fill: none"/>
  </g>
  <g id="axes_1">
   <g id="PatchCollection_1">
    <path d="M 103.318435 71.906442 
L 102.734265 72.550257 
L 102.645237 72.04108 
L 102.824513 71.356874 
L 103.139159 70.754674 
L 103.596495 70.405839 
L 103.873335 69.99458 
L 103.980657 69.88075 
L 104.258716 69.835462 
L 105.190461 69.88075 
L 106.538076 70.086379 
L 106.505148 70.214897 
L 104.817275 71.452344 
L 103.318435 71.906442 
" clip-path="url(#p34fa2676f1)" style="fill: none; stroke: #000000; stroke-width: 2"/>
    <path d="M 68.286542 31.679006 
L 68.590212 31.713278 
L 70.276865 32.058441 
L 70.889085 32.749992 
L 73.564802 35.041289 
L 72.874531 33.931136 
L 71.828147 32.905438 
L 70.573219 32.075577 
L 68.323129 31.15759 
L 65.564481 29.253072 
L 63.747335 28.268989 
L 63.500984 27.936065 
L 63.131457 27.103757 
L 63.200972 26.71453 
L 63.910756 26.601924 
L 64.404679 26.819793 
L 65.465697 27.664341 
L 66.686477 28.027864 
L 67.281623 28.433003 
L 68.245077 29.253072 
L 70.218326 30.425648 
L 72.955022 31.663095 
L 76.138076 33.943376 
L 81.615125 37.194275 
L 83.863654 38.960471 
L 84.304223 39.539154 
L 85.92262 41.036788 
L 90.019213 45.618504 
L 91.557839 46.833378 
L 93.200284 49.117595 
L 93.936502 50.629123 
L 94.428757 51.344448 
L 94.539997 51.15314 
L 94.240773 50.411412 
L 94.297634 50.08274 
L 94.710863 50.11232 
L 95.45367 50.362963 
L 96.660655 51.438688 
L 97.645855 52.78781 
L 98.274602 53.806228 
L 99.507478 55.405138 
L 101.85862 57.727819 
L 102.402544 58.651927 
L 102.623285 59.650697 
L 102.324493 60.620092 
L 102.529379 60.396103 
L 102.374495 61.688629 
L 102.529379 65.549073 
L 102.000089 68.716742 
L 101.629343 69.197767 
L 100.482955 70.086379 
L 100.031718 70.633499 
L 99.704875 71.230803 
L 99.507306 71.845243 
L 99.33169 73.000683 
L 98.621905 74.808507 
L 98.558488 75.441306 
L 98.558488 77.725259 
L 98.277989 78.098574 
L 98.212132 78.432721 
L 98.212132 83.790096 
L 97.956025 84.777851 
L 95.963262 87.617492 
L 96.168148 87.805985 
L 97.687721 86.388613 
L 98.349943 86.599138 
L 98.846304 86.57221 
L 98.621905 86.386165 
L 99.118266 85.181765 
L 99.236564 81.233195 
L 99.542674 79.970044 
L 102.703776 74.40092 
L 103.502589 73.318919 
L 104.595315 72.550257 
L 105.91488 72.219782 
L 107.180785 72.285877 
L 108.329611 72.635936 
L 110.119927 73.578403 
L 111.330951 74.595533 
L 111.451688 74.654285 
L 111.571205 74.52087 
L 111.674868 74.169587 
L 111.929756 74.088804 
L 114.502942 74.40519 
L 116.366863 75.305953 
L 119.777167 78.173118 
L 122.347348 80.677745 
L 122.621657 81.129892 
L 123.16501 81.364509 
L 123.82068 82.045729 
L 127.12245 84.749716 
L 128.568341 86.270687 
L 130.095583 89.883418 
L 130.423732 90.303996 
L 130.656337 91.129822 
L 130.91066 90.76033 
L 131.01227 89.644837 
L 131.803664 88.927566 
L 131.940403 88.909997 
L 132.530856 88.95809 
L 133.652568 89.41398 
L 135.567798 90.474828 
L 137.822298 92.061435 
L 140.289885 94.568978 
L 140.914318 95.477099 
L 141.494357 96.562362 
L 142.204508 99.784752 
L 141.5407 98.951578 
L 142.253922 100.453826 
L 142.312682 101.591709 
L 142.394957 102.669275 
L 141.90291 103.72144 
L 141.550456 104.797322 
L 141.413028 105.150014 
L 141.395222 105.76926 
L 141.093673 106.494425 
L 141.022371 107.201867 
L 141.726156 108.359912 
L 141.667882 109.984455 
L 141.313875 110.929979 
L 138.807895 115.243132 
L 138.251861 117.549949 
L 136.549683 119.340686 
L 136.447459 119.671008 
L 136.56672 119.950033 
L 136.833121 119.950033 
L 137.265248 119.773602 
L 137.852259 119.922053 
L 137.952934 122.259959 
L 138.103172 122.424732 
L 138.625132 122.465148 
L 138.823384 122.336128 
L 138.902375 122.13638 
L 138.44082 121.481175 
L 138.49348 121.192823 
L 138.745942 121.04515 
L 139.387163 121.119764 
L 139.539749 121.364961 
L 139.743396 121.875231 
L 140.7424 123.091595 
L 140.966982 123.693948 
L 140.819842 124.112874 
L 140.454315 124.46185 
L 139.515716 124.928188 
L 139.353088 124.329721 
L 139.097529 124.018052 
L 138.718063 123.899913 
L 138.185261 123.88126 
L 137.847613 124.058468 
L 137.65091 124.474286 
L 137.451109 125.338565 
L 136.912112 126.694053 
L 136.87494 127.092772 
L 137.009689 127.429312 
L 138.103172 128.417948 
L 137.802697 128.592825 
L 136.634869 128.478572 
L 135.078282 129.030405 
L 131.616619 129.363836 
L 130.995533 128.829102 
L 129.538072 128.989989 
L 128.223105 129.463321 
L 127.045985 128.949573 
L 125.919976 129.01486 
L 124.914777 129.509955 
L 124.110928 130.28563 
L 123.660215 131.142137 
L 123.311725 131.415722 
L 122.577574 131.517539 
L 121.248667 131.31235 
L 121.022536 131.525311 
L 120.008044 133.045572 
L 119.461302 133.633157 
L 118.979612 134.324114 
L 118.773616 135.33529 
L 118.999747 135.749553 
L 119.997202 136.336361 
L 120.398352 137.57371 
L 121.202201 138.602762 
L 121.451565 139.134387 
L 121.409746 139.704873 
L 121.169676 140.227171 
L 120.633776 141.002846 
L 120.15983 142.533988 
L 119.65181 143.385832 
L 119.100422 144.722666 
L 118.878937 145.719074 
L 117.955827 146.958755 
L 117.836566 147.509034 
L 118.177312 148.938359 
L 118.113809 149.69538 
L 117.920204 150.289183 
L 117.587203 150.799823 
L 114.977403 153.475047 
L 114.560764 154.114706 
L 114.508103 154.737267 
L 114.886021 156.032909 
L 115.277878 158.590771 
L 115.573707 159.653243 
L 116.300114 160.568819 
L 118.271791 162.127942 
L 118.759676 162.70076 
L 120.279091 164.932963 
L 120.917214 166.302441 
L 121.044219 166.879922 
L 121.124759 168.244737 
L 121.302876 168.879734 
L 121.638975 169.437784 
L 122.137702 169.756448 
L 123.602907 170.365796 
L 124.745953 171.099501 
L 125.269462 172.395142 
L 125.442932 172.649296 
L 126.714532 173.265639 
L 127.205515 173.822913 
L 127.162148 174.354537 
L 126.711434 175.437218 
L 126.759449 176.011591 
L 126.589076 176.804365 
L 126.781132 177.475891 
L 127.028947 177.754916 
L 127.282957 177.860619 
L 128.128625 178.034719 
L 129.897404 178.933973 
L 130.173098 178.892003 
L 130.465829 178.301308 
L 130.851491 178.377477 
L 131.647596 178.746661 
L 132.061137 178.879567 
L 132.234607 179.168696 
L 132.671381 178.836819 
L 132.745725 178.73578 
L 133.592942 178.516601 
L 133.802036 178.25312 
L 133.76951 177.708282 
L 135.516605 178.366596 
L 136.317356 178.229803 
L 137.265248 177.485217 
L 138.103172 179.444613 
L 137.990106 180.677299 
L 137.742292 181.053478 
L 137.808892 181.303746 
L 137.996302 181.550905 
L 138.103172 181.909985 
L 137.946739 183.585691 
L 138.268898 184.280534 
L 138.185261 184.644278 
L 137.935897 185.08108 
L 138.268898 185.32513 
L 138.569374 185.374873 
L 139.128506 185.104397 
L 139.331404 184.916308 
L 139.387163 185.006466 
L 139.515716 185.102843 
L 139.058808 185.984221 
L 139.331404 186.532945 
L 139.848718 187.010164 
L 140.304077 188.291038 
L 140.335054 188.517989 
L 140.237477 188.640791 
L 139.721713 188.724732 
L 139.879694 189.587457 
L 139.476995 190.255874 
L 139.85956 190.476607 
L 140.855465 190.58231 
L 140.999508 191.02844 
L 140.672702 191.451253 
L 139.92616 192.122779 
L 140.446571 193.989684 
L 140.686641 194.11715 
L 140.91587 194.681418 
L 141.275202 194.810438 
L 141.555542 194.746705 
L 142.511178 194.400061 
L 142.720272 194.597477 
L 142.202958 195.680935 
L 142.40121 196.248313 
L 142.500336 196.179916 
L 143.52567 196.024471 
L 143.815304 196.165926 
L 143.747154 196.492363 
L 143.423446 197.171661 
L 143.579879 197.564939 
L 144.354301 198.385693 
L 144.651679 198.937526 
L 144.831344 200.122024 
L 145.069866 200.299232 
L 145.692501 199.94637 
L 145.895399 200.330321 
L 145.692501 201.589433 
L 145.838092 201.861463 
L 146.649686 202.965129 
L 146.491704 203.978636 
L 146.685309 204.258439 
L 147.108143 204.11232 
L 147.719936 203.661527 
L 147.969299 203.939775 
L 147.78189 204.60042 
L 147.719936 204.892658 
L 147.958458 205.570402 
L 148.454862 206.032076 
L 148.599678 206.324315 
L 148.546243 206.636761 
L 148.353412 207.0689 
L 148.581867 207.614515 
L 149.65444 208.553409 
L 149.98899 209.224935 
L 149.972727 210.308393 
L 150.101281 210.577314 
L 150.379299 210.717215 
L 151.338032 210.989245 
L 151.718273 211.573722 
L 152.459394 214.45258 
L 155.344888 218.553242 
L 156.165775 218.891337 
L 159.103929 218.939525 
L 160.23381 219.530219 
L 160.614051 219.992671 
L 160.866512 220.145008 
L 161.495342 220.347865 
L 161.758645 220.560826 
L 162.03976 221.201263 
L 160.640381 221.730556 
L 159.728887 222.252854 
L 159.251069 222.288607 
L 158.794161 222.062433 
L 157.891185 221.413446 
L 157.311918 221.344273 
L 156.806996 221.548684 
L 155.981462 222.088859 
L 154.372215 222.062433 
L 152.721149 223.249262 
L 152.309157 223.247708 
L 149.784543 222.747949 
L 148.849042 221.908541 
L 148.201626 221.903878 
L 146.711639 222.006472 
L 146.174191 221.894551 
L 145.38583 221.478734 
L 144.831344 221.006955 
L 144.476659 220.386726 
L 144.289249 219.530219 
L 143.376981 218.799624 
L 141.925716 219.37866 
L 139.362381 220.992965 
L 138.756784 220.881821 
L 137.672594 220.201746 
L 136.935345 220.132572 
L 136.273989 220.382063 
L 134.353424 222.023571 
L 133.935236 222.176686 
L 133.63631 222.444052 
L 132.57845 224.987924 
L 130.58509 227.520138 
L 129.689859 228.199436 
L 128.289705 228.556185 
L 127.369693 228.584165 
L 124.835786 228.118604 
L 123.765536 228.064198 
L 122.808351 228.320684 
L 120.389059 229.394038 
L 118.868095 230.199247 
L 118.364722 230.174376 
L 117.461746 229.808301 
L 116.986252 229.741459 
L 116.806586 229.960638 
L 116.927396 231.8734 
L 116.729144 232.425233 
L 116.202537 233.396769 
L 115.720847 233.978137 
L 114.464736 234.214415 
L 113.047545 234.167781 
L 112.082616 233.911295 
L 111.875071 233.661804 
L 111.655135 233.005823 
L 111.422809 232.715916 
L 110.924082 232.451658 
L 110.609667 232.502955 
L 109.952957 232.79908 
L 108.727823 232.670837 
L 107.569289 232.22393 
L 107.355548 231.995425 
L 106.931165 231.440483 
L 106.588871 231.675983 
L 106.004957 232.881466 
L 105.738557 233.060229 
L 104.840228 233.559987 
L 104.79686 233.858444 
L 104.956391 234.780238 
L 104.144797 235.32663 
L 101.498392 235.875572 
L 101.141592 236.323815 
L 101.341392 236.946376 
L 102.098776 238.754989 
L 102.117362 239.482476 
L 101.922208 240.006328 
L 100.98361 241.486173 
L 100.737344 241.498609 
L 99.710461 240.94833 
L 99.137389 241.3214 
L 95.624614 241.071132 
L 95.280771 241.33539 
L 93.973548 243.059285 
L 93.400476 243.471217 
L 92.080862 243.892475 
L 91.540316 243.936 
L 90.99977 243.84895 
L 90.39727 243.592465 
L 89.625947 242.97379 
L 88.73846 240.97631 
L 88.183974 240.531735 
L 87.403481 240.13107 
L 86.232433 239.67212 
L 81.23122 238.782969 
L 79.307557 238.161186 
L 78.774755 237.871279 
L 78.399935 237.368412 
L 77.507802 235.599437 
L 76.964158 235.281551 
L 76.765906 234.19887 
L 76.417417 233.744191 
L 76.144046 233.70222 
L 75.534577 233.871656 
L 75.059856 233.64626 
L 74.736923 232.998051 
L 74.584362 232.920328 
L 74.071695 232.822397 
L 73.800647 232.501401 
L 72.934844 231.136586 
L 71.998569 230.392 
L 71.494421 229.743014 
L 70.658046 228.376645 
L 70.036185 227.852015 
L 69.399611 227.652267 
L 67.393085 227.814708 
L 66.814593 227.443969 
L 66.158658 226.742908 
L 66.109869 226.495749 
L 66.589236 225.849094 
L 67.218841 224.628067 
L 67.109647 224.216913 
L 66.919139 224.266655 
L 66.54432 224.176497 
L 65.068273 223.714823 
L 64.460352 223.933224 
L 64.095599 223.917679 
L 63.823777 223.59202 
L 63.632495 222.313478 
L 63.760275 221.492724 
L 64.271393 220.592692 
L 64.301595 220.31833 
L 64.279912 219.274511 
L 64.472743 218.529925 
L 64.373617 218.199603 
L 64.042164 217.572379 
L 63.997248 217.175214 
L 64.090953 216.858882 
L 64.523854 216.030355 
L 64.509915 215.72335 
L 64.236544 214.827204 
L 64.213311 213.704885 
L 64.379038 212.54215 
L 64.334896 211.509989 
L 63.689028 210.782502 
L 63.418755 210.710997 
L 62.551403 210.639492 
L 62.178907 210.445185 
L 61.261217 209.65552 
L 59.496311 208.628023 
L 59.187317 208.052873 
L 59.236106 207.779288 
L 59.5451 207.277198 
L 59.43823 205.973007 
L 59.387118 205.645016 
L 58.515894 203.686398 
L 58.120939 202.002919 
L 57.997806 201.880117 
L 57.462681 201.620522 
L 57.640798 200.992521 
L 56.699101 199.147378 
L 56.590682 198.567565 
L 56.78119 193.65703 
L 57.479718 190.55433 
L 57.372848 188.833544 
L 57.515341 188.079632 
L 57.810396 187.36458 
L 58.769904 185.925152 
L 59.144724 185.755716 
L 59.242301 185.561408 
L 59.209775 185.351556 
L 58.944149 184.849466 
L 59.039403 184.76708 
L 59.493988 184.591426 
L 59.427388 184.39401 
L 59.085093 183.915236 
L 59.090514 183.523513 
L 59.661263 182.825561 
L 60.201035 181.165399 
L 60.977005 179.87753 
L 61.388997 178.839928 
L 61.783952 178.77775 
L 61.934964 178.637849 
L 61.958197 178.430328 
L 61.733614 177.831085 
L 61.866815 176.37922 
L 61.347953 176.568087 
L 61.432364 176.038016 
L 61.947355 174.793672 
L 61.701863 174.030433 
L 60.698213 172.748781 
L 60.70286 171.865849 
L 61.458695 171.036545 
L 63.919806 170.169157 
L 65.055882 169.11368 
L 65.997578 168.602263 
L 66.197379 167.996801 
L 66.179567 167.371908 
L 66.429705 166.616441 
L 66.809946 166.234822 
L 68.033532 165.685321 
L 68.623641 165.227533 
L 68.719669 164.802388 
L 68.506703 163.624886 
L 68.69179 163.017092 
L 69.127789 162.316031 
L 69.686147 161.744768 
L 70.702962 161.332059 
L 70.750202 161.102776 
L 70.69212 160.80432 
L 70.475282 160.556384 
L 70.119823 160.428918 
L 68.693339 160.166992 
L 68.720443 159.392871 
L 67.987841 158.29931 
L 66.972575 157.352644 
L 66.686039 156.885529 
L 66.780518 156.179805 
L 67.113519 155.680047 
L 67.197931 155.251793 
L 66.562906 154.754366 
L 65.275043 154.336994 
L 64.783285 153.975582 
L 64.372842 152.857149 
L 64.447187 152.064375 
L 64.788706 151.141027 
L 64.431698 150.663031 
L 64.751534 150.100317 
L 65.776094 149.035512 
L 65.98209 147.817594 
L 65.870573 147.718886 
L 65.179789 147.571212 
L 64.447187 146.783101 
L 62.699318 145.801461 
L 62.298942 145.273722 
L 62.057322 145.541866 
L 61.800989 145.608708 
L 60.438782 145.199108 
L 60.523968 144.817488 
L 60.40161 144.704013 
L 60.015173 144.702458 
L 59.154017 145.014905 
L 58.992937 144.868785 
L 58.562359 144.295967 
L 57.997806 144.066685 
L 57.355811 144.131972 
L 57.05611 144.580433 
L 56.683613 144.521364 
L 55.972694 144.277314 
L 54.607389 144.414106 
L 54.289102 143.643095 
L 53.962296 143.475213 
L 53.637814 143.461223 
L 53.480606 143.702164 
L 53.410134 144.044922 
L 53.235889 144.178606 
L 52.610931 144.096997 
L 52.133888 143.852169 
L 51.797789 143.407594 
L 51.652198 142.85343 
L 51.751324 142.282166 
L 52.552075 141.429545 
L 53.683505 141.278763 
L 53.96462 141.009064 
L 54.099369 140.420702 
L 54.326275 139.72275 
L 55.439892 137.986419 
L 55.620333 137.462566 
L 55.691579 136.892857 
L 55.558379 135.586335 
L 55.979664 134.247946 
L 56.054783 132.444773 
L 56.58681 130.456621 
L 56.614689 129.296994 
L 57.147491 127.475946 
L 57.099477 126.617885 
L 54.941165 125.440382 
L 54.323177 124.967049 
L 53.858524 124.443197 
L 52.645006 121.881449 
L 51.301385 122.370326 
L 50.870032 121.985597 
L 50.589692 121.278319 
L 50.196286 121.164843 
L 48.944046 121.488948 
L 48.388786 121.762532 
L 47.179915 122.978897 
L 46.609941 123.374506 
L 45.953231 123.392383 
L 44.635941 122.936926 
L 44.010983 122.96957 
L 43.782528 123.163877 
L 43.431716 123.746799 
L 43.136661 123.962092 
L 42.915176 123.948102 
L 42.2817 123.42969 
L 41.684621 123.309219 
L 39.560383 123.496531 
L 38.203597 122.918273 
L 35.7572 122.828114 
L 34.418226 123.122684 
L 27.565372 115.604544 
L 15.243554 101.971163 
L 14.730887 100.759462 
L 15.043753 100.428363 
L 16.488049 99.519781 
L 17.893624 97.282915 
L 18.547235 95.897115 
L 18.945288 95.681823 
L 20.431403 95.339064 
L 20.792283 95.126104 
L 21.08424 94.730494 
L 21.406399 93.959482 
L 21.792061 93.621387 
L 22.204827 93.5561 
L 22.643924 93.601179 
L 22.9777 93.507912 
L 23.083021 92.617984 
L 23.180598 91.180887 
L 22.066206 89.997167 
L 21.798256 88.824327 
L 22.127385 86.956645 
L 22.45574 86.344188 
L 22.432507 85.849093 
L 22.347321 85.603489 
L 22.02129 85.15425 
L 21.500104 83.804203 
L 21.042421 83.380613 
L 20.624233 83.146667 
L 20.336923 82.849765 
L 20.268 82.234199 
L 20.483289 81.199707 
L 20.920837 80.08516 
L 21.506299 79.013361 
L 22.729885 77.589476 
L 23.295213 77.47911 
L 23.951922 77.539734 
L 24.511054 77.70917 
L 24.785974 77.161223 
L 26.061445 77.45113 
L 26.613608 77.032203 
L 27.98201 77.201639 
L 28.768048 76.987124 
L 29.633851 76.003928 
L 29.579642 75.478521 
L 29.283813 75.057263 
L 29.217212 74.720723 
L 29.391457 74.599475 
L 29.780991 74.632119 
L 30.64602 74.958555 
L 31.128484 75.360382 
L 31.767382 75.445101 
L 32.809753 75.243798 
L 33.423094 75.406239 
L 34.519675 76.117404 
L 34.967291 76.270518 
L 35.602316 76.048231 
L 36.087878 75.538368 
L 36.937418 74.318895 
L 37.424529 73.923285 
L 37.989857 73.677681 
L 40.14662 73.160046 
L 43.976134 70.78017 
L 44.778434 70.59208 
L 45.283357 70.890536 
L 45.5606 69.39981 
L 45.812287 68.894611 
L 47.49433 67.413212 
L 47.853661 66.385715 
L 47.831203 65.875852 
L 47.603523 65.401742 
L 47.217087 65.053543 
L 46.15466 64.449072 
L 45.799896 64.055581 
L 45.442888 63.859719 
L 45.048707 63.82863 
L 44.130244 63.887699 
L 43.120398 63.376282 
L 42.346751 63.371619 
L 41.708628 63.609451 
L 41.221517 64.07268 
L 40.560936 65.258732 
L 40.168304 65.266504 
L 37.758305 63.292341 
L 37.319208 62.396973 
L 37.304494 61.501605 
L 37.677765 60.688623 
L 38.542794 59.821235 
L 38.614041 59.359561 
L 38.556733 59.110847 
L 38.29343 58.705134 
L 37.741268 57.48022 
L 36.893276 56.765169 
L 36.923479 56.143385 
L 36.792602 55.922652 
L 36.38603 55.641295 
L 35.593023 55.400354 
L 34.722573 53.690449 
L 34.696243 53.236547 
L 35.118303 52.449991 
L 36.477412 52.014743 
L 36.942839 51.438039 
L 37.659953 50.253541 
L 37.855882 50.107422 
L 38.290332 50.186699 
L 38.572222 49.975293 
L 38.686062 49.588233 
L 38.614041 49.142103 
L 39.074047 48.330675 
L 39.146842 46.892801 
L 39.821363 46.089146 
L 40.413021 44.974599 
L 40.835081 44.575103 
L 41.508827 44.349706 
L 44.049704 44.394786 
L 45.360799 44.26732 
L 46.090304 43.720151 
L 46.330374 43.028416 
L 46.99173 42.428395 
L 49.001354 40.929897 
L 49.665807 40.040747 
L 51.105456 39.482696 
L 52.720125 38.094564 
L 53.359022 37.891707 
L 55.199822 37.970985 
L 55.706293 37.673306 
L 56.009866 37.147121 
L 56.263102 35.940084 
L 56.613141 35.490068 
L 56.652636 35.139538 
L 56.572871 34.360754 
L 56.793581 33.892085 
L 58.399731 32.691265 
L 61.134987 32.110675 
L 61.709607 31.588377 
L 62.088299 30.923846 
L 62.120051 30.305171 
L 60.920472 28.369093 
L 57.801103 24.878555 
L 55.964096 22.176 
L 56.560461 22.450172 
L 57.547086 23.09154 
L 58.616642 24.168645 
L 60.330125 26.772057 
L 61.45456 27.852835 
L 62.305814 28.292245 
L 63.769287 28.688815 
L 64.522976 29.067026 
L 66.166944 30.261634 
L 67.027955 30.729195 
L 67.917015 30.914017 
L 68.286542 31.679006 
L 68.286542 31.679006 
" clip-path="url(#p34fa2676f1)" style="fill: none; stroke: #000000; stroke-width: 2"/>
   </g>
  </g>
 </g>
 <defs>
  <clipPath id="p34fa2676f1">
   <rect x="0" y="-0" width="176.770648" height="266.112"/>
  </clipPath>
 </defs>
</svg>
