<?xml version="1.0" encoding="utf-8" standalone="no"?>
<!DOCTYPE svg PUBLIC "-//W3C//DTD SVG 1.1//EN"
  "http://www.w3.org/Graphics/SVG/1.1/DTD/svg11.dtd">
<svg xmlns:xlink="http://www.w3.org/1999/xlink" width="357.12pt" height="264.919559pt" viewBox="0 0 357.12 264.919559" xmlns="http://www.w3.org/2000/svg" version="1.1">
 <metadata>
  <rdf:RDF xmlns:dc="http://purl.org/dc/elements/1.1/" xmlns:cc="http://creativecommons.org/ns#" xmlns:rdf="http://www.w3.org/1999/02/22-rdf-syntax-ns#">
   <cc:Work>
    <dc:type rdf:resource="http://purl.org/dc/dcmitype/StillImage"/>
    <dc:date>2024-02-02T21:58:01.974793</dc:date>
    <dc:format>image/svg+xml</dc:format>
    <dc:creator>
     <cc:Agent>
      <dc:title>Matplotlib v3.8.2, https://matplotlib.org/</dc:title>
     </cc:Agent>
    </dc:creator>
   </cc:Work>
  </rdf:RDF>
 </metadata>
 <defs>
  <style type="text/css">*{stroke-linejoin: round; stroke-linecap: butt}</style>
 </defs>
 <g id="figure_1">
  <g id="patch_1">
   <path d="M 0 264.919559 
L 357.12 264.919559 
L 357.12 0 
L 0 0 
L 0 264.919559 
z
" style="fill: none"/>
  </g>
  <g id="axes_1">
   <g id="PatchCollection_1">
    <path d="M 177.572295 217.278482 
L 181.952554 222.084877 
L 185.688658 220.552403 
L 185.688658 224.081737 
L 181.952554 226.775175 
L 188.522944 226.310789 
L 194.578009 226.310789 
L 197.197576 227.703947 
L 191.099567 231.976298 
L 188.995325 234.832271 
L 192.301992 241.914157 
L 188.093507 241.867719 
L 174.093853 242.842929 
L 175.811602 237.897219 
L 175.811602 220.552403 
L 170.615412 220.64528 
L 171.731948 216.976631 
L 171.903723 209.337482 
L 175.382165 210.73064 
L 177.572295 217.278482 
" clip-path="url(#p2f0ace024b)" style="fill: none; stroke: #000000; stroke-width: 2"/>
    <path d="M 232.420857 179.342161 
L 234.521514 181.840269 
L 238.904961 182.207958 
L 242.42462 185.524368 
L 247.62413 191.17387 
L 250.842121 197.909836 
L 248.300606 201.860868 
L 245.036883 205.854588 
L 247.012294 211.195026 
L 249.50303 216.071079 
L 247.012294 216.976631 
L 250.748399 227.703947 
L 244.178009 229.027447 
L 242.503204 226.775175 
L 238.42355 223.199403 
L 238.380606 217.208824 
L 236.705801 210.591324 
L 233.098528 207.596035 
L 230.00658 210.173377 
L 233.098528 211.195026 
L 233.098528 215.629912 
L 230.994286 216.071079 
L 227.344069 220.552403 
L 230.994286 226.334008 
L 229.362425 230.350947 
L 231.423723 234.391105 
L 225.196883 235.714605 
L 224.338009 226.775175 
L 226.055758 225.451675 
L 224.595671 222.688578 
L 219.055931 225.451675 
L 216.608139 224.081737 
L 219.055931 221.016789 
L 215.362771 218.787737 
L 217.810563 215.188745 
L 216.608139 212.077359 
L 212.013161 211.195026 
L 212.614373 206.342193 
L 205.915152 210.753859 
L 203.853853 213.865245 
L 202.608485 213.865245 
L 201.406061 210.753859 
L 200.547186 206.713702 
L 195.909264 204.066702 
L 187.363463 203.648754 
L 183.713247 201.860868 
L 181.566061 197.379544 
L 180.793074 194.732544 
L 178.302338 190.274439 
L 174.995671 188.950939 
L 175.425108 185.351947 
L 176.627533 184.469614 
L 179.161212 183.146114 
L 183.713247 180.893842 
L 188.349177 178.310247 
L 193.500698 178.437025 
L 198.658194 179.870287 
L 202.434851 182.055792 
L 208.099439 182.616136 
L 214.89039 180.011509 
L 219.270119 176.565479 
L 226.448227 176.821733 
L 232.420857 179.342161 
" clip-path="url(#p2f0ace024b)" style="fill: none; stroke: #000000; stroke-width: 2"/>
    <path d="M 142.91671 156.420702 
L 142.100779 161.319974 
L 139.953593 159.48565 
L 135.830996 158.672974 
L 132.180779 158.672974 
L 131.236018 167.565965 
L 122.303723 166.219246 
L 122.303723 173.788737 
L 127.285195 171.606123 
L 124.880347 178.943421 
L 125.567446 192.898219 
L 117.794632 192.898219 
L 113.15671 191.087114 
L 119.426493 200.026544 
L 111.610736 206.249316 
L 123.506147 214.306412 
L 115.69039 220.552403 
L 106.070996 225.056947 
L 105.383896 221.016789 
L 105.383896 208.501588 
L 99.285888 208.501588 
L 94.261472 208.501588 
L 86.918096 208.501588 
L 77.814026 216.071079 
L 74.16381 216.071079 
L 72.489005 218.787737 
L 77.814026 220.111237 
L 77.814026 223.617351 
L 72.918442 226.891271 
L 66.133334 227.471754 
L 59.691775 221.016789 
L 58.875845 216.976631 
L 54.366754 218.34657 
L 48.955845 222.293851 
L 41.268918 228.957789 
L 34.569697 231.419035 
L 30.747706 226.96093 
L 30.060606 219.507535 
L 29.76 213.424079 
L 30.747706 210.243035 
L 36.029784 210.243035 
L 36.029784 204.577526 
L 40.02355 203.509438 
L 40.02355 199.933666 
L 36.759827 197.379544 
L 36.759827 197.356325 
L 37.01749 197.17057 
L 41.655411 193.54836 
L 45.391515 190.390535 
L 45.735065 189.392105 
L 50.587706 188.509772 
L 54.366754 184.469614 
L 58.875845 176.853685 
L 68.795844 176.853685 
L 74.16381 177.34129 
L 77.814026 181.335009 
L 83.224935 179.129176 
L 95.50684 172.02407 
L 103.322597 173.788737 
L 107.015758 167.542746 
L 111.610736 166.660413 
L 115.34684 159.996474 
L 124.751515 152.426983 
L 126.42632 156.420702 
L 138.708225 146.57572 
L 141.628398 148.595799 
L 144.548571 151.962597 
L 142.91671 156.420702 
" clip-path="url(#p2f0ace024b)" style="fill: none; stroke: #000000; stroke-width: 2"/>
    <path d="M 207.00442 22.07663 
L 212.185154 26.499446 
L 221.074934 26.499446 
L 232.067879 27.112432 
L 239.454199 26.50873 
L 235.503377 31.709853 
L 232.840866 34.914116 
L 228.975931 38.884616 
L 226.399307 38.884616 
L 226.055758 45.03773 
L 230.607792 43.71423 
L 230.994286 41.531616 
L 237.178182 39.766949 
L 239.239481 37.491458 
L 243.319134 29.921967 
L 245.380433 29.480801 
L 247.012294 31.268686 
L 249.932468 29.480801 
L 251.564329 31.268686 
L 249.245368 36.051862 
L 252.38026 35.285625 
L 255.772814 38.443449 
L 255.515152 42.321072 
L 258.091775 43.969642 
L 262.30026 41.531616 
L 263.245022 43.71423 
L 263.245022 47.313221 
L 262.128485 51.910642 
L 266.079308 52.189274 
L 268.226493 55.602511 
L 273.122078 57.994098 
L 287.937662 53.559213 
L 291.201386 51.748107 
L 292.446753 54.905932 
L 282.526754 62.91659 
L 276.772295 68.257028 
L 263.588572 74.038633 
L 257.404676 78.519958 
L 254.956883 82.490458 
L 249.50303 86.089449 
L 245.380433 86.089449 
L 237.607619 75.8033 
L 230.178355 77.196458 
L 227.344069 75.362133 
L 226.055758 78.078791 
L 226.914632 82.931624 
L 229.362425 84.255124 
L 230.178355 88.272063 
L 226.399307 87.389729 
L 226.055758 84.765949 
L 222.319654 82.490458 
L 216.178702 83.372791 
L 214.117403 86.089449 
L 203.982684 88.202405 
L 208.749438 90.965502 
L 227.344069 103.875431 
L 226.399307 108.356756 
L 228.975931 110.562589 
L 226.055758 116.390633 
L 229.362425 115.438641 
L 233.485022 107.056475 
L 239.196537 101.507063 
L 241.30078 95.446826 
L 244.263896 95.353949 
L 248.300606 98.093826 
L 256.588745 98.093826 
L 257.748225 101.065896 
L 256.588745 106.522431 
L 259.423031 110.121422 
L 261.484329 104.316597 
L 268.097663 100.787265 
L 261.484329 90.524335 
L 268.097663 85.207116 
L 274.75394 83.372791 
L 274.324502 78.519958 
L 286.434632 69.952037 
L 287.121732 72.715133 
L 290.127793 73.342054 
L 287.121732 78.961124 
L 292.747359 80.400721 
L 293.992727 89.177616 
L 291.201386 92.799826 
L 293.649178 97.60622 
L 296.483463 94.123326 
L 299.017143 102.551931 
L 301.507879 102.110765 
L 301.121385 92.242563 
L 305.501645 80.725791 
L 309.71013 84.255124 
L 309.452467 89.224054 
L 310.955498 92.799826 
L 319.157749 93.240993 
L 326.544069 95.005659 
L 325.298701 99.417326 
L 327.36 108.356756 
L 321.047273 105.407904 
L 317.053506 104.757764 
L 310.955498 116.78536 
L 313.489178 115.322545 
L 318.728312 122.845598 
L 321.261992 135.058948 
L 319.587186 135.476895 
L 319.157749 132.644141 
L 314.219221 132.388729 
L 315.851082 137.264781 
L 313.789783 142.187272 
L 310.955498 144.834272 
L 306.01697 146.57572 
L 304.299221 154.19165 
L 301.507879 150.174711 
L 301.507879 143.069606 
L 296.054026 146.57572 
L 294.508052 142.628439 
L 291.201386 138.588281 
L 292.017316 129.718509 
L 284.673939 126.607123 
L 283.729178 121.684632 
L 279.220087 124.888896 
L 273.938009 126.142738 
L 266.508745 120.77908 
L 262.30026 120.77908 
L 257.404676 127.930623 
L 259.852468 136.382448 
L 263.245022 141.304939 
L 261.484329 145.275439 
L 256.588745 140.863772 
L 256.159308 135.058948 
L 251.950822 137.264781 
L 250.447792 140.794115 
L 255.858701 146.25065 
L 259.423031 160.878807 
L 261.870822 161.737921 
L 269.300087 163.247176 
L 269.729524 169.748579 
L 271.790823 169.748579 
L 275.956364 168.866246 
L 280.036018 174.229904 
L 276.901125 177.968211 
L 272.692641 180.893842 
L 268.913593 179.570342 
L 268.097663 180.011509 
L 268.484156 183.146114 
L 268.398268 187.581 
L 273.938009 185.793114 
L 275.56987 190.274439 
L 275.56987 194.291377 
L 272.177316 196.49721 
L 268.097663 192.898219 
L 262.472035 189.55464 
L 263.245022 184.469614 
L 259.852468 175.112237 
L 255.343377 171.582904 
L 256.159308 163.572246 
L 250.447792 159.950036 
L 248.300606 169.748579 
L 249.116537 175.112237 
L 241.687273 183.146114 
L 235.975758 177.34129 
L 227.344069 166.660413 
L 228.975931 172.02407 
L 227.730563 172.02407 
L 218.755325 162.271965 
L 214.031515 167.705281 
L 216.608139 171.582904 
L 216.608139 173.324351 
L 212.528485 171.582904 
L 211.454892 175.878474 
L 208.749438 177.782456 
L 206.301645 179.129176 
L 203.853853 176.01779 
L 204.369178 169.562825 
L 203.037922 166.660413 
L 202.608485 164.013413 
L 199.774199 164.013413 
L 199.774199 159.996474 
L 195.909264 156.420702 
L 188.522944 152.148351 
L 181.222511 148.595799 
L 180.793074 151.498211 
L 175.425108 142.628439 
L 174.17974 135.058948 
L 170.916017 132.829895 
L 167.051082 136.730738 
L 157.345801 135.058948 
L 156.916364 136.823615 
L 152.750823 136.823615 
L 151.076018 139.029448 
L 146.180433 137.705948 
L 142.100779 139.029448 
L 136.646927 141.304939 
L 126.42632 143.951939 
L 123.506147 142.187272 
L 123.506147 139.029448 
L 114.874459 139.029448 
L 111.31013 136.127036 
L 106.45749 134.594562 
L 103.322597 127.489457 
L 101.304243 127.04829 
L 100.101819 123.008132 
L 96.795152 126.653562 
L 102.206061 131.576054 
L 91.81368 132.829895 
L 86.488658 137.264781 
L 79.01645 133.271062 
L 76.525714 133.271062 
L 70.427706 129.254123 
L 72.489005 122.566966 
L 68.409351 116.390633 
L 61.237749 110.632247 
L 67.808139 105.013177 
L 79.01645 104.316597 
L 84.470303 100.346098 
L 91.384242 87.389729 
L 103.752035 82.049291 
L 114.874459 65.099203 
L 118.181126 65.099203 
L 122.303723 66.492361 
L 121.788399 69.952037 
L 121.487792 74.038633 
L 123.506147 72.715133 
L 129.732987 70.973686 
L 131.364848 70.973686 
L 132.180779 68.698195 
L 131.751342 65.610028 
L 131.751342 61.128704 
L 137.892295 57.994098 
L 146.180433 55.788265 
L 148.198788 53.559213 
L 150.30303 49.519055 
L 156.916364 47.313221 
L 160.609524 45.478896 
L 159.06355 41.810248 
L 163.864018 38.943597 
L 172.808336 38.943597 
L 175.753417 42.128356 
L 177.389573 42.83608 
L 183.606965 36.820424 
L 188.515432 36.1127 
L 194.078363 36.820424 
L 196.805289 28.97648 
L 201.059294 24.022411 
L 207.00442 22.07663 
L 207.00442 22.07663 
" clip-path="url(#p2f0ace024b)" style="fill: none; stroke: #000000; stroke-width: 2"/>
   </g>
  </g>
 </g>
 <defs>
  <clipPath id="p2f0ace024b">
   <rect x="0" y="-0" width="357.12" height="264.919559"/>
  </clipPath>
 </defs>
</svg>
