<?xml version="1.0" encoding="utf-8" standalone="no"?>
<!DOCTYPE svg PUBLIC "-//W3C//DTD SVG 1.1//EN"
  "http://www.w3.org/Graphics/SVG/1.1/DTD/svg11.dtd">
<svg xmlns:xlink="http://www.w3.org/1999/xlink" width="347.344052pt" height="266.112pt" viewBox="0 0 347.344052 266.112" xmlns="http://www.w3.org/2000/svg" version="1.1">
 <metadata>
  <rdf:RDF xmlns:dc="http://purl.org/dc/elements/1.1/" xmlns:cc="http://creativecommons.org/ns#" xmlns:rdf="http://www.w3.org/1999/02/22-rdf-syntax-ns#">
   <cc:Work>
    <dc:type rdf:resource="http://purl.org/dc/dcmitype/StillImage"/>
    <dc:date>2024-02-02T21:58:02.077820</dc:date>
    <dc:format>image/svg+xml</dc:format>
    <dc:creator>
     <cc:Agent>
      <dc:title>Matplotlib v3.8.2, https://matplotlib.org/</dc:title>
     </cc:Agent>
    </dc:creator>
   </cc:Work>
  </rdf:RDF>
 </metadata>
 <defs>
  <style type="text/css">*{stroke-linejoin: round; stroke-linecap: butt}</style>
 </defs>
 <g id="figure_1">
  <g id="patch_1">
   <path d="M 0 266.112 
L 347.344052 266.112 
L 347.344052 0 
L 0 0 
L 0 266.112 
z
" style="fill: none"/>
  </g>
  <g id="axes_1">
   <g id="PatchCollection_1">
    <path d="M 109.678105 235.239787 
L 110.326909 235.926215 
L 111.492278 235.108622 
L 112.050167 235.401556 
L 112.455153 236.131706 
L 113.15768 236.599526 
L 116.31492 236.599526 
L 118.02578 236.704458 
L 120.034181 237.124185 
L 121.484693 238.00736 
L 121.484693 239.528869 
L 120.220144 240.34209 
L 118.149755 240.538837 
L 114.199073 240.333345 
L 112.422093 239.939852 
L 110.868268 238.986722 
L 108.314375 236.599526 
L 108.640844 235.528349 
L 109.099553 235.086761 
L 109.678105 235.239787 
" clip-path="url(#p75a2e4e2e3)" style="fill: none; stroke: #000000; stroke-width: 2"/>
    <path d="M 107.611848 182.113749 
L 105.272846 183.521582 
L 102.032956 183.504094 
L 99.503858 182.052539 
L 99.2931 179.175662 
L 101.71062 178.025785 
L 105.03316 178.292487 
L 107.574656 179.730925 
L 107.611848 182.113749 
" clip-path="url(#p75a2e4e2e3)" style="fill: none; stroke: #000000; stroke-width: 2"/>
    <path d="M 198.419681 171.43695 
L 197.336963 171.891654 
L 196.617905 171.231459 
L 195.708753 169.303339 
L 194.840925 168.53384 
L 194.064013 168.323977 
L 191.774601 168.175323 
L 182.724398 166.146644 
L 179.633279 165.906176 
L 176.385124 165.106072 
L 167.434101 159.299852 
L 158.392164 156.829585 
L 155.962246 155.229377 
L 153.916652 152.330639 
L 152.019829 150.975271 
L 151.486735 150.503079 
L 150.742883 149.567438 
L 150.069283 148.461283 
L 149.755212 147.276429 
L 150.102343 146.095948 
L 151.358627 144.67937 
L 153.135608 143.4814 
L 155.205996 142.66818 
L 157.387963 142.362129 
L 159.793085 142.637574 
L 173.897351 148.588075 
L 180.856502 150.874712 
L 188.592566 154.805278 
L 195.816198 157.852669 
L 198.766812 161.503417 
L 199.535459 163.829403 
L 199.899121 166.601348 
L 199.609845 169.316455 
L 198.419681 171.43695 
" clip-path="url(#p75a2e4e2e3)" style="fill: none; stroke: #000000; stroke-width: 2"/>
    <path d="M 202.932385 37.850171 
L 213.296726 40.272344 
L 215.850619 41.855063 
L 217.962333 42.860658 
L 223.987537 44.73194 
L 226.462912 47.805564 
L 229.182105 49.646241 
L 232.008744 50.664953 
L 233.562568 49.654985 
L 235.413934 50.643092 
L 238.488524 51.832318 
L 241.368885 52.566839 
L 242.637566 52.190834 
L 243.282238 53.88723 
L 248.187531 58.460502 
L 248.187531 59.133814 
L 247.704027 58.915206 
L 246.108877 58.460502 
L 247.394088 61.590964 
L 247.8404 62.063157 
L 249.638043 62.465395 
L 250.018234 62.325486 
L 249.638043 61.394217 
L 250.964579 59.859591 
L 249.638043 59.859591 
L 249.662838 59.728427 
L 250.121547 58.923951 
L 250.270317 59.133814 
L 250.270317 58.460502 
L 250.034764 58.128219 
L 249.638043 57.000203 
L 250.270317 57.000203 
L 251.778684 57.822168 
L 253.853206 58.014543 
L 255.704571 57.411185 
L 256.514544 55.828466 
L 257.535274 54.770405 
L 259.539543 54.717939 
L 260.903272 55.872187 
L 260.039577 58.460502 
L 261.762835 59.49233 
L 263.424105 59.667217 
L 267.788038 58.985161 
L 268.358325 59.133814 
L 269.060852 59.606007 
L 270.523762 61.083794 
L 271.5073 61.394217 
L 275.01167 61.394217 
L 275.83404 61.625941 
L 276.60682 62.631537 
L 277.557298 63.094985 
L 278.937557 64.10058 
L 279.86324 64.332305 
L 280.648418 63.965044 
L 281.164982 63.16494 
L 281.813786 62.386696 
L 282.979155 62.063157 
L 284.909038 60.585369 
L 287.789399 60.60723 
L 292.75668 62.063157 
L 295.484138 62.439162 
L 296.21146 62.981309 
L 295.595716 64.332305 
L 294.715491 64.905057 
L 293.508797 65.106176 
L 290.673893 65.066826 
L 291.740081 67.034295 
L 293.500532 67.239787 
L 295.409753 66.706384 
L 296.913987 66.461543 
L 298.748823 68.004913 
L 299.881131 68.713202 
L 300.381165 68.372174 
L 300.926657 66.898759 
L 300.707634 66.12926 
L 298.467812 65.543391 
L 297.748755 64.883196 
L 297.385094 63.938811 
L 297.550394 62.863261 
L 298.327307 62.194321 
L 299.488543 62.27302 
L 302.116821 62.863261 
L 306.381574 62.972565 
L 307.277586 65.928688 
L 307.639718 67.830465 
L 307.372055 72.355863 
L 307.839153 74.796246 
L 310.678478 81.523263 
L 311.890834 89.9244 
L 311.822606 94.721877 
L 310.662733 97.190023 
L 310.101166 97.803589 
L 308.815335 101.079644 
L 307.84965 101.840355 
L 305.110042 103.406198 
L 304.443509 104.083619 
L 304.947345 106.226936 
L 307.185792 109.219284 
L 310.536775 112.651335 
L 318.398715 116.482653 
L 317.936865 122.890394 
L 317.417284 124.736645 
L 316.136701 126.638422 
L 312.693822 129.114898 
L 311.156073 130.50028 
L 308.117312 134.773033 
L 303.713996 139.670457 
L 302.38093 140.497799 
L 297.169377 141.908169 
L 295.416448 143.096433 
L 295.715601 144.959342 
L 297.536758 144.673381 
L 300.061186 143.80717 
L 302.438662 143.887683 
L 303.367609 144.642841 
L 304.805641 147.685685 
L 305.734588 148.782331 
L 308.059581 150.920095 
L 308.815335 151.891806 
L 309.376902 153.87965 
L 309.481868 158.235692 
L 310.300601 162.458471 
L 310.148401 164.476854 
L 309.649813 166.461921 
L 308.957039 168.277632 
L 307.739435 170.279357 
L 306.317149 171.45374 
L 302.632848 173.746978 
L 301.247299 175.307268 
L 299.15848 178.891494 
L 297.83591 180.321298 
L 293.90494 181.673364 
L 286.268677 180.254666 
L 282.495155 181.057022 
L 280.747475 182.381325 
L 281.650181 184.138734 
L 290.83469 193.614306 
L 291.490726 194.633214 
L 291.742644 196.246255 
L 291.20207 196.834834 
L 290.441068 197.273492 
L 290.057943 198.453427 
L 290.666745 200.441271 
L 292.188749 201.285271 
L 296.151209 202.287522 
L 297.00668 203.051009 
L 298.549678 205.347024 
L 299.373659 206.304853 
L 303.204912 208.8785 
L 308.663135 210.949632 
L 310.111663 211.913015 
L 311.266287 213.065186 
L 305.498415 223.057153 
L 304.695427 225.075536 
L 304.412019 227.19109 
L 304.564219 228.207222 
L 305.655864 231.286158 
L 305.897285 232.488304 
L 305.829058 234.276252 
L 306.054734 237.396833 
L 305.687354 239.256966 
L 304.472353 242.506306 
L 302.811083 241.365174 
L 295.715559 232.052487 
L 292.616174 229.232448 
L 289.049816 226.976416 
L 281.061669 224.217587 
L 277.755659 222.47747 
L 274.457914 221.200802 
L 270.503099 221.192057 
L 262.395109 222.564913 
L 251.832407 222.464354 
L 237.029747 222.661101 
L 229.05813 224.1214 
L 227.016668 223.037106 
L 225.793445 222.573658 
L 225.247953 222.993385 
L 225.93395 227.129442 
L 224.975207 228.183131 
L 223.789176 228.209364 
L 221.01626 227.129442 
L 219.462435 226.845252 
L 207.519474 227.951407 
L 205.068894 227.794009 
L 205.271387 228.288062 
L 205.763156 229.993202 
L 204.254789 229.883898 
L 203.651442 229.717757 
L 202.932385 229.193098 
L 200.122276 231.020658 
L 194.518589 230.465395 
L 191.774601 231.527828 
L 189.104998 229.971342 
L 185.517977 228.554764 
L 181.67474 227.527308 
L 170.963267 226.324965 
L 168.277134 226.45613 
L 167.434101 226.324965 
L 164.479355 224.427451 
L 163.590865 224.1214 
L 150.102343 221.926579 
L 144.04408 222.556169 
L 143.105999 222.29384 
L 143.639093 220.894751 
L 144.986293 220.361348 
L 148.655964 220.391953 
L 148.655964 219.723014 
L 141.870378 218.988492 
L 133.646678 219.054074 
L 131.253953 219.723014 
L 127.985136 221.672994 
L 126.745382 221.926579 
L 125.935409 221.498108 
L 125.059317 219.526267 
L 124.315464 218.92291 
L 122.96 219.749247 
L 122.224413 221.84788 
L 121.472296 223.421856 
L 120.096169 222.661101 
L 119.463894 222.661101 
L 118.265466 223.4306 
L 117.257133 222.879708 
L 116.810821 221.489364 
L 117.31912 219.723014 
L 115.876874 220.155857 
L 114.616457 222.967152 
L 113.15768 224.1214 
L 113.227933 222.674217 
L 113.562667 221.384432 
L 114.546204 218.92291 
L 113.74863 219.57436 
L 112.603923 221.09587 
L 111.777421 221.926579 
L 111.694771 221.66425 
L 111.099689 221.428154 
L 110.008706 221.192057 
L 109.645045 221.375688 
L 109.694635 222.661101 
L 105.256316 226.228778 
L 97.991359 229.621569 
L 96.148258 231.462246 
L 94.379543 234.400333 
L 98.652561 238.995466 
L 99.2931 240.670001 
L 99.809664 242.781751 
L 99.565846 243.608088 
L 98.22278 243.936 
L 91.495049 243.909767 
L 90.511511 243.743625 
L 89.52384 243.267061 
L 88.784121 242.519422 
L 88.395664 240.936703 
L 81.899355 231.527828 
L 81.577019 231.282988 
L 80.448843 230.727724 
L 80.089314 230.321114 
L 79.957074 229.652174 
L 79.684328 229.193098 
L 77.791637 227.40926 
L 67.956257 220.116507 
L 66.191674 219.250821 
L 63.09229 218.726163 
L 61.790548 218.184016 
L 60.683035 217.370795 
L 60.211928 216.356455 
L 59.997038 215.210951 
L 59.422618 214.861179 
L 58.558923 214.804341 
L 57.501 214.520151 
L 54.880987 213.492695 
L 54.029689 212.989897 
L 53.343692 213.785629 
L 51.426206 213.094829 
L 49.39301 213.960515 
L 47.248236 215.298394 
L 45.016679 215.989195 
L 43.144651 215.595701 
L 40.826311 214.651316 
L 38.855103 213.545161 
L 38.024468 212.653241 
L 37.15664 211.450899 
L 33.338199 209.505291 
L 32.474503 207.524705 
L 32.247215 205.426072 
L 31.581881 203.939539 
L 28.945338 200.586098 
L 32.474503 195.387607 
L 32.168698 194.959136 
L 31.722386 193.918563 
L 33.582017 192.589429 
L 34.776313 187.613918 
L 36.288813 186.512135 
L 36.565691 185.9525 
L 36.392125 184.693319 
L 35.991272 183.346696 
L 35.59455 182.511615 
L 35.334202 181.370483 
L 36.11938 180.373632 
L 39.561763 178.353697 
L 44.074466 176.517392 
L 45.996085 176.176364 
L 48.339219 176.753489 
L 49.37648 176.718511 
L 49.806261 175.844081 
L 50.310428 175.100815 
L 51.438604 174.772903 
L 52.6329 174.698576 
L 58.335767 175.022116 
L 62.377365 175.896547 
L 75.667526 181.85142 
L 81.515031 182.113749 
L 81.725789 182.275519 
L 82.527497 183.246137 
L 82.758917 184.081218 
L 83.325071 184.020008 
L 84.031731 183.652747 
L 84.668138 183.582792 
L 87.618752 185.134907 
L 88.928759 185.6071 
L 93.495185 185.777614 
L 94.577903 185.987477 
L 95.768067 186.512135 
L 97.954166 188.400906 
L 98.598838 188.781283 
L 99.644364 188.859982 
L 100.14853 188.558303 
L 100.487396 188.177926 
L 101.028756 187.981179 
L 102.041221 188.147321 
L 103.297505 188.768167 
L 104.206658 188.781283 
L 104.826535 188.492721 
L 106.669635 187.054282 
L 107.958979 185.449702 
L 108.640844 185.104302 
L 111.083159 185.108674 
L 115.686778 183.766423 
L 117.009182 183.582792 
L 120.629263 184.4922 
L 120.687118 186.337249 
L 118.629127 187.731966 
L 115.934729 187.312239 
L 115.934729 187.981179 
L 113.744497 187.237913 
L 111.789819 186.971211 
L 109.826875 187.194191 
L 107.611848 187.981179 
L 108.281315 188.440255 
L 109.96738 189.345291 
L 111.641048 189.756273 
L 111.752626 190.385863 
L 111.711301 191.207828 
L 112.157612 192.047282 
L 113.94699 192.851758 
L 117.174483 192.379565 
L 118.769632 193.184042 
L 122.331858 191.024198 
L 126.695792 190.473306 
L 142.758868 191.714998 
L 144.812727 192.178446 
L 148.858457 194.250847 
L 151.114809 194.714295 
L 159.251726 194.416989 
L 163.227203 194.766761 
L 166.810092 196.113384 
L 168.694518 197.215167 
L 170.231812 197.805408 
L 171.942673 197.923456 
L 181.649945 196.178967 
L 190.443932 198.31695 
L 189.919102 200.074556 
L 191.857251 199.694178 
L 194.576444 198.727932 
L 196.369955 198.719188 
L 197.853527 199.357522 
L 205.068894 200.586098 
L 208.982383 199.689806 
L 211.738769 197.333215 
L 213.767833 194.023495 
L 215.470428 190.250327 
L 217.937538 187.181075 
L 221.160898 186.459669 
L 238.100067 187.981179 
L 238.715812 187.753827 
L 239.141461 186.739487 
L 239.488592 186.512135 
L 240.124999 186.6433 
L 240.943236 187.312239 
L 243.05495 189.699435 
L 244.026091 190.250327 
L 245.811336 189.765018 
L 246.637839 187.96369 
L 246.869259 185.462819 
L 246.699826 178.922077 
L 246.869259 177.71099 
L 247.580051 176.255063 
L 248.365229 175.389377 
L 248.733022 174.5849 
L 248.187531 173.303859 
L 247.274245 172.643664 
L 242.637566 170.370144 
L 241.389547 170.151537 
L 238.918305 170.072838 
L 237.724009 169.705577 
L 235.666017 167.926111 
L 233.835314 165.696312 
L 231.872371 164.14857 
L 229.405261 164.437132 
L 225.93395 162.307893 
L 225.066123 161.341647 
L 224.210692 159.299852 
L 219.003726 151.163274 
L 217.565612 149.689858 
L 215.532416 148.019696 
L 213.395907 146.655584 
L 211.660251 146.095948 
L 209.767561 145.12533 
L 199.122208 133.587217 
L 198.634572 130.83276 
L 202.932385 129.088271 
L 206.829344 128.825941 
L 208.982383 128.104536 
L 209.924596 126.526189 
L 209.321249 124.506254 
L 207.84181 123.456937 
L 205.998709 122.748648 
L 204.312644 121.751797 
L 203.238191 120.387685 
L 200.800008 116.063625 
L 200.155336 114.354113 
L 200.928116 113.663313 
L 200.816538 113.45345 
L 200.907454 112.88507 
L 201.899257 111.949429 
L 203.015035 109.47479 
L 203.684502 108.482311 
L 204.796148 107.93142 
L 206.407828 107.612252 
L 208.044303 107.542298 
L 209.234467 107.747789 
L 207.77569 104.849051 
L 206.726031 104.258811 
L 204.692835 104.07518 
L 203.486141 103.152656 
L 203.08942 101.054022 
L 203.246456 98.824224 
L 203.684502 97.4776 
L 204.325042 98.14654 
L 205.172207 98.728036 
L 206.14748 99.038459 
L 207.15168 98.881062 
L 208.271591 98.067841 
L 208.329446 97.280854 
L 207.969918 96.393307 
L 207.800485 93.92304 
L 207.544269 93.455219 
L 207.77569 93.542662 
L 209.234467 93.804992 
L 209.742766 94.128531 
L 210.453558 94.73626 
L 211.428831 95.247802 
L 212.701645 95.274035 
L 210.742834 91.36533 
L 209.717971 90.788206 
L 204.46968 90.455922 
L 203.13901 89.485304 
L 202.246388 88.051238 
L 200.907454 86.407308 
L 198.998233 85.030079 
L 192.526718 82.070131 
L 187.137921 78.729806 
L 185.212171 78.266358 
L 183.546768 77.488115 
L 179.96388 74.431979 
L 179.286147 74.270209 
L 178.269549 74.724913 
L 171.979865 72.398928 
L 170.938472 72.28088 
L 168.938336 71.782454 
L 167.781232 71.664406 
L 167.268801 71.909247 
L 166.797694 72.433905 
L 166.128227 72.962936 
L 165.045509 73.199032 
L 163.537142 72.827399 
L 161.293187 71.891758 
L 159.102956 70.676299 
L 157.730962 69.469585 
L 155.681235 71.467659 
L 151.317302 72.040411 
L 141.638957 71.55073 
L 139.721471 71.047932 
L 138.597428 70.938629 
L 137.878371 70.470808 
L 136.08486 68.455245 
L 135.09719 68.000541 
L 133.688003 67.047412 
L 133.125981 64.905057 
L 132.935886 62.653398 
L 132.642477 61.394217 
L 136.266691 55.574881 
L 136.803918 54.359422 
L 137.799853 54.333189 
L 143.105999 51.858551 
L 143.105999 51.058446 
L 137.49818 51.058446 
L 139.138787 49.821127 
L 141.072803 49.615636 
L 143.143192 49.78615 
L 145.188786 49.654985 
L 157.561529 43.971185 
L 161.18161 41.339149 
L 163.214806 38.51911 
L 164.429765 39.992526 
L 165.591001 40.38602 
L 168.475494 40.053736 
L 169.959066 40.272344 
L 172.636935 41.242962 
L 174.054386 41.457197 
L 175.938812 41.330405 
L 177.967876 40.788258 
L 179.467978 40.591511 
L 181.021803 40.722675 
L 182.43099 41.247334 
L 183.509575 42.257301 
L 184.236898 40.591511 
L 186.150251 39.55531 
L 188.480988 39.327958 
L 190.443932 40.053736 
L 193.15486 38.938837 
L 196.390617 38.095011 
L 199.775145 37.66654 
L 202.932385 37.850171 
L 202.932385 37.850171 
" clip-path="url(#p75a2e4e2e3)" style="fill: none; stroke: #000000; stroke-width: 2"/>
    <path d="M 204.312644 24.585057 
L 213.924868 28.353853 
L 218.011923 30.937796 
L 216.858952 33.451784 
L 215.21008 32.747867 
L 206.606189 31.563014 
L 202.614181 29.997783 
L 197.679961 28.887256 
L 195.998029 28.117757 
L 194.83266 28.340737 
L 193.625966 28.791068 
L 192.526718 28.983443 
L 190.402606 28.554972 
L 187.914834 27.724263 
L 185.658482 26.583131 
L 184.212103 25.245252 
L 184.658414 25.249624 
L 184.939425 25.109715 
L 185.530374 24.585057 
L 190.229041 23.011081 
L 195.361622 22.311537 
L 198.295706 22.176 
L 200.254517 22.451446 
L 202.006702 23.225317 
L 204.312644 24.585057 
" clip-path="url(#p75a2e4e2e3)" style="fill: none; stroke: #000000; stroke-width: 2"/>
   </g>
  </g>
 </g>
 <defs>
  <clipPath id="p75a2e4e2e3">
   <rect x="0" y="-0" width="347.344052" height="266.112"/>
  </clipPath>
 </defs>
</svg>
