<?xml version="1.0" encoding="utf-8" standalone="no"?>
<!DOCTYPE svg PUBLIC "-//W3C//DTD SVG 1.1//EN"
  "http://www.w3.org/Graphics/SVG/1.1/DTD/svg11.dtd">
<svg xmlns:xlink="http://www.w3.org/1999/xlink" width="357.12pt" height="218.927813pt" viewBox="0 0 357.12 218.927813" xmlns="http://www.w3.org/2000/svg" version="1.1">
 <metadata>
  <rdf:RDF xmlns:dc="http://purl.org/dc/elements/1.1/" xmlns:cc="http://creativecommons.org/ns#" xmlns:rdf="http://www.w3.org/1999/02/22-rdf-syntax-ns#">
   <cc:Work>
    <dc:type rdf:resource="http://purl.org/dc/dcmitype/StillImage"/>
    <dc:date>2024-02-02T21:58:02.101827</dc:date>
    <dc:format>image/svg+xml</dc:format>
    <dc:creator>
     <cc:Agent>
      <dc:title>Matplotlib v3.8.2, https://matplotlib.org/</dc:title>
     </cc:Agent>
    </dc:creator>
   </cc:Work>
  </rdf:RDF>
 </metadata>
 <defs>
  <style type="text/css">*{stroke-linejoin: round; stroke-linecap: butt}</style>
 </defs>
 <g id="figure_1">
  <g id="patch_1">
   <path d="M 0 218.927813 
L 357.12 218.927813 
L 357.12 0 
L 0 0 
L 0 218.927813 
z
" style="fill: none"/>
  </g>
  <g id="axes_1">
   <g id="PatchCollection_1">
    <path d="M 244.176186 21.62287 
L 245.273455 21.539523 
L 246.565692 21.766227 
L 247.789917 22.307983 
L 248.674079 23.161455 
L 249.78495 23.413163 
L 253.181041 21.826237 
L 254.636508 21.502851 
L 255.429987 21.842906 
L 255.974087 22.291313 
L 256.472845 22.504681 
L 257.121231 22.147956 
L 257.633592 21.424505 
L 257.882971 20.737726 
L 258.250238 20.135961 
L 259.107196 19.64088 
L 259.841731 19.494189 
L 261.338006 19.462517 
L 263.614157 18.757402 
L 264.253474 18.947433 
L 265.727079 19.807573 
L 266.520558 20.112623 
L 266.896893 20.447678 
L 267.18708 21.001102 
L 267.586087 22.251307 
L 267.880807 22.704714 
L 268.579069 23.018099 
L 270.197766 22.996428 
L 270.945904 23.161455 
L 271.326774 23.894909 
L 271.898079 26.558678 
L 272.256278 27.248791 
L 274.713796 30.946062 
L 275.75212 32.132923 
L 276.912867 32.974727 
L 278.286719 33.434803 
L 279.619764 33.321451 
L 281.891381 32.182931 
L 283.782128 31.906219 
L 285.759025 30.90939 
L 288.048779 30.792704 
L 288.85586 30.519326 
L 289.64934 30.469318 
L 292.274622 30.722692 
L 293.090772 30.489321 
L 293.857046 29.894223 
L 294.686798 28.852386 
L 295.847545 29.012413 
L 296.282825 28.547337 
L 297.720155 27.990579 
L 299.21643 28.175609 
L 300.785252 28.939067 
L 300.132332 30.889386 
L 300.123263 31.917888 
L 301.637675 31.899551 
L 301.964135 32.442974 
L 301.905191 34.710011 
L 302.376744 36.020226 
L 304.811591 39.567473 
L 305.128983 39.652486 
L 305.469045 39.557471 
L 305.990475 39.20408 
L 306.353208 39.20408 
L 307.214699 39.550803 
L 307.908427 39.69416 
L 308.588552 39.63415 
L 309.622342 39.194078 
L 309.980541 39.317432 
L 313.240606 43.538122 
L 313.816445 44.870007 
L 314.437626 46.915341 
L 315.42154 48.707301 
L 315.534894 48.720637 
L 316.110734 48.402251 
L 319.271047 48.402251 
L 320.078129 48.140542 
L 320.821732 47.668798 
L 321.574404 47.465431 
L 322.290802 47.918839 
L 322.444964 48.223889 
L 324.018319 49.099032 
L 325.315091 50.294227 
L 325.899998 51.029347 
L 326.357949 51.916159 
L 326.657204 53.136359 
L 326.498508 53.804801 
L 326.208322 54.399899 
L 326.126707 55.410064 
L 325.378569 56.326881 
L 325.745837 57.110342 
L 327.36 58.403887 
L 326.639068 59.237357 
L 325.537265 61.261021 
L 324.820867 61.914461 
L 323.06161 62.561234 
L 322.358815 63.04798 
L 321.887261 63.919789 
L 321.905398 64.471546 
L 322.127572 64.888281 
L 322.213721 65.360025 
L 321.84192 66.085144 
L 321.578938 66.258505 
L 320.631297 66.355188 
L 319.738067 66.761921 
L 319.203035 67.180323 
L 318.119369 68.593887 
L 316.8362 69.705736 
L 315.235639 70.390848 
L 313.557998 70.630887 
L 312.043586 70.38418 
L 308.792589 68.683902 
L 307.445942 68.99562 
L 306.729544 71.542703 
L 306.226251 72.019448 
L 305.645878 72.256153 
L 305.015629 72.311162 
L 302.988857 72.007779 
L 302.431154 72.061121 
L 301.651277 72.341167 
L 300.839662 72.789574 
L 300.340903 73.299657 
L 299.044132 75.079948 
L 298.300529 75.616703 
L 297.978603 76.016768 
L 297.815373 76.496847 
L 297.52972 78.237132 
L 296.44152 79.780717 
L 296.27829 80.684198 
L 296.20121 81.174279 
L 295.969967 81.661025 
L 295.375991 82.106098 
L 293.226797 82.647853 
L 290.501763 84.688187 
L 289.204991 86.101751 
L 288.370705 87.680343 
L 288.484059 89.689005 
L 288.869463 91.922704 
L 288.928407 94.074722 
L 288.048779 95.863348 
L 286.094553 96.440109 
L 285.305608 96.923522 
L 284.507595 97.822002 
L 282.811817 100.294073 
L 282.544301 101.04753 
L 281.809766 103.94467 
L 281.301939 104.901493 
L 281.120573 105.61661 
L 281.10697 106.365066 
L 281.224859 107.543592 
L 280.957343 108.338722 
L 280.590075 108.85714 
L 279.619764 109.785626 
L 279.202621 110.402393 
L 279.007651 110.987489 
L 278.790011 112.126008 
L 278.495291 112.694435 
L 277.606594 113.572912 
L 275.443797 115.019815 
L 274.464417 115.951634 
L 272.750502 118.018639 
L 272.918266 118.57373 
L 274.020069 119.090481 
L 274.441746 119.910615 
L 274.273982 119.973959 
L 273.439695 123.161147 
L 273.067894 123.631224 
L 270.814413 125.534869 
L 270.787208 127.081788 
L 270.936835 127.770234 
L 270.950438 128.468682 
L 270.583171 129.29215 
L 270.129754 129.690548 
L 268.529193 130.12562 
L 267.613292 130.992428 
L 267.051055 132.0426 
L 265.627327 136.061591 
L 265.967389 136.518332 
L 267.150807 137.336799 
L 267.001179 138.610341 
L 266.203166 139.813871 
L 265.323538 140.317287 
L 264.126518 140.530655 
L 263.569246 141.5313 
L 263.274095 142.370956 
L 262.362727 143.587822 
L 261.415086 144.097905 
L 259.800923 143.971218 
L 258.862351 144.214591 
L 258.191294 145.034725 
L 257.941915 146.253258 
L 257.769617 148.725329 
L 257.225517 149.907189 
L 256.468311 150.879015 
L 255.851664 151.902515 
L 255.742844 153.231066 
L 257.026014 155.716472 
L 257.302598 157.133371 
L 256.286944 157.921833 
L 254.427936 158.003513 
L 253.570979 158.313564 
L 252.83191 159.193708 
L 252.387561 160.593937 
L 252.206195 163.464407 
L 251.829859 164.711277 
L 251.326567 165.691437 
L 250.904889 166.028159 
L 249.62172 166.018158 
L 249.340602 166.168182 
L 247.245817 168.765274 
L 246.456872 169.07199 
L 244.951529 167.76511 
L 244.575193 167.76511 
L 244.176186 167.941806 
L 243.310161 167.975144 
L 241.673327 167.251693 
L 240.888916 167.081665 
L 240.589661 167.178347 
L 239.945809 167.545074 
L 239.510529 167.585081 
L 239.15233 167.408385 
L 237.95531 166.508238 
L 237.075682 166.468231 
L 236.155246 166.731608 
L 235.271084 167.218354 
L 233.552635 168.675259 
L 233.3622 169.035318 
L 233.384871 169.642084 
L 233.792946 171.075652 
L 233.788412 171.592403 
L 233.434747 171.952462 
L 232.278534 171.862447 
L 232.060894 172.342525 
L 232.011018 173.26601 
L 231.775242 173.902781 
L 231.104185 174.662905 
L 230.247228 175.109645 
L 227.445113 175.633064 
L 226.914616 175.426363 
L 226.479336 175.12298 
L 225.200701 173.922784 
L 223.464115 173.179329 
L 221.67312 172.762594 
L 220.603056 174.519548 
L 213.543359 174.719581 
L 211.770501 177.023291 
L 209.385529 174.939617 
L 208.596584 174.609563 
L 207.172856 175.192992 
L 206.837328 175.006295 
L 206.152669 174.176159 
L 205.43627 173.999463 
L 205.005525 174.052805 
L 203.899188 174.622899 
L 202.652292 174.772923 
L 200.815955 173.71275 
L 198.009306 173.446039 
L 196.245515 173.842771 
L 191.924455 175.669736 
L 191.158181 175.50971 
L 187.521779 173.132655 
L 186.610412 172.829272 
L 185.667306 172.779264 
L 183.119104 173.289347 
L 182.185066 173.259342 
L 181.37345 173.406033 
L 180.289784 173.906115 
L 179.269597 174.602895 
L 178.634814 175.336349 
L 178.711895 175.866435 
L 179.038355 176.456532 
L 179.151709 176.989952 
L 177.995496 177.630057 
L 177.152141 178.993613 
L 176.413072 179.610381 
L 176.036737 179.770407 
L 175.551581 179.847086 
L 175.002947 180.110463 
L 173.869405 181.824076 
L 173.13487 182.084119 
L 171.511639 182.094121 
L 170.713625 182.277484 
L 169.833997 182.954261 
L 168.804741 185.194628 
L 167.585051 185.434667 
L 163.740078 185.0246 
L 162.765232 184.43117 
L 162.116846 183.160962 
L 161.128398 182.7809 
L 160.117279 183.220972 
L 159.428086 184.441171 
L 159.37821 186.354818 
L 158.602867 186.574854 
L 157.491997 186.411494 
L 156.313113 187.404989 
L 156.317648 187.881734 
L 156.752928 188.705202 
L 156.698518 188.911903 
L 156.449138 189.03859 
L 155.610318 188.645192 
L 152.268637 188.485166 
L 151.833357 189.001917 
L 151.343667 189.281963 
L 150.464039 189.548673 
L 149.715902 190.07876 
L 149.253417 190.09543 
L 148.686646 189.568677 
L 148.246832 190.252122 
L 147.856893 191.292292 
L 147.398943 191.555668 
L 146.863911 191.482323 
L 145.13186 190.548837 
L 142.959994 189.778711 
L 142.13931 189.958741 
L 141.146327 190.968906 
L 140.983097 191.295626 
L 140.67024 192.485821 
L 140.021854 193.242611 
L 139.060611 195.162925 
L 138.534648 195.823033 
L 136.639366 197.489973 
L 135.496756 197.930044 
L 134.512842 197.4533 
L 133.796444 197.950048 
L 132.272964 199.890365 
L 131.438678 200.563809 
L 130.817497 200.683828 
L 130.214453 200.563809 
L 129.484452 199.596984 
L 128.781656 199.583648 
L 128.069792 199.997049 
L 127.312586 200.300432 
L 126.559915 200.007051 
L 125.802709 199.16358 
L 124.805192 199.150244 
L 123.458545 198.110074 
L 122.642395 197.843364 
L 119.033199 197.843364 
L 118.647795 197.970051 
L 117.890589 198.53681 
L 117.414501 198.723508 
L 116.906675 198.723508 
L 112.295428 197.406626 
L 108.541138 197.406626 
L 108.133063 197.639997 
L 107.675112 198.610156 
L 107.149149 198.723508 
L 107.144615 198.456797 
L 106.278589 196.923213 
L 105.004488 195.969724 
L 99.658706 194.279447 
L 98.665724 194.21277 
L 98.307525 193.969397 
L 97.835972 190.975574 
L 97.514046 190.36214 
L 95.437398 188.111772 
L 93.823235 187.364983 
L 91.964226 186.968251 
L 88.223539 186.788222 
L 87.851738 187.028261 
L 87.561551 187.441662 
L 87.325774 187.631693 
L 87.040122 186.581521 
L 86.577637 186.378155 
L 85.530245 186.788222 
L 84.65515 186.854899 
L 84.514591 186.664868 
L 84.582604 186.091441 
L 84.32869 184.987927 
L 83.857137 185.801394 
L 83.394652 185.688042 
L 82.877757 185.221299 
L 82.233906 184.987927 
L 82.233906 184.547855 
L 82.533161 184.471176 
L 83.403721 184.14779 
L 83.009248 183.584364 
L 82.29285 183.484348 
L 81.608191 183.220972 
L 80.411171 178.820252 
L 78.656449 176.476535 
L 78.162224 176.17982 
L 74.602904 176.053133 
L 73.94545 175.726412 
L 71.827994 174.096146 
L 71.315633 173.53272 
L 71.097993 172.83594 
L 70.73526 172.352527 
L 68.400165 170.41221 
L 67.983021 169.838783 
L 66.90389 167.771778 
L 64.645875 165.148015 
L 63.879601 162.887645 
L 64.024694 161.87748 
L 63.603017 160.827308 
L 62.945563 159.928828 
L 62.383326 159.360402 
L 62.152084 159.357068 
L 61.938978 159.867151 
L 60.882517 158.92033 
L 59.6991 158.650286 
L 59.386242 158.441918 
L 59.059782 159.360402 
L 58.760527 159.360402 
L 58.225496 158.215215 
L 56.887917 157.37341 
L 56.062698 156.279898 
L 55.355368 155.049697 
L 54.557355 154.049533 
L 53.609714 153.386091 
L 52.444434 153.154387 
L 52.049961 152.897678 
L 51.705365 152.837668 
L 51.433315 153.057704 
L 51.24288 153.632798 
L 50.975364 153.632798 
L 50.390456 153.034367 
L 48.241262 151.629137 
L 47.606478 148.848682 
L 46.12834 147.565139 
L 44.509643 145.00472 
L 42.945355 144.061233 
L 42.147342 143.411126 
L 41.798211 142.514313 
L 42.201752 141.877542 
L 43.036039 141.472476 
L 43.643617 140.877378 
L 43.403306 139.658846 
L 42.745852 139.213773 
L 41.664227 139.048685 
L 41.322124 138.900388 
L 41.308521 137.815211 
L 40.700943 137.921895 
L 40.292868 137.433482 
L 39.916532 136.690027 
L 39.417774 136.041587 
L 38.773445 133.707048 
L 38.891811 133.222793 
L 39.753302 131.529182 
L 40.102433 130.165626 
L 39.907464 129.840573 
L 39.263612 129.8039 
L 38.878208 129.5972 
L 38.016717 128.51869 
L 37.567834 128.258647 
L 31.348578 128.726623 
L 29.76 128.335327 
L 30.462796 128.003606 
L 31.025032 127.458517 
L 33.124351 124.738072 
L 34.239756 123.914604 
L 35.459447 123.2845 
L 35.754168 122.814424 
L 35.853919 121.670903 
L 36.298268 121.287507 
L 36.733548 121.190825 
L 37.087213 120.895776 
L 37.277648 119.917283 
L 37.694791 119.203833 
L 38.293301 119.122153 
L 39.930135 119.453874 
L 41.716596 119.235505 
L 42.6461 119.350524 
L 43.865791 120.16399 
L 44.078897 120.110648 
L 44.269332 119.927285 
L 44.999333 119.790596 
L 46.141943 119.77726 
L 46.971695 119.57556 
L 46.776726 118.877113 
L 46.146477 118.293684 
L 45.520762 118.08365 
L 44.264798 117.928624 
L 44.813432 117.431876 
L 47.27095 116.311693 
L 47.447782 115.958302 
L 47.293621 115.623247 
L 46.776726 115.359871 
L 45.892563 115.063156 
L 45.566103 114.21135 
L 45.851756 113.269529 
L 46.776726 112.692768 
L 47.778777 111.364217 
L 47.987348 110.609094 
L 47.452317 109.825632 
L 46.731384 109.755621 
L 45.248712 110.469071 
L 44.65927 110.079007 
L 44.672873 109.722282 
L 45.031072 108.622102 
L 45.017469 108.055343 
L 44.722749 107.638608 
L 44.00635 107.633607 
L 43.743369 107.406903 
L 43.589207 106.341729 
L 44.264798 104.928164 
L 44.119704 103.796313 
L 45.484488 103.057858 
L 46.105669 102.487765 
L 46.395856 101.624291 
L 46.219023 100.564117 
L 44.76809 97.640306 
L 44.373618 97.458609 
L 44.251195 97.211902 
L 44.2784 96.830173 
L 44.781693 96.353428 
L 44.672873 93.87969 
L 45.117221 93.06289 
L 45.665855 92.912866 
L 46.250763 93.319599 
L 46.776726 94.173072 
L 51.492259 92.02272 
L 53.750273 90.262432 
L 53.573441 87.663674 
L 54.072199 87.125252 
L 55.350834 86.588498 
L 55.817853 85.76503 
L 55.867729 84.771534 
L 55.527667 83.963068 
L 54.920088 83.347968 
L 54.176485 82.931233 
L 54.42133 81.681028 
L 54.049528 80.377482 
L 53.283254 79.353981 
L 52.326545 78.917243 
L 50.880146 79.16395 
L 47.991882 77.990425 
L 46.776726 78.260469 
L 44.319208 77.271974 
L 43.525729 76.816899 
L 43.911133 76.333487 
L 44.899581 74.936592 
L 45.371134 75.456677 
L 45.575172 75.49835 
L 45.865358 75.319988 
L 46.386788 74.853245 
L 48.136976 73.934761 
L 48.508777 73.578036 
L 48.749088 73.022945 
L 48.672007 72.172806 
L 48.934989 71.549371 
L 50.544618 70.825919 
L 52.385489 71.055957 
L 55.899468 72.414512 
L 56.452637 72.799575 
L 57.187171 74.726557 
L 57.676861 75.23164 
L 58.148415 75.518353 
L 60.619535 75.905083 
L 61.004939 75.813402 
L 61.490095 75.338324 
L 62.351587 73.976435 
L 62.93196 73.488021 
L 63.571278 75.178298 
L 65.235317 75.481681 
L 68.713022 74.616539 
L 71.909609 74.19147 
L 72.811908 73.774735 
L 72.31315 73.464684 
L 71.941348 72.972937 
L 71.723708 72.322831 
L 71.642093 70.215819 
L 71.347373 68.908939 
L 71.288428 67.798757 
L 71.945883 67.073639 
L 71.66023 66.665239 
L 71.238553 65.460041 
L 70.893956 65.203333 
L 69.97352 64.781597 
L 69.696936 64.49155 
L 69.683334 63.788101 
L 70.231968 63.503055 
L 71.750913 63.168 
L 72.471846 62.604574 
L 72.907126 61.952801 
L 73.161039 61.107663 
L 73.251722 59.830787 
L 72.80284 59.627421 
L 72.757498 59.347375 
L 72.875387 59.164012 
L 73.369611 58.780615 
L 73.492033 58.227192 
L 73.705139 57.823792 
L 73.723276 57.423727 
L 73.260791 56.89364 
L 76.01303 54.616601 
L 77.61359 53.659778 
L 79.196014 53.9965 
L 81.467632 54.623269 
L 84.32869 55.050005 
L 85.711611 56.18019 
L 90.644784 62.534563 
L 91.098201 62.72126 
L 92.200003 62.951298 
L 92.608078 63.218008 
L 94.09075 65.420035 
L 94.625782 65.965124 
L 95.079199 65.948455 
L 95.519013 65.735086 
L 96.013237 65.661741 
L 96.666157 65.985127 
L 97.577524 66.6319 
L 98.38914 67.398692 
L 98.733737 68.062134 
L 99.191687 68.568883 
L 102.05728 70.104134 
L 105.729955 71.095963 
L 118.3168 70.290832 
L 123.726061 70.845922 
L 125.353826 70.692564 
L 128.636563 69.369014 
L 137.618746 68.332178 
L 139.586574 68.473868 
L 141.182601 69.172315 
L 142.492975 69.42569 
L 143.77161 69.292335 
L 144.841673 68.637228 
L 146.292606 66.991959 
L 147.054346 66.431867 
L 149.194472 65.770092 
L 147.507763 64.55156 
L 146.224594 63.308023 
L 145.938941 62.099492 
L 146.047761 60.740936 
L 146.487575 58.077167 
L 146.342482 57.332045 
L 146.038693 57.07367 
L 145.979749 56.835297 
L 146.551054 56.140183 
L 146.95006 55.910146 
L 147.802483 55.766789 
L 148.219627 55.410064 
L 149.393976 53.003004 
L 150.16025 52.386236 
L 156.449138 50.992675 
L 157.09299 50.69596 
L 158.94293 50.78264 
L 161.568212 50.404245 
L 167.009212 51.059352 
L 167.489833 50.96267 
L 170.110581 49.305732 
L 176.032202 49.429086 
L 178.3809 47.785484 
L 178.471584 47.11204 
L 178.3809 46.265235 
L 178.90233 45.245068 
L 179.314939 42.747993 
L 179.79556 41.809506 
L 180.552766 41.377769 
L 184.588174 40.322596 
L 185.055193 40.337599 
L 185.495007 40.464286 
L 185.993765 40.881021 
L 186.94594 42.039544 
L 187.385755 42.26458 
L 189.407993 41.87785 
L 190.437248 42.044544 
L 191.217125 42.974697 
L 191.239796 43.608134 
L 190.990417 44.164891 
L 190.881597 44.70998 
L 191.294206 45.321747 
L 191.711349 45.375089 
L 193.293773 44.779992 
L 194.372905 45.118381 
L 196.041478 46.60529 
L 196.952845 46.94868 
L 197.986635 46.575286 
L 199.9726 44.749987 
L 200.983719 44.134886 
L 202.797914 43.533654 
L 204.54304 42.481282 
L 205.372792 42.166231 
L 205.735525 41.884518 
L 206.057451 41.307757 
L 206.47006 39.69416 
L 207.018694 39.054055 
L 207.39503 38.98071 
L 207.843913 39.14407 
L 208.614721 39.224083 
L 209.349256 38.904031 
L 210.673232 37.703834 
L 211.167456 37.490466 
L 212.04255 37.92387 
L 212.536775 38.458958 
L 213.067272 38.680661 
L 214.069323 38.167243 
L 215.343423 36.907037 
L 216.440692 35.260101 
L 217.356593 33.39813 
L 219.06144 28.277292 
L 219.569266 27.275462 
L 220.22672 26.42699 
L 221.659517 24.943414 
L 222.285232 23.854902 
L 222.271629 23.16979 
L 222.199083 21.514519 
L 222.248959 21.027773 
L 223.513991 20.531025 
L 226.234491 20.350996 
L 235.515929 18.255653 
L 236.227793 18.243984 
L 236.907918 18.594042 
L 238.209224 19.754231 
L 238.844007 19.915925 
L 240.222393 20.059281 
L 242.611899 21.486181 
L 244.176186 21.62287 
L 244.176186 21.62287 
" clip-path="url(#pcdaebd8e8f)" style="fill: none; stroke: #000000; stroke-width: 2"/>
   </g>
  </g>
 </g>
 <defs>
  <clipPath id="pcdaebd8e8f">
   <rect x="0" y="0" width="357.12" height="218.927813"/>
  </clipPath>
 </defs>
</svg>
