<?xml version="1.0" encoding="utf-8" standalone="no"?>
<!DOCTYPE svg PUBLIC "-//W3C//DTD SVG 1.1//EN"
  "http://www.w3.org/Graphics/SVG/1.1/DTD/svg11.dtd">
<svg xmlns:xlink="http://www.w3.org/1999/xlink" width="205.421442pt" height="266.112pt" viewBox="0 0 205.421442 266.112" xmlns="http://www.w3.org/2000/svg" version="1.1">
 <metadata>
  <rdf:RDF xmlns:dc="http://purl.org/dc/elements/1.1/" xmlns:cc="http://creativecommons.org/ns#" xmlns:rdf="http://www.w3.org/1999/02/22-rdf-syntax-ns#">
   <cc:Work>
    <dc:type rdf:resource="http://purl.org/dc/dcmitype/StillImage"/>
    <dc:date>2024-02-02T21:58:02.211850</dc:date>
    <dc:format>image/svg+xml</dc:format>
    <dc:creator>
     <cc:Agent>
      <dc:title>Matplotlib v3.8.2, https://matplotlib.org/</dc:title>
     </cc:Agent>
    </dc:creator>
   </cc:Work>
  </rdf:RDF>
 </metadata>
 <defs>
  <style type="text/css">*{stroke-linejoin: round; stroke-linecap: butt}</style>
 </defs>
 <g id="figure_1">
  <g id="patch_1">
   <path d="M 0 266.112 
L 205.421442 266.112 
L 205.421442 0 
L 0 0 
L 0 266.112 
z
" style="fill: none"/>
  </g>
  <g id="axes_1">
   <g id="PatchCollection_1">
    <path d="M 80.841106 243.936 
L 77.753289 236.160194 
L 73.995473 235.562055 
L 69.71331 238.029379 
L 64.994193 239.749028 
L 59.765294 237.755232 
L 53.079877 228.882837 
L 47.778153 226.839196 
L 40.087739 230.42803 
L 33.067323 237.555852 
L 25.682778 242.540343 
L 17.118453 239.749028 
L 17.118453 235.188219 
L 19.026492 234.066708 
L 20.279097 233.019965 
L 21.793876 232.122757 
L 24.444738 231.375083 
L 24.022348 219.511995 
L 36.082315 202.315501 
L 39.315785 191.499156 
L 39.490567 173.106384 
L 40.874259 165.230889 
L 44.209684 156.10927 
L 45.418594 150.252494 
L 44.996204 146.140289 
L 45.709898 143.672965 
L 53.633354 141.753936 
L 62.28507 135.772547 
L 69.771571 126.05279 
L 80.724585 116.233343 
L 85.764136 109.404591 
L 101.436268 71.073856 
L 109.884071 54.575191 
L 122.643167 42.462878 
L 141.738115 31.148083 
L 155.181774 27.908164 
L 161.881756 24.194719 
L 168.304999 22.176 
L 174.203896 25.366074 
L 172.135641 34.188623 
L 164.809356 57.167126 
L 165.508485 65.466303 
L 167.431088 70.027113 
L 169.746952 80.195474 
L 171.727816 84.282756 
L 174.4952 86.027328 
L 181.04953 86.849769 
L 183.729523 88.818643 
L 185.622995 92.257942 
L 187.836903 97.765804 
L 188.302988 102.924752 
L 185.069519 105.167773 
L 183.001263 107.111725 
L 177.961712 117.72869 
L 175.296284 119.872022 
L 173.111508 124.756822 
L 171.174339 130.439142 
L 169.076954 134.850416 
L 166.863047 137.168205 
L 157.075247 142.80068 
L 160.075673 159.548569 
L 152.268738 168.520653 
L 139.990294 175.224793 
L 129.750974 185.019318 
L 130.071407 192.570822 
L 110.495808 205.879412 
L 105.310605 212.384173 
L 103.154959 217.169284 
L 98.129972 219.511995 
L 92.493249 220.982419 
L 88.429564 223.050983 
L 85.560224 227.437335 
L 80.841106 243.936 
" clip-path="url(#p7d494bf3eb)" style="fill: none; stroke: #000000; stroke-width: 2"/>
   </g>
  </g>
 </g>
 <defs>
  <clipPath id="p7d494bf3eb">
   <rect x="0" y="-0" width="205.421442" height="266.112"/>
  </clipPath>
 </defs>
</svg>
