<?xml version="1.0" encoding="utf-8" standalone="no"?>
<!DOCTYPE svg PUBLIC "-//W3C//DTD SVG 1.1//EN"
  "http://www.w3.org/Graphics/SVG/1.1/DTD/svg11.dtd">
<svg xmlns:xlink="http://www.w3.org/1999/xlink" width="252.285342pt" height="266.112pt" viewBox="0 0 252.285342 266.112" xmlns="http://www.w3.org/2000/svg" version="1.1">
 <metadata>
  <rdf:RDF xmlns:dc="http://purl.org/dc/elements/1.1/" xmlns:cc="http://creativecommons.org/ns#" xmlns:rdf="http://www.w3.org/1999/02/22-rdf-syntax-ns#">
   <cc:Work>
    <dc:type rdf:resource="http://purl.org/dc/dcmitype/StillImage"/>
    <dc:date>2024-02-02T21:58:02.240857</dc:date>
    <dc:format>image/svg+xml</dc:format>
    <dc:creator>
     <cc:Agent>
      <dc:title>Matplotlib v3.8.2, https://matplotlib.org/</dc:title>
     </cc:Agent>
    </dc:creator>
   </cc:Work>
  </rdf:RDF>
 </metadata>
 <defs>
  <style type="text/css">*{stroke-linejoin: round; stroke-linecap: butt}</style>
 </defs>
 <g id="figure_1">
  <g id="patch_1">
   <path d="M 0 266.112 
L 252.285342 266.112 
L 252.285342 0 
L 0 0 
L 0 266.112 
z
" style="fill: none"/>
  </g>
  <g id="axes_1">
   <g id="PatchCollection_1">
    <path d="M 206.028177 240.321271 
L 206.097858 240.425473 
L 206.136504 240.58052 
L 206.182177 240.711713 
L 206.210284 240.860483 
L 206.228436 241.165555 
L 206.256543 241.284508 
L 206.371897 241.503897 
L 206.442749 241.70257 
L 206.495448 241.785743 
L 206.556346 241.878018 
L 206.564544 242.289175 
L 206.501304 242.483768 
L 206.303387 242.923801 
L 206.273524 243.19372 
L 206.298117 243.253354 
L 206.344376 243.30671 
L 206.379509 243.367599 
L 206.371897 243.452027 
L 206.33852 243.483727 
L 206.277037 243.508522 
L 206.206185 243.512602 
L 206.146459 243.481216 
L 206.057455 243.4831 
L 205.974892 243.629359 
L 205.876519 243.936 
L 205.721347 243.871031 
L 205.697339 243.754903 
L 205.725446 243.60833 
L 205.728959 243.452027 
L 205.669233 243.387058 
L 205.573787 243.31644 
L 205.51816 243.23515 
L 205.5814 243.136598 
L 205.51289 243.068804 
L 205.455506 242.996302 
L 205.436768 242.914385 
L 205.483027 242.820227 
L 205.419787 242.791979 
L 205.38641 242.736112 
L 205.374699 242.655764 
L 205.380555 242.557212 
L 205.256418 242.562861 
L 205.180296 242.410953 
L 205.117641 242.200667 
L 205.036835 242.03024 
L 204.936705 241.924783 
L 204.797929 241.812107 
L 204.65564 241.768795 
L 204.54497 241.872369 
L 204.548484 241.050682 
L 204.57659 240.959035 
L 204.741131 240.570476 
L 204.805542 240.550075 
L 204.964812 240.551017 
L 205.035078 240.525594 
L 205.087778 240.469413 
L 205.127596 240.413546 
L 205.159801 240.388123 
L 205.197862 240.375883 
L 205.380555 240.28298 
L 205.429741 240.340103 
L 205.61302 240.163713 
L 205.730716 240.107846 
L 205.851925 240.15367 
L 206.028177 240.321271 
" clip-path="url(#p347a201fed)" style="fill: none; stroke: #000000; stroke-width: 2"/>
    <path d="M 204.509252 239.98701 
L 204.393898 240.019338 
L 204.320118 239.968178 
L 204.308992 239.911683 
L 204.316605 239.84389 
L 204.299623 239.756323 
L 204.269175 239.701711 
L 204.147965 239.545409 
L 204.241068 239.455644 
L 204.265661 239.29432 
L 204.311335 239.140529 
L 204.469434 239.071793 
L 204.674963 239.020948 
L 204.752256 238.892579 
L 204.79383 238.720584 
L 204.88869 238.540428 
L 204.88869 238.750714 
L 204.906842 238.897601 
L 204.978865 238.974811 
L 205.066698 239.033189 
L 205.135208 239.124208 
L 205.158045 239.267328 
L 205.115885 239.373099 
L 205.022196 239.460039 
L 204.88869 239.545409 
L 204.761039 239.672208 
L 204.509252 239.98701 
" clip-path="url(#p347a201fed)" style="fill: none; stroke: #000000; stroke-width: 2"/>
    <path d="M 202.990326 234.612466 
L 203.182388 234.947983 
L 203.187072 235.032412 
L 203.164821 235.184006 
L 203.143741 235.268121 
L 203.096897 235.2518 
L 203.017262 235.160153 
L 202.904835 235.094556 
L 202.860333 235.091103 
L 202.76723 235.107738 
L 202.674127 235.140693 
L 202.596834 235.179612 
L 202.520713 235.196247 
L 202.422925 235.160153 
L 202.356172 235.098008 
L 202.322795 235.021426 
L 202.328065 234.934173 
L 202.379009 234.839387 
L 202.325138 234.786659 
L 202.267753 234.83876 
L 202.198073 234.843154 
L 202.130734 234.806118 
L 202.080376 234.73393 
L 202.068665 234.64605 
L 202.128392 234.339094 
L 202.195145 234.243681 
L 202.352073 234.166471 
L 202.538279 234.126297 
L 202.689937 234.139793 
L 202.714531 234.207901 
L 202.724485 234.281344 
L 202.723314 234.44204 
L 202.760789 234.507009 
L 202.925915 234.569468 
L 202.963976 234.604934 
L 202.990326 234.612466 
" clip-path="url(#p347a201fed)" style="fill: none; stroke: #000000; stroke-width: 2"/>
    <path d="M 203.945949 234.265023 
L 203.977569 234.344744 
L 204.005676 234.500418 
L 204.003919 234.839387 
L 203.603401 234.523644 
L 203.548944 234.412851 
L 203.554214 234.294526 
L 203.620967 234.226104 
L 203.754473 234.265023 
L 203.7615 234.135085 
L 203.81947 234.104954 
L 203.893249 234.154858 
L 203.945949 234.265023 
" clip-path="url(#p347a201fed)" style="fill: none; stroke: #000000; stroke-width: 2"/>
    <path d="M 203.652587 233.526824 
L 203.742177 233.817772 
L 203.74042 233.891216 
L 203.701188 233.991965 
L 203.673081 234.009855 
L 203.578807 234.046576 
L 203.557727 234.073568 
L 203.541917 234.116881 
L 203.435347 234.288563 
L 203.359225 234.32246 
L 203.322335 234.237403 
L 203.308282 234.02084 
L 203.333461 233.947397 
L 203.389088 233.91758 
L 203.440031 233.878975 
L 203.455841 233.781678 
L 203.509126 233.781678 
L 203.578222 233.826246 
L 203.593446 233.771635 
L 203.554214 233.682498 
L 203.455841 233.623493 
L 203.415438 233.769124 
L 203.325848 233.772262 
L 203.229232 233.685951 
L 203.164821 233.565742 
L 203.087528 233.069215 
L 203.086943 232.991064 
L 203.146669 232.947752 
L 203.220449 232.846061 
L 203.281932 232.731188 
L 203.308282 232.64676 
L 203.369765 232.562017 
L 203.505028 232.508975 
L 203.64029 232.518077 
L 203.699431 232.615373 
L 203.694747 232.765399 
L 203.626237 232.878388 
L 203.547187 232.975057 
L 203.509126 233.12571 
L 203.533134 233.26632 
L 203.652587 233.526824 
" clip-path="url(#p347a201fed)" style="fill: none; stroke: #000000; stroke-width: 2"/>
    <path d="M 56.375974 232.254434 
L 56.289898 232.312812 
L 56.203822 232.33541 
L 56.141753 232.289587 
L 56.130042 232.143642 
L 56.179228 232.143642 
L 56.179228 232.143955 
L 56.179228 232.145525 
L 56.176886 232.22807 
L 56.179228 232.254434 
L 56.316248 232.196056 
L 56.422819 232.104095 
L 56.49367 231.981376 
L 56.523534 231.828212 
L 56.55691 231.823818 
L 56.565694 231.835117 
L 56.565694 231.855832 
L 56.57272 231.880313 
L 56.57272 231.880627 
L 56.443898 232.173772 
L 56.375974 232.254434 
" clip-path="url(#p347a201fed)" style="fill: none; stroke: #000000; stroke-width: 2"/>
    <path d="M 201.14232 232.617884 
L 201.077909 232.682226 
L 200.978365 232.674693 
L 200.771079 232.617884 
L 200.611809 232.551346 
L 200.460736 232.390336 
L 200.347139 232.191662 
L 200.302637 232.012134 
L 200.314933 231.785841 
L 200.336599 231.667202 
L 200.376416 231.586226 
L 200.476546 231.514665 
L 200.557938 231.520315 
L 200.603611 231.592817 
L 200.598927 231.951559 
L 200.622349 232.134226 
L 200.694957 232.282054 
L 200.841931 232.407284 
L 201.031065 232.495479 
L 201.118898 232.553229 
L 201.14232 232.617884 
" clip-path="url(#p347a201fed)" style="fill: none; stroke: #000000; stroke-width: 2"/>
    <path d="M 204.260977 230.878157 
L 204.201251 230.88004 
L 204.193638 230.786196 
L 204.242239 230.474219 
L 204.246338 230.348675 
L 204.159091 230.081266 
L 204.154992 229.955721 
L 204.246338 229.869724 
L 204.246338 230.032617 
L 204.347639 230.248239 
L 204.383943 230.35809 
L 204.393898 230.50686 
L 204.372232 230.606668 
L 204.323046 230.758576 
L 204.260977 230.878157 
" clip-path="url(#p347a201fed)" style="fill: none; stroke: #000000; stroke-width: 2"/>
    <path d="M 198.664994 225.42782 
L 198.431747 225.696798 
L 197.939929 225.537196 
L 197.860879 225.411652 
L 197.799396 225.195716 
L 197.77656 224.991393 
L 197.815206 224.90006 
L 197.925876 224.866163 
L 198.040059 224.779538 
L 198.106812 224.660899 
L 198.082218 224.531588 
L 198.16888 224.50899 
L 198.238561 224.546967 
L 198.400858 224.68893 
L 198.516713 224.76335 
L 198.678434 224.985579 
L 198.664994 225.42782 
" clip-path="url(#p347a201fed)" style="fill: none; stroke: #000000; stroke-width: 2"/>
    <path d="M 60.55214 218.350424 
L 60.519935 218.391226 
L 60.513494 218.31025 
L 60.513494 218.309936 
L 60.525205 218.232412 
L 60.555068 218.16148 
L 60.601327 218.10373 
L 60.601913 218.104357 
L 60.610696 218.121933 
L 60.618894 218.179684 
L 60.602498 218.239317 
L 60.580247 218.298323 
L 60.55214 218.350424 
" clip-path="url(#p347a201fed)" style="fill: none; stroke: #000000; stroke-width: 2"/>
    <path d="M 60.699114 217.713915 
L 60.714924 217.719565 
L 60.733662 217.717681 
L 60.733076 217.718309 
L 60.719609 217.733688 
L 60.712582 217.753461 
L 60.702042 217.760366 
L 60.67862 217.741535 
L 60.685647 217.716426 
L 60.699114 217.713915 
" clip-path="url(#p347a201fed)" style="fill: none; stroke: #000000; stroke-width: 2"/>
    <path d="M 53.288352 214.553656 
L 53.287766 214.55397 
L 53.321143 214.513482 
L 53.44001 214.405828 
L 53.440595 214.406142 
L 53.454063 214.416499 
L 53.452892 214.42717 
L 53.447037 214.441608 
L 53.448208 214.460439 
L 53.448208 214.460753 
L 53.367401 214.51819 
L 53.328169 214.54016 
L 53.288352 214.553656 
" clip-path="url(#p347a201fed)" style="fill: none; stroke: #000000; stroke-width: 2"/>
    <path d="M 52.721536 212.821775 
L 52.66708 212.871365 
L 52.664737 212.843431 
L 52.676448 212.83276 
L 52.697528 212.829621 
L 52.722122 212.820833 
L 52.721536 212.821775 
" clip-path="url(#p347a201fed)" style="fill: none; stroke: #000000; stroke-width: 2"/>
    <path d="M 60.892933 212.44985 
L 60.834377 212.474332 
L 60.809784 212.471821 
L 60.802757 212.453303 
L 60.799244 212.43353 
L 60.799244 212.432902 
L 60.870096 212.44577 
L 60.892933 212.44985 
" clip-path="url(#p347a201fed)" style="fill: none; stroke: #000000; stroke-width: 2"/>
    <path d="M 50.126949 212.383626 
L 50.015694 212.591088 
L 50.015109 212.431019 
L 50.061367 212.286643 
L 50.105284 212.212572 
L 50.135147 212.161413 
L 50.18082 212.101466 
L 50.21244 212.059722 
L 50.21244 212.060036 
L 50.21244 212.165179 
L 50.126949 212.383626 
" clip-path="url(#p347a201fed)" style="fill: none; stroke: #000000; stroke-width: 2"/>
    <path d="M 196.867145 212.737407 
L 196.888554 212.883907 
L 196.902186 213.153681 
L 196.981856 213.36188 
L 196.966378 213.600523 
L 196.812283 213.777002 
L 196.716936 213.876732 
L 196.643654 213.938069 
L 196.56292 214.045544 
L 196.576769 214.268842 
L 196.678972 214.292328 
L 196.810279 214.354433 
L 196.612138 214.607761 
L 196.531176 214.784555 
L 196.370029 214.91485 
L 196.129208 214.852338 
L 196.012746 214.736406 
L 195.874361 214.628115 
L 195.713538 214.619933 
L 195.603293 214.750577 
L 195.44244 214.750099 
L 195.398882 214.657531 
L 195.575163 214.39622 
L 195.65646 214.157791 
L 195.679112 213.980834 
L 195.620928 213.842023 
L 195.489666 213.718371 
L 195.409165 213.64867 
L 195.402687 213.294246 
L 195.403297 213.047673 
L 195.381782 212.854889 
L 195.389272 212.78555 
L 195.455158 212.801276 
L 195.609039 212.740267 
L 195.667716 212.671061 
L 195.719366 212.486143 
L 195.765184 212.270322 
L 196.15251 212.001853 
L 196.474826 211.925922 
L 196.627999 212.088615 
L 196.744417 212.281952 
L 196.765441 212.544269 
L 196.867145 212.737407 
" clip-path="url(#p347a201fed)" style="fill: none; stroke: #000000; stroke-width: 2"/>
    <path d="M 54.133305 210.274799 
L 54.094073 210.280134 
L 54.094073 210.240588 
L 54.112225 210.225209 
L 54.139161 210.21799 
L 54.169609 210.201041 
L 54.152043 210.229289 
L 54.146187 210.255967 
L 54.133305 210.274799 
" clip-path="url(#p347a201fed)" style="fill: none; stroke: #000000; stroke-width: 2"/>
    <path d="M 54.352888 209.679092 
L 54.352302 209.680347 
L 54.321853 209.568299 
L 54.315998 209.54884 
L 54.315998 209.548526 
L 54.343519 209.400384 
L 54.450675 209.101275 
L 54.451846 209.101275 
L 54.499861 209.101275 
L 54.497519 209.135486 
L 54.485808 209.158084 
L 54.468242 209.178485 
L 54.450675 209.206418 
L 54.442477 209.328196 
L 54.420812 209.450602 
L 54.352888 209.679092 
" clip-path="url(#p347a201fed)" style="fill: none; stroke: #000000; stroke-width: 2"/>
    <path d="M 56.031669 207.381007 
L 56.008832 207.419926 
L 56.000049 207.348993 
L 56.000049 207.289987 
L 56.019372 207.252952 
L 56.063289 207.246047 
L 56.046893 207.33895 
L 56.031669 207.381007 
" clip-path="url(#p347a201fed)" style="fill: none; stroke: #000000; stroke-width: 2"/>
    <path d="M 197.326855 208.349894 
L 197.247805 208.358996 
L 197.137135 208.337025 
L 197.073896 208.295282 
L 197.022952 208.24632 
L 196.949173 208.201124 
L 196.988405 208.024107 
L 197.001873 207.985502 
L 197.054572 207.946897 
L 197.167584 207.937795 
L 197.220284 207.90892 
L 197.263615 207.80158 
L 197.249562 207.671641 
L 197.19452 207.437502 
L 197.251904 207.200851 
L 197.38541 207.200223 
L 197.535897 207.336753 
L 197.641297 207.511573 
L 197.688727 207.614519 
L 197.641297 207.706166 
L 197.569274 207.807543 
L 197.546437 207.937481 
L 197.60792 208.039172 
L 197.69224 208.09755 
L 197.714491 208.154359 
L 197.591525 208.253852 
L 197.522429 208.28618 
L 197.326855 208.349894 
" clip-path="url(#p347a201fed)" style="fill: none; stroke: #000000; stroke-width: 2"/>
    <path d="M 194.644435 207.023206 
L 194.492777 207.03733 
L 194.366297 206.951646 
L 194.335263 206.666347 
L 194.24216 206.559007 
L 194.24216 206.506278 
L 194.324137 206.509103 
L 194.512685 206.539234 
L 194.598176 206.572189 
L 194.679568 206.616443 
L 194.742808 206.77557 
L 194.72934 206.923399 
L 194.644435 207.023206 
" clip-path="url(#p347a201fed)" style="fill: none; stroke: #000000; stroke-width: 2"/>
    <path d="M 53.817692 205.824888 
L 53.816521 205.824888 
L 53.846384 205.779378 
L 53.876247 205.765254 
L 53.926019 205.765254 
L 53.925434 205.765882 
L 53.872148 205.803859 
L 53.847555 205.817983 
L 53.817692 205.824888 
" clip-path="url(#p347a201fed)" style="fill: none; stroke: #000000; stroke-width: 2"/>
    <path d="M 200.351823 204.18434 
L 200.228857 204.207252 
L 200.128727 204.085474 
L 200.064902 203.933566 
L 200.053191 203.867969 
L 199.984681 203.822773 
L 199.88338 203.797978 
L 199.806087 203.757804 
L 199.731722 203.686244 
L 199.690148 203.620333 
L 199.640376 203.571371 
L 199.536733 203.551911 
L 199.492816 203.485687 
L 199.56601 203.339114 
L 199.673752 203.192228 
L 199.735235 203.126003 
L 199.979411 203.119412 
L 200.056704 203.162725 
L 200.007518 203.284189 
L 200.164446 203.644814 
L 200.17967 203.705703 
L 200.224172 203.770358 
L 200.351823 204.18434 
" clip-path="url(#p347a201fed)" style="fill: none; stroke: #000000; stroke-width: 2"/>
    <path d="M 200.617079 202.619119 
L 200.552082 202.704489 
L 200.488843 202.666825 
L 200.408036 202.555091 
L 200.336599 202.425467 
L 200.302637 202.336017 
L 200.30088 202.221772 
L 200.31669 202.077082 
L 200.350652 201.941808 
L 200.40101 201.857066 
L 200.464249 201.826621 
L 200.529246 201.830702 
L 200.582531 201.868051 
L 200.617079 201.936786 
L 200.620592 201.95656 
L 200.621178 201.976961 
L 200.617079 202.017135 
L 200.566136 202.181597 
L 200.557352 202.235581 
L 200.610052 202.484159 
L 200.617079 202.619119 
" clip-path="url(#p347a201fed)" style="fill: none; stroke: #000000; stroke-width: 2"/>
    <path d="M 206.154071 201.332292 
L 206.017051 201.396319 
L 206.003584 201.311577 
L 206.066238 201.237192 
L 206.154071 201.332292 
" clip-path="url(#p347a201fed)" style="fill: none; stroke: #000000; stroke-width: 2"/>
    <path d="M 197.677015 197.206284 
L 197.591525 197.256188 
L 197.50135 196.713524 
L 197.520087 196.629095 
L 197.55522 196.53839 
L 197.606749 196.116561 
L 197.591525 195.987879 
L 197.679943 195.897487 
L 197.732643 195.823416 
L 197.775388 195.780103 
L 197.837457 195.781672 
L 197.877275 195.802387 
L 197.910066 195.831576 
L 197.936416 195.866415 
L 197.953397 195.90502 
L 197.985017 195.987879 
L 197.946956 196.11154 
L 197.931146 196.50104 
L 197.890742 196.677116 
L 197.842142 196.755581 
L 197.726202 196.892738 
L 197.694582 196.940758 
L 197.679943 197.041821 
L 197.690483 197.132841 
L 197.677015 197.206284 
" clip-path="url(#p347a201fed)" style="fill: none; stroke: #000000; stroke-width: 2"/>
    <path d="M 209.161473 192.430586 
L 209.04729 192.450673 
L 208.953601 192.381624 
L 209.090621 192.271459 
L 209.161473 192.430586 
" clip-path="url(#p347a201fed)" style="fill: none; stroke: #000000; stroke-width: 2"/>
    <path d="M 199.991122 191.316382 
L 200.233541 191.323915 
L 200.351823 191.549894 
L 200.260477 192.056465 
L 200.302637 192.554875 
L 200.335428 192.540751 
L 200.450196 192.506854 
L 200.437899 192.629574 
L 199.90446 193.139283 
L 199.900361 193.003695 
L 199.761585 192.943434 
L 199.725281 193.149012 
L 199.906803 193.287425 
L 200.130484 193.325088 
L 200.445512 193.688538 
L 200.252279 194.173452 
L 200.220074 194.89282 
L 200.014544 195.433288 
L 199.806087 195.355764 
L 199.779152 195.432974 
L 199.615197 195.408493 
L 199.561326 195.039707 
L 199.561326 195.197892 
L 199.420793 195.175294 
L 199.358725 195.48068 
L 199.462953 196.045315 
L 199.351698 195.839109 
L 199.173104 195.893093 
L 198.987484 196.375182 
L 199.128017 196.466202 
L 199.330618 196.353212 
L 199.357554 196.422889 
L 199.447143 196.54655 
L 199.591189 196.871709 
L 199.643889 197.210992 
L 199.561326 197.366353 
L 199.805502 197.819253 
L 199.707129 198.354385 
L 199.679022 198.561219 
L 199.813114 199.03201 
L 199.742262 199.5028 
L 199.556642 199.723444 
L 199.659699 199.793748 
L 199.36458 200.167242 
L 199.197697 199.943146 
L 199.118648 199.899205 
L 199.133872 199.935613 
L 199.167834 200.062099 
L 198.770829 200.109492 
L 198.820016 200.191096 
L 199.023788 200.506525 
L 199.172519 200.651529 
L 199.056579 200.970724 
L 199.01559 201.062372 
L 199.127431 201.387531 
L 199.009735 201.527199 
L 199.094055 201.857066 
L 198.957035 201.852044 
L 198.895552 202.083045 
L 198.632053 202.325345 
L 198.677141 202.494202 
L 198.621513 202.513975 
L 198.129063 202.80869 
L 198.382022 203.126003 
L 198.228021 203.127886 
L 198.136675 203.236168 
L 198.185861 203.236168 
L 198.007268 203.532452 
L 197.985017 204.342212 
L 198.038302 204.342212 
L 198.161268 203.867969 
L 198.34806 203.911281 
L 198.431208 204.18434 
L 198.41247 204.446413 
L 198.109154 205.711584 
L 197.880202 205.768079 
L 197.590354 206.206542 
L 197.69224 206.404901 
L 197.792369 206.323925 
L 197.792369 206.032035 
L 197.825746 206.047101 
L 197.939929 206.084764 
L 197.974477 205.855646 
L 198.136675 205.926578 
L 198.185861 206.348093 
L 198.038302 206.822336 
L 197.837457 207.30568 
L 197.70805 207.171976 
L 197.641297 207.142787 
L 197.39595 206.753914 
L 197.321585 206.669172 
L 197.180466 206.526993 
L 197.196862 206.297561 
L 197.346178 206.194615 
L 197.04696 205.68522 
L 196.966739 205.564697 
L 196.8508 205.610835 
L 196.710267 205.401176 
L 196.731347 204.687144 
L 196.473118 204.47058 
L 196.495954 204.45018 
L 196.506494 204.447669 
L 196.72959 203.944865 
L 196.831477 203.966207 
L 197.123082 204.436684 
L 197.149432 204.370773 
L 197.321585 202.202312 
L 197.584498 201.712062 
L 197.694582 201.804337 
L 197.809351 201.612255 
L 197.866149 201.658706 
L 197.915336 202.073002 
L 198.010781 202.015251 
L 198.319953 201.945575 
L 198.382022 201.804337 
L 198.202842 201.435865 
L 198.138432 201.272972 
L 198.17942 201.290234 
L 198.382022 201.120122 
L 198.280135 201.014037 
L 197.957496 200.952834 
L 197.843313 200.610099 
L 197.908309 198.677975 
L 198.314098 198.276862 
L 198.192302 198.22633 
L 198.058796 198.063123 
L 198.066994 197.018596 
L 198.50206 196.583585 
L 198.652547 195.619407 
L 198.492106 195.537803 
L 198.501475 195.347604 
L 198.705833 194.40414 
L 198.677141 194.35047 
L 198.756776 194.250348 
L 198.742723 193.941823 
L 198.894966 193.805294 
L 198.776099 193.032256 
L 199.123332 192.431214 
L 199.167834 192.080946 
L 199.178374 192.084712 
L 199.462953 191.764889 
L 199.575379 191.448517 
L 199.958331 191.444437 
L 199.920856 191.305397 
L 199.958331 191.233523 
L 199.991122 191.316382 
" clip-path="url(#p347a201fed)" style="fill: none; stroke: #000000; stroke-width: 2"/>
    <path d="M 200.182013 190.586029 
L 200.25345 190.754572 
L 200.014544 190.68364 
L 199.877525 190.619612 
L 199.806087 190.544286 
L 200.014544 190.446675 
L 200.112917 190.445734 
L 200.155077 190.544286 
L 200.182013 190.586029 
" clip-path="url(#p347a201fed)" style="fill: none; stroke: #000000; stroke-width: 2"/>
    <path d="M 113.32689 174.47715 
L 113.117847 174.549966 
L 113.117261 174.549652 
L 112.940424 174.44137 
L 112.584408 174.002908 
L 112.661115 173.78603 
L 112.727283 173.734557 
L 113.0792 173.949237 
L 113.302296 174.131904 
L 113.409453 174.243638 
L 113.448099 174.320848 
L 113.421749 174.389897 
L 113.32689 174.47715 
" clip-path="url(#p347a201fed)" style="fill: none; stroke: #000000; stroke-width: 2"/>
    <path d="M 170.430634 129.891728 
L 170.342801 129.90899 
L 170.227447 129.897378 
L 170.10331 129.946654 
L 169.932328 129.882312 
L 169.87553 129.53173 
L 169.951066 129.249256 
L 170.178261 129.391749 
L 170.290687 129.437886 
L 170.387889 129.509446 
L 170.454642 129.612706 
L 170.47338 129.755199 
L 170.430634 129.891728 
" clip-path="url(#p347a201fed)" style="fill: none; stroke: #000000; stroke-width: 2"/>
    <path d="M 164.900669 129.123398 
L 164.83333 129.157295 
L 164.750182 129.143799 
L 164.556363 129.075378 
L 164.354348 129.074436 
L 164.270028 129.036459 
L 164.207959 128.912798 
L 164.201518 128.831508 
L 164.213815 128.733584 
L 164.261245 128.544326 
L 164.545238 127.747749 
L 164.756037 127.355423 
L 164.953369 127.275703 
L 165.099171 128.081068 
L 165.073407 128.543698 
L 164.851482 128.701884 
L 164.936388 128.911542 
L 164.948099 129.019824 
L 164.900669 129.123398 
" clip-path="url(#p347a201fed)" style="fill: none; stroke: #000000; stroke-width: 2"/>
    <path d="M 168.568575 127.487872 
L 168.54808 127.907817 
L 168.475472 127.871096 
L 168.211973 127.786353 
L 168.15576 127.780704 
L 168.146391 127.715107 
L 168.106573 127.609336 
L 168.101889 127.538718 
L 168.115942 127.48285 
L 168.204946 127.275703 
L 168.333182 127.059139 
L 168.475472 126.878356 
L 168.575601 126.83159 
L 168.669875 126.878983 
L 168.722575 126.98601 
L 168.696811 127.117831 
L 168.612491 127.300811 
L 168.568575 127.487872 
" clip-path="url(#p347a201fed)" style="fill: none; stroke: #000000; stroke-width: 2"/>
    <path d="M 164.65298 127.342869 
L 164.479656 127.433888 
L 164.417587 127.376766 
L 164.408804 127.246828 
L 164.429298 127.103707 
L 164.453892 127.007666 
L 164.507177 126.876786 
L 164.575687 126.750928 
L 164.65825 126.67623 
L 164.753109 126.696003 
L 164.851482 126.88526 
L 164.797026 127.130699 
L 164.65298 127.342869 
" clip-path="url(#p347a201fed)" style="fill: none; stroke: #000000; stroke-width: 2"/>
    <path d="M 90.91645 22.62961 
L 91.10385 22.67226 
L 91.316535 22.595728 
L 91.843041 22.185566 
L 92.263205 22.205098 
L 92.345007 22.50405 
L 91.953102 23.923075 
L 92.206687 24.499056 
L 92.946622 25.851116 
L 93.111713 26.700538 
L 93.465691 27.1677 
L 94.074743 28.892453 
L 94.674871 29.247209 
L 96.726608 29.650197 
L 97.346071 30.075505 
L 97.713435 30.509584 
L 98.830195 31.088442 
L 99.057216 31.681077 
L 98.968721 32.035634 
L 98.443702 32.491037 
L 97.744669 32.762087 
L 97.198084 33.099304 
L 97.133386 33.754009 
L 97.609324 35.18838 
L 97.658405 35.686036 
L 97.566936 37.160267 
L 97.875552 37.867787 
L 98.547814 38.444764 
L 99.061678 39.094885 
L 99.573311 39.289004 
L 99.69527 39.536536 
L 99.768892 39.761149 
L 100.245573 39.673855 
L 101.042769 40.02044 
L 101.864505 40.156961 
L 101.825091 40.559151 
L 101.616869 40.915502 
L 101.544734 41.757151 
L 101.689003 41.959641 
L 102.24823 42.539608 
L 102.368701 43.000592 
L 102.737553 43.376873 
L 102.707063 43.906217 
L 102.268308 44.490768 
L 100.983276 45.312686 
L 100.68879 45.219812 
L 100.096099 45.393005 
L 99.880439 45.667642 
L 99.681884 46.277504 
L 98.501707 46.40127 
L 97.495545 45.576561 
L 97.233036 44.813038 
L 97.348302 44.410848 
L 97.076869 44.220117 
L 96.941524 44.280704 
L 96.478972 44.679107 
L 96.188947 44.741489 
L 94.881606 44.830576 
L 94.71354 44.914084 
L 94.686025 45.064556 
L 95.084623 46.08179 
L 95.102471 46.258171 
L 95.264587 47.130912 
L 95.240047 47.366087 
L 95.636413 47.53649 
L 96.825514 49.00833 
L 97.224856 49.255862 
L 97.283604 49.559199 
L 97.083562 50.039913 
L 96.983912 50.513054 
L 96.771971 50.907671 
L 96.94673 51.158791 
L 96.967552 51.366462 
L 97.399614 51.709261 
L 97.836882 52.166059 
L 97.679227 52.386088 
L 96.977963 52.917026 
L 96.948217 53.086034 
L 97.431591 53.417671 
L 97.308888 53.969736 
L 97.305914 54.474367 
L 97.589245 54.62743 
L 98.268508 54.540434 
L 98.429573 54.354387 
L 98.550788 54.117219 
L 98.968721 54.382688 
L 99.108528 53.867295 
L 99.24536 53.56914 
L 99.699732 53.555986 
L 100.215827 54.07975 
L 100.347453 54.217268 
L 100.567575 54.344821 
L 100.5646 54.634605 
L 100.720023 54.839088 
L 100.720767 55.048354 
L 101.096312 55.3776 
L 101.170677 55.784972 
L 101.45029 55.984672 
L 101.819142 56.125378 
L 102.239306 56.672261 
L 102.568 56.742814 
L 103.297524 57.326368 
L 103.381556 57.312018 
L 103.803951 57.115109 
L 105.13732 57.147794 
L 105.348518 57.302053 
L 105.721084 57.747152 
L 107.121386 58.562434 
L 107.465697 58.446441 
L 107.553448 58.507427 
L 107.951302 58.902044 
L 108.000383 58.972597 
L 107.714821 59.321772 
L 107.534113 59.36243 
L 107.610709 59.551766 
L 107.773569 59.736718 
L 107.758696 60.002984 
L 107.629301 60.248922 
L 108.15432 60.206271 
L 108.680082 60.348971 
L 110.113844 61.026994 
L 110.626221 61.017826 
L 111.626434 61.64722 
L 111.95959 62.088473 
L 113.503785 62.814328 
L 113.501926 63.045119 
L 113.445409 63.048308 
L 112.83487 63.172672 
L 112.695063 62.941482 
L 112.353726 63.252791 
L 112.448914 63.45847 
L 112.306133 63.66096 
L 111.772934 64.066339 
L 111.485884 64.461752 
L 110.812878 64.887061 
L 110.446257 64.974355 
L 110.129461 65.625672 
L 109.608161 66.179729 
L 108.990185 66.431646 
L 108.88533 66.840812 
L 109.106939 67.612506 
L 108.818401 67.971049 
L 108.674133 68.147232 
L 108.638437 68.299099 
L 107.873219 69.062224 
L 108.297844 69.842688 
L 108.369979 70.030828 
L 108.192989 70.716225 
L 107.909658 70.649658 
L 107.873219 70.761666 
L 108.012282 71.203317 
L 107.784724 71.343227 
L 107.289451 71.427731 
L 107.088665 72.064897 
L 107.050739 72.453136 
L 106.579263 72.926277 
L 106.597111 73.534943 
L 106.924318 73.671265 
L 107.157081 73.800612 
L 107.501392 74.180878 
L 108.05467 74.389348 
L 108.243558 74.597418 
L 108.429471 74.671558 
L 108.707597 75.151276 
L 108.990929 75.188546 
L 109.273517 75.160046 
L 109.4044 75.233588 
L 109.849848 75.652918 
L 109.885543 75.551075 
L 109.843898 74.92766 
L 110.059558 74.745898 
L 110.357762 74.799908 
L 110.390483 75.000405 
L 111.14306 75.468564 
L 111.341615 75.613855 
L 111.685183 75.74918 
L 112.080062 76.090583 
L 112.669779 76.274339 
L 112.715142 76.498752 
L 113.107418 76.653809 
L 113.46809 76.749673 
L 113.533531 76.929044 
L 114.751635 77.204279 
L 114.900365 77.383251 
L 115.144655 78.05689 
L 115.660006 78.699636 
L 115.522059 78.805067 
L 115.739949 79.036256 
L 115.963417 78.967497 
L 116.215887 78.696647 
L 116.533426 78.857284 
L 116.789615 79.242732 
L 116.827541 79.395198 
L 116.93723 79.479104 
L 117.814368 80.031965 
L 117.956034 80.136001 
L 118.642054 80.396089 
L 118.927988 80.688065 
L 119.885441 81.155626 
L 120.05016 81.047206 
L 120.552497 80.631862 
L 121.097223 80.722744 
L 121.812617 81.161605 
L 122.671536 81.838831 
L 123.229275 82.104699 
L 123.617834 82.481378 
L 123.896704 82.564287 
L 124.511704 82.496525 
L 125.574702 82.332635 
L 125.616401 82.348444 
L 125.829085 82.838127 
L 125.976328 83.707878 
L 126.137701 83.886851 
L 127.210792 83.999456 
L 127.540974 84.177233 
L 127.996461 84.284656 
L 129.141686 84.378726 
L 129.670423 84.911259 
L 129.788292 85.09661 
L 130.114756 85.144442 
L 130.375778 84.951518 
L 130.590322 84.540559 
L 130.467247 84.308572 
L 130.518559 84.139565 
L 130.70596 84.075788 
L 132.169468 84.182614 
L 132.694487 84.370356 
L 134.070245 85.043197 
L 134.189601 84.700797 
L 133.922629 84.356803 
L 134.395964 84.281069 
L 134.655499 84.263929 
L 135.171594 84.304586 
L 135.324415 84.204936 
L 135.832701 83.717843 
L 135.959494 83.745546 
L 136.058772 83.952819 
L 136.376312 84.133586 
L 136.521324 84.341258 
L 136.836261 84.379125 
L 137.042624 84.707573 
L 137.198792 84.803637 
L 139.48069 85.309862 
L 139.780382 85.847975 
L 139.864043 86.431131 
L 139.753982 86.904671 
L 139.588148 87.257434 
L 139.723121 87.485833 
L 140.670906 87.711044 
L 140.886565 87.598638 
L 141.076197 87.744526 
L 141.910575 88.354787 
L 141.971555 88.494298 
L 142.432991 88.790459 
L 142.445261 88.894096 
L 142.6282 88.91004 
L 143.195607 88.740634 
L 143.477451 88.853837 
L 143.503851 89.353286 
L 143.714305 89.564546 
L 144.487332 89.730763 
L 144.868562 89.556618 
L 145.088203 89.336545 
L 145.474902 89.342125 
L 146.61864 88.827928 
L 147.260413 89.155978 
L 147.361549 89.273566 
L 147.417695 89.537042 
L 147.44112 90.379688 
L 147.931187 90.796227 
L 148.210057 90.948095 
L 148.273268 91.051333 
L 148.545445 90.944906 
L 149.162676 90.465786 
L 149.807051 90.439478 
L 150.560044 90.779633 
L 151.127035 90.810179 
L 151.675479 90.720493 
L 151.988185 90.924179 
L 152.267426 90.999515 
L 154.717018 92.163434 
L 154.917061 91.981671 
L 155.237575 92.089693 
L 155.59676 91.926664 
L 156.034027 91.472656 
L 156.595857 91.247844 
L 156.99966 90.942913 
L 157.182227 91.826615 
L 157.467046 92.296169 
L 157.673782 92.377484 
L 158.353108 92.342407 
L 158.561703 92.618638 
L 158.961788 92.76652 
L 159.049539 92.692778 
L 159.266686 92.304141 
L 159.698748 92.12477 
L 160.158325 92.152273 
L 160.925775 92.502246 
L 161.721483 92.207281 
L 161.937143 92.303742 
L 162.094797 92.134336 
L 162.235347 91.935832 
L 162.613866 92.043455 
L 162.96078 91.834189 
L 162.967102 91.864482 
L 163.239278 92.195322 
L 163.386522 92.360344 
L 163.945377 92.565226 
L 164.431354 91.916699 
L 164.629165 90.929361 
L 165.102872 89.82563 
L 165.041893 89.227726 
L 164.925139 88.642578 
L 163.687701 86.78509 
L 163.792928 86.560278 
L 163.931089 85.782817 
L 164.131662 85.129295 
L 164.003753 84.78849 
L 164.065477 84.043502 
L 164.065477 83.887249 
L 165.046354 81.7336 
L 164.926626 81.104206 
L 164.74815 81.064346 
L 164.599047 80.731712 
L 164.730302 80.398082 
L 165.321134 80.31298 
L 166.774975 80.03077 
L 167.318214 79.711688 
L 167.618649 79.685978 
L 167.875209 79.389219 
L 168.290168 79.17497 
L 168.589116 79.455985 
L 169.190731 79.565003 
L 169.781191 80.031965 
L 169.961527 80.821198 
L 170.04147 81.197081 
L 169.532068 82.906687 
L 169.233863 83.603644 
L 169.345783 83.886851 
L 169.364374 84.348831 
L 169.620562 84.727902 
L 170.318109 85.270799 
L 170.201436 85.541212 
L 170.095756 85.619177 
L 169.480012 85.84678 
L 169.21081 86.317928 
L 169.240556 86.603726 
L 169.852582 86.949713 
L 169.981978 87.322406 
L 170.025853 88.12559 
L 170.27572 87.866897 
L 170.421104 87.850555 
L 170.556077 88.175017 
L 170.605902 88.327682 
L 170.846846 88.35678 
L 171.068454 88.300577 
L 171.529519 88.61906 
L 171.787194 89.082236 
L 172.421158 89.165943 
L 172.910482 89.040782 
L 173.153284 88.900474 
L 173.747118 88.959242 
L 174.279547 89.270377 
L 175.025058 89.266391 
L 175.4917 89.509937 
L 175.506945 89.644266 
L 175.480546 89.924484 
L 176.522878 90.011122 
L 177.008008 90.01098 
L 177.129967 89.777798 
L 177.187229 89.827225 
L 177.499563 89.904155 
L 178.929607 89.696882 
L 179.383235 89.465294 
L 179.564686 89.000124 
L 179.936884 88.839488 
L 180.334739 88.807201 
L 180.798034 88.501871 
L 181.041209 88.53934 
L 181.707522 88.997334 
L 182.517359 89.401119 
L 183.447669 89.501566 
L 185.575338 89.368135 
L 186.144897 89.210587 
L 187.858273 89.359265 
L 188.146067 89.057125 
L 188.407089 88.711138 
L 188.901618 88.74183 
L 189.36417 89.256426 
L 189.755331 89.164349 
L 190.187393 89.263202 
L 190.747364 89.122495 
L 191.42037 88.796438 
L 191.595872 88.979397 
L 191.69329 89.210587 
L 191.865074 89.136048 
L 191.909693 88.619858 
L 192.143944 88.640585 
L 192.49941 88.887718 
L 192.936677 88.824341 
L 193.202161 88.570431 
L 193.282476 88.188171 
L 193.036327 87.497791 
L 192.677886 87.153 
L 192.591623 86.761572 
L 192.73961 86.320319 
L 192.894289 86.096703 
L 193.04302 85.765465 
L 193.317428 85.449771 
L 193.289169 85.358093 
L 192.49941 84.060641 
L 190.880478 84.49472 
L 190.555502 84.088942 
L 190.213421 84.008823 
L 189.764999 83.490241 
L 189.608088 82.924624 
L 189.655682 82.629459 
L 189.992556 82.178639 
L 190.037176 81.846803 
L 191.346004 81.88467 
L 191.706676 82.074006 
L 192.766381 81.986513 
L 193.445336 81.450193 
L 194.368953 81.370672 
L 194.355567 81.29992 
L 194.328795 81.15443 
L 194.471577 81.050794 
L 194.864969 81.640725 
L 195.086577 81.292745 
L 195.12376 81.41392 
L 195.326034 81.504403 
L 195.588543 81.118755 
L 195.755121 81.370672 
L 195.837667 81.354329 
L 196.097201 81.17456 
L 196.550086 81.00037 
L 196.826725 80.754831 
L 197.200782 80.64103 
L 197.627639 80.239239 
L 197.63805 79.618615 
L 197.275891 79.547863 
L 197.263993 79.436055 
L 197.561454 78.964906 
L 198.285028 78.480206 
L 198.473172 78.618122 
L 198.796661 78.510699 
L 199.879419 77.610056 
L 200.713798 76.978471 
L 200.951023 76.431787 
L 200.991924 76.17429 
L 202.43137 75.177604 
L 203.084562 74.808678 
L 204.620949 74.641663 
L 204.83289 74.598614 
L 205.072346 74.617747 
L 205.681398 74.135836 
L 206.411665 73.834094 
L 206.62658 73.537733 
L 207.011792 73.476149 
L 208.318734 72.816531 
L 208.869351 72.793829 
L 209.56821 72.090048 
L 209.017594 71.522482 
L 209.137895 71.136751 
L 209.561034 71.050852 
L 209.752153 70.763659 
L 210.108362 70.654242 
L 210.773188 70.572728 
L 210.872837 70.494203 
L 211.385958 69.835513 
L 211.605335 69.813789 
L 212.136303 70.081849 
L 212.592906 70.628333 
L 212.548287 70.930275 
L 212.816745 70.994051 
L 213.2146 70.966547 
L 214.179861 71.319111 
L 214.010308 71.120009 
L 213.938174 70.973722 
L 214.063107 71.04288 
L 215.105708 71.444073 
L 215.795818 71.646364 
L 215.882825 71.819956 
L 216.290347 71.871575 
L 216.239144 71.408969 
L 216.472097 71.227348 
L 217.213312 71.272753 
L 217.3192 70.909511 
L 217.467442 70.841403 
L 217.48862 71.136538 
L 217.619998 71.331269 
L 217.681721 71.222849 
L 218.016365 71.214478 
L 217.97249 70.662414 
L 218.236486 70.579903 
L 218.249128 70.434014 
L 218.526511 70.351902 
L 218.917662 70.516493 
L 219.424696 70.594142 
L 219.641996 70.16707 
L 219.623399 69.651956 
L 219.991507 69.555893 
L 220.47498 69.778822 
L 221.126881 69.507049 
L 222.481256 69.435714 
L 223.152774 70.417273 
L 223.387025 70.413287 
L 223.977485 70.162566 
L 224.099444 70.394154 
L 223.736542 70.952198 
L 222.853082 71.221653 
L 222.71625 71.438294 
L 222.865283 72.069484 
L 223.480967 71.681236 
L 223.988001 71.525937 
L 224.097334 71.996036 
L 224.752371 72.319604 
L 224.712958 72.506349 
L 225.060244 72.823637 
L 225.228309 73.323684 
L 225.609059 73.754772 
L 225.762619 74.515444 
L 224.590999 75.276637 
L 224.820985 75.641362 
L 224.531251 75.990785 
L 224.784768 76.223734 
L 225.023061 76.740306 
L 225.146507 76.683704 
L 225.255585 75.874311 
L 225.472886 75.486063 
L 225.871269 75.291939 
L 226.486953 75.447238 
L 226.993987 75.990785 
L 227.501021 76.301383 
L 227.826972 76.689631 
L 227.920332 77.2553 
L 228.408912 77.442245 
L 228.892286 77.237363 
L 229.219493 77.097653 
L 229.486464 77.163821 
L 231.019876 78.525646 
L 230.762572 79.257879 
L 230.860735 79.453992 
L 231.210251 79.813531 
L 231.22215 80.141183 
L 231.070445 80.487967 
L 231.054828 80.807646 
L 230.732083 80.88338 
L 230.643588 80.682883 
L 230.390746 80.702016 
L 230.079899 80.968881 
L 229.541495 81.440228 
L 229.361531 81.603257 
L 228.915339 81.974256 
L 228.589619 82.099915 
L 228.220024 82.505693 
L 227.721033 82.929407 
L 227.662284 83.243506 
L 227.865302 83.905984 
L 227.801347 84.279076 
L 227.972388 84.55451 
L 229.612142 86.7823 
L 229.418048 87.067699 
L 229.078325 86.9945 
L 228.847667 86.99914 
L 228.676627 86.821363 
L 227.523221 86.250564 
L 227.584944 85.998647 
L 227.602792 85.786192 
L 227.287483 85.500394 
L 226.920119 85.068707 
L 226.404768 84.914448 
L 225.879005 85.017288 
L 225.604597 85.040407 
L 225.397862 85.340953 
L 224.985878 85.462128 
L 224.875074 85.426254 
L 224.393931 85.404729 
L 222.485718 85.71843 
L 221.554665 86.233025 
L 220.462982 87.59505 
L 219.862111 87.742135 
L 219.201004 88.543326 
L 218.7563 88.624641 
L 218.25359 89.119307 
L 218.087756 89.091006 
L 217.788807 89.164747 
L 217.089774 90.08233 
L 215.984706 90.407191 
L 215.870927 90.247352 
L 215.671628 90.321492 
L 215.440352 90.560653 
L 215.148097 90.700563 
L 215.091579 91.078837 
L 214.978544 91.282921 
L 214.571022 91.872454 
L 214.726445 92.389841 
L 214.578459 92.890485 
L 214.597794 93.505529 
L 214.800811 93.811257 
L 214.944336 93.913698 
L 214.828326 94.096657 
L 214.996391 94.697749 
L 215.344421 94.870743 
L 215.268568 95.187233 
L 214.620103 95.852102 
L 214.269099 96.019515 
L 214.215556 96.336404 
L 214.327848 97.445715 
L 213.987255 97.593597 
L 213.048765 98.792992 
L 212.88293 98.946055 
L 212.569109 99.339078 
L 211.748736 99.686378 
L 211.443962 100.087653 
L 211.027517 101.239614 
L 211.05057 101.556902 
L 211.220123 101.792476 
L 212.02773 102.063127 
L 212.154894 102.283555 
L 212.167537 102.931882 
L 211.915438 103.3259 
L 211.667802 104.189871 
L 211.33762 104.799335 
L 211.253587 105.213283 
L 210.979179 105.389067 
L 210.784342 105.407403 
L 210.16488 106.441378 
L 210.025073 106.633903 
L 209.81685 107.09389 
L 209.685967 107.251936 
L 209.603422 107.652133 
L 209.431638 107.848445 
L 209.398174 108.10933 
L 209.155743 108.401705 
L 209.103687 108.789944 
L 208.667907 109.899056 
L 208.502072 110.47404 
L 208.438118 110.881412 
L 208.041008 111.469749 
L 207.910125 112.066457 
L 207.683311 111.944086 
L 207.46542 111.709309 
L 206.889833 111.455001 
L 206.228726 111.26686 
L 205.506639 111.265665 
L 205.220333 110.881412 
L 204.626154 110.758443 
L 204.104854 110.88181 
L 203.982895 111.091675 
L 203.869116 111.068755 
L 203.78434 110.992423 
L 203.159671 111.153857 
L 202.381811 110.159343 
L 202.102197 110.35147 
L 202.05386 110.881412 
L 202.302983 111.397203 
L 202.458407 111.68619 
L 202.451714 111.961425 
L 202.570698 112.858082 
L 202.938806 113.229978 
L 202.984913 113.565402 
L 202.750662 115.27182 
L 202.778921 115.945458 
L 202.582597 116.402655 
L 202.555825 117.24849 
L 202.571442 117.557805 
L 202.024114 118.419983 
L 201.647825 118.523819 
L 201.148091 118.107678 
L 200.881863 118.31236 
L 200.904173 118.731889 
L 201.136936 119.470898 
L 200.682564 120.101488 
L 200.446083 120.311551 
L 200.463187 121.236309 
L 200.669178 121.671982 
L 200.662485 122.576809 
L 200.721978 122.701572 
L 200.978538 122.974216 
L 201.067776 123.289909 
L 201.034312 124.401213 
L 200.762879 124.492493 
L 200.759904 124.587361 
L 200.893761 124.827319 
L 200.624559 124.828117 
L 200.395514 124.71013 
L 200.034843 124.758361 
L 200.057152 125.400909 
L 199.769359 125.53165 
L 199.646656 125.992833 
L 199.693506 126.342009 
L 199.554443 126.351974 
L 199.305319 126.103645 
L 199.198977 126.138323 
L 198.992241 126.603492 
L 198.917133 126.53015 
L 198.822689 126.085708 
L 198.230741 125.468272 
L 197.598636 125.081628 
L 197.507167 125.239076 
L 197.496012 125.557161 
L 197.442469 125.540818 
L 197.194089 126.176589 
L 196.981405 126.354366 
L 196.822263 126.444849 
L 196.817057 126.375492 
L 196.631144 125.2036 
L 196.820032 125.16653 
L 196.830443 124.970816 
L 196.137359 120.670692 
L 195.859233 120.387086 
L 195.642086 119.422867 
L 195.403374 119.326405 
L 195.212998 118.864424 
L 195.218948 118.327706 
L 195.072448 116.813216 
L 195.246463 116.328316 
L 195.173585 116.049294 
L 195.160199 115.788409 
L 195.019649 115.610632 
L 194.979491 115.379243 
L 194.814401 115.113774 
L 194.772756 114.738091 
L 194.477526 113.601675 
L 194.544455 113.109002 
L 194.396468 113.029082 
L 194.27674 113.099037 
L 194.076697 113.559024 
L 193.979279 113.42609 
L 193.763619 112.914883 
L 193.341968 113.148663 
L 192.983528 113.578955 
L 192.703914 113.564605 
L 192.122378 112.981848 
L 192.062886 113.249111 
L 192.07404 113.543479 
L 192.252517 114.738888 
L 191.880691 115.195886 
L 191.366827 115.465939 
L 190.97046 116.078193 
L 190.834371 116.457862 
L 190.980127 117.010923 
L 191.177195 117.938471 
L 190.48188 118.649976 
L 189.860186 118.864424 
L 189.700301 118.986795 
L 189.677991 118.960288 
L 189.633372 118.799054 
L 189.220645 118.515049 
L 189.104635 118.215898 
L 188.801968 117.135884 
L 188.564 116.788104 
L 188.320825 116.5324 
L 188.080625 116.649191 
L 188.044186 117.172755 
L 188.152016 118.074195 
L 187.911072 118.010219 
L 187.739289 117.77903 
L 187.645588 117.460746 
L 187.519167 115.876898 
L 187.526604 115.770471 
L 187.340691 115.676401 
L 187.136186 115.001168 
L 187.072232 114.872221 
L 186.820878 114.612531 
L 186.705611 114.223694 
L 186.463924 113.702721 
L 186.57919 113.505412 
L 186.681071 113.513185 
L 186.698919 113.271831 
L 186.466155 113.167597 
L 186.503338 112.851306 
L 186.959941 112.606962 
L 187.095285 111.944285 
L 187.039512 111.551662 
L 187.455957 110.935821 
L 187.758624 110.926255 
L 187.922971 110.88181 
L 188.095498 110.074839 
L 188.394447 110.049528 
L 189.207259 110.187843 
L 189.77541 110.035179 
L 189.8996 109.764328 
L 190.00966 109.184162 
L 190.084769 109.212064 
L 190.406027 109.722873 
L 190.672255 109.695768 
L 190.750339 109.443652 
L 190.685641 109.140515 
L 190.757031 109.037875 
L 191.309565 109.190141 
L 191.338568 109.432491 
L 191.703701 109.683412 
L 191.846483 109.490887 
L 192.008599 108.682521 
L 191.958031 108.237481 
L 192.18187 108.245852 
L 192.478587 108.407086 
L 192.472638 108.302055 
L 192.318702 107.949491 
L 193.130027 107.983173 
L 193.313709 107.90126 
L 193.4788 107.495084 
L 193.476569 106.878047 
L 193.893759 106.41507 
L 193.994895 105.852443 
L 194.383082 104.608005 
L 194.283433 103.969444 
L 194.493143 103.879958 
L 194.768294 103.970042 
L 195.418247 104.391166 
L 196.215442 104.028437 
L 196.21346 103.807089 
L 196.091178 103.619721 
L 195.876571 103.421394 
L 195.448385 103.094761 
L 195.420478 102.950815 
L 194.488681 102.508366 
L 194.175603 102.374835 
L 193.675868 102.07947 
L 193.472851 102.014099 
L 193.347174 101.861036 
L 192.691272 101.720329 
L 192.364065 101.821973 
L 191.963236 101.761784 
L 190.35769 101.954309 
L 190.246886 102.150421 
L 189.773179 102.137267 
L 189.370119 101.915644 
L 189.087531 102.042799 
L 188.872615 102.098603 
L 188.590771 102.067512 
L 186.945068 101.655756 
L 184.202476 102.034029 
L 183.80611 101.893323 
L 183.55996 101.844295 
L 183.379997 101.951519 
L 182.485382 101.881763 
L 181.895666 101.829546 
L 180.911813 101.974638 
L 180.352586 101.742651 
L 179.224093 101.499503 
L 177.627099 100.841411 
L 176.902038 100.782816 
L 176.813171 100.2455 
L 177.023253 97.93201 
L 176.860021 97.541779 
L 176.755166 96.658874 
L 177.096503 95.944578 
L 176.791605 95.810648 
L 176.932156 95.763613 
L 177.05523 95.577067 
L 176.912821 95.455891 
L 176.86374 95.505717 
L 176.7336 95.455891 
L 176.33649 94.537511 
L 176.176605 94.228993 
L 175.811471 94.173986 
L 175.821882 94.142496 
L 175.791392 93.700446 
L 175.50583 93.725956 
L 175.456005 93.79053 
L 175.513638 94.151664 
L 175.366767 94.109013 
L 175.21878 94.17837 
L 175.189777 94.414742 
L 175.440388 94.486889 
L 175.356356 94.539106 
L 175.172673 94.746379 
L 175.430721 94.991918 
L 175.116156 95.246625 
L 174.894919 95.748864 
L 174.758459 95.629284 
L 174.55098 95.424003 
L 174.018524 95.45629 
L 173.825175 95.300038 
L 173.621786 95.442339 
L 173.360392 95.365807 
L 172.742416 94.899841 
L 172.622688 94.6547 
L 171.896511 94.149272 
L 171.782733 93.558942 
L 171.592357 93.201395 
L 171.670813 92.983758 
L 171.837763 92.998507 
L 171.781617 92.83787 
L 171.481925 92.687995 
L 171.471514 92.528554 
L 170.668369 92.028707 
L 170.459403 92.169015 
L 170.3103 92.442456 
L 170.314762 92.573596 
L 170.669856 92.794821 
L 170.848333 92.884506 
L 171.018629 93.18585 
L 171.150256 93.126059 
L 171.176284 93.341703 
L 171.339887 93.368011 
L 171.378557 93.511508 
L 171.232801 93.609564 
L 170.915262 93.68769 
L 170.710385 93.621522 
L 170.199124 93.278724 
L 170.054112 93.373193 
L 169.832503 93.670551 
L 169.642872 93.507921 
L 169.53876 93.258794 
L 169.279226 93.161934 
L 168.670918 93.378375 
L 168.544497 93.289088 
L 168.59804 93.234479 
L 168.955737 93.029598 
L 169.004074 92.790835 
L 168.573499 92.345197 
L 168.619606 92.21605 
L 168.240343 92.022728 
L 168.064841 91.823426 
L 167.688181 91.751279 
L 166.760474 91.108732 
L 166.669748 90.608486 
L 166.436241 90.954473 
L 166.218351 91.933441 
L 166.345516 91.915105 
L 166.441447 91.680328 
L 167.318214 92.085707 
L 167.478099 92.697562 
L 166.962748 92.657303 
L 166.874996 92.794024 
L 166.319488 93.244444 
L 166.118702 93.828397 
L 165.314441 94.186741 
L 165.017352 94.427098 
L 164.939268 94.87433 
L 165.033712 95.028988 
L 164.984259 95.176471 
L 164.80318 95.314786 
L 164.432841 96.126739 
L 164.641064 96.846616 
L 164.816566 97.154337 
L 165.093576 97.086973 
L 165.534191 96.927931 
L 165.767698 97.045518 
L 166.201991 97.537394 
L 166.915526 98.088661 
L 167.047524 98.659062 
L 167.391463 98.946055 
L 167.861824 99.302007 
L 168.309503 99.379735 
L 168.692112 99.561099 
L 168.902937 99.40126 
L 169.100749 99.341071 
L 169.240556 99.311973 
L 169.236094 99.176448 
L 169.604202 99.414015 
L 169.761113 99.594183 
L 169.771152 99.759205 
L 169.651052 100.08008 
L 169.754792 100.274598 
L 169.95595 100.564382 
L 170.08014 100.626962 
L 170.273489 100.67041 
L 170.563886 100.813907 
L 170.968433 100.860145 
L 170.915262 101.085754 
L 170.582477 101.361985 
L 170.573925 101.644993 
L 170.44267 101.672497 
L 170.547154 101.836721 
L 170.363471 101.82556 
L 169.671874 101.680469 
L 169.540248 101.890134 
L 169.110788 101.847483 
L 168.461208 101.648581 
L 168.143668 101.664923 
L 167.888595 101.811609 
L 167.318214 101.626658 
L 167.072808 101.668112 
L 167.002161 101.796861 
L 166.96126 102.737762 
L 166.600589 103.551111 
L 166.033182 104.136658 
L 165.644251 104.052553 
L 165.572861 103.761971 
L 165.354227 103.553502 
L 165.081306 103.585789 
L 164.724353 103.810202 
L 164.763395 103.850661 
L 164.911753 104.330379 
L 164.359963 104.989269 
L 164.280392 105.021556 
L 164.152484 105.493302 
L 164.054322 105.865198 
L 164.309395 105.953887 
L 164.509065 106.264199 
L 164.608343 106.814868 
L 164.688658 106.980687 
L 164.896137 107.024932 
L 166.785015 107.995529 
L 167.483304 108.446349 
L 168.570896 108.412468 
L 168.647493 108.235887 
L 169.039026 108.412069 
L 169.204117 108.630503 
L 169.184782 109.314505 
L 169.048693 109.434086 
L 168.817417 109.560443 
L 168.778004 109.729251 
L 168.757181 110.136623 
L 168.783209 110.295665 
L 169.117481 110.622121 
L 168.945697 110.881412 
L 169.057617 111.283602 
L 168.966148 111.510606 
L 168.458977 111.87752 
L 168.16858 111.871541 
L 168.038069 112.10572 
L 168.01576 112.334517 
L 167.872978 112.654396 
L 167.935445 112.842736 
L 167.861824 113.664853 
L 167.972628 113.7087 
L 168.009067 113.989515 
L 168.389073 114.132016 
L 168.678726 114.560513 
L 169.16396 114.912878 
L 169.34318 114.710986 
L 169.439111 114.787916 
L 169.422751 114.954133 
L 168.90963 116.611921 
L 169.006305 116.69782 
L 169.61201 116.823181 
L 169.816887 116.722932 
L 170.804829 116.994978 
L 170.703321 117.213612 
L 170.119925 117.785009 
L 170.022878 117.978929 
L 169.961527 118.831739 
L 170.173096 119.123317 
L 170.410321 119.588685 
L 170.693653 119.730787 
L 170.669856 120.134572 
L 170.535255 120.921014 
L 170.735298 121.937052 
L 170.574669 122.043878 
L 170.884028 122.199731 
L 171.017886 123.287518 
L 171.226852 124.230213 
L 171.641067 124.921788 
L 171.655196 125.108334 
L 171.527445 125.270586 
L 171.52679 125.264486 
L 171.407337 125.212071 
L 171.44247 125.323492 
L 171.380987 125.73559 
L 171.50571 126.030933 
L 171.530889 126.746534 
L 171.259192 126.803343 
L 171.150865 126.884633 
L 171.161405 127.007666 
L 170.645532 126.667441 
L 170.57995 126.375551 
L 170.47338 126.375551 
L 170.409554 126.507687 
L 170.546574 126.840065 
L 171.207078 127.40313 
L 171.4372 128.36982 
L 171.705969 128.780977 
L 171.687817 129.22352 
L 171.414364 129.253022 
L 171.337071 129.1008 
L 171.291398 129.167652 
L 171.235185 129.310145 
L 171.094652 129.33086 
L 170.240915 128.801691 
L 170.075789 128.070397 
L 169.962777 128.708161 
L 170.075789 129.075378 
L 169.826343 129.224147 
L 169.638381 129.04713 
L 169.787111 128.849398 
L 169.732069 128.649783 
L 169.689324 128.802947 
L 169.522441 129.247373 
L 169.629597 129.477433 
L 169.585681 129.602035 
L 169.383665 129.697762 
L 169.134805 129.66669 
L 168.988416 129.524512 
L 169.093816 129.286292 
L 168.825633 128.607412 
L 169.271239 126.371157 
L 169.387764 126.138587 
L 169.327452 125.981971 
L 168.995443 125.714875 
L 169.1512 125.472889 
L 169.387764 125.2648 
L 169.250159 125.274216 
L 168.946257 125.532523 
L 168.883017 125.763838 
L 169.067466 125.901308 
L 169.155299 125.985109 
L 168.861937 126.68847 
L 168.696811 126.696003 
L 168.436825 126.69255 
L 168.412232 126.500154 
L 168.565647 125.916688 
L 168.498894 125.427066 
L 168.789914 124.695143 
L 168.647624 124.690436 
L 168.654651 124.737201 
L 168.204946 126.346676 
L 168.203189 126.816839 
L 167.960185 127.565082 
L 167.960185 128.070397 
L 168.387639 127.984085 
L 168.432141 128.340944 
L 168.305661 128.605215 
L 168.15576 128.544326 
L 168.179182 129.263694 
L 168.057387 129.176441 
L 168.015227 129.681756 
L 167.81731 129.65037 
L 167.757583 129.549307 
L 167.713081 129.631852 
L 167.588358 129.938493 
L 167.451339 129.860028 
L 167.463636 129.497206 
L 167.614708 129.153529 
L 167.708397 128.912798 
L 167.530389 128.265618 
L 167.718351 127.628482 
L 167.463636 127.222974 
L 167.602997 126.756264 
L 167.463636 126.643588 
L 167.494084 126.78357 
L 167.330129 127.260637 
L 167.448411 127.77474 
L 167.311392 127.807068 
L 167.169688 128.544326 
L 167.26689 129.018255 
L 167.07717 129.232622 
L 166.725838 129.355341 
L 166.652059 128.807027 
L 166.722325 128.597054 
L 166.636249 128.615258 
L 166.38856 128.673636 
L 166.280818 128.438869 
L 166.411982 128.887061 
L 166.311267 129.235446 
L 166.126232 129.278759 
L 166.088171 129.099231 
L 165.982771 127.967137 
L 165.779584 127.824958 
L 165.798322 128.005114 
L 166.016148 129.027043 
L 165.966961 129.355027 
L 166.082901 129.597955 
L 165.691166 129.678931 
L 165.606261 129.344042 
L 165.511986 129.256789 
L 165.396047 129.334312 
L 165.199301 128.701884 
L 165.411857 128.221364 
L 164.976205 126.454016 
L 165.079848 126.24781 
L 165.497933 125.670621 
L 165.086875 124.844855 
L 164.482584 124.595336 
L 164.453892 124.417377 
L 164.210301 124.538213 
L 163.962612 124.417377 
L 163.663395 123.969498 
L 163.468991 123.085982 
L 163.225401 122.99559 
L 163.225401 123.042983 
L 163.342511 123.203679 
L 163.839646 124.606635 
L 164.080309 124.722135 
L 164.58447 124.796834 
L 165.05584 125.064243 
L 165.146016 125.370257 
L 164.909452 125.808092 
L 164.507177 126.112223 
L 164.207959 126.138587 
L 164.222598 126.221446 
L 164.234895 126.456841 
L 164.130666 126.602158 
L 163.593714 127.591446 
L 163.172115 127.854461 
L 162.941993 128.194058 
L 161.766202 128.929119 
L 161.322352 128.955483 
L 161.173036 128.966782 
L 159.61605 129.46017 
L 158.813842 129.714711 
L 158.394586 129.70812 
L 158.148068 129.727579 
L 157.160825 130.321403 
L 155.744957 132.010285 
L 155.53123 132.637692 
L 155.579831 133.351096 
L 156.455233 135.481894 
L 156.370328 135.677742 
L 156.101559 135.619992 
L 155.829862 135.677742 
L 156.059399 135.864175 
L 156.665447 135.998821 
L 156.692968 136.213502 
L 156.527842 136.216954 
L 156.329925 136.229509 
L 156.271955 136.314879 
L 156.356275 136.322411 
L 156.63207 136.453605 
L 156.665447 136.525165 
L 157.013266 136.314879 
L 156.900254 136.456116 
L 156.531355 136.77845 
L 156.149574 136.903053 
L 154.914057 137.92561 
L 154.720824 138.366897 
L 154.690961 138.856519 
L 155.189853 138.499974 
L 155.235526 138.325468 
L 155.333899 138.496835 
L 155.035267 139.049543 
L 154.685691 139.268304 
L 154.498314 139.431511 
L 154.555698 139.503071 
L 154.936894 139.273326 
L 154.669296 139.485495 
L 153.707817 140.015605 
L 153.069564 140.278934 
L 152.49338 141.418561 
L 152.36163 141.621942 
L 152.574186 141.705115 
L 152.365143 141.830973 
L 152.013811 141.630416 
L 151.48857 141.179085 
L 151.01193 141.184735 
L 150.604385 140.594678 
L 150.550514 140.757571 
L 150.713883 141.136087 
L 151.723963 141.759727 
L 152.071781 141.927014 
L 152.18655 141.968758 
L 151.439384 142.390272 
L 149.987211 142.840348 
L 149.841994 142.836268 
L 149.60426 142.940155 
L 146.263092 144.085118 
L 145.548717 144.269668 
L 145.555744 143.887072 
L 146.093282 143.750229 
L 146.045267 143.84627 
L 146.01716 143.926932 
L 146.459838 143.659209 
L 146.364393 143.573839 
L 146.415336 142.657995 
L 146.01716 142.552538 
L 145.64709 142.447709 
L 145.306884 142.625981 
L 144.611246 143.290424 
L 144.240591 143.395567 
L 143.901556 143.73485 
L 143.314246 144.940073 
L 143.400908 145.090412 
L 143.095249 145.254875 
L 143.063629 145.44068 
L 143.142679 145.497803 
L 143.204162 145.406156 
L 143.238124 145.48211 
L 143.204162 145.722527 
L 143.360505 145.605771 
L 143.596483 145.522284 
L 143.771563 145.423104 
L 143.745213 145.138119 
L 143.855297 145.190848 
L 143.989974 145.138119 
L 143.700711 144.932227 
L 143.843586 144.929716 
L 144.093032 144.668898 
L 144.019252 144.625585 
L 144.012225 144.511654 
L 144.187891 144.351585 
L 144.53571 144.458298 
L 144.929202 144.182101 
L 145.067978 144.197166 
L 145.12829 144.085118 
L 145.183918 144.173626 
L 145.205583 144.444802 
L 145.048655 144.632804 
L 144.962578 144.721626 
L 144.734798 144.814215 
L 144.602463 144.633432 
L 144.549763 144.703109 
L 144.53571 144.822376 
L 144.495307 144.803544 
L 144.38698 144.774355 
L 144.48828 144.887031 
L 144.491208 144.985269 
L 144.690296 144.966124 
L 146.459838 144.085118 
L 144.734213 144.975539 
L 141.391289 147.716167 
L 140.693895 148.522788 
L 140.432152 148.273269 
L 140.395263 148.338866 
L 140.407559 148.770424 
L 140.444449 148.843867 
L 140.69448 148.637033 
L 140.716731 148.710163 
L 139.901641 149.951166 
L 139.655709 150.062273 
L 139.015113 151.141638 
L 137.143685 153.071565 
L 136.826315 153.184555 
L 137.066392 153.267414 
L 137.634379 152.860651 
L 137.188187 153.224415 
L 136.008883 154.550789 
L 135.930419 154.824789 
L 135.673361 155.030995 
L 133.498616 156.048844 
L 132.066938 157.050372 
L 131.706823 157.568869 
L 131.271171 157.877708 
L 131.251848 157.831256 
L 131.172798 157.72015 
L 131.151718 157.843811 
L 131.18041 158.140095 
L 130.981322 158.370468 
L 130.816196 158.787903 
L 130.069615 159.515745 
L 129.937866 159.393653 
L 129.851204 159.304831 
L 129.662656 159.389259 
L 129.87814 159.531124 
L 130.073129 159.715046 
L 129.697789 159.946989 
L 129.453028 159.941653 
L 129.640405 160.265243 
L 128.064095 161.052405 
L 127.120183 161.675417 
L 127.081537 161.583456 
L 126.180956 162.06837 
L 125.895791 162.149974 
L 123.977519 163.431779 
L 123.768476 163.759449 
L 123.390794 163.989823 
L 122.824564 164.851056 
L 122.530031 165.549709 
L 122.653583 165.861058 
L 123.259045 166.031484 
L 123.333996 165.926027 
L 123.236208 165.174646 
L 123.259045 166.680233 
L 123.158915 167.319567 
L 122.912983 167.874786 
L 122.879606 167.846538 
L 122.790017 167.707184 
L 122.937576 168.080364 
L 122.589757 168.190529 
L 121.970828 168.688625 
L 120.005711 169.576536 
L 119.730501 169.656884 
L 118.65074 170.144309 
L 118.401295 170.027239 
L 117.998434 169.933709 
L 117.61841 169.880667 
L 117.626022 169.717145 
L 117.417565 169.670066 
L 117.48139 169.834529 
L 117.387116 169.852419 
L 116.950879 169.786195 
L 116.528695 169.928687 
L 116.560901 169.8452 
L 116.58198 169.670066 
L 116.401044 169.601017 
L 116.118222 169.665045 
L 115.81432 169.717773 
L 115.328311 170.153411 
L 115.398577 170.326034 
L 115.102873 171.014016 
L 114.653168 172.255333 
L 114.60808 172.786699 
L 114.502681 172.810866 
L 113.551742 173.900275 
L 113.667682 174.217274 
L 113.564624 174.260901 
L 112.88304 173.688733 
L 112.83034 173.394646 
L 112.854348 172.553815 
L 112.785838 172.31277 
L 112.731967 172.523684 
L 112.633594 172.418227 
L 112.748363 172.720161 
L 112.740165 173.360436 
L 112.142901 174.740165 
L 112.111281 173.767826 
L 111.804451 173.378012 
L 111.106471 173.318378 
L 111.104715 173.405945 
L 110.539656 173.53557 
L 110.444796 173.565072 
L 110.320659 173.471542 
L 110.119228 173.656092 
L 108.922943 174.281615 
L 108.229062 175.062814 
L 107.757106 176.385421 
L 107.854894 176.435011 
L 107.207857 177.411744 
L 107.001157 177.978262 
L 106.927963 178.691666 
L 106.716578 179.551643 
L 106.778061 180.461211 
L 106.860624 180.878645 
L 107.257629 182.668904 
L 107.48541 182.867891 
L 107.493022 183.506911 
L 107.356002 183.573135 
L 107.481896 183.615506 
L 107.752422 183.621156 
L 107.482482 185.474187 
L 107.257629 186.000531 
L 106.962511 186.048551 
L 106.699597 186.466613 
L 106.990032 186.307486 
L 107.206686 186.112579 
L 107.310915 186.211445 
L 107.223082 186.4867 
L 107.240648 186.83383 
L 107.514687 188.072008 
L 108.128933 189.519846 
L 107.971419 190.135012 
L 107.973761 190.470215 
L 108.048126 190.600153 
L 108.408242 191.627104 
L 108.592691 192.29186 
L 108.543505 192.29186 
L 108.101412 191.12838 
L 107.656391 190.453894 
L 107.356002 190.070043 
L 107.310915 190.917466 
L 107.182093 190.76493 
L 107.12588 190.441967 
L 107.011697 190.333686 
L 106.992374 190.608627 
L 106.716578 190.917466 
L 106.835446 191.262084 
L 107.436809 191.880703 
L 108.248386 192.080946 
L 108.312211 192.298765 
L 108.543505 192.506854 
L 108.592691 192.397317 
L 108.688136 192.37315 
L 108.838038 193.000243 
L 108.739665 193.819104 
L 108.636608 193.77077 
L 108.592691 194.034098 
L 108.624896 194.019033 
L 108.739665 193.986705 
L 108.668227 194.301507 
L 108.545261 194.64644 
L 108.551117 194.95214 
L 108.391846 195.171528 
L 108.146499 197.524539 
L 107.02575 200.611982 
L 106.372273 201.431158 
L 105.931351 201.725872 
L 105.998104 201.758828 
L 106.372273 201.541322 
L 105.331745 203.317144 
L 105.252695 203.752782 
L 104.919515 204.979034 
L 104.794792 205.186496 
L 104.550616 206.669172 
L 104.795378 207.832338 
L 104.877355 207.765172 
L 104.963432 207.638058 
L 105.016131 207.702086 
L 104.970458 208.197044 
L 104.467468 208.293085 
L 104.006052 208.832925 
L 104.150098 208.779254 
L 104.873842 208.350207 
L 105.133828 208.481715 
L 105.147881 209.084327 
L 105.294269 209.886553 
L 105.257965 214.265846 
L 105.325304 214.579392 
L 105.265577 216.656206 
L 104.742092 216.708934 
L 104.752632 216.545099 
L 104.587506 216.449058 
L 103.610218 216.332616 
L 103.558689 216.445292 
L 103.6758 216.438073 
L 104.065778 216.528779 
L 104.202798 216.603477 
L 104.600974 216.656206 
L 104.698176 216.814391 
L 104.60683 216.84107 
L 103.110155 216.416417 
L 103.508332 216.241283 
L 103.224924 216.242224 
L 102.943273 216.223393 
L 102.969623 216.28742 
L 102.969623 216.340149 
L 102.447895 216.455021 
L 101.757527 216.504298 
L 101.09878 217.024678 
L 101.025 217.345443 
L 100.866901 217.446506 
L 100.848748 217.661187 
L 100.968787 218.414451 
L 101.147966 218.55663 
L 100.581736 219.062259 
L 98.997814 221.539558 
L 98.829175 221.783427 
L 98.647068 222.214044 
L 98.530543 223.052051 
L 98.850255 223.577139 
L 99.677642 224.233421 
L 99.97159 224.299959 
L 101.109905 224.257902 
L 101.443085 224.052637 
L 101.627534 224.181948 
L 101.590644 224.533785 
L 102.403978 225.320005 
L 102.190837 225.319377 
L 101.737618 224.90006 
L 101.246339 224.615703 
L 100.071134 224.569251 
L 99.325139 224.434919 
L 98.772962 224.460028 
L 98.501851 224.601579 
L 98.139979 224.62606 
L 97.424433 224.928935 
L 97.181428 225.100617 
L 96.703031 225.17971 
L 96.512141 225.431112 
L 96.397372 225.462498 
L 95.181763 225.647048 
L 94.660621 225.948981 
L 93.510594 227.017362 
L 93.224844 227.61809 
L 93.113004 228.447937 
L 93.20962 228.367588 
L 93.387043 228.32302 
L 93.457309 228.179586 
L 92.970714 229.185194 
L 92.769284 229.185194 
L 92.968957 229.685174 
L 92.769284 230.664418 
L 92.519253 230.928061 
L 92.3471 231.454404 
L 91.943068 231.599408 
L 90.45869 232.599053 
L 90.163572 232.91919 
L 89.032283 233.187855 
L 88.78635 233.376171 
L 88.816799 233.623493 
L 88.425649 233.67371 
L 87.985313 233.585202 
L 86.869834 233.12571 
L 86.46873 232.909147 
L 86.370357 232.837587 
L 85.543556 232.060155 
L 84.480191 231.138347 
L 83.887026 230.243531 
L 83.409214 229.622088 
L 81.497968 227.130979 
L 81.577018 227.123132 
L 81.678904 227.283515 
L 82.019696 227.121563 
L 81.73863 227.164248 
L 81.684174 226.989428 
L 81.894973 226.753091 
L 82.308959 226.778828 
L 82.246305 226.721705 
L 82.118069 226.647634 
L 82.173111 226.613109 
L 82.364001 226.489449 
L 82.188335 226.485682 
L 81.91781 226.628175 
L 81.704668 226.591767 
L 81.573504 226.915985 
L 81.622691 226.590198 
L 81.399595 226.87173 
L 81.425945 227.016106 
L 81.25145 226.529937 
L 81.074613 226.117838 
L 80.88138 225.479446 
L 80.983267 225.647048 
L 81.027769 225.221139 
L 80.88138 225.379011 
L 80.635448 224.653994 
L 80.537075 224.641439 
L 80.547615 224.723671 
L 80.783007 225.426718 
L 80.738505 225.426718 
L 80.165834 224.0382 
L 79.797521 222.74384 
L 79.363626 219.117498 
L 79.602532 219.384279 
L 79.609559 219.570712 
L 79.402273 219.538071 
L 79.474296 219.789159 
L 79.549832 219.829961 
L 79.558616 219.782568 
L 79.599019 219.672403 
L 79.628296 219.903404 
L 79.574425 220.045269 
L 79.712616 220.006978 
L 79.774685 219.76154 
L 79.81216 219.902777 
L 80.04521 221.151627 
L 79.983142 220.458623 
L 80.04521 220.251475 
L 79.857248 219.900266 
L 79.948008 219.829961 
L 79.981971 219.942323 
L 80.152367 220.345947 
L 80.138899 220.620261 
L 80.267721 221.181757 
L 80.377805 221.433787 
L 80.237272 221.730699 
L 80.126017 222.530101 
L 80.856787 222.710571 
L 80.98678 222.660981 
L 81.175328 222.419936 
L 80.482619 222.156921 
L 80.573379 221.806653 
L 80.369607 220.281606 
L 80.389516 220.045269 
L 80.138899 219.485342 
L 79.795765 219.087995 
L 79.671627 219.208518 
L 79.491862 218.707597 
L 79.525239 218.55663 
L 79.389391 218.465297 
L 79.254713 218.034994 
L 79.158097 217.925771 
L 79.103641 217.766644 
L 79.202014 218.324687 
L 79.300386 218.92981 
L 79.196158 218.833455 
L 78.866491 218.018046 
L 78.831358 217.516811 
L 79.26174 217.159324 
L 79.28282 216.989839 
L 79.24066 216.997686 
L 79.157511 217.024678 
L 78.956081 216.761035 
L 79.04977 217.023736 
L 79.005268 217.292715 
L 78.781586 217.338538 
L 78.656278 217.134843 
L 77.688944 214.564327 
L 77.612236 214.45887 
L 77.551924 214.162272 
L 77.007945 212.811104 
L 77.133839 212.691523 
L 76.914842 212.591088 
L 76.795389 212.278483 
L 76.691746 211.638835 
L 76.350954 210.364877 
L 75.67991 208.414235 
L 75.651218 208.253852 
L 75.555187 208.284924 
L 74.892927 207.50404 
L 74.740097 207.379124 
L 74.682128 207.082526 
L 74.570287 206.774001 
L 74.000543 205.510086 
L 73.03965 204.449552 
L 72.895604 204.474033 
L 72.872768 204.393685 
L 72.572379 203.929171 
L 72.708227 203.900924 
L 73.238739 204.021446 
L 73.140366 203.906574 
L 73.136267 203.727673 
L 73.189552 203.600246 
L 73.094692 203.647639 
L 72.871011 203.810532 
L 72.533732 203.66804 
L 72.381489 203.324049 
L 72.731649 203.30867 
L 72.547786 203.073275 
L 72.233344 203.423229 
L 72.349869 203.657368 
L 72.080514 203.341625 
L 71.699319 203.085515 
L 71.657745 202.809946 
L 71.300557 201.803082 
L 71.363797 201.488594 
L 71.270694 201.509936 
L 71.117864 201.699508 
L 71.122549 201.603467 
L 70.955081 201.046679 
L 70.036933 199.262069 
L 69.099462 196.940758 
L 69.289767 197.038683 
L 69.401608 197.003844 
L 69.64754 196.823375 
L 69.933876 196.629095 
L 69.046177 196.759033 
L 68.70597 195.288284 
L 68.733491 194.972227 
L 68.653271 194.776378 
L 68.551384 194.374951 
L 68.063033 192.080946 
L 68.217619 192.278678 
L 68.210592 192.133988 
L 68.041953 191.456992 
L 68.063033 190.702472 
L 68.456525 190.649743 
L 68.293155 190.631225 
L 68.112219 190.202178 
L 68.0279 190.285037 
L 67.916059 190.601408 
L 67.646704 189.721344 
L 67.451715 188.97059 
L 67.365639 188.720758 
L 66.727971 187.743397 
L 66.611446 187.241534 
L 66.580412 187.164011 
L 66.527127 186.580231 
L 66.250745 186.124819 
L 66.28178 185.947802 
L 66.380153 186.020304 
L 66.825759 186.048551 
L 66.761348 185.989546 
L 66.152372 185.656854 
L 66.020037 185.104146 
L 65.695641 183.889506 
L 65.961482 184.410201 
L 66.093817 184.41585 
L 66.024722 184.312276 
L 66.049901 184.279007 
L 66.241376 184.305685 
L 65.63123 183.631513 
L 65.501237 183.989628 
L 65.326157 183.911163 
L 65.29278 183.621156 
L 65.375343 183.336798 
L 65.603123 183.252684 
L 65.410476 183.231969 
L 65.148734 183.272771 
L 65.083738 183.109877 
L 65.151076 183.042084 
L 64.84776 182.317066 
L 64.665653 182.334329 
L 64.56201 182.45799 
L 64.38283 182.187442 
L 64.266891 182.194661 
L 64.21302 182.089204 
L 63.857589 181.859772 
L 63.820699 181.720418 
L 63.948935 181.788212 
L 64.254009 181.537751 
L 64.311393 181.610567 
L 64.53566 181.321815 
L 64.855957 181.218242 
L 64.7529 181.175557 
L 64.584846 181.107763 
L 63.905019 181.369522 
L 63.718813 181.049699 
L 63.381534 180.765655 
L 63.308925 180.25218 
L 63.133259 180.183444 
L 62.907236 179.767265 
L 62.538337 179.6571 
L 62.71049 179.259753 
L 62.891426 179.093094 
L 62.833456 178.967863 
L 62.78427 179.0253 
L 62.318755 177.525361 
L 61.799369 177.353366 
L 61.601452 177.11954 
L 62.770216 177.290908 
L 62.887913 177.425554 
L 62.906065 177.410489 
L 62.875616 177.329513 
L 62.642566 177.046411 
L 62.023636 176.803483 
L 61.689871 176.711836 
L 61.850898 176.435011 
L 62.199302 176.166974 
L 62.199302 176.119267 
L 61.481999 176.430303 
L 61.373672 176.307897 
L 61.408805 176.119267 
L 61.257732 175.745774 
L 61.35552 175.508495 
L 61.439839 175.390798 
L 61.999043 175.166388 
L 61.73203 175.160738 
L 61.496052 175.275925 
L 61.136523 175.428461 
L 60.938606 174.914358 
L 60.909914 174.765274 
L 61.011214 174.687437 
L 60.932165 174.677707 
L 60.618308 174.58198 
L 60.31909 173.471542 
L 60.196124 173.30143 
L 59.501072 172.602777 
L 59.474722 172.442708 
L 59.680837 172.360791 
L 59.450129 172.33474 
L 59.184874 172.02088 
L 59.283246 171.886548 
L 59.351756 171.249725 
L 59.479407 171.091853 
L 59.1919 171.447143 
L 59.184874 171.676261 
L 59.099968 170.872151 
L 58.921375 170.774855 
L 58.671343 169.77364 
L 58.554233 169.61671 
L 58.738096 169.454758 
L 58.612202 169.40046 
L 58.42424 169.219677 
L 58.226323 168.554607 
L 58.148444 168.440989 
L 58.179478 168.208419 
L 58.23452 168.251418 
L 58.527883 168.545819 
L 58.693009 168.554607 
L 58.531396 168.458566 
L 58.517928 168.362838 
L 58.639723 168.23855 
L 58.515586 168.235725 
L 58.290734 168.108298 
L 58.296004 167.874786 
L 58.321182 167.86945 
L 58.546035 167.764934 
L 58.580582 167.948857 
L 58.517343 167.656966 
L 58.296004 167.764934 
L 58.216954 167.473986 
L 58.282536 167.211285 
L 58.051828 166.842813 
L 58.153714 166.280375 
L 58.104528 166.338126 
L 57.944672 166.00512 
L 57.914808 165.263154 
L 58.050657 164.963731 
L 57.80004 164.787028 
L 57.858595 164.696009 
L 57.777789 164.511773 
L 57.906611 164.594946 
L 57.952284 164.232751 
L 57.314031 162.4789 
L 57.432312 162.534767 
L 57.631986 162.684792 
L 57.760222 162.641793 
L 57.166471 161.736934 
L 57.242593 161.54799 
L 57.30232 161.430606 
L 57.215658 161.310712 
L 57.268358 161.154409 
L 56.888919 160.483376 
L 56.949817 160.463917 
L 57.14422 160.44634 
L 57.412404 160.315147 
L 57.305833 160.268695 
L 56.890676 160.121809 
L 56.833877 159.886727 
L 56.823923 159.721323 
L 56.74663 159.44136 
L 56.855542 159.163593 
L 56.735504 158.779742 
L 56.091395 157.340693 
L 56.223145 157.188471 
L 56.104278 157.183449 
L 56.005905 157.030285 
L 56.108962 156.848874 
L 56.272331 156.747811 
L 56.281115 156.609085 
L 56.198552 156.632624 
L 56.031669 156.824707 
L 55.976627 156.723957 
L 55.872398 156.449016 
L 55.812672 156.262583 
L 55.796276 156.210482 
L 55.643447 155.447802 
L 55.442602 155.398212 
L 55.536291 154.919261 
L 55.675067 155.074936 
L 55.840779 155.241909 
L 56.201479 155.290871 
L 56.425161 155.503041 
L 56.310978 155.669387 
L 56.38183 155.693868 
L 56.500697 155.396328 
L 56.277601 154.947508 
L 55.931539 154.938092 
L 55.738307 154.729689 
L 55.786908 154.598809 
L 55.671554 154.594729 
L 55.321978 154.252308 
L 55.321978 154.046102 
L 55.174419 153.72157 
L 55.300898 153.086944 
L 55.426207 152.994042 
L 55.688535 153.13214 
L 56.031669 153.650638 
L 56.000049 153.422775 
L 55.83141 153.200562 
L 55.682679 152.847155 
L 55.610071 152.803215 
L 55.321978 152.813886 
L 55.120548 152.223829 
L 54.993483 152.120255 
L 54.901551 151.574452 
L 55.001095 150.959599 
L 55.155681 150.900594 
L 55.339545 150.954892 
L 55.442602 150.749313 
L 55.529264 150.824012 
L 55.786908 151.113077 
L 55.749432 151.363852 
L 55.933296 151.486885 
L 55.908703 151.114019 
L 56.08554 150.849748 
L 55.833752 150.702548 
L 55.76817 150.382097 
L 55.692634 150.452401 
L 55.580793 150.50513 
L 55.365895 150.410972 
L 55.225948 150.226108 
L 55.339545 150.002326 
L 55.4508 150.095856 
L 55.497644 150.02304 
L 55.603044 149.78639 
L 55.804474 149.809929 
L 55.884109 149.686582 
L 55.634664 149.686582 
L 55.740063 149.623496 
L 56.377145 149.293943 
L 56.254765 149.276995 
L 55.850147 149.331606 
L 55.843316 148.706235 
L 55.733037 148.154316 
L 55.728722 148.427871 
L 55.66815 148.86565 
L 55.648397 149.195527 
L 55.187301 149.475668 
L 55.028031 149.369318 
L 54.584072 150.269919 
L 54.549048 150.107783 
L 54.682909 149.842136 
L 54.535103 149.815538 
L 54.444819 149.824681 
L 54.5204 149.709383 
L 54.628293 149.317373 
L 54.549048 149.102174 
L 54.652105 149.159925 
L 54.682554 148.924843 
L 54.598234 148.896596 
L 54.680797 148.492658 
L 54.616972 148.226504 
L 54.659132 148.05953 
L 54.566615 148.086836 
L 54.420812 148.252241 
L 54.409686 148.111317 
L 54.745794 147.465079 
L 54.453017 147.735627 
L 54.352302 147.833551 
L 54.354059 147.105709 
L 54.424325 146.990836 
L 55.011635 146.968552 
L 55.252883 147.169423 
L 55.884109 147.259187 
L 56.159905 147.82696 
L 56.325617 147.732802 
L 56.169859 147.52942 
L 56.107205 147.359936 
L 55.759387 147.043879 
L 55.241172 147.043879 
L 54.79498 146.727507 
L 54.544363 146.851796 
L 54.239876 146.411764 
L 54.201229 145.696163 
L 54.3078 145.628996 
L 55.098882 145.30572 
L 54.787954 145.272451 
L 54.441892 145.322041 
L 54.058354 144.932227 
L 54.102856 145.08696 
L 54.164339 145.291283 
L 54.163754 145.458256 
L 53.971692 145.27559 
L 53.714049 143.821475 
L 53.767334 143.856941 
L 53.999799 143.968048 
L 54.013267 143.290424 
L 53.650809 143.65356 
L 53.614505 143.142595 
L 53.444109 142.840348 
L 53.552436 142.612171 
L 53.640269 142.026508 
L 53.834087 141.717042 
L 53.865707 141.600286 
L 53.883859 141.059191 
L 54.195374 140.015605 
L 54.162583 140.014664 
L 54.11164 139.962877 
L 54.217039 139.415818 
L 54.695436 138.483653 
L 54.817231 138.160377 
L 55.179689 137.435674 
L 55.241172 136.051236 
L 55.572595 135.759346 
L 55.413325 135.507316 
L 55.388731 135.361999 
L 55.250541 135.534622 
L 55.146312 135.473105 
L 55.165636 135.127231 
L 55.251712 135.002629 
L 55.113521 135.021461 
L 54.79498 135.25152 
L 54.859391 135.128487 
L 54.996411 134.777591 
L 54.793224 134.525875 
L 55.165636 134.119426 
L 55.076046 134.129156 
L 54.764532 134.198519 
L 54.290819 133.687868 
L 54.413785 133.673431 
L 54.85295 133.689751 
L 54.888083 133.615053 
L 54.526211 132.991726 
L 54.143259 133.072388 
L 54.11164 133.034725 
L 54.065966 133.13108 
L 54.026734 133.307783 
L 53.812422 133.408533 
L 53.957639 132.984821 
L 54.016194 132.842956 
L 53.910795 132.719295 
L 53.856924 132.768885 
L 53.613334 132.86116 
L 53.512619 133.232457 
L 53.303576 133.306842 
L 53.20169 133.061089 
L 53.308846 132.936487 
L 54.058354 132.450945 
L 53.97989 132.372166 
L 53.616847 132.141165 
L 53.428299 132.029117 
L 53.419516 131.876581 
L 53.22277 132.034452 
L 53.105073 131.843625 
L 53.113271 131.264553 
L 53.419516 131.187029 
L 53.368572 131.121747 
L 52.857384 131.081886 
L 52.901301 130.976429 
L 53.640269 130.655978 
L 54.013267 130.392335 
L 54.148529 130.492143 
L 54.188347 130.409598 
L 54.08529 130.260828 
L 53.558292 130.45856 
L 52.972738 130.765515 
L 53.231553 130.225989 
L 54.002727 129.718477 
L 54.450675 129.391749 
L 54.695436 129.018255 
L 55.504671 128.907148 
L 55.718983 128.749591 
L 56.881892 128.22513 
L 56.876037 128.070397 
L 56.823337 128.086718 
L 55.610071 128.669556 
L 55.442602 128.701884 
L 54.819574 128.67552 
L 54.515671 128.790079 
L 54.048985 128.682424 
L 53.341637 128.704395 
L 53.205789 128.698117 
L 52.620235 128.794786 
L 52.601498 128.479043 
L 52.775992 128.012647 
L 52.852114 127.433888 
L 53.081651 127.189705 
L 53.335196 126.754067 
L 53.858681 126.533109 
L 53.910795 126.403171 
L 54.058354 126.317801 
L 53.173583 126.615027 
L 52.959271 126.825941 
L 52.678205 126.959645 
L 52.421733 126.562612 
L 52.403581 126.316546 
L 52.511322 125.67376 
L 52.610866 125.357389 
L 52.674106 125.062988 
L 53.021925 124.690436 
L 53.338124 124.649006 
L 54.156727 125.006493 
L 54.617558 124.466025 
L 54.997582 124.471047 
L 55.228875 124.628605 
L 55.408055 124.447508 
L 55.374678 124.178216 
L 55.290358 124.10132 
L 55.246442 124.195478 
L 55.029202 124.247893 
L 54.807277 124.138669 
L 54.424325 124.290264 
L 54.217039 124.391954 
L 53.137864 124.082488 
L 52.901301 124.048591 
L 52.75257 124.093159 
L 52.219717 124.471675 
L 52.045808 124.379714 
L 52.110804 124.235652 
L 51.883609 124.298424 
L 51.750103 124.371867 
L 51.552186 124.216193 
L 51.566239 123.785576 
L 51.686863 123.703659 
L 51.631236 123.442841 
L 51.370665 123.622683 
L 50.997082 124.287753 
L 50.666829 124.140238 
L 50.677369 123.994607 
L 50.273338 123.954433 
L 50.218881 124.023796 
L 50.257528 124.15907 
L 49.843541 124.128312 
L 50.145101 124.333576 
L 50.502875 124.048591 
L 50.480623 124.294972 
L 50.493506 124.42899 
L 50.703719 124.522834 
L 50.978344 124.501178 
L 51.055637 124.845796 
L 50.900465 125.877141 
L 50.872359 125.859879 
L 50.480623 126.21768 
L 50.330722 126.211716 
L 50.257528 126.317801 
L 50.211269 126.217993 
L 50.148615 126.32094 
L 49.948941 126.478498 
L 49.739313 126.236511 
L 49.47113 126.21768 
L 49.694811 126.398777 
L 49.599951 126.508 
L 49.32357 126.42828 
L 49.525 126.586465 
L 49.465274 126.711382 
L 49.170155 126.630406 
L 48.979265 126.744023 
L 49.525 126.906917 
L 49.899169 126.843831 
L 49.818948 126.906917 
L 49.869306 127.059767 
L 49.977048 127.204143 
L 49.943086 127.406896 
L 49.992272 127.495405 
L 49.937816 127.512353 
L 49.660263 127.399991 
L 49.331768 127.086131 
L 49.190064 127.052862 
L 49.15376 127.22423 
L 49.215828 127.250594 
L 49.395008 127.308344 
L 49.525 127.538718 
L 49.225197 127.549389 
L 48.753827 127.390889 
L 48.745043 127.818367 
L 48.78369 127.907817 
L 48.842245 127.848498 
L 48.930078 127.807068 
L 48.927736 127.8576 
L 48.930078 128.012647 
L 49.402034 127.934182 
L 49.618103 127.99507 
L 50.003983 127.884278 
L 50.046728 128.071652 
L 50.229421 128.214773 
L 50.42968 128.616828 
L 50.900465 128.941673 
L 50.874115 129.266518 
L 50.752906 129.391749 
L 50.355315 130.554915 
L 49.525 131.555501 
L 49.548423 131.748526 
L 49.47113 131.766416 
L 49.510947 131.868734 
L 49.445951 132.10664 
L 49.526757 132.403552 
L 49.168984 132.686654 
L 48.574647 132.965048 
L 48.242639 132.98231 
L 46.832041 133.748443 
L 46.74128 133.738086 
L 45.776288 134.307428 
L 45.532112 134.361412 
L 45.58774 134.247481 
L 45.674402 134.14579 
L 45.543238 134.189103 
L 45.063084 134.624427 
L 44.903814 134.869866 
L 43.870312 135.147632 
L 42.370125 135.840636 
L 42.176892 135.863234 
L 42.026405 135.998821 
L 41.620616 136.017339 
L 41.451391 136.221035 
L 40.150292 136.229509 
L 39.873911 136.109928 
L 39.640861 136.120285 
L 39.408981 135.941385 
L 37.630656 135.096787 
L 37.251803 134.72957 
L 36.805026 134.547845 
L 34.139002 131.953476 
L 33.746681 131.555501 
L 33.049287 130.640285 
L 33.00537 130.392335 
L 32.738358 130.295039 
L 32.629445 130.20245 
L 31.718324 129.233563 
L 31.164391 128.85442 
L 30.630366 128.179934 
L 30.262639 127.95929 
L 30.006166 127.566337 
L 29.999725 127.222974 
L 29.74501 127.404385 
L 29.606233 127.332825 
L 27.849573 125.503647 
L 27.277488 124.840147 
L 27.04678 124.45504 
L 26.788551 123.995863 
L 26.837737 123.688907 
L 26.954262 123.285283 
L 27.13637 122.942861 
L 27.716653 122.55493 
L 27.800387 122.624293 
L 27.723094 122.805077 
L 27.53396 122.942861 
L 27.703771 123.190497 
L 27.88822 123.195205 
L 28.193293 123.131491 
L 28.299864 123.127097 
L 28.541697 122.982722 
L 28.667591 123.196774 
L 28.408191 123.742264 
L 28.557507 124.017205 
L 28.713265 124.15907 
L 29.60272 123.910493 
L 29.776629 123.732848 
L 30.638564 123.632099 
L 30.969402 123.24762 
L 30.899721 122.81512 
L 30.943052 122.809157 
L 31.129258 122.784676 
L 31.281501 123.413652 
L 31.647472 123.409886 
L 31.718324 123.311647 
L 31.795032 123.371908 
L 32.288653 123.040786 
L 32.464319 122.569054 
L 32.527559 122.623666 
L 32.993659 123.024779 
L 33.311029 122.683299 
L 33.553448 122.618958 
L 34.532493 121.989982 
L 34.807703 121.964559 
L 35.423706 122.046477 
L 35.747517 121.815161 
L 36.072499 121.266848 
L 37.293963 119.179363 
L 37.712048 118.81654 
L 37.962665 118.789548 
L 38.175806 118.376508 
L 38.150627 118.015569 
L 37.866634 117.616339 
L 37.743668 117.557961 
L 37.627143 117.743452 
L 37.251803 118.025926 
L 37.20613 119.014586 
L 36.789216 119.020236 
L 36.646341 118.994185 
L 36.56612 119.035615 
L 36.541527 118.988222 
L 36.059616 118.557292 
L 35.979981 118.873349 
L 35.556041 118.952128 
L 35.322405 118.604999 
L 35.249211 118.924194 
L 35.356953 119.098387 
L 34.360341 119.377723 
L 33.182208 119.650153 
L 32.656381 120.036829 
L 32.33784 120.510758 
L 30.621583 120.162373 
L 30.108053 119.995713 
L 28.64007 119.698174 
L 24.673532 117.308442 
L 24.666506 117.163438 
L 24.3749 116.963509 
L 24.278284 116.704261 
L 24.376657 116.809718 
L 24.47503 116.493974 
L 24.149462 116.589388 
L 23.965598 116.555177 
L 23.884792 116.412371 
L 24.082709 116.102277 
L 24.35909 116.047037 
L 24.330984 115.99117 
L 23.884792 115.804737 
L 23.684533 115.564948 
L 23.802229 115.381026 
L 23.884792 115.382909 
L 23.293383 115.320137 
L 23.341399 115.119894 
L 23.243611 115.182038 
L 23.092538 115.190826 
L 23.040424 115.119894 
L 23.341984 114.66103 
L 23.454996 114.507866 
L 23.359551 114.548668 
L 23.259421 114.499078 
L 23.138797 114.3252 
L 23.211406 114.57566 
L 23.094295 114.751108 
L 22.913945 114.634352 
L 23.067945 113.688063 
L 23.52819 113.785046 
L 23.490129 113.610854 
L 23.364821 113.615562 
L 23.369505 113.473383 
L 23.868982 113.282242 
L 24.321615 112.783518 
L 24.5816 112.684338 
L 24.818164 112.266276 
L 25.523756 112.070427 
L 25.90378 111.782931 
L 25.789011 111.73648 
L 24.698126 112.108091 
L 24.47503 112.199424 
L 24.2209 112.575115 
L 23.394098 112.86983 
L 22.947907 113.155129 
L 22.452529 113.7455 
L 22.521624 113.792893 
L 22.452529 113.956414 
L 22.208938 114.014792 
L 21.023778 113.832439 
L 21.101072 113.681158 
L 21.274395 113.665465 
L 21.41727 113.474638 
L 21.57537 113.473383 
L 21.66613 113.583234 
L 21.876344 113.456434 
L 21.977059 113.422538 
L 22.00985 113.267177 
L 21.725857 113.359452 
L 21.493978 113.188084 
L 21.400875 112.900902 
L 21.414928 112.58202 
L 21.201787 112.792934 
L 21.170167 112.713841 
L 21.312415 112.053702 
L 21.667881 111.700341 
L 21.812894 111.529739 
L 21.890977 111.339207 
L 22.006987 111.417931 
L 22.153487 111.535319 
L 22.337541 111.401987 
L 22.365428 111.167808 
L 22.457269 111.087489 
L 22.537955 111.252511 
L 22.536468 111.313298 
L 22.765513 111.150269 
L 23.097182 111.098451 
L 25.204694 111.113598 
L 25.215105 108.61416 
L 25.369041 108.290495 
L 25.742355 108.306639 
L 25.847581 108.46588 
L 25.889598 108.914308 
L 26.100051 108.962738 
L 26.497906 108.372209 
L 26.679357 108.512716 
L 26.918441 108.860895 
L 27.243418 108.804294 
L 27.674364 108.620139 
L 28.671231 108.850532 
L 29.207776 108.656412 
L 31.449145 108.803895 
L 32.012091 109.389442 
L 32.328887 109.544698 
L 32.720792 109.591135 
L 34.497378 109.502446 
L 34.83574 109.145697 
L 35.171871 108.493185 
L 36.127836 108.29488 
L 36.530524 108.041767 
L 37.050338 107.972809 
L 37.378288 107.744609 
L 38.432788 107.573808 
L 38.478151 107.837683 
L 38.308598 108.051334 
L 38.589699 108.855714 
L 38.854439 108.984861 
L 39.9662 109.01934 
L 40.552942 108.749486 
L 40.433214 108.48601 
L 40.545505 108.347296 
L 41.119605 108.012669 
L 41.681063 107.950886 
L 41.758403 107.865386 
L 42.173361 107.670867 
L 42.117587 107.478741 
L 41.384346 107.14531 
L 41.413348 106.676753 
L 41.273913 106.556175 
L 41.30998 106.095192 
L 41.413348 105.910838 
L 42.037273 105.579998 
L 41.843551 105.28563 
L 41.600749 104.610995 
L 40.9679 103.543338 
L 40.810246 103.117033 
L 40.488244 101.871798 
L 40.364798 101.717539 
L 39.58545 100.915551 
L 39.494724 100.540864 
L 39.091664 100.072506 
L 39.035147 99.804247 
L 39.087202 97.92922 
L 38.932151 97.721548 
L 38.643985 97.66415 
L 37.8163 97.914871 
L 36.567707 97.851094 
L 36.175802 97.672919 
L 35.492385 96.656881 
L 34.981496 95.958529 
L 34.845036 95.452703 
L 34.9458 94.649518 
L 35.439586 93.741103 
L 35.418764 93.147983 
L 35.447022 92.847835 
L 35.537376 92.554065 
L 35.315024 91.079235 
L 34.785915 90.874354 
L 33.055435 90.942116 
L 32.743845 90.828116 
L 31.931776 90.19075 
L 30.81481 89.747504 
L 30.589483 89.505154 
L 30.533709 89.187468 
L 31.0327 86.736062 
L 31.328674 86.251361 
L 32.444153 85.311058 
L 33.288942 84.539363 
L 33.721004 83.868914 
L 34.504071 83.072107 
L 35.116097 81.443417 
L 36.712719 79.98792 
L 36.969279 79.86535 
L 38.028985 79.767891 
L 38.410478 80.003266 
L 38.99908 80.675709 
L 38.992758 81.111381 
L 39.49398 81.987908 
L 39.863576 82.22986 
L 40.365913 82.294035 
L 40.957489 82.167877 
L 43.206295 81.184126 
L 44.440015 81.006549 
L 45.612383 81.005353 
L 47.869369 80.302218 
L 47.909526 80.184829 
L 48.113287 78.945574 
L 48.688131 78.231876 
L 49.851947 77.262475 
L 50.196258 76.559739 
L 50.789693 74.69089 
L 51.522935 73.943909 
L 55.467269 71.91004 
L 55.886689 71.085132 
L 56.334368 70.517522 
L 57.64394 68.138861 
L 58.740084 65.009432 
L 59.981984 64.467731 
L 61.568196 64.045213 
L 62.781066 62.990295 
L 62.795966 62.888468 
L 62.529739 62.221207 
L 62.383983 62.02071 
L 62.02926 61.841738 
L 62.050083 61.811045 
L 62.211455 61.57587 
L 62.459092 61.358631 
L 62.443475 61.308407 
L 62.563947 61.346673 
L 62.725319 61.278114 
L 63.195308 60.638755 
L 63.577545 60.465762 
L 63.755278 59.736718 
L 64.118181 59.508318 
L 64.341277 59.435773 
L 64.492238 59.189436 
L 64.594118 58.972198 
L 65.082698 58.483511 
L 65.035848 58.243951 
L 65.323642 58.099258 
L 65.403956 57.962139 
L 65.399494 57.74211 
L 65.627796 57.607383 
L 66.107452 57.614558 
L 66.216769 57.373004 
L 66.597519 57.189647 
L 66.900186 57.140619 
L 67.222187 56.817352 
L 67.332991 56.521589 
L 67.904117 56.2047 
L 67.842393 56.132553 
L 67.602937 55.961951 
L 66.930675 55.853531 
L 66.807229 55.497978 
L 66.993142 54.512234 
L 67.480978 53.579504 
L 67.604425 53.311244 
L 67.585833 53.165356 
L 67.36943 52.859229 
L 67.161208 52.128591 
L 66.708323 51.339358 
L 67.233342 50.367564 
L 67.984431 49.876885 
L 68.188936 49.521331 
L 68.802449 49.578331 
L 69.125938 48.941365 
L 69.446452 49.047393 
L 69.703013 48.891539 
L 70.127638 48.845301 
L 70.326937 48.617699 
L 70.576061 48.625273 
L 70.521774 48.407237 
L 70.652657 48.381727 
L 71.214859 48.512468 
L 71.354665 48.416405 
L 71.611969 48.467825 
L 71.604533 48.291244 
L 71.988257 48.041719 
L 72.503609 47.904998 
L 72.636722 47.511976 
L 72.942364 47.119153 
L 72.898488 46.943967 
L 72.506003 46.573418 
L 71.770367 46.073021 
L 71.022252 45.825887 
L 70.529211 45.541085 
L 69.689627 45.703715 
L 69.194354 45.474718 
L 68.123494 45.501823 
L 67.930888 45.293354 
L 67.693663 44.60138 
L 67.892962 44.04214 
L 67.890731 43.388432 
L 68.122007 42.898749 
L 67.997073 42.653808 
L 67.739026 42.796508 
L 67.433384 43.291771 
L 66.767815 43.38325 
L 66.178099 43.085494 
L 65.809247 43.248124 
L 65.533352 43.148673 
L 65.369005 42.890378 
L 65.586151 42.425807 
L 65.403213 41.468164 
L 65.206888 41.356157 
L 64.27063 41.114205 
L 63.637037 40.401305 
L 63.180435 40.053524 
L 63.080785 39.81496 
L 63.175973 39.340225 
L 63.9226 38.761454 
L 64.298888 37.611884 
L 64.182135 37.186575 
L 62.897847 36.20402 
L 62.920156 35.758382 
L 62.996009 35.570242 
L 63.412454 35.032726 
L 64.440926 34.809509 
L 64.887118 34.474284 
L 65.122856 34.002737 
L 65.03213 33.754009 
L 64.806803 33.611309 
L 62.773657 33.635226 
L 62.398856 33.29183 
L 62.331927 33.061238 
L 62.395881 32.825664 
L 62.565434 32.667419 
L 63.13061 32.349732 
L 63.095658 32.02527 
L 62.715652 31.364188 
L 61.754852 31.184617 
L 61.543655 30.849392 
L 61.697591 30.482279 
L 62.052313 30.189705 
L 62.178734 29.722344 
L 62.630875 29.352839 
L 62.583282 28.754537 
L 62.891897 28.55683 
L 64.220061 28.296941 
L 64.759209 27.942982 
L 65.220274 27.779953 
L 66.129018 27.813835 
L 67.947992 28.401375 
L 70.486823 28.85339 
L 72.063366 28.836649 
L 72.283487 29.09574 
L 72.863537 29.412629 
L 75.075903 29.8774 
L 75.646285 29.787515 
L 76.08504 29.792896 
L 77.973918 28.439242 
L 78.669233 28.607054 
L 79.439657 28.429676 
L 80.706842 27.826191 
L 80.982737 27.865653 
L 81.534527 28.111989 
L 82.249921 27.948961 
L 82.974239 27.244232 
L 83.005472 26.651908 
L 83.433073 26.454201 
L 83.882982 26.482502 
L 84.181931 26.608859 
L 84.95533 25.971095 
L 84.944175 25.518282 
L 84.915916 25.331338 
L 85.101829 25.14539 
L 90.508184 22.176 
L 90.91645 22.62961 
L 90.91645 22.62961 
" clip-path="url(#p347a201fed)" style="fill: none; stroke: #000000; stroke-width: 2"/>
   </g>
  </g>
 </g>
 <defs>
  <clipPath id="p347a201fed">
   <rect x="0" y="-0" width="252.285342" height="266.112"/>
  </clipPath>
 </defs>
</svg>
