<?xml version="1.0" encoding="utf-8" standalone="no"?>
<!DOCTYPE svg PUBLIC "-//W3C//DTD SVG 1.1//EN"
  "http://www.w3.org/Graphics/SVG/1.1/DTD/svg11.dtd">
<svg xmlns:xlink="http://www.w3.org/1999/xlink" width="180.496916pt" height="266.112pt" viewBox="0 0 180.496916 266.112" xmlns="http://www.w3.org/2000/svg" version="1.1">
 <metadata>
  <rdf:RDF xmlns:dc="http://purl.org/dc/elements/1.1/" xmlns:cc="http://creativecommons.org/ns#" xmlns:rdf="http://www.w3.org/1999/02/22-rdf-syntax-ns#">
   <cc:Work>
    <dc:type rdf:resource="http://purl.org/dc/dcmitype/StillImage"/>
    <dc:date>2024-02-02T21:58:02.321875</dc:date>
    <dc:format>image/svg+xml</dc:format>
    <dc:creator>
     <cc:Agent>
      <dc:title>Matplotlib v3.8.2, https://matplotlib.org/</dc:title>
     </cc:Agent>
    </dc:creator>
   </cc:Work>
  </rdf:RDF>
 </metadata>
 <defs>
  <style type="text/css">*{stroke-linejoin: round; stroke-linecap: butt}</style>
 </defs>
 <g id="figure_1">
  <g id="patch_1">
   <path d="M 0 266.112 
L 180.496916 266.112 
L 180.496916 0 
L 0 0 
L 0 266.112 
z
" style="fill: none"/>
  </g>
  <g id="axes_1">
   <g id="PatchCollection_1">
    <path d="M 36.9795 233.06393 
L 37.218328 233.06622 
L 37.545864 232.986076 
L 37.810622 233.183001 
L 37.540405 233.58143 
L 37.332966 233.698211 
L 34.696301 234.618719 
L 34.342835 234.446982 
L 33.833789 234.163044 
L 33.912944 233.618067 
L 34.400154 233.18987 
L 35.048402 232.94257 
L 35.833124 232.867006 
L 36.9795 233.06393 
" clip-path="url(#pad8b94d308)" style="fill: none; stroke: #000000; stroke-width: 2"/>
    <path d="M 20.144148 216.703159 
L 20.404812 216.966489 
L 20.593145 216.934431 
L 20.962988 216.975648 
L 21.095367 217.33515 
L 20.864727 217.767926 
L 20.257421 218.186963 
L 18.952736 218.818954 
L 17.789983 218.942604 
L 17.467906 219.265469 
L 16.790998 219.368511 
L 16.690008 218.942604 
L 17.260466 218.138877 
L 18.974571 216.922982 
L 19.284366 216.618436 
L 19.906684 216.648204 
L 20.144148 216.703159 
" clip-path="url(#pad8b94d308)" style="fill: none; stroke: #000000; stroke-width: 2"/>
    <path d="M 39.390984 148.848895 
L 39.797674 148.860344 
L 40.61515 148.688608 
L 41.25248 148.78478 
L 42.112262 149.123674 
L 42.367467 149.535841 
L 42.072685 149.945719 
L 42.095885 150.32354 
L 42.873784 150.744867 
L 42.982962 150.694491 
L 43.122165 150.754026 
L 43.07167 151.189092 
L 42.465728 151.367698 
L 38.501178 149.519813 
L 37.403932 148.725245 
L 37.747845 148.226064 
L 38.54212 148.207745 
L 39.390984 148.848895 
" clip-path="url(#pad8b94d308)" style="fill: none; stroke: #000000; stroke-width: 2"/>
    <path d="M 42.539424 143.376223 
L 41.397142 143.728855 
L 40.79393 143.041909 
L 40.684751 142.224443 
L 40.504606 141.812275 
L 40.467758 141.49628 
L 40.79393 140.967331 
L 41.178785 140.674234 
L 41.653712 140.575772 
L 42.098615 140.669655 
L 42.393397 140.967331 
L 43.209508 142.341224 
L 42.539424 143.376223 
" clip-path="url(#pad8b94d308)" style="fill: none; stroke: #000000; stroke-width: 2"/>
    <path d="M 32.526375 99.29259 
L 33.2142 100.799292 
L 32.526375 100.799292 
L 32.613718 101.257256 
L 32.60007 101.694612 
L 32.493621 102.079302 
L 32.299829 102.36782 
L 32.299829 102.791436 
L 32.695601 102.567034 
L 33.073633 102.447963 
L 33.405263 102.498339 
L 33.672751 102.791436 
L 33.672751 103.171547 
L 33.402533 103.611192 
L 33.180082 104.497353 
L 33.085915 105.486556 
L 33.2142 106.244486 
L 32.488162 106.913114 
L 31.857655 106.560482 
L 31.21896 105.763624 
L 30.465627 105.094996 
L 30.028912 105.05378 
L 29.575821 105.140793 
L 29.216896 105.0492 
L 29.073599 104.499643 
L 29.144565 103.673018 
L 29.248285 103.034157 
L 29.207343 102.512078 
L 28.844324 102.017477 
L 28.153769 101.804524 
L 25.618094 102.36782 
L 24.700993 102.246459 
L 23.046936 101.619048 
L 22.159859 101.60073 
L 22.159859 101.21604 
L 23.0251 101.186272 
L 23.751139 100.980188 
L 24.321597 100.410023 
L 24.721464 99.29259 
L 24.979399 99.622324 
L 25.257804 99.723076 
L 25.548492 99.613165 
L 25.84464 99.29259 
L 26.570678 100.176461 
L 27.42773 99.93603 
L 28.271136 99.28801 
L 28.958961 98.91248 
L 31.887679 99.004073 
L 32.526375 99.29259 
" clip-path="url(#pad8b94d308)" style="fill: none; stroke: #000000; stroke-width: 2"/>
    <path d="M 81.926996 45.296322 
L 80.469461 45.747417 
L 79.735234 45.697041 
L 79.181152 45.296322 
L 79.181152 44.94598 
L 79.263036 44.698679 
L 79.284872 44.68494 
L 79.256212 44.609376 
L 79.181152 44.1766 
L 79.680645 43.833127 
L 79.866248 43.757562 
L 79.798012 43.617883 
L 79.694292 43.469045 
L 79.636973 43.372873 
L 79.929026 43.056877 
L 80.169219 42.985893 
L 80.369835 43.111833 
L 80.554074 43.372873 
L 81.08632 43.606434 
L 81.503928 43.881213 
L 81.785064 44.382684 
L 81.926996 45.296322 
" clip-path="url(#pad8b94d308)" style="fill: none; stroke: #000000; stroke-width: 2"/>
    <path d="M 127.36989 27.834148 
L 129.037594 28.57605 
L 130.293149 28.789003 
L 131.816192 29.416414 
L 132.51357 29.924754 
L 133.25735 29.606469 
L 133.725454 30.465152 
L 133.61764 31.619222 
L 132.618655 32.196256 
L 131.676989 32.374863 
L 130.555178 32.841986 
L 129.493415 33.510614 
L 128.352498 34.607438 
L 127.260711 35.170734 
L 126.349069 35.434063 
L 125.901437 35.843941 
L 124.432984 37.822347 
L 123.907561 38.749724 
L 123.410907 40.01793 
L 122.760053 40.252099 
L 121.933311 41.296097 
L 119.791062 41.615985 
L 119.054447 42.293566 
L 118.10638 43.718521 
L 118.245037 44.209986 
L 117.842932 44.765428 
L 117.991988 46.670215 
L 117.707741 47.123874 
L 117.042188 47.391417 
L 116.764874 47.737478 
L 116.640083 48.403426 
L 116.782206 50.421629 
L 116.435564 51.628479 
L 115.906935 52.625948 
L 113.473506 55.563101 
L 113.260321 56.322108 
L 113.194459 57.723799 
L 113.305384 58.14547 
L 113.483905 58.456633 
L 113.045402 58.64275 
L 112.69356 58.625302 
L 112.064405 58.285057 
L 111.059142 58.587497 
L 109.90829 58.276333 
L 109.310332 58.619485 
L 108.14388 59.739093 
L 106.993028 60.381777 
L 105.856041 60.463203 
L 104.746786 59.893221 
L 103.78832 59.078961 
L 103.327286 59.055696 
L 102.1799 60.18112 
L 100.51775 60.986657 
L 101.27343 61.550823 
L 101.015182 62.397072 
L 101.290762 62.978686 
L 101.84539 63.330563 
L 102.708529 63.667899 
L 103.046505 64.380377 
L 103.309954 64.659552 
L 103.590734 64.671185 
L 104.363746 64.208801 
L 104.826514 64.470527 
L 105.901105 65.415651 
L 106.424535 65.6134 
L 106.987828 65.345857 
L 107.509525 64.973624 
L 107.866567 65.063774 
L 107.956694 66.195015 
L 106.568391 66.645766 
L 103.228493 69.754495 
L 101.944183 70.248868 
L 100.626942 70.196522 
L 98.085188 69.612 
L 97.378037 70.385547 
L 96.697752 71.368476 
L 96.11366 72.43283 
L 95.728887 72.784707 
L 94.903878 73.261631 
L 93.122137 73.779268 
L 92.328326 74.209663 
L 92.752962 74.599344 
L 92.925417 75.486307 
L 93.250394 75.954506 
L 94.052871 76.826928 
L 95.477571 78.798601 
L 96.264449 79.604137 
L 97.107656 80.046164 
L 98.085188 80.051981 
L 99.231707 82.625625 
L 99.808866 83.262493 
L 100.368694 83.47769 
L 101.681601 83.672531 
L 102.1747 84.041856 
L 102.396551 84.940451 
L 102.530008 87.426853 
L 102.973711 88.296366 
L 103.627131 88.694772 
L 105.467802 88.93905 
L 107.462728 88.808187 
L 108.060686 88.918694 
L 110.478516 90.710067 
L 110.7125 91.06776 
L 110.877155 92.036148 
L 111.272327 92.321139 
L 114.851409 93.152848 
L 115.574158 93.010352 
L 116.953794 91.925641 
L 117.790935 91.995435 
L 117.418295 92.486899 
L 117.536153 92.571233 
L 117.872396 92.51598 
L 118.14971 92.594498 
L 118.610744 93.373861 
L 119.10471 93.25463 
L 120.732195 93.801348 
L 121.290289 93.740278 
L 120.52421 92.161195 
L 120.52421 91.786053 
L 120.765126 91.495246 
L 121.785988 90.901999 
L 121.90038 91.041587 
L 121.756523 91.948906 
L 121.844917 93.327332 
L 122.305951 93.094686 
L 122.617929 92.751534 
L 122.860579 92.260069 
L 122.948973 91.687179 
L 122.798183 91.125921 
L 123.455071 90.797309 
L 123.413473 90.500685 
L 122.940307 90.015037 
L 123.344145 89.084454 
L 124.001032 88.514472 
L 125.838236 88.03464 
L 126.555786 87.575164 
L 126.340868 86.650397 
L 126.805368 86.007713 
L 125.611186 85.013152 
L 125.812238 84.230881 
L 124.687384 83.681255 
L 124.605923 83.076376 
L 124.767112 83.035663 
L 125.018427 83.117089 
L 125.50546 82.375531 
L 125.243745 81.357705 
L 125.472529 81.232658 
L 126.335668 81.331533 
L 127.437991 80.511456 
L 129.065476 77.981433 
L 130.046474 77.036309 
L 131.100266 76.943251 
L 132.232053 77.510325 
L 134.31364 79.220272 
L 134.547624 79.601229 
L 134.852669 80.552169 
L 135.12305 80.712113 
L 135.523422 80.744102 
L 135.733141 80.970932 
L 136.447224 82.898984 
L 136.506153 83.716152 
L 136.237505 84.283226 
L 135.649946 84.591482 
L 136.840663 85.199269 
L 137.140508 85.533697 
L 137.603276 87.118597 
L 138.159637 88.0201 
L 138.814791 88.770382 
L 139.530607 89.369445 
L 140.258556 89.828921 
L 140.658928 89.863818 
L 141.541132 89.00012 
L 141.939771 89.052465 
L 142.298546 89.25603 
L 143.000496 89.849277 
L 143.761376 90.739147 
L 143.955496 91.745341 
L 143.640051 92.774798 
L 142.886104 93.734462 
L 143.243146 94.380054 
L 143.199816 95.01983 
L 142.681585 96.343003 
L 143.192883 96.753042 
L 144.08722 97.840661 
L 144.56212 98.096571 
L 144.74584 97.986064 
L 145.279669 97.244506 
L 145.544851 97.192161 
L 146.32133 97.439347 
L 149.188061 96.383716 
L 150.137861 96.441878 
L 150.470638 96.930434 
L 150.685556 97.081654 
L 150.924739 97.075838 
L 151.787879 96.767582 
L 152.57649 96.633811 
L 152.789675 96.436062 
L 152.931798 95.967862 
L 152.891934 94.717391 
L 153.33737 93.967108 
L 153.611217 94.010729 
L 153.869466 94.400411 
L 154.266371 94.685402 
L 154.71354 94.583619 
L 155.190173 94.339341 
L 155.691071 94.272456 
L 156.186237 94.68547 
L 158.29475 96.721121 
L 159.056271 97.167636 
L 159.744097 98.1431 
L 160.748541 98.317126 
L 160.994193 98.493443 
L 161.639712 99.427689 
L 161.515521 100.121505 
L 160.423734 101.408385 
L 159.846452 101.632787 
L 159.015329 101.33511 
L 157.766598 100.451239 
L 157.287577 100.540542 
L 154.940235 99.526152 
L 153.168811 99.29259 
L 153.168811 99.716207 
L 153.572772 99.990985 
L 153.369427 100.519934 
L 152.953183 101.261836 
L 152.729367 102.196083 
L 152.527386 104.870594 
L 152.729367 105.859797 
L 153.471782 106.867318 
L 154.596322 107.448932 
L 157.080137 107.783246 
L 157.080137 108.204573 
L 156.718483 109.202935 
L 156.685729 110.199007 
L 157.021454 111.06227 
L 157.766598 111.657623 
L 157.078772 112.431583 
L 156.905451 113.938285 
L 157.14428 117.885936 
L 157.52777 119.520868 
L 157.766598 120.111642 
L 158.597721 120.764241 
L 158.963469 121.011542 
L 159.543481 122.385434 
L 160.459217 123.015135 
L 161.46639 123.505157 
L 162.139204 123.990599 
L 162.405327 124.503519 
L 162.64552 125.25687 
L 162.724675 126.094944 
L 162.503588 126.871194 
L 161.778914 128.153493 
L 161.701125 128.602298 
L 161.455473 129.078581 
L 161.065159 130.099841 
L 160.764917 130.521168 
L 160.513807 129.955582 
L 159.926971 129.85941 
L 159.247334 130.095261 
L 158.70417 130.521168 
L 160.857719 131.560747 
L 161.138854 132.840757 
L 161.451378 133.246055 
L 160.994193 134.015435 
L 161.540086 134.294793 
L 162.921196 134.379516 
L 163.532597 134.780235 
L 163.15866 135.794626 
L 162.735593 135.822104 
L 162.279772 135.423675 
L 161.668371 135.038985 
L 161.119748 134.365778 
L 160.800401 134.432182 
L 159.973372 134.780235 
L 158.016344 136.318995 
L 157.920813 136.932667 
L 158.150088 137.40895 
L 158.933445 138.240155 
L 159.591247 139.229357 
L 160.03342 139.620917 
L 160.975086 139.845319 
L 161.578299 140.197952 
L 161.984989 140.399456 
L 161.984989 140.848261 
L 161.701125 141.544366 
L 161.720231 143.557119 
L 161.909929 144.388324 
L 162.855689 146.09882 
L 162.618226 147.115501 
L 163.068588 147.781839 
L 164.219058 150.220498 
L 164.108514 150.465509 
L 163.993877 150.57084 
L 164.149456 151.491349 
L 164.10442 152.858372 
L 163.916087 154.197917 
L 163.647235 155.042861 
L 163.506667 155.94734 
L 163.947476 156.817472 
L 165.353151 158.443245 
L 165.455506 158.864572 
L 165.021521 159.056917 
L 164.841376 159.301928 
L 164.333695 160.595677 
L 163.965217 160.989526 
L 162.825665 163.670906 
L 163.076776 164.089943 
L 161.245304 166.008813 
L 160.874096 166.82399 
L 160.077092 169.50308 
L 160.279072 170.753322 
L 159.588517 172.406573 
L 158.016344 175.266559 
L 157.840294 176.317587 
L 157.877142 177.160241 
L 158.313856 179.624089 
L 158.225149 182.026111 
L 157.78434 183.008444 
L 155.748157 186.456914 
L 155.142216 187.212555 
L 154.58131 187.53542 
L 154.061347 188.284192 
L 153.291637 189.726779 
L 152.977748 190.599201 
L 152.958642 193.360725 
L 152.460514 192.666909 
L 152.156179 192.550128 
L 150.210069 192.714995 
L 149.51269 192.483723 
L 149.710577 191.471622 
L 149.115553 191.75327 
L 148.586036 192.241002 
L 148.586036 192.591345 
L 149.090988 192.78598 
L 149.557726 193.223335 
L 149.939852 193.843877 
L 150.190963 194.583489 
L 149.978064 195.171973 
L 151.02618 195.414694 
L 151.334609 195.874948 
L 151.514754 196.465722 
L 151.926904 195.968831 
L 152.729367 194.583489 
L 152.729367 194.933832 
L 152.165732 196.10851 
L 152.835816 197.402259 
L 154.560839 199.192899 
L 153.598702 201.643007 
L 152.833087 202.613891 
L 152.591529 202.714643 
L 152.272181 202.650528 
L 151.839561 202.304765 
L 151.911892 202.013958 
L 152.157544 201.752918 
L 152.460514 201.061393 
L 152.415478 200.814092 
L 152.022435 200.766006 
L 151.820455 200.873627 
L 151.528402 201.308693 
L 150.963402 201.837642 
L 149.504502 201.849091 
L 149.504502 201.501038 
L 150.190963 201.501038 
L 149.732412 201.084291 
L 149.388499 201.09574 
L 148.815311 201.501038 
L 147.21175 201.849091 
L 145.793792 202.714643 
L 145.209686 202.636789 
L 144.338986 201.672775 
L 143.724856 201.331591 
L 141.238311 200.553052 
L 138.866405 200.924003 
L 138.219521 200.766006 
L 138.219521 200.342389 
L 138.727202 200.113407 
L 139.211682 199.618805 
L 139.551501 198.91354 
L 139.612914 198.038829 
L 139.211682 198.625023 
L 138.642588 199.213507 
L 137.982057 199.502024 
L 137.324256 199.192899 
L 137.094981 199.543241 
L 137.094981 200.766006 
L 137.782806 200.342389 
L 137.569908 201.491879 
L 137.324256 201.849091 
L 137.782806 201.849091 
L 137.782806 202.265838 
L 137.324256 202.265838 
L 137.575367 202.650528 
L 135.150235 204.186998 
L 134.810417 204.55108 
L 134.429656 205.258634 
L 133.9752 205.728048 
L 133.4102 205.375415 
L 133.71863 204.683889 
L 134.92096 203.609963 
L 134.927784 203.053537 
L 134.155345 200.379026 
L 133.432036 199.392113 
L 133.07857 199.192899 
L 132.700539 198.821948 
L 132.2106 197.063365 
L 131.786168 196.468012 
L 132.140998 198.849425 
L 132.607737 199.788252 
L 132.722375 200.342389 
L 132.292484 201.7346 
L 132.370273 202.279577 
L 133.202761 202.265838 
L 133.202761 202.650528 
L 132.670515 203.103913 
L 131.702919 204.486965 
L 131.121542 204.956378 
L 130.375033 205.134984 
L 128.861544 205.18307 
L 128.142329 205.375415 
L 128.34158 204.743425 
L 129.288705 203.417618 
L 128.54902 203.076435 
L 128.131411 203.00774 
L 127.666037 203.067276 
L 127.666037 203.417618 
L 127.952631 203.754222 
L 128.142329 204.186998 
L 127.792957 204.125173 
L 127.092849 203.802308 
L 126.679335 203.946567 
L 126.081582 204.956378 
L 125.414227 205.272373 
L 124.790544 205.272373 
L 123.522707 204.956378 
L 117.093447 205.670802 
L 114.784318 206.964551 
L 113.378643 207.401907 
L 113.074307 207.965203 
L 112.738583 208.031607 
L 112.505213 207.814074 
L 112.157206 206.877538 
L 111.57583 207.058434 
L 110.937135 207.553035 
L 110.531809 208.294937 
L 110.657364 209.215445 
L 110.9849 208.791828 
L 111.502134 208.709394 
L 112.1149 208.883421 
L 113.359537 209.40779 
L 113.414126 209.648221 
L 113.217604 210.335167 
L 112.157206 211.138894 
L 111.912919 213.24095 
L 111.020383 213.653118 
L 110.387147 214.051547 
L 108.607535 213.847753 
L 107.908791 214.214124 
L 107.629021 214.999533 
L 107.637209 215.578857 
L 107.439323 215.862795 
L 103.882827 215.363614 
L 103.779108 215.130052 
L 103.575762 214.099633 
L 103.195002 213.861492 
L 103.088553 214.14085 
L 102.965727 215.958968 
L 102.523553 216.710029 
L 102.040437 217.296223 
L 101.472708 217.658015 
L 100.767141 217.706101 
L 101.759302 218.660956 
L 102.163263 218.821244 
L 101.79888 219.389119 
L 101.037358 219.732593 
L 99.643965 220.048588 
L 97.884824 220.859184 
L 97.385332 221.546131 
L 98.019933 222.315511 
L 97.46858 222.652114 
L 94.935635 223.203961 
L 93.658245 223.73062 
L 91.545637 223.945863 
L 89.901133 223.845111 
L 89.755107 223.643607 
L 89.84245 223.242888 
L 90.068996 222.954371 
L 90.670843 222.665853 
L 90.441568 221.930821 
L 91.395516 221.635434 
L 91.845878 221.29883 
L 92.27577 220.781331 
L 91.682111 220.414959 
L 91.357304 220.396641 
L 91.769453 219.434916 
L 92.046494 219.242571 
L 91.884091 218.757129 
L 91.660275 218.628899 
L 91.399611 218.812084 
L 91.108922 219.242571 
L 90.670843 218.928865 
L 89.989841 218.770868 
L 88.61146 218.821244 
L 88.61146 218.475481 
L 88.324866 218.184674 
L 87.748949 218.324353 
L 86.507041 218.821244 
L 85.12866 218.73881 
L 84.446294 218.832693 
L 83.758468 219.242571 
L 84.87482 219.677637 
L 86.280496 219.89059 
L 87.115712 220.547769 
L 86.507041 222.315511 
L 87.765326 222.19186 
L 88.15291 222.315511 
L 88.15291 222.665853 
L 87.923635 222.665853 
L 87.923635 223.08489 
L 88.361714 223.435233 
L 87.658876 223.682534 
L 87.443248 223.85427 
L 88.61146 223.85427 
L 87.923635 225.00376 
L 88.109238 225.589955 
L 88.185663 225.910529 
L 88.038272 226.350175 
L 86.56436 228.236988 
L 85.663636 228.752197 
L 84.406716 229.075062 
L 83.990473 229.397927 
L 83.551029 230.036787 
L 83.342224 229.404796 
L 82.871391 228.933093 
L 82.330957 228.710981 
L 81.926996 228.84837 
L 82.421029 229.253668 
L 82.590256 229.906267 
L 82.429218 230.522229 
L 81.926996 230.840514 
L 81.686803 229.700183 
L 80.971682 229.285726 
L 79.429534 229.267407 
L 79.429534 229.61775 
L 79.767988 229.830703 
L 80.802455 230.036787 
L 81.114979 229.670415 
L 81.318325 229.6063 
L 81.471175 230.036787 
L 81.401573 230.359652 
L 80.889798 230.778689 
L 80.679629 230.840514 
L 80.075053 232.530402 
L 80.263386 233.998177 
L 80.324799 234.646196 
L 79.899002 234.245478 
L 79.41998 233.114306 
L 78.951877 232.722747 
L 78.400525 232.670081 
L 76.754656 233.146364 
L 72.747799 232.722747 
L 73.22955 233.272304 
L 73.790455 233.489837 
L 75.015986 233.492127 
L 75.015986 233.911164 
L 74.582 234.295854 
L 75.267097 234.646196 
L 74.899983 234.98967 
L 74.68845 235.408707 
L 74.654331 235.921627 
L 74.809911 236.567356 
L 73.540709 236.39104 
L 73.245926 236.624602 
L 73.001639 236.411648 
L 72.496688 235.800266 
L 70.905409 235.706384 
L 70.433211 235.525488 
L 70.20803 235.800266 
L 69.520204 235.481981 
L 69.045277 236.127711 
L 68.375193 237.753483 
L 67.002271 238.293881 
L 66.860339 238.891524 
L 66.562827 238.756425 
L 65.962344 237.987045 
L 65.293625 237.464966 
L 64.916958 237.336736 
L 64.52528 237.382532 
L 64.025787 237.682499 
L 62.175209 238.101536 
L 61.745318 237.943539 
L 60.991985 237.455807 
L 60.568917 237.336736 
L 60.568917 237.753483 
L 61.005632 238.101536 
L 60.738144 238.747266 
L 60.320536 239.232708 
L 59.812855 239.537254 
L 59.299715 239.640296 
L 58.429015 239.406734 
L 58.161528 239.496037 
L 58.259788 240.409676 
L 57.778038 240.430284 
L 57.547398 240.785206 
L 57.38363 241.24775 
L 57.113412 241.595803 
L 56.746299 241.641599 
L 56.132169 241.37827 
L 55.739126 241.595803 
L 55.647689 240.945494 
L 55.492109 240.409676 
L 54.575008 241.021058 
L 54.498583 241.515659 
L 54.30752 241.595803 
L 54.044127 241.577484 
L 52.905939 242.342285 
L 51.826435 242.365183 
L 52.521084 241.790438 
L 52.774925 241.394299 
L 52.991917 240.828713 
L 52.111664 241.371401 
L 51.979285 241.183635 
L 52.283621 240.409676 
L 52.642546 239.915074 
L 53.888547 238.907553 
L 53.636072 238.486226 
L 53.356301 238.783903 
L 52.283621 239.468559 
L 52.152606 239.791424 
L 51.837353 240.182983 
L 51.141339 240.828713 
L 50.737378 240.253968 
L 50.781049 239.71586 
L 51.00623 239.095319 
L 51.141339 238.293881 
L 50.906605 237.943539 
L 50.363441 237.641282 
L 49.75204 237.531371 
L 49.307137 237.753483 
L 49.593731 238.424401 
L 48.635688 238.907553 
L 46.256958 239.45711 
L 46.125943 239.686092 
L 45.960811 240.423415 
L 45.141971 240.409676 
L 44.496452 241.055405 
L 44.115691 241.227142 
L 43.542503 241.213403 
L 43.501561 240.652397 
L 43.092141 240.024986 
L 42.619943 239.745628 
L 42.393397 240.235649 
L 40.564655 241.982783 
L 41.023205 242.365183 
L 38.731818 243.519253 
L 38.828714 242.889552 
L 38.527108 243.006333 
L 37.56497 243.936 
L 37.338425 243.519253 
L 37.109149 243.936 
L 37.216963 242.955957 
L 37.338425 242.713236 
L 37.338425 242.365183 
L 36.904439 242.133911 
L 36.650599 241.595803 
L 37.384826 241.357662 
L 37.994861 240.899697 
L 39.190368 239.640296 
L 39.797674 239.20523 
L 40.974075 238.870916 
L 41.708301 238.486226 
L 42.30196 237.977886 
L 43.769049 236.219303 
L 44.402285 235.704094 
L 45.610074 235.124769 
L 46.310182 234.646196 
L 44.762575 234.481329 
L 38.289644 237.92751 
L 36.193413 238.101536 
L 38.244608 236.745962 
L 38.782313 235.690355 
L 40.095186 235.202623 
L 44.227599 232.867006 
L 44.677961 232.129683 
L 45.773842 231.980845 
L 47.019844 231.296188 
L 48.254928 230.991642 
L 49.237536 230.526808 
L 49.307137 229.61775 
L 49.762958 228.84837 
L 49.762958 228.498027 
L 49.282572 228.241567 
L 48.190785 228.807153 
L 47.419711 228.168293 
L 46.995279 228.113337 
L 46.962525 227.893514 
L 46.995279 226.963847 
L 46.498516 226.478405 
L 45.829796 226.15783 
L 45.974458 226.885993 
L 45.949893 227.886645 
L 46.310182 228.498027 
L 45.633275 228.685792 
L 45.177454 229.029266 
L 44.249435 230.036787 
L 43.595728 230.467273 
L 42.883337 230.705415 
L 40.688845 230.950425 
L 39.532916 231.458766 
L 35.300878 232.090756 
L 33.918403 232.743355 
L 33.364321 233.299782 
L 33.328838 233.718819 
L 33.028596 234.053133 
L 30.920083 234.772137 
L 30.113526 235.449924 
L 29.728671 235.385809 
L 28.729686 235.030886 
L 27.184808 235.23697 
L 26.428746 235.596472 
L 25.84464 236.219303 
L 25.618094 235.800266 
L 25.871934 235.601052 
L 26.073915 234.646196 
L 26.273166 234.488199 
L 28.561824 233.824151 
L 29.073599 233.492127 
L 29.032657 233.18987 
L 28.844324 233.146364 
L 28.978068 232.447968 
L 28.709215 232.04267 
L 28.217911 231.882383 
L 27.697948 231.91902 
L 28.123744 231.222914 
L 28.852512 231.067206 
L 30.215881 231.186277 
L 30.952837 230.861122 
L 32.526375 229.267407 
L 32.526375 228.84837 
L 31.153453 228.84837 
L 31.726641 227.831689 
L 32.777485 226.979876 
L 33.933415 226.386812 
L 34.817762 226.15783 
L 34.357847 227.30961 
L 34.952871 227.18367 
L 35.509682 226.890573 
L 35.891807 226.327277 
L 35.962773 225.38845 
L 36.402218 225.702156 
L 36.989053 225.809777 
L 38.273267 225.77085 
L 38.273267 225.38845 
L 38.009874 225.338074 
L 37.338425 225.00376 
L 37.338425 224.657997 
L 37.791516 224.348872 
L 38.648569 223.311583 
L 39.313194 222.924603 
L 39.878194 221.930821 
L 40.140222 221.857546 
L 41.023205 221.930821 
L 42.112262 221.578188 
L 44.074749 220.424118 
L 45.141971 220.048588 
L 45.141971 219.627261 
L 42.712745 219.959285 
L 39.194462 221.353786 
L 38.553037 221.761374 
L 38.064463 222.489537 
L 36.959029 222.487247 
L 36.44316 222.665853 
L 36.650599 223.08489 
L 35.646155 223.758098 
L 35.276312 223.85427 
L 35.505588 222.665853 
L 35.03066 222.665853 
L 34.752255 222.897125 
L 34.357847 223.435233 
L 33.956615 223.586361 
L 32.758379 223.85427 
L 31.292656 225.070165 
L 30.517487 225.425087 
L 29.758695 225.00376 
L 29.085882 225.759401 
L 28.243841 226.478405 
L 27.349941 227.034832 
L 26.531101 227.30961 
L 26.727622 226.567708 
L 23.554617 225.00376 
L 24.836102 224.582433 
L 25.140437 223.229149 
L 24.565884 221.798011 
L 23.210704 221.127094 
L 22.825849 221.43164 
L 21.982444 222.778054 
L 19.640561 224.657997 
L 19.454958 223.936704 
L 19.85346 222.294902 
L 19.640561 221.546131 
L 19.149257 221.43164 
L 18.47235 221.498044 
L 18.035635 221.399582 
L 18.269004 220.781331 
L 18.172108 220.433278 
L 18.039729 220.396641 
L 18.269004 219.627261 
L 17.810454 219.627261 
L 17.810454 219.242571 
L 18.915888 219.091443 
L 21.701309 218.056444 
L 22.285415 218.056444 
L 22.555632 217.882417 
L 22.664811 217.497727 
L 22.525608 216.936721 
L 22.050681 216.636755 
L 21.420174 215.452917 
L 20.786937 215.363614 
L 20.786937 215.015561 
L 21.174522 214.754522 
L 22.41097 214.214124 
L 22.150306 213.392078 
L 22.847685 213.021127 
L 23.789351 212.803594 
L 24.646404 212.189922 
L 26.780847 211.138894 
L 29.963405 210.43134 
L 31.325409 209.597845 
L 32.050083 207.683555 
L 32.299829 207.683555 
L 32.295735 208.693366 
L 32.610988 209.133011 
L 33.080456 209.236053 
L 33.54856 209.215445 
L 33.440746 208.695656 
L 34.150407 205.375415 
L 35.187605 206.016565 
L 36.23845 206.071521 
L 38.731818 205.725758 
L 38.023521 204.956378 
L 39.190368 204.186998 
L 32.526375 204.571688 
L 32.965819 205.725758 
L 32.60007 206.621078 
L 32.400819 205.712019 
L 32.074648 205.334198 
L 31.153453 204.956378 
L 30.138091 204.885393 
L 25.631741 206.062361 
L 24.832007 206.584441 
L 24.467624 206.247837 
L 24.135993 205.705149 
L 23.783892 205.375415 
L 23.435885 205.517384 
L 23.210704 205.856278 
L 22.960958 206.002826 
L 22.099811 205.100637 
L 21.724509 205.068579 
L 20.786937 205.375415 
L 20.786937 205.725758 
L 21.401068 205.808191 
L 21.953785 206.108158 
L 21.953785 206.456211 
L 21.103556 206.305082 
L 19.512276 205.728048 
L 18.72619 205.725758 
L 18.858569 206.277605 
L 19.203847 206.456211 
L 18.477808 206.481399 
L 17.151288 207.133998 
L 16.436167 207.262228 
L 15.625516 206.946232 
L 15.39897 206.263866 
L 15.338922 205.31359 
L 15.04141 204.186998 
L 15.333463 204.015262 
L 15.955781 203.417618 
L 15.955781 203.067276 
L 15.607774 202.613891 
L 15.996723 202.11242 
L 16.717302 201.693383 
L 17.351903 201.501038 
L 17.104887 202.265838 
L 17.844572 202.906988 
L 18.26491 203.067276 
L 18.600634 202.861192 
L 18.694801 202.407807 
L 18.563787 201.61095 
L 18.955465 201.111769 
L 18.475079 200.766006 
L 18.784873 199.900453 
L 19.182011 199.673761 
L 19.684233 199.694369 
L 20.328387 199.543241 
L 20.715971 199.131073 
L 21.454292 197.908309 
L 21.829594 197.654139 
L 25.315123 196.603111 
L 25.84464 197.063365 
L 25.437949 199.199768 
L 25.503456 199.543241 
L 27.697948 199.192899 
L 28.683285 198.602125 
L 29.573091 197.590024 
L 29.870603 196.403897 
L 29.073599 195.318522 
L 30.248634 195.291044 
L 30.625301 195.503997 
L 30.465627 196.083322 
L 30.623936 196.903078 
L 30.649866 197.782369 
L 30.784975 198.485344 
L 31.26809 198.773861 
L 31.812619 198.876903 
L 32.840263 199.371505 
L 33.974357 199.627965 
L 35.36502 199.650863 
L 35.839947 199.366925 
L 36.538691 198.432678 
L 36.929005 198.210565 
L 37.338425 198.389171 
L 36.898981 198.773861 
L 37.450333 199.117334 
L 39.878194 198.773861 
L 39.350042 198.208276 
L 38.872385 198.057147 
L 37.814717 198.038829 
L 36.721565 197.399969 
L 36.217979 197.269449 
L 35.711662 197.654139 
L 35.274948 197.029018 
L 35.067508 196.083322 
L 35.788087 196.719892 
L 36.136095 196.719892 
L 36.650599 196.468012 
L 35.998256 196.119959 
L 35.711662 196.083322 
L 35.711662 195.666574 
L 36.046022 195.655125 
L 36.898981 195.318522 
L 36.525044 194.375115 
L 36.631493 191.62733 
L 36.077411 191.052585 
L 34.308716 190.709112 
L 33.368415 190.241989 
L 32.758379 189.552752 
L 33.260601 189.021514 
L 33.900661 188.792532 
L 36.164754 188.634534 
L 39.500162 187.040819 
L 39.947795 186.653839 
L 40.450017 185.886749 
L 41.023205 185.531827 
L 41.899364 185.554725 
L 42.772793 185.790577 
L 43.333699 186.092833 
L 43.194496 185.330323 
L 42.801453 184.952502 
L 42.269207 184.842591 
L 41.708301 184.908995 
L 41.973059 184.33425 
L 41.908917 184.038864 
L 41.708301 183.754926 
L 41.708301 183.370236 
L 41.982613 183.029052 
L 42.039931 182.699318 
L 41.958047 182.026111 
L 42.082238 181.627682 
L 42.875148 180.645349 
L 43.059387 180.817085 
L 43.894604 180.260659 
L 45.267526 180.645349 
L 47.934215 180.645349 
L 48.844492 181.126211 
L 49.181582 180.856012 
L 49.642861 180.315615 
L 49.915808 180.265239 
L 52.866362 180.453004 
L 53.354936 180.214863 
L 55.492109 180.260659 
L 57.230779 179.788956 
L 57.6866 179.298934 
L 58.166987 178.950881 
L 62.250269 177.618206 
L 62.86167 177.187719 
L 63.137346 177.805971 
L 63.748746 177.94565 
L 64.431113 177.805971 
L 64.916958 177.572409 
L 65.323649 176.734335 
L 65.591136 176.248893 
L 65.962344 176.035939 
L 71.830698 175.266559 
L 72.964791 174.87271 
L 72.354755 174.861261 
L 70.171182 173.961362 
L 69.063018 173.7278 
L 66.876715 174.078142 
L 66.306257 173.9751 
L 65.93232 173.707191 
L 65.891378 173.349979 
L 66.317175 172.96071 
L 66.317175 172.57602 
L 66.177972 172.090578 
L 66.227102 171.41966 
L 66.145218 170.835756 
L 65.629349 170.622803 
L 66.54372 169.11839 
L 65.662103 169.365691 
L 64.611258 169.949595 
L 63.827901 170.698367 
L 63.754205 171.42195 
L 62.666513 173.533165 
L 59.695488 177.641104 
L 59.059522 177.989157 
L 56.073485 178.337209 
L 55.901529 178.495207 
L 55.369283 179.248558 
L 55.033559 179.495859 
L 54.198342 179.505018 
L 53.447738 179.106589 
L 53.982714 178.616568 
L 54.71694 178.117387 
L 55.272387 177.531192 
L 55.262834 176.766392 
L 54.201071 177.444179 
L 51.751375 178.241037 
L 50.046823 178.302862 
L 49.31942 178.165473 
L 48.672536 177.876955 
L 48.160761 177.059489 
L 47.014385 176.894622 
L 46.559929 176.420629 
L 46.73325 175.548207 
L 46.367501 175.227633 
L 45.141971 175.266559 
L 45.141971 175.651249 
L 45.455859 175.763451 
L 45.723347 175.992433 
L 45.93761 176.331326 
L 46.078178 176.766392 
L 43.542503 177.989157 
L 42.056308 178.32347 
L 41.328905 178.662364 
L 41.023205 179.298934 
L 40.911297 180.091212 
L 40.654727 180.182805 
L 40.107469 179.875969 
L 39.213568 180.556046 
L 33.2142 181.414729 
L 33.2142 181.064386 
L 33.822871 180.773579 
L 35.250383 179.720261 
L 36.9795 179.250848 
L 43.769049 172.57602 
L 43.542503 171.80664 
L 43.906887 171.628034 
L 44.707985 171.04184 
L 45.141971 170.91132 
L 46.192815 171.04184 
L 46.568117 170.973145 
L 47.894638 170.39611 
L 48.392766 168.699353 
L 48.207162 168.436024 
L 48.29587 168.35588 
L 48.392766 167.96432 
L 48.141655 167.545283 
L 48.499215 167.339199 
L 49.208876 166.521733 
L 49.711098 165.509632 
L 49.945832 164.715064 
L 50.224238 164.474633 
L 50.281557 163.348041 
L 52.366869 161.300941 
L 52.743536 160.210987 
L 52.113029 160.004903 
L 49.479093 160.146872 
L 48.59884 159.826297 
L 49.943103 158.340203 
L 51.251882 156.238147 
L 51.618995 155.983977 
L 51.367884 155.599287 
L 53.161144 152.137078 
L 53.888547 151.34022 
L 54.445358 150.396814 
L 54.903909 149.196948 
L 55.48938 148.214615 
L 56.197676 147.919228 
L 56.990586 148.390931 
L 58.564124 149.897633 
L 59.299715 150.220498 
L 59.938411 149.973197 
L 60.628966 149.526682 
L 61.37684 149.320598 
L 62.175209 149.801461 
L 62.269375 148.901561 
L 61.790354 148.395511 
L 60.320536 147.919228 
L 60.320536 147.497901 
L 62.285752 147.115501 
L 62.80981 147.328454 
L 63.83336 148.187137 
L 64.482973 148.267281 
L 64.482973 147.919228 
L 63.088215 147.115501 
L 63.088215 146.691884 
L 63.862019 147.046806 
L 64.296004 147.12237 
L 64.682224 146.682724 
L 65.065714 146.508698 
L 65.327743 146.577393 
L 65.148963 147.115501 
L 65.843612 147.926097 
L 66.259856 148.15279 
L 66.752525 148.267281 
L 66.292609 146.691884 
L 66.066064 146.346121 
L 66.497319 145.494307 
L 67.026836 144.882925 
L 68.145917 144.037981 
L 67.792452 144.04943 
L 66.876715 144.388324 
L 63.563143 144.278413 
L 63.088215 144.037981 
L 63.67778 143.66474 
L 65.200823 143.275471 
L 65.855895 143.234254 
L 65.855895 142.854144 
L 64.916958 142.854144 
L 64.916958 142.501511 
L 65.230847 142.217574 
L 66.54372 141.736711 
L 66.54372 141.352021 
L 63.878396 140.967331 
L 63.202853 141.086402 
L 62.034641 141.613061 
L 51.154986 142.512961 
L 50.098682 143.041909 
L 49.597825 143.41973 
L 48.852681 143.623524 
L 47.456558 143.618944 
L 46.744168 143.275471 
L 45.622357 141.736711 
L 46.263781 140.761248 
L 46.019494 140.108649 
L 45.455859 140.122387 
L 45.141971 141.159676 
L 44.99185 142.375571 
L 44.601536 143.092285 
L 44.082937 143.179298 
L 43.542503 142.501511 
L 43.542503 142.084764 
L 44.189387 140.919245 
L 43.915075 138.377544 
L 44.692973 137.944768 
L 45.267526 138.240155 
L 45.40127 138.118794 
L 45.81069 137.266981 
L 44.456874 135.934305 
L 44.823988 135.512978 
L 46.078178 134.780235 
L 44.869024 134.72299 
L 44.275365 134.819162 
L 43.769049 135.169505 
L 44.209858 135.838132 
L 44.274 136.809017 
L 43.976488 137.635642 
L 43.333699 137.894392 
L 42.734581 137.264691 
L 42.887431 136.213663 
L 43.228614 135.22446 
L 43.206779 134.780235 
L 42.873784 134.46195 
L 42.729122 134.363488 
L 41.383495 135.780887 
L 41.023205 136.671627 
L 40.218012 138.118794 
L 39.696684 138.775973 
L 38.109499 139.497266 
L 37.562241 139.497266 
L 37.004065 138.837798 
L 36.347628 138.274502 
L 34.883269 138.617975 
L 34.357847 138.240155 
L 34.505238 138.018042 
L 34.862798 136.25488 
L 35.094803 136.035057 
L 36.402218 135.764858 
L 38.273267 134.365778 
L 38.273267 134.015435 
L 37.109149 134.015435 
L 37.109149 133.596398 
L 37.814717 133.246055 
L 37.814717 132.861365 
L 37.315224 132.861365 
L 36.942652 133.019363 
L 36.193413 133.596398 
L 36.213884 133.994827 
L 35.768981 134.283344 
L 35.258571 134.228388 
L 35.067508 133.596398 
L 35.247653 133.090347 
L 35.906819 132.620934 
L 36.193413 132.059928 
L 35.763522 132.128623 
L 34.944682 132.861365 
L 34.049417 132.497284 
L 33.672751 132.861365 
L 33.573125 133.410922 
L 33.683669 134.564992 
L 33.319285 134.780235 
L 32.941254 134.84435 
L 32.373524 135.10768 
L 31.042909 135.128288 
L 30.60483 135.013797 
L 30.215881 134.780235 
L 29.873333 134.310822 
L 29.4257 133.406343 
L 28.958961 133.246055 
L 27.607875 133.484197 
L 26.801318 133.404053 
L 26.325026 132.861365 
L 25.779132 133.236896 
L 25.159543 133.246055 
L 25.45842 132.339286 
L 25.814615 131.727904 
L 26.308649 131.386721 
L 27.010122 131.290548 
L 28.290242 131.560747 
L 28.799288 131.492052 
L 29.302874 130.942495 
L 29.302874 130.521168 
L 28.913925 130.470792 
L 28.590483 130.257839 
L 28.340737 129.886888 
L 28.156498 129.371678 
L 28.887995 129.502198 
L 29.712294 129.875439 
L 30.389202 129.994509 
L 30.674431 129.371678 
L 30.011171 129.440373 
L 28.751522 129.188492 
L 27.480955 128.643515 
L 26.780847 127.832918 
L 26.748093 127.475706 
L 26.278625 126.163639 
L 25.959277 125.877411 
L 24.59045 126.191117 
L 24.262914 125.877411 
L 25.032623 125.208784 
L 25.814615 125.227102 
L 26.625267 125.478982 
L 27.468672 125.529359 
L 27.218926 124.375289 
L 28.709215 124.391318 
L 30.215881 124.792036 
L 30.408308 125.011859 
L 30.903706 125.877411 
L 31.223054 125.730863 
L 31.693887 125.023308 
L 32.050083 124.792036 
L 30.009806 123.427303 
L 29.510314 122.744936 
L 30.789069 122.454129 
L 33.402533 122.715169 
L 34.357847 122.454129 
L 35.509682 121.725966 
L 35.962773 121.684749 
L 36.314875 121.833588 
L 37.020442 122.341928 
L 38.624004 122.630445 
L 41.249751 122.804472 
L 41.249751 122.454129 
L 40.668374 122.149583 
L 38.331951 122.351087 
L 36.873051 121.792371 
L 34.150407 120.111642 
L 33.672751 117.597419 
L 33.872002 116.395263 
L 34.243209 115.472465 
L 34.449284 114.609202 
L 34.150407 113.581073 
L 34.469755 113.35896 
L 35.741687 113.127688 
L 36.650599 112.779635 
L 37.805164 112.559813 
L 38.149076 112.202601 
L 38.342868 112.175123 
L 39.396443 112.779635 
L 45.622357 111.657623 
L 45.622357 111.243166 
L 45.114676 111.149283 
L 43.769049 110.473786 
L 44.456874 110.089096 
L 44.456874 109.704406 
L 44.312213 109.244152 
L 44.668408 108.735812 
L 45.829796 107.783246 
L 45.55685 107.760348 
L 44.934531 107.398556 
L 45.202019 107.164994 
L 45.548661 106.379586 
L 45.622357 105.859797 
L 45.117405 106.061301 
L 44.934531 106.244486 
L 43.976488 105.887274 
L 39.190368 105.859797 
L 35.889078 107.719131 
L 34.072618 108.145038 
L 32.965819 106.981809 
L 33.380698 106.656654 
L 33.589502 105.088127 
L 34.150407 104.675959 
L 34.043958 103.908869 
L 34.150407 103.171547 
L 33.900661 103.171547 
L 33.900661 102.791436 
L 35.505588 102.36782 
L 35.80037 102.518948 
L 36.54415 103.054766 
L 37.004065 103.171547 
L 37.397108 103.473803 
L 37.532217 104.79274 
L 37.919801 105.094996 
L 38.206395 104.91639 
L 38.273267 103.171547 
L 37.36299 102.090751 
L 36.898981 102.017477 
L 36.898981 102.36782 
L 37.109149 102.791436 
L 36.724295 102.654047 
L 36.495019 102.244169 
L 36.126541 100.57031 
L 36.123812 100.334459 
L 35.962773 100.06197 
L 35.747145 100.018463 
L 35.182146 100.087158 
L 34.469755 98.768221 
L 34.357847 97.932436 
L 34.510697 97.092072 
L 34.879175 96.833322 
L 35.324078 96.693643 
L 35.711662 96.185303 
L 35.242194 95.981509 
L 35.23537 95.656354 
L 35.528788 95.312881 
L 35.962773 95.07016 
L 35.711662 94.68547 
L 36.650599 93.884033 
L 36.328522 93.609254 
L 35.939573 93.588646 
L 35.067508 93.884033 
L 35.113909 94.552661 
L 34.588487 94.68547 
L 34.588487 95.07016 
L 34.817762 95.07016 
L 33.850166 96.270026 
L 32.90577 96.466951 
L 32.062365 95.773135 
L 31.382728 94.30307 
L 32.033706 94.328258 
L 33.54856 93.884033 
L 34.150407 93.53369 
L 33.129587 92.784919 
L 32.720167 92.244521 
L 32.526375 91.575893 
L 32.744732 91.713283 
L 33.424369 91.994931 
L 32.999937 91.333172 
L 31.841278 90.037134 
L 32.29437 90.348549 
L 32.688778 90.366868 
L 33.006761 90.126437 
L 33.2142 89.652444 
L 31.47553 88.200697 
L 30.714009 87.9076 
L 30.215881 88.502954 
L 30.694902 89.102887 
L 30.509299 89.57688 
L 29.945664 89.798992 
L 29.302874 89.652444 
L 29.758695 90.421824 
L 29.758695 90.806514 
L 29.283768 90.737819 
L 28.872983 90.829412 
L 28.156498 91.227841 
L 28.156498 91.575893 
L 28.593213 91.740761 
L 28.75971 92.075074 
L 28.844324 93.149 
L 28.55773 93.162739 
L 27.906752 93.53369 
L 28.347561 93.835947 
L 28.76244 94.360316 
L 28.836135 94.852627 
L 28.262947 95.07016 
L 27.637899 95.028943 
L 27.141136 94.797672 
L 26.834071 94.227506 
L 26.780847 93.149 
L 26.980098 92.482663 
L 27.73889 90.882078 
L 27.906752 90.234058 
L 28.020025 89.221958 
L 28.303889 88.754834 
L 28.683285 88.393042 
L 29.073599 87.696937 
L 28.022754 87.674039 
L 27.596957 87.463375 
L 27.218926 86.966484 
L 27.857621 86.959614 
L 28.160592 86.444405 
L 28.615049 85.045324 
L 28.983527 84.71559 
L 30.465627 83.859197 
L 30.823187 83.112715 
L 31.153453 83.089817 
L 31.349974 83.273003 
L 31.591532 84.239307 
L 32.025517 84.59194 
L 32.605529 84.889616 
L 33.197823 84.960601 
L 33.672751 84.628577 
L 33.918403 85.070512 
L 34.191349 85.310943 
L 34.490226 85.310943 
L 34.817762 85.045324 
L 34.90374 85.35216 
L 35.067508 85.393377 
L 34.322364 86.803907 
L 33.52263 87.433607 
L 32.688778 87.335145 
L 31.841278 86.547447 
L 31.62838 87.646561 
L 32.148343 87.980875 
L 32.942618 88.03583 
L 33.54856 88.312899 
L 34.101277 88.690719 
L 34.563922 88.285421 
L 35.00746 87.65114 
L 35.505588 87.351174 
L 35.048402 86.666517 
L 35.266759 85.759748 
L 35.808559 84.96747 
L 36.316239 84.628577 
L 37.045007 84.834661 
L 38.220042 85.688764 
L 38.961093 85.812414 
L 38.764571 85.329262 
L 38.502542 85.022426 
L 37.814717 84.628577 
L 37.814717 84.239307 
L 38.457506 84.083599 
L 39.190368 84.239307 
L 38.563955 83.875226 
L 36.807543 83.488246 
L 36.44316 82.913501 
L 36.243908 82.105194 
L 36.312145 81.693026 
L 38.273267 81.168657 
L 38.984293 81.347263 
L 40.258954 82.141831 
L 40.908567 82.320437 
L 47.034856 82.67307 
L 48.037935 82.320437 
L 48.328623 82.418899 
L 49.057391 83.089817 
L 51.722715 83.469927 
L 52.456942 83.158512 
L 53.409526 82.28151 
L 53.818946 82.350205 
L 55.866046 83.327958 
L 56.312314 84.628577 
L 57.252615 84.404174 
L 57.320852 84.239307 
L 57.541939 84.683532 
L 57.593798 85.136917 
L 57.509185 85.537636 
L 57.320852 85.812414 
L 57.320852 86.197104 
L 58.049619 86.547447 
L 58.049619 86.966484 
L 57.405465 87.412999 
L 57.563774 87.935078 
L 59.186442 89.386825 
L 59.610875 90.030264 
L 59.882456 90.888947 
L 59.882456 91.994931 
L 60.091261 91.994931 
L 60.24684 90.114988 
L 60.295971 89.329579 
L 60.091261 88.502954 
L 60.844594 88.189248 
L 61.593832 87.440477 
L 62.171114 86.307015 
L 62.403119 84.83695 
L 62.899882 83.902703 
L 64.032611 83.767604 
L 66.066064 84.239307 
L 66.300798 84.163743 
L 66.663817 83.875226 
L 67.048672 84.20496 
L 67.630048 84.555302 
L 68.167753 84.747647 
L 68.918357 85.274306 
L 69.428767 85.393377 
L 71.080094 85.393377 
L 71.808862 85.178134 
L 72.496688 84.628577 
L 73.424706 85.331552 
L 75.471807 84.926253 
L 76.413473 85.393377 
L 76.609994 85.922326 
L 76.708255 86.570345 
L 76.918424 87.117612 
L 77.865549 87.495433 
L 78.253133 87.866383 
L 78.951877 88.919701 
L 79.399509 88.567069 
L 79.918108 88.452578 
L 81.012624 88.502954 
L 81.012624 88.120554 
L 80.532238 87.875543 
L 79.926297 87.692357 
L 79.402239 87.378652 
L 78.969618 86.320754 
L 78.460573 85.99331 
L 77.846443 85.812414 
L 77.330574 85.812414 
L 77.330574 85.393377 
L 77.557119 85.123178 
L 77.946068 84.45455 
L 78.244945 84.239307 
L 79.436357 84.706431 
L 79.636973 84.431652 
L 80.021828 84.191221 
L 82.385546 84.628577 
L 81.860124 83.95079 
L 81.250088 83.469927 
L 80.605934 83.185989 
L 79.969968 83.089817 
L 79.287601 83.140193 
L 79.047408 82.989065 
L 78.951877 82.528811 
L 79.134751 81.951776 
L 79.550995 82.102904 
L 80.324799 82.737185 
L 80.996248 82.334176 
L 80.746501 81.807517 
L 80.030016 81.361002 
L 79.305343 81.168657 
L 75.976758 81.170947 
L 75.793884 80.992341 
L 75.744753 80.399277 
L 75.892145 79.97566 
L 76.230598 79.60471 
L 76.63456 79.34825 
L 77.60352 79.064312 
L 81.503928 76.362323 
L 82.257261 75.995952 
L 82.352793 75.551726 
L 82.505643 73.46341 
L 82.756754 73.639726 
L 83.299918 75.020488 
L 84.275702 74.333542 
L 85.357936 73.825201 
L 88.521388 73.213819 
L 90.038971 72.1834 
L 91.108922 71.947548 
L 91.108922 71.526221 
L 89.999394 71.482715 
L 89.506725 71.256022 
L 89.070011 70.724784 
L 90.901483 69.222661 
L 90.818234 68.130417 
L 92.372666 66.740495 
L 92.27577 65.343705 
L 92.872158 65.819987 
L 93.125998 66.028361 
L 93.544972 66.113084 
L 93.969404 63.676715 
L 93.876602 63.459182 
L 93.235177 64.061405 
L 92.569187 64.395719 
L 90.279164 64.775829 
L 89.059093 65.753583 
L 88.361714 66.113084 
L 88.361714 65.765032 
L 88.709721 65.27272 
L 88.756122 64.76209 
L 88.524117 64.359082 
L 88.038272 64.189635 
L 87.534686 64.434646 
L 86.676268 65.520021 
L 85.821945 65.943638 
L 83.804869 68.020505 
L 83.332671 68.302153 
L 82.844097 68.418934 
L 82.844097 68.073171 
L 83.660207 67.116026 
L 84.169253 66.701568 
L 84.803854 66.534412 
L 85.254216 66.110795 
L 85.155955 65.311647 
L 84.741076 64.821625 
L 84.238854 65.343705 
L 84.009579 65.343705 
L 84.116028 64.104911 
L 83.682043 64.104911 
L 83.122502 64.874291 
L 82.678964 66.268792 
L 82.325498 65.987144 
L 81.851935 65.137621 
L 81.8533 64.668207 
L 81.585812 64.574325 
L 81.361996 64.626991 
L 80.802455 64.959015 
L 79.989074 65.009391 
L 79.596031 65.155939 
L 79.2412 65.932189 
L 78.814039 65.815408 
L 78.138496 65.343705 
L 75.600092 65.334545 
L 75.015986 64.959015 
L 75.286203 64.414037 
L 74.969585 64.104911 
L 72.193717 63.060753 
L 71.601423 63.074492 
L 72.059973 62.270765 
L 72.059973 61.922712 
L 71.625988 61.652513 
L 71.402171 61.254084 
L 71.477232 60.890003 
L 72.829683 60.477835 
L 73.090347 60.065667 
L 73.184513 59.39017 
L 73.565274 58.966553 
L 75.952193 57.276665 
L 76.807881 56.949221 
L 80.174678 57.036234 
L 81.935184 57.6064 
L 82.844097 57.627008 
L 82.844097 57.276665 
L 80.496755 56.7065 
L 79.866248 56.088248 
L 80.386212 55.845527 
L 81.894242 55.772253 
L 82.281827 55.916512 
L 83.243964 57.249188 
L 83.848541 57.581212 
L 84.468129 57.276665 
L 82.687152 55.538691 
L 81.426139 55.105915 
L 80.21562 54.247232 
L 79.429534 54.169378 
L 79.566007 53.624401 
L 79.813024 53.491591 
L 80.554074 53.399998 
L 80.88161 53.148118 
L 81.326513 52.557344 
L 81.70045 52.248219 
L 82.360981 52.893948 
L 83.096572 52.955773 
L 84.676934 52.667256 
L 86.545254 53.390839 
L 87.235809 53.399998 
L 87.235809 53.017598 
L 86.646244 52.928295 
L 85.903829 52.61917 
L 85.368854 52.026106 
L 85.38523 51.094149 
L 85.860158 50.610997 
L 87.17849 50.839979 
L 87.672524 50.709459 
L 87.23035 50.345377 
L 86.855048 49.342436 
L 86.404686 49.136352 
L 85.614506 49.136352 
L 85.475303 49.390522 
L 85.38523 50.324769 
L 84.431282 50.276683 
L 83.649289 49.459217 
L 83.039254 48.305147 
L 82.614821 47.249539 
L 83.051536 46.942703 
L 83.370884 47.102991 
L 83.686137 47.425856 
L 84.124217 47.602172 
L 85.033129 47.3709 
L 85.864252 46.835082 
L 84.872091 46.436653 
L 84.118758 45.715359 
L 82.844097 44.1766 
L 82.844097 43.757562 
L 83.129326 43.489653 
L 83.477333 43.366003 
L 83.856729 43.434698 
L 84.238854 43.757562 
L 84.676934 42.988183 
L 84.468129 42.988183 
L 84.635992 42.193615 
L 84.902115 42.053936 
L 85.23511 42.095152 
L 85.614506 41.87304 
L 86.269578 40.512886 
L 86.507041 40.302223 
L 86.826389 40.631957 
L 86.920555 41.946314 
L 87.235809 42.218803 
L 87.426872 41.987531 
L 87.641135 40.954822 
L 87.923635 40.652565 
L 87.41186 38.014692 
L 87.559251 37.575046 
L 87.950929 37.210964 
L 88.485905 35.4707 
L 88.8189 34.884506 
L 89.337498 34.854739 
L 91.231748 35.653886 
L 91.84042 35.534815 
L 92.872158 35.005867 
L 93.420781 34.884506 
L 92.73432 36.63393 
L 92.910371 36.913288 
L 93.306143 36.592713 
L 94.306493 35.211951 
L 96.338581 33.961708 
L 96.990924 33.735016 
L 97.454933 33.295371 
L 97.763363 32.379442 
L 98.172783 31.559686 
L 98.937033 31.431456 
L 99.829569 32.086345 
L 99.545705 32.709176 
L 98.019933 33.735016 
L 98.019933 34.119706 
L 99.433796 33.384674 
L 99.867782 33.799131 
L 100.372733 33.753335 
L 101.225691 33.315979 
L 101.684242 34.119706 
L 101.684242 34.470049 
L 101.553227 35.118068 
L 101.832998 35.012736 
L 102.33249 34.637206 
L 102.851089 34.470049 
L 102.684592 35.019606 
L 102.422563 35.388267 
L 102.084109 35.594351 
L 101.684242 35.653886 
L 101.684242 36.036286 
L 102.299737 36.011098 
L 102.679133 36.125589 
L 102.973915 36.098111 
L 103.30691 35.653886 
L 103.702683 34.634916 
L 103.607151 34.023534 
L 102.851089 32.965636 
L 102.649108 31.825305 
L 103.181354 31.13378 
L 104.062972 30.49263 
L 104.910472 29.508007 
L 105.033298 29.801104 
L 105.160218 29.924754 
L 104.338648 32.965636 
L 104.910472 33.735016 
L 105.209348 33.741886 
L 105.539614 33.370935 
L 105.848044 33.315979 
L 106.298406 33.522063 
L 106.99169 33.977737 
L 107.630386 34.545613 
L 107.972934 35.282935 
L 108.367342 36.423266 
L 108.356424 36.826274 
L 108.136702 38.344426 
L 108.397366 37.838375 
L 108.930976 36.352282 
L 109.169805 36.036286 
L 109.287172 35.635568 
L 108.754926 33.872405 
L 108.595252 33.524353 
L 108.386448 32.244343 
L 108.099854 31.626091 
L 107.682245 31.431456 
L 107.417487 31.843624 
L 107.482994 32.649641 
L 107.908791 34.119706 
L 107.444782 34.030403 
L 106.844299 33.30453 
L 106.535869 32.965636 
L 105.549167 32.683988 
L 105.143841 32.326776 
L 105.263938 31.619222 
L 106.179674 29.826292 
L 106.179674 29.508007 
L 107.379275 29.700352 
L 107.908791 29.508007 
L 109.109757 28.507355 
L 109.532824 28.356227 
L 110.100553 28.56918 
L 111.19234 30.334632 
L 110.98763 32.068027 
L 110.905746 32.388601 
L 111.08862 32.890072 
L 111.525335 33.267893 
L 112.488837 33.735016 
L 112.505213 34.399064 
L 112.77816 35.154705 
L 113.168474 35.777536 
L 113.995502 36.459903 
L 114.063739 37.382701 
L 113.868582 38.310078 
L 113.539681 38.729116 
L 113.037459 38.868795 
L 112.640322 39.209978 
L 112.030286 39.917533 
L 110.198814 41.067023 
L 110.198814 41.451713 
L 112.206337 41.080762 
L 112.854585 41.415076 
L 112.488837 42.603493 
L 112.091699 43.01566 
L 110.428089 44.1766 
L 109.309008 45.70849 
L 108.844998 46.100049 
L 108.844998 46.484739 
L 109.512353 46.285525 
L 110.119659 45.873357 
L 113.303582 42.880561 
L 113.654319 42.798127 
L 113.943642 42.191325 
L 114.617821 41.895938 
L 115.38753 41.710463 
L 115.964813 41.451713 
L 116.398798 40.760187 
L 116.604873 39.848838 
L 116.457481 39.065719 
L 115.841987 38.729116 
L 115.682313 38.495554 
L 115.821516 37.984924 
L 116.173617 37.192646 
L 116.173617 35.846231 
L 115.933424 35.750059 
L 114.590526 33.735016 
L 113.539681 32.773291 
L 113.266735 31.797828 
L 113.272194 31.248271 
L 114.020068 30.595672 
L 114.384451 29.617918 
L 114.473159 28.479877 
L 114.112869 27.584557 
L 114.680599 27.648672 
L 115.171903 27.861625 
L 115.64683 27.941769 
L 116.173617 27.584557 
L 116.034414 27.112854 
L 115.964813 26.817467 
L 116.632167 27.373894 
L 117.344558 27.792931 
L 118.084244 27.772322 
L 119.362999 26.439647 
L 120.042636 26.233563 
L 120.714085 26.558717 
L 121.231319 27.584557 
L 120.296477 27.584557 
L 120.936537 28.040231 
L 121.676222 28.372256 
L 122.421367 28.397444 
L 123.087357 27.93719 
L 120.94336 26.288518 
L 119.936187 25.056595 
L 119.858397 23.742238 
L 118.56463 22.888134 
L 118.275306 22.519473 
L 118.804823 22.176 
L 119.412129 22.311099 
L 120.546223 22.9408 
L 123.403975 23.820091 
L 124.693648 24.497878 
L 125.14401 24.86425 
L 126.863574 27.394502 
L 127.36989 27.834148 
L 127.36989 27.834148 
" clip-path="url(#pad8b94d308)" style="fill: none; stroke: #000000; stroke-width: 2"/>
   </g>
  </g>
 </g>
 <defs>
  <clipPath id="pad8b94d308">
   <rect x="0" y="-0" width="180.496916" height="266.112"/>
  </clipPath>
 </defs>
</svg>
