<?xml version="1.0" encoding="utf-8" standalone="no"?>
<!DOCTYPE svg PUBLIC "-//W3C//DTD SVG 1.1//EN"
  "http://www.w3.org/Graphics/SVG/1.1/DTD/svg11.dtd">
<svg xmlns:xlink="http://www.w3.org/1999/xlink" width="294.774884pt" height="266.112pt" viewBox="0 0 294.774884 266.112" xmlns="http://www.w3.org/2000/svg" version="1.1">
 <metadata>
  <rdf:RDF xmlns:dc="http://purl.org/dc/elements/1.1/" xmlns:cc="http://creativecommons.org/ns#" xmlns:rdf="http://www.w3.org/1999/02/22-rdf-syntax-ns#">
   <cc:Work>
    <dc:type rdf:resource="http://purl.org/dc/dcmitype/StillImage"/>
    <dc:date>2024-02-02T21:58:02.356883</dc:date>
    <dc:format>image/svg+xml</dc:format>
    <dc:creator>
     <cc:Agent>
      <dc:title>Matplotlib v3.8.2, https://matplotlib.org/</dc:title>
     </cc:Agent>
    </dc:creator>
   </cc:Work>
  </rdf:RDF>
 </metadata>
 <defs>
  <style type="text/css">*{stroke-linejoin: round; stroke-linecap: butt}</style>
 </defs>
 <g id="figure_1">
  <g id="patch_1">
   <path d="M 0 266.112 
L 294.774884 266.112 
L 294.774884 0 
L 0 0 
L 0 266.112 
z
" style="fill: none"/>
  </g>
  <g id="axes_1">
   <g id="PatchCollection_1">
    <path d="M 165.0381 231.79896 
L 164.937653 231.8928 
L 164.833065 231.902613 
L 164.761613 231.949226 
L 164.63942 231.825333 
L 164.580395 231.8744 
L 164.587643 231.781786 
L 164.545187 231.689786 
L 164.499623 231.542586 
L 164.682912 231.435253 
L 164.902445 231.372693 
L 164.965613 231.480026 
L 164.981146 231.626 
L 165.0381 231.79896 
" clip-path="url(#pac83e93a40)" style="fill: none; stroke: #000000; stroke-width: 2"/>
    <path d="M 158.661294 231.267813 
L 158.533924 231.370239 
L 158.36099 231.326079 
L 158.158025 231.225493 
L 158.10832 231.058053 
L 158.274005 230.962373 
L 158.57638 230.866079 
L 158.640583 230.998559 
L 158.661294 231.267813 
" clip-path="url(#pac83e93a40)" style="fill: none; stroke: #000000; stroke-width: 2"/>
    <path d="M 158.319568 225.960637 
L 158.251223 225.975357 
L 158.102107 225.92629 
L 157.95299 225.84349 
L 157.884645 225.75517 
L 157.868076 225.557063 
L 157.838046 225.406183 
L 157.832868 225.26573 
L 157.832868 225.265116 
L 157.884645 225.09093 
L 157.963345 224.974396 
L 158.071041 224.916129 
L 158.193234 224.94373 
L 158.319568 225.09093 
L 158.406553 225.133863 
L 158.47904 225.195196 
L 158.540137 225.276156 
L 158.586736 225.380423 
L 158.319568 225.960637 
" clip-path="url(#pac83e93a40)" style="fill: none; stroke: #000000; stroke-width: 2"/>
    <path d="M 152.232711 222.314368 
L 152.090844 222.395942 
L 151.151616 222.339515 
L 151.054276 222.333381 
L 150.64317 222.123008 
L 150.385322 221.675888 
L 150.512693 221.464901 
L 150.700124 221.315248 
L 150.927941 221.240421 
L 151.174398 221.255141 
L 151.388753 221.333648 
L 151.860956 221.383941 
L 152.042174 221.460608 
L 152.042174 221.461221 
L 152.065991 221.526234 
L 152.077382 221.558128 
L 152.077382 221.559968 
L 152.072204 221.696128 
L 152.072204 221.696741 
L 152.074275 221.713301 
L 152.085666 221.818181 
L 152.087737 221.819408 
L 152.177828 221.872155 
L 152.231676 221.923675 
L 152.263777 221.953728 
L 152.275168 222.040208 
L 152.28863 222.134048 
L 152.259635 222.224208 
L 152.232711 222.314368 
" clip-path="url(#pac83e93a40)" style="fill: none; stroke: #000000; stroke-width: 2"/>
    <path d="M 175.6668 220.355994 
L 175.407917 220.517914 
L 175.202882 220.397087 
L 175.231877 220.049327 
L 175.395491 219.712607 
L 175.601562 219.543327 
L 175.725825 219.516953 
L 175.824201 219.67642 
L 175.849054 220.032154 
L 175.6668 220.355994 
" clip-path="url(#pac83e93a40)" style="fill: none; stroke: #000000; stroke-width: 2"/>
    <path d="M 147.28494 219.67642 
L 147.12029 219.852447 
L 146.896615 219.81994 
L 146.673976 219.699727 
L 146.547641 219.5145 
L 146.649123 219.350127 
L 146.902828 219.340927 
L 147.033305 219.375887 
L 147.183458 219.450713 
L 147.28494 219.67642 
" clip-path="url(#pac83e93a40)" style="fill: none; stroke: #000000; stroke-width: 2"/>
    <path d="M 143.757918 217.652419 
L 143.573593 217.705166 
L 143.084822 217.661006 
L 142.932599 217.699646 
L 142.702711 217.839486 
L 142.45729 217.840099 
L 141.732417 217.706392 
L 141.508742 217.605806 
L 141.481819 217.587406 
L 141.311991 217.470872 
L 140.913311 217.118205 
L 140.798367 216.977752 
L 140.848073 216.912739 
L 140.9392 216.890045 
L 141.040682 216.850179 
L 141.162875 216.842205 
L 142.236721 217.192419 
L 143.190446 217.267246 
L 143.486608 217.390526 
L 143.653329 217.551832 
L 143.757918 217.652419 
" clip-path="url(#pac83e93a40)" style="fill: none; stroke: #000000; stroke-width: 2"/>
    <path d="M 181.895525 217.116365 
L 181.40986 217.283192 
L 181.171688 217.180766 
L 181.229678 216.779032 
L 181.411931 216.503645 
L 181.735017 216.346018 
L 182.213433 216.296952 
L 182.277636 216.761245 
L 181.895525 217.116365 
" clip-path="url(#pac83e93a40)" style="fill: none; stroke: #000000; stroke-width: 2"/>
    <path d="M 179.251812 216.089645 
L 178.962898 216.764925 
L 178.816888 217.026205 
L 178.290838 217.595992 
L 178.207996 217.797166 
L 178.099265 217.920446 
L 177.615671 218.179886 
L 177.505905 218.317273 
L 177.397174 218.391486 
L 176.770677 219.03242 
L 176.39685 219.263033 
L 176.103795 219.131167 
L 175.826272 218.832473 
L 175.501115 218.560153 
L 174.650943 219.02506 
L 174.414842 219.2385 
L 174.178741 219.38202 
L 173.906396 219.379567 
L 173.327533 219.289407 
L 173.069686 219.350127 
L 172.798376 219.48506 
L 172.112854 220.007007 
L 171.401444 220.32778 
L 170.969627 220.665114 
L 170.745952 220.791461 
L 169.959983 220.885914 
L 169.401832 221.048448 
L 169.16573 221.207301 
L 169.048715 221.255141 
L 169.04768 221.255141 
L 169.010401 221.247781 
L 168.94102 221.232448 
L 168.797081 221.181541 
L 168.667639 221.181541 
L 168.612756 221.310341 
L 168.554766 221.413381 
L 168.416005 221.493728 
L 168.260675 221.544634 
L 168.14366 221.563648 
L 168.142625 221.563648 
L 168.088777 221.523781 
L 168.043214 221.490661 
L 167.977975 221.317701 
L 167.916879 220.945407 
L 168.002828 220.679834 
L 168.026645 220.509327 
L 167.960371 220.430821 
L 167.829894 219.96346 
L 167.968655 219.806447 
L 168.569264 220.030927 
L 168.708025 219.96346 
L 168.786726 219.98738 
L 168.824005 219.999034 
L 168.82504 219.99842 
L 169.497101 219.598527 
L 171.197444 219.011566 
L 171.444936 218.9809 
L 171.605444 218.91466 
L 171.651007 218.895646 
L 171.653078 218.895033 
L 172.24126 218.512313 
L 172.494966 218.293966 
L 173.327533 217.951726 
L 173.45801 217.941913 
L 173.722071 217.964606 
L 173.849441 217.951726 
L 173.942639 217.909406 
L 174.074152 217.791646 
L 174.19738 217.745646 
L 174.159066 217.644446 
L 174.103147 217.540792 
L 174.297827 217.305272 
L 174.34339 217.021912 
L 174.284365 216.348472 
L 174.184954 216.090872 
L 173.967492 215.870685 
L 173.755208 215.695885 
L 173.668223 215.575671 
L 173.991309 215.377565 
L 175.769318 216.089645 
L 176.25084 215.969432 
L 177.59289 215.051884 
L 179.274593 214.649538 
L 179.77372 214.639724 
L 180.024319 214.703511 
L 180.349476 214.855004 
L 180.55244 215.019991 
L 180.626998 215.079484 
L 180.72848 215.361005 
L 180.523445 215.484285 
L 180.31841 215.607565 
L 179.533476 215.822231 
L 179.251812 216.089645 
" clip-path="url(#pac83e93a40)" style="fill: none; stroke: #000000; stroke-width: 2"/>
    <path d="M 183.201331 213.986524 
L 183.002509 214.022711 
L 182.600722 213.858337 
L 182.629717 213.478684 
L 182.865818 213.13583 
L 183.089493 213.086763 
L 183.224112 213.181217 
L 183.371158 213.241324 
L 183.492315 213.344364 
L 183.498528 213.373804 
L 183.540985 213.563937 
L 183.493351 213.755297 
L 183.373229 213.896364 
L 183.282102 213.944204 
L 183.201331 213.986524 
" clip-path="url(#pac83e93a40)" style="fill: none; stroke: #000000; stroke-width: 2"/>
    <path d="M 104.876799 181.389067 
L 104.750876 181.409531 
L 104.624891 181.29085 
L 104.499155 180.958821 
L 104.419217 180.662414 
L 104.32761 180.484525 
L 104.476916 180.389879 
L 104.614555 180.449312 
L 104.843903 180.556312 
L 104.981446 180.639456 
L 104.923684 180.900109 
L 104.960677 181.16152 
L 104.876799 181.389067 
" clip-path="url(#pac83e93a40)" style="fill: none; stroke: #000000; stroke-width: 2"/>
    <path d="M 36.877437 27.47197 
L 37.254221 27.63321 
L 37.298935 27.686177 
L 37.869699 28.15899 
L 38.828426 29.607807 
L 39.043449 30.586926 
L 39.376833 30.491897 
L 40.735358 30.867343 
L 41.058879 30.782828 
L 41.061509 31.019235 
L 41.058879 31.148148 
L 41.603341 31.496332 
L 41.493528 31.718717 
L 41.688824 31.948113 
L 41.926862 32.129994 
L 42.264192 32.782351 
L 42.629139 33.0098 
L 42.53445 33.581148 
L 42.951345 33.909079 
L 44.011336 34.300882 
L 44.36379 34.312177 
L 45.088424 34.476143 
L 46.222062 34.487048 
L 47.166322 34.829 
L 49.847863 35.350885 
L 50.689544 35.702963 
L 51.553581 35.859918 
L 52.623436 35.657006 
L 53.699866 35.067743 
L 54.811148 34.975829 
L 56.365626 35.58145 
L 56.870634 35.466167 
L 57.449289 35.015944 
L 58.355411 33.731482 
L 59.302301 33.198691 
L 59.769171 32.443126 
L 60.153188 32.16972 
L 60.652935 31.461669 
L 61.060624 31.221757 
L 61.260523 31.216694 
L 61.806301 31.410259 
L 61.960828 31.383776 
L 62.942569 30.796849 
L 63.850006 29.156804 
L 64.458909 28.814073 
L 66.256686 28.083433 
L 68.259622 26.348748 
L 69.599735 25.937471 
L 70.501929 25.19241 
L 72.032717 24.402972 
L 73.023007 23.550818 
L 73.325486 23.47604 
L 74.449918 23.457346 
L 74.910212 23.185498 
L 75.156141 23.340506 
L 75.93601 24.006494 
L 78.074404 26.358874 
L 78.946333 27.097303 
L 79.304047 27.547527 
L 79.586799 28.09356 
L 79.122559 28.229873 
L 78.453161 28.645045 
L 77.656194 28.792263 
L 77.227463 28.996344 
L 76.859228 29.319601 
L 76.625136 29.748015 
L 76.601464 30.265616 
L 76.77243 30.669493 
L 77.0828 31.074149 
L 77.807434 31.721833 
L 78.726049 32.172836 
L 79.177795 33.121187 
L 79.109408 33.542201 
L 78.892412 33.899342 
L 78.368335 34.199232 
L 75.975464 34.681002 
L 75.941271 34.892093 
L 75.156141 35.445136 
L 75.186389 36.065167 
L 75.438893 36.495139 
L 76.266107 37.107381 
L 78.111228 38.003933 
L 78.204602 38.348222 
L 78.175669 38.89737 
L 78.992362 39.630347 
L 79.222509 39.83248 
L 79.613759 39.841049 
L 80.258828 39.561801 
L 80.558019 39.561801 
L 81.161004 40.664771 
L 81.773853 41.435915 
L 83.07362 42.915043 
L 83.967482 42.87928 
L 84.634251 42.554464 
L 85.170165 42.173955 
L 85.577196 42.176681 
L 86.398768 42.335983 
L 86.436045 43.660703 
L 86.292106 44.102304 
L 86.381162 44.42369 
L 86.406015 45.219798 
L 86.646258 45.776705 
L 86.82437 47.620385 
L 87.35042 49.3782 
L 87.237547 50.00932 
L 87.38977 50.56684 
L 87.843333 51.409561 
L 87.784308 51.652441 
L 87.917892 52.243694 
L 88.182988 52.810415 
L 88.828124 53.719375 
L 89.684509 54.555962 
L 90.614417 55.184016 
L 92.666841 56.189883 
L 93.619531 56.49287 
L 98.511384 57.115404 
L 99.470286 56.87191 
L 99.880357 56.800763 
L 100.334956 57.02279 
L 100.072966 57.00439 
L 99.999443 56.993964 
L 99.900032 57.115404 
L 100.961452 57.504871 
L 103.212699 58.083244 
L 103.615521 58.443884 
L 103.56478 58.987911 
L 104.142607 60.230525 
L 104.441875 61.045646 
L 104.823987 61.641806 
L 105.26823 62.044766 
L 106.187782 62.701647 
L 107.008959 63.53394 
L 107.256451 63.601407 
L 108.9278 64.563727 
L 109.104876 64.640394 
L 109.670276 65.181354 
L 111.677137 66.219728 
L 113.507958 67.454369 
L 114.575591 67.916209 
L 118.128501 68.58597 
L 120.396316 69.21341 
L 122.749045 69.615757 
L 125.014789 70.24197 
L 127.369589 69.943277 
L 129.462399 69.21341 
L 131.650478 68.69821 
L 136.088768 67.865302 
L 140.369657 66.631275 
L 145.162099 65.641968 
L 150.169932 65.371488 
L 151.084307 65.163568 
L 151.70459 64.666154 
L 151.675595 65.239008 
L 150.954865 65.478208 
L 149.467841 65.756661 
L 149.126116 65.805728 
L 148.593852 65.733355 
L 148.046056 65.901408 
L 146.648088 65.807568 
L 146.747499 65.976848 
L 146.926646 66.032662 
L 147.343965 66.013648 
L 146.989813 66.107488 
L 147.297366 66.496342 
L 147.817203 66.716529 
L 149.993891 66.990689 
L 150.211353 67.063062 
L 151.955189 66.528235 
L 152.042174 66.276768 
L 151.979006 64.461301 
L 151.550296 64.266261 
L 151.58654 64.046687 
L 151.876488 63.53394 
L 151.574113 63.088047 
L 151.371149 62.534206 
L 151.087413 61.260926 
L 150.644205 60.063085 
L 150.524092 58.7856 
L 154.248452 59.059291 
L 154.714007 58.752391 
L 154.949414 58.603615 
L 156.255334 58.485217 
L 158.696207 57.265407 
L 159.752253 57.421193 
L 159.942946 57.33629 
L 160.255946 57.018485 
L 160.666265 56.781689 
L 161.652609 56.044039 
L 161.847248 54.652863 
L 161.652609 54.443719 
L 161.639458 54.126304 
L 162.140521 52.869105 
L 162.521907 52.479248 
L 164.432785 51.24386 
L 165.127171 50.463757 
L 165.194243 50.258898 
L 165.755801 49.98705 
L 166.00436 49.597583 
L 167.257675 49.092834 
L 168.113822 48.764903 
L 168.258485 48.746209 
L 169.730111 47.734763 
L 170.039165 47.617534 
L 170.847968 47.584818 
L 173.742559 47.090974 
L 174.530319 47.253772 
L 175.214185 47.582482 
L 176.076907 47.651028 
L 176.796281 47.885487 
L 178.616415 47.575471 
L 179.192557 47.660933 
L 179.794767 47.841088 
L 181.084905 47.530293 
L 181.257187 47.013081 
L 181.196691 46.751359 
L 180.850813 46.379808 
L 180.931036 46.174169 
L 182.161993 45.198944 
L 182.624917 45.03381 
L 184.00843 45.04861 
L 184.517383 45.343047 
L 184.722543 45.308384 
L 185.74308 44.890097 
L 186.47429 44.81493 
L 187.408029 45.427561 
L 187.605298 45.487929 
L 190.514356 45.935816 
L 191.511221 44.963706 
L 191.882087 44.711332 
L 192.160893 44.711332 
L 192.573843 44.883087 
L 192.961805 45.690451 
L 193.340561 46.422649 
L 193.757456 46.843663 
L 193.90475 47.294276 
L 194.240107 47.920539 
L 194.208544 48.171355 
L 193.957355 48.967426 
L 194.279561 49.368187 
L 196.31143 50.02327 
L 196.725694 49.934082 
L 198.920639 50.309529 
L 199.191555 50.416242 
L 199.504555 50.395211 
L 199.97537 50.873866 
L 200.605315 50.797141 
L 201.045882 50.908529 
L 203.040927 51.807418 
L 204.825553 52.272442 
L 204.809771 52.601152 
L 205.0557 53.066175 
L 205.151704 53.721258 
L 205.585695 53.96857 
L 206.737745 54.18005 
L 207.250644 54.45034 
L 208.623636 54.243144 
L 209.261471 53.394885 
L 209.51003 53.37697 
L 209.71782 53.478231 
L 210.356971 54.011022 
L 211.194706 54.264175 
L 211.591874 54.172261 
L 211.76284 54.012969 
L 212.44276 54.009074 
L 212.612412 53.810057 
L 212.713676 53.481347 
L 213.476449 53.881719 
L 214.966486 54.312469 
L 215.314995 54.485782 
L 215.825263 54.612358 
L 216.240843 55.017404 
L 217.93867 56.169447 
L 218.210901 56.193594 
L 218.925014 55.885136 
L 219.218287 55.957966 
L 219.71935 56.508283 
L 219.778531 56.707301 
L 219.815355 57.206597 
L 219.798258 57.466372 
L 219.677266 57.782619 
L 219.707514 58.098087 
L 220.105997 59.344381 
L 221.217278 60.32389 
L 221.119959 60.822797 
L 221.514497 61.033888 
L 221.727547 61.09075 
L 222.319354 60.970795 
L 222.623148 61.422576 
L 222.771757 61.957314 
L 223.063715 62.060523 
L 223.556887 61.695982 
L 225.388857 62.260709 
L 226.690831 63.189977 
L 227.735041 63.366795 
L 228.213747 63.563086 
L 228.591188 64.04213 
L 229.068578 65.00684 
L 229.656439 65.860162 
L 231.272729 67.834759 
L 231.903989 69.197893 
L 232.324829 69.421447 
L 241.65433 69.260986 
L 242.80375 69.43391 
L 243.012855 70.860916 
L 242.831368 71.461474 
L 242.907645 71.687365 
L 242.560452 73.640152 
L 242.681443 74.173721 
L 242.64725 74.278098 
L 242.949729 74.497758 
L 243.075981 74.902024 
L 243.123326 75.398205 
L 243.308758 75.692642 
L 243.528384 77.253625 
L 243.291662 77.660229 
L 243.107544 78.184451 
L 242.907645 78.301291 
L 242.915536 78.786567 
L 242.907645 78.927554 
L 242.346086 79.469692 
L 243.312704 79.922252 
L 243.648061 80.371697 
L 243.841384 80.891246 
L 243.95317 81.902302 
L 243.95317 82.350968 
L 243.871632 83.208574 
L 243.659897 83.478085 
L 243.609922 83.568441 
L 243.6428 83.97115 
L 244.352968 85.532912 
L 244.305624 86.150606 
L 243.58625 87.549571 
L 243.11675 88.527912 
L 243.175931 89.30373 
L 243.074666 89.570904 
L 242.526259 89.756291 
L 242.255343 89.762522 
L 242.07254 89.908962 
L 241.996263 90.698021 
L 242.129091 90.908334 
L 242.12383 91.053215 
L 241.919986 91.186413 
L 241.985742 91.336747 
L 242.473654 91.993388 
L 242.4342 92.422581 
L 242.568343 92.559673 
L 242.168544 93.196062 
L 242.092267 93.819209 
L 241.617507 95.450296 
L 241.683263 95.861573 
L 241.526763 96.891324 
L 241.136171 97.019069 
L 241.063839 97.268327 
L 240.816595 97.701415 
L 240.18402 98.270815 
L 240.026205 99.555277 
L 239.280529 99.80142 
L 239.216087 99.921376 
L 238.390189 100.732246 
L 237.059281 101.071082 
L 236.872534 101.388108 
L 237.117147 101.46717 
L 237.198685 101.570768 
L 237.420941 102.035402 
L 237.886495 102.312313 
L 239.300255 104.364803 
L 236.159736 104.5498 
L 236.247849 104.870721 
L 236.049265 105.083759 
L 235.444307 105.399617 
L 234.597366 106.366273 
L 234.239652 107.076272 
L 234.184789 107.952046 
L 234.32382 109.258454 
L 234.68811 111.561761 
L 234.660492 112.154141 
L 234.16469 113.522338 
L 234.481635 114.622582 
L 235.283862 115.385158 
L 236.310975 115.805782 
L 237.30784 115.881728 
L 238.734751 115.867707 
L 239.359436 116.088535 
L 239.686902 116.495917 
L 239.575117 116.685588 
L 239.387054 116.753355 
L 238.783411 116.79347 
L 238.558525 116.942246 
L 238.566415 117.409996 
L 238.519071 117.970439 
L 238.386243 118.142194 
L 237.602428 118.723278 
L 235.114211 122.175512 
L 235.132622 123.366892 
L 235.318055 124.330433 
L 238.534852 135.566941 
L 238.50855 136.794541 
L 238.261306 138.245694 
L 237.829945 138.908567 
L 238.054832 139.148478 
L 237.971979 139.635312 
L 238.085079 139.944549 
L 238.107437 140.271701 
L 238.040365 141.933167 
L 238.216592 143.328237 
L 238.085079 144.794969 
L 238.275773 145.523272 
L 238.425697 146.935479 
L 238.849167 147.115413 
L 249.434613 148.766752 
L 249.684487 148.967717 
L 250.227634 149.833891 
L 250.144781 150.781075 
L 251.146907 153.570437 
L 251.210033 154.166321 
L 250.931226 155.149335 
L 250.903609 156.222706 
L 250.870731 156.616846 
L 250.902294 156.697077 
L 249.634513 158.227681 
L 238.713709 171.602752 
L 244.495002 178.619777 
L 244.986859 178.89513 
L 245.080233 179.571245 
L 244.928993 180.394577 
L 245.049985 180.701867 
L 245.618119 181.423549 
L 245.89298 182.29907 
L 246.263846 182.433826 
L 246.893791 183.589764 
L 246.649177 183.909126 
L 246.776745 184.076208 
L 247.083169 184.271331 
L 247.194955 184.427117 
L 247.806488 186.004458 
L 247.902492 186.483113 
L 248.269412 186.909579 
L 248.633702 187.739144 
L 249.003252 188.211177 
L 250.315748 189.452798 
L 250.844428 190.16708 
L 252.289751 191.566435 
L 253.051209 191.78882 
L 254.043471 192.281106 
L 255.295471 192.447798 
L 256.354147 192.942421 
L 258.034877 193.297615 
L 258.53594 193.671113 
L 258.775293 194.056296 
L 259.414444 194.491331 
L 259.68273 195.079036 
L 260.743379 196.159417 
L 262.82588 195.717762 
L 263.108632 195.896917 
L 263.170443 196.423865 
L 262.779851 199.687208 
L 263.347327 202.178238 
L 263.785264 207.224171 
L 263.707672 207.851213 
L 263.03893 209.437901 
L 263.35193 209.920839 
L 263.192142 210.549439 
L 263.066548 210.649921 
L 262.864676 210.663163 
L 263.606407 211.290984 
L 263.881926 211.180375 
L 264.073934 211.19907 
L 264.372468 211.37433 
L 265.120117 211.445992 
L 268.396752 210.789351 
L 268.555225 210.849329 
L 269.029327 211.263721 
L 269.459373 211.462349 
L 269.776976 211.901668 
L 270.21031 212.916619 
L 269.713193 212.82782 
L 269.463319 212.942323 
L 269.087193 213.692437 
L 269.068781 213.870034 
L 269.247638 215.853978 
L 269.513294 216.342369 
L 269.472525 216.618112 
L 269.281832 216.80194 
L 268.555225 217.006021 
L 268.462508 217.243596 
L 268.227101 220.034515 
L 267.813494 220.325057 
L 267.390681 220.135776 
L 267.019815 220.223796 
L 262.869279 220.091377 
L 262.350462 220.653767 
L 261.848742 220.740229 
L 261.569935 220.636631 
L 260.99391 221.005067 
L 258.64378 221.364934 
L 258.466239 221.632887 
L 257.214239 222.089342 
L 257.110344 222.335485 
L 257.208978 222.612786 
L 257.077466 222.875286 
L 256.586924 223.479739 
L 256.792084 224.317093 
L 256.515907 224.472879 
L 256.038517 224.401997 
L 254.994307 224.120801 
L 254.778626 224.4869 
L 254.616866 225.012681 
L 253.829106 225.192614 
L 253.135377 225.640501 
L 251.600625 226.104746 
L 251.292886 226.361015 
L 250.999613 227.2342 
L 250.294706 232.47175 
L 250.101382 232.723346 
L 249.364912 232.840965 
L 249.096626 233.237442 
L 249.263647 234.909034 
L 248.878315 235.586706 
L 248.583727 240.528262 
L 248.178891 241.785258 
L 247.810242 241.048644 
L 247.749145 241.001418 
L 247.588638 241.174991 
L 247.601064 241.581018 
L 247.798851 241.809178 
L 247.110222 241.684058 
L 246.834771 241.912218 
L 247.259339 242.090085 
L 247.363927 242.221338 
L 246.922791 243.043819 
L 246.739502 243.148699 
L 246.045695 243.371339 
L 246.23002 243.509339 
L 245.932866 243.936 
L 243.048853 242.973706 
L 243.054037 242.727132 
L 242.860534 242.352823 
L 241.083426 241.669338 
L 238.997865 241.295205 
L 237.229176 240.846244 
L 235.819817 240.562884 
L 236.015532 240.368457 
L 235.667594 239.690724 
L 235.624101 238.712457 
L 234.963432 238.09483 
L 234.51194 238.088696 
L 233.421525 238.506376 
L 233.035271 239.330084 
L 233.147109 239.67723 
L 233.53854 239.798057 
L 233.723471 240.047447 
L 233.582032 240.059337 
L 233.950684 240.262964 
L 233.914839 240.456064 
L 233.358488 240.234654 
L 232.582744 239.848964 
L 232.031309 239.859531 
L 231.663192 239.536164 
L 231.837161 239.236857 
L 231.420877 239.109897 
L 230.533426 239.236857 
L 230.419518 239.463177 
L 230.451619 239.53739 
L 230.717497 239.732481 
L 230.631425 240.012719 
L 230.284899 240.009657 
L 229.889325 239.777817 
L 229.354991 239.62939 
L 229.013219 239.315409 
L 227.216307 239.481795 
L 226.745282 239.859351 
L 226.209452 239.660482 
L 225.677171 239.115664 
L 225.104659 238.954875 
L 223.057574 239.0467 
L 222.090412 238.80593 
L 221.485401 238.146977 
L 221.020423 237.873534 
L 217.730109 238.456696 
L 216.735998 238.88971 
L 216.534069 238.76827 
L 216.332141 238.732697 
L 216.096039 238.824697 
L 215.552385 238.75355 
L 215.172345 238.506376 
L 214.271432 237.093256 
L 213.774377 236.850376 
L 213.213118 236.798856 
L 212.874499 236.335789 
L 211.784084 236.335789 
L 209.472777 235.883148 
L 208.680595 236.018695 
L 207.760007 235.847575 
L 207.851134 235.606535 
L 207.070343 235.718775 
L 206.32476 236.091682 
L 206.219135 236.032802 
L 205.83806 236.303895 
L 205.605065 236.218029 
L 205.157715 236.551682 
L 204.688619 236.630189 
L 203.450123 236.335789 
L 203.108397 236.165282 
L 202.827768 235.759255 
L 202.447728 234.895681 
L 202.052155 234.382934 
L 201.569597 234.260268 
L 201.044582 234.406241 
L 200.528887 234.689601 
L 199.815406 235.253255 
L 199.615548 235.251415 
L 199.739812 234.165814 
L 199.609335 233.821121 
L 199.410513 233.635894 
L 198.826473 233.548801 
L 197.680139 233.722374 
L 197.266962 233.548801 
L 196.420932 233.623627 
L 195.553156 233.332294 
L 195.648425 233.23968 
L 193.759615 233.012134 
L 193.668488 232.776614 
L 193.596001 232.038773 
L 192.591535 229.833225 
L 192.299515 229.770665 
L 192.041667 228.800371 
L 191.889444 228.327491 
L 191.970215 228.015304 
L 192.50455 227.252317 
L 192.330581 226.77085 
L 191.488693 225.78277 
L 191.462805 225.287196 
L 191.299191 224.266609 
L 190.766927 223.013569 
L 190.984389 221.133088 
L 190.940897 220.430821 
L 189.938502 216.661272 
L 189.352391 216.024632 
L 189.368959 215.781751 
L 188.848087 215.361005 
L 189.172208 215.315618 
L 189.455944 215.154924 
L 189.33168 214.910204 
L 189.455944 214.639724 
L 188.817021 214.814524 
L 188.40695 214.428124 
L 188.083864 214.506017 
L 188.057976 214.228791 
L 187.807377 214.188924 
L 187.811519 214.078524 
L 187.993773 213.969964 
L 188.327214 213.508124 
L 187.954422 213.453537 
L 187.649976 213.235804 
L 187.443905 212.921163 
L 187.363134 212.581377 
L 187.052474 212.796043 
L 186.517104 212.731643 
L 186.182627 212.376523 
L 184.487461 212.376523 
L 184.178873 212.194976 
L 183.796762 212.111563 
L 182.625575 211.988896 
L 181.563119 211.646043 
L 180.374328 211.802443 
L 179.808928 212.154496 
L 178.64499 212.26367 
L 178.286696 212.632897 
L 178.192463 212.842657 
L 177.984321 212.942017 
L 177.764788 213.138283 
L 176.601885 213.960764 
L 176.530434 214.070551 
L 176.159713 214.331831 
L 174.364101 214.568578 
L 174.063797 214.742764 
L 172.819087 214.753804 
L 171.401444 216.193912 
L 171.756631 215.987832 
L 171.808408 216.357058 
L 171.580591 217.235352 
L 171.401444 217.540792 
L 170.98516 217.932099 
L 170.505709 218.189086 
L 169.973445 218.303779 
L 169.401832 218.270046 
L 168.376655 217.894073 
L 167.792615 217.811886 
L 167.310057 218.054766 
L 166.96626 218.809166 
L 165.660455 219.18698 
L 163.464091 221.126341 
L 161.527646 222.253648 
L 161.161068 222.086821 
L 160.068582 222.191088 
L 159.51043 222.097248 
L 158.763812 220.945407 
L 158.195305 220.827034 
L 157.03758 220.874874 
L 156.576768 220.636901 
L 155.542272 218.9809 
L 155.017257 218.969246 
L 154.771836 219.04346 
L 153.535411 219.083326 
L 152.060813 218.523966 
L 151.822641 218.461406 
L 151.559616 218.519673 
L 150.722906 218.935513 
L 149.341506 219.18698 
L 148.46234 218.964953 
L 148.164106 219.13546 
L 148.008777 219.077806 
L 147.343965 218.466926 
L 146.387133 217.868926 
L 144.96949 216.642872 
L 144.895967 216.348472 
L 144.764455 215.331565 
L 144.548029 215.051884 
L 144.141065 214.782018 
L 139.091811 212.916257 
L 138.79772 212.46975 
L 138.03971 212.267963 
L 137.92166 212.118923 
L 137.811893 211.791403 
L 137.551975 211.623963 
L 136.966899 211.439963 
L 135.489195 210.142762 
L 133.82406 209.365055 
L 133.56207 209.073721 
L 133.541359 208.764601 
L 133.661481 208.572628 
L 134.139897 208.446281 
L 134.653521 208.424201 
L 134.811957 208.274548 
L 134.699084 207.922494 
L 134.49612 207.737881 
L 133.78678 207.361907 
L 133.395349 206.53452 
L 132.021198 205.148999 
L 131.556245 204.938013 
L 129.28843 204.414226 
L 128.808978 204.160306 
L 126.841467 202.364465 
L 126.315417 202.133238 
L 125.710667 202.046758 
L 124.625429 202.093371 
L 124.386221 201.934518 
L 123.440345 202.09187 
L 122.645108 202.247681 
L 120.893372 201.882998 
L 120.704905 201.456117 
L 119.764564 201.223839 
L 119.493179 200.91576 
L 119.200272 200.402741 
L 118.895883 200.197256 
L 118.797257 200.618495 
L 118.536024 200.640921 
L 118.286566 199.740966 
L 118.036391 199.364737 
L 117.840575 198.817725 
L 117.1426 197.779918 
L 116.880345 197.494516 
L 116.817518 197.191609 
L 117.098147 196.381395 
L 117.078472 195.980275 
L 116.817518 195.534994 
L 116.216909 194.917367 
L 115.768524 194.188727 
L 115.252829 193.570487 
L 114.370556 191.091392 
L 114.35813 189.170431 
L 114.196587 188.519071 
L 113.586658 187.56595 
L 113.176588 187.302217 
L 111.764122 186.909683 
L 111.666782 186.611603 
L 110.964691 185.539496 
L 110.888062 185.124269 
L 110.935696 184.751976 
L 111.198721 184.588829 
L 111.447249 184.678989 
L 111.907025 185.171496 
L 112.031289 185.421736 
L 112.14934 185.190509 
L 112.10999 184.897949 
L 112.543878 184.392562 
L 112.556304 183.714828 
L 112.43204 183.497708 
L 112.196974 183.560268 
L 112.004365 182.969628 
L 111.772406 182.849415 
L 111.503168 182.881308 
L 111.416183 182.418854 
L 111.111737 182.364881 
L 109.887738 182.470374 
L 109.550155 182.677681 
L 109.196003 182.632908 
L 108.915373 182.375921 
L 108.778683 181.591467 
L 108.9278 181.225307 
L 109.216713 180.660427 
L 109.409322 180.87448 
L 109.374114 180.112107 
L 109.140084 179.733066 
L 109.231211 179.363226 
L 109.160795 178.178266 
L 108.893627 177.456985 
L 108.452491 177.009252 
L 108.446277 177.459439 
L 108.371719 177.293225 
L 108.011354 176.730185 
L 107.230563 175.962904 
L 106.942685 175.413357 
L 106.526401 174.980344 
L 105.658625 174.512984 
L 105.393529 173.92541 
L 104.710078 173.022583 
L 103.825734 171.472075 
L 102.48472 170.148501 
L 102.427766 169.713035 
L 102.674222 169.600181 
L 102.427766 169.403914 
L 102.565491 168.893621 
L 102.273471 168.03986 
L 102.34803 167.6461 
L 101.969025 167.22658 
L 101.367381 166.3397 
L 101.029797 166.205379 
L 100.574163 166.150179 
L 99.635971 166.39122 
L 95.181113 169.211328 
L 94.771042 169.119328 
L 94.381682 168.336101 
L 94.277093 167.393407 
L 93.967469 167.02786 
L 93.447632 166.92482 
L 92.742435 166.99658 
L 92.451451 166.823006 
L 92.188425 166.868393 
L 91.450091 167.1309 
L 91.117685 167.106367 
L 90.997564 166.97634 
L 90.976853 166.30842 
L 90.740752 166.010339 
L 90.65998 165.373086 
L 90.452874 165.881539 
L 90.269585 166.060019 
L 90.052123 166.091913 
L 89.713504 165.752126 
L 89.576814 165.600019 
L 89.061119 165.473059 
L 88.045262 164.801459 
L 87.961384 164.315698 
L 87.737709 164.012098 
L 86.995233 163.725672 
L 87.130887 163.478498 
L 87.344207 163.419618 
L 88.135353 163.496898 
L 88.787738 163.313511 
L 89.046621 163.378525 
L 89.747677 163.725672 
L 90.243696 163.846498 
L 90.580244 164.240258 
L 90.896082 163.598098 
L 91.343431 162.944898 
L 91.355858 162.687298 
L 91.092833 162.741884 
L 90.90333 162.615538 
L 90.78528 162.383698 
L 90.685869 161.832924 
L 90.535716 161.904071 
L 90.139108 162.275137 
L 90.120468 161.796124 
L 89.62859 161.911431 
L 89.399738 161.65751 
L 88.880936 161.72007 
L 88.435658 161.637884 
L 88.219231 161.760551 
L 87.762562 161.693084 
L 87.400126 161.925537 
L 87.306928 162.234044 
L 88.373526 162.678098 
L 88.472937 162.945511 
L 88.219231 163.210471 
L 87.169202 163.154658 
L 86.310746 164.067298 
L 86.246543 164.255592 
L 86.391517 164.390525 
L 86.21237 164.698419 
L 86.306604 165.022259 
L 87.101892 165.958206 
L 87.256187 166.97634 
L 86.920674 168.829221 
L 86.429832 169.096021 
L 85.566199 168.991141 
L 85.343559 169.096021 
L 85.097103 168.977034 
L 84.206545 168.983781 
L 83.459926 168.629887 
L 83.487886 169.071488 
L 83.692921 169.563381 
L 83.562444 169.841835 
L 83.338769 170.022155 
L 83.046749 170.112928 
L 81.547651 169.890656 
L 81.040013 169.443548 
L 80.150988 167.106747 
L 80.498838 166.577851 
L 80.325899 166.133859 
L 79.422408 165.192128 
L 79.044967 164.645316 
L 78.730652 164.583781 
L 77.961304 164.646874 
L 77.718005 164.471614 
L 77.662112 164.327511 
L 77.443144 163.33515 
L 77.067018 162.803917 
L 76.793472 162.66994 
L 75.446783 162.47287 
L 75.427057 162.010184 
L 75.429687 154.556567 
L 75.293571 154.472442 
L 71.112129 154.471663 
L 71.188407 148.244088 
L 73.203179 142.567219 
L 73.167671 142.247077 
L 72.993417 141.977566 
L 72.287194 141.366882 
L 72.00773 140.76165 
L 71.690785 140.489023 
L 71.050318 139.131342 
L 70.605806 138.912462 
L 70.41051 138.68735 
L 69.904844 137.718356 
L 69.353806 137.462087 
L 69.087494 137.203481 
L 68.801454 137.078073 
L 68.81592 136.748584 
L 68.962557 135.900714 
L 68.441109 135.371818 
L 67.638883 134.10644 
L 67.847988 133.470441 
L 67.776971 133.360222 
L 67.223303 132.825484 
L 66.918194 132.40447 
L 66.645963 132.260757 
L 65.746417 132.000983 
L 64.93893 132.409144 
L 64.490472 132.457438 
L 64.089359 132.369029 
L 63.292393 131.865059 
L 57.467248 126.920058 
L 56.280143 126.234536 
L 55.923744 125.876227 
L 54.655305 125.273721 
L 53.304014 124.855823 
L 51.804113 125.023684 
L 51.059094 124.933717 
L 50.788178 124.328096 
L 51.42996 123.521899 
L 51.35697 123.315482 
L 50.934157 123.051034 
L 50.375229 122.987161 
L 50.197687 122.835659 
L 50.210181 122.65222 
L 50.465972 122.510065 
L 51.165619 122.460602 
L 51.777153 121.920022 
L 52.042808 121.514198 
L 52.034917 121.377884 
L 51.831073 121.144983 
L 51.800825 120.322819 
L 50.2858 118.699131 
L 50.212811 118.227876 
L 50.071435 117.637055 
L 49.926771 117.376891 
L 49.292223 116.747902 
L 49.165313 116.795028 
L 48.929906 117.017413 
L 48.544574 117.065707 
L 48.167133 116.978077 
L 47.948822 116.79347 
L 48.147406 116.534085 
L 48.751049 116.168765 
L 48.907549 115.941706 
L 48.81812 115.608322 
L 48.323633 115.198214 
L 48.373608 114.735137 
L 48.098746 114.802905 
L 47.248518 114.910008 
L 46.669205 115.400736 
L 46.446949 115.455651 
L 46.36015 115.350495 
L 46.275982 114.586751 
L 45.482962 113.969835 
L 45.181798 113.480275 
L 44.780684 112.477009 
L 44.413764 112.127267 
L 43.198588 110.058419 
L 42.491708 110.09464 
L 42.203038 109.93379 
L 41.940013 109.570417 
L 42.443706 109.256897 
L 43.198588 107.850921 
L 44.02909 106.901401 
L 43.827218 106.329664 
L 44.069202 105.90865 
L 44.264498 104.811522 
L 44.194796 104.46957 
L 43.9995 104.173575 
L 43.736475 104.00922 
L 43.452408 104.010778 
L 43.198588 104.210574 
L 42.963181 104.039988 
L 42.800105 103.714004 
L 42.406883 102.473942 
L 42.530505 102.275703 
L 43.290647 102.046307 
L 43.506328 101.723049 
L 43.524082 101.27672 
L 43.418214 100.666815 
L 43.470819 100.253202 
L 45.951146 100.877906 
L 46.078713 100.764961 
L 46.078713 100.345116 
L 45.93668 100.149603 
L 45.630256 98.894741 
L 45.492167 98.662619 
L 45.083163 98.306646 
L 45.180483 98.063619 
L 45.573705 97.494218 
L 45.584226 97.008943 
L 45.870266 96.772147 
L 46.232583 96.734758 
L 46.585037 96.495625 
L 46.708659 95.455749 
L 47.003247 95.441728 
L 47.725251 95.75408 
L 47.918574 95.503264 
L 48.157269 94.575554 
L 48.005372 93.777925 
L 48.201984 93.474141 
L 48.566931 93.320691 
L 48.544574 93.064422 
L 48.808914 92.747396 
L 50.143767 93.129853 
L 50.67179 92.759859 
L 51.64564 92.59862 
L 51.746905 92.416349 
L 51.48388 92.118018 
L 51.978367 90.839008 
L 51.786359 90.682443 
L 51.293186 90.687116 
L 51.115645 90.567161 
L 51.081451 90.329586 
L 51.445741 89.741491 
L 51.353682 89.297499 
L 51.049888 88.956326 
L 50.346296 88.347199 
L 49.366527 86.649903 
L 49.459901 86.290035 
L 49.628237 86.093744 
L 49.307347 85.375567 
L 49.426366 85.359989 
L 49.814985 85.474492 
L 49.850494 85.266517 
L 49.727529 84.43851 
L 49.872851 83.935319 
L 50.034611 83.762396 
L 50.296321 83.674376 
L 51.448371 83.64244 
L 52.086207 83.315288 
L 52.85161 83.312951 
L 53.960919 82.223222 
L 53.986564 81.987206 
L 53.891875 81.785462 
L 53.680139 81.639801 
L 53.405278 81.613317 
L 52.718783 81.953711 
L 51.905377 82.077562 
L 51.467441 81.805714 
L 51.195867 81.325112 
L 50.59354 81.177114 
L 49.887317 81.467657 
L 49.0772 81.431826 
L 48.536683 81.554897 
L 48.276288 81.50894 
L 47.721963 81.881271 
L 47.460253 81.899186 
L 47.111087 81.734831 
L 46.631066 81.87426 
L 46.402234 81.811945 
L 46.245734 81.613317 
L 45.920898 80.835941 
L 44.951651 79.69714 
L 44.441382 79.534343 
L 43.971225 79.116056 
L 43.198588 78.844208 
L 42.865862 78.84966 
L 41.675673 79.373883 
L 41.402127 79.337273 
L 41.17461 79.111382 
L 41.091757 78.868355 
L 41.323219 78.247545 
L 41.479719 78.008412 
L 41.532324 77.706186 
L 41.370564 77.401623 
L 40.976026 76.909337 
L 40.911585 76.592311 
L 40.883967 75.607738 
L 40.38948 75.072611 
L 40.697219 74.881772 
L 40.370411 74.327171 
L 40.276379 73.328578 
L 40.139606 72.950795 
L 39.916035 72.680505 
L 39.593829 72.657916 
L 38.510166 72.957806 
L 38.019624 72.643116 
L 37.679006 71.916371 
L 37.016183 70.740181 
L 37.268687 70.615552 
L 37.280523 70.297747 
L 37.684267 68.955644 
L 37.239754 68.088691 
L 36.838641 67.735055 
L 36.524326 67.685203 
L 35.932519 67.30041 
L 35.20657 67.249779 
L 34.952751 67.08854 
L 34.852801 66.826039 
L 34.989574 66.453709 
L 35.616889 65.657639 
L 35.685276 65.294656 
L 35.506419 64.04213 
L 35.666864 63.711862 
L 35.582696 63.576328 
L 34.948805 63.24606 
L 34.579255 63.295912 
L 34.456291 62.991349 
L 34.314915 62.82933 
L 34.05452 62.661081 
L 33.951283 62.246688 
L 34.203129 61.521501 
L 33.963776 60.706347 
L 34.21102 60.30909 
L 34.535856 60.028285 
L 34.57531 59.540283 
L 34.287297 59.222088 
L 33.554772 58.777707 
L 33.257554 58.223495 
L 32.79463 58.289705 
L 32.674953 58.163517 
L 32.496096 57.732767 
L 32.300142 57.592559 
L 31.655731 57.458582 
L 31.576823 57.21166 
L 31.746475 56.762605 
L 31.651786 55.824379 
L 31.800395 54.891606 
L 31.257905 54.414899 
L 31.419008 53.825635 
L 31.989773 53.294792 
L 31.96084 53.153805 
L 31.17571 52.357735 
L 30.819969 52.204674 
L 30.311673 52.328525 
L 29.928971 52.378766 
L 29.844145 52.117434 
L 29.885572 51.801187 
L 29.706715 51.74744 
L 29.521282 51.746661 
L 29.306917 51.38991 
L 29.18461 51.077557 
L 28.590173 50.778447 
L 28.437619 50.734826 
L 27.613035 50.825572 
L 27.169837 50.758194 
L 26.984069 50.314196 
L 27.133014 50.105837 
L 27.2448 49.944209 
L 27.271102 49.165275 
L 28.1404 47.687638 
L 28.623051 47.358149 
L 28.537568 46.943366 
L 29.046522 46.42966 
L 29.168828 45.840786 
L 29.114251 45.117935 
L 30.218299 44.01886 
L 30.115719 43.542152 
L 29.779047 43.195527 
L 29.418702 43.155801 
L 28.999177 43.38286 
L 28.05952 43.116854 
L 28.064123 42.738293 
L 28.154867 39.498318 
L 27.970749 39.150524 
L 27.523606 38.85375 
L 27.68997 38.640322 
L 27.539388 37.998481 
L 27.590678 37.697034 
L 27.935898 36.605747 
L 27.874745 36.163313 
L 26.993611 35.679595 
L 26.697707 35.114868 
L 26.606964 34.759674 
L 26.501754 34.52911 
L 26.309088 34.338661 
L 26.14667 33.896616 
L 26.654966 33.278921 
L 26.601703 32.445462 
L 26.854207 31.988618 
L 26.750312 31.617845 
L 25.349704 30.659757 
L 25.427296 30.253153 
L 25.224767 29.691153 
L 25.25896 29.479283 
L 24.564574 28.166779 
L 24.706607 27.984509 
L 25.15638 27.77186 
L 25.930989 27.769523 
L 26.925882 27.63321 
L 27.805043 28.034361 
L 28.408686 27.997751 
L 29.312177 27.557653 
L 29.526543 27.257764 
L 29.552188 26.363548 
L 29.686988 26.005238 
L 29.643589 25.350934 
L 29.701454 25.148411 
L 30.23145 23.940285 
L 30.222244 23.277412 
L 31.574193 22.260904 
L 31.888508 22.176 
L 32.084462 22.302187 
L 32.601964 22.959607 
L 33.610008 23.475261 
L 34.909352 24.327415 
L 35.474856 24.383498 
L 35.386742 24.496444 
L 35.655028 24.671704 
L 35.807582 24.997298 
L 36.345469 26.749899 
L 36.611782 26.965664 
L 36.553259 27.256206 
L 36.877437 27.47197 
L 36.877437 27.47197 
" clip-path="url(#pac83e93a40)" style="fill: none; stroke: #000000; stroke-width: 2"/>
   </g>
  </g>
 </g>
 <defs>
  <clipPath id="pac83e93a40">
   <rect x="0" y="-0" width="294.774884" height="266.112"/>
  </clipPath>
 </defs>
</svg>
