<?xml version="1.0" encoding="utf-8" standalone="no"?>
<!DOCTYPE svg PUBLIC "-//W3C//DTD SVG 1.1//EN"
  "http://www.w3.org/Graphics/SVG/1.1/DTD/svg11.dtd">
<svg xmlns:xlink="http://www.w3.org/1999/xlink" width="262.057649pt" height="266.112pt" viewBox="0 0 262.057649 266.112" xmlns="http://www.w3.org/2000/svg" version="1.1">
 <metadata>
  <rdf:RDF xmlns:dc="http://purl.org/dc/elements/1.1/" xmlns:cc="http://creativecommons.org/ns#" xmlns:rdf="http://www.w3.org/1999/02/22-rdf-syntax-ns#">
   <cc:Work>
    <dc:type rdf:resource="http://purl.org/dc/dcmitype/StillImage"/>
    <dc:date>2024-02-02T21:58:02.394892</dc:date>
    <dc:format>image/svg+xml</dc:format>
    <dc:creator>
     <cc:Agent>
      <dc:title>Matplotlib v3.8.2, https://matplotlib.org/</dc:title>
     </cc:Agent>
    </dc:creator>
   </cc:Work>
  </rdf:RDF>
 </metadata>
 <defs>
  <style type="text/css">*{stroke-linejoin: round; stroke-linecap: butt}</style>
 </defs>
 <g id="figure_1">
  <g id="patch_1">
   <path d="M 0 266.112 
L 262.057649 266.112 
L 262.057649 0 
L 0 0 
L 0 266.112 
z
" style="fill: none"/>
  </g>
  <g id="axes_1">
   <g id="PatchCollection_1">
    <path d="M 113.840343 23.52569 
L 114.739951 23.652525 
L 115.690306 23.340952 
L 116.260058 22.929428 
L 117.115838 22.582699 
L 118.01314 22.353845 
L 118.707452 22.292495 
L 119.090362 22.395893 
L 122.363551 23.983399 
L 122.561926 23.946176 
L 122.96675 23.65735 
L 123.647222 23.650457 
L 124.537603 24.309448 
L 125.446438 24.745788 
L 126.484447 25.559186 
L 126.848904 25.701186 
L 127.134933 25.663963 
L 127.963033 25.419943 
L 128.433598 25.557808 
L 128.841881 25.852148 
L 129.407019 26.072041 
L 129.944477 26.138216 
L 132.815149 26.040332 
L 133.565976 26.314682 
L 134.209541 26.866138 
L 134.490957 26.794449 
L 134.892321 26.401536 
L 136.089491 26.193361 
L 136.771117 25.442002 
L 137.431983 24.524516 
L 138.24855 23.856564 
L 139.257726 23.703535 
L 140.428369 23.892409 
L 143.081059 25.056671 
L 143.444362 25.415808 
L 143.708478 25.876963 
L 144.010654 27.073624 
L 144.006041 27.667129 
L 143.822659 27.979391 
L 143.060299 28.282003 
L 142.686616 28.746605 
L 142.495161 29.287722 
L 142.481321 29.856412 
L 142.647402 30.407868 
L 143.692331 32.629549 
L 143.893013 32.786714 
L 145.097104 32.995578 
L 145.307012 32.80119 
L 146.121272 31.061344 
L 148.017369 30.465771 
L 148.605574 30.156956 
L 149.159179 29.739227 
L 149.698944 29.082305 
L 150.501671 28.360586 
L 151.368985 27.753983 
L 152.084058 27.435517 
L 152.500415 27.417595 
L 154.840549 27.731925 
L 155.288046 27.947683 
L 155.562542 28.40746 
L 155.262673 29.437305 
L 155.571769 30.087334 
L 156.05848 30.319635 
L 156.360655 31.032393 
L 156.568257 31.075131 
L 157.22451 30.934509 
L 157.380211 31.018607 
L 157.633947 31.283306 
L 158.120658 31.528704 
L 158.268286 31.768588 
L 158.231379 32.058102 
L 157.98687 32.353132 
L 157.862309 33.064511 
L 158.300579 34.569987 
L 158.180631 35.212434 
L 157.872689 35.689444 
L 157.080342 36.621406 
L 156.840446 37.280396 
L 157.015755 37.744998 
L 157.460945 38.030377 
L 158.04223 38.157212 
L 159.057172 38.172377 
L 160.032901 38.880999 
L 160.323544 38.889271 
L 160.697227 39.085038 
L 161.027083 39.515174 
L 161.806743 41.049602 
L 161.77099 41.54867 
L 161.337332 42.513719 
L 161.09859 43.425001 
L 161.010936 44.038497 
L 160.634946 44.20807 
L 160.589966 44.632691 
L 160.994642 45.100742 
L 161.633742 45.692867 
L 161.654502 46.070614 
L 162.275001 47.07013 
L 162.394948 47.576091 
L 162.650991 47.858713 
L 163.255343 48.133062 
L 163.905828 48.083431 
L 165.156052 47.602285 
L 165.721191 47.642266 
L 166.113328 48.120654 
L 166.461637 49.406927 
L 166.518151 50.556714 
L 166.672699 51.021316 
L 167.091363 51.538307 
L 166.551598 51.876074 
L 166.678466 52.197297 
L 167.418912 52.823201 
L 167.522713 53.334677 
L 167.467353 54.565803 
L 167.58038 55.126911 
L 168.272386 55.998212 
L 168.556109 56.537261 
L 168.463841 57.072174 
L 167.91485 58.044116 
L 167.783369 58.594194 
L 167.93561 59.032602 
L 168.327747 59.424136 
L 168.807538 59.488932 
L 169.303475 59.326253 
L 169.757893 59.025709 
L 170.154643 58.918175 
L 170.895089 58.561106 
L 171.478681 58.551456 
L 172.83386 59.032602 
L 173.946836 59.949398 
L 174.553495 60.061068 
L 175.218974 60.653884 
L 176.253523 62.076642 
L 176.823275 63.452527 
L 177.09777 63.80408 
L 177.499134 63.914371 
L 178.341075 63.667595 
L 178.590197 63.717226 
L 178.9535 63.958488 
L 179.412531 63.926779 
L 179.843881 63.718604 
L 180.384799 63.267789 
L 181.072192 63.372565 
L 181.789571 63.131303 
L 183.210491 63.194721 
L 184.089338 62.812837 
L 184.449181 62.680487 
L 184.818251 62.687381 
L 185.775526 63.06375 
L 185.981975 63.793051 
L 186.300298 64.086702 
L 186.750102 64.274197 
L 187.228739 64.256275 
L 188.600064 63.903342 
L 189.380878 63.452527 
L 189.862976 63.4994 
L 190.234352 63.757206 
L 190.400434 64.114274 
L 190.355453 64.532003 
L 190.094798 64.967654 
L 189.740721 65.277848 
L 189.062555 65.698334 
L 188.409763 66.460722 
L 187.943812 66.513111 
L 187.067271 66.464858 
L 185.948528 67.043888 
L 185.489497 67.147286 
L 183.92787 67.100412 
L 183.46884 67.256198 
L 183.185117 67.562257 
L 182.930228 68.452859 
L 182.929075 68.892646 
L 183.145903 69.918355 
L 183.083623 70.286452 
L 182.193242 70.111365 
L 182.637279 71.597541 
L 182.343176 71.904978 
L 182.297043 72.366822 
L 182.587685 73.136104 
L 184.015524 75.370882 
L 185.782446 77.052825 
L 185.896813 77.947291 
L 185.78014 78.216398 
L 185.304962 78.879525 
L 185.364936 79.300011 
L 185.676339 79.512321 
L 186.541346 79.50405 
L 186.878123 79.781156 
L 186.793929 80.482885 
L 186.310678 81.292148 
L 186.010808 82.044886 
L 186.472146 82.572906 
L 186.294531 82.895508 
L 185.777833 83.07611 
L 185.210388 83.260848 
L 184.586429 83.180886 
L 183.306218 83.925353 
L 182.637279 83.641353 
L 182.350096 83.663411 
L 181.163306 83.220867 
L 180.832296 83.845392 
L 180.848443 84.298965 
L 180.714655 84.366518 
L 180.254471 84.445101 
L 180.018036 84.675334 
L 179.909622 84.982771 
L 179.969596 85.7038 
L 180.176044 86.3945 
L 180.117224 86.896325 
L 179.418297 88.480384 
L 178.552423 88.136994 
L 178.151926 87.927549 
L 177.635228 87.952365 
L 177.4876 88.465219 
L 177.531428 89.142132 
L 177.4184 89.792851 
L 176.800208 90.216094 
L 175.882146 90.398075 
L 175.663011 90.701376 
L 175.592657 91.021221 
L 175.575357 91.866328 
L 174.954858 92.568056 
L 174.784163 92.998193 
L 175.300861 93.473824 
L 175.665318 93.821242 
L 176.199316 95.306038 
L 176.281203 96.260058 
L 176.596066 96.779806 
L 176.530325 97.349185 
L 176.306577 97.549088 
L 175.815253 97.378137 
L 173.591606 97.094136 
L 172.825786 96.695709 
L 171.956165 96.443418 
L 171.863898 97.175476 
L 172.049586 98.254953 
L 171.912338 99.256536 
L 171.478681 99.763186 
L 170.306884 100.02306 
L 170.090056 100.373925 
L 171.065784 103.145683 
L 171.478681 103.447606 
L 171.923872 103.093984 
L 172.422116 103.091227 
L 172.883454 103.38212 
L 173.225996 103.906004 
L 173.348251 104.511228 
L 173.303271 105.169529 
L 172.894987 106.693617 
L 172.536297 107.444977 
L 172.807333 107.980579 
L 172.935354 108.210123 
L 172.935354 108.50722 
L 172.708145 108.808453 
L 170.934303 110.36494 
L 169.965495 112.571455 
L 169.271182 112.934038 
L 169.732519 113.577174 
L 170.238837 113.861864 
L 170.818969 113.899087 
L 171.624002 113.86531 
L 173.909929 117.790992 
L 174.546575 118.399662 
L 175.485396 120.720605 
L 175.824479 121.058372 
L 176.876328 121.812489 
L 177.029723 122.215742 
L 177.023956 123.164247 
L 177.176198 123.350364 
L 177.566028 123.25317 
L 177.932791 123.00915 
L 178.582123 122.384625 
L 178.989254 122.211606 
L 180.073396 122.195062 
L 180.555494 122.07512 
L 180.46784 122.894723 
L 181.335154 123.620578 
L 181.492009 124.210636 
L 181.217513 124.61251 
L 180.158744 125.259093 
L 179.810434 125.718181 
L 180.193344 126.044919 
L 180.855363 126.200016 
L 181.531223 126.11454 
L 182.166715 125.63753 
L 182.530018 125.813307 
L 183.533427 127.211249 
L 183.713348 127.715143 
L 183.909417 129.091027 
L 184.656783 129.813435 
L 185.544858 131.071446 
L 186.56672 131.964805 
L 186.769708 132.689281 
L 186.619774 133.419961 
L 186.718961 133.668117 
L 186.97731 133.832175 
L 186.99115 134.073437 
L 186.831989 134.41603 
L 185.923154 135.391419 
L 185.45259 135.748487 
L 184.716757 135.791914 
L 184.225433 135.836031 
L 183.776782 136.087633 
L 183.754869 136.412303 
L 184.066271 136.680449 
L 185.046613 136.793497 
L 185.46643 136.97272 
L 185.788213 137.261546 
L 185.916234 137.626886 
L 185.767453 138.07977 
L 184.790571 139.057916 
L 185.265749 140.125674 
L 186.572487 140.284907 
L 189.203263 139.987809 
L 191.573384 140.727451 
L 193.798183 141.79383 
L 194.423295 142.428005 
L 196.590428 143.690841 
L 197.61575 144.526297 
L 199.07819 145.41621 
L 200.003171 146.478454 
L 207.441083 152.924981 
L 208.120402 153.285496 
L 208.823942 153.441972 
L 210.004965 153.205535 
L 211.026828 152.634088 
L 211.340537 152.654768 
L 213.082086 153.348224 
L 214.712913 155.234895 
L 214.666779 155.718109 
L 214.542218 155.865624 
L 214.252729 156.594236 
L 214.504158 157.10778 
L 215.358785 158.045256 
L 215.896243 158.752499 
L 216.113072 158.860722 
L 216.23302 159.199868 
L 216.66783 159.536257 
L 216.784318 159.881606 
L 216.630923 160.513024 
L 216.410635 161.036908 
L 216.385261 161.620073 
L 216.537502 161.740015 
L 217.174148 162.026773 
L 217.552445 162.528598 
L 217.889221 162.571336 
L 218.369129 162.824278 
L 218.698868 163.306152 
L 219.207493 164.468347 
L 219.550035 164.866774 
L 220.329696 165.254172 
L 221.605294 167.870834 
L 222.179659 168.30097 
L 222.30422 168.542232 
L 222.499135 169.210873 
L 222.857824 169.617573 
L 223.737826 170.291728 
L 224.043462 170.768738 
L 224.105742 171.33536 
L 223.973108 171.939205 
L 220.571898 181.382899 
L 220.43811 192.405138 
L 227.772221 192.406517 
L 228.010963 192.55541 
L 228.08247 192.897313 
L 228.04095 206.566543 
L 230.652119 207.003573 
L 230.882788 207.152466 
L 231.256471 207.568816 
L 231.743182 208.674486 
L 232.024598 210.104138 
L 232.451335 210.414332 
L 232.98418 210.444662 
L 234.082163 210.316448 
L 234.5608 210.596313 
L 235.014064 211.379381 
L 235.731444 212.224488 
L 236.745233 213.272256 
L 236.902087 213.831984 
L 236.84442 214.115984 
L 236.243528 215.06449 
L 236.287355 215.249228 
L 236.566465 215.868238 
L 237.19965 216.710588 
L 237.95509 219.079094 
L 238.409507 219.485793 
L 238.74167 219.695346 
L 239.589456 219.973127 
L 239.583811 219.988878 
L 239.583811 220.110459 
L 240.123248 220.10286 
L 240.219512 220.366647 
L 239.943436 220.683626 
L 239.354958 220.838859 
L 236.930213 220.584841 
L 235.224717 219.971509 
L 234.423734 219.35492 
L 233.644546 219.103073 
L 232.407653 218.288915 
L 231.437755 217.940455 
L 230.397021 217.7418 
L 229.441654 217.724432 
L 228.59163 217.958909 
L 227.045969 218.833858 
L 226.811667 217.324951 
L 226.659099 216.585696 
L 226.283127 216.08526 
L 226.588264 217.279359 
L 226.419349 218.234638 
L 226.588264 218.471286 
L 226.577366 219.100902 
L 221.743695 216.579617 
L 220.46579 216.321811 
L 214.699073 216.321811 
L 213.414248 216.48449 
L 209.818124 218.028569 
L 208.648633 218.852997 
L 207.88512 219.984861 
L 205.986717 225.021039 
L 205.054815 226.991117 
L 204.914107 228.066458 
L 204.478144 229.068041 
L 202.810409 231.947334 
L 202.14839 233.760247 
L 201.816227 234.282752 
L 200.386081 235.921957 
L 198.988229 238.380075 
L 194.98382 243.066077 
L 191.078599 243.936 
L 154.190063 240.351532 
L 153.904034 240.235726 
L 110.876251 203.851998 
L 95.509103 190.133137 
L 58.655167 167.705397 
L 57.453383 167.227008 
L 48.0421 165.422367 
L 30.202184 162.412792 
L 30.137597 162.433472 
L 30.132983 162.228054 
L 32.817967 159.906422 
L 33.387719 159.062004 
L 32.921768 157.262877 
L 32.591912 156.443274 
L 32.132881 156.171682 
L 27.904724 157.355246 
L 27.678669 157.225653 
L 27.512587 156.825847 
L 26.423831 152.885001 
L 28.146926 152.336991 
L 21.838137 128.991076 
L 64.599499 103.384878 
L 70.080187 101.929032 
L 70.732979 101.507857 
L 71.24045 100.796478 
L 72.043177 99.040778 
L 75.874584 91.727085 
L 76.066039 91.069473 
L 76.116786 90.370502 
L 75.782317 80.69106 
L 76.001452 79.06702 
L 76.933353 75.772067 
L 77.129422 73.169192 
L 77.33933 72.362687 
L 79.145466 69.711559 
L 79.498389 68.905054 
L 79.620643 68.069597 
L 79.419962 63.525595 
L 79.17776 62.669458 
L 76.877993 57.724271 
L 76.788032 56.817125 
L 77.689947 49.406927 
L 79.662164 45.688731 
L 80.109661 45.095915 
L 80.767067 44.802264 
L 82.215666 44.569274 
L 89.138033 43.150652 
L 89.749305 42.872166 
L 90.339817 42.388263 
L 100.117863 32.350374 
L 102.244628 30.533325 
L 102.237708 30.145927 
L 101.799438 29.25946 
L 102.795926 29.148479 
L 104.073831 28.743848 
L 106.352838 28.282003 
L 106.703454 27.41208 
L 109.586813 23.303729 
L 109.660626 22.931496 
L 109.944349 22.618544 
L 111.24532 22.176 
L 111.512896 22.207019 
L 111.706658 22.346952 
L 111.803539 22.806728 
L 111.994994 22.941146 
L 113.840343 23.52569 
L 113.840343 23.52569 
" clip-path="url(#p1a25fdb8ec)" style="fill: none; stroke: #000000; stroke-width: 2"/>
   </g>
  </g>
 </g>
 <defs>
  <clipPath id="p1a25fdb8ec">
   <rect x="0" y="-0" width="262.057649" height="266.112"/>
  </clipPath>
 </defs>
</svg>
