<?xml version="1.0" encoding="utf-8" standalone="no"?>
<!DOCTYPE svg PUBLIC "-//W3C//DTD SVG 1.1//EN"
  "http://www.w3.org/Graphics/SVG/1.1/DTD/svg11.dtd">
<svg xmlns:xlink="http://www.w3.org/1999/xlink" width="357.12pt" height="242.329251pt" viewBox="0 0 357.12 242.329251" xmlns="http://www.w3.org/2000/svg" version="1.1">
 <metadata>
  <rdf:RDF xmlns:dc="http://purl.org/dc/elements/1.1/" xmlns:cc="http://creativecommons.org/ns#" xmlns:rdf="http://www.w3.org/1999/02/22-rdf-syntax-ns#">
   <cc:Work>
    <dc:type rdf:resource="http://purl.org/dc/dcmitype/StillImage"/>
    <dc:date>2024-02-02T21:58:02.426900</dc:date>
    <dc:format>image/svg+xml</dc:format>
    <dc:creator>
     <cc:Agent>
      <dc:title>Matplotlib v3.8.2, https://matplotlib.org/</dc:title>
     </cc:Agent>
    </dc:creator>
   </cc:Work>
  </rdf:RDF>
 </metadata>
 <defs>
  <style type="text/css">*{stroke-linejoin: round; stroke-linecap: butt}</style>
 </defs>
 <g id="figure_1">
  <g id="patch_1">
   <path d="M 0 242.329251 
L 357.12 242.329251 
L 357.12 -0 
L 0 -0 
L 0 242.329251 
z
" style="fill: none"/>
  </g>
  <g id="axes_1">
   <g id="PatchCollection_1">
    <path d="M 144.902877 221.343913 
L 144.636266 221.751204 
L 144.440971 221.512536 
L 144.310409 220.946999 
L 144.13596 220.454099 
L 143.934082 219.709561 
L 144.014175 218.996153 
L 144.552882 218.700413 
L 145.193625 218.651123 
L 145.245192 218.76008 
L 145.112435 219.079168 
L 145.21886 219.312647 
L 145.363685 220.044214 
L 145.158516 220.736868 
L 144.902877 221.343913 
" clip-path="url(#pa3604f65f6)" style="fill: none; stroke: #000000; stroke-width: 2"/>
    <path d="M 213.02683 202.595561 
L 212.862255 203.311563 
L 212.43875 203.949739 
L 212.273079 204.027565 
L 212.462888 203.762956 
L 212.598936 203.425708 
L 212.556147 203.054736 
L 212.331228 202.867953 
L 212.041577 202.912055 
L 210.865418 203.347882 
L 210.935637 202.821258 
L 211.759606 201.957386 
L 212.219318 201.646081 
L 212.419001 201.578631 
L 212.807397 201.661646 
L 213.010372 202.05856 
L 213.02683 202.595561 
" clip-path="url(#pa3604f65f6)" style="fill: none; stroke: #000000; stroke-width: 2"/>
    <path d="M 196.48161 57.332806 
L 196.12613 57.563691 
L 195.805758 57.457328 
L 195.572062 57.216067 
L 195.407488 56.832124 
L 195.348241 56.33663 
L 195.191347 55.558367 
L 194.92693 54.652988 
L 195.084922 54.41432 
L 195.60388 54.979858 
L 195.848547 55.389743 
L 196.088826 55.74515 
L 196.48161 56.593456 
L 196.48161 57.332806 
" clip-path="url(#pa3604f65f6)" style="fill: none; stroke: #000000; stroke-width: 2"/>
    <path d="M 259.410496 21.950384 
L 261.681624 24.113955 
L 262.962013 24.606854 
L 262.598852 25.190552 
L 262.177541 25.452567 
L 261.826449 25.846887 
L 261.657486 26.824903 
L 262.026133 26.824903 
L 262.026133 27.221817 
L 261.47426 27.696558 
L 261.88789 28.381429 
L 262.026133 28.568212 
L 261.71015 29.141532 
L 262.076602 29.234924 
L 263.046494 29.001445 
L 264.128297 29.237518 
L 264.602272 29.001445 
L 264.4366 30.308927 
L 267.011642 30.308927 
L 267.498782 30.480145 
L 267.937648 30.92116 
L 268.187801 31.497075 
L 268.132943 32.482874 
L 268.669455 34.226183 
L 267.543766 36.244478 
L 266.908509 37.064248 
L 266.092219 37.707612 
L 266.460866 38.615585 
L 266.783432 38.267961 
L 267.112581 38.465121 
L 267.485616 38.843876 
L 268.373221 39.217442 
L 268.468674 39.668834 
L 268.132943 41.230548 
L 268.552059 41.578172 
L 270.526952 41.666375 
L 271.477096 41.246113 
L 271.79637 41.331722 
L 272.201223 42.060695 
L 272.477708 41.941362 
L 272.736639 41.666375 
L 272.796983 42.359029 
L 272.96814 42.919379 
L 273.238042 43.305916 
L 273.998376 43.643163 
L 274.804791 44.514817 
L 275.677036 45.176341 
L 276.203674 46.055778 
L 276.736895 46.600562 
L 277.37325 46.055778 
L 277.069336 45.830082 
L 276.987049 45.581037 
L 277.461023 45.246384 
L 277.813212 44.545948 
L 278.031548 43.541989 
L 278.109446 42.296768 
L 277.882334 40.10985 
L 278.060074 39.492428 
L 278.845643 39.051412 
L 282.165658 39.051412 
L 284.060459 38.413237 
L 284.208576 37.920337 
L 284.234908 37.331452 
L 284.384122 36.835958 
L 286.293186 35.642621 
L 286.593809 34.879924 
L 286.782521 33.904501 
L 287.232357 33.126238 
L 288.28344 32.08596 
L 289.003179 31.595655 
L 291.313804 31.180581 
L 291.950159 31.354393 
L 292.986978 32.2027 
L 293.622235 32.482874 
L 298.759153 31.647539 
L 297.488638 33.00431 
L 292.70391 35.097837 
L 290.574316 36.662145 
L 288.094728 37.261408 
L 287.246621 37.938496 
L 286.593809 39.051412 
L 287.254301 39.292674 
L 287.579061 39.61695 
L 287.852255 40.244749 
L 288.73986 42.013999 
L 288.616977 42.76632 
L 288.061813 44.317657 
L 285.482382 46.717301 
L 285.028157 46.927432 
L 283.362663 47.028606 
L 282.651702 47.643434 
L 282.156881 49.065061 
L 283.394481 49.869266 
L 284.994145 49.97044 
L 285.337557 50.465934 
L 285.488965 51.674835 
L 285.205897 51.869401 
L 284.384122 52.585403 
L 284.943675 52.997882 
L 287.985011 53.099056 
L 289.741569 53.892884 
L 290.964906 53.79171 
L 293.18337 51.835676 
L 294.56031 51.674835 
L 295.162652 51.98614 
L 295.693679 52.57762 
L 296.073298 53.537478 
L 296.390378 55.732179 
L 296.768899 55.986411 
L 297.14742 56.07202 
L 297.321869 56.305499 
L 297.384407 57.037066 
L 297.688322 59.156535 
L 297.607132 59.41855 
L 297.137546 60.025595 
L 297.137546 61.288975 
L 296.417807 63.291705 
L 296.106212 63.561503 
L 294.359529 65.683566 
L 292.371469 67.131135 
L 291.765835 67.901615 
L 291.815208 69.014531 
L 291.285278 69.925098 
L 289.924796 71.385638 
L 290.729016 71.333754 
L 291.445464 70.768217 
L 292.70391 69.164995 
L 292.288085 70.469882 
L 291.513488 71.899292 
L 291.196408 73.045932 
L 292.15094 73.520673 
L 293.118637 73.248281 
L 295.232871 72.049756 
L 301.021503 70.513984 
L 303.105016 69.39588 
L 304.207665 69.118299 
L 305.072229 70.036649 
L 303.902653 72.713874 
L 303.235578 73.372803 
L 303.302505 73.917587 
L 303.738079 74.830748 
L 304.350296 75.297706 
L 306.057482 76.423593 
L 306.559982 77.041015 
L 305.094172 77.48203 
L 304.308604 78.089075 
L 303.650306 79.733804 
L 302.256909 81.357779 
L 301.709424 82.719739 
L 299.661021 85.140137 
L 299.250682 85.941747 
L 298.936893 86.899011 
L 298.793165 87.965231 
L 299.136577 87.464548 
L 299.71149 86.074052 
L 301.491089 84.284047 
L 301.982618 83.248958 
L 305.322382 78.322554 
L 305.908267 77.912669 
L 306.630201 78.096858 
L 308.769669 79.653384 
L 308.346164 79.046339 
L 307.580344 78.223974 
L 307.279721 77.518349 
L 313.204402 80.999778 
L 313.95925 81.116518 
L 316.92159 80.377168 
L 317.424091 80.449806 
L 317.740074 80.761111 
L 317.939758 81.523809 
L 317.975964 82.174955 
L 317.825653 82.618565 
L 317.472366 82.737899 
L 317.472366 83.137407 
L 318.319376 83.106276 
L 318.692412 83.233393 
L 318.944759 83.614741 
L 318.905261 84.642048 
L 318.775796 85.394369 
L 319.193815 86.214139 
L 319.682053 86.657749 
L 320.937207 84.828831 
L 321.629517 84.322961 
L 322.442515 84.522715 
L 322.582952 84.789918 
L 322.643296 85.786095 
L 322.811162 85.835385 
L 323.199558 85.716051 
L 323.361938 85.786095 
L 324.483238 87.132489 
L 324.527125 88.541145 
L 324.143118 89.425771 
L 323.6472 90.03541 
L 323.361938 90.613918 
L 323.749236 92.751547 
L 323.570399 93.000591 
L 322.643296 93.662114 
L 322.918684 94.051246 
L 322.828716 95.84125 
L 321.918071 96.497585 
L 319.46262 96.129208 
L 318.391789 96.71031 
L 319.05667 97.281037 
L 321.154446 98.017792 
L 321.241121 99.063258 
L 320.625613 99.77926 
L 319.766534 100.165797 
L 318.423607 100.176174 
L 317.854179 100.355175 
L 316.719712 101.063394 
L 314.468334 101.483656 
L 313.774927 101.935048 
L 314.196237 102.531716 
L 318.472979 100.94406 
L 319.774214 101.063394 
L 322.37888 100.383711 
L 323.195169 100.627567 
L 324.531514 101.514786 
L 325.220532 102.261919 
L 325.605636 103.278849 
L 324.963796 103.782125 
L 323.86773 105.515057 
L 323.280748 105.893812 
L 319.865279 106.760278 
L 316.258904 106.760278 
L 314.694349 107.157192 
L 313.037633 107.157192 
L 313.867088 107.818715 
L 317.004975 107.157192 
L 321.154446 107.631932 
L 323.011943 107.157192 
L 324.024624 107.157192 
L 324.294526 107.372511 
L 324.167255 107.839469 
L 323.749236 108.5425 
L 323.702058 109.235153 
L 323.702058 109.484198 
L 323.564913 109.769561 
L 322.543454 110.241707 
L 321.635003 110.332504 
L 320.786896 110.677534 
L 320.786896 111.154868 
L 322.8737 110.713853 
L 323.361938 111.154868 
L 323.361938 111.546594 
L 322.867117 111.795638 
L 322.442515 112.457162 
L 323.280748 112.457162 
L 323.545164 112.589466 
L 324.024624 113.289903 
L 324.294526 113.095337 
L 324.726809 112.223683 
L 324.952824 112.026523 
L 325.007682 111.777479 
L 325.791057 110.241707 
L 326.894803 108.939414 
L 326.96941 109.873329 
L 326.870665 112.527205 
L 326.711577 113.764643 
L 327.21298 114.130427 
L 327.36 114.734877 
L 327.180065 115.507952 
L 326.711577 116.379606 
L 326.165189 116.882883 
L 325.023043 117.22013 
L 324.483238 117.681899 
L 325.20956 119.150222 
L 325.138245 119.425208 
L 324.718031 119.632745 
L 323.87541 120.558878 
L 323.465071 120.769008 
L 321.520898 120.294268 
L 319.84553 120.597791 
L 319.295851 120.294268 
L 319.039115 119.700194 
L 318.532226 118.029523 
L 318.107624 117.681899 
L 317.669856 117.539218 
L 316.776765 116.916608 
L 315.362522 116.441867 
L 313.867088 114.968356 
L 313.037633 114.636297 
L 313.208791 115.336734 
L 313.489664 115.850387 
L 314.124922 116.379606 
L 313.153932 117.469174 
L 307.663728 117.681899 
L 307.663728 118.159234 
L 316.166742 118.986787 
L 316.816263 119.720948 
L 317.146509 120.33837 
L 317.288043 120.966168 
L 317.518447 121.30601 
L 318.775796 122.47081 
L 321.556007 123.767915 
L 322.091423 124.686265 
L 320.970122 125.578673 
L 319.648041 125.376324 
L 317.288043 124.214119 
L 314.602188 124.686265 
L 312.946569 123.967669 
L 312.484663 124.214119 
L 314.077744 125.368542 
L 317.939758 126.273921 
L 319.682053 127.734461 
L 320.153833 128.691724 
L 320.241606 129.236508 
L 319.950858 129.475175 
L 319.510895 129.680118 
L 318.839432 130.580308 
L 318.483951 130.782657 
L 315.666436 129.667147 
L 314.862215 130.383148 
L 317.785058 131.594644 
L 318.27549 132.074573 
L 318.291947 132.759444 
L 317.521739 133.0033 
L 314.444196 132.873589 
L 313.588409 132.520777 
L 313.197819 133.044807 
L 312.650335 133.392431 
L 312.650335 133.867172 
L 313.917558 135.613075 
L 314.325703 136.479541 
L 313.886837 136.64557 
L 312.650335 137.787022 
L 306.659824 139.089315 
L 305.695418 138.77801 
L 305.160002 138.430386 
L 304.803424 138.004936 
L 304.032119 135.517089 
L 303.3431 134.801087 
L 302.616778 133.33017 
L 302.217411 132.995517 
L 300.099886 132.520777 
L 300.366497 132.886561 
L 300.656148 133.013677 
L 301.295794 132.995517 
L 301.666635 133.291257 
L 301.630429 133.952781 
L 301.387956 135.13574 
L 301.804878 135.672741 
L 303.167554 136.427656 
L 303.613002 136.479541 
L 303.569116 137.714384 
L 303.941054 138.726126 
L 304.447943 139.595186 
L 304.803424 139.96097 
L 306.172684 140.438304 
L 306.671893 140.988277 
L 306.375659 141.704278 
L 306.559982 142.140106 
L 302.03967 140.591362 
L 300.650662 141.704278 
L 301.090624 142.249062 
L 302.17133 142.819788 
L 302.69358 143.442399 
L 302.953607 144.1584 
L 302.92179 144.765445 
L 302.636527 145.260939 
L 302.124152 145.61894 
L 298.528749 145.61894 
L 298.1996 146.036608 
L 298.530943 146.887509 
L 299.066358 147.603511 
L 299.347232 147.595728 
L 299.62262 148.249469 
L 300.205214 148.669731 
L 300.731852 148.708644 
L 300.83718 148.233903 
L 301.947509 147.925192 
L 303.613002 145.37249 
L 304.451235 144.74988 
L 304.622392 145.061185 
L 304.207665 145.771999 
L 301.735756 148.840948 
L 301.387956 149.580298 
L 301.294697 150.171778 
L 301.10379 151.992913 
L 300.222768 153.585757 
L 300.129509 154.56118 
L 300.192048 155.471748 
L 299.783903 155.969836 
L 299.669798 156.641736 
L 299.263848 157.845449 
L 296.463888 158.164537 
L 293.823016 159.191844 
L 294.991495 158.242363 
L 297.403059 157.528956 
L 298.627493 157.015302 
L 297.938475 156.537968 
L 294.941025 156.047662 
L 294.728176 156.148836 
L 294.693066 156.418634 
L 294.744633 157.269535 
L 294.445108 157.588622 
L 293.869097 158.187885 
L 293.539948 158.32019 
L 293.415969 158.491407 
L 292.869581 159.588758 
L 292.557987 159.920817 
L 291.065845 160.904022 
L 290.453628 161.565546 
L 289.902852 162.336026 
L 289.557246 163.114289 
L 289.924796 161.37098 
L 289.741569 161.37098 
L 289.557246 162.006561 
L 289.141421 162.561722 
L 288.266982 163.319231 
L 288.345978 163.783595 
L 288.551147 164.247958 
L 288.827633 164.455495 
L 289.669157 164.250552 
L 289.924796 163.983349 
L 290.056455 164.880945 
L 290.293442 165.726657 
L 289.690003 165.716281 
L 288.895657 166.787689 
L 288.366824 167.067864 
L 287.114961 166.930371 
L 286.565282 166.665761 
L 286.041936 166.196209 
L 284.672676 164.655249 
L 284.116414 164.455495 
L 283.875038 164.637089 
L 283.111413 165.726657 
L 282.783361 165.65402 
L 282.475058 165.404975 
L 282.159075 165.316772 
L 281.807983 165.726657 
L 282.156881 166.196209 
L 281.868327 166.510109 
L 281.55783 166.619065 
L 280.886366 166.593123 
L 281.421782 164.849815 
L 281.421782 164.455495 
L 280.552829 164.704539 
L 280.130421 164.670814 
L 279.949389 164.219422 
L 279.826507 163.236216 
L 279.528078 162.577287 
L 279.166015 162.354185 
L 278.845643 162.675867 
L 278.845643 163.114289 
L 279.22197 163.744681 
L 279.412876 164.849815 
L 279.047521 164.592988 
L 278.279507 164.297248 
L 277.925123 163.983349 
L 277.925123 163.589029 
L 278.187345 162.696621 
L 277.790172 161.355415 
L 277.112125 160.125759 
L 275.979853 158.958365 
L 274.225489 158.32019 
L 274.6852 158.709321 
L 276.167468 159.394192 
L 276.456022 160.102411 
L 277.187829 162.198533 
L 276.958522 162.546157 
L 276.728118 162.647331 
L 276.496617 162.522809 
L 276.266212 162.198533 
L 276.266212 162.675867 
L 276.8126 163.189521 
L 276.908053 164.170132 
L 276.684232 165.285642 
L 276.266212 166.196209 
L 275.606817 166.55421 
L 274.103704 166.131354 
L 273.487098 166.593123 
L 273.866717 166.935559 
L 274.278153 167.067864 
L 275.163564 167.067864 
L 274.481128 167.651561 
L 272.754193 168.297519 
L 271.204999 168.450577 
L 269.576809 169.083564 
L 268.870236 169.682827 
L 268.503784 168.767071 
L 267.75113 169.861827 
L 265.35712 171.85418 
L 267.603013 171.068135 
L 268.132943 171.45986 
L 267.227783 172.243311 
L 260.243243 174.46136 
L 259.265671 175.379711 
L 260.536185 175.379711 
L 260.536185 175.771436 
L 258.821319 177.309802 
L 257.979795 177.683369 
L 257.05379 178.819632 
L 256.15631 179.621243 
L 255.950044 180.166027 
L 255.668073 179.551199 
L 255.399268 179.442242 
L 255.127171 179.699069 
L 254.828743 180.166027 
L 254.828743 180.601854 
L 255.195195 180.601854 
L 255.195195 180.998768 
L 253.575783 182.173945 
L 252.987703 182.345163 
L 253.156666 181.434595 
L 251.699634 182.58383 
L 251.001838 183.465861 
L 250.578333 184.51911 
L 251.02049 184.545052 
L 251.642581 183.84721 
L 250.578333 185.868099 
L 248.640743 187.616596 
L 247.350479 189.743848 
L 246.51115 190.215994 
L 247.185905 189.715312 
L 247.464584 189.225006 
L 247.615993 188.477874 
L 243.548809 192.00081 
L 239.931463 193.100755 
L 239.391658 192.934726 
L 238.928656 192.39513 
L 239.600119 193.217494 
L 239.865633 193.26419 
L 239.365327 193.583278 
L 238.928656 193.700017 
L 239.018623 194.371918 
L 239.003263 195.256543 
L 238.860632 196.011458 
L 238.560009 196.31498 
L 238.428349 196.112632 
L 238.308759 194.602802 
L 237.82491 194.135844 
L 236.534646 192.39513 
L 236.102364 192.236883 
L 235.882931 192.421072 
L 235.808324 192.976233 
L 235.708482 196.31498 
L 235.347515 196.094473 
L 235.290463 195.528935 
L 235.431997 193.917931 
L 235.147832 192.597478 
L 234.951439 192.190187 
L 234.862569 192.610449 
L 234.826363 195.108673 
L 234.694703 195.84024 
L 235.056767 196.421343 
L 234.928399 196.85717 
L 234.498311 197.132156 
L 233.95741 197.220359 
L 234.281073 195.147586 
L 234.125276 194.610585 
L 234.401761 193.700017 
L 234.648622 193.521017 
L 234.570724 192.841334 
L 234.493922 192.828363 
L 234.674954 190.190052 
L 234.5027 189.525934 
L 234.210854 189.038223 
L 233.901454 188.75286 
L 233.756629 189.108267 
L 233.730297 191.435273 
L 233.95741 192.00081 
L 233.517447 192.415884 
L 233.012752 192.376971 
L 232.56511 192.470362 
L 232.285333 193.26419 
L 232.614482 193.917931 
L 232.937048 195.334369 
L 233.390176 195.84024 
L 232.89755 196.56143 
L 231.898035 196.805286 
L 229.968125 196.748213 
L 229.556689 196.602938 
L 228.585699 195.84024 
L 228.220344 196.112632 
L 227.854989 196.548459 
L 227.579601 196.532894 
L 227.480856 195.443326 
L 224.152063 197.619868 
L 220.452429 198.927349 
L 217.939926 199.560336 
L 218.237257 199.101161 
L 218.408415 198.540812 
L 218.396346 197.858535 
L 218.24384 197.220359 
L 218.043059 198.128333 
L 217.720493 198.745755 
L 217.335389 198.927349 
L 216.939313 198.491522 
L 217.138997 199.832728 
L 213.623686 202.447691 
L 213.8892 201.054601 
L 214.586996 200.268556 
L 215.45156 199.913149 
L 216.21738 199.832728 
L 216.21738 199.357988 
L 214.433393 198.382565 
L 213.792649 197.619868 
L 213.678544 198.828769 
L 213.792649 199.357988 
L 213.099242 199.866453 
L 212.437653 199.723772 
L 211.762898 199.394307 
L 211.029993 199.357988 
L 211.581866 199.832728 
L 211.581866 200.229642 
L 210.902722 200.214077 
L 210.595516 200.343788 
L 210.311351 200.704383 
L 209.869194 200.439773 
L 209.37986 200.821122 
L 208.984881 201.526747 
L 208.820306 202.229778 
L 208.675481 203.358259 
L 208.310126 204.136522 
L 207.829568 204.344058 
L 207.330359 203.752579 
L 206.981461 204.297363 
L 206.85419 204.860306 
L 206.992433 205.311699 
L 207.431298 205.495887 
L 207.773613 205.358394 
L 208.310126 204.759132 
L 208.721562 204.624233 
L 210.850058 204.875871 
L 211.581866 204.624233 
L 210.422164 207.000529 
L 209.718883 207.65427 
L 209.00463 207.234008 
L 209.188953 206.837094 
L 208.085207 206.837094 
L 208.124705 207.431168 
L 207.365468 207.350747 
L 206.947449 207.708748 
L 207.29525 207.664647 
L 207.533334 207.848835 
L 207.622204 208.287257 
L 207.532237 209.01623 
L 209.540045 208.894302 
L 209.924052 208.541489 
L 209.254783 210.697277 
L 208.283794 212.671471 
L 207.046194 214.113851 
L 204.284634 215.452463 
L 202.517104 216.868901 
L 200.832959 217.283975 
L 199.949743 215.981682 
L 200.290961 215.514724 
L 201.0491 215.218984 
L 201.339848 214.87136 
L 201.700815 214.183895 
L 202.039839 213.87259 
L 202.895626 213.802546 
L 202.895626 213.366719 
L 202.129806 213.351154 
L 200.683745 213.825894 
L 199.949743 213.802546 
L 198.1098 212.588456 
L 197.559025 212.456151 
L 197.724696 212.93608 
L 197.440531 213.148805 
L 197.356049 213.366719 
L 197.616077 213.75585 
L 198.638633 215.475811 
L 198.937061 217.683483 
L 201.148942 217.854701 
L 195.377864 218.788616 
L 192.037003 220.490418 
L 186.362475 222.135147 
L 184.98773 222.07548 
L 179.817897 220.371084 
L 177.636737 221.00926 
L 176.855557 220.767998 
L 177.274673 220.630505 
L 177.408527 220.371084 
L 176.445218 220.142794 
L 175.964661 219.857431 
L 175.566391 219.460517 
L 175.0211 220.285475 
L 171.04937 219.297081 
L 169.64171 218.155629 
L 167.430926 217.683483 
L 164.282068 215.421333 
L 159.950468 214.176112 
L 159.096876 213.366719 
L 159.461134 213.294081 
L 159.668497 213.047631 
L 159.641068 212.733732 
L 159.298754 212.456151 
L 158.969605 212.432803 
L 158.516476 212.821935 
L 158.184036 212.93608 
L 155.600217 212.456151 
L 155.679213 212.775239 
L 158.378234 213.366719 
L 151.262034 212.847877 
L 150.797934 212.059237 
L 150.610319 212.21489 
L 150.445745 212.456151 
L 150.235089 212.11631 
L 150.06064 212.059237 
L 150.244964 212.93608 
L 148.174617 212.977587 
L 147.166324 212.718166 
L 143.067323 209.06552 
L 142.663567 208.541489 
L 143.043185 208.907273 
L 143.477662 209.062925 
L 143.92311 208.953969 
L 144.336741 208.541489 
L 143.991134 208.471446 
L 143.030019 208.105662 
L 143.214343 206.837094 
L 142.720619 207.602385 
L 142.275171 207.911096 
L 141.792419 207.778792 
L 141.190077 207.234008 
L 141.190077 206.837094 
L 142.111694 207.234008 
L 141.750727 206.261179 
L 140.252002 204.624233 
L 139.26675 202.393213 
L 138.596383 202.447691 
L 138.596383 202.844605 
L 139.536652 204.255855 
L 140.080845 205.303916 
L 140.45388 206.362353 
L 138.662213 204.639798 
L 137.839341 203.506129 
L 137.324771 202.011864 
L 137.691224 201.537124 
L 137.49154 201.236196 
L 137.121796 200.229642 
L 137.877742 199.311292 
L 138.731334 198.782074 
L 140.544945 198.491522 
L 141.397441 198.906596 
L 142.893971 200.582455 
L 143.78377 200.704383 
L 143.335031 200.089555 
L 142.676733 198.901407 
L 142.31028 198.491522 
L 140.252002 197.220359 
L 141.063903 195.622326 
L 141.190077 195.007499 
L 141.088041 194.112497 
L 140.787418 193.879018 
L 140.548236 194.104714 
L 140.637107 195.007499 
L 140.315638 195.622326 
L 138.392311 198.133521 
L 137.877742 198.696465 
L 137.221638 198.927349 
L 137.008788 199.176393 
L 136.937473 201.14021 
L 136.601741 201.895125 
L 135.389376 201.155775 
L 134.200051 200.063613 
L 133.290503 199.63038 
L 131.400091 198.055695 
L 133.157746 198.055695 
L 133.474826 198.221724 
L 134.123249 198.880654 
L 134.5292 198.927349 
L 134.584058 198.556377 
L 134.939539 198.439638 
L 135.834824 198.491522 
L 135.834824 198.055695 
L 135.08217 198.055695 
L 135.176526 197.606897 
L 135.466177 197.619868 
L 135.466177 197.220359 
L 133.55053 197.734013 
L 132.872484 197.619868 
L 132.872484 197.220359 
L 133.789712 195.956979 
L 134.059614 194.024294 
L 133.686579 192.379565 
L 132.671703 192.00081 
L 132.671703 192.39513 
L 133.429842 192.727189 
L 133.344264 193.606626 
L 132.83518 194.636527 
L 131.829081 196.063342 
L 131.185047 196.587372 
L 130.459822 196.75859 
L 129.72582 196.31498 
L 130.110924 197.619868 
L 129.021441 196.395401 
L 126.589031 194.688411 
L 123.140647 193.334234 
L 121.971071 192.439232 
L 121.319356 192.120144 
L 120.670933 191.60649 
L 120.11906 190.615502 
L 120.274857 190.120008 
L 120.235359 189.489615 
L 119.953388 188.003133 
L 122.054456 188.143221 
L 123.210865 187.863046 
L 124.00192 187.131479 
L 121.97546 187.131479 
L 120.690682 186.368782 
L 120.219999 186.259825 
L 118.834282 186.646362 
L 118.547922 186.913566 
L 118.304352 187.305291 
L 117.155622 188.477874 
L 117.155622 188.874788 
L 118.528173 189.512963 
L 119.222678 190.120008 
L 119.56609 191.087648 
L 119.004342 190.765966 
L 117.784297 190.571401 
L 116.535725 190.727053 
L 115.778683 191.056518 
L 115.345303 191.720636 
L 115.700784 192.828363 
L 115.491226 192.965856 
L 115.31568 193.26419 
L 107.416106 194.392671 
L 106.461574 193.700017 
L 105.555317 192.69087 
L 104.717085 192.063071 
L 103.821799 191.925578 
L 99.338791 193.635162 
L 97.857621 193.668887 
L 96.471904 194.135844 
L 89.174672 192.39513 
L 88.606342 192.812798 
L 88.110424 193.60922 
L 87.611215 194.13325 
L 87.031913 193.700017 
L 87.417017 193.26419 
L 86.78176 193.266784 
L 85.767981 193.956844 
L 84.904514 194.244801 
L 84.08603 195.007499 
L 83.796379 195.072354 
L 81.186228 194.758455 
L 80.588274 195.007499 
L 79.935462 195.84024 
L 79.60741 195.645674 
L 79.197071 194.805151 
L 78.898643 194.610585 
L 79.277164 193.546959 
L 79.440641 193.11632 
L 79.482334 192.39513 
L 79.366034 191.694693 
L 78.546454 190.615502 
L 78.964473 189.96695 
L 79.506471 187.642538 
L 79.751139 187.131479 
L 80.939366 187.123697 
L 81.12369 186.913566 
L 81.009585 186.252042 
L 80.735294 186.252042 
L 80.112105 186.695652 
L 79.594244 186.555565 
L 79.02372 186.09639 
L 78.562911 185.286996 
L 78.378588 184.088472 
L 78.898643 182.345163 
L 78.898643 179.691287 
L 78.865728 179.177633 
L 79.027011 178.640632 
L 79.313371 178.194428 
L 79.651297 177.950572 
L 80.04079 178.101036 
L 80.860371 179.066082 
L 81.798445 179.745765 
L 82.528058 180.889811 
L 83.187453 182.433366 
L 83.552809 184.088472 
L 83.166607 184.088472 
L 83.609861 184.773343 
L 84.265965 184.983474 
L 86.896962 185.123561 
L 87.545385 184.960126 
L 87.967793 184.51911 
L 87.66717 184.049558 
L 87.827356 183.538499 
L 88.519666 182.775802 
L 88.914645 182.570859 
L 90.195034 182.345163 
L 91.480909 181.434595 
L 91.817738 181.574683 
L 92.516631 182.199887 
L 92.874306 182.345163 
L 93.587462 182.072771 
L 94.897475 180.874246 
L 97.148854 180.415071 
L 97.879564 179.893635 
L 98.512627 178.819632 
L 98.73974 179.185416 
L 98.915286 179.255459 
L 99.07218 179.115372 
L 99.233463 178.819632 
L 99.233463 178.427907 
L 98.768266 177.919442 
L 98.117649 177.442107 
L 97.473614 177.231976 
L 97.023777 177.514745 
L 97.304651 176.484844 
L 97.972823 175.984161 
L 98.717797 175.916712 
L 99.233463 176.207263 
L 99.020614 176.274713 
L 98.512627 176.687192 
L 99.000865 176.954396 
L 99.546155 177.027033 
L 100.079376 176.920671 
L 100.536893 176.687192 
L 100.536893 176.207263 
L 99.986117 176.207263 
L 100.536893 175.771436 
L 98.861525 174.163026 
L 97.953074 173.65975 
L 97.023777 173.597489 
L 97.837872 172.943748 
L 101.889695 173.706445 
L 102.380127 174.469143 
L 103.21836 174.962043 
L 103.647351 174.920535 
L 104.052204 174.469143 
L 103.456444 174.492491 
L 103.185445 174.334244 
L 102.930903 174.033316 
L 103.453153 173.332879 
L 103.685751 173.161661 
L 103.132781 172.725834 
L 103.831674 172.453442 
L 104.785109 172.764747 
L 105.69356 172.7414 
L 106.260793 171.45986 
L 105.32601 172.015021 
L 104.822412 172.08247 
L 104.605174 171.659614 
L 104.791692 170.899511 
L 105.223974 170.520756 
L 106.07647 170.079741 
L 105.533374 169.72174 
L 104.717085 169.620566 
L 103.887629 169.747682 
L 103.297356 170.079741 
L 103.464124 168.995361 
L 103.156919 168.499867 
L 102.621503 168.367563 
L 101.61321 168.492085 
L 101.375126 168.678868 
L 101.182025 168.984984 
L 100.170441 168.767071 
L 100.961495 168.056257 
L 101.223717 167.534821 
L 101.089863 166.593123 
L 102.742191 165.386816 
L 103.551897 164.434741 
L 104.144365 163.347767 
L 104.608465 162.040286 
L 104.865202 161.664125 
L 105.32601 161.37098 
L 105.911895 161.228298 
L 107.613595 161.409893 
L 107.077082 161.171226 
L 106.843387 160.935153 
L 106.62944 160.935153 
L 107.722214 159.988266 
L 108.309196 159.697715 
L 108.947745 159.588758 
L 112.660545 160.605688 
L 113.291414 160.460412 
L 114.042971 159.191844 
L 112.830606 159.900063 
L 112.185474 159.588758 
L 112.185474 159.191844 
L 112.66274 159.106235 
L 113.090633 158.758611 
L 113.067593 158.390233 
L 112.92167 158.32019 
L 113.090633 158.32019 
L 108.190703 158.001102 
L 105.888855 158.561451 
L 103.851423 160.460412 
L 103.297356 161.806807 
L 103.068048 161.990996 
L 101.863363 162.367156 
L 100.642221 163.288101 
L 100.260408 163.783595 
L 99.253212 164.71751 
L 97.976115 164.538509 
L 95.550287 163.589029 
L 95.550287 163.114289 
L 96.682559 162.421635 
L 97.758876 161.37098 
L 98.656356 160.066092 
L 99.233463 159.692526 
L 99.817154 160.063498 
L 100.315266 159.51612 
L 101.507883 159.1218 
L 102.027938 158.758611 
L 99.624054 158.491407 
L 98.881274 158.758611 
L 98.361219 159.126989 
L 97.939908 159.26967 
L 97.528472 158.927235 
L 97.023777 157.845449 
L 97.385841 157.248781 
L 97.666715 154.600093 
L 97.846649 154.522267 
L 98.249308 154.732398 
L 98.535668 153.113611 
L 98.881274 152.23158 
L 98.917481 151.557086 
L 99.598819 150.908533 
L 102.633572 149.307906 
L 104.236527 149.144471 
L 104.108159 148.576339 
L 103.85252 148.257251 
L 103.514594 148.156077 
L 103.132781 148.233903 
L 103.132781 147.836989 
L 103.62431 147.359655 
L 104.655643 145.922463 
L 105.559706 145.509984 
L 106.260793 144.74988 
L 106.62176 144.666865 
L 107.751838 144.74988 
L 107.644316 145.896521 
L 108.188509 146.083304 
L 108.880818 146.098869 
L 109.573128 147.214379 
L 111.817924 147.362249 
L 111.37467 147.001654 
L 110.433304 147.100234 
L 109.960427 146.965335 
L 109.572031 146.529508 
L 108.978466 145.543708 
L 108.486937 145.227215 
L 109.59178 144.74988 
L 109.59178 144.358155 
L 106.813763 144.358155 
L 106.813763 143.878226 
L 108.357472 142.91318 
L 108.855584 142.378773 
L 109.302129 142.256845 
L 111.433917 142.614846 
L 111.433917 142.140106 
L 109.335044 141.68093 
L 108.67126 141.704278 
L 106.94652 143.346413 
L 106.260793 143.442399 
L 106.260793 143.006571 
L 106.966269 142.3217 
L 107.225199 141.852148 
L 107.383191 141.229538 
L 105.746224 142.94431 
L 105.568483 144.417821 
L 103.851423 146.054768 
L 102.449248 146.599551 
L 102.027938 146.965335 
L 102.195804 147.836989 
L 101.395972 147.549032 
L 100.640027 147.764351 
L 99.065598 149.144471 
L 98.427049 149.930516 
L 98.002446 150.195126 
L 97.574553 150.010937 
L 97.284902 149.393515 
L 97.3244 148.763122 
L 97.758876 147.362249 
L 97.199323 147.549032 
L 96.93381 148.26244 
L 96.751681 150.534967 
L 96.103257 151.754246 
L 95.990249 152.778958 
L 95.952946 153.155119 
L 95.735708 153.533873 
L 94.765815 153.523496 
L 94.287452 154.179831 
L 93.802506 154.366614 
L 93.364738 154.156483 
L 92.878695 153.588352 
L 92.459579 152.75561 
L 92.2193 151.754246 
L 91.77824 152.376856 
L 91.29878 152.623306 
L 91.682787 151.813912 
L 92.01413 150.82033 
L 92.123847 149.860473 
L 91.850653 149.144471 
L 92.2193 148.708644 
L 91.794698 148.298759 
L 91.29878 148.233903 
L 91.682787 147.362249 
L 91.682787 146.965335 
L 90.442993 147.914816 
L 89.67827 148.288382 
L 89.091288 148.233903 
L 88.605245 147.458235 
L 88.408853 146.412768 
L 88.5065 145.403621 
L 88.88941 144.74988 
L 88.88941 144.358155 
L 88.422018 144.264763 
L 88.079704 143.790023 
L 87.702279 143.006571 
L 87.355576 142.824977 
L 86.594145 141.787293 
L 86.313271 141.229538 
L 86.985832 141.53306 
L 87.689114 142.256845 
L 88.401172 142.700455 
L 89.091288 142.140106 
L 88.519666 142.140106 
L 88.68424 141.416321 
L 88.942074 140.936392 
L 89.626704 140.396797 
L 89.25696 139.96097 
L 89.25696 139.525142 
L 92.380583 137.932298 
L 93.157374 136.915368 
L 93.157374 136.479541 
L 91.485298 137.953052 
L 90.594401 138.435574 
L 89.727643 138.614575 
L 88.992543 139.094504 
L 88.164185 139.999883 
L 87.403851 140.552449 
L 86.864047 139.96097 
L 87.216236 139.704143 
L 87.967793 138.614575 
L 88.829066 137.571703 
L 89.091288 136.915368 
L 88.88941 136.479541 
L 89.282194 136.183801 
L 89.626704 135.61048 
L 89.023264 134.891884 
L 88.211363 134.661 
L 86.478943 134.738826 
L 86.864047 133.867172 
L 86.313271 133.867172 
L 86.501983 133.221214 
L 87.232694 131.218484 
L 86.954014 131.29631 
L 86.70825 131.547949 
L 86.313271 132.520777 
L 86.143211 131.929297 
L 85.922681 131.69063 
L 85.669236 131.763268 
L 85.391654 132.08495 
L 85.391654 132.520777 
L 83.903901 132.08495 
L 83.483687 132.297675 
L 82.687147 133.205648 
L 82.24499 133.392431 
L 82.24499 133.867172 
L 82.456743 133.929433 
L 82.982284 134.302999 
L 80.498307 134.793305 
L 79.853175 134.302999 
L 80.812095 134.341912 
L 81.041402 134.085085 
L 80.963504 133.727084 
L 80.35019 132.730908 
L 80.112105 132.520777 
L 77.257287 132.520777 
L 77.678598 132.987735 
L 79.099424 133.867172 
L 79.099424 134.302999 
L 78.376393 134.274463 
L 77.108073 133.13301 
L 76.33567 132.995517 
L 76.519993 132.995517 
L 73.138537 132.681618 
L 69.923849 132.681618 
L 66.209952 132.404038 
L 64.642106 130.725584 
L 63.14777 130.614033 
L 60.538716 131.218484 
L 60.522258 131.400079 
L 59.867252 132.520777 
L 59.281367 132.992923 
L 58.95551 133.073344 
L 55.81872 132.08495 
L 56.426549 131.654311 
L 56.763378 131.597238 
L 56.310249 131.405267 
L 55.278916 131.96821 
L 54.46921 133.034431 
L 54.346327 134.302999 
L 53.847118 135.799858 
L 53.109825 136.422468 
L 51.116279 136.479541 
L 50.532589 136.64557 
L 49.352041 137.314876 
L 48.805654 137.392702 
L 46.855995 136.240873 
L 46.44017 135.626046 
L 46.053969 135.470393 
L 45.770901 135.161682 
L 45.507582 133.516953 
L 44.354463 131.654311 
L 43.442721 129.573755 
L 42.698844 126.862806 
L 42.880973 126.388066 
L 43.425166 126.953604 
L 43.933153 126.714936 
L 44.923891 125.516412 
L 45.439558 125.189541 
L 48.368983 124.343829 
L 48.941702 124.411278 
L 51.109696 125.851065 
L 54.07862 126.388066 
L 54.334259 126.222037 
L 55.081427 125.122092 
L 56.197242 125.184353 
L 56.470435 124.904178 
L 57.453493 123.337276 
L 58.561628 122.953333 
L 61.006107 123.383972 
L 61.006107 122.906637 
L 60.772412 122.538259 
L 60.6221 122.034983 
L 61.752178 121.957156 
L 62.120825 122.299592 
L 61.927724 123.383972 
L 62.283205 123.653769 
L 62.728653 122.885883 
L 63.030373 122.906637 
L 63.128021 123.51887 
L 63.132409 124.411278 
L 63.272846 124.873048 
L 63.767667 124.214119 
L 64.18788 124.618815 
L 64.675021 124.372365 
L 65.074388 123.773103 
L 65.241157 123.14271 
L 64.794612 120.753443 
L 64.873607 119.858441 
L 65.614192 118.838917 
L 66.73659 118.636568 
L 68.940791 118.986787 
L 68.737816 119.715759 
L 68.402084 120.208659 
L 67.632972 120.769008 
L 67.835948 121.640663 
L 67.519965 121.710706 
L 67.292852 121.951968 
L 66.897873 122.906637 
L 68.388918 125.122092 
L 68.227635 124.154452 
L 68.207886 123.352841 
L 68.328574 122.66797 
L 68.76305 121.894895 
L 69.274328 121.796315 
L 69.491567 121.640663 
L 69.666016 121.282662 
L 69.961152 120.076355 
L 70.705029 119.087961 
L 71.476335 119.010135 
L 72.208142 119.643122 
L 72.822554 120.769008 
L 73.250447 120.107485 
L 73.814389 119.695006 
L 75.468911 119.285121 
L 77.072964 118.159234 
L 76.643973 117.881653 
L 74.682245 118.159234 
L 74.682245 117.681899 
L 75.815615 117.422478 
L 77.8322 115.331546 
L 78.898643 115.072125 
L 78.546454 115.507952 
L 79.027011 115.637662 
L 79.482334 115.943779 
L 79.482334 116.773926 
L 79.10491 117.329087 
L 78.290815 117.785668 
L 77.993483 118.159234 
L 78.350061 118.257814 
L 78.799898 118.224089 
L 79.262901 118.037306 
L 79.651297 117.681899 
L 79.831232 118.916743 
L 80.060539 119.435585 
L 80.956921 119.858441 
L 82.161606 120.979139 
L 82.613637 121.165922 
L 82.613637 120.769008 
L 82.277905 120.56666 
L 81.975088 120.167152 
L 81.308013 118.986787 
L 82.038724 118.006175 
L 82.440285 117.69487 
L 82.982284 117.681899 
L 83.034948 116.836187 
L 83.539643 116.589737 
L 85.791021 116.698694 
L 87.999611 116.169475 
L 91.646581 116.903636 
L 94.061437 118.159234 
L 94.335727 117.99061 
L 94.998414 117.246072 
L 97.023777 117.246072 
L 97.570164 117.500305 
L 98.149466 117.951697 
L 98.768266 118.112538 
L 99.233463 117.681899 
L 99.940037 118.161828 
L 102.930903 117.681899 
L 103.647351 117.07226 
L 103.67478 116.281026 
L 103.194222 115.648039 
L 102.380127 115.507952 
L 102.652224 114.66224 
L 102.972595 114.382065 
L 103.364282 114.226412 
L 103.851423 113.764643 
L 104.197029 113.027888 
L 105.32601 109.769561 
L 105.41488 107.561888 
L 104.55251 106.659104 
L 103.382934 106.775843 
L 102.546896 107.631932 
L 102.546896 108.067759 
L 102.74658 108.067759 
L 102.74658 108.5425 
L 98.680493 112.026523 
L 97.333177 112.589466 
L 89.645355 111.092607 
L 87.417017 109.375241 
L 87.285358 109.414154 
L 86.90135 109.702111 
L 84.443705 110.086054 
L 83.719578 109.769561 
L 83.208299 109.14695 
L 83.62193 108.877153 
L 84.41079 108.628108 
L 85.024104 108.067759 
L 85.431152 108.534717 
L 85.92707 108.5425 
L 85.92707 108.067759 
L 85.330213 107.626744 
L 84.647777 107.559294 
L 83.348736 108.067759 
L 83.625221 107.123467 
L 84.115653 106.210305 
L 85.024104 105.022157 
L 86.278162 104.425489 
L 86.754331 103.885894 
L 86.681918 102.845616 
L 87.077994 102.674398 
L 88.052275 102.845616 
L 88.292553 102.596572 
L 89.091288 101.063394 
L 89.80993 100.513421 
L 92.818351 99.662521 
L 95.360478 97.709081 
L 96.334759 96.494991 
L 98.061693 95.610366 
L 98.619052 94.860639 
L 98.504947 94.821726 
L 98.512627 94.533769 
L 98.917481 94.580465 
L 99.57907 95.314626 
L 99.986117 95.36651 
L 99.618568 94.059028 
L 101.290644 93.093983 
L 104.791692 91.999226 
L 106.461574 91.013427 
L 103.872269 91.856545 
L 102.930903 91.879893 
L 101.007576 91.449254 
L 99.407912 91.9214 
L 98.881274 91.879893 
L 99.411204 90.891499 
L 99.986117 90.141772 
L 99.012934 89.194886 
L 98.647578 88.502232 
L 98.512627 87.529403 
L 97.7885 87.949665 
L 97.023777 87.965231 
L 97.176283 88.860233 
L 96.936004 89.14819 
L 96.551997 89.057393 
L 96.271123 88.836885 
L 96.023164 88.263565 
L 95.517372 86.735575 
L 95.165183 86.221922 
L 95.30562 87.298519 
L 95.241984 88.201304 
L 95.002803 88.989943 
L 94.612213 89.705945 
L 93.861753 90.525715 
L 93.618183 90.613918 
L 93.133237 92.082241 
L 92.874306 92.354633 
L 91.857236 92.450619 
L 91.401913 92.269024 
L 90.677786 91.143137 
L 89.091288 89.705945 
L 87.956821 89.132625 
L 87.805413 88.569681 
L 88.33644 87.529403 
L 88.921228 87.101359 
L 91.906608 86.457995 
L 93.157374 85.591529 
L 93.802506 85.394369 
L 94.100935 85.114194 
L 94.478359 82.688609 
L 94.776787 82.346173 
L 95.365964 81.871433 
L 94.568326 82.089346 
L 92.587947 84.917035 
L 91.669621 85.674544 
L 90.791891 86.081835 
L 88.88941 86.221922 
L 88.88941 85.786095 
L 90.03046 84.976701 
L 90.379357 84.522715 
L 90.379357 84.04538 
L 89.819804 84.086888 
L 89.418243 84.463048 
L 88.720447 85.394369 
L 88.163088 85.607094 
L 87.509179 84.992267 
L 87.031913 84.917035 
L 87.031913 85.394369 
L 87.359965 85.88208 
L 87.221722 86.455401 
L 86.828938 86.935329 
L 85.340087 87.529403 
L 84.941817 87.327055 
L 84.655458 86.221922 
L 84.628029 85.176455 
L 84.724579 83.599176 
L 84.371292 82.519985 
L 83.849043 80.275994 
L 83.526477 79.495137 
L 83.189648 80.086617 
L 83.228048 81.798795 
L 83.658136 83.155566 
L 83.661428 83.677002 
L 83.508922 84.167308 
L 82.697022 85.726428 
L 82.359095 85.770529 
L 81.959728 85.155702 
L 81.44845 83.949394 
L 81.219143 83.843032 
L 81.049083 85.503326 
L 80.84501 86.006603 
L 80.553165 86.250458 
L 80.204267 86.221922 
L 79.995806 85.94953 
L 79.780762 85.435876 
L 79.165254 83.435741 
L 79.047857 82.395463 
L 79.243152 81.326649 
L 79.853175 80.128124 
L 79.60741 79.777906 
L 79.099424 80.128124 
L 78.378588 79.653384 
L 77.769662 79.76234 
L 77.644586 80.128124 
L 77.661043 80.493908 
L 77.902419 81.871433 
L 78.161349 82.660072 
L 78.898643 87.529403 
L 78.521219 87.926317 
L 78.06041 87.827738 
L 77.562298 87.578693 
L 77.072964 87.529403 
L 77.072964 87.132489 
L 77.226566 86.603271 
L 77.094907 86.172632 
L 76.789895 85.892457 
L 76.427832 85.786095 
L 75.534741 86.074052 
L 75.238507 85.996226 
L 75.215466 85.394369 
L 74.994937 85.443659 
L 74.312501 85.394369 
L 74.312501 84.917035 
L 74.965313 84.273671 
L 76.169998 82.649696 
L 76.890834 82.302071 
L 76.620932 81.601635 
L 76.166707 81.116518 
L 75.215466 80.522444 
L 75.067349 81.944071 
L 74.518768 83.163349 
L 73.836332 83.775582 
L 73.283362 83.37348 
L 72.825845 81.259199 
L 72.537291 80.999778 
L 72.467073 81.430417 
L 72.253126 84.04538 
L 71.680407 84.774353 
L 70.059897 85.166079 
L 69.30066 85.591529 
L 67.812907 84.867745 
L 67.018561 84.073917 
L 67.098654 82.737899 
L 66.347097 83.171132 
L 65.888483 84.431917 
L 65.853374 85.825008 
L 66.362458 86.657749 
L 66.362458 87.132489 
L 66.01356 87.49049 
L 65.401343 88.478884 
L 65.041473 88.836885 
L 64.610288 88.96919 
L 62.814232 88.759059 
L 62.075841 88.432188 
L 61.642462 88.362145 
L 61.223346 88.154608 
L 60.455332 87.132489 
L 60.143737 87.251823 
L 59.867252 87.529403 
L 60.068033 87.700621 
L 60.253454 87.965231 
L 59.478856 88.284318 
L 58.060225 89.446524 
L 54.41874 90.178091 
L 53.591479 89.705945 
L 53.451042 90.717687 
L 53.268913 90.782542 
L 53.040703 91.013427 
L 52.026925 92.751547 
L 47.080914 94.121289 
L 45.832342 93.97342 
L 44.739568 93.226287 
L 44.739568 92.751547 
L 44.890976 92.245676 
L 44.776871 91.781313 
L 44.186597 91.013427 
L 44.678126 91.047151 
L 45.108214 91.449254 
L 45.18721 90.276671 
L 44.690195 89.685191 
L 44.074687 89.7708 
L 43.801493 90.613918 
L 43.156361 89.661844 
L 39.014571 87.965231 
L 31.327846 88.774624 
L 30.342594 88.590435 
L 29.76 87.529403 
L 30.943839 86.828967 
L 31.54289 86.240081 
L 31.80182 85.591529 
L 32.141941 85.155702 
L 33.717467 84.167308 
L 34.19583 83.614741 
L 34.305547 82.623753 
L 34.301158 81.474519 
L 34.454761 80.522444 
L 35.284216 79.982848 
L 35.755996 79.360238 
L 36.137809 79.217557 
L 36.823536 79.342079 
L 39.446853 80.875256 
L 40.203895 80.999778 
L 40.666898 81.27217 
L 42.145874 83.137407 
L 43.207928 83.801525 
L 45.091757 84.299613 
L 46.395187 86.221922 
L 47.208184 86.626619 
L 47.99485 86.57214 
L 49.527587 85.786095 
L 48.29657 85.83279 
L 47.659119 85.661573 
L 47.148938 85.394369 
L 46.707878 84.821049 
L 45.914629 83.417582 
L 45.374825 83.137407 
L 44.048355 81.700215 
L 43.311061 80.439429 
L 42.450885 79.303165 
L 41.978008 78.390004 
L 46.045192 79.217557 
L 48.686063 80.742952 
L 49.527587 80.999778 
L 49.011921 80.011385 
L 48.291084 79.178643 
L 47.520876 78.59754 
L 46.349106 78.174684 
L 44.950223 77.256334 
L 43.701651 76.807536 
L 43.106989 76.244593 
L 42.145874 74.90598 
L 41.039934 72.687931 
L 40.951063 71.878538 
L 40.952161 70.358331 
L 40.673481 69.606011 
L 41.814531 68.609834 
L 42.973135 68.687661 
L 54.346327 74.90598 
L 54.603064 75.21988 
L 55.081427 76.16936 
L 55.815429 76.727115 
L 56.003044 77.041015 
L 56.279529 78.177279 
L 56.158841 78.898469 
L 55.873578 79.559992 
L 55.650854 80.522444 
L 56.134703 80.792242 
L 56.753503 80.307124 
L 57.859444 78.781729 
L 57.966966 79.100817 
L 58.395956 79.653384 
L 58.688899 79.054121 
L 60.154709 79.417311 
L 60.805327 79.217557 
L 60.805327 78.781729 
L 60.457526 78.509337 
L 60.253454 77.912669 
L 60.723039 77.878944 
L 61.927724 77.041015 
L 62.364395 76.989131 
L 63.208114 76.999507 
L 63.584441 76.605188 
L 60.385113 76.869797 
L 58.925886 76.408028 
L 57.859444 75.733533 
L 57.486408 75.308083 
L 57.006948 74.555762 
L 56.743629 73.83976 
L 57.013531 73.520673 
L 58.69219 72.757975 
L 59.057546 72.905845 
L 59.476662 73.271629 
L 61.677571 72.978483 
L 62.378658 72.355873 
L 62.931629 72.213191 
L 64.111079 72.656801 
L 64.688187 72.713874 
L 65.241157 72.213191 
L 64.732073 71.769581 
L 64.50496 71.777364 
L 64.50496 71.385638 
L 65.775475 70.516578 
L 66.162774 70.036649 
L 64.683798 70.244186 
L 63.832399 70.625535 
L 62.673795 71.652842 
L 55.406187 71.47903 
L 53.978778 70.908304 
L 53.040703 70.036649 
L 51.620974 70.547709 
L 51.299506 70.275317 
L 50.925373 69.613793 
L 49.357527 67.901615 
L 48.491865 66.173872 
L 47.914757 64.09591 
L 48.008016 62.165818 
L 49.156746 60.89725 
L 49.687773 60.866119 
L 51.217218 61.76631 
L 53.225027 62.204731 
L 53.729722 62.523819 
L 54.585509 63.556314 
L 55.081427 63.945446 
L 55.591608 64.007707 
L 57.291113 63.509619 
L 60.6221 64.811912 
L 61.726944 64.811912 
L 63.648076 66.192031 
L 64.688187 66.609699 
L 65.625164 66.158306 
L 63.395729 65.455276 
L 62.684767 64.586215 
L 60.455332 64.381273 
L 59.758633 63.97917 
L 58.493604 62.866255 
L 55.700227 62.217702 
L 55.081427 61.76631 
L 53.617811 59.823247 
L 52.878323 59.415956 
L 52.517357 58.819288 
L 51.934763 58.580621 
L 50.700455 57.441763 
L 49.597806 55.955281 
L 49.357527 55.436439 
L 49.354235 53.470028 
L 49.508935 52.437533 
L 49.910497 51.674835 
L 51.021923 51.280515 
L 52.418612 51.589226 
L 57.306473 54.461016 
L 58.738271 54.824205 
L 59.702678 54.28461 
L 59.827754 55.285975 
L 60.159097 56.142064 
L 60.627586 56.733544 
L 61.173973 56.94108 
L 61.173973 56.541572 
L 60.716456 55.861889 
L 59.889195 53.874725 
L 59.334031 53.457057 
L 58.717425 53.319564 
L 57.477631 52.722896 
L 56.832499 52.585403 
L 56.531876 52.367489 
L 55.710101 51.277921 
L 54.131284 49.900396 
L 53.225027 48.670741 
L 54.097271 47.970304 
L 56.447395 47.747202 
L 58.22809 48.027377 
L 60.6221 49.936715 
L 59.981357 49.363395 
L 58.921498 47.679753 
L 58.311475 47.324346 
L 55.72217 47.384013 
L 55.081427 46.927432 
L 55.081427 46.452692 
L 55.739725 45.394254 
L 56.453978 44.794992 
L 56.648176 44.709383 
L 57.765088 44.654905 
L 58.188593 44.289121 
L 58.22809 43.446003 
L 58.840307 43.145075 
L 63.075357 44.317657 
L 65.821556 46.273691 
L 66.631262 46.452692 
L 67.164484 46.865171 
L 67.845822 47.838 
L 68.309922 48.987234 
L 68.203497 49.936715 
L 68.388918 51.322023 
L 69.718679 49.301134 
L 70.245318 49.065061 
L 70.534969 49.23109 
L 70.790608 49.620221 
L 71.165838 50.408861 
L 71.657367 51.091138 
L 71.712225 51.436168 
L 71.719905 52.367489 
L 71.905325 54.014812 
L 71.726488 54.484364 
L 69.692348 58.284881 
L 69.860213 58.284881 
L 70.439516 57.376908 
L 71.914103 55.623222 
L 72.453907 54.764539 
L 72.898258 53.20023 
L 73.191201 53.02123 
L 73.513767 53.220984 
L 73.717839 53.698319 
L 74.110623 55.200366 
L 73.928494 55.675106 
L 74.31689 55.306728 
L 74.744784 54.694495 
L 75.177066 54.344277 
L 75.584113 54.764539 
L 75.124402 56.245832 
L 74.491339 57.737503 
L 73.714547 58.94381 
L 72.822554 59.550855 
L 73.905454 59.483406 
L 74.39808 59.234362 
L 74.847917 58.679201 
L 75.755271 56.07202 
L 76.051505 55.869672 
L 76.427832 57.589633 
L 76.008715 60.863525 
L 76.153541 61.76631 
L 77.072964 58.679201 
L 77.022494 57.25498 
L 77.134405 55.612845 
L 77.36042 54.08745 
L 77.861824 52.538707 
L 78.009941 52.437533 
L 79.836717 52.600968 
L 80.019944 52.803316 
L 80.083579 53.667188 
L 80.254736 54.191218 
L 80.489529 54.5129 
L 81.520863 55.573932 
L 82.677273 57.87759 
L 82.440285 59.963334 
L 82.275711 60.58335 
L 82.061764 60.89725 
L 82.24499 61.288975 
L 80.857079 65.050579 
L 80.572914 66.223162 
L 80.768209 66.765351 
L 81.119301 66.664177 
L 81.752364 64.204867 
L 83.541837 59.543072 
L 83.719578 57.807546 
L 84.296685 57.706372 
L 84.663138 58.310823 
L 84.974732 59.216202 
L 85.391654 60.025595 
L 85.586949 60.072291 
L 85.742746 59.916639 
L 85.909515 59.919233 
L 86.128948 60.461423 
L 86.113587 60.975076 
L 85.945721 61.901209 
L 86.313271 62.204731 
L 86.486623 61.239685 
L 86.666558 60.754568 
L 86.864047 60.89725 
L 86.866241 61.333077 
L 86.681918 63.509619 
L 86.458097 64.22562 
L 85.575977 66.158306 
L 85.575977 66.55522 
L 86.607311 65.987089 
L 87.658393 62.430427 
L 88.519666 61.76631 
L 88.519666 61.288975 
L 87.965599 60.702684 
L 87.658393 59.473029 
L 87.232694 56.94108 
L 86.839909 56.033107 
L 86.326437 55.177018 
L 85.755912 54.538842 
L 85.189776 54.28461 
L 85.468455 53.457057 
L 85.741649 51.962793 
L 86.128948 51.322023 
L 86.643517 51.06779 
L 87.182224 51.03666 
L 87.654004 50.803181 
L 87.967793 49.936715 
L 87.413726 49.957469 
L 86.082867 50.606021 
L 85.575977 51.083356 
L 85.076768 51.270139 
L 82.817709 50.188353 
L 81.308013 48.670741 
L 74.896192 45.993517 
L 73.011266 44.063425 
L 71.885576 41.230548 
L 73.14512 40.452285 
L 77.147571 39.409413 
L 77.993483 39.448326 
L 80.857079 40.319981 
L 81.890607 40.428938 
L 82.24499 41.230548 
L 82.970215 41.954333 
L 83.352028 42.047724 
L 83.719578 41.666375 
L 83.405789 41.160505 
L 83.166607 40.319981 
L 84.498563 40.327763 
L 85.182096 40.148763 
L 86.367032 39.238195 
L 87.713251 39.105891 
L 88.33644 38.615585 
L 84.671915 39.175934 
L 83.552809 38.615585 
L 83.022879 38.078584 
L 83.13479 37.992975 
L 83.569266 37.946279 
L 84.003743 37.505264 
L 84.290102 37.027929 
L 84.685081 36.64658 
L 85.132724 36.428667 
L 85.575977 36.441638 
L 85.575977 35.964303 
L 84.976926 35.634839 
L 84.619251 35.756766 
L 83.552809 36.835958 
L 82.183549 37.562336 
L 80.588274 37.707612 
L 79.099424 37.313292 
L 79.063217 36.623232 
L 79.296913 36.161463 
L 79.853175 35.528476 
L 79.951919 35.074489 
L 80.204267 33.393442 
L 80.572914 33.006904 
L 81.860983 32.482874 
L 80.689213 32.716353 
L 79.803802 33.31821 
L 77.670917 35.525882 
L 77.169514 35.790491 
L 76.051505 35.964303 
L 75.721259 35.590737 
L 75.903388 34.755402 
L 76.32031 33.878559 
L 76.688956 33.393442 
L 76.688956 32.918701 
L 75.765145 33.284485 
L 75.307628 33.660645 
L 74.847917 34.226183 
L 73.772697 36.070666 
L 73.557653 36.20297 
L 72.908132 36.94232 
L 68.637974 35.868317 
L 67.52545 35.263867 
L 66.167163 33.510181 
L 66.529226 32.918701 
L 67.564948 32.848658 
L 68.868378 33.331181 
L 70.021496 33.167745 
L 70.612867 31.180581 
L 69.851436 31.071624 
L 69.000038 30.451608 
L 68.211177 29.546229 
L 67.632972 28.568212 
L 68.458039 27.930037 
L 69.305049 28.303603 
L 70.152059 29.027387 
L 70.966154 29.437272 
L 70.630422 28.41256 
L 70.410989 28.093472 
L 73.557653 27.696558 
L 73.722228 27.953385 
L 74.110623 29.001445 
L 74.69212 29.144127 
L 74.93569 28.65901 
L 74.836945 28.020834 
L 74.395886 27.696558 
L 73.954826 27.533123 
L 72.621773 26.389076 
L 75.317503 26.389076 
L 75.794769 26.591425 
L 76.748203 27.491615 
L 77.96386 27.937819 
L 78.935946 29.074083 
L 79.482334 29.437272 
L 80.173546 29.323127 
L 81.226823 28.134979 
L 81.860983 27.696558 
L 81.693117 26.824903 
L 82.754074 26.45912 
L 83.625221 27.128426 
L 84.474426 28.083095 
L 86.335214 28.959938 
L 86.742262 28.879517 
L 86.864047 28.093472 
L 86.668752 27.463079 
L 85.962179 26.996121 
L 85.758106 26.389076 
L 86.623768 26.531758 
L 87.456515 27.330774 
L 88.088481 28.583777 
L 88.33644 30.091013 
L 88.80822 31.030117 
L 91.002546 32.194917 
L 91.682787 33.393442 
L 91.29878 34.029023 
L 91.646581 34.412966 
L 92.790922 34.66201 
L 92.790922 35.097837 
L 92.297198 34.942185 
L 92.090932 35.214577 
L 92.053628 36.441638 
L 92.472745 37.692047 
L 92.053628 38.143439 
L 92.053628 38.615585 
L 92.403623 39.051412 
L 93.200164 38.343193 
L 93.646709 38.148627 
L 94.061437 38.143439 
L 94.309396 38.428802 
L 94.526634 38.864629 
L 94.786661 39.056601 
L 95.397781 37.81138 
L 95.830064 37.68167 
L 96.078022 38.127874 
L 95.918934 39.051412 
L 97.840066 38.856847 
L 98.328304 39.051412 
L 98.564194 38.651904 
L 98.803376 38.63115 
L 99.233463 39.051412 
L 100.354764 40.794721 
L 100.099125 41.246113 
L 98.512627 42.532841 
L 98.8714 42.76632 
L 99.217006 42.589914 
L 99.57907 42.257855 
L 99.986117 42.060695 
L 100.38329 42.156681 
L 101.642834 43.168423 
L 102.195804 43.837729 
L 102.462414 43.853294 
L 103.297356 43.446003 
L 104.990278 44.317657 
L 104.789497 45.147804 
L 105.254694 45.438356 
L 105.523499 46.201053 
L 105.516916 46.974128 
L 105.158144 47.324346 
L 105.524597 48.670741 
L 105.533374 48.647393 
L 105.714406 50.91992 
L 105.893243 51.347965 
L 106.260793 51.674835 
L 106.643703 51.617763 
L 107.11658 51.3324 
L 107.576292 51.21566 
L 107.919704 51.674835 
L 107.972367 52.556866 
L 107.412814 54.08745 
L 107.198867 54.764539 
L 107.543377 54.671147 
L 108.333334 54.004435 
L 108.486937 53.674971 
L 108.472674 52.115851 
L 107.919704 50.842094 
L 108.254338 50.486687 
L 109.213259 50.017135 
L 110.411361 49.936715 
L 110.613239 50.154629 
L 110.981886 51.322023 
L 111.479998 51.550313 
L 111.155238 52.048401 
L 110.329074 52.585403 
L 110.151333 53.195042 
L 110.270924 53.659406 
L 110.789882 54.523277 
L 111.474512 55.07325 
L 114.396257 54.28461 
L 115.170854 54.484364 
L 115.807209 54.842365 
L 116.294349 55.586903 
L 116.621304 56.94108 
L 112.82512 57.288704 
L 112.103186 57.869807 
L 109.257145 58.686983 
L 108.855584 58.679201 
L 109.351501 59.581986 
L 110.10635 59.480811 
L 111.62592 58.679201 
L 114.153784 58.235591 
L 114.947033 58.679201 
L 114.621176 59.218796 
L 113.45928 60.025595 
L 113.45928 60.461423 
L 116.362374 59.652029 
L 117.073335 60.243509 
L 117.46612 61.527643 
L 117.550601 62.624993 
L 117.231327 63.457734 
L 116.42162 63.945446 
L 117.708593 64.811912 
L 117.708593 65.286652 
L 116.371151 68.337442 
L 115.885108 69.164995 
L 115.089664 69.875808 
L 112.35334 70.908304 
L 112.35334 71.385638 
L 112.93703 71.427146 
L 113.942032 71.240363 
L 114.396257 71.385638 
L 115.829152 72.283235 
L 116.253754 72.687931 
L 114.042971 75.297706 
L 113.250819 75.894374 
L 109.59178 75.733533 
L 109.331752 75.437793 
L 108.763422 74.43124 
L 108.243367 74.052486 
L 107.758421 73.209368 
L 107.431466 72.319554 
L 107.383191 71.777364 
L 106.713921 70.861608 
L 105.884466 70.415404 
L 105.01661 70.438752 
L 104.236527 70.908304 
L 104.759874 70.991319 
L 106.461574 72.213191 
L 106.517529 72.387003 
L 107.198867 73.520673 
L 107.267989 74.291153 
L 107.183507 74.799618 
L 106.62944 75.733533 
L 107.287738 76.491042 
L 107.834125 78.151336 
L 108.763422 79.015208 
L 113.265082 78.898469 
L 114.038582 79.295383 
L 114.396257 80.128124 
L 114.121966 80.854503 
L 112.728569 83.033639 
L 112.185474 83.614741 
L 112.185474 84.04538 
L 113.492195 83.334567 
L 115.142328 81.861056 
L 116.556571 81.544562 
L 117.155622 84.284047 
L 116.586195 86.613648 
L 115.236684 88.860233 
L 113.646895 90.494585 
L 112.35334 91.013427 
L 112.35334 91.449254 
L 115.074304 90.406382 
L 116.118803 89.482843 
L 116.704688 89.270118 
L 117.310322 89.39464 
L 117.70201 89.742264 
L 118.462344 91.013427 
L 119.489288 91.981067 
L 119.765773 92.603677 
L 119.56609 93.662114 
L 119.946805 93.898187 
L 120.004955 94.378116 
L 119.953388 95.84125 
L 120.11906 98.235706 
L 120.009344 100.145044 
L 121.058231 103.496762 
L 121.424684 104.150503 
L 121.28315 104.363228 
L 121.223903 104.542229 
L 121.76261 105.115549 
L 122.306803 106.176581 
L 122.592065 107.421801 
L 122.346301 108.939414 
L 122.785166 109.323357 
L 123.232809 108.947196 
L 123.445658 108.072948 
L 123.052874 106.519016 
L 122.899271 105.022157 
L 122.662284 104.371011 
L 121.97546 102.845616 
L 122.52843 101.935048 
L 122.43188 101.382482 
L 122.877328 100.622378 
L 123.080303 100.230653 
L 123.226226 99.250041 
L 123.211963 98.365416 
L 122.652409 93.537592 
L 122.54379 91.516703 
L 122.889397 90.613918 
L 123.719949 91.078282 
L 124.298154 92.21714 
L 125.122124 94.930683 
L 126.026186 96.928224 
L 126.208315 97.389993 
L 127.128835 97.685733 
L 127.498579 98.017792 
L 127.700457 97.537863 
L 126.997175 96.072135 
L 126.361918 94.113507 
L 125.883555 92.01998 
L 125.560989 88.642319 
L 125.552211 87.60723 
L 125.779324 86.307531 
L 126.228064 85.394369 
L 126.595614 83.137407 
L 127.418486 81.575693 
L 130.460919 79.217557 
L 132.11983 77.041015 
L 132.619039 76.771217 
L 133.135803 76.625941 
L 133.515421 76.361332 
L 133.607583 75.733533 
L 133.963064 75.676461 
L 134.221994 75.871026 
L 134.845183 76.625941 
L 135.284048 76.605188 
L 135.284048 77.331566 
L 135.152388 77.367885 
L 135.08217 77.518349 
L 134.870418 81.357779 
L 135.08217 82.302071 
L 134.758507 83.381263 
L 134.742049 84.491584 
L 135.0317 85.16089 
L 135.634043 84.917035 
L 135.357558 83.74964 
L 135.404736 82.719739 
L 135.753634 82.23981 
L 136.3856 82.737899 
L 136.647822 83.407205 
L 136.634656 83.778177 
L 136.738886 84.522715 
L 136.568826 85.435876 
L 136.569923 85.786095 
L 136.664279 85.762747 
L 137.324771 86.221922 
L 138.04451 87.965231 
L 138.667699 88.362145 
L 139.005625 88.419217 
L 139.437907 88.299884 
L 139.946991 87.947071 
L 140.182881 87.267388 
L 140.321124 86.281589 
L 140.637107 84.917035 
L 140.327707 84.649831 
L 139.914076 83.793742 
L 139.609065 83.614741 
L 138.680865 83.692568 
L 138.233222 83.568046 
L 137.85909 83.137407 
L 138.757666 82.794971 
L 139.96674 82.603 
L 140.709519 82.003737 
L 141.099012 81.871433 
L 141.441327 82.470695 
L 141.333805 85.306166 
L 141.724395 86.221922 
L 141.625651 85.194615 
L 142.046961 83.697756 
L 141.724395 82.737899 
L 142.031601 81.892186 
L 143.315282 79.889457 
L 143.416221 79.422499 
L 143.448038 78.384815 
L 143.58299 77.912669 
L 143.836434 77.668814 
L 144.333449 77.676596 
L 144.889711 77.518349 
L 144.29066 77.396422 
L 143.922013 76.610376 
L 143.872641 75.723156 
L 144.587991 75.048662 
L 144.850213 74.394921 
L 145.014787 73.486948 
L 145.074034 72.449264 
L 144.860087 70.814912 
L 144.335643 69.318053 
L 143.668568 68.137688 
L 143.030019 67.465788 
L 143.030019 66.991048 
L 143.747564 66.337307 
L 143.475468 64.485041 
L 142.777672 62.414862 
L 141.565307 59.571609 
L 141.221895 56.321064 
L 140.930049 55.4987 
L 140.538362 54.842365 
L 140.069873 54.28461 
L 140.482407 53.662 
L 140.862025 52.69436 
L 140.987102 51.65927 
L 140.637107 50.842094 
L 141.180202 50.375136 
L 141.827529 50.26618 
L 142.947732 50.408861 
L 143.217634 50.29731 
L 143.966997 49.537207 
L 144.320283 49.42825 
L 145.272621 49.537207 
L 145.791579 49.251844 
L 146.762568 48.063696 
L 147.190462 47.799086 
L 148.805486 48.297175 
L 149.114886 48.328305 
L 149.691994 47.799086 
L 149.830236 49.161046 
L 150.187911 49.954874 
L 150.707967 50.437397 
L 151.34871 50.842094 
L 151.164386 51.322023 
L 151.44526 51.576255 
L 151.643847 52.056184 
L 152.256064 53.968116 
L 153.391628 56.069426 
L 153.789898 57.537749 
L 154.111366 57.807546 
L 153.75808 58.679201 
L 154.282524 59.530101 
L 154.974834 60.227944 
L 155.474043 61.034743 
L 155.414796 62.204731 
L 155.901937 62.656124 
L 157.354581 62.889603 
L 158.434189 63.590039 
L 159.055183 63.634141 
L 159.546712 64.337171 
L 159.892319 64.27491 
L 160.036047 64.381273 
L 160.277423 65.294435 
L 160.4025 66.158306 
L 161.156251 67.901615 
L 161.600602 71.146971 
L 162.183195 71.925234 
L 163.559038 72.329931 
L 164.102133 73.123759 
L 164.269999 71.764393 
L 164.460906 71.28187 
L 165.394592 71.497189 
L 165.960728 72.213191 
L 166.264642 72.2988 
L 167.028267 72.259887 
L 166.592694 72.617888 
L 166.511504 72.905845 
L 166.608054 73.424687 
L 166.837361 73.442846 
L 167.331084 73.123759 
L 167.617444 72.74241 
L 167.865403 71.85519 
L 168.16822 70.036649 
L 168.356932 68.179196 
L 168.372292 66.578568 
L 168.194552 65.076521 
L 167.801767 63.509619 
L 166.962438 60.89725 
L 165.374843 59.156535 
L 165.362774 58.702549 
L 165.481267 58.103286 
L 165.711672 57.594821 
L 166.044112 57.376908 
L 166.534544 57.267951 
L 167.071057 56.94108 
L 167.581238 56.406673 
L 167.983896 55.675106 
L 167.687662 55.309323 
L 167.213688 54.165276 
L 166.952563 52.593185 
L 167.817128 51.327211 
L 169.357545 50.528195 
L 172.954045 49.936715 
L 174.21688 50.873225 
L 174.888344 50.989964 
L 174.830194 49.936715 
L 175.255893 49.52683 
L 175.490686 49.472352 
L 175.750714 49.537207 
L 175.566391 50.408861 
L 176.107292 50.616398 
L 177.022326 51.539936 
L 177.575296 51.674835 
L 176.989411 50.997747 
L 176.671234 49.936715 
L 176.855557 49.936715 
L 176.855557 49.537207 
L 176.302587 49.065061 
L 176.302587 48.670741 
L 176.554934 48.227131 
L 177.022326 46.055778 
L 177.285645 45.666646 
L 178.219331 44.865036 
L 180.628701 44.006352 
L 181.485585 44.405861 
L 181.29029 46.452692 
L 181.805957 46.250343 
L 182.165826 45.689994 
L 182.780238 44.317657 
L 182.577263 43.446003 
L 183.070986 43.067248 
L 183.801697 43.191771 
L 185.154499 43.837729 
L 184.943843 44.789804 
L 184.489618 46.175111 
L 184.404039 47.124592 
L 184.703565 47.103838 
L 186.645543 45.147804 
L 187.435501 45.324211 
L 188.086118 46.092097 
L 188.640186 46.927432 
L 189.139395 47.324346 
L 189.393937 47.778333 
L 189.081245 48.790074 
L 188.31762 50.408861 
L 188.658838 50.437397 
L 189.045039 50.336223 
L 189.411491 50.102744 
L 189.999571 49.495699 
L 190.35176 49.765497 
L 190.996892 50.408861 
L 191.418203 50.886196 
L 192.18512 54.28461 
L 191.474158 57.314647 
L 191.539988 57.807546 
L 193.473189 58.284881 
L 194.716275 59.052767 
L 196.7175 59.33813 
L 196.987403 59.550855 
L 197.277054 60.048943 
L 197.730182 61.091815 
L 198.353371 61.574338 
L 198.702268 62.967429 
L 199.081887 64.298258 
L 199.298028 64.381273 
L 200.035322 64.360519 
L 200.218548 64.593998 
L 200.560863 65.911857 
L 200.502713 67.683702 
L 200.609138 68.407486 
L 201.256464 70.036649 
L 201.339848 73.123759 
L 201.572447 73.302759 
L 202.36021 74.43124 
L 203.632919 75.733533 
L 203.488094 76.587028 
L 203.621948 77.723292 
L 203.946708 78.628671 
L 204.38667 78.781729 
L 204.725694 77.987901 
L 204.702653 76.820507 
L 204.473346 75.666084 
L 204.202347 74.90598 
L 203.985109 74.664719 
L 203.266467 73.995413 
L 203.14907 73.274223 
L 203.448596 71.613929 
L 203.360823 70.716332 
L 203.606587 69.787605 
L 204.202347 69.164995 
L 204.360338 67.982036 
L 204.278051 66.965106 
L 203.445304 63.745692 
L 203.395932 62.617211 
L 202.895626 62.640558 
L 202.015701 60.956917 
L 201.875264 60.89725 
L 201.74141 61.034743 
L 201.42433 61.76631 
L 201.058975 61.527643 
L 199.949743 60.025595 
L 200.203188 59.12281 
L 200.101151 58.266721 
L 199.758836 57.628546 
L 198.980948 57.127863 
L 198.093343 54.764539 
L 198.294124 54.764539 
L 198.294124 54.28461 
L 197.561219 52.504982 
L 197.22439 49.534613 
L 197.369215 46.548678 
L 198.093343 44.709383 
L 198.452115 44.556325 
L 200.87136 44.709383 
L 201.238909 44.919514 
L 201.88843 45.469486 
L 202.260368 45.581037 
L 203.41239 45.469486 
L 203.832603 45.581037 
L 203.632919 46.055778 
L 204.643407 46.626504 
L 207.30293 45.952009 
L 208.453854 46.452692 
L 208.675481 46.942997 
L 208.955257 48.198595 
L 209.188953 48.670741 
L 209.487382 48.816017 
L 210.577962 48.670741 
L 211.049742 48.940539 
L 211.914306 50.139063 
L 212.778871 50.717572 
L 214.176657 53.02123 
L 214.919436 55.711425 
L 215.785098 56.339224 
L 216.245906 56.977399 
L 216.939313 58.284881 
L 218.24384 61.76631 
L 218.352459 60.55222 
L 218.126444 59.602739 
L 217.490089 57.807546 
L 218.014533 57.838677 
L 218.632236 57.675242 
L 219.234578 57.361342 
L 219.715136 56.94108 
L 217.239936 57.068197 
L 216.586027 56.541572 
L 220.877031 56.468934 
L 221.191917 56.775051 
L 221.758053 58.679201 
L 221.923725 58.679201 
L 222.068551 58.227808 
L 222.100368 57.755662 
L 221.999429 57.317241 
L 221.758053 56.94108 
L 221.758053 56.541572 
L 222.104757 56.251021 
L 222.410865 55.773686 
L 222.576537 55.119945 
L 222.495347 54.28461 
L 223.096592 53.501159 
L 223.250195 52.655446 
L 223.232641 50.842094 
L 223.56947 49.97044 
L 224.254099 49.127322 
L 225.05064 48.483958 
L 225.723201 48.234914 
L 226.015046 47.892478 
L 226.169746 47.145346 
L 226.194981 46.398213 
L 226.084167 46.055778 
L 225.787933 45.863806 
L 225.92069 45.40982 
L 226.469272 44.514817 
L 227.204371 43.778062 
L 228.855601 43.176205 
L 229.138669 42.060695 
L 229.849631 42.701465 
L 232.561818 42.968669 
L 233.293626 43.490105 
L 233.819167 44.592644 
L 234.862569 47.324346 
L 234.862569 48.234914 
L 234.493922 48.234914 
L 234.493922 48.670741 
L 234.809905 48.943133 
L 235.147832 49.08322 
L 235.484661 49.020959 
L 235.800644 48.670741 
L 235.621806 48.618857 
L 235.229022 48.234914 
L 236.190137 47.534477 
L 239.586953 46.62391 
L 240.586469 46.927432 
L 240.151992 46.911867 
L 239.724099 47.051954 
L 239.314857 47.339911 
L 238.928656 47.799086 
L 239.273165 48.024783 
L 239.757014 48.945727 
L 239.949017 48.865307 
L 240.816873 47.077896 
L 241.139439 46.927432 
L 241.899773 47.638245 
L 243.053989 49.734367 
L 243.933914 49.936715 
L 243.933914 49.537207 
L 243.071543 48.93535 
L 242.350707 48.017 
L 242.140052 47.181665 
L 242.02485 46.055778 
L 241.524543 45.581037 
L 242.752269 44.727543 
L 244.592211 44.141251 
L 245.701443 43.464163 
L 246.326826 43.446003 
L 243.940497 44.794992 
L 243.19662 45.581037 
L 245.562104 44.678253 
L 246.123851 44.709383 
L 246.779955 45.285298 
L 247.828843 46.826258 
L 248.535416 46.927432 
L 248.535416 46.452692 
L 247.584175 45.503211 
L 247.103618 44.787209 
L 246.896254 44.07899 
L 247.001582 43.106162 
L 247.281358 42.283797 
L 247.688406 41.65081 
L 248.166769 41.230548 
L 248.232599 40.545677 
L 248.650618 39.432761 
L 248.719739 38.833499 
L 248.651715 37.858076 
L 248.210655 36.887842 
L 247.650005 35.712665 
L 247.189196 35.292403 
L 247.06412 33.829269 
L 246.316952 33.253354 
L 246.132628 32.742295 
L 246.237956 31.587872 
L 245.95818 31.61122 
L 246.326826 30.703247 
L 246.00426 30.24926 
L 245.757399 29.437272 
L 246.326826 29.437272 
L 246.326826 29.001445 
L 245.859435 28.381429 
L 245.342671 26.350163 
L 244.579046 25.494074 
L 244.822616 24.614637 
L 245.378877 23.838968 
L 245.95818 23.740388 
L 246.116171 24.116549 
L 246.207236 24.995986 
L 246.51115 25.081595 
L 246.896254 23.579548 
L 247.248443 23.304561 
L 248.005486 22.99585 
L 248.443254 23.019198 
L 248.452031 23.522475 
L 248.314886 24.225506 
L 248.407047 24.81958 
L 248.638549 25.260595 
L 248.92052 25.478509 
L 248.719739 24.212535 
L 249.145438 24.054288 
L 250.194326 23.304561 
L 250.591499 23.634026 
L 251.211396 24.529028 
L 251.682079 24.606854 
L 251.129109 25.081595 
L 251.593209 25.478509 
L 252.094613 25.385117 
L 252.785825 25.081595 
L 252.785825 24.606854 
L 253.676722 23.14372 
L 253.724997 23.304561 
L 253.913709 24.036128 
L 254.2264 24.145085 
L 254.516052 23.776707 
L 254.736581 22.572994 
L 254.96918 22.279849 
L 255.566037 21.99708 
L 256.313205 21.99708 
L 257.85033 22.630067 
L 258.157536 22.469226 
L 259.410496 21.950384 
L 259.410496 21.950384 
" clip-path="url(#pa3604f65f6)" style="fill: none; stroke: #000000; stroke-width: 2"/>
    <path d="M 206.628175 21.794731 
L 206.105925 22.155327 
L 205.637436 21.415977 
L 205.574898 20.373105 
L 205.86016 20.194104 
L 206.532721 21.057976 
L 206.740085 21.205846 
L 206.628175 21.794731 
" clip-path="url(#pa3604f65f6)" style="fill: none; stroke: #000000; stroke-width: 2"/>
   </g>
  </g>
 </g>
 <defs>
  <clipPath id="pa3604f65f6">
   <rect x="0" y="-0" width="357.12" height="242.329251"/>
  </clipPath>
 </defs>
</svg>
