<?xml version="1.0" encoding="utf-8" standalone="no"?>
<!DOCTYPE svg PUBLIC "-//W3C//DTD SVG 1.1//EN"
  "http://www.w3.org/Graphics/SVG/1.1/DTD/svg11.dtd">
<svg xmlns:xlink="http://www.w3.org/1999/xlink" width="95.035048pt" height="266.112pt" viewBox="0 0 95.035048 266.112" xmlns="http://www.w3.org/2000/svg" version="1.1">
 <metadata>
  <rdf:RDF xmlns:dc="http://purl.org/dc/elements/1.1/" xmlns:cc="http://creativecommons.org/ns#" xmlns:rdf="http://www.w3.org/1999/02/22-rdf-syntax-ns#">
   <cc:Work>
    <dc:type rdf:resource="http://purl.org/dc/dcmitype/StillImage"/>
    <dc:date>2024-02-02T21:58:02.456905</dc:date>
    <dc:format>image/svg+xml</dc:format>
    <dc:creator>
     <cc:Agent>
      <dc:title>Matplotlib v3.8.2, https://matplotlib.org/</dc:title>
     </cc:Agent>
    </dc:creator>
   </cc:Work>
  </rdf:RDF>
 </metadata>
 <defs>
  <style type="text/css">*{stroke-linejoin: round; stroke-linecap: butt}</style>
 </defs>
 <g id="figure_1">
  <g id="patch_1">
   <path d="M 0 266.112 
L 95.035048 266.112 
L 95.035048 0 
L 0 0 
L 0 266.112 
z
" style="fill: none"/>
  </g>
  <g id="axes_1">
   <g id="PatchCollection_1">
    <path d="M 83.037181 31.13573 
L 83.23186 33.781958 
L 84.320067 34.446076 
L 84.474812 36.080038 
L 83.945684 37.187387 
L 83.416556 38.025579 
L 83.416556 38.866697 
L 85.223578 39.615657 
L 85.073825 40.36608 
L 85.712772 45.756546 
L 85.982328 46.463085 
L 87.115461 48.319394 
L 86.436579 49.599356 
L 86.092147 49.687124 
L 85.263513 51.100202 
L 84.699442 52.786825 
L 84.884138 53.491901 
L 84.514746 54.943012 
L 82.098728 57.773555 
L 80.805858 59.6796 
L 79.972232 59.891708 
L 77.316608 61.550538 
L 75.714249 62.969467 
L 74.940524 63.367352 
L 73.792416 63.23131 
L 72.90388 63.864708 
L 72.175081 64.822851 
L 71.745788 65.200257 
L 71.401356 65.345075 
L 71.296528 65.532315 
L 71.27157 65.99749 
L 71.466249 66.405614 
L 71.875574 66.645516 
L 71.875574 66.998054 
L 71.541125 66.998054 
L 71.541125 67.420807 
L 71.815673 67.929866 
L 71.965426 69.389753 
L 72.234982 70.09044 
L 71.965426 70.429813 
L 71.875574 70.09044 
L 71.541125 70.899376 
L 71.241619 70.511731 
L 71.541125 72.06085 
L 70.882211 72.06085 
L 70.882211 72.444107 
L 71.336463 72.423627 
L 72.234982 73.637762 
L 72.234982 73.991763 
L 71.800698 74.12049 
L 71.511175 74.420367 
L 71.241619 75.185418 
L 71.875574 75.536493 
L 71.875574 75.959246 
L 71.241619 76.310321 
L 71.541125 76.696504 
L 70.882211 77.12072 
L 71.241619 77.503977 
L 70.882211 77.503977 
L 70.882211 77.855052 
L 71.181718 78.152003 
L 71.226644 78.380202 
L 71.021981 78.538186 
L 70.552754 78.62888 
L 70.882211 79.437816 
L 71.316496 80.036106 
L 66.279795 78.740054 
L 65.126696 78.703483 
L 63.87376 78.333392 
L 63.609196 76.905686 
L 63.629163 75.153236 
L 63.199871 73.822076 
L 61.76224 72.937075 
L 60.324609 72.768851 
L 57.284618 72.916595 
L 56.406066 72.606479 
L 55.028336 71.477187 
L 54.299537 71.095393 
L 53.43596 71.148054 
L 52.762071 71.658576 
L 51.54907 73.061414 
L 50.051538 74.00054 
L 48.603923 74.685136 
L 47.331021 75.596469 
L 46.382584 77.239208 
L 45.61385 81.143456 
L 45.264426 82.307855 
L 45.084722 82.442434 
L 44.256088 82.8096 
L 44.056417 83.527841 
L 43.736943 86.051193 
L 44.340948 86.239896 
L 44.675397 86.664112 
L 44.760257 87.26094 
L 44.590537 87.980644 
L 44.236121 88.681331 
L 42.359214 90.404525 
L 41.715275 91.236865 
L 41.620431 91.781032 
L 42.40414 93.530556 
L 42.643745 94.487236 
L 43.2777 100.879729 
L 43.272708 102.260624 
L 43.312642 102.857452 
L 43.272708 103.050543 
L 43.068046 104.747407 
L 44.021474 106.95918 
L 44.595528 108.854985 
L 43.272708 109.595169 
L 41.964863 110.057418 
L 41.585489 111.07261 
L 42.03974 112.020513 
L 43.632116 112.301373 
L 44.730306 112.239935 
L 45.209517 111.941521 
L 46.422518 110.794675 
L 47.106391 110.908775 
L 49.627237 112.117058 
L 52.986701 112.906977 
L 53.805352 113.413111 
L 54.184727 114.115261 
L 54.269587 115.057313 
L 54.199702 116.274373 
L 54.019998 116.596192 
L 53.80036 116.666407 
L 53.550771 116.543531 
L 53.276224 116.28315 
L 50.296135 116.926788 
L 49.377648 117.389037 
L 48.514071 118.088261 
L 46.831843 119.808529 
L 42.948243 122.742932 
L 41.961466 123.99129 
L 41.19613 125.481318 
L 40.981484 127.014346 
L 40.961517 128.59711 
L 40.686969 130.440254 
L 38.510556 134.094361 
L 37.806716 135.987241 
L 38.370786 137.888898 
L 39.439026 138.702222 
L 40.71692 138.90409 
L 42.044732 138.693445 
L 43.272708 138.266304 
L 46.162946 137.868419 
L 52.188017 137.92108 
L 55.008369 136.859078 
L 60.274691 132.456011 
L 63.065093 130.855693 
L 66.369647 130.598238 
L 66.289779 134.454213 
L 66.0951 135.738563 
L 65.236515 138.0147 
L 64.337995 139.644274 
L 64.697403 140.053862 
L 64.617535 141.276773 
L 63.938653 142.464577 
L 63.334649 143.842547 
L 63.599213 145.393129 
L 64.058456 146.847165 
L 65.291424 149.398311 
L 65.630865 150.945967 
L 65.401243 152.557987 
L 63.134978 157.075154 
L 62.825488 158.733984 
L 62.830479 160.509839 
L 62.291368 161.536734 
L 60.399485 163.379878 
L 59.785497 164.661302 
L 59.655711 165.942726 
L 59.68067 167.209522 
L 59.515941 168.46169 
L 59.236402 169.000006 
L 58.043368 170.18781 
L 57.723895 170.872406 
L 57.559166 171.510193 
L 57.339528 172.940824 
L 56.965145 174.295389 
L 54.139801 180.108608 
L 52.053239 187.039416 
L 51.823617 188.388129 
L 50.984999 190.690597 
L 50.984999 192.051013 
L 51.224605 192.633213 
L 51.918461 193.780058 
L 52.053239 194.584605 
L 51.948412 195.371599 
L 51.06986 197.27033 
L 50.615608 200.219361 
L 50.271176 201.193594 
L 50.251209 202.811466 
L 51.23958 206.275407 
L 51.23958 208.060039 
L 50.455871 209.964621 
L 48.389277 213.118446 
L 47.830198 215.350699 
L 47.800247 216.03237 
L 47.191251 217.460075 
L 46.836835 219.382212 
L 46.791909 222.822748 
L 46.587246 223.972519 
L 44.34594 230.155829 
L 43.986532 231.567444 
L 43.731952 234.749062 
L 43.272708 236.16214 
L 42.628769 237.231456 
L 42.284337 238.471921 
L 41.873066 240.768491 
L 41.566484 241.266078 
L 40.34802 242.933915 
L 39.915661 243.922178 
L 38.752224 243.915267 
L 37.232662 240.764149 
L 36.893221 239.409585 
L 36.983073 235.49656 
L 35.740121 229.668713 
L 31.731726 218.428457 
L 31.202598 214.016613 
L 24.878021 195.541285 
L 24.343901 194.730887 
L 21.708244 192.38746 
L 21.373795 191.854996 
L 21.268968 191.202582 
L 21.353828 190.207869 
L 21.813071 188.516857 
L 21.823055 187.747417 
L 20.575111 185.983265 
L 20.285588 185.020734 
L 20.180761 182.680233 
L 19.127497 178.177694 
L 11.839506 158.742761 
L 7.919587 146.459872 
L 8.694689 145.738353 
L 11.180592 143.886432 
L 12.872804 142.05499 
L 13.012573 141.086607 
L 12.613231 139.141066 
L 12.628207 138.178535 
L 13.666496 136.192035 
L 19.127497 130.937611 
L 19.866279 130.440254 
L 21.438688 128.983293 
L 21.543515 127.78086 
L 20.625029 126.636941 
L 19.166389 125.415894 
L 19.567303 124.43915 
L 20.746462 122.925657 
L 25.368767 115.090968 
L 29.405422 105.980062 
L 30.309444 104.556411 
L 31.858073 99.290284 
L 31.826629 98.398775 
L 32.486958 98.046317 
L 36.382114 85.92455 
L 39.593358 70.077793 
L 39.868495 69.53183 
L 40.159354 67.004734 
L 40.403047 66.249139 
L 40.316575 65.415221 
L 41.424985 60.798721 
L 41.688331 55.723796 
L 42.077453 54.578886 
L 42.79674 54.182659 
L 43.409903 54.330093 
L 44.388605 54.965898 
L 45.127545 55.108724 
L 45.559904 55.018882 
L 47.253962 53.222041 
L 47.46228 52.740579 
L 48.067582 50.53369 
L 47.98111 49.851811 
L 47.38367 49.556945 
L 47.67846 48.716116 
L 48.012555 45.267563 
L 48.665023 43.436167 
L 48.86941 42.351151 
L 48.672884 41.3698 
L 49.364657 40.63033 
L 49.034493 40.243318 
L 49.305699 40.162691 
L 53.381051 40.360229 
L 54.229653 39.835079 
L 54.519175 39.855558 
L 55.547481 40.054501 
L 57.334536 39.473764 
L 57.923565 39.473764 
L 58.452694 39.712202 
L 58.991805 40.142269 
L 59.471015 40.717155 
L 59.805464 41.388586 
L 60.254724 41.966397 
L 60.893671 42.055629 
L 63.61918 41.356404 
L 65.930371 40.377782 
L 67.412928 40.254906 
L 67.652533 39.393309 
L 68.96537 36.856791 
L 69.224942 35.414458 
L 69.339753 32.623411 
L 69.714136 31.374168 
L 70.153412 30.603266 
L 70.437943 29.829438 
L 70.762409 29.292585 
L 71.326479 29.229684 
L 71.606018 29.566131 
L 72.479579 30.923622 
L 73.388082 31.609681 
L 73.390027 31.59657 
L 73.423024 31.368317 
L 73.273271 30.328257 
L 73.702564 29.901116 
L 75.160162 29.585148 
L 76.123574 28.825948 
L 77.960547 26.934531 
L 80.81085 26.162165 
L 81.384904 25.803776 
L 82.173604 24.940717 
L 83.137017 23.046374 
L 83.880791 22.176 
L 83.945684 22.478802 
L 83.68112 22.828415 
L 83.606244 23.752912 
L 83.45649 24.064492 
L 83.341679 24.819303 
L 82.173604 25.790611 
L 81.115348 26.270414 
L 82.962305 27.510879 
L 81.34497 29.763611 
L 81.68441 30.205381 
L 83.037181 31.13573 
L 83.037181 31.13573 
" clip-path="url(#p41c8238220)" style="fill: none; stroke: #000000; stroke-width: 2"/>
   </g>
  </g>
 </g>
 <defs>
  <clipPath id="p41c8238220">
   <rect x="0" y="-0" width="95.035048" height="266.112"/>
  </clipPath>
 </defs>
</svg>
