<?xml version="1.0" encoding="utf-8" standalone="no"?>
<!DOCTYPE svg PUBLIC "-//W3C//DTD SVG 1.1//EN"
  "http://www.w3.org/Graphics/SVG/1.1/DTD/svg11.dtd">
<svg xmlns:xlink="http://www.w3.org/1999/xlink" width="205.455627pt" height="266.112pt" viewBox="0 0 205.455627 266.112" xmlns="http://www.w3.org/2000/svg" version="1.1">
 <metadata>
  <rdf:RDF xmlns:dc="http://purl.org/dc/elements/1.1/" xmlns:cc="http://creativecommons.org/ns#" xmlns:rdf="http://www.w3.org/1999/02/22-rdf-syntax-ns#">
   <cc:Work>
    <dc:type rdf:resource="http://purl.org/dc/dcmitype/StillImage"/>
    <dc:date>2024-02-02T21:58:02.486912</dc:date>
    <dc:format>image/svg+xml</dc:format>
    <dc:creator>
     <cc:Agent>
      <dc:title>Matplotlib v3.8.2, https://matplotlib.org/</dc:title>
     </cc:Agent>
    </dc:creator>
   </cc:Work>
  </rdf:RDF>
 </metadata>
 <defs>
  <style type="text/css">*{stroke-linejoin: round; stroke-linecap: butt}</style>
 </defs>
 <g id="figure_1">
  <g id="patch_1">
   <path d="M 0 266.112 
L 205.455627 266.112 
L 205.455627 0 
L 0 0 
L 0 266.112 
z
" style="fill: none"/>
  </g>
  <g id="axes_1">
   <g id="PatchCollection_1">
    <path d="M 103.607107 243.87686 
L 103.460929 243.936 
L 103.345156 243.894758 
L 103.277329 243.838731 
L 103.21418 243.836396 
L 102.66455 243.576493 
L 102.383888 243.48934 
L 102.240049 243.411525 
L 102.351144 243.31659 
L 102.66455 243.324372 
L 102.825931 243.366392 
L 103.485487 243.437204 
L 103.607107 243.474555 
L 103.64219 243.502569 
L 103.614124 243.543811 
L 103.607107 243.572603 
L 103.644529 243.699442 
L 103.607107 243.87686 
" clip-path="url(#p19a22c739f)" style="fill: none; stroke: #000000; stroke-width: 2"/>
    <path d="M 107.218293 236.993321 
L 106.993764 236.993321 
L 106.907226 236.924065 
L 106.834722 236.794113 
L 106.851094 236.686728 
L 106.944648 236.630701 
L 107.035863 236.612026 
L 107.138772 236.611248 
L 107.239343 236.722523 
L 107.277934 236.924843 
L 107.218293 236.993321 
" clip-path="url(#p19a22c739f)" style="fill: none; stroke: #000000; stroke-width: 2"/>
    <path d="M 94.40139 218.351114 
L 94.497282 218.407141 
L 94.577973 218.383796 
L 94.672696 218.182254 
L 95.219987 218.742525 
L 95.419959 219.053786 
L 95.448025 219.487995 
L 95.119417 219.990682 
L 94.62358 219.922204 
L 94.121897 219.534684 
L 93.779255 219.084134 
L 93.716106 218.952626 
L 93.601503 218.640587 
L 93.561742 218.326991 
L 93.735986 218.182254 
L 93.800305 218.160466 
L 93.905553 218.071757 
L 93.980396 218.051525 
L 94.071612 218.093545 
L 94.209604 218.27252 
L 94.269245 218.312984 
L 94.40139 218.351114 
" clip-path="url(#p19a22c739f)" style="fill: none; stroke: #000000; stroke-width: 2"/>
    <path d="M 99.296605 197.058518 
L 99.518796 197.20092 
L 99.776069 197.316865 
L 99.979549 197.350326 
L 99.819338 197.564318 
L 99.595978 197.579881 
L 99.36677 197.481833 
L 99.194865 197.350326 
L 98.985538 197.464714 
L 98.814801 197.421137 
L 98.683826 197.274845 
L 98.605474 197.077194 
L 98.803107 197.09587 
L 98.948116 197.042955 
L 99.068567 196.972921 
L 99.194865 196.946464 
L 99.296605 197.058518 
" clip-path="url(#p19a22c739f)" style="fill: none; stroke: #000000; stroke-width: 2"/>
    <path d="M 95.798853 196.683449 
L 95.818733 196.871762 
L 95.610576 196.860867 
L 95.363827 196.670998 
L 95.212971 196.423546 
L 95.117078 196.21967 
L 95.196599 196.092052 
L 95.449195 196.065595 
L 95.605898 196.183874 
L 95.718163 196.534043 
L 95.798853 196.683449 
" clip-path="url(#p19a22c739f)" style="fill: none; stroke: #000000; stroke-width: 2"/>
    <path d="M 147.02086 190.904886 
L 146.760078 190.916558 
L 145.975394 191.580322 
L 145.835062 192.100129 
L 146.065439 192.092347 
L 145.362615 193.304709 
L 144.979043 194.296076 
L 143.430724 196.376856 
L 140.781975 200.949282 
L 140.95388 201.529006 
L 140.89424 201.720432 
L 140.64983 202.121959 
L 140.617086 202.516482 
L 140.143468 204.187954 
L 139.454677 205.056373 
L 139.105019 205.913119 
L 139.075783 206.257841 
L 139.178692 208.471686 
L 139.379834 208.889554 
L 140.376184 209.484062 
L 140.91412 209.59456 
L 141.190104 209.790655 
L 141.409956 210.115922 
L 141.543271 210.572698 
L 141.308216 210.336918 
L 141.174902 210.417846 
L 140.95388 210.834157 
L 140.890731 210.364931 
L 140.560953 210.455197 
L 140.64983 210.691756 
L 140.4253 211.076941 
L 140.586681 211.672228 
L 140.900087 212.076089 
L 141.140988 211.891667 
L 141.346807 212.009946 
L 141.346807 212.140676 
L 141.082517 212.182696 
L 141.119939 212.464388 
L 141.332774 212.78343 
L 141.592387 212.93517 
L 141.939706 212.971743 
L 142.146694 213.108698 
L 142.213352 213.387277 
L 142.139678 213.8495 
L 141.926842 213.724995 
L 141.841474 213.880626 
L 141.982975 214.241689 
L 142.402799 214.275149 
L 142.565349 214.822191 
L 142.455423 214.882108 
L 142.149033 214.735038 
L 141.641503 215.036183 
L 141.739734 215.166912 
L 141.580692 215.290639 
L 141.641503 215.559101 
L 141.302369 215.578555 
L 140.299002 216.113924 
L 140.065117 216.493663 
L 139.140101 218.877923 
L 139.210267 219.262331 
L 139.473388 219.880184 
L 139.718967 221.255958 
L 139.434797 221.548544 
L 139.138932 221.643478 
L 138.846576 221.563328 
L 137.75784 220.739265 
L 137.536819 220.994499 
L 137.175467 220.823305 
L 136.619989 220.401546 
L 136.096087 220.195336 
L 135.588556 220.279376 
L 134.638983 220.793735 
L 134.533734 220.589859 
L 134.353643 220.663006 
L 134.11508 220.415553 
L 133.256722 220.284045 
L 132.888353 219.752567 
L 131.551699 219.284119 
L 130.422034 218.996202 
L 130.255976 218.775207 
L 128.734553 215.559101 
L 127.425966 214.202781 
L 126.415582 213.493106 
L 125.234463 212.897819 
L 124.693019 212.792768 
L 122.949405 212.974856 
L 122.535429 213.209858 
L 121.9016 213.11648 
L 121.015175 212.375678 
L 120.467884 212.140676 
L 119.850428 212.003721 
L 119.33588 211.767163 
L 118.870449 211.423219 
L 117.228576 209.813999 
L 115.107238 209.031956 
L 113.389352 207.667854 
L 113.044371 207.515336 
L 112.603498 206.707613 
L 112.287753 206.514631 
L 112.010599 206.172244 
L 111.768528 206.061746 
L 111.551015 205.731031 
L 109.78986 205.469572 
L 109.428507 205.611974 
L 109.1993 205.350515 
L 109.049614 204.804251 
L 108.677736 204.384049 
L 108.225169 204.172391 
L 107.068607 204.02143 
L 105.90152 204.06345 
L 104.706367 204.282889 
L 104.154398 204.236978 
L 103.822282 203.910154 
L 102.982634 202.575622 
L 102.776815 202.465124 
L 102.203797 202.45423 
L 101.95354 202.317275 
L 101.496294 201.601374 
L 101.296322 200.995971 
L 101.236682 200.515073 
L 100.821536 199.568061 
L 101.333744 199.252909 
L 101.530208 198.102021 
L 101.348947 197.586106 
L 101.391046 197.523854 
L 101.72784 196.800172 
L 101.924304 195.706089 
L 101.762923 195.510772 
L 102.201458 195.319347 
L 102.961584 194.548975 
L 103.422338 194.727172 
L 104.043303 194.170793 
L 104.198837 193.696898 
L 104.804599 193.801171 
L 105.102802 193.512476 
L 105.024451 192.564686 
L 105.195187 192.233971 
L 105.281725 192.459635 
L 105.613841 192.459635 
L 105.688685 192.809804 
L 106.439456 194.429918 
L 106.589142 194.583992 
L 107.165669 194.93883 
L 107.176194 195.106911 
L 107.628762 195.383933 
L 108.247388 195.292111 
L 109.442541 194.727172 
L 110.07403 194.093756 
L 109.835467 193.208218 
L 110.333643 192.745995 
L 110.252952 192.579471 
L 110.499701 192.285329 
L 110.80843 192.26821 
L 111.627027 192.550679 
L 112.026971 192.553013 
L 112.359088 192.389601 
L 112.484216 191.961617 
L 112.871296 191.995078 
L 113.507464 191.721946 
L 113.694572 191.752294 
L 113.768245 192.092347 
L 114.393888 192.616044 
L 114.462884 193.40976 
L 114.673381 193.947463 
L 116.428689 193.806618 
L 116.827463 194.12177 
L 116.821615 194.629125 
L 117.060178 194.98085 
L 117.485849 195.172276 
L 118.406187 195.902183 
L 119.279748 196.151192 
L 119.181516 196.294372 
L 119.492583 196.285813 
L 120.412921 196.425102 
L 120.727497 196.342618 
L 121.367172 195.983111 
L 122.158874 195.678853 
L 122.535429 195.36837 
L 123.522424 195.188617 
L 123.714209 194.976181 
L 124.615837 195.464861 
L 125.157281 195.488206 
L 125.594646 195.36837 
L 127.345276 195.631386 
L 128.179076 195.576137 
L 128.946219 195.35592 
L 129.625655 194.976181 
L 130.088748 195.209627 
L 130.772862 195.071894 
L 132.538694 194.362219 
L 133.420441 193.605854 
L 134.122097 192.834705 
L 134.88807 192.854159 
L 136.859722 192.3647 
L 136.998883 192.444072 
L 137.354389 192.875169 
L 138.55188 193.082936 
L 138.77641 193.40976 
L 139.052394 193.468121 
L 140.338763 192.931196 
L 140.71064 192.41528 
L 141.204137 191.161676 
L 141.194782 191.072967 
L 141.283658 190.85664 
L 141.329266 191.056626 
L 141.315233 191.766301 
L 141.729209 191.952279 
L 142.402799 191.887693 
L 143.851717 191.243382 
L 144.022453 191.079192 
L 144.584947 190.799057 
L 145.386003 190.132958 
L 145.825707 190.181204 
L 146.640797 190.56172 
L 147.153005 190.655877 
L 147.02086 190.904886 
L 147.02086 190.904886 
" clip-path="url(#p19a22c739f)" style="fill: none; stroke: #000000; stroke-width: 2"/>
    <path d="M 137.768365 188.824883 
L 137.599968 188.957947 
L 137.265512 188.621785 
L 137.04566 188.339316 
L 137.003561 188.036615 
L 137.197686 187.641313 
L 137.305273 187.641313 
L 137.305273 187.913666 
L 137.536819 188.033502 
L 137.6982 188.213255 
L 137.813973 188.438141 
L 137.894663 188.698044 
L 137.768365 188.824883 
" clip-path="url(#p19a22c739f)" style="fill: none; stroke: #000000; stroke-width: 2"/>
    <path d="M 137.305273 187.249124 
L 137.052677 187.297369 
L 136.849197 187.14952 
L 136.662089 186.954982 
L 136.463286 186.856935 
L 136.344005 186.709086 
L 136.361546 186.383818 
L 136.491353 186.065553 
L 136.708866 185.930933 
L 137.183653 185.937158 
L 137.301764 186.047656 
L 137.197686 186.323122 
L 137.293579 186.405606 
L 137.417538 186.548786 
L 137.492381 186.597032 
L 137.492381 186.714533 
L 137.108809 186.714533 
L 137.183653 186.940975 
L 137.231599 187.028128 
L 137.305273 187.106722 
L 137.305273 187.249124 
" clip-path="url(#p19a22c739f)" style="fill: none; stroke: #000000; stroke-width: 2"/>
    <path d="M 128.604747 185.61189 
L 128.397759 185.686593 
L 128.345134 185.454703 
L 128.552123 185.379223 
L 128.604747 185.61189 
" clip-path="url(#p19a22c739f)" style="fill: none; stroke: #000000; stroke-width: 2"/>
    <path d="M 135.82478 185.421243 
L 135.801392 185.607221 
L 135.259948 185.36755 
L 134.826091 184.989368 
L 135.130141 184.755922 
L 135.654044 184.734912 
L 135.877404 184.80728 
L 136.021244 185.029054 
L 135.948739 185.11076 
L 135.90547 185.201804 
L 135.82478 185.421243 
" clip-path="url(#p19a22c739f)" style="fill: none; stroke: #000000; stroke-width: 2"/>
    <path d="M 131.832361 185.260165 
L 131.661625 185.277285 
L 131.34588 185.180794 
L 131.232446 184.933341 
L 131.214905 184.697561 
L 131.268698 184.676551 
L 131.523633 184.741916 
L 131.696708 184.892877 
L 131.748163 185.093641 
L 131.828853 185.192466 
L 131.832361 185.260165 
" clip-path="url(#p19a22c739f)" style="fill: none; stroke: #000000; stroke-width: 2"/>
    <path d="M 111.589606 182.66736 
L 111.423547 182.704711 
L 111.25515 182.6339 
L 111.249303 182.489941 
L 111.318299 182.345205 
L 111.482019 182.203581 
L 111.718243 182.198912 
L 111.86559 182.314079 
L 111.88664 182.374775 
L 111.589606 182.66736 
" clip-path="url(#p19a22c739f)" style="fill: none; stroke: #000000; stroke-width: 2"/>
    <path d="M 141.017029 181.065143 
L 140.91412 181.137512 
L 140.7504 181.095491 
L 140.476755 180.831698 
L 140.476755 180.760886 
L 140.578495 180.65817 
L 140.715318 180.591248 
L 140.788991 180.508764 
L 140.836938 180.421611 
L 140.930492 180.392819 
L 141.062637 180.424724 
L 141.160869 180.472191 
L 141.227526 180.544559 
L 141.201799 180.698634 
L 141.129294 180.826251 
L 141.089534 180.946086 
L 141.017029 181.065143 
" clip-path="url(#p19a22c739f)" style="fill: none; stroke: #000000; stroke-width: 2"/>
    <path d="M 42.378326 174.53722 
L 42.745526 174.787785 
L 43.201602 174.758215 
L 43.588682 174.832139 
L 43.751232 175.390075 
L 43.781637 175.495126 
L 43.855311 175.548818 
L 43.952373 175.541037 
L 44.045927 175.462443 
L 44.058791 175.444546 
L 44.085688 175.415754 
L 44.153514 175.462443 
L 43.868174 175.715343 
L 43.800348 175.844516 
L 43.858819 175.984584 
L 43.723166 176.258494 
L 43.616748 176.905139 
L 43.479925 177.424166 
L 43.414437 177.507429 
L 43.262412 177.551784 
L 43.089337 177.526883 
L 43.034374 177.428835 
L 43.020341 177.293437 
L 42.967717 177.159595 
L 42.443814 176.232815 
L 42.219284 175.607958 
L 42.280095 175.200984 
L 42.280095 175.058582 
L 42.172507 175.058582 
L 42.172507 174.927852 
L 42.378326 174.53722 
" clip-path="url(#p19a22c739f)" style="fill: none; stroke: #000000; stroke-width: 2"/>
    <path d="M 41.594811 174.797123 
L 41.367943 174.906842 
L 41.070909 174.881163 
L 40.860412 174.748099 
L 40.897834 174.53722 
L 40.897834 174.417384 
L 40.543498 174.040758 
L 40.427725 173.793305 
L 40.504907 173.49216 
L 40.724759 173.335752 
L 41.371451 173.19335 
L 41.594811 173.099971 
L 41.601828 173.721715 
L 41.683688 174.495977 
L 41.594811 174.797123 
" clip-path="url(#p19a22c739f)" style="fill: none; stroke: #000000; stroke-width: 2"/>
    <path d="M 122.825446 144.060086 
L 122.624305 144.255403 
L 122.482804 144.178366 
L 122.266461 144.200154 
L 122.032576 144.285751 
L 121.84079 144.397805 
L 121.723847 144.295089 
L 121.403425 144.137902 
L 121.251399 143.993943 
L 121.35197 143.619652 
L 121.429152 143.443789 
L 121.553111 143.354302 
L 121.511012 143.279599 
L 121.447863 143.092843 
L 121.740219 143.092843 
L 122.647693 143.422001 
L 122.928356 143.615761 
L 122.882748 143.732484 
L 122.87924 143.84376 
L 122.928356 143.993943 
L 122.825446 144.060086 
" clip-path="url(#p19a22c739f)" style="fill: none; stroke: #000000; stroke-width: 2"/>
    <path d="M 115.18442 142.548914 
L 115.009006 142.643848 
L 115.069816 142.45787 
L 115.144659 142.36916 
L 115.256924 142.345816 
L 115.18442 142.548914 
" clip-path="url(#p19a22c739f)" style="fill: none; stroke: #000000; stroke-width: 2"/>
    <path d="M 41.976044 136.528345 
L 42.114036 136.677751 
L 42.153797 136.899524 
L 42.104681 137.131414 
L 41.976044 137.312723 
L 41.148091 137.453569 
L 40.808957 137.711916 
L 40.806618 138.24106 
L 40.741131 138.6706 
L 40.21255 138.629358 
L 40.327154 138.452717 
L 40.385625 138.273742 
L 40.406675 138.090098 
L 40.406675 137.905676 
L 40.488535 137.750823 
L 40.668626 137.553173 
L 40.946949 137.312723 
L 41.160954 137.214676 
L 41.192529 136.985899 
L 41.160954 136.72444 
L 41.192529 136.528345 
L 41.286083 136.505001 
L 41.541018 136.540018 
L 41.594811 136.462981 
L 41.625216 136.371937 
L 41.702398 136.280893 
L 41.887168 136.136935 
L 41.883659 136.285562 
L 41.912895 136.397616 
L 41.976044 136.528345 
" clip-path="url(#p19a22c739f)" style="fill: none; stroke: #000000; stroke-width: 2"/>
    <path d="M 58.338646 134.923016 
L 58.386592 135.024954 
L 58.393609 135.120667 
L 58.32929 135.257622 
L 58.242753 135.246728 
L 58.128149 135.09421 
L 58.018223 135.000831 
L 57.916483 135.048299 
L 57.849826 134.99305 
L 58.00419 134.627318 
L 57.94338 134.50437 
L 57.985479 134.333954 
L 58.091897 134.07483 
L 58.179604 133.913752 
L 58.295377 133.937875 
L 58.392439 134.034366 
L 58.443894 134.17988 
L 58.460266 134.261586 
L 58.456758 134.400097 
L 58.338646 134.923016 
" clip-path="url(#p19a22c739f)" style="fill: none; stroke: #000000; stroke-width: 2"/>
    <path d="M 57.825268 134.398541 
L 57.249911 134.521489 
L 56.98679 134.469353 
L 56.930657 134.305163 
L 56.930657 134.152645 
L 56.996145 134.077164 
L 57.101393 134.025806 
L 57.200795 133.945656 
L 57.263944 133.811036 
L 57.288502 133.652293 
L 57.349312 133.624279 
L 57.432341 133.612607 
L 57.522387 133.530123 
L 57.632313 133.559692 
L 57.711834 133.689644 
L 57.756272 133.839049 
L 57.755102 134.001683 
L 57.735222 134.161983 
L 57.762119 134.249914 
L 57.810065 134.330064 
L 57.825268 134.398541 
" clip-path="url(#p19a22c739f)" style="fill: none; stroke: #000000; stroke-width: 2"/>
    <path d="M 54.994089 133.790026 
L 55.274751 133.774463 
L 55.422098 134.023471 
L 55.412743 134.686458 
L 55.569446 134.819522 
L 55.501619 134.625762 
L 55.569446 134.308275 
L 55.670017 134.308275 
L 55.670017 134.700464 
L 55.670017 134.819522 
L 56.119076 134.791508 
L 56.3553 134.961924 
L 56.386874 134.501257 
L 56.628946 134.585298 
L 57.14817 135.092653 
L 57.14817 134.961924 
L 57.49432 135.092653 
L 57.639329 135.092653 
L 57.562147 135.270072 
L 57.442866 135.483286 
L 57.700139 135.694944 
L 57.849826 136.150163 
L 57.934024 136.789805 
L 58.214687 135.917495 
L 58.130488 135.864581 
L 58.488332 135.764977 
L 58.954933 135.804663 
L 59.098772 135.685606 
L 59.218054 135.864581 
L 59.110466 136.006205 
L 59.418025 136.236538 
L 59.610981 136.136935 
L 59.690502 136.500332 
L 59.565373 136.869176 
L 59.414517 137.062936 
L 59.384112 136.971114 
L 59.316285 136.789805 
L 58.925697 138.237947 
L 59.218054 138.237947 
L 59.110466 137.965594 
L 59.533799 137.887 
L 59.582914 138.069866 
L 59.512749 138.367899 
L 59.610981 138.237947 
L 59.807444 138.367899 
L 60.021449 138.153128 
L 60.417884 138.174139 
L 61.091473 138.498628 
L 60.927754 138.718846 
L 60.474017 138.572553 
L 60.252995 138.498628 
L 60.013263 138.629358 
L 59.777039 139.794253 
L 59.580576 139.864286 
L 58.916342 139.899303 
L 58.935053 139.926539 
L 58.815771 139.946771 
L 59.04264 140.173991 
L 59.316285 140.066606 
L 59.807444 140.33896 
L 60.302111 140.119521 
L 60.516116 140.006688 
L 60.796778 140.066606 
L 60.534827 140.447901 
L 60.394496 140.468911 
L 60.394496 140.587969 
L 60.993242 140.919462 
L 61.100829 141.260293 
L 61.222449 141.250955 
L 61.386169 141.12256 
L 61.620054 141.416701 
L 61.97322 141.514749 
L 61.355763 141.804221 
L 61.482061 142.167619 
L 61.262209 142.107701 
L 61.079779 142.201079 
L 61.023647 142.376164 
L 61.18035 142.558252 
L 61.194383 142.345816 
L 61.28092 142.590934 
L 61.776757 143.41422 
L 61.832889 143.765167 
L 62.322878 144.912942 
L 62.513495 146.440456 
L 62.861984 146.659895 
L 62.954368 147.021736 
L 63.445527 147.544655 
L 63.449035 147.73608 
L 63.240877 148.256665 
L 63.070141 148.961671 
L 62.750888 149.502487 
L 62.338081 150.458059 
L 61.807162 150.665826 
L 60.567571 152.641556 
L 60.54886 152.934919 
L 60.638906 153.920839 
L 61.126556 155.156546 
L 61.453995 155.365091 
L 61.775587 155.830426 
L 62.092502 156.067763 
L 62.064435 156.361904 
L 61.533516 157.80849 
L 61.445809 158.41545 
L 61.580293 158.939146 
L 61.664492 158.873782 
L 61.853939 158.817755 
L 61.837567 159.116565 
L 61.580293 159.212278 
L 61.396693 159.919619 
L 61.482061 160.125829 
L 61.386169 160.125829 
L 61.452826 160.283016 
L 61.580293 160.505568 
L 61.402541 160.734345 
L 61.201399 161.61677 
L 61.196722 162.328002 
L 61.256362 163.257116 
L 60.926584 164.318517 
L 60.89501 164.576864 
L 60.953481 165.956528 
L 60.600315 167.200795 
L 60.836539 167.541626 
L 60.75234 168.143916 
L 60.394496 169.159405 
L 60.198032 170.275277 
L 60.358244 170.742946 
L 60.689191 171.118016 
L 60.296264 171.269756 
L 59.931403 171.703965 
L 59.725584 172.243225 
L 59.807444 172.707782 
L 59.744295 172.985583 
L 59.903337 173.219029 
L 59.709212 173.942711 
L 59.585253 174.124799 
L 59.081231 174.408046 
L 59.02159 174.797123 
L 58.856701 174.666393 
L 58.925697 174.417384 
L 58.477807 174.20417 
L 57.934024 174.417384 
L 57.734053 174.145809 
L 57.442866 174.00185 
L 56.528375 173.040054 
L 55.768248 172.56538 
L 55.670017 172.707782 
L 55.197569 172.490678 
L 54.678344 172.436207 
L 54.407037 172.567715 
L 53.955639 173.219029 
L 53.536985 173.080517 
L 52.126657 171.782559 
L 51.769983 171.749876 
L 51.750102 171.813685 
L 51.939549 171.900838 
L 51.955921 172.288358 
L 52.289207 172.48134 
L 52.647052 172.400412 
L 52.717217 172.655646 
L 52.704354 172.735796 
L 51.946566 173.636897 
L 51.799218 174.428278 
L 51.923177 175.149626 
L 52.215534 175.816503 
L 51.991004 176.21803 
L 51.787524 176.994626 
L 51.743086 176.975172 
L 51.636668 176.886463 
L 51.517387 177.125356 
L 49.959712 178.712009 
L 49.736352 178.784378 
L 49.461537 179.129877 
L 49.096676 178.922889 
L 48.773914 178.595286 
L 48.773914 178.987475 
L 48.566926 178.624078 
L 47.82668 178.122948 
L 47.496902 178.085596 
L 46.810449 178.506577 
L 46.5637 178.870753 
L 46.613985 179.260607 
L 46.410505 179.391337 
L 46.321629 179.260607 
L 46.437402 178.901101 
L 46.298241 178.793715 
L 45.819946 178.726794 
L 45.819946 178.595286 
L 46.037459 178.26924 
L 46.044475 177.799236 
L 45.869061 177.467743 
L 45.535775 177.551784 
L 45.24108 175.71223 
L 44.684433 175.632859 
L 44.448209 175.593173 
L 44.514867 175.49746 
L 44.644673 175.200984 
L 44.448209 175.058582 
L 44.137142 175.259345 
L 44.127787 175.186977 
L 43.727843 174.408046 
L 43.554768 174.53722 
L 43.493958 174.339569 
L 43.456537 173.62289 
L 43.217974 173.405785 
L 43.129097 173.436133 
L 43.173536 173.62289 
L 43.084659 173.558303 
L 42.98175 173.328748 
L 42.841419 172.894539 
L 42.662497 172.82684 
L 42.542046 172.386405 
L 42.613381 172.247894 
L 43.3279 171.379475 
L 43.40976 171.024638 
L 43.173536 170.60677 
L 43.195755 170.313406 
L 42.690563 169.918104 
L 42.63443 169.378066 
L 42.967717 168.909618 
L 43.0028 168.461402 
L 42.759559 167.812423 
L 42.869485 167.591428 
L 43.455367 166.752579 
L 43.858819 165.765103 
L 43.751232 165.621145 
L 43.865836 165.362798 
L 43.841278 164.994732 
L 43.662355 164.197125 
L 43.609731 162.214392 
L 43.933662 162.359128 
L 44.628301 163.36917 
L 44.93469 163.485893 
L 45.329956 163.389402 
L 44.448209 162.99877 
L 44.483292 162.67428 
L 44.970943 161.703145 
L 45.133493 161.100077 
L 45.154542 160.274457 
L 45.035261 159.9951 
L 44.721855 159.606802 
L 44.300862 159.347677 
L 43.854141 159.314994 
L 43.456537 159.604467 
L 43.554768 159.722746 
L 43.602715 159.621586 
L 43.858819 159.604467 
L 43.589851 159.898609 
L 43.456537 160.387289 
L 43.360644 160.244109 
L 43.486942 160.029339 
L 43.210957 159.732862 
L 42.869485 159.343008 
L 42.895212 159.069876 
L 42.967717 158.820089 
L 42.869485 157.894087 
L 43.049577 157.24822 
L 42.869485 156.980536 
L 42.620397 157.027225 
L 42.725646 156.870816 
L 43.012155 156.72608 
L 43.806195 156.576674 
L 44.083349 156.254519 
L 44.241221 155.674795 
L 44.171056 155.414114 
L 43.858819 154.552699 
L 43.805025 153.541878 
L 44.045927 152.659453 
L 44.041249 152.085955 
L 43.851802 151.657971 
L 43.173536 151.069687 
L 43.065948 151.212089 
L 42.746695 150.945183 
L 42.711613 150.56311 
L 42.869485 149.567852 
L 42.658988 148.70955 
L 42.45317 148.261333 
L 41.966688 147.906496 
L 41.388992 146.28716 
L 41.041673 146.312061 
L 40.308443 146.760277 
L 40.016087 146.617875 
L 40.308443 145.965005 
L 39.978665 145.863845 
L 39.737763 146.07239 
L 39.524928 146.891006 
L 39.31677 146.328402 
L 39.220877 145.716774 
L 39.698003 145.403178 
L 39.862892 145.116818 
L 39.961124 144.397805 
L 39.698003 144.344112 
L 39.122646 143.733262 
L 40.29441 140.816746 
L 40.21372 140.184885 
L 39.770507 139.922648 
L 39.973987 139.241764 
L 40.21255 139.021547 
L 40.361067 139.269778 
L 40.490874 139.265109 
L 40.584428 139.572479 
L 40.494382 140.048709 
L 40.550514 140.268148 
L 41.192529 141.12256 
L 41.65796 141.405029 
L 43.262412 141.63225 
L 44.399094 141.906159 
L 44.679756 141.857914 
L 45.798896 141.360674 
L 46.314613 140.813633 
L 46.410505 140.528829 
L 47.390484 140.066606 
L 47.995077 140.095398 
L 48.184524 140.197336 
L 49.265073 139.283006 
L 49.86148 138.096323 
L 50.459057 137.845758 
L 51.649532 136.217862 
L 51.925516 136.084798 
L 53.11833 135.8817 
L 53.518274 135.483286 
L 53.608319 135.627244 
L 53.918217 135.027289 
L 53.910031 134.238242 
L 54.028143 133.903636 
L 54.884163 133.526232 
L 54.994089 133.790026 
L 54.994089 133.790026 
" clip-path="url(#p19a22c739f)" style="fill: none; stroke: #000000; stroke-width: 2"/>
    <path d="M 70.479621 112.908295 
L 70.44103 113.23045 
L 70.170893 113.151857 
L 70.208315 112.829701 
L 70.342799 112.702084 
L 70.479621 112.908295 
" clip-path="url(#p19a22c739f)" style="fill: none; stroke: #000000; stroke-width: 2"/>
    <path d="M 79.444081 113.101561 
L 79.207933 113.329741 
L 79.001225 113.204771 
L 78.466025 112.654207 
L 78.324128 112.420393 
L 78.533084 112.264324 
L 78.525269 112.028204 
L 78.628178 111.925488 
L 78.812948 112.02976 
L 79.066089 112.248986 
L 79.265075 112.668565 
L 79.297414 112.912226 
L 79.444081 113.101561 
" clip-path="url(#p19a22c739f)" style="fill: none; stroke: #000000; stroke-width: 2"/>
    <path d="M 67.310478 108.391118 
L 67.172486 108.477493 
L 66.971345 108.472046 
L 66.781898 108.409794 
L 66.662616 108.296183 
L 66.69536 108.160785 
L 66.841539 108.103201 
L 66.983039 107.942902 
L 67.081271 107.684555 
L 67.151436 107.66977 
L 67.199383 107.874424 
L 67.256685 108.031611 
L 67.319834 108.128102 
L 67.34673 108.181017 
L 67.34673 108.258832 
L 67.310478 108.391118 
" clip-path="url(#p19a22c739f)" style="fill: none; stroke: #000000; stroke-width: 2"/>
    <path d="M 72.128511 103.817136 
L 72.215049 104.041244 
L 72.119156 104.363399 
L 71.978825 104.576613 
L 71.787039 104.719015 
L 71.527427 104.824065 
L 71.802242 104.943123 
L 72.04899 105.258275 
L 72.128511 105.615447 
L 71.910998 105.868346 
L 71.84551 105.694818 
L 71.735584 105.676921 
L 71.590576 105.690149 
L 71.419839 105.606887 
L 71.361368 105.503393 
L 71.216359 105.158671 
L 71.17426 105.085525 
L 70.987152 104.973471 
L 70.795366 104.798386 
L 70.610597 104.798386 
L 70.448047 105.216254 
L 70.315902 104.895655 
L 69.753408 105.185906 
L 69.465729 104.943123 
L 69.388547 105.237264 
L 69.319551 105.351653 
L 69.24003 105.360991 
L 68.055402 105.325196 
L 67.73381 105.21392 
L 67.474198 104.940788 
L 67.397016 104.431876 
L 67.544363 104.10194 
L 67.850753 103.898064 
L 68.213275 103.795347 
L 68.519664 103.767334 
L 68.669351 103.803129 
L 68.988604 103.975879 
L 69.164018 104.041244 
L 69.420122 104.065366 
L 69.760425 104.041244 
L 69.746392 103.946309 
L 69.738206 103.926077 
L 69.714817 103.929968 
L 69.662193 103.898064 
L 69.85047 103.767334 
L 69.85047 103.624154 
L 69.85047 103.603144 
L 70.097219 103.635826 
L 70.636324 103.624154 
L 70.568498 103.901954 
L 70.721692 104.011674 
L 70.93102 104.014008 
L 71.036268 103.969654 
L 71.085384 103.790678 
L 71.198818 103.687184 
L 71.325116 103.607812 
L 71.419839 103.505874 
L 71.574204 103.017195 
L 71.686468 102.809428 
L 71.865391 102.723053 
L 72.004552 102.771298 
L 72.133189 102.893468 
L 72.240776 103.06544 
L 72.310942 103.256866 
L 72.205693 103.396933 
L 72.135528 103.593028 
L 72.128511 103.817136 
" clip-path="url(#p19a22c739f)" style="fill: none; stroke: #000000; stroke-width: 2"/>
    <path d="M 63.39562 100.139404 
L 63.087312 100.151909 
L 62.844408 99.757256 
L 63.165564 99.031201 
L 63.436188 98.873965 
L 63.64199 99.05484 
L 63.666548 99.088301 
L 63.696953 99.140437 
L 63.748408 99.180901 
L 63.853406 99.454471 
L 63.671144 99.823921 
L 63.39562 100.139404 
" clip-path="url(#p19a22c739f)" style="fill: none; stroke: #000000; stroke-width: 2"/>
    <path d="M 100.535026 53.817705 
L 100.871821 54.104065 
L 100.689391 54.014577 
L 100.496435 53.978004 
L 100.085967 53.972557 
L 99.298944 55.398133 
L 99.277894 55.280632 
L 99.391328 54.934354 
L 99.738648 54.299381 
L 100.022818 53.928202 
L 100.271906 53.762456 
L 100.535026 53.817705 
" clip-path="url(#p19a22c739f)" style="fill: none; stroke: #000000; stroke-width: 2"/>
    <path d="M 99.740986 53.753896 
L 99.525812 53.879957 
L 99.287249 53.833268 
L 99.228778 53.580368 
L 99.419394 53.279223 
L 99.668482 53.279223 
L 99.907045 53.454307 
L 99.882487 53.674525 
L 99.740986 53.753896 
" clip-path="url(#p19a22c739f)" style="fill: none; stroke: #000000; stroke-width: 2"/>
    <path d="M 96.4346 24.347688 
L 96.61579 25.001912 
L 96.713812 25.357684 
L 96.502917 25.548417 
L 97.316791 25.885906 
L 97.48313 26.098875 
L 97.679172 26.165088 
L 98.283637 26.184358 
L 98.510868 26.327161 
L 98.647504 26.980397 
L 98.512353 27.719611 
L 98.628196 27.92418 
L 99.066322 28.118866 
L 99.603953 28.297246 
L 100.001979 29.329477 
L 100.499511 29.731696 
L 101.428128 30.005625 
L 101.862897 30.075609 
L 102.544591 30.457075 
L 102.755485 30.475852 
L 103.591636 30.37505 
L 104.439668 30.498582 
L 104.833238 30.733292 
L 105.795629 30.782211 
L 106.612472 31.270902 
L 109.976383 31.492765 
L 111.154124 31.742794 
L 112.370478 32.369841 
L 112.949695 32.396524 
L 114.414073 32.109436 
L 115.0423 32.210732 
L 116.018057 32.187014 
L 116.331428 32.470149 
L 116.941833 32.490902 
L 118.897802 33.030489 
L 119.122063 32.98997 
L 119.043349 33.393672 
L 118.963149 33.494968 
L 118.905099 34.055139 
L 118.784929 34.284089 
L 118.516113 34.417009 
L 117.674022 34.464445 
L 117.016091 35.166106 
L 116.665591 35.5031 
L 115.13141 36.334716 
L 114.672492 37.162379 
L 114.298229 37.377818 
L 114.489816 37.796838 
L 114.580412 38.280094 
L 114.770513 38.521228 
L 114.942793 38.952107 
L 115.334878 38.895777 
L 115.125469 38.557794 
L 115.979442 38.762362 
L 116.380438 38.83747 
L 117.448276 39.462046 
L 118.208683 39.479835 
L 118.318585 39.836594 
L 117.907193 40.538255 
L 116.307665 41.666841 
L 115.979442 42.072025 
L 116.13093 42.308218 
L 115.979442 42.577023 
L 115.685378 42.807286 
L 116.370042 43.55243 
L 116.800741 43.521794 
L 117.755706 43.208517 
L 117.999274 43.572195 
L 117.661432 44.606163 
L 117.229956 45.520044 
L 117.18243 46.174268 
L 117.402235 46.577475 
L 117.803231 46.781056 
L 118.538391 46.906564 
L 119.244589 47.417491 
L 120.239653 47.836511 
L 121.539178 49.792266 
L 121.906015 49.970152 
L 121.796112 50.22018 
L 121.231747 50.872428 
L 120.553024 50.937652 
L 119.985689 50.651059 
L 119.277409 50.708984 
L 119.541699 50.328468 
L 120.662009 50.305123 
L 120.481917 50.253765 
L 120.216458 49.901262 
L 119.672675 49.639802 
L 119.936965 49.527748 
L 119.879663 49.196255 
L 119.485567 48.594743 
L 118.086934 47.278109 
L 116.971302 46.899148 
L 116.729231 47.097577 
L 116.581883 47.51778 
L 116.641524 47.891293 
L 117.023926 47.955101 
L 116.42635 48.269475 
L 116.346829 48.390867 
L 115.792521 48.535603 
L 115.199622 49.027396 
L 114.821898 49.136337 
L 114.462884 48.988488 
L 114.929485 48.832858 
L 115.248738 48.535603 
L 115.12244 48.206445 
L 114.534219 48.092056 
L 114.357636 47.813478 
L 114.10504 47.895962 
L 112.582448 47.539568 
L 112.146252 47.159829 
L 111.484357 47.352033 
L 111.200187 47.681192 
L 111.058687 47.617383 
L 110.937066 47.349699 
L 110.763991 47.290559 
L 110.642371 47.373043 
L 110.656404 47.73255 
L 110.815446 47.813478 
L 110.815446 47.955101 
L 110.495023 47.973777 
L 110.207345 48.138746 
L 110.049472 48.404874 
L 110.127824 48.727029 
L 110.364048 48.873322 
L 110.654065 48.83208 
L 111.200187 48.594743 
L 111.032959 48.869431 
L 110.530106 49.259286 
L 110.270494 49.777535 
L 109.919666 49.877917 
L 108.24271 50.032769 
L 105.899181 51.467683 
L 103.469115 52.564879 
L 101.806192 53.248875 
L 101.689249 53.318909 
L 101.166516 53.439522 
L 100.575956 53.711098 
L 101.010983 52.817 
L 101.160669 52.701834 
L 101.263578 52.525193 
L 101.461211 52.760973 
L 101.558274 52.667595 
L 101.36181 52.406136 
L 101.959387 52.525193 
L 101.762923 52.525193 
L 101.762923 52.667595 
L 102.082176 52.630244 
L 102.302028 52.002274 
L 102.762782 51.886329 
L 103.038766 51.480134 
L 102.40026 51.80618 
L 102.015519 51.361854 
L 101.959387 51.089501 
L 101.268256 51.567287 
L 101.029693 51.91123 
L 101.166516 52.263734 
L 100.929123 52.255174 
L 100.682374 52.040404 
L 100.478894 52.144676 
L 100.380662 51.740815 
L 100.199401 52.051298 
L 100.289447 52.224048 
L 100.77242 52.406136 
L 100.77242 52.525193 
L 100.332716 52.651254 
L 100.147947 52.591336 
L 100.184199 52.406136 
L 99.715259 52.398354 
L 99.128208 52.70339 
L 98.598458 53.187401 
L 98.310779 53.830155 
L 98.400825 53.830155 
L 98.216056 54.187327 
L 98.251138 54.355408 
L 98.400825 54.495476 
L 98.234766 54.819966 
L 98.204361 55.148346 
L 97.895633 55.284523 
L 98.016084 55.540535 
L 97.679289 56.142825 
L 97.184622 56.114812 
L 97.020903 56.00587 
L 96.899282 56.058785 
L 96.8221 56.465759 
L 96.976465 56.639287 
L 97.105101 57.040036 
L 97.275837 57.118629 
L 97.43371 57.026029 
L 97.581058 56.539683 
L 97.516739 56.323357 
L 97.802079 56.433855 
L 97.848856 56.913197 
L 97.910836 57.250137 
L 97.713203 57.406546 
L 98.233597 58.287415 
L 98.507243 58.29364 
L 98.45228 58.214268 
L 98.400825 58.174582 
L 99.095464 57.641548 
L 98.962149 57.934133 
L 99.30596 59.400173 
L 99.399514 60.121521 
L 99.095464 59.990791 
L 99.095464 59.598602 
L 98.943438 60.359635 
L 99.086108 60.551061 
L 99.399514 60.525382 
L 99.352737 60.453014 
L 99.293097 60.263923 
L 99.752681 60.772835 
L 100.085967 61.438155 
L 99.783086 61.582114 
L 99.979549 61.843573 
L 100.234484 61.312095 
L 99.979549 60.798514 
L 100.187707 60.975932 
L 100.620394 61.233501 
L 100.575956 61.438155 
L 101.665861 62.502668 
L 101.852969 62.364935 
L 101.70796 62.372717 
L 101.664691 62.364935 
L 101.664691 62.222533 
L 102.105565 62.290233 
L 102.351144 62.626395 
L 102.338281 62.802257 
L 102.19678 63.009246 
L 102.252912 63.136863 
L 101.790989 63.76561 
L 101.682233 64.687721 
L 101.492786 65.002873 
L 101.068284 65.486106 
L 101.047235 65.399731 
L 100.77242 64.833236 
L 101.046065 64.155465 
L 100.978239 63.944585 
L 100.814519 63.870661 
L 100.52684 64.13212 
L 100.306988 64.753086 
L 100.664833 64.900157 
L 100.545551 65.184961 
L 100.380662 65.237875 
L 100.482402 65.39195 
L 100.77242 65.486106 
L 100.660155 65.815265 
L 100.398204 65.997353 
L 100.077781 66.026922 
L 98.880289 65.051119 
L 98.507243 65.486106 
L 98.703706 65.486106 
L 98.323643 66.809744 
L 98.223072 67.568443 
L 98.310779 68.394841 
L 98.630032 69.310727 
L 98.752822 69.439901 
L 98.786735 69.651558 
L 98.75633 71.852174 
L 99.356245 74.525907 
L 99.595978 74.876076 
L 99.71292 75.666679 
L 100.2836 76.917949 
L 100.674188 77.439312 
L 101.26124 77.994913 
L 101.559443 78.512384 
L 102.545269 79.390141 
L 102.931179 79.540324 
L 104.176617 81.018814 
L 104.886459 81.504382 
L 105.544845 81.715261 
L 106.232467 81.810974 
L 108.167867 83.001548 
L 108.291826 83.13539 
L 112.688866 86.853404 
L 114.792662 88.145138 
L 115.992493 88.515539 
L 116.381912 88.181711 
L 116.508209 88.306994 
L 116.581883 88.431498 
L 116.855529 88.5739 
L 117.367737 89.34505 
L 117.895148 89.582386 
L 118.023785 89.836842 
L 117.915028 90.140322 
L 121.244383 98.546707 
L 121.485284 100.161374 
L 122.624305 104.158745 
L 123.437056 106.068332 
L 124.408848 107.767817 
L 124.502402 107.97325 
L 126.588657 110.433769 
L 127.503148 111.234488 
L 128.98598 112.292776 
L 129.584726 113.27247 
L 131.469839 115.109689 
L 131.982048 115.436513 
L 132.810001 115.771119 
L 133.387697 115.880061 
L 133.611058 116.069152 
L 133.723322 116.364072 
L 133.902245 117.529744 
L 134.063625 117.806767 
L 134.912628 118.156157 
L 135.424837 118.581029 
L 135.937045 118.816809 
L 137.6982 119.221449 
L 137.894663 119.398868 
L 138.438446 120.018277 
L 138.696889 120.107765 
L 139.562264 120.682042 
L 140.165688 120.805768 
L 141.837966 120.801099 
L 143.545327 121.188619 
L 144.199036 121.20496 
L 146.574139 120.801099 
L 148.917668 120.931829 
L 152.548734 120.494507 
L 154.177744 120.956729 
L 154.47127 121.478092 
L 154.734391 121.465641 
L 154.688783 121.769899 
L 154.921499 122.841416 
L 154.930854 123.423474 
L 154.554299 123.949505 
L 153.992975 124.349476 
L 153.699449 124.442854 
L 152.554581 125.546275 
L 151.085783 126.308865 
L 150.723261 126.794432 
L 150.598133 127.517336 
L 150.669468 128.290042 
L 150.891658 128.932018 
L 151.60033 129.762307 
L 152.470383 130.36771 
L 153.601217 130.831489 
L 153.79885 131.035365 
L 156.490868 132.278853 
L 158.773586 133.526232 
L 159.6413 133.765125 
L 160.693783 134.590745 
L 164.094472 135.750971 
L 164.490908 136.006205 
L 164.490908 135.864581 
L 164.580953 135.864581 
L 164.880326 136.178177 
L 167.350153 136.983565 
L 169.448102 138.147681 
L 170.984728 139.413736 
L 171.719127 140.33896 
L 171.95652 140.417553 
L 172.472237 140.822971 
L 173.598394 141.906159 
L 173.88958 141.985531 
L 174.408805 142.336478 
L 175.801591 142.760571 
L 177.283253 143.375312 
L 178.656159 144.397805 
L 179.776468 144.611019 
L 180.264119 144.85069 
L 180.251255 145.30124 
L 180.414975 145.303575 
L 180.783344 145.182183 
L 181.058159 145.353376 
L 181.125986 145.716774 
L 181.520082 146.160321 
L 181.437053 147.021736 
L 182.62285 148.023219 
L 184.323195 148.920429 
L 184.78161 149.617654 
L 185.256396 150.025406 
L 185.83877 150.948295 
L 186.222342 151.195748 
L 187.18244 152.549734 
L 188.219721 154.960451 
L 188.315614 155.010253 
L 188.280531 155.367425 
L 188.315614 155.674795 
L 187.658396 156.842025 
L 187.136833 157.241995 
L 186.760278 158.275382 
L 186.642166 159.770214 
L 186.648013 159.9951 
L 186.269119 161.501604 
L 186.191937 161.5623 
L 185.646985 161.432348 
L 184.716122 160.7787 
L 183.934946 160.745239 
L 181.927042 159.364796 
L 180.83246 157.621734 
L 181.058159 157.608505 
L 181.190304 157.477775 
L 181.217201 157.258336 
L 180.972791 156.814789 
L 180.431347 156.576674 
L 180.941216 156.249072 
L 181.056989 155.836651 
L 180.859357 155.369759 
L 179.743725 154.025111 
L 179.622104 153.077321 
L 179.457215 152.90924 
L 179.645493 152.90924 
L 179.645493 152.790183 
L 178.709952 152.126419 
L 173.62646 151.793369 
L 172.714308 151.331146 
L 172.268757 151.342819 
L 171.576457 150.887599 
L 170.788264 150.416039 
L 169.588433 149.904792 
L 169.406003 149.633217 
L 170.021121 149.23169 
L 170.091286 148.926654 
L 169.79893 148.59983 
L 170.08427 148.487776 
L 170.778909 148.623175 
L 171.073604 148.457428 
L 171.174174 148.139942 
L 170.89819 148.121266 
L 170.290089 148.326698 
L 170.38832 148.184296 
L 170.08427 148.056679 
L 169.141713 148.392063 
L 168.771005 147.873813 
L 167.241396 147.745418 
L 166.185405 148.251996 
L 165.266237 149.158544 
L 163.100461 152.517051 
L 162.659587 153.835242 
L 162.447921 153.970641 
L 161.922849 154.879523 
L 161.133487 155.607874 
L 160.849317 156.057647 
L 160.772135 157.020222 
L 161.235227 158.318959 
L 160.625956 159.206053 
L 159.951198 159.86437 
L 159.224985 161.392662 
L 159.196918 161.971608 
L 159.374671 162.51009 
L 159.754734 163.129499 
L 159.568796 163.608841 
L 160.003822 164.158217 
L 161.138165 164.838323 
L 162.933233 164.939483 
L 163.627872 165.256191 
L 164.09915 165.778331 
L 164.319002 166.227326 
L 165.17853 166.666204 
L 166.110562 167.331524 
L 166.694105 167.499606 
L 167.801551 168.71508 
L 168.31376 168.974983 
L 168.809596 169.028676 
L 168.285693 170.326635 
L 168.220206 171.900838 
L 168.622488 172.7677 
L 168.546475 173.375437 
L 168.285693 174.481971 
L 168.318437 175.058582 
L 168.806088 176.022713 
L 169.494879 176.232815 
L 169.00606 176.697372 
L 169.00606 177.551784 
L 168.237747 178.333049 
L 168.023742 178.726794 
L 167.893936 178.343165 
L 167.543108 178.273131 
L 166.844961 178.595286 
L 166.260248 177.997665 
L 165.596015 177.968873 
L 164.209076 178.361062 
L 162.617488 179.113536 
L 160.413121 180.907178 
L 160.076326 181.742136 
L 159.902082 182.087636 
L 159.84478 182.535852 
L 160.04943 182.7265 
L 160.041244 183.068109 
L 160.189761 184.522476 
L 160.452881 186.303668 
L 160.226013 187.958799 
L 158.870649 189.252089 
L 158.411064 189.418614 
L 157.042837 190.167197 
L 156.561033 190.621638 
L 154.59406 193.181761 
L 154.341464 193.801171 
L 153.752073 196.425102 
L 153.4527 196.891994 
L 153.06679 197.207924 
L 152.173349 197.469383 
L 151.327854 197.200142 
L 148.731729 197.350326 
L 147.966925 197.04918 
L 147.356485 196.554275 
L 146.915612 195.746553 
L 146.962389 195.390159 
L 147.251237 195.106911 
L 146.75657 194.159121 
L 146.805686 193.867314 
L 147.098042 193.183317 
L 146.956542 192.3647 
L 146.882868 191.707939 
L 147.137802 191.311082 
L 147.621945 191.07997 
L 149.222888 190.459782 
L 149.469637 190.171866 
L 149.517583 190.067593 
L 149.712877 189.207735 
L 150.791088 186.856935 
L 150.978196 186.03754 
L 150.952468 185.395564 
L 150.723261 184.861751 
L 150.198189 184.289031 
L 149.917527 184.10383 
L 149.791229 183.696078 
L 149.924543 183.291439 
L 152.196737 182.04795 
L 152.860971 182.003596 
L 154.113426 182.078298 
L 154.734391 181.610629 
L 155.046627 181.072147 
L 155.250107 180.350799 
L 155.344831 179.539186 
L 155.24426 178.345499 
L 154.884077 177.876273 
L 154.376546 177.656834 
L 154.16605 177.298106 
L 153.35213 175.357393 
L 152.64813 170.194346 
L 152.093005 168.405756 
L 151.556713 167.663838 
L 151.198048 166.973574 
L 150.255491 166.012555 
L 149.811109 164.315404 
L 149.377252 163.496009 
L 148.980817 161.112527 
L 148.849841 160.921102 
L 149.025255 160.185747 
L 148.917668 159.755429 
L 148.338802 158.748499 
L 148.251096 158.357866 
L 148.037091 158.035711 
L 147.544763 157.503454 
L 147.153005 156.838134 
L 146.765925 156.431938 
L 146.760078 156.185264 
L 146.557767 156.273195 
L 145.476049 156.185264 
L 145.162849 156.378517 
L 144.906845 156.779378 
L 144.396669 157.111265 
L 143.962599 157.676791 
L 143.682353 157.788145 
L 142.720436 157.593487 
L 142.139678 156.980536 
L 141.701143 157.122938 
L 141.543271 157.111265 
L 141.543271 156.980536 
L 141.800544 156.761097 
L 141.574845 156.263079 
L 141.150344 155.760392 
L 140.518854 155.39466 
L 139.410239 154.330147 
L 138.467682 154.442201 
L 138.291098 154.319253 
L 138.116951 153.93168 
L 137.834127 153.651865 
L 136.512402 153.051642 
L 136.451592 152.727152 
L 136.810606 152.212015 
L 136.914685 151.800372 
L 136.817622 151.290682 
L 137.795484 150.619398 
L 137.764353 150.06996 
L 135.424837 145.574372 
L 134.656524 144.862362 
L 134.228514 144.731632 
L 133.765422 144.920723 
L 133.163168 145.306687 
L 132.232305 145.320694 
L 131.628881 145.859176 
L 131.239463 145.938547 
L 130.839519 145.818712 
L 130.411509 145.574372 
L 130.192827 145.72689 
L 129.484155 145.901196 
L 129.18946 146.157986 
L 128.532243 146.511268 
L 128.342796 146.760277 
L 128.159196 146.495705 
L 128.132299 146.094956 
L 128.27263 145.731559 
L 129.236278 145.126934 
L 129.802627 144.554087 
L 130.264746 144.379773 
L 130.313278 144.066312 
L 130.232587 143.718477 
L 129.78002 143.23291 
L 129.473258 143.312126 
L 129.08732 143.108721 
L 127.907769 141.836126 
L 127.646987 141.63225 
L 126.988601 141.652482 
L 126.633096 141.773874 
L 126.476393 141.976971 
L 126.343078 142.350485 
L 126.0376 142.356162 
L 125.798969 142.072473 
L 125.362649 142.018889 
L 124.798267 141.727184 
L 124.605312 141.77543 
L 124.514097 141.948958 
L 124.605312 142.688981 
L 124.501155 142.636144 
L 124.104769 142.572812 
L 124.010704 142.440956 
L 124.170285 141.654816 
L 124.058318 140.954628 
L 123.72607 140.043876 
L 122.921339 138.617686 
L 122.240733 138.096323 
L 121.757027 136.544762 
L 121.288668 135.731694 
L 120.408736 134.612022 
L 119.230632 133.645289 
L 118.581601 133.755009 
L 118.484539 133.584593 
L 117.591097 133.70832 
L 117.149055 133.997792 
L 117.318621 134.569735 
L 116.729231 134.569735 
L 116.441552 134.156536 
L 116.336304 134.308275 
L 116.229886 134.308275 
L 115.950393 133.975226 
L 113.710944 132.910713 
L 113.156636 132.893594 
L 111.736953 133.23209 
L 111.222406 133.572921 
L 110.694995 133.751118 
L 110.350015 134.216453 
L 110.029592 134.308275 
L 109.690459 134.197778 
L 108.754918 132.218935 
L 107.520005 130.912417 
L 106.772742 130.547463 
L 105.436089 130.445525 
L 104.077216 129.644027 
L 103.808248 129.991084 
L 103.58021 129.768532 
L 102.519541 128.142971 
L 101.1174 126.486283 
L 99.380803 124.944763 
L 98.999571 124.828818 
L 98.65459 124.599263 
L 98.114316 124.468533 
L 97.890955 124.193067 
L 97.722558 123.488061 
L 97.643037 122.727027 
L 97.124982 121.727879 
L 96.798712 121.271103 
L 95.107723 119.944353 
L 94.972069 119.557611 
L 94.423609 119.429994 
L 93.999107 118.998897 
L 93.48456 118.700086 
L 92.200531 118.771676 
L 91.940918 118.156157 
L 90.985498 116.512699 
L 90.888435 116.195212 
L 89.768126 114.082528 
L 88.056087 112.753443 
L 87.340398 112.552679 
L 85.406169 111.637571 
L 85.512586 111.768301 
L 85.095101 111.76441 
L 83.839138 111.348877 
L 83.345641 111.414242 
L 83.24624 111.565981 
L 83.197124 111.862458 
L 82.986627 112.171384 
L 82.951544 112.420393 
L 82.676729 112.362032 
L 82.433489 112.322346 
L 82.242873 112.078006 
L 81.84176 111.942607 
L 81.55642 111.424357 
L 81.558994 111.212182 
L 81.734172 110.955909 
L 81.933763 110.888958 
L 82.347535 111.033551 
L 82.669065 111.013837 
L 82.891813 110.695049 
L 83.017632 110.240479 
L 82.994813 109.464969 
L 82.445183 108.654912 
L 82.158674 108.752959 
L 81.851115 108.127324 
L 81.709615 107.819176 
L 81.472221 107.7079 
L 81.427783 107.334386 
L 81.078125 107.051139 
L 80.391672 106.651946 
L 80.039675 105.726723 
L 79.912207 105.655133 
L 79.4994 105.216254 
L 78.741613 104.816284 
L 76.448369 104.041244 
L 76.794519 103.759552 
L 76.931342 103.451404 
L 77.070504 102.438249 
L 77.114942 102.314523 
L 76.911462 101.863972 
L 76.727862 101.73013 
L 75.731511 101.275689 
L 75.028687 101.095157 
L 74.321184 101.071812 
L 73.686186 101.274132 
L 73.793773 101.54882 
L 73.391491 101.73013 
L 73.117845 101.439101 
L 72.8021 100.49131 
L 73.163453 100.194834 
L 73.370441 99.843887 
L 73.686186 98.782487 
L 73.63707 98.147514 
L 73.675661 97.160038 
L 73.368102 95.199093 
L 72.219726 92.870082 
L 71.100586 91.403264 
L 70.629308 91.18149 
L 70.498332 90.880345 
L 70.175571 89.428312 
L 69.555775 84.110416 
L 68.959368 82.702737 
L 68.536036 82.032748 
L 67.901038 81.584532 
L 67.241482 80.69199 
L 66.974853 80.612619 
L 66.152747 80.181522 
L 65.775022 80.034451 
L 65.546985 80.302914 
L 65.273339 80.246887 
L 64.329613 79.3987 
L 64.169401 79.497526 
L 63.708648 79.09989 
L 63.445527 79.126347 
L 63.543759 79.267971 
L 63.477101 79.300653 
L 63.347295 79.3987 
L 63.613924 79.747313 
L 63.748408 79.790889 
L 63.664209 79.965196 
L 63.543759 80.181522 
L 63.732036 80.29202 
L 63.677073 80.390067 
L 63.529726 80.368279 
L 63.350803 79.965196 
L 62.660842 79.658603 
L 61.234143 78.484371 
L 60.495066 78.341969 
L 59.566542 77.349824 
L 58.740928 76.935069 
L 58.359695 76.591125 
L 57.846318 76.59735 
L 57.639329 76.266635 
L 56.951707 75.979497 
L 56.853475 75.546844 
L 54.884163 74.413075 
L 54.640922 74.800595 
L 54.597653 75.338299 
L 53.677316 74.893974 
L 53.705382 74.674535 
L 53.438753 74.228653 
L 53.03647 74.025555 
L 51.587552 73.771099 
L 50.342114 73.357122 
L 49.348102 73.269969 
L 49.083812 72.983609 
L 47.792766 72.977383 
L 47.198698 73.399142 
L 46.840854 73.628697 
L 46.613985 73.629475 
L 45.486659 74.282346 
L 45.315923 74.346932 
L 44.963926 74.674535 
L 43.89741 75.358531 
L 43.587512 75.748385 
L 43.662355 76.121899 
L 43.041391 77.06502 
L 43.065948 77.476663 
L 42.869485 77.689877 
L 42.508133 77.858736 
L 41.290761 78.341969 
L 40.886139 78.722486 
L 40.504907 79.334892 
L 40.504907 79.790889 
L 40.308443 80.312252 
L 39.630176 81.049941 
L 39.393952 81.498157 
L 39.613804 82.009403 
L 39.279349 82.084106 
L 38.856017 82.560335 
L 38.284168 82.905057 
L 38.173072 83.153288 
L 36.621244 83.991358 
L 34.122182 84.581976 
L 33.41468 85.035639 
L 32.817103 85.17026 
L 31.050101 85.167925 
L 30.46188 85.298655 
L 30.199929 85.152362 
L 30.047904 85.150806 
L 29.696983 83.74917 
L 29.921243 83.35288 
L 32.007908 81.08039 
L 32.218802 80.41826 
L 32.744552 79.889544 
L 32.715724 79.440853 
L 32.547025 79.093011 
L 32.229198 78.78764 
L 32.053948 78.431869 
L 32.251476 77.810257 
L 31.80741 77.733173 
L 31.216312 78.103769 
L 30.801949 78.135393 
L 28.302408 78.826182 
L 27.586555 78.781711 
L 27.086053 78.286596 
L 26.441489 78.116616 
L 24.913249 77.21434 
L 24.337003 77.012736 
L 23.31075 76.531456 
L 22.583016 76.554186 
L 22.382518 76.239921 
L 22.244398 75.873279 
L 21.448346 74.866248 
L 20.944873 73.849335 
L 21.166164 73.087391 
L 21.648844 72.83341 
L 20.836456 72.095184 
L 20.514174 71.55955 
L 20.469619 70.964621 
L 20.622591 70.707675 
L 21.35478 70.17303 
L 22.048355 69.2164 
L 21.886471 68.810227 
L 21.988948 68.421843 
L 22.253309 68.11252 
L 22.583016 67.940564 
L 22.847377 67.938587 
L 23.622636 68.079908 
L 23.539466 67.830867 
L 23.047875 66.88412 
L 22.927576 65.5144 
L 22.841436 65.247571 
L 22.583016 64.979754 
L 21.6132 64.679325 
L 20.904774 64.813728 
L 20.632988 64.748503 
L 19.17158 63.816579 
L 18.920586 63.416337 
L 18.856724 61.797576 
L 18.479491 61.538654 
L 17.82453 61.371639 
L 17.613636 60.917042 
L 17.607696 60.62946 
L 17.373781 60.438727 
L 17.121302 60.07505 
L 17.552002 59.653065 
L 18.178001 59.36153 
L 18.675533 59.285435 
L 19.04237 59.044301 
L 19.545843 59.124349 
L 20.589918 59.56511 
L 21.085965 59.234045 
L 20.935962 59.042324 
L 21.124579 58.832814 
L 21.590923 58.799214 
L 21.801817 58.619351 
L 22.236972 58.041223 
L 23.257284 57.689404 
L 23.371642 57.735852 
L 23.627091 57.967104 
L 23.723627 57.874208 
L 23.996899 57.404787 
L 24.387498 57.096452 
L 24.387498 56.796023 
L 24.233041 56.41258 
L 24.234526 55.745508 
L 24.699384 55.224699 
L 25.124143 54.433107 
L 25.138995 54.194938 
L 25.027607 54.114889 
L 24.221159 53.726505 
L 23.864718 53.064375 
L 22.474599 52.001014 
L 22.339448 51.068102 
L 22.153802 50.688612 
L 22.303804 49.800172 
L 22.127069 49.684546 
L 21.469139 49.437483 
L 20.950814 49.067876 
L 20.575066 48.996721 
L 20.187437 48.726928 
L 19.897828 48.319767 
L 19.707726 46.844304 
L 19.967631 46.248387 
L 20.579092 46.015299 
L 20.971487 46.213607 
L 20.986388 46.127674 
L 21.111212 45.883721 
L 21.772113 45.802684 
L 22.386974 45.42023 
L 23.147381 44.358845 
L 23.791945 45.028881 
L 24.126108 45.214673 
L 25.036518 45.290769 
L 25.470188 45.215661 
L 26.949417 44.585155 
L 28.029136 44.691887 
L 28.489539 44.541672 
L 29.766786 43.792575 
L 30.068275 43.756998 
L 30.605907 43.233224 
L 32.296031 43.69375 
L 32.781682 44.245196 
L 32.802474 44.29362 
L 33.099508 44.323268 
L 33.349017 44.261008 
L 34.039621 44.495224 
L 34.988645 44.410234 
L 35.039014 44.082464 
L 35.334763 44.069888 
L 35.373794 43.706287 
L 35.737171 43.27473 
L 36.996595 42.942677 
L 37.353036 42.361584 
L 37.56393 41.186549 
L 37.707992 41.083771 
L 38.160969 41.005699 
L 38.789196 40.501689 
L 39.101082 39.882054 
L 39.060982 39.180394 
L 38.636223 38.423391 
L 38.250079 38.079479 
L 38.455032 37.731613 
L 38.73573 37.468738 
L 39.04613 37.336312 
L 39.669902 37.207839 
L 39.966936 37.017106 
L 40.673877 36.157324 
L 41.245668 35.85146 
L 41.474384 35.518912 
L 41.373392 35.258507 
L 41.318441 35.177471 
L 41.43874 34.934854 
L 41.744685 34.636401 
L 42.135285 34.440727 
L 42.935792 34.282112 
L 43.348669 34.34882 
L 43.546197 34.611695 
L 43.613029 35.620703 
L 43.564019 36.171654 
L 43.281836 37.654529 
L 43.338273 38.120985 
L 43.495701 38.428332 
L 43.760061 38.629936 
L 44.53235 38.954083 
L 44.940772 39.341479 
L 45.987817 40.646963 
L 46.265544 40.735906 
L 47.187834 41.109466 
L 47.721011 40.875249 
L 47.93636 41.123301 
L 48.824492 41.213232 
L 49.189844 41.659923 
L 48.977465 42.10859 
L 48.566073 42.572082 
L 48.23488 43.252989 
L 48.701223 43.339955 
L 49.715594 43.941802 
L 50.330455 45.490396 
L 50.132927 46.249375 
L 50.701748 46.08829 
L 51.604731 46.358083 
L 52.063649 45.834308 
L 52.476526 44.861866 
L 52.178007 44.464588 
L 51.72503 44.332162 
L 51.279479 43.562312 
L 51.321064 43.465463 
L 51.793348 43.061267 
L 51.537898 42.395184 
L 51.600276 42.177768 
L 52.283454 41.821997 
L 52.534448 41.569004 
L 52.580488 41.333799 
L 52.605736 40.655857 
L 52.871581 40.287238 
L 54.028529 39.43734 
L 54.175561 39.027214 
L 54.800818 38.508381 
L 55.014682 37.823521 
L 55.434986 37.013152 
L 55.504789 36.346081 
L 55.310231 35.394392 
L 55.319142 34.961537 
L 55.127555 34.839488 
L 54.989434 34.581059 
L 55.102307 34.112627 
L 55.351816 33.6521 
L 55.626573 33.417884 
L 56.611241 33.408496 
L 56.621637 33.645183 
L 57.096891 34.009848 
L 57.322637 33.837892 
L 57.471154 33.579958 
L 57.815714 33.399601 
L 57.861754 33.519674 
L 58.059282 35.846519 
L 58.504833 36.105935 
L 58.974147 37.027976 
L 59.61277 37.33137 
L 61.530125 37.248357 
L 61.755871 36.816984 
L 61.761812 36.381658 
L 61.917754 36.21909 
L 62.072212 36.222549 
L 62.606873 36.453801 
L 62.905393 36.364364 
L 63.861842 35.911743 
L 64.767796 35.831695 
L 65.063345 35.902355 
L 65.422757 36.119771 
L 65.523748 36.809572 
L 65.617314 37.228592 
L 65.828208 37.491467 
L 66.395543 37.955947 
L 66.54109 38.281082 
L 66.552971 38.71295 
L 67.028226 38.721844 
L 68.035171 38.276141 
L 68.223788 37.910487 
L 68.039627 37.56954 
L 67.316349 36.79969 
L 67.267338 36.463683 
L 67.448529 36.018969 
L 67.85398 35.641456 
L 67.962398 35.224413 
L 67.856951 35.011938 
L 67.608927 34.92003 
L 66.54406 34.65419 
L 66.318314 34.395267 
L 66.572278 33.998978 
L 66.377721 33.81368 
L 66.32574 33.497933 
L 66.388117 33.294352 
L 66.410395 32.736977 
L 66.962878 32.136119 
L 67.201991 31.37121 
L 67.340112 31.301538 
L 69.070335 30.939343 
L 69.299051 31.111299 
L 69.32727 31.327233 
L 69.312418 31.927597 
L 70.017874 32.206285 
L 70.346096 32.459278 
L 70.530258 32.486949 
L 71.03076 32.443466 
L 72.319888 32.646058 
L 72.520386 32.340687 
L 72.64514 31.373187 
L 72.536723 31.004568 
L 72.236718 30.773316 
L 71.624828 30.713033 
L 71.364923 30.436322 
L 71.244625 30.070668 
L 71.468885 29.752944 
L 71.607006 29.527128 
L 71.68275 28.863021 
L 71.926318 28.720218 
L 72.100083 28.47859 
L 71.935229 27.65241 
L 72.385235 27.013998 
L 72.460979 26.398316 
L 72.927323 26.74371 
L 73.522876 26.803994 
L 75.238248 26.411163 
L 75.459538 26.464529 
L 76.69817 27.258591 
L 76.628367 27.391017 
L 76.242223 27.722082 
L 76.328363 27.889591 
L 76.952134 27.857967 
L 77.506103 28.077359 
L 77.926406 28.008181 
L 78.590277 28.307622 
L 79.316526 28.12776 
L 80.26555 28.22115 
L 80.466048 28.027946 
L 80.847736 27.472548 
L 81.069027 27.345063 
L 81.630421 25.480227 
L 82.817072 24.496915 
L 83.812136 24.202415 
L 84.819082 24.049236 
L 86.218112 24.369924 
L 87.089908 23.67024 
L 87.519122 23.846643 
L 87.715164 24.006741 
L 87.98101 24.005752 
L 88.539434 23.826384 
L 88.881023 23.797231 
L 90.135992 23.960293 
L 90.869666 24.367453 
L 91.036005 24.33237 
L 91.477101 24.02947 
L 92.129091 23.934598 
L 92.625138 23.575862 
L 93.86971 23.075805 
L 94.894478 23.031334 
L 96.59286 22.298074 
L 97.275206 22.176 
L 97.613825 22.281743 
L 97.604914 22.785753 
L 97.298969 23.162772 
L 96.428659 23.604521 
L 96.277172 23.939539 
L 96.4346 24.347688 
M 100.421505 83.028146 
L 100.850719 83.241609 
L 101.29627 83.180337 
L 101.725485 82.340815 
L 101.709148 81.691533 
L 101.608156 81.510682 
L 101.193794 81.577883 
L 100.586289 81.948729 
L 100.365069 82.163918 
L 100.221007 82.620491 
L 100.421505 83.028146 
M 101.185017 121.279765 
L 101.204005 121.284819 
L 101.189574 121.262582 
L 101.185017 121.279765 
" clip-path="url(#p19a22c739f)" style="fill: none; stroke: #000000; stroke-width: 2"/>
   </g>
  </g>
 </g>
 <defs>
  <clipPath id="p19a22c739f">
   <rect x="0" y="-0" width="205.455627" height="266.112"/>
  </clipPath>
 </defs>
</svg>
