<?xml version="1.0" encoding="utf-8" standalone="no"?>
<!DOCTYPE svg PUBLIC "-//W3C//DTD SVG 1.1//EN"
  "http://www.w3.org/Graphics/SVG/1.1/DTD/svg11.dtd">
<svg xmlns:xlink="http://www.w3.org/1999/xlink" width="357.12pt" height="141.228427pt" viewBox="0 0 357.12 141.228427" xmlns="http://www.w3.org/2000/svg" version="1.1">
 <metadata>
  <rdf:RDF xmlns:dc="http://purl.org/dc/elements/1.1/" xmlns:cc="http://creativecommons.org/ns#" xmlns:rdf="http://www.w3.org/1999/02/22-rdf-syntax-ns#">
   <cc:Work>
    <dc:type rdf:resource="http://purl.org/dc/dcmitype/StillImage"/>
    <dc:date>2024-02-02T21:58:02.513920</dc:date>
    <dc:format>image/svg+xml</dc:format>
    <dc:creator>
     <cc:Agent>
      <dc:title>Matplotlib v3.8.2, https://matplotlib.org/</dc:title>
     </cc:Agent>
    </dc:creator>
   </cc:Work>
  </rdf:RDF>
 </metadata>
 <defs>
  <style type="text/css">*{stroke-linejoin: round; stroke-linecap: butt}</style>
 </defs>
 <g id="figure_1">
  <g id="patch_1">
   <path d="M 0 141.228427 
L 357.12 141.228427 
L 357.12 0 
L 0 0 
L 0 141.228427 
z
" style="fill: none"/>
  </g>
  <g id="axes_1">
   <g id="PatchCollection_1">
    <path d="M 317.048664 85.189313 
L 319.086565 90.130222 
L 321.091239 93.556229 
L 323.649691 96.271399 
L 327.36 99.062313 
L 325.94233 100.215969 
L 318.909356 101.998891 
L 313.953048 104.73154 
L 311.11217 105.558909 
L 308.686624 104.929643 
L 309.633584 104.24211 
L 310.01569 103.752681 
L 310.547317 101.998891 
L 308.088545 102.902005 
L 305.906662 106.16487 
L 303.536494 106.887361 
L 301.426602 106.281401 
L 298.973368 105.145225 
L 296.475832 104.498478 
L 292.388954 106.036686 
L 281.689974 106.968933 
L 274.141987 105.815277 
L 273.045508 105.86189 
L 272.02102 106.059992 
L 270.907927 105.914329 
L 269.495794 104.929643 
L 268.881102 103.63615 
L 268.604213 101.981412 
L 268.194418 100.559735 
L 267.131165 99.953774 
L 266.034685 99.615835 
L 265.303699 98.811772 
L 264.672393 97.856219 
L 263.830651 97.104595 
L 259.743774 96.119909 
L 258.724823 95.548907 
L 256.631544 94.698232 
L 253.807279 94.867202 
L 248.87866 96.038337 
L 246.774306 96.294705 
L 239.674879 96.038337 
L 239.674879 95.059478 
L 254.62687 94.173843 
L 252.998764 92.600676 
L 251.215601 92.192818 
L 244.315893 92.196622 
L 241.47256 90.499335 
L 239.053704 88.911943 
L 237.265618 88.064543 
L 236.843531 89.540599 
L 236.205001 91.054194 
L 234.515723 92.965572 
L 233.994245 94.06826 
L 232.204341 93.852459 
L 231.676128 94.905463 
L 231.144472 98.173327 
L 228.710527 106.821275 
L 226.904771 109.392775 
L 224.722888 110.791146 
L 222.928649 110.808625 
L 221.743565 110.266757 
L 220.647086 109.520959 
L 219.151887 108.926652 
L 211.631589 108.926652 
L 211.631589 107.866221 
L 214.505694 106.887361 
L 213.038184 105.599695 
L 211.199643 103.117588 
L 209.770897 101.998891 
L 208.109565 101.352145 
L 204.18882 100.920981 
L 200.636379 102.165224 
L 197.568403 103.979395 
L 194.802292 109.759847 
L 195.832319 113.727724 
L 194.841057 114.123929 
L 193.113271 115.178533 
L 192.116472 115.598044 
L 192.470889 116.349668 
L 192.709014 117.800478 
L 193.04128 118.709418 
L 191.584846 118.045192 
L 190.122873 117.975274 
L 188.705203 118.482183 
L 187.387212 119.589227 
L 189.779531 121.069169 
L 192.304756 121.628517 
L 194.951812 121.407108 
L 197.693011 120.568086 
L 199.071917 125.951812 
L 198.656584 128.422267 
L 195.328381 129.459392 
L 192.493041 129.319555 
L 189.95674 128.742727 
L 187.44259 127.524979 
L 175.624979 116.909017 
L 173.177283 113.815122 
L 163.004391 107.872047 
L 159.99738 106.759177 
L 156.824235 106.339666 
L 154.315623 107.376791 
L 151.435981 109.33451 
L 148.5508 109.590878 
L 142.608768 107.866221 
L 136.771954 106.864055 
L 118.331165 107.924486 
L 117.400819 107.74969 
L 114.565478 105.815277 
L 109.775303 103.432221 
L 108.573606 102.488321 
L 107.981064 101.404584 
L 106.568932 97.733861 
L 106.286505 96.574379 
L 105.771492 95.665438 
L 103.334872 94.791457 
L 102.570659 94.173843 
L 102.371299 91.167346 
L 102.614961 87.554889 
L 101.767681 84.51926 
L 98.306572 83.243247 
L 88.870205 83.161675 
L 86.699397 82.351786 
L 83.476412 74.864677 
L 82.402084 73.303163 
L 81.233614 72.493274 
L 79.876859 71.799915 
L 78.791455 71.514415 
L 77.949713 70.76279 
L 77.296256 69.032307 
L 76.46559 65.641259 
L 73.907138 60.449808 
L 70.51802 58.544528 
L 60.500186 58.79507 
L 54.380945 57.757945 
L 52.143684 57.734639 
L 50.864459 58.911601 
L 49.817819 59.488428 
L 48.898549 59.296153 
L 45.210391 57.734639 
L 43.305396 57.425832 
L 39.118839 56.0799 
L 36.770822 55.782747 
L 34.378504 55.188439 
L 32.063714 53.632752 
L 30.35808 51.430318 
L 29.76 48.930731 
L 30.513137 47.742116 
L 32.528887 46.314613 
L 33.481384 45.114345 
L 33.880104 43.232371 
L 33.686282 38.914903 
L 33.946557 37.691328 
L 34.982121 35.995804 
L 35.098415 34.917894 
L 35.574663 34.352719 
L 37.690093 34.177923 
L 39.019159 33.309768 
L 40.099025 31.631723 
L 41.500082 30.489721 
L 43.781645 31.247171 
L 45.18824 27.191897 
L 49.363722 23.346378 
L 54.214812 21.738252 
L 57.714686 24.406809 
L 59.735973 22.017926 
L 61.895705 21.971314 
L 64.42093 22.903561 
L 67.516546 23.515348 
L 76.321608 22.431611 
L 79.256628 22.44909 
L 81.781853 23.381337 
L 83.288128 23.760062 
L 84.838705 23.515348 
L 86.217611 22.536488 
L 86.350517 21.598415 
L 86.311753 20.503025 
L 87.153495 19.023083 
L 90.238035 15.072686 
L 91.639092 13.761714 
L 94.042486 12.67215 
L 99.547034 11.769036 
L 105.782568 12.007924 
L 126.40524 16.517669 
L 139.646059 16.76821 
L 145.493949 18.195713 
L 154.924779 18.894898 
L 158.48003 19.76888 
L 161.282144 21.470231 
L 165.601608 20.351534 
L 172.573666 20.369014 
L 179.745084 21.178904 
L 184.684779 22.44909 
L 185.293934 23.09001 
L 185.797871 24.861279 
L 186.456866 25.473066 
L 187.254306 25.478893 
L 187.99083 25.1293 
L 188.422776 24.67483 
L 188.317559 24.406809 
L 194.398035 25.473066 
L 195.151172 25.927537 
L 197.443811 27.949347 
L 198.152646 28.403818 
L 202.593941 28.555308 
L 209.770897 27.343387 
L 211.399003 27.751245 
L 214.239881 29.09135 
L 215.851373 29.382677 
L 223.903297 29.038911 
L 225.473173 28.207156 
L 227.688388 27.935025 
L 229.487601 28.076795 
L 231.147887 28.356611 
L 232.113122 29.60223 
L 231.692712 31.120908 
L 231.68829 33.054886 
L 233.207846 34.439808 
L 238.049091 37.493005 
L 242.330195 39.989854 
L 243.028626 41.379023 
L 244.293383 45.137651 
L 245.101898 46.378705 
L 246.403275 47.176942 
L 248.87866 47.864474 
L 255.922709 48.412169 
L 258.25965 48.930731 
L 260.258787 49.996989 
L 262.850465 52.618933 
L 264.844064 53.912426 
L 267.153316 54.634917 
L 271.672029 54.34667 
L 274.038481 56.024639 
L 274.795445 56.219737 
L 275.476591 56.87231 
L 276.312795 57.466618 
L 277.436963 57.734639 
L 287.654157 57.734639 
L 288.36853 58.165803 
L 289.43732 60.216746 
L 289.930182 60.846013 
L 299.948016 62.733813 
L 305.153524 64.621613 
L 305.818057 67.598977 
L 309.683424 71.310485 
L 312.684898 75.622128 
L 317.048664 85.189313 
L 317.048664 85.189313 
" clip-path="url(#p92a95b6856)" style="fill: none; stroke: #000000; stroke-width: 2"/>
   </g>
  </g>
 </g>
 <defs>
  <clipPath id="p92a95b6856">
   <rect x="0" y="0" width="357.12" height="141.228427"/>
  </clipPath>
 </defs>
</svg>
