<?xml version="1.0" encoding="utf-8" standalone="no"?>
<!DOCTYPE svg PUBLIC "-//W3C//DTD SVG 1.1//EN"
  "http://www.w3.org/Graphics/SVG/1.1/DTD/svg11.dtd">
<svg xmlns:xlink="http://www.w3.org/1999/xlink" width="236.177627pt" height="266.112pt" viewBox="0 0 236.177627 266.112" xmlns="http://www.w3.org/2000/svg" version="1.1">
 <metadata>
  <rdf:RDF xmlns:dc="http://purl.org/dc/elements/1.1/" xmlns:cc="http://creativecommons.org/ns#" xmlns:rdf="http://www.w3.org/1999/02/22-rdf-syntax-ns#">
   <cc:Work>
    <dc:type rdf:resource="http://purl.org/dc/dcmitype/StillImage"/>
    <dc:date>2024-02-02T21:58:02.559930</dc:date>
    <dc:format>image/svg+xml</dc:format>
    <dc:creator>
     <cc:Agent>
      <dc:title>Matplotlib v3.8.2, https://matplotlib.org/</dc:title>
     </cc:Agent>
    </dc:creator>
   </cc:Work>
  </rdf:RDF>
 </metadata>
 <defs>
  <style type="text/css">*{stroke-linejoin: round; stroke-linecap: butt}</style>
 </defs>
 <g id="figure_1">
  <g id="patch_1">
   <path d="M 0 266.112 
L 236.177627 266.112 
L 236.177627 0 
L 0 0 
L 0 266.112 
z
" style="fill: none"/>
  </g>
  <g id="axes_1">
   <g id="PatchCollection_1">
    <path d="M 205.361985 78.557682 
L 213.947992 76.205019 
L 214.880134 76.744885 
L 215.549964 78.374072 
L 216.496158 81.950338 
L 215.339179 83.628854 
L 209.886853 88.243744 
L 209.896221 88.652069 
L 209.437177 88.800052 
L 208.556561 89.460497 
L 203.174497 94.549482 
L 201.60063 95.215407 
L 144.468315 111.827916 
L 110.784747 121.909971 
L 134.945482 148.240058 
L 157.077989 174.548221 
L 157.035832 174.564663 
L 156.731363 174.753753 
L 143.016235 182.544806 
L 141.966991 183.432706 
L 141.37679 184.391858 
L 134.903325 200.385029 
L 133.929026 201.267448 
L 101.571067 208.110311 
L 100.325089 208.746092 
L 99.243055 209.9327 
L 88.919236 227.779774 
L 70.445033 243.401615 
L 69.283369 243.886672 
L 68.042075 243.936 
L 19.681469 235.359083 
L 19.681786 235.35773 
L 20.271913 234.930482 
L 20.570664 230.101277 
L 20.891546 228.711639 
L 21.876319 226.540871 
L 21.83206 225.697162 
L 20.891546 224.7283 
L 20.271913 224.7283 
L 20.172329 224.337735 
L 19.962244 224.365767 
L 20.15623 222.922355 
L 20.479435 221.760411 
L 21.083687 220.758783 
L 21.514627 219.435153 
L 21.753518 216.454932 
L 22.090775 215.132672 
L 24.193949 209.340766 
L 24.385998 208.263775 
L 24.428155 205.041026 
L 24.938725 202.782908 
L 25.332192 201.903229 
L 25.360297 201.264708 
L 25.884919 199.173757 
L 27.824148 196.21957 
L 28.559556 194.435547 
L 28.559556 192.763883 
L 27.632099 189.519209 
L 27.650836 188.00375 
L 27.97404 187.091185 
L 28.400296 184.328828 
L 29.323069 181.81311 
L 29.196598 181.059491 
L 28.320666 179.439895 
L 28.320666 178.165593 
L 29.107599 176.008872 
L 29.323069 174.745532 
L 31.281035 168.253444 
L 33.935001 162.798274 
L 34.283561 161.539382 
L 34.644239 159.601895 
L 34.944024 158.960634 
L 35.295333 158.544088 
L 36.06353 157.848018 
L 36.325841 157.343778 
L 36.480418 156.170873 
L 36.456997 154.984265 
L 36.578784 153.783955 
L 37.154932 152.583645 
L 38.930217 150.857172 
L 39.436103 149.89528 
L 39.431419 148.231836 
L 39.721835 146.67801 
L 41.848429 142.446781 
L 42.063899 140.936802 
L 41.745378 139.487113 
L 40.588398 137.097454 
L 40.157459 135.735459 
L 39.9092 134.283029 
L 40.475979 132.992285 
L 41.113021 131.879669 
L 41.187967 130.734168 
L 40.85071 130.350507 
L 41.693853 128.824085 
L 42.499523 126.692028 
L 42.693224 124.957877 
L 42.766518 121.729103 
L 43.014777 117.79658 
L 43.736133 113.949012 
L 45.886148 108.966903 
L 47.328859 107.361009 
L 46.373297 104.499996 
L 46.373297 104.105374 
L 46.860446 103.44493 
L 45.754992 99.199998 
L 45.881464 98.76975 
L 46.682449 98.279212 
L 46.715238 97.857185 
L 46.448243 97.270733 
L 46.246825 95.541519 
L 45.754992 94.297362 
L 45.670678 91.850155 
L 45.918937 90.93485 
L 46.682449 90.312772 
L 46.204668 89.655067 
L 46.232773 89.04121 
L 46.991602 87.747726 
L 46.752711 87.407912 
L 46.752711 87.120166 
L 46.958813 86.881749 
L 47.328859 86.692659 
L 47.328859 86.298036 
L 47.13681 85.669107 
L 47.923744 82.317556 
L 47.328859 82.317556 
L 47.525593 81.828389 
L 47.923744 81.558456 
L 47.563066 80.939118 
L 47.394437 79.929269 
L 47.408489 78.918048 
L 47.609907 78.300081 
L 47.197704 77.512206 
L 47.235177 75.921384 
L 46.991602 75.404813 
L 46.991602 75.040335 
L 47.328859 75.040335 
L 47.328859 75.404813 
L 47.609907 75.404813 
L 47.399121 74.515542 
L 46.682449 73.197393 
L 47.314807 72.964456 
L 47.27265 72.750703 
L 46.991602 72.472549 
L 46.991602 72.143697 
L 47.328859 72.143697 
L 47.183651 71.860062 
L 46.991602 71.7847 
L 47.609907 71.387337 
L 47.328859 71.0256 
L 47.923744 70.696748 
L 47.923744 70.300755 
L 47.600539 70.188397 
L 47.328859 69.971903 
L 47.581802 69.25528 
L 47.853482 68.974385 
L 48.261001 68.853806 
L 48.261001 68.522214 
L 47.741062 67.857658 
L 47.417858 67.384934 
L 46.991602 67.404117 
L 46.991602 67.04512 
L 47.609907 67.04512 
L 47.483435 66.703936 
L 47.328859 65.59406 
L 47.609907 65.957168 
L 47.923744 65.199438 
L 48.008058 65.517328 
L 48.073636 65.487183 
L 48.261001 65.199438 
L 48.008058 64.543104 
L 47.867534 63.175628 
L 47.609907 62.698792 
L 47.609907 62.302799 
L 47.923744 62.302799 
L 47.923744 61.972577 
L 47.539645 61.747862 
L 47.356964 61.365571 
L 47.478751 60.754454 
L 47.801956 60.618803 
L 48.204791 60.265287 
L 48.888674 59.367795 
L 49.727439 58.775081 
L 50.799798 58.901921 
L 51.525838 58.529222 
L 53.029444 57.200112 
L 55.5214 55.646286 
L 57.095267 55.28866 
L 57.282632 55.447605 
L 57.69952 55.971027 
L 62.571013 57.091865 
L 63.001953 57.341244 
L 64.009041 58.20037 
L 64.767869 58.285324 
L 64.838131 58.63884 
L 64.63203 59.199258 
L 64.463401 59.174594 
L 65.273755 60.052903 
L 65.746852 60.215959 
L 66.40263 60.09675 
L 67.461243 60.177593 
L 67.672029 60.780489 
L 67.536189 61.683461 
L 67.568978 62.679609 
L 67.995234 63.56751 
L 70.037514 66.638165 
L 70.46377 67.521955 
L 71.658222 67.560321 
L 73.620872 67.365751 
L 74.360964 67.595947 
L 74.585803 67.48907 
L 75.335263 66.953315 
L 75.827097 67.220508 
L 77.302597 68.68938 
L 80.225493 70.685786 
L 84.207003 74.425108 
L 84.876833 74.801917 
L 85.771501 75.07185 
L 88.324351 75.32808 
L 89.05976 75.784363 
L 96.915043 76.735293 
L 98.549804 77.965748 
L 99.336737 77.505355 
L 100.320404 77.53413 
L 103.215196 78.290489 
L 103.852237 78.316523 
L 104.433069 78.117842 
L 111.716889 73.172729 
L 123.680153 65.517328 
L 160.511455 42.186646 
L 193.042727 22.176 
L 202.809135 57.500189 
L 205.853819 68.582503 
L 202.293881 69.795145 
L 202.354775 69.881469 
L 204.90294 78.300081 
L 205.361985 78.557682 
L 205.361985 78.557682 
" clip-path="url(#pdaa4fb76a0)" style="fill: none; stroke: #000000; stroke-width: 2"/>
   </g>
  </g>
 </g>
 <defs>
  <clipPath id="pdaa4fb76a0">
   <rect x="0" y="-0" width="236.177627" height="266.112"/>
  </clipPath>
 </defs>
</svg>
