<?xml version="1.0" encoding="utf-8" standalone="no"?>
<!DOCTYPE svg PUBLIC "-//W3C//DTD SVG 1.1//EN"
  "http://www.w3.org/Graphics/SVG/1.1/DTD/svg11.dtd">
<svg xmlns:xlink="http://www.w3.org/1999/xlink" width="357.12pt" height="194.0721pt" viewBox="0 0 357.12 194.0721" xmlns="http://www.w3.org/2000/svg" version="1.1">
 <metadata>
  <rdf:RDF xmlns:dc="http://purl.org/dc/elements/1.1/" xmlns:cc="http://creativecommons.org/ns#" xmlns:rdf="http://www.w3.org/1999/02/22-rdf-syntax-ns#">
   <cc:Work>
    <dc:type rdf:resource="http://purl.org/dc/dcmitype/StillImage"/>
    <dc:date>2024-02-02T21:58:02.678957</dc:date>
    <dc:format>image/svg+xml</dc:format>
    <dc:creator>
     <cc:Agent>
      <dc:title>Matplotlib v3.8.2, https://matplotlib.org/</dc:title>
     </cc:Agent>
    </dc:creator>
   </cc:Work>
  </rdf:RDF>
 </metadata>
 <defs>
  <style type="text/css">*{stroke-linejoin: round; stroke-linecap: butt}</style>
 </defs>
 <g id="figure_1">
  <g id="patch_1">
   <path d="M 0 194.0721 
L 357.12 194.0721 
L 357.12 -0 
L 0 -0 
L 0 194.0721 
z
" style="fill: none"/>
  </g>
  <g id="axes_1">
   <g id="PatchCollection_1">
    <path d="M 60.224448 130.477807 
L 60.359044 130.514145 
L 60.465772 130.459638 
L 60.53396 130.377213 
L 60.577837 130.309412 
L 60.619343 130.316059 
L 60.640095 130.393166 
L 60.670335 130.44856 
L 60.723699 130.459638 
L 60.771727 130.576186 
L 60.788922 130.818587 
L 60.787736 130.946656 
L 60.837543 131.053011 
L 60.940714 131.222737 
L 60.962059 131.283891 
L 60.807303 131.246666 
L 60.711248 131.273255 
L 60.612227 131.338398 
L 60.503127 131.360998 
L 60.472888 131.291867 
L 60.533367 131.179751 
L 60.533367 131.113723 
L 60.460436 131.085804 
L 60.437312 131.020219 
L 60.469923 130.912091 
L 60.421302 130.774715 
L 60.088073 130.539405 
L 59.981937 130.34575 
L 59.994389 130.172036 
L 60.051311 130.167605 
L 60.106454 130.325365 
L 60.224448 130.477807 
" clip-path="url(#p32a03d07be)" style="fill: none; stroke: #000000; stroke-width: 2"/>
    <path d="M 55.6375 130.565993 
L 55.731184 130.635567 
L 55.843842 130.585049 
L 55.845027 130.85847 
L 55.871117 131.121256 
L 55.954128 131.318456 
L 56.123707 131.396007 
L 56.20316 131.42747 
L 56.267197 131.492613 
L 56.340721 131.548449 
L 56.449229 131.552438 
L 56.686996 131.355237 
L 56.797874 131.321558 
L 56.659721 131.662781 
L 56.46168 131.796611 
L 56.231621 131.769136 
L 55.997412 131.626443 
L 55.885347 131.510339 
L 55.85155 131.412846 
L 55.84147 131.290538 
L 55.798186 131.105746 
L 55.724069 130.957292 
L 55.44954 130.659054 
L 55.317908 130.392723 
L 55.318501 130.161401 
L 55.724069 129.186479 
L 55.798186 129.098292 
L 55.912029 129.034479 
L 56.245852 128.942748 
L 56.236365 129.132415 
L 55.809451 129.390769 
L 55.699165 129.652669 
L 55.675448 129.803338 
L 55.572277 130.07676 
L 55.549153 130.246928 
L 55.573463 130.422414 
L 55.6375 130.565993 
" clip-path="url(#p32a03d07be)" style="fill: none; stroke: #000000; stroke-width: 2"/>
    <path d="M 57.957656 128.888241 
L 57.996197 129.017197 
L 57.928602 129.243201 
L 57.879981 129.345568 
L 57.821874 129.388553 
L 57.796971 129.452366 
L 57.846777 129.872026 
L 57.783926 130.104678 
L 57.637471 130.254905 
L 57.470263 130.297447 
L 57.345747 130.207045 
L 57.288825 129.96553 
L 57.315507 129.70496 
L 57.370057 129.443947 
L 57.399111 129.19933 
L 57.438245 129.034036 
L 57.52422 128.959588 
L 57.609603 128.940975 
L 57.648144 128.942748 
L 57.684313 128.935658 
L 57.821874 128.942748 
L 57.882946 128.915273 
L 57.925045 128.876276 
L 57.957656 128.888241 
" clip-path="url(#p32a03d07be)" style="fill: none; stroke: #000000; stroke-width: 2"/>
    <path d="M 75.109496 125.399792 
L 74.9245 125.489751 
L 74.566367 125.345285 
L 74.279387 125.099339 
L 74.080753 124.840984 
L 74.013159 124.603458 
L 74.116922 124.437721 
L 74.237288 124.34466 
L 74.315556 124.269769 
L 74.347574 124.184684 
L 74.326229 124.111565 
L 74.362398 124.068137 
L 74.62151 124.088522 
L 74.763815 124.134609 
L 74.894854 124.325605 
L 74.99921 124.639796 
L 75.03953 124.806419 
L 75.084593 125.004949 
L 75.110682 125.179105 
L 75.109496 125.399792 
" clip-path="url(#p32a03d07be)" style="fill: none; stroke: #000000; stroke-width: 2"/>
    <path d="M 54.118993 116.553259 
L 53.996255 116.62948 
L 53.830233 116.480583 
L 53.721133 116.223558 
L 53.386125 115.239773 
L 53.379009 115.036812 
L 53.597803 115.028835 
L 53.904943 115.229581 
L 54.047248 115.366513 
L 54.125515 115.503002 
L 54.24173 115.808773 
L 54.263076 116.059594 
L 54.118993 116.553259 
" clip-path="url(#p32a03d07be)" style="fill: none; stroke: #000000; stroke-width: 2"/>
    <path d="M 195.051875 17.121549 
L 195.209258 17.357361 
L 195.501433 17.272378 
L 196.290606 16.710708 
L 197.330537 17.0996 
L 198.762796 17.267313 
L 199.903633 17.893142 
L 200.704102 18.724392 
L 201.566319 18.868468 
L 202.695861 19.467846 
L 202.824629 19.364291 
L 203.212814 18.910115 
L 203.925555 18.659108 
L 204.05357 18.22688 
L 204.491079 17.774955 
L 205.228294 17.96912 
L 205.55812 17.85037 
L 205.989605 17.538018 
L 206.804381 17.561656 
L 207.116134 17.701792 
L 206.837514 18.199303 
L 206.918088 18.365891 
L 208.258478 20.055967 
L 208.200871 20.850073 
L 208.111637 21.193941 
L 208.180539 21.613787 
L 208.042359 21.92839 
L 208.084528 22.282951 
L 208.404565 22.703923 
L 208.381974 23.001642 
L 208.468572 23.364082 
L 208.767524 23.638164 
L 209.422659 23.877915 
L 209.887277 23.91112 
L 210.019057 24.018051 
L 210.353401 24.589289 
L 210.263414 24.985498 
L 209.500221 25.354692 
L 209.453909 25.656351 
L 209.494949 26.61029 
L 209.671158 26.884371 
L 209.708056 27.35712 
L 209.867698 27.444916 
L 209.813857 28.330757 
L 209.13086 28.358334 
L 208.712553 28.179365 
L 208.279562 28.255905 
L 208.212543 28.47427 
L 208.258478 28.854157 
L 208.804423 28.929572 
L 208.835673 29.362925 
L 208.74531 29.770952 
L 209.135002 29.998322 
L 209.753238 30.689998 
L 210.215597 30.317427 
L 210.760789 29.606616 
L 211.726547 29.821041 
L 211.837243 30.070922 
L 211.90125 30.601639 
L 212.061645 30.580816 
L 212.603825 30.388902 
L 213.140734 30.613458 
L 213.588785 30.35626 
L 213.651287 30.200928 
L 213.637732 29.50081 
L 213.826742 29.155816 
L 213.98036 29.098974 
L 215.728891 29.338725 
L 215.847116 29.454661 
L 216.435984 30.359637 
L 216.841113 30.397907 
L 217.005273 30.315176 
L 217.098648 30.140709 
L 217.076057 29.841864 
L 216.949549 29.652202 
L 216.187485 29.312836 
L 216.279354 28.813073 
L 216.461587 28.402795 
L 216.230407 28.166984 
L 215.908111 27.926107 
L 215.890792 27.756142 
L 216.025584 27.679039 
L 217.057232 27.909786 
L 217.552724 28.491154 
L 217.741734 28.934637 
L 218.074572 29.035378 
L 218.137074 29.358985 
L 217.886315 29.85312 
L 219.240259 30.353446 
L 219.22294 30.39847 
L 219.020375 30.629216 
L 218.765852 30.648914 
L 218.614493 30.819441 
L 218.322318 30.783422 
L 218.35997 31.147551 
L 218.761334 31.621425 
L 218.428495 32.666538 
L 218.568559 32.795418 
L 219.030165 32.826934 
L 219.184535 32.739138 
L 219.87958 32.052527 
L 220.619806 32.335051 
L 220.812582 32.257385 
L 220.633361 31.560081 
L 220.314077 31.208896 
L 220.061813 31.20158 
L 219.376558 31.242101 
L 219.553519 30.706319 
L 219.886357 30.39453 
L 220.259106 30.325869 
L 222.766689 30.661858 
L 222.827684 31.276431 
L 223.253898 31.571899 
L 223.454203 32.023825 
L 225.72157 32.439168 
L 225.858621 32.078979 
L 226.246431 32.189287 
L 226.506225 32.390768 
L 226.771291 32.274832 
L 226.845841 31.679393 
L 227.272808 31.584281 
L 227.375219 31.284873 
L 227.284856 31.075513 
L 227.379738 31.020359 
L 227.891044 31.007978 
L 227.987431 31.268552 
L 228.393313 31.164998 
L 227.972371 33.166863 
L 227.618447 33.348646 
L 226.318721 33.171928 
L 225.991154 33.426875 
L 225.847326 33.666626 
L 226.186941 33.881614 
L 225.409817 34.244618 
L 225.230596 35.21938 
L 224.780285 35.337567 
L 224.602571 35.683124 
L 224.635704 35.8272 
L 224.882697 36.083835 
L 224.677121 36.453592 
L 225.847326 37.02089 
L 225.526536 37.683864 
L 226.086789 37.975955 
L 227.102623 36.964048 
L 227.241181 36.602733 
L 227.689985 36.379303 
L 227.804445 36.02643 
L 228.485183 36.075956 
L 228.849648 36.169943 
L 229.584603 35.725897 
L 230.113229 35.769232 
L 230.705862 35.884605 
L 230.842913 36.520565 
L 231.147889 36.483983 
L 231.360996 36.173882 
L 231.909953 36.211027 
L 232.252581 36.661826 
L 232.24731 37.075482 
L 232.897926 37.610138 
L 233.112539 37.65291 
L 233.263897 37.48576 
L 233.601254 36.398438 
L 233.348989 36.118728 
L 233.477757 35.352763 
L 233.586946 35.226697 
L 234.849774 35.201371 
L 235.113334 34.464671 
L 235.699189 34.197906 
L 235.907778 33.637924 
L 236.15703 33.563634 
L 237.014729 33.636798 
L 237.772275 33.887805 
L 240.730922 31.942782 
L 240.197025 31.147551 
L 240.952312 30.700691 
L 241.2106 30.681556 
L 242.234718 30.719263 
L 246.194139 29.056201 
L 246.091727 28.622848 
L 246.267936 28.249715 
L 246.561616 28.012215 
L 248.010442 28.348204 
L 248.326714 28.276729 
L 249.060163 27.910349 
L 249.394507 27.919916 
L 249.524781 27.804543 
L 249.756714 27.042517 
L 249.964549 27.001433 
L 250.553417 27.009875 
L 251.382501 26.744235 
L 251.488678 26.844976 
L 251.307951 27.191658 
L 250.587303 27.408897 
L 250.341063 27.693672 
L 250.436698 27.825366 
L 250.932943 28.03135 
L 250.958546 28.562629 
L 250.073738 29.935289 
L 249.697224 30.335999 
L 249.254444 30.321929 
L 248.326714 30.009578 
L 247.722785 30.034341 
L 247.582722 30.186858 
L 248.371142 31.467782 
L 248.463012 31.879749 
L 248.685155 32.217426 
L 256.605502 37.864522 
L 258.456445 39.720904 
L 259.746381 41.631315 
L 263.929451 48.386837 
L 270.135907 59.103599 
L 274.154063 67.007225 
L 274.39955 67.159742 
L 274.625459 67.167621 
L 274.111141 66.216496 
L 274.358134 66.07636 
L 274.486902 66.13883 
L 274.867181 66.483824 
L 275.124716 66.349879 
L 275.31975 65.822539 
L 276.03588 65.370614 
L 276.623242 65.348102 
L 276.934242 65.189956 
L 277.197802 64.924316 
L 277.386812 64.187616 
L 277.289671 63.667874 
L 276.965116 63.191749 
L 277.073552 62.425502 
L 277.292683 62.203761 
L 277.468139 62.185188 
L 278.364995 62.197007 
L 278.698586 61.318201 
L 278.973442 61.17919 
L 280.137623 61.663758 
L 280.598099 61.380109 
L 280.659848 61.525873 
L 280.732891 62.11512 
L 280.819113 62.228242 
L 281.611675 62.578583 
L 281.79579 62.595185 
L 282.107167 62.334329 
L 282.392565 62.436758 
L 282.42118 62.753894 
L 282.357172 62.987735 
L 281.678694 64.796562 
L 281.709568 65.044755 
L 282.045419 65.157877 
L 282.442264 65.140993 
L 283.306364 64.87479 
L 284.205103 64.913623 
L 284.316551 65.670021 
L 284.681016 66.278966 
L 284.389595 66.775353 
L 284.33613 67.055062 
L 284.42574 67.291999 
L 284.638094 67.405121 
L 286.364787 67.245287 
L 286.706661 66.810809 
L 286.847477 66.816999 
L 287.27708 67.019606 
L 287.806082 66.927307 
L 288.500374 67.086016 
L 289.644223 67.718036 
L 290.019231 67.639807 
L 290.561034 67.266673 
L 290.765105 67.289748 
L 291.056903 67.187882 
L 291.212027 67.276804 
L 291.706013 67.287497 
L 292.037722 67.582965 
L 293.656732 66.52716 
L 293.671039 65.764571 
L 293.863815 65.549583 
L 294.141305 65.484861 
L 294.721137 65.647509 
L 295.681247 65.754441 
L 296.013333 65.646947 
L 296.278398 65.370614 
L 296.785186 64.520229 
L 297.401916 64.548369 
L 298.215939 64.442 
L 299.018667 64.548369 
L 299.487803 65.062764 
L 300.466363 65.28732 
L 301.194917 65.779204 
L 301.688904 65.822539 
L 301.964512 66.033587 
L 302.289067 66.515904 
L 302.574464 66.638593 
L 302.782677 66.859772 
L 302.776652 67.540755 
L 302.966792 67.884061 
L 303.88398 68.513267 
L 304.17992 69.025974 
L 304.24468 69.34114 
L 304.568106 69.789125 
L 304.585049 69.988355 
L 304.430678 70.576477 
L 304.734148 71.245641 
L 304.905086 71.853461 
L 304.964198 72.528253 
L 305.557208 73.034207 
L 305.829804 73.052216 
L 306.354288 72.694841 
L 307.290678 73.33868 
L 307.820433 73.345433 
L 308.520749 73.884592 
L 308.903664 73.913294 
L 308.982732 74.011221 
L 309.253445 74.478904 
L 309.774917 74.323573 
L 310.332157 74.629734 
L 310.635251 75.135687 
L 310.497071 75.382755 
L 310.099472 75.462672 
L 310.097966 76.372713 
L 310.252336 76.513412 
L 310.838945 76.73853 
L 310.944369 76.9901 
L 311.02419 77.537138 
L 311.143921 77.731302 
L 311.777594 78.571557 
L 311.849885 79.436012 
L 312.058097 79.76187 
L 312.345754 79.916639 
L 312.921067 79.626237 
L 313.226797 79.544631 
L 314.168081 79.874992 
L 314.430888 79.766936 
L 314.779917 79.505235 
L 315.007707 79.644809 
L 315.209895 80.097297 
L 315.456512 80.119246 
L 315.874443 80.009501 
L 316.108634 80.194098 
L 316.324753 80.406835 
L 317.281852 80.155265 
L 317.293147 80.248126 
L 317.215209 80.882397 
L 317.445259 81.037729 
L 317.685475 80.88296 
L 317.915525 80.634204 
L 318.228408 80.518268 
L 318.52736 80.584678 
L 319.006285 81.203754 
L 319.275869 80.846378 
L 319.697565 79.893565 
L 320.115495 79.603725 
L 320.569571 79.443328 
L 321.233742 78.775852 
L 321.159192 78.535538 
L 321.976604 77.972179 
L 322.160719 77.586101 
L 322.395664 77.604111 
L 322.816606 77.779703 
L 323.244326 77.770135 
L 323.198015 78.016077 
L 323.110287 78.378518 
L 323.367823 78.680739 
L 322.932573 78.988026 
L 322.42955 79.130976 
L 322.02668 79.854732 
L 322.221714 80.173274 
L 322.5538 80.288085 
L 323.052304 80.252629 
L 323.720993 80.703991 
L 323.754879 81.530738 
L 324.496612 82.105353 
L 324.309108 82.417142 
L 324.515061 82.718238 
L 325.123884 83.279346 
L 325.179608 83.538794 
L 325.367865 83.647977 
L 325.554616 83.669926 
L 326.387465 83.659796 
L 326.98085 84.016045 
L 327.096817 84.242289 
L 327.36 85.321169 
L 325.848297 84.836602 
L 324.611448 85.220992 
L 323.977022 85.102805 
L 323.821899 85.227745 
L 323.535748 85.789979 
L 323.015406 86.355026 
L 322.883626 86.74842 
L 322.946504 87.202596 
L 323.120077 87.570665 
L 323.466846 88.001767 
L 323.110287 88.736216 
L 323.139279 89.478544 
L 321.696101 91.507705 
L 320.852333 91.84904 
L 319.954347 91.879431 
L 319.113968 92.58574 
L 317.758518 92.462488 
L 316.138755 92.701676 
L 315.874443 92.892183 
L 315.665101 93.232674 
L 314.701225 95.602327 
L 314.415075 97.216989 
L 314.201591 97.743484 
L 314.183895 98.008843 
L 314.769751 101.596104 
L 314.688047 102.662884 
L 314.802131 102.986773 
L 315.375185 104.06903 
L 315.311931 104.665594 
L 315.375938 105.037602 
L 315.145135 105.876168 
L 314.636465 105.971281 
L 314.415075 106.266749 
L 314.288566 106.786772 
L 314.130807 107.13261 
L 314.061904 107.466911 
L 313.577331 107.452841 
L 312.641694 107.602263 
L 312.074287 107.578626 
L 311.824282 107.777856 
L 311.492573 108.270021 
L 309.817086 109.659001 
L 308.387086 109.977544 
L 308.420973 109.662097 
L 308.604335 109.311475 
L 308.619019 108.924553 
L 308.473685 108.600382 
L 307.977439 108.207269 
L 307.631047 108.180818 
L 306.939014 108.36035 
L 306.609188 108.300975 
L 305.974385 108.107654 
L 305.079788 108.029988 
L 304.292874 108.107654 
L 303.650165 108.41888 
L 303.136976 108.311105 
L 302.453227 108.315045 
L 299.678319 107.300605 
L 298.145908 106.311209 
L 297.328119 106.067237 
L 296.777656 105.661743 
L 296.198577 105.693541 
L 295.955349 105.912187 
L 295.866492 106.709669 
L 295.852938 106.941822 
L 295.896613 107.271339 
L 295.771987 108.107654 
L 295.797214 108.480788 
L 295.751279 108.657506 
L 294.683485 110.945272 
L 294.016679 113.549329 
L 293.680452 114.382267 
L 293.484289 115.315946 
L 292.711305 116.782029 
L 292.518907 117.490027 
L 292.133357 119.99278 
L 291.831392 120.823467 
L 291.282812 121.817365 
L 290.694697 124.006079 
L 290.95901 124.440557 
L 291.213157 124.572252 
L 292.308812 124.740528 
L 293.056945 125.070889 
L 293.175547 125.284188 
L 293.189102 126.117127 
L 292.834802 127.88712 
L 292.50347 128.466237 
L 292.037722 128.552908 
L 291.685305 128.318222 
L 290.717288 127.327701 
L 290.358093 127.288305 
L 289.968025 127.392985 
L 288.207446 128.23943 
L 287.02971 127.535372 
L 286.978504 126.908981 
L 286.671269 126.131196 
L 285.821101 126.171718 
L 285.234115 126.618578 
L 282.335335 127.583773 
L 281.444503 128.052582 
L 281.110158 128.058773 
L 280.028434 128.443162 
L 279.432036 128.241681 
L 279.078113 128.248435 
L 277.910166 128.712179 
L 277.243737 128.677848 
L 277.096143 128.809543 
L 276.840867 129.314371 
L 276.658634 129.34251 
L 276.115701 129.309306 
L 275.594606 129.529359 
L 274.751967 129.462386 
L 274.448497 129.606462 
L 273.449982 130.557024 
L 272.965785 130.861497 
L 272.85509 131.190733 
L 273.041841 131.453558 
L 273.938697 132.060252 
L 274.285843 132.094583 
L 275.78211 131.817125 
L 277.623263 132.917391 
L 277.468139 133.149263 
L 276.740714 133.392953 
L 276.581825 133.71431 
L 276.76707 134.263599 
L 276.654869 134.49941 
L 276.40637 135.769641 
L 276.424442 136.15797 
L 276.718123 138.187975 
L 276.468118 139.38054 
L 276.62023 139.731162 
L 276.941019 140.170706 
L 277.203826 141.259153 
L 277.468139 141.68125 
L 279.19182 146.596992 
L 279.057028 147.295703 
L 278.682773 148.041689 
L 278.79648 148.211372 
L 279.357486 148.448309 
L 279.505832 148.788801 
L 279.574358 149.416881 
L 279.779934 149.966733 
L 279.633847 150.36463 
L 279.328871 150.49351 
L 279.177512 150.45327 
L 278.807776 150.147953 
L 278.505058 150.132195 
L 278.194811 150.293999 
L 277.626275 150.764778 
L 276.681225 151.28452 
L 276.586343 151.588148 
L 276.722641 151.864763 
L 276.969635 152.087911 
L 278.038934 152.695168 
L 277.996011 152.918035 
L 277.83637 153.027781 
L 277.468139 153.076744 
L 276.30697 153.602677 
L 275.92895 153.51488 
L 275.807713 153.596205 
L 275.656354 153.870849 
L 275.375475 154.844486 
L 275.046401 155.46328 
L 275.05845 155.873277 
L 275.501983 157.410554 
L 275.428186 157.752172 
L 275.71509 158.950364 
L 275.816749 159.109636 
L 275.89657 160.127452 
L 275.813737 160.2538 
L 275.531351 160.421232 
L 275.21282 160.212153 
L 273.708271 158.090693 
L 273.401035 157.862761 
L 271.46726 157.46402 
L 270.879898 157.589524 
L 270.1841 157.541123 
L 269.814364 157.370877 
L 269.615564 157.073158 
L 269.284985 156.19801 
L 269.053806 155.927024 
L 268.476986 155.626491 
L 268.113274 155.135733 
L 267.995801 154.709978 
L 267.976223 153.929098 
L 267.793237 153.870849 
L 267.50558 153.932194 
L 266.937797 154.250173 
L 266.661436 154.23948 
L 266.379804 154.116509 
L 265.897866 154.086118 
L 265.313516 153.82076 
L 264.308224 153.651077 
L 263.757008 153.225603 
L 263.041631 152.94927 
L 262.235891 152.920568 
L 261.540847 153.212378 
L 261.101078 153.064644 
L 260.431637 153.097567 
L 259.326192 153.116984 
L 258.580694 152.757357 
L 258.22903 152.903121 
L 257.956434 152.928447 
L 257.832937 152.731187 
L 256.860778 152.580076 
L 256.708667 152.612156 
L 256.204891 152.812792 
L 255.795244 152.525204 
L 254.770373 152.634105 
L 254.531663 152.710082 
L 253.333596 152.444161 
L 253.044433 152.042043 
L 252.795934 151.941303 
L 251.684465 151.746575 
L 251.395302 151.871798 
L 250.927672 151.902189 
L 250.012743 152.534771 
L 249.117393 152.740192 
L 248.220537 152.563755 
L 247.871885 152.841495 
L 247.720526 152.626226 
L 247.557872 152.578951 
L 247.335729 152.66534 
L 246.70921 152.453166 
L 246.048051 152.453166 
L 245.325145 152.313592 
L 244.684318 152.479617 
L 243.827372 152.249996 
L 243.183533 152.404203 
L 242.870274 153.242487 
L 242.489242 153.605209 
L 242.089384 153.714954 
L 241.47416 153.478299 
L 241.187257 153.512066 
L 238.87019 153.231794 
L 237.608115 152.504943 
L 236.56969 151.857728 
L 235.484577 151.595746 
L 234.632902 150.828374 
L 234.211959 150.25601 
L 233.201396 149.856988 
L 232.614787 149.398309 
L 232.167489 149.244666 
L 231.585398 148.74434 
L 231.861006 149.232003 
L 231.720943 149.462186 
L 230.43929 149.565459 
L 230.030396 149.232003 
L 229.809759 149.419414 
L 229.566531 150.168214 
L 229.293934 150.330018 
L 228.866215 150.344932 
L 227.271302 151.133972 
L 227.074761 151.406084 
L 226.581528 153.10826 
L 226.665867 153.837081 
L 226.003956 155.653224 
L 226.039348 156.428194 
L 226.151549 156.769248 
L 226.677163 158.096884 
L 226.471586 158.139094 
L 226.038595 157.943241 
L 225.373671 157.816612 
L 225.287826 157.676194 
L 225.192945 156.96285 
L 225.02502 156.893908 
L 224.255425 156.736606 
L 223.835235 156.486162 
L 223.511433 156.474343 
L 222.32918 156.637273 
L 221.8367 156.433259 
L 221.650702 156.244441 
L 221.225994 155.512806 
L 220.999333 155.374921 
L 219.964672 155.098307 
L 219.184535 155.051595 
L 218.322318 154.410852 
L 217.841134 154.196708 
L 216.795178 154.186578 
L 216.475141 154.313488 
L 216.240949 154.238918 
L 215.397558 153.722552 
L 214.482629 153.428773 
L 214.229612 153.529795 
L 213.47809 153.644042 
L 212.551113 154.238355 
L 212.459997 154.198396 
L 212.021734 153.893361 
L 211.90125 153.951892 
L 211.373001 153.828358 
L 210.672685 154.424922 
L 210.337588 154.278313 
L 210.213338 154.348381 
L 209.847366 154.891761 
L 209.510763 155.101965 
L 209.350368 156.05309 
L 208.721213 156.162836 
L 208.448241 156.347996 
L 208.590563 156.860703 
L 208.907964 157.234399 
L 208.823625 157.471336 
L 208.605247 157.519455 
L 208.258478 157.271262 
L 208.043112 157.570389 
L 207.927898 158.112642 
L 207.986635 158.261502 
L 207.698978 158.708925 
L 207.351456 159.151845 
L 207.391366 159.315338 
L 207.832264 159.725897 
L 208.044618 159.78274 
L 207.276529 160.388308 
L 206.832243 160.380992 
L 206.488862 160.336531 
L 205.958354 161.290752 
L 205.357814 162.308287 
L 204.976029 162.149578 
L 204.868346 161.881687 
L 204.631895 161.540914 
L 204.457193 161.464374 
L 203.589705 161.957946 
L 203.344218 162.331361 
L 202.988789 162.930458 
L 202.626582 163.184279 
L 201.948481 164.380502 
L 201.138976 164.964684 
L 200.772628 165.23567 
L 200.500785 165.612462 
L 200.198067 165.757101 
L 199.386303 165.79115 
L 198.279729 166.206775 
L 197.701404 166.806715 
L 197.123078 167.207989 
L 196.722091 167.440986 
L 196.654318 167.841134 
L 196.741669 168.231715 
L 196.6995 168.260417 
L 196.156567 168.204701 
L 195.768757 168.425317 
L 195.435166 168.36566 
L 194.859853 168.846288 
L 194.786056 169.072532 
L 194.71866 169.042141 
L 194.51346 169.06015 
L 194.083105 169.379256 
L 194.252159 169.940926 
L 194.017591 171.171761 
L 193.574058 171.507188 
L 193.286401 171.603426 
L 192.932478 171.752567 
L 192.455435 172.301293 
L 192.103394 172.553425 
L 192.004371 172.68118 
L 191.589829 173.757809 
L 190.93959 174.137696 
L 190.859769 174.393205 
L 190.792749 174.35381 
L 190.726483 174.317791 
L 190.724224 174.437666 
L 190.662476 174.92955 
L 190.584914 175.088821 
L 190.608258 175.628543 
L 190.753592 176.376499 
L 191.01414 176.676469 
L 191.035224 177.24039 
L 191.016399 177.448062 
L 191.065345 177.561747 
L 190.96444 177.685562 
L 190.79049 177.722144 
L 190.547639 177.623092 
L 190.249816 177.57638 
L 190.099964 177.744093 
L 189.955382 177.844271 
L 189.931285 177.899425 
L 187.968895 176.653957 
L 187.392076 176.060207 
L 186.837094 175.542435 
L 186.500867 175.433252 
L 186.512539 175.39048 
L 186.589348 175.280172 
L 187.019703 174.971197 
L 187.209843 174.618324 
L 187.445541 173.753869 
L 187.352918 173.264237 
L 187.293429 173.227655 
L 187.355554 173.192762 
L 187.523855 173.053188 
L 187.433492 173.00535 
L 187.422197 172.649101 
L 187.26632 172.666547 
L 187.165414 172.910801 
L 187.12701 172.853396 
L 186.997489 172.779669 
L 186.768568 172.821316 
L 186.69176 172.520783 
L 186.589348 172.116696 
L 186.155604 171.349042 
L 186.111175 171.19371 
L 186.018176 171.261246 
L 185.364172 171.667584 
L 184.732005 171.370991 
L 177.635094 171.742999 
L 177.335388 171.65464 
L 177.009327 171.206654 
L 175.921202 165.308552 
L 175.555231 162.519054 
L 173.797287 162.518772 
L 172.058169 162.456302 
L 172.042356 162.338959 
L 172.13799 157.945492 
L 172.345826 157.777497 
L 172.400797 157.396485 
L 172.732882 151.699863 
L 170.503167 152.931824 
L 168.331434 148.218126 
L 168.187229 148.078834 
L 166.686821 147.052857 
L 165.961656 146.217949 
L 164.147611 143.762751 
L 163.784276 143.776821 
L 163.652872 143.830287 
L 160.532325 145.636862 
L 151.65262 144.76087 
L 142.89453 146.290831 
L 142.746936 146.221607 
L 136.314572 138.132821 
L 136.196347 137.314516 
L 136.017879 136.761287 
L 135.829622 136.534481 
L 117.750176 123.744941 
L 117.579239 123.728057 
L 109.905885 126.143578 
L 98.959119 129.886734 
L 98.977945 169.872265 
L 98.236212 169.841874 
L 97.585596 170.19925 
L 96.908624 170.309558 
L 96.479398 170.496969 
L 95.334043 170.470517 
L 94.978614 170.208817 
L 94.85587 170.022532 
L 94.448482 169.138942 
L 93.737624 168.533373 
L 93.513221 168.22665 
L 92.248135 165.861218 
L 91.41378 164.515291 
L 91.385918 164.061396 
L 91.417545 163.687418 
L 91.172058 163.224237 
L 89.942363 161.960197 
L 85.985955 159.021277 
L 85.456576 158.80854 
L 84.906866 158.723558 
L 80.281016 159.673557 
L 77.122064 161.106154 
L 75.560284 162.556198 
L 73.180065 165.220174 
L 73.223369 164.762277 
L 73.568457 163.552044 
L 73.44572 162.892642 
L 73.127906 162.335607 
L 73.130278 161.754198 
L 72.920379 161.477675 
L 73.11249 160.901142 
L 73.170005 160.52624 
L 73.521615 160.28827 
L 74.724681 157.455235 
L 74.918571 156.62079 
L 74.824294 155.812491 
L 74.497587 155.096809 
L 74.185703 154.876565 
L 74.099134 154.401512 
L 74.176809 154.319087 
L 74.567553 155.015713 
L 74.872322 155.373776 
L 75.09823 156.024758 
L 75.167604 156.109842 
L 75.328882 155.800083 
L 75.416637 155.325916 
L 75.356157 154.846875 
L 75.185392 154.52648 
L 74.92035 154.353653 
L 74.575261 154.319087 
L 74.545022 154.047881 
L 74.17503 153.788641 
L 73.422002 153.486858 
L 72.418756 153.49838 
L 72.287124 153.631324 
L 72.173873 153.872395 
L 71.979983 153.785982 
L 71.223991 152.824797 
L 71.051447 152.808844 
L 70.416413 152.917858 
L 69.35328 153.311372 
L 68.664289 152.235412 
L 68.481072 151.875578 
L 68.329874 151.256945 
L 67.614794 150.274932 
L 67.682388 150.06045 
L 67.570323 149.636802 
L 67.448772 149.510062 
L 67.166535 149.666049 
L 66.638229 149.68865 
L 66.318044 149.886736 
L 66.058931 149.755565 
L 65.385357 149.911996 
L 64.619284 149.801652 
L 64.645374 149.551717 
L 64.984533 148.205438 
L 64.99817 146.55782 
L 64.721269 145.853217 
L 64.693994 145.511108 
L 64.070226 144.814925 
L 63.841946 144.789666 
L 63.543107 144.397481 
L 62.640066 142.151171 
L 62.583144 141.585717 
L 62.317509 141.278616 
L 62.05899 140.67771 
L 61.91372 140.535459 
L 61.69137 140.427332 
L 61.671803 140.091427 
L 61.69137 139.947847 
L 61.591757 138.642338 
L 61.405575 138.361826 
L 61.111479 138.134492 
L 60.492454 137.824733 
L 57.598337 137.149377 
L 57.278745 136.880831 
L 57.096121 136.446104 
L 57.150078 135.431742 
L 57.038013 134.879138 
L 57.150078 134.316342 
L 57.270444 134.631862 
L 57.374208 134.490055 
L 57.686685 133.490317 
L 57.896584 133.647634 
L 59.393152 133.870537 
L 59.914343 133.736706 
L 60.102303 133.94277 
L 60.741487 133.945428 
L 60.933598 134.114267 
L 61.068788 133.945428 
L 61.218207 133.796088 
L 61.779124 133.855027 
L 62.197736 134.202897 
L 62.487089 134.546335 
L 62.739679 134.539688 
L 62.76814 134.697891 
L 62.640066 134.763034 
L 62.948986 135.086087 
L 63.749448 135.424208 
L 64.182884 135.357293 
L 64.346534 135.26113 
L 64.884919 134.673961 
L 65.172493 134.669973 
L 65.48497 134.607489 
L 65.428641 134.956246 
L 65.637947 135.024933 
L 66.136606 134.911045 
L 66.787649 135.13439 
L 66.886669 134.997901 
L 66.744365 134.708527 
L 66.638229 134.607489 
L 65.732817 134.03716 
L 65.031967 134.208657 
L 64.831555 134.011457 
L 64.412943 132.872571 
L 64.169246 132.634601 
L 62.431353 131.297628 
L 62.453885 130.829222 
L 62.660226 130.60632 
L 62.557055 130.371452 
L 62.372652 130.333342 
L 62.337669 130.207045 
L 62.575436 129.927419 
L 62.911631 129.834802 
L 63.18023 129.845437 
L 64.137228 129.098292 
L 64.392783 129.369941 
L 64.693994 129.544541 
L 64.758031 129.404063 
L 64.510777 128.82753 
L 64.510184 128.58247 
L 64.574221 128.27404 
L 64.53568 127.901797 
L 64.958443 127.010629 
L 65.664036 126.016652 
L 65.734003 125.565972 
L 65.837766 125.66435 
L 66.032842 126.029503 
L 66.303814 126.167765 
L 67.025416 126.058751 
L 67.913633 125.351489 
L 68.23026 124.833008 
L 68.456169 125.24602 
L 68.479293 125.397133 
L 69.221055 125.556223 
L 69.554878 125.812361 
L 69.683545 125.765388 
L 70.055315 125.508806 
L 70.676712 125.657703 
L 72.928087 125.354148 
L 73.239378 125.450311 
L 73.774799 125.359909 
L 74.119887 125.448981 
L 75.347856 126.024629 
L 76.075981 126.146494 
L 76.619109 126.407507 
L 77.484795 126.366294 
L 78.065872 126.549757 
L 78.737667 126.236009 
L 78.866334 126.103952 
L 79.114774 126.142949 
L 79.22506 125.991393 
L 79.214387 125.880606 
L 79.080977 125.786659 
L 78.25739 125.56996 
L 78.09374 125.3896 
L 77.536973 125.252224 
L 75.371574 124.088965 
L 75.368609 123.856313 
L 75.343706 123.683486 
L 75.384618 123.410951 
L 75.423752 122.852143 
L 75.644324 122.676657 
L 75.848294 122.399247 
L 75.968066 122.000415 
L 76.448344 121.278087 
L 76.693819 121.142484 
L 77.040094 120.579688 
L 77.293277 119.945102 
L 77.603382 119.520568 
L 78.139989 117.677079 
L 78.20699 116.925945 
L 78.419261 115.956784 
L 78.419261 115.200776 
L 78.211734 114.631776 
L 77.514442 113.793786 
L 77.883248 114.019791 
L 78.020809 114.091581 
L 77.890363 113.910777 
L 77.823954 113.539863 
L 77.872575 113.341334 
L 77.265409 113.644889 
L 77.252364 113.424645 
L 77.568992 112.671739 
L 77.672163 112.980169 
L 77.917638 112.895085 
L 78.314904 112.003031 
L 78.767907 111.779685 
L 78.791032 111.352935 
L 78.648134 111.102558 
L 78.001835 110.741836 
L 78.020809 110.393523 
L 77.717226 109.204118 
L 77.65556 109.137646 
L 77.220346 109.169996 
L 76.693819 108.494641 
L 76.366519 108.502174 
L 75.69413 108.643095 
L 75.290934 108.575737 
L 74.292431 108.527877 
L 74.155463 108.442793 
L 73.775392 108.094479 
L 73.173562 108.041302 
L 73.075728 108.25933 
L 73.046081 108.641322 
L 72.593672 109.189938 
L 71.703676 109.459371 
L 71.366888 109.297179 
L 71.323604 109.535592 
L 71.759412 109.978738 
L 71.732137 110.135169 
L 70.631649 109.981397 
L 70.489344 109.802366 
L 70.482229 109.649924 
L 70.441909 109.664547 
L 69.991278 109.223173 
L 70.017368 109.015781 
L 70.154929 108.834977 
L 70.128839 108.717543 
L 69.984163 108.674115 
L 69.564365 109.338835 
L 69.092981 109.262614 
L 68.926367 109.169996 
L 69.229949 108.784902 
L 69.073415 108.73261 
L 68.42415 109.021099 
L 68.125311 108.82833 
L 67.629024 108.264648 
L 67.761842 107.576884 
L 67.661043 107.410261 
L 67.479604 107.379241 
L 67.3373 107.50022 
L 67.020672 108.170257 
L 66.367258 107.363288 
L 65.487342 107.12 
L 64.552876 106.909949 
L 64.254036 106.714521 
L 64.067855 106.758393 
L 63.453574 107.155009 
L 62.354864 107.462996 
L 62.016298 107.825046 
L 61.543729 107.710271 
L 61.525941 107.923425 
L 60.815011 109.053448 
L 60.766391 108.739701 
L 60.940714 108.379866 
L 60.899208 108.30719 
L 60.807303 108.366571 
L 60.360823 108.764517 
L 60.017513 108.751223 
L 59.90782 108.73261 
L 59.684877 109.804139 
L 59.565697 109.893211 
L 59.438215 109.8325 
L 59.631512 109.356117 
L 59.466083 109.312246 
L 58.961495 109.425248 
L 58.553556 109.156258 
L 58.448606 109.312246 
L 58.09581 110.137385 
L 58.1302 109.999123 
L 58.146209 109.616688 
L 58.048375 109.703101 
L 57.845591 110.089525 
L 57.562761 110.232218 
L 57.10205 111.015258 
L 56.972197 110.887632 
L 56.972197 110.58319 
L 56.649048 110.763994 
L 55.789292 111.847487 
L 55.522471 112.07039 
L 55.147143 112.07039 
L 54.461116 112.65357 
L 54.251217 112.597291 
L 54.147454 112.698328 
L 54.088753 113.036449 
L 53.902571 112.962 
L 53.677256 112.786514 
L 53.652353 113.131725 
L 53.578236 113.081207 
L 53.252714 112.820636 
L 53.252714 113.266885 
L 52.669266 112.57469 
L 52.700098 113.266885 
L 52.563723 113.182687 
L 52.351452 113.489345 
L 52.197882 113.102478 
L 51.636372 112.816648 
L 51.55099 112.448837 
L 51.552176 112.794491 
L 51.675506 113.099376 
L 51.805952 113.489345 
L 51.724127 113.481368 
L 51.466793 113.288599 
L 51.472129 113.076332 
L 51.258673 112.879132 
L 51.220132 112.926548 
L 51.20353 113.043982 
L 50.711393 112.893756 
L 50.358004 112.522842 
L 50.41374 112.800695 
L 50.891646 113.365707 
L 51.005489 113.71269 
L 50.592806 113.637355 
L 50.561381 113.644889 
L 50.159371 113.199527 
L 50.280329 113.389637 
L 50.344959 113.842089 
L 50.533513 113.942683 
L 50.835317 114.338413 
L 50.806263 114.68584 
L 50.258984 114.158496 
L 49.95718 113.810183 
L 49.760918 113.793786 
L 49.842743 113.860701 
L 49.945914 114.029983 
L 49.993942 114.302961 
L 50.258984 114.604744 
L 50.230523 114.623356 
L 50.159371 114.68584 
L 50.055607 114.607846 
L 49.358908 114.46338 
L 49.433025 114.644184 
L 49.705775 114.78023 
L 49.788104 115.351312 
L 47.840952 114.073011 
L 47.383111 113.670893 
L 46.819093 113.702691 
L 45.69407 112.853994 
L 44.777258 112.736651 
L 44.949325 112.482268 
L 44.795707 112.243361 
L 44.709109 111.971812 
L 44.163164 111.725588 
L 44.337866 111.478802 
L 44.532148 110.943583 
L 44.90339 110.626166 
L 45.351442 110.531617 
L 45.927508 110.807668 
L 46.413964 111.485556 
L 47.527692 111.270568 
L 47.755107 111.081468 
L 48.179062 110.545968 
L 45.927508 106.931692 
L 44.565281 103.485129 
L 44.035149 103.357093 
L 43.842374 103.176717 
L 43.47452 102.661196 
L 42.117564 100.267906 
L 41.666877 99.879577 
L 41.171384 99.64883 
L 38.295194 99.693573 
L 36.56436 98.92817 
L 36.394175 99.189026 
L 36.351253 100.349511 
L 36.181822 100.589262 
L 34.585403 99.398667 
L 34.431785 99.103481 
L 34.66673 98.675193 
L 34.693086 98.475401 
L 34.447598 98.061464 
L 33.883581 97.290715 
L 34.96041 96.358725 
L 34.828631 96.223654 
L 34.431785 96.179193 
L 34.315819 96.038494 
L 34.309041 95.177135 
L 34.109489 94.906711 
L 34.376061 94.40723 
L 34.131703 94.141871 
L 33.409926 93.939265 
L 29.76 92.669316 
L 29.76753 92.655246 
L 31.943781 86.946524 
L 33.409926 85.734825 
L 33.713396 85.195103 
L 33.852706 84.612609 
L 33.769873 84.055441 
L 33.409926 83.589446 
L 32.327825 82.782959 
L 31.922696 82.628191 
L 32.997267 76.869099 
L 33.25932 76.620906 
L 34.85348 75.934295 
L 35.810579 74.871173 
L 35.95516 74.564449 
L 35.948383 74.168804 
L 35.550784 73.633585 
L 35.574128 73.182222 
L 35.909602 72.773632 
L 35.788365 72.147803 
L 35.913744 72.043123 
L 36.521437 71.718953 
L 36.984173 70.874759 
L 37.618975 70.43015 
L 37.927717 70.429024 
L 38.112585 70.558467 
L 38.588499 71.151654 
L 39.019231 71.435866 
L 39.360729 71.821944 
L 39.449963 71.874847 
L 40.849841 73.510895 
L 41.027556 73.929615 
L 41.390515 74.212702 
L 41.619436 74.807577 
L 41.810705 75.536398 
L 42.019294 75.942174 
L 42.449273 76.431806 
L 42.590842 76.831954 
L 43.121726 76.844899 
L 43.466613 77.167381 
L 43.979425 77.431895 
L 44.241479 77.14712 
L 44.337866 77.067203 
L 45.827356 76.497654 
L 46.563817 76.084561 
L 47.300278 75.142441 
L 47.215939 74.59878 
L 47.053661 74.299935 
L 46.551015 74.145166 
L 46.464417 73.060658 
L 46.157935 72.468597 
L 45.956876 71.715013 
L 45.761089 70.148189 
L 45.753559 69.04736 
L 45.572079 68.807609 
L 45.021616 68.641021 
L 44.987729 68.426596 
L 45.10219 68.284209 
L 45.282916 68.302781 
L 46.575865 68.926922 
L 46.897785 68.867828 
L 48.225749 67.91614 
L 49.182848 66.845702 
L 50.824825 66.354944 
L 51.109093 66.120821 
L 51.220541 65.752752 
L 51.087632 65.410009 
L 50.664053 64.857344 
L 50.926107 64.257122 
L 51.485607 63.203286 
L 52.065815 63.370718 
L 53.932194 63.275043 
L 54.274069 62.827339 
L 55.628766 61.821903 
L 56.930751 61.572022 
L 57.913076 61.06241 
L 57.950728 60.817313 
L 57.878813 60.416602 
L 58.074601 60.036715 
L 58.096438 59.905583 
L 58.851349 59.718735 
L 58.908956 59.526821 
L 59.195859 59.461256 
L 59.290741 59.102473 
L 59.247065 58.308649 
L 59.627721 57.788344 
L 59.657465 57.549438 
L 59.789622 57.555628 
L 60.076902 57.757672 
L 60.477136 57.812263 
L 60.218471 58.193276 
L 60.307328 58.287545 
L 60.665017 58.28867 
L 60.988065 58.166262 
L 61.180088 57.963374 
L 61.20795 57.651022 
L 60.841225 56.383324 
L 61.007644 56.197883 
L 61.534011 56.348994 
L 61.784769 56.606473 
L 61.982062 56.984953 
L 62.162036 57.065996 
L 64.091293 57.126778 
L 64.409071 57.002963 
L 64.540098 57.078659 
L 64.80667 57.466988 
L 64.952757 57.530302 
L 65.415116 57.611627 
L 65.482136 58.074808 
L 65.320611 58.353392 
L 65.176406 58.423741 
L 64.42865 58.631976 
L 64.694469 59.103599 
L 64.921883 59.331813 
L 65.470087 59.381339 
L 66.070251 59.292135 
L 66.581933 58.931383 
L 66.784121 58.646327 
L 67.149339 58.720897 
L 67.244221 58.976688 
L 67.254763 59.229665 
L 67.421936 59.554117 
L 67.756656 59.522882 
L 68.405013 59.100785 
L 68.409908 58.698104 
L 68.276999 58.006709 
L 69.238992 57.065433 
L 69.64525 57.161108 
L 70.0244 57.336419 
L 70.471698 57.351896 
L 70.800019 57.168143 
L 71.069602 56.669787 
L 71.259742 56.569891 
L 71.87233 56.581147 
L 72.028207 56.459864 
L 72.233784 56.032984 
L 72.431077 56.150889 
L 73.562878 59.103599 
L 73.968007 59.463788 
L 74.025237 59.480672 
L 74.181114 59.380776 
L 75.035424 59.366706 
L 75.247778 59.184641 
L 75.509078 59.045349 
L 75.672485 58.934479 
L 75.970684 59.164381 
L 76.523407 59.183234 
L 76.423254 59.380776 
L 77.082153 59.419327 
L 77.268904 59.23867 
L 77.547525 59.134834 
L 78.422543 59.164381 
L 78.393928 58.884952 
L 78.665018 58.886922 
L 78.884149 59.061389 
L 78.969241 59.015521 
L 79.625882 59.073771 
L 79.800584 58.989914 
L 81.779541 60.415476 
L 81.71704 60.502991 
L 81.462517 60.62146 
L 81.599568 60.775103 
L 81.605592 61.316231 
L 81.958762 61.686551 
L 82.008462 61.88353 
L 82.186929 62.073755 
L 83.526566 62.457863 
L 84.095855 62.446888 
L 84.51981 62.797792 
L 84.853401 63.266319 
L 85.376002 63.422777 
L 85.649351 64.363209 
L 85.622242 64.548369 
L 85.976919 64.923754 
L 86.36774 65.219784 
L 86.572564 65.51075 
L 86.749525 65.614867 
L 87.416708 65.769636 
L 87.620778 65.944103 
L 88.103469 66.155151 
L 88.050004 66.475382 
L 87.582374 67.20758 
L 87.529662 67.900945 
L 87.33011 68.612882 
L 87.473938 69.056928 
L 88.050004 69.630979 
L 88.202116 69.660245 
L 88.872311 69.452573 
L 89.281205 69.116021 
L 89.490547 68.796916 
L 89.470968 68.450796 
L 89.216444 67.430447 
L 89.265391 66.726389 
L 89.130599 66.520406 
L 89.213432 65.712794 
L 88.227719 65.249613 
L 88.321847 65.151686 
L 88.540978 64.977219 
L 88.452121 64.432996 
L 88.589925 64.357581 
L 89.388135 64.164542 
L 89.713443 64.29089 
L 90.000346 64.544992 
L 90.619335 64.911372 
L 91.078682 65.422391 
L 92.196929 65.729115 
L 92.309883 65.969429 
L 92.296328 66.399405 
L 92.461242 66.68024 
L 94.382969 68.265074 
L 95.257234 68.204292 
L 95.533595 68.495257 
L 95.66914 68.817176 
L 96.120204 69.059742 
L 96.3431 69.369842 
L 96.657866 69.586519 
L 96.907871 69.491406 
L 97.422189 68.968006 
L 98.642094 68.317976 
L 99.864258 67.214333 
L 100.288966 65.497243 
L 100.409451 65.462912 
L 101.237781 65.771887 
L 101.581162 65.602486 
L 101.794269 64.92713 
L 102.164759 64.87479 
L 102.282231 64.579323 
L 102.203916 64.103197 
L 102.388408 63.85219 
L 102.62034 63.67294 
L 102.836459 63.746666 
L 103.627892 64.704263 
L 104.289803 64.790371 
L 104.255164 64.48815 
L 104.091757 63.926198 
L 104.352304 63.67913 
L 104.673094 63.59443 
L 105.628687 63.85219 
L 105.991646 63.724154 
L 106.948745 63.708958 
L 107.546649 63.379723 
L 107.646801 63.446977 
L 107.804937 64.088846 
L 107.977381 64.358144 
L 108.288381 64.402605 
L 108.523326 64.672747 
L 108.990956 65.70998 
L 109.649102 66.017266 
L 110.00152 65.918214 
L 110.471409 65.353167 
L 110.76509 65.386372 
L 111.442815 65.592918 
L 111.684537 65.462349 
L 111.797491 64.785306 
L 111.771888 63.663653 
L 112.022646 63.165016 
L 112.222199 63.125902 
L 112.67025 63.342297 
L 113.226738 63.445007 
L 113.417254 63.624539 
L 113.719218 63.490594 
L 114.354021 63.467238 
L 114.369834 63.639453 
L 114.731288 63.851346 
L 114.928581 63.867386 
L 115.095753 63.754545 
L 115.494105 63.044578 
L 116.063394 62.922451 
L 116.373641 63.282078 
L 116.460993 63.698828 
L 116.60708 63.774524 
L 117.499418 63.793659 
L 117.812678 63.931826 
L 118.042351 64.213787 
L 118.05214 64.877042 
L 117.715537 65.630625 
L 117.870661 65.954796 
L 118.451998 66.06623 
L 118.418865 66.632402 
L 118.547633 66.756217 
L 118.94975 66.717385 
L 119.155326 66.699938 
L 119.305932 66.835009 
L 119.619944 67.458024 
L 120.453546 67.973545 
L 122.591392 68.189096 
L 122.984473 68.650589 
L 123.111735 68.656217 
L 124.181787 68.48569 
L 125.098222 69.043983 
L 125.076384 69.327632 
L 124.893399 69.406424 
L 124.476974 69.342828 
L 124.284199 69.507727 
L 124.277422 69.670938 
L 124.390376 69.833586 
L 124.802282 70.189836 
L 125.037227 70.08403 
L 125.526695 69.65124 
L 126.637411 69.54656 
L 126.936363 69.22858 
L 127.346763 68.432787 
L 127.660776 68.02082 
L 127.65174 67.452396 
L 127.697674 67.048871 
L 128.11937 66.169784 
L 128.434136 66.057788 
L 128.885952 66.02402 
L 129.271503 66.161905 
L 129.566689 67.276241 
L 130.067453 67.714096 
L 130.468064 67.902633 
L 133.514062 68.251004 
L 134.241486 68.13957 
L 138.27621 66.83726 
L 138.508895 66.618332 
L 138.78375 65.829855 
L 138.956194 64.548369 
L 139.456957 62.224021 
L 139.698679 61.921237 
L 140.400501 61.65419 
L 140.273737 61.601958 
L 139.667052 61.249821 
L 139.490091 60.948725 
L 139.017189 59.831013 
L 138.433593 59.569312 
L 138.057832 59.475607 
L 137.688848 59.512751 
L 137.262634 59.343631 
L 136.596205 59.358545 
L 136.158695 59.23867 
L 135.734741 59.180702 
L 135.108975 58.403481 
L 135.080359 57.950993 
L 135.108975 57.812263 
L 131.921408 57.638641 
L 131.810712 57.378066 
L 130.866416 57.156043 
L 130.986147 56.788537 
L 131.493688 56.450297 
L 131.527574 56.190848 
L 131.774567 55.927178 
L 131.572756 55.69615 
L 130.279054 55.39815 
L 129.285057 54.787798 
L 128.951466 55.159243 
L 128.571187 54.980274 
L 128.186389 53.916871 
L 128.302356 53.658266 
L 129.756452 53.656578 
L 131.381487 52.166294 
L 131.969601 51.92598 
L 133.176705 52.005615 
L 133.545689 51.73069 
L 133.971149 51.174929 
L 134.812282 50.803765 
L 135.316057 50.314976 
L 135.855978 49.92918 
L 135.243767 49.00535 
L 135.102197 48.25655 
L 135.011081 48.20027 
L 134.216637 47.893546 
L 134.180491 47.713733 
L 134.130791 46.74094 
L 133.409391 46.529329 
L 133.186494 46.020843 
L 133.351407 45.573701 
L 134.016331 45.323257 
L 134.42146 45.038764 
L 134.726436 44.589934 
L 135.99077 43.53441 
L 135.380065 43.000035 
L 135.386089 42.996658 
L 136.210654 42.925746 
L 136.951634 42.543608 
L 138.110544 42.851176 
L 138.309343 42.766756 
L 138.831191 42.45356 
L 139.314635 42.767882 
L 139.9773 43.249635 
L 140.485593 42.974147 
L 140.795088 43.014105 
L 141.538326 42.923776 
L 141.805651 43.011854 
L 142.286836 43.360225 
L 142.554161 43.395399 
L 143.380609 43.018045 
L 143.537239 42.766756 
L 143.696504 41.983344 
L 143.638145 41.722207 
L 143.457418 41.452909 
L 143.220214 41.327968 
L 141.133197 40.84115 
L 140.250649 40.036633 
L 139.312376 40.414269 
L 139.048063 40.343919 
L 138.07741 39.745104 
L 137.043503 39.676162 
L 136.605241 39.168801 
L 136.564577 38.623171 
L 137.279201 37.208301 
L 137.660986 37.206613 
L 137.957679 37.560049 
L 138.345488 37.937122 
L 138.569138 37.941062 
L 139.124119 37.466625 
L 139.611328 37.179036 
L 139.330449 36.307828 
L 139.230296 36.272372 
L 138.197142 36.342158 
L 137.868069 36.74906 
L 137.610533 36.779451 
L 136.399664 36.411382 
L 136.267131 36.160938 
L 135.904925 36.060198 
L 134.889843 36.003918 
L 134.69255 35.795121 
L 134.871018 35.530606 
L 135.62028 35.763041 
L 135.892123 35.425926 
L 135.945588 35.027467 
L 136.407948 34.805725 
L 136.670754 34.352674 
L 137.015641 34.005429 
L 137.036726 33.760613 
L 136.602982 33.518048 
L 136.04047 33.119588 
L 135.404914 33.074565 
L 135.359733 32.712687 
L 135.536694 32.434103 
L 136.029928 32.282711 
L 136.623314 32.33899 
L 137.100733 32.801609 
L 137.244562 32.416093 
L 136.974978 31.597225 
L 137.56761 31.485229 
L 137.834935 31.144174 
L 138.025451 31.108155 
L 138.721249 31.279245 
L 139.051828 31.764376 
L 139.592502 31.877498 
L 139.673829 32.321544 
L 139.940401 32.337865 
L 140.056368 32.07729 
L 140.081971 31.876935 
L 140.873403 31.956289 
L 141.066178 31.978238 
L 141.330491 31.78745 
L 141.543598 31.876935 
L 141.657305 32.328297 
L 142.061681 32.490382 
L 142.877586 32.536532 
L 142.870056 31.606793 
L 146.009429 31.527438 
L 146.101675 31.637747 
L 146.084732 31.879749 
L 145.667931 32.217426 
L 145.824938 32.615886 
L 146.331725 32.937805 
L 146.578718 33.183184 
L 146.794461 33.139286 
L 146.822699 33.062746 
L 146.812157 32.416656 
L 147.124664 32.124565 
L 146.954479 31.877498 
L 146.86261 31.503801 
L 147.084 31.212273 
L 147.734616 30.949447 
L 148.367913 30.912865 
L 148.90821 30.786236 
L 149.425917 30.941568 
L 150.031351 30.784548 
L 150.954563 30.775543 
L 151.050198 30.436177 
L 150.93875 30.075425 
L 151.038902 29.899832 
L 151.279118 29.835111 
L 151.712862 29.849744 
L 152.820566 30.022522 
L 153.028026 29.938103 
L 153.616517 29.574536 
L 154.107491 29.547522 
L 155.300287 29.068583 
L 155.772812 29.185644 
L 156.676069 29.681468 
L 156.752878 29.536266 
L 157.480303 29.30552 
L 157.608318 29.016243 
L 157.279997 28.48834 
L 157.455829 28.313873 
L 157.773231 28.499596 
L 157.918565 28.445005 
L 158.21074 28.259282 
L 158.709997 28.305431 
L 159.671237 27.964377 
L 159.855353 28.042606 
L 160.733007 27.856883 
L 160.91298 27.756705 
L 161.33204 27.781468 
L 161.638146 27.596871 
L 162.40887 28.135467 
L 162.670171 28.16023 
L 163.139307 27.949181 
L 164.058001 27.410023 
L 164.546716 27.585615 
L 165.439054 28.469205 
L 166.051266 28.415177 
L 166.260608 28.060052 
L 166.030181 26.904632 
L 166.162338 26.483661 
L 166.152925 26.174686 
L 166.270397 26.046931 
L 167.407469 25.67042 
L 167.980523 25.734016 
L 168.032859 25.502707 
L 167.986171 24.962423 
L 168.187229 24.905581 
L 168.895452 24.984372 
L 170.129665 25.252263 
L 170.525757 24.737305 
L 170.970797 24.327589 
L 171.505447 24.14468 
L 171.64438 24.241481 
L 171.830755 25.134076 
L 175.710354 23.990474 
L 177.097432 23.962897 
L 177.691194 23.538549 
L 179.340702 23.432743 
L 179.998848 23.170481 
L 180.835462 23.114201 
L 181.549332 22.430967 
L 182.034659 22.549154 
L 182.50869 22.462483 
L 183.818205 22.496814 
L 184.370175 22.343733 
L 184.803166 22.017874 
L 185.236157 21.426376 
L 185.709058 21.227146 
L 185.934214 21.241216 
L 186.637542 21.525991 
L 187.904888 21.263165 
L 187.957976 20.986269 
L 188.183131 20.820807 
L 188.277636 20.485944 
L 188.618758 20.391957 
L 188.783671 20.3323 
L 188.812286 20.112247 
L 187.95534 19.539883 
L 188.075072 19.226406 
L 187.857447 19.048 
L 188.478695 18.791928 
L 188.940301 18.923622 
L 189.490011 18.784611 
L 190.044993 18.914054 
L 190.699374 18.753657 
L 190.977241 18.775044 
L 191.07137 18.55893 
L 191.038236 18.257834 
L 191.156462 18.129517 
L 191.495324 17.929724 
L 191.527705 17.531265 
L 191.586441 17.166573 
L 191.671533 16.979162 
L 191.916648 17.074825 
L 192.731043 17.237485 
L 192.882402 17.358486 
L 193.290543 17.895394 
L 193.456962 17.960678 
L 193.713744 17.731057 
L 193.687388 17.129428 
L 193.254397 16.865477 
L 193.205451 16.250904 
L 193.438889 16.172675 
L 194.746146 16.57226 
L 194.929884 16.786123 
L 195.051875 17.121549 
M 148.771159 118.253178 
L 148.684561 119.158154 
L 148.771159 120.063693 
L 149.018529 120.906761 
L 149.41048 121.669912 
L 149.929316 122.334856 
L 150.558471 122.883301 
L 151.280248 123.297519 
L 152.077704 123.559219 
L 152.934274 123.650673 
L 153.790843 123.559219 
L 154.588299 123.297519 
L 155.3097 122.883301 
L 155.939231 122.334856 
L 156.458067 121.669912 
L 156.849642 120.906761 
L 157.097388 120.063693 
L 157.18361 119.158154 
L 157.097388 118.253178 
L 156.849642 117.409547 
L 156.458067 116.646395 
L 155.939231 115.981452 
L 155.3097 115.433007 
L 154.588299 115.018789 
L 153.790843 114.757089 
L 152.934274 114.665635 
L 152.077704 114.757089 
L 151.280248 115.018789 
L 150.558471 115.433007 
L 149.929316 115.981452 
L 149.41048 116.646395 
L 149.018529 117.409547 
L 148.771159 118.253178 
L 148.771159 118.253178 
" clip-path="url(#p32a03d07be)" style="fill: none; stroke: #000000; stroke-width: 2"/>
   </g>
  </g>
 </g>
 <defs>
  <clipPath id="p32a03d07be">
   <rect x="0" y="-0" width="357.12" height="194.0721"/>
  </clipPath>
 </defs>
</svg>
