<?xml version="1.0" encoding="utf-8" standalone="no"?>
<!DOCTYPE svg PUBLIC "-//W3C//DTD SVG 1.1//EN"
  "http://www.w3.org/Graphics/SVG/1.1/DTD/svg11.dtd">
<svg xmlns:xlink="http://www.w3.org/1999/xlink" width="219.145252pt" height="266.112pt" viewBox="0 0 219.145252 266.112" xmlns="http://www.w3.org/2000/svg" version="1.1">
 <metadata>
  <rdf:RDF xmlns:dc="http://purl.org/dc/elements/1.1/" xmlns:cc="http://creativecommons.org/ns#" xmlns:rdf="http://www.w3.org/1999/02/22-rdf-syntax-ns#">
   <cc:Work>
    <dc:type rdf:resource="http://purl.org/dc/dcmitype/StillImage"/>
    <dc:date>2024-02-02T21:58:02.704962</dc:date>
    <dc:format>image/svg+xml</dc:format>
    <dc:creator>
     <cc:Agent>
      <dc:title>Matplotlib v3.8.2, https://matplotlib.org/</dc:title>
     </cc:Agent>
    </dc:creator>
   </cc:Work>
  </rdf:RDF>
 </metadata>
 <defs>
  <style type="text/css">*{stroke-linejoin: round; stroke-linecap: butt}</style>
 </defs>
 <g id="figure_1">
  <g id="patch_1">
   <path d="M 0 266.112 
L 219.145252 266.112 
L 219.145252 0 
L 0 0 
L 0 266.112 
z
" style="fill: none"/>
  </g>
  <g id="axes_1">
   <g id="PatchCollection_1">
    <path d="M 184.384697 184.849786 
L 184.21367 185.333124 
L 183.79354 185.411202 
L 183.484949 184.912992 
L 183.505397 185.163956 
L 183.471936 185.420497 
L 183.382704 185.611973 
L 183.237704 185.69005 
L 183.17078 185.719794 
L 183.128024 185.777423 
L 183.0611 185.835052 
L 182.925394 185.864796 
L 182.767381 185.810885 
L 182.64097 185.704922 
L 182.559175 185.59896 
L 182.535008 185.548767 
L 182.233853 185.593383 
L 181.826735 185.730948 
L 180.975321 186.173389 
L 180.767115 186.020951 
L 180.566344 186.058131 
L 180.413908 186.251466 
L 180.350702 186.563777 
L 180.473395 186.74224 
L 180.718781 186.887242 
L 180.893525 187.048974 
L 180.806153 187.281348 
L 180.521729 187.27763 
L 180.343266 187.143783 
L 180.242881 186.920703 
L 180.198266 186.641855 
L 179.690763 186.747817 
L 179.692622 186.229158 
L 179.964034 185.509728 
L 180.276343 184.996646 
L 180.692755 184.764272 
L 181.230001 184.604399 
L 181.698465 184.366448 
L 181.899236 183.905418 
L 182.166929 183.602402 
L 182.785971 183.641441 
L 183.470077 183.86452 
L 183.9404 184.132215 
L 184.384697 184.849786 
" clip-path="url(#p4df024bb03)" style="fill: none; stroke: #000000; stroke-width: 2"/>
    <path d="M 53.514773 22.782252 
L 52.65592 24.550489 
L 54.929355 24.550489 
L 56.647062 25.055699 
L 55.535605 27.884877 
L 57.590576 31.561819 
L 59.605914 32.255955 
L 59.860695 30.599873 
L 60.497646 30.154005 
L 61.389378 30.2177 
L 61.452938 31.552119 
L 64.642164 31.565607 
L 64.687022 31.95988 
L 64.989218 32.49758 
L 64.944361 33.39591 
L 64.937278 33.784872 
L 65.090737 34.107728 
L 65.499174 34.363297 
L 66.870863 35.453452 
L 67.485898 35.577239 
L 72.071945 35.502441 
L 72.782579 35.743255 
L 80.800227 35.628751 
L 81.32907 35.877237 
L 85.732166 35.839463 
L 87.09441 36.215439 
L 88.718716 37.034088 
L 89.651275 37.247752 
L 89.8732 37.414787 
L 90.399683 38.130146 
L 91.027685 38.150214 
L 91.268498 38.575179 
L 91.459731 39.205545 
L 91.849281 39.264568 
L 111.605369 51.962188 
L 112.030333 52.385383 
L 112.962892 53.732878 
L 113.255644 53.894601 
L 113.937947 54.104133 
L 114.46443 54.561561 
L 114.743017 54.608189 
L 115.463095 54.429349 
L 116.17845 54.372687 
L 121.044284 54.921601 
L 122.323896 54.812409 
L 123.516156 54.172599 
L 123.544487 53.778916 
L 123.884457 53.742322 
L 124.500655 54.318386 
L 124.635227 54.632979 
L 125.376552 54.729186 
L 125.742493 54.679017 
L 125.886508 54.880875 
L 127.220422 54.977083 
L 127.236948 54.349078 
L 128.212004 55.525997 
L 128.629885 55.755006 
L 132.586768 56.824503 
L 133.181718 56.815059 
L 134.140247 56.630317 
L 135.219182 56.804435 
L 136.751412 56.580738 
L 139.102878 57.660269 
L 139.99294 57.849733 
L 140.864116 57.827304 
L 141.895833 57.233533 
L 142.195669 57.251239 
L 142.30191 57.487922 
L 142.091789 57.909346 
L 144.943767 57.994339 
L 145.647318 58.231021 
L 145.966041 58.796462 
L 146.138387 59.101611 
L 146.501967 59.343015 
L 147.231488 59.30465 
L 147.616316 58.703796 
L 148.114468 57.182773 
L 148.704695 56.474497 
L 152.000524 53.466684 
L 152.437293 52.8918 
L 152.815038 52.187656 
L 153.901056 49.309103 
L 154.361434 48.744844 
L 161.637755 45.136177 
L 161.642477 44.903036 
L 162.062719 44.978585 
L 166.300551 43.430412 
L 166.564973 42.940521 
L 173.82949 40.150503 
L 175.269645 39.204364 
L 175.772518 39.868963 
L 177.148928 40.802117 
L 177.710825 41.441927 
L 178.329383 42.379802 
L 178.744903 42.591695 
L 180.203945 43.183105 
L 180.801255 43.7332 
L 182.26738 45.783659 
L 183.28257 46.573387 
L 184.389837 47.022552 
L 185.584457 47.161256 
L 190.478622 46.880897 
L 191.626023 46.559812 
L 192.230416 46.526759 
L 194.060121 46.075233 
L 194.423701 46.100022 
L 195.353899 46.411074 
L 195.684426 46.336705 
L 196.652399 45.783659 
L 197.738417 46.137797 
L 198.744164 46.669004 
L 199.761716 46.867912 
L 200.883148 46.233414 
L 188.495458 63.961565 
L 180.203945 72.168124 
L 179.875779 72.802031 
L 179.946606 91.464516 
L 180.041042 144.585814 
L 180.203945 156.978285 
L 192.886749 173.516532 
L 192.969381 173.94858 
L 192.876534 175.848545 
L 191.136525 177.62946 
L 190.314854 178.884279 
L 190.207033 179.283963 
L 189.712544 179.588837 
L 188.413114 180.771157 
L 187.598879 181.771295 
L 187.124838 182.053861 
L 186.77349 181.622575 
L 186.347783 181.79732 
L 185.953679 181.756423 
L 185.691562 181.494305 
L 185.669254 181.001672 
L 185.211944 181.473856 
L 185.122713 182.0204 
L 184.910789 182.548353 
L 184.25085 182.487007 
L 183.159626 182.262069 
L 182.87892 182.436814 
L 182.425328 182.935024 
L 181.808145 183.195283 
L 181.321092 183.760416 
L 180.962308 183.741826 
L 180.443651 183.433234 
L 180.198266 182.88669 
L 180.214996 182.548353 
L 180.425062 181.637447 
L 180.369292 181.321418 
L 180.462241 181.038852 
L 180.806153 180.529488 
L 179.997495 181.150391 
L 179.904546 183.836635 
L 179.417492 184.444526 
L 178.993644 184.126638 
L 178.569796 182.72124 
L 177.491585 181.938604 
L 177.220174 182.262069 
L 177.435816 182.90528 
L 177.376328 183.195283 
L 177.748125 183.03355 
L 178.041845 183.111628 
L 178.240756 183.368169 
L 178.261205 183.894264 
L 177.997229 184.147087 
L 178.073447 184.366448 
L 178.480565 184.608117 
L 178.519603 186.273774 
L 178.655309 187.158654 
L 178.949029 187.734942 
L 179.402621 187.760968 
L 179.681468 187.773981 
L 179.969611 187.974752 
L 180.192689 188.303794 
L 180.22615 188.552899 
L 179.969611 189.145917 
L 179.406339 189.839321 
L 178.898836 189.939707 
L 178.826336 189.681307 
L 179.573647 189.30765 
L 178.863515 188.954441 
L 178.224025 188.188536 
L 178.238897 187.985906 
L 177.997229 187.891097 
L 178.026973 187.943149 
L 176.967352 188.370718 
L 175.976514 189.408035 
L 175.502473 189.151494 
L 175.576832 189.553037 
L 175.699525 189.724064 
L 175.996963 189.854193 
L 175.79991 190.250159 
L 175.948629 190.584777 
L 176.595555 191.014205 
L 176.75171 191.333951 
L 176.484016 191.861905 
L 175.853821 192.48095 
L 175.14183 192.994032 
L 174.08221 193.430895 
L 172.684254 195.092834 
L 171.892327 195.393991 
L 171.19149 195.241553 
L 170.511102 194.93482 
L 169.78424 194.76751 
L 169.036928 194.845588 
L 166.728071 195.572454 
L 165.779989 196.252845 
L 165.203704 196.435026 
L 164.532611 196.8533 
L 163.12536 198.056068 
L 162.92459 198.375815 
L 162.502601 199.331337 
L 161.820354 200.193909 
L 161.766443 200.755325 
L 162.132663 201.357638 
L 161.537788 204.114524 
L 162.021124 204.480746 
L 161.902149 205.079341 
L 162.179138 205.343318 
L 162.649461 205.296843 
L 163.12536 204.945494 
L 163.14395 205.202035 
L 162.965488 205.473447 
L 162.166125 206.233775 
L 161.565673 207.146541 
L 161.322146 208.704376 
L 160.545091 209.808618 
L 160.52836 210.115351 
L 160.775605 210.946321 
L 160.771887 211.370171 
L 160.427975 212.050563 
L 159.836818 212.552491 
L 158.431427 213.25519 
L 157.574435 214.141929 
L 157.171036 214.206994 
L 157.349498 213.818464 
L 157.6395 212.630568 
L 157.228665 212.730954 
L 157.048343 212.954033 
L 156.901483 214.474689 
L 157.027894 214.734948 
L 156.626354 215.393031 
L 156.161608 216.61253 
L 155.551861 217.59036 
L 155.313911 218.904667 
L 155.051795 219.438198 
L 154.562882 219.739355 
L 153.958712 219.456788 
L 153.551595 219.088708 
L 152.943707 219.038515 
L 153.055246 218.748512 
L 152.819155 218.558895 
L 152.640693 218.977168 
L 152.703899 219.326659 
L 152.979028 219.531148 
L 153.440056 219.523712 
L 153.164926 219.847177 
L 153.257876 220.114872 
L 153.57948 220.220834 
L 154.373266 219.897369 
L 154.627947 220.08141 
L 154.830576 220.769237 
L 154.78596 221.490526 
L 152.943707 226.567434 
L 152.358128 227.130709 
L 151.703765 227.234812 
L 151.242737 226.890899 
L 151.246455 226.115699 
L 150.599529 226.567434 
L 151.015941 227.450455 
L 151.246455 227.660522 
L 151.752099 227.621483 
L 152.004921 227.744176 
L 151.939856 228.138283 
L 151.387738 228.831687 
L 151.160942 229.316884 
L 150.759402 229.67381 
L 150.540042 229.554835 
L 150.387605 229.030599 
L 150.209143 228.909765 
L 150.052988 228.632775 
L 150.06786 227.79251 
L 149.670037 228.128988 
L 148.816764 227.766484 
L 148.565801 227.972832 
L 149.06215 228.296297 
L 149.670037 228.441298 
L 149.499011 228.848418 
L 149.283369 229.041753 
L 148.331569 229.210921 
L 147.868682 229.210921 
L 147.785028 229.368936 
L 147.846374 230.079071 
L 147.941183 230.313304 
L 148.272082 229.867146 
L 149.030547 229.815094 
L 149.82991 230.049327 
L 150.277925 230.469459 
L 150.190553 231.019721 
L 149.049137 232.979099 
L 148.316697 234.841809 
L 147.316564 238.292099 
L 147.112076 237.99466 
L 146.915024 238.011391 
L 146.502329 238.591397 
L 146.452137 239.004093 
L 146.056173 239.400059 
L 145.2754 241.753543 
L 145.130399 241.329693 
L 145.201041 240.664173 
L 145.119246 240.336991 
L 144.825526 240.565647 
L 144.226933 241.569503 
L 143.920201 241.504438 
L 143.90347 242.015661 
L 144.260395 242.512012 
L 144.029881 242.828041 
L 143.260262 242.941439 
L 142.390258 242.727655 
L 141.843716 242.050982 
L 141.825127 242.18297 
L 141.689421 242.519448 
L 141.018328 242.316818 
L 140.523838 242.790861 
L 140.105567 243.441508 
L 139.334089 243.936 
L 106.904799 220.588562 
L 106.36179 219.710299 
L 105.792811 217.951414 
L 105.474088 217.658659 
L 104.560416 217.323409 
L 104.071708 217.280912 
L 102.978607 217.344657 
L 102.912502 217.030655 
L 103.186367 216.206693 
L 103.070682 216.027263 
L 102.695298 215.980045 
L 102.530034 215.81242 
L 102.553643 215.304822 
L 102.77793 214.846803 
L 103.620774 214.074782 
L 104.163783 213.784389 
L 104.59583 213.751336 
L 104.643048 213.024173 
L 104.869695 212.828216 
L 105.285215 212.797524 
L 104.373904 207.228113 
L 104.02449 206.666214 
L 21.96401 160.852555 
L 21.116444 160.786449 
L 20.809525 160.585771 
L 20.764668 159.988458 
L 18.576105 159.988458 
L 18.361263 152.225752 
L 19.702259 140.612385 
L 19.67865 139.729401 
L 18.262104 135.028809 
L 18.332932 134.577873 
L 21.692505 130.099207 
L 22.514102 129.461759 
L 22.710057 129.159561 
L 22.773802 128.694459 
L 22.492854 127.440811 
L 22.594373 127.23305 
L 23.220014 126.333539 
L 23.788993 124.00095 
L 24.180904 123.297396 
L 24.856124 122.834655 
L 26.522925 122.124018 
L 27.073017 121.533788 
L 27.531494 120.028239 
L 27.580613 119.74185 
L 27.769485 119.541171 
L 29.23561 118.806925 
L 29.627521 118.450426 
L 29.955687 117.530848 
L 30.614381 116.675014 
L 31.341541 114.743781 
L 31.355706 113.719142 
L 31.664986 112.767691 
L 31.889272 112.359252 
L 32.356732 111.901233 
L 32.734477 111.989768 
L 33.107501 112.20107 
L 33.584405 112.110175 
L 33.829939 111.691111 
L 33.867714 111.176431 
L 34.023534 110.758548 
L 35.1308 110.505929 
L 35.9099 109.757517 
L 36.384443 109.467124 
L 38.263727 109.274709 
L 38.990887 108.945361 
L 39.278918 108.017519 
L 39.040466 107.108565 
L 38.643833 106.179543 
L 38.55884 105.367386 
L 39.916363 104.256573 
L 40.397988 102.412104 
L 40.924471 101.628278 
L 41.153479 101.513184 
L 41.859391 101.311325 
L 42.258385 100.833239 
L 43.120117 98.802257 
L 43.242884 94.084548 
L 43.755201 93.298952 
L 43.639517 93.044562 
L 42.902913 92.306775 
L 42.645574 91.44917 
L 42.652657 90.532543 
L 42.865139 89.071724 
L 40.537282 83.461587 
L 40.388545 82.564437 
L 40.589222 82.000177 
L 41.800368 81.014493 
L 41.861752 80.496271 
L 41.651631 80.106719 
L 41.028351 79.46691 
L 40.89614 79.03132 
L 40.76629 77.894537 
L 40.537282 77.582895 
L 40.329522 77.614768 
L 39.994273 77.973627 
L 39.680272 77.950018 
L 39.465429 77.739896 
L 38.502178 75.737836 
L 38.155125 73.753482 
L 37.59795 72.111462 
L 37.321724 71.888355 
L 36.549707 71.396103 
L 36.412774 71.275696 
L 36.103495 71.576714 
L 35.706862 71.834054 
L 35.395222 71.751422 
L 35.187462 71.536578 
L 34.84513 70.991206 
L 33.891323 69.787136 
L 33.226403 66.329238 
L 32.958764 65.850302 
L 32.479499 65.532758 
L 31.402925 65.224658 
L 30.926021 64.921279 
L 30.678126 64.398336 
L 30.451478 61.593562 
L 29.98874 60.437892 
L 29.594468 59.958625 
L 29.535445 59.685348 
L 29.773897 58.399827 
L 29.474062 57.66322 
L 29.601551 57.463132 
L 30.255523 57.202841 
L 30.68993 56.535881 
L 30.904773 55.620434 
L 30.961435 53.783638 
L 30.807976 53.30319 
L 30.472726 53.087166 
L 29.615716 52.731848 
L 28.874391 51.940939 
L 28.463593 51.776265 
L 27.842674 51.956285 
L 27.398823 52.493985 
L 27.134401 52.344067 
L 26.789708 51.422717 
L 26.267947 50.656009 
L 25.125267 50.833668 
L 24.537401 50.948172 
L 24.247009 50.83839 
L 24.398107 50.661911 
L 24.853763 50.370927 
L 24.568093 50.023282 
L 24.166738 49.763581 
L 25.257478 49.199321 
L 25.505374 48.891221 
L 25.446351 48.578989 
L 24.941116 48.315156 
L 24.497265 48.312795 
L 23.231818 48.707069 
L 22.700614 48.515244 
L 22.733666 48.1192 
L 23.267232 47.007206 
L 23.21057 46.638312 
L 22.159965 45.535763 
L 22.268567 45.086597 
L 22.424387 44.236076 
L 22.346477 43.702508 
L 21.671257 42.651308 
L 21.701949 41.948344 
L 21.416279 41.418317 
L 20.901601 41.01401 
L 20.240546 40.694695 
L 29.471701 31.546719 
L 35.984057 28.238524 
L 47.632062 23.884954 
L 49.220505 23.287463 
L 49.624672 24.045278 
L 53.009565 22.176 
L 53.514773 22.782252 
L 53.514773 22.782252 
" clip-path="url(#p4df024bb03)" style="fill: none; stroke: #000000; stroke-width: 2"/>
   </g>
  </g>
 </g>
 <defs>
  <clipPath id="p4df024bb03">
   <rect x="0" y="-0" width="219.145252" height="266.112"/>
  </clipPath>
 </defs>
</svg>
