<?xml version="1.0" encoding="utf-8" standalone="no"?>
<!DOCTYPE svg PUBLIC "-//W3C//DTD SVG 1.1//EN"
  "http://www.w3.org/Graphics/SVG/1.1/DTD/svg11.dtd">
<svg xmlns:xlink="http://www.w3.org/1999/xlink" width="320.808279pt" height="266.112pt" viewBox="0 0 320.808279 266.112" xmlns="http://www.w3.org/2000/svg" version="1.1">
 <metadata>
  <rdf:RDF xmlns:dc="http://purl.org/dc/elements/1.1/" xmlns:cc="http://creativecommons.org/ns#" xmlns:rdf="http://www.w3.org/1999/02/22-rdf-syntax-ns#">
   <cc:Work>
    <dc:type rdf:resource="http://purl.org/dc/dcmitype/StillImage"/>
    <dc:date>2024-02-02T21:58:02.752973</dc:date>
    <dc:format>image/svg+xml</dc:format>
    <dc:creator>
     <cc:Agent>
      <dc:title>Matplotlib v3.8.2, https://matplotlib.org/</dc:title>
     </cc:Agent>
    </dc:creator>
   </cc:Work>
  </rdf:RDF>
 </metadata>
 <defs>
  <style type="text/css">*{stroke-linejoin: round; stroke-linecap: butt}</style>
 </defs>
 <g id="figure_1">
  <g id="patch_1">
   <path d="M 0 266.112 
L 320.808279 266.112 
L 320.808279 0 
L 0 0 
L 0 266.112 
z
" style="fill: none"/>
  </g>
  <g id="axes_1">
   <g id="PatchCollection_1">
    <path d="M 102.005721 241.483625 
L 101.492321 241.982261 
L 100.666774 241.969637 
L 99.935693 241.828673 
L 99.336043 241.412091 
L 98.904787 240.570511 
L 99.323721 240.45269 
L 99.533188 240.305413 
L 99.939801 239.863584 
L 99.607118 239.245022 
L 99.763191 238.866311 
L 100.260162 238.723243 
L 100.974814 238.803193 
L 101.689467 239.299725 
L 102.059114 240.391675 
L 102.005721 241.483625 
" clip-path="url(#p8eef002dba)" style="fill: none; stroke: #000000; stroke-width: 2"/>
    <path d="M 77.411824 235.73353 
L 77.773258 235.760881 
L 78.118262 235.468432 
L 78.249693 235.241205 
L 78.340051 235.266453 
L 78.48791 235.455808 
L 78.48791 235.836623 
L 78.274336 236.240582 
L 78.044333 236.812856 
L 77.71165 237.24627 
L 77.1695 236.909638 
L 76.130379 235.28118 
L 75.77716 234.458536 
L 75.974305 233.751609 
L 76.651993 233.473887 
L 77.222893 233.404457 
L 77.510397 233.513862 
L 77.613077 233.875742 
L 77.124321 234.584773 
L 77.091463 234.822519 
L 77.070927 235.083409 
L 77.157178 235.491575 
L 77.411824 235.73353 
" clip-path="url(#p8eef002dba)" style="fill: none; stroke: #000000; stroke-width: 2"/>
    <path d="M 75.382869 227.122062 
L 75.666266 227.202013 
L 75.990734 227.176765 
L 76.270024 227.252507 
L 76.380918 227.635426 
L 76.598599 227.833198 
L 77.033962 227.900524 
L 77.411824 228.14879 
L 77.444682 228.88938 
L 76.779316 229.125023 
L 76.183773 229.415368 
L 75.70323 229.878237 
L 75.382869 230.65249 
L 74.947506 230.292715 
L 74.717503 229.693089 
L 74.594287 229.133439 
L 74.508036 228.88938 
L 74.545001 228.765247 
L 72.93498 228.14879 
L 72.166934 227.515501 
L 71.575497 226.777015 
L 71.402995 226.015385 
L 71.899966 225.325289 
L 72.918551 224.965514 
L 73.756419 225.207468 
L 74.446428 225.786054 
L 75.037864 226.417239 
L 75.148759 226.587659 
L 75.247332 226.947435 
L 75.382869 227.122062 
" clip-path="url(#p8eef002dba)" style="fill: none; stroke: #000000; stroke-width: 2"/>
    <path d="M 61.06518 192.162829 
L 61.155538 192.396368 
L 61.722331 191.904044 
L 62.211088 191.851445 
L 62.605379 192.156518 
L 63.23378 193.458863 
L 63.266638 194.018513 
L 63.209137 194.552917 
L 63.258423 195.221973 
L 63.492533 195.802663 
L 63.751287 196.244492 
L 63.841645 196.618996 
L 63.57057 196.989291 
L 63.837538 197.69201 
L 63.800573 198.657723 
L 63.57057 199.589773 
L 63.258423 200.197814 
L 62.568414 200.532343 
L 61.767511 200.538654 
L 61.286969 200.273557 
L 61.5334 199.812792 
L 60.978929 199.248933 
L 60.806427 198.167503 
L 60.843391 196.282364 
L 60.461422 194.073216 
L 60.4491 192.80243 
L 60.843391 191.691545 
L 60.925535 191.916667 
L 61.06518 192.162829 
" clip-path="url(#p8eef002dba)" style="fill: none; stroke: #000000; stroke-width: 2"/>
    <path d="M 63.147529 191.405407 
L 62.913419 191.691545 
L 62.412341 191.65157 
L 62.371269 191.133998 
L 62.568414 189.924227 
L 62.112515 189.086855 
L 61.451256 188.119038 
L 61.176074 187.163844 
L 61.845547 186.362239 
L 62.716273 186.886123 
L 62.913419 187.069167 
L 63.024313 187.336368 
L 63.020206 187.586738 
L 62.962705 187.757158 
L 62.913419 187.776094 
L 63.168065 188.262106 
L 63.734858 189.112102 
L 63.948432 189.541308 
L 63.948432 189.924227 
L 63.714322 190.28821 
L 63.147529 191.405407 
" clip-path="url(#p8eef002dba)" style="fill: none; stroke: #000000; stroke-width: 2"/>
    <path d="M 288.821602 29.813959 
L 288.761617 30.632932 
L 288.50081 31.215432 
L 287.775766 32.261526 
L 286.71689 35.389122 
L 286.263085 36.173358 
L 285.626716 36.701082 
L 284.651298 36.944235 
L 284.325289 36.783914 
L 284.137508 36.439224 
L 283.842796 36.216111 
L 283.190779 36.42052 
L 282.789136 36.79193 
L 282.55441 37.688392 
L 282.410966 38.160003 
L 281.380778 39.97831 
L 281.015648 40.92554 
L 280.921758 41.980986 
L 281.033905 42.444581 
L 281.620721 43.962286 
L 281.612896 44.448593 
L 281.359913 46.269573 
L 279.651628 51.168715 
L 279.409077 52.411203 
L 279.622939 53.019086 
L 280.100216 53.512073 
L 280.660951 54.403191 
L 280.767882 55.418557 
L 280.598357 56.491372 
L 280.5801 57.541474 
L 281.156484 58.48336 
L 282.014539 58.799994 
L 283.90539 58.611617 
L 284.685203 58.914891 
L 285.000779 59.41055 
L 285.016428 60.882831 
L 285.770627 62.659536 
L 285.874483 63.296998 
L 285.736255 63.891521 
L 285.4598 64.478029 
L 285.235506 65.345098 
L 285.7832 66.912236 
L 285.720607 67.374495 
L 285.394598 68.486054 
L 285.376341 69.027137 
L 285.631932 69.803358 
L 286.591702 70.954997 
L 287.173302 71.966355 
L 288.331285 73.238235 
L 289.218029 74.504771 
L 293.388333 82.647741 
L 293.761287 84.536857 
L 294.074256 89.612352 
L 293.894299 91.195522 
L 286.497812 109.196897 
L 286.628215 109.935709 
L 287.415852 110.516873 
L 287.556688 111.231637 
L 287.434109 111.510863 
L 287.173302 111.716608 
L 286.873374 112.225627 
L 286.784699 112.786751 
L 286.899454 113.359899 
L 287.468014 114.663843 
L 287.859224 117.007201 
L 288.208706 117.617757 
L 289.624888 119.234327 
L 290.31081 120.674544 
L 290.44643 122.029256 
L 290.402093 123.418705 
L 290.519456 124.96313 
L 291.781762 130.665213 
L 291.875652 132.345912 
L 291.698304 133.911713 
L 291.001949 135.691276 
L 291.361863 136.369968 
L 291.356646 137.580392 
L 289.872654 141.796834 
L 289.619672 143.066042 
L 289.218029 144.241729 
L 288.474729 145.174263 
L 287.173302 145.71401 
L 285.955333 146.558367 
L 284.249655 148.883022 
L 283.096888 148.94715 
L 282.126686 148.089433 
L 280.614005 145.72737 
L 279.422117 144.99791 
L 277.200042 145.195639 
L 273.955602 146.213677 
L 270.95893 147.696646 
L 269.467114 149.289168 
L 269.128064 150.018629 
L 268.522992 150.582424 
L 267.177228 151.536334 
L 265.583697 153.521642 
L 262.135828 156.992592 
L 260.910035 157.828933 
L 259.037441 158.561065 
L 257.170063 158.777499 
L 252.691778 158.535434 
L 251.753101 158.617178 
L 250.60555 159.314574 
L 249.776184 160.527669 
L 249.18676 162.208368 
L 248.200909 163.531016 
L 247.136817 163.82761 
L 244.620029 163.253126 
L 245.021672 164.030683 
L 240.674019 163.426807 
L 238.256338 163.397415 
L 236.701928 164.498286 
L 236.034262 164.455534 
L 235.763023 164.102828 
L 235.556985 163.651257 
L 235.103181 163.319927 
L 234.451163 163.21839 
L 233.86174 163.269158 
L 232.677676 163.581784 
L 233.157561 164.973905 
L 234.651985 167.792882 
L 234.936265 169.067434 
L 234.805861 169.198363 
L 234.059953 170.419474 
L 234.002575 170.761493 
L 233.903469 172.185677 
L 232.868065 174.320619 
L 232.922834 175.138256 
L 234.297287 177.508334 
L 234.748483 178.70807 
L 234.284247 179.493642 
L 233.627013 179.509675 
L 232.985428 179.15964 
L 231.87439 178.368723 
L 230.674678 178.042738 
L 230.137415 178.09885 
L 227.294619 178.847014 
L 226.626953 178.732118 
L 226.173149 178.360708 
L 225.067327 176.778874 
L 224.078868 176.241798 
L 220.597095 175.138256 
L 218.505422 175.098175 
L 215.881704 174.280538 
L 213.570954 173.887752 
L 212.394714 175.138256 
L 212.22519 176.551752 
L 211.938302 177.187692 
L 210.53516 178.670661 
L 210.07614 179.752828 
L 209.465851 180.487633 
L 208.023589 180.412816 
L 205.621556 179.520363 
L 204.760893 179.696716 
L 203.608126 180.688034 
L 202.945676 181.414822 
L 202.366684 182.32598 
L 202.215416 183.354706 
L 202.867434 184.450233 
L 203.482938 184.784235 
L 204.826094 185.032733 
L 205.384221 185.450903 
L 205.61634 186.032067 
L 205.668501 186.720111 
L 205.558962 188.066807 
L 206.341383 190.797608 
L 206.424841 191.584517 
L 206.284006 192.358066 
L 205.725879 194.114917 
L 204.891296 198.004037 
L 204.94085 198.738841 
L 205.585043 199.251868 
L 206.409193 199.461622 
L 207.076859 199.873112 
L 207.212479 200.995359 
L 207.739309 202.424888 
L 208.777321 203.214469 
L 211.479281 203.883809 
L 212.22519 204.577197 
L 213.456199 206.526433 
L 214.212539 207.385487 
L 215.975594 208.901856 
L 216.653693 209.744877 
L 217.164874 210.81502 
L 217.743866 209.699453 
L 218.521071 209.233186 
L 219.397382 209.372131 
L 220.299775 210.070863 
L 220.883982 210.960645 
L 221.708133 213.923911 
L 222.274084 214.952637 
L 221.919386 215.265263 
L 220.318031 215.211823 
L 219.426071 215.316031 
L 219.261763 215.500401 
L 218.974875 216.028124 
L 219.084414 216.148365 
L 218.94097 217.593925 
L 219.199169 218.432939 
L 220.443219 220.812369 
L 221.742038 225.78232 
L 220.617959 224.852458 
L 219.295668 224.515784 
L 216.437223 224.231214 
L 215.099283 223.766284 
L 213.696141 223.044839 
L 212.418187 222.113641 
L 211.009829 220.470351 
L 209.327624 219.086247 
L 209.25199 219.929268 
L 208.779929 221.062203 
L 208.182681 222.084249 
L 207.713228 222.601284 
L 206.67 222.617316 
L 205.77804 222.036153 
L 205.097334 221.20382 
L 204.719164 220.465007 
L 203.780258 217.881167 
L 202.064148 215.48704 
L 201.16958 213.910551 
L 200.321957 212.920569 
L 198.970977 212.777616 
L 197.515674 213.198458 
L 194.229505 215.074214 
L 186.238378 216.782968 
L 185.831519 216.734872 
L 184.699617 216.159053 
L 183.040884 215.640681 
L 182.404515 216.07622 
L 180.354572 218.486379 
L 178.852324 221.572558 
L 178.367223 222.060201 
L 177.616098 221.792999 
L 175.88434 220.260598 
L 175.107135 219.750243 
L 167.246411 218.156385 
L 166.66742 217.372148 
L 166.550057 216.694792 
L 166.255345 216.473015 
L 164.481857 217.535141 
L 163.790719 218.169745 
L 163.224767 218.919246 
L 162.898759 219.734211 
L 163.070891 221.524462 
L 163.861136 223.467018 
L 165.665921 226.839103 
L 165.692002 228.518465 
L 164.466209 229.714192 
L 159.513483 232.257952 
L 158.858858 232.823083 
L 158.272042 233.479063 
L 156.19341 236.686819 
L 154.975441 237.961371 
L 153.178481 238.692168 
L 150.90946 238.78836 
L 143.424299 237.855826 
L 141.254384 237.950683 
L 140.461531 238.129708 
L 139.814729 238.633383 
L 136.7998 243.317428 
L 136.267754 243.818431 
L 135.553143 243.936 
L 134.633295 243.726436 
L 134.526507 243.427675 
L 133.676318 242.358868 
L 133.154704 242.047484 
L 132.423623 242.367284 
L 130.645206 240.507392 
L 130.181093 240.214943 
L 128.636787 240.214943 
L 127.306055 240.688332 
L 126.878906 240.570511 
L 126.480508 239.709995 
L 126.303899 237.488224 
L 125.40853 236.888598 
L 124.804772 236.177463 
L 124.463875 235.948133 
L 124.102441 236.011251 
L 123.794401 236.238478 
L 123.478147 236.316324 
L 123.092071 235.948133 
L 122.303489 236.9959 
L 120.9974 237.019043 
L 118.422188 236.333155 
L 117.563783 236.429937 
L 116.348053 236.756049 
L 115.477327 236.686619 
L 110.647263 235.314844 
L 109.797074 235.241205 
L 109.107065 235.024499 
L 107.714725 233.829455 
L 107.628474 233.44864 
L 106.51953 231.390977 
L 106.367564 231.353106 
L 105.463981 231.304715 
L 105.484517 230.65249 
L 105.336658 230.34321 
L 105.110762 229.272299 
L 104.7329 230.294819 
L 104.773972 231.405705 
L 105.110762 233.316091 
L 104.930045 234.212374 
L 104.498789 235.108657 
L 103.389846 236.686619 
L 102.79841 237.30518 
L 102.157687 237.620773 
L 101.307497 237.730178 
L 100.099981 237.74701 
L 99.446937 237.629189 
L 98.535139 236.686619 
L 98.029954 236.547758 
L 97.183871 236.518303 
L 96.810116 236.333155 
L 96.810116 236.686619 
L 97.882095 237.271517 
L 98.830857 238.222503 
L 99.089611 239.116681 
L 98.029954 239.51012 
L 96.370646 239.404922 
L 94.481336 239.82992 
L 93.553109 239.863584 
L 92.871314 239.533263 
L 92.534524 238.803193 
L 92.201841 236.920157 
L 91.98416 236.686619 
L 91.585762 236.652956 
L 90.949146 237.040083 
L 90.156457 236.732906 
L 89.725201 236.358403 
L 89.322696 235.159151 
L 88.829832 234.607916 
L 87.815355 233.829455 
L 86.977486 234.191334 
L 86.718733 233.524382 
L 86.965165 232.577605 
L 88.037143 231.712881 
L 88.55465 230.816599 
L 88.998228 229.81091 
L 89.195373 229.08084 
L 90.02092 227.868965 
L 91.967731 227.298794 
L 96.14475 227.016865 
L 96.14475 226.770703 
L 95.483492 226.562412 
L 95.310989 226.246819 
L 95.606708 224.006112 
L 95.775103 223.591634 
L 96.194037 223.233963 
L 97.389231 222.489165 
L 97.84513 221.765406 
L 97.943703 221.172092 
L 97.84513 219.164924 
L 97.085299 217.340799 
L 95.631351 214.750837 
L 94.670267 212.188225 
L 95.430098 210.435635 
L 94.464907 209.671901 
L 93.980258 209.47413 
L 92.485238 209.310022 
L 91.869158 209.040716 
L 91.425581 208.645174 
L 90.834145 206.793698 
L 89.74163 205.855336 
L 88.283575 205.312517 
L 86.755698 205.139993 
L 86.9282 205.384051 
L 87.125346 205.493457 
L 86.439444 206.549639 
L 86.065689 206.549639 
L 85.671398 206.055211 
L 85.030675 205.878479 
L 85.030675 206.196176 
L 85.3305 206.814737 
L 85.018353 207.576367 
L 83.995661 209.05334 
L 85.018353 208.592575 
L 85.116926 209.12277 
L 84.739064 210.063236 
L 83.453511 212.43018 
L 83.129043 213.391685 
L 82.989398 214.540441 
L 82.430819 215.895385 
L 82.307603 216.501323 
L 82.344568 216.997855 
L 82.591 217.814188 
L 82.644394 218.426437 
L 82.365104 219.202795 
L 81.679202 219.707743 
L 80.865977 219.884474 
L 80.204718 219.676183 
L 79.757034 220.090662 
L 79.165598 220.351551 
L 78.750771 219.133364 
L 77.691114 218.403294 
L 76.430204 217.864682 
L 75.382869 217.20825 
L 73.312842 218.476932 
L 72.438009 219.286953 
L 72.622833 220.029647 
L 71.920502 220.006504 
L 71.316744 220.111701 
L 70.848523 220.355759 
L 70.528162 220.736574 
L 69.550649 220.242146 
L 68.384205 220.118013 
L 67.780447 219.865539 
L 68.458135 218.97136 
L 66.207391 217.140924 
L 66.445608 216.253057 
L 67.078117 215.232641 
L 66.967222 213.629431 
L 66.474359 210.980558 
L 66.35525 209.566704 
L 66.523645 209.078587 
L 67.238297 207.841465 
L 67.390263 206.903103 
L 67.324548 206.01734 
L 67.119188 205.398779 
L 66.240248 203.68406 
L 66.092389 202.825648 
L 65.858279 202.472184 
L 65.525596 202.383819 
L 64.293437 202.312284 
L 64.39201 201.74001 
L 65.385951 201.049914 
L 64.983446 200.515511 
L 64.983446 200.197814 
L 65.365415 199.585565 
L 66.716683 198.264284 
L 68.150095 197.380625 
L 68.803139 198.077033 
L 69.115286 198.077033 
L 69.061893 197.279636 
L 68.573136 195.962563 
L 68.458135 195.221973 
L 67.398478 195.68905 
L 67.078117 195.958355 
L 66.445608 195.318754 
L 66.256677 194.742272 
L 66.227927 194.060592 
L 66.043103 193.103295 
L 65.714527 192.331145 
L 64.638441 190.601699 
L 65.254521 190.881524 
L 65.361308 191.338081 
L 65.673455 191.338081 
L 65.993816 190.770015 
L 66.511323 190.326081 
L 67.164368 190.033632 
L 67.940628 189.924227 
L 68.618315 190.210364 
L 69.419219 191.436967 
L 70.183158 191.691545 
L 68.589565 188.647129 
L 68.11313 188.161117 
L 68.458135 187.42263 
L 68.11313 187.42263 
L 67.768126 188.161117 
L 67.977593 188.571387 
L 67.87902 189.038464 
L 67.546337 189.417175 
L 67.078117 189.541308 
L 66.577038 189.288834 
L 65.981495 188.363096 
L 64.638441 187.687728 
L 64.277008 186.57053 
L 64.293437 184.243562 
L 63.948432 184.597025 
L 64.11272 183.540842 
L 64.293437 183.15582 
L 63.825216 183.136884 
L 63.57057 182.998023 
L 63.258423 182.448892 
L 63.184494 185.049375 
L 62.913419 185.657416 
L 62.568414 185.657416 
L 62.026264 185.476476 
L 61.311612 185.642688 
L 60.128739 186.362239 
L 59.093725 184.921034 
L 60.128739 184.243562 
L 60.387492 184.575986 
L 61.155538 185.303953 
L 61.5334 185.303953 
L 61.352684 184.794797 
L 60.802319 184.115221 
L 60.498387 183.540842 
L 60.498387 181.420061 
L 61.073394 180.856202 
L 61.779832 181.091845 
L 62.6177 181.489491 
L 63.57057 181.420061 
L 63.57057 181.035038 
L 62.950383 181.091845 
L 62.445198 180.946672 
L 62.067336 180.666847 
L 61.845547 180.330215 
L 61.845547 179.976751 
L 62.231624 179.976751 
L 62.231624 179.623288 
L 61.155538 179.976751 
L 61.098037 179.595936 
L 60.843391 178.91636 
L 60.498387 178.91636 
L 60.498387 179.976751 
L 60.128739 179.623288 
L 60.128739 180.713134 
L 59.808378 180.713134 
L 59.890522 179.280344 
L 60.165704 178.188394 
L 60.695532 177.384685 
L 62.034478 176.57256 
L 62.478056 176.47157 
L 62.913419 176.576768 
L 63.418604 176.959687 
L 64.038791 177.247928 
L 64.749336 177.109067 
L 65.361308 176.681965 
L 65.673455 176.092859 
L 65.361308 176.092859 
L 64.909516 176.749292 
L 64.211293 176.698797 
L 63.471997 176.256968 
L 62.913419 175.739396 
L 62.568414 175.739396 
L 60.498387 176.799787 
L 60.21499 176.479986 
L 59.561946 175.095587 
L 59.43873 174.506481 
L 59.167655 174.073067 
L 57.984782 173.441882 
L 56.300831 170.797217 
L 55.988684 170.797217 
L 56.736194 172.488793 
L 59.20462 175.112419 
L 59.808378 176.799787 
L 59.697483 177.66451 
L 59.106047 179.194082 
L 59.093725 179.976751 
L 59.619447 182.190107 
L 59.553731 183.099013 
L 59.093725 184.243562 
L 58.995153 183.585025 
L 58.514611 182.652976 
L 58.403716 181.918697 
L 58.218892 181.579961 
L 57.024074 180.330689 
L 57.790923 179.151624 
L 57.60575 176.199046 
L 57.034582 174.144265 
L 53.461526 168.947193 
L 51.14556 164.452862 
L 50.642202 161.885054 
L 49.831093 160.089459 
L 48.829594 158.868347 
L 46.242388 154.846962 
L 45.851178 152.792182 
L 47.003945 144.327234 
L 47.256927 143.343931 
L 47.791582 142.368645 
L 49.095617 141.22235 
L 49.531165 140.49289 
L 49.377288 139.47218 
L 48.798297 138.804175 
L 47.173469 137.930426 
L 46.487547 137.184933 
L 46.351927 136.781459 
L 46.268469 135.915726 
L 46.080688 135.490875 
L 45.72599 135.148857 
L 44.4689 134.39802 
L 40.619389 130.48886 
L 39.109316 129.382645 
L 36.240439 128.423391 
L 35.463234 127.832876 
L 35.10332 127.009895 
L 34.972917 125.906352 
L 35.038119 124.810825 
L 35.278061 124.005212 
L 35.911822 123.442753 
L 36.485598 121.301132 
L 36.368234 120.6692 
L 35.632759 119.461448 
L 35.309358 118.391306 
L 35.100712 116.410005 
L 34.842513 115.212942 
L 34.529545 114.639794 
L 34.375669 114.061303 
L 34.448695 113.524227 
L 35.085064 112.711935 
L 35.019862 112.522221 
L 34.49564 111.892961 
L 34.57649 111.689888 
L 35.632759 110.833507 
L 35.653623 110.516873 
L 34.795568 109.997166 
L 34.292211 109.317138 
L 33.488925 107.687208 
L 31.199039 104.988471 
L 30.19754 103.250324 
L 27.479931 96.086648 
L 27.422554 92.452706 
L 27.753779 89.307742 
L 27.344312 83.76598 
L 26.801833 82.892231 
L 26.734023 82.340459 
L 27.683361 81.120684 
L 29.655062 80.89757 
L 33.7393 81.246268 
L 36.816823 80.988419 
L 37.792241 80.643729 
L 40.165585 79.264968 
L 41.083625 79.008455 
L 39.304921 77.840783 
L 38.222572 76.777321 
L 38.287774 75.685802 
L 39.904778 74.435298 
L 44.980082 71.952995 
L 46.174578 70.924269 
L 46.378008 70.437962 
L 46.571005 68.848112 
L 46.813555 68.411237 
L 47.71334 67.286318 
L 48.120199 66.384513 
L 48.988686 63.565535 
L 49.919767 61.912893 
L 51.161208 60.67575 
L 54.066599 58.400527 
L 54.812507 57.541474 
L 54.992463 56.88015 
L 54.968991 56.106601 
L 55.138515 54.920226 
L 55.493213 54.111941 
L 56.544265 52.610268 
L 56.906787 51.776599 
L 57.277133 49.016406 
L 58.056946 48.216137 
L 58.907177 47.819342 
L 60.769339 47.283603 
L 61.630002 46.778592 
L 65.675119 43.31165 
L 67.341676 42.411181 
L 68.361431 42.074507 
L 71.407657 41.6216 
L 75.197183 40.455265 
L 78.613755 40.463281 
L 79.698712 40.331016 
L 80.575024 39.93823 
L 81.980774 38.917519 
L 82.708425 38.709102 
L 83.55344 39.327674 
L 84.08027 39.394474 
L 84.450616 39.247513 
L 86.359723 37.927537 
L 88.305344 36.938891 
L 89.155575 36.794602 
L 90.057967 37.100548 
L 90.738673 37.541431 
L 91.471541 37.700416 
L 92.514769 37.172693 
L 92.822521 36.762538 
L 93.052031 35.970285 
L 93.537132 35.687051 
L 94.048314 35.650979 
L 94.551672 35.796604 
L 95.274107 36.396472 
L 95.394078 36.925531 
L 95.284539 38.151987 
L 95.44624 38.623598 
L 95.816586 38.762542 
L 97.548344 38.880111 
L 100.511112 39.632284 
L 101.468274 39.743172 
L 102.97313 39.577507 
L 103.700782 39.817989 
L 105.309961 40.858739 
L 106.058477 41.0057 
L 106.947829 40.901492 
L 107.211244 40.596882 
L 107.33904 40.186727 
L 107.808492 39.756532 
L 110.54175 39.616252 
L 111.924027 40.765219 
L 113.668826 40.37644 
L 115.575325 39.437226 
L 117.416623 38.936223 
L 117.716551 39.089864 
L 118.332056 39.664348 
L 118.965817 39.683052 
L 119.346595 39.496011 
L 120.598469 38.13061 
L 120.788858 37.707096 
L 121.224405 37.71912 
L 121.067921 37.906161 
L 121.114866 38.36842 
L 121.401754 38.840031 
L 122.012043 39.063144 
L 122.914435 38.810639 
L 123.582101 38.280243 
L 124.343657 37.868753 
L 125.54337 37.972962 
L 128.276627 39.081848 
L 134.363863 40.061142 
L 134.994809 40.146105 
L 135.169757 40.142639 
L 135.772221 39.699084 
L 136.17908 39.413178 
L 136.716342 39.268889 
L 137.634383 39.447915 
L 138.427236 39.809973 
L 139.251386 39.972966 
L 140.258101 39.554795 
L 140.816228 38.930879 
L 141.864673 37.40783 
L 142.662742 36.944235 
L 143.47646 36.928203 
L 144.728334 37.463942 
L 145.586389 37.426534 
L 145.907181 37.167349 
L 146.407931 36.344367 
L 146.822614 36.168014 
L 147.234689 36.369752 
L 147.495496 37.291597 
L 147.831937 37.570823 
L 148.593494 37.410502 
L 150.106174 36.216111 
L 150.799921 35.863404 
L 151.637112 35.948909 
L 153.81485 37.316981 
L 154.172156 37.333014 
L 155.588338 37.212773 
L 155.97694 37.378438 
L 157.184477 38.11725 
L 160.05857 38.634286 
L 161.002692 38.925535 
L 161.250458 39.553459 
L 161.263499 40.253528 
L 161.026164 42.596886 
L 161.109622 43.037769 
L 162.713586 45.999699 
L 163.602937 47.005713 
L 164.711367 47.53878 
L 167.442017 46.687743 
L 168.996427 44.093215 
L 170.146585 41.520063 
L 171.625361 40.730483 
L 171.622753 42.363085 
L 171.810534 43.560148 
L 172.287811 44.631627 
L 175.2897 49.174055 
L 176.218173 50.085212 
L 176.565046 50.269581 
L 177.663044 50.727832 
L 178.95143 52.528771 
L 179.37133 52.920222 
L 179.879903 53.123295 
L 180.698837 53.227504 
L 182.130668 53.243536 
L 183.630308 53.029774 
L 185.038666 52.550147 
L 186.238378 51.755222 
L 187.078177 51.528101 
L 187.824085 51.107259 
L 189.232443 50.110596 
L 190.027904 50.690424 
L 190.656449 51.463973 
L 191.420614 51.160699 
L 192.33083 51.557493 
L 193.102819 52.364442 
L 193.475773 53.28228 
L 194.266018 52.711804 
L 194.782416 52.741197 
L 195.293598 53.072527 
L 196.104708 53.415881 
L 196.827143 53.496041 
L 198.459795 53.357096 
L 199.873369 54.111941 
L 200.624493 55.377141 
L 201.193053 56.81335 
L 202.0485 58.082558 
L 206.38572 61.872813 
L 207.728877 62.608953 
L 208.985966 62.893523 
L 210.227408 62.765266 
L 211.479281 62.264263 
L 212.663345 62.315032 
L 215.276632 62.979028 
L 216.283347 62.922915 
L 217.024039 62.019774 
L 216.930148 59.592247 
L 217.540437 58.805338 
L 218.268088 58.071869 
L 219.173088 57.46933 
L 219.963334 56.797318 
L 220.336288 55.838064 
L 220.088521 54.864114 
L 219.418247 54.109269 
L 218.609745 53.421225 
L 217.926431 52.65302 
L 216.638044 49.584209 
L 215.850407 48.687748 
L 214.118648 47.592221 
L 213.422294 46.933569 
L 212.997178 45.891482 
L 213.195392 44.607578 
L 213.020651 43.613588 
L 212.459916 42.787935 
L 211.479281 41.994346 
L 211.236731 41.439903 
L 211.168921 40.853395 
L 211.249771 40.258872 
L 211.479281 39.691068 
L 212.496429 39.868757 
L 214.718505 40.631618 
L 215.5896 40.591538 
L 215.72522 40.34972 
L 215.850407 39.536091 
L 215.999067 39.325002 
L 216.802353 39.33569 
L 217.587382 39.287594 
L 218.800134 39.501355 
L 220.571014 39.602892 
L 221.536 39.493339 
L 222.339286 39.016384 
L 223.085194 37.930209 
L 223.424243 36.81865 
L 223.935425 34.125258 
L 224.404877 33.2475 
L 224.702197 33.562798 
L 227.769288 35.449242 
L 228.259605 35.573491 
L 228.950743 35.624259 
L 229.952214 35.391898 
L 232.667243 35.020383 
L 233.950414 34.488652 
L 234.46942 33.479966 
L 234.670241 33.44523 
L 235.040587 33.135276 
L 235.259665 32.781233 
L 234.675458 32.459255 
L 234.628512 32.111893 
L 234.821509 31.522714 
L 235.290962 31.250168 
L 237.262663 31.522714 
L 237.262663 31.202072 
L 236.892317 31.068471 
L 236.673239 30.815965 
L 236.561092 30.445891 
L 236.626294 29.441213 
L 236.874061 29.295588 
L 237.207894 29.26486 
L 237.575632 29.083163 
L 238.657981 28.082492 
L 238.957909 28.359046 
L 239.59167 29.343684 
L 239.792491 30.001 
L 240.235863 32.127925 
L 240.674019 32.395127 
L 241.832002 32.650305 
L 242.351008 32.962931 
L 243.344683 34.4793 
L 244.810418 35.292929 
L 248.701659 36.588857 
L 249.327596 37.324998 
L 249.718806 38.094538 
L 251.487078 40.596882 
L 252.814586 41.927546 
L 253.516156 42.427213 
L 254.220335 42.703767 
L 254.976676 42.730487 
L 257.462167 41.258206 
L 257.996821 41.218126 
L 258.455841 41.373102 
L 259.399963 41.962282 
L 259.911144 42.053131 
L 260.542297 41.87945 
L 260.724862 41.613584 
L 260.745727 41.292942 
L 261.298638 39.972966 
L 262.148869 39.712444 
L 263.129503 38.176035 
L 264.603063 36.361736 
L 264.636968 36.101214 
L 264.793452 36.058462 
L 265.429821 36.336351 
L 266.256579 36.992331 
L 266.686911 37.608231 
L 267.226781 37.884785 
L 268.348251 37.530743 
L 269.894837 36.50068 
L 271.271898 35.260865 
L 271.681365 34.45258 
L 271.965645 33.568142 
L 272.375112 32.952243 
L 273.152317 32.962931 
L 273.921697 33.092523 
L 274.352029 32.858722 
L 274.884075 31.809955 
L 275.06664 30.431195 
L 275.267462 30.178689 
L 276.10726 29.601534 
L 276.99922 28.340342 
L 277.760777 27.660314 
L 278.68925 27.727114 
L 280.05327 28.70908 
L 281.005216 29.568134 
L 281.500749 29.759183 
L 282.447479 29.959584 
L 283.623718 30.484635 
L 284.20271 30.508683 
L 284.854727 29.976952 
L 285.011212 29.580158 
L 284.979915 28.294918 
L 285.128575 27.876747 
L 285.660621 27.089838 
L 286.062264 25.919495 
L 286.388273 25.577477 
L 287.173302 25.191371 
L 288.845075 22.75182 
L 289.525781 22.176 
L 290.133462 23.553425 
L 289.872654 24.852025 
L 288.699023 27.474609 
L 288.625997 28.276214 
L 288.821602 29.813959 
L 288.821602 29.813959 
" clip-path="url(#p8eef002dba)" style="fill: none; stroke: #000000; stroke-width: 2"/>
   </g>
  </g>
 </g>
 <defs>
  <clipPath id="p8eef002dba">
   <rect x="0" y="-0" width="320.808279" height="266.112"/>
  </clipPath>
 </defs>
</svg>
