<?xml version="1.0" encoding="utf-8" standalone="no"?>
<!DOCTYPE svg PUBLIC "-//W3C//DTD SVG 1.1//EN"
  "http://www.w3.org/Graphics/SVG/1.1/DTD/svg11.dtd">
<svg xmlns:xlink="http://www.w3.org/1999/xlink" width="287.901527pt" height="266.112pt" viewBox="0 0 287.901527 266.112" xmlns="http://www.w3.org/2000/svg" version="1.1">
 <metadata>
  <rdf:RDF xmlns:dc="http://purl.org/dc/elements/1.1/" xmlns:cc="http://creativecommons.org/ns#" xmlns:rdf="http://www.w3.org/1999/02/22-rdf-syntax-ns#">
   <cc:Work>
    <dc:type rdf:resource="http://purl.org/dc/dcmitype/StillImage"/>
    <dc:date>2024-02-02T21:58:02.841075</dc:date>
    <dc:format>image/svg+xml</dc:format>
    <dc:creator>
     <cc:Agent>
      <dc:title>Matplotlib v3.8.2, https://matplotlib.org/</dc:title>
     </cc:Agent>
    </dc:creator>
   </cc:Work>
  </rdf:RDF>
 </metadata>
 <defs>
  <style type="text/css">*{stroke-linejoin: round; stroke-linecap: butt}</style>
 </defs>
 <g id="figure_1">
  <g id="patch_1">
   <path d="M 0 266.112 
L 287.901527 266.112 
L 287.901527 0 
L 0 0 
L 0 266.112 
z
" style="fill: none"/>
  </g>
  <g id="axes_1">
   <g id="PatchCollection_1">
    <path d="M 97.128145 229.14877 
L 97.520323 229.755906 
L 98.007838 230.14832 
L 99.605054 230.801788 
L 100.089876 231.308932 
L 100.415783 232.53273 
L 100.736304 233.011608 
L 100.889831 232.825378 
L 101.09992 232.647461 
L 101.188804 232.476196 
L 101.439295 233.006619 
L 101.285768 233.187861 
L 100.965247 233.284302 
L 100.736304 233.566973 
L 100.752465 233.804749 
L 100.962554 234.182197 
L 100.962554 234.403345 
L 100.849429 234.622831 
L 100.566617 235.006931 
L 100.510054 235.12665 
L 99.912947 235.838843 
L 98.788418 236.765627 
L 98.439651 237.538136 
L 97.941975 238.44025 
L 97.918265 238.801795 
L 97.698091 239.333455 
L 96.881975 239.431559 
L 96.566841 239.602824 
L 95.697509 239.523766 
L 94.428286 240.559339 
L 91.083184 241.194462 
L 89.964353 242.177481 
L 88.594418 242.492242 
L 87.127599 242.340638 
L 85.451339 242.663624 
L 84.057803 242.230651 
L 80.912567 242.277247 
L 79.931665 242.751667 
L 79.347607 243.821269 
L 78.814303 243.936 
L 78.281 243.67162 
L 77.527501 242.409894 
L 76.523777 242.057276 
L 75.54984 241.002876 
L 75.210465 239.719218 
L 75.800331 238.056449 
L 76.357876 237.025532 
L 76.702637 236.663048 
L 77.852741 235.959697 
L 78.835172 234.198209 
L 79.738346 233.959506 
L 80.155968 233.029373 
L 81.70468 232.478344 
L 85.081244 231.480452 
L 85.927024 230.729491 
L 89.153972 230.381082 
L 91.350421 229.394509 
L 91.876463 229.547769 
L 94.551164 229.103143 
L 96.101934 228.970721 
L 97.128145 229.14877 
" clip-path="url(#p17883c5ae1)" style="fill: none; stroke: #000000; stroke-width: 2"/>
    <path d="M 112.759871 208.633752 
L 112.840675 208.808342 
L 112.72755 209.187454 
L 112.784112 209.609797 
L 113.204291 210.324788 
L 113.398219 210.501041 
L 113.635243 210.569215 
L 113.721433 210.708887 
L 113.681031 210.910082 
L 113.212371 210.677295 
L 112.759871 210.569215 
L 112.679068 210.441182 
L 112.565943 210.161836 
L 112.493219 209.820969 
L 112.369321 209.731179 
L 112.266969 209.601483 
L 112.186166 209.322138 
L 112.234648 209.157524 
L 112.218487 208.967968 
L 112.242728 208.798366 
L 112.347773 208.763448 
L 112.468978 208.805017 
L 112.622505 208.755134 
L 112.711389 208.648717 
L 112.759871 208.633752 
" clip-path="url(#p17883c5ae1)" style="fill: none; stroke: #000000; stroke-width: 2"/>
    <path d="M 41.326847 209.047781 
L 41.224496 209.230686 
L 41.079049 209.202419 
L 41.006326 209.160849 
L 40.844719 209.054432 
L 40.198291 208.445859 
L 39.829288 208.213071 
L 39.748484 207.895482 
L 39.910092 207.464825 
L 40.163276 207.225386 
L 40.529585 207.351757 
L 40.820478 207.720891 
L 41.294526 208.723541 
L 41.326847 209.047781 
" clip-path="url(#p17883c5ae1)" style="fill: none; stroke: #000000; stroke-width: 2"/>
    <path d="M 88.672335 204.254018 
L 88.866264 204.27896 
L 89.140996 204.192496 
L 89.512692 204.199147 
L 89.701234 204.254018 
L 89.989433 204.378726 
L 90.264165 204.731233 
L 90.183362 204.912475 
L 90.045996 204.784441 
L 89.927484 204.764488 
L 89.868228 204.924114 
L 89.744329 204.874231 
L 89.442662 204.704629 
L 89.132916 204.712942 
L 88.955148 204.890859 
L 88.842023 205.110344 
L 88.47302 205.366411 
L 88.144419 205.670697 
L 87.64613 205.97831 
L 87.013169 205.950042 
L 86.660327 205.471165 
L 86.636086 204.852615 
L 86.926979 204.245704 
L 87.514151 203.826686 
L 88.017827 203.826686 
L 88.672335 204.254018 
" clip-path="url(#p17883c5ae1)" style="fill: none; stroke: #000000; stroke-width: 2"/>
    <path d="M 91.89909 206.279271 
L 91.573182 206.370723 
L 91.403495 206.267631 
L 91.344239 206.078076 
L 91.185325 205.94838 
L 91.015638 205.910136 
L 90.942915 205.361422 
L 91.153004 204.418632 
L 91.225727 203.893197 
L 91.007558 203.685351 
L 90.942915 203.497458 
L 91.217647 203.22809 
L 91.233808 203.088417 
L 91.51662 203.091743 
L 92.076858 203.386053 
L 92.154968 203.785117 
L 91.839834 204.0628 
L 91.783272 204.373737 
L 92.119953 204.882545 
L 92.251932 204.957369 
L 92.365057 205.156902 
L 92.260013 205.279947 
L 92.114566 205.303225 
L 92.066084 205.54599 
L 92.066084 205.958356 
L 91.89909 206.279271 
" clip-path="url(#p17883c5ae1)" style="fill: none; stroke: #000000; stroke-width: 2"/>
    <path d="M 100.324206 204.322192 
L 100.114117 204.702966 
L 99.72626 204.917463 
L 99.233358 204.960695 
L 98.869742 204.767814 
L 98.570769 204.491794 
L 98.3526 204.518398 
L 98.239475 204.722919 
L 98.115576 204.648094 
L 97.980903 204.019568 
L 98.185606 203.595562 
L 98.239475 203.206474 
L 98.36876 202.897199 
L 98.603091 202.667736 
L 99.074445 202.429961 
L 99.640069 202.577947 
L 99.974057 203.066801 
L 100.291885 203.361111 
L 100.4912 203.590573 
L 100.40501 204.102706 
L 100.324206 204.322192 
" clip-path="url(#p17883c5ae1)" style="fill: none; stroke: #000000; stroke-width: 2"/>
    <path d="M 89.367246 203.826686 
L 89.200252 203.969685 
L 88.696576 203.830012 
L 88.435312 203.580597 
L 88.370669 203.415983 
L 88.230609 203.364437 
L 88.074389 203.331181 
L 88.042068 203.194834 
L 88.211755 202.70598 
L 88.308719 202.523076 
L 88.322187 202.398368 
L 88.257544 202.300265 
L 88.284478 202.210475 
L 88.405684 202.148953 
L 88.483794 202.060826 
L 88.462246 201.944432 
L 88.292559 201.660098 
L 88.40299 201.561995 
L 88.664255 201.648459 
L 88.920133 201.789794 
L 89.609656 201.909514 
L 89.965192 202.099069 
L 90.137573 202.230428 
L 90.272245 202.429961 
L 90.29918 202.787456 
L 90.070237 202.985325 
L 89.954418 203.450901 
L 89.47229 203.477505 
L 89.205639 203.534039 
L 89.367246 203.826686 
" clip-path="url(#p17883c5ae1)" style="fill: none; stroke: #000000; stroke-width: 2"/>
    <path d="M 70.97636 198.278026 
L 72.11569 198.522453 
L 72.592431 198.447629 
L 72.813294 198.56236 
L 72.780972 199.016296 
L 72.834841 199.310606 
L 72.678621 199.545056 
L 72.3581 199.586626 
L 72.172252 199.744589 
L 72.026806 199.674752 
L 71.88944 199.455267 
L 71.776315 199.460255 
L 71.719752 199.663113 
L 71.509663 199.694706 
L 70.825526 199.403721 
L 70.59389 199.064516 
L 70.572342 198.841705 
L 70.712402 198.647161 
L 70.728562 198.445966 
L 70.97636 198.278026 
" clip-path="url(#p17883c5ae1)" style="fill: none; stroke: #000000; stroke-width: 2"/>
    <path d="M 97.795055 196.841394 
L 98.034772 196.906242 
L 98.174832 196.896265 
L 98.314891 196.869661 
L 98.683894 196.909567 
L 99.152555 197.025961 
L 99.443447 197.200552 
L 99.378805 197.49985 
L 99.18757 197.729313 
L 99.136394 197.868985 
L 99.104073 198.153319 
L 98.896677 198.386106 
L 98.611171 198.329572 
L 98.304117 198.387769 
L 98.137124 198.537418 
L 97.997064 198.685405 
L 97.698091 198.74859 
L 97.536484 198.512477 
L 97.469148 198.198213 
L 97.29138 197.950461 
L 97.035502 197.839055 
L 96.696127 197.890601 
L 96.30019 198.033599 
L 95.982362 198.030274 
L 95.85577 197.963763 
L 95.729178 197.878962 
L 94.996559 197.548071 
L 94.950771 197.410061 
L 95.290145 197.365166 
L 95.62144 197.2654 
L 95.766886 197.178936 
L 95.888092 197.119076 
L 96.149356 197.160646 
L 96.451023 197.305306 
L 96.817332 197.149006 
L 97.264445 196.776546 
L 97.601127 196.690082 
L 97.795055 196.841394 
" clip-path="url(#p17883c5ae1)" style="fill: none; stroke: #000000; stroke-width: 2"/>
    <path d="M 104.493669 196.530456 
L 104.75224 196.64685 
L 105.20474 196.500526 
L 105.536034 196.462283 
L 105.689561 196.600292 
L 105.802686 196.786523 
L 106.004695 197.050903 
L 106.11782 197.150669 
L 106.182463 197.341887 
L 105.980454 197.385119 
L 105.700335 197.240459 
L 105.371734 197.165634 
L 105.13471 197.260412 
L 105.220901 197.371817 
L 105.422909 197.489874 
L 105.183192 197.734301 
L 104.598713 198.203202 
L 104.259338 198.359502 
L 104.227017 197.998681 
L 104.391318 197.744278 
L 104.601407 197.601279 
L 104.482895 197.438328 
L 103.758357 197.285353 
L 103.855321 197.122402 
L 103.777211 196.916219 
L 103.556348 196.779871 
L 103.001497 196.726663 
L 102.786021 196.651838 
L 102.69175 196.58699 
L 102.76986 196.510503 
L 103.014964 196.46062 
L 103.206199 196.327598 
L 103.513252 195.948487 
L 103.841854 195.669142 
L 103.814919 195.562725 
L 103.919964 195.599306 
L 104.154294 195.832093 
L 104.36977 196.161321 
L 104.493669 196.530456 
" clip-path="url(#p17883c5ae1)" style="fill: none; stroke: #000000; stroke-width: 2"/>
    <path d="M 94.554833 197.897252 
L 95.16086 198.509151 
L 95.225503 198.761892 
L 95.411351 199.217491 
L 95.298226 199.327234 
L 95.136619 199.303955 
L 94.975012 199.257397 
L 94.678732 199.126039 
L 94.425548 198.958099 
L 94.285488 198.986366 
L 94.253167 199.225805 
L 94.094253 199.320582 
L 93.80336 199.184235 
L 93.302378 199.064516 
L 92.680191 198.841705 
L 92.674804 198.577325 
L 92.981858 198.337886 
L 92.901054 198.036925 
L 92.615548 197.958775 
L 92.270786 198.050227 
L 91.839834 197.928845 
L 91.451977 197.669453 
L 91.22034 197.370154 
L 91.123376 196.926195 
L 91.091055 196.420713 
L 91.117989 195.905255 
L 91.249968 195.389797 
L 91.511233 194.99572 
L 91.866769 194.82113 
L 92.058004 194.776235 
L 92.639789 194.716375 
L 93.019566 194.844408 
L 93.375101 195.090498 
L 93.768345 195.564387 
L 94.075399 196.35254 
L 94.166976 196.999357 
L 94.272021 197.298655 
L 94.452482 197.548071 
L 94.554833 197.897252 
" clip-path="url(#p17883c5ae1)" style="fill: none; stroke: #000000; stroke-width: 2"/>
    <path d="M 98.347213 194.846071 
L 98.376841 195.095487 
L 98.13443 195.137056 
L 97.45568 194.924221 
L 97.172868 194.99572 
L 97.005874 195.246798 
L 96.133196 195.662491 
L 95.826142 196.083171 
L 95.729178 196.522142 
L 95.55141 196.650176 
L 95.335934 196.394109 
L 95.341321 195.971766 
L 95.271291 195.615933 
L 95.112378 195.496214 
L 94.950771 195.484574 
L 94.805324 195.333262 
L 94.926529 195.090498 
L 95.080056 194.851059 
L 95.309 194.335601 
L 95.774967 193.707074 
L 96.429475 193.33794 
L 97.116305 193.171663 
L 97.528403 193.244825 
L 97.684624 193.489252 
L 97.711558 193.75862 
L 97.539177 193.939862 
L 97.566112 194.037965 
L 97.873165 194.229184 
L 98.12635 194.518506 
L 98.347213 194.846071 
" clip-path="url(#p17883c5ae1)" style="fill: none; stroke: #000000; stroke-width: 2"/>
    <path d="M 119.086788 192.190629 
L 119.094869 192.297046 
L 119.248395 192.25714 
L 119.547369 191.954516 
L 119.851729 191.937888 
L 120.57896 192.732692 
L 120.7271 193.138407 
L 120.7271 193.379509 
L 120.476609 193.653866 
L 119.873276 194.05293 
L 119.34536 194.217545 
L 119.156818 194.107802 
L 119.143351 193.75862 
L 118.919794 193.519182 
L 118.585806 193.409439 
L 118.43228 193.198267 
L 118.521164 193.035316 
L 118.160241 192.800865 
L 117.939378 192.632926 
L 118.05789 192.326976 
L 118.036342 192.097514 
L 117.97978 191.914609 
L 118.141387 191.821494 
L 118.375717 191.924586 
L 118.623515 192.07091 
L 119.086788 192.190629 
" clip-path="url(#p17883c5ae1)" style="fill: none; stroke: #000000; stroke-width: 2"/>
    <path d="M 109.931747 193.820143 
L 108.566167 194.076209 
L 108.038251 193.999722 
L 107.650394 193.806841 
L 106.858519 193.264778 
L 106.858519 192.960491 
L 107.03898 192.732692 
L 107.071302 192.543136 
L 106.942016 192.360232 
L 106.632269 192.147397 
L 107.090156 191.803204 
L 107.618072 191.583718 
L 108.70084 191.379198 
L 109.735125 191.25449 
L 110.273815 191.296059 
L 110.726315 191.51887 
L 111.087238 192.182315 
L 110.9795 192.942201 
L 110.543161 193.564076 
L 109.931747 193.820143 
" clip-path="url(#p17883c5ae1)" style="fill: none; stroke: #000000; stroke-width: 2"/>
    <path d="M 128.767053 191.184654 
L 128.497707 191.196293 
L 128.427678 191.124794 
L 128.31994 190.96018 
L 128.012886 190.785589 
L 127.530758 190.620975 
L 127.207544 190.366571 
L 127.059404 190.019053 
L 126.897797 189.766312 
L 126.625759 189.616663 
L 126.391428 189.329004 
L 126.569196 188.979822 
L 127.126741 188.708791 
L 127.732767 188.625652 
L 128.163719 188.951555 
L 128.664701 189.945891 
L 128.605446 190.231887 
L 128.621606 190.378211 
L 128.888258 190.428094 
L 129.106427 190.551139 
L 129.251874 190.785589 
L 129.179151 191.039993 
L 128.767053 191.184654 
" clip-path="url(#p17883c5ae1)" style="fill: none; stroke: #000000; stroke-width: 2"/>
    <path d="M 80.322636 189.149425 
L 80.543499 189.330666 
L 80.694332 189.280783 
L 81.443112 188.800243 
L 81.47274 189.154413 
L 82.45585 190.777275 
L 82.507025 191.339291 
L 82.418141 191.967818 
L 82.240373 192.576392 
L 81.588558 193.999722 
L 81.3246 194.432042 
L 80.995999 194.658178 
L 80.939436 194.531808 
L 80.373812 193.98642 
L 80.112547 193.820143 
L 80.112547 194.076209 
L 79.977874 194.73134 
L 76.826536 196.483899 
L 76.44676 196.61692 
L 75.054245 196.73664 
L 74.669082 196.636873 
L 74.596358 196.281041 
L 74.782207 195.981742 
L 75.027311 195.732327 
L 75.121581 195.522818 
L 74.943814 195.270077 
L 73.990332 194.658178 
L 73.990332 195.522818 
L 73.295421 194.686445 
L 73.707519 193.321312 
L 74.650227 192.217233 
L 75.574081 192.147397 
L 75.873054 191.264467 
L 76.066983 190.950203 
L 76.374036 190.601022 
L 76.729572 190.40149 
L 77.044706 190.346618 
L 77.284423 190.165376 
L 77.376 189.586733 
L 77.763857 190.072261 
L 78.28908 190.127133 
L 78.757741 189.812869 
L 78.95975 189.190994 
L 78.706565 188.680524 
L 77.855435 187.997126 
L 78.076298 187.657921 
L 78.612294 187.618014 
L 79.159065 187.922301 
L 79.633112 188.306401 
L 79.985955 188.495956 
L 80.066758 188.610687 
L 80.163722 188.868417 
L 80.322636 189.149425 
" clip-path="url(#p17883c5ae1)" style="fill: none; stroke: #000000; stroke-width: 2"/>
    <path d="M 71.784395 189.383875 
L 71.423473 189.440409 
L 71.041003 189.327341 
L 70.922491 189.117832 
L 71.113726 189.049658 
L 71.315735 189.039682 
L 71.482729 188.868417 
L 71.679351 188.715442 
L 71.647029 188.575769 
L 70.911717 188.409492 
L 71.089485 188.193332 
L 71.547371 188.121833 
L 72.026806 188.106868 
L 72.403889 187.812558 
L 72.56819 187.413494 
L 72.406582 187.004453 
L 72.075288 186.464053 
L 71.865199 185.777329 
L 72.11569 185.586111 
L 72.519707 185.917002 
L 72.759425 186.171405 
L 73.166136 186.404193 
L 73.190377 186.760026 
L 73.265793 186.836513 
L 73.327743 187.044359 
L 73.298115 187.468365 
L 73.195764 187.922301 
L 73.166136 188.316377 
L 72.980288 188.520898 
L 72.713636 188.722093 
L 72.43621 188.989799 
L 71.784395 189.383875 
" clip-path="url(#p17883c5ae1)" style="fill: none; stroke: #000000; stroke-width: 2"/>
    <path d="M 71.137967 187.874081 
L 70.822833 188.022067 
L 70.556181 187.794268 
L 70.426896 186.375926 
L 70.545408 185.587773 
L 70.822833 185.228615 
L 71.245705 186.171405 
L 71.598547 186.695178 
L 71.875973 187.268833 
L 71.784395 187.74771 
L 71.485422 187.850802 
L 71.137967 187.874081 
" clip-path="url(#p17883c5ae1)" style="fill: none; stroke: #000000; stroke-width: 2"/>
    <path d="M 145.048966 185.306765 
L 145.199799 185.323393 
L 145.821987 185.010793 
L 145.905484 185.102245 
L 145.857002 185.320068 
L 145.539174 185.719132 
L 145.396421 185.815573 
L 145.183639 185.847165 
L 144.871198 185.775666 
L 144.612627 185.81391 
L 144.259785 185.991826 
L 144.087404 186.15644 
L 143.890782 186.199672 
L 143.858461 186.046698 
L 143.974279 185.785643 
L 143.941958 185.574471 
L 143.796511 185.426485 
L 143.672613 185.398218 
L 143.527166 185.285149 
L 143.540633 185.080629 
L 143.629517 184.894399 
L 143.642985 184.671588 
L 143.774964 184.541892 
L 143.99852 184.485358 
L 145.046273 185.054025 
L 145.048966 185.306765 
" clip-path="url(#p17883c5ae1)" style="fill: none; stroke: #000000; stroke-width: 2"/>
    <path d="M 51.141784 182.722822 
L 51.252215 183.018795 
L 51.535028 183.012144 
L 51.914804 182.912378 
L 51.979447 183.078655 
L 51.688554 183.371302 
L 51.535028 183.557533 
L 51.448837 183.79032 
L 50.926308 184.410533 
L 50.823957 184.698192 
L 50.605787 185.06899 
L 50.4361 185.306765 
L 50.301427 185.458077 
L 49.978213 185.320068 
L 49.76543 184.734773 
L 49.800445 184.189385 
L 49.9836 183.692217 
L 50.204463 183.253246 
L 50.44418 182.869146 
L 50.721605 182.659637 
L 50.993644 182.604766 
L 51.141784 182.722822 
" clip-path="url(#p17883c5ae1)" style="fill: none; stroke: #000000; stroke-width: 2"/>
    <path d="M 129.38116 187.455063 
L 129.009463 187.484993 
L 128.637767 187.282135 
L 127.466116 186.068314 
L 127.32875 185.596087 
L 127.528065 184.844516 
L 127.673511 184.648309 
L 128.293005 184.171094 
L 128.403437 183.926667 
L 128.653928 182.889099 
L 128.152946 182.347037 
L 128.212202 182.016146 
L 128.573124 181.846543 
L 128.985222 181.798323 
L 129.340758 181.961274 
L 129.429642 182.343711 
L 129.259954 182.794322 
L 128.85863 183.17177 
L 129.203392 183.26156 
L 129.505058 183.747088 
L 129.742082 184.345685 
L 130.022201 185.369951 
L 130.051829 185.966885 
L 129.952171 186.547191 
L 129.712454 187.109207 
L 129.38116 187.455063 
" clip-path="url(#p17883c5ae1)" style="fill: none; stroke: #000000; stroke-width: 2"/>
    <path d="M 69.84511 183.462755 
L 69.344128 184.149478 
L 69.112491 184.322406 
L 68.883548 184.342359 
L 68.544173 184.310767 
L 68.54148 184.182734 
L 68.062045 183.896737 
L 67.542209 183.672264 
L 67.396763 183.727135 
L 67.09779 183.0454 
L 67.32404 182.729474 
L 68.301763 182.330409 
L 68.902402 181.492373 
L 69.107105 181.385956 
L 69.231003 181.469095 
L 69.513816 181.996192 
L 69.909753 182.360339 
L 70.012104 182.529941 
L 70.055199 182.842542 
L 69.982476 183.163456 
L 69.84511 183.462755 
" clip-path="url(#p17883c5ae1)" style="fill: none; stroke: #000000; stroke-width: 2"/>
    <path d="M 73.777549 179.681618 
L 74.087296 179.821291 
L 74.283918 180.039113 
L 74.574811 180.188763 
L 74.968055 180.215367 
L 75.291269 180.29518 
L 75.512132 180.4997 
L 75.630644 180.724174 
L 75.606403 180.928695 
L 75.638724 181.199726 
L 75.751849 181.557221 
L 75.765316 181.99453 
L 75.574081 182.38528 
L 75.153903 182.42685 
L 74.766046 182.036099 
L 74.458992 181.582163 
L 74.103457 181.577175 
L 73.925689 181.738463 
L 73.809871 181.794997 
L 73.562073 181.816613 
L 73.327743 181.642023 
L 73.27118 181.292841 
L 72.969514 180.730825 
L 72.317699 180.032462 
L 72.180333 179.693257 
L 72.500853 179.779721 
L 72.762118 179.781384 
L 73.007222 179.653351 
L 73.360064 179.61677 
L 73.777549 179.681618 
" clip-path="url(#p17883c5ae1)" style="fill: none; stroke: #000000; stroke-width: 2"/>
    <path d="M 70.114455 179.23267 
L 70.127923 180.100636 
L 69.974396 180.029137 
L 69.597313 179.921057 
L 69.430319 179.821291 
L 69.144813 180.20539 
L 68.692313 180.208716 
L 68.277521 180.118926 
L 68.094367 180.225343 
L 68.027031 180.774057 
L 67.849263 181.25626 
L 67.561063 181.617081 
L 67.16782 181.798323 
L 66.779963 181.751765 
L 66.494457 181.477409 
L 66.322076 181.043426 
L 66.265513 180.504689 
L 66.365171 179.995881 
L 66.629129 179.636723 
L 66.992745 179.397284 
L 67.396763 179.237659 
L 67.846569 179.413912 
L 68.439129 179.282553 
L 69.521896 178.861873 
L 69.742759 178.831943 
L 69.901673 178.858547 
L 70.022878 178.978267 
L 70.114455 179.23267 
" clip-path="url(#p17883c5ae1)" style="fill: none; stroke: #000000; stroke-width: 2"/>
    <path d="M 75.113501 179.906092 
L 74.717564 180.012509 
L 74.3324 179.789698 
L 73.901448 179.413912 
L 73.346597 179.204403 
L 72.939886 178.961639 
L 73.265793 178.683957 
L 74.08999 178.545947 
L 74.572117 178.333112 
L 74.822608 178.123603 
L 75.140436 178.266602 
L 75.380153 178.599155 
L 75.460956 178.768758 
L 75.355912 178.875175 
L 75.242787 179.137893 
L 75.312816 179.689932 
L 75.113501 179.906092 
" clip-path="url(#p17883c5ae1)" style="fill: none; stroke: #000000; stroke-width: 2"/>
    <path d="M 148.615579 177.519675 
L 148.841198 177.631872 
L 149.156828 177.500154 
L 149.666437 177.370464 
L 150.244394 177.3326 
L 150.567793 177.654477 
L 150.655091 178.179021 
L 150.47964 178.506993 
L 150.600203 178.703409 
L 150.456533 178.949438 
L 150.123458 178.813034 
L 149.99191 178.894127 
L 150.00145 178.996932 
L 150.273343 179.051009 
L 150.545777 179.279349 
L 150.41214 179.525547 
L 150.074166 179.955913 
L 149.526436 179.962223 
L 149.286382 179.650936 
L 149.156718 179.331196 
L 148.879595 179.320424 
L 148.944695 179.052395 
L 148.853652 178.784546 
L 148.426654 178.720235 
L 148.274331 178.595777 
L 148.591049 178.340252 
L 148.651204 178.029093 
L 148.331055 177.772387 
L 147.734619 177.563247 
L 147.356611 177.68421 
L 147.132154 177.672423 
L 147.061205 177.403947 
L 147.327457 177.106848 
L 147.715933 177.006783 
L 148.226159 177.217134 
L 148.615579 177.519675 
" clip-path="url(#p17883c5ae1)" style="fill: none; stroke: #000000; stroke-width: 2"/>
    <path d="M 144.063163 178.454494 
L 143.963505 178.579202 
L 143.651065 178.489413 
L 143.457136 178.392972 
L 143.093521 178.135243 
L 142.883431 177.815991 
L 142.923833 177.594843 
L 143.150083 177.219057 
L 143.594502 176.878189 
L 144.011987 176.976293 
L 144.507582 177.538309 
L 144.693431 177.855898 
L 144.561452 178.075383 
L 144.205916 178.075383 
L 144.038922 178.165173 
L 144.063163 178.454494 
" clip-path="url(#p17883c5ae1)" style="fill: none; stroke: #000000; stroke-width: 2"/>
    <path d="M 74.585585 175.220409 
L 74.749885 175.313524 
L 74.908799 175.546312 
L 74.943814 175.799052 
L 74.499394 176.088374 
L 74.661001 176.723552 
L 74.580198 177.109314 
L 74.345867 177.257301 
L 74.01996 177.242336 
L 73.812564 177.481775 
L 73.820644 177.937373 
L 73.712906 178.326461 
L 73.360064 178.529319 
L 73.061091 178.504378 
L 72.988368 178.263276 
L 73.001835 178.100325 
L 72.50624 177.528332 
L 72.228815 177.139244 
L 71.999871 176.713575 
L 72.099529 176.389335 
L 72.58435 176.141583 
L 72.980288 176.100014 
L 73.295421 176.281255 
L 73.602475 176.271279 
L 73.691359 176.025189 
L 73.626716 175.546312 
L 73.94185 175.233711 
L 74.375495 175.242025 
L 74.585585 175.220409 
" clip-path="url(#p17883c5ae1)" style="fill: none; stroke: #000000; stroke-width: 2"/>
    <path d="M 136.516112 175.62945 
L 136.691187 175.750832 
L 136.885115 175.306873 
L 137.272972 174.683334 
L 137.590799 174.628463 
L 137.687764 174.914459 
L 137.857451 175.077411 
L 138.021752 175.170526 
L 138.097168 175.661043 
L 138.28571 176.339452 
L 138.479638 176.610484 
L 138.614311 176.718564 
L 138.797466 176.999572 
L 138.447317 177.089361 
L 136.949758 176.688634 
L 136.130949 176.95634 
L 135.651514 176.898143 
L 135.158613 176.593856 
L 134.86772 176.011887 
L 135.09397 175.381697 
L 135.54647 174.788089 
L 135.834669 174.229398 
L 136.136336 173.835322 
L 136.661559 173.690661 
L 136.831246 174.142934 
L 136.599609 174.803054 
L 136.483791 175.253664 
L 136.516112 175.62945 
" clip-path="url(#p17883c5ae1)" style="fill: none; stroke: #000000; stroke-width: 2"/>
    <path d="M 81.779793 176.060107 
L 81.84713 176.92641 
L 81.198008 177.534983 
L 80.842472 177.398636 
L 81.052561 177.157535 
L 81.157606 176.923084 
L 81.071416 176.760133 
L 80.147562 176.244674 
L 80.010196 176.16985 
L 79.032473 176.331138 
L 78.598827 176.547298 
L 78.108619 176.627111 
L 77.715375 176.490764 
L 77.513366 176.224721 
L 77.691134 176.010224 
L 78.216357 175.975306 
L 78.88972 175.725891 
L 79.008232 175.572916 
L 79.11597 175.459848 
L 79.148291 175.28692 
L 79.563083 175.157224 
L 79.711223 174.90282 
L 79.727383 174.603522 
L 79.468812 174.244363 
L 79.35838 173.840311 
L 79.719303 173.650755 
L 80.293008 173.790427 
L 80.882874 174.093051 
L 81.303052 174.522046 
L 81.259957 174.763147 
L 80.971758 174.801391 
L 80.468082 175.140596 
L 80.406133 175.330152 
L 80.424987 175.571253 
L 80.470776 175.762472 
L 80.683559 175.830645 
L 81.152219 175.835633 
L 81.779793 176.060107 
" clip-path="url(#p17883c5ae1)" style="fill: none; stroke: #000000; stroke-width: 2"/>
    <path d="M 72.826761 173.905159 
L 72.904871 174.493779 
L 72.80252 175.064109 
L 72.549335 175.552963 
L 72.164172 175.890505 
L 71.687431 176.035166 
L 71.412699 175.928748 
L 71.197223 175.739193 
L 70.917104 175.636101 
L 69.83703 175.882191 
L 69.430319 175.890505 
L 69.430319 175.636101 
L 69.756226 175.346779 
L 70.351479 174.382373 
L 70.803979 173.963355 
L 71.016762 173.976658 
L 71.331895 174.064784 
L 71.606627 174.059796 
L 71.730526 173.810381 
L 71.873279 173.268318 
L 72.196493 173.186842 
L 72.565496 173.444571 
L 72.826761 173.905159 
" clip-path="url(#p17883c5ae1)" style="fill: none; stroke: #000000; stroke-width: 2"/>
    <path d="M 78.033202 173.703963 
L 77.739616 173.833659 
L 77.335598 173.820357 
L 77.171298 173.451223 
L 77.238634 173.062135 
L 77.497206 172.919136 
L 78.06283 172.919136 
L 78.256759 172.998949 
L 78.264839 173.175203 
L 78.157101 173.597546 
L 78.033202 173.703963 
" clip-path="url(#p17883c5ae1)" style="fill: none; stroke: #000000; stroke-width: 2"/>
    <path d="M 134.412527 177.446856 
L 134.811157 178.170161 
L 135.452199 178.05543 
L 136.265621 177.73119 
L 137.033255 177.564913 
L 138.148344 177.754469 
L 138.374594 177.840933 
L 138.544281 178.304845 
L 138.447317 178.713886 
L 138.264162 179.147869 
L 138.167198 179.681618 
L 138.258775 180.524642 
L 138.231841 181.006845 
L 138.043299 181.216354 
L 137.779341 181.367666 
L 138.05946 182.197387 
L 137.922094 182.61308 
L 137.413032 182.70952 
L 136.92821 182.413547 
L 136.405681 182.18076 
L 135.791574 182.470082 
L 135.252884 182.543243 
L 134.924282 181.751765 
L 134.552586 180.100636 
L 134.008509 179.801337 
L 133.574863 180.105624 
L 133.281277 180.79401 
L 133.170846 181.647011 
L 132.968837 182.006169 
L 132.500176 182.021134 
L 132.004581 181.848206 
L 131.702915 181.647011 
L 131.498212 181.279539 
L 131.44973 180.976915 
L 131.44165 180.61942 
L 131.368927 180.100636 
L 130.455847 177.08271 
L 130.334641 176.354417 
L 130.423525 175.636101 
L 130.803302 174.901157 
L 131.056486 174.713264 
L 131.315058 174.665044 
L 131.514373 174.528697 
L 131.670593 173.625813 
L 131.864522 173.368084 
L 132.395132 172.947404 
L 132.831471 172.732906 
L 133.332453 172.889207 
L 133.771485 173.286608 
L 134.027363 173.797079 
L 133.981574 174.334153 
L 133.690682 174.847949 
L 132.947289 175.636101 
L 133.081962 175.918772 
L 133.235488 176.633762 
L 133.421337 177.006223 
L 133.704149 177.205755 
L 134.412527 177.446856 
" clip-path="url(#p17883c5ae1)" style="fill: none; stroke: #000000; stroke-width: 2"/>
    <path d="M 160.029943 172.139298 
L 160.231952 172.523398 
L 160.377398 172.919136 
L 160.369318 173.456211 
L 160.237339 173.943402 
L 159.714809 175.331814 
L 160.385478 175.092376 
L 160.705999 174.867902 
L 160.813737 174.947715 
L 160.846059 175.636101 
L 160.80835 176.119967 
L 160.66021 176.633762 
L 160.369318 176.919759 
L 159.919511 176.726877 
L 160.102666 177.275591 
L 160.530925 178.200091 
L 160.619809 178.833606 
L 160.366624 178.935035 
L 159.787532 178.732177 
L 159.165345 178.399623 
L 158.788262 178.123603 
L 158.685911 178.693933 
L 158.583559 179.003208 
L 158.009854 179.681618 
L 157.824006 180.212041 
L 158.21725 180.517991 
L 158.761327 180.749116 
L 159.036059 181.063379 
L 158.518917 181.525629 
L 156.121745 182.280526 
L 155.3999 182.330409 
L 156.531149 181.495699 
L 156.062489 181.269562 
L 155.884721 180.907079 
L 155.911656 180.419887 
L 156.07865 179.821291 
L 155.052445 180.355039 
L 154.748085 180.140542 
L 154.599945 179.669979 
L 154.618799 179.197752 
L 154.826195 178.983255 
L 155.650391 178.813653 
L 155.884721 178.363042 
L 155.900882 177.726202 
L 156.07865 177.006223 
L 155.62615 176.726877 
L 155.286775 177.152546 
L 154.098963 177.686295 
L 153.57374 178.123603 
L 153.196657 177.528332 
L 152.725303 177.002897 
L 152.340139 176.414277 
L 152.237788 175.636101 
L 152.450571 175.1672 
L 152.88691 174.73488 
L 153.390585 174.402326 
L 153.821537 174.216096 
L 155.060525 173.956704 
L 155.3999 173.963355 
L 155.943977 174.196143 
L 156.377623 174.483802 
L 156.822042 174.70495 
L 157.436149 174.748182 
L 157.436149 174.493779 
L 156.822042 174.084738 
L 156.471894 173.474501 
L 156.315673 172.777801 
L 156.280658 172.124333 
L 156.716998 172.179204 
L 159.036059 170.842338 
L 158.640122 170.092429 
L 158.82597 169.347509 
L 159.335032 168.935142 
L 159.919511 169.16793 
L 160.064958 169.507135 
L 160.075731 169.902874 
L 159.860255 171.419319 
L 159.876416 171.658758 
L 160.029943 172.139298 
" clip-path="url(#p17883c5ae1)" style="fill: none; stroke: #000000; stroke-width: 2"/>
    <path d="M 74.63676 167.924178 
L 74.924959 168.058863 
L 75.347831 168.023945 
L 75.641418 168.108746 
L 75.781477 168.299964 
L 75.864974 168.482869 
L 75.897295 168.692378 
L 75.889215 169.091442 
L 75.749156 169.221138 
L 75.582162 169.315916 
L 75.404394 169.247743 
L 75.108114 168.915189 
L 74.973442 168.822074 
L 74.795674 168.911863 
L 74.63676 168.895236 
L 74.588278 168.717319 
L 74.461686 168.652471 
L 74.297385 168.65746 
L 74.251597 168.56767 
L 74.491314 168.383103 
L 74.397043 168.329894 
L 74.248903 168.356498 
L 74.10615 168.313266 
L 74.1681 168.128699 
L 74.423978 167.957434 
L 74.63676 167.924178 
" clip-path="url(#p17883c5ae1)" style="fill: none; stroke: #000000; stroke-width: 2"/>
    <path d="M 163.601459 170.534726 
L 163.431772 170.592923 
L 163.350968 170.415006 
L 163.189361 169.700016 
L 162.93887 169.433973 
L 162.849986 169.224464 
L 162.890388 168.935142 
L 162.777263 168.595937 
L 162.602189 168.27336 
L 162.693766 167.97905 
L 163.043915 167.777855 
L 163.423692 167.737948 
L 163.754986 167.837714 
L 163.981236 168.353173 
L 163.965075 169.387415 
L 163.819629 170.232102 
L 163.601459 170.534726 
" clip-path="url(#p17883c5ae1)" style="fill: none; stroke: #000000; stroke-width: 2"/>
    <path d="M 76.139706 166.103446 
L 76.449453 166.312955 
L 76.729572 166.214852 
L 77.047399 166.04525 
L 77.252101 166.148341 
L 77.322131 166.32792 
L 77.483738 166.321269 
L 77.688441 166.261409 
L 77.771938 166.527453 
L 77.542994 166.761903 
L 77.238634 166.781856 
L 77.109349 166.933168 
L 77.109349 167.150991 
L 77.472964 167.530102 
L 77.780018 167.671438 
L 78.12478 167.694716 
L 78.321402 167.977387 
L 78.421059 168.339871 
L 78.588053 168.569333 
L 78.647309 168.881933 
L 78.518024 169.277672 
L 78.388738 169.38409 
L 78.302548 169.256056 
L 77.917384 169.166267 
L 77.755777 168.956758 
L 77.623798 168.715657 
L 77.629185 168.358161 
L 77.691134 168.158629 
L 77.464884 168.088793 
L 76.616447 167.944132 
L 76.427905 167.777855 
L 76.137013 167.749588 
L 75.99426 167.719658 
L 75.851507 167.588299 
L 75.662965 167.491859 
L 75.485197 167.27071 
L 75.129662 166.431012 
L 75.331671 166.101784 
L 75.751849 165.958786 
L 76.139706 166.103446 
" clip-path="url(#p17883c5ae1)" style="fill: none; stroke: #000000; stroke-width: 2"/>
    <path d="M 73.659037 167.857668 
L 73.537832 168.190222 
L 73.360064 168.236779 
L 72.479306 167.999003 
L 72.164172 168.050549 
L 72.042967 167.959097 
L 71.962163 167.869307 
L 71.875973 167.799471 
L 71.730526 167.774529 
L 71.989097 166.477569 
L 72.164172 166.098458 
L 72.393115 165.965437 
L 72.786359 165.832415 
L 73.149975 165.652836 
L 73.311582 165.390119 
L 73.562073 164.834754 
L 74.160019 164.44234 
L 74.838769 164.279389 
L 75.345138 164.417399 
L 74.337787 165.011007 
L 74.10615 165.3552 
L 74.079216 165.764242 
L 74.224662 166.184922 
L 74.669082 166.911552 
L 74.313546 167.061201 
L 73.94185 167.428673 
L 73.659037 167.857668 
" clip-path="url(#p17883c5ae1)" style="fill: none; stroke: #000000; stroke-width: 2"/>
    <path d="M 80.047904 145.082721 
L 80.117934 145.327148 
L 79.994035 145.631435 
L 79.385315 146.160195 
L 78.97591 146.619119 
L 78.717339 146.820314 
L 78.609601 146.920081 
L 78.418366 146.963313 
L 78.27292 146.810338 
L 78.167875 146.540969 
L 78.232518 146.281577 
L 78.579973 146.098673 
L 78.531491 146.032162 
L 78.36719 145.925745 
L 78.447994 145.829304 
L 78.631149 145.726212 
L 78.755047 145.549959 
L 78.954363 145.516704 
L 79.072875 145.461832 
L 79.016312 145.237358 
L 79.159065 145.244009 
L 79.533455 145.312183 
L 79.783946 145.107662 
L 79.905151 144.972978 
L 80.047904 145.082721 
" clip-path="url(#p17883c5ae1)" style="fill: none; stroke: #000000; stroke-width: 2"/>
    <path d="M 83.274659 109.817053 
L 83.238078 110.074394 
L 83.204855 110.276749 
L 83.295116 110.667253 
L 83.544004 111.423288 
L 83.991117 112.108349 
L 84.179658 112.746852 
L 83.864525 112.600529 
L 82.3939 112.683667 
L 81.917159 112.60718 
L 81.826892 111.995935 
L 81.986458 111.77839 
L 82.240705 111.545786 
L 82.375046 111.18385 
L 81.585865 111.679355 
L 81.216862 111.503101 
L 81.319213 110.892865 
L 81.917159 110.069794 
L 81.690909 109.817053 
L 81.23841 110.349139 
L 81.085102 109.981736 
L 80.737675 110.166505 
L 80.918487 109.185607 
L 80.791297 107.688709 
L 80.638719 106.783981 
L 80.296657 105.642944 
L 80.582774 105.270931 
L 81.169199 104.729762 
L 81.80011 104.516185 
L 82.240373 105.216172 
L 82.299629 105.46725 
L 82.155907 105.766868 
L 81.903499 105.967695 
L 81.93325 106.248414 
L 82.490864 107.502479 
L 82.579748 107.901544 
L 82.434302 108.234097 
L 82.6051 108.527494 
L 82.980551 108.748407 
L 83.274659 109.258363 
L 82.579748 109.258363 
L 82.579748 109.511104 
L 82.805998 109.555999 
L 83.274659 109.817053 
" clip-path="url(#p17883c5ae1)" style="fill: none; stroke: #000000; stroke-width: 2"/>
    <path d="M 263.909733 78.618726 
L 263.882676 78.679972 
L 263.831157 78.647566 
L 263.860744 78.581874 
L 263.909733 78.618726 
" clip-path="url(#p17883c5ae1)" style="fill: none; stroke: #000000; stroke-width: 2"/>
    <path d="M 75.145822 79.07578 
L 75.008456 79.328521 
L 74.588278 79.750865 
L 74.289305 79.875572 
L 73.901448 79.933769 
L 73.572847 79.785783 
L 73.357371 79.416648 
L 73.27118 79.208802 
L 73.182296 79.235406 
L 72.947966 79.365102 
L 72.8106 79.318545 
L 72.813294 79.172221 
L 72.915645 78.503788 
L 73.101493 77.951748 
L 73.343904 77.620857 
L 73.610555 77.802099 
L 73.842192 78.189524 
L 74.079216 78.380743 
L 74.895332 78.803086 
L 75.145822 79.07578 
" clip-path="url(#p17883c5ae1)" style="fill: none; stroke: #000000; stroke-width: 2"/>
    <path d="M 85.704152 78.680041 
L 85.415953 79.012595 
L 85.041563 79.102385 
L 84.785685 78.916154 
L 84.513646 78.942759 
L 84.29817 78.809737 
L 84.222754 78.294279 
L 84.284703 77.765518 
L 84.556742 77.393058 
L 85.141221 77.087109 
L 85.89808 77.151957 
L 86.240149 77.37643 
L 86.369434 77.870273 
L 86.223988 78.039875 
L 85.868452 78.159595 
L 85.731086 78.428963 
L 85.704152 78.680041 
" clip-path="url(#p17883c5ae1)" style="fill: none; stroke: #000000; stroke-width: 2"/>
    <path d="M 88.866264 77.151957 
L 89.00363 77.472871 
L 89.391487 77.692357 
L 90.021754 77.951748 
L 90.196829 78.124676 
L 90.277632 78.314232 
L 90.358436 78.663414 
L 90.183362 79.039199 
L 88.494568 80.364426 
L 87.726934 80.459204 
L 87.735014 80.253021 
L 88.095937 79.770818 
L 88.144419 79.494798 
L 87.993586 79.257022 
L 88.424538 78.773156 
L 88.438005 78.284302 
L 88.260237 77.680717 
L 88.015133 77.261699 
L 87.775416 76.990668 
L 87.848139 76.90753 
L 88.392216 77.166922 
L 88.858183 76.764531 
L 88.963228 76.797787 
L 88.866264 77.151957 
" clip-path="url(#p17883c5ae1)" style="fill: none; stroke: #000000; stroke-width: 2"/>
    <path d="M 88.955594 68.024021 
L 89.092577 68.299583 
L 89.17489 68.513846 
L 88.994835 68.58736 
L 88.715431 68.791554 
L 88.602306 68.939541 
L 88.023951 69.075591 
L 87.768048 69.033918 
L 87.416328 69.196307 
L 86.643164 69.527919 
L 86.226545 69.895005 
L 85.995797 70.295044 
L 84.552767 71.36447 
L 84.227817 71.291714 
L 83.924636 71.325892 
L 83.79312 71.293769 
L 83.654689 70.795259 
L 83.392855 70.632528 
L 83.272382 70.762028 
L 83.163173 70.798728 
L 83.125483 70.714529 
L 83.18186 70.570564 
L 83.099126 70.371636 
L 82.897883 70.346132 
L 82.764643 70.518954 
L 82.559903 70.676741 
L 82.312713 70.567154 
L 81.956637 70.479109 
L 82.166942 70.273977 
L 82.093715 70.052275 
L 81.731737 69.714102 
L 81.643479 69.501168 
L 81.770279 69.198488 
L 81.967186 69.139863 
L 82.241094 69.279677 
L 83.740976 68.249146 
L 84.814701 68.133884 
L 85.544588 68.151258 
L 86.217423 67.802922 
L 86.447517 66.887392 
L 86.916481 66.717318 
L 87.298675 67.09553 
L 87.484523 67.167029 
L 87.675758 67.273446 
L 87.8643 67.349933 
L 88.050148 67.35991 
L 88.249657 67.398248 
L 88.5208 67.530675 
L 88.650777 67.661931 
L 88.780188 67.861463 
L 88.955594 68.024021 
" clip-path="url(#p17883c5ae1)" style="fill: none; stroke: #000000; stroke-width: 2"/>
    <path d="M 231.945095 69.627927 
L 231.314827 69.938865 
L 230.471777 69.777576 
L 229.652968 69.295373 
L 229.10889 68.651882 
L 228.936509 67.818834 
L 229.216628 67.196959 
L 229.811881 66.807871 
L 230.988919 66.611664 
L 231.775407 66.327331 
L 232.171345 66.247518 
L 232.736969 66.666535 
L 232.696568 67.704103 
L 232.330258 68.859728 
L 231.945095 69.627927 
" clip-path="url(#p17883c5ae1)" style="fill: none; stroke: #000000; stroke-width: 2"/>
    <path d="M 59.736587 61.82954 
L 59.545352 61.91933 
L 59.437614 61.693193 
L 59.259846 61.187712 
L 59.300248 60.835205 
L 59.558819 60.795298 
L 59.922435 60.841856 
L 60.154072 61.079632 
L 60.051721 61.523591 
L 59.736587 61.82954 
" clip-path="url(#p17883c5ae1)" style="fill: none; stroke: #000000; stroke-width: 2"/>
    <path d="M 82.127248 61.649961 
L 81.456579 61.689868 
L 79.210241 59.977216 
L 79.501133 59.717824 
L 79.638499 59.393584 
L 79.827041 58.625385 
L 79.929392 58.427515 
L 80.090999 58.218006 
L 80.276847 58.065031 
L 80.468082 58.018474 
L 80.591981 58.086647 
L 80.672785 58.211355 
L 80.721267 58.384283 
L 80.823618 59.132529 
L 80.861326 59.273864 
L 81.02024 59.543233 
L 81.230329 59.772695 
L 81.682829 60.146818 
L 82.094927 60.46607 
L 82.412754 60.818577 
L 82.477397 61.207665 
L 82.127248 61.649961 
" clip-path="url(#p17883c5ae1)" style="fill: none; stroke: #000000; stroke-width: 2"/>
    <path d="M 79.029779 55.391299 
L 79.649273 55.760434 
L 80.301088 55.750457 
L 80.907115 55.843572 
L 81.214168 56.182777 
L 80.995999 56.907744 
L 80.408826 57.403249 
L 79.681595 57.449807 
L 78.302548 57.160485 
L 77.998188 57.276879 
L 77.626491 57.46976 
L 77.305971 57.478074 
L 77.173991 57.034115 
L 77.246715 56.894442 
L 77.626491 55.767085 
L 78.033202 55.381322 
L 78.499169 55.258277 
L 79.029779 55.391299 
" clip-path="url(#p17883c5ae1)" style="fill: none; stroke: #000000; stroke-width: 2"/>
    <path d="M 87.387559 63.016757 
L 87.015863 63.878072 
L 86.684568 64.162405 
L 86.431384 64.190672 
L 86.232068 64.100883 
L 85.884613 63.731748 
L 85.634122 63.582099 
L 85.456354 63.643621 
L 85.318988 63.781631 
L 85.192396 63.858119 
L 83.452427 63.951234 
L 82.805998 63.655261 
L 82.127248 62.765679 
L 83.145373 62.504625 
L 83.387784 62.346662 
L 83.667903 61.916004 
L 83.630194 61.718135 
L 83.444346 61.593427 
L 83.274659 61.370616 
L 82.094927 59.16911 
L 82.022204 58.834893 
L 82.143409 58.395922 
L 82.111088 56.460459 
L 82.248454 56.019826 
L 82.568975 55.901769 
L 83.350075 55.015513 
L 83.953409 54.862538 
L 84.481325 55.234999 
L 84.979614 55.811979 
L 85.480595 56.260927 
L 86.544509 56.784699 
L 86.967381 57.200392 
L 87.137068 57.857185 
L 87.09936 58.186414 
L 86.926979 58.740116 
L 86.889271 58.986205 
L 86.964687 59.262225 
L 87.271741 59.814264 
L 87.34177 60.116888 
L 87.449508 61.586776 
L 87.34177 61.929307 
L 87.524925 62.148792 
L 87.710773 62.5861 
L 87.815818 62.765679 
L 87.387559 63.016757 
" clip-path="url(#p17883c5ae1)" style="fill: none; stroke: #000000; stroke-width: 2"/>
    <path d="M 27.3209 55.471112 
L 27.075796 55.602471 
L 26.817224 55.580855 
L 26.599055 55.657342 
L 26.429367 55.83027 
L 26.340483 55.861862 
L 26.340483 55.753782 
L 26.34587 55.700574 
L 26.238132 55.501042 
L 25.974174 55.165162 
L 26.073832 54.844248 
L 26.631376 54.410265 
L 26.986912 54.047782 
L 27.153906 53.918086 
L 27.396316 53.94469 
L 27.660275 54.077711 
L 27.706063 54.333778 
L 27.557924 54.699587 
L 27.455572 55.118605 
L 27.3209 55.471112 
" clip-path="url(#p17883c5ae1)" style="fill: none; stroke: #000000; stroke-width: 2"/>
    <path d="M 27.932313 48.487482 
L 28.295929 48.928116 
L 28.24206 49.526713 
L 27.784173 49.854278 
L 27.140439 49.475167 
L 26.297388 49.546666 
L 26.122314 49.628142 
L 26.135781 50.057136 
L 26.458995 50.215099 
L 26.846852 50.283273 
L 27.027314 50.439573 
L 26.351257 50.958357 
L 24.999145 50.773789 
L 23.991794 49.934091 
L 24.336556 48.487482 
L 25.176912 48.780129 
L 27.013846 48.151603 
L 27.932313 48.487482 
" clip-path="url(#p17883c5ae1)" style="fill: none; stroke: #000000; stroke-width: 2"/>
    <path d="M 151.774514 30.276836 
L 154.696909 35.880368 
L 156.975569 41.764907 
L 157.347265 42.405073 
L 158.535077 43.835054 
L 158.990271 45.035574 
L 166.647753 55.767085 
L 171.293956 60.811926 
L 171.595623 63.502286 
L 172.767274 64.140789 
L 173.106649 64.82585 
L 174.073598 67.911949 
L 174.504551 68.62694 
L 175.021693 68.931227 
L 175.455339 69.371861 
L 176.960978 72.278381 
L 177.865978 73.395761 
L 178.178418 74.010986 
L 178.528567 75.294644 
L 180.125784 77.022261 
L 180.634846 78.43894 
L 181.087346 81.533353 
L 181.709533 83.236028 
L 183.406407 85.56723 
L 183.535693 86.056085 
L 183.341764 86.528311 
L 182.840783 87.419555 
L 182.827315 87.815294 
L 183.067032 89.093963 
L 183.357925 92.745404 
L 183.664979 94.431452 
L 184.763907 97.875047 
L 184.852791 99.561094 
L 184.508029 101.120772 
L 183.761943 102.537451 
L 183.163997 104.286684 
L 183.333684 105.892919 
L 183.786184 107.56899 
L 183.966645 109.258363 
L 183.761943 112.746852 
L 183.559934 113.496761 
L 182.536423 114.728873 
L 182.137792 115.422248 
L 181.962717 116.230353 
L 181.822658 121.168777 
L 181.935783 121.838873 
L 182.137792 122.211333 
L 182.536423 122.567166 
L 182.972762 125.021413 
L 183.417181 125.437105 
L 183.293282 126.075609 
L 183.026631 126.434767 
L 182.355961 126.707461 
L 181.804383 127.162538 
L 181.773803 127.721878 
L 182.972644 128.930402 
L 183.501233 129.576259 
L 184.172441 129.691511 
L 185.022478 129.025361 
L 187.126064 126.724088 
L 187.530593 126.04681 
L 188.076852 126.481324 
L 188.432388 127.912968 
L 188.604768 128.726062 
L 188.08824 129.534716 
L 186.894949 131.908466 
L 186.803916 132.971864 
L 186.44962 135.769456 
L 185.591814 138.199989 
L 185.639279 139.720291 
L 184.761387 142.362076 
L 183.832268 144.288099 
L 184.107715 145.01739 
L 184.633938 145.776474 
L 184.214443 149.307817 
L 183.877761 149.979576 
L 183.333684 150.717845 
L 182.832702 150.990539 
L 182.420604 149.332758 
L 181.992345 148.629407 
L 181.531765 148.509688 
L 181.257033 149.307817 
L 181.709533 149.412571 
L 181.978878 149.756764 
L 182.108164 150.260584 
L 182.137792 150.84089 
L 181.992345 151.389604 
L 181.009236 151.818598 
L 181.235068 153.654992 
L 180.646136 154.66015 
L 181.143477 155.277229 
L 181.09812 155.832522 
L 180.41736 156.057637 
L 179.77654 156.447022 
L 178.85666 157.366319 
L 178.078403 157.337002 
L 177.910294 157.92295 
L 177.853164 158.67644 
L 177.43397 159.402229 
L 177.631648 160.188977 
L 176.730472 162.086893 
L 176.141793 162.803209 
L 175.600785 163.926882 
L 173.903911 163.956812 
L 173.544064 164.120464 
L 173.148639 164.167446 
L 173.116848 164.741569 
L 173.381092 165.139675 
L 173.424802 165.616849 
L 173.254977 166.160445 
L 172.51387 166.510623 
L 171.281407 165.343095 
L 170.413825 166.283497 
L 170.018727 167.032619 
L 169.892037 167.830253 
L 169.623679 168.021327 
L 169.464927 167.619747 
L 169.070045 167.186847 
L 169.181762 168.403704 
L 168.929178 168.403188 
L 168.675707 168.063152 
L 168.014197 168.497742 
L 167.7932 168.222389 
L 167.525544 167.301883 
L 167.636194 166.472803 
L 167.936519 164.830702 
L 167.778721 164.687233 
L 167.478666 165.13356 
L 166.468395 166.93537 
L 166.010772 166.967383 
L 166.01054 165.356873 
L 165.790103 165.324369 
L 165.503036 165.972088 
L 165.269169 166.951605 
L 164.448902 166.856052 
L 162.269555 166.891598 
L 162.144376 166.141111 
L 161.922746 165.742949 
L 161.62194 166.876886 
L 161.290391 167.037108 
L 160.519844 166.685871 
L 160.159228 166.002018 
L 159.763291 165.95546 
L 159.254229 166.352862 
L 159.254229 164.565385 
L 159.116863 164.417399 
L 158.83405 164.535455 
L 158.594333 164.911241 
L 158.575479 165.543093 
L 158.050256 165.127401 
L 157.640851 164.528804 
L 157.188352 164.158007 
L 156.523069 164.427375 
L 156.668515 163.850394 
L 156.393783 163.030649 
L 156.523069 162.726363 
L 156.191775 161.652214 
L 155.997846 161.539146 
L 155.618069 161.888327 
L 155.205971 162.543458 
L 155.197891 162.980766 
L 155.618069 163.867022 
L 155.989766 165.326933 
L 156.905539 166.951459 
L 156.749319 167.495184 
L 157.010584 167.531765 
L 157.654319 167.774529 
L 157.072533 168.048886 
L 156.049022 167.96741 
L 155.504944 166.876634 
L 155.278695 166.690404 
L 153.492936 166.053563 
L 152.991954 166.021971 
L 151.596747 166.382792 
L 151.618294 166.670451 
L 152.000764 167.215839 
L 151.386657 167.340547 
L 150.252714 167.91919 
L 148.951777 168.278348 
L 148.78209 168.795469 
L 148.717447 169.357485 
L 148.364605 169.72662 
L 148.364605 170.004302 
L 151.666776 168.228465 
L 152.227014 168.190222 
L 152.340139 168.908538 
L 152.606791 169.904536 
L 152.340139 170.448262 
L 151.917267 170.687701 
L 151.270839 170.797443 
L 150.624411 170.767513 
L 150.196152 170.587934 
L 149.972595 170.986999 
L 150.126122 171.17988 
L 150.425095 171.356134 
L 150.680973 171.91815 
L 150.648652 173.075437 
L 150.400854 174.748182 
L 150.705214 175.042492 
L 150.996107 174.944389 
L 151.22505 174.618486 
L 151.327401 174.216096 
L 151.774514 174.748182 
L 151.313934 175.586218 
L 150.478964 176.690297 
L 149.738124 176.91633 
L 148.743661 176.848716 
L 148.760666 176.223585 
L 149.670929 176.164862 
L 149.835229 175.890505 
L 147.780126 175.656054 
L 147.351867 175.483126 
L 146.87782 174.814693 
L 146.810483 174.478814 
L 147.149858 174.262654 
L 147.912105 173.963355 
L 147.160632 172.433608 
L 146.619248 172.975671 
L 146.075171 174.039843 
L 145.307538 174.089726 
L 144.60724 173.135296 
L 144.240931 172.897521 
L 143.489458 172.81937 
L 143.158163 173.022228 
L 142.975009 173.516071 
L 142.923833 174.748182 
L 142.223536 174.628463 
L 140.685575 174.698299 
L 140.079548 174.355769 
L 140.009519 174.134621 
L 139.966423 173.378061 
L 139.812897 173.338154 
L 139.443894 173.406328 
L 137.914013 173.075437 
L 137.760487 172.747871 
L 138.010978 168.103758 
L 138.326112 167.412046 
L 138.366513 166.911552 
L 137.849371 167.538416 
L 137.423805 168.270034 
L 136.898582 168.818748 
L 136.104014 168.888584 
L 136.710041 170.335194 
L 136.297943 170.617864 
L 135.401023 170.597911 
L 134.544506 171.146625 
L 133.986961 169.764864 
L 133.615265 169.473879 
L 133.518301 170.790792 
L 133.162765 171.831686 
L 132.470548 172.460212 
L 131.587096 172.540025 
L 130.91912 172.317214 
L 130.657855 172.347144 
L 130.455847 172.540025 
L 129.962945 172.127658 
L 129.400014 171.971358 
L 127.611562 171.908173 
L 127.433794 171.700327 
L 127.159062 170.99365 
L 126.779285 170.687701 
L 126.690402 171.001964 
L 126.819687 171.705315 
L 126.447991 172.716279 
L 126.140938 173.075437 
L 124.888483 174.089726 
L 124.193572 174.403989 
L 123.695284 173.970007 
L 123.070403 172.679698 
L 122.55326 172.470189 
L 122.192338 172.992298 
L 122.01457 173.810381 
L 122.052278 174.493779 
L 122.871088 176.151559 
L 123.45826 176.966316 
L 123.983483 177.308847 
L 124.355179 177.797701 
L 124.702634 177.967303 
L 125.114733 177.704586 
L 126.140938 176.726877 
L 126.852009 176.630437 
L 128.02366 176.786737 
L 128.645847 176.449195 
L 128.500401 177.827631 
L 128.1718 178.983255 
L 127.792023 181.023473 
L 127.517291 181.495699 
L 126.35372 181.891438 
L 125.43256 181.422537 
L 124.694554 181.262911 
L 124.088528 182.61308 
L 123.846117 182.495023 
L 123.800328 182.569848 
L 123.636028 182.61308 
L 124.088528 183.727135 
L 124.330938 185.552855 
L 124.180105 185.89206 
L 123.838037 185.699179 
L 123.296653 185.120535 
L 122.504778 185.020769 
L 121.914912 184.689878 
L 121.535136 184.086293 
L 121.373529 183.17177 
L 121.575537 182.30713 
L 122.31893 180.651012 
L 122.165403 179.960963 
L 121.898752 179.576864 
L 121.236163 178.334775 
L 120.856386 178.299857 
L 120.694779 178.123603 
L 120.735181 177.668005 
L 120.832145 177.511704 
L 120.244972 176.041817 
L 120.379645 174.96268 
L 120.072592 174.731555 
L 119.102949 176.75847 
L 118.820137 176.858236 
L 117.691581 177.262289 
L 117.034378 177.345428 
L 115.604156 177.308847 
L 115.065465 177.471798 
L 115.501805 177.835944 
L 117.058619 178.424565 
L 117.058619 178.682294 
L 115.652638 179.137893 
L 114.941567 179.543608 
L 114.820361 180.100636 
L 115.103174 180.335086 
L 115.725361 180.080683 
L 116.056656 180.225343 
L 116.290986 180.614431 
L 116.220956 180.75743 
L 115.951611 180.91373 
L 116.412191 182.539918 
L 117.368366 183.411209 
L 118.402652 184.086293 
L 119.111029 185.120535 
L 118.189869 185.064001 
L 117.942072 185.120535 
L 119.364214 185.677563 
L 119.547912 186.130033 
L 119.64159 186.981606 
L 118.997904 187.584759 
L 118.351476 187.553166 
L 117.942072 187.657921 
L 116.436432 186.703491 
L 115.951611 186.543866 
L 115.523352 186.627004 
L 114.537549 187.205648 
L 114.346314 187.518248 
L 114.820361 188.495956 
L 115.284371 188.599478 
L 115.564633 188.788626 
L 116.822667 188.454532 
L 117.511119 189.051321 
L 115.94127 190.518206 
L 115.383681 191.32499 
L 114.777256 191.041876 
L 113.823508 191.778873 
L 113.923442 192.49159 
L 114.346314 192.960491 
L 113.430439 192.965097 
L 112.078629 191.144504 
L 111.612461 190.168702 
L 110.37078 188.800243 
L 109.991003 188.88837 
L 108.679292 189.586733 
L 108.905542 190.168702 
L 107.402596 189.638279 
L 107.095543 189.051321 
L 107.055141 188.451062 
L 107.26523 188.10188 
L 108.237566 187.443424 
L 108.905542 186.543866 
L 109.554664 185.359974 
L 110.036792 185.120535 
L 110.00447 185.802271 
L 109.842863 186.464053 
L 109.358042 187.657921 
L 110.327684 187.593073 
L 111.138413 187.292112 
L 111.623235 186.610376 
L 111.612461 185.403206 
L 111.418532 184.93098 
L 110.966032 184.345685 
L 110.936404 183.727135 
L 111.114172 183.402895 
L 112.067654 182.330409 
L 112.412416 182.514976 
L 112.638666 182.764392 
L 112.695228 183.083643 
L 112.520154 183.472731 
L 112.719469 184.00648 
L 113.002282 184.37894 
L 113.382058 184.505311 
L 113.893814 184.310767 
L 114.10929 184.026433 
L 114.820361 182.61308 
L 114.359781 181.91638 
L 114.182013 181.188087 
L 113.947683 180.858858 
L 113.320109 181.356026 
L 112.598264 181.666964 
L 112.000318 181.15982 
L 111.184202 179.821291 
L 110.715541 180.569537 
L 110.047566 182.313781 
L 109.584292 182.889099 
L 109.107551 183.085306 
L 108.703533 183.06369 
L 107.87395 182.889099 
L 107.4834 183.028772 
L 107.119784 183.367977 
L 106.255186 184.400556 
L 103.313937 186.116534 
L 102.993416 187.717781 
L 102.686363 188.08359 
L 102.532836 188.519235 
L 102.780634 189.051321 
L 100.954474 190.880367 
L 101.01373 192.56974 
L 100.703983 192.850748 
L 99.823224 192.401801 
L 99.532331 192.759296 
L 99.394965 193.160023 
L 99.411126 193.598994 
L 99.596974 194.076209 
L 99.168715 193.938199 
L 98.242168 193.264778 
L 96.679966 192.706087 
L 96.421395 191.922923 
L 96.558761 189.852776 
L 96.432169 189.051321 
L 96.615323 188.540851 
L 96.574922 187.912324 
L 96.356752 187.361948 
L 95.979669 187.074289 
L 95.62144 187.179043 
L 95.260517 187.524899 
L 94.983092 187.967196 
L 94.87266 188.356284 
L 95.228196 189.757998 
L 94.207378 190.105517 
L 94.339357 190.604347 
L 95.080056 191.563765 
L 93.811441 192.313674 
L 93.3347 192.760959 
L 93.940726 193.051943 
L 93.935339 193.451008 
L 93.827601 193.540797 
L 93.625592 193.499228 
L 93.156932 193.264778 
L 92.720593 193.331289 
L 92.631709 193.519182 
L 92.626322 193.823468 
L 92.456635 194.227521 
L 92.198063 194.405437 
L 91.217647 194.658178 
L 90.848644 194.975767 
L 90.716665 195.240147 
L 89.843987 198.396083 
L 89.843987 198.868309 
L 89.035951 198.692056 
L 87.511458 199.204189 
L 87.128988 199.124376 
L 87.083199 198.642173 
L 87.395639 197.659476 
L 87.33369 197.195564 
L 87.032023 196.931183 
L 86.614538 196.846382 
L 85.749941 196.891277 
L 85.749941 196.636873 
L 85.981577 196.237809 
L 86.159345 195.572701 
L 86.307485 195.622584 
L 86.450238 195.522818 
L 86.918898 194.654853 
L 87.007782 194.237498 
L 86.88119 193.820143 
L 86.474479 193.600657 
L 85.626042 193.441031 
L 85.57756 193.219883 
L 85.749941 192.960491 
L 85.828051 191.663531 
L 85.297441 191.84311 
L 85.442887 190.857088 
L 86.102783 190.361583 
L 86.983541 190.188655 
L 87.807737 190.168702 
L 87.452202 189.610012 
L 86.88119 189.330666 
L 87.40372 188.958206 
L 87.726934 188.522561 
L 87.737708 188.140124 
L 87.33369 187.912324 
L 87.18555 187.972184 
L 86.676488 188.495956 
L 86.401756 188.492631 
L 85.973497 188.223262 
L 85.749941 188.216611 
L 85.547932 188.402841 
L 85.297441 189.051321 
L 84.721042 189.107855 
L 84.397828 189.051321 
L 83.301593 189.13446 
L 82.814079 189.330666 
L 82.752129 188.682187 
L 82.469317 188.306401 
L 81.682829 187.912324 
L 81.693603 187.782629 
L 81.329987 187.255531 
L 81.133365 187.674549 
L 80.632383 187.86743 
L 80.422294 187.784291 
L 79.649273 187.074289 
L 79.592711 186.545528 
L 79.727383 186.490657 
L 79.856669 186.26452 
L 79.988648 186.455739 
L 80.319943 186.460727 
L 80.55966 186.26452 
L 80.422294 185.845503 
L 79.536148 185.403206 
L 78.849318 184.891073 
L 78.792756 183.713833 
L 79.080955 182.405234 
L 79.463425 181.186424 
L 79.484973 180.488061 
L 79.754318 180.355039 
L 80.260687 180.454806 
L 80.454615 180.58949 
L 80.672785 181.076681 
L 81.682829 182.61308 
L 81.367695 183.035423 
L 81.270731 183.444464 
L 81.435031 184.310767 
L 82.119168 186.26452 
L 82.531266 186.515599 
L 84.171578 186.794944 
L 84.874569 187.288786 
L 85.254346 187.253868 
L 85.523691 186.543866 
L 85.151994 186.6004 
L 84.955372 186.500634 
L 84.274238 186.349799 
L 83.953267 185.839574 
L 83.531849 185.410733 
L 83.649049 184.472055 
L 83.211973 184.55333 
L 83.000722 185.131297 
L 82.656999 185.162714 
L 82.449184 184.399774 
L 82.347266 183.379615 
L 82.598935 182.798173 
L 82.408081 182.083729 
L 83.313505 181.992771 
L 84.700661 182.300456 
L 84.881213 182.627155 
L 84.788378 183.481045 
L 84.866489 183.727135 
L 85.211179 183.953706 
L 85.411632 184.229419 
L 85.843129 184.515651 
L 86.43708 184.75476 
L 87.257242 185.446031 
L 87.607588 185.679965 
L 87.751175 185.499647 
L 87.058176 184.568778 
L 87.470061 184.477782 
L 88.870616 185.274031 
L 89.824754 185.583735 
L 90.51735 185.403206 
L 89.819746 185.283487 
L 89.254121 184.91934 
L 88.260237 184.031422 
L 88.502648 183.727135 
L 87.78619 183.195049 
L 86.703422 181.785021 
L 86.102783 181.495699 
L 85.278587 181.327759 
L 84.299732 181.392174 
L 83.624807 180.946985 
L 82.790872 181.175918 
L 82.025711 180.919824 
L 81.924995 180.53179 
L 82.398283 179.929958 
L 82.862025 179.737089 
L 83.848303 179.893349 
L 85.106679 179.322402 
L 86.619925 180.454806 
L 87.128988 180.355039 
L 87.581488 180.659326 
L 87.436041 179.872836 
L 87.500684 179.15452 
L 87.896621 178.629085 
L 88.70735 178.424565 
L 90.223763 178.885152 
L 90.999477 178.943349 
L 90.765147 178.424565 
L 91.551635 178.105313 
L 91.896397 178.123603 
L 91.403495 177.548285 
L 90.652022 177.408613 
L 88.9336 177.564913 
L 89.062886 177.169174 
L 88.9336 176.194791 
L 89.3861 175.052469 
L 89.119448 174.448884 
L 88.664255 174.309211 
L 88.171353 174.543662 
L 87.807737 175.052469 
L 87.767336 175.391674 
L 88.033987 176.449195 
L 87.977425 176.504066 
L 87.581488 177.308847 
L 87.209791 178.702247 
L 86.865029 179.177799 
L 86.207827 179.237659 
L 86.207827 179.142881 
L 86.000432 178.983255 
L 86.450238 178.123603 
L 86.000432 177.890816 
L 85.698765 178.027163 
L 85.407872 178.286555 
L 84.971533 178.424565 
L 84.090775 178.225032 
L 83.810656 178.359717 
L 83.7553 178.781655 
L 83.301593 178.773746 
L 82.587829 179.013185 
L 82.240373 178.833606 
L 82.127248 178.399623 
L 82.364272 177.993907 
L 83.285433 176.933061 
L 83.479361 176.359406 
L 83.492828 176.041817 
L 83.403944 175.43158 
L 83.517069 175.130619 
L 83.945328 174.748182 
L 83.53323 174.418954 
L 83.172308 173.735556 
L 82.975686 172.935764 
L 83.040329 172.264006 
L 84.319718 171.04187 
L 83.492828 170.842338 
L 83.115745 170.912174 
L 82.466623 171.401028 
L 82.143409 171.568968 
L 82.364272 172.81937 
L 81.900999 173.246702 
L 81.303052 173.288271 
L 80.72396 173.097053 
L 80.309169 172.81937 
L 80.761669 172.540025 
L 80.222978 172.07445 
L 79.856669 171.401028 
L 80.236446 171.203159 
L 80.608142 171.223112 
L 81.435031 171.401028 
L 81.335374 170.523086 
L 82.259228 169.593599 
L 82.014124 168.737272 
L 81.071416 167.415371 
L 80.48963 166.876634 
L 79.856669 166.657148 
L 80.117934 167.574997 
L 79.88899 168.100432 
L 79.42033 168.11706 
L 78.951669 167.495184 
L 79.261416 167.059539 
L 78.410286 165.915554 
L 78.291774 165.237144 
L 78.768515 164.676791 
L 79.444571 164.585338 
L 80.045211 164.896276 
L 80.309169 165.543093 
L 80.729347 165.270399 
L 80.963677 164.801498 
L 81.230329 163.867022 
L 81.464659 164.332597 
L 81.507755 164.725011 
L 81.270731 165.862345 
L 81.294972 166.341222 
L 81.682829 166.352862 
L 81.968335 167.255745 
L 82.684793 167.609915 
L 83.242337 167.629868 
L 83.492828 167.774529 
L 83.301593 168.240105 
L 83.355462 168.689052 
L 83.592486 169.106407 
L 83.945328 169.473879 
L 84.780298 167.560032 
L 84.866489 166.911552 
L 84.850328 166.183259 
L 84.688721 165.922205 
L 83.802575 165.614592 
L 83.584406 165.390119 
L 83.245031 164.47227 
L 82.15957 163.190275 
L 81.909079 162.599992 
L 82.135329 162.23252 
L 82.291549 162.011372 
L 82.364272 161.633923 
L 82.014124 161.384508 
L 81.844436 161.060268 
L 81.909079 160.494927 
L 81.044481 160.736028 
L 80.101773 160.747668 
L 80.470776 160.287081 
L 81.076802 160.145745 
L 81.763633 160.107501 
L 82.364272 159.959515 
L 81.682829 159.656891 
L 82.038365 159.071596 
L 82.466623 158.669206 
L 82.579748 158.359931 
L 82.364272 157.551826 
L 82.477397 156.914985 
L 82.765596 156.286458 
L 83.492828 155.167415 
L 84.171578 156.00545 
L 85.052337 156.165076 
L 84.971533 155.865778 
L 83.880685 154.615375 
L 83.719078 154.17973 
L 83.961489 153.213661 
L 85.426583 149.909528 
L 86.182821 148.814097 
L 87.26244 148.424878 
L 88.49256 148.170304 
L 89.544478 148.113084 
L 90.029734 147.722079 
L 90.495848 147.045533 
L 91.154875 146.875418 
L 92.35159 148.295191 
L 92.796009 148.44484 
L 92.058004 146.225043 
L 91.557022 145.935721 
L 86.86113 146.706995 
L 85.225411 145.68227 
L 85.351941 144.143095 
L 86.127024 143.755831 
L 87.429638 142.364446 
L 89.641618 141.108856 
L 90.567164 139.812004 
L 90.708051 138.592014 
L 91.792467 137.876164 
L 92.979637 137.755978 
L 94.141488 137.9 
L 94.878047 138.469889 
L 95.405964 138.60291 
L 95.758806 139.214809 
L 96.009297 138.420006 
L 96.057779 137.939465 
L 95.311058 137.363033 
L 94.678221 137.048292 
L 93.068048 135.962433 
L 93.156932 135.609926 
L 93.706396 135.004678 
L 94.008063 134.934842 
L 96.259788 135.021306 
L 96.558761 134.865005 
L 96.9951 133.988726 
L 97.59574 133.777555 
L 97.423359 133.478256 
L 97.070517 133.170644 
L 96.679966 133.025983 
L 96.574922 133.109121 
L 94.142735 134.093481 
L 93.326619 134.133387 
L 90.142087 133.903106 
L 90.026921 132.231655 
L 89.721317 131.96494 
L 88.733831 131.625834 
L 87.277422 131.854391 
L 87.134478 130.621882 
L 93.415503 129.998081 
L 93.948807 129.677166 
L 94.517125 129.843443 
L 95.212035 129.487611 
L 96.432169 128.561448 
L 97.980903 127.944561 
L 98.635412 127.47566 
L 98.694668 126.885377 
L 96.07394 127.693483 
L 95.405964 128.15407 
L 94.845726 128.692807 
L 94.226232 128.990443 
L 93.488226 129.11515 
L 92.796009 129.4211 
L 92.292334 129.17501 
L 92.122647 128.890676 
L 91.896397 128.002758 
L 90.765147 126.328349 
L 91.225727 125.955889 
L 91.010251 125.699823 
L 90.143392 125.371957 
L 89.3861 124.071972 
L 88.804292 123.819677 
L 88.156015 124.071808 
L 88.139008 123.621734 
L 87.391164 123.143971 
L 86.744953 123.245697 
L 86.434077 124.279818 
L 86.207827 124.071972 
L 86.339632 122.878168 
L 87.463466 122.309295 
L 88.455865 121.996737 
L 89.843987 122.395901 
L 89.076353 121.270206 
L 88.486487 120.949292 
L 88.222529 121.103929 
L 88.033987 121.000838 
L 87.581488 120.442147 
L 88.675029 117.696916 
L 89.15985 117.376001 
L 88.793541 116.928716 
L 86.88119 116.232016 
L 87.379479 115.773092 
L 88.852797 115.417259 
L 89.15985 114.99159 
L 88.947067 114.449528 
L 88.424538 114.313181 
L 87.33369 114.30653 
L 87.10744 114.150229 
L 86.450238 113.44189 
L 86.450238 113.16587 
L 86.88119 113.16587 
L 86.385246 112.249911 
L 86.984832 111.919675 
L 87.667999 111.713975 
L 88.304821 110.790079 
L 89.667838 110.412378 
L 90.312647 110.069794 
L 88.381443 110.069794 
L 87.915476 110.334175 
L 87.201711 111.391696 
L 86.676488 111.491462 
L 86.347887 111.09406 
L 85.854985 109.564312 
L 85.876533 109.107051 
L 86.886577 107.808428 
L 86.781532 107.585617 
L 86.146964 107.813536 
L 85.600576 107.37446 
L 85.443605 107.342408 
L 85.289905 106.966923 
L 85.434673 106.624529 
L 85.406833 106.249905 
L 85.240174 105.547566 
L 85.024212 105.078658 
L 85.480937 105.050225 
L 86.142767 104.744949 
L 86.833135 104.767531 
L 86.884636 104.269712 
L 87.083199 103.829422 
L 86.813225 103.474629 
L 86.420856 103.393412 
L 85.889429 102.871674 
L 86.225606 102.393043 
L 86.691423 102.021295 
L 86.376347 101.454911 
L 85.582832 101.307324 
L 85.422367 100.624812 
L 85.675968 100.122138 
L 86.450238 100.000065 
L 85.852292 99.245168 
L 85.749941 98.88601 
L 84.373587 100.139738 
L 84.392441 100.427397 
L 84.626357 100.782769 
L 84.667539 101.475816 
L 84.423716 102.272529 
L 84.569141 103.342525 
L 84.217736 104.256027 
L 83.918152 104.629736 
L 83.305507 104.155123 
L 82.665515 104.126847 
L 82.028686 103.71094 
L 82.188179 101.503773 
L 82.384776 100.706756 
L 82.004611 100.527371 
L 82.119168 99.491258 
L 81.763633 99.068915 
L 81.230329 99.16203 
L 80.931356 99.694116 
L 80.850553 100.347584 
L 80.610835 100.826461 
L 79.856669 100.838101 
L 80.166416 101.466628 
L 80.769749 102.42272 
L 80.987919 103.096141 
L 80.624303 103.402091 
L 80.672785 103.739633 
L 81.230329 104.489542 
L 80.72396 104.589308 
L 80.295702 104.832072 
L 79.649273 105.60526 
L 79.65466 105.305961 
L 79.541535 104.725655 
L 79.42841 104.489542 
L 79.883603 103.49188 
L 78.911268 101.908924 
L 79.20216 101.115783 
L 78.951669 100.000065 
L 78.340256 100.33927 
L 77.464884 101.436698 
L 76.099304 101.88232 
L 75.759929 101.905599 
L 75.358605 101.674474 
L 75.124275 101.104144 
L 75.073099 100.728358 
L 75.234706 100.558756 
L 76.600286 100.572058 
L 76.947741 100.337607 
L 76.939661 99.72072 
L 76.584126 99.078891 
L 75.113501 98.32732 
L 74.943814 98.816174 
L 74.846849 99.833788 
L 74.661001 100.306015 
L 74.273144 100.655196 
L 74.143859 100.325968 
L 74.211195 98.031347 
L 75.226626 96.591389 
L 75.358605 96.069279 
L 75.606403 96.820851 
L 76.013114 97.489284 
L 76.188188 97.326333 
L 76.939661 97.489284 
L 76.239364 96.375229 
L 77.182072 96.654574 
L 77.569929 96.554808 
L 77.82042 96.069279 
L 76.974676 96.00942 
L 76.45484 95.776632 
L 76.392891 95.267825 
L 76.939661 94.396534 
L 76.190882 93.782972 
L 76.239364 93.214305 
L 76.810375 92.755381 
L 77.618411 92.467722 
L 77.408322 93.465383 
L 77.489125 93.741403 
L 77.944318 93.837843 
L 78.765821 93.822878 
L 78.986684 93.671567 
L 79.20216 93.304095 
L 79.261416 92.384583 
L 79.177919 91.149146 
L 79.331446 90.141508 
L 80.101773 89.907058 
L 80.002115 90.470736 
L 80.026356 91.353667 
L 80.171803 92.248236 
L 80.583901 93.324048 
L 80.381892 93.703159 
L 79.856669 94.396534 
L 79.867443 94.77232 
L 80.101773 95.537193 
L 79.921312 95.730075 
L 79.20216 96.222254 
L 79.34222 96.947221 
L 79.517294 97.165044 
L 79.754318 97.056964 
L 80.311862 96.548157 
L 80.729347 96.536517 
L 81.682829 97.184997 
L 80.998692 95.718435 
L 80.756282 94.805575 
L 81.109124 94.396534 
L 81.642427 95.071618 
L 81.968335 95.281127 
L 82.259228 94.700821 
L 83.266578 94.396534 
L 83.266578 94.14213 
L 83.00262 94.102224 
L 82.364272 93.837843 
L 82.364272 93.58344 
L 83.161534 93.398872 
L 83.630194 92.645638 
L 83.7514 91.72779 
L 83.492828 91.04938 
L 83.204629 90.954602 
L 82.337338 90.939637 
L 81.909079 90.768372 
L 81.588558 90.382609 
L 81.483514 90.003498 
L 81.642427 89.870477 
L 82.119168 90.211344 
L 82.337338 89.577829 
L 82.103007 89.202043 
L 81.593945 89.049069 
L 80.987919 89.093963 
L 81.233023 88.7797 
L 81.561624 88.553564 
L 81.917159 88.493704 
L 82.832933 88.969256 
L 82.959525 88.842885 
L 82.814079 88.535273 
L 82.814079 88.230986 
L 84.034212 88.211033 
L 84.618691 88.413891 
L 84.866489 88.954291 
L 84.699495 89.288507 
L 84.381667 89.642677 
L 84.187739 90.10659 
L 84.397828 90.768372 
L 84.688721 90.480713 
L 85.06311 90.279518 
L 85.386325 90.286169 
L 85.749941 91.453433 
L 85.297441 92.165098 
L 85.407872 94.519579 
L 85.650283 94.890376 
L 85.892694 95.030049 
L 86.000432 94.83883 
L 86.135104 93.821216 
L 86.741131 91.869125 
L 86.88119 90.908044 
L 87.058958 90.681908 
L 87.460282 90.951276 
L 88.033987 91.579803 
L 88.688496 92.700509 
L 89.15985 92.720463 
L 89.15985 92.467722 
L 88.922826 92.156784 
L 88.381443 90.908044 
L 86.207827 88.674946 
L 86.320952 88.234312 
L 86.603765 88.284195 
L 86.94314 88.600121 
L 87.751175 89.498016 
L 88.09055 89.650991 
L 88.502648 89.652654 
L 88.812395 89.473075 
L 88.842023 89.192067 
L 88.615773 88.929349 
L 88.147112 88.814618 
L 87.516845 88.51532 
L 86.831233 87.881581 
L 86.522315 86.938003 
L 86.450238 86.3055 
L 87.056265 86.288872 
L 87.584181 86.53995 
L 88.720649 87.417888 
L 90.599024 88.712182 
L 90.930013 89.270034 
L 90.774035 89.822611 
L 90.452707 90.196379 
L 90.51735 90.489027 
L 90.845951 91.110902 
L 90.886352 91.493339 
L 90.765147 92.165098 
L 91.128763 91.915682 
L 91.363093 91.273854 
L 91.237156 90.271203 
L 91.581932 89.591205 
L 91.8881 89.021929 
L 92.434246 88.769408 
L 93.51996 88.837325 
L 95.532556 89.652654 
L 96.23016 90.360993 
L 96.278642 91.233947 
L 95.758806 92.999808 
L 96.154743 92.740416 
L 96.776931 91.947275 
L 97.116305 91.885753 
L 97.353329 92.221632 
L 97.490695 92.823554 
L 97.528403 94.240233 
L 97.342555 95.118176 
L 97.407198 95.454055 
L 97.700784 95.942909 
L 97.980903 97.214927 
L 97.886633 97.579074 
L 97.342555 97.743688 
L 97.571499 98.322331 
L 98.037466 98.606665 
L 98.231394 97.688816 
L 98.557302 97.143428 
L 98.724296 96.561459 
L 98.449564 95.537193 
L 99.120233 95.730075 
L 99.823224 95.816539 
L 98.686588 94.569462 
L 98.347213 93.882738 
L 99.023269 93.58344 
L 99.631989 93.483674 
L 101.070292 92.910018 
L 102.128818 92.111889 
L 102.627107 91.879102 
L 102.985336 91.480037 
L 103.146943 90.312773 
L 102.780634 89.907058 
L 103.136169 89.720827 
L 103.305857 89.727478 
L 104.278193 89.288507 
L 104.364383 88.814618 
L 102.384696 89.363332 
L 102.085723 89.780687 
L 102.190768 91.044392 
L 101.951051 91.330388 
L 101.180724 91.579803 
L 100.084489 91.428491 
L 98.783552 90.678582 
L 97.609207 89.537923 
L 97.162675 88.446086 
L 99.144474 88.230986 
L 99.144474 87.976583 
L 98.694668 87.675622 
L 99.419206 87.647354 
L 99.742421 87.757097 
L 100.027926 87.976583 
L 99.887867 87.198407 
L 99.435367 86.505032 
L 99.106766 85.710229 
L 99.349177 84.632754 
L 98.974787 84.466477 
L 98.686588 84.843926 
L 98.50882 85.494069 
L 98.296037 86.86419 
L 97.980903 87.028804 
L 97.668463 86.719529 
L 96.397154 87.010514 
L 94.87266 86.558241 
L 94.882841 86.095377 
L 94.739332 85.688725 
L 94.859256 85.138537 
L 94.794548 84.43846 
L 95.63553 83.126063 
L 96.7258 82.663623 
L 97.563418 82.650734 
L 98.457644 82.411295 
L 98.643492 82.138601 
L 98.694668 81.382041 
L 98.489966 81.234054 
L 98.029385 81.481807 
L 97.342555 82.068765 
L 96.914297 81.982301 
L 96.599163 81.799396 
L 96.429475 81.476819 
L 96.432169 80.977988 
L 95.645681 81.373727 
L 95.007333 81.822675 
L 93.523241 83.322492 
L 93.140771 83.457177 
L 92.785236 83.445537 
L 92.569759 83.236028 
L 92.583227 82.860243 
L 93.27275 81.816024 
L 92.308495 82.035509 
L 92.001441 81.940731 
L 91.896397 81.382041 
L 92.074164 80.968011 
L 93.27275 80.394356 
L 93.674075 79.853956 
L 93.56903 79.714284 
L 92.682884 79.835666 
L 92.389298 79.657749 
L 91.670147 78.161257 
L 91.912557 78.05484 
L 92.122647 77.858633 
L 92.365057 78.041538 
L 92.731367 78.021585 
L 93.375101 77.858633 
L 93.900324 78.001632 
L 94.773003 78.407347 
L 95.282065 78.161257 
L 95.282065 79.059153 
L 95.443672 79.401683 
L 95.758806 79.556321 
L 96.106261 79.421636 
L 96.267868 79.037537 
L 96.432169 78.161257 
L 96.989713 77.33985 
L 97.4476 77.403035 
L 97.964743 77.710647 
L 98.694668 77.605893 
L 98.336439 77.023923 
L 97.770814 76.767857 
L 97.311006 76.784755 
L 97.100942 76.473257 
L 96.606412 76.385025 
L 96.207821 76.509306 
L 95.184575 76.364559 
L 94.14754 76.041581 
L 92.70724 74.966199 
L 92.630957 74.494572 
L 93.708507 73.145005 
L 93.613098 72.867726 
L 91.878408 72.649942 
L 91.070502 73.662502 
L 90.234711 73.035018 
L 90.575434 72.292375 
L 91.013852 71.64377 
L 90.73848 71.185182 
L 89.602481 70.586775 
L 89.678786 69.840147 
L 89.57047 69.253912 
L 89.892934 68.705389 
L 91.126165 68.281804 
L 91.197027 67.941692 
L 90.750621 67.822537 
L 90.629814 68.178317 
L 89.948876 68.251174 
L 89.771957 67.842926 
L 89.699101 67.09493 
L 89.860875 66.106419 
L 89.147886 64.668539 
L 88.806473 64.095986 
L 88.428506 63.733981 
L 88.420932 63.182557 
L 88.284478 62.358301 
L 87.928943 61.071318 
L 87.452202 57.712524 
L 87.581488 57.160485 
L 88.02052 57.080672 
L 89.843987 57.719175 
L 90.425772 57.596131 
L 91.341546 57.290181 
L 91.783272 57.579503 
L 91.947572 58.061706 
L 92.012215 58.81494 
L 91.963733 59.588128 
L 91.783272 60.116888 
L 91.769804 61.074643 
L 92.785236 61.907691 
L 94.072705 62.438114 
L 94.87266 62.486334 
L 94.250473 61.856145 
L 92.34351 60.509302 
L 92.898361 59.059367 
L 93.062661 58.191402 
L 92.922602 57.579503 
L 92.610161 56.939337 
L 92.545518 56.122917 
L 92.696352 55.303172 
L 93.043807 54.649704 
L 92.796009 54.345417 
L 92.470102 54.390312 
L 91.968056 54.725186 
L 91.738278 51.210832 
L 91.912733 50.23733 
L 92.311242 49.953305 
L 92.923545 49.887841 
L 93.777005 49.571084 
L 95.093968 48.546901 
L 97.921163 44.337194 
L 98.499258 43.764919 
L 99.775173 42.801976 
L 100.320772 42.188523 
L 101.442756 39.488693 
L 102.044796 38.743257 
L 103.859469 37.290396 
L 105.96832 36.007528 
L 108.186633 35.134333 
L 110.32114 34.910491 
L 111.37471 35.019245 
L 115.455585 34.672923 
L 118.594062 35.596799 
L 119.591191 35.508107 
L 121.53585 34.935832 
L 127.920555 34.393121 
L 128.192499 34.572617 
L 129.022015 35.565123 
L 129.476966 35.6781 
L 131.664493 35.231472 
L 135.136486 35.427862 
L 137.390717 35.254701 
L 139.66205 34.469142 
L 141.776032 33.142984 
L 143.537684 31.352249 
L 144.303917 30.290055 
L 144.943585 29.156063 
L 145.374591 27.895369 
L 145.51826 26.445675 
L 145.16593 24.335014 
L 145.374591 23.807085 
L 146.277652 23.115498 
L 148.14922 22.176 
L 150.680973 27.019472 
L 150.988027 28.314769 
L 151.774514 30.276836 
L 151.774514 30.276836 
" clip-path="url(#p17883c5ae1)" style="fill: none; stroke: #000000; stroke-width: 2"/>
   </g>
  </g>
 </g>
 <defs>
  <clipPath id="p17883c5ae1">
   <rect x="0" y="-0" width="287.901527" height="266.112"/>
  </clipPath>
 </defs>
</svg>
