<?xml version="1.0" encoding="utf-8" standalone="no"?>
<!DOCTYPE svg PUBLIC "-//W3C//DTD SVG 1.1//EN"
  "http://www.w3.org/Graphics/SVG/1.1/DTD/svg11.dtd">
<svg xmlns:xlink="http://www.w3.org/1999/xlink" width="281.803556pt" height="266.112pt" viewBox="0 0 281.803556 266.112" xmlns="http://www.w3.org/2000/svg" version="1.1">
 <metadata>
  <rdf:RDF xmlns:dc="http://purl.org/dc/elements/1.1/" xmlns:cc="http://creativecommons.org/ns#" xmlns:rdf="http://www.w3.org/1999/02/22-rdf-syntax-ns#">
   <cc:Work>
    <dc:type rdf:resource="http://purl.org/dc/dcmitype/StillImage"/>
    <dc:date>2024-02-02T21:58:02.893088</dc:date>
    <dc:format>image/svg+xml</dc:format>
    <dc:creator>
     <cc:Agent>
      <dc:title>Matplotlib v3.8.2, https://matplotlib.org/</dc:title>
     </cc:Agent>
    </dc:creator>
   </cc:Work>
  </rdf:RDF>
 </metadata>
 <defs>
  <style type="text/css">*{stroke-linejoin: round; stroke-linecap: butt}</style>
 </defs>
 <g id="figure_1">
  <g id="patch_1">
   <path d="M -0 266.112 
L 281.803556 266.112 
L 281.803556 0 
L -0 0 
L -0 266.112 
z
" style="fill: none"/>
  </g>
  <g id="axes_1">
   <g id="PatchCollection_1">
    <path d="M 251.935134 116.314428 
L 252.910625 117.6062 
L 254.202676 121.465822 
L 253.942274 122.903196 
L 252.111484 122.252374 
L 250.934212 121.993114 
L 249.756272 121.211094 
L 246.351144 118.212729 
L 243.995791 117.302767 
L 240.725526 116.787458 
L 238.110489 116.924052 
L 238.207867 113.211867 
L 238.207867 113.200334 
L 239.575565 111.055069 
L 241.727679 110.766727 
L 246.635303 112.231504 
L 248.566171 112.992727 
L 249.531606 113.817386 
L 250.959644 115.028422 
L 251.935134 116.314428 
" clip-path="url(#p061615658a)" style="fill: none; stroke: #000000; stroke-width: 2"/>
    <path d="M 228.161317 38.427476 
L 247.409662 65.773835 
L 249.270134 70.894789 
L 248.425379 77.226781 
L 246.092246 81.551911 
L 242.290849 86.378757 
L 237.745263 90.525115 
L 233.139337 92.797251 
L 232.314695 92.710748 
L 227.799279 92.226334 
L 224.812467 88.575923 
L 220.498182 78.282112 
L 215.359257 69.003266 
L 214.635181 68.138239 
L 213.951332 67.319348 
L 211.477406 65.854571 
L 210.532085 64.378259 
L 210.532085 64.372492 
L 212.895388 62.711642 
L 214.333483 61.950419 
L 217.00854 60.08773 
L 218.376238 59.718652 
L 218.838842 58.89976 
L 219.562918 54.009479 
L 217.60188 53.225189 
L 216.566049 53.057951 
L 215.37937 53.115619 
L 215.359257 53.121386 
L 216.586162 51.016489 
L 218.336012 51.172194 
L 221.342937 53.121386 
L 222.740806 53.340526 
L 224.450429 53.213655 
L 225.415863 52.262127 
L 224.711901 50.04766 
L 226.944467 49.06153 
L 228.77477 47.936996 
L 229.237373 46.674058 
L 227.256222 45.295783 
L 227.246165 45.290016 
L 225.838241 45.09971 
L 224.20907 45.855166 
L 223.032447 45.290016 
L 222.489391 44.355788 
L 222.187692 42.867943 
L 222.067013 41.368564 
L 222.067013 41.362797 
L 222.187692 40.376668 
L 222.187692 40.365134 
L 220.005409 40.393968 
L 219.703711 40.145994 
L 219.26122 39.77115 
L 219.774107 38.733118 
L 221.342937 37.556683 
L 223.122957 36.81276 
L 224.872806 36.708957 
L 226.562316 37.245273 
L 228.161317 38.427476 
" clip-path="url(#p061615658a)" style="fill: none; stroke: #000000; stroke-width: 2"/>
    <path d="M 208.68167 40.203662 
L 207.766519 40.365134 
L 206.851367 39.823051 
L 206.167518 38.865755 
L 205.986499 37.954595 
L 207.696122 36.778159 
L 210.230387 33.39879 
L 211.598086 32.626034 
L 216.425257 31.945546 
L 216.435313 31.945546 
L 218.336012 32.130085 
L 217.953861 33.594863 
L 214.584898 35.520988 
L 213.790426 36.276444 
L 212.59369 37.873859 
L 212.050633 38.427476 
L 208.68167 40.203662 
" clip-path="url(#p061615658a)" style="fill: none; stroke: #000000; stroke-width: 2"/>
    <path d="M 207.52516 67.313581 
L 211.316501 72.521038 
L 214.584898 72.382634 
L 216.706842 78.731926 
L 219.562918 85.058151 
L 224.77224 92.555044 
L 227.19566 98.140812 
L 226.681722 101.017988 
L 223.933334 101.418598 
L 218.869012 99.215745 
L 216.274408 97.629863 
L 215.459823 96.326557 
L 213.03787 95.966994 
L 207.787145 94.939056 
L 200.579161 96.145256 
L 196.927107 99.301867 
L 193.793544 102.453288 
L 186.210654 106.678109 
L 180.993933 111.547466 
L 178.264008 115.880357 
L 175.658236 119.298338 
L 170.038235 121.953974 
L 169.521578 124.182426 
L 168.348958 126.2854 
L 171.102478 126.527246 
L 179.103328 125.031436 
L 184.733524 122.902096 
L 186.444721 123.93768 
L 182.917954 126.314039 
L 182.928172 128.014356 
L 182.154506 129.981101 
L 185.181119 132.053934 
L 187.278999 132.039994 
L 192.380455 130.308109 
L 193.146859 126.904743 
L 194.977669 126.10976 
L 197.340898 126.8806 
L 199.818362 125.037639 
L 201.11706 122.939831 
L 203.076552 122.015421 
L 203.975178 122.842492 
L 206.137348 125.87585 
L 207.957594 127.525166 
L 212.657822 129.157421 
L 217.229208 128.224023 
L 216.337816 134.498988 
L 216.216745 137.113244 
L 216.624916 141.292321 
L 217.953898 147.559593 
L 219.007727 150.432225 
L 220.71162 153.175408 
L 221.373618 156.050023 
L 224.420259 175.372645 
L 226.592486 180.118755 
L 232.757186 189.403368 
L 234.617658 191.191089 
L 239.374433 192.782737 
L 239.736471 194.916468 
L 239.213527 197.707619 
L 239.052622 200.556438 
L 240.078395 203.347589 
L 243.457415 208.157135 
L 244.181491 209.875653 
L 245.468736 211.842146 
L 248.375096 213.082017 
L 253.473795 214.18925 
L 252.267002 216.369116 
L 251.754116 218.871925 
L 251.884851 221.461236 
L 252.62904 223.866009 
L 250.758511 222.551169 
L 250.094775 221.939884 
L 249.943926 223.058651 
L 250.064606 223.779506 
L 250.617719 224.315823 
L 251.784285 224.921341 
L 250.859078 226.126611 
L 250.275794 226.472621 
L 249.793077 226.270782 
L 249.270134 225.803668 
L 248.425379 225.803668 
L 248.314756 228.767824 
L 249.451153 229.471378 
L 251.140663 228.606352 
L 252.62904 226.858999 
L 252.970965 228.312243 
L 253.473795 235.128649 
L 253.916286 236.876002 
L 254.921947 238.779059 
L 256.852815 241.374138 
L 258.319926 242.947493 
L 163.827546 243.936 
L 162.799409 240.175184 
L 160.487697 237.736329 
L 157.652337 235.718598 
L 155.014942 233.261433 
L 153.14386 230.049909 
L 151.45797 225.867969 
L 150.270185 221.546875 
L 149.797625 213.90806 
L 149.22289 210.334002 
L 142.370771 191.423724 
L 134.816197 178.570301 
L 78.696511 171.129231 
L 23.48363 164.2521 
L 45.655631 139.358206 
L 53.395397 126.299714 
L 61.313969 117.591611 
L 63.153121 114.815857 
L 66.818653 105.184945 
L 76.05273 89.889005 
L 78.466617 84.5682 
L 78.773143 83.140042 
L 79.245703 78.855568 
L 79.884297 76.819527 
L 84.405546 68.389732 
L 94.916812 41.63557 
L 99.144308 35.622658 
L 105.619656 31.242973 
L 125.531033 23.040219 
L 132.644976 22.176 
L 164.574702 22.176 
L 171.650329 23.545567 
L 198.413875 36.939631 
L 199.288799 39.315569 
L 200.576045 41.472367 
L 201.782838 44.234684 
L 202.335951 47.227675 
L 202.305781 52.487033 
L 202.697989 55.843335 
L 204.296989 60.514476 
L 207.52516 67.313581 
L 207.52516 67.313581 
" clip-path="url(#p061615658a)" style="fill: none; stroke: #000000; stroke-width: 2"/>
   </g>
  </g>
 </g>
 <defs>
  <clipPath id="p061615658a">
   <rect x="0" y="-0" width="281.803556" height="266.112"/>
  </clipPath>
 </defs>
</svg>
