<?xml version="1.0" encoding="utf-8" standalone="no"?>
<!DOCTYPE svg PUBLIC "-//W3C//DTD SVG 1.1//EN"
  "http://www.w3.org/Graphics/SVG/1.1/DTD/svg11.dtd">
<svg xmlns:xlink="http://www.w3.org/1999/xlink" width="222.938111pt" height="266.112pt" viewBox="0 0 222.938111 266.112" xmlns="http://www.w3.org/2000/svg" version="1.1">
 <metadata>
  <rdf:RDF xmlns:dc="http://purl.org/dc/elements/1.1/" xmlns:cc="http://creativecommons.org/ns#" xmlns:rdf="http://www.w3.org/1999/02/22-rdf-syntax-ns#">
   <cc:Work>
    <dc:type rdf:resource="http://purl.org/dc/dcmitype/StillImage"/>
    <dc:date>2024-02-02T21:58:02.918095</dc:date>
    <dc:format>image/svg+xml</dc:format>
    <dc:creator>
     <cc:Agent>
      <dc:title>Matplotlib v3.8.2, https://matplotlib.org/</dc:title>
     </cc:Agent>
    </dc:creator>
   </cc:Work>
  </rdf:RDF>
 </metadata>
 <defs>
  <style type="text/css">*{stroke-linejoin: round; stroke-linecap: butt}</style>
 </defs>
 <g id="figure_1">
  <g id="patch_1">
   <path d="M 0 266.112 
L 222.938111 266.112 
L 222.938111 0 
L 0 0 
L 0 266.112 
z
" style="fill: none"/>
  </g>
  <g id="axes_1">
   <g id="PatchCollection_1">
    <path d="M 62.053614 25.205017 
L 62.283247 24.86846 
L 62.38728 24.343591 
L 62.635943 23.890841 
L 63.071103 23.730575 
L 64.139339 23.7052 
L 64.663308 23.491512 
L 65.654154 23.467473 
L 67.396064 23.905532 
L 67.637115 24.060455 
L 67.931631 24.72155 
L 68.209294 24.72155 
L 69.129094 26.656755 
L 69.085958 27.121525 
L 69.44246 27.510169 
L 70.220166 28.135204 
L 70.377484 28.653396 
L 70.850705 29.092791 
L 72.328728 29.826005 
L 74.087131 31.514135 
L 75.086858 32.181908 
L 75.24925 32.455694 
L 75.660305 33.387905 
L 77.151015 34.442986 
L 76.746303 35.116101 
L 77.033027 36.092385 
L 77.961707 36.567839 
L 79.050243 36.923094 
L 79.806381 37.545459 
L 80.643716 39.424571 
L 80.875886 40.480988 
L 80.809914 42.587143 
L 81.090295 43.575447 
L 81.338958 43.878616 
L 81.436647 43.823858 
L 83.00094 43.739719 
L 83.762154 43.242896 
L 84.315302 42.545741 
L 84.609638 41.717703 
L 84.670535 39.639594 
L 85.10189 39.232253 
L 85.586529 39.614219 
L 85.794594 40.794841 
L 85.719741 41.824547 
L 85.799669 42.324041 
L 86.095273 42.633887 
L 86.520284 42.60317 
L 88.565411 41.789823 
L 88.862284 42.412187 
L 88.907957 42.710013 
L 88.966317 45.111324 
L 89.231473 45.897961 
L 89.211174 45.971416 
L 88.720191 46.437521 
L 87.799123 47.567393 
L 87.268811 48.040176 
L 86.15617 49.845834 
L 87.494637 49.140665 
L 87.834646 49.207443 
L 87.804197 49.503934 
L 86.994774 50.80342 
L 86.89201 51.332296 
L 86.782903 52.949642 
L 86.483492 53.247468 
L 85.652501 53.451807 
L 85.250326 53.761653 
L 84.968677 54.25447 
L 85.161518 54.363984 
L 86.168857 54.335938 
L 86.855218 54.699206 
L 87.219332 55.281504 
L 87.190152 55.51656 
L 86.974475 56.280492 
L 87.12418 56.539588 
L 87.745838 56.746598 
L 88.027284 57.205589 
L 88.427124 58.647079 
L 88.658025 59.057092 
L 88.852135 59.139895 
L 89.211174 59.091816 
L 89.826488 59.357589 
L 90.203289 59.792977 
L 91.975647 63.373575 
L 93.038809 64.590257 
L 93.454939 64.819971 
L 94.355708 65.05102 
L 94.926618 65.374222 
L 95.391114 65.326591 
L 95.913658 65.215292 
L 96.313295 65.327478 
L 97.698704 66.064699 
L 98.778358 66.329137 
L 99.443151 66.144832 
L 100.115557 65.704102 
L 100.319816 65.474388 
L 100.659824 65.6026 
L 100.957966 65.897756 
L 101.670969 67.097076 
L 102.268522 67.405587 
L 102.518454 67.421614 
L 104.035806 67.74348 
L 104.512833 68.015931 
L 106.182428 69.672008 
L 106.674679 69.688034 
L 107.240515 69.452978 
L 107.382608 69.324766 
L 107.369921 69.115085 
L 107.090809 68.368515 
L 107.362309 67.927785 
L 107.876128 67.794231 
L 108.471143 67.308092 
L 108.38741 67.058345 
L 108.334125 66.529469 
L 108.632267 65.589245 
L 109.127055 64.821306 
L 109.399824 64.729154 
L 110.145813 64.777233 
L 110.365296 64.65837 
L 110.926057 64.210962 
L 113.759039 63.364226 
L 114.657271 63.21598 
L 115.788942 61.904475 
L 116.831804 61.933857 
L 117.407789 62.309145 
L 119.157312 62.65238 
L 119.482096 62.968905 
L 119.824642 63.631335 
L 119.995915 63.623322 
L 120.781234 63.452372 
L 121.245574 63.643355 
L 121.64648 63.946524 
L 121.939547 64.339174 
L 122.33284 65.133824 
L 122.859346 65.656022 
L 123.431525 65.928474 
L 123.94915 66.759183 
L 124.446476 66.908764 
L 125.509638 66.950166 
L 125.842034 67.310763 
L 126.075473 68.122775 
L 126.483991 68.539465 
L 127.750143 69.143132 
L 129.145701 69.613244 
L 129.473328 70.076716 
L 129.305556 70.685687 
L 127.719694 72.839922 
L 127.18177 73.264626 
L 126.570262 73.454273 
L 125.928305 73.344758 
L 125.321872 72.867969 
L 124.799172 73.880312 
L 123.393464 74.835227 
L 123.231072 75.32003 
L 124.010047 75.812847 
L 125.012312 76.061258 
L 128.526581 75.983796 
L 128.866589 76.170773 
L 129.429887 76.94806 
L 129.825718 77.230528 
L 130.758205 77.593129 
L 131.206052 78.077264 
L 131.303741 78.904635 
L 131.137543 79.255215 
L 130.536184 79.458218 
L 130.404241 80.32432 
L 130.528572 81.18775 
L 131.358295 81.605108 
L 132.407501 81.392756 
L 133.517604 81.024145 
L 134.50845 80.973395 
L 136.689326 82.153349 
L 136.713431 82.347671 
L 136.577682 82.624797 
L 136.613205 83.205091 
L 136.944333 83.693901 
L 137.889506 84.312259 
L 138.074735 84.718265 
L 137.994807 84.821102 
L 137.572334 84.950649 
L 137.633231 85.335954 
L 137.708084 86.801048 
L 137.369344 87.0942 
L 137.044559 87.143615 
L 136.318869 87.059476 
L 135.732735 87.259808 
L 135.687062 87.482176 
L 135.459967 87.842106 
L 134.905549 88.264138 
L 133.563276 89.060123 
L 133.100205 89.643757 
L 132.946694 90.121882 
L 133.073562 90.265453 
L 133.799253 90.311529 
L 134.446284 90.610692 
L 134.408223 91.274458 
L 134.160829 92.089141 
L 133.674921 92.449738 
L 133.073562 92.71885 
L 132.484891 93.257743 
L 130.992912 93.799975 
L 130.47275 94.490452 
L 129.478097 96.830327 
L 129.249733 96.855035 
L 128.617926 96.556541 
L 128.397174 96.627325 
L 127.805965 96.972563 
L 127.232518 97.038673 
L 126.816388 96.949859 
L 124.248561 95.357221 
L 123.728398 94.818328 
L 123.236147 94.762235 
L 122.790837 94.877092 
L 121.64648 95.604297 
L 121.198632 94.854388 
L 120.342267 94.562571 
L 120.018751 94.282774 
L 118.280647 94.75489 
L 117.743992 94.762235 
L 117.453462 95.06073 
L 117.079199 95.604297 
L 116.575529 95.681091 
L 116.108652 95.522828 
L 114.649659 94.837026 
L 114.421295 94.935856 
L 114.279202 95.345201 
L 114.340099 95.665064 
L 114.823469 97.011962 
L 115.107656 97.383243 
L 116.154324 98.078395 
L 116.311642 98.498424 
L 116.423286 99.366529 
L 116.708742 99.723787 
L 116.605978 100.028959 
L 115.882825 100.348822 
L 115.724239 100.625948 
L 115.540279 101.480697 
L 115.337289 101.857321 
L 115.259899 101.760494 
L 114.898322 101.803899 
L 113.238877 102.424928 
L 112.949616 102.673339 
L 112.464976 103.411896 
L 112.086907 103.6957 
L 110.880384 104.331419 
L 110.676125 104.778159 
L 110.924788 104.896355 
L 111.762123 104.93375 
L 112.211239 105.731739 
L 113.728591 106.706687 
L 113.759039 106.706687 
L 114.279202 106.485654 
L 114.79429 106.458943 
L 115.299228 106.578475 
L 118.024372 107.802502 
L 119.261344 108.731374 
L 119.568367 109.925352 
L 120.278833 109.715004 
L 120.778696 109.839877 
L 122.302392 110.96641 
L 123.11689 111.291615 
L 123.530483 111.661561 
L 124.235874 112.728662 
L 124.542897 112.965722 
L 124.980595 113.063216 
L 125.743077 112.983751 
L 126.20488 113.105286 
L 126.915345 113.656866 
L 128.049554 115.204764 
L 129.225628 115.922619 
L 130.262147 116.856834 
L 131.358295 117.198733 
L 131.835322 117.799061 
L 132.122046 117.904569 
L 133.126847 118.04814 
L 134.415835 118.378688 
L 135.827886 118.26717 
L 136.477455 118.457485 
L 136.719775 119.101886 
L 136.977319 119.362985 
L 137.407404 119.477174 
L 138.706542 119.429094 
L 139.938439 120.15296 
L 140.533454 120.369319 
L 141.714604 120.325246 
L 142.412383 121.495183 
L 143.108893 122.076814 
L 143.108893 122.482819 
L 142.927471 122.913533 
L 142.681345 122.949593 
L 142.393353 122.854769 
L 142.093942 122.894835 
L 141.73744 123.362276 
L 141.415193 124.128879 
L 141.04093 125.560584 
L 140.911524 126.631024 
L 141.17668 127.350215 
L 141.746321 127.903131 
L 142.946501 128.914139 
L 142.931277 129.227325 
L 142.777765 129.569892 
L 142.794258 130.107449 
L 143.027697 130.444674 
L 144.361089 131.374882 
L 144.740428 131.926462 
L 145.255674 131.977943 
L 146.129642 131.841655 
L 146.29584 132.118113 
L 146.333901 132.405255 
L 146.191808 133.318101 
L 146.45062 133.694057 
L 147.298105 134.170179 
L 147.867746 134.36183 
L 147.990809 134.498055 
L 148.315593 134.16684 
L 148.571869 133.354161 
L 149.014641 133.155832 
L 149.53861 133.190556 
L 150.030861 133.392891 
L 150.556098 133.928445 
L 150.761626 134.788537 
L 150.634757 135.083024 
L 150.74767 135.177848 
L 151.127009 135.320084 
L 151.730905 136.411892 
L 152.365249 136.849951 
L 152.497193 137.134422 
L 152.679884 137.977152 
L 152.847351 138.160121 
L 153.428411 138.48733 
L 153.826779 139.300677 
L 153.53498 141.265265 
L 153.80648 142.140047 
L 154.757997 143.022843 
L 155.392341 144.238189 
L 156.163704 145.413469 
L 156.70036 146.811786 
L 156.99977 147.056191 
L 158.279878 147.623797 
L 159.076615 148.154009 
L 159.718571 148.763018 
L 161.837282 151.406063 
L 163.972486 154.022396 
L 168.051321 157.565599 
L 168.587977 157.852741 
L 168.944478 157.888801 
L 169.228665 157.705831 
L 169.694274 157.122198 
L 169.880771 156.742903 
L 170.1916 156.726876 
L 170.484667 156.85776 
L 170.695269 157.836715 
L 171.122818 158.348229 
L 171.103787 158.585956 
L 170.884304 159.267084 
L 171.020054 159.655728 
L 171.760968 160.895114 
L 172.942118 162.01163 
L 173.180631 162.609955 
L 173.003015 162.998598 
L 173.816245 164.510436 
L 174.706864 164.900415 
L 175.696442 165.150162 
L 176.376459 164.495745 
L 176.594674 164.924455 
L 176.635272 172.396833 
L 176.99558 173.57879 
L 177.552534 174.205161 
L 178.512932 174.695307 
L 178.841522 174.723353 
L 179.215786 174.900981 
L 179.317281 175.193465 
L 179.239891 176.872246 
L 179.583705 177.893938 
L 179.964312 178.576402 
L 180.509848 179.003777 
L 181.240613 178.884913 
L 181.315466 179.28157 
L 181.725253 179.168049 
L 181.973916 178.974395 
L 182.136308 178.368057 
L 183.073869 177.670902 
L 183.174096 177.240856 
L 183.700602 176.339363 
L 184.285467 176.363403 
L 184.711747 177.035182 
L 184.780256 178.074237 
L 184.568385 179.087916 
L 184.511294 179.345676 
L 184.608983 179.419131 
L 185.012426 179.258866 
L 185.538932 180.279223 
L 185.962674 180.635813 
L 186.723888 181.11661 
L 186.83807 181.370363 
L 186.9827 182.126282 
L 187.246588 182.311923 
L 187.56376 182.351989 
L 188.401095 182.323943 
L 189.782697 182.567012 
L 190.707572 183.14931 
L 190.918174 183.481861 
L 191.322886 185.198037 
L 191.839242 185.770986 
L 192.547171 186.102201 
L 193.27413 186.271816 
L 193.91228 186.707204 
L 194.823199 187.890497 
L 195.389034 188.403347 
L 196.074126 188.613027 
L 196.78713 188.530223 
L 198.631804 188.157606 
L 198.744717 188.283147 
L 198.658446 189.072455 
L 198.968006 189.804334 
L 198.312094 190.486798 
L 197.639689 191.720842 
L 197.269232 192.153559 
L 196.913999 192.328515 
L 195.53874 192.669079 
L 193.628094 193.853708 
L 192.622023 193.696114 
L 192.351793 193.976578 
L 191.736478 195.378901 
L 191.702224 195.917126 
L 191.983873 196.297757 
L 193.590033 197.380884 
L 193.696603 197.753501 
L 193.919892 199.233954 
L 194.155869 199.596554 
L 194.565655 199.917753 
L 195.817851 200.691034 
L 197.116989 203.086335 
L 197.418937 203.280657 
L 197.591479 203.17782 
L 197.993653 202.762465 
L 198.170001 202.757123 
L 198.801808 202.839927 
L 199.045396 202.774485 
L 199.362569 203.388168 
L 200.017212 203.464962 
L 200.175798 205.050922 
L 200.635064 205.325377 
L 201.689344 205.161773 
L 202.120699 205.278633 
L 202.232343 205.578463 
L 202.285628 206.570773 
L 202.450558 207.032872 
L 202.742356 207.362084 
L 204.193737 208.60748 
L 204.353592 208.966074 
L 204.359935 209.364067 
L 204.104929 210.749028 
L 203.945074 210.798443 
L 203.681186 210.606792 
L 203.449016 210.827825 
L 203.358939 211.067555 
L 203.167367 212.404436 
L 202.760118 212.93999 
L 202.300853 213.406096 
L 202.308465 213.659849 
L 202.534291 214.125955 
L 202.511455 214.40308 
L 202.239956 214.685548 
L 201.861886 214.722943 
L 200.791113 214.644146 
L 198.988305 215.250484 
L 198.966738 215.601065 
L 199.131667 216.011745 
L 199.094875 216.395047 
L 199.39048 217.022753 
L 201.752779 218.834421 
L 201.683001 219.106204 
L 201.321425 219.606366 
L 200.100946 220.965951 
L 200.184679 221.365947 
L 200.552599 222.14457 
L 200.277294 222.472447 
L 200.684543 222.930539 
L 200.87104 223.176947 
L 200.825367 223.541551 
L 200.494239 223.829361 
L 199.68101 225.048714 
L 199.140548 225.41265 
L 198.862705 226.143194 
L 198.614042 226.59995 
L 198.553145 227.440676 
L 198.235973 227.70645 
L 197.954324 227.69443 
L 196.921611 227.331829 
L 196.68056 227.236338 
L 195.553964 226.316147 
L 195.102311 226.282758 
L 194.731853 226.622655 
L 194.17363 227.365218 
L 193.791755 227.667719 
L 193.444134 228.881062 
L 193.2348 228.997923 
L 192.482468 228.927806 
L 192.283283 229.23565 
L 191.945812 230.081718 
L 191.275944 230.701411 
L 190.523612 231.216264 
L 189.978075 231.393224 
L 189.715457 231.254995 
L 189.506123 230.947151 
L 188.794388 230.480378 
L 188.718267 230.501747 
L 188.701774 230.631963 
L 187.402636 232.36884 
L 187.094345 232.436952 
L 186.726425 233.389864 
L 186.419402 233.476675 
L 186.170739 233.431266 
L 185.488184 233.059317 
L 185.08601 233.152805 
L 184.970559 233.264991 
L 184.019042 233.815236 
L 183.651123 233.80188 
L 182.967299 233.413904 
L 182.321536 232.748802 
L 180.860007 230.656002 
L 178.770468 229.924795 
L 178.360689 229.691071 
L 177.877318 228.933149 
L 177.624849 228.77689 
L 176.848412 228.515791 
L 176.762141 228.268715 
L 176.535045 227.124152 
L 176.080855 226.493775 
L 175.375464 227.084754 
L 175.092546 227.1729 
L 175.060829 227.675065 
L 175.221952 227.986247 
L 175.402106 228.053024 
L 175.402106 228.21329 
L 174.214613 228.21329 
L 174.12073 228.507777 
L 174.143566 228.681398 
L 174.427753 228.842331 
L 174.141029 229.174215 
L 174.04334 229.191577 
L 173.790871 229.695745 
L 173.166676 229.961519 
L 171.022591 230.237977 
L 170.784078 230.175874 
L 169.147469 229.075384 
L 168.919105 229.514111 
L 168.505512 231.415928 
L 168.142667 231.958827 
L 167.751911 232.197222 
L 167.282496 232.251979 
L 164.986168 232.218591 
L 164.8593 232.746131 
L 164.435557 232.766164 
L 162.859845 232.296052 
L 162.708871 232.877015 
L 162.859845 233.447293 
L 163.336873 233.84395 
L 163.609641 234.256633 
L 163.694643 234.753456 
L 163.598223 235.395186 
L 163.805019 235.916049 
L 164.143759 236.245261 
L 164.986168 236.792834 
L 165.369313 237.24091 
L 165.996045 238.774784 
L 167.047788 239.879948 
L 167.168314 240.366754 
L 166.986891 240.846215 
L 165.511406 242.243196 
L 165.557078 243.456539 
L 165.196771 243.907954 
L 164.707057 243.936 
L 163.43583 243.604117 
L 162.859845 243.578742 
L 162.250875 243.829156 
L 161.646979 243.893263 
L 160.935202 243.694562 
L 160.382096 243.383084 
L 158.272266 241.488613 
L 157.856136 240.854229 
L 157.579561 240.136373 
L 157.214179 239.503992 
L 156.526549 239.1267 
L 154.986361 238.984465 
L 154.737698 238.818857 
L 154.486497 238.804166 
L 154.102084 239.089305 
L 153.920662 238.630545 
L 153.54513 238.22721 
L 153.102357 238.028882 
L 152.730632 238.180466 
L 152.235843 237.636899 
L 152.037927 237.504012 
L 150.98999 238.212519 
L 150.581472 238.326041 
L 149.997875 238.723366 
L 149.312783 238.963096 
L 147.886777 239.061926 
L 147.241014 238.908339 
L 147.036755 238.712681 
L 146.229869 237.697667 
L 145.707169 237.491325 
L 145.255515 237.035904 
L 143.563084 234.229922 
L 143.471738 233.631598 
L 143.473007 232.81558 
L 143.814284 232.828935 
L 145.542239 232.334115 
L 145.717318 232.134451 
L 146.184196 231.437297 
L 146.427784 231.460001 
L 146.859138 231.765173 
L 147.175042 231.782535 
L 148.258502 230.941809 
L 149.16054 230.685384 
L 149.26711 230.503082 
L 149.599507 229.657682 
L 151.111784 227.869387 
L 151.408657 227.173567 
L 151.472092 226.410303 
L 151.119396 224.696798 
L 151.158726 223.907491 
L 151.349029 222.720191 
L 150.957004 221.428718 
L 151.26149 220.368962 
L 151.375672 220.289498 
L 151.82225 220.113206 
L 151.814638 219.976312 
L 151.639559 219.614379 
L 151.659858 219.068141 
L 151.761353 219.04143 
L 152.280247 219.00537 
L 152.466744 218.431754 
L 152.062032 217.611729 
L 152.301815 217.118912 
L 153.274899 216.485864 
L 153.508338 216.144632 
L 152.847351 216.010409 
L 152.537791 215.768676 
L 151.784189 214.613429 
L 151.735979 214.197406 
L 151.629409 214.171363 
L 151.181562 214.197406 
L 150.581472 213.564358 
L 150.043548 213.457514 
L 149.839289 213.028804 
L 149.939516 211.892922 
L 150.317585 211.010795 
L 151.319849 209.935013 
L 152.70272 208.904639 
L 152.794066 208.863237 
L 152.733169 207.613167 
L 152.648167 207.503652 
L 151.699187 207.60916 
L 151.199324 207.515672 
L 150.813642 207.26125 
L 150.67028 206.788467 
L 150.885958 206.217521 
L 151.375672 205.889645 
L 152.520029 205.51636 
L 153.488083 204.856973 
L 153.783644 204.555435 
L 153.933349 204.091333 
L 154.077979 202.434589 
L 154.681875 200.831266 
L 154.930538 199.505737 
L 154.683144 198.281042 
L 153.995515 197.260685 
L 152.905711 196.53949 
L 151.307162 196.105438 
L 149.945859 196.138827 
L 149.643911 195.96387 
L 149.06412 195.237333 
L 148.094842 193.108474 
L 147.801774 192.145545 
L 147.847447 191.230697 
L 148.437388 190.558917 
L 149.213825 190.19832 
L 149.338741 189.931992 
L 149.310246 189.807005 
L 148.889041 189.575956 
L 146.031953 188.837399 
L 144.772145 188.749253 
L 140.895031 187.337581 
L 140.374868 186.93024 
L 139.990455 186.406706 
L 139.748136 185.791019 
L 139.65679 185.113898 
L 139.595893 183.403064 
L 139.130284 182.733956 
L 138.248545 182.197066 
L 137.574871 181.511931 
L 136.690595 180.929633 
L 136.420364 180.428804 
L 135.98901 179.160035 
L 135.400338 178.326655 
L 134.99182 177.974071 
L 133.614024 177.215481 
L 133.18267 176.846871 
L 132.92132 176.392785 
L 132.771614 175.281611 
L 132.884528 174.173108 
L 133.506185 171.562117 
L 132.965724 169.131424 
L 133.213118 167.624928 
L 132.720628 165.677266 
L 132.573699 164.151174 
L 132.695493 163.57689 
L 134.281354 159.781269 
L 134.392999 159.202978 
L 134.488151 158.009 
L 134.441209 156.462438 
L 134.512256 154.886494 
L 134.441209 154.583326 
L 133.766267 153.131587 
L 133.169983 152.732259 
L 132.802063 152.377004 
L 131.939354 150.901226 
L 131.647556 150.590044 
L 130.021096 149.681873 
L 126.211223 147.666535 
L 125.494414 147.006775 
L 124.65581 145.930326 
L 124.337369 145.094274 
L 123.979599 144.649537 
L 123.42645 143.527679 
L 123.054724 143.042876 
L 121.229081 141.871603 
L 120.886535 141.354746 
L 120.660708 140.570781 
L 119.261344 137.712714 
L 117.401446 135.911063 
L 117.121065 135.412904 
L 116.076934 132.806587 
L 114.855187 130.643003 
L 114.398459 130.143509 
L 113.794563 129.827652 
L 113.200816 129.767553 
L 112.661623 129.907117 
L 112.188402 130.224309 
L 111.483011 131.022966 
L 111.302857 131.053683 
L 110.905758 130.969544 
L 109.911105 129.835666 
L 109.109294 129.485753 
L 108.681746 129.413633 
L 106.923342 129.244687 
L 105.312107 128.469403 
L 104.752615 128.025334 
L 102.690996 127.578594 
L 101.854929 127.404305 
L 101.384246 127.467743 
L 100.932592 127.381601 
L 99.339119 126.964243 
L 97.380263 127.372252 
L 96.783979 127.633351 
L 96.248592 128.030676 
L 95.838806 128.550871 
L 95.583799 129.346856 
L 95.743654 129.690091 
L 95.951719 129.776902 
L 97.126525 130.700431 
L 97.098614 130.936155 
L 96.876593 131.128474 
L 96.561958 131.238656 
L 94.393769 131.712107 
L 93.97637 131.918449 
L 93.708677 132.247661 
L 93.551359 132.648992 
L 93.249411 134.064671 
L 92.956344 134.44864 
L 92.549095 134.708404 
L 92.034007 134.890038 
L 92.070799 134.836616 
L 92.124084 134.72443 
L 92.000021 134.789731 
L 91.809449 134.890038 
L 91.597578 135.128433 
L 91.475784 135.472336 
L 91.437723 135.943116 
L 91.640713 137.455621 
L 91.521457 137.707371 
L 91.277868 137.87565 
L 90.778005 138.614207 
L 90.349188 138.78115 
L 89.94067 138.668964 
L 89.181994 138.173477 
L 88.74049 138.059955 
L 88.339584 138.142759 
L 85.870715 139.310026 
L 85.719741 139.585149 
L 84.300078 140.370449 
L 83.026314 141.428201 
L 82.155993 141.641889 
L 81.818522 141.852905 
L 81.686579 142.248226 
L 81.827403 142.72101 
L 82.06211 143.281939 
L 81.519112 143.209819 
L 79.910414 142.487289 
L 79.918026 142.248226 
L 80.329081 140.562768 
L 80.016984 139.531727 
L 79.229128 139.127056 
L 77.130716 139.119043 
L 76.233753 138.948093 
L 75.416717 138.52339 
L 74.751924 137.958454 
L 74.29139 137.370814 
L 73.558087 137.416222 
L 72.826054 137.043605 
L 71.595425 135.943116 
L 70.741598 134.972174 
L 69.999414 134.443298 
L 69.767244 133.999897 
L 69.517313 133.197234 
L 69.065659 132.94348 
L 67.223523 132.847989 
L 66.659455 133.402463 
L 62.946772 137.414219 
L 62.443102 137.576488 
L 61.495391 137.026243 
L 60.534994 136.761137 
L 60.304092 136.471992 
L 60.150581 136.471992 
L 59.745869 136.859968 
L 59.545416 137.331415 
L 59.32847 138.429902 
L 58.644647 140.642901 
L 56.364812 141.091644 
L 55.963907 141.354746 
L 55.749498 141.848898 
L 55.485611 142.137376 
L 54.92485 141.782121 
L 54.863953 142.514 
L 54.592454 143.017501 
L 53.856614 143.295294 
L 54.40215 143.745373 
L 53.917511 144.081931 
L 53.087789 144.437186 
L 52.50546 145.145025 
L 52.242842 145.600446 
L 51.878728 144.808467 
L 51.788651 144.853876 
L 51.352222 145.258546 
L 50.271299 145.369396 
L 50.121593 145.591097 
L 50.535186 145.68325 
L 50.664592 145.724652 
L 50.604964 145.954365 
L 50.012486 146.575394 
L 49.825989 146.562039 
L 49.517697 146.668882 
L 46.810315 148.913934 
L 46.358661 149.525614 
L 45.709093 150.696888 
L 44.838772 151.021425 
L 44.777875 151.406063 
L 44.227264 152.144619 
L 43.910091 152.299543 
L 43.806059 152.227423 
L 43.103205 151.934939 
L 42.369903 151.49688 
L 41.95631 151.406063 
L 41.212858 150.607406 
L 40.29179 150.065175 
L 38.338009 149.695229 
L 37.947253 149.389389 
L 37.938372 148.817775 
L 38.277112 148.272873 
L 39.099222 147.301931 
L 39.662371 145.932152 
L 39.780508 145.465556 
L 39.728492 144.469239 
L 40.114174 143.956389 
L 39.890884 143.603805 
L 39.936557 143.44354 
L 40.114174 143.303307 
L 40.617843 143.084278 
L 40.752324 142.754398 
L 40.674934 141.872938 
L 40.76628 141.35074 
L 40.948971 141.08096 
L 41.722871 140.646907 
L 42.369903 140.0793 
L 43.825089 137.822228 
L 44.612945 137.328076 
L 44.800711 136.992855 
L 44.72459 136.630254 
L 44.304654 135.666658 
L 44.222189 135.169835 
L 44.321147 134.705065 
L 44.742352 133.326114 
L 44.496226 132.970191 
L 44.173979 132.721112 
L 43.897405 132.022622 
L 43.94054 130.848677 
L 44.560929 130.028652 
L 44.318609 129.683413 
L 42.564526 128.769378 
L 41.654362 127.76557 
L 41.489433 127.317494 
L 41.620108 126.799303 
L 42.33438 126.060746 
L 42.657895 125.181957 
L 44.233607 124.306507 
L 44.55966 123.985308 
L 44.652275 123.701505 
L 44.69541 122.872131 
L 44.864146 122.702517 
L 45.511177 122.432736 
L 46.508367 121.356287 
L 46.64031 120.963636 
L 46.509635 120.554292 
L 45.932382 119.974665 
L 45.79917 119.505221 
L 45.881634 119.085191 
L 46.358661 117.811081 
L 46.267316 115.765693 
L 46.463963 115.301591 
L 47.307641 114.223138 
L 47.716159 113.007791 
L 48.759021 111.998119 
L 48.549688 111.233519 
L 47.893775 110.487617 
L 46.532472 109.218181 
L 46.371348 108.818185 
L 46.312989 108.209176 
L 46.38911 106.693332 
L 45.923501 104.242606 
L 45.846111 103.879337 
L 45.704018 103.7765 
L 45.126764 103.570826 
L 44.977059 102.801552 
L 45.110271 101.746471 
L 45.480729 100.826948 
L 46.03134 100.476367 
L 46.594638 100.322779 
L 46.925765 99.750498 
L 47.053903 99.017951 
L 46.909273 98.048345 
L 46.594638 97.586246 
L 45.851186 97.292426 
L 45.369084 97.520137 
L 45.087435 97.67506 
L 43.806059 97.924139 
L 43.09813 97.868046 
L 42.42065 97.613625 
L 40.808147 96.748191 
L 40.114174 96.674069 
L 37.666872 96.68876 
L 37.338282 96.955201 
L 37.038871 97.47406 
L 36.04295 98.662696 
L 34.497687 99.994235 
L 34.09805 99.486728 
L 33.742817 99.28506 
L 31.742094 98.517122 
L 31.0976 98.549175 
L 30.581244 98.935815 
L 30.106754 99.71978 
L 29.680474 99.747827 
L 28.269692 99.232974 
L 27.53639 98.648005 
L 27.181157 97.080075 
L 26.478303 96.134508 
L 26.332404 95.689772 
L 26.192848 94.439701 
L 25.50395 93.257743 
L 25.61052 92.787631 
L 26.518901 91.583637 
L 26.959136 90.633396 
L 28.076851 89.767962 
L 28.289991 88.451114 
L 29.534575 84.964005 
L 29.712192 83.931628 
L 29.611965 82.345 
L 29.50032 82.375718 
L 29.370914 82.718285 
L 29.188223 82.815112 
L 28.381337 82.423797 
L 28.117449 82.064535 
L 27.513553 81.756024 
L 26.545544 80.218811 
L 25.141105 77.14906 
L 24.648853 76.606161 
L 23.720173 76.355078 
L 22.829553 76.558081 
L 22.096251 77.049562 
L 21.61288 77.665248 
L 21.281752 78.643535 
L 21.147271 78.664904 
L 20.525614 78.915319 
L 20.29725 79.122328 
L 20.312474 80.129998 
L 19.939479 80.50395 
L 19.500513 80.505286 
L 19.05774 80.274904 
L 18.722806 79.872237 
L 18.583251 79.36473 
L 18.645416 77.323349 
L 19.16431 76.636878 
L 19.549992 74.81653 
L 19.859552 72.519391 
L 20.618228 70.191535 
L 21.281752 69.091046 
L 21.383248 68.661 
L 21.635717 68.345811 
L 22.301778 67.76752 
L 23.319267 66.65501 
L 24.288546 66.370539 
L 25.151254 65.280734 
L 25.614326 65.189917 
L 27.754604 65.537159 
L 28.798735 65.828308 
L 29.370914 65.810946 
L 30.165114 65.549179 
L 31.116247 64.978515 
L 32.205166 64.029328 
L 32.205166 63.870398 
L 31.492162 63.720817 
L 29.310017 64.098776 
L 28.855826 63.774239 
L 28.907843 63.261389 
L 29.287181 61.526515 
L 29.875852 61.047054 
L 29.83906 60.844052 
L 29.537112 60.132206 
L 29.988766 59.933209 
L 31.091257 59.704831 
L 31.551791 59.441729 
L 31.847395 59.039729 
L 33.119891 56.722558 
L 33.934389 53.275515 
L 34.004167 52.785369 
L 34.552241 52.718592 
L 34.975983 52.849476 
L 35.16248 52.977688 
L 35.638238 53.155316 
L 36.193924 53.081861 
L 37.36873 52.484872 
L 38.193378 51.646149 
L 38.534656 51.533963 
L 40.829714 50.347999 
L 44.602796 47.409798 
L 44.701753 47.021155 
L 44.649737 46.556385 
L 45.030344 46.583096 
L 45.325949 47.005128 
L 45.355128 47.766389 
L 44.876833 49.868538 
L 44.954223 50.414776 
L 46.305377 51.254834 
L 46.469037 51.233465 
L 46.509635 51.441811 
L 46.216568 52.180367 
L 45.838499 52.703901 
L 45.889246 52.862831 
L 46.155671 53.183362 
L 46.123954 53.539953 
L 45.87656 54.494868 
L 46.155671 54.800708 
L 46.744343 55.855789 
L 47.122412 56.201695 
L 47.504288 56.340592 
L 47.931836 56.289841 
L 48.451998 56.065469 
L 49.639492 55.262806 
L 50.111444 55.090521 
L 53.453171 54.569658 
L 53.980946 54.667153 
L 55.082168 55.041106 
L 55.1862 55.326913 
L 55.008584 55.807709 
L 54.917238 56.054785 
L 55.028883 56.300525 
L 55.390459 56.359289 
L 56.358469 55.943935 
L 56.829153 55.950612 
L 57.198341 56.264466 
L 57.643651 57.071135 
L 58.035676 57.348929 
L 58.851443 57.284823 
L 59.569521 56.946929 
L 59.654523 56.435416 
L 59.40586 55.775656 
L 59.736988 55.4805 
L 60.514695 55.555291 
L 60.859778 55.2588 
L 60.968885 54.780675 
L 60.882614 54.449459 
L 60.414468 53.937945 
L 60.104908 53.75364 
L 58.827338 53.286199 
L 58.483523 52.977688 
L 58.302101 52.540965 
L 58.313519 52.100235 
L 58.558376 51.138642 
L 58.659871 48.583743 
L 59.017641 48.032163 
L 59.11533 47.543353 
L 58.784203 46.512312 
L 58.819726 46.086273 
L 59.181302 45.85923 
L 60.227971 45.637529 
L 60.537531 45.179437 
L 60.48044 44.663917 
L 60.129013 44.454236 
L 59.669748 44.33003 
L 59.304365 44.076277 
L 59.215557 43.805161 
L 59.276454 43.013182 
L 59.136898 42.799495 
L 58.63196 42.295994 
L 58.708081 41.443916 
L 59.185108 39.747773 
L 58.453075 39.018565 
L 58.144783 38.366819 
L 57.515514 37.395878 
L 57.454616 36.995214 
L 57.284612 36.769507 
L 56.411754 36.523766 
L 55.876367 36.193887 
L 55.642928 35.833289 
L 55.485611 34.802248 
L 55.283889 34.269365 
L 54.381851 32.661368 
L 54.371702 32.09109 
L 54.664769 31.136175 
L 54.531557 30.444363 
L 54.224534 29.994284 
L 53.468395 29.098133 
L 53.407498 28.654732 
L 54.019006 27.980281 
L 54.272744 27.845391 
L 54.880446 27.937544 
L 55.181126 27.982952 
L 55.50591 27.837378 
L 55.626435 27.634375 
L 56.05779 26.037062 
L 56.548772 25.570957 
L 56.560191 24.554607 
L 56.583027 24.032408 
L 56.815197 23.466137 
L 57.161549 23.048111 
L 57.66395 22.619401 
L 58.253891 22.292192 
L 59.282797 22.189355 
L 60.014831 22.791687 
L 60.822986 24.494507 
L 61.431957 25.088825 
L 62.053614 25.205017 
L 62.053614 25.205017 
" clip-path="url(#p0f60954245)" style="fill: none; stroke: #000000; stroke-width: 2"/>
   </g>
  </g>
 </g>
 <defs>
  <clipPath id="p0f60954245">
   <rect x="0" y="-0" width="222.938111" height="266.112"/>
  </clipPath>
 </defs>
</svg>
