<?xml version="1.0" encoding="utf-8" standalone="no"?>
<!DOCTYPE svg PUBLIC "-//W3C//DTD SVG 1.1//EN"
  "http://www.w3.org/Graphics/SVG/1.1/DTD/svg11.dtd">
<svg xmlns:xlink="http://www.w3.org/1999/xlink" width="203.689659pt" height="266.112pt" viewBox="0 0 203.689659 266.112" xmlns="http://www.w3.org/2000/svg" version="1.1">
 <metadata>
  <rdf:RDF xmlns:dc="http://purl.org/dc/elements/1.1/" xmlns:cc="http://creativecommons.org/ns#" xmlns:rdf="http://www.w3.org/1999/02/22-rdf-syntax-ns#">
   <cc:Work>
    <dc:type rdf:resource="http://purl.org/dc/dcmitype/StillImage"/>
    <dc:date>2024-02-02T21:58:02.946100</dc:date>
    <dc:format>image/svg+xml</dc:format>
    <dc:creator>
     <cc:Agent>
      <dc:title>Matplotlib v3.8.2, https://matplotlib.org/</dc:title>
     </cc:Agent>
    </dc:creator>
   </cc:Work>
  </rdf:RDF>
 </metadata>
 <defs>
  <style type="text/css">*{stroke-linejoin: round; stroke-linecap: butt}</style>
 </defs>
 <g id="figure_1">
  <g id="patch_1">
   <path d="M -0 266.112 
L 203.689659 266.112 
L 203.689659 0 
L -0 0 
L -0 266.112 
z
" style="fill: none"/>
  </g>
  <g id="axes_1">
   <g id="PatchCollection_1">
    <path d="M 162.694542 31.016767 
L 165.493103 30.96059 
L 168.221699 30.082834 
L 167.778594 34.366287 
L 166.974007 34.998272 
L 165.772959 34.029228 
L 164.105483 33.551729 
L 162.438007 34.583971 
L 162.204794 36.213088 
L 162.344722 38.214373 
L 161.831652 40.349078 
L 159.627786 42.076503 
L 156.537708 43.74073 
L 154.64868 45.742016 
L 156.094603 48.452529 
L 156.712618 48.571904 
L 157.330634 48.452529 
L 159.52284 47.792456 
L 162.822809 47.641482 
L 165.912887 47.887253 
L 167.463756 48.452529 
L 168.186717 50.724164 
L 169.306141 52.479677 
L 170.822029 53.743647 
L 172.734378 54.57225 
L 174.366872 56.594601 
L 175.183119 57.131789 
L 176.011026 56.843884 
L 177.80677 58.132431 
L 178.424785 59.32267 
L 178.3315 60.8289 
L 177.935037 63.058403 
L 177.631859 63.995847 
L 176.862255 65.344082 
L 176.76897 66.460588 
L 177.072147 67.549007 
L 177.631859 68.602315 
L 180.068939 72.022056 
L 181.269988 73.331669 
L 182.074575 73.682772 
L 182.902482 73.619573 
L 183.637104 73.795124 
L 184.220138 74.851944 
L 183.986924 76.61799 
L 182.902482 78.117199 
L 182.051253 79.872713 
L 182.587644 82.428741 
L 183.322266 84.384383 
L 186.050863 87.087874 
L 186.715521 88.548461 
L 183.532158 92.059489 
L 180.920168 96.444762 
L 175.871098 100.766837 
L 173.667232 103.558103 
L 173.014234 105.478635 
L 172.792682 107.076153 
L 172.174666 108.333101 
L 170.33228 109.256501 
L 168.781411 109.333743 
L 166.355992 108.427898 
L 165.061658 108.315546 
L 162.682881 109.52685 
L 158.928146 114.305358 
L 154.438788 118.251753 
L 152.666366 120.442634 
L 151.115497 122.872265 
L 148.701738 127.780681 
L 148.89997 128.272225 
L 149.622931 129.571305 
L 150.334232 130.399908 
L 153.657523 132.998068 
L 158.088577 133.75645 
L 160.035909 134.960732 
L 160.257462 137.751999 
L 158.893164 139.549645 
L 156.724279 139.900748 
L 152.468135 138.88255 
L 146.672782 136.021063 
L 144.713789 135.641872 
L 142.999671 136.291412 
L 141.425481 137.576448 
L 139.606416 138.675399 
L 137.250961 138.731576 
L 136.341429 138.152256 
L 134.907166 136.337055 
L 134.160884 135.901688 
L 130.114631 138.394517 
L 128.155639 139.240675 
L 126.056718 139.791906 
L 124.249315 140.546777 
L 123.12989 142.017897 
L 121.614003 144.914495 
L 117.882589 148.120063 
L 116.33172 150.451385 
L 115.64374 151.999748 
L 113.579802 153.906236 
L 112.740234 155.117541 
L 112.576984 156.255113 
L 112.903483 158.719855 
L 112.600306 160.025957 
L 112.063915 160.552611 
L 110.594671 161.114375 
L 110.139904 161.577831 
L 109.70846 164.48145 
L 111.201025 165.418895 
L 113.696409 165.889372 
L 116.33172 167.374537 
L 117.940892 167.823949 
L 120.016491 168.866724 
L 121.90552 170.278157 
L 122.896677 171.812476 
L 122.535196 174.333393 
L 120.797756 176.394366 
L 118.477283 177.939218 
L 116.33172 178.932839 
L 113.684748 178.897729 
L 111.026115 179.764953 
L 109.743442 181.56611 
L 111.270989 184.325777 
L 109.475246 188.661896 
L 105.977045 191.642758 
L 98.374289 196.221138 
L 96.636849 198.310199 
L 94.38634 202.85698 
L 92.543954 204.928486 
L 91.202977 205.788688 
L 89.640447 206.487382 
L 88.031275 206.943816 
L 86.538709 207.091279 
L 84.544735 207.64251 
L 80.253608 212.182268 
L 78.003099 214.004491 
L 74.598184 214.762873 
L 73.595366 215.788093 
L 73.945186 218.298478 
L 73.863562 218.863753 
L 73.175582 218.284434 
L 71.74132 217.217082 
L 69.700703 213.958848 
L 69.047705 213.151312 
L 67.730049 213.302286 
L 66.972106 214.590833 
L 66.307448 216.448167 
L 65.281309 218.298478 
L 64.406759 221.296895 
L 64.138563 227.995936 
L 63.532208 231.457809 
L 62.564373 233.739976 
L 60.465452 237.54593 
L 59.90574 239.613925 
L 56.442521 239.908851 
L 51.043631 242.257729 
L 44.676906 243.936 
L 43.18434 243.721827 
L 42.13488 242.334971 
L 41.353615 240.72341 
L 40.234191 239.343576 
L 38.974838 238.311334 
L 37.738807 237.739037 
L 36.362848 237.739037 
L 32.188329 239.132914 
L 31.383743 239.073227 
L 29.786231 238.655415 
L 29.109912 238.60626 
L 28.37529 238.887142 
L 27.127598 239.866719 
L 26.63785 240.077381 
L 17.607671 239.392591 
L 17.607671 239.171424 
L 17.745395 238.574273 
L 17.231224 238.651682 
L 17.065955 238.485806 
L 16.974138 237.728309 
L 17.671942 236.207785 
L 18.681921 234.676203 
L 19.893896 233.481901 
L 22.3913 232.420299 
L 23.199283 231.065651 
L 23.897087 229.517481 
L 24.668344 228.367413 
L 23.988903 227.44404 
L 24.668344 227.316869 
L 25.035609 227.493803 
L 25.439601 228.367413 
L 28.836804 220.941728 
L 29.332612 216.888841 
L 26.982114 213.438635 
L 29.396883 211.619536 
L 31.095484 209.092702 
L 33.225623 203.154366 
L 33.501071 201.362912 
L 33.574525 197.702597 
L 33.996879 195.811619 
L 36.053564 192.704221 
L 36.769732 191.023351 
L 36.31065 189.320365 
L 42.177711 184.78091 
L 45.125014 181.662455 
L 46.392079 177.642743 
L 46.630802 175.889994 
L 50.936986 164.09626 
L 50.23 163.167358 
L 51.983692 161.630247 
L 53.305846 156.051307 
L 55.206444 154.82383 
L 55.132991 153.192723 
L 59.586081 142.250481 
L 60.035981 139.563301 
L 60.25634 132.933818 
L 59.889075 131.330357 
L 59.191271 130.025471 
L 58.814824 128.908577 
L 59.420812 127.835917 
L 60.632787 127.426758 
L 62.120211 127.670042 
L 63.41482 128.234018 
L 64.103443 128.847756 
L 64.8747 128.847756 
L 65.967313 128.234018 
L 68.629986 128.42201 
L 70.273498 127.835917 
L 70.989665 126.923603 
L 72.063915 124.219835 
L 72.65154 123.108471 
L 72.688266 122.544495 
L 72.522997 122.339915 
L 71.816011 122.273565 
L 72.780083 121.134554 
L 74.138964 117.883398 
L 74.956129 116.534279 
L 75.699841 116.268879 
L 77.572893 116.241233 
L 78.041156 115.682786 
L 77.986066 114.44425 
L 77.462714 113.802866 
L 76.856726 113.415823 
L 76.498643 112.907139 
L 76.471098 109.589633 
L 78.316605 103.634709 
L 78.812413 99.415947 
L 78.45433 97.823544 
L 76.856726 94.837789 
L 76.498643 92.919164 
L 76.498643 88.274656 
L 76.856726 87.279404 
L 78.45433 86.118277 
L 78.812413 85.416071 
L 78.876685 81.142018 
L 79.409219 76.89561 
L 80.786464 73.296115 
L 83.439954 70.990449 
L 85.368097 72.582852 
L 87.213604 69.746384 
L 88.921387 65.433626 
L 90.436356 62.635862 
L 96.689046 59.213302 
L 98.653915 56.559297 
L 96.606411 53.274966 
L 96.606411 52.429002 
L 98.699823 52.981919 
L 107.651911 50.654136 
L 113.684242 44.931438 
L 115.502205 43.615493 
L 116.65909 42.410133 
L 117.292623 40.497038 
L 117.384439 34.116367 
L 117.072263 31.246725 
L 116.37446 28.841533 
L 115.162453 27.298725 
L 116.599915 27.245924 
L 117.591072 27.519784 
L 118.41898 27.905997 
L 120.389633 29.500003 
L 122.838373 30.209231 
L 125.415382 30.279451 
L 128.400513 29.858128 
L 136.143197 30.41287 
L 136.632946 30.258385 
L 137.985583 29.443827 
L 138.673563 29.275297 
L 139.244935 29.521069 
L 140.574252 30.511179 
L 141.262231 30.749929 
L 148.072062 30.370738 
L 149.191487 29.86515 
L 150.229286 28.755665 
L 150.64907 27.50574 
L 150.695713 24.844381 
L 151.068854 23.805117 
L 153.412649 22.176 
L 155.091785 23.271441 
L 157.750418 28.074526 
L 160.024249 30.1039 
L 162.694542 31.016767 
L 162.694542 31.016767 
" clip-path="url(#p9d524b04e6)" style="fill: none; stroke: #000000; stroke-width: 2"/>
   </g>
  </g>
 </g>
 <defs>
  <clipPath id="p9d524b04e6">
   <rect x="-0" y="-0" width="203.689659" height="266.112"/>
  </clipPath>
 </defs>
</svg>
