<?xml version="1.0" encoding="utf-8" standalone="no"?>
<!DOCTYPE svg PUBLIC "-//W3C//DTD SVG 1.1//EN"
  "http://www.w3.org/Graphics/SVG/1.1/DTD/svg11.dtd">
<svg xmlns:xlink="http://www.w3.org/1999/xlink" width="256.519897pt" height="266.112pt" viewBox="0 0 256.519897 266.112" xmlns="http://www.w3.org/2000/svg" version="1.1">
 <metadata>
  <rdf:RDF xmlns:dc="http://purl.org/dc/elements/1.1/" xmlns:cc="http://creativecommons.org/ns#" xmlns:rdf="http://www.w3.org/1999/02/22-rdf-syntax-ns#">
   <cc:Work>
    <dc:type rdf:resource="http://purl.org/dc/dcmitype/StillImage"/>
    <dc:date>2024-02-02T21:58:02.978107</dc:date>
    <dc:format>image/svg+xml</dc:format>
    <dc:creator>
     <cc:Agent>
      <dc:title>Matplotlib v3.8.2, https://matplotlib.org/</dc:title>
     </cc:Agent>
    </dc:creator>
   </cc:Work>
  </rdf:RDF>
 </metadata>
 <defs>
  <style type="text/css">*{stroke-linejoin: round; stroke-linecap: butt}</style>
 </defs>
 <g id="figure_1">
  <g id="patch_1">
   <path d="M 0 266.112 
L 256.519897 266.112 
L 256.519897 0 
L 0 0 
L 0 266.112 
z
" style="fill: none"/>
  </g>
  <g id="axes_1">
   <g id="PatchCollection_1">
    <path d="M 113.008012 28.997806 
L 113.213177 28.859251 
L 113.223975 28.101273 
L 113.353553 27.015923 
L 113.993344 26.283754 
L 115.024568 26.294621 
L 116.069289 26.778206 
L 116.746873 27.46419 
L 117.030325 28.588932 
L 116.598399 29.217864 
L 115.912716 29.694657 
L 115.4214 30.364341 
L 115.351212 31.316568 
L 115.815532 31.463274 
L 116.598399 31.286684 
L 118.366596 31.254083 
L 118.75263 31.063909 
L 119.378923 30.299138 
L 119.802751 30.603416 
L 120.474936 31.539343 
L 123.093489 32.642351 
L 124.656521 33.843163 
L 123.123183 34.776373 
L 122.553581 35.361837 
L 123.034099 35.814179 
L 124.046426 38.176409 
L 123.795369 38.410051 
L 123.282456 39.241383 
L 122.945014 40.738322 
L 123.036798 42.148325 
L 123.795369 42.706621 
L 125.064152 42.964714 
L 125.582463 43.241825 
L 125.755234 43.86804 
L 125.757933 44.472521 
L 126.71087 48.284147 
L 126.602889 48.828859 
L 126.033286 49.77837 
L 125.957699 50.385568 
L 126.586691 49.615364 
L 127.142796 49.179323 
L 127.696202 49.241808 
L 128.306298 49.960394 
L 128.573552 50.524123 
L 128.668036 51.070194 
L 128.551956 51.59453 
L 128.106334 52.243752 
L 127.431647 54.525923 
L 127.304769 56.745523 
L 127.814982 58.932522 
L 129.016276 61.130388 
L 130.374144 62.863687 
L 130.827667 63.76022 
L 132.161239 65.469068 
L 131.591636 66.822019 
L 131.076024 68.693872 
L 131.15701 70.462489 
L 132.263821 71.750237 
L 131.694219 72.179486 
L 131.246095 72.858679 
L 130.943747 73.651975 
L 130.68864 75.056545 
L 130.314754 75.651517 
L 129.380714 76.743658 
L 129.57778 77.471752 
L 129.135056 78.593777 
L 127.949958 80.365111 
L 126.376128 81.68546 
L 126.165563 82.340201 
L 125.995492 83.676852 
L 125.671548 84.212055 
L 125.096546 84.70379 
L 125.30981 84.87223 
L 125.741736 84.657605 
L 127.261576 83.176966 
L 127.844677 82.310317 
L 128.857003 84.087084 
L 129.450902 84.597836 
L 130.239167 83.45136 
L 130.80607 83.1824 
L 130.919451 82.611878 
L 131.132715 82.429855 
L 131.613232 82.334768 
L 132.487883 82.310317 
L 133.608191 82.546676 
L 134.045517 82.815636 
L 134.409954 83.269336 
L 134.771693 84.312576 
L 135.084839 84.673906 
L 135.905499 84.807027 
L 137.685845 84.33431 
L 138.488957 84.42668 
L 139.244828 85.49437 
L 139.954807 88.787094 
L 141.250585 89.979755 
L 141.566431 90.036807 
L 142.733982 89.990622 
L 143.026882 90.205247 
L 143.056577 91.115364 
L 143.461507 91.441377 
L 144.481933 91.962996 
L 144.668201 92.661206 
L 144.179585 94.473291 
L 144.778882 93.938087 
L 145.483462 93.704445 
L 146.911518 93.362132 
L 149.014458 91.840742 
L 149.910705 91.914094 
L 150.331833 91.672302 
L 151.722096 91.300105 
L 151.894866 90.476924 
L 152.135125 90.400854 
L 152.685831 90.64808 
L 152.966583 89.41195 
L 153.636069 89.822182 
L 154.626799 91.403342 
L 155.317881 91.321839 
L 158.157796 90.11831 
L 158.495238 89.075071 
L 158.257679 88.078017 
L 157.871645 87.129865 
L 157.763663 86.236048 
L 158.012021 85.67096 
L 158.48174 84.942866 
L 159.433328 83.766505 
L 159.923294 83.454077 
L 160.776348 83.206851 
L 161.219073 82.802052 
L 161.416139 82.334768 
L 161.494426 81.261644 
L 161.680694 80.772626 
L 161.99384 80.514533 
L 163.451591 79.637017 
L 164.33704 78.683431 
L 164.855351 77.729845 
L 165.057817 76.686606 
L 165.001126 75.461343 
L 164.86075 75.222267 
L 164.415326 75.059261 
L 164.355936 74.733249 
L 164.45042 74.431688 
L 164.833755 73.589489 
L 164.961983 71.771971 
L 165.322371 70.682547 
L 166.691037 69.017168 
L 167.104067 67.968495 
L 173.329203 68.29179 
L 173.048451 70.261448 
L 173.375095 71.698618 
L 174.352328 72.888563 
L 176.034141 74.130126 
L 177.610671 75.138048 
L 179.794598 76.235622 
L 180.736737 78.085742 
L 181.805754 81.799565 
L 182.437446 86.896223 
L 182.718198 87.915011 
L 183.063739 88.542584 
L 183.954587 89.811315 
L 184.292029 90.504091 
L 184.702359 92.134153 
L 184.948017 92.549818 
L 185.784874 93.747913 
L 185.81187 94.09566 
L 185.744381 95.098147 
L 185.92795 95.426876 
L 186.697318 96.203872 
L 187.018563 96.749943 
L 187.161639 97.238961 
L 187.234526 98.521276 
L 188.128074 103.533714 
L 187.995796 104.799728 
L 187.604363 105.29418 
L 186.538045 106.125512 
L 186.254594 106.576495 
L 186.189805 107.508347 
L 186.206002 109.19546 
L 185.539216 110.646215 
L 185.795672 111.040146 
L 186.222199 111.325407 
L 186.477306 111.632402 
L 186.516449 112.344195 
L 186.430064 113.080439 
L 185.992739 114.658882 
L 185.33945 116.182989 
L 184.594378 117.334899 
L 178.871356 123.745115 
L 175.097401 126.745786 
L 174.265943 127.597493 
L 173.340001 128.098737 
L 173.396691 128.18024 
L 173.05115 129.137901 
L 172.810892 129.285965 
L 171.933541 129.503306 
L 170.648561 131.136084 
L 173.898806 131.441721 
L 174.481906 131.957907 
L 176.034141 134.04031 
L 176.995176 134.367681 
L 177.645765 133.831119 
L 178.056095 132.85444 
L 178.293654 131.881837 
L 178.547411 131.439004 
L 178.876755 131.659062 
L 179.481451 132.445567 
L 181.120071 133.324441 
L 181.808454 134.106871 
L 181.735566 134.411149 
L 181.349532 134.745312 
L 181.079578 135.614678 
L 181.174062 136.111846 
L 181.762562 137.475664 
L 181.500706 137.952457 
L 181.021538 138.220059 
L 180.83662 138.540637 
L 181.457514 139.169569 
L 182.019018 138.62214 
L 182.658808 138.377631 
L 183.298599 138.396649 
L 183.852005 138.641158 
L 184.532288 138.063844 
L 185.072196 138.279828 
L 186.130415 139.357026 
L 186.384172 139.329859 
L 186.775605 138.927777 
L 187.15624 139.136968 
L 187.418095 139.560784 
L 187.555771 140.571422 
L 188.03089 140.745295 
L 192.701092 141.897205 
L 194.05896 142.640241 
L 194.906615 142.629374 
L 195.624692 142.452784 
L 197.400989 141.553534 
L 199.830574 141.213938 
L 201.245132 141.181337 
L 202.149477 141.390528 
L 203.002532 141.973275 
L 206.652308 142.811398 
L 207.120678 142.651109 
L 207.443273 142.759779 
L 207.532357 142.933652 
L 207.670034 143.546284 
L 207.850903 143.797585 
L 210.172506 145.669439 
L 210.982368 146.663776 
L 211.111946 147.374211 
L 210.420864 149.402279 
L 210.177905 150.506645 
L 210.048327 151.699307 
L 210.188703 152.761563 
L 210.758306 153.493732 
L 210.779902 153.247865 
L 211.282017 152.978905 
L 211.935305 152.802315 
L 212.405025 152.834916 
L 212.912538 153.3022 
L 213.120402 153.784427 
L 213.290473 154.982522 
L 213.457845 155.169979 
L 214.005851 155.390037 
L 214.124631 155.725558 
L 214.01395 156.005385 
L 213.536131 156.27027 
L 213.420051 156.512062 
L 213.436248 158.387991 
L 214.116532 159.245132 
L 216.17898 160.326406 
L 216.816071 160.955338 
L 217.744712 162.263462 
L 218.473587 161.888548 
L 219.083683 160.845309 
L 219.661384 160.151174 
L 219.998827 160.424209 
L 220.568429 161.088459 
L 221.340497 161.709241 
L 222.266439 161.850513 
L 222.344726 162.043404 
L 223.564917 162.664185 
L 224.693324 163.159996 
L 224.957879 163.502308 
L 224.534052 164.049737 
L 224.936283 164.387975 
L 225.627365 165.261416 
L 225.999901 165.465174 
L 226.604598 165.171763 
L 227.251137 164.624334 
L 227.638521 164.466761 
L 227.465751 165.351069 
L 228.275612 165.497775 
L 228.629252 166.183759 
L 228.885708 166.924079 
L 229.382423 167.235149 
L 229.787354 166.834425 
L 230.04651 165.971851 
L 230.208482 164.412426 
L 231.882196 165.144595 
L 232.117056 166.967547 
L 231.776914 169.187147 
L 231.728322 171.116053 
L 232.692057 175.237391 
L 234.487251 178.858844 
L 235.143238 179.706475 
L 234.047226 179.52581 
L 233.690887 180.158817 
L 233.941944 181.155871 
L 234.646523 182.071422 
L 233.269759 182.116249 
L 233.887953 182.71258 
L 233.609901 183.148621 
L 232.999805 183.638998 
L 232.621869 184.406485 
L 232.656963 186.385651 
L 232.422104 186.942589 
L 231.690529 186.554091 
L 231.704026 187.392214 
L 231.909191 188.330858 
L 232.270929 189.230108 
L 232.762245 189.940543 
L 233.537013 190.377943 
L 234.085019 190.271989 
L 234.473753 190.353492 
L 234.759904 191.339679 
L 234.89758 192.354392 
L 234.848989 192.945289 
L 234.543941 193.490001 
L 233.785371 194.731565 
L 233.593703 195.596856 
L 233.331848 195.925585 
L 232.824335 196.152435 
L 232.702856 195.950035 
L 232.700156 195.553387 
L 232.476094 194.935322 
L 232.824335 194.469396 
L 232.227737 194.363443 
L 232.098159 194.510148 
L 230.74839 195.242317 
L 230.359656 195.72726 
L 230.138294 196.204053 
L 229.587588 197.937352 
L 230.016815 200.415045 
L 229.976322 201.299353 
L 229.668574 202.223054 
L 228.262114 204.791759 
L 227.52649 204.498348 
L 226.642391 204.482048 
L 225.786638 204.878696 
L 225.13065 205.829565 
L 225.006471 206.741041 
L 225.4222 209.782463 
L 225.349312 210.912639 
L 225.71375 211.638016 
L 226.199667 212.329434 
L 226.499316 213.348222 
L 226.502015 214.145594 
L 226.29685 214.126576 
L 225.862225 213.815507 
L 225.173842 213.742154 
L 223.578415 215.010885 
L 223.554119 215.506695 
L 223.926655 217.131323 
L 223.853768 217.724937 
L 223.55248 219.220109 
L 223.55142 219.281645 
L 223.813275 219.888843 
L 224.933583 220.95925 
L 225.073959 221.431968 
L 225.30342 224.16232 
L 225.149546 235.886536 
L 225.384406 236.918908 
L 225.284523 238.250124 
L 225.729947 239.804116 
L 225.567975 240.324377 
L 225.022668 241.305131 
L 224.95248 241.837617 
L 225.235932 242.455682 
L 226.965291 243.641111 
L 226.947588 243.64507 
L 224.21829 243.936 
L 223.436062 243.820484 
L 222.211704 243.3028 
L 221.544259 243.185145 
L 217.977467 243.185145 
L 217.54384 243.018288 
L 216.906154 242.106994 
L 216.055906 242.042819 
L 214.006807 241.219231 
L 213.36487 240.829899 
L 212.773947 240.316494 
L 211.700508 238.416895 
L 210.1318 237.935578 
L 208.881935 236.947273 
L 208.297389 236.722658 
L 207.434387 236.61356 
L 206.917861 236.341883 
L 205.999593 235.648786 
L 205.066445 235.272289 
L 202.804785 234.669038 
L 201.010761 234.393083 
L 197.728802 233.103152 
L 191.371069 232.326627 
L 189.528156 231.699845 
L 187.287752 229.214108 
L 186.460885 228.796967 
L 185.451215 228.606579 
L 180.06064 226.642805 
L 174.24069 222.505615 
L 171.232936 220.819935 
L 163.944182 218.150228 
L 162.320208 217.27744 
L 158.655637 214.162782 
L 157.29524 213.292132 
L 155.68827 212.545556 
L 155.144111 212.442875 
L 154.068547 211.963697 
L 152.465829 211.715551 
L 151.184079 211.326219 
L 149.957596 210.750777 
L 149.060584 210.068376 
L 149.277397 209.858736 
L 149.383678 209.674766 
L 147.092259 209.041566 
L 145.24722 207.959137 
L 142.254346 205.366441 
L 141.427479 204.833783 
L 139.61645 203.97169 
L 137.986099 202.754493 
L 136.170818 201.956575 
L 135.477866 201.02389 
L 136.158065 201.02389 
L 135.469364 200.069812 
L 134.419307 199.492231 
L 133.258718 199.051558 
L 132.234168 198.516761 
L 126.135762 192.770902 
L 125.763778 191.98796 
L 125.211117 190.079804 
L 124.74348 189.147118 
L 124.190819 188.610182 
L 123.342696 188.021905 
L 122.426553 187.547005 
L 120.033104 186.973703 
L 119.718512 186.995095 
L 119.650492 186.485968 
L 120.271174 185.703025 
L 120.39446 185.198177 
L 119.544211 183.944613 
L 114.332189 180.894131 
L 106.739471 173.582386 
L 99.554872 167.661114 
L 97.310216 165.235275 
L 96.404701 164.704756 
L 96.077356 164.315424 
L 95.928562 163.787045 
L 96.151752 163.119618 
L 96.077356 162.490697 
L 95.590589 161.684223 
L 94.767973 160.999683 
L 93.836951 160.516226 
L 93.04622 160.334395 
L 92.485056 160.026352 
L 88.790727 157.093526 
L 86.656604 154.753254 
L 83.869915 152.99912 
L 82.915511 152.581978 
L 80.938683 152.196924 
L 80.016164 151.664266 
L 79.469879 150.964752 
L 79.608044 150.252402 
L 80.088435 150.551889 
L 80.496554 150.594672 
L 80.828151 150.380754 
L 81.06622 149.893019 
L 80.018289 149.65343 
L 79.267945 149.065153 
L 78.609003 148.352804 
L 77.824648 147.740996 
L 76.126277 146.688515 
L 75.26115 146.329132 
L 74.255731 146.269234 
L 74.255731 146.662845 
L 76.959521 148.053317 
L 78.149869 149.0459 
L 78.538857 150.252402 
L 77.746001 149.272654 
L 76.296327 148.391309 
L 74.634091 147.715325 
L 64.044248 145.086263 
L 57.310281 141.64431 
L 56.289982 140.703067 
L 56.681097 139.811026 
L 57.203999 140.542628 
L 57.584486 140.74799 
L 58.143524 140.887037 
L 57.272019 139.436668 
L 57.099844 138.170269 
L 57.622747 136.993715 
L 58.821597 135.79577 
L 58.075504 135.79577 
L 57.531345 135.949792 
L 56.681097 136.548764 
L 55.429106 134.033079 
L 53.705227 132.18696 
L 51.690139 130.811462 
L 43.451232 126.334142 
L 34.077243 122.973478 
L 27.80241 120.183976 
L 26.669454 118.83201 
L 26.624816 116.739884 
L 26.994674 115.079874 
L 27.013805 114.391055 
L 26.10829 112.790943 
L 25.126253 112.512848 
L 24.091076 111.868953 
L 22.703046 110.604693 
L 21.376658 108.709372 
L 23.43732 107.703954 
L 23.326639 106.372738 
L 23.545302 105.481637 
L 24.976057 104.66389 
L 25.475472 103.799958 
L 25.799417 102.802903 
L 25.915497 102.017757 
L 25.726529 100.958217 
L 25.893901 100.607754 
L 27.421839 100.338794 
L 27.699892 100.053533 
L 27.805174 99.5944 
L 27.632403 98.934225 
L 26.89273 97.722546 
L 26.755053 97.173759 
L 26.917026 96.975434 
L 27.861864 96.100635 
L 29.681353 93.245311 
L 30.569501 93.060571 
L 34.869866 91.115364 
L 35.320689 90.688832 
L 39.653449 85.124889 
L 47.406524 78.979559 
L 49.541859 77.778747 
L 51.528719 77.319613 
L 52.222501 77.020768 
L 52.802902 76.564351 
L 60.326516 67.38439 
L 62.310677 65.697276 
L 65.15599 64.227504 
L 66.354586 64.042764 
L 66.300595 50.717014 
L 66.513858 50.225279 
L 66.983578 49.838139 
L 68.306352 49.10597 
L 68.862457 48.577558 
L 70.07455 46.323999 
L 70.843918 45.366338 
L 72.072208 44.75914 
L 73.11693 44.600209 
L 77.33091 44.578475 
L 78.402626 44.429052 
L 79.428451 44.108474 
L 80.440778 43.52301 
L 81.725758 42.273296 
L 81.871534 41.299335 
L 81.461204 40.253379 
L 81.080569 38.770023 
L 81.185851 37.585512 
L 82.106393 35.584612 
L 83.712619 29.139078 
L 83.747713 26.422309 
L 84.317316 26.449477 
L 84.865322 26.35439 
L 85.939738 25.9428 
L 86.350068 26.820316 
L 87.227418 26.319072 
L 88.992917 24.584415 
L 89.878365 24.318172 
L 90.761114 24.337189 
L 93.733306 25.082942 
L 94.516173 25.535284 
L 94.872512 26.30413 
L 94.346102 28.770956 
L 94.572863 29.470524 
L 95.269344 29.705524 
L 96.381554 29.522143 
L 98.481795 28.279221 
L 100.522646 26.688553 
L 101.408095 26.226702 
L 102.244952 25.9591 
L 103.122302 25.842279 
L 104.399184 25.790661 
L 105.136158 25.595053 
L 105.622074 25.953667 
L 105.875831 26.294621 
L 106.342851 26.156066 
L 107.28769 25.665689 
L 108.583468 25.285342 
L 108.653656 24.94167 
L 108.478186 24.53823 
L 108.476837 24.117131 
L 109.460818 22.823949 
L 109.431123 22.176 
L 110.319272 22.300971 
L 110.869978 22.986955 
L 111.169626 23.894356 
L 111.504369 26.357107 
L 111.744628 27.293034 
L 112.287235 28.216735 
L 113.008012 28.997806 
L 113.008012 28.997806 
" clip-path="url(#pa600459189)" style="fill: none; stroke: #000000; stroke-width: 2"/>
   </g>
  </g>
 </g>
 <defs>
  <clipPath id="pa600459189">
   <rect x="0" y="-0" width="256.519897" height="266.112"/>
  </clipPath>
 </defs>
</svg>
