<?xml version="1.0" encoding="utf-8" standalone="no"?>
<!DOCTYPE svg PUBLIC "-//W3C//DTD SVG 1.1//EN"
  "http://www.w3.org/Graphics/SVG/1.1/DTD/svg11.dtd">
<svg xmlns:xlink="http://www.w3.org/1999/xlink" width="276.55679pt" height="266.112pt" viewBox="0 0 276.55679 266.112" xmlns="http://www.w3.org/2000/svg" version="1.1">
 <metadata>
  <rdf:RDF xmlns:dc="http://purl.org/dc/elements/1.1/" xmlns:cc="http://creativecommons.org/ns#" xmlns:rdf="http://www.w3.org/1999/02/22-rdf-syntax-ns#">
   <cc:Work>
    <dc:type rdf:resource="http://purl.org/dc/dcmitype/StillImage"/>
    <dc:date>2024-02-02T21:58:03.006113</dc:date>
    <dc:format>image/svg+xml</dc:format>
    <dc:creator>
     <cc:Agent>
      <dc:title>Matplotlib v3.8.2, https://matplotlib.org/</dc:title>
     </cc:Agent>
    </dc:creator>
   </cc:Work>
  </rdf:RDF>
 </metadata>
 <defs>
  <style type="text/css">*{stroke-linejoin: round; stroke-linecap: butt}</style>
 </defs>
 <g id="figure_1">
  <g id="patch_1">
   <path d="M 0 266.112 
L 276.55679 266.112 
L 276.55679 0 
L 0 0 
L 0 266.112 
z
" style="fill: none"/>
  </g>
  <g id="axes_1">
   <g id="PatchCollection_1">
    <path d="M 168.343446 69.074539 
L 169.024177 68.883983 
L 170.191819 68.326163 
L 172.109919 67.164367 
L 173.058923 66.897984 
L 174.982932 65.446728 
L 177.38558 62.659605 
L 178.371221 61.108785 
L 179.159497 60.453379 
L 180.080138 58.574856 
L 180.759686 56.783369 
L 180.842414 56.092358 
L 180.759686 54.008774 
L 180.490231 53.584144 
L 180.129774 52.518615 
L 179.823682 52.066952 
L 178.952678 51.091756 
L 177.974128 48.455626 
L 177.821673 46.803264 
L 177.477762 45.891367 
L 177.46358 44.48231 
L 178.008401 41.596941 
L 179.668863 38.458378 
L 182.655332 35.470148 
L 183.356153 34.676276 
L 184.682159 33.871855 
L 186.801169 32.277517 
L 190.197731 30.897472 
L 192.195013 29.60776 
L 193.892111 28.802679 
L 194.556296 28.660257 
L 197.971767 28.764436 
L 199.176045 28.46047 
L 199.753957 28.14991 
L 202.202696 26.137537 
L 202.907063 26.086766 
L 203.554702 25.916651 
L 203.951795 26.233145 
L 205.294347 26.626784 
L 205.894713 26.680851 
L 209.14591 26.305015 
L 209.369275 26.017533 
L 210.018096 26.017533 
L 210.158733 26.199517 
L 210.216642 26.469856 
L 210.677554 26.925475 
L 211.266102 27.043501 
L 212.60629 27.022401 
L 213.180656 27.213616 
L 215.136575 28.500032 
L 216.080852 28.602892 
L 219.473868 29.57677 
L 220.519782 30.139865 
L 222.192062 30.451084 
L 222.797156 30.743181 
L 223.737888 30.948902 
L 223.919888 31.119018 
L 223.870252 31.514635 
L 223.567705 31.961023 
L 223.841888 33.201943 
L 224.359527 33.569867 
L 224.243708 33.886361 
L 224.061707 34.908372 
L 223.774524 34.797599 
L 223.792251 34.506161 
L 223.567705 34.244394 
L 223.366795 35.904009 
L 223.58425 36.074124 
L 225.029621 36.591064 
L 225.548441 37.255701 
L 225.732806 37.74231 
L 226.4549 38.200567 
L 226.730265 38.679923 
L 226.539992 37.684286 
L 226.820084 37.787147 
L 227.58236 37.849127 
L 228.082272 38.227601 
L 229.909371 38.377935 
L 231.922017 38.347605 
L 234.400301 38.900809 
L 236.70013 39.795564 
L 236.293583 40.237996 
L 238.035591 41.223742 
L 240.798695 41.19473 
L 244.649076 41.455838 
L 245.958537 41.076045 
L 246.452539 40.79186 
L 247.154543 40.870984 
L 247.374362 40.779992 
L 248.217002 41.191433 
L 248.690913 41.268579 
L 249.286553 41.490125 
L 250.975379 41.836949 
L 251.50129 42.142893 
L 251.725837 42.67302 
L 251.563927 43.671954 
L 251.670291 43.960095 
L 252.166657 44.491541 
L 253.014025 45.840596 
L 253.43239 46.883707 
L 252.525216 47.579795 
L 252.118468 48.13331 
L 251.585643 49.509979 
L 249.226203 51.358098 
L 249.047594 51.872256 
L 249.043091 52.465128 
L 249.187179 53.828399 
L 249.200687 55.156499 
L 249.637454 57.216478 
L 250.146264 58.222183 
L 250.33538 59.048687 
L 251.166887 61.003993 
L 251.075332 61.563369 
L 250.677589 62.767536 
L 250.524495 63.659356 
L 250.036698 65.097992 
L 249.900114 65.645645 
L 249.616441 66.201672 
L 248.768423 67.446033 
L 247.935415 68.362137 
L 247.554182 69.14426 
L 246.719673 70.764609 
L 246.71517 71.390139 
L 246.84575 71.739331 
L 247.2555 72.456137 
L 248.571803 75.858452 
L 248.553792 76.180009 
L 248.310644 77.024936 
L 248.408204 77.699453 
L 249.152658 78.919949 
L 249.362786 79.586512 
L 249.361285 79.980922 
L 249.263726 81.78131 
L 249.407814 82.341524 
L 250.868205 86.058698 
L 250.968766 86.99155 
L 250.871207 235.841371 
L 250.776649 235.852675 
L 236.447403 235.845139 
L 236.447403 243.936 
L 120.324525 179.951039 
L 120.027344 179.991652 
L 105.716108 187.2334 
L 94.636346 193.375236 
L 94.424716 193.263026 
L 85.68113 185.228689 
L 83.97759 184.246012 
L 61.999675 178.774087 
L 56.165614 166.629003 
L 55.791886 166.132012 
L 55.316096 165.867816 
L 43.55942 161.941295 
L 43.244227 161.97814 
L 39.945214 163.224595 
L 39.368862 163.283631 
L 39.097196 163.175189 
L 36.92537 161.309484 
L 36.74376 160.745083 
L 36.488604 159.239456 
L 36.215437 158.800664 
L 34.054118 157.509409 
L 33.872507 157.076478 
L 33.717913 150.405412 
L 33.522794 149.377934 
L 32.964453 148.341245 
L 24.710915 136.70655 
L 24.371708 135.806356 
L 25.198713 134.136601 
L 25.821593 133.430681 
L 25.893637 132.83111 
L 31.022267 130.373371 
L 31.295434 130.046789 
L 31.901804 127.965875 
L 31.868784 127.622545 
L 31.702182 127.172029 
L 31.744208 126.607628 
L 32.051896 124.648973 
L 31.822256 124.453024 
L 31.013262 123.943891 
L 30.873677 123.62652 
L 30.591504 121.932481 
L 29.368258 117.341072 
L 29.868063 115.484579 
L 30.075189 115.141249 
L 30.701071 114.456264 
L 30.816642 114.145173 
L 30.414396 113.107229 
L 31.423012 112.305009 
L 32.45264 108.932003 
L 32.476655 108.294749 
L 30.355861 102.741179 
L 30.168246 101.799116 
L 31.247405 93.39842 
L 31.203878 90.323943 
L 30.882682 87.847781 
L 28.581778 80.073035 
L 26.867732 76.929473 
L 25.009597 74.233078 
L 23.046399 71.828094 
L 29.681949 68.357113 
L 30.10971 68.247415 
L 31.167856 68.179586 
L 31.538583 67.971076 
L 33.344185 65.712636 
L 34.87662 63.327749 
L 36.198927 61.876553 
L 37.324614 59.431374 
L 37.330618 58.888746 
L 36.965895 57.753245 
L 36.901356 57.178796 
L 36.962893 56.255155 
L 36.503613 55.328164 
L 36.060843 53.619889 
L 34.950165 50.566765 
L 35.104759 49.509979 
L 35.332898 49.134828 
L 36.260465 48.145871 
L 37.240563 46.494538 
L 37.988019 45.921763 
L 39.619515 45.941861 
L 40.652145 45.460362 
L 41.039382 45.010683 
L 41.284031 44.450469 
L 41.896405 43.905328 
L 42.08552 43.366887 
L 42.207094 42.068932 
L 42.534294 41.736489 
L 43.06862 41.913178 
L 43.334282 42.013665 
L 43.617955 41.929926 
L 45.106864 40.79275 
L 45.692222 39.505682 
L 46.088463 39.10206 
L 54.378023 35.345948 
L 55.86393 34.27995 
L 56.122088 33.774167 
L 56.071056 33.092113 
L 55.73335 32.509708 
L 54.760757 31.606165 
L 54.463575 30.979378 
L 54.453069 30.087139 
L 54.664698 28.378445 
L 54.559634 26.69906 
L 54.819292 25.600823 
L 54.862819 24.444806 
L 55.278573 22.902753 
L 55.264998 22.176 
L 55.265372 22.176089 
L 56.065466 22.42401 
L 56.279376 22.553245 
L 56.463741 22.968643 
L 56.687106 23.144033 
L 57.162199 23.351073 
L 59.452573 23.804055 
L 59.154754 23.502726 
L 58.208113 23.213925 
L 57.965839 22.9093 
L 58.665478 23.28184 
L 60.230213 23.770427 
L 63.624411 25.795987 
L 64.229505 26.387435 
L 64.784962 26.543704 
L 65.717421 27.123283 
L 66.864971 27.655389 
L 67.510247 27.824185 
L 73.050637 28.376731 
L 74.423916 28.283101 
L 78.651299 27.022401 
L 79.366303 26.526561 
L 79.700759 26.469856 
L 80.707673 26.430953 
L 82.247589 26.740194 
L 82.398862 26.862176 
L 85.273058 28.308157 
L 85.933697 28.46047 
L 88.40489 28.359587 
L 89.032439 28.449261 
L 90.266263 28.794766 
L 91.368904 29.251704 
L 94.187554 29.738973 
L 95.307923 30.617243 
L 96.102108 31.101215 
L 98.314482 32.906549 
L 100.901494 33.405026 
L 101.123677 33.591626 
L 102.051409 34.012958 
L 104.72824 34.123731 
L 107.685163 34.628143 
L 108.864623 35.000683 
L 109.405898 35.692353 
L 110.129174 36.175666 
L 110.386812 37.090861 
L 110.70354 37.684286 
L 111.398453 38.739266 
L 111.262543 41.879148 
L 111.398453 42.461365 
L 113.489099 47.339326 
L 115.063288 49.463791 
L 116.002838 50.427119 
L 117.077116 51.2322 
L 121.18868 53.056655 
L 125.749338 53.841296 
L 131.113636 53.894704 
L 134.219469 54.551429 
L 137.391483 55.596518 
L 140.610771 56.24533 
L 141.142592 56.51435 
L 141.842231 57.035905 
L 143.978969 57.643178 
L 145.108792 58.175283 
L 146.333162 58.571559 
L 147.387348 58.758818 
L 147.57644 58.921021 
L 148.241807 59.733356 
L 148.521899 59.868525 
L 149.830178 60.148754 
L 152.611009 61.261098 
L 153.008102 61.624406 
L 154.293926 63.081596 
L 157.839397 65.622778 
L 159.070858 66.882819 
L 160.030498 67.381956 
L 160.920412 67.634492 
L 163.032331 68.972337 
L 163.643334 69.225533 
L 164.932703 69.412791 
L 166.227982 69.436528 
L 167.589443 69.286194 
L 168.343446 69.074539 
L 168.343446 69.074539 
" clip-path="url(#pf7d1d850cc)" style="fill: none; stroke: #000000; stroke-width: 2"/>
   </g>
  </g>
 </g>
 <defs>
  <clipPath id="pf7d1d850cc">
   <rect x="0" y="-0" width="276.55679" height="266.112"/>
  </clipPath>
 </defs>
</svg>
