<?xml version="1.0" encoding="utf-8" standalone="no"?>
<!DOCTYPE svg PUBLIC "-//W3C//DTD SVG 1.1//EN"
  "http://www.w3.org/Graphics/SVG/1.1/DTD/svg11.dtd">
<svg xmlns:xlink="http://www.w3.org/1999/xlink" width="127.167727pt" height="266.112pt" viewBox="0 0 127.167727 266.112" xmlns="http://www.w3.org/2000/svg" version="1.1">
 <metadata>
  <rdf:RDF xmlns:dc="http://purl.org/dc/elements/1.1/" xmlns:cc="http://creativecommons.org/ns#" xmlns:rdf="http://www.w3.org/1999/02/22-rdf-syntax-ns#">
   <cc:Work>
    <dc:type rdf:resource="http://purl.org/dc/dcmitype/StillImage"/>
    <dc:date>2024-02-02T21:58:03.032121</dc:date>
    <dc:format>image/svg+xml</dc:format>
    <dc:creator>
     <cc:Agent>
      <dc:title>Matplotlib v3.8.2, https://matplotlib.org/</dc:title>
     </cc:Agent>
    </dc:creator>
   </cc:Work>
  </rdf:RDF>
 </metadata>
 <defs>
  <style type="text/css">*{stroke-linejoin: round; stroke-linecap: butt}</style>
 </defs>
 <g id="figure_1">
  <g id="patch_1">
   <path d="M 0 266.112 
L 127.167727 266.112 
L 127.167727 0 
L 0 0 
L 0 266.112 
z
" style="fill: none"/>
  </g>
  <g id="axes_1">
   <g id="PatchCollection_1">
    <path d="M 114.497701 79.013074 
L 116.570417 95.459934 
L 116.526316 110.08946 
L 109.999467 153.114807 
L 111.565029 177.76238 
L 104.839728 205.090518 
L 103.384416 208.952349 
L 101.752704 209.633848 
L 94.961252 211.542048 
L 92.645985 213.08678 
L 90.132266 218.447911 
L 85.237128 239.778852 
L 81.863453 243.027333 
L 80.18764 243.936 
L 77.49752 243.936 
L 67.574944 230.351439 
L 27.046736 214.540646 
L 17.962067 203.591218 
L 16.242154 200.660769 
L 12.934628 197.003387 
L 10.817812 192.77809 
L 14.588391 184.032177 
L 15.183746 178.375729 
L 14.588391 167.380868 
L 13.728435 163.791636 
L 12.184922 160.97477 
L 10.817812 157.430972 
L 10.597311 151.751808 
L 12.008522 145.845477 
L 16.903659 135.441249 
L 17.962067 130.807051 
L 20.916789 123.037954 
L 33.882288 104.228563 
L 38.733325 91.688969 
L 51.919325 71.721028 
L 54.741746 69.472079 
L 60.033786 66.47348 
L 62.723907 63.792915 
L 64.002817 60.339983 
L 66.119633 50.480954 
L 68.280549 46.619122 
L 81.5327 27.537131 
L 89.206158 22.176 
L 99.679988 25.628932 
L 97.25447 35.260794 
L 100.870697 40.258459 
L 106.780142 43.665957 
L 111.146076 48.527322 
L 112.645487 55.478618 
L 114.497701 79.013074 
" clip-path="url(#p754a9861f1)" style="fill: none; stroke: #000000; stroke-width: 2"/>
   </g>
  </g>
 </g>
 <defs>
  <clipPath id="p754a9861f1">
   <rect x="0" y="-0" width="127.167727" height="266.112"/>
  </clipPath>
 </defs>
</svg>
