<?xml version="1.0" encoding="utf-8" standalone="no"?>
<!DOCTYPE svg PUBLIC "-//W3C//DTD SVG 1.1//EN"
  "http://www.w3.org/Graphics/SVG/1.1/DTD/svg11.dtd">
<svg xmlns:xlink="http://www.w3.org/1999/xlink" width="150.806656pt" height="266.112pt" viewBox="0 0 150.806656 266.112" xmlns="http://www.w3.org/2000/svg" version="1.1">
 <metadata>
  <rdf:RDF xmlns:dc="http://purl.org/dc/elements/1.1/" xmlns:cc="http://creativecommons.org/ns#" xmlns:rdf="http://www.w3.org/1999/02/22-rdf-syntax-ns#">
   <cc:Work>
    <dc:type rdf:resource="http://purl.org/dc/dcmitype/StillImage"/>
    <dc:date>2024-02-02T21:58:03.081131</dc:date>
    <dc:format>image/svg+xml</dc:format>
    <dc:creator>
     <cc:Agent>
      <dc:title>Matplotlib v3.8.2, https://matplotlib.org/</dc:title>
     </cc:Agent>
    </dc:creator>
   </cc:Work>
  </rdf:RDF>
 </metadata>
 <defs>
  <style type="text/css">*{stroke-linejoin: round; stroke-linecap: butt}</style>
 </defs>
 <g id="figure_1">
  <g id="patch_1">
   <path d="M 0 266.112 
L 150.806656 266.112 
L 150.806656 0 
L 0 0 
L 0 266.112 
z
" style="fill: none"/>
  </g>
  <g id="axes_1">
   <g id="PatchCollection_1">
    <path d="M 134.431463 154.931669 
L 133.59847 155.622431 
L 132.806668 154.996355 
L 132.564093 154.739919 
L 132.449671 154.622096 
L 132.413055 154.340247 
L 132.371863 154.060708 
L 132.371863 154.058398 
L 132.381017 153.942886 
L 132.614439 150.368943 
L 132.449671 149.135275 
L 131.831791 148.60854 
L 131.598369 148.102597 
L 129.717268 145.330309 
L 129.621153 144.734267 
L 129.401463 144.272218 
L 129.131426 143.703899 
L 128.948351 143.147131 
L 128.975812 142.55802 
L 129.149734 142.035905 
L 129.222964 141.486068 
L 129.222964 141.483758 
L 128.948351 140.825339 
L 128.948351 140.818409 
L 129.671499 141.525342 
L 130.362609 143.163303 
L 130.870644 143.921062 
L 130.99422 144.249116 
L 131.515985 145.658363 
L 132.884475 147.83923 
L 133.516086 148.844185 
L 134.468078 153.79503 
L 134.468078 153.799651 
L 134.431463 154.931669 
" clip-path="url(#pe832790c05)" style="fill: none; stroke: #000000; stroke-width: 2"/>
    <path d="M 25.30928 66.223048 
L 27.231573 68.085102 
L 27.226996 68.082792 
L 26.307042 67.891042 
L 24.686823 67.087078 
L 23.73483 66.920741 
L 25.194858 68.584114 
L 26.343657 69.896331 
L 26.847115 70.797325 
L 25.501509 70.626367 
L 24.622746 69.947156 
L 24.018597 69.207879 
L 23.565485 68.856723 
L 22.98422 68.561012 
L 20.668315 66.495657 
L 19.519515 65.982783 
L 18.370716 65.46991 
L 17.528569 65.241196 
L 17.080034 65.118753 
L 15.848851 64.982449 
L 15.221817 64.735253 
L 14.942627 64.190036 
L 15.121125 63.64482 
L 15.848851 63.395314 
L 18.361563 63.395314 
L 19.473747 63.681784 
L 20.622546 63.977494 
L 23.020835 64.89235 
L 25.30928 66.223048 
" clip-path="url(#pe832790c05)" style="fill: none; stroke: #000000; stroke-width: 2"/>
    <path d="M 15.880889 41.736808 
L 14.462053 41.819976 
L 13.143909 41.383341 
L 12.567221 40.667166 
L 12.567221 38.340754 
L 12.731989 37.744712 
L 13.102717 37.82095 
L 13.487176 38.299169 
L 13.720597 38.902142 
L 14.690898 39.207094 
L 15.848851 39.294883 
L 16.137195 39.505115 
L 16.787113 40.877398 
L 16.787113 40.879708 
L 16.338578 41.307103 
L 15.880889 41.736808 
" clip-path="url(#pe832790c05)" style="fill: none; stroke: #000000; stroke-width: 2"/>
    <path d="M 26.462656 30.728511 
L 26.700654 30.788577 
L 27.789954 30.728511 
L 27.973029 30.897158 
L 28.055413 31.749637 
L 28.19272 32.103104 
L 28.833484 32.507396 
L 29.703093 32.879345 
L 30.430818 33.292878 
L 30.490318 33.422252 
L 30.682547 33.828854 
L 30.293512 34.230836 
L 29.552056 34.235456 
L 28.755677 33.98826 
L 28.19272 33.634794 
L 27.79453 33.537764 
L 26.783038 34.133806 
L 26.07362 34.216974 
L 26.069043 34.216974 
L 25.199435 33.586279 
L 24.329826 32.285613 
L 22.965913 29.56646 
L 23.58837 28.593849 
L 23.730253 27.348629 
L 24.082674 26.339054 
L 25.30928 26.075686 
L 25.959198 26.272057 
L 25.968352 26.274367 
L 26.023274 26.752587 
L 25.803584 27.420246 
L 25.652546 28.191867 
L 25.675431 28.970418 
L 25.757815 29.591873 
L 25.762392 29.628836 
L 25.812738 29.753589 
L 26.004967 30.204086 
L 26.261273 30.497487 
L 26.462656 30.728511 
" clip-path="url(#pe832790c05)" style="fill: none; stroke: #000000; stroke-width: 2"/>
    <path d="M 58.262879 36.268468 
L 73.851763 48.95631 
L 74.245375 49.617038 
L 74.876986 50.40252 
L 76.085285 51.539159 
L 76.854202 52.534872 
L 76.167669 52.89527 
L 75.728287 52.6989 
L 75.137869 51.93652 
L 74.808333 51.765562 
L 73.792263 51.599225 
L 73.348305 51.733219 
L 73.641226 52.329261 
L 76.561281 55.050724 
L 77.705503 55.67911 
L 77.252391 54.974487 
L 76.977778 54.329929 
L 77.119661 53.85402 
L 77.897733 53.671511 
L 78.263884 53.918707 
L 78.858879 55.67911 
L 81.540936 61.034248 
L 79.920717 60.433585 
L 79.174685 60.419724 
L 78.858879 61.228308 
L 79.298261 61.433919 
L 80.213638 61.584085 
L 81.037478 62.166266 
L 81.165631 63.395314 
L 81.540936 63.395314 
L 81.897933 62.928645 
L 82.346468 62.656037 
L 82.346468 62.660657 
L 82.666851 63.928979 
L 83.463229 65.747139 
L 84.529644 67.378169 
L 85.824904 68.26068 
L 85.820327 68.658042 
L 85.559444 69.057714 
L 85.037679 69.244843 
L 84.886642 69.078506 
L 84.268762 68.085102 
L 83.595959 67.729325 
L 82.053548 67.331964 
L 81.156477 66.920741 
L 81.797242 67.812494 
L 83.82938 69.716132 
L 83.847688 70.797325 
L 84.515914 71.268614 
L 84.511337 71.273234 
L 83.380845 72.460698 
L 83.385422 72.463008 
L 84.268762 73.158391 
L 85.220755 73.084463 
L 85.998826 72.356737 
L 86.575514 71.344852 
L 86.950819 70.409204 
L 86.959972 70.413825 
L 88.992111 72.869611 
L 90.795405 75.967643 
L 91.532284 76.734643 
L 92.562084 77.034975 
L 93.385924 77.700324 
L 94.594223 80.632019 
L 95.230411 81.299679 
L 96.612631 81.928064 
L 97.303741 83.404308 
L 98.095543 86.372967 
L 98.237426 85.82775 
L 98.420502 85.615208 
L 98.731731 85.686826 
L 99.27638 85.984847 
L 99.111612 86.530064 
L 100.676908 88.239642 
L 101.198674 89.0875 
L 101.194097 90.110937 
L 100.782177 90.522159 
L 100.196335 90.792458 
L 99.660839 91.413912 
L 99.669993 91.409292 
L 100.818792 91.030412 
L 102.036244 93.682569 
L 102.214743 95.064093 
L 100.814215 95.290496 
L 101.102559 94.375641 
L 100.727254 93.640984 
L 100.104797 93.537023 
L 99.660839 94.514255 
L 99.811876 95.272014 
L 100.210066 95.8103 
L 100.429756 96.38555 
L 100.013259 97.263442 
L 99.07042 96.531095 
L 98.095543 95.928123 
L 97.111512 95.701719 
L 96.17325 96.09908 
L 95.445524 97.078622 
L 95.70183 97.591496 
L 96.571439 97.457502 
L 97.743123 96.489511 
L 98.548655 97.34661 
L 99.27638 98.374667 
L 100.155143 99.231767 
L 101.390903 99.587544 
L 103.976845 99.536718 
L 104.851031 98.982261 
L 104.274343 97.651562 
L 106.33852 96.794463 
L 106.965554 96.842978 
L 107.64751 97.235719 
L 108.269967 97.901068 
L 108.736809 98.677309 
L 109.134999 100.950586 
L 110.013761 103.87535 
L 110.068684 105.402419 
L 109.354689 104.901097 
L 108.608657 103.39482 
L 107.954162 103.076007 
L 107.931277 103.48723 
L 108.224198 105.471727 
L 108.53085 106.17866 
L 109.258575 106.518266 
L 110.018338 106.518266 
L 110.622488 106.790874 
L 110.979485 108.9625 
L 111.482943 110.718283 
L 111.775864 112.233801 
L 112.947547 116.200484 
L 113.391505 118.785644 
L 112.370859 120.204131 
L 111.720941 117.533493 
L 110.865063 115.163186 
L 110.453143 115.163186 
L 110.370759 117.958577 
L 110.453143 118.300493 
L 110.640795 118.522276 
L 111.121369 118.670131 
L 111.217483 118.84802 
L 111.675172 120.037794 
L 112.668357 120.76321 
L 113.611196 120.684661 
L 113.940732 119.464854 
L 114.283999 119.464854 
L 114.737111 120.29192 
L 115.199377 122.341104 
L 115.670796 123.128896 
L 116.29783 123.817348 
L 116.700596 124.487317 
L 117.396283 126.090624 
L 118.197239 125.27973 
L 118.444391 125.808775 
L 118.197239 126.090624 
L 118.549659 126.829901 
L 118.554236 126.825281 
L 118.833426 126.594257 
L 119.703035 126.090624 
L 119.703035 126.095245 
L 119.995956 126.802179 
L 119.689304 128.072811 
L 119.703035 128.414727 
L 120.096648 129.177106 
L 121.245447 130.059618 
L 121.657367 130.741139 
L 121.263754 130.84741 
L 120.883872 131.094606 
L 120.554336 132.332895 
L 121.213408 134.268876 
L 122.385092 135.608816 
L 123.959542 135.391653 
L 124.348577 136.576807 
L 124.929842 137.535557 
L 127.355593 140.076821 
L 128.138241 141.317421 
L 128.275548 142.414785 
L 127.026057 142.793664 
L 126.449369 142.400923 
L 125.067149 140.63821 
L 124.344 140.012135 
L 123.305047 139.67715 
L 122.641398 139.734906 
L 122.055556 140.335568 
L 121.657367 141.594649 
L 122.330169 141.901911 
L 122.980088 141.994321 
L 123.538468 141.786399 
L 123.959542 141.206529 
L 125.231917 141.760987 
L 125.584337 142.186071 
L 125.497376 142.793664 
L 127.575284 144.86826 
L 128.188587 145.894007 
L 128.18401 145.896318 
L 127.895666 146.231302 
L 127.822436 146.557046 
L 127.918551 146.947477 
L 128.188587 147.483453 
L 128.536431 147.056058 
L 128.325894 146.279817 
L 128.989543 146.515462 
L 130.293956 147.483453 
L 130.605184 147.93626 
L 131.575485 150.694687 
L 131.310025 152.311856 
L 131.639561 153.083476 
L 131.419871 153.473907 
L 131.017104 153.785789 
L 130.774529 154.132325 
L 131.6121 155.643223 
L 132.02402 156.010551 
L 131.419871 156.449497 
L 131.529716 156.883822 
L 131.982828 156.978542 
L 132.43594 156.396361 
L 132.78836 156.398672 
L 133.218588 158.68812 
L 133.204857 159.531358 
L 133.214011 159.531358 
L 133.59847 159.531358 
L 133.59847 159.510566 
L 133.781545 157.930361 
L 134.019543 157.260391 
L 134.367387 156.784482 
L 134.335349 156.308572 
L 134.211773 155.952795 
L 134.312464 155.774907 
L 134.623693 155.90659 
L 135.12715 156.396361 
L 135.301072 156.844548 
L 135.429225 158.048183 
L 136.294257 159.427397 
L 137.699362 164.25811 
L 137.433902 177.608991 
L 137.571209 178.507675 
L 138.147897 180.515274 
L 138.239435 181.698117 
L 137.919053 183.955222 
L 135.328534 192.967471 
L 135.182073 193.896188 
L 135.12715 195.125236 
L 134.934921 196.150982 
L 134.124812 197.733497 
L 133.625931 199.410732 
L 132.02402 201.928894 
L 132.408479 203.310418 
L 131.790599 204.948379 
L 126.495138 213.366896 
L 124.728459 215.143471 
L 121.465137 217.469883 
L 120.398722 217.791007 
L 118.970733 218.560317 
L 108.53085 226.807876 
L 106.443788 227.944514 
L 99.660839 230.365646 
L 99.564724 229.496996 
L 99.061267 229.203595 
L 98.722577 229.296005 
L 98.507463 229.751122 
L 98.397618 230.707562 
L 98.090966 231.06796 
L 96.942167 231.493044 
L 95.720138 232.234631 
L 94.498108 232.775227 
L 88.644268 234.038929 
L 85.806596 235.018471 
L 82.694312 235.58679 
L 81.275476 236.136628 
L 80.424175 237.342573 
L 78.900071 237.042242 
L 77.43089 237.612871 
L 73.101153 240.831037 
L 72.103391 241.995398 
L 69.796639 241.856783 
L 68.835493 241.995398 
L 68.084883 242.281868 
L 67.311389 242.725434 
L 65.942899 243.755801 
L 65.155674 243.936 
L 64.221989 243.573292 
L 62.665846 242.887151 
L 62.272234 242.769329 
L 59.018066 243.157449 
L 58.088958 242.97494 
L 57.617538 242.505961 
L 56.898967 241.256121 
L 55.946974 241.815199 
L 55.095672 241.879886 
L 52.949112 241.487145 
L 52.523461 240.953479 
L 52.084079 240.831037 
L 51.617237 241.108265 
L 51.397546 241.265362 
L 51.003934 241.172952 
L 50.912396 241.092094 
L 50.335708 240.442916 
L 47.534652 239.435651 
L 45.850357 239.084495 
L 44.353714 237.964028 
L 43.804488 237.69604 
L 43.392568 238.118814 
L 42.34446 237.268646 
L 37.145114 231.640899 
L 37.163422 231.160369 
L 36.829309 230.659047 
L 36.321274 229.991387 
L 33.726178 224.483774 
L 33.630064 223.481129 
L 33.54768 222.71875 
L 33.080837 221.741518 
L 32.604841 219.091672 
L 31.570464 217.229618 
L 30.563548 213.496269 
L 30.069244 213.126631 
L 29.91363 212.814748 
L 29.977706 212.482074 
L 30.25232 212.401215 
L 30.682547 212.426628 
L 30.215705 209.210773 
L 24.224557 193.776055 
L 23.386987 189.063164 
L 23.451063 184.819252 
L 24.009443 183.472382 
L 24.155904 182.825514 
L 24.142173 182.155545 
L 21.450963 172.568046 
L 21.821691 171.161109 
L 21.803383 172.02745 
L 22.01392 172.572666 
L 22.581454 173.489832 
L 23.121527 175.39116 
L 23.386987 175.848588 
L 23.73483 175.848588 
L 23.817214 175.305681 
L 24.123866 175.040003 
L 24.155904 175.072347 
L 24.155904 175.070036 
L 24.142173 173.323495 
L 24.018597 172.563425 
L 23.73483 171.93735 
L 23.469371 171.754841 
L 22.727915 171.593124 
L 22.361763 171.292793 
L 22.16038 170.88388 
L 22.251918 170.433383 
L 22.581454 169.610938 
L 19.817013 149.343197 
L 19.473747 148.60854 
L 19.88109 148.333621 
L 20.283856 148.60854 
L 20.375394 147.626688 
L 20.723237 145.942522 
L 20.791891 145.394995 
L 20.476085 144.540206 
L 20.050435 143.757035 
L 19.885667 142.717426 
L 19.890243 140.624348 
L 18.443947 133.524979 
L 17.775721 132.127283 
L 17.208187 129.190967 
L 16.288232 126.873796 
L 14.873973 120.472119 
L 14.873973 118.65396 
L 15.134856 118.84802 
L 15.258432 119.04208 
L 15.459815 117.9863 
L 15.162317 114.631831 
L 14.873973 113.615325 
L 15.798505 113.005421 
L 16.672691 111.875714 
L 17.304301 110.58891 
L 17.812336 108.800783 
L 19.473747 106.17866 
L 19.455439 106.222555 
L 18.617868 108.202431 
L 17.55603 110.089898 
L 17.848951 110.662837 
L 18.265448 111.078681 
L 18.810098 111.295843 
L 19.473747 111.291223 
L 18.929097 112.834464 
L 18.361563 113.966482 
L 18.114411 114.162852 
L 17.853528 114.190575 
L 17.647568 114.349982 
L 17.55603 114.952954 
L 17.55603 116.713358 
L 16.604037 119.755945 
L 16.713883 121.447041 
L 17.977104 122.951007 
L 16.851189 125.307453 
L 18.64533 126.612739 
L 21.254156 126.81835 
L 22.581454 125.878082 
L 22.329725 124.866197 
L 21.537923 123.521637 
L 21.039043 122.893251 
L 20.476085 122.532854 
L 20.311317 121.91833 
L 22.206149 118.300493 
L 22.132919 117.644385 
L 21.437232 116.327547 
L 21.391463 115.643716 
L 21.405194 113.874072 
L 21.162619 113.386611 
L 20.942928 113.051626 
L 21.052773 112.41631 
L 21.318233 111.878024 
L 22.055112 110.912343 
L 22.206149 110.283958 
L 22.325148 109.096494 
L 22.851491 106.719257 
L 23.386987 101.174679 
L 23.730253 100.543983 
L 24.384748 99.855532 
L 24.503747 99.026155 
L 24.503747 96.662779 
L 24.828707 95.503038 
L 25.593047 94.756831 
L 26.499271 94.139996 
L 27.231573 93.349894 
L 28.124066 90.711599 
L 28.645832 89.574961 
L 29.144713 84.048865 
L 27.789954 80.523438 
L 27.899799 79.911224 
L 28.00049 75.83596 
L 27.698416 73.832981 
L 27.176651 72.76565 
L 27.698416 72.4838 
L 28.952483 72.1904 
L 32.215805 69.244843 
L 33.918408 68.406226 
L 34.627826 67.784771 
L 35.00313 66.403247 
L 35.675933 64.982449 
L 36.060392 63.007193 
L 37.932339 58.067899 
L 38.449528 56.000233 
L 38.449528 52.70121 
L 38.573104 52.218369 
L 38.463258 51.890315 
L 37.804186 51.765562 
L 36.252621 50.956978 
L 35.648472 50.393279 
L 35.204513 49.131888 
L 34.934477 47.801189 
L 34.907016 47.045741 
L 35.579818 46.336497 
L 36.824732 45.715042 
L 38.206953 45.273786 
L 39.342021 45.105138 
L 39.850056 44.844081 
L 41.227699 43.097539 
L 41.854733 42.686317 
L 42.362768 42.496877 
L 43.008109 42.395226 
L 42.152231 40.972118 
L 41.827272 40.537793 
L 40.998855 39.719968 
L 39.904978 38.902142 
L 35.744586 36.457908 
L 34.907016 35.415989 
L 36.719464 35.473745 
L 38.435797 36.162197 
L 41.822695 38.130522 
L 45.053978 38.943727 
L 45.90528 39.488943 
L 47.237154 40.653305 
L 47.56669 41.270139 
L 46.880157 41.618985 
L 47.232577 42.395226 
L 46.880157 42.778726 
L 46.884734 42.781036 
L 48.060994 43.573449 
L 50.839166 42.894238 
L 55.919512 40.877398 
L 57.288002 41.009082 
L 60.285864 41.836148 
L 63.823799 43.430214 
L 66.501279 43.943087 
L 62.675 41.318654 
L 61.356856 40.708751 
L 59.841906 40.292907 
L 58.441378 39.294883 
L 57.594654 39.257919 
L 56.898967 39.294883 
L 56.395509 39.560561 
L 56.271933 39.766172 
L 56.052242 39.879374 
L 55.306209 39.327227 
L 55.008712 39.276401 
L 53.182533 39.324916 
L 52.660768 39.17244 
L 48.660567 35.70708 
L 46.326353 34.325556 
L 43.43376 33.059544 
L 42.390229 32.456571 
L 41.689965 32.44733 
L 41.822695 33.828854 
L 42.21173 34.235456 
L 42.81588 34.695194 
L 43.172877 35.256583 
L 42.81588 35.981998 
L 42.390229 36.111372 
L 40.522858 35.014007 
L 38.422066 33.181986 
L 37.213768 32.664493 
L 37.218345 32.669113 
L 37.831648 33.343703 
L 38.939255 34.300143 
L 39.552558 34.993215 
L 38.188645 34.729848 
L 36.84304 34.168459 
L 34.138098 32.664493 
L 31.982384 30.968776 
L 30.572702 30.437421 
L 29.63444 29.940719 
L 29.565786 30.342701 
L 28.947906 29.919927 
L 28.714485 29.3724 
L 28.384949 27.979325 
L 27.79453 27.062159 
L 26.847115 25.655222 
L 28.064567 25.045319 
L 30.279781 22.996135 
L 31.28212 22.552569 
L 35.675933 22.94069 
L 37.968954 22.684253 
L 38.806525 22.781283 
L 39.136061 23.539042 
L 39.081138 24.728816 
L 39.245906 25.142349 
L 40.193322 25.366442 
L 41.822695 25.865454 
L 42.074424 26.364466 
L 42.678573 26.343674 
L 43.809065 26.077996 
L 44.431521 26.440704 
L 50.967319 33.551625 
L 52.71569 34.6513 
L 56.898967 36.58035 
L 56.898967 36.57804 
L 56.898967 36.157576 
L 54.857674 35.124899 
L 49.914634 31.079667 
L 45.864088 26.406051 
L 43.804488 25.299445 
L 40.577781 24.537066 
L 39.72648 23.927162 
L 39.616634 23.065443 
L 41.18193 22.487883 
L 42.353614 22.291512 
L 44.68325 22.176 
L 45.804588 22.386232 
L 46.582659 22.933759 
L 47.099848 24.791192 
L 47.617036 25.567433 
L 54.98125 34.216974 
L 56.065973 35.014007 
L 58.262879 36.268468 
L 58.262879 36.268468 
" clip-path="url(#pe832790c05)" style="fill: none; stroke: #000000; stroke-width: 2"/>
   </g>
  </g>
 </g>
 <defs>
  <clipPath id="pe832790c05">
   <rect x="0" y="-0" width="150.806656" height="266.112"/>
  </clipPath>
 </defs>
</svg>
