<?xml version="1.0" encoding="utf-8" standalone="no"?>
<!DOCTYPE svg PUBLIC "-//W3C//DTD SVG 1.1//EN"
  "http://www.w3.org/Graphics/SVG/1.1/DTD/svg11.dtd">
<svg xmlns:xlink="http://www.w3.org/1999/xlink" width="269.65347pt" height="266.112pt" viewBox="0 0 269.65347 266.112" xmlns="http://www.w3.org/2000/svg" version="1.1">
 <metadata>
  <rdf:RDF xmlns:dc="http://purl.org/dc/elements/1.1/" xmlns:cc="http://creativecommons.org/ns#" xmlns:rdf="http://www.w3.org/1999/02/22-rdf-syntax-ns#">
   <cc:Work>
    <dc:type rdf:resource="http://purl.org/dc/dcmitype/StillImage"/>
    <dc:date>2024-02-02T21:58:03.104135</dc:date>
    <dc:format>image/svg+xml</dc:format>
    <dc:creator>
     <cc:Agent>
      <dc:title>Matplotlib v3.8.2, https://matplotlib.org/</dc:title>
     </cc:Agent>
    </dc:creator>
   </cc:Work>
  </rdf:RDF>
 </metadata>
 <defs>
  <style type="text/css">*{stroke-linejoin: round; stroke-linecap: butt}</style>
 </defs>
 <g id="figure_1">
  <g id="patch_1">
   <path d="M -0 266.112 
L 269.65347 266.112 
L 269.65347 0 
L -0 0 
L -0 266.112 
z
" style="fill: none"/>
  </g>
  <g id="axes_1">
   <g id="PatchCollection_1">
    <path d="M 205.165891 58.102371 
L 206.51141 58.025535 
L 208.687143 58.629247 
L 210.676793 59.584211 
L 211.521321 60.64894 
L 211.549949 62.734491 
L 212.08434 64.084612 
L 213.305804 64.929809 
L 215.38611 65.489615 
L 218.563825 66.960478 
L 226.17889 75.083152 
L 229.223008 76.016162 
L 232.916028 76.114952 
L 235.721579 77.300423 
L 236.189171 83.414382 
L 237.224552 84.687667 
L 238.67027 85.796302 
L 239.939447 87.234235 
L 240.636063 89.034395 
L 241.647588 92.777412 
L 244.224114 96.300896 
L 245.159298 98.595003 
L 245.245182 99.242622 
L 245.159298 100.867157 
L 245.254724 101.635518 
L 245.66506 102.283137 
L 246.896067 103.512514 
L 247.182348 104.127203 
L 246.843582 105.674902 
L 245.135441 108.133658 
L 244.963672 109.802099 
L 245.0257 111.338821 
L 244.596279 112.524293 
L 243.823321 113.468279 
L 242.773625 114.258594 
L 240.34024 115.334299 
L 237.591946 116.190473 
L 234.986792 117.343015 
L 233.040083 119.340754 
L 232.372095 121.569001 
L 232.338696 124.291195 
L 232.973285 126.826786 
L 234.290176 128.473275 
L 232.782431 129.51605 
L 232.63929 131.173515 
L 232.658376 132.929769 
L 231.618223 134.257936 
L 224.50892 136.46423 
L 221.827425 138.593688 
L 220.329223 141.250023 
L 219.160243 144.257608 
L 217.437788 147.429841 
L 217.30419 150.086176 
L 216.750714 152.896182 
L 216.703001 155.44275 
L 218.04852 157.3417 
L 219.212728 158.252757 
L 219.470381 159.010141 
L 219.413124 159.954128 
L 219.613521 161.446944 
L 220.625046 163.488589 
L 220.844528 164.531365 
L 220.252881 165.442422 
L 219.193643 165.969298 
L 216.750714 166.693753 
L 215.624677 167.198676 
L 204.746012 173.960254 
L 194.010488 181.0182 
L 188.065393 183.465979 
L 181.958073 184.783169 
L 173.665477 187.93345 
L 170.545017 187.911497 
L 166.059954 186.177196 
L 164.514038 186.00157 
L 163.015836 186.363798 
L 159.007907 188.767671 
L 156.727205 189.579938 
L 152.270769 188.932319 
L 150.047323 189.28357 
L 148.219898 190.886152 
L 145.872397 195.320693 
L 144.426679 196.769603 
L 143.567837 197.417222 
L 142.422715 199.085663 
L 141.783355 199.722305 
L 140.891113 200.117462 
L 138.176219 200.512619 
L 136.487163 201.193168 
L 134.549997 202.367663 
L 133.128137 203.970244 
L 132.92774 205.94603 
L 133.939265 207.383963 
L 135.294327 208.009629 
L 136.37265 208.953615 
L 136.62076 211.379441 
L 135.971858 213.673548 
L 134.750393 215.111481 
L 126.906304 221.269347 
L 126.181059 222.531654 
L 126.381456 223.365875 
L 127.45978 225.231895 
L 127.755603 226.285647 
L 127.641091 227.152797 
L 125.761181 232.739881 
L 125.021623 233.70582 
L 124.286836 234.331486 
L 123.499564 234.759573 
L 122.731378 235.308402 
L 122.134959 236.296295 
L 121.60534 238.43673 
L 121.667368 240.160054 
L 121.896392 241.861425 
L 121.877307 243.936 
L 119.653861 242.97006 
L 108.746568 242.026074 
L 106.809402 241.400408 
L 104.967663 240.478375 
L 104.089736 239.78685 
L 103.364491 239.062395 
L 102.581991 238.447706 
L 101.51321 238.085479 
L 100.711624 238.217198 
L 98.946227 239.084348 
L 98.020586 239.238021 
L 94.146255 238.722121 
L 90.930369 237.723251 
L 88.153446 235.966997 
L 83.167392 230.314055 
L 77.541977 226.044162 
L 76.959873 225.144082 
L 76.45411 222.290169 
L 74.230664 219.161842 
L 71.816364 216.790899 
L 71.177004 214.562652 
L 67.808435 213.014953 
L 66.357946 211.807528 
L 65.365507 210.19397 
L 64.687976 207.592518 
L 64.015216 206.900993 
L 62.531328 206.87904 
L 60.575077 207.691308 
L 59.926174 207.801074 
L 58.986219 207.658378 
L 57.082453 207.120525 
L 56.080471 206.999783 
L 56.233154 205.342318 
L 54.176704 199.623516 
L 54.004936 196.583001 
L 56.023215 191.577677 
L 57.406904 190.172674 
L 57.483246 189.118921 
L 56.614861 188.405443 
L 55.202543 188.010286 
L 53.150865 188.010286 
L 52.005743 188.284701 
L 51.151672 187.944426 
L 50.011321 186.177196 
L 49.391046 184.68438 
L 48.140954 179.646126 
L 46.824063 177.505692 
L 42.396256 173.762675 
L 40.630858 171.6881 
L 30.458353 147.418865 
L 29.671081 145.838236 
L 26.980043 141.765922 
L 25.749036 140.668264 
L 24.537115 139.987715 
L 23.215452 138.912009 
L 22.471123 138.549782 
L 23.606702 135.915401 
L 23.644873 134.203053 
L 24.341489 133.204184 
L 25.314844 133.204184 
L 26.183228 134.466492 
L 26.813046 133.665201 
L 27.519205 131.952853 
L 28.015424 131.502813 
L 28.92198 131.48086 
L 29.446828 132.688284 
L 30.2007 133.017582 
L 30.620578 132.721214 
L 33.60744 129.54898 
L 34.10366 129.208706 
L 36.708814 128.154954 
L 39.418937 127.869562 
L 40.35412 127.518312 
L 42.005005 126.607255 
L 44.600617 126.069402 
L 46.566411 125.235181 
L 49.572357 123.456974 
L 50.202175 122.787402 
L 50.812907 121.843416 
L 51.270956 120.723804 
L 51.452267 119.505403 
L 51.948487 119.121222 
L 54.114677 119.220011 
L 54.610897 118.769971 
L 55.002147 116.860045 
L 56.023215 115.20258 
L 59.859375 110.976594 
L 60.470107 110.515577 
L 60.83273 109.878935 
L 60.966327 108.528815 
L 60.699132 107.694594 
L 59.783034 106.42131 
L 60.002516 105.685879 
L 60.83273 105.00533 
L 61.682029 104.719939 
L 62.540871 104.247946 
L 63.437884 103.018568 
L 63.666908 102.063605 
L 63.848219 99.593873 
L 64.124957 98.737699 
L 65.656559 97.760782 
L 70.184564 96.267966 
L 71.105434 95.477652 
L 70.952751 94.248274 
L 70.375418 91.778542 
L 70.423131 90.757719 
L 71.038635 89.813733 
L 71.969047 89.253927 
L 73.581761 88.518496 
L 78.868411 81.976449 
L 80.958259 78.024878 
L 80.509753 75.467333 
L 81.134799 74.742878 
L 81.769388 75.467333 
L 83.668383 74.742878 
L 82.866797 73.689126 
L 81.712132 72.492678 
L 81.287482 71.515761 
L 82.752285 71.109628 
L 83.902179 70.593728 
L 85.032987 69.36435 
L 86.81747 66.762899 
L 87.170549 66.63118 
L 87.981678 66.806805 
L 88.134361 66.367742 
L 88.23933 65.259106 
L 88.659209 64.34805 
L 88.754636 63.491876 
L 88.764178 62.021013 
L 89.518051 61.175816 
L 90.973311 60.670893 
L 91.960979 59.847649 
L 91.283448 58.058465 
L 101.799491 58.78292 
L 104.261504 57.663308 
L 105.120346 56.060726 
L 105.70245 54.381308 
L 106.44678 52.976305 
L 107.792299 52.196967 
L 109.529068 52.416499 
L 110.626477 53.437322 
L 111.485319 54.556933 
L 112.525472 55.094786 
L 115.035199 55.094786 
L 115.855871 54.853301 
L 115.970383 54.227636 
L 115.941755 53.404392 
L 116.333005 52.559195 
L 119.825629 47.850238 
L 123.919442 43.426674 
L 124.215266 42.811985 
L 126.763163 39.014085 
L 128.910268 36.149196 
L 129.750025 36.478494 
L 135.905059 35.852828 
L 137.765883 36.687049 
L 139.893902 36.917557 
L 142.031465 36.632166 
L 143.892289 35.907711 
L 145.667229 34.272199 
L 148.167413 29.914494 
L 149.961439 28.092381 
L 151.850891 27.29109 
L 164.704892 26.423939 
L 166.537088 25.973899 
L 171.79511 22.351625 
L 173.169257 22.176 
L 174.915569 23.482214 
L 176.146576 24.986006 
L 176.986332 26.74226 
L 177.549351 28.827812 
L 178.217339 33.185517 
L 179.190693 34.678333 
L 183.284506 34.788099 
L 184.649111 35.951617 
L 187.330606 41.077684 
L 188.094021 41.67042 
L 191.047628 42.224621 
L 192.502743 42.779055 
L 193.917007 43.653728 
L 195.193781 44.776794 
L 196.377075 46.225703 
L 200.089181 52.844586 
L 205.165891 58.102371 
L 205.165891 58.102371 
" clip-path="url(#p345bb11699)" style="fill: none; stroke: #000000; stroke-width: 2"/>
   </g>
  </g>
 </g>
 <defs>
  <clipPath id="p345bb11699">
   <rect x="-0" y="-0" width="269.65347" height="266.112"/>
  </clipPath>
 </defs>
</svg>
