<?xml version="1.0" encoding="utf-8" standalone="no"?>
<!DOCTYPE svg PUBLIC "-//W3C//DTD SVG 1.1//EN"
  "http://www.w3.org/Graphics/SVG/1.1/DTD/svg11.dtd">
<svg xmlns:xlink="http://www.w3.org/1999/xlink" width="349.494097pt" height="266.112pt" viewBox="0 0 349.494097 266.112" xmlns="http://www.w3.org/2000/svg" version="1.1">
 <metadata>
  <rdf:RDF xmlns:dc="http://purl.org/dc/elements/1.1/" xmlns:cc="http://creativecommons.org/ns#" xmlns:rdf="http://www.w3.org/1999/02/22-rdf-syntax-ns#">
   <cc:Work>
    <dc:type rdf:resource="http://purl.org/dc/dcmitype/StillImage"/>
    <dc:date>2024-02-02T21:58:03.128141</dc:date>
    <dc:format>image/svg+xml</dc:format>
    <dc:creator>
     <cc:Agent>
      <dc:title>Matplotlib v3.8.2, https://matplotlib.org/</dc:title>
     </cc:Agent>
    </dc:creator>
   </cc:Work>
  </rdf:RDF>
 </metadata>
 <defs>
  <style type="text/css">*{stroke-linejoin: round; stroke-linecap: butt}</style>
 </defs>
 <g id="figure_1">
  <g id="patch_1">
   <path d="M 0 266.112 
L 349.494097 266.112 
L 349.494097 0 
L 0 0 
L 0 266.112 
z
" style="fill: none"/>
  </g>
  <g id="axes_1">
   <g id="PatchCollection_1">
    <path d="M 32.315146 122.070615 
L 32.339323 123.650751 
L 29.124508 122.822851 
L 29.12463 122.822639 
L 29.136731 122.801455 
L 32.839504 116.372185 
L 34.920801 111.245716 
L 36.945629 104.170341 
L 37.478054 96.876068 
L 37.788635 95.400266 
L 37.518389 94.987183 
L 37.788635 94.161016 
L 37.357048 92.413356 
L 37.498221 86.997376 
L 37.086802 84.628326 
L 38.684077 86.630191 
L 39.381876 90.464451 
L 39.482714 98.037644 
L 39.373809 99.128607 
L 38.913987 100.579694 
L 38.805082 101.617699 
L 38.805082 104.879997 
L 38.236356 106.299309 
L 37.453852 107.729212 
L 37.183607 109.077911 
L 38.127451 110.260671 
L 38.127451 110.800857 
L 37.413517 111.711758 
L 36.505975 113.3535 
L 35.719438 115.291813 
L 35.388689 117.07831 
L 34.739292 118.836562 
L 32.315146 122.070615 
" clip-path="url(#p59634ac0fe)" style="fill: none; stroke: #000000; stroke-width: 2"/>
    <path d="M 226.664928 23.967316 
L 227.960939 27.614965 
L 229.241582 32.876816 
L 229.789698 34.484292 
L 230.286587 35.374345 
L 231.936055 37.161177 
L 232.417577 38.00415 
L 233.29866 40.797616 
L 234.743225 43.416211 
L 236.531003 44.694121 
L 253.660886 47.595201 
L 257.028978 46.994359 
L 259.513425 48.16914 
L 260.363773 48.335044 
L 263.319497 48.101881 
L 263.923961 48.361947 
L 264.287663 49.124209 
L 265.209726 52.047709 
L 265.645145 52.953456 
L 266.249609 53.547572 
L 269.097759 55.491341 
L 274.302293 61.262114 
L 281.555856 66.015042 
L 284.619154 69.418319 
L 289.536824 73.630938 
L 290.781609 75.552287 
L 291.929065 78.200027 
L 294.5467 82.858794 
L 297.650979 85.192662 
L 304.525472 88.492808 
L 307.322396 89.255071 
L 310.150056 89.474781 
L 310.611088 91.532889 
L 310.800623 93.860031 
L 310.677681 96.146817 
L 310.201282 98.061441 
L 309.238238 99.576997 
L 308.024189 100.971489 
L 307.056023 102.554304 
L 306.835752 104.643799 
L 307.76806 106.459776 
L 307.60926 107.468653 
L 305.852218 109.244275 
L 305.427044 110.203829 
L 304.771355 113.436717 
L 304.428143 114.25727 
L 303.244828 116.449894 
L 302.763307 118.064097 
L 302.9887 118.969843 
L 303.767331 119.507911 
L 306.723055 120.615433 
L 307.563157 120.660272 
L 310.55474 119.853171 
L 318.77903 121.296985 
L 319.916241 122.171345 
L 320.369589 123.633094 
L 319.821474 125.03207 
L 318.627914 125.9423 
L 315.431429 126.798724 
L 314.668165 127.251598 
L 313.24409 128.664025 
L 312.460337 129.749127 
L 312.101757 130.67281 
L 311.784157 133.080661 
L 311.230919 135.60061 
L 310.467656 136.865069 
L 309.376548 137.06236 
L 304.146401 134.708315 
L 303.439486 134.789025 
L 303.019435 135.214995 
L 302.420094 136.066935 
L 301.93345 136.223872 
L 301.513399 136.23284 
L 296.022001 134.797993 
L 293.788559 135.192576 
L 292.231297 137.663202 
L 292.09811 138.649659 
L 292.144213 140.801929 
L 292.052007 141.846676 
L 291.816369 142.586519 
L 289.992733 146.590637 
L 288.297161 149.213716 
L 287.554388 150.043237 
L 285.76661 151.079016 
L 279.747588 152.321055 
L 278.825524 152.30312 
L 277.022379 151.881634 
L 276.115684 151.85473 
L 274.251067 152.657347 
L 273.667094 153.164028 
L 273.487804 153.814192 
L 273.40072 154.598874 
L 273.08312 155.486685 
L 272.048361 156.719756 
L 270.895782 157.621019 
L 269.912248 158.656799 
L 269.394868 160.288937 
L 269.466584 161.064651 
L 269.891758 162.795434 
L 269.922493 163.512857 
L 269.702223 164.243732 
L 269.451216 164.409636 
L 269.113127 164.418604 
L 268.626482 164.669702 
L 267.545619 165.651675 
L 267.017994 166.427389 
L 266.864317 167.588718 
L 266.956524 172.915585 
L 266.500615 174.632917 
L 266.285467 175.493825 
L 266.229118 176.587896 
L 266.562085 178.305227 
L 267.791503 181.385663 
L 268.073244 183.06264 
L 267.817116 184.78894 
L 267.125568 186.138592 
L 266.177893 187.129533 
L 263.145329 188.963446 
L 262.387189 190.008194 
L 261.844196 191.76588 
L 261.629048 194.039215 
L 261.664906 195.846225 
L 261.480493 197.518718 
L 260.594288 199.401954 
L 258.319866 202.208872 
L 257.387558 204.08314 
L 257.320964 206.266797 
L 257.997144 207.387771 
L 259.072884 207.813741 
L 261.224365 207.665773 
L 264.195457 206.065022 
L 264.93823 205.863247 
L 265.61441 206.266797 
L 265.901274 206.979737 
L 266.049828 207.827193 
L 266.766988 209.688009 
L 266.966769 209.737332 
L 267.535374 209.544525 
L 267.760767 209.598331 
L 268.677708 210.777596 
L 269.067023 211.557794 
L 269.594649 212.804316 
L 270.106906 213.091286 
L 270.23497 213.620385 
L 270.117151 214.006 
L 269.3795 215.212168 
L 269.333397 219.180415 
L 268.938959 220.543519 
L 267.796625 221.426847 
L 267.20753 221.516524 
L 265.348036 221.256459 
L 264.810166 221.507557 
L 264.026412 222.633014 
L 263.509032 222.946887 
L 262.423047 222.982758 
L 258.033002 222.233948 
L 256.696011 221.55688 
L 255.569044 220.449357 
L 255.195097 218.89793 
L 255.563922 218.28812 
L 256.977752 217.785924 
L 257.336332 217.140243 
L 257.059713 216.395916 
L 255.866154 215.736784 
L 255.983973 214.875876 
L 256.998242 214.279518 
L 258.155944 214.378163 
L 258.575995 214.050839 
L 254.516356 208.333873 
L 253.886279 208.18142 
L 252.636372 208.795714 
L 250.648813 211.804408 
L 249.445009 212.607025 
L 245.372564 212.840187 
L 242.227304 211.683343 
L 241.341099 211.835795 
L 240.711022 212.974704 
L 239.696753 217.059533 
L 238.877141 218.871026 
L 236.848603 221.207136 
L 234.686877 222.646466 
L 232.46368 223.023113 
L 228.555158 221.458234 
L 226.275613 221.121942 
L 223.9807 221.386492 
L 222.274883 222.444691 
L 222.075103 222.991726 
L 222.105839 224.561089 
L 221.178653 225.161931 
L 220.738112 225.73587 
L 220.425635 225.767257 
L 220.338551 226.05871 
L 220.569067 227.381459 
L 221.158163 229.255727 
L 221.824097 230.739897 
L 222.264638 232.38997 
L 222.151942 234.78437 
L 221.521865 236.259572 
L 220.645905 236.748316 
L 217.434052 237.290867 
L 216.527357 237.223609 
L 215.794829 236.474799 
L 215.154507 234.78437 
L 214.790805 234.613982 
L 214.606392 234.649853 
L 213.423078 235.591471 
L 210.257328 236.232668 
L 207.757512 237.730289 
L 202.076579 242.994382 
L 200.283679 243.936 
L 198.501024 243.918064 
L 196.928394 243.42932 
L 195.253313 243.505546 
L 194.295391 243.312739 
L 193.767766 242.478734 
L 192.912297 239.985688 
L 191.52408 238.241453 
L 189.961695 237.680966 
L 188.332717 237.985871 
L 185.269418 239.694235 
L 183.804363 240.115721 
L 180.628368 240.156076 
L 179.813878 239.954301 
L 178.353945 238.981296 
L 177.580437 238.649488 
L 176.832541 238.797456 
L 173.04696 241.052856 
L 172.662767 241.120114 
L 172.242716 240.985597 
L 171.351388 240.443046 
L 171.008176 240.371303 
L 170.244913 240.685176 
L 169.384321 241.339825 
L 166.285164 241.797182 
L 163.841697 242.882285 
L 163.073311 242.949543 
L 162.222964 242.63567 
L 157.771448 239.846688 
L 156.060509 239.384847 
L 156.265412 238.878166 
L 156.296147 238.402873 
L 156.152715 237.967936 
L 155.860729 237.577837 
L 155.333104 237.129447 
L 154.933543 236.501702 
L 154.723518 235.712536 
L 154.754253 234.78437 
L 155.261388 234.057979 
L 155.860729 233.542331 
L 156.598379 232.210614 
L 156.583011 230.251152 
L 155.481658 224.350346 
L 154.938666 222.40882 
L 154.247118 220.673552 
L 153.427507 219.427029 
L 152.971598 219.149028 
L 151.906103 218.848607 
L 151.393845 218.489895 
L 150.937936 217.817311 
L 149.559964 215.28391 
L 147.654367 213.615901 
L 143.658761 212.064474 
L 141.768531 210.876241 
L 138.694988 208.235227 
L 137.793415 207.786838 
L 136.794513 208.015516 
L 135.611199 208.531164 
L 134.473988 208.535648 
L 133.58266 207.257738 
L 133.587783 206.33854 
L 134.053937 204.53153 
L 133.74146 204.051753 
L 132.040766 203.845494 
L 131.482405 203.455395 
L 131.169928 202.899392 
L 130.667916 201.545256 
L 130.140291 200.99822 
L 129.633157 200.877155 
L 128.506191 201.119286 
L 127.96832 201.047543 
L 124.997228 199.47818 
L 123.941978 199.330211 
L 122.640476 200.049082 
L 121.385815 202.428583 
L 120.453506 203.204297 
L 117.467046 197.783268 
L 116.150545 194.79251 
L 115.863681 191.402685 
L 116.217139 184.667875 
L 117.303124 180.533723 
L 117.523395 178.96436 
L 117.467046 178.022742 
L 117.159692 176.04086 
L 117.164815 175.153049 
L 117.37484 174.547723 
L 118.460826 172.915585 
L 118.486438 172.570326 
L 118.2508 171.767708 
L 118.353252 171.350706 
L 118.522296 171.202738 
L 118.942347 171.095124 
L 119.46485 170.637767 
L 120.335687 170.15799 
L 120.74037 169.691665 
L 121.41655 168.521368 
L 122.958444 167.377975 
L 123.70634 166.552938 
L 124.346662 165.037382 
L 124.474726 163.50389 
L 124.274946 161.903139 
L 123.532173 158.392249 
L 123.132612 157.284727 
L 122.517903 156.567304 
L 119.562179 155.168329 
L 119.152373 154.495744 
L 119.705611 153.325448 
L 119.044799 153.065382 
L 118.5684 152.522831 
L 117.89222 151.567761 
L 117.426066 151.415308 
L 114.639386 151.437728 
L 113.824897 150.998306 
L 113.240924 149.949075 
L 112.580112 148.007548 
L 111.750255 144.08414 
L 111.207263 142.348873 
L 110.454244 141.465545 
L 109.245317 140.775025 
L 104.051029 142.335421 
L 94.881624 141.200995 
L 89.4978 142.608938 
L 88.862601 143.272555 
L 88.299118 144.070688 
L 87.377055 144.75224 
L 86.234721 144.868822 
L 84.902852 144.438368 
L 83.801499 143.49675 
L 83.350712 142.061903 
L 83.350712 140.640509 
L 83.191913 139.676471 
L 82.597694 139.237049 
L 81.311928 139.367082 
L 79.590744 140.555315 
L 79.1041 140.366991 
L 77.895173 139.550922 
L 76.143253 139.1115 
L 75.185332 138.479271 
L 73.500005 136.995102 
L 70.067881 136.246291 
L 69.212412 135.5199 
L 68.362065 134.380991 
L 64.873593 131.641331 
L 62.855299 130.645906 
L 57.840301 130.480002 
L 56.042277 129.02722 
L 52.963611 123.713805 
L 51.442207 122.18928 
L 50.202545 122.377604 
L 46.126596 125.771918 
L 46.125924 125.770712 
L 46.198528 125.347036 
L 45.968617 122.706128 
L 46.287265 122.356596 
L 46.646249 122.483699 
L 47.005232 122.441331 
L 47.295646 121.572797 
L 47.198841 120.863141 
L 46.45264 118.946011 
L 45.722572 118.172804 
L 45.569298 117.261903 
L 45.6056 115.298875 
L 45.085276 115.228262 
L 42.221475 117.968028 
L 41.947196 117.120678 
L 42.084335 117.050065 
L 43.980091 112.700334 
L 44.399577 112.040107 
L 45.16998 111.090368 
L 45.174013 108.968462 
L 44.589153 105.469612 
L 43.693711 101.914271 
L 43.221789 101.395269 
L 42.745833 100.696205 
L 42.532056 99.870039 
L 42.681297 97.476274 
L 42.532056 96.579495 
L 40.672603 91.664864 
L 40.305552 90.139633 
L 40.160346 88.504953 
L 39.841697 87.63995 
L 37.788635 84.08814 
L 37.300579 83.551485 
L 36.864958 83.261974 
L 36.550344 82.711196 
L 36.324466 80.561045 
L 35.864645 78.866344 
L 35.078108 71.536764 
L 35.187013 66.770419 
L 35.646835 65.566476 
L 35.75574 64.757962 
L 35.75574 57.322464 
L 35.509793 54.280282 
L 37.39099 53.82109 
L 40.305734 53.796428 
L 42.298415 53.251635 
L 43.041188 51.606045 
L 43.399768 49.213887 
L 44.244993 46.420421 
L 45.4949 44.510281 
L 47.257065 42.624804 
L 49.101192 41.111489 
L 50.622596 40.342501 
L 52.871405 40.234887 
L 53.644913 39.981547 
L 60.565509 34.784713 
L 62.404513 33.865514 
L 66.789435 33.672707 
L 87.090191 24.361899 
L 89.323632 24.509867 
L 90.266186 24.982918 
L 92.105189 26.319119 
L 93.078478 26.706976 
L 107.790507 26.222715 
L 111.086026 27.000296 
L 112.400822 27.686707 
L 114.598406 29.942106 
L 115.453875 30.289608 
L 116.201771 30.184237 
L 123.214573 27.359383 
L 126.487897 25.139855 
L 128.250062 24.821498 
L 129.85855 25.700341 
L 131.067477 28.200113 
L 132.819397 32.479991 
L 135.078451 34.188355 
L 137.578267 33.605449 
L 140.062715 30.991338 
L 139.632418 30.090075 
L 140.544236 29.52062 
L 146.28664 28.211323 
L 147.387993 28.424308 
L 155.860729 31.93744 
L 157.643384 32.062989 
L 160.624721 30.332205 
L 162.217841 29.879332 
L 165.665333 30.04972 
L 167.017692 29.825525 
L 167.43262 29.973494 
L 167.852671 30.574335 
L 167.924387 32.049537 
L 169.466282 32.296151 
L 172.883038 31.520437 
L 174.522261 31.565276 
L 180.628368 33.473174 
L 185.279664 37.04908 
L 186.939377 37.959311 
L 188.514771 38.228395 
L 189.823386 37.99294 
L 195.811673 34.937165 
L 197.343322 34.672616 
L 198.941565 35.282425 
L 202.091947 37.542308 
L 203.720925 37.975004 
L 205.411374 37.253097 
L 208.26977 35.623201 
L 209.2072 34.672616 
L 213.233543 29.345748 
L 215.190365 27.843643 
L 221.480885 25.130887 
L 221.977774 25.108467 
L 223.074005 25.529954 
L 223.478688 25.444759 
L 223.791165 24.686981 
L 223.852636 23.727428 
L 224.037048 22.803745 
L 224.723473 22.176 
L 225.778723 22.512292 
L 226.664928 23.967316 
L 226.664928 23.967316 
" clip-path="url(#p59634ac0fe)" style="fill: none; stroke: #000000; stroke-width: 2"/>
   </g>
  </g>
 </g>
 <defs>
  <clipPath id="p59634ac0fe">
   <rect x="0" y="-0" width="349.494097" height="266.112"/>
  </clipPath>
 </defs>
</svg>
