<?xml version="1.0" encoding="utf-8" standalone="no"?>
<!DOCTYPE svg PUBLIC "-//W3C//DTD SVG 1.1//EN"
  "http://www.w3.org/Graphics/SVG/1.1/DTD/svg11.dtd">
<svg xmlns:xlink="http://www.w3.org/1999/xlink" width="184.376049pt" height="266.112pt" viewBox="0 0 184.376049 266.112" xmlns="http://www.w3.org/2000/svg" version="1.1">
 <metadata>
  <rdf:RDF xmlns:dc="http://purl.org/dc/elements/1.1/" xmlns:cc="http://creativecommons.org/ns#" xmlns:rdf="http://www.w3.org/1999/02/22-rdf-syntax-ns#">
   <cc:Work>
    <dc:type rdf:resource="http://purl.org/dc/dcmitype/StillImage"/>
    <dc:date>2024-02-02T21:58:03.152146</dc:date>
    <dc:format>image/svg+xml</dc:format>
    <dc:creator>
     <cc:Agent>
      <dc:title>Matplotlib v3.8.2, https://matplotlib.org/</dc:title>
     </cc:Agent>
    </dc:creator>
   </cc:Work>
  </rdf:RDF>
 </metadata>
 <defs>
  <style type="text/css">*{stroke-linejoin: round; stroke-linecap: butt}</style>
 </defs>
 <g id="figure_1">
  <g id="patch_1">
   <path d="M -0 266.112 
L 184.376049 266.112 
L 184.376049 0 
L -0 0 
L -0 266.112 
z
" style="fill: none"/>
  </g>
  <g id="axes_1">
   <g id="PatchCollection_1">
    <path d="M 78.50881 30.204783 
L 82.944223 29.501875 
L 84.637743 28.455321 
L 85.887723 27.111984 
L 87.399796 26.908921 
L 89.919916 29.330052 
L 90.766677 32.110448 
L 90.544906 34.968945 
L 90.988447 37.358836 
L 93.891626 38.655313 
L 92.540841 43.028969 
L 91.593276 47.183943 
L 90.363457 55.681332 
L 90.706194 55.900015 
L 92.319071 55.853154 
L 91.593276 56.837227 
L 89.778789 60.367393 
L 91.89569 61.585768 
L 93.165831 64.06938 
L 94.375489 70.379942 
L 93.831143 73.738285 
L 94.677904 76.190657 
L 98.044785 81.314083 
L 101.008446 89.811472 
L 102.560841 92.451286 
L 104.657581 88.296313 
L 108.004301 93.716523 
L 114.415487 109.180522 
L 117.459793 112.273322 
L 124.072589 115.22554 
L 126.915285 117.068724 
L 127.84269 118.724465 
L 129.798303 123.941613 
L 129.999913 124.956925 
L 131.572468 125.097507 
L 134.495808 123.316804 
L 136.209489 123.363665 
L 139.515888 125.456772 
L 145.120636 130.814501 
L 148.427034 132.923228 
L 151.834237 133.86044 
L 161.188924 133.86044 
L 167.196891 135.641144 
L 167.963008 135.688004 
L 169.011378 136.828279 
L 168.950895 136.765798 
L 168.527515 137.187543 
L 168.507354 139.733636 
L 168.2251 139.936699 
L 167.297696 146.512804 
L 167.277535 148.652771 
L 167.80172 149.996109 
L 167.721076 151.167624 
L 165.825946 152.838985 
L 165.684819 155.54128 
L 166.12836 158.009272 
L 167.055765 160.18048 
L 168.446871 162.054904 
L 166.75335 161.383236 
L 165.846107 161.836221 
L 165.180795 163.30452 
L 166.511419 164.85092 
L 166.894477 165.506969 
L 152.560031 174.847849 
L 149.535887 179.112164 
L 149.878623 180.111857 
L 151.128603 180.970968 
L 152.3181 182.142483 
L 152.499549 184.141869 
L 151.975364 185.500827 
L 150.503613 187.687655 
L 148.527839 191.780147 
L 143.447276 198.090709 
L 140.503775 202.745529 
L 139.394922 206.072632 
L 139.394922 215.647815 
L 137.741723 228.315799 
L 138.346552 237.469237 
L 138.332388 239.696887 
L 134.435325 239.28118 
L 129.253957 236.407063 
L 119.617016 229.128049 
L 114.274361 226.972461 
L 108.730095 226.378894 
L 97.5206 227.62851 
L 98.79074 230.408906 
L 93.286797 230.924372 
L 91.89569 231.4867 
L 90.867481 233.329883 
L 90.887642 235.266788 
L 90.444101 236.891289 
L 88.085268 237.797261 
L 86.190138 240.702618 
L 83.327281 241.780412 
L 66.694485 242.795725 
L 63.307443 243.936 
L 60.626035 235.282409 
L 56.95674 231.54918 
L 44.577908 228.565722 
L 39.678794 226.238312 
L 36.271591 223.02055 
L 30.142657 214.788704 
L 34.779679 212.555015 
L 39.255413 207.728373 
L 41.110222 203.011072 
L 37.803824 201.183509 
L 40.001369 199.090402 
L 41.553763 196.060083 
L 44.053723 189.093473 
L 45.606117 187.250289 
L 47.541569 185.438346 
L 48.630262 182.814152 
L 47.541569 178.518596 
L 46.130302 177.315841 
L 42.219075 176.862855 
L 40.888451 175.847542 
L 40.202978 173.629473 
L 40.485232 172.55168 
L 41.0699 171.583227 
L 41.170705 169.615081 
L 41.473119 167.94372 
L 42.420685 166.865926 
L 43.146479 165.61631 
L 42.884387 163.30452 
L 41.755373 161.508197 
L 40.485232 161.414476 
L 39.235252 161.836221 
L 38.14656 161.633159 
L 36.977224 160.97711 
L 34.255494 160.149239 
L 33.005514 159.133926 
L 33.086158 158.431017 
L 32.662778 154.213563 
L 32.360364 152.792125 
L 27.763664 143.669927 
L 26.473362 141.748642 
L 23.993563 140.217862 
L 21.896823 139.858598 
L 19.921049 138.890146 
L 17.86463 135.453701 
L 16.675134 131.657992 
L 16.39288 128.049725 
L 17.259801 125.159988 
L 19.578312 123.597968 
L 17.703343 121.848505 
L 18.046079 120.755091 
L 18.408976 120.052182 
L 18.69123 119.14621 
L 18.671069 117.396748 
L 23.791954 117.927835 
L 21.977467 115.17868 
L 17.663021 111.882817 
L 15.364671 110.773783 
L 16.150948 107.899666 
L 22.904871 96.168894 
L 23.691149 94.24761 
L 24.154851 92.71683 
L 24.880646 91.13919 
L 26.412879 89.108563 
L 27.783825 88.186972 
L 30.666842 87.515303 
L 32.27972 86.000143 
L 34.416782 81.845169 
L 33.630504 80.173808 
L 32.259559 78.486826 
L 32.481329 74.316232 
L 33.690987 72.707352 
L 37.642536 70.957889 
L 39.053804 69.45835 
L 39.537667 67.068459 
L 39.537667 64.225582 
L 39.315896 60.726657 
L 40.485232 58.852233 
L 43.327928 56.384241 
L 44.517425 54.666019 
L 45.001288 52.604152 
L 45.384346 47.699409 
L 46.08998 45.778125 
L 49.315734 42.841527 
L 56.573682 39.295741 
L 59.47686 36.281042 
L 61.029255 31.938626 
L 61.835693 27.799273 
L 63.488892 25.003257 
L 67.642051 24.565891 
L 70.646034 22.176 
L 71.896014 23.534958 
L 72.541165 26.424695 
L 73.730662 28.642763 
L 76.311265 29.89238 
L 78.50881 30.204783 
L 78.50881 30.204783 
" clip-path="url(#p81fd856f57)" style="fill: none; stroke: #000000; stroke-width: 2"/>
   </g>
  </g>
 </g>
 <defs>
  <clipPath id="p81fd856f57">
   <rect x="-0" y="-0" width="184.376049" height="266.112"/>
  </clipPath>
 </defs>
</svg>
