<?xml version="1.0" encoding="utf-8" standalone="no"?>
<!DOCTYPE svg PUBLIC "-//W3C//DTD SVG 1.1//EN"
  "http://www.w3.org/Graphics/SVG/1.1/DTD/svg11.dtd">
<svg xmlns:xlink="http://www.w3.org/1999/xlink" width="357.12pt" height="217.084363pt" viewBox="0 0 357.12 217.084363" xmlns="http://www.w3.org/2000/svg" version="1.1">
 <metadata>
  <rdf:RDF xmlns:dc="http://purl.org/dc/elements/1.1/" xmlns:cc="http://creativecommons.org/ns#" xmlns:rdf="http://www.w3.org/1999/02/22-rdf-syntax-ns#">
   <cc:Work>
    <dc:type rdf:resource="http://purl.org/dc/dcmitype/StillImage"/>
    <dc:date>2024-02-02T21:58:03.175151</dc:date>
    <dc:format>image/svg+xml</dc:format>
    <dc:creator>
     <cc:Agent>
      <dc:title>Matplotlib v3.8.2, https://matplotlib.org/</dc:title>
     </cc:Agent>
    </dc:creator>
   </cc:Work>
  </rdf:RDF>
 </metadata>
 <defs>
  <style type="text/css">*{stroke-linejoin: round; stroke-linecap: butt}</style>
 </defs>
 <g id="figure_1">
  <g id="patch_1">
   <path d="M 0 217.084363 
L 357.12 217.084363 
L 357.12 0 
L 0 0 
L 0 217.084363 
z
" style="fill: none"/>
  </g>
  <g id="axes_1">
   <g id="PatchCollection_1">
    <path d="M 208.971724 21.34543 
L 209.909478 21.124155 
L 211.555852 21.993725 
L 214.042385 24.932407 
L 215.661178 25.943671 
L 217.112363 26.256173 
L 217.511227 26.527914 
L 217.863415 27.090805 
L 218.194387 28.674666 
L 219.060006 29.784921 
L 219.968058 30.330343 
L 220.935515 30.473977 
L 221.962376 30.388573 
L 224.627126 29.489888 
L 225.255124 29.509298 
L 225.874636 30.557441 
L 226.256527 32.08113 
L 226.782687 33.581527 
L 227.813793 34.553971 
L 236.440282 35.30514 
L 236.92401 35.541942 
L 237.229523 35.908792 
L 237.365306 36.625023 
L 236.864605 38.210825 
L 236.987659 39.759747 
L 237.34409 40.685606 
L 241.880104 44.410396 
L 243.246425 45.967082 
L 247.133225 52.21906 
L 248.529248 53.847564 
L 250.230784 55.049046 
L 254.019989 56.66008 
L 254.70315 57.320022 
L 256.077957 59.257145 
L 256.837495 60.107306 
L 257.47398 59.998609 
L 258.034086 59.501712 
L 258.58995 59.179505 
L 258.980327 59.280437 
L 259.739865 59.823919 
L 260.134486 59.955907 
L 260.554566 59.765689 
L 261.157104 58.267233 
L 262.370669 57.207444 
L 263.71153 56.423278 
L 265.086337 55.980728 
L 268.273003 56.151537 
L 268.998596 55.938026 
L 269.842999 55.196562 
L 271.396022 52.089013 
L 272.15556 51.741573 
L 272.660505 52.123951 
L 273.118774 52.657727 
L 273.755258 52.774188 
L 274.476608 52.615025 
L 275.189471 52.630553 
L 276.60671 53.10804 
L 277.574167 53.865033 
L 279.080514 56.153478 
L 279.910065 57.114275 
L 280.88813 57.582058 
L 284.185121 57.787804 
L 290.520265 60.084014 
L 291.873856 59.222207 
L 299.068255 59.156213 
L 298.847607 61.894971 
L 298.964296 63.670991 
L 298.520878 65.210209 
L 298.376608 66.524269 
L 299.401349 67.628701 
L 303.693377 69.63376 
L 306.449356 72.70443 
L 310.603479 75.27238 
L 311.367261 75.94785 
L 311.882814 77.023167 
L 312.122556 78.775895 
L 311.918881 82.989817 
L 311.621855 85.297673 
L 311.227234 86.906766 
L 309.983968 88.084956 
L 306.162938 89.932793 
L 305.392791 91.06634 
L 305.961384 92.43669 
L 307.028557 92.997641 
L 307.989649 93.74881 
L 308.206054 95.674287 
L 308.002379 96.493391 
L 307.081597 98.946822 
L 306.975517 99.707696 
L 306.74426 102.056312 
L 304.017984 107.925912 
L 303.182068 110.563739 
L 304.529294 110.930589 
L 307.932365 109.012875 
L 309.669969 108.527624 
L 311.494558 109.051696 
L 312.372907 109.800924 
L 313.985335 111.648761 
L 314.889143 112.366933 
L 315.109791 113.438368 
L 314.337523 115.154216 
L 313.353093 116.928295 
L 312.916041 118.186067 
L 313.620417 119.478776 
L 317.659973 122.368933 
L 318.084296 123.648055 
L 318.118242 127.027346 
L 318.334647 128.617029 
L 318.89051 129.839862 
L 319.616103 130.651203 
L 322.900364 132.271942 
L 323.61747 132.829011 
L 323.867821 133.714109 
L 323.581403 134.377933 
L 322.51423 135.410548 
L 322.268122 136.297587 
L 322.399663 137.021582 
L 322.730635 137.689288 
L 324.86498 140.457161 
L 325.183222 141.078283 
L 325.331735 141.891564 
L 325.183222 144.469219 
L 325.302033 146.192832 
L 325.601181 147.712639 
L 327.258162 152.840775 
L 327.36 153.64047 
L 327.279379 154.746843 
L 327.037514 155.336908 
L 326.706542 155.82216 
L 326.369206 156.621854 
L 326.010652 158.388169 
L 325.773031 160.162247 
L 325.382654 161.82763 
L 324.553102 163.279502 
L 322.995837 162.198362 
L 321.24126 162.891301 
L 319.416671 164.238359 
L 317.659973 165.111811 
L 315.962681 165.484484 
L 315.445006 165.762048 
L 314.804278 166.447223 
L 313.539795 169.180158 
L 310.743506 171.38514 
L 309.457807 172.747726 
L 309.283834 174.548979 
L 307.947217 177.00241 
L 303.865228 179.774165 
L 302.721677 183.101048 
L 302.433137 186.67638 
L 301.718153 189.434549 
L 300.563994 189.585947 
L 295.399982 189.096814 
L 294.046391 188.675615 
L 292.762813 187.887567 
L 291.738073 186.65697 
L 290.897913 187.681821 
L 288.979972 189.613121 
L 288.182245 189.962502 
L 287.053545 189.314206 
L 284.494877 187.068463 
L 283.601677 186.563802 
L 281.931965 186.276533 
L 276.539165 187.027139 
L 275.651983 187.606121 
L 273.28426 190.601093 
L 270.929266 195.061523 
L 270.110323 196.055318 
L 266.834548 197.802222 
L 265.892551 197.875981 
L 263.707287 196.96759 
L 262.60829 196.847248 
L 261.602644 197.417903 
L 260.737025 198.994 
L 258.394761 198.803781 
L 256.077957 198.143839 
L 250.38354 195.28668 
L 247.812142 193.266093 
L 245.643851 189.232684 
L 244.693367 186.940357 
L 243.662262 185.276915 
L 239.58876 181.629766 
L 237.051307 178.68332 
L 231.042892 174.568389 
L 226.731769 169.572241 
L 224.372532 167.88939 
L 223.871831 167.375023 
L 223.511156 166.590857 
L 222.446105 163.399844 
L 221.945404 163.174688 
L 219.497059 163.376552 
L 218.792683 163.232918 
L 216.734715 162.215831 
L 213.944791 162.73602 
L 199.755425 160.22436 
L 198.274537 159.117987 
L 197.077946 156.850892 
L 196.34811 154.4324 
L 195.949247 153.702582 
L 194.582926 152.155601 
L 194.171333 151.385021 
L 193.717307 149.993321 
L 192.656499 145.437781 
L 191.582962 142.279765 
L 190.848883 141.020053 
L 189.974777 140.728902 
L 189.406184 141.272384 
L 188.943672 143.558888 
L 188.608456 143.632646 
L 187.700405 143.267737 
L 187.288812 143.287147 
L 182.078123 145.635764 
L 180.457209 146.936237 
L 177.122029 151.548066 
L 176.345518 152.371052 
L 173.977795 153.782163 
L 172.577528 154.407167 
L 171.228181 154.032553 
L 168.618594 152.076019 
L 167.294705 151.548066 
L 166.025979 151.777104 
L 161.065642 154.422695 
L 159.919969 154.638146 
L 158.676703 154.39358 
L 157.301896 153.605531 
L 153.449041 150.509628 
L 148.39111 148.857832 
L 147.033276 148.819012 
L 144.20304 149.4906 
L 142.925828 149.27709 
L 142.870666 149.028641 
L 142.866423 147.999908 
L 142.518478 147.479719 
L 142.174776 147.351612 
L 141.054563 147.545713 
L 138.198868 147.398196 
L 136.879223 147.79028 
L 134.409662 149.288736 
L 132.933018 149.180039 
L 125.914713 146.138484 
L 125.002419 145.954089 
L 120.245756 147.087636 
L 119.490461 147.580651 
L 119.846892 148.360935 
L 117.788925 150.624147 
L 115.718228 151.128809 
L 113.846963 149.649763 
L 112.395778 145.944384 
L 111.394376 143.780163 
L 110.062001 143.019288 
L 108.602329 143.294911 
L 105.890905 145.216507 
L 100.081921 147.662173 
L 99.462409 147.7534 
L 98.753789 147.452545 
L 96.933443 145.499893 
L 95.745338 144.851597 
L 93.114535 144.232417 
L 80.927974 144.651674 
L 80.121761 144.31588 
L 78.59844 143.159041 
L 77.817686 142.749489 
L 75.967637 142.621382 
L 59.151711 150.682377 
L 55.519505 150.849304 
L 53.996185 151.645116 
L 48.26358 156.144366 
L 47.622852 156.3637 
L 45.760073 156.456868 
L 44.499833 157.122633 
L 42.97227 158.432812 
L 41.512598 160.065197 
L 40.47725 161.718934 
L 39.777117 164.137426 
L 39.480091 166.208479 
L 38.864822 167.633177 
L 37.214205 168.104841 
L 34.799806 168.126192 
L 33.241536 168.523746 
L 33.241454 168.498238 
L 33.208043 168.152831 
L 32.803767 165.371233 
L 32.232434 162.904475 
L 30.394814 158.169645 
L 29.957127 156.549593 
L 29.780047 154.935655 
L 29.860234 154.471036 
L 30.237781 152.997706 
L 30.338015 151.331804 
L 30.287898 150.653216 
L 29.856893 147.697386 
L 29.76 146.196546 
L 29.840187 144.756839 
L 30.187664 143.601406 
L 30.982853 141.999695 
L 31.179979 141.314994 
L 31.270189 140.483571 
L 31.276872 139.007184 
L 31.484022 138.239952 
L 31.18332 136.974478 
L 31.069722 135.617303 
L 31.310283 134.917318 
L 32.045331 135.629529 
L 32.302598 136.405931 
L 32.519771 138.374447 
L 32.883954 139.263947 
L 32.302598 140.290999 
L 32.883954 140.758674 
L 32.883954 142.342045 
L 32.302598 143.32019 
L 33.241454 144.683479 
L 33.58559 144.903561 
L 33.929727 144.729329 
L 34.217063 144.289164 
L 34.32398 143.699221 
L 33.866245 142.121963 
L 33.786058 140.786184 
L 33.846198 139.51154 
L 34.009914 138.704571 
L 33.826152 138.191045 
L 33.445263 136.143055 
L 33.024281 135.244385 
L 32.302598 134.602478 
L 31.851546 134.382395 
L 31.48068 134.330431 
L 31.176638 134.162313 
L 30.899324 133.575426 
L 30.728927 132.744003 
L 31.06304 132.083756 
L 31.48068 129.002601 
L 32.944094 124.683482 
L 33.445263 122.244234 
L 33.725918 115.809878 
L 33.562203 114.321265 
L 33.274866 112.98243 
L 33.214725 111.707785 
L 33.725918 110.399517 
L 37.093774 108.140615 
L 37.484686 107.452857 
L 40.201022 105.790011 
L 40.942752 104.995269 
L 42.8639 102.198387 
L 43.371752 101.895774 
L 45.834162 99.630758 
L 46.752972 98.184939 
L 47.538137 96.039134 
L 48.029283 93.358407 
L 48.0794 90.304763 
L 47.959119 89.506964 
L 47.514749 87.489541 
L 47.601618 86.682572 
L 47.989189 85.61884 
L 48.0794 84.967762 
L 47.989189 80.070927 
L 48.0794 78.505896 
L 48.350031 77.167061 
L 48.8512 75.834339 
L 49.50272 74.816457 
L 50.204356 74.403803 
L 50.765666 73.792462 
L 52.305925 69.739277 
L 55.236094 65.893946 
L 59.756639 57.139554 
L 61.00622 55.751812 
L 62.730242 54.825631 
L 70.294553 54.312105 
L 72.075374 53.758842 
L 91.965103 43.078728 
L 93.705831 42.540749 
L 94.648028 42.467388 
L 95.109104 42.308439 
L 96.154877 41.785743 
L 96.749597 41.911068 
L 97.153874 42.253419 
L 96.943383 42.436821 
L 96.749597 42.977857 
L 96.362027 45.811419 
L 96.211676 48.901744 
L 96.368709 50.420925 
L 96.769644 51.521337 
L 99.04161 54.853141 
L 108.189616 62.70275 
L 111.123126 66.343281 
L 114.450888 69.222694 
L 116.582527 70.442318 
L 117.985801 70.766328 
L 118.507017 71.001694 
L 118.627297 71.588581 
L 118.644003 72.331359 
L 118.827765 73.077194 
L 119.916972 75.293303 
L 120.327931 76.51904 
L 120.648679 77.998483 
L 120.969427 80.639473 
L 121.320246 82.014989 
L 121.928331 82.611046 
L 122.292514 83.304917 
L 123.445202 90.258912 
L 123.872867 91.423515 
L 124.447541 91.891191 
L 125.175906 92.175464 
L 127.123783 94.455763 
L 130.52171 95.834335 
L 134.039916 96.509866 
L 134.544426 96.934748 
L 136.549103 99.887521 
L 137.183917 100.428557 
L 139.108406 101.039898 
L 141.701121 101.315001 
L 148.717487 99.594078 
L 152.28247 97.860928 
L 153.856141 96.509866 
L 154.597871 95.430851 
L 155.119087 94.422139 
L 155.680396 93.673248 
L 157.277455 93.226969 
L 162.870502 89.561984 
L 163.217979 88.489082 
L 164.013167 87.620979 
L 164.942 87.027979 
L 165.65366 86.758989 
L 165.663684 85.95202 
L 166.071301 85.417097 
L 167.053593 84.710999 
L 169.783293 81.562597 
L 170.665351 79.4657 
L 171.002805 76.457906 
L 170.865819 72.97938 
L 169.883527 63.59225 
L 169.813364 60.804539 
L 169.619578 59.150863 
L 169.181891 58.411142 
L 168.937988 57.512471 
L 169.118409 55.540899 
L 169.602873 52.771528 
L 169.12175 48.354594 
L 168.901236 47.361167 
L 167.097027 44.390053 
L 166.515671 42.977857 
L 166.515671 41.620682 
L 165.957703 36.311191 
L 166.074642 35.357501 
L 166.375344 34.44966 
L 166.786129 33.636921 
L 168.571918 34.354047 
L 169.74305 34.293876 
L 170.70202 33.765923 
L 171.160289 33.006989 
L 171.834963 31.221265 
L 172.348394 30.638963 
L 173.977795 29.796567 
L 176.133356 27.861384 
L 176.956543 27.684753 
L 179.837697 27.944848 
L 182.332717 27.673107 
L 182.973445 27.17621 
L 183.72874 25.099334 
L 184.331279 24.320991 
L 185.612735 24.643198 
L 186.682029 25.312844 
L 187.751324 25.487535 
L 189.045509 24.324873 
L 190.038425 23.70181 
L 193.191146 23.251497 
L 194.239224 22.544971 
L 197.277378 19.513121 
L 198.1727 18.956052 
L 199.140157 18.678488 
L 201.062341 18.626081 
L 202.127392 19.322902 
L 202.691741 20.867942 
L 203.069389 22.719661 
L 203.57009 24.33846 
L 204.172629 24.833416 
L 204.8176 24.833416 
L 206.133002 24.171533 
L 206.947702 23.12339 
L 206.667649 21.923849 
L 205.517733 19.889676 
L 205.564409 18.589202 
L 206.09057 18.090364 
L 206.837378 18.220411 
L 207.571457 18.806595 
L 207.851511 19.322902 
L 208.598319 21.124155 
L 208.971724 21.34543 
L 208.971724 21.34543 
" clip-path="url(#p1f0a78c72b)" style="fill: none; stroke: #000000; stroke-width: 2"/>
   </g>
  </g>
 </g>
 <defs>
  <clipPath id="p1f0a78c72b">
   <rect x="0" y="0" width="357.12" height="217.084363"/>
  </clipPath>
 </defs>
</svg>
