<?xml version="1.0" encoding="utf-8" standalone="no"?>
<!DOCTYPE svg PUBLIC "-//W3C//DTD SVG 1.1//EN"
  "http://www.w3.org/Graphics/SVG/1.1/DTD/svg11.dtd">
<svg xmlns:xlink="http://www.w3.org/1999/xlink" width="166.001917pt" height="266.112pt" viewBox="0 0 166.001917 266.112" xmlns="http://www.w3.org/2000/svg" version="1.1">
 <metadata>
  <rdf:RDF xmlns:dc="http://purl.org/dc/elements/1.1/" xmlns:cc="http://creativecommons.org/ns#" xmlns:rdf="http://www.w3.org/1999/02/22-rdf-syntax-ns#">
   <cc:Work>
    <dc:type rdf:resource="http://purl.org/dc/dcmitype/StillImage"/>
    <dc:date>2024-02-02T21:58:03.200158</dc:date>
    <dc:format>image/svg+xml</dc:format>
    <dc:creator>
     <cc:Agent>
      <dc:title>Matplotlib v3.8.2, https://matplotlib.org/</dc:title>
     </cc:Agent>
    </dc:creator>
   </cc:Work>
  </rdf:RDF>
 </metadata>
 <defs>
  <style type="text/css">*{stroke-linejoin: round; stroke-linecap: butt}</style>
 </defs>
 <g id="figure_1">
  <g id="patch_1">
   <path d="M 0 266.112 
L 166.001917 266.112 
L 166.001917 0 
L 0 0 
L 0 266.112 
z
" style="fill: none"/>
  </g>
  <g id="axes_1">
   <g id="PatchCollection_1">
    <path d="M 95.559443 104.07903 
L 107.848862 107.295658 
L 121.334572 120.079621 
L 139.349557 143.521522 
L 149.241284 165.390775 
L 152.168424 179.728852 
L 126.740124 170.301273 
L 122.782916 180.538439 
L 130.310716 186.559345 
L 131.438936 192.8749 
L 132.742445 197.488385 
L 134.190788 201.945478 
L 134.190788 206.480769 
L 131.438936 207.966467 
L 127.238742 209.452163 
L 116.376169 203.040204 
L 117.245175 214.065649 
L 110.293129 217.037045 
L 104.789427 215.551347 
L 97.258044 209.373969 
L 97.11321 220.868582 
L 94.506192 230.017355 
L 96.533873 239.478905 
L 91.030169 240.964604 
L 80.602101 232.832363 
L 71.477541 239.478905 
L 70.174032 242.450302 
L 65.973837 243.936 
L 61.773643 243.936 
L 56.26994 239.478905 
L 51.635242 228.76624 
L 59.021792 226.88957 
L 53.807756 175.984858 
L 53.662922 175.828469 
L 39.179493 160.502319 
L 35.848304 153.308413 
L 35.848304 153.152022 
L 26.392873 122.12495 
L 45.822165 114.705822 
L 57.290945 107.242316 
L 77.866371 103.333004 
L 95.559443 104.07903 
" clip-path="url(#p5eadf895bf)" style="fill: none; stroke: #000000; stroke-width: 2"/>
    <path d="M 74.810521 32.742889 
L 84.970417 37.713383 
L 88.595752 48.86184 
L 82.087167 54.191205 
L 80.3608 60.178929 
L 81.506039 73.046174 
L 80.634346 82.441801 
L 74.840079 87.949636 
L 65.136181 93.054027 
L 54.983449 98.349639 
L 46.288018 102.126489 
L 37.006979 103.029259 
L 29.910099 103.029259 
L 22.668384 112.412615 
L 22.52355 112.569004 
L 13.833493 93.411318 
L 13.833493 93.333123 
L 14.412831 91.143673 
L 17.888854 80.352814 
L 22.668384 75.42655 
L 23.682225 74.331824 
L 32.517117 59.162064 
L 41.207173 47.589258 
L 38.455322 41.411882 
L 35.558636 41.411882 
L 37.006979 44.461473 
L 27.158247 47.589258 
L 21.799378 37.971317 
L 29.910099 35.469089 
L 29.910099 33.983391 
L 41.207173 33.983391 
L 43.379687 29.291711 
L 47.724716 22.176 
L 57.718283 28.118793 
L 57.718283 31.090189 
L 66.11061 29.659976 
L 74.810521 32.742889 
" clip-path="url(#p5eadf895bf)" style="fill: none; stroke: #000000; stroke-width: 2"/>
   </g>
  </g>
 </g>
 <defs>
  <clipPath id="p5eadf895bf">
   <rect x="0" y="-0" width="166.001917" height="266.112"/>
  </clipPath>
 </defs>
</svg>
