<?xml version="1.0" encoding="utf-8" standalone="no"?>
<!DOCTYPE svg PUBLIC "-//W3C//DTD SVG 1.1//EN"
  "http://www.w3.org/Graphics/SVG/1.1/DTD/svg11.dtd">
<svg xmlns:xlink="http://www.w3.org/1999/xlink" width="357.12pt" height="244.943036pt" viewBox="0 0 357.12 244.943036" xmlns="http://www.w3.org/2000/svg" version="1.1">
 <metadata>
  <rdf:RDF xmlns:dc="http://purl.org/dc/elements/1.1/" xmlns:cc="http://creativecommons.org/ns#" xmlns:rdf="http://www.w3.org/1999/02/22-rdf-syntax-ns#">
   <cc:Work>
    <dc:type rdf:resource="http://purl.org/dc/dcmitype/StillImage"/>
    <dc:date>2024-02-02T21:58:03.225162</dc:date>
    <dc:format>image/svg+xml</dc:format>
    <dc:creator>
     <cc:Agent>
      <dc:title>Matplotlib v3.8.2, https://matplotlib.org/</dc:title>
     </cc:Agent>
    </dc:creator>
   </cc:Work>
  </rdf:RDF>
 </metadata>
 <defs>
  <style type="text/css">*{stroke-linejoin: round; stroke-linecap: butt}</style>
 </defs>
 <g id="figure_1">
  <g id="patch_1">
   <path d="M 0 244.943036 
L 357.12 244.943036 
L 357.12 0 
L 0 0 
L 0 244.943036 
z
" style="fill: none"/>
  </g>
  <g id="axes_1">
   <g id="PatchCollection_1">
    <path d="M 312.410928 224.531116 
L 163.034991 166.754852 
L 116.860269 158.479293 
L 116.860269 158.454943 
L 116.860269 147.317913 
L 98.710673 150.967864 
L 65.436413 162.760014 
L 57.073363 164.538195 
L 36.254709 152.558869 
L 29.76 139.643656 
L 36.78852 130.752749 
L 102.091481 129.629687 
L 140.703857 120.083661 
L 167.572376 99.026251 
L 177.892735 61.684442 
L 195.864394 48.30129 
L 236.878923 32.578422 
L 282.163946 20.973449 
L 312.235338 20.41192 
L 311.612557 70.107408 
L 326.559282 138.614183 
L 327.36 207.401725 
L 312.413275 224.528418 
L 312.410928 224.531116 
" clip-path="url(#pf08ff53896)" style="fill: none; stroke: #000000; stroke-width: 2"/>
   </g>
  </g>
 </g>
 <defs>
  <clipPath id="pf08ff53896">
   <rect x="0" y="-0" width="357.12" height="244.943036"/>
  </clipPath>
 </defs>
</svg>
