<?xml version="1.0" encoding="utf-8" standalone="no"?>
<!DOCTYPE svg PUBLIC "-//W3C//DTD SVG 1.1//EN"
  "http://www.w3.org/Graphics/SVG/1.1/DTD/svg11.dtd">
<svg xmlns:xlink="http://www.w3.org/1999/xlink" width="257.221626pt" height="266.112pt" viewBox="0 0 257.221626 266.112" xmlns="http://www.w3.org/2000/svg" version="1.1">
 <metadata>
  <rdf:RDF xmlns:dc="http://purl.org/dc/elements/1.1/" xmlns:cc="http://creativecommons.org/ns#" xmlns:rdf="http://www.w3.org/1999/02/22-rdf-syntax-ns#">
   <cc:Work>
    <dc:type rdf:resource="http://purl.org/dc/dcmitype/StillImage"/>
    <dc:date>2024-02-02T21:58:03.248168</dc:date>
    <dc:format>image/svg+xml</dc:format>
    <dc:creator>
     <cc:Agent>
      <dc:title>Matplotlib v3.8.2, https://matplotlib.org/</dc:title>
     </cc:Agent>
    </dc:creator>
   </cc:Work>
  </rdf:RDF>
 </metadata>
 <defs>
  <style type="text/css">*{stroke-linejoin: round; stroke-linecap: butt}</style>
 </defs>
 <g id="figure_1">
  <g id="patch_1">
   <path d="M 0 266.112 
L 257.221626 266.112 
L 257.221626 0 
L 0 0 
L 0 266.112 
z
" style="fill: none"/>
  </g>
  <g id="axes_1">
   <g id="PatchCollection_1">
    <path d="M 177.128078 22.176 
L 177.217026 22.206808 
L 177.491411 22.861345 
L 177.930104 23.611931 
L 178.239542 25.428244 
L 178.37325 25.754185 
L 178.557713 25.87859 
L 178.854599 25.864906 
L 179.22134 27.402552 
L 180.544229 28.450042 
L 181.884582 30.109605 
L 182.456525 30.236498 
L 183.174181 30.798809 
L 183.782688 31.531555 
L 184.377552 31.723138 
L 185.106669 32.365068 
L 185.644775 32.654932 
L 187.552159 33.199826 
L 191.592319 33.973625 
L 192.365642 33.513327 
L 194.227183 33.209156 
L 195.352512 32.733307 
L 196.498033 32.511244 
L 197.060698 32.260568 
L 197.152051 32.503836 
L 196.924056 32.61235 
L 197.267791 33.065563 
L 197.74179 33.169969 
L 198.367215 33.178677 
L 198.829462 33.141356 
L 199.133443 33.000156 
L 199.65081 32.024199 
L 200.008274 31.893573 
L 200.357006 31.938359 
L 201.464871 32.773117 
L 202.470136 32.922403 
L 202.98805 33.118963 
L 203.451388 33.150064 
L 203.853058 33.313657 
L 204.535241 33.365907 
L 205.109366 33.254564 
L 207.058226 32.531771 
L 207.808082 31.843189 
L 208.357648 31.938359 
L 208.782239 31.532799 
L 209.307247 30.323582 
L 209.648338 29.850221 
L 209.687086 29.562845 
L 209.812608 29.514949 
L 210.031998 29.719595 
L 209.88683 30.63024 
L 210.091032 31.298467 
L 209.834826 31.541557 
L 209.877105 31.964192 
L 210.155037 32.244632 
L 210.559269 32.106417 
L 210.745289 32.365068 
L 210.56683 32.735173 
L 210.600666 33.485336 
L 210.780762 33.866015 
L 210.973956 34.096786 
L 211.321597 34.332534 
L 211.792576 34.476222 
L 212.769462 34.567037 
L 212.18333 34.120423 
L 210.95813 32.693498 
L 211.021982 32.574069 
L 211.203716 32.707182 
L 212.595369 34.149658 
L 213.168948 34.459427 
L 213.860955 34.685222 
L 215.249334 34.869964 
L 216.186926 34.743692 
L 216.403041 34.618043 
L 216.940602 34.121667 
L 217.214021 34.059465 
L 219.818322 34.974464 
L 219.837615 35.575944 
L 219.964452 35.981199 
L 220.204263 36.284548 
L 220.613191 36.430693 
L 221.98206 37.414208 
L 222.754864 37.590372 
L 223.075075 38.399303 
L 223.786193 38.814828 
L 224.240866 39.218504 
L 225.894597 40.293656 
L 225.672113 40.530647 
L 225.344971 41.220293 
L 224.531967 42.505577 
L 226.147578 44.072092 
L 226.787307 44.293679 
L 225.356753 45.93287 
L 225.870339 46.509945 
L 226.209264 47.188531 
L 227.234356 50.415566 
L 227.201087 50.72168 
L 226.575912 53.184418 
L 226.530861 53.901712 
L 226.681956 55.493111 
L 226.19956 56.176041 
L 226.280653 56.417378 
L 226.486503 56.553253 
L 227.185839 56.877536 
L 227.331389 57.058045 
L 227.935771 58.437731 
L 227.997456 58.941733 
L 227.052071 61.26899 
L 227.049991 62.773097 
L 227.17267 63.275519 
L 227.851906 63.907891 
L 228.551935 65.201471 
L 229.516034 65.993022 
L 229.598512 66.666473 
L 229.390583 67.428401 
L 229.290084 67.532678 
L 228.721051 67.927664 
L 230.53766 70.85135 
L 230.977777 71.212367 
L 231.829595 71.516111 
L 235.578561 74.296812 
L 235.786491 74.642425 
L 234.563866 75.811188 
L 234.066222 76.009866 
L 233.292031 76.198275 
L 232.941324 76.744145 
L 232.761811 77.295546 
L 232.336942 79.374357 
L 232.063862 79.640577 
L 232.122775 79.889418 
L 232.339715 79.893368 
L 233.094498 79.697455 
L 233.37451 79.779612 
L 233.592143 79.967626 
L 233.659373 80.285984 
L 233.39461 80.829485 
L 232.868548 80.951931 
L 215.880719 80.179338 
L 213.474283 80.829485 
L 210.984675 81.034088 
L 210.21291 81.456723 
L 211.700263 85.340399 
L 209.356861 85.660912 
L 206.451043 86.515612 
L 202.031236 87.245637 
L 201.45943 87.118451 
L 200.545672 87.583987 
L 200.3582 91.536974 
L 199.365928 91.599172 
L 198.457623 92.333056 
L 198.403562 92.612706 
L 198.460396 94.116023 
L 198.086816 94.885455 
L 198.133947 95.150886 
L 198.293013 95.288341 
L 198.516537 95.302561 
L 198.755655 95.199074 
L 199.347214 94.732201 
L 199.581135 94.791449 
L 199.773123 94.991312 
L 200.378891 95.792343 
L 201.020006 96.16442 
L 201.208529 96.71819 
L 201.226549 97.01522 
L 201.951713 98.1609 
L 201.201824 99.336112 
L 200.545672 99.977137 
L 200.733144 101.900213 
L 198.20227 103.182263 
L 195.952605 103.71645 
L 193.890412 103.823288 
L 192.296899 104.250638 
L 190.984594 104.9985 
L 189.484817 106.921575 
L 187.610096 108.4173 
L 185.641639 109.272001 
L 184.235598 110.019863 
L 183.110765 110.874563 
L 181.610988 112.156613 
L 180.204948 113.118151 
L 178.892643 114.507038 
L 177.955282 116.323276 
L 176.736713 118.246351 
L 175.330673 120.062589 
L 174.018368 120.489939 
L 172.893535 120.062589 
L 172.424855 118.673701 
L 170.737606 118.887376 
L 169.144093 119.207889 
L 165.488387 119.207889 
L 163.613666 119.421564 
L 161.645208 119.955751 
L 159.770487 120.169426 
L 158.645655 121.237801 
L 156.302253 120.276264 
L 154.802476 120.169426 
L 153.77138 120.276264 
L 152.271603 120.917289 
L 151.053034 122.199339 
L 149.528376 122.112233 
L 148.953798 122.248503 
L 147.433834 122.107888 
L 146.975697 122.310121 
L 145.951298 123.3043 
L 145.30741 123.638063 
L 144.487475 124.406706 
L 143.067318 125.366917 
L 141.395565 126.848114 
L 139.884612 127.517615 
L 138.970416 128.140903 
L 137.860073 129.125208 
L 137.186382 129.501235 
L 136.557049 130.491465 
L 135.947816 130.831548 
L 135.344474 131.3158 
L 133.375729 132.46837 
L 133.22602 132.756709 
L 133.177503 133.86662 
L 133.177503 148.523364 
L 131.352577 148.554568 
L 131.426738 149.258433 
L 131.819725 150.527128 
L 131.956958 151.602279 
L 131.57714 153.12495 
L 131.655807 153.931117 
L 132.232118 155.722773 
L 132.232118 156.334606 
L 131.681798 156.79753 
L 128.905248 157.260058 
L 127.798371 157.260058 
L 126.134936 157.110754 
L 123.390961 157.290077 
L 122.394979 157.872287 
L 119.899827 160.007186 
L 119.068109 160.768324 
L 117.961578 160.932638 
L 116.855048 160.932638 
L 115.080024 160.007186 
L 114.621886 160.03681 
L 113.868489 160.469714 
L 112.977858 160.768324 
L 112.14614 160.768324 
L 110.757865 160.156095 
L 108.124786 158.783124 
L 106.743442 158.633819 
L 105.355167 158.33521 
L 104.385523 158.484515 
L 103.141412 158.484515 
L 100.089702 159.544262 
L 96.841152 160.424686 
L 97.260477 161.798447 
L 97.856541 162.54497 
L 97.856541 163.470818 
L 97.57445 164.24657 
L 95.793188 165.978583 
L 95.243562 166.739721 
L 94.273918 168.412092 
L 93.560027 169.412196 
L 92.925149 170.665882 
L 92.473249 172.338252 
L 91.981843 172.606843 
L 90.29207 172.845414 
L 88.28174 173.457643 
L 87.875931 174.069871 
L 87.607009 175.145023 
L 87.607009 175.905766 
L 87.33878 176.517994 
L 86.939209 178.040665 
L 86.402405 179.42904 
L 84.522723 187.520328 
L 83.317426 191.043602 
L 82.911617 191.80474 
L 81.974895 192.730588 
L 77.685659 195.775929 
L 75.400168 197.31361 
L 74.463447 198.373357 
L 73.120916 201.135099 
L 72.184194 203.121088 
L 71.110585 204.792669 
L 70.036284 205.404897 
L 67.488802 206.479654 
L 66.414847 207.092277 
L 64.941321 207.703715 
L 64.004946 208.315944 
L 63.329868 209.226781 
L 62.125264 211.839218 
L 61.319884 214.585951 
L 60.514158 218.25853 
L 59.977354 221.766795 
L 59.577436 223.453385 
L 59.309207 226.051208 
L 59.309207 228.186107 
L 58.903052 230.335621 
L 57.697755 232.156901 
L 56.761726 233.231658 
L 55.956 233.843886 
L 55.687771 234.456114 
L 54.882044 235.216857 
L 54.076665 236.441314 
L 53.408518 237.202847 
L 53.677094 238.889832 
L 52.871714 241.189045 
L 51.797412 242.711321 
L 50.592461 243.472854 
L 48.844122 243.622159 
L 46.433874 243.622159 
L 44.554539 243.472854 
L 42.275286 243.472854 
L 38.385274 242.860626 
L 34.494916 242.711321 
L 32.484932 243.00993 
L 27.252043 243.00993 
L 25.241366 243.174245 
L 21.435136 243.936 
L 21.435145 243.935721 
L 21.447697 243.550066 
L 22.063299 240.625304 
L 22.048564 239.697242 
L 22.321437 239.104452 
L 22.286509 238.655972 
L 22.063299 238.414626 
L 22.453507 237.108373 
L 22.678901 236.119354 
L 24.07874 233.073296 
L 24.658323 232.302607 
L 24.887536 231.855993 
L 25.185514 231.602829 
L 25.552255 230.858265 
L 26.310297 230.610077 
L 26.559158 230.881902 
L 28.296268 230.025995 
L 28.773251 229.300092 
L 29.404679 227.092525 
L 30.239671 226.155755 
L 30.412673 225.179175 
L 30.514182 223.546982 
L 30.787055 222.747057 
L 31.058291 222.194699 
L 30.979157 221.795359 
L 31.147247 221.313911 
L 31.212191 221.259173 
L 31.831068 221.134146 
L 32.711902 220.188046 
L 32.93293 219.575973 
L 33.002785 218.879305 
L 32.891999 218.52164 
L 32.63004 218.465658 
L 32.078291 218.622409 
L 32.402464 217.853585 
L 32.527986 217.67382 
L 33.219446 216.952271 
L 34.372609 214.308042 
L 34.689141 214.050524 
L 35.284005 212.967578 
L 35.615819 211.653861 
L 37.445161 208.818048 
L 37.705482 208.307366 
L 38.081501 207.738835 
L 38.177552 206.685124 
L 38.047665 205.841658 
L 37.891581 205.964819 
L 37.776974 206.68699 
L 37.306541 206.998625 
L 36.886316 206.999869 
L 36.43553 207.57151 
L 35.72606 209.321267 
L 35.100634 209.922143 
L 34.900891 209.762905 
L 34.989302 209.507874 
L 35.356044 208.91695 
L 35.841758 207.937883 
L 37.165193 205.98348 
L 38.141533 205.108912 
L 38.575947 204.935989 
L 39.329623 204.380521 
L 39.771132 204.336357 
L 40.126958 204.093767 
L 41.16988 202.748949 
L 41.544808 202.169222 
L 42.278291 201.562125 
L 42.479671 201.103693 
L 43.704326 200.045628 
L 44.443812 199.218956 
L 45.708307 197.349149 
L 46.384487 196.766311 
L 46.932416 196.537406 
L 47.51309 196.434772 
L 48.245482 195.897342 
L 48.279864 195.452594 
L 48.444133 195.101772 
L 49.085931 194.417544 
L 49.680249 194.016338 
L 49.843973 193.707192 
L 49.974952 192.713196 
L 50.295851 191.805039 
L 50.409912 191.094686 
L 50.642946 190.451512 
L 50.543074 189.397802 
L 50.727536 188.684961 
L 50.698612 188.203513 
L 50.543074 187.671682 
L 50.459575 185.934366 
L 51.367151 182.376382 
L 52.267633 181.174007 
L 52.666573 180.175657 
L 52.912159 179.12319 
L 52.985835 178.640499 
L 53.527761 177.229746 
L 54.888307 175.086869 
L 55.330361 173.685447 
L 55.279607 173.440369 
L 55.374021 172.354935 
L 55.283427 171.739752 
L 55.387665 171.569317 
L 55.604326 170.952268 
L 56.48134 169.850662 
L 57.119318 169.703242 
L 57.846798 169.301414 
L 59.14622 167.925494 
L 59.43874 167.434094 
L 59.749816 167.290406 
L 61.484198 167.006141 
L 62.879125 166.264687 
L 66.953122 163.390309 
L 67.742817 162.470334 
L 68.826124 159.984721 
L 69.084807 158.745647 
L 69.47447 157.858639 
L 69.870682 155.926007 
L 70.122817 155.343792 
L 71.234503 153.589681 
L 71.138451 153.361398 
L 71.321822 153.257519 
L 72.038387 151.520203 
L 73.11569 148.015714 
L 73.520088 147.810445 
L 73.954502 147.440962 
L 74.444583 147.277992 
L 74.662881 147.019229 
L 75.228275 146.083703 
L 75.696525 144.653046 
L 76.165867 144.284807 
L 77.428724 143.800249 
L 79.857841 143.377894 
L 81.793058 143.417704 
L 84.187247 142.625244 
L 88.004743 141.880058 
L 88.370939 141.519905 
L 88.60561 141.464545 
L 95.580249 138.36997 
L 96.02012 138.021014 
L 96.341565 137.601147 
L 97.076685 136.472171 
L 97.519831 136.014983 
L 97.721758 135.471955 
L 98.519093 134.915864 
L 99.252031 133.91938 
L 99.914021 133.450995 
L 100.09248 133.141226 
L 100.59675 132.712029 
L 100.871806 132.244888 
L 101.454663 131.703726 
L 105.277071 129.739371 
L 106.19447 129.122322 
L 107.809334 128.207323 
L 109.457488 126.651638 
L 111.201693 124.117508 
L 111.45492 123.904775 
L 111.964101 123.717546 
L 112.496204 122.969249 
L 112.989559 122.267605 
L 113.122721 121.857068 
L 113.667376 121.411699 
L 113.786348 121.090734 
L 114.41996 120.094249 
L 114.531292 119.428682 
L 114.794888 118.890009 
L 115.53492 118.111855 
L 115.616782 117.867399 
L 116.176717 117.115371 
L 117.916557 115.236233 
L 119.288563 112.826508 
L 120.263266 110.266874 
L 120.489205 108.319313 
L 120.771902 107.001242 
L 120.714053 106.592572 
L 120.358226 106.251702 
L 119.981661 105.752838 
L 119.266734 104.388737 
L 118.994952 104.215192 
L 118.74882 103.803411 
L 117.789944 103.164591 
L 117.19508 103.082484 
L 117.000249 102.864153 
L 117.024807 102.276961 
L 118.014791 100.129731 
L 117.894181 99.640819 
L 117.916557 99.457943 
L 117.765931 96.182359 
L 117.550361 95.633111 
L 117.717905 95.274202 
L 118.098836 92.236854 
L 117.899093 91.686361 
L 117.550361 91.335539 
L 118.282207 90.281829 
L 118.74882 89.143523 
L 119.082817 88.813849 
L 119.15813 88.542024 
L 119.606734 87.921865 
L 119.672769 87.776933 
L 119.967472 86.310198 
L 121.194856 85.01141 
L 122.033122 84.021768 
L 122.245963 83.757407 
L 122.428788 83.384192 
L 124.168628 81.486393 
L 124.271228 81.259976 
L 124.516814 80.206266 
L 125.001437 79.61783 
L 125.29614 78.722736 
L 125.310329 77.071259 
L 125.001437 76.837377 
L 125.117135 76.272579 
L 125.579928 75.282315 
L 125.605578 74.98001 
L 125.176075 73.848547 
L 125.431485 73.381406 
L 127.41309 71.761652 
L 128.93736 70.015006 
L 130.690843 68.718705 
L 132.207472 66.750618 
L 133.994246 64.783152 
L 134.123042 64.065957 
L 135.340056 62.747264 
L 136.028788 62.928895 
L 136.272191 62.874157 
L 136.763363 62.632811 
L 137.249623 62.255864 
L 138.034952 61.327803 
L 138.511934 60.953966 
L 139.068595 60.729415 
L 140.900666 60.326964 
L 143.453122 59.352873 
L 143.786027 59.218515 
L 144.07691 58.863961 
L 145.841308 58.190308 
L 146.34012 58.004944 
L 146.788724 57.547134 
L 147.052865 57.613691 
L 147.337745 57.539048 
L 147.611709 57.613691 
L 149.075401 56.977359 
L 149.528371 56.41878 
L 149.916942 56.239637 
L 150.29187 55.799865 
L 150.550008 55.715892 
L 150.458323 55.829723 
L 150.727921 55.917428 
L 151.166701 55.737041 
L 153.69569 54.224276 
L 154.407889 54.068147 
L 154.831934 53.710483 
L 155.315465 53.548756 
L 156.716396 52.480117 
L 158.128242 51.020846 
L 159.313058 49.141086 
L 160.197713 47.338457 
L 161.807664 44.980982 
L 162.033603 44.380106 
L 162.34195 43.909855 
L 165.236589 38.161721 
L 166.399575 34.435168 
L 168.905642 28.387218 
L 168.989141 27.796916 
L 169.556172 26.364392 
L 169.62057 26.093811 
L 169.837777 25.709399 
L 170.010233 24.635784 
L 170.130297 24.404391 
L 170.387889 24.150604 
L 170.852319 24.079694 
L 172.248884 24.220271 
L 173.02057 23.641788 
L 173.265064 23.585806 
L 173.434245 23.664181 
L 173.668371 23.561547 
L 174.305257 23.628103 
L 174.532833 23.768681 
L 175.548467 23.142924 
L 176.27813 22.423241 
L 176.664864 22.304605 
L 176.886573 22.444491 
L 177.011285 22.437723 
L 177.128078 22.176 
L 177.128078 22.176 
" clip-path="url(#pb118957a46)" style="fill: none; stroke: #000000; stroke-width: 2"/>
   </g>
  </g>
 </g>
 <defs>
  <clipPath id="pb118957a46">
   <rect x="0" y="-0" width="257.221626" height="266.112"/>
  </clipPath>
 </defs>
</svg>
