<?xml version="1.0" encoding="utf-8" standalone="no"?>
<!DOCTYPE svg PUBLIC "-//W3C//DTD SVG 1.1//EN"
  "http://www.w3.org/Graphics/SVG/1.1/DTD/svg11.dtd">
<svg xmlns:xlink="http://www.w3.org/1999/xlink" width="210.9618pt" height="266.112pt" viewBox="0 0 210.9618 266.112" xmlns="http://www.w3.org/2000/svg" version="1.1">
 <metadata>
  <rdf:RDF xmlns:dc="http://purl.org/dc/elements/1.1/" xmlns:cc="http://creativecommons.org/ns#" xmlns:rdf="http://www.w3.org/1999/02/22-rdf-syntax-ns#">
   <cc:Work>
    <dc:type rdf:resource="http://purl.org/dc/dcmitype/StillImage"/>
    <dc:date>2024-02-02T21:58:03.296179</dc:date>
    <dc:format>image/svg+xml</dc:format>
    <dc:creator>
     <cc:Agent>
      <dc:title>Matplotlib v3.8.2, https://matplotlib.org/</dc:title>
     </cc:Agent>
    </dc:creator>
   </cc:Work>
  </rdf:RDF>
 </metadata>
 <defs>
  <style type="text/css">*{stroke-linejoin: round; stroke-linecap: butt}</style>
 </defs>
 <g id="figure_1">
  <g id="patch_1">
   <path d="M -0 266.112 
L 210.9618 266.112 
L 210.9618 0 
L -0 0 
L -0 266.112 
z
" style="fill: none"/>
  </g>
  <g id="axes_1">
   <g id="PatchCollection_1">
    <path d="M 67.062297 24.244947 
L 68.070659 24.726185 
L 74.312163 24.673135 
L 75.987596 25.436675 
L 79.219526 27.77845 
L 79.969334 28.564725 
L 81.56203 30.891343 
L 81.955032 31.236167 
L 83.051303 32.926186 
L 85.083541 33.699199 
L 89.530677 34.241066 
L 90.554553 34.722304 
L 91.376756 35.665835 
L 91.650824 36.982609 
L 90.668317 39.856778 
L 91.39744 40.404329 
L 92.514395 40.455484 
L 93.290059 40.247074 
L 94.841385 38.956824 
L 95.663588 38.833672 
L 96.025564 40.042452 
L 96.206553 41.459643 
L 96.734004 42.289495 
L 97.587233 42.55285 
L 98.755899 42.297074 
L 99.826315 41.687 
L 100.617491 41.014403 
L 101.46555 40.47443 
L 103.771855 40.209181 
L 104.630256 40.31907 
L 105.152536 40.904514 
L 105.245615 42.297074 
L 104.91208 43.808996 
L 104.356188 44.479699 
L 103.637407 44.947675 
L 102.851401 45.847629 
L 102.520452 46.868839 
L 102.613531 47.89005 
L 103.172009 48.502019 
L 104.22174 48.303082 
L 104.992232 47.439126 
L 105.522269 46.328867 
L 106.176411 45.453543 
L 107.324393 45.298183 
L 108.110399 45.836261 
L 108.59131 46.827157 
L 108.529257 47.939311 
L 107.696711 48.852527 
L 109.118761 51.747537 
L 109.716022 52.355716 
L 110.726969 53.054838 
L 111.249249 53.013156 
L 111.435409 52.329191 
L 111.456093 51.080623 
L 111.80413 49.537584 
L 112.715253 46.880207 
L 113.829623 46.380022 
L 115.43266 46.452019 
L 120.034929 48.331501 
L 123.509901 48.378867 
L 125.319782 48.689588 
L 126.721147 49.617962 
L 127.054682 50.203405 
L 127.336506 51.736169 
L 128.138025 53.634598 
L 128.386237 55.995319 
L 128.722358 56.474663 
L 129.544561 57.234413 
L 130.889044 59.519349 
L 132.502424 61.251049 
L 134.281278 62.596244 
L 135.806749 63.213896 
L 137.626973 62.869072 
L 139.819514 60.032796 
L 141.404453 59.269256 
L 142.27061 59.307149 
L 142.968707 59.576188 
L 143.584067 60.148369 
L 144.1684 61.08811 
L 144.561402 62.224894 
L 145.000945 64.737187 
L 145.399119 65.807658 
L 146.102387 66.34763 
L 148.072572 66.938758 
L 148.574167 67.29495 
L 148.411278 68.29532 
L 147.643371 69.335477 
L 146.717746 70.318795 
L 146.107558 71.144858 
L 145.657673 72.429424 
L 145.662844 73.234646 
L 146.143755 73.712095 
L 147.870899 74.327853 
L 148.509528 74.915191 
L 148.703444 75.70715 
L 148.106184 76.643103 
L 146.619496 78.530164 
L 146.345428 80.820783 
L 146.391968 83.41265 
L 145.874859 86.17693 
L 144.579501 88.408815 
L 143.294486 90.106412 
L 142.640343 92.035156 
L 143.302242 94.996477 
L 143.770226 95.934324 
L 144.55106 98.145369 
L 144.964747 98.924066 
L 145.874859 99.621293 
L 146.391968 99.185526 
L 146.865122 98.395461 
L 147.689911 98.027901 
L 148.403521 98.414407 
L 149.308462 99.95096 
L 150.844275 100.970276 
L 151.185567 101.754657 
L 151.410509 102.628086 
L 151.81644 103.410572 
L 152.509366 103.812236 
L 153.295371 103.975175 
L 154.068449 104.31621 
L 154.722591 105.278687 
L 154.981146 106.440101 
L 155.00183 107.499205 
L 155.156963 108.541257 
L 155.818862 109.659094 
L 156.501446 110.265379 
L 157.256425 110.62915 
L 158.057944 110.708725 
L 158.864633 110.454843 
L 159.738547 109.621201 
L 160.08501 108.598096 
L 160.312538 107.476469 
L 160.824476 106.337791 
L 161.835424 106.224112 
L 162.830858 106.290425 
L 163.777168 106.635249 
L 164.612299 107.381737 
L 165.287126 108.647357 
L 165.747352 110.346848 
L 165.793892 112.044446 
L 165.219901 113.313854 
L 163.984011 113.96561 
L 163.803023 115.557108 
L 164.314961 119.397542 
L 164.02538 121.201239 
L 163.301428 122.072774 
L 162.215499 122.387284 
L 160.824476 122.527487 
L 160.674514 122.963254 
L 160.824476 123.425546 
L 162.355118 126.301609 
L 162.78949 126.748744 
L 163.332454 126.301609 
L 163.769411 125.358079 
L 164.351159 124.528227 
L 165.292297 124.437284 
L 165.954196 124.893892 
L 166.528187 125.672589 
L 166.890163 126.669169 
L 166.936703 127.787007 
L 166.556628 128.785482 
L 165.954196 129.471342 
L 165.408646 130.280353 
L 164.718306 135.121157 
L 165.157848 135.933958 
L 165.442258 136.002165 
L 166.709175 135.880908 
L 167.164231 136.127211 
L 168.379437 137.419355 
L 169.191297 137.71113 
L 170.830533 137.847544 
L 171.595854 138.13174 
L 172.412886 138.955908 
L 173.581552 140.880862 
L 174.496834 141.553459 
L 176.079187 141.799762 
L 177.552948 141.65577 
L 178.974997 141.837655 
L 180.404803 143.042646 
L 180.640088 143.550409 
L 181.038261 144.878552 
L 181.276132 145.28211 
L 181.720845 145.320003 
L 182.667154 144.78382 
L 183.204948 145.092646 
L 183.329054 145.581463 
L 183.385936 147.828506 
L 183.579852 148.362794 
L 184.352929 149.978922 
L 184.42791 151.3298 
L 184.016809 155.892092 
L 183.36008 159.067509 
L 183.543654 159.825364 
L 184.16677 161.327814 
L 184.280534 162.023147 
L 183.701372 163.601381 
L 181.736358 163.910208 
L 181.891491 165.545282 
L 182.59993 166.426289 
L 184.807985 167.36982 
L 185.325094 168.411872 
L 185.650873 168.305772 
L 186.261061 167.902214 
L 186.545471 167.913581 
L 186.941059 168.229986 
L 187.269423 168.680911 
L 187.884783 169.957898 
L 187.502122 170.590707 
L 189.800671 172.439876 
L 190.651315 173.464876 
L 191.14774 173.02153 
L 191.902719 172.885116 
L 192.71458 173.034793 
L 193.38165 173.464876 
L 192.161273 175.73276 
L 190.858159 177.030588 
L 188.663032 177.417094 
L 182.729207 177.070375 
L 181.922518 177.252261 
L 181.027919 177.763813 
L 179.181841 179.431096 
L 178.199334 179.582667 
L 177.201314 178.461041 
L 177.100478 177.957067 
L 177.046181 175.872963 
L 176.808311 175.2591 
L 175.768922 173.591817 
L 173.136838 171.047316 
L 172.495623 169.920005 
L 172.48011 171.981373 
L 171.931974 173.061318 
L 170.923612 173.457297 
L 169.506734 173.474349 
L 169.186126 173.936641 
L 169.434339 175.73276 
L 169.06202 176.928277 
L 168.389779 177.627399 
L 167.567576 177.93812 
L 166.714346 177.847177 
L 165.933512 177.364044 
L 165.256099 176.437565 
L 164.565759 174.830911 
L 163.854734 174.182944 
L 163.156637 173.917695 
L 161.584626 173.612658 
L 160.824476 173.294358 
L 160.534895 172.773332 
L 160.446987 172.220098 
L 160.545237 171.651706 
L 161.191623 170.05263 
L 161.103715 169.57518 
L 160.824476 169.122362 
L 159.616519 168.952339 
L 158.621592 169.514552 
L 157.690796 170.556604 
L 155.513768 173.951798 
L 154.882895 173.970745 
L 153.988297 172.633129 
L 152.81446 170.098101 
L 152.111192 169.859376 
L 151.232107 171.352353 
L 151.071803 172.242833 
L 151.309673 173.726336 
L 151.278646 174.387565 
L 150.937355 175.327307 
L 150.683971 175.440985 
L 150.342679 175.327307 
L 149.732491 175.552769 
L 147.917439 177.597085 
L 146.805655 178.282945 
L 145.957596 177.54593 
L 145.942083 176.780495 
L 147.053867 174.690708 
L 147.152118 173.826752 
L 147.110749 167.621807 
L 146.782385 166.047361 
L 145.924176 165.016468 
L 144.907865 165.012888 
L 140.515025 167.536548 
L 137.782105 168.574811 
L 134.05375 171.121206 
L 133.035046 172.73544 
L 132.72478 174.796808 
L 133.128125 177.483407 
L 134.00721 180.950597 
L 134.05375 182.106328 
L 133.758998 183.424997 
L 133.407364 184.478416 
L 133.438391 185.478786 
L 134.301963 186.645884 
L 137.25724 189.484055 
L 137.533893 191.079341 
L 136.939218 192.814831 
L 135.806749 194.781467 
L 134.084777 196.76326 
L 133.702116 197.92278 
L 133.821051 199.726477 
L 134.710478 202.928418 
L 134.607057 204.368344 
L 133.360824 204.97084 
L 124.637198 207.316404 
L 123.768455 207.899953 
L 123.215148 208.968529 
L 123.176365 210.192467 
L 123.871877 212.731284 
L 124.07872 213.95901 
L 124.008911 215.43304 
L 123.670204 216.38036 
L 123.03416 217.024538 
L 122.074923 217.585351 
L 120.619262 217.918807 
L 120.241773 218.252264 
L 120.223674 218.672874 
L 120.41759 220.097643 
L 120.241773 220.79866 
L 118.933487 221.590619 
L 115.585207 221.927865 
L 114.781103 223.299584 
L 115.132737 224.663725 
L 114.822472 225.251063 
L 113.374567 225.728512 
L 112.510995 226.31964 
L 111.957689 226.929714 
L 110.794194 228.706886 
L 110.447731 229.551895 
L 110.892444 230.078605 
L 111.673279 230.552265 
L 112.314494 231.230546 
L 112.593732 232.26123 
L 112.686812 233.284336 
L 112.903998 234.296073 
L 113.594338 235.281286 
L 112.270539 235.925463 
L 111.935735 236.285907 
L 111.647423 236.99404 
L 111.750845 237.130454 
L 112.071452 239.6238 
L 111.849096 240.491545 
L 110.794194 240.987941 
L 107.588119 240.855316 
L 103.839079 239.839789 
L 100.261956 239.558618 
L 97.597575 241.635907 
L 96.816741 243.416869 
L 96.713319 243.936 
L 95.38435 242.280085 
L 95.032715 241.529808 
L 94.939636 238.88868 
L 94.81553 238.733319 
L 94.624199 238.278606 
L 93.783898 236.717423 
L 92.635916 235.800417 
L 89.840942 234.269548 
L 90.471815 233.443485 
L 91.294018 232.62879 
L 92.121393 232.011138 
L 92.778121 231.768624 
L 94.422527 231.783781 
L 95.136137 231.42001 
L 94.825872 230.468901 
L 94.924123 229.290435 
L 94.48458 221.935444 
L 94.060551 221.249584 
L 93.181466 219.498937 
L 92.400631 217.27463 
L 92.261012 215.152634 
L 92.483369 214.754759 
L 93.145268 214.265942 
L 93.290059 213.902171 
L 92.607475 212.151524 
L 92.674699 211.571764 
L 92.984964 210.453927 
L 92.778121 209.874167 
L 92.478198 209.366404 
L 92.354092 208.926847 
L 92.261012 208.104574 
L 91.040635 204.428973 
L 90.869989 203.39071 
L 90.957898 202.666958 
L 91.562915 199.699952 
L 91.257821 199.483963 
L 91.242307 199.089878 
L 91.376756 198.722318 
L 91.77493 198.457068 
L 93.103899 194.546532 
L 93.398651 192.739046 
L 93.972642 191.03387 
L 93.812339 190.393482 
L 92.284282 187.926661 
L 92.183446 187.30143 
L 93.341769 186.87703 
L 93.460705 186.479156 
L 93.290059 185.228694 
L 93.496902 184.72093 
L 93.982984 184.455681 
L 95.024959 184.023703 
L 95.627391 183.421208 
L 96.38237 181.647825 
L 96.33583 180.747871 
L 96.134157 179.260579 
L 96.255678 178.72629 
L 96.85811 178.51788 
L 97.09598 178.207159 
L 97.385561 175.967695 
L 97.71651 175.62666 
L 98.171566 175.423933 
L 98.404265 175.009007 
L 98.042289 174.012427 
L 98.750728 173.652445 
L 99.042895 173.095421 
L 99.102362 172.485347 
L 99.029967 169.601705 
L 98.856735 169.527814 
L 98.644721 169.596022 
L 98.445634 169.414136 
L 97.794077 168.116308 
L 97.690655 167.532759 
L 97.794077 164.785531 
L 97.97765 164.232296 
L 98.445634 163.910208 
L 98.011263 162.705217 
L 98.264646 161.653692 
L 99.097191 159.948516 
L 99.107533 158.946252 
L 98.952401 157.87957 
L 98.445634 155.895882 
L 95.642904 150.219541 
L 95.645489 148.840243 
L 93.626179 145.350317 
L 92.811733 143.292738 
L 92.948767 141.28821 
L 92.390289 140.570141 
L 92.413559 138.859281 
L 91.578428 138.283311 
L 91.984978 136.995067 
L 91.84991 135.899854 
L 90.869989 133.230307 
L 90.187405 131.985529 
L 88.584368 129.935528 
L 88.134483 128.724854 
L 87.146805 129.213671 
L 86.060877 128.705907 
L 84.88704 127.961314 
L 83.666663 127.722589 
L 83.651149 126.66538 
L 83.025448 126.100778 
L 81.608569 125.172404 
L 80.077927 123.469123 
L 79.612529 123.126193 
L 79.136789 122.972727 
L 78.914432 122.754844 
L 79.219526 122.216766 
L 79.219526 121.718476 
L 77.05284 120.538115 
L 76.458165 119.715842 
L 77.019228 119.53964 
L 77.109722 119.228919 
L 76.140143 116.163392 
L 74.875812 114.547265 
L 74.34319 113.62268 
L 74.405243 112.705675 
L 73.386538 110.932292 
L 72.864258 110.367689 
L 71.612855 110.060758 
L 70.307155 109.15512 
L 68.567084 108.654935 
L 67.920698 107.573096 
L 66.715834 104.691349 
L 65.335154 103.630351 
L 65.733327 101.37194 
L 64.8439 100.598927 
L 65.185192 98.984694 
L 65.456674 98.420091 
L 65.867776 98.096108 
L 65.51097 97.381829 
L 64.874927 96.800174 
L 63.442535 96.093474 
L 63.364969 96.135156 
L 62.077368 96.093474 
L 60.898359 95.547818 
L 60.370908 95.081736 
L 60.050301 94.013159 
L 59.688325 92.042734 
L 59.559047 91.993473 
L 58.819582 91.792642 
L 58.71616 91.470553 
L 58.661864 90.540285 
L 58.27993 89.15264 
L 58.131827 88.537651 
L 56.564987 87.946523 
L 55.168793 86.536911 
L 51.911007 82.266393 
L 50.763026 80.326282 
L 50.30797 78.715838 
L 51.461123 78.480903 
L 51.461123 78.0224 
L 51.187055 77.490006 
L 51.264621 76.703731 
L 51.083633 75.976189 
L 50.83025 75.729886 
L 49.940823 75.080025 
L 49.516793 74.127021 
L 48.950559 73.024341 
L 48.260219 71.961448 
L 47.665544 71.470736 
L 49.377174 70.421106 
L 48.997099 69.797769 
L 47.324252 68.966022 
L 47.36562 68.511309 
L 47.324252 65.917547 
L 46.41414 64.850865 
L 45.281672 64.221844 
L 44.738707 63.554931 
L 45.617793 62.366992 
L 45.617793 61.912279 
L 45.302356 61.743656 
L 44.252625 60.910014 
L 44.8473 60.38141 
L 45.193763 59.737232 
L 45.142052 59.057057 
L 44.56289 58.405301 
L 43.890649 58.780439 
L 43.433008 57.781964 
L 42.776279 56.847907 
L 41.491264 57.404931 
L 41.274078 56.946428 
L 41.149972 56.362879 
L 42.168676 55.902482 
L 42.168676 55.35872 
L 40.860391 54.614127 
L 39.660698 53.558812 
L 38.786784 52.1492 
L 38.414466 50.353082 
L 38.543743 49.94384 
L 39.071194 49.273137 
L 39.102221 48.852527 
L 38.838495 48.481178 
L 38.38344 48.107934 
L 37.954239 47.912786 
L 37.333709 48.420549 
L 36.397742 48.106039 
L 35.027403 47.302712 
L 35.027403 46.846104 
L 36.00991 46.785475 
L 36.57873 46.234135 
L 36.57873 45.601325 
L 34.851586 44.955253 
L 34.479268 44.176556 
L 34.225884 43.331547 
L 33.602768 42.797259 
L 33.150298 43.219763 
L 32.581478 44.032564 
L 32.095396 44.284551 
L 31.893723 43.043562 
L 31.578287 42.492222 
L 29.468483 40.375909 
L 28.93069 40.707471 
L 27.787879 39.297859 
L 26.937235 38.877249 
L 24.876556 39.282702 
L 23.891464 39.074292 
L 23.345914 37.962138 
L 22.808121 38.76736 
L 22.262571 38.653682 
L 21.114589 37.662785 
L 19.974364 37.708256 
L 17.58015 38.826094 
L 17.616348 38.223598 
L 17.942126 37.071657 
L 18.490262 36.192545 
L 20.142424 35.171334 
L 20.388051 34.225909 
L 20.677632 33.604467 
L 21.660139 33.975816 
L 22.337552 34.724199 
L 22.870174 35.627942 
L 23.485533 36.416112 
L 24.418915 36.832933 
L 25.409178 36.757147 
L 25.977998 36.249384 
L 26.195184 35.300169 
L 26.158986 33.915188 
L 25.895261 32.505576 
L 25.600508 31.622674 
L 25.566896 30.965234 
L 26.094347 30.247165 
L 26.371001 30.224429 
L 27.195789 30.546518 
L 27.539667 30.557886 
L 27.974038 30.11454 
L 28.289475 29.11796 
L 28.832439 28.943653 
L 30.492358 29.657932 
L 32.131593 31.033441 
L 33.858737 32.058441 
L 35.751355 31.734457 
L 36.227096 31.243746 
L 36.589072 31.304374 
L 36.930364 31.508995 
L 37.478499 31.461629 
L 38.083516 31.582886 
L 38.352413 31.402895 
L 37.969752 29.227849 
L 38.016292 28.69735 
L 38.569599 28.507886 
L 39.102221 28.655668 
L 40.14161 29.299845 
L 45.493686 31.285428 
L 47.132922 31.372581 
L 49.030711 30.410104 
L 52.009258 26.74966 
L 53.819139 25.836444 
L 54.780962 26.078958 
L 56.203011 27.384365 
L 56.885595 27.642036 
L 57.723311 27.227109 
L 60.75874 24.714817 
L 61.910053 23.178264 
L 63.975157 23.178264 
L 64.569832 23.032377 
L 65.867776 22.176 
L 66.958875 22.316203 
L 67.062297 24.244947 
L 67.062297 24.244947 
" clip-path="url(#p6543a7730d)" style="fill: none; stroke: #000000; stroke-width: 2"/>
   </g>
  </g>
 </g>
 <defs>
  <clipPath id="p6543a7730d">
   <rect x="-0" y="-0" width="210.9618" height="266.112"/>
  </clipPath>
 </defs>
</svg>
