<?xml version="1.0" encoding="utf-8" standalone="no"?>
<!DOCTYPE svg PUBLIC "-//W3C//DTD SVG 1.1//EN"
  "http://www.w3.org/Graphics/SVG/1.1/DTD/svg11.dtd">
<svg xmlns:xlink="http://www.w3.org/1999/xlink" width="134.347449pt" height="266.112pt" viewBox="0 0 134.347449 266.112" xmlns="http://www.w3.org/2000/svg" version="1.1">
 <metadata>
  <rdf:RDF xmlns:dc="http://purl.org/dc/elements/1.1/" xmlns:cc="http://creativecommons.org/ns#" xmlns:rdf="http://www.w3.org/1999/02/22-rdf-syntax-ns#">
   <cc:Work>
    <dc:type rdf:resource="http://purl.org/dc/dcmitype/StillImage"/>
    <dc:date>2024-02-02T21:58:03.321185</dc:date>
    <dc:format>image/svg+xml</dc:format>
    <dc:creator>
     <cc:Agent>
      <dc:title>Matplotlib v3.8.2, https://matplotlib.org/</dc:title>
     </cc:Agent>
    </dc:creator>
   </cc:Work>
  </rdf:RDF>
 </metadata>
 <defs>
  <style type="text/css">*{stroke-linejoin: round; stroke-linecap: butt}</style>
 </defs>
 <g id="figure_1">
  <g id="patch_1">
   <path d="M 0 266.112 
L 134.347449 266.112 
L 134.347449 0 
L 0 0 
L 0 266.112 
z
" style="fill: none"/>
  </g>
  <g id="axes_1">
   <g id="PatchCollection_1">
    <path d="M 113.012214 105.46552 
L 112.730663 105.826327 
L 112.595518 105.383579 
L 112.674352 104.963299 
L 113.043498 104.153135 
L 113.109819 103.931101 
L 113.143605 103.72096 
L 113.158621 103.266318 
L 113.208675 102.988774 
L 113.336311 102.772026 
L 113.684184 102.368926 
L 114.724048 100.715559 
L 114.780359 100.48163 
L 114.806637 100.226554 
L 114.859193 99.975443 
L 114.990584 99.763981 
L 115.178285 99.613315 
L 115.773923 99.264403 
L 115.708854 99.656929 
L 115.153258 100.82922 
L 114.747824 102.084775 
L 113.995768 103.756645 
L 113.447681 104.506012 
L 113.012214 105.46552 
" clip-path="url(#p3c2723dcfc)" style="fill: none; stroke: #000000; stroke-width: 2"/>
    <path d="M 89.628409 43.422625 
L 89.782324 43.755678 
L 89.896196 44.117806 
L 89.909961 44.289619 
L 90.096411 44.403279 
L 90.013822 44.671572 
L 89.842388 44.971583 
L 89.756046 45.185688 
L 89.868667 45.313887 
L 90.082646 45.460589 
L 90.262839 45.632401 
L 90.281609 45.838577 
L 90.178999 45.957524 
L 90.026336 46.028892 
L 89.857405 46.063255 
L 89.699736 46.073828 
L 89.624655 46.0355 
L 89.57335 45.956202 
L 89.545821 45.876904 
L 89.545821 45.838577 
L 89.453221 45.857079 
L 89.232985 45.960167 
L 88.674887 45.867653 
L 88.483432 45.777781 
L 88.276961 45.619185 
L 88.171848 45.619185 
L 88.171848 45.838577 
L 88.104276 45.835933 
L 88.062982 45.805536 
L 88.025442 45.767208 
L 87.971634 45.740775 
L 87.822724 45.545173 
L 87.721366 45.202869 
L 87.648788 44.50901 
L 87.708852 44.194461 
L 87.793944 43.916917 
L 87.785184 43.713385 
L 87.552435 43.623514 
L 87.708852 43.409409 
L 87.935345 43.478134 
L 88.176854 43.591795 
L 88.384576 43.501924 
L 88.487186 43.602368 
L 88.633593 43.673736 
L 88.790011 43.689596 
L 88.907637 43.623514 
L 88.927658 43.497959 
L 88.852578 43.375046 
L 88.757476 43.248169 
L 88.707422 43.117327 
L 88.719936 42.784275 
L 88.791262 42.597924 
L 88.962696 42.521269 
L 89.279285 42.50541 
L 89.545821 42.584708 
L 89.669703 42.78824 
L 89.654687 43.060497 
L 89.493264 43.339362 
L 89.628409 43.422625 
" clip-path="url(#p3c2723dcfc)" style="fill: none; stroke: #000000; stroke-width: 2"/>
    <path d="M 105.435346 24.561554 
L 105.455367 25.466874 
L 105.763197 26.310078 
L 105.673101 26.318008 
L 104.949826 25.614898 
L 104.616969 26.043108 
L 104.407995 25.988921 
L 104.121438 25.585822 
L 104.083898 25.369073 
L 103.798592 25.577892 
L 103.672207 25.921517 
L 103.858656 26.019318 
L 103.81486 26.210956 
L 103.558335 26.698639 
L 104.107673 26.742253 
L 104.513108 26.980148 
L 104.460551 27.087201 
L 104.19777 27.372674 
L 104.355439 27.717621 
L 104.749611 27.235224 
L 105.037419 27.594709 
L 104.939815 27.885469 
L 105.399057 27.939656 
L 105.668095 27.827317 
L 105.755689 27.54713 
L 105.537956 27.089844 
L 105.610534 26.873095 
L 105.890834 26.710534 
L 106.066022 26.822873 
L 106.555296 27.734802 
L 106.611606 28.149796 
L 107.029554 28.800041 
L 107.042067 29.156883 
L 107.144677 28.945421 
L 107.444999 28.733959 
L 107.895482 28.755106 
L 108.320938 29.233538 
L 108.418542 29.620777 
L 108.300916 29.701397 
L 107.730305 29.545444 
L 107.56763 29.701397 
L 108.315932 30.304063 
L 108.616254 29.923432 
L 109.141817 31.263571 
L 109.136812 31.904565 
L 108.987902 31.874167 
L 108.818971 31.492214 
L 108.823977 31.041536 
L 108.731377 31.482963 
L 108.959121 32.408108 
L 108.721367 33.482599 
L 108.972886 33.737674 
L 109.256941 33.602868 
L 109.798771 34.046937 
L 110.190441 34.656212 
L 110.370634 35.595895 
L 110.095339 36.162877 
L 110.369382 36.058468 
L 110.618399 36.162877 
L 111.259086 35.077814 
L 111.469311 35.165042 
L 111.354188 35.387077 
L 111.769633 35.548316 
L 112.33649 36.055825 
L 112.404063 36.162877 
L 112.357763 36.721929 
L 112.698128 37.321952 
L 113.103562 37.377461 
L 113.31629 37.390677 
L 113.462697 37.518876 
L 113.473959 37.84532 
L 113.136097 38.104361 
L 113.566558 38.510103 
L 113.934452 38.720243 
L 114.078357 39.285904 
L 114.513823 39.881962 
L 114.543855 40.75292 
L 114.423727 42.308486 
L 114.572636 43.101468 
L 114.990584 43.734532 
L 115.038135 44.017362 
L 115.048146 44.95308 
L 115.25712 45.079957 
L 115.773923 44.95308 
L 115.909068 45.18701 
L 115.805207 46.451816 
L 116.203133 47.84482 
L 116.539744 48.295498 
L 116.578535 49.060726 
L 116.773745 49.293334 
L 116.945178 49.388492 
L 116.991478 50.567391 
L 117.107853 50.749777 
L 117.600881 52.050267 
L 117.763555 55.288276 
L 118.113931 56.962789 
L 118.098914 57.540344 
L 117.913716 58.285747 
L 117.928732 59.195033 
L 118.033845 59.385349 
L 118.418006 59.75012 
L 118.677034 60.236482 
L 118.688296 60.701698 
L 118.339172 62.988129 
L 118.531878 63.762608 
L 118.644499 65.562677 
L 119.063698 66.446852 
L 119.107495 67.037623 
L 118.974853 67.560991 
L 118.628232 67.763201 
L 118.769633 67.961447 
L 119.362769 68.318289 
L 119.581753 68.813902 
L 119.7657 69.850065 
L 121.147181 72.794671 
L 122.048146 73.992073 
L 122.175783 74.541874 
L 122.937849 75.377148 
L 123.065486 75.905803 
L 123.136812 77.045053 
L 122.92909 77.782526 
L 122.931593 78.06007 
L 122.753902 78.611192 
L 122.771421 79.141168 
L 122.521153 79.447788 
L 122.41604 80.013448 
L 122.111964 81.124944 
L 122.013108 81.561084 
L 120.526516 84.678824 
L 120.681682 84.772661 
L 120.581575 84.988087 
L 119.469133 86.463033 
L 118.942318 87.581138 
L 118.44929 87.611535 
L 118.215289 87.619465 
L 117.988796 87.803173 
L 117.678464 87.002261 
L 117.415682 86.74322 
L 117.044034 86.794764 
L 116.001667 85.770496 
L 115.887795 85.288099 
L 115.782683 84.336521 
L 115.381002 84.084088 
L 114.945536 83.473492 
L 114.821653 82.944838 
L 114.913001 82.417505 
L 115.031878 81.989295 
L 114.695268 81.599412 
L 114.38994 81.522757 
L 113.91318 80.724489 
L 114.004527 79.936793 
L 113.959479 78.921777 
L 113.979501 78.810759 
L 113.808067 78.644233 
L 113.52151 78.615157 
L 113.118578 78.829262 
L 112.557978 78.892701 
L 111.564413 78.892701 
L 111.063877 79.067157 
L 110.721009 79.388314 
L 109.843819 80.657085 
L 109.858835 81.077366 
L 110.20796 82.235119 
L 110.190441 82.461119 
L 109.990226 82.905189 
L 110.270527 83.281855 
L 110.440709 83.494638 
L 111.041352 85.898695 
L 111.309139 86.521185 
L 111.146465 87.068343 
L 110.538313 88.382049 
L 110.633415 89.463148 
L 110.831127 89.920434 
L 111.232808 90.316925 
L 112.235132 90.68434 
L 112.678106 90.973778 
L 113.030984 91.497146 
L 113.094803 91.963684 
L 112.741925 94.115308 
L 112.825764 94.678325 
L 113.25998 95.025915 
L 113.298771 95.271739 
L 113.088546 97.024229 
L 112.276426 98.463491 
L 111.8322 98.989502 
L 111.146465 99.552519 
L 111.284113 100.640226 
L 111.840959 101.298401 
L 112.172565 101.474179 
L 112.948396 101.492682 
L 111.994874 101.947324 
L 111.093909 102.084775 
L 110.710999 102.297558 
L 109.62984 102.43633 
L 109.186865 102.86454 
L 108.160766 104.969907 
L 107.444999 107.014478 
L 106.659157 108.903096 
L 106.576569 110.305353 
L 107.042067 111.067937 
L 107.862947 116.111301 
L 107.680251 117.23337 
L 106.39137 122.186863 
L 106.525264 122.526523 
L 106.804313 123.037997 
L 106.401381 123.295716 
L 105.933379 124.19575 
L 105.442854 127.626718 
L 105.037419 128.196343 
L 104.669525 129.305196 
L 103.766057 131.200423 
L 102.96645 134.216397 
L 101.77142 136.975973 
L 101.209568 137.839002 
L 99.809318 142.92598 
L 97.868488 147.892689 
L 97.309139 150.829365 
L 97.316647 151.434675 
L 96.818613 152.901691 
L 96.532056 152.436475 
L 96.329339 152.291095 
L 96.19044 152.457621 
L 96.254259 152.645293 
L 96.713501 153.409199 
L 96.670955 153.618018 
L 95.402095 156.259969 
L 94.125728 159.83103 
L 93.296089 162.385753 
L 91.59802 168.415058 
L 91.265163 168.915958 
L 91.330233 169.149888 
L 91.531698 168.943712 
L 91.64557 169.003186 
L 91.655581 169.48294 
L 91.22512 170.486062 
L 91.028659 171.592272 
L 90.416754 173.112153 
L 90.386722 173.606445 
L 90.135202 174.998128 
L 89.695982 175.988034 
L 87.753901 182.183865 
L 83.842209 191.149846 
L 83.629481 192.220371 
L 83.122688 193.308078 
L 82.476997 197.610004 
L 82.180429 198.593301 
L 82.095338 200.1264 
L 81.57478 201.931755 
L 80.996661 203.523005 
L 80.62251 205.883447 
L 78.799306 211.325946 
L 78.446428 210.880554 
L 78.114823 211.458109 
L 78.221187 211.553267 
L 78.74675 211.713185 
L 78.809317 212.134787 
L 78.018469 215.581615 
L 76.912284 218.240747 
L 76.449288 218.564548 
L 76.170239 218.707284 
L 76.201523 218.754863 
L 76.267844 218.938571 
L 76.166485 219.3496 
L 75.856153 220.001166 
L 74.856331 222.466018 
L 74.26695 222.353679 
L 74.477175 223.241819 
L 74.075495 225.866588 
L 72.785362 229.023977 
L 72.357404 229.852643 
L 72.367415 230.357509 
L 72.258548 230.613906 
L 71.470203 231.195426 
L 71.256224 231.696326 
L 71.387615 232.74174 
L 71.213678 233.148804 
L 70.950897 232.74967 
L 70.89834 232.252735 
L 70.749431 232.719273 
L 70.793228 233.25057 
L 70.615537 233.701248 
L 69.902273 234.029014 
L 69.469309 234.417575 
L 68.579606 235.367832 
L 68.145391 234.925084 
L 68.132877 234.972663 
L 65.610174 236.700041 
L 65.29859 236.644532 
L 65.002023 236.922076 
L 63.708136 237.193012 
L 63.196338 237.050275 
L 61.619649 236.842778 
L 59.841493 236.891678 
L 57.55154 237.433549 
L 54.508279 238.72611 
L 50.425154 240.843371 
L 48.59194 242.449159 
L 47.924975 242.603791 
L 47.150395 243.309544 
L 46.089258 243.531579 
L 41.479319 243.765509 
L 41.021328 243.936 
L 40.758547 243.884456 
L 40.613391 243.70207 
L 40.338096 242.815252 
L 39.868843 242.468984 
L 38.228336 241.878212 
L 37.567628 241.331055 
L 37.376172 240.838084 
L 37.117145 240.609441 
L 35.979676 239.801922 
L 34.335414 239.14639 
L 32.709923 238.92039 
L 31.09319 238.834484 
L 28.542958 238.234461 
L 28.313963 237.608005 
L 27.814678 237.063491 
L 27.702057 236.707971 
L 27.999876 236.82824 
L 29.308778 237.811537 
L 29.440169 237.634438 
L 29.371346 237.270988 
L 29.126083 237.317245 
L 28.915857 237.19962 
L 28.268914 236.656427 
L 27.787148 236.508404 
L 27.491832 236.495188 
L 26.951252 236.281082 
L 26.022758 235.303072 
L 25.477173 235.034779 
L 24.813962 234.99513 
L 23.587648 234.198184 
L 23.411209 233.845307 
L 23.15969 232.029378 
L 22.044745 230.554432 
L 21.888328 230.024456 
L 22.037237 228.570656 
L 21.733161 227.753885 
L 20.797159 226.654284 
L 20.682035 226.189068 
L 20.171488 225.758214 
L 19.102843 225.051139 
L 18.634842 224.571385 
L 18.114284 223.413631 
L 17.85901 220.984464 
L 18.06423 218.190525 
L 17.825224 216.463146 
L 17.996658 216.003217 
L 17.979139 215.816866 
L 17.666304 214.690832 
L 17.374742 214.10799 
L 17.593726 213.773616 
L 17.633769 212.110998 
L 17.974134 211.793805 
L 19.007741 211.349735 
L 19.274277 210.992893 
L 19.245496 210.729888 
L 19.037773 210.305642 
L 19.064052 210.004309 
L 19.37063 209.6739 
L 19.47324 209.266836 
L 19.258009 208.883562 
L 18.84757 208.549188 
L 18.553505 208.156662 
L 17.697587 207.470733 
L 17.471095 207.334604 
L 17.374742 206.879961 
L 17.213319 206.314301 
L 17.148249 204.857858 
L 16.735306 202.966596 
L 16.316107 202.518561 
L 15.098553 201.524691 
L 14.626797 200.811007 
L 14.345245 200.607475 
L 13.496836 199.539593 
L 13.252825 198.968646 
L 13.170237 198.299898 
L 12.976279 197.858472 
L 12.896193 197.009981 
L 12.713497 196.551373 
L 12.547069 195.833725 
L 12.254255 195.413444 
L 12.141634 194.654825 
L 12.201699 193.906779 
L 12.042778 192.410687 
L 11.827548 191.628278 
L 11.458402 190.729565 
L 11.467162 190.409729 
L 11.234412 189.291625 
L 11.563515 189.040514 
L 11.982714 189.002187 
L 12.306811 189.302198 
L 12.40817 189.048444 
L 12.306811 188.192024 
L 11.779997 188.184094 
L 11.569772 187.533849 
L 11.597301 185.884447 
L 11.781248 185.39412 
L 11.867591 184.766342 
L 12.201699 184.502015 
L 12.111602 183.84384 
L 12.413175 183.292718 
L 12.593368 183.526647 
L 12.615893 183.801548 
L 12.517037 184.390998 
L 12.831123 183.952214 
L 13.108921 181.438462 
L 14.402807 180.009773 
L 14.698124 179.970124 
L 15.035986 180.16837 
L 15.035986 175.834724 
L 15.571559 174.28048 
L 15.691688 174.558023 
L 15.81432 174.560667 
L 16.105882 174.28048 
L 16.526332 174.061088 
L 16.792868 173.717463 
L 17.648785 173.737287 
L 18.224402 173.574726 
L 19.064052 173.82848 
L 19.446962 173.6831 
L 19.89369 173.332867 
L 20.265339 172.896727 
L 20.498088 172.015195 
L 21.049929 170.49267 
L 21.630551 167.352462 
L 22.600341 165.475739 
L 22.923187 165.161189 
L 23.426225 165.038277 
L 23.704023 164.796418 
L 24.533662 163.254068 
L 25.079247 161.106409 
L 25.477173 160.581719 
L 25.479676 160.728421 
L 25.582286 161.025789 
L 26.170416 159.861428 
L 27.06137 159.121311 
L 27.008814 158.599265 
L 27.161478 158.008494 
L 28.614284 155.256847 
L 29.894406 153.912743 
L 30.431231 152.790673 
L 30.515071 151.597236 
L 30.399948 151.056687 
L 30.115893 151.017037 
L 29.906919 150.451377 
L 29.576565 150.376044 
L 29.268736 150.157974 
L 28.908349 149.622711 
L 28.907098 149.124454 
L 29.493977 147.894011 
L 29.386362 147.025696 
L 29.371346 146.68207 
L 29.87939 146.034469 
L 30.039561 145.614188 
L 30.378675 145.553393 
L 30.582643 145.270563 
L 30.521328 144.633534 
L 29.982 143.039641 
L 29.687935 142.558565 
L 28.847034 141.661174 
L 28.726905 141.128555 
L 28.434091 140.598578 
L 26.748535 138.215668 
L 26.643423 137.660581 
L 26.748535 136.712968 
L 26.956258 136.206781 
L 27.06137 134.657823 
L 27.166483 134.096128 
L 27.101413 133.588619 
L 26.002736 130.452376 
L 23.907992 127.460192 
L 23.786612 126.979116 
L 23.787863 123.749037 
L 23.184717 120.59297 
L 23.15969 119.525087 
L 23.692761 116.7893 
L 23.610173 116.547441 
L 23.242278 116.198529 
L 23.028299 115.457091 
L 22.056007 114.064086 
L 21.969665 113.672882 
L 21.975922 113.168017 
L 22.269987 111.694392 
L 23.054577 110.393902 
L 23.426225 109.672289 
L 23.60767 109.766125 
L 23.705274 109.644534 
L 23.846676 109.174032 
L 25.429622 106.595519 
L 25.477173 105.826327 
L 25.907634 105.838222 
L 26.283036 105.217053 
L 26.91121 103.652235 
L 27.412997 103.07468 
L 27.649501 102.542061 
L 28.084967 101.947324 
L 28.380284 101.270647 
L 28.783215 100.667981 
L 29.766769 99.426964 
L 29.906919 98.698742 
L 29.476458 97.358603 
L 29.554041 96.967399 
L 29.732983 96.785013 
L 29.891903 96.864311 
L 29.906919 97.260802 
L 30.149679 96.837879 
L 30.269808 96.389844 
L 30.2623 95.936523 
L 30.115893 95.485845 
L 29.305024 94.107378 
L 29.335057 93.376513 
L 29.886898 92.368104 
L 29.982 91.231497 
L 30.107134 91.084796 
L 30.362407 91.012106 
L 31.40102 90.919591 
L 34.754614 91.251322 
L 35.360262 91.165415 
L 36.0022 91.635918 
L 36.279998 91.712573 
L 36.49648 91.639883 
L 37.064589 91.029287 
L 37.923008 90.807252 
L 37.797874 90.696235 
L 39.139312 89.970656 
L 39.440885 89.57813 
L 40.310567 88.241956 
L 40.653434 87.904939 
L 41.07013 87.655149 
L 42.016144 87.238834 
L 42.616788 86.817232 
L 42.725654 86.917676 
L 42.980928 89.245078 
L 42.985933 89.732762 
L 43.101056 89.871534 
L 43.343817 89.920434 
L 43.579069 89.841136 
L 44.027049 89.300587 
L 44.767842 88.943745 
L 44.831661 88.548576 
L 44.530088 88.432272 
L 44.222258 87.964412 
L 44.21475 87.758237 
L 44.3549 87.627395 
L 47.085326 87.262623 
L 47.286791 87.127817 
L 47.518289 87.750307 
L 47.598375 87.850752 
L 47.602129 88.080716 
L 47.445712 88.715102 
L 47.71475 88.578973 
L 47.819863 88.894844 
L 47.932483 88.857838 
L 48.082644 88.578973 
L 47.971275 87.562635 
L 48.322902 87.086846 
L 48.33041 85.914554 
L 48.076387 85.629081 
L 48.187757 85.405724 
L 48.683288 84.866497 
L 49.350252 84.520228 
L 49.835773 84.684111 
L 50.297517 84.710544 
L 50.853113 85.073994 
L 51.198483 85.02245 
L 52.536166 84.351059 
L 53.106777 84.385421 
L 53.221901 84.528158 
L 53.263195 85.453303 
L 53.742458 85.577537 
L 54.140385 85.565642 
L 54.558333 85.796929 
L 54.913713 85.810145 
L 54.913713 85.709701 
L 54.663445 85.23259 
L 54.868665 84.916719 
L 54.986291 84.740941 
L 54.988794 84.45679 
L 54.050288 85.03831 
L 54.140385 84.678824 
L 54.680964 83.971749 
L 55.396731 83.457632 
L 56.115001 83.240884 
L 57.264983 83.289785 
L 57.519005 83.464241 
L 57.602845 83.981 
L 57.726727 84.123737 
L 57.086041 85.121573 
L 57.666663 85.656835 
L 57.861872 85.954203 
L 58.650217 87.396109 
L 58.988079 87.682904 
L 59.093192 87.016799 
L 59.217074 87.056448 
L 59.511139 87.460869 
L 59.816467 87.389501 
L 59.945355 87.107992 
L 59.826477 86.463033 
L 60.231912 86.423384 
L 61.105348 87.349851 
L 61.265519 87.222974 
L 60.729945 86.12073 
L 60.42587 85.981958 
L 59.788937 85.371362 
L 59.406027 85.23259 
L 58.775351 85.23259 
L 58.52258 84.951082 
L 58.890474 84.678824 
L 59.365984 83.708743 
L 59.198304 83.457632 
L 58.567628 83.346615 
L 58.617682 83.083609 
L 58.841672 82.63954 
L 59.013106 82.046125 
L 59.303417 81.734219 
L 59.989152 81.176488 
L 61.315573 79.78877 
L 61.410675 80.121822 
L 61.582108 80.0227 
L 62.834701 78.953496 
L 63.196338 78.702385 
L 64.360085 78.559648 
L 64.157368 78.419555 
L 63.680607 78.284748 
L 63.624297 78.127473 
L 63.789474 77.951696 
L 64.675423 77.729661 
L 66.25962 76.553404 
L 67.419613 75.467019 
L 68.83488 75.034844 
L 68.901201 75.311066 
L 68.923725 75.827826 
L 69.232806 76.394808 
L 69.63824 76.674995 
L 70.422831 77.074129 
L 70.425334 77.275018 
L 69.609459 78.226596 
L 69.451791 78.397087 
L 68.58336 80.35443 
L 68.632162 80.737705 
L 68.797339 80.774711 
L 68.911211 80.547389 
L 69.051361 80.013448 
L 69.231555 79.846922 
L 71.544032 79.063192 
L 72.042066 79.236326 
L 72.842924 78.849087 
L 72.832913 78.467134 
L 72.284826 78.238491 
L 72.02705 77.748164 
L 71.769274 76.565299 
L 71.43892 76.581159 
L 70.993442 76.786012 
L 70.970918 76.394808 
L 71.117325 76.00096 
L 70.740672 76.02475 
L 70.625548 75.948095 
L 70.530446 75.617686 
L 70.163803 75.324283 
L 70.133771 74.956868 
L 70.268916 74.606634 
L 70.688115 74.003968 
L 71.199914 73.53743 
L 72.43749 72.569993 
L 72.985577 71.319725 
L 74.083003 70.376076 
L 74.991476 70.035094 
L 75.037776 69.657106 
L 74.937668 69.321411 
L 74.6874 69.271188 
L 74.518469 69.416568 
L 74.428373 69.678252 
L 74.019184 69.785305 
L 73.874029 69.694112 
L 73.636274 69.326697 
L 73.731376 69.326697 
L 74.194372 68.568078 
L 76.329159 66.31601 
L 76.429267 66.379448 
L 76.586936 66.756114 
L 76.922295 67.299307 
L 76.912284 68.540323 
L 77.185076 68.927563 
L 77.014894 69.326697 
L 75.898698 70.768602 
L 75.742281 71.253643 
L 75.635917 73.434343 
L 75.851147 73.559898 
L 76.033843 73.520249 
L 76.692048 73.115828 
L 76.969846 72.67308 
L 77.315216 71.791549 
L 77.750683 71.433385 
L 77.923368 71.569514 
L 77.975924 71.420169 
L 78.04725 70.728953 
L 79.147179 68.570721 
L 79.29734 67.896687 
L 79.841673 67.235868 
L 79.897983 66.818231 
L 80.712606 66.121729 
L 81.244426 65.277203 
L 81.462159 65.114642 
L 81.530983 64.769695 
L 82.484505 65.978992 
L 83.334165 66.323939 
L 83.414251 66.51822 
L 83.430518 67.098418 
L 83.654508 66.839378 
L 83.670776 66.478571 
L 83.54439 66.149483 
L 83.334165 65.978992 
L 83.760872 65.628759 
L 84.167558 65.676338 
L 84.474137 66.01732 
L 84.593014 66.540688 
L 84.65433 67.952195 
L 84.909603 67.542488 
L 84.995946 67.065377 
L 84.99094 66.397951 
L 84.85079 65.804536 
L 83.513107 64.772338 
L 83.281609 64.809344 
L 82.401916 65.226981 
L 82.19044 65.176759 
L 81.835059 64.753835 
L 81.634844 64.432678 
L 81.00542 65.241519 
L 80.851505 65.324782 
L 80.438563 64.611099 
L 80.397268 64.362631 
L 80.584969 64.095661 
L 80.4273 63.770538 
L 80.172027 63.10972 
L 80.263375 63.009275 
L 80.060658 62.821603 
L 80.183289 61.573978 
L 80.374744 61.062505 
L 80.690082 60.648833 
L 81.170597 60.286705 
L 81.43463 59.197676 
L 81.797519 59.080051 
L 82.513286 59.61267 
L 83.648252 59.528085 
L 83.87975 59.084016 
L 83.963589 58.580472 
L 83.754616 57.762379 
L 83.520615 57.37514 
L 83.220293 57.191432 
L 83.421759 56.969398 
L 83.752113 57.064555 
L 84.860801 57.854894 
L 84.880822 58.066356 
L 84.593014 58.580472 
L 84.54296 58.994144 
L 84.267665 60.400365 
L 84.385291 60.85633 
L 84.593014 60.860295 
L 84.703132 60.545745 
L 84.698127 60.204763 
L 85.172385 59.694612 
L 84.842031 59.163314 
L 84.811999 58.975641 
L 84.923368 58.6188 
L 85.338813 58.034636 
L 85.433915 57.311701 
L 85.254973 56.649562 
L 84.64557 56.435456 
L 84.305205 56.189632 
L 83.744605 55.63851 
L 84.913357 55.010733 
L 84.913357 54.805879 
L 84.173815 54.307622 
L 83.381716 53.909809 
L 82.978784 53.131366 
L 82.74103 52.06877 
L 82.863661 51.162128 
L 83.535631 50.850221 
L 83.182753 50.506596 
L 83.038849 50.358573 
L 83.056367 49.611848 
L 83.178999 49.128129 
L 83.386721 48.793755 
L 83.927301 48.917989 
L 84.053686 48.516212 
L 84.121258 47.789312 
L 84.417826 47.56199 
L 84.579249 47.56199 
L 84.698127 47.733803 
L 84.382789 48.152762 
L 84.489153 48.399908 
L 84.575495 48.351007 
L 84.811999 48.28889 
L 84.763196 48.666878 
L 84.885828 48.754106 
L 85.127336 48.537358 
L 85.193657 48.263779 
L 85.433915 48.168621 
L 85.13109 47.73116 
L 85.701702 47.733803 
L 85.936954 47.918832 
L 86.178463 49.066012 
L 86.60517 48.865124 
L 86.840422 49.001252 
L 87.293407 50.466947 
L 87.393515 51.047145 
L 87.633772 51.138338 
L 87.438563 51.459496 
L 87.608745 51.78594 
L 88.467165 52.323846 
L 88.80753 52.411074 
L 89.242996 52.296092 
L 89.684719 51.998723 
L 89.896196 51.602232 
L 89.640923 51.181952 
L 89.748538 50.92952 
L 89.842388 49.810094 
L 90.178999 49.066012 
L 89.776067 48.204306 
L 90.073886 48.066855 
L 90.251577 48.15937 
L 90.70206 48.843977 
L 90.914787 48.251884 
L 91.22512 47.84482 
L 91.711892 47.720587 
L 92.181144 47.733803 
L 92.17739 47.653183 
L 92.181144 47.403394 
L 92.71797 47.826318 
L 92.864376 47.789312 
L 92.83059 47.646575 
L 92.019721 45.854436 
L 92.066021 45.185688 
L 92.306278 45.242519 
L 92.706707 45.740775 
L 92.714215 46.005103 
L 92.995767 46.200705 
L 94.106958 46.543009 
L 94.48236 46.408202 
L 95.024191 46.515254 
L 95.582289 46.352693 
L 96.142889 46.015676 
L 96.645928 45.566319 
L 97.028838 45.064098 
L 96.761052 44.741618 
L 96.981288 44.279046 
L 97.554402 43.561397 
L 97.504348 43.36183 
L 97.230304 42.730088 
L 97.274101 41.92389 
L 97.824691 40.192546 
L 98.370276 39.349342 
L 98.754437 38.458559 
L 99.12984 38.169121 
L 99.062267 37.758092 
L 99.340065 36.273895 
L 99.25122 36.066398 
L 98.715646 35.265486 
L 98.655582 35.0831 
L 98.517934 34.173814 
L 98.192585 33.761464 
L 98.032414 33.772037 
L 97.969847 33.438985 
L 98.172564 33.014739 
L 98.078713 32.705476 
L 98.288939 32.261407 
L 98.172564 32.067126 
L 97.779643 32.13453 
L 97.554402 32.261407 
L 97.546894 31.784296 
L 97.410497 31.512039 
L 96.914966 31.041536 
L 96.547072 30.160005 
L 96.503275 30.477198 
L 95.875102 30.15604 
L 96.060301 30.000087 
L 96.33059 29.557339 
L 96.688474 29.630029 
L 97.236561 29.701397 
L 97.762124 29.811093 
L 98.087473 30.103175 
L 98.720651 31.127443 
L 99.193658 30.885583 
L 99.403883 30.467946 
L 99.478964 29.505795 
L 99.655403 29.07362 
L 99.654151 28.712813 
L 99.987008 28.348042 
L 100.204741 28.288568 
L 100.398699 28.382404 
L 100.660229 27.954194 
L 101.029375 27.594709 
L 101.255868 27.885469 
L 101.456082 27.663434 
L 101.869025 27.031692 
L 102.121795 27.251083 
L 102.352042 27.163855 
L 102.613572 26.598195 
L 102.5923 25.862044 
L 103.125371 25.473483 
L 102.900129 25.09946 
L 102.380823 24.869495 
L 102.193122 24.692396 
L 102.024191 24.66332 
L 101.457333 24.692396 
L 101.663805 24.395027 
L 102.281967 24.188852 
L 102.50846 23.915273 
L 102.741209 24.084443 
L 103.242997 24.813986 
L 103.348109 24.692396 
L 103.461981 24.813986 
L 103.478249 24.499437 
L 103.360623 24.147881 
L 103.132879 23.872981 
L 102.823798 23.804256 
L 102.980215 23.529356 
L 103.328088 23.197625 
L 103.248002 22.982198 
L 103.295553 22.863251 
L 104.025085 22.176 
L 104.460551 22.358386 
L 104.987366 23.093216 
L 105.092478 23.754034 
L 105.395303 24.166384 
L 105.435346 24.561554 
L 105.435346 24.561554 
" clip-path="url(#p3c2723dcfc)" style="fill: none; stroke: #000000; stroke-width: 2"/>
   </g>
  </g>
 </g>
 <defs>
  <clipPath id="p3c2723dcfc">
   <rect x="-0" y="-0" width="134.347449" height="266.112"/>
  </clipPath>
 </defs>
</svg>
