<?xml version="1.0" encoding="utf-8" standalone="no"?>
<!DOCTYPE svg PUBLIC "-//W3C//DTD SVG 1.1//EN"
  "http://www.w3.org/Graphics/SVG/1.1/DTD/svg11.dtd">
<svg xmlns:xlink="http://www.w3.org/1999/xlink" width="36.411496pt" height="266.112pt" viewBox="0 0 36.411496 266.112" xmlns="http://www.w3.org/2000/svg" version="1.1">
 <metadata>
  <rdf:RDF xmlns:dc="http://purl.org/dc/elements/1.1/" xmlns:cc="http://creativecommons.org/ns#" xmlns:rdf="http://www.w3.org/1999/02/22-rdf-syntax-ns#">
   <cc:Work>
    <dc:type rdf:resource="http://purl.org/dc/dcmitype/StillImage"/>
    <dc:date>2024-02-02T21:58:03.368196</dc:date>
    <dc:format>image/svg+xml</dc:format>
    <dc:creator>
     <cc:Agent>
      <dc:title>Matplotlib v3.8.2, https://matplotlib.org/</dc:title>
     </cc:Agent>
    </dc:creator>
   </cc:Work>
  </rdf:RDF>
 </metadata>
 <defs>
  <style type="text/css">*{stroke-linejoin: round; stroke-linecap: butt}</style>
 </defs>
 <g id="figure_1">
  <g id="patch_1">
   <path d="M 0 266.112 
L 36.411496 266.112 
L 36.411496 0 
L 0 0 
L 0 266.112 
z
" style="fill: none"/>
  </g>
  <g id="axes_1">
   <g id="PatchCollection_1">
    <path d="M 16.617876 243.74386 
L 16.885989 243.936 
L 16.696461 243.93137 
L 16.631744 243.880441 
L 16.617876 243.74386 
" clip-path="url(#p2f7f31e45d)" style="fill: none; stroke: #000000; stroke-width: 2"/>
    <path d="M 17.565515 243.72997 
L 17.422213 243.771639 
L 17.445326 243.611908 
L 17.528534 243.535515 
L 17.782778 243.440602 
L 17.699571 243.551719 
L 17.644099 243.653577 
L 17.565515 243.72997 
" clip-path="url(#p2f7f31e45d)" style="fill: none; stroke: #000000; stroke-width: 2"/>
    <path d="M 15.51538 243.014653 
L 15.591653 243.301706 
L 15.503824 243.257722 
L 15.487644 243.195218 
L 15.503824 243.11651 
L 15.51538 243.014653 
" clip-path="url(#p2f7f31e45d)" style="fill: none; stroke: #000000; stroke-width: 2"/>
    <path d="M 18.802067 242.144234 
L 18.441502 242.635002 
L 18.427634 242.343319 
L 18.517775 242.079415 
L 18.656454 241.968298 
L 18.802067 242.144234 
" clip-path="url(#p2f7f31e45d)" style="fill: none; stroke: #000000; stroke-width: 2"/>
    <path d="M 15.3559 242.591018 
L 15.143259 242.591018 
L 14.680996 241.549293 
L 14.574676 241.019171 
L 14.967599 240.824716 
L 14.967599 241.035376 
L 14.791939 241.051581 
L 14.764203 241.132604 
L 14.787317 241.255296 
L 14.787317 241.257611 
L 14.754958 241.408082 
L 14.967599 241.602537 
L 15.154815 241.90348 
L 15.291183 242.257666 
L 15.3559 242.591018 
" clip-path="url(#p2f7f31e45d)" style="fill: none; stroke: #000000; stroke-width: 2"/>
    <path d="M 18.993906 241.09325 
L 18.933812 241.621057 
L 18.753529 241.426601 
L 18.698058 241.199737 
L 18.774331 240.972872 
L 19.010085 240.787677 
L 19.040132 240.871015 
L 19.023953 240.938148 
L 18.996217 241.005282 
L 18.993906 241.09325 
" clip-path="url(#p2f7f31e45d)" style="fill: none; stroke: #000000; stroke-width: 2"/>
    <path d="M 24.626575 232.812697 
L 24.610396 233.004837 
L 24.425491 232.842791 
L 24.346906 232.70158 
L 24.328416 232.562683 
L 24.342284 232.416842 
L 24.568792 232.676115 
L 24.626575 232.812697 
" clip-path="url(#p2f7f31e45d)" style="fill: none; stroke: #000000; stroke-width: 2"/>
    <path d="M 14.909816 218.274853 
L 14.907505 218.277168 
L 14.794251 218.19383 
L 14.764203 218.125539 
L 14.752647 218.098917 
L 14.750336 218.08387 
L 14.731845 217.985485 
L 14.697175 217.862793 
L 14.794251 217.950761 
L 14.89826 218.010949 
L 14.949109 218.100075 
L 14.949109 218.101232 
L 14.909816 218.274853 
" clip-path="url(#p2f7f31e45d)" style="fill: none; stroke: #000000; stroke-width: 2"/>
    <path d="M 18.159522 217.587315 
L 18.025466 217.747046 
L 17.976928 217.744731 
L 17.958438 217.645188 
L 17.921457 217.522496 
L 18.161833 217.586157 
L 18.159522 217.587315 
" clip-path="url(#p2f7f31e45d)" style="fill: none; stroke: #000000; stroke-width: 2"/>
    <path d="M 13.132417 216.968067 
L 13.132417 216.97154 
L 13.012228 216.926398 
L 13.002983 216.893989 
L 12.991427 216.862737 
L 13.002983 216.819911 
L 13.016851 216.777084 
L 13.016851 216.767825 
L 13.030719 216.670597 
L 13.030719 216.677542 
L 13.132417 216.968067 
" clip-path="url(#p2f7f31e45d)" style="fill: none; stroke: #000000; stroke-width: 2"/>
    <path d="M 22.7521 216.236545 
L 22.483988 216.383544 
L 22.525592 216.214553 
L 22.599554 216.186774 
L 22.675827 216.211081 
L 22.754412 216.235388 
L 22.7521 216.236545 
" clip-path="url(#p2f7f31e45d)" style="fill: none; stroke: #000000; stroke-width: 2"/>
    <path d="M 11.58846 215.825643 
L 11.58846 215.827958 
L 11.452092 215.756194 
L 11.445158 215.71221 
L 11.521432 215.665912 
L 11.556101 215.717998 
L 11.618507 215.73536 
L 11.636997 215.751564 
L 11.648554 215.760824 
L 11.58846 215.825643 
" clip-path="url(#p2f7f31e45d)" style="fill: none; stroke: #000000; stroke-width: 2"/>
    <path d="M 26.565766 213.320874 
L 26.43171 213.519959 
L 26.429399 213.523431 
L 26.369305 213.39611 
L 26.353126 213.364858 
L 26.353126 213.3637 
L 26.373927 213.318559 
L 26.464069 213.327819 
L 26.568078 213.318559 
L 26.565766 213.320874 
" clip-path="url(#p2f7f31e45d)" style="fill: none; stroke: #000000; stroke-width: 2"/>
    <path d="M 10.881198 213.133364 
L 10.883509 213.140308 
L 10.786434 213.0616 
L 10.770255 212.994467 
L 10.793368 212.931963 
L 10.802613 212.876405 
L 10.804925 212.881035 
L 10.881198 213.133364 
" clip-path="url(#p2f7f31e45d)" style="fill: none; stroke: #000000; stroke-width: 2"/>
    <path d="M 10.307993 210.231582 
L 10.298747 210.487383 
L 10.19705 210.369321 
L 10.19705 210.306818 
L 10.307993 210.230425 
L 10.307993 210.231582 
" clip-path="url(#p2f7f31e45d)" style="fill: none; stroke: #000000; stroke-width: 2"/>
    <path d="M 25.960202 209.904018 
L 26.034164 210.155189 
L 25.913976 210.106575 
L 25.895486 210.052174 
L 25.930155 209.985041 
L 25.957891 209.89823 
L 25.960202 209.904018 
" clip-path="url(#p2f7f31e45d)" style="fill: none; stroke: #000000; stroke-width: 2"/>
    <path d="M 22.969364 206.274186 
L 22.964741 206.274186 
L 22.913892 206.269556 
L 22.879223 206.174644 
L 22.900024 206.134132 
L 22.960118 206.120243 
L 23.001722 206.093621 
L 22.983232 206.168856 
L 22.983232 206.234832 
L 22.969364 206.274186 
" clip-path="url(#p2f7f31e45d)" style="fill: none; stroke: #000000; stroke-width: 2"/>
    <path d="M 22.562573 202.783252 
L 22.546394 202.827236 
L 22.520969 202.820291 
L 22.493233 202.814503 
L 22.460875 202.717276 
L 22.488611 202.682552 
L 22.490922 202.681394 
L 22.516346 202.674449 
L 22.53946 202.668662 
L 22.581063 202.64204 
L 22.562573 202.717276 
L 22.562573 202.783252 
" clip-path="url(#p2f7f31e45d)" style="fill: none; stroke: #000000; stroke-width: 2"/>
    <path d="M 21.95932 200.434742 
L 21.957009 200.435899 
L 21.920028 200.338672 
L 21.938518 200.292373 
L 21.991678 200.265751 
L 22.035593 200.234499 
L 22.035593 200.239129 
L 22.019414 200.294688 
L 22.017103 200.303947 
L 22.017103 200.362978 
L 22.01248 200.386128 
L 22.007858 200.410435 
L 21.984744 200.422009 
L 21.95932 200.434742 
" clip-path="url(#p2f7f31e45d)" style="fill: none; stroke: #000000; stroke-width: 2"/>
    <path d="M 22.659648 173.471439 
L 22.507101 173.642745 
L 22.444696 173.63117 
L 22.442384 173.63117 
L 22.407715 173.524682 
L 22.352243 173.399676 
L 22.356866 173.400833 
L 22.659648 173.471439 
" clip-path="url(#p2f7f31e45d)" style="fill: none; stroke: #000000; stroke-width: 2"/>
    <path d="M 23.362287 173.275826 
L 23.186627 173.295503 
L 23.198184 173.184386 
L 23.198184 173.180913 
L 23.20974 173.164709 
L 23.251344 173.105678 
L 23.316061 173.045489 
L 23.353042 172.965624 
L 23.355353 172.971411 
L 23.380777 173.097575 
L 23.433938 173.202905 
L 23.406202 173.271196 
L 23.362287 173.275826 
" clip-path="url(#p2f7f31e45d)" style="fill: none; stroke: #000000; stroke-width: 2"/>
    <path d="M 25.153554 172.397305 
L 24.957093 172.566296 
L 24.883131 172.561666 
L 24.862329 172.471383 
L 24.841527 172.383415 
L 25.153554 172.397305 
" clip-path="url(#p2f7f31e45d)" style="fill: none; stroke: #000000; stroke-width: 2"/>
    <path d="M 26.163598 172.355636 
L 26.163598 172.357951 
L 26.152041 172.346376 
L 26.145107 172.337117 
L 26.13124 172.326699 
L 26.124306 172.313967 
L 26.189022 172.234102 
L 26.251428 172.153079 
L 26.394729 172.054693 
L 26.6952 171.932001 
L 26.699822 171.930844 
L 26.494116 172.095205 
L 26.163598 172.355636 
" clip-path="url(#p2f7f31e45d)" style="fill: none; stroke: #000000; stroke-width: 2"/>
    <path d="M 27.122793 171.39262 
L 27.106614 171.436604 
L 27.081189 171.340533 
L 27.081189 171.339376 
L 27.106614 171.27803 
L 27.125104 171.258353 
L 27.162085 171.223629 
L 27.222179 171.151866 
L 27.217557 171.162283 
L 27.122793 171.39262 
" clip-path="url(#p2f7f31e45d)" style="fill: none; stroke: #000000; stroke-width: 2"/>
    <path d="M 19.134896 170.517571 
L 18.906076 170.621744 
L 18.915321 170.468957 
L 18.961547 170.448123 
L 19.012396 170.47243 
L 19.037821 170.485162 
L 19.134896 170.517571 
" clip-path="url(#p2f7f31e45d)" style="fill: none; stroke: #000000; stroke-width: 2"/>
    <path d="M 27.356235 170.503681 
L 27.34699 170.517571 
L 27.601234 169.590436 
L 27.693687 169.378619 
L 27.573499 169.978189 
L 27.483358 170.25714 
L 27.356235 170.503681 
" clip-path="url(#p2f7f31e45d)" style="fill: none; stroke: #000000; stroke-width: 2"/>
    <path d="M 27.601234 168.432965 
L 27.601234 168.437594 
L 27.54114 168.357729 
L 27.545763 168.29291 
L 27.608168 168.12855 
L 27.601234 168.432965 
" clip-path="url(#p2f7f31e45d)" style="fill: none; stroke: #000000; stroke-width: 2"/>
    <path d="M 21.16654 167.841497 
L 21.027861 167.937567 
L 20.944654 167.882008 
L 20.953899 167.832237 
L 20.993191 167.774363 
L 20.995503 167.701442 
L 21.069465 167.763946 
L 21.148049 167.79867 
L 21.16654 167.841497 
" clip-path="url(#p2f7f31e45d)" style="fill: none; stroke: #000000; stroke-width: 2"/>
    <path d="M 27.441754 166.700229 
L 27.407084 166.826394 
L 27.333122 166.815977 
L 27.330811 166.815977 
L 27.386282 166.758103 
L 27.441754 166.700229 
" clip-path="url(#p2f7f31e45d)" style="fill: none; stroke: #000000; stroke-width: 2"/>
    <path d="M 22.976298 166.517349 
L 22.976298 166.642356 
L 22.955496 166.593742 
L 22.976298 166.517349 
" clip-path="url(#p2f7f31e45d)" style="fill: none; stroke: #000000; stroke-width: 2"/>
    <path d="M 27.647461 165.392286 
L 27.647461 165.396916 
L 27.619725 165.298531 
L 27.642838 165.236028 
L 27.69831 165.183942 
L 27.767649 165.109863 
L 27.647461 165.392286 
" clip-path="url(#p2f7f31e45d)" style="fill: none; stroke: #000000; stroke-width: 2"/>
    <path d="M 28.107412 164.329727 
L 28.611278 164.338987 
L 28.613589 164.338987 
L 28.558118 164.380656 
L 28.470288 164.44779 
L 28.109723 164.674654 
L 27.940997 164.762622 
L 27.940997 164.646875 
L 27.975667 164.545017 
L 28.107412 164.329727 
" clip-path="url(#p2f7f31e45d)" style="fill: none; stroke: #000000; stroke-width: 2"/>
    <path d="M 13.116238 162.774085 
L 13.072323 162.7764 
L 13.076945 162.774085 
L 13.227181 162.721999 
L 13.160152 162.771771 
L 13.116238 162.774085 
" clip-path="url(#p2f7f31e45d)" style="fill: none; stroke: #000000; stroke-width: 2"/>
    <path d="M 14.907505 162.276373 
L 14.891326 162.308782 
L 14.81043 162.281003 
L 14.794251 162.205767 
L 14.794251 162.204609 
L 14.819675 162.179145 
L 14.875147 162.174515 
L 14.935241 162.149051 
L 14.935241 162.151366 
L 14.907505 162.211554 
L 14.907505 162.276373 
" clip-path="url(#p2f7f31e45d)" style="fill: none; stroke: #000000; stroke-width: 2"/>
    <path d="M 15.418305 162.000894 
L 15.25189 162.000894 
L 15.221843 161.953438 
L 15.221843 161.952281 
L 15.249579 161.868943 
L 15.265758 161.776345 
L 15.305051 161.834218 
L 15.418305 162.000894 
" clip-path="url(#p2f7f31e45d)" style="fill: none; stroke: #000000; stroke-width: 2"/>
    <path d="M 10.462851 159.707943 
L 10.460539 159.7091 
L 10.370398 159.690581 
L 10.520633 159.637337 
L 10.462851 159.707943 
" clip-path="url(#p2f7f31e45d)" style="fill: none; stroke: #000000; stroke-width: 2"/>
    <path d="M 9.887334 158.141884 
L 9.912758 158.465976 
L 9.785636 158.366433 
L 9.781013 158.29467 
L 9.836485 158.227537 
L 9.887334 158.141884 
" clip-path="url(#p2f7f31e45d)" style="fill: none; stroke: #000000; stroke-width: 2"/>
    <path d="M 21.707387 157.717092 
L 21.700453 157.725194 
L 21.755925 157.556203 
L 21.753613 157.573565 
L 21.744368 157.666163 
L 21.707387 157.717092 
" clip-path="url(#p2f7f31e45d)" style="fill: none; stroke: #000000; stroke-width: 2"/>
    <path d="M 22.285215 156.501746 
L 22.282904 156.507534 
L 22.035593 155.252834 
L 22.04715 155.020183 
L 22.248234 155.375526 
L 22.361488 155.683414 
L 22.386913 155.750547 
L 22.410026 156.134828 
L 22.285215 156.501746 
" clip-path="url(#p2f7f31e45d)" style="fill: none; stroke: #000000; stroke-width: 2"/>
    <path d="M 20.93772 153.40088 
L 20.93772 153.403195 
L 20.896116 153.370786 
L 20.840645 153.325644 
L 20.840645 153.322172 
L 20.833711 153.255038 
L 20.882248 153.174015 
L 20.926163 153.068685 
L 20.93772 153.40088 
" clip-path="url(#p2f7f31e45d)" style="fill: none; stroke: #000000; stroke-width: 2"/>
    <path d="M 15.993822 151.801254 
L 15.989199 151.801254 
L 16.118633 151.717916 
L 16.070095 151.801254 
L 15.993822 151.801254 
" clip-path="url(#p2f7f31e45d)" style="fill: none; stroke: #000000; stroke-width: 2"/>
    <path d="M 9.327996 148.122809 
L 9.272524 148.235084 
L 9.177761 148.222351 
L 9.161581 148.182997 
L 9.166204 148.120494 
L 9.147714 148.051046 
L 9.219364 148.08577 
L 9.295638 148.0904 
L 9.327996 148.122809 
" clip-path="url(#p2f7f31e45d)" style="fill: none; stroke: #000000; stroke-width: 2"/>
    <path d="M 8.398848 148.009377 
L 8.398848 148.011692 
L 8.218566 147.923724 
L 8.207009 147.858905 
L 8.287905 147.794087 
L 8.36649 147.710749 
L 8.398848 148.009377 
" clip-path="url(#p2f7f31e45d)" style="fill: none; stroke: #000000; stroke-width: 2"/>
    <path d="M 12.781097 146.457207 
L 12.707135 146.474569 
L 12.621617 146.35998 
L 12.619305 146.358822 
L 12.901285 146.261594 
L 12.901285 146.263909 
L 12.781097 146.457207 
" clip-path="url(#p2f7f31e45d)" style="fill: none; stroke: #000000; stroke-width: 2"/>
    <path d="M 21.968565 145.532387 
L 21.966254 145.533545 
L 21.883047 145.400436 
L 21.90616 145.349507 
L 21.970877 145.33909 
L 22.026348 145.318255 
L 22.003235 145.391176 
L 22.026348 145.450207 
L 22.026348 145.498821 
L 21.968565 145.532387 
" clip-path="url(#p2f7f31e45d)" style="fill: none; stroke: #000000; stroke-width: 2"/>
    <path d="M 23.325306 145.106438 
L 23.080307 145.400436 
L 23.114976 145.226815 
L 23.186627 145.145792 
L 23.274457 145.118012 
L 23.325306 145.106438 
" clip-path="url(#p2f7f31e45d)" style="fill: none; stroke: #000000; stroke-width: 2"/>
    <path d="M 27.635904 142.122476 
L 27.580433 142.193081 
L 27.580433 142.175719 
L 27.566565 142.062287 
L 27.571187 142.06576 
L 27.61048 142.101641 
L 27.635904 142.122476 
" clip-path="url(#p2f7f31e45d)" style="fill: none; stroke: #000000; stroke-width: 2"/>
    <path d="M 22.234366 141.924548 
L 22.229744 141.925706 
L 22.132669 141.860887 
L 22.132669 141.821533 
L 22.185829 141.790281 
L 22.220498 141.74514 
L 22.238989 141.812273 
L 22.27597 141.863202 
L 22.289838 141.901399 
L 22.234366 141.924548 
" clip-path="url(#p2f7f31e45d)" style="fill: none; stroke: #000000; stroke-width: 2"/>
    <path d="M 12.408976 140.506645 
L 12.281854 140.567991 
L 12.267986 140.555259 
L 12.242561 140.534425 
L 12.242561 140.448772 
L 12.242561 140.446457 
L 12.226382 140.338812 
L 12.408976 140.506645 
" clip-path="url(#p2f7f31e45d)" style="fill: none; stroke: #000000; stroke-width: 2"/>
    <path d="M 28.010337 140.301773 
L 27.947931 140.543684 
L 27.92713 140.476551 
L 27.940997 140.42215 
L 28.010337 140.2983 
L 28.010337 140.301773 
" clip-path="url(#p2f7f31e45d)" style="fill: none; stroke: #000000; stroke-width: 2"/>
    <path d="M 28.625146 140.105003 
L 28.387081 140.400158 
L 28.414817 140.224222 
L 28.495712 140.144357 
L 28.576608 140.113105 
L 28.627457 140.102688 
L 28.625146 140.105003 
" clip-path="url(#p2f7f31e45d)" style="fill: none; stroke: #000000; stroke-width: 2"/>
    <path d="M 8.227811 140.123522 
L 8.153849 140.201073 
L 8.149226 140.123522 
L 8.29715 139.887398 
L 8.29715 139.89087 
L 8.227811 140.123522 
" clip-path="url(#p2f7f31e45d)" style="fill: none; stroke: #000000; stroke-width: 2"/>
    <path d="M 9.272524 136.809681 
L 9.143091 136.824728 
L 9.129223 136.786531 
L 9.166204 136.717083 
L 9.191628 136.6268 
L 9.226298 136.682359 
L 9.263279 136.692776 
L 9.28177 136.698563 
L 9.316439 136.724028 
L 9.272524 136.809681 
" clip-path="url(#p2f7f31e45d)" style="fill: none; stroke: #000000; stroke-width: 2"/>
    <path d="M 29.383257 136.081631 
L 29.26538 136.154552 
L 29.397124 135.973986 
L 29.383257 136.081631 
" clip-path="url(#p2f7f31e45d)" style="fill: none; stroke: #000000; stroke-width: 2"/>
    <path d="M 11.468272 136.0226 
L 11.366574 136.088576 
L 11.278744 136.046907 
L 11.285678 136.00408 
L 11.329593 135.948522 
L 11.357329 135.876758 
L 11.361951 135.880231 
L 11.39431 135.936947 
L 11.454404 135.977459 
L 11.468272 136.0226 
" clip-path="url(#p2f7f31e45d)" style="fill: none; stroke: #000000; stroke-width: 2"/>
    <path d="M 13.266473 133.352313 
L 13.141662 133.365045 
L 13.127794 133.329163 
L 13.127794 133.328006 
L 13.160152 133.256243 
L 13.185577 133.16596 
L 13.220247 133.221518 
L 13.222558 133.222676 
L 13.282652 133.240038 
L 13.317322 133.263187 
L 13.266473 133.352313 
" clip-path="url(#p2f7f31e45d)" style="fill: none; stroke: #000000; stroke-width: 2"/>
    <path d="M 12.998361 131.962189 
L 12.894352 132.02585 
L 12.887418 132.022378 
L 12.808833 131.987654 
L 12.818078 131.94367 
L 12.859682 131.885796 
L 12.887418 131.814033 
L 12.889729 131.817505 
L 12.929021 131.874221 
L 12.984493 131.918205 
L 12.998361 131.962189 
" clip-path="url(#p2f7f31e45d)" style="fill: none; stroke: #000000; stroke-width: 2"/>
    <path d="M 7.201588 130.317422 
L 7.196966 130.317422 
L 7.192343 130.282698 
L 7.224701 130.212092 
L 7.250126 130.121809 
L 7.284795 130.177368 
L 7.347201 130.192415 
L 7.358758 130.202832 
L 7.374937 130.219037 
L 7.331022 130.307005 
L 7.201588 130.317422 
" clip-path="url(#p2f7f31e45d)" style="fill: none; stroke: #000000; stroke-width: 2"/>
    <path d="M 26.72987 128.86711 
L 26.732181 128.872897 
L 26.651285 128.735158 
L 26.655908 128.739788 
L 26.681332 128.76178 
L 26.720624 128.795347 
L 26.722936 128.802292 
L 26.72987 128.86711 
" clip-path="url(#p2f7f31e45d)" style="fill: none; stroke: #000000; stroke-width: 2"/>
    <path d="M 33.374894 126.311412 
L 33.377205 126.313727 
L 33.321733 126.291735 
L 33.24546 126.261641 
L 33.240838 126.248909 
L 33.217724 126.178303 
L 33.222347 126.181776 
L 33.374894 126.311412 
" clip-path="url(#p2f7f31e45d)" style="fill: none; stroke: #000000; stroke-width: 2"/>
    <path d="M 26.427088 124.885407 
L 26.429399 124.887722 
L 26.362371 124.855313 
L 26.36006 124.852998 
L 26.353126 124.753456 
L 26.427088 124.885407 
" clip-path="url(#p2f7f31e45d)" style="fill: none; stroke: #000000; stroke-width: 2"/>
    <path d="M 7.300975 124.633079 
L 7.18772 124.686322 
L 7.102202 124.633079 
L 7.09989 124.633079 
L 7.118381 124.594882 
L 7.16923 124.553213 
L 7.196966 124.487237 
L 7.201588 124.491867 
L 7.233947 124.553213 
L 7.291729 124.594882 
L 7.303286 124.633079 
L 7.300975 124.633079 
" clip-path="url(#p2f7f31e45d)" style="fill: none; stroke: #000000; stroke-width: 2"/>
    <path d="M 6.203101 124.477977 
L 6.055177 124.477977 
L 6.043621 124.445568 
L 6.043621 124.443253 
L 6.099092 124.383065 
L 6.126828 124.306672 
L 6.129139 124.311301 
L 6.156875 124.351813 
L 6.168431 124.37149 
L 6.237771 124.414316 
L 6.272441 124.447883 
L 6.203101 124.477977 
" clip-path="url(#p2f7f31e45d)" style="fill: none; stroke: #000000; stroke-width: 2"/>
    <path d="M 9.480543 123.600614 
L 9.47592 123.602929 
L 9.591486 123.394584 
L 9.711674 123.304301 
L 9.836485 123.295041 
L 9.95205 123.311246 
L 9.480543 123.600614 
" clip-path="url(#p2f7f31e45d)" style="fill: none; stroke: #000000; stroke-width: 2"/>
    <path d="M 10.439737 121.553046 
L 10.326483 121.605133 
L 10.238653 121.553046 
L 10.252521 121.512535 
L 10.301059 121.469708 
L 10.335728 121.407205 
L 10.370398 121.469708 
L 10.407379 121.49633 
L 10.428181 121.512535 
L 10.439737 121.553046 
" clip-path="url(#p2f7f31e45d)" style="fill: none; stroke: #000000; stroke-width: 2"/>
    <path d="M 3.390234 118.563297 
L 3.311649 118.672099 
L 3.251555 118.63506 
L 3.17297 118.587604 
L 3.17297 118.505423 
L 3.22613 118.427873 
L 3.253866 118.331803 
L 3.253866 118.33759 
L 3.29547 118.434818 
L 3.364809 118.500794 
L 3.392545 118.563297 
L 3.390234 118.563297 
" clip-path="url(#p2f7f31e45d)" style="fill: none; stroke: #000000; stroke-width: 2"/>
    <path d="M 10.730963 118.282031 
L 10.622331 118.334118 
L 10.536813 118.285504 
L 10.548369 118.243835 
L 10.599218 118.202166 
L 10.633888 118.13619 
L 10.67318 118.198693 
L 10.730963 118.24152 
L 10.730963 118.282031 
" clip-path="url(#p2f7f31e45d)" style="fill: none; stroke: #000000; stroke-width: 2"/>
    <path d="M 10.548369 117.192851 
L 10.432803 117.243779 
L 10.421247 117.236834 
L 10.349596 117.194008 
L 10.349596 117.192851 
L 10.363464 117.153497 
L 10.414313 117.111828 
L 10.446671 117.047009 
L 10.483652 117.111828 
L 10.525256 117.141922 
L 10.539124 117.153497 
L 10.548369 117.192851 
" clip-path="url(#p2f7f31e45d)" style="fill: none; stroke: #000000; stroke-width: 2"/>
    <path d="M 10.511388 115.352471 
L 10.398134 115.403399 
L 10.314926 115.352471 
L 10.328794 115.313117 
L 10.377332 115.267975 
L 10.412002 115.205472 
L 10.446671 115.267975 
L 10.469784 115.286495 
L 10.502143 115.313117 
L 10.511388 115.352471 
" clip-path="url(#p2f7f31e45d)" style="fill: none; stroke: #000000; stroke-width: 2"/>
    <path d="M 24.263699 115.066575 
L 24.263699 115.067733 
L 24.240586 115.011016 
L 24.268321 114.921891 
L 24.309925 114.905687 
L 24.360774 114.921891 
L 24.404689 114.927678 
L 24.346906 114.976292 
L 24.296057 115.038796 
L 24.263699 115.066575 
" clip-path="url(#p2f7f31e45d)" style="fill: none; stroke: #000000; stroke-width: 2"/>
    <path d="M 24.439359 112.936827 
L 24.430113 112.941457 
L 24.58266 112.824552 
L 24.580349 112.826867 
L 24.568792 112.875481 
L 24.439359 112.936827 
" clip-path="url(#p2f7f31e45d)" style="fill: none; stroke: #000000; stroke-width: 2"/>
    <path d="M 25.333837 112.410178 
L 25.264497 112.451847 
L 25.313035 112.358091 
L 25.377752 112.30832 
L 25.541855 112.211092 
L 25.537232 112.214565 
L 25.333837 112.410178 
" clip-path="url(#p2f7f31e45d)" style="fill: none; stroke: #000000; stroke-width: 2"/>
    <path d="M 21.781349 112.141644 
L 21.684274 112.213407 
L 21.684274 112.183313 
L 21.785972 112.137014 
L 21.781349 112.141644 
" clip-path="url(#p2f7f31e45d)" style="fill: none; stroke: #000000; stroke-width: 2"/>
    <path d="M 3.653723 110.624199 
L 3.59594 110.667025 
L 3.450328 110.618411 
L 3.448016 110.616096 
L 3.441082 110.583687 
L 3.438771 110.580215 
L 3.438771 110.579057 
L 3.498865 110.538546 
L 3.554337 110.470255 
L 3.568205 110.538546 
L 3.600563 110.567483 
L 3.623676 110.58716 
L 3.642167 110.609152 
L 3.656034 110.623041 
L 3.653723 110.624199 
" clip-path="url(#p2f7f31e45d)" style="fill: none; stroke: #000000; stroke-width: 2"/>
    <path d="M 26.422465 107.907613 
L 26.422465 107.909928 
L 26.316145 107.81733 
L 26.25605 107.761771 
L 26.251428 107.69811 
L 26.334635 107.663386 
L 26.417842 107.618245 
L 26.422465 107.907613 
" clip-path="url(#p2f7f31e45d)" style="fill: none; stroke: #000000; stroke-width: 2"/>
    <path d="M 23.889266 107.272161 
L 23.884644 107.273318 
L 23.988653 107.198083 
L 23.986341 107.202712 
L 23.953983 107.254799 
L 23.889266 107.272161 
" clip-path="url(#p2f7f31e45d)" style="fill: none; stroke: #000000; stroke-width: 2"/>
    <path d="M 27.587089 104.526132 
L 27.270611 105.350267 
L 26.941474 105.6926 
L 26.495739 105.954028 
L 25.814812 105.895464 
L 25.523653 105.768674 
L 24.232423 105.31223 
L 24.257741 105.160082 
L 26.52765 105.265252 
L 26.769583 105.128094 
L 26.928815 104.652922 
L 27.131361 103.993614 
L 27.498475 103.651281 
L 27.688362 103.828787 
L 27.663044 104.069688 
L 27.587089 104.526132 
" clip-path="url(#p2f7f31e45d)" style="fill: none; stroke: #000000; stroke-width: 2"/>
    <path d="M 11.297234 103.157349 
L 11.204782 103.157349 
L 11.177046 103.122625 
L 11.174735 103.067066 
L 11.146999 102.999933 
L 11.151622 103.003405 
L 11.204782 103.050862 
L 11.257942 103.076326 
L 11.292612 103.10179 
L 11.297234 103.157349 
" clip-path="url(#p2f7f31e45d)" style="fill: none; stroke: #000000; stroke-width: 2"/>
    <path d="M 10.69167 103.126097 
L 10.689359 103.127255 
L 10.599218 103.10179 
L 10.428181 102.989516 
L 10.811859 103.09716 
L 10.809547 103.09716 
L 10.69167 103.126097 
" clip-path="url(#p2f7f31e45d)" style="fill: none; stroke: #000000; stroke-width: 2"/>
    <path d="M 28.904815 100.830831 
L 28.812362 100.888704 
L 28.724532 100.87713 
L 28.717599 100.87713 
L 28.909437 100.828516 
L 28.904815 100.830831 
" clip-path="url(#p2f7f31e45d)" style="fill: none; stroke: #000000; stroke-width: 2"/>
    <path d="M 29.362455 100.423401 
L 29.297738 100.448865 
L 29.244578 100.379417 
L 29.244578 100.378259 
L 29.260757 100.340063 
L 29.306983 100.300709 
L 29.353209 100.23589 
L 29.353209 100.24052 
L 29.348587 100.315756 
L 29.367077 100.378259 
L 29.367077 100.379417 
L 29.362455 100.423401 
" clip-path="url(#p2f7f31e45d)" style="fill: none; stroke: #000000; stroke-width: 2"/>
    <path d="M 30.078962 100.210426 
L 30.078962 100.211583 
L 30.041981 100.203481 
L 29.986509 100.191906 
L 29.981887 100.190749 
L 29.926415 100.083104 
L 29.963396 100.05301 
L 30.032735 100.051852 
L 30.104386 100.024073 
L 30.102075 100.027545 
L 30.078962 100.094679 
L 30.090518 100.164127 
L 30.090518 100.168757 
L 30.078962 100.210426 
" clip-path="url(#p2f7f31e45d)" style="fill: none; stroke: #000000; stroke-width: 2"/>
    <path d="M 30.966506 99.559927 
L 30.906412 99.586549 
L 30.853251 99.518258 
L 30.869431 99.476589 
L 30.915657 99.433762 
L 30.957261 99.371259 
L 30.957261 99.372417 
L 30.952638 99.451125 
L 30.971128 99.513628 
L 30.966506 99.559927 
" clip-path="url(#p2f7f31e45d)" style="fill: none; stroke: #000000; stroke-width: 2"/>
    <path d="M 31.798578 98.291338 
L 31.793956 98.293653 
L 31.946502 98.19874 
L 31.891031 98.268189 
L 31.798578 98.291338 
" clip-path="url(#p2f7f31e45d)" style="fill: none; stroke: #000000; stroke-width: 2"/>
    <path d="M 10.765632 98.096883 
L 10.737897 98.557556 
L 10.534501 98.534407 
L 10.483652 98.529777 
L 10.377332 98.287866 
L 10.765632 98.096883 
" clip-path="url(#p2f7f31e45d)" style="fill: none; stroke: #000000; stroke-width: 2"/>
    <path d="M 31.94188 97.68135 
L 31.863295 97.787838 
L 31.865606 97.717232 
L 31.946502 97.677878 
L 31.94188 97.68135 
" clip-path="url(#p2f7f31e45d)" style="fill: none; stroke: #000000; stroke-width: 2"/>
    <path d="M 22.685072 97.069048 
L 22.701251 97.329479 
L 22.604176 97.280865 
L 22.604176 97.228779 
L 22.604176 97.226464 
L 22.643469 97.161646 
L 22.685072 97.069048 
" clip-path="url(#p2f7f31e45d)" style="fill: none; stroke: #000000; stroke-width: 2"/>
    <path d="M 27.7168 93.101235 
L 27.652083 93.127857 
L 27.633593 93.10355 
L 27.601234 93.059566 
L 27.619725 93.017897 
L 27.66364 92.978543 
L 27.707555 92.913725 
L 27.707555 92.920669 
L 27.705244 92.994748 
L 27.721423 93.057251 
L 27.7168 93.101235 
" clip-path="url(#p2f7f31e45d)" style="fill: none; stroke: #000000; stroke-width: 2"/>
    <path d="M 23.496343 92.689175 
L 23.431626 92.716954 
L 23.380777 92.648663 
L 23.399268 92.605837 
L 23.447805 92.565326 
L 23.487098 92.501665 
L 23.487098 92.508609 
L 23.487098 92.580373 
L 23.503277 92.645191 
L 23.496343 92.689175 
" clip-path="url(#p2f7f31e45d)" style="fill: none; stroke: #000000; stroke-width: 2"/>
    <path d="M 25.923221 90.176304 
L 25.858505 90.198296 
L 25.844637 90.182091 
L 25.807656 90.134635 
L 25.826146 90.089494 
L 25.874684 90.05014 
L 25.916287 89.987636 
L 25.916287 89.988794 
L 25.913976 90.066344 
L 25.913976 90.067502 
L 25.930155 90.131163 
L 25.930155 90.13232 
L 25.923221 90.176304 
" clip-path="url(#p2f7f31e45d)" style="fill: none; stroke: #000000; stroke-width: 2"/>
    <path d="M 11.123886 85.511693 
L 11.119263 85.51748 
L 11.135443 85.237372 
L 11.209405 85.12394 
L 11.30648 85.100791 
L 11.398932 85.092688 
L 11.398932 85.095003 
L 11.123886 85.511693 
" clip-path="url(#p2f7f31e45d)" style="fill: none; stroke: #000000; stroke-width: 2"/>
    <path d="M 9.790258 84.991988 
L 9.73941 85.024398 
L 9.646957 85.005878 
L 9.642334 85.003563 
L 9.794881 84.989673 
L 9.790258 84.991988 
" clip-path="url(#p2f7f31e45d)" style="fill: none; stroke: #000000; stroke-width: 2"/>
    <path d="M 24.68898 82.934004 
L 24.383887 82.975673 
L 24.453227 82.842563 
L 24.515632 82.832146 
L 24.591905 82.88539 
L 24.68898 82.934004 
" clip-path="url(#p2f7f31e45d)" style="fill: none; stroke: #000000; stroke-width: 2"/>
    <path d="M 9.413515 81.242938 
L 9.406581 81.248725 
L 9.434316 81.188536 
L 9.51059 81.149182 
L 9.413515 81.242938 
" clip-path="url(#p2f7f31e45d)" style="fill: none; stroke: #000000; stroke-width: 2"/>
    <path d="M 9.838796 81.178119 
L 9.836485 81.179277 
L 9.93356 81.079734 
L 9.931249 81.086679 
L 9.917381 81.144552 
L 9.915069 81.153812 
L 9.875777 81.166544 
L 9.838796 81.178119 
" clip-path="url(#p2f7f31e45d)" style="fill: none; stroke: #000000; stroke-width: 2"/>
    <path d="M 13.220247 78.738169 
L 13.157841 78.750901 
L 13.257228 78.653673 
L 13.257228 78.658303 
L 13.220247 78.738169 
" clip-path="url(#p2f7f31e45d)" style="fill: none; stroke: #000000; stroke-width: 2"/>
    <path d="M 13.446755 78.515934 
L 13.338124 78.524037 
L 13.271095 78.452273 
L 13.294209 78.412919 
L 13.345057 78.383982 
L 13.379727 78.327266 
L 13.382038 78.330739 
L 13.405152 78.410604 
L 13.446755 78.475423 
L 13.446755 78.515934 
" clip-path="url(#p2f7f31e45d)" style="fill: none; stroke: #000000; stroke-width: 2"/>
    <path d="M 14.482223 77.624681 
L 14.477601 77.625839 
L 14.579298 77.528611 
L 14.570053 77.609634 
L 14.482223 77.624681 
" clip-path="url(#p2f7f31e45d)" style="fill: none; stroke: #000000; stroke-width: 2"/>
    <path d="M 15.023071 77.232298 
L 15.124768 77.273967 
L 15.115523 77.27281 
L 15.027693 77.255448 
L 14.935241 77.196417 
L 14.944486 77.199889 
L 15.023071 77.232298 
" clip-path="url(#p2f7f31e45d)" style="fill: none; stroke: #000000; stroke-width: 2"/>
    <path d="M 7.920406 75.446319 
L 7.913473 75.449792 
L 8.012859 75.350249 
L 8.010548 75.353722 
L 7.987435 75.419697 
L 7.920406 75.446319 
" clip-path="url(#p2f7f31e45d)" style="fill: none; stroke: #000000; stroke-width: 2"/>
    <path d="M 15.730332 75.220612 
L 15.633257 75.258809 
L 15.730332 75.161581 
L 15.730332 75.220612 
" clip-path="url(#p2f7f31e45d)" style="fill: none; stroke: #000000; stroke-width: 2"/>
    <path d="M 26.110438 75.147692 
L 26.108126 75.148849 
L 26.011051 75.12107 
L 26.179777 75.095605 
L 26.177466 75.09792 
L 26.110438 75.147692 
" clip-path="url(#p2f7f31e45d)" style="fill: none; stroke: #000000; stroke-width: 2"/>
    <path d="M 28.539627 74.279588 
L 28.391703 74.308525 
L 28.179063 74.248336 
L 28.17444 74.246021 
L 28.343166 74.155738 
L 28.516514 74.102495 
L 28.682929 74.079345 
L 28.844721 74.07703 
L 28.539627 74.279588 
" clip-path="url(#p2f7f31e45d)" style="fill: none; stroke: #000000; stroke-width: 2"/>
    <path d="M 15.184862 73.629089 
L 15.087787 73.722844 
L 15.087787 73.67886 
L 15.189485 73.625616 
L 15.184862 73.629089 
" clip-path="url(#p2f7f31e45d)" style="fill: none; stroke: #000000; stroke-width: 2"/>
    <path d="M 25.174356 73.389492 
L 25.169733 73.39065 
L 25.250629 73.347823 
L 25.252941 73.347823 
L 25.289922 73.354768 
L 25.340771 73.364028 
L 25.338459 73.365185 
L 25.174356 73.389492 
" clip-path="url(#p2f7f31e45d)" style="fill: none; stroke: #000000; stroke-width: 2"/>
    <path d="M 29.861698 72.65334 
L 29.799293 72.699639 
L 29.68835 72.678805 
L 29.866321 72.651025 
L 29.861698 72.65334 
" clip-path="url(#p2f7f31e45d)" style="fill: none; stroke: #000000; stroke-width: 2"/>
    <path d="M 30.16448 72.384807 
L 30.159858 72.384807 
L 30.259244 72.335035 
L 30.351697 72.354712 
L 30.347074 72.354712 
L 30.16448 72.384807 
" clip-path="url(#p2f7f31e45d)" style="fill: none; stroke: #000000; stroke-width: 2"/>
    <path d="M 10.633888 72.160257 
L 10.552992 72.182249 
L 10.654689 72.083864 
L 10.633888 72.160257 
" clip-path="url(#p2f7f31e45d)" style="fill: none; stroke: #000000; stroke-width: 2"/>
    <path d="M 23.380777 71.987794 
L 23.329929 72.007471 
L 23.237476 71.960015 
L 23.232853 71.921818 
L 23.265212 71.873204 
L 23.274457 71.815331 
L 23.276768 71.821118 
L 23.309127 71.889409 
L 23.364598 71.944967 
L 23.380777 71.987794 
" clip-path="url(#p2f7f31e45d)" style="fill: none; stroke: #000000; stroke-width: 2"/>
    <path d="M 21.16654 71.644025 
L 21.212766 71.685694 
L 21.215077 71.685694 
L 21.298285 71.678749 
L 21.300596 71.678749 
L 21.30753 71.678749 
L 21.36069 71.682221 
L 21.36069 71.683379 
L 21.32602 71.757457 
L 21.055597 71.794496 
L 21.050974 71.794496 
L 21.009371 71.713473 
L 21.050974 71.689166 
L 21.13187 71.682221 
L 21.16654 71.644025 
" clip-path="url(#p2f7f31e45d)" style="fill: none; stroke: #000000; stroke-width: 2"/>
    <path d="M 29.949528 71.131265 
L 29.949528 71.137052 
L 29.815472 70.362704 
L 29.866321 70.21339 
L 30.007311 70.42868 
L 30.069716 70.657859 
L 30.069716 70.659016 
L 30.046603 70.897456 
L 29.949528 71.131265 
" clip-path="url(#p2f7f31e45d)" style="fill: none; stroke: #000000; stroke-width: 2"/>
    <path d="M 21.781349 69.977266 
L 21.772104 69.979581 
L 21.855311 69.921707 
L 21.947764 69.952959 
L 21.781349 69.977266 
" clip-path="url(#p2f7f31e45d)" style="fill: none; stroke: #000000; stroke-width: 2"/>
    <path d="M 27.249915 69.278153 
L 27.178264 69.322137 
L 27.074255 69.305932 
L 27.249915 69.278153 
" clip-path="url(#p2f7f31e45d)" style="fill: none; stroke: #000000; stroke-width: 2"/>
    <path d="M 22.236678 69.0918 
L 22.229744 69.095272 
L 22.29446 68.945958 
L 22.29446 68.954061 
L 22.299083 69.051288 
L 22.236678 69.0918 
" clip-path="url(#p2f7f31e45d)" style="fill: none; stroke: #000000; stroke-width: 2"/>
    <path d="M 12.059968 69.102217 
L 12.013741 69.140414 
L 11.95827 69.004989 
L 11.95827 69.002674 
L 11.986006 68.96332 
L 12.06459 68.96332 
L 12.145486 68.942486 
L 12.143175 68.944801 
L 12.103883 68.993415 
L 12.059968 69.102217 
" clip-path="url(#p2f7f31e45d)" style="fill: none; stroke: #000000; stroke-width: 2"/>
    <path d="M 10.289502 68.97258 
L 10.231719 68.9911 
L 10.19705 68.87651 
L 10.19705 68.875353 
L 10.229408 68.842943 
L 10.298747 68.840628 
L 10.370398 68.817479 
L 10.368087 68.820951 
L 10.326483 68.875353 
L 10.312615 68.932069 
L 10.289502 68.97258 
" clip-path="url(#p2f7f31e45d)" style="fill: none; stroke: #000000; stroke-width: 2"/>
    <path d="M 12.300344 68.269995 
L 12.298033 68.271152 
L 12.267986 68.173925 
L 12.263363 68.155405 
L 12.263363 68.154248 
L 12.295722 68.119524 
L 12.360438 68.119524 
L 12.436712 68.098689 
L 12.392797 68.154248 
L 12.378929 68.210964 
L 12.355816 68.252633 
L 12.300344 68.269995 
" clip-path="url(#p2f7f31e45d)" style="fill: none; stroke: #000000; stroke-width: 2"/>
    <path d="M 8.609178 68.223696 
L 8.553706 68.241058 
L 8.512103 68.120681 
L 8.512103 68.119524 
L 8.54215 68.090587 
L 8.611489 68.088272 
L 8.690074 68.063965 
L 8.64847 68.122996 
L 8.629979 68.178555 
L 8.609178 68.223696 
" clip-path="url(#p2f7f31e45d)" style="fill: none; stroke: #000000; stroke-width: 2"/>
    <path d="M 25.118885 66.655322 
L 25.031055 66.708566 
L 24.950159 66.683101 
L 24.945536 66.681944 
L 25.118885 66.655322 
" clip-path="url(#p2f7f31e45d)" style="fill: none; stroke: #000000; stroke-width: 2"/>
    <path d="M 12.388174 64.721187 
L 12.383551 64.722344 
L 12.351193 64.604282 
L 12.38124 64.570715 
L 12.452891 64.570715 
L 12.526853 64.544094 
L 12.524541 64.548723 
L 12.478315 64.604282 
L 12.464447 64.659841 
L 12.443646 64.702667 
L 12.388174 64.721187 
" clip-path="url(#p2f7f31e45d)" style="fill: none; stroke: #000000; stroke-width: 2"/>
    <path d="M 12.323457 63.016231 
L 12.263363 63.035908 
L 12.228693 62.917846 
L 12.228693 62.916688 
L 12.263363 62.886594 
L 12.32808 62.881964 
L 12.402042 62.86113 
L 12.402042 62.862287 
L 12.360438 62.916688 
L 12.339636 62.974562 
L 12.323457 63.016231 
" clip-path="url(#p2f7f31e45d)" style="fill: none; stroke: #000000; stroke-width: 2"/>
    <path d="M 12.145486 61.827507 
L 12.092326 61.890011 
L 12.076147 61.958302 
L 12.050722 62.004601 
L 11.979072 62.008073 
L 11.951336 61.866862 
L 11.951336 61.865704 
L 11.990628 61.83098 
L 11.99294 61.83098 
L 12.009119 61.833295 
L 12.06459 61.841397 
L 12.145486 61.827507 
" clip-path="url(#p2f7f31e45d)" style="fill: none; stroke: #000000; stroke-width: 2"/>
    <path d="M 23.131156 61.159646 
L 22.798327 61.791626 
L 22.796015 61.786996 
L 22.775213 61.778894 
L 22.772902 61.777736 
L 22.765968 61.775421 
L 22.851487 61.577494 
L 23.142712 61.134182 
L 23.131156 61.159646 
" clip-path="url(#p2f7f31e45d)" style="fill: none; stroke: #000000; stroke-width: 2"/>
    <path d="M 11.498319 60.426967 
L 11.496007 60.428124 
L 11.611573 60.194315 
L 11.583837 60.341314 
L 11.498319 60.426967 
" clip-path="url(#p2f7f31e45d)" style="fill: none; stroke: #000000; stroke-width: 2"/>
    <path d="M 22.906958 59.733641 
L 22.798327 59.813507 
L 22.687384 59.722066 
L 22.712808 59.659563 
L 22.784459 59.598217 
L 22.844553 59.504462 
L 22.844553 59.511407 
L 22.853798 59.598217 
L 22.900024 59.667665 
L 22.906958 59.731326 
L 22.906958 59.733641 
" clip-path="url(#p2f7f31e45d)" style="fill: none; stroke: #000000; stroke-width: 2"/>
    <path d="M 11.278744 59.232456 
L 11.278744 59.235928 
L 11.202471 59.16185 
L 11.160867 59.122496 
L 11.163178 59.064623 
L 11.241763 59.028741 
L 11.320348 58.97434 
L 11.320348 58.976655 
L 11.278744 59.232456 
" clip-path="url(#p2f7f31e45d)" style="fill: none; stroke: #000000; stroke-width: 2"/>
    <path d="M 24.305302 58.483572 
L 24.296057 58.488202 
L 24.453227 58.272912 
L 24.571103 58.188417 
L 24.668179 58.181472 
L 24.762942 58.202306 
L 24.760631 58.203464 
L 24.305302 58.483572 
" clip-path="url(#p2f7f31e45d)" style="fill: none; stroke: #000000; stroke-width: 2"/>
    <path d="M 11.033745 57.931458 
L 11.033745 57.932615 
L 10.925113 57.841175 
L 10.904311 57.749735 
L 10.952849 57.53213 
L 10.95516 57.540232 
L 11.033745 57.931458 
" clip-path="url(#p2f7f31e45d)" style="fill: none; stroke: #000000; stroke-width: 2"/>
    <path d="M 24.155067 56.390863 
L 24.092662 56.42443 
L 24.004832 56.321415 
L 24.030256 56.277431 
L 24.101907 56.247336 
L 24.171246 56.194093 
L 24.171246 56.198723 
L 24.155067 56.272801 
L 24.155067 56.275116 
L 24.155067 56.341092 
L 24.155067 56.390863 
" clip-path="url(#p2f7f31e45d)" style="fill: none; stroke: #000000; stroke-width: 2"/>
    <path d="M 10.044503 54.552798 
L 10.002899 54.897724 
L 9.878088 54.718316 
L 9.878088 54.717159 
L 9.896579 54.631506 
L 10.044503 54.552798 
" clip-path="url(#p2f7f31e45d)" style="fill: none; stroke: #000000; stroke-width: 2"/>
    <path d="M 23.057194 54.518074 
L 23.213713 54.873101 
L 22.969364 54.754198 
L 22.906958 54.67549 
L 23.057194 54.518074 
" clip-path="url(#p2f7f31e45d)" style="fill: none; stroke: #000000; stroke-width: 2"/>
    <path d="M 9.526769 54.316674 
L 9.51059 54.346768 
L 9.468986 54.324776 
L 9.425071 54.300469 
L 9.420448 54.18125 
L 9.455118 54.163887 
L 9.517524 54.195139 
L 9.591486 54.203241 
L 9.589174 54.205556 
L 9.538325 54.251855 
L 9.526769 54.316674 
" clip-path="url(#p2f7f31e45d)" style="fill: none; stroke: #000000; stroke-width: 2"/>
    <path d="M 19.104849 51.303775 
L 19.058623 51.410262 
L 18.956925 51.403317 
L 19.10716 51.300303 
L 19.104849 51.303775 
" clip-path="url(#p2f7f31e45d)" style="fill: none; stroke: #000000; stroke-width: 2"/>
    <path d="M 19.007774 50.60119 
L 18.996217 50.608134 
L 19.054 50.538686 
L 19.146452 50.508592 
L 19.14183 50.510907 
L 19.007774 50.60119 
" clip-path="url(#p2f7f31e45d)" style="fill: none; stroke: #000000; stroke-width: 2"/>
    <path d="M 18.205748 49.994674 
L 18.097116 50.015509 
L 18.247352 49.915966 
L 18.24504 49.918281 
L 18.205748 49.994674 
" clip-path="url(#p2f7f31e45d)" style="fill: none; stroke: #000000; stroke-width: 2"/>
    <path d="M 19.520885 49.387002 
L 19.516263 49.388159 
L 19.523196 49.304821 
L 19.557866 49.267782 
L 19.604092 49.246948 
L 19.661875 49.208751 
L 19.659564 49.212224 
L 19.620272 49.278199 
L 19.59947 49.337231 
L 19.576357 49.3789 
L 19.520885 49.387002 
" clip-path="url(#p2f7f31e45d)" style="fill: none; stroke: #000000; stroke-width: 2"/>
    <path d="M 18.203437 48.772384 
L 18.064758 48.871927 
L 18.115607 48.802479 
L 18.208059 48.770069 
L 18.203437 48.772384 
" clip-path="url(#p2f7f31e45d)" style="fill: none; stroke: #000000; stroke-width: 2"/>
    <path d="M 19.678054 48.286246 
L 19.59947 48.589504 
L 19.523196 48.473757 
L 19.539376 48.410096 
L 19.608715 48.358009 
L 19.678054 48.283931 
L 19.678054 48.286246 
" clip-path="url(#p2f7f31e45d)" style="fill: none; stroke: #000000; stroke-width: 2"/>
    <path d="M 12.813456 47.443607 
L 12.808833 47.448237 
L 12.850437 47.385733 
L 12.956757 47.347537 
L 12.952134 47.351009 
L 12.813456 47.443607 
" clip-path="url(#p2f7f31e45d)" style="fill: none; stroke: #000000; stroke-width: 2"/>
    <path d="M 18.91301 47.083633 
L 18.809001 47.160026 
L 18.698058 47.069744 
L 18.71886 47.008397 
L 18.795133 46.945894 
L 18.850604 46.854454 
L 18.864472 46.945894 
L 18.906076 47.015342 
L 18.91301 47.083633 
" clip-path="url(#p2f7f31e45d)" style="fill: none; stroke: #000000; stroke-width: 2"/>
    <path d="M 15.48071 45.612487 
L 15.476088 45.612487 
L 15.633257 45.512944 
L 15.56854 45.593967 
L 15.48071 45.612487 
" clip-path="url(#p2f7f31e45d)" style="fill: none; stroke: #000000; stroke-width: 2"/>
    <path d="M 17.926079 45.517574 
L 17.914523 45.524519 
L 17.930702 45.512944 
L 18.097116 45.28608 
L 18.097116 45.29071 
L 18.037022 45.445811 
L 17.926079 45.517574 
" clip-path="url(#p2f7f31e45d)" style="fill: none; stroke: #000000; stroke-width: 2"/>
    <path d="M 14.214111 44.993239 
L 14.204866 44.994397 
L 14.35279 44.894854 
L 14.350479 44.898327 
L 14.297318 44.97935 
L 14.214111 44.993239 
" clip-path="url(#p2f7f31e45d)" style="fill: none; stroke: #000000; stroke-width: 2"/>
    <path d="M 17.720373 44.508259 
L 17.694948 44.619376 
L 17.526222 44.580022 
L 17.523911 44.57192 
L 17.500798 44.524463 
L 17.551647 44.44807 
L 17.581694 44.357787 
L 17.584005 44.362417 
L 17.616363 44.436495 
L 17.64641 44.450385 
L 17.676458 44.464275 
L 17.720373 44.508259 
" clip-path="url(#p2f7f31e45d)" style="fill: none; stroke: #000000; stroke-width: 2"/>
    <path d="M 15.383635 44.309174 
L 15.37439 44.316118 
L 15.420616 44.25593 
L 15.522314 44.214261 
L 15.513069 44.221206 
L 15.383635 44.309174 
" clip-path="url(#p2f7f31e45d)" style="fill: none; stroke: #000000; stroke-width: 2"/>
    <path d="M 10.677803 43.841555 
L 10.654689 43.901744 
L 10.522945 43.875122 
L 10.502143 43.832295 
L 10.536813 43.772107 
L 10.548369 43.722335 
L 10.548369 43.725808 
L 10.592284 43.781366 
L 10.599218 43.784839 
L 10.650067 43.812618 
L 10.661623 43.823035 
L 10.677803 43.841555 
" clip-path="url(#p2f7f31e45d)" style="fill: none; stroke: #000000; stroke-width: 2"/>
    <path d="M 17.304336 43.694556 
L 17.237308 43.74317 
L 17.200327 43.792941 
L 17.158723 43.820721 
L 17.103252 43.798729 
L 17.126365 43.721178 
L 17.172591 43.702658 
L 17.234997 43.707288 
L 17.304336 43.694556 
" clip-path="url(#p2f7f31e45d)" style="fill: none; stroke: #000000; stroke-width: 2"/>
    <path d="M 12.693267 43.295228 
L 12.672465 43.355417 
L 12.533787 43.329952 
L 12.517608 43.283654 
L 12.549966 43.228095 
L 12.568456 43.177166 
L 12.605437 43.23967 
L 12.665532 43.265134 
L 12.693267 43.295228 
" clip-path="url(#p2f7f31e45d)" style="fill: none; stroke: #000000; stroke-width: 2"/>
    <path d="M 3.110565 41.945616 
L 3.156791 41.964136 
L 3.20764 41.964136 
L 3.205328 41.965293 
L 3.147546 42.01738 
L 3.101319 42.083355 
L 3.064338 42.109977 
L 3.034291 42.055576 
L 3.064338 41.964136 
L 3.110565 41.945616 
" clip-path="url(#p2f7f31e45d)" style="fill: none; stroke: #000000; stroke-width: 2"/>
    <path d="M 9.358043 41.274283 
L 9.332619 41.332156 
L 9.203185 41.305535 
L 9.198562 41.297432 
L 9.177761 41.260393 
L 9.207808 41.204834 
L 9.226298 41.151591 
L 9.272524 41.214094 
L 9.327996 41.244189 
L 9.341864 41.258078 
L 9.358043 41.271968 
L 9.358043 41.274283 
" clip-path="url(#p2f7f31e45d)" style="fill: none; stroke: #000000; stroke-width: 2"/>
    <path d="M 13.215624 41.330999 
L 13.211001 41.335629 
L 13.37207 41.118292 
L 13.298831 41.262708 
L 13.215624 41.330999 
" clip-path="url(#p2f7f31e45d)" style="fill: none; stroke: #000000; stroke-width: 2"/>
    <path d="M 9.066818 40.933986 
L 9.041393 40.99186 
L 8.91196 40.965238 
L 8.907337 40.957136 
L 8.886535 40.922411 
L 8.921205 40.864538 
L 8.935073 40.812452 
L 8.981299 40.873798 
L 9.036771 40.903892 
L 9.057572 40.923569 
L 9.066818 40.931671 
L 9.066818 40.933986 
" clip-path="url(#p2f7f31e45d)" style="fill: none; stroke: #000000; stroke-width: 2"/>
    <path d="M 10.821104 37.871316 
L 10.793368 37.903725 
L 10.730963 37.875946 
L 10.758699 37.742837 
L 10.802613 37.72316 
L 10.804925 37.724317 
L 10.855774 37.756726 
L 10.908934 37.770616 
L 10.84884 37.813442 
L 10.821104 37.871316 
" clip-path="url(#p2f7f31e45d)" style="fill: none; stroke: #000000; stroke-width: 2"/>
    <path d="M 9.93356 37.772931 
L 9.93356 37.774088 
L 9.801815 37.746309 
L 9.785636 37.70001 
L 9.813372 37.646767 
L 9.827239 37.593523 
L 9.871154 37.656026 
L 9.926626 37.683806 
L 9.961296 37.711585 
L 9.93356 37.772931 
" clip-path="url(#p2f7f31e45d)" style="fill: none; stroke: #000000; stroke-width: 2"/>
    <path d="M 12.850437 37.285635 
L 12.78572 37.3111 
L 12.762607 37.274061 
L 12.711758 37.195353 
L 12.727937 37.151369 
L 12.790342 37.135164 
L 12.836569 37.107385 
L 12.834257 37.112015 
L 12.822701 37.183778 
L 12.841191 37.243966 
L 12.848125 37.284478 
L 12.850437 37.285635 
" clip-path="url(#p2f7f31e45d)" style="fill: none; stroke: #000000; stroke-width: 2"/>
    <path d="M 13.164775 36.083022 
L 13.141662 36.116589 
L 13.076945 36.08881 
L 13.104681 35.954543 
L 13.150907 35.933708 
L 13.153219 35.934866 
L 13.206379 35.96496 
L 13.257228 35.982322 
L 13.197133 36.026306 
L 13.164775 36.083022 
" clip-path="url(#p2f7f31e45d)" style="fill: none; stroke: #000000; stroke-width: 2"/>
    <path d="M 13.959867 34.672064 
L 13.740292 34.871149 
L 13.75416 34.702159 
L 13.80732 34.659332 
L 13.878971 34.667434 
L 13.959867 34.672064 
" clip-path="url(#p2f7f31e45d)" style="fill: none; stroke: #000000; stroke-width: 2"/>
    <path d="M 14.711043 33.803961 
L 14.708732 33.805118 
L 14.731845 33.586356 
L 14.805807 33.50649 
L 14.995335 33.477554 
L 14.995335 33.478711 
L 14.925995 33.593301 
L 14.891326 33.694001 
L 14.838166 33.766921 
L 14.711043 33.803961 
" clip-path="url(#p2f7f31e45d)" style="fill: none; stroke: #000000; stroke-width: 2"/>
    <path d="M 13.03303 32.239059 
L 12.970625 32.264523 
L 12.947512 32.228642 
L 12.894352 32.151091 
L 12.919776 32.103635 
L 12.975247 32.089745 
L 13.026096 32.061966 
L 13.026096 32.064281 
L 13.012228 32.134886 
L 13.012228 32.136044 
L 13.01454 32.145304 
L 13.030719 32.193917 
L 13.03303 32.239059 
" clip-path="url(#p2f7f31e45d)" style="fill: none; stroke: #000000; stroke-width: 2"/>
    <path d="M 9.58224 32.041131 
L 9.552193 32.075855 
L 9.496722 32.051548 
L 9.49441 32.049233 
L 9.522146 31.914967 
L 9.568372 31.89529 
L 9.621533 31.926541 
L 9.67007 31.940431 
L 9.614599 31.984415 
L 9.58224 32.041131 
" clip-path="url(#p2f7f31e45d)" style="fill: none; stroke: #000000; stroke-width: 2"/>
    <path d="M 15.730332 33.044659 
L 15.72571 33.048132 
L 15.848209 32.588615 
L 16.317406 31.820054 
L 16.516179 31.299192 
L 16.650235 31.284145 
L 16.687216 31.322341 
L 16.687216 31.324656 
L 16.687216 31.395262 
L 16.714951 31.475128 
L 16.326651 32.360593 
L 16.097831 32.749504 
L 15.730332 33.044659 
" clip-path="url(#p2f7f31e45d)" style="fill: none; stroke: #000000; stroke-width: 2"/>
    <path d="M 17.20495 30.314183 
L 17.20495 30.315341 
L 17.121743 30.249365 
L 17.144856 30.047965 
L 17.588628 30.116256 
L 17.366742 30.266727 
L 17.20495 30.314183 
" clip-path="url(#p2f7f31e45d)" style="fill: none; stroke: #000000; stroke-width: 2"/>
    <path d="M 11.771054 29.838463 
L 11.745629 29.870872 
L 11.687846 29.846565 
L 11.685535 29.845407 
L 11.708648 29.708826 
L 11.759497 29.692621 
L 11.812657 29.721558 
L 11.865817 29.735448 
L 11.863506 29.736605 
L 11.805723 29.780589 
L 11.771054 29.838463 
" clip-path="url(#p2f7f31e45d)" style="fill: none; stroke: #000000; stroke-width: 2"/>
    <path d="M 15.998445 29.780589 
L 15.970709 29.815313 
L 15.905992 29.787534 
L 15.933728 29.65211 
L 15.979954 29.634748 
L 15.979954 29.635905 
L 16.035426 29.665999 
L 16.086274 29.681046 
L 16.02618 29.72503 
L 15.998445 29.780589 
" clip-path="url(#p2f7f31e45d)" style="fill: none; stroke: #000000; stroke-width: 2"/>
    <path d="M 11.253319 29.611598 
L 11.251008 29.611598 
L 11.177046 29.500481 
L 11.200159 29.454182 
L 11.257942 29.43682 
L 11.30648 29.412513 
L 11.292612 29.485434 
L 11.311102 29.54678 
L 11.311102 29.549095 
L 11.313414 29.588449 
L 11.253319 29.611598 
" clip-path="url(#p2f7f31e45d)" style="fill: none; stroke: #000000; stroke-width: 2"/>
    <path d="M 14.685619 29.530575 
L 14.655572 29.562984 
L 14.620902 29.55141 
L 14.593166 29.540992 
L 14.625525 29.405568 
L 14.66944 29.384734 
L 14.7226 29.414828 
L 14.724911 29.415985 
L 14.773449 29.431033 
L 14.771137 29.433347 
L 14.713355 29.477331 
L 14.685619 29.530575 
" clip-path="url(#p2f7f31e45d)" style="fill: none; stroke: #000000; stroke-width: 2"/>
    <path d="M 10.86733 29.321073 
L 10.86733 29.32223 
L 10.81417 29.299081 
L 10.807236 29.295608 
L 10.802613 29.294451 
L 10.828038 29.162499 
L 10.881198 29.13935 
L 10.932047 29.171759 
L 10.982896 29.190278 
L 10.925113 29.231947 
L 10.890443 29.285191 
L 10.86733 29.321073 
" clip-path="url(#p2f7f31e45d)" style="fill: none; stroke: #000000; stroke-width: 2"/>
    <path d="M 15.013825 28.343009 
L 14.949109 28.368474 
L 14.875147 28.255041 
L 14.891326 28.207585 
L 14.953731 28.192538 
L 15.002269 28.164758 
L 15.002269 28.165916 
L 14.988401 28.241152 
L 15.00458 28.30134 
L 15.011514 28.340694 
L 15.013825 28.343009 
" clip-path="url(#p2f7f31e45d)" style="fill: none; stroke: #000000; stroke-width: 2"/>
    <path d="M 17.914523 28.32449 
L 17.778155 28.499268 
L 17.694948 28.266616 
L 17.720373 28.007342 
L 17.805891 27.736494 
L 17.926079 27.551298 
L 18.064758 27.542039 
L 18.064758 27.544354 
L 18.037022 27.940209 
L 17.914523 28.32449 
" clip-path="url(#p2f7f31e45d)" style="fill: none; stroke: #000000; stroke-width: 2"/>
    <path d="M 9.891956 26.540826 
L 9.843812 26.600527 
L 9.882711 26.437811 
L 9.882711 26.449385 
L 9.891956 26.540826 
" clip-path="url(#p2f7f31e45d)" style="fill: none; stroke: #000000; stroke-width: 2"/>
    <path d="M 17.477685 26.620691 
L 17.473062 26.620691 
L 17.468439 26.618376 
L 17.454572 26.613746 
L 17.436081 26.602172 
L 17.415279 26.326693 
L 17.436081 26.148443 
L 17.498486 26.054688 
L 17.623297 26.041955 
L 17.514666 26.613746 
L 17.491553 26.620691 
L 17.477685 26.620691 
" clip-path="url(#p2f7f31e45d)" style="fill: none; stroke: #000000; stroke-width: 2"/>
    <path d="M 8.87729 25.640313 
L 8.874979 25.64147 
L 8.916582 25.481739 
L 8.916582 25.576652 
L 8.87729 25.640313 
" clip-path="url(#p2f7f31e45d)" style="fill: none; stroke: #000000; stroke-width: 2"/>
    <path d="M 11.410489 24.443487 
L 11.459026 24.828925 
L 11.341149 24.685399 
L 11.338838 24.583541 
L 11.338838 24.582384 
L 11.338838 24.581226 
L 11.410489 24.4377 
L 11.410489 24.443487 
" clip-path="url(#p2f7f31e45d)" style="fill: none; stroke: #000000; stroke-width: 2"/>
    <path d="M 10.564548 23.621682 
L 10.522945 23.780256 
L 10.502143 23.693445 
L 10.564548 23.61821 
L 10.564548 23.621682 
" clip-path="url(#p2f7f31e45d)" style="fill: none; stroke: #000000; stroke-width: 2"/>
    <path d="M 9.51059 22.59269 
L 9.482854 22.860066 
L 9.327996 22.694547 
L 9.332619 22.637831 
L 9.420448 22.620469 
L 9.51059 22.589217 
L 9.51059 22.59269 
" clip-path="url(#p2f7f31e45d)" style="fill: none; stroke: #000000; stroke-width: 2"/>
    <path d="M 8.706253 22.2767 
L 8.64847 22.335731 
L 8.685451 22.176 
L 8.706253 22.219984 
L 8.706253 22.221141 
L 8.706253 22.2767 
" clip-path="url(#p2f7f31e45d)" style="fill: none; stroke: #000000; stroke-width: 2"/>
   </g>
  </g>
 </g>
 <defs>
  <clipPath id="p2f7f31e45d">
   <rect x="0" y="-0" width="36.411496" height="266.112"/>
  </clipPath>
 </defs>
</svg>
