<?xml version="1.0" encoding="utf-8" standalone="no"?>
<!DOCTYPE svg PUBLIC "-//W3C//DTD SVG 1.1//EN"
  "http://www.w3.org/Graphics/SVG/1.1/DTD/svg11.dtd">
<svg xmlns:xlink="http://www.w3.org/1999/xlink" width="357.12pt" height="223.611277pt" viewBox="0 0 357.12 223.611277" xmlns="http://www.w3.org/2000/svg" version="1.1">
 <metadata>
  <rdf:RDF xmlns:dc="http://purl.org/dc/elements/1.1/" xmlns:cc="http://creativecommons.org/ns#" xmlns:rdf="http://www.w3.org/1999/02/22-rdf-syntax-ns#">
   <cc:Work>
    <dc:type rdf:resource="http://purl.org/dc/dcmitype/StillImage"/>
    <dc:date>2024-02-02T21:58:03.412205</dc:date>
    <dc:format>image/svg+xml</dc:format>
    <dc:creator>
     <cc:Agent>
      <dc:title>Matplotlib v3.8.2, https://matplotlib.org/</dc:title>
     </cc:Agent>
    </dc:creator>
   </cc:Work>
  </rdf:RDF>
 </metadata>
 <defs>
  <style type="text/css">*{stroke-linejoin: round; stroke-linecap: butt}</style>
 </defs>
 <g id="figure_1">
  <g id="patch_1">
   <path d="M 0 223.611277 
L 357.12 223.611277 
L 357.12 0 
L 0 0 
L 0 223.611277 
z
" style="fill: none"/>
  </g>
  <g id="axes_1">
   <g id="PatchCollection_1">
    <path d="M 63.917475 166.173359 
L 63.855911 166.182959 
L 63.792053 166.179203 
L 63.467793 166.221775 
L 63.311016 166.156664 
L 63.311016 166.037712 
L 63.527444 165.909994 
L 64.011541 165.909994 
L 64.047485 165.938793 
L 64.041367 166.004739 
L 64.012306 166.07778 
L 63.982097 166.126613 
L 63.917475 166.173359 
" clip-path="url(#p4c18534279)" style="fill: none; stroke: #000000; stroke-width: 2"/>
    <path d="M 321.039215 165.422081 
L 320.98071 165.422081 
L 321.016272 165.342361 
L 321.177255 165.146194 
L 321.269027 165.010964 
L 321.317207 164.910793 
L 321.374947 164.649933 
L 321.433834 164.089395 
L 321.462512 163.998824 
L 321.498456 163.911175 
L 321.553519 163.822691 
L 321.631908 163.732538 
L 321.462512 164.086473 
L 321.519487 164.532232 
L 321.402861 164.889925 
L 321.039215 165.422081 
" clip-path="url(#p4c18534279)" style="fill: none; stroke: #000000; stroke-width: 2"/>
    <path d="M 322.198217 162.87441 
L 322.075472 163.102298 
L 322.116004 162.811804 
L 322.016967 161.97538 
L 322.145448 162.121462 
L 322.214277 162.614384 
L 322.198217 162.87441 
" clip-path="url(#p4c18534279)" style="fill: none; stroke: #000000; stroke-width: 2"/>
    <path d="M 282.028537 161.687389 
L 282.027008 161.835558 
L 281.98724 161.80342 
L 281.956649 161.765439 
L 281.750927 161.909434 
L 281.638507 161.958267 
L 281.513468 161.97538 
L 281.556677 161.899417 
L 281.614034 161.840567 
L 281.68554 161.796742 
L 281.770429 161.765439 
L 281.584591 161.783386 
L 281.261477 161.921955 
L 281.12229 161.911938 
L 280.753673 162.449103 
L 280.482946 162.684086 
L 280.160215 162.752119 
L 280.352554 162.396096 
L 279.860427 162.707459 
L 279.570581 162.838516 
L 279.285706 162.892357 
L 279.10331 162.892357 
L 279.03754 162.871071 
L 279.07922 162.799282 
L 279.221084 162.644018 
L 279.324327 162.578072 
L 279.7373 162.396096 
L 280.00038 162.331402 
L 280.511005 162.046957 
L 280.880632 161.797622 
L 281.315011 161.631461 
L 281.734102 161.429868 
L 281.892409 161.415259 
L 281.952825 161.494978 
L 282.001006 161.579706 
L 282.028537 161.687389 
" clip-path="url(#p4c18534279)" style="fill: none; stroke: #000000; stroke-width: 2"/>
    <path d="M 99.719197 162.089741 
L 99.554008 162.103932 
L 99.372759 162.093915 
L 99.200686 162.198259 
L 99.05844 162.046334 
L 98.929195 161.935729 
L 98.790007 161.84808 
L 98.375887 161.665268 
L 98.382388 161.593897 
L 98.425214 161.415259 
L 98.508956 161.180693 
L 98.645467 160.981605 
L 99.002612 160.644781 
L 99.195333 160.720744 
L 99.419792 160.89646 
L 99.564332 161.121843 
L 99.516152 161.344723 
L 99.644633 161.399399 
L 99.765083 161.542559 
L 99.842324 161.729127 
L 99.842324 161.911938 
L 99.719197 162.089741 
" clip-path="url(#p4c18534279)" style="fill: none; stroke: #000000; stroke-width: 2"/>
    <path d="M 100.618561 156.465166 
L 100.603266 156.489374 
L 100.572675 156.458488 
L 100.547438 156.384195 
L 100.548585 156.283607 
L 100.583 156.193453 
L 100.706892 155.969322 
L 100.752778 155.863308 
L 100.752778 155.723069 
L 100.834225 155.784006 
L 100.899995 155.869151 
L 101.003238 156.073249 
L 100.764249 156.253556 
L 100.661006 156.356648 
L 100.618561 156.465166 
" clip-path="url(#p4c18534279)" style="fill: none; stroke: #000000; stroke-width: 2"/>
    <path d="M 326.904965 143.212605 
L 326.573057 143.806116 
L 326.452988 144.13793 
L 326.298506 144.305716 
L 326.012484 144.549882 
L 325.902357 144.718919 
L 325.66681 145.179704 
L 325.621688 145.355002 
L 325.581921 145.408009 
L 325.493208 145.461434 
L 325.405642 145.532388 
L 325.364727 145.63548 
L 325.327254 145.706017 
L 325.237012 145.817874 
L 324.742208 146.288675 
L 324.590785 146.360464 
L 324.525015 146.265302 
L 324.497101 146.059118 
L 324.369003 145.625463 
L 324.332294 145.390062 
L 324.361355 144.958911 
L 324.472246 144.561151 
L 324.845834 143.842845 
L 325.140651 143.422963 
L 325.208715 143.393747 
L 325.357462 143.25643 
L 325.435086 143.212605 
L 325.515386 143.211353 
L 325.575038 143.236813 
L 325.620159 143.267699 
L 325.653426 143.282725 
L 325.756287 143.306098 
L 325.990305 143.404599 
L 326.076724 143.422963 
L 326.20291 143.394164 
L 326.409397 143.265195 
L 326.527171 143.292742 
L 326.695419 143.228883 
L 326.842254 143.1116 
L 326.904965 142.960927 
L 326.924849 142.923363 
L 326.969205 142.923363 
L 327.013561 142.960509 
L 327.033445 143.031463 
L 327.015856 143.064019 
L 326.904965 143.212605 
" clip-path="url(#p4c18534279)" style="fill: none; stroke: #000000; stroke-width: 2"/>
    <path d="M 327.106863 136.286648 
L 327.36 136.737833 
L 327.177221 136.596342 
L 326.993677 136.287483 
L 326.896935 135.976537 
L 326.974941 135.827533 
L 327.003619 136.042065 
L 327.106863 136.286648 
" clip-path="url(#p4c18534279)" style="fill: none; stroke: #000000; stroke-width: 2"/>
    <path d="M 143.815617 135.339565 
L 143.857637 135.364886 
L 143.889667 135.406251 
L 143.873671 135.612087 
L 143.857073 135.791626 
L 143.768118 135.751613 
L 143.67097 135.806676 
L 143.455891 135.690777 
L 143.369746 135.550645 
L 143.551664 135.351261 
L 143.722908 135.362883 
L 143.815617 135.339565 
" clip-path="url(#p4c18534279)" style="fill: none; stroke: #000000; stroke-width: 2"/>
    <path d="M 141.887782 133.691101 
L 142.003747 133.772361 
L 142.196435 133.814807 
L 142.367727 133.826286 
L 142.492355 133.833675 
L 142.499913 133.938786 
L 142.584834 134.015634 
L 142.587119 134.110339 
L 142.417873 134.19329 
L 142.38053 134.35243 
L 142.357316 134.463592 
L 142.211569 134.43983 
L 141.965184 134.315277 
L 141.825315 134.297385 
L 141.67903 134.179605 
L 141.496048 134.148009 
L 141.36574 133.96745 
L 141.559596 133.815262 
L 141.676102 133.701985 
L 141.780013 133.720336 
L 141.887782 133.691101 
" clip-path="url(#p4c18534279)" style="fill: none; stroke: #000000; stroke-width: 2"/>
    <path d="M 139.960419 131.632913 
L 140.159411 131.69614 
L 140.356464 131.685705 
L 140.472496 131.756386 
L 140.845214 131.920662 
L 140.972513 132.033234 
L 140.954019 132.128633 
L 140.925827 132.250423 
L 141.043456 132.378655 
L 141.11806 132.450443 
L 141.16677 132.533401 
L 141.209245 132.569195 
L 141.251387 132.594439 
L 141.180245 132.65419 
L 141.145892 132.739148 
L 141.164044 132.838804 
L 141.186712 132.912048 
L 141.109678 132.95054 
L 141.100796 133.008714 
L 141.050524 133.068131 
L 140.995135 133.132854 
L 140.992217 133.222506 
L 140.949955 133.191997 
L 140.903571 133.203734 
L 140.912457 133.14545 
L 140.941937 133.081394 
L 140.872833 133.014657 
L 140.804949 132.995479 
L 140.438645 132.857385 
L 140.063801 132.614943 
L 140.073787 132.577678 
L 140.08839 132.529888 
L 140.08632 132.451061 
L 140.022375 132.358127 
L 139.965362 132.22264 
L 139.873616 132.08816 
L 139.830464 132.026112 
L 139.89163 131.982353 
L 139.89408 131.876957 
L 139.880674 131.761437 
L 139.784772 131.66917 
L 139.960419 131.632913 
" clip-path="url(#p4c18534279)" style="fill: none; stroke: #000000; stroke-width: 2"/>
    <path d="M 139.756812 130.80568 
L 139.764103 130.884573 
L 139.811557 130.90969 
L 139.830656 131.041027 
L 139.759849 131.116617 
L 139.813731 131.18898 
L 139.61453 131.320703 
L 139.520769 131.117651 
L 139.568058 130.972602 
L 139.622278 130.830298 
L 139.685472 130.860274 
L 139.756812 130.80568 
" clip-path="url(#p4c18534279)" style="fill: none; stroke: #000000; stroke-width: 2"/>
    <path d="M 224.917394 131.065259 
L 224.835182 131.185881 
L 224.557955 131.135379 
L 224.336937 130.793129 
L 224.188573 130.334432 
L 224.135422 129.931663 
L 224.272697 130.073571 
L 224.326996 130.273912 
L 224.364469 130.494705 
L 224.450123 130.696298 
L 224.795032 130.937542 
L 224.917394 131.065259 
" clip-path="url(#p4c18534279)" style="fill: none; stroke: #000000; stroke-width: 2"/>
    <path d="M 299.242698 122.704055 
L 299.565617 122.974884 
L 299.878814 123.413146 
L 300.017593 123.791265 
L 299.907353 124.316978 
L 299.790887 124.634324 
L 299.637723 124.750383 
L 299.509793 124.714558 
L 299.318139 124.615381 
L 299.251008 124.545005 
L 299.274307 124.419268 
L 299.192312 124.237843 
L 299.225992 124.162662 
L 299.384187 124.113486 
L 299.57636 123.938887 
L 299.594589 123.67925 
L 299.429633 123.468535 
L 299.289184 123.31664 
L 299.257154 123.098398 
L 299.041531 122.971025 
L 298.808922 122.885456 
L 298.642084 122.942961 
L 298.591382 123.093604 
L 298.50833 123.051083 
L 298.542324 122.908691 
L 298.642911 122.775162 
L 298.743719 122.599674 
L 298.893911 122.542033 
L 299.242698 122.704055 
" clip-path="url(#p4c18534279)" style="fill: none; stroke: #000000; stroke-width: 2"/>
    <path d="M 222.888472 121.394212 
L 222.648336 121.495635 
L 222.704928 121.380439 
L 222.848322 121.221836 
L 222.910268 121.133352 
L 223.068957 120.699279 
L 223.161493 120.572814 
L 223.199349 120.767729 
L 223.09037 121.096622 
L 222.888472 121.394212 
" clip-path="url(#p4c18534279)" style="fill: none; stroke: #000000; stroke-width: 2"/>
    <path d="M 110.299588 106.414266 
L 110.257864 106.59995 
L 110.145298 106.565394 
L 109.993351 106.533802 
L 109.697612 106.497119 
L 109.590064 106.449775 
L 109.610417 106.36784 
L 109.485591 106.193796 
L 109.340985 105.962156 
L 109.223141 105.587965 
L 109.120679 105.270834 
L 109.146008 105.176694 
L 109.188851 105.08441 
L 108.993342 104.670661 
L 109.023337 104.319473 
L 109.032859 104.165321 
L 109.093651 104.18055 
L 109.164181 104.292363 
L 109.181407 104.431022 
L 109.290126 104.571312 
L 109.347919 104.665133 
L 109.418766 104.761548 
L 109.51109 104.987235 
L 109.621039 105.212181 
L 109.738895 105.349799 
L 109.884727 105.643564 
L 109.948833 105.701478 
L 110.070071 105.857891 
L 110.204323 106.136727 
L 110.21762 106.246033 
L 110.299588 106.414266 
" clip-path="url(#p4c18534279)" style="fill: none; stroke: #000000; stroke-width: 2"/>
    <path d="M 93.729938 104.127735 
L 93.938411 104.183246 
L 94.218623 104.272565 
L 94.618379 104.551849 
L 94.657249 104.623248 
L 94.000755 104.330494 
L 93.733531 104.288895 
L 93.395293 104.260766 
L 93.008858 104.357246 
L 92.760315 104.396712 
L 92.681004 104.329581 
L 92.754236 104.220736 
L 92.826443 104.157085 
L 92.936657 104.199819 
L 93.098777 104.183477 
L 93.367645 104.144541 
L 93.529174 104.158405 
L 93.729938 104.127735 
" clip-path="url(#p4c18534279)" style="fill: none; stroke: #000000; stroke-width: 2"/>
    <path d="M 89.877215 102.686997 
L 89.984484 102.689204 
L 90.504669 102.683632 
L 90.727273 102.696529 
L 90.884766 102.667071 
L 91.014499 102.776412 
L 91.138986 102.746284 
L 91.127876 102.877222 
L 91.19904 103.018129 
L 91.288525 103.077446 
L 91.31858 103.209256 
L 91.50681 103.246035 
L 91.720368 103.267036 
L 91.927004 103.421115 
L 92.20217 103.942193 
L 92.371348 104.109897 
L 92.47901 104.09583 
L 92.501856 104.170192 
L 92.431995 104.324214 
L 92.487294 104.440344 
L 92.417778 104.611201 
L 92.332354 104.740444 
L 92.353441 104.930116 
L 92.064711 104.537637 
L 91.879336 104.353164 
L 91.416585 104.01494 
L 91.059964 103.720144 
L 90.817218 103.501821 
L 90.474737 103.314242 
L 90.410323 103.23911 
L 90.303797 103.204096 
L 90.166853 103.045488 
L 89.839785 102.899365 
L 89.593945 102.812376 
L 89.546116 102.729422 
L 89.714043 102.593471 
L 89.877215 102.686997 
" clip-path="url(#p4c18534279)" style="fill: none; stroke: #000000; stroke-width: 2"/>
    <path d="M 105.017272 102.39766 
L 104.984735 102.543876 
L 105.154508 102.565355 
L 105.351694 102.714496 
L 105.443027 102.830374 
L 105.539061 102.844718 
L 105.563985 102.992326 
L 105.625044 103.114215 
L 105.700131 103.187504 
L 105.658001 103.306043 
L 105.524865 103.323412 
L 105.466408 103.424037 
L 105.512294 103.567615 
L 105.424346 103.633978 
L 105.373872 103.725383 
L 105.336994 103.895198 
L 105.134617 103.877735 
L 105.126853 103.785486 
L 105.090394 103.718239 
L 105.127126 103.599514 
L 105.068623 103.543135 
L 104.992272 103.529788 
L 104.924243 103.598456 
L 104.905311 103.505206 
L 104.875069 103.422499 
L 105.035051 103.367441 
L 105.020703 103.312605 
L 104.955785 103.299736 
L 104.941077 103.244771 
L 104.860145 103.204051 
L 104.790673 103.147349 
L 104.749442 103.058864 
L 104.721597 102.900026 
L 104.762399 102.819681 
L 104.676685 102.762418 
L 104.684728 102.681008 
L 104.806943 102.630473 
L 104.869689 102.561536 
L 104.786357 102.575669 
L 104.684236 102.517845 
L 104.69855 102.404322 
L 104.593973 102.427809 
L 104.574406 102.351109 
L 104.615092 102.27116 
L 104.528842 102.235219 
L 104.498365 102.163196 
L 104.644341 102.043542 
L 104.669759 101.945701 
L 104.773225 101.986128 
L 104.829363 102.108254 
L 104.887225 102.191568 
L 104.988052 102.292992 
L 105.017272 102.39766 
" clip-path="url(#p4c18534279)" style="fill: none; stroke: #000000; stroke-width: 2"/>
    <path d="M 103.099051 99.529489 
L 103.131088 99.592987 
L 103.129453 99.645854 
L 103.066381 99.643946 
L 103.063751 99.571708 
L 103.010385 99.570088 
L 102.951704 99.582757 
L 102.890979 99.503951 
L 102.896876 99.470452 
L 103.0063 99.387162 
L 103.056014 99.350181 
L 103.093946 99.3802 
L 103.071128 99.49015 
L 103.099051 99.529489 
" clip-path="url(#p4c18534279)" style="fill: none; stroke: #000000; stroke-width: 2"/>
    <path d="M 54.348349 98.227691 
L 54.339172 98.230195 
L 54.334583 98.225187 
L 54.334583 98.216004 
L 54.34376 98.212248 
L 54.348349 98.217257 
L 54.348349 98.227691 
" clip-path="url(#p4c18534279)" style="fill: none; stroke: #000000; stroke-width: 2"/>
    <path d="M 102.831754 97.395057 
L 102.858669 97.480453 
L 102.920519 97.518243 
L 103.002561 97.587076 
L 102.995239 97.687189 
L 103.064152 97.772178 
L 103.088168 97.947708 
L 103.04226 98.204932 
L 103.149415 98.407911 
L 103.205203 98.509264 
L 103.251071 98.656285 
L 103.387341 98.868488 
L 103.472319 98.979285 
L 103.395571 99.014389 
L 103.205171 99.054358 
L 103.117202 99.043328 
L 103.032755 99.057438 
L 102.96275 99.146883 
L 102.921532 99.120663 
L 102.961246 99.059433 
L 103.013936 98.986107 
L 103.012301 98.902829 
L 102.91727 98.850026 
L 102.810429 98.771926 
L 102.669501 98.709462 
L 102.671049 98.65961 
L 102.576054 98.602598 
L 102.466207 98.615853 
L 102.369203 98.625437 
L 102.375424 98.559025 
L 102.423837 98.489752 
L 102.353133 98.338176 
L 102.252961 98.301551 
L 102.199184 98.13349 
L 102.201722 98.046043 
L 102.149844 97.952921 
L 102.080647 97.87163 
L 102.071082 97.775806 
L 102.054158 97.633538 
L 101.993917 97.540282 
L 101.855866 97.545757 
L 101.78066 97.441481 
L 101.702282 97.448723 
L 101.671563 97.339225 
L 101.671926 97.193825 
L 101.704342 97.11224 
L 101.700322 96.978898 
L 101.725681 96.773457 
L 101.745275 96.700004 
L 101.762258 96.669967 
L 101.80811 96.688034 
L 101.8741 96.784374 
L 101.970386 97.069498 
L 102.121937 97.20708 
L 102.369145 97.243458 
L 102.6341 97.318226 
L 102.831754 97.395057 
" clip-path="url(#p4c18534279)" style="fill: none; stroke: #000000; stroke-width: 2"/>
    <path d="M 88.092794 97.870967 
L 88.08967 98.011019 
L 88.011836 98.060269 
L 87.928692 98.007908 
L 87.85345 98.145044 
L 87.836596 98.238371 
L 87.849787 98.551464 
L 87.769193 98.6172 
L 87.815804 98.878267 
L 87.887706 98.982841 
L 87.948355 99.057378 
L 87.894866 99.123305 
L 87.774895 99.109846 
L 87.69044 99.11407 
L 87.663648 99.175652 
L 87.643491 99.234403 
L 87.602057 99.31239 
L 87.628148 99.401665 
L 87.646595 99.557823 
L 87.672726 99.621062 
L 87.770133 99.680734 
L 87.845031 99.736643 
L 87.897393 99.803655 
L 87.931055 99.844611 
L 88.00229 99.85592 
L 87.983485 99.878177 
L 87.942196 99.89295 
L 87.957139 99.918997 
L 88.054333 100.049293 
L 88.086993 100.21317 
L 88.30401 100.436778 
L 88.374999 100.533598 
L 88.382161 100.6637 
L 88.378245 100.726873 
L 88.415644 100.760418 
L 88.453144 100.753085 
L 88.523866 100.935382 
L 88.422247 101.094926 
L 88.373358 101.165411 
L 88.294515 101.243234 
L 88.264394 101.339717 
L 88.290663 101.40278 
L 88.328022 101.514099 
L 88.637933 101.6753 
L 88.705052 101.77954 
L 88.876632 102.006915 
L 88.944051 102.003421 
L 88.943698 102.118556 
L 89.003412 102.177975 
L 89.070286 102.326402 
L 89.047454 102.460651 
L 88.968905 102.441714 
L 88.752054 102.348522 
L 88.647401 102.27038 
L 88.670048 102.218244 
L 88.618192 102.017362 
L 88.540419 101.859936 
L 88.416815 101.730443 
L 88.319857 101.65558 
L 88.233391 101.659459 
L 88.114212 101.410074 
L 87.994314 101.372684 
L 87.953251 101.301971 
L 88.028429 101.224063 
L 88.047395 101.123754 
L 88.107428 101.109016 
L 88.182364 101.127767 
L 88.249817 101.124216 
L 88.309999 101.027744 
L 88.332961 100.845686 
L 88.299659 100.674636 
L 88.236374 100.496077 
L 88.146645 100.380615 
L 88.034383 100.257648 
L 87.959545 100.175683 
L 87.829301 100.067372 
L 87.667261 99.98318 
L 87.600782 99.955408 
L 87.499591 99.921763 
L 87.375857 99.910386 
L 87.299026 99.915147 
L 87.255948 99.925078 
L 87.195943 99.965859 
L 87.158335 100.040101 
L 87.158114 100.110691 
L 87.187636 100.296577 
L 87.172615 100.318845 
L 87.086501 100.229515 
L 87.049329 100.077074 
L 86.748013 99.880087 
L 86.775812 99.768162 
L 86.772123 99.723554 
L 86.790927 99.697564 
L 86.884861 99.671724 
L 87.024425 99.394592 
L 87.192096 98.933397 
L 87.671717 97.567248 
L 87.81792 97.102442 
L 88.076541 96.145484 
L 88.252306 95.412064 
L 88.271344 95.131388 
L 88.315027 95.027496 
L 88.432688 95.021622 
L 88.480633 95.486417 
L 88.41812 95.681852 
L 88.262245 96.07867 
L 88.144111 96.304423 
L 88.018772 96.994126 
L 87.925435 97.28696 
L 88.004992 97.445059 
L 88.038058 97.54951 
L 88.015504 97.686794 
L 88.06803 97.780284 
L 88.092794 97.870967 
" clip-path="url(#p4c18534279)" style="fill: none; stroke: #000000; stroke-width: 2"/>
    <path d="M 101.700817 95.037676 
L 101.641235 95.08815 
L 101.555766 95.081644 
L 101.547465 95.017245 
L 101.508153 94.89908 
L 101.519405 94.794718 
L 101.688102 94.610378 
L 101.781994 94.609092 
L 101.859816 94.599288 
L 101.914631 94.540502 
L 101.925532 94.585114 
L 101.883076 94.640228 
L 101.78961 94.782884 
L 101.759485 94.962851 
L 101.700817 95.037676 
" clip-path="url(#p4c18534279)" style="fill: none; stroke: #000000; stroke-width: 2"/>
    <path d="M 118.904864 93.20247 
L 119.385137 93.374429 
L 119.505205 93.432027 
L 119.688749 93.705827 
L 119.808817 93.794728 
L 119.645157 93.906168 
L 119.338486 93.767181 
L 119.001225 93.554736 
L 118.744264 93.444131 
L 118.676199 93.436618 
L 118.59131 93.394463 
L 118.519423 93.374429 
L 118.43721 93.365247 
L 117.859048 93.37109 
L 117.72789 93.311405 
L 117.67971 93.164071 
L 118.733174 93.168245 
L 118.904864 93.20247 
" clip-path="url(#p4c18534279)" style="fill: none; stroke: #000000; stroke-width: 2"/>
    <path d="M 88.506461 94.836735 
L 88.456854 94.854395 
L 88.38045 94.787489 
L 88.313108 94.698378 
L 88.34959 94.538384 
L 88.431118 94.387416 
L 88.504172 94.049724 
L 88.545974 93.605252 
L 88.619258 93.205243 
L 88.642355 93.014062 
L 88.611424 92.782624 
L 88.643158 92.733783 
L 88.688202 92.7651 
L 88.678761 92.907429 
L 88.691791 93.080961 
L 88.673035 93.32549 
L 88.663448 93.521108 
L 88.608742 93.729917 
L 88.580867 94.023258 
L 88.629832 94.236778 
L 88.615826 94.405688 
L 88.547896 94.525559 
L 88.493446 94.658815 
L 88.506461 94.836735 
" clip-path="url(#p4c18534279)" style="fill: none; stroke: #000000; stroke-width: 2"/>
    <path d="M 101.327276 91.613454 
L 101.213515 91.656088 
L 101.019986 91.549107 
L 100.835367 91.138305 
L 100.853893 90.825303 
L 100.963068 90.616365 
L 101.052052 90.462168 
L 101.137191 90.436932 
L 101.16924 90.613029 
L 101.243872 90.633644 
L 101.200442 90.816555 
L 101.266888 91.10407 
L 101.327276 91.613454 
" clip-path="url(#p4c18534279)" style="fill: none; stroke: #000000; stroke-width: 2"/>
    <path d="M 98.658716 90.426512 
L 98.713888 90.53079 
L 98.787541 90.595511 
L 98.827194 90.630878 
L 98.886741 90.786609 
L 98.855094 90.882859 
L 98.800106 90.984205 
L 98.739948 91.062661 
L 98.676499 91.049551 
L 98.592808 90.927377 
L 98.55958 90.869378 
L 98.573669 90.77836 
L 98.502342 90.62799 
L 98.452024 90.558148 
L 98.448247 90.483821 
L 98.598699 90.499195 
L 98.60025 90.442139 
L 98.658716 90.426512 
" clip-path="url(#p4c18534279)" style="fill: none; stroke: #000000; stroke-width: 2"/>
    <path d="M 96.723729 89.883183 
L 96.696629 89.894236 
L 96.630218 89.813551 
L 96.578687 89.733232 
L 96.584264 89.633813 
L 96.592968 89.528627 
L 96.562412 89.442987 
L 96.581116 89.411246 
L 96.613495 89.426674 
L 96.628775 89.526575 
L 96.681767 89.551291 
L 96.659699 89.597594 
L 96.697029 89.651208 
L 96.708249 89.677834 
L 96.67771 89.706366 
L 96.687553 89.785666 
L 96.722131 89.830434 
L 96.723729 89.883183 
" clip-path="url(#p4c18534279)" style="fill: none; stroke: #000000; stroke-width: 2"/>
    <path d="M 98.478137 86.754274 
L 98.339534 86.94104 
L 98.237411 87.196605 
L 98.244852 87.504699 
L 98.349971 87.521309 
L 98.342062 87.633908 
L 98.393802 87.668154 
L 98.39081 87.776165 
L 98.374608 87.841558 
L 98.328325 87.783943 
L 98.26158 87.772815 
L 98.192375 87.67704 
L 98.12624 87.642471 
L 98.057651 87.523237 
L 97.952247 87.525202 
L 97.883759 87.570763 
L 97.887106 87.631599 
L 97.874744 87.734636 
L 97.77978 87.882553 
L 97.681337 87.974323 
L 97.561164 88.177724 
L 97.383466 88.379968 
L 97.308777 88.490779 
L 97.33629 88.542874 
L 97.284241 88.701233 
L 97.304078 88.856707 
L 97.234435 88.958215 
L 97.148182 88.965209 
L 97.087944 89.076348 
L 97.101598 89.283626 
L 97.121414 89.439149 
L 97.081478 89.50392 
L 97.003481 89.379794 
L 96.941748 89.364156 
L 96.843215 89.300231 
L 96.849033 89.2257 
L 96.814926 89.102393 
L 96.829407 89.01294 
L 96.955989 88.807088 
L 96.946908 88.678383 
L 97.035452 88.342791 
L 97.024331 88.220564 
L 97.118831 88.082197 
L 97.160403 87.956288 
L 97.240211 87.799522 
L 97.366323 87.712855 
L 97.417299 87.618189 
L 97.39112 87.463084 
L 97.427096 87.250088 
L 97.357512 87.129809 
L 97.353665 87.046363 
L 97.487641 87.02563 
L 97.750367 86.948888 
L 97.729157 86.841606 
L 97.809501 86.790217 
L 97.880197 86.863303 
L 98.036042 86.938913 
L 98.26246 86.873532 
L 98.307327 86.785469 
L 98.478137 86.754274 
" clip-path="url(#p4c18534279)" style="fill: none; stroke: #000000; stroke-width: 2"/>
    <path d="M 96.363218 86.415105 
L 96.318278 86.433069 
L 96.344164 86.398265 
L 96.373011 86.358127 
L 96.377225 86.315009 
L 96.31473 86.270206 
L 96.314334 86.200081 
L 96.421332 86.09205 
L 96.484112 86.093232 
L 96.529527 86.105748 
L 96.541157 86.204505 
L 96.522905 86.278022 
L 96.497231 86.310271 
L 96.540499 86.349224 
L 96.524657 86.413845 
L 96.432777 86.414134 
L 96.363218 86.415105 
" clip-path="url(#p4c18534279)" style="fill: none; stroke: #000000; stroke-width: 2"/>
    <path d="M 78.30118 80.13439 
L 78.379186 80.168615 
L 78.410542 80.13439 
L 78.45681 80.091817 
L 78.519138 80.075122 
L 78.573819 80.100999 
L 78.682034 80.26169 
L 78.830398 80.474135 
L 78.907639 80.592252 
L 78.915669 80.668632 
L 78.837663 80.668632 
L 78.76004 80.609365 
L 78.658708 80.54175 
L 78.410542 80.439492 
L 78.130638 80.354765 
L 77.897384 80.295497 
L 77.788788 80.26169 
L 77.726842 80.219117 
L 77.788788 80.126042 
L 77.913062 80.058427 
L 78.061044 79.973282 
L 78.145933 79.989977 
L 78.231969 80.024202 
L 78.309593 80.075122 
L 78.30118 80.13439 
" clip-path="url(#p4c18534279)" style="fill: none; stroke: #000000; stroke-width: 2"/>
    <path d="M 108.987623 77.016379 
L 108.915142 77.016685 
L 108.702128 76.730222 
L 108.485702 76.574997 
L 108.229661 76.44528 
L 108.072589 76.416815 
L 107.987661 76.341079 
L 108.059927 76.317228 
L 108.241308 76.374868 
L 108.543964 76.519886 
L 108.804602 76.70043 
L 108.987623 77.016379 
" clip-path="url(#p4c18534279)" style="fill: none; stroke: #000000; stroke-width: 2"/>
    <path d="M 89.119632 75.246892 
L 88.987578 75.39775 
L 88.788645 75.356953 
L 88.74379 75.143653 
L 88.698849 74.930438 
L 88.587877 74.803327 
L 88.763814 74.566759 
L 89.007671 74.75659 
L 89.185169 75.011254 
L 89.119632 75.246892 
" clip-path="url(#p4c18534279)" style="fill: none; stroke: #000000; stroke-width: 2"/>
    <path d="M 103.418464 74.152217 
L 103.383855 74.316697 
L 102.874306 74.128178 
L 102.727596 73.971361 
L 102.705223 73.555273 
L 102.72396 73.309855 
L 102.790495 73.071533 
L 102.831779 72.956261 
L 102.781563 73.355345 
L 102.822832 73.829723 
L 103.000066 74.015551 
L 103.418464 74.152217 
" clip-path="url(#p4c18534279)" style="fill: none; stroke: #000000; stroke-width: 2"/>
    <path d="M 90.929634 72.821324 
L 90.745609 72.842069 
L 90.622833 72.83283 
L 90.509882 72.744406 
L 90.54 72.625536 
L 90.744403 72.584904 
L 90.89814 72.653352 
L 90.959955 72.742044 
L 90.929634 72.821324 
" clip-path="url(#p4c18534279)" style="fill: none; stroke: #000000; stroke-width: 2"/>
    <path d="M 59.87134 68.501338 
L 59.792415 68.529291 
L 59.741299 68.507891 
L 59.705579 68.322575 
L 59.596836 68.192502 
L 59.449471 68.161033 
L 59.347234 68.118279 
L 59.369112 68.041685 
L 59.499582 68.07873 
L 59.567556 68.089058 
L 59.681636 68.186315 
L 59.806904 68.272605 
L 59.892303 68.326475 
L 59.921417 68.413582 
L 59.87134 68.501338 
" clip-path="url(#p4c18534279)" style="fill: none; stroke: #000000; stroke-width: 2"/>
    <path d="M 95.500406 67.295903 
L 95.57229 67.454007 
L 95.418508 67.414597 
L 95.356883 67.296026 
L 95.295268 67.187433 
L 95.366927 67.098292 
L 95.500406 67.295903 
" clip-path="url(#p4c18534279)" style="fill: none; stroke: #000000; stroke-width: 2"/>
    <path d="M 55.837863 63.722683 
L 55.889941 63.798463 
L 55.974537 63.753808 
L 56.082478 63.758001 
L 56.111697 63.823142 
L 56.00951 63.824323 
L 55.976281 63.89021 
L 55.85182 63.924413 
L 55.754402 63.854638 
L 55.742271 63.794766 
L 55.769871 63.734417 
L 55.837863 63.722683 
" clip-path="url(#p4c18534279)" style="fill: none; stroke: #000000; stroke-width: 2"/>
    <path d="M 59.698014 66.000045 
L 59.651678 66.085651 
L 59.70639 66.255566 
L 59.648695 66.398036 
L 59.73296 66.562178 
L 59.698098 66.619282 
L 59.710633 66.693092 
L 59.63952 66.665192 
L 59.589668 66.628064 
L 59.479437 66.586843 
L 59.368094 66.650387 
L 59.274163 66.685495 
L 59.220262 66.606136 
L 59.096731 66.630171 
L 59.031219 66.562597 
L 58.957448 66.25652 
L 58.78437 66.078795 
L 58.565578 66.004646 
L 58.395253 66.085817 
L 58.254003 66.109914 
L 58.160879 66.247208 
L 58.053351 66.128966 
L 58.108752 65.781838 
L 58.279337 65.695086 
L 58.846316 65.032013 
L 59.165032 64.579805 
L 59.02032 64.268891 
L 58.951733 63.911531 
L 59.002152 63.617355 
L 59.08152 63.290351 
L 59.209759 63.17839 
L 59.398919 63.095829 
L 59.613861 63.274752 
L 59.585813 63.474544 
L 59.687717 63.747573 
L 59.78363 63.808193 
L 59.766376 63.910894 
L 59.833852 64.051392 
L 59.889021 64.295305 
L 59.794625 64.569977 
L 59.799241 64.794814 
L 59.925359 64.997962 
L 59.956916 65.225028 
L 59.917254 65.430063 
L 59.953731 65.531968 
L 59.889265 65.646391 
L 59.770409 65.69917 
L 59.759866 65.778402 
L 59.672299 65.886951 
L 59.698014 66.000045 
" clip-path="url(#p4c18534279)" style="fill: none; stroke: #000000; stroke-width: 2"/>
    <path d="M 82.44916 61.006545 
L 82.337579 61.06995 
L 82.271089 61.016155 
L 82.246094 60.965317 
L 82.194621 60.956212 
L 82.111968 60.71978 
L 81.993162 60.632465 
L 81.81695 60.557068 
L 81.691752 60.410541 
L 81.455357 60.377609 
L 81.479511 60.307093 
L 81.41711 60.251474 
L 81.364777 60.171317 
L 81.298501 60.101305 
L 81.21129 60.024575 
L 81.521526 60.084432 
L 82.04591 60.446763 
L 82.174745 60.586813 
L 82.252249 60.640941 
L 82.295322 60.715848 
L 82.435075 60.792567 
L 82.467358 60.87433 
L 82.539794 60.913027 
L 82.44916 61.006545 
" clip-path="url(#p4c18534279)" style="fill: none; stroke: #000000; stroke-width: 2"/>
    <path d="M 84.371822 59.448993 
L 84.461039 59.502945 
L 84.472638 59.616724 
L 84.522641 59.669947 
L 84.47962 59.776585 
L 84.481885 59.933345 
L 84.404821 60.080044 
L 84.234563 60.119914 
L 84.022024 60.071895 
L 83.931096 60.109321 
L 83.963182 60.031904 
L 83.856916 59.742107 
L 83.848392 59.531527 
L 83.965776 59.50884 
L 84.03311 59.465172 
L 84.254903 59.499355 
L 84.371822 59.448993 
" clip-path="url(#p4c18534279)" style="fill: none; stroke: #000000; stroke-width: 2"/>
    <path d="M 75.592853 56.312654 
L 75.589352 56.349797 
L 75.501805 56.346154 
L 75.450141 56.311776 
L 75.469916 56.265445 
L 75.431287 56.221859 
L 75.379724 56.171989 
L 75.399523 56.122556 
L 75.42566 56.094853 
L 75.386906 56.069832 
L 75.371172 55.998515 
L 75.374835 55.936616 
L 75.316642 55.908388 
L 75.300906 55.83709 
L 75.259176 55.771837 
L 75.337229 55.738315 
L 75.402443 55.744036 
L 75.470043 55.773043 
L 75.476246 55.816365 
L 75.44041 55.868055 
L 75.430466 55.911026 
L 75.475436 55.945964 
L 75.462068 55.992718 
L 75.458221 56.076482 
L 75.512923 56.141851 
L 75.502792 56.200619 
L 75.544812 56.222558 
L 75.547634 56.284503 
L 75.592853 56.312654 
" clip-path="url(#p4c18534279)" style="fill: none; stroke: #000000; stroke-width: 2"/>
    <path d="M 31.103839 57.589902 
L 30.863655 57.902858 
L 30.684981 57.886098 
L 30.57555 57.958657 
L 30.507941 57.960917 
L 30.512004 58.071689 
L 30.421692 57.982293 
L 30.455922 57.860988 
L 30.560829 57.820514 
L 30.474748 57.583079 
L 30.430338 57.427438 
L 30.462559 57.25074 
L 30.40677 57.049263 
L 30.256317 56.906399 
L 30.36577 56.738867 
L 30.278039 56.456339 
L 30.185788 56.308604 
L 30.075079 56.193799 
L 29.884852 56.031261 
L 29.859602 55.860351 
L 29.804971 55.710091 
L 29.76 55.545086 
L 29.792151 55.368121 
L 29.873015 55.18526 
L 30.061427 55.043578 
L 30.319661 54.958823 
L 30.440925 54.809036 
L 30.653217 54.774117 
L 30.821061 54.862646 
L 30.671762 55.0248 
L 30.559825 55.160903 
L 30.536493 55.319024 
L 30.602872 55.526175 
L 30.714727 55.712738 
L 30.862565 55.801082 
L 31.068267 56.085466 
L 31.153409 56.562842 
L 31.073071 56.759853 
L 31.145555 57.135593 
L 31.103839 57.589902 
" clip-path="url(#p4c18534279)" style="fill: none; stroke: #000000; stroke-width: 2"/>
    <path d="M 86.964404 54.405793 
L 87.005089 54.57337 
L 87.113199 54.68914 
L 87.13358 54.740497 
L 87.099881 54.82435 
L 87.08667 54.920717 
L 87.032844 55.023788 
L 87.087388 55.151967 
L 87.047307 55.306353 
L 87.399091 55.736653 
L 87.772234 56.499762 
L 87.603673 56.854491 
L 87.590933 57.18888 
L 87.463829 57.703766 
L 87.322402 57.852008 
L 87.376808 57.986968 
L 87.222193 58.186611 
L 87.175462 58.386049 
L 87.061283 58.527634 
L 87.014583 58.71413 
L 87.049031 58.933182 
L 87.15686 58.971783 
L 87.231118 59.08751 
L 87.137088 59.14559 
L 87.029359 59.094304 
L 86.894083 59.149499 
L 86.700418 59.320252 
L 86.545219 59.152416 
L 86.363721 59.127088 
L 86.23623 59.198437 
L 86.161897 59.057087 
L 86.020568 59.038568 
L 85.858812 58.845677 
L 85.730991 58.768732 
L 85.609695 58.801724 
L 85.515483 58.750478 
L 85.334133 58.76385 
L 85.226185 58.712905 
L 85.219801 58.57099 
L 84.969519 58.533931 
L 84.948894 58.431084 
L 84.706657 58.309697 
L 84.455993 58.175783 
L 84.327511 58.060499 
L 84.226343 58.067383 
L 84.131414 57.997012 
L 84.386986 57.82857 
L 84.666399 57.653603 
L 84.810863 57.453278 
L 84.871279 57.417384 
L 84.913341 57.329734 
L 84.951579 57.224973 
L 84.997848 57.134819 
L 85.044116 57.009606 
L 85.008172 56.913192 
L 84.910282 56.816778 
L 84.878162 56.388549 
L 84.90837 55.94279 
L 84.986376 55.512057 
L 85.096885 55.129322 
L 85.157301 54.989918 
L 85.243337 54.853436 
L 85.353464 54.733231 
L 85.48768 54.645582 
L 85.641985 54.775891 
L 85.837811 54.775367 
L 86.03987 54.614097 
L 86.201527 54.485132 
L 86.38371 54.452929 
L 86.640193 54.45881 
L 86.795291 54.432955 
L 86.910238 54.328601 
L 86.998018 54.231452 
L 87.126338 54.186082 
L 87.099467 54.276305 
L 86.964404 54.405793 
" clip-path="url(#p4c18534279)" style="fill: none; stroke: #000000; stroke-width: 2"/>
    <path d="M 75.519061 51.229394 
L 75.732399 51.260519 
L 75.859191 51.396184 
L 76.146031 51.666372 
L 76.272306 51.93455 
L 76.499499 52.007118 
L 76.505761 52.090711 
L 76.592408 52.17901 
L 76.585646 52.25533 
L 76.705915 52.393561 
L 76.81927 52.595772 
L 76.799305 52.684456 
L 76.925972 52.779005 
L 76.81957 52.880368 
L 76.706452 53.013501 
L 76.679941 53.19072 
L 76.71333 53.285511 
L 76.733244 53.538647 
L 76.965271 53.684122 
L 77.331833 53.740551 
L 77.418057 53.841772 
L 77.531119 53.841738 
L 77.611197 53.753111 
L 77.730788 53.759445 
L 77.810243 53.791127 
L 77.976153 53.75956 
L 78.135278 53.753335 
L 78.274607 53.791368 
L 78.495517 53.747032 
L 78.629296 53.886284 
L 78.532631 54.057164 
L 78.540946 54.278544 
L 78.602153 54.399012 
L 78.595297 54.601508 
L 78.594913 54.721724 
L 78.655164 54.778865 
L 78.608523 54.886422 
L 78.581667 55.107919 
L 78.574876 55.392799 
L 78.614619 55.487803 
L 78.727601 55.690637 
L 78.761076 55.760495 
L 78.734008 55.861522 
L 78.820016 56.038825 
L 78.914522 56.052978 
L 79.039755 56.09657 
L 79.106293 56.141119 
L 79.253668 56.173823 
L 79.116912 56.449826 
L 79.138297 56.577671 
L 79.134246 56.87777 
L 79.054417 56.858492 
L 78.937229 56.715133 
L 78.830873 56.676745 
L 78.717271 56.536541 
L 78.420478 56.423616 
L 78.339101 56.238407 
L 78.180541 56.150205 
L 78.056392 56.107474 
L 77.92352 56.005965 
L 77.855263 55.87768 
L 77.786786 55.818834 
L 77.742219 55.663289 
L 77.621774 55.516105 
L 77.462404 55.351609 
L 77.387616 55.230247 
L 77.275862 55.21824 
L 77.195561 55.122999 
L 77.064754 55.067519 
L 76.886542 54.967202 
L 76.810449 54.794464 
L 76.574217 54.69539 
L 76.402026 54.54423 
L 76.162403 54.228329 
L 76.195276 54.133519 
L 76.128749 53.982077 
L 75.982943 53.849383 
L 75.843467 53.856022 
L 75.684091 53.862424 
L 75.551111 53.793112 
L 75.484509 53.66057 
L 75.470985 53.471231 
L 75.404464 53.370418 
L 75.284581 53.288218 
L 75.217768 53.136622 
L 75.144343 53.079571 
L 75.103798 52.958912 
L 74.963835 52.839031 
L 74.944057 52.757441 
L 74.837806 52.638229 
L 74.676925 52.517106 
L 74.636373 52.270619 
L 74.683538 52.032468 
L 74.822189 51.81015 
L 74.90725 51.511051 
L 74.866308 51.338788 
L 74.845701 51.180038 
L 74.952293 51.135667 
L 74.965866 51.199206 
L 75.052697 51.249894 
L 75.179128 51.198717 
L 75.292267 51.147586 
L 75.292061 51.077678 
L 75.412072 51.083742 
L 75.412372 51.204329 
L 75.519061 51.229394 
" clip-path="url(#p4c18534279)" style="fill: none; stroke: #000000; stroke-width: 2"/>
    <path d="M 67.105629 46.8695 
L 66.990111 46.885252 
L 66.849676 46.807421 
L 66.907288 46.705922 
L 66.882338 46.596729 
L 67.03921 46.604342 
L 67.055975 46.775954 
L 67.105629 46.8695 
" clip-path="url(#p4c18534279)" style="fill: none; stroke: #000000; stroke-width: 2"/>
    <path d="M 51.041708 41.510946 
L 50.942202 41.516639 
L 50.866988 41.484503 
L 50.866268 41.418808 
L 50.945519 41.371097 
L 50.990615 41.380089 
L 51.041102 41.454626 
L 51.041708 41.510946 
" clip-path="url(#p4c18534279)" style="fill: none; stroke: #000000; stroke-width: 2"/>
    <path d="M 64.523551 28.808681 
L 64.681858 29.128392 
L 64.556054 29.128392 
L 64.444398 29.080811 
L 64.355685 29.004848 
L 64.296798 28.918034 
L 64.091076 29.072464 
L 63.649424 28.86294 
L 63.314457 28.442224 
L 63.428025 27.966414 
L 63.718253 28.020256 
L 64.142698 28.3696 
L 64.523551 28.808681 
" clip-path="url(#p4c18534279)" style="fill: none; stroke: #000000; stroke-width: 2"/>
    <path d="M 40.374249 21.954805 
L 40.337742 21.958651 
L 40.304872 21.842796 
L 40.292434 21.768029 
L 40.263891 21.730728 
L 40.239183 21.629804 
L 40.296076 21.652079 
L 40.320581 21.693148 
L 40.349356 21.797786 
L 40.373964 21.872519 
L 40.374249 21.954805 
" clip-path="url(#p4c18534279)" style="fill: none; stroke: #000000; stroke-width: 2"/>
    <path d="M 78.867109 26.140581 
L 98.948956 32.847544 
L 125.1815 32.844894 
L 125.181014 32.772805 
L 125.178586 28.225872 
L 141.282934 28.342886 
L 141.548794 28.458573 
L 141.964004 28.423588 
L 142.313412 28.552395 
L 142.881595 29.2065 
L 144.028643 31.307694 
L 145.560307 32.052971 
L 145.950508 32.131951 
L 146.542243 32.589401 
L 146.671177 32.854965 
L 147.29205 33.245626 
L 148.173461 34.357181 
L 149.839158 35.470856 
L 150.404426 36.288753 
L 150.72494 36.64973 
L 151.487372 37.204182 
L 151.97397 37.738491 
L 152.250776 37.80581 
L 153.238054 38.150355 
L 153.466784 38.230395 
L 153.652779 38.412739 
L 153.86354 38.512392 
L 153.95241 38.632718 
L 154.574497 39.180279 
L 155.312648 39.516873 
L 155.470962 39.893222 
L 155.55449 40.094118 
L 156.066825 40.311446 
L 156.482521 40.903003 
L 156.522828 41.221045 
L 156.711736 41.423531 
L 156.666088 41.72196 
L 156.779238 41.959431 
L 156.849654 42.347442 
L 157.131317 42.762486 
L 157.199305 42.907725 
L 157.37753 43.015329 
L 157.815564 43.79559 
L 158.068575 43.958321 
L 158.412156 44.71367 
L 158.356066 45.321129 
L 158.196781 45.893603 
L 158.220091 46.138495 
L 158.621946 47.40271 
L 158.798228 47.609967 
L 158.966498 48.17343 
L 159.430756 48.640686 
L 159.680854 49.369796 
L 159.934836 50.006939 
L 160.541626 50.491157 
L 160.675416 50.713521 
L 160.74486 50.740555 
L 161.777058 51.258962 
L 162.279195 51.31727 
L 162.655313 51.661285 
L 162.79493 51.747156 
L 162.961985 52.113699 
L 163.476263 52.609578 
L 163.799205 52.762503 
L 164.251322 53.24089 
L 164.609957 53.432775 
L 166.066835 53.832447 
L 166.911581 53.974506 
L 166.956745 54.076809 
L 166.944118 54.360926 
L 167.144196 54.431425 
L 167.861709 54.938171 
L 169.154202 55.332543 
L 169.209078 55.418149 
L 169.690333 55.876924 
L 170.79926 56.412559 
L 170.967772 56.295678 
L 171.13507 56.443568 
L 171.274202 56.398777 
L 171.259916 56.451421 
L 171.215441 56.61531 
L 171.353602 56.69429 
L 171.915471 56.682629 
L 172.79664 56.871333 
L 173.033625 56.754718 
L 173.505654 55.780981 
L 174.038628 55.418149 
L 174.471564 54.740456 
L 174.729917 54.767489 
L 175.156296 54.458989 
L 175.514445 54.368082 
L 175.132743 53.886515 
L 175.504247 53.014021 
L 175.712824 52.961014 
L 175.709424 52.917813 
L 175.648235 52.712677 
L 175.738076 52.454533 
L 175.699712 52.08269 
L 176.310386 50.773154 
L 176.257939 50.643022 
L 176.430093 50.529057 
L 177.231619 49.081969 
L 177.746868 49.053345 
L 178.29514 48.827006 
L 178.448355 48.944681 
L 178.742401 48.66931 
L 179.786983 48.709595 
L 180.045821 48.292166 
L 180.171355 47.853269 
L 180.39183 47.78807 
L 180.568112 47.549009 
L 180.868714 47.71121 
L 180.989392 47.799202 
L 181.157662 47.758916 
L 181.331516 48.008579 
L 181.670726 48.039323 
L 182.557236 48.490942 
L 183.988376 48.368496 
L 184.335112 48.531227 
L 185.408103 48.390229 
L 185.515669 48.55508 
L 187.04102 48.762337 
L 187.673548 48.651288 
L 187.815837 48.351534 
L 187.91539 48.328211 
L 187.996732 48.548719 
L 187.880425 48.809513 
L 188.07856 48.86199 
L 188.636544 48.626109 
L 188.790002 48.809513 
L 189.175346 48.733713 
L 189.135768 48.86358 
L 189.226823 49.120664 
L 189.822443 50.006939 
L 190.152912 50.056236 
L 190.153883 50.624205 
L 190.550396 50.357315 
L 190.783982 50.331607 
L 190.924086 50.458558 
L 190.981875 51.265853 
L 191.265238 51.360471 
L 191.445162 51.576474 
L 191.715656 51.716412 
L 192.627176 51.999469 
L 193.100661 52.961014 
L 194.004411 53.451063 
L 194.261307 53.737565 
L 194.897963 54.075484 
L 195.21799 54.578255 
L 195.142718 54.797438 
L 195.214105 54.936051 
L 196.169332 55.665426 
L 196.250431 56.258838 
L 196.469448 56.879284 
L 196.451966 57.162871 
L 196.867662 57.951614 
L 197.085708 58.133163 
L 197.058513 58.334059 
L 197.446042 58.617911 
L 197.501889 58.719154 
L 197.855911 59.938843 
L 198.198762 60.372439 
L 198.186622 60.549747 
L 198.647966 60.896147 
L 198.641653 61.256594 
L 198.958767 61.592923 
L 199.347754 61.740547 
L 199.026755 61.956816 
L 199.106397 62.152411 
L 199.219063 62.272207 
L 199.347754 63.007412 
L 199.761992 63.579887 
L 199.794529 64.132219 
L 200.117471 64.414746 
L 200.472463 64.571381 
L 200.60164 64.91089 
L 200.755098 64.939514 
L 201.848727 65.561285 
L 202.083285 66.13694 
L 202.252768 66.391638 
L 202.309586 66.63176 
L 202.599505 67.053429 
L 203.053565 67.224642 
L 202.946485 67.375181 
L 203.349797 67.869206 
L 203.518552 67.982905 
L 203.432111 68.3627 
L 203.677837 68.657418 
L 203.711831 68.991362 
L 204.879033 70.032417 
L 204.982229 70.182692 
L 205.195419 70.471845 
L 205.587076 70.524852 
L 205.823576 70.739795 
L 206.137047 70.602772 
L 206.230287 70.647563 
L 206.399285 70.889539 
L 206.749179 71.029477 
L 207.010688 71.348049 
L 207.043711 72.150043 
L 207.262485 72.19934 
L 207.326102 72.476036 
L 207.306677 72.979071 
L 206.877627 74.040799 
L 207.23869 74.292582 
L 207.717517 75.104118 
L 207.62889 76.130862 
L 207.623063 76.314266 
L 207.438039 76.649269 
L 207.867333 77.080745 
L 208.085864 77.184639 
L 208.23568 77.707817 
L 208.713779 78.140884 
L 209.443917 79.007016 
L 210.452562 82.040071 
L 210.809255 82.238317 
L 210.896182 82.774747 
L 210.776961 83.151626 
L 211.153563 83.339271 
L 211.561004 83.353582 
L 211.738986 83.451115 
L 212.126272 83.392808 
L 212.290414 83.610666 
L 212.435859 83.467547 
L 212.782353 83.71774 
L 213.087812 83.733642 
L 213.258752 83.738413 
L 213.317513 83.673744 
L 213.493795 83.710849 
L 213.695573 83.712969 
L 213.836647 83.883651 
L 214.258656 84.208054 
L 214.221263 84.380326 
L 214.583054 84.422732 
L 214.676537 84.513904 
L 214.575284 84.704728 
L 214.734569 84.737063 
L 215.154879 85.010578 
L 215.708735 84.800671 
L 216.735348 85.360954 
L 216.884193 85.173309 
L 217.703686 85.500892 
L 217.629143 85.813103 
L 218.044839 85.921237 
L 218.351269 86.347942 
L 219.435429 86.821824 
L 219.762741 86.837726 
L 220.391626 86.763517 
L 220.55941 87.058235 
L 221.18174 86.831365 
L 221.722727 86.908225 
L 223.035131 86.837196 
L 223.220155 86.889673 
L 223.239094 87.047634 
L 223.364628 87.084208 
L 224.543971 87.260191 
L 224.810822 87.532117 
L 224.986862 87.835846 
L 225.260755 87.955112 
L 226.00182 88.560451 
L 226.4248 88.671235 
L 226.57413 88.979735 
L 226.81403 88.977085 
L 226.817915 88.915067 
L 226.907998 88.868951 
L 227.1326 89.09211 
L 227.322966 89.006769 
L 227.27246 88.32775 
L 227.485407 88.17509 
L 227.649549 88.290115 
L 228.042178 88.061656 
L 228.068887 87.894684 
L 228.193936 87.86553 
L 229.263212 87.841465 
L 229.263173 87.841677 
L 228.998182 89.249073 
L 229.093395 89.649755 
L 229.026478 89.855105 
L 228.932795 90.525412 
L 228.821521 90.701963 
L 228.457875 91.753753 
L 227.569983 93.748399 
L 226.258793 95.908326 
L 224.450123 102.714496 
L 223.837163 107.922529 
L 223.680769 110.176365 
L 223.514815 110.242728 
L 222.84641 110.176365 
L 223.309093 110.26151 
L 223.440633 110.375037 
L 223.488048 110.634646 
L 223.42419 111.576249 
L 223.598174 110.61962 
L 223.680769 110.315769 
L 223.784777 110.679722 
L 223.349625 115.595591 
L 223.59588 118.549787 
L 223.488048 119.809014 
L 223.487283 119.050639 
L 223.387864 119.165835 
L 223.031483 120.378734 
L 222.687339 120.789433 
L 222.648336 120.998956 
L 222.333252 120.935932 
L 222.514502 121.150047 
L 222.53668 121.355396 
L 222.199036 122.406352 
L 222.395198 122.492332 
L 222.584095 122.336233 
L 222.678544 121.645056 
L 222.731695 121.650899 
L 222.771463 122.198081 
L 222.584095 123.037009 
L 222.886942 124.513272 
L 223.061309 125.25036 
L 223.29571 125.920668 
L 223.42419 127.537587 
L 224.835182 130.205462 
L 225.967417 131.466359 
L 226.683237 132.144597 
L 227.355466 132.593277 
L 227.600191 133.024428 
L 227.436914 133.871704 
L 227.302697 134.491509 
L 226.77348 135.506987 
L 226.638116 135.974032 
L 226.514989 135.267413 
L 226.134136 134.287411 
L 226.438895 133.991908 
L 226.804835 133.849165 
L 226.900048 133.930136 
L 227.084739 133.445979 
L 227.010557 133.092043 
L 225.858056 132.002688 
L 225.348722 131.466359 
L 224.642461 130.399543 
L 224.380529 129.470044 
L 224.126245 129.295163 
L 223.231469 127.537587 
L 223.577526 128.454982 
L 223.875019 129.434149 
L 223.915169 130.290607 
L 224.392383 132.248941 
L 225.2906 133.796576 
L 225.585034 133.89299 
L 225.97277 133.846661 
L 225.903177 134.668894 
L 226.83619 136.673974 
L 227.395234 138.214096 
L 228.8502 141.280566 
L 228.708336 141.455865 
L 229.157253 142.39872 
L 230.56901 144.053203 
L 231.132642 144.428425 
L 231.409487 145.006492 
L 231.665683 145.256084 
L 232.312292 146.056613 
L 233.069028 146.768659 
L 233.380287 147.251147 
L 233.6166 147.416428 
L 233.944684 148.007434 
L 234.564909 148.764557 
L 235.833654 150.700352 
L 236.162121 151.683693 
L 236.269953 152.583558 
L 236.687515 153.965911 
L 237.053455 154.544396 
L 236.970095 154.936731 
L 237.577701 156.200966 
L 238.490449 156.983548 
L 238.729438 156.873361 
L 238.853712 157.257348 
L 239.242213 158.307469 
L 239.581769 158.619667 
L 240.248262 158.820425 
L 240.516694 159.91938 
L 240.875752 160.504542 
L 241.432119 161.002056 
L 242.307392 161.418598 
L 242.292862 161.69532 
L 241.10174 161.052141 
L 240.770214 160.703631 
L 240.555315 160.644781 
L 240.356094 160.766238 
L 240.899842 161.115583 
L 241.074208 161.169842 
L 241.372467 161.551324 
L 241.779704 161.911938 
L 241.366731 161.794238 
L 241.122389 161.833054 
L 241.267312 162.130644 
L 241.512036 162.189912 
L 241.869947 162.010857 
L 241.903596 161.926964 
L 242.086375 161.918616 
L 243.461423 162.366879 
L 243.869043 162.681582 
L 244.02582 162.54176 
L 243.650703 162.291752 
L 242.521909 161.783386 
L 242.480229 161.344723 
L 243.125309 161.846827 
L 243.882427 162.148174 
L 244.713344 162.295091 
L 247.74105 162.404026 
L 248.069134 162.708294 
L 249.005972 163.417 
L 249.139041 163.765093 
L 249.342851 163.853577 
L 251.172552 164.179549 
L 251.369096 164.299336 
L 251.535815 164.592752 
L 252.016853 165.705897 
L 252.860006 166.623709 
L 253.360545 167.619154 
L 253.77543 167.902971 
L 255.114152 167.953473 
L 255.436118 167.821999 
L 257.496778 167.417144 
L 257.969403 167.168387 
L 258.841236 166.861614 
L 259.022103 166.759357 
L 260.066007 166.406256 
L 260.001767 166.516444 
L 259.809429 166.861614 
L 259.908083 166.915456 
L 260.949694 166.666282 
L 261.030376 166.458011 
L 260.995962 166.228036 
L 261.220803 166.056494 
L 261.483882 166.067346 
L 261.734343 165.909994 
L 261.794377 166.099901 
L 261.985568 166.131622 
L 262.699859 165.896221 
L 262.836752 165.559815 
L 262.629118 165.290189 
L 261.547358 165.769756 
L 261.349283 165.986374 
L 260.934781 166.056494 
L 260.404798 166.355753 
L 260.194488 166.476375 
L 260.271729 166.28313 
L 260.813183 165.930029 
L 262.970968 165.146194 
L 263.982753 165.018894 
L 266.698052 165.069814 
L 266.485447 165.443784 
L 266.563836 165.769756 
L 266.796707 165.709653 
L 267.018489 165.559815 
L 267.010076 165.714662 
L 266.890008 166.056494 
L 266.954248 166.056494 
L 267.331278 165.521834 
L 267.260154 165.356552 
L 266.868595 165.15162 
L 267.211209 165.005955 
L 268.727724 164.978462 
L 269.517472 164.770177 
L 269.977397 164.482482 
L 270.693568 163.630698 
L 270.822049 163.476268 
L 270.950147 163.557239 
L 271.072509 163.879037 
L 271.271348 165.146194 
L 271.260259 164.700435 
L 271.278231 163.84189 
L 271.019741 163.235859 
L 271.391417 163.147375 
L 272.02426 163.140697 
L 273.751868 162.667234 
L 275.804112 162.511709 
L 276.994056 162.353821 
L 278.047251 162.460419 
L 278.303365 162.760884 
L 278.870821 163.172417 
L 278.813081 163.412827 
L 278.608889 163.523014 
L 278.652481 163.454564 
L 278.678865 163.382776 
L 278.567974 163.430774 
L 278.099173 163.412827 
L 278.095349 163.102298 
L 277.969928 163.115237 
L 277.696906 163.254223 
L 277.482007 163.262988 
L 277.511833 163.371924 
L 277.646432 163.458738 
L 277.291581 163.467086 
L 277.191397 163.382776 
L 277.226576 163.532197 
L 277.184131 163.660749 
L 277.062916 163.942896 
L 277.110331 163.901575 
L 277.261755 163.802657 
L 277.646432 164.019276 
L 278.037227 163.98046 
L 278.248685 164.234225 
L 278.608889 164.362777 
L 277.895745 163.782623 
L 277.838388 163.458738 
L 278.252126 163.679948 
L 278.480409 163.593134 
L 278.357664 163.802657 
L 278.704102 164.032214 
L 278.743105 164.159515 
L 278.608889 164.089395 
L 278.550385 164.159515 
L 278.715574 164.274293 
L 279.19164 164.509694 
L 279.165256 164.654941 
L 278.870821 165.107378 
L 279.11937 165.419159 
L 279.419158 165.594875 
L 279.471544 165.284346 
L 279.320121 164.929575 
L 279.39698 165.01472 
L 279.705563 165.069814 
L 279.390097 164.669132 
L 279.454337 164.509694 
L 279.694091 164.64242 
L 281.384987 165.005955 
L 282.219728 164.789337 
L 282.233494 164.937923 
L 282.384918 165.073988 
L 282.488926 164.887003 
L 282.347444 164.439575 
L 282.332914 164.495086 
L 282.182255 164.655776 
L 281.892409 164.719217 
L 282.148605 164.367786 
L 282.44151 164.172453 
L 283.911007 163.557239 
L 284.120935 163.172417 
L 284.663536 163.137775 
L 284.737336 163.033013 
L 285.246287 162.815977 
L 284.961412 162.767144 
L 284.149996 163.102298 
L 284.461255 162.004596 
L 284.037576 161.503743 
L 283.792851 161.584715 
L 283.700314 161.69532 
L 283.507593 161.639808 
L 283.059441 161.204901 
L 283.37873 160.734935 
L 283.594776 160.568818 
L 284.320539 160.195683 
L 284.727394 159.728221 
L 284.50523 159.779141 
L 283.893035 160.288341 
L 283.039557 160.830097 
L 282.970346 161.120591 
L 282.924842 161.071341 
L 282.593699 161.259578 
L 282.208257 161.17485 
L 282.423156 160.907311 
L 283.508542 160.174603 
L 284.308879 159.646428 
L 285.437861 159.126363 
L 286.40223 158.296617 
L 286.828204 158.130501 
L 287.562379 157.620466 
L 288.498451 156.500226 
L 288.807034 156.39129 
L 289.377167 155.775241 
L 289.493029 155.437166 
L 289.749608 151.998813 
L 290.109047 151.272576 
L 291.863712 149.834755 
L 291.963603 148.898952 
L 291.653873 148.131813 
L 291.774706 146.629255 
L 291.765529 145.834569 
L 291.895157 144.845385 
L 291.750234 143.556941 
L 291.96628 142.687545 
L 292.133381 141.423309 
L 292.791844 140.548069 
L 292.904647 139.993792 
L 293.167344 139.061789 
L 293.097368 139.061789 
L 292.732957 140.326024 
L 292.43011 140.859433 
L 292.199151 140.958768 
L 292.199151 140.888649 
L 292.386136 140.62904 
L 293.067924 138.60643 
L 293.230437 138.445323 
L 295.73619 136.96113 
L 296.026036 136.92607 
L 296.521604 136.737833 
L 297.253485 136.247415 
L 297.421733 136.215694 
L 298.365453 135.859254 
L 299.384121 135.681451 
L 300.131296 135.681451 
L 301.437516 135.443546 
L 303.222095 135.2599 
L 304.366567 134.980257 
L 304.786423 135.030343 
L 305.048737 134.917233 
L 307.071541 134.491509 
L 307.405744 134.350853 
L 308.545244 134.074549 
L 308.875623 133.853339 
L 309.642682 133.220595 
L 310.411272 133.093712 
L 310.940489 132.879181 
L 311.837176 132.912571 
L 312.325861 133.089539 
L 313.483334 132.862485 
L 313.746031 132.714734 
L 314.352107 132.733516 
L 314.166269 132.658805 
L 313.718499 132.612059 
L 313.393856 132.79654 
L 312.939586 132.892537 
L 312.98203 132.805722 
L 313.382385 132.619572 
L 314.068379 132.478081 
L 314.480588 132.593277 
L 315.505373 132.622911 
L 316.484273 132.988951 
L 317.90903 133.306575 
L 317.614596 133.419684 
L 316.41162 133.089539 
L 316.636461 133.276941 
L 317.234507 133.540306 
L 318.640911 133.654667 
L 318.796923 133.579957 
L 318.207289 133.510255 
L 318.05663 133.40758 
L 318.102898 133.354573 
L 318.733447 133.439718 
L 319.47374 133.656337 
L 319.862241 133.698075 
L 319.96472 133.836644 
L 320.086317 133.853339 
L 319.829356 133.853339 
L 319.915775 133.972709 
L 322.30796 134.233987 
L 323.084197 133.836644 
L 323.306744 133.357495 
L 323.107905 132.9493 
L 322.668165 133.010237 
L 321.910283 133.363338 
L 321.381447 133.15465 
L 321.374947 133.089539 
L 320.807491 133.484795 
L 320.824316 133.491056 
L 320.861789 133.509838 
L 320.663715 133.299897 
L 321.18452 132.878763 
L 321.792509 132.981438 
L 321.989053 133.026097 
L 322.254427 132.946378 
L 323.4987 132.383336 
L 324.300174 132.701378 
L 324.56593 132.973508 
L 325.211774 133.996082 
L 325.311959 134.269047 
L 325.499326 134.350853 
L 325.6236 134.211449 
L 326.163142 134.33374 
L 326.308448 135.138861 
L 326.205204 135.512831 
L 326.284358 136.67773 
L 326.511111 137.153958 
L 326.974941 137.09469 
L 326.949703 137.191522 
L 326.530994 138.177784 
L 326.579175 138.409428 
L 326.550496 138.418193 
L 326.404808 138.472035 
L 326.165054 138.648586 
L 325.718049 140.265087 
L 325.079852 141.216707 
L 323.393927 143.018107 
L 323.248622 143.170033 
L 322.850944 143.422963 
L 322.338169 143.983083 
L 320.931383 146.211043 
L 320.984534 146.300362 
L 320.50082 146.768659 
L 320.373869 147.075014 
L 320.11729 148.327563 
L 320.219386 149.421508 
L 320.477112 150.063017 
L 320.33869 150.585156 
L 320.214798 150.661536 
L 320.037372 151.247951 
L 320.051138 150.661536 
L 320.295098 150.553853 
L 320.362398 150.324713 
L 320.374634 149.923196 
L 320.165088 149.668596 
L 320.054197 149.396466 
L 319.957837 149.503314 
L 320.086317 150.311357 
L 320.176942 150.227046 
L 320.273302 150.171118 
L 319.610251 151.057627 
L 319.452327 150.957039 
L 319.31314 150.934501 
L 319.240869 151.082252 
L 319.096329 151.097278 
L 318.735742 151.734613 
L 318.274971 152.792247 
L 318.155667 152.769708 
L 318.258528 152.705015 
L 318.39848 152.412016 
L 318.245527 152.298907 
L 317.580946 152.403251 
L 317.572534 152.985492 
L 317.671953 153.133244 
L 318.284148 153.626166 
L 318.214172 154.10615 
L 318.517019 153.979267 
L 318.839367 153.624079 
L 319.240869 153.469232 
L 319.840063 153.586515 
L 319.972367 153.468815 
L 320.088612 153.54603 
L 320.185737 153.495945 
L 320.232005 153.534343 
L 320.273302 153.54603 
L 320.150558 153.609471 
L 320.150558 153.686269 
L 320.398342 153.614062 
L 320.545176 153.219641 
L 320.407519 153.18959 
L 320.463729 153.301029 
L 320.374634 153.406208 
L 319.704317 153.326072 
L 319.57316 153.26597 
L 319.765116 153.257205 
L 320.342514 153.335672 
L 320.342514 153.26597 
L 320.326071 153.201276 
L 320.407519 152.769708 
L 320.633889 153.469232 
L 320.569267 153.569403 
L 320.374634 154.445895 
L 320.082876 154.756006 
L 319.861476 154.843656 
L 319.520773 155.16921 
L 319.182365 155.226808 
L 319.353672 155.173801 
L 319.502801 154.806092 
L 318.74186 155.13415 
L 318.384714 155.464713 
L 318.277647 155.863308 
L 318.412628 155.65295 
L 318.470368 155.65295 
L 318.145343 156.572014 
L 318.08225 156.809502 
L 318.44666 157.029877 
L 318.541491 157.026956 
L 318.978172 156.541546 
L 319.216779 156.039441 
L 319.887861 155.93301 
L 319.695522 156.353726 
L 319.904303 156.118325 
L 320.026666 156.013146 
L 320.214798 156.003547 
L 320.214798 156.073249 
L 319.876007 156.328266 
L 319.533392 156.953497 
L 319.261136 158.245697 
L 318.849692 159.08379 
L 318.663089 160.428162 
L 318.155667 161.97538 
L 317.74843 162.563047 
L 317.572534 163.382776 
L 317.599301 164.053083 
L 317.42264 164.427471 
L 317.298748 165.382012 
L 316.767618 166.381213 
L 316.609694 166.861614 
L 316.609694 167.533174 
L 316.522511 167.259375 
L 316.47586 167.036913 
L 316.323672 167.236002 
L 316.208957 167.190925 
L 316.254078 166.973054 
L 316.385618 166.596163 
L 316.41162 166.190472 
L 316.33132 166.397074 
L 316.225017 166.553173 
L 316.199015 166.333632 
L 316.260579 166.04272 
L 316.127892 165.741791 
L 316.090801 165.559815 
L 315.756981 165.447123 
L 315.758128 165.005538 
L 315.480901 164.929575 
L 315.23044 164.86363 
L 314.394934 164.275963 
L 314.422848 164.054335 
L 314.737166 163.668679 
L 314.674073 163.439539 
L 315.061045 162.411539 
L 315.005599 162.231232 
L 315.113431 161.699076 
L 315.028924 161.307159 
L 314.8645 160.984109 
L 314.807907 160.575497 
L 314.358225 161.02376 
L 314.095911 161.593062 
L 313.952517 162.060525 
L 313.805682 162.045916 
L 313.883306 161.657338 
L 313.747178 161.857679 
L 313.280671 161.960771 
L 312.775926 162.50044 
L 312.748012 162.61188 
L 313.119688 162.375227 
L 313.390415 161.97538 
L 313.404563 162.282569 
L 313.319674 162.61188 
L 313.448919 162.43366 
L 313.640875 162.33182 
L 313.732265 162.385244 
L 313.67376 162.461624 
L 313.518513 162.54176 
L 312.771337 164.003833 
L 312.293741 164.6132 
L 311.658227 164.60866 
L 311.405216 164.625888 
L 311.202224 164.534716 
L 310.829506 164.670944 
L 310.551243 164.580832 
L 310.139675 165.003297 
L 309.935226 165.937809 
L 309.378313 167.016751 
L 309.256321 167.29081 
L 308.669199 167.896679 
L 308.637876 168.011969 
L 308.378552 168.524015 
L 308.228737 169.01804 
L 307.803571 169.399689 
L 307.580669 169.909616 
L 307.059106 170.359644 
L 306.960282 170.669205 
L 306.876025 170.694648 
L 306.378259 170.367595 
L 306.160213 170.058035 
L 305.941681 170.069167 
L 305.286814 169.55871 
L 304.505685 169.855549 
L 304.304879 170.155038 
L 304.234949 170.561601 
L 304.243204 171.455297 
L 287.117848 171.493992 
L 287.04209 171.581984 
L 287.031892 177.224038 
L 282.838026 177.206016 
L 282.798205 177.367157 
L 283.451857 177.61735 
L 283.527615 177.861712 
L 283.970506 177.854291 
L 284.329869 177.960834 
L 284.712542 178.585256 
L 284.838805 178.710352 
L 285.01363 179.137588 
L 285.441467 179.562173 
L 285.817341 179.61942 
L 285.90184 179.905658 
L 286.286456 180.434667 
L 286.440399 180.751648 
L 286.97216 181.068099 
L 287.113963 181.053257 
L 287.085796 180.822677 
L 287.400482 180.927101 
L 287.248967 181.096723 
L 287.443703 181.195846 
L 287.890478 181.592868 
L 288.648541 181.804895 
L 288.736439 181.726975 
L 288.864644 181.873274 
L 288.832593 181.99466 
L 289.443996 182.407584 
L 290.207886 183.740707 
L 290.084051 184.044437 
L 290.162722 184.029595 
L 290.398251 183.99143 
L 290.344346 184.671508 
L 290.596872 184.751019 
L 290.53714 184.936013 
L 290.404564 185.107755 
L 290.520629 185.072771 
L 291.244454 185.037256 
L 291.346193 185.347877 
L 291.676418 185.264656 
L 291.870669 185.501067 
L 291.882324 185.647366 
L 292.642814 185.765571 
L 292.784374 186.29829 
L 292.640872 186.255885 
L 292.423797 186.299351 
L 292.399516 186.444589 
L 292.463375 186.368259 
L 292.527478 186.368259 
L 292.606392 186.500247 
L 292.412142 186.805566 
L 292.173214 186.902569 
L 292.46289 187.113006 
L 292.261355 187.103465 
L 292.334927 187.361609 
L 292.18414 187.328215 
L 292.142619 187.284749 
L 292.051564 187.510028 
L 292.271067 187.641485 
L 292.160588 187.697673 
L 291.978721 187.930903 
L 292.014171 188.125438 
L 292.349496 188.392063 
L 292.142619 188.545253 
L 292.263297 188.667699 
L 292.036024 188.867535 
L 292.142619 189.042458 
L 292.176613 189.006413 
L 292.271067 188.966128 
L 292.243387 189.051469 
L 292.142136 189.252551 
L 291.789326 189.340357 
L 280.003913 189.44001 
L 279.678543 189.97909 
L 275.573547 197.532309 
L 275.648091 197.89037 
L 276.865555 199.566979 
L 276.583406 200.139718 
L 276.109921 200.364732 
L 275.998955 201.64803 
L 275.758085 202.012452 
L 275.873421 202.871164 
L 276.048004 203.56953 
L 275.810533 204.122657 
L 275.434415 204.945589 
L 275.202624 204.931423 
L 274.684114 204.27155 
L 272.786731 202.301947 
L 269.807588 198.931626 
L 269.661135 198.456651 
L 270.32151 198.971694 
L 270.481346 199.313526 
L 270.629328 199.373211 
L 270.528379 199.164105 
L 270.337952 198.564334 
L 269.812559 198.346463 
L 269.661135 198.386531 
L 269.533419 198.184103 
L 269.479886 198.257979 
L 269.602631 198.386531 
L 269.444324 198.362741 
L 268.885281 197.889853 
L 268.320119 197.598941 
L 268.178638 197.307611 
L 267.427638 196.746656 
L 266.013205 195.175231 
L 261.996657 191.71434 
L 261.027317 191.028171 
L 259.296271 189.957182 
L 259.410986 189.900836 
L 260.029299 189.940904 
L 260.135983 189.810682 
L 259.488227 189.040621 
L 258.071117 188.619905 
L 257.616082 188.091506 
L 257.562931 187.800176 
L 257.425655 187.739657 
L 256.657066 187.977562 
L 255.878153 187.628217 
L 255.012056 187.002568 
L 254.843043 187.065175 
L 254.787215 187.563106 
L 254.701944 187.513438 
L 254.677089 187.606931 
L 254.868662 187.720875 
L 254.786068 187.769708 
L 254.658734 187.779725 
L 256.014281 188.617818 
L 256.268948 188.543525 
L 255.556951 188.199606 
L 255.801294 188.214214 
L 256.362249 188.403704 
L 256.846345 188.480084 
L 257.167164 188.760144 
L 257.038684 188.760144 
L 257.038684 188.830263 
L 257.991964 189.093628 
L 258.231718 189.288543 
L 258.584275 189.746823 
L 259.040457 189.965112 
L 259.10355 190.09116 
L 254.633497 188.149521 
L 251.975555 188.01763 
L 251.957966 187.800176 
L 252.074975 187.703345 
L 252.887538 187.434554 
L 253.246595 187.168685 
L 253.305864 186.716665 
L 253.206445 186.606477 
L 252.401912 186.366068 
L 252.293315 186.602721 
L 252.038266 186.754229 
L 251.725095 187.002568 
L 251.591261 187.054741 
L 251.310974 187.422867 
L 251.176758 187.002568 
L 251.50293 186.70957 
L 250.756902 185.666127 
L 250.290395 185.830573 
L 250.105704 186.010463 
L 249.602106 186.716665 
L 249.053769 186.716665 
L 249.032738 186.962083 
L 248.861049 187.037628 
L 248.766982 187.313932 
L 249.372909 187.490479 
L 250.287209 187.483303 
L 250.689602 187.352748 
L 250.925915 187.136546 
L 250.98289 187.292646 
L 250.295748 187.536811 
L 250.02158 187.563106 
L 250.340869 187.66119 
L 251.194348 187.633225 
L 251.468516 187.741326 
L 251.556846 188.027647 
L 251.066632 187.874052 
L 249.848931 187.996927 
L 247.90514 188.202655 
L 247.96391 188.33939 
L 247.85347 188.391182 
L 247.598787 188.346446 
L 247.501001 188.442142 
L 247.044602 188.551839 
L 247.031693 188.688579 
L 246.725286 188.846066 
L 246.692801 188.996489 
L 246.047079 189.250194 
L 245.812402 189.578798 
L 245.864905 189.783905 
L 245.368008 190.071835 
L 245.28386 190.318096 
L 244.697318 190.421407 
L 243.988036 190.505376 
L 243.903687 190.628677 
L 243.643331 190.663546 
L 243.591538 190.793642 
L 243.142794 190.97262 
L 242.270576 191.098272 
L 242.049706 191.249449 
L 242.05016 191.365629 
L 241.10679 191.595019 
L 241.022475 191.670545 
L 239.937453 192.03076 
L 238.97034 192.554763 
L 238.872322 192.507348 
L 238.768966 192.60363 
L 238.789703 192.754145 
L 237.745626 193.313786 
L 235.917778 193.185177 
L 235.401042 193.544795 
L 235.023399 193.554047 
L 234.202938 193.348633 
L 233.569987 193.046243 
L 232.027417 192.808703 
L 231.223482 192.294859 
L 230.362576 192.043535 
L 230.106809 191.820363 
L 230.145544 191.785903 
L 229.986847 191.507617 
L 229.856916 191.536016 
L 228.07202 190.722941 
L 227.891901 190.726582 
L 227.325325 190.620892 
L 227.108404 190.736381 
L 226.256252 190.629703 
L 225.594121 190.391863 
L 225.333647 190.45285 
L 224.369769 190.306574 
L 224.165328 190.453467 
L 223.130406 190.191863 
L 222.478752 189.77046 
L 221.350269 188.943644 
L 219.556772 187.919963 
L 220.402602 188.124061 
L 220.531083 187.990083 
L 220.391131 188.006361 
L 220.133787 187.823549 
L 220.011425 187.919963 
L 219.455058 187.711275 
L 219.328872 187.779725 
L 219.145328 187.760943 
L 218.206961 187.442901 
L 216.989837 187.212927 
L 215.806908 186.710436 
L 215.868511 186.668934 
L 215.851808 186.572169 
L 215.355517 186.046199 
L 214.614442 185.326621 
L 213.873683 184.371283 
L 213.169288 184.529552 
L 213.125158 184.647778 
L 212.280305 184.421146 
L 208.89072 183.37275 
L 207.129862 183.031461 
L 205.543881 182.904169 
L 204.811332 182.571275 
L 203.999669 181.973563 
L 203.847306 182.003622 
L 203.713117 181.900323 
L 203.892817 181.914789 
L 203.87836 181.770336 
L 203.537099 181.702276 
L 203.598685 181.677878 
L 203.715773 181.510997 
L 203.77956 181.417963 
L 203.631393 181.28853 
L 203.342852 181.317957 
L 203.261113 181.464659 
L 203.348535 181.43589 
L 203.400525 181.476589 
L 203.1906 181.580927 
L 202.457789 180.733967 
L 192.370405 176.976951 
L 192.477593 176.907864 
L 192.464579 176.703786 
L 191.994724 176.214806 
L 191.367557 175.809824 
L 191.269588 175.576522 
L 190.509839 175.128605 
L 188.699123 174.409202 
L 188.689117 174.296245 
L 188.817382 174.275747 
L 188.765879 173.957985 
L 188.676882 173.824477 
L 188.316485 173.505845 
L 187.389553 173.29109 
L 187.349992 173.1065 
L 186.925699 172.953099 
L 186.895821 172.573673 
L 186.668187 172.214803 
L 185.976063 171.682092 
L 185.717751 171.107459 
L 185.360331 170.676288 
L 183.239598 169.646355 
L 182.640561 169.731913 
L 182.365007 170.050986 
L 181.931637 170.40152 
L 181.793368 170.412382 
L 180.872776 169.944657 
L 177.972202 169.047493 
L 176.609083 168.863773 
L 173.626034 167.626897 
L 173.12104 167.580192 
L 173.010578 167.437518 
L 172.862882 167.480006 
L 171.940268 167.171097 
L 170.20132 166.440669 
L 169.503675 166.129947 
L 169.271173 165.691376 
L 168.782857 164.501346 
L 167.964639 163.696255 
L 167.514987 163.384097 
L 167.738566 163.103284 
L 167.607508 162.838894 
L 166.723187 161.947306 
L 164.978082 160.575993 
L 162.522839 159.379867 
L 161.673088 159.064876 
L 161.698048 158.74646 
L 161.974375 158.618692 
L 161.932138 158.455317 
L 161.5911 158.255917 
L 161.4429 158.3199 
L 161.460102 158.14523 
L 161.161204 158.109123 
L 161.092721 158.182058 
L 161.045669 158.357246 
L 160.882449 158.209385 
L 160.659294 158.456088 
L 160.546251 158.222024 
L 160.055355 157.963133 
L 158.465791 157.481897 
L 158.317426 157.302007 
L 158.210741 157.135474 
L 157.926631 157.056172 
L 157.798151 156.913846 
L 157.206987 156.94348 
L 157.258609 156.269833 
L 157.029179 156.241034 
L 156.71639 156.337866 
L 156.589821 156.335362 
L 156.515257 156.430106 
L 155.452233 155.783172 
L 155.231598 155.513546 
L 155.022817 154.824874 
L 154.730295 154.613263 
L 154.752473 154.314004 
L 154.584607 154.10615 
L 154.568232 153.537991 
L 154.169339 153.277656 
L 153.965529 153.301029 
L 152.588952 151.922433 
L 151.638731 150.419875 
L 151.242965 149.995402 
L 150.267889 148.095918 
L 150.193707 146.969 
L 150.067138 146.703548 
L 149.818589 146.51698 
L 149.485534 145.95853 
L 149.231036 145.823265 
L 148.826668 144.861839 
L 148.973141 144.69012 
L 149.983396 144.032751 
L 152.564301 143.580342 
L 152.886006 143.316315 
L 153.167114 142.856165 
L 153.190702 142.510661 
L 153.008636 142.305385 
L 152.725479 142.162699 
L 152.477177 141.57635 
L 151.994733 141.21182 
L 151.74289 141.450693 
L 151.531005 141.506747 
L 151.239082 141.35584 
L 150.897411 141.327425 
L 150.56105 141.134046 
L 150.38482 141.276482 
L 150.27186 141.156991 
L 150.557639 140.951598 
L 150.651963 140.984566 
L 150.820302 140.868483 
L 151.258303 140.096994 
L 152.584059 138.426619 
L 152.764539 138.511099 
L 152.849924 138.5185 
L 153.190409 138.152894 
L 153.206339 137.579137 
L 153.144161 137.432488 
L 153.233882 137.187651 
L 153.203476 136.901622 
L 153.361875 136.681839 
L 153.226384 134.79202 
L 153.485757 134.318845 
L 153.638592 134.127556 
L 153.230299 133.393955 
L 153.101708 133.370047 
L 153.044192 133.501244 
L 152.916221 133.512051 
L 152.751464 133.35833 
L 151.714443 132.733516 
L 151.178507 132.305462 
L 151.042349 131.890878 
L 150.229655 130.262682 
L 149.295661 128.599542 
L 149.215914 128.03609 
L 149.236864 125.891817 
L 148.507017 123.350459 
L 148.657676 123.246532 
L 148.420216 122.919309 
L 148.272999 123.037009 
L 148.185051 122.46395 
L 147.873027 121.971862 
L 145.957289 120.006016 
L 146.144275 119.732634 
L 146.015794 119.755589 
L 145.694593 120.006016 
L 143.84539 117.667869 
L 143.388825 117.404921 
L 142.346832 116.28802 
L 141.956037 116.3644 
L 141.937683 116.281759 
L 141.905563 115.757533 
L 141.512856 114.957421 
L 141.422614 114.776697 
L 140.96146 113.970324 
L 140.625346 113.797947 
L 140.153868 113.333407 
L 139.976825 112.964862 
L 139.591383 112.668525 
L 139.110728 112.042041 
L 138.941333 111.914741 
L 138.540596 111.777007 
L 138.438882 111.568736 
L 138.227807 110.90135 
L 137.903928 110.517363 
L 137.788067 110.074943 
L 137.518487 109.579099 
L 135.800059 107.851157 
L 135.498742 107.706327 
L 135.003174 107.221752 
L 132.944043 105.776375 
L 132.798355 105.415761 
L 132.078711 104.996297 
L 131.492901 104.450785 
L 129.151572 102.93821 
L 129.110275 102.644794 
L 129.249844 102.692375 
L 129.347734 102.852648 
L 129.36953 102.986626 
L 131.917346 104.477915 
L 131.929582 104.304703 
L 131.97585 104.204532 
L 131.878343 104.208706 
L 131.84737 104.204532 
L 132.103184 103.901934 
L 132.069916 103.565945 
L 131.619852 102.652307 
L 131.303239 102.562571 
L 131.028306 102.671089 
L 130.943417 102.790459 
L 131.076104 102.821344 
L 131.39807 102.790459 
L 131.358302 102.882282 
L 131.013393 103.210757 
L 130.732342 103.302998 
L 130.237921 102.860578 
L 129.909072 102.987878 
L 129.596283 102.714496 
L 129.472773 102.386855 
L 129.275464 102.300458 
L 128.770719 101.864716 
L 128.62809 101.950696 
L 128.243031 101.607612 
L 127.793731 101.453182 
L 127.906917 101.635993 
L 129.018503 102.5801 
L 128.761159 102.515824 
L 128.059487 102.078413 
L 127.155917 101.217364 
L 126.834333 100.176843 
L 126.633582 99.938938 
L 126.770475 99.918069 
L 127.096265 100.122584 
L 127.39873 100.241119 
L 127.42282 99.832924 
L 127.192243 99.311202 
L 127.232394 98.07827 
L 126.742561 97.733516 
L 126.737973 97.926762 
L 126.895897 98.7227 
L 126.667997 99.557037 
L 126.440861 99.461875 
L 126.420978 99.534499 
L 126.376621 99.562463 
L 126.03133 99.342923 
L 125.738042 98.948501 
L 124.777497 97.170475 
L 124.119034 96.608268 
L 124.533154 96.65251 
L 124.76679 96.923805 
L 125.448579 97.886277 
L 125.589678 97.921336 
L 125.664625 97.875425 
L 125.972825 97.986447 
L 125.991179 97.693866 
L 125.866523 97.55154 
L 125.664625 97.518985 
L 125.799223 97.233081 
L 125.914703 97.133328 
L 125.948735 97.170057 
L 126.208373 97.472238 
L 126.36362 97.548201 
L 127.155535 97.650876 
L 127.167006 97.425909 
L 126.076833 96.481802 
L 125.921203 96.468864 
L 125.995003 96.549835 
L 125.914703 96.655014 
L 125.680302 96.656683 
L 125.407664 96.398744 
L 125.151467 95.972185 
L 123.894193 96.009749 
L 123.862073 95.627848 
L 123.929372 95.647883 
L 124.247515 95.838207 
L 124.104503 95.167064 
L 123.803951 94.985505 
L 123.448335 96.258505 
L 123.477778 95.712993 
L 123.392507 95.349875 
L 122.963856 94.985505 
L 121.992222 94.591501 
L 121.430119 94.226713 
L 120.654647 94.070614 
L 120.321974 94.074788 
L 120.54108 93.91368 
L 120.928816 93.944984 
L 121.616722 94.144907 
L 121.389587 94.035555 
L 121.024029 93.725026 
L 120.74183 93.66075 
L 120.004214 93.841057 
L 119.873057 93.66075 
L 120.341093 93.583952 
L 120.058895 93.18327 
L 119.873057 93.30431 
L 119.988154 92.838099 
L 119.917031 92.194921 
L 119.744577 92.247093 
L 118.841006 91.970372 
L 118.777148 92.001675 
L 118.857066 92.349768 
L 118.904864 92.533831 
L 118.744264 92.845612 
L 118.463595 92.964565 
L 118.257108 92.744189 
L 118.3007 92.755041 
L 118.391324 92.673235 
L 118.255579 92.579743 
L 117.654473 92.687844 
L 117.626177 92.799283 
L 117.743951 92.954548 
L 117.477047 92.976251 
L 117.179554 92.772988 
L 116.711517 92.247093 
L 117.031954 92.017118 
L 117.140551 91.794239 
L 117.259854 91.751249 
L 117.820045 91.915278 
L 117.986381 92.161948 
L 118.180632 91.691147 
L 118.767206 90.956146 
L 118.805445 90.820915 
L 118.925513 90.723249 
L 118.995107 90.191511 
L 119.369077 89.861783 
L 119.418022 89.649755 
L 119.32472 89.494908 
L 119.213829 89.6172 
L 118.583663 90.699876 
L 117.71183 91.085532 
L 117.218939 91.693651 
L 116.973449 91.617271 
L 116.569271 91.764188 
L 116.332194 91.406913 
L 116.104294 91.050473 
L 115.693232 90.887278 
L 115.412181 90.755804 
L 115.568958 91.073011 
L 116.367373 91.835142 
L 116.332194 92.037152 
L 115.331881 91.190712 
L 113.946891 91.120592 
L 114.426399 90.892287 
L 114.978559 90.987031 
L 114.968617 90.810898 
L 115.088685 90.509552 
L 115.048153 90.351366 
L 114.95944 90.203614 
L 114.424487 89.923137 
L 114.142671 89.9895 
L 114.089137 90.119722 
L 114.047075 90.78836 
L 113.946891 90.636852 
L 114.010366 90.19318 
L 113.910947 89.860113 
L 113.713255 89.785403 
L 113.696813 89.400998 
L 113.864296 88.558314 
L 113.67234 87.887588 
L 113.731227 87.268618 
L 114.426399 86.322007 
L 114.585087 86.108727 
L 114.704391 85.694689 
L 115.409122 84.393307 
L 115.096715 85.171298 
L 115.167456 85.843275 
L 115.283701 85.645855 
L 115.343352 85.332823 
L 115.669907 84.608673 
L 115.76665 83.962573 
L 116.147885 84.021841 
L 116.262218 84.09196 
L 116.326076 84.487634 
L 116.139473 84.798162 
L 116.336018 84.877047 
L 116.909592 85.288163 
L 116.921828 85.17881 
L 116.781111 84.798162 
L 116.973449 84.511842 
L 116.711517 84.527702 
L 116.3299 83.755137 
L 116.069497 83.607803 
L 116.175417 83.740529 
L 116.203713 83.811483 
L 115.812918 83.747624 
L 115.45692 84.06024 
L 115.425182 83.910401 
L 115.556722 83.187921 
L 115.399563 82.382801 
L 113.879936 80.700868 
L 113.266101 80.493179 
L 113.775732 80.599446 
L 113.654731 80.161418 
L 113.287359 80.017574 
L 113.25975 79.87333 
L 113.046187 80.012571 
L 112.991068 79.825565 
L 112.832004 79.783093 
L 112.607947 80.13623 
L 113.15673 80.626917 
L 112.816824 80.472507 
L 111.715096 80.378626 
L 111.562176 80.576768 
L 110.985625 80.401979 
L 110.429735 80.111434 
L 109.755595 79.27501 
L 109.471484 78.34092 
L 108.952482 77.157634 
L 109.305913 77.701081 
L 109.502075 77.83965 
L 109.259431 77.056519 
L 109.184945 76.617264 
L 108.572885 76.052441 
L 108.109437 76.06997 
L 107.81957 76.395518 
L 107.552174 76.179946 
L 105.241294 75.468558 
L 104.196352 74.420243 
L 103.703098 74.247716 
L 103.477347 74.155381 
L 104.40549 74.13669 
L 103.902463 73.554856 
L 103.955615 73.367871 
L 103.709743 73.198415 
L 103.324683 73.415034 
L 103.191996 73.286899 
L 103.156817 72.777699 
L 102.885202 72.624131 
L 102.785388 71.656654 
L 102.515851 70.99143 
L 102.60704 70.489433 
L 103.068105 70.24422 
L 102.936565 70.051809 
L 102.735432 70.24422 
L 102.87003 69.823921 
L 103.254707 69.61398 
L 102.771376 69.516314 
L 102.750727 69.365223 
L 102.87003 69.117301 
L 102.645954 69.017965 
L 102.677309 68.773382 
L 102.792789 68.895256 
L 102.847087 68.847258 
L 102.95339 68.62897 
L 103.037896 68.638152 
L 103.627913 68.477045 
L 103.581644 68.276703 
L 103.393895 68.350997 
L 102.613452 68.14356 
L 102.728166 68.251661 
L 102.681133 68.300911 
L 102.543476 68.27879 
L 102.099912 68.018347 
L 101.103805 67.82844 
L 100.42584 67.933202 
L 100.525642 67.831779 
L 100.810517 67.716583 
L 100.682037 67.261642 
L 100.522201 67.084674 
L 100.3616 67.188184 
L 100.318008 67.64396 
L 100.035045 68.003321 
L 100.174615 67.982035 
L 100.28933 68.106414 
L 100.256063 68.380213 
L 100.076343 68.62897 
L 99.993366 68.506261 
L 99.729522 68.191559 
L 99.474855 68.093058 
L 99.447323 67.831779 
L 99.586128 67.792963 
L 99.014848 67.3447 
L 98.626693 67.42826 
L 98.452048 67.622058 
L 98.020898 67.638931 
L 98.048501 67.541833 
L 98.112887 67.471331 
L 97.892913 67.285533 
L 97.800829 67.294107 
L 97.667859 67.139545 
L 97.393391 67.077695 
L 96.936072 66.521874 
L 96.652285 66.442494 
L 96.185141 65.649218 
L 95.881825 65.330643 
L 95.695767 64.754875 
L 95.478191 64.695607 
L 95.304207 64.167208 
L 94.762371 63.635886 
L 94.759694 63.295307 
L 94.890469 63.00523 
L 94.558179 63.067419 
L 92.903846 62.417608 
L 92.351154 62.256133 
L 91.860087 60.985959 
L 90.08613 59.2161 
L 90.240923 59.145376 
L 90.668965 59.068528 
L 90.859774 59.287233 
L 90.949634 59.157012 
L 90.953457 58.930376 
L 90.848685 58.737965 
L 90.315077 58.752413 
L 89.568006 58.204318 
L 89.325729 58.139918 
L 89.279004 57.943696 
L 89.170878 57.786005 
L 88.396129 57.085246 
L 88.045684 57.059861 
L 88.005172 56.995574 
L 88.153652 56.752919 
L 87.976786 55.707232 
L 88.049261 55.483258 
L 87.645083 54.8622 
L 87.476834 54.78582 
L 87.623579 54.125384 
L 87.360183 53.483998 
L 87.134451 53.333789 
L 86.504318 53.425016 
L 86.480345 53.676849 
L 86.403104 53.631772 
L 86.257799 53.448544 
L 85.745978 53.182515 
L 85.665177 52.862672 
L 86.060513 51.736204 
L 85.972213 51.607515 
L 85.667279 51.485103 
L 85.565281 51.382391 
L 85.550773 50.962228 
L 84.855593 50.39053 
L 84.500368 49.556502 
L 84.343393 49.575857 
L 84.093895 49.2034 
L 83.875555 48.595699 
L 83.615534 48.247189 
L 83.319267 47.51122 
L 82.944403 47.384311 
L 82.754273 47.45594 
L 82.548523 47.237953 
L 82.663227 47.063726 
L 82.614156 46.883361 
L 82.745996 46.323915 
L 82.472026 45.680637 
L 82.531943 44.554402 
L 82.284032 44.10306 
L 81.821982 43.699974 
L 81.521214 43.701843 
L 81.635818 43.501507 
L 81.643818 42.754603 
L 81.428306 42.065416 
L 81.008058 41.587466 
L 80.339451 41.00051 
L 79.462187 39.584066 
L 79.002223 38.127521 
L 79.170744 37.810638 
L 79.298067 36.757449 
L 79.273989 36.416565 
L 78.982298 35.536999 
L 79.057913 35.517062 
L 79.234904 35.947102 
L 79.431248 36.312276 
L 79.6877 35.888651 
L 79.755123 34.596369 
L 78.845702 33.954235 
L 78.860305 34.050518 
L 79.116529 34.176867 
L 79.075962 34.254447 
L 78.75042 34.102928 
L 78.361263 33.893772 
L 78.024335 33.249157 
L 77.619392 33.349328 
L 77.844616 33.577216 
L 78.057702 33.689568 
L 77.944036 33.72912 
L 77.596832 33.632727 
L 75.054291 33.170494 
L 74.964863 32.966236 
L 74.165815 32.697885 
L 74.227919 32.63837 
L 74.48708 32.583614 
L 74.237804 31.743158 
L 74.248668 31.42748 
L 74.014664 31.100134 
L 72.933914 30.425451 
L 72.657574 30.414798 
L 71.983454 30.082516 
L 71.897418 29.898453 
L 71.383878 30.044952 
L 71.211806 29.885514 
L 71.167832 29.482745 
L 71.025203 29.402192 
L 71.004555 30.090864 
L 71.059618 30.263658 
L 71.276046 30.377185 
L 71.24125 30.401393 
L 71.164391 30.429774 
L 70.543575 31.161683 
L 69.321246 31.131224 
L 68.373947 30.678983 
L 67.764544 30.228122 
L 67.738082 30.103872 
L 66.604224 29.547455 
L 66.481191 29.359242 
L 66.170752 29.255568 
L 65.140334 28.353323 
L 64.275767 28.294472 
L 63.795877 27.895042 
L 63.138179 27.685102 
L 62.780269 27.301115 
L 62.586018 27.24936 
L 61.714951 26.753098 
L 61.363159 26.617451 
L 61.270622 26.538984 
L 61.141377 26.244316 
L 61.091667 26.410432 
L 61.305801 26.820714 
L 61.469461 26.904606 
L 61.875551 27.028567 
L 62.769685 27.769631 
L 62.968401 27.978101 
L 63.034553 28.102479 
L 63.227656 29.040743 
L 63.479647 29.476485 
L 63.404317 29.678078 
L 63.072409 30.044952 
L 62.800388 30.801983 
L 62.806025 32.209066 
L 62.590935 32.831984 
L 62.615097 33.406758 
L 62.50782 34.965393 
L 62.938952 35.520332 
L 63.157298 35.764609 
L 62.988285 35.922458 
L 63.093058 36.316879 
L 63.264365 36.443345 
L 64.079809 36.865759 
L 64.19411 37.655512 
L 64.200353 37.897548 
L 64.266867 38.050128 
L 64.282495 38.652057 
L 64.296988 38.90888 
L 64.185966 39.16066 
L 64.313553 39.578334 
L 64.251689 39.924916 
L 64.89323 41.531584 
L 64.832809 41.928948 
L 64.899683 42.103691 
L 64.6983 43.619728 
L 64.800106 43.755617 
L 64.610409 44.581386 
L 64.888727 44.978708 
L 64.945912 45.255885 
L 65.134495 45.325164 
L 65.570423 46.28025 
L 65.805483 46.789831 
L 66.292513 47.001665 
L 66.498934 47.38308 
L 66.796093 47.412006 
L 66.973935 47.682322 
L 66.914712 47.950816 
L 66.975447 48.293337 
L 66.967886 48.354278 
L 67.095888 48.552477 
L 67.232773 48.774642 
L 67.56546 49.009183 
L 67.784644 49.116741 
L 68.101474 49.042966 
L 68.179203 48.799108 
L 68.243326 48.818354 
L 68.317937 48.828034 
L 68.341177 48.8745 
L 68.527489 48.892258 
L 68.933041 49.257743 
L 69.216594 49.514308 
L 69.569311 49.778686 
L 69.626021 49.842361 
L 70.042847 50.143703 
L 70.257457 50.393092 
L 70.555432 50.694708 
L 71.653081 51.583373 
L 72.083766 51.962622 
L 72.394807 52.100946 
L 72.462434 52.309007 
L 72.813581 52.464078 
L 72.968825 52.536005 
L 74.35768 54.126346 
L 74.043038 54.47791 
L 74.14114 54.646189 
L 74.214145 54.681047 
L 74.271644 54.937033 
L 74.340368 54.975744 
L 74.4433 55.052999 
L 74.495125 55.042315 
L 74.49449 55.135439 
L 74.658602 55.394097 
L 74.848179 55.537271 
L 75.068832 56.047998 
L 75.141744 56.312199 
L 74.985978 56.431795 
L 74.916613 56.57452 
L 75.046815 56.788487 
L 75.073174 57.139295 
L 74.970394 57.249341 
L 75.469444 57.853851 
L 75.728263 57.763177 
L 75.711349 57.724715 
L 75.775406 57.588641 
L 75.627301 57.433467 
L 75.673845 57.340747 
L 75.766247 57.254027 
L 76.075951 57.21775 
L 76.128261 57.130147 
L 76.331363 57.515326 
L 76.401184 57.405963 
L 76.613485 57.380163 
L 76.53837 57.450794 
L 76.508269 57.609529 
L 76.753806 57.726217 
L 76.650232 57.742112 
L 76.712338 57.884686 
L 76.761419 58.169784 
L 76.780203 58.525463 
L 76.906516 58.581445 
L 76.881829 58.767232 
L 77.374631 58.678203 
L 77.766033 58.358649 
L 78.143082 58.515222 
L 78.370684 58.851569 
L 78.414313 59.049107 
L 78.560364 59.657179 
L 78.746562 60.230442 
L 79.019597 60.535666 
L 78.976205 60.774526 
L 79.163701 61.37829 
L 79.138992 61.558684 
L 79.245338 61.800269 
L 80.197594 62.302934 
L 80.866547 62.190084 
L 81.130543 62.100214 
L 81.383121 62.409645 
L 81.341264 62.518317 
L 81.548517 62.450176 
L 81.657342 62.451682 
L 81.650265 62.561193 
L 81.608588 62.69766 
L 81.583158 62.894521 
L 81.585193 63.196036 
L 81.394623 63.81819 
L 81.445311 63.901581 
L 81.482045 64.187702 
L 82.219762 64.964757 
L 82.150661 65.02437 
L 81.981868 65.739582 
L 82.121084 66.381581 
L 82.041647 66.647263 
L 82.227082 66.946616 
L 82.464975 66.999028 
L 82.483536 68.554565 
L 82.849439 68.830472 
L 82.881062 69.022842 
L 82.99904 69.489502 
L 83.428526 69.966028 
L 83.626018 70.012479 
L 83.77346 70.278114 
L 84.932808 70.828639 
L 85.2235 71.017559 
L 85.32398 71.101316 
L 85.81911 71.27793 
L 86.277032 71.619327 
L 86.291188 71.756577 
L 86.567844 72.1604 
L 86.701635 72.901572 
L 87.705 74.868221 
L 87.610997 75.07466 
L 88.016052 75.431959 
L 88.15442 75.571291 
L 88.351594 75.591557 
L 88.774628 75.884001 
L 89.005487 75.9159 
L 89.670719 76.246622 
L 90.076803 76.276705 
L 90.063967 76.358758 
L 90.1343 76.519288 
L 89.581034 76.86684 
L 89.449164 77.453993 
L 89.766542 77.83965 
L 89.878962 77.971541 
L 90.455796 78.680985 
L 90.825359 78.997037 
L 90.912479 79.451185 
L 90.768099 79.629025 
L 90.760399 79.732958 
L 90.642198 79.665258 
L 90.501481 79.959091 
L 90.549101 80.161371 
L 90.681966 80.196161 
L 90.99138 80.543192 
L 91.084861 80.873247 
L 91.380097 81.039008 
L 91.506578 81.206733 
L 91.637691 81.625763 
L 92.093134 81.955153 
L 92.647748 81.522541 
L 92.500959 81.305547 
L 92.02672 80.795288 
L 91.80106 80.554645 
L 91.54516 80.412127 
L 91.330129 79.90876 
L 91.271033 79.36499 
L 91.006707 78.461552 
L 91.536048 78.423054 
L 91.561771 78.511353 
L 92.004621 78.832625 
L 92.231543 79.220683 
L 93.744785 80.355303 
L 93.659973 81.580241 
L 93.700461 81.767266 
L 94.274833 82.022604 
L 94.564682 81.994999 
L 94.682967 81.975818 
L 94.675363 82.057794 
L 94.851962 82.182434 
L 94.789235 82.219254 
L 94.607541 82.706485 
L 94.670389 83.387365 
L 95.034873 83.677433 
L 94.944559 83.78928 
L 95.391818 84.414918 
L 95.418753 84.648876 
L 95.312574 84.63939 
L 95.360246 85.001552 
L 95.477054 85.609183 
L 95.636764 85.822956 
L 95.709868 86.195224 
L 96.005547 86.838971 
L 95.809996 87.0923 
L 95.766305 87.196022 
L 95.837844 87.617124 
L 95.62235 87.859207 
L 96.020994 89.197452 
L 96.040714 89.171093 
L 96.264536 89.416613 
L 96.178511 89.461443 
L 96.134717 89.417199 
L 96.04397 89.336935 
L 96.288078 89.909684 
L 96.537333 90.097457 
L 96.893393 90.318373 
L 97.063106 90.894013 
L 97.589538 91.897288 
L 97.644557 92.016415 
L 97.843559 92.308639 
L 98.103668 92.353243 
L 98.826906 92.463243 
L 98.868059 92.786018 
L 98.827241 93.012045 
L 98.769276 93.16174 
L 98.971996 93.473981 
L 99.038885 93.823505 
L 99.586058 94.946794 
L 99.548145 94.942438 
L 99.516152 95.131587 
L 99.57154 95.344608 
L 100.009999 96.397875 
L 100.181037 96.569129 
L 100.308326 96.936126 
L 100.665835 97.150099 
L 100.683506 97.327348 
L 100.867777 97.426816 
L 101.079587 97.476961 
L 101.288378 97.712779 
L 101.364605 97.879019 
L 101.383153 98.119819 
L 101.824814 98.642721 
L 101.773433 98.655755 
L 101.78477 98.756687 
L 101.978692 98.948939 
L 101.944913 98.980269 
L 102.026731 99.287934 
L 102.196565 99.803361 
L 102.023173 100.33567 
L 101.741389 100.850211 
L 101.551622 101.210657 
L 101.49656 102.156717 
L 101.622983 102.828136 
L 101.961489 103.34724 
L 101.932904 103.744198 
L 101.95455 103.922438 
L 102.028184 104.177755 
L 101.997668 104.306408 
L 102.624795 105.245704 
L 102.785352 105.471264 
L 102.94538 105.540881 
L 103.120572 105.826121 
L 104.149617 106.132689 
L 105.122264 106.192917 
L 105.349301 106.203532 
L 105.330947 106.267589 
L 104.934736 106.470391 
L 104.341582 106.22499 
L 104.37025 106.516804 
L 104.483724 106.692812 
L 104.432405 106.771844 
L 104.488106 106.89215 
L 105.014172 106.866432 
L 105.120671 106.751297 
L 105.181694 106.53772 
L 105.528425 106.193208 
L 105.493173 105.57213 
L 105.355197 105.492293 
L 105.383094 105.455445 
L 105.324919 105.259713 
L 105.305085 105.366799 
L 105.245333 105.381062 
L 105.216944 104.765942 
L 105.38667 104.717451 
L 105.31169 104.688123 
L 105.364507 104.565855 
L 105.573419 104.480898 
L 105.614288 104.395936 
L 106.219332 104.485442 
L 106.193612 104.597885 
L 106.235977 104.793328 
L 106.525812 104.960223 
L 106.678997 105.240176 
L 106.781798 105.410971 
L 107.127955 105.567498 
L 107.461683 105.778336 
L 107.680382 105.866374 
L 107.852246 106.050476 
L 108.339658 106.376708 
L 108.648129 107.610169 
L 109.436393 107.621679 
L 110.018954 107.361697 
L 110.027599 107.421294 
L 110.180544 107.674652 
L 110.238448 107.865324 
L 109.973699 108.152321 
L 110.140281 108.971747 
L 110.540606 109.261795 
L 111.239166 110.073477 
L 111.118134 110.580795 
L 111.414125 111.614796 
L 113.404588 112.569014 
L 113.401365 113.09487 
L 113.825353 113.755858 
L 113.789418 114.058474 
L 113.909219 114.099359 
L 113.887266 114.353872 
L 113.795429 114.532729 
L 113.64672 115.897772 
L 113.158494 116.706952 
L 112.860786 117.015581 
L 112.806382 117.153394 
L 111.100709 117.944826 
L 110.928335 118.391103 
L 110.674042 118.422668 
L 110.253054 118.713396 
L 110.228312 118.919086 
L 109.72921 119.311917 
L 109.328704 119.394954 
L 109.388477 119.553681 
L 108.72903 119.51327 
L 108.408506 119.346078 
L 107.84129 118.767821 
L 107.401686 117.768974 
L 107.394199 117.489349 
L 106.659979 114.775236 
L 105.516884 112.713704 
L 105.079479 112.305934 
L 104.605013 112.020164 
L 102.979757 111.272243 
L 102.320296 110.735363 
L 99.127822 107.417619 
L 98.851661 107.131783 
L 97.995998 106.49348 
L 94.78287 104.619677 
L 94.898141 104.64723 
L 95.62715 105.027897 
L 94.515373 104.366471 
L 94.437128 104.167376 
L 93.917389 103.744262 
L 93.694875 103.706126 
L 93.186861 103.15268 
L 92.905524 102.448997 
L 92.866645 102.341497 
L 92.94008 102.384162 
L 93.047531 102.386584 
L 92.626725 101.991567 
L 92.470752 101.983251 
L 92.441117 102.512357 
L 91.460358 102.400662 
L 91.849702 102.720715 
L 91.667346 102.749525 
L 91.477501 102.745396 
L 91.368614 102.81682 
L 91.292385 102.528223 
L 91.35005 102.160476 
L 91.030155 101.300706 
L 90.191383 100.329969 
L 90.435341 100.450386 
L 90.241461 100.249466 
L 89.85296 99.703537 
L 89.651062 99.125052 
L 89.531759 99.034899 
L 89.726392 99.833759 
L 89.923319 100.022413 
L 89.868638 100.049125 
L 89.719126 100.161817 
L 89.77266 100.208146 
L 89.923319 100.372175 
L 89.839194 100.403478 
L 89.703831 100.327933 
L 89.660239 100.231936 
L 89.501168 100.421008 
L 89.37307 100.255727 
L 89.293152 99.677242 
L 89.329478 99.494013 
L 89.275562 99.385495 
L 89.098137 99.624235 
L 89.205835 100.277213 
L 89.012866 100.295795 
L 88.724167 99.931425 
L 88.512327 99.214371 
L 88.44313 99.04037 
L 88.762405 98.761934 
L 88.675604 98.314506 
L 88.822439 98.087452 
L 88.631491 97.667645 
L 88.573199 97.72162 
L 88.320371 98.301149 
L 88.454328 98.678474 
L 88.248448 99.039871 
L 88.146017 99.026092 
L 88.129742 98.69793 
L 88.075952 98.335952 
L 88.103706 98.16354 
L 88.278287 98.052355 
L 88.210168 97.957486 
L 88.451131 97.355875 
L 88.406819 97.272648 
L 88.46229 96.995478 
L 88.363266 96.927582 
L 88.271057 96.866474 
L 88.292649 96.457278 
L 88.382924 95.983832 
L 88.672927 95.450046 
L 88.878646 95.094431 
L 88.912878 93.924965 
L 88.799923 93.873902 
L 88.848909 93.566287 
L 88.945796 93.299396 
L 88.946056 93.221594 
L 88.829526 93.194133 
L 88.912278 93.065853 
L 89.321191 92.890316 
L 89.211373 92.849374 
L 88.816815 92.814344 
L 89.022425 92.67407 
L 88.845012 90.356034 
L 88.769203 90.409896 
L 88.792613 91.6636 
L 88.632248 92.577062 
L 88.6333 92.221893 
L 88.672853 91.643373 
L 88.588812 89.705059 
L 88.379806 89.373127 
L 88.298283 88.952368 
L 88.109788 88.613808 
L 87.747084 87.541142 
L 87.128101 86.935968 
L 86.858176 86.981023 
L 86.70901 86.775278 
L 86.592383 86.147126 
L 86.382455 85.663803 
L 85.826089 85.026885 
L 85.353846 84.793989 
L 85.169538 84.948418 
L 84.927872 85.080309 
L 84.387183 84.656254 
L 84.34818 84.402489 
L 84.064361 84.538374 
L 83.656067 84.197139 
L 83.134497 84.180444 
L 82.514454 83.520662 
L 81.807191 83.026188 
L 81.124194 82.431987 
L 80.621478 82.042221 
L 80.515941 81.906991 
L 80.178679 81.851897 
L 79.659234 81.214586 
L 79.615047 80.753777 
L 78.892344 79.472847 
L 79.094242 79.345547 
L 79.008588 79.302974 
L 78.80669 79.337199 
L 78.643795 79.515419 
L 78.61244 79.642719 
L 78.371539 79.693222 
L 78.410542 79.786297 
L 78.402894 79.863094 
L 78.184936 79.854747 
L 77.975008 79.422344 
L 78.293915 79.286279 
L 78.837663 78.802956 
L 79.042238 78.39977 
L 78.977998 77.693568 
L 78.673621 77.491975 
L 78.527551 77.572528 
L 78.403573 77.797019 
L 78.293839 78.736568 
L 78.028924 78.984098 
L 77.913062 78.904379 
L 77.734107 79.167327 
L 77.670574 79.772463 
L 77.527467 79.802449 
L 76.792604 79.33556 
L 76.00076 79.239199 
L 75.786929 79.238254 
L 75.477746 79.352505 
L 74.998924 80.123955 
L 74.81747 80.259027 
L 74.225533 80.048831 
L 73.955784 79.598477 
L 73.314911 79.143536 
L 73.126014 78.663552 
L 72.541039 77.75692 
L 71.662253 77.312085 
L 71.052944 77.299654 
L 70.964787 77.476949 
L 70.766713 77.464845 
L 70.350006 77.048994 
L 70.022292 76.456493 
L 69.433727 75.966878 
L 68.592485 75.660941 
L 68.087523 75.730343 
L 68.052718 75.946558 
L 67.518754 75.533223 
L 67.102168 75.357245 
L 66.85543 75.526046 
L 66.726328 75.424393 
L 66.770049 75.203495 
L 66.77655 75.090386 
L 66.233914 74.791196 
L 66.196093 73.513118 
L 66.056126 73.067057 
L 65.52157 72.631617 
L 65.354917 72.608949 
L 65.209175 72.338723 
L 63.915687 71.886758 
L 63.469299 71.050714 
L 63.01206 70.759659 
L 62.716042 70.761438 
L 62.620882 70.57336 
L 62.75164 70.677386 
L 62.838277 70.662906 
L 62.849862 70.347312 
L 62.616991 70.103981 
L 62.429241 70.183283 
L 62.243701 70.366099 
L 62.055313 70.297448 
L 61.878931 69.886478 
L 61.52423 69.777798 
L 61.401899 69.889841 
L 61.10212 69.445055 
L 60.982923 69.074877 
L 60.884798 68.773382 
L 60.630396 68.503821 
L 61.028408 68.445069 
L 61.284139 68.716225 
L 61.733395 68.756025 
L 62.137923 68.655411 
L 62.848404 68.768855 
L 62.921565 68.901313 
L 63.117235 68.935127 
L 63.631496 68.918028 
L 64.152914 69.111689 
L 65.135209 69.290006 
L 65.82885 69.154284 
L 66.1257 69.293466 
L 67.112664 68.735818 
L 67.843397 68.261261 
L 68.02197 68.405256 
L 68.037265 68.846006 
L 67.951612 69.388596 
L 68.356172 69.778844 
L 68.713318 70.084364 
L 69.156117 70.262167 
L 69.53697 70.491307 
L 69.84823 71.059775 
L 69.933501 71.000507 
L 70.282616 70.652832 
L 70.407273 70.381119 
L 70.142664 70.262167 
L 70.065423 70.194552 
L 70.112074 70.151979 
L 70.360622 70.144049 
L 70.415303 70.262167 
L 70.617201 70.262167 
L 70.702472 70.406997 
L 71.114681 70.517184 
L 71.285224 70.466264 
L 71.580805 69.855224 
L 70.935726 69.473741 
L 70.788126 69.533426 
L 70.578198 69.541356 
L 70.19008 68.990001 
L 70.166372 69.032574 
L 70.422568 69.719994 
L 70.352975 69.719994 
L 70.291029 69.838529 
L 70.228318 69.795956 
L 70.065423 69.855224 
L 69.832552 69.974177 
L 69.637919 69.906561 
L 69.19512 69.142761 
L 69.249801 68.676551 
L 69.544618 68.074693 
L 69.412696 68.048816 
L 69.467376 67.972853 
L 69.544618 67.87936 
L 69.506379 67.845553 
L 69.327424 67.692793 
L 69.373693 67.540033 
L 69.148469 67.531268 
L 69.024577 67.709905 
L 68.744673 67.80298 
L 68.488095 67.989548 
L 68.299923 68.136119 
L 68.242637 67.83155 
L 68.433414 67.463653 
L 68.870095 66.976156 
L 69.689101 66.094387 
L 69.71433 66.533097 
L 69.410689 66.837799 
L 69.398083 66.929176 
L 69.81565 67.715047 
L 69.954727 67.221552 
L 69.809267 66.837702 
L 69.657403 66.807263 
L 69.796586 66.661023 
L 70.08766 66.880369 
L 70.176193 67.020534 
L 70.461188 66.59408 
L 70.271313 66.545268 
L 70.011894 66.392892 
L 69.878941 66.411196 
L 69.8223 65.594522 
L 70.236348 64.800369 
L 70.080718 64.444763 
L 69.641979 64.352923 
L 70.415303 62.273567 
L 70.2111 62.058095 
L 70.143679 61.981202 
L 70.089131 61.602842 
L 69.777871 61.213012 
L 69.310786 61.168372 
L 69.337623 60.558205 
L 69.086523 60.187099 
L 68.261793 60.218383 
L 68.228049 59.834348 
L 68.01223 59.756603 
L 67.8642 59.525675 
L 67.555376 59.480324 
L 67.545059 59.140673 
L 67.419594 58.99773 
L 67.329857 58.634873 
L 67.135091 58.700513 
L 66.988149 58.35991 
L 67.034812 58.152045 
L 66.875227 57.965042 
L 66.703406 57.975014 
L 66.681234 57.799582 
L 66.098585 57.410288 
L 65.714329 57.391502 
L 65.541578 56.919597 
L 65.411826 56.931557 
L 65.255724 57.073417 
L 65.141719 56.743073 
L 65.099037 56.244554 
L 64.881844 55.749544 
L 64.340386 55.558072 
L 64.191054 55.732674 
L 63.909062 55.16146 
L 63.745785 54.740744 
L 63.435629 54.726961 
L 62.550839 53.767837 
L 61.680919 52.843764 
L 60.438557 52.421796 
L 59.659644 52.322043 
L 59.235199 51.691803 
L 58.733071 51.283274 
L 57.927451 51.005635 
L 56.931344 50.292755 
L 56.732718 50.447126 
L 54.884536 48.746449 
L 54.973669 48.198287 
L 54.840867 47.507208 
L 54.252371 46.934955 
L 53.829838 46.91033 
L 53.795041 46.789291 
L 54.057372 45.51086 
L 53.926199 44.452813 
L 53.83175 43.546687 
L 53.280256 42.679022 
L 52.650952 42.35591 
L 52.251745 42.345058 
L 52.612714 41.997801 
L 52.582123 41.708141 
L 52.279276 41.40596 
L 52.123264 41.358379 
L 52.380225 41.925177 
L 52.180463 42.029973 
L 51.995549 41.848797 
L 51.883128 42.091293 
L 52.054053 42.249896 
L 52.210657 42.775011 
L 51.977937 42.776972 
L 51.748336 41.934765 
L 51.557825 41.541682 
L 51.728263 40.028198 
L 51.674347 38.970981 
L 51.381442 38.119949 
L 51.0279 38.062138 
L 50.59156 37.662079 
L 50.368861 37.638162 
L 49.500502 36.574819 
L 48.868355 36.651473 
L 48.822151 36.313788 
L 48.955994 35.922069 
L 49.112766 34.680344 
L 48.811066 33.951603 
L 47.752939 32.731023 
L 47.039105 31.686914 
L 45.620465 30.394714 
L 45.746651 30.254058 
L 45.963845 30.259067 
L 45.779154 30.03744 
L 45.864425 29.249431 
L 45.534811 28.939738 
L 45.298481 28.910738 
L 44.96903 28.48632 
L 45.35968 28.569941 
L 45.806303 28.783638 
L 46.096149 28.481457 
L 46.263832 27.987125 
L 46.27116 27.557819 
L 46.197098 27.407129 
L 45.664422 27.292308 
L 45.265914 26.959714 
L 44.927799 26.873019 
L 44.785724 26.174196 
L 44.105465 26.08446 
L 43.79497 25.592372 
L 43.686374 24.591919 
L 43.248928 23.548059 
L 42.936521 23.314328 
L 42.388567 23.105639 
L 41.48385 21.105568 
L 41.447429 20.492586 
L 64.013025 18.64779 
L 63.756614 19.256044 
L 63.272445 19.848131 
L 63.339461 20.281728 
L 63.139869 20.832469 
L 78.867109 26.140581 
L 78.867109 26.140581 
" clip-path="url(#p4c18534279)" style="fill: none; stroke: #000000; stroke-width: 2"/>
   </g>
  </g>
 </g>
 <defs>
  <clipPath id="p4c18534279">
   <rect x="0" y="0" width="357.12" height="223.611277"/>
  </clipPath>
 </defs>
</svg>
