<?xml version="1.0" encoding="utf-8" standalone="no"?>
<!DOCTYPE svg PUBLIC "-//W3C//DTD SVG 1.1//EN"
  "http://www.w3.org/Graphics/SVG/1.1/DTD/svg11.dtd">
<svg xmlns:xlink="http://www.w3.org/1999/xlink" width="176.402731pt" height="266.112pt" viewBox="0 0 176.402731 266.112" xmlns="http://www.w3.org/2000/svg" version="1.1">
 <metadata>
  <rdf:RDF xmlns:dc="http://purl.org/dc/elements/1.1/" xmlns:cc="http://creativecommons.org/ns#" xmlns:rdf="http://www.w3.org/1999/02/22-rdf-syntax-ns#">
   <cc:Work>
    <dc:type rdf:resource="http://purl.org/dc/dcmitype/StillImage"/>
    <dc:date>2024-02-02T21:58:03.444212</dc:date>
    <dc:format>image/svg+xml</dc:format>
    <dc:creator>
     <cc:Agent>
      <dc:title>Matplotlib v3.8.2, https://matplotlib.org/</dc:title>
     </cc:Agent>
    </dc:creator>
   </cc:Work>
  </rdf:RDF>
 </metadata>
 <defs>
  <style type="text/css">*{stroke-linejoin: round; stroke-linecap: butt}</style>
 </defs>
 <g id="figure_1">
  <g id="patch_1">
   <path d="M 0 266.112 
L 176.402731 266.112 
L 176.402731 0 
L 0 0 
L 0 266.112 
z
" style="fill: none"/>
  </g>
  <g id="axes_1">
   <g id="PatchCollection_1">
    <path d="M 89.525758 243.914423 
L 88.8414 243.936 
L 89.922899 243.566493 
L 90.125015 243.387583 
L 90.642716 242.715098 
L 90.433508 243.254525 
L 90.061189 243.669883 
L 89.525758 243.914423 
" clip-path="url(#pbcb75d3bc8)" style="fill: none; stroke: #000000; stroke-width: 2"/>
    <path d="M 76.696701 221.226148 
L 76.441396 221.452707 
L 76.111628 221.277393 
L 76.116946 221.2711 
L 76.246372 221.323244 
L 76.420121 221.363701 
L 76.547773 221.320547 
L 76.647058 221.136243 
L 76.689609 220.947444 
L 76.682517 220.758645 
L 76.622237 220.576139 
L 76.785348 220.852145 
L 76.696701 221.226148 
" clip-path="url(#pbcb75d3bc8)" style="fill: none; stroke: #000000; stroke-width: 2"/>
    <path d="M 98.32313 220.214723 
L 98.190159 220.419705 
L 98.23271 220.174266 
L 98.32313 220.214723 
" clip-path="url(#pbcb75d3bc8)" style="fill: none; stroke: #000000; stroke-width: 2"/>
    <path d="M 109.529939 216.201391 
L 109.099113 216.870279 
L 108.55659 216.82263 
L 108.987417 216.579888 
L 109.148755 216.439637 
L 109.279953 216.240049 
L 109.412925 215.955952 
L 109.609722 215.288861 
L 109.751558 214.25496 
L 109.976722 213.686764 
L 110.423505 213.285791 
L 110.950071 212.954043 
L 111.350758 212.576445 
L 111.698256 212.134115 
L 111.412811 212.940558 
L 110.187703 213.776669 
L 109.911123 214.637054 
L 109.808292 215.296053 
L 109.529939 216.201391 
" clip-path="url(#pbcb75d3bc8)" style="fill: none; stroke: #000000; stroke-width: 2"/>
    <path d="M 160.968502 211.07684 
L 161.702503 211.227879 
L 161.234445 211.182028 
L 160.707879 211.281822 
L 160.234502 211.279124 
L 159.929554 210.926699 
L 159.975651 210.952771 
L 160.112168 211.006714 
L 160.323149 211.054363 
L 160.968502 211.07684 
" clip-path="url(#pbcb75d3bc8)" style="fill: none; stroke: #000000; stroke-width: 2"/>
    <path d="M 155.458177 210.585961 
L 155.500728 210.675866 
L 155.355346 210.674967 
L 155.131955 210.67227 
L 155.01494 210.580567 
L 154.990119 210.414244 
L 155.053945 210.176896 
L 155.139047 210.266801 
L 155.224148 210.389071 
L 155.458177 210.585961 
" clip-path="url(#pbcb75d3bc8)" style="fill: none; stroke: #000000; stroke-width: 2"/>
    <path d="M 152.295237 189.782982 
L 152.582455 189.889069 
L 153.997268 189.824338 
L 154.288031 189.889069 
L 155.259607 190.667641 
L 155.752487 190.945445 
L 155.178052 190.869027 
L 154.272075 190.183955 
L 153.655089 190.040108 
L 152.642735 190.194744 
L 152.178222 189.99156 
L 151.844908 189.286709 
L 152.061208 189.576201 
L 152.295237 189.782982 
" clip-path="url(#pbcb75d3bc8)" style="fill: none; stroke: #000000; stroke-width: 2"/>
    <path d="M 156.170903 189.707462 
L 155.915598 189.898059 
L 156.046797 189.691279 
L 156.527266 189.114093 
L 156.575135 189.052958 
L 156.607048 188.999015 
L 156.649599 188.961255 
L 156.716971 188.944173 
L 156.575135 189.230069 
L 156.390749 189.484499 
L 156.170903 189.707462 
" clip-path="url(#pbcb75d3bc8)" style="fill: none; stroke: #000000; stroke-width: 2"/>
    <path d="M 159.069674 188.290568 
L 158.702674 188.322934 
L 158.787775 188.254607 
L 158.879969 188.213251 
L 159.085631 188.146721 
L 159.261153 188.006471 
L 159.351573 187.859926 
L 159.337389 187.711584 
L 159.209737 187.564141 
L 159.504047 187.71518 
L 159.394124 188.022653 
L 159.069674 188.290568 
" clip-path="url(#pbcb75d3bc8)" style="fill: none; stroke: #000000; stroke-width: 2"/>
    <path d="M 140.512219 187.159571 
L 144.199953 188.65558 
L 144.441074 188.651984 
L 145.004871 188.544099 
L 145.47293 188.377776 
L 147.84159 187.900383 
L 147.260062 188.24202 
L 145.660863 188.480267 
L 145.001326 188.833591 
L 144.391431 188.833591 
L 143.671614 188.728403 
L 140.593775 187.337582 
L 140.044161 186.902444 
L 140.363292 186.557212 
L 140.36861 186.771184 
L 140.405842 186.907839 
L 140.512219 187.159571 
" clip-path="url(#pbcb75d3bc8)" style="fill: none; stroke: #000000; stroke-width: 2"/>
    <path d="M 89.993817 183.500462 
L 90.419324 183.525635 
L 91.993703 183.525635 
L 91.671026 183.867272 
L 91.153325 183.846594 
L 90.16402 183.608347 
L 89.068337 183.405163 
L 88.616235 183.239739 
L 88.706656 182.923276 
L 89.029332 183.21996 
L 89.51512 183.36111 
L 89.993817 183.500462 
" clip-path="url(#pbcb75d3bc8)" style="fill: none; stroke: #000000; stroke-width: 2"/>
    <path d="M 86.38232 181.098216 
L 86.476286 181.400295 
L 86.19616 181.209698 
L 86.004682 180.821311 
L 85.972769 180.389769 
L 86.164247 180.06971 
L 86.249349 180.364596 
L 86.38232 181.098216 
" clip-path="url(#pbcb75d3bc8)" style="fill: none; stroke: #000000; stroke-width: 2"/>
    <path d="M 95.025445 177.543396 
L 95.011262 177.707921 
L 94.945663 177.632401 
L 94.989986 177.500242 
L 95.000624 177.414833 
L 94.869426 177.255702 
L 94.635396 177.167596 
L 94.355271 177.152312 
L 94.477604 177.114552 
L 94.646034 177.090278 
L 94.816237 177.103764 
L 94.945663 177.174788 
L 95.025445 177.365385 
L 95.036083 177.428318 
L 95.025445 177.543396 
" clip-path="url(#pbcb75d3bc8)" style="fill: none; stroke: #000000; stroke-width: 2"/>
    <path d="M 60.874906 161.212261 
L 61.006104 161.445114 
L 60.830582 161.367796 
L 60.874906 161.212261 
" clip-path="url(#pbcb75d3bc8)" style="fill: none; stroke: #000000; stroke-width: 2"/>
    <path d="M 68.245054 152.033921 
L 68.06244 152.224518 
L 68.042938 152.096854 
L 68.034073 151.988968 
L 68.094353 151.890973 
L 68.250373 151.79927 
L 68.27874 151.935026 
L 68.245054 152.033921 
" clip-path="url(#pbcb75d3bc8)" style="fill: none; stroke: #000000; stroke-width: 2"/>
    <path d="M 136.037297 148.398186 
L 135.884823 148.647222 
L 135.762489 148.610361 
L 135.750079 148.605866 
L 135.735895 148.599572 
L 135.725258 148.590582 
L 135.719939 148.578894 
L 135.810359 148.380206 
L 135.881277 148.331657 
L 136.001838 148.317273 
L 136.037297 148.398186 
" clip-path="url(#pbcb75d3bc8)" style="fill: none; stroke: #000000; stroke-width: 2"/>
    <path d="M 122.864287 136.025542 
L 122.715359 136.201755 
L 122.683446 135.827753 
L 122.795142 135.834945 
L 122.864287 136.025542 
" clip-path="url(#pbcb75d3bc8)" style="fill: none; stroke: #000000; stroke-width: 2"/>
    <path d="M 136.625915 117.966445 
L 136.537268 117.977233 
L 136.533722 117.712015 
L 136.62237 117.699429 
L 136.625915 117.966445 
" clip-path="url(#pbcb75d3bc8)" style="fill: none; stroke: #000000; stroke-width: 2"/>
    <path d="M 49.818797 98.521021 
L 49.4057 98.746682 
L 48.928777 98.736792 
L 48.54582 98.431117 
L 49.331236 98.363689 
L 50.035097 98.129038 
L 49.818797 98.521021 
" clip-path="url(#pbcb75d3bc8)" style="fill: none; stroke: #000000; stroke-width: 2"/>
    <path d="M 20.547413 88.097505 
L 20.614785 88.254838 
L 20.320475 87.946466 
L 20.37721 87.963547 
L 20.465857 88.007601 
L 20.547413 88.097505 
" clip-path="url(#pbcb75d3bc8)" style="fill: none; stroke: #000000; stroke-width: 2"/>
    <path d="M 14.845609 86.351561 
L 14.700228 86.576322 
L 14.700228 86.29672 
L 14.799513 86.242777 
L 14.845609 86.351561 
" clip-path="url(#pbcb75d3bc8)" style="fill: none; stroke: #000000; stroke-width: 2"/>
    <path d="M 95.628248 22.560791 
L 95.41904 22.698345 
L 95.658388 22.42953 
L 95.929649 22.183192 
L 95.993475 22.176 
L 95.855185 22.346818 
L 95.628248 22.560791 
" clip-path="url(#pbcb75d3bc8)" style="fill: none; stroke: #000000; stroke-width: 2"/>
   </g>
  </g>
 </g>
 <defs>
  <clipPath id="pbcb75d3bc8">
   <rect x="0" y="-0" width="176.402731" height="266.112"/>
  </clipPath>
 </defs>
</svg>
