<?xml version="1.0" encoding="utf-8" standalone="no"?>
<!DOCTYPE svg PUBLIC "-//W3C//DTD SVG 1.1//EN"
  "http://www.w3.org/Graphics/SVG/1.1/DTD/svg11.dtd">
<svg xmlns:xlink="http://www.w3.org/1999/xlink" width="335.60576pt" height="266.112pt" viewBox="0 0 335.60576 266.112" xmlns="http://www.w3.org/2000/svg" version="1.1">
 <metadata>
  <rdf:RDF xmlns:dc="http://purl.org/dc/elements/1.1/" xmlns:cc="http://creativecommons.org/ns#" xmlns:rdf="http://www.w3.org/1999/02/22-rdf-syntax-ns#">
   <cc:Work>
    <dc:type rdf:resource="http://purl.org/dc/dcmitype/StillImage"/>
    <dc:date>2024-02-02T21:58:03.470219</dc:date>
    <dc:format>image/svg+xml</dc:format>
    <dc:creator>
     <cc:Agent>
      <dc:title>Matplotlib v3.8.2, https://matplotlib.org/</dc:title>
     </cc:Agent>
    </dc:creator>
   </cc:Work>
  </rdf:RDF>
 </metadata>
 <defs>
  <style type="text/css">*{stroke-linejoin: round; stroke-linecap: butt}</style>
 </defs>
 <g id="figure_1">
  <g id="patch_1">
   <path d="M 0 266.112 
L 335.60576 266.112 
L 335.60576 0 
L 0 0 
L 0 266.112 
z
" style="fill: none"/>
  </g>
  <g id="axes_1">
   <g id="PatchCollection_1">
    <path d="M 235.191287 30.471657 
L 245.940082 44.908058 
L 250.063833 47.985965 
L 251.50602 52.179001 
L 253.196082 55.061007 
L 255.472032 57.347775 
L 264.925112 64.113896 
L 271.257211 67.334962 
L 274.513398 68.016848 
L 275.009149 68.446323 
L 275.899248 69.689542 
L 276.620342 69.979626 
L 281.589124 69.757354 
L 282.704565 69.877908 
L 283.189049 70.465611 
L 283.820006 72.409553 
L 284.676304 73.07637 
L 285.442465 73.053766 
L 287.109993 72.473597 
L 287.729683 72.515038 
L 288.957795 73.332548 
L 289.55495 74.06341 
L 289.780291 75.171004 
L 289.904229 77.12248 
L 290.760527 78.704758 
L 291.01967 80.271966 
L 291.211211 83.771814 
L 292.02244 87.124736 
L 293.194217 90.455054 
L 293.363223 91.479767 
L 293.318155 93.630912 
L 293.739788 94.891108 
L 294.061782 95.250863 
L 295.334962 95.936517 
L 295.841981 96.52422 
L 296.529273 98.249656 
L 297.689782 103.241366 
L 300.022067 108.730363 
L 300.698092 109.804051 
L 301.892403 110.339012 
L 304.472564 110.474636 
L 305.633073 111.020898 
L 307.559744 114.091271 
L 307.638614 117.527074 
L 306.444303 120.917669 
L 304.044415 124.790482 
L 302.996577 127.634815 
L 302.399421 128.00778 
L 300.686825 128.505068 
L 300.146005 129.006122 
L 299.627719 130.678816 
L 299.289707 132.694337 
L 299.188303 134.792738 
L 299.368577 136.740447 
L 299.717856 137.569259 
L 300.754428 139.196745 
L 301.002303 140.183785 
L 300.912167 141.035201 
L 300.382614 143.453826 
L 300.731894 155.893543 
L 300.878366 156.601801 
L 301.509322 158.086128 
L 301.644527 158.930009 
L 301.374117 159.615663 
L 300.112204 161.190406 
L 299.762925 162.08703 
L 299.988266 165.198843 
L 300.540353 168.257914 
L 300.146005 170.97039 
L 297.54331 173.019816 
L 287.628279 172.258816 
L 282.715832 173.147906 
L 279.48218 176.018609 
L 278.344205 180.629819 
L 277.893522 192.172912 
L 276.85695 197.8013 
L 275.606304 200.747351 
L 274.423261 201.613836 
L 273.003609 200.898044 
L 271.065671 199.142469 
L 270.22064 197.989667 
L 269.736156 196.859468 
L 269.105199 196.015587 
L 267.843286 195.699131 
L 266.187025 196.158745 
L 265.815212 197.221132 
L 265.905348 198.532162 
L 265.657472 199.722638 
L 263.787137 202.148797 
L 261.916802 203.731075 
L 259.854926 204.552352 
L 257.455038 204.695511 
L 253.894641 204.153015 
L 252.15951 204.168085 
L 248.542778 205.207867 
L 246.79638 205.403769 
L 243.562728 205.26061 
L 242.323349 204.785927 
L 240.013598 203.263926 
L 239.022095 202.774173 
L 237.658778 202.676223 
L 234.898343 203.17351 
L 232.836468 203.241322 
L 231.923834 203.83656 
L 231.236542 203.753679 
L 231.011201 203.248857 
L 230.853461 201.32752 
L 230.571785 200.76242 
L 229.569014 200.468569 
L 226.245226 200.039093 
L 222.121474 198.705459 
L 220.01453 198.441746 
L 217.54704 198.660251 
L 215.057015 199.828123 
L 211.136071 203.429689 
L 208.848854 204.258501 
L 208.037624 203.94958 
L 204.420891 201.9755 
L 204.150481 201.561094 
L 203.970208 200.822698 
L 203.632195 200.121974 
L 202.832233 199.835657 
L 202.38155 200.11444 
L 201.266109 201.380262 
L 200.747823 201.772064 
L 193.7735 203.844095 
L 190.460979 205.659947 
L 187.666743 207.762116 
L 186.810445 208.741621 
L 186.371028 210.127998 
L 186.258358 213.021306 
L 186.05555 214.1289 
L 184.568296 216.374228 
L 180.681153 220.171695 
L 179.182631 222.921844 
L 175.081414 225.830221 
L 173.999774 227.201529 
L 173.796967 228.407074 
L 173.7857 229.981817 
L 173.391352 231.639441 
L 172.016768 233.071026 
L 168.907054 233.764214 
L 163.25098 232.475788 
L 160.175067 233.899838 
L 159.949725 234.472472 
L 159.713116 236.356136 
L 159.296235 237.169879 
L 158.755415 237.36578 
L 157.189291 237.275364 
L 156.558334 237.373315 
L 155.465427 238.262404 
L 152.919067 240.831722 
L 151.961365 241.472167 
L 148.919254 240.869395 
L 144.10821 236.484225 
L 135.376223 235.248542 
L 132.705925 235.301284 
L 130.125764 236.484225 
L 126.159751 240.485127 
L 124.458422 241.472167 
L 120.76282 242.263306 
L 117.010882 242.270841 
L 111.354808 241.065296 
L 108.515504 240.907068 
L 100.786287 243.27295 
L 84.775765 243.936 
L 84.730697 240.063187 
L 83.840598 237.320572 
L 82.015331 235.527324 
L 76.595865 233.892303 
L 70.743463 233.072146 
L 68.607505 233.605987 
L 64.979505 236.695196 
L 63.064102 237.471265 
L 60.314934 236.853423 
L 57.734773 234.6307 
L 56.157382 231.262708 
L 54.050438 222.876636 
L 51.943493 213.352831 
L 50.828052 211.002018 
L 49.645009 210.08279 
L 48.394363 209.894424 
L 47.019779 209.962235 
L 45.532525 209.804008 
L 42.445345 208.342284 
L 41.679183 206.36067 
L 41.746786 203.776283 
L 41.194699 200.483638 
L 39.470836 197.100577 
L 35.437221 191.336565 
L 34.062637 187.637049 
L 32.214836 179.770868 
L 31.668336 175.08842 
L 32.057097 172.228677 
L 33.623221 172.725965 
L 35.189345 171.761529 
L 36.608997 169.953211 
L 37.645569 167.964062 
L 38.41173 165.530368 
L 38.434264 163.556288 
L 37.769507 161.76304 
L 36.473792 159.909515 
L 35.651295 159.359485 
L 33.837295 159.065633 
L 33.059867 158.402583 
L 32.845792 157.611444 
L 32.620451 155.230493 
L 32.048652 153.701244 
L 30.874053 151.440561 
L 30.040289 150.566541 
L 28.823445 150.008977 
L 28.057283 147.838995 
L 28.372762 143.905905 
L 27.967147 141.833875 
L 33.285209 140.666003 
L 34.8626 139.995418 
L 36.32732 139.106329 
L 37.251221 138.156962 
L 37.834462 136.342424 
L 37.825842 135.365372 
L 35.51609 128.603018 
L 34.964004 125.491205 
L 34.096438 114.942687 
L 34.411917 113.405617 
L 35.290749 111.465443 
L 36.361121 110.048927 
L 38.896215 107.554956 
L 39.606041 106.277832 
L 39.335631 103.26397 
L 38.468065 99.58329 
L 38.60327 96.35469 
L 41.374972 94.66316 
L 43.898798 97.353032 
L 45.217047 98.061289 
L 46.997245 97.967106 
L 47.808475 97.28522 
L 48.991518 95.073799 
L 49.690078 94.595348 
L 50.715382 95.232026 
L 52.788525 98.144171 
L 53.836363 98.916473 
L 56.179916 98.10273 
L 58.399531 95.620061 
L 60.21353 92.496946 
L 61.362773 89.761866 
L 61.790922 86.246949 
L 60.416338 80.433962 
L 60.551543 77.12248 
L 61.892325 69.934418 
L 62.985232 66.792466 
L 65.11471 64.211847 
L 67.908946 62.622034 
L 88.989653 55.475413 
L 91.750088 54.096571 
L 96.673802 49.278158 
L 99.299032 47.601697 
L 100.144063 47.624301 
L 100.876423 47.827737 
L 102.341144 48.626411 
L 106.487429 51.817337 
L 110.352038 55.5922 
L 112.132236 58.508112 
L 113.135007 60.602747 
L 114.487056 61.977821 
L 120.052994 63.09295 
L 121.190969 62.844307 
L 121.405043 61.503138 
L 121.30364 58.545785 
L 121.134634 57.302567 
L 120.582547 55.735359 
L 120.717752 54.4507 
L 127.12872 44.682018 
L 128.548372 43.532983 
L 130.452509 43.374755 
L 134.249515 44.821409 
L 135.421291 44.700855 
L 135.297354 43.721349 
L 134.508658 42.440458 
L 134.339652 41.170868 
L 136.131117 40.176294 
L 137.39303 40.57563 
L 138.407068 41.611646 
L 139.533776 41.890428 
L 141.054832 40.044437 
L 142.992769 41.374304 
L 145.234918 41.321561 
L 149.809353 40.134853 
L 151.251539 40.884551 
L 156.659738 40.775299 
L 160.479278 41.826383 
L 162.36088 41.916799 
L 164.005874 40.884551 
L 165.583265 38.982051 
L 177.650308 31.680969 
L 179.847389 31.183682 
L 184.207749 31.232657 
L 184.973911 31.04429 
L 188.669513 27.860898 
L 189.841289 27.310868 
L 191.204606 27.60472 
L 197.029686 30.592211 
L 200.590084 31.854266 
L 204.218084 32.272439 
L 207.992556 31.583018 
L 223.022841 25.302883 
L 225.895946 22.356832 
L 226.887449 22.176 
L 227.371934 22.884258 
L 227.450803 25.36316 
L 227.766281 26.418012 
L 229.366207 28.290373 
L 231.112604 29.612706 
L 233.039275 30.343567 
L 235.191287 30.471657 
L 235.191287 30.471657 
" clip-path="url(#pa6200442de)" style="fill: none; stroke: #000000; stroke-width: 2"/>
   </g>
  </g>
 </g>
 <defs>
  <clipPath id="pa6200442de">
   <rect x="0" y="-0" width="335.60576" height="266.112"/>
  </clipPath>
 </defs>
</svg>
