<?xml version="1.0" encoding="utf-8" standalone="no"?>
<!DOCTYPE svg PUBLIC "-//W3C//DTD SVG 1.1//EN"
  "http://www.w3.org/Graphics/SVG/1.1/DTD/svg11.dtd">
<svg xmlns:xlink="http://www.w3.org/1999/xlink" width="281.79095pt" height="266.112pt" viewBox="0 0 281.79095 266.112" xmlns="http://www.w3.org/2000/svg" version="1.1">
 <metadata>
  <rdf:RDF xmlns:dc="http://purl.org/dc/elements/1.1/" xmlns:cc="http://creativecommons.org/ns#" xmlns:rdf="http://www.w3.org/1999/02/22-rdf-syntax-ns#">
   <cc:Work>
    <dc:type rdf:resource="http://purl.org/dc/dcmitype/StillImage"/>
    <dc:date>2024-02-02T21:58:03.496224</dc:date>
    <dc:format>image/svg+xml</dc:format>
    <dc:creator>
     <cc:Agent>
      <dc:title>Matplotlib v3.8.2, https://matplotlib.org/</dc:title>
     </cc:Agent>
    </dc:creator>
   </cc:Work>
  </rdf:RDF>
 </metadata>
 <defs>
  <style type="text/css">*{stroke-linejoin: round; stroke-linecap: butt}</style>
 </defs>
 <g id="figure_1">
  <g id="patch_1">
   <path d="M 0 266.112 
L 281.79095 266.112 
L 281.79095 0 
L 0 0 
L 0 266.112 
z
" style="fill: none"/>
  </g>
  <g id="axes_1">
   <g id="PatchCollection_1">
    <path d="M 129.410494 22.180629 
L 137.604281 27.669432 
L 214.343899 80.297144 
L 214.526294 80.598777 
L 214.82195 81.885541 
L 214.642497 83.517139 
L 214.315951 85.15568 
L 214.458631 85.714974 
L 214.980809 85.837633 
L 215.282349 85.833005 
L 216.148724 85.705717 
L 216.678257 85.954893 
L 217.196022 86.754877 
L 217.438725 86.925365 
L 220.224656 87.824094 
L 221.135159 88.514534 
L 221.42346 88.941141 
L 221.510245 89.473435 
L 221.498477 90.592025 
L 221.639686 90.809571 
L 223.632789 92.341653 
L 224.649198 92.510985 
L 224.944854 93.283583 
L 225.412608 93.218782 
L 225.853886 92.938363 
L 226.143658 93.035179 
L 226.396657 93.221482 
L 227.504263 93.560145 
L 227.877878 93.396985 
L 228.78691 92.63943 
L 229.086978 92.5862 
L 229.595918 92.801432 
L 230.469648 93.490329 
L 231.446342 94.689149 
L 232.189159 95.89954 
L 233.97192 96.517464 
L 235.270746 96.768182 
L 236.051807 96.800197 
L 239.954171 97.614839 
L 241.756054 98.40248 
L 242.81512 99.163121 
L 243.552053 99.423097 
L 243.807994 99.818075 
L 243.560879 103.405276 
L 243.894779 104.087615 
L 244.028633 104.275461 
L 244.063935 105.083546 
L 244.397835 105.545639 
L 244.434608 105.875044 
L 244.29487 106.216407 
L 243.338769 107.081578 
L 243.204915 107.915506 
L 242.632725 108.494473 
L 242.204686 109.648934 
L 242.697446 110.238315 
L 243.281403 110.627122 
L 243.938906 110.909855 
L 245.111233 111.945514 
L 245.462784 112.03693 
L 245.827574 112.017644 
L 248.473767 111.447163 
L 258.208348 109.548647 
L 258.308371 141.590453 
L 257.770012 142.047917 
L 257.752361 142.317922 
L 257.76707 143.939491 
L 257.544961 144.370727 
L 257.572908 150.246022 
L 257.458176 150.595485 
L 257.256659 150.784488 
L 256.3035 151.36924 
L 255.816624 152.003365 
L 254.483966 155.583623 
L 254.539861 155.996344 
L 254.716372 156.696041 
L 253.672016 157.87866 
L 253.580818 158.154065 
L 253.339587 160.187583 
L 253.12189 160.714478 
L 252.764455 161.15497 
L 252.227568 161.449275 
L 251.096426 161.66875 
L 250.574248 161.958812 
L 249.462229 163.208547 
L 248.216356 163.981531 
L 248.073676 164.381137 
L 247.939822 166.101065 
L 246.136468 165.767417 
L 241.200044 165.019119 
L 240.869086 165.150264 
L 240.805836 165.573785 
L 240.724936 166.322854 
L 216.497333 167.269027 
L 216.113422 167.505474 
L 211.537374 171.690541 
L 211.150521 171.773857 
L 208.973553 171.847144 
L 207.562936 172.284937 
L 205.353607 171.481481 
L 204.907916 171.503081 
L 203.534808 171.933931 
L 203.05308 171.931231 
L 201.175445 171.445995 
L 201.060713 171.602983 
L 201.13573 172.714244 
L 197.551086 171.445995 
L 195.649916 170.643696 
L 194.657777 170.405706 
L 193.768603 170.568095 
L 192.366811 171.353422 
L 191.967455 171.346479 
L 191.826982 171.159019 
L 191.367318 170.192403 
L 187.78341 170.214003 
L 187.311243 170.344377 
L 186.88541 170.662982 
L 186.122736 171.445223 
L 182.676359 174.4253 
L 182.133588 174.662904 
L 179.414583 175.346401 
L 178.809297 175.64032 
L 173.875816 178.907373 
L 172.882941 179.100619 
L 171.882712 179.154234 
L 170.031554 179.092133 
L 169.60425 179.286922 
L 169.490989 179.6819 
L 169.174004 183.505162 
L 169.051182 183.608149 
L 167.856791 184.092614 
L 167.400805 183.982684 
L 164.074308 182.361886 
L 162.991707 182.120039 
L 162.21653 182.314828 
L 160.741928 183.274115 
L 159.696836 184.474478 
L 157.595252 185.671754 
L 157.219063 186.305493 
L 157.342621 186.310122 
L 157.388587 186.37068 
L 156.83221 188.305454 
L 156.354159 189.304856 
L 156.420719 190.10484 
L 156.821178 191.513878 
L 155.624581 191.873369 
L 155.404677 191.762667 
L 154.946484 191.757267 
L 154.780637 191.843283 
L 154.369514 192.183874 
L 153.90654 191.348403 
L 153.549841 191.131243 
L 152.543361 191.166729 
L 151.908657 190.673007 
L 151.529526 190.537619 
L 151.246373 190.825366 
L 151.540558 191.055642 
L 151.633962 191.414362 
L 151.499372 192.596981 
L 151.28903 193.14779 
L 151.791718 196.87115 
L 151.595717 197.003452 
L 148.946582 197.274228 
L 148.893629 197.696207 
L 149.075656 198.482305 
L 148.933344 198.721837 
L 148.585414 198.739876 
L 147.446974 198.550963 
L 147.124106 198.266687 
L 146.835437 198.265144 
L 143.964192 196.059594 
L 142.626753 195.585158 
L 142.111194 195.5651 
L 141.502231 195.468285 
L 141.325353 195.323254 
L 142.02441 194.749687 
L 142.256816 194.668686 
L 142.188418 194.468111 
L 141.677639 194.256351 
L 141.466929 193.793486 
L 141.319101 193.836687 
L 141.127146 194.068505 
L 141.208782 194.132534 
L 141.502231 194.226264 
L 141.237465 194.537155 
L 140.350497 195.136179 
L 139.852222 195.300496 
L 139.466472 195.800004 
L 139.004601 196.76932 
L 138.580975 197.175869 
L 138.173529 197.166612 
L 137.699891 197.557733 
L 137.424828 198.045284 
L 137.523012 198.1853 
L 137.856544 198.488477 
L 137.59472 198.667065 
L 136.683482 198.621164 
L 136.443721 198.725695 
L 136.101731 199.658367 
L 136.183 199.792983 
L 136.595226 200.184104 
L 137.15712 201.298065 
L 137.83448 202.003934 
L 137.948477 202.417426 
L 137.90104 203.264468 
L 138.062841 204.120382 
L 137.604657 205.288398 
L 137.165945 205.501262 
L 136.673185 205.481204 
L 136.26721 205.230872 
L 135.848732 205.138299 
L 134.903663 205.296058 
L 134.192103 205.501262 
L 134.105686 206.275789 
L 134.230715 206.52265 
L 135.085322 207.254747 
L 135.498652 208.46051 
L 134.670521 209.671672 
L 135.186816 210.940693 
L 135.318096 211.580218 
L 134.895573 211.665848 
L 134.306835 211.283984 
L 134.114512 211.48533 
L 134.074061 212.097083 
L 134.018901 212.158798 
L 132.764938 213.225701 
L 133.121637 213.938513 
L 132.982635 214.096658 
L 132.554596 214.116716 
L 132.04492 214.415264 
L 131.51171 215.278506 
L 130.778086 215.421994 
L 130.468457 215.945031 
L 130.26363 216.071548 
L 129.615688 216.225836 
L 129.339154 215.980518 
L 129.040189 215.975118 
L 128.137409 216.198064 
L 127.524401 216.093919 
L 126.377815 216.47964 
L 125.594915 216.47964 
L 124.262993 217.201709 
L 123.884965 217.640659 
L 123.333368 218.104295 
L 122.845757 218.611903 
L 122.439046 218.515473 
L 122.325785 218.597246 
L 121.784484 218.713733 
L 121.60209 218.854907 
L 120.99754 218.729934 
L 121.088001 218.972166 
L 122.611144 219.563861 
L 122.887678 220.06607 
L 122.871498 220.656222 
L 122.670717 221.390634 
L 122.48538 221.708468 
L 122.59717 222.045588 
L 123.031093 222.080302 
L 123.537091 222.499966 
L 123.668739 223.025703 
L 123.643733 224.925763 
L 123.116407 225.273683 
L 123.053892 225.544844 
L 123.125232 227.342688 
L 122.948721 227.65435 
L 122.500825 228.121843 
L 122.366235 228.466292 
L 122.278715 229.074959 
L 122.133829 229.283634 
L 121.313788 229.684783 
L 119.895817 229.872629 
L 119.689887 230.013417 
L 119.670396 230.38214 
L 119.81271 231.15515 
L 119.724454 231.543185 
L 120.047322 231.463726 
L 120.240013 231.876447 
L 120.726154 233.417015 
L 120.419466 234.622006 
L 120.206182 234.790566 
L 120.133371 235.011584 
L 120.004665 235.946956 
L 120.092921 236.317633 
L 120.311353 236.404421 
L 120.071592 236.777798 
L 120.055412 237.00653 
L 120.203976 237.251463 
L 120.011284 238.035247 
L 119.622225 238.697915 
L 119.428798 239.674945 
L 118.411654 239.250267 
L 118.01671 239.354797 
L 117.223146 239.435798 
L 115.39111 239.854305 
L 114.152591 240.577531 
L 113.929746 241.099411 
L 113.990054 241.917139 
L 113.823839 242.046355 
L 113.160452 241.806051 
L 112.993502 241.941825 
L 112.844203 242.633807 
L 112.407339 243.192331 
L 111.134989 243.201202 
L 109.868522 242.680094 
L 109.4346 242.219544 
L 109.218374 242.26583 
L 109.208813 241.509818 
L 109.419155 241.332001 
L 109.583163 241.431902 
L 109.730991 241.308857 
L 109.669212 241.070868 
L 110.01635 240.669718 
L 109.805273 240.49113 
L 109.8494 240.216497 
L 110.064155 239.753632 
L 109.782473 239.327411 
L 109.842781 238.641985 
L 109.386795 238.554041 
L 109.109525 238.356167 
L 108.915363 238.352309 
L 108.987438 238.006704 
L 109.341196 237.663412 
L 109.319867 237.307007 
L 109.237496 237.099875 
L 109.505939 236.892743 
L 109.724372 236.627753 
L 109.547125 236.396706 
L 109.083784 236.090444 
L 109.135266 235.267316 
L 108.991116 235.181686 
L 108.313755 235.380333 
L 107.770984 235.704724 
L 106.801644 235.660751 
L 106.556735 235.784568 
L 106.457448 236.055729 
L 106.504517 236.846456 
L 106.952414 237.182033 
L 106.901667 237.530725 
L 106.63543 237.717799 
L 105.988223 237.763314 
L 104.983581 237.522239 
L 104.115 236.996502 
L 103.90098 236.793998 
L 103.424401 236.154088 
L 103.110358 236.261318 
L 103.128745 236.309919 
L 102.828676 236.95253 
L 102.876481 237.457823 
L 102.916196 237.577783 
L 102.731595 238.992605 
L 103.018426 239.340911 
L 103.41484 239.567329 
L 103.339823 239.860477 
L 103.18464 240.085352 
L 102.99342 240.816292 
L 102.666875 240.926223 
L 102.350626 240.890736 
L 101.503373 240.457958 
L 101.193008 240.490358 
L 100.080989 240.932394 
L 98.953525 240.878393 
L 98.784369 241.066239 
L 98.474739 242.452904 
L 98.948377 242.876426 
L 98.980002 243.257518 
L 98.805697 243.572266 
L 98.177612 243.923657 
L 97.825326 243.936 
L 97.361249 243.361662 
L 96.888346 242.932741 
L 95.488026 242.526191 
L 94.359827 242.34606 
L 93.230156 242.261973 
L 93.110276 242.077984 
L 93.097773 241.718493 
L 93.188235 241.108668 
L 93.102921 240.879936 
L 92.780053 240.858336 
L 92.076951 241.037696 
L 91.690098 239.44197 
L 91.43048 239.217866 
L 91.060542 239.192409 
L 90.483572 239.797604 
L 89.752155 239.776004 
L 89.241008 239.451227 
L 88.865923 239.625959 
L 88.737952 239.966936 
L 88.058385 240.310998 
L 87.926737 240.379657 
L 88.0981 240.598746 
L 87.936666 240.845221 
L 87.335425 241.102497 
L 87.522968 241.35553 
L 86.60364 242.867168 
L 86.202078 243.124444 
L 85.703434 243.267546 
L 85.179785 243.623952 
L 84.58406 243.711896 
L 84.317088 243.608523 
L 84.70247 242.544706 
L 84.579648 241.819937 
L 84.222948 241.126412 
L 83.946414 240.960937 
L 82.802035 240.850621 
L 82.449013 240.457958 
L 82.385028 239.881306 
L 82.148209 239.612844 
L 81.80769 239.785261 
L 81.172986 239.845434 
L 80.912632 239.705803 
L 79.963886 238.003618 
L 79.678526 234.784394 
L 79.30344 234.632806 
L 79.333594 234.325001 
L 79.848418 232.966108 
L 79.741776 231.086491 
L 79.226952 230.454681 
L 78.743018 230.29345 
L 78.328217 230.47281 
L 77.934009 230.355937 
L 77.494938 230.40608 
L 76.972024 230.310422 
L 76.462349 231.340681 
L 75.977679 231.594871 
L 74.478807 231.810489 
L 74.26111 231.654658 
L 74.197125 231.42014 
L 74.368488 230.910989 
L 74.494987 230.722371 
L 75.301789 229.736084 
L 75.411373 229.097331 
L 76.062257 228.742853 
L 76.143894 228.210945 
L 76.418957 227.889254 
L 77.096318 227.505076 
L 77.009533 227.285601 
L 77.292686 226.845108 
L 78.381906 226.988982 
L 78.64226 226.897566 
L 78.808474 226.699692 
L 78.889375 226.3132 
L 78.743753 226.245313 
L 78.221575 226.239141 
L 78.106108 226.015809 
L 78.275999 225.821792 
L 78.828332 225.610031 
L 78.510612 225.337712 
L 78.082573 225.125952 
L 76.548398 224.558557 
L 76.348352 223.781716 
L 75.983563 224.077949 
L 75.599652 224.050949 
L 74.823003 223.6876 
L 74.506019 223.188863 
L 74.339805 222.618768 
L 74.024291 221.543379 
L 73.830129 221.402977 
L 73.10864 221.605095 
L 72.112089 221.276461 
L 72.815191 217.28811 
L 72.572121 216.836046 
L 72.502619 215.981289 
L 72.243737 215.749857 
L 71.622271 215.734428 
L 71.308228 215.716685 
L 71.046404 215.492967 
L 70.986831 215.210619 
L 71.275133 213.964742 
L 70.976535 213.373047 
L 70.763251 213.24653 
L 70.310206 213.369961 
L 69.972629 212.664864 
L 69.996164 212.273743 
L 70.463182 211.330271 
L 70.439647 211.000865 
L 70.025582 210.385255 
L 67.241121 209.015947 
L 65.968036 208.789144 
L 65.752545 208.948061 
L 65.181827 208.761372 
L 64.944272 208.935718 
L 64.271324 209.105435 
L 64.06613 209.372353 
L 64.347812 209.780446 
L 64.605224 210.032707 
L 65.03547 210.362884 
L 65.110855 210.637517 
L 65.547351 211.01938 
L 65.357602 211.539331 
L 65.170059 211.594104 
L 65.144318 212.141827 
L 64.811889 212.488204 
L 63.69178 212.367088 
L 62.880565 212.816066 
L 62.599618 213.079128 
L 60.997781 213.629937 
L 60.329246 214.169945 
L 60.207894 214.655182 
L 60.170386 215.152761 
L 59.648208 215.790743 
L 58.600174 215.68737 
L 57.97356 215.348707 
L 57.54552 215.39268 
L 57.288844 215.266163 
L 56.537937 214.785555 
L 56.252578 214.736955 
L 54.704429 213.933113 
L 54.208728 213.801968 
L 53.772598 213.550478 
L 53.147455 213.509592 
L 52.648076 213.265045 
L 52.089125 213.076813 
L 51.90673 212.918668 
L 51.36543 213.141614 
L 51.242608 213.316732 
L 51.201422 213.231102 
L 51.07198 213.187901 
L 50.876347 213.40159 
L 50.666005 213.470248 
L 50.676302 213.684709 
L 50.277681 213.481048 
L 49.601056 214.029543 
L 49.362766 214.368206 
L 48.682463 214.312662 
L 48.424316 214.407549 
L 48.409606 214.551037 
L 48.476534 214.907443 
L 48.343415 214.970701 
L 48.37504 215.380336 
L 47.643255 215.912631 
L 47.743278 216.242036 
L 47.228454 216.470383 
L 46.859987 216.802102 
L 46.680534 217.283482 
L 46.382672 217.678459 
L 46.170859 217.781833 
L 45.581754 217.806519 
L 45.169159 217.366026 
L 44.59035 216.226607 
L 44.143189 215.67117 
L 44.302784 215.286221 
L 44.341028 215.153533 
L 44.249831 214.737726 
L 43.65999 214.358177 
L 43.329032 214.103601 
L 42.757578 213.182501 
L 42.503108 212.991183 
L 41.872081 212.907096 
L 41.253557 213.118471 
L 40.729173 213.147014 
L 40.622531 213.297445 
L 40.273921 214.131373 
L 39.736298 214.56878 
L 39.420785 214.956044 
L 39.205294 215.01313 
L 38.964063 215.729799 
L 38.752985 215.95506 
L 37.560065 216.225836 
L 36.988611 215.97126 
L 36.473787 215.567025 
L 35.644921 214.559523 
L 34.773398 214.160688 
L 34.50569 213.913055 
L 34.246807 213.309789 
L 34.476271 212.872381 
L 34.880776 212.438832 
L 35.146277 211.848679 
L 35.108769 210.578887 
L 35.330143 210.453142 
L 35.942783 210.43077 
L 35.972202 209.744188 
L 36.09723 209.00129 
L 35.917042 208.742857 
L 35.886153 208.827716 
L 35.773627 209.011319 
L 35.74715 208.877088 
L 35.539014 208.268421 
L 35.428695 208.312393 
L 35.35662 208.581626 
L 35.241888 208.47671 
L 34.974179 208.11259 
L 34.816055 208.056275 
L 35.231591 207.541723 
L 35.185992 207.280205 
L 35.256597 206.653795 
L 35.075673 206.419277 
L 34.913136 206.341361 
L 34.987418 206.009641 
L 35.098472 205.930183 
L 35.249242 205.53752 
L 35.633889 205.439547 
L 35.723615 205.105127 
L 35.573581 204.761835 
L 35.703758 204.49106 
L 35.552988 203.927908 
L 35.396335 203.552216 
L 35.418399 203.487801 
L 35.426489 203.090508 
L 35.534602 202.705559 
L 35.393393 202.45677 
L 35.587555 202.440569 
L 35.739796 202.489941 
L 36.002356 202.24038 
L 35.874385 201.52834 
L 35.75524 201.398738 
L 35.616973 201.828431 
L 35.45223 201.898632 
L 35.23012 201.855431 
L 35.330143 201.040789 
L 35.218353 200.898458 
L 34.970502 200.339549 
L 35.065377 200.120846 
L 33.887166 199.572737 
L 33.815826 199.33089 
L 33.809207 198.80901 
L 33.328214 198.000926 
L 33.524583 197.263428 
L 33.20245 196.97028 
L 32.749405 196.180325 
L 32.747935 195.855548 
L 32.64497 195.904535 
L 32.308863 195.933464 
L 32.225756 195.507628 
L 31.311576 195.448227 
L 31.128446 195.184009 
L 30.924723 195.153922 
L 30.707026 195.273496 
L 30.479033 195.827776 
L 30.44226 196.116295 
L 29.687675 196.654761 
L 29.453798 196.407514 
L 29.200799 195.926135 
L 28.665383 195.536557 
L 28.899995 194.471197 
L 28.686711 194.247865 
L 28.4065 194.155292 
L 28.109373 193.733699 
L 27.026037 192.815684 
L 26.710524 192.310776 
L 26.239828 191.191415 
L 25.852239 190.726236 
L 27.066487 190.028082 
L 27.543067 189.525874 
L 27.76959 188.859349 
L 27.856374 187.950591 
L 27.76959 187.669787 
L 26.881151 186.53384 
L 26.882622 185.914372 
L 27.306984 184.163587 
L 27.276094 183.833024 
L 26.611236 182.3588 
L 26.41119 182.22187 
L 25.676464 181.862764 
L 25.422729 181.472415 
L 25.633071 181.393342 
L 25.69485 181.20781 
L 25.596298 181.01225 
L 24.086026 180.473013 
L 24.076097 179.522211 
L 23.876787 178.559067 
L 23.962836 178.301792 
L 24.335716 178.039502 
L 24.523258 177.386477 
L 24.879958 176.980699 
L 24.893196 176.731523 
L 24.506343 176.358146 
L 24.675499 175.970882 
L 24.517375 175.961625 
L 24.070581 175.814666 
L 23.482579 174.745062 
L 24.042634 174.916708 
L 24.348954 174.875822 
L 25.26534 174.60196 
L 25.481566 174.719605 
L 26.239828 175.350258 
L 26.534748 174.860393 
L 27.084139 174.927123 
L 27.612201 174.671776 
L 28.152765 174.018365 
L 28.985309 173.751061 
L 29.309648 173.366112 
L 29.56044 172.981162 
L 29.797259 172.782516 
L 29.647961 172.483583 
L 29.786963 170.791813 
L 29.530287 170.653725 
L 29.361866 170.759026 
L 29.246398 170.578123 
L 29.280229 170.127602 
L 29.458947 169.372361 
L 29.402316 169.024441 
L 29.438354 168.712007 
L 29.706797 167.913566 
L 29.847271 166.965079 
L 30.323115 165.923248 
L 30.730561 164.38268 
L 31.12624 163.816828 
L 31.12624 163.30652 
L 32.306657 163.52638 
L 32.722929 163.30652 
L 33.467217 162.61878 
L 34.012194 162.423991 
L 34.182086 162.126986 
L 34.079122 161.939526 
L 33.968802 161.792952 
L 34.010723 161.779452 
L 34.138694 161.76518 
L 35.28528 162.079157 
L 35.644921 162.395448 
L 37.229842 164.651913 
L 41.292537 167.80865 
L 41.684538 168.586263 
L 42.213336 169.116243 
L 42.68109 169.849112 
L 42.808325 169.597236 
L 43.149579 168.506418 
L 43.693086 167.883865 
L 43.932847 167.090438 
L 44.317494 166.804619 
L 44.580054 166.78109 
L 44.737443 166.538472 
L 45.077226 166.292768 
L 45.189752 165.978792 
L 45.22579 165.076206 
L 45.382443 164.920374 
L 45.612643 164.908417 
L 47.065181 165.049205 
L 48.583911 164.811601 
L 51.311741 164.88836 
L 52.653225 165.384396 
L 53.024633 165.34351 
L 54.1646 165.923248 
L 54.743409 165.94022 
L 56.397464 165.694516 
L 58.045635 165.845332 
L 58.589877 165.708016 
L 59.679097 165.101663 
L 60.37227 164.956246 
L 63.905064 164.808901 
L 63.509385 162.60258 
L 63.718256 162.206059 
L 64.864842 160.96751 
L 65.206832 161.121027 
L 65.25096 161.603563 
L 65.056798 162.623409 
L 64.967807 163.986159 
L 119.608987 163.909015 
L 121.80949 151.608387 
L 121.672694 151.457184 
L 118.243233 149.054145 
L 117.994647 148.577395 
L 113.153098 102.407417 
L 106.899461 46.111889 
L 104.192959 22.189886 
L 129.410494 22.180629 
L 129.410494 22.180629 
" clip-path="url(#pab01475970)" style="fill: none; stroke: #000000; stroke-width: 2"/>
   </g>
  </g>
 </g>
 <defs>
  <clipPath id="pab01475970">
   <rect x="0" y="-0" width="281.79095" height="266.112"/>
  </clipPath>
 </defs>
</svg>
