<?xml version="1.0" encoding="utf-8" standalone="no"?>
<!DOCTYPE svg PUBLIC "-//W3C//DTD SVG 1.1//EN"
  "http://www.w3.org/Graphics/SVG/1.1/DTD/svg11.dtd">
<svg xmlns:xlink="http://www.w3.org/1999/xlink" width="120.654182pt" height="266.112pt" viewBox="0 0 120.654182 266.112" xmlns="http://www.w3.org/2000/svg" version="1.1">
 <metadata>
  <rdf:RDF xmlns:dc="http://purl.org/dc/elements/1.1/" xmlns:cc="http://creativecommons.org/ns#" xmlns:rdf="http://www.w3.org/1999/02/22-rdf-syntax-ns#">
   <cc:Work>
    <dc:type rdf:resource="http://purl.org/dc/dcmitype/StillImage"/>
    <dc:date>2024-02-02T21:58:03.555239</dc:date>
    <dc:format>image/svg+xml</dc:format>
    <dc:creator>
     <cc:Agent>
      <dc:title>Matplotlib v3.8.2, https://matplotlib.org/</dc:title>
     </cc:Agent>
    </dc:creator>
   </cc:Work>
  </rdf:RDF>
 </metadata>
 <defs>
  <style type="text/css">*{stroke-linejoin: round; stroke-linecap: butt}</style>
 </defs>
 <g id="figure_1">
  <g id="patch_1">
   <path d="M 0 266.112 
L 120.654182 266.112 
L 120.654182 0 
L 0 0 
L 0 266.112 
z
" style="fill: none"/>
  </g>
  <g id="axes_1">
   <g id="PatchCollection_1">
    <path d="M 75.78002 243.863323 
L 75.558159 243.936 
L 75.342663 243.886425 
L 75.228095 243.738182 
L 75.309929 243.513893 
L 75.476325 243.431108 
L 75.652723 243.495603 
L 75.773655 243.65636 
L 75.78002 243.863323 
" clip-path="url(#p20dbffa2fa)" style="fill: none; stroke: #000000; stroke-width: 2"/>
    <path d="M 77.980446 240.718939 
L 78.212309 240.802205 
L 78.262318 240.766588 
L 78.294143 240.757925 
L 78.441444 240.802205 
L 78.441444 240.882102 
L 78.266865 240.857074 
L 78.19867 240.89221 
L 78.195942 240.961518 
L 78.212309 241.036602 
L 78.277776 241.124681 
L 78.37143 241.172812 
L 78.424168 241.234419 
L 78.358701 241.366298 
L 78.145932 241.42983 
L 78.022272 241.626204 
L 77.944984 241.835092 
L 77.86315 241.932316 
L 77.683115 242.004512 
L 77.300314 242.271156 
L 77.137555 242.255273 
L 77.098457 242.389558 
L 77.047538 242.498334 
L 77.02026 242.58882 
L 77.054812 242.665829 
L 76.766574 243.153875 
L 76.629275 243.286716 
L 76.603816 243.063389 
L 76.485611 243.100931 
L 76.447422 242.855945 
L 76.458333 242.542614 
L 76.482883 242.376563 
L 76.526528 242.272119 
L 76.561989 241.932316 
L 76.709291 241.894774 
L 76.793852 241.811026 
L 76.834769 241.727279 
L 76.863866 241.689737 
L 76.927515 241.648344 
L 76.973887 241.552083 
L 77.012986 241.443788 
L 77.054812 241.366298 
L 77.137555 241.29362 
L 77.436704 241.117462 
L 77.759494 240.819532 
L 77.980446 240.718939 
" clip-path="url(#p20dbffa2fa)" style="fill: none; stroke: #000000; stroke-width: 2"/>
    <path d="M 77.320318 240.626528 
L 77.213934 240.962962 
L 77.213934 240.0273 
L 77.189384 239.957991 
L 77.080271 239.80301 
L 77.054812 239.708192 
L 77.096638 239.57487 
L 77.170289 239.466095 
L 77.207569 239.36887 
L 77.137555 239.266833 
L 77.137555 239.179235 
L 77.328501 239.175385 
L 77.620376 239.355875 
L 77.824961 239.421814 
L 77.829507 239.475721 
L 77.81405 239.491123 
L 77.784044 239.492085 
L 77.748583 239.502674 
L 77.715849 239.572945 
L 77.683115 239.623964 
L 77.682206 239.676426 
L 77.748583 239.75151 
L 77.57855 239.849697 
L 77.459436 239.938739 
L 77.388513 240.063879 
L 77.320318 240.626528 
" clip-path="url(#p20dbffa2fa)" style="fill: none; stroke: #000000; stroke-width: 2"/>
    <path d="M 74.11788 235.860137 
L 74.237903 235.864468 
L 74.300643 235.852917 
L 74.363382 235.922707 
L 74.41521 236.005492 
L 74.507046 236.21101 
L 74.450672 236.281762 
L 74.393388 236.329893 
L 74.319737 236.350108 
L 74.218809 236.338075 
L 74.321556 236.525785 
L 74.377021 236.586911 
L 74.134247 236.706276 
L 73.951484 236.658145 
L 73.902384 236.492575 
L 74.066052 236.264435 
L 73.996038 236.112823 
L 73.946938 235.891903 
L 73.978762 235.693604 
L 74.148795 235.610819 
L 74.049685 235.790828 
L 74.11788 235.860137 
" clip-path="url(#p20dbffa2fa)" style="fill: none; stroke: #000000; stroke-width: 2"/>
    <path d="M 77.454889 235.741735 
L 77.291221 235.754249 
L 77.208478 235.532366 
L 77.257579 235.361983 
L 77.394878 235.258502 
L 77.573094 235.208446 
L 77.748583 235.19882 
L 77.734944 235.227698 
L 77.705847 235.281123 
L 77.693117 235.310002 
L 77.616739 235.568464 
L 77.454889 235.741735 
" clip-path="url(#p20dbffa2fa)" style="fill: none; stroke: #000000; stroke-width: 2"/>
    <path d="M 81.319274 231.609226 
L 81.188339 232.042403 
L 81.027399 232.152142 
L 80.830997 232.155992 
L 80.706428 232.073207 
L 80.770986 231.925446 
L 80.869186 231.884534 
L 80.955567 231.887904 
L 81.019216 231.869133 
L 81.042856 231.760357 
L 81.010123 231.679979 
L 80.929198 231.648694 
L 80.826451 231.662652 
L 80.730069 231.719927 
L 80.730069 231.558208 
L 80.667329 231.391194 
L 80.62914 231.208778 
L 80.622775 231.041765 
L 80.65369 230.919994 
L 80.934654 231.061979 
L 81.196523 231.287231 
L 81.319274 231.609226 
" clip-path="url(#p20dbffa2fa)" style="fill: none; stroke: #000000; stroke-width: 2"/>
    <path d="M 74.123336 231.320442 
L 73.836917 231.47061 
L 73.916023 231.350283 
L 73.959668 231.237657 
L 73.959668 231.122624 
L 73.913295 230.992671 
L 73.979671 230.657681 
L 74.154251 230.527728 
L 74.37793 230.530134 
L 74.599791 230.588854 
L 74.481587 230.914699 
L 74.330648 231.146208 
L 74.123336 231.320442 
" clip-path="url(#p20dbffa2fa)" style="fill: none; stroke: #000000; stroke-width: 2"/>
    <path d="M 77.618557 230.499331 
L 77.658565 230.726989 
L 77.672204 230.95561 
L 77.727669 231.166423 
L 77.860422 231.296376 
L 78.013179 231.407077 
L 78.129565 231.558208 
L 78.162299 231.776721 
L 78.163208 232.010637 
L 78.225948 232.18102 
L 78.441444 232.211342 
L 78.343243 232.36488 
L 78.299598 232.511678 
L 78.325967 232.647407 
L 78.441444 232.770141 
L 78.38416 232.763402 
L 78.369612 232.783136 
L 78.370521 232.818272 
L 78.358701 232.857739 
L 78.228676 233.11957 
L 78.130475 233.221607 
L 77.939529 233.262037 
L 77.784044 233.211981 
L 77.732216 233.082028 
L 77.748583 232.696019 
L 77.794955 232.728748 
L 77.824961 232.770141 
L 77.993175 232.631524 
L 77.949531 232.517935 
L 77.748583 232.373062 
L 77.75131 232.200272 
L 77.841328 231.827259 
L 77.824961 231.631367 
L 77.781316 231.5996 
L 77.628559 231.550507 
L 77.595826 231.513927 
L 77.59037 231.40804 
L 77.579459 231.339694 
L 77.554909 231.289638 
L 77.358507 231.031657 
L 77.137555 230.831433 
L 77.113005 230.885339 
L 77.074816 230.941171 
L 77.054812 230.992671 
L 76.984798 230.588854 
L 76.878414 230.531097 
L 76.777486 230.52484 
L 76.703835 230.579228 
L 76.673829 230.706774 
L 76.601997 230.780414 
L 76.258294 231.027325 
L 76.13918 231.073531 
L 76.00279 230.95561 
L 76.100991 230.7679 
L 76.368316 230.467564 
L 76.40014 230.412214 
L 76.54926 230.315471 
L 76.603816 230.266378 
L 76.627457 230.188406 
L 76.665646 229.979037 
L 76.712018 229.898659 
L 76.852955 229.85486 
L 77.058449 229.884219 
L 77.273945 229.97278 
L 77.436704 230.104658 
L 77.546725 230.288037 
L 77.618557 230.499331 
" clip-path="url(#p20dbffa2fa)" style="fill: none; stroke: #000000; stroke-width: 2"/>
    <path d="M 80.057211 230.0392 
L 79.975377 230.045457 
L 79.937188 229.895289 
L 79.974468 229.707579 
L 80.082671 229.596397 
L 80.181781 229.608911 
L 80.198148 229.794215 
L 80.143592 229.935719 
L 80.057211 230.0392 
" clip-path="url(#p20dbffa2fa)" style="fill: none; stroke: #000000; stroke-width: 2"/>
    <path d="M 81.188339 229.774 
L 81.206524 230.103696 
L 81.188339 230.178298 
L 81.103777 230.213434 
L 81.060133 230.13835 
L 81.042856 230.022836 
L 81.042856 229.935719 
L 80.934654 229.973743 
L 80.859185 230.043051 
L 80.819177 230.1422 
L 80.813721 230.266378 
L 80.566401 230.153752 
L 80.4682 229.942939 
L 80.482748 229.710467 
L 80.577312 229.531902 
L 80.760074 229.381734 
L 80.830997 229.303762 
L 80.882825 229.208463 
L 80.90192 229.095356 
L 80.874642 228.885987 
L 80.882825 228.805127 
L 81.000121 228.606828 
L 81.081046 228.64052 
L 81.139239 228.816679 
L 81.222891 229.262851 
L 81.229256 229.443341 
L 81.188339 229.774 
" clip-path="url(#p20dbffa2fa)" style="fill: none; stroke: #000000; stroke-width: 2"/>
    <path d="M 78.212309 226.697962 
L 78.277776 226.723952 
L 78.378705 226.696999 
L 78.47145 226.691223 
L 78.512367 226.778821 
L 78.435079 226.897705 
L 78.261409 226.99156 
L 77.901339 227.094559 
L 77.901339 226.940541 
L 77.854967 226.757644 
L 77.732216 226.629616 
L 77.616739 226.533836 
L 77.595826 226.448644 
L 77.72676 226.39185 
L 77.958623 226.366341 
L 78.282322 226.367785 
L 78.206853 226.600256 
L 78.212309 226.697962 
" clip-path="url(#p20dbffa2fa)" style="fill: none; stroke: #000000; stroke-width: 2"/>
    <path d="M 78.305963 223.606041 
L 78.212309 223.944881 
L 78.129565 223.856802 
L 78.108652 223.917928 
L 78.082284 223.967984 
L 78.060461 224.022853 
L 78.053187 224.0989 
L 77.95044 223.995419 
L 77.793137 223.790863 
L 77.748583 223.695083 
L 77.671295 223.785087 
L 77.634924 223.849582 
L 77.636743 223.918891 
L 77.672204 224.025741 
L 77.485805 224.04018 
L 77.394878 224.116708 
L 77.423974 224.208638 
L 77.595826 224.267357 
L 77.487623 224.321745 
L 77.360326 224.350624 
L 77.227573 224.351105 
L 77.110277 224.318857 
L 76.984798 224.267357 
L 76.980252 224.208638 
L 76.984798 224.025741 
L 77.09391 224.061839 
L 77.194839 224.041143 
L 77.285766 223.969909 
L 77.366691 223.856802 
L 77.333048 223.752358 
L 77.290312 223.504485 
L 77.249395 223.412074 
L 77.233028 223.303779 
L 77.333048 223.216181 
L 77.456708 223.144948 
L 77.519447 223.085747 
L 77.494897 222.990448 
L 77.443069 222.951462 
L 77.391241 222.900443 
L 77.366691 222.765677 
L 77.402152 222.662677 
L 77.560364 222.547163 
L 77.628559 222.326725 
L 77.704938 222.286295 
L 77.781316 222.271374 
L 77.824961 222.241052 
L 77.829507 222.106767 
L 77.759494 221.877183 
L 77.748583 221.749155 
L 77.802229 221.504651 
L 78.129565 220.861624 
L 78.182303 220.333629 
L 78.24777 220.171428 
L 78.398708 220.182017 
L 78.564195 220.436148 
L 78.693311 220.760549 
L 78.746958 220.981951 
L 78.714224 221.092651 
L 78.640573 221.130675 
L 78.561467 221.145114 
L 78.512367 221.1841 
L 78.493272 221.295282 
L 78.512367 221.668295 
L 78.378705 222.160192 
L 78.354154 222.405659 
L 78.441444 222.638131 
L 78.295052 222.932691 
L 78.305963 223.606041 
" clip-path="url(#p20dbffa2fa)" style="fill: none; stroke: #000000; stroke-width: 2"/>
    <path d="M 69.29331 220.30812 
L 69.324225 220.429409 
L 69.155102 220.376465 
L 69.095999 220.332185 
L 68.929603 220.166134 
L 69.136916 220.171428 
L 69.29331 220.30812 
" clip-path="url(#p20dbffa2fa)" style="fill: none; stroke: #000000; stroke-width: 2"/>
    <path d="M 81.212889 220.181054 
L 81.271992 220.268652 
L 81.310181 220.386092 
L 81.341096 220.530484 
L 81.354735 220.657068 
L 81.344733 221.019493 
L 81.239258 221.361221 
L 81.271992 222.277631 
L 81.235621 222.427799 
L 81.077409 222.613584 
L 81.042856 222.765677 
L 81.054677 222.927397 
L 81.106505 223.213293 
L 81.119235 223.371644 
L 80.994665 223.279714 
L 80.820086 223.056387 
L 80.730069 222.967826 
L 80.610045 222.922584 
L 80.465472 222.886485 
L 80.335447 222.831616 
L 80.266343 222.72621 
L 80.075397 222.959163 
L 79.969012 222.928359 
L 79.933551 222.733911 
L 79.960829 222.476411 
L 79.873539 222.54572 
L 79.820802 222.539944 
L 79.782613 222.482187 
L 79.737149 222.395552 
L 79.815346 222.152972 
L 79.72351 221.989809 
L 79.581665 221.878627 
L 79.509833 221.789585 
L 79.37708 221.457001 
L 79.407085 221.302502 
L 79.668954 221.25774 
L 79.598941 221.160997 
L 79.398902 220.980988 
L 79.357076 220.902053 
L 79.382535 220.749479 
L 79.446184 220.695091 
L 79.522562 220.673914 
L 79.586211 220.619044 
L 79.636221 220.595942 
L 79.72351 220.54011 
L 79.753516 220.483797 
L 79.626219 220.457806 
L 79.505286 220.460213 
L 79.407085 220.450587 
L 79.331616 220.404381 
L 79.280697 220.296087 
L 79.537111 220.239774 
L 80.03448 220.322078 
L 80.197238 220.296087 
L 80.159958 220.248437 
L 80.139045 220.215227 
L 80.113586 220.126185 
L 80.259068 220.129073 
L 80.577312 220.215227 
L 80.711883 220.192124 
L 80.971934 220.112709 
L 81.119235 220.126185 
L 81.212889 220.181054 
" clip-path="url(#p20dbffa2fa)" style="fill: none; stroke: #000000; stroke-width: 2"/>
    <path d="M 75.723645 220.767287 
L 75.785475 221.007941 
L 76.057346 220.941521 
L 76.04007 221.083988 
L 75.972784 221.193726 
L 75.871856 221.276511 
L 75.757288 221.3386 
L 75.847306 221.384324 
L 75.894587 221.457483 
L 75.892769 221.553744 
L 75.827302 221.668295 
L 76.021885 221.898361 
L 76.090989 222.003286 
L 76.13918 222.152972 
L 75.865491 221.985959 
L 75.779111 221.906062 
L 75.757288 221.830015 
L 75.689093 221.76937 
L 75.521788 221.507539 
L 75.323568 221.381436 
L 75.269012 221.295763 
L 75.410858 221.25774 
L 75.454502 221.148483 
L 75.45723 220.914086 
L 75.389035 220.691722 
L 75.217184 220.619044 
L 75.27083 220.319671 
L 75.13535 219.674719 
L 75.293562 219.400373 
L 75.27174 219.845102 
L 75.293562 219.972648 
L 75.353574 220.044844 
L 75.639993 220.296087 
L 75.721827 220.452512 
L 75.723645 220.767287 
" clip-path="url(#p20dbffa2fa)" style="fill: none; stroke: #000000; stroke-width: 2"/>
    <path d="M 71.41372 219.418663 
L 71.471913 219.722849 
L 71.425541 219.716111 
L 71.237323 219.64199 
L 71.147305 219.368607 
L 71.155489 219.218439 
L 71.388261 218.915696 
L 71.50101 219.01629 
L 71.545564 219.129397 
L 71.521014 219.24828 
L 71.430996 219.363312 
L 71.41372 219.418663 
" clip-path="url(#p20dbffa2fa)" style="fill: none; stroke: #000000; stroke-width: 2"/>
    <path d="M 78.313237 219.394597 
L 78.195942 219.538027 
L 78.059552 219.531289 
L 77.977718 219.481233 
L 77.97499 219.177046 
L 78.004087 218.956126 
L 78.103197 218.885374 
L 78.320511 219.032654 
L 78.367793 219.194373 
L 78.313237 219.394597 
" clip-path="url(#p20dbffa2fa)" style="fill: none; stroke: #000000; stroke-width: 2"/>
    <path d="M 78.060461 218.676486 
L 77.973172 218.713066 
L 77.8877 218.68515 
L 77.674932 218.348234 
L 77.773133 218.177851 
L 77.955895 218.101805 
L 78.053187 218.144641 
L 78.073191 218.256786 
L 78.140477 218.485888 
L 78.129565 218.585038 
L 78.060461 218.676486 
" clip-path="url(#p20dbffa2fa)" style="fill: none; stroke: #000000; stroke-width: 2"/>
    <path d="M 80.946474 217.720128 
L 81.188339 217.858744 
L 81.390196 217.793768 
L 81.55932 217.886179 
L 81.881201 218.18844 
L 82.314921 218.305879 
L 82.503139 218.410323 
L 82.492228 218.585038 
L 82.492228 218.511398 
L 82.19217 218.606215 
L 81.535679 218.611991 
L 81.305635 218.710178 
L 81.122872 218.881042 
L 80.90192 219.034579 
L 80.677331 219.122177 
L 80.479111 219.093299 
L 80.315443 218.740019 
L 80.274526 218.587926 
L 80.266343 218.423318 
L 80.296348 218.329463 
L 80.402733 218.154749 
L 80.424555 218.063781 
L 80.400005 217.943936 
L 80.342721 217.890029 
L 80.268161 217.848637 
L 80.146319 217.711945 
L 80.0954 217.67681 
L 80.057211 217.62146 
L 80.044481 217.498245 
L 80.044481 217.131488 
L 79.955373 216.766657 
L 79.952645 216.612639 
L 80.044481 216.478354 
L 80.116314 216.603975 
L 80.424555 216.888909 
L 80.65369 217.220049 
L 80.830997 217.604614 
L 80.946474 217.720128 
" clip-path="url(#p20dbffa2fa)" style="fill: none; stroke: #000000; stroke-width: 2"/>
    <path d="M 76.234653 215.445948 
L 76.215559 215.589378 
L 76.320124 215.529696 
L 76.472881 215.466163 
L 76.61109 215.454612 
L 76.673829 215.548948 
L 76.703835 216.048064 
L 76.673829 216.162134 
L 76.58654 215.985013 
L 76.441966 215.845915 
L 76.259204 215.804041 
L 76.057346 215.920518 
L 75.994607 215.887789 
L 75.972784 215.870462 
L 75.954599 215.852172 
L 75.800933 215.579752 
L 75.578163 215.35065 
L 75.521788 215.186042 
L 75.552703 214.971379 
L 75.653632 214.703772 
L 75.798205 214.474669 
L 75.948234 214.378408 
L 76.16373 214.388997 
L 76.347402 214.436165 
L 76.472881 214.543496 
L 76.521072 214.734094 
L 76.515617 214.850089 
L 76.477428 215.081117 
L 76.444694 215.186042 
L 76.383773 215.272678 
L 76.302848 215.35065 
L 76.234653 215.445948 
" clip-path="url(#p20dbffa2fa)" style="fill: none; stroke: #000000; stroke-width: 2"/>
    <path d="M 76.215559 213.482213 
L 76.118267 213.544301 
L 76.049163 213.538044 
L 75.972784 213.50339 
L 75.867309 213.482213 
L 75.858217 213.547189 
L 75.674545 213.893731 
L 75.579981 213.988548 
L 75.467232 214.065558 
L 75.349027 214.116576 
L 75.255373 214.135829 
L 75.230823 214.20273 
L 75.140805 214.620987 
L 75.037149 214.414025 
L 74.988048 214.378408 
L 74.941676 214.179146 
L 74.797102 214.159413 
L 74.636162 214.189735 
L 74.529778 214.135829 
L 74.561602 213.973147 
L 74.701629 213.848007 
L 74.814378 213.723829 
L 74.758913 213.563072 
L 74.612521 213.675698 
L 74.567967 213.730568 
L 74.529778 213.805652 
L 74.447035 213.805652 
L 74.467039 213.470661 
L 74.630707 213.334933 
L 74.867116 213.262736 
L 75.216274 213.052886 
L 75.337207 213.040372 
L 75.399946 213.086578 
L 75.334479 213.200166 
L 75.225367 213.307017 
L 75.178085 213.382582 
L 75.198089 213.458147 
L 75.293562 213.563072 
L 75.440863 213.53275 
L 75.500875 213.538526 
L 75.604531 213.563072 
L 75.599985 213.43697 
L 75.609987 213.305091 
L 75.647267 213.201129 
L 75.849124 213.098129 
L 75.912773 212.960956 
L 75.948234 212.820896 
L 75.986423 212.747737 
L 76.150091 212.8079 
L 76.269205 213.015344 
L 76.305576 213.272363 
L 76.215559 213.482213 
" clip-path="url(#p20dbffa2fa)" style="fill: none; stroke: #000000; stroke-width: 2"/>
    <path d="M 80.820086 212.949886 
L 80.675513 213.00283 
L 80.524574 212.946517 
L 80.437285 212.776134 
L 80.596406 211.968018 
L 80.722795 211.734103 
L 80.882825 211.941065 
L 80.912831 212.132144 
L 80.882825 212.792017 
L 80.820086 212.949886 
" clip-path="url(#p20dbffa2fa)" style="fill: none; stroke: #000000; stroke-width: 2"/>
    <path d="M 78.298689 211.84336 
L 78.048641 211.944916 
L 77.784044 211.816888 
L 77.710393 211.687897 
L 77.704938 211.564682 
L 77.748583 211.254239 
L 77.784044 211.216216 
L 77.86315 211.205146 
L 77.940438 211.176748 
L 77.977718 211.08915 
L 78.007724 211.011179 
L 78.070463 211.075192 
L 78.125019 211.176267 
L 78.129565 211.213809 
L 78.376886 211.577678 
L 78.298689 211.84336 
" clip-path="url(#p20dbffa2fa)" style="fill: none; stroke: #000000; stroke-width: 2"/>
    <path d="M 73.594142 211.181561 
L 73.461389 211.448206 
L 73.457752 211.3943 
L 73.437748 211.363496 
L 73.408652 211.33558 
L 73.378646 211.294669 
L 73.359551 211.216216 
L 73.339548 211.202739 
L 73.29954 211.202258 
L 73.232254 211.213809 
L 73.232254 211.12573 
L 73.283173 211.05209 
L 73.250439 211.011179 
L 73.190428 210.959197 
L 73.157694 210.854272 
L 73.204976 210.815768 
L 73.308633 210.760417 
L 73.414108 210.730095 
L 73.461389 210.769562 
L 73.506853 210.96401 
L 73.579594 211.060753 
L 73.594142 211.181561 
" clip-path="url(#p20dbffa2fa)" style="fill: none; stroke: #000000; stroke-width: 2"/>
    <path d="M 79.620763 211.04102 
L 79.891725 211.537248 
L 79.933551 211.23258 
L 80.03357 210.855235 
L 80.176325 210.658861 
L 80.348177 210.898553 
L 80.397277 211.226804 
L 80.391821 211.68164 
L 80.337265 212.117705 
L 80.230881 212.388681 
L 79.509833 213.526974 
L 79.047925 213.948119 
L 78.512367 213.805652 
L 78.616023 213.547671 
L 78.664214 213.482213 
L 78.702404 213.232895 
L 78.858797 212.747737 
L 78.89335 212.469541 
L 78.872436 212.361728 
L 78.775145 212.195677 
L 78.726044 212.04214 
L 78.675126 212.002191 
L 78.664214 211.941065 
L 78.707859 211.871757 
L 78.796058 211.809187 
L 78.86789 211.742766 
L 78.858797 211.661425 
L 78.647848 211.258571 
L 78.52055 210.722875 
L 78.512367 210.158301 
L 78.664214 209.671699 
L 78.858797 209.863741 
L 79.467097 210.024016 
L 79.668954 210.244937 
L 79.668954 210.350824 
L 79.586211 210.854272 
L 79.620763 211.04102 
" clip-path="url(#p20dbffa2fa)" style="fill: none; stroke: #000000; stroke-width: 2"/>
    <path d="M 73.613237 208.732668 
L 73.490486 208.739406 
L 73.315907 208.666247 
L 73.297721 208.425593 
L 73.370463 208.271575 
L 73.493214 208.262911 
L 73.625057 208.455916 
L 73.663247 208.638331 
L 73.613237 208.732668 
" clip-path="url(#p20dbffa2fa)" style="fill: none; stroke: #000000; stroke-width: 2"/>
    <path d="M 78.441444 204.973172 
L 78.528734 204.992906 
L 78.606021 204.933224 
L 78.696948 204.893757 
L 78.823336 204.973172 
L 78.896987 205.100719 
L 78.872436 205.180616 
L 78.746958 205.296611 
L 78.675126 205.397205 
L 78.613295 205.444373 
L 78.560558 205.500204 
L 78.512367 205.626307 
L 78.496 205.738452 
L 78.512367 206.110984 
L 78.638755 206.613951 
L 78.649666 206.855567 
L 78.512367 206.999959 
L 78.504183 206.76075 
L 78.354154 206.479184 
L 78.358701 206.272703 
L 78.278685 206.044082 
L 78.129565 205.296611 
L 77.876789 204.570318 
L 77.824961 204.326776 
L 77.808594 204.096711 
L 77.842237 203.562459 
L 77.901339 203.431062 
L 78.059552 203.439245 
L 78.141386 203.62166 
L 78.365975 204.807121 
L 78.441444 204.973172 
" clip-path="url(#p20dbffa2fa)" style="fill: none; stroke: #000000; stroke-width: 2"/>
    <path d="M 74.300643 196.705749 
L 74.218809 196.705749 
L 74.188803 196.510338 
L 74.180619 196.175347 
L 74.22972 195.88175 
L 74.377021 195.810516 
L 74.447035 195.899077 
L 74.382477 196.033843 
L 74.338832 196.261983 
L 74.300643 196.705749 
" clip-path="url(#p20dbffa2fa)" style="fill: none; stroke: #000000; stroke-width: 2"/>
    <path d="M 23.683575 193.242739 
L 23.460805 193.380874 
L 23.555369 192.509226 
L 23.585374 192.361465 
L 23.633565 192.327292 
L 23.697214 192.484679 
L 23.743587 193.014599 
L 23.683575 193.242739 
" clip-path="url(#p20dbffa2fa)" style="fill: none; stroke: #000000; stroke-width: 2"/>
    <path d="M 27.143336 183.843279 
L 26.986942 183.995854 
L 26.823274 183.982859 
L 26.945115 183.830765 
L 27.022403 183.631985 
L 27.136971 183.447644 
L 27.366106 183.336944 
L 27.366106 183.410102 
L 27.27427 183.617546 
L 27.143336 183.843279 
" clip-path="url(#p20dbffa2fa)" style="fill: none; stroke: #000000; stroke-width: 2"/>
    <path d="M 71.440998 176.197224 
L 71.388261 176.354612 
L 71.310973 176.120696 
L 71.237323 175.312099 
L 71.297334 175.381889 
L 71.340979 175.45216 
L 71.370985 175.531575 
L 71.388261 175.627356 
L 71.469186 175.811697 
L 71.477369 176.008551 
L 71.440998 176.197224 
" clip-path="url(#p20dbffa2fa)" style="fill: none; stroke: #000000; stroke-width: 2"/>
    <path d="M 39.425712 172.894971 
L 39.136565 172.954172 
L 38.801955 172.860799 
L 38.544633 172.713037 
L 38.544633 172.632177 
L 38.767403 172.46757 
L 38.929253 172.236542 
L 39.161116 171.743202 
L 39.460264 171.303768 
L 39.643936 171.130016 
L 39.696674 171.291254 
L 39.696674 171.292698 
L 39.717587 171.477039 
L 39.823971 171.788926 
L 39.848521 171.938613 
L 39.802149 172.092631 
L 39.597564 172.443986 
L 39.425712 172.894971 
" clip-path="url(#p20dbffa2fa)" style="fill: none; stroke: #000000; stroke-width: 2"/>
    <path d="M 35.028498 172.390079 
L 34.944845 172.390079 
L 34.944845 172.301519 
L 35.107604 172.005515 
L 35.017587 171.583408 
L 34.717528 170.847969 
L 34.799363 170.477844 
L 35.107604 170.2704 
L 35.506772 170.087984 
L 35.86866 169.791017 
L 35.986865 169.594644 
L 36.155079 169.215373 
L 36.242369 169.064243 
L 36.583344 168.726365 
L 37.278933 167.865786 
L 37.628092 167.584703 
L 37.843588 167.864342 
L 37.9036 168.454907 
L 37.759935 169.045953 
L 37.48079 169.599457 
L 36.921591 170.332007 
L 36.809752 170.427306 
L 36.629717 170.518274 
L 36.021417 170.723311 
L 35.855021 170.828717 
L 35.786826 170.889362 
L 35.786826 170.983698 
L 35.800465 171.091511 
L 35.790463 171.170927 
L 35.677714 171.314838 
L 35.434031 171.518912 
L 35.325828 171.663305 
L 35.372201 171.844276 
L 35.284911 172.031024 
L 35.028498 172.390079 
" clip-path="url(#p20dbffa2fa)" style="fill: none; stroke: #000000; stroke-width: 2"/>
    <path d="M 70.34878 167.854597 
L 70.081709 168.123881 
L 69.739764 168.006827 
L 69.668837 167.481703 
L 69.543358 167.300731 
L 69.096337 166.92405 
L 69.207839 166.55326 
L 69.358777 166.443041 
L 69.382418 166.184097 
L 69.329681 165.886167 
L 69.246028 165.657546 
L 69.109638 165.450103 
L 69.04599 165.320631 
L 69.016893 165.172869 
L 69.05781 165.092491 
L 69.134188 165.035697 
L 69.173287 164.964463 
L 69.100546 164.842211 
L 69.216022 164.68723 
L 69.395148 164.563052 
L 69.597005 164.479786 
L 69.780677 164.445613 
L 70.242585 164.664608 
L 70.503544 164.739692 
L 70.739044 164.769052 
L 70.778073 164.998461 
L 70.787236 165.210411 
L 70.549917 165.576687 
L 70.540824 165.759102 
L 70.571739 166.216826 
L 70.549917 166.465181 
L 70.488087 166.596578 
L 70.416255 166.692358 
L 70.353515 166.797283 
L 70.320782 166.957077 
L 70.33533 167.058152 
L 70.292806 167.487596 
L 70.34878 167.854597 
" clip-path="url(#p20dbffa2fa)" style="fill: none; stroke: #000000; stroke-width: 2"/>
    <path d="M 26.910563 136.552865 
L 27.177888 136.561528 
L 27.567963 136.513397 
L 27.647069 136.597626 
L 27.67071 136.884967 
L 27.606152 137.238728 
L 27.600697 137.368681 
L 27.630703 137.51163 
L 27.731631 137.780199 
L 27.753454 137.894269 
L 27.719811 138.178722 
L 27.617064 138.447292 
L 27.450668 138.673507 
L 27.219714 138.829932 
L 27.016947 138.861698 
L 26.733256 138.848703 
L 26.482299 138.795759 
L 26.373187 138.709124 
L 26.315903 138.560881 
L 26.18315 138.415526 
L 25.90946 138.184498 
L 24.834707 136.884967 
L 24.782879 136.785336 
L 24.68195 136.481631 
L 25.721242 136.399809 
L 25.974928 136.298734 
L 26.100406 136.123538 
L 26.21952 136.063375 
L 26.4432 136.311729 
L 26.684156 136.502809 
L 26.792359 136.534575 
L 26.910563 136.552865 
" clip-path="url(#p20dbffa2fa)" style="fill: none; stroke: #000000; stroke-width: 2"/>
    <path d="M 28.245367 129.237949 
L 28.434494 129.425659 
L 28.619985 129.332285 
L 28.860031 129.295706 
L 29.107352 129.334692 
L 29.32012 129.469939 
L 29.526524 129.632621 
L 29.956607 129.886752 
L 30.118457 130.071093 
L 30.15119 130.239069 
L 30.136642 130.486461 
L 30.063901 130.708826 
L 29.931148 130.805087 
L 29.777482 130.879209 
L 29.520159 131.237783 
L 29.338306 131.390357 
L 29.316483 131.415385 
L 29.278294 131.440413 
L 29.210099 131.458703 
L 29.144632 131.436563 
L 29.116445 131.37303 
L 29.095532 131.309979 
L 29.050977 131.289764 
L 28.912769 131.362442 
L 28.912769 131.457259 
L 28.952777 131.559778 
L 28.93641 131.657002 
L 28.847302 131.70417 
L 28.720004 131.714278 
L 28.474502 131.701282 
L 28.24173 131.730161 
L 28.176263 131.708502 
L 28.050784 131.613203 
L 27.918031 131.468811 
L 27.650706 131.06018 
L 27.600697 130.923008 
L 27.576147 130.798349 
L 27.467035 130.65155 
L 27.442484 130.51919 
L 27.428845 130.487424 
L 27.404295 130.46384 
L 27.377017 130.426779 
L 27.366106 130.357471 
L 27.392475 130.310784 
L 27.450668 130.313672 
L 27.503405 130.307415 
L 27.518863 130.232812 
L 27.434301 130.043658 
L 27.276089 129.947397 
L 26.907835 129.828514 
L 26.748714 129.721663 
L 26.635055 129.591229 
L 26.4432 129.18308 
L 26.559586 129.167678 
L 26.608687 129.119547 
L 26.596866 129.040131 
L 26.525943 128.933281 
L 26.961482 128.385072 
L 27.059683 128.375445 
L 27.148791 128.39903 
L 27.357923 128.421651 
L 27.442484 128.448604 
L 27.546141 128.536202 
L 27.600697 128.624763 
L 27.644342 128.718137 
L 27.712537 128.816323 
L 28.245367 129.237949 
" clip-path="url(#p20dbffa2fa)" style="fill: none; stroke: #000000; stroke-width: 2"/>
    <path d="M 25.063842 125.990084 
L 24.992919 126.180682 
L 24.376436 125.672902 
L 24.196402 125.410589 
L 23.817237 124.114909 
L 23.773593 123.729381 
L 23.98818 123.749596 
L 24.218224 123.906021 
L 24.338247 124.020573 
L 24.425537 124.12646 
L 24.458271 124.197694 
L 24.530103 124.295399 
L 24.688315 124.390698 
L 24.845618 124.510544 
L 24.91745 124.68574 
L 24.871987 125.239725 
L 24.91745 125.453426 
L 25.047475 125.810075 
L 25.063842 125.990084 
" clip-path="url(#p20dbffa2fa)" style="fill: none; stroke: #000000; stroke-width: 2"/>
    <path d="M 19.550957 125.210847 
L 19.480034 125.210847 
L 19.420023 124.989926 
L 19.368195 124.476852 
L 19.286361 124.278554 
L 19.132695 124.059077 
L 18.44347 122.774948 
L 18.405281 122.575687 
L 18.376184 122.515042 
L 18.315264 122.468836 
L 18.260708 122.404341 
L 18.252524 122.288827 
L 18.288895 122.172351 
L 18.343451 122.122295 
L 18.408918 122.137697 
L 18.481659 122.215668 
L 18.674424 122.340327 
L 18.746256 122.428406 
L 18.808996 122.525149 
L 18.854459 122.629112 
L 18.870826 122.740294 
L 18.909924 122.911639 
L 19.43639 124.291068 
L 19.518224 124.709805 
L 19.550957 125.210847 
" clip-path="url(#p20dbffa2fa)" style="fill: none; stroke: #000000; stroke-width: 2"/>
    <path d="M 70.556323 22.693738 
L 70.820765 22.844108 
L 71.455888 22.497523 
L 71.781533 22.772591 
L 72.233047 24.019563 
L 72.515966 24.376539 
L 72.872789 24.477092 
L 73.563341 24.167182 
L 73.992915 24.342309 
L 74.520644 25.010417 
L 75.058767 25.364337 
L 75.06916 25.558106 
L 75.037981 26.013801 
L 75.681187 26.184038 
L 76.556502 27.075256 
L 76.56805 27.297755 
L 76.461811 28.607687 
L 76.334786 28.863805 
L 76.406382 28.998283 
L 76.990695 29.376959 
L 77.111946 29.750439 
L 76.703158 29.981801 
L 76.76667 30.192686 
L 76.952588 30.404183 
L 77.379852 30.750156 
L 77.396019 31.251085 
L 77.501103 31.380366 
L 77.421424 31.770962 
L 77.980332 32.707414 
L 78.430692 34.026515 
L 78.809456 34.18911 
L 79.204387 34.079083 
L 79.420329 33.799737 
L 79.586616 33.042385 
L 79.607401 32.381 
L 79.721724 32.280142 
L 80.43999 32.600443 
L 80.63861 32.763038 
L 80.972338 32.610835 
L 81.209066 32.773736 
L 81.600533 33.374605 
L 82.026642 33.295447 
L 82.369609 33.138047 
L 82.671003 33.440927 
L 82.755302 33.791485 
L 82.605182 34.752387 
L 82.777242 35.954432 
L 82.929672 36.010056 
L 83.045149 36.384759 
L 83.005886 36.775966 
L 82.664075 37.914745 
L 82.652527 38.296783 
L 82.862695 39.280913 
L 83.309591 39.56026 
L 83.381186 39.79804 
L 83.100577 40.431306 
L 83.329222 41.699673 
L 83.121363 42.005914 
L 83.16178 42.236971 
L 83.522068 42.834173 
L 83.509366 43.077455 
L 83.316519 43.762678 
L 83.485115 44.446068 
L 83.579807 44.809157 
L 83.195269 45.828129 
L 83.041684 47.813504 
L 82.933136 48.014609 
L 82.395014 48.765237 
L 82.313025 49.191897 
L 82.380002 49.306814 
L 82.604027 49.266471 
L 82.702182 49.371608 
L 83.020898 50.133239 
L 82.744909 50.724328 
L 82.186 51.056243 
L 82.11325 50.919321 
L 82.057821 50.478601 
L 81.285281 50.77384 
L 81.252947 51.158324 
L 81.757581 52.430357 
L 82.023178 52.44625 
L 82.490859 53.089297 
L 82.650218 53.363753 
L 82.845374 53.484782 
L 82.849993 53.792858 
L 82.71142 54.056311 
L 81.953892 54.561213 
L 81.74026 54.492752 
L 80.703277 54.204848 
L 80.195179 54.828945 
L 79.883391 55.386415 
L 79.793319 55.60219 
L 79.755212 55.844861 
L 79.270209 56.49891 
L 79.01616 57.196359 
L 78.624693 57.437195 
L 78.228607 57.496488 
L 77.734366 57.093055 
L 76.703158 56.798428 
L 76.512621 57.854075 
L 76.249333 58.19577 
L 76.390215 59.344329 
L 76.348644 59.431128 
L 75.983737 59.582721 
L 75.512591 60.467216 
L 74.872849 60.810744 
L 74.131487 61.576043 
L 73.783902 61.505136 
L 73.577198 61.143881 
L 73.167255 60.936664 
L 72.914361 61.220289 
L 72.390096 62.687926 
L 72.027498 63.093498 
L 71.781533 63.262206 
L 71.84389 63.690089 
L 71.878533 64.891216 
L 72.055213 65.24697 
L 72.601419 65.750038 
L 72.514811 65.986901 
L 72.082927 66.085926 
L 71.383137 66.044665 
L 69.954688 67.047133 
L 69.917736 67.303863 
L 69.982403 68.795034 
L 69.699484 70.67191 
L 69.769925 70.764211 
L 71.114076 70.663658 
L 71.288446 70.985487 
L 71.368125 71.245884 
L 71.655663 71.510255 
L 71.66952 71.761483 
L 71.0956 71.978786 
L 71.166041 72.282888 
L 71.991701 72.575377 
L 71.992855 73.092198 
L 71.803473 73.36482 
L 71.995165 73.712322 
L 72.043665 73.833963 
L 71.871605 74.377679 
L 69.735282 76.536042 
L 69.920045 76.762208 
L 70.779193 77.242048 
L 70.944325 77.672987 
L 71.290756 77.367356 
L 71.750354 77.194981 
L 72.54368 76.492948 
L 73.309292 76.193736 
L 73.908617 75.592255 
L 76.311691 74.658859 
L 77.16622 74.456226 
L 77.586556 74.471508 
L 78.832552 74.683004 
L 79.997713 74.318998 
L 80.761016 74.425358 
L 81.676747 74.964184 
L 82.293394 74.668028 
L 84.694159 74.216001 
L 84.81079 74.136537 
L 84.824647 74.165266 
L 84.897398 74.505433 
L 84.704551 74.868522 
L 82.498943 76.319655 
L 82.674468 76.606337 
L 82.558991 77.156471 
L 82.68717 78.374714 
L 83.388115 78.514693 
L 84.000142 78.716715 
L 84.065964 78.897037 
L 84.165274 79.694732 
L 84.717254 80.5398 
L 84.560205 80.780332 
L 83.901987 81.217689 
L 83.862725 81.38548 
L 84.18606 82.080483 
L 84.622563 82.00591 
L 84.920493 82.407814 
L 85.107566 83.111986 
L 84.990934 83.552094 
L 84.673373 83.845499 
L 84.751897 83.875145 
L 85.154911 83.864448 
L 85.313115 84.168245 
L 84.748433 85.177437 
L 84.73573 85.566504 
L 86.606456 85.790531 
L 86.926327 86.392012 
L 87.340889 86.487674 
L 87.860535 86.443969 
L 88.538384 86.59709 
L 88.652706 86.960485 
L 88.823612 87.015498 
L 89.596153 86.543605 
L 89.820178 86.192435 
L 90.040739 86.155149 
L 90.23243 86.277706 
L 90.816743 86.880104 
L 91.820238 87.009691 
L 91.88375 87.745649 
L 92.284455 88.287838 
L 92.322562 88.558626 
L 92.068513 88.767066 
L 91.724392 88.749951 
L 91.114674 88.43668 
L 90.929911 88.507586 
L 90.905661 88.643592 
L 90.941458 89.381078 
L 90.228966 90.430918 
L 89.852511 90.596876 
L 89.752046 90.702624 
L 89.750892 91.005198 
L 90.304026 92.572471 
L 90.18393 93.329823 
L 90.308645 93.656236 
L 90.166608 93.923969 
L 89.470283 94.644645 
L 88.963339 95.020571 
L 89.085745 95.333536 
L 88.83285 95.717408 
L 88.750862 95.850052 
L 88.538384 96.615962 
L 88.091489 97.332359 
L 88.267014 97.52185 
L 87.925202 97.70095 
L 88.170013 97.954623 
L 89.136555 98.301208 
L 90.388324 98.347664 
L 91.211674 98.047535 
L 91.954191 98.294484 
L 92.332955 98.254752 
L 93.574331 98.666131 
L 93.727916 98.940587 
L 93.951941 99.055504 
L 94.396527 98.682023 
L 94.569742 98.727257 
L 95.71585 99.196705 
L 95.783982 98.866013 
L 95.996459 98.832394 
L 96.840595 98.978485 
L 96.750523 99.293896 
L 97.100418 99.954669 
L 96.984364 100.409447 
L 96.567492 101.537834 
L 96.928358 102.81537 
L 97.044989 103.009139 
L 97.447426 103.229804 
L 98.404152 103.249365 
L 98.994239 103.510984 
L 99.118954 103.666245 
L 99.005787 103.812947 
L 98.777143 103.899746 
L 98.543879 104.262224 
L 98.445724 104.828863 
L 98.571017 105.333153 
L 99.299676 106.184028 
L 99.695184 106.221315 
L 100.211366 105.850891 
L 100.718887 105.630837 
L 101.304932 105.072145 
L 101.770881 105.102096 
L 102.280712 105.485968 
L 102.438915 105.863116 
L 102.586725 105.963363 
L 103.03824 105.883288 
L 103.873138 105.962752 
L 104.699375 105.669347 
L 104.875477 105.484135 
L 105.34951 105.237185 
L 105.937865 104.605141 
L 106.389379 103.939478 
L 106.812602 103.567832 
L 107.288367 103.333719 
L 108.576512 102.930287 
L 109.582316 102.276237 
L 109.98533 102.358146 
L 110.052306 102.543358 
L 110.180486 103.246308 
L 110.461095 103.558051 
L 110.599667 104.107575 
L 110.380261 104.626536 
L 110.45763 105.020799 
L 110.412594 105.198676 
L 110.256701 105.272638 
L 108.695453 106.54345 
L 107.495648 107.137595 
L 106.996211 107.622325 
L 106.332796 107.82832 
L 105.589125 107.659001 
L 105.540624 108.025757 
L 105.186688 109.460998 
L 104.47304 110.705525 
L 104.26345 110.825943 
L 103.556154 111.021547 
L 103.651422 111.519113 
L 103.397373 111.718996 
L 103.246098 112.688455 
L 103.452802 112.836992 
L 104.445903 112.664005 
L 104.770393 112.805206 
L 104.175687 113.315609 
L 103.480517 113.620628 
L 103.220116 113.628575 
L 101.770881 113.336392 
L 101.560136 113.377958 
L 101.167514 113.876746 
L 100.551445 114.160983 
L 99.497141 115.625564 
L 99.151865 116.690992 
L 98.835459 118.575509 
L 98.568707 119.053515 
L 98.593535 119.415076 
L 98.01615 118.972217 
L 97.887971 118.760721 
L 97.578493 118.636941 
L 97.326753 118.596292 
L 96.729738 117.937352 
L 95.871744 118.110951 
L 95.54379 118.426361 
L 95.29436 119.04618 
L 94.909822 119.289462 
L 94.226199 119.329805 
L 93.595117 119.544969 
L 91.929941 119.090802 
L 91.226686 118.65375 
L 91.010744 118.731992 
L 91.111209 118.931568 
L 91.618153 119.581644 
L 91.744023 120.270535 
L 92.186299 120.853678 
L 91.995147 121.366802 
L 91.242853 121.972286 
L 89.614629 122.43501 
L 89.387139 122.320399 
L 88.75779 121.86776 
L 88.081096 121.712805 
L 87.623807 121.780961 
L 87.131876 121.97687 
L 86.718468 122.285251 
L 86.499062 122.689295 
L 86.389359 123.618411 
L 86.433241 123.999838 
L 86.303906 124.265736 
L 86.40899 124.996804 
L 86.173418 125.54755 
L 86.018678 125.681111 
L 85.58564 125.853792 
L 85.01172 126.185096 
L 84.656051 125.728789 
L 84.16412 125.462585 
L 83.295733 126.045117 
L 82.107476 126.27923 
L 81.73795 126.67441 
L 81.264495 126.809804 
L 81.08897 127.008464 
L 80.697503 126.714448 
L 80.43999 126.660045 
L 80.049678 126.867874 
L 78.571574 126.841284 
L 77.792105 127.140496 
L 77.558841 126.871236 
L 77.520734 126.512731 
L 76.098059 125.85746 
L 75.952558 125.808559 
L 75.647699 125.449749 
L 75.412126 125.504762 
L 75.338221 125.665524 
L 75.200803 126.656072 
L 75.289721 127.293617 
L 75.139601 127.476384 
L 74.908647 127.511532 
L 74.557597 127.877066 
L 73.675661 128.25478 
L 73.446709 128.288444 
L 73.348554 128.43423 
L 73.398209 129.035099 
L 73.447864 129.159797 
L 73.278113 129.458703 
L 72.907432 129.78909 
L 72.542525 130.385375 
L 72.972099 131.441328 
L 72.776943 131.717618 
L 72.54599 131.724953 
L 72.564466 131.959677 
L 72.961706 132.313597 
L 73.072564 132.748815 
L 72.949004 133.844194 
L 72.790801 134.026045 
L 71.975534 134.786147 
L 71.823104 135.424304 
L 71.360042 136.022728 
L 72.047129 136.753796 
L 72.013641 137.159979 
L 72.191476 138.071369 
L 72.364691 139.941522 
L 72.209952 140.083334 
L 71.677603 140.232482 
L 70.869265 140.288412 
L 69.657913 141.020397 
L 68.57012 140.881335 
L 68.310297 140.417694 
L 68.131313 140.342131 
L 67.891116 140.311946 
L 68.200594 140.671367 
L 68.915396 142.060458 
L 69.177529 143.147585 
L 69.641746 143.560186 
L 69.86808 143.693135 
L 70.02051 143.516787 
L 70.249154 142.92203 
L 70.376179 142.891467 
L 71.088671 143.2081 
L 71.152184 143.602058 
L 71.067885 143.784519 
L 70.869265 143.972787 
L 70.992825 144.219125 
L 71.622174 145.274773 
L 71.857747 146.130233 
L 72.033272 146.25279 
L 72.278083 146.857327 
L 72.390096 147.1978 
L 72.317345 147.293768 
L 72.010177 147.50343 
L 71.624484 148.242445 
L 71.775759 148.802971 
L 71.5194 148.838424 
L 71.974379 149.554822 
L 72.362381 150.030383 
L 72.448989 150.480882 
L 72.556383 150.626362 
L 74.563371 152.480928 
L 75.04491 152.796338 
L 75.094565 152.972993 
L 75.833617 154.108104 
L 76.129238 154.250528 
L 76.189286 154.563493 
L 76.173119 154.966926 
L 76.262036 155.08062 
L 78.255167 157.044601 
L 78.111976 157.283604 
L 78.136226 157.385685 
L 78.437621 157.479208 
L 78.336001 157.62591 
L 78.63855 158.044624 
L 78.832552 158.10575 
L 79.606247 158.185214 
L 80.011571 158.523241 
L 80.505812 159.402235 
L 80.550848 159.77327 
L 80.830302 159.929753 
L 80.998898 160.429153 
L 80.730992 160.289785 
L 80.64092 160.346633 
L 80.661706 160.657153 
L 80.953862 160.858869 
L 80.785266 161.136382 
L 80.306037 161.497637 
L 80.240215 161.934077 
L 80.628217 162.330174 
L 80.861481 162.879698 
L 81.412305 163.371151 
L 81.476972 163.707345 
L 81.442329 163.959796 
L 81.511615 164.082659 
L 82.286465 165.225106 
L 82.170988 165.725728 
L 82.315335 166.069257 
L 82.548598 167.098009 
L 82.76223 167.253881 
L 82.941219 167.118181 
L 83.274948 166.605944 
L 83.949333 166.058254 
L 84.099453 165.777686 
L 84.28537 165.099186 
L 84.518634 164.900526 
L 84.56136 165.303347 
L 85.221888 165.974512 
L 85.231126 166.189675 
L 85.01172 167.42809 
L 84.557896 168.01979 
L 84.46436 168.50452 
L 84.420478 168.884725 
L 84.059036 169.253315 
L 83.808451 169.224586 
L 83.61214 169.079106 
L 82.731051 168.996585 
L 82.497788 169.113336 
L 82.055512 169.885359 
L 81.731022 169.947096 
L 81.348793 169.832179 
L 81.249483 169.926924 
L 81.284126 170.084018 
L 81.660581 170.761296 
L 81.498913 171.717308 
L 81.555497 172.428815 
L 81.174423 173.895841 
L 81.495449 177.560656 
L 81.393829 178.114458 
L 81.099363 178.461654 
L 81.06241 178.204314 
L 80.668634 177.884013 
L 80.43999 177.781321 
L 80.047368 177.969284 
L 79.572758 178.109568 
L 79.424948 178.647172 
L 79.383376 178.841553 
L 79.548508 179.004454 
L 79.44227 179.286245 
L 78.300203 178.887398 
L 77.74014 179.634664 
L 77.458526 179.724349 
L 77.11772 179.708015 
L 77.201406 180.032617 
L 77.268994 180.197941 
L 77.213566 180.41555 
L 76.930647 181.059208 
L 77.0161 181.339165 
L 77.361376 181.709589 
L 77.385626 182.089182 
L 77.273614 182.457773 
L 77.600413 183.674487 
L 77.653532 183.985619 
L 77.805962 184.220649 
L 77.767855 184.392719 
L 77.856772 184.622553 
L 78.461871 185.614629 
L 79.957296 187.192599 
L 80.334906 187.955453 
L 80.480407 188.036445 
L 81.257566 189.678597 
L 82.003547 190.536502 
L 82.408871 190.722631 
L 82.628277 190.976915 
L 83.037065 190.952465 
L 83.559021 191.77889 
L 85.123733 192.924698 
L 85.58795 193.135889 
L 85.699962 193.32813 
L 85.785415 193.814388 
L 86.390514 194.741671 
L 86.492134 194.880122 
L 86.892839 195.221817 
L 87.052197 195.502385 
L 87.316639 195.682402 
L 87.310865 195.992311 
L 87.314329 196.196472 
L 87.526807 196.952907 
L 88.015274 197.518629 
L 88.0095 199.090792 
L 88.420598 201.149519 
L 88.248537 202.574674 
L 88.43561 203.259897 
L 88.394581 203.472162 
L 88.241609 203.614734 
L 87.5857 203.749823 
L 87.451747 203.947871 
L 87.359365 205.020329 
L 87.352437 205.521257 
L 88.152691 206.264245 
L 88.13306 206.629167 
L 88.022203 206.997146 
L 88.35824 208.073271 
L 88.665409 208.431776 
L 88.919458 209.367922 
L 89.291294 209.489563 
L 89.509545 209.996298 
L 89.854821 210.163172 
L 90.15968 210.507923 
L 90.816743 210.990819 
L 90.85947 211.531174 
L 90.783255 211.918713 
L 90.635445 212.292194 
L 90.68279 212.535476 
L 91.010744 213.268377 
L 91.140079 214.297129 
L 91.418378 214.770245 
L 91.443783 215.235415 
L 91.584665 215.749485 
L 91.325996 216.06184 
L 91.364104 216.272725 
L 91.521152 216.312457 
L 92.362979 216.13947 
L 92.383765 216.354634 
L 92.140108 217.168222 
L 92.103156 217.496469 
L 92.724422 218.083279 
L 92.711719 218.324727 
L 92.501551 219.044793 
L 92.722112 219.486123 
L 93.137829 219.811925 
L 93.350306 219.982467 
L 93.091638 221.047895 
L 92.240573 222.168947 
L 91.518843 222.251467 
L 91.233615 222.566878 
L 91.095043 223.754252 
L 90.468003 224.772002 
L 90.381395 225.175739 
L 89.838654 225.837124 
L 89.533795 226.576444 
L 89.029161 227.293758 
L 88.614599 228.448736 
L 88.18387 228.709439 
L 87.885831 229.165684 
L 87.121483 229.778534 
L 86.926327 230.279462 
L 86.571813 230.171575 
L 86.328157 230.133065 
L 86.116834 230.472315 
L 86.107596 230.868106 
L 86.197668 231.282541 
L 86.025607 231.711341 
L 85.010565 232.007191 
L 84.756516 232.38006 
L 84.412395 232.428655 
L 84.198763 232.628843 
L 83.593664 233.581799 
L 83.534771 234.240738 
L 83.822308 234.56165 
L 83.968964 235.54303 
L 83.701057 236.596538 
L 83.350576 237.402247 
L 83.170541 237.763228 
L 82.814108 238.995376 
L 82.335834 239.626851 
L 81.401108 241.435125 
L 81.206524 241.608877 
L 80.959204 241.117462 
L 80.880098 239.722632 
L 80.608227 239.119553 
L 80.809175 238.563161 
L 81.042856 237.400322 
L 81.042856 237.152448 
L 80.650962 235.8688 
L 80.730069 235.36824 
L 80.673694 234.873456 
L 80.315443 234.008064 
L 80.26998 232.998281 
L 80.317262 232.832229 
L 80.462744 232.770141 
L 80.847364 232.90972 
L 81.042856 233.262037 
L 81.157424 233.128234 
L 81.071044 232.799982 
L 80.959204 232.696019 
L 81.212889 232.647407 
L 81.431113 232.857739 
L 81.872108 231.767095 
L 81.804822 231.558208 
L 81.91939 231.567353 
L 82.186714 231.396488 
L 81.605693 231.108185 
L 81.635698 231.027325 
L 82.121247 230.791003 
L 82.37766 230.588854 
L 82.680446 230.713994 
L 83.0978 230.526284 
L 83.155993 230.096957 
L 82.969593 229.336491 
L 83.143263 229.248893 
L 83.163267 228.936043 
L 83.032332 228.474469 
L 82.834112 228.538001 
L 82.694085 228.442221 
L 82.492228 228.070652 
L 83.228734 227.784273 
L 83.329663 227.549877 
L 83.329663 227.182157 
L 83.621537 226.45057 
L 83.477873 226.250346 
L 83.197819 225.28773 
L 83.261468 225.075473 
L 82.988688 225.148151 
L 82.936859 225.042263 
L 83.130533 224.38961 
L 83.35785 224.307306 
L 83.796117 224.267357 
L 83.69246 224.10275 
L 83.566981 223.452503 
L 83.465143 223.423625 
L 83.185089 223.452503 
L 83.15963 223.340359 
L 83.365124 222.66749 
L 83.356941 222.037459 
L 83.542431 221.568183 
L 84.268026 221.619202 
L 84.328947 221.25774 
L 84.683561 221.267847 
L 85.100005 221.426679 
L 84.933609 221.083988 
L 84.131636 220.919862 
L 83.886134 220.699904 
L 83.967968 220.409194 
L 84.363499 219.86291 
L 84.17619 219.562093 
L 84.256206 219.769055 
L 83.978879 220.139662 
L 83.646087 220.631558 
L 83.383309 220.68354 
L 83.05961 221.061848 
L 82.994143 221.381917 
L 82.784102 221.555188 
L 82.374023 221.345819 
L 81.939394 220.862105 
L 81.908479 220.533372 
L 82.164892 220.264321 
L 82.200353 220.253251 
L 82.186714 220.126185 
L 81.881201 220.126185 
L 82.19217 219.78927 
L 82.415849 219.810929 
L 82.745913 219.254056 
L 83.032332 219.238654 
L 82.893215 219.070196 
L 82.658624 219.079822 
L 82.186714 219.238654 
L 81.271992 219.238654 
L 81.37383 218.996556 
L 81.597509 218.907033 
L 82.344927 218.865159 
L 82.726819 218.598033 
L 82.991415 218.28759 
L 83.185089 218.225501 
L 83.105983 217.504983 
L 82.994143 217.234488 
L 83.101437 217.050629 
L 82.494956 217.009236 
L 82.219448 216.734891 
L 82.264911 216.016298 
L 82.658624 215.831957 
L 82.492228 215.831957 
L 82.597703 215.701523 
L 83.067794 215.387229 
L 83.073249 215.106145 
L 82.917765 214.943463 
L 82.298554 215.147056 
L 81.804822 215.508518 
L 81.251079 215.160052 
L 81.173791 214.716286 
L 81.488397 214.362043 
L 81.703893 214.289366 
L 82.934132 213.924053 
L 83.032332 213.688212 
L 82.958682 213.498096 
L 81.899386 212.729447 
L 82.159436 211.981976 
L 83.067794 211.742285 
L 82.408575 211.522809 
L 82.186714 211.448206 
L 82.099425 211.200814 
L 82.45222 210.401843 
L 82.658624 210.405693 
L 82.648622 210.330609 
L 82.568606 210.156857 
L 82.658624 209.671699 
L 82.879576 209.224083 
L 82.839568 209.190873 
L 82.383116 209.247186 
L 82.298554 209.112901 
L 82.426761 208.985835 
L 82.657714 208.969471 
L 82.62589 208.802457 
L 82.151253 208.857808 
L 82.036685 208.607527 
L 82.053961 208.634962 
L 82.366749 208.508378 
L 82.415849 208.372168 
L 82.118519 207.344095 
L 81.728444 206.925838 
L 81.957579 206.452231 
L 81.622969 205.201312 
L 81.655702 204.626631 
L 81.601146 203.765571 
L 81.317455 203.513366 
L 80.730069 203.027245 
L 80.611864 202.451601 
L 80.500933 202.61669 
L 80.448196 202.509839 
L 80.279072 201.605943 
L 80.408188 201.403794 
L 80.424555 201.089019 
L 80.324536 201.15207 
L 80.197238 201.486098 
L 80.208149 201.285873 
L 80.044481 200.832 
L 79.824439 200.507118 
L 79.960829 200.311707 
L 79.540748 199.554128 
L 78.89335 198.894255 
L 78.896987 198.643012 
L 78.358701 197.756444 
L 78.441444 197.836822 
L 78.512367 197.682803 
L 77.873152 197.528304 
L 77.824961 197.149996 
L 77.953168 196.373646 
L 77.906795 196.067053 
L 77.977718 195.899077 
L 77.909523 195.769124 
L 77.748583 195.124171 
L 77.748583 194.114869 
L 77.339413 193.576285 
L 77.213934 193.380874 
L 77.173017 193.976734 
L 77.366691 194.231827 
L 77.298496 194.716022 
L 77.151194 195.032723 
L 77.366691 195.693077 
L 77.143011 197.311234 
L 77.328501 198.068812 
L 77.136646 198.609802 
L 77.025715 198.948643 
L 77.054812 199.304811 
L 77.225754 199.541614 
L 77.049356 199.612848 
L 76.825677 199.378932 
L 76.810219 199.467493 
L 76.750208 199.621511 
L 76.725657 199.491558 
L 76.638368 199.136353 
L 76.587449 199.086297 
L 76.717474 198.627129 
L 76.673829 198.563597 
L 76.834769 198.518354 
L 76.903874 198.189139 
L 76.825677 198.00528 
L 77.023897 197.921532 
L 76.787488 197.756444 
L 76.291937 197.682803 
L 76.444694 197.352145 
L 76.166458 197.22508 
L 76.062802 196.866987 
L 76.130997 196.569539 
L 76.368316 196.625852 
L 76.291937 195.608367 
L 76.330126 195.25268 
L 76.092808 195.116952 
L 76.023703 194.760303 
L 75.827302 194.02679 
L 75.878221 193.759182 
L 76.22647 193.05551 
L 76.368316 192.690679 
L 76.20192 191.853685 
L 76.13918 192.000484 
L 75.604531 191.273228 
L 74.928946 189.693094 
L 74.943494 189.186758 
L 75.140805 188.601488 
L 75.042604 188.704488 
L 74.87439 188.897011 
L 74.714359 188.731441 
L 74.599791 188.19719 
L 74.172436 187.205696 
L 74.300643 186.897659 
L 74.021498 186.690215 
L 73.858739 186.386991 
L 73.858739 186.054407 
L 74.066052 185.759847 
L 74.5025 185.627006 
L 75.446319 186.486622 
L 74.938948 185.685244 
L 75.140805 185.604866 
L 74.814378 185.441221 
L 74.742546 185.309343 
L 74.754367 185.043661 
L 74.577969 184.696157 
L 74.52705 184.738512 
L 74.505228 184.958951 
L 74.529778 185.113451 
L 74.368838 185.248698 
L 74.212444 185.172652 
L 73.989673 184.709633 
L 73.959668 184.923334 
L 73.951484 185.517268 
L 73.531403 185.647221 
L 73.378646 185.436408 
L 73.072223 184.082008 
L 72.844906 183.73306 
L 72.931287 183.489037 
L 72.953109 183.074631 
L 73.081316 182.804617 
L 72.9522 182.332936 
L 72.677601 182.012385 
L 72.868547 181.93345 
L 72.996754 181.948852 
L 72.9522 181.865104 
L 72.844906 181.625413 
L 73.017667 181.192236 
L 73.024941 180.05635 
L 73.157694 179.841687 
L 72.683057 179.815696 
L 72.561215 179.675635 
L 72.242972 179.057636 
L 72.213875 178.425679 
L 72.115674 178.189838 
L 72.242972 178.071437 
L 72.350265 178.05796 
L 72.464833 177.654143 
L 72.533937 177.7119 
L 72.844906 177.492423 
L 72.756708 177.356213 
L 72.477563 176.357018 
L 72.615771 176.031654 
L 72.265703 175.167225 
L 72.273887 174.452965 
L 72.140225 173.819564 
L 72.130223 173.635704 
L 71.943823 173.287719 
L 72.081122 173.116854 
L 72.024748 172.189855 
L 71.853806 172.140762 
L 71.92291 171.817323 
L 71.690138 171.526132 
L 71.084566 171.090067 
L 70.399888 170.226601 
L 70.353515 169.542181 
L 70.511728 169.467579 
L 70.678124 169.394901 
L 70.888164 169.005042 
L 71.19095 167.019647 
L 70.964543 166.329452 
L 70.966361 165.31293 
L 71.248234 164.488931 
L 71.493736 164.178969 
L 71.821072 163.95853 
L 72.235698 163.873338 
L 72.18296 163.784296 
L 71.930184 163.630759 
L 71.008187 164.196296 
L 70.813604 164.21266 
L 69.807955 164.143352 
L 68.283115 164.528398 
L 68.102171 164.769052 
L 67.650082 162.447099 
L 67.441877 162.772155 
L 67.158553 162.694614 
L 66.649509 161.831374 
L 66.537031 161.065524 
L 66.700081 160.81944 
L 66.569147 160.554721 
L 66.65189 160.143684 
L 66.470946 160.39589 
L 66.417299 160.716441 
L 66.300004 160.633174 
L 66.250903 160.318399 
L 66.264542 160.143684 
L 66.417299 159.827946 
L 66.226353 159.762489 
L 66.10542 159.827946 
L 66.012675 159.588255 
L 66.144519 158.40135 
L 65.803544 157.958547 
L 65.72171 157.632702 
L 65.914474 157.329478 
L 66.575511 157.534515 
L 66.881025 157.390604 
L 65.997218 157.074866 
L 65.730803 157.130698 
L 65.550768 157.48494 
L 65.42438 157.720781 
L 65.085223 157.077754 
L 65.037032 156.699446 
L 65.189789 156.42125 
L 64.956107 156.371194 
L 64.731518 155.686774 
L 64.045022 155.371036 
L 64.114126 155.121719 
L 62.734768 153.991127 
L 62.65839 153.249432 
L 62.530183 153.435216 
L 62.352876 154.064767 
L 62.311959 153.999309 
L 62.129197 153.855398 
L 61.970984 153.991127 
L 62.966631 154.909462 
L 62.969359 155.290658 
L 62.281953 156.141129 
L 62.352876 156.663829 
L 62.961176 157.869505 
L 62.902983 158.537079 
L 62.701125 158.903835 
L 62.493813 159.506914 
L 62.123741 159.41691 
L 62.155565 159.530017 
L 62.352876 159.827946 
L 62.208303 159.813507 
L 61.818227 159.740348 
L 61.818227 159.827946 
L 62.221942 160.151385 
L 62.251948 160.494558 
L 62.017357 161.033141 
L 61.856416 161.443215 
L 61.611824 161.545253 
L 61.741849 161.766654 
L 61.351773 162.243149 
L 60.795302 162.701354 
L 60.595263 163.037307 
L 60.383621 163.688855 
L 59.673791 164.361467 
L 58.351836 164.761481 
L 57.666188 164.837408 
L 57.2628 164.526473 
L 56.781798 164.355609 
L 55.843435 163.603325 
L 55.763419 163.429091 
L 55.647942 162.713868 
L 55.35334 161.987093 
L 55.314241 161.483645 
L 55.412442 161.298823 
L 55.999829 160.870459 
L 55.669765 160.83773 
L 55.099654 161.292085 
L 54.704123 161.362356 
L 55.001454 161.806121 
L 55.1924 162.44963 
L 55.541558 163.021424 
L 55.413351 163.671189 
L 55.544286 163.92532 
L 56.550844 165.29079 
L 55.979891 166.159552 
L 54.401337 166.645671 
L 53.883055 166.602353 
L 53.656648 166.220676 
L 52.865586 165.906864 
L 53.535715 166.518606 
L 53.546627 166.818942 
L 52.568255 167.849422 
L 52.148174 167.897553 
L 52.217278 167.657861 
L 52.249103 167.441273 
L 51.485319 168.01451 
L 51.561697 167.602992 
L 50.295998 168.824551 
L 50.060497 168.770645 
L 49.940474 168.423141 
L 49.826816 167.971193 
L 49.717704 167.852791 
L 49.72225 169.229813 
L 49.335812 169.915195 
L 49.298532 170.628012 
L 49.045756 171.089586 
L 47.467268 172.811224 
L 46.048812 173.843629 
L 45.799673 173.859512 
L 44.908591 173.7079 
L 44.83585 173.562545 
L 44.862219 172.301519 
L 45.112267 172.067603 
L 45.401414 171.411099 
L 45.688742 170.671329 
L 45.736024 170.029746 
L 45.525074 169.105635 
L 45.658737 168.733584 
L 45.590542 168.733584 
L 45.277754 169.218261 
L 45.514163 169.997017 
L 45.437785 170.679512 
L 45.103175 171.114614 
L 44.938597 171.636352 
L 44.688549 171.950164 
L 44.430317 172.047388 
L 44.286653 171.743202 
L 44.553977 171.187773 
L 44.701279 170.835937 
L 44.668545 170.444633 
L 44.121166 171.451529 
L 44.050244 171.857753 
L 44.125713 172.734696 
L 43.995688 173.013373 
L 43.55833 173.116854 
L 43.233722 172.983051 
L 43.023681 172.646135 
L 42.906386 171.743202 
L 43.155525 170.409979 
L 43.059143 170.033115 
L 42.822733 170.679512 
L 42.709984 170.191466 
L 42.850011 169.690905 
L 43.160071 169.302009 
L 43.55833 169.145102 
L 44.050244 169.145102 
L 44.1048 169.019962 
L 43.059143 168.733584 
L 42.977309 168.931402 
L 42.377193 169.91712 
L 42.433567 170.835937 
L 42.142602 172.593191 
L 41.88437 172.828551 
L 41.534302 172.991714 
L 41.346084 173.278574 
L 40.923275 173.278574 
L 40.541383 173.116854 
L 39.907624 172.965724 
L 40.158581 172.671163 
L 40.394081 172.534472 
L 40.460458 172.293818 
L 40.306792 172.059902 
L 39.978547 172.378047 
L 39.772143 171.090067 
L 39.946722 170.747857 
L 40.194952 170.518274 
L 40.5823 170.417199 
L 40.732329 170.268475 
L 40.770518 170.033115 
L 40.382261 170.282914 
L 40.089477 168.977607 
L 40.356802 168.468384 
L 40.695049 168.213291 
L 41.163321 168.112697 
L 41.471563 167.741609 
L 41.534302 167.522133 
L 41.485202 167.598179 
L 41.249702 167.881669 
L 40.424087 168.05494 
L 39.93672 168.83514 
L 39.94945 169.474317 
L 40.159491 170.004237 
L 39.90035 170.488914 
L 39.095648 171.158894 
L 38.66011 172.045463 
L 38.310042 172.281304 
L 38.086362 172.301519 
L 37.805399 172.21007 
L 37.647186 171.824062 
L 37.546258 171.575225 
L 37.516252 171.793258 
L 37.399866 171.771599 
L 37.164366 171.420726 
L 38.627376 170.282914 
L 38.814685 169.593681 
L 39.046548 169.278906 
L 39.218399 168.837065 
L 39.313872 168.572346 
L 39.003812 168.838991 
L 38.326409 170.244409 
L 37.036159 171.297992 
L 36.776109 171.251787 
L 36.728827 170.939899 
L 37.023429 170.533194 
L 37.622636 169.960438 
L 38.030897 169.054135 
L 38.118187 168.532879 
L 38.086362 168.01451 
L 37.87814 167.441273 
L 38.496442 166.205274 
L 38.627376 166.222602 
L 38.627376 166.141742 
L 38.509171 166.011789 
L 38.38642 164.607333 
L 38.627376 164.283894 
L 38.087271 164.446576 
L 38.009984 164.196296 
L 37.933605 164.460052 
L 38.086362 166.182172 
L 38.026351 166.366031 
L 37.705379 166.835788 
L 37.638094 167.135161 
L 37.224377 167.6131 
L 36.970692 167.691072 
L 36.948869 167.608768 
L 37.546258 166.6269 
L 37.4817 166.417531 
L 37.352584 166.443041 
L 37.224377 166.632676 
L 37.066165 167.135161 
L 36.858852 167.279553 
L 36.636082 167.179923 
L 36.477869 167.038418 
L 36.206908 167.090881 
L 36.17963 168.06216 
L 36.110525 168.246019 
L 35.228536 169.61149 
L 34.371098 170.082209 
L 34.24471 170.533194 
L 33.806443 170.610203 
L 33.648231 170.518274 
L 33.255427 170.861927 
L 33.121765 170.769035 
L 32.789883 170.145741 
L 32.783518 169.962363 
L 32.848985 168.623846 
L 33.102671 167.257895 
L 33.146315 166.159069 
L 33.335443 165.906864 
L 33.497292 164.97072 
L 33.497292 164.123137 
L 34.14469 164.235763 
L 34.344729 163.650493 
L 34.313814 163.481072 
L 34.106501 163.315503 
L 34.379281 163.171592 
L 34.490212 162.971849 
L 34.51749 162.195499 
L 34.897563 161.3123 
L 34.944845 161.164538 
L 34.875741 160.474343 
L 34.679339 159.997367 
L 34.810274 159.764414 
L 35.17398 159.827946 
L 35.309461 159.723021 
L 35.637707 159.255671 
L 35.41039 159.255671 
L 35.560419 158.862443 
L 35.606791 157.836295 
L 35.90685 157.190861 
L 35.872297 156.992081 
L 35.503135 156.694151 
L 35.637707 156.42125 
L 36.242369 156.619549 
L 36.423313 156.23354 
L 36.165991 156.091073 
L 36.128711 155.938017 
L 36.243278 155.251672 
L 36.539699 155.157817 
L 36.547883 154.87914 
L 36.976147 155.072625 
L 37.087987 155.202579 
L 36.890676 154.421416 
L 36.706095 151.774705 
L 36.891586 151.844013 
L 37.317122 152.206919 
L 37.252564 152.041349 
L 37.049798 151.513354 
L 37.032522 151.25056 
L 36.736101 150.833267 
L 36.523332 149.811931 
L 36.051423 149.355652 
L 35.945039 148.998521 
L 35.846838 147.987294 
L 35.41039 146.972216 
L 35.483131 146.802795 
L 35.945039 146.524599 
L 35.926853 145.973983 
L 34.987581 143.859117 
L 34.261986 143.903878 
L 34.086497 143.664668 
L 34.14469 143.245931 
L 34.235617 143.212239 
L 34.359277 143.366739 
L 34.533857 143.299837 
L 34.793907 143.44808 
L 35.104876 143.117903 
L 34.799363 142.541296 
L 34.362914 142.393053 
L 34.14469 141.792862 
L 33.33908 140.810513 
L 33.182686 140.452902 
L 33.33908 140.494775 
L 33.375451 140.383593 
L 33.225422 139.27466 
L 32.109751 138.095937 
L 32.193404 138.095937 
L 32.39617 138.25525 
L 32.809887 138.249475 
L 33.566397 138.095937 
L 33.266339 137.934699 
L 32.993559 138.131073 
L 32.818979 138.05647 
L 32.091566 136.897481 
L 32.109751 136.561528 
L 31.9379 136.818547 
L 31.955176 137.126584 
L 31.782415 137.171826 
L 31.322326 136.977378 
L 31.19321 136.796888 
L 31.040453 136.884967 
L 30.87133 136.669341 
L 30.804044 136.320874 
L 30.854963 135.972407 
L 31.040453 135.753894 
L 30.882241 135.181137 
L 31.040453 134.740741 
L 31.165932 134.418746 
L 31.116832 134.249326 
L 31.498724 133.969686 
L 31.340511 133.969686 
L 30.965893 134.043326 
L 30.770401 133.874387 
L 30.868602 133.438322 
L 30.811318 133.000813 
L 31.040453 132.384258 
L 31.004083 131.209386 
L 31.224125 130.852255 
L 31.19321 130.401751 
L 30.727666 131.613203 
L 30.818592 132.583519 
L 30.149372 133.272271 
L 29.80476 132.993112 
L 29.744748 132.582075 
L 29.612904 132.515655 
L 29.44469 132.743795 
L 29.4947 132.996963 
L 29.949333 133.603411 
L 29.889321 133.841177 
L 29.973883 134.858661 
L 30.260302 135.515165 
L 30.153918 135.916094 
L 29.765661 136.467192 
L 29.821126 136.561528 
L 29.66837 136.675117 
L 29.411047 136.401253 
L 28.945502 136.239052 
L 28.143529 135.547894 
L 27.480674 135.225418 
L 27.021494 134.759512 
L 26.857826 134.771063 
L 26.733256 134.483241 
L 26.716889 134.087606 
L 26.525943 133.59956 
L 26.449565 133.415219 
L 25.90946 132.912734 
L 25.489379 132.185478 
L 24.714684 131.055367 
L 24.671948 130.855143 
L 24.757419 130.181312 
L 25.195686 129.892046 
L 25.533933 129.989752 
L 25.721242 130.232812 
L 26.103134 130.232812 
L 26.389553 130.873914 
L 26.214974 131.047666 
L 26.954208 131.493357 
L 27.289728 131.532343 
L 27.349739 131.827385 
L 27.704353 132.07959 
L 28.176263 132.221095 
L 28.593616 132.185478 
L 28.942775 131.997286 
L 29.897505 131.155479 
L 29.922055 130.940335 
L 30.042078 130.885947 
L 30.303947 130.428704 
L 30.271214 129.513738 
L 29.594719 129.533472 
L 29.491063 129.410257 
L 29.542891 129.274528 
L 29.744748 129.18308 
L 29.627453 129.123879 
L 29.128265 129.066122 
L 27.95622 127.86911 
L 27.536139 127.698727 
L 27.442484 127.520643 
L 27.523409 127.298279 
L 27.72072 127.183246 
L 28.211724 127.237634 
L 28.148985 127.035485 
L 28.517238 126.503158 
L 28.287193 126.180682 
L 28.03078 126.828041 
L 27.776185 127.020083 
L 27.327917 126.896868 
L 27.19971 126.56284 
L 27.303367 126.207154 
L 27.67071 125.945804 
L 27.338828 125.906818 
L 27.021494 126.429518 
L 26.51776 126.425186 
L 26.38137 126.30871 
L 26.373187 126.018963 
L 26.150416 126.440588 
L 25.992204 126.503158 
L 26.048578 125.585786 
L 26.869646 124.553862 
L 27.518863 124.56445 
L 27.415206 124.430647 
L 27.434301 124.188068 
L 27.600697 124.161114 
L 27.540685 124.06004 
L 27.289728 123.911316 
L 27.22426 123.95704 
L 27.177888 124.161114 
L 26.070401 124.278554 
L 25.90946 124.56445 
L 25.604856 124.523539 
L 25.381176 124.322834 
L 25.435732 124.289142 
L 25.595763 124.161114 
L 25.063842 123.888694 
L 25.21569 123.749596 
L 24.992919 123.523863 
L 25.047475 123.396798 
L 25.21569 123.35348 
L 25.189321 123.266845 
L 25.145676 123.18406 
L 24.812885 123.442041 
L 24.771968 123.588358 
L 24.717412 123.526751 
L 24.529193 123.35348 
L 24.379164 123.715423 
L 24.13639 123.701947 
L 23.849971 123.3092 
L 23.544457 122.127108 
L 23.460805 122.127108 
L 23.42989 122.809602 
L 23.315322 122.861583 
L 23.249855 122.720079 
L 23.002534 121.965388 
L 22.767034 122.400972 
L 22.316947 122.612266 
L 21.676823 122.472687 
L 21.398588 122.412042 
L 21.242194 122.539107 
L 20.793016 122.209893 
L 20.707545 122.05443 
L 20.723912 122.285939 
L 21.935055 125.291706 
L 21.704101 125.101109 
L 21.242194 124.161114 
L 20.927587 123.241335 
L 20.742097 123.096462 
L 20.492048 123.247592 
L 20.412942 123.598947 
L 20.458406 123.994582 
L 20.723912 124.802216 
L 20.918495 125.149239 
L 21.158541 125.453426 
L 20.669356 124.988001 
L 20.531147 124.660712 
L 19.861927 123.547928 
L 19.701896 123.021378 
L 19.003579 122.13529 
L 18.93993 121.642912 
L 19.141787 121.695856 
L 19.881021 121.580342 
L 20.16744 121.157754 
L 20.221996 121.268455 
L 20.325653 121.400333 
L 20.623892 120.59318 
L 20.269278 120.686072 
L 19.480034 121.400333 
L 19.166337 121.341614 
L 19.132695 120.966193 
L 19.286361 120.343381 
L 19.482762 120.140269 
L 19.900116 119.04385 
L 20.175624 118.933149 
L 20.292919 118.667467 
L 20.394757 118.074978 
L 20.187444 118.241991 
L 19.938305 118.88935 
L 19.755542 118.857584 
L 19.619152 118.328627 
L 19.632791 118.074978 
L 20.22927 116.870264 
L 20.091062 116.613727 
L 19.82101 117.357348 
L 19.525498 117.821328 
L 19.454575 119.331672 
L 19.214529 119.784102 
L 18.558038 120.66682 
L 18.037028 121.660239 
L 17.794254 121.730991 
L 17.655136 121.629436 
L 17.559663 121.481193 
L 16.726774 120.790997 
L 16.79406 120.434348 
L 17.032288 120.108503 
L 17.753337 119.616606 
L 18.634416 119.374509 
L 18.438015 119.296537 
L 18.039756 119.22771 
L 17.939736 119.04385 
L 17.490559 118.559655 
L 17.338711 117.318362 
L 17.208686 117.204292 
L 16.95591 117.186002 
L 16.999554 117.451203 
L 16.874076 117.698114 
L 16.69495 117.791487 
L 16.574927 117.589819 
L 16.803153 117.517142 
L 16.490365 117.277451 
L 16.152118 116.168999 
L 15.19466 114.91808 
L 16.013 116.329274 
L 16.110291 117.260124 
L 16.350338 118.107225 
L 16.269413 118.647253 
L 16.269413 120.108503 
L 15.88843 119.528046 
L 15.167382 117.891599 
L 14.011704 116.746568 
L 13.764383 115.967331 
L 12.892396 115.203014 
L 12.24318 114.641809 
L 12.129521 114.102744 
L 11.239349 111.825677 
L 11.062042 110.622889 
L 10.539518 110.060645 
L 10.465613 109.884602 
L 10.119182 109.478113 
L 10.092623 109.083239 
L 10.168837 108.50193 
L 10.091468 107.800202 
L 10.151516 107.593596 
L 10.463303 107.147987 
L 10.739293 106.412029 
L 11.27857 106.388801 
L 11.70468 105.882065 
L 12.062658 106.001261 
L 12.257814 106.388801 
L 12.358279 106.794067 
L 12.571911 106.957273 
L 13.299416 107.089306 
L 13.671251 107.00923 
L 13.959944 107.074024 
L 14.17704 107.549585 
L 14.342172 108.272095 
L 14.474971 108.420632 
L 14.701305 108.401683 
L 15.180534 108.007419 
L 15.261916 107.695503 
L 15.241737 107.575869 
L 14.722091 105.784264 
L 14.530399 102.663777 
L 14.694377 100.496857 
L 14.622781 99.749896 
L 14.846806 99.571408 
L 15.111248 99.370914 
L 15.372226 99.290228 
L 15.455369 98.96626 
L 15.431119 98.626399 
L 15.496941 98.395953 
L 15.580084 98.421015 
L 15.637823 98.2682 
L 15.629739 97.777357 
L 15.739443 97.691781 
L 16.010813 97.766966 
L 16.720996 98.284704 
L 17.640192 99.231547 
L 17.903479 100.025575 
L 18.035123 99.910658 
L 18.224505 99.312233 
L 18.389637 99.259054 
L 18.717592 99.572019 
L 18.916212 99.667987 
L 19.047855 99.49011 
L 18.992427 99.241327 
L 18.885033 98.930807 
L 18.905819 98.775546 
L 19.218761 98.295707 
L 19.557109 98.181401 
L 19.524775 98.086044 
L 19.546716 97.12881 
L 19.784598 97.070128 
L 20.284613 97.185046 
L 20.607948 97.37637 
L 20.856224 97.301796 
L 20.666841 96.769388 
L 20.72227 96.777335 
L 21.213047 96.448476 
L 21.219976 96.330503 
L 20.987867 94.460044 
L 20.49709 93.850617 
L 20.370066 93.185566 
L 20.507483 92.463055 
L 20.439352 92.231387 
L 20.098695 91.569392 
L 20.064052 91.32122 
L 20.161053 90.376822 
L 20.672615 89.79918 
L 21.233833 89.087673 
L 21.184178 88.629533 
L 20.87239 87.954395 
L 20.837747 87.311043 
L 20.975165 87.097713 
L 21.251155 86.99716 
L 21.468251 87.051563 
L 22.027159 87.635317 
L 22.320471 87.618507 
L 22.828569 87.29026 
L 22.997165 87.0699 
L 23.464847 86.006918 
L 23.437132 85.679588 
L 23.478704 84.382492 
L 23.565311 83.984561 
L 23.828599 83.472936 
L 23.744301 82.317958 
L 24.080338 79.640941 
L 23.812432 79.18219 
L 23.460227 78.946855 
L 23.138047 76.8215 
L 22.804319 76.319961 
L 22.657663 75.915612 
L 22.657663 75.373118 
L 22.87245 74.912838 
L 23.166916 74.808313 
L 23.387477 74.931482 
L 23.814742 75.554051 
L 24.251244 76.07729 
L 24.374804 76.333409 
L 24.811307 76.343189 
L 25.417561 76.119773 
L 25.544585 76.265559 
L 25.77323 76.101129 
L 25.842516 75.916223 
L 26.115041 75.752711 
L 27.217846 75.795193 
L 27.574669 75.915612 
L 28.019255 76.504867 
L 28.252518 76.616117 
L 29.140536 76.506701 
L 30.422329 76.841978 
L 31.239906 77.325179 
L 31.559777 77.721276 
L 31.751468 77.73289 
L 31.91891 77.551652 
L 32.064411 76.582803 
L 32.611771 75.745376 
L 32.721474 75.176597 
L 32.886606 74.834597 
L 33.059821 73.963245 
L 33.651063 72.5115 
L 33.745754 71.925606 
L 34.152233 71.470217 
L 34.118745 71.193621 
L 34.481342 70.827782 
L 34.584116 70.20888 
L 34.882047 70.003802 
L 35.121084 69.232085 
L 35.252728 69.106777 
L 35.752743 68.793506 
L 35.88785 68.520578 
L 36.21465 67.521166 
L 36.808201 67.385772 
L 37.032226 67.020849 
L 37.138465 66.237518 
L 37.76204 65.342327 
L 37.971054 64.329162 
L 38.36252 63.72493 
L 38.421413 63.223696 
L 38.342889 62.730715 
L 38.145424 62.392687 
L 37.294359 62.12251 
L 36.891345 61.977641 
L 36.628057 61.616386 
L 36.59226 61.129822 
L 37.49067 58.975739 
L 38.177757 58.396875 
L 39.187025 58.062515 
L 39.730921 57.377903 
L 40.065804 57.272155 
L 40.026542 57.060047 
L 40.184746 56.957356 
L 41.379931 55.407198 
L 41.717124 55.311841 
L 41.769089 54.832001 
L 41.551992 53.380257 
L 41.752922 53.0135 
L 42.354556 52.748824 
L 43.308396 51.611879 
L 43.295693 51.363096 
L 43.154811 51.221283 
L 42.603986 50.971278 
L 42.539319 50.07578 
L 42.632856 49.804992 
L 42.274877 49.627726 
L 42.136305 49.269527 
L 42.106281 48.326352 
L 42.308366 47.156399 
L 42.072793 46.576923 
L 42.399592 46.214445 
L 42.903072 45.548171 
L 43.100537 44.85928 
L 43.803791 44.386775 
L 44.113269 44.273081 
L 44.377747 44.52691 
L 44.73569 44.479076 
L 45.149097 44.288362 
L 46.206865 43.903268 
L 46.53482 43.504115 
L 47.091418 42.612896 
L 47.813149 42.543213 
L 48.225402 42.458859 
L 48.593773 41.784638 
L 48.769298 41.717399 
L 49.432135 41.601871 
L 50.612309 40.317612 
L 51.549981 40.054158 
L 52.103116 39.428838 
L 52.939168 38.117073 
L 53.620482 37.654959 
L 54.384939 37.327935 
L 57.348076 36.846872 
L 58.733799 36.842594 
L 58.907014 36.749071 
L 59.34929 36.191601 
L 60.157629 36.335247 
L 60.470571 36.095022 
L 60.882824 36.159815 
L 61.465982 36.463001 
L 62.396726 37.526595 
L 62.207344 38.143968 
L 62.460238 38.34385 
L 64.176225 39.206339 
L 64.389857 39.344484 
L 65.059623 39.357932 
L 65.29635 39.341428 
L 65.47072 38.867701 
L 65.314827 38.671486 
L 65.131218 38.528451 
L 65.031908 38.111571 
L 64.723585 37.805941 
L 62.639227 35.120672 
L 62.590727 34.896339 
L 62.718906 34.374628 
L 62.423285 33.532616 
L 62.514512 33.050942 
L 62.844776 32.691521 
L 63.484518 32.234909 
L 64.009938 31.688442 
L 64.639287 31.497117 
L 64.77324 31.157256 
L 65.061932 31.017277 
L 65.22129 30.802114 
L 65.437232 30.711647 
L 66.877229 29.585704 
L 67.052754 29.605876 
L 67.190171 29.91334 
L 67.237517 29.993721 
L 67.743306 29.70979 
L 67.764092 29.115339 
L 68.012367 28.605853 
L 67.932688 28.272716 
L 67.237517 27.420618 
L 67.304494 27.016575 
L 67.637067 26.297732 
L 67.579329 25.972847 
L 67.694805 25.762573 
L 68.186737 25.427297 
L 68.259487 25.176068 
L 68.62093 25.161704 
L 68.8438 25.157425 
L 68.968516 25.025087 
L 69.019325 24.340475 
L 68.99392 23.909536 
L 69.267601 23.503964 
L 69.418875 23.317835 
L 69.861152 22.281748 
L 70.067856 22.176 
L 70.305738 22.329426 
L 70.556323 22.693738 
L 70.556323 22.693738 
" clip-path="url(#p20dbffa2fa)" style="fill: none; stroke: #000000; stroke-width: 2"/>
   </g>
  </g>
 </g>
 <defs>
  <clipPath id="p20dbffa2fa">
   <rect x="0" y="-0" width="120.654182" height="266.112"/>
  </clipPath>
 </defs>
</svg>
