<?xml version="1.0" encoding="utf-8" standalone="no"?>
<!DOCTYPE svg PUBLIC "-//W3C//DTD SVG 1.1//EN"
  "http://www.w3.org/Graphics/SVG/1.1/DTD/svg11.dtd">
<svg xmlns:xlink="http://www.w3.org/1999/xlink" width="221.650491pt" height="266.112pt" viewBox="0 0 221.650491 266.112" xmlns="http://www.w3.org/2000/svg" version="1.1">
 <metadata>
  <rdf:RDF xmlns:dc="http://purl.org/dc/elements/1.1/" xmlns:cc="http://creativecommons.org/ns#" xmlns:rdf="http://www.w3.org/1999/02/22-rdf-syntax-ns#">
   <cc:Work>
    <dc:type rdf:resource="http://purl.org/dc/dcmitype/StillImage"/>
    <dc:date>2024-02-02T21:58:03.583244</dc:date>
    <dc:format>image/svg+xml</dc:format>
    <dc:creator>
     <cc:Agent>
      <dc:title>Matplotlib v3.8.2, https://matplotlib.org/</dc:title>
     </cc:Agent>
    </dc:creator>
   </cc:Work>
  </rdf:RDF>
 </metadata>
 <defs>
  <style type="text/css">*{stroke-linejoin: round; stroke-linecap: butt}</style>
 </defs>
 <g id="figure_1">
  <g id="patch_1">
   <path d="M -0 266.112 
L 221.650491 266.112 
L 221.650491 0 
L -0 0 
L -0 266.112 
z
" style="fill: none"/>
  </g>
  <g id="axes_1">
   <g id="PatchCollection_1">
    <path d="M 78.205918 27.562793 
L 80.262321 27.491825 
L 82.149841 26.751733 
L 84.722829 23.737291 
L 87.117 23.450041 
L 91.696719 24.149581 
L 89.759528 27.180919 
L 89.829068 30.938832 
L 91.39869 34.385839 
L 93.912072 36.521632 
L 107.104844 42.425476 
L 108.704269 43.581237 
L 112.717733 49.576326 
L 118.390227 55.476791 
L 119.552542 57.200294 
L 121.201639 60.88386 
L 122.175202 62.360666 
L 125.781359 65.385246 
L 128.751719 69.271577 
L 130.41075 70.788936 
L 132.387679 71.829797 
L 136.649501 73.103838 
L 138.725773 73.337018 
L 139.947694 72.880796 
L 140.732504 72.100151 
L 141.507381 72.174498 
L 144.318793 77.287558 
L 146.087101 79.612598 
L 148.06403 81.217822 
L 150.309185 82.069435 
L 153.498101 82.278959 
L 156.756557 82.015364 
L 157.8692 81.319204 
L 160.114356 79.0212 
L 161.028313 78.524425 
L 162.230365 78.936714 
L 162.945636 79.984334 
L 163.492023 81.325963 
L 164.217228 82.596625 
L 165.170922 83.559759 
L 170.952695 87.642096 
L 180.281018 96.888186 
L 182.585779 97.651934 
L 187.741689 98.172365 
L 190.493495 99.372058 
L 195.530193 103.004933 
L 201.441111 106.002478 
L 203.030602 108.094338 
L 203.179617 111.338579 
L 202.235856 116.404328 
L 194.457287 117.735819 
L 190.771656 119.107863 
L 189.957042 119.635052 
L 189.152362 121.078064 
L 189.072887 122.335207 
L 189.221902 123.528142 
L 189.072887 124.795424 
L 186.668783 127.512477 
L 183.410327 126.549342 
L 179.814105 124.369617 
L 176.376831 123.467313 
L 175.293991 123.987743 
L 172.373302 126.346577 
L 171.588491 127.421232 
L 171.419607 130.009867 
L 172.597546 132.109189 
L 178.095468 137.390517 
L 179.029294 139.205265 
L 177.747767 142.574545 
L 176.654992 144.679923 
L 176.317225 145.747819 
L 176.287422 147.856576 
L 176.555649 149.69498 
L 176.446371 151.394828 
L 175.284056 153.114952 
L 172.810412 151.675319 
L 170.744074 153.18254 
L 167.286932 157.822482 
L 164.84309 158.535539 
L 160.154093 158.393604 
L 157.749988 160.093451 
L 156.865834 160.951823 
L 153.229874 163.12141 
L 151.69999 163.614805 
L 149.95155 163.398522 
L 148.322322 162.557047 
L 145.16321 160.093451 
L 143.504179 156.041528 
L 143.176346 154.828317 
L 143.11674 153.942909 
L 143.464442 151.043368 
L 144.626757 148.775778 
L 144.79564 148.910955 
L 144.626757 146.295285 
L 143.812143 142.959799 
L 142.331929 140.124467 
L 140.136446 138.982223 
L 137.901224 140.04674 
L 135.19909 142.510336 
L 132.685708 145.497742 
L 131.076349 148.133689 
L 130.520027 149.938298 
L 129.983574 153.368408 
L 129.447121 154.933079 
L 128.255003 156.308502 
L 126.874133 157.106045 
L 125.721753 158.106353 
L 125.1853 160.093451 
L 124.022985 162.530012 
L 122.691786 164.719875 
L 121.122164 166.538002 
L 119.22471 167.798525 
L 117.943183 169.941077 
L 112.528981 176.443078 
L 111.624958 178.585629 
L 111.436206 179.535246 
L 111.495812 181.326338 
L 111.406403 182.002222 
L 102.197292 196.493168 
L 99.346143 199.608992 
L 99.067982 200.994554 
L 100.031611 203.103311 
L 101.541627 204.789641 
L 107.045238 208.926049 
L 108.724138 210.990874 
L 108.952627 212.244638 
L 107.194253 216.151246 
L 106.72734 218.39856 
L 106.618063 220.987194 
L 106.965764 223.487964 
L 107.879721 225.478442 
L 108.585057 226.384126 
L 108.078407 228.587507 
L 107.502217 229.074143 
L 106.717406 229.182284 
L 106.22069 229.655403 
L 106.836617 232.669844 
L 106.608128 233.602564 
L 106.240558 234.281827 
L 106.121347 234.934055 
L 106.339902 236.873841 
L 107.23399 237.75249 
L 107.998932 239.14481 
L 107.929392 242.564782 
L 108.011956 243.936 
L 106.267584 242.419253 
L 102.739728 238.422492 
L 101.104868 237.602916 
L 94.088269 235.239984 
L 92.429942 234.164957 
L 90.075431 233.270874 
L 89.285379 232.738682 
L 88.518794 231.434812 
L 88.487504 230.716353 
L 88.612661 229.992572 
L 88.331058 228.68338 
L 87.877365 228.465181 
L 86.883934 227.555133 
L 86.179927 226.549291 
L 86.657087 226.086284 
L 86.719665 225.532804 
L 86.297261 219.077316 
L 80.852943 214.005528 
L 80.102003 212.116246 
L 80.9781 210.226965 
L 80.266271 209.460609 
L 79.06946 208.907129 
L 77.598868 206.288745 
L 73.938033 206.373896 
L 73.124514 204.979553 
L 72.90549 203.558601 
L 72.420508 203.22332 
L 71.771257 203.212676 
L 71.153296 202.776279 
L 69.846972 199.945018 
L 68.446781 198.486812 
L 64.590389 195.559756 
L 63.471801 193.564037 
L 62.799083 189.24796 
L 61.962098 187.433186 
L 60.577551 186.634898 
L 58.887935 186.634898 
L 57.432988 187.257563 
L 56.713337 188.327268 
L 55.391369 186.544426 
L 53.115081 187.960056 
L 52.387607 188.77431 
L 51.636667 189.120234 
L 51.003061 188.407097 
L 50.087852 186.544426 
L 46.919822 183.872822 
L 45.480519 182.084657 
L 45.441408 180.296493 
L 44.886025 179.833486 
L 44.056862 178.870218 
L 43.470189 178.428499 
L 43.470189 177.614245 
L 43.681391 175.74093 
L 42.015242 174.144354 
L 40.09878 174.059203 
L 39.582508 176.720163 
L 38.94108 176.720163 
L 38.166672 176.193293 
L 36.078119 176.485999 
L 35.655715 176.24119 
L 35.155088 175.395005 
L 33.981744 174.43706 
L 32.636309 173.638772 
L 31.6507 173.228984 
L 31.979236 172.537135 
L 32.370351 172.260395 
L 29.953261 170.525449 
L 29.202321 169.226901 
L 29.679481 167.715476 
L 30.899759 167.268435 
L 39.903222 170.280641 
L 42.695782 171.786744 
L 44.127262 173.228984 
L 44.87038 171.196011 
L 44.713934 169.55686 
L 42.531514 164.618119 
L 42.476758 163.404722 
L 42.867872 161.467543 
L 39.676376 165.533489 
L 35.303712 166.374353 
L 25.095615 165.033229 
L 25.095615 166.00714 
L 26.902566 167.342942 
L 26.104692 171.132148 
L 27.723907 172.260395 
L 25.846556 171.621765 
L 24.516765 170.174203 
L 24.650019 168.23447 
L 24.173172 166.767803 
L 21.759133 165.32817 
L 20.527278 163.844606 
L 19.504043 162.117723 
L 18.818575 160.093451 
L 18.749035 157.822482 
L 19.285488 153.604967 
L 18.838444 151.486072 
L 19.831876 150.57025 
L 20.914716 150.110649 
L 22.027359 150.198513 
L 23.1102 150.901433 
L 24.103632 150.759497 
L 24.461267 149.961954 
L 24.252646 148.789296 
L 23.577113 147.481461 
L 26.51767 145.761337 
L 28.554205 143.757342 
L 29.627111 141.060566 
L 29.666849 137.248582 
L 28.673417 133.666398 
L 27.02432 131.517088 
L 25.06726 129.482678 
L 21.72933 124.021537 
L 20.427935 120.888816 
L 19.533846 117.759475 
L 19.444437 115.485126 
L 20.388197 114.021838 
L 21.590249 113.085739 
L 22.295586 111.811698 
L 21.749199 109.307549 
L 19.47424 104.70816 
L 18.520546 102.089111 
L 18.470874 99.8249 
L 20.318657 94.698322 
L 23.229412 91.92044 
L 28.603877 90.710609 
L 34.316109 90.636261 
L 38.220295 91.187107 
L 36.501658 81.221201 
L 36.502778 77.541014 
L 37.266601 73.576956 
L 38.826288 70.268506 
L 42.968898 64.476182 
L 40.654202 63.337318 
L 42.114547 61.204905 
L 54.383427 52.239308 
L 56.916678 51.438385 
L 56.608714 50.914576 
L 55.734495 49.184313 
L 57.502803 48.342838 
L 63.224969 47.80889 
L 65.559533 48.471256 
L 68.142456 50.272486 
L 68.817989 51.215344 
L 68.877595 52.114269 
L 68.79812 53.050368 
L 69.02661 54.1453 
L 69.90083 55.615347 
L 71.911398 58.257385 
L 72.195657 58.900142 
L 73.199023 58.004596 
L 73.963965 56.909664 
L 74.569958 55.753903 
L 75.295163 54.763733 
L 76.407807 54.162197 
L 78.931123 54.023641 
L 79.616591 53.442381 
L 76.725705 47.964343 
L 73.874556 40.08016 
L 70.54656 35.727468 
L 69.871027 35.227315 
L 67.755017 35.771401 
L 67.764952 35.098897 
L 68.182193 34.024242 
L 68.231864 33.172628 
L 66.950338 31.192289 
L 66.254935 30.756344 
L 64.774722 30.350814 
L 63.850831 29.664792 
L 63.801159 28.563101 
L 64.367415 27.488446 
L 65.281372 26.842977 
L 67.049681 25.960949 
L 69.334574 23.429764 
L 70.755181 22.392283 
L 72.94073 22.176 
L 74.291797 23.497353 
L 75.324966 25.427001 
L 76.586624 26.99843 
L 78.205918 27.562793 
L 78.205918 27.562793 
" clip-path="url(#pfb56c4a70b)" style="fill: none; stroke: #000000; stroke-width: 2"/>
   </g>
  </g>
 </g>
 <defs>
  <clipPath id="pfb56c4a70b">
   <rect x="-0" y="-0" width="221.650491" height="266.112"/>
  </clipPath>
 </defs>
</svg>
