<?xml version="1.0" encoding="utf-8" standalone="no"?>
<!DOCTYPE svg PUBLIC "-//W3C//DTD SVG 1.1//EN"
  "http://www.w3.org/Graphics/SVG/1.1/DTD/svg11.dtd">
<svg xmlns:xlink="http://www.w3.org/1999/xlink" width="357.12pt" height="171.155877pt" viewBox="0 0 357.12 171.155877" xmlns="http://www.w3.org/2000/svg" version="1.1">
 <metadata>
  <rdf:RDF xmlns:dc="http://purl.org/dc/elements/1.1/" xmlns:cc="http://creativecommons.org/ns#" xmlns:rdf="http://www.w3.org/1999/02/22-rdf-syntax-ns#">
   <cc:Work>
    <dc:type rdf:resource="http://purl.org/dc/dcmitype/StillImage"/>
    <dc:date>2024-02-02T21:58:03.606249</dc:date>
    <dc:format>image/svg+xml</dc:format>
    <dc:creator>
     <cc:Agent>
      <dc:title>Matplotlib v3.8.2, https://matplotlib.org/</dc:title>
     </cc:Agent>
    </dc:creator>
   </cc:Work>
  </rdf:RDF>
 </metadata>
 <defs>
  <style type="text/css">*{stroke-linejoin: round; stroke-linecap: butt}</style>
 </defs>
 <g id="figure_1">
  <g id="patch_1">
   <path d="M 0 171.155877 
L 357.12 171.155877 
L 357.12 0 
L 0 0 
L 0 171.155877 
z
" style="fill: none"/>
  </g>
  <g id="axes_1">
   <g id="PatchCollection_1">
    <path d="M 143.265733 19.645131 
L 144.119497 19.551456 
L 145.15587 19.719582 
L 147.936579 19.710494 
L 148.493486 20.009347 
L 149.120664 20.182017 
L 153.103623 22.056924 
L 153.543412 22.403313 
L 154.695468 22.574585 
L 155.70029 23.450171 
L 156.048297 23.448772 
L 157.330378 23.106927 
L 157.732403 23.184524 
L 158.41551 23.455064 
L 159.155503 23.448423 
L 160.062807 23.948957 
L 160.977759 23.956297 
L 161.473 24.305483 
L 162.402293 24.47326 
L 162.555741 24.610977 
L 163.412374 25.162193 
L 163.500332 25.387993 
L 163.003657 26.555091 
L 163.099263 27.035702 
L 163.066757 28.223072 
L 163.487425 29.265386 
L 163.83591 29.824293 
L 163.798146 30.210179 
L 163.702539 30.380054 
L 163.926736 30.730288 
L 163.679594 31.481788 
L 163.589724 31.852295 
L 163.71688 32.264747 
L 163.9841 32.536685 
L 164.556304 32.949836 
L 164.758511 33.347607 
L 164.673899 33.654498 
L 164.263748 34.275972 
L 164.223594 34.671646 
L 164.513759 35.443419 
L 164.742258 35.691589 
L 165.159101 35.852375 
L 166.076444 35.970518 
L 166.457913 36.257836 
L 167.137674 37.453945 
L 167.442423 37.67392 
L 168.76585 38.001317 
L 170.290293 38.973025 
L 170.722433 39.072293 
L 172.164654 38.889835 
L 172.827684 39.054117 
L 173.522264 40.399128 
L 173.798088 40.4956 
L 175.020415 40.466239 
L 175.346433 40.609548 
L 175.900949 40.99124 
L 176.525259 41.265276 
L 177.141919 41.296734 
L 178.226095 40.553622 
L 178.782524 40.573196 
L 179.971866 41.059749 
L 180.57801 41.161813 
L 181.338081 41.066041 
L 182.045089 40.771732 
L 183.445488 39.393862 
L 183.966298 39.005881 
L 184.598256 38.83391 
L 185.859303 38.821326 
L 186.660484 38.293528 
L 187.783859 38.22432 
L 188.552533 37.798587 
L 188.854649 37.751749 
L 190.186445 37.861503 
L 190.677862 37.686735 
L 192.038818 36.678676 
L 192.502986 36.626246 
L 195.37739 37.363765 
L 196.923823 37.330909 
L 197.827302 37.609139 
L 198.57351 37.663666 
L 199.113685 38.136937 
L 199.159098 38.497657 
L 199.230803 38.559175 
L 200.202163 38.747924 
L 200.769587 39.116334 
L 200.978486 39.144996 
L 202.781622 38.635374 
L 203.784532 38.529115 
L 204.786486 38.647957 
L 206.005467 39.128218 
L 207.803821 40.54034 
L 208.019892 41.175096 
L 208.326788 41.607121 
L 208.492187 42.069207 
L 209.485537 42.816513 
L 210.044356 43.11152 
L 210.78387 42.936054 
L 211.331695 43.394644 
L 214.906415 43.537254 
L 215.437508 43.830864 
L 215.835708 43.801503 
L 216.272629 43.944113 
L 216.719589 43.971377 
L 216.811849 44.108394 
L 216.699989 44.689322 
L 216.567097 45.0815 
L 216.588608 45.36742 
L 216.805156 46.513895 
L 216.74588 46.850847 
L 216.543195 47.535237 
L 216.654576 47.627514 
L 217.360629 47.728879 
L 217.263111 48.241997 
L 217.516467 48.627184 
L 218.384095 49.197626 
L 219.400868 49.396161 
L 219.615026 49.705151 
L 219.778035 50.072162 
L 220.311996 50.696432 
L 222.191616 52.170072 
L 222.842695 52.221104 
L 224.162062 51.984119 
L 225.160192 51.992508 
L 225.821788 51.880657 
L 227.00157 52.147702 
L 227.950463 51.910018 
L 229.350139 52.100864 
L 230.268916 52.497936 
L 230.739299 52.534987 
L 231.014645 53.044609 
L 231.240276 53.137585 
L 233.20403 52.994975 
L 233.72604 53.199103 
L 234.162961 53.530463 
L 237.796957 54.362356 
L 238.577105 53.949905 
L 239.25113 53.3522 
L 239.88978 53.967382 
L 240.416571 54.105798 
L 241.681442 54.749641 
L 242.480711 54.737058 
L 243.495094 54.402203 
L 244.64715 53.794012 
L 246.2476 52.655227 
L 247.664486 52.124633 
L 248.096626 51.665343 
L 248.527811 51.698899 
L 249.170285 51.958254 
L 249.623459 51.904425 
L 251.080499 51.237512 
L 254.495557 51.027791 
L 258.5942 49.373791 
L 259.621012 49.479351 
L 260.705187 49.95332 
L 261.405026 49.817002 
L 262.246361 49.407347 
L 263.187127 48.712471 
L 264.029419 48.537004 
L 264.12885 48.242696 
L 264.276083 47.300349 
L 265.156617 45.75051 
L 265.431964 45.479271 
L 267.310628 44.121677 
L 267.70835 43.649804 
L 268.828856 42.801832 
L 270.618606 41.967142 
L 271.328005 41.979726 
L 272.655021 40.789908 
L 273.228659 40.585081 
L 273.810901 40.03631 
L 274.568103 39.605683 
L 275.36546 39.326055 
L 275.797601 39.387573 
L 277.093066 39.905584 
L 278.819716 39.670697 
L 279.689734 39.876223 
L 282.108574 41.274364 
L 282.554099 42.023068 
L 283.911709 43.454764 
L 285.555181 44.545313 
L 287.31625 44.51036 
L 288.59355 44.724974 
L 288.913831 44.627804 
L 291.71414 43.092645 
L 292.470386 42.876633 
L 293.231413 42.884322 
L 296.541303 44.130066 
L 296.927553 44.460726 
L 297.548038 45.462493 
L 291.567863 58.356144 
L 291.528664 58.596625 
L 291.662513 59.308278 
L 291.478949 59.745197 
L 289.286696 63.176234 
L 289.243673 63.728499 
L 289.454007 66.421317 
L 289.367961 66.849148 
L 289.098352 67.09592 
L 286.93 68.109572 
L 286.727315 68.475535 
L 287.293304 71.348364 
L 287.517023 71.650363 
L 289.855554 74.110391 
L 290.427279 74.403301 
L 290.967455 74.063204 
L 291.998091 72.739165 
L 292.897747 72.162082 
L 293.474253 71.982071 
L 295.185606 72.357472 
L 295.840509 72.341044 
L 298.82247 71.800663 
L 299.111201 71.857287 
L 301.113198 72.695473 
L 303.402013 74.807014 
L 303.806428 74.850357 
L 307.32952 70.430485 
L 307.5628 70.220065 
L 308.009281 70.062075 
L 309.692909 70.127438 
L 310.311481 69.862491 
L 311.40713 69.745746 
L 311.627024 69.812158 
L 312.309653 70.152605 
L 314.092711 70.270049 
L 314.735186 70.583931 
L 315.317906 71.281603 
L 316.31747 72.919175 
L 316.817969 73.426001 
L 319.741611 74.705649 
L 319.933779 75.163191 
L 320.099178 76.364193 
L 320.427108 76.65221 
L 321.838257 77.214612 
L 321.861203 77.537233 
L 321.577252 78.04301 
L 321.935776 78.148919 
L 323.508499 79.635143 
L 323.826869 80.262209 
L 324.402897 80.430685 
L 324.792014 80.731984 
L 325.712225 81.914811 
L 326.00478 82.646038 
L 326.093694 83.74987 
L 326.952239 84.885859 
L 327.229497 84.933396 
L 327.206552 85.166885 
L 327.121462 85.541587 
L 327.26535 85.732084 
L 327.314587 85.855469 
L 327.276344 86.030936 
L 327.282559 86.332934 
L 327.176436 87.114495 
L 327.36 87.465778 
L 327.205596 87.784204 
L 326.873364 88.259222 
L 326.529659 88.367928 
L 326.205554 88.31375 
L 325.626657 89.029598 
L 325.260963 89.179548 
L 325.063536 89.11803 
L 324.540092 88.799953 
L 324.296774 88.806944 
L 323.159536 88.694394 
L 321.901357 88.908309 
L 319.311382 88.136536 
L 319.099614 87.939398 
L 318.666518 87.166226 
L 318.479607 87.210967 
L 318.110089 87.586367 
L 317.957119 87.530442 
L 317.549836 86.827527 
L 317.269709 86.926445 
L 317.047425 87.202578 
L 316.692247 87.833139 
L 316.380092 88.02818 
L 315.22469 87.672353 
L 314.825056 87.906192 
L 313.744704 87.833139 
L 312.823059 87.413697 
L 312.207355 87.403211 
L 311.625112 87.701015 
L 311.157597 88.057541 
L 310.495046 88.142827 
L 309.77035 88.701384 
L 308.799946 88.963536 
L 308.41752 89.332994 
L 308.02649 90.047444 
L 307.846751 90.144964 
L 306.697563 90.202288 
L 306.08855 89.735309 
L 305.72429 89.018413 
L 305.614343 89.044628 
L 305.01776 89.349073 
L 304.8428 89.273573 
L 304.111412 89.453584 
L 304.284459 90.085893 
L 304.219447 90.272894 
L 303.883869 90.747912 
L 303.775834 91.117021 
L 303.734723 92.049232 
L 303.590357 92.349832 
L 303.259559 92.446303 
L 300.078737 92.226096 
L 298.660896 92.003093 
L 298.478287 92.233087 
L 297.76124 92.796887 
L 296.801353 92.998569 
L 296.475335 93.248137 
L 296.075701 94.114984 
L 294.522098 95.755003 
L 293.190302 98.425451 
L 293.133894 98.79456 
L 293.545958 99.844563 
L 293.349008 100.297561 
L 292.54974 101.314009 
L 291.80401 101.602026 
L 291.238021 101.571966 
L 291.059237 101.78728 
L 289.065845 103.53915 
L 288.141332 104.565385 
L 287.867898 104.699606 
L 285.087667 105.371413 
L 283.136342 105.374908 
L 281.091322 105.600708 
L 279.223175 104.932396 
L 278.90863 104.991118 
L 277.562493 105.566453 
L 277.522339 105.692985 
L 277.363632 106.608767 
L 277.093066 107.204375 
L 276.592089 107.985236 
L 273.830979 110.802489 
L 273.228659 111.514842 
L 272.468589 111.802159 
L 271.693221 111.95176 
L 271.21519 112.497734 
L 270.271555 113.200999 
L 269.341306 114.143346 
L 269.06118 114.232128 
L 268.250438 114.099304 
L 267.844111 113.812685 
L 264.436702 113.492511 
L 263.623092 113.131092 
L 263.218677 113.128995 
L 261.140196 112.533387 
L 259.637265 111.74134 
L 258.298776 110.002054 
L 258.034903 109.817499 
L 257.728007 109.753884 
L 255.211648 109.799323 
L 253.969722 109.533677 
L 253.734531 109.659509 
L 253.538538 109.886707 
L 252.24116 110.594865 
L 251.797547 111.166705 
L 249.97051 115.198942 
L 249.870123 116.519485 
L 248.72476 118.604812 
L 248.638714 118.998388 
L 248.632978 119.549955 
L 248.763958 119.827486 
L 249.503951 120.415404 
L 249.996324 122.118339 
L 251.146468 123.679362 
L 252.471571 124.721676 
L 252.724928 125.066667 
L 253.701068 127.128575 
L 253.708717 127.9741 
L 253.599726 128.34251 
L 253.228773 128.532308 
L 252.78994 128.744476 
L 251.939044 128.794809 
L 250.217174 130.968218 
L 249.915058 131.127956 
L 248.678869 131.333832 
L 248.097582 131.83891 
L 245.854658 132.806423 
L 244.719811 133.497104 
L 244.352683 133.873554 
L 243.087811 135.751955 
L 241.873611 137.260549 
L 241.341084 138.51503 
L 240.957702 138.976417 
L 239.872571 139.966999 
L 239.477717 140.896763 
L 236.692705 142.275679 
L 236.272037 142.658769 
L 235.598012 142.684285 
L 234.907735 142.787748 
L 232.638041 143.867811 
L 230.952501 145.216318 
L 229.504065 145.335509 
L 228.809008 145.532297 
L 226.106695 145.240086 
L 224.878632 145.882531 
L 224.585598 145.905251 
L 222.176797 145.408212 
L 220.172411 145.442816 
L 218.854956 145.148508 
L 205.816166 147.416991 
L 197.497938 151.382466 
L 193.188484 153.843893 
L 192.478129 154.315066 
L 192.002009 154.602384 
L 191.321292 154.764568 
L 189.599901 156.757617 
L 189.220821 156.892887 
L 188.664393 156.186826 
L 188.466966 156.099792 
L 185.774214 156.090704 
L 184.883163 155.940404 
L 184.819107 155.81562 
L 184.84492 153.044855 
L 177.35799 154.551352 
L 171.641688 151.233215 
L 162.027516 148.796955 
L 161.473 148.482024 
L 160.661302 147.533386 
L 159.263538 145.055881 
L 158.359102 144.321508 
L 157.316993 144.023704 
L 156.260543 143.923387 
L 154.484178 144.126817 
L 142.947364 142.145652 
L 138.349178 143.661935 
L 117.22298 140.647087 
L 109.518137 141.493419 
L 109.452168 141.271464 
L 109.267648 139.258492 
L 108.931114 138.669175 
L 105.046629 134.423722 
L 104.778931 133.34995 
L 104.662292 132.234933 
L 103.363958 129.236621 
L 102.408851 126.00412 
L 101.678419 124.521043 
L 101.351445 124.419678 
L 100.868633 124.392414 
L 99.988099 124.148439 
L 99.908746 124.007226 
L 99.984275 121.961747 
L 100.637266 120.444065 
L 100.468043 120.354584 
L 97.298693 120.789406 
L 96.900971 120.729286 
L 96.086405 120.258113 
L 94.16663 119.591899 
L 93.147467 118.339165 
L 91.686602 117.414295 
L 90.838574 117.310833 
L 90.685604 117.095519 
L 90.274497 116.262927 
L 89.237168 115.231099 
L 89.08611 115.212923 
L 88.667355 115.423343 
L 88.249555 115.428237 
L 87.036311 115.135326 
L 86.546807 114.576769 
L 84.823981 112.184551 
L 83.316269 111.370134 
L 82.156564 111.244301 
L 81.611608 110.915738 
L 80.715777 110.960479 
L 79.744417 110.577388 
L 78.763496 110.607448 
L 78.225233 110.647295 
L 77.682189 110.513773 
L 77.047363 110.181715 
L 76.597057 110.262108 
L 76.169697 110.197094 
L 75.113247 110.499792 
L 74.498498 110.534745 
L 73.452565 110.738874 
L 72.874147 110.533347 
L 72.268959 110.604652 
L 71.684804 110.446662 
L 71.231631 110.573893 
L 70.998351 110.514472 
L 69.906527 109.77905 
L 69.29369 109.679782 
L 68.458091 109.823791 
L 66.659736 109.753884 
L 66.088967 109.905582 
L 65.065023 109.691667 
L 64.8958 109.74899 
L 64.782984 109.663005 
L 64.012397 108.73394 
L 63.81258 108.740232 
L 63.163413 109.172257 
L 62.26089 108.956245 
L 61.526633 108.498354 
L 61.205396 108.034171 
L 60.893719 107.860802 
L 60.060988 107.74895 
L 59.726366 107.804177 
L 59.08198 108.194957 
L 58.783688 108.192161 
L 58.66418 107.576979 
L 58.7225 107.280573 
L 58.450022 106.922649 
L 58.074289 106.74928 
L 58.022662 106.594086 
L 57.903154 105.769184 
L 57.532201 104.735259 
L 56.729108 104.039684 
L 57.280757 100.535245 
L 59.209136 97.858505 
L 59.828665 97.27618 
L 59.978767 96.887496 
L 60.006493 96.261829 
L 59.918535 95.64455 
L 59.48257 94.906331 
L 58.995934 93.097138 
L 60.375533 89.727969 
L 60.39561 89.520695 
L 60.256981 89.337888 
L 59.918535 89.139002 
L 60.000756 87.166576 
L 59.726366 86.710432 
L 59.265544 86.182984 
L 59.241642 85.798146 
L 59.368799 85.489157 
L 59.194795 85.205334 
L 59.034176 84.863489 
L 58.752138 84.191682 
L 58.366844 83.894577 
L 57.573312 83.765249 
L 57.293185 83.45626 
L 55.039745 79.278617 
L 55.197495 78.989202 
L 55.212792 78.539001 
L 55.101889 78.364583 
L 54.8514 78.189465 
L 54.809333 77.394623 
L 54.787344 76.985317 
L 53.837017 75.500841 
L 53.734718 75.226806 
L 53.895337 74.745147 
L 53.500483 74.476354 
L 52.217446 74.050271 
L 51.472195 73.4267 
L 51.249432 72.974751 
L 51.223618 72.44171 
L 51.259471 71.902028 
L 51.118451 71.753825 
L 50.212582 71.707686 
L 49.978346 72.398717 
L 49.679576 72.503927 
L 48.405144 72.503927 
L 48.302845 72.34384 
L 48.147007 71.775496 
L 47.997861 71.628342 
L 47.516961 71.482586 
L 46.973918 70.768835 
L 46.780315 70.451457 
L 46.745418 69.850606 
L 46.467204 69.707647 
L 45.240575 69.814604 
L 44.732427 69.602786 
L 44.547429 69.689471 
L 43.478551 70.438874 
L 43.001475 70.3438 
L 42.146277 70.340305 
L 41.876667 70.222162 
L 40.68589 68.693995 
L 40.431099 68.626884 
L 39.655254 68.693995 
L 39.37704 68.496507 
L 38.765159 67.876782 
L 37.720182 67.453145 
L 37.509848 67.019722 
L 37.373609 66.230122 
L 37.505068 65.726442 
L 37.432407 65.48736 
L 36.636962 64.714188 
L 36.0595 64.795979 
L 35.751648 64.598841 
L 35.02504 63.782677 
L 34.220035 63.431045 
L 33.740091 63.448172 
L 33.021131 63.010554 
L 32.685553 62.779162 
L 32.35858 62.824951 
L 32.047859 62.655426 
L 31.759128 62.346088 
L 31.675951 62.017525 
L 32.184576 61.534817 
L 32.298826 61.288045 
L 32.795501 60.89307 
L 32.75439 60.548429 
L 32.517286 60.263907 
L 31.764864 59.831183 
L 31.349933 59.861942 
L 30.549708 59.463472 
L 30.374749 59.175455 
L 30.238988 58.67492 
L 29.780077 58.36663 
L 29.833139 57.882175 
L 29.955993 57.676648 
L 30.686425 57.331307 
L 31.026306 57.032105 
L 31.022959 56.544154 
L 30.70459 56.323248 
L 30.557357 56.210698 
L 30.549708 55.627673 
L 30.683557 55.236893 
L 30.505729 54.356065 
L 30.696942 54.43506 
L 30.865209 54.449041 
L 31.978067 54.221144 
L 32.48 53.683559 
L 33.53645 52.936952 
L 33.57756 52.587417 
L 33.273532 51.775797 
L 33.821356 50.595067 
L 34.054636 50.453156 
L 35.922783 50.162342 
L 36.602544 50.327323 
L 37.365005 50.226657 
L 37.900878 49.93095 
L 38.205384 50.057482 
L 38.639915 50.553123 
L 38.859809 50.60765 
L 40.302031 50.62303 
L 40.11273 50.188907 
L 40.236062 49.319963 
L 40.427753 49.271727 
L 40.607493 49.349324 
L 41.227022 50.432883 
L 41.585545 50.369267 
L 43.261524 49.544364 
L 43.449869 49.220695 
L 43.103774 48.503449 
L 43.188385 48.185372 
L 43.457517 48.016197 
L 43.788315 48.084706 
L 44.595232 48.742531 
L 44.895914 48.730647 
L 45.327577 48.155312 
L 45.540301 47.893161 
L 45.852455 47.895258 
L 46.268343 47.628213 
L 47.766972 47.017226 
L 48.047576 46.654408 
L 47.779879 46.302776 
L 47.25022 45.939259 
L 47.258824 45.820417 
L 47.408448 45.521914 
L 47.146965 45.039556 
L 47.312798 44.317034 
L 47.631689 44.055265 
L 48.122149 43.886789 
L 49.967351 43.736489 
L 50.422915 43.516981 
L 50.678858 43.02209 
L 50.751323 42.385186 
L 50.895689 42.114646 
L 51.179639 41.932888 
L 52.768138 41.523932 
L 54.072209 40.639608 
L 54.637242 40.543136 
L 55.101889 40.168435 
L 55.506303 40.117403 
L 56.704251 40.276091 
L 57.178458 40.025824 
L 57.341945 39.662308 
L 57.427034 39.123325 
L 57.758788 38.935974 
L 58.475836 38.731845 
L 58.819062 38.480879 
L 59.726366 37.472121 
L 60.067681 37.318325 
L 61.467357 37.21696 
L 62.362232 36.759768 
L 62.708327 36.762565 
L 63.491343 36.917059 
L 63.802064 36.830374 
L 64.026738 36.327044 
L 64.122345 36.049513 
L 64.350844 35.820917 
L 65.282049 35.469285 
L 65.531582 35.230902 
L 66.242893 34.189986 
L 66.89206 33.817382 
L 67.580425 33.581096 
L 68.28122 33.504198 
L 69.787019 33.787322 
L 70.676158 33.749572 
L 71.452481 33.331528 
L 71.954414 32.115845 
L 71.997437 31.662847 
L 72.31007 31.388812 
L 72.7642 31.362247 
L 72.905697 31.564978 
L 73.307244 32.434621 
L 73.599799 32.648536 
L 74.336924 33.020442 
L 74.866583 33.769146 
L 75.217458 33.953001 
L 75.638126 33.846743 
L 76.008122 33.531462 
L 76.113289 33.311954 
L 76.239489 32.645041 
L 76.571243 32.411552 
L 77.141057 32.310186 
L 77.727124 32.351432 
L 78.102857 32.548569 
L 78.216628 33.031627 
L 78.210892 33.678267 
L 78.562723 34.639488 
L 78.851454 34.821247 
L 79.744417 34.962459 
L 82.356382 34.828237 
L 83.418568 35.161694 
L 90.100493 35.529405 
L 90.281189 35.912495 
L 90.29553 36.406738 
L 90.737231 37.601449 
L 90.89307 39.700757 
L 91.116789 40.329221 
L 91.331903 40.561312 
L 92.256416 41.011513 
L 92.526026 41.749032 
L 93.021266 42.279627 
L 93.28992 42.804628 
L 93.729709 42.830494 
L 94.612156 42.525699 
L 96.530018 42.522204 
L 96.778595 42.736819 
L 97.220296 43.566615 
L 97.664865 43.808493 
L 100.239543 43.779132 
L 100.656387 43.898673 
L 101.589505 44.604035 
L 101.774025 44.564887 
L 102.360092 43.928034 
L 103.253055 43.802202 
L 103.631656 43.633027 
L 104.244492 42.912984 
L 104.616401 42.799036 
L 104.978749 42.868943 
L 105.211072 43.169543 
L 105.493111 43.821077 
L 105.712049 43.903567 
L 106.076309 43.545643 
L 106.45491 43.168844 
L 106.726432 43.087752 
L 107.007515 43.169543 
L 108.38807 43.758859 
L 109.657722 44.613123 
L 109.900562 44.536225 
L 110.599444 44.131464 
L 111.05453 44.211158 
L 111.32414 44.697012 
L 111.621476 44.99901 
L 111.999121 44.784395 
L 112.701827 44.238421 
L 115.174206 44.604734 
L 115.513609 44.894149 
L 115.988772 45.605104 
L 116.568146 45.863061 
L 116.874087 46.45028 
L 117.355943 46.669089 
L 118.249862 46.784435 
L 119.073988 46.460766 
L 120.479401 45.469484 
L 120.765264 45.134629 
L 120.836012 44.722877 
L 120.700252 44.197176 
L 121.40009 44.018214 
L 122.455584 43.592481 
L 122.651576 43.664485 
L 123.1363 44.109093 
L 123.297875 44.017515 
L 123.841875 43.435889 
L 125.153594 42.759888 
L 125.686121 42.207622 
L 127.200525 39.02126 
L 127.208174 38.527018 
L 127.131689 38.100585 
L 127.172799 37.651083 
L 127.468223 36.847152 
L 127.424244 36.055805 
L 127.03417 35.623779 
L 126.79611 35.528007 
L 125.967204 35.347646 
L 125.065636 34.644382 
L 124.925095 34.386425 
L 124.191794 32.594708 
L 124.223344 32.303895 
L 124.619154 31.767708 
L 124.567527 31.614612 
L 124.143035 31.242706 
L 123.964251 30.93162 
L 123.18984 30.345799 
L 122.938395 29.943135 
L 122.918318 29.528586 
L 123.651619 27.918977 
L 123.78738 27.265346 
L 124.078023 26.426811 
L 123.995801 25.235596 
L 125.180364 23.234158 
L 125.984413 22.970958 
L 126.748307 23.115316 
L 126.872595 22.556409 
L 126.820968 21.651463 
L 127.239724 20.685348 
L 127.782768 19.82654 
L 128.641312 19.449042 
L 130.432975 18.983112 
L 131.024778 18.45811 
L 131.287695 18.111371 
L 131.893839 16.961401 
L 132.111822 16.114128 
L 132.540138 15.483916 
L 132.624271 14.572678 
L 132.909178 14.276971 
L 133.3833 14.32923 
L 133.612841 14.493333 
L 133.911133 15.227357 
L 134.192215 15.400027 
L 136.113902 16.093855 
L 136.956194 16.905825 
L 139.11116 17.484305 
L 140.5247 17.63146 
L 141.212109 18.212736 
L 142.451167 19.405001 
L 143.265733 19.645131 
L 143.265733 19.645131 
" clip-path="url(#p7bd21178cd)" style="fill: none; stroke: #000000; stroke-width: 2"/>
   </g>
  </g>
 </g>
 <defs>
  <clipPath id="p7bd21178cd">
   <rect x="0" y="-0" width="357.12" height="171.155877"/>
  </clipPath>
 </defs>
</svg>
