<?xml version="1.0" encoding="utf-8" standalone="no"?>
<!DOCTYPE svg PUBLIC "-//W3C//DTD SVG 1.1//EN"
  "http://www.w3.org/Graphics/SVG/1.1/DTD/svg11.dtd">
<svg xmlns:xlink="http://www.w3.org/1999/xlink" width="38.107514pt" height="266.112pt" viewBox="0 0 38.107514 266.112" xmlns="http://www.w3.org/2000/svg" version="1.1">
 <metadata>
  <rdf:RDF xmlns:dc="http://purl.org/dc/elements/1.1/" xmlns:cc="http://creativecommons.org/ns#" xmlns:rdf="http://www.w3.org/1999/02/22-rdf-syntax-ns#">
   <cc:Work>
    <dc:type rdf:resource="http://purl.org/dc/dcmitype/StillImage"/>
    <dc:date>2024-02-02T21:58:03.632256</dc:date>
    <dc:format>image/svg+xml</dc:format>
    <dc:creator>
     <cc:Agent>
      <dc:title>Matplotlib v3.8.2, https://matplotlib.org/</dc:title>
     </cc:Agent>
    </dc:creator>
   </cc:Work>
  </rdf:RDF>
 </metadata>
 <defs>
  <style type="text/css">*{stroke-linejoin: round; stroke-linecap: butt}</style>
 </defs>
 <g id="figure_1">
  <g id="patch_1">
   <path d="M 0 266.112 
L 38.107514 266.112 
L 38.107514 0 
L 0 0 
L 0 266.112 
z
" style="fill: none"/>
  </g>
  <g id="axes_1">
   <g id="PatchCollection_1">
    <path d="M 14.170029 243.301744 
L 13.913413 243.616772 
L 13.28791 243.936 
L 12.943082 243.82399 
L 12.619639 243.553766 
L 12.028887 243.402553 
L 11.063903 243.521563 
L 10.537305 243.503362 
L 10.310093 243.284942 
L 10.684325 242.68849 
L 11.555751 242.108839 
L 12.512715 241.6734 
L 13.14891 241.502585 
L 14.683261 240.848727 
L 15.586764 240.76612 
L 15.934266 241.502585 
L 15.830015 241.908621 
L 15.656265 242.202647 
L 15.378264 242.381863 
L 14.945224 242.440668 
L 14.597723 242.58068 
L 14.367837 242.91391 
L 14.170029 243.301744 
" clip-path="url(#p5f6c7990fe)" style="fill: none; stroke: #000000; stroke-width: 2"/>
    <path d="M 27.602286 215.751509 
L 26.94738 216.249953 
L 26.311185 215.807514 
L 26.158819 215.360874 
L 26.030511 214.412991 
L 25.840722 213.928548 
L 25.437086 213.3825 
L 25.348874 213.133278 
L 25.391644 212.732842 
L 25.773895 211.943172 
L 26.463551 211.035892 
L 27.185284 210.509446 
L 27.653074 210.853876 
L 27.826825 211.294915 
L 27.781383 211.731754 
L 27.674459 212.200795 
L 27.653074 212.732842 
L 27.786729 213.033869 
L 28.235807 213.575717 
L 28.326692 213.928548 
L 28.115518 214.814826 
L 27.602286 215.751509 
" clip-path="url(#p5f6c7990fe)" style="fill: none; stroke: #000000; stroke-width: 2"/>
    <path d="M 32.159897 207.543984 
L 32.004858 207.857611 
L 31.801704 208.014425 
L 31.55578 208.000424 
L 31.261741 207.800206 
L 30.860778 208.17824 
L 30.657623 208.63188 
L 30.679008 209.112122 
L 30.924932 209.572763 
L 31.112048 210.030603 
L 30.649604 210.016602 
L 30.07489 209.812184 
L 29.919851 209.700174 
L 29.190099 209.87659 
L 28.909425 209.807984 
L 28.797155 209.324941 
L 28.85329 208.816696 
L 29.246234 207.543984 
L 29.283657 207.05254 
L 29.267618 206.670306 
L 29.326426 206.342677 
L 29.575023 206.02765 
L 29.748774 205.91844 
L 30.36893 205.665017 
L 30.481199 205.499803 
L 30.502584 205.102168 
L 30.569411 204.959355 
L 30.973047 204.754937 
L 31.828435 204.477713 
L 32.269494 204.137482 
L 32.705207 203.969468 
L 33.213093 204.038074 
L 33.448325 204.305497 
L 33.058054 204.724134 
L 32.683822 204.964956 
L 32.429879 205.342989 
L 31.87655 206.813119 
L 31.897935 207.111345 
L 32.159897 207.543984 
" clip-path="url(#p5f6c7990fe)" style="fill: none; stroke: #000000; stroke-width: 2"/>
    <path d="M 29.28633 167.164415 
L 28.369461 167.254023 
L 27.939095 167.216219 
L 27.538132 167.066406 
L 27.209342 166.77098 
L 27.024899 166.397147 
L 27.064996 166.066718 
L 27.33765 165.851099 
L 27.877614 165.809095 
L 28.305307 165.937906 
L 29.315734 166.065317 
L 29.695312 166.279536 
L 29.962621 166.791982 
L 29.751447 167.055205 
L 29.28633 167.164415 
" clip-path="url(#p5f6c7990fe)" style="fill: none; stroke: #000000; stroke-width: 2"/>
    <path d="M 32.817477 155.077146 
L 32.314936 155.682 
L 31.652011 155.018341 
L 32.20534 154.834925 
L 32.817477 155.077146 
" clip-path="url(#p5f6c7990fe)" style="fill: none; stroke: #000000; stroke-width: 2"/>
    <path d="M 34.90783 134.132695 
L 34.47479 134.681544 
L 33.849288 134.015085 
L 34.351828 133.869472 
L 34.90783 134.132695 
" clip-path="url(#p5f6c7990fe)" style="fill: none; stroke: #000000; stroke-width: 2"/>
    <path d="M 34.867733 124.729464 
L 34.450732 125.009489 
L 33.726326 124.645457 
L 33.552575 124.103609 
L 33.793153 123.670971 
L 34.330443 123.633167 
L 34.736752 123.920193 
L 34.931888 124.326228 
L 34.867733 124.729464 
" clip-path="url(#p5f6c7990fe)" style="fill: none; stroke: #000000; stroke-width: 2"/>
    <path d="M 31.293818 108.000786 
L 30.818008 108.27241 
L 30.024102 108.241607 
L 29.813041 107.44056 
L 30.681681 106.975895 
L 31.05133 106.192857 
L 31.246128 104.540338 
L 31.719826 104.077248 
L 33.052708 104.122443 
L 33.488421 104.335262 
L 33.82523 104.671291 
L 33.953538 105.11373 
L 33.838595 105.690581 
L 33.536537 106.000009 
L 33.138247 106.217028 
L 32.734611 106.520855 
L 31.293818 108.000786 
" clip-path="url(#p5f6c7990fe)" style="fill: none; stroke: #000000; stroke-width: 2"/>
    <path d="M 29.17406 85.065358 
L 28.668847 85.241774 
L 28.123538 85.184369 
L 27.265758 84.394742 
L 27.16846 83.028834 
L 27.753684 82.272214 
L 29.00031 82.325316 
L 29.446715 82.865764 
L 29.647197 83.2774 
L 29.700658 83.719839 
L 29.695312 84.352695 
L 29.550965 84.74193 
L 29.17406 85.065358 
" clip-path="url(#p5f6c7990fe)" style="fill: none; stroke: #000000; stroke-width: 2"/>
    <path d="M 19.981318 52.903116 
L 19.714009 53.234945 
L 19.259584 52.967521 
L 18.941487 52.546084 
L 18.941487 52.15545 
L 19.438681 51.991635 
L 19.855683 52.144249 
L 20.034779 52.491479 
L 19.981318 52.903116 
" clip-path="url(#p5f6c7990fe)" style="fill: none; stroke: #000000; stroke-width: 2"/>
    <path d="M 14.450703 40.05558 
L 14.466741 40.240397 
L 14.683261 40.205394 
L 14.979974 40.096184 
L 15.239263 40.041579 
L 15.351533 40.173191 
L 15.284706 40.456016 
L 15.121647 40.682836 
L 14.886416 40.852251 
L 14.627126 40.95306 
L 14.274279 40.831249 
L 13.982913 40.591828 
L 13.838566 40.262799 
L 13.921432 39.877765 
L 14.234183 39.551536 
L 14.386549 39.719551 
L 14.450703 40.05558 
" clip-path="url(#p5f6c7990fe)" style="fill: none; stroke: #000000; stroke-width: 2"/>
    <path d="M 3.953494 23.210691 
L 3.622032 23.492116 
L 3.27453 23.167288 
L 3.175626 22.705247 
L 3.327992 22.310412 
L 3.753013 22.176 
L 4.151303 22.388819 
L 4.172687 22.792054 
L 3.953494 23.210691 
" clip-path="url(#p5f6c7990fe)" style="fill: none; stroke: #000000; stroke-width: 2"/>
   </g>
  </g>
 </g>
 <defs>
  <clipPath id="p5f6c7990fe">
   <rect x="0" y="-0" width="38.107514" height="266.112"/>
  </clipPath>
 </defs>
</svg>
