<?xml version="1.0" encoding="utf-8" standalone="no"?>
<!DOCTYPE svg PUBLIC "-//W3C//DTD SVG 1.1//EN"
  "http://www.w3.org/Graphics/SVG/1.1/DTD/svg11.dtd">
<svg xmlns:xlink="http://www.w3.org/1999/xlink" width="163.565507pt" height="266.112pt" viewBox="0 0 163.565507 266.112" xmlns="http://www.w3.org/2000/svg" version="1.1">
 <metadata>
  <rdf:RDF xmlns:dc="http://purl.org/dc/elements/1.1/" xmlns:cc="http://creativecommons.org/ns#" xmlns:rdf="http://www.w3.org/1999/02/22-rdf-syntax-ns#">
   <cc:Work>
    <dc:type rdf:resource="http://purl.org/dc/dcmitype/StillImage"/>
    <dc:date>2024-02-02T21:58:03.689826</dc:date>
    <dc:format>image/svg+xml</dc:format>
    <dc:creator>
     <cc:Agent>
      <dc:title>Matplotlib v3.8.2, https://matplotlib.org/</dc:title>
     </cc:Agent>
    </dc:creator>
   </cc:Work>
  </rdf:RDF>
 </metadata>
 <defs>
  <style type="text/css">*{stroke-linejoin: round; stroke-linecap: butt}</style>
 </defs>
 <g id="figure_1">
  <g id="patch_1">
   <path d="M 0 266.112 
L 163.565507 266.112 
L 163.565507 0 
L 0 0 
L 0 266.112 
z
" style="fill: none"/>
  </g>
  <g id="axes_1">
   <g id="PatchCollection_1">
    <path d="M 49.023313 232.425156 
L 48.88771 232.811609 
L 48.845986 232.894184 
L 48.726029 233.014194 
L 48.693693 233.027406 
L 48.651969 232.972356 
L 48.505935 232.894184 
L 48.455866 232.831427 
L 48.449607 232.738942 
L 48.403711 232.679488 
L 48.234729 232.709215 
L 48.237858 232.765366 
L 48.147108 233.079153 
L 48.001074 232.68169 
L 48.295228 232.316156 
L 48.757322 232.034299 
L 49.119279 231.877956 
L 49.110934 232.028794 
L 49.023313 232.425156 
" clip-path="url(#p8fe83764df)" style="fill: none; stroke: #000000; stroke-width: 2"/>
    <path d="M 80.813921 175.222403 
L 80.552102 175.243322 
L 80.451965 175.052848 
L 80.445706 174.784203 
L 80.585482 173.755863 
L 80.996464 172.080132 
L 81.142498 171.815891 
L 81.258282 171.824699 
L 81.32817 172.031688 
L 81.345903 172.357586 
L 81.26767 173.335279 
L 80.813921 175.222403 
" clip-path="url(#p8fe83764df)" style="fill: none; stroke: #000000; stroke-width: 2"/>
    <path d="M 137.82635 102.549991 
L 137.508138 102.645833 
L 137.225072 102.550853 
L 136.918261 102.28903 
L 136.729161 101.824484 
L 136.77576 101.299989 
L 136.916879 101.061338 
L 137.281884 100.881813 
L 137.906274 100.737375 
L 138.342582 100.783982 
L 138.378412 101.094074 
L 138.319816 101.368537 
L 137.978186 101.727032 
L 137.872773 102.120688 
L 137.896776 102.359124 
L 137.82635 102.549991 
" clip-path="url(#p8fe83764df)" style="fill: none; stroke: #000000; stroke-width: 2"/>
    <path d="M 145.024126 22.539332 
L 145.266126 22.596584 
L 145.609306 22.293808 
L 145.821056 22.43914 
L 145.885728 22.7232 
L 145.462229 23.278107 
L 145.559237 23.492803 
L 146.257072 23.740529 
L 146.347822 23.945316 
L 146.471951 24.622435 
L 146.655537 24.731434 
L 147.355458 24.899888 
L 147.460811 25.124493 
L 147.274096 25.183948 
L 146.782795 25.134402 
L 146.369727 25.256614 
L 145.286988 26.141823 
L 145.374608 26.613053 
L 145.597832 26.362024 
L 145.63747 26.243115 
L 145.884685 26.462215 
L 146.782795 26.931244 
L 147.01645 27.207596 
L 146.776537 27.465232 
L 145.840875 28.03335 
L 145.424677 28.761115 
L 145.559237 29.262073 
L 145.453884 29.728899 
L 145.558194 29.863222 
L 145.704228 29.825788 
L 145.99421 29.401901 
L 146.321744 29.548334 
L 146.317572 29.933686 
L 145.947271 30.647138 
L 145.462229 31.248287 
L 145.453884 31.423347 
L 145.558194 31.895679 
L 145.399643 32.130193 
L 144.45042 32.957048 
L 144.157309 33.564803 
L 143.68687 33.624258 
L 143.536663 33.649581 
L 143.8788 34.212195 
L 143.974766 33.934741 
L 144.370101 34.25073 
L 144.665299 34.665809 
L 145.036643 34.571123 
L 145.107574 34.998313 
L 144.801945 36.39659 
L 144.492144 36.979022 
L 144.936505 37.54604 
L 144.546385 38.154896 
L 144.725799 38.510521 
L 144.820721 39.215165 
L 145.115919 39.609325 
L 145.211884 40.500038 
L 145.374608 40.711431 
L 145.554022 40.63326 
L 145.733435 40.711431 
L 145.385039 41.078066 
L 145.297419 41.471125 
L 145.558194 42.273759 
L 145.947271 42.970695 
L 145.672935 43.324118 
L 145.512298 44.841304 
L 145.821056 45.431443 
L 145.696927 45.933502 
L 145.374608 46.272611 
L 144.880178 46.171319 
L 144.848885 46.455378 
L 145.164945 46.38051 
L 145.446582 46.598509 
L 145.733435 47.296547 
L 145.596789 48.034221 
L 145.885728 48.175149 
L 146.257072 48.126705 
L 146.144417 48.381037 
L 146.040107 48.46031 
L 145.662504 48.661794 
L 145.558194 48.949156 
L 145.195195 49.668113 
L 145.510211 49.943365 
L 146.269589 50.060071 
L 146.305055 51.183097 
L 146.56583 51.307511 
L 147.008105 51.616893 
L 146.79114 51.804064 
L 146.432313 51.545328 
L 146.355124 51.849205 
L 146.58252 52.449254 
L 146.870416 52.384294 
L 147.356501 53.256291 
L 147.308518 53.40823 
L 147.101984 53.626229 
L 146.826606 53.688986 
L 146.551227 53.613017 
L 146.344693 53.40823 
L 146.334262 53.517229 
L 146.432313 53.778168 
L 146.244555 53.900379 
L 145.821056 53.968642 
L 146.172581 54.346286 
L 145.978564 54.970557 
L 145.753254 55.20397 
L 145.723004 55.152223 
L 145.649987 54.966153 
L 145.462229 54.802103 
L 145.270298 54.812012 
L 144.640265 55.205071 
L 144.33255 55.634463 
L 144.42017 56.037431 
L 145.261953 56.71455 
L 145.462229 56.641883 
L 145.633297 56.404066 
L 145.476832 55.714837 
L 145.885728 55.763281 
L 146.21952 55.908614 
L 146.617985 55.849159 
L 146.695175 56.089179 
L 146.623201 56.527379 
L 146.257072 57.758303 
L 146.432313 58.691956 
L 146.272719 59.974628 
L 145.821056 60.453565 
L 145.854435 60.615413 
L 146.023417 60.548252 
L 146.344693 60.270798 
L 146.344693 61.37841 
L 146.404149 61.354188 
L 146.607554 61.294734 
L 146.557485 61.603015 
L 146.073486 62.260316 
L 145.971262 63.122403 
L 145.821056 63.326089 
L 146.710821 64.152945 
L 145.979607 65.028244 
L 146.021331 65.332122 
L 146.435442 66.356057 
L 146.635718 67.962424 
L 147.250105 69.507135 
L 147.404484 70.379132 
L 147.341898 70.741363 
L 147.195864 70.904312 
L 146.695175 71.102493 
L 146.967424 71.320492 
L 147.006019 71.66841 
L 146.713951 71.884207 
L 146.344693 71.941459 
L 145.969176 72.17267 
L 146.244555 72.678032 
L 146.169452 73.060081 
L 146.344693 73.001728 
L 146.603382 72.736385 
L 146.691002 72.85089 
L 146.630502 73.123939 
L 146.782795 73.242848 
L 146.511589 73.427817 
L 146.780709 73.507089 
L 147.045657 73.335332 
L 147.042528 72.941172 
L 147.360674 72.687941 
L 147.990707 72.417094 
L 148.303637 72.717668 
L 148.374568 72.921354 
L 148.414206 73.483968 
L 148.629085 73.612786 
L 148.42568 74.061996 
L 148.453844 74.546439 
L 148.278603 74.605893 
L 147.8405 74.914175 
L 147.663173 74.859124 
L 147.418044 74.594883 
L 147.220898 74.546439 
L 147.481673 76.023988 
L 147.254277 75.948019 
L 147.136407 76.033897 
L 147.148924 76.185836 
L 147.308518 76.308048 
L 147.070691 76.66037 
L 147.220898 76.77047 
L 147.133277 77.609437 
L 147.593285 77.034712 
L 148.044948 75.792777 
L 148.977481 75.376597 
L 149.338394 75.504314 
L 149.683661 75.822504 
L 149.865161 76.230977 
L 149.7306 76.631744 
L 149.563704 76.746248 
L 148.977481 76.9125 
L 148.819973 77.184448 
L 149.152722 77.241701 
L 149.526152 76.944429 
L 149.68679 77.047924 
L 149.732687 77.467407 
L 149.489644 78.385646 
L 149.796316 78.791917 
L 149.877678 78.9923 
L 149.935048 79.48555 
L 149.738945 80.419203 
L 149.865161 80.674637 
L 149.774411 80.802353 
L 149.065102 81.170089 
L 149.001472 81.285695 
L 148.162819 82.059702 
L 147.70594 82.144479 
L 147.598501 82.061904 
L 147.308518 81.498189 
L 147.444122 82.238065 
L 147.869707 82.456064 
L 148.629085 82.421933 
L 148.898205 82.940506 
L 148.985826 83.445868 
L 148.664551 83.267505 
L 148.374568 83.354485 
L 147.665259 83.160708 
L 147.550518 83.407333 
L 147.712199 83.795988 
L 148.190982 84.463197 
L 147.041484 84.803408 
L 146.782795 85.209679 
L 146.338434 85.077558 
L 145.900331 85.109488 
L 145.833573 85.249315 
L 145.63747 85.939646 
L 146.321744 86.094888 
L 146.511589 86.225907 
L 146.622158 85.817434 
L 146.879804 85.65889 
L 147.210467 85.704031 
L 147.530699 85.897808 
L 147.706983 86.197281 
L 147.802949 86.628876 
L 147.74975 87.006521 
L 147.481673 87.150752 
L 147.644397 87.355539 
L 147.613104 87.525094 
L 147.074864 88.152668 
L 147.058174 88.479666 
L 146.918398 88.685554 
L 146.585649 89.106138 
L 146.559572 89.42543 
L 146.407279 89.810782 
L 146.451089 89.951711 
L 146.607554 89.938499 
L 146.267503 90.455971 
L 145.78559 90.669567 
L 145.462229 90.583688 
L 145.422591 90.938212 
L 145.227531 91.176029 
L 144.523437 91.796996 
L 143.726508 93.14683 
L 141.175081 95.864112 
L 140.553393 96.307817 
L 140.472031 96.630412 
L 139.845127 96.982733 
L 139.989075 97.134672 
L 140.264453 96.978329 
L 140.720289 96.512604 
L 140.793306 96.823088 
L 140.258195 98.081537 
L 139.845127 98.469091 
L 138.967878 100.014903 
L 138.52456 100.232902 
L 137.466855 100.31768 
L 136.673055 100.752577 
L 136.2579 101.148939 
L 136.366383 101.31409 
L 136.510331 101.333908 
L 136.60421 102.267561 
L 136.97764 102.694751 
L 137.21964 102.820266 
L 136.42271 103.280486 
L 136.327788 102.910548 
L 135.947056 103.014043 
L 135.811453 103.003033 
L 135.878211 103.06579 
L 136.065969 103.280486 
L 135.592401 103.488576 
L 135.486005 103.759424 
L 135.414031 103.97412 
L 134.943592 104.393603 
L 133.397716 105.271105 
L 133.074354 105.608012 
L 130.813953 106.799301 
L 128.651603 108.248224 
L 128.138397 108.865888 
L 127.903699 108.74698 
L 127.902656 108.800929 
L 127.90057 109.02113 
L 127.535485 109.322806 
L 127.283054 109.394371 
L 127.508364 109.476947 
L 127.816079 109.417492 
L 127.737846 109.922854 
L 127.408226 110.315913 
L 127.203778 110.418306 
L 125.869651 110.484367 
L 125.128006 110.993031 
L 124.652352 111.151576 
L 122.443063 111.267182 
L 122.13952 110.943486 
L 121.92777 110.880729 
L 122.209408 111.267182 
L 121.976796 111.554544 
L 121.063039 111.81218 
L 121.118324 111.564453 
L 120.519583 112.182118 
L 120.180575 112.079724 
L 119.995946 111.950906 
L 119.843653 112.139178 
L 119.908326 112.367087 
L 116.119781 113.953636 
L 115.646213 114.424866 
L 115.429247 114.414957 
L 115.195593 114.104474 
L 115.176817 113.192841 
L 114.991145 112.928599 
L 115.078765 113.206053 
L 114.763749 113.255598 
L 114.466465 113.114669 
L 115.092326 114.006484 
L 114.815904 114.231089 
L 115.07042 114.408351 
L 114.773136 114.642865 
L 113.941785 114.969864 
L 112.262391 115.339802 
L 111.555168 115.722952 
L 109.769378 116.893321 
L 109.8038 116.71716 
L 109.483568 116.853685 
L 108.49888 117.622187 
L 108.054519 117.556127 
L 107.738459 117.917256 
L 106.091402 118.90596 
L 105.555248 119.394806 
L 105.369576 119.44325 
L 105.238145 119.328746 
L 104.893921 119.74933 
L 104.239897 119.878148 
L 104.04588 120.281116 
L 103.717303 120.499115 
L 103.335527 120.614721 
L 103.041373 120.528842 
L 102.985045 121.028699 
L 102.61996 121.496626 
L 101.720806 122.292653 
L 100.786187 123.868192 
L 100.408584 124.231524 
L 100.403369 124.126929 
L 100.320964 123.862687 
L 100.233343 123.955172 
L 99.874516 123.550002 
L 99.524034 123.318791 
L 99.176681 122.454501 
L 98.807423 122.32238 
L 98.469458 122.408259 
L 98.300476 122.755076 
L 98.712501 122.479824 
L 98.992052 122.697823 
L 99.270561 123.585234 
L 99.427026 124.259049 
L 100.003861 124.459433 
L 100.320964 124.693947 
L 99.752473 125.67164 
L 99.311241 126.213335 
L 99.16938 126.621808 
L 98.388097 126.465465 
L 98.062649 126.78806 
L 97.862373 127.20424 
L 98.10333 127.112856 
L 98.65826 126.742918 
L 98.50701 127.026978 
L 97.617244 128.125782 
L 97.095694 128.568386 
L 95.293214 130.54359 
L 94.870758 130.639378 
L 94.695517 131.379254 
L 94.346078 131.194285 
L 94.433698 131.554313 
L 93.856863 131.591748 
L 93.876682 132.02114 
L 93.6472 132.302997 
L 92.946236 133.688063 
L 92.969184 133.5097 
L 92.874262 133.351155 
L 92.720926 133.516306 
L 92.672943 134.137273 
L 92.946236 134.066809 
L 92.960839 134.108647 
L 92.962925 134.239666 
L 93.129821 134.549049 
L 93.01821 134.682271 
L 92.395478 134.943209 
L 91.581859 134.619513 
L 91.284575 134.325545 
L 90.847515 133.454649 
L 90.830825 133.873032 
L 91.181308 135.296632 
L 91.00398 135.738135 
L 91.197997 135.837226 
L 91.266842 136.056326 
L 91.104118 136.095962 
L 90.926791 136.013387 
L 89.676112 136.2468 
L 89.485224 136.055225 
L 89.381957 134.896967 
L 89.186897 134.967431 
L 88.80095 135.399025 
L 87.917443 136.522051 
L 87.497073 136.577102 
L 87.524193 136.155416 
L 87.396935 136.145507 
L 87.16641 136.486819 
L 87.036022 136.960252 
L 86.884772 137.120998 
L 86.609393 137.184857 
L 86.051334 136.867767 
L 85.864619 137.039524 
L 85.876093 137.304866 
L 86.17442 137.222291 
L 86.096187 137.436987 
L 84.134113 138.842971 
L 83.805536 139.254748 
L 83.643855 139.21401 
L 83.466528 139.392373 
L 83.192192 139.902139 
L 83.285029 139.853695 
L 83.542675 139.809654 
L 83.542675 139.902139 
L 82.847969 140.376672 
L 82.222108 141.010852 
L 82.48497 141.010852 
L 82.37753 141.196922 
L 81.712031 141.923585 
L 81.453342 141.995151 
L 81.298963 142.361786 
L 80.63868 143.243691 
L 79.33376 144.637565 
L 77.829607 145.84757 
L 76.60292 147.131343 
L 75.837283 147.415402 
L 74.750371 148.434933 
L 74.633544 148.294005 
L 74.48751 148.395297 
L 74.139114 148.812578 
L 73.440236 149.2739 
L 72.92703 149.017365 
L 72.765349 148.423923 
L 72.615142 148.15748 
L 71.206955 147.274473 
L 70.594654 146.393669 
L 70.400638 146.303386 
L 70.067888 145.567914 
L 69.448286 145.385147 
L 69.25114 145.471026 
L 69.116579 145.84757 
L 68.959071 146.031438 
L 69.159347 146.018226 
L 69.620398 145.747378 
L 70.027207 145.867388 
L 70.148207 146.025933 
L 70.348482 146.651304 
L 71.10786 147.695058 
L 71.660704 147.939481 
L 72.126971 148.619902 
L 72.067514 148.977729 
L 71.870368 149.35097 
L 71.582472 149.59209 
L 71.250765 149.551353 
L 71.283102 149.783665 
L 71.557437 149.687878 
L 71.687825 149.63503 
L 71.963204 149.813393 
L 71.870368 150.417845 
L 71.926695 151.213872 
L 71.782747 151.600325 
L 71.863066 151.818324 
L 71.901661 152.347908 
L 72.117583 152.949057 
L 72.092548 153.180268 
L 71.856807 153.562317 
L 71.608549 153.490752 
L 71.206955 153.252934 
L 70.668715 153.382853 
L 70.559189 153.17146 
L 70.571706 153.349823 
L 70.559189 153.446711 
L 70.757378 153.673519 
L 71.687825 154.270264 
L 71.485463 154.543313 
L 70.875249 155.816076 
L 71.176705 156.026368 
L 71.116205 156.171701 
L 70.750077 156.376488 
L 70.367258 156.210236 
L 70.413155 156.409518 
L 70.678103 156.919284 
L 70.844999 157.03599 
L 71.250765 157.150495 
L 71.357162 157.665765 
L 71.294576 157.848532 
L 70.726085 158.443075 
L 71.443739 158.145804 
L 71.644015 158.216268 
L 71.769187 158.700711 
L 71.96529 158.544368 
L 72.0696 158.827326 
L 72.928073 159.577111 
L 73.078279 160.198079 
L 73.444408 159.931635 
L 73.61339 160.030726 
L 73.600873 160.244321 
L 73.285857 160.51737 
L 73.342184 160.769501 
L 73.415201 160.653895 
L 73.796976 160.492047 
L 74.473949 160.650592 
L 74.943345 161.132832 
L 74.933957 161.684436 
L 75.073733 161.601861 
L 75.259405 161.700951 
L 75.242715 161.964092 
L 75.021578 162.289989 
L 75.100853 162.525605 
L 75.643266 163.080512 
L 75.453422 163.613398 
L 75.45968 163.818185 
L 76.000007 163.484581 
L 76.376567 163.791761 
L 76.419334 164.013063 
L 76.358834 164.166103 
L 76.517385 164.196931 
L 76.254524 164.758444 
L 75.972886 164.653849 
L 75.862318 164.726515 
L 75.856059 164.990757 
L 76.0918 165.109665 
L 75.98749 165.802198 
L 75.59424 165.958541 
L 75.296956 165.799996 
L 75.188474 166.15452 
L 75.384577 166.298751 
L 75.728801 166.583912 
L 75.68812 167.078263 
L 75.816421 167.169647 
L 75.825809 167.401959 
L 76.079283 167.537383 
L 76.022955 167.798321 
L 75.720456 167.907321 
L 75.637008 168.12532 
L 75.904042 168.277259 
L 75.937421 168.431399 
L 75.904042 169.007225 
L 76.223231 168.671419 
L 76.605006 167.068354 
L 76.623782 167.30397 
L 76.410989 168.570126 
L 76.517385 169.754808 
L 76.921066 170.791956 
L 77.884892 172.344374 
L 78.053874 172.442363 
L 78.451296 173.366107 
L 78.482589 173.943034 
L 78.420003 175.117807 
L 78.538916 175.700239 
L 78.974933 176.755003 
L 79.167906 178.255674 
L 79.281605 179.386407 
L 78.895657 183.438108 
L 78.97076 183.768409 
L 79.381742 184.015035 
L 79.596621 184.131741 
L 80.028465 184.779133 
L 80.112957 184.636002 
L 80.170327 183.843278 
L 80.463439 183.669319 
L 80.164069 183.17827 
L 79.990914 182.517667 
L 79.987784 181.854861 
L 80.155724 181.22949 
L 80.213094 181.04342 
L 80.295499 180.974057 
L 80.56462 181.465105 
L 80.733602 181.249308 
L 80.360172 180.442271 
L 80.63555 179.879657 
L 80.741947 179.747536 
L 80.908843 179.635234 
L 81.096601 179.418336 
L 81.345903 179.487699 
L 81.392842 179.773961 
L 81.345903 180.095454 
L 81.608764 182.376738 
L 81.758971 181.912114 
L 81.921695 180.830926 
L 82.045824 180.604119 
L 81.871626 182.548495 
L 81.927953 183.726571 
L 81.292704 185.822886 
L 81.25098 187.516233 
L 81.652575 190.460322 
L 81.871626 190.992108 
L 82.045824 190.62217 
L 82.477668 190.724564 
L 82.581978 190.651897 
L 82.48497 190.437201 
L 82.746788 190.55611 
L 82.68003 190.946967 
L 81.076782 194.375499 
L 81.158144 196.002785 
L 80.41337 198.212504 
L 80.207879 199.976315 
L 80.178672 201.413127 
L 79.981526 201.829307 
L 79.850095 201.555157 
L 79.868871 200.878038 
L 79.340018 200.85822 
L 79.521518 201.06631 
L 79.596621 201.093836 
L 79.684242 201.555157 
L 79.367139 203.560088 
L 79.342104 203.778088 
L 79.385915 204.355015 
L 79.237794 204.759084 
L 79.350449 204.746973 
L 79.947103 204.057743 
L 79.719707 203.342089 
L 79.850095 203.133999 
L 80.037853 203.099868 
L 80.95161 203.617341 
L 81.034015 203.49623 
L 81.076782 202.295033 
L 81.601463 202.421648 
L 81.737066 202.573587 
L 81.915436 203.318968 
L 81.940471 203.388331 
L 81.171705 206.006523 
L 81.211343 206.826772 
L 81.076782 206.972105 
L 80.857731 207.492881 
L 78.878967 210.322466 
L 77.391504 211.989388 
L 77.293453 212.41878 
L 76.342144 213.328211 
L 70.477827 216.234866 
L 68.314434 216.768854 
L 64.879501 218.128596 
L 64.166019 218.238697 
L 58.688693 220.189679 
L 56.843446 221.129938 
L 55.298613 221.651815 
L 53.413728 222.651528 
L 52.895306 222.783648 
L 52.895306 222.691164 
L 53.31672 222.463256 
L 53.604616 222.129651 
L 52.913039 222.431327 
L 52.643919 222.669144 
L 52.093161 222.790254 
L 52.180782 223.071011 
L 52.255885 223.023668 
L 52.443644 222.959809 
L 52.255885 223.259283 
L 47.711092 226.126302 
L 47.352265 226.516058 
L 46.388439 227.991406 
L 45.97537 229.149664 
L 46.00875 229.941287 
L 45.941991 229.645116 
L 45.862716 229.645116 
L 45.493458 230.252871 
L 45.330734 230.753829 
L 43.95384 231.888966 
L 43.146479 231.62032 
L 42.743842 231.829512 
L 42.636402 232.088248 
L 42.823117 232.487913 
L 42.946203 232.359095 
L 43.046341 231.87135 
L 43.537642 232.012278 
L 43.880822 232.498923 
L 44.288675 232.709215 
L 44.940614 233.974271 
L 45.251458 234.842964 
L 45.472596 234.643682 
L 45.798043 234.709743 
L 46.302904 235.027933 
L 46.745179 235.658809 
L 47.177024 236.136646 
L 47.455532 236.147656 
L 47.796626 236.051869 
L 47.661023 235.26575 
L 47.993772 233.848756 
L 48.256634 233.574606 
L 48.758366 233.364314 
L 48.76671 233.726544 
L 48.438133 235.896627 
L 48.294185 239.659864 
L 48.051143 241.703331 
L 47.943703 242.908932 
L 47.819574 243.418698 
L 47.971867 243.744596 
L 41.03931 243.936 
L 39.012459 243.666132 
L 38.360025 243.738843 
L 37.984461 243.661938 
L 38.029502 240.174634 
L 37.897029 239.0658 
L 37.195579 237.530492 
L 37.098211 235.740697 
L 37.568493 234.310259 
L 37.261154 232.854653 
L 37.429396 232.429576 
L 36.207986 232.032466 
L 35.874152 231.730438 
L 35.317762 229.767256 
L 35.395921 229.392518 
L 36.041069 227.871192 
L 36.470285 227.384592 
L 36.46896 227.090954 
L 36.275548 225.959747 
L 36.141749 225.680092 
L 36.109956 224.81316 
L 36.16162 224.470582 
L 36.380202 223.809197 
L 36.316615 212.938989 
L 36.421269 212.009135 
L 36.352383 210.963223 
L 36.029146 209.924303 
L 34.851453 207.454946 
L 34.76932 206.881652 
L 34.607702 204.300432 
L 34.456681 204.127046 
L 33.386954 203.314647 
L 33.207452 203.030796 
L 32.687492 201.844358 
L 31.939677 199.663046 
L 30.708995 198.371037 
L 30.469879 197.89003 
L 30.391057 197.332117 
L 30.659979 194.243323 
L 30.58182 193.833628 
L 27.284544 183.79959 
L 27.410394 183.55629 
L 29.267678 182.267078 
L 41.761292 168.579342 
L 42.256745 168.895352 
L 42.223626 168.773702 
L 41.305582 167.140514 
L 41.36652 166.862257 
L 41.252592 166.856664 
L 40.880341 166.465146 
L 42.519043 164.383112 
L 42.818434 163.790242 
L 42.897918 163.272879 
L 42.562759 159.85549 
L 42.697883 159.280798 
L 43.101928 158.760639 
L 43.658319 158.689326 
L 44.2624 158.763435 
L 44.810842 158.671149 
L 45.135403 158.317385 
L 45.956741 156.726145 
L 47.527881 154.632924 
L 47.612665 154.111367 
L 47.538479 153.704468 
L 47.776932 153.174521 
L 47.98889 152.394282 
L 48.400884 152.292208 
L 48.50024 152.097847 
L 48.574425 151.683957 
L 48.749291 151.531545 
L 49.435505 151.555316 
L 49.398413 151.450445 
L 49.321578 151.134434 
L 49.367944 150.134666 
L 49.61567 149.337648 
L 49.634216 148.052631 
L 49.073852 147.758993 
L 48.75459 147.304553 
L 48.842022 146.506137 
L 48.614167 146.377495 
L 48.375714 146.458595 
L 47.992865 146.851511 
L 47.408655 146.915832 
L 47.030442 146.715878 
L 47.028455 146.278217 
L 47.158279 146.030722 
L 47.103965 145.597256 
L 47.191398 144.369569 
L 47.103965 144.075931 
L 46.690646 144.042372 
L 46.444907 144.031186 
L 46.309121 143.870384 
L 46.348864 142.645493 
L 46.379333 142.512657 
L 47.044352 141.669495 
L 47.191398 141.201073 
L 47.204645 140.866884 
L 47.576897 139.19035 
L 47.387459 138.593285 
L 47.10264 138.226937 
L 46.960893 137.915121 
L 46.599239 137.832623 
L 45.483809 137.894147 
L 45.351335 137.606102 
L 45.351335 137.285896 
L 45.273175 136.817473 
L 45.699079 136.508454 
L 45.538123 136.400787 
L 45.455989 136.202231 
L 45.387103 135.35068 
L 46.620435 134.768997 
L 47.008584 134.711668 
L 47.870989 134.722854 
L 48.092882 134.542476 
L 48.320075 133.889481 
L 48.34657 133.442032 
L 48.247215 133.072887 
L 47.697448 131.818632 
L 47.685525 131.312456 
L 48.064401 131.035597 
L 48.53667 130.842634 
L 49.296408 130.384 
L 49.33615 129.971508 
L 49.154661 129.644311 
L 49.191091 129.654099 
L 49.460676 129.258386 
L 49.890553 128.826319 
L 49.790536 128.567637 
L 49.558706 128.307558 
L 48.765188 127.531514 
L 48.730744 127.216901 
L 49.0202 126.645006 
L 48.987081 126.096881 
L 48.508188 124.396576 
L 48.588997 124.013448 
L 48.411482 123.697438 
L 48.704912 123.016477 
L 48.533358 122.373269 
L 48.65126 121.827941 
L 48.791682 121.60142 
L 49.330851 121.281214 
L 49.603747 118.632877 
L 49.427557 118.39517 
L 48.722796 117.995263 
L 48.530709 117.426164 
L 48.611518 117.18566 
L 48.806254 117.008079 
L 49.619644 115.209894 
L 49.530224 115.089643 
L 49.13214 114.833758 
L 48.950651 114.270252 
L 48.929455 113.631239 
L 48.75459 112.796468 
L 48.426054 112.016229 
L 47.147681 109.657335 
L 48.26841 108.477189 
L 48.488317 108.042325 
L 48.938728 106.227361 
L 48.567801 106.337825 
L 47.975643 106.644048 
L 47.573585 106.617481 
L 46.385956 106.41473 
L 45.820293 106.562948 
L 45.479835 106.297275 
L 45.135403 105.119926 
L 40.247778 103.117593 
L 39.238989 102.960985 
L 36.706088 103.025306 
L 35.170716 102.707897 
L 35.058775 102.502351 
L 34.883247 101.745883 
L 34.730902 101.615843 
L 33.945332 101.113861 
L 32.816654 99.953291 
L 32.501366 99.809269 
L 30.361913 99.663848 
L 29.420023 99.237373 
L 28.868932 99.161866 
L 28.82919 98.998268 
L 28.549008 98.929752 
L 28.325789 98.587174 
L 27.915782 98.261376 
L 27.492528 97.569228 
L 27.039467 97.323132 
L 25.169598 96.963774 
L 24.545646 97.271395 
L 24.436355 97.24343 
L 24.248242 97.342707 
L 23.861418 97.748208 
L 23.575937 97.875451 
L 23.361992 97.844689 
L 22.449247 97.102204 
L 21.879609 96.980554 
L 16.049432 97.022502 
L 15.968623 92.08099 
L 16.179257 91.971924 
L 15.964649 91.467146 
L 15.571202 90.882666 
L 15.88384 89.850738 
L 15.65466 89.42706 
L 15.567227 88.267888 
L 15.343347 87.777093 
L 14.99759 87.528199 
L 14.580297 87.249942 
L 14.262359 86.605336 
L 13.721866 84.328941 
L 13.638407 83.2257 
L 13.849041 83.168371 
L 14.971095 83.029941 
L 17.113198 81.933692 
L 21.345739 80.341054 
L 28.973586 78.519099 
L 30.07312 78.099615 
L 32.146336 76.976799 
L 36.951165 75.342213 
L 38.409703 74.728369 
L 39.439025 74.534008 
L 51.940587 70.135028 
L 52.934141 70.769846 
L 53.075888 71.154372 
L 53.066615 72.070244 
L 53.494506 72.73862 
L 53.919613 73.066703 
L 55.204744 75.41772 
L 55.370336 75.554751 
L 56.081721 75.958853 
L 56.487091 76.582485 
L 56.97857 76.866335 
L 57.087198 77.036925 
L 57.455476 77.948602 
L 57.833026 78.159741 
L 57.958876 78.067455 
L 58.304633 76.660788 
L 58.576205 76.572697 
L 59.265731 77.118025 
L 59.627385 77.155778 
L 59.991688 77.018747 
L 61.087248 76.459436 
L 61.462149 76.460834 
L 62.911413 76.57829 
L 63.153841 76.098681 
L 63.56451 75.919701 
L 64.498451 75.893134 
L 65.862932 75.413525 
L 66.268302 75.350602 
L 66.570342 75.188402 
L 67.036292 75.543593 
L 67.207542 75.796653 
L 67.924226 77.056501 
L 68.591894 77.736063 
L 68.801203 78.165334 
L 68.8171 78.616978 
L 68.643559 79.422386 
L 68.980043 80.321478 
L 69.189352 81.146462 
L 69.299305 82.64122 
L 69.647711 83.26625 
L 69.529809 83.694123 
L 69.193326 84.25623 
L 69.218496 84.919014 
L 69.188027 85.149729 
L 69.403959 87.498835 
L 68.99594 87.982639 
L 68.671379 88.185389 
L 68.466044 88.551738 
L 68.317673 89.062109 
L 68.059349 89.224309 
L 67.807649 89.639598 
L 67.577144 89.761248 
L 67.416851 89.987769 
L 67.415526 90.443607 
L 67.532103 91.260201 
L 67.491036 91.798538 
L 67.338691 92.227809 
L 66.402101 93.448505 
L 65.919896 93.638671 
L 65.327737 94.220354 
L 65.189964 94.560136 
L 65.148898 95.515159 
L 65.446964 96.03392 
L 66.060318 96.35832 
L 67.345315 97.813927 
L 67.402279 98.194258 
L 67.097589 99.528215 
L 67.626159 100.711157 
L 67.876535 100.972635 
L 68.885986 101.074709 
L 69.17213 101.376737 
L 69.668907 102.523325 
L 70.397514 103.22526 
L 70.634642 103.68809 
L 70.731348 103.724445 
L 71.709005 104.350873 
L 72.068009 104.984293 
L 72.767472 105.68483 
L 72.986054 106.184015 
L 73.666969 106.665022 
L 73.766325 107.028574 
L 74.422071 107.400516 
L 74.657874 107.72212 
L 75.035425 108.026944 
L 75.782578 108.050715 
L 76.205169 108.063299 
L 76.493963 108.281431 
L 76.611864 108.700914 
L 76.581395 109.626573 
L 76.4317 109.997117 
L 75.546774 110.598376 
L 75.446094 111.020656 
L 75.863387 111.672253 
L 75.823645 112.020424 
L 76.019706 112.213386 
L 76.693998 112.321054 
L 78.719524 112.284698 
L 78.886441 111.944917 
L 78.902338 111.445732 
L 78.805632 110.718628 
L 79.006993 110.29495 
L 78.930158 110.178893 
L 78.450602 109.780384 
L 78.632091 109.58882 
L 78.633416 108.790403 
L 78.954003 108.513545 
L 78.889091 108.17656 
L 78.580427 107.38094 
L 78.503592 106.41473 
L 77.753789 105.647076 
L 77.137786 105.354836 
L 76.668828 104.279561 
L 77.90216 103.367884 
L 77.972371 103.125982 
L 78.037284 102.337354 
L 78.389664 101.828381 
L 78.20685 101.305425 
L 78.294283 100.678997 
L 78.530086 100.171422 
L 78.886441 99.739355 
L 80.020418 98.745179 
L 80.563561 98.682257 
L 81.039142 98.901787 
L 81.241827 99.233178 
L 81.573012 99.324066 
L 81.758475 98.910176 
L 82.068464 98.878016 
L 83.423672 98.494888 
L 83.784001 98.529845 
L 83.919125 98.459931 
L 85.041179 97.577618 
L 85.176302 97.07284 
L 85.099467 96.446412 
L 85.318049 95.596259 
L 85.751239 89.120837 
L 85.029256 85.801327 
L 85.114039 85.462944 
L 86.568603 81.946276 
L 86.127465 81.928099 
L 86.042682 81.807847 
L 85.837347 78.747018 
L 84.59777 77.295613 
L 81.678991 73.50208 
L 80.819236 71.800376 
L 76.055474 65.945789 
L 73.223182 63.39673 
L 72.355478 63.166014 
L 70.508792 63.15343 
L 70.318029 62.94229 
L 69.997442 62.314463 
L 69.570876 61.808287 
L 69.149609 60.825298 
L 69.117816 59.716464 
L 69.201274 58.570576 
L 68.497838 52.188838 
L 66.697517 45.587571 
L 66.758455 44.977922 
L 67.031352 44.294165 
L 69.386738 40.601314 
L 70.004066 38.737411 
L 70.029236 38.190684 
L 69.941803 37.357311 
L 70.065004 37.183925 
L 70.507467 37.072063 
L 80.428438 37.234263 
L 80.632447 37.361506 
L 81.176915 37.287397 
L 81.370327 37.238458 
L 81.586259 37.525104 
L 81.790269 37.649551 
L 81.806166 37.417437 
L 82.153248 37.491546 
L 82.363881 37.547477 
L 82.679169 37.372692 
L 83.499183 37.09863 
L 83.696569 36.633004 
L 83.99331 36.347755 
L 83.893955 36.05132 
L 84.129758 35.905899 
L 84.773582 35.784249 
L 85.000112 35.599677 
L 85.56975 34.953673 
L 87.19388 35.321419 
L 87.415111 35.599677 
L 87.293235 35.901705 
L 87.408487 36.157589 
L 87.648265 36.289027 
L 88.08013 36.200936 
L 89.538668 36.988166 
L 90.020873 37.442606 
L 90.207661 38.744402 
L 90.354707 38.850671 
L 91.036948 38.784952 
L 91.368132 38.949949 
L 92.425274 38.727623 
L 92.641207 38.572414 
L 94.238842 38.645125 
L 94.396486 39.033846 
L 95.011165 39.253375 
L 96.441883 38.949949 
L 96.635295 38.756987 
L 97.370525 38.376655 
L 98.307115 37.119604 
L 98.646249 37.108418 
L 98.899274 37.127994 
L 99.406649 37.379684 
L 100.712842 37.214687 
L 101.028129 37.002149 
L 101.181799 37.418835 
L 101.530206 37.871877 
L 101.977967 38.263395 
L 102.428379 38.488518 
L 104.076354 38.808723 
L 104.761244 38.631142 
L 104.981151 38.572414 
L 105.129521 38.645125 
L 105.462031 38.949949 
L 106.389348 39.13592 
L 106.826512 38.949949 
L 107.225259 38.387842 
L 107.492856 38.329114 
L 108.23471 38.018696 
L 108.915626 37.964164 
L 109.154079 37.822938 
L 109.725041 37.347523 
L 110.92393 36.726688 
L 111.188878 36.398093 
L 111.104095 35.581499 
L 111.411434 35.0124 
L 111.392888 34.7691 
L 111.513439 34.604103 
L 111.831376 33.677045 
L 112.848776 33.148497 
L 113.484651 33.084176 
L 113.605202 32.951339 
L 114.93259 32.769563 
L 115.041219 32.920577 
L 115.716836 33.172267 
L 116.127505 33.012864 
L 116.719663 33.109345 
L 117.179348 33.440737 
L 117.886758 34.213984 
L 118.341144 34.455886 
L 119.357219 34.721559 
L 119.740068 34.953673 
L 120.05933 34.542579 
L 121.321807 33.651876 
L 121.815934 33.091167 
L 122.749875 32.846469 
L 123.168493 32.920577 
L 123.402972 32.791936 
L 124.082563 32.173897 
L 124.575366 31.940385 
L 124.918473 31.628569 
L 125.351663 31.525097 
L 127.471245 31.435607 
L 127.866017 31.249636 
L 128.168058 31.312559 
L 128.960252 31.712466 
L 129.622621 31.615985 
L 129.922012 31.445395 
L 132.637727 29.23332 
L 132.857634 29.157813 
L 133.845889 29.080908 
L 136.320502 28.447488 
L 137.604174 27.526024 
L 139.170016 26.804513 
L 140.77295 25.498522 
L 141.280325 25.20768 
L 141.521427 24.879085 
L 142.764033 23.718515 
L 143.594644 23.416487 
L 144.462348 22.646036 
L 144.665299 22.254171 
L 144.88435 22.176 
L 145.08254 22.224444 
L 145.159729 22.360969 
L 145.024126 22.539332 
M 69.800056 43.862097 
L 69.993468 43.870487 
L 70.257091 43.599221 
L 70.378967 43.130798 
L 70.202777 42.716908 
L 69.830525 42.490387 
L 69.358918 42.599453 
L 69.104568 42.816186 
L 69.133713 43.042707 
L 69.800056 43.862097 
M 70.650539 43.603416 
L 70.571054 44.204675 
L 70.735322 44.482932 
L 70.990997 44.57382 
L 71.281114 44.523482 
L 71.548712 44.364079 
L 71.891819 43.776802 
L 71.931561 43.434224 
L 71.826907 43.16156 
L 71.332779 42.911269 
L 71.057234 42.894489 
L 70.887667 43.016139 
L 70.650539 43.603416 
L 70.650539 43.603416 
" clip-path="url(#p8fe83764df)" style="fill: none; stroke: #000000; stroke-width: 2"/>
   </g>
  </g>
 </g>
 <defs>
  <clipPath id="p8fe83764df">
   <rect x="0" y="-0" width="163.565507" height="266.112"/>
  </clipPath>
 </defs>
</svg>
