<?xml version="1.0" encoding="utf-8" standalone="no"?>
<!DOCTYPE svg PUBLIC "-//W3C//DTD SVG 1.1//EN"
  "http://www.w3.org/Graphics/SVG/1.1/DTD/svg11.dtd">
<svg xmlns:xlink="http://www.w3.org/1999/xlink" width="242.651732pt" height="266.112pt" viewBox="0 0 242.651732 266.112" xmlns="http://www.w3.org/2000/svg" version="1.1">
 <metadata>
  <rdf:RDF xmlns:dc="http://purl.org/dc/elements/1.1/" xmlns:cc="http://creativecommons.org/ns#" xmlns:rdf="http://www.w3.org/1999/02/22-rdf-syntax-ns#">
   <cc:Work>
    <dc:type rdf:resource="http://purl.org/dc/dcmitype/StillImage"/>
    <dc:date>2024-02-02T21:58:03.713834</dc:date>
    <dc:format>image/svg+xml</dc:format>
    <dc:creator>
     <cc:Agent>
      <dc:title>Matplotlib v3.8.2, https://matplotlib.org/</dc:title>
     </cc:Agent>
    </dc:creator>
   </cc:Work>
  </rdf:RDF>
 </metadata>
 <defs>
  <style type="text/css">*{stroke-linejoin: round; stroke-linecap: butt}</style>
 </defs>
 <g id="figure_1">
  <g id="patch_1">
   <path d="M 0 266.112 
L 242.651732 266.112 
L 242.651732 0 
L 0 0 
L 0 266.112 
z
" style="fill: none"/>
  </g>
  <g id="axes_1">
   <g id="PatchCollection_1">
    <path d="M 31.546685 157.968609 
L 31.494335 157.968609 
L 31.576215 157.664497 
L 32.139976 156.599027 
L 32.760785 155.696756 
L 32.948034 155.656496 
L 33.078907 155.801003 
L 32.884947 156.118056 
L 32.613804 156.378312 
L 32.409776 156.617 
L 32.137292 157.120978 
L 31.546685 157.968609 
" clip-path="url(#p30169dc62f)" style="fill: none; stroke: #000000; stroke-width: 2"/>
    <path d="M 30.17151 156.455958 
L 30.066811 156.593994 
L 29.941307 156.48184 
L 29.858085 156.102958 
L 29.953388 155.757147 
L 30.18359 155.643555 
L 30.308423 155.670874 
L 30.31849 155.852047 
L 30.276208 156.206485 
L 30.17151 156.455958 
" clip-path="url(#p30169dc62f)" style="fill: none; stroke: #000000; stroke-width: 2"/>
    <path d="M 32.498367 153.449347 
L 31.999707 155.827603 
L 31.582926 156.93621 
L 30.920507 157.944884 
L 30.636613 157.564564 
L 30.582921 157.450972 
L 30.586277 157.308621 
L 30.626545 157.146141 
L 30.628559 156.969281 
L 30.521847 156.788108 
L 30.401041 156.471774 
L 30.513793 156.141062 
L 30.988963 155.412056 
L 31.023192 155.335129 
L 31.0044 154.822524 
L 31.023192 154.665795 
L 31.156078 154.334364 
L 31.367489 154.060447 
L 31.605745 153.972017 
L 31.822525 154.19417 
L 32.142661 153.493922 
L 32.348031 153.225757 
L 32.498367 153.449347 
" clip-path="url(#p30169dc62f)" style="fill: none; stroke: #000000; stroke-width: 2"/>
    <path d="M 30.662787 140.74854 
L 30.562787 140.808931 
L 30.346678 140.718345 
L 30.231913 140.401292 
L 30.316477 140.138159 
L 30.478223 140.038946 
L 30.620505 140.077049 
L 30.690975 140.169074 
L 30.662787 140.74854 
" clip-path="url(#p30169dc62f)" style="fill: none; stroke: #000000; stroke-width: 2"/>
    <path d="M 200.541039 129.352193 
L 205.009928 171.283777 
L 209.206917 212.248435 
L 209.495012 212.812703 
L 213.628074 215.835827 
L 213.661316 216.062264 
L 211.020725 230.525052 
L 210.984074 230.512269 
L 210.978107 230.510443 
L 147.752233 230.48579 
L 147.855367 228.872879 
L 148.080389 227.665821 
L 148.029248 227.094705 
L 147.632903 226.913007 
L 147.311566 227.123923 
L 146.062016 228.848227 
L 146.059459 229.362733 
L 146.520582 231.459563 
L 142.426302 231.633957 
L 141.294803 231.953069 
L 140.360624 232.523729 
L 139.729882 232.686252 
L 137.819758 232.50775 
L 135.902815 232.798558 
L 134.847601 232.659317 
L 133.783864 232.082267 
L 133.336379 232.139789 
L 131.696451 231.520281 
L 130.90291 231.583739 
L 130.4469 231.491977 
L 127.921377 231.483759 
L 127.004245 231.74398 
L 126.315543 231.736219 
L 125.05406 231.5915 
L 124.872509 231.775937 
L 124.810287 232.112397 
L 124.830744 232.844211 
L 124.573333 233.348217 
L 124.306546 233.506632 
L 123.986061 233.821636 
L 123.640858 233.887376 
L 123.374072 234.159923 
L 122.910391 235.397568 
L 122.323972 236.120251 
L 121.923366 237.425007 
L 121.381269 236.557605 
L 120.768427 235.930336 
L 120.314123 235.009977 
L 119.775435 234.468992 
L 115.29717 230.909448 
L 113.7689 228.603071 
L 113.3521 228.228719 
L 112.965983 228.059804 
L 111.826387 227.889976 
L 112.023281 228.107283 
L 112.060784 228.376177 
L 111.876676 228.636855 
L 110.970624 229.031294 
L 110.3825 229.681389 
L 109.900068 229.94161 
L 109.459401 229.906914 
L 108.532041 229.681389 
L 108.492833 230.478486 
L 108.073475 230.955101 
L 107.862091 231.518455 
L 107.601271 232.778471 
L 106.98161 234.294142 
L 106.886999 235.134152 
L 106.534124 236.448951 
L 106.584413 237.042437 
L 106.324445 238.377323 
L 106.595494 238.459954 
L 106.787273 238.377323 
L 107.101792 238.738892 
L 107.111168 239.31503 
L 106.903193 239.906233 
L 106.877623 240.73483 
L 106.99269 241.010573 
L 106.490654 241.425556 
L 106.296318 241.821365 
L 105.749959 242.210327 
L 105.085976 242.359611 
L 104.849874 242.572809 
L 104.459496 243.132968 
L 104.170548 243.341601 
L 103.517645 243.43382 
L 103.210798 243.35621 
L 103.088912 243.449342 
L 102.869004 243.936 
L 102.686601 243.836477 
L 101.739636 243.050337 
L 101.387614 243.112425 
L 100.322598 243.422863 
L 99.673531 243.219709 
L 98.758956 242.473286 
L 97.430989 241.709973 
L 96.637448 240.688264 
L 96.17462 239.106397 
L 95.856266 238.836589 
L 95.294992 238.636174 
L 95.006896 238.409736 
L 94.098287 237.851403 
L 93.601365 237.380267 
L 92.644172 237.610813 
L 92.203079 237.415876 
L 91.584271 236.794999 
L 91.149571 236.609192 
L 91.087775 236.30971 
L 91.132097 235.580636 
L 90.895569 235.351003 
L 90.555054 235.301698 
L 90.04492 235.374742 
L 89.754694 235.202631 
L 89.278229 234.589972 
L 89.446142 234.458035 
L 90.283153 234.472644 
L 90.372224 234.227489 
L 90.265254 233.938507 
L 90.055149 233.707961 
L 88.872508 232.787601 
L 88.67391 232.227899 
L 88.566087 231.366888 
L 88.345754 231.019927 
L 88.228555 230.37805 
L 88.124568 230.247027 
L 87.862896 230.121025 
L 87.362138 230.297701 
L 86.894622 230.640553 
L 86.658094 230.672054 
L 86.058463 230.461138 
L 85.967688 229.995023 
L 86.021812 229.081512 
L 85.726472 228.705334 
L 85.140479 228.473418 
L 84.355887 228.130109 
L 83.613061 228.227806 
L 83.451114 227.482753 
L 83.771173 226.675613 
L 83.401678 226.119563 
L 82.794802 225.49412 
L 82.918393 224.704328 
L 82.69252 224.130929 
L 82.288078 223.544748 
L 82.228839 222.667303 
L 81.543121 222.014468 
L 81.20772 221.235633 
L 81.027873 220.527102 
L 80.492595 220.107097 
L 80.278228 219.774745 
L 80.029767 219.768354 
L 79.428432 220.012139 
L 79.260945 219.893442 
L 79.291203 219.619526 
L 79.567792 219.08265 
L 79.428432 218.813298 
L 79.243045 218.846168 
L 79.01845 218.941126 
L 78.149902 219.132868 
L 77.466741 219.403132 
L 77.061873 219.425958 
L 76.387235 219.685266 
L 75.667422 219.17852 
L 75.614576 218.99317 
L 75.815732 218.237161 
L 75.359723 218.268205 
L 75.095493 218.476381 
L 74.690199 219.044301 
L 74.024085 219.467046 
L 73.750906 219.444219 
L 73.470481 219.215956 
L 73.288078 218.891821 
L 72.958217 218.151334 
L 72.562299 217.863721 
L 71.634512 217.509456 
L 71.573143 217.227322 
L 71.651559 216.761664 
L 71.413752 216.117961 
L 71.506233 215.722608 
L 71.255641 215.516258 
L 70.784716 215.287081 
L 70.384962 214.823249 
L 69.837325 214.495462 
L 67.789546 212.502264 
L 67.375728 212.040258 
L 66.620543 211.894169 
L 66.534881 211.757211 
L 66.457317 211.304336 
L 66.297501 211.225813 
L 65.511205 211.212118 
L 65.483077 211.076985 
L 65.576836 210.547414 
L 65.380369 210.325541 
L 64.334957 209.899145 
L 63.853377 209.984059 
L 63.085407 210.378499 
L 62.730402 210.395847 
L 61.885719 210.256149 
L 61.012483 210.464326 
L 60.830932 210.431456 
L 60.0587 210.16667 
L 59.311186 210.341063 
L 56.494158 210.131061 
L 55.991269 210.255236 
L 55.686979 210.206844 
L 54.971854 209.358616 
L 54.434019 209.633446 
L 54.275482 210.044321 
L 54.157857 210.267106 
L 53.816063 210.409542 
L 53.52541 210.19954 
L 53.246691 209.825187 
L 53.008884 209.75123 
L 52.773635 209.817883 
L 52.630439 209.992276 
L 52.597198 210.22054 
L 52.695218 210.457021 
L 53.016555 210.838678 
L 52.939844 211.070594 
L 52.484687 211.278771 
L 50.447562 211.577339 
L 49.137495 211.468686 
L 48.880084 211.526208 
L 47.953576 211.885952 
L 47.506943 211.801038 
L 47.144692 211.32351 
L 46.894953 211.300684 
L 46.450877 211.600166 
L 45.891733 212.347958 
L 45.451919 212.473046 
L 44.492169 212.36348 
L 43.207672 213.08388 
L 40.875633 212.48309 
L 40.330127 212.558873 
L 39.521243 212.442002 
L 38.641614 212.757919 
L 38.167706 212.658396 
L 37.933309 212.808137 
L 37.167043 212.82092 
L 36.83292 212.653831 
L 36.080292 211.814734 
L 35.67372 211.809255 
L 34.459116 212.359827 
L 33.91361 212.252087 
L 33.537722 212.33061 
L 32.882262 212.858355 
L 32.529388 213.521233 
L 32.4433 214.226111 
L 31.593504 217.603501 
L 31.336093 217.778807 
L 30.727513 217.929461 
L 30.487149 218.144029 
L 30.367819 218.499208 
L 30.294517 219.695309 
L 29.682527 221.390852 
L 29.643319 223.314658 
L 29.481372 224.288888 
L 29.108452 224.951897 
L 29.356069 221.974466 
L 29.323854 215.695957 
L 29.440633 215.381061 
L 29.897683 214.47879 
L 30.174865 213.33208 
L 30.348692 212.866206 
L 30.348021 210.968921 
L 30.479565 210.196779 
L 31.800377 206.714949 
L 32.152057 206.120385 
L 32.395011 204.925505 
L 32.676892 204.343163 
L 33.4675 203.186388 
L 35.207106 199.270317 
L 36.75141 194.279431 
L 37.246043 192.117576 
L 37.370876 189.770953 
L 37.655441 186.941202 
L 37.47289 183.738321 
L 36.909129 177.68484 
L 36.725235 177.054329 
L 35.876909 175.129725 
L 35.486302 172.941269 
L 35.201066 172.223766 
L 35.349389 171.804624 
L 35.322543 171.321496 
L 34.584284 168.641285 
L 34.113141 167.49026 
L 33.389647 166.263747 
L 31.979573 164.654758 
L 31.540644 164.5311 
L 31.260777 164.3413 
L 30.348021 163.987581 
L 30.225872 163.783402 
L 29.728554 162.384343 
L 29.22184 161.840105 
L 29.446674 161.564032 
L 30.405068 161.827164 
L 31.327891 161.691284 
L 32.129238 161.221097 
L 32.72253 160.477712 
L 33.388976 159.096627 
L 33.228573 158.91114 
L 32.985618 158.963623 
L 31.59702 160.369152 
L 32.272863 158.910421 
L 32.039305 159.04055 
L 31.023192 160.043472 
L 30.892319 160.448955 
L 30.978896 160.763851 
L 30.65876 161.34835 
L 30.38292 161.279331 
L 30.320504 160.949337 
L 30.348021 160.369152 
L 30.503726 160.093079 
L 30.934601 159.629362 
L 31.24467 158.776698 
L 31.709773 158.428012 
L 33.623205 155.575974 
L 33.695018 155.08997 
L 33.83126 154.972064 
L 34.197705 154.545732 
L 34.162134 154.198484 
L 33.962805 153.941822 
L 34.174886 153.683722 
L 34.197705 153.338631 
L 33.850052 153.580195 
L 33.80173 153.299808 
L 34.037973 152.865568 
L 33.962805 152.615376 
L 33.658105 152.424138 
L 33.449379 152.574397 
L 33.284949 152.976284 
L 33.013806 153.143079 
L 32.895685 153.061838 
L 32.948034 152.615376 
L 33.13931 152.268847 
L 34.384283 150.836717 
L 34.524552 150.31189 
L 34.452069 149.876212 
L 33.746696 148.502316 
L 34.101731 148.45918 
L 34.197705 148.37075 
L 34.703748 147.445473 
L 34.717842 146.777577 
L 34.607103 146.511569 
L 34.033946 145.720734 
L 33.641998 145.630148 
L 33.449379 145.223946 
L 33.186962 145.059309 
L 32.570851 143.735739 
L 32.315816 143.522214 
L 32.318501 143.28712 
L 32.478904 143.205161 
L 31.601718 140.837689 
L 31.439301 140.594687 
L 31.197689 140.496911 
L 31.062118 140.276196 
L 30.968829 139.516995 
L 30.686277 139.652874 
L 30.348021 139.290528 
L 31.313126 138.972756 
L 30.972185 138.928182 
L 30.123187 138.971319 
L 29.897683 138.688056 
L 30.020502 138.567274 
L 29.674191 137.990683 
L 29.323854 137.843301 
L 29.208417 138.613286 
L 29.337948 140.322927 
L 29.108417 140.990104 
L 28.726536 140.522074 
L 28.174184 140.102931 
L 27.80841 139.477453 
L 26.945989 138.726879 
L 27.179548 138.416296 
L 27.062097 138.140223 
L 26.984245 137.875653 
L 26.277529 137.159588 
L 26.221824 136.691557 
L 25.945313 136.38457 
L 25.658063 135.353609 
L 25.370813 134.87767 
L 25.270142 134.332713 
L 25.198329 134.418267 
L 25.045308 134.574277 
L 24.80571 134.336308 
L 24.328526 133.22842 
L 24.192284 133.063063 
L 24.044632 132.636732 
L 23.560066 131.84374 
L 23.443286 131.312443 
L 23.233218 130.812779 
L 22.919123 130.418799 
L 22.694289 130.55396 
L 22.264757 131.360612 
L 21.298309 132.679149 
L 21.421128 132.994764 
L 21.606364 132.904178 
L 21.626498 133.206133 
L 21.421128 134.574277 
L 21.262067 134.681399 
L 20.744615 134.935904 
L 20.809044 135.224199 
L 21.088912 135.690073 
L 21.082871 136.022224 
L 20.785554 137.156712 
L 20.621795 137.349388 
L 20.220978 135.444095 
L 20.282773 134.918175 
L 20.778417 132.746931 
L 21.478625 130.723602 
L 22.082091 127.495953 
L 22.238924 127.349864 
L 87.284574 127.339821 
L 85.996668 106.807958 
L 85.781875 105.663901 
L 84.97981 103.392221 
L 84.806356 102.263228 
L 85.024132 101.073975 
L 85.558558 99.951374 
L 87.284574 97.575605 
L 93.813175 93.108485 
L 94.820231 92.76472 
L 98.192993 92.195887 
L 101.810381 90.484365 
L 103.49037 90.03149 
L 103.71113 89.748443 
L 103.777613 89.144458 
L 103.777613 44.977716 
L 158.664062 44.887324 
L 158.776998 44.655408 
L 158.751002 22.176 
L 213.842015 56.969778 
L 222.430755 62.6435 
L 193.211652 62.659935 
L 196.864635 95.703086 
L 200.541039 129.352193 
L 200.541039 129.352193 
" clip-path="url(#p30169dc62f)" style="fill: none; stroke: #000000; stroke-width: 2"/>
   </g>
  </g>
 </g>
 <defs>
  <clipPath id="p30169dc62f">
   <rect x="0" y="-0" width="242.651732" height="266.112"/>
  </clipPath>
 </defs>
</svg>
