<?xml version="1.0" encoding="utf-8" standalone="no"?>
<!DOCTYPE svg PUBLIC "-//W3C//DTD SVG 1.1//EN"
  "http://www.w3.org/Graphics/SVG/1.1/DTD/svg11.dtd">
<svg xmlns:xlink="http://www.w3.org/1999/xlink" width="158.599261pt" height="266.112pt" viewBox="0 0 158.599261 266.112" xmlns="http://www.w3.org/2000/svg" version="1.1">
 <metadata>
  <rdf:RDF xmlns:dc="http://purl.org/dc/elements/1.1/" xmlns:cc="http://creativecommons.org/ns#" xmlns:rdf="http://www.w3.org/1999/02/22-rdf-syntax-ns#">
   <cc:Work>
    <dc:type rdf:resource="http://purl.org/dc/dcmitype/StillImage"/>
    <dc:date>2024-02-02T21:58:03.739839</dc:date>
    <dc:format>image/svg+xml</dc:format>
    <dc:creator>
     <cc:Agent>
      <dc:title>Matplotlib v3.8.2, https://matplotlib.org/</dc:title>
     </cc:Agent>
    </dc:creator>
   </cc:Work>
  </rdf:RDF>
 </metadata>
 <defs>
  <style type="text/css">*{stroke-linejoin: round; stroke-linecap: butt}</style>
 </defs>
 <g id="figure_1">
  <g id="patch_1">
   <path d="M 0 266.112 
L 158.599261 266.112 
L 158.599261 0 
L 0 0 
L 0 266.112 
z
" style="fill: none"/>
  </g>
  <g id="axes_1">
   <g id="PatchCollection_1">
    <path d="M 135.299143 137.756961 
L 134.818975 148.913908 
L 128.816883 168.219188 
L 130.257386 174.612495 
L 134.999038 181.507239 
L 140.400919 192.162749 
L 144.42232 203.131658 
L 145.382656 211.40535 
L 140.220857 224.129284 
L 131.757908 234.032643 
L 119.873768 240.927385 
L 105.048602 243.936 
L 29.842398 223.377131 
L 13.216605 163.455549 
L 29.842398 88.42821 
L 54.691056 22.176 
L 73.237518 29.697537 
L 82.840865 32.330076 
L 95.02511 31.703281 
L 88.182726 60.410482 
L 101.867494 87.362659 
L 122.094542 113.061246 
L 135.299143 137.756961 
" clip-path="url(#p7cda584034)" style="fill: none; stroke: #000000; stroke-width: 2"/>
   </g>
  </g>
 </g>
 <defs>
  <clipPath id="p7cda584034">
   <rect x="0" y="-0" width="158.599261" height="266.112"/>
  </clipPath>
 </defs>
</svg>
