<?xml version="1.0" encoding="utf-8" standalone="no"?>
<!DOCTYPE svg PUBLIC "-//W3C//DTD SVG 1.1//EN"
  "http://www.w3.org/Graphics/SVG/1.1/DTD/svg11.dtd">
<svg xmlns:xlink="http://www.w3.org/1999/xlink" width="175.402715pt" height="266.112pt" viewBox="0 0 175.402715 266.112" xmlns="http://www.w3.org/2000/svg" version="1.1">
 <metadata>
  <rdf:RDF xmlns:dc="http://purl.org/dc/elements/1.1/" xmlns:cc="http://creativecommons.org/ns#" xmlns:rdf="http://www.w3.org/1999/02/22-rdf-syntax-ns#">
   <cc:Work>
    <dc:type rdf:resource="http://purl.org/dc/dcmitype/StillImage"/>
    <dc:date>2024-02-02T21:58:03.762906</dc:date>
    <dc:format>image/svg+xml</dc:format>
    <dc:creator>
     <cc:Agent>
      <dc:title>Matplotlib v3.8.2, https://matplotlib.org/</dc:title>
     </cc:Agent>
    </dc:creator>
   </cc:Work>
  </rdf:RDF>
 </metadata>
 <defs>
  <style type="text/css">*{stroke-linejoin: round; stroke-linecap: butt}</style>
 </defs>
 <g id="figure_1">
  <g id="patch_1">
   <path d="M 0 266.112 
L 175.402715 266.112 
L 175.402715 0 
L 0 0 
L 0 266.112 
z
" style="fill: none"/>
  </g>
  <g id="axes_1">
   <g id="PatchCollection_1">
    <path d="M 39.567194 234.772203 
L 39.652529 234.789907 
L 39.900001 234.750957 
L 39.981923 234.772203 
L 40.215741 234.966951 
L 40.277183 235.106816 
L 40.208914 235.80968 
L 40.371051 236.036297 
L 40.587803 236.206259 
L 40.789194 236.825913 
L 41.191976 237.29685 
L 41.284138 237.527007 
L 41.24659 238.049287 
L 41.140775 238.645925 
L 40.91549 239.311611 
L 40.867702 239.651535 
L 40.985465 239.984378 
L 40.473454 240.150799 
L 39.889761 240.598721 
L 39.53306 241.110378 
L 39.695197 241.469777 
L 39.710557 241.623805 
L 39.823199 241.809702 
L 39.83856 241.928321 
L 39.765171 242.128381 
L 39.645702 242.169101 
L 39.512579 242.162019 
L 39.39823 242.225755 
L 39.116624 242.721478 
L 38.956194 242.941013 
L 38.693362 243.116286 
L 36.935457 243.663352 
L 35.157072 243.936 
L 34.529005 243.886428 
L 33.549357 243.578371 
L 32.969077 243.514635 
L 32.525335 243.711154 
L 31.318695 242.64889 
L 31.052449 242.346145 
L 30.960287 242.055793 
L 31.293094 241.928321 
L 31.811932 242.032777 
L 32.098659 241.979664 
L 32.224955 241.698164 
L 32.334184 241.087362 
L 32.31029 240.864287 
L 32.081592 240.738585 
L 32.250555 240.207453 
L 32.271036 239.007095 
L 32.368318 238.348491 
L 32.511681 237.969617 
L 32.987851 237.045448 
L 33.161935 236.864863 
L 33.204603 236.797586 
L 33.668826 236.418712 
L 33.870217 236.323108 
L 34.3242 236.195636 
L 34.529005 236.107114 
L 34.887412 235.744174 
L 34.952267 235.342284 
L 34.965921 234.936854 
L 35.283368 234.365001 
L 35.542787 233.586008 
L 35.670789 233.35231 
L 35.762951 233.221297 
L 36.341524 232.764524 
L 36.484887 232.700788 
L 36.766493 232.679543 
L 36.887669 232.610495 
L 36.979831 232.456467 
L 37.106127 232.302439 
L 37.327999 232.233392 
L 37.659099 232.282964 
L 38.599493 232.552071 
L 38.850378 232.679543 
L 38.957901 232.920322 
L 38.840138 233.295656 
L 38.92206 233.502797 
L 39.070543 233.709939 
L 39.229267 234.074649 
L 39.406764 234.386247 
L 39.461378 234.637649 
L 39.567194 234.772203 
" clip-path="url(#pda473c59ee)" style="fill: none; stroke: #000000; stroke-width: 2"/>
    <path d="M 158.514199 227.373534 
L 158.111417 227.616084 
L 157.510658 226.991119 
L 157.396309 226.946858 
L 157.45775 226.543198 
L 157.626714 226.366154 
L 157.877599 226.256386 
L 158.589294 225.822629 
L 159.260029 225.597783 
L 159.954657 225.498638 
L 160.415467 225.672141 
L 160.785822 225.760663 
L 160.695367 226.185569 
L 160.272104 226.652965 
L 159.628677 226.8725 
L 159.162747 226.946858 
L 158.82994 227.130984 
L 158.514199 227.373534 
" clip-path="url(#pda473c59ee)" style="fill: none; stroke: #000000; stroke-width: 2"/>
    <path d="M 15.548753 23.535698 
L 15.564113 23.972997 
L 15.127197 23.440094 
L 14.734655 22.808047 
L 14.625426 22.526547 
L 14.616893 22.308783 
L 14.645907 22.250358 
L 14.690281 22.207868 
L 14.760256 22.181311 
L 14.857538 22.176 
L 15.007728 22.666412 
L 15.548753 23.535698 
" clip-path="url(#pda473c59ee)" style="fill: none; stroke: #000000; stroke-width: 2"/>
   </g>
  </g>
 </g>
 <defs>
  <clipPath id="pda473c59ee">
   <rect x="0" y="-0" width="175.402715" height="266.112"/>
  </clipPath>
 </defs>
</svg>
