<?xml version="1.0" encoding="utf-8" standalone="no"?>
<!DOCTYPE svg PUBLIC "-//W3C//DTD SVG 1.1//EN"
  "http://www.w3.org/Graphics/SVG/1.1/DTD/svg11.dtd">
<svg xmlns:xlink="http://www.w3.org/1999/xlink" width="108.262521pt" height="266.112pt" viewBox="0 0 108.262521 266.112" xmlns="http://www.w3.org/2000/svg" version="1.1">
 <metadata>
  <rdf:RDF xmlns:dc="http://purl.org/dc/elements/1.1/" xmlns:cc="http://creativecommons.org/ns#" xmlns:rdf="http://www.w3.org/1999/02/22-rdf-syntax-ns#">
   <cc:Work>
    <dc:type rdf:resource="http://purl.org/dc/dcmitype/StillImage"/>
    <dc:date>2024-02-02T21:58:03.786912</dc:date>
    <dc:format>image/svg+xml</dc:format>
    <dc:creator>
     <cc:Agent>
      <dc:title>Matplotlib v3.8.2, https://matplotlib.org/</dc:title>
     </cc:Agent>
    </dc:creator>
   </cc:Work>
  </rdf:RDF>
 </metadata>
 <defs>
  <style type="text/css">*{stroke-linejoin: round; stroke-linecap: butt}</style>
 </defs>
 <g id="figure_1">
  <g id="patch_1">
   <path d="M 0 266.112 
L 108.262521 266.112 
L 108.262521 0 
L 0 0 
L 0 266.112 
z
" style="fill: none"/>
  </g>
  <g id="axes_1">
   <g id="PatchCollection_1">
    <path d="M 66.039931 100.525259 
L 65.409865 100.631667 
L 64.854602 100.439541 
L 64.497853 99.851338 
L 64.489221 99.251311 
L 64.670473 98.580346 
L 65.185458 97.338912 
L 65.553716 97.081758 
L 66.152134 97.117227 
L 66.7822 97.341868 
L 67.225259 97.646314 
L 67.452543 98.222695 
L 67.366233 98.946864 
L 67.058393 99.656255 
L 66.621087 100.188298 
L 66.039931 100.525259 
" clip-path="url(#p1c82337f90)" style="fill: none; stroke: #000000; stroke-width: 2"/>
    <path d="M 63.816001 98.571478 
L 63.243475 99.144903 
L 62.823432 99.127168 
L 62.475313 98.754738 
L 62.118564 98.243385 
L 61.376295 97.395072 
L 61.313001 96.916233 
L 61.865387 96.458085 
L 61.89128 96.44035 
L 62.889603 96.227533 
L 63.698043 96.706372 
L 64.080686 97.581287 
L 63.816001 98.571478 
" clip-path="url(#p1c82337f90)" style="fill: none; stroke: #000000; stroke-width: 2"/>
    <path d="M 19.571878 23.875582 
L 21.539754 25.329833 
L 22.289216 25.498314 
L 23.208421 25.888479 
L 23.461598 25.799805 
L 24.028369 25.385993 
L 24.416766 25.383038 
L 25.328778 25.592899 
L 25.56757 25.516048 
L 26.255176 25.173176 
L 26.752899 25.350524 
L 28.832978 26.976211 
L 29.647173 28.57234 
L 30.075847 28.879743 
L 30.613849 29.048223 
L 31.770407 29.130986 
L 32.636388 28.918168 
L 33.968444 28.241291 
L 34.912104 28.341788 
L 36.505968 28.746732 
L 37.213713 28.652147 
L 37.950228 28.229468 
L 38.84354 27.978226 
L 39.605948 28.46002 
L 40.31657 29.190102 
L 41.0387 29.671896 
L 41.691782 29.943829 
L 42.480083 30.422668 
L 43.150427 30.999048 
L 43.452513 31.566561 
L 43.777615 31.80598 
L 44.23506 31.300539 
L 44.23506 31.105457 
L 44.646473 30.830568 
L 44.876634 30.537944 
L 44.974452 30.165514 
L 44.994591 29.642338 
L 45.242014 28.279717 
L 44.724152 27.002813 
L 45.138442 26.284555 
L 46.585578 24.927845 
L 47.552254 25.285496 
L 48.452759 25.888479 
L 48.717444 26.207704 
L 49.102964 26.426433 
L 50.256645 27.71516 
L 50.737106 28.250159 
L 51.542669 28.625545 
L 54.249937 31.534047 
L 55.081394 31.84145 
L 55.256891 32.219791 
L 55.464036 33.272055 
L 55.625149 33.499651 
L 56.905419 34.832714 
L 59.684612 38.332376 
L 60.001083 38.920579 
L 60.838294 40.123587 
L 61.200797 41.412314 
L 61.143257 41.740407 
L 60.838294 42.582809 
L 61.051193 43.558221 
L 61.974713 45.668659 
L 62.239398 47.187938 
L 62.532854 48.166306 
L 62.524223 48.470753 
L 61.960328 51.592072 
L 62.08404 52.209833 
L 62.619164 53.117262 
L 62.737121 53.649305 
L 62.676704 53.921239 
L 62.360233 54.929165 
L 62.535731 55.703583 
L 62.944266 56.404106 
L 63.180181 56.516427 
L 63.611733 56.557808 
L 63.689412 56.891813 
L 63.741198 57.610071 
L 64.339617 58.328329 
L 64.604302 58.904709 
L 64.627318 59.528382 
L 64.259061 60.131364 
L 65.021469 61.390533 
L 64.512238 61.890062 
L 64.618687 62.637878 
L 64.259061 64.426134 
L 64.198643 65.98975 
L 63.429714 67.491317 
L 62.875218 68.212508 
L 62.737121 68.933722 
L 62.857956 69.518969 
L 63.22909 70.69242 
L 63.309647 71.392943 
L 63.519669 71.895428 
L 64.845971 73.051144 
L 65.211351 73.763491 
L 65.936358 74.047247 
L 66.178027 74.526086 
L 66.267215 75.179316 
L 66.514638 75.735006 
L 66.877141 76.154729 
L 67.317324 76.408927 
L 67.317324 76.586275 
L 66.747676 76.958705 
L 67.541731 78.342017 
L 67.72586 78.321327 
L 68.286877 77.934117 
L 68.514161 77.963675 
L 69.716752 78.374531 
L 70.389972 78.732182 
L 70.910711 79.208065 
L 71.238691 80.012041 
L 71.75943 80.449499 
L 71.998222 81.223917 
L 72.70309 82.134302 
L 72.973529 82.728417 
L 73.036823 83.145184 
L 73.082855 84.874324 
L 64.359756 84.773827 
L 63.398834 85.010291 
L 63.131272 85.376809 
L 63.134149 85.897029 
L 63.321155 87.138463 
L 63.266492 88.294179 
L 63.05647 89.423293 
L 61.925804 92.234254 
L 56.810478 100.040508 
L 56.217813 101.485892 
L 56.129315 102.931303 
L 59.995329 116.728927 
L 61.523023 130.219176 
L 61.341771 132.64145 
L 61.410819 134.985395 
L 62.45324 137.212608 
L 63.252106 138.133317 
L 64.362633 139.906794 
L 64.811447 139.995468 
L 68.373187 139.933396 
L 69.325478 140.081186 
L 70.279214 140.434496 
L 71.129364 140.962013 
L 76.40868 145.809517 
L 86.754414 158.18543 
L 88.621595 161.782633 
L 95.972359 171.081564 
L 97.652534 172.86982 
L 97.813647 173.357526 
L 98.098471 179.340055 
L 98.282599 179.594254 
L 99.240644 179.632679 
L 95.897557 187.781806 
L 96.01947 188.914041 
L 97.465528 194.798863 
L 96.524745 208.48715 
L 96.050039 210.284274 
L 96.061547 210.73651 
L 96.188135 212.057751 
L 95.92345 212.675512 
L 95.503406 213.148439 
L 93.193166 214.688408 
L 92.937112 214.712055 
L 92.122918 214.629292 
L 89.467436 215.424401 
L 88.794215 215.492384 
L 88.656119 215.660865 
L 88.572685 216.104234 
L 88.391434 216.3673 
L 88.043315 216.352521 
L 87.433389 215.953488 
L 87.231998 215.47465 
L 86.771676 215.167247 
L 86.199151 215.01059 
L 85.649642 214.981032 
L 85.019576 215.143601 
L 84.49596 215.498296 
L 82.395413 217.435696 
L 81.782938 218.158512 
L 81.27083 219.231465 
L 81.144242 220.857152 
L 81.477975 221.661129 
L 81.368648 221.950797 
L 80.672242 222.880085 
L 80.563085 223.266125 
L 80.571716 224.404106 
L 80.419235 224.915459 
L 80.036592 225.314491 
L 77.740737 226.842637 
L 78.198182 228.113629 
L 78.920312 229.355063 
L 80.275384 229.830946 
L 80.545823 230.262492 
L 80.74146 230.472354 
L 81.055054 230.629011 
L 81.811708 231.506882 
L 82.004468 233.966103 
L 82.562608 235.080438 
L 82.703582 235.792785 
L 82.007345 236.378032 
L 81.941174 236.981014 
L 81.915281 238.198802 
L 81.610317 238.470735 
L 81.621825 238.651039 
L 81.751291 238.784049 
L 82.651796 239.313137 
L 82.818662 239.558468 
L 82.346832 240.915177 
L 82.628779 242.570423 
L 82.404373 243.439426 
L 82.187103 243.765345 
L 80.603363 243.936 
L 77.7954 243.841415 
L 76.331001 243.613818 
L 75.905203 243.205919 
L 75.991514 242.469926 
L 75.085255 241.092525 
L 75.303908 240.199875 
L 75.90808 239.703302 
L 76.612948 239.360429 
L 77.225752 238.928883 
L 77.550854 238.145598 
L 77.617025 236.188861 
L 77.360971 235.302123 
L 76.733783 234.841019 
L 74.193382 234.764168 
L 73.373433 234.119805 
L 72.622533 233.182818 
L 72.052885 232.83699 
L 71.437204 232.65373 
L 71.310616 232.437957 
L 71.103471 231.64876 
L 70.657534 231.326578 
L 69.742645 230.86843 
L 69.469329 230.430973 
L 69.043531 229.420091 
L 67.466928 227.95106 
L 66.969205 226.993383 
L 66.609579 226.600262 
L 64.463328 225.462281 
L 63.974236 224.350902 
L 63.787231 224.146952 
L 62.538608 223.130159 
L 62.239398 222.68679 
L 61.459728 220.706407 
L 60.838294 220.067955 
L 58.646011 219.852182 
L 58.102256 219.299448 
L 56.954328 216.798846 
L 57.066532 215.826389 
L 57.616041 213.979017 
L 57.492329 213.175041 
L 57.023376 212.524766 
L 54.701628 210.098059 
L 53.02433 209.110823 
L 52.722244 208.315714 
L 52.670458 207.295965 
L 52.811431 206.296906 
L 53.110641 205.578648 
L 54.396665 204.349037 
L 55.757326 203.753963 
L 57.477944 201.36664 
L 57.808801 200.459211 
L 57.897988 199.32123 
L 57.644811 197.595046 
L 57.647688 196.631456 
L 57.995806 196.152618 
L 58.496406 195.895463 
L 59.043039 195.017592 
L 59.604056 194.67472 
L 59.788185 194.320025 
L 60.055747 193.241159 
L 60.372218 192.821437 
L 61.451097 192.112046 
L 61.963205 191.370141 
L 62.072532 190.622325 
L 61.494252 186.404406 
L 61.560424 185.916699 
L 61.816478 185.603385 
L 61.50576 184.515653 
L 61.66975 184.113664 
L 62.440789 182.904744 
L 62.492575 182.42295 
L 61.986221 181.559857 
L 61.735921 181.101709 
L 61.50576 180.052402 
L 61.497129 177.941964 
L 61.341771 177.040447 
L 61.042562 176.198045 
L 60.576486 175.275837 
L 60.311801 174.297469 
L 60.688689 172.594931 
L 60.654165 171.640209 
L 60.199597 170.73278 
L 58.749583 169.296264 
L 58.102256 168.498199 
L 56.821206 166.098155 
L 56.588948 165.764089 
L 55.809278 165.347322 
L 55.35471 165.524669 
L 54.94042 165.829116 
L 54.71889 165.873453 
L 54.062932 165.849807 
L 51.309631 166.837042 
L 49.281338 166.893203 
L 48.389465 167.271544 
L 48.185197 167.564168 
L 47.862972 168.285382 
L 47.644319 168.430216 
L 43.901327 168.034139 
L 43.138919 168.229222 
L 41.522038 169.216457 
L 40.73086 169.506125 
L 39.945436 169.426319 
L 38.447951 168.273559 
L 37.858164 168.459774 
L 37.436682 169.104137 
L 37.199328 169.934716 
L 37.107264 171.433304 
L 36.833948 171.628386 
L 36.344856 171.477641 
L 36.013999 171.182061 
L 35.60872 170.336461 
L 34.978275 168.894276 
L 34.658927 168.643033 
L 33.591556 168.043007 
L 32.659404 166.650827 
L 31.485583 166.12174 
L 31.125957 165.832072 
L 30.619603 165.155195 
L 29.211306 162.293985 
L 28.722214 161.611197 
L 28.057624 160.52642 
L 27.411735 160.168769 
L 27.178697 159.905703 
L 26.48246 158.755899 
L 26.361626 158.24159 
L 26.502599 156.819853 
L 26.194759 156.007009 
L 25.570447 155.516347 
L 24.037 154.665079 
L 23.562293 154.091654 
L 22.696313 152.454144 
L 22.299285 152.123095 
L 22.020215 152.282708 
L 21.752653 153.006877 
L 21.500914 153.255164 
L 20.14728 153.745826 
L 19.770392 154.171461 
L 18.900096 155.590242 
L 18.389426 155.71143 
L 17.739222 154.871984 
L 17.595371 154.437482 
L 17.733468 152.68174 
L 17.575232 152.439365 
L 17.350825 152.324089 
L 16.847348 152.350691 
L 16.617187 152.158564 
L 16.387026 151.283649 
L 16.276261 150.849147 
L 14.481006 148.780091 
L 13.627972 148.463821 
L 12.600879 148.256915 
L 11.798193 147.896308 
L 11.639957 147.124845 
L 11.939166 146.80562 
L 12.961944 146.317913 
L 13.199298 146.007555 
L 13.043939 145.664683 
L 11.988076 144.16905 
L 11.251561 143.840957 
L 10.230222 143.83209 
L 9.349856 143.631096 
L 9.021877 142.723667 
L 9.142711 142.129552 
L 9.410273 141.907867 
L 9.810178 141.946292 
L 10.32804 142.12364 
L 10.679035 142.06748 
L 11.802508 141.183697 
L 12.828163 141.029996 
L 13.190667 140.775798 
L 13.314378 140.128479 
L 13.357533 139.158978 
L 13.590571 138.848619 
L 14.102679 138.768813 
L 14.893857 138.343178 
L 15.39158 137.246578 
L 16.156865 134.101612 
L 16.664658 132.987278 
L 17.356579 132.103495 
L 18.19379 131.858164 
L 18.343394 131.459132 
L 18.257084 131.128083 
L 17.595371 129.985668 
L 17.445767 129.010256 
L 17.880195 125.844599 
L 18.642603 124.097724 
L 18.772069 123.302615 
L 18.534715 122.608004 
L 17.851425 121.972508 
L 17.100525 121.496625 
L 16.919274 121.186266 
L 16.755284 119.087652 
L 16.853102 118.588122 
L 17.227114 117.810748 
L 18.231191 116.303293 
L 19.379118 114.204678 
L 20.000553 113.755397 
L 20.193313 113.799734 
L 20.656512 114.367247 
L 22.023092 113.764265 
L 22.289216 113.83816 
L 22.483414 114.036198 
L 22.932228 114.813572 
L 23.217052 114.801749 
L 24.042754 113.994817 
L 24.323263 113.903187 
L 24.713098 113.631254 
L 25.176297 112.64993 
L 25.720052 112.18587 
L 26.807562 112.088329 
L 27.532569 112.44598 
L 28.14825 112.304102 
L 28.784069 111.899158 
L 29.355156 111.319822 
L 30.107495 110.368056 
L 30.951897 110.025184 
L 31.197882 109.685268 
L 31.220898 108.981788 
L 31.347487 108.768971 
L 31.770407 108.69212 
L 31.971798 108.219193 
L 32.81764 107.701929 
L 33.06794 107.240825 
L 33.024784 106.658534 
L 32.705436 106.537346 
L 32.23936 106.552125 
L 31.15185 106.167872 
L 29.100541 106.7945 
L 28.122357 106.448672 
L 27.584355 105.600359 
L 27.092386 103.608153 
L 26.744268 102.674122 
L 26.422043 102.281001 
L 25.639496 101.524318 
L 25.429474 101.060258 
L 25.389196 100.096669 
L 25.489891 99.147858 
L 26.584594 96.534936 
L 26.988814 93.765356 
L 26.67522 93.138727 
L 26.672343 92.680579 
L 27.0406 91.601714 
L 27.135542 90.555362 
L 26.81907 85.908852 
L 26.655081 85.447748 
L 26.278192 85.013247 
L 25.823624 84.93344 
L 24.871334 84.992556 
L 24.405258 84.818164 
L 24.313193 84.596479 
L 24.902981 83.171786 
L 24.934628 82.820047 
L 24.805162 80.384472 
L 25.06697 79.979528 
L 25.776154 80.570687 
L 26.01063 80.180522 
L 26.134342 78.888839 
L 26.715498 78.569613 
L 26.752899 78.395221 
L 26.698236 77.886825 
L 29.034369 74.03838 
L 29.276038 73.184155 
L 28.384165 71.599849 
L 27.764169 70.970264 
L 27.249184 70.252006 
L 26.84784 69.459853 
L 26.577401 68.599717 
L 26.407658 66.894223 
L 26.197636 65.992706 
L 25.794854 65.643922 
L 25.064093 65.700082 
L 24.844002 65.543425 
L 24.868457 65.132569 
L 25.114441 64.630084 
L 25.374811 64.538454 
L 26.004876 64.627128 
L 26.41485 64.37293 
L 26.937028 63.568954 
L 27.276515 63.270418 
L 28.742353 62.844784 
L 29.126434 62.776801 
L 30.475752 62.983706 
L 30.841133 62.815226 
L 31.347487 62.303873 
L 31.770407 62.224067 
L 32.340056 61.869371 
L 32.646457 61.372798 
L 33.099587 60.222994 
L 34.454659 58.680069 
L 36.704482 57.06916 
L 37.152094 56.260735 
L 37.118772 55.875019 
L 36.921697 55.354799 
L 36.917381 54.604027 
L 36.159288 54.50353 
L 35.729175 54.001045 
L 34.972521 52.472899 
L 33.959813 51.435415 
L 33.229052 49.670805 
L 33.128357 48.985061 
L 33.303854 47.385976 
L 33.239122 46.484458 
L 32.840656 46.020398 
L 32.288269 45.627278 
L 31.770407 44.935622 
L 31.048277 44.678468 
L 29.506199 43.244907 
L 27.23336 42.219246 
L 26.859349 41.69607 
L 26.876611 40.957122 
L 27.023338 40.235908 
L 27.546954 38.885109 
L 28.372657 37.581604 
L 28.57117 36.978621 
L 28.392796 36.180557 
L 27.774238 34.829759 
L 26.404781 34.262246 
L 25.832255 33.614927 
L 25.429474 32.837553 
L 25.124511 32.503548 
L 24.426835 32.06609 
L 24.163589 31.661146 
L 24.088786 31.238468 
L 24.400942 30.431535 
L 24.235514 29.615736 
L 23.834171 28.897478 
L 23.277469 28.498446 
L 21.775669 28.418639 
L 21.131218 28.102369 
L 20.633495 30.212807 
L 20.017815 29.98521 
L 19.807793 29.367449 
L 19.69559 29.063002 
L 19.389188 28.918168 
L 19.013738 29.012754 
L 18.398057 29.370405 
L 18.0298 29.246262 
L 17.690313 28.468888 
L 18.182282 26.405743 
L 18.170774 25.625413 
L 17.923351 25.507181 
L 17.333563 25.010607 
L 17.009899 25.025386 
L 16.654588 25.223425 
L 16.384149 24.995828 
L 16.251807 24.608619 
L 16.19139 22.938595 
L 16.620064 22.474535 
L 17.149434 22.199646 
L 17.690313 22.176 
L 18.179405 22.465668 
L 19.571878 23.875582 
L 19.571878 23.875582 
" clip-path="url(#p1c82337f90)" style="fill: none; stroke: #000000; stroke-width: 2"/>
   </g>
  </g>
 </g>
 <defs>
  <clipPath id="p1c82337f90">
   <rect x="0" y="-0" width="108.262521" height="266.112"/>
  </clipPath>
 </defs>
</svg>
