<?xml version="1.0" encoding="utf-8" standalone="no"?>
<!DOCTYPE svg PUBLIC "-//W3C//DTD SVG 1.1//EN"
  "http://www.w3.org/Graphics/SVG/1.1/DTD/svg11.dtd">
<svg xmlns:xlink="http://www.w3.org/1999/xlink" width="357.12pt" height="118.618755pt" viewBox="0 0 357.12 118.618755" xmlns="http://www.w3.org/2000/svg" version="1.1">
 <metadata>
  <rdf:RDF xmlns:dc="http://purl.org/dc/elements/1.1/" xmlns:cc="http://creativecommons.org/ns#" xmlns:rdf="http://www.w3.org/1999/02/22-rdf-syntax-ns#">
   <cc:Work>
    <dc:type rdf:resource="http://purl.org/dc/dcmitype/StillImage"/>
    <dc:date>2024-02-02T21:58:03.812919</dc:date>
    <dc:format>image/svg+xml</dc:format>
    <dc:creator>
     <cc:Agent>
      <dc:title>Matplotlib v3.8.2, https://matplotlib.org/</dc:title>
     </cc:Agent>
    </dc:creator>
   </cc:Work>
  </rdf:RDF>
 </metadata>
 <defs>
  <style type="text/css">*{stroke-linejoin: round; stroke-linecap: butt}</style>
 </defs>
 <g id="figure_1">
  <g id="patch_1">
   <path d="M 0 118.618755 
L 357.12 118.618755 
L 357.12 0 
L 0 0 
L 0 118.618755 
z
" style="fill: none"/>
  </g>
  <g id="axes_1">
   <g id="PatchCollection_1">
    <path d="M 208.130555 85.391146 
L 208.144125 85.529662 
L 208.100949 85.621182 
L 207.955387 85.535846 
L 207.80489 85.470298 
L 207.666728 85.535228 
L 207.553239 85.668797 
L 207.485392 85.809787 
L 207.322559 85.607578 
L 207.072142 84.987965 
L 206.911776 84.858105 
L 206.618183 84.722681 
L 206.549103 84.406691 
L 206.663826 83.73637 
L 206.693432 83.120467 
L 206.410941 80.598728 
L 206.440547 79.83998 
L 206.660125 79.355791 
L 207.183164 79.556145 
L 207.49156 80.036005 
L 207.654392 80.671696 
L 207.666728 83.324532 
L 207.796254 84.451832 
L 208.114519 85.334255 
L 208.130555 85.391146 
" clip-path="url(#pe1688b45e4)" style="fill: none; stroke: #000000; stroke-width: 2"/>
    <path d="M 98.682186 80.502261 
L 98.379958 80.522049 
L 98.157913 80.43795 
L 97.869255 80.128762 
L 97.750831 79.943867 
L 97.74343 79.810916 
L 97.752065 79.726817 
L 97.67805 79.468954 
L 97.69532 79.339095 
L 97.765634 79.255614 
L 97.956839 79.156674 
L 98.054292 79.083705 
L 98.201089 78.848722 
L 98.201089 78.623633 
L 98.13941 78.394834 
L 98.102402 78.146246 
L 98.135709 77.986705 
L 98.224527 77.830874 
L 98.357754 77.735644 
L 98.520587 77.755432 
L 98.593368 77.823454 
L 98.616806 77.90879 
L 98.63531 78.093066 
L 98.676018 78.203755 
L 98.868457 78.498721 
L 98.963443 78.696602 
L 99.146013 79.339095 
L 99.18302 80.094133 
L 99.146013 80.273462 
L 98.96591 80.410741 
L 98.682186 80.502261 
" clip-path="url(#pe1688b45e4)" style="fill: none; stroke: #000000; stroke-width: 2"/>
    <path d="M 54.231276 75.621415 
L 53.991961 75.682634 
L 53.88834 75.547828 
L 54.000596 75.335725 
L 54.280619 75.224417 
L 54.406444 75.374683 
L 54.348466 75.544118 
L 54.231276 75.621415 
" clip-path="url(#pe1688b45e4)" style="fill: none; stroke: #000000; stroke-width: 2"/>
    <path d="M 54.474292 76.571241 
L 54.359568 76.610199 
L 54.333663 76.513732 
L 54.359568 76.352336 
L 54.727176 75.428481 
L 54.933184 75.108781 
L 55.199638 74.999947 
L 55.392077 75.092703 
L 55.414281 75.293057 
L 55.395778 75.400655 
L 55.417982 75.595443 
L 55.378507 75.943589 
L 55.168798 76.138996 
L 54.877673 76.252777 
L 54.650694 76.4117 
L 54.561876 76.498891 
L 54.474292 76.571241 
" clip-path="url(#pe1688b45e4)" style="fill: none; stroke: #000000; stroke-width: 2"/>
    <path d="M 306.481617 58.280282 
L 306.5773 58.502288 
L 305.751452 58.493795 
L 304.705758 58.493795 
L 304.016046 58.493795 
L 303.493638 58.399988 
L 303.395194 58.314292 
L 302.590898 57.612435 
L 302.531686 57.426922 
L 302.645176 57.226568 
L 302.916564 57.036726 
L 303.227426 56.888934 
L 303.464274 56.817821 
L 303.745531 56.834517 
L 304.293242 57.014465 
L 304.567097 57.058988 
L 304.733631 57.135048 
L 304.87796 57.308194 
L 305.080267 57.630368 
L 305.223363 57.771976 
L 305.354123 57.852983 
L 305.503386 57.890086 
L 305.710628 57.899362 
L 306.41377 58.127542 
L 306.480383 58.277808 
L 306.481617 58.280282 
" clip-path="url(#pe1688b45e4)" style="fill: none; stroke: #000000; stroke-width: 2"/>
    <path d="M 318.319074 54.241046 
L 318.215453 54.248466 
L 318.130336 54.198996 
L 318.130336 54.150145 
L 318.111832 53.832917 
L 318.040285 53.752528 
L 317.857714 53.602881 
L 317.80097 53.521256 
L 317.749159 53.356149 
L 317.803437 53.314718 
L 317.961335 53.312244 
L 318.00081 53.312244 
L 318.220388 53.309771 
L 318.995077 53.408093 
L 319.33678 53.505178 
L 319.507014 53.719754 
L 319.447802 53.93495 
L 319.098698 54.031416 
L 318.533718 54.031416 
L 318.319074 54.241046 
" clip-path="url(#pe1688b45e4)" style="fill: none; stroke: #000000; stroke-width: 2"/>
    <path d="M 315.462097 50.825134 
L 315.72115 51.022396 
L 315.925924 50.766388 
L 316.315736 50.774427 
L 316.745023 50.927784 
L 317.075623 51.117008 
L 317.075623 51.230171 
L 316.851111 51.248103 
L 316.708016 51.348899 
L 316.642636 51.521426 
L 316.661139 51.747752 
L 316.36878 51.479376 
L 316.294765 51.437327 
L 316.21705 51.507822 
L 316.165239 51.64572 
L 316.098626 51.745278 
L 315.980202 51.695808 
L 315.747055 51.516479 
L 315.499105 51.401461 
L 315.262257 51.341478 
L 315.058716 51.323545 
L 314.999504 51.296955 
L 314.862576 51.165241 
L 314.791028 51.117008 
L 314.272924 51.022396 
L 313.237948 50.702695 
L 313.237948 50.606847 
L 314.433289 50.606847 
L 314.599823 50.560469 
L 314.704678 50.456581 
L 314.792262 50.348984 
L 314.903284 50.287146 
L 315.203045 50.339708 
L 315.339973 50.557995 
L 315.462097 50.825134 
" clip-path="url(#pe1688b45e4)" style="fill: none; stroke: #000000; stroke-width: 2"/>
    <path d="M 266.441998 41.260704 
L 266.175544 41.542065 
L 266.027514 41.535263 
L 265.728987 41.355315 
L 265.605629 41.37634 
L 265.304635 41.62802 
L 264.924691 41.853727 
L 264.950597 41.628638 
L 265.37865 40.446302 
L 265.502008 40.296655 
L 265.938696 39.895328 
L 266.175544 39.798862 
L 266.279165 40.132167 
L 266.449399 40.893388 
L 266.441998 41.260704 
" clip-path="url(#pe1688b45e4)" style="fill: none; stroke: #000000; stroke-width: 2"/>
    <path d="M 39.834135 38.836049 
L 39.966128 39.071032 
L 40.200509 39.1978 
L 40.343605 39.339408 
L 40.067282 39.861318 
L 40.000669 40.450012 
L 39.937756 40.722098 
L 39.567681 41.423955 
L 39.514637 41.694186 
L 38.695538 41.542065 
L 38.09355 41.548249 
L 38.072579 41.581641 
L 38.05901 41.618744 
L 38.013367 41.636058 
L 37.931951 41.60514 
L 37.866571 41.532171 
L 37.850534 41.461676 
L 38.05901 41.340474 
L 38.11082 41.127134 
L 38.035572 40.32881 
L 38.065178 39.617677 
L 38.031871 39.479161 
L 37.961557 39.361051 
L 37.891243 39.267676 
L 37.857936 39.198418 
L 37.891243 39.051244 
L 37.94552 38.934371 
L 37.955389 38.830484 
L 37.857936 38.722886 
L 38.049141 38.650536 
L 38.125623 38.737109 
L 38.187302 38.870678 
L 38.330398 38.9387 
L 38.451289 38.897269 
L 38.540107 38.802657 
L 38.614122 38.696915 
L 38.695538 38.627038 
L 38.984197 38.55778 
L 39.292592 38.566437 
L 39.583718 38.656102 
L 39.834135 38.836049 
" clip-path="url(#pe1688b45e4)" style="fill: none; stroke: #000000; stroke-width: 2"/>
    <path d="M 310.949653 33.220572 
L 310.854667 33.228611 
L 310.743644 33.220572 
L 310.601782 33.181614 
L 310.495694 33.109883 
L 310.469789 33.005377 
L 310.562308 32.864387 
L 310.730075 32.749369 
L 310.913879 32.697425 
L 311.313559 32.68444 
L 311.519568 32.751224 
L 311.56521 32.897779 
L 311.485027 33.043098 
L 311.313559 33.109264 
L 311.21734 33.124105 
L 310.949653 33.220572 
" clip-path="url(#pe1688b45e4)" style="fill: none; stroke: #000000; stroke-width: 2"/>
    <path d="M 32.36305 27.806262 
L 32.190906 27.878215 
L 31.947256 27.664193 
L 31.864436 27.432541 
L 31.722727 27.388496 
L 31.609404 27.087788 
L 31.898278 26.813966 
L 32.11278 26.343017 
L 32.468686 26.20131 
L 32.666603 26.017557 
L 32.709103 26.274845 
L 32.595958 26.402237 
L 32.482889 26.572356 
L 32.484451 26.756682 
L 32.458546 26.855622 
L 32.467022 27.102025 
L 32.564356 27.36211 
L 32.506673 27.591267 
L 32.36305 27.806262 
" clip-path="url(#pe1688b45e4)" style="fill: none; stroke: #000000; stroke-width: 2"/>
    <path d="M 33.113578 23.959146 
L 33.292447 24.11003 
L 33.605777 24.252875 
L 33.585431 24.378994 
L 33.694595 24.443954 
L 33.824121 24.558972 
L 33.758785 24.743411 
L 33.631246 24.952586 
L 33.786598 25.18932 
L 33.84134 25.326321 
L 33.86853 25.450671 
L 33.71441 25.533673 
L 33.495999 25.596327 
L 33.366661 25.736346 
L 33.174853 25.854999 
L 33.101847 26.073794 
L 32.855164 25.91901 
L 32.781919 25.554667 
L 32.490071 25.563592 
L 32.216834 25.66338 
L 31.981324 25.953271 
L 31.773075 26.188592 
L 31.52497 26.190566 
L 31.332234 26.382965 
L 31.146141 26.468247 
L 31.025814 26.515285 
L 30.824561 25.776978 
L 30.925733 25.512152 
L 30.878917 25.120866 
L 30.632801 25.038881 
L 30.239156 24.957601 
L 29.964242 24.978231 
L 29.833482 24.764273 
L 29.771803 24.498371 
L 29.76 23.865421 
L 30.127066 24.001508 
L 30.419735 23.87356 
L 30.914201 23.891092 
L 31.143193 24.045619 
L 31.665372 24.108565 
L 31.893801 24.062778 
L 32.140162 23.862235 
L 32.322709 23.588895 
L 32.469124 23.579637 
L 32.700328 23.57699 
L 32.62878 23.448367 
L 32.602875 23.333349 
L 32.743162 23.351782 
L 32.880431 23.412502 
L 32.998855 23.74457 
L 33.113578 23.959146 
" clip-path="url(#pe1688b45e4)" style="fill: none; stroke: #000000; stroke-width: 2"/>
    <path d="M 38.356784 20.015379 
L 38.586299 20.020091 
L 38.586299 19.990248 
L 38.953678 19.834359 
L 39.290508 19.907788 
L 39.393907 20.019306 
L 40.127882 22.012494 
L 40.424762 22.273226 
L 41.347519 22.658435 
L 42.220143 22.689456 
L 42.980751 23.165371 
L 44.96648 23.693511 
L 45.943286 22.99613 
L 46.226066 23.087622 
L 46.262099 23.553328 
L 46.530779 23.66838 
L 46.858992 23.691155 
L 47.208355 23.894164 
L 47.349354 24.185132 
L 47.494269 25.24848 
L 47.7042 25.682772 
L 47.600018 26.539576 
L 47.764516 26.892193 
L 47.913348 26.781853 
L 48.301877 26.748084 
L 48.933237 26.905544 
L 49.218367 26.832115 
L 49.616296 26.406461 
L 49.906126 26.34599 
L 50.645585 26.826617 
L 51.533875 26.743371 
L 51.675657 27.249522 
L 51.647457 27.619024 
L 51.10618 28.093761 
L 51.09208 28.444021 
L 51.725006 29.185773 
L 51.374077 31.707102 
L 50.528086 32.033802 
L 49.769828 33.643746 
L 49.878023 33.941 
L 50.423121 34.65801 
L 50.861782 34.674502 
L 51.202529 34.902643 
L 51.720306 35.61573 
L 51.894205 35.995834 
L 52.148002 36.113634 
L 52.569431 35.98052 
L 53.51412 35.329081 
L 53.83685 34.753036 
L 54.070281 33.726206 
L 54.535576 33.482359 
L 55.130903 33.37516 
L 58.400501 31.91718 
L 58.752997 31.83629 
L 59.077294 31.912468 
L 59.586455 32.596105 
L 59.907618 32.68367 
L 59.857485 33.096758 
L 60.154365 33.792175 
L 60.390146 34.051336 
L 60.855441 34.041127 
L 61.312903 33.73406 
L 61.632499 33.948064 
L 61.859663 34.295184 
L 62.182393 34.469136 
L 62.429924 34.441649 
L 62.608522 34.249634 
L 62.809053 33.834976 
L 63.344847 33.429741 
L 63.471746 33.165867 
L 64.134439 32.627125 
L 64.465002 30.766659 
L 64.838648 30.312734 
L 66.363781 29.048339 
L 66.534546 28.564178 
L 66.464635 27.377385 
L 66.562525 26.575758 
L 67.93391 27.487603 
L 68.289181 27.39732 
L 68.359496 27.220464 
L 68.229969 27.099263 
L 67.983253 27.17656 
L 68.153487 26.938485 
L 68.479153 26.950852 
L 70.579944 27.799265 
L 71.212772 28.468348 
L 73.348103 32.438326 
L 73.798361 32.798221 
L 74.948059 33.571191 
L 75.246586 33.939744 
L 75.598157 34.668191 
L 76.011408 34.852468 
L 78.727756 37.001945 
L 79.371686 37.321027 
L 79.998346 37.448412 
L 80.242595 37.611664 
L 81.030855 38.307956 
L 82.435905 39.891 
L 83.984051 42.325548 
L 84.513258 43.616718 
L 86.907641 47.762933 
L 87.055671 48.161168 
L 87.403541 48.626187 
L 87.412177 48.800569 
L 87.322125 49.594565 
L 87.471389 50.229019 
L 87.708236 52.873197 
L 87.455352 53.460036 
L 88.137523 56.229745 
L 87.893274 56.92851 
L 87.409709 57.710138 
L 87.507162 58.105899 
L 87.29622 58.332225 
L 87.049503 58.464558 
L 86.602946 59.116327 
L 86.585676 59.384702 
L 86.689297 59.860234 
L 87.251811 61.262712 
L 87.1963 61.643013 
L 86.85213 61.431528 
L 86.595545 61.871194 
L 86.378434 63.049201 
L 86.348828 63.885865 
L 86.084842 63.892667 
L 85.808519 64.349647 
L 85.76041 64.859808 
L 85.841826 65.114579 
L 86.744808 66.96167 
L 87.262913 67.451424 
L 87.618185 67.96344 
L 87.403541 68.406816 
L 87.921646 68.302929 
L 87.181497 69.874223 
L 87.101314 70.500639 
L 87.525666 72.984039 
L 87.2 76.660906 
L 87.299921 77.264441 
L 87.79212 78.344745 
L 88.497729 79.287151 
L 90.497366 81.156503 
L 91.078384 81.261009 
L 91.468196 81.528148 
L 91.614992 81.505268 
L 91.976432 81.329649 
L 92.235484 81.525056 
L 92.240418 81.797142 
L 92.950962 82.440872 
L 93.340774 83.301652 
L 93.198912 83.947237 
L 93.309934 84.229216 
L 94.559553 85.767119 
L 95.064089 86.271714 
L 95.101096 86.744772 
L 95.489674 87.56474 
L 95.307104 88.045218 
L 95.413192 88.354406 
L 96.123736 89.234356 
L 96.511081 90.187275 
L 97.480677 91.640459 
L 97.625006 92.271203 
L 97.654612 93.245147 
L 98.032088 93.747887 
L 98.309644 93.60195 
L 98.731529 94.336581 
L 98.867223 95.033492 
L 99.227429 95.653105 
L 99.338452 96.37846 
L 99.639446 96.782879 
L 99.558029 96.941183 
L 99.659183 97.146484 
L 99.767738 97.779702 
L 100.22293 99.308329 
L 100.134112 99.85621 
L 100.008287 99.994108 
L 99.97498 100.892609 
L 99.327349 100.943316 
L 99.094202 101.214165 
L 98.112271 101.121409 
L 97.380756 100.773263 
L 97.295639 100.109745 
L 96.75533 99.657093 
L 96.671446 99.099317 
L 97.078529 98.832797 
L 97.638575 98.610181 
L 98.00865 98.186594 
L 97.724926 98.121046 
L 97.20312 98.341188 
L 96.580161 98.780853 
L 95.596996 96.864504 
L 95.255294 96.629521 
L 95.167709 96.812561 
L 95.321907 97.225636 
L 95.901691 98.346753 
L 95.857282 98.970077 
L 95.959669 99.419636 
L 95.918961 99.657093 
L 95.383586 100.094904 
L 94.657006 99.914338 
L 93.340774 99.232887 
L 92.955896 99.263805 
L 92.028242 99.657093 
L 91.186939 99.626792 
L 90.941456 99.76098 
L 90.163065 100.739252 
L 89.709107 101.103476 
L 89.142893 100.937132 
L 88.917147 100.668757 
L 88.861636 100.742962 
L 88.927016 101.434307 
L 88.654394 101.836252 
L 88.439751 102.364964 
L 88.25348 102.068761 
L 87.507162 101.316816 
L 87.377636 101.014429 
L 86.605414 98.778998 
L 86.181061 98.292954 
L 85.539598 97.883589 
L 83.736101 97.198428 
L 80.557159 95.306196 
L 79.448168 94.957431 
L 78.906626 94.209196 
L 78.120834 93.623593 
L 77.648371 93.404069 
L 77.405356 93.493734 
L 76.396285 93.60195 
L 76.055817 93.413963 
L 75.855976 93.115906 
L 75.316901 92.175973 
L 73.906916 90.993019 
L 73.798361 90.800086 
L 73.947624 90.724025 
L 73.710776 90.401233 
L 72.867006 89.865719 
L 67.793281 87.696454 
L 67.378798 87.367477 
L 66.065032 86.017561 
L 65.439606 85.78196 
L 65.258269 85.546359 
L 65.284175 85.282312 
L 64.790742 85.126481 
L 64.344185 84.858105 
L 64.077731 85.034961 
L 63.596634 85.064643 
L 63.411596 85.282312 
L 63.274669 84.41844 
L 63.196953 83.99918 
L 62.471607 83.405539 
L 62.034918 82.363574 
L 61.831377 82.279475 
L 60.920993 82.096436 
L 60.505276 81.745198 
L 58.848575 81.369225 
L 58.516741 81.228235 
L 57.91722 80.800937 
L 57.566883 80.381678 
L 56.816865 79.234589 
L 56.34687 78.830171 
L 54.637124 78.365152 
L 54.896177 77.678754 
L 54.555708 77.632994 
L 54.586548 77.430166 
L 55.558611 76.301011 
L 55.947189 76.045003 
L 55.947189 75.650479 
L 55.731312 74.724151 
L 55.198404 74.189255 
L 54.807359 71.907445 
L 53.868603 70.85064 
L 53.291286 70.619985 
L 51.421175 67.959111 
L 51.162123 66.954249 
L 50.910472 66.628365 
L 49.204427 65.494262 
L 48.5753 64.586486 
L 48.319949 64.409011 
L 47.611872 64.286573 
L 47.450273 64.127032 
L 47.465076 63.865458 
L 47.624208 63.511129 
L 47.952341 63.143813 
L 47.77964 63.096198 
L 47.202323 63.256976 
L 47.034556 63.324997 
L 46.273435 63.019519 
L 45.892258 62.660861 
L 45.759032 62.141425 
L 45.844149 61.132853 
L 46.032887 61.022163 
L 47.28744 61.018453 
L 47.527989 60.719159 
L 48.097904 60.546632 
L 48.347087 60.59672 
L 48.19659 60.270217 
L 47.842552 60.306083 
L 47.313345 60.59672 
L 46.924767 60.558381 
L 46.854453 60.320924 
L 46.901329 59.568978 
L 46.747131 59.366151 
L 45.074393 58.30749 
L 44.726523 58.52083 
L 44.430463 57.716322 
L 44.367551 57.25996 
L 44.46377 57.058988 
L 44.236791 56.984783 
L 43.923461 56.153685 
L 43.708817 56.033101 
L 44.059155 54.618256 
L 44.349047 54.406152 
L 44.456368 53.77479 
L 44.922663 52.372312 
L 44.690749 52.465068 
L 44.419361 52.3921 
L 44.192382 52.191746 
L 44.096162 51.904819 
L 44.289835 51.317362 
L 44.489675 51.183792 
L 44.726523 51.323545 
L 45.083028 50.796689 
L 45.235993 50.702695 
L 44.874553 50.635911 
L 44.296003 50.764533 
L 44.199783 50.343419 
L 44.149206 49.590854 
L 44.291068 49.393592 
L 44.726523 49.362055 
L 44.638939 49.233433 
L 44.41566 49.145623 
L 44.495843 48.833343 
L 43.948132 48.757283 
L 43.87165 48.736876 
L 43.770497 48.313288 
L 43.890154 47.900213 
L 43.321473 47.661519 
L 42.798434 47.692438 
L 42.6319 47.627509 
L 42.86258 47.378921 
L 42.948931 47.372119 
L 42.883551 47.100652 
L 42.272927 46.866906 
L 42.017576 47.070351 
L 41.743721 46.657276 
L 41.603092 46.230596 
L 41.229317 45.80268 
L 40.908585 44.966634 
L 40.663102 44.405149 
L 40.738351 44.269106 
L 40.877746 44.249318 
L 41.337872 43.761419 
L 41.447661 43.260534 
L 41.70548 42.477051 
L 41.522909 41.725105 
L 41.70548 41.278637 
L 41.656136 41.08323 
L 40.877746 39.405574 
L 40.972732 38.098945 
L 40.874045 37.741523 
L 40.455861 36.807774 
L 40.35224 35.515367 
L 40.841972 35.60565 
L 40.994936 35.36572 
L 40.663102 35.138158 
L 40.833337 33.36218 
L 40.300429 30.034078 
L 39.897048 29.415701 
L 39.626893 28.733013 
L 39.079183 27.739901 
L 38.895379 27.133892 
L 37.783921 26.067192 
L 37.221407 24.706145 
L 37.06721 23.76745 
L 37.325929 23.200711 
L 37.382328 22.689456 
L 37.346295 22.289718 
L 37.641609 21.669694 
L 37.503744 21.057915 
L 37.764591 19.799018 
L 37.980788 19.729909 
L 38.356784 20.015379 
L 38.356784 20.015379 
" clip-path="url(#pe1688b45e4)" style="fill: none; stroke: #000000; stroke-width: 2"/>
    <path d="M 299.543949 20.827688 
L 299.078889 20.840055 
L 298.613828 20.772652 
L 298.227717 20.642793 
L 298.087088 20.535196 
L 298.034044 20.405336 
L 298.072285 20.271767 
L 298.209213 20.160459 
L 298.369579 20.108516 
L 299.138101 20.074505 
L 299.378649 20.012667 
L 299.556285 19.872914 
L 299.622899 19.620617 
L 299.487204 19.487047 
L 298.945662 19.458602 
L 298.890151 19.253301 
L 299.067786 19.070261 
L 299.687045 18.988636 
L 299.933761 18.837752 
L 300.314938 19.312665 
L 300.57029 19.785723 
L 300.507377 20.253834 
L 299.933761 20.715143 
L 299.543949 20.827688 
" clip-path="url(#pe1688b45e4)" style="fill: none; stroke: #000000; stroke-width: 2"/>
    <path d="M 290.374731 15.867071 
L 290.581973 16.960361 
L 290.137883 16.748876 
L 290.063868 16.810095 
L 289.960247 17.37591 
L 290.374731 17.610893 
L 290.590608 17.745699 
L 290.685594 18.059834 
L 290.625148 18.657804 
L 290.462315 19.056657 
L 289.686392 20.310725 
L 289.470515 20.967441 
L 289.553165 21.498008 
L 290.167489 21.648273 
L 290.485753 21.491824 
L 291.26291 20.731221 
L 292.528566 19.541464 
L 292.661793 18.951533 
L 292.867801 18.837752 
L 293.075043 18.42344 
L 293.705404 17.639338 
L 293.612885 17.325203 
L 293.272416 16.65983 
L 293.29092 16.338274 
L 293.533936 16.145959 
L 293.860835 16.234387 
L 294.090281 16.074845 
L 294.071778 15.914068 
L 293.957054 15.842336 
L 293.957054 15.509649 
L 294.016266 15.403907 
L 294.356735 15.419366 
L 294.645393 15.507794 
L 295.223944 15.31115 
L 295.78399 15.567777 
L 296.716578 16.234387 
L 296.728914 16.494723 
L 296.566081 17.37591 
L 296.356372 17.488454 
L 296.319365 18.064781 
L 296.405716 18.319552 
L 297.036076 19.308955 
L 297.139697 20.498093 
L 297.313632 20.81903 
L 297.511005 20.932812 
L 298.357243 20.988466 
L 299.77833 22.16771 
L 300.02628 22.108345 
L 300.192814 21.941384 
L 300.792335 21.05154 
L 300.91816 21.050922 
L 301.040285 21.711348 
L 301.391856 22.063822 
L 301.293169 22.112056 
L 301.343746 22.308081 
L 301.599098 22.38476 
L 301.972873 22.666739 
L 302.169013 22.695185 
L 302.542788 22.560379 
L 302.690818 22.638913 
L 303.216324 23.299339 
L 303.471676 23.629552 
L 303.601202 23.440947 
L 303.780071 23.525664 
L 303.867656 23.746425 
L 303.935503 24.195366 
L 304.10327 24.563919 
L 303.871357 24.981941 
L 304.026788 25.387596 
L 303.787473 26.619402 
L 303.560494 26.645993 
L 303.057192 26.553236 
L 302.50208 26.832124 
L 301.928464 27.482656 
L 302.008647 27.725678 
L 302.334313 28.110927 
L 302.579796 28.703331 
L 302.84995 28.883897 
L 302.84995 29.458987 
L 302.428065 29.883194 
L 302.527985 30.133018 
L 302.958506 30.285139 
L 303.057192 30.656783 
L 302.968374 30.904752 
L 302.751264 31.116855 
L 302.220823 31.439648 
L 300.298902 32.089561 
L 299.933761 32.486559 
L 300.202682 32.437707 
L 301.458469 31.964649 
L 302.531686 31.959084 
L 303.545691 31.832317 
L 304.56463 31.886734 
L 304.655915 31.713588 
L 304.525155 31.33576 
L 304.84342 31.248569 
L 305.240633 31.33576 
L 306.228733 31.178074 
L 306.471748 30.884964 
L 308.026062 29.507221 
L 308.241939 29.562256 
L 308.793351 30.241234 
L 308.800752 30.544857 
L 309.062271 30.6809 
L 309.156024 31.528694 
L 309.883837 32.557054 
L 309.215236 33.294777 
L 308.523196 33.410414 
L 308.241939 33.307763 
L 307.986588 33.391862 
L 306.791246 33.391244 
L 306.598807 33.761651 
L 306.804816 33.958295 
L 307.384599 35.243282 
L 307.540031 35.222257 
L 307.956982 35.109712 
L 308.815555 34.769605 
L 309.041301 34.926673 
L 309.299119 34.951408 
L 309.602581 34.856796 
L 309.751844 34.925436 
L 310.018298 35.205561 
L 310.283518 34.969959 
L 310.384672 34.303349 
L 310.5216 34.069603 
L 310.424147 33.628701 
L 310.658527 33.44999 
L 311.335764 33.383205 
L 311.96119 33.104936 
L 312.286856 33.17543 
L 313.226846 33.55264 
L 313.522906 33.318894 
L 314.211245 33.587269 
L 316.294765 34.925436 
L 317.075623 35.515367 
L 316.909089 35.752824 
L 316.754892 35.864132 
L 316.457598 37.375444 
L 316.661139 37.69329 
L 317.127434 36.283391 
L 317.52218 36.011305 
L 317.855247 36.014397 
L 318.146373 36.217843 
L 319.151742 37.360603 
L 320.113937 37.751417 
L 320.310076 38.051948 
L 320.406296 38.4205 
L 320.609837 38.159545 
L 320.603669 38.004951 
L 321.597936 38.627038 
L 321.913733 38.771738 
L 322.170319 39.090821 
L 322.227063 39.412376 
L 321.958142 39.561405 
L 322.36029 39.780929 
L 322.78711 39.674568 
L 322.830285 39.468649 
L 322.703226 39.177393 
L 322.900599 39.052481 
L 323.270674 39.062375 
L 323.988619 39.440822 
L 324.443811 39.457518 
L 325.62805 38.893558 
L 326.014162 38.836049 
L 326.249776 38.948594 
L 327.302022 40.197715 
L 327.326693 40.77837 
L 327.152758 41.542065 
L 327.193466 42.630408 
L 326.845596 42.930321 
L 326.109147 43.731118 
L 325.508393 44.072462 
L 322.737767 45.079179 
L 319.910396 45.898528 
L 319.011114 46.386427 
L 318.316607 46.532364 
L 316.478569 46.181126 
L 315.702646 46.733955 
L 315.55585 46.727771 
L 315.273359 46.47671 
L 314.999504 46.009217 
L 314.480166 45.400735 
L 313.689439 45.061864 
L 312.378141 45.823704 
L 312.401579 46.022822 
L 311.816861 45.881832 
L 311.275318 46.205861 
L 310.010896 47.635548 
L 310.093546 47.884135 
L 310.195934 47.916909 
L 310.77325 48.393677 
L 310.942251 48.833343 
L 311.721875 49.883346 
L 313.041808 50.981583 
L 313.826367 51.207909 
L 314.111324 51.67602 
L 314.480166 51.851639 
L 314.517173 51.593776 
L 314.725649 51.538122 
L 315.212914 51.747752 
L 315.406586 52.143513 
L 315.101891 52.71984 
L 315.639733 53.248552 
L 316.522978 52.870723 
L 317.075623 52.993162 
L 316.990506 53.200937 
L 317.166908 53.484153 
L 317.775064 54.245993 
L 317.479005 54.510658 
L 316.962134 54.361629 
L 317.042316 54.617637 
L 316.820272 55.038752 
L 316.427992 55.359071 
L 316.214583 55.412251 
L 315.362177 55.419672 
L 314.583787 55.606421 
L 313.578417 55.555714 
L 313.341569 55.389371 
L 313.027005 55.731333 
L 311.655262 56.116582 
L 310.06394 56.344763 
L 308.055668 57.363229 
L 307.723835 57.37065 
L 306.353324 56.97798 
L 305.428138 56.253243 
L 305.240633 56.164197 
L 305.080267 55.814196 
L 304.875493 55.793789 
L 303.553092 55.261367 
L 303.001681 54.409244 
L 302.772235 54.436453 
L 302.144341 54.910129 
L 302.011114 55.077709 
L 302.069093 55.209424 
L 302.428065 55.549531 
L 302.483576 56.339198 
L 302.713023 56.554393 
L 302.66738 56.92109 
L 301.964238 57.817736 
L 302.334313 58.201129 
L 302.050589 58.205458 
L 301.425163 58.457137 
L 301.047125 58.241717 
L 300.382866 58.260172 
L 299.444442 58.062659 
L 299.087246 57.842765 
L 298.233422 56.939626 
L 296.445875 55.915937 
L 296.120012 55.512274 
L 295.71425 55.518556 
L 295.324154 55.820519 
L 292.533951 55.8751 
L 291.680126 55.641069 
L 291.055033 55.641854 
L 289.864379 55.867246 
L 289.283152 55.738058 
L 288.726992 55.344604 
L 288.457528 55.309264 
L 287.978133 55.71764 
L 287.398473 55.809524 
L 287.000544 55.65442 
L 286.414617 55.837796 
L 285.753491 54.874972 
L 285.585859 54.853375 
L 285.48246 55.04539 
L 285.043798 55.582169 
L 285.035965 56.067115 
L 284.59887 56.069471 
L 284.435938 56.06201 
L 283.904844 56.496695 
L 283.597781 56.405203 
L 282.99462 55.444342 
L 282.786256 55.454551 
L 282.378927 55.05717 
L 281.991965 55.132955 
L 281.138141 55.471436 
L 279.739122 55.214238 
L 279.576191 55.125102 
L 279.336493 55.638713 
L 277.982908 56.767244 
L 277.730677 56.678501 
L 277.478447 56.25167 
L 277.324915 55.889236 
L 276.775021 55.6501 
L 275.833465 55.531907 
L 275.488802 54.944867 
L 275.30707 54.968427 
L 275.108106 55.16751 
L 274.959274 55.650493 
L 274.902875 56.608213 
L 274.265248 57.295384 
L 274.194749 57.454808 
L 273.984818 57.507033 
L 273.616655 57.245515 
L 272.199808 58.665405 
L 272.111105 58.929673 
L 271.750775 60.930322 
L 271.31838 61.690137 
L 270.679187 62.089874 
L 270.671354 62.436208 
L 271.434312 63.047594 
L 271.445279 63.55021 
L 270.766919 65.914078 
L 270.826452 66.882008 
L 271.219681 67.956743 
L 271.244748 68.608574 
L 271.616044 69.375456 
L 271.537711 69.68488 
L 271.243181 69.706869 
L 270.958051 69.614985 
L 270.633754 69.94679 
L 270.358024 70.652809 
L 269.841029 73.2083 
L 270.080727 73.500445 
L 270.348624 73.690497 
L 269.726664 74.666673 
L 269.546499 75.61222 
L 269.302102 75.715099 
L 268.678575 75.784209 
L 267.688453 76.21536 
L 267.210625 76.294679 
L 266.776663 76.087349 
L 266.3897 75.510911 
L 266.181336 75.448084 
L 265.488877 76.572688 
L 264.373422 77.403576 
L 264.069492 78.056978 
L 263.894027 78.38839 
L 263.525864 78.691531 
L 263.601064 78.895719 
L 264.097692 79.705403 
L 263.765562 80.190742 
L 263.469465 80.28027 
L 263.389566 80.61718 
L 263.601064 81.067964 
L 263.367633 82.028433 
L 263.594797 82.24126 
L 263.762429 82.245186 
L 264.254357 82.039428 
L 264.815217 82.204349 
L 265.194346 82.552254 
L 265.600109 83.260629 
L 265.636142 83.529214 
L 265.432477 83.822931 
L 265.116014 83.932878 
L 264.429821 83.99492 
L 264.103958 84.200679 
L 263.300267 84.986017 
L 263.038636 85.101461 
L 262.10178 85.845177 
L 261.518986 85.796486 
L 261.332555 85.899365 
L 261.227589 86.231563 
L 261.197823 86.961142 
L 260.790494 87.09622 
L 259.617073 87.255644 
L 259.158045 87.521088 
L 258.926181 88.115589 
L 258.767949 89.229199 
L 259.02958 89.757339 
L 259.02958 90.39307 
L 259.186245 90.72998 
L 259.36171 90.748829 
L 259.95547 90.597651 
L 260.102735 90.696996 
L 260.163834 91.129718 
L 259.989936 92.473039 
L 259.96487 92.759294 
L 259.769038 92.945027 
L 258.919914 93.273298 
L 257.951725 93.435078 
L 257.572596 93.832459 
L 257.549096 94.103401 
L 257.644661 94.403007 
L 257.661895 94.875388 
L 257.494263 95.928134 
L 257.2107 96.726823 
L 256.595006 97.635852 
L 255.890014 98.323416 
L 255.866514 99.636108 
L 255.623683 99.865035 
L 255.269621 99.949066 
L 254.942191 99.848542 
L 253.389641 98.822498 
L 253.035578 98.771058 
L 252.745748 98.846844 
L 249.78478 100.019353 
L 249.338285 99.572889 
L 248.782124 99.398151 
L 248.171131 99.407575 
L 245.703657 99.865035 
L 245.355861 100.160714 
L 244.445638 101.312413 
L 242.04083 102.93021 
L 241.666401 103.016597 
L 241.237139 102.802985 
L 240.474181 101.891992 
L 240.145184 101.709794 
L 239.505991 101.783616 
L 238.909098 102.031783 
L 238.221338 102.008222 
L 237.101184 101.134926 
L 236.378958 100.869089 
L 234.599244 100.576158 
L 234.10105 100.188987 
L 233.544889 99.920008 
L 232.962095 99.867391 
L 231.517644 100.038202 
L 231.606943 99.873673 
L 232.305669 99.282706 
L 232.564166 98.65797 
L 232.550066 98.313992 
L 232.409068 98.104699 
L 231.788675 97.814909 
L 231.528611 97.777213 
L 230.499322 97.738731 
L 229.996427 97.61936 
L 229.567165 97.855354 
L 229.368201 98.126688 
L 229.084637 98.202081 
L 228.691408 98.082709 
L 223.795628 97.933102 
L 222.811772 98.607315 
L 221.511452 98.818571 
L 219.485774 99.871317 
L 219.448175 100.384143 
L 219.792838 100.395923 
L 219.886837 100.526682 
L 219.825737 100.866733 
L 219.351043 101.820527 
L 218.445519 104.299839 
L 217.856459 104.444342 
L 216.632905 104.438059 
L 215.674116 104.741985 
L 214.354997 106.346431 
L 213.44164 106.581247 
L 211.317263 106.015018 
L 210.04671 106.509781 
L 209.506216 107.106638 
L 209.034654 106.137531 
L 208.768324 106.131248 
L 207.873767 106.379415 
L 207.211074 106.26397 
L 204.873633 105.331774 
L 201.475569 106.205855 
L 200.065585 106.315017 
L 199.645722 106.517635 
L 198.6509 107.475747 
L 198.6039 107.870772 
L 198.411202 107.928102 
L 198.215371 107.774176 
L 197.645111 108.034908 
L 197.394447 107.973652 
L 196.539056 108.391451 
L 196.018928 108.08674 
L 195.116538 108.733859 
L 194.395879 108.643545 
L 193.697153 108.302708 
L 193.126893 107.851139 
L 192.240169 106.757948 
L 192.050605 106.6802 
L 191.060482 106.545907 
L 190.714252 106.561613 
L 190.609287 105.881511 
L 189.026971 103.680993 
L 187.850417 103.456386 
L 187.505754 103.200366 
L 187.186157 102.621572 
L 186.90416 102.363981 
L 186.170968 101.937542 
L 185.989237 101.617124 
L 185.511409 100.475635 
L 185.235678 100.338593 
L 184.337988 100.346447 
L 184.074791 100.129301 
L 183.697228 99.381659 
L 183.318099 99.515559 
L 183.178667 98.930089 
L 181.536818 97.399465 
L 181.289288 96.792006 
L 181.272055 96.095018 
L 181.290854 94.606017 
L 181.021391 94.503138 
L 180.1566 94.430494 
L 179.84797 94.099474 
L 179.661539 93.611386 
L 179.667805 93.498298 
L 179.586339 92.719242 
L 179.716371 92.528405 
L 180.430764 91.871862 
L 181.060557 90.826577 
L 181.343312 90.012892 
L 181.34578 90.022786 
L 181.598664 91.236041 
L 181.566591 91.778976 
L 181.485174 92.235338 
L 181.620868 92.57359 
L 182.346215 93.489405 
L 182.65461 93.715731 
L 183.589666 94.112729 
L 184.127508 94.467677 
L 185.003351 94.922184 
L 185.837253 96.001251 
L 186.768608 95.954254 
L 186.999288 95.834289 
L 187.327421 95.794713 
L 189.462752 95.856551 
L 189.929046 96.110085 
L 190.661794 95.797187 
L 191.128088 96.232524 
L 191.28352 95.385348 
L 191.28352 94.762024 
L 191.469791 94.429338 
L 191.712806 94.278454 
L 191.920048 94.355132 
L 192.343167 95.682168 
L 192.634293 95.851604 
L 193.104287 95.902311 
L 193.258485 95.838618 
L 193.444756 95.552928 
L 194.42052 95.215294 
L 194.614192 95.487998 
L 194.294695 95.934466 
L 194.134329 96.592419 
L 193.777823 97.044452 
L 194.395848 96.855229 
L 194.758522 97.111237 
L 194.849807 97.404347 
L 195.158202 97.43774 
L 195.649168 97.261502 
L 195.853943 97.333852 
L 196.475668 97.675814 
L 197.73639 98.155675 
L 197.926361 98.516807 
L 197.837543 98.89649 
L 197.567389 99.171049 
L 196.99624 99.657093 
L 197.711718 99.589072 
L 198.292735 99.185272 
L 198.444466 98.897727 
L 198.340845 98.091364 
L 198.74546 97.775991 
L 199.447368 97.873695 
L 200.738929 98.402407 
L 201.392728 98.827232 
L 202.544894 99.986688 
L 203.127145 100.37441 
L 204.221333 100.892609 
L 204.585239 100.840047 
L 205.405572 100.478297 
L 205.897771 100.673086 
L 206.445482 101.125737 
L 207.041302 101.409572 
L 207.692634 101.100384 
L 207.440983 101.089253 
L 206.745242 100.797379 
L 206.497292 100.280416 
L 205.435178 100.123349 
L 204.887467 100.37441 
L 204.273143 100.302678 
L 202.611507 99.232887 
L 202.337652 98.506913 
L 201.98238 98.03942 
L 201.98238 97.469277 
L 202.452375 96.187382 
L 203.660052 96.006198 
L 203.956112 96.110085 
L 204.598809 96.94613 
L 205.139118 96.751342 
L 205.604178 97.032703 
L 205.932311 96.941183 
L 205.483287 96.782879 
L 205.079906 96.559026 
L 204.548232 96.493479 
L 204.498889 96.454521 
L 204.484086 96.270863 
L 204.221333 95.897982 
L 203.790812 95.736586 
L 203.363993 94.931459 
L 203.407168 94.617324 
L 203.852491 94.440468 
L 203.82782 94.353896 
L 203.544096 94.083047 
L 203.721732 93.498063 
L 204.059733 92.978626 
L 204.535896 91.989224 
L 205.081139 90.154501 
L 205.938479 90.251586 
L 205.544966 89.918899 
L 205.517828 89.555294 
L 205.727537 89.361123 
L 206.297452 89.490364 
L 206.978389 89.573845 
L 207.281851 89.331441 
L 207.607516 88.818807 
L 207.466888 88.694514 
L 207.136288 88.910945 
L 207.011696 89.29001 
L 206.708235 89.25971 
L 206.293751 88.992571 
L 205.979187 88.940627 
L 204.678992 89.07296 
L 204.598809 88.908472 
L 204.680225 88.317922 
L 204.910905 88.073045 
L 205.213133 87.928345 
L 205.517828 87.989564 
L 205.357462 87.702638 
L 204.680225 87.423131 
L 204.70613 87.148572 
L 204.887467 86.43311 
L 205.039198 85.368266 
L 205.227936 84.954572 
L 205.612814 84.650331 
L 205.739873 84.906339 
L 205.938479 85.028777 
L 206.623118 85.338584 
L 207.311457 86.037968 
L 207.545837 86.065176 
L 208.162628 85.696624 
L 208.784354 85.64468 
L 209.35797 86.017561 
L 209.232144 85.743621 
L 208.308191 84.785137 
L 208.010898 83.92312 
L 209.265451 84.075241 
L 209.647862 83.857572 
L 209.694738 83.869321 
L 209.779855 83.82047 
L 208.441418 83.242288 
L 208.203337 82.84158 
L 208.209505 82.470554 
L 208.818894 80.554205 
L 209.909381 79.717541 
L 212.028676 78.465329 
L 214.923894 77.895186 
L 217.241795 77.814178 
L 225.74858 75.565143 
L 228.061547 75.076007 
L 229.171771 74.712401 
L 232.313706 73.62344 
L 233.122936 72.757713 
L 233.442434 72.178294 
L 233.246294 71.840661 
L 233.361017 71.707091 
L 233.761931 71.435624 
L 234.714257 70.56495 
L 235.220026 69.766007 
L 236.403032 68.722188 
L 236.759537 68.060525 
L 236.865625 67.580665 
L 237.403467 67.046387 
L 238.128813 66.227657 
L 238.607443 65.271647 
L 238.777678 64.634719 
L 239.063869 64.397881 
L 239.690529 64.039841 
L 243.364137 60.863859 
L 246.54678 56.721973 
L 246.865044 55.987341 
L 246.756489 55.389371 
L 247.079688 54.884776 
L 247.235119 54.241046 
L 247.230185 53.521256 
L 246.889716 52.091569 
L 246.987169 51.845455 
L 247.335039 51.747752 
L 248.326229 52.220528 
L 249.156553 52.348146 
L 249.47615 52.51503 
L 249.971211 52.901417 
L 250.522672 53.160971 
L 250.732603 53.5183 
L 251.075699 53.566991 
L 251.334196 54.06411 
L 251.540994 54.656648 
L 251.540994 55.080338 
L 251.747792 55.39251 
L 251.801058 56.217115 
L 251.540994 56.491198 
L 251.638126 56.857558 
L 253.718637 56.930202 
L 253.909769 57.130856 
L 254.373497 58.388967 
L 254.589695 58.680328 
L 256.057645 60.06056 
L 256.245643 60.557679 
L 256.86917 60.62993 
L 257.583562 60.213701 
L 259.093812 58.657553 
L 259.284944 57.734388 
L 259.740839 56.93727 
L 259.689139 56.672218 
L 259.216011 56.865019 
L 259.29591 56.413057 
L 259.919437 55.709001 
L 260.171667 54.878898 
L 260.206134 54.443821 
L 260.093335 54.369606 
L 259.869304 54.406517 
L 259.571641 54.298141 
L 259.30061 53.874451 
L 259.209745 53.318431 
L 259.084413 51.205479 
L 258.99668 50.891344 
L 258.590918 50.048676 
L 258.618881 49.780569 
L 258.74915 49.659933 
L 259.562241 49.264123 
L 260.325199 48.624465 
L 260.942459 48.545931 
L 261.487653 48.586769 
L 261.728917 48.437947 
L 261.840149 47.951823 
L 261.888716 47.718184 
L 262.751119 46.95657 
L 262.85474 47.268232 
L 263.049603 51.442258 
L 263.721696 53.224583 
L 264.024059 54.937799 
L 264.22459 55.072484 
L 265.404277 55.461619 
L 265.983938 55.461619 
L 266.378734 55.727849 
L 266.803296 55.765545 
L 267.428389 56.102455 
L 267.760519 56.115021 
L 267.97985 55.8751 
L 267.94225 55.560179 
L 267.722919 55.235049 
L 266.840895 54.26712 
L 266.641931 53.66987 
L 266.565165 52.430606 
L 266.710863 51.566734 
L 266.645064 51.206264 
L 265.654941 48.336638 
L 265.078414 47.662033 
L 264.736885 47.424468 
L 264.727318 47.076535 
L 265.21335 47.053037 
L 265.383584 46.940492 
L 265.52668 46.43466 
L 265.704315 46.298618 
L 265.912791 46.319642 
L 266.208851 46.66717 
L 266.836744 46.731481 
L 266.956402 46.814962 
L 267.119235 47.112401 
L 267.700252 47.208868 
L 268.124604 47.040669 
L 269.972511 45.19296 
L 270.572032 45.008066 
L 270.954442 44.664867 
L 271.045727 44.422463 
L 271.367693 42.796751 
L 271.685957 42.462828 
L 271.586037 42.259382 
L 271.012421 42.527757 
L 270.451141 42.512916 
L 269.935503 42.297721 
L 268.546489 40.985526 
L 268.571161 40.7592 
L 268.344182 40.756109 
L 268.048122 41.013972 
L 267.963005 40.828459 
L 268.307174 39.679515 
L 268.640242 39.244178 
L 269.429734 38.781632 
L 269.780072 38.244263 
L 270.850821 37.476858 
L 271.382496 36.322349 
L 271.679789 36.023673 
L 271.891965 36.372437 
L 271.368926 37.350709 
L 271.679789 37.787901 
L 271.758738 37.630215 
L 271.896899 37.05327 
L 272.729568 37.641346 
L 274.505926 37.709367 
L 274.906841 37.580745 
L 275.375602 37.175708 
L 275.765414 36.577738 
L 276.252679 35.297699 
L 276.45622 34.33736 
L 276.841098 33.91068 
L 278.202973 33.149459 
L 278.439821 32.88603 
L 278.539741 32.538503 
L 278.676669 31.542916 
L 279.605556 30.036551 
L 279.820199 29.378599 
L 279.583352 28.930894 
L 279.242883 29.049622 
L 279.124459 28.851742 
L 279.27619 28.567288 
L 280.005237 28.25068 
L 281.045147 26.884068 
L 281.492937 26.751735 
L 282.088758 26.953944 
L 282.170174 26.803679 
L 282.107261 26.297847 
L 281.922224 26.255797 
L 281.632332 26.39555 
L 281.248688 26.44131 
L 281.248688 26.34608 
L 281.661938 26.129648 
L 282.073955 25.799435 
L 282.520511 25.726467 
L 282.550117 25.590424 
L 282.799301 24.883619 
L 282.939929 24.720368 
L 285.297306 22.96356 
L 285.562526 21.845535 
L 286.030054 21.547478 
L 287.44744 19.593408 
L 287.539958 18.416019 
L 287.787909 18.007891 
L 287.813814 17.16999 
L 288.2431 16.967781 
L 288.368926 16.730325 
L 288.739001 15.559119 
L 289.27931 14.910442 
L 289.501355 14.94569 
L 289.65802 15.290744 
L 290.374731 15.867071 
L 290.374731 15.867071 
" clip-path="url(#pe1688b45e4)" style="fill: none; stroke: #000000; stroke-width: 2"/>
    <path d="M 293.172496 10.446382 
L 293.136722 10.814935 
L 292.980057 11.036932 
L 292.700034 10.775358 
L 292.475522 10.881101 
L 292.395339 11.167409 
L 292.558172 11.441968 
L 291.107479 11.805574 
L 291.177793 11.949656 
L 291.308553 12.030663 
L 291.389969 12.116617 
L 291.314721 12.281724 
L 291.175326 12.348508 
L 290.960683 12.365823 
L 290.741105 12.341088 
L 290.581973 12.281724 
L 291.314721 10.923769 
L 291.530598 10.824829 
L 292.040067 10.703627 
L 292.247309 10.612107 
L 292.867801 9.886133 
L 293.083678 10.08525 
L 293.172496 10.446382 
" clip-path="url(#pe1688b45e4)" style="fill: none; stroke: #000000; stroke-width: 2"/>
    <path d="M 296.805396 12.22236 
L 296.573483 12.50805 
L 296.31073 12.376335 
L 296.025772 12.489498 
L 295.144994 12.661407 
L 294.956256 12.744269 
L 294.871139 12.830842 
L 294.466524 13.018829 
L 294.327129 13.111585 
L 294.223508 13.285967 
L 294.160595 13.456639 
L 294.076712 13.609997 
L 293.912645 13.73429 
L 293.800389 13.366975 
L 293.683199 12.208755 
L 293.757214 11.961405 
L 293.816426 11.851334 
L 293.800389 11.177303 
L 293.854667 11.036313 
L 293.938551 10.960871 
L 294.177866 10.879246 
L 294.327129 10.795765 
L 294.691036 10.428449 
L 295.030271 10.192848 
L 295.219009 10.113696 
L 295.42255 10.084014 
L 296.561147 9.884896 
L 296.921353 9.99002 
L 297.101456 10.241081 
L 297.121193 10.599121 
L 296.973163 11.767234 
L 296.805396 12.22236 
" clip-path="url(#pe1688b45e4)" style="fill: none; stroke: #000000; stroke-width: 2"/>
   </g>
  </g>
 </g>
 <defs>
  <clipPath id="pe1688b45e4">
   <rect x="0" y="0" width="357.12" height="118.618755"/>
  </clipPath>
 </defs>
</svg>
