<?xml version="1.0" encoding="utf-8" standalone="no"?>
<!DOCTYPE svg PUBLIC "-//W3C//DTD SVG 1.1//EN"
  "http://www.w3.org/Graphics/SVG/1.1/DTD/svg11.dtd">
<svg xmlns:xlink="http://www.w3.org/1999/xlink" width="276.33792pt" height="266.112pt" viewBox="0 0 276.33792 266.112" xmlns="http://www.w3.org/2000/svg" version="1.1">
 <metadata>
  <rdf:RDF xmlns:dc="http://purl.org/dc/elements/1.1/" xmlns:cc="http://creativecommons.org/ns#" xmlns:rdf="http://www.w3.org/1999/02/22-rdf-syntax-ns#">
   <cc:Work>
    <dc:type rdf:resource="http://purl.org/dc/dcmitype/StillImage"/>
    <dc:date>2024-02-02T21:58:03.841924</dc:date>
    <dc:format>image/svg+xml</dc:format>
    <dc:creator>
     <cc:Agent>
      <dc:title>Matplotlib v3.8.2, https://matplotlib.org/</dc:title>
     </cc:Agent>
    </dc:creator>
   </cc:Work>
  </rdf:RDF>
 </metadata>
 <defs>
  <style type="text/css">*{stroke-linejoin: round; stroke-linecap: butt}</style>
 </defs>
 <g id="figure_1">
  <g id="patch_1">
   <path d="M 0 266.112 
L 276.33792 266.112 
L 276.33792 0 
L 0 0 
L 0 266.112 
z
" style="fill: none"/>
  </g>
  <g id="axes_1">
   <g id="PatchCollection_1">
    <path d="M 47.979108 22.418397 
L 48.204067 22.292427 
L 48.624108 22.672246 
L 49.207596 22.740957 
L 49.383345 22.672246 
L 49.383345 22.809668 
L 50.079313 22.529098 
L 50.302515 22.616896 
L 51.019572 22.418397 
L 51.330649 22.532915 
L 52.234 23.061609 
L 52.993238 23.26965 
L 53.246317 23.523499 
L 53.469519 24.252599 
L 53.863197 24.802287 
L 53.69975 25.33098 
L 55.147925 26.170782 
L 56.63828 27.44957 
L 60.085605 29.526169 
L 61.113739 30.820226 
L 61.720074 30.860308 
L 62.14363 30.636997 
L 63.015347 30.810683 
L 63.493385 30.902298 
L 64.062813 30.636997 
L 64.815021 30.766784 
L 65.191124 30.705708 
L 65.366874 30.245726 
L 75.453131 30.251452 
L 137.571754 30.280081 
L 137.657872 30.564469 
L 137.879316 30.73052 
L 138.237845 31.658119 
L 138.643826 31.784089 
L 139.508513 33.29764 
L 140.450529 34.200426 
L 140.628036 34.694764 
L 140.789726 34.862724 
L 141.267764 35.141385 
L 142.816116 36.88779 
L 143.476934 37.051933 
L 144.993651 37.840201 
L 147.213366 38.265827 
L 148.650996 38.189482 
L 149.598285 37.870739 
L 151.057005 37.927998 
L 151.325902 38.111227 
L 154.02717 38.951029 
L 156.94461 38.910947 
L 158.301395 38.641829 
L 158.651137 38.735352 
L 158.958698 39.20106 
L 159.705633 39.498808 
L 160.058889 39.424371 
L 160.364693 39.004471 
L 163.051901 39.004471 
L 163.689872 39.382381 
L 164.450867 39.624778 
L 166.746154 39.296492 
L 167.152135 39.185791 
L 167.607326 39.208695 
L 168.008034 39.382381 
L 168.598552 38.867049 
L 168.781332 38.99111 
L 169.781346 38.941485 
L 170.445678 39.521712 
L 170.885052 39.407193 
L 171.308608 39.598057 
L 172.192627 40.47794 
L 173.269971 41.161233 
L 173.484385 41.273842 
L 173.913214 41.155507 
L 175.197942 41.182228 
L 176.154019 41.667022 
L 176.408855 41.426533 
L 176.697084 41.508605 
L 177.210272 41.779632 
L 177.577589 42.127004 
L 178.015205 42.088831 
L 179.078489 41.779632 
L 179.313993 41.29102 
L 182.456392 40.403503 
L 182.734076 40.531382 
L 183.862387 40.313797 
L 184.830766 40.336701 
L 185.602306 40.781413 
L 187.076843 41.399813 
L 187.45119 41.813987 
L 187.769296 41.718555 
L 227.126615 33.757622 
L 235.947477 31.910059 
L 237.351715 32.10474 
L 237.488799 32.037938 
L 238.501116 31.784089 
L 238.808677 31.843257 
L 240.358787 32.377676 
L 240.928215 32.560905 
L 241.181294 32.803302 
L 241.763025 32.919729 
L 241.942289 32.837658 
L 242.761281 32.173451 
L 243.525791 32.173451 
L 245.151473 32.53991 
L 245.446732 32.66588 
L 245.993312 32.641068 
L 247.162046 32.887282 
L 247.615479 33.106776 
L 247.831651 33.435062 
L 248.177877 33.26901 
L 248.401079 33.435062 
L 248.866815 33.938942 
L 249.028504 33.948486 
L 249.582115 33.874049 
L 249.467878 34.316853 
L 249.66296 34.528712 
L 250.032033 34.627961 
L 250.397592 34.948613 
L 250.571584 35.578463 
L 250.849268 35.715885 
L 250.977565 35.967826 
L 251.248219 35.750241 
L 251.552266 36.13006 
L 251.559296 36.471706 
L 252.262293 37.086288 
L 252.784269 37.160725 
L 253.202552 37.511915 
L 253.30976 37.744769 
L 252.193751 37.527184 
L 251.510086 37.517641 
L 250.947688 38.103593 
L 250.387047 38.347899 
L 249.861557 38.365076 
L 249.699867 37.985257 
L 249.012687 38.328812 
L 248.866815 38.111227 
L 248.608463 38.231472 
L 248.179635 37.870739 
L 248.285084 37.607347 
L 248.017945 37.7295 
L 247.831651 37.985257 
L 247.720929 38.048242 
L 244.993298 39.063638 
L 244.887849 39.325122 
L 244.221759 39.624778 
L 243.76481 40.233634 
L 242.926485 40.859668 
L 241.48534 42.522092 
L 240.485326 42.661423 
L 239.905353 42.100283 
L 239.796389 41.707103 
L 239.55737 41.527691 
L 239.056484 40.743241 
L 238.09865 40.638266 
L 237.849086 40.735606 
L 237.571401 41.021902 
L 236.928159 42.031572 
L 236.479998 41.8388 
L 235.93869 41.730007 
L 235.599493 41.779632 
L 235.000188 42.09074 
L 234.184711 43.125222 
L 233.615283 43.556575 
L 232.856045 43.74553 
L 232.232135 44.346751 
L 231.54144 44.720844 
L 231.321753 44.883079 
L 231.051099 44.827728 
L 230.458824 45.262898 
L 230.406099 45.900383 
L 226.801479 49.450452 
L 226.448222 49.515346 
L 225.857704 50.152831 
L 224.952595 50.378051 
L 224.731151 50.187187 
L 224.597581 49.414188 
L 224.17754 48.370162 
L 224.418317 47.982709 
L 224.260142 47.595255 
L 223.704774 46.97113 
L 223.848889 46.675291 
L 223.411273 45.93283 
L 222.68367 45.566372 
L 222.184542 45.028135 
L 222.005278 45.211365 
L 221.613357 45.081577 
L 221.622144 44.675037 
L 221.509664 44.377289 
L 220.996476 43.747439 
L 220.53777 42.785484 
L 220.504378 42.285421 
L 220.254814 42.231979 
L 220.202089 41.85216 
L 220.080822 41.647936 
L 219.861135 41.527691 
L 219.217892 41.499062 
L 214.565806 41.917054 
L 188.319392 47.106643 
L 180.449334 47.444472 
L 180.560056 98.027225 
L 180.614538 114.75072 
L 180.396609 115.428287 
L 163.500062 115.428287 
L 163.556302 234.018711 
L 162.851547 234.163768 
L 162.111642 234.117961 
L 161.663481 234.360358 
L 160.902486 235.022656 
L 160.405116 235.160078 
L 159.197717 235.345216 
L 158.568534 235.747938 
L 156.712621 235.917807 
L 156.426149 236.156387 
L 155.564977 237.263398 
L 154.89713 239.011711 
L 154.253887 239.395348 
L 152.447183 239.807614 
L 152.041202 239.49078 
L 151.795153 239.509866 
L 151.385657 239.933584 
L 151.090398 240.468003 
L 151.028885 240.853548 
L 151.141365 241.256271 
L 151.77582 242.304114 
L 151.767033 242.527424 
L 151.566679 242.64576 
L 150.904103 242.75837 
L 150.578967 243.187813 
L 149.610588 243.678334 
L 148.90759 243.901645 
L 148.252045 243.936 
L 147.884729 243.498922 
L 147.696677 243.437845 
L 146.981377 243.325236 
L 146.802113 243.126737 
L 146.090327 242.223951 
L 142.538432 241.729613 
L 139.278281 242.187687 
L 138.295842 242.622856 
L 137.840651 242.376642 
L 137.599874 242.496886 
L 136.949602 242.685841 
L 136.619193 242.819446 
L 136.202667 242.750735 
L 135.107748 242.470165 
L 133.612121 242.678207 
L 132.689436 242.874797 
L 130.608563 242.07126 
L 129.000457 240.895538 
L 128.383576 240.647415 
L 125.545223 240.044285 
L 124.812348 240.172164 
L 124.311463 240.468003 
L 124.093533 240.481363 
L 123.177879 240.174072 
L 123.02322 238.954452 
L 122.766626 238.780766 
L 120.351829 239.322819 
L 119.717374 239.225479 
L 119.685739 238.670065 
L 120.005603 237.177509 
L 119.819308 236.770969 
L 119.197155 236.549567 
L 118.966924 235.818558 
L 118.367618 234.908137 
L 118.434403 234.642836 
L 118.951106 234.211484 
L 119.237578 234.140864 
L 119.508232 233.953818 
L 119.650589 233.518648 
L 119.655861 232.615862 
L 119.567987 232.40782 
L 119.112796 231.644364 
L 119.046011 231.266454 
L 118.826324 230.861822 
L 118.733177 230.422836 
L 118.54161 230.335038 
L 118.102237 230.357942 
L 117.023135 230.604156 
L 116.478312 230.504907 
L 116.118026 230.075463 
L 116.081119 228.792858 
L 116.084634 228.376774 
L 115.929974 228.056123 
L 115.172494 227.783188 
L 114.516949 226.794513 
L 114.153148 226.71435 
L 113.6259 226.889945 
L 113.058229 227.296485 
L 112.407956 227.235408 
L 111.961553 227.561786 
L 111.791076 227.531247 
L 111.48703 227.296485 
L 111.033596 227.745015 
L 110.782274 229.395988 
L 110.093337 229.325368 
L 110.105639 229.53341 
L 110.411443 230.035382 
L 109.696143 230.161352 
L 109.678568 230.464826 
L 109.905285 230.871366 
L 109.871893 231.10422 
L 109.711961 231.220647 
L 109.223377 230.976341 
L 108.921088 231.119489 
L 108.847274 231.449683 
L 109.037083 232.111981 
L 109.518636 232.980412 
L 109.08805 233.29152 
L 108.745339 234.70773 
L 108.100339 235.379571 
L 107.817382 235.350942 
L 107.471156 234.644745 
L 107.295406 234.709639 
L 106.007163 235.936894 
L 104.88764 236.370155 
L 103.645929 237.309047 
L 103.430048 237.4939 
L 102.785172 237.309047 
L 101.747282 236.488483 
L 100.968172 235.535666 
L 99.137334 233.768296 
L 98.705572 233.527838 
L 97.680136 232.190288 
L 96.591044 230.966955 
L 93.881459 228.945601 
L 93.012399 227.868047 
L 91.560736 226.673269 
L 91.033488 225.857213 
L 90.388612 225.162889 
L 90.37339 224.949482 
L 90.50624 224.396428 
L 90.288975 223.816322 
L 89.829536 223.20165 
L 87.91705 221.235902 
L 87.834019 220.792557 
L 87.803574 219.684945 
L 87.698401 219.455006 
L 85.312638 215.914256 
L 85.165949 215.74894 
L 84.667762 214.779592 
L 83.865127 213.706546 
L 83.541305 212.065417 
L 83.328192 211.784381 
L 83.286676 211.551437 
L 83.40292 210.795496 
L 83.166281 209.602221 
L 83.286676 209.333208 
L 82.846611 208.296231 
L 82.730367 206.746777 
L 82.342888 206.377072 
L 81.880681 206.295917 
L 81.605294 205.851069 
L 81.545789 205.851069 
L 81.376958 205.099636 
L 80.743154 203.67492 
L 80.820649 203.172963 
L 80.218673 201.697149 
L 80.405493 201.065945 
L 81.1334 200.866064 
L 81.185987 201.0419 
L 81.185987 201.748246 
L 81.30223 201.748246 
L 81.368655 201.381547 
L 81.713235 200.221335 
L 81.60391 199.977871 
L 81.257947 198.850722 
L 81.033763 197.735596 
L 80.640748 197.051792 
L 80.07752 196.482206 
L 79.434028 196.049381 
L 78.271591 195.475286 
L 78.144277 194.031032 
L 78.209318 192.633368 
L 77.809384 192.002164 
L 77.978214 191.778237 
L 78.111064 191.826329 
L 78.271591 191.751186 
L 78.501311 191.162062 
L 78.487472 190.370052 
L 78.304804 189.576539 
L 78.039104 188.964873 
L 77.275217 187.720501 
L 77.179731 187.114846 
L 77.460653 186.431042 
L 77.333339 186.431042 
L 76.170902 184.91916 
L 76.129386 184.544946 
L 76.170902 184.287956 
L 76.241478 182.448449 
L 76.799171 181.186042 
L 76.724443 180.392529 
L 76.349419 180.027333 
L 76.242862 179.558439 
L 76.170902 178.718337 
L 75.75021 177.594194 
L 75.465136 175.670526 
L 75.992384 174.292398 
L 75.942566 174.075986 
L 76.287145 172.757973 
L 76.349419 172.003534 
L 76.179205 171.29869 
L 75.592451 170.099404 
L 75.377954 169.376526 
L 75.323983 167.897706 
L 75.116405 167.186851 
L 73.733936 164.77926 
L 72.89532 163.963204 
L 72.655914 163.41015 
L 72.074695 162.736866 
L 72.035947 162.074103 
L 72.330708 161.690872 
L 72.251829 160.581757 
L 71.874037 159.891942 
L 71.500396 158.955657 
L 70.57875 157.17927 
L 70.225867 155.901835 
L 69.893742 155.288665 
L 69.733215 153.794817 
L 69.655719 152.54293 
L 69.524253 152.137157 
L 69.6488 151.880167 
L 69.881287 151.128734 
L 70.346262 150.807121 
L 70.57875 150.36077 
L 70.444516 150.13534 
L 70.462506 149.098363 
L 70.113775 147.890059 
L 70.346262 145.229987 
L 70.261847 144.567224 
L 69.225341 141.550973 
L 69.237796 141.372132 
L 69.374797 141.20832 
L 69.997531 140.250994 
L 70.076411 140.807054 
L 70.178816 140.710871 
L 70.230019 140.3066 
L 70.205109 139.592739 
L 69.708306 136.789895 
L 69.174138 135.79049 
L 68.87661 134.552129 
L 68.835094 133.166487 
L 69.183825 132.461643 
L 69.237796 131.663621 
L 69.387252 131.73125 
L 69.290382 131.89356 
L 69.524253 132.261762 
L 69.395555 133.011692 
L 69.520102 133.205561 
L 69.881287 133.029726 
L 69.856378 133.238624 
L 69.6488 133.796187 
L 69.904813 133.554226 
L 70.28814 132.808805 
L 70.715751 132.469157 
L 70.840298 132.039338 
L 70.926097 131.190219 
L 70.809853 127.963567 
L 70.487415 125.536439 
L 70.088866 124.878184 
L 69.904813 124.056117 
L 69.290382 122.781687 
L 68.959641 121.690607 
L 68.307846 120.374097 
L 67.199379 119.114695 
L 66.843729 118.507538 
L 66.79391 117.898877 
L 64.172892 114.425755 
L 62.894211 113.217452 
L 62.761361 112.916878 
L 61.026009 111.230663 
L 61.258496 110.369522 
L 61.129798 109.965251 
L 59.763935 107.885285 
L 59.506538 106.699524 
L 58.977906 105.378506 
L 57.235634 103.047561 
L 56.174219 101.239614 
L 55.083742 99.869001 
L 53.564271 97.094712 
L 52.85989 96.117849 
L 52.642625 95.435548 
L 51.596431 94.165627 
L 51.419298 93.552458 
L 51.240781 92.028552 
L 50.77719 90.382915 
L 49.302002 87.440304 
L 48.806583 85.031211 
L 48.457852 83.529848 
L 47.857259 81.975886 
L 47.464245 81.329654 
L 46.780521 81.114387 
L 46.04005 80.590949 
L 45.469793 79.579612 
L 44.926258 77.289951 
L 42.72593 73.163083 
L 39.581815 67.013358 
L 39.194336 65.414309 
L 38.300367 64.031673 
L 37.478358 61.903615 
L 36.612066 60.707335 
L 35.828805 59.970931 
L 35.482841 58.251653 
L 32.708215 54.431369 
L 30.801214 53.143326 
L 29.225056 51.415118 
L 28.372223 50.879451 
L 27.788616 48.416901 
L 27.821828 48.230546 
L 27.423279 47.636914 
L 26.659392 45.708738 
L 25.263615 44.191241 
L 25.001031 43.357658 
L 24.880034 42.271333 
L 24.376465 40.73613 
L 24.157538 38.955083 
L 23.764806 37.602901 
L 23.183152 34.157714 
L 23.02816 33.168829 
L 23.097353 31.720067 
L 23.666116 28.004984 
L 23.852937 27.746491 
L 23.853956 27.747437 
L 24.375964 27.951542 
L 24.810065 27.962994 
L 25.346101 27.390402 
L 26.043826 27.04303 
L 26.845243 26.413179 
L 27.541211 26.069624 
L 28.321538 25.831044 
L 29.449849 25.659266 
L 29.625599 25.777602 
L 30.402411 25.916933 
L 30.576403 25.781419 
L 30.841784 25.937928 
L 31.072016 26.451351 
L 31.609809 26.730013 
L 31.771499 26.808267 
L 31.956036 27.231985 
L 33.181009 27.107923 
L 34.282957 27.149913 
L 34.936745 26.836897 
L 35.660833 27.199538 
L 37.474566 27.411397 
L 37.887578 27.189995 
L 38.648572 26.499067 
L 39.813791 26.113522 
L 40.411339 25.582921 
L 41.857756 24.859546 
L 42.153015 24.44728 
L 42.732988 24.183888 
L 42.915768 23.630383 
L 44.182921 23.216208 
L 45.077485 22.672246 
L 47.662759 22.176 
L 47.979108 22.418397 
L 47.979108 22.418397 
" clip-path="url(#p21514b8a3b)" style="fill: none; stroke: #000000; stroke-width: 2"/>
   </g>
  </g>
 </g>
 <defs>
  <clipPath id="p21514b8a3b">
   <rect x="0" y="-0" width="276.33792" height="266.112"/>
  </clipPath>
 </defs>
</svg>
