<?xml version="1.0" encoding="utf-8" standalone="no"?>
<!DOCTYPE svg PUBLIC "-//W3C//DTD SVG 1.1//EN"
  "http://www.w3.org/Graphics/SVG/1.1/DTD/svg11.dtd">
<svg xmlns:xlink="http://www.w3.org/1999/xlink" width="357.12pt" height="150.969659pt" viewBox="0 0 357.12 150.969659" xmlns="http://www.w3.org/2000/svg" version="1.1">
 <metadata>
  <rdf:RDF xmlns:dc="http://purl.org/dc/elements/1.1/" xmlns:cc="http://creativecommons.org/ns#" xmlns:rdf="http://www.w3.org/1999/02/22-rdf-syntax-ns#">
   <cc:Work>
    <dc:type rdf:resource="http://purl.org/dc/dcmitype/StillImage"/>
    <dc:date>2024-02-02T21:58:03.869931</dc:date>
    <dc:format>image/svg+xml</dc:format>
    <dc:creator>
     <cc:Agent>
      <dc:title>Matplotlib v3.8.2, https://matplotlib.org/</dc:title>
     </cc:Agent>
    </dc:creator>
   </cc:Work>
  </rdf:RDF>
 </metadata>
 <defs>
  <style type="text/css">*{stroke-linejoin: round; stroke-linecap: butt}</style>
 </defs>
 <g id="figure_1">
  <g id="patch_1">
   <path d="M 0 150.969659 
L 357.12 150.969659 
L 357.12 0 
L 0 0 
L 0 150.969659 
z
" style="fill: none"/>
  </g>
  <g id="axes_1">
   <g id="PatchCollection_1">
    <path d="M 181.060749 135.398305 
L 181.446216 135.976254 
L 181.46502 137.058228 
L 180.994937 136.715491 
L 180.531123 135.70072 
L 180.148789 135.623436 
L 179.960756 135.935932 
L 179.979559 136.466838 
L 180.148789 137.481609 
L 179.622296 138.388854 
L 178.409484 138.241007 
L 176.209498 137.340482 
L 176.4132 136.30891 
L 176.432003 133.889589 
L 176.732856 133.086509 
L 177.42231 132.91178 
L 178.450224 133.133552 
L 179.47187 133.610695 
L 180.148789 134.215526 
L 180.55306 134.937962 
L 181.060749 135.398305 
" clip-path="url(#pca66d1e5b9)" style="fill: none; stroke: #000000; stroke-width: 2"/>
    <path d="M 154.056077 128.220986 
L 153.946391 128.50324 
L 153.758358 128.536842 
L 153.498246 128.268028 
L 153.203661 128.50996 
L 152.990557 128.651087 
L 152.451529 128.859418 
L 152.451529 129.11143 
L 153.191125 129.229036 
L 153.109644 129.518011 
L 152.695972 129.786824 
L 152.451529 129.817066 
L 152.169479 129.712901 
L 151.624184 129.591934 
L 151.257519 129.30296 
L 151.523899 128.718291 
L 151.812217 128.234427 
L 151.859225 127.837927 
L 151.975179 127.488469 
L 152.451529 127.165893 
L 152.95295 127.011325 
L 153.363489 127.034847 
L 153.705082 127.273419 
L 154.049809 127.730401 
L 154.056077 128.220986 
" clip-path="url(#pca66d1e5b9)" style="fill: none; stroke: #000000; stroke-width: 2"/>
    <path d="M 327.36 124.997491 
L 327.289007 125.117106 
L 327.177448 125.051861 
L 327.238298 124.932246 
L 327.36 124.997491 
" clip-path="url(#pca66d1e5b9)" style="fill: none; stroke: #000000; stroke-width: 2"/>
    <path d="M 197.513636 84.9017 
L 197.309933 85.68798 
L 197.513636 86.386895 
L 197.964915 87.136212 
L 198.491407 87.764563 
L 198.889411 88.107301 
L 200.086554 88.389555 
L 201.462329 88.224906 
L 202.800497 87.781364 
L 203.887954 87.237017 
L 204.148067 88.10058 
L 204.129263 89.585775 
L 203.850348 91.178494 
L 203.361462 92.337752 
L 203.565164 94.236247 
L 203.477416 95.09981 
L 202.98853 95.462708 
L 202.518447 95.543352 
L 201.067459 95.956653 
L 199.958065 96.595085 
L 198.322178 96.450598 
L 196.98401 95.768484 
L 197.052955 94.619306 
L 196.244413 94.249688 
L 195.229035 94.001035 
L 194.194853 93.990955 
L 193.342437 94.333692 
L 193.248421 94.209366 
L 193.173208 94.071599 
L 193.116798 93.927112 
L 193.079191 93.749023 
L 193.48973 93.470129 
L 193.969214 93.053468 
L 194.339012 92.48896 
L 194.420493 91.773244 
L 194.219925 91.433867 
L 193.354973 90.49302 
L 193.079191 90.083079 
L 192.850418 89.343842 
L 192.737598 88.245067 
L 192.584037 87.542792 
L 192.283185 86.857318 
L 191.217664 85.261238 
L 191.77863 84.975624 
L 192.276917 84.861378 
L 192.77207 84.881539 
L 193.342437 84.982344 
L 194.326477 85.452768 
L 194.93445 85.624136 
L 195.598833 85.022666 
L 198.124743 83.265299 
L 198.225027 83.806286 
L 197.513636 84.9017 
" clip-path="url(#pca66d1e5b9)" style="fill: none; stroke: #000000; stroke-width: 2"/>
    <path d="M 139.232809 57.842268 
L 139.035375 58.215246 
L 138.656175 58.403416 
L 137.678403 58.68903 
L 137.465299 58.470619 
L 137.264731 58.322772 
L 137.004618 58.215246 
L 136.628552 58.124522 
L 136.920003 57.926272 
L 137.227124 57.832187 
L 137.565583 57.805306 
L 137.941649 57.842268 
L 138.24877 57.805306 
L 139.232809 57.842268 
" clip-path="url(#pca66d1e5b9)" style="fill: none; stroke: #000000; stroke-width: 2"/>
    <path d="M 171.687304 57.560014 
L 171.956818 58.29589 
L 171.655965 59.008246 
L 171.173347 59.727322 
L 170.92577 60.506881 
L 170.953975 60.997465 
L 171.189017 62.072719 
L 171.687304 63.201736 
L 171.543145 63.719201 
L 171.035456 64.545803 
L 170.92577 65.043108 
L 171.047992 65.352243 
L 171.348845 65.513531 
L 171.734312 65.654658 
L 172.110378 65.88987 
L 172.505248 66.259488 
L 172.834305 66.4947 
L 173.821479 66.864319 
L 174.272758 66.911361 
L 174.648824 66.8912 
L 174.930873 66.998725 
L 175.134576 67.455708 
L 175.272466 67.660678 
L 175.504374 68.08406 
L 175.683005 68.268869 
L 175.253663 68.991305 
L 175.118906 69.384445 
L 175.134576 69.733902 
L 175.457366 70.200965 
L 175.867904 70.365614 
L 176.312916 70.419376 
L 176.732856 70.553783 
L 177.215474 70.926762 
L 177.779573 71.508071 
L 177.980142 72.035617 
L 176.714053 72.49932 
L 176.463342 73.08735 
L 176.46961 74.666629 
L 176.388129 75.49995 
L 176.143686 76.017416 
L 175.723746 76.387035 
L 175.134576 76.783535 
L 174.482728 76.50128 
L 173.605241 76.50128 
L 172.834305 76.185425 
L 172.502114 74.948883 
L 172.213796 74.757353 
L 171.583886 74.666629 
L 170.947708 74.505341 
L 170.662524 74.10212 
L 170.596713 73.409926 
L 170.389876 73.184795 
L 166.864258 72.801735 
L 165.72039 72.422036 
L 164.71128 71.551753 
L 163.79932 70.553783 
L 163.70217 70.264809 
L 163.639492 69.88847 
L 163.489066 69.565894 
L 162.680524 69.256758 
L 162.454884 68.840097 
L 162.473687 68.29575 
L 162.727532 67.737962 
L 161.182527 66.326692 
L 160.887942 65.762184 
L 163.25089 65.946993 
L 164.040629 65.762184 
L 164.76769 65.342163 
L 165.225237 64.868379 
L 165.90529 63.759523 
L 167.061692 62.381855 
L 167.437758 61.561974 
L 167.22152 60.661449 
L 166.742036 60.382555 
L 164.71128 59.505551 
L 161.796769 59.838207 
L 161.721555 59.438347 
L 161.897053 58.557983 
L 162.351466 57.68098 
L 163.131803 57.277759 
L 164.441766 57.066069 
L 164.71128 57.136632 
L 164.974526 57.378564 
L 165.256576 57.502891 
L 165.595035 57.556653 
L 166.027511 57.560014 
L 166.412979 57.439047 
L 166.70443 57.126552 
L 166.892463 56.713251 
L 166.958274 56.279789 
L 168.271371 55.869849 
L 171.167079 57.49617 
L 171.687304 57.560014 
" clip-path="url(#pca66d1e5b9)" style="fill: none; stroke: #000000; stroke-width: 2"/>
    <path d="M 145.588324 44.660329 
L 145.823366 45.201316 
L 146.114817 45.668379 
L 146.541025 45.987595 
L 147.506261 46.521862 
L 147.694294 46.797395 
L 147.525064 47.261099 
L 147.111392 47.415666 
L 145.970658 47.358544 
L 145.481772 47.49631 
L 145.118242 47.822247 
L 144.902004 48.242268 
L 144.826791 48.645488 
L 144.717105 48.759734 
L 144.131069 50.332292 
L 143.883492 50.809436 
L 143.858421 51.441148 
L 143.990044 52.600406 
L 144.206282 52.88602 
L 144.717105 52.899461 
L 145.8265 52.741533 
L 144.353574 55.580875 
L 143.726798 56.407476 
L 143.125092 56.817416 
L 142.266408 57.213916 
L 141.351314 57.49617 
L 140.596048 57.560014 
L 140.285794 57.277759 
L 140.047619 56.995505 
L 140.643057 56.750213 
L 141.175817 56.340273 
L 142.147321 55.305341 
L 142.786633 54.424977 
L 143.07495 53.900791 
L 143.194038 53.164914 
L 143.125092 50.648148 
L 143.331929 50.063479 
L 143.77694 49.475449 
L 144.25329 48.665649 
L 144.638758 47.802086 
L 144.826791 47.052768 
L 144.657561 46.269849 
L 143.924232 45.241638 
L 143.582639 44.87874 
L 143.419677 44.935862 
L 143.194038 45.08035 
L 143.28492 44.714091 
L 143.701727 44.317592 
L 144.278361 44.031977 
L 144.826791 43.951333 
L 145.296873 44.196625 
L 145.588324 44.660329 
" clip-path="url(#pca66d1e5b9)" style="fill: none; stroke: #000000; stroke-width: 2"/>
    <path d="M 45.078421 31.548953 
L 45.799214 31.992495 
L 46.551346 32.630927 
L 47.153052 33.323122 
L 47.53852 34.304291 
L 47.898916 34.536143 
L 48.760734 34.929282 
L 52.179801 38.874119 
L 53.966114 39.898971 
L 54.737049 40.036737 
L 55.833909 39.720882 
L 56.338464 40.866699 
L 56.749002 41.29344 
L 57.438457 41.390885 
L 57.090596 40.8835 
L 56.529631 39.47895 
L 56.27892 38.141603 
L 56.360401 37.822387 
L 56.717664 37.812306 
L 63.643546 40.513881 
L 64.872028 41.602576 
L 66.924721 44.257108 
L 67.479419 44.781295 
L 68.250354 45.339083 
L 69.058896 45.769184 
L 69.723279 45.947273 
L 70.920422 47.052768 
L 71.315292 47.237577 
L 72.493632 47.640798 
L 73.045195 48.164984 
L 74.123251 49.619937 
L 75.047747 50.211326 
L 76.436057 52.177024 
L 78.432341 53.988155 
L 78.808407 54.021757 
L 79.977345 54.754273 
L 80.572783 55.332222 
L 80.38475 55.869849 
L 81.061669 56.346993 
L 82.625476 56.414196 
L 83.280458 56.995505 
L 84.007519 57.257598 
L 85.43657 58.426937 
L 89.620304 59.334182 
L 90.156198 59.838207 
L 90.971007 59.505551 
L 91.616587 59.828127 
L 92.027126 60.352313 
L 92.957889 61.152033 
L 93.249341 61.69638 
L 93.076977 62.328092 
L 93.465578 64.021617 
L 93.866716 64.613006 
L 95.515138 65.805866 
L 95.709439 66.451018 
L 96.032229 66.582065 
L 98.072387 66.864319 
L 98.768109 67.09281 
L 98.974945 67.307861 
L 98.811983 68.68553 
L 98.467256 69.861588 
L 98.298026 70.160643 
L 98.730502 71.69624 
L 99.050158 72.146503 
L 100.322515 73.104151 
L 101.406839 73.69218 
L 101.90826 74.10212 
L 102.406547 74.656548 
L 102.697998 74.774154 
L 103.694573 74.837997 
L 103.976623 74.969044 
L 104.051836 75.237857 
L 103.90141 75.681399 
L 104.43417 75.372264 
L 106.120199 76.911221 
L 106.270625 77.341322 
L 106.577746 77.596695 
L 106.765779 77.932712 
L 106.120199 77.922631 
L 105.527895 77.761343 
L 104.43417 77.09267 
L 104.6034 77.482449 
L 104.963796 77.952873 
L 105.424477 78.335932 
L 105.875756 78.49722 
L 106.270625 78.759313 
L 107.060364 80.472999 
L 107.953521 80.869499 
L 110.275728 81.470969 
L 110.999655 82.186685 
L 112.118451 81.89099 
L 113.152633 82.462218 
L 113.9173 83.456828 
L 114.205618 84.417836 
L 114.882537 84.256548 
L 115.286807 86.007196 
L 116.042073 86.69603 
L 115.60333 85.567014 
L 115.785095 85.261238 
L 116.13609 85.049548 
L 116.49962 85.062988 
L 116.831812 85.321721 
L 117.095058 85.829107 
L 117.308162 85.462848 
L 117.35517 85.015946 
L 117.20161 84.552243 
L 116.806741 84.135582 
L 117.496195 84.317031 
L 118.047759 85.015946 
L 119.646039 88.224906 
L 119.470542 88.577724 
L 118.652598 88.389555 
L 118.931514 88.819656 
L 120.510991 89.797465 
L 120.285351 90.177164 
L 120.592472 90.217486 
L 121.303863 89.938592 
L 121.206713 89.411046 
L 120.510991 88.389555 
L 120.191335 87.401665 
L 120.109854 86.642267 
L 120.398171 86.353293 
L 121.17224 86.813636 
L 122.356848 88.107301 
L 122.754851 88.221546 
L 123.710686 88.342512 
L 124.064814 88.530682 
L 124.146295 88.809576 
L 123.43177 89.212796 
L 123.597866 89.390885 
L 124.196437 89.518571 
L 124.459684 91.208736 
L 125.349707 90.768554 
L 126.061098 90.765193 
L 126.703544 91.124731 
L 128.928601 93.053468 
L 129.618055 93.335722 
L 130.000389 94.054798 
L 131.354227 94.955323 
L 132.783278 95.644157 
L 135.838814 96.615246 
L 135.838814 96.873979 
L 134.763892 96.873979 
L 134.763892 97.156233 
L 135.039673 97.341042 
L 135.312321 98.026516 
L 135.566166 98.144122 
L 136.092658 98.187805 
L 137.415157 98.537262 
L 137.963587 98.819516 
L 138.405464 99.612516 
L 139.900326 100.721371 
L 140.069556 101.010346 
L 140.201179 101.756303 
L 140.668128 102.277129 
L 141.357582 102.562743 
L 141.069265 102.821476 
L 141.95302 103.590955 
L 143.657852 105.533132 
L 144.394315 105.922911 
L 145.090037 106.470619 
L 146.124219 107.535792 
L 147.04558 108.204465 
L 147.42478 107.609716 
L 148.766082 108.550563 
L 149.267503 108.738732 
L 149.267503 109.047867 
L 148.65953 109.404045 
L 147.95754 109.585494 
L 147.95754 109.89463 
L 148.270928 110.039117 
L 149.399126 109.89463 
L 149.900548 110.002155 
L 150.621341 110.318011 
L 150.843847 110.150003 
L 151.125896 110.89596 
L 151.54897 111.29918 
L 152.160078 111.487349 
L 152.978021 111.588154 
L 155.221882 112.145942 
L 155.770311 112.455078 
L 157.728988 113.994035 
L 158.518727 115.277619 
L 158.575137 115.620356 
L 158.518727 116.682169 
L 158.083117 117.455008 
L 158.988809 117.723821 
L 159.831824 118.967083 
L 161.195063 120.062498 
L 161.411301 120.50268 
L 161.307883 120.882379 
L 160.790792 120.956303 
L 160.602759 121.218396 
L 160.693642 121.480489 
L 161.129251 122.112201 
L 160.311308 124.313111 
L 159.831824 124.914581 
L 159.643791 124.531522 
L 158.760036 125.035547 
L 158.575137 125.180034 
L 158.781973 125.754623 
L 157.566026 126.735792 
L 156.838965 127.031486 
L 155.886265 126.883639 
L 156.992526 126.389694 
L 157.208764 126.009995 
L 156.353213 126.1108 
L 156.052361 125.764703 
L 155.525868 124.639047 
L 155.36604 124.474399 
L 155.243819 123.993895 
L 154.999376 124.29295 
L 154.695389 125.169953 
L 154.378867 125.001945 
L 153.761492 123.758683 
L 154.287984 123.50331 
L 153.936989 122.999285 
L 153.592262 123.120251 
L 153.335284 123.671319 
L 153.109644 125.29764 
L 153.347819 125.808385 
L 154.049809 126.319131 
L 153.626735 126.419936 
L 152.451529 126.167923 
L 152.348111 126.379614 
L 151.799681 126.802995 
L 151.523899 126.883639 
L 150.558663 126.661868 
L 150.044706 126.151122 
L 150.094849 125.579894 
L 150.843847 125.169953 
L 150.843847 124.914581 
L 150.148125 124.988504 
L 149.301976 124.89442 
L 148.766082 124.518081 
L 149.004257 123.758683 
L 148.747279 123.50331 
L 148.170644 123.70828 
L 147.280621 123.382344 
L 146.47208 122.784234 
L 145.945587 122.132362 
L 144.666963 122.629666 
L 144.359842 122.555743 
L 143.062415 121.924031 
L 142.927658 121.520811 
L 143.360133 121.047027 
L 142.930791 120.633727 
L 142.586064 120.50604 
L 141.069265 120.378354 
L 140.643057 120.983184 
L 140.379811 121.90387 
L 139.997477 122.555743 
L 139.232809 122.347412 
L 139.138793 122.616226 
L 138.994634 122.629666 
L 139.295487 123.402505 
L 138.900618 123.597395 
L 138.392929 123.415946 
L 138.317715 123.053048 
L 138.430535 122.69687 
L 138.493213 121.648497 
L 138.753325 121.218396 
L 138.753325 120.942862 
L 138.189226 120.976464 
L 137.678403 120.842057 
L 137.23966 120.539642 
L 136.888665 120.062498 
L 138.13595 120.116261 
L 138.678112 119.961693 
L 138.994634 119.531592 
L 138.298912 119.49127 
L 138.067005 119.131732 
L 138.204896 117.811186 
L 137.822562 117.841427 
L 136.988949 117.70366 
L 136.628552 117.811186 
L 136.500063 118.053118 
L 136.230549 118.967083 
L 135.744797 119.041007 
L 135.556764 119.249337 
L 135.443944 119.555113 
L 135.180698 119.938172 
L 134.823436 120.089379 
L 134.644804 119.837367 
L 134.707482 119.393825 
L 135.049075 118.967083 
L 134.654206 118.725151 
L 133.710907 117.811186 
L 133.710907 117.555813 
L 134.086973 117.266838 
L 134.212328 116.682169 
L 133.974153 116.682169 
L 133.591819 117.085389 
L 132.585843 116.863618 
L 132.657922 117.246677 
L 131.924594 117.542372 
L 130.67104 116.964423 
L 130.000389 116.964423 
L 129.96905 116.178144 
L 129.618055 115.559873 
L 129.097831 115.143212 
L 128.558803 114.995365 
L 128.082453 114.726551 
L 127.640575 114.276289 
L 127.170493 114.188924 
L 126.58759 114.995365 
L 125.769647 114.430857 
L 126.039161 113.994035 
L 126.061098 113.274959 
L 126.302407 113.274959 
L 126.625197 113.647937 
L 127.048271 113.829386 
L 127.367927 113.668098 
L 127.377329 113.019586 
L 127.142288 112.619726 
L 126.390156 112.287069 
L 126.061098 111.870409 
L 127.546559 111.964493 
L 127.903821 112.145942 
L 127.866215 111.712481 
L 127.696985 111.453748 
L 127.399266 111.332782 
L 126.98246 111.3059 
L 126.785025 111.050528 
L 127.004397 110.018956 
L 127.114083 109.89463 
L 126.803828 108.973944 
L 126.314943 108.584164 
L 124.986176 108.174224 
L 124.519227 108.463198 
L 124.271651 108.345592 
L 124.321793 108.006215 
L 124.744867 107.609716 
L 124.340596 107.414826 
L 124.058547 107.10569 
L 123.914388 106.70247 
L 123.933191 106.205165 
L 123.331486 106.594945 
L 123.112114 106.978004 
L 123.146587 108.033097 
L 122.967955 108.285109 
L 121.830356 108.174224 
L 121.977648 108.375834 
L 121.946309 108.873139 
L 121.698733 109.209156 
L 121.17224 108.8933 
L 120.266548 107.760923 
L 119.069404 107.30058 
L 118.276532 105.946432 
L 116.245776 104.90142 
L 115.785095 105.09967 
L 114.666299 105.079509 
L 114.293366 104.857738 
L 114.205618 104.229387 
L 115.01416 104.592285 
L 114.757181 104.182344 
L 113.679125 103.127251 
L 113.679125 102.804675 
L 113.885962 102.112481 
L 113.538101 101.974714 
L 113.13383 102.072159 
L 112.974002 102.320811 
L 112.992805 102.69043 
L 113.13383 103.127251 
L 112.48825 102.90212 
L 112.356627 102.435057 
L 112.409903 101.823506 
L 112.315886 101.151473 
L 111.291106 99.918291 
L 111.291106 99.128652 
L 110.999655 99.128652 
L 110.689401 99.777164 
L 110.288264 100.30471 
L 109.786842 100.681049 
L 109.166333 100.845697 
L 109.156932 99.525151 
L 108.865481 99.353783 
L 108.107081 99.50499 
L 108.075742 99.89813 
L 107.843835 99.998935 
L 107.633865 99.968694 
L 102.49743 97.408246 
L 101.315956 96.319551 
L 101.776637 95.462708 
L 101.776637 95.156933 
L 101.225073 95.358543 
L 100.902283 95.251018 
L 100.958693 95.029247 
L 101.513391 94.878039 
L 100.902283 94.414336 
L 100.262971 94.565543 
L 99.620525 94.948603 
L 98.987481 95.156933 
L 98.31683 95.029247 
L 94.264719 93.221476 
L 93.735092 92.784654 
L 93.41857 92.226867 
L 92.957889 90.674469 
L 92.230828 90.587105 
L 91.754478 90.345172 
L 90.68269 89.518571 
L 89.748793 89.350563 
L 89.635973 89.081749 
L 88.990393 88.389555 
L 87.555075 85.829107 
L 87.486129 85.442687 
L 87.630288 85.049548 
L 87.269891 84.726972 
L 87.003511 84.733692 
L 86.420609 84.999145 
L 86.451948 84.982344 
L 86.320325 85.567014 
L 85.981865 85.761903 
L 85.634004 85.560293 
L 85.449105 84.982344 
L 84.863069 85.442687 
L 84.52461 85.48637 
L 84.092134 85.261238 
L 84.816061 84.464879 
L 84.728312 83.779404 
L 84.126606 83.409786 
L 83.280458 83.571074 
L 83.603248 82.952803 
L 83.424617 82.539502 
L 82.509523 81.877549 
L 82.164796 82.435337 
L 82.283883 83.305621 
L 81.986164 83.853328 
L 81.572492 84.108701 
L 81.196426 84.014616 
L 80.886171 83.705481 
L 80.669933 83.265299 
L 80.823493 82.939362 
L 80.97392 82.227007 
L 81.196426 81.877549 
L 80.904974 81.521371 
L 80.002416 81.178634 
L 79.522932 80.446118 
L 76.6805 76.975064 
L 76.492467 76.407196 
L 76.410986 74.142442 
L 76.103865 73.705621 
L 75.367403 73.960993 
L 75.477089 73.29568 
L 75.649452 73.114231 
L 75.649452 72.805096 
L 75.213842 72.737892 
L 74.84091 72.556443 
L 75.06655 72.237227 
L 75.019542 72.065859 
L 74.746894 72.065859 
L 74.314418 72.274189 
L 74.220402 72.751333 
L 73.784792 72.811816 
L 73.430663 72.49596 
L 73.28337 71.850808 
L 73.038928 71.817206 
L 72.565711 71.89449 
L 72.255457 72.126342 
L 72.493632 72.556443 
L 71.967139 73.114231 
L 71.258882 71.178774 
L 70.769996 70.385775 
L 70.130684 69.989275 
L 70.87028 69.455008 
L 70.534955 69.102191 
L 69.726413 68.766174 
L 69.077699 68.268869 
L 69.685672 68.215106 
L 70.005329 67.953013 
L 70.046069 67.576674 
L 69.842367 67.173454 
L 69.366016 66.89456 
L 68.870863 66.837437 
L 68.541805 66.662709 
L 68.526136 66.017556 
L 68.287961 66.017556 
L 67.686255 66.420776 
L 67.084549 66.128442 
L 66.163188 65.197675 
L 65.758917 65.08343 
L 64.969178 65.059908 
L 64.558639 64.88854 
L 64.395678 64.673489 
L 63.91306 63.759523 
L 63.054376 63.591515 
L 62.364921 63.154693 
L 60.68516 61.407406 
L 59.535025 60.627847 
L 59.017934 60.076779 
L 58.6356 59.418186 
L 58.886311 59.384585 
L 59.456678 59.48539 
L 60.064651 59.253538 
L 60.36237 58.608386 
L 60.127329 58.067399 
L 59.56323 57.69778 
L 58.886311 57.560014 
L 58.31281 57.116471 
L 57.463528 55.181015 
L 56.75527 54.740833 
L 55.595733 51.89477 
L 55.200864 52.0863 
L 54.805995 52.177024 
L 54.417393 51.447868 
L 51.972964 49.828267 
L 51.390062 48.927742 
L 50.669269 45.977514 
L 50.21799 45.668379 
L 49.697765 45.463409 
L 49.309164 45.08035 
L 49.127398 44.233587 
L 49.569276 44.142863 
L 50.603457 44.515841 
L 50.970122 44.08238 
L 51.120548 43.383465 
L 51.126816 42.120042 
L 50.575252 41.29008 
L 50.095768 40.775974 
L 49.660159 40.544123 
L 47.848774 40.453398 
L 47.397495 40.261869 
L 47.654473 39.717522 
L 47.685812 39.176534 
L 47.441369 38.901001 
L 46.896074 39.132852 
L 47.059035 39.546153 
L 46.842798 40.009856 
L 46.463598 40.386195 
L 46.106335 40.544123 
L 45.535968 40.382835 
L 45.253919 39.616716 
L 44.357628 39.028687 
L 44.489251 38.215526 
L 45.197509 37.657739 
L 46.372715 38.003836 
L 46.729978 37.516612 
L 46.579551 37.015946 
L 45.846223 36.058299 
L 46.297502 35.863409 
L 46.579551 35.460189 
L 46.62656 34.929282 
L 46.372715 34.371494 
L 45.799214 33.911151 
L 45.338534 33.995155 
L 44.852782 34.263969 
L 44.247942 34.371494 
L 44.247942 34.055638 
L 44.570732 33.706181 
L 44.771301 33.215596 
L 44.213469 33.027427 
L 44.019169 32.644368 
L 44.063043 32.133622 
L 44.247942 31.548953 
L 44.545661 31.592635 
L 45.078421 31.548953 
L 45.078421 31.548953 
" clip-path="url(#pca66d1e5b9)" style="fill: none; stroke: #000000; stroke-width: 2"/>
    <path d="M 53.207714 33.800266 
L 53.80942 34.653748 
L 53.069824 34.455498 
L 51.976098 33.860749 
L 51.07354 33.208876 
L 50.885507 32.456199 
L 50.86357 30.67531 
L 51.126816 30.67531 
L 52.837916 32.983745 
L 53.207714 33.800266 
" clip-path="url(#pca66d1e5b9)" style="fill: none; stroke: #000000; stroke-width: 2"/>
    <path d="M 43.994098 30.870199 
L 43.900081 31.226377 
L 43.718316 31.548953 
L 43.45507 30.957564 
L 42.878435 31.159174 
L 42.521173 30.843318 
L 42.141973 29.835268 
L 42.141973 29.519412 
L 42.405219 29.190115 
L 42.621457 28.208946 
L 42.928577 28.114861 
L 43.292108 28.450878 
L 43.599228 29.579895 
L 43.984696 30.08392 
L 44.022303 30.49386 
L 43.994098 30.870199 
" clip-path="url(#pca66d1e5b9)" style="fill: none; stroke: #000000; stroke-width: 2"/>
    <path d="M 32.856277 18.417417 
L 31.837765 19.351543 
L 30.693897 16.710451 
L 30.543471 15.796486 
L 30.612416 14.102961 
L 30.399312 13.498131 
L 29.76 13.094911 
L 29.995041 12.580805 
L 30.61555 12.913462 
L 31.066829 13.511571 
L 31.856568 15.453749 
L 32.122948 16.784375 
L 32.34232 17.375765 
L 32.768528 18.104921 
L 32.856277 18.417417 
" clip-path="url(#pca66d1e5b9)" style="fill: none; stroke: #000000; stroke-width: 2"/>
   </g>
  </g>
 </g>
 <defs>
  <clipPath id="pca66d1e5b9">
   <rect x="0" y="0" width="357.12" height="150.969659"/>
  </clipPath>
 </defs>
</svg>
