<?xml version="1.0" encoding="utf-8" standalone="no"?>
<!DOCTYPE svg PUBLIC "-//W3C//DTD SVG 1.1//EN"
  "http://www.w3.org/Graphics/SVG/1.1/DTD/svg11.dtd">
<svg xmlns:xlink="http://www.w3.org/1999/xlink" width="339.381036pt" height="266.112pt" viewBox="0 0 339.381036 266.112" xmlns="http://www.w3.org/2000/svg" version="1.1">
 <metadata>
  <rdf:RDF xmlns:dc="http://purl.org/dc/elements/1.1/" xmlns:cc="http://creativecommons.org/ns#" xmlns:rdf="http://www.w3.org/1999/02/22-rdf-syntax-ns#">
   <cc:Work>
    <dc:type rdf:resource="http://purl.org/dc/dcmitype/StillImage"/>
    <dc:date>2024-02-02T21:58:03.897952</dc:date>
    <dc:format>image/svg+xml</dc:format>
    <dc:creator>
     <cc:Agent>
      <dc:title>Matplotlib v3.8.2, https://matplotlib.org/</dc:title>
     </cc:Agent>
    </dc:creator>
   </cc:Work>
  </rdf:RDF>
 </metadata>
 <defs>
  <style type="text/css">*{stroke-linejoin: round; stroke-linecap: butt}</style>
 </defs>
 <g id="figure_1">
  <g id="patch_1">
   <path d="M 0 266.112 
L 339.381036 266.112 
L 339.381036 0 
L 0 0 
L 0 266.112 
z
" style="fill: none"/>
  </g>
  <g id="axes_1">
   <g id="PatchCollection_1">
    <path d="M 279.735582 39.078837 
L 280.012777 39.047816 
L 293.390528 31.962291 
L 296.832975 51.134219 
L 297.049188 60.18448 
L 297.330079 60.460758 
L 298.516474 61.132547 
L 299.556879 62.51975 
L 304.644333 70.32434 
L 303.923626 70.732455 
L 303.481962 71.456592 
L 303.334124 72.3242 
L 303.480114 73.169511 
L 303.945801 74.052629 
L 304.2655 74.411305 
L 305.71985 75.55422 
L 311.060475 81.539258 
L 311.099283 81.848495 
L 310.60218 82.830976 
L 307.468027 88.494659 
L 306.909941 89.967169 
L 302.188385 145.996197 
L 302.073811 146.410128 
L 301.839119 146.756201 
L 282.466878 167.889958 
L 272.899951 181.584585 
L 271.4918 184.818483 
L 271.541696 185.600299 
L 271.815195 186.782475 
L 271.656269 187.222095 
L 271.384618 187.368958 
L 270.684239 187.483832 
L 270.50591 187.622455 
L 269.544967 188.723202 
L 269.79629 189.010627 
L 269.890537 190.07696 
L 269.751939 190.417702 
L 269.15135 190.931966 
L 267.068691 191.407453 
L 266.612243 191.639623 
L 266.026437 192.475241 
L 266.020893 193.58035 
L 267.053907 197.895122 
L 268.848283 206.261961 
L 264.406956 206.071896 
L 263.72387 206.295889 
L 263.73311 206.618213 
L 263.461459 206.814515 
L 262.528235 207.860006 
L 262.613242 208.068426 
L 262.589218 208.322892 
L 262.271368 208.372816 
L 262.14201 208.723252 
L 262.395182 208.75718 
L 262.068091 209.18953 
L 260.674724 209.665503 
L 260.776362 209.32573 
L 260.737555 209.175959 
L 260.464056 209.217643 
L 260.197948 209.665503 
L 260.197948 209.397465 
L 259.567792 209.516701 
L 259.366363 209.440118 
L 259.464305 209.14106 
L 258.970898 209.183229 
L 258.512602 209.355781 
L 256.904871 210.183159 
L 256.411464 210.280098 
L 255.912512 210.16571 
L 255.838594 210.471554 
L 255.675973 210.487064 
L 255.16963 210.294639 
L 255.16963 210.434232 
L 255.443129 210.553467 
L 255.668581 210.817627 
L 255.433889 211.016353 
L 254.92385 211.639189 
L 254.883195 211.85294 
L 254.604152 211.885899 
L 254.315869 212.040518 
L 254.506209 212.473352 
L 254.216078 212.426821 
L 254.009106 212.215978 
L 253.354926 213.189249 
L 253.061099 213.424327 
L 252.447574 213.617721 
L 252.32376 214.050071 
L 252.166683 214.14798 
L 251.717627 213.962341 
L 251.373905 213.647773 
L 251.316618 214.062673 
L 250.947024 214.325864 
L 250.886041 214.217776 
L 250.793643 214.28321 
L 250.141311 214.916225 
L 250.089568 215.220614 
L 249.734758 215.842965 
L 250.019345 215.952022 
L 249.810524 216.566618 
L 249.531481 216.775522 
L 249.045466 216.919477 
L 248.810774 218.141883 
L 248.561299 218.26645 
L 247.024243 217.99603 
L 245.802283 217.897111 
L 245.491825 217.629558 
L 245.210934 217.743947 
L 245.064945 217.885478 
L 244.891236 217.788539 
L 244.815469 217.559277 
L 244.612193 217.443919 
L 243.710385 217.117233 
L 243.412862 217.179759 
L 242.784553 217.489481 
L 242.191355 217.540859 
L 240.788748 217.099784 
L 239.964555 216.429448 
L 237.477191 214.866785 
L 235.501714 214.040377 
L 230.09641 212.633787 
L 221.388788 212.681287 
L 218.140062 212.291106 
L 215.933125 212.540455 
L 207.237055 214.457701 
L 206.490476 214.778571 
L 203.099456 216.731899 
L 202.707687 217.2418 
L 202.556154 217.888386 
L 202.341789 218.053668 
L 202.060898 218.108923 
L 201.717177 218.336246 
L 201.118435 218.922245 
L 197.525987 223.113419 
L 197.402173 223.166736 
L 197.02334 223.195818 
L 192.902373 222.76056 
L 191.948822 223.037322 
L 191.285401 223.038291 
L 185.445825 222.33645 
L 180.735356 220.903686 
L 180.079328 220.51399 
L 179.772565 220.130594 
L 178.909565 218.861658 
L 177.700994 218.045913 
L 177.006158 217.93831 
L 176.357522 218.061423 
L 176.011952 218.212164 
L 175.701493 218.055607 
L 172.981286 215.497376 
L 172.190356 215.223522 
L 170.46805 213.848922 
L 169.974643 213.654558 
L 165.441579 212.992947 
L 164.828054 213.054988 
L 164.218225 213.333204 
L 157.717076 217.359097 
L 157.157142 217.544736 
L 156.515897 217.540859 
L 154.651298 217.189453 
L 154.252137 217.267974 
L 153.165533 218.583926 
L 152.319164 219.350232 
L 151.833399 219.561285 
L 151.511602 219.616331 
L 149.584172 219.556228 
L 149.039022 219.341508 
L 147.810123 218.279052 
L 146.751238 217.02611 
L 144.853376 213.445169 
L 141.934512 210.16474 
L 139.424972 207.721868 
L 137.909869 206.945604 
L 136.937608 206.729208 
L 136.593886 206.802882 
L 135.374228 207.448983 
L 134.980611 207.200334 
L 124.277184 202.956812 
L 121.636439 203.426483 
L 121.139336 203.683373 
L 120.934212 203.962074 
L 120.387213 204.951825 
L 119.633243 205.443307 
L 119.01787 205.563512 
L 116.456587 205.447185 
L 114.647427 205.782111 
L 113.608869 205.718131 
L 113.202317 205.532492 
L 112.79946 205.137948 
L 112.389211 204.948917 
L 111.816341 205.011927 
L 106.128298 206.438875 
L 105.159963 206.830995 
L 104.322834 207.441228 
L 101.510228 210.200608 
L 101.011277 210.454104 
L 100.473518 210.559284 
L 99.316691 210.597575 
L 99.219261 215.519339 
L 98.655118 219.540718 
L 95.800009 224.15261 
L 94.643181 225.291647 
L 90.732883 228.314217 
L 90.658964 228.511974 
L 90.836369 233.182514 
L 90.354049 235.646713 
L 90.34481 236.461004 
L 90.79017 237.834635 
L 90.873328 238.476374 
L 90.570262 239.099694 
L 90.067614 239.692963 
L 89.986304 240.000261 
L 90.147077 241.24981 
L 90.385465 241.558077 
L 91.024861 242.365582 
L 91.113564 242.73686 
L 90.986054 243.142066 
L 90.769842 243.368905 
L 89.851402 243.936 
L 89.72574 243.828397 
L 88.788821 242.301602 
L 88.045938 241.276953 
L 87.846358 241.133482 
L 87.192177 240.893073 
L 85.998391 240.198017 
L 85.787722 240.155364 
L 85.296163 240.425825 
L 84.828627 240.206742 
L 84.422074 239.755004 
L 83.882468 238.703212 
L 83.693975 237.776471 
L 83.396453 237.487592 
L 80.321435 234.593951 
L 79.205263 232.997359 
L 78.401397 232.848073 
L 78.057675 232.585367 
L 77.804504 231.932965 
L 77.625251 231.7323 
L 77.261201 231.530666 
L 76.403744 230.739641 
L 76.191228 231.024643 
L 75.049184 231.099286 
L 74.851452 231.233062 
L 74.400548 231.723576 
L 74.213903 231.771076 
L 74.025411 231.640208 
L 73.73528 231.82827 
L 73.339815 232.662918 
L 73.177194 232.759858 
L 72.423223 232.610571 
L 72.011126 232.81996 
L 71.787522 232.713327 
L 71.070511 232.945981 
L 70.806252 233.169911 
L 70.615911 233.095268 
L 70.538296 232.949859 
L 70.033801 232.969247 
L 69.849005 233.39675 
L 69.431364 233.294963 
L 69.241023 233.553791 
L 67.923423 233.797109 
L 67.766345 234.122826 
L 67.781129 234.549359 
L 67.956686 235.594366 
L 68.786423 237.691165 
L 69.161561 237.936421 
L 69.447996 238.06632 
L 69.473867 238.621783 
L 69.156017 238.580099 
L 68.976764 238.597548 
L 68.437158 239.189848 
L 68.117459 239.206327 
L 68.039845 239.653218 
L 68.283776 240.169905 
L 67.352401 239.352706 
L 62.233532 231.814699 
L 62.276035 231.270869 
L 62.545838 231.038214 
L 63.658314 230.753212 
L 63.953989 230.523466 
L 64.236728 230.635916 
L 65.561721 230.473058 
L 65.687382 230.272393 
L 65.639335 229.347591 
L 65.164408 228.655444 
L 65.077553 228.416973 
L 64.883517 227.050128 
L 64.602626 226.586758 
L 63.896702 226.021601 
L 63.828327 225.920784 
L 63.724841 225.555322 
L 63.257305 224.992105 
L 62.540294 224.792409 
L 60.636888 224.739093 
L 60.136089 225.218943 
L 59.723992 225.160779 
L 59.522564 225.502006 
L 58.513573 226.859157 
L 58.197571 226.895025 
L 53.509278 226.370583 
L 53.008479 226.082673 
L 45.465077 219.540718 
L 44.92547 219.263956 
L 43.646677 219.153445 
L 43.132942 218.863112 
L 42.974017 218.563569 
L 42.920611 217.860929 
L 42.89825 213.310908 
L 43.132942 212.559143 
L 43.511775 212.626031 
L 44.942102 213.212515 
L 46.424172 213.590578 
L 46.782677 212.639603 
L 47.106071 212.737512 
L 47.745468 213.175678 
L 48.231484 212.978406 
L 47.61611 212.387076 
L 46.237527 212.104498 
L 44.289769 211.179696 
L 43.700268 210.734744 
L 43.365786 210.16474 
L 43.273387 209.319429 
L 42.550832 208.529858 
L 41.584345 207.93465 
L 40.758304 207.678245 
L 39.767794 207.727684 
L 39.202316 207.343804 
L 39.246667 206.95847 
L 39.19862 206.675892 
L 39.017519 206.637116 
L 36.644729 206.714668 
L 36.173497 206.547447 
L 35.92587 206.080199 
L 36.162409 204.873789 
L 35.818687 204.74389 
L 35.43431 204.274703 
L 34.485902 203.505994 
L 33.679203 202.542881 
L 33.568787 202.406681 
L 33.558624 202.209894 
L 33.712929 201.708233 
L 33.520278 201.48818 
L 32.911373 201.115933 
L 32.545013 200.287586 
L 32.1477 199.978349 
L 32.145853 199.813552 
L 32.314018 199.389927 
L 32.028045 199.044338 
L 31.690329 198.566427 
L 31.611328 198.351706 
L 31.688481 198.131169 
L 32.201292 197.228664 
L 32.361603 196.477868 
L 32.549633 196.097866 
L 32.498814 195.991232 
L 31.740224 194.941379 
L 28.920226 192.311898 
L 28.387087 191.404545 
L 28.281753 190.455509 
L 29.47554 186.994288 
L 29.35727 186.423799 
L 28.838915 185.337109 
L 28.868483 184.800065 
L 29.495867 184.049269 
L 29.359118 182.225839 
L 29.503259 182.028568 
L 31.86219 182.638316 
L 32.467399 182.641709 
L 33.035187 182.517142 
L 34.192476 182.100303 
L 34.75241 182.07316 
L 37.773837 183.061457 
L 38.777283 182.733802 
L 39.300258 182.532652 
L 42.521265 182.335865 
L 42.957385 182.116298 
L 48.270291 177.076904 
L 48.75261 176.779784 
L 49.355048 176.631952 
L 79.190479 175.590823 
L 79.290269 175.343143 
L 79.37158 174.117344 
L 79.500938 174.020405 
L 79.787373 173.952547 
L 80.493296 173.938491 
L 88.254759 175.312122 
L 88.422924 173.150858 
L 88.602176 172.648712 
L 90.167405 171.67738 
L 91.564468 170.106961 
L 92.220496 169.742469 
L 93.641583 169.466677 
L 94.316091 169.096853 
L 94.812243 168.429319 
L 95.038646 167.881233 
L 95.18094 167.158065 
L 95.456287 164.979837 
L 95.727938 164.551365 
L 96.796063 163.384215 
L 96.768344 163.16804 
L 96.546588 162.614516 
L 96.476365 162.09589 
L 96.552132 161.578234 
L 98.420426 157.1704 
L 99.181789 156.471467 
L 100.212955 155.827789 
L 100.357096 155.388654 
L 100.368184 147.839014 
L 100.68049 147.269011 
L 100.604724 145.086905 
L 100.710058 144.757311 
L 101.28108 144.512055 
L 101.155418 104.248279 
L 128.346408 98.780898 
L 129.150274 98.478932 
L 129.924572 97.93801 
L 153.738402 76.583717 
L 159.339591 71.789095 
L 239.552458 22.176 
L 266.612243 28.510504 
L 268.709686 29.648088 
L 279.735582 39.078837 
L 279.735582 39.078837 
" clip-path="url(#pb426893ebd)" style="fill: none; stroke: #000000; stroke-width: 2"/>
   </g>
  </g>
 </g>
 <defs>
  <clipPath id="pb426893ebd">
   <rect x="0" y="-0" width="339.381036" height="266.112"/>
  </clipPath>
 </defs>
</svg>
