<?xml version="1.0" encoding="utf-8" standalone="no"?>
<!DOCTYPE svg PUBLIC "-//W3C//DTD SVG 1.1//EN"
  "http://www.w3.org/Graphics/SVG/1.1/DTD/svg11.dtd">
<svg xmlns:xlink="http://www.w3.org/1999/xlink" width="328.165895pt" height="266.112pt" viewBox="0 0 328.165895 266.112" xmlns="http://www.w3.org/2000/svg" version="1.1">
 <metadata>
  <rdf:RDF xmlns:dc="http://purl.org/dc/elements/1.1/" xmlns:cc="http://creativecommons.org/ns#" xmlns:rdf="http://www.w3.org/1999/02/22-rdf-syntax-ns#">
   <cc:Work>
    <dc:type rdf:resource="http://purl.org/dc/dcmitype/StillImage"/>
    <dc:date>2024-02-02T21:58:03.954812</dc:date>
    <dc:format>image/svg+xml</dc:format>
    <dc:creator>
     <cc:Agent>
      <dc:title>Matplotlib v3.8.2, https://matplotlib.org/</dc:title>
     </cc:Agent>
    </dc:creator>
   </cc:Work>
  </rdf:RDF>
 </metadata>
 <defs>
  <style type="text/css">*{stroke-linejoin: round; stroke-linecap: butt}</style>
 </defs>
 <g id="figure_1">
  <g id="patch_1">
   <path d="M 0 266.112 
L 328.165895 266.112 
L 328.165895 0 
L 0 0 
L 0 266.112 
z
" style="fill: none"/>
  </g>
  <g id="axes_1">
   <g id="PatchCollection_1">
    <path d="M 136.30939 239.242147 
L 136.711876 239.33794 
L 137.127345 239.291922 
L 137.947156 239.084371 
L 138.340368 239.036474 
L 139.097116 238.957586 
L 139.330818 239.032718 
L 139.202839 239.33794 
L 139.000668 239.614049 
L 138.603746 239.703268 
L 137.733857 239.667581 
L 137.383304 239.727686 
L 136.248182 240.14091 
L 135.85126 240.182233 
L 134.172689 240.078927 
L 133.822137 239.898611 
L 133.688593 239.597145 
L 133.900037 239.181103 
L 134.128174 239.06277 
L 135.229911 238.722799 
L 135.498853 238.819532 
L 136.30939 239.242147 
" clip-path="url(#pe6a1efc4c5)" style="fill: none; stroke: #000000; stroke-width: 2"/>
    <path d="M 131.902444 238.734069 
L 132.258561 238.864611 
L 133.29538 238.757548 
L 133.588435 238.864611 
L 133.313928 239.115363 
L 133.172965 239.389593 
L 133.126596 239.70139 
L 133.121032 240.062022 
L 133.024583 240.419837 
L 132.809429 240.645232 
L 132.501537 240.842452 
L 132.178806 240.97675 
L 130.149682 241.400305 
L 129.376241 241.329869 
L 129.155523 241.05376 
L 129.376241 240.617996 
L 130.105168 239.836627 
L 130.617085 239.036474 
L 131.056667 238.5237 
L 131.151261 238.30394 
L 131.24029 237.920769 
L 131.551892 238.114233 
L 131.902444 238.734069 
" clip-path="url(#pe6a1efc4c5)" style="fill: none; stroke: #000000; stroke-width: 2"/>
    <path d="M 99.511044 24.865872 
L 106.701404 27.63983 
L 108.018164 26.908099 
L 108.456299 26.817453 
L 110.105194 27.17169 
L 111.626889 28.038794 
L 114.825745 31.044437 
L 118.546359 35.080587 
L 120.965523 39.486479 
L 122.315261 41.028064 
L 123.881711 42.33528 
L 124.576603 42.599467 
L 125.33745 42.681764 
L 127.575236 42.583961 
L 128.062838 42.346015 
L 129.141686 41.403173 
L 130.526758 39.784061 
L 131.03556 39.687451 
L 133.412324 40.119811 
L 134.229705 40.124582 
L 134.943441 39.896177 
L 144.007652 34.600519 
L 144.789699 34.524185 
L 150.567898 35.338214 
L 151.458301 35.77594 
L 151.993014 36.282248 
L 153.724354 37.42487 
L 154.723113 37.757041 
L 155.024626 38.018842 
L 155.592317 38.693919 
L 158.035037 40.858102 
L 158.350682 40.954116 
L 158.704017 40.760299 
L 159.53082 40.608824 
L 159.80171 40.61121 
L 160.416512 40.741216 
L 160.960647 41.001824 
L 161.957051 41.744886 
L 162.402253 42.230321 
L 163.448123 43.77787 
L 164.284348 44.257342 
L 170.288681 46.020175 
L 178.577912 46.882509 
L 180.205607 46.514556 
L 185.529182 47.041736 
L 185.934339 46.814524 
L 186.353598 46.404776 
L 190.266221 41.819431 
L 191.467559 40.818742 
L 192.09885 40.547399 
L 192.204851 40.316013 
L 192.388585 39.511526 
L 192.791386 39.12449 
L 197.113846 36.721168 
L 198.065494 36.326379 
L 209.767937 33.835988 
L 211.963323 33.660659 
L 216.104405 34.140727 
L 227.203823 34.082284 
L 234.093848 35.812915 
L 236.611947 36.829705 
L 239.782536 38.752362 
L 241.280675 39.798374 
L 242.620991 40.119811 
L 243.699839 40.001732 
L 244.178019 39.675524 
L 244.557265 39.598594 
L 245.965892 40.142473 
L 246.283893 40.543821 
L 246.828028 40.228944 
L 247.223763 40.558134 
L 247.391008 40.674424 
L 247.60772 40.543821 
L 247.979899 40.651762 
L 249.932662 40.785346 
L 250.740621 41.012559 
L 251.058622 40.859295 
L 251.162267 40.586163 
L 251.461423 39.271194 
L 252.149248 39.125682 
L 252.455471 38.674836 
L 252.599161 38.16495 
L 252.236404 38.030769 
L 252.754628 36.890533 
L 253.70392 36.031182 
L 253.781654 36.164169 
L 254.102011 35.997786 
L 254.297522 35.703781 
L 254.325789 35.329865 
L 254.990058 35.878514 
L 255.336326 35.945306 
L 255.536549 35.824842 
L 255.694372 35.292891 
L 256.850954 34.76571 
L 257.43749 34.053659 
L 257.684824 33.568224 
L 257.998114 33.911129 
L 258.318471 33.88489 
L 258.309048 33.795436 
L 258.075847 33.352342 
L 258.139448 33.269448 
L 258.883806 33.045218 
L 258.867317 32.792959 
L 259.80012 31.847731 
L 259.352563 31.429088 
L 259.164118 31.376012 
L 259.164118 31.204261 
L 260.016832 31.421932 
L 260.111055 31.04563 
L 260.747057 31.186371 
L 261.375993 31.067099 
L 264.009514 29.836813 
L 264.638449 29.78493 
L 264.638449 29.928652 
L 264.513604 30.152882 
L 264.770361 30.247107 
L 265.580675 30.181508 
L 265.573608 30.430189 
L 265.743209 30.264998 
L 266.04001 29.78493 
L 266.261433 29.827867 
L 266.261433 30.244722 
L 266.181344 30.430189 
L 266.791435 30.157653 
L 267.957439 29.844565 
L 268.374374 29.312614 
L 268.00455 29.158754 
L 268.315485 28.800939 
L 268.621708 28.778278 
L 268.652331 28.46519 
L 268.543975 28.208756 
L 268.824287 27.767451 
L 270.079802 26.680887 
L 270.068025 26.284309 
L 270.27767 26.119714 
L 270.963139 26.004617 
L 276.600004 26.242564 
L 287.029265 40.693507 
L 289.592118 52.98146 
L 289.657298 54.875479 
L 289.775852 55.255969 
L 289.768786 55.698467 
L 289.648652 56.674108 
L 289.855942 57.024766 
L 290.157454 57.207252 
L 290.508433 57.2812 
L 295.19365 57.423134 
L 296.651744 57.77737 
L 297.273613 58.10656 
L 297.346636 58.341525 
L 297.228857 58.681449 
L 297.273613 58.894945 
L 297.436147 59.057154 
L 298.361884 59.840768 
L 298.050949 59.998207 
L 299.318243 60.858155 
L 299.596199 61.443778 
L 300.399447 61.101469 
L 300.670337 61.244595 
L 300.818737 61.709754 
L 300.208646 62.438503 
L 300.072023 62.706864 
L 299.730467 64.604475 
L 299.322954 64.871643 
L 299.36771 65.31414 
L 299.838823 66.561721 
L 299.758733 67.500388 
L 299.499621 68.229138 
L 298.842419 70.96642 
L 297.900193 72.271251 
L 297.933171 72.47282 
L 298.232328 72.786504 
L 298.790597 72.884307 
L 299.085042 73.351851 
L 299.711622 74.118768 
L 299.843534 74.582734 
L 299.768156 75.649022 
L 299.355932 76.774349 
L 299.082686 77.19657 
L 298.691663 77.406488 
L 297.035701 78.122714 
L 295.721296 79.152624 
L 293.942845 79.814581 
L 291.733326 81.76169 
L 290.840567 81.954313 
L 289.806475 82.901926 
L 289.321229 83.153589 
L 288.814782 83.282998 
L 288.343669 83.213821 
L 286.746597 82.534569 
L 285.849127 82.27575 
L 285.147169 82.278135 
L 284.270899 82.98303 
L 283.413474 83.853116 
L 282.659693 84.811463 
L 281.448933 87.055558 
L 280.214617 87.871972 
L 279.962572 88.26855 
L 279.861283 88.742058 
L 280.012039 89.618108 
L 279.72466 90.258596 
L 275.664845 96.062947 
L 275.038265 97.392228 
L 274.183195 100.279197 
L 273.405859 104.635591 
L 272.889991 106.369203 
L 273.083147 107.106898 
L 273.03368 107.415215 
L 272.404744 108.538753 
L 271.382429 109.228142 
L 270.958428 109.414206 
L 269.170555 109.609215 
L 268.409707 109.902027 
L 268.00455 110.688623 
L 268.011617 111.149607 
L 268.374374 112.347094 
L 268.280151 112.89455 
L 267.568771 114.210116 
L 267.60646 114.731929 
L 267.839661 115.101671 
L 268.501574 115.791657 
L 268.751264 116.311084 
L 268.694731 116.680826 
L 268.258951 117.612934 
L 267.964506 119.168831 
L 267.851439 120.6639 
L 267.213081 122.300903 
L 265.729075 122.893682 
L 263.936491 123.170989 
L 262.05204 124.104289 
L 261.140436 125.211129 
L 260.951991 125.341135 
L 259.463275 126.088371 
L 259.303096 126.507611 
L 259.411452 126.583944 
L 260.059232 126.685922 
L 260.280655 127.15287 
L 260.464389 127.844645 
L 260.356034 129.184661 
L 260.2147 129.582432 
L 259.161763 131.481831 
L 258.704783 132.580919 
L 258.678872 133.513026 
L 258.843761 134.354487 
L 258.330248 138.704321 
L 258.075847 139.694275 
L 257.583534 140.376509 
L 257.279667 140.506515 
L 256.123085 140.564361 
L 255.958195 140.835704 
L 255.423482 142.231181 
L 255.018325 142.67845 
L 252.332982 144.001171 
L 251.996136 143.935572 
L 250.964399 143.510965 
L 250.54982 143.55927 
L 249.324926 144.082276 
L 248.373279 143.826439 
L 248.559368 144.160399 
L 249.157681 145.796209 
L 249.171815 146.435504 
L 248.973947 146.647808 
L 248.116522 147.362841 
L 247.789099 147.907912 
L 247.518209 148.102921 
L 247.037674 148.170905 
L 246.161404 148.022412 
L 245.66438 148.230541 
L 245.141444 148.979567 
L 244.964777 149.975484 
L 245.021311 151.02567 
L 245.362868 153.349081 
L 245.188556 153.84525 
L 244.258108 155.177514 
L 244.128552 155.73809 
L 244.130907 156.634416 
L 244.345264 158.803966 
L 243.483127 159.711622 
L 241.21943 162.883053 
L 240.244227 164.85819 
L 240.211249 165.852915 
L 240.536316 167.206648 
L 240.446805 167.676578 
L 239.803736 168.189445 
L 239.196 169.103065 
L 236.428213 171.827228 
L 235.014874 173.947877 
L 233.964292 174.899664 
L 234.096204 175.034441 
L 234.637984 175.138207 
L 234.958341 175.412531 
L 236.091367 177.066828 
L 236.979415 178.042469 
L 237.262082 178.620937 
L 237.054793 179.144539 
L 236.835725 179.235185 
L 236.183234 179.061049 
L 235.610832 179.31629 
L 234.237538 180.630662 
L 234.065582 181.0338 
L 233.554424 181.104171 
L 232.8666 181.278307 
L 232.699354 181.700528 
L 231.380239 182.539008 
L 229.978678 183.836682 
L 229.566454 184.422306 
L 229.439254 185.040729 
L 229.587654 185.38602 
L 230.089389 185.957331 
L 230.200101 186.371799 
L 229.992811 187.612224 
L 229.333253 189.167525 
L 228.793829 189.924303 
L 228.174316 190.273769 
L 227.27449 190.363819 
L 226.673821 190.854621 
L 226.332264 191.635254 
L 226.049597 193.118396 
L 225.604395 193.537635 
L 225.020215 193.829254 
L 224.207546 193.949718 
L 223.378387 193.854301 
L 222.999141 194.1328 
L 222.834252 194.108946 
L 222.457361 193.905588 
L 220.375043 194.125644 
L 219.762596 194.039768 
L 219.388061 193.690899 
L 218.940504 192.591812 
L 218.556547 190.809298 
L 218.483525 189.908201 
L 218.521214 188.991599 
L 218.450547 187.891915 
L 218.012412 186.964579 
L 217.235076 186.347945 
L 215.110357 185.955542 
L 214.382487 185.220829 
L 213.925508 184.212388 
L 213.715863 183.161605 
L 213.343684 182.240829 
L 212.59697 181.730346 
L 210.724296 181.019488 
L 208.116687 179.635938 
L 207.994197 178.500472 
L 207.572551 177.956594 
L 207.242772 178.606624 
L 206.766948 180.3134 
L 206.536103 182.157338 
L 206.262858 182.296886 
L 205.796456 182.988661 
L 205.702233 183.350054 
L 205.6881 183.868885 
L 199.818034 183.953568 
L 199.189098 183.765119 
L 198.710919 183.389414 
L 198.473007 182.93976 
L 198.145583 181.241333 
L 197.959494 180.86682 
L 197.641493 180.798835 
L 197.10678 181.105363 
L 191.526448 185.876226 
L 190.991735 186.102842 
L 189.564263 185.71342 
L 189.137906 186.198856 
L 187.387722 191.793885 
L 187.102699 192.021693 
L 186.012072 192.028253 
L 185.336025 192.166012 
L 184.996824 192.453457 
L 184.464467 193.472036 
L 184.104065 193.828061 
L 182.728223 194.40428 
L 182.591793 194.45543 
L 181.920457 194.878247 
L 181.230277 196.224227 
L 180.594275 196.612456 
L 179.67796 196.63631 
L 179.36467 196.809851 
L 179.053736 197.167069 
L 178.4036 198.553601 
L 177.821776 199.376575 
L 174.695942 201.921234 
L 172.592423 204.133125 
L 171.817443 205.156475 
L 171.329841 205.504151 
L 171.197929 206.462498 
L 170.795128 206.512593 
L 169.808146 206.261526 
L 168.065029 207.956375 
L 168.107429 208.424516 
L 168.552631 209.193221 
L 168.451341 209.772881 
L 168.050895 210.268454 
L 167.648094 210.569615 
L 167.473782 210.90119 
L 167.772939 211.485024 
L 169.169788 212.786873 
L 169.402989 213.402315 
L 169.3017 213.959313 
L 168.043829 215.773433 
L 168.168674 217.158176 
L 168.017918 217.674622 
L 167.52796 218.65086 
L 167.407826 219.51379 
L 167.619827 220.317084 
L 166.844847 223.750316 
L 165.85551 224.27034 
L 165.27133 225.263276 
L 164.722483 226.726141 
L 163.488168 228.64045 
L 163.349189 229.0579 
L 162.72732 229.522463 
L 162.527097 229.876103 
L 162.753232 231.017532 
L 162.343265 231.400148 
L 162.352285 231.395581 
L 162.150114 231.178638 
L 161.944234 231.128863 
L 161.521346 231.419999 
L 161.228291 231.838858 
L 160.981606 232.48499 
L 160.938946 232.947989 
L 161.0762 233.493633 
L 160.875884 233.856144 
L 160.614361 233.967902 
L 159.490367 233.792282 
L 159.840919 232.948929 
L 159.744471 232.849379 
L 158.802246 233.17808 
L 158.127107 232.922633 
L 158.086302 232.28777 
L 158.416452 230.657412 
L 158.275489 230.657412 
L 158.123398 231.444416 
L 157.620754 231.850128 
L 156.969728 231.81444 
L 156.3762 231.271614 
L 156.546839 230.957939 
L 156.368781 230.91286 
L 155.912506 230.657412 
L 156.016374 230.345615 
L 155.829041 230.088289 
L 154.640131 229.290015 
L 154.254337 228.411913 
L 154.091117 228.20624 
L 153.558797 228.011837 
L 152.800194 227.334713 
L 152.800194 227.476524 
L 154.354495 229.066498 
L 154.948023 230.167178 
L 155.037052 230.704369 
L 154.666097 230.957939 
L 155.044471 231.641637 
L 155.523003 232.074584 
L 155.751141 232.2765 
L 156.094274 233.268238 
L 156.3762 233.65141 
L 156.116531 234.31163 
L 156.083145 234.524816 
L 156.174029 234.855395 
L 156.858441 235.241385 
L 156.925213 235.779515 
L 155.912506 236.745897 
L 155.600904 237.447439 
L 155.161322 237.596763 
L 154.169018 237.595824 
L 152.870675 237.447439 
L 150.919452 237.447439 
L 149.530226 237.320654 
L 148.771623 237.72167 
L 148.330186 237.777079 
L 147.326753 237.777079 
L 143.43358 238.234443 
L 143.218426 238.104841 
L 142.929082 238.070093 
L 142.658284 238.16119 
L 142.48579 238.407246 
L 143.118269 238.474865 
L 143.264796 238.565023 
L 142.77328 238.695564 
L 142.03508 238.734069 
L 141.367361 238.627007 
L 141.072452 238.320845 
L 140.755285 238.236322 
L 138.73729 238.092632 
L 138.813336 237.9959 
L 139.047038 237.777079 
L 138.757693 237.686921 
L 138.301418 237.712278 
L 138.334804 237.312202 
L 138.648261 237.073659 
L 138.670518 236.717722 
L 138.323675 236.097886 
L 138.425688 235.871552 
L 138.0807 235.472414 
L 138.1586 234.885448 
L 138.568506 233.807308 
L 138.425688 233.807308 
L 137.872965 234.297543 
L 137.802484 234.524816 
L 137.923044 235.351265 
L 137.728293 235.771063 
L 138.114086 236.343003 
L 136.930739 237.173208 
L 136.556075 236.974109 
L 136.359469 237.450256 
L 135.864244 237.398603 
L 135.07411 236.974109 
L 133.911166 236.823846 
L 133.406667 236.582485 
L 133.121032 236.187105 
L 132.826122 236.322342 
L 132.342026 236.414378 
L 132.236304 236.740262 
L 132.019295 236.831359 
L 132.019295 236.974109 
L 132.330897 237.145973 
L 132.189935 237.291541 
L 132.482989 237.398603 
L 132.870637 237.712278 
L 133.493841 237.84188 
L 133.605128 237.999657 
L 133.432634 238.407246 
L 132.414362 238.565023 
L 132.303076 238.442934 
L 131.791158 237.691617 
L 130.349998 236.100703 
L 130.149682 235.627374 
L 130.08662 234.780264 
L 129.938238 234.779325 
L 129.615507 234.93804 
L 129.044236 234.911744 
L 128.26894 234.12474 
L 127.894276 233.074774 
L 127.645736 232.719777 
L 127.501064 233.168689 
L 127.323005 233.349005 
L 127.506628 233.624175 
L 127.656865 233.643897 
L 127.801537 233.807308 
L 128.241119 234.942736 
L 128.658443 235.083608 
L 129.365112 235.445179 
L 129.87703 236.232184 
L 129.960495 236.99477 
L 129.370677 237.291541 
L 130.010574 237.836245 
L 130.216454 238.2382 
L 130.071782 238.643911 
L 129.443013 239.355784 
L 129.05351 239.530465 
L 128.580543 239.33794 
L 128.580543 239.81127 
L 127.846052 239.359541 
L 127.708798 239.017691 
L 127.801537 238.565023 
L 127.497354 238.839254 
L 127.438001 239.225243 
L 127.562271 239.63565 
L 127.801537 239.983134 
L 127.011403 240.14091 
L 126.736896 239.602779 
L 126.599643 239.025205 
L 126.54029 237.849393 
L 126.059903 236.833237 
L 126.41602 236.470727 
L 126.595933 235.563512 
L 126.54029 235.241385 
L 126.658996 235.297733 
L 127.011403 235.385074 
L 126.861166 235.128687 
L 126.306588 234.356709 
L 126.091435 233.65141 
L 125.664836 234.244011 
L 125.520164 234.237437 
L 125.427425 233.861779 
L 125.158483 233.349005 
L 125.047196 233.703063 
L 125.10284 234.252464 
L 125.002682 234.438415 
L 125.256786 234.812195 
L 125.764994 236.187105 
L 125.368072 236.159869 
L 125.067599 235.935414 
L 124.846881 236.029328 
L 124.403589 235.190671 
L 123.743289 234.438415 
L 123.900945 235.131504 
L 124.535278 236.264115 
L 124.290448 236.575911 
L 124.214402 236.711148 
L 124.379477 236.974109 
L 124.607615 236.617234 
L 125.030503 236.506414 
L 125.438554 236.607842 
L 125.624031 236.903673 
L 125.405168 238.492709 
L 125.453392 239.036474 
L 126.514323 241.250981 
L 126.380779 241.47262 
L 126.160061 241.572169 
L 125.616612 241.422845 
L 125.191869 241.226563 
L 125.204852 241.331748 
L 125.314284 241.572169 
L 123.800788 241.06503 
L 123.275886 241.258494 
L 123.016218 240.988959 
L 122.838159 240.622692 
L 122.801064 240.211346 
L 122.964284 239.81127 
L 122.574781 239.607475 
L 122.222374 239.002665 
L 121.875531 237.691617 
L 122.031332 237.044545 
L 122.355918 236.660434 
L 122.554379 236.055624 
L 122.487607 235.709079 
L 121.524979 235.219784 
L 121.120638 234.446867 
L 120.705168 232.453059 
L 120.783069 232.159107 
L 121.174426 231.558992 
L 121.116928 231.359893 
L 120.909193 231.342049 
L 120.629122 231.602193 
L 120.339777 231.173942 
L 120.304537 230.957939 
L 119.918744 231.091297 
L 119.527386 230.957939 
L 119.783345 232.097123 
L 120.27486 232.407041 
L 120.439935 232.818387 
L 121.018625 235.083608 
L 121.30797 235.238567 
L 121.606589 235.602017 
L 122.031332 236.343003 
L 121.408128 236.974109 
L 121.363613 237.299054 
L 122.044316 240.247973 
L 122.355918 240.61424 
L 122.307694 241.149553 
L 123.064442 241.89054 
L 122.498735 242.203275 
L 120.872098 242.394861 
L 120.028175 242.31879 
L 119.527386 242.031412 
L 119.458759 241.698954 
L 119.655365 240.169085 
L 119.633108 239.940872 
L 119.371585 239.667581 
L 119.45505 238.492709 
L 120.017047 236.864229 
L 119.994789 236.187105 
L 119.562627 236.724296 
L 119.213929 237.695374 
L 119.059983 238.741582 
L 119.215784 239.509804 
L 119.115626 239.70139 
L 119.059983 240.456463 
L 118.776202 239.618745 
L 118.592579 237.920769 
L 118.279122 238.318027 
L 118.125176 238.407246 
L 118.247591 238.734069 
L 118.358878 240.185989 
L 118.817007 241.13077 
L 119.059983 242.203275 
L 118.891198 242.449332 
L 118.659351 242.530098 
L 117.181096 242.445575 
L 116.932556 241.699893 
L 116.865784 240.986142 
L 116.89546 239.935237 
L 116.799012 239.090945 
L 116.455879 238.495526 
L 115.764048 238.565023 
L 116.400235 239.073101 
L 116.628373 239.885462 
L 116.544908 240.825548 
L 116.244434 241.715858 
L 116.19992 242.487837 
L 115.066652 242.75925 
L 113.742343 242.631526 
L 113.117284 242.203275 
L 112.510772 242.346965 
L 112.683266 242.779911 
L 112.310457 242.92454 
L 111.320007 243.071046 
L 110.88228 243.26545 
L 109.834332 243.294563 
L 109.383622 243.463609 
L 108.843882 242.820294 
L 109.305721 241.839826 
L 110.79696 240.14091 
L 109.991988 240.14091 
L 109.212983 241.085691 
L 109.109115 239.842262 
L 108.745579 238.722799 
L 108.604616 238.722799 
L 108.619455 239.76713 
L 108.90138 240.75699 
L 108.678807 240.532534 
L 108.229952 240.076109 
L 107.814482 239.983134 
L 108.463653 241.262251 
L 108.433977 241.873635 
L 108.122375 242.662518 
L 107.654972 242.965862 
L 107.658681 243.292685 
L 107.985122 243.203466 
L 108.293014 243.292685 
L 108.165035 243.510567 
L 107.519573 243.732205 
L 106.673796 243.778223 
L 106.10067 243.621386 
L 105.789068 243.936 
L 105.421823 243.797946 
L 105.217797 243.565037 
L 105.139897 243.240093 
L 105.249328 242.436184 
L 105.618429 241.572169 
L 105.154735 241.715858 
L 105.240055 240.728816 
L 104.754104 240.639597 
L 104.481452 240.526899 
L 104.20509 240.61424 
L 104.136464 240.849026 
L 104.279281 241.51582 
L 104.375729 241.715858 
L 104.279281 242.019203 
L 104.687332 242.905757 
L 104.626124 243.403504 
L 104.448066 243.379086 
L 104.179123 243.140543 
L 103.834135 242.992158 
L 103.329636 242.96774 
L 103.147868 242.845651 
L 103.114483 242.031412 
L 103.292541 241.927166 
L 102.958681 241.400305 
L 102.821428 240.61424 
L 102.650789 241.400305 
L 102.183385 241.085691 
L 102.598855 242.259624 
L 102.339187 242.518828 
L 101.994198 242.481263 
L 100.198776 241.279155 
L 99.927979 240.717546 
L 100.161681 240.14091 
L 99.742502 240.191624 
L 99.673875 240.357853 
L 99.694278 240.61424 
L 99.55146 240.61424 
L 99.17865 240.227312 
L 98.258682 239.693877 
L 97.98232 239.33794 
L 98.139976 239.439368 
L 98.60367 239.667581 
L 98.427466 239.376445 
L 97.514917 239.036474 
L 96.099724 237.526327 
L 93.98528 235.527824 
L 93.347238 234.632818 
L 93.128374 233.65141 
L 93.224822 233.683341 
L 93.45296 233.807308 
L 93.451105 233.379058 
L 92.453236 232.757343 
L 91.262471 230.657412 
L 92.039621 231.128863 
L 91.84487 230.578524 
L 91.115943 229.750197 
L 90.483465 227.963941 
L 90.15888 226.530804 
L 89.745265 225.57757 
L 89.61914 225.0169 
L 89.300119 224.603676 
L 89.224073 224.239287 
L 89.335359 223.959421 
L 89.608011 223.85048 
L 90.314681 223.995109 
L 90.561366 224.203599 
L 90.973126 224.776478 
L 91.262471 224.954916 
L 90.780229 223.695521 
L 91.728019 223.852359 
L 91.561089 223.578128 
L 90.702329 222.748862 
L 90.617009 222.845594 
L 90.553947 223.364003 
L 90.179282 223.396873 
L 89.847277 223.521779 
L 89.546804 223.390299 
L 88.999645 223.486092 
L 88.758524 223.364003 
L 88.71401 223.177112 
L 88.758524 222.342211 
L 88.656512 221.275341 
L 88.179835 219.198889 
L 88.305959 218.893667 
L 88.836425 218.780969 
L 90.348067 218.750916 
L 90.780229 218.624132 
L 90.898935 218.990399 
L 91.093686 219.269325 
L 91.277309 219.12094 
L 91.574073 218.624132 
L 91.705762 218.531156 
L 92.872415 218.147985 
L 93.219258 218.162072 
L 93.597632 218.320787 
L 93.425138 218.027774 
L 92.879834 217.546931 
L 92.579361 216.883894 
L 92.596054 216.141968 
L 92.740726 215.865859 
L 93.043055 215.668639 
L 93.388043 215.599142 
L 94.1485 215.614168 
L 94.421152 215.482688 
L 95.010971 214.669387 
L 94.64558 214.821529 
L 94.014957 215.268562 
L 93.597632 215.141778 
L 93.391752 215.355903 
L 93.284175 215.471418 
L 92.757419 215.354964 
L 92.212115 215.629194 
L 91.894949 216.14009 
L 92.039621 216.73363 
L 91.778098 217.29524 
L 91.477624 217.638967 
L 91.106669 217.725369 
L 90.490884 217.362858 
L 90.36476 217.105532 
L 90.080979 217.062332 
L 89.960419 217.193812 
L 90.170008 217.813649 
L 90.314681 218.007113 
L 88.995936 217.931981 
L 86.317641 216.939303 
L 86.128454 216.561767 
L 84.939543 215.563454 
L 84.770758 215.069463 
L 84.783742 214.353834 
L 84.937688 214.268372 
L 85.505249 213.722728 
L 85.674034 213.692675 
L 88.751105 213.927462 
L 89.379874 214.197936 
L 89.602447 213.871113 
L 90.15888 212.777947 
L 90.453789 212.650223 
L 91.162313 212.76292 
L 91.466496 213.104769 
L 91.651973 213.722728 
L 92.006235 213.645718 
L 92.039621 213.251276 
L 91.870837 212.890644 
L 91.02135 212.166562 
L 90.624428 211.990942 
L 90.192265 212.000334 
L 89.975257 212.229485 
L 89.691476 212.935723 
L 89.45221 213.152666 
L 88.665786 213.435349 
L 88.289266 213.409053 
L 87.857104 213.163936 
L 87.671626 212.837113 
L 87.679045 212.442671 
L 88.157577 210.845184 
L 88.120482 210.414116 
L 87.979519 210.414116 
L 87.10963 212.589178 
L 86.81472 212.885009 
L 86.421508 213.045603 
L 85.629519 213.15924 
L 84.522218 213.690797 
L 84.077072 213.409053 
L 83.370403 212.639892 
L 83.086623 212.161867 
L 82.656315 211.191729 
L 82.446725 210.779443 
L 82.36326 210.242252 
L 82.556157 209.256148 
L 82.767601 208.829776 
L 83.047672 208.651338 
L 83.309196 208.741496 
L 83.93611 209.152842 
L 84.054815 209.005396 
L 83.93611 208.337663 
L 84.652053 207.702801 
L 86.521666 207.013467 
L 87.044712 206.131609 
L 86.56989 206.217071 
L 85.790885 206.920492 
L 84.889464 207.195662 
L 82.830664 208.357385 
L 81.680703 209.443978 
L 81.445147 209.423316 
L 80.593805 207.537511 
L 77.360932 203.465373 
L 76.465076 203.074688 
L 76.049606 202.601358 
L 75.474626 201.690387 
L 74.678928 200.851729 
L 73.977823 200.279789 
L 71.509117 198.707658 
L 70.110617 197.38534 
L 68.871627 196.658441 
L 66.877744 195.773766 
L 60.502883 194.585746 
L 54.67889 194.094572 
L 44.442387 194.501222 
L 43.617012 193.796863 
L 43.984257 193.647539 
L 44.2532 193.796863 
L 44.609316 193.469101 
L 44.741005 193.593068 
L 44.876404 194.28428 
L 45.811211 193.560198 
L 45.889111 193.743331 
L 46.067169 193.751784 
L 46.362079 193.639086 
L 47.181889 193.559259 
L 47.534296 193.37143 
L 47.847753 193.00798 
L 47.83848 192.500841 
L 47.853318 192.300803 
L 48.081455 192.220036 
L 49.492939 192.122365 
L 50.496372 191.799299 
L 50.80241 191.891335 
L 51.770602 191.41331 
L 52.093333 191.044225 
L 52.215748 190.551174 
L 52.499529 190.437537 
L 54.396964 190.157671 
L 54.079797 189.958572 
L 53.773759 189.999895 
L 52.477272 189.691855 
L 51.195622 190.182089 
L 49.973326 190.89584 
L 48.866025 191.261168 
L 48.214999 191.295916 
L 47.152213 191.821838 
L 46.534573 191.836865 
L 45.750003 191.559817 
L 45.631297 190.978485 
L 45.811211 190.157671 
L 45.143492 190.629123 
L 44.45908 191.252716 
L 44.013934 191.312821 
L 43.962 191.666879 
L 44.097398 192.220036 
L 44.006515 192.466093 
L 43.272024 193.670078 
L 43.720879 194.363168 
L 43.607738 194.87782 
L 42.277864 195.022449 
L 39.725694 194.90036 
L 36.720959 195.2516 
L 33.196886 195.07598 
L 28.093791 195.554989 
L 28.103294 194.148305 
L 28.434794 192.41729 
L 28.857075 191.177251 
L 28.904186 190.688834 
L 28.715741 189.242666 
L 28.977208 188.746496 
L 29.796945 187.92889 
L 29.676811 186.630022 
L 29.542544 186.52566 
L 29.026675 186.428453 
L 28.659207 186.053941 
L 28.543785 185.59892 
L 28.605029 185.099172 
L 28.847652 184.131283 
L 28.734585 183.163991 
L 28.426006 182.278995 
L 28.350628 181.441709 
L 28.941875 180.611579 
L 29.733344 180.271655 
L 29.822856 180.022377 
L 29.690944 179.80411 
L 28.897119 179.061049 
L 28.833519 178.60066 
L 29.398854 177.552263 
L 29.42241 177.232615 
L 29.000764 171.300048 
L 29.175076 171.198667 
L 29.994812 171.123526 
L 30.04899 170.917186 
L 30.110235 169.952279 
L 29.606144 169.106644 
L 28.932453 168.29679 
L 28.475473 167.438034 
L 28.355339 166.532763 
L 28.562629 162.334404 
L 28.360051 162.002829 
L 27.81356 161.388581 
L 27.39898 160.075401 
L 27.71227 159.430141 
L 27.799426 157.975028 
L 28.086805 156.513355 
L 28.197517 154.711162 
L 28.791119 153.51129 
L 28.802897 153.004982 
L 28.647429 152.513583 
L 28.023205 151.043561 
L 27.969027 150.051818 
L 28.143339 148.881764 
L 28.091516 148.250817 
L 28.21165 147.96218 
L 28.847652 147.174391 
L 29.026675 146.394952 
L 28.534362 139.825474 
L 28.663918 139.651337 
L 29.170365 139.352562 
L 29.198631 139.148011 
L 29.052586 138.588628 
L 29.137387 138.232602 
L 29.42241 137.575416 
L 29.344676 137.061952 
L 29.135031 136.970709 
L 29.15152 136.733955 
L 29.481299 136.205582 
L 29.606144 135.573443 
L 29.582588 133.498714 
L 31.646063 133.600691 
L 32.545888 133.02938 
L 33.492825 133.036536 
L 34.458606 133.416416 
L 36.015634 133.010297 
L 36.576258 132.619086 
L 36.924882 131.897493 
L 37.683374 129.529952 
L 38.293465 128.153558 
L 38.218087 126.269664 
L 37.775241 124.900426 
L 37.864752 124.261131 
L 38.467776 123.425633 
L 39.004845 123.151905 
L 40.420539 121.207779 
L 40.272139 120.758125 
L 40.444095 120.189199 
L 40.811563 120.075891 
L 41.659566 120.183236 
L 42.401569 119.766382 
L 42.561747 119.161675 
L 42.019967 117.295075 
L 42.07179 116.772665 
L 42.272013 116.311084 
L 42.639481 116.037356 
L 44.278953 115.362279 
L 45.167001 115.125525 
L 46.537939 115.275211 
L 46.940741 114.897716 
L 47.54141 113.799225 
L 48.278701 112.916019 
L 48.509547 112.45742 
L 48.65088 110.485861 
L 48.799281 110.112541 
L 49.152616 109.773213 
L 49.769773 109.401086 
L 49.996142 108.765498 
L 50.057152 108.352093 
L 49.991196 107.991296 
L 49.786262 107.70087 
L 48.236301 106.099053 
L 47.911233 105.572469 
L 47.890033 105.140706 
L 48.35879 104.096483 
L 49.02306 102.935971 
L 49.110215 102.334842 
L 49.260972 102.118364 
L 49.706173 101.676463 
L 50.15373 101.531548 
L 50.634265 101.616827 
L 52.094715 102.381358 
L 52.450405 102.326493 
L 52.796673 101.894134 
L 52.947429 101.467142 
L 52.970985 100.275619 
L 53.175919 99.660177 
L 53.757744 98.508014 
L 53.9297 97.888994 
L 53.809566 95.949639 
L 53.599921 95.503563 
L 52.987474 95.275754 
L 52.695384 95.186897 
L 52.481028 94.93106 
L 52.153604 93.926197 
L 51.482269 93.092488 
L 51.510535 92.692929 
L 52.005204 91.477551 
L 52.031115 90.797703 
L 51.562358 88.736094 
L 51.159556 87.918488 
L 51.067689 86.957755 
L 51.30089 86.06143 
L 51.110089 85.877751 
L 50.495287 85.873577 
L 49.944085 85.350571 
L 45.520336 78.972524 
L 45.480291 78.441765 
L 46.35185 75.808846 
L 47.934789 73.120464 
L 48.436524 72.59567 
L 49.88284 71.618835 
L 50.045374 71.12028 
L 49.932307 70.66347 
L 49.651995 70.240056 
L 48.813414 69.290654 
L 48.740392 69.064038 
L 48.60848 67.753244 
L 48.712125 67.375153 
L 49.739151 65.878295 
L 49.633151 65.088717 
L 49.06546 63.398639 
L 49.077238 62.396758 
L 49.69204 59.364875 
L 49.560128 53.375057 
L 54.544502 49.656169 
L 56.019085 48.254728 
L 59.658432 42.580383 
L 60.454613 37.10224 
L 60.501724 31.576985 
L 62.661776 31.400463 
L 63.297778 31.088568 
L 66.882947 27.693503 
L 67.950018 26.942688 
L 69.184333 26.460235 
L 77.164985 24.627031 
L 77.68792 24.85961 
L 78.201433 25.345046 
L 78.719657 25.573451 
L 80.043484 25.65217 
L 82.349582 25.240087 
L 85.614394 25.383212 
L 86.660264 25.124989 
L 87.359867 24.630609 
L 87.675512 24.261463 
L 88.318581 23.06994 
L 88.952228 22.753871 
L 92.318329 22.176 
L 93.060332 22.334631 
L 99.511044 24.865872 
L 99.511044 24.865872 
" clip-path="url(#pe6a1efc4c5)" style="fill: none; stroke: #000000; stroke-width: 2"/>
   </g>
  </g>
 </g>
 <defs>
  <clipPath id="pe6a1efc4c5">
   <rect x="0" y="-0" width="328.165895" height="266.112"/>
  </clipPath>
 </defs>
</svg>
