<?xml version="1.0" encoding="utf-8" standalone="no"?>
<!DOCTYPE svg PUBLIC "-//W3C//DTD SVG 1.1//EN"
  "http://www.w3.org/Graphics/SVG/1.1/DTD/svg11.dtd">
<svg xmlns:xlink="http://www.w3.org/1999/xlink" width="357.12pt" height="233.348836pt" viewBox="0 0 357.12 233.348836" xmlns="http://www.w3.org/2000/svg" version="1.1">
 <metadata>
  <rdf:RDF xmlns:dc="http://purl.org/dc/elements/1.1/" xmlns:cc="http://creativecommons.org/ns#" xmlns:rdf="http://www.w3.org/1999/02/22-rdf-syntax-ns#">
   <cc:Work>
    <dc:type rdf:resource="http://purl.org/dc/dcmitype/StillImage"/>
    <dc:date>2024-02-02T21:58:04.032830</dc:date>
    <dc:format>image/svg+xml</dc:format>
    <dc:creator>
     <cc:Agent>
      <dc:title>Matplotlib v3.8.2, https://matplotlib.org/</dc:title>
     </cc:Agent>
    </dc:creator>
   </cc:Work>
  </rdf:RDF>
 </metadata>
 <defs>
  <style type="text/css">*{stroke-linejoin: round; stroke-linecap: butt}</style>
 </defs>
 <g id="figure_1">
  <g id="patch_1">
   <path d="M 0 233.348836 
L 357.12 233.348836 
L 357.12 0 
L 0 0 
L 0 233.348836 
z
" style="fill: none"/>
  </g>
  <g id="axes_1">
   <g id="PatchCollection_1">
    <path d="M 30.468794 213.880812 
L 30.448136 213.9031 
L 30.402174 213.89567 
L 30.380715 213.874906 
L 30.298241 213.668217 
L 30.279505 213.584589 
L 30.272138 213.499246 
L 30.289594 213.352754 
L 30.291996 213.257696 
L 30.272138 213.162067 
L 30.211924 213.05615 
L 30.138258 213.005097 
L 29.947368 212.970427 
L 29.86057 212.939947 
L 29.786263 212.881274 
L 29.76 212.80298 
L 29.81541 212.711732 
L 29.786103 212.682776 
L 29.802918 212.626961 
L 29.828221 212.581241 
L 29.866015 212.554 
L 29.920464 212.554762 
L 29.980037 212.591528 
L 30.062831 212.718971 
L 30.096461 212.746783 
L 30.163561 212.766405 
L 30.4089 212.903562 
L 30.534773 212.924136 
L 30.570165 212.938423 
L 30.597229 212.961283 
L 30.638386 213.004716 
L 30.65488 213.047387 
L 30.6094 213.066056 
L 30.572887 213.116347 
L 30.601393 213.361326 
L 30.594667 213.452765 
L 30.560716 213.482863 
L 30.488972 213.487816 
L 30.462709 213.516772 
L 30.46463 213.557919 
L 30.504026 213.678694 
L 30.513954 213.724223 
L 30.507228 213.768799 
L 30.490253 213.828425 
L 30.468794 213.880812 
" clip-path="url(#pa09b8ca888)" style="fill: none; stroke: #000000; stroke-width: 2"/>
    <path d="M 51.282209 188.386527 
L 51.243563 188.42306 
L 51.155551 188.408301 
L 51.101971 188.294026 
L 51.092362 188.137247 
L 51.14488 188.174409 
L 51.170632 188.237827 
L 51.217849 188.26227 
L 51.297319 188.32562 
L 51.282209 188.386527 
" clip-path="url(#pa09b8ca888)" style="fill: none; stroke: #000000; stroke-width: 2"/>
    <path d="M 50.177944 187.703676 
L 50.142873 187.720249 
L 50.091947 187.677768 
L 50.101395 187.600045 
L 50.142712 187.569375 
L 50.174741 187.590901 
L 50.200684 187.652241 
L 50.177944 187.703676 
" clip-path="url(#pa09b8ca888)" style="fill: none; stroke: #000000; stroke-width: 2"/>
    <path d="M 313.725689 29.756192 
L 313.809604 29.782862 
L 313.968466 29.782862 
L 314.11836 29.814865 
L 314.213485 29.804579 
L 314.597829 29.681327 
L 314.650676 29.635036 
L 314.671815 29.541693 
L 314.709289 29.500164 
L 314.794165 29.503212 
L 314.886087 29.529501 
L 314.942778 29.556171 
L 314.968721 29.585507 
L 315.01292 29.658467 
L 315.047831 29.687042 
L 315.091711 29.698281 
L 315.186836 29.707806 
L 315.226231 29.731809 
L 315.251534 29.739429 
L 315.387655 29.74781 
L 315.455236 29.672183 
L 315.480218 29.654848 
L 315.557087 29.661325 
L 315.643422 29.698981 
L 315.641337 29.718568 
L 315.61205 29.827558 
L 315.590085 29.87413 
L 315.435108 30.03199 
L 315.239861 30.146544 
L 314.752151 30.329928 
L 314.572768 30.435047 
L 314.4845 30.456216 
L 314.018756 30.460571 
L 313.969944 30.444483 
L 313.91137 30.392467 
L 313.904862 30.343597 
L 313.91137 30.291582 
L 313.891032 30.230253 
L 313.816594 30.193721 
L 313.335393 30.074328 
L 313.234922 30.06211 
L 313.137705 30.066344 
L 312.981101 30.092594 
L 312.918053 30.095376 
L 312.860292 30.106142 
L 312.817175 30.139286 
L 312.809854 30.193358 
L 312.820023 30.252631 
L 312.808633 30.296905 
L 312.622335 30.318678 
L 312.496645 30.30767 
L 312.405566 30.27624 
L 312.377464 30.266542 
L 312.281874 30.188277 
L 312.226147 30.070699 
L 312.228995 29.961588 
L 312.245265 29.845461 
L 312.211207 29.665168 
L 312.211374 29.665135 
L 312.846823 29.511975 
L 312.905115 29.476162 
L 312.96661 29.470828 
L 313.215793 29.591031 
L 313.599496 29.672755 
L 313.725689 29.756192 
" clip-path="url(#pa09b8ca888)" style="fill: none; stroke: #000000; stroke-width: 2"/>
    <path d="M 314.832279 28.136587 
L 314.851496 28.161161 
L 314.876478 28.186307 
L 314.915873 28.210881 
L 315.08018 28.24479 
L 315.154807 28.284032 
L 315.162814 28.359469 
L 315.122138 28.406712 
L 315.05744 28.440049 
L 314.987618 28.460051 
L 314.685267 28.503865 
L 314.615445 28.501199 
L 314.469074 28.460813 
L 314.384198 28.416237 
L 314.346404 28.352992 
L 314.321422 28.292795 
L 314.259286 28.2566 
L 314.104908 28.210881 
L 314.078645 28.192022 
L 314.053982 28.166876 
L 314.020993 28.146874 
L 313.968466 28.144017 
L 313.871419 28.22974 
L 313.848359 28.245742 
L 313.671881 28.253172 
L 313.591168 28.235455 
L 313.538641 28.178878 
L 313.549531 28.027433 
L 313.692699 27.958663 
L 314.024196 27.923231 
L 314.04053 27.918849 
L 314.104908 27.923231 
L 314.156794 27.944185 
L 314.534092 27.951996 
L 314.62121 27.966283 
L 314.685267 28.002859 
L 314.832279 28.136587 
" clip-path="url(#pa09b8ca888)" style="fill: none; stroke: #000000; stroke-width: 2"/>
    <path d="M 318.284647 21.538726 
L 318.284647 21.567872 
L 318.365359 21.567872 
L 318.337814 21.629212 
L 318.286569 21.702172 
L 318.177031 21.823519 
L 317.991585 21.933245 
L 317.903186 22.057068 
L 317.770587 22.085071 
L 317.632223 22.044114 
L 317.556956 21.925244 
L 317.581298 21.802755 
L 317.659127 21.664264 
L 317.756815 21.550727 
L 317.942581 21.435858 
L 318.035464 21.295462 
L 318.134112 21.179639 
L 318.257743 21.184402 
L 318.273757 21.211833 
L 318.282725 21.235836 
L 318.279843 21.258124 
L 318.257743 21.280412 
L 318.313473 21.345372 
L 318.353829 21.428428 
L 318.352868 21.502151 
L 318.284647 21.538726 
" clip-path="url(#pa09b8ca888)" style="fill: none; stroke: #000000; stroke-width: 2"/>
    <path d="M 318.454399 21.000572 
L 318.353829 21.063817 
L 318.230839 21.024384 
L 318.397388 20.870653 
L 318.654257 20.700921 
L 318.921697 20.58948 
L 319.119954 20.608911 
L 319.119954 20.640914 
L 319.0149 20.640914 
L 318.965576 20.661107 
L 318.850913 20.692348 
L 318.540235 20.908943 
L 318.454399 21.000572 
" clip-path="url(#pa09b8ca888)" style="fill: none; stroke: #000000; stroke-width: 2"/>
    <path d="M 320.387968 20.155718 
L 320.212772 20.210772 
L 320.072806 20.236299 
L 319.527358 20.407365 
L 319.415258 20.40546 
L 319.367215 20.334595 
L 319.411415 20.254015 
L 319.622163 20.201247 
L 319.691986 20.155718 
L 319.781666 20.157433 
L 320.310139 20.080282 
L 320.374516 20.043706 
L 320.427363 20.015132 
L 321.010925 19.934932 
L 320.919324 20.025228 
L 320.807864 20.053041 
L 320.578539 20.059708 
L 320.586226 20.07571 
L 320.595514 20.109999 
L 320.603201 20.126572 
L 320.551635 20.146003 
L 320.387968 20.155718 
" clip-path="url(#pa09b8ca888)" style="fill: none; stroke: #000000; stroke-width: 2"/>
    <path d="M 326.054797 20.025419 
L 326.329603 20.488326 
L 326.500636 20.561477 
L 326.888183 20.608911 
L 326.915087 20.640914 
L 326.868005 20.674442 
L 326.868966 20.694634 
L 327.015977 20.858462 
L 327.344591 20.91142 
L 327.320951 21.272995 
L 327.292477 21.523999 
L 327.343729 21.900081 
L 327.216006 22.373903 
L 326.822665 22.882442 
L 326.651417 23.809522 
L 326.049 23.734765 
L 325.405093 23.841699 
L 325.570239 24.119799 
L 325.286725 24.204233 
L 325.33513 24.277659 
L 325.456345 24.579347 
L 326.075033 24.704909 
L 326.424443 24.666926 
L 326.473662 24.627007 
L 326.768565 25.031032 
L 326.682331 25.660416 
L 326.049 26.048231 
L 325.912327 26.211656 
L 325.506784 26.336129 
L 325.299741 26.577214 
L 325.448617 26.628503 
L 325.837483 26.867531 
L 325.751656 26.9689 
L 325.463667 27.211799 
L 324.72356 27.318733 
L 324.384726 27.450101 
L 324.132532 27.395062 
L 324.164667 27.500665 
L 324.148396 27.547358 
L 324.000741 27.57772 
L 323.988945 27.504778 
L 323.142876 27.223654 
L 323.00905 27.27712 
L 323.057862 27.304459 
L 323.257583 27.479617 
L 323.101386 27.450464 
L 322.756857 27.479375 
L 322.359855 27.644977 
L 322.449343 27.695661 
L 322.494901 27.88086 
L 322.404193 27.995414 
L 322.443242 28.007148 
L 322.729604 28.10017 
L 322.676724 28.232748 
L 322.767026 28.317908 
L 323.033456 28.40464 
L 322.983424 28.633749 
L 323.432085 29.190675 
L 323.438186 29.648045 
L 323.365782 29.850179 
L 323.224635 29.932314 
L 322.85448 30.535207 
L 322.974882 30.660164 
L 323.261244 30.582625 
L 323.140028 30.651334 
L 323.222601 30.709034 
L 323.164027 30.767219 
L 322.522968 31.117898 
L 322.326501 31.282774 
L 322.062511 31.221686 
L 322.203251 31.575752 
L 322.516459 31.557608 
L 322.665742 31.56922 
L 322.626692 31.647606 
L 322.672657 31.777281 
L 322.886208 31.87357 
L 322.858141 31.929939 
L 322.822346 32.151306 
L 322.644997 32.21566 
L 322.579915 32.394689 
L 322.52012 32.383318 
L 322.605947 32.503074 
L 322.623032 32.592589 
L 322.170303 32.575654 
L 321.41657 32.541541 
L 321.464161 32.378964 
L 321.40274 32.365174 
L 321.16519 32.216386 
L 321.156648 32.11163 
L 321.714321 31.6118 
L 321.638256 31.593897 
L 321.550395 31.6118 
L 321.714321 31.257129 
L 321.775742 31.134833 
L 321.821707 31.164348 
L 322.036885 30.93778 
L 321.960006 30.81246 
L 321.970582 30.689317 
L 321.258339 30.560609 
L 321.167224 30.500006 
L 320.854422 30.392225 
L 320.740935 30.123924 
L 320.485894 30.101061 
L 320.238582 30.210656 
L 319.555219 30.210535 
L 319.484035 29.978281 
L 319.172047 29.924089 
L 318.815722 29.189586 
L 318.718099 29.272931 
L 318.538716 29.497685 
L 318.354452 29.587079 
L 317.771152 29.486556 
L 317.981042 29.403695 
L 317.973721 29.155353 
L 317.779288 29.09862 
L 317.64953 29.148337 
L 317.1907 29.46696 
L 316.831528 29.369341 
L 316.864882 29.311035 
L 316.789224 29.186925 
L 316.255957 29.348414 
L 316.269787 29.457162 
L 316.297447 29.546676 
L 316.390189 29.751713 
L 316.131894 29.772519 
L 315.741252 29.565886 
L 315.695451 29.46016 
L 315.64933 29.504736 
L 315.208936 29.516547 
L 314.547864 29.313287 
L 314.325906 29.550075 
L 313.941562 29.492164 
L 313.236932 29.338242 
L 312.883335 29.205656 
L 312.636715 28.823138 
L 313.041557 28.637975 
L 314.30797 28.631117 
L 314.400853 28.756845 
L 314.359536 28.769228 
L 314.266332 28.849808 
L 314.8342 28.936674 
L 315.048472 29.11498 
L 315.278438 29.355577 
L 315.939509 29.218991 
L 315.825487 29.04221 
L 315.31463 28.913053 
L 315.036301 28.874953 
L 314.724983 28.658358 
L 315.038223 28.56292 
L 315.587514 28.658358 
L 315.23616 28.469195 
L 315.215021 28.281365 
L 315.468047 28.210881 
L 315.327121 28.126301 
L 314.996586 28.002859 
L 314.905304 27.75026 
L 314.624413 27.670822 
L 314.266332 27.7314 
L 314.22982 27.601291 
L 314.701602 27.450417 
L 315.077298 27.472515 
L 315.047511 27.429653 
L 314.942778 27.16772 
L 314.860144 26.766533 
L 315.195484 26.778154 
L 315.330004 26.713956 
L 316.373177 25.694036 
L 316.771613 25.165407 
L 317.121046 24.368558 
L 317.406421 23.010886 
L 317.614928 22.458826 
L 317.705569 22.210228 
L 318.016247 22.245089 
L 317.957314 22.388152 
L 318.210661 22.508165 
L 318.454719 22.46397 
L 318.860522 22.323002 
L 319.0149 22.273854 
L 320.280672 21.487101 
L 320.46836 21.024384 
L 321.115339 20.620721 
L 321.44107 20.513281 
L 322.947378 20.144098 
L 324.588846 20.004654 
L 325.906184 19.949029 
L 326.054797 20.025419 
L 326.054797 20.025419 
" clip-path="url(#pa09b8ca888)" style="fill: none; stroke: #000000; stroke-width: 2"/>
    <path d="M 322.303922 19.840065 
L 322.464386 19.899881 
L 322.074917 19.963888 
L 321.670075 19.963888 
L 321.568865 19.982938 
L 321.379575 20.044849 
L 321.279646 20.027895 
L 321.210784 19.957983 
L 321.233845 19.889213 
L 321.300464 19.849399 
L 321.360038 19.867878 
L 322.303922 19.840065 
" clip-path="url(#pa09b8ca888)" style="fill: none; stroke: #000000; stroke-width: 2"/>
    <path d="M 323.245885 19.863687 
L 323.167735 19.934932 
L 323.144674 19.905405 
L 323.143393 19.890547 
L 323.167735 19.867878 
L 323.126418 19.80368 
L 323.225386 19.741769 
L 323.372718 19.694906 
L 323.476491 19.676238 
L 323.86628 19.651473 
L 323.976138 19.676238 
L 323.976138 19.708241 
L 323.92233 19.708241 
L 323.245885 19.863687 
" clip-path="url(#pa09b8ca888)" style="fill: none; stroke: #000000; stroke-width: 2"/>
    <path d="M 324.434148 19.445736 
L 324.650661 19.513553 
L 324.633045 19.512791 
L 324.618633 19.518506 
L 324.606462 19.530507 
L 324.596853 19.548224 
L 324.456247 19.514696 
L 324.386745 19.483645 
L 324.379379 19.452594 
L 324.434148 19.445736 
" clip-path="url(#pa09b8ca888)" style="fill: none; stroke: #000000; stroke-width: 2"/>
   </g>
  </g>
 </g>
 <defs>
  <clipPath id="pa09b8ca888">
   <rect x="0" y="-0" width="357.12" height="233.348836"/>
  </clipPath>
 </defs>
</svg>
