<?xml version="1.0" encoding="utf-8" standalone="no"?>
<!DOCTYPE svg PUBLIC "-//W3C//DTD SVG 1.1//EN"
  "http://www.w3.org/Graphics/SVG/1.1/DTD/svg11.dtd">
<svg xmlns:xlink="http://www.w3.org/1999/xlink" width="357.12pt" height="203.139356pt" viewBox="0 0 357.12 203.139356" xmlns="http://www.w3.org/2000/svg" version="1.1">
 <metadata>
  <rdf:RDF xmlns:dc="http://purl.org/dc/elements/1.1/" xmlns:cc="http://creativecommons.org/ns#" xmlns:rdf="http://www.w3.org/1999/02/22-rdf-syntax-ns#">
   <cc:Work>
    <dc:type rdf:resource="http://purl.org/dc/dcmitype/StillImage"/>
    <dc:date>2024-02-02T21:58:04.113851</dc:date>
    <dc:format>image/svg+xml</dc:format>
    <dc:creator>
     <cc:Agent>
      <dc:title>Matplotlib v3.8.2, https://matplotlib.org/</dc:title>
     </cc:Agent>
    </dc:creator>
   </cc:Work>
  </rdf:RDF>
 </metadata>
 <defs>
  <style type="text/css">*{stroke-linejoin: round; stroke-linecap: butt}</style>
 </defs>
 <g id="figure_1">
  <g id="patch_1">
   <path d="M 0 203.139356 
L 357.12 203.139356 
L 357.12 0 
L 0 0 
L 0 203.139356 
z
" style="fill: none"/>
  </g>
  <g id="axes_1">
   <g id="PatchCollection_1">
    <path d="M 93.703516 19.374526 
L 94.525485 19.23922 
L 95.303993 18.953574 
L 96.093839 18.829006 
L 97.658415 19.501241 
L 98.913098 19.402446 
L 99.634919 19.544195 
L 99.959928 19.776148 
L 100.651515 20.611609 
L 101.010536 20.671745 
L 102.063034 20.257236 
L 103.606824 20.156293 
L 104.460916 20.240054 
L 105.029681 20.536439 
L 105.192185 21.17431 
L 104.785925 23.56042 
L 104.891741 24.662197 
L 105.290443 25.383829 
L 105.961246 25.85203 
L 106.917375 26.191369 
L 107.476692 26.717559 
L 107.30474 27.512213 
L 106.448758 29.086487 
L 106.490329 29.651336 
L 107.068542 31.369507 
L 107.408667 31.837708 
L 108.155053 31.94939 
L 108.810738 31.700255 
L 109.487209 31.577835 
L 111.134926 32.60659 
L 113.443998 32.933042 
L 113.746331 33.186473 
L 114.182825 33.871593 
L 114.483269 34.112137 
L 115.084156 34.206637 
L 116.206569 34.125024 
L 116.767775 34.479396 
L 117.24584 35.100086 
L 117.833501 35.677821 
L 118.496745 36.163204 
L 119.182664 36.519724 
L 120.953204 37.065244 
L 121.595662 37.445389 
L 124.399804 40.911799 
L 125.034705 41.360671 
L 125.42018 41.347785 
L 126.172234 41.111536 
L 126.550151 41.137309 
L 126.977197 41.414364 
L 126.984755 41.753703 
L 126.712655 42.662186 
L 127.049001 43.36771 
L 129.263593 45.089102 
L 129.943843 46.135039 
L 130.344435 46.510889 
L 131.604787 47.133726 
L 131.854213 47.639512 
L 132.373848 48.394434 
L 133.13724 48.128117 
L 133.964878 47.508502 
L 134.682919 47.2046 
L 135.026824 47.362457 
L 135.86013 48.211878 
L 136.232378 48.263423 
L 137.044899 48.141003 
L 137.468166 48.218321 
L 139.552377 50.028844 
L 139.845262 50.451943 
L 140.342223 51.459221 
L 140.723919 51.760975 
L 141.258671 51.725538 
L 141.477863 51.278813 
L 141.76319 50.250058 
L 142.016394 50.14482 
L 142.981971 49.906424 
L 144.276336 49.833402 
L 144.695824 49.995554 
L 145.328835 50.592619 
L 145.559364 51.332506 
L 145.842801 51.506471 
L 146.734685 51.879099 
L 147.584998 52.741406 
L 147.887331 53.287999 
L 147.978031 53.909763 
L 147.853319 54.255544 
L 147.445168 54.762405 
L 147.388481 55.254231 
L 148.000706 56.157345 
L 150.3419 55.658002 
L 151.337711 56.667427 
L 151.43219 57.414831 
L 151.337711 58.029078 
L 151.403846 58.55312 
L 152.509253 59.461603 
L 152.588615 59.921213 
L 152.547045 60.429148 
L 152.724666 61.010104 
L 153.15927 61.416022 
L 154.005803 61.957246 
L 154.336481 63.129898 
L 154.738962 63.482123 
L 155.748 63.891262 
L 156.390458 64.33906 
L 156.741921 64.967267 
L 157.089604 66.527581 
L 157.255887 67.848425 
L 157.499644 68.185616 
L 157.947475 68.367098 
L 158.87715 68.491665 
L 159.69723 69.076917 
L 161.724753 69.38404 
L 162.336978 69.133831 
L 162.607189 68.550727 
L 162.765914 67.822652 
L 163.034235 67.139679 
L 163.78062 66.4159 
L 164.666835 66.107703 
L 165.604069 66.071192 
L 166.528075 66.163543 
L 167.353823 66.059379 
L 168.986424 65.259356 
L 170.120174 64.867398 
L 170.653037 64.095295 
L 172.470816 63.689377 
L 172.924316 63.687229 
L 173.717942 63.983614 
L 173.937133 64.302549 
L 174.031612 64.854512 
L 174.948061 64.4894 
L 175.373217 64.586048 
L 176.202744 65.524598 
L 176.854651 65.41077 
L 177.550017 65.135862 
L 178.196255 65.150896 
L 178.540159 65.550371 
L 178.766909 66.675773 
L 179.023893 67.125719 
L 179.522743 67.243843 
L 180.106624 67.160082 
L 180.599806 67.227735 
L 180.826556 67.814061 
L 180.590358 68.503477 
L 180.097176 69.155308 
L 179.751383 69.839355 
L 179.961126 70.635083 
L 180.992839 71.723974 
L 181.121331 72.120227 
L 181.331075 73.430333 
L 182.162492 73.932898 
L 182.980681 74.199214 
L 183.377494 74.736143 
L 182.474273 78.282018 
L 183.513544 79.971195 
L 185.372894 81.063307 
L 188.309308 81.769905 
L 188.685335 82.098505 
L 189.288112 83.116522 
L 190.372733 84.162458 
L 190.924492 86.06748 
L 191.400667 86.876095 
L 192.311446 87.149928 
L 193.146642 87.126303 
L 195.092913 88.018678 
L 197.118547 88.359091 
L 197.447335 88.54809 
L 198.048222 89.58114 
L 199.888677 90.330692 
L 199.697829 92.257191 
L 200.175894 92.600826 
L 201.850065 92.682439 
L 202.545432 93.046476 
L 203.501561 94.148253 
L 204.136461 94.658335 
L 204.605078 94.85163 
L 205.043462 94.911766 
L 207.511258 94.86022 
L 208.508958 95.113651 
L 208.86609 94.997674 
L 209.157086 94.735653 
L 209.833557 93.508235 
L 211.81573 92.334509 
L 212.40528 91.259578 
L 212.654705 91.024404 
L 213.489901 90.832183 
L 214.224949 91.124272 
L 215.572223 92.073562 
L 217.367327 92.648075 
L 217.624311 93.138828 
L 217.102785 95.561449 
L 216.879815 95.938373 
L 216.613383 96.142406 
L 215.984152 96.4055 
L 215.710162 96.949946 
L 215.706383 97.729566 
L 215.483412 98.287972 
L 214.54051 98.860337 
L 214.317539 99.269477 
L 214.614204 102.351446 
L 214.413908 104.127605 
L 214.67656 104.737556 
L 215.481523 105.230456 
L 216.386633 105.242269 
L 217.133019 104.872862 
L 217.828386 104.728965 
L 219.003707 105.811413 
L 219.66884 106.085246 
L 220.972653 106.282836 
L 221.467724 106.162564 
L 222.488099 105.695436 
L 222.911366 105.624562 
L 223.39132 105.847924 
L 224.109362 106.519084 
L 224.738594 106.58459 
L 225.296021 106.322569 
L 226.157671 105.374353 
L 226.664079 105.056491 
L 227.261188 105.030719 
L 227.812946 105.234752 
L 228.874893 105.777049 
L 229.674186 105.631005 
L 230.51883 105.618119 
L 232.151431 105.931685 
L 232.890258 106.438545 
L 233.38155 106.951849 
L 233.852056 106.938962 
L 235.136973 105.17032 
L 235.911703 104.885748 
L 236.164907 104.643057 
L 236.314184 103.541279 
L 236.818703 103.444632 
L 237.003882 104.349894 
L 237.068128 106.192632 
L 237.64634 107.262193 
L 238.337928 108.169602 
L 239.14667 108.929893 
L 240.102799 109.559173 
L 241.716504 110.291544 
L 242.498792 110.771558 
L 243.05055 111.419093 
L 243.356663 112.766784 
L 243.991563 113.624795 
L 244.063367 114.014605 
L 244.040692 114.916645 
L 244.327909 115.879895 
L 244.717163 116.444743 
L 245.998301 117.595918 
L 246.459359 118.3648 
L 246.448022 119.169118 
L 246.285518 120.003505 
L 246.262843 120.858295 
L 246.68233 121.891346 
L 247.324789 122.149071 
L 249.014077 121.951482 
L 250.302773 121.987993 
L 250.81296 121.749596 
L 252.173461 120.419088 
L 252.150786 119.984176 
L 251.54234 119.128312 
L 251.523444 118.669775 
L 251.634929 117.973916 
L 251.31181 117.587327 
L 251.31181 117.589475 
L 250.941452 117.329602 
L 250.884765 117.087984 
L 250.954679 116.476959 
L 251.143638 115.553442 
L 251.028373 115.228064 
L 250.612665 114.604153 
L 250.559756 114.186423 
L 253.749374 110.871426 
L 254.482532 111.017471 
L 254.849111 111.827159 
L 254.890682 112.859135 
L 254.425845 114.781339 
L 254.962486 115.564181 
L 255.213801 116.771196 
L 255.470784 117.269466 
L 256.031991 117.595918 
L 256.768929 117.810689 
L 258.21446 118.054455 
L 258.821017 118.524804 
L 259.682667 119.629803 
L 260.03035 119.883233 
L 260.389371 119.95196 
L 261.319046 119.616917 
L 261.647834 119.788734 
L 262.881732 120.82608 
L 263.597884 121.120316 
L 264.092955 121.081657 
L 266.216847 119.958403 
L 266.711918 119.353822 
L 266.942417 118.564046 
L 266.921662 116.867843 
L 267.460194 115.976542 
L 267.732294 115.415989 
L 267.943927 113.510966 
L 268.287831 113.048134 
L 268.871713 112.946118 
L 270.436288 114.040378 
L 270.978599 113.90722 
L 271.794899 113.171628 
L 272.252178 112.936453 
L 272.913532 112.982629 
L 273.629685 113.27257 
L 274.803116 114.179979 
L 274.958062 114.68147 
L 274.820123 115.923923 
L 275.097891 116.483402 
L 276.201408 116.874286 
L 278.778801 116.762605 
L 279.791617 117.595918 
L 280.110957 118.596753 
L 280.702397 119.280799 
L 281.494132 119.657723 
L 282.431366 119.741484 
L 284.8198 119.392481 
L 285.72869 119.949812 
L 286.879446 121.1826 
L 288.872957 123.8361 
L 290.309041 124.616794 
L 291.26706 124.670487 
L 293.1283 124.453568 
L 295.235186 125.020564 
L 296.091167 124.500818 
L 296.892351 123.762004 
L 297.916505 123.392597 
L 298.702572 123.635289 
L 298.53251 124.200138 
L 298.109243 124.895997 
L 298.109243 125.525277 
L 298.75548 125.505948 
L 303.426532 124.22591 
L 304.050094 124.159331 
L 304.771915 124.363364 
L 305.081807 124.895997 
L 305.274545 125.237484 
L 305.576878 125.480175 
L 306.185324 125.497357 
L 307.322853 124.876668 
L 307.870833 124.705924 
L 308.74382 124.862708 
L 310.225254 125.454403 
L 311.188942 125.366346 
L 312.269784 124.842304 
L 313.127655 124.049798 
L 313.815463 123.051111 
L 314.811274 121.259918 
L 315.206197 121.186895 
L 315.916681 121.590666 
L 319.174323 121.852687 
L 319.949052 122.250014 
L 320.389325 122.342365 
L 320.878728 122.254309 
L 321.840526 121.85913 
L 322.27324 121.809732 
L 323.108436 122.093231 
L 324.678681 122.973793 
L 326.897052 123.557971 
L 327.197496 123.803885 
L 327.2693 124.292489 
L 326.830917 125.059223 
L 327.016096 126.764508 
L 326.638179 127.817962 
L 326.109096 128.882154 
L 325.232329 132.359302 
L 322.961049 136.272437 
L 322.031374 138.368605 
L 322.031374 139.210509 
L 322.303474 140.204901 
L 322.700286 140.73109 
L 322.450861 141.323859 
L 322.122074 141.811391 
L 321.717703 143.224586 
L 321.755494 143.800173 
L 321.914219 144.251193 
L 322.36772 145.060881 
L 322.462199 145.531231 
L 322.239228 146.549247 
L 320.788028 149.861022 
L 320.646309 152.771174 
L 320.05109 154.332562 
L 320.107777 154.667605 
L 320.281619 154.983319 
L 320.859832 155.550315 
L 321.524965 157.040829 
L 323.223701 158.187708 
L 323.988983 159.278746 
L 324.718362 160.627511 
L 325.581902 162.725827 
L 326.713762 164.63944 
L 326.857371 165.354628 
L 326.993421 167.143674 
L 327.36 169.577034 
L 327.152146 171.192114 
L 326.539921 173.017671 
L 324.895983 176.312264 
L 324.072124 179.411415 
L 324.185499 179.931162 
L 323.890724 181.632151 
L 322.798545 183.638116 
L 321.421038 185.126481 
L 320.281619 185.263935 
L 319.760094 184.748484 
L 318.580994 184.022556 
L 318.061358 183.53073 
L 317.832718 183.133403 
L 317.422679 182.068137 
L 317.330089 182.089614 
L 316.41742 181.187574 
L 315.769293 181.352948 
L 314.654439 182.315124 
L 314.027097 182.321567 
L 312.730842 181.735241 
L 312.262225 181.92424 
L 311.752038 183.438378 
L 311.215396 183.717581 
L 310.60695 183.638116 
L 310.119437 183.197834 
L 309.520439 182.867086 
L 308.732483 183.146289 
L 307.42867 184.168601 
L 306.075728 184.787142 
L 304.798369 184.426326 
L 302.175627 182.90145 
L 301.053214 182.684531 
L 299.840102 182.753257 
L 298.661001 183.099039 
L 297.644405 183.719729 
L 297.224918 184.316793 
L 296.540888 185.81375 
L 296.094946 186.211077 
L 295.599876 186.118725 
L 293.5818 185.111447 
L 293.253012 184.568076 
L 293.001698 183.925909 
L 292.623781 183.537173 
L 291.503258 183.891546 
L 289.549428 184.114908 
L 288.49882 183.676774 
L 287.657955 182.540634 
L 287.051398 181.146768 
L 286.677261 179.929014 
L 286.257773 177.877947 
L 286.123613 176.385286 
L 285.706015 176.402468 
L 285.176931 176.85134 
L 283.604798 178.389103 
L 281.216364 179.239598 
L 280.076945 179.929014 
L 279.700917 180.863269 
L 278.994213 181.685844 
L 278.09855 182.289351 
L 277.168875 182.564259 
L 276.832529 182.499827 
L 275.540054 181.982228 
L 275.039314 182.057398 
L 274.139872 183.268709 
L 273.467181 183.116221 
L 270.912463 181.533356 
L 267.709619 179.931162 
L 266.717587 178.88093 
L 266.143154 178.56092 
L 265.43267 178.389103 
L 264.312147 177.927345 
L 262.07488 176.690262 
L 260.978921 176.284344 
L 259.601415 176.353071 
L 259.346321 176.060981 
L 259.331204 175.472508 
L 259.066662 175.186862 
L 258.446879 175.062295 
L 257.666481 175.184714 
L 256.279526 175.670098 
L 255.208132 176.282196 
L 254.824547 176.209174 
L 254.182088 175.702313 
L 253.341224 175.49828 
L 252.283057 175.455326 
L 252.094098 175.281361 
L 249.571504 173.672724 
L 248.462318 173.299022 
L 247.158505 173.717826 
L 246.296855 173.814473 
L 245.658176 174.194618 
L 243.160146 176.396025 
L 242.3703 176.87067 
L 241.776971 176.969464 
L 241.523766 176.737511 
L 241.378269 175.698018 
L 241.089162 175.435997 
L 240.367341 175.685132 
L 240.038554 175.594928 
L 238.065828 173.999176 
L 237.548082 173.350567 
L 237.158828 171.885826 
L 237.429038 168.8103 
L 237.143711 167.390661 
L 236.629744 166.757086 
L 233.368323 164.989517 
L 230.47537 166.15143 
L 227.555963 167.760068 
L 226.894609 167.970544 
L 226.223806 167.764363 
L 225.590796 167.73 
L 224.98235 168.288405 
L 224.396579 169.012185 
L 223.805139 169.461057 
L 222.537228 169.854089 
L 221.98547 169.869123 
L 218.608784 168.958492 
L 217.539279 167.820204 
L 217.533611 166.385531 
L 217.405119 165.129119 
L 215.972814 164.519168 
L 215.145177 164.609372 
L 213.08931 165.431946 
L 212.159634 165.346038 
L 212.097278 164.787632 
L 212.140738 164.156204 
L 211.511507 163.831899 
L 210.595059 163.638605 
L 209.752305 163.191881 
L 209.442413 162.440181 
L 209.234559 161.572505 
L 208.703586 160.779998 
L 207.881617 160.301058 
L 206.060058 159.680369 
L 205.196518 159.147736 
L 204.807264 158.496979 
L 204.238499 158.365968 
L 203.637611 158.585035 
L 203.14254 158.971623 
L 202.730611 158.978066 
L 198.325991 157.758165 
L 197.851706 157.420974 
L 197.640072 156.527525 
L 197.965081 155.578236 
L 198.482827 154.626798 
L 198.843737 153.726906 
L 199.042144 152.075314 
L 198.962781 150.483859 
L 198.616987 148.933209 
L 198.021768 147.423366 
L 197.093983 146.033796 
L 196.01503 145.262766 
L 185.497607 143.306199 
L 184.703982 142.7886 
L 184.016173 141.796356 
L 183.655263 141.018884 
L 183.162081 140.634443 
L 182.054785 140.814851 
L 181.710881 140.707466 
L 181.317848 139.695892 
L 180.975833 139.313599 
L 179.704143 138.721904 
L 179.360239 138.366458 
L 179.199624 137.605093 
L 178.555276 137.455827 
L 177.825897 137.760802 
L 175.972215 140.080333 
L 175.195596 140.617262 
L 174.031612 140.662364 
L 172.064675 140.247829 
L 171.253924 140.490547 
L 169.558968 140.610818 
L 168.848484 140.898612 
L 169.164045 141.562256 
L 170.205205 142.752089 
L 170.431955 143.903264 
L 169.859411 144.203944 
L 169.598649 144.596975 
L 169.552504 144.549443 
L 169.356782 144.34784 
L 167.675053 143.729299 
L 162.607189 140.971634 
L 159.939096 139.960061 
L 155.936958 139.414542 
L 152.501695 139.384474 
L 151.549344 139.728108 
L 151.364165 140.131878 
L 151.288582 140.638739 
L 151.360386 141.121974 
L 151.914034 141.888708 
L 151.863015 142.389125 
L 151.61359 142.91102 
L 150.823744 144.103001 
L 150.20963 144.736577 
L 149.497256 145.142494 
L 148.677177 145.183301 
L 147.838202 144.884769 
L 147.469733 144.47026 
L 146.817827 143.093576 
L 146.366216 142.571681 
L 144.552216 141.016736 
L 143.204942 140.475513 
L 138.732298 140.509876 
L 136.417557 139.931067 
L 134.739607 138.973187 
L 133.825048 138.674655 
L 129.286268 138.366458 
L 128.466189 137.402134 
L 128.069376 135.824638 
L 127.717914 132.715823 
L 127.271972 131.11685 
L 126.637072 130.077356 
L 125.629923 129.672512 
L 121.023118 130.875232 
L 117.897747 131.240343 
L 116.480559 130.793619 
L 114.505944 128.76403 
L 111.671568 127.331504 
L 107.306629 123.682539 
L 105.088258 122.682778 
L 103.67107 121.317906 
L 102.779187 121.017226 
L 100.90283 120.828227 
L 99.823878 121.310389 
L 98.350002 123.066145 
L 97.512917 123.650323 
L 96.505768 123.571932 
L 95.489172 122.960907 
L 94.476355 122.194173 
L 92.647238 121.131055 
L 91.194148 119.557855 
L 90.409971 118.906023 
L 89.55021 118.59031 
L 87.707866 118.156471 
L 86.978487 117.589475 
L 86.506091 116.824889 
L 85.765374 116.296551 
L 82.530407 114.617039 
L 81.972979 114.164945 
L 81.819923 113.777283 
L 81.780242 113.343445 
L 81.60829 112.74638 
L 81.134004 111.982868 
L 80.478319 111.266606 
L 79.69981 110.700683 
L 78.864614 110.401077 
L 78.305297 110.478395 
L 78.069099 110.859614 
L 77.916043 111.373991 
L 77.581587 111.860449 
L 77.054393 112.129987 
L 76.445947 112.230929 
L 76.049134 112.044078 
L 76.166288 111.453457 
L 75.56918 111.305265 
L 75.338651 110.985255 
L 75.484149 110.644843 
L 76.039686 110.417185 
L 75.542726 109.414203 
L 73.420723 106.953996 
L 72.923763 105.796379 
L 72.179267 103.32436 
L 71.423433 102.360037 
L 70.569341 101.905795 
L 65.233157 100.87704 
L 64.968615 100.427094 
L 64.772098 99.464919 
L 64.341273 99.217932 
L 63.774398 99.411226 
L 63.067694 99.394044 
L 61.754433 99.054705 
L 61.074183 98.558583 
L 60.898451 97.974405 
L 60.843653 97.349421 
L 60.546989 96.726584 
L 60.025464 96.494631 
L 58.527024 96.490335 
L 57.846774 96.359325 
L 57.234548 95.983475 
L 55.840036 94.519808 
L 55.239148 94.116038 
L 54.09406 93.790659 
L 53.466718 93.491053 
L 53.085022 93.007817 
L 52.359422 91.61932 
L 51.894585 91.282129 
L 49.910522 90.821445 
L 49.260505 90.485328 
L 49.014859 90.153506 
L 48.977067 89.159114 
L 47.578775 89.114012 
L 46.845617 89.525299 
L 46.482817 90.09337 
L 46.384558 90.807485 
L 46.69445 93.452394 
L 46.51305 94.001135 
L 45.795008 93.610251 
L 44.249329 91.74174 
L 43.584195 91.345487 
L 42.851037 91.307902 
L 41.441407 91.599991 
L 40.708248 91.298237 
L 40.29254 90.773121 
L 39.29484 88.713464 
L 39.015181 88.477215 
L 38.051494 88.170092 
L 37.771835 87.859747 
L 37.182285 86.924418 
L 36.566281 86.541051 
L 35.277585 86.318763 
L 34.578439 86.069628 
L 34.049355 85.652972 
L 32.828684 84.020709 
L 31.323763 83.258463 
L 30.655663 83.122965 
L 29.982971 82.589258 
L 29.76 80.900081 
L 29.892271 79.309699 
L 30.134138 78.608471 
L 30.587638 77.930867 
L 31.154513 77.480921 
L 31.766738 77.167355 
L 32.288263 76.760363 
L 32.598155 76.033362 
L 32.481001 74.66849 
L 32.787113 72.815013 
L 33.501376 71.235369 
L 34.631347 70.688776 
L 36.018302 70.780054 
L 36.721227 70.576021 
L 37.174727 70.026206 
L 37.080248 69.385114 
L 36.468022 67.64654 
L 36.653202 67.043032 
L 37.284323 66.960345 
L 37.745381 67.321161 
L 38.093065 67.4017 
L 38.845119 64.674104 
L 38.992506 63.708707 
L 38.894248 62.925865 
L 38.625927 62.694986 
L 37.97591 62.656327 
L 37.775614 62.22571 
L 37.507294 60.546198 
L 36.732564 59.186695 
L 36.468022 58.489762 
L 36.611631 57.752022 
L 37.000885 57.457786 
L 38.06661 57.11093 
L 38.285802 56.729711 
L 38.38784 56.193856 
L 39.309957 55.254231 
L 40.356786 54.377964 
L 40.632665 53.791638 
L 40.485278 53.304107 
L 40.617548 53.016314 
L 42.303057 51.536539 
L 42.737661 50.678527 
L 42.794349 49.764675 
L 42.458003 48.679006 
L 41.61147 46.520553 
L 41.60769 45.464952 
L 42.144332 44.315925 
L 43.104241 43.540601 
L 45.28482 42.95857 
L 46.063329 42.312108 
L 47.934017 39.973248 
L 48.746538 38.673881 
L 49.543942 36.463884 
L 50.088142 36.161056 
L 51.407072 35.993535 
L 52.106218 35.774468 
L 52.571056 35.478083 
L 53.523406 34.584634 
L 54.827219 33.701924 
L 55.190019 33.308892 
L 56.285977 31.571392 
L 56.796165 31.043054 
L 58.99564 29.387167 
L 59.721241 28.296128 
L 59.237507 27.187908 
L 60.972145 25.510544 
L 61.329277 26.0217 
L 61.682629 26.756218 
L 62.323198 26.913001 
L 65.072542 26.068949 
L 65.456127 26.403993 
L 65.928523 27.095557 
L 66.348011 27.907392 
L 66.814738 29.258304 
L 67.931482 31.266417 
L 68.320737 33.167143 
L 68.793132 33.551584 
L 69.773826 33.308892 
L 70.633587 33.289563 
L 72.330433 34.069183 
L 73.146734 33.914548 
L 73.528429 33.321779 
L 73.471742 32.157718 
L 73.976261 31.811936 
L 74.618719 31.614346 
L 75.014229 31.26057 
L 75.164809 30.933521 
L 75.308417 30.291355 
L 75.255509 30.007856 
L 74.956955 29.361395 
L 74.97963 29.056419 
L 75.372663 28.775069 
L 77.007153 28.695603 
L 77.587255 28.289685 
L 78.018081 27.720541 
L 78.282622 27.041864 
L 78.448906 25.744645 
L 79.034677 24.587027 
L 79.000664 24.230506 
L 78.711558 23.197456 
L 78.675656 21.743454 
L 78.804147 21.084106 
L 79.191512 20.487041 
L 79.378581 19.911454 
L 79.29166 19.254254 
L 79.388029 18.715178 
L 80.115519 18.496111 
L 80.799548 18.773166 
L 82.141152 20.068237 
L 82.881869 20.461269 
L 83.843667 20.607313 
L 84.257486 20.459121 
L 84.847036 18.521883 
L 85.119136 18.352214 
L 85.814503 18.229794 
L 86.305795 18.006432 
L 86.849995 17.037813 
L 87.670075 16.92828 
L 88.4637 17.175267 
L 92.91178 19.172641 
L 93.703516 19.374526 
L 93.703516 19.374526 
" clip-path="url(#p90716d3fcf)" style="fill: none; stroke: #000000; stroke-width: 2"/>
   </g>
  </g>
 </g>
 <defs>
  <clipPath id="p90716d3fcf">
   <rect x="0" y="0" width="357.12" height="203.139356"/>
  </clipPath>
 </defs>
</svg>
