<?xml version="1.0" encoding="utf-8" standalone="no"?>
<!DOCTYPE svg PUBLIC "-//W3C//DTD SVG 1.1//EN"
  "http://www.w3.org/Graphics/SVG/1.1/DTD/svg11.dtd">
<svg xmlns:xlink="http://www.w3.org/1999/xlink" width="357.12pt" height="51.21572pt" viewBox="0 0 357.12 51.21572" xmlns="http://www.w3.org/2000/svg" version="1.1">
 <metadata>
  <rdf:RDF xmlns:dc="http://purl.org/dc/elements/1.1/" xmlns:cc="http://creativecommons.org/ns#" xmlns:rdf="http://www.w3.org/1999/02/22-rdf-syntax-ns#">
   <cc:Work>
    <dc:type rdf:resource="http://purl.org/dc/dcmitype/StillImage"/>
    <dc:date>2024-02-02T21:58:04.164861</dc:date>
    <dc:format>image/svg+xml</dc:format>
    <dc:creator>
     <cc:Agent>
      <dc:title>Matplotlib v3.8.2, https://matplotlib.org/</dc:title>
     </cc:Agent>
    </dc:creator>
   </cc:Work>
  </rdf:RDF>
 </metadata>
 <defs>
  <style type="text/css">*{stroke-linejoin: round; stroke-linecap: butt}</style>
 </defs>
 <g id="figure_1">
  <g id="patch_1">
   <path d="M 0 51.21572 
L 357.12 51.21572 
L 357.12 -0 
L 0 -0 
L 0 51.21572 
z
" style="fill: none"/>
  </g>
  <g id="axes_1">
   <g id="PatchCollection_1">
    <path d="M 319.326875 46.825923 
L 319.323735 46.835127 
L 319.334596 46.83426 
L 319.345185 46.839463 
L 319.351022 46.84782 
L 319.378529 46.855826 
L 319.394239 46.870133 
L 319.378581 46.874065 
L 319.358287 46.870189 
L 319.366643 46.893632 
L 319.36759 46.903404 
L 319.353767 46.911243 
L 319.347328 46.921024 
L 319.340898 46.935361 
L 319.312309 46.947743 
L 319.288325 46.945775 
L 319.259715 46.943169 
L 319.248652 46.935996 
L 319.232984 46.927518 
L 319.220103 46.922938 
L 319.210909 46.913159 
L 319.200722 46.90992 
L 319.192362 46.9171 
L 319.170808 46.902374 
L 319.162255 46.891889 
L 319.170139 46.88326 
L 319.187704 46.884565 
L 319.21826 46.891048 
L 319.244163 46.895567 
L 319.249625 46.876722 
L 319.256937 46.859814 
L 319.269779 46.840937 
L 319.282674 46.831813 
L 319.304768 46.820728 
L 319.320422 46.820717 
L 319.326875 46.825923 
" clip-path="url(#pc3ae50fcaa)" style="fill: none; stroke: #000000; stroke-width: 2"/>
    <path d="M 316.761435 45.266053 
L 316.818384 45.277011 
L 316.835964 45.286471 
L 316.824222 45.291123 
L 316.800872 45.294907 
L 316.778337 45.303736 
L 316.766797 45.304998 
L 316.755326 45.303106 
L 316.749557 45.312251 
L 316.635116 45.30484 
L 316.629074 45.300741 
L 316.625409 45.294512 
L 316.61801 45.286471 
L 316.598733 45.273463 
L 316.590317 45.265422 
L 316.583868 45.25336 
L 316.599141 45.255016 
L 316.612445 45.260928 
L 316.635251 45.275986 
L 316.647062 45.276144 
L 316.711274 45.264161 
L 316.721931 45.255489 
L 316.727157 45.25336 
L 316.736524 45.254385 
L 316.761435 45.266053 
" clip-path="url(#pc3ae50fcaa)" style="fill: none; stroke: #000000; stroke-width: 2"/>
    <path d="M 316.83963 44.940933 
L 316.837797 44.954335 
L 316.835964 44.960563 
L 316.849472 44.961036 
L 316.887212 44.954492 
L 316.884225 44.960011 
L 316.887619 44.971363 
L 316.893728 44.9824 
L 316.89909 44.987604 
L 316.864473 44.987604 
L 316.856396 44.989969 
L 316.853884 44.99596 
L 316.853273 45.003371 
L 316.850219 45.010703 
L 316.835897 45.02103 
L 316.825715 45.01835 
L 316.815533 45.014487 
L 316.801279 45.020636 
L 316.810103 45.02781 
L 316.816009 45.03727 
L 316.824086 45.060921 
L 316.81852 45.058871 
L 316.806641 45.056506 
L 316.801279 45.054299 
L 316.804945 45.068647 
L 316.807456 45.074166 
L 316.80094 45.078344 
L 316.784242 45.094032 
L 316.796867 45.090563 
L 316.81051 45.090642 
L 316.824086 45.094032 
L 316.835964 45.100576 
L 316.816009 45.107592 
L 316.77182 45.103808 
L 316.749557 45.107198 
L 316.749557 45.11382 
L 316.765915 45.113741 
L 316.795034 45.12604 
L 316.812683 45.127065 
L 316.805012 45.144093 
L 316.795577 45.160176 
L 316.808474 45.160885 
L 316.830195 45.158678 
L 316.841191 45.160176 
L 316.837526 45.168611 
L 316.836372 45.176968 
L 316.837594 45.185482 
L 316.841191 45.19376 
L 316.834132 45.193208 
L 316.819674 45.194312 
L 316.812683 45.19376 
L 316.812683 45.200382 
L 316.824086 45.201328 
L 316.839019 45.20661 
L 316.852323 45.213863 
L 316.858771 45.220249 
L 316.856667 45.236804 
L 316.847436 45.253124 
L 316.834335 45.261953 
L 316.821371 45.256671 
L 316.801415 45.243979 
L 316.775282 45.237199 
L 316.751457 45.227423 
L 316.738018 45.206453 
L 316.729193 45.216465 
L 316.719487 45.223323 
L 316.698241 45.233493 
L 316.703536 45.220722 
L 316.711749 45.206058 
L 316.71684 45.190922 
L 316.712767 45.176968 
L 316.703604 45.166877 
L 316.69254 45.158757 
L 316.680729 45.157259 
L 316.669801 45.16735 
L 316.677335 45.172474 
L 316.686702 45.181462 
L 316.691318 45.190055 
L 316.684259 45.19376 
L 316.67272 45.191001 
L 316.653442 45.180752 
L 316.641292 45.180594 
L 316.650456 45.189503 
L 316.659008 45.195179 
L 316.665796 45.201801 
L 316.669801 45.213627 
L 316.669597 45.22829 
L 316.665117 45.238618 
L 316.656429 45.244767 
L 316.644143 45.246738 
L 316.629414 45.245871 
L 316.618282 45.242559 
L 316.608711 45.235622 
L 316.598326 45.22356 
L 316.591403 45.224427 
L 316.58061 45.233257 
L 316.561061 45.25336 
L 316.552509 45.19849 
L 316.584886 45.159151 
L 316.696477 45.100576 
L 316.712903 45.083153 
L 316.723492 45.06029 
L 316.727157 45.030569 
L 316.733266 45.008574 
L 316.743312 44.985238 
L 316.745348 44.963874 
L 316.727157 44.94787 
L 316.741683 44.944559 
L 316.752679 44.939987 
L 316.763879 44.938331 
L 316.77854 44.944244 
L 316.789944 44.944874 
L 316.830195 44.938331 
L 316.841191 44.934626 
L 316.83963 44.940933 
" clip-path="url(#pc3ae50fcaa)" style="fill: none; stroke: #000000; stroke-width: 2"/>
    <path d="M 327.341809 44.157302 
L 327.335021 44.158248 
L 327.301015 44.157381 
L 327.274746 44.152178 
L 327.255808 44.138224 
L 327.254654 44.111498 
L 327.263343 44.100067 
L 327.298978 44.067586 
L 327.312622 44.05852 
L 327.323889 44.055682 
L 327.336039 44.056155 
L 327.347443 44.060491 
L 327.355927 44.069479 
L 327.36 44.085876 
L 327.355927 44.101959 
L 327.349683 44.118199 
L 327.346289 44.134676 
L 327.345339 44.150837 
L 327.341809 44.157302 
" clip-path="url(#pc3ae50fcaa)" style="fill: none; stroke: #000000; stroke-width: 2"/>
    <path d="M 317.172161 42.520192 
L 317.176233 42.529967 
L 317.178881 42.540531 
L 317.178677 42.551726 
L 317.170803 42.548179 
L 317.166255 42.542581 
L 317.158517 42.528312 
L 317.151662 42.525474 
L 317.121253 42.531859 
L 317.121253 42.524607 
L 317.163337 42.489288 
L 317.178677 42.485031 
L 317.174401 42.491417 
L 317.167274 42.51152 
L 317.172161 42.520192 
" clip-path="url(#pc3ae50fcaa)" style="fill: none; stroke: #000000; stroke-width: 2"/>
    <path d="M 317.85616 41.754457 
L 317.837222 41.759424 
L 317.830503 41.747835 
L 317.840481 41.734196 
L 317.860165 41.723474 
L 317.879374 41.72174 
L 317.887452 41.73459 
L 317.876523 41.74271 
L 317.85616 41.754457 
" clip-path="url(#pc3ae50fcaa)" style="fill: none; stroke: #000000; stroke-width: 2"/>
    <path d="M 318.063254 41.32078 
L 318.050629 41.324012 
L 318.039633 41.320622 
L 318.034135 41.307929 
L 318.037596 41.295079 
L 318.047371 41.288614 
L 318.059588 41.287353 
L 318.07072 41.289718 
L 318.081581 41.296971 
L 318.072825 41.313369 
L 318.063254 41.32078 
" clip-path="url(#pc3ae50fcaa)" style="fill: none; stroke: #000000; stroke-width: 2"/>
    <path d="M 318.792935 41.32078 
L 318.785129 41.329925 
L 318.788998 41.319755 
L 318.783432 41.311162 
L 318.774336 41.301859 
L 318.767549 41.289718 
L 318.780445 41.288614 
L 318.792528 41.284357 
L 318.802234 41.276158 
L 318.807461 41.263229 
L 318.820561 41.284751 
L 318.810379 41.304855 
L 318.792935 41.32078 
" clip-path="url(#pc3ae50fcaa)" style="fill: none; stroke: #000000; stroke-width: 2"/>
    <path d="M 318.288267 41.231695 
L 318.475541 41.4291 
L 318.454906 41.435171 
L 318.28752 41.495953 
L 318.533033 41.521733 
L 318.52896 41.530957 
L 318.4471 41.628161 
L 317.995648 41.728047 
L 318.06787 41.752328 
L 317.998227 41.598756 
L 318.288267 41.231695 
L 318.288267 41.231695 
" clip-path="url(#pc3ae50fcaa)" style="fill: none; stroke: #000000; stroke-width: 2"/>
    <path d="M 317.256193 40.192004 
L 317.267325 40.21061 
L 317.27418 40.232842 
L 317.276624 40.253575 
L 317.273298 40.274861 
L 317.263795 40.290234 
L 317.249134 40.299064 
L 317.230535 40.301114 
L 317.22877 40.296068 
L 317.222661 40.286292 
L 317.215874 40.281405 
L 317.210036 40.298906 
L 317.203249 40.30269 
L 317.195511 40.303006 
L 317.189402 40.301114 
L 317.184514 40.290944 
L 317.180102 40.271787 
L 317.177659 40.252235 
L 317.178677 40.24104 
L 317.166866 40.222751 
L 317.152408 40.224248 
L 317.100482 40.274309 
L 317.087043 40.282193 
L 317.069394 40.287238 
L 317.073807 40.274467 
L 317.081748 40.256887 
L 317.091658 40.241198 
L 317.101297 40.234418 
L 317.10374 40.231422 
L 317.113379 40.216601 
L 317.119827 40.202253 
L 317.129805 40.200125 
L 317.150779 40.200676 
L 317.217571 40.181756 
L 317.233115 40.180967 
L 317.240581 40.182071 
L 317.256193 40.192004 
" clip-path="url(#pc3ae50fcaa)" style="fill: none; stroke: #000000; stroke-width: 2"/>
    <path d="M 317.509986 39.876108 
L 317.482088 39.880444 
L 317.470821 39.877921 
L 317.456159 39.865465 
L 317.442584 39.858528 
L 317.424393 39.853482 
L 317.408102 39.846387 
L 317.401314 39.833064 
L 317.392287 39.820844 
L 317.390318 39.813276 
L 317.398803 39.809886 
L 317.397174 39.805629 
L 317.402672 39.796168 
L 317.453037 39.729946 
L 317.453173 39.734676 
L 317.454802 39.737436 
L 317.456974 39.739801 
L 317.459282 39.743191 
L 317.466884 39.778194 
L 317.47883 39.810911 
L 317.509986 39.876108 
" clip-path="url(#pc3ae50fcaa)" style="fill: none; stroke: #000000; stroke-width: 2"/>
    <path d="M 31.22727 38.940876 
L 31.21047 38.946867 
L 31.211624 38.933307 
L 31.208637 38.930154 
L 31.203343 38.922586 
L 31.200288 38.919432 
L 31.203377 38.916358 
L 31.200288 38.913441 
L 31.204904 38.905557 
L 31.2159 38.880408 
L 31.217393 38.873077 
L 31.208468 38.860778 
L 31.199101 38.855575 
L 31.196216 38.850687 
L 31.206499 38.839966 
L 31.218751 38.834053 
L 31.235347 38.830821 
L 31.251739 38.830505 
L 31.263448 38.833501 
L 31.267826 38.83831 
L 31.268946 38.844459 
L 31.269421 38.850687 
L 31.271967 38.856679 
L 31.277295 38.861094 
L 31.298133 38.873077 
L 31.268946 38.889869 
L 31.260665 38.902167 
L 31.257713 38.92298 
L 31.22727 38.940876 
" clip-path="url(#pc3ae50fcaa)" style="fill: none; stroke: #000000; stroke-width: 2"/>
    <path d="M 30.933972 38.339514 
L 30.942999 38.342116 
L 30.977821 38.340775 
L 30.989054 38.342116 
L 31.045257 38.365845 
L 31.066197 38.369156 
L 31.252045 38.35607 
L 31.252045 38.361982 
L 31.238911 38.362219 
L 31.229238 38.368605 
L 31.223808 38.379957 
L 31.223536 38.395094 
L 31.189224 38.378301 
L 31.15532 38.393201 
L 31.125691 38.424184 
L 31.084659 38.483311 
L 31.077397 38.499236 
L 31.074512 38.518078 
L 31.074478 38.518078 
L 31.071898 38.525883 
L 31.066197 38.529036 
L 31.060495 38.526829 
L 31.057882 38.518078 
L 31.058153 38.4949 
L 31.056422 38.48473 
L 31.051671 38.475033 
L 31.064466 38.466283 
L 31.081062 38.448466 
L 31.094502 38.427259 
L 31.09776 38.40889 
L 31.082623 38.389496 
L 31.057882 38.382322 
L 31.012336 38.381849 
L 30.965195 38.374281 
L 30.946563 38.379563 
L 30.948633 38.402268 
L 30.964211 38.414251 
L 31.040268 38.428205 
L 30.979076 38.472116 
L 30.9748 38.484967 
L 31.003308 38.518078 
L 31.009689 38.53077 
L 31.010096 38.543227 
L 31.009383 38.555525 
L 31.012336 38.567666 
L 31.031783 38.580437 
L 31.063482 38.556786 
L 31.068776 38.578151 
L 31.070168 38.593209 
L 31.074172 38.602511 
L 31.088936 38.617884 
L 31.09983 38.625216 
L 31.122501 38.630183 
L 31.131902 38.634992 
L 31.142864 38.657539 
L 31.118632 38.665186 
L 31.083302 38.666842 
L 31.060733 38.671099 
L 31.05218 38.67646 
L 31.029882 38.684185 
L 31.009383 38.70011 
L 30.971949 38.71438 
L 30.966247 38.734246 
L 30.960105 38.735587 
L 30.908111 38.735587 
L 30.892702 38.732591 
L 30.886016 38.724313 
L 30.883844 38.703579 
L 30.877837 38.685447 
L 30.858085 38.648236 
L 30.851501 38.643348 
L 30.842948 38.639407 
L 30.838978 38.634913 
L 30.846173 38.627818 
L 30.864839 38.619698 
L 30.914084 38.586665 
L 30.923281 38.578151 
L 30.927557 38.56735 
L 30.946767 38.556313 
L 30.962786 38.541019 
L 30.957491 38.518078 
L 30.920905 38.459187 
L 30.902579 38.442001 
L 30.883234 38.428205 
L 30.872882 38.423869 
L 30.860664 38.422134 
L 30.848412 38.424657 
L 30.839656 38.429387 
L 30.832122 38.43191 
L 30.8234 38.428205 
L 30.817189 38.435379 
L 30.821567 38.448623 
L 30.814134 38.450673 
L 30.80117 38.450042 
L 30.78868 38.455167 
L 30.764041 38.445312 
L 30.704241 38.460922 
L 30.680009 38.442001 
L 30.692261 38.423711 
L 30.708416 38.417325 
L 30.726064 38.413305 
L 30.743135 38.402268 
L 30.742965 38.395488 
L 30.738078 38.387446 
L 30.737128 38.380194 
L 30.748836 38.375227 
L 30.750873 38.378617 
L 30.771541 38.392019 
L 30.780399 38.395094 
L 30.855268 38.387998 
L 30.872034 38.378538 
L 30.881197 38.36009 
L 30.884693 38.344087 
L 30.891005 38.33305 
L 30.908823 38.32895 
L 30.915916 38.330842 
L 30.933972 38.339514 
" clip-path="url(#pc3ae50fcaa)" style="fill: none; stroke: #000000; stroke-width: 2"/>
    <path d="M 323.654578 35.846244 
L 323.648266 35.858858 
L 323.643175 35.887869 
L 323.637473 35.899064 
L 323.625052 35.906317 
L 323.61039 35.907105 
L 323.594846 35.905686 
L 323.580049 35.906317 
L 323.568646 35.91152 
L 323.548011 35.927839 
L 323.53973 35.932806 
L 323.526698 35.934935 
L 323.484342 35.932964 
L 323.484546 35.932648 
L 323.488686 35.928707 
L 323.497646 35.920981 
L 323.500361 35.919562 
L 323.509321 35.918773 
L 323.529277 35.920508 
L 323.537083 35.91625 
L 323.580049 35.873364 
L 323.594303 35.886135 
L 323.612766 35.880065 
L 323.626341 35.863982 
L 323.625663 35.846244 
L 323.615277 35.851447 
L 323.605164 35.850265 
L 323.596747 35.843721 
L 323.591452 35.833 
L 323.606385 35.831896 
L 323.61711 35.825195 
L 323.626681 35.81739 
L 323.637473 35.813133 
L 323.651184 35.815025 
L 323.653221 35.822357 
L 323.651728 35.833315 
L 323.654578 35.846244 
" clip-path="url(#pc3ae50fcaa)" style="fill: none; stroke: #000000; stroke-width: 2"/>
    <path d="M 323.282882 35.494556 
L 323.288041 35.504411 
L 323.289534 35.510875 
L 323.285733 35.513713 
L 323.281117 35.516315 
L 323.2689 35.529481 
L 323.265234 35.534763 
L 323.262655 35.544775 
L 323.259532 35.569845 
L 323.254442 35.581039 
L 323.25098 35.581985 
L 323.234282 35.581039 
L 323.229395 35.583483 
L 323.219485 35.595545 
L 323.21453 35.600275 
L 323.194099 35.606898 
L 323.188261 35.609736 
L 323.1848 35.616121 
L 323.182356 35.62298 
L 323.179912 35.627395 
L 323.169391 35.634096 
L 323.157309 35.638747 
L 323.145091 35.639378 
L 323.134299 35.634017 
L 323.137557 35.630706 
L 323.138575 35.627395 
L 323.138847 35.624084 
L 323.140001 35.620142 
L 323.149775 35.615254 
L 323.155069 35.607686 
L 323.15568 35.598068 
L 323.151404 35.587189 
L 323.142376 35.596728 
L 323.140001 35.600275 
L 323.135181 35.58916 
L 323.133552 35.57694 
L 323.135181 35.564957 
L 323.140001 35.554077 
L 323.152694 35.564642 
L 323.162468 35.576152 
L 323.173871 35.584902 
L 323.191248 35.587189 
L 323.191248 35.581039 
L 323.180931 35.573313 
L 323.171835 35.56338 
L 323.165251 35.550609 
L 323.162807 35.534763 
L 323.164844 35.520572 
L 323.175365 35.483677 
L 323.179912 35.475241 
L 323.18446 35.476582 
L 323.185546 35.484386 
L 323.18799 35.492428 
L 323.19695 35.494556 
L 323.200072 35.481312 
L 323.204348 35.472246 
L 323.211475 35.468067 
L 323.223693 35.47398 
L 323.223965 35.488171 
L 323.221793 35.505672 
L 323.225933 35.521518 
L 323.232246 35.512294 
L 323.258514 35.504726 
L 323.271547 35.494556 
L 323.243038 35.494556 
L 323.261772 35.480129 
L 323.269578 35.472324 
L 323.277181 35.461445 
L 323.286276 35.433774 
L 323.290485 35.42794 
L 323.294286 35.44213 
L 323.294014 35.456005 
L 323.291095 35.469486 
L 323.282882 35.494556 
" clip-path="url(#pc3ae50fcaa)" style="fill: none; stroke: #000000; stroke-width: 2"/>
    <path d="M 322.406043 35.233924 
L 322.483084 35.249139 
L 322.254134 35.275628 
L 322.294317 35.508274 
L 322.464961 35.506618 
L 322.500189 35.513713 
L 322.493877 35.581039 
L 322.530938 35.585848 
L 322.504194 35.711434 
L 322.527679 35.804461 
L 322.537047 35.817232 
L 322.663163 36.002497 
L 322.517226 35.819755 
L 322.722895 35.963316 
L 323.044294 35.803909 
L 323.048366 35.813133 
L 323.102736 35.690306 
L 323.111831 35.686522 
L 323.348859 35.645685 
L 323.143191 35.790428 
L 323.168509 35.860119 
L 323.282882 35.766935 
L 323.209235 35.875886 
L 323.168577 35.954722 
L 323.122895 35.966548 
L 323.431534 35.879986 
L 323.261772 35.820938 
L 323.318586 35.6799 
L 323.300055 35.852866 
L 323.333044 35.685418 
L 323.522829 35.760628 
L 323.540341 35.740525 
L 323.585751 35.706704 
L 323.265777 35.980896 
L 323.463572 35.957403 
L 323.581067 35.943843 
L 323.4147 36.04428 
L 323.406826 36.253748 
L 323.417551 36.201322 
L 323.558668 36.441062 
L 323.082576 37.10841 
L 323.056036 37.083182 
L 322.951641 37.154608 
L 322.595421 37.685569 
L 322.265673 38.036153 
L 322.29486 38.218422 
L 322.219992 38.266906 
L 322.582864 38.395567 
L 322.483084 38.508696 
L 322.46883 38.474639 
L 322.442833 38.375227 
L 322.457019 38.5247 
L 322.371494 38.515792 
L 322.159649 38.444524 
L 322.19189 38.405736 
L 321.702699 38.574288 
L 320.962565 39.146165 
L 320.996164 39.334977 
L 320.801153 39.735149 
L 320.50928 40.294176 
L 320.599489 40.314595 
L 320.616798 40.337536 
L 320.515253 40.390041 
L 320.643066 40.368124 
L 320.261867 40.535887 
L 319.645677 41.105951 
L 319.398875 41.16697 
L 319.224634 41.184235 
L 319.201828 41.203787 
L 319.099333 41.190542 
L 318.870043 41.117067 
L 318.893257 41.089159 
L 318.613196 41.094047 
L 318.643808 41.13993 
L 318.653583 41.157431 
L 318.458096 40.879928 
L 318.098686 40.865738 
L 318.139548 40.838697 
L 317.858943 40.699236 
L 317.644722 40.808818 
L 317.453037 40.772553 
L 317.20705 40.702547 
L 317.244111 40.682365 
L 317.441634 40.499544 
L 317.161029 40.639084 
L 317.184379 40.605973 
L 317.285991 40.516809 
L 317.321627 40.486378 
L 317.043194 40.54992 
L 317.04075 40.505614 
L 317.055683 40.367336 
L 317.109714 40.360714 
L 317.498651 40.260907 
L 317.308458 40.253024 
L 317.527091 40.061294 
L 317.26461 40.147856 
L 317.233115 40.110488 
L 317.264067 40.055303 
L 317.324681 39.965587 
L 317.365407 39.97962 
L 317.441634 40.008316 
L 317.324274 39.908273 
L 317.364118 39.867357 
L 317.474622 39.91734 
L 317.609426 40.008632 
L 317.652868 40.04868 
L 317.547047 39.881784 
L 317.681919 39.901888 
L 317.738868 39.888643 
L 317.487654 39.773227 
L 317.509986 39.703457 
L 317.596733 39.759667 
L 317.630129 39.756987 
L 317.527091 39.683591 
L 317.560012 39.639206 
L 317.598566 39.626829 
L 317.631962 39.708187 
L 317.71036 39.676495 
L 317.618725 39.577162 
L 317.639021 39.570776 
L 317.773078 39.610273 
L 317.736017 39.484845 
L 317.910123 39.577871 
L 317.863016 39.380939 
L 317.944333 39.377549 
L 317.931708 39.44992 
L 317.955125 39.470733 
L 317.939038 39.327803 
L 317.963474 39.314086 
L 318.264849 39.251017 
L 318.178917 39.105801 
L 318.657587 38.643348 
L 319.136122 38.511692 
L 320.920006 37.25268 
L 321.21982 36.5035 
L 321.213643 36.510675 
L 321.221177 36.4439 
L 321.271067 36.450523 
L 321.559749 36.314294 
L 321.747091 35.953146 
L 321.819719 35.515842 
L 321.825149 35.515921 
L 322.173903 35.288794 
L 322.116547 35.288794 
L 322.186664 35.235107 
L 322.406043 35.233924 
L 322.406043 35.233924 
" clip-path="url(#pc3ae50fcaa)" style="fill: none; stroke: #000000; stroke-width: 2"/>
    <path d="M 324.305793 31.617476 
L 324.304979 31.626937 
L 324.311291 31.646567 
L 324.312174 31.656027 
L 324.310002 31.663201 
L 324.3062 31.665566 
L 324.295408 31.664305 
L 324.288892 31.664541 
L 324.27199 31.670218 
L 324.254682 31.672346 
L 324.236762 31.669824 
L 324.202891 31.657683 
L 324.209068 31.65043 
L 324.190809 31.634268 
L 324.182189 31.632613 
L 324.171803 31.641127 
L 324.163658 31.643965 
L 324.1604 31.632455 
L 324.162029 31.6159 
L 324.169156 31.604074 
L 324.175469 31.60502 
L 324.217621 31.604074 
L 324.226784 31.609435 
L 324.233504 31.619132 
L 324.24226 31.623862 
L 324.257736 31.614402 
L 324.294526 31.584365 
L 324.312852 31.574747 
L 324.317332 31.577585 
L 324.326021 31.587913 
L 324.333351 31.601157 
L 324.326971 31.606124 
L 324.315024 31.609277 
L 324.305793 31.617476 
" clip-path="url(#pc3ae50fcaa)" style="fill: none; stroke: #000000; stroke-width: 2"/>
    <path d="M 324.850441 31.475335 
L 324.84501 31.475808 
L 324.83958 31.475571 
L 324.836051 31.475256 
L 324.829263 31.473443 
L 324.819081 31.468713 
L 324.816909 31.465402 
L 324.818131 31.461696 
L 324.820439 31.457439 
L 324.821593 31.454759 
L 324.822339 31.451763 
L 324.822 31.448452 
L 324.820439 31.444825 
L 324.815144 31.441041 
L 324.808221 31.439386 
L 324.80184 31.435523 
L 324.797768 31.424959 
L 324.820439 31.418336 
L 324.826005 31.426062 
L 324.835032 31.451448 
L 324.844332 31.452551 
L 324.851391 31.455941 
L 324.856821 31.462327 
L 324.860894 31.471945 
L 324.855599 31.473995 
L 324.850441 31.475335 
" clip-path="url(#pc3ae50fcaa)" style="fill: none; stroke: #000000; stroke-width: 2"/>
    <path d="M 324.075485 31.301501 
L 324.06286 31.305443 
L 324.03313 31.304655 
L 324.024985 31.300871 
L 324.037203 31.292199 
L 324.03761 31.281398 
L 324.029397 31.257511 
L 324.031501 31.245843 
L 324.042565 31.239063 
L 324.055733 31.243951 
L 324.066729 31.255382 
L 324.071413 31.268627 
L 324.077115 31.292041 
L 324.075485 31.301501 
" clip-path="url(#pc3ae50fcaa)" style="fill: none; stroke: #000000; stroke-width: 2"/>
    <path d="M 324.26303 31.085963 
L 324.248912 31.08754 
L 324.237576 31.087067 
L 324.221286 31.065624 
L 324.233436 31.047176 
L 324.254682 31.036139 
L 324.266085 31.036849 
L 324.269547 31.042998 
L 324.277013 31.05096 
L 324.283122 31.060972 
L 324.283122 31.073271 
L 324.275656 31.081391 
L 324.26303 31.085963 
" clip-path="url(#pc3ae50fcaa)" style="fill: none; stroke: #000000; stroke-width: 2"/>
    <path d="M 324.524087 30.988128 
L 324.525851 30.999244 
L 324.537798 31.010833 
L 324.559654 31.023604 
L 324.580968 31.03204 
L 324.589045 31.033537 
L 324.596444 31.037243 
L 324.592371 31.045836 
L 324.584565 31.055848 
L 324.580289 31.063574 
L 324.577302 31.078238 
L 324.572687 31.088802 
L 324.572415 31.100154 
L 324.58314 31.116788 
L 324.586669 31.120336 
L 324.591081 31.123332 
L 324.595765 31.125381 
L 324.600448 31.12617 
L 324.603231 31.127747 
L 324.603231 31.131688 
L 324.602281 31.136182 
L 324.60296 31.139966 
L 324.619115 31.161173 
L 324.625902 31.166455 
L 324.609476 31.199014 
L 324.60167 31.206188 
L 324.589928 31.207529 
L 324.583547 31.200276 
L 324.580696 31.188608 
L 324.580289 31.176388 
L 324.575538 31.165982 
L 324.564609 31.169293 
L 324.552188 31.176152 
L 324.543228 31.176388 
L 324.538884 31.166376 
L 324.536915 31.141858 
L 324.534132 31.133344 
L 324.527548 31.128614 
L 324.520625 31.12885 
L 324.500465 31.133344 
L 324.503316 31.12483 
L 324.503112 31.118917 
L 324.500194 31.113477 
L 324.494221 31.106303 
L 324.474943 31.112452 
L 324.451186 31.102677 
L 324.432249 31.083125 
L 324.426547 31.060026 
L 324.448132 31.084544 
L 324.454444 31.087067 
L 324.462182 31.079184 
L 324.462047 31.067043 
L 324.460282 31.053956 
L 324.462997 31.043471 
L 324.470056 31.026679 
L 324.458653 31.018322 
L 324.441819 31.010281 
L 324.432249 30.993883 
L 324.457092 30.994198 
L 324.46802 30.990414 
L 324.477251 30.980638 
L 324.460757 30.964556 
L 324.457567 30.945162 
L 324.46707 30.930183 
L 324.488655 30.927109 
L 324.497003 30.930183 
L 324.504402 30.936096 
L 324.509832 30.945083 
L 324.511869 30.957303 
L 324.515534 30.963058 
L 324.540377 30.980638 
L 324.524087 30.988128 
" clip-path="url(#pc3ae50fcaa)" style="fill: none; stroke: #000000; stroke-width: 2"/>
    <path d="M 322.551844 29.327761 
L 322.408555 29.453426 
L 322.487632 29.484645 
L 322.493877 29.453426 
L 322.607096 29.664864 
L 322.756969 29.912094 
L 322.585104 29.678818 
L 322.820502 29.760413 
L 322.894624 29.738418 
L 322.835164 29.839565 
L 322.854305 29.866685 
L 322.974855 29.912094 
L 322.965352 29.828055 
L 323.140001 29.90492 
L 323.121266 29.929044 
L 323.119841 29.991561 
L 323.228784 29.898298 
L 323.233671 29.914853 
L 323.527648 30.219476 
L 323.565795 30.134333 
L 323.614259 30.090816 
L 323.603535 30.199688 
L 323.635844 30.211435 
L 323.597154 30.216401 
L 323.677385 30.318731 
L 323.754494 30.432885 
L 323.776961 30.582359 
L 323.760467 30.593553 
L 323.751371 30.595918 
L 323.808931 30.634863 
L 323.80608 30.678775 
L 323.825901 30.714803 
L 323.662859 30.645191 
L 323.619961 30.720874 
L 323.619961 30.588665 
L 323.753747 30.718587 
L 323.797528 30.90062 
L 323.828751 30.902433 
L 323.924458 31.075163 
L 323.973194 31.288966 
L 324.002993 31.664305 
L 323.917535 31.265079 
L 323.894592 31.601157 
L 323.837847 31.644438 
L 323.882442 31.69103 
L 323.897443 31.750867 
L 323.959076 31.682753 
L 324.431366 31.892299 
L 324.490284 32.051942 
L 324.677625 32.069522 
L 324.637713 31.972712 
L 324.546079 31.65043 
L 324.588027 31.639393 
L 324.562166 31.523346 
L 324.508 31.431108 
L 324.449354 31.342023 
L 324.865984 31.578374 
L 324.776794 31.639472 
L 324.749032 31.714208 
L 324.863473 31.681097 
L 324.866595 31.69174 
L 324.955515 32.200706 
L 325.192203 32.527087 
L 325.214602 32.496341 
L 325.986367 32.799545 
L 326.320663 32.689962 
L 326.521308 32.468118 
L 327.128335 32.514079 
L 327.119782 32.539149 
L 326.949071 33.005464 
L 326.558369 33.855475 
L 326.615997 33.861151 
L 326.655162 33.898362 
L 326.609684 33.940697 
L 326.546423 34.053748 
L 326.532712 33.859102 
L 325.862627 33.998878 
L 325.813348 34.389353 
L 325.890864 34.482774 
L 325.845861 34.513441 
L 325.609445 34.990084 
L 325.594376 34.978968 
L 325.556636 35.007349 
L 325.574827 35.022486 
L 324.960266 35.949362 
L 324.338782 36.304597 
L 324.331043 36.274324 
L 324.318554 36.132104 
L 324.183207 36.078968 
L 324.04175 36.116494 
L 324.049217 36.012115 
L 324.061842 35.927603 
L 323.937491 36.045857 
L 323.820199 35.959295 
L 323.882918 35.926184 
L 324.136507 35.588923 
L 324.310273 35.292342 
L 324.283122 34.824055 
L 323.865745 34.582817 
L 323.668561 34.468662 
L 323.499207 34.333064 
L 323.165251 34.192421 
L 323.134299 33.973808 
L 323.282882 33.867931 
L 323.854341 33.419433 
L 323.969393 32.905343 
L 323.970479 32.916222 
L 324.042836 32.944997 
L 324.090894 32.918587 
L 324.10603 32.898169 
L 323.988535 32.892098 
L 323.980389 32.885949 
L 324.042293 32.620902 
L 324.134742 32.561617 
L 324.029057 32.576123 
L 324.016907 32.128492 
L 324.0146 32.117691 
L 323.927445 32.186752 
L 323.896697 32.154192 
L 323.785446 31.895925 
L 323.943125 32.002275 
L 324.11085 31.933688 
L 323.917535 31.98296 
L 324.106845 31.920443 
L 323.904231 31.773414 
L 323.693811 31.738726 
L 323.616499 31.530284 
L 323.484071 31.280058 
L 323.679625 31.511205 
L 323.702228 31.465875 
L 323.682272 31.212574 
L 323.645076 31.243163 
L 323.545839 31.193496 
L 323.711595 31.139966 
L 323.746213 31.087067 
L 323.574347 31.139966 
L 323.667475 31.03401 
L 323.648334 30.986709 
L 323.597154 31.087067 
L 323.554391 31.036927 
L 323.585751 31.100312 
L 323.312477 30.961402 
L 323.248808 30.740188 
L 323.383341 31.063574 
L 323.465608 31.23654 
L 322.878334 30.30927 
L 322.968203 30.281205 
L 322.957207 30.163581 
L 322.872428 30.277657 
L 322.86693 30.274346 
L 322.841476 30.264334 
L 322.814393 30.32283 
L 322.801089 30.404347 
L 322.751267 30.190543 
L 322.710677 30.209543 
L 322.693707 30.256765 
L 322.699952 30.170203 
L 322.6223 30.169415 
L 322.565148 30.079069 
L 322.635333 30.048796 
L 322.605467 29.828291 
L 322.237843 29.32784 
L 322.251351 29.337064 
L 322.402039 29.328313 
L 322.551844 29.327761 
L 322.551844 29.327761 
" clip-path="url(#pc3ae50fcaa)" style="fill: none; stroke: #000000; stroke-width: 2"/>
    <path d="M 29.83721 24.328528 
L 29.851634 24.355096 
L 29.839009 24.347922 
L 29.826723 24.349105 
L 29.817017 24.356515 
L 29.811824 24.368262 
L 29.801337 24.355884 
L 29.800421 24.355096 
L 29.787626 24.360693 
L 29.785454 24.353677 
L 29.786981 24.341536 
L 29.785386 24.331918 
L 29.770114 24.318043 
L 29.76431 24.311027 
L 29.76 24.301015 
L 29.774356 24.300226 
L 29.789628 24.302118 
L 29.804324 24.306218 
L 29.817221 24.311736 
L 29.82954 24.320014 
L 29.83721 24.328528 
" clip-path="url(#pc3ae50fcaa)" style="fill: none; stroke: #000000; stroke-width: 2"/>
    <path d="M 35.408647 5.060437 
L 35.406441 5.06091 
L 35.405898 5.059649 
L 35.405592 5.057441 
L 35.404472 5.055707 
L 35.400434 5.050188 
L 35.396938 5.044039 
L 35.394019 5.037575 
L 35.391847 5.03111 
L 35.398601 5.036313 
L 35.403895 5.043093 
L 35.407255 5.051213 
L 35.408647 5.060437 
" clip-path="url(#pc3ae50fcaa)" style="fill: none; stroke: #000000; stroke-width: 2"/>
    <path d="M 34.329601 4.29825 
L 34.326038 4.309917 
L 34.325868 4.304872 
L 34.324002 4.28942 
L 34.316603 4.279171 
L 34.310256 4.267977 
L 34.319318 4.276333 
L 34.326547 4.28674 
L 34.329601 4.29825 
" clip-path="url(#pc3ae50fcaa)" style="fill: none; stroke: #000000; stroke-width: 2"/>
   </g>
  </g>
 </g>
 <defs>
  <clipPath id="pc3ae50fcaa">
   <rect x="0" y="0" width="357.12" height="51.21572"/>
  </clipPath>
 </defs>
</svg>
