<?xml version="1.0" encoding="utf-8" standalone="no"?>
<!DOCTYPE svg PUBLIC "-//W3C//DTD SVG 1.1//EN"
  "http://www.w3.org/Graphics/SVG/1.1/DTD/svg11.dtd">
<svg xmlns:xlink="http://www.w3.org/1999/xlink" width="199.863614pt" height="266.112pt" viewBox="0 0 199.863614 266.112" xmlns="http://www.w3.org/2000/svg" version="1.1">
 <metadata>
  <rdf:RDF xmlns:dc="http://purl.org/dc/elements/1.1/" xmlns:cc="http://creativecommons.org/ns#" xmlns:rdf="http://www.w3.org/1999/02/22-rdf-syntax-ns#">
   <cc:Work>
    <dc:type rdf:resource="http://purl.org/dc/dcmitype/StillImage"/>
    <dc:date>2024-02-02T21:58:04.192866</dc:date>
    <dc:format>image/svg+xml</dc:format>
    <dc:creator>
     <cc:Agent>
      <dc:title>Matplotlib v3.8.2, https://matplotlib.org/</dc:title>
     </cc:Agent>
    </dc:creator>
   </cc:Work>
  </rdf:RDF>
 </metadata>
 <defs>
  <style type="text/css">*{stroke-linejoin: round; stroke-linecap: butt}</style>
 </defs>
 <g id="figure_1">
  <g id="patch_1">
   <path d="M 0 266.112 
L 199.863614 266.112 
L 199.863614 0 
L 0 0 
L 0 266.112 
z
" style="fill: none"/>
  </g>
  <g id="axes_1">
   <g id="PatchCollection_1">
    <path d="M 99.491468 224.31407 
L 99.174411 224.510402 
L 98.536851 224.506697 
L 98.336967 224.623385 
L 98.335244 224.624311 
L 98.255979 224.408532 
L 98.240471 224.365931 
L 98.240471 224.364079 
L 98.354198 224.188122 
L 98.60233 224.069582 
L 98.902156 223.988086 
L 99.32777 224.2548 
L 99.493191 224.313144 
L 99.491468 224.31407 
" clip-path="url(#p0e8ad98575)" style="fill: none; stroke: #000000; stroke-width: 2"/>
    <path d="M 102.796443 224.568746 
L 102.462155 224.624311 
L 101.524769 224.578933 
L 101.228389 224.454836 
L 101.045737 223.964008 
L 101.604033 223.612093 
L 102.413907 223.332413 
L 102.975649 223.056438 
L 102.975649 223.05829 
L 103.035959 223.374087 
L 103.041128 223.408352 
L 103.241012 223.684328 
L 103.52016 223.879733 
L 103.826879 223.988086 
L 103.154855 224.427053 
L 102.796443 224.568746 
" clip-path="url(#p0e8ad98575)" style="fill: none; stroke: #000000; stroke-width: 2"/>
    <path d="M 157.964369 163.638384 
L 157.960922 163.638384 
L 157.850642 163.429087 
L 157.757592 163.256834 
L 157.649035 162.546521 
L 157.628357 161.835283 
L 157.674882 161.450029 
L 157.674882 161.449103 
L 157.667989 161.422246 
L 157.616295 161.213875 
L 157.764485 159.413553 
L 157.876489 159.123686 
L 158.105666 158.807889 
L 158.222839 158.691201 
L 158.600206 158.400408 
L 158.760458 158.341138 
L 158.801813 158.296686 
L 158.843168 158.251307 
L 158.936218 157.829936 
L 158.987912 157.706765 
L 159.346324 157.572482 
L 159.697844 157.557665 
L 160.057979 157.501173 
L 160.4319 157.240015 
L 160.605936 156.999231 
L 160.683478 156.889952 
L 160.762742 156.607494 
L 160.776527 156.556559 
L 160.86613 155.685107 
L 160.997088 155.264661 
L 161.193526 154.922007 
L 162.210176 153.5588 
L 162.601328 152.733652 
L 162.839121 151.984444 
L 163.023496 151.716803 
L 163.340553 151.632529 
L 163.595578 152.008522 
L 163.595578 152.0113 
L 163.568007 152.400259 
L 163.423264 152.817 
L 163.340553 153.269859 
L 163.340553 153.270785 
L 163.385355 153.755131 
L 163.511144 154.13946 
L 164.162489 155.336896 
L 164.350311 155.685107 
L 164.350311 155.686033 
L 164.267601 155.935152 
L 164.079779 156.117592 
L 163.268182 156.727886 
L 162.41006 157.213158 
L 162.024077 157.565073 
L 161.517475 158.345769 
L 161.265898 158.879198 
L 161.019489 159.972912 
L 160.828221 160.360019 
L 160.828221 160.361871 
L 160.828221 160.61562 
L 160.831667 160.635994 
L 160.864407 160.845291 
L 160.86613 160.99717 
L 160.776527 161.156458 
L 160.063149 161.873253 
L 159.680612 162.407608 
L 159.487621 162.621535 
L 159.298076 162.690992 
L 159.029267 162.728962 
L 158.788028 162.790084 
L 158.688086 162.932702 
L 158.615714 163.173486 
L 158.434785 163.432791 
L 158.202162 163.61801 
L 157.964369 163.638384 
" clip-path="url(#p0e8ad98575)" style="fill: none; stroke: #000000; stroke-width: 2"/>
    <path d="M 112.111717 59.595668 
L 112.253014 60.543986 
L 114.744669 65.183706 
L 115.26161 65.7514 
L 116.459189 66.801588 
L 119.231715 70.308698 
L 119.612528 71.385743 
L 121.6958 73.841739 
L 126.186293 77.536845 
L 126.878993 77.975813 
L 129.887589 79.119536 
L 133.768092 80.141942 
L 135.394732 80.862441 
L 137.519359 81.410688 
L 138.005283 81.436618 
L 139.826638 81.436618 
L 140.65719 82.396049 
L 141.170684 82.532185 
L 141.773782 82.833165 
L 142.304508 82.901695 
L 145.988573 82.804456 
L 146.938021 83.004492 
L 148.966152 83.782409 
L 150.130992 84.868715 
L 150.868494 85.107646 
L 151.848959 85.22989 
L 152.874225 85.215073 
L 154.206209 84.865936 
L 154.392308 84.715909 
L 154.545667 84.29639 
L 154.728319 84.288981 
L 155.131533 84.401964 
L 156.520381 84.514947 
L 156.951165 84.727949 
L 157.137263 85.013185 
L 157.747254 86.11153 
L 157.947137 86.254148 
L 158.153914 86.422697 
L 158.557128 86.437514 
L 159.024097 86.882038 
L 159.11887 87.059848 
L 159.277398 87.059848 
L 159.408357 86.748681 
L 159.458328 86.871851 
L 159.711629 87.213579 
L 159.840864 86.902412 
L 160.021793 87.030213 
L 160.287156 86.902412 
L 160.941948 87.958157 
L 160.86613 88.300811 
L 161.034997 88.615682 
L 161.252112 89.654757 
L 161.526091 90.095577 
L 162.766749 91.244857 
L 163.530098 91.590289 
L 163.831647 91.999622 
L 164.398559 93.335046 
L 165.361792 94.405609 
L 165.539275 95.750294 
L 166.974647 97.301498 
L 167.186593 98.137759 
L 167.284812 98.246111 
L 167.875848 98.721197 
L 169.719603 99.914003 
L 170.243437 100.536337 
L 170.61908 101.242019 
L 171.625392 103.95732 
L 172.009651 104.2583 
L 172.774724 104.675041 
L 174.020551 106.730965 
L 174.906243 107.567226 
L 175.571374 107.91451 
L 176.057298 108.341439 
L 176.663842 108.728545 
L 176.684519 108.967477 
L 176.557007 109.024895 
L 176.243397 108.898946 
L 176.246843 109.219374 
L 176.401925 109.36477 
L 176.967114 109.36477 
L 178.597201 108.802633 
L 179.162389 109.032303 
L 180.1463 109.687976 
L 180.596038 109.675937 
L 180.751121 110.141761 
L 180.740782 110.44552 
L 181.123318 110.719643 
L 181.395574 110.764095 
L 181.471392 110.651112 
L 181.026822 110.056561 
L 181.116426 109.749098 
L 182.33296 109.828742 
L 182.791314 110.417737 
L 183.098032 111.181763 
L 183.208313 111.865218 
L 182.791314 115.59459 
L 182.513889 116.596622 
L 182.089997 117.491226 
L 180.882079 119.197088 
L 179.896445 120.116697 
L 179.737917 120.517695 
L 179.681053 121.045567 
L 179.293348 122.134651 
L 179.195129 123.233922 
L 178.988352 123.686781 
L 178.149185 124.0424 
L 177.890715 124.439694 
L 177.542641 125.270398 
L 175.867753 127.54488 
L 174.823532 130.536156 
L 172.841926 133.705243 
L 172.614472 134.636891 
L 172.443882 134.796179 
L 168.845973 136.50204 
L 166.476661 138.45239 
L 163.614532 141.488119 
L 162.528956 143.056918 
L 162.239469 143.265289 
L 161.906904 143.745931 
L 161.18491 145.177669 
L 161.066014 146.214892 
L 160.941948 146.411223 
L 159.711629 147.421589 
L 159.799509 147.893896 
L 159.44282 148.217102 
L 158.557128 148.665331 
L 158.581251 148.707931 
L 158.248686 149.274699 
L 158.105666 149.519187 
L 158.288318 149.941485 
L 158.688086 150.233204 
L 159.001697 150.084103 
L 159.594456 149.61087 
L 159.566885 150.063729 
L 159.356663 150.365635 
L 158.97068 150.65828 
L 158.588144 150.769411 
L 158.264194 150.53048 
L 157.649035 151.941844 
L 156.951165 152.422485 
L 156.449732 153.442112 
L 156.230894 154.675667 
L 155.400342 156.562116 
L 155.426189 156.928848 
L 155.307293 157.101101 
L 155.131533 158.031824 
L 154.676625 158.168885 
L 154.190701 158.496722 
L 154.049404 159.107942 
L 153.591049 159.356135 
L 152.994844 159.333909 
L 151.755909 158.833819 
L 150.796123 158.851415 
L 149.986249 159.132021 
L 150.072405 158.759732 
L 148.447488 158.306873 
L 148.397517 157.859571 
L 148.669773 156.928848 
L 148.666326 157.215011 
L 148.911012 157.690096 
L 149.119511 157.87624 
L 149.200499 157.416899 
L 148.985107 156.392641 
L 149.689869 154.816433 
L 149.74501 154.14409 
L 149.553741 153.651409 
L 149.124681 153.506013 
L 148.507798 153.5588 
L 147.884023 153.755131 
L 147.205107 154.199656 
L 146.343539 154.4284 
L 145.940325 154.817359 
L 145.561235 156.142596 
L 145.757673 156.592677 
L 145.323442 156.884396 
L 144.41535 157.198341 
L 144.032813 157.45209 
L 143.348728 158.167033 
L 143.164353 158.723614 
L 143.231555 158.939394 
L 143.598583 159.500605 
L 143.443501 160.002547 
L 143.066134 160.290562 
L 141.78929 160.901782 
L 141.105205 161.586164 
L 140.867412 162.256655 
L 140.419397 162.941963 
L 140.403889 163.497618 
L 140.932891 164.974734 
L 140.588264 165.803587 
L 140.248806 167.368682 
L 140.205728 168.041951 
L 139.712911 169.247722 
L 139.11326 171.092497 
L 137.776106 173.108599 
L 137.571053 173.705002 
L 137.658933 174.404202 
L 138.222398 175.414568 
L 138.199998 176.440678 
L 137.938081 177.331578 
L 137.893279 177.789067 
L 138.048362 178.227109 
L 139.235602 180.321929 
L 139.364838 180.954449 
L 139.261449 182.138921 
L 138.82205 183.654933 
L 138.872021 184.177249 
L 139.504412 185.70067 
L 140.036861 186.3406 
L 140.167819 186.707332 
L 139.95932 188.120548 
L 140.760578 189.595813 
L 140.765747 189.929206 
L 139.855931 190.750649 
L 138.801372 191.009955 
L 138.475699 191.329456 
L 138.005283 191.552645 
L 133.595778 191.332235 
L 127.37181 192.326857 
L 124.75092 193.091809 
L 121.178859 194.595782 
L 119.808966 195.608001 
L 118.907766 196.068269 
L 118.418395 196.455375 
L 118.032413 197.177727 
L 115.771658 199.4874 
L 115.378783 200.308843 
L 115.28918 201.385888 
L 115.445985 202.395328 
L 115.378783 202.684269 
L 115.072065 203.11768 
L 114.711929 204.182685 
L 114.711929 205.129151 
L 114.520661 206.08673 
L 113.424747 208.716831 
L 113.740081 209.163207 
L 113.688386 209.641071 
L 113.390284 210.085595 
L 112.975008 210.427323 
L 111.598222 211.116335 
L 110.815919 212.41379 
L 110.361011 212.602713 
L 109.320236 213.895537 
L 109.347807 214.403035 
L 109.106568 214.453044 
L 105.7947 214.014077 
L 105.365639 214.082607 
L 104.733248 214.39007 
L 104.264555 214.480827 
L 102.031371 214.3947 
L 99.886066 215.162431 
L 94.466803 215.419884 
L 90.055575 216.656217 
L 89.769534 217.028506 
L 89.268102 218.301882 
L 88.859718 218.857537 
L 88.453058 219.948473 
L 88.161848 220.284645 
L 86.202642 221.965501 
L 85.461694 223.535227 
L 85.403107 224.065878 
L 85.489264 224.677098 
L 85.713272 224.982709 
L 86.42665 225.386485 
L 86.83848 225.835639 
L 86.998731 226.310724 
L 87.005624 227.349799 
L 86.859157 227.78321 
L 85.949341 229.197353 
L 85.937279 229.79746 
L 86.243998 230.17438 
L 86.023436 230.592047 
L 85.272149 231.008788 
L 85.061926 231.39219 
L 84.972323 231.786705 
L 84.768993 232.136768 
L 84.837919 232.25253 
L 84.636312 232.502575 
L 83.669632 232.887829 
L 83.271588 233.692603 
L 83.013117 233.820403 
L 82.149826 234.837252 
L 81.067697 235.54386 
L 80.86092 235.199354 
L 80.612789 235.349381 
L 80.10791 235.855027 
L 78.872421 236.009684 
L 78.541579 236.368082 
L 78.148704 236.501439 
L 77.280244 236.618127 
L 76.573758 236.901511 
L 76.222238 236.903363 
L 75.982722 236.618127 
L 75.73976 236.755188 
L 75.352054 236.695918 
L 75.112538 236.787602 
L 74.390544 236.30696 
L 74.233739 236.476435 
L 73.72886 235.347529 
L 71.743807 234.947457 
L 71.05283 235.07711 
L 70.027564 234.921526 
L 69.231475 235.232693 
L 68.233779 234.936344 
L 67.713392 234.8993 
L 67.279162 235.232693 
L 66.874225 235.076184 
L 62.929966 235.54386 
L 60.886327 235.643878 
L 59.724933 236.30696 
L 59.652561 236.686658 
L 59.724933 237.026533 
L 59.656008 237.221013 
L 59.056356 237.873907 
L 58.522184 237.985038 
L 57.553781 238.044308 
L 55.489464 238.487906 
L 54.614111 238.924095 
L 54.229852 238.807408 
L 53.301082 239.52976 
L 52.828942 240.03911 
L 52.453299 240.711453 
L 51.312582 241.307856 
L 50.619882 241.488444 
L 47.239089 241.559753 
L 45.452197 241.83295 
L 41.993862 242.9776 
L 40.195105 243.936 
L 33.857085 229.396824 
L 33.493813 229.262744 
L 32.697242 229.215699 
L 32.384303 229.011051 
L 32.528736 228.984 
L 32.568127 228.972238 
L 16.655301 190.377314 
L 80.172019 167.622598 
L 94.129525 122.477768 
L 94.118583 121.955563 
L 93.899745 121.458058 
L 84.585988 105.98598 
L 84.813579 102.665746 
L 84.754493 98.668646 
L 85.413196 96.479855 
L 87.428697 92.978496 
L 87.897011 91.585951 
L 88.57541 88.557399 
L 88.975884 87.966978 
L 90.059133 86.670287 
L 90.949805 83.461199 
L 92.028678 81.71346 
L 91.864549 79.332371 
L 91.52535 78.833101 
L 90.402709 78.060379 
L 90.216697 77.650495 
L 90.302044 77.318237 
L 91.212411 77.148873 
L 92.523252 76.588444 
L 93.722486 76.021546 
L 94.32648 75.910401 
L 96.392313 75.904521 
L 96.773092 75.839245 
L 97.324564 76.262066 
L 97.718473 76.3097 
L 100.184781 75.315864 
L 101.524071 74.991839 
L 101.758228 74.630176 
L 100.972598 73.238219 
L 100.723123 72.273199 
L 100.3883 71.456372 
L 99.753669 71.194093 
L 98.567566 71.668076 
L 98.210859 71.64867 
L 96.630847 71.23761 
L 96.598021 70.893002 
L 96.766527 70.49488 
L 97.725038 68.723618 
L 97.751299 67.429868 
L 97.591547 67.228748 
L 97.031321 66.786521 
L 96.963481 66.440737 
L 97.011626 65.20697 
L 96.718382 63.767966 
L 97.230464 63.135205 
L 97.361767 62.371892 
L 97.954819 61.83675 
L 97.88479 61.396287 
L 97.458056 60.458906 
L 97.414288 60.040789 
L 97.5062 58.764681 
L 97.328941 57.015766 
L 97.549968 56.312436 
L 98.191164 55.514427 
L 98.884881 54.893427 
L 99.622366 54.434734 
L 100.436445 54.227146 
L 101.346812 54.36299 
L 101.922357 54.717595 
L 102.163079 55.390345 
L 102.423496 56.879922 
L 101.642244 56.383004 
L 101.346812 56.312436 
L 100.974787 56.422993 
L 100.906947 56.709382 
L 101.057945 57.046345 
L 101.847952 57.748499 
L 102.471641 59.315701 
L 103.119402 59.824968 
L 103.902843 59.853784 
L 104.307694 59.742051 
L 104.498083 59.507999 
L 104.627198 59.11811 
L 105.082381 58.574735 
L 105.432184 57.724354 
L 105.74765 57.58384 
L 106.539844 57.487397 
L 106.920623 57.306272 
L 107.739078 56.520024 
L 108.33213 56.106024 
L 108.458173 55.723933 
L 108.673581 54.449928 
L 108.769807 54.341819 
L 109.919888 54.216 
L 110.388581 56.057997 
L 112.111717 59.595668 
L 112.111717 59.595668 
" clip-path="url(#p0e8ad98575)" style="fill: none; stroke: #000000; stroke-width: 2"/>
    <path d="M 109.195984 47.028332 
L 109.095461 47.654146 
L 108.503658 47.953962 
L 108.010814 48.12485 
L 107.769716 48.328232 
L 107.143838 48.766931 
L 106.795885 48.913948 
L 106.461063 48.821034 
L 106.199913 48.694097 
L 106.168117 48.471942 
L 106.215812 47.908011 
L 106.782231 47.63257 
L 106.988907 47.393326 
L 106.861722 47.205349 
L 106.793697 46.976851 
L 106.750435 46.607241 
L 107.32213 46.185069 
L 107.958697 46.265464 
L 108.354233 46.86211 
L 109.195984 47.028332 
M 107.299976 47.438977 
L 107.372983 48.048002 
L 107.79546 47.905681 
L 107.908718 47.531282 
L 107.601353 47.318183 
L 107.416371 47.320774 
L 107.299976 47.438977 
" clip-path="url(#p0e8ad98575)" style="fill: none; stroke: #000000; stroke-width: 2"/>
    <path d="M 109.637293 22.176 
L 109.92678 22.796482 
L 110.361011 22.487167 
L 110.519539 22.654789 
L 110.457506 22.940952 
L 110.519539 23.107648 
L 110.719423 22.946508 
L 110.9486 23.154879 
L 111.098513 23.277123 
L 111.848077 23.431781 
L 112.122056 23.418815 
L 112.077254 23.316019 
L 111.963527 22.952065 
L 112.411543 22.796482 
L 112.625211 23.370658 
L 112.58041 23.592921 
L 111.391446 23.715165 
L 110.42649 24.607917 
L 110.243837 24.844997 
L 110.957216 25.510857 
L 111.243256 25.608096 
L 111.887709 25.289521 
L 112.122056 25.608096 
L 111.729181 26.283217 
L 111.536189 26.361009 
L 111.401785 25.919263 
L 110.950323 25.919263 
L 111.022695 26.405462 
L 110.950323 26.539745 
L 111.537913 26.994456 
L 111.817061 27.227831 
L 111.963527 27.641794 
L 111.487942 27.582524 
L 111.098513 27.316736 
L 110.793518 27.46028 
L 110.536771 27.354706 
L 110.378242 27.077804 
L 110.361011 26.710146 
L 109.795822 27.006495 
L 109.826838 26.578641 
L 110.085309 26.384161 
L 109.604554 26.305444 
L 109.078997 26.604571 
L 108.765387 27.026869 
L 108.917023 27.316736 
L 108.786064 27.839978 
L 108.917023 28.419711 
L 109.278881 27.714029 
L 109.506335 27.641794 
L 109.64074 27.786264 
L 109.602831 28.345624 
L 109.506335 28.573443 
L 109.919888 28.741991 
L 111.818784 28.716061 
L 111.636131 29.017967 
L 111.315628 29.286533 
L 109.852685 30.090381 
L 109.92678 30.453409 
L 110.460953 30.17836 
L 110.757332 30.433961 
L 110.767671 30.855333 
L 110.281746 31.177613 
L 110.660836 31.781425 
L 110.741824 31.948121 
L 111.401785 32.162975 
L 111.236364 32.270401 
L 111.176054 32.342636 
L 111.098513 32.64269 
L 110.440275 32.385237 
L 110.131834 32.420428 
L 109.92678 32.64269 
L 110.261069 33.183528 
L 110.116325 33.681765 
L 109.506335 34.648605 
L 109.506335 35.356139 
L 109.087613 35.750654 
L 108.500024 36.660077 
L 108.193305 36.837886 
L 108.193305 36.357245 
L 107.900372 36.841591 
L 107.600547 37.580612 
L 107.448911 38.412242 
L 107.712379 39.43979 
L 106.493888 39.749491 
L 106.161254 39.660105 
L 106.012444 39.489565 
L 105.61197 38.87915 
L 104.997035 38.725076 
L 104.876673 38.452213 
L 104.793515 37.044377 
L 105.445653 36.303411 
L 105.347176 36.019962 
L 104.85479 35.377792 
L 104.760689 34.989666 
L 104.863543 34.649763 
L 105.415016 33.764132 
L 105.642608 31.04608 
L 105.688564 30.629728 
L 105.581333 30.163978 
L 105.248699 29.28658 
L 105.007976 29.258352 
L 103.442481 29.571156 
L 103.444342 29.564361 
L 103.540838 29.35136 
L 103.740722 28.536399 
L 105.143355 26.384161 
L 105.867072 25.155238 
L 106.213422 24.972797 
L 106.213422 25.406208 
L 106.45983 25.777571 
L 106.301302 26.23043 
L 106.45983 26.23043 
L 106.663161 26.02669 
L 107.214564 25.997055 
L 107.45408 25.783128 
L 107.731505 25.883146 
L 107.983083 26.138747 
L 108.048562 26.539745 
L 108.196752 26.287848 
L 108.772279 26.384161 
L 109.573537 25.919263 
L 110.361011 26.072995 
L 110.419597 25.88222 
L 110.157681 25.517339 
L 110.006045 25.452513 
L 109.335745 25.421026 
L 109.027303 25.672923 
L 108.570672 26.000759 
L 108.334603 25.919263 
L 108.331156 25.66644 
L 108.493131 24.350464 
L 109.392608 24.930197 
L 109.506335 24.598656 
L 109.1686 24.191176 
L 108.627536 23.913348 
L 108.834312 23.660525 
L 109.087613 23.58829 
L 109.46498 23.005778 
L 109.506335 22.176 
L 109.637293 22.176 
L 109.637293 22.176 
" clip-path="url(#p0e8ad98575)" style="fill: none; stroke: #000000; stroke-width: 2"/>
   </g>
  </g>
 </g>
 <defs>
  <clipPath id="p0e8ad98575">
   <rect x="0" y="-0" width="199.863614" height="266.112"/>
  </clipPath>
 </defs>
</svg>
