<?xml version="1.0" encoding="utf-8" standalone="no"?>
<!DOCTYPE svg PUBLIC "-//W3C//DTD SVG 1.1//EN"
  "http://www.w3.org/Graphics/SVG/1.1/DTD/svg11.dtd">
<svg xmlns:xlink="http://www.w3.org/1999/xlink" width="278.468953pt" height="266.112pt" viewBox="0 0 278.468953 266.112" xmlns="http://www.w3.org/2000/svg" version="1.1">
 <metadata>
  <rdf:RDF xmlns:dc="http://purl.org/dc/elements/1.1/" xmlns:cc="http://creativecommons.org/ns#" xmlns:rdf="http://www.w3.org/1999/02/22-rdf-syntax-ns#">
   <cc:Work>
    <dc:type rdf:resource="http://purl.org/dc/dcmitype/StillImage"/>
    <dc:date>2024-02-02T21:58:04.219872</dc:date>
    <dc:format>image/svg+xml</dc:format>
    <dc:creator>
     <cc:Agent>
      <dc:title>Matplotlib v3.8.2, https://matplotlib.org/</dc:title>
     </cc:Agent>
    </dc:creator>
   </cc:Work>
  </rdf:RDF>
 </metadata>
 <defs>
  <style type="text/css">*{stroke-linejoin: round; stroke-linecap: butt}</style>
 </defs>
 <g id="figure_1">
  <g id="patch_1">
   <path d="M 0 266.112 
L 278.468953 266.112 
L 278.468953 0 
L 0 0 
L 0 266.112 
z
" style="fill: none"/>
  </g>
  <g id="axes_1">
   <g id="PatchCollection_1">
    <path d="M 118.199402 238.015364 
L 118.307785 238.059941 
L 118.306619 238.060616 
L 118.018765 238.191645 
L 117.955833 238.422635 
L 117.857939 238.642819 
L 117.471025 238.740753 
L 117.220463 238.641468 
L 116.990879 238.399671 
L 116.876669 238.1984 
L 116.82073 238.098439 
L 116.73449 237.824223 
L 116.947759 238.047783 
L 117.275237 238.055888 
L 117.916209 237.824223 
L 118.199402 238.015364 
" clip-path="url(#p1fce56eab0)" style="fill: none; stroke: #000000; stroke-width: 2"/>
    <path d="M 222.95049 22.828763 
L 223.407829 23.177875 
L 223.928811 23.961876 
L 224.093098 24.622359 
L 224.285506 24.550306 
L 224.37431 24.392048 
L 224.639241 23.701972 
L 225.0951 23.462225 
L 225.589441 23.34128 
L 226.128184 23.337849 
L 227.618606 23.22591 
L 228.715332 23.928852 
L 230.951706 24.478254 
L 231.333562 24.835086 
L 231.570372 25.33345 
L 231.799782 27.274582 
L 232.106155 27.67945 
L 232.974951 27.716334 
L 233.19548 27.269436 
L 234.090918 26.952061 
L 235.226125 27.163072 
L 236.356893 27.675161 
L 237.24197 28.261875 
L 238.448221 29.396704 
L 239.970539 32.285366 
L 240.061488 32.687966 
L 239.792117 34.0055 
L 239.906082 34.915594 
L 240.412263 35.560637 
L 240.447785 35.854851 
L 239.812838 36.32062 
L 239.799517 36.497321 
L 239.906082 36.977672 
L 239.728474 37.192114 
L 238.830077 37.793411 
L 238.727952 38.06275 
L 238.809356 38.625447 
L 239.129049 39.153833 
L 239.568628 39.558701 
L 240.017087 39.751699 
L 241.121213 39.818605 
L 241.52971 40.042483 
L 241.883445 40.645495 
L 242.219419 42.556605 
L 242.619036 42.895424 
L 242.95945 42.916011 
L 243.970333 42.703284 
L 244.708883 42.838811 
L 245.237266 42.484553 
L 246.117903 42.387625 
L 246.428716 41.994766 
L 247.404077 41.812061 
L 247.933939 41.297399 
L 248.19591 41.374599 
L 248.336516 41.91242 
L 248.133747 43.264265 
L 248.414959 43.808091 
L 248.894499 44.06628 
L 249.932023 44.429974 
L 250.395282 44.757642 
L 250.916264 45.405258 
L 251.373476 45.553359 
L 255.169481 54.501768 
L 254.893191 54.845012 
L 255.066358 55.705355 
L 254.971634 56.221732 
L 254.749625 56.503939 
L 253.214801 57.553849 
L 252.837385 57.322251 
L 252.451088 57.218461 
L 251.941947 57.261349 
L 251.440206 57.425183 
L 251.090911 57.686803 
L 250.975467 58.069368 
L 251.028749 58.961448 
L 250.894063 59.277965 
L 249.40068 60.574913 
L 247.914698 60.822808 
L 247.686768 60.74132 
L 247.065142 60.298711 
L 246.516039 60.213792 
L 245.968416 60.415368 
L 243.994013 61.512455 
L 241.985569 61.907029 
L 241.076811 61.533042 
L 240.57655 61.636832 
L 240.34862 61.836692 
L 239.758076 62.600965 
L 239.371779 62.717621 
L 238.43638 63.392686 
L 237.317453 64.446027 
L 237.049562 64.51422 
L 236.140804 64.436163 
L 235.309009 64.627874 
L 234.679983 64.604714 
L 230.905824 63.627715 
L 230.316759 63.34894 
L 229.520486 62.700466 
L 229.136543 62.27654 
L 228.969903 62.171222 
L 228.445961 62.16436 
L 227.510562 62.359074 
L 226.175546 62.424264 
L 221.122613 61.451553 
L 217.502382 60.187201 
L 216.596583 60.038807 
L 215.693746 60.114291 
L 214.776107 60.465118 
L 213.331566 61.409523 
L 210.864303 61.876149 
L 210.445445 62.211537 
L 210.418804 62.597534 
L 210.532769 63.027276 
L 210.540169 63.499049 
L 210.32556 63.831006 
L 209.640292 64.294202 
L 209.409402 64.674194 
L 209.314678 65.500226 
L 209.188873 65.63318 
L 208.682691 65.92954 
L 208.447361 66.302669 
L 208.376318 66.719545 
L 208.488803 67.120124 
L 208.796656 67.44093 
L 209.499686 67.774173 
L 210.275238 67.784466 
L 210.708896 67.827355 
L 210.947186 68.10999 
L 211.576213 69.610229 
L 211.534771 69.94819 
L 211.26688 70.195228 
L 210.409924 70.631832 
L 210.07247 70.972367 
L 209.945184 71.479309 
L 210.07839 71.975528 
L 210.401043 72.412991 
L 210.824341 72.714497 
L 211.26688 72.800703 
L 212.535293 72.572536 
L 213.296045 72.835014 
L 214.870831 72.663031 
L 215.31929 72.970112 
L 215.499857 73.505361 
L 215.359252 74.039751 
L 214.644382 74.894947 
L 213.637939 75.462362 
L 212.095715 75.721837 
L 211.762701 76.022914 
L 211.115913 77.283407 
L 211.03895 77.984633 
L 211.146995 78.486 
L 211.26688 78.713309 
L 211.947708 79.279865 
L 212.862387 79.760645 
L 213.627579 80.356795 
L 213.859949 81.272035 
L 213.552096 82.537245 
L 212.819465 84.25836 
L 212.393207 84.628488 
L 211.625055 84.991324 
L 211.482969 85.283395 
L 211.435607 86.012928 
L 211.633935 86.526303 
L 212.021711 86.917017 
L 212.542693 87.274707 
L 213.010393 87.735758 
L 213.803706 88.808828 
L 214.333569 89.109047 
L 215.667104 89.329494 
L 216.057841 89.570527 
L 216.211767 89.939797 
L 216.247289 90.780411 
L 216.380494 91.977857 
L 215.989758 92.631049 
L 216.316852 93.186884 
L 216.558102 93.345142 
L 216.865955 93.400897 
L 217.133846 93.33056 
L 217.600066 93.050927 
L 217.882757 93.028196 
L 218.121048 93.150857 
L 218.773755 93.691681 
L 219.060887 93.70369 
L 220.09841 93.494823 
L 220.394423 93.286814 
L 220.959807 92.174287 
L 221.220298 92.121963 
L 221.414186 92.277219 
L 221.468948 92.649062 
L 221.371264 93.005894 
L 220.905044 94.071244 
L 220.879883 95.723308 
L 220.616432 96.313025 
L 220.659354 96.643695 
L 221.088572 97.802113 
L 221.471908 98.250726 
L 221.98253 98.425711 
L 222.534593 98.394832 
L 223.048174 98.228853 
L 223.603198 98.192398 
L 224.588919 98.685187 
L 225.182424 98.625572 
L 225.787769 98.383252 
L 226.259909 98.335217 
L 226.706888 98.513204 
L 227.725171 99.240163 
L 228.730133 99.47991 
L 229.217073 99.763832 
L 230.602411 100.887939 
L 230.975387 101.354137 
L 231.062711 101.731126 
L 230.913224 102.057508 
L 230.33748 102.856091 
L 230.140632 103.603208 
L 229.499765 103.603208 
L 228.724213 103.939454 
L 228.400079 104.253398 
L 228.41488 104.63339 
L 227.779933 104.576777 
L 227.500201 104.786073 
L 227.383276 104.778353 
L 226.505599 104.448111 
L 226.245108 104.503009 
L 226.353153 104.972209 
L 225.722647 105.02539 
L 225.286028 105.540052 
L 224.332868 105.594949 
L 224.104939 105.880587 
L 223.467032 105.65242 
L 223.218381 106.012683 
L 223.092576 106.591678 
L 222.823205 107.023136 
L 222.527192 107.087468 
L 221.602154 106.900475 
L 221.011609 107.806279 
L 220.780719 107.891199 
L 219.482705 108.946255 
L 219.345059 109.213879 
L 219.201493 109.928401 
L 219.022405 110.359859 
L 218.838878 110.522836 
L 218.807796 110.546853 
L 218.609468 110.868517 
L 218.753034 111.056368 
L 219.556708 112.511145 
L 219.971125 114.083437 
L 220.401823 114.742204 
L 220.438825 115.056148 
L 220.193134 115.633427 
L 219.786117 116.212421 
L 219.12305 118.022315 
L 219.120089 118.766001 
L 218.852198 119.761872 
L 218.973563 120.319422 
L 219.287336 120.762031 
L 219.521186 120.864963 
L 220.435865 120.760316 
L 220.912445 121.127441 
L 221.03529 121.282697 
L 219.898602 121.964624 
L 219.681033 122.257981 
L 219.678073 122.601089 
L 218.753034 123.395384 
L 218.166929 123.44685 
L 217.677029 123.79682 
L 217.346975 124.447867 
L 216.171806 124.44272 
L 215.954237 124.764384 
L 216.059321 125.064603 
L 215.899474 125.359676 
L 215.276368 125.739668 
L 215.419934 126.186566 
L 214.338009 127.370288 
L 214.244765 127.705676 
L 213.988714 127.999891 
L 213.830347 128.324128 
L 213.196881 128.545432 
L 212.778023 128.883393 
L 212.418368 129.452952 
L 212.424288 130.452254 
L 212.23188 130.663265 
L 211.543651 130.956623 
L 211.454848 131.175354 
L 210.587531 132.316187 
L 210.406964 132.347925 
L 210.167194 132.265579 
L 210.198275 132.373658 
L 210.255997 132.718481 
L 209.991066 132.690175 
L 209.477485 133.086464 
L 209.342799 133.413275 
L 210.048789 133.798413 
L 210.338881 134.229871 
L 210.664495 134.939247 
L 210.839088 135.884904 
L 210.80362 136.146986 
L 208.425161 138.155025 
L 207.873097 138.468111 
L 205.268188 139.064261 
L 202.796484 140.229969 
L 202.583355 140.478723 
L 200.614873 146.964318 
L 198.008483 152.083058 
L 196.74895 153.931981 
L 196.108084 155.325856 
L 195.869794 155.495695 
L 188.037305 159.73565 
L 186.97314 161.063906 
L 186.632726 161.753982 
L 185.503438 165.879424 
L 185.106782 166.597806 
L 184.548798 167.197816 
L 182.790485 168.683902 
L 181.48359 170.552124 
L 181.406626 170.858348 
L 181.160936 173.139157 
L 180.967048 173.296558 
L 176.668948 174.652263 
L 175.471577 174.753479 
L 174.33563 174.654836 
L 173.099038 174.765488 
L 171.880207 175.036972 
L 170.796801 175.417822 
L 167.404499 177.153948 
L 166.227109 177.425432 
L 165.227327 177.287331 
L 164.491736 176.766665 
L 163.938193 175.93763 
L 163.449773 174.557908 
L 163.506755 173.942887 
L 163.214443 173.397346 
L 162.808906 173.059385 
L 161.978591 172.205046 
L 161.152716 171.851645 
L 160.852264 171.809614 
L 159.215315 172.279672 
L 158.956304 172.462806 
L 158.15263 173.378475 
L 157.025561 174.266208 
L 155.617284 175.896886 
L 154.56052 179.099798 
L 154.226026 179.589584 
L 153.002014 180.814479 
L 152.142098 182.257248 
L 150.460747 183.91789 
L 149.537189 184.58695 
L 148.240654 185.941368 
L 147.65159 186.984416 
L 147.266773 188.237617 
L 146.658468 192.259699 
L 146.769473 192.943341 
L 147.217931 193.464865 
L 149.440985 194.418705 
L 150.025609 194.828719 
L 151.057213 195.790278 
L 151.677359 196.0356 
L 155.121463 195.88978 
L 155.660206 196.033885 
L 156.174527 196.330673 
L 156.582284 196.868495 
L 156.651847 197.479227 
L 156.422438 202.058858 
L 156.209309 202.672164 
L 155.376774 204.288202 
L 155.244308 205.994305 
L 155.510719 206.830631 
L 155.965099 207.63093 
L 156.527522 208.333443 
L 157.382998 209.214372 
L 157.887699 210.519898 
L 158.107488 210.692309 
L 158.667692 210.903321 
L 159.475806 211.087741 
L 161.71736 210.915329 
L 162.800025 210.501027 
L 163.373549 210.624545 
L 163.682142 211.071443 
L 163.733945 211.749081 
L 163.578538 215.106392 
L 163.691023 215.68367 
L 163.918952 216.032783 
L 164.493217 216.69155 
L 164.842511 217.828952 
L 165.322051 218.397653 
L 166.470579 219.555642 
L 166.632646 219.951932 
L 167.111446 222.235315 
L 167.823356 224.025051 
L 168.684752 225.450235 
L 169.167993 226.90201 
L 169.553549 227.535473 
L 169.259757 227.759779 
L 168.311777 228.247422 
L 168.106048 228.64414 
L 167.992083 229.163091 
L 168.034265 229.63615 
L 168.37986 230.092484 
L 168.271815 231.027453 
L 168.311777 231.147969 
L 168.640351 231.34783 
L 169.713396 231.621458 
L 169.8244 232.034903 
L 169.685274 232.191017 
L 168.998526 232.453495 
L 168.591509 232.946283 
L 168.311777 232.935561 
L 167.727152 232.770441 
L 167.460741 232.861364 
L 166.584544 233.490538 
L 166.361055 233.789042 
L 166.412857 234.080255 
L 166.599345 234.356028 
L 166.512021 234.468824 
L 165.969578 234.641665 
L 165.137044 235.023801 
L 163.218883 234.862541 
L 162.447771 234.337157 
L 162.341206 234.09741 
L 162.222801 232.568436 
L 162.555815 232.225328 
L 162.379688 231.826036 
L 161.778783 231.812312 
L 160.28096 232.19359 
L 159.376642 232.78588 
L 158.593689 232.833058 
L 158.315437 232.971587 
L 157.792235 233.377741 
L 155.720148 233.90527 
L 155.566962 234.175467 
L 155.065221 235.511443 
L 154.547199 235.976354 
L 153.918173 236.123033 
L 151.011331 236.167208 
L 150.231338 236.067278 
L 149.600831 235.733177 
L 148.480424 234.473113 
L 148.061567 234.271537 
L 144.019517 234.155738 
L 142.951652 234.573472 
L 142.120597 234.60521 
L 140.967629 234.077681 
L 140.692337 234.130863 
L 139.722897 234.626225 
L 139.463146 234.595774 
L 139.263337 234.379187 
L 138.754936 233.599475 
L 138.427102 233.562591 
L 138.281316 233.929716 
L 137.689291 234.940598 
L 137.41548 234.710715 
L 137.331856 233.745725 
L 137.122428 233.403046 
L 136.379436 233.368306 
L 136.073064 234.064815 
L 136.052343 239.443459 
L 131.857847 239.410864 
L 131.197739 239.522374 
L 130.74188 239.873202 
L 130.74484 239.742392 
L 130.673797 239.452894 
L 130.584253 239.387275 
L 130.409606 239.420299 
L 130.345963 240.064055 
L 129.979648 240.350979 
L 129.688076 240.098366 
L 129.601492 239.899792 
L 129.32842 240.042182 
L 129.3114 240.479216 
L 129.355062 240.659347 
L 129.013167 240.706096 
L 128.646112 240.906814 
L 128.29883 241.485462 
L 128.299952 241.464003 
L 127.93285 240.440758 
L 127.971308 241.224908 
L 128.12048 241.522763 
L 128.065706 241.853038 
L 127.73007 242.830355 
L 127.742889 243.128886 
L 127.93285 243.907633 
L 127.812813 243.936 
L 127.141541 243.283555 
L 127.09376 243.690826 
L 126.84786 243.700958 
L 126.576321 243.461187 
L 126.493577 242.999208 
L 126.742973 242.768893 
L 126.742973 242.377831 
L 126.941092 242.027294 
L 127.141541 242.027294 
L 127.141541 241.923956 
L 126.716169 241.490344 
L 126.528539 241.158042 
L 126.449292 240.779813 
L 126.590305 240.140876 
L 126.360721 240.173296 
L 125.871252 239.873414 
L 126.449292 241.697019 
L 126.027416 242.606795 
L 125.871252 242.707431 
L 125.726742 242.429162 
L 125.593886 241.999602 
L 124.973891 242.037425 
L 124.786261 241.74835 
L 124.618443 241.620022 
L 124.387693 241.58355 
L 124.130139 241.03039 
L 123.80033 241.347157 
L 123.737398 241.093203 
L 123.604542 240.327289 
L 123.267741 242.027294 
L 122.429816 241.834802 
L 121.64783 241.45995 
L 121.821475 241.594357 
L 122.006774 242.039451 
L 121.843618 242.264362 
L 121.290051 242.29408 
L 120.368218 241.975287 
L 120.505735 241.510606 
L 120.564005 241.347157 
L 120.671222 239.976752 
L 120.494081 240.261099 
L 120.484758 240.952718 
L 120.368218 241.244495 
L 120.15728 241.353911 
L 119.944011 241.285019 
L 119.79717 241.081046 
L 119.783185 240.779813 
L 119.585067 240.993918 
L 119.349655 240.713623 
L 119.185333 240.554227 
L 118.983718 240.539368 
L 118.948756 240.670397 
L 119.185333 241.006751 
L 118.209891 240.666344 
L 118.697029 240.554227 
L 119.097928 239.873414 
L 118.501241 240.100352 
L 118.514061 239.66809 
L 118.608459 239.296615 
L 117.818315 239.069677 
L 118.205229 238.327403 
L 118.405678 238.400347 
L 118.944095 237.953901 
L 118.990711 237.699272 
L 118.657406 238.00118 
L 118.361393 237.96741 
L 117.667978 237.699272 
L 116.426824 237.689141 
L 116.245021 237.43181 
L 116.031752 236.478808 
L 115.590064 235.558901 
L 115.422246 234.086509 
L 115.55044 233.836607 
L 115.452547 233.39489 
L 115.73807 233.174707 
L 116.548026 233.15647 
L 116.262502 232.992346 
L 116.016602 232.929533 
L 115.409427 232.929533 
L 115.247436 232.739068 
L 115.275405 232.307481 
L 115.46187 231.569934 
L 115.374465 231.689482 
L 115.063302 231.90899 
L 115.035332 231.47943 
L 114.661238 230.751339 
L 114.378045 230.425791 
L 114.662403 230.149549 
L 114.604133 230.028651 
L 114.280151 229.983398 
L 114.058724 229.54776 
L 113.986469 229.066868 
L 114.4806 229.197898 
L 114.974731 229.066868 
L 114.350075 228.677833 
L 113.830305 228.642711 
L 113.535458 228.645413 
L 113.499331 228.323918 
L 113.605382 227.861938 
L 114.220715 227.069684 
L 115.016686 226.449658 
L 114.689207 226.072104 
L 113.753389 226.247711 
L 113.591398 225.726295 
L 113.357152 225.531777 
L 112.788435 225.635115 
L 112.520392 225.531777 
L 112.413175 225.656052 
L 112.539038 226.01537 
L 112.26983 225.890419 
L 111.685963 225.419659 
L 111.175517 225.217712 
L 110.75131 224.863122 
L 110.857362 225.419659 
L 110.514733 225.377784 
L 109.66865 224.739522 
L 109.26309 224.71926 
L 108.528886 224.929987 
L 108.201408 224.739522 
L 108.053401 224.802335 
L 106.93811 225.045482 
L 106.770292 225.079253 
L 106.404356 224.936066 
L 106.441649 224.61187 
L 106.731834 224.26606 
L 107.124575 223.945241 
L 106.7936 223.751399 
L 106.7936 223.115163 
L 107.018523 221.844043 
L 107.124575 220.5351 
L 107.604721 219.619246 
L 107.593067 219.260603 
L 107.207319 218.295444 
L 105.560604 216.785229 
L 105.066473 216.462383 
L 104.882339 216.197623 
L 104.966248 215.868699 
L 105.332185 215.969335 
L 105.502334 215.633656 
L 105.444064 215.191939 
L 105.116585 214.972431 
L 104.920797 214.679303 
L 104.641101 213.66619 
L 104.378885 213.828288 
L 104.348584 213.752642 
L 104.280991 213.60135 
L 104.094527 213.66754 
L 103.952347 213.332537 
L 103.880092 213.148826 
L 103.29506 212.345089 
L 102.938447 212.463961 
L 102.588826 212.432893 
L 102.372061 212.242427 
L 102.414015 211.881083 
L 101.884922 212.17286 
L 101.207823 212.208657 
L 100.677564 212.14787 
L 100.470122 212.308617 
L 99.957345 212.42006 
L 99.430583 212.870558 
L 98.767468 213.891101 
L 98.388712 214.384825 
L 98.770965 214.379422 
L 100.08787 214.110609 
L 100.735834 213.446006 
L 100.733504 213.251488 
L 101.466542 213.070479 
L 101.854622 213.081285 
L 102.724012 213.753317 
L 103.096941 214.282163 
L 103.298556 214.11196 
L 103.570095 214.032937 
L 103.850957 214.078189 
L 104.085203 214.282163 
L 103.588742 214.734687 
L 104.166782 215.121021 
L 104.362569 215.391184 
L 104.173774 215.651892 
L 103.966332 215.618122 
L 103.29506 215.075093 
L 102.185596 214.544221 
L 101.50267 214.383474 
L 101.027185 214.5091 
L 100.642602 214.417245 
L 99.316373 214.848156 
L 98.025106 214.859637 
L 97.103272 215.135204 
L 95.95535 215.31824 
L 95.009043 215.335801 
L 93.676987 215.992299 
L 93.089624 216.105767 
L 92.054746 216.548836 
L 91.73426 216.508311 
L 89.415107 215.868699 
L 88.191434 216.105767 
L 88.377898 215.75523 
L 87.53065 215.870725 
L 86.902498 216.20843 
L 86.436337 215.951774 
L 86.04243 216.113872 
L 85.739425 216.492777 
L 85.296572 217.226271 
L 84.939959 217.351897 
L 84.406204 217.254638 
L 81.136083 216.816298 
L 80.727026 217.011491 
L 80.412367 216.866278 
L 79.956694 216.813596 
L 79.055838 216.887891 
L 78.68524 217.047963 
L 78.113027 217.672041 
L 77.886938 218.464296 
L 77.970847 218.835096 
L 78.551218 219.101882 
L 78.566368 219.28897 
L 78.453324 219.299102 
L 77.569949 219.501724 
L 76.993074 219.392308 
L 77.374161 218.754046 
L 77.38465 218.474427 
L 77.139915 218.088768 
L 76.493116 217.780782 
L 75.819513 217.692303 
L 75.650529 217.836165 
L 75.272939 218.258972 
L 74.374413 218.267752 
L 73.560961 217.568703 
L 72.015637 217.094566 
L 71.899096 217.011491 
L 71.029706 216.977045 
L 69.748927 216.691347 
L 69.752424 216.458331 
L 69.927234 215.868699 
L 69.535659 215.358089 
L 69.738439 215.099408 
L 70.077571 215.075093 
L 70.556552 215.094004 
L 70.554221 214.773861 
L 70.218585 214.734687 
L 69.204684 214.934608 
L 69.046189 214.791421 
L 68.060258 215.414824 
L 68.35394 215.301355 
L 68.563712 215.672155 
L 69.095136 215.353362 
L 69.535659 216.20843 
L 69.2513 216.547485 
L 67.962364 216.548836 
L 67.595262 216.707557 
L 67.058011 216.602868 
L 65.602423 216.042279 
L 64.640965 215.870725 
L 63.669019 215.899092 
L 62.274031 216.20843 
L 61.774073 216.548836 
L 61.023553 217.54709 
L 60.79863 217.465366 
L 60.973441 217.948283 
L 61.492045 218.711496 
L 61.330054 219.021508 
L 61.242649 219.051902 
L 60.788142 218.962748 
L 59.963036 218.573712 
L 59.473567 218.485909 
L 58.247563 218.568309 
L 57.571629 218.258972 
L 56.138183 217.935451 
L 55.69533 218.032034 
L 54.473987 218.608834 
L 53.250314 218.485909 
L 50.788982 217.919241 
L 47.308548 217.881407 
L 46.588221 217.966459 
L 46.414058 218.328539 
L 46.451351 218.556152 
L 46.763679 218.711496 
L 46.478155 218.835096 
L 46.118046 218.715548 
L 45.68102 218.838473 
L 44.994597 219.28897 
L 44.668284 219.686111 
L 44.569225 219.945468 
L 44.611179 220.196045 
L 44.795461 220.393778 
L 45.300298 220.580594 
L 45.211633 220.81302 
L 43.907068 220.772452 
L 43.421627 220.629515 
L 44.041297 220.128504 
L 44.269716 220.10554 
L 44.310505 219.912373 
L 44.014837 219.193627 
L 43.395369 218.747128 
L 41.834023 218.641253 
L 40.900873 218.994113 
L 40.599537 219.583648 
L 40.801476 219.76716 
L 40.86932 220.146727 
L 41.146436 220.488497 
L 40.83672 220.594307 
L 38.745166 220.448 
L 38.05229 220.556713 
L 37.395002 221.629263 
L 36.754333 221.971776 
L 36.24439 222.043076 
L 35.881837 221.905051 
L 35.745977 221.645217 
L 35.923098 220.745828 
L 36.356628 220.241973 
L 36.414898 219.848885 
L 36.657302 219.392308 
L 36.597867 219.095128 
L 36.093247 219.36259 
L 35.49423 218.996518 
L 35.212202 218.919522 
L 33.858004 218.912092 
L 33.858786 218.911484 
L 34.313612 217.527875 
L 34.778352 211.68818 
L 35.078804 211.339925 
L 35.120246 210.766935 
L 34.890837 209.499152 
L 35.192769 209.062547 
L 36.021604 208.933024 
L 36.239173 208.655964 
L 36.319096 208.363465 
L 37.153852 202.37366 
L 37.36254 201.926762 
L 37.708875 201.644556 
L 39.436107 201.133325 
L 40.21684 200.640108 
L 41.233643 200.271267 
L 41.285445 199.862968 
L 41.528175 199.459817 
L 42.066918 199.534443 
L 42.703344 199.769471 
L 43.240607 199.847529 
L 43.55142 199.675975 
L 43.53884 199.440088 
L 43.32053 198.753872 
L 43.422655 198.548008 
L 44.0206 197.799175 
L 44.02652 197.222754 
L 44.850915 196.760416 
L 45.518423 196.641186 
L 45.747832 196.334104 
L 45.883998 196.292931 
L 48.573271 195.922375 
L 48.928486 195.623013 
L 49.364364 195.746532 
L 50.133256 195.457464 
L 50.390787 195.022575 
L 50.546194 194.975397 
L 55.843336 195.219862 
L 56.099387 195.286768 
L 56.42056 194.959957 
L 56.571527 194.296902 
L 56.789836 191.624949 
L 57.025906 191.497142 
L 57.60757 191.400214 
L 57.822179 191.19778 
L 57.868061 190.89413 
L 57.440323 190.045796 
L 57.449203 187.80959 
L 58.09303 187.023873 
L 58.652494 187.121659 
L 57.959825 185.692615 
L 57.677133 185.434426 
L 57.160591 185.197682 
L 56.611488 184.77909 
L 56.466442 184.774801 
L 55.499222 185.038137 
L 54.879816 185.032132 
L 53.757928 185.331494 
L 52.534657 185.52535 
L 52.082498 185.423275 
L 51.530435 185.209691 
L 51.220362 185.331494 
L 51.005013 185.209691 
L 50.385607 184.640132 
L 50.754142 184.514897 
L 50.907329 184.092017 
L 50.862927 183.642546 
L 50.581715 183.29086 
L 51.334327 181.543583 
L 51.42165 180.853079 
L 50.92879 175.296448 
L 50.290143 172.5533 
L 50.729721 168.959675 
L 50.660158 168.379394 
L 50.341945 168.182107 
L 47.998267 168.668462 
L 47.708915 168.481039 
L 46.595908 167.120188 
L 46.4035 166.663426 
L 45.636828 166.150908 
L 45.347475 165.728886 
L 44.950079 165.517017 
L 43.058559 165.125874 
L 41.40977 164.479973 
L 40.024432 164.258669 
L 39.341383 163.855517 
L 38.219496 163.463516 
L 37.766597 162.929555 
L 36.857839 162.069641 
L 36.262854 161.283066 
L 34.369855 159.395973 
L 33.959877 158.482448 
L 33.472937 157.764495 
L 33.356012 157.163628 
L 32.624861 155.577183 
L 32.176403 155.076674 
L 32.460575 154.675667 
L 32.280007 154.419194 
L 32.034317 154.31283 
L 31.547376 153.470501 
L 31.285405 153.40531 
L 31.058956 153.041616 
L 30.976072 152.441177 
L 30.20052 151.308064 
L 30.20052 150.982969 
L 30.397368 150.077164 
L 30.265642 149.656857 
L 29.432367 149.121609 
L 23.205746 141.626418 
L 23.658645 141.836572 
L 45.117326 148.818816 
L 46.592948 149.10188 
L 62.217964 147.61365 
L 67.994646 148.740759 
L 69.628635 149.453995 
L 70.019371 149.293163 
L 70.867447 147.832381 
L 71.370668 147.572048 
L 75.54849 146.406484 
L 80.142996 146.444939 
L 83.237066 146.905132 
L 99.838183 142.005552 
L 100.97783 141.178663 
L 101.91323 139.993225 
L 101.796305 139.835395 
L 101.355246 139.492288 
L 100.766182 138.888418 
L 100.26222 138.535017 
L 100.177117 138.311997 
L 100.211898 138.048661 
L 100.421327 137.419916 
L 101.408529 135.209444 
L 101.375967 134.204996 
L 101.610557 131.67286 
L 101.420369 131.120457 
L 101.074035 130.671843 
L 100.830564 130.013076 
L 100.874226 129.289976 
L 102.412011 123.723909 
L 102.654741 123.592671 
L 104.913316 123.055707 
L 106.532504 121.293848 
L 107.017964 119.423053 
L 107.365779 119.182877 
L 107.913402 119.108251 
L 108.616431 118.445195 
L 109.044169 118.075497 
L 110.544952 117.449325 
L 111.387107 117.430454 
L 111.598016 117.541964 
L 111.699401 117.771846 
L 111.69274 118.277073 
L 111.555834 118.479506 
L 111.6846 118.699953 
L 112.190781 118.81661 
L 112.480873 118.821756 
L 113.315628 118.671647 
L 113.60128 118.757424 
L 114.418275 119.150282 
L 114.655085 119.177731 
L 115.398076 119.141704 
L 116.578425 119.176015 
L 117.570807 118.75485 
L 118.421843 118.640767 
L 118.950225 118.413458 
L 119.980348 118.173282 
L 121.510732 117.207434 
L 122.308486 117.128519 
L 122.456492 116.818007 
L 122.389149 116.122355 
L 121.872608 115.95509 
L 120.681898 116.112062 
L 120.113554 115.854731 
L 119.906345 115.607694 
L 119.821981 114.958362 
L 119.32098 114.171787 
L 119.505248 113.87843 
L 119.956667 113.868137 
L 120.886886 114.073144 
L 121.328685 114.02854 
L 122.072895 113.637206 
L 122.543816 113.308871 
L 123.425193 112.324152 
L 124.020918 112.122576 
L 124.456056 112.193771 
L 125.191647 112.079687 
L 125.592744 111.661096 
L 126.426019 111.130136 
L 126.543684 110.630057 
L 127.17419 109.912961 
L 127.661871 108.984855 
L 127.956403 108.964268 
L 128.639452 109.26363 
L 129.643674 109.998738 
L 130.776661 110.016752 
L 132.809527 110.635203 
L 133.36529 110.373584 
L 133.551038 110.166003 
L 133.419312 110.016752 
L 133.142541 109.97901 
L 131.972551 109.948988 
L 131.723901 109.840051 
L 131.674319 109.676217 
L 131.952571 109.460059 
L 132.910911 109.018308 
L 133.231344 109.013161 
L 133.712364 109.198439 
L 134.5486 109.668497 
L 135.534321 109.915535 
L 135.629045 110.118826 
L 135.780011 111.033208 
L 136.148547 111.460378 
L 136.808654 112.40564 
L 137.18903 112.671548 
L 137.757374 112.606358 
L 139.153073 111.989622 
L 139.672575 112.025648 
L 140.055911 111.866103 
L 141.023871 111.089821 
L 141.211839 110.792175 
L 141.635137 110.427623 
L 143.591779 107.61757 
L 144.362892 106.955372 
L 144.32515 106.740072 
L 143.873731 105.477435 
L 143.6051 103.547453 
L 143.721285 102.143713 
L 143.837469 101.072788 
L 143.784927 100.723676 
L 143.414172 99.795569 
L 143.263205 99.081476 
L 143.332768 98.394832 
L 143.60066 97.766086 
L 144.32441 97.048562 
L 144.917915 96.844842 
L 145.171005 96.638548 
L 146.099004 95.200926 
L 146.143406 94.997206 
L 145.837033 93.958447 
L 145.486259 93.717414 
L 145.412256 93.587033 
L 145.387095 93.262367 
L 145.542501 93.038918 
L 146.027961 92.682515 
L 146.378736 92.203451 
L 146.833115 91.852194 
L 146.975201 91.370128 
L 146.70731 89.570527 
L 146.982602 89.004828 
L 147.361497 88.53477 
L 147.838817 88.230691 
L 149.309259 88.117036 
L 149.56087 88.197667 
L 149.822101 88.13505 
L 150.494789 87.661561 
L 151.051292 87.570637 
L 152.008892 88.037264 
L 152.613498 87.994375 
L 153.827889 87.327888 
L 154.416954 87.288002 
L 154.526478 87.139179 
L 155.006018 86.25439 
L 155.174745 86.188342 
L 155.827453 86.325156 
L 156.105704 86.172044 
L 158.535226 84.18159 
L 158.637351 83.636477 
L 158.410161 83.120529 
L 157.581326 82.173122 
L 157.374118 81.818006 
L 156.862016 81.617716 
L 156.537883 81.066599 
L 156.509761 80.433565 
L 156.811694 78.983506 
L 156.645927 78.798657 
L 156.216709 78.496722 
L 155.867414 77.403494 
L 155.257629 77.507713 
L 154.268158 77.157922 
L 153.710224 76.981901 
L 152.549855 74.494369 
L 152.130258 74.089502 
L 152.042934 73.842893 
L 152.512114 73.103924 
L 152.494353 72.590978 
L 152.732643 72.358951 
L 153.115979 72.231573 
L 154.359231 72.150085 
L 157.452561 73.197421 
L 158.265115 73.272476 
L 159.018467 73.585991 
L 160.175135 73.633597 
L 161.793583 73.894359 
L 163.715444 73.628022 
L 165.650625 73.64775 
L 166.665948 73.461614 
L 167.125507 72.721359 
L 167.775994 72.861604 
L 168.14823 72.647591 
L 168.311777 72.421998 
L 169.535788 71.976386 
L 169.553549 71.400823 
L 169.538008 71.12891 
L 169.697115 70.797811 
L 170.187015 70.134326 
L 170.164815 69.401362 
L 170.029389 68.520433 
L 170.448986 67.362444 
L 170.386824 66.954145 
L 169.368541 66.406888 
L 168.517505 65.522528 
L 168.083847 64.783131 
L 168.023165 64.046306 
L 168.190412 63.752092 
L 168.436102 63.64487 
L 169.58167 63.607128 
L 169.735597 63.274314 
L 169.731156 62.525481 
L 169.643833 61.901025 
L 169.793319 61.707169 
L 170.800501 60.920594 
L 171.547193 60.458256 
L 172.299804 59.428075 
L 172.784525 58.352432 
L 173.292186 57.978444 
L 175.363533 57.112955 
L 175.985159 55.977268 
L 175.906716 55.810003 
L 175.927436 55.082614 
L 176.300412 54.641721 
L 177.290574 53.984669 
L 177.774554 53.129473 
L 177.713871 52.906453 
L 177.277253 52.570207 
L 176.226409 51.283553 
L 176.25157 50.834939 
L 176.691148 50.292829 
L 177.530344 49.470228 
L 177.552545 49.146849 
L 177.137153 48.572988 
L 177.056724 48.461491 
L 176.9694 48.09265 
L 177.138127 47.159397 
L 177.004922 46.913217 
L 176.771072 46.74681 
L 175.695067 46.160095 
L 175.560381 45.877889 
L 176.082843 44.928338 
L 176.0192 44.634123 
L 175.743909 44.2507 
L 175.449376 43.977929 
L 175.399054 43.497578 
L 175.28953 43.086707 
L 174.606481 42.022215 
L 173.956734 41.58561 
L 173.804287 41.334284 
L 173.742865 40.790458 
L 173.530476 40.554571 
L 172.325705 40.151419 
L 171.758841 39.634184 
L 171.072309 39.167945 
L 171.01511 38.92052 
L 171.150536 38.664047 
L 171.684098 38.072186 
L 171.833585 37.597839 
L 173.064256 36.812122 
L 173.209302 36.349785 
L 174.406673 35.838554 
L 175.739469 34.539891 
L 176.634906 34.237098 
L 176.475059 33.510567 
L 176.950159 33.001052 
L 177.380857 32.078092 
L 177.648749 32.051501 
L 177.937361 32.163869 
L 178.761755 32.683677 
L 179.393742 33.187188 
L 179.846641 33.097122 
L 180.015368 32.91356 
L 179.973926 32.686251 
L 179.731196 32.235922 
L 179.711955 31.710967 
L 180.006488 31.533408 
L 181.165376 31.395307 
L 181.7204 30.921819 
L 183.746605 29.838456 
L 183.706643 29.547672 
L 183.681482 29.410429 
L 183.974534 29.183977 
L 184.335669 29.074183 
L 185.417595 28.829719 
L 185.157104 28.025131 
L 185.389474 27.87159 
L 186.0185 27.621121 
L 188.506484 27.133908 
L 189.462605 27.097882 
L 190.359522 26.390222 
L 191.053671 26.058265 
L 191.97575 25.853258 
L 192.92447 25.790641 
L 194.12036 25.955333 
L 195.803191 25.786352 
L 196.50474 25.53331 
L 197.144127 25.710011 
L 197.888598 25.33345 
L 200.480187 25.166185 
L 201.316422 25.27169 
L 202.031292 25.037519 
L 202.718041 25.084697 
L 203.665281 24.964609 
L 204.574039 25.094132 
L 206.446317 24.796057 
L 208.348197 24.872828 
L 209.668413 25.195349 
L 210.840622 25.887569 
L 212.106075 26.141469 
L 212.95119 25.881565 
L 213.088836 25.7143 
L 213.251643 24.914 
L 213.691222 24.711996 
L 214.632541 24.820932 
L 214.975915 24.704276 
L 215.675985 24.17203 
L 217.243371 23.17959 
L 218.144728 23.007608 
L 218.526585 23.180448 
L 219.066807 23.769307 
L 219.296217 23.707119 
L 219.36726 22.720684 
L 219.645511 22.587729 
L 221.309101 22.22232 
L 221.899646 22.807318 
L 222.95049 22.828763 
L 222.95049 22.828763 
" clip-path="url(#p1fce56eab0)" style="fill: none; stroke: #000000; stroke-width: 2"/>
   </g>
  </g>
 </g>
 <defs>
  <clipPath id="p1fce56eab0">
   <rect x="0" y="-0" width="278.468953" height="266.112"/>
  </clipPath>
 </defs>
</svg>
