<?xml version="1.0" encoding="utf-8" standalone="no"?>
<!DOCTYPE svg PUBLIC "-//W3C//DTD SVG 1.1//EN"
  "http://www.w3.org/Graphics/SVG/1.1/DTD/svg11.dtd">
<svg xmlns:xlink="http://www.w3.org/1999/xlink" width="357.12pt" height="148.546093pt" viewBox="0 0 357.12 148.546093" xmlns="http://www.w3.org/2000/svg" version="1.1">
 <metadata>
  <rdf:RDF xmlns:dc="http://purl.org/dc/elements/1.1/" xmlns:cc="http://creativecommons.org/ns#" xmlns:rdf="http://www.w3.org/1999/02/22-rdf-syntax-ns#">
   <cc:Work>
    <dc:type rdf:resource="http://purl.org/dc/dcmitype/StillImage"/>
    <dc:date>2024-02-02T21:58:04.246880</dc:date>
    <dc:format>image/svg+xml</dc:format>
    <dc:creator>
     <cc:Agent>
      <dc:title>Matplotlib v3.8.2, https://matplotlib.org/</dc:title>
     </cc:Agent>
    </dc:creator>
   </cc:Work>
  </rdf:RDF>
 </metadata>
 <defs>
  <style type="text/css">*{stroke-linejoin: round; stroke-linecap: butt}</style>
 </defs>
 <g id="figure_1">
  <g id="patch_1">
   <path d="M 0 148.546093 
L 357.12 148.546093 
L 357.12 0 
L 0 0 
L 0 148.546093 
z
" style="fill: none"/>
  </g>
  <g id="axes_1">
   <g id="PatchCollection_1">
    <path d="M 92.718393 131.782002 
L 92.691666 131.99399 
L 93.183033 131.806942 
L 93.592163 131.856821 
L 94.067083 131.973207 
L 94.764043 131.99399 
L 94.141096 132.5011 
L 93.466752 133.820831 
L 93.037062 134.467188 
L 93.234432 134.724899 
L 93.413298 135.13225 
L 93.037062 135.13225 
L 92.261977 132.817004 
L 92.34627 132.374322 
L 92.134509 132.085436 
L 92.11395 131.927484 
L 92.34627 131.644833 
L 92.537472 131.651068 
L 92.664939 131.686399 
L 92.718393 131.782002 
" clip-path="url(#p99cb7266ee)" style="fill: none; stroke: #000000; stroke-width: 2"/>
    <path d="M 131.230061 118.370618 
L 130.833267 118.856944 
L 130.263774 119.058541 
L 129.712785 119.330801 
L 129.322158 119.407698 
L 128.884246 119.218572 
L 128.563521 118.962938 
L 128.281858 118.809143 
L 127.95291 118.732245 
L 127.48827 118.709384 
L 126.972231 118.821613 
L 126.713184 119.095951 
L 126.53843 119.43056 
L 126.279383 119.723603 
L 124.869016 120.453092 
L 124.15972 121.290654 
L 123.865722 121.46939 
L 123.442201 121.46939 
L 122.965225 121.361317 
L 122.59927 121.224148 
L 122.484138 121.151407 
L 121.090218 121.643968 
L 120.773604 121.625263 
L 121.246468 120.96228 
L 121.735779 120.453092 
L 122.249762 120.06029 
L 122.870652 119.810892 
L 124.692206 119.530319 
L 125.214412 119.066854 
L 125.539249 118.501552 
L 125.966882 118.011069 
L 126.653562 117.653598 
L 127.537612 117.329381 
L 129.071335 116.967754 
L 129.712785 117.185977 
L 130.391242 117.275345 
L 131.832448 117.283658 
L 131.230061 118.370618 
" clip-path="url(#p99cb7266ee)" style="fill: none; stroke: #000000; stroke-width: 2"/>
    <path d="M 96.172355 113.767144 
L 97.317507 117.067513 
L 97.36685 117.661912 
L 97.463478 117.769984 
L 97.86644 118.393479 
L 97.891112 118.526492 
L 97.835601 118.933842 
L 97.86644 119.058541 
L 98.026803 119.083481 
L 98.446212 119.021131 
L 98.588072 119.058541 
L 99.042432 119.370289 
L 99.365213 119.494988 
L 99.560526 119.790109 
L 99.62426 120.613123 
L 99.328206 120.854208 
L 97.712246 121.46939 
L 97.662903 121.818547 
L 97.286668 123.306622 
L 97.175648 123.560177 
L 97.492261 124.196142 
L 98.400982 125.019156 
L 98.588072 125.526266 
L 98.680588 126.050002 
L 98.921132 126.498918 
L 99.252137 126.673497 
L 99.62426 126.382532 
L 99.934705 126.382532 
L 100.535037 126.702593 
L 102.072872 126.557111 
L 102.385373 126.922895 
L 103.793684 129.554045 
L 102.850013 129.942691 
L 101.764482 130.248203 
L 100.691287 130.25236 
L 98.931412 129.238141 
L 96.764462 129.082267 
L 95.798175 128.85573 
L 95.269802 128.402657 
L 94.054747 127.049672 
L 93.080237 126.469822 
L 90.966742 124.669999 
L 89.815421 122.236289 
L 89.400124 121.849722 
L 89.287047 121.625263 
L 88.898477 120.278514 
L 89.095846 120.243182 
L 90.148482 120.241104 
L 90.621346 120.103935 
L 90.60901 119.904416 
L 91.25046 118.75095 
L 91.345033 118.709384 
L 91.476612 118.10875 
L 91.495115 117.653598 
L 91.567073 117.246248 
L 91.846679 116.776548 
L 92.233194 116.518837 
L 93.166586 116.323475 
L 94.591345 115.271846 
L 95.084768 114.997508 
L 95.107383 115.190792 
L 95.481562 115.190792 
L 95.343815 114.802147 
L 95.238963 114.16826 
L 95.107383 113.767144 
L 95.481562 113.767144 
L 95.481562 114.145398 
L 95.798175 114.145398 
L 95.769392 113.891843 
L 95.843406 113.817024 
L 95.991433 113.808711 
L 96.172355 113.767144 
" clip-path="url(#p99cb7266ee)" style="fill: none; stroke: #000000; stroke-width: 2"/>
    <path d="M 65.419764 91.088542 
L 64.683742 91.161283 
L 64.825601 90.539867 
L 65.168941 89.874805 
L 65.639749 89.297033 
L 66.18457 88.972815 
L 66.772566 88.94164 
L 66.89181 89.265858 
L 66.8363 89.820769 
L 66.897977 90.494143 
L 65.972809 90.90565 
L 65.419764 91.088542 
" clip-path="url(#p99cb7266ee)" style="fill: none; stroke: #000000; stroke-width: 2"/>
    <path d="M 71.854823 84.7663 
L 72.276288 85.423048 
L 71.203093 85.111301 
L 70.493798 85.03856 
L 70.173073 85.263018 
L 70.177185 85.726483 
L 70.214191 85.975881 
L 70.549308 86.848774 
L 69.140996 85.801302 
L 68.760649 85.711935 
L 67.749132 85.581001 
L 67.416072 85.423048 
L 67.027501 84.620818 
L 67.492141 84.153196 
L 69.140996 83.67934 
L 69.860572 84.001479 
L 70.90704 84.327775 
L 71.854823 84.7663 
" clip-path="url(#p99cb7266ee)" style="fill: none; stroke: #000000; stroke-width: 2"/>
    <path d="M 66.949376 81.931475 
L 66.451841 82.170481 
L 65.658252 81.933553 
L 65.658252 82.318042 
L 67.070676 83.330183 
L 66.057102 83.589972 
L 64.297227 84.521059 
L 63.450184 84.724734 
L 62.849853 84.452474 
L 62.134389 83.797804 
L 61.517611 83.003887 
L 61.205109 82.318042 
L 61.519666 82.318042 
L 62.668931 82.463524 
L 65.292297 80.599273 
L 66.379883 80.888159 
L 66.984326 81.432679 
L 66.949376 81.931475 
" clip-path="url(#p99cb7266ee)" style="fill: none; stroke: #000000; stroke-width: 2"/>
    <path d="M 231.234755 82.279006 
L 231.026639 82.468463 
L 230.49455 82.581991 
L 229.944466 82.334133 
L 229.312371 82.677439 
L 229.274985 83.114512 
L 229.582228 83.417439 
L 229.579055 83.856279 
L 229.256836 83.912511 
L 229.065101 84.160413 
L 229.022777 84.847699 
L 228.356362 84.923674 
L 227.482575 83.114838 
L 227.635664 82.448683 
L 227.959472 82.486884 
L 227.997838 82.106275 
L 228.20777 81.42129 
L 228.017735 80.926345 
L 228.265884 80.108199 
L 228.875682 79.385579 
L 229.256848 79.32894 
L 229.484934 79.386182 
L 229.762528 79.674422 
L 229.803647 79.840687 
L 230.135095 80.4905 
L 230.362653 81.593238 
L 230.723287 82.011825 
L 230.969438 82.088371 
L 231.234755 82.279006 
" clip-path="url(#p99cb7266ee)" style="fill: none; stroke: #000000; stroke-width: 2"/>
    <path d="M 229.250216 74.209873 
L 229.764584 74.836098 
L 230.001515 74.642094 
L 230.112967 74.168861 
L 230.391132 74.350034 
L 230.196793 74.990695 
L 230.57151 75.240926 
L 230.501571 75.630365 
L 230.292328 76.061412 
L 229.865324 76.332487 
L 228.888588 75.601354 
L 227.983011 74.918359 
L 228.582269 73.68022 
L 229.250216 74.209873 
" clip-path="url(#p99cb7266ee)" style="fill: none; stroke: #000000; stroke-width: 2"/>
    <path d="M 241.489549 72.42525 
L 241.719813 72.973926 
L 241.863728 73.566246 
L 241.908958 74.089982 
L 241.898763 74.488422 
L 242.52804 74.601969 
L 242.867512 75.269475 
L 242.77515 75.837953 
L 242.354151 76.123781 
L 242.238512 76.770574 
L 242.919746 78.088118 
L 242.478617 79.22984 
L 242.019284 79.648126 
L 242.020133 80.104577 
L 241.730092 80.487044 
L 241.10392 80.445858 
L 240.854885 80.198429 
L 240.493125 80.255004 
L 240.153195 80.3187 
L 239.790998 80.406064 
L 239.656975 80.139818 
L 239.542116 79.816735 
L 239.37207 80.139419 
L 238.992783 80.595152 
L 238.574491 81.165234 
L 238.59262 81.602655 
L 238.458322 82.039659 
L 238.952871 82.63035 
L 239.046213 83.638284 
L 239.350655 83.886394 
L 239.731642 83.906456 
L 239.731401 84.134804 
L 239.407699 84.400656 
L 238.703411 83.999062 
L 238.17138 83.560649 
L 238.248007 82.837903 
L 237.908547 81.639974 
L 237.585841 81.164009 
L 236.678674 80.76346 
L 236.357949 80.539002 
L 236.077369 80.014324 
L 236.304023 79.214102 
L 236.666541 78.788163 
L 236.841383 77.898959 
L 236.654003 77.575321 
L 236.209766 77.086037 
L 236.076871 76.70494 
L 236.2868 76.325691 
L 236.49652 76.003818 
L 236.515942 75.66176 
L 236.288601 74.747036 
L 236.357949 74.264561 
L 235.834141 72.900902 
L 236.025651 72.181653 
L 236.672123 72.163458 
L 237.127994 72.47075 
L 239.165579 71.589636 
L 239.620709 72.019978 
L 239.762568 72.271454 
L 239.840693 72.518774 
L 240.00093 72.202236 
L 239.926713 71.628814 
L 240.117892 71.380437 
L 240.610475 71.670343 
L 241.168824 72.0179 
L 241.489549 72.42525 
" clip-path="url(#p99cb7266ee)" style="fill: none; stroke: #000000; stroke-width: 2"/>
    <path d="M 206.09283 54.499454 
L 206.418471 54.607834 
L 206.57346 54.561387 
L 206.604568 54.716209 
L 206.49614 54.840064 
L 206.635858 55.149685 
L 206.868458 55.304478 
L 207.17849 55.412813 
L 207.20961 55.691407 
L 207.101271 55.985494 
L 206.868855 56.062924 
L 206.698241 55.799823 
L 206.49664 55.614096 
L 206.124668 55.69154 
L 205.799064 55.598703 
L 205.674822 55.289095 
L 205.736469 54.809128 
L 206.09283 54.499454 
" clip-path="url(#p99cb7266ee)" style="fill: none; stroke: #000000; stroke-width: 2"/>
    <path d="M 104.930999 39.132649 
L 105.212316 39.210804 
L 105.322367 39.101486 
L 105.557052 39.117159 
L 105.854214 39.273394 
L 106.120657 39.46085 
L 106.324595 39.663953 
L 106.387344 39.851415 
L 106.528694 39.992088 
L 106.497373 40.132673 
L 106.277624 40.132523 
L 106.026493 40.007409 
L 105.603177 39.944732 
L 105.086578 39.88211 
L 104.85262 39.882124 
L 104.618822 39.944647 
L 104.555343 39.616612 
L 104.44565 39.38239 
L 104.336516 39.179373 
L 104.430619 39.023217 
L 104.790746 38.992017 
L 104.930999 39.132649 
" clip-path="url(#p99cb7266ee)" style="fill: none; stroke: #000000; stroke-width: 2"/>
    <path d="M 81.983723 37.498878 
L 81.606961 37.73083 
L 81.316885 37.644416 
L 80.852567 37.326759 
L 80.446298 37.066875 
L 80.184891 36.662126 
L 80.213526 36.256993 
L 80.590075 35.706796 
L 80.328787 35.446702 
L 80.357556 35.215232 
L 80.676758 35.359507 
L 80.880102 35.677508 
L 81.170257 35.850755 
L 81.518321 35.879264 
L 81.692742 36.313007 
L 81.809034 36.660045 
L 82.157127 36.804279 
L 82.534221 36.977409 
L 82.447492 37.295768 
L 81.983723 37.498878 
" clip-path="url(#p99cb7266ee)" style="fill: none; stroke: #000000; stroke-width: 2"/>
    <path d="M 73.756558 26.856057 
L 74.165687 26.947503 
L 74.589209 26.90178 
L 75.066185 26.677322 
L 75.563719 26.918407 
L 76.76027 28.040698 
L 78.039058 28.626784 
L 78.668173 29.061152 
L 79.206826 29.784407 
L 78.228204 29.64516 
L 77.208463 30.05251 
L 76.398427 30.819409 
L 75.96257 31.99158 
L 75.71997 31.898056 
L 75.175149 31.32444 
L 75.197764 31.282874 
L 75.31084 31.245464 
L 75.382798 31.018928 
L 75.384854 29.848835 
L 75.193652 29.387448 
L 74.692005 29.086092 
L 74.692005 28.76811 
L 75.382798 29.086092 
L 74.926381 28.015759 
L 74.169799 27.645818 
L 73.244631 27.467083 
L 72.276288 26.993226 
L 72.276288 26.677322 
L 72.560007 26.430002 
L 72.82111 26.328165 
L 73.071933 26.398828 
L 73.310421 26.677322 
L 73.756558 26.856057 
" clip-path="url(#p99cb7266ee)" style="fill: none; stroke: #000000; stroke-width: 2"/>
    <path d="M 70.76518 27.253016 
L 70.549308 27.662445 
L 69.85646 26.48196 
L 68.791488 25.38253 
L 66.379883 23.474635 
L 67.734741 22.439632 
L 68.550945 22.105023 
L 69.515175 22.080083 
L 70.913207 24.154244 
L 71.264771 25.451115 
L 70.549308 26.294912 
L 70.549308 26.677322 
L 70.771348 26.922564 
L 70.843306 27.055576 
L 70.76518 27.253016 
" clip-path="url(#p99cb7266ee)" style="fill: none; stroke: #000000; stroke-width: 2"/>
    <path d="M 207.879217 13.23892 
L 208.150599 13.729403 
L 208.158823 14.11597 
L 207.632505 14.409013 
L 207.632505 14.726996 
L 208.14032 15.063683 
L 208.323297 15.454407 
L 208.894846 15.03043 
L 209.040817 14.726996 
L 209.386213 14.726996 
L 210.107844 15.150973 
L 211.113193 15.454407 
L 211.137865 15.013804 
L 211.489428 14.059856 
L 211.756699 14.519164 
L 212.093872 14.702056 
L 212.463939 14.656333 
L 212.838118 14.409013 
L 214.755469 14.870906 
L 217.577183 15.184653 
L 220.775328 16.070216 
L 222.444759 16.657917 
L 224.766541 16.959933 
L 225.714094 16.459297 
L 226.660419 16.175754 
L 228.693486 16.332322 
L 230.510936 15.837399 
L 232.108123 15.702588 
L 233.904525 15.395785 
L 236.042759 15.238075 
L 236.713325 15.648207 
L 236.710743 16.22287 
L 235.844215 16.697738 
L 235.22042 16.575148 
L 234.714511 16.95592 
L 232.624758 17.186296 
L 231.783855 17.350329 
L 231.228801 18.281895 
L 231.622848 21.131403 
L 232.51019 21.422429 
L 233.327432 21.234448 
L 233.854586 21.476071 
L 235.704519 21.173065 
L 236.256019 21.295178 
L 236.951879 21.298341 
L 238.365177 21.831168 
L 239.201299 22.51653 
L 239.441843 22.919724 
L 240.472419 22.79836 
L 242.006847 22.877083 
L 242.275065 22.400506 
L 242.825795 22.283031 
L 243.760088 22.502863 
L 245.198099 22.222444 
L 245.614834 21.746847 
L 246.475357 21.91847 
L 247.054201 21.825925 
L 248.28837 21.281968 
L 248.810713 21.953306 
L 249.630653 22.340484 
L 250.276781 22.274395 
L 251.957737 22.736901 
L 253.086275 22.622753 
L 253.755102 23.12881 
L 254.569991 23.252997 
L 255.291416 22.946121 
L 255.874194 22.46109 
L 256.721476 22.147385 
L 257.474872 22.334834 
L 258.449265 22.99205 
L 259.171922 23.273531 
L 260.835783 23.27298 
L 261.666439 23.854967 
L 262.214297 23.639169 
L 262.966849 23.868114 
L 264.066362 24.891757 
L 266.679941 26.072203 
L 267.987832 26.337388 
L 269.040149 26.916824 
L 269.787194 27.496474 
L 271.06252 28.080526 
L 271.546327 28.128317 
L 272.205667 28.309821 
L 274.572169 29.691651 
L 275.363962 29.830825 
L 276.157221 29.70578 
L 276.640649 29.886699 
L 277.255239 30.245555 
L 277.912946 30.336548 
L 278.832459 30.916011 
L 279.322759 31.557212 
L 280.628555 31.85485 
L 282.253839 32.087021 
L 283.218449 32.446932 
L 283.841692 32.953841 
L 284.030838 33.61059 
L 285.12048 34.774448 
L 285.777442 34.872654 
L 286.666539 35.296105 
L 288.346498 37.222746 
L 289.88152 39.448593 
L 290.633156 40.577243 
L 292.371711 41.74806 
L 291.892711 40.421237 
L 291.325888 39.23181 
L 291.2643 38.448657 
L 292.151758 38.881203 
L 293.207882 40.613595 
L 294.588738 41.556575 
L 294.77532 42.716347 
L 295.277241 43.28173 
L 295.905018 43.659311 
L 296.666579 44.318082 
L 296.843389 44.912481 
L 297.283358 45.465314 
L 297.838459 45.922543 
L 297.996708 46.381449 
L 297.502066 47.296622 
L 298.486076 48.428995 
L 299.191339 50.022508 
L 299.719415 50.584778 
L 300.187533 50.177293 
L 300.405768 50.270938 
L 300.467269 50.991486 
L 301.438749 51.588621 
L 302.471544 52.529871 
L 303.603284 53.84509 
L 304.569571 54.28985 
L 304.310524 53.87003 
L 303.689633 53.209125 
L 303.566278 52.704094 
L 303.825325 52.465087 
L 304.384538 52.938944 
L 305.100001 53.940693 
L 306.603563 55.106492 
L 306.411509 56.011765 
L 307.347844 56.794397 
L 307.636831 55.923616 
L 308.138769 56.019164 
L 308.572746 56.89464 
L 308.085159 59.098166 
L 308.722409 59.68053 
L 310.309726 60.772123 
L 311.510388 61.38107 
L 313.165412 61.663721 
L 314.73203 61.545257 
L 315.671589 60.946702 
L 316.11567 61.397697 
L 316.736561 61.645016 
L 316.66522 62.349587 
L 316.137792 62.723071 
L 314.505898 62.987018 
L 313.680813 63.508312 
L 313.628592 63.897632 
L 313.871418 64.417607 
L 313.928861 65.328222 
L 313.320491 66.603082 
L 311.338719 68.721252 
L 310.918343 70.236304 
L 310.915732 71.405586 
L 311.372662 71.701206 
L 312.892282 71.558675 
L 313.746088 71.843737 
L 314.270906 72.285847 
L 315.106435 73.713797 
L 315.840135 75.496754 
L 316.2579 79.000642 
L 316.693942 80.820552 
L 317.257924 81.700813 
L 317.900238 81.939684 
L 318.573883 81.979276 
L 319.221419 82.25642 
L 319.597407 82.785633 
L 320.69404 85.101762 
L 322.466929 87.730667 
L 323.934328 90.554893 
L 325.017906 94.540483 
L 325.111903 95.773112 
L 325.443504 96.517441 
L 326.965734 97.90052 
L 327.36 98.700277 
L 327.070176 98.914074 
L 325.198067 98.892958 
L 323.678447 99.212333 
L 321.981278 99.779818 
L 320.430326 100.598051 
L 319.359803 101.674952 
L 318.067344 104.596838 
L 316.579056 106.497252 
L 316.414561 107.120165 
L 317.090818 108.616741 
L 318.127397 109.60654 
L 318.443332 110.551468 
L 316.960267 111.902873 
L 309.873931 116.329253 
L 307.571002 118.659899 
L 306.304652 119.686651 
L 305.15841 119.805426 
L 304.620538 119.222105 
L 304.006946 116.669744 
L 303.623124 115.994041 
L 302.09045 113.988049 
L 301.513412 113.747858 
L 301.516023 113.555177 
L 301.745794 112.966577 
L 301.25492 112.404371 
L 298.730054 110.240011 
L 298.207848 109.957588 
L 296.99633 110.628012 
L 296.677784 112.504671 
L 296.915388 114.676949 
L 297.369707 116.255348 
L 298.510727 118.490974 
L 298.662167 119.586351 
L 298.207848 120.900804 
L 297.455871 121.845732 
L 296.48979 122.426414 
L 295.37488 122.603258 
L 294.168584 122.334032 
L 290.309646 134.656315 
L 289.185052 134.332097 
L 287.729454 133.004052 
L 285.564561 130.281456 
L 284.756581 129.693292 
L 284.355674 129.256846 
L 284.182976 128.681152 
L 284.59005 127.087082 
L 284.355674 126.573738 
L 284.067844 126.353436 
L 283.825245 126.650635 
L 283.668994 126.762865 
L 283.270144 126.600756 
L 283.155012 126.27446 
L 283.257808 126.008435 
L 283.492184 126.033375 
L 282.887741 125.104367 
L 282.558792 124.919397 
L 282.081817 125.33506 
L 281.771371 125.33506 
L 280.550149 123.934274 
L 279.746281 123.208941 
L 279.150061 122.895115 
L 278.985587 122.672735 
L 278.619632 121.689691 
L 277.799316 121.244931 
L 277.550548 120.733665 
L 277.2216 119.723603 
L 276.909098 119.723603 
L 276.69117 120.490502 
L 276.578094 119.991706 
L 276.530808 118.202274 
L 276.279984 117.283658 
L 275.745443 117.079983 
L 275.258187 117.487333 
L 275.153335 118.393479 
L 274.875784 117.722183 
L 275.153335 116.238264 
L 274.752429 115.409015 
L 274.147985 114.876966 
L 273.072734 113.480337 
L 272.3326 112.915034 
L 271.358089 112.782022 
L 271.477333 112.220876 
L 271.259405 111.798978 
L 270.82766 111.510091 
L 270.321901 111.356296 
L 271.062036 109.677015 
L 271.029141 109.011954 
L 270.669353 108.155687 
L 269.150021 105.819658 
L 268.911534 105.237729 
L 268.43867 103.604171 
L 267.340804 102.228325 
L 266.086687 101.002117 
L 265.149183 99.815398 
L 264.48923 98.242112 
L 264.082156 96.612711 
L 264.063652 95.997529 
L 264.182896 95.411443 
L 264.082156 94.902255 
L 263.175491 93.258306 
L 263.045967 92.620262 
L 263.315294 91.658001 
L 263.909458 90.724837 
L 264.503621 90.377758 
L 265.087505 92.027942 
L 265.815304 92.348003 
L 266.629452 92.22746 
L 267.217448 91.732821 
L 268.652486 92.485172 
L 270.609731 91.475109 
L 272.340824 89.59631 
L 273.08507 87.734138 
L 272.988441 86.690822 
L 272.717059 86.0507 
L 270.225272 83.380062 
L 269.633165 83.0122 
L 269.633165 82.631868 
L 271.00447 82.779428 
L 271.436215 82.706687 
L 272.077665 82.318042 
L 272.077665 81.933553 
L 271.637696 81.64051 
L 271.358089 81.237317 
L 271.880295 81.054425 
L 272.077665 80.539002 
L 272.505298 80.82581 
L 273.426354 81.584396 
L 273.870435 81.709095 
L 274.992972 81.584396 
L 275.073154 81.382799 
L 275.840015 80.38105 
L 275.840015 78.448214 
L 275.985986 78.35469 
L 276.909098 77.400742 
L 277.213376 76.477969 
L 277.2216 75.467907 
L 277.435416 75.193569 
L 277.912392 74.960797 
L 278.389368 74.894291 
L 278.601128 75.11875 
L 278.977363 77.400742 
L 279.476954 77.824719 
L 280.305494 78.279871 
L 281.210103 78.647733 
L 281.925566 78.797372 
L 282.505338 79.125746 
L 282.937083 79.89888 
L 283.825245 82.33259 
L 284.318668 83.005965 
L 284.95395 83.492291 
L 285.718755 83.67934 
L 286.495897 83.417472 
L 287.038662 83.440333 
L 287.431345 84.167745 
L 287.780853 84.442083 
L 288.666958 84.724734 
L 289.35775 84.724734 
L 289.35775 84.408829 
L 288.582665 84.238407 
L 287.875425 83.822744 
L 287.312101 83.255363 
L 286.974928 82.631868 
L 289.499609 83.118194 
L 290.844187 83.610755 
L 291.70151 84.591721 
L 292.910396 85.250548 
L 293.183835 85.612175 
L 293.231121 86.370761 
L 293.391484 86.909046 
L 293.710153 87.283143 
L 294.217967 87.545011 
L 294.762788 87.233263 
L 295.326113 87.542932 
L 295.766082 88.243326 
L 295.944948 89.116219 
L 296.2924 89.6836 
L 297.077765 89.883118 
L 297.896025 89.654503 
L 298.360665 88.94164 
L 296.950297 88.95411 
L 295.093793 86.690822 
L 294.217967 86.848774 
L 291.621328 83.554641 
L 291.111458 83.170152 
L 290.367212 82.750332 
L 285.877062 81.933553 
L 284.783308 81.499185 
L 283.911594 80.761382 
L 283.32771 79.782494 
L 283.115949 78.622793 
L 282.016027 76.396915 
L 281.695302 75.027304 
L 282.460108 74.264561 
L 281.304675 73.404138 
L 280.741351 72.799347 
L 280.326053 72.138442 
L 280.104013 71.296723 
L 280.254095 70.816632 
L 280.535758 70.47371 
L 280.704344 70.047655 
L 280.63033 69.407533 
L 280.340444 69.245424 
L 279.884028 69.137351 
L 279.322759 68.651025 
L 279.076048 68.079488 
L 279.022594 67.593161 
L 278.862231 67.196203 
L 278.290683 66.907317 
L 278.496276 67.379095 
L 278.537394 68.665573 
L 278.79233 69.158135 
L 279.736001 69.802413 
L 279.7874 71.93061 
L 280.488471 73.591186 
L 280.556317 74.125314 
L 280.326053 74.61164 
L 280.013552 74.61164 
L 279.057545 72.994709 
L 278.442822 72.200792 
L 277.945287 71.789285 
L 277.157866 71.785128 
L 276.485577 72.221575 
L 276.016825 73.01757 
L 275.840015 74.089982 
L 275.53985 74.873508 
L 274.787379 75.47622 
L 273.83754 75.866944 
L 272.926763 76.00827 
L 272.495018 75.835769 
L 272.307929 75.436732 
L 272.394278 74.61164 
L 272.68622 74.264561 
L 274.147985 73.535072 
L 274.481046 73.788626 
L 274.838778 73.915404 
L 274.900456 72.238201 
L 274.639353 70.685698 
L 273.802589 67.923614 
L 273.426354 67.923614 
L 273.072734 68.653103 
L 273.319446 69.120725 
L 273.800533 69.519762 
L 274.147985 70.047655 
L 274.076028 70.953801 
L 273.43869 72.283924 
L 273.802589 72.836757 
L 273.802589 73.217089 
L 273.469529 73.410373 
L 273.08507 73.535072 
L 272.86303 73.123565 
L 272.077665 72.518774 
L 271.999539 72.0179 
L 272.20102 72.032448 
L 272.394278 71.789285 
L 272.937043 70.810397 
L 272.877421 70.326149 
L 272.077665 70.047655 
L 272.320264 70.685698 
L 272.2113 70.984976 
L 271.703486 71.440127 
L 271.012693 72.836757 
L 270.200601 72.957299 
L 269.75652 72.394075 
L 269.287769 70.745969 
L 268.911534 71.124223 
L 268.862191 71.78305 
L 268.165231 72.80766 
L 267.246231 73.690945 
L 266.526656 73.915404 
L 266.062016 73.057059 
L 265.535698 70.035185 
L 265.149183 69.002261 
L 265.461684 68.303946 
L 265.149183 68.303946 
L 265.149183 68.651025 
L 264.772948 68.651025 
L 264.772948 67.605631 
L 264.458391 67.605631 
L 264.265133 68.858857 
L 265.18619 71.394404 
L 265.675501 73.840584 
L 266.623284 74.62411 
L 266.843269 75.467907 
L 265.461684 78.448214 
L 265.260203 78.007611 
L 264.082156 77.400742 
L 262.916444 75.962547 
L 262.357231 75.625859 
L 262.628614 75.002364 
L 262.589551 74.089982 
L 262.349007 73.167209 
L 262.009779 72.518774 
L 261.637656 72.805582 
L 261.432063 73.11733 
L 261.29226 73.915404 
L 261.057884 73.429077 
L 260.506895 72.724528 
L 260.284854 72.138442 
L 260.256071 71.419344 
L 260.63025 69.698497 
L 260.284854 68.808977 
L 258.216589 66.177827 
L 258.975227 66.215237 
L 260.025807 66.44593 
L 260.63025 66.177827 
L 259.803767 65.529392 
L 259.52416 64.999421 
L 259.598174 63.214146 
L 256.460826 62.343331 
L 256.839117 61.327034 
L 256.333358 61.364443 
L 256.11543 61.645016 
L 255.700132 61.370678 
L 255.311561 61.397697 
L 254.577595 61.645016 
L 254.133514 61.389383 
L 253.812789 60.790828 
L 253.356373 59.552151 
L 254.075948 58.963987 
L 254.343219 58.039135 
L 254.287709 56.987507 
L 254.047165 56.033559 
L 253.67093 56.033559 
L 253.598972 56.856573 
L 253.800453 57.91028 
L 253.769614 58.641847 
L 253.010976 58.504678 
L 252.163934 59.437843 
L 250.613763 57.405248 
L 249.215731 57.42811 
L 248.228885 56.812928 
L 247.219424 54.643164 
L 246.423779 53.940693 
L 246.423779 53.591536 
L 246.80207 53.591536 
L 246.80207 53.242378 
L 246.053712 53.022076 
L 245.580848 52.54822 
L 245.18611 51.982918 
L 244.668015 51.500748 
L 245.070978 52.352858 
L 245.159382 53.022076 
L 244.840713 53.537499 
L 244.012174 53.940693 
L 243.253536 54.065392 
L 242.74161 53.87003 
L 241.752708 52.704094 
L 241.399088 51.895628 
L 240.92828 50.079179 
L 234.289684 46.587605 
L 231.645759 46.00152 
L 230.149043 44.810644 
L 230.085309 44.311847 
L 230.523222 43.25814 
L 230.469768 41.312835 
L 230.066806 40.751689 
L 229.112854 40.658165 
L 229.112854 40.277833 
L 230.196329 40.198857 
L 231.024869 39.754097 
L 231.596417 39.047469 
L 231.904806 38.187045 
L 232.219363 38.187045 
L 232.6655 38.877047 
L 233.156867 38.850029 
L 233.973071 38.187045 
L 235.457452 37.553158 
L 235.700052 37.10632 
L 235.377271 37.268429 
L 234.289684 37.455477 
L 233.952512 37.721502 
L 233.095189 38.565299 
L 232.690171 38.411504 
L 232.402341 37.825418 
L 231.904806 37.837888 
L 231.592305 38.103913 
L 230.975526 39.030842 
L 230.56434 39.338433 
L 230.12026 39.820603 
L 228.541306 40.271598 
L 228.457013 40.658165 
L 228.767458 41.007322 
L 229.419188 41.200606 
L 230.009239 41.641209 
L 230.149043 42.717778 
L 229.918779 43.34543 
L 229.396573 44.214166 
L 228.691389 44.821035 
L 227.579131 44.480191 
L 226.353797 44.143504 
L 226.300343 43.919045 
L 226.053632 43.507538 
L 225.790473 43.370369 
L 225.663005 43.973082 
L 224.805682 44.255733 
L 220.745222 43.536635 
L 219.108702 43.798503 
L 219.108702 43.449345 
L 217.866921 43.835913 
L 215.011235 43.557418 
L 213.874306 44.143504 
L 213.426114 43.798503 
L 212.957362 43.837991 
L 212.470107 44.031274 
L 211.594281 44.199618 
L 210.580708 44.492661 
L 210.202417 44.60489 
L 209.904307 45.190976 
L 209.743945 45.365554 
L 208.323297 46.238448 
L 208.220501 46.695678 
L 208.269843 47.132124 
L 208.171159 47.468812 
L 207.632505 47.630921 
L 208.508331 49.118996 
L 208.695421 49.723786 
L 208.031355 49.256165 
L 207.215152 48.439386 
L 206.530527 47.479203 
L 206.252977 46.587605 
L 205.938419 46.587605 
L 206.098782 47.073931 
L 206.252977 47.315016 
L 206.252977 47.630921 
L 205.938419 47.630921 
L 206.302319 48.898694 
L 206.065887 49.998124 
L 205.327808 50.53433 
L 204.1806 50.104119 
L 201.873847 50.515625 
L 201.148104 50.893879 
L 201.423599 51.500748 
L 201.423599 51.818731 
L 200.86233 51.629604 
L 200.16537 51.282525 
L 199.665779 51.500748 
L 199.338886 51.20147 
L 199.005826 51.151591 
L 199.005826 51.500748 
L 199.227866 51.937195 
L 199.351222 52.199063 
L 198.48362 52.049424 
L 197.661248 52.473401 
L 196.986903 53.200812 
L 196.55927 53.940693 
L 196.345453 54.925815 
L 196.668234 58.259437 
L 197.250062 58.679257 
L 197.097923 59.275734 
L 196.822429 59.949109 
L 196.357789 60.784593 
L 195.856142 61.283389 
L 195.227028 61.588902 
L 194.58969 61.721914 
L 194.491005 62.343331 
L 193.628998 62.571507 
L 192.805817 62.98426 
L 193.443465 63.620685 
L 195.165539 64.01142 
L 196.795374 63.355151 
L 198.894603 62.267618 
L 199.082074 62.023979 
L 199.325837 62.023848 
L 199.344626 62.454721 
L 199.157179 62.829468 
L 197.451506 64.160123 
L 195.428887 65.996252 
L 192.80644 66.915496 
L 190.895545 67.385158 
L 190.521274 67.872335 
L 190.609411 68.43488 
L 190.352419 69.002261 
L 189.316231 69.316087 
L 188.191638 70.292896 
L 187.73111 70.396812 
L 187.459727 70.612957 
L 186.970416 71.571061 
L 185.535377 72.915733 
L 179.943249 76.608903 
L 174.149641 79.614151 
L 172.663204 80.221019 
L 170.249543 80.539002 
L 169.80135 80.482887 
L 168.870014 80.221019 
L 168.425934 80.34364 
L 167.143034 80.888159 
L 165.765561 80.539002 
L 165.09944 80.102555 
L 164.793107 79.745085 
L 165.04393 79.495687 
L 164.538171 79.695205 
L 164.386033 80.539002 
L 163.464976 81.141714 
L 160.270062 84.327775 
L 159.869156 85.263018 
L 159.974008 90.751855 
L 159.554599 91.381585 
L 160.374914 91.774387 
L 160.74087 92.751196 
L 160.985525 93.748789 
L 161.435774 94.20394 
L 162.182076 94.359814 
L 164.108482 95.207768 
L 164.698534 95.631745 
L 166.402899 96.145089 
L 167.469926 97.982322 
L 168.197725 100.120911 
L 168.870014 101.557028 
L 173.699392 105.426856 
L 176.764783 108.22635 
L 181.3824 114.132928 
L 183.738495 118.466221 
L 184.35733 119.973001 
L 184.299764 120.960202 
L 183.522622 122.911742 
L 183.127884 123.341954 
L 182.511105 123.489514 
L 180.747118 123.639153 
L 177.182136 124.985903 
L 173.999558 124.981746 
L 173.384835 125.33506 
L 172.772168 125.050331 
L 171.415255 124.73027 
L 170.940335 124.289667 
L 170.594939 124.289667 
L 170.14469 124.514125 
L 168.524618 124.985903 
L 168.524618 125.33506 
L 169.702666 125.129307 
L 170.594939 124.669999 
L 170.940335 124.985903 
L 167.307508 126.183014 
L 165.96293 127.161902 
L 165.765561 128.504495 
L 166.629051 129.951004 
L 166.468689 130.418625 
L 164.86712 130.699198 
L 164.143433 131.229169 
L 164.007742 131.470254 
L 163.878218 132.033478 
L 163.547213 132.230918 
L 163.090797 132.355617 
L 162.597374 132.692305 
L 162.379446 133.116282 
L 162.348607 133.7855 
L 161.937421 134.084778 
L 161.555018 134.115952 
L 160.056245 133.73562 
L 153.508111 134.583574 
L 147.99822 135.618576 
L 143.943928 135.766137 
L 142.558231 135.481407 
L 142.297128 135.778607 
L 142.038081 135.878366 
L 141.779034 135.778607 
L 141.522043 135.481407 
L 141.176647 135.481407 
L 140.485855 136.167252 
L 139.916362 135.818095 
L 139.108382 134.46511 
L 138.466932 134.001645 
L 138.022851 133.814596 
L 137.054509 133.573512 
L 137.031893 133.211884 
L 137.264213 132.854414 
L 137.747357 132.467847 
L 137.728853 130.946518 
L 137.992012 130.584891 
L 138.758874 129.901124 
L 138.941852 129.219436 
L 138.980914 128.277958 
L 138.775321 127.438318 
L 137.486254 126.650635 
L 137.504757 125.692531 
L 138.041355 124.115088 
L 137.794643 123.452105 
L 135.175389 120.629749 
L 135.792168 120.272279 
L 136.215689 118.291642 
L 135.74077 117.578779 
L 134.55861 116.587421 
L 134.55861 116.238264 
L 134.934845 116.238264 
L 134.934845 115.889107 
L 132.490346 113.447084 
L 131.41715 112.877624 
L 131.487052 112.399611 
L 131.72554 111.94446 
L 132.097663 111.626477 
L 132.601366 111.51217 
L 133.211977 111.670122 
L 132.967321 111.231597 
L 132.399885 110.784759 
L 131.238285 110.067739 
L 132.177844 108.533941 
L 131.135488 108.509001 
L 130.420025 108.153608 
L 130.812707 108.064241 
L 130.79626 107.835626 
L 129.628492 107.611168 
L 129.153572 106.8796 
L 129.186467 106.102309 
L 129.556534 105.744838 
L 129.840253 105.632609 
L 130.430304 105.154596 
L 130.968958 105.046524 
L 132.109999 104.955078 
L 132.428668 104.653722 
L 132.490346 103.999051 
L 132.177844 103.999051 
L 131.034748 104.653722 
L 130.679072 103.290345 
L 130.79626 100.133381 
L 129.702505 102.17221 
L 128.933588 102.858055 
L 128.35176 101.875011 
L 128.037203 101.875011 
L 128.34148 102.820645 
L 128.637534 103.103297 
L 129.073391 103.300737 
L 129.073391 103.651972 
L 126.310222 103.5439 
L 125.681108 103.063809 
L 125.058161 102.953658 
L 123.781429 102.577482 
L 123.401082 101.031214 
L 122.486194 100.831695 
L 122.985784 101.039527 
L 123.133811 101.220341 
L 123.176986 101.557028 
L 122.506753 101.779408 
L 122.630109 102.186759 
L 123.522382 102.953658 
L 124.554458 103.477394 
L 124.244013 104.603842 
L 125.181517 106.374569 
L 124.69015 107.702614 
L 123.565556 108.789574 
L 122.486194 109.579334 
L 122.227147 108.918429 
L 122.486194 108.153608 
L 121.075826 108.153608 
L 121.075826 108.533941 
L 121.610368 108.681501 
L 121.908477 108.989092 
L 122.486194 109.928492 
L 121.803625 110.186203 
L 121.507571 110.148793 
L 121.075826 109.928492 
L 121.797457 110.975964 
L 122.109959 110.975964 
L 123.522382 110.308824 
L 123.738255 110.88244 
L 123.522382 113.097926 
L 123.641626 114.043561 
L 123.522382 114.492477 
L 123.33118 114.741875 
L 122.486194 115.571124 
L 122.109959 115.571124 
L 121.678213 115.248985 
L 120.051973 114.374013 
L 119.694242 114.317899 
L 119.420803 113.675698 
L 118.791689 113.440849 
L 117.625977 113.447084 
L 113.446273 112.272834 
L 112.074968 112.399611 
L 111.867319 111.811448 
L 111.52809 111.296025 
L 110.726278 110.657981 
L 109.55851 110.951024 
L 108.065906 110.82009 
L 106.9372 110.335842 
L 106.869355 109.579334 
L 107.296988 109.444244 
L 108.24066 108.945447 
L 108.808096 108.407163 
L 106.822068 107.827313 
L 106.266967 107.9915 
L 106.209401 108.88102 
L 105.045745 108.045536 
L 104.453638 107.835626 
L 104.453638 107.486469 
L 104.784642 107.037552 
L 104.507092 106.613575 
L 104.040396 106.15011 
L 103.793684 105.584808 
L 103.880034 104.747246 
L 104.108242 104.200648 
L 104.829873 103.300737 
L 104.829873 102.953658 
L 104.470085 102.714651 
L 104.102074 102.621127 
L 103.744342 102.69179 
L 103.417449 102.953658 
L 103.107004 102.953658 
L 102.726657 102.6045 
L 102.726657 102.224168 
L 103.199521 101.837601 
L 103.193353 101.469739 
L 102.782167 101.224497 
L 102.039977 101.212028 
L 102.196227 100.432658 
L 102.243514 99.580548 
L 102.5334 99.100457 
L 103.417449 99.435066 
L 103.082333 98.661932 
L 102.385373 98.040515 
L 102.619749 97.660183 
L 102.5334 96.916145 
L 102.726657 96.294728 
L 102.109878 96.550361 
L 101.727476 96.525421 
L 101.72542 97.167621 
L 102.046145 98.25666 
L 101.879614 98.420847 
L 101.505435 98.362654 
L 101.244332 98.190154 
L 101.086026 97.913737 
L 100.868097 96.97226 
L 99.62426 95.251413 
L 98.902629 93.318577 
L 98.588072 92.807311 
L 98.218004 94.012735 
L 98.242675 94.521923 
L 97.712246 93.998187 
L 97.611505 92.541286 
L 96.834364 92.111075 
L 96.834364 91.730742 
L 97.656736 92.09237 
L 97.989796 92.023785 
L 98.242675 91.730742 
L 98.588072 91.730742 
L 98.87179 91.940653 
L 99.278864 92.111075 
L 97.555995 88.94164 
L 95.940035 86.753172 
L 95.798175 85.801302 
L 95.483618 85.801302 
L 95.193732 86.37284 
L 95.070377 86.936064 
L 95.230739 87.366275 
L 95.798175 87.545011 
L 95.485674 87.987692 
L 94.385752 89.290798 
L 94.073251 89.290798 
L 93.166586 88.594561 
L 88.768953 86.746937 
L 85.950274 86.15046 
L 85.411621 85.820007 
L 85.611046 85.0635 
L 86.453977 83.67934 
L 85.843366 83.868467 
L 85.164909 84.30907 
L 84.611864 84.920096 
L 84.3816 85.612175 
L 84.069099 85.763893 
L 83.372139 85.325368 
L 82.311279 84.408829 
L 81.569089 84.959584 
L 79.930513 84.857746 
L 78.271378 84.342323 
L 77.451062 83.67934 
L 77.136505 83.67934 
L 77.050156 84.608348 
L 75.781648 87.42239 
L 75.382798 87.195853 
L 75.382798 87.545011 
L 75.06824 87.545011 
L 75.539048 86.356213 
L 75.520545 85.980038 
L 75.06824 86.15046 
L 75.205988 85.418892 
L 75.378686 85.213138 
L 75.728194 85.107144 
L 75.728194 84.722655 
L 75.049737 84.782927 
L 74.180079 85.294193 
L 73.483119 85.42097 
L 73.047262 85.271331 
L 72.403756 84.589643 
L 71.900053 84.408829 
L 71.900053 84.059672 
L 72.159101 83.980696 
L 72.621685 83.67934 
L 72.035745 82.101897 
L 71.984347 81.386956 
L 72.276288 80.888159 
L 72.276288 80.539002 
L 71.980235 80.308309 
L 71.922669 80.052676 
L 72.276288 79.495687 
L 72.374973 79.863549 
L 72.621685 79.840687 
L 72.374973 79.158999 
L 72.434595 78.635263 
L 72.843725 78.267401 
L 73.657873 78.067882 
L 71.854823 78.080352 
L 71.585496 78.257009 
L 70.726118 80.221019 
L 69.741328 80.131652 
L 68.976522 79.801199 
L 68.606455 79.140294 
L 68.826439 78.067882 
L 67.11385 78.699691 
L 66.219521 78.753727 
L 65.347807 78.448214 
L 65.658252 79.840687 
L 64.854384 79.963308 
L 63.413177 80.711502 
L 62.759392 80.888159 
L 61.809552 80.630448 
L 61.085865 80.052676 
L 60.981013 79.452042 
L 61.895901 79.111198 
L 61.895901 78.797372 
L 61.468268 78.624871 
L 61.235948 78.325594 
L 61.161935 77.914087 
L 61.205109 77.400742 
L 60.693183 77.787309 
L 60.613002 78.419118 
L 60.390961 79.07171 
L 59.451402 79.495687 
L 59.451402 79.840687 
L 59.864643 80.476652 
L 60.138082 81.237317 
L 58.836679 81.428522 
L 58.415213 81.237317 
L 57.122034 81.478402 
L 55.053769 80.919334 
L 51.515515 79.495687 
L 49.683681 79.111198 
L 47.67915 79.109119 
L 45.686955 79.383457 
L 42.115806 80.495357 
L 40.584138 81.372407 
L 39.399923 82.621476 
L 38.655677 84.408829 
L 38.519985 86.512087 
L 38.875661 88.656911 
L 40.0681 92.429057 
L 39.418427 93.100354 
L 39.110037 93.944151 
L 38.668012 94.378519 
L 37.622783 93.822965 
L 37.939052 92.658545 
L 38.189711 90.378049 
L 35.527766 84.522399 
L 35.29669 82.901769 
L 34.950728 82.377835 
L 34.066894 81.91065 
L 33.606048 81.845984 
L 32.996372 82.090134 
L 32.676521 82.071658 
L 32.39453 81.845984 
L 31.638636 80.836389 
L 30.223458 80.000999 
L 29.76 79.50346 
L 29.817443 78.86339 
L 30.262623 78.500464 
L 32.562941 77.201848 
L 34.799288 75.059923 
L 36.251021 74.311635 
L 37.679255 73.872165 
L 38.997825 73.220217 
L 40.115346 71.838458 
L 40.589248 70.333964 
L 40.738076 68.539129 
L 40.440419 64.978493 
L 40.039626 63.426488 
L 39.411673 62.106756 
L 38.567005 60.913719 
L 36.980804 59.133401 
L 36.531707 58.461658 
L 36.282353 57.739764 
L 36.342407 56.97564 
L 36.751033 56.534849 
L 38.254987 55.5952 
L 38.726278 55.047512 
L 38.734111 54.352013 
L 38.093103 53.871631 
L 38.585282 53.215724 
L 39.174069 52.79209 
L 44.385686 50.652805 
L 45.897472 49.731632 
L 46.629866 48.529357 
L 46.428817 48.048974 
L 45.125913 45.845023 
L 44.440517 45.389715 
L 42.142811 44.604475 
L 39.82291 42.887504 
L 38.39076 42.205202 
L 38.166212 41.891106 
L 37.842444 41.101907 
L 37.49126 40.8406 
L 37.025192 40.843239 
L 35.513405 41.47803 
L 35.265357 22.192791 
L 35.395909 21.21223 
L 35.820201 20.498255 
L 36.764089 20.164363 
L 39.458672 19.794838 
L 40.211954 19.363286 
L 40.292896 18.947571 
L 39.513503 18.41044 
L 39.163625 17.008885 
L 38.551339 15.922746 
L 38.645336 15.448962 
L 39.218457 14.637327 
L 40.157122 13.841529 
L 41.08926 13.73595 
L 44.016225 14.903913 
L 46.124632 16.68951 
L 46.611589 16.871633 
L 47.017604 16.684231 
L 47.534588 17.268872 
L 48.180818 18.500182 
L 48.717385 19.0967 
L 49.214786 19.331613 
L 50.09862 19.603477 
L 51.037285 19.765804 
L 51.70832 19.661546 
L 52.034699 19.008278 
L 52.246192 17.048477 
L 52.605209 16.496829 
L 53.374157 16.620884 
L 54.145717 17.030001 
L 54.538677 17.006245 
L 53.995293 15.090902 
L 54.587073 15.454407 
L 59.449346 19.290981 
L 62.432499 22.289994 
L 64.334234 23.327074 
L 65.658252 22.429241 
L 65.541064 23.302134 
L 65.312856 23.985901 
L 63.939495 26.380123 
L 63.803804 26.959973 
L 63.964166 27.662445 
L 64.393856 28.138379 
L 65.386869 28.913592 
L 65.345751 29.466424 
L 64.663182 30.008865 
L 63.392618 29.909106 
L 63.273374 30.482722 
L 63.022551 30.87968 
L 63.086285 31.133235 
L 63.332996 31.237151 
L 63.622882 31.178958 
L 64.120417 31.519802 
L 64.560386 32.116279 
L 64.881111 32.802124 
L 64.998299 33.448481 
L 65.263514 33.934807 
L 67.070676 35.046707 
L 67.416072 35.046707 
L 67.796419 34.454387 
L 68.413197 34.379567 
L 68.705139 34.198754 
L 68.106864 33.269746 
L 68.779153 33.456794 
L 69.034088 33.976374 
L 69.180059 34.587399 
L 69.515175 35.046707 
L 70.06822 35.194268 
L 70.450623 34.969809 
L 70.625377 34.429447 
L 70.549308 33.618903 
L 70.89676 33.618903 
L 70.944046 34.292278 
L 71.301778 34.624809 
L 71.706796 34.674688 
L 71.900053 34.491796 
L 72.019297 33.41315 
L 72.239282 33.282216 
L 72.621685 33.618903 
L 72.730649 33.248962 
L 72.967081 33.269746 
L 73.203513 34.096916 
L 73.657873 34.666375 
L 74.001213 34.666375 
L 74.001213 34.317218 
L 74.346609 34.317218 
L 74.212974 35.084117 
L 74.301379 36.480746 
L 74.001213 37.10632 
L 72.461322 36.156529 
L 71.653342 35.855173 
L 70.364274 35.745022 
L 69.803006 36.141981 
L 69.648811 37.035657 
L 69.803006 37.989605 
L 70.173073 38.565299 
L 70.173073 38.881203 
L 69.893466 38.762739 
L 69.140996 38.565299 
L 69.412379 39.29271 
L 70.621265 39.928675 
L 70.89676 40.469038 
L 70.549308 43.798503 
L 70.031214 43.603141 
L 69.831789 43.449345 
L 70.697335 44.293142 
L 71.920613 44.860523 
L 73.139779 44.983144 
L 74.001213 44.492661 
L 75.814543 45.084981 
L 76.458049 45.471549 
L 76.447769 45.88929 
L 77.827298 48.013331 
L 78.034946 48.065289 
L 78.598271 48.009174 
L 79.560446 48.059054 
L 81.965883 47.315016 
L 83.092532 47.204865 
L 83.723703 47.466733 
L 84.254133 47.830439 
L 85.070336 48.013331 
L 85.808415 47.834596 
L 86.542382 47.389836 
L 86.980295 46.812063 
L 86.830212 46.238448 
L 87.399704 45.997363 
L 87.841729 45.995285 
L 88.553081 46.238448 
L 88.651765 46.431731 
L 89.13902 46.857786 
L 89.67973 47.111341 
L 89.930553 46.77881 
L 90.440424 46.649955 
L 93.413298 48.013331 
L 94.317906 47.572728 
L 94.56873 46.693599 
L 94.383696 44.650613 
L 90.966742 42.717778 
L 89.188363 40.061688 
L 88.725779 39.610693 
L 88.065825 39.31765 
L 87.128322 38.648432 
L 86.340901 37.921021 
L 86.13942 37.455477 
L 86.916561 37.465869 
L 88.199461 37.790087 
L 89.400124 37.904394 
L 89.930553 37.280899 
L 88.294034 36.505686 
L 87.508669 35.934149 
L 87.862288 35.36469 
L 88.898477 35.35222 
L 89.774303 36.008968 
L 90.966742 37.455477 
L 92.34627 38.565299 
L 92.272257 39.001746 
L 91.859015 39.134758 
L 91.345033 39.055782 
L 90.966742 38.881203 
L 90.966742 39.230361 
L 91.776998 40.164913 
L 92.027131 40.912606 
L 92.4018 41.057772 
L 93.067739 41.057475 
L 95.003625 41.264893 
L 96.271039 42.634645 
L 97.065079 42.885473 
L 97.808874 44.563324 
L 98.055586 44.810644 
L 98.766937 45.328145 
L 101.795321 49.673907 
L 103.828635 51.858219 
L 104.829873 52.514967 
L 105.127983 52.98051 
L 106.266967 54.075784 
L 107.155129 54.38961 
L 108.073786 54.687367 
L 108.684911 54.686096 
L 109.580373 54.399602 
L 112.206134 54.918899 
L 112.816272 54.731299 
L 114.225159 54.730241 
L 115.415853 55.497353 
L 118.119919 55.661783 
L 120.052003 55.286242 
L 122.737556 55.154783 
L 129.071335 54.28985 
L 129.466074 54.489369 
L 129.930714 54.387531 
L 130.395354 54.063314 
L 130.79626 53.591536 
L 134.759525 52.280164 
L 139.479807 50.359223 
L 141.342221 50.421443 
L 142.475994 50.104119 
L 144.994507 46.899353 
L 145.672964 46.425496 
L 146.102653 45.702242 
L 146.554958 45.540133 
L 147.305899 44.66296 
L 148.485272 44.10692 
L 150.323476 43.002507 
L 151.024548 42.717778 
L 151.838553 41.881822 
L 154.758006 40.399801 
L 158.42444 38.857083 
L 163.399122 37.254762 
L 169.246249 36.790416 
L 170.011055 36.532704 
L 172.159501 35.36469 
L 173.9276 35.165171 
L 175.798496 34.666375 
L 177.476134 33.988844 
L 178.935844 33.16583 
L 180.735536 31.114383 
L 183.988298 28.150156 
L 184.105454 27.573966 
L 185.0938 25.962155 
L 186.367709 25.447262 
L 186.685756 25.477146 
L 186.871731 25.949911 
L 186.762767 27.876511 
L 186.871731 28.387778 
L 187.151338 28.7307 
L 187.595418 28.986333 
L 188.113512 29.036213 
L 188.625439 28.76811 
L 189.001674 27.837023 
L 189.06952 26.806178 
L 189.351182 26.315695 
L 190.352419 26.993226 
L 190.007023 25.251596 
L 190.352419 25.567501 
L 190.697816 25.251596 
L 190.072792 24.364109 
L 190.537134 23.875585 
L 191.11442 24.137157 
L 192.068764 24.054134 
L 193.194242 24.548406 
L 194.491005 26.677322 
L 194.287468 25.557109 
L 194.026365 24.771505 
L 193.997582 24.06072 
L 194.491005 23.160809 
L 195.239363 22.477042 
L 196.748415 21.917975 
L 197.704423 21.23213 
L 197.938799 20.683454 
L 198.111497 20.554598 
L 198.447413 20.012134 
L 199.661304 19.197231 
L 200.33104 16.653195 
L 201.224933 16.307605 
L 201.630184 15.933709 
L 201.386527 15.66459 
L 200.375075 15.998926 
L 200.089367 15.686864 
L 200.711571 15.25987 
L 200.982313 14.72441 
L 201.712613 14.405875 
L 202.277404 13.951176 
L 202.707776 13.442205 
L 203.623568 13.176954 
L 204.43035 13.286536 
L 205.425409 12.966352 
L 206.717896 12.378841 
L 207.632505 12.632052 
L 207.879217 13.23892 
L 207.879217 13.23892 
" clip-path="url(#p99cb7266ee)" style="fill: none; stroke: #000000; stroke-width: 2"/>
   </g>
  </g>
 </g>
 <defs>
  <clipPath id="p99cb7266ee">
   <rect x="0" y="0" width="357.12" height="148.546093"/>
  </clipPath>
 </defs>
</svg>
