<?xml version="1.0" encoding="utf-8" standalone="no"?>
<!DOCTYPE svg PUBLIC "-//W3C//DTD SVG 1.1//EN"
  "http://www.w3.org/Graphics/SVG/1.1/DTD/svg11.dtd">
<svg xmlns:xlink="http://www.w3.org/1999/xlink" width="181.555528pt" height="266.112pt" viewBox="0 0 181.555528 266.112" xmlns="http://www.w3.org/2000/svg" version="1.1">
 <metadata>
  <rdf:RDF xmlns:dc="http://purl.org/dc/elements/1.1/" xmlns:cc="http://creativecommons.org/ns#" xmlns:rdf="http://www.w3.org/1999/02/22-rdf-syntax-ns#">
   <cc:Work>
    <dc:type rdf:resource="http://purl.org/dc/dcmitype/StillImage"/>
    <dc:date>2024-02-02T21:58:04.298890</dc:date>
    <dc:format>image/svg+xml</dc:format>
    <dc:creator>
     <cc:Agent>
      <dc:title>Matplotlib v3.8.2, https://matplotlib.org/</dc:title>
     </cc:Agent>
    </dc:creator>
   </cc:Work>
  </rdf:RDF>
 </metadata>
 <defs>
  <style type="text/css">*{stroke-linejoin: round; stroke-linecap: butt}</style>
 </defs>
 <g id="figure_1">
  <g id="patch_1">
   <path d="M 0 266.112 
L 181.555528 266.112 
L 181.555528 0 
L 0 0 
L 0 266.112 
z
" style="fill: none"/>
  </g>
  <g id="axes_1">
   <g id="PatchCollection_1">
    <path d="M 76.850724 194.888778 
L 76.803791 194.971545 
L 76.663229 194.943837 
L 76.475912 194.80568 
L 76.31667 194.722737 
L 76.316827 194.584769 
L 76.410579 194.538819 
L 76.616705 194.584995 
L 76.691552 194.723056 
L 76.728945 194.824285 
L 76.850724 194.888778 
" clip-path="url(#p31d293b261)" style="fill: none; stroke: #000000; stroke-width: 2"/>
    <path d="M 73.672767 189.626361 
L 73.561681 189.653476 
L 73.431379 189.653253 
L 73.3283 189.62575 
L 73.358792 189.47919 
L 73.461277 189.37883 
L 73.488742 189.250953 
L 73.618493 189.260363 
L 73.646129 189.342711 
L 73.729585 189.379457 
L 73.728978 189.507533 
L 73.672767 189.626361 
" clip-path="url(#p31d293b261)" style="fill: none; stroke: #000000; stroke-width: 2"/>
    <path d="M 64.778205 168.496157 
L 64.823351 168.575247 
L 64.698273 168.540908 
L 64.550104 168.562837 
L 64.391229 168.449439 
L 64.164192 168.301901 
L 64.02849 168.109666 
L 63.961022 167.94027 
L 64.075232 167.884427 
L 64.211475 167.963952 
L 64.676296 168.383012 
L 64.778205 168.496157 
" clip-path="url(#p31d293b261)" style="fill: none; stroke: #000000; stroke-width: 2"/>
    <path d="M 21.083926 100.253771 
L 20.949825 100.274357 
L 20.793885 100.260961 
L 20.750804 100.148114 
L 20.797037 100.025256 
L 20.755013 99.833865 
L 20.655913 99.742717 
L 20.746408 99.642937 
L 20.782276 99.46389 
L 20.921893 99.039427 
L 21.043436 99.119652 
L 20.975303 99.208484 
L 20.894479 99.40933 
L 20.959114 99.57856 
L 21.058015 99.692205 
L 21.067204 99.838238 
L 21.053341 100.040079 
L 21.083926 100.253771 
" clip-path="url(#p31d293b261)" style="fill: none; stroke: #000000; stroke-width: 2"/>
    <path d="M 90.799204 23.58307 
L 91.447688 24.246546 
L 92.310582 24.521951 
L 92.564539 24.40553 
L 93.004791 23.888519 
L 93.425579 24.355456 
L 93.833701 25.19419 
L 93.41075 25.609801 
L 93.98107 25.75877 
L 94.403712 25.876443 
L 94.821102 26.11179 
L 95.185044 25.939035 
L 95.299664 26.031672 
L 95.637654 26.607519 
L 96.452044 27.394927 
L 97.477754 28.141024 
L 97.645514 28.337564 
L 97.867648 28.3964 
L 97.930983 28.765693 
L 98.473806 30.098905 
L 98.264647 30.336754 
L 98.34312 30.744855 
L 98.944953 31.289406 
L 99.244634 31.336976 
L 99.151331 31.531011 
L 99.336391 32.086829 
L 98.829097 32.08057 
L 98.746917 32.223279 
L 98.819829 32.333441 
L 99.237528 32.697727 
L 99.408068 33.246034 
L 99.675617 33.600305 
L 99.993217 33.776815 
L 100.70658 33.908258 
L 101.434773 34.189922 
L 101.760714 34.179908 
L 101.945775 33.825636 
L 102.082639 33.953324 
L 102.51733 34.982338 
L 102.732359 35.026152 
L 103.070967 34.738229 
L 103.184042 34.924753 
L 103.088886 35.237714 
L 103.25232 35.326594 
L 103.62553 35.241469 
L 103.892153 35.426742 
L 104.291006 36.249202 
L 104.573077 36.4858 
L 105.226195 36.644783 
L 105.425776 36.530866 
L 105.617942 36.224165 
L 105.79806 36.156565 
L 106.0653 36.558406 
L 106.569505 36.734916 
L 107.210883 37.026595 
L 107.408611 37.588672 
L 107.478433 37.655019 
L 107.720031 37.731382 
L 107.904165 38.356051 
L 108.091388 38.44368 
L 107.956377 38.985727 
L 108.399719 39.196036 
L 108.533185 39.407597 
L 108.877663 39.725565 
L 109.028739 40.869748 
L 108.635447 41.227775 
L 108.499201 41.628364 
L 108.473249 42.096553 
L 108.712993 42.396995 
L 109.503285 42.921516 
L 109.615742 43.135581 
L 110.194095 43.151855 
L 110.753292 43.531163 
L 111.036908 43.206936 
L 111.220423 43.184403 
L 111.697441 43.248247 
L 111.746254 42.927776 
L 111.868598 42.927776 
L 112.414202 43.423505 
L 112.595246 43.621296 
L 112.57053 44.239705 
L 112.922114 44.779249 
L 112.804714 45.555391 
L 113.494288 46.937424 
L 113.029629 47.787424 
L 112.448187 48.395819 
L 112.457455 48.634921 
L 113.118606 49.731534 
L 113.74639 49.970636 
L 113.81992 50.228515 
L 114.118365 49.8104 
L 114.147406 49.680208 
L 115.183621 50.36121 
L 115.594523 51.199944 
L 116.211803 51.096041 
L 116.861214 50.774318 
L 117.157805 50.624097 
L 117.671896 50.920783 
L 117.703409 50.771814 
L 117.858501 50.57152 
L 118.065497 50.586542 
L 118.149531 50.81688 
L 118.260753 51.161137 
L 118.610483 50.950827 
L 119.075142 50.094568 
L 119.504581 50.243537 
L 120.273247 50.760548 
L 121.606052 51.049723 
L 121.826024 51.342654 
L 122.259171 51.507897 
L 123.283028 51.327632 
L 123.419583 51.209959 
L 123.470869 50.91202 
L 123.898454 50.838162 
L 124.848781 50.962094 
L 125.710131 50.057013 
L 126.043796 49.924317 
L 126.433071 49.91931 
L 127.393285 49.974391 
L 127.540345 49.825422 
L 127.683079 49.462388 
L 128.247838 49.019236 
L 128.858321 48.216806 
L 129.814827 47.650973 
L 129.906276 47.716069 
L 129.990928 48.348249 
L 130.22264 48.310694 
L 130.623038 48.101636 
L 131.140836 48.295672 
L 131.610439 48.604877 
L 132.433479 48.852741 
L 132.78012 49.864229 
L 132.872186 49.721519 
L 132.990205 49.267101 
L 133.156419 49.094347 
L 133.278145 49.138161 
L 133.781732 50.107086 
L 133.569175 50.349944 
L 133.704495 50.602816 
L 134.109218 50.516438 
L 134.964389 50.094568 
L 135.058309 50.261063 
L 135.980831 50.142138 
L 136.236641 50.15716 
L 136.800164 49.805393 
L 137.028786 49.232049 
L 137.633708 49.043021 
L 137.790345 49.046777 
L 138.241102 49.262093 
L 138.489806 49.184479 
L 138.353868 48.601121 
L 138.479919 48.430871 
L 138.823471 48.439634 
L 139.630137 48.71629 
L 139.877605 48.604877 
L 140.24062 48.828956 
L 140.860371 49.49744 
L 141.272818 49.771593 
L 142.334676 50.179693 
L 142.3804 50.555246 
L 142.831157 51.003405 
L 142.950102 51.507897 
L 143.535561 51.457823 
L 143.566147 51.093537 
L 143.774996 50.95959 
L 144.69103 51.424024 
L 145.050647 51.658118 
L 145.369482 52.086248 
L 145.775132 51.952301 
L 146.164408 51.918501 
L 146.569131 52.063715 
L 146.454202 52.365408 
L 146.193449 52.499355 
L 146.258328 52.71342 
L 146.393648 52.838604 
L 147.417814 52.664598 
L 147.567963 52.888678 
L 147.870733 53.619753 
L 148.092558 53.704879 
L 148.49481 53.552154 
L 148.766685 53.861359 
L 148.783677 54.090446 
L 148.99747 54.126749 
L 149.428454 53.621005 
L 149.557903 53.709886 
L 149.886625 54.568649 
L 150.08806 54.710107 
L 141.915432 67.632867 
L 142.435393 67.690451 
L 144.18528 68.640599 
L 145.142404 68.80459 
L 145.450118 68.670643 
L 146.177383 68.078522 
L 146.51352 68.042219 
L 146.973545 68.204958 
L 147.813268 68.951056 
L 148.099046 69.364163 
L 148.759888 70.946491 
L 150.328731 71.866594 
L 150.780106 72.463723 
L 151.112535 73.137213 
L 151.140958 73.473959 
L 150.820269 74.083606 
L 150.250567 74.401573 
L 149.936057 74.251352 
L 149.723809 74.013502 
L 149.538131 73.491485 
L 149.30024 73.401352 
L 148.813027 73.545314 
L 148.234675 74.42661 
L 147.728307 73.932133 
L 147.613378 73.897081 
L 146.906503 73.264901 
L 146.886421 73.045829 
L 146.973545 72.342294 
L 146.740289 72.006801 
L 146.591375 71.961734 
L 146.371712 72.309746 
L 146.225271 72.265932 
L 145.727245 71.915416 
L 145.38184 71.936697 
L 145.193072 72.024326 
L 144.523888 72.481248 
L 144.399382 72.404886 
L 144.307006 72.050615 
L 144.12071 71.976756 
L 143.930089 72.075652 
L 143.695287 72.628966 
L 143.13022 72.293472 
L 143.14783 71.71387 
L 142.959989 71.673811 
L 142.657837 71.889127 
L 142.394612 72.35982 
L 142.178657 72.354812 
L 141.312364 72.165784 
L 140.587569 72.586403 
L 140.550187 72.749143 
L 140.616611 73.157243 
L 140.24649 73.309968 
L 139.975233 73.904592 
L 139.467629 74.452899 
L 139.357026 74.684489 
L 139.110793 74.939865 
L 138.671159 74.482943 
L 138.617093 74.752089 
L 138.38569 74.946124 
L 137.760995 74.683238 
L 137.46842 74.800911 
L 137.199944 75.14016 
L 136.913239 75.017479 
L 136.707479 74.666964 
L 136.51037 74.780881 
L 136.176705 75.24907 
L 135.846747 74.876021 
L 135.569929 74.82094 
L 135.286932 74.884784 
L 135.062635 75.200248 
L 135.084879 75.445609 
L 134.8612 75.560778 
L 134.706725 75.58206 
L 134.392833 75.834932 
L 133.944239 75.521971 
L 132.604019 75.809895 
L 132.463756 76.149144 
L 131.902086 76.095315 
L 131.3571 76.333165 
L 131.401589 76.077789 
L 131.281099 76.114092 
L 130.886262 76.410779 
L 130.688535 76.373224 
L 130.374643 76.106581 
L 129.751184 76.233017 
L 129.352022 76.092811 
L 129.221645 76.221751 
L 129.162945 76.358201 
L 129.079529 76.383238 
L 127.888839 76.552237 
L 127.578654 76.773813 
L 127.015131 77.325875 
L 126.466438 77.608791 
L 126.258206 77.707687 
L 125.928867 77.602532 
L 125.838036 77.702679 
L 125.487688 78.318585 
L 125.259683 78.510117 
L 123.4029 79.544138 
L 122.810336 79.517849 
L 122.657715 79.751944 
L 122.034256 80.031104 
L 121.821081 80.887364 
L 121.303282 81.179043 
L 121.046237 81.271679 
L 120.933162 81.672894 
L 120.859014 81.742997 
L 120.459852 81.781804 
L 120.056982 82.024662 
L 119.765334 82.345133 
L 119.279049 82.656842 
L 119.069581 83.118771 
L 118.957124 83.150067 
L 117.689815 83.168845 
L 117.329581 83.460524 
L 116.531874 83.56693 
L 116.509012 83.79101 
L 116.091931 83.909935 
L 115.803373 83.985045 
L 115.755177 84.164059 
L 116.014076 84.74241 
L 116.057947 85.675031 
L 115.731079 86.183279 
L 115.601938 86.893073 
L 115.139132 88.030997 
L 115.294843 89.158906 
L 114.975389 90.634827 
L 114.806085 90.970321 
L 113.148265 93.025844 
L 112.01504 95.436891 
L 112.008861 95.995212 
L 112.120083 96.289395 
L 112.765168 97.158173 
L 112.960424 98.406259 
L 113.303975 99.237482 
L 113.246511 99.769514 
L 112.771965 100.764728 
L 112.443243 101.106481 
L 112.029252 101.329309 
L 111.492298 101.470767 
L 110.389968 101.569662 
L 109.496488 102.244405 
L 108.685806 102.949191 
L 107.721267 103.508765 
L 106.488561 104.637926 
L 106.37116 104.788147 
L 105.741831 105.246321 
L 105.669228 105.449119 
L 105.642658 106.11635 
L 105.214146 108.14183 
L 106.039349 109.336087 
L 106.295776 110.300004 
L 106.15644 110.544114 
L 105.725765 110.696838 
L 104.947523 110.696838 
L 104.737438 110.765689 
L 104.036741 111.132479 
L 103.816152 111.117457 
L 103.069731 110.927177 
L 103.11113 111.146249 
L 103.530992 112.045071 
L 103.206904 112.956412 
L 102.644308 113.19301 
L 102.74966 113.405823 
L 103.231311 113.691243 
L 105.123315 115.563998 
L 106.306899 116.156119 
L 106.421828 116.636826 
L 106.288362 117.102511 
L 105.90094 117.34662 
L 105.320733 117.197651 
L 105.30714 117.416723 
L 105.510119 118.166576 
L 105.872516 118.443233 
L 106.834583 118.888889 
L 107.641558 120.605163 
L 107.60881 121.284913 
L 108.213423 122.345223 
L 108.355539 123.071291 
L 108.526388 123.232778 
L 109.602766 123.872469 
L 110.033441 124.286829 
L 110.391822 124.356932 
L 110.645778 124.755018 
L 110.658136 125.000379 
L 110.553711 125.769009 
L 110.630331 125.969304 
L 111.356361 126.843089 
L 111.604138 126.978288 
L 112.52666 127.247434 
L 112.867739 127.680571 
L 113.078442 128.19633 
L 114.178919 129.696036 
L 114.77828 130.157965 
L 115.180531 130.857745 
L 115.256533 132.233518 
L 115.032854 132.616582 
L 114.489104 133.052223 
L 114.411248 133.530426 
L 114.054721 133.678143 
L 113.743301 133.792061 
L 113.138379 134.744712 
L 112.251695 135.788748 
L 117.054616 135.811281 
L 119.652259 136.352077 
L 120.374582 136.667541 
L 120.910917 136.726377 
L 121.882871 136.725126 
L 122.445158 137.140737 
L 122.779441 137.302224 
L 123.040812 137.284699 
L 123.124846 137.503771 
L 123.142765 138.112166 
L 123.609278 139.149942 
L 123.467161 139.606865 
L 123.608042 140.06629 
L 124.450855 140.594567 
L 124.861139 141.586026 
L 124.833952 141.736247 
L 124.579995 142.086762 
L 124.439733 143.014377 
L 134.271725 142.974318 
L 134.675213 142.701417 
L 135.152848 142.86666 
L 136.38679 142.218206 
L 137.011485 141.288088 
L 137.810118 140.933816 
L 138.769714 140.567027 
L 139.244877 139.86224 
L 139.689764 139.556791 
L 140.225172 138.834478 
L 141.063351 138.319972 
L 141.758177 137.672769 
L 142.776782 137.001782 
L 143.442876 136.270707 
L 143.914023 136.106716 
L 144.416065 136.054139 
L 144.41174 136.24567 
L 143.781484 137.397364 
L 143.943373 137.682784 
L 143.606928 137.662755 
L 143.22723 137.687792 
L 143.432063 138.304949 
L 143.643384 138.710546 
L 144.133377 139.163713 
L 144.195785 139.639412 
L 143.763565 140.350458 
L 143.576033 140.27034 
L 143.241441 140.536983 
L 143.172237 140.664671 
L 143.05947 141.151637 
L 143.024868 155.189787 
L 144.050579 154.366075 
L 144.307006 154.309742 
L 144.628931 154.590155 
L 145.464947 155.503999 
L 146.014567 155.774397 
L 146.615782 155.873292 
L 147.829952 155.726827 
L 148.317164 155.557828 
L 151.218195 154.081907 
L 153.191761 154.263424 
L 153.641591 154.553851 
L 154.038899 154.633969 
L 155.786933 154.556355 
L 166.4259 173.257614 
L 166.23497 173.421606 
L 166.063812 173.847232 
L 165.756099 174.17897 
L 165.234593 174.508204 
L 165.106379 174.881253 
L 165.217292 174.99517 
L 165.723968 175.235524 
L 165.35601 175.88523 
L 164.126393 176.315863 
L 163.790874 176.909236 
L 163.527959 176.872933 
L 162.810888 177.957027 
L 162.815213 178.476541 
L 162.983591 179.8423 
L 162.925199 181.765755 
L 163.09543 182.718406 
L 162.82201 185.948157 
L 162.368164 186.833209 
L 162.260341 187.107362 
L 162.124094 187.132399 
L 161.603206 187.082325 
L 161.435756 187.357731 
L 161.681371 187.706994 
L 162.459613 188.405522 
L 162.529127 189.510898 
L 162.734269 189.818851 
L 162.854141 191.059426 
L 163.012632 191.281002 
L 163.777281 191.871871 
L 164.218151 193.287703 
L 164.27129 193.712078 
L 164.040814 193.957439 
L 162.83097 194.161489 
L 162.529127 194.374302 
L 162.444475 194.817454 
L 162.551062 195.502211 
L 162.767017 195.986674 
L 162.529127 196.205746 
L 161.51979 196.802874 
L 160.962755 197.381225 
L 160.686246 197.488883 
L 160.648554 197.697941 
L 160.613025 198.391461 
L 159.844669 198.351402 
L 159.691121 198.586748 
L 159.615429 200.139032 
L 159.45045 200.488295 
L 159.260446 200.597206 
L 158.328965 200.94021 
L 158.202605 201.312007 
L 158.228248 202.397354 
L 157.979235 203.077104 
L 158.055236 203.287413 
L 158.512172 203.708032 
L 159.395766 204.939844 
L 160.300987 205.647134 
L 160.851843 206.555971 
L 160.664002 206.70494 
L 160.14991 206.701185 
L 159.988948 207.168121 
L 159.590713 207.30332 
L 159.168997 207.757739 
L 159.099793 207.953026 
L 159.231714 208.418711 
L 158.544303 208.864367 
L 158.388901 209.581672 
L 157.614366 210.732114 
L 157.508706 211.093896 
L 157.721571 211.814957 
L 160.024168 217.470777 
L 160.662457 218.169304 
L 161.205898 218.420924 
L 161.647386 218.364591 
L 162.010092 218.144267 
L 163.134667 218.325784 
L 163.621879 218.850306 
L 164.519994 219.278436 
L 164.641411 219.605166 
L 164.37417 220.019526 
L 162.629844 220.741838 
L 162.210291 221.331456 
L 162.170746 222.662163 
L 162.230373 222.863709 
L 162.550753 223.301854 
L 162.007003 223.885212 
L 161.089115 224.290809 
L 160.469982 224.447289 
L 160.35876 224.620043 
L 159.966704 225.531384 
L 158.753152 226.790736 
L 158.294363 227.625714 
L 157.705197 228.002519 
L 157.708596 228.190295 
L 157.852566 228.304212 
L 157.795719 228.495744 
L 157.5396 228.784919 
L 156.18177 229.334478 
L 155.462536 229.931606 
L 155.203637 229.980428 
L 155.071716 230.243315 
L 154.88542 230.915554 
L 154.681204 231.224758 
L 154.706034 231.227966 
L 155.508879 231.372476 
L 156.401741 232.203698 
L 156.535825 232.561725 
L 156.551957 233.86876 
L 156.55133 233.86876 
L 154.47303 235.678923 
L 153.933296 235.766552 
L 152.868967 235.716478 
L 152.48896 236.109557 
L 152.396584 236.625315 
L 153.286975 239.622224 
L 152.30359 241.596378 
L 150.839481 243.04601 
L 150.573785 243.147409 
L 149.93735 243.245053 
L 148.791458 243.793359 
L 148.172016 243.857203 
L 146.276613 243.778337 
L 145.973951 243.936 
L 145.080754 243.31037 
L 143.545432 242.336679 
L 142.523703 241.803648 
L 140.814978 240.289835 
L 140.607714 240.167608 
L 140.031658 239.913297 
L 139.757253 239.197677 
L 138.650875 238.515572 
L 137.701161 238.259289 
L 136.115061 236.835936 
L 135.094799 236.283943 
L 134.588318 236.102573 
L 134.139733 236.185372 
L 134.130976 236.057231 
L 134.436519 235.400754 
L 133.900359 232.53039 
L 133.731045 232.448576 
L 133.404581 232.034582 
L 132.950645 231.710286 
L 132.785223 231.331776 
L 132.392104 231.120836 
L 131.531912 230.876382 
L 131.066299 230.538286 
L 128.624386 229.847309 
L 128.239051 229.538784 
L 127.393942 228.623067 
L 126.214097 228.069103 
L 125.366555 227.96659 
L 125.302333 227.846334 
L 125.292115 227.462896 
L 125.12864 227.306169 
L 124.54334 226.925688 
L 124.420733 226.720662 
L 124.135625 226.593507 
L 123.27154 226.286954 
L 123.11439 225.602876 
L 122.174893 224.65266 
L 121.722417 224.520576 
L 121.396439 224.245565 
L 120.446238 223.899584 
L 119.751468 223.60683 
L 118.500819 223.622546 
L 117.437027 223.243106 
L 116.157443 222.338232 
L 114.101897 221.614654 
L 113.700447 221.193832 
L 112.520116 220.55214 
L 111.828265 220.501869 
L 111.472608 220.324443 
L 111.280427 220.41217 
L 111.179228 220.246572 
L 110.924285 219.626566 
L 109.796499 219.171171 
L 109.061347 218.998674 
L 107.661075 218.525632 
L 106.736877 218.380571 
L 106.444115 218.583106 
L 106.449007 218.293646 
L 106.033646 217.923273 
L 104.746764 217.396908 
L 103.649344 216.66751 
L 102.472705 215.769514 
L 102.43765 215.296402 
L 102.30777 215.137679 
L 100.744051 214.371789 
L 100.032252 214.179577 
L 99.68776 213.775334 
L 99.398246 213.677687 
L 98.944054 213.780106 
L 98.106161 213.523417 
L 97.527575 213.104176 
L 97.328278 212.310496 
L 94.722708 211.28457 
L 93.882793 210.831817 
L 92.730889 210.367322 
L 92.478775 210.025234 
L 90.492296 209.070684 
L 90.325901 209.088426 
L 90.136153 208.954371 
L 89.639402 208.457577 
L 88.985501 208.272265 
L 88.850244 208.033725 
L 88.62448 207.894077 
L 88.64276 207.8489 
L 89.094978 207.541452 
L 88.913007 207.278678 
L 87.761382 206.541373 
L 88.124822 206.485188 
L 88.162285 206.218062 
L 88.025083 205.995294 
L 87.206733 205.349659 
L 86.406871 205.131819 
L 85.45813 203.485697 
L 84.877209 202.986931 
L 84.850936 202.517737 
L 84.32402 202.114585 
L 82.481516 201.155497 
L 81.960307 200.734235 
L 80.781567 200.081082 
L 80.455589 199.683844 
L 79.78028 199.260978 
L 79.78311 198.704733 
L 79.754979 198.421214 
L 79.28771 197.553091 
L 79.322498 197.255339 
L 79.182635 196.980863 
L 78.363494 196.459613 
L 77.849228 195.915506 
L 77.43762 195.842564 
L 77.358315 195.751879 
L 77.234634 195.36746 
L 77.656424 195.220237 
L 77.590841 194.943917 
L 77.167594 194.107729 
L 76.684952 193.781461 
L 76.532667 193.437451 
L 75.962558 193.186168 
L 75.943103 193.452653 
L 75.708425 193.829624 
L 75.478348 193.423651 
L 75.578538 193.102814 
L 75.592684 192.090982 
L 75.747718 191.998062 
L 75.700936 191.767549 
L 75.729278 191.63886 
L 75.548409 191.294535 
L 75.689155 191.243249 
L 75.633865 190.730968 
L 75.42006 190.602568 
L 75.438452 190.275319 
L 75.389799 190.11465 
L 75.183995 190.144221 
L 75.066732 190.439026 
L 74.490799 190.291633 
L 74.240502 190.281809 
L 74.274663 189.795283 
L 74.62246 188.993324 
L 74.836293 189.039408 
L 75.056037 188.866751 
L 75.412965 188.893925 
L 75.477892 189.031214 
L 75.328687 189.369371 
L 75.821063 189.717471 
L 75.914191 189.589561 
L 75.989132 189.077621 
L 76.261668 187.927377 
L 76.443631 187.204858 
L 76.581807 186.823391 
L 76.783718 185.817975 
L 76.607107 184.469535 
L 76.307377 183.614415 
L 74.515498 181.386259 
L 72.907017 179.164487 
L 72.775586 178.631377 
L 72.832999 178.203416 
L 72.778472 177.708006 
L 72.466704 177.248283 
L 71.417737 176.263567 
L 70.798866 175.10931 
L 70.802758 174.672644 
L 70.148549 173.862306 
L 69.396464 173.34059 
L 69.244877 173.01765 
L 69.491549 172.703211 
L 69.595542 172.248918 
L 69.494437 171.786641 
L 69.081401 171.440527 
L 68.744007 170.837001 
L 66.919245 169.912689 
L 66.744579 169.84369 
L 66.461417 169.530237 
L 66.465795 169.255226 
L 66.535856 169.033443 
L 66.349027 168.554392 
L 65.626038 168.156168 
L 64.902562 168.041827 
L 65.311251 167.161595 
L 65.148262 166.074366 
L 65.004734 165.591372 
L 64.755142 165.05515 
L 64.824548 164.755823 
L 64.64644 164.359231 
L 64.86595 164.389941 
L 64.996501 164.222375 
L 64.948364 163.975307 
L 64.123621 162.561324 
L 63.83462 162.377984 
L 63.589407 162.028059 
L 63.670658 161.809234 
L 63.254672 161.173456 
L 63.054707 160.98223 
L 62.832847 160.852117 
L 62.476704 160.508107 
L 61.962438 160.276467 
L 61.573211 159.949214 
L 59.25476 158.599602 
L 59.257624 158.168975 
L 59.24626 157.752102 
L 59.453558 157.643963 
L 59.708217 157.611279 
L 59.846125 157.564245 
L 59.883373 157.058927 
L 59.597406 156.599586 
L 59.667217 156.456692 
L 59.420825 156.181662 
L 59.476769 156.059114 
L 59.409487 155.744024 
L 59.135611 155.131831 
L 59.260147 155.016311 
L 58.514461 153.269347 
L 57.988525 152.827514 
L 58.052517 152.540493 
L 57.10683 151.338122 
L 56.848481 151.107468 
L 55.72994 149.19422 
L 55.413693 148.929066 
L 55.439956 148.737239 
L 55.09122 148.180623 
L 54.882398 147.830995 
L 54.960146 147.579411 
L 54.351412 146.92376 
L 54.341413 146.603478 
L 54.014084 146.306945 
L 53.782283 145.382848 
L 52.856798 144.289277 
L 52.953683 144.146437 
L 53.028575 144.07815 
L 52.909316 143.461532 
L 52.71847 143.19956 
L 52.60326 142.784591 
L 52.301922 142.167304 
L 52.180545 140.993273 
L 52.288167 140.827549 
L 52.293772 140.448923 
L 51.43644 139.578452 
L 51.359754 139.293686 
L 50.941474 138.742474 
L 50.559844 137.917408 
L 50.635938 137.580066 
L 50.409198 137.456324 
L 50.281723 136.453305 
L 50.432591 136.302231 
L 50.335315 136.107855 
L 50.178896 136.105884 
L 49.929946 135.918383 
L 49.911279 135.386765 
L 50.077755 135.220564 
L 49.840531 135.031204 
L 49.355373 134.769458 
L 49.250282 134.834515 
L 48.965764 134.416316 
L 48.830687 134.205959 
L 48.738935 134.100167 
L 49.181581 133.661992 
L 49.199692 133.420792 
L 49.089418 133.130115 
L 48.632072 132.924541 
L 48.318035 133.156564 
L 48.378359 133.405202 
L 48.423459 133.791971 
L 48.287865 133.750907 
L 47.898339 133.151934 
L 47.690632 132.778756 
L 47.747498 132.722905 
L 48.214686 132.873195 
L 48.344736 132.632185 
L 48.245021 132.09676 
L 47.958094 131.772392 
L 47.475035 131.71201 
L 47.363888 131.517841 
L 47.418126 130.890356 
L 47.12885 130.783077 
L 47.121863 130.654177 
L 47.218589 130.679246 
L 47.275763 130.59927 
L 47.207846 130.026878 
L 46.706368 129.199988 
L 45.923496 127.997869 
L 46.014099 127.781209 
L 46.152279 127.6854 
L 46.151913 126.872577 
L 45.957661 126.090309 
L 45.235405 125.120422 
L 44.491494 124.469859 
L 43.942684 124.180063 
L 43.794227 123.997281 
L 43.859609 123.844986 
L 44.19723 123.783783 
L 44.250229 123.285511 
L 43.514122 122.194656 
L 43.492628 121.928963 
L 43.200027 121.531858 
L 43.25044 121.355526 
L 42.860451 120.909123 
L 41.594588 119.807936 
L 41.589411 119.510241 
L 39.496251 117.979012 
L 38.487459 116.708856 
L 38.348533 116.207938 
L 37.565745 115.193381 
L 37.8566 115.011266 
L 37.875184 114.778134 
L 37.289723 113.798228 
L 36.114841 112.22547 
L 36.040402 111.591663 
L 36.219437 111.291641 
L 35.753131 109.836379 
L 34.745721 108.765859 
L 34.840499 108.195391 
L 34.611464 107.903077 
L 31.941354 105.198401 
L 31.775953 104.817441 
L 31.732495 104.430642 
L 31.261514 103.676722 
L 31.068512 103.471451 
L 29.096995 101.991485 
L 27.558529 101.09197 
L 21.670489 98.12741 
L 20.921973 97.398319 
L 17.952694 95.370362 
L 17.601705 94.916069 
L 17.355284 94.205221 
L 17.369684 93.0812 
L 17.618434 92.872101 
L 17.744679 92.55836 
L 18.013827 92.542086 
L 18.266723 91.914931 
L 18.478314 91.929328 
L 18.708117 92.294261 
L 19.505487 92.631639 
L 19.884072 92.690829 
L 20.32098 92.252191 
L 20.791834 91.395932 
L 20.885105 90.263736 
L 20.586128 89.336014 
L 19.981004 88.00302 
L 19.619392 87.594004 
L 18.036414 86.176821 
L 17.87932 86.230308 
L 17.592199 86.023706 
L 16.851666 84.786965 
L 17.181099 84.375534 
L 17.053135 83.958367 
L 17.22141 83.91544 
L 17.116379 83.442539 
L 17.219547 83.264163 
L 17.408873 83.289115 
L 17.621853 83.168705 
L 17.819775 83.373317 
L 18.176287 83.344609 
L 18.357643 83.07799 
L 18.408285 82.652136 
L 18.149217 82.07611 
L 17.09558 80.949312 
L 16.494611 80.041271 
L 15.129627 78.48867 
L 15.187855 78.320828 
L 15.515897 78.067928 
L 15.381202 77.555376 
L 15.489212 76.744143 
L 15.281949 75.863911 
L 15.652687 75.486387 
L 15.82784 74.798367 
L 15.652687 74.119219 
L 15.845841 73.592854 
L 16.143114 73.164074 
L 17.456268 72.164572 
L 17.846469 71.576108 
L 18.418632 71.310954 
L 18.606921 70.916673 
L 19.625236 69.538662 
L 20.818217 68.477061 
L 20.931093 67.950696 
L 21.46628 67.116792 
L 21.895403 66.76194 
L 24.132972 65.283387 
L 24.926996 64.221786 
L 25.219402 64.085759 
L 26.280046 64.062102 
L 26.719873 63.79892 
L 27.048766 62.9267 
L 27.130378 62.969757 
L 27.946313 63.32528 
L 27.947549 64.108933 
L 28.221277 64.279183 
L 28.227765 64.737357 
L 28.133845 65.157976 
L 28.466892 65.578595 
L 28.530844 66.063057 
L 28.444647 66.620127 
L 28.490063 67.059523 
L 28.416842 67.236033 
L 28.472762 67.480142 
L 28.833614 68.221232 
L 28.865745 68.549214 
L 29.146889 68.941041 
L 28.956885 69.157609 
L 28.025095 69.590747 
L 27.230787 70.459525 
L 27.00649 70.413206 
L 26.255126 70.060187 
L 25.549178 70.129038 
L 25.240229 70.453265 
L 24.997351 71.060553 
L 25.036013 71.433457 
L 25.301709 71.976756 
L 25.254749 72.319761 
L 25.507778 72.855549 
L 25.92486 72.900615 
L 26.994441 72.676536 
L 26.86252 72.94443 
L 25.236521 75.275359 
L 25.503453 75.675948 
L 26.238443 76.056508 
L 26.659849 75.936331 
L 27.149533 75.67094 
L 28.257115 74.752089 
L 28.794069 73.823223 
L 29.445951 73.701794 
L 29.522262 73.833237 
L 30.386083 74.20253 
L 31.014176 74.800911 
L 31.337955 74.979924 
L 32.269745 75.101353 
L 32.823999 75.763577 
L 33.121208 76.074033 
L 33.565168 76.144137 
L 34.368126 75.893768 
L 34.780264 75.645904 
L 35.212484 75.587067 
L 35.543059 75.753562 
L 36.484118 76.569763 
L 36.772059 76.567259 
L 37.081934 76.825138 
L 37.051966 77.0029 
L 36.776384 77.498629 
L 36.768351 77.759012 
L 37.116846 78.274771 
L 37.254328 78.993328 
L 37.60653 79.829558 
L 37.692418 80.086185 
L 38.417521 80.64701 
L 38.663444 81.066377 
L 39.002052 81.225361 
L 39.454354 81.915752 
L 39.7287 81.98961 
L 40.78716 81.993366 
L 41.517515 82.177386 
L 41.834497 82.143587 
L 42.094014 82.301319 
L 42.31553 82.522895 
L 42.968957 81.901981 
L 43.31498 80.858571 
L 44.146362 80.732135 
L 44.273031 80.491782 
L 44.211859 80.202607 
L 43.942147 79.658055 
L 43.933496 79.326317 
L 44.291877 78.681619 
L 44.836863 78.173372 
L 45.336433 77.887952 
L 46.560216 77.359852 
L 46.993945 76.946567 
L 47.028238 76.249291 
L 47.417823 75.543253 
L 47.13359 75.367995 
L 46.988075 75.136404 
L 46.877162 74.232575 
L 46.976335 73.978451 
L 47.196306 73.793178 
L 48.142308 71.484783 
L 48.270213 70.947743 
L 48.316246 70.027639 
L 48.571129 69.8649 
L 48.870501 69.804811 
L 49.085838 69.578228 
L 49.289436 68.450319 
L 49.485 68.161144 
L 49.727216 68.0297 
L 50.018864 67.741777 
L 50.091776 67.508934 
L 50.001872 66.491187 
L 50.245324 66.394795 
L 50.305878 65.110406 
L 50.697316 64.080141 
L 50.795871 63.424176 
L 50.711837 63.108712 
L 50.842522 62.879625 
L 51.294206 62.853336 
L 51.961845 63.12123 
L 52.05144 63.302747 
L 52.331039 64.301716 
L 53.079313 63.941186 
L 53.189299 63.693322 
L 53.163965 63.360332 
L 52.687257 62.830803 
L 52.688493 62.565412 
L 52.829682 62.39391 
L 53.412978 61.850611 
L 53.950549 60.946781 
L 54.528284 60.461067 
L 55.736892 58.821155 
L 56.842312 57.926088 
L 70.943919 52.886704 
L 72.15197 52.034922 
L 77.860111 47.609663 
L 84.211794 40.023503 
L 86.048804 32.908037 
L 86.738379 33.632853 
L 88.190748 33.570261 
L 88.101153 33.368714 
L 87.894157 33.129613 
L 87.462864 30.378065 
L 87.447416 29.76967 
L 87.85214 29.385355 
L 87.797765 29.106194 
L 87.790968 28.406415 
L 87.601582 28.172321 
L 87.42888 28.218639 
L 86.754753 27.527622 
L 86.539106 27.501334 
L 86.280825 27.394927 
L 85.716066 26.705162 
L 85.494859 26.191907 
L 84.975207 24.647135 
L 83.86886 24.019962 
L 83.499975 24.014955 
L 83.274751 23.651921 
L 83.284329 23.173718 
L 83.458885 23.114881 
L 84.621769 23.316428 
L 85.464582 23.775853 
L 85.772604 23.805898 
L 86.194319 23.580566 
L 86.794298 23.629388 
L 87.106337 23.499196 
L 88.036891 22.729314 
L 88.252538 22.216059 
L 88.675798 22.202289 
L 89.465471 22.478946 
L 89.692858 22.660463 
L 90.403131 23.486678 
L 90.799204 23.58307 
L 90.799204 23.58307 
" clip-path="url(#p31d293b261)" style="fill: none; stroke: #000000; stroke-width: 2"/>
   </g>
  </g>
 </g>
 <defs>
  <clipPath id="p31d293b261">
   <rect x="0" y="-0" width="181.555528" height="266.112"/>
  </clipPath>
 </defs>
</svg>
