<?xml version="1.0" encoding="utf-8" standalone="no"?>
<!DOCTYPE svg PUBLIC "-//W3C//DTD SVG 1.1//EN"
  "http://www.w3.org/Graphics/SVG/1.1/DTD/svg11.dtd">
<svg xmlns:xlink="http://www.w3.org/1999/xlink" width="185.049669pt" height="266.112pt" viewBox="0 0 185.049669 266.112" xmlns="http://www.w3.org/2000/svg" version="1.1">
 <metadata>
  <rdf:RDF xmlns:dc="http://purl.org/dc/elements/1.1/" xmlns:cc="http://creativecommons.org/ns#" xmlns:rdf="http://www.w3.org/1999/02/22-rdf-syntax-ns#">
   <cc:Work>
    <dc:type rdf:resource="http://purl.org/dc/dcmitype/StillImage"/>
    <dc:date>2024-02-02T21:58:04.404916</dc:date>
    <dc:format>image/svg+xml</dc:format>
    <dc:creator>
     <cc:Agent>
      <dc:title>Matplotlib v3.8.2, https://matplotlib.org/</dc:title>
     </cc:Agent>
    </dc:creator>
   </cc:Work>
  </rdf:RDF>
 </metadata>
 <defs>
  <style type="text/css">*{stroke-linejoin: round; stroke-linecap: butt}</style>
 </defs>
 <g id="figure_1">
  <g id="patch_1">
   <path d="M 0 266.112 
L 185.049669 266.112 
L 185.049669 0 
L 0 0 
L 0 266.112 
z
" style="fill: none"/>
  </g>
  <g id="axes_1">
   <g id="PatchCollection_1">
    <path d="M 44.660359 243.445174 
L 43.896132 243.936 
L 43.194717 243.772976 
L 43.048153 243.289162 
L 43.459929 242.857936 
L 43.739098 242.700171 
L 44.3777 242.849172 
L 44.660359 243.445174 
" clip-path="url(#p4032af3dd1)" style="fill: none; stroke: #000000; stroke-width: 2"/>
    <path d="M 16.68056 240.759657 
L 15.734872 240.924434 
L 15.420806 240.47042 
L 15.891905 239.702628 
L 16.698008 239.208297 
L 17.671613 239.143438 
L 18.034534 239.637769 
L 17.535517 240.307396 
L 16.68056 240.759657 
" clip-path="url(#p4032af3dd1)" style="fill: none; stroke: #000000; stroke-width: 2"/>
    <path d="M 62.401604 142.468303 
L 62.129413 142.990682 
L 61.850243 142.349103 
L 62.122434 142.214126 
L 62.401604 142.468303 
" clip-path="url(#p4032af3dd1)" style="fill: none; stroke: #000000; stroke-width: 2"/>
    <path d="M 145.873392 73.996365 
L 145.287135 74.396037 
L 144.669472 73.763223 
L 144.303062 72.904278 
L 144.428688 72.250428 
L 145.294115 72.218875 
L 145.866413 72.655359 
L 146.061832 73.331997 
L 145.873392 73.996365 
" clip-path="url(#p4032af3dd1)" style="fill: none; stroke: #000000; stroke-width: 2"/>
    <path d="M 148.874468 69.727934 
L 148.490609 70.0943 
L 148.323108 69.883947 
L 148.546443 69.053049 
L 150.081878 66.208013 
L 150.416881 66.285142 
L 150.584383 66.456931 
L 150.636728 66.719874 
L 150.661155 67.065205 
L 150.486674 67.280817 
L 150.081878 67.971479 
L 150.444798 68.535929 
L 150.277297 68.690188 
L 149.865521 68.711224 
L 149.495621 68.854966 
L 148.874468 69.727934 
" clip-path="url(#p4032af3dd1)" style="fill: none; stroke: #000000; stroke-width: 2"/>
    <path d="M 156.300386 58.736944 
L 155.288396 59.746643 
L 154.646305 59.978032 
L 154.087965 59.876361 
L 153.6727 59.595889 
L 153.410978 59.175181 
L 153.327227 58.652803 
L 153.358634 57.881505 
L 153.48426 57.73601 
L 154.845213 59.16817 
L 155.120894 59.126099 
L 155.665275 58.80005 
L 157.172792 57.446774 
L 157.4729 57.036584 
L 157.504306 56.528229 
L 157.368211 56.053179 
L 157.354252 55.774461 
L 157.713684 55.858602 
L 157.943999 55.995332 
L 158.12197 56.163615 
L 158.258065 56.402016 
L 158.331347 56.742088 
L 157.703215 56.924395 
L 157.776497 57.285503 
L 158.12197 57.70621 
L 158.331347 58.063812 
L 158.094053 58.358307 
L 157.570609 58.48452 
L 156.705183 58.505555 
L 156.300386 58.736944 
" clip-path="url(#p4032af3dd1)" style="fill: none; stroke: #000000; stroke-width: 2"/>
    <path d="M 160.390225 54.456243 
L 161.053253 55.136387 
L 160.833407 56.00585 
L 160.390225 56.12505 
L 160.020325 55.662272 
L 159.734176 55.038222 
L 159.50386 54.656079 
L 158.928073 54.475525 
L 158.509318 54.606997 
L 157.713684 55.273117 
L 157.640402 54.633291 
L 157.717173 54.107406 
L 158.031239 53.793628 
L 158.652392 53.802393 
L 159.392192 54.002229 
L 160.390225 54.456243 
" clip-path="url(#p4032af3dd1)" style="fill: none; stroke: #000000; stroke-width: 2"/>
    <path d="M 166.664567 43.956079 
L 166.113207 45.404015 
L 165.272208 46.564467 
L 165.233822 46.848445 
L 165.7119 47.470741 
L 165.7119 47.742448 
L 165.512992 47.935273 
L 165.150071 49.050148 
L 164.152039 50.352589 
L 163.921723 51.276394 
L 164.214852 52.892612 
L 164.005474 53.481603 
L 163.810055 53.613074 
L 163.597189 53.539451 
L 163.094683 53.49738 
L 162.693376 53.250214 
L 162.424675 53.213402 
L 162.225767 53.369415 
L 161.775605 53.972429 
L 161.54529 54.095135 
L 161.08117 54.0145 
L 160.89971 53.865499 
L 160.836897 53.607816 
L 160.456528 52.54027 
L 160.131993 51.151934 
L 159.849333 50.540155 
L 159.50386 50.266695 
L 159.259587 50.284224 
L 159.147919 50.214106 
L 159.210732 49.656669 
L 159.346827 49.174608 
L 159.594591 48.734618 
L 159.936574 48.380522 
L 160.376266 48.15965 
L 160.543768 48.717088 
L 160.927627 48.790712 
L 161.332423 48.482193 
L 161.54529 47.891449 
L 161.430132 47.535601 
L 161.095129 47.185011 
L 160.376266 46.687173 
L 160.70778 46.376901 
L 161.283568 45.565286 
L 161.800033 45.214696 
L 161.869825 45.242743 
L 161.904721 45.004342 
L 161.901232 44.415351 
L 161.869825 44.362763 
L 162.323476 43.521347 
L 162.84343 42.979686 
L 163.572761 42.685191 
L 164.647565 42.599296 
L 165.670025 42.306554 
L 165.924767 41.589598 
L 165.582784 39.340564 
L 165.184967 38.488631 
L 165.087258 37.983782 
L 165.25476 37.794463 
L 165.638618 37.876852 
L 166.025966 38.122265 
L 166.235344 38.425525 
L 166.748318 39.864696 
L 166.884414 41.908634 
L 166.664567 43.956079 
" clip-path="url(#p4032af3dd1)" style="fill: none; stroke: #000000; stroke-width: 2"/>
    <path d="M 169.232856 23.810533 
L 168.50977 24.173763 
L 168.135871 23.719073 
L 168.148226 23.084074 
L 168.871313 22.176 
L 169.410377 22.182533 
L 169.628864 22.767881 
L 169.232856 23.810533 
" clip-path="url(#p4032af3dd1)" style="fill: none; stroke: #000000; stroke-width: 2"/>
   </g>
  </g>
 </g>
 <defs>
  <clipPath id="p4032af3dd1">
   <rect x="0" y="-0" width="185.049669" height="266.112"/>
  </clipPath>
 </defs>
</svg>
