<?xml version="1.0" encoding="utf-8" standalone="no"?>
<!DOCTYPE svg PUBLIC "-//W3C//DTD SVG 1.1//EN"
  "http://www.w3.org/Graphics/SVG/1.1/DTD/svg11.dtd">
<svg xmlns:xlink="http://www.w3.org/1999/xlink" width="357.12pt" height="244.63423pt" viewBox="0 0 357.12 244.63423" xmlns="http://www.w3.org/2000/svg" version="1.1">
 <metadata>
  <rdf:RDF xmlns:dc="http://purl.org/dc/elements/1.1/" xmlns:cc="http://creativecommons.org/ns#" xmlns:rdf="http://www.w3.org/1999/02/22-rdf-syntax-ns#">
   <cc:Work>
    <dc:type rdf:resource="http://purl.org/dc/dcmitype/StillImage"/>
    <dc:date>2024-02-02T21:58:04.439922</dc:date>
    <dc:format>image/svg+xml</dc:format>
    <dc:creator>
     <cc:Agent>
      <dc:title>Matplotlib v3.8.2, https://matplotlib.org/</dc:title>
     </cc:Agent>
    </dc:creator>
   </cc:Work>
  </rdf:RDF>
 </metadata>
 <defs>
  <style type="text/css">*{stroke-linejoin: round; stroke-linecap: butt}</style>
 </defs>
 <g id="figure_1">
  <g id="patch_1">
   <path d="M 0 244.63423 
L 357.12 244.63423 
L 357.12 -0 
L 0 -0 
L 0 244.63423 
z
" style="fill: none"/>
  </g>
  <g id="axes_1">
   <g id="PatchCollection_1">
    <path d="M 274.019996 218.64375 
L 274.407667 218.746936 
L 274.776115 218.638913 
L 274.947523 218.640525 
L 275.090096 218.967818 
L 275.264708 219.040371 
L 275.487379 219.085515 
L 275.70204 219.153231 
L 276.168206 219.466014 
L 276.374857 219.559526 
L 276.836218 219.654651 
L 277.038063 219.730428 
L 277.592336 220.181867 
L 278.806612 220.652654 
L 279.729333 221.242749 
L 279.950401 221.329813 
L 280.370111 221.352385 
L 282.638467 221.968277 
L 282.83871 222.073075 
L 282.891574 222.285896 
L 283.038953 222.480982 
L 283.232789 222.624476 
L 283.663713 222.748621 
L 283.78546 222.905013 
L 283.936043 223.248429 
L 284.03216 223.306471 
L 284.160316 223.345166 
L 284.275656 223.398371 
L 284.317307 223.506394 
L 284.261238 223.706317 
L 284.157112 223.765972 
L 284.038568 223.728889 
L 283.936043 223.628928 
L 283.772645 223.735338 
L 283.654101 223.767584 
L 283.532353 223.735338 
L 283.375362 223.628928 
L 283.165507 223.796605 
L 282.926817 223.886893 
L 282.676914 223.883668 
L 282.43502 223.775645 
L 282.356524 224.017488 
L 282.247592 224.038447 
L 282.113029 223.964282 
L 281.959242 223.912689 
L 281.089385 223.912689 
L 280.983656 223.893342 
L 280.917977 223.777258 
L 280.810646 223.775645 
L 280.704918 223.833688 
L 280.546325 224.009426 
L 280.485451 224.046509 
L 280.264383 224.128735 
L 280.05613 224.248044 
L 279.876712 224.235146 
L 279.748556 223.912689 
L 279.921566 223.932037 
L 280.088169 223.901403 
L 280.190693 223.806279 
L 280.161858 223.628928 
L 280.049722 223.514456 
L 279.907149 223.525742 
L 279.738944 223.591845 
L 279.543507 223.628928 
L 279.368895 223.570886 
L 279.264768 223.438678 
L 279.195884 223.306471 
L 279.128603 223.248429 
L 278.921952 223.280675 
L 278.755349 223.335492 
L 278.595155 223.345166 
L 278.390105 223.248429 
L 278.446174 223.166203 
L 278.537485 222.953381 
L 278.354863 222.934034 
L 278.263552 222.871155 
L 278.234717 222.748621 
L 278.255542 222.547086 
L 278.053697 222.706702 
L 277.893502 222.890502 
L 277.7269 223.040445 
L 277.518647 223.100099 
L 276.778548 222.682518 
L 276.470974 222.856644 
L 276.283546 222.716376 
L 276.205051 222.426165 
L 276.227478 222.140791 
L 276.355634 221.987624 
L 276.538256 221.823171 
L 276.634372 221.64582 
L 276.496605 221.452346 
L 276.283546 221.366895 
L 276.192235 221.432999 
L 276.139371 221.550695 
L 276.033643 221.61035 
L 275.899079 221.56843 
L 275.798156 221.471693 
L 275.70204 221.329813 
L 275.404078 221.429774 
L 275.10932 221.61035 
L 274.61592 222.005359 
L 274.519803 221.599064 
L 275.293543 221.2363 
L 275.288738 220.923517 
L 275.110922 220.820331 
L 274.67359 220.823556 
L 274.481357 220.7768 
L 274.293929 220.622021 
L 274.063249 220.252808 
L 273.875821 220.039986 
L 273.72684 220.010965 
L 273.568247 220.078681 
L 273.443296 220.091579 
L 273.395237 219.904555 
L 273.500966 219.482137 
L 273.457713 219.34348 
L 273.198198 219.28705 
L 273.062032 219.229008 
L 272.905042 219.08874 
L 272.775284 218.929124 
L 272.719216 218.808202 
L 272.741643 218.56636 
L 272.802517 218.34709 
L 272.991547 217.923059 
L 274.019996 218.64375 
" clip-path="url(#p0314f0461d)" style="fill: none; stroke: #000000; stroke-width: 2"/>
    <path d="M 293.065535 217.889201 
L 293.150438 218.056879 
L 293.252963 218.163289 
L 293.493255 218.069777 
L 293.896945 218.242291 
L 294.093984 218.366437 
L 294.175684 218.540564 
L 294.207723 218.730813 
L 294.291024 218.972655 
L 294.420781 219.182252 
L 294.579374 219.28705 
L 294.444811 219.524056 
L 294.305441 219.712693 
L 294.132431 219.859411 
L 293.906557 219.975495 
L 293.746362 219.678835 
L 293.387526 219.524056 
L 292.950195 219.490198 
L 292.538495 219.559526 
L 291.846454 219.917453 
L 291.561307 219.888432 
L 291.478006 219.411196 
L 291.354656 219.411196 
L 291.231307 219.930351 
L 290.942956 220.149622 
L 290.523246 220.143173 
L 289.997808 219.975495 
L 289.709458 219.998067 
L 289.538049 219.907779 
L 289.461156 219.627242 
L 289.384263 219.499872 
L 289.196835 219.393461 
L 288.97096 219.317684 
L 288.777125 219.28705 
L 288.873242 219.141945 
L 288.999795 219.025861 
L 289.148776 218.937185 
L 289.326592 218.871082 
L 289.22567 218.793692 
L 289.046252 218.476072 
L 289.172806 218.463174 
L 289.240087 218.492195 
L 289.326592 218.600218 
L 289.654991 218.785631 
L 290.523246 218.84206 
L 290.939752 219.017799 
L 291.085529 218.871082 
L 291.330627 218.985554 
L 291.450773 218.938797 
L 291.455579 218.79208 
L 291.354656 218.600218 
L 291.208879 218.600218 
L 291.208879 218.746936 
L 291.085529 218.746936 
L 290.941354 218.667934 
L 290.808393 218.576034 
L 290.744315 218.469623 
L 290.805189 218.340641 
L 290.628975 218.260026 
L 290.504023 218.145554 
L 290.423926 217.992387 
L 290.401498 217.798914 
L 290.785965 217.921447 
L 291.330627 217.924672 
L 292.14762 217.798914 
L 292.373494 217.908549 
L 292.544902 217.89565 
L 292.700291 217.837608 
L 292.887719 217.798914 
L 293.065535 217.889201 
" clip-path="url(#p0314f0461d)" style="fill: none; stroke: #000000; stroke-width: 2"/>
    <path d="M 273.943103 216.447821 
L 273.871015 216.625172 
L 273.73485 216.860565 
L 273.549024 217.008895 
L 273.332761 216.921832 
L 273.286305 217.008895 
L 273.097275 217.110469 
L 272.83776 217.173348 
L 272.587856 217.137878 
L 272.78009 217.018569 
L 272.866595 216.989548 
L 272.866595 216.854116 
L 272.318729 216.447821 
L 272.174554 216.570354 
L 272.091253 216.534884 
L 272.017563 216.422024 
L 271.915039 216.312389 
L 271.23261 215.906094 
L 270.934648 215.562677 
L 271.001929 215.315998 
L 271.248629 215.224098 
L 271.498533 215.354693 
L 271.746834 215.554616 
L 272.719216 215.757764 
L 273.582665 216.367207 
L 273.943103 216.447821 
" clip-path="url(#p0314f0461d)" style="fill: none; stroke: #000000; stroke-width: 2"/>
    <path d="M 260.174375 204.089674 
L 261.45433 204.466948 
L 261.731467 204.43309 
L 261.922098 204.439539 
L 262.514818 204.813589 
L 262.740693 204.911938 
L 263.341423 204.737812 
L 264.023852 204.384722 
L 264.671038 204.15739 
L 265.170845 204.360537 
L 265.327836 204.370211 
L 266.003857 204.626564 
L 266.244149 204.776506 
L 266.421965 205.013512 
L 266.407548 205.190863 
L 266.250557 205.332744 
L 265.98944 205.453665 
L 265.776381 205.51332 
L 264.90332 205.589097 
L 264.677446 205.635853 
L 264.292979 205.801918 
L 264.095939 205.85996 
L 263.653802 205.832552 
L 263.104335 205.677772 
L 261.933312 205.184414 
L 260.72224 204.911938 
L 259.905248 204.360537 
L 259.905248 204.225106 
L 260.041413 204.239616 
L 260.102287 204.200921 
L 260.131122 204.142879 
L 260.174375 204.089674 
" clip-path="url(#p0314f0461d)" style="fill: none; stroke: #000000; stroke-width: 2"/>
    <path d="M 230.328515 203.775279 
L 230.495117 203.830096 
L 230.647302 203.784953 
L 230.712982 203.664031 
L 230.772254 203.594703 
L 230.911623 203.683379 
L 230.930846 203.752707 
L 230.927642 203.809137 
L 230.953274 203.83977 
L 231.046186 203.830096 
L 230.501525 204.258964 
L 230.459874 204.445988 
L 230.911623 204.507255 
L 230.801089 204.60238 
L 230.604049 204.816813 
L 230.495117 204.911938 
L 230.488709 205.097351 
L 230.205165 205.124759 
L 229.873562 204.95547 
L 229.714969 204.568522 
L 229.541959 204.41858 
L 228.684918 204.420192 
L 228.33249 204.360537 
L 228.253994 204.649136 
L 228.278023 204.92 
L 228.271616 205.145719 
L 228.088994 205.306947 
L 227.893556 204.749098 
L 227.850304 204.465336 
L 227.941615 204.089674 
L 228.072974 203.881689 
L 228.278023 203.714012 
L 228.550354 203.601152 
L 228.883559 203.547947 
L 229.969679 203.547947 
L 230.142689 203.604377 
L 230.328515 203.775279 
" clip-path="url(#p0314f0461d)" style="fill: none; stroke: #000000; stroke-width: 2"/>
    <path d="M 225.968017 202.578965 
L 226.06093 202.735356 
L 226.333261 202.698274 
L 226.605591 202.691825 
L 226.869913 202.63862 
L 227.124622 202.454819 
L 227.36972 202.570904 
L 227.590788 202.743418 
L 227.643653 202.975587 
L 227.393749 203.277083 
L 227.537924 203.412515 
L 227.467439 203.610826 
L 227.461031 203.894588 
L 227.393749 204.089674 
L 227.521905 204.297658 
L 227.537924 204.487908 
L 227.448215 204.650748 
L 227.259186 204.776506 
L 226.879524 204.594318 
L 226.387727 204.43309 
L 225.894327 204.378273 
L 225.50986 204.507255 
L 225.301607 204.109021 
L 225.157432 203.936507 
L 224.986024 203.830096 
L 225.120587 203.683379 
L 225.39452 203.881689 
L 225.716511 204.050979 
L 226.072143 204.167063 
L 226.451805 204.225106 
L 226.823456 204.229943 
L 226.932388 204.181574 
L 226.831466 204.055816 
L 225.50986 202.891748 
L 225.404132 202.714397 
L 225.448986 202.527372 
L 225.630006 202.420961 
L 225.812628 202.454819 
L 225.968017 202.578965 
" clip-path="url(#p0314f0461d)" style="fill: none; stroke: #000000; stroke-width: 2"/>
    <path d="M 251.37969 199.765532 
L 251.120175 199.794553 
L 251.211486 199.57367 
L 251.427748 199.581732 
L 251.37969 199.765532 
" clip-path="url(#p0314f0461d)" style="fill: none; stroke: #000000; stroke-width: 2"/>
    <path d="M 246.847784 198.449909 
L 246.693997 198.661118 
L 246.669968 198.522462 
L 246.847784 198.449909 
" clip-path="url(#p0314f0461d)" style="fill: none; stroke: #000000; stroke-width: 2"/>
    <path d="M 246.594677 196.874709 
L 246.437686 197.077857 
L 246.360792 196.971446 
L 246.549822 196.787646 
L 246.594677 196.874709 
" clip-path="url(#p0314f0461d)" style="fill: none; stroke: #000000; stroke-width: 2"/>
    <path d="M 230.52235 190.544887 
L 230.789875 190.931835 
L 230.328515 190.809302 
L 230.195553 191.112411 
L 230.272446 191.523543 
L 230.434243 191.731527 
L 230.647302 191.844387 
L 231.340945 192.382889 
L 231.719004 192.553791 
L 232.087451 192.665039 
L 232.233229 192.660202 
L 232.388617 192.553791 
L 232.502356 192.355481 
L 232.531191 192.132986 
L 232.473521 191.950798 
L 232.321336 191.879857 
L 232.30852 191.728303 
L 232.577647 191.402622 
L 233.059833 190.931835 
L 233.6093 190.56101 
L 234.424691 190.290147 
L 235.16479 190.401394 
L 235.493189 191.1898 
L 235.409888 191.605769 
L 235.039838 192.461891 
L 234.87644 193.30834 
L 234.282118 194.462734 
L 234.147554 194.582043 
L 234.234059 194.793252 
L 234.040224 195.436553 
L 234.147554 195.800929 
L 233.747068 195.528453 
L 233.035804 194.928684 
L 232.657744 194.730373 
L 230.642496 194.178972 
L 229.714969 194.043541 
L 229.293657 194.043541 
L 228.986084 194.009683 
L 228.748996 193.908109 
L 228.667296 193.605 
L 228.598413 193.021353 
L 228.636859 192.505423 
L 228.883559 192.405461 
L 229.037346 192.210375 
L 229.292055 191.941124 
L 229.428221 191.707343 
L 229.224774 191.608994 
L 229.091812 191.518706 
L 228.896375 191.310721 
L 228.600015 190.931835 
L 228.479869 190.931835 
L 228.523121 191.45099 
L 228.177101 191.765385 
L 227.749381 191.776671 
L 227.537924 191.392948 
L 227.499477 191.238169 
L 227.412972 191.167228 
L 227.316856 191.125309 
L 227.259186 191.054369 
L 227.236758 190.89314 
L 227.259186 189.908036 
L 227.191904 189.770991 
L 226.783408 189.221203 
L 226.720932 189.085771 
L 226.666465 188.834255 
L 226.525494 188.640781 
L 226.331659 188.516636 
L 225.927968 188.418286 
L 225.855881 188.290916 
L 225.831851 188.147423 
L 225.778987 188.052298 
L 225.668453 188.023277 
L 225.360879 187.981358 
L 225.240733 187.932989 
L 225.029276 187.74274 
L 224.861072 187.536368 
L 224.755344 187.275178 
L 224.716897 186.917251 
L 224.73612 186.588345 
L 224.803402 186.194949 
L 224.928354 185.94182 
L 225.500249 186.233643 
L 225.889522 186.527079 
L 226.195493 186.889842 
L 226.317241 187.317097 
L 226.506271 187.758863 
L 226.956418 188.029726 
L 227.49307 188.234486 
L 227.941615 188.471492 
L 229.224774 189.906423 
L 229.572396 190.112795 
L 230.060989 190.296596 
L 230.52235 190.544887 
" clip-path="url(#p0314f0461d)" style="fill: none; stroke: #000000; stroke-width: 2"/>
    <path d="M 230.190747 185.109882 
L 229.928028 185.269498 
L 229.819096 185.17921 
L 229.790261 184.947042 
L 229.694144 184.827733 
L 229.638076 184.747119 
L 229.513124 184.597176 
L 228.963656 184.305353 
L 228.696131 184.050613 
L 228.784238 183.753953 
L 229.13987 183.557254 
L 229.503512 183.515335 
L 229.80628 183.608847 
L 230.012931 183.734605 
L 230.065795 183.920018 
L 230.123465 183.949039 
L 230.128271 184.053837 
L 230.05298 184.379518 
L 229.956863 184.42305 
L 229.905601 184.440785 
L 229.926426 184.595564 
L 229.964873 184.666505 
L 230.060989 184.676178 
L 230.16832 184.760017 
L 230.248417 184.898673 
L 230.190747 185.109882 
" clip-path="url(#p0314f0461d)" style="fill: none; stroke: #000000; stroke-width: 2"/>
    <path d="M 222.805775 180.558408 
L 223.154999 180.708351 
L 223.420922 180.669656 
L 223.798982 180.477794 
L 224.189857 180.422977 
L 224.553498 180.306892 
L 224.840247 179.926393 
L 225.605977 180.451998 
L 226.21792 181.02597 
L 226.317241 181.154953 
L 226.333261 181.274262 
L 226.293212 181.570922 
L 226.317241 181.685394 
L 226.512679 181.867582 
L 226.788213 182.044933 
L 227.08137 182.183589 
L 227.326467 182.236795 
L 227.37773 182.348042 
L 227.259186 183.117101 
L 227.167875 183.262206 
L 227.002874 183.320249 
L 226.889136 183.396026 
L 226.977243 183.591112 
L 227.211127 183.73783 
L 227.432196 183.744279 
L 227.595594 183.789423 
L 227.734964 184.29568 
L 227.899964 184.411764 
L 228.08579 184.502052 
L 228.210742 184.672954 
L 228.215547 184.943817 
L 228.092198 185.177598 
L 227.893556 185.363011 
L 227.659672 185.485544 
L 227.456225 185.272723 
L 227.118214 185.501667 
L 226.451805 186.162703 
L 226.461416 185.835409 
L 226.668067 185.363011 
L 226.720932 185.140516 
L 226.586368 184.974451 
L 226.273989 184.921245 
L 225.657239 184.943817 
L 225.730929 185.282397 
L 225.343258 185.245314 
L 224.503838 184.943817 
L 223.265534 185.080861 
L 222.823396 185.079249 
L 222.145773 184.895449 
L 221.458538 184.59234 
L 220.704022 184.365008 
L 219.842174 184.40209 
L 219.07324 184.521399 
L 218.426054 184.524624 
L 218.352364 184.385967 
L 218.640715 184.079634 
L 219.303921 183.591112 
L 219.776495 183.350882 
L 219.97033 183.131611 
L 220.002369 182.854299 
L 219.987952 182.435105 
L 219.843776 182.235182 
L 218.901832 181.685394 
L 218.294694 180.313341 
L 218.229015 179.723246 
L 218.397219 179.255684 
L 218.810521 178.923554 
L 219.339163 178.736529 
L 219.842174 178.707508 
L 220.989168 179.305665 
L 221.650772 179.487853 
L 221.908685 179.72647 
L 222.273929 180.195645 
L 222.805775 180.558408 
" clip-path="url(#p0314f0461d)" style="fill: none; stroke: #000000; stroke-width: 2"/>
    <path d="M 217.086827 179.229887 
L 217.152507 179.384666 
L 217.176536 179.378217 
L 217.343138 179.581365 
L 217.383187 179.682939 
L 217.317507 179.758716 
L 217.219788 179.828044 
L 217.152507 179.926393 
L 217.054788 180.239176 
L 216.729593 180.964704 
L 216.537359 181.21622 
L 216.489301 181.354876 
L 216.662311 181.404857 
L 217.00673 181.41453 
L 217.017943 181.596718 
L 216.989108 181.73215 
L 216.88338 181.956257 
L 216.537359 182.314184 
L 216.037552 182.309347 
L 215.488085 182.096526 
L 215.001093 181.832112 
L 214.961044 181.883705 
L 214.946627 181.899827 
L 214.9242 181.917563 
L 214.844102 181.956257 
L 214.863326 181.656373 
L 214.840898 181.348427 
L 214.738374 181.106584 
L 214.520509 181.008235 
L 214.206528 180.964704 
L 213.447205 180.737372 
L 213.269389 180.648696 
L 213.144437 180.437487 
L 213.033903 180.194032 
L 212.905747 179.992497 
L 212.136813 179.333073 
L 212.021473 179.170233 
L 212.034289 178.522095 
L 212.111182 177.949735 
L 212.309823 177.420906 
L 212.692688 176.925935 
L 213.149243 176.518028 
L 213.629827 176.214919 
L 214.113615 176.09561 
L 214.587791 176.248777 
L 215.63226 176.808239 
L 216.100028 177.158104 
L 216.470078 177.61438 
L 216.835321 178.4834 
L 216.920225 178.955799 
L 217.086827 179.229887 
" clip-path="url(#p0314f0461d)" style="fill: none; stroke: #000000; stroke-width: 2"/>
    <path d="M 258.543222 171.01656 
L 259.454229 171.946737 
L 261.058255 171.797554 
L 261.91648 171.885819 
L 262.408706 172.024059 
L 263.127678 172.137023 
L 263.745593 172.024179 
L 264.098699 172.036652 
L 264.514848 172.036781 
L 264.893133 172.087147 
L 265.183185 172.224699 
L 265.359802 172.487836 
L 265.59938 172.575524 
L 265.952719 173.18935 
L 266.305916 173.402395 
L 266.949259 173.590036 
L 267.327323 173.401856 
L 267.794086 173.677254 
L 267.983985 173.89019 
L 267.933198 174.391551 
L 268.413458 174.554267 
L 268.855623 174.817244 
L 269.182119 174.971849 
L 268.86867 175.205915 
L 268.73037 175.431349 
L 268.83158 175.557177 
L 268.755954 175.670089 
L 268.667722 175.833153 
L 268.465586 175.895868 
L 268.263145 175.782948 
L 268.111152 175.619859 
L 267.870884 175.481916 
L 267.744859 175.582285 
L 267.555999 175.82066 
L 267.606835 175.971228 
L 267.973774 176.247365 
L 268.353244 176.560989 
L 268.467362 176.887152 
L 268.303409 177.100485 
L 268.177092 177.113051 
L 268.075658 176.811954 
L 267.81012 176.536043 
L 267.406039 176.548666 
L 266.8636 176.975337 
L 266.080939 177.050654 
L 265.689729 177.163644 
L 265.550815 177.03818 
L 265.235316 177.063375 
L 265.071147 176.774944 
L 264.768195 176.423883 
L 264.490573 176.298579 
L 264.200922 176.046009 
L 264.049364 175.783606 
L 263.910144 175.60911 
L 263.7966 175.85987 
L 263.569613 176.060307 
L 263.620987 176.359402 
L 264.086812 176.449152 
L 264.061551 176.812985 
L 263.746003 177.176838 
L 263.443369 176.612041 
L 263.051953 176.449463 
L 262.497128 176.248464 
L 262.168479 176.060915 
L 261.941312 175.634664 
L 262.067656 175.346259 
L 262.496723 175.684736 
L 262.951729 175.709129 
L 262.841615 175.416839 
L 262.947344 175.234651 
L 263.086713 175.144363 
L 263.213267 175.126628 
L 263.322199 175.078259 
L 263.128197 174.882078 
L 262.976714 174.78188 
L 262.749556 174.669121 
L 262.345683 174.468607 
L 261.777861 174.004736 
L 261.336156 173.691227 
L 261.03347 173.377725 
L 260.540563 173.565556 
L 260.363858 173.452627 
L 260.123795 173.226763 
L 259.8078 173.025846 
L 259.226484 172.787063 
L 258.543809 172.911976 
L 258.404529 172.748661 
L 259.097867 172.474423 
L 259.097867 172.326093 
L 258.998802 172.021403 
L 258.568721 171.54391 
L 258.151027 171.329813 
L 257.644783 171.668041 
L 257.61945 172.019563 
L 257.67012 172.38373 
L 257.682631 173.162027 
L 257.669882 173.400499 
L 257.555726 173.676533 
L 257.366123 172.684636 
L 256.910045 171.842631 
L 257.226797 171.441285 
L 258.163589 170.928023 
L 258.543222 171.01656 
" clip-path="url(#p0314f0461d)" style="fill: none; stroke: #000000; stroke-width: 2"/>
    <path d="M 88.110932 162.723337 
L 87.768115 162.870055 
L 87.502192 162.658846 
L 87.457337 162.375084 
L 87.692824 162.192896 
L 87.909086 162.126793 
L 88.040446 162.042954 
L 88.15899 162.020382 
L 88.280738 162.105833 
L 88.296757 162.300919 
L 88.110932 162.723337 
" clip-path="url(#p0314f0461d)" style="fill: none; stroke: #000000; stroke-width: 2"/>
    <path d="M 232.132306 160.601573 
L 232.100267 160.625758 
L 232.045801 160.624145 
L 231.984927 160.645105 
L 231.959296 161.602801 
L 231.877597 162.007484 
L 231.719004 162.404105 
L 232.311724 163.055468 
L 232.298908 163.906753 
L 231.656528 166.681491 
L 231.610071 167.205483 
L 231.791091 167.434427 
L 232.071432 167.592431 
L 232.298908 167.963256 
L 232.420656 168.376 
L 232.388617 168.662987 
L 232.164345 168.421144 
L 231.58444 167.434427 
L 230.469486 166.725023 
L 230.434243 166.608939 
L 230.52235 166.44771 
L 231.478712 165.15466 
L 231.920849 164.127636 
L 231.984927 163.755198 
L 231.927257 163.677809 
L 231.58444 163.348903 
L 231.337741 163.178001 
L 231.167934 163.107061 
L 230.030553 163.010324 
L 229.69094 162.855544 
L 229.556376 162.471821 
L 229.907203 161.989749 
L 229.969679 161.794662 
L 230.011329 161.55282 
L 230.117058 161.356122 
L 230.434243 160.988521 
L 230.777059 160.717658 
L 231.199973 160.575777 
L 232.11949 160.509673 
L 232.132306 160.601573 
" clip-path="url(#p0314f0461d)" style="fill: none; stroke: #000000; stroke-width: 2"/>
    <path d="M 84.742039 166.592816 
L 84.477717 166.676654 
L 84.243833 166.507365 
L 84.146115 166.141377 
L 84.022765 165.860839 
L 83.723201 165.665753 
L 81.424408 164.582299 
L 80.979067 164.242108 
L 80.754794 164.137309 
L 80.46324 164.084104 
L 80.213337 164.006714 
L 80.104404 163.829363 
L 79.98586 163.566561 
L 78.753964 162.542762 
L 77.647019 162.236428 
L 77.12158 162.009096 
L 76.910123 161.823684 
L 76.451967 161.18522 
L 76.221287 160.99497 
L 75.807984 160.722495 
L 75.618955 160.509673 
L 75.916917 160.475815 
L 76.179636 160.411324 
L 76.410316 160.430671 
L 77.1376 161.259385 
L 77.432358 161.49639 
L 79.172072 161.88495 
L 80.82528 162.47827 
L 81.253 162.539537 
L 81.445233 162.613702 
L 81.581399 162.794278 
L 81.783244 163.152205 
L 83.670337 164.716119 
L 84.074027 164.848326 
L 84.482523 164.978921 
L 84.782087 165.307826 
L 84.945486 165.744755 
L 84.942282 166.202643 
L 84.742039 166.592816 
" clip-path="url(#p0314f0461d)" style="fill: none; stroke: #000000; stroke-width: 2"/>
    <path d="M 79.290616 159.489098 
L 79.444402 159.561651 
L 79.68149 159.561651 
L 80.303046 159.427832 
L 81.632661 159.408484 
L 83.391598 159.610019 
L 83.609463 159.759962 
L 83.625482 160.258157 
L 83.684754 160.543531 
L 84.001939 161.062686 
L 84.134901 161.362571 
L 84.11728 161.617311 
L 83.929852 161.786601 
L 83.550191 161.84948 
L 82.532955 161.825296 
L 82.132468 161.738233 
L 81.190524 161.283569 
L 80.860523 160.904682 
L 80.436007 160.785374 
L 79.56615 160.645105 
L 79.14644 160.42261 
L 78.600177 160.014702 
L 78.33105 159.580998 
L 78.749158 159.290788 
L 79.013479 159.282726 
L 79.172072 159.373014 
L 79.290616 159.489098 
" clip-path="url(#p0314f0461d)" style="fill: none; stroke: #000000; stroke-width: 2"/>
    <path d="M 85.462914 160.556429 
L 85.241846 160.685412 
L 84.858981 160.643493 
L 84.415242 160.375854 
L 83.708783 159.571325 
L 82.744412 159.140845 
L 82.936645 158.866757 
L 83.901017 158.795817 
L 84.655534 158.95382 
L 85.028787 159.234358 
L 85.259467 159.58906 
L 85.371603 159.943762 
L 85.41005 160.122725 
L 85.515779 160.382303 
L 85.462914 160.556429 
" clip-path="url(#p0314f0461d)" style="fill: none; stroke: #000000; stroke-width: 2"/>
    <path d="M 85.645536 155.248795 
L 85.221021 155.522883 
L 84.573834 155.469678 
L 84.179755 154.956972 
L 83.896211 154.400734 
L 84.170144 154.086339 
L 84.708398 154.165341 
L 84.972719 154.271752 
L 85.147331 154.371713 
L 85.480536 154.603882 
L 85.682381 154.91344 
L 85.645536 155.248795 
" clip-path="url(#p0314f0461d)" style="fill: none; stroke: #000000; stroke-width: 2"/>
    <path d="M 85.82976 154.007337 
L 85.688789 154.191137 
L 85.403642 154.055706 
L 84.862185 153.884804 
L 84.048396 153.825149 
L 83.550191 153.565572 
L 83.394802 153.217319 
L 83.20417 152.799737 
L 83.471695 152.567569 
L 84.155726 152.604651 
L 85.011166 152.991599 
L 85.397235 153.272136 
L 85.608692 153.520428 
L 85.82976 154.007337 
" clip-path="url(#p0314f0461d)" style="fill: none; stroke: #000000; stroke-width: 2"/>
    <path d="M 167.147755 102.440088 
L 167.243872 102.54005 
L 167.304746 102.467497 
L 167.368824 102.440088 
L 167.436105 102.430414 
L 167.512999 102.407842 
L 167.743679 102.612602 
L 168.182612 103.123696 
L 168.451739 103.35264 
L 168.738488 103.492909 
L 169.528247 103.623504 
L 170.031258 103.829876 
L 170.535871 104.110413 
L 171.489029 104.77951 
L 171.929564 105.284155 
L 172.046507 105.80331 
L 171.852671 107.567147 
L 171.420146 108.537741 
L 171.287184 109.056896 
L 171.083737 108.966608 
L 171.005242 108.910178 
L 171.016455 109.04561 
L 170.998834 109.318086 
L 171.005242 109.451905 
L 170.8066 109.413211 
L 170.643202 109.451905 
L 170.492619 109.563153 
L 170.34524 109.734055 
L 170.247521 109.480927 
L 170.191453 108.815054 
L 170.076113 108.505495 
L 169.911112 108.347492 
L 169.675626 108.23302 
L 169.124557 108.0992 
L 168.469361 108.039546 
L 168.18101 107.902502 
L 167.913485 107.557473 
L 167.862223 107.418817 
L 167.778922 107.00446 
L 167.66198 106.831946 
L 166.920279 106.193482 
L 166.686394 105.91617 
L 166.289112 105.258358 
L 165.97513 104.890758 
L 165.898237 104.716631 
L 165.898237 104.555403 
L 166.019985 104.042697 
L 165.941489 103.097899 
L 166.019985 102.814138 
L 166.228238 102.583581 
L 166.724841 102.494906 
L 166.974745 102.259512 
L 167.022803 102.361086 
L 167.077269 102.401393 
L 167.147755 102.440088 
" clip-path="url(#p0314f0461d)" style="fill: none; stroke: #000000; stroke-width: 2"/>
    <path d="M 304.589936 102.351413 
L 304.964792 102.946345 
L 305.3012 102.885078 
L 305.668046 103.075327 
L 305.991639 103.401009 
L 306.187077 103.758935 
L 306.456204 103.494521 
L 306.642029 103.517093 
L 306.847078 103.35264 
L 307.353293 103.491296 
L 308.876744 103.570298 
L 308.742181 103.894367 
L 308.952036 104.015288 
L 309.290046 103.623504 
L 309.679319 103.710567 
L 309.618445 104.436094 
L 310.08301 104.571526 
L 310.284855 105.272869 
L 310.787866 105.858127 
L 311.51515 107.215669 
L 312.063015 107.754172 
L 312.096656 107.944421 
L 311.990928 108.640927 
L 312.146317 108.969833 
L 312.514764 110.004918 
L 312.817532 109.911406 
L 313.805933 110.275782 
L 315.162781 111.646222 
L 315.484773 111.628487 
L 315.604919 111.73651 
L 316.263318 112.702267 
L 316.548465 113.950174 
L 317.214874 115.299655 
L 318.320217 116.387945 
L 318.757549 116.192859 
L 318.930559 115.98165 
L 319.161239 116.125143 
L 319.512065 116.76522 
L 319.944591 116.940958 
L 320.431583 116.881304 
L 320.883331 116.117082 
L 320.852894 116.515316 
L 321.017895 116.658809 
L 320.944205 116.881304 
L 321.419983 117.360152 
L 321.774013 117.921226 
L 322.366734 118.1147 
L 323.542562 119.570591 
L 324.324312 119.810822 
L 324.631886 120.230015 
L 325.051595 121.136118 
L 326.360386 122.835464 
L 326.523784 123.802834 
L 326.408444 124.392929 
L 326.688785 125.278072 
L 326.804125 125.718225 
L 327.287912 126.488896 
L 327.36 126.988704 
L 327.230242 127.44498 
L 326.624707 128.305939 
L 326.27388 128.61066 
L 326.51257 127.207975 
L 326.341162 126.988704 
L 326.177764 127.18379 
L 325.601063 128.46233 
L 325.115673 127.907705 
L 324.385186 128.078607 
L 323.180522 129.016956 
L 322.443627 129.87469 
L 321.815664 129.91016 
L 321.21974 129.681216 
L 320.335466 129.681216 
L 318.621383 129.207205 
L 317.109146 128.46233 
L 316.090308 127.665863 
L 315.768317 127.575575 
L 315.417491 127.359529 
L 314.629333 126.614655 
L 314.384235 126.182563 
L 312.000539 123.56744 
L 311.721801 123.041836 
L 312.232822 123.083755 
L 312.393016 123.177268 
L 312.740639 122.503334 
L 312.937678 121.584333 
L 313.000154 120.613738 
L 312.932872 119.781801 
L 312.543599 118.864412 
L 311.890005 118.361379 
L 309.929223 117.776121 
L 309.217959 117.382724 
L 308.779026 117.008674 
L 308.135043 116.718463 
L 307.894751 116.405681 
L 307.809848 115.98165 
L 307.519896 115.170672 
L 306.983244 114.509636 
L 306.050911 114.087218 
L 305.493434 113.43908 
L 304.7245 112.886068 
L 304.416926 112.373362 
L 304.245518 112.094437 
L 303.508622 111.549485 
L 303.321195 110.933593 
L 303.217068 110.343498 
L 303.425321 109.964611 
L 303.460564 109.734055 
L 303.369253 109.308412 
L 303.15299 108.977894 
L 302.512212 108.260429 
L 302.412891 107.963769 
L 302.46095 107.786417 
L 302.80697 106.965766 
L 303.22668 104.507034 
L 302.947941 104.042697 
L 303.082505 103.894367 
L 303.599933 104.294213 
L 303.742507 104.165231 
L 303.793769 103.841162 
L 303.23469 102.562622 
L 302.377648 101.724235 
L 302.412891 101.31149 
L 303.061679 101.224427 
L 303.873866 101.674254 
L 304.589936 102.351413 
L 304.589936 102.351413 
" clip-path="url(#p0314f0461d)" style="fill: none; stroke: #000000; stroke-width: 2"/>
    <path d="M 173.436996 101.646845 
L 172.900344 101.988649 
L 172.318837 101.817747 
L 172.024079 101.263122 
L 172.064128 100.629495 
L 172.496653 100.231261 
L 173.02049 100.532758 
L 173.404957 101.084158 
L 173.436996 101.646845 
" clip-path="url(#p0314f0461d)" style="fill: none; stroke: #000000; stroke-width: 2"/>
    <path d="M 163.58823 99.134909 
L 163.408812 99.476713 
L 163.211773 99.650839 
L 162.64949 99.960397 
L 162.245799 99.405772 
L 162.191333 99.396098 
L 162.011915 99.41867 
L 161.963857 99.405772 
L 161.944634 99.318709 
L 161.952643 99.236482 
L 161.952643 99.157481 
L 161.902983 99.073642 
L 161.899779 98.868882 
L 162.143275 98.656061 
L 162.486091 98.496445 
L 162.784053 98.460974 
L 163.139685 98.506118 
L 163.303084 98.693143 
L 163.405609 98.931761 
L 163.58823 99.134909 
" clip-path="url(#p0314f0461d)" style="fill: none; stroke: #000000; stroke-width: 2"/>
    <path d="M 155.232479 101.176058 
L 155.072284 101.29698 
L 154.960148 101.267959 
L 154.849614 101.192181 
L 154.695827 101.176058 
L 154.48437 101.263122 
L 154.023009 101.582354 
L 153.34058 101.553333 
L 152.787909 101.166385 
L 151.983732 100.231261 
L 151.253244 99.691146 
L 151.041788 99.405772 
L 150.937661 99.099438 
L 150.923243 98.75441 
L 151.041788 98.054679 
L 151.19237 97.60324 
L 151.378196 97.435563 
L 152.118295 97.22919 
L 152.413053 97.029267 
L 152.711015 96.771302 
L 153.05223 96.571379 
L 153.473542 96.552032 
L 154.152767 97.300131 
L 154.4267 97.512952 
L 154.88806 97.727386 
L 154.950536 97.838633 
L 154.963352 98.11917 
L 155.005002 98.593182 
L 155.133158 99.057519 
L 155.344615 99.447691 
L 155.636169 99.689534 
L 155.636169 99.812067 
L 155.344615 100.116789 
L 155.291751 100.503737 
L 155.310974 100.885848 
L 155.232479 101.176058 
" clip-path="url(#p0314f0461d)" style="fill: none; stroke: #000000; stroke-width: 2"/>
    <path d="M 302.278328 94.930075 
L 302.15658 95.539518 
L 302.153376 95.839403 
L 302.278328 96.148961 
L 302.464154 96.332761 
L 302.662795 96.448846 
L 302.839009 96.616523 
L 302.947941 96.958327 
L 302.92231 97.56777 
L 302.412891 99.405772 
L 302.364833 100.69721 
L 302.187017 101.237325 
L 301.740074 101.45982 
L 301.861822 101.040627 
L 301.562258 101.142201 
L 301.427694 101.384043 
L 301.312354 101.662968 
L 301.067256 101.866115 
L 300.718032 100.492451 
L 299.926671 98.530303 
L 299.846573 97.986963 
L 299.69599 97.519401 
L 299.69599 97.234027 
L 299.913855 97.106657 
L 300.048419 96.958327 
L 300.109293 96.624584 
L 300.099681 95.550804 
L 300.00036 95.139672 
L 299.716816 95.052609 
L 299.173756 95.494374 
L 299.289096 94.817216 
L 299.747253 94.085239 
L 300.355992 93.443551 
L 300.919877 93.035643 
L 301.56386 93.161401 
L 301.996385 93.693455 
L 302.227065 94.369001 
L 302.278328 94.930075 
" clip-path="url(#p0314f0461d)" style="fill: none; stroke: #000000; stroke-width: 2"/>
    <path d="M 233.433086 91.815145 
L 232.942891 91.903821 
L 232.590463 91.847391 
L 232.430268 91.715184 
L 232.164345 91.545894 
L 231.927257 91.299215 
L 231.968907 91.070271 
L 232.260462 90.81553 
L 232.406239 90.712344 
L 232.72823 90.55434 
L 233.030998 90.534993 
L 233.285707 90.622056 
L 233.626922 90.820367 
L 233.97134 91.154109 
L 233.97134 91.449157 
L 233.646145 91.731307 
L 233.433086 91.815145 
" clip-path="url(#p0314f0461d)" style="fill: none; stroke: #000000; stroke-width: 2"/>
    <path d="M 193.701616 90.673649 
L 193.278702 91.265357 
L 193.022391 91.139599 
L 192.756468 90.96386 
L 192.580253 90.734916 
L 192.605885 90.454379 
L 192.758069 90.341519 
L 193.536615 90.046471 
L 193.757684 90.376989 
L 193.701616 90.673649 
" clip-path="url(#p0314f0461d)" style="fill: none; stroke: #000000; stroke-width: 2"/>
    <path d="M 136.337523 89.224207 
L 136.345533 89.506356 
L 136.212571 89.446702 
L 136.087619 89.359639 
L 136.060386 89.437028 
L 136.06359 89.48056 
L 136.041163 89.499907 
L 135.941842 89.506356 
L 136.020338 89.844936 
L 135.723978 89.864283 
L 135.337909 89.651462 
L 135.145675 89.29676 
L 135.193733 88.990426 
L 135.337909 88.721175 
L 135.58621 88.556722 
L 135.941842 88.558334 
L 136.233396 88.992038 
L 136.337523 89.224207 
" clip-path="url(#p0314f0461d)" style="fill: none; stroke: #000000; stroke-width: 2"/>
    <path d="M 201.0145 86.030275 
L 201.264404 86.28824 
L 201.36853 86.581676 
L 201.346103 86.912194 
L 201.304453 87.081483 
L 201.233967 87.183057 
L 201.062559 87.221752 
L 200.990471 87.123403 
L 200.952024 86.971848 
L 200.89916 86.849315 
L 200.750179 86.639718 
L 200.66047 86.409161 
L 200.538722 86.210851 
L 200.293625 86.101215 
L 200.000468 86.159258 
L 199.899546 86.360793 
L 199.995663 86.568777 
L 200.293625 86.652616 
L 200.170275 86.817069 
L 200.013284 86.910581 
L 199.620807 87.058911 
L 199.154641 86.678413 
L 199.372505 86.243096 
L 199.918769 85.877108 
L 200.428188 85.707818 
L 200.705325 85.827127 
L 201.0145 86.030275 
" clip-path="url(#p0314f0461d)" style="fill: none; stroke: #000000; stroke-width: 2"/>
    <path d="M 130.459982 87.913421 
L 129.955369 88.034342 
L 129.671825 87.913421 
L 129.031046 87.323326 
L 128.92692 87.183057 
L 128.773133 86.88156 
L 128.705851 86.565553 
L 128.717065 86.220524 
L 128.80357 85.82874 
L 129.09993 85.006475 
L 129.311387 84.658222 
L 130.283768 83.637647 
L 130.666633 83.439337 
L 131.089547 83.544135 
L 131.368286 83.776304 
L 132.098773 84.551812 
L 132.2029 84.850084 
L 132.247754 85.345055 
L 132.238143 86.0335 
L 132.142026 86.188279 
L 132.074744 86.410774 
L 132.031492 86.849315 
L 131.933773 87.07181 
L 131.714306 87.252385 
L 130.988625 87.705437 
L 130.459982 87.913421 
" clip-path="url(#p0314f0461d)" style="fill: none; stroke: #000000; stroke-width: 2"/>
    <path d="M 292.411941 82.164021 
L 292.967816 82.399414 
L 293.392332 82.84118 
L 293.631022 83.390968 
L 293.623012 83.95043 
L 293.2017 84.463136 
L 292.669854 84.290622 
L 292.277377 83.777916 
L 292.277377 83.260373 
L 292.392718 83.457072 
L 292.556116 83.903674 
L 292.681068 84.072964 
L 292.900535 84.21162 
L 293.035098 84.193885 
L 293.291409 83.882714 
L 293.392332 83.418377 
L 293.084758 82.936305 
L 292.631408 82.539683 
L 292.277377 82.312351 
L 292.248542 82.338148 
L 292.227717 82.370393 
L 292.195678 82.409088 
L 292.142814 82.447783 
L 292.162037 82.309127 
L 292.224513 82.244635 
L 292.411941 82.164021 
" clip-path="url(#p0314f0461d)" style="fill: none; stroke: #000000; stroke-width: 2"/>
    <path d="M 291.743929 81.638417 
L 291.609366 81.638417 
L 291.518055 81.225673 
L 291.349851 80.788744 
L 291.277763 80.43243 
L 291.478006 80.271201 
L 291.606162 80.464675 
L 291.691065 80.8355 
L 291.743929 81.638417 
" clip-path="url(#p0314f0461d)" style="fill: none; stroke: #000000; stroke-width: 2"/>
    <path d="M 253.854697 76.730629 
L 254.053338 77.775388 
L 253.652852 77.828593 
L 253.172268 77.688324 
L 252.970423 77.122413 
L 252.755762 77.136924 
L 252.646829 77.323949 
L 252.76217 78.839494 
L 252.915956 79.071663 
L 253.41256 79.145828 
L 253.723337 78.991049 
L 254.130232 79.173237 
L 254.441009 79.523102 
L 254.710136 79.597267 
L 256.27684 79.732699 
L 257.377377 79.484407 
L 257.487911 79.800415 
L 257.420629 80.100299 
L 256.44985 82.312351 
L 256.363345 82.994347 
L 256.531549 83.663444 
L 257.113056 84.895228 
L 257.329318 85.665899 
L 257.362959 86.505898 
L 256.866356 88.634112 
L 255.397371 90.734916 
L 255.320478 90.831653 
L 254.860719 91.605548 
L 254.514699 91.81837 
L 253.835474 92.435874 
L 252.975228 92.550346 
L 252.364887 92.756718 
L 251.951585 92.753494 
L 250.024443 92.347199 
L 249.803375 92.527774 
L 249.11614 92.211767 
L 248.755702 92.456834 
L 248.648372 92.869578 
L 248.818178 95.715257 
L 249.023227 96.019978 
L 250.139784 96.964776 
L 250.283959 97.30658 
L 250.865465 97.512952 
L 251.682458 98.531915 
L 251.775371 98.876943 
L 252.163042 99.621818 
L 252.220712 100.095829 
L 251.20668 101.800012 
L 250.593134 101.866115 
L 249.51983 102.472334 
L 248.542643 103.401009 
L 247.905069 103.488072 
L 246.716425 103.908878 
L 245.997151 104.51832 
L 245.476518 104.571526 
L 245.047197 104.358704 
L 244.130883 103.35264 
L 243.267434 103.212371 
L 242.78685 103.262352 
L 242.445636 103.420356 
L 241.977868 104.07333 
L 241.766411 104.165231 
L 241.516507 104.102351 
L 241.364322 103.555788 
L 241.00869 103.376824 
L 238.711499 103.355865 
L 238.461596 103.623504 
L 238.34145 104.052371 
L 238.730723 104.914942 
L 238.828441 104.98427 
L 239.46922 105.058435 
L 240.013881 105.592101 
L 240.058736 105.940354 
L 239.720725 106.274096 
L 239.203297 106.45306 
L 238.730723 106.341812 
L 238.067517 106.786802 
L 237.644603 107.351101 
L 237.514845 108.128221 
L 237.183242 108.708643 
L 236.310182 109.451905 
L 235.40348 109.769525 
L 235.22246 109.734055 
L 234.953333 110.079083 
L 233.881631 110.952941 
L 233.679786 111.449524 
L 233.035804 111.862268 
L 232.952502 111.628487 
L 231.286478 112.300809 
L 230.777059 113.164992 
L 230.165116 113.223035 
L 229.030938 112.99409 
L 227.393749 113.461652 
L 227.220739 113.65029 
L 226.833068 113.447142 
L 226.06093 112.858659 
L 225.775783 113.539042 
L 225.961609 113.993706 
L 225.561123 114.965912 
L 225.340054 115.102956 
L 224.986024 115.170672 
L 224.303595 115.439923 
L 223.420922 115.638234 
L 223.102135 115.807524 
L 222.890678 115.502802 
L 222.602328 115.496353 
L 221.812568 116.005835 
L 221.516208 116.225105 
L 221.466548 116.117082 
L 220.335574 117.095738 
L 219.74766 117.321457 
L 219.046007 118.011514 
L 217.673139 118.303337 
L 216.912215 118.196927 
L 216.537359 118.417809 
L 216.215368 118.166293 
L 216.056776 118.254969 
L 214.747985 118.466178 
L 214.392353 118.350094 
L 214.087984 117.9309 
L 213.107592 117.727752 
L 211.925356 118.579038 
L 211.50885 118.395237 
L 211.356665 117.908328 
L 210.823217 117.789019 
L 210.635789 118.175967 
L 210.409915 118.282378 
L 210.643799 118.485525 
L 210.621372 118.678999 
L 210.127972 118.946638 
L 210.193652 118.656427 
L 210.108749 118.351706 
L 209.922923 118.109863 
L 209.669816 118.011514 
L 209.054668 118.196927 
L 208.381851 118.688673 
L 208.146365 118.424259 
L 207.761898 118.401687 
L 206.91607 118.417809 
L 206.406651 118.327522 
L 204.397811 118.342032 
L 203.800285 118.688673 
L 203.018535 118.574201 
L 202.714165 118.688673 
L 202.595621 118.511322 
L 201.634454 117.730977 
L 200.947219 116.465335 
L 199.814643 114.961075 
L 199.340467 114.616047 
L 197.45818 114.087218 
L 196.852644 113.727679 
L 196.516235 113.669637 
L 196.194244 113.745414 
L 195.497398 114.211364 
L 194.550647 114.482227 
L 193.695208 114.383878 
L 193.413265 114.211364 
L 193.45812 114.496738 
L 193.192197 115.222265 
L 192.998361 115.439923 
L 192.724429 115.538273 
L 191.792096 115.652745 
L 191.247434 115.786564 
L 191.250638 115.439923 
L 191.420444 115.348023 
L 191.792096 115.343186 
L 191.654328 115.03524 
L 191.782484 114.762765 
L 191.647921 114.383878 
L 191.31792 114.058197 
L 190.859763 113.9405 
L 191.394813 113.065031 
L 191.250638 112.711941 
L 191.095249 113.098889 
L 190.923841 113.137584 
L 190.718792 113.065031 
L 190.443257 113.129522 
L 188.120435 112.297584 
L 187.611016 112.441078 
L 187.329074 112.1815 
L 187.697521 111.720387 
L 187.880143 111.628487 
L 187.63024 111.420503 
L 187.329074 111.357624 
L 187.000675 110.952941 
L 186.12441 110.970676 
L 185.861691 111.222192 
L 185.717516 111.08676 
L 185.855283 110.794937 
L 185.717516 110.072634 
L 185.568535 109.863038 
L 184.775571 109.798546 
L 184.655425 109.563153 
L 184.371881 109.529295 
L 183.820811 109.587337 
L 183.497218 109.422884 
L 182.747507 108.776359 
L 182.004204 109.372904 
L 181.744689 109.451905 
L 181.377843 109.353556 
L 180.464734 108.640927 
L 178.124291 108.126609 
L 178.03298 107.896053 
L 177.345745 107.154403 
L 176.99652 106.317628 
L 176.913219 105.57759 
L 177.254434 103.336517 
L 177.602056 102.633562 
L 178.133902 102.05314 
L 178.984536 101.582354 
L 179.530799 101.820972 
L 180.147549 102.283697 
L 180.664977 102.472334 
L 180.863619 102.994713 
L 180.945318 103.149492 
L 181.47396 103.468724 
L 182.055467 103.355865 
L 182.619352 102.972141 
L 183.353043 102.298207 
L 183.618966 102.320779 
L 184.224502 102.54005 
L 185.166446 102.54005 
L 186.118002 103.217208 
L 187.207326 103.488072 
L 187.361113 103.115635 
L 189.773644 101.988649 
L 191.295493 102.651297 
L 191.532581 102.881854 
L 191.875397 102.912487 
L 194.142151 103.968532 
L 194.622735 104.644078 
L 197.102548 104.365154 
L 197.592743 104.165231 
L 197.892307 104.407073 
L 198.142211 104.323234 
L 198.678863 103.894367 
L 199.024883 104.284539 
L 199.241146 104.310336 
L 199.35168 104.042697 
L 200.024498 104.436094 
L 200.221537 104.268417 
L 200.399353 103.736363 
L 200.990471 103.541277 
L 202.310475 102.946345 
L 202.505912 103.149492 
L 202.590815 103.217208 
L 202.864748 102.970529 
L 203.446255 102.902813 
L 203.499119 102.472334 
L 203.396594 102.259512 
L 203.531158 102.407842 
L 203.70577 102.443313 
L 203.82111 102.736748 
L 203.845139 103.117247 
L 203.652906 103.710567 
L 203.867567 103.904041 
L 204.34815 104.042697 
L 205.520775 103.550951 
L 205.812329 103.101124 
L 205.815533 102.814138 
L 205.950097 102.814138 
L 206.613302 103.202698 
L 207.387042 103.223657 
L 208.147967 102.975366 
L 208.987387 102.29337 
L 209.602534 101.108343 
L 209.535252 100.869725 
L 208.751901 100.444082 
L 208.247288 99.689534 
L 208.540444 99.073642 
L 208.756706 98.743124 
L 209.810787 97.957942 
L 210.174429 97.67418 
L 210.425934 97.011532 
L 210.236905 96.4166 
L 210.006225 96.284393 
L 210.102341 95.923241 
L 210.172827 95.574988 
L 210.409915 94.997791 
L 210.365061 94.883319 
L 210.127972 94.602782 
L 210.24972 94.36094 
L 210.578119 93.451612 
L 211.249335 93.011459 
L 212.106376 92.924396 
L 213.411962 93.388733 
L 213.78041 93.712802 
L 213.817255 94.169078 
L 213.64905 94.456064 
L 213.472836 94.801093 
L 213.057932 94.999404 
L 212.168852 95.212225 
L 211.81322 95.468578 
L 211.108364 96.358558 
L 211.44317 96.761628 
L 211.547297 97.741896 
L 211.496035 98.054679 
L 211.356665 98.172376 
L 210.810402 98.325543 
L 210.522051 98.618978 
L 210.967392 99.120398 
L 211.034674 99.563776 
L 211.539287 100.366693 
L 212.168852 101.79195 
L 212.277784 102.585193 
L 212.437979 103.007612 
L 212.692688 103.35264 
L 213.065942 103.600932 
L 213.47604 103.717016 
L 215.231773 103.937899 
L 215.595415 103.995941 
L 215.931824 103.894367 
L 216.671923 102.946345 
L 216.950661 102.839934 
L 218.224209 101.817747 
L 219.603484 101.635559 
L 219.967126 101.704887 
L 221.554655 102.419128 
L 221.735675 102.73836 
L 221.818976 103.114022 
L 222.044851 103.53644 
L 222.370046 103.800855 
L 224.044079 103.35264 
L 224.822625 102.622276 
L 224.986024 102.259512 
L 224.870684 102.007996 
L 224.928354 101.814522 
L 225.080539 101.743582 
L 225.240733 101.866115 
L 225.827046 101.553333 
L 226.370105 101.743582 
L 227.124622 102.54005 
L 227.941615 102.407842 
L 228.08579 102.288533 
L 228.406179 101.866115 
L 228.806666 101.761317 
L 229.572396 101.190569 
L 229.8223 100.905195 
L 230.012931 100.503737 
L 230.046572 100.087768 
L 230.008125 98.791492 
L 230.232398 97.8999 
L 230.745021 96.739057 
L 231.722208 95.400862 
L 232.387015 94.85591 
L 232.805123 94.670498 
L 233.167163 94.19165 
L 233.465125 93.991727 
L 234.338186 92.890538 
L 234.560856 92.847006 
L 234.551245 92.629348 
L 236.620959 91.711959 
L 236.723484 91.453994 
L 236.837222 90.859062 
L 236.971786 90.859062 
L 237.213679 91.07672 
L 239.268976 91.632957 
L 239.645434 91.495913 
L 240.087571 91.118639 
L 240.882136 91.53622 
L 241.631847 92.089233 
L 242.017916 91.998945 
L 242.575394 91.449157 
L 243.073599 90.438256 
L 243.269036 89.180675 
L 243.044764 89.025896 
L 242.988696 88.806626 
L 242.641073 88.140753 
L 242.604229 87.36202 
L 242.705151 85.762636 
L 242.517723 85.006475 
L 241.916994 84.079413 
L 241.833692 83.60379 
L 241.763207 82.355883 
L 241.308254 81.590048 
L 240.478446 80.812928 
L 240.369514 80.459838 
L 240.286212 79.826211 
L 239.80723 79.313505 
L 239.836065 78.941068 
L 239.941794 78.708899 
L 239.912959 78.510589 
L 239.562133 77.499687 
L 239.603783 77.180455 
L 240.210921 76.459765 
L 240.508883 76.572625 
L 241.595002 76.77416 
L 242.637869 76.793508 
L 243.190541 77.01439 
L 243.863358 76.948287 
L 243.861756 77.285254 
L 244.194961 77.074045 
L 244.58904 77.043411 
L 245.660742 77.19819 
L 246.56424 77.688324 
L 246.939095 79.003947 
L 247.309145 79.190972 
L 247.746476 79.265137 
L 248.56507 79.52149 
L 248.981577 79.461835 
L 249.23148 79.274811 
L 249.856239 78.439648 
L 249.971579 78.049476 
L 249.250703 77.136924 
L 249.430121 76.756425 
L 249.76653 76.801569 
L 250.525853 77.136924 
L 251.072116 77.017615 
L 251.243525 76.890244 
L 251.951585 77.01439 
L 252.201488 76.716118 
L 252.451392 75.901915 
L 252.903141 75.782606 
L 253.854697 76.730629 
L 253.854697 76.730629 
" clip-path="url(#p0314f0461d)" style="fill: none; stroke: #000000; stroke-width: 2"/>
    <path d="M 258.958498 77.136924 
L 258.838352 77.136924 
L 258.711798 77.088555 
L 258.263253 76.982145 
L 258.165534 76.946674 
L 258.154321 76.68226 
L 258.106262 76.472663 
L 257.98131 76.309823 
L 257.75063 76.188902 
L 258.256845 75.847098 
L 258.413836 75.661685 
L 258.569225 75.379536 
L 258.775876 75.57301 
L 258.838352 75.660073 
L 259.163547 76.000264 
L 259.224421 76.366253 
L 259.126702 76.746751 
L 258.958498 77.136924 
" clip-path="url(#p0314f0461d)" style="fill: none; stroke: #000000; stroke-width: 2"/>
    <path d="M 113.365614 74.044566 
L 113.556246 74.278347 
L 113.610712 74.586293 
L 113.556246 74.960342 
L 113.437702 75.263451 
L 113.248672 75.429516 
L 112.961924 75.498845 
L 112.543816 75.511743 
L 112.221824 75.392434 
L 112.037601 75.098998 
L 111.951095 74.7185 
L 111.933474 74.355736 
L 112.000756 74.112281 
L 112.154543 74.063913 
L 112.30032 74.112281 
L 112.346776 74.16065 
L 112.684787 73.881725 
L 112.832166 73.815621 
L 113.019594 73.891399 
L 113.365614 74.044566 
" clip-path="url(#p0314f0461d)" style="fill: none; stroke: #000000; stroke-width: 2"/>
    <path d="M 282.145067 74.747521 
L 281.875941 75.379536 
L 281.339289 75.534315 
L 280.810646 74.960342 
L 280.752976 74.926484 
L 280.674481 74.947444 
L 280.599189 74.944219 
L 280.552733 74.837809 
L 280.555937 74.703989 
L 280.597587 74.615314 
L 280.645646 74.5347 
L 280.777005 74.238039 
L 281.036521 73.922032 
L 281.089385 73.82852 
L 281.260793 73.612474 
L 281.618027 73.406102 
L 281.94963 73.396428 
L 282.031329 73.765641 
L 281.887154 73.891399 
L 282.145067 74.747521 
" clip-path="url(#p0314f0461d)" style="fill: none; stroke: #000000; stroke-width: 2"/>
    <path d="M 283.650897 73.254547 
L 283.622062 73.564105 
L 283.372158 73.765641 
L 283.106235 73.728558 
L 282.891574 73.557656 
L 282.656088 73.419 
L 282.308466 73.483491 
L 282.459049 73.283568 
L 282.891574 73.088482 
L 283.103031 72.943377 
L 283.473081 72.996582 
L 283.650897 73.254547 
" clip-path="url(#p0314f0461d)" style="fill: none; stroke: #000000; stroke-width: 2"/>
    <path d="M 103.983015 63.376091 
L 103.861267 63.442195 
L 103.744325 63.406724 
L 103.590538 63.413174 
L 103.512043 63.397051 
L 103.441557 63.319661 
L 103.455975 63.168107 
L 103.598548 63.048798 
L 103.793985 63.103615 
L 103.960588 63.226149 
L 103.983015 63.376091 
" clip-path="url(#p0314f0461d)" style="fill: none; stroke: #000000; stroke-width: 2"/>
    <path d="M 274.042423 62.703769 
L 274.064851 63.032675 
L 273.909462 62.950448 
L 273.871015 62.955285 
L 273.861403 62.998817 
L 273.808539 63.032675 
L 273.55383 62.82469 
L 272.967517 62.619931 
L 272.719216 62.47805 
L 273.313538 62.026611 
L 273.539412 61.949221 
L 273.890239 62.403885 
L 274.042423 62.703769 
" clip-path="url(#p0314f0461d)" style="fill: none; stroke: #000000; stroke-width: 2"/>
    <path d="M 275.791749 60.986688 
L 275.70204 61.394596 
L 275.458544 61.049567 
L 275.077281 61.015709 
L 274.638347 61.110834 
L 274.21223 61.13663 
L 274.308346 60.909299 
L 274.471745 60.725498 
L 274.881843 60.449798 
L 275.399272 60.449798 
L 275.692428 60.649721 
L 275.791749 60.986688 
" clip-path="url(#p0314f0461d)" style="fill: none; stroke: #000000; stroke-width: 2"/>
    <path d="M 83.617472 60.649721 
L 83.289073 60.652946 
L 82.7348 60.430451 
L 82.608246 60.396593 
L 82.395187 60.299856 
L 82.081206 60.033829 
L 82.108439 59.854866 
L 82.228585 59.714597 
L 82.252614 59.495327 
L 82.391983 59.372793 
L 82.782858 59.424386 
L 83.295481 59.688801 
L 83.788881 60.056401 
L 83.913832 60.430451 
L 83.617472 60.649721 
" clip-path="url(#p0314f0461d)" style="fill: none; stroke: #000000; stroke-width: 2"/>
    <path d="M 303.154066 61.90131 
L 303.034392 62.277012 
L 302.486208 61.131198 
L 302.075545 60.076418 
L 301.344816 59.022464 
L 300.705696 57.922322 
L 299.518735 57.234957 
L 300.356947 57.337721 
L 300.986868 57.642534 
L 301.266559 58.344735 
L 301.732929 59.280957 
L 302.734945 60.94218 
L 303.154066 61.90131 
" clip-path="url(#p0314f0461d)" style="fill: none; stroke: #000000; stroke-width: 2"/>
    <path d="M 94.42995 57.705932 
L 94.049171 58.059513 
L 93.375326 57.883605 
L 92.994343 57.413114 
L 93.228653 57.059764 
L 93.668167 56.882771 
L 94.166101 57.412045 
L 94.42995 57.705932 
" clip-path="url(#p0314f0461d)" style="fill: none; stroke: #000000; stroke-width: 2"/>
    <path d="M 262.123943 57.409033 
L 261.933312 57.596058 
L 261.736272 57.504158 
L 261.124329 57.005962 
L 260.991367 56.851183 
L 259.973372 55.740285 
L 259.805103 55.48576 
L 259.637489 55.083128 
L 259.723653 54.638764 
L 260.126634 54.279783 
L 260.572138 53.941966 
L 261.31495 53.858796 
L 262.067875 54.068383 
L 262.031031 55.161511 
L 262.067875 55.419476 
L 262.159186 55.538785 
L 262.394672 55.579092 
L 262.471566 55.69034 
L 262.482779 55.88865 
L 262.442731 56.061165 
L 262.337002 56.367498 
L 262.068164 57.017736 
L 262.123943 57.409033 
" clip-path="url(#p0314f0461d)" style="fill: none; stroke: #000000; stroke-width: 2"/>
    <path d="M 229.243997 52.211034 
L 229.421813 52.309383 
L 229.642882 52.34969 
L 229.828707 52.327118 
L 229.976086 52.357751 
L 230.091426 52.565736 
L 229.753416 52.656024 
L 229.421813 52.836599 
L 229.300065 52.536715 
L 229.099822 52.472223 
L 228.600015 52.565736 
L 227.734964 52.565736 
L 226.759378 52.346465 
L 226.326853 52.357751 
L 226.06093 52.704392 
L 225.759764 52.58992 
L 225.581948 52.652799 
L 225.423355 52.77372 
L 225.179859 52.836599 
L 225.043694 52.743087 
L 225.208694 52.523816 
L 225.657239 52.162665 
L 225.961609 52.227156 
L 226.427775 51.922435 
L 227.259186 51.225929 
L 228.441422 51.627387 
L 228.883559 51.891802 
L 229.243997 52.211034 
" clip-path="url(#p0314f0461d)" style="fill: none; stroke: #000000; stroke-width: 2"/>
    <path d="M 250.269541 53.052645 
L 249.75923 53.069665 
L 249.361582 52.498174 
L 249.110781 52.053677 
L 249.1341 51.355893 
L 249.05847 51.100171 
L 248.837401 51.030843 
L 248.619537 50.921207 
L 248.443323 50.674528 
L 248.577886 50.674528 
L 248.558663 50.403665 
L 248.707644 50.132801 
L 248.923906 50.034452 
L 249.11614 50.268233 
L 249.369247 50.708386 
L 249.728083 51.101783 
L 250.142885 51.359183 
L 250.668426 51.496792 
L 250.793713 51.741038 
L 250.812659 52.290862 
L 250.495784 52.607348 
L 250.269541 53.052645 
" clip-path="url(#p0314f0461d)" style="fill: none; stroke: #000000; stroke-width: 2"/>
    <path d="M 249.148179 49.237984 
L 249.250703 49.466928 
L 249.436529 49.350844 
L 249.51983 49.320211 
L 249.375655 49.589462 
L 249.005606 49.803896 
L 248.577886 49.944164 
L 247.834187 50.210833 
L 247.603445 50.062607 
L 247.605296 49.450316 
L 247.543584 48.962861 
L 247.46144 48.263274 
L 247.548279 47.310748 
L 247.99638 47.322593 
L 248.830994 47.61764 
L 248.981577 47.696642 
L 249.359636 48.038446 
L 249.452549 48.091651 
L 249.430121 48.270615 
L 249.48619 48.657563 
L 249.442937 49.038061 
L 249.11614 49.184779 
L 249.148179 49.237984 
" clip-path="url(#p0314f0461d)" style="fill: none; stroke: #000000; stroke-width: 2"/>
    <path d="M 249.587112 46.46647 
L 248.914295 46.46647 
L 248.476963 46.243975 
L 248.478565 45.752229 
L 248.779731 45.284667 
L 249.250703 45.113765 
L 249.563083 45.276606 
L 249.822598 45.600675 
L 249.984395 45.919907 
L 249.995608 46.061787 
L 249.933133 46.126279 
L 249.878666 46.264935 
L 249.78255 46.403591 
L 249.587112 46.46647 
" clip-path="url(#p0314f0461d)" style="fill: none; stroke: #000000; stroke-width: 2"/>
    <path d="M 35.11855 45.37173 
L 37.072924 45.829619 
L 37.433362 45.96505 
L 38.159044 46.061787 
L 38.559531 46.737334 
L 38.819046 46.63576 
L 39.386135 47.240366 
L 44.070226 49.067082 
L 48.501209 51.167887 
L 49.121162 51.283971 
L 49.276551 51.824086 
L 50.157621 52.430304 
L 50.553302 52.49802 
L 51.291799 52.357751 
L 52.618211 52.362588 
L 53.797243 53.513758 
L 53.649864 54.339247 
L 54.470061 54.474678 
L 55.118849 54.248959 
L 56.426037 54.880974 
L 57.167738 55.018018 
L 57.718808 55.284044 
L 60.182601 56.009572 
L 62.293966 57.031759 
L 70.257241 59.409876 
L 70.521562 59.448571 
L 71.093457 59.785538 
L 73.119919 60.201507 
L 74.568078 60.043503 
L 74.898079 60.178935 
L 76.442355 60.377245 
L 77.062308 60.720662 
L 77.3026 60.735172 
L 81.504505 61.480047 
L 82.7348 62.016937 
L 83.867376 63.153596 
L 84.146115 63.842041 
L 84.746844 64.174171 
L 85.568643 64.525649 
L 86.275101 64.287031 
L 86.316752 64.411177 
L 86.164567 64.654631 
L 86.550636 65.077049 
L 86.818161 65.177011 
L 87.894669 65.318892 
L 88.200641 65.463997 
L 88.931128 66.621616 
L 89.177828 66.80058 
L 90.741327 67.458391 
L 91.700893 68.861077 
L 92.205506 69.056163 
L 92.8591 69.094858 
L 95.069786 69.007795 
L 94.717358 69.267372 
L 94.265609 69.277046 
L 94.594008 69.630136 
L 95.30367 70.012247 
L 95.790662 69.74622 
L 96.079012 69.881652 
L 96.325712 70.30407 
L 96.697363 70.341152 
L 97.006539 69.884876 
L 97.27086 69.344762 
L 97.219598 69.141614 
L 97.882804 68.965875 
L 98.770282 68.957814 
L 99.65776 69.07551 
L 100.322568 69.277046 
L 100.580481 69.230289 
L 101.889271 69.344762 
L 102.381069 69.913897 
L 102.634176 70.642649 
L 102.634176 72.333934 
L 102.762332 72.551592 
L 103.417528 72.97401 
L 103.70748 73.090094 
L 106.158458 73.47543 
L 106.9338 73.765641 
L 107.798851 74.462147 
L 108.391571 74.6266 
L 109.029146 75.131244 
L 109.096427 75.31182 
L 109.045165 75.444027 
L 108.705552 75.660073 
L 108.695941 75.895466 
L 108.809679 76.15988 
L 109.054777 76.369477 
L 109.929439 76.527481 
L 110.270654 76.708057 
L 111.393618 77.688324 
L 111.4609 78.513813 
L 111.746046 78.678266 
L 112.470126 79.732699 
L 112.998768 80.024522 
L 115.036444 80.690395 
L 115.821398 80.682333 
L 117.508247 80.382449 
L 118.272375 80.690395 
L 119.079756 81.706133 
L 120.287624 82.718646 
L 121.162286 83.853693 
L 121.76622 84.537301 
L 122.181124 84.488933 
L 122.487096 84.832349 
L 122.905204 85.762636 
L 125.359385 88.448699 
L 126.038611 88.808238 
L 126.105892 88.893689 
L 126.775506 89.088775 
L 127.243274 89.64985 
L 127.448323 90.01745 
L 127.389051 90.181903 
L 127.163177 90.364091 
L 127.023808 90.786509 
L 126.927691 92.1505 
L 127.427498 94.088464 
L 127.195216 94.588271 
L 126.910069 97.512952 
L 126.206815 98.510955 
L 126.12832 99.099438 
L 126.237252 99.621818 
L 126.189194 99.866885 
L 125.836765 100.502124 
L 125.785503 101.140588 
L 126.003368 101.759705 
L 126.419874 102.220818 
L 126.975749 102.407842 
L 128.169199 102.196633 
L 128.640171 102.322391 
L 128.92692 102.946345 
L 129.061483 102.946345 
L 129.196047 102.407842 
L 129.465174 102.54005 
L 129.703864 102.259512 
L 130.551293 101.988649 
L 130.898916 102.341739 
L 132.031492 102.814138 
L 132.276589 102.669032 
L 132.435182 102.814138 
L 132.646639 102.804464 
L 133.655865 103.217208 
L 134.365527 103.252679 
L 134.554557 103.657361 
L 134.775625 103.729914 
L 135.269025 103.758935 
L 135.856939 104.004002 
L 136.210969 103.904041 
L 136.967088 104.316785 
L 137.636701 104.165231 
L 138.021168 104.20715 
L 138.903841 104.739203 
L 140.225447 104.644078 
L 140.693215 105.103579 
L 140.893458 105.455057 
L 141.599916 105.661429 
L 144.076525 107.612291 
L 145.383713 107.963769 
L 146.056531 108.370064 
L 146.671678 108.576436 
L 146.860708 109.28584 
L 147.15066 109.38419 
L 148.267217 109.118163 
L 149.515133 109.451905 
L 149.966882 110.411214 
L 151.147516 111.106107 
L 151.519167 111.22058 
L 151.668148 111.367297 
L 152.456306 111.117393 
L 153.129123 111.968679 
L 153.215629 111.839696 
L 153.451115 111.744571 
L 155.636169 111.910636 
L 156.051073 111.504341 
L 156.248113 111.307643 
L 156.699862 111.265723 
L 157.324621 111.483382 
L 157.696272 111.241539 
L 157.798797 111.357624 
L 158.771178 111.707489 
L 160.020696 111.97674 
L 160.948223 112.692594 
L 161.025116 112.99409 
L 161.15968 113.129522 
L 161.69473 113.387487 
L 163.075608 114.695049 
L 163.798085 115.846219 
L 164.116873 116.034856 
L 164.677554 117.324682 
L 165.132507 117.976044 
L 166.599889 118.719306 
L 167.109308 119.227175 
L 167.152561 119.681839 
L 167.109308 120.06395 
L 167.873437 121.758459 
L 167.849407 122.193775 
L 167.671591 122.503334 
L 167.778922 122.758074 
L 167.567465 123.019264 
L 167.710038 123.648054 
L 167.718048 124.151087 
L 167.378435 124.392929 
L 167.508193 124.770203 
L 167.637951 124.784714 
L 167.778922 124.663792 
L 167.647562 126.272851 
L 166.104888 126.804904 
L 162.46046 127.106401 
L 161.963857 127.517533 
L 161.52973 127.417571 
L 161.316671 127.357917 
L 160.73997 127.540105 
L 159.42317 127.111238 
L 158.971421 127.114462 
L 157.737923 127.382101 
L 154.4267 127.246669 
L 154.168787 126.895192 
L 153.742669 126.704942 
L 153.436697 126.669472 
L 152.201597 126.788781 
L 151.711401 127.162831 
L 151.384604 127.246669 
L 150.389795 127.251506 
L 150.101445 127.382101 
L 150.07261 127.859337 
L 149.697755 129.139489 
L 149.843532 131.033921 
L 149.974891 131.496646 
L 151.246837 132.939639 
L 151.591255 133.086357 
L 151.746644 133.054112 
L 152.264072 132.680062 
L 152.134315 133.152461 
L 151.983732 133.481366 
L 152.025382 133.728046 
L 152.264072 134.303631 
L 152.196791 135.290348 
L 153.441503 136.327045 
L 153.619319 136.615644 
L 153.688203 137.033225 
L 153.609707 137.969961 
L 153.777912 138.548771 
L 153.619319 138.792226 
L 153.877232 139.333953 
L 154.023009 140.132032 
L 154.671798 141.192914 
L 154.4267 141.350918 
L 154.633351 141.570189 
L 154.751895 141.541168 
L 155.056265 141.779785 
L 155.089906 141.995831 
L 155.455149 141.986158 
L 155.906898 141.63468 
L 156.129569 141.936177 
L 156.03986 142.040975 
L 157.228504 142.327961 
L 157.814816 142.603662 
L 158.321031 143.363047 
L 159.165257 143.580705 
L 159.557734 143.933795 
L 159.395937 144.114371 
L 159.746763 144.165964 
L 159.948609 144.217557 
L 160.656669 144.856021 
L 160.755989 145.089802 
L 160.743174 145.833064 
L 160.933806 146.016864 
L 162.27944 146.336096 
L 162.370751 146.627919 
L 162.380363 147.135788 
L 162.51813 147.54692 
L 162.941044 148.177323 
L 162.784053 148.57072 
L 163.735609 148.435288 
L 163.735609 148.286958 
L 163.413618 148.067688 
L 163.331919 147.6098 
L 164.288281 148.456248 
L 164.571825 149.026996 
L 164.730418 150.302312 
L 164.889011 150.63283 
L 165.14372 150.860161 
L 165.814936 151.031063 
L 166.840181 150.869835 
L 167.219843 151.087493 
L 167.631543 150.855325 
L 168.089699 150.961735 
L 169.449752 151.861389 
L 169.877471 151.950064 
L 170.076113 152.287032 
L 170.492619 153.30277 
L 170.877086 153.349526 
L 171.631602 153.215706 
L 171.823836 153.449487 
L 172.265973 153.310831 
L 172.869907 153.236666 
L 173.401753 153.110908 
L 173.241558 153.378547 
L 173.228743 153.699391 
L 173.635637 155.500311 
L 173.923988 155.954975 
L 174.029716 156.528947 
L 174.548747 157.705914 
L 174.68331 158.834512 
L 174.513504 159.290788 
L 175.1687 160.953051 
L 175.130253 161.301304 
L 174.907583 162.381533 
L 175.038942 163.194124 
L 175.197535 163.484335 
L 175.513118 163.713279 
L 176.214771 164.050246 
L 176.407004 164.309823 
L 176.861957 164.161493 
L 177.571619 164.475889 
L 178.130698 164.725792 
L 178.409437 165.186905 
L 179.119099 165.404563 
L 179.287304 165.573853 
L 179.710217 166.373545 
L 179.99216 166.681491 
L 180.104296 167.010397 
L 180.059442 168.379225 
L 180.402258 169.878648 
L 180.738667 169.985059 
L 180.88925 170.21239 
L 180.770706 170.739607 
L 181.001386 171.110432 
L 181.18561 171.905287 
L 181.530028 172.661448 
L 182.049059 173.287013 
L 182.747507 173.677186 
L 184.455182 173.986744 
L 185.150427 173.964172 
L 185.448389 174.072195 
L 185.627807 173.999642 
L 187.67189 173.409547 
L 188.072377 173.029048 
L 188.146066 172.800104 
L 188.658689 172.893616 
L 189.369953 172.732388 
L 189.773644 173.03711 
L 190.308694 173.003252 
L 191.768067 172.601793 
L 191.950689 172.271275 
L 192.205398 172.190661 
L 192.721225 171.652159 
L 192.998361 171.513502 
L 193.229042 172.089087 
L 195.002396 171.961717 
L 195.430116 172.326093 
L 195.803369 172.185824 
L 195.921913 172.261602 
L 195.96837 172.474423 
L 196.102933 172.474423 
L 196.295167 172.355114 
L 196.466575 172.464749 
L 196.639585 172.930699 
L 196.482594 173.432119 
L 196.237497 173.801332 
L 196.639585 173.951274 
L 195.96837 174.072195 
L 196.242303 174.344671 
L 196.844634 174.493001 
L 196.785362 174.896072 
L 196.573905 175.199181 
L 196.251914 175.437798 
L 195.891476 175.542597 
L 195.564679 175.437798 
L 195.085697 176.221368 
L 194.608317 178.278641 
L 193.954723 178.831654 
L 193.805742 179.310501 
L 193.892247 179.758716 
L 194.353608 180.948581 
L 194.665987 181.66121 
L 195.386863 181.99334 
L 196.785362 182.236795 
L 197.424539 182.604395 
L 197.818618 182.931688 
L 198.130997 182.913953 
L 198.400124 183.184817 
L 199.082553 183.45568 
L 198.895125 183.71687 
L 199.287602 183.78781 
L 201.233967 183.847465 
L 202.408194 184.318251 
L 202.715767 184.28923 
L 203.254021 183.976448 
L 203.93645 184.079634 
L 204.59485 183.861975 
L 205.043395 183.920018 
L 205.815533 184.192493 
L 206.741458 184.305353 
L 207.696218 184.672954 
L 208.144763 184.69875 
L 209.395883 184.524624 
L 209.910108 184.579441 
L 210.131176 184.74067 
L 210.566906 185.469421 
L 210.852052 185.579057 
L 210.967392 186.241705 
L 210.530061 186.29491 
L 209.078698 186.984967 
L 206.473933 187.533143 
L 206.08466 187.378364 
L 205.828349 187.61537 
L 204.59485 188.052298 
L 204.397811 188.474716 
L 204.484316 188.814908 
L 205.008152 189.432412 
L 206.449904 190.594868 
L 207.069857 191.33813 
L 207.026605 192.124924 
L 207.838791 192.289377 
L 208.699036 193.066497 
L 209.443941 193.324463 
L 209.799573 193.366382 
L 211.351859 193.366382 
L 211.736327 193.485691 
L 212.566135 193.930681 
L 213.017883 193.853291 
L 213.581769 193.637245 
L 213.76439 193.714635 
L 214.116819 194.240239 
L 214.884151 194.517552 
L 215.555366 195.23663 
L 215.816484 195.381735 
L 216.604641 195.530065 
L 217.846149 195.913788 
L 218.355568 195.839623 
L 218.804113 195.823501 
L 218.901832 195.733213 
L 220.422079 196.087915 
L 220.901061 195.828338 
L 221.735675 195.925074 
L 221.331984 196.478087 
L 221.458538 196.67801 
L 221.905481 196.97467 
L 222.004802 197.229411 
L 222.237084 197.335822 
L 222.760921 197.268106 
L 224.032866 196.955323 
L 225.612385 196.794095 
L 226.201901 196.33137 
L 226.586368 196.207224 
L 227.095787 196.281389 
L 227.042923 196.520007 
L 226.677679 196.777972 
L 225.87991 196.97467 
L 222.746503 198.53536 
L 221.671597 198.651444 
L 221.466548 198.519237 
L 221.078877 198.554708 
L 219.778097 198.101656 
L 218.567025 197.948489 
L 218.29149 197.774363 
L 217.762848 197.777587 
L 217.104448 198.306416 
L 216.719981 199.067413 
L 217.102846 199.75747 
L 217.152507 199.601079 
L 217.439255 199.755858 
L 218.334743 199.79939 
L 219.074842 200.104111 
L 219.92868 200.318545 
L 220.245865 200.558775 
L 222.632765 201.279465 
L 223.092523 201.653515 
L 223.227087 202.330674 
L 223.529855 202.859502 
L 223.420922 203.073936 
L 223.116553 203.257736 
L 220.729653 204.129981 
L 220.441302 203.968753 
L 219.169357 204.360537 
L 218.941881 204.678157 
L 218.345957 205.187638 
L 218.352364 205.453665 
L 218.073626 205.339193 
L 217.394401 205.371439 
L 217.152507 205.453665 
L 216.907409 205.003838 
L 216.585418 204.861957 
L 216.176921 204.945796 
L 215.124443 205.41497 
L 214.634247 205.261803 
L 214.049537 205.724529 
L 213.913371 205.560076 
L 213.394341 205.116698 
L 213.64905 204.703954 
L 213.437593 204.573359 
L 212.466814 204.839385 
L 212.168852 205.037696 
L 211.752346 204.507255 
L 211.481617 204.471785 
L 211.404724 204.536276 
L 211.217296 204.507255 
L 210.810402 204.089674 
L 210.127972 203.954242 
L 210.493216 203.717237 
L 210.451566 203.494742 
L 210.063895 202.998159 
L 209.570495 203.552784 
L 209.078698 203.277083 
L 209.189232 202.861115 
L 208.782338 203.141652 
L 208.665396 202.959464 
L 208.417094 202.803072 
L 207.843597 202.599925 
L 207.978161 202.861115 
L 207.914083 202.882074 
L 207.838791 202.907871 
L 207.843597 203.007832 
L 207.252479 202.764378 
L 207.026605 202.735356 
L 207.252479 202.5048 
L 207.80515 202.271019 
L 207.843597 201.913092 
L 207.734665 201.966298 
L 207.452722 202.048524 
L 207.651364 201.785722 
L 207.978161 201.653515 
L 208.112724 201.872785 
L 208.324181 201.892133 
L 208.852823 201.777661 
L 209.732292 202.011442 
L 210.810402 201.653515 
L 211.058703 201.052133 
L 211.496035 200.96507 
L 210.9738 200.839312 
L 210.409915 200.831251 
L 209.000202 200.278238 
L 208.715056 200.558775 
L 208.381851 201.506797 
L 208.151171 201.24077 
L 207.907675 200.631328 
L 207.843597 200.558775 
L 207.564858 199.881616 
L 207.372625 199.676856 
L 206.853594 199.357624 
L 205.767475 199.022269 
L 204.937667 198.532136 
L 204.284073 198.46442 
L 202.994506 198.519237 
L 201.970862 198.691752 
L 201.477463 198.516013 
L 201.025714 198.777203 
L 200.697315 198.654669 
L 200.562752 198.802999 
L 200.831878 198.92392 
L 200.831878 199.059352 
L 200.062944 198.986799 
L 199.875517 198.519237 
L 199.660856 198.561157 
L 199.273185 198.809448 
L 198.936776 198.654669 
L 199.161049 198.383806 
L 199.007262 198.287069 
L 198.510658 198.188719 
L 198.332842 197.638931 
L 197.45818 197.300352 
L 197.20347 197.413211 
L 196.639585 197.97751 
L 196.402497 197.816282 
L 195.579097 197.603461 
L 194.963949 197.506724 
L 193.257877 196.669949 
L 191.532581 196.478087 
L 189.384371 197.339046 
L 189.009515 197.206839 
L 187.434802 196.495823 
L 187.135238 196.478087 
L 185.868099 196.616744 
L 185.044698 196.3878 
L 185.087951 195.954096 
L 184.953387 195.736437 
L 185.044698 195.530065 
L 184.775571 195.530065 
L 185.039892 195.1802 
L 185.627807 194.965766 
L 185.448389 194.672331 
L 185.182466 194.524001 
L 184.948582 194.938357 
L 184.501639 194.820661 
L 184.28057 194.553022 
L 184.089938 193.908109 
L 183.96819 193.908109 
L 183.692656 195.0883 
L 183.353043 195.247916 
L 182.96377 195.520392 
L 182.747507 195.407532 
L 181.818379 195.407532 
L 181.108716 195.243079 
L 180.655366 195.597781 
L 180.367015 195.649374 
L 178.821137 195.668722 
L 178.435068 195.800929 
L 177.156715 195.305958 
L 176.956472 195.056054 
L 176.783462 194.648147 
L 176.407004 194.348262 
L 176.035353 194.285383 
L 175.881566 194.582043 
L 175.359331 194.1564 
L 175.074185 193.922619 
L 174.481465 193.766228 
L 173.986463 193.772677 
L 173.866317 193.66143 
L 173.573161 193.23095 
L 173.334471 193.927456 
L 172.563935 194.369222 
L 171.623593 194.512715 
L 170.881892 194.301506 
L 170.370871 194.978665 
L 170.076113 195.12377 
L 169.714073 194.899663 
L 168.815381 193.588877 
L 167.647562 193.772677 
L 167.647562 193.637245 
L 168.019214 193.516324 
L 168.18902 193.198704 
L 168.152175 192.86335 
L 167.913485 192.689223 
L 167.618727 192.82143 
L 167.537028 192.976209 
L 167.46494 193.385729 
L 167.354406 193.342198 
L 167.109308 193.08262 
L 166.297122 192.908494 
L 165.830955 193.013292 
L 164.946681 193.772677 
L 164.603864 192.124924 
L 163.953474 191.902429 
L 163.759639 191.663811 
L 162.812888 191.431643 
L 162.111236 190.74481 
L 161.592205 189.883851 
L 161.025116 189.432412 
L 160.784825 188.839092 
L 160.6823 187.586348 
L 160.50128 187.226809 
L 157.627388 183.513722 
L 157.260543 183.320249 
L 157.127581 183.45568 
L 157.113164 183.01069 
L 156.940154 182.693071 
L 156.308987 182.236795 
L 155.751509 182.083628 
L 155.684228 182.251305 
L 155.906898 182.64309 
L 155.450344 182.672111 
L 154.234466 182.186814 
L 153.809951 181.893378 
L 153.69461 181.664434 
L 153.473542 180.737372 
L 152.999366 180.500366 
L 152.398636 180.60194 
L 152.499559 180.76478 
L 152.935288 181.008235 
L 152.956113 181.419367 
L 152.800724 181.561248 
L 152.576452 181.554799 
L 151.8748 181.135605 
L 151.62009 180.516489 
L 150.918438 179.384666 
L 150.497126 177.981981 
L 150.168727 177.546664 
L 149.782658 177.428968 
L 148.976879 177.604706 
L 148.767024 177.332231 
L 149.180326 177.175839 
L 149.246006 177.012999 
L 149.161103 176.80179 
L 148.976879 176.676032 
L 148.795859 176.195571 
L 148.767024 175.6087 
L 149.036151 175.166935 
L 148.718965 174.792885 
L 148.635664 174.625208 
L 149.697755 174.147972 
L 149.822706 173.946437 
L 150.380184 173.525631 
L 150.503534 173.075804 
L 150.351349 172.680795 
L 150.236009 172.596956 
L 149.981299 172.651774 
L 149.84193 173.045171 
L 149.881978 173.27734 
L 149.036151 174.072195 
L 148.332896 174.128625 
L 147.727361 173.864211 
L 146.473037 173.138683 
L 146.237551 173.095152 
L 145.65284 173.138683 
L 145.226723 172.901678 
L 143.490213 172.474423 
L 142.998415 172.137456 
L 142.144578 170.839568 
L 142.229481 170.575154 
L 142.061277 169.991508 
L 141.945937 169.878648 
L 142.066083 169.691623 
L 142.21186 169.069282 
L 142.551472 169.204714 
L 143.05128 168.732315 
L 143.142591 168.451778 
L 143.089726 168.095463 
L 142.814192 168.369551 
L 142.487395 168.490472 
L 142.291957 168.414695 
L 142.413705 168.095463 
L 142.170209 167.779456 
L 142.042054 167.377997 
L 141.551858 167.363487 
L 141.402877 167.366711 
L 141.321178 167.00556 
L 141.327586 166.608939 
L 141.13375 166.178459 
L 139.951514 164.777385 
L 139.720833 164.303374 
L 138.774083 163.755198 
L 138.298305 163.319882 
L 136.608252 160.828905 
L 136.36796 160.224299 
L 136.289465 159.261766 
L 136.087619 158.947371 
L 136.087619 158.333092 
L 135.780046 157.641422 
L 135.52053 157.365722 
L 134.871742 157.12388 
L 134.126837 156.438659 
L 133.660671 156.369331 
L 133.44601 156.171021 
L 133.117611 155.479351 
L 133.372321 155.264918 
L 133.31465 154.942461 
L 132.83727 154.39751 
L 133.175281 154.19275 
L 133.213728 154.042807 
L 133.117611 153.855783 
L 132.713921 153.939621 
L 132.12921 153.718739 
L 131.089547 153.178624 
L 129.960175 152.901311 
L 129.316193 152.869066 
L 128.80357 153.031906 
L 128.422307 152.75943 
L 127.177594 152.345074 
L 126.640942 151.611485 
L 126.698612 151.550218 
L 127.043031 151.408337 
L 126.927691 151.214864 
L 126.775506 151.066534 
L 127.043031 150.460315 
L 126.910069 150.460315 
L 126.672981 150.768261 
L 126.053028 150.702158 
L 125.689386 150.869835 
L 125.974533 151.269681 
L 125.622105 151.421236 
L 124.170741 151.334173 
L 123.539575 150.869835 
L 119.800632 151.011716 
L 119.497864 150.853712 
L 118.35888 149.763809 
L 117.798199 149.471986 
L 116.878682 149.422005 
L 116.478196 149.539702 
L 116.080913 149.409107 
L 115.244697 148.609415 
L 115.09091 148.354674 
L 114.759307 148.852869 
L 114.778531 148.960892 
L 114.413287 148.988301 
L 113.91348 148.852869 
L 113.476148 148.590067 
L 112.937894 147.771028 
L 112.873816 147.948379 
L 112.796923 148.475595 
L 112.615903 148.57072 
L 111.393618 148.57072 
L 111.178957 148.435288 
L 110.587839 147.75813 
L 110.337936 148.09026 
L 110.124877 148.05479 
L 109.573807 147.75813 
L 109.059582 147.832295 
L 108.90099 147.6098 
L 108.532542 147.413101 
L 108.35793 147.135788 
L 108.679921 146.744004 
L 108.833708 146.376403 
L 108.795261 144.004735 
L 108.559775 143.67583 
L 108.405988 144.054716 
L 108.324289 145.0108 
L 108.144871 145.433218 
L 108.261813 145.75245 
L 108.021521 145.916903 
L 107.276616 145.987843 
L 106.959431 145.887882 
L 105.55132 144.614178 
L 105.146028 143.93057 
L 104.647823 143.514602 
L 104.532482 143.885427 
L 104.796804 144.959207 
L 104.609376 145.254255 
L 104.172045 145.397748 
L 103.292576 145.310684 
L 102.893691 144.781856 
L 102.634176 144.141779 
L 102.541263 143.59844 
L 102.345826 143.272759 
L 102.365049 142.579478 
L 102.063883 142.224775 
L 101.951747 142.46823 
L 101.961359 143.870916 
L 101.81398 144.756059 
L 101.922912 144.926961 
L 102.365049 145.310684 
L 102.083107 145.649264 
L 101.81398 145.641202 
L 101.711455 145.384849 
L 101.009803 144.756059 
L 100.561258 143.882202 
L 100.471549 143.811262 
L 99.798731 142.579478 
L 99.885236 142.922894 
L 100.013392 143.978939 
L 100.322568 144.823775 
L 100.471549 145.987843 
L 101.230871 147.216403 
L 101.62495 147.730721 
L 101.778737 148.204732 
L 101.27893 148.286958 
L 101.226065 148.167649 
L 100.13514 146.803658 
L 99.920479 146.661777 
L 99.712226 147.121278 
L 99.351788 147.290568 
L 99.010574 147.126115 
L 98.562029 145.459014 
L 97.905231 144.485196 
L 97.996542 145.007575 
L 98.353776 146.037824 
L 98.15994 146.269993 
L 97.834745 146.116826 
L 97.395812 145.205886 
L 97.088238 144.891491 
L 96.771053 145.281663 
L 96.280857 145.581548 
L 96.790276 145.613794 
L 96.918432 145.939475 
L 96.795082 146.384465 
L 96.549984 146.784311 
L 97.004937 147.092257 
L 97.193967 147.367957 
L 97.219598 147.6098 
L 97.02416 147.759742 
L 96.01173 148.164425 
L 95.454253 147.682352 
L 94.988087 147.642045 
L 94.52192 147.783926 
L 93.98687 147.41955 
L 90.292782 146.149071 
L 88.394476 144.917287 
L 88.094912 144.165964 
L 86.981559 142.308614 
L 86.32316 142.178019 
L 85.799323 142.063547 
L 84.897427 141.283202 
L 84.818932 141.080055 
L 84.673155 141.350918 
L 84.875 141.660476 
L 85.693595 142.456944 
L 86.774908 142.769727 
L 86.742869 143.009957 
L 86.712432 143.134103 
L 87.048841 143.948306 
L 88.777341 147.058399 
L 88.951953 148.407879 
L 89.168216 148.767418 
L 89.671227 149.380086 
L 90.614774 150.824691 
L 90.931959 151.656629 
L 90.624385 152.085496 
L 90.260743 151.979086 
L 89.4021 151.002042 
L 89.072099 150.92304 
L 87.923504 150.869835 
L 88.04365 150.953674 
L 88.327194 151.272906 
L 89.34443 151.605036 
L 90.086131 152.35636 
L 89.78016 152.75943 
L 89.443751 152.956129 
L 89.04006 153.023845 
L 86.835782 152.898087 
L 86.164567 152.35636 
L 85.289904 152.01778 
L 84.910243 151.837205 
L 84.452086 151.850103 
L 83.183345 152.16611 
L 81.72237 151.988759 
L 81.504505 151.737243 
L 80.924601 150.598972 
L 80.642658 150.402273 
L 79.16246 150.265229 
L 79.321053 150.574787 
L 79.687898 150.734403 
L 80.488871 150.815017 
L 80.703532 150.985919 
L 80.924601 151.840429 
L 81.281835 152.122579 
L 82.885383 152.833595 
L 83.117665 153.094785 
L 83.314705 153.881579 
L 84.452086 155.896932 
L 84.597863 156.393516 
L 84.482523 156.77079 
L 84.154124 156.944916 
L 83.752036 156.999734 
L 78.552118 157.199657 
L 78.005855 157.531787 
L 76.330219 157.655933 
L 71.268069 158.886105 
L 70.909233 158.808715 
L 68.977286 157.918735 
L 66.199511 157.385069 
L 65.86951 157.539849 
L 64.076932 157.889714 
L 62.531054 158.782918 
L 62.146587 158.808715 
L 60.852214 158.628139 
L 60.559058 158.357276 
L 60.378038 158.004186 
L 59.919882 156.038813 
L 59.500172 155.516434 
L 58.647936 155.355205 
L 56.570212 155.784073 
L 56.209774 156.127489 
L 55.55618 156.303228 
L 55.178121 156.6934 
L 55.255014 156.851404 
L 55.55618 156.978774 
L 56.26424 156.380617 
L 56.844145 156.129101 
L 56.964291 156.048487 
L 57.529778 156.154898 
L 58.901044 155.848564 
L 59.381628 155.945301 
L 59.588279 156.370944 
L 59.637939 156.809484 
L 60.233863 158.705529 
L 60.674398 159.247256 
L 61.313575 159.601958 
L 62.143383 159.685797 
L 62.841832 159.445567 
L 64.152224 158.560423 
L 64.855478 158.333092 
L 66.422181 158.599118 
L 66.748978 158.479809 
L 67.556359 158.739387 
L 68.435828 159.427832 
L 68.855538 159.543916 
L 70.122677 160.385527 
L 70.883602 160.682187 
L 73.347395 161.18522 
L 74.106718 161.462532 
L 74.688224 161.83497 
L 77.246532 163.942223 
L 78.355079 165.257846 
L 78.946197 166.225215 
L 79.87853 167.43604 
L 79.969841 167.702066 
L 79.969841 170.272045 
L 80.080375 171.268435 
L 79.902559 171.576381 
L 79.210518 172.164865 
L 78.883721 172.326093 
L 78.294205 172.484097 
L 76.596142 172.596956 
L 76.730705 172.732388 
L 76.120364 172.824288 
L 75.45876 172.93876 
L 75.304973 173.211236 
L 74.885263 173.32732 
L 72.804335 174.031888 
L 71.862391 174.709047 
L 71.449089 174.865438 
L 70.928456 175.571618 
L 68.911606 176.70344 
L 66.47825 177.720791 
L 66.345288 177.951347 
L 65.259169 178.56079 
L 64.469409 178.647853 
L 63.777368 178.43342 
L 63.183046 178.043247 
L 61.568284 176.782442 
L 60.85702 176.476109 
L 60.27231 176.530926 
L 59.453715 176.16655 
L 58.694393 176.05369 
L 57.840555 175.571618 
L 56.5606 175.166935 
L 56.349144 175.231426 
L 55.74521 175.571618 
L 55.082004 175.552271 
L 51.900539 175.837645 
L 50.305 176.355187 
L 49.409512 176.321329 
L 48.140771 175.977913 
L 46.473145 176.27941 
L 45.978144 176.248777 
L 45.536006 176.509966 
L 44.957704 176.655072 
L 44.397023 176.353575 
L 44.132702 176.237491 
L 43.815516 176.384208 
L 42.767843 176.277798 
L 42.469881 175.871503 
L 41.029732 174.996033 
L 40.297642 174.825131 
L 39.536718 174.821907 
L 38.831861 175.031503 
L 37.293993 176.231042 
L 36.669234 176.530926 
L 35.732095 176.617989 
L 34.991996 176.345514 
L 32.882233 174.47849 
L 32.27563 174.120879 
L 32.278676 130.346517 
L 31.983678 130.373135 
L 31.612387 130.176566 
L 31.54118 129.547953 
L 31.075286 129.674904 
L 30.923718 129.408716 
L 30.791477 128.673628 
L 30.251325 128.223156 
L 30.233015 127.909874 
L 30.454772 127.518782 
L 30.340842 127.287404 
L 29.783396 126.707933 
L 29.809845 126.331175 
L 29.916654 126.097749 
L 30.06924 125.075997 
L 29.783396 124.93676 
L 29.958361 124.635763 
L 30.857598 124.261052 
L 30.690771 123.935484 
L 30.621599 123.783962 
L 31.110889 123.540298 
L 31.172941 122.8134 
L 31.315354 122.680306 
L 31.615438 122.637306 
L 31.747679 122.463261 
L 31.805661 122.102883 
L 31.716145 121.805981 
L 31.405888 121.814172 
L 31.34994 121.398509 
L 31.006114 121.271558 
L 31.179044 121.179416 
L 31.5778 121.120036 
L 31.799558 121.136416 
L 31.747679 120.882514 
L 32.080315 120.386995 
L 32.032505 120.270282 
L 31.799558 119.987713 
L 32.014195 119.477861 
L 32.27359 119.221911 
L 32.225567 45.233067 
L 32.478543 45.218564 
L 32.882233 45.384629 
L 33.574274 45.020253 
L 34.328791 45.110541 
L 35.11855 45.37173 
L 35.11855 45.37173 
" clip-path="url(#p0314f0461d)" style="fill: none; stroke: #000000; stroke-width: 2"/>
    <path d="M 230.434243 47.414493 
L 230.507932 47.503168 
L 230.789875 48.091651 
L 232.930075 48.889731 
L 233.33697 49.325048 
L 233.490756 50.069922 
L 233.833573 50.556832 
L 234.628138 50.721284 
L 236.326201 50.721284 
L 236.837222 51.246889 
L 237.373874 51.090497 
L 238.184459 51.342013 
L 238.865286 51.891802 
L 239.590968 52.668922 
L 240.210921 52.704392 
L 241.340293 53.537942 
L 241.566167 53.513758 
L 243.094424 54.474678 
L 243.663115 55.232451 
L 243.98831 55.666155 
L 244.41603 55.941856 
L 244.938264 55.83867 
L 245.055206 56.33364 
L 245.295498 56.670607 
L 245.877005 56.918899 
L 246.833367 56.918899 
L 247.475747 57.192987 
L 247.770505 57.057555 
L 248.295943 57.476749 
L 248.736479 57.746 
L 249.542258 57.80243 
L 249.909103 58.018476 
L 250.312794 58.086192 
L 250.336823 58.286115 
L 250.324007 58.602122 
L 250.384881 58.721431 
L 250.716484 58.969723 
L 251.44537 59.688801 
L 252.936782 61.697705 
L 253.540715 62.200737 
L 254.248776 62.62638 
L 255.642469 63.271293 
L 255.945237 63.596974 
L 256.411403 63.909757 
L 256.613248 64.73847 
L 256.887181 64.85133 
L 257.300483 65.460773 
L 257.619271 66.154054 
L 258.013349 66.403958 
L 258.410632 66.389447 
L 258.747041 66.1863 
L 258.963303 65.883191 
L 259.48714 66.544227 
L 260.308938 68.116202 
L 260.232045 68.988447 
L 260.781512 69.489867 
L 262.296954 69.886489 
L 263.008218 70.495931 
L 263.748317 70.824837 
L 264.566911 70.926411 
L 264.970602 70.755509 
L 265.249341 70.468523 
L 265.470409 70.41048 
L 265.763565 71.124722 
L 265.843663 71.726103 
L 266.407548 72.778924 
L 266.788811 72.922417 
L 267.613813 72.906294 
L 267.88294 72.672513 
L 268.084785 72.932091 
L 268.13765 73.765641 
L 268.345903 74.054239 
L 269.228575 74.837809 
L 270.074403 76.382375 
L 270.228189 76.878959 
L 270.593433 77.030513 
L 271.066007 77.407787 
L 271.472902 77.875349 
L 271.645912 78.297767 
L 271.440863 79.897152 
L 271.645912 80.406633 
L 271.152512 80.961258 
L 270.008723 81.920566 
L 269.752411 82.583215 
L 269.814887 82.965326 
L 270.502122 83.943981 
L 270.502122 84.571159 
L 270.281054 85.050007 
L 269.630663 85.559488 
L 269.630663 86.235035 
L 269.516925 86.423672 
L 269.094011 86.788048 
L 268.188912 88.326166 
L 268.012698 88.508353 
L 267.88294 88.817912 
L 267.450415 88.687317 
L 267.269395 88.964629 
L 267.157258 89.406395 
L 266.931384 89.765934 
L 266.766384 89.167777 
L 266.460412 88.587355 
L 265.98143 88.092385 
L 265.305409 87.73607 
L 265.364681 87.250773 
L 264.831233 86.747741 
L 263.681035 85.82874 
L 263.584918 85.509508 
L 263.47118 84.285785 
L 262.884868 83.95043 
L 262.838411 83.811774 
L 262.471566 81.90928 
L 262.87045 80.827439 
L 263.115548 78.704063 
L 262.884868 78.230051 
L 263.000208 77.991434 
L 262.899285 77.490014 
L 262.740693 77.285254 
L 262.921713 76.90798 
L 262.934528 76.551665 
L 262.799965 76.205024 
L 262.288944 75.534315 
L 261.313359 73.583453 
L 261.047436 72.682187 
L 260.72224 72.1195 
L 260.134326 71.453627 
L 259.996559 71.016699 
L 259.636121 70.703916 
L 259.474324 70.079962 
L 259.214809 69.891325 
L 258.682963 69.807487 
L 256.27684 66.703843 
L 256.339316 66.084726 
L 255.157079 64.972251 
L 254.940816 64.435361 
L 253.912367 64.014555 
L 253.697706 63.559891 
L 252.627606 62.858548 
L 248.946334 62.239432 
L 248.187011 61.949221 
L 245.502149 60.301468 
L 241.317866 56.24174 
L 240.087571 55.961203 
L 238.730723 55.35176 
L 238.34145 54.474678 
L 238.048293 54.203815 
L 235.342606 52.752761 
L 234.698624 52.162665 
L 233.723039 51.866005 
L 233.612504 51.559671 
L 233.13192 51.090497 
L 232.561628 50.988923 
L 232.535996 50.819634 
L 231.949684 50.355296 
L 231.863179 50.144087 
L 231.145507 49.770038 
L 230.310893 49.579788 
L 229.724581 49.005816 
L 229.348123 48.857486 
L 228.864336 48.796219 
L 228.311664 48.522131 
L 227.906372 48.489885 
L 226.368503 48.776871 
L 225.548307 48.773647 
L 224.846654 48.567275 
L 224.436556 48.091651 
L 224.45578 47.848197 
L 224.601557 47.559598 
L 224.85146 47.422554 
L 225.538695 47.780481 
L 225.951997 47.619253 
L 226.720932 47.143629 
L 227.137438 47.4548 
L 227.457827 47.154915 
L 227.475448 46.71315 
L 226.977243 46.590616 
L 227.284817 46.293956 
L 227.235156 46.084359 
L 226.794621 45.91507 
L 226.150639 45.81672 
L 225.50986 45.52006 
L 225.875104 44.647816 
L 225.88792 44.347931 
L 226.474232 44.759063 
L 226.794621 45.178257 
L 227.537924 45.581327 
L 227.640449 45.819945 
L 228.33249 46.197219 
L 229.030938 47.008197 
L 229.181521 47.056566 
L 230.190747 47.279061 
L 230.434243 47.414493 
L 230.434243 47.414493 
" clip-path="url(#p0314f0461d)" style="fill: none; stroke: #000000; stroke-width: 2"/>
    <path d="M 214.42279 40.933116 
L 215.494492 41.589315 
L 215.931824 41.586091 
L 216.104834 41.687665 
L 216.619059 41.921446 
L 216.811292 41.968202 
L 216.878574 42.006897 
L 217.061196 42.195534 
L 217.152507 42.260025 
L 217.681149 42.384171 
L 218.229015 42.592155 
L 218.695181 42.933959 
L 218.922657 43.409582 
L 218.767269 44.020638 
L 218.970716 43.93035 
L 219.046007 43.885206 
L 219.156541 44.172192 
L 219.046007 44.44628 
L 218.863385 44.730042 
L 218.767269 45.042825 
L 218.781686 45.373343 
L 218.826541 45.639369 
L 218.913046 45.861864 
L 219.046007 46.061787 
L 218.911444 46.28267 
L 218.775278 46.379407 
L 218.352364 46.46647 
L 217.615469 46.737334 
L 217.407216 46.78409 
L 217.208575 46.851806 
L 217.0644 46.843745 
L 217.00673 46.664781 
L 216.87537 46.442286 
L 216.580612 46.495491 
L 216.263427 46.684129 
L 216.066387 46.872766 
L 215.959057 46.793764 
L 215.760415 46.680904 
L 215.662697 46.590616 
L 215.345511 46.684129 
L 213.870119 46.758294 
L 213.711526 46.790539 
L 213.567351 46.796988 
L 213.379923 46.737334 
L 213.211719 46.606739 
L 212.572542 45.91507 
L 212.149629 45.678064 
L 211.971813 45.537796 
L 211.649821 44.560752 
L 210.818411 43.564362 
L 210.530061 43.343479 
L 210.083118 43.496646 
L 209.492 43.220945 
L 209.059474 42.798527 
L 209.078698 42.508316 
L 209.211659 42.434151 
L 209.333407 42.505092 
L 209.458359 42.614727 
L 209.602534 42.655034 
L 209.785156 42.577645 
L 211.217296 41.586091 
L 211.529675 41.534498 
L 211.7972 41.532885 
L 212.024677 41.505477 
L 212.229726 41.370045 
L 213.021087 41.089508 
L 213.040311 41.031466 
L 213.296622 40.989546 
L 213.697109 40.805746 
L 213.982255 40.760602 
L 214.42279 40.933116 
" clip-path="url(#p0314f0461d)" style="fill: none; stroke: #000000; stroke-width: 2"/>
    <path d="M 168.182612 39.003214 
L 167.729261 39.764211 
L 167.372027 40.089892 
L 166.907463 40.218875 
L 166.095276 40.218875 
L 165.798916 40.186629 
L 165.614692 40.096342 
L 165.215808 39.802906 
L 165.25906 39.667474 
L 165.295905 39.612657 
L 165.350371 39.544941 
L 165.85979 39.696495 
L 166.330762 39.511083 
L 166.58387 39.104788 
L 166.436491 38.596919 
L 166.614307 38.490508 
L 166.766492 38.340566 
L 166.852997 38.184174 
L 166.840181 38.042293 
L 167.109308 38.042293 
L 167.537028 38.580796 
L 167.836592 38.848435 
L 168.182612 39.003214 
" clip-path="url(#p0314f0461d)" style="fill: none; stroke: #000000; stroke-width: 2"/>
    <path d="M 148.717364 32.386406 
L 149.161103 32.608901 
L 149.657706 32.441223 
L 153.186794 32.708862 
L 153.877232 33.43439 
L 153.965339 33.118382 
L 154.204029 32.94748 
L 154.445923 32.93297 
L 154.678205 33.308631 
L 154.960148 33.347326 
L 155.512819 33.298958 
L 157.395106 33.976117 
L 157.713894 33.901952 
L 158.743945 34.016424 
L 159.155645 34.243755 
L 159.096373 33.531126 
L 158.72312 32.902336 
L 158.333847 32.573431 
L 158.628605 32.486367 
L 158.827246 32.599227 
L 159.355888 33.015196 
L 159.53851 33.140954 
L 159.588171 33.431165 
L 159.557734 34.040608 
L 159.32385 34.540415 
L 158.756761 34.659724 
L 157.395106 34.662949 
L 157.492825 34.559763 
L 157.675447 34.243755 
L 157.276562 34.237306 
L 157.069911 34.345329 
L 156.723891 34.920914 
L 156.579716 34.608131 
L 156.387482 34.943486 
L 156.020636 35.917305 
L 155.097915 36.962064 
L 154.537234 37.015269 
L 154.30335 36.962064 
L 153.409464 36.555769 
L 152.975337 36.652506 
L 152.216014 37.052352 
L 151.725819 37.097496 
L 151.725819 37.007208 
L 151.860382 36.826632 
L 150.618874 37.165212 
L 149.94926 37.194233 
L 147.602409 36.778264 
L 147.347699 36.555769 
L 146.835077 36.628322 
L 146.588377 36.347784 
L 146.300027 36.230088 
L 145.91556 35.777036 
L 145.825851 35.743178 
L 145.459005 35.743178 
L 144.861479 35.610971 
L 144.765362 35.960836 
L 145.050509 36.152698 
L 145.343665 36.278456 
L 145.507063 36.555769 
L 145.476626 36.836306 
L 145.185072 36.962064 
L 144.448177 37.087822 
L 144.102156 37.024943 
L 143.906719 36.691201 
L 142.923124 37.087822 
L 142.698852 37.781104 
L 142.402491 37.855269 
L 142.046859 37.700489 
L 141.623946 37.094271 
L 141.402877 36.084982 
L 141.885063 35.598073 
L 142.426521 35.717382 
L 143.301183 35.452967 
L 143.326814 34.985405 
L 143.200261 34.732277 
L 142.633172 33.947095 
L 142.551472 33.502105 
L 142.662007 33.184486 
L 143.036862 33.373123 
L 143.267542 33.608516 
L 143.490213 33.566597 
L 143.988418 32.631473 
L 144.217497 32.652432 
L 144.509051 32.892663 
L 145.497452 32.797538 
L 146.264784 33.015196 
L 146.517891 32.950705 
L 147.280418 32.486367 
L 147.799448 32.315465 
L 148.273624 32.286444 
L 148.717364 32.386406 
L 148.717364 32.386406 
" clip-path="url(#p0314f0461d)" style="fill: none; stroke: #000000; stroke-width: 2"/>
    <path d="M 68.73379 27.846218 
L 68.517527 28.05259 
L 68.525537 27.630172 
L 68.820295 27.333512 
L 69.191947 27.246449 
L 69.44986 27.457658 
L 69.324908 27.497965 
L 69.044567 27.64307 
L 68.73379 27.846218 
" clip-path="url(#p0314f0461d)" style="fill: none; stroke: #000000; stroke-width: 2"/>
    <path d="M 209.520835 26.538657 
L 209.679428 26.765988 
L 209.974186 26.849827 
L 210.260934 26.836929 
L 210.352245 26.891746 
L 210.236905 27.020729 
L 209.900496 27.111017 
L 209.391077 27.078771 
L 209.097921 26.969136 
L 209.025833 26.904645 
L 208.872047 26.859501 
L 208.708648 26.906257 
L 208.66059 26.969136 
L 208.626949 27.056199 
L 208.458745 27.094894 
L 208.263307 26.935278 
L 208.160783 26.68215 
L 208.160783 26.475778 
L 208.324181 26.427409 
L 208.77593 26.56929 
L 208.952144 26.408062 
L 209.030639 26.074319 
L 209.184426 26.01144 
L 209.407097 26.258119 
L 209.520835 26.538657 
" clip-path="url(#p0314f0461d)" style="fill: none; stroke: #000000; stroke-width: 2"/>
    <path d="M 201.759405 20.50227 
L 201.932416 20.542577 
L 202.384164 20.532904 
L 202.560378 20.599007 
L 202.994506 21.074631 
L 204.200771 21.748565 
L 204.473102 22.02104 
L 204.521161 22.258046 
L 204.49553 22.477316 
L 204.508345 22.693362 
L 204.674947 22.906184 
L 204.755045 23.046452 
L 205.008152 23.655895 
L 205.216405 24.033169 
L 205.642523 24.623265 
L 205.815533 25.021499 
L 205.493542 25.04407 
L 205.033783 25.282688 
L 204.753443 25.292362 
L 204.566015 25.223034 
L 204.508345 25.137583 
L 204.473102 25.031172 
L 204.34815 24.886067 
L 204.024557 24.632938 
L 203.864363 24.537814 
L 203.676935 24.468486 
L 203.657712 25.040846 
L 203.33572 24.932823 
L 202.650087 24.34434 
L 202.456252 24.284685 
L 202.268824 24.137968 
L 201.860328 23.725223 
L 201.773823 23.544648 
L 201.704939 23.452747 
L 201.591201 23.399542 
L 201.336492 23.41889 
L 201.233967 23.385032 
L 200.971248 23.077086 
L 200.855908 22.725608 
L 200.831878 21.953325 
L 201.471055 20.628028 
L 201.637657 20.386186 
L 201.759405 20.50227 
" clip-path="url(#p0314f0461d)" style="fill: none; stroke: #000000; stroke-width: 2"/>
   </g>
  </g>
 </g>
 <defs>
  <clipPath id="p0314f0461d">
   <rect x="0" y="-0" width="357.12" height="244.63423"/>
  </clipPath>
 </defs>
</svg>
