<?xml version="1.0" encoding="utf-8" standalone="no"?>
<!DOCTYPE svg PUBLIC "-//W3C//DTD SVG 1.1//EN"
  "http://www.w3.org/Graphics/SVG/1.1/DTD/svg11.dtd">
<svg xmlns:xlink="http://www.w3.org/1999/xlink" width="281.397149pt" height="266.112pt" viewBox="0 0 281.397149 266.112" xmlns="http://www.w3.org/2000/svg" version="1.1">
 <metadata>
  <rdf:RDF xmlns:dc="http://purl.org/dc/elements/1.1/" xmlns:cc="http://creativecommons.org/ns#" xmlns:rdf="http://www.w3.org/1999/02/22-rdf-syntax-ns#">
   <cc:Work>
    <dc:type rdf:resource="http://purl.org/dc/dcmitype/StillImage"/>
    <dc:date>2024-02-02T21:58:04.471931</dc:date>
    <dc:format>image/svg+xml</dc:format>
    <dc:creator>
     <cc:Agent>
      <dc:title>Matplotlib v3.8.2, https://matplotlib.org/</dc:title>
     </cc:Agent>
    </dc:creator>
   </cc:Work>
  </rdf:RDF>
 </metadata>
 <defs>
  <style type="text/css">*{stroke-linejoin: round; stroke-linecap: butt}</style>
 </defs>
 <g id="figure_1">
  <g id="patch_1">
   <path d="M 0 266.112 
L 281.397149 266.112 
L 281.397149 0 
L 0 0 
L 0 266.112 
z
" style="fill: none"/>
  </g>
  <g id="axes_1">
   <g id="PatchCollection_1">
    <path d="M 137.622882 40.898173 
L 146.401567 39.656821 
L 148.33863 38.769039 
L 149.258592 38.565235 
L 150.001418 38.241002 
L 151.441359 36.82055 
L 151.839438 36.655345 
L 152.336131 37.037848 
L 153.494807 37.416291 
L 224.132917 40.973256 
L 225.743936 40.467359 
L 226.184184 40.128134 
L 226.808273 39.032024 
L 227.391239 38.773193 
L 227.889543 38.8379 
L 229.546522 39.555568 
L 230.318166 39.502625 
L 230.567318 39.741848 
L 230.95193 40.577166 
L 231.215596 40.74776 
L 232.018686 40.837958 
L 232.166242 41.047768 
L 231.943699 42.23996 
L 232.364596 42.798799 
L 232.901602 42.796839 
L 233.932074 42.471339 
L 234.357809 42.667423 
L 235.809177 43.822358 
L 236.701769 44.341981 
L 238.588548 45.020432 
L 239.488397 45.749865 
L 240.596275 47.308734 
L 241.314702 47.561683 
L 241.701734 48.106796 
L 242.2847 49.714686 
L 242.804774 52.295153 
L 242.812031 53.152041 
L 242.463702 53.73441 
L 241.941209 54.277563 
L 241.926696 54.683457 
L 242.214551 55.303083 
L 242.601582 55.669761 
L 242.654799 56.067811 
L 242.558041 56.289386 
L 242.587069 57.401183 
L 243.378064 60.158126 
L 243.593351 62.175831 
L 243.840083 62.956246 
L 244.410955 63.760191 
L 244.464172 66.08967 
L 245.022949 68.736806 
L 247.008905 74.638938 
L 248.111945 76.862532 
L 248.581221 78.062566 
L 249.517354 81.649925 
L 249.930994 82.730349 
L 250.35189 83.280365 
L 251.041291 84.955903 
L 252.108046 86.164762 
L 252.05483 87.084396 
L 251.561364 88.088347 
L 251.336402 88.610911 
L 251.304956 89.351129 
L 251.505729 89.994285 
L 252.21448 90.885487 
L 252.521687 91.738453 
L 252.46847 92.436512 
L 252.676499 93.797336 
L 252.303981 95.249339 
L 252.538619 95.958183 
L 252.782933 101.697565 
L 252.461213 103.31918 
L 251.529918 104.450586 
L 248.42157 106.542803 
L 244.510132 107.643816 
L 242.437094 108.837968 
L 240.373731 110.537037 
L 237.524211 114.882261 
L 236.155087 116.689176 
L 235.068979 118.894142 
L 235.141548 118.911789 
L 235.487457 119.201013 
L 235.743866 119.574553 
L 235.818853 120.073587 
L 235.632594 120.748117 
L 236.159925 121.084401 
L 237.843512 121.537355 
L 238.203935 121.397155 
L 238.511142 121.705988 
L 239.964929 122.250121 
L 240.455976 122.302083 
L 240.455976 122.537384 
L 240.351961 122.950141 
L 240.688195 122.820726 
L 240.980887 122.950141 
L 241.191336 123.166814 
L 241.413879 123.208972 
L 241.735599 122.820726 
L 242.059738 123.183482 
L 242.214551 123.362898 
L 242.60642 122.983476 
L 242.695921 123.268778 
L 242.536271 123.85605 
L 243.186968 125.153146 
L 243.64173 125.297268 
L 244.752027 125.262954 
L 245.192275 125.529628 
L 245.605915 126.37279 
L 246.111475 126.669857 
L 246.754915 129.45131 
L 247.023419 130.099368 
L 246.655738 130.372906 
L 246.348532 130.858214 
L 245.905865 131.911185 
L 245.753471 132.609245 
L 245.736538 133.837712 
L 245.676065 134.304392 
L 245.734119 134.351452 
L 245.746214 134.525967 
L 245.465616 134.683815 
L 245.368858 135.506388 
L 245.107612 135.821103 
L 245.905865 137.093689 
L 245.644618 137.976067 
L 245.194694 138.4251 
L 244.703648 138.72805 
L 244.212601 139.461404 
L 243.98522 140.742814 
L 244.280332 141.441854 
L 243.973126 141.651664 
L 244.190831 142.157561 
L 244.30694 142.322271 
L 243.864273 142.78601 
L 243.653824 142.815423 
L 243.653824 143.098764 
L 243.919909 143.39093 
L 243.951355 143.758588 
L 243.827989 144.783127 
L 243.910233 145.328241 
L 244.113424 145.856688 
L 244.626241 146.74887 
L 244.30694 146.74887 
L 244.597214 147.342025 
L 245.289033 147.679289 
L 245.581726 148.952856 
L 245.949406 149.210706 
L 246.704117 149.598953 
L 246.338856 150.357798 
L 246.375141 150.59408 
L 247.519303 152.473546 
L 247.248381 152.601981 
L 247.081473 152.866695 
L 247.052446 153.256902 
L 247.197583 153.769662 
L 246.769429 153.939275 
L 246.35337 154.387327 
L 246.03165 154.945186 
L 245.905865 155.451083 
L 246.058258 156.257969 
L 246.425938 156.451112 
L 246.878282 156.459936 
L 247.277408 156.724649 
L 248.573964 159.613949 
L 249.101295 160.267889 
L 250.291417 161.035559 
L 251.404133 162.193435 
L 251.665379 162.654233 
L 251.278347 162.859141 
L 251.191265 163.208171 
L 251.537175 163.959173 
L 252.354779 165.439608 
L 252.630539 167.26319 
L 252.531362 167.561238 
L 253.000638 167.839677 
L 253.286074 168.039683 
L 253.544901 168.443617 
L 253.762607 169.59463 
L 254.113354 170.190726 
L 255.695346 171.688809 
L 257.645018 172.792762 
L 257.947386 173.267286 
L 257.659531 173.926128 
L 256.948361 174.081035 
L 256.171879 174.086917 
L 255.695346 174.304571 
L 255.076095 173.945737 
L 254.430236 174.033975 
L 253.89323 174.453595 
L 253.605375 175.104594 
L 253.648916 175.830105 
L 253.994826 176.312472 
L 254.548765 176.577186 
L 255.201881 176.659541 
L 255.201881 176.894842 
L 254.897093 177.559567 
L 255.22607 178.139976 
L 255.864672 178.551753 
L 256.493599 178.710581 
L 256.350881 179.575312 
L 256.534721 180.373374 
L 257.13462 181.863613 
L 256.592775 182.830308 
L 256.99674 185.136257 
L 257.08866 185.326459 
L 256.3533 186.250015 
L 254.846295 187.065725 
L 254.780984 187.522601 
L 254.778565 188.746166 
L 254.672131 189.155981 
L 254.159314 190.405037 
L 252.92807 190.934464 
L 248.687655 190.989368 
L 247.475762 191.467813 
L 247.15888 191.791352 
L 246.902471 192.348231 
L 246.592846 193.409046 
L 246.268707 193.899256 
L 244.42305 195.981669 
L 241.406622 198.422917 
L 236.058329 204.476033 
L 235.354415 205.613321 
L 234.498108 206.315302 
L 233.566813 207.391804 
L 231.029337 211.287995 
L 230.049663 212.342928 
L 229.423155 213.905718 
L 228.803905 214.209648 
L 228.576524 214.501814 
L 227.134831 217.246991 
L 226.484134 217.782301 
L 225.980993 217.888186 
L 225.719747 218.125448 
L 225.55042 218.452909 
L 225.146456 219.664709 
L 223.370948 222.180468 
L 222.787982 223.645216 
L 223.395138 225.557036 
L 223.692668 227.812003 
L 223.997456 228.321822 
L 224.633639 229.176749 
L 224.737654 229.780688 
L 225.054536 233.25922 
L 224.965035 233.810216 
L 224.570746 234.965152 
L 224.239351 236.308328 
L 223.743466 237.590718 
L 223.886184 237.792685 
L 223.995037 237.716212 
L 224.304662 237.302474 
L 225.313363 238.184853 
L 225.997925 239.143704 
L 226.428498 239.48293 
L 227.478321 240.108438 
L 227.761338 240.492763 
L 227.763757 240.814341 
L 227.55089 241.5575 
L 227.521863 242.073201 
L 227.623458 242.430074 
L 228.07822 243.3301 
L 227.804879 243.936 
L 227.330766 243.718347 
L 226.813111 243.220293 
L 226.135806 242.898715 
L 225.465757 242.012415 
L 225.211767 241.981041 
L 224.684437 242.151635 
L 222.833942 242.07124 
L 222.258232 241.65162 
L 221.380154 240.618257 
L 220.910879 240.46335 
L 220.417413 240.969247 
L 219.607066 240.543745 
L 217.775922 240.459429 
L 216.917196 240.179028 
L 215.731912 238.910364 
L 215.233608 238.700554 
L 213.939471 238.753497 
L 212.667105 238.237796 
L 212.613888 237.998573 
L 212.676781 237.486794 
L 212.420372 237.182863 
L 212.226856 237.143646 
L 211.431023 237.200511 
L 211.160101 237.073056 
L 210.398132 236.551472 
L 208.741153 236.216168 
L 208.078361 235.700467 
L 207.923549 234.492589 
L 207.628437 233.153335 
L 206.95597 232.00036 
L 206.111757 231.157198 
L 204.851485 230.490512 
L 203.992759 229.653233 
L 203.564605 229.394402 
L 203.09291 229.486562 
L 202.113236 230.468943 
L 201.752813 230.15913 
L 200.966655 228.87674 
L 200.572367 228.449277 
L 200.340148 228.376726 
L 199.800722 228.437512 
L 198.453369 227.525721 
L 196.422522 227.877867 
L 195.995718 228.06103 
L 195.652227 227.953184 
L 194.396793 228.159072 
L 192.115726 227.4767 
L 190.480517 226.655107 
L 190.057201 226.96492 
L 189.326679 228.110051 
L 188.925134 228.508102 
L 188.421993 228.59634 
L 188.063988 228.335548 
L 187.730174 227.941419 
L 187.306858 227.633567 
L 186.944016 227.598272 
L 185.635365 227.982597 
L 185.161251 228.543397 
L 185.446687 228.888505 
L 185.986112 229.235574 
L 186.271548 229.80814 
L 186.080451 230.155209 
L 184.786314 230.335606 
L 184.304944 230.831699 
L 183.540556 232.018008 
L 183.034996 232.482727 
L 182.485895 232.692537 
L 182.055322 232.60626 
L 180.487844 231.488581 
L 180.088718 231.514071 
L 179.563806 231.427794 
L 179.193707 231.141512 
L 177.115831 228.512024 
L 176.75057 228.443394 
L 175.865235 228.594379 
L 175.144389 228.529671 
L 174.904913 228.672813 
L 174.263892 229.427736 
L 173.709953 229.637546 
L 173.197136 229.504209 
L 171.218437 228.435551 
L 170.853176 228.523789 
L 170.858014 229.176749 
L 169.64854 229.22577 
L 168.412458 228.849288 
L 168.172982 229.03949 
L 168.037521 229.623821 
L 167.749666 230.690518 
L 167.633556 230.859151 
L 165.826603 231.027783 
L 165.471017 231.239554 
L 164.730819 232.112128 
L 164.157529 231.988595 
L 164.024487 232.176836 
L 162.991596 234.486707 
L 162.858554 235.812235 
L 162.616659 236.761282 
L 162.159478 237.135803 
L 161.382996 236.73187 
L 160.175941 235.525952 
L 159.525244 235.167119 
L 158.77537 235.255356 
L 158.352054 235.588699 
L 157.565896 236.451469 
L 157.045823 236.655397 
L 155.966972 236.56912 
L 155.376749 236.339701 
L 155.074876 235.893922 
L 155.168719 235.396537 
L 156.158069 233.77296 
L 156.443505 233.643545 
L 156.447056 233.255569 
L 155.836349 232.416058 
L 156.051635 231.97683 
L 155.795227 229.510092 
L 155.572675 228.788539 
L 155.362235 228.61987 
L 154.578496 228.953213 
L 154.104382 229.004195 
L 153.593984 228.94537 
L 152.25017 228.448828 
L 152.43047 226.962959 
L 151.494338 226.953155 
L 151.00571 226.813935 
L 150.604165 226.486475 
L 150.483218 226.215879 
L 150.105862 225.008001 
L 149.39711 222.331452 
L 148.671426 221.749083 
L 148.277137 221.015728 
L 147.950579 220.874547 
L 147.815118 220.937294 
L 147.725617 221.125535 
L 145.519537 223.645216 
L 144.946246 223.827574 
L 143.775476 223.921695 
L 143.393282 224.11974 
L 143.05221 224.462887 
L 142.732909 225.002118 
L 142.399094 226.276665 
L 142.520042 226.570791 
L 142.360391 226.906095 
L 142.004806 226.929625 
L 141.610518 228.445355 
L 140.889671 228.751246 
L 140.059972 228.857132 
L 139.155286 228.298292 
L 138.644888 228.425747 
L 137.740201 228.982626 
L 137.147559 229.031647 
L 136.690378 228.941448 
L 136.559755 228.513985 
L 136.596039 226.704128 
L 136.458159 225.649196 
L 136.66377 225.009961 
L 135.986464 224.572694 
L 133.669112 224.347197 
L 133.768289 223.713845 
L 133.700559 222.929509 
L 133.26031 220.968668 
L 132.875698 219.941187 
L 132.621708 218.33918 
L 132.270961 218.064662 
L 131.199367 218.327415 
L 130.904255 218.141135 
L 130.139868 217.307777 
L 129.806053 217.201892 
L 129.085207 217.135223 
L 128.773162 216.905805 
L 128.625607 216.621483 
L 128.390969 215.51753 
L 127.839449 214.325338 
L 127.433065 213.172364 
L 127.42339 212.154687 
L 128.06683 211.372311 
L 127.44516 211.021321 
L 127.343564 210.556601 
L 127.401619 209.974232 
L 127.256482 209.285976 
L 126.910573 209.066362 
L 125.988954 209.684027 
L 125.44469 209.685988 
L 123.705467 208.680077 
L 122.800781 208.342812 
L 121.857391 208.464384 
L 121.980757 208.529092 
L 122.007366 208.593799 
L 121.351831 209.191856 
L 121.013178 209.262446 
L 120.418117 208.607525 
L 120.156871 207.811424 
L 119.878692 207.595731 
L 119.053831 207.346705 
L 117.960466 206.476091 
L 116.465557 206.180004 
L 116.160769 205.811366 
L 116.313163 205.111346 
L 114.946457 204.177985 
L 114.225611 203.989745 
L 114.329626 204.848593 
L 114.452992 204.903496 
L 114.840024 204.848593 
L 115.004512 205.111346 
L 115.045634 205.489788 
L 114.927106 205.656459 
L 114.165137 205.893721 
L 112.800851 206.038824 
L 112.111451 206.681979 
L 111.259981 206.952575 
L 110.408512 206.764335 
L 108.628166 204.807415 
L 107.895225 203.142661 
L 107.602532 202.695589 
L 107.67752 202.48774 
L 107.895225 202.164201 
L 107.566248 202.09165 
L 106.622859 201.675952 
L 105.938296 201.901449 
L 105.573035 201.728895 
L 104.43613 200.228851 
L 104.387751 199.952373 
L 104.559496 199.570009 
L 104.815905 199.434711 
L 105.945553 199.389611 
L 106.569642 199.134702 
L 107.566248 198.513115 
L 108.040362 198.085652 
L 108.260486 197.511125 
L 107.595276 196.171871 
L 107.641236 195.824802 
L 107.95328 194.779674 
L 107.334029 193.962003 
L 106.937322 193.809057 
L 106.784928 193.911021 
L 106.593831 194.479665 
L 105.899593 195.477733 
L 105.498048 195.81892 
L 104.956204 195.965983 
L 102.863814 195.581658 
L 101.748679 195.687543 
L 100.940751 196.638551 
L 100.691599 196.63659 
L 100.573071 196.554235 
L 100.355365 195.848332 
L 99.844967 195.418908 
L 99.327312 195.460086 
L 99.073323 196.154223 
L 98.761279 195.909118 
L 98.599209 195.518911 
L 98.379085 194.338484 
L 98.231529 194.067888 
L 98.662102 193.887491 
L 98.178312 193.673759 
L 97.08011 193.707094 
L 96.523752 193.540422 
L 95.469091 192.740399 
L 95.183655 191.920767 
L 95.154628 191.403105 
L 94.881287 191.316828 
L 93.845977 191.465852 
L 93.546028 191.301142 
L 92.745356 190.663868 
L 90.340922 189.965809 
L 89.799078 190.032477 
L 88.792795 189.406969 
L 88.258208 189.336379 
L 87.622025 189.73639 
L 87.624444 190.265817 
L 88.374317 191.41291 
L 88.640402 192.107047 
L 89.044366 193.650229 
L 89.482196 194.11887 
L 90.053067 194.465939 
L 90.478802 194.952228 
L 90.725535 195.63264 
L 90.7594 196.554235 
L 91.064187 196.973855 
L 91.110147 197.473869 
L 90.960173 197.797408 
L 90.677156 197.68564 
L 90.178852 196.967972 
L 89.77005 197.066014 
L 89.716833 197.664071 
L 89.506385 197.679758 
L 88.867783 197.526812 
L 88.587185 197.728779 
L 87.97761 198.495468 
L 87.430928 198.64057 
L 86.497214 198.677826 
L 85.972302 199.146467 
L 85.01198 200.744552 
L 84.491907 201.136721 
L 83.77106 202.162241 
L 82.820414 202.234792 
L 81.838321 201.703404 
L 81.032811 200.928872 
L 80.401466 199.893547 
L 79.881392 197.881724 
L 79.172641 197.113075 
L 77.941396 194.950267 
L 77.605163 194.458096 
L 77.085089 194.079653 
L 76.042522 193.683564 
L 75.626463 193.109037 
L 75.585341 192.432547 
L 75.568409 192.079595 
L 75.40392 191.726644 
L 75.181377 191.654093 
L 73.84128 191.746253 
L 73.502627 191.936454 
L 73.091406 191.465852 
L 72.789038 190.487392 
L 72.029488 190.348173 
L 71.809364 189.669722 
L 71.993204 189.067744 
L 72.460061 189.177551 
L 72.41652 189.061861 
L 72.302829 188.64028 
L 72.445547 188.626554 
L 73.911429 187.555935 
L 74.092851 187.065725 
L 74.460531 186.942192 
L 75.210404 187.157884 
L 75.61195 187.065725 
L 75.832074 186.746108 
L 76.514217 185.963732 
L 76.448906 185.985301 
L 76.514217 185.277438 
L 76.681125 184.826444 
L 76.591623 184.540161 
L 77.326984 184.228388 
L 77.114116 183.504837 
L 75.120903 181.326343 
L 74.402476 180.906723 
L 73.638088 180.704756 
L 72.486669 180.753777 
L 71.860162 181.989107 
L 71.465873 182.083227 
L 71.110288 181.910673 
L 70.37009 181.326343 
L 69.383159 181.222418 
L 67.931791 182.67148 
L 66.937603 182.85972 
L 66.891643 182.504808 
L 66.937603 182.381275 
L 67.273837 182.098914 
L 67.327054 181.647921 
L 66.995658 180.610636 
L 66.690871 180.01454 
L 66.376407 179.700805 
L 65.989376 179.643941 
L 64.603319 180.181212 
L 63.805066 180.145916 
L 62.547213 177.841928 
L 62.496415 177.583097 
L 61.915868 177.526233 
L 59.971034 178.01056 
L 59.552556 177.757612 
L 59.242931 177.269362 
L 58.976847 177.087004 
L 54.293764 175.400681 
L 53.318928 175.484997 
L 52.580617 176.435002 
L 52.288456 176.339924 
L 52.138482 176.026189 
L 52.215888 174.916353 
L 51.93529 174.204568 
L 51.579705 173.902598 
L 51.156389 173.710436 
L 50.689532 173.326111 
L 50.16462 172.286865 
L 49.876766 171.078987 
L 50.268635 169.6162 
L 49.893698 168.994613 
L 49.26961 168.676957 
L 47.93677 168.655387 
L 47.334452 167.380841 
L 47.032083 167.598494 
L 46.744228 168.484794 
L 46.480563 168.539698 
L 46.151586 168.373026 
L 45.875826 168.094587 
L 45.677472 167.720066 
L 44.492188 167.453392 
L 44.047102 167.034752 
L 43.872937 167.522021 
L 43.040819 168.098508 
L 43.139996 168.527933 
L 43.519771 168.835785 
L 43.875356 169.367173 
L 43.829396 170.661328 
L 43.534285 171.057418 
L 43.553636 171.522137 
L 43.534285 173.167283 
L 40.861348 172.965316 
L 40.014716 173.20846 
L 39.516413 173.190813 
L 39.518832 172.48491 
L 39.850227 171.92411 
L 40.682346 170.975062 
L 41.862792 168.098508 
L 43.121762 165.747817 
L 43.592925 163.930875 
L 43.529793 163.630877 
L 43.730459 163.331223 
L 43.839976 162.719509 
L 43.805447 161.776174 
L 44.240824 159.696668 
L 44.470418 158.835495 
L 44.771059 158.481407 
L 44.511995 158.223304 
L 44.92962 157.495444 
L 44.542694 156.534379 
L 43.763368 155.513768 
L 43.165183 154.114085 
L 43.520038 153.638788 
L 43.150594 152.850428 
L 43.143234 151.634649 
L 43.011541 151.380372 
L 43.281246 151.442958 
L 43.335961 151.292023 
L 42.805863 149.964892 
L 42.250594 149.89014 
L 42.00761 149.476549 
L 41.610048 149.531662 
L 41.373198 149.386953 
L 40.961138 149.393123 
L 40.814179 149.235514 
L 40.505422 149.23189 
L 40.120193 148.866089 
L 39.59804 148.577297 
L 39.19876 148.19692 
L 37.983319 147.915443 
L 37.633794 147.576557 
L 37.649036 146.974524 
L 37.178065 146.491383 
L 37.230507 146.289053 
L 37.56049 146.029387 
L 37.685269 145.560601 
L 38.381355 144.939289 
L 38.460481 144.457188 
L 38.212733 143.970923 
L 38.163849 142.472376 
L 37.876187 141.849665 
L 37.608461 141.717157 
L 36.156549 140.108866 
L 35.920601 139.665077 
L 36.098409 139.064222 
L 35.792885 138.838308 
L 35.883057 138.456018 
L 35.633498 137.620083 
L 35.026767 137.340388 
L 34.5963 136.917863 
L 34.497096 135.854437 
L 36.270185 133.901439 
L 36.630608 133.218086 
L 36.828962 132.475908 
L 36.911206 130.159174 
L 37.036991 129.790536 
L 37.641728 128.513048 
L 37.760257 127.824792 
L 37.939259 127.502234 
L 38.369832 126.965944 
L 36.848313 125.826695 
L 36.613676 125.282562 
L 36.756393 124.29822 
L 37.097465 123.065831 
L 36.758812 122.537384 
L 36.758812 122.302083 
L 37.215994 121.700105 
L 37.22325 120.923612 
L 36.860408 120.256926 
L 36.204873 119.971624 
L 35.539663 119.817698 
L 34.746248 119.411804 
L 34.221336 118.824532 
L 34.361635 118.134316 
L 33.870589 117.030362 
L 33.314231 115.374432 
L 33.183608 113.867525 
L 34.395501 112.807691 
L 34.961534 111.916488 
L 35.348566 111.026267 
L 35.239713 110.621353 
L 34.804303 110.227224 
L 34.985724 109.345826 
L 35.641259 107.984022 
L 34.77864 107.242513 
L 33.420665 105.734937 
L 32.020094 105.186882 
L 31.347626 104.279012 
L 30.658226 103.841745 
L 29.857555 102.284837 
L 29.494713 101.866197 
L 26.369432 99.724959 
L 25.605045 98.836698 
L 25.135769 98.63277 
L 24.615695 98.595514 
L 24.124649 98.444529 
L 23.718266 98.130795 
L 23.449762 97.597446 
L 24.071432 97.067039 
L 24.313327 96.607221 
L 24.410085 95.889553 
L 24.356868 95.41503 
L 23.931133 93.451247 
L 25.0632 92.626714 
L 26.487961 91.897281 
L 27.966111 90.456677 
L 28.585188 90.085464 
L 28.964963 89.082493 
L 29.666458 86.934392 
L 29.47778 85.848086 
L 29.393117 85.231401 
L 29.445742 84.23306 
L 29.872839 84.087751 
L 30.104287 83.795085 
L 30.161398 83.389303 
L 30.885608 82.374456 
L 30.130896 81.593061 
L 29.988178 81.351877 
L 29.915609 80.979317 
L 29.864812 79.969484 
L 29.216534 77.04489 
L 28.97222 75.080127 
L 28.481174 74.278143 
L 28.23686 73.485963 
L 27.668407 72.634958 
L 27.499081 71.852582 
L 27.5015 69.248585 
L 26.657287 67.030874 
L 26.754045 66.440661 
L 26.726513 65.370088 
L 26.955075 65.345384 
L 27.37601 65.169372 
L 27.684568 64.893001 
L 27.715043 64.584207 
L 27.303632 64.307837 
L 27.608381 64.046906 
L 27.532194 63.917213 
L 27.303632 63.789063 
L 27.435055 63.506517 
L 27.993127 63.86163 
L 28.282639 64.07161 
L 28.555008 64.803451 
L 28.886423 65.048942 
L 29.526397 65.345384 
L 30.252081 66.038626 
L 31.284419 66.208463 
L 32.54151 66.642319 
L 32.977683 66.971184 
L 33.333859 67.465254 
L 34.371911 69.225379 
L 34.495715 69.114214 
L 34.629043 68.152321 
L 35.131879 67.531645 
L 35.149022 67.159548 
L 34.897603 67.088526 
L 34.297628 67.036031 
L 34.029068 66.900161 
L 33.303384 65.215691 
L 33.455758 64.377315 
L 34.029068 62.731444 
L 34.297628 62.959952 
L 35.149022 62.731444 
L 34.983314 61.774183 
L 35.309015 59.620346 
L 35.091881 60.074273 
L 34.909032 60.375347 
L 34.349055 60.91728 
L 34.495715 61.176667 
L 34.126207 60.992935 
L 33.869075 60.657893 
L 34.349055 60.139119 
L 34.027163 59.495284 
L 33.470996 59.192666 
L 30.874913 58.933279 
L 30.509213 58.545743 
L 30.728252 57.730527 
L 30.701586 57.68884 
L 30.657779 57.546795 
L 30.427312 57.926611 
L 30.244462 57.98065 
L 29.766387 57.806182 
L 29.562586 57.88338 
L 29.046417 58.562727 
L 30.126372 58.859169 
L 30.324459 59.103116 
L 30.278747 59.563219 
L 30.034947 59.89826 
L 29.737817 60.029498 
L 29.526397 59.879733 
L 28.568341 60.366083 
L 28.233117 60.398506 
L 28.233117 60.657893 
L 28.537866 60.857065 
L 28.012174 60.884857 
L 26.977931 60.406226 
L 25.852263 58.843729 
L 25.249488 58.609145 
L 25.060782 58.016887 
L 24.651979 57.534521 
L 25.068038 57.344319 
L 25.466141 56.321113 
L 26.823651 56.952367 
L 29.139746 57.136099 
L 30.069232 56.952367 
L 30.977765 56.489176 
L 32.657696 55.304951 
L 38.849821 52.672483 
L 44.190553 51.33695 
L 50.702665 48.716834 
L 59.536585 46.456463 
L 64.075445 44.500253 
L 67.846718 44.052502 
L 70.437087 43.228023 
L 70.141861 43.512113 
L 68.981909 44.006183 
L 69.49046 44.348944 
L 71.553232 44.006183 
L 71.553232 43.7715 
L 71.393238 43.7715 
L 71.393238 43.490497 
L 72.509382 43.490497 
L 72.473193 43.271254 
L 72.429386 43.283606 
L 72.349389 43.228023 
L 72.395101 42.616611 
L 71.856076 42.591907 
L 70.581843 42.971724 
L 71.387524 42.593451 
L 72.357008 41.991303 
L 73.804567 40.379399 
L 73.511246 40.944492 
L 72.783657 41.745812 
L 73.793139 41.446282 
L 74.11884 41.075729 
L 74.939758 40.708265 
L 75.240698 40.379399 
L 74.962614 39.828202 
L 74.497872 39.814306 
L 73.949323 40.379399 
L 74.941663 38.758231 
L 77.652027 35.458769 
L 77.652027 35.691908 
L 77.526318 36.062461 
L 77.762499 36.156643 
L 78.139626 36.020774 
L 78.438661 35.691908 
L 78.587227 35.182398 
L 78.450089 35.026457 
L 78.147245 35.146887 
L 77.798688 35.458769 
L 78.278668 34.552459 
L 79.091968 33.783562 
L 80.689997 32.843285 
L 85.579319 32.162394 
L 87.478288 31.44908 
L 88.474437 31.290051 
L 89.35821 30.990521 
L 91.601927 28.674567 
L 98.660683 25.565013 
L 107.51365 23.993252 
L 111.486819 22.714845 
L 117.73418 22.176 
L 121.58545 22.176 
L 122.114952 22.359732 
L 123.276808 23.208916 
L 123.768217 23.315449 
L 131.762172 27.800681 
L 133.455435 29.996205 
L 133.695425 30.586001 
L 133.718282 31.101687 
L 133.304965 31.290051 
L 133.087831 30.883987 
L 132.94498 30.610705 
L 132.518331 30.326614 
L 132.232629 29.614845 
L 131.847883 29.151654 
L 130.733643 27.377633 
L 130.516509 27.280363 
L 129.48798 27.039504 
L 129.265132 26.682847 
L 128.602303 26.466691 
L 127.204265 25.565013 
L 125.829084 24.944337 
L 125.608141 24.647895 
L 124.64818 24.010236 
L 124.362478 24.130665 
L 124.213912 24.325205 
L 123.836785 25.659195 
L 123.836785 26.21348 
L 123.962494 26.353981 
L 124.64818 26.732254 
L 125.272916 27.896407 
L 125.177682 28.686919 
L 125.448147 28.957114 
L 125.307201 29.698219 
L 125.573856 30.013189 
L 126.019552 29.925182 
L 126.408108 29.452728 
L 126.27097 30.082667 
L 126.459534 30.586001 
L 126.75095 31.012137 
L 127.524252 33.102671 
L 127.432827 33.97347 
L 127.451874 35.474208 
L 127.604249 36.896204 
L 127.931854 37.530776 
L 128.299458 37.646573 
L 129.013714 38.165347 
L 130.41937 38.636258 
L 130.562222 38.966667 
L 130.956491 39.490073 
L 134.902995 40.699001 
L 135.775339 40.76076 
L 136.504833 40.379399 
L 136.979099 40.714441 
L 137.622882 40.898173 
L 137.622882 40.898173 
" clip-path="url(#p56e9fd159f)" style="fill: none; stroke: #000000; stroke-width: 2"/>
   </g>
  </g>
 </g>
 <defs>
  <clipPath id="p56e9fd159f">
   <rect x="0" y="-0" width="281.397149" height="266.112"/>
  </clipPath>
 </defs>
</svg>
