<?xml version="1.0" encoding="utf-8" standalone="no"?>
<!DOCTYPE svg PUBLIC "-//W3C//DTD SVG 1.1//EN"
  "http://www.w3.org/Graphics/SVG/1.1/DTD/svg11.dtd">
<svg xmlns:xlink="http://www.w3.org/1999/xlink" width="357.12pt" height="83.74087pt" viewBox="0 0 357.12 83.74087" xmlns="http://www.w3.org/2000/svg" version="1.1">
 <metadata>
  <rdf:RDF xmlns:dc="http://purl.org/dc/elements/1.1/" xmlns:cc="http://creativecommons.org/ns#" xmlns:rdf="http://www.w3.org/1999/02/22-rdf-syntax-ns#">
   <cc:Work>
    <dc:type rdf:resource="http://purl.org/dc/dcmitype/StillImage"/>
    <dc:date>2024-02-02T21:58:04.496935</dc:date>
    <dc:format>image/svg+xml</dc:format>
    <dc:creator>
     <cc:Agent>
      <dc:title>Matplotlib v3.8.2, https://matplotlib.org/</dc:title>
     </cc:Agent>
    </dc:creator>
   </cc:Work>
  </rdf:RDF>
 </metadata>
 <defs>
  <style type="text/css">*{stroke-linejoin: round; stroke-linecap: butt}</style>
 </defs>
 <g id="figure_1">
  <g id="patch_1">
   <path d="M 0 83.74087 
L 357.12 83.74087 
L 357.12 -0 
L 0 -0 
L 0 83.74087 
z
" style="fill: none"/>
  </g>
  <g id="axes_1">
   <g id="PatchCollection_1">
    <path d="M 36.904594 61.576786 
L 35.865953 61.680927 
L 34.827311 61.576786 
L 34.355202 61.240694 
L 33.640293 60.185081 
L 30.49739 58.428882 
L 29.76 56.833629 
L 30.479405 55.148435 
L 31.75635 54.476251 
L 38.150065 54.286904 
L 38.815515 54.452583 
L 40.087963 55.631272 
L 40.110444 56.445466 
L 39.489957 57.250194 
L 38.365886 59.28568 
L 37.898273 59.796919 
L 37.525081 60.327092 
L 37.376704 61.240694 
L 36.904594 61.576786 
" clip-path="url(#p66a400fd84)" style="fill: none; stroke: #000000; stroke-width: 2"/>
    <path d="M 323.920343 51.839586 
L 323.111012 52.265618 
L 320.156954 52.066803 
L 319.410571 52.346091 
L 317.310807 53.804067 
L 316.730786 54.452583 
L 315.966418 54.452583 
L 314.986228 53.501111 
L 313.372063 53.889274 
L 311.267802 54.76974 
L 302.612457 56.80996 
L 300.881388 57.633622 
L 298.601772 56.8999 
L 295.162115 57.316465 
L 291.947273 56.866765 
L 290.252174 53.586318 
L 291.965258 53.529513 
L 292.518301 53.586318 
L 294.703494 53.39697 
L 296.902177 52.56384 
L 298.898527 51.361483 
L 300.472226 50.078653 
L 301.515363 49.524811 
L 310.35056 48.095237 
L 311.757897 48.346123 
L 315.597723 49.681023 
L 321.397928 49.912974 
L 322.836739 50.476283 
L 323.920343 51.839586 
" clip-path="url(#p66a400fd84)" style="fill: none; stroke: #000000; stroke-width: 2"/>
    <path d="M 326.0291 30.111949 
L 327.36 32.133234 
L 327.036268 32.213707 
L 325.849249 32.133234 
L 326.604624 32.928494 
L 325.426598 32.985299 
L 324.509356 32.729679 
L 323.888869 32.156903 
L 323.583122 31.271703 
L 322.836739 31.271703 
L 323.834914 33.250385 
L 324.023758 34.173455 
L 323.583122 35.314274 
L 322.058882 32.900092 
L 317.445695 28.578233 
L 317.477169 28.166402 
L 320.197421 28.152201 
L 323.349315 28.791249 
L 326.0291 30.111949 
" clip-path="url(#p66a400fd84)" style="fill: none; stroke: #000000; stroke-width: 2"/>
    <path d="M 132.023468 8.957088 
L 143.630848 11.334888 
L 155.107386 9.828087 
L 156.681085 10.031636 
L 160.826659 11.484879 
L 162.472298 11.58902 
L 166.797723 10.623347 
L 173.074534 10.045837 
L 176.006111 10.415065 
L 178.937688 11.484879 
L 180.745194 11.139319 
L 187.858314 11.210325 
L 192.237694 12.502622 
L 201.634926 10.623347 
L 210.312753 13.255279 
L 215.366575 11.778367 
L 221.21624 13.652909 
L 222.453953 12.700463 
L 223.900521 12.942855 
L 225.096532 14.590179 
L 226.034676 15.060711 
L 227.092884 14.429544 
L 227.968318 13.268661 
L 229.06675 13.596104 
L 228.699276 15.123798 
L 230.841837 16.25563 
L 231.197989 17.401991 
L 231.903905 18.859968 
L 233.594508 18.954641 
L 237.236497 17.842224 
L 237.236497 16.975959 
L 235.40651 16.739275 
L 233.396671 15.712064 
L 230.449501 12.713995 
L 237.713103 15.00201 
L 239.502624 15.385439 
L 240.775401 15.808472 
L 242.552793 16.146863 
L 244.142053 15.422895 
L 245.118482 13.922729 
L 247.622912 14.46237 
L 252.68143 15.922614 
L 254.406608 14.755133 
L 255.734207 15.025679 
L 257.092084 16.048156 
L 260.653141 16.852883 
L 262.586543 17.922697 
L 264.597025 20.050656 
L 265.810302 19.464578 
L 266.634306 18.305572 
L 267.277591 18.556462 
L 267.410074 19.131411 
L 266.838854 19.776321 
L 266.398015 20.676211 
L 267.230093 20.477389 
L 268.379853 20.019953 
L 269.080975 19.566147 
L 270.962217 22.303411 
L 272.829155 23.312718 
L 274.294241 22.277128 
L 277.259389 24.622004 
L 281.106414 25.168448 
L 283.035639 23.773538 
L 283.916911 22.926207 
L 284.843145 22.30136 
L 285.724416 22.533311 
L 285.769379 23.323837 
L 284.690271 29.075271 
L 284.447472 33.941504 
L 284.906093 35.314274 
L 284.451968 36.743848 
L 285.238818 37.567511 
L 286.146258 37.973436 
L 287.681024 37.215311 
L 287.36222 38.291479 
L 287.673145 39.137237 
L 289.000183 40.935215 
L 287.856696 41.764851 
L 287.699738 42.751706 
L 286.71517 42.840958 
L 285.634957 41.123853 
L 284.403414 41.133135 
L 284.002141 42.367846 
L 285.080641 43.83848 
L 284.020282 44.749645 
L 282.704863 44.512944 
L 280.850445 43.546161 
L 278.92154 44.19941 
L 276.898212 45.198219 
L 274.717515 45.709457 
L 272.892024 46.542587 
L 270.976607 48.454998 
L 267.063008 54.536223 
L 266.747759 57.600688 
L 265.216868 59.617039 
L 264.64584 59.967332 
L 262.091951 60.525907 
L 261.516427 61.240694 
L 262.645158 64.665026 
L 260.493021 66.665489 
L 256.35675 69.223018 
L 250.617436 71.224046 
L 248.126495 71.167242 
L 245.599584 70.627602 
L 243.337954 70.409852 
L 242.002558 70.693873 
L 238.747248 72.000372 
L 237.969391 72.085578 
L 234.597179 72.000372 
L 232.326556 72.573148 
L 225.851908 76.038209 
L 224.485038 76.147084 
L 223.266545 76.099747 
L 222.200926 76.203888 
L 221.324151 76.762464 
L 220.703664 75.721052 
L 220.636219 75.171944 
L 221.836727 74.821651 
L 222.119993 74.263075 
L 221.661372 73.553022 
L 220.636219 72.786164 
L 218.486996 74.726977 
L 217.219044 75.086738 
L 215.654337 74.698575 
L 212.610353 74.376684 
L 211.558223 74.106864 
L 210.991692 73.448881 
L 210.587026 72.658354 
L 210.007005 72.000372 
L 208.62215 71.242981 
L 207.632968 71.015764 
L 205.825462 71.129373 
L 203.262581 71.749486 
L 200.115182 73.931717 
L 197.867041 73.657163 
L 195.722313 71.981437 
L 193.928296 69.870211 
L 192.04885 68.648919 
L 189.987618 69.091941 
L 188.421905 69.294171 
L 187.255812 69.889146 
L 185.655135 70.201569 
L 182.022138 70.409852 
L 180.857601 71.01103 
L 179.729034 71.773154 
L 178.416119 72.033507 
L 176.676057 71.129373 
L 175.8982 71.66428 
L 175.097862 72.000372 
L 174.342486 70.684406 
L 172.440558 70.513993 
L 167.930786 71.129373 
L 167.094478 70.925824 
L 163.780717 69.614592 
L 159.252959 69.614592 
L 159.342885 68.024072 
L 158.358199 67.541236 
L 156.874426 67.872594 
L 155.476082 68.743593 
L 155.476082 69.614592 
L 156.986833 69.614592 
L 155.714384 71.366057 
L 153.533687 72.568414 
L 151.006776 73.297403 
L 148.695686 73.657163 
L 145.251533 73.534087 
L 143.57442 73.7045 
L 142.337942 73.595625 
L 141.762417 73.657163 
L 141.321782 74.130532 
L 141.132938 74.935259 
L 141.078982 76.038209 
L 139.010692 75.796791 
L 137.450482 74.651238 
L 134.968533 72.000372 
L 132.730647 71.877345 
L 130.236769 71.455405 
L 127.564347 71.498597 
L 125.984959 70.987362 
L 124.44723 72.303328 
L 122.635228 73.278468 
L 121.016566 73.657163 
L 119.685666 73.477283 
L 115.868203 73.080486 
L 113.447415 71.736849 
L 112.259078 72.68201 
L 113.035789 75.348614 
L 111.833442 75.277634 
L 110.227099 72.810468 
L 109.656808 71.711655 
L 109.70344 68.476519 
L 114.991547 66.04539 
L 115.355745 65.174391 
L 114.910613 64.549544 
L 113.844994 63.990968 
L 112.385686 64.268612 
L 110.97133 63.640157 
L 111.05322 61.471507 
L 111.797308 60.37676 
L 112.870011 59.602049 
L 112.422696 58.417498 
L 111.965651 56.475572 
L 113.14052 55.267235 
L 113.081544 51.514705 
L 114.195704 47.299977 
L 115.981349 45.48978 
L 116.608775 44.133546 
L 115.878665 42.904409 
L 114.471641 41.634913 
L 112.716427 36.062197 
L 111.674512 33.90232 
L 107.210865 32.910761 
L 105.457446 29.481758 
L 104.371614 27.797742 
L 103.460926 25.702094 
L 103.683841 24.879194 
L 106.839465 23.958705 
L 111.46646 21.99367 
L 113.022174 21.01853 
L 115.769713 18.828513 
L 115.917022 16.245862 
L 114.747843 14.210713 
L 114.60332 11.254038 
L 116.628194 8.58786 
L 122.149629 6.978406 
L 128.035264 7.167753 
L 132.023468 8.957088 
L 132.023468 8.957088 
" clip-path="url(#p66a400fd84)" style="fill: none; stroke: #000000; stroke-width: 2"/>
   </g>
  </g>
 </g>
 <defs>
  <clipPath id="p66a400fd84">
   <rect x="0" y="0" width="357.12" height="83.74087"/>
  </clipPath>
 </defs>
</svg>
