<?xml version="1.0" encoding="utf-8" standalone="no"?>
<!DOCTYPE svg PUBLIC "-//W3C//DTD SVG 1.1//EN"
  "http://www.w3.org/Graphics/SVG/1.1/DTD/svg11.dtd">
<svg xmlns:xlink="http://www.w3.org/1999/xlink" width="246.700961pt" height="266.112pt" viewBox="0 0 246.700961 266.112" xmlns="http://www.w3.org/2000/svg" version="1.1">
 <metadata>
  <rdf:RDF xmlns:dc="http://purl.org/dc/elements/1.1/" xmlns:cc="http://creativecommons.org/ns#" xmlns:rdf="http://www.w3.org/1999/02/22-rdf-syntax-ns#">
   <cc:Work>
    <dc:type rdf:resource="http://purl.org/dc/dcmitype/StillImage"/>
    <dc:date>2024-02-02T21:58:04.523942</dc:date>
    <dc:format>image/svg+xml</dc:format>
    <dc:creator>
     <cc:Agent>
      <dc:title>Matplotlib v3.8.2, https://matplotlib.org/</dc:title>
     </cc:Agent>
    </dc:creator>
   </cc:Work>
  </rdf:RDF>
 </metadata>
 <defs>
  <style type="text/css">*{stroke-linejoin: round; stroke-linecap: butt}</style>
 </defs>
 <g id="figure_1">
  <g id="patch_1">
   <path d="M 0 266.112 
L 246.700961 266.112 
L 246.700961 0 
L 0 0 
L 0 266.112 
z
" style="fill: none"/>
  </g>
  <g id="axes_1">
   <g id="PatchCollection_1">
    <path d="M 55.45604 241.20089 
L 54.917149 241.774299 
L 54.08174 242.335867 
L 53.816162 242.613269 
L 53.367516 242.927883 
L 52.717753 243.073349 
L 52.534685 242.765501 
L 53.473232 241.605151 
L 53.921877 241.375111 
L 54.246759 241.515503 
L 54.32669 241.239793 
L 54.401464 240.86767 
L 54.57164 240.864287 
L 54.65415 240.815234 
L 54.695405 240.691757 
L 54.821747 240.617332 
L 55.0306 240.586885 
L 55.963989 240.150485 
L 56.247616 240.065912 
L 55.45604 241.20089 
" clip-path="url(#p5f6e2a640e)" style="fill: none; stroke: #000000; stroke-width: 2"/>
    <path d="M 50.49773 239.318281 
L 50.226996 239.363951 
L 50.07229 239.008742 
L 50.025879 238.785467 
L 50.188319 238.672139 
L 50.812298 238.195144 
L 51.371816 237.982018 
L 51.518786 237.971869 
L 51.611609 238.120719 
L 51.658021 238.303398 
L 51.575512 238.389663 
L 51.410492 238.425184 
L 50.987631 238.881881 
L 50.49773 239.318281 
" clip-path="url(#p5f6e2a640e)" style="fill: none; stroke: #000000; stroke-width: 2"/>
    <path d="M 46.960133 237.741829 
L 46.869888 238.046294 
L 46.80027 238.032762 
L 46.699712 238.039528 
L 46.35936 238.420109 
L 46.049949 238.530055 
L 45.707019 238.533438 
L 45.47496 238.415035 
L 45.477539 238.222207 
L 45.629666 238.124102 
L 45.763744 237.963412 
L 45.926185 237.856849 
L 46.150508 237.921125 
L 46.351625 238.022614 
L 46.449605 237.982018 
L 46.480546 237.809488 
L 46.501173 237.721532 
L 46.428977 237.516863 
L 46.511487 237.261451 
L 46.838947 237.332493 
L 46.960133 237.741829 
" clip-path="url(#p5f6e2a640e)" style="fill: none; stroke: #000000; stroke-width: 2"/>
    <path d="M 41.854853 208.479362 
L 42.391165 209.445193 
L 42.504616 209.900199 
L 41.145787 209.506086 
L 40.503759 209.221918 
L 39.908143 208.736466 
L 39.19392 209.313258 
L 38.902558 208.942825 
L 39.034057 208.256088 
L 40.230446 207.461096 
L 40.612053 207.373139 
L 40.774494 207.758795 
L 41.292757 207.941474 
L 41.656315 208.156291 
L 41.854853 208.479362 
" clip-path="url(#p5f6e2a640e)" style="fill: none; stroke: #000000; stroke-width: 2"/>
    <path d="M 33.083055 171.08768 
L 32.938663 171.114744 
L 32.74786 170.996341 
L 32.655037 170.630983 
L 32.647301 170.307911 
L 32.92835 170.20304 
L 33.27128 169.878277 
L 33.330584 170.208114 
L 33.351211 170.279156 
L 33.438878 170.412783 
L 33.477554 170.88132 
L 33.083055 171.08768 
" clip-path="url(#p5f6e2a640e)" style="fill: none; stroke: #000000; stroke-width: 2"/>
    <path d="M 36.195213 167.733491 
L 35.97089 167.988903 
L 35.553373 167.961785 
L 35.412763 167.775424 
L 35.527457 167.427539 
L 35.470576 167.216149 
L 35.651165 166.967254 
L 35.839568 166.638362 
L 36.190888 166.555328 
L 36.288187 166.832898 
L 36.287153 167.293577 
L 36.195213 167.733491 
" clip-path="url(#p5f6e2a640e)" style="fill: none; stroke: #000000; stroke-width: 2"/>
    <path d="M 35.764616 165.201357 
L 35.981204 165.482141 
L 35.903851 165.861031 
L 35.630538 166.236538 
L 35.26698 166.495333 
L 34.82607 166.500408 
L 34.292336 166.114752 
L 32.985075 166.495333 
L 32.884516 166.591747 
L 32.742703 166.520705 
L 32.791693 166.243304 
L 33.021173 166.048785 
L 33.325427 165.876254 
L 33.851425 165.390802 
L 33.982925 165.438163 
L 34.418679 165.384036 
L 35.212833 165.160762 
L 35.764616 165.201357 
" clip-path="url(#p5f6e2a640e)" style="fill: none; stroke: #000000; stroke-width: 2"/>
    <path d="M 41.845606 166.954651 
L 41.163836 167.779161 
L 40.56157 167.881975 
L 39.798234 168.285967 
L 40.380075 167.226151 
L 40.788449 167.409275 
L 41.015112 166.93683 
L 40.565279 166.499233 
L 40.636083 166.301759 
L 41.003006 166.25804 
L 41.017625 166.088661 
L 41.102814 165.887623 
L 40.933984 165.744693 
L 40.936063 165.030645 
L 41.444493 164.732198 
L 41.418638 164.120161 
L 41.800823 163.778763 
L 41.759702 163.421876 
L 42.352886 163.352472 
L 43.225705 163.740646 
L 43.082673 164.010748 
L 42.684948 164.207594 
L 43.020163 165.092003 
L 43.443317 165.995523 
L 42.761582 166.40041 
L 41.845606 166.954651 
" clip-path="url(#p5f6e2a640e)" style="fill: none; stroke: #000000; stroke-width: 2"/>
    <path d="M 21.067926 155.848486 
L 21.024144 155.982241 
L 20.934606 155.976677 
L 20.871621 155.881778 
L 20.709938 155.845545 
L 20.569382 155.826998 
L 20.5653 155.809736 
L 20.558413 155.646269 
L 20.598729 155.457369 
L 20.664074 155.324645 
L 20.810512 155.171687 
L 20.756707 155.007791 
L 20.842176 154.991328 
L 20.932281 154.927808 
L 20.865046 154.836952 
L 20.942093 154.794834 
L 21.057413 154.740331 
L 21.150946 154.745583 
L 21.210458 154.827616 
L 21.29084 154.89289 
L 21.33608 155.065265 
L 21.463634 155.100975 
L 21.454123 155.21703 
L 21.45332 155.307388 
L 21.555547 155.321345 
L 21.554377 155.433107 
L 21.51878 155.548536 
L 21.398641 155.585479 
L 21.317042 155.692794 
L 21.162758 155.697998 
L 21.067926 155.848486 
" clip-path="url(#p5f6e2a640e)" style="fill: none; stroke: #000000; stroke-width: 2"/>
    <path d="M 203.82937 24.186687 
L 204.225597 24.242539 
L 205.463395 24.186687 
L 206.953337 23.561569 
L 207.814556 23.357493 
L 208.197684 23.736645 
L 208.099446 24.287651 
L 207.847302 24.958954 
L 207.500195 25.551848 
L 207.094145 25.865481 
L 208.413808 26.463746 
L 210.106775 26.418635 
L 211.537775 26.666748 
L 212.091182 28.136096 
L 211.639287 31.664465 
L 211.665484 33.271296 
L 212.287658 34.71594 
L 214.013371 36.429105 
L 214.255691 37.140149 
L 216.416926 38.971464 
L 217.042375 39.038057 
L 217.28797 39.053094 
L 217.517191 39.25717 
L 217.589233 39.584766 
L 217.474622 40.39033 
L 217.628528 40.830704 
L 218.303095 41.336598 
L 218.79101 41.10567 
L 218.889248 40.488071 
L 218.38496 39.847917 
L 218.787736 39.214207 
L 219.305122 38.814647 
L 219.85198 38.782425 
L 220.330072 39.25717 
L 220.425035 39.705064 
L 220.781966 42.12068 
L 221.217488 43.126024 
L 221.387767 43.78766 
L 221.669382 44.106663 
L 222.203142 45.643678 
L 222.576446 46.214017 
L 223.162599 46.687689 
L 223.879736 46.929358 
L 224.426594 47.50829 
L 224.770427 48.240815 
L 224.894862 49.240788 
L 224.963628 50.846545 
L 225.284539 51.238586 
L 226.142548 51.904865 
L 226.002982 52.158855 
L 223.501997 52.852366 
L 223.096522 53.228905 
L 222.897588 53.248859 
L 222.901469 52.0368 
L 222.816381 51.778005 
L 222.004806 51.067334 
L 221.090256 50.937986 
L 220.410679 50.554207 
L 220.129865 50.214307 
L 219.195019 50.049167 
L 218.718772 50.257001 
L 218.837378 50.78401 
L 218.427502 51.212426 
L 217.909111 51.322187 
L 217.647428 50.948216 
L 217.245674 50.687421 
L 216.874691 50.679977 
L 216.824124 51.405881 
L 216.136708 52.067686 
L 216.357429 53.193767 
L 216.824124 53.330776 
L 216.829281 53.797622 
L 216.66684 54.091938 
L 216.427047 54.025971 
L 215.947379 53.453611 
L 215.624522 53.543731 
L 215.392068 54.043516 
L 215.682986 54.527925 
L 215.334198 54.641769 
L 215.10217 55.190057 
L 214.581036 55.276669 
L 214.441225 56.211617 
L 214.064989 56.493361 
L 213.692887 56.558893 
L 213.728826 55.958594 
L 213.965669 55.073649 
L 213.705305 54.349839 
L 213.285961 54.318676 
L 211.929303 55.638667 
L 211.220293 56.588075 
L 210.775141 56.913314 
L 210.373968 56.958071 
L 210.437724 57.536185 
L 210.280084 59.961347 
L 210.107329 59.974878 
L 209.836595 59.853092 
L 209.475616 60.066218 
L 209.04244 60.634552 
L 209.148156 60.702211 
L 209.243557 60.967772 
L 209.016578 61.144704 
L 208.721167 61.09208 
L 207.769407 60.427886 
L 206.904534 60.43914 
L 206.279379 60.911036 
L 206.088459 62.015126 
L 205.619759 62.078899 
L 205.388027 62.677039 
L 204.814839 64.476011 
L 204.438862 63.573777 
L 204.056562 63.718935 
L 204.006283 64.568852 
L 203.400849 64.893679 
L 203.779877 65.292867 
L 204.050612 65.742798 
L 203.509143 66.03204 
L 203.168791 66.598683 
L 203.277084 66.509035 
L 202.846488 68.381495 
L 202.521606 68.660588 
L 202.279207 68.540037 
L 201.981584 68.167464 
L 201.228364 67.864113 
L 200.693532 68.152284 
L 200.270642 70.10003 
L 200.30674 71.481963 
L 199.835294 72.8416 
L 199.376481 73.243361 
L 199.290585 73.944576 
L 198.984917 74.199828 
L 198.469527 73.382432 
L 198.05032 73.412078 
L 196.828753 74.173468 
L 195.770539 77.307799 
L 194.93593 77.668654 
L 194.16931 78.733715 
L 193.927324 80.063762 
L 193.490846 81.799737 
L 192.837815 82.90369 
L 193.213496 83.878762 
L 192.962393 85.201605 
L 193.173828 86.426935 
L 193.879569 87.323307 
L 194.922755 88.297627 
L 195.602463 88.229443 
L 195.858945 88.824864 
L 196.303567 89.422161 
L 196.856809 89.717724 
L 197.522042 89.688969 
L 197.792777 90.245463 
L 197.625179 90.419685 
L 197.189425 92.2414 
L 196.689211 92.642279 
L 196.333389 93.567514 
L 195.080275 98.80262 
L 194.837903 100.644633 
L 195.356166 102.202479 
L 195.157627 102.75559 
L 195.08801 103.405116 
L 195.118951 104.758293 
L 195.490244 107.033323 
L 196.070389 107.748816 
L 196.516083 108.052823 
L 196.220885 108.279159 
L 196.019854 109.191994 
L 196.139211 109.485922 
L 195.54595 110.269007 
L 195.643252 111.085685 
L 194.984702 112.618365 
L 194.652944 112.573641 
L 194.40802 112.160241 
L 193.970878 112.317241 
L 193.283113 112.444343 
L 192.683331 112.326011 
L 192.120778 112.463441 
L 191.602314 112.354652 
L 191.227323 112.453934 
L 190.397368 112.405083 
L 189.832403 112.853395 
L 189.740832 113.635497 
L 189.137144 113.75356 
L 188.696236 114.244506 
L 188.321059 114.385541 
L 187.379709 114.310572 
L 185.80899 114.833608 
L 184.612385 115.687285 
L 183.424237 116.328137 
L 183.046247 116.781786 
L 182.668364 117.459457 
L 181.889058 119.308336 
L 181.664735 119.200082 
L 181.363059 118.895617 
L 180.840464 117.881306 
L 180.302451 117.833429 
L 179.679084 117.975526 
L 179.179148 118.36463 
L 178.820594 119.456429 
L 178.839869 119.724856 
L 178.629727 120.260212 
L 178.408185 121.01334 
L 178.207937 121.682633 
L 177.812065 122.217847 
L 177.750687 123.662186 
L 177.39003 123.802127 
L 177.062551 124.61905 
L 174.73904 127.667423 
L 173.235687 127.609008 
L 171.515155 128.192528 
L 169.105388 130.760205 
L 167.862655 131.854175 
L 166.912193 132.039618 
L 166.374639 132.55539 
L 165.341974 132.886052 
L 164.80551 132.906638 
L 164.424117 133.381978 
L 163.462196 133.221869 
L 162.39011 133.544054 
L 161.815405 134.393142 
L 161.403097 134.393489 
L 161.361428 134.002134 
L 160.764139 134.291476 
L 160.208379 134.951841 
L 160.12913 136.027995 
L 160.520273 136.253887 
L 161.4052 136.622541 
L 161.529021 137.014081 
L 161.755554 137.322233 
L 161.591411 137.941421 
L 161.653587 138.946327 
L 161.221728 139.116415 
L 160.522919 139.818192 
L 160.296603 139.797831 
L 159.864775 139.592208 
L 159.247206 139.551852 
L 158.898558 139.82045 
L 157.808375 140.379328 
L 157.583251 141.01915 
L 157.316711 141.3497 
L 156.762507 141.680916 
L 155.799649 141.71032 
L 154.378528 142.98845 
L 153.63211 143.305251 
L 153.012895 143.172372 
L 152.154931 143.284084 
L 151.299482 144.524613 
L 150.982246 146.138824 
L 150.169286 145.921958 
L 149.473453 144.589935 
L 148.944702 144.106544 
L 148.085376 144.489014 
L 147.816561 144.975306 
L 148.024038 146.091105 
L 147.730097 146.16553 
L 146.724512 146.091105 
L 145.249653 146.551186 
L 145.015017 146.175679 
L 140.814764 145.434814 
L 140.670373 145.629334 
L 140.528559 146.463229 
L 139.958728 146.872566 
L 139.664787 146.943607 
L 139.4482 147.14151 
L 138.697878 148.361061 
L 138.388467 148.479464 
L 137.640465 147.979279 
L 137.145536 148.923619 
L 137.15265 149.646688 
L 136.923923 151.38203 
L 136.624825 151.767686 
L 133.685422 152.075534 
L 134.14696 152.481487 
L 134.072186 152.895898 
L 133.071019 153.400292 
L 131.960317 153.248384 
L 130.95807 153.622002 
L 130.447295 154.942343 
L 129.929663 155.342992 
L 129.467347 154.757006 
L 128.676811 154.339723 
L 128.152124 155.199683 
L 127.703479 155.367138 
L 127.164588 155.779858 
L 126.715942 156.290682 
L 126.321443 157.244672 
L 125.416416 157.829922 
L 125.150839 158.489596 
L 124.797595 159.48249 
L 124.810487 159.846156 
L 124.957457 160.456778 
L 125.143104 161.882689 
L 125.344221 162.075517 
L 125.645896 162.034921 
L 126.427159 162.410428 
L 126.984098 163.196963 
L 127.118176 164.145879 
L 125.92101 165.93444 
L 125.403596 167.661547 
L 125.877954 170.434772 
L 126.75204 174.59241 
L 126.723677 175.735845 
L 126.481306 176.162096 
L 126.133218 176.329552 
L 125.764504 176.197617 
L 125.447358 175.735845 
L 125.408681 175.187808 
L 126.094542 173.438826 
L 124.996133 171.86914 
L 124.882683 171.304188 
L 124.601635 170.864406 
L 124.214871 170.715556 
L 123.804902 171.016638 
L 122.569836 172.366433 
L 122.397082 172.564335 
L 120.904175 173.13267 
L 120.904175 173.438826 
L 121.267732 173.624888 
L 122.397082 174.035916 
L 122.786424 173.739908 
L 123.294374 173.584293 
L 123.727549 173.756823 
L 123.913195 174.433412 
L 123.704343 174.74126 
L 122.397082 175.14383 
L 122.048995 174.720962 
L 121.63129 174.575495 
L 121.332193 174.670218 
L 121.492055 175.177659 
L 121.53331 175.426306 
L 121.167174 176.527454 
L 120.70144 178.886969 
L 121.378605 180.495648 
L 122.226906 181.016621 
L 122.894718 181.779475 
L 123.242805 181.982452 
L 123.866784 181.886038 
L 123.998283 181.52068 
L 123.913195 180.845782 
L 124.480449 180.779815 
L 125.127633 182.378256 
L 125.761925 182.806199 
L 128.144389 182.560935 
L 128.92823 182.806199 
L 129.289209 183.120812 
L 129.869355 183.831231 
L 130.320579 183.969931 
L 132.971199 184.017293 
L 133.298658 184.342055 
L 134.025774 185.658021 
L 135.222163 187.515257 
L 135.418123 188.112347 
L 135.895131 188.822765 
L 136.970334 189.95436 
L 137.204971 190.649555 
L 137.705185 190.245293 
L 137.883096 190.370462 
L 138.006861 190.637714 
L 138.262125 191.605236 
L 138.501918 191.847117 
L 138.811329 191.940148 
L 139.386317 192.293666 
L 140.453785 194.064637 
L 141.062293 194.778438 
L 143.486011 195.377219 
L 147.258246 200.199606 
L 147.730097 200.00847 
L 149.5582 199.062937 
L 150.770059 200.877886 
L 151.613204 201.488508 
L 152.002546 202.376531 
L 152.159917 204.497814 
L 150.368276 205.45353 
L 149.503782 206.157056 
L 149.304032 206.694098 
L 149.372799 207.419105 
L 149.641316 208.841194 
L 149.503782 210.315912 
L 149.091183 211.598369 
L 148.478833 212.751936 
L 147.745323 213.832465 
L 146.058905 215.654113 
L 144.035203 217.003164 
L 141.86087 217.802283 
L 139.702909 217.978433 
L 136.379192 217.778653 
L 134.285086 218.232991 
L 133.849565 218.118064 
L 133.459888 217.71206 
L 133.055475 217.108424 
L 132.795144 216.92583 
L 126.683106 217.477909 
L 124.821497 218.060063 
L 123.866952 218.150286 
L 120.862507 217.210462 
L 116.955912 217.562762 
L 115.947335 217.452131 
L 113.903986 217.679837 
L 111.780409 218.568105 
L 109.761619 219.873118 
L 107.83897 221.595096 
L 107.448115 222.109363 
L 106.374047 224.855798 
L 105.851748 225.479841 
L 104.076916 227.04156 
L 101.37046 231.323936 
L 100.10974 232.365798 
L 99.292728 232.688024 
L 98.706575 232.754617 
L 98.325084 233.043546 
L 98.158079 234.033852 
L 98.363592 237.618352 
L 98.00777 238.161314 
L 97.87627 238.795616 
L 97.574595 238.848052 
L 96.02754 239.829106 
L 95.486071 239.698862 
L 90.806232 236.512129 
L 89.831588 234.9509 
L 89.228236 235.040548 
L 88.573317 235.258748 
L 85.453424 236.875795 
L 84.736622 236.963752 
L 83.566017 236.92654 
L 82.885314 237.080464 
L 81.957081 237.843317 
L 81.910669 237.973561 
L 81.97513 238.130868 
L 82.289698 239.643044 
L 82.470187 240.084518 
L 82.338688 241.231336 
L 82.243286 241.530727 
L 80.727173 241.221187 
L 80.301733 239.538173 
L 79.984587 238.749947 
L 79.515313 238.795616 
L 79.221373 238.672139 
L 79.087295 237.738446 
L 78.99705 235.830466 
L 78.058504 236.534118 
L 77.635642 236.507055 
L 77.254036 235.208004 
L 76.274235 234.247248 
L 75.946775 234.101781 
L 75.459453 234.528032 
L 75.663148 235.050697 
L 76.359322 235.67485 
L 76.421205 236.097718 
L 76.792498 237.816254 
L 76.189147 237.291898 
L 75.516178 236.963752 
L 74.747808 236.899476 
L 74.430661 236.654213 
L 73.920133 236.070655 
L 72.001786 232.797656 
L 71.251465 232.630201 
L 71.058083 232.464436 
L 70.949789 231.689742 
L 71.019407 230.909973 
L 70.872436 230.745901 
L 70.062811 230.613966 
L 69.201618 230.128513 
L 67.324525 229.94076 
L 66.05594 229.316607 
L 65.259207 229.123779 
L 64.459896 229.111939 
L 63.890064 229.406255 
L 63.866858 230.076078 
L 64.447004 230.772964 
L 65.236002 231.324384 
L 65.847088 231.547658 
L 66.945497 231.381894 
L 67.260064 231.610243 
L 67.03832 232.423841 
L 67.69324 232.188726 
L 68.005229 232.220864 
L 68.337846 232.423841 
L 67.963974 232.954963 
L 67.688083 233.558819 
L 68.523492 233.465788 
L 68.768442 233.249279 
L 68.98503 233.558819 
L 68.211503 234.264163 
L 67.252329 234.666733 
L 66.741801 234.643052 
L 65.999215 233.964772 
L 65.527364 233.558819 
L 65.426805 234.517883 
L 65.723324 235.495554 
L 65.862559 236.420789 
L 65.28757 237.222547 
L 65.955382 237.816254 
L 65.829039 238.206984 
L 65.620187 238.367674 
L 64.985894 238.384589 
L 64.849238 238.502992 
L 65.194747 240.206304 
L 64.985894 240.370377 
L 64.336132 240.277346 
L 64.049927 240.114965 
L 63.771457 239.829106 
L 63.936476 239.646427 
L 64.01125 239.517875 
L 63.624487 239.301366 
L 63.276399 239.274303 
L 63.023714 239.484045 
L 62.928312 239.957658 
L 62.714303 239.993179 
L 62.304334 239.906913 
L 62.038756 239.588917 
L 62.263079 238.92586 
L 61.499865 239.646427 
L 61.102788 240.674842 
L 60.584525 241.625449 
L 59.44744 242.099061 
L 57.753415 242.241145 
L 57.50073 242.49994 
L 57.35376 243.190061 
L 57.003094 243.749938 
L 56.557027 243.936 
L 56.162528 243.492834 
L 56.593125 241.342973 
L 57.072711 240.390674 
L 57.915856 240.654544 
L 59.6434 239.829106 
L 59.1535 239.531407 
L 58.065405 239.744532 
L 57.50073 239.517875 
L 57.900385 238.92586 
L 58.568197 238.37444 
L 59.326254 237.973561 
L 59.988909 237.816254 
L 61.551434 238.217133 
L 62.154785 238.024305 
L 62.263079 236.963752 
L 61.731923 237.197175 
L 61.303905 237.115985 
L 60.966132 236.808137 
L 60.726338 236.370045 
L 61.662306 235.28412 
L 61.708718 234.846029 
L 60.244173 234.436693 
L 59.965703 234.000293 
L 59.666606 233.760104 
L 58.993637 234.101781 
L 59.230852 234.666733 
L 58.047356 234.746232 
L 57.699268 234.9509 
L 58.310355 235.208004 
L 59.107088 235.668084 
L 59.687233 236.270248 
L 59.6434 236.963752 
L 59.052941 236.436013 
L 58.209796 236.043591 
L 57.327975 235.891359 
L 56.61633 236.087569 
L 56.964418 236.642372 
L 57.50073 236.963752 
L 55.89695 238.22559 
L 55.316805 238.384589 
L 55.34001 238.303398 
L 55.223981 237.924508 
L 55.084747 237.816254 
L 53.135458 237.816254 
L 53.522222 237.192101 
L 54.891365 236.277014 
L 55.316805 235.519235 
L 55.071854 234.807125 
L 53.692398 234.000293 
L 53.785221 233.249279 
L 53.153507 233.377831 
L 52.787371 233.974921 
L 52.153079 235.390683 
L 51.665756 235.781413 
L 51.142336 235.953943 
L 50.559613 235.955635 
L 48.378266 235.519235 
L 47.514494 234.768221 
L 47.179299 234.666733 
L 46.477967 234.604148 
L 45.964861 234.358885 
L 45.756009 233.841295 
L 45.975175 232.965112 
L 44.897394 233.558819 
L 45.028893 232.8484 
L 45.299628 232.406926 
L 45.719911 232.178578 
L 46.707447 231.963761 
L 47.511915 231.341299 
L 47.945091 231.263491 
L 48.386001 231.456319 
L 49.22141 232.000973 
L 49.786085 232.11261 
L 50.737524 231.956995 
L 51.10366 231.701582 
L 51.405336 231.263491 
L 51.170699 230.95226 
L 50.822612 231.229662 
L 50.466789 231.283789 
L 50.118702 231.138322 
L 49.200783 230.351788 
L 49.022872 229.815591 
L 48.92747 229.012142 
L 49.229146 228.707677 
L 50.538985 228.682305 
L 51.936491 228.398137 
L 52.302627 228.55037 
L 52.681655 229.560179 
L 53.352046 229.615997 
L 53.568633 228.208692 
L 54.218396 227.856866 
L 53.939926 227.210724 
L 53.413928 226.967152 
L 51.580668 226.885961 
L 50.002673 226.385286 
L 49.492145 226.496923 
L 47.945091 227.288532 
L 46.413507 227.582848 
L 45.975175 227.856866 
L 43.57724 226.385286 
L 42.532979 225.262148 
L 41.911579 224.977981 
L 41.633109 225.713771 
L 41.285022 225.99963 
L 40.480553 226.211064 
L 39.01343 226.385286 
L 35.31597 225.65457 
L 35.003981 225.224936 
L 35.205098 224.747941 
L 35.97089 224.424869 
L 37.471533 224.301392 
L 38.105825 223.963098 
L 38.363667 223.135968 
L 38.577676 223.026022 
L 39.900408 222.721557 
L 40.132466 222.395103 
L 40.650729 221.371762 
L 40.983346 221.016553 
L 41.718197 220.862629 
L 42.228725 221.24321 
L 43.040928 222.579473 
L 43.360653 222.430624 
L 45.325412 221.016553 
L 44.520944 220.66811 
L 42.855282 220.928597 
L 41.952833 220.284146 
L 41.501609 219.741183 
L 41.431992 219.416421 
L 41.416521 218.722917 
L 41.867745 215.68165 
L 43.489574 212.966837 
L 43.876338 211.723605 
L 44.247631 211.29228 
L 44.487424 211.1891 
L 44.665335 211.239844 
L 44.750423 211.530778 
L 44.680806 212.144782 
L 45.077883 211.688085 
L 45.611617 210.762849 
L 46.06542 209.751349 
L 46.21239 209.047697 
L 46.013851 208.628212 
L 45.446598 208.174897 
L 45.325412 207.758795 
L 45.4105 206.588296 
L 44.940575 206.167814 
L 45.038251 205.844216 
L 45.475449 205.820108 
L 46.107175 206.194165 
L 46.73892 205.872077 
L 46.908151 206.270667 
L 47.392114 206.820011 
L 48.073416 206.174825 
L 48.802933 205.778463 
L 49.602604 206.328927 
L 49.809291 205.872804 
L 49.793821 205.093035 
L 49.894379 204.480722 
L 49.541135 204.127204 
L 49.298763 203.631603 
L 49.239459 203.130927 
L 49.456047 202.752038 
L 49.905215 202.918104 
L 50.50848 204.190371 
L 51.237927 204.068634 
L 51.360662 203.745363 
L 51.192774 203.146992 
L 51.243434 202.599258 
L 51.53473 202.724942 
L 51.679044 203.124026 
L 51.993985 203.324611 
L 53.015725 203.104963 
L 53.77233 202.610231 
L 54.015717 202.586474 
L 54.354335 202.887125 
L 55.084747 203.147842 
L 56.021606 202.235732 
L 56.509885 201.88939 
L 57.241529 201.570065 
L 58.434119 201.649198 
L 59.547998 201.924908 
L 59.682076 201.488508 
L 59.836782 201.185734 
L 60.205496 201.050417 
L 61.613316 201.924908 
L 61.762865 202.320712 
L 61.853109 203.103864 
L 62.046491 203.320372 
L 62.42552 203.259479 
L 62.820018 202.209075 
L 63.137165 202.322404 
L 63.681212 202.919493 
L 63.771457 203.19182 
L 64.111809 203.766921 
L 64.885336 204.216852 
L 65.759422 204.411372 
L 66.388557 204.220235 
L 66.094617 203.909004 
L 65.527364 203.061577 
L 65.187012 202.955014 
L 64.544984 202.921185 
L 64.20721 202.752038 
L 62.773607 200.889727 
L 62.263079 200.482082 
L 61.855688 200.404274 
L 61.102788 200.400891 
L 60.726338 200.199606 
L 60.530378 199.925588 
L 59.710439 198.377891 
L 59.733645 198.141085 
L 59.44744 198.210435 
L 58.998794 199.027416 
L 58.565619 199.062937 
L 59.101931 199.517943 
L 59.303048 199.824099 
L 58.832205 200.135741 
L 57.879502 200.626921 
L 57.3689 200.49839 
L 57.049506 199.915439 
L 56.832918 199.915439 
L 56.647271 200.46855 
L 56.353331 200.625857 
L 55.45604 200.360296 
L 55.254923 199.913747 
L 55.084747 199.915439 
L 54.922306 200.16916 
L 54.986766 200.433029 
L 55.316805 200.78993 
L 55.316805 201.050417 
L 54.852688 201.219564 
L 54.344739 201.214489 
L 53.862574 201.023353 
L 53.460339 200.636006 
L 53.261801 200.174234 
L 53.370095 199.825791 
L 54.001808 199.062937 
L 53.568633 198.753397 
L 53.715603 198.362667 
L 53.553163 197.877215 
L 53.18187 197.48141 
L 52.681655 197.357933 
L 52.849253 198.362667 
L 52.408135 199.701261 
L 51.507146 199.74737 
L 51.144179 199.222744 
L 50.999942 198.723844 
L 50.513882 198.472858 
L 50.149631 198.14776 
L 49.894379 197.048394 
L 50.221839 195.651238 
L 50.361668 193.390486 
L 51.027489 191.425468 
L 51.91211 189.909718 
L 51.840562 189.46102 
L 53.53117 186.817926 
L 53.785221 186.123175 
L 54.12684 185.530621 
L 55.559177 185.575138 
L 56.162528 185.412757 
L 54.547209 185.158561 
L 54.745692 184.255468 
L 54.614025 184.01571 
L 54.651571 183.401597 
L 54.875894 182.755454 
L 54.651571 182.549095 
L 54.94809 182.166822 
L 55.278128 182.004441 
L 56.067126 181.982452 
L 56.430684 181.860666 
L 56.32239 181.564658 
L 56.067126 181.192534 
L 55.966568 180.845782 
L 56.433262 180.032184 
L 57.113966 179.698964 
L 57.872023 179.724336 
L 58.565619 179.993281 
L 58.374815 179.364053 
L 58.093767 179.047748 
L 58.016415 178.663783 
L 59.230852 176.380296 
L 59.6434 175.969268 
L 59.145764 175.90161 
L 58.735795 175.56839 
L 58.573354 175.018661 
L 58.797677 174.291328 
L 58.64555 174.147553 
L 58.36708 173.722994 
L 58.993637 174.035916 
L 59.666606 173.628271 
L 59.93734 173.320423 
L 60.097203 172.873874 
L 59.439705 172.877257 
L 57.474946 172.564335 
L 56.858702 172.30554 
L 56.951525 171.706759 
L 57.699268 170.576855 
L 57.010829 170.59377 
L 56.399743 170.859331 
L 56.510615 169.775098 
L 56.964418 169.149253 
L 57.567769 168.667183 
L 58.132444 168.022733 
L 58.653285 166.486876 
L 59.550577 166.119826 
L 59.813576 165.688501 
L 59.859988 165.133698 
L 59.6434 164.589044 
L 59.161235 164.96286 
L 55.866009 166.716916 
L 54.607738 167.2159 
L 54.32669 167.014615 
L 53.058105 165.482141 
L 52.503744 165.333292 
L 52.209804 165.059273 
L 52.681655 164.304877 
L 50.538985 164.304877 
L 50.97216 165.441546 
L 49.252352 165.358664 
L 48.636108 163.82619 
L 48.25708 163.765297 
L 47.457768 163.892158 
L 46.815741 163.58431 
L 45.975175 162.74534 
L 45.882351 162.471321 
L 45.113981 162.319089 
L 44.224425 161.361715 
L 43.876338 161.32112 
L 43.57724 162.034921 
L 43.21884 161.737222 
L 42.7934 161.601904 
L 42.429842 161.360024 
L 42.146215 160.116792 
L 41.79555 159.60935 
L 40.766758 158.888783 
L 40.274279 158.702721 
L 39.30737 158.516659 
L 39.183606 158.127621 
L 38.280159 158.04457 
L 37.955099 157.78699 
L 37.829933 156.845485 
L 37.502474 156.33466 
L 37.316827 156.7829 
L 37.293621 157.200694 
L 37.610767 157.909421 
L 37.775787 158.381342 
L 37.633973 158.853262 
L 37.626569 159.371428 
L 37.441723 159.728284 
L 37.455572 160.141976 
L 37.851334 160.285401 
L 37.722383 160.927534 
L 37.325931 160.955269 
L 36.986036 161.225431 
L 37.126689 161.653446 
L 37.432856 162.095814 
L 37.155003 162.210837 
L 36.561717 161.980537 
L 35.883828 162.379101 
L 35.247365 163.022211 
L 34.427841 163.435759 
L 34.059974 164.335216 
L 33.627102 164.024093 
L 33.676093 163.724702 
L 33.805014 163.455758 
L 33.464662 163.327206 
L 33.371838 163.196963 
L 33.21563 162.748626 
L 33.778679 162.079476 
L 33.891944 161.322976 
L 34.302136 161.051938 
L 34.454777 160.461852 
L 34.361953 159.883369 
L 34.13763 159.863071 
L 33.869474 160.035601 
L 33.627102 160.050825 
L 33.297064 159.375927 
L 33.1733 159.172951 
L 32.606047 158.915847 
L 32.392037 158.802518 
L 32.312106 158.462532 
L 32.389459 156.833645 
L 31.796421 156.503808 
L 31.657187 156.179045 
L 31.734539 155.032227 
L 31.445756 154.915515 
L 30.331877 154.87492 
L 27.487875 154.406382 
L 27.253238 154.619508 
L 27.098533 154.605976 
L 26.969612 154.468967 
L 26.428143 152.900972 
L 26.208977 152.804558 
L 25.350362 152.643868 
L 24.692863 151.469987 
L 24.050836 150.942247 
L 24.386031 150.424657 
L 25.584998 149.805578 
L 25.77838 149.220329 
L 26.000124 147.200711 
L 26.719505 146.157073 
L 27.616796 146.290699 
L 28.622382 146.676355 
L 29.692428 146.375273 
L 29.047822 146.033595 
L 26.861318 145.806938 
L 26.265702 145.304571 
L 25.584998 143.225752 
L 26.079257 142.719461 
L 30.730824 138.332898 
L 31.246573 138.128822 
L 31.443049 137.275999 
L 31.950611 136.818439 
L 33.227705 135.997838 
L 33.735268 135.417832 
L 34.223183 135.078421 
L 35.821187 134.723973 
L 36.436811 134.412489 
L 36.769183 133.731519 
L 37.34715 131.916316 
L 37.841614 131.548979 
L 38.571849 131.370681 
L 39.236593 130.930306 
L 40.79039 129.370735 
L 41.866095 127.959388 
L 42.236125 127.207528 
L 42.557036 127.503976 
L 43.198857 128.277317 
L 43.496845 128.373984 
L 44.266376 128.453467 
L 45.122684 128.298798 
L 46.380129 128.298798 
L 46.854946 128.14413 
L 47.013764 127.729533 
L 46.424336 126.698412 
L 46.031385 126.182851 
L 46.031385 125.613586 
L 46.342471 125.098026 
L 48.387458 124.219424 
L 49.762789 123.497639 
L 50.396424 123.035783 
L 51.298576 122.621186 
L 53.661199 121.744733 
L 53.937902 121.435397 
L 54.329217 120.556795 
L 54.840054 120.350571 
L 55.311597 120.299015 
L 56.213748 120.659907 
L 57.066781 120.427905 
L 57.348397 120.543906 
L 57.931275 121.0208 
L 58.640226 121.048726 
L 58.763023 120.737241 
L 58.700608 120.179908 
L 58.818691 119.603008 
L 59.054462 119.411821 
L 59.604595 119.512785 
L 59.899309 119.31945 
L 60.004096 119.057373 
L 60.115432 118.15729 
L 60.408509 117.6761 
L 60.716321 117.433357 
L 61.124009 117.343134 
L 62.437123 117.306615 
L 62.861183 117.134761 
L 63.078944 116.670756 
L 63.291793 114.956517 
L 63.661822 114.6837 
L 64.13009 114.810442 
L 64.814481 115.545116 
L 64.871787 115.665413 
L 66.733396 115.628894 
L 67.175467 115.349632 
L 66.880753 114.71807 
L 65.976964 113.616059 
L 67.193477 112.065081 
L 67.928624 111.543076 
L 69.179521 111.222999 
L 69.655975 110.494769 
L 70.233941 110.537732 
L 71.589625 111.156405 
L 71.897437 111.111294 
L 73.593679 110.002838 
L 74.111066 109.927652 
L 74.451624 110.142469 
L 75.208056 110.838476 
L 75.633754 110.623659 
L 76.098747 110.260619 
L 77.074578 110.142469 
L 77.47899 109.927652 
L 77.716399 109.5195 
L 77.547757 109.321868 
L 76.614496 109.332609 
L 76.977977 108.720381 
L 78.135547 108.432526 
L 78.672582 108.041559 
L 79.510879 106.548582 
L 79.425739 106.183393 
L 79.882546 105.637758 
L 80.527642 105.360644 
L 80.440865 104.823601 
L 81.608259 103.373587 
L 81.151453 102.602394 
L 81.901336 101.906387 
L 85.490295 99.792588 
L 85.935641 99.399473 
L 86.240179 98.920431 
L 87.037543 97.10308 
L 87.401024 96.643372 
L 88.552045 95.373804 
L 89.28883 93.65312 
L 89.6343 93.128966 
L 91.199558 91.260059 
L 92.201585 90.506051 
L 93.113561 90.523237 
L 92.681314 91.425468 
L 93.773392 91.111835 
L 93.773392 90.044195 
L 93.334596 88.733811 
L 93.113561 87.685505 
L 93.313311 87.15061 
L 94.410302 85.414889 
L 94.934237 83.537389 
L 95.52039 82.388119 
L 95.635001 81.829594 
L 95.52039 81.286108 
L 95.179832 80.720065 
L 95.196205 80.212023 
L 96.306294 79.052011 
L 96.807308 78.059557 
L 97.316508 77.947852 
L 98.43642 78.010149 
L 98.778616 77.811443 
L 99.797016 76.885582 
L 100.294755 76.591283 
L 99.001289 75.645014 
L 98.758968 75.147713 
L 99.300914 74.929674 
L 99.805202 74.929674 
L 100.27347 75.109046 
L 100.725365 75.430197 
L 101.670086 76.457022 
L 102.216944 76.813619 
L 102.459264 76.437689 
L 102.858765 75.403345 
L 104.630323 74.678338 
L 105.031461 73.585994 
L 105.337636 73.113397 
L 106.015478 72.64617 
L 106.690046 72.443168 
L 107.001132 72.747134 
L 107.033878 73.660106 
L 107.207432 73.892108 
L 107.602021 73.86633 
L 108.317521 74.011331 
L 109.964644 75.330307 
L 110.265907 75.28627 
L 110.396891 75.84372 
L 111.341613 77.441958 
L 110.802941 77.381809 
L 110.465658 77.5687 
L 110.354321 77.97363 
L 110.480393 78.579414 
L 110.783294 79.000455 
L 111.259748 79.316236 
L 112.230666 79.712573 
L 111.994895 80.282912 
L 112.52538 80.369913 
L 114.175778 81.010068 
L 114.608025 81.417146 
L 113.915447 81.689963 
L 113.239242 82.078782 
L 112.653089 82.639454 
L 112.230666 83.402055 
L 112.743141 83.511611 
L 112.977275 83.644798 
L 113.1803 84.042209 
L 113.425894 83.962727 
L 113.854867 83.687761 
L 114.146306 83.77154 
L 114.608025 84.25273 
L 114.84707 84.063691 
L 115.261307 83.208719 
L 115.475793 83.047607 
L 115.947335 83.262424 
L 116.661198 83.793021 
L 117.098357 83.898282 
L 117.831867 83.666279 
L 118.069275 83.898282 
L 118.095472 84.186136 
L 117.632116 84.652289 
L 117.438915 84.751105 
L 118.58175 85.178591 
L 120.120811 85.260221 
L 120.92145 85.006737 
L 121.458484 85.316074 
L 121.749924 85.60178 
L 122.453962 85.659781 
L 123.935718 85.006737 
L 124.471115 85.148516 
L 125.024522 85.44926 
L 125.574655 85.608225 
L 126.114963 85.318222 
L 126.173906 86.250527 
L 126.619252 86.69305 
L 127.845589 87.02172 
L 129.139055 87.872395 
L 129.415759 87.743505 
L 129.766141 87.178537 
L 129.910223 87.161351 
L 130.784541 87.494318 
L 133.774249 87.580244 
L 134.589624 87.303131 
L 135.175777 87.70269 
L 135.809412 87.812247 
L 136.325161 87.558763 
L 136.53801 86.879941 
L 136.842548 86.583494 
L 137.543312 86.360084 
L 138.830229 86.168897 
L 139.7815 87.02172 
L 140.105685 86.8692 
L 140.642719 86.168897 
L 140.989827 86.615716 
L 141.078241 88.561958 
L 141.353307 88.637144 
L 141.664394 88.542624 
L 142.201428 88.252621 
L 142.083543 89.165594 
L 142.6304 89.595227 
L 143.390107 89.575894 
L 143.891121 89.131223 
L 144.343015 89.386855 
L 143.891121 89.981898 
L 145.227157 90.097899 
L 146.481328 88.929295 
L 149.710082 83.099163 
L 150.197997 81.490184 
L 149.572549 80.590101 
L 149.513606 79.844686 
L 149.120654 78.997233 
L 148.5476 78.301226 
L 147.699479 77.913481 
L 145.639756 76.151982 
L 145.505498 75.240084 
L 145.168214 74.369002 
L 143.671723 71.546307 
L 143.481796 70.751484 
L 142.424101 70.414221 
L 141.864144 69.17795 
L 141.245245 65.624877 
L 141.277991 65.011575 
L 141.693865 64.432643 
L 142.329137 64.24253 
L 143.783059 64.210308 
L 148.897982 62.806479 
L 152.123461 63.071778 
L 152.86352 63.312373 
L 153.511891 63.825785 
L 154.982186 63.743081 
L 156.069352 64.275827 
L 156.514698 64.334902 
L 157.824537 63.8376 
L 158.129075 63.896675 
L 158.479457 64.139418 
L 158.774171 63.993343 
L 159.530603 63.044926 
L 159.858063 62.918184 
L 162.222323 63.102926 
L 163.070444 62.918184 
L 163.440473 62.194251 
L 166.48585 62.348919 
L 169.223414 63.080371 
L 170.382622 62.702293 
L 170.85089 61.04498 
L 171.13578 60.4929 
L 171.807072 60.310306 
L 172.563505 60.220083 
L 173.123461 59.937599 
L 173.971582 59.065442 
L 174.292492 58.51551 
L 174.331788 57.780836 
L 175.084945 58.220137 
L 175.625254 58.265249 
L 176.077149 57.963431 
L 176.971114 56.951643 
L 178.752496 55.263182 
L 179.070132 54.790584 
L 178.912951 54.416803 
L 178.202363 54.36095 
L 178.009162 54.066651 
L 178.091027 53.590832 
L 178.369368 53.370644 
L 178.971894 53.073123 
L 179.086505 52.714378 
L 179.129074 52.07315 
L 179.505653 51.796036 
L 179.011189 51.379291 
L 178.425036 51.253623 
L 178.425036 50.943213 
L 179.44671 50.947509 
L 179.767621 50.709062 
L 179.957548 50.091463 
L 179.89533 49.871276 
L 179.525301 49.61457 
L 179.505653 49.240788 
L 179.761072 48.6103 
L 179.983745 48.429854 
L 181.905934 47.977665 
L 182.010721 47.227953 
L 182.275963 46.616799 
L 182.626345 46.432057 
L 182.986551 46.945469 
L 183.438446 46.687689 
L 183.009473 45.949793 
L 183.058592 45.654419 
L 183.438446 45.551307 
L 183.785553 45.673753 
L 184.070443 46.191462 
L 184.519063 46.376204 
L 184.810503 46.289203 
L 185.550562 45.838088 
L 186.035202 45.835939 
L 187.567714 47.099063 
L 187.77074 47.438474 
L 188.664705 47.920738 
L 188.864455 48.235445 
L 188.972517 48.664005 
L 189.23776 48.81008 
L 189.55867 48.737043 
L 189.840286 48.506114 
L 190.00729 48.085073 
L 190.125176 47.374029 
L 190.901256 47.072211 
L 191.117379 46.621095 
L 191.1534 46.06472 
L 191.028965 45.551307 
L 192.351903 45.656567 
L 193.547131 45.968052 
L 194.565531 45.783309 
L 195.374357 44.391295 
L 195.524989 42.897244 
L 195.456222 41.271079 
L 195.616677 39.847917 
L 196.458249 38.971464 
L 196.458249 38.715832 
L 195.92449 38.585867 
L 195.777133 38.025195 
L 196.078396 37.446263 
L 196.890496 37.269039 
L 196.749688 36.667552 
L 197.234329 36.03599 
L 197.201583 35.708394 
L 196.82173 35.350724 
L 196.500819 35.204648 
L 196.284695 34.922164 
L 196.274872 33.631114 
L 196.402581 33.159591 
L 197.4701 30.647307 
L 197.597809 29.392776 
L 199.107399 25.586219 
L 199.136871 24.628136 
L 199.267855 24.186687 
L 199.62806 23.892387 
L 200.584243 23.786053 
L 201.019765 23.594866 
L 200.482731 23.317752 
L 200.155271 22.767821 
L 200.502378 22.627116 
L 201.088531 22.25226 
L 201.452012 22.176 
L 201.877709 22.253334 
L 202.113481 22.45204 
L 203.374201 23.985833 
L 203.82937 24.186687 
L 203.82937 24.186687 
" clip-path="url(#p5f6e2a640e)" style="fill: none; stroke: #000000; stroke-width: 2"/>
   </g>
  </g>
 </g>
 <defs>
  <clipPath id="p5f6e2a640e">
   <rect x="0" y="-0" width="246.700961" height="266.112"/>
  </clipPath>
 </defs>
</svg>
