<?xml version="1.0" encoding="utf-8" standalone="no"?>
<!DOCTYPE svg PUBLIC "-//W3C//DTD SVG 1.1//EN"
  "http://www.w3.org/Graphics/SVG/1.1/DTD/svg11.dtd">
<svg xmlns:xlink="http://www.w3.org/1999/xlink" width="357.12pt" height="213.654135pt" viewBox="0 0 357.12 213.654135" xmlns="http://www.w3.org/2000/svg" version="1.1">
 <metadata>
  <rdf:RDF xmlns:dc="http://purl.org/dc/elements/1.1/" xmlns:cc="http://creativecommons.org/ns#" xmlns:rdf="http://www.w3.org/1999/02/22-rdf-syntax-ns#">
   <cc:Work>
    <dc:type rdf:resource="http://purl.org/dc/dcmitype/StillImage"/>
    <dc:date>2024-02-02T21:58:04.551948</dc:date>
    <dc:format>image/svg+xml</dc:format>
    <dc:creator>
     <cc:Agent>
      <dc:title>Matplotlib v3.8.2, https://matplotlib.org/</dc:title>
     </cc:Agent>
    </dc:creator>
   </cc:Work>
  </rdf:RDF>
 </metadata>
 <defs>
  <style type="text/css">*{stroke-linejoin: round; stroke-linecap: butt}</style>
 </defs>
 <g id="figure_1">
  <g id="patch_1">
   <path d="M 0 213.654135 
L 357.12 213.654135 
L 357.12 0 
L 0 0 
L 0 213.654135 
z
" style="fill: none"/>
  </g>
  <g id="axes_1">
   <g id="PatchCollection_1">
    <path d="M 210.86451 195.804809 
L 210.865475 195.849623 
L 210.815259 195.844246 
L 210.806568 195.785688 
L 210.86451 195.804809 
" clip-path="url(#p3104664e07)" style="fill: none; stroke: #000000; stroke-width: 2"/>
    <path d="M 212.859646 194.229125 
L 212.80267 194.321742 
L 212.761145 194.301426 
L 212.678578 194.279317 
L 212.624981 194.253623 
L 212.632707 194.227332 
L 212.632224 194.198651 
L 212.640432 194.171164 
L 212.747625 194.03911 
L 212.853852 194.121569 
L 212.859646 194.229125 
" clip-path="url(#p3104664e07)" style="fill: none; stroke: #000000; stroke-width: 2"/>
    <path d="M 205.299663 159.314902 
L 205.359053 159.688956 
L 204.946216 158.986859 
L 204.844335 158.854207 
L 204.76901 158.714983 
L 204.721691 158.560821 
L 204.70286 158.38455 
L 204.905657 158.579942 
L 205.126319 158.918143 
L 205.299663 159.314902 
" clip-path="url(#p3104664e07)" style="fill: none; stroke: #000000; stroke-width: 2"/>
    <path d="M 198.465403 154.953538 
L 198.783601 154.982219 
L 199.102282 154.911113 
L 199.33405 154.75695 
L 199.509807 154.673296 
L 199.771995 154.606373 
L 200.224425 154.556181 
L 200.422394 154.627884 
L 200.780669 154.905138 
L 200.924558 154.967281 
L 201.542123 155.454864 
L 201.67539 155.534933 
L 201.815899 155.568395 
L 202.268813 155.589906 
L 202.474507 155.649061 
L 202.670544 155.769165 
L 202.788359 155.68073 
L 202.914866 155.650854 
L 203.039924 155.68073 
L 203.156291 155.769165 
L 202.953494 155.824137 
L 202.53438 156.025505 
L 202.382765 156.070319 
L 202.238876 156.180265 
L 201.856459 156.686969 
L 201.779686 156.825596 
L 201.569646 157.264183 
L 201.078104 157.451807 
L 200.507376 157.487658 
L 199.54747 157.405199 
L 197.57551 156.548343 
L 197.128391 156.248383 
L 196.727142 155.88628 
L 196.40991 155.46801 
L 196.30658 155.212268 
L 196.280506 154.94816 
L 196.347622 154.741415 
L 196.527725 154.656566 
L 196.602567 154.584265 
L 196.895657 154.155836 
L 197.000918 154.093096 
L 197.078174 154.072182 
L 197.165087 154.093096 
L 197.300768 154.155836 
L 197.423895 154.262196 
L 197.706362 154.58785 
L 197.828041 154.656566 
L 197.900951 154.670309 
L 198.157827 154.75456 
L 198.465403 154.953538 
" clip-path="url(#p3104664e07)" style="fill: none; stroke: #000000; stroke-width: 2"/>
    <path d="M 207.375435 150.59755 
L 207.627483 150.737372 
L 207.707636 150.628024 
L 207.69991 151.058245 
L 207.744815 151.232724 
L 207.870839 151.339682 
L 207.45076 151.254235 
L 207.274037 151.25782 
L 207.104556 151.384496 
L 206.953424 151.581681 
L 206.815329 151.71971 
L 206.649711 151.753769 
L 206.411666 151.640239 
L 206.411666 151.539854 
L 206.53431 151.529098 
L 206.63088 151.47054 
L 206.698962 151.370156 
L 206.846714 150.898108 
L 207.088622 150.668656 
L 207.375435 150.59755 
" clip-path="url(#p3104664e07)" style="fill: none; stroke: #000000; stroke-width: 2"/>
    <path d="M 307.730995 93.770742 
L 307.512747 93.912953 
L 307.211448 93.985852 
L 306.885042 93.976889 
L 306.596297 93.880089 
L 306.596297 93.770742 
L 307.210483 93.854396 
L 307.447079 93.765961 
L 307.730995 93.47855 
L 307.758035 93.522169 
L 307.778797 93.569972 
L 307.812114 93.67932 
L 307.742584 93.728914 
L 307.730995 93.770742 
" clip-path="url(#p3104664e07)" style="fill: none; stroke: #000000; stroke-width: 2"/>
    <path d="M 104.139192 93.918929 
L 104.195202 94.230839 
L 104.018479 94.449535 
L 103.620128 94.406512 
L 102.927721 94.180646 
L 102.539509 94.279836 
L 102.333332 94.278044 
L 102.243522 94.130454 
L 102.165783 93.941635 
L 102.022377 93.776119 
L 101.947052 93.625542 
L 102.073559 93.47855 
L 102.318847 93.256866 
L 102.754378 93.146921 
L 103.218879 93.12541 
L 103.547217 93.169627 
L 103.785262 93.327375 
L 103.993371 93.596861 
L 104.139192 93.918929 
" clip-path="url(#p3104664e07)" style="fill: none; stroke: #000000; stroke-width: 2"/>
    <path d="M 96.261975 81.100735 
L 97.768468 81.301504 
L 97.945191 81.253105 
L 98.257595 81.039787 
L 98.419832 80.991387 
L 98.527025 81.031421 
L 98.776176 81.228008 
L 98.899303 81.301504 
L 99.094374 81.189169 
L 100.308259 80.829456 
L 101.99244 80.791215 
L 102.451148 80.972863 
L 102.736029 81.40906 
L 102.769829 81.939666 
L 102.47867 82.404543 
L 102.029137 82.607703 
L 100.453114 82.805485 
L 99.92053 82.94949 
L 99.352216 83.006255 
L 98.816735 82.979366 
L 98.545856 83.004462 
L 98.339196 83.10664 
L 98.018584 82.910053 
L 97.705697 82.778596 
L 97.035501 82.604715 
L 95.982888 82.558706 
L 94.549306 81.51064 
L 94.140815 80.945377 
L 94.354718 80.18054 
L 95.267304 80.098678 
L 95.569568 80.18054 
L 95.983371 80.523522 
L 96.055798 80.645418 
L 96.066904 80.818701 
L 96.102152 80.963303 
L 96.165888 81.063688 
L 96.261975 81.100735 
" clip-path="url(#p3104664e07)" style="fill: none; stroke: #000000; stroke-width: 2"/>
    <path d="M 68.181346 72.447916 
L 68.258602 72.79269 
L 68.09733 72.948048 
L 67.733261 72.952828 
L 66.809569 72.820774 
L 66.542553 72.8387 
L 66.304025 72.921159 
L 65.870426 73.255178 
L 65.730399 73.182279 
L 65.62031 73.001825 
L 65.482214 72.842883 
L 65.218578 72.759826 
L 63.525706 72.72756 
L 63.287178 72.842883 
L 62.505927 72.134213 
L 62.226839 71.686066 
L 62.226839 71.038345 
L 62.585597 70.721654 
L 62.982017 70.608721 
L 63.82121 70.62844 
L 64.296335 70.716277 
L 65.482214 71.430324 
L 65.902777 71.609583 
L 65.931748 71.640654 
L 66.05584 71.686066 
L 66.292437 71.885641 
L 66.417012 71.931651 
L 66.670026 71.974673 
L 67.441137 72.241768 
L 67.982895 72.297936 
L 68.181346 72.447916 
" clip-path="url(#p3104664e07)" style="fill: none; stroke: #000000; stroke-width: 2"/>
    <path d="M 61.342741 71.129169 
L 61.190643 71.229554 
L 61.053031 71.225371 
L 60.768632 71.129169 
L 60.62426 71.142912 
L 60.263571 71.232542 
L 60.112922 71.239115 
L 59.845423 71.112438 
L 59.539296 70.658914 
L 59.302699 70.436633 
L 58.75901 70.119345 
L 58.744042 69.997449 
L 59.140944 69.926941 
L 59.485699 69.91738 
L 59.646488 69.889894 
L 59.795689 69.816995 
L 59.898536 69.70705 
L 60.094573 69.416651 
L 60.201283 69.325229 
L 61.233134 69.783534 
L 61.504978 70.027326 
L 61.667216 70.683413 
L 61.584649 70.701338 
L 61.205128 70.861476 
L 61.098901 70.938557 
L 61.171812 71.025199 
L 61.200783 71.078977 
L 61.239894 71.110646 
L 61.342741 71.129169 
" clip-path="url(#p3104664e07)" style="fill: none; stroke: #000000; stroke-width: 2"/>
    <path d="M 65.980999 68.145109 
L 68.332961 69.015111 
L 70.034042 69.926941 
L 70.916209 70.241241 
L 71.363811 70.472485 
L 71.581094 70.737788 
L 71.381194 70.809491 
L 71.155703 70.847136 
L 70.68927 70.82921 
L 70.494198 70.763481 
L 70.105987 70.568687 
L 69.747229 70.500569 
L 69.547329 70.42528 
L 69.350326 70.314737 
L 69.18664 70.182086 
L 69.014746 70.090664 
L 68.695582 70.144441 
L 68.494233 70.027326 
L 68.330547 70.134881 
L 68.216112 70.078116 
L 68.008969 69.816995 
L 67.857837 69.730354 
L 66.629466 69.327022 
L 66.417012 69.170469 
L 66.182347 68.78327 
L 66.093503 68.72292 
L 65.997898 68.740248 
L 65.954925 68.766539 
L 65.908571 68.772515 
L 65.80669 68.72292 
L 65.778201 68.668544 
L 65.791238 68.602816 
L 65.782547 68.547246 
L 65.688391 68.52215 
L 65.58989 68.47375 
L 65.036544 68.002897 
L 64.993087 67.902512 
L 64.995984 67.7119 
L 65.21037 67.797347 
L 65.601961 68.05787 
L 65.76951 68.11344 
L 65.980999 68.145109 
" clip-path="url(#p3104664e07)" style="fill: none; stroke: #000000; stroke-width: 2"/>
    <path d="M 79.992825 69.19198 
L 79.961922 69.325229 
L 79.891426 69.380799 
L 79.549569 69.533767 
L 79.252133 69.416651 
L 78.450602 69.411273 
L 78.180206 69.215881 
L 78.030039 69.382592 
L 77.896773 69.385579 
L 77.605614 69.215881 
L 77.298521 69.14597 
L 76.990463 69.124459 
L 76.719101 69.015111 
L 76.421666 68.749808 
L 76.175895 68.41818 
L 76.058562 68.11344 
L 75.958613 67.65633 
L 76.23094 67.306776 
L 76.669851 67.08091 
L 77.068202 67.000243 
L 78.894824 67.109591 
L 79.235716 67.256583 
L 79.716152 67.536824 
L 80.101949 67.867855 
L 80.161822 68.163035 
L 80.121746 68.308832 
L 80.21735 68.394876 
L 80.336131 68.479128 
L 80.367999 68.613572 
L 80.301366 68.667349 
L 80.040144 68.771319 
L 79.961922 68.823305 
L 79.940677 68.941615 
L 79.992825 69.19198 
" clip-path="url(#p3104664e07)" style="fill: none; stroke: #000000; stroke-width: 2"/>
    <path d="M 293.556931 66.567632 
L 293.336269 66.785133 
L 293.259013 66.756451 
L 293.357031 66.500111 
L 293.475812 66.285001 
L 293.609562 66.145777 
L 293.682955 66.086024 
L 293.716272 66.059135 
L 293.785802 66.016113 
L 293.79401 66.109327 
L 293.712892 66.329816 
L 293.556931 66.567632 
" clip-path="url(#p3104664e07)" style="fill: none; stroke: #000000; stroke-width: 2"/>
    <path d="M 68.457537 62.599442 
L 68.576318 62.680108 
L 68.656471 62.579723 
L 68.843817 62.825905 
L 69.237822 63.13901 
L 69.426134 63.336195 
L 69.500976 63.587157 
L 69.367226 63.759245 
L 69.141252 63.860825 
L 68.936524 63.893092 
L 68.694133 63.881141 
L 68.44112 63.834534 
L 68.204523 63.739527 
L 68.008969 63.582377 
L 67.874254 63.33739 
L 67.891636 63.122279 
L 68.089605 62.680108 
L 68.208386 62.599442 
L 68.332961 62.572553 
L 68.457537 62.599442 
" clip-path="url(#p3104664e07)" style="fill: none; stroke: #000000; stroke-width: 2"/>
    <path d="M 30.930429 56.821933 
L 31.091218 56.841054 
L 31.247661 56.746644 
L 31.470738 57.026288 
L 31.566342 57.279042 
L 31.579379 57.90346 
L 31.491018 58.236882 
L 31.281943 58.643201 
L 31.037621 58.892969 
L 30.84255 58.760317 
L 30.61899 58.861897 
L 30.358734 58.891774 
L 30.117792 58.856519 
L 29.951209 58.760317 
L 29.840153 58.558352 
L 29.762897 58.272136 
L 29.76 58.003845 
L 29.87009 57.858048 
L 29.807319 57.608281 
L 29.87009 57.402731 
L 29.971488 57.18284 
L 30.025085 56.891844 
L 30.105721 56.66299 
L 30.300792 56.514803 
L 30.542217 56.443697 
L 30.761431 56.446684 
L 30.673552 56.646259 
L 30.784608 56.740669 
L 30.930429 56.821933 
" clip-path="url(#p3104664e07)" style="fill: none; stroke: #000000; stroke-width: 2"/>
    <path d="M 31.954554 54.364296 
L 31.579379 54.440182 
L 31.561996 54.344577 
L 31.373685 53.88926 
L 31.32878 53.819947 
L 31.364994 53.666979 
L 31.466392 53.52895 
L 31.605453 53.437528 
L 31.748859 53.419602 
L 32.159765 53.502061 
L 32.188736 53.934075 
L 31.954554 54.364296 
" clip-path="url(#p3104664e07)" style="fill: none; stroke: #000000; stroke-width: 2"/>
    <path d="M 303.649864 19.03918 
L 303.800716 19.148835 
L 304.437851 18.989854 
L 304.846256 19.241037 
L 304.942531 19.459589 
L 304.78892 19.900488 
L 303.909563 20.568286 
L 303.338962 21.460329 
L 303.321179 21.733898 
L 303.455474 21.996085 
L 303.969965 22.265481 
L 303.939917 22.840319 
L 304.961541 22.898751 
L 305.494429 22.756844 
L 306.314917 21.990014 
L 306.726387 22.014298 
L 306.895636 21.577952 
L 306.951439 21.409105 
L 307.185075 21.325631 
L 307.297908 22.146719 
L 307.757209 22.060968 
L 307.854098 21.884912 
L 307.978581 21.846589 
L 308.299908 21.864802 
L 309.555169 21.584023 
L 310.091736 21.897433 
L 310.730098 21.922855 
L 310.554104 22.522735 
L 310.955149 22.641877 
L 311.450018 22.526909 
L 311.691626 22.301907 
L 311.81611 22.043135 
L 311.907479 22.043893 
L 312.519473 22.421427 
L 312.683815 22.910134 
L 313.46567 22.350853 
L 314.110777 22.330743 
L 315.342736 21.836724 
L 315.588637 21.506999 
L 315.615618 21.274028 
L 315.564721 20.593329 
L 316.041806 20.270054 
L 316.212281 20.244252 
L 317.328954 20.912051 
L 318.133672 20.60394 
L 318.920872 20.954927 
L 319.658575 20.898391 
L 319.940043 20.736754 
L 320.014856 20.29889 
L 320.377268 20.358461 
L 320.810201 20.977313 
L 321.165256 21.075965 
L 322.413158 20.927608 
L 322.571368 20.613818 
L 323.020245 20.903324 
L 323.068076 21.14616 
L 323.06501 21.883394 
L 323.58318 22.007468 
L 323.446433 22.284073 
L 323.067463 24.136455 
L 323.1527 24.547379 
L 323.377752 25.069476 
L 323.834601 25.154848 
L 324.498717 24.814878 
L 326.040965 25.198103 
L 326.573239 25.519861 
L 327.36 26.370924 
L 326.419934 27.711833 
L 326.446303 27.90762 
L 325.993134 28.709737 
L 325.457793 28.795488 
L 325.347413 29.006452 
L 325.256657 29.215898 
L 325.062266 29.202238 
L 324.689429 29.766831 
L 323.919838 30.414141 
L 323.117134 30.770047 
L 322.130463 30.815579 
L 321.571207 31.553192 
L 321.414836 31.891645 
L 320.797324 32.516947 
L 320.826758 32.879683 
L 320.728643 33.146803 
L 320.097027 33.950437 
L 319.773247 33.983068 
L 319.042903 33.921601 
L 318.793322 34.041501 
L 318.760822 34.861831 
L 319.299842 35.49548 
L 319.752398 36.523738 
L 320.059621 36.653504 
L 320.069432 37.032935 
L 319.875655 37.091367 
L 319.871975 38.514992 
L 320.117877 39.486335 
L 320.141179 39.926475 
L 319.736454 41.13686 
L 320.162028 41.872956 
L 320.128914 42.05053 
L 319.851739 42.422372 
L 319.63282 42.937639 
L 319.702114 43.416481 
L 319.977449 43.841444 
L 320.376655 44.196591 
L 320.063913 44.652667 
L 319.434137 45.20436 
L 319.384466 45.535224 
L 319.16616 45.678649 
L 318.475061 45.709762 
L 317.643535 46.255384 
L 317.425843 46.766857 
L 317.523958 46.981615 
L 317.750236 47.682044 
L 318.462797 47.918809 
L 319.364843 49.295385 
L 319.104838 49.775744 
L 319.080309 50.066388 
L 318.974835 50.486039 
L 318.825823 50.71901 
L 318.845446 51.070363 
L 318.795775 51.458141 
L 318.384305 51.948366 
L 318.020052 52.131252 
L 317.950758 52.487917 
L 318.020052 52.74593 
L 317.51292 53.993499 
L 315.397312 54.185491 
L 315.13976 54.033719 
L 314.936784 54.095187 
L 314.242006 54.124782 
L 313.885726 54.249235 
L 311.324308 54.132371 
L 311.341089 54.170464 
L 312.02951 55.582556 
L 312.581408 56.216964 
L 313.084861 56.544034 
L 313.197693 56.865791 
L 313.630626 57.123805 
L 314.129174 57.251293 
L 314.216864 57.397754 
L 314.153703 58.046581 
L 313.998558 58.465472 
L 314.061107 59.102916 
L 314.148797 59.275937 
L 314.372009 59.446681 
L 314.9607 60.14104 
L 314.800649 60.409677 
L 314.874849 61.012213 
L 315.040418 61.242148 
L 316.088411 61.890216 
L 316.071854 62.566742 
L 316.426908 62.683607 
L 317.167064 62.429767 
L 317.750236 62.693472 
L 318.107129 63.13475 
L 318.181942 63.422359 
L 318.099771 63.673542 
L 318.254302 63.910307 
L 317.67481 64.954121 
L 317.153573 65.516059 
L 317.317916 65.804047 
L 317.174422 66.301481 
L 316.693045 66.652834 
L 316.031381 66.862659 
L 315.80449 67.185934 
L 314.5664 68.326125 
L 314.484841 69.428751 
L 314.72829 69.72926 
L 314.663901 69.933015 
L 314.167194 70.631547 
L 313.836055 71.543699 
L 313.959925 71.906435 
L 313.674778 72.245267 
L 314.173939 72.565127 
L 315.953502 74.804529 
L 316.548162 76.103413 
L 316.708989 76.25092 
L 317.18914 76.192867 
L 317.477966 76.065378 
L 317.722028 75.891978 
L 318.362229 75.772837 
L 318.560299 75.912467 
L 318.186848 77.038619 
L 317.750236 78.112408 
L 317.652734 78.468694 
L 317.351643 78.503222 
L 316.474739 78.212578 
L 316.371105 78.32451 
L 316.130723 78.790451 
L 315.738875 78.966128 
L 315.159996 78.975234 
L 314.701308 79.137631 
L 314.687204 79.805429 
L 313.969124 81.561815 
L 312.668485 82.762714 
L 312.507821 83.204372 
L 312.259467 84.250084 
L 311.855356 84.815436 
L 311.676602 85.327288 
L 311.723207 85.325012 
L 312.020312 85.971182 
L 312.289515 86.226919 
L 312.478387 87.183085 
L 312.452018 87.348517 
L 312.656834 87.805352 
L 312.842026 90.008328 
L 313.100288 91.063935 
L 312.64834 90.847032 
L 312.121068 90.863165 
L 311.864192 90.962355 
L 308.040019 93.500658 
L 307.604971 93.369202 
L 306.175252 93.27778 
L 306.292102 93.460026 
L 306.346181 93.67932 
L 306.079648 93.290328 
L 305.652326 92.934201 
L 304.806372 92.467531 
L 303.544495 92.208651 
L 302.591539 92.343842 
L 301.734993 92.045822 
L 301.381005 92.205286 
L 300.863394 92.269979 
L 299.18648 91.664451 
L 298.457377 91.755873 
L 298.302382 91.865221 
L 297.927207 92.266761 
L 297.056146 92.306198 
L 296.414921 92.580464 
L 296.135997 92.653933 
L 295.875617 92.88581 
L 295.641116 92.791663 
L 294.968302 93.32379 
L 294.844692 93.369202 
L 294.229541 93.169627 
L 294.432338 92.467531 
L 295.071632 91.338798 
L 295.230007 90.989841 
L 295.121365 90.553047 
L 295.612094 90.070977 
L 295.781487 89.421251 
L 295.595449 88.933616 
L 295.786397 88.563218 
L 296.118888 88.193691 
L 296.181704 87.837278 
L 296.387881 87.347901 
L 296.602989 86.295202 
L 296.562125 85.275124 
L 296.262823 84.665593 
L 296.741295 83.167106 
L 297.080288 83.10664 
L 297.14499 82.69793 
L 297.030555 82.797717 
L 296.474311 82.869421 
L 296.37581 82.613678 
L 296.590001 80.590232 
L 296.520476 80.241033 
L 296.332343 79.868121 
L 295.938348 79.794536 
L 295.452118 79.496967 
L 295.590696 79.321293 
L 295.776593 79.187447 
L 296.391504 77.887887 
L 296.839241 75.265525 
L 296.636106 73.524836 
L 296.329116 72.943413 
L 295.21697 71.856362 
L 294.885252 71.730881 
L 295.066803 71.548635 
L 295.337199 71.657385 
L 295.776593 72.032036 
L 296.57571 72.351714 
L 296.594541 72.542923 
L 297.088014 72.524997 
L 298.275825 72.8387 
L 298.870213 72.651673 
L 298.206294 72.566227 
L 297.229972 72.040999 
L 297.141127 71.634081 
L 297.22128 71.309623 
L 297.323162 71.129169 
L 297.153681 71.069416 
L 297.002066 70.692973 
L 297.080288 70.528055 
L 296.893908 70.498179 
L 296.661174 70.964251 
L 296.425061 71.129169 
L 296.688697 71.165021 
L 296.811823 71.377741 
L 296.715253 71.730881 
L 296.194741 71.647825 
L 295.321748 71.275564 
L 294.739603 71.382071 
L 294.207092 71.982544 
L 294.300847 72.052668 
L 293.627652 72.328851 
L 292.235548 72.557658 
L 291.826767 72.742812 
L 291.427562 72.570409 
L 291.508198 72.33319 
L 292.022438 71.396985 
L 292.023325 70.700792 
L 291.735237 70.027045 
L 291.205934 69.027495 
L 291.42285 68.911825 
L 292.483167 68.798646 
L 292.925846 69.124459 
L 292.852453 68.823305 
L 293.405799 68.63329 
L 293.582522 68.52215 
L 293.953122 68.131037 
L 294.885252 67.320519 
L 294.628375 66.83413 
L 294.556914 66.53178 
L 294.641895 66.308305 
L 294.366671 66.32623 
L 294.173531 65.732884 
L 294.067304 65.386915 
L 294.878009 63.891897 
L 295.528408 63.526209 
L 296.262823 63.391765 
L 296.878457 62.889841 
L 296.991444 62.680108 
L 296.14549 63.282417 
L 294.965405 63.517246 
L 294.7375 63.936114 
L 294.162425 64.735608 
L 293.505266 66.003565 
L 293.01469 66.608264 
L 292.967611 67.128273 
L 293.03845 67.964695 
L 292.869284 68.312366 
L 291.591645 68.610275 
L 290.819864 68.538876 
L 290.385928 68.956412 
L 289.40104 68.460604 
L 289.11133 68.413997 
L 288.369673 68.409217 
L 288.509699 66.600496 
L 288.799157 66.311017 
L 289.188032 65.122495 
L 289.156718 64.237866 
L 289.022969 63.682164 
L 289.796868 61.752083 
L 290.040822 61.217707 
L 290.162683 60.196809 
L 289.863128 59.180978 
L 289.347444 58.605557 
L 289.483608 58.564328 
L 290.016355 58.712103 
L 291.352605 57.947564 
L 291.622151 58.15024 
L 291.760729 58.014003 
L 291.47633 57.642938 
L 292.034237 56.881637 
L 292.594089 56.535125 
L 293.131164 55.608589 
L 293.353568 54.123038 
L 294.287 51.733375 
L 295.94559 47.385753 
L 296.280206 47.66719 
L 296.755813 47.686908 
L 296.755813 47.57756 
L 296.178807 47.202909 
L 295.432804 47.011103 
L 295.312574 46.795992 
L 295.290846 46.483484 
L 295.801701 45.385226 
L 296.983588 40.875752 
L 297.2348 39.930383 
L 297.2348 40.33969 
L 297.642326 39.834181 
L 297.882785 39.930383 
L 297.925759 39.475066 
L 297.992392 39.518088 
L 298.096688 39.638191 
L 298.314453 39.485821 
L 298.457377 39.236652 
L 298.163804 38.957008 
L 298.195672 38.797468 
L 299.088944 38.501691 
L 299.275325 38.33498 
L 299.075425 38.347528 
L 298.412471 38.567419 
L 298.052748 38.33498 
L 297.957627 37.930453 
L 298.410057 37.334717 
L 298.295139 37.022806 
L 298.274859 37.263013 
L 298.11407 37.518158 
L 298.052748 37.323364 
L 297.757727 38.005742 
L 297.466568 39.356755 
L 297.161407 39.838961 
L 298.29707 34.836447 
L 298.295139 34.297476 
L 298.166218 32.795886 
L 298.377223 32.501901 
L 297.933001 32.403309 
L 297.702682 32.000574 
L 297.2348 30.377685 
L 297.181204 29.784937 
L 297.09817 29.744631 
L 296.748922 28.359286 
L 296.876064 27.867926 
L 296.716921 27.229723 
L 296.215548 24.883268 
L 296.256546 24.718487 
L 296.522113 24.62348 
L 297.456428 24.42032 
L 297.809875 24.143067 
L 296.068717 24.527876 
L 295.852418 24.401861 
L 295.624656 23.924698 
L 295.690646 22.269813 
L 295.776593 22.129394 
L 297.019449 21.059817 
L 297.294456 20.426 
L 298.200795 19.915286 
L 298.430139 19.451242 
L 298.839157 19.27253 
L 299.491622 19.178431 
L 300.123238 18.840358 
L 302.155448 18.468136 
L 302.655222 18.130442 
L 303.076504 18.040138 
L 303.432171 17.804511 
L 303.646185 18.169144 
L 303.649864 19.03918 
L 303.649864 19.03918 
" clip-path="url(#p3104664e07)" style="fill: none; stroke: #000000; stroke-width: 2"/>
   </g>
  </g>
 </g>
 <defs>
  <clipPath id="p3104664e07">
   <rect x="0" y="0" width="357.12" height="213.654135"/>
  </clipPath>
 </defs>
</svg>
