<?xml version="1.0" encoding="utf-8" standalone="no"?>
<!DOCTYPE svg PUBLIC "-//W3C//DTD SVG 1.1//EN"
  "http://www.w3.org/Graphics/SVG/1.1/DTD/svg11.dtd">
<svg xmlns:xlink="http://www.w3.org/1999/xlink" width="247.244986pt" height="266.112pt" viewBox="0 0 247.244986 266.112" xmlns="http://www.w3.org/2000/svg" version="1.1">
 <metadata>
  <rdf:RDF xmlns:dc="http://purl.org/dc/elements/1.1/" xmlns:cc="http://creativecommons.org/ns#" xmlns:rdf="http://www.w3.org/1999/02/22-rdf-syntax-ns#">
   <cc:Work>
    <dc:type rdf:resource="http://purl.org/dc/dcmitype/StillImage"/>
    <dc:date>2024-02-02T21:58:04.578955</dc:date>
    <dc:format>image/svg+xml</dc:format>
    <dc:creator>
     <cc:Agent>
      <dc:title>Matplotlib v3.8.2, https://matplotlib.org/</dc:title>
     </cc:Agent>
    </dc:creator>
   </cc:Work>
  </rdf:RDF>
 </metadata>
 <defs>
  <style type="text/css">*{stroke-linejoin: round; stroke-linecap: butt}</style>
 </defs>
 <g id="figure_1">
  <g id="patch_1">
   <path d="M 0 266.112 
L 247.244986 266.112 
L 247.244986 0 
L 0 0 
L 0 266.112 
z
" style="fill: none"/>
  </g>
  <g id="axes_1">
   <g id="PatchCollection_1">
    <path d="M 130.707533 45.644727 
L 130.718934 46.072736 
L 130.86588 46.166622 
L 131.240843 46.191474 
L 131.646209 46.680234 
L 131.694347 46.961891 
L 130.793674 47.282208 
L 130.612526 47.729547 
L 130.768338 48.223829 
L 131.240843 48.563475 
L 131.390322 48.522055 
L 131.65761 48.215545 
L 132.073111 48.298386 
L 132.386003 48.759531 
L 132.150384 49.494051 
L 132.204855 50.173343 
L 132.565884 51.283407 
L 132.954782 51.747314 
L 134.032803 52.473549 
L 134.497707 52.592287 
L 134.860003 52.804911 
L 134.792864 53.279864 
L 134.4065 54.053042 
L 134.381164 55.279082 
L 134.483773 55.922477 
L 134.78273 56.864098 
L 134.822 57.814003 
L 135.259035 58.631363 
L 135.247634 58.918544 
L 135.063953 59.432155 
L 135.075354 59.741426 
L 135.227366 60.042414 
L 135.457918 60.230186 
L 135.669469 60.199811 
L 135.894953 59.269235 
L 136.21798 59.064895 
L 136.608145 59.128406 
L 137.046447 59.539848 
L 137.280799 60.105925 
L 138.088998 61.000603 
L 137.902783 61.202181 
L 137.615226 61.334726 
L 136.888101 61.597055 
L 136.0609 62.436505 
L 136.219246 62.599425 
L 137.354272 62.765106 
L 137.769772 63.046764 
L 138.040861 63.452683 
L 138.102932 63.935919 
L 137.850845 64.212054 
L 136.838697 64.786416 
L 136.611945 65.128823 
L 136.687951 65.429811 
L 137.098384 65.675571 
L 137.222528 65.675571 
L 137.788774 66.153285 
L 138.349952 66.774589 
L 138.514632 66.774589 
L 138.619774 66.30792 
L 139.072011 66.711078 
L 139.110014 67.293723 
L 138.880729 67.912266 
L 138.216942 68.961579 
L 138.234676 69.339884 
L 138.619774 70.154483 
L 138.77052 71.344625 
L 138.670445 72.595518 
L 138.329684 73.727672 
L 137.769772 74.567123 
L 136.946372 75.29612 
L 136.931171 75.630243 
L 137.484749 76.403422 
L 137.877447 76.524921 
L 138.140935 76.787249 
L 137.95092 77.485871 
L 136.318054 80.05669 
L 135.941824 80.967936 
L 135.846816 81.531251 
L 135.872152 82.124942 
L 136.076102 82.597133 
L 136.522004 82.790428 
L 136.75509 83.01962 
L 136.263583 84.160058 
L 136.095103 84.615681 
L 136.197711 85.068543 
L 136.76269 85.932846 
L 137.023645 86.090243 
L 137.159189 86.344287 
L 136.095103 88.130881 
L 136.176176 89.646863 
L 135.680869 90.690654 
L 136.42953 92.129319 
L 136.318054 92.460681 
L 135.461718 94.045696 
L 134.885338 95.978643 
L 134.937276 96.657935 
L 135.546592 97.074899 
L 135.765743 97.500147 
L 136.071034 97.831509 
L 137.161723 98.113167 
L 137.753304 97.906066 
L 137.962321 98.030327 
L 138.427225 98.508041 
L 138.723649 98.439007 
L 139.116348 98.096599 
L 139.809271 98.132497 
L 140.105695 97.980622 
L 140.047423 97.936441 
L 140.148765 97.54709 
L 140.476858 97.627169 
L 140.576933 97.624408 
L 141.063372 97.439398 
L 142.480887 97.511193 
L 142.84445 97.356557 
L 143.069935 97.461488 
L 143.738789 99.07964 
L 144.060548 99.397196 
L 144.486183 99.504888 
L 145.288048 99.328162 
L 145.516066 99.217708 
L 146.008839 99.328162 
L 146.582686 99.71199 
L 147.740513 99.48832 
L 149.831949 100.369192 
L 149.920623 100.206272 
L 150.125839 100.255976 
L 150.503337 100.471361 
L 150.780759 100.465839 
L 150.980909 100.076488 
L 151.359673 100.109624 
L 152.454161 100.380237 
L 152.9254 100.294635 
L 153.537249 99.778262 
L 153.872943 99.695422 
L 153.979352 99.800353 
L 154.054091 100.211794 
L 154.222571 100.355385 
L 154.612736 100.302919 
L 154.937029 100.164852 
L 155.334795 100.225601 
L 156.303873 100.681224 
L 156.454619 100.907655 
L 157.357825 100.965643 
L 157.655516 100.885564 
L 159.708949 101.125802 
L 159.982571 100.943553 
L 159.959769 101.371562 
L 160.081379 101.476493 
L 160.520948 101.454403 
L 161.20247 101.691879 
L 161.474825 100.99878 
L 161.761115 101.40746 
L 162.066407 102.415353 
L 162.642153 102.500955 
L 162.966205 102.390067 
L 163.694205 101.512391 
L 163.813281 101.294244 
L 164.33519 101.396414 
L 165.320737 101.186552 
L 165.400543 101.357755 
L 165.767906 101.012586 
L 166.090933 100.424419 
L 166.501999 100.639804 
L 167.336167 101.614561 
L 167.722531 101.708447 
L 167.837174 101.493062 
L 167.57812 101.009825 
L 167.733932 100.849667 
L 168.203904 100.67294 
L 169.287625 99.758933 
L 169.769631 98.941573 
L 170.031852 98.73171 
L 170.243402 98.143542 
L 170.840051 97.337228 
L 171.093404 97.110797 
L 171.521572 96.981013 
L 173.634544 96.693833 
L 173.887897 96.972729 
L 174.536483 98.604688 
L 175.112863 99.48832 
L 175.860257 100.217317 
L 177.227101 101.042961 
L 178.374794 102.026002 
L 178.802962 102.130934 
L 183.348764 102.252433 
L 183.662289 102.075707 
L 184.723842 102.719102 
L 186.251565 102.865453 
L 186.706336 103.147111 
L 187.033795 102.404308 
L 188.265729 104.102539 
L 189.504629 105.140807 
L 189.716813 105.789725 
L 189.797253 108.051271 
L 189.969533 109.020506 
L 190.394534 109.88757 
L 191.032353 110.580669 
L 192.852067 111.732153 
L 192.905271 112.491525 
L 192.751359 113.159772 
L 192.983177 114.057211 
L 192.731724 114.946366 
L 191.98623 116.531382 
L 192.045768 117.530991 
L 192.591746 119.59096 
L 192.590479 120.052105 
L 192.452401 120.952306 
L 192.505605 121.405168 
L 193.415779 122.575981 
L 193.549423 123.097876 
L 193.447448 124.514449 
L 193.710303 124.86238 
L 194.391825 125.284866 
L 194.483032 125.519581 
L 195.020142 127.507754 
L 195.010008 127.955093 
L 194.437428 129.170088 
L 194.360156 129.611904 
L 194.521035 130.211118 
L 195.27413 131.017432 
L 195.543951 131.52276 
L 195.502781 132.345642 
L 194.842795 133.831249 
L 195.135418 137.50937 
L 195.606657 138.202469 
L 196.693545 139.373282 
L 197.224321 141.035616 
L 197.595484 146.195201 
L 197.82857 146.8883 
L 198.383415 147.484752 
L 199.139676 147.82716 
L 201.459131 148.117102 
L 201.464198 148.119863 
L 202.335101 148.442941 
L 203.216773 148.62519 
L 204.085143 148.553395 
L 205.552695 147.796785 
L 207.103854 147.810592 
L 208.273716 147.385343 
L 209.522117 147.280412 
L 209.93635 147.03189 
L 210.790153 145.982577 
L 212.371081 145.085138 
L 215.990241 143.740359 
L 216.607791 143.06659 
L 216.984655 142.878818 
L 217.638308 143.058306 
L 222.287351 145.800328 
L 223.642794 147.694615 
L 226.641237 149.456357 
L 225.274393 150.505671 
L 224.692946 151.262281 
L 224.450993 152.082402 
L 224.519398 152.513173 
L 224.834824 153.360908 
L 224.9539 154.360517 
L 225.146449 154.694641 
L 225.725363 155.459535 
L 226.254872 156.906484 
L 226.227003 157.682423 
L 225.993918 158.508067 
L 225.689893 159.093474 
L 224.738549 160.510047 
L 224.453526 161.37435 
L 224.447192 162.19171 
L 224.79302 164.025248 
L 224.777819 164.892312 
L 223.556654 168.587001 
L 222.669915 170.044994 
L 221.275202 176.316024 
L 221.296737 176.766124 
L 221.49562 177.282497 
L 222.120137 178.309719 
L 222.196143 178.815047 
L 221.974459 179.284476 
L 221.147259 180.043848 
L 220.852101 180.518801 
L 220.309924 182.266736 
L 219.243304 183.815854 
L 218.542781 184.448204 
L 217.995537 185.44229 
L 217.656042 186.684899 
L 217.640841 187.25926 
L 217.737116 187.850189 
L 218.15515 188.841514 
L 217.891661 190.650199 
L 218.283093 191.511741 
L 218.354032 192.050205 
L 217.982869 192.290442 
L 217.119566 192.243499 
L 216.894714 192.497544 
L 216.88838 193.201688 
L 217.525565 195.488087 
L 218.242557 196.484935 
L 218.20202 197.075864 
L 217.572436 198.409597 
L 217.789053 200.113351 
L 217.572436 200.516508 
L 217.365319 200.585542 
L 216.568521 200.715326 
L 216.419676 201.002506 
L 216.51785 201.549254 
L 216.638827 202.361091 
L 216.903581 203.21711 
L 216.88838 203.816324 
L 216.381673 205.5256 
L 216.47668 205.931519 
L 216.920049 206.456176 
L 217.007457 206.801345 
L 216.324668 208.049475 
L 216.385473 208.574132 
L 216.385473 209.778081 
L 215.901567 210.912997 
L 215.551939 212.978488 
L 215.335954 213.342986 
L 214.583494 214.182437 
L 213.525108 215.176524 
L 213.292656 215.65976 
L 213.447835 216.413609 
L 213.525108 216.907891 
L 213.412365 218.178113 
L 213.213483 218.771803 
L 212.871455 219.205336 
L 212.618734 219.326835 
L 212.186133 219.023086 
L 211.097978 219.023086 
L 210.510197 219.169438 
L 210.104197 219.550505 
L 209.838809 220.080684 
L 209.338435 221.778915 
L 208.746854 222.587991 
L 208.342121 222.77024 
L 207.141857 222.87241 
L 206.647817 223.051898 
L 205.057389 224.612062 
L 204.888275 225.067685 
L 205.226502 226.11976 
L 205.142262 226.699644 
L 204.74893 227.01996 
L 204.180151 227.116608 
L 202.829775 226.953688 
L 201.851829 226.50911 
L 201.262148 226.500826 
L 200.065684 227.146983 
L 198.425218 227.436925 
L 197.991983 227.718582 
L 197.579016 228.160399 
L 197.287026 228.671249 
L 197.138181 229.215235 
L 197.077376 230.449559 
L 196.818955 230.874807 
L 196.217239 230.930034 
L 195.054345 230.913466 
L 194.771856 231.335953 
L 194.527369 232.365937 
L 194.12517 232.573038 
L 193.474684 232.733197 
L 193.457582 233.136354 
L 194.153672 234.544643 
L 194.150505 235.107959 
L 193.843314 235.831433 
L 193.904119 236.04958 
L 193.882584 236.419601 
L 193.645064 237.02986 
L 193.249199 237.488244 
L 192.728557 237.778186 
L 192.117974 237.877595 
L 191.429485 238.393967 
L 190.552247 239.407383 
L 189.63954 240.111528 
L 188.158053 239.321782 
L 187.202276 238.976613 
L 186.990725 238.706 
L 186.621462 237.70363 
L 186.254099 237.203825 
L 185.757525 237.016053 
L 183.458173 237.027035 
L 181.80713 236.400778 
L 180.573906 236.242875 
L 179.487018 236.933212 
L 178.591412 237.932822 
L 178.037834 238.175821 
L 177.332876 238.363593 
L 176.767264 238.667341 
L 176.632986 239.247225 
L 176.727361 239.976222 
L 176.632986 240.572674 
L 176.346697 241.105615 
L 175.390919 242.30128 
L 175.055859 243.121401 
L 174.617556 243.770319 
L 173.814445 243.930499 
L 173.053096 243.62949 
L 172.31457 243.055129 
L 171.681185 242.3427 
L 171.218181 241.619226 
L 170.219917 240.413559 
L 168.600402 240.183323 
L 166.881397 240.672082 
L 165.628562 241.62751 
L 164.714746 241.790737 
L 163.83355 241.263012 
L 162.318494 239.785689 
L 161.456009 239.443519 
L 160.560218 239.534406 
L 159.669679 239.887859 
L 157.245083 241.188455 
L 156.441951 241.365182 
L 154.426521 241.193978 
L 154.201036 241.053149 
L 153.289576 240.389975 
L 151.686499 239.893381 
L 150.896035 239.197521 
L 150.279119 239.034601 
L 149.634333 239.037362 
L 147.159066 239.382531 
L 146.368188 239.267252 
L 145.982237 239.136771 
L 141.724626 237.068519 
L 139.210864 236.554989 
L 138.152481 236.205415 
L 136.723421 235.90599 
L 135.964212 235.5923 
L 134.059765 235.199022 
L 133.287942 235.176993 
L 131.44226 235.461412 
L 128.760509 235.124527 
L 122.079568 235.696127 
L 119.789249 236.706782 
L 119.790751 236.687645 
L 119.853854 234.820779 
L 119.548563 234.31269 
L 118.60862 233.547796 
L 118.460408 233.202627 
L 118.585818 232.432209 
L 118.940514 231.888223 
L 119.496625 231.565145 
L 120.738059 231.355282 
L 120.859669 231.076386 
L 120.819132 230.184469 
L 121.076287 229.543836 
L 121.460118 229.223519 
L 121.656467 229.53279 
L 121.680536 229.703994 
L 122.060566 229.864153 
L 122.158108 229.728846 
L 122.22398 229.099258 
L 122.530538 228.516613 
L 123.161389 227.613651 
L 122.794026 227.290573 
L 122.743355 226.93712 
L 122.944771 226.600235 
L 123.328602 226.337907 
L 124.945 225.843625 
L 125.414971 225.252695 
L 126.537329 225.161571 
L 126.859088 224.89372 
L 126.703276 224.429813 
L 126.256106 224.101212 
L 125.962216 223.728429 
L 126.264973 223.143023 
L 126.67414 223.016001 
L 127.526676 223.220341 
L 127.863636 222.869649 
L 127.541877 222.07438 
L 128.522356 221.795483 
L 128.700971 219.205336 
L 128.906187 218.868451 
L 129.031598 218.959575 
L 130.09315 219.086598 
L 130.221094 218.923678 
L 130.012077 218.468055 
L 129.891734 218.227817 
L 129.979141 217.830183 
L 130.556788 217.363514 
L 130.204626 216.838857 
L 130.055147 216.634517 
L 129.369825 216.08777 
L 129.272284 215.634908 
L 129.630779 214.138256 
L 129.975341 213.884211 
L 130.055147 213.608076 
L 129.462299 213.061328 
L 129.377426 212.724444 
L 129.545906 212.299195 
L 130.490916 210.49051 
L 130.556788 210.051455 
L 130.433911 208.761904 
L 130.632794 208.574132 
L 131.577804 208.259338 
L 132.002172 207.939021 
L 131.98697 207.580046 
L 130.949486 206.864856 
L 130.891215 206.387142 
L 131.334584 206.58872 
L 131.560069 206.933889 
L 131.77542 206.641186 
L 131.994571 206.088916 
L 132.23019 205.191477 
L 132.479744 204.937432 
L 134.070806 204.363071 
L 134.889139 203.904687 
L 137.720368 201.814344 
L 138.039594 201.386334 
L 138.042127 201.03012 
L 136.908369 200.701519 
L 137.094584 200.298362 
L 138.102932 199.398161 
L 138.243544 199.091651 
L 138.218208 198.812754 
L 137.655763 198.605653 
L 137.58609 198.417881 
L 137.655763 198.230109 
L 138.68818 197.766202 
L 139.188554 197.404465 
L 139.457109 197.034444 
L 139.084678 196.128721 
L 138.997271 195.615109 
L 140.702343 194.455342 
L 140.964564 194.115696 
L 140.469257 193.94173 
L 140.125963 193.568948 
L 140.943029 192.505828 
L 141.741094 192.26559 
L 142.240201 192.260067 
L 142.469486 192.108193 
L 142.560693 191.901092 
L 142.736774 191.180379 
L 143.84013 191.263219 
L 144.006077 191.097538 
L 144.120086 190.476234 
L 144.388641 190.285701 
L 144.720535 190.20286 
L 145.010625 189.901873 
L 145.139836 189.426921 
L 145.432459 186.671092 
L 145.256378 186.3204 
L 144.927018 185.955902 
L 143.405628 184.776805 
L 143.395494 184.453727 
L 142.641216 182.565129 
L 141.896906 182.059635 
L 141.420601 181.39691 
L 140.62887 179.654498 
L 140.336247 179.306567 
L 139.198688 178.660411 
L 137.769772 177.100247 
L 137.284599 176.923521 
L 135.341375 176.917998 
L 134.998081 176.804783 
L 134.588914 176.006752 
L 134.359629 175.957048 
L 133.569165 176.006752 
L 131.866627 175.150733 
L 131.560069 175.167301 
L 131.318116 174.764144 
L 129.107604 173.250923 
L 128.655367 173.26473 
L 128.247467 173.565717 
L 127.263188 174.493532 
L 126.675407 174.69511 
L 126.233304 174.452111 
L 126.006553 173.982681 
L 123.550287 171.127444 
L 122.995442 170.848547 
L 117.45586 169.672212 
L 117.393788 169.459588 
L 116.870613 169.122703 
L 116.522251 169.017771 
L 115.27195 168.987397 
L 114.763975 168.857613 
L 110.064261 165.314799 
L 109.285198 165.124266 
L 108.166641 164.284815 
L 107.70427 164.279292 
L 107.219098 164.102566 
L 106.301957 163.500591 
L 105.725577 163.299012 
L 105.025053 162.80473 
L 103.770952 162.269028 
L 103.456793 161.948711 
L 102.853811 161.807883 
L 102.534585 161.429577 
L 101.728286 161.131351 
L 101.325454 160.634308 
L 100.597695 159.427598 
L 99.643184 158.590908 
L 99.049069 158.320296 
L 98.665871 157.549878 
L 97.57455 156.992085 
L 96.849958 156.354213 
L 96.397721 156.263089 
L 95.981587 156.009044 
L 95.120818 155.840602 
L 94.944103 155.677682 
L 94.512768 155.089514 
L 93.573459 154.125803 
L 84.747878 148.291067 
L 84.305142 148.180613 
L 83.799067 148.233078 
L 82.061693 148.777065 
L 80.226145 148.835053 
L 78.306989 148.54235 
L 77.303075 148.54235 
L 77.041487 148.393237 
L 76.298526 147.796785 
L 76.076208 147.760887 
L 75.202771 147.796785 
L 73.687082 147.498559 
L 72.43488 146.70329 
L 71.415764 146.612165 
L 70.997097 145.607033 
L 70.770979 145.557329 
L 70.076789 145.225967 
L 69.793666 145.201114 
L 68.428089 145.198353 
L 67.695896 144.687503 
L 65.040115 144.679219 
L 64.335791 144.253971 
L 63.512391 143.574678 
L 62.612351 143.130101 
L 61.676842 143.403475 
L 60.672294 142.671716 
L 60.12695 141.568556 
L 59.834326 141.016286 
L 59.436561 140.508197 
L 58.791775 140.138176 
L 58.146356 139.191033 
L 58.369308 138.751978 
L 58.455448 138.144481 
L 58.366774 137.603256 
L 58.063383 137.368541 
L 57.640282 137.222189 
L 56.457753 136.247432 
L 55.8041 136.272284 
L 55.579248 136.114887 
L 54.883792 135.526719 
L 54.377084 135.374845 
L 54.12373 135.010347 
L 53.780436 134.248214 
L 52.191274 133.535785 
L 51.286801 133.411524 
L 49.981395 132.538937 
L 48.776697 132.282131 
L 48.548679 131.655304 
L 48.157247 131.398499 
L 48.293425 130.824138 
L 48.409334 130.603229 
L 47.680942 130.539718 
L 47.463691 130.426503 
L 46.225424 129.114861 
L 45.870729 128.943657 
L 44.382908 128.84701 
L 44.175791 128.719988 
L 43.446132 128.046218 
L 42.815281 127.659629 
L 42.46692 126.127079 
L 41.938677 125.57757 
L 41.098809 124.997686 
L 40.346348 123.98427 
L 37.613927 122.305368 
L 36.401628 120.822522 
L 36.397828 119.698652 
L 36.125473 119.295495 
L 35.309673 117.765706 
L 34.564813 116.906926 
L 34.355796 116.575564 
L 33.705943 116.0371 
L 33.453856 115.393705 
L 32.630456 114.363721 
L 32.359368 113.833542 
L 31.9312 113.593304 
L 32.233957 112.966477 
L 31.765253 112.66549 
L 31.775387 112.31756 
L 31.946401 111.729392 
L 31.72725 111.406314 
L 31.581571 111.425643 
L 31.277547 111.348325 
L 30.349005 110.796055 
L 30.345204 110.461931 
L 30.691032 109.978695 
L 30.82911 109.531356 
L 30.634028 109.053642 
L 29.956306 108.37435 
L 29.648481 108.349497 
L 29.326722 107.487956 
L 29.051833 107.405115 
L 27.997881 107.261525 
L 27.519042 107.076514 
L 25.393403 105.458362 
L 25.22239 105.055205 
L 25.010839 104.870195 
L 23.716201 104.417333 
L 23.122086 103.627586 
L 22.704052 103.271372 
L 21.218132 102.81851 
L 21.036984 102.575511 
L 21.082588 102.354603 
L 21.341009 101.840992 
L 21.190263 101.482016 
L 21.357477 101.482016 
L 21.058519 101.10095 
L 20.603749 100.932507 
L 21.163661 99.598774 
L 23.573056 91.063437 
L 29.787826 69.729235 
L 29.881402 67.962002 
L 29.748556 56.723269 
L 29.956306 56.01084 
L 32.992752 51.440804 
L 37.912884 44.015529 
L 39.18092 41.256939 
L 42.59613 31.771697 
L 42.987562 31.603254 
L 48.537278 30.730667 
L 85.416732 22.479749 
L 107.891752 22.176 
L 108.379458 22.303022 
L 111.051075 24.147605 
L 130.569455 36.769743 
L 130.649262 37.150809 
L 130.574523 38.034442 
L 130.623927 38.890461 
L 131.04196 40.42025 
L 131.123034 41.256939 
L 131.058428 41.85063 
L 131.052095 43.535054 
L 130.689799 44.948866 
L 130.707533 45.644727 
L 130.707533 45.644727 
" clip-path="url(#p2765d2756e)" style="fill: none; stroke: #000000; stroke-width: 2"/>
   </g>
  </g>
 </g>
 <defs>
  <clipPath id="p2765d2756e">
   <rect x="0" y="-0" width="247.244986" height="266.112"/>
  </clipPath>
 </defs>
</svg>
