<?xml version="1.0" encoding="utf-8" standalone="no"?>
<!DOCTYPE svg PUBLIC "-//W3C//DTD SVG 1.1//EN"
  "http://www.w3.org/Graphics/SVG/1.1/DTD/svg11.dtd">
<svg xmlns:xlink="http://www.w3.org/1999/xlink" width="232.950728pt" height="266.112pt" viewBox="0 0 232.950728 266.112" xmlns="http://www.w3.org/2000/svg" version="1.1">
 <metadata>
  <rdf:RDF xmlns:dc="http://purl.org/dc/elements/1.1/" xmlns:cc="http://creativecommons.org/ns#" xmlns:rdf="http://www.w3.org/1999/02/22-rdf-syntax-ns#">
   <cc:Work>
    <dc:type rdf:resource="http://purl.org/dc/dcmitype/StillImage"/>
    <dc:date>2024-02-02T21:58:04.604960</dc:date>
    <dc:format>image/svg+xml</dc:format>
    <dc:creator>
     <cc:Agent>
      <dc:title>Matplotlib v3.8.2, https://matplotlib.org/</dc:title>
     </cc:Agent>
    </dc:creator>
   </cc:Work>
  </rdf:RDF>
 </metadata>
 <defs>
  <style type="text/css">*{stroke-linejoin: round; stroke-linecap: butt}</style>
 </defs>
 <g id="figure_1">
  <g id="patch_1">
   <path d="M -0 266.112 
L 232.950728 266.112 
L 232.950728 0 
L -0 0 
L -0 266.112 
z
" style="fill: none"/>
  </g>
  <g id="axes_1">
   <g id="PatchCollection_1">
    <path d="M 28.484557 241.81293 
L 26.214324 243.936 
L 23.674362 235.976262 
L 22.855605 233.2301 
L 19.412561 226.807836 
L 19.415088 226.806212 
L 22.580977 224.745558 
L 24.561097 222.129069 
L 30.892876 216.408041 
L 33.747933 211.242848 
L 40.36752 206.253895 
L 43.165015 201.170043 
L 53.802404 190.107582 
L 58.810266 182.827507 
L 59.154552 182.016642 
L 63.427918 185.607019 
L 66.118119 188.973003 
L 65.811085 192.51116 
L 61.205579 196.798271 
L 61.176338 196.798271 
L 59.041722 198.261742 
L 43.046727 213.722887 
L 40.005631 219.568164 
L 39.961769 222.400412 
L 41.131422 228.125168 
L 40.722044 230.974633 
L 35.765642 236.363651 
L 28.484557 241.81293 
" clip-path="url(#p31ff96fd7a)" style="fill: none; stroke: #000000; stroke-width: 2"/>
    <path d="M 168.228762 26.622371 
L 170.801997 27.534888 
L 179.705975 27.100151 
L 183.916724 27.595149 
L 188.127472 30.199267 
L 189.384848 34.116205 
L 189.326365 39.27279 
L 190.10126 43.473814 
L 193.771044 44.562808 
L 197.148415 44.670417 
L 211.900654 48.484051 
L 212.324653 49.762436 
L 212.558584 51.27756 
L 211.681345 51.27756 
L 211.681345 50.132608 
L 210.628658 50.132608 
L 210.628658 51.27756 
L 211.388932 52.900291 
L 211.271966 57.897616 
L 212.558584 60.372604 
L 211.929896 62.313856 
L 211.886034 65.49045 
L 212.412377 68.662739 
L 213.538168 70.608295 
L 212.836376 71.008598 
L 212.295412 71.456248 
L 211.915275 72.067463 
L 211.681345 72.992893 
L 213.538168 72.992893 
L 211.081898 83.521278 
L 211.681345 85.496965 
L 211.681345 86.736611 
L 210.526313 87.330609 
L 209.883004 88.079561 
L 209.883004 88.98347 
L 210.628658 90.050944 
L 208.260112 94.114229 
L 208.172388 96.042568 
L 209.663694 98.108645 
L 207.280528 100.06281 
L 206.505633 102.938101 
L 206.768805 110.62563 
L 208.303974 114.533959 
L 208.611007 116.307343 
L 208.698731 118.580028 
L 208.932662 119.966021 
L 209.766039 121.808273 
L 209.663694 123.134006 
L 209.020386 123.900177 
L 208.040802 124.184262 
L 207.163563 124.674956 
L 206.768805 126.026515 
L 210.219279 139.361322 
L 208.698731 141.436008 
L 208.698731 142.675654 
L 211.681345 151.663091 
L 207.178183 156.707763 
L 200.467303 172.358298 
L 198.215723 184.44485 
L 197.440828 197.271747 
L 197.353104 197.211486 
L 187.732714 198.0207 
L 179.559769 202.729634 
L 164.134979 215.685661 
L 155.87431 218.810603 
L 138.227181 218.655647 
L 129.761823 219.826424 
L 126.165142 221.083288 
L 122.276049 221.703111 
L 118.533161 221.109114 
L 115.404341 218.715907 
L 113.752208 213.120281 
L 115.81372 207.550481 
L 122.188325 196.798271 
L 122.992461 191.374818 
L 123.050943 186.717535 
L 123.679631 182.2066 
L 126.223625 177.230797 
L 128.811481 174.148898 
L 140.186349 165.514417 
L 145.113509 160.452528 
L 147.642882 158.395059 
L 150.333083 157.034892 
L 159.061613 155.140987 
L 159.865749 155.907157 
L 160.596781 156.268721 
L 161.24009 156.062113 
L 161.766434 155.115161 
L 161.971123 151.533961 
L 161.722572 148.761974 
L 160.611402 146.695896 
L 158.213615 145.206599 
L 148.373915 142.882262 
L 140.990485 139.326887 
L 138.987456 138.99115 
L 137.934768 139.662625 
L 135.434637 142.365742 
L 134.031054 143.243825 
L 133.022229 143.450433 
L 130.81451 143.424607 
L 126.150522 142.598176 
L 124.820042 139.808972 
L 125.931212 136.821768 
L 129.761823 135.461601 
L 133.636296 133.283611 
L 131.954921 127.705202 
L 129.162376 121.197059 
L 129.878788 114.430656 
L 129.659479 113.810833 
L 129.527893 113.621442 
L 129.527893 113.50953 
L 129.776444 109.816416 
L 129.70334 106.708692 
L 127.919621 91.006504 
L 127.21783 88.191474 
L 124.922387 83.043498 
L 125.200179 81.442288 
L 127.086244 78.993126 
L 132.583609 73.922628 
L 133.621676 71.860855 
L 134.118778 69.743126 
L 133.870227 67.98696 
L 132.890643 66.738705 
L 131.121544 66.183446 
L 131.560163 64.001152 
L 132.057266 58.758481 
L 132.642092 56.645056 
L 133.183056 56.257667 
L 135.06912 55.56467 
L 135.595464 55.168672 
L 136.61891 51.742427 
L 138.87049 40.254176 
L 141.648414 35.420416 
L 145.376681 32.73882 
L 149.616671 30.724395 
L 154.002867 27.961017 
L 157.555685 23.833166 
L 159.529474 22.330956 
L 162.058847 22.176 
L 164.193462 23.299429 
L 168.228762 26.622371 
L 168.228762 26.622371 
" clip-path="url(#p31ff96fd7a)" style="fill: none; stroke: #000000; stroke-width: 2"/>
   </g>
  </g>
 </g>
 <defs>
  <clipPath id="p31ff96fd7a">
   <rect x="0" y="-0" width="232.950728" height="266.112"/>
  </clipPath>
 </defs>
</svg>
