<?xml version="1.0" encoding="utf-8" standalone="no"?>
<!DOCTYPE svg PUBLIC "-//W3C//DTD SVG 1.1//EN"
  "http://www.w3.org/Graphics/SVG/1.1/DTD/svg11.dtd">
<svg xmlns:xlink="http://www.w3.org/1999/xlink" width="252.129924pt" height="266.112pt" viewBox="0 0 252.129924 266.112" xmlns="http://www.w3.org/2000/svg" version="1.1">
 <metadata>
  <rdf:RDF xmlns:dc="http://purl.org/dc/elements/1.1/" xmlns:cc="http://creativecommons.org/ns#" xmlns:rdf="http://www.w3.org/1999/02/22-rdf-syntax-ns#">
   <cc:Work>
    <dc:type rdf:resource="http://purl.org/dc/dcmitype/StillImage"/>
    <dc:date>2024-02-02T21:58:04.641970</dc:date>
    <dc:format>image/svg+xml</dc:format>
    <dc:creator>
     <cc:Agent>
      <dc:title>Matplotlib v3.8.2, https://matplotlib.org/</dc:title>
     </cc:Agent>
    </dc:creator>
   </cc:Work>
  </rdf:RDF>
 </metadata>
 <defs>
  <style type="text/css">*{stroke-linejoin: round; stroke-linecap: butt}</style>
 </defs>
 <g id="figure_1">
  <g id="patch_1">
   <path d="M 0 266.112 
L 252.129924 266.112 
L 252.129924 0 
L 0 0 
L 0 266.112 
z
" style="fill: none"/>
  </g>
  <g id="axes_1">
   <g id="PatchCollection_1">
    <path d="M 130.646363 243.923169 
L 130.529428 243.936 
L 130.371479 243.851682 
L 130.283341 243.644553 
L 130.268506 243.309114 
L 130.360134 243.013085 
L 130.591386 242.922351 
L 130.802567 243.054327 
L 130.890704 243.134979 
L 130.957025 243.237627 
L 130.90903 243.29445 
L 130.768533 243.420011 
L 130.737991 243.468585 
L 130.744972 243.47775 
L 130.779878 243.69771 
L 130.81042 243.705958 
L 130.735373 243.837018 
L 130.646363 243.923169 
" clip-path="url(#pf7feb47136)" style="fill: none; stroke: #000000; stroke-width: 2"/>
    <path d="M 94.657497 201.484638 
L 94.33549 201.555208 
L 94.188885 201.546043 
L 94.064533 201.484638 
L 94.064533 201.407652 
L 94.261315 201.336165 
L 94.453297 201.291256 
L 94.883513 201.260095 
L 94.847298 201.336165 
L 94.797557 201.395737 
L 94.73429 201.443395 
L 94.657497 201.484638 
" clip-path="url(#pf7feb47136)" style="fill: none; stroke: #000000; stroke-width: 2"/>
    <path d="M 75.416923 196.124029 
L 74.939149 196.177186 
L 74.821778 196.114864 
L 74.757202 195.991137 
L 74.736258 195.812419 
L 74.79298 195.75193 
L 74.927368 195.716187 
L 75.219269 195.69694 
L 75.489353 195.781258 
L 75.549129 195.959059 
L 75.416923 196.124029 
" clip-path="url(#pf7feb47136)" style="fill: none; stroke: #000000; stroke-width: 2"/>
    <path d="M 231.037941 192.758641 
L 230.67361 193.229722 
L 230.558857 193.211392 
L 230.458939 193.174732 
L 230.300117 193.07575 
L 230.300117 192.991432 
L 230.529623 192.976768 
L 230.87781 192.686238 
L 231.119097 192.608335 
L 231.037941 192.758641 
" clip-path="url(#pf7feb47136)" style="fill: none; stroke: #000000; stroke-width: 2"/>
    <path d="M 54.984313 186.183671 
L 54.951588 186.198335 
L 54.90272 186.197418 
L 54.858651 185.908721 
L 54.744335 185.63652 
L 54.680631 185.384483 
L 54.789712 185.16269 
L 54.888321 185.171855 
L 54.997402 185.294666 
L 55.085976 185.444972 
L 55.121755 185.54762 
L 55.104738 185.829902 
L 55.048452 186.126848 
L 54.984313 186.183671 
" clip-path="url(#pf7feb47136)" style="fill: none; stroke: #000000; stroke-width: 2"/>
    <path d="M 217.900665 180.741494 
L 217.791584 180.792818 
L 218.03069 180.558194 
L 218.027199 180.589355 
L 218.007128 180.679172 
L 217.900665 180.741494 
" clip-path="url(#pf7feb47136)" style="fill: none; stroke: #000000; stroke-width: 2"/>
    <path d="M 189.228078 178.955235 
L 188.342341 178.955235 
L 188.560503 178.87275 
L 188.777792 178.894746 
L 188.999008 178.945154 
L 189.228078 178.955235 
" clip-path="url(#pf7feb47136)" style="fill: none; stroke: #000000; stroke-width: 2"/>
    <path d="M 170.419029 177.102989 
L 170.131055 177.269792 
L 169.833482 177.168977 
L 169.645863 176.901359 
L 169.686877 176.564087 
L 169.888023 176.430278 
L 170.091786 176.585166 
L 170.419029 177.102989 
" clip-path="url(#pf7feb47136)" style="fill: none; stroke: #000000; stroke-width: 2"/>
    <path d="M 225.474811 174.880476 
L 225.601782 175.089438 
L 224.86963 174.628439 
L 225.105681 174.655934 
L 225.307699 174.738419 
L 225.474811 174.880476 
" clip-path="url(#pf7feb47136)" style="fill: none; stroke: #000000; stroke-width: 2"/>
    <path d="M 215.711192 174.313163 
L 215.73999 174.417644 
L 215.641817 174.364487 
L 215.540153 174.355322 
L 215.441544 174.38465 
L 215.351661 174.451554 
L 215.442417 174.325994 
L 215.58684 174.280169 
L 215.711192 174.313163 
" clip-path="url(#pf7feb47136)" style="fill: none; stroke: #000000; stroke-width: 2"/>
    <path d="M 214.107266 173.08322 
L 213.960661 173.195033 
L 214.055779 173.072222 
L 214.040072 172.998902 
L 213.968515 172.958576 
L 213.893467 172.93658 
L 214.077596 172.874258 
L 214.147407 172.950327 
L 214.107266 173.08322 
" clip-path="url(#pf7feb47136)" style="fill: none; stroke: #000000; stroke-width: 2"/>
    <path d="M 212.944026 172.894421 
L 212.962352 172.989737 
L 212.848908 172.828433 
L 212.797421 172.779858 
L 212.879887 172.778942 
L 212.923083 172.819268 
L 212.944026 172.894421 
" clip-path="url(#pf7feb47136)" style="fill: none; stroke: #000000; stroke-width: 2"/>
    <path d="M 211.847108 172.746864 
L 211.824419 172.747781 
L 211.775114 172.703789 
L 211.79824 172.700123 
L 211.839254 172.712954 
L 211.862816 172.714787 
L 211.847108 172.746864 
" clip-path="url(#pf7feb47136)" style="fill: none; stroke: #000000; stroke-width: 2"/>
    <path d="M 211.864125 172.515906 
L 211.931755 172.591976 
L 211.966224 172.724868 
L 211.943099 172.71662 
L 211.9335 172.69829 
L 211.926519 172.678127 
L 211.909939 172.657964 
L 211.858452 172.617638 
L 211.825292 172.571813 
L 211.787768 172.559898 
L 211.718829 172.617638 
L 211.785586 172.515906 
L 211.864125 172.515906 
" clip-path="url(#pf7feb47136)" style="fill: none; stroke: #000000; stroke-width: 2"/>
    <path d="M 186.065603 166.939921 
L 186.029824 166.946336 
L 186.158976 166.88768 
L 186.163776 166.88768 
L 186.098327 166.926173 
L 186.065603 166.939921 
" clip-path="url(#pf7feb47136)" style="fill: none; stroke: #000000; stroke-width: 2"/>
    <path d="M 192.519706 166.669553 
L 192.76492 167.054483 
L 192.839095 167.540228 
L 192.602607 167.756522 
L 192.76841 167.576888 
L 192.791099 167.444912 
L 192.540213 166.774951 
L 192.497889 166.718128 
L 192.439422 166.694299 
L 192.243076 166.757537 
L 192.287581 166.719961 
L 192.394044 166.675969 
L 192.452512 166.664971 
L 192.519706 166.669553 
" clip-path="url(#pf7feb47136)" style="fill: none; stroke: #000000; stroke-width: 2"/>
    <path d="M 172.610684 154.071344 
L 172.469751 154.095173 
L 172.636863 153.951283 
L 172.74638 153.830305 
L 172.712347 153.701078 
L 172.453171 153.536108 
L 172.523855 153.490283 
L 172.654752 153.549856 
L 172.783468 153.662585 
L 172.849353 153.785396 
L 172.827537 153.923788 
L 172.738527 154.018187 
L 172.610684 154.071344 
" clip-path="url(#pf7feb47136)" style="fill: none; stroke: #000000; stroke-width: 2"/>
    <path d="M 185.514526 150.5584 
L 185.415044 150.663798 
L 185.446459 150.568482 
L 185.426825 150.517158 
L 185.416353 150.464917 
L 185.388428 150.418176 
L 185.311635 150.387015 
L 185.439042 150.390681 
L 185.514526 150.458502 
L 185.514526 150.5584 
" clip-path="url(#pf7feb47136)" style="fill: none; stroke: #000000; stroke-width: 2"/>
    <path d="M 189.848531 149.816035 
L 189.794863 149.888439 
L 189.695818 149.871942 
L 189.659166 149.854528 
L 189.629933 149.815119 
L 189.734214 149.794956 
L 189.817988 149.79129 
L 189.848531 149.816035 
" clip-path="url(#pf7feb47136)" style="fill: none; stroke: #000000; stroke-width: 2"/>
    <path d="M 163.625903 148.799637 
L 163.729311 148.96644 
L 163.698769 149.177235 
L 163.66299 149.0031 
L 163.56569 148.896786 
L 163.437411 148.864708 
L 163.314804 148.91145 
L 163.463154 148.755645 
L 163.625903 148.799637 
" clip-path="url(#pf7feb47136)" style="fill: none; stroke: #000000; stroke-width: 2"/>
    <path d="M 169.426828 147.962872 
L 169.706076 148.103097 
L 169.805558 148.335888 
L 169.537655 148.438536 
L 169.707385 148.226824 
L 169.58565 148.108596 
L 169.343491 148.075602 
L 169.151944 148.125093 
L 169.426828 147.962872 
" clip-path="url(#pf7feb47136)" style="fill: none; stroke: #000000; stroke-width: 2"/>
    <path d="M 189.831514 144.074163 
L 189.832823 144.129153 
L 189.441004 143.915608 
L 189.514743 143.920191 
L 189.5911 143.932105 
L 189.742941 143.975181 
L 189.811007 144.039336 
L 189.831514 144.074163 
" clip-path="url(#pf7feb47136)" style="fill: none; stroke: #000000; stroke-width: 2"/>
    <path d="M 214.865596 140.585964 
L 215.215092 140.710608 
L 215.540153 140.923236 
L 215.68414 141.10012 
L 216.241326 141.299001 
L 216.516646 141.502464 
L 216.416728 141.746253 
L 216.4224 141.727006 
L 216.431127 141.674766 
L 216.4272 141.599613 
L 216.395348 141.509796 
L 216.330336 141.424561 
L 216.232163 141.355824 
L 216.09952 141.297168 
L 215.775332 141.198186 
L 215.678032 141.154194 
L 215.613019 141.10287 
L 215.556733 141.034132 
L 215.466851 140.950731 
L 214.971187 140.671198 
L 214.838544 140.635455 
L 214.793603 140.698693 
L 214.796221 140.786677 
L 214.806256 140.830669 
L 214.768733 140.783928 
L 214.745171 140.738103 
L 214.713756 140.698693 
L 214.65267 140.671198 
L 214.865596 140.585964 
" clip-path="url(#pf7feb47136)" style="fill: none; stroke: #000000; stroke-width: 2"/>
    <path d="M 169.61532 139.895839 
L 169.686877 140.05531 
L 169.655898 140.016817 
L 169.590014 139.887591 
L 169.438173 139.753782 
L 168.827756 139.455919 
L 168.634464 139.301947 
L 168.535855 139.180969 
L 168.508803 139.132395 
L 168.783687 139.34044 
L 169.524565 139.755615 
L 169.61532 139.895839 
" clip-path="url(#pf7feb47136)" style="fill: none; stroke: #000000; stroke-width: 2"/>
    <path d="M 209.246181 139.139727 
L 209.367916 139.433007 
L 208.336446 138.356119 
L 208.607403 138.483513 
L 208.951663 138.785041 
L 209.246181 139.139727 
" clip-path="url(#pf7feb47136)" style="fill: none; stroke: #000000; stroke-width: 2"/>
    <path d="M 167.992632 137.501025 
L 168.069861 137.811718 
L 167.794977 137.413041 
L 167.289714 137.035443 
L 167.047991 136.57536 
L 166.916657 136.434219 
L 166.451972 136.035541 
L 166.550145 136.107028 
L 166.971634 136.311408 
L 167.257426 136.8109 
L 167.484751 137.052856 
L 167.763562 137.266401 
L 167.992632 137.501025 
" clip-path="url(#pf7feb47136)" style="fill: none; stroke: #000000; stroke-width: 2"/>
    <path d="M 143.948132 133.560075 
L 144.080775 133.846023 
L 144.076411 133.868019 
L 144.027543 133.822194 
L 143.969948 133.725961 
L 143.942024 133.604067 
L 143.890537 133.692967 
L 143.839488 133.75254 
L 143.788438 133.763538 
L 143.735206 133.704882 
L 143.855632 133.527997 
L 143.948132 133.560075 
" clip-path="url(#pf7feb47136)" style="fill: none; stroke: #000000; stroke-width: 2"/>
    <path d="M 168.356962 133.811196 
L 168.183742 133.814862 
L 168.015757 133.781868 
L 167.916712 133.721379 
L 167.898822 133.593985 
L 167.945945 133.442763 
L 168.069861 133.18431 
L 168.288896 132.953352 
L 168.501822 132.560174 
L 168.894513 132.311802 
L 169.686877 131.954367 
L 169.899804 131.800395 
L 170.193886 131.835222 
L 170.245372 132.054266 
L 170.152871 132.298971 
L 169.940382 132.473106 
L 169.613575 132.883698 
L 169.094786 133.18431 
L 168.763616 133.461093 
L 168.472152 133.764454 
L 168.356962 133.811196 
" clip-path="url(#pf7feb47136)" style="fill: none; stroke: #000000; stroke-width: 2"/>
    <path d="M 62.794946 131.596932 
L 62.745205 131.730741 
L 62.634815 131.62626 
L 62.764404 131.476871 
L 62.794946 131.596932 
" clip-path="url(#pf7feb47136)" style="fill: none; stroke: #000000; stroke-width: 2"/>
    <path d="M 149.460648 130.843569 
L 149.253831 131.092857 
L 149.3856 130.871064 
L 148.588437 130.093872 
L 148.878592 130.255176 
L 149.252085 130.533792 
L 149.460648 130.843569 
" clip-path="url(#pf7feb47136)" style="fill: none; stroke: #000000; stroke-width: 2"/>
    <path d="M 77.125131 132.114755 
L 77.561019 132.235733 
L 78.417086 132.330132 
L 78.661864 132.619746 
L 78.785344 133.127487 
L 78.706805 133.626063 
L 78.343784 133.882683 
L 78.171 133.855188 
L 77.587198 133.687468 
L 77.425322 133.610482 
L 77.074518 133.145817 
L 76.799634 132.645408 
L 76.701461 132.258645 
L 76.653029 132.183492 
L 76.550493 132.179826 
L 76.496825 132.263228 
L 76.457556 132.364959 
L 76.397343 132.41445 
L 76.181799 132.444695 
L 75.554802 132.645408 
L 75.322677 132.660072 
L 75.152947 132.631661 
L 74.816542 132.498768 
L 74.206561 132.401619 
L 74.08439 132.330132 
L 73.896335 131.661087 
L 73.824341 131.562105 
L 73.723114 131.485119 
L 73.618396 131.295404 
L 73.535931 131.065362 
L 73.498407 130.861899 
L 73.599198 130.32758 
L 73.904188 130.016886 
L 74.335713 129.839085 
L 74.816542 129.708942 
L 75.291262 129.659451 
L 75.778636 129.743769 
L 76.227613 129.928902 
L 76.587144 130.17819 
L 76.694916 130.297335 
L 76.786108 130.447641 
L 76.849375 130.625442 
L 76.872936 130.827989 
L 76.84283 131.570354 
L 76.872936 131.800395 
L 77.125131 132.114755 
" clip-path="url(#pf7feb47136)" style="fill: none; stroke: #000000; stroke-width: 2"/>
    <path d="M 71.959929 129.491732 
L 71.754857 129.989391 
L 71.565056 130.286337 
L 71.347331 130.487051 
L 71.142258 130.478802 
L 70.892245 130.349576 
L 70.582891 130.124117 
L 70.331569 129.86658 
L 70.257393 129.640205 
L 70.36822 129.51831 
L 70.567183 129.428493 
L 70.757421 129.413829 
L 70.842504 129.51831 
L 70.885264 129.633789 
L 70.973401 129.635622 
L 71.05543 129.587964 
L 71.075501 129.556803 
L 71.160148 129.53664 
L 71.230832 129.491732 
L 71.314606 129.477984 
L 71.435032 129.556803 
L 71.466447 129.419328 
L 71.558075 129.349674 
L 71.689408 129.327678 
L 71.841249 129.325845 
L 71.954693 129.376253 
L 71.959929 129.491732 
" clip-path="url(#pf7feb47136)" style="fill: none; stroke: #000000; stroke-width: 2"/>
    <path d="M 140.197492 129.074724 
L 140.288248 129.241527 
L 140.027762 129.038064 
L 139.629835 128.940915 
L 139.826617 128.929917 
L 140.029944 128.973909 
L 140.197492 129.074724 
" clip-path="url(#pf7feb47136)" style="fill: none; stroke: #000000; stroke-width: 2"/>
    <path d="M 118.927576 129.083889 
L 119.196788 129.556803 
L 118.610805 128.793359 
L 118.779226 128.903339 
L 118.927576 129.083889 
" clip-path="url(#pf7feb47136)" style="fill: none; stroke: #000000; stroke-width: 2"/>
    <path d="M 161.501005 128.414844 
L 161.504932 128.479916 
L 161.484861 128.440506 
L 161.484861 128.405679 
L 161.466536 128.240709 
L 161.424212 128.150892 
L 161.302478 128.062908 
L 161.156746 128.023499 
L 161.002287 128.020749 
L 161.228303 127.97859 
L 161.395415 128.056493 
L 161.49097 128.232461 
L 161.493151 128.270037 
L 161.501005 128.414844 
" clip-path="url(#pf7feb47136)" style="fill: none; stroke: #000000; stroke-width: 2"/>
    <path d="M 193.537213 128.167389 
L 193.601789 128.221463 
L 193.390608 128.213214 
L 193.368356 128.149059 
L 193.365738 128.115149 
L 193.395844 128.040912 
L 193.545939 127.842032 
L 193.768901 127.754048 
L 193.46042 128.034497 
L 193.418533 128.114232 
L 193.429005 128.136228 
L 193.47351 128.144477 
L 193.537213 128.167389 
" clip-path="url(#pf7feb47136)" style="fill: none; stroke: #000000; stroke-width: 2"/>
    <path d="M 116.919177 127.753131 
L 117.073636 128.409345 
L 116.98768 128.266371 
L 116.935321 128.123397 
L 116.913505 127.958427 
L 116.919177 127.753131 
" clip-path="url(#pf7feb47136)" style="fill: none; stroke: #000000; stroke-width: 2"/>
    <path d="M 144.058086 124.196195 
L 143.998746 124.208109 
L 143.938533 124.200777 
L 143.876575 124.178781 
L 143.813308 124.146704 
L 143.716881 124.072467 
L 143.674993 124.031225 
L 143.63747 123.984483 
L 143.753532 123.977151 
L 143.866976 124.020227 
L 143.970385 124.097213 
L 144.058086 124.196195 
" clip-path="url(#pf7feb47136)" style="fill: none; stroke: #000000; stroke-width: 2"/>
    <path d="M 74.247139 123.953322 
L 74.091371 124.099962 
L 74.090062 124.057803 
L 74.099225 124.022976 
L 74.126277 123.949656 
L 74.208742 123.911163 
L 74.249757 123.899249 
L 74.291208 123.894666 
L 74.247139 123.953322 
" clip-path="url(#pf7feb47136)" style="fill: none; stroke: #000000; stroke-width: 2"/>
    <path d="M 27.625061 122.200058 
L 27.580992 122.200974 
L 27.485001 122.058 
L 27.377665 121.702398 
L 27.297818 121.548426 
L 27.380283 121.556675 
L 27.436569 121.611665 
L 27.46842 121.700565 
L 27.47671 121.815128 
L 27.535178 121.920525 
L 27.5967 122.078163 
L 27.625061 122.200058 
" clip-path="url(#pf7feb47136)" style="fill: none; stroke: #000000; stroke-width: 2"/>
    <path d="M 59.157314 121.847205 
L 59.111064 121.947104 
L 59.015509 121.922358 
L 58.993693 121.995678 
L 58.95006 122.045169 
L 58.884612 122.072664 
L 58.796038 122.07633 
L 58.601874 121.91411 
L 58.535116 121.83804 
L 58.510246 121.729893 
L 58.566968 121.58417 
L 58.692629 121.537428 
L 58.819163 121.52918 
L 58.875885 121.496186 
L 58.912536 121.401786 
L 58.998929 121.413701 
L 59.095356 121.496186 
L 59.162114 121.614414 
L 59.169968 121.707897 
L 59.157314 121.847205 
" clip-path="url(#pf7feb47136)" style="fill: none; stroke: #000000; stroke-width: 2"/>
    <path d="M 55.034054 122.591403 
L 54.639617 122.804031 
L 54.499557 122.844357 
L 54.388731 122.765538 
L 54.333754 122.765538 
L 54.310192 122.881017 
L 54.282704 122.942423 
L 54.214201 122.981832 
L 54.1217 123.001995 
L 54.0244 122.998329 
L 53.813656 122.851689 
L 53.704138 122.477757 
L 53.633018 121.443945 
L 53.670978 121.282641 
L 53.804493 121.146999 
L 53.955461 121.126836 
L 54.150061 121.172661 
L 54.318919 121.255146 
L 54.39004 121.339464 
L 54.511774 121.614414 
L 55.158406 122.502503 
L 55.034054 122.591403 
" clip-path="url(#pf7feb47136)" style="fill: none; stroke: #000000; stroke-width: 2"/>
    <path d="M 133.141263 120.910542 
L 133.32321 121.062681 
L 133.420074 121.276226 
L 133.454107 121.386206 
L 133.326264 121.264311 
L 133.188386 121.059015 
L 133.022582 120.962783 
L 132.812711 121.163496 
L 132.805293 121.114005 
L 132.814892 121.073679 
L 132.854161 120.985695 
L 133.141263 120.910542 
" clip-path="url(#pf7feb47136)" style="fill: none; stroke: #000000; stroke-width: 2"/>
    <path d="M 58.571768 121.421949 
L 58.429526 121.460442 
L 58.367568 121.320218 
L 58.358841 121.187325 
L 58.385894 121.055349 
L 58.485375 120.778566 
L 58.561296 120.652089 
L 58.627181 120.631926 
L 58.656414 120.807894 
L 58.857123 121.172661 
L 58.83618 121.231317 
L 58.762877 121.265228 
L 58.679103 121.34313 
L 58.571768 121.421949 
" clip-path="url(#pf7feb47136)" style="fill: none; stroke: #000000; stroke-width: 2"/>
    <path d="M 132.10543 120.214002 
L 132.18135 120.347811 
L 132.092776 120.308402 
L 132.006384 120.258911 
L 131.847999 120.135183 
L 131.875487 120.065529 
L 131.982386 120.104939 
L 132.10543 120.214002 
" clip-path="url(#pf7feb47136)" style="fill: none; stroke: #000000; stroke-width: 2"/>
    <path d="M 139.998529 119.82449 
L 140.216254 119.992209 
L 140.581457 120.377139 
L 139.854542 119.867565 
L 139.295174 119.895977 
L 138.817836 119.84007 
L 139.739352 119.755752 
L 139.998529 119.82449 
" clip-path="url(#pf7feb47136)" style="fill: none; stroke: #000000; stroke-width: 2"/>
    <path d="M 138.186912 119.928054 
L 138.598365 119.994042 
L 138.07085 119.950967 
L 137.644998 119.615528 
L 137.200384 119.370822 
L 137.578676 119.460639 
L 138.186912 119.928054 
" clip-path="url(#pf7feb47136)" style="fill: none; stroke: #000000; stroke-width: 2"/>
    <path d="M 53.828054 119.483552 
L 53.804493 119.524794 
L 54.010001 119.516546 
L 54.117337 119.530293 
L 54.163587 119.563287 
L 54.17755 119.615528 
L 54.233836 119.695263 
L 54.243435 119.755752 
L 54.207656 119.813492 
L 54.132172 119.862983 
L 54.0244 119.917056 
L 54.007384 120.278157 
L 53.970732 120.424797 
L 53.870378 120.377139 
L 53.785295 120.322149 
L 53.204984 120.06003 
L 53.143462 120.001374 
L 53.138226 119.939969 
L 53.189276 119.533043 
L 53.321919 119.398317 
L 53.547934 119.367156 
L 53.870378 119.370822 
L 53.828054 119.483552 
" clip-path="url(#pf7feb47136)" style="fill: none; stroke: #000000; stroke-width: 2"/>
    <path d="M 50.913411 118.512978 
L 50.928682 118.756767 
L 50.760261 118.754934 
L 50.607984 118.597296 
L 50.525955 118.384668 
L 50.569588 118.217865 
L 50.748044 118.152794 
L 50.857125 118.28202 
L 50.913411 118.512978 
" clip-path="url(#pf7feb47136)" style="fill: none; stroke: #000000; stroke-width: 2"/>
    <path d="M 135.897957 118.64862 
L 135.955552 118.910739 
L 135.914537 118.888743 
L 135.621764 118.384668 
L 135.288849 118.1198 
L 134.922337 117.984158 
L 134.705047 117.904422 
L 134.746934 117.900756 
L 134.961169 117.961245 
L 135.313283 118.010736 
L 135.479959 118.095054 
L 135.793239 118.44699 
L 135.897957 118.64862 
" clip-path="url(#pf7feb47136)" style="fill: none; stroke: #000000; stroke-width: 2"/>
    <path d="M 45.591132 117.831102 
L 45.46678 117.91542 
L 45.388242 117.869595 
L 45.411367 117.80544 
L 45.591132 117.831102 
" clip-path="url(#pf7feb47136)" style="fill: none; stroke: #000000; stroke-width: 2"/>
    <path d="M 131.304775 118.029066 
L 131.249799 118.217865 
L 131.226237 117.987824 
L 131.202676 117.910838 
L 130.877614 117.519492 
L 131.043417 117.625806 
L 131.210529 117.814605 
L 131.304775 118.029066 
" clip-path="url(#pf7feb47136)" style="fill: none; stroke: #000000; stroke-width: 2"/>
    <path d="M 129.41942 116.464601 
L 129.413311 116.511342 
L 129.579551 116.450853 
L 129.751899 116.487513 
L 129.900249 116.575497 
L 129.998858 116.667147 
L 129.644999 116.54067 
L 129.431637 116.580996 
L 129.340009 116.436189 
L 129.406767 116.443521 
L 129.41942 116.464601 
" clip-path="url(#pf7feb47136)" style="fill: none; stroke: #000000; stroke-width: 2"/>
    <path d="M 109.02826 114.38323 
L 108.920052 114.666428 
L 108.617243 114.621519 
L 108.352831 114.491376 
L 108.242004 114.297079 
L 108.400826 114.051457 
L 108.700145 113.96164 
L 108.932269 114.110113 
L 109.02826 114.38323 
" clip-path="url(#pf7feb47136)" style="fill: none; stroke: #000000; stroke-width: 2"/>
    <path d="M 117.979881 116.608491 
L 118.105106 116.750549 
L 117.890871 116.624072 
L 117.597661 115.980689 
L 117.345466 115.672745 
L 117.091962 115.114596 
L 116.945793 114.540867 
L 116.772573 114.289747 
L 116.694034 113.737097 
L 116.72545 113.929562 
L 116.804424 114.188015 
L 116.913941 114.414391 
L 117.033931 114.512456 
L 117.088035 114.644432 
L 117.183153 115.227326 
L 117.249475 115.359302 
L 117.280453 115.457367 
L 117.732049 115.974273 
L 117.979881 116.608491 
" clip-path="url(#pf7feb47136)" style="fill: none; stroke: #000000; stroke-width: 2"/>
    <path d="M 116.694034 113.429153 
L 115.675654 113.514388 
L 116.225422 113.312758 
L 116.507724 113.2651 
L 116.694034 113.429153 
" clip-path="url(#pf7feb47136)" style="fill: none; stroke: #000000; stroke-width: 2"/>
    <path d="M 150.2853 113.04514 
L 149.766511 114.051457 
L 149.847667 113.781089 
L 149.979873 113.497891 
L 150.135205 113.242187 
L 150.2853 113.04514 
" clip-path="url(#pf7feb47136)" style="fill: none; stroke: #000000; stroke-width: 2"/>
    <path d="M 175.546707 112.307357 
L 175.743925 112.389842 
L 175.710329 112.576808 
L 175.635717 112.401757 
L 175.35647 112.388926 
L 175.044935 112.576808 
L 175.265714 112.356848 
L 175.546707 112.307357 
" clip-path="url(#pf7feb47136)" style="fill: none; stroke: #000000; stroke-width: 2"/>
    <path d="M 120.918086 111.68872 
L 121.479634 112.27528 
L 120.747047 111.576907 
L 120.918086 111.68872 
" clip-path="url(#pf7feb47136)" style="fill: none; stroke: #000000; stroke-width: 2"/>
    <path d="M 113.641076 111.463261 
L 113.637585 111.573241 
L 113.084327 111.027007 
L 113.472655 111.296458 
L 113.641076 111.463261 
" clip-path="url(#pf7feb47136)" style="fill: none; stroke: #000000; stroke-width: 2"/>
    <path d="M 167.671934 110.805214 
L 167.459008 111.012343 
L 167.35909 111.001345 
L 167.29495 110.951854 
L 167.288405 110.883116 
L 167.359526 110.803381 
L 167.654917 110.755723 
L 167.752217 110.755723 
L 167.671934 110.805214 
" clip-path="url(#pf7feb47136)" style="fill: none; stroke: #000000; stroke-width: 2"/>
    <path d="M 88.547654 111.30104 
L 88.417629 111.34045 
L 88.193795 111.180062 
L 88.111766 110.924359 
L 88.152344 110.693401 
L 88.297204 110.608166 
L 88.344763 110.669572 
L 88.467807 110.93719 
L 88.5446 111.027007 
L 88.6419 111.122323 
L 88.632737 111.221305 
L 88.547654 111.30104 
" clip-path="url(#pf7feb47136)" style="fill: none; stroke: #000000; stroke-width: 2"/>
    <path d="M 107.388555 110.812546 
L 107.385937 110.884033 
L 107.293 110.674154 
L 107.233224 110.575172 
L 107.159485 110.487188 
L 107.204426 110.513767 
L 107.335323 110.619164 
L 107.378083 110.748391 
L 107.388555 110.812546 
" clip-path="url(#pf7feb47136)" style="fill: none; stroke: #000000; stroke-width: 2"/>
    <path d="M 21.201064 110.844623 
L 21.134307 110.893198 
L 21.098528 110.887699 
L 21.158741 110.799715 
L 21.186229 110.676904 
L 21.170522 110.58617 
L 21.112054 110.522932 
L 21.010827 110.493604 
L 21.141724 110.46061 
L 21.202373 110.53118 
L 21.222008 110.653075 
L 21.232043 110.775886 
L 21.201064 110.844623 
" clip-path="url(#pf7feb47136)" style="fill: none; stroke: #000000; stroke-width: 2"/>
    <path d="M 122.647237 111.435766 
L 122.657709 111.730879 
L 122.456564 111.241468 
L 121.884107 110.333216 
L 121.552937 110.108674 
L 121.843965 110.165497 
L 122.016313 110.363461 
L 122.284652 110.877617 
L 122.558227 111.215806 
L 122.647237 111.435766 
" clip-path="url(#pf7feb47136)" style="fill: none; stroke: #000000; stroke-width: 2"/>
    <path d="M 127.346882 109.98403 
L 127.229947 110.077513 
L 127.116503 110.07568 
L 127.041455 110.009692 
L 127.011348 109.907044 
L 127.031856 109.794314 
L 127.214239 109.775068 
L 127.330738 109.860302 
L 127.346882 109.98403 
" clip-path="url(#pf7feb47136)" style="fill: none; stroke: #000000; stroke-width: 2"/>
    <path d="M 118.636984 107.073226 
L 118.581571 107.16121 
L 118.372572 106.99624 
L 117.658746 106.869763 
L 117.38299 106.662634 
L 118.113396 106.918337 
L 118.38828 106.972411 
L 118.516123 106.973327 
L 118.607751 107.010904 
L 118.636984 107.073226 
" clip-path="url(#pf7feb47136)" style="fill: none; stroke: #000000; stroke-width: 2"/>
    <path d="M 110.471619 105.619657 
L 110.376937 105.950513 
L 110.423624 105.736052 
L 110.45024 105.485848 
L 110.427114 105.385949 
L 110.370392 105.304381 
L 110.329378 105.272303 
L 110.22466 105.216397 
L 110.25913 105.209981 
L 110.355557 105.262222 
L 110.403117 105.284218 
L 110.444567 105.351122 
L 110.486454 105.471184 
L 110.471619 105.619657 
" clip-path="url(#pf7feb47136)" style="fill: none; stroke: #000000; stroke-width: 2"/>
    <path d="M 106.08831 104.464867 
L 106.143723 104.629837 
L 106.011517 104.459368 
L 105.896327 104.272402 
L 105.701291 104.190833 
L 105.864039 104.218328 
L 105.994064 104.318227 
L 106.08831 104.464867 
" clip-path="url(#pf7feb47136)" style="fill: none; stroke: #000000; stroke-width: 2"/>
    <path d="M 99.272931 104.221078 
L 99.284712 104.321893 
L 99.237589 104.263237 
L 99.190466 104.237575 
L 99.140289 104.218328 
L 99.082694 104.189917 
L 99.232789 104.188084 
L 99.272931 104.221078 
" clip-path="url(#pf7feb47136)" style="fill: none; stroke: #000000; stroke-width: 2"/>
    <path d="M 93.78834 104.146841 
L 93.926218 104.221078 
L 93.477677 104.00845 
L 93.530036 103.975456 
L 93.644353 104.04236 
L 93.78834 104.146841 
" clip-path="url(#pf7feb47136)" style="fill: none; stroke: #000000; stroke-width: 2"/>
    <path d="M 96.549397 102.59704 
L 96.908928 102.937978 
L 96.339962 102.472396 
L 96.137944 102.348668 
L 96.352615 102.448567 
L 96.549397 102.59704 
" clip-path="url(#pf7feb47136)" style="fill: none; stroke: #000000; stroke-width: 2"/>
    <path d="M 91.787359 102.318424 
L 91.8371 102.481561 
L 91.811793 102.437569 
L 91.786486 102.403658 
L 91.774269 102.369748 
L 91.787359 102.318424 
" clip-path="url(#pf7feb47136)" style="fill: none; stroke: #000000; stroke-width: 2"/>
    <path d="M 90.517656 101.119642 
L 90.616702 101.545814 
L 90.525074 101.398258 
L 90.396794 101.246119 
L 90.203067 101.064652 
L 89.920329 100.899682 
L 89.219156 100.693469 
L 89.669443 100.729213 
L 90.152453 100.859356 
L 90.517656 101.119642 
" clip-path="url(#pf7feb47136)" style="fill: none; stroke: #000000; stroke-width: 2"/>
    <path d="M 84.429629 100.19581 
L 84.373343 100.385525 
L 84.159545 100.127072 
L 83.701405 99.924526 
L 83.947491 99.956603 
L 84.238519 100.050086 
L 84.429629 100.19581 
" clip-path="url(#pf7feb47136)" style="fill: none; stroke: #000000; stroke-width: 2"/>
    <path d="M 120.597824 97.862401 
L 120.544592 98.117188 
L 120.77279 98.060365 
L 121.186425 97.765252 
L 121.073853 97.913725 
L 120.885798 98.062198 
L 120.673308 98.174927 
L 120.48438 98.218919 
L 120.446856 98.081444 
L 120.561173 97.778083 
L 120.814241 97.296004 
L 120.597824 97.862401 
" clip-path="url(#pf7feb47136)" style="fill: none; stroke: #000000; stroke-width: 2"/>
    <path d="M 110.019588 95.705877 
L 109.798808 95.912089 
L 109.918361 95.670133 
L 109.985555 95.442841 
L 109.646095 95.213716 
L 109.944977 95.255875 
L 110.068456 95.453839 
L 110.019588 95.705877 
" clip-path="url(#pf7feb47136)" style="fill: none; stroke: #000000; stroke-width: 2"/>
    <path d="M 113.157193 95.285203 
L 113.037204 95.30445 
L 112.916342 95.299867 
L 113.269764 95.237545 
L 113.38539 95.19447 
L 113.274564 95.24671 
L 113.157193 95.285203 
" clip-path="url(#pf7feb47136)" style="fill: none; stroke: #000000; stroke-width: 2"/>
    <path d="M 124.567498 94.947015 
L 124.557027 95.06341 
L 124.528229 95.122983 
L 124.319667 95.288869 
L 123.974098 95.486833 
L 123.86938 95.527159 
L 123.762917 95.600479 
L 123.428693 95.946916 
L 123.243692 96.066061 
L 123.762917 95.528992 
L 124.234147 95.259541 
L 124.477179 95.018502 
L 124.207531 95.131231 
L 123.749828 95.175223 
L 123.243692 95.298034 
L 123.436547 95.177973 
L 123.680888 95.109235 
L 124.158227 95.067076 
L 124.377261 94.952514 
L 124.509031 94.903939 
L 124.567498 94.947015 
" clip-path="url(#pf7feb47136)" style="fill: none; stroke: #000000; stroke-width: 2"/>
    <path d="M 114.318251 94.168906 
L 114.198698 94.443856 
L 114.241458 94.212898 
L 114.052966 94.185403 
L 113.472655 94.212898 
L 114.072164 94.108417 
L 114.318251 94.168906 
" clip-path="url(#pf7feb47136)" style="fill: none; stroke: #000000; stroke-width: 2"/>
    <path d="M 164.297405 92.44497 
L 164.244173 92.521956 
L 164.139456 92.451385 
L 163.887261 92.16727 
L 163.995033 92.225926 
L 164.297405 92.44497 
" clip-path="url(#pf7feb47136)" style="fill: none; stroke: #000000; stroke-width: 2"/>
    <path d="M 191.508307 51.367441 
L 191.137868 51.460924 
L 190.986464 51.366524 
L 190.902689 51.18689 
L 190.891781 50.981594 
L 191.05104 50.594831 
L 191.029223 50.422529 
L 190.845095 50.064178 
L 191.205498 50.074259 
L 191.363447 50.120084 
L 191.510925 50.223649 
L 191.685454 50.575585 
L 191.687636 51.014588 
L 191.508307 51.367441 
" clip-path="url(#pf7feb47136)" style="fill: none; stroke: #000000; stroke-width: 2"/>
    <path d="M 186.34485 45.263551 
L 186.21308 45.429437 
L 186.072584 45.236972 
L 186.085238 45.024344 
L 186.124943 44.804384 
L 186.066476 44.589923 
L 186.17992 44.454281 
L 186.321289 44.18483 
L 186.501927 44.003363 
L 186.73187 44.12984 
L 186.873675 44.179331 
L 187.018534 44.283812 
L 187.103181 44.38921 
L 187.064785 44.435951 
L 187.025515 44.455198 
L 186.997591 44.500106 
L 186.974902 44.553263 
L 186.951777 44.589923 
L 186.900727 44.622917 
L 186.793391 44.637581 
L 186.73187 44.666909 
L 186.587446 44.830046 
L 186.34485 45.263551 
" clip-path="url(#pf7feb47136)" style="fill: none; stroke: #000000; stroke-width: 2"/>
    <path d="M 188.934869 42.494804 
L 189.044822 42.507635 
L 189.165248 42.485639 
L 189.245095 42.434315 
L 189.305744 42.381158 
L 189.367702 42.346331 
L 189.609425 42.328001 
L 189.561866 42.431566 
L 189.017334 42.914561 
L 188.772556 43.017209 
L 188.509453 43.083197 
L 188.090582 43.12169 
L 187.514198 43.110692 
L 187.391155 43.080448 
L 187.333996 43.047454 
L 187.207899 43.036456 
L 187.082238 43.04837 
L 187.025079 43.080448 
L 187.025079 43.429634 
L 186.95134 43.6166 
L 186.850113 43.625765 
L 186.698273 43.558861 
L 186.261076 43.460795 
L 186.076947 43.334318 
L 185.932961 43.180346 
L 185.847005 43.046537 
L 185.788974 42.898064 
L 185.757558 42.71843 
L 185.798573 42.569957 
L 186.131052 42.456311 
L 187.064348 41.899079 
L 187.450495 41.82026 
L 187.781228 41.877083 
L 187.909944 42.115373 
L 188.030369 42.263846 
L 188.229333 42.360079 
L 188.460148 42.414152 
L 188.679183 42.430649 
L 188.934869 42.494804 
" clip-path="url(#pf7feb47136)" style="fill: none; stroke: #000000; stroke-width: 2"/>
    <path d="M 176.314637 37.899474 
L 176.448152 37.952631 
L 176.595193 37.872895 
L 176.456442 38.212917 
L 176.367432 38.596014 
L 176.217773 38.909457 
L 175.896639 39.0396 
L 175.697675 38.92962 
L 175.191539 38.187255 
L 175.396612 38.029617 
L 175.589903 37.831653 
L 175.802393 37.674015 
L 176.069423 37.641937 
L 176.314637 37.899474 
" clip-path="url(#pf7feb47136)" style="fill: none; stroke: #000000; stroke-width: 2"/>
    <path d="M 181.370758 32.523285 
L 181.455405 32.537949 
L 181.627317 32.475627 
L 181.749924 32.503122 
L 182.099419 32.692837 
L 182.219844 32.86239 
L 182.163559 33.00903 
L 182.002555 33.11626 
L 181.807082 33.168501 
L 181.335852 33.205161 
L 181.148233 33.289479 
L 181.001628 33.483777 
L 181.04526 33.315141 
L 180.988102 33.154753 
L 180.900401 32.995282 
L 180.855023 32.822064 
L 181.214554 32.400474 
L 181.294401 32.400474 
L 181.370758 32.523285 
" clip-path="url(#pf7feb47136)" style="fill: none; stroke: #000000; stroke-width: 2"/>
    <path d="M 174.568469 31.533465 
L 175.930236 31.769922 
L 176.25966 31.769922 
L 176.340817 31.752508 
L 176.490912 31.659942 
L 176.595193 31.623282 
L 176.594757 31.676439 
L 176.575559 31.7076 
L 176.546761 31.733262 
L 176.469532 31.826745 
L 176.362196 32.008212 
L 176.653224 32.273997 
L 176.720855 32.415138 
L 176.741798 32.66076 
L 176.686821 32.833062 
L 176.556361 32.811066 
L 176.296311 32.631432 
L 176.24308 32.873388 
L 176.070296 33.044773 
L 175.862606 33.087849 
L 175.710329 32.937543 
L 175.630481 32.937543 
L 175.498275 33.058521 
L 175.070241 33.205161 
L 174.977741 33.287646 
L 174.927563 33.478278 
L 174.808447 33.440701 
L 174.672314 33.316974 
L 174.450661 33.177666 
L 174.374741 33.018195 
L 174.263042 32.500372 
L 174.239044 32.280412 
L 174.215919 32.182347 
L 174.115565 32.090697 
L 174.092876 32.008212 
L 174.235118 31.599453 
L 174.568469 31.533465 
" clip-path="url(#pf7feb47136)" style="fill: none; stroke: #000000; stroke-width: 2"/>
    <path d="M 169.30204 23.185066 
L 169.195577 23.20248 
L 169.094786 23.054007 
L 169.088241 22.641582 
L 169.317747 22.321723 
L 169.673788 22.176 
L 170.046408 22.284147 
L 169.889332 22.408791 
L 169.833046 22.438119 
L 169.647172 22.475695 
L 169.558598 22.571928 
L 169.46697 22.907367 
L 169.398031 23.064088 
L 169.30204 23.185066 
" clip-path="url(#pf7feb47136)" style="fill: none; stroke: #000000; stroke-width: 2"/>
   </g>
  </g>
 </g>
 <defs>
  <clipPath id="pf7feb47136">
   <rect x="0" y="-0" width="252.129924" height="266.112"/>
  </clipPath>
 </defs>
</svg>
