<?xml version="1.0" encoding="utf-8" standalone="no"?>
<!DOCTYPE svg PUBLIC "-//W3C//DTD SVG 1.1//EN"
  "http://www.w3.org/Graphics/SVG/1.1/DTD/svg11.dtd">
<svg xmlns:xlink="http://www.w3.org/1999/xlink" width="130.068464pt" height="266.112pt" viewBox="0 0 130.068464 266.112" xmlns="http://www.w3.org/2000/svg" version="1.1">
 <metadata>
  <rdf:RDF xmlns:dc="http://purl.org/dc/elements/1.1/" xmlns:cc="http://creativecommons.org/ns#" xmlns:rdf="http://www.w3.org/1999/02/22-rdf-syntax-ns#">
   <cc:Work>
    <dc:type rdf:resource="http://purl.org/dc/dcmitype/StillImage"/>
    <dc:date>2024-02-02T21:58:04.674976</dc:date>
    <dc:format>image/svg+xml</dc:format>
    <dc:creator>
     <cc:Agent>
      <dc:title>Matplotlib v3.8.2, https://matplotlib.org/</dc:title>
     </cc:Agent>
    </dc:creator>
   </cc:Work>
  </rdf:RDF>
 </metadata>
 <defs>
  <style type="text/css">*{stroke-linejoin: round; stroke-linecap: butt}</style>
 </defs>
 <g id="figure_1">
  <g id="patch_1">
   <path d="M 0 266.112 
L 130.068464 266.112 
L 130.068464 0 
L 0 0 
L 0 266.112 
z
" style="fill: none"/>
  </g>
  <g id="axes_1">
   <g id="PatchCollection_1">
    <path d="M 68.977738 234.792648 
L 60.486545 241.66228 
L 53.976498 243.893032 
L 46.890512 243.936 
L 39.377425 242.847479 
L 33.080928 240.14766 
L 27.120935 233.33008 
L 17.962476 218.052297 
L 20.316573 217.770355 
L 23.587852 214.815605 
L 24.443887 211.268776 
L 23.373843 198.073896 
L 22.334371 194.572178 
L 16.973959 184.501214 
L 16.556132 182.443039 
L 17.901331 178.55788 
L 18.196867 175.845599 
L 18.054194 173.358871 
L 17.279686 172.276215 
L 13.937072 170.2124 
L 13.019891 165.50961 
L 12.836455 160.412101 
L 11.695074 157.135936 
L 12.591873 154.632292 
L 12.398246 151.722652 
L 11.847938 148.643847 
L 11.695074 145.615791 
L 12.693782 138.10486 
L 12.612255 135.206497 
L 10.839039 124.791564 
L 12.275955 118.820036 
L 12.4492 116.090838 
L 10.839039 114.387909 
L 14.222417 109.905033 
L 16.612649 109.509895 
L 18.039118 111.263883 
L 18.435359 113.807167 
L 19.544834 114.85956 
L 19.542065 117.556936 
L 22.88468 118.177208 
L 20.897455 112.572204 
L 20.469437 110.181336 
L 20.316573 107.677693 
L 20.561155 106.121373 
L 21.009554 104.486111 
L 21.091082 102.771904 
L 20.316573 101.057697 
L 19.297484 100.381037 
L 16.545941 99.850986 
L 15.098834 99.163048 
L 16.52556 97.403731 
L 18.176485 96.941346 
L 19.919128 96.72707 
L 21.600627 95.802301 
L 22.008263 95.012864 
L 22.803152 92.887022 
L 23.312697 92.452832 
L 24.13816 92.75169 
L 24.93305 94.054261 
L 25.860422 94.347481 
L 26.512639 95.390666 
L 26.278249 97.725144 
L 25.452786 101.48061 
L 25.452786 104.362056 
L 25.575077 105.399602 
L 26.583975 108.0273 
L 27.185238 108.782905 
L 28.082037 109.566703 
L 29.335518 109.188901 
L 29.59029 108.822377 
L 29.508763 108.145716 
L 30.018308 104.903385 
L 30.099835 101.587748 
L 30.650144 100.110373 
L 32.076869 98.638636 
L 32.943096 99.078465 
L 33.972376 100.02579 
L 35.704829 100.110373 
L 36.499719 99.146131 
L 38.252553 95.103085 
L 39.210498 93.400156 
L 35.745592 94.742199 
L 32.545651 95.317361 
L 29.896017 94.234704 
L 28.082037 90.558182 
L 27.939365 88.584589 
L 28.856546 82.043537 
L 29.162273 81.423265 
L 30.374989 80.402636 
L 30.650144 79.686503 
L 30.49728 79.111342 
L 29.855254 78.276794 
L 29.712581 77.695994 
L 29.712581 73.528893 
L 31.445034 73.957445 
L 32.036106 72.857871 
L 32.453932 71.363579 
L 33.615695 70.607975 
L 34.47173 71.081637 
L 35.205475 72.288349 
L 35.664065 73.878501 
L 35.704829 75.502486 
L 37.478045 74.312691 
L 38.639807 72.423681 
L 39.00668 70.168146 
L 38.354462 67.850584 
L 37.498427 68.797908 
L 35.684447 66.818676 
L 35.908647 63.863925 
L 39.179925 55.941359 
L 39.699661 53.251633 
L 40.046151 46.947413 
L 41.472877 48.12593 
L 41.839749 48.932284 
L 42.614257 48.932284 
L 45.447327 40.631915 
L 47.954288 37.011781 
L 51.531293 35.506212 
L 53.4268 35.083299 
L 58.695494 32.985651 
L 59.78592 32.196214 
L 60.458519 30.076011 
L 63.383307 27.098705 
L 64.076288 25.017974 
L 66.359049 25.858161 
L 68.927155 25.051807 
L 73.482486 22.176 
L 83.438993 27.572368 
L 85.456791 29.827903 
L 85.660609 32.495073 
L 85.395645 35.95168 
L 85.497554 38.95718 
L 86.81218 40.242835 
L 89.186659 41.19016 
L 89.920404 43.507722 
L 90.042695 46.360974 
L 90.664339 48.932284 
L 92.610801 50.725434 
L 95.158525 51.170902 
L 100.569892 50.731073 
L 103.627161 51.029931 
L 106.134122 51.830646 
L 108.325165 53.048635 
L 110.404108 54.604954 
L 112.075415 56.313522 
L 113.440996 58.445003 
L 114.337795 60.875342 
L 116.498265 75.976148 
L 116.467692 77.865159 
L 116.10082 79.472228 
L 115.091921 80.148888 
L 114.358176 79.692142 
L 113.655004 77.690355 
L 112.564578 77.222331 
L 111.576061 77.803132 
L 110.689453 79.16773 
L 110.220672 80.757883 
L 110.404108 82.043537 
L 111.525107 83.075445 
L 112.605342 82.940113 
L 113.440996 82.12812 
L 113.899586 81.096213 
L 115.917384 84.287795 
L 114.256267 87.507571 
L 111.749307 88.48309 
L 111.260143 84.885512 
L 109.558264 85.393007 
L 105.278087 87.716208 
L 107.102257 88.471812 
L 109.007955 89.64469 
L 110.53659 91.043122 
L 111.260143 92.452832 
L 110.832126 95.475248 
L 109.130246 96.693237 
L 106.990157 97.200733 
L 105.278087 98.131141 
L 104.422051 97.589812 
L 103.555825 97.268399 
L 103.84117 104.531221 
L 103.555825 106.820589 
L 102.862844 108.038578 
L 101.823372 109.346789 
L 101.1202 110.688832 
L 101.415736 111.974487 
L 106.011831 119.987275 
L 106.755767 121.943951 
L 106.990157 123.878073 
L 106.134122 137.18009 
L 106.286986 140.225062 
L 106.990157 141.775743 
L 108.549365 142.452403 
L 115.907193 143.619643 
L 117.048573 144.848909 
L 118.108427 147.589384 
L 118.984844 152.483895 
L 119.229425 163.930735 
L 117.874036 178.196994 
L 118.536444 179.843535 
L 117.446018 181.02769 
L 115.519939 189.395725 
L 113.909777 192.034701 
L 109.568455 196.957406 
L 108.243638 200.346348 
L 107.24493 200.876398 
L 106.103549 201.2542 
L 105.278087 201.778612 
L 104.666633 202.985323 
L 101.2323 216.281702 
L 100.569892 217.770355 
L 99.102403 218.881206 
L 98.419613 221.514544 
L 97.573768 227.322546 
L 95.922843 229.43711 
L 90.857966 232.487721 
L 89.798113 233.51399 
L 89.125514 236.728127 
L 87.545925 238.882163 
L 85.823663 240.618925 
L 84.672092 242.547407 
L 83.214793 240.483593 
L 83.683575 238.532555 
L 84.804573 236.339047 
L 85.456791 233.51399 
L 84.488656 231.974587 
L 82.236467 231.698284 
L 77.833999 232.138113 
L 77.640372 229.713413 
L 76.845482 229.645747 
L 75.57162 230.587433 
L 73.900313 231.196427 
L 71.699079 231.438897 
L 69.691472 232.245251 
L 68.64181 233.70571 
L 68.977738 234.792648 
L 68.977738 234.792648 
" clip-path="url(#p57386d9c32)" style="fill: none; stroke: #000000; stroke-width: 2"/>
   </g>
  </g>
 </g>
 <defs>
  <clipPath id="p57386d9c32">
   <rect x="0" y="-0" width="130.068464" height="266.112"/>
  </clipPath>
 </defs>
</svg>
