<?xml version="1.0" encoding="utf-8" standalone="no"?>
<!DOCTYPE svg PUBLIC "-//W3C//DTD SVG 1.1//EN"
  "http://www.w3.org/Graphics/SVG/1.1/DTD/svg11.dtd">
<svg xmlns:xlink="http://www.w3.org/1999/xlink" width="357.12pt" height="251.245702pt" viewBox="0 0 357.12 251.245702" xmlns="http://www.w3.org/2000/svg" version="1.1">
 <metadata>
  <rdf:RDF xmlns:dc="http://purl.org/dc/elements/1.1/" xmlns:cc="http://creativecommons.org/ns#" xmlns:rdf="http://www.w3.org/1999/02/22-rdf-syntax-ns#">
   <cc:Work>
    <dc:type rdf:resource="http://purl.org/dc/dcmitype/StillImage"/>
    <dc:date>2024-02-02T21:58:04.700982</dc:date>
    <dc:format>image/svg+xml</dc:format>
    <dc:creator>
     <cc:Agent>
      <dc:title>Matplotlib v3.8.2, https://matplotlib.org/</dc:title>
     </cc:Agent>
    </dc:creator>
   </cc:Work>
  </rdf:RDF>
 </metadata>
 <defs>
  <style type="text/css">*{stroke-linejoin: round; stroke-linecap: butt}</style>
 </defs>
 <g id="figure_1">
  <g id="patch_1">
   <path d="M 0 251.245702 
L 357.12 251.245702 
L 357.12 -0 
L 0 -0 
L 0 251.245702 
z
" style="fill: none"/>
  </g>
  <g id="axes_1">
   <g id="PatchCollection_1">
    <path d="M 233.669294 21.619099 
L 234.007552 21.121961 
L 234.350688 21.808597 
L 234.970286 21.937268 
L 236.266399 21.686944 
L 236.801431 21.946626 
L 237.520229 22.816911 
L 237.858487 22.612207 
L 239.3839 24.259198 
L 239.510746 25.025376 
L 239.81648 24.869801 
L 240.458844 24.107132 
L 240.850768 24.436998 
L 241.244318 25.439464 
L 242.330646 25.838344 
L 242.330646 26.229037 
L 241.972873 26.569431 
L 241.354902 26.606862 
L 241.354902 26.888769 
L 242.216809 27.384738 
L 242.805508 27.578915 
L 243.195805 27.265425 
L 243.751979 27.616346 
L 243.915058 27.882845 
L 243.898341 28.105297 
L 243.485276 28.772048 
L 243.719454 29.880959 
L 244.269123 30.751244 
L 245.023698 31.402788 
L 245.846576 31.862496 
L 245.846576 32.19821 
L 245.205837 32.482457 
L 245.420501 33.125813 
L 246.228742 32.78191 
L 246.641807 33.358591 
L 246.929651 33.975043 
L 247.352473 33.743434 
L 247.716751 34.145824 
L 247.749276 34.56576 
L 247.53136 34.963471 
L 247.157325 35.289828 
L 248.015979 36.000669 
L 248.015979 36.189357 
L 247.463058 36.922782 
L 247.804568 37.33453 
L 248.516861 37.722883 
L 249.089297 38.381446 
L 249.063277 38.58498 
L 249.089297 40.263554 
L 249.417798 40.502181 
L 250.141474 40.777069 
L 250.380531 41.161913 
L 249.303961 41.809948 
L 249.677996 42.11291 
L 250.468348 43.449921 
L 250.735052 44.038299 
L 251.472801 44.666364 
L 251.567686 45.040765 
L 251.518899 45.526206 
L 251.69128 45.854902 
L 251.69128 46.137979 
L 250.965978 46.283027 
L 251.252196 47.277304 
L 251.974246 48.475116 
L 254.023308 51.111705 
L 254.901477 51.98199 
L 255.886978 52.346949 
L 256.443152 54.436101 
L 256.865975 54.510964 
L 257.295302 56.387224 
L 257.627055 56.67498 
L 258.062887 56.810669 
L 258.36862 57.011864 
L 259.227274 57.011864 
L 260.128211 57.448176 
L 260.528266 57.807286 
L 260.752687 58.248277 
L 260.494115 58.448303 
L 260.203018 59.26244 
L 260.108696 59.793501 
L 260.668123 60.270754 
L 260.417682 61.665082 
L 261.286094 62.320136 
L 262.043921 64.099307 
L 262.450481 64.767228 
L 262.694417 64.88888 
L 263.54494 65.076038 
L 264.366191 65.635173 
L 265.153291 65.824671 
L 265.481792 66.173253 
L 266.12253 67.268128 
L 266.0835 67.834281 
L 266.418506 68.405113 
L 267.213737 69.4029 
L 267.766658 71.487373 
L 267.413764 71.596159 
L 267.787799 72.103825 
L 269.150588 72.832572 
L 269.150588 73.140213 
L 268.958692 73.472418 
L 269.098548 73.606938 
L 269.397776 73.701687 
L 269.690499 73.91341 
L 270.653233 74.965004 
L 271.937962 75.886758 
L 271.94772 76.539472 
L 272.715305 76.686859 
L 274.136638 77.460056 
L 274.757862 77.158263 
L 275.076046 77.949934 
L 276.049096 79.171382 
L 276.478423 79.9399 
L 277.094768 81.588061 
L 277.193969 82.377634 
L 276.924013 83.059592 
L 277.449288 83.415192 
L 277.434652 84.471466 
L 277.78592 84.914796 
L 277.699729 86.152379 
L 278.211994 87.422715 
L 279.482088 89.577372 
L 279.480461 90.428942 
L 281.243305 93.933477 
L 281.659622 95.816755 
L 281.653117 96.435547 
L 280.970097 98.137516 
L 281.243305 98.881469 
L 280.948956 99.080324 
L 280.833493 99.421888 
L 280.833493 101.478287 
L 281.368525 102.391853 
L 281.610835 102.395362 
L 281.653117 102.772018 
L 281.618966 104.552359 
L 281.435201 104.896262 
L 280.989612 105.118512 
L 281.217285 105.733795 
L 281.012796 106.015386 
L 280.576547 106.325682 
L 280.394408 107.708313 
L 280.244794 107.90015 
L 279.86588 108.028821 
L 279.789447 108.358687 
L 279.945566 109.832557 
L 279.896779 109.989302 
L 279.470704 110.927432 
L 278.794188 111.456153 
L 278.130682 111.729872 
L 278.000583 112.043362 
L 278.033108 113.061034 
L 277.304553 113.323055 
L 277.367976 113.709069 
L 278.429911 115.627439 
L 278.068885 116.680204 
L 277.883494 117.796134 
L 277.047607 120.210473 
L 276.797166 120.374236 
L 276.722359 120.844471 
L 276.914255 120.977821 
L 276.924013 121.221127 
L 276.478423 123.256471 
L 276.585755 123.897487 
L 277.411885 126.674446 
L 277.678588 127.259315 
L 277.808687 127.617255 
L 277.571256 128.66534 
L 277.659073 128.999885 
L 278.000583 129.746178 
L 277.909514 129.970768 
L 277.493197 130.27256 
L 277.35334 130.518205 
L 277.441157 131.828312 
L 277.932281 133.201584 
L 278.751906 134.705867 
L 279.161718 140.561576 
L 278.712876 140.786166 
L 277.678588 140.776808 
L 277.265523 140.926534 
L 276.227982 141.810856 
L 275.83118 142.320862 
L 277.589145 143.266011 
L 278.311195 143.832164 
L 279.080406 145.27796 
L 279.096669 146.803298 
L 279.317837 147.266515 
L 280.646167 148.805366 
L 281.353889 148.728687 
L 282.274341 149.25273 
L 282.889059 150.10196 
L 282.724809 151.002658 
L 283.656644 153.447411 
L 284.26811 154.575038 
L 284.993413 155.049952 
L 285.52682 155.194999 
L 286.626158 155.836016 
L 289.426542 156.568272 
L 292.03503 157.9626 
L 296.220971 158.919445 
L 298.780672 158.556827 
L 299.135192 158.1404 
L 298.021218 157.525118 
L 297.782161 156.781164 
L 297.840705 156.434922 
L 298.741642 155.971706 
L 298.728632 154.642883 
L 299.564519 154.43233 
L 300.052391 154.603112 
L 300.880147 155.202018 
L 301.595692 155.333029 
L 301.997374 155.620784 
L 302.514518 156.184598 
L 303.138994 156.558914 
L 303.861044 156.287535 
L 304.004153 155.974045 
L 304.100101 155.10142 
L 304.290371 154.713067 
L 304.792879 154.458064 
L 305.490536 154.43233 
L 305.916611 154.214759 
L 307.533093 152.860202 
L 309.357734 152.237902 
L 310.070027 151.634317 
L 310.831107 151.585188 
L 310.990478 151.454177 
L 311.107567 151.131329 
L 311.849133 150.387376 
L 312.525648 150.01072 
L 313.042792 149.989665 
L 313.553432 150.087923 
L 314.486893 149.970949 
L 315.00729 149.540486 
L 315.482152 149.100664 
L 316.168425 149.360346 
L 316.47741 149.458604 
L 318.897255 149.708928 
L 323.273465 151.313809 
L 325.808773 153.524613 
L 326.338927 155.075686 
L 326.501551 156.837312 
L 326.091738 158.1404 
L 326.272251 158.425816 
L 326.319412 158.753343 
L 326.086101 159.420855 
L 326.084618 159.420535 
L 325.805469 159.359746 
L 324.978263 159.392904 
L 324.978263 159.674746 
L 325.449489 160.337905 
L 325.792664 161.144748 
L 326.335597 161.760011 
L 327.36 161.868696 
L 326.635235 162.647907 
L 326.253645 163.90054 
L 325.997544 167.883176 
L 325.823396 168.645808 
L 325.408513 169.931599 
L 325.19851 171.970812 
L 324.978263 172.403707 
L 325.183144 173.374497 
L 324.389232 174.625288 
L 324.788749 175.465289 
L 324.578746 176.016079 
L 324.327768 176.192921 
L 324.030691 176.242658 
L 323.708004 176.425027 
L 323.024215 177.331344 
L 322.40189 176.988712 
L 321.725784 177.230028 
L 321.426147 177.320291 
L 315.287412 178.303976 
L 311.38956 178.571082 
L 310.257594 178.95424 
L 307.102434 181.18319 
L 306.175349 182.111612 
L 305.368632 183.277666 
L 305.153507 182.94056 
L 305.184239 182.271875 
L 304.756551 181.442927 
L 304.556793 180.741084 
L 305.26107 180.438978 
L 306.021689 180.298978 
L 307.179264 179.683715 
L 308.434157 179.363188 
L 309.140995 178.856608 
L 309.709539 178.066344 
L 309.899053 177.042133 
L 309.714661 176.474764 
L 309.310022 175.872395 
L 308.377815 174.850025 
L 308.598062 175.925816 
L 308.610867 176.425027 
L 308.111471 176.3145 
L 307.658172 176.644238 
L 307.243289 176.784238 
L 306.874504 176.113711 
L 306.733649 175.281078 
L 306.65938 172.558444 
L 306.984627 171.700022 
L 308.454646 171.141863 
L 308.825992 170.550547 
L 308.546842 170.086336 
L 306.766942 168.975545 
L 305.798881 168.975545 
L 304.818015 168.63844 
L 304.490206 168.697387 
L 304.09325 169.751072 
L 303.747514 169.931599 
L 302.728234 170.113968 
L 301.570658 171.241337 
L 301.235166 171.758969 
L 301.099433 172.971076 
L 301.391388 173.197655 
L 301.463096 173.501603 
L 301.401632 173.76134 
L 301.050774 174.103972 
L 301.14297 174.507393 
L 301.616757 175.093183 
L 302.326155 175.408184 
L 303.847394 177.042133 
L 303.271167 177.605818 
L 302.984334 177.657397 
L 303.417145 177.966871 
L 303.417145 178.303976 
L 303.02531 178.567398 
L 302.9997 178.987398 
L 303.235313 179.447925 
L 303.650196 179.823715 
L 303.342875 180.061347 
L 302.94848 180.158978 
L 301.55017 180.214241 
L 301.217239 180.350557 
L 298.999407 181.861085 
L 298.699769 182.492928 
L 298.645988 183.078718 
L 298.85343 183.323718 
L 299.314411 182.94056 
L 299.1838 183.489508 
L 298.592207 183.695824 
L 298.453913 184.34793 
L 298.54867 185.07372 
L 298.815015 185.278194 
L 300.484791 184.96872 
L 301.237727 184.504509 
L 301.926638 183.808193 
L 302.574573 182.94056 
L 302.126397 182.015822 
L 304.32118 182.73056 
L 304.823137 183.110034 
L 304.953749 183.894772 
L 304.695087 184.797404 
L 304.152154 185.51951 
L 303.417145 185.751616 
L 304.485084 184.123193 
L 304.569598 183.371613 
L 303.847394 182.94056 
L 303.847394 183.277666 
L 304.085567 183.592666 
L 304.01642 183.73635 
L 303.417145 183.896614 
L 302.771771 183.559508 
L 302.495182 183.898456 
L 302.341522 184.206088 
L 301.739685 184.672141 
L 300.756258 185.747931 
L 298.238788 187.26767 
L 298.784283 186.223195 
L 298.884162 185.751616 
L 298.415498 185.681616 
L 298.010858 185.775563 
L 297.724026 186.090563 
L 297.593414 186.680038 
L 298.005736 186.680038 
L 297.8111 187.135038 
L 297.931467 187.488723 
L 298.246471 187.74846 
L 298.669037 187.91425 
L 297.416705 188.30846 
L 296.932675 188.757935 
L 296.932675 189.46162 
L 297.380851 188.842672 
L 298.238788 189.46162 
L 297.969882 190.069515 
L 297.585731 191.21899 
L 297.339875 192.456886 
L 297.485852 193.337413 
L 297.744514 193.401887 
L 297.992931 193.070308 
L 298.169641 192.567412 
L 298.369399 191.495306 
L 298.67672 191.134253 
L 299.314411 190.695831 
L 300.802356 188.765303 
L 301.959931 188.341618 
L 302.395303 187.858986 
L 302.984334 186.372406 
L 302.779454 187.256617 
L 302.502865 188.017408 
L 300.436132 192.114254 
L 298.948187 193.28215 
L 296.110591 197.215049 
L 295.688025 198.795577 
L 295.280825 198.469524 
L 294.78399 198.694261 
L 294.369106 199.071893 
L 294.043858 199.591367 
L 293.862027 200.142157 
L 293.774953 200.774 
L 293.733977 202.498212 
L 293.867149 203.056371 
L 294.369106 204.017951 
L 294.8096 205.443742 
L 294.901796 206.121637 
L 294.799356 206.515848 
L 295.01448 206.829006 
L 294.594475 206.567427 
L 294.20008 206.677954 
L 293.897881 207.027954 
L 293.728855 207.471902 
L 293.936296 208.313745 
L 294.461303 211.979538 
L 295.01448 214.584278 
L 294.932528 214.956383 
L 294.645695 215.380068 
L 294.486913 216.214543 
L 293.943979 218.148755 
L 293.052749 220.147441 
L 292.36896 223.056129 
L 292.269081 223.481656 
L 292.417619 223.912709 
L 292.207616 224.771131 
L 292.077005 226.178501 
L 287.551488 226.453104 
L 280.838371 225.241255 
L 274.341544 222.160165 
L 273.277984 221.286371 
L 271.85665 216.077527 
L 271.10858 214.76742 
L 269.358747 214.980313 
L 267.182838 216.257667 
L 265.117514 216.786388 
L 263.683171 214.758062 
L 263.058695 213.38479 
L 262.339897 213.11809 
L 260.485984 213.728693 
L 254.48516 213.782501 
L 254.140397 213.527498 
L 253.532184 212.416247 
L 253.158148 212.062986 
L 251.385547 211.185682 
L 250.723668 210.401958 
L 250.871656 209.377267 
L 250.308977 208.925748 
L 249.541392 209.000612 
L 248.874634 208.614598 
L 245.560357 207.924453 
L 243.270612 206.450583 
L 242.45424 206.991002 
L 238.759424 207.379355 
L 235.780153 209.215843 
L 234.654795 209.571444 
L 232.877315 209.662683 
L 231.951985 210.160992 
L 231.321004 210.238194 
L 230.263949 210.624208 
L 220.708165 212.084041 
L 218.220019 213.221027 
L 215.679833 213.904154 
L 214.593505 214.517096 
L 213.43237 215.866974 
L 212.876196 216.739599 
L 212.64527 217.439102 
L 208.859384 220.336543 
L 208.306463 221.51096 
L 206.823332 223.479629 
L 205.880113 224.043443 
L 204.780775 225.334834 
L 204.048968 226.598151 
L 202.532246 227.196993 
L 200.594835 227.261393 
L 198.867769 228.601913 
L 196.981331 229.389146 
L 196.265785 229.465179 
L 194.649164 229.418303 
L 194.176067 229.50729 
L 192.875076 230.112044 
L 192.153026 230.30856 
L 190.783732 230.116723 
L 189.632354 229.41839 
L 188.448217 228.482241 
L 187.407659 227.836904 
L 186.116424 227.509377 
L 182.034563 227.190039 
L 178.323485 225.80156 
L 171.681923 226.29051 
L 170.202045 226.06592 
L 163.736116 223.542795 
L 162.672556 223.410615 
L 161.566713 223.783761 
L 159.813627 225.155864 
L 159.270463 225.330155 
L 152.705016 225.569979 
L 141.700571 222.684208 
L 139.905202 221.586993 
L 139.209172 221.445455 
L 136.545392 222.064246 
L 135.17935 221.82562 
L 131.78051 219.870988 
L 126.759698 219.599904 
L 123.906258 220.020714 
L 122.725608 220.679277 
L 121.623018 220.924922 
L 120.676546 221.349536 
L 113.995954 221.970667 
L 113.026716 221.730871 
L 112.229858 221.011482 
L 111.839561 220.154064 
L 111.823298 219.129374 
L 112.584379 215.731284 
L 112.935646 214.713612 
L 113.563375 214.285488 
L 114.213871 214.18723 
L 115.466075 213.761446 
L 116.152348 213.665527 
L 117.251686 213.033868 
L 117.788345 211.64422 
L 117.502127 210.252231 
L 116.152348 209.620573 
L 114.721257 209.419378 
L 113.58289 208.902354 
L 106.794966 204.104088 
L 106.625837 203.434998 
L 106.755936 201.259285 
L 106.505495 200.644003 
L 105.907039 200.356247 
L 104.606047 200.16441 
L 103.399378 199.598257 
L 102.345575 198.667145 
L 101.506435 197.48571 
L 100.917736 195.827021 
L 100.963271 194.771918 
L 100.823414 194.458428 
L 100.163161 193.831448 
L 100.068839 193.461811 
L 100.156656 192.263999 
L 100.29326 191.840554 
L 100.511176 191.639359 
L 100.803899 191.541101 
L 101.909742 191.489633 
L 102.316302 191.300135 
L 102.576501 190.857974 
L 102.856214 189.320938 
L 103.324571 188.86474 
L 103.949047 188.670564 
L 104.606047 188.696298 
L 105.266301 188.972356 
L 106.411173 189.767778 
L 107.090941 189.93622 
L 107.695903 189.821586 
L 108.398438 189.482362 
L 108.951359 188.902172 
L 109.136751 188.081016 
L 107.549541 186.258564 
L 107.090941 185.917 
L 104.606047 185.608189 
L 103.545739 185.06777 
L 102.469169 184.171751 
L 100.28025 181.689567 
L 99.815146 181.40883 
L 99.236205 181.282498 
L 98.465367 181.252085 
L 98.133614 181.516446 
L 97.037529 182.751689 
L 96.42281 183.135363 
L 95.118566 183.439495 
L 94.653462 183.799774 
L 94.46807 184.510975 
L 90.883838 191.14573 
L 90.474026 191.587891 
L 89.722703 191.789085 
L 89.042935 191.709543 
L 88.3404 191.393714 
L 87.793983 190.843937 
L 87.458978 189.53383 
L 86.811735 189.016806 
L 86.479982 188.696298 
L 86.310853 188.350056 
L 86.070169 187.152244 
L 85.192 184.969513 
L 84.879762 184.651344 
L 83.874746 184.482901 
L 81.028827 182.957563 
L 80.50843 182.845268 
L 79.968519 182.992655 
L 78.817141 183.505 
L 77.405565 183.804453 
L 75.779326 183.813811 
L 74.240903 183.334219 
L 73.089526 182.145765 
L 72.331698 179.789912 
L 71.778777 179.258851 
L 71.160806 179.078712 
L 69.235338 179.242475 
L 66.558548 178.936003 
L 66.047909 178.690359 
L 65.501492 177.494886 
L 64.910776 177.041635 
L 64.376134 176.802401 
L 64.489971 176.18244 
L 64.776189 175.686471 
L 65.186002 175.312155 
L 66.028394 175.005684 
L 67.856287 175.099263 
L 68.740961 174.961233 
L 70.019185 174.591596 
L 70.464775 174.205583 
L 70.552592 173.337637 
L 70.298899 172.605381 
L 69.837047 172.186615 
L 67.953861 171.351422 
L 66.441458 171.080043 
L 65.709651 170.574716 
L 65.670621 169.79801 
L 64.71114 169.655302 
L 64.64609 169.273967 
L 65.023378 168.445792 
L 65.335616 168.284369 
L 66.467478 168.108908 
L 66.965108 167.554452 
L 67.104964 166.599946 
L 67.573321 165.668834 
L 67.511524 164.988047 
L 68.018911 164.335333 
L 68.347411 164.166891 
L 68.740961 164.143496 
L 69.137764 163.792574 
L 69.254853 163.224082 
L 69.111744 162.625176 
L 68.044931 161.315069 
L 67.238316 160.645979 
L 66.350389 160.154689 
L 63.006841 159.090227 
L 61.679829 159.048117 
L 61.11715 158.80949 
L 60.073105 158.060858 
L 59.559213 157.443236 
L 58.485895 155.831337 
L 57.975256 155.445323 
L 57.65326 155.527205 
L 57.145873 156.095698 
L 56.84014 156.243085 
L 56.469358 156.151845 
L 55.600946 155.32835 
L 53.005468 154.128198 
L 52.524101 153.730487 
L 51.310926 152.104551 
L 49.278127 150.237649 
L 48.250343 148.707632 
L 47.798249 148.239737 
L 46.259826 147.493444 
L 46.058172 146.859446 
L 47.219307 145.811361 
L 47.300619 145.177363 
L 46.897312 144.129277 
L 45.973608 142.517378 
L 45.859771 141.778104 
L 46.103707 140.645797 
L 46.578569 139.42693 
L 46.663134 138.785914 
L 46.715173 135.966845 
L 46.845272 135.124634 
L 46.585074 134.682473 
L 46.198029 134.481278 
L 45.850014 134.626325 
L 45.573553 135.014678 
L 45.388162 135.538721 
L 44.991359 135.866248 
L 44.568537 135.994919 
L 44.148967 135.90134 
L 43.77168 135.552758 
L 43.472452 134.939815 
L 42.444668 133.487 
L 42.330831 133.051858 
L 42.155198 131.753448 
L 41.934029 131.470372 
L 41.166444 130.887842 
L 40.122398 129.006903 
L 39.637779 128.520292 
L 39.04908 128.281666 
L 37.848915 128.148316 
L 37.276479 127.874597 
L 35.029016 125.932832 
L 33.793074 125.380715 
L 33.256415 124.978325 
L 32.775048 124.248409 
L 32.114795 122.175633 
L 31.737507 121.497185 
L 29.76 119.029038 
L 31.031719 117.41246 
L 36.095829 117.272091 
L 36.863414 116.039187 
L 38.148143 116.331622 
L 39.393843 116.853325 
L 40.62328 117.908429 
L 41.237998 118.060494 
L 43.013852 117.686178 
L 43.628571 117.372688 
L 44.109937 116.839288 
L 44.284555 116.293038 
L 44.314844 115.744413 
L 44.470963 115.407528 
L 44.708394 115.320968 
L 45.300345 115.470694 
L 45.554038 115.218031 
L 45.557291 114.855412 
L 45.248305 113.423653 
L 45.384909 113.170989 
L 46.896592 111.998388 
L 47.251832 111.807075 
L 47.912085 111.622256 
L 48.543066 111.65033 
L 48.835789 111.800056 
L 49.658667 112.405981 
L 49.970905 112.377907 
L 50.64742 112.05272 
L 51.210099 112.172033 
L 52.384244 112.679699 
L 53.005468 112.656305 
L 53.561642 112.532312 
L 53.80883 112.656305 
L 54.026746 112.918326 
L 54.641465 113.449387 
L 55.207396 113.234155 
L 56.911695 111.306427 
L 57.832146 111.313445 
L 58.134627 111.077158 
L 58.495652 110.389352 
L 58.765608 109.514388 
L 58.895707 107.500099 
L 59.21445 106.517519 
L 59.744604 105.899897 
L 60.359323 105.682326 
L 61.692839 105.625009 
L 62.421394 105.071723 
L 62.222993 104.077445 
L 61.302542 102.333366 
L 61.380601 101.401085 
L 62.7564 99.171564 
L 62.879994 97.436842 
L 63.05888 96.581764 
L 63.540247 96.006253 
L 64.21351 95.835471 
L 65.371393 95.924371 
L 66.051161 95.566431 
L 66.704909 94.712522 
L 66.978118 93.952193 
L 67.316375 93.421132 
L 68.17503 93.271405 
L 68.806011 92.918144 
L 69.378447 92.073593 
L 69.485779 91.179913 
L 68.461248 90.412565 
L 68.392946 90.285064 
L 68.493773 89.748154 
L 69.817532 86.72789 
L 70.474533 86.119627 
L 71.622658 85.814325 
L 71.947905 85.534757 
L 72.211356 84.956907 
L 72.094267 83.983685 
L 72.113782 82.898168 
L 72.152812 82.776515 
L 72.292668 82.725047 
L 73.996967 81.232461 
L 74.69625 78.904682 
L 74.195369 78.2005 
L 73.622932 78.013342 
L 73.50259 77.623819 
L 74.732028 76.173344 
L 75.434563 75.51946 
L 76.985996 74.504127 
L 77.623481 73.887675 
L 77.834893 73.488795 
L 78.130868 72.279286 
L 78.430096 71.846482 
L 79.389578 70.83115 
L 79.581474 70.273185 
L 79.636766 68.41915 
L 80.16692 67.335972 
L 80.719841 65.185994 
L 82.508705 62.820783 
L 83.074636 62.481559 
L 84.476455 62.07683 
L 85.107436 60.821701 
L 85.065153 59.311569 
L 84.788693 57.74412 
L 84.707381 56.334586 
L 85.305837 55.226844 
L 86.236046 54.234906 
L 88.190786 52.803147 
L 89.909569 52.293159 
L 90.158536 52.110662 
L 90.379704 51.425195 
L 90.496793 50.791197 
L 91.277388 49.70802 
L 91.83031 47.869191 
L 92.6044 47.256249 
L 93.651698 45.885316 
L 94.793318 45.37414 
L 95.193373 45.336708 
L 97.099326 45.510999 
L 97.515643 45.344897 
L 97.876668 45.010352 
L 98.39056 43.222992 
L 99.356546 43.004251 
L 101.688574 44.197384 
L 102.774902 44.370505 
L 103.978319 44.202062 
L 105.126444 43.7213 
L 106.046896 42.941085 
L 106.824238 41.949147 
L 107.208031 41.655543 
L 107.848769 41.370127 
L 108.717181 41.180629 
L 108.983884 40.671793 
L 108.749706 39.661139 
L 109.087964 39.049366 
L 109.592098 38.707803 
L 110.85406 38.253944 
L 111.367951 37.795407 
L 112.158304 36.375345 
L 112.675448 35.790476 
L 113.312934 35.598639 
L 113.878865 35.226662 
L 114.142316 34.613719 
L 113.875613 33.696645 
L 114.139063 33.160905 
L 114.617178 33.123473 
L 115.661224 33.701324 
L 116.1556 33.996098 
L 116.66624 34.145824 
L 117.167121 34.070961 
L 118.513648 33.041591 
L 118.93647 32.269564 
L 119.642258 30.154678 
L 120.260229 29.235264 
L 120.90422 28.936981 
L 121.616513 29.037578 
L 123.808684 29.769834 
L 124.351848 30.154678 
L 125.646334 31.649603 
L 127.14898 32.887186 
L 127.85802 33.689626 
L 128.319872 33.8066 
L 128.989883 33.693136 
L 131.029187 34.676885 
L 131.805065 34.545707 
L 132.08299 34.260459 
L 132.717224 33.425266 
L 133.068491 33.325838 
L 134.252394 33.118794 
L 134.834588 33.308292 
L 136.860882 33.532881 
L 138.155369 33.956327 
L 138.887176 34.054585 
L 141.076095 33.944629 
L 141.593239 34.194953 
L 143.225983 35.658296 
L 143.440647 36.356629 
L 144.11391 36.347271 
L 147.281825 35.086294 
L 148.273831 35.135423 
L 148.790975 35.495702 
L 150.355418 35.90628 
L 150.979893 36.189357 
L 152.124766 37.24797 
L 152.723222 37.321663 
L 154.58364 38.015318 
L 155.266661 38.041052 
L 157.371015 37.010513 
L 158.922447 36.961384 
L 160.151884 35.928505 
L 160.873935 35.54951 
L 161.482148 35.528455 
L 163.277517 35.95073 
L 165.056623 35.922656 
L 165.928648 36.218295 
L 167.144714 36.913425 
L 167.938319 37.531046 
L 168.429443 38.122934 
L 168.640855 38.843492 
L 168.670127 39.43655 
L 168.813236 39.994515 
L 169.36941 40.616815 
L 170.429718 41.260171 
L 172.973157 42.231054 
L 173.431756 42.626425 
L 173.825306 43.153977 
L 175.620675 46.112245 
L 176.212626 46.505277 
L 180.014774 45.847884 
L 181.992281 45.008012 
L 183.30303 43.777448 
L 186.357108 38.880924 
L 187.703634 37.970868 
L 203.148031 36.340253 
L 205.21986 35.526115 
L 206.875372 35.32492 
L 207.828348 34.920191 
L 208.358502 34.820763 
L 209.857895 34.96815 
L 211.85817 34.384451 
L 214.892733 34.356377 
L 216.382368 33.689626 
L 216.684849 33.231089 
L 217.380879 31.687035 
L 217.767924 31.205103 
L 218.971341 30.104379 
L 219.455961 29.141685 
L 219.9666 27.73332 
L 220.298353 26.301561 
L 220.256071 25.2757 
L 220.486997 23.779605 
L 220.747195 23.884882 
L 221.329389 23.93986 
L 221.866048 23.777266 
L 223.4435 23.138589 
L 225.453532 22.949091 
L 229.421557 22.090504 
L 231.886936 20.965216 
L 232.604107 20.937142 
L 233.326158 21.548915 
L 233.669294 21.619099 
L 233.669294 21.619099 
" clip-path="url(#p74a2e6889f)" style="fill: none; stroke: #000000; stroke-width: 2"/>
   </g>
  </g>
 </g>
 <defs>
  <clipPath id="p74a2e6889f">
   <rect x="0" y="0" width="357.12" height="251.245702"/>
  </clipPath>
 </defs>
</svg>
