<?xml version="1.0" encoding="utf-8" standalone="no"?>
<!DOCTYPE svg PUBLIC "-//W3C//DTD SVG 1.1//EN"
  "http://www.w3.org/Graphics/SVG/1.1/DTD/svg11.dtd">
<svg xmlns:xlink="http://www.w3.org/1999/xlink" width="305.430042pt" height="266.112pt" viewBox="0 0 305.430042 266.112" xmlns="http://www.w3.org/2000/svg" version="1.1">
 <metadata>
  <rdf:RDF xmlns:dc="http://purl.org/dc/elements/1.1/" xmlns:cc="http://creativecommons.org/ns#" xmlns:rdf="http://www.w3.org/1999/02/22-rdf-syntax-ns#">
   <cc:Work>
    <dc:type rdf:resource="http://purl.org/dc/dcmitype/StillImage"/>
    <dc:date>2024-02-02T21:58:04.801068</dc:date>
    <dc:format>image/svg+xml</dc:format>
    <dc:creator>
     <cc:Agent>
      <dc:title>Matplotlib v3.8.2, https://matplotlib.org/</dc:title>
     </cc:Agent>
    </dc:creator>
   </cc:Work>
  </rdf:RDF>
 </metadata>
 <defs>
  <style type="text/css">*{stroke-linejoin: round; stroke-linecap: butt}</style>
 </defs>
 <g id="figure_1">
  <g id="patch_1">
   <path d="M 0 266.112 
L 305.430042 266.112 
L 305.430042 0 
L 0 0 
L 0 266.112 
z
" style="fill: none"/>
  </g>
  <g id="axes_1">
   <g id="PatchCollection_1">
    <path d="M 227.830512 23.197238 
L 226.836515 24.237015 
L 225.871374 25.611025 
L 225.47625 27.023921 
L 225.890807 28.372007 
L 227.717448 29.629355 
L 228.132005 31.340386 
L 227.86643 32.079241 
L 227.393576 32.79217 
L 227.056748 33.543987 
L 227.264027 34.295804 
L 228.365194 35.034658 
L 229.362721 34.87911 
L 230.17888 34.43839 
L 230.697077 34.295804 
L 232.23871 35.410566 
L 232.769862 36.188308 
L 233.262148 39.428897 
L 234.026487 41.256589 
L 236.306551 45.041597 
L 237.04498 47.595182 
L 238.210922 49.111777 
L 238.463543 50.135804 
L 238.055463 51.069093 
L 237.7575 51.807948 
L 237.627951 52.741237 
L 238.301606 54.750403 
L 239.92097 55.968864 
L 243.613118 57.498422 
L 244.934518 58.431712 
L 246.812979 60.220517 
L 247.965966 60.920484 
L 256.244151 63.992563 
L 258.705583 64.342547 
L 261.141105 65.820255 
L 261.853625 69.099732 
L 261.620437 72.366246 
L 261.23179 73.843954 
L 260.564612 74.569846 
L 261.309519 76.203103 
L 263.382304 78.977047 
L 264.936893 80.636229 
L 265.493954 81.595443 
L 266.711715 86.106344 
L 267.916521 88.932138 
L 269.879189 90.474658 
L 272.858818 89.33397 
L 273.772138 91.991254 
L 273.668499 95.218881 
L 272.049136 105.109159 
L 272.010271 106.457244 
L 272.295279 107.105362 
L 273.409401 108.816393 
L 273.720319 109.970043 
L 272.282324 113.418029 
L 272.722791 114.74019 
L 273.720319 119.769584 
L 273.033709 121.895411 
L 271.757651 123.774953 
L 271.051608 125.706344 
L 272.010271 127.948832 
L 269.976351 129.543201 
L 269.212012 130.35983 
L 268.590176 131.370894 
L 272.347099 131.967162 
L 272.722791 135.285525 
L 271.071041 142.583332 
L 273.415879 142.0778 
L 275.67651 143.205525 
L 277.587358 145.123954 
L 278.928191 146.938684 
L 279.977538 150.581106 
L 275.663555 164.541565 
L 274.575343 170.063529 
L 275.106494 178.644609 
L 274.575343 181.198193 
L 273.279852 183.54438 
L 271.647534 184.723954 
L 269.542362 185.657244 
L 267.605603 186.772007 
L 265.856691 187.199764 
L 264.949848 187.718259 
L 263.809816 188.029355 
L 262.786378 187.78307 
L 256.244151 184.555444 
L 254.896841 184.127686 
L 253.277477 184.348046 
L 251.839483 185.475771 
L 250.051706 188.845984 
L 248.646099 190.025558 
L 246.02273 190.168144 
L 243.3022 189.390403 
L 240.633489 189.053381 
L 238.210922 190.479241 
L 234.091262 190.323692 
L 229.919782 188.366376 
L 223.111979 182.779601 
L 222.392982 181.794462 
L 221.745237 180.031581 
L 221.149311 179.344576 
L 220.721799 179.500124 
L 216.757598 178.553872 
L 216.148717 178.242776 
L 214.134229 178.839044 
L 212.909991 179.979732 
L 211.815301 181.418553 
L 210.202415 182.909224 
L 208.401684 183.829551 
L 206.043891 184.594331 
L 203.647233 185.0869 
L 201.626268 185.177637 
L 200.071679 184.827653 
L 196.159298 182.922187 
L 194.701871 182.779601 
L 194.254927 183.622154 
L 194.190152 184.801728 
L 193.931054 185.683169 
L 188.26976 192.78654 
L 186.1322 194.264249 
L 183.333941 194.354985 
L 180.457952 193.240223 
L 177.841061 191.503267 
L 175.781231 189.701499 
L 171.894759 185.099863 
L 170.36608 183.920288 
L 168.934563 183.414756 
L 167.729757 183.375869 
L 166.673932 183.479568 
L 165.702314 183.336982 
L 162.418245 180.511188 
L 161.41424 179.940844 
L 160.131705 179.979732 
L 159.768967 180.679699 
L 159.781922 181.846311 
L 158.965763 188.262678 
L 159.866129 197.906671 
L 157.152076 207.382154 
L 156.569106 221.640746 
L 155.89545 224.401728 
L 154.703599 227.136786 
L 153.17492 229.729257 
L 151.503737 231.997669 
L 148.938666 234.603103 
L 146.580873 235.990075 
L 144.048189 236.469682 
L 140.932534 236.378946 
L 138.134274 235.536393 
L 136.69628 235.549355 
L 135.763527 236.715967 
L 135.34897 239.347326 
L 134.804864 240.513938 
L 133.587103 241.252792 
L 130.782365 241.602776 
L 128.418095 241.23983 
L 121.862913 239.075116 
L 120.969024 239.023267 
L 117.238011 240.371352 
L 116.305258 240.941696 
L 115.30773 241.330566 
L 114.01224 241.278717 
L 111.2658 241.641663 
L 108.920962 243.132334 
L 106.537259 243.936 
L 103.622405 242.289781 
L 96.665621 240.993545 
L 94.417945 241.252792 
L 89.009272 243.598979 
L 85.926004 243.884151 
L 84.818359 241.499077 
L 84.669378 239.930632 
L 83.503437 237.325198 
L 83.218429 235.873414 
L 83.645941 234.564216 
L 85.381898 232.43839 
L 85.653951 231.01253 
L 84.889611 229.457047 
L 82.139769 226.787798 
L 81.709182 225.088733 
L 81.871118 223.611025 
L 81.780434 223.027718 
L 80.251755 221.887031 
L 77.958737 220.577833 
L 75.309459 219.942678 
L 70.01738 219.281597 
L 67.21912 218.426082 
L 59.608113 215.107718 
L 57.567715 214.809584 
L 50.274103 215.289191 
L 47.430501 218.076098 
L 45.273509 230.62366 
L 43.362661 228.484871 
L 40.791112 227.21456 
L 37.047144 226.812727 
L 35.375961 226.151646 
L 30.69924 223.09253 
L 29.727622 222.094429 
L 30.569691 212.515247 
L 29.727622 209.598717 
L 28.438609 208.289519 
L 27.033002 207.615476 
L 25.91888 206.850697 
L 25.452503 205.243365 
L 25.905925 203.597146 
L 28.082349 201.652792 
L 27.641883 200.123234 
L 26.372302 197.854822 
L 25.905925 195.366049 
L 25.653304 192.682841 
L 26.592535 189.390403 
L 28.354402 187.873807 
L 31.722678 186.707195 
L 34.339569 185.942416 
L 36.509516 184.659142 
L 38.290815 182.844412 
L 39.741765 180.576 
L 40.687473 178.709421 
L 41.114985 177.361335 
L 41.263966 176.272497 
L 42.552979 175.066998 
L 43.615281 174.69109 
L 47.223223 174.807751 
L 52.80031 173.330043 
L 57.114293 169.920943 
L 60.249381 165.034134 
L 62.218526 159.097375 
L 62.944001 153.860583 
L 62.684903 149.349683 
L 59.355492 129.659862 
L 59.083439 125.071188 
L 59.705275 120.586213 
L 62.063067 115.064249 
L 69.952605 102.438913 
L 72.595406 97.422481 
L 74.11113 95.205918 
L 80.161071 90.189486 
L 81.430651 88.543267 
L 84.863702 81.46582 
L 86.314651 79.599241 
L 88.283797 78.76965 
L 98.174867 78.303005 
L 98.712496 77.849322 
L 101.54962 73.377309 
L 105.863604 68.879371 
L 110.864198 65.275836 
L 115.787062 63.525918 
L 120.82652 63.798128 
L 123.456366 63.603692 
L 125.788249 62.968537 
L 128.372753 61.516753 
L 130.309511 60.116818 
L 132.408206 59.02798 
L 135.452609 58.483561 
L 136.942423 58.820583 
L 139.611134 60.440877 
L 140.479112 60.751974 
L 141.515505 60.142743 
L 142.266889 57.666933 
L 143.400444 56.318848 
L 144.559908 55.592956 
L 145.64812 55.268897 
L 146.775197 55.437408 
L 148.148417 56.137375 
L 151.672151 61.257506 
L 152.229212 63.888864 
L 152.527175 69.047882 
L 153.744936 71.705165 
L 155.89545 73.714331 
L 158.343928 74.414298 
L 160.980251 74.129126 
L 163.733168 73.1051 
L 172.244541 68.386802 
L 173.540032 68.114592 
L 174.680064 65.379535 
L 176.312382 63.694429 
L 180.66523 61.361205 
L 185.782418 59.365002 
L 187.142683 58.094691 
L 187.790428 56.189224 
L 188.554768 51.32834 
L 189.448656 49.617309 
L 190.433229 49.034003 
L 193.35456 48.515509 
L 195.291319 47.361859 
L 200.868406 42.060255 
L 202.507202 39.960354 
L 203.854512 37.691941 
L 204.094178 36.86235 
L 204.372708 35.060583 
L 204.735445 34.308766 
L 205.616379 33.582874 
L 207.715074 32.636622 
L 208.479413 32.001466 
L 209.127158 30.096 
L 209.93684 24.911057 
L 210.992665 23.122252 
L 212.909991 22.435247 
L 214.982776 22.746344 
L 217.120335 23.368537 
L 219.231985 23.640746 
L 221.201131 23.148177 
L 222.846404 22.409322 
L 224.549974 22.176 
L 227.830512 23.197238 
L 227.830512 23.197238 
" clip-path="url(#pc16f3a7988)" style="fill: none; stroke: #000000; stroke-width: 2"/>
   </g>
  </g>
 </g>
 <defs>
  <clipPath id="pc16f3a7988">
   <rect x="0" y="-0" width="305.430042" height="266.112"/>
  </clipPath>
 </defs>
</svg>
