<?xml version="1.0" encoding="utf-8" standalone="no"?>
<!DOCTYPE svg PUBLIC "-//W3C//DTD SVG 1.1//EN"
  "http://www.w3.org/Graphics/SVG/1.1/DTD/svg11.dtd">
<svg xmlns:xlink="http://www.w3.org/1999/xlink" width="324.507539pt" height="266.112pt" viewBox="0 0 324.507539 266.112" xmlns="http://www.w3.org/2000/svg" version="1.1">
 <metadata>
  <rdf:RDF xmlns:dc="http://purl.org/dc/elements/1.1/" xmlns:cc="http://creativecommons.org/ns#" xmlns:rdf="http://www.w3.org/1999/02/22-rdf-syntax-ns#">
   <cc:Work>
    <dc:type rdf:resource="http://purl.org/dc/dcmitype/StillImage"/>
    <dc:date>2024-02-02T21:58:04.856081</dc:date>
    <dc:format>image/svg+xml</dc:format>
    <dc:creator>
     <cc:Agent>
      <dc:title>Matplotlib v3.8.2, https://matplotlib.org/</dc:title>
     </cc:Agent>
    </dc:creator>
   </cc:Work>
  </rdf:RDF>
 </metadata>
 <defs>
  <style type="text/css">*{stroke-linejoin: round; stroke-linecap: butt}</style>
 </defs>
 <g id="figure_1">
  <g id="patch_1">
   <path d="M 0 266.112 
L 324.507539 266.112 
L 324.507539 0 
L 0 0 
L 0 266.112 
z
" style="fill: none"/>
  </g>
  <g id="axes_1">
   <g id="PatchCollection_1">
    <path d="M 121.087241 238.578148 
L 121.172946 238.63309 
L 121.638285 238.582582 
L 121.791437 238.837009 
L 122.04956 238.857239 
L 122.308524 238.768971 
L 122.532523 238.752784 
L 122.686215 238.916859 
L 122.684938 239.079615 
L 122.839887 239.080942 
L 123.220084 238.903407 
L 122.859107 238.827913 
L 122.669771 238.517309 
L 122.825436 238.263513 
L 122.921552 237.862482 
L 123.00513 237.724985 
L 123.189003 237.695195 
L 123.270492 237.729569 
L 123.372876 237.773109 
L 123.726781 238.003705 
L 123.742071 238.23893 
L 123.911872 238.52982 
L 123.886884 238.681159 
L 124.202923 238.731443 
L 124.286743 239.003509 
L 124.784124 239.225185 
L 124.78244 239.424155 
L 124.7459 239.677066 
L 124.657264 239.983848 
L 124.689724 240.219431 
L 124.806729 240.636865 
L 124.678791 240.920633 
L 124.68297 240.943549 
L 124.391264 240.922507 
L 124.033598 240.466608 
L 123.741895 240.355374 
L 123.466684 240.334801 
L 123.330027 240.206913 
L 123.692795 240.047299 
L 123.900824 239.868242 
L 123.817136 239.577997 
L 123.491566 239.394188 
L 123.164064 239.445539 
L 122.785084 239.47844 
L 122.526255 239.548614 
L 122.284058 239.691348 
L 122.076576 239.816176 
L 121.81887 239.72379 
L 121.528443 239.431921 
L 121.323407 239.231225 
L 121.031013 239.156672 
L 120.688361 238.900785 
L 120.379903 238.645217 
L 120.226526 238.354706 
L 120.143339 237.919874 
L 119.920228 237.755386 
L 119.695922 237.753733 
L 119.542888 237.716392 
L 119.576319 237.623009 
L 119.560756 237.318467 
L 119.372543 237.063739 
L 119.253344 236.791393 
L 119.272224 236.538169 
L 119.461864 236.593901 
L 119.530221 236.702993 
L 119.684745 236.830829 
L 120.183695 237.069876 
L 120.45765 237.397629 
L 120.594183 237.597661 
L 120.643694 237.941697 
L 120.635678 238.104247 
L 120.864769 238.377459 
L 121.087241 238.578148 
" clip-path="url(#p6c452ce268)" style="fill: none; stroke: #000000; stroke-width: 2"/>
    <path d="M 121.686678 235.891699 
L 121.690621 236.159428 
L 121.619395 236.46635 
L 121.669235 236.719989 
L 122.082113 236.831974 
L 122.200447 237.140439 
L 121.673097 237.148646 
L 121.521611 237.354891 
L 121.596831 237.594364 
L 121.911296 237.71009 
L 122.089945 237.82467 
L 122.332173 237.937273 
L 122.415834 238.281452 
L 122.414374 238.444338 
L 122.037266 238.206078 
L 121.573223 238.057594 
L 121.349462 238.019592 
L 121.161133 237.855341 
L 120.973352 237.600626 
L 120.648788 237.163945 
L 120.375559 236.763803 
L 120.272111 236.604389 
L 120.272111 236.603243 
L 120.416284 236.469184 
L 120.726569 236.449706 
L 120.952231 236.37752 
L 121.118344 236.228565 
L 121.247891 235.979926 
L 121.379527 235.991384 
L 121.403556 235.993676 
L 121.403556 235.993103 
L 121.472508 235.714099 
L 121.375348 235.375514 
L 121.202967 235.293017 
L 121.030586 235.210519 
L 120.864474 235.196196 
L 120.575083 235.129739 
L 120.416284 235.114844 
L 120.384942 235.052971 
L 120.384942 235.052398 
L 120.483147 234.939536 
L 120.604336 234.887402 
L 120.635678 235.00943 
L 121.051481 235.052398 
L 121.378482 235.191613 
L 121.596831 235.460877 
L 121.608323 235.518167 
L 121.686678 235.891699 
" clip-path="url(#p6c452ce268)" style="fill: none; stroke: #000000; stroke-width: 2"/>
    <path d="M 58.193076 115.832638 
L 58.317399 116.108204 
L 58.399933 116.097891 
L 58.428141 115.997634 
L 58.481422 116.066955 
L 58.54724 116.53387 
L 58.682011 116.643867 
L 58.74574 116.706313 
L 58.716487 116.71949 
L 58.660072 116.694855 
L 58.562911 116.678814 
L 58.551419 116.73725 
L 58.603656 116.827769 
L 58.501272 116.8123 
L 58.248447 116.647877 
L 58.183674 116.49434 
L 58.205613 116.399238 
L 58.08129 116.386061 
L 57.923535 116.430747 
L 57.835778 116.313303 
L 57.773094 116.120807 
L 57.657129 116.120807 
L 57.51609 116.220492 
L 57.487882 116.123099 
L 57.583997 115.859564 
L 57.707276 115.715193 
L 57.863986 115.714047 
L 58.04159 115.739828 
L 58.193076 115.832638 
" clip-path="url(#p6c452ce268)" style="fill: none; stroke: #000000; stroke-width: 2"/>
    <path d="M 55.939589 115.96727 
L 56.174654 116.0956 
L 56.624933 116.289814 
L 56.840148 116.346531 
L 57.001037 116.364864 
L 57.120136 116.434185 
L 57.178641 116.534443 
L 56.91119 116.544755 
L 56.87149 116.726365 
L 56.973874 116.893079 
L 57.127449 116.854122 
L 57.284159 116.681679 
L 57.459674 116.55163 
L 57.667576 116.542463 
L 57.707276 116.606055 
L 57.472211 116.732667 
L 57.372961 116.810581 
L 57.237146 116.963546 
L 57.108644 117.219634 
L 56.915369 117.358849 
L 56.644783 117.180103 
L 56.40136 116.910266 
L 56.16734 116.726365 
L 55.651243 116.178098 
L 55.617811 116.142578 
L 55.571843 116.06008 
L 55.571843 116.007946 
L 55.596917 116.013102 
L 55.623035 115.983884 
L 55.599006 115.901959 
L 55.475728 115.762171 
L 55.32842 115.55478 
L 55.333644 115.452804 
L 55.469459 115.485459 
L 55.594827 115.591446 
L 55.829892 115.88248 
L 55.939589 115.96727 
" clip-path="url(#p6c452ce268)" style="fill: none; stroke: #000000; stroke-width: 2"/>
    <path d="M 56.347034 114.885631 
L 56.268679 114.937192 
L 56.146446 114.897662 
L 55.981378 114.737822 
L 56.006452 114.538452 
L 56.165251 114.416424 
L 56.349124 114.440486 
L 56.489118 114.592305 
L 56.48285 114.756155 
L 56.347034 114.885631 
" clip-path="url(#p6c452ce268)" style="fill: none; stroke: #000000; stroke-width: 2"/>
    <path d="M 54.679642 114.484599 
L 55.314839 114.903964 
L 55.385881 115.011669 
L 55.452744 115.176665 
L 55.648108 115.294683 
L 55.848697 115.368587 
L 56.135998 115.543895 
L 56.591502 115.918573 
L 56.704333 116.045184 
L 56.685528 116.0956 
L 56.63538 116.138567 
L 56.651051 116.199868 
L 56.582099 116.163202 
L 56.384645 116.009665 
L 56.213309 115.903105 
L 56.081672 115.870449 
L 56.029436 115.781077 
L 55.961528 115.62582 
L 55.842429 115.567384 
L 55.759895 115.602331 
L 55.642885 115.56452 
L 55.509159 115.432179 
L 55.385881 115.340515 
L 55.325286 115.324474 
L 55.266781 115.302703 
L 55.197829 115.201873 
L 55.190516 115.060939 
L 55.07664 115.021981 
L 54.896946 114.991045 
L 54.863515 114.941775 
L 54.915751 114.959535 
L 54.90217 114.897089 
L 54.792473 114.745843 
L 54.598153 114.618658 
L 54.368311 114.632408 
L 54.263838 114.695427 
L 54.207423 114.74928 
L 54.109218 114.78079 
L 54.112352 114.649595 
L 54.238765 114.455954 
L 54.438309 114.399237 
L 54.679642 114.484599 
" clip-path="url(#p6c452ce268)" style="fill: none; stroke: #000000; stroke-width: 2"/>
    <path d="M 57.283114 114.22221 
L 57.249683 114.324187 
L 57.190133 114.32877 
L 57.111778 114.268042 
L 57.097152 114.292677 
L 57.130584 114.396372 
L 57.122226 114.444496 
L 57.092973 114.428455 
L 57.180731 114.626106 
L 57.272667 115.000784 
L 57.216252 115.128541 
L 57.072079 114.909693 
L 56.9885 114.851257 
L 56.927905 114.708031 
L 56.91119 114.307 
L 56.894474 114.218773 
L 56.895519 114.05836 
L 56.978053 113.949509 
L 57.10342 113.900812 
L 57.214162 113.954092 
L 57.274757 114.091589 
L 57.283114 114.22221 
" clip-path="url(#p6c452ce268)" style="fill: none; stroke: #000000; stroke-width: 2"/>
    <path d="M 52.686293 113.649881 
L 53.018517 113.990758 
L 53.187764 114.113359 
L 53.36119 114.127681 
L 53.466708 114.100755 
L 53.501184 114.135129 
L 53.510586 114.234814 
L 53.554465 114.351686 
L 53.67252 114.403247 
L 53.785351 114.390643 
L 53.804156 114.380331 
L 53.762367 114.36429 
L 53.770725 114.302989 
L 53.830274 114.246272 
L 53.936837 114.261741 
L 54.134291 114.383769 
L 54.119665 114.467985 
L 54.0434 114.631262 
L 53.935792 114.701729 
L 53.850124 114.658762 
L 53.680878 114.536733 
L 52.652861 114.015966 
L 52.374962 113.948936 
L 52.289294 114.146587 
L 52.161837 114.081276 
L 51.918414 113.847532 
L 51.754391 113.656756 
L 51.673947 113.35942 
L 51.779465 113.113645 
L 52.097064 112.786518 
L 52.237058 112.612356 
L 52.34362 112.545899 
L 52.364515 112.635845 
L 52.289294 112.797976 
L 52.074079 113.118801 
L 52.090795 113.249423 
L 52.181687 113.366295 
L 52.270489 113.433324 
L 52.347799 113.436189 
L 52.410483 113.461396 
L 52.476301 113.553061 
L 52.57973 113.611497 
L 52.686293 113.649881 
" clip-path="url(#p6c452ce268)" style="fill: none; stroke: #000000; stroke-width: 2"/>
    <path d="M 52.918223 112.385486 
L 53.016428 112.46111 
L 53.16478 112.427881 
L 53.209703 112.453089 
L 53.139706 112.570534 
L 53.01016 112.634126 
L 52.849271 112.604908 
L 52.592267 112.399236 
L 52.448094 112.307572 
L 52.351978 112.144868 
L 52.332128 112.032579 
L 52.297652 111.73467 
L 52.328994 111.150883 
L 52.533762 110.666208 
L 52.857629 110.363142 
L 52.949565 110.325904 
L 52.778229 110.494337 
L 52.638235 110.713758 
L 52.532717 110.955523 
L 52.495107 111.229943 
L 52.606893 111.476864 
L 52.852405 111.709462 
L 52.949565 111.750711 
L 53.039412 111.764461 
L 53.033144 111.858417 
L 52.922402 112.044037 
L 52.880613 112.227366 
L 52.896284 112.307572 
L 52.918223 112.385486 
" clip-path="url(#p6c452ce268)" style="fill: none; stroke: #000000; stroke-width: 2"/>
    <path d="M 219.513316 89.330191 
L 219.766141 89.435032 
L 220.450441 89.627528 
L 221.09713 89.80971 
L 220.861021 89.897937 
L 220.664611 89.853251 
L 220.475514 89.763305 
L 220.262389 89.714609 
L 220.050308 89.742681 
L 219.851809 89.822314 
L 219.670026 89.942051 
L 219.513316 90.089859 
L 219.410932 89.981581 
L 219.397351 89.990747 
L 219.337801 90.002205 
L 219.233328 89.928301 
L 219.164375 89.897937 
L 219.162286 89.897364 
L 219.162286 89.80971 
L 219.333622 89.737525 
L 219.367053 89.660756 
L 219.367053 89.660183 
L 219.312727 89.573675 
L 219.257357 89.519249 
L 219.206165 89.469407 
L 219.074528 89.408679 
L 218.93349 89.430449 
L 218.79663 89.483156 
L 218.676485 89.512947 
L 218.513507 89.578258 
L 218.351574 89.7444 
L 218.20949 89.96554 
L 218.111285 90.1947 
L 218.077854 89.828043 
L 218.316053 89.467115 
L 218.689022 89.206445 
L 219.074528 89.137123 
L 219.218701 89.161758 
L 219.328398 89.213319 
L 219.513316 89.330191 
" clip-path="url(#p6c452ce268)" style="fill: none; stroke: #000000; stroke-width: 2"/>
    <path d="M 96.055494 23.798516 
L 101.468879 24.750925 
L 102.160147 25.003397 
L 112.078051 30.535958 
L 123.358589 36.839759 
L 135.907558 47.006312 
L 157.276496 63.404634 
L 178.330316 65.234512 
L 180.576605 64.775406 
L 192.151695 66.199654 
L 192.927215 67.474748 
L 193.698755 69.708436 
L 193.871241 70.896583 
L 194.240757 71.63108 
L 195.049448 72.317921 
L 195.156256 72.691536 
L 204.972733 72.593432 
L 205.434504 73.01337 
L 205.816876 73.263155 
L 205.935976 74.34995 
L 205.823145 74.664473 
L 205.465846 74.653015 
L 205.434504 74.7527 
L 205.898365 74.71718 
L 206.058209 74.585413 
L 206.142833 74.36771 
L 206.283872 74.589996 
L 206.064478 75.216178 
L 206.120893 75.71403 
L 206.283872 75.995897 
L 207.421585 77.312999 
L 207.141597 77.846371 
L 207.202191 78.42271 
L 207.989919 79.672782 
L 208.568701 79.880746 
L 209.12032 79.89736 
L 209.577912 80.191832 
L 209.405531 80.391202 
L 209.004354 80.461668 
L 208.946894 80.551614 
L 209.086888 80.935458 
L 209.638507 81.418988 
L 209.881929 81.5794 
L 210.170275 82.001056 
L 210.748012 82.642706 
L 210.618466 83.105038 
L 210.643539 83.442478 
L 210.364596 83.89908 
L 210.190125 84.024546 
L 210.279972 83.85955 
L 210.36564 82.766453 
L 210.175499 82.962386 
L 209.966553 83.486018 
L 209.751338 83.631535 
L 210.01461 82.862701 
L 209.847453 82.616353 
L 209.738801 82.807702 
L 209.430605 84.228499 
L 209.646865 84.149439 
L 209.831782 83.82403 
L 209.882974 84.602031 
L 210.123263 84.462816 
L 210.190125 84.313289 
L 210.294599 84.654738 
L 210.27057 84.889628 
L 210.555782 84.880462 
L 210.715626 84.602031 
L 210.676971 85.208734 
L 210.452353 85.265452 
L 210.627868 85.659035 
L 210.185946 85.508362 
L 210.095055 85.659035 
L 210.595482 85.755856 
L 210.775175 85.622943 
L 210.978898 85.370866 
L 211.066656 85.571381 
L 210.909946 85.726065 
L 210.856665 86.002204 
L 210.928751 86.229073 
L 211.248439 86.132825 
L 211.066656 85.842937 
L 211.304855 85.64013 
L 211.850205 85.548465 
L 212.019452 85.629817 
L 212.477044 86.043453 
L 213.075676 86.44964 
L 212.828074 86.620938 
L 213.173881 86.686822 
L 213.251191 86.58771 
L 213.179104 86.428443 
L 213.618937 86.583126 
L 214.214434 86.590574 
L 214.680385 86.444484 
L 215.529752 86.787079 
L 216.269422 87.966112 
L 216.011373 87.905384 
L 215.912124 87.590288 
L 215.642583 87.90653 
L 214.935299 87.833198 
L 214.589493 88.071526 
L 214.501735 87.829761 
L 214.279207 87.827469 
L 213.792362 88.071526 
L 213.898925 88.131108 
L 214.440096 88.354539 
L 214.912315 88.718905 
L 214.983357 88.695989 
L 215.424234 88.316155 
L 215.641538 88.45537 
L 215.429458 88.74755 
L 215.202751 88.936608 
L 215.122306 89.618361 
L 215.55796 89.398367 
L 215.833769 89.231079 
L 216.269422 89.425866 
L 216.168083 89.699713 
L 216.395835 91.386337 
L 216.613139 91.356546 
L 216.68627 91.70888 
L 216.964169 91.549041 
L 216.899396 91.338213 
L 217.015361 91.203008 
L 217.214905 91.190404 
L 217.400867 91.356546 
L 217.480267 91.251705 
L 217.510564 91.552478 
L 217.246247 92.039445 
L 216.964169 92.021112 
L 217.066553 92.183816 
L 217.377883 92.245117 
L 217.480267 92.414123 
L 217.692348 92.220482 
L 217.839655 91.934031 
L 217.883534 92.00106 
L 217.927412 92.021112 
L 217.79891 92.272616 
L 217.905473 92.314438 
L 218.433063 92.249127 
L 218.986771 92.414123 
L 218.533357 91.822315 
L 218.884387 91.630393 
L 219.350338 91.794243 
L 219.598984 91.549041 
L 219.425558 92.317875 
L 219.642863 92.894788 
L 219.883151 93.005358 
L 220.117171 93.269466 
L 221.23399 94.870727 
L 222.15022 95.499773 
L 222.948396 95.859555 
L 223.446733 96.218765 
L 224.349381 96.277201 
L 224.745335 96.502351 
L 225.11726 96.859842 
L 225.979164 98.104185 
L 227.12628 99.00135 
L 227.170159 99.362278 
L 226.280047 98.6599 
L 225.396203 98.513237 
L 225.27188 98.355117 
L 225.173675 97.836067 
L 225.060844 97.924294 
L 224.88324 98.391209 
L 224.918761 98.890207 
L 225.173675 99.230511 
L 225.139199 100.327045 
L 225.629178 101.625814 
L 226.074234 101.973566 
L 227.175382 102.349389 
L 227.551486 102.680527 
L 227.778193 103.159473 
L 227.872219 103.801696 
L 227.816848 105.668783 
L 227.685212 105.949505 
L 227.433431 106.108199 
L 227.326868 105.817738 
L 227.076133 106.021691 
L 227.158666 106.375745 
L 227.022851 107.472279 
L 226.906886 107.856123 
L 226.707342 107.708315 
L 226.431533 106.796255 
L 226.036624 106.510376 
L 225.935285 105.916277 
L 225.678281 105.623524 
L 225.50799 105.531287 
L 225.361727 105.579411 
L 224.922939 106.309288 
L 224.781901 106.396942 
L 224.983534 106.769901 
L 225.085918 106.941772 
L 225.183078 107.314731 
L 225.004429 107.404104 
L 224.993981 107.716335 
L 225.052486 108.119085 
L 224.963684 108.337361 
L 225.179944 108.411265 
L 225.361727 108.299549 
L 225.453663 108.088149 
L 225.401427 107.856123 
L 225.612463 107.964402 
L 226.066921 108.432463 
L 226.392878 108.510377 
L 226.590332 108.950366 
L 226.731371 109.298118 
L 226.475412 109.562798 
L 226.611227 110.222781 
L 227.170159 111.421865 
L 228.266083 112.875891 
L 228.397719 113.54504 
L 228.317275 113.54504 
L 228.00281 112.767039 
L 227.659093 112.644438 
L 227.33836 112.298405 
L 226.94972 112.116795 
L 226.906886 112.391788 
L 227.000912 112.588294 
L 227.433431 112.968701 
L 227.501339 112.826621 
L 227.608946 112.767039 
L 228.096836 113.780503 
L 229.89691 115.948937 
L 229.851986 115.284371 
L 230.046306 115.252288 
L 230.226 115.678527 
L 230.595836 116.018831 
L 231.145365 116.286376 
L 231.394011 116.91886 
L 231.297896 117.015108 
L 231.628031 117.604624 
L 231.832799 118.321324 
L 231.824441 119.300986 
L 232.140995 119.981021 
L 232.173381 120.196432 
L 232.093982 120.772199 
L 232.309196 121.669936 
L 232.445012 121.838369 
L 232.543216 121.566814 
L 232.875441 121.840661 
L 233.585859 122.724076 
L 233.839729 123.654469 
L 234.417466 124.108207 
L 234.528208 124.646735 
L 234.610742 125.67223 
L 234.994158 126.286381 
L 235.1843 126.28237 
L 235.463243 126.009096 
L 236.402134 127.561308 
L 237.01313 128.25397 
L 237.658623 128.528269 
L 239.155264 128.634497 
L 239.82265 128.407854 
L 240.693135 127.709904 
L 240.72347 127.825195 
L 241.500751 127.808008 
L 241.7191 128.037169 
L 241.863273 127.921443 
L 241.876854 128.030294 
L 241.812081 128.26232 
L 241.656416 128.376327 
L 241.812081 129.240263 
L 242.213258 129.030581 
L 242.746072 128.227373 
L 243.011434 127.95639 
L 243.00412 127.6327 
L 243.429326 127.751864 
L 243.627826 127.79655 
L 243.931843 128.18154 
L 244.131386 128.183832 
L 244.326751 128.410128 
L 243.625736 128.710902 
L 243.479474 128.936052 
L 243.061581 129.558224 
L 243.00412 129.651607 
L 242.092069 130.449086 
L 241.837154 130.943501 
L 241.728502 131.679107 
L 241.505974 131.727231 
L 241.552987 132.256019 
L 242.652046 132.256019 
L 243.229783 131.967277 
L 244.07915 132.144876 
L 245.238803 132.914857 
L 245.314316 133.819271 
L 245.356774 135.087817 
L 245.549161 135.418868 
L 257.936922 151.466131 
L 258.252703 151.571267 
L 290.825887 155.903311 
L 291.679026 154.774826 
L 297.45861 164.653983 
L 297.465244 164.977031 
L 289.002851 192.904674 
L 250.492855 206.981271 
L 213.908061 212.381411 
L 212.142741 213.144648 
L 201.495754 218.90276 
L 193.92365 228.992189 
L 192.458188 233.236195 
L 192.068106 233.78625 
L 188.650244 235.819124 
L 188.232298 235.880969 
L 186.198299 235.686703 
L 183.333716 231.492173 
L 182.857391 231.201866 
L 177.883181 231.924359 
L 166.428831 230.686008 
L 165.842381 230.482284 
L 163.755309 229.202461 
L 163.02689 229.047485 
L 156.08502 229.06422 
L 155.28031 229.384357 
L 154.918754 229.406913 
L 154.037752 229.215558 
L 153.254271 229.183544 
L 152.011714 229.321058 
L 150.781761 229.57935 
L 149.979041 229.379264 
L 149.78997 229.521871 
L 149.407186 230.123584 
L 149.161726 230.243636 
L 148.828033 230.192705 
L 148.1162 229.900216 
L 147.838896 230.055191 
L 147.278983 230.782049 
L 146.82455 230.794418 
L 146.705801 230.683825 
L 146.654719 230.571049 
L 146.611597 230.099574 
L 146.08618 230.205074 
L 145.097707 230.214533 
L 144.608114 230.117036 
L 144.07739 229.674664 
L 143.181793 228.618937 
L 142.636475 228.279155 
L 141.48215 227.793128 
L 140.528837 227.758204 
L 140.248217 227.87098 
L 139.119101 228.616027 
L 138.000601 229.627371 
L 137.347147 230.490287 
L 138.332967 230.947939 
L 138.465648 231.249887 
L 138.419873 231.53219 
L 137.233041 232.126627 
L 136.748755 233.864829 
L 136.972986 234.943839 
L 136.674454 236.345896 
L 137.248299 237.537681 
L 137.856642 237.786515 
L 137.960796 238.121932 
L 137.80954 238.343846 
L 137.576021 238.486453 
L 137.391595 238.778942 
L 137.536217 239.187117 
L 137.617153 239.538541 
L 137.538871 239.8012 
L 137.319947 239.844855 
L 136.483393 239.615665 
L 136.318869 239.689151 
L 135.693942 241.607794 
L 134.855398 242.178222 
L 133.982357 242.593673 
L 134.031449 243.035317 
L 133.921323 243.260869 
L 133.139832 243.706879 
L 132.508015 243.897432 
L 132.510104 242.515019 
L 131.74536 241.454577 
L 131.697303 241.184741 
L 131.709839 240.567725 
L 131.856102 239.709518 
L 131.624171 239.649936 
L 131.709839 239.545095 
L 131.426717 239.175573 
L 131.39642 238.974485 
L 131.536414 238.871935 
L 131.458059 238.731001 
L 130.853159 238.036071 
L 130.464519 237.614988 
L 129.925437 237.36062 
L 129.783353 237.43968 
L 129.34561 236.796884 
L 129.52426 236.176431 
L 129.432323 235.950135 
L 129.376952 235.018024 
L 129.075025 234.68173 
L 128.972641 234.557983 
L 128.13581 234.388977 
L 127.790004 233.56228 
L 127.664636 232.886255 
L 127.547626 232.776831 
L 126.969889 232.510432 
L 127.095257 232.976774 
L 127.320919 233.375514 
L 127.060781 233.54853 
L 127.190328 234.469756 
L 127.050334 234.729854 
L 126.977202 234.437101 
L 126.916608 233.183018 
L 126.744227 232.635324 
L 126.261561 228.692613 
L 125.81546 228.411318 
L 125.73606 228.249759 
L 124.23687 226.96073 
L 124.199259 227.036926 
L 123.719727 226.244029 
L 123.497199 225.851019 
L 123.074083 225.881955 
L 122.952894 225.585192 
L 122.397096 224.977343 
L 122.374112 225.005415 
L 122.125466 225.073591 
L 122.002187 224.944688 
L 121.475642 224.27783 
L 120.715077 223.526755 
L 120.437178 223.647065 
L 119.956602 223.295876 
L 119.664077 223.342854 
L 119.544977 222.973332 
L 118.24742 221.554254 
L 118.184736 221.138327 
L 118.201451 220.869063 
L 117.943403 220.783701 
L 117.911016 220.450272 
L 117.17239 219.649355 
L 117.288355 219.384674 
L 116.695992 218.545372 
L 116.755542 218.326524 
L 116.245713 218.230276 
L 116.282278 218.169549 
L 116.325112 217.869348 
L 116.063929 217.785704 
L 115.886325 217.846432 
L 115.968859 217.714092 
L 116.044079 217.454567 
L 115.974082 217.356601 
L 115.978261 217.071296 
L 115.614694 217.068431 
L 115.612605 216.607245 
L 115.197846 215.218531 
L 115.111133 214.321939 
L 114.866666 214.100799 
L 114.835324 213.878513 
L 114.300421 213.455138 
L 114.216843 213.13374 
L 114.119683 212.98765 
L 113.688208 212.753906 
L 113.504335 212.925777 
L 113.088532 212.663961 
L 112.985103 212.533339 
L 112.496169 211.519302 
L 112.251701 211.172697 
L 112.276775 210.706927 
L 112.750039 209.254621 
L 112.574524 209.044366 
L 112.276775 208.862756 
L 111.751275 208.726978 
L 111.61128 208.202773 
L 111.295771 207.667109 
L 111.455615 207.082176 
L 111.565312 206.865619 
L 111.655159 206.315061 
L 111.819182 205.971319 
L 111.707396 205.76221 
L 111.217416 205.488936 
L 110.433867 205.154361 
L 110.075524 204.179282 
L 110.163282 203.717523 
L 110.017019 203.195036 
L 109.726584 202.93723 
L 109.531219 202.485784 
L 108.986913 202.085898 
L 109.026613 201.87106 
L 108.847964 200.715516 
L 109.029747 200.499532 
L 108.938855 200.386098 
L 108.943034 200.087616 
L 108.84274 199.800019 
L 107.440709 199.22368 
L 106.477466 198.261777 
L 106.616416 198.281829 
L 106.914164 198.454272 
L 106.993564 197.87736 
L 106.868196 196.866188 
L 106.277922 195.979909 
L 106.028231 195.807465 
L 105.112001 195.735852 
L 104.996036 195.871057 
L 105.144388 196.226256 
L 104.952157 196.061261 
L 103.961751 194.446823 
L 103.481174 194.102509 
L 103.493711 194.001105 
L 103.6546 193.629865 
L 103.424759 193.227687 
L 102.435397 192.703482 
L 102.204511 192.468019 
L 102.087501 192.40099 
L 101.664385 191.881368 
L 100.739797 191.562834 
L 100.153702 191.075867 
L 99.695065 190.53734 
L 99.780733 190.333386 
L 99.563428 190.178703 
L 98.75585 189.948396 
L 98.199008 189.297007 
L 97.583661 188.80603 
L 96.976671 188.869049 
L 96.61206 189.085606 
L 96.304908 188.967015 
L 95.471212 188.5001 
L 95.562104 188.77853 
L 96.036412 189.149198 
L 95.953878 189.19102 
L 95.729261 189.129146 
L 93.635618 187.900845 
L 93.215635 187.251747 
L 92.177171 186.341405 
L 91.161692 184.742436 
L 91.290194 184.751029 
L 91.465709 184.67025 
L 91.512722 184.550514 
L 91.152289 184.416455 
L 90.770962 183.966154 
L 90.635147 183.396689 
L 90.205762 182.896546 
L 90.167106 182.662229 
L 90.373963 182.331091 
L 89.751303 182.14719 
L 89.92055 182.392965 
L 90.012486 182.435932 
L 89.478628 182.18672 
L 89.310426 181.974746 
L 89.400273 181.753606 
L 89.227892 181.608089 
L 89.312516 181.377782 
L 89.467136 181.565694 
L 89.751303 181.657359 
L 89.491165 181.213932 
L 89.400273 181.177267 
L 89.157895 180.916596 
L 89.137 181.177267 
L 88.495535 180.694883 
L 88.231218 180.345413 
L 88.253157 180.023442 
L 88.306438 180.095628 
L 88.49449 180.214791 
L 88.478819 179.952402 
L 88.086 179.720377 
L 87.692136 179.830947 
L 87.689002 179.774803 
L 87.246035 178.999093 
L 87.160367 178.296715 
L 86.946197 178.043493 
L 86.882468 177.814332 
L 86.79889 177.785114 
L 86.115635 177.22768 
L 85.915046 176.330516 
L 86.062354 176.064689 
L 85.973551 175.861882 
L 84.914193 174.325359 
L 85.930717 173.412726 
L 86.073846 173.070703 
L 86.090561 172.621548 
L 85.992356 172.214788 
L 85.799081 171.922608 
L 85.936986 171.798861 
L 85.91818 171.610949 
L 85.710279 171.144607 
L 85.415664 171.482619 
L 85.177465 171.039193 
L 85.272536 170.952112 
L 85.062545 170.642745 
L 84.896432 168.815187 
L 85.206718 168.643317 
L 85.27776 168.231973 
L 85.177465 168.060103 
L 84.914193 168.54134 
L 84.69271 168.481758 
L 84.651965 168.251452 
L 84.35735 167.833806 
L 84.275861 167.476315 
L 84.063781 167.232832 
L 83.230644 165.780328 
L 83.013126 164.326316 
L 83.353192 164.195979 
L 83.700698 164.649406 
L 83.950766 164.652697 
L 84.090944 163.863023 
L 84.300935 163.664226 
L 84.47645 162.553941 
L 84.396006 162.553941 
L 84.213177 163.035179 
L 84.169299 162.674824 
L 84.300935 162.318479 
L 84.396006 161.36116 
L 84.818077 160.863308 
L 85.040605 160.127702 
L 85.272536 159.862448 
L 85.668489 159.240849 
L 85.710279 159.003668 
L 85.515959 158.750445 
L 85.35298 158.787111 
L 85.266268 158.923462 
L 85.094696 159.468881 
L 84.779611 159.530206 
L 84.766392 159.126658 
L 84.931284 158.538195 
L 84.83049 157.768212 
L 84.924176 156.982289 
L 84.72823 156.408422 
L 84.373021 155.913434 
L 83.727377 154.312746 
L 84.044976 153.884788 
L 83.177848 152.977885 
L 83.113074 153.124548 
L 83.466194 153.642451 
L 83.503804 154.164938 
L 82.977149 153.205774 
L 82.627274 152.809451 
L 81.967122 151.399953 
L 82.34238 151.60807 
L 82.75891 152.544771 
L 83.24889 152.685705 
L 83.424405 152.425607 
L 82.627274 151.315323 
L 82.515488 151.091891 
L 81.750744 150.791118 
L 81.492695 150.844398 
L 81.304643 150.61982 
L 81.04137 150.02171 
L 81.293151 149.691146 
L 81.3924 149.288396 
L 81.288972 148.494926 
L 81.138891 148.425172 
L 81.022832 148.640108 
L 80.401994 147.556513 
L 80.173198 147.282093 
L 79.143718 143.7016 
L 79.113839 143.450524 
L 78.803554 143.063243 
L 78.744865 142.600557 
L 78.458792 142.764188 
L 78.227906 142.68169 
L 78.240443 142.917726 
L 78.361632 143.041472 
L 78.684454 143.259175 
L 78.255069 143.218499 
L 77.973182 142.952592 
L 77.962377 142.267991 
L 77.392725 141.525065 
L 76.650361 139.308443 
L 76.048317 138.997817 
L 75.885992 138.548876 
L 75.730234 138.345698 
L 75.011176 138.022851 
L 74.677408 137.538203 
L 74.363762 137.298586 
L 73.585485 136.984903 
L 73.166453 136.621291 
L 72.659858 136.107322 
L 71.847252 135.451521 
L 71.627061 135.572825 
L 70.209681 134.564482 
L 70.284178 134.396322 
L 70.50623 134.239684 
L 70.822697 134.189158 
L 70.696727 134.061808 
L 70.26372 134.248616 
L 70.169615 134.068829 
L 70.371805 133.606507 
L 70.23499 133.552957 
L 69.991158 133.89908 
L 70.063135 134.331604 
L 69.989025 134.415433 
L 69.705025 134.308214 
L 69.315068 134.411283 
L 68.056393 133.404517 
L 67.941785 133.119848 
L 66.881774 132.421157 
L 66.43079 132.414713 
L 66.238559 132.559085 
L 66.196809 132.744965 
L 66.269462 133.029339 
L 65.722334 133.048746 
L 65.586237 132.837904 
L 65.20794 132.658043 
L 64.912853 132.752086 
L 64.45108 132.14081 
L 64.167512 131.740379 
L 63.714882 131.350102 
L 63.567954 130.876195 
L 63.789889 130.62405 
L 64.042897 130.79306 
L 64.148855 130.572352 
L 64.064908 130.309028 
L 61.136087 126.135134 
L 61.023256 125.218491 
L 60.722373 125.404111 
L 60.330598 125.039746 
L 60.11016 124.539602 
L 61.336676 124.491479 
L 61.49652 124.25487 
L 61.515325 123.543326 
L 61.796358 122.947508 
L 61.758747 122.63012 
L 61.430701 121.702019 
L 61.489206 120.553923 
L 61.311602 119.974146 
L 60.919827 119.425306 
L 59.775846 118.224504 
L 59.370489 117.452232 
L 59.227361 116.886205 
L 58.970357 116.53387 
L 59.196019 116.372884 
L 59.006923 116.054351 
L 58.338294 115.29812 
L 58.064574 114.600326 
L 57.804436 114.329916 
L 57.778318 114.074402 
L 57.22043 113.223069 
L 56.682393 112.968701 
L 55.8581 111.77019 
L 55.579156 111.748992 
L 55.554083 111.90654 
L 55.685719 112.209033 
L 55.535277 112.296114 
L 55.372299 112.247417 
L 54.380848 111.46025 
L 54.284733 111.240255 
L 54.272196 110.855838 
L 54.038176 110.748705 
L 53.881466 110.394652 
L 53.864751 110.06466 
L 53.986984 109.750137 
L 54.425772 109.154319 
L 54.422638 108.371735 
L 54.300404 108.048618 
L 53.996387 107.725502 
L 53.139706 107.401239 
L 52.7145 107.366865 
L 52.253773 107.201869 
L 51.946622 106.799692 
L 50.837116 104.394649 
L 50.279229 103.652168 
L 49.330613 101.347384 
L 48.315133 99.554773 
L 47.70292 98.784793 
L 46.618488 97.746695 
L 46.41581 97.137127 
L 46.029259 96.469696 
L 45.775389 95.594875 
L 45.543458 95.657894 
L 45.367943 95.500346 
L 45.066016 95.018535 
L 44.233364 94.288658 
L 43.204303 92.977285 
L 42.779097 92.030278 
L 42.899241 91.423575 
L 42.59209 90.966972 
L 41.512881 89.710025 
L 40.748137 89.165196 
L 39.710718 87.867573 
L 39.080745 86.620938 
L 38.842546 85.378886 
L 38.185409 84.56422 
L 37.855274 83.703721 
L 37.468723 83.263732 
L 37.037248 82.999051 
L 36.670547 81.944912 
L 35.479553 80.643278 
L 34.856892 80.162041 
L 34.856892 80.258861 
L 34.769135 80.258861 
L 34.627051 80.071522 
L 35.082554 79.805696 
L 35.304038 79.672782 
L 35.439853 79.736375 
L 35.426271 79.657314 
L 35.226727 79.406383 
L 33.943796 79.09186 
L 33.793355 78.939468 
L 33.193678 78.519531 
L 32.91578 78.605466 
L 32.779964 78.605466 
L 32.815485 78.684526 
L 32.922048 78.8077 
L 32.792501 78.74239 
L 32.499976 78.595154 
L 31.254655 79.044882 
L 30.732289 79.000768 
L 30.555729 79.200711 
L 30.510806 79.12738 
L 30.458569 79.000195 
L 30.555729 79.000195 
L 30.555729 78.894781 
L 30.5714 78.717182 
L 30.809599 78.615205 
L 30.687366 78.563644 
L 30.285144 78.615205 
L 30.237086 78.854678 
L 29.853669 79.096443 
L 30.080376 78.859834 
L 30.195297 78.694839 
L 30.204699 78.615205 
L 29.878743 78.639267 
L 29.584128 78.894781 
L 29.578905 78.849522 
L 29.584128 78.712026 
L 29.509953 78.8077 
L 29.407569 78.8077 
L 29.220562 78.632392 
L 29.145341 78.712026 
L 28.872666 78.406096 
L 28.794311 78.230788 
L 28.707598 78.302401 
L 28.611483 78.42271 
L 28.398357 78.361983 
L 28.349255 78.615205 
L 27.99718 78.894781 
L 28.268811 79.200711 
L 27.99718 79.200711 
L 27.841515 79.734656 
L 27.559437 79.777623 
L 27.654508 79.672782 
L 27.503022 79.374873 
L 27.377654 78.749264 
L 27.06319 78.87874 
L 27.35258 78.247402 
L 27.660776 77.987305 
L 27.734952 77.942618 
L 27.692118 77.771894 
L 27.909423 77.653876 
L 27.949123 77.806268 
L 28.132995 77.801684 
L 28.101653 77.557628 
L 28.028522 77.374872 
L 28.268811 77.16519 
L 28.224932 77.042016 
L 28.349255 76.39521 
L 28.398357 76.423282 
L 28.531038 76.491458 
L 28.52477 76.446771 
L 28.531038 76.298963 
L 28.424476 76.378023 
L 28.349255 76.299535 
L 28.607304 76.057771 
L 29.066986 75.083837 
L 29.202801 74.422136 
L 29.453537 74.056051 
L 29.639499 73.397787 
L 30.007927 72.781254 
L 29.683068 70.847172 
L 30.0856 69.531271 
L 30.285144 69.071804 
L 30.204699 69.071804 
L 30.45439 68.537286 
L 30.380214 68.293803 
L 30.498269 67.67736 
L 30.285144 67.526114 
L 30.47424 67.215601 
L 30.778257 66.035423 
L 30.634084 65.488875 
L 30.903625 64.922848 
L 31.363308 62.875869 
L 31.78329 62.596865 
L 31.662101 62.05089 
L 31.710159 61.845218 
L 31.8606 61.923706 
L 31.894031 61.818865 
L 31.956715 61.827458 
L 31.825079 61.380022 
L 31.877226 61.171844 
L 45.927288 63.435921 
L 46.256337 63.307138 
L 51.489275 59.159537 
L 54.720057 54.106091 
L 55.072989 53.937291 
L 64.238592 52.12051 
L 64.514568 51.886228 
L 66.515398 47.385384 
L 66.812603 47.149646 
L 70.797013 45.011272 
L 62.694185 36.158739 
L 57.682824 31.051088 
L 81.948851 24.358757 
L 83.852823 23.786874 
L 85.793946 22.210197 
L 85.902745 22.176 
L 96.055494 23.798516 
L 96.055494 23.798516 
" clip-path="url(#p6c452ce268)" style="fill: none; stroke: #000000; stroke-width: 2"/>
   </g>
  </g>
 </g>
 <defs>
  <clipPath id="p6c452ce268">
   <rect x="0" y="-0" width="324.507539" height="266.112"/>
  </clipPath>
 </defs>
</svg>
