<?xml version="1.0" encoding="utf-8" standalone="no"?>
<!DOCTYPE svg PUBLIC "-//W3C//DTD SVG 1.1//EN"
  "http://www.w3.org/Graphics/SVG/1.1/DTD/svg11.dtd">
<svg xmlns:xlink="http://www.w3.org/1999/xlink" width="318.01389pt" height="266.112pt" viewBox="0 0 318.01389 266.112" xmlns="http://www.w3.org/2000/svg" version="1.1">
 <metadata>
  <rdf:RDF xmlns:dc="http://purl.org/dc/elements/1.1/" xmlns:cc="http://creativecommons.org/ns#" xmlns:rdf="http://www.w3.org/1999/02/22-rdf-syntax-ns#">
   <cc:Work>
    <dc:type rdf:resource="http://purl.org/dc/dcmitype/StillImage"/>
    <dc:date>2024-02-02T21:58:04.929097</dc:date>
    <dc:format>image/svg+xml</dc:format>
    <dc:creator>
     <cc:Agent>
      <dc:title>Matplotlib v3.8.2, https://matplotlib.org/</dc:title>
     </cc:Agent>
    </dc:creator>
   </cc:Work>
  </rdf:RDF>
 </metadata>
 <defs>
  <style type="text/css">*{stroke-linejoin: round; stroke-linecap: butt}</style>
 </defs>
 <g id="figure_1">
  <g id="patch_1">
   <path d="M 0 266.112 
L 318.01389 266.112 
L 318.01389 0 
L 0 0 
L 0 266.112 
z
" style="fill: none"/>
  </g>
  <g id="axes_1">
   <g id="PatchCollection_1">
    <path d="M 270.37803 46.356657 
L 270.218795 46.359321 
L 270.05699 45.985602 
L 270.045433 45.472654 
L 270.045433 45.471988 
L 270.162292 44.970365 
L 270.390872 44.636615 
L 270.55396 44.751196 
L 270.609179 44.7905 
L 270.678524 45.001675 
L 270.493605 46.092855 
L 270.37803 46.356657 
" clip-path="url(#pe58363b0bc)" style="fill: none; stroke: #000000; stroke-width: 2"/>
    <path d="M 178.90146 24.51443 
L 178.397517 25.967912 
L 264.368163 25.961976 
L 264.211495 26.316377 
L 263.681137 26.446279 
L 264.208927 26.93791 
L 264.2192 28.916424 
L 264.576196 31.165401 
L 264.434939 31.619726 
L 264.658383 31.768281 
L 264.817619 32.340518 
L 265.106554 32.670937 
L 265.952816 34.63746 
L 267.997198 37.711151 
L 269.344282 38.954217 
L 271.14339 41.319107 
L 271.000848 41.921322 
L 270.801803 42.056553 
L 270.498741 41.933313 
L 270.18027 42.164472 
L 269.895186 41.93198 
L 269.191467 40.671594 
L 269.301904 40.591654 
L 269.620376 40.78351 
L 269.787317 41.089946 
L 270.36262 41.44901 
L 270.498741 41.375065 
L 270.465353 41.239167 
L 270.076253 40.805493 
L 269.658901 39.942808 
L 269.409774 40.022748 
L 268.968023 39.697659 
L 268.839607 39.870196 
L 268.716328 39.840218 
L 268.549387 39.4645 
L 268.721464 38.883603 
L 268.549387 38.682421 
L 268.120478 38.591823 
L 267.861077 38.866283 
L 267.75706 39.301956 
L 267.873919 39.78959 
L 268.107636 39.910832 
L 267.999766 40.245913 
L 268.063974 40.853457 
L 267.841815 41.193868 
L 267.572141 41.328434 
L 267.649191 41.745454 
L 268.107636 42.268394 
L 268.52884 43.231671 
L 268.729169 44.256901 
L 268.872995 46.415279 
L 269.101576 47.430517 
L 269.802727 49.385049 
L 269.79759 50.710053 
L 269.561305 51.125741 
L 269.081029 51.057792 
L 269.027094 51.268967 
L 269.086166 51.755268 
L 268.968023 52.918395 
L 269.086166 53.823048 
L 269.585126 55.358971 
L 269.753083 56.678271 
L 269.183762 58.419596 
L 269.299336 58.976511 
L 270.298413 61.570562 
L 270.390872 62.124813 
L 270.360052 63.485124 
L 269.964531 64.279194 
L 270.137893 65.866669 
L 270.390872 66.291017 
L 270.71448 67.225648 
L 271.339866 70.703702 
L 271.524785 72.588953 
L 271.898476 73.015299 
L 271.809869 73.343053 
L 272.193746 73.872337 
L 272.711349 75.739253 
L 272.925803 76.423406 
L 273.058072 77.270769 
L 273.607837 78.192445 
L 273.972497 78.813173 
L 274.579801 79.478444 
L 274.899557 79.755569 
L 275.384969 79.621004 
L 276.327251 79.480574 
L 276.851336 79.247942 
L 276.924649 79.550019 
L 277.569325 79.79021 
L 277.892934 79.768227 
L 278.284892 80.45386 
L 278.16646 81.08657 
L 278.593964 80.898094 
L 279.029415 81.299743 
L 280.808582 81.800451 
L 281.462361 82.423886 
L 281.903365 83.159679 
L 283.02108 84.11432 
L 283.708053 84.380928 
L 283.906983 84.61217 
L 283.708433 84.896661 
L 283.29314 85.110224 
L 283.185244 85.679304 
L 283.619265 86.603598 
L 284.37748 87.29664 
L 285.225533 87.492059 
L 285.856986 87.38546 
L 285.947355 86.781034 
L 286.264371 86.686363 
L 286.815276 86.359942 
L 286.912872 86.533145 
L 286.55716 86.790952 
L 286.370956 87.040764 
L 286.342705 87.416482 
L 286.157786 87.600344 
L 285.412973 87.814183 
L 286.168059 87.71226 
L 286.518635 87.837499 
L 286.815276 88.037349 
L 287.920937 88.25785 
L 288.107141 88.052004 
L 287.911948 87.934759 
L 288.161075 87.708262 
L 288.471842 88.024025 
L 288.977801 88.82942 
L 288.830122 89.049255 
L 289.092091 89.211134 
L 289.488896 89.241111 
L 289.74316 89.063245 
L 289.910101 89.315056 
L 290.066768 90.171745 
L 290.378819 90.221042 
L 290.531634 89.972562 
L 290.505951 89.598842 
L 290.282507 89.277084 
L 290.549612 89.440295 
L 291.311119 90.367598 
L 291.34836 90.785951 
L 291.476776 91.299565 
L 289.231506 93.167322 
L 288.794429 93.801845 
L 287.843625 96.309482 
L 287.408179 97.011688 
L 287.088526 97.257883 
L 286.033345 97.885638 
L 285.973002 98.555695 
L 285.93223 98.879725 
L 285.666396 99.143686 
L 285.292924 99.199524 
L 284.518254 98.625915 
L 283.797404 98.964328 
L 283.852854 99.352656 
L 283.688135 99.665688 
L 283.427194 99.891578 
L 283.190716 99.894116 
L 283.123849 99.213061 
L 283.107541 98.940639 
L 282.95913 98.777355 
L 282.597074 98.775663 
L 282.211713 98.920329 
L 281.145588 99.634384 
L 280.341563 100.50495 
L 279.964829 100.591246 
L 279.604404 100.481262 
L 279.131448 100.027789 
L 278.810164 99.938956 
L 278.258926 100.23422 
L 277.572324 101.466042 
L 276.928125 101.800224 
L 276.29045 101.889057 
L 274.031677 102.639487 
L 273.992536 102.82646 
L 274.183349 103.873847 
L 274.010476 104.891622 
L 273.664728 105.507533 
L 273.459237 106.199586 
L 272.570406 107.260509 
L 271.092826 106.844262 
L 270.63781 106.88318 
L 269.887603 107.346805 
L 268.162129 107.455097 
L 267.389091 107.021083 
L 266.700858 106.836648 
L 266.211593 106.561688 
L 265.785933 106.726664 
L 265.787564 107.010084 
L 266.100693 107.444944 
L 266.157774 107.757976 
L 266.084384 108.074391 
L 265.701127 108.624312 
L 265.919665 108.961878 
L 266.095801 109.372203 
L 266.087646 110.092176 
L 266.170821 110.402669 
L 266.027304 110.606563 
L 265.966961 111.586267 
L 265.409199 112.795245 
L 264.649207 113.386621 
L 264.479596 113.985611 
L 264.461656 114.835873 
L 264.256165 115.714053 
L 264.363803 116.093075 
L 265.158043 117.277519 
L 265.15315 118.55418 
L 265.482589 119.566033 
L 265.321131 119.98228 
L 264.660624 120.667565 
L 264.404575 121.095657 
L 262.410005 126.782679 
L 261.985976 127.482347 
L 261.012339 128.654946 
L 260.156125 131.791606 
L 260.115353 132.48366 
L 260.33226 133.198133 
L 259.81527 133.546698 
L 259.507034 134.052625 
L 258.707901 136.435049 
L 258.420866 136.886406 
L 257.259677 138.023895 
L 257.132468 138.309008 
L 257.109636 138.668148 
L 258.730733 152.551096 
L 257.243368 157.357823 
L 257.336328 158.175935 
L 257.610317 158.993624 
L 257.654351 159.810044 
L 256.654619 162.498308 
L 256.599169 163.424712 
L 256.454021 163.888337 
L 254.110442 167.316456 
L 252.608399 173.019129 
L 252.789427 173.560589 
L 252.244712 174.682426 
L 252.681789 175.579219 
L 252.68505 175.978546 
L 252.239819 178.119005 
L 251.993556 178.219682 
L 250.897603 177.867733 
L 245.712285 178.71475 
L 245.442299 178.954883 
L 245.098183 179.889748 
L 244.378963 180.192627 
L 241.242776 185.69606 
L 241.154708 186.35681 
L 240.84484 186.715527 
L 240.34579 187.032789 
L 240.226735 187.21807 
L 239.946224 187.933812 
L 239.652665 189.220626 
L 239.344428 189.582727 
L 238.612161 190.071733 
L 238.55508 190.597118 
L 238.522463 190.757018 
L 238.046245 191.301862 
L 236.643686 191.852629 
L 236.033735 192.257878 
L 235.577088 192.950777 
L 235.294946 193.74097 
L 235.28516 194.071768 
L 235.404215 194.691909 
L 235.374859 195.36112 
L 235.8576 196.670776 
L 235.798888 196.993114 
L 233.765177 201.834528 
L 233.91848 202.278694 
L 234.394698 202.928869 
L 234.334355 203.438603 
L 233.280805 206.750392 
L 233.432477 206.964015 
L 233.900541 207.315964 
L 233.986977 207.561736 
L 233.866292 208.122231 
L 233.600458 208.513098 
L 232.460471 209.458114 
L 232.096784 210.414976 
L 231.271557 210.581221 
L 230.933965 211.215321 
L 230.769245 211.151869 
L 230.710534 210.172588 
L 228.128846 207.956832 
L 227.934771 207.877305 
L 227.667306 207.981367 
L 225.493339 209.568945 
L 225.243814 209.912433 
L 224.633864 211.124796 
L 223.275338 213.093933 
L 223.153022 213.673888 
L 223.22315 214.351136 
L 223.991296 217.95396 
L 224.007605 218.692122 
L 223.823315 219.479777 
L 223.627609 219.728087 
L 223.653703 220.493322 
L 223.29654 221.040704 
L 222.366936 221.926076 
L 220.41477 227.595754 
L 219.920612 230.02767 
L 219.980672 231.281487 
L 217.205192 231.201539 
L 217.10897 231.015835 
L 216.993993 230.550941 
L 216.935281 229.827161 
L 217.033134 228.575881 
L 217.364203 227.088558 
L 218.443032 224.615186 
L 218.172306 223.432857 
L 218.365565 222.011525 
L 218.262004 221.30382 
L 217.555016 219.495005 
L 217.320169 219.208201 
L 210.485954 213.447574 
L 209.10215 211.779624 
L 208.933354 211.695867 
L 205.294854 210.252961 
L 205.424509 209.810909 
L 205.899911 208.853202 
L 205.958623 208.546939 
L 204.398684 196.171195 
L 204.735461 195.656808 
L 205.121165 194.921607 
L 205.174984 194.746055 
L 205.389445 192.577677 
L 205.373136 190.678337 
L 206.288877 187.511643 
L 206.38673 186.164761 
L 198.806386 186.13938 
L 198.75746 187.442268 
L 199.070589 188.771806 
L 199.112177 189.169864 
L 199.087713 189.564114 
L 188.602767 189.611915 
L 192.802291 194.468557 
L 192.905036 194.916954 
L 192.983319 196.591672 
L 192.760703 199.241442 
L 192.808814 200.944926 
L 193.051816 202.051112 
L 194.175494 204.228373 
L 194.102104 204.634891 
L 193.839532 205.148009 
L 186.198846 211.924718 
L 185.162419 214.622712 
L 184.180628 216.192523 
L 183.742736 216.642188 
L 182.016446 218.84483 
L 175.231158 225.752252 
L 174.119711 226.215877 
L 168.445869 226.626202 
L 168.03978 226.938388 
L 167.56927 226.678233 
L 163.392579 222.810178 
L 155.95086 217.923925 
L 155.238164 218.368515 
L 150.157964 221.014477 
L 149.677669 221.400268 
L 149.653205 223.752657 
L 148.918493 224.949368 
L 147.589323 226.253948 
L 143.948377 227.080944 
L 142.053291 227.792033 
L 139.800226 229.112265 
L 138.606603 230.062794 
L 137.588771 231.096339 
L 137.263931 231.725454 
L 137.307243 233.006151 
L 137.502147 233.410582 
L 137.48178 233.4104 
L 124.898361 233.29824 
L 124.140402 232.421973 
L 122.530807 228.976054 
L 122.109223 229.088999 
L 120.550915 229.174025 
L 118.441368 228.878337 
L 118.021415 228.979861 
L 116.739541 228.813193 
L 114.48403 228.822499 
L 113.759918 228.691364 
L 109.675372 228.789081 
L 103.414412 230.930809 
L 102.501118 230.854666 
L 102.10889 230.669385 
L 101.414134 230.203222 
L 95.458965 223.023801 
L 94.241512 222.546018 
L 93.832975 222.062287 
L 92.596766 220.183675 
L 91.928104 219.947209 
L 91.093092 219.314801 
L 91.063736 219.224275 
L 90.916956 216.524167 
L 90.836228 216.387956 
L 90.09173 215.467051 
L 89.920487 215.483549 
L 88.617411 215.895143 
L 87.642959 215.956057 
L 86.004737 216.207751 
L 84.413811 216.723407 
L 83.409187 216.752595 
L 81.928345 217.184494 
L 80.816083 217.09693 
L 80.407547 217.103275 
L 80.160468 217.17688 
L 79.885664 217.155306 
L 79.323009 217.338472 
L 78.749754 217.34101 
L 78.061522 217.655734 
L 77.904957 217.851167 
L 77.062606 219.911676 
L 77.285221 220.941719 
L 76.610036 222.588095 
L 76.340125 223.073294 
L 75.694295 223.904097 
L 75.487988 224.141409 
L 73.63449 225.317815 
L 73.575778 225.653266 
L 73.573332 230.204068 
L 73.458354 230.57886 
L 71.800562 232.61145 
L 71.418935 235.984999 
L 69.878566 238.83274 
L 69.790499 240.68724 
L 69.633934 240.776074 
L 68.86008 241.042996 
L 67.065293 241.274386 
L 63.859793 243.474067 
L 63.755256 243.810174 
L 62.866585 243.936 
L 61.219393 243.653849 
L 60.469187 243.684306 
L 59.841297 243.415268 
L 58.963882 243.507908 
L 57.965782 243.273135 
L 57.421067 243.287517 
L 56.66923 243.602664 
L 56.162025 243.46053 
L 55.45096 243.387349 
L 54.966588 243.107735 
L 54.408826 243.136501 
L 53.5836 243.611124 
L 53.260685 243.459684 
L 53.020945 243.101813 
L 52.890474 242.663569 
L 52.898629 242.270165 
L 53.105751 241.843765 
L 54.023938 240.636901 
L 54.242476 239.136042 
L 54.126684 238.781978 
L 53.849433 238.768442 
L 53.263946 239.361086 
L 52.831763 239.39662 
L 52.410995 239.146618 
L 52.203873 238.813281 
L 52.1631 238.413955 
L 52.590971 236.207194 
L 52.77142 235.929584 
L 53.01116 235.831021 
L 53.776044 235.807332 
L 53.958703 235.691003 
L 55.263409 234.179568 
L 55.240577 233.940565 
L 55.100321 233.14741 
L 55.48684 231.765419 
L 55.307443 231.595789 
L 55.190019 231.600865 
L 55.026931 231.239187 
L 55.015515 230.514138 
L 54.852426 229.929531 
L 55.048132 229.456176 
L 55.845634 228.049227 
L 55.923917 227.421894 
L 55.462377 224.594035 
L 55.134569 223.862218 
L 49.883126 215.153173 
L 47.014403 212.291896 
L 45.375366 211.107875 
L 43.12964 207.75167 
L 43.095391 207.304119 
L 43.81298 204.836246 
L 44.106539 204.376851 
L 44.166881 203.722446 
L 44.600696 202.562114 
L 44.556662 201.872176 
L 44.157096 200.657275 
L 43.94345 199.495674 
L 43.716758 199.296857 
L 43.346547 199.287128 
L 41.687939 199.379768 
L 41.639013 198.738899 
L 41.232923 198.349725 
L 39.419381 197.63356 
L 38.855096 197.079832 
L 38.372354 196.38651 
L 38.055963 195.617467 
L 37.982573 194.833197 
L 38.86325 189.790005 
L 39.189427 188.671551 
L 39.091574 188.336523 
L 38.957841 188.573412 
L 38.747457 188.440585 
L 38.130984 188.553953 
L 36.736579 189.110642 
L 37.14593 186.911807 
L 37.105158 186.716373 
L 35.945601 183.064057 
L 35.3911 182.026823 
L 35.754787 181.487055 
L 36.540873 179.604635 
L 36.33212 179.395666 
L 34.717546 178.779755 
L 32.740916 177.438796 
L 32.289161 178.124081 
L 31.781956 178.619009 
L 31.17853 178.960806 
L 29.818373 179.271299 
L 29.14808 179.264531 
L 28.497358 179.138472 
L 27.942858 178.86182 
L 27.616681 178.536944 
L 26.996946 177.347424 
L 26.501157 176.615184 
L 27.187759 174.780566 
L 28.484311 172.268699 
L 28.940958 171.626984 
L 29.761292 170.941276 
L 31.716721 170.069018 
L 33.730862 167.759776 
L 33.862963 167.076183 
L 33.673781 166.701814 
L 32.910527 165.624393 
L 32.840399 165.310093 
L 32.830614 164.368037 
L 32.599029 163.733936 
L 31.592774 162.781305 
L 31.312262 162.147205 
L 31.28943 161.288483 
L 30.690896 160.461911 
L 31.075784 159.821888 
L 32.895849 157.575676 
L 33.350866 157.26772 
L 36.160877 155.84808 
L 37.105158 155.088344 
L 37.894506 154.8578 
L 38.129353 154.578187 
L 38.150554 154.098064 
L 37.901029 153.253302 
L 37.620517 153.076059 
L 36.467483 152.774872 
L 36.134783 152.179266 
L 36.105427 151.856505 
L 36.31418 151.508363 
L 36.607739 151.32562 
L 36.566967 151.108613 
L 36.436496 150.923755 
L 36.090749 148.939812 
L 35.604746 148.572635 
L 35.244321 147.966876 
L 35.541142 147.384384 
L 36.178817 146.893686 
L 36.852371 146.562888 
L 40.184265 145.585722 
L 40.233192 145.211776 
L 39.907015 144.402124 
L 39.778175 143.081469 
L 39.905384 142.828083 
L 40.795846 142.14026 
L 40.900223 141.563266 
L 41.167688 140.824258 
L 42.901316 139.061129 
L 43.918987 138.50148 
L 44.745845 136.82803 
L 44.915457 134.376655 
L 44.758892 133.866075 
L 43.817873 132.612257 
L 43.70208 132.141017 
L 43.816242 131.630014 
L 44.114693 131.261145 
L 45.359057 130.483642 
L 46.368573 129.251398 
L 46.781187 128.963747 
L 47.919543 128.821614 
L 50.346297 129.339385 
L 51.53358 129.224325 
L 53.604801 128.457821 
L 54.640412 128.231084 
L 56.452323 128.233622 
L 58.370241 128.525503 
L 60.208246 129.160872 
L 60.635537 129.179485 
L 60.821458 128.674332 
L 60.772532 58.710164 
L 76.539908 58.601449 
L 76.551324 25.967912 
L 175.445619 25.983986 
L 175.654372 25.863004 
L 177.198818 22.812215 
L 177.901729 22.228454 
L 178.508417 22.221686 
L 178.798714 22.363819 
L 179.146092 22.692079 
L 179.286348 23.055872 
L 179.266778 23.465352 
L 178.90146 24.51443 
L 178.90146 24.51443 
" clip-path="url(#pe58363b0bc)" style="fill: none; stroke: #000000; stroke-width: 2"/>
   </g>
  </g>
 </g>
 <defs>
  <clipPath id="pe58363b0bc">
   <rect x="0" y="-0" width="318.01389" height="266.112"/>
  </clipPath>
 </defs>
</svg>
