<?xml version="1.0" encoding="utf-8" standalone="no"?>
<!DOCTYPE svg PUBLIC "-//W3C//DTD SVG 1.1//EN"
  "http://www.w3.org/Graphics/SVG/1.1/DTD/svg11.dtd">
<svg xmlns:xlink="http://www.w3.org/1999/xlink" width="357.12pt" height="262.698755pt" viewBox="0 0 357.12 262.698755" xmlns="http://www.w3.org/2000/svg" version="1.1">
 <metadata>
  <rdf:RDF xmlns:dc="http://purl.org/dc/elements/1.1/" xmlns:cc="http://creativecommons.org/ns#" xmlns:rdf="http://www.w3.org/1999/02/22-rdf-syntax-ns#">
   <cc:Work>
    <dc:type rdf:resource="http://purl.org/dc/dcmitype/StillImage"/>
    <dc:date>2024-02-02T21:58:05.005114</dc:date>
    <dc:format>image/svg+xml</dc:format>
    <dc:creator>
     <cc:Agent>
      <dc:title>Matplotlib v3.8.2, https://matplotlib.org/</dc:title>
     </cc:Agent>
    </dc:creator>
   </cc:Work>
  </rdf:RDF>
 </metadata>
 <defs>
  <style type="text/css">*{stroke-linejoin: round; stroke-linecap: butt}</style>
 </defs>
 <g id="figure_1">
  <g id="patch_1">
   <path d="M 0 262.698755 
L 357.12 262.698755 
L 357.12 0 
L 0 0 
L 0 262.698755 
z
" style="fill: none"/>
  </g>
  <g id="axes_1">
   <g id="PatchCollection_1">
    <path d="M 156.543603 24.424556 
L 158.016998 24.073755 
L 166.827399 24.599957 
L 168.940097 24.161455 
L 169.364635 24.280109 
L 170.723154 24.922385 
L 171.789493 24.997188 
L 173.813538 24.427136 
L 174.329226 24.414239 
L 176.811521 24.832105 
L 177.832908 24.636069 
L 178.311137 24.416818 
L 180.041752 23.477908 
L 180.989469 23.418581 
L 184.425726 24.878535 
L 184.628005 25.249972 
L 184.608027 25.796809 
L 184.353305 26.746037 
L 184.435715 27.127792 
L 184.887722 27.331566 
L 186.739455 27.166483 
L 187.207695 27.388313 
L 187.371266 27.775227 
L 187.434947 28.667707 
L 187.685924 29.054621 
L 188.189125 29.289348 
L 189.898513 29.467328 
L 190.290586 29.699476 
L 191.454318 31.089785 
L 192.599321 31.899724 
L 194.240033 33.808497 
L 197.110656 36.403397 
L 199.042301 37.631202 
L 199.886381 38.639756 
L 200.315913 38.918334 
L 201.710644 39.532237 
L 202.000328 39.870141 
L 202.034042 40.218363 
L 201.639471 41.410057 
L 201.738114 41.735064 
L 202.426114 42.805525 
L 202.443595 43.225971 
L 202.196365 44.12103 
L 202.376169 44.918072 
L 203.199022 45.364312 
L 205.094457 45.918888 
L 206.254443 46.731406 
L 206.812585 47.479439 
L 207.45064 49.300512 
L 208.138641 50.110451 
L 208.576913 50.383869 
L 208.985218 50.487046 
L 209.758126 50.309066 
L 210.549764 49.852508 
L 211.658556 48.892963 
L 212.880974 47.298879 
L 213.716314 46.942919 
L 214.626572 46.973872 
L 214.52793 47.613569 
L 214.037214 49.109634 
L 214.192045 49.633257 
L 216.638131 51.124164 
L 216.954036 51.039043 
L 218.556041 50.272954 
L 219.633617 50.249739 
L 219.999468 50.138824 
L 221.465371 49.504286 
L 224.010099 48.962607 
L 224.935341 48.611806 
L 225.530942 48.665974 
L 225.619595 49.362418 
L 224.809228 50.879119 
L 224.720575 51.652945 
L 225.21129 51.98827 
L 226.973121 51.299564 
L 227.701078 51.31762 
L 227.940816 51.583301 
L 228.567633 52.548005 
L 229.897435 53.443065 
L 230.188368 53.801605 
L 230.309486 54.185939 
L 230.424361 55.444697 
L 231.40704 57.644945 
L 232.19618 58.56064 
L 233.416101 59.489233 
L 233.698294 59.873567 
L 233.804428 60.288854 
L 233.774461 60.714458 
L 233.589662 61.968058 
L 233.899325 62.602596 
L 234.774621 63.624048 
L 235.204153 64.392716 
L 235.4364 65.243925 
L 235.450135 66.208629 
L 235.074294 67.475126 
L 235.137975 67.900731 
L 235.387703 68.241215 
L 235.726084 68.506895 
L 236.852357 69.242031 
L 237.177004 69.590253 
L 237.934928 70.812899 
L 237.989868 71.179178 
L 237.90496 71.545456 
L 236.9972 73.093109 
L 236.944757 73.53677 
L 237.01468 73.957216 
L 237.471683 75.197919 
L 238.198391 75.177283 
L 239.648061 74.92192 
L 240.352294 74.960612 
L 240.699416 75.10248 
L 241.946807 75.891783 
L 243.059345 76.193576 
L 243.663686 76.546957 
L 244.180623 77.02286 
L 244.528994 77.609679 
L 244.64262 78.312572 
L 244.37666 80.625025 
L 244.636377 81.507187 
L 244.91371 81.721306 
L 246.393213 82.103034 
L 247.086208 82.014044 
L 249.166441 80.649529 
L 249.923117 80.546352 
L 250.689782 80.902312 
L 250.99445 81.27246 
L 251.143038 81.705803 
L 251.497651 83.424988 
L 252.200635 84.439991 
L 252.291786 84.826905 
L 252.299278 86.498371 
L 252.482828 87.312179 
L 252.881144 88.079557 
L 253.468005 88.712805 
L 256.346119 90.679615 
L 256.961698 91.33092 
L 257.275107 92.147307 
L 257.014141 92.839882 
L 256.212515 92.970143 
L 254.561813 92.798611 
L 254.069849 93.171338 
L 254.360782 93.794269 
L 255.88662 95.236166 
L 256.316152 95.388352 
L 256.778148 95.39738 
L 258.321467 95.181998 
L 258.808436 95.321287 
L 259.247958 95.626949 
L 259.501431 95.970012 
L 259.622549 96.353056 
L 259.632538 96.763184 
L 259.371573 98.029681 
L 259.552626 98.875732 
L 259.608814 99.009862 
L 260.826238 99.400644 
L 262.639263 101.154652 
L 263.966423 101.700811 
L 264.464774 101.635714 
L 266.736049 101.054055 
L 267.186808 101.212689 
L 267.567643 101.594444 
L 268.191963 102.385037 
L 270.854063 103.962354 
L 272.211334 104.905133 
L 273.342601 105.168234 
L 273.85829 105.45455 
L 274.275335 105.930454 
L 274.505085 106.416675 
L 275.631358 110.399304 
L 275.658828 110.937114 
L 276.325602 111.336924 
L 277.956325 113.285678 
L 278.806648 114.002758 
L 281.847086 115.442076 
L 284.526667 117.550754 
L 284.895015 119.005549 
L 285.856468 119.870945 
L 286.152395 120.56481 
L 286.523241 121.127124 
L 287.256193 121.46116 
L 288.577253 121.649457 
L 288.002879 122.944328 
L 288.117754 123.489876 
L 288.457384 123.774902 
L 288.949348 123.890976 
L 289.316448 124.192769 
L 289.271497 125.025922 
L 289.001791 125.463134 
L 288.060317 126.382699 
L 287.703206 126.903742 
L 287.42351 128.56618 
L 287.071394 128.87958 
L 286.15739 129.443184 
L 285.865208 130.303422 
L 285.97384 131.345509 
L 286.541971 133.523831 
L 286.665586 134.538834 
L 286.575684 136.70297 
L 287.198755 136.826782 
L 291.703847 138.505987 
L 292.038482 139.15987 
L 291.828711 139.780222 
L 291.114489 140.044613 
L 291.97605 141.349801 
L 292.565408 141.852788 
L 294.470832 142.550522 
L 295.150092 143.00837 
L 295.624575 143.739636 
L 297.407633 147.937647 
L 297.512519 149.04293 
L 297.157905 151.067777 
L 296.071588 154.89693 
L 296.066594 156.968207 
L 296.551066 158.263077 
L 297.337709 159.048511 
L 298.239227 159.743666 
L 299.083307 160.766407 
L 299.377986 161.705317 
L 299.370494 162.72032 
L 299.083307 164.743877 
L 298.314145 166.972499 
L 296.695908 168.651703 
L 292.5729 170.986081 
L 293.237177 171.557423 
L 293.888966 172.541473 
L 294.882883 174.482489 
L 295.487225 176.284216 
L 296.558558 177.972448 
L 297.445092 178.984872 
L 300.541718 181.386315 
L 301.245951 182.451616 
L 301.750401 182.7044 
L 302.197414 182.761147 
L 302.58699 182.92881 
L 302.921625 183.50789 
L 302.81674 184.395211 
L 302.124993 187.070073 
L 302.239868 187.61949 
L 302.664406 187.734275 
L 304.317604 188.64868 
L 304.502403 189.018827 
L 305.021837 190.329174 
L 305.596211 190.808947 
L 305.865918 190.83732 
L 306.130629 190.556163 
L 308.15842 189.00851 
L 308.283284 188.043805 
L 308.570471 187.021064 
L 309.05744 186.19049 
L 309.796635 185.790679 
L 310.488381 185.891277 
L 310.833006 186.285929 
L 311.110204 186.774729 
L 311.594676 187.160353 
L 312.054176 187.21968 
L 312.998147 187.018485 
L 314.214322 186.973345 
L 314.434083 187.191306 
L 314.369153 187.901937 
L 314.496515 188.397186 
L 315.030932 188.457803 
L 315.98739 188.136665 
L 315.992385 189.222602 
L 316.339507 190.191175 
L 317.530709 191.863931 
L 318.624517 192.844112 
L 318.831791 193.325174 
L 318.756873 193.872012 
L 318.140045 194.77094 
L 317.957744 195.31004 
L 318.102586 196.20381 
L 318.56708 196.816423 
L 319.141454 197.351653 
L 319.590964 198.011985 
L 319.61344 199.756965 
L 319.855676 200.565614 
L 320.709745 200.768099 
L 322.560229 201.989456 
L 323.856317 202.398294 
L 323.801377 202.749096 
L 323.436774 203.417166 
L 324.103548 204.388319 
L 324.563047 205.311753 
L 324.755338 205.474256 
L 325.174881 205.676741 
L 325.099962 205.886964 
L 324.67043 206.298382 
L 324.548064 207.701588 
L 324.415708 208.198127 
L 325.169886 208.342575 
L 325.729277 208.107847 
L 326.081393 207.539084 
L 326.198765 206.671108 
L 326.603324 207.104452 
L 326.825582 207.616467 
L 326.935463 208.187809 
L 327.037851 209.485259 
L 326.875528 209.784472 
L 325.934054 210.324861 
L 325.287258 210.038545 
L 324.970104 210.208787 
L 324.935142 210.514449 
L 325.554467 211.305042 
L 324.902677 212.844957 
L 325.055011 213.656186 
L 324.73536 214.66474 
L 325.152405 214.811767 
L 325.334707 214.898178 
L 325.721785 215.486287 
L 325.979005 216.414879 
L 326.023956 217.010726 
L 325.91907 217.553694 
L 325.581937 217.916103 
L 325.581937 218.140513 
L 326.091382 219.063946 
L 326.181284 219.53727 
L 325.786714 220.182126 
L 324.480637 220.509713 
L 323.968695 221.822639 
L 323.591606 222.08832 
L 323.294429 222.462336 
L 323.33938 223.197472 
L 324.268368 223.728833 
L 324.50561 224.242138 
L 324.515599 224.760602 
L 324.265871 226.336629 
L 324.420702 227.211054 
L 324.480637 227.572173 
L 324.360768 228.144805 
L 323.356861 228.616839 
L 323.00974 228.931529 
L 323.896274 229.346816 
L 324.455664 230.337314 
L 324.84524 230.688116 
L 324.81777 230.319258 
L 325.089973 229.787897 
L 325.464565 229.64087 
L 326.171295 231.676035 
L 326.261197 232.124855 
L 326.748167 231.227215 
L 327.36 232.091322 
L 327.262606 233.257221 
L 326.935463 234.575306 
L 326.84556 235.90113 
L 325.512013 235.846962 
L 322.340469 234.686222 
L 320.709745 234.51598 
L 316.546781 234.835828 
L 314.538968 235.215003 
L 310.82052 236.620789 
L 308.995009 236.92774 
L 305.041815 236.760078 
L 304.047898 236.540827 
L 300.63162 235.160835 
L 300.421849 235.245956 
L 299.887431 235.625132 
L 298.049434 236.644004 
L 297.407633 236.775554 
L 296.378754 236.672377 
L 293.464429 235.689617 
L 292.265735 235.728308 
L 291.399179 236.159072 
L 289.798423 237.64224 
L 288.010371 238.653374 
L 279.849263 240.807192 
L 279.066365 240.404802 
L 277.694111 238.26904 
L 276.830052 237.637081 
L 274.734835 236.870993 
L 273.719691 236.620789 
L 272.883102 236.582097 
L 272.068989 236.74976 
L 271.125018 237.121197 
L 269.290766 238.034313 
L 268.601517 238.013677 
L 268.425459 237.820221 
L 268.389248 237.471998 
L 268.13078 236.997385 
L 266.771011 235.462628 
L 265.975628 234.810034 
L 265.032905 234.415382 
L 264.040236 234.299308 
L 260.918637 234.477288 
L 259.922223 234.345738 
L 259.42901 233.445519 
L 258.6586 233.068923 
L 257.22641 232.963167 
L 256.764413 232.782607 
L 256.256217 232.310573 
L 256.153829 231.884968 
L 256.252471 231.353607 
L 255.052528 230.285726 
L 253.163337 229.290069 
L 251.406501 229.310704 
L 250.597382 231.299439 
L 250.438805 232.261564 
L 249.881912 232.751654 
L 249.090274 232.808402 
L 248.228713 232.467918 
L 247.292233 232.573674 
L 246.453147 232.488553 
L 245.740174 232.096481 
L 245.183281 231.291701 
L 244.968515 230.321838 
L 245.143324 229.499002 
L 245.862541 227.801742 
L 246.046091 226.942794 
L 246.098534 225.939398 
L 245.890011 225.000488 
L 245.270686 224.319521 
L 244.533988 224.206026 
L 243.698648 224.345315 
L 242.813363 224.373688 
L 241.943061 223.91971 
L 241.489805 224.474286 
L 241.106472 224.208605 
L 240.447191 224.229241 
L 240.015161 224.226661 
L 239.20854 224.445912 
L 238.98878 224.332418 
L 238.259574 223.69788 
L 237.894971 223.726253 
L 236.65757 224.025466 
L 236.236778 223.955822 
L 235.641177 223.56375 
L 235.23412 223.450255 
L 234.809583 223.481208 
L 233.128914 223.870701 
L 232.884181 224.133802 
L 232.368492 224.066737 
L 231.578035 223.629984 
L 229.405471 223.029809 
L 213.771254 222.449439 
L 142.885983 222.147646 
L 141.499993 222.359159 
L 140.246359 222.93695 
L 137.439417 224.979853 
L 134.500119 226.344368 
L 131.795566 228.356318 
L 119.596357 234.134225 
L 117.930671 234.487606 
L 109.117773 233.961404 
L 105.281952 234.237402 
L 104.352964 234.064581 
L 101.331256 233.04055 
L 99.615626 232.885784 
L 95.63746 233.672508 
L 95.200436 233.930451 
L 94.803368 233.860806 
L 93.242569 233.347501 
L 92.735621 233.455837 
L 85.528473 237.402354 
L 84.065068 238.005939 
L 81.63022 238.026574 
L 79.107968 238.663692 
L 78.21644 238.699804 
L 71.666076 238.256143 
L 69.890511 238.689486 
L 68.78771 239.463272 
L 68.241697 238.172789 
L 68.02933 237.151175 
L 67.722577 236.811991 
L 66.99699 236.296106 
L 65.885995 235.199344 
L 65.390472 234.553472 
L 65.185971 233.909632 
L 65.292154 231.380985 
L 65.768014 230.94228 
L 65.876164 230.485296 
L 66.230109 229.959256 
L 68.631036 228.50503 
L 69.685006 228.468471 
L 71.18534 228.596427 
L 73.318842 227.136108 
L 74.123084 225.840303 
L 75.97343 224.475443 
L 76.862226 225.523461 
L 77.54652 227.416392 
L 78.217049 227.842911 
L 78.246544 227.067053 
L 78.742067 226.45774 
L 79.597435 226.209953 
L 80.547187 226.425243 
L 82.167469 227.359523 
L 83.622577 227.765731 
L 85.223195 228.529403 
L 86.062832 228.596427 
L 87.012584 228.133349 
L 88.174704 226.677093 
L 89.030071 226.209953 
L 90.15483 226.258698 
L 91.112448 226.610068 
L 92.0681 226.713651 
L 93.733608 225.79562 
L 94.109183 226.232294 
L 94.669596 227.231567 
L 98.433213 225.807807 
L 99.298412 225.60064 
L 100.456599 225.527523 
L 101.205782 225.304108 
L 101.831085 224.841031 
L 102.550774 224.467319 
L 103.608676 224.50794 
L 104.456178 224.971018 
L 106.908231 227.079239 
L 107.470611 227.180791 
L 110.56763 227.231567 
L 110.864551 227.450919 
L 111.721884 228.255212 
L 112.148585 228.196312 
L 113.387393 227.883531 
L 113.941907 227.536223 
L 114.478723 226.878166 
L 115.163017 226.482113 
L 116.173727 226.92488 
L 116.743972 226.543044 
L 117.056623 226.536951 
L 117.717321 227.02237 
L 118.513697 226.92488 
L 118.891239 227.365616 
L 119.475248 228.596427 
L 120.133979 229.098094 
L 120.570512 229.228081 
L 121.156487 229.244329 
L 121.705102 229.130591 
L 123.913326 228.208498 
L 124.798189 227.294529 
L 126.282792 225.342698 
L 127.676942 224.325146 
L 127.810655 223.638654 
L 127.533398 223.333998 
L 127.004447 223.100428 
L 126.709492 222.8303 
L 127.122428 222.430184 
L 126.650502 221.298894 
L 126.210037 219.779675 
L 126.052728 218.223897 
L 126.465664 216.976837 
L 127.02411 216.635622 
L 129.102555 216.605157 
L 129.77505 216.306594 
L 130.233212 215.947099 
L 130.536032 215.490115 
L 130.754298 214.901113 
L 131.747311 215.880075 
L 132.65577 216.14411 
L 133.273207 215.61807 
L 133.391189 214.222745 
L 132.643972 215.014851 
L 131.932149 214.990478 
L 131.202629 214.667543 
L 130.421983 214.559898 
L 129.692463 214.886895 
L 128.500848 215.774461 
L 127.144058 215.959285 
L 126.418471 216.062869 
L 125.761706 216.412208 
L 125.474617 217.147445 
L 125.474617 220.04371 
L 126.105819 222.430184 
L 126.09992 223.646778 
L 125.95441 223.979869 
L 124.784424 225.001483 
L 124.412782 225.488933 
L 121.978426 227.729172 
L 121.337393 228.135381 
L 120.763215 228.163815 
L 120.259826 227.936338 
L 119.835092 227.572782 
L 120.110383 226.079966 
L 118.643477 225.40566 
L 115.216109 224.845093 
L 112.889903 226.344002 
L 112.036502 226.549137 
L 111.658961 226.039345 
L 111.310915 225.685944 
L 110.732804 225.527523 
L 110.142896 225.635168 
L 109.326856 226.104339 
L 108.738914 226.209953 
L 108.178501 226.051532 
L 107.450947 225.669696 
L 106.247534 224.845093 
L 106.190509 224.599337 
L 106.275063 223.929093 
L 106.094157 223.795044 
L 105.116876 223.606157 
L 104.89861 223.484295 
L 104.59579 223.069962 
L 103.760086 221.579178 
L 103.353049 221.31108 
L 103.170178 220.246814 
L 102.92045 219.674061 
L 102.621563 219.674061 
L 102.550774 220.248845 
L 101.807489 221.595426 
L 101.626584 223.297439 
L 100.27766 224.166725 
L 98.2995 224.50794 
L 97.788246 224.731355 
L 96.498313 225.527523 
L 95.987059 225.470654 
L 94.817074 225.157873 
L 92.990324 225.157873 
L 92.447608 225.28786 
L 91.008231 225.840303 
L 90.426188 225.840303 
L 88.864897 225.527523 
L 88.339879 225.635168 
L 87.667383 226.104339 
L 87.230851 226.209953 
L 87.065676 226.445554 
L 86.497398 227.548409 
L 86.062832 227.883531 
L 84.080739 227.231567 
L 82.476188 226.305412 
L 81.727004 225.669696 
L 81.412387 225.001483 
L 80.777252 224.745572 
L 80.330888 224.524188 
L 80.092958 224.166725 
L 80.173579 223.671151 
L 80.480331 223.228384 
L 80.924729 222.911541 
L 81.412387 222.801865 
L 81.412387 222.430184 
L 80.669102 222.411905 
L 80.199141 222.034131 
L 79.927784 221.428881 
L 79.762609 220.72614 
L 79.43226 224.845093 
L 79.068484 224.845093 
L 78.429416 223.977838 
L 76.653792 222.424091 
L 76.433559 221.441067 
L 75.867247 221.900082 
L 75.053173 222.917634 
L 74.288258 223.112614 
L 73.710148 222.990752 
L 73.318842 222.649537 
L 73.126139 222.119435 
L 73.161533 221.441067 
L 73.845827 220.137138 
L 74.809344 219.158176 
L 75.442513 218.024855 
L 75.143626 216.263942 
L 74.813277 218.000482 
L 74.329552 218.654478 
L 74.099488 218.798682 
L 72.728934 220.212287 
L 72.528365 220.858158 
L 72.469374 221.918362 
L 72.815454 223.687399 
L 72.713203 224.503878 
L 71.258095 225.135532 
L 69.144257 226.92488 
L 67.522008 227.499664 
L 66.62928 226.963469 
L 66.253705 225.671727 
L 66.173084 223.979869 
L 66.436577 222.216925 
L 67.203458 220.462105 
L 68.448165 219.479081 
L 70.135303 220.04371 
L 70.211991 219.304411 
L 69.521798 218.760092 
L 68.52092 218.556988 
L 67.671452 218.85352 
L 66.676473 220.090424 
L 66.123925 220.492571 
L 65.512387 220.356491 
L 65.799475 219.950282 
L 65.897794 219.519702 
L 65.799475 219.097245 
L 65.512387 218.682912 
L 66.562424 217.200252 
L 66.772824 216.460953 
L 66.534895 215.583543 
L 66.173084 215.583543 
L 65.946953 216.135986 
L 65.616604 216.379711 
L 65.31575 216.188793 
L 65.185971 215.429183 
L 65.303952 214.832057 
L 65.593007 214.19431 
L 67.317507 211.598639 
L 67.492513 210.964954 
L 67.443354 210.327207 
L 67.162164 208.584573 
L 67.270314 207.540617 
L 67.746173 205.466924 
L 67.852357 204.136591 
L 67.777635 203.320113 
L 67.569201 202.901718 
L 67.642959 201.752149 
L 67.817769 201.193704 
L 68.124934 200.786155 
L 68.889102 200.025225 
L 69.041436 199.545452 
L 69.755658 198.325385 
L 71.441321 197.94492 
L 112.044584 198.317647 
L 112.369231 198.076471 
L 112.559024 190.202782 
L 112.751314 189.4986 
L 113.310705 189.18649 
L 116.679535 188.858903 
L 118.84967 188.159879 
L 119.459006 188.144403 
L 122.717956 188.465541 
L 123.507096 188.385579 
L 124.960512 187.894199 
L 126.076796 187.279006 
L 127.208064 186.849532 
L 128.71642 186.916597 
L 133.988177 188.051544 
L 135.768737 188.048964 
L 137.342023 187.7562 
L 138.925298 187.164222 
L 140.313785 186.231761 
L 141.307702 184.923993 
L 141.599884 183.544002 
L 141.782185 180.456433 
L 142.458948 179.347281 
L 144.55916 177.147033 
L 145.662957 176.698213 
L 146.99151 177.571348 
L 149.161646 179.628438 
L 151.586504 181.401791 
L 154.745562 183.031986 
L 156.378783 183.46404 
L 158.229266 183.616226 
L 158.955975 183.831608 
L 160.571714 184.832424 
L 161.458249 185.123898 
L 162.447171 185.314776 
L 162.964108 185.637204 
L 163.938047 187.010746 
L 165.286578 188.226944 
L 166.902317 188.91694 
L 168.667894 189.129742 
L 170.458443 188.91694 
L 172.024237 188.519709 
L 172.576136 188.718324 
L 174.406641 190.440089 
L 175.048442 190.808947 
L 175.74768 191.014011 
L 177.268523 191.075917 
L 177.911573 191.259056 
L 179.790775 193.096895 
L 181.552606 194.019039 
L 182.816229 194.381448 
L 184.123555 194.484625 
L 186.871811 194.239579 
L 189.495202 194.737408 
L 190.893679 194.688399 
L 191.950028 194.160907 
L 194.271249 192.391423 
L 194.99546 192.062546 
L 195.832049 192.072864 
L 197.906039 191.313224 
L 199.853917 191.290009 
L 201.794303 190.762517 
L 205.445325 190.445248 
L 207.838967 189.387685 
L 209.214968 187.268689 
L 209.401015 184.71506 
L 208.242278 182.354888 
L 207.75406 181.947339 
L 206.216984 180.91299 
L 205.966008 180.492545 
L 205.407866 179.111264 
L 204.598747 178.444483 
L 203.438761 177.848636 
L 202.211348 177.416583 
L 201.196204 177.238602 
L 200.54816 177.344359 
L 198.996101 178.183961 
L 198.491651 178.263923 
L 197.131882 178.209755 
L 196.1517 178.45738 
L 193.916635 179.614251 
L 191.128423 180.251368 
L 190.211922 180.652469 
L 187.53359 182.339411 
L 183.857595 183.567217 
L 182.974806 183.443404 
L 181.813572 182.892698 
L 177.91407 180.073388 
L 177.425852 179.535579 
L 177.112443 178.866218 
L 176.466897 176.698213 
L 176.007397 175.743827 
L 175.354359 174.917122 
L 174.419128 174.160061 
L 172.343889 173.17988 
L 170.356054 173.027694 
L 168.398187 173.557766 
L 165.43142 175.233101 
L 164.83457 175.426558 
L 164.157807 175.180223 
L 162.17247 173.966604 
L 161.837835 173.586139 
L 160.898858 170.347674 
L 160.466829 169.42811 
L 159.854995 168.5769 
L 158.149353 167.184012 
L 156.383777 166.592034 
L 151.504093 166.370204 
L 148.627228 165.26879 
L 147.593354 165.217202 
L 144.069693 166.524969 
L 140.42866 168.873534 
L 139.399781 169.119868 
L 138.990227 168.807758 
L 137.60174 167.119526 
L 135.50902 166.781622 
L 133.271458 167.6367 
L 131.228683 169.150822 
L 129.722824 170.792624 
L 129.185909 171.642544 
L 128.686453 172.68721 
L 128.247486 174.125118 
L 128.12956 174.801048 
L 128.032166 176.783334 
L 127.272993 177.041277 
L 76.85436 176.841422 
L 76.134672 175.586238 
L 76.166134 174.184819 
L 76.992006 173.40693 
L 78.207217 172.773245 
L 79.43226 171.806469 
L 78.411719 171.156536 
L 79.025224 170.565503 
L 79.477487 169.803862 
L 79.396866 169.198612 
L 78.411719 169.07878 
L 78.541499 169.87698 
L 78.305535 170.843756 
L 77.792315 171.522123 
L 77.094256 171.467285 
L 76.748177 172.515303 
L 75.997027 173.224136 
L 75.04924 173.492234 
L 74.123084 173.199764 
L 73.275582 172.302043 
L 73.061249 171.381982 
L 73.462387 169.419995 
L 73.684585 167.689548 
L 74.123084 167.033521 
L 75.839718 164.982169 
L 76.134672 164.277398 
L 76.417828 164.462222 
L 77.452134 164.990293 
L 77.343984 164.762817 
L 77.094256 163.936183 
L 78.771563 163.629495 
L 78.85415 164.616582 
L 79.202196 165.550861 
L 79.750811 166.11549 
L 80.452802 165.983473 
L 80.087059 164.844058 
L 80.004472 163.582781 
L 79.798004 162.58554 
L 79.068484 162.232139 
L 79.326077 161.557833 
L 80.452802 156.100424 
L 79.396866 157.660264 
L 78.954435 158.635164 
L 78.57296 160.700733 
L 78.077437 161.935607 
L 77.43837 162.756147 
L 76.433559 162.573354 
L 75.949834 163.243597 
L 75.096433 163.503571 
L 74.093589 163.637619 
L 73.161533 163.936183 
L 72.642414 164.374888 
L 71.879466 165.916448 
L 71.006401 166.509512 
L 70.524642 167.427543 
L 70.158899 167.760634 
L 69.669275 167.531126 
L 69.515899 167.045707 
L 69.421514 165.898169 
L 68.979082 165.672723 
L 68.363611 165.234018 
L 68.111917 164.246932 
L 68.176807 163.198914 
L 68.513054 162.573354 
L 68.2181 161.890924 
L 68.013599 161.115066 
L 67.852357 159.506481 
L 67.89955 158.659536 
L 68.064724 158.174117 
L 68.363611 157.845088 
L 69.474605 156.95143 
L 70.040917 156.732078 
L 70.660321 156.703643 
L 72.082001 156.868157 
L 72.756463 157.081417 
L 73.216591 157.483563 
L 73.161533 158.145683 
L 73.837962 157.532308 
L 74.370846 156.79504 
L 75.043341 156.390863 
L 76.134672 156.782854 
L 76.116975 155.68406 
L 76.496483 155.192548 
L 77.108021 154.887892 
L 77.780517 154.367945 
L 76.524012 154.717284 
L 75.91444 154.595422 
L 75.442513 154.055165 
L 77.62714 152.688274 
L 78.411719 151.97944 
L 79.666257 150.427724 
L 80.352518 149.830598 
L 81.903977 149.375644 
L 82.655127 148.416993 
L 83.241103 148.19764 
L 83.644207 148.388558 
L 84.03158 148.754146 
L 84.432718 148.973498 
L 86.363685 147.856425 
L 83.319757 147.740656 
L 82.014093 147.238989 
L 82.100613 146.156443 
L 81.337665 146.556559 
L 81.054509 147.277578 
L 81.203952 148.033126 
L 81.742735 148.538855 
L 81.142995 148.876008 
L 80.645506 148.837418 
L 79.597435 148.538855 
L 79.190398 148.693214 
L 78.91904 149.530004 
L 78.771563 149.934181 
L 77.530789 152.145985 
L 77.094256 152.66187 
L 76.598733 152.889347 
L 75.552629 153.139165 
L 74.978451 153.527094 
L 74.553717 154.075475 
L 73.952011 155.2352 
L 73.462387 155.728743 
L 72.376955 156.09433 
L 71.350514 155.887164 
L 70.306376 155.521577 
L 69.144257 155.417994 
L 70.278847 153.36461 
L 70.314242 153.003085 
L 71.128315 152.767484 
L 72.469374 151.264513 
L 71.822441 151.457462 
L 71.197138 152.432362 
L 70.660321 152.66187 
L 69.169819 152.791857 
L 68.813908 153.003085 
L 69.382186 153.669267 
L 69.334994 154.116096 
L 68.513054 155.076779 
L 68.371476 155.460645 
L 68.247596 156.175572 
L 68.0018 156.593967 
L 67.042216 157.698853 
L 66.833782 158.145683 
L 66.613549 159.547101 
L 66.833782 164.277398 
L 66.534895 164.277398 
L 66.247806 154.696974 
L 66.005943 153.250872 
L 65.205634 150.84815 
L 64.324704 149.070988 
L 63.894071 148.538855 
L 63.262869 148.242323 
L 62.004398 147.957977 
L 61.524605 147.519272 
L 61.274877 146.800284 
L 60.863908 144.109153 
L 60.54929 143.256116 
L 60.15995 142.628524 
L 59.245592 141.694245 
L 58.299772 141.186484 
L 58.225051 140.532489 
L 58.284041 140.020666 
L 58.584895 138.46895 
L 58.348931 137.644347 
L 57.764922 136.758813 
L 56.246891 135.215222 
L 52.790027 133.57414 
L 52.259109 133.001386 
L 51.983819 132.343329 
L 50.277017 129.765937 
L 49.002815 126.331445 
L 47.052184 123.63016 
L 45.663933 122.34451 
L 44.834128 121.769725 
L 43.884375 121.326958 
L 42.053693 120.928874 
L 40.004744 119.84836 
L 39.690126 119.47871 
L 38.09344 119.499021 
L 36.705189 119.328413 
L 35.49391 119.409655 
L 34.410445 120.189575 
L 34.817482 120.668901 
L 35.399525 120.84357 
L 35.037715 121.570683 
L 34.410445 121.867215 
L 35.037715 122.545583 
L 34.738828 123.26051 
L 34.57562 123.309255 
L 34.410445 123.599694 
L 33.77531 123.185361 
L 30.526881 119.141557 
L 29.76 118.426631 
L 37.737529 116.285913 
L 40.097163 114.352361 
L 47.305845 111.267209 
L 48.963487 109.92469 
L 56.644096 100.732195 
L 58.181791 98.437118 
L 61.548202 94.681722 
L 68.269226 82.737165 
L 71.627771 78.272936 
L 78.169856 67.165169 
L 78.087269 66.651315 
L 77.780619 65.943321 
L 78.873224 64.070288 
L 79.347707 61.318043 
L 79.462582 55.883199 
L 79.749769 55.310567 
L 80.416543 53.105161 
L 81.255629 51.093211 
L 81.470395 47.714167 
L 81.820014 46.710771 
L 82.524246 46.104607 
L 84.307304 45.679002 
L 85.061482 45.183753 
L 85.36615 44.675606 
L 85.573424 44.090077 
L 87.55127 35.642467 
L 87.803495 33.651152 
L 88.168097 32.714822 
L 88.837368 31.778491 
L 89.728897 30.914385 
L 90.757776 30.287585 
L 91.859076 30.065754 
L 93.999244 30.408818 
L 94.548646 30.3108 
L 95.04061 30.081231 
L 97.015958 28.814734 
L 97.597824 28.711557 
L 98.20716 28.830211 
L 98.651676 29.10105 
L 99.008787 29.469908 
L 99.59315 30.336594 
L 100.412258 31.200701 
L 101.391191 31.672735 
L 102.482502 31.799127 
L 103.636245 31.636623 
L 104.322997 31.213598 
L 104.685102 31.151691 
L 106.373263 31.453484 
L 108.288676 30.602274 
L 108.970434 30.524892 
L 111.065651 30.932441 
L 112.256853 30.718348 
L 113.028512 30.75704 
L 115.213632 31.47154 
L 117.191477 31.680473 
L 118.332733 32.222152 
L 119.089409 32.415609 
L 119.831101 32.374338 
L 120.545323 32.134452 
L 121.212096 31.711426 
L 122.280932 30.733825 
L 122.852809 30.380444 
L 123.589506 30.26437 
L 125.664745 30.689975 
L 126.378967 30.62033 
L 126.953341 30.336594 
L 127.417835 29.900671 
L 128.591556 28.224046 
L 129.190903 27.692685 
L 129.892639 27.377996 
L 130.624342 27.442481 
L 131.078847 27.816498 
L 131.685685 28.791519 
L 132.282535 29.046882 
L 132.99426 29.031406 
L 133.67352 28.861164 
L 135.708802 28.015113 
L 136.462981 27.85261 
L 138.013791 27.798442 
L 140.301299 28.159561 
L 141.08045 28.131187 
L 146.269796 27.31609 
L 147.603343 26.727981 
L 147.810617 26.444245 
L 147.828098 26.072808 
L 147.668273 25.755539 
L 146.886624 24.994609 
L 146.599437 24.326538 
L 146.696831 23.681682 
L 147.116374 23.189013 
L 147.805623 23.000715 
L 148.502364 23.209648 
L 149.823425 24.746984 
L 150.170546 24.860479 
L 150.530155 24.826946 
L 151.171955 24.458089 
L 151.409197 24.151137 
L 151.981074 22.667969 
L 152.478032 22.337803 
L 153.556857 21.891563 
L 154.106258 22.170141 
L 154.782719 22.931413 
L 155.150121 23.655888 
L 155.652074 24.287847 
L 156.543603 24.424556 
L 156.543603 24.424556 
" clip-path="url(#p153fc5aed8)" style="fill: none; stroke: #000000; stroke-width: 2"/>
   </g>
  </g>
 </g>
 <defs>
  <clipPath id="p153fc5aed8">
   <rect x="0" y="0" width="357.12" height="262.698755"/>
  </clipPath>
 </defs>
</svg>
