<?xml version="1.0" encoding="utf-8" standalone="no"?>
<!DOCTYPE svg PUBLIC "-//W3C//DTD SVG 1.1//EN"
  "http://www.w3.org/Graphics/SVG/1.1/DTD/svg11.dtd">
<svg xmlns:xlink="http://www.w3.org/1999/xlink" width="357.12pt" height="181.372683pt" viewBox="0 0 357.12 181.372683" xmlns="http://www.w3.org/2000/svg" version="1.1">
 <metadata>
  <rdf:RDF xmlns:dc="http://purl.org/dc/elements/1.1/" xmlns:cc="http://creativecommons.org/ns#" xmlns:rdf="http://www.w3.org/1999/02/22-rdf-syntax-ns#">
   <cc:Work>
    <dc:type rdf:resource="http://purl.org/dc/dcmitype/StillImage"/>
    <dc:date>2024-02-02T21:58:05.063128</dc:date>
    <dc:format>image/svg+xml</dc:format>
    <dc:creator>
     <cc:Agent>
      <dc:title>Matplotlib v3.8.2, https://matplotlib.org/</dc:title>
     </cc:Agent>
    </dc:creator>
   </cc:Work>
  </rdf:RDF>
 </metadata>
 <defs>
  <style type="text/css">*{stroke-linejoin: round; stroke-linecap: butt}</style>
 </defs>
 <g id="figure_1">
  <g id="patch_1">
   <path d="M 0 181.372683 
L 357.12 181.372683 
L 357.12 0 
L 0 0 
L 0 181.372683 
z
" style="fill: none"/>
  </g>
  <g id="axes_1">
   <g id="PatchCollection_1">
    <path d="M 292.403174 62.292641 
L 312.816893 66.93039 
L 324.157848 71.134393 
L 327.36 76.172523 
L 317.886967 91.954215 
L 303.944264 108.73686 
L 287.132965 122.149631 
L 268.720592 127.588142 
L 248.507007 129.823604 
L 232.496247 135.962782 
L 203.810303 155.614826 
L 199.073786 160.019019 
L 196.738884 162.821688 
L 192.469347 164.656768 
L 181.92893 166.258293 
L 161.915481 165.857911 
L 152.042179 163.322164 
L 147.839354 158.417494 
L 140.834647 147.173456 
L 123.823215 139.366022 
L 103.342784 134.594813 
L 85.79766 132.693002 
L 50.173719 133.627225 
L 35.697324 130.090525 
L 29.76 118.74639 
L 33.295709 105.800732 
L 57.77883 71.134393 
L 61.31454 55.619621 
L 65.383941 46.877965 
L 74.590128 37.502372 
L 85.464102 30.896082 
L 93.336059 29.594843 
L 111.214741 31.9304 
L 129.627115 29.594843 
L 152.442448 18.684456 
L 164.650653 15.11439 
L 186.465313 16.382264 
L 207.479435 23.255474 
L 269.187572 54.084826 
L 292.403174 62.292641 
" clip-path="url(#pbb2b308510)" style="fill: none; stroke: #000000; stroke-width: 2"/>
   </g>
  </g>
 </g>
 <defs>
  <clipPath id="pbb2b308510">
   <rect x="0" y="0" width="357.12" height="181.372683"/>
  </clipPath>
 </defs>
</svg>
