<?xml version="1.0" encoding="utf-8" standalone="no"?>
<!DOCTYPE svg PUBLIC "-//W3C//DTD SVG 1.1//EN"
  "http://www.w3.org/Graphics/SVG/1.1/DTD/svg11.dtd">
<svg xmlns:xlink="http://www.w3.org/1999/xlink" width="314.513743pt" height="266.112pt" viewBox="0 0 314.513743 266.112" xmlns="http://www.w3.org/2000/svg" version="1.1">
 <metadata>
  <rdf:RDF xmlns:dc="http://purl.org/dc/elements/1.1/" xmlns:cc="http://creativecommons.org/ns#" xmlns:rdf="http://www.w3.org/1999/02/22-rdf-syntax-ns#">
   <cc:Work>
    <dc:type rdf:resource="http://purl.org/dc/dcmitype/StillImage"/>
    <dc:date>2024-02-02T21:58:05.088133</dc:date>
    <dc:format>image/svg+xml</dc:format>
    <dc:creator>
     <cc:Agent>
      <dc:title>Matplotlib v3.8.2, https://matplotlib.org/</dc:title>
     </cc:Agent>
    </dc:creator>
   </cc:Work>
  </rdf:RDF>
 </metadata>
 <defs>
  <style type="text/css">*{stroke-linejoin: round; stroke-linecap: butt}</style>
 </defs>
 <g id="figure_1">
  <g id="patch_1">
   <path d="M 0 266.112 
L 314.513743 266.112 
L 314.513743 0 
L 0 0 
L 0 266.112 
z
" style="fill: none"/>
  </g>
  <g id="axes_1">
   <g id="PatchCollection_1">
    <path d="M 268.093273 243.857255 
L 266.737652 243.899908 
L 266.286679 243.742418 
L 265.881613 243.351972 
L 265.946423 242.886062 
L 266.092247 242.643264 
L 266.359591 242.544832 
L 268.449731 242.502179 
L 268.449731 242.777787 
L 268.239097 243.12886 
L 268.19859 243.542273 
L 268.093273 243.857255 
" clip-path="url(#p5d6539168e)" style="fill: none; stroke: #000000; stroke-width: 2"/>
    <path d="M 264.810438 243.903189 
L 264.5719 243.936 
L 264.339662 243.899908 
L 264.115525 243.791634 
L 263.904891 243.604613 
L 263.260386 243.25354 
L 262.644686 242.761382 
L 262.468257 242.282348 
L 263.135266 241.950961 
L 264.156032 241.993615 
L 264.177635 242.111733 
L 264.155132 242.285629 
L 264.20734 242.502179 
L 264.32616 242.912311 
L 264.365766 243.332286 
L 264.475584 243.68664 
L 264.810438 243.903189 
" clip-path="url(#p5d6539168e)" style="fill: none; stroke: #000000; stroke-width: 2"/>
    <path d="M 281.001375 227.461819 
L 280.423481 227.58978 
L 279.666458 227.406041 
L 279.138072 226.713738 
L 279.06336 225.831134 
L 279.667358 225.115864 
L 280.435183 224.951811 
L 281.1517 225.194609 
L 282.551428 226.211737 
L 282.049146 226.756392 
L 281.536963 227.182929 
L 281.001375 227.461819 
" clip-path="url(#p5d6539168e)" style="fill: none; stroke: #000000; stroke-width: 2"/>
    <path d="M 288.163842 204.254911 
L 288.15214 204.665043 
L 288.081929 204.504271 
L 288.011717 204.458337 
L 287.935205 204.43865 
L 286.939643 203.798844 
L 284.079877 202.798122 
L 283.470478 201.761309 
L 283.539789 201.551321 
L 283.691013 201.242902 
L 283.842238 200.845894 
L 283.909749 200.373422 
L 284.066375 200.081408 
L 284.428234 199.956728 
L 286.688502 199.96329 
L 287.47433 200.156872 
L 288.15214 200.786835 
L 287.850591 202.164879 
L 287.955008 202.496265 
L 288.244855 203.152476 
L 288.304265 203.414961 
L 288.163842 204.254911 
" clip-path="url(#p5d6539168e)" style="fill: none; stroke: #000000; stroke-width: 2"/>
    <path d="M 284.679374 175.863935 
L 285.011529 175.945962 
L 285.722644 175.939399 
L 285.370687 176.37578 
L 285.000727 176.634983 
L 284.212198 177.009024 
L 283.591097 176.969651 
L 283.007802 176.602173 
L 282.537926 176.031269 
L 282.248979 175.388182 
L 283.032106 174.272623 
L 283.450674 174.01342 
L 283.909749 174.259499 
L 284.015066 174.515421 
L 284.201397 175.309437 
L 284.376925 175.637542 
L 284.679374 175.863935 
" clip-path="url(#p5d6539168e)" style="fill: none; stroke: #000000; stroke-width: 2"/>
    <path d="M 279.213684 147.456554 
L 279.108367 147.466397 
L 279.046257 147.53858 
L 278.992248 147.637012 
L 278.912135 147.735444 
L 278.760911 147.456554 
L 278.484566 147.518894 
L 278.123607 147.299063 
L 277.387287 146.633009 
L 277.821157 146.193347 
L 278.32704 146.278655 
L 278.81852 146.757689 
L 279.213684 147.456554 
" clip-path="url(#p5d6539168e)" style="fill: none; stroke: #000000; stroke-width: 2"/>
    <path d="M 245.625614 132.790234 
L 245.215147 133.203647 
L 244.706564 133.154432 
L 244.636353 132.708208 
L 245.082826 132.307919 
L 245.561704 132.34073 
L 245.625614 132.790234 
" clip-path="url(#p5d6539168e)" style="fill: none; stroke: #000000; stroke-width: 2"/>
    <path d="M 269.107738 132.741019 
L 267.844833 133.121621 
L 267.134617 132.93132 
L 266.884376 132.675398 
L 266.78716 132.130742 
L 266.950987 131.75014 
L 267.331749 131.441721 
L 267.782723 131.238295 
L 268.147282 131.166112 
L 268.492038 131.28423 
L 268.99432 131.579525 
L 269.392185 131.979814 
L 269.431791 132.406351 
L 269.107738 132.741019 
" clip-path="url(#p5d6539168e)" style="fill: none; stroke: #000000; stroke-width: 2"/>
    <path d="M 259.166519 116.453858 
L 258.889274 116.847584 
L 258.590425 116.552289 
L 258.155655 115.879673 
L 257.987327 115.702496 
L 258.350986 115.102063 
L 258.811861 114.911761 
L 259.312343 115.03316 
L 259.798422 115.40392 
L 259.798422 115.702496 
L 259.461767 115.90264 
L 259.166519 116.453858 
" clip-path="url(#p5d6539168e)" style="fill: none; stroke: #000000; stroke-width: 2"/>
    <path d="M 49.85453 43.305999 
L 49.85453 43.581608 
L 49.692503 43.561922 
L 49.594387 43.647229 
L 49.511574 43.771909 
L 49.400856 43.883465 
L 48.861668 44.008145 
L 48.606926 43.985178 
L 48.343183 43.883465 
L 48.343183 43.581608 
L 48.782455 43.581608 
L 47.876907 43.030391 
L 47.823799 42.518546 
L 47.979524 42.308558 
L 48.218963 42.216689 
L 48.418796 42.072322 
L 48.746449 42.006701 
L 49.178519 42.420114 
L 49.85453 43.305999 
" clip-path="url(#p5d6539168e)" style="fill: none; stroke: #000000; stroke-width: 2"/>
    <path d="M 26.679355 23.383429 
L 26.446217 23.442488 
L 26.209479 23.435925 
L 26.409311 22.963453 
L 26.754967 22.805963 
L 27.555198 22.861741 
L 26.679355 23.383429 
" clip-path="url(#p5d6539168e)" style="fill: none; stroke: #000000; stroke-width: 2"/>
    <path d="M 35.055219 23.035637 
L 34.99671 23.435925 
L 39.363321 23.304683 
L 40.929576 22.720655 
L 41.807219 22.586132 
L 41.807219 22.861741 
L 40.448898 23.688567 
L 40.600122 23.987143 
L 40.448898 24.515393 
L 39.995224 24.515393 
L 40.825159 25.266755 
L 41.212222 25.358624 
L 41.932339 25.319251 
L 42.501232 25.063329 
L 43.784841 25.063329 
L 45.309689 26.050927 
L 45.447412 25.401278 
L 45.779566 25.260192 
L 46.17383 25.263474 
L 46.503284 25.063329 
L 46.465478 24.66304 
L 46.805733 24.554765 
L 47.575358 24.515393 
L 47.165792 25.142074 
L 47.304414 25.319251 
L 47.876907 25.361905 
L 47.864305 25.795005 
L 47.650971 26.106705 
L 47.121684 26.46434 
L 47.191896 27.189453 
L 46.956958 27.865351 
L 47.548354 27.79973 
L 48.004728 27.27148 
L 48.93368 25.913123 
L 49.432361 25.617828 
L 50.140776 25.384873 
L 50.740274 25.496428 
L 50.912202 26.188731 
L 49.560182 27.743952 
L 49.85453 28.117992 
L 50.337908 28.003155 
L 52.120199 26.739949 
L 51.666525 26.188731 
L 52.141802 26.027959 
L 52.658486 26.0903 
L 53.794471 26.46434 
L 54.548794 27.015557 
L 54.591101 27.445376 
L 54.321057 27.950658 
L 54.384967 28.393601 
L 54.27785 28.744674 
L 54.388568 28.984191 
L 54.615405 29.072779 
L 54.865646 28.944818 
L 54.944859 28.649523 
L 55.153693 27.291166 
L 55.709083 27.074616 
L 57.886538 27.566775 
L 57.720911 27.865351 
L 58.406822 27.950658 
L 58.628259 28.117992 
L 58.628259 28.393601 
L 58.39062 28.908727 
L 58.325809 29.243394 
L 57.953149 28.984191 
L 57.555284 28.941537 
L 57.16462 29.112152 
L 56.816263 29.492754 
L 57.686705 29.811017 
L 57.584088 30.07022 
L 57.324846 30.181776 
L 56.778457 30.16209 
L 56.513814 30.319581 
L 57.080006 30.713307 
L 57.796523 30.628 
L 59.108937 30.07022 
L 60.392546 29.791331 
L 61.028949 30.654248 
L 61.373706 30.319581 
L 61.479923 30.890484 
L 61.373706 31.169374 
L 61.039751 30.874079 
L 60.678792 30.857674 
L 60.013584 31.169374 
L 57.834329 32.941144 
L 57.557084 33.108478 
L 57.431964 33.344714 
L 57.621895 34.07967 
L 57.431964 34.473397 
L 58.423025 34.486521 
L 58.811888 34.283096 
L 60.320534 32.872242 
L 60.896628 32.636006 
L 61.223381 33.075667 
L 61.497926 32.747562 
L 61.817478 32.918177 
L 62.006509 33.403773 
L 61.895791 34.033736 
L 61.722963 34.161697 
L 61.305295 34.260129 
L 61.223381 34.598077 
L 61.492525 35.13617 
L 61.373706 35.575832 
L 61.589741 35.956434 
L 61.631148 36.386253 
L 61.373706 37.229484 
L 62.244147 36.120487 
L 62.719425 35.792382 
L 63.110989 35.97284 
L 63.688883 37.12449 
L 64.081347 37.642897 
L 64.545822 37.774139 
L 64.933785 37.459158 
L 64.890578 36.921065 
L 64.545822 35.424903 
L 64.47021 35.123046 
L 63.799601 34.145292 
L 63.667279 33.567826 
L 63.652877 33.075667 
L 65.095812 33.659695 
L 65.766421 34.099357 
L 65.919446 34.722757 
L 66.427129 34.663698 
L 66.613459 34.794941 
L 66.780886 35.903937 
L 66.745781 36.153298 
L 66.522544 36.402658 
L 67.186852 36.947313 
L 67.17245 37.137614 
L 66.873601 37.409942 
L 66.688171 38.200677 
L 66.983419 38.417226 
L 68.801715 38.325357 
L 68.595582 39.808394 
L 68.198617 40.005257 
L 68.479463 40.63522 
L 68.95294 40.832083 
L 68.949339 41.186437 
L 69.141071 41.422673 
L 69.708163 41.658909 
L 69.838684 41.626099 
L 70.161837 41.376739 
L 70.322963 41.501419 
L 70.696524 41.934518 
L 71.239312 41.882021 
L 71.449947 41.993577 
L 71.7758 43.102574 
L 72.01974 43.260065 
L 71.131295 44.044237 
L 70.161837 45.261509 
L 70.421979 45.523993 
L 71.068285 46.337695 
L 71.421142 46.409878 
L 73.471676 46.29176 
L 73.799329 46.088335 
L 74.628364 45.405875 
L 74.871404 45.510869 
L 74.78499 45.963655 
L 74.404228 47.184207 
L 73.799329 48.286642 
L 74.326815 50.091223 
L 74.396127 50.996794 
L 73.799329 51.068977 
L 74.263805 52.125477 
L 75.221561 52.998238 
L 76.307138 53.588828 
L 77.150575 53.818502 
L 77.150575 54.120359 
L 76.865229 54.199105 
L 76.316139 54.71423 
L 76.216223 55.045617 
L 76.026292 55.167016 
L 75.595122 55.127643 
L 74.871404 54.914375 
L 74.428532 55.728077 
L 73.764224 55.944626 
L 73.045907 55.787136 
L 72.441008 55.465592 
L 70.707326 54.199105 
L 70.024114 54.120359 
L 70.520995 54.871721 
L 70.831546 55.088271 
L 71.425643 55.30482 
L 72.138559 56.292418 
L 72.618337 56.508968 
L 73.407766 56.663178 
L 74.103579 57.647494 
L 73.6211 57.667181 
L 73.196231 57.394853 
L 73.241238 57.585154 
L 73.348356 58.221679 
L 72.706551 58.241365 
L 72.462612 58.083875 
L 72.289784 57.647494 
L 72.213271 58.395575 
L 72.289784 58.746648 
L 72.009838 58.75321 
L 71.295122 58.497288 
L 70.772136 59.061629 
L 70.126731 59.068191 
L 69.81348 58.950074 
L 69.562339 58.671184 
L 69.405714 58.221679 
L 69.746869 58.12981 
L 70.024114 57.923103 
L 69.118567 57.394853 
L 68.123005 55.993842 
L 67.693635 55.80026 
L 67.179651 55.344193 
L 66.37132 54.36972 
L 66.338014 53.792254 
L 66.108477 53.867718 
L 65.768221 53.267285 
L 65.852835 52.657008 
L 65.469373 51.121474 
L 64.71505 49.664686 
L 62.741028 46.908599 
L 62.103725 46.741265 
L 61.803976 46.524715 
L 61.677055 46.209734 
L 61.749967 45.766791 
L 62.063218 45.274633 
L 62.129829 44.959652 
L 61.883189 44.408434 
L 61.3395 43.870341 
L 60.392546 43.305999 
L 59.766044 43.312562 
L 59.532906 43.43068 
L 59.087333 44.001583 
L 58.781283 44.093453 
L 58.460831 44.047518 
L 58.188087 43.883465 
L 57.240232 42.518546 
L 54.844042 41.363614 
L 54.46058 41.389863 
L 54.410172 41.048633 
L 54.674815 39.545909 
L 54.384967 39.45404 
L 54.056414 39.014378 
L 53.635145 38.751894 
L 52.723297 38.600965 
L 52.888924 38.325357 
L 52.43615 38.075996 
L 52.564871 37.665864 
L 52.775505 37.478844 
L 53.342598 37.505093 
L 52.811511 36.848882 
L 51.94737 36.822633 
L 50.22449 37.229484 
L 49.936443 37.134333 
L 48.640232 36.258292 
L 48.343183 35.851441 
L 48.481806 34.870405 
L 46.863342 33.669538 
L 46.445674 33.836872 
L 46.208936 33.771251 
L 45.830874 33.495643 
L 45.309689 33.344714 
L 44.912725 33.384087 
L 44.275421 33.7975 
L 42.930602 33.961552 
L 42.510233 34.125605 
L 42.109668 34.473397 
L 41.793717 34.033736 
L 41.580382 34.014049 
L 41.353545 34.17154 
L 41.105105 33.58095 
L 41.194219 33.305341 
L 42.85499 32.547417 
L 43.195245 32.52445 
L 42.768576 31.907612 
L 41.531774 31.389205 
L 41.203221 30.618157 
L 42.125871 30.641124 
L 43.151138 30.293332 
L 45.00724 29.243394 
L 44.458151 28.974348 
L 42.438222 28.98091 
L 41.671297 29.243394 
L 41.390451 29.1384 
L 40.605523 28.669209 
L 38.553189 28.669209 
L 38.018502 28.836543 
L 37.82407 29.210584 
L 37.975295 29.594467 
L 38.472176 29.791331 
L 38.064409 29.978351 
L 36.326226 30.362234 
L 34.99671 30.319581 
L 35.102027 30.142403 
L 35.299159 29.791331 
L 35.004811 29.584624 
L 34.228885 28.669209 
L 35.433281 27.773481 
L 35.752833 27.291166 
L 35.396375 27.163205 
L 34.63215 27.251793 
L 34.228885 27.015557 
L 35.627713 26.237947 
L 36.28482 25.667043 
L 36.659281 24.813969 
L 34.008349 24.813969 
L 32.717539 25.063329 
L 32.385384 24.948492 
L 31.659866 24.515393 
L 30.422165 25.030519 
L 29.733553 25.125669 
L 28.727189 24.420242 
L 27.863048 25.384873 
L 27.418376 25.361905 
L 27.576801 24.613824 
L 27.75143 24.341497 
L 28.021474 24.239784 
L 27.81264 23.737783 
L 27.661415 23.66888 
L 27.418376 23.688567 
L 27.783835 23.452331 
L 28.927021 23.435925 
L 30.071108 22.924081 
L 30.527482 22.861741 
L 31.000959 22.989702 
L 31.734578 23.560606 
L 32.11354 23.688567 
L 32.582517 23.60654 
L 33.071296 23.383429 
L 33.535772 23.035637 
L 33.926435 22.586132 
L 33.924635 22.208811 
L 34.402613 22.176 
L 35.436881 22.586132 
L 35.12003 22.802682 
L 35.055219 23.035637 
L 35.055219 23.035637 
" clip-path="url(#p5d6539168e)" style="fill: none; stroke: #000000; stroke-width: 2"/>
   </g>
  </g>
 </g>
 <defs>
  <clipPath id="p5d6539168e">
   <rect x="0" y="-0" width="314.513743" height="266.112"/>
  </clipPath>
 </defs>
</svg>
