<?xml version="1.0" encoding="utf-8" standalone="no"?>
<!DOCTYPE svg PUBLIC "-//W3C//DTD SVG 1.1//EN"
  "http://www.w3.org/Graphics/SVG/1.1/DTD/svg11.dtd">
<svg xmlns:xlink="http://www.w3.org/1999/xlink" width="65.470338pt" height="266.112pt" viewBox="0 0 65.470338 266.112" xmlns="http://www.w3.org/2000/svg" version="1.1">
 <metadata>
  <rdf:RDF xmlns:dc="http://purl.org/dc/elements/1.1/" xmlns:cc="http://creativecommons.org/ns#" xmlns:rdf="http://www.w3.org/1999/02/22-rdf-syntax-ns#">
   <cc:Work>
    <dc:type rdf:resource="http://purl.org/dc/dcmitype/StillImage"/>
    <dc:date>2024-02-02T21:58:05.114137</dc:date>
    <dc:format>image/svg+xml</dc:format>
    <dc:creator>
     <cc:Agent>
      <dc:title>Matplotlib v3.8.2, https://matplotlib.org/</dc:title>
     </cc:Agent>
    </dc:creator>
   </cc:Work>
  </rdf:RDF>
 </metadata>
 <defs>
  <style type="text/css">*{stroke-linejoin: round; stroke-linecap: butt}</style>
 </defs>
 <g id="figure_1">
  <g id="patch_1">
   <path d="M 0 266.112 
L 65.470338 266.112 
L 65.470338 0 
L 0 0 
L 0 266.112 
z
" style="fill: none"/>
  </g>
  <g id="axes_1">
   <g id="PatchCollection_1">
    <path d="M 33.598116 243.857753 
L 33.412765 243.936 
L 33.164363 243.83278 
L 32.701998 243.531999 
L 32.701998 243.485383 
L 32.760237 243.362185 
L 32.808854 243.317789 
L 32.893173 243.298921 
L 33.178797 243.281163 
L 33.258558 243.298921 
L 33.301098 243.352196 
L 33.367946 243.534774 
L 33.405168 243.601367 
L 33.529749 243.706252 
L 33.56925 243.760637 
L 33.598116 243.857753 
" clip-path="url(#p5d2ee789b1)" style="fill: none; stroke: #000000; stroke-width: 2"/>
    <path d="M 18.859648 221.781421 
L 18.779886 221.782531 
L 18.608715 221.621596 
L 18.414501 221.4762 
L 18.475019 221.410717 
L 18.588458 221.243123 
L 18.655306 221.16876 
L 18.684678 221.145452 
L 18.976632 221.16876 
L 19.082728 221.229804 
L 19.174897 221.310826 
L 19.310872 221.382414 
L 19.283272 221.437354 
L 19.254659 221.47509 
L 19.222501 221.501728 
L 19.183506 221.522261 
L 18.977898 221.705393 
L 18.859648 221.781421 
" clip-path="url(#p5d2ee789b1)" style="fill: none; stroke: #000000; stroke-width: 2"/>
    <path d="M 59.913191 76.894847 
L 59.968898 77.013605 
L 60.004601 77.115716 
L 60.014476 77.213941 
L 59.994726 77.313832 
L 59.9375 77.423156 
L 59.867866 77.48198 
L 59.787092 77.526931 
L 59.693403 77.597409 
L 59.678717 77.558563 
L 59.657447 77.537475 
L 59.633139 77.523601 
L 59.608324 77.500294 
L 59.519699 77.59519 
L 59.416389 77.656789 
L 59.309027 77.669552 
L 59.206729 77.618497 
L 59.14849 77.530261 
L 59.163177 77.456453 
L 59.205463 77.38098 
L 59.229518 77.290524 
L 59.269273 77.188969 
L 59.362708 77.084639 
L 59.475134 76.997512 
L 59.569836 76.941462 
L 59.646052 76.928144 
L 59.832163 76.930363 
L 59.913191 76.894847 
" clip-path="url(#p5d2ee789b1)" style="fill: none; stroke: #000000; stroke-width: 2"/>
    <path d="M 5.73009 22.227055 
L 5.752879 22.254247 
L 5.786557 22.254247 
L 5.838212 22.222616 
L 5.893412 22.325836 
L 6.123582 22.514517 
L 6.220815 22.637161 
L 6.15574 22.682111 
L 6.011156 22.752035 
L 5.942788 22.8042 
L 5.875181 22.836386 
L 5.699705 22.845266 
L 5.621969 22.870238 
L 5.526254 22.830837 
L 5.497641 22.757029 
L 5.489792 22.670457 
L 5.455861 22.59443 
L 5.524988 22.49121 
L 5.624501 22.254247 
L 5.711099 22.176 
L 5.73009 22.227055 
" clip-path="url(#p5d2ee789b1)" style="fill: none; stroke: #000000; stroke-width: 2"/>
   </g>
  </g>
 </g>
 <defs>
  <clipPath id="p5d2ee789b1">
   <rect x="0" y="-0" width="65.470338" height="266.112"/>
  </clipPath>
 </defs>
</svg>
