<?xml version="1.0" encoding="utf-8" standalone="no"?>
<!DOCTYPE svg PUBLIC "-//W3C//DTD SVG 1.1//EN"
  "http://www.w3.org/Graphics/SVG/1.1/DTD/svg11.dtd">
<svg xmlns:xlink="http://www.w3.org/1999/xlink" width="357.12pt" height="154.695374pt" viewBox="0 0 357.12 154.695374" xmlns="http://www.w3.org/2000/svg" version="1.1">
 <metadata>
  <rdf:RDF xmlns:dc="http://purl.org/dc/elements/1.1/" xmlns:cc="http://creativecommons.org/ns#" xmlns:rdf="http://www.w3.org/1999/02/22-rdf-syntax-ns#">
   <cc:Work>
    <dc:type rdf:resource="http://purl.org/dc/dcmitype/StillImage"/>
    <dc:date>2024-02-02T21:58:05.144144</dc:date>
    <dc:format>image/svg+xml</dc:format>
    <dc:creator>
     <cc:Agent>
      <dc:title>Matplotlib v3.8.2, https://matplotlib.org/</dc:title>
     </cc:Agent>
    </dc:creator>
   </cc:Work>
  </rdf:RDF>
 </metadata>
 <defs>
  <style type="text/css">*{stroke-linejoin: round; stroke-linecap: butt}</style>
 </defs>
 <g id="figure_1">
  <g id="patch_1">
   <path d="M 0 154.695374 
L 357.12 154.695374 
L 357.12 0 
L 0 0 
L 0 154.695374 
z
" style="fill: none"/>
  </g>
  <g id="axes_1">
   <g id="PatchCollection_1">
    <path d="M 327.198152 141.675048 
L 326.836268 141.804093 
L 326.734431 141.606838 
L 326.909008 141.429861 
L 327.056308 141.252884 
L 327.294533 141.275007 
L 327.36 141.59762 
L 327.198152 141.675048 
" clip-path="url(#pf23f02afb9)" style="fill: none; stroke: #000000; stroke-width: 2"/>
    <path d="M 285.737826 127.299374 
L 285.345027 127.36574 
L 285.195908 127.111336 
L 285.31593 126.735261 
L 285.614167 126.443986 
L 286.019696 126.40896 
L 286.221551 126.484544 
L 286.236099 126.687329 
L 286.105166 127.033909 
L 285.737826 127.299374 
" clip-path="url(#pf23f02afb9)" style="fill: none; stroke: #000000; stroke-width: 2"/>
    <path d="M 283.651989 125.909369 
L 284.178494 126.01859 
L 285.119576 126.359043 
L 284.859477 127.087531 
L 284.888016 127.403032 
L 284.861635 127.842264 
L 286.077962 127.756155 
L 286.205349 128.648138 
L 284.532277 128.763062 
L 284.062204 128.819367 
L 283.688644 128.806766 
L 283.051715 128.726348 
L 282.71843 128.274131 
L 282.451769 128.023873 
L 282.146258 127.907732 
L 282.025017 127.740432 
L 281.636281 127.260747 
L 281.358507 126.918056 
L 281.357505 126.547211 
L 281.536761 126.313289 
L 281.757986 126.189213 
L 282.213992 125.968399 
L 282.629118 125.967447 
L 283.140928 125.993596 
L 283.651989 125.909369 
" clip-path="url(#pf23f02afb9)" style="fill: none; stroke: #000000; stroke-width: 2"/>
    <path d="M 131.309522 123.785648 
L 131.55684 123.804083 
L 132.086028 123.776431 
L 132.298794 123.87598 
L 132.746149 124.272334 
L 133.208051 124.570983 
L 134.45919 125.170123 
L 135.121129 125.669713 
L 135.914002 126.05685 
L 136.561393 126.552753 
L 137.023296 126.762913 
L 138.021661 127.061562 
L 138.940011 127.468977 
L 141.393188 129.240588 
L 142.751619 130.079384 
L 143.148055 130.573444 
L 142.626141 130.943989 
L 142.358819 130.945832 
L 142.16242 130.879466 
L 141.973294 130.84444 
L 141.70961 130.943989 
L 141.589588 131.100687 
L 141.413192 131.557877 
L 141.251344 131.729323 
L 140.934922 131.709045 
L 140.662145 131.408553 
L 140.420282 131.030634 
L 140.183875 130.789134 
L 139.843813 130.938458 
L 139.71288 130.943989 
L 139.581947 130.883153 
L 138.747248 130.322727 
L 138.630863 130.169716 
L 138.381727 129.207405 
L 138.185327 128.807363 
L 137.72888 128.455253 
L 137.497929 128.387044 
L 137.023296 128.357548 
L 136.799619 128.300399 
L 136.525023 128.128953 
L 136.470467 127.990689 
L 136.510475 127.852426 
L 136.510475 127.68098 
L 136.483197 127.457916 
L 136.503201 127.280939 
L 136.441371 127.107649 
L 136.188598 126.906707 
L 136.003109 126.820062 
L 135.764884 126.751852 
L 135.513929 126.718669 
L 135.288433 126.751852 
L 135.184777 126.862463 
L 134.972011 127.247756 
L 134.830167 127.371271 
L 134.63013 127.409985 
L 134.368264 127.413672 
L 133.902724 127.371271 
L 133.517199 127.227477 
L 132.651586 126.750009 
L 132.207868 126.598841 
L 132.320616 126.364716 
L 132.38972 126.274384 
L 131.982372 125.98311 
L 131.622306 126.012606 
L 131.316796 126.176678 
L 131.062203 126.274384 
L 130.667586 126.174834 
L 130.374805 125.92043 
L 129.734687 125.124035 
L 129.641943 124.805108 
L 129.532832 124.650253 
L 129.367347 124.478807 
L 129.320066 124.360823 
L 129.450999 123.966312 
L 129.603754 123.699003 
L 130.051109 123.284214 
L 130.211138 123.013218 
L 130.287516 123.10355 
L 130.363894 123.13489 
L 130.443908 123.151482 
L 130.531197 123.180978 
L 130.853074 123.522027 
L 131.071296 123.678725 
L 131.309522 123.785648 
" clip-path="url(#pf23f02afb9)" style="fill: none; stroke: #000000; stroke-width: 2"/>
    <path d="M 126.810515 119.538206 
L 126.857797 119.917969 
L 126.337701 119.711496 
L 125.904895 119.600886 
L 125.519369 119.418378 
L 125.16294 118.992528 
L 125.341155 118.974093 
L 125.490273 118.999902 
L 125.632117 119.058894 
L 125.773962 119.147383 
L 126.166761 119.197157 
L 126.548649 119.309611 
L 126.810515 119.538206 
" clip-path="url(#pf23f02afb9)" style="fill: none; stroke: #000000; stroke-width: 2"/>
    <path d="M 276.832639 118.455889 
L 276.66594 118.992974 
L 276.150012 119.546849 
L 275.979234 119.565012 
L 275.754235 119.619005 
L 275.583841 119.5746 
L 275.397368 119.467776 
L 275.39122 119.316231 
L 275.403678 119.111508 
L 275.539616 118.942237 
L 275.617189 118.789931 
L 275.590557 118.478096 
L 275.274112 118.667388 
L 275.016758 118.880135 
L 274.888146 118.683527 
L 274.934317 118.172435 
L 275.258476 117.761402 
L 275.651526 117.402288 
L 275.947693 117.30324 
L 276.289913 117.42811 
L 276.632606 117.705083 
L 276.814506 118.027557 
L 276.832639 118.455889 
" clip-path="url(#pf23f02afb9)" style="fill: none; stroke: #000000; stroke-width: 2"/>
    <path d="M 265.58064 104.73038 
L 265.959655 104.933938 
L 266.021485 105.039018 
L 266.112411 105.138567 
L 266.776047 105.050308 
L 267.403686 105.075128 
L 267.518707 105.636814 
L 267.275374 105.892205 
L 267.185335 106.33316 
L 266.351871 106.66036 
L 266.084443 106.900635 
L 265.674772 107.092028 
L 265.431529 107.283363 
L 264.995842 107.25307 
L 264.843087 107.295471 
L 264.266741 107.06779 
L 263.985345 107.285122 
L 263.784711 107.433734 
L 263.533756 107.361837 
L 262.743722 107.48745 
L 261.795926 108.583043 
L 261.129116 109.589625 
L 260.847416 109.308976 
L 260.915217 108.685273 
L 260.647632 108.366982 
L 260.378406 108.315628 
L 259.746258 108.887452 
L 259.079342 108.848486 
L 258.77184 108.312469 
L 258.70823 107.419501 
L 258.694882 106.947095 
L 259.122128 106.643789 
L 259.323709 106.335779 
L 259.579862 105.978655 
L 259.784972 105.966227 
L 259.686743 106.747225 
L 260.016408 107.115416 
L 260.23495 107.179896 
L 260.349898 106.886489 
L 260.374841 106.541599 
L 260.442062 105.945004 
L 260.813507 105.423002 
L 261.488836 104.794124 
L 262.500682 104.719205 
L 264.091334 104.891373 
L 264.809469 104.571434 
L 265.58064 104.73038 
" clip-path="url(#pf23f02afb9)" style="fill: none; stroke: #000000; stroke-width: 2"/>
    <path d="M 258.521929 99.466094 
L 258.305525 99.53246 
L 258.130948 99.484529 
L 258.021837 99.266995 
L 258.041841 99.010747 
L 258.096396 98.854049 
L 258.229148 98.747126 
L 258.545569 98.82824 
L 258.74015 99.132419 
L 258.692869 99.355483 
L 258.521929 99.466094 
" clip-path="url(#pf23f02afb9)" style="fill: none; stroke: #000000; stroke-width: 2"/>
    <path d="M 269.633056 94.916316 
L 269.631237 96.007673 
L 269.778537 95.956055 
L 269.854915 95.915498 
L 270.182247 95.90075 
L 270.469573 96.099848 
L 270.247714 96.527542 
L 269.833093 96.918366 
L 269.516671 96.96261 
L 269.489393 96.632622 
L 269.533038 96.335817 
L 269.385738 96.322913 
L 269.323908 96.168058 
L 269.483938 95.697964 
L 269.560315 95.222339 
L 269.543949 94.785427 
L 269.633056 94.916316 
" clip-path="url(#pf23f02afb9)" style="fill: none; stroke: #000000; stroke-width: 2"/>
    <path d="M 169.702013 96.22152 
L 169.194647 96.479611 
L 169.036436 96.450115 
L 168.952785 96.361627 
L 168.945511 96.239955 
L 169.041892 96.088787 
L 169.151003 95.878627 
L 169.063714 95.782765 
L 168.90914 95.745895 
L 168.81094 95.705338 
L 168.512704 95.155972 
L 168.507248 94.857324 
L 168.81094 94.59739 
L 169.298302 94.993744 
L 169.663824 95.62791 
L 169.702013 96.22152 
" clip-path="url(#pf23f02afb9)" style="fill: none; stroke: #000000; stroke-width: 2"/>
    <path d="M 159.985687 94.641634 
L 160.100253 94.763305 
L 161.333206 94.536554 
L 163.706368 95.594727 
L 166.10499 97.091656 
L 167.425232 98.181169 
L 167.841672 98.015253 
L 168.130816 98.194073 
L 168.581808 98.887232 
L 168.910959 99.097392 
L 170.160279 99.243029 
L 170.945877 99.818204 
L 171.158643 100.039425 
L 171.64055 100.061547 
L 172.160645 99.945406 
L 172.487978 99.740776 
L 173.700928 100.039425 
L 174.015531 99.895631 
L 175.037536 100.752862 
L 175.764942 100.669904 
L 176.259578 100.69387 
L 176.361415 100.216401 
L 176.712389 100.056016 
L 176.925155 100.052329 
L 177.368873 100.255115 
L 178.219938 101.289323 
L 178.47453 101.438647 
L 178.660018 101.785226 
L 179.216484 103.15864 
L 179.642016 103.433322 
L 179.756583 104.176256 
L 179.94389 104.517305 
L 180.236671 104.779083 
L 181.260495 105.590226 
L 181.349602 105.946023 
L 181.285954 107.348933 
L 180.980444 107.514849 
L 180.751311 107.798749 
L 180.902247 108.362862 
L 181.611468 108.47716 
L 182.504359 108.44582 
L 183.206306 108.573022 
L 183.444532 108.462412 
L 183.602742 108.646762 
L 183.58092 108.915914 
L 183.282684 109.052334 
L 182.453441 108.901166 
L 182.140656 109.052334 
L 181.740583 108.90854 
L 181.056821 108.842174 
L 179.456528 108.219069 
L 178.94007 108.285435 
L 178.449071 108.742625 
L 177.914427 108.561961 
L 177.088821 108.523247 
L 176.619644 108.123206 
L 175.632191 107.732382 
L 175.081181 107.348933 
L 174.797492 107.395021 
L 173.939153 107.573841 
L 173.728205 107.450326 
L 172.793489 107.17933 
L 172.826222 107.223574 
L 172.4116 107.348933 
L 172.266119 107.297315 
L 171.955153 107.024476 
L 171.735113 106.96364 
L 171.585994 106.806942 
L 171.40778 106.408744 
L 171.265936 106.886212 
L 170.516708 106.452988 
L 170.185738 106.563599 
L 169.963879 106.233611 
L 169.880227 106.111939 
L 169.672917 106.198584 
L 169.489247 106.051103 
L 169.214651 105.38191 
L 168.354493 105.324761 
L 168.130816 104.85098 
L 168.010794 104.638976 
L 167.552528 104.410381 
L 166.952418 103.927382 
L 166.816029 104.01034 
L 166.708737 104.209439 
L 166.468693 104.060115 
L 166.052253 103.636108 
L 165.959509 103.307964 
L 165.593987 103.15864 
L 165.593987 102.826808 
L 165.288477 102.52816 
L 165.102988 102.751224 
L 164.835666 102.826808 
L 164.208279 102.695919 
L 164.666544 101.289323 
L 164.421045 101.132625 
L 164.290112 100.437622 
L 164.151905 100.404439 
L 163.442684 100.51505 
L 163.824572 99.882726 
L 163.806387 99.558269 
L 163.442684 99.43291 
L 163.824572 98.601488 
L 164.060979 98.33418 
L 163.780928 98.149829 
L 163.291747 98.181169 
L 162.598893 97.718448 
L 161.729643 97.652082 
L 161.485962 97.390304 
L 160.696726 97.408739 
L 160.012964 97.694483 
L 159.860209 97.589403 
L 159.034603 97.417956 
L 158.850933 97.252041 
L 158.758189 96.910992 
L 158.950951 96.416932 
L 158.850933 96.169902 
L 159.17281 95.87494 
L 159.016418 95.520987 
L 159.005507 95.02877 
L 159.189177 94.606607 
L 159.734731 94.519962 
L 159.985687 94.641634 
L 159.985687 94.641634 
" clip-path="url(#pf23f02afb9)" style="fill: none; stroke: #000000; stroke-width: 2"/>
    <path d="M 290.880587 87.507259 
L 290.700554 87.527537 
L 290.433232 87.341343 
L 290.26411 86.932084 
L 290.36231 86.723768 
L 290.600535 86.74589 
L 290.855127 87.037164 
L 290.938779 87.330282 
L 290.880587 87.507259 
" clip-path="url(#pf23f02afb9)" style="fill: none; stroke: #000000; stroke-width: 2"/>
    <path d="M 288.97842 85.488618 
L 288.883857 85.532862 
L 288.61108 85.459121 
L 288.894768 85.425938 
L 288.97842 85.488618 
" clip-path="url(#pf23f02afb9)" style="fill: none; stroke: #000000; stroke-width: 2"/>
    <path d="M 174.333771 82.815531 
L 174.350137 82.999882 
L 174.311949 83.117867 
L 174.179197 83.276408 
L 174.13919 83.447854 
L 174.104638 83.519751 
L 174.015531 83.586118 
L 174.153738 83.910575 
L 174.437426 85.781735 
L 174.437426 86.157811 
L 174.333771 86.539417 
L 174.017349 86.273952 
L 173.713657 85.765144 
L 173.493617 85.160473 
L 173.231751 83.575057 
L 173.264484 83.276408 
L 173.493617 82.94089 
L 173.760939 82.900333 
L 174.050083 82.933516 
L 174.333771 82.815531 
" clip-path="url(#pf23f02afb9)" style="fill: none; stroke: #000000; stroke-width: 2"/>
    <path d="M 162.009694 76.588162 
L 162.680726 77.541256 
L 163.248103 78.693448 
L 163.52088 79.017905 
L 163.640902 79.205943 
L 163.806387 79.709221 
L 163.984601 79.952564 
L 164.199186 80.184846 
L 164.373764 80.433719 
L 164.666544 80.959119 
L 164.817481 81.373908 
L 164.862944 81.766575 
L 164.830211 82.583249 
L 164.906588 82.961168 
L 165.232103 83.715163 
L 165.288477 84.220284 
L 165.181184 84.730936 
L 164.966599 85.134664 
L 164.755652 85.215778 
L 164.666544 84.754902 
L 163.748194 83.740972 
L 163.537247 83.18792 
L 163.395402 82.939046 
L 163.151721 82.815531 
L 162.90804 82.889272 
L 162.748011 83.523438 
L 162.515241 83.910575 
L 162.151538 83.525282 
L 161.758739 82.996195 
L 161.43868 82.439456 
L 161.305929 81.963831 
L 161.305929 80.577513 
L 161.305929 79.255718 
L 161.251373 78.759814 
L 161.264103 78.472227 
L 161.627806 77.817782 
L 161.558702 77.454611 
L 161.382306 77.082222 
L 161.305929 76.612128 
L 161.207729 76.656372 
L 160.958592 76.722738 
L 160.864029 76.766982 
L 160.864029 76.293201 
L 160.71673 75.859976 
L 160.23846 75.05252 
L 160.402126 74.930849 
L 160.509419 74.94744 
L 160.696726 75.220279 
L 160.994962 75.533676 
L 161.762376 76.005614 
L 161.918768 76.226835 
L 162.009694 76.588162 
" clip-path="url(#pf23f02afb9)" style="fill: none; stroke: #000000; stroke-width: 2"/>
    <path d="M 128.790878 77.067474 
L 130.134761 77.076692 
L 130.580297 76.94949 
L 131.109485 76.643467 
L 132.833437 77.076692 
L 133.051659 76.98636 
L 133.66268 76.612128 
L 134.139131 76.661902 
L 135.288433 76.921837 
L 135.437551 76.879436 
L 135.746698 76.612128 
L 136.06312 76.746704 
L 136.188598 76.766982 
L 137.956194 76.743017 
L 138.359905 76.661902 
L 138.589038 76.872062 
L 139.041848 77.067474 
L 139.505569 77.707171 
L 140.402097 78.022411 
L 140.7658 78.435357 
L 141.393188 79.410572 
L 142.222431 79.299962 
L 143.242618 79.751621 
L 144.180972 80.452154 
L 144.762896 81.097382 
L 145.013852 81.943552 
L 145.177518 83.073622 
L 145.421199 83.080996 
L 145.779446 82.970386 
L 146.294086 83.128928 
L 146.759626 83.43495 
L 147.688887 83.740972 
L 147.781632 84.56502 
L 148.138061 84.795459 
L 148.319912 85.883128 
L 148.6036 86.229708 
L 148.56723 86.908119 
L 147.981668 87.287881 
L 145.428473 87.918361 
L 144.546493 88.489848 
L 142.931652 88.084277 
L 141.504117 87.405866 
L 141.016755 87.31369 
L 140.100224 87.483293 
L 139.81108 87.402179 
L 139.158233 86.686898 
L 138.798167 86.70902 
L 138.490838 86.229708 
L 137.296073 85.72643 
L 134.791978 85.613976 
L 132.906178 85.908937 
L 130.687589 85.842571 
L 128.736323 85.51074 
L 127.617936 84.994558 
L 126.464997 85.245275 
L 126.003094 84.907913 
L 124.568286 83.586118 
L 123.933624 83.182389 
L 123.957265 82.815531 
L 123.682669 82.671738 
L 123.482632 82.384151 
L 123.413529 81.965674 
L 123.257137 81.886403 
L 122.882522 81.832942 
L 122.8116 81.690992 
L 122.875248 81.252237 
L 122.406071 80.282552 
L 121.72231 79.488 
L 121.240403 79.084272 
L 121.180392 78.868581 
L 121.68594 78.547811 
L 121.80778 78.315529 
L 121.764136 78.081403 
L 121.349514 77.399305 
L 121.340422 77.13384 
L 121.478629 76.296888 
L 121.111289 75.517084 
L 121.024 75.450718 
L 121.349514 75.05252 
L 121.413162 74.28009 
L 121.556825 73.951946 
L 122.231494 73.71229 
L 123.635388 72.873494 
L 124.410075 73.140803 
L 125.199311 73.649611 
L 126.399531 74.742811 
L 127.450632 75.600042 
L 127.548832 75.924499 
L 128.087113 76.67665 
L 128.381712 76.921837 
L 128.790878 77.067474 
L 128.790878 77.067474 
" clip-path="url(#pf23f02afb9)" style="fill: none; stroke: #000000; stroke-width: 2"/>
    <path d="M 126.399531 69.610485 
L 126.565016 70.041866 
L 126.668671 70.556205 
L 126.619571 70.991272 
L 126.314061 71.171936 
L 125.997639 71.026299 
L 125.806695 70.666815 
L 125.768506 70.209625 
L 125.926717 69.778244 
L 126.063105 69.748748 
L 126.172216 69.752435 
L 126.279509 69.722939 
L 126.399531 69.610485 
" clip-path="url(#pf23f02afb9)" style="fill: none; stroke: #000000; stroke-width: 2"/>
    <path d="M 139.121863 70.526708 
L 138.790893 71.131379 
L 138.490838 71.324947 
L 138.325353 71.479802 
L 137.847083 71.323104 
L 137.394273 71.053952 
L 136.952374 70.882505 
L 136.510475 71.017082 
L 136.603219 71.293608 
L 136.270431 71.485333 
L 135.75761 71.595943 
L 135.288433 71.634657 
L 135.397544 71.455836 
L 135.381177 71.312043 
L 135.239333 71.214337 
L 134.968374 71.171936 
L 135.097489 70.948872 
L 135.288433 70.860383 
L 135.815802 70.862227 
L 136.06312 70.788487 
L 136.319531 70.61151 
L 136.52866 70.408724 
L 136.66323 70.242808 
L 136.946918 69.133017 
L 137.176051 68.659235 
L 137.563395 68.697949 
L 138.165324 69.774557 
L 138.409005 69.933099 
L 138.747248 69.94416 
L 139.01457 69.984717 
L 139.220062 70.08058 
L 139.39464 70.242808 
L 139.121863 70.526708 
" clip-path="url(#pf23f02afb9)" style="fill: none; stroke: #000000; stroke-width: 2"/>
    <path d="M 112.644282 68.963414 
L 112.764304 69.06665 
L 113.067996 68.991066 
L 113.004348 69.549649 
L 112.680653 69.920194 
L 111.682288 70.397663 
L 111.702291 69.785618 
L 111.778669 69.361612 
L 112.153283 68.543094 
L 112.380598 68.509911 
L 112.838863 67.97345 
L 113.067996 67.783569 
L 113.062541 67.884962 
L 113.02617 67.945798 
L 112.969797 68.001103 
L 112.915241 68.07853 
L 112.915241 68.305282 
L 112.873415 68.36243 
L 112.915241 68.543094 
L 112.697019 68.760628 
L 112.644282 68.963414 
" clip-path="url(#pf23f02afb9)" style="fill: none; stroke: #000000; stroke-width: 2"/>
    <path d="M 133.593577 67.134654 
L 133.99365 67.311631 
L 134.404634 67.271074 
L 134.797434 67.322692 
L 135.121129 67.783569 
L 135.288433 67.783569 
L 135.506654 67.403806 
L 135.903091 67.466486 
L 136.350445 67.783569 
L 136.732334 68.155957 
L 136.874178 68.657392 
L 136.723241 69.298932 
L 136.406819 69.888855 
L 136.048572 70.242808 
L 135.972194 70.069519 
L 135.893998 69.997622 
L 135.775795 70.006839 
L 135.593943 70.075049 
L 135.566665 69.80774 
L 135.441188 69.604955 
L 135.237514 69.488814 
L 134.968374 69.472222 
L 135.022929 69.593894 
L 135.121129 69.933099 
L 134.968374 69.933099 
L 134.604671 69.339489 
L 134.328257 69.114582 
L 133.979102 69.232566 
L 133.640858 69.391108 
L 133.226236 69.409543 
L 132.818889 69.31368 
L 132.513379 69.158826 
L 132.467916 69.026093 
L 132.458823 68.81962 
L 132.424271 68.626052 
L 132.298794 68.543094 
L 132.135127 68.515441 
L 132.00965 68.439858 
L 131.933272 68.318186 
L 131.905994 68.155957 
L 132.086028 68.100652 
L 132.487919 68.056408 
L 132.906178 67.927362 
L 133.138948 67.613966 
L 133.291703 67.783569 
L 133.397177 67.602905 
L 133.437184 67.459112 
L 133.400814 67.319005 
L 133.291703 67.134654 
L 133.378992 67.035105 
L 133.439003 67.027731 
L 133.593577 67.134654 
" clip-path="url(#pf23f02afb9)" style="fill: none; stroke: #000000; stroke-width: 2"/>
    <path d="M 110.778486 66.998235 
L 110.929423 67.304257 
L 110.963974 67.542069 
L 111.01853 67.735638 
L 111.240389 67.923675 
L 111.353137 67.919988 
L 111.527714 67.669271 
L 111.698654 67.636088 
L 112.153283 67.783569 
L 111.404055 69.300776 
L 111.083996 69.610485 
L 110.018346 69.933099 
L 109.825584 69.798523 
L 109.669192 69.566241 
L 109.494614 69.435352 
L 109.240022 69.610485 
L 108.670827 68.81409 
L 108.709016 68.559686 
L 109.407325 68.543094 
L 109.269118 68.240759 
L 109.341859 68.026912 
L 109.554625 67.953172 
L 109.851043 68.07853 
L 109.851043 67.783569 
L 109.958335 67.824126 
L 110.30749 67.923675 
L 110.276576 67.685863 
L 110.189287 67.477547 
L 110.045624 67.293196 
L 109.851043 67.134654 
L 110.171102 67.134654 
L 110.389324 67.245265 
L 110.563901 67.260013 
L 110.694834 67.178898 
L 110.778486 66.998235 
" clip-path="url(#pf23f02afb9)" style="fill: none; stroke: #000000; stroke-width: 2"/>
    <path d="M 132.680682 66.679308 
L 132.666134 67.134654 
L 132.353349 67.000078 
L 132.167861 67.165994 
L 131.905994 67.783569 
L 131.627762 67.569722 
L 131.658676 67.33744 
L 131.81325 67.075662 
L 131.905994 66.756735 
L 131.800521 66.159439 
L 131.873261 65.973244 
L 132.207868 65.914252 
L 132.56066 66.382503 
L 132.680682 66.679308 
" clip-path="url(#pf23f02afb9)" style="fill: none; stroke: #000000; stroke-width: 2"/>
    <path d="M 76.297621 60.711873 
L 76.528572 60.927563 
L 76.692238 61.146941 
L 76.854086 61.24649 
L 77.301441 61.464024 
L 77.623318 61.943336 
L 77.601496 62.418961 
L 77.006841 62.636495 
L 76.810442 62.573816 
L 76.008477 62.157183 
L 74.93919 61.865909 
L 73.753518 61.360788 
L 73.209782 60.960747 
L 73.275248 60.612324 
L 74.109947 60.737682 
L 74.470013 60.750587 
L 74.802801 60.612324 
L 74.93919 60.781926 
L 75.128315 60.485122 
L 75.251974 60.350546 
L 75.382907 60.287866 
L 75.5884 60.324736 
L 75.717514 60.439034 
L 75.812077 60.557018 
L 75.924825 60.612324 
L 76.297621 60.711873 
" clip-path="url(#pf23f02afb9)" style="fill: none; stroke: #000000; stroke-width: 2"/>
    <path d="M 89.985584 63.432891 
L 89.629155 63.565623 
L 89.205441 62.894586 
L 89.101786 62.776602 
L 88.879927 62.653087 
L 88.879927 62.37103 
L 89.032682 61.788482 
L 89.138156 61.580165 
L 89.79464 61.076888 
L 89.914662 60.874102 
L 90.011043 60.616011 
L 90.07651 60.317362 
L 90.10015 59.992905 
L 90.252906 59.992905 
L 90.252906 60.472217 
L 90.438394 60.804048 
L 90.591149 61.325761 
L 90.645705 61.843787 
L 90.558416 62.157183 
L 91.182167 62.404213 
L 91.158526 62.614373 
L 91.082149 62.79135 
L 90.960308 62.913021 
L 90.451124 63.042067 
L 89.985584 63.432891 
" clip-path="url(#pf23f02afb9)" style="fill: none; stroke: #000000; stroke-width: 2"/>
    <path d="M 85.744807 56.965865 
L 86.035769 57.08938 
L 86.27945 56.965865 
L 86.497672 56.746488 
L 86.717712 56.575042 
L 87.181434 56.468118 
L 87.743355 56.469962 
L 88.212532 56.622973 
L 88.407113 56.965865 
L 88.463487 57.448864 
L 88.428935 57.61478 
L 88.256176 57.813879 
L 88.047047 57.874715 
L 87.796092 57.852592 
L 87.581507 57.872871 
L 87.4924 58.053535 
L 87.388744 58.134649 
L 86.955938 58.306095 
L 86.897745 58.448045 
L 87.032315 58.582622 
L 87.470577 58.648988 
L 87.645155 58.757755 
L 87.770632 58.67664 
L 87.865195 58.643457 
L 88.103421 58.6029 
L 87.819732 58.982663 
L 87.672433 59.111708 
L 87.4924 59.222319 
L 87.999765 59.734814 
L 87.808821 60.263901 
L 86.897745 61.076888 
L 86.619512 61.502738 
L 86.510401 61.62994 
L 86.308546 61.751611 
L 85.919384 61.843787 
L 85.744807 61.943336 
L 85.424748 61.989424 
L 84.930112 61.884344 
L 84.486394 61.733176 
L 84.289994 61.62994 
L 84.229984 61.478772 
L 84.093595 61.375536 
L 83.831729 61.24649 
L 83.733529 61.132193 
L 83.602596 60.896224 
L 83.509852 60.781926 
L 82.857005 60.199378 
L 82.747894 60.070332 
L 82.747894 58.912609 
L 82.900649 58.123588 
L 82.991575 57.987169 
L 83.122508 57.854436 
L 83.220708 57.666398 
L 83.206159 57.349315 
L 83.809907 57.721703 
L 84.053588 57.732764 
L 84.137239 57.349315 
L 84.289994 57.371437 
L 84.366372 57.437803 
L 84.44275 57.673772 
L 84.622783 57.378811 
L 84.562772 57.161277 
L 84.44275 56.925308 
L 84.44275 56.575042 
L 84.579138 56.423874 
L 85.355644 56.114165 
L 85.526585 56.080981 
L 85.592051 56.049642 
L 85.661155 55.95931 
L 85.828458 56.114165 
L 85.828458 56.269019 
L 85.639333 56.409126 
L 85.562955 56.580572 
L 85.599325 56.770453 
L 85.744807 56.965865 
" clip-path="url(#pf23f02afb9)" style="fill: none; stroke: #000000; stroke-width: 2"/>
    <path d="M 71.551296 57.50417 
L 71.502196 57.588971 
L 71.363989 57.699581 
L 71.262152 57.706955 
L 71.180319 57.673772 
L 71.114852 57.673772 
L 71.016653 57.673772 
L 70.918453 57.609249 
L 70.803886 57.57791 
L 70.654768 57.673772 
L 70.623853 57.78807 
L 70.654768 58.293191 
L 70.487465 58.945793 
L 70.460187 59.312651 
L 70.57839 59.613142 
L 71.38763 60.485122 
L 71.84044 60.805892 
L 72.347806 60.936781 
L 72.347806 61.076888 
L 71.998651 61.158002 
L 71.582211 61.139567 
L 71.182138 61.038174 
L 70.883901 60.859354 
L 70.623853 60.601263 
L 70.465643 60.507244 
L 70.265606 60.472217 
L 70.078299 60.380042 
L 70.043747 60.162508 
L 70.061932 59.904417 
L 70.045566 59.699787 
L 69.898266 59.439853 
L 69.309067 58.621335 
L 69.047201 58.448045 
L 68.687135 58.330061 
L 68.20341 58.051691 
L 67.77424 57.710642 
L 67.59057 57.426742 
L 67.650581 57.102285 
L 67.796062 56.823915 
L 67.992462 56.597164 
L 68.199773 56.423874 
L 68.796246 56.104947 
L 69.134489 55.856074 
L 69.560022 55.009903 
L 70.189228 54.388641 
L 70.865716 53.953574 
L 71.278519 53.960948 
L 71.682229 54.23563 
L 72.022291 54.667011 
L 72.260517 55.231124 
L 72.347806 55.889257 
L 72.271428 56.03305 
L 71.945914 56.414656 
L 71.713144 57.172338 
L 71.654951 57.279262 
L 71.593122 57.354845 
L 71.551296 57.50417 
" clip-path="url(#pf23f02afb9)" style="fill: none; stroke: #000000; stroke-width: 2"/>
    <path d="M 122.507908 55.53899 
L 123.180759 56.114165 
L 123.442625 56.353821 
L 123.422621 56.501301 
L 123.180759 56.733583 
L 122.977085 56.844194 
L 122.769775 56.87369 
L 122.538823 56.833133 
L 122.266046 56.733583 
L 122.009635 56.597164 
L 121.824147 56.44784 
L 121.502269 56.114165 
L 121.231311 55.682784 
L 121.044004 55.601669 
L 120.738493 55.81736 
L 120.42389 55.461563 
L 120.078372 55.273525 
L 119.832873 55.004373 
L 119.81105 54.412607 
L 119.974717 53.81531 
L 120.267498 53.430017 
L 120.714852 53.219857 
L 121.349514 53.160865 
L 122.002361 53.312033 
L 122.184213 53.677047 
L 122.113291 54.735221 
L 122.249679 55.220063 
L 122.507908 55.53899 
" clip-path="url(#pf23f02afb9)" style="fill: none; stroke: #000000; stroke-width: 2"/>
    <path d="M 191.466002 53.374712 
L 191.335069 53.406052 
L 191.153217 53.175613 
L 191.251417 53.076064 
L 191.491461 53.087125 
L 191.758783 53.182987 
L 191.680587 53.273319 
L 191.586024 53.334155 
L 191.466002 53.374712 
" clip-path="url(#pf23f02afb9)" style="fill: none; stroke: #000000; stroke-width: 2"/>
    <path d="M 148.025313 52.736858 
L 148.234442 52.928583 
L 148.589052 53.795032 
L 148.66543 54.141611 
L 149.074596 54.412607 
L 149.825643 55.572173 
L 150.984037 56.825759 
L 151.884202 57.588971 
L 152.631611 58.717198 
L 152.720719 59.141204 
L 152.544323 59.613142 
L 152.120609 59.878608 
L 151.196803 60.287866 
L 151.442302 60.885163 
L 151.43321 61.181968 
L 151.076781 61.799543 
L 151.147703 62.378404 
L 151.291366 63.042067 
L 151.807824 63.648581 
L 151.946031 63.869802 
L 152.262453 63.814497 
L 152.797096 63.565623 
L 152.997133 63.654111 
L 153.804554 64.339896 
L 153.724539 64.621953 
L 153.669984 64.763903 
L 153.984587 65.075456 
L 154.262819 64.970376 
L 154.786552 65.21925 
L 155.346654 65.617447 
L 155.861294 66.120725 
L 156.259549 66.684838 
L 155.968587 66.570541 
L 155.741272 66.747518 
L 155.675806 67.005609 
L 156.397756 67.525478 
L 156.526871 67.884962 
L 156.412304 68.233385 
L 156.695993 68.487789 
L 156.87057 69.210444 
L 157.176081 69.300776 
L 157.594339 69.610485 
L 157.56888 69.958908 
L 157.008777 70.397663 
L 157.557969 70.699998 
L 157.645258 70.862227 
L 157.93622 70.747929 
L 158.198086 70.816139 
L 158.332656 71.020769 
L 158.256279 71.324947 
L 158.850933 71.479802 
L 158.850933 71.634657 
L 157.943494 71.911183 
L 158.054423 72.442113 
L 158.31629 72.740761 
L 158.447223 73.559279 
L 158.714544 73.813683 
L 158.412671 73.979599 
L 157.950768 73.505817 
L 157.743457 73.631176 
L 157.792557 73.874519 
L 157.978046 74.145514 
L 159.112799 75.423065 
L 159.816565 77.19652 
L 160.56943 78.018724 
L 161.000418 78.792997 
L 161.256829 81.058668 
L 161.118621 81.346256 
L 160.878577 81.418152 
L 160.543971 81.252237 
L 159.17281 80.417128 
L 158.950951 79.688942 
L 157.950768 78.315529 
L 157.541602 77.012169 
L 156.488682 75.909751 
L 154.957492 75.128104 
L 154.422849 74.501311 
L 153.379021 74.357518 
L 153.499043 73.968537 
L 152.5716 73.041253 
L 151.81328 72.790536 
L 151.807824 72.254075 
L 151.287729 71.795042 
L 150.023861 71.225398 
L 149.532862 70.707372 
L 147.908928 67.698768 
L 147.337914 65.881069 
L 147.337914 65.622978 
L 147.217892 65.449688 
L 147.203344 65.1197 
L 146.857826 63.980412 
L 146.548678 63.493726 
L 145.541221 61.316544 
L 145.486665 59.889669 
L 144.762896 58.293191 
L 146.224983 57.349315 
L 146.226801 57.144685 
L 145.690339 55.95931 
L 144.404649 54.423668 
L 143.400829 53.328624 
L 143.122596 52.322069 
L 143.575406 51.98102 
L 144.404649 52.078726 
L 145.233892 52.386592 
L 145.843094 52.865904 
L 146.315908 52.692614 
L 146.455934 52.515637 
L 146.379556 52.316539 
L 145.690339 51.859349 
L 145.908561 51.545952 
L 146.30136 51.472212 
L 146.30136 51.614162 
L 146.821456 51.62338 
L 147.09787 51.781921 
L 147.792543 52.609656 
L 148.025313 52.736858 
L 148.025313 52.736858 
" clip-path="url(#pf23f02afb9)" style="fill: none; stroke: #000000; stroke-width: 2"/>
    <path d="M 66.508554 52.078726 
L 66.508554 52.246485 
L 65.861162 51.866723 
L 65.537467 51.026083 
L 65.124664 50.25181 
L 64.219043 50.065616 
L 64.297239 49.999249 
L 64.44272 49.83149 
L 64.524554 49.75775 
L 64.159032 49.589991 
L 63.76987 49.282125 
L 63.606203 48.976103 
L 63.913533 48.815717 
L 64.217225 49.064591 
L 64.795512 49.105148 
L 65.353797 49.219446 
L 65.604752 49.680322 
L 65.639303 49.971597 
L 65.897533 50.839889 
L 66.019373 51.59204 
L 66.184858 51.910967 
L 66.508554 52.078726 
" clip-path="url(#pf23f02afb9)" style="fill: none; stroke: #000000; stroke-width: 2"/>
    <path d="M 65.286511 48.209203 
L 65.833885 48.400928 
L 66.355798 48.362214 
L 66.839523 48.400928 
L 67.28506 48.815717 
L 67.497826 49.291342 
L 67.661492 49.883108 
L 67.754236 50.528336 
L 67.741507 51.149598 
L 67.59057 51.149598 
L 67.546926 50.828828 
L 67.377804 50.767992 
L 67.163219 50.78274 
L 66.966819 50.697939 
L 66.879531 50.53018 
L 66.674038 49.897856 
L 66.461272 49.499659 
L 66.210317 49.160453 
L 65.882984 48.882084 
L 65.439267 48.660863 
L 65.604752 48.518913 
L 65.375619 48.49679 
L 65.271963 48.439642 
L 65.255597 48.345623 
L 65.286511 48.209203 
" clip-path="url(#pf23f02afb9)" style="fill: none; stroke: #000000; stroke-width: 2"/>
    <path d="M 58.867153 45.862418 
L 58.948986 46.240337 
L 59.183575 46.185032 
L 59.554552 47.167621 
L 58.976264 47.145499 
L 58.310687 46.561107 
L 58.40525 45.862418 
L 58.867153 45.862418 
" clip-path="url(#pf23f02afb9)" style="fill: none; stroke: #000000; stroke-width: 2"/>
    <path d="M 77.312352 48.898675 
L 77.506933 49.256316 
L 77.394185 50.065616 
L 77.54694 49.901543 
L 78.14705 50.01031 
L 78.616227 49.75775 
L 79.416374 49.669261 
L 79.767347 49.789089 
L 80.612957 50.53018 
L 81.027578 51.525674 
L 81.605866 51.922028 
L 81.834999 52.246485 
L 81.834999 53.018915 
L 81.960477 53.223544 
L 82.442383 53.638334 
L 82.627872 54.01994 
L 82.900649 55.197941 
L 83.147967 55.28643 
L 83.286174 55.336204 
L 83.366189 55.728872 
L 83.286174 55.915066 
L 82.78972 56.790732 
L 82.767897 57.452551 
L 82.900649 57.813879 
L 81.524033 57.268201 
L 80.918467 57.211052 
L 80.918467 57.349315 
L 81.223978 57.537353 
L 81.434926 57.819409 
L 81.504029 58.18258 
L 81.376733 58.6029 
L 81.223978 58.6029 
L 81.174878 58.230512 
L 79.987388 56.575042 
L 79.398189 56.250584 
L 78.179784 56.143661 
L 77.617863 55.889257 
L 76.634046 55.197941 
L 76.008477 54.490034 
L 75.972106 54.158203 
L 75.717514 53.328624 
L 75.717514 51.936776 
L 75.970288 52.465863 
L 76.128499 53.363651 
L 76.652231 53.511132 
L 77.001386 53.913016 
L 77.230519 53.406052 
L 77.110497 53.171926 
L 76.583127 52.666805 
L 76.121225 51.391098 
L 75.77207 50.867541 
L 75.382907 50.53018 
L 74.902819 50.520962 
L 74.331806 50.697939 
L 73.866266 50.406665 
L 73.733514 50.697939 
L 73.302526 50.550458 
L 72.653316 50.839889 
L 70.807523 50.839889 
L 70.225599 51.990238 
L 69.740055 52.246485 
L 69.347256 52.161684 
L 68.583479 51.713712 
L 68.199773 51.781921 
L 68.125214 49.540216 
L 68.583479 48.983477 
L 69.161767 48.950293 
L 69.5873 48.660863 
L 69.694592 48.95398 
L 69.849166 49.042469 
L 70.181954 48.815717 
L 70.251058 48.607401 
L 70.27288 47.621124 
L 70.396539 47.313258 
L 71.10576 46.380444 
L 71.654951 45.32227 
L 72.957008 44.147956 
L 74.331806 43.696296 
L 74.349991 43.829029 
L 74.410002 43.832716 
L 74.484561 43.851151 
L 76.035754 44.734191 
L 76.634046 44.780279 
L 76.477654 45.187694 
L 76.772253 46.107604 
L 76.786801 47.388842 
L 76.939556 47.733578 
L 76.728609 48.150211 
L 76.801349 48.439642 
L 77.312352 48.898675 
L 77.312352 48.898675 
" clip-path="url(#pf23f02afb9)" style="fill: none; stroke: #000000; stroke-width: 2"/>
    <path d="M 54.26631 48.935545 
L 53.880785 49.125427 
L 53.678929 48.847057 
L 53.117008 47.191587 
L 52.786038 46.680935 
L 52.731483 46.177658 
L 52.887875 45.088145 
L 52.644194 43.943326 
L 52.651468 43.45111 
L 53.040631 43.231732 
L 53.373419 43.523006 
L 53.651652 43.851151 
L 53.749852 44.090807 
L 53.88624 44.623581 
L 54.186295 45.137919 
L 54.306317 45.528743 
L 54.386332 45.934315 
L 54.411791 46.255085 
L 54.519083 46.841321 
L 54.529995 47.15656 
L 54.411791 47.438617 
L 54.586368 47.919773 
L 54.519083 48.474668 
L 54.26631 48.935545 
" clip-path="url(#pf23f02afb9)" style="fill: none; stroke: #000000; stroke-width: 2"/>
    <path d="M 144.617415 42.951519 
L 144.459204 42.986546 
L 144.260986 42.955206 
L 143.837272 42.368971 
L 143.715432 42.090601 
L 143.81545 41.815918 
L 144.066405 41.7643 
L 144.213705 41.897033 
L 144.344638 42.140376 
L 144.617415 42.951519 
" clip-path="url(#pf23f02afb9)" style="fill: none; stroke: #000000; stroke-width: 2"/>
    <path d="M 67.219593 47.025671 
L 66.837705 47.678273 
L 66.368528 47.975078 
L 65.897533 47.438617 
L 65.708407 47.510514 
L 65.615663 47.521575 
L 65.439267 47.438617 
L 64.311787 47.532636 
L 63.151575 46.575855 
L 62.255047 45.230095 
L 61.916803 44.147956 
L 61.954992 43.862212 
L 62.031369 43.589373 
L 62.235043 43.080565 
L 62.767868 42.254673 
L 62.844246 42.074009 
L 63.144301 41.780892 
L 63.831699 41.504365 
L 64.599113 41.303423 
L 65.135575 41.222309 
L 66.173947 41.771674 
L 66.908627 42.568069 
L 67.374167 43.541442 
L 67.59057 44.625424 
L 67.621485 45.702033 
L 67.557837 46.085482 
L 67.219593 47.025671 
" clip-path="url(#pf23f02afb9)" style="fill: none; stroke: #000000; stroke-width: 2"/>
    <path d="M 53.166108 40.470158 
L 52.706024 40.698753 
L 52.304132 40.488593 
L 52.327773 40.28765 
L 52.505987 40.064586 
L 52.740576 39.876548 
L 52.942431 39.889453 
L 53.024264 39.965036 
L 53.255215 40.132796 
L 53.166108 40.470158 
" clip-path="url(#pf23f02afb9)" style="fill: none; stroke: #000000; stroke-width: 2"/>
    <path d="M 54.411791 34.854833 
L 54.477258 35.044714 
L 54.595461 35.21063 
L 54.870057 35.474252 
L 54.924612 35.588549 
L 54.900972 35.688098 
L 54.920975 35.758152 
L 55.27013 35.802396 
L 55.337415 35.868762 
L 55.348326 35.986747 
L 55.342871 36.16741 
L 55.437434 36.259586 
L 55.653837 36.349918 
L 55.87024 36.504772 
L 56.057547 37.035703 
L 56.275769 37.185027 
L 56.728579 37.32882 
L 56.564913 37.498423 
L 56.866786 37.821037 
L 57.372334 37.627469 
L 57.874244 37.809976 
L 58.354332 38.110468 
L 58.790775 38.269009 
L 58.959897 38.59531 
L 58.619835 39.319809 
L 57.797866 40.451723 
L 57.379608 40.801989 
L 56.83769 41.369789 
L 56.488535 42.003956 
L 56.646746 42.544104 
L 56.855875 42.82063 
L 56.859512 43.063973 
L 56.695846 43.257541 
L 56.412158 43.373682 
L 56.341236 43.294412 
L 56.155747 43.1414 
L 55.90661 43.075034 
L 55.644744 43.231732 
L 55.495626 43.231732 
L 55.446526 42.776386 
L 55.542907 42.322883 
L 55.479259 41.97999 
L 54.426339 41.69056 
L 54.349962 41.314484 
L 54.579094 40.374295 
L 54.491806 40.193631 
L 54.291769 40.042464 
L 54.080821 39.913418 
L 53.957162 39.817556 
L 53.6662 39.209198 
L 53.513445 39.043283 
L 53.135193 38.914237 
L 53.117008 38.888428 
L 52.936975 38.866306 
L 52.915153 38.79994 
L 52.938794 38.704077 
L 52.706024 38.187895 
L 52.571454 38.114155 
L 52.276854 38.269009 
L 51.862233 37.245862 
L 52.020444 36.228246 
L 52.615098 35.376546 
L 53.513445 34.854833 
L 53.804407 34.923043 
L 54.011718 35.022592 
L 54.197206 35.039184 
L 54.411791 34.854833 
" clip-path="url(#pf23f02afb9)" style="fill: none; stroke: #000000; stroke-width: 2"/>
    <path d="M 94.890119 35.087115 
L 95.151985 35.437381 
L 95.524781 35.618045 
L 95.959406 35.739717 
L 96.308561 35.780274 
L 96.634075 35.92038 
L 96.990504 36.248525 
L 97.212363 36.613539 
L 97.146896 36.864256 
L 96.794104 36.90297 
L 96.461316 36.703871 
L 96.204906 36.392318 
L 96.063061 36.089983 
L 95.828473 36.394162 
L 95.40294 36.296456 
L 94.539146 35.780274 
L 94.58279 35.995964 
L 94.857386 36.539799 
L 94.639164 36.536112 
L 94.082698 36.399692 
L 93.538962 36.399692 
L 93.571696 36.255899 
L 93.477133 35.935128 
L 93.220722 35.618045 
L 92.775186 35.474252 
L 92.691534 35.398668 
L 92.578786 35.24197 
L 92.527868 35.079741 
L 92.622431 35.009688 
L 92.837016 35.033653 
L 93.193445 35.135046 
L 93.317104 35.149794 
L 93.357111 35.194038 
L 93.546236 35.234596 
L 93.673533 35.177447 
L 93.538962 34.93226 
L 93.538962 34.801371 
L 93.695355 34.703665 
L 93.90994 34.701822 
L 94.082698 34.854833 
L 94.339109 34.972817 
L 94.890119 35.087115 
" clip-path="url(#pf23f02afb9)" style="fill: none; stroke: #000000; stroke-width: 2"/>
    <path d="M 98.763556 35.227221 
L 98.981778 35.234596 
L 99.418222 34.735005 
L 99.821932 34.768188 
L 100.060158 34.670482 
L 100.223824 35.116611 
L 100.54752 35.407885 
L 101.420407 35.780274 
L 101.827754 35.356267 
L 101.965961 35.304649 
L 102.244194 35.398668 
L 102.576983 36.16741 
L 103.282566 36.781299 
L 103.646269 37.013581 
L 103.999061 37.671713 
L 104.40459 37.911369 
L 104.939234 38.578719 
L 105.217467 38.748321 
L 106.421324 39.286626 
L 107.563351 40.127265 
L 107.334218 40.575238 
L 107.50334 40.975279 
L 107.852495 41.185439 
L 108.170735 41.067454 
L 109.325492 41.609445 
L 109.70738 42.424276 
L 110.018346 42.306291 
L 110.625731 42.785603 
L 111.545899 42.453772 
L 112.446064 42.612314 
L 112.162376 42.743203 
L 112.233298 42.951519 
L 112.680653 43.231732 
L 113.269852 43.375526 
L 113.509896 43.851151 
L 113.891784 43.567251 
L 114.11728 43.762663 
L 114.295494 44.125834 
L 114.524627 44.315715 
L 115.550269 44.293593 
L 115.675747 44.006006 
L 116.439523 44.470569 
L 116.788678 44.208791 
L 117.01963 44.459508 
L 117.437888 45.32227 
L 118.729034 46.185032 
L 119.096374 46.398879 
L 119.1873 46.636691 
L 120.225672 47.4718 
L 122.293324 48.714324 
L 126.60866 51.984707 
L 126.70686 52.205928 
L 125.593929 53.483479 
L 125.146574 53.308346 
L 124.895619 53.337842 
L 124.704675 53.483479 
L 124.721041 53.614368 
L 125.072015 53.865085 
L 125.257503 54.244848 
L 125.679399 54.137924 
L 125.86125 53.936982 
L 126.068561 54.12502 
L 126.919626 55.406258 
L 126.996004 56.191592 
L 127.654306 56.7004 
L 127.912535 57.08385 
L 127.617936 57.349315 
L 127.417899 57.310601 
L 126.597749 56.866316 
L 126.22859 56.888438 
L 125.344792 55.911379 
L 124.726497 55.6072 
L 124.415531 55.197941 
L 123.498999 54.412607 
L 123.442625 53.848494 
L 122.849789 53.640177 
L 121.80778 52.709206 
L 119.947439 52.311008 
L 117.732488 50.978152 
L 117.350599 50.889664 
L 117.050544 50.994744 
L 115.888513 50.414039 
L 115.510262 50.53018 
L 115.081093 49.724567 
L 114.513716 49.577086 
L 114.219116 49.477537 
L 114.015443 49.289499 
L 113.984528 48.983477 
L 113.498984 49.147549 
L 113.018896 49.05353 
L 112.566086 48.8065 
L 110.334768 47.245049 
L 109.851043 47.269014 
L 109.738295 46.922435 
L 109.712836 46.636691 
L 109.443696 46.690153 
L 109.240022 46.80445 
L 108.485338 46.472619 
L 108.01798 46.494741 
L 108.014343 46.432062 
L 107.865225 46.030177 
L 107.301485 45.731529 
L 107.257841 45.399697 
L 107.108722 45.513995 
L 106.632271 45.720468 
L 106.592264 45.270652 
L 106.392227 44.924072 
L 106.068532 44.702851 
L 105.648455 44.625424 
L 104.344579 44.006006 
L 104.224557 43.1414 
L 104.039069 42.748733 
L 103.657181 42.853813 
L 102.975237 42.687897 
L 102.649723 42.475894 
L 102.817027 42.151437 
L 102.34785 41.686873 
L 102.195094 41.686873 
L 101.960506 41.992895 
L 101.725918 41.708995 
L 101.420407 40.897851 
L 100.831208 40.331895 
L 100.443864 40.193631 
L 100.060158 40.296868 
L 99.843754 39.891296 
L 98.518057 39.043283 
L 98.419857 38.497604 
L 98.518057 38.040414 
L 98.518057 37.102069 
L 96.772282 35.629106 
L 95.621162 35.009688 
L 95.424763 34.657578 
L 95.392029 34.268597 
L 95.546603 34.006819 
L 95.924854 34.065812 
L 96.384939 34.346025 
L 98.763556 35.227221 
L 98.763556 35.227221 
" clip-path="url(#pf23f02afb9)" style="fill: none; stroke: #000000; stroke-width: 2"/>
    <path d="M 92.276913 32.885967 
L 92.40239 33.140371 
L 92.695171 33.048195 
L 92.957038 33.158806 
L 93.469859 33.601248 
L 93.744455 33.37634 
L 94.229998 33.41321 
L 94.759186 33.619683 
L 95.162896 33.910957 
L 94.946493 34.025254 
L 94.797375 34.181953 
L 94.757368 34.393956 
L 94.857386 34.670482 
L 93.864477 34.471383 
L 93.608066 34.375521 
L 93.426214 34.181953 
L 93.237089 33.925705 
L 92.991589 33.69711 
L 92.324194 33.529351 
L 91.85138 33.210424 
L 91.551325 33.140371 
L 91.385841 33.015012 
L 91.354926 32.756921 
L 91.44767 32.533857 
L 91.627703 32.520952 
L 91.844106 32.666589 
L 92.075058 32.756921 
L 92.276913 32.885967 
" clip-path="url(#pf23f02afb9)" style="fill: none; stroke: #000000; stroke-width: 2"/>
    <path d="M 74.477287 30.802803 
L 75.064667 30.9171 
L 75.697511 30.841516 
L 76.259432 30.865482 
L 76.624953 31.283958 
L 76.766797 31.112512 
L 76.932282 31.283958 
L 76.794075 31.455405 
L 76.744975 31.691374 
L 76.794075 31.953152 
L 76.932282 32.196495 
L 76.321261 31.746679 
L 76.297621 32.085884 
L 76.070306 32.213086 
L 75.37927 32.196495 
L 75.37927 32.056388 
L 75.513841 31.980804 
L 75.708422 31.824106 
L 75.837536 31.746679 
L 74.955556 31.484901 
L 74.70642 31.352168 
L 74.528205 31.322672 
L 73.957192 31.350325 
L 73.728059 31.283958 
L 74.09358 31.018493 
L 74.477287 30.802803 
" clip-path="url(#pf23f02afb9)" style="fill: none; stroke: #000000; stroke-width: 2"/>
    <path d="M 91.465855 30.802803 
L 91.465855 31.422221 
L 91.551325 31.381664 
L 91.698625 31.328203 
L 91.775003 31.283958 
L 91.687714 31.488588 
L 91.627703 31.713496 
L 91.605881 31.953152 
L 91.61861 32.196495 
L 91.287641 32.002926 
L 91.174893 31.886785 
L 91.011226 32.675807 
L 90.702079 32.450899 
L 90.509316 32.144876 
L 90.258361 31.903377 
L 89.789184 31.886785 
L 89.789184 31.746679 
L 90.094695 31.422221 
L 90.24745 31.422221 
L 90.458398 31.460935 
L 91.038504 30.902352 
L 91.465855 30.802803 
" clip-path="url(#pf23f02afb9)" style="fill: none; stroke: #000000; stroke-width: 2"/>
    <path d="M 80.751164 32.367941 
L 80.918467 32.675807 
L 80.312902 32.710833 
L 79.994662 32.690555 
L 79.620048 32.532013 
L 79.474566 32.56704 
L 79.319993 32.63525 
L 79.150871 32.675807 
L 78.981749 32.624188 
L 78.839905 32.412185 
L 78.692605 32.366097 
L 78.263435 32.108006 
L 78.496205 31.538362 
L 79.227248 30.651635 
L 80.29108 31.035085 
L 80.445654 31.197313 
L 80.487479 31.536519 
L 80.751164 32.367941 
" clip-path="url(#pf23f02afb9)" style="fill: none; stroke: #000000; stroke-width: 2"/>
    <path d="M 31.152983 29.270848 
L 31.509412 29.458886 
L 31.758548 29.704072 
L 31.965859 29.967694 
L 32.222269 30.199976 
L 31.758548 30.629513 
L 31.283916 30.741967 
L 30.145525 30.651635 
L 29.76 30.467284 
L 29.903663 30.054339 
L 30.527413 29.270848 
L 30.683806 29.32431 
L 30.809283 29.320623 
L 31.152983 29.270848 
" clip-path="url(#pf23f02afb9)" style="fill: none; stroke: #000000; stroke-width: 2"/>
    <path d="M 36.659446 22.42406 
L 37.32866 22.588132 
L 37.497782 22.669246 
L 37.805111 23.05454 
L 37.803292 23.358718 
L 37.672359 23.672115 
L 37.586889 24.061095 
L 37.423223 24.204888 
L 37.048609 24.315499 
L 36.633987 24.354213 
L 36.353936 24.293377 
L 35.986596 24.625208 
L 35.615619 24.619678 
L 35.233731 24.571747 
L 34.83002 24.770845 
L 34.622709 24.663922 
L 34.366299 24.415048 
L 34.204451 24.293377 
L 33.571608 24.096121 
L 33.444312 23.983668 
L 33.480682 23.675802 
L 34.066244 22.42406 
L 34.248095 22.532827 
L 34.317199 22.197308 
L 34.451769 21.784363 
L 34.83002 21.649787 
L 34.753643 21.470966 
L 34.764554 21.33086 
L 34.83002 21.187066 
L 35.110071 21.295833 
L 35.89567 21.972401 
L 36.659446 22.42406 
" clip-path="url(#pf23f02afb9)" style="fill: none; stroke: #000000; stroke-width: 2"/>
    <path d="M 43.046071 19.196078 
L 42.942416 19.483665 
L 43.275204 19.977725 
L 43.400682 20.103084 
L 43.577078 20.198946 
L 44.000792 20.322461 
L 44.164458 20.399888 
L 43.944418 20.534464 
L 43.706192 20.567648 
L 43.467967 20.516029 
L 43.247927 20.399888 
L 43.193371 20.751998 
L 43.086079 21.096734 
L 42.907864 21.406444 
L 42.624176 21.649787 
L 42.598717 21.474653 
L 42.558709 21.384322 
L 42.511428 21.308738 
L 42.471421 21.187066 
L 42.320484 21.36773 
L 42.145907 21.482027 
L 41.938596 21.528115 
L 41.709463 21.511524 
L 42.064073 21.26265 
L 42.395043 20.952941 
L 42.467784 20.766746 
L 42.364128 20.611892 
L 42.222284 20.455194 
L 42.17864 20.257938 
L 42.255017 19.937168 
L 42.351399 19.835775 
L 42.547798 19.793374 
L 42.702372 19.727008 
L 42.58235 19.592432 
L 42.391406 19.481822 
L 42.318665 19.483665 
L 42.03134 19.055971 
L 41.802207 18.595094 
L 41.864037 18.143435 
L 42.471421 17.769203 
L 42.942416 17.769203 
L 42.942416 17.924057 
L 42.635087 18.001485 
L 42.395043 18.176618 
L 42.238651 18.442083 
L 42.17864 18.775758 
L 42.375039 18.963796 
L 42.758746 19.063345 
L 43.046071 19.196078 
" clip-path="url(#pf23f02afb9)" style="fill: none; stroke: #000000; stroke-width: 2"/>
    <path d="M 53.749852 14.019508 
L 54.18084 13.942081 
L 54.277221 13.890462 
L 55.124649 14.141179 
L 55.717485 14.592839 
L 57.18139 16.19116 
L 58.190665 16.876945 
L 59.147204 17.13688 
L 60.542006 18.09366 
L 61.474904 18.543476 
L 62.282324 18.694644 
L 63.184308 19.129712 
L 63.377071 19.568466 
L 64.053558 19.625615 
L 64.273599 19.813653 
L 64.753687 20.482846 
L 65.604752 21.187066 
L 65.792059 21.518898 
L 65.855707 21.915252 
L 65.897533 22.888624 
L 66.144851 23.90624 
L 66.726775 25.058433 
L 67.165038 25.589363 
L 67.28506 26.007839 
L 67.741507 25.687069 
L 67.917903 26.083423 
L 68.212502 26.378384 
L 68.599846 26.566422 
L 69.349074 26.769208 
L 69.696411 27.480802 
L 69.865533 27.98961 
L 71.334893 28.712265 
L 71.87681 29.270848 
L 71.931366 28.894772 
L 72.096851 28.881868 
L 72.576939 29.115993 
L 73.280704 29.073593 
L 74.091762 28.773101 
L 74.528205 28.756509 
L 74.830079 28.97773 
L 74.93919 29.50313 
L 74.862812 30.356674 
L 74.573668 30.485719 
L 73.949918 30.509685 
L 73.680777 30.67007 
L 73.109764 31.746679 
L 72.971556 31.339264 
L 72.833349 31.322672 
L 72.653316 31.422221 
L 72.360535 31.186252 
L 71.818618 31.062737 
L 70.372898 30.830455 
L 70.072843 30.537338 
L 69.981918 30.117018 
L 70.181954 29.580557 
L 69.860077 29.75569 
L 69.5873 30.045121 
L 69.312704 30.032217 
L 69.281789 30.35483 
L 68.856257 30.105957 
L 67.59057 29.580557 
L 66.204862 29.50313 
L 66.061199 29.724351 
L 65.744777 29.71329 
L 65.430174 29.481008 
L 65.188312 28.797066 
L 64.644576 28.170274 
L 64.371798 28.033854 
L 63.737137 28.321441 
L 63.427989 28.358311 
L 63.609841 28.033854 
L 63.40253 27.661466 
L 63.067923 27.362817 
L 62.636935 27.163718 
L 61.845881 26.975681 
L 61.485815 26.684406 
L 59.303597 24.00579 
L 59.150841 23.474859 
L 58.479809 23.093253 
L 58.252495 22.591819 
L 57.377789 21.364043 
L 56.888609 20.969532 
L 56.106647 19.625615 
L 55.739307 19.365681 
L 54.077184 18.574816 
L 51.058449 15.914634 
L 50.909331 15.599394 
L 50.742028 13.908898 
L 50.909331 13.591814 
L 51.654922 12.961335 
L 52.03681 12.891281 
L 53.000623 13.132781 
L 53.749852 14.019508 
L 53.749852 14.019508 
" clip-path="url(#pf23f02afb9)" style="fill: none; stroke: #000000; stroke-width: 2"/>
   </g>
  </g>
 </g>
 <defs>
  <clipPath id="pf23f02afb9">
   <rect x="0" y="0" width="357.12" height="154.695374"/>
  </clipPath>
 </defs>
</svg>
