<?xml version="1.0" encoding="utf-8" standalone="no"?>
<!DOCTYPE svg PUBLIC "-//W3C//DTD SVG 1.1//EN"
  "http://www.w3.org/Graphics/SVG/1.1/DTD/svg11.dtd">
<svg xmlns:xlink="http://www.w3.org/1999/xlink" width="357.12pt" height="195.401642pt" viewBox="0 0 357.12 195.401642" xmlns="http://www.w3.org/2000/svg" version="1.1">
 <metadata>
  <rdf:RDF xmlns:dc="http://purl.org/dc/elements/1.1/" xmlns:cc="http://creativecommons.org/ns#" xmlns:rdf="http://www.w3.org/1999/02/22-rdf-syntax-ns#">
   <cc:Work>
    <dc:type rdf:resource="http://purl.org/dc/dcmitype/StillImage"/>
    <dc:date>2024-02-02T21:58:05.196158</dc:date>
    <dc:format>image/svg+xml</dc:format>
    <dc:creator>
     <cc:Agent>
      <dc:title>Matplotlib v3.8.2, https://matplotlib.org/</dc:title>
     </cc:Agent>
    </dc:creator>
   </cc:Work>
  </rdf:RDF>
 </metadata>
 <defs>
  <style type="text/css">*{stroke-linejoin: round; stroke-linecap: butt}</style>
 </defs>
 <g id="figure_1">
  <g id="patch_1">
   <path d="M 0 195.401642 
L 357.12 195.401642 
L 357.12 0 
L 0 0 
L 0 195.401642 
z
" style="fill: none"/>
  </g>
  <g id="axes_1">
   <g id="PatchCollection_1">
    <path d="M 326.89266 176.659743 
L 327.36 177.950678 
L 326.317865 178.51383 
L 324.731124 177.945538 
L 323.683311 178.429647 
L 323.693451 177.060685 
L 323.039223 175.696025 
L 323.292196 174.08778 
L 323.182327 172.477155 
L 324.076277 171.834767 
L 325.775509 172.399773 
L 326.822771 174.729831 
L 326.89266 176.659743 
" clip-path="url(#p96f8594646)" style="fill: none; stroke: #000000; stroke-width: 2"/>
    <path d="M 319.485663 171.270274 
L 318.682245 172.075698 
L 317.074122 170.626809 
L 316.671196 168.613792 
L 317.394141 167.888811 
L 318.439253 167.807983 
L 319.403836 168.371518 
L 320.208355 170.223327 
L 319.485663 171.270274 
" clip-path="url(#p96f8594646)" style="fill: none; stroke: #000000; stroke-width: 2"/>
    <path d="M 117.825977 16.28347 
L 117.987921 18.729274 
L 118.756363 17.470405 
L 122.319139 20.066619 
L 128.962033 21.132571 
L 132.775664 22.944036 
L 139.043863 24.284651 
L 142.162086 26.49503 
L 147.836489 28.188782 
L 149.001854 27.12283 
L 150.77054 23.702628 
L 151.745382 22.698802 
L 152.831361 22.397981 
L 153.552173 22.535312 
L 154.155495 23.097716 
L 154.860429 24.049226 
L 155.473277 25.210002 
L 155.740009 26.468871 
L 155.632046 27.757169 
L 155.149388 29.00296 
L 156.549731 30.209513 
L 160.741232 30.699982 
L 162.706792 31.684189 
L 163.49111 33.25042 
L 163.980119 37.128393 
L 164.532635 38.26301 
L 167.650858 40.633609 
L 168.784468 42.003652 
L 169.886325 43.870703 
L 170.419184 46.047255 
L 170.540453 47.081639 
L 170.940551 48.425523 
L 172.023355 49.210273 
L 173.214123 48.94542 
L 174.671622 48.092004 
L 176.389502 47.349762 
L 178.310607 47.388999 
L 181.352621 49.334525 
L 183.924678 52.584698 
L 185.769574 56.367847 
L 186.57612 59.93846 
L 188.735378 59.61802 
L 194.123997 60.023475 
L 195.587847 59.451261 
L 196.854824 58.666511 
L 197.928102 58.555338 
L 198.807682 59.997316 
L 198.70607 62.13903 
L 197.966207 64.221887 
L 197.896348 66.003924 
L 199.823804 67.269333 
L 202.459369 67.622471 
L 203.030937 67.831737 
L 203.916868 68.593599 
L 204.526541 69.443745 
L 204.802799 70.499887 
L 204.742467 71.379461 
L 205.495032 71.08845 
L 208.625956 70.604521 
L 211.75688 70.813787 
L 221.067093 73.795837 
L 226.481115 74.207831 
L 227.671882 74.708109 
L 228.770564 75.79041 
L 228.465727 76.647096 
L 227.925913 76.57516 
L 228.688004 78.252564 
L 228.599093 79.72724 
L 228.179943 81.267312 
L 227.925913 83.134363 
L 228.268854 84.337646 
L 229.599338 87.659754 
L 229.681898 89.687025 
L 228.599093 91.475601 
L 231.876085 91.312112 
L 234.17506 89.909371 
L 236.413702 88.961131 
L 241.364119 87.859212 
L 242.542185 87.924608 
L 244.501394 88.702818 
L 245.400027 88.794372 
L 245.546094 88.428155 
L 245.635005 86.894623 
L 246.019226 86.443392 
L 246.819421 86.391075 
L 247.800613 86.561104 
L 249.566125 87.188904 
L 250.420302 85.603055 
L 251.750786 85.112587 
L 253.240039 85.001414 
L 254.576874 84.543643 
L 255.54854 83.611752 
L 256.453523 82.006285 
L 257.260069 81.110362 
L 258.73027 80.479292 
L 259.819425 80.655861 
L 260.606919 80.472752 
L 261.194365 78.743032 
L 260.975263 78.402974 
L 259.876582 77.386069 
L 259.622552 76.934838 
L 259.559044 74.005104 
L 260.765688 73.547333 
L 262.905999 73.809445 
L 265.878049 74.472684 
L 267.837259 74.518461 
L 274.245175 73.75006 
L 277.484062 73.933169 
L 278.897106 75.107024 
L 280.697546 79.805715 
L 282.478934 81.947428 
L 284.742979 84.017206 
L 286.749819 86.417234 
L 287.772292 89.556234 
L 293.373661 86.750752 
L 295.212206 86.253744 
L 296.177521 86.449932 
L 297.990663 87.633596 
L 298.832139 87.87883 
L 299.394181 87.594359 
L 300.97552 86.371456 
L 301.931309 86.041207 
L 303.160181 86.116413 
L 305.563943 86.619961 
L 306.74836 86.541486 
L 307.939127 85.69461 
L 308.955249 84.399772 
L 310.190471 83.369788 
L 312.035367 83.291313 
L 313.19438 84.206854 
L 314.391498 87.535502 
L 315.388568 89.036337 
L 316.026819 89.425442 
L 317.744699 90.092479 
L 318.494089 90.504473 
L 323.917637 95.183545 
L 326.080071 96.05658 
L 324.971863 97.897472 
L 322.491892 103.635957 
L 321.872693 105.702465 
L 322.669713 107.798402 
L 322.063216 109.158635 
L 320.831168 110.33249 
L 319.761065 111.885641 
L 319.316512 114.118909 
L 319.418124 118.81433 
L 319.138691 121.119533 
L 316.191939 128.267298 
L 315.471127 131.765975 
L 316.757156 134.656471 
L 318.024133 135.114242 
L 320.627944 134.244477 
L 322.415683 134.944213 
L 323.361946 136.049403 
L 323.993846 137.566586 
L 324.212948 139.250529 
L 323.923988 140.875615 
L 321.802834 143.298531 
L 312.039091 147.712723 
L 311.073976 147.146303 
L 310.463903 146.106148 
L 309.528791 143.392479 
L 306.068378 149.417134 
L 305.16827 152.970137 
L 307.42854 154.545816 
L 308.873713 155.096788 
L 312.954201 159.025688 
L 315.274478 160.601367 
L 315.474502 161.342863 
L 315.474502 162.872199 
L 314.469382 165.57557 
L 312.02409 167.506549 
L 302.887998 172.125452 
L 300.412702 174.113073 
L 299.97765 176.13674 
L 302.812989 178.114063 
L 298.47747 179.118172 
L 281.540446 177.949286 
L 277.564971 177.171745 
L 276.72487 177.171745 
L 274.669625 177.99048 
L 264.058356 178.891604 
L 252.676996 177.145998 
L 249.721642 178.114063 
L 248.146454 177.573389 
L 246.361241 177.171745 
L 246.361241 176.383905 
L 249.136572 176.198531 
L 249.331596 174.252104 
L 247.846418 171.842242 
L 245.60615 170.256264 
L 246.091208 171.239776 
L 247.556384 173.294338 
L 248.126452 174.576508 
L 243.685921 174.427179 
L 241.510661 174.653748 
L 239.655439 175.441587 
L 240.840581 175.956515 
L 241.800695 175.812335 
L 242.955834 175.477632 
L 244.691041 175.441587 
L 244.691041 176.383905 
L 241.830699 177.573389 
L 238.675322 177.480702 
L 236.215028 175.951366 
L 235.454937 172.846351 
L 237.135138 173.71143 
L 238.815339 171.981272 
L 238.815339 171.198582 
L 236.715088 170.240816 
L 234.404811 166.976174 
L 232.859627 166.008109 
L 233.274676 167.841252 
L 233.969759 169.339692 
L 234.329802 170.673355 
L 233.774736 171.981272 
L 231.989523 170.961715 
L 226.793902 169.648649 
L 224.548633 168.448867 
L 222.518391 164.803178 
L 221.573278 164.211011 
L 220.133105 164.092578 
L 216.082621 163.268693 
L 214.272405 163.268693 
L 209.29181 164.211011 
L 202.345979 164.396385 
L 200.830798 165.07609 
L 201.655897 165.740347 
L 202.556004 166.224379 
L 203.456112 166.373708 
L 204.261208 166.008109 
L 207.731623 166.826845 
L 217.597802 165.755795 
L 218.697934 165.93087 
L 220.283123 166.795949 
L 221.143226 167.609535 
L 222.673409 169.483872 
L 223.708533 170.256264 
L 223.708533 171.198582 
L 219.733058 170.487981 
L 216.082621 169.391185 
L 216.082621 170.256264 
L 226.153825 172.336572 
L 231.414454 174.056431 
L 233.774736 176.383905 
L 232.914633 177.897793 
L 230.71437 177.527045 
L 228.264077 176.234576 
L 226.648884 175.009048 
L 224.833667 174.082178 
L 193.099874 168.155358 
L 158.795773 152.115356 
L 144.20903 143.124716 
L 135.858032 139.422385 
L 126.836953 137.269987 
L 122.641452 137.269987 
L 119.44607 136.513043 
L 101.986719 136.656469 
L 94.524139 134.787499 
L 91.013964 134.099005 
L 83.220805 131.523771 
L 79.120825 132.376193 
L 67.455584 132.520315 
L 65.581649 131.219071 
L 64.342853 126.568701 
L 63.879428 123.665593 
L 62.341467 122.394084 
L 59.809769 120.824923 
L 49.848457 115.151204 
L 41.263959 111.219972 
L 32.43877 106.951738 
L 29.817157 98.427179 
L 29.76 96.435875 
L 30.064836 94.379176 
L 30.718965 92.378064 
L 31.693806 90.55025 
L 33.164007 89.036337 
L 36.53626 87.234682 
L 38.044565 86.021589 
L 39.184527 84.239552 
L 39.997424 82.39866 
L 41.042123 80.623163 
L 42.861616 79.011155 
L 54.670853 70.722233 
L 57.287365 68.10313 
L 58.598797 67.243175 
L 64.038222 65.166857 
L 65.851364 65.042605 
L 68.080481 65.624628 
L 71.278088 68.116209 
L 73.081703 68.848642 
L 74.878968 67.880784 
L 74.833956 66.96339 
L 74.040668 65.127619 
L 73.920004 64.156491 
L 74.269295 63.123237 
L 79.521373 53.823949 
L 81.982292 51.129641 
L 85.081463 48.745963 
L 88.313999 47.264747 
L 101.510877 44.099589 
L 102.301546 43.314839 
L 102.282494 41.339884 
L 101.888747 40.823257 
L 100.329635 40.045047 
L 99.792996 39.512071 
L 99.564369 38.688083 
L 99.183323 36.163804 
L 98.113221 34.322911 
L 97.401936 33.649334 
L 96.554109 33.270038 
L 93.985227 32.92998 
L 93.226311 31.138134 
L 93.953473 30.075452 
L 95.185521 29.192608 
L 95.963489 27.956627 
L 95.607846 26.481951 
L 94.709214 25.22962 
L 94.182101 23.800721 
L 94.982296 21.796339 
L 96.72558 20.504771 
L 98.532371 20.655182 
L 99.875556 22.018685 
L 100.231199 24.363126 
L 101.901448 23.156573 
L 104.940287 19.487866 
L 107.121772 18.559245 
L 109.071456 18.814289 
L 110.459096 19.546722 
L 111.846737 20.06008 
L 113.780543 19.657895 
L 116.574877 16.770669 
L 117.825977 16.28347 
L 117.825977 16.28347 
" clip-path="url(#p96f8594646)" style="fill: none; stroke: #000000; stroke-width: 2"/>
   </g>
  </g>
 </g>
 <defs>
  <clipPath id="p96f8594646">
   <rect x="0" y="0" width="357.12" height="195.401642"/>
  </clipPath>
 </defs>
</svg>
