<?xml version="1.0" encoding="utf-8" standalone="no"?>
<!DOCTYPE svg PUBLIC "-//W3C//DTD SVG 1.1//EN"
  "http://www.w3.org/Graphics/SVG/1.1/DTD/svg11.dtd">
<svg xmlns:xlink="http://www.w3.org/1999/xlink" width="202.41261pt" height="266.112pt" viewBox="0 0 202.41261 266.112" xmlns="http://www.w3.org/2000/svg" version="1.1">
 <metadata>
  <rdf:RDF xmlns:dc="http://purl.org/dc/elements/1.1/" xmlns:cc="http://creativecommons.org/ns#" xmlns:rdf="http://www.w3.org/1999/02/22-rdf-syntax-ns#">
   <cc:Work>
    <dc:type rdf:resource="http://purl.org/dc/dcmitype/StillImage"/>
    <dc:date>2024-02-02T21:58:05.271173</dc:date>
    <dc:format>image/svg+xml</dc:format>
    <dc:creator>
     <cc:Agent>
      <dc:title>Matplotlib v3.8.2, https://matplotlib.org/</dc:title>
     </cc:Agent>
    </dc:creator>
   </cc:Work>
  </rdf:RDF>
 </metadata>
 <defs>
  <style type="text/css">*{stroke-linejoin: round; stroke-linecap: butt}</style>
 </defs>
 <g id="figure_1">
  <g id="patch_1">
   <path d="M 0 266.112 
L 202.41261 266.112 
L 202.41261 0 
L 0 0 
L 0 266.112 
z
" style="fill: none"/>
  </g>
  <g id="axes_1">
   <g id="PatchCollection_1">
    <path d="M 175.552161 22.176 
L 176.668832 22.925079 
L 178.331569 23.096332 
L 179.287388 23.861901 
L 179.6026 23.966078 
L 181.190475 24.047837 
L 182.037605 24.409159 
L 182.801991 24.469819 
L 183.538199 24.704018 
L 183.290568 25.230706 
L 183.113465 25.900235 
L 182.838757 26.394635 
L 182.941217 27.158188 
L 182.813612 27.632377 
L 182.518909 27.899649 
L 182.244365 28.352555 
L 181.739471 28.82439 
L 180.782014 30.196913 
L 180.875264 30.5734 
L 180.725539 31.296705 
L 180.126638 32.670126 
L 179.984793 34.415419 
L 180.2015 35.157845 
L 180.927691 35.598959 
L 181.629648 35.631179 
L 181.87277 35.962676 
L 181.467598 36.311703 
L 180.67169 38.311504 
L 181.04469 43.441888 
L 181.407183 44.710473 
L 181.304739 44.884541 
L 180.548233 45.065202 
L 180.458923 45.356634 
L 180.544292 46.062136 
L 180.303944 46.594889 
L 179.712923 46.726099 
L 179.392459 46.832254 
L 179.110082 47.082147 
L 178.977431 47.374897 
L 179.111396 47.611603 
L 179.429233 47.665669 
L 182.057305 47.200829 
L 182.371203 47.245006 
L 182.427678 47.118411 
L 182.207031 46.838847 
L 181.986383 46.671373 
L 181.929908 45.962574 
L 181.656725 45.288062 
L 182.794551 46.158579 
L 184.234962 46.717223 
L 184.579338 46.569344 
L 185.192028 46.645786 
L 185.319588 47.007393 
L 185.544892 47.156822 
L 185.229719 47.99445 
L 184.827222 48.227434 
L 184.883885 48.449786 
L 184.744107 48.449258 
L 184.239145 48.341185 
L 183.980093 48.274907 
L 183.66946 48.370826 
L 183.218237 48.284317 
L 182.955657 47.597097 
L 182.703488 47.511382 
L 180.268488 47.80778 
L 179.090784 48.219316 
L 177.642542 49.095499 
L 177.35997 49.61743 
L 177.22801 50.608997 
L 177.407321 51.542176 
L 176.939066 52.767042 
L 177.017869 53.506171 
L 177.22801 54.218926 
L 177.052017 54.634315 
L 176.45837 57.387751 
L 176.123458 58.154572 
L 176.18256 58.770403 
L 176.098504 59.073702 
L 175.981613 60.062065 
L 175.686103 60.493278 
L 175.675595 60.987789 
L 175.796426 61.842963 
L 176.237722 63.220999 
L 176.076176 63.812434 
L 175.075381 65.438385 
L 174.75229 65.693553 
L 173.802717 66.158393 
L 173.597829 66.412242 
L 173.022569 67.430275 
L 173.140774 68.822817 
L 172.901738 69.42612 
L 172.431549 69.997774 
L 170.165969 71.899333 
L 169.486952 72.927256 
L 169.259738 73.587922 
L 168.966854 74.929695 
L 168.715999 75.491459 
L 167.945045 76.427733 
L 167.833408 76.764 
L 167.833408 78.036541 
L 167.359278 78.928638 
L 166.810285 79.15875 
L 166.534476 79.74557 
L 166.390004 80.04821 
L 165.200082 81.620755 
L 164.957107 82.149551 
L 164.500051 83.582973 
L 164.145439 84.206716 
L 163.616147 84.704524 
L 161.535754 85.977724 
L 160.126498 87.420377 
L 159.838868 87.887195 
L 159.649742 88.476651 
L 159.586699 89.813809 
L 159.825734 89.970733 
L 159.89403 90.334034 
L 159.760066 91.030305 
L 158.676528 92.482848 
L 158.546503 93.475166 
L 156.003801 97.919828 
L 154.937337 99.136984 
L 152.460304 102.603834 
L 151.269069 104.949793 
L 150.528323 106.089146 
L 149.731101 108.309829 
L 147.742645 112.495368 
L 147.732138 113.216035 
L 147.918638 114.243958 
L 147.687483 115.660896 
L 147.120103 116.887282 
L 144.117718 122.069095 
L 141.627551 125.911114 
L 140.835584 127.649814 
L 140.406109 128.233996 
L 139.243768 129.350931 
L 137.628311 132.046344 
L 135.705524 134.137795 
L 133.664533 136.904418 
L 131.29651 141.700512 
L 129.56679 144.225814 
L 123.586974 150.662366 
L 122.15539 152.664145 
L 114.468181 160.689725 
L 111.584001 164.069541 
L 109.418238 166.001429 
L 108.219123 167.449357 
L 105.992945 169.313992 
L 104.806964 170.535763 
L 103.762827 171.398849 
L 103.518538 171.754237 
L 103.246669 171.857096 
L 102.565025 172.927217 
L 101.93723 173.222605 
L 100.232464 175.063503 
L 99.814809 175.767687 
L 99.137105 176.197581 
L 98.888877 176.667037 
L 98.556592 176.941325 
L 95.317798 179.036732 
L 85.204778 184.695254 
L 82.005386 186.206479 
L 74.720071 191.185872 
L 71.213349 193.926121 
L 69.415332 195.778888 
L 68.390897 196.343289 
L 68.136101 196.657798 
L 68.004763 197.205716 
L 67.631763 197.356047 
L 67.517499 197.516928 
L 66.045201 198.880459 
L 65.500149 199.13233 
L 64.755463 200.085747 
L 62.323084 201.515212 
L 61.553444 202.595224 
L 60.338568 203.406221 
L 57.250814 206.393726 
L 54.311471 209.72475 
L 51.159361 212.829618 
L 45.996467 218.544843 
L 44.019831 220.158926 
L 42.537026 221.831032 
L 42.454283 222.243784 
L 41.946005 222.433676 
L 41.222333 223.557204 
L 41.416713 223.731272 
L 41.196065 224.063583 
L 41.197379 223.964681 
L 41.085742 223.731272 
L 40.09414 224.566006 
L 39.987756 224.832383 
L 37.547498 227.823183 
L 37.523857 227.912855 
L 37.31897 228.003845 
L 36.667534 229.025834 
L 36.012157 229.637708 
L 35.444778 229.83815 
L 34.719792 229.877711 
L 34.574007 230.049141 
L 34.883965 230.116395 
L 34.870831 230.431563 
L 34.625229 230.943217 
L 34.395388 231.065855 
L 33.977733 231.706741 
L 33.829321 232.135317 
L 33.112216 232.649608 
L 33.04786 232.537519 
L 32.803572 230.943217 
L 32.8456 231.188494 
L 32.701128 231.92037 
L 33.068874 232.704993 
L 33.108276 233.035986 
L 32.814079 233.765224 
L 32.349143 234.226768 
L 32.246699 234.614464 
L 31.513833 235.82107 
L 31.79227 235.722168 
L 31.910474 235.621947 
L 31.716094 236.050523 
L 31.350974 236.09404 
L 31.014749 235.844807 
L 30.807235 235.389857 
L 30.825623 235.719531 
L 31.027883 236.605694 
L 30.928066 236.903719 
L 27.647245 242.05718 
L 27.280812 242.265534 
L 26.706865 243.228182 
L 26.381147 243.505108 
L 26.480964 243.505108 
L 26.062308 243.936 
L 26.062284 243.935767 
L 26.06002 242.291315 
L 25.864865 241.934595 
L 17.099568 230.55974 
L 16.917757 208.391167 
L 16.867717 170.848452 
L 17.099568 170.398784 
L 22.957555 164.577377 
L 32.233257 151.30127 
L 32.219913 150.804709 
L 32.33 150.489439 
L 32.616895 150.235715 
L 33.756133 149.534416 
L 34.668525 148.804228 
L 35.225634 148.52329 
L 35.749383 148.390567 
L 38.363126 148.363771 
L 46.311106 147.004717 
L 46.986643 146.733827 
L 47.609065 146.314975 
L 48.084182 145.781317 
L 48.327708 145.259635 
L 48.831442 143.581542 
L 49.064961 143.249106 
L 51.628664 141.137255 
L 58.233077 137.995856 
L 63.343803 136.816418 
L 65.342057 136.174573 
L 80.570821 137.058837 
L 81.037859 136.862892 
L 93.624524 123.07557 
L 99.053837 117.25207 
L 107.048521 109.154269 
L 130.061802 86.871813 
L 145.554109 63.300223 
L 145.554555 34.166845 
L 146.16265 34.129922 
L 150.403552 33.338045 
L 151.02478 33.067713 
L 151.434554 32.606169 
L 151.954653 32.781556 
L 153.30218 32.616719 
L 153.558289 32.515179 
L 154.957038 31.822864 
L 155.551998 30.854942 
L 156.213941 30.721754 
L 157.028237 30.71516 
L 157.435384 30.523949 
L 157.620571 30.517356 
L 158.097327 30.62417 
L 159.526284 30.77582 
L 160.27491 30.670324 
L 160.876438 30.307683 
L 161.741955 29.849437 
L 163.845988 29.960207 
L 165.288079 29.074703 
L 166.009124 29.019318 
L 166.313828 28.836019 
L 167.005979 28.654699 
L 167.338264 28.441729 
L 168.684478 27.364355 
L 169.42391 27.216661 
L 169.728614 27.012923 
L 170.950057 25.706755 
L 171.367711 23.966078 
L 171.970553 23.280356 
L 172.947707 22.783867 
L 173.119759 22.744306 
L 173.350914 22.849143 
L 174.966371 22.344082 
L 175.134483 22.230015 
L 175.552161 22.176 
L 175.552161 22.176 
" clip-path="url(#pd3a39b581e)" style="fill: none; stroke: #000000; stroke-width: 2"/>
   </g>
  </g>
 </g>
 <defs>
  <clipPath id="pd3a39b581e">
   <rect x="0" y="-0" width="202.41261" height="266.112"/>
  </clipPath>
 </defs>
</svg>
