<?xml version="1.0" encoding="utf-8" standalone="no"?>
<!DOCTYPE svg PUBLIC "-//W3C//DTD SVG 1.1//EN"
  "http://www.w3.org/Graphics/SVG/1.1/DTD/svg11.dtd">
<svg xmlns:xlink="http://www.w3.org/1999/xlink" width="117.756857pt" height="266.112pt" viewBox="0 0 117.756857 266.112" xmlns="http://www.w3.org/2000/svg" version="1.1">
 <metadata>
  <rdf:RDF xmlns:dc="http://purl.org/dc/elements/1.1/" xmlns:cc="http://creativecommons.org/ns#" xmlns:rdf="http://www.w3.org/1999/02/22-rdf-syntax-ns#">
   <cc:Work>
    <dc:type rdf:resource="http://purl.org/dc/dcmitype/StillImage"/>
    <dc:date>2024-02-02T21:58:05.295178</dc:date>
    <dc:format>image/svg+xml</dc:format>
    <dc:creator>
     <cc:Agent>
      <dc:title>Matplotlib v3.8.2, https://matplotlib.org/</dc:title>
     </cc:Agent>
    </dc:creator>
   </cc:Work>
  </rdf:RDF>
 </metadata>
 <defs>
  <style type="text/css">*{stroke-linejoin: round; stroke-linecap: butt}</style>
 </defs>
 <g id="figure_1">
  <g id="patch_1">
   <path d="M 0 266.112 
L 117.756857 266.112 
L 117.756857 0 
L 0 0 
L 0 266.112 
z
" style="fill: none"/>
  </g>
  <g id="axes_1">
   <g id="PatchCollection_1">
    <path d="M 98.85849 241.357936 
L 88.060781 243.936 
L 77.881444 242.867613 
L 70.714683 236.550194 
L 79.054763 223.659871 
L 83.49435 218.201807 
L 89.582925 213.185032 
L 94.117645 211.512774 
L 101.474674 210.351484 
L 106.865601 212.488258 
L 105.533725 220.594064 
L 103.377354 223.102452 
L 101.696654 225.889548 
L 100.523335 229.025032 
L 99.984242 232.648258 
L 105.819127 235.853419 
L 107.943786 236.550194 
L 98.85849 241.357936 
" clip-path="url(#p2df2a98c2a)" style="fill: none; stroke: #000000; stroke-width: 2"/>
    <path d="M 57.66547 103.326968 
L 55.112708 108.692129 
L 50.625555 111.130839 
L 48.389906 109.923097 
L 47.343432 107.228903 
L 46.677494 104.53471 
L 45.440752 103.326968 
L 42.713578 103.745032 
L 35.879786 107.228903 
L 30.473003 105.138581 
L 27.88853 105.881806 
L 27.904386 111.130839 
L 29.616798 114.266323 
L 31.979292 114.754065 
L 34.262508 114.475355 
L 37.354363 116.240516 
L 39.637579 116.286968 
L 42.111062 116.705032 
L 44.108876 118.93471 
L 44.822381 122.790194 
L 43.680773 125.554064 
L 42.047639 127.528258 
L 41.207289 129.17729 
L 41.207289 152.588903 
L 42.872134 159.812129 
L 46.994607 161.995355 
L 57.66547 162.483097 
L 72.585652 175.861161 
L 67.226437 192.839226 
L 51.624461 209.09729 
L 29.42653 226.330839 
L 24.653974 227.956645 
L 19.91313 224.844387 
L 17.090822 217.528258 
L 18.200719 212.999226 
L 18.184863 209.004387 
L 11.953586 203.244387 
L 9.908205 196.206968 
L 16.32975 187.566968 
L 30.790117 173.840516 
L 36.434734 151.357935 
L 33.1209 128.921806 
L 14.331936 82.470193 
L 13.095194 73.226323 
L 11.953586 52.671483 
L 9.813071 43.450839 
L 10.082617 37.969548 
L 13.285462 31.234064 
L 17.28109 26.170838 
L 21.625542 22.779871 
L 26.160263 22.176 
L 30.790117 25.381161 
L 23.559933 30.908903 
L 19.516739 36.506322 
L 19.722862 42.359226 
L 25.240634 48.769548 
L 31.741457 51.974709 
L 45.583453 55.342451 
L 65.64087 72.157935 
L 66.275097 77.755355 
L 66.037262 85.559226 
L 64.594396 92.526968 
L 59.393738 97.985032 
L 57.66547 103.326968 
" clip-path="url(#p2df2a98c2a)" style="fill: none; stroke: #000000; stroke-width: 2"/>
   </g>
  </g>
 </g>
 <defs>
  <clipPath id="p2df2a98c2a">
   <rect x="0" y="-0" width="117.756857" height="266.112"/>
  </clipPath>
 </defs>
</svg>
