<?xml version="1.0" encoding="utf-8" standalone="no"?>
<!DOCTYPE svg PUBLIC "-//W3C//DTD SVG 1.1//EN"
  "http://www.w3.org/Graphics/SVG/1.1/DTD/svg11.dtd">
<svg xmlns:xlink="http://www.w3.org/1999/xlink" width="200.482271pt" height="266.112pt" viewBox="0 0 200.482271 266.112" xmlns="http://www.w3.org/2000/svg" version="1.1">
 <metadata>
  <rdf:RDF xmlns:dc="http://purl.org/dc/elements/1.1/" xmlns:cc="http://creativecommons.org/ns#" xmlns:rdf="http://www.w3.org/1999/02/22-rdf-syntax-ns#">
   <cc:Work>
    <dc:type rdf:resource="http://purl.org/dc/dcmitype/StillImage"/>
    <dc:date>2024-02-02T21:58:05.319185</dc:date>
    <dc:format>image/svg+xml</dc:format>
    <dc:creator>
     <cc:Agent>
      <dc:title>Matplotlib v3.8.2, https://matplotlib.org/</dc:title>
     </cc:Agent>
    </dc:creator>
   </cc:Work>
  </rdf:RDF>
 </metadata>
 <defs>
  <style type="text/css">*{stroke-linejoin: round; stroke-linecap: butt}</style>
 </defs>
 <g id="figure_1">
  <g id="patch_1">
   <path d="M 0 266.112 
L 200.482271 266.112 
L 200.482271 0 
L 0 0 
L 0 266.112 
z
" style="fill: none"/>
  </g>
  <g id="axes_1">
   <g id="PatchCollection_1">
    <path d="M 50.814653 22.484392 
L 54.159945 24.558764 
L 54.864876 24.698413 
L 58.840017 23.104085 
L 60.462609 22.757872 
L 63.044574 22.99062 
L 64.733905 23.915796 
L 65.880981 23.784875 
L 66.898751 23.287375 
L 67.295014 23.240825 
L 67.954061 23.395021 
L 68.170963 23.563764 
L 68.583911 24.119451 
L 68.892578 24.282375 
L 69.188733 24.247463 
L 70.202331 23.773238 
L 70.928118 24.061264 
L 73.122162 25.879613 
L 75.658244 28.948986 
L 76.142102 29.792699 
L 76.988853 32.370391 
L 77.606188 33.27811 
L 78.294434 33.77852 
L 79.879485 34.465128 
L 80.638641 34.965538 
L 82.761776 36.879896 
L 83.495905 37.220291 
L 85.035073 37.386124 
L 85.790058 37.682878 
L 86.411564 38.288025 
L 87.750515 40.627149 
L 88.034156 40.888991 
L 88.734916 41.351579 
L 89.018556 41.703611 
L 89.156206 42.172018 
L 89.389792 43.859446 
L 89.781884 44.502414 
L 90.707887 45.666157 
L 91.091636 46.428409 
L 91.575494 46.861903 
L 92.113577 46.978278 
L 92.655832 46.818263 
L 93.164716 46.410953 
L 93.402474 45.759256 
L 93.757025 45.276303 
L 94.203342 45.095923 
L 94.699713 45.346128 
L 95.033408 45.895996 
L 95.025066 46.410953 
L 94.766452 47.522327 
L 94.799822 50.449142 
L 94.528695 51.732169 
L 94.082378 52.762081 
L 93.769539 54.170211 
L 93.91553 55.089568 
L 95.100147 57.094116 
L 95.617374 58.397508 
L 95.513095 59.185944 
L 94.929129 59.773634 
L 94.023981 60.489336 
L 94.282595 61.277772 
L 94.866561 61.658898 
L 96.255566 62.205858 
L 96.835361 62.787729 
L 98.153456 64.690449 
L 100.760448 67.012117 
L 102.316301 69.034121 
L 102.933637 69.528712 
L 106.262244 71.021213 
L 107.0214 71.731096 
L 107.375951 72.045307 
L 107.851466 72.158772 
L 108.243558 71.975482 
L 108.894263 71.268508 
L 109.307211 71.16668 
L 109.962087 71.646725 
L 111.997626 74.419343 
L 113.336578 75.350337 
L 114.058193 75.647092 
L 115.760037 75.69946 
L 120.048018 77.023218 
L 121.186752 77.634184 
L 122.221206 78.46626 
L 123.589356 80.0955 
L 123.772888 80.840296 
L 123.622725 81.54727 
L 123.11384 81.983674 
L 122.609127 82.012767 
L 122.187837 82.222241 
L 121.537131 83.033952 
L 121.591357 83.115414 
L 121.591357 84.159874 
L 121.478735 84.395532 
L 121.015733 85.0385 
L 120.707065 86.496088 
L 120.19818 86.915036 
L 119.77689 87.060504 
L 118.746607 87.133238 
L 118.346173 87.333983 
L 118.05419 87.782024 
L 117.862316 88.363896 
L 117.945739 88.838121 
L 118.492165 88.98068 
L 119.17624 89.015592 
L 119.301375 89.303619 
L 119.226294 89.981499 
L 120.164811 90.60992 
L 122.104413 90.947406 
L 123.11384 91.441997 
L 124.51953 91.986047 
L 125.111839 92.506822 
L 125.437191 93.417451 
L 125.324569 94.496823 
L 124.753117 94.976867 
L 123.11384 95.436545 
L 121.979277 95.608198 
L 119.63507 95.491823 
L 118.554733 95.872949 
L 118.029163 96.338447 
L 117.662099 96.95523 
L 117.516107 97.72621 
L 118.233551 98.037512 
L 118.959338 98.58738 
L 119.660097 100.074062 
L 120.314974 100.379545 
L 123.747861 100.760671 
L 126.217203 100.557016 
L 127.009729 100.781036 
L 127.718831 101.441461 
L 128.069211 102.340452 
L 128.311139 103.355818 
L 128.690717 104.371184 
L 130.167318 105.849138 
L 132.140289 106.445556 
L 134.225883 106.433919 
L 136.036178 106.061521 
L 138.205195 105.241082 
L 138.872585 105.380731 
L 142.522374 107.277633 
L 143.811271 107.487107 
L 144.211705 107.882779 
L 145.421419 111.00014 
L 145.646593 112.086802 
L 145.863495 112.517387 
L 146.288956 112.915969 
L 146.747787 113.192358 
L 147.119022 113.558937 
L 147.548655 115.188177 
L 148.249414 115.871877 
L 149.15039 116.26464 
L 150.022169 116.363558 
L 150.985713 116.113353 
L 151.511282 115.563485 
L 156.107931 107.312545 
L 156.345688 106.4281 
L 156.942168 105.980059 
L 158.614814 105.601843 
L 159.403168 105.124708 
L 161.23432 103.259809 
L 162.222891 103.297631 
L 162.965362 103.454736 
L 163.561842 103.803859 
L 166.369051 106.890688 
L 167.749714 108.004972 
L 169.109521 108.677034 
L 172.296308 109.061069 
L 172.884445 109.485836 
L 174.919985 111.752226 
L 174.682227 112.77341 
L 173.973125 113.494931 
L 173.072149 113.916788 
L 172.296308 114.059346 
L 171.42453 113.849873 
L 169.956272 112.860691 
L 169.109521 112.517387 
L 168.266941 112.485384 
L 167.466073 112.72686 
L 166.865422 113.294185 
L 166.631836 114.230999 
L 166.5067 115.205634 
L 166.173005 115.755502 
L 165.651607 115.99116 
L 163.857996 116.177359 
L 163.578527 116.427564 
L 163.403337 116.954158 
L 163.290715 118.443749 
L 163.411679 118.903428 
L 164.25843 119.683136 
L 164.437791 120.07299 
L 164.475332 120.494847 
L 164.425278 121.815695 
L 165.13438 123.447845 
L 166.210546 124.917071 
L 167.562011 126.074995 
L 169.109521 126.77906 
L 170.777996 127.017627 
L 171.545494 127.375478 
L 171.866676 128.140639 
L 171.699828 130.846343 
L 171.953126 131.703367 
L 170.223228 132.516314 
L 169.868677 132.891621 
L 169.255512 133.901168 
L 168.504699 134.736154 
L 168.496356 135.379122 
L 168.634006 135.559503 
L 168.137634 137.860805 
L 168.179346 138.410674 
L 168.446302 140.095192 
L 167.970787 140.96509 
L 167.253343 141.107648 
L 166.423276 141.049461 
L 165.597381 141.346216 
L 165.130208 142.047371 
L 164.821541 142.859082 
L 164.366881 143.443863 
L 162.841943 143.57189 
L 161.568015 143.778439 
L 160.658696 144.174112 
L 160.166496 144.939273 
L 160.07473 145.637519 
L 159.962108 148.148295 
L 159.336429 149.434231 
L 159.257177 151.121659 
L 158.873428 152.854182 
L 158.3562 154.151755 
L 158.14347 155.37805 
L 158.673211 156.902553 
L 159.720179 158.172488 
L 159.761891 158.610347 
L 159.62007 160.018476 
L 160.058045 161.487702 
L 160.746291 162.767819 
L 161.251004 163.243499 
L 162.439793 163.908288 
L 162.856911 164.318507 
L 163.123867 165.060393 
L 163.161408 166.352148 
L 163.470076 167.166769 
L 163.294886 167.574079 
L 163.470076 167.977025 
L 163.52013 168.395972 
L 163.315742 169.101492 
L 163.349112 169.379335 
L 163.841312 170.412158 
L 164.980046 174.163775 
L 165.534814 174.693278 
L 166.873765 175.34061 
L 167.153234 175.633001 
L 167.720516 176.405435 
L 168.104265 176.70219 
L 168.533897 176.801108 
L 169.405675 176.753103 
L 169.781082 176.859295 
L 170.085579 177.201145 
L 170.632819 178.27092 
L 170.865591 178.527812 
L 171.24934 178.67328 
L 172.40893 178.679099 
L 173.272966 179.128637 
L 173.622745 179.384618 
L 176.509207 182.34198 
L 177.018092 183.101323 
L 177.164083 183.549364 
L 177.414355 185.021499 
L 177.664626 185.40117 
L 178.640684 186.397625 
L 179.708508 187.881398 
L 180.271618 188.458906 
L 180.989062 188.91422 
L 182.974547 189.354988 
L 183.646108 189.660471 
L 183.775415 191.032233 
L 183.349954 192.914588 
L 182.607483 194.767849 
L 181.785759 196.046512 
L 181.456235 196.295262 
L 180.77216 196.625474 
L 180.430123 196.936775 
L 180.229906 197.332448 
L 179.725192 198.800219 
L 178.03169 200.441097 
L 177.489436 201.232442 
L 176.963866 201.443371 
L 175.845988 201.713941 
L 175.374644 202.004877 
L 175.091003 202.480557 
L 174.840732 203.191895 
L 173.856332 206.640939 
L 173.380817 207.231539 
L 172.154488 207.765406 
L 170.928159 208.073798 
L 167.887363 207.231539 
L 166.78617 207.378461 
L 166.235573 207.768315 
L 166.0145 208.104346 
L 165.735031 208.275998 
L 164.462818 208.175625 
L 164.099925 208.497109 
L 163.470076 209.49211 
L 163.044615 209.864508 
L 162.018503 210.424559 
L 161.668123 210.756226 
L 161.225977 211.569391 
L 161.367798 211.778865 
L 162.327171 214.173267 
L 162.869425 215.021345 
L 163.515959 215.680314 
L 163.470076 216.195271 
L 162.931993 216.721865 
L 161.880854 218.7846 
L 162.168666 219.557034 
L 161.850449 221.531668 
L 161.205121 224.911708 
L 161.380311 224.99317 
L 163.470076 227.0079 
L 164.708919 227.933076 
L 165.221975 228.581863 
L 165.530642 229.384846 
L 165.693319 230.230014 
L 165.55567 231.401031 
L 165.005073 233.46522 
L 164.575441 234.365667 
L 164.120781 234.688605 
L 163.616067 234.803525 
L 162.998732 235.110462 
L 162.377225 235.951267 
L 161.734862 238.018366 
L 161.150896 238.81553 
L 160.416767 239.059916 
L 158.735779 239.091919 
L 157.964109 239.516685 
L 157.167412 239.467226 
L 156.454139 239.185018 
L 155.807605 238.674426 
L 155.215297 237.95145 
L 155.098503 237.54414 
L 155.069305 236.586961 
L 154.889944 236.313482 
L 154.522879 236.383306 
L 153.459227 237.520865 
L 147.894863 239.945815 
L 146.497515 240.212022 
L 145.154393 240.050552 
L 143.836298 239.563235 
L 141.679794 238.409674 
L 141.175081 238.296209 
L 140.741277 238.508592 
L 139.373128 239.737796 
L 139.089487 239.81053 
L 137.475238 239.791619 
L 136.661856 239.983637 
L 132.194515 242.802805 
L 131.610548 243.537418 
L 130.998978 243.935871 
L 130.304967 243.901088 
L 128.890934 243.495232 
L 126.888765 243.537418 
L 126.445679 243.297182 
L 126.033671 241.73798 
L 124.461134 239.26939 
L 124.507017 237.912174 
L 125.366281 236.972451 
L 127.760543 236.214564 
L 128.598951 235.395579 
L 128.778312 234.521317 
L 128.578095 232.733517 
L 128.661519 231.870892 
L 129.020241 231.243925 
L 130.634491 229.571045 
L 132.645003 226.133638 
L 133.012067 224.625136 
L 132.67003 223.889068 
L 132.745111 223.727599 
L 133.095491 223.478849 
L 133.145545 223.326107 
L 133.333249 222.018351 
L 133.729512 221.714323 
L 134.63883 221.203731 
L 134.868246 220.70914 
L 134.530379 219.463935 
L 133.491754 218.758415 
L 132.290452 218.474753 
L 131.422845 218.495118 
L 129.675118 219.312648 
L 129.082809 219.318467 
L 128.407077 218.857333 
L 127.109838 217.178634 
L 126.492502 216.617128 
L 125.574841 216.300008 
L 121.512104 215.721045 
L 120.048018 215.76614 
L 119.368114 215.555212 
L 118.963509 215.26864 
L 118.984365 215.107171 
L 119.17624 214.939883 
L 119.305546 214.65913 
L 119.443195 213.789232 
L 120.16064 210.955517 
L 120.164811 209.477563 
L 119.781062 209.051342 
L 118.96768 209.010611 
L 117.674612 208.697855 
L 117.257493 208.437468 
L 116.043678 207.481743 
L 115.584847 207.372642 
L 114.642159 207.378461 
L 114.195842 207.250449 
L 113.061279 205.880142 
L 112.831864 204.099615 
L 112.773467 202.352545 
L 112.147789 201.095702 
L 111.472057 200.982237 
L 110.354179 201.702304 
L 109.649248 201.278992 
L 109.30304 200.535651 
L 108.685704 197.582653 
L 108.060026 196.271987 
L 107.417663 195.758485 
L 104.723076 195.607198 
L 103.415617 195.000139 
L 97.164885 191.266436 
L 96.9021 190.808212 
L 97.064776 190.761663 
L 97.248309 189.210975 
L 97.223282 188.922948 
L 97.686283 188.487999 
L 98.220195 188.627648 
L 97.565319 187.456632 
L 97.160714 187.021683 
L 96.393215 186.371441 
L 95.383788 186.052867 
L 94.378532 186.177969 
L 93.402474 186.627465 
L 90.240714 189.059688 
L 89.34808 189.417539 
L 88.034156 189.475726 
L 87.700461 189.718658 
L 87.437676 190.450361 
L 87.541956 191.077328 
L 88.025814 192.140698 
L 88.588924 193.897951 
L 88.830853 194.26162 
L 89.189575 194.373631 
L 90.032155 194.335809 
L 90.328309 194.682023 
L 90.157291 196.05524 
L 89.306368 197.921593 
L 88.234373 199.617749 
L 87.391793 200.464372 
L 86.903765 200.474554 
L 86.019473 200.329087 
L 85.65658 200.717486 
L 85.051757 201.952508 
L 84.730576 202.262355 
L 83.950564 202.541653 
L 83.237291 202.541653 
L 82.549045 202.756946 
L 81.86497 203.677758 
L 81.522933 205.253175 
L 82.156954 205.958694 
L 83.053759 206.539111 
L 83.454193 207.739222 
L 82.544874 208.997519 
L 80.59693 209.835414 
L 77.25998 210.578755 
L 77.656243 208.398191 
L 77.593675 207.001699 
L 76.926285 206.101253 
L 74.444429 204.810953 
L 72.329637 203.247173 
L 71.174218 202.730762 
L 68.547033 202.349673 
L 68.041656 202.177984 
L 64.124911 198.197982 
L 61.296847 196.026146 
L 60.462609 194.450729 
L 59.957896 194.273258 
L 59.574146 194.487096 
L 58.631458 195.476277 
L 58.164285 195.775941 
L 56.796136 195.889406 
L 55.457185 195.799216 
L 54.514496 195.432637 
L 53.68443 194.741664 
L 52.941959 193.740845 
L 51.761513 191.539916 
L 51.43616 191.507913 
L 51.106636 191.843944 
L 50.59358 192.040325 
L 49.721802 191.939953 
L 47.932363 191.391539 
L 47.102297 190.943497 
L 46.405708 190.290347 
L 45.073624 188.544465 
L 43.644383 187.315528 
L 43.235606 186.679833 
L 42.543189 185.094233 
L 42.05516 184.352347 
L 39.673412 181.812477 
L 37.988253 179.231877 
L 37.316692 178.734376 
L 31.777355 176.193052 
L 30.722045 175.273695 
L 30.062997 173.789922 
L 30.033799 172.172319 
L 30.84718 170.867472 
L 31.739814 170.867472 
L 32.223672 169.913203 
L 32.60325 168.653451 
L 33.162189 167.723911 
L 33.604335 167.59299 
L 35.105962 167.742822 
L 35.581478 167.469342 
L 36.515824 166.717273 
L 36.949627 166.586352 
L 37.629531 166.995117 
L 38.317777 167.895563 
L 38.889229 168.972025 
L 39.222924 169.919021 
L 39.539934 170.419431 
L 39.886143 169.940842 
L 40.390857 168.708728 
L 40.878885 168.667997 
L 42.40554 169.289145 
L 42.72255 169.08549 
L 42.810145 168.851287 
L 42.697523 168.593809 
L 42.40554 168.315965 
L 42.209494 167.721001 
L 42.15944 166.939839 
L 42.40554 165.456066 
L 43.439994 164.427608 
L 43.373255 162.938017 
L 42.40554 159.809002 
L 41.59633 157.955741 
L 37.471026 153.447691 
L 35.310351 149.927367 
L 34.07985 148.321402 
L 32.219501 146.94673 
L 32.678332 146.49287 
L 32.765926 146.094288 
L 32.569881 144.985823 
L 32.790954 144.450501 
L 33.137162 144.142109 
L 33.9714 143.86572 
L 34.559537 143.830808 
L 35.093449 144.028644 
L 36.11539 144.755983 
L 37.158187 145.739346 
L 37.679585 146.068104 
L 38.263551 146.036101 
L 38.864202 145.855721 
L 41.008192 145.701525 
L 43.306516 145.934273 
L 44.295088 145.846993 
L 45.25029 145.49787 
L 46.910422 144.249755 
L 47.598668 143.478775 
L 47.940705 142.553599 
L 47.64038 141.494593 
L 47.135666 141.040733 
L 46.772773 141.168745 
L 46.380681 141.663336 
L 46.005274 141.360763 
L 45.346227 140.551961 
L 44.032303 139.778072 
L 43.068759 138.358305 
L 42.188638 137.412764 
L 42.101043 136.406126 
L 41.759006 135.960994 
L 41.517077 135.966813 
L 41.062418 136.43231 
L 40.82466 136.502135 
L 40.541019 136.339211 
L 40.111387 135.905716 
L 38.346975 134.593596 
L 37.587819 133.799341 
L 37.333376 133.07782 
L 37.249953 131.934442 
L 36.74941 130.72415 
L 36.052822 129.702965 
L 35.368747 129.126912 
L 34.905745 129.036722 
L 33.604335 129.353842 
L 32.678332 129.211283 
L 31.844094 128.786517 
L 30.113051 128.4083 
L 29.29967 128.035903 
L 28.569712 127.148548 
L 27.672907 125.213825 
L 27.360068 124.090813 
L 27.289158 123.01726 
L 27.635366 121.841879 
L 28.194305 121.134905 
L 28.669821 120.308648 
L 28.749073 118.766688 
L 28.102539 116.270459 
L 28.206819 115.383104 
L 29.633365 114.911788 
L 29.950375 114.644127 
L 30.442575 113.812051 
L 30.521828 113.413469 
L 30.56354 112.133351 
L 30.763757 111.877328 
L 31.385263 111.438015 
L 33.283154 108.214446 
L 33.862949 106.527018 
L 34.167445 106.006243 
L 34.597078 105.546565 
L 35.410459 104.865775 
L 35.79838 104.283903 
L 36.215498 103.242353 
L 37.808892 96.18716 
L 38.021622 96.131882 
L 38.163443 95.977686 
L 38.009109 94.939045 
L 37.604504 94.394995 
L 37.216583 93.949864 
L 37.208241 94.002232 
L 37.09979 94.063328 
L 36.691014 94.106969 
L 36.29058 93.96732 
L 35.481369 93.199249 
L 35.122647 93.199249 
L 34.788952 93.365083 
L 34.417717 93.42327 
L 32.628277 93.042144 
L 32.227843 93.120696 
L 31.51457 93.42327 
L 31.109965 93.42327 
L 30.909748 93.152699 
L 30.759585 92.681383 
L 30.505143 92.343898 
L 29.996258 92.463182 
L 26.375668 95.078694 
L 25.724963 95.311443 
L 24.890725 95.430727 
L 23.601828 95.829309 
L 22.734221 94.185522 
L 22.617428 93.053781 
L 23.706108 92.448635 
L 24.252533 92.620287 
L 25.065915 93.501822 
L 25.654052 93.574556 
L 26.13791 93.283621 
L 26.509146 92.806486 
L 27.143166 91.741661 
L 27.989917 91.308166 
L 28.277729 90.900856 
L 28.115053 90.042596 
L 27.747988 89.641104 
L 26.922093 89.952406 
L 26.484119 89.553824 
L 26.400695 88.98068 
L 26.813642 87.086688 
L 26.767759 86.496088 
L 26.434064 84.834845 
L 26.158766 82.937943 
L 25.850098 82.236788 
L 24.828157 81.038132 
L 24.773932 80.537723 
L 25.387096 79.996582 
L 27.64788 80.220603 
L 28.519658 80.043132 
L 28.682334 79.135412 
L 28.160936 78.070587 
L 27.881466 77.24142 
L 28.769929 77.031946 
L 29.249616 77.28797 
L 30.442575 78.803745 
L 31.218416 79.094681 
L 32.081852 79.14705 
L 33.771183 78.928848 
L 33.9714 78.786289 
L 34.242527 78.28588 
L 34.53451 78.157868 
L 34.722213 78.259695 
L 35.243612 78.888117 
L 38.730724 78.731011 
L 39.323033 78.14914 
L 39.423141 76.828291 
L 38.99768 75.693642 
L 38.221839 75.3387 
L 37.617017 74.288422 
L 29.504058 72.216959 
L 27.99826 71.480891 
L 26.951292 70.256051 
L 26.675993 68.559896 
L 26.275559 68.332966 
L 24.611256 68.332966 
L 23.810388 68.152586 
L 23.109628 67.652176 
L 22.508977 66.913199 
L 21.99175 66.028754 
L 24.119056 65.059938 
L 24.473606 64.489704 
L 24.24002 63.829279 
L 23.084601 62.627715 
L 22.817645 61.589074 
L 23.351557 60.189673 
L 26.079513 60.585345 
L 27.251617 59.459424 
L 26.801129 58.647713 
L 26.283902 58.359686 
L 25.699935 58.234584 
L 25.020032 57.923283 
L 24.436066 57.329774 
L 24.060659 56.590797 
L 23.693594 56.320226 
L 23.334872 56.427873 
L 21.35773 57.911645 
L 20.611087 57.923283 
L 20.218995 57.550885 
L 19.413956 56.273677 
L 19.071919 56.000197 
L 19.209568 55.517243 
L 19.259622 54.461146 
L 19.42647 53.40214 
L 20.356645 52.604976 
L 21.691425 50.614975 
L 21.457838 49.809083 
L 20.869701 49.302855 
L 19.626687 48.485325 
L 19.288821 47.760895 
L 18.93427 45.20066 
L 16.857019 42.686974 
L 16.706856 42.340761 
L 17.007181 41.531959 
L 17.123975 39.995818 
L 18.917585 39.768888 
L 19.209568 39.3994 
L 19.088604 38.962996 
L 18.663143 38.503317 
L 17.833076 37.863259 
L 18.517151 37.150466 
L 19.209568 36.711153 
L 18.980153 35.838345 
L 21.457838 36.021635 
L 22.229508 36.364939 
L 22.458923 36.254384 
L 22.508977 36.074003 
L 22.417211 35.835436 
L 22.06266 35.145918 
L 22.229508 34.735699 
L 23.188881 34.072365 
L 24.210822 34.214924 
L 24.924095 34.022906 
L 24.969978 32.352935 
L 25.603998 31.288109 
L 26.534173 30.904074 
L 27.443492 31.235741 
L 28.039971 32.352935 
L 28.936777 32.862072 
L 32.473943 33.219923 
L 33.595993 33.010449 
L 34.054823 32.437306 
L 34.542852 31.055361 
L 35.352062 30.464761 
L 36.086191 30.304746 
L 37.579476 30.296018 
L 38.255209 30.069088 
L 38.668156 29.626866 
L 39.298006 28.573678 
L 39.802719 28.343839 
L 40.595245 28.137275 
L 41.275148 27.599043 
L 42.050989 26.409116 
L 43.114642 25.850519 
L 43.010362 25.385022 
L 42.710037 24.870066 
L 42.639126 24.407478 
L 43.223093 23.767419 
L 44.16161 23.159363 
L 45.158523 22.722959 
L 45.905166 22.594948 
L 46.764431 22.621132 
L 49.108638 22.176 
L 49.976245 22.21964 
L 50.814653 22.484392 
L 50.814653 22.484392 
" clip-path="url(#p3b57d6a2c8)" style="fill: none; stroke: #000000; stroke-width: 2"/>
   </g>
  </g>
 </g>
 <defs>
  <clipPath id="p3b57d6a2c8">
   <rect x="0" y="-0" width="200.482271" height="266.112"/>
  </clipPath>
 </defs>
</svg>
