<?xml version="1.0" encoding="utf-8" standalone="no"?>
<!DOCTYPE svg PUBLIC "-//W3C//DTD SVG 1.1//EN"
  "http://www.w3.org/Graphics/SVG/1.1/DTD/svg11.dtd">
<svg xmlns:xlink="http://www.w3.org/1999/xlink" width="356.463288pt" height="266.112pt" viewBox="0 0 356.463288 266.112" xmlns="http://www.w3.org/2000/svg" version="1.1">
 <metadata>
  <rdf:RDF xmlns:dc="http://purl.org/dc/elements/1.1/" xmlns:cc="http://creativecommons.org/ns#" xmlns:rdf="http://www.w3.org/1999/02/22-rdf-syntax-ns#">
   <cc:Work>
    <dc:type rdf:resource="http://purl.org/dc/dcmitype/StillImage"/>
    <dc:date>2024-02-02T21:58:04.971108</dc:date>
    <dc:format>image/svg+xml</dc:format>
    <dc:creator>
     <cc:Agent>
      <dc:title>Matplotlib v3.8.2, https://matplotlib.org/</dc:title>
     </cc:Agent>
    </dc:creator>
   </cc:Work>
  </rdf:RDF>
 </metadata>
 <defs>
  <style type="text/css">*{stroke-linejoin: round; stroke-linecap: butt}</style>
 </defs>
 <g id="figure_1">
  <g id="patch_1">
   <path d="M 0 266.112 
L 356.463288 266.112 
L 356.463288 0 
L 0 0 
L 0 266.112 
z
" style="fill: none"/>
  </g>
  <g id="axes_1">
   <g id="PatchCollection_1">
    <path d="M 277.622605 82.605378 
L 276.005487 85.849221 
L 275.477289 88.157997 
L 275.321172 90.100363 
L 275.414842 91.223888 
L 275.751796 92.233813 
L 275.904011 92.34019 
L 280.179881 92.357916 
L 281.215912 113.40153 
L 280.997347 114.601883 
L 280.672102 115.181703 
L 280.15171 115.763494 
L 277.664237 118.005948 
L 277.149049 118.315229 
L 276.680696 118.443932 
L 274.393573 118.549653 
L 273.568752 118.838578 
L 273.305954 119.01653 
L 272.153286 119.952254 
L 271.88008 119.995592 
L 270.735218 119.848503 
L 270.125058 119.151799 
L 269.630686 118.282397 
L 268.843593 117.616556 
L 268.332308 117.533818 
L 267.124999 117.969176 
L 266.745112 117.806984 
L 265.941107 117.256056 
L 265.428521 117.278382 
L 265.558619 117.560084 
L 265.32184 117.69404 
L 263.625363 117.895631 
L 263.095864 117.841129 
L 262.321781 118.28765 
L 259.587121 117.680907 
L 259.144788 117.745259 
L 258.444861 118.483331 
L 258.520317 118.631077 
L 258.332976 118.800492 
L 257.60703 119.045422 
L 257.450912 119.420369 
L 257.424892 119.965387 
L 257.281785 120.274668 
L 257.60703 120.606275 
L 257.549786 120.915557 
L 257.281785 121.584025 
L 257.539379 122.1297 
L 258.130023 122.736443 
L 258.468278 122.877622 
L 258.433152 123.206603 
L 257.604428 123.871131 
L 257.46132 124.359021 
L 257.531573 124.85282 
L 257.95309 125.235646 
L 257.885439 125.739296 
L 257.68769 126.094542 
L 257.372853 126.349979 
L 256.938326 126.552883 
L 256.079679 126.806349 
L 255.90795 127.279136 
L 255.757036 127.519469 
L 254.008519 129.418496 
L 253.881023 129.673276 
L 253.646847 130.383769 
L 253.062707 131.150735 
L 252.967735 131.42784 
L 253.815974 133.515982 
L 254.250501 133.776015 
L 254.515901 134.378818 
L 254.692835 134.458929 
L 255.374548 134.5351 
L 256.26702 134.831905 
L 256.550634 134.561366 
L 257.578408 134.416904 
L 258.296549 134.708456 
L 259.326925 134.89757 
L 260.565458 136.10843 
L 262.282751 136.45908 
L 263.125786 135.939015 
L 264.863895 135.690802 
L 266.235128 136.285725 
L 267.092474 137.169574 
L 267.632381 137.324543 
L 269.531811 137.237865 
L 270.218729 137.689639 
L 271.251707 138.037663 
L 271.588661 138.419832 
L 272.38486 139.537448 
L 273.904405 140.547373 
L 274.687595 140.670823 
L 275.439561 141.114717 
L 278.564515 144.320474 
L 278.99644 145.019148 
L 279.170771 145.876731 
L 279.246228 148.378561 
L 279.40755 148.454732 
L 280.56282 149.363534 
L 281.249737 150.22637 
L 281.733702 150.586213 
L 282.623572 150.281528 
L 282.967031 150.489029 
L 283.206411 150.938176 
L 283.328703 151.459555 
L 283.39115 153.102489 
L 283.586297 153.353329 
L 283.937562 153.566083 
L 284.18735 153.890467 
L 285.340018 154.804522 
L 285.467514 155.244476 
L 285.891634 155.537342 
L 289.456318 156.393611 
L 291.079941 157.533553 
L 291.467633 158.254552 
L 291.610741 159.196843 
L 291.321924 159.43258 
L 291.267282 159.457532 
L 291.610741 161.019042 
L 291.902161 161.267912 
L 292.347096 161.365096 
L 293.970719 161.434044 
L 294.400042 161.604772 
L 296.112132 162.746027 
L 296.265647 163.023133 
L 296.387939 163.489353 
L 296.8667 163.94835 
L 297.379286 166.011539 
L 297.938707 167.459449 
L 298.144262 168.923775 
L 298.357623 169.435961 
L 299.361979 171.167542 
L 299.523301 171.826817 
L 299.541515 173.323976 
L 299.666409 173.832221 
L 300.553677 175.383881 
L 301.029836 176.62823 
L 302.354233 178.089273 
L 302.554584 178.583729 
L 302.81478 180.236513 
L 302.460914 181.06192 
L 302.450506 181.358068 
L 302.578002 181.633861 
L 302.991713 182.083008 
L 303.069772 182.367337 
L 302.931868 183.631385 
L 303.181656 184.192819 
L 305.578061 187.782059 
L 305.796626 189.256891 
L 306.059424 189.746751 
L 307.183471 190.580694 
L 309.199989 191.766601 
L 310.17052 192.557206 
L 310.464542 193.370793 
L 309.886907 194.507452 
L 309.985781 194.741875 
L 311.187887 196.483963 
L 311.651036 196.70394 
L 312.259894 196.611353 
L 312.827121 196.212767 
L 313.852294 195.081362 
L 314.406511 194.709043 
L 315.390052 194.619082 
L 316.365787 194.80557 
L 316.938218 195.1444 
L 318.023235 196.027592 
L 318.634696 196.195038 
L 319.233146 196.066991 
L 320.149036 195.74589 
L 320.786516 195.919246 
L 322.441363 196.9469 
L 323.820402 197.484039 
L 323.945296 197.710582 
L 323.263582 198.708031 
L 323.094455 199.299671 
L 323.172514 199.793471 
L 323.895858 201.366144 
L 323.901062 201.889492 
L 323.695507 202.399052 
L 322.605286 203.953995 
L 322.498606 209.267593 
L 322.709365 210.503406 
L 323.326029 211.559296 
L 326.758014 215.240467 
L 323.243166 215.225461 
L 323.173116 213.740881 
L 322.190338 213.670018 
L 321.488353 214.16606 
L 321.207559 216.008499 
L 318.948722 215.223134 
L 316.721668 211.145547 
L 317.946606 207.998003 
L 316.05352 207.435941 
L 313.547964 207.435941 
L 314.494508 205.468726 
L 313.937717 204.794253 
L 310.207224 206.87388 
L 309.761792 206.030788 
L 295.173891 211.53899 
L 287.996619 215.219454 
L 266.510051 236.788889 
L 265.576832 237.339967 
L 264.486611 237.47655 
L 257.365047 237.001793 
L 256.836849 236.721404 
L 253.658556 234.101378 
L 253.155076 233.88928 
L 252.710141 234.050159 
L 251.182791 235.194697 
L 249.205301 236.207905 
L 247.09251 236.850108 
L 238.511247 237.554691 
L 237.409317 237.814724 
L 232.776527 240.658668 
L 232.478603 241.003408 
L 232.451282 241.332389 
L 232.555361 242.635836 
L 232.443476 243.155902 
L 232.278252 243.375879 
L 231.972522 243.387699 
L 230.39053 243.065284 
L 229.966411 242.843994 
L 229.414198 242.173034 
L 229.094754 241.65743 
L 228.608832 241.490714 
L 226.630698 241.367848 
L 226.28724 241.18727 
L 226.112908 240.757165 
L 225.941179 239.105695 
L 225.579506 238.495012 
L 223.786756 236.472535 
L 223.041791 235.898341 
L 222.457155 235.645158 
L 222.402514 235.790934 
L 220.164828 238.278318 
L 219.704281 238.476626 
L 217.091914 238.863391 
L 216.64958 239.087309 
L 216.058936 239.720318 
L 215.598389 239.624447 
L 210.300799 236.718778 
L 209.312054 236.401617 
L 208.281678 236.257154 
L 207.092582 236.255841 
L 206.435587 236.441016 
L 204.602507 237.797651 
L 203.88957 237.988736 
L 202.772028 238.768834 
L 201.753361 238.883748 
L 201.474951 239.130647 
L 201.15491 239.999393 
L 199.492258 242.442782 
L 198.833962 243.936 
L 198.534736 243.404771 
L 198.787126 242.094101 
L 198.422852 241.642984 
L 197.639662 241.331076 
L 197.311815 241.07958 
L 197.140086 240.69938 
L 196.960551 239.577168 
L 196.502606 239.242934 
L 196.10971 239.531859 
L 195.689493 240.032226 
L 195.15349 240.333627 
L 194.156939 240.367773 
L 193.721111 240.533248 
L 192.612676 241.05594 
L 191.852904 241.111099 
L 191.631737 241.030988 
L 191.379347 240.6915 
L 191.527659 240.533248 
L 191.668164 240.220684 
L 191.868515 238.734688 
L 191.264861 235.006896 
L 190.921402 234.346307 
L 190.424428 234.289836 
L 189.930055 234.396213 
L 189.198905 234.344994 
L 188.245286 234.037026 
L 186.20535 232.813033 
L 184.51928 232.264732 
L 182.881346 232.241093 
L 182.465033 232.095973 
L 182.282895 231.856297 
L 182.017496 230.77217 
L 181.411239 230.048544 
L 180.786769 228.376061 
L 180.210434 228.054959 
L 179.152738 227.837609 
L 178.778056 227.597276 
L 178.400771 227.054884 
L 177.817932 225.915599 
L 177.43024 225.445439 
L 176.544273 225.03766 
L 175.990056 224.978562 
L 175.788404 224.738885 
L 175.764986 224.429604 
L 176.190407 223.652132 
L 175.944521 223.136007 
L 175.394207 222.613971 
L 174.745018 222.237055 
L 174.1908 222.154317 
L 173.036831 222.16745 
L 172.356419 221.607329 
L 172.063698 220.671605 
L 172.078009 219.560556 
L 172.335603 218.535528 
L 172.25234 217.413316 
L 172.580187 216.849255 
L 171.281809 216.140732 
L 170.531144 216.248422 
L 170.165569 216.029101 
L 169.1456 215.169549 
L 167.797785 214.615994 
L 167.040615 214.602205 
L 165.992025 214.189173 
L 165.835908 214.210186 
L 165.444313 214.406523 
L 164.961649 213.996118 
L 164.420441 213.896964 
L 164.043157 213.964599 
L 163.832399 214.28176 
L 163.668475 216.152551 
L 163.028393 216.863045 
L 162.658915 217.966214 
L 162.34668 218.431778 
L 161.053505 219.555303 
L 160.803717 219.926966 
L 160.174043 221.141109 
L 159.75773 221.231726 
L 159.255551 221.122723 
L 158.636285 221.135856 
L 158.352671 221.435944 
L 158.279816 221.914641 
L 158.093776 222.321763 
L 157.460199 222.413693 
L 156.89037 222.135931 
L 155.003949 220.292719 
L 153.931942 219.886911 
L 153.861689 219.523784 
L 153.588483 219.408214 
L 152.175619 218.376619 
L 150.096653 218.81723 
L 148.902353 218.718733 
L 147.871977 218.82511 
L 147.234497 218.563107 
L 147.075777 217.501307 
L 146.711503 217.008164 
L 146.365442 216.901131 
L 145.587456 217.409376 
L 144.8485 217.444835 
L 143.425228 219.999197 
L 143.047944 220.246097 
L 142.009762 220.493654 
L 141.710536 220.684738 
L 141.377486 221.487163 
L 140.903929 221.530501 
L 140.419964 221.464837 
L 139.855339 221.602076 
L 139.492366 221.856856 
L 138.057385 223.589094 
L 137.521381 223.919388 
L 136.951552 223.98374 
L 136.345295 223.791342 
L 136.135838 223.550352 
L 135.827505 222.65731 
L 134.979266 222.028241 
L 133.918968 222.07552 
L 132.809232 222.287617 
L 131.817885 222.155631 
L 130.877277 221.340073 
L 130.176049 220.442435 
L 130.074572 219.950605 
L 129.908047 219.743761 
L 129.50084 219.713555 
L 129.267965 219.856705 
L 128.851651 220.304539 
L 128.599261 220.328178 
L 127.630031 218.777831 
L 127.571487 218.296508 
L 127.700284 217.001598 
L 125.950466 216.81708 
L 125.565376 216.494665 
L 125.234927 216.69363 
L 125.27916 216.729089 
L 125.182888 217.019984 
L 125.029372 217.035743 
L 124.464747 216.832839 
L 123.548857 216.92083 
L 123.260039 216.748788 
L 122.544501 216.036981 
L 121.618203 215.838017 
L 121.436066 215.424985 
L 121.324181 214.816929 
L 121.274744 213.770888 
L 121.477697 212.289489 
L 121.285152 211.506108 
L 120.907868 210.957806 
L 120.671089 210.82188 
L 120.444719 210.832386 
L 119.770811 210.968313 
L 119.440362 210.70237 
L 119.284245 210.280802 
L 119.086496 209.228194 
L 118.756047 208.624735 
L 118.30851 208.337779 
L 116.086436 208.094163 
L 115.579054 207.914898 
L 114.991011 207.283202 
L 114.793262 206.499164 
L 114.578601 206.251607 
L 113.15663 205.231833 
L 113.281524 203.76882 
L 113.026532 203.441152 
L 112.295381 202.910581 
L 111.884271 201.910505 
L 111.197354 201.328058 
L 109.757169 200.351622 
L 109.243282 199.706793 
L 108.82957 198.954931 
L 108.054186 196.969226 
L 107.917584 195.715685 
L 107.66129 194.752381 
L 107.71333 194.361676 
L 108.7359 191.582083 
L 108.689065 191.335183 
L 108.743706 190.887349 
L 108.644831 190.671969 
L 108.402849 190.505836 
L 107.894166 190.655552 
L 107.643077 190.689041 
L 107.47525 190.276666 
L 107.689912 189.301543 
L 107.669096 189.166274 
L 107.11618 188.755869 
L 107.051131 188.378296 
L 106.974373 187.984307 
L 106.461787 187.259367 
L 105.480848 186.722885 
L 105.467838 186.45169 
L 105.288303 186.029465 
L 105.061933 185.863333 
L 103.771361 185.467374 
L 103.079239 185.61315 
L 102.915316 185.492326 
L 102.725373 185.10556 
L 102.259622 184.74506 
L 101.9656 184.022747 
L 101.694997 183.730539 
L 100.59697 184.002391 
L 100.068772 183.973499 
L 99.748731 183.532888 
L 99.50935 182.95635 
L 99.202319 182.898565 
L 98.780802 183.050251 
L 98.197963 183.09359 
L 97.612522 182.830274 
L 97.409569 182.379156 
L 97.263859 181.240528 
L 96.994556 180.902354 
L 96.540514 180.612772 
L 94.745162 179.903592 
L 92.965422 179.987643 
L 92.156212 179.882579 
L 90.680901 179.368424 
L 90.288005 179.055202 
L 89.554252 177.615173 
L 89.106715 177.485156 
L 88.089349 178.19565 
L 87.691249 178.31122 
L 87.602782 177.772112 
L 87.803133 177.278312 
L 88.214243 176.842954 
L 89.585476 175.883591 
L 89.822254 175.415401 
L 89.809244 174.930794 
L 89.478795 174.532209 
L 88.466633 174.295158 
L 88.375564 173.02914 
L 87.977465 172.738902 
L 86.931477 172.514328 
L 86.45792 172.20833 
L 85.43535 170.988277 
L 84.287886 170.31193 
L 84.116156 169.787267 
L 84.274876 168.476597 
L 83.798717 168.318345 
L 83.970447 168.020883 
L 84.675578 167.523801 
L 85.162144 166.500086 
L 85.960946 165.425152 
L 86.543207 164.107045 
L 86.512561 163.549765 
L 85.297446 162.856344 
L 83.809125 162.299506 
L 82.942672 161.853642 
L 82.521155 161.409091 
L 81.495983 160.687435 
L 80.712793 159.701805 
L 79.292123 159.05041 
L 78.94346 158.465993 
L 78.737905 157.303726 
L 78.139455 157.287966 
L 77.897472 156.714055 
L 77.809006 155.396819 
L 77.652888 154.822908 
L 76.227014 154.64824 
L 76.000644 154.116354 
L 75.748254 154.012604 
L 74.988481 153.870768 
L 74.194884 153.420307 
L 74.077795 153.18654 
L 73.91127 152.508879 
L 73.489752 152.310571 
L 71.980616 152.071551 
L 71.751643 151.66049 
L 71.749041 151.322972 
L 71.613739 151.112845 
L 70.708257 151.014348 
L 70.060369 150.502162 
L 69.368248 150.45357 
L 68.756788 149.965024 
L 68.285833 149.773282 
L 66.336965 149.152093 
L 64.83043 147.878195 
L 64.416719 147.805964 
L 63.934055 147.974066 
L 63.278361 147.668068 
L 62.297422 146.916862 
L 60.551507 145.969975 
L 60.143 145.230589 
L 59.981678 144.499083 
L 59.617404 144.013163 
L 58.998137 143.770203 
L 58.113471 142.794423 
L 56.614742 142.001192 
L 55.964252 140.320172 
L 55.979864 140.001041 
L 56.515868 139.487542 
L 58.17852 138.920198 
L 58.743145 138.423772 
L 58.85503 137.978564 
L 58.537591 136.870142 
L 58.615649 135.404503 
L 58.480347 134.973742 
L 58.105665 134.297394 
L 57.848071 133.493656 
L 57.280844 132.779223 
L 56.489848 132.427259 
L 56.180215 132.15672 
L 55.20448 132.055596 
L 54.075229 132.249964 
L 53.310253 131.964979 
L 52.558287 131.387128 
L 51.132413 129.909669 
L 50.627633 129.41193 
L 50.575594 128.958843 
L 50.060406 128.423674 
L 50.003162 127.521439 
L 49.755976 127.113004 
L 47.593748 125.112853 
L 46.789742 124.74316 
L 45.332645 124.576371 
L 44.533843 124.132477 
L 42.124428 123.806123 
L 40.357697 124.086512 
L 39.556294 124.060246 
L 38.198071 123.231556 
L 38.096594 123.005012 
L 37.498144 122.427161 
L 36.629089 122.518436 
L 35.005466 123.07987 
L 34.084372 122.551268 
L 33.116443 122.483633 
L 31.846687 122.12576 
L 31.175381 121.758693 
L 30.493668 121.245851 
L 29.95246 120.606275 
L 29.705274 119.86295 
L 29.796343 119.034916 
L 30.09817 118.171423 
L 31.760822 115.513311 
L 32.95252 114.594003 
L 32.827626 114.284722 
L 32.14331 113.744957 
L 31.963775 113.388397 
L 32.060048 113.02527 
L 32.523196 112.354176 
L 32.58044 111.992362 
L 32.125097 111.750716 
L 30.933144 111.806235 
L 31.045283 111.645652 
L 31.099924 111.284495 
L 31.252139 111.079621 
L 32.701431 109.971199 
L 33.463805 109.610699 
L 36.214076 107.869924 
L 36.787809 107.751071 
L 39.077533 107.510737 
L 40.561951 106.958496 
L 40.702457 106.789081 
L 40.725875 103.914274 
L 40.878089 103.533418 
L 43.284902 99.278337 
L 43.768867 94.422422 
L 44.140947 93.671217 
L 44.870797 93.002748 
L 46.413759 91.267227 
L 46.644032 90.386005 
L 46.69477 83.100491 
L 46.969277 82.816163 
L 47.480562 82.749184 
L 47.913789 82.520671 
L 48.781542 81.802954 
L 49.651898 81.274352 
L 49.981046 80.905972 
L 51.442046 78.863139 
L 51.586455 78.419245 
L 52.519258 76.307464 
L 52.542675 75.856347 
L 52.183605 74.497741 
L 52.249955 74.227202 
L 53.75779 71.20662 
L 54.093443 70.980733 
L 55.12512 70.662258 
L 56.059224 70.666198 
L 56.812491 70.425865 
L 57.274339 70.441624 
L 57.851974 70.287968 
L 59.367616 70.449504 
L 60.06364 70.451474 
L 60.66079 70.191441 
L 61.676855 70.043039 
L 62.289617 69.804675 
L 62.880261 69.723908 
L 64.177338 69.714058 
L 67.65746 68.66933 
L 69.044304 68.568206 
L 69.588114 68.43425 
L 71.024396 68.388941 
L 71.552593 68.130879 
L 72.951147 67.809121 
L 73.044817 67.878726 
L 74.318477 69.568282 
L 74.3497 69.708148 
L 74.6151 73.890341 
L 74.974171 74.231142 
L 76.263442 74.931129 
L 77.178031 75.294912 
L 77.41611 75.577928 
L 79.216666 78.425155 
L 79.579639 78.806011 
L 81.514196 79.539487 
L 91.015253 90.684123 
L 92.749459 91.695362 
L 94.475859 91.789919 
L 104.19548 88.488948 
L 110.712088 88.337262 
L 111.867358 88.540823 
L 115.465869 88.526377 
L 117.656719 88.769337 
L 118.32152 88.613054 
L 121.546649 89.086498 
L 124.446533 88.881623 
L 124.705428 88.779186 
L 127.273424 94.128298 
L 128.482696 95.488529 
L 148.591156 95.662917 
L 148.280201 95.035118 
L 148.176549 94.128298 
L 148.2111 93.047088 
L 148.729359 92.070512 
L 150.353238 90.466137 
L 152.76106 88.580222 
L 155.852188 86.941227 
L 158.875665 85.837402 
L 164.68454 84.553654 
L 166.805138 82.528551 
L 167.977321 80.670892 
L 168.01635 77.019271 
L 168.782627 76.420407 
L 170.169472 75.573988 
L 176.887732 72.313072 
L 178.024788 71.622935 
L 189.897531 79.20788 
L 196.964454 85.503824 
L 197.311815 85.616111 
L 198.768913 84.866875 
L 201.620661 84.788078 
L 207.011921 84.494556 
L 208.785157 83.774869 
L 219.610611 73.052458 
L 223.063411 68.935273 
L 224.629791 66.498451 
L 226.283337 62.310348 
L 226.611184 61.836904 
L 238.473518 51.790841 
L 238.892434 50.994326 
L 239.009522 50.363287 
L 237.216772 46.983518 
L 236.82908 45.266383 
L 236.752322 42.62206 
L 237.107489 38.508815 
L 236.93576 35.614309 
L 236.740613 35.062067 
L 230.118625 27.674117 
L 246.846625 27.599915 
L 246.819304 26.370013 
L 246.503166 25.484194 
L 246.308019 23.977843 
L 246.471943 22.176 
L 258.491696 22.323089 
L 258.335578 24.413858 
L 256.874578 29.329527 
L 256.900598 32.277878 
L 256.472575 35.916367 
L 255.857212 37.057622 
L 255.319907 37.856106 
L 255.312101 38.227112 
L 257.808681 57.06701 
L 257.62134 57.853675 
L 256.78481 59.415842 
L 256.749684 59.715273 
L 257.018987 59.920148 
L 263.038621 62.251249 
L 265.031722 64.674282 
L 276.309917 74.061727 
L 277.564061 77.29572 
L 277.57577 78.490163 
L 277.294758 80.174466 
L 277.388429 80.931582 
L 277.726684 82.009798 
L 277.622605 82.605378 
L 277.622605 82.605378 
" clip-path="url(#p17c677a0e6)" style="fill: none; stroke: #000000; stroke-width: 2"/>
   </g>
  </g>
 </g>
 <defs>
  <clipPath id="p17c677a0e6">
   <rect x="0" y="-0" width="356.463288" height="266.112"/>
  </clipPath>
 </defs>
</svg>
