<?xml version="1.0" encoding="utf-8" standalone="no"?>
<!DOCTYPE svg PUBLIC "-//W3C//DTD SVG 1.1//EN"
  "http://www.w3.org/Graphics/SVG/1.1/DTD/svg11.dtd">
<svg xmlns:xlink="http://www.w3.org/1999/xlink" width="158.960361pt" height="266.112pt" viewBox="0 0 158.960361 266.112" xmlns="http://www.w3.org/2000/svg" version="1.1">
 <metadata>
  <rdf:RDF xmlns:dc="http://purl.org/dc/elements/1.1/" xmlns:cc="http://creativecommons.org/ns#" xmlns:rdf="http://www.w3.org/1999/02/22-rdf-syntax-ns#">
   <cc:Work>
    <dc:type rdf:resource="http://purl.org/dc/dcmitype/StillImage"/>
    <dc:date>2024-02-02T21:58:05.343191</dc:date>
    <dc:format>image/svg+xml</dc:format>
    <dc:creator>
     <cc:Agent>
      <dc:title>Matplotlib v3.8.2, https://matplotlib.org/</dc:title>
     </cc:Agent>
    </dc:creator>
   </cc:Work>
  </rdf:RDF>
 </metadata>
 <defs>
  <style type="text/css">*{stroke-linejoin: round; stroke-linecap: butt}</style>
 </defs>
 <g id="figure_1">
  <g id="patch_1">
   <path d="M 0 266.112 
L 158.960361 266.112 
L 158.960361 0 
L 0 0 
L 0 266.112 
z
" style="fill: none"/>
  </g>
  <g id="axes_1">
   <g id="PatchCollection_1">
    <path d="M 33.696641 236.790095 
L 29.281435 236.89241 
L 28.689151 236.790095 
L 27.278439 241.550442 
L 25.900033 243.386729 
L 24.166256 241.313501 
L 23.207833 243.629055 
L 21.840196 243.936 
L 20.483328 242.675908 
L 19.654131 240.32266 
L 19.869507 240.15034 
L 20.515634 237.867096 
L 20.55871 236.790095 
L 20.127958 235.443843 
L 19.589518 234.862262 
L 19.072616 234.571472 
L 18.67417 234.081436 
L 13.989744 219.0088 
L 13.246697 217.727168 
L 13.860518 216.553236 
L 14.097432 215.390074 
L 14.151276 212.724496 
L 14.463571 211.674419 
L 17.026544 208.62112 
L 17.564984 207.425648 
L 17.704978 206.580202 
L 18.028042 205.745526 
L 22.690931 201.055184 
L 23.713967 200.559763 
L 28.678382 198.879641 
L 32.8136 195.465546 
L 37.088812 192.762272 
L 42.322448 193.246923 
L 45.294635 195.271686 
L 48.363742 198.567311 
L 50.883641 202.385281 
L 52.262047 205.987851 
L 52.843562 209.520416 
L 52.789718 211.620569 
L 52.262047 214.033053 
L 51.206705 216.596316 
L 50.08675 218.201049 
L 46.845342 221.259733 
L 45.197716 223.252186 
L 41.417869 229.477255 
L 40.610209 229.789585 
L 39.382566 230.07499 
L 38.607213 230.640416 
L 39.490254 232.923659 
L 38.510294 233.467545 
L 37.034968 233.758336 
L 36.001164 234.081436 
L 33.955093 236.380834 
L 33.696641 236.790095 
" clip-path="url(#p54541cfcdc)" style="fill: none; stroke: #000000; stroke-width: 2"/>
    <path d="M 141.966123 33.366046 
L 142.116886 36.36011 
L 141.44922 38.987994 
L 140.792324 40.312706 
L 139.823132 40.872746 
L 138.175506 41.141997 
L 137.69091 41.901283 
L 137.744754 43.04829 
L 137.593991 44.486087 
L 137.24939 43.985281 
L 136.840175 43.00521 
L 136.6248 42.606719 
L 135.741758 42.994439 
L 134.901792 43.58679 
L 133.738762 41.448942 
L 131.908067 40.818896 
L 129.969683 40.689656 
L 128.483589 39.968065 
L 128.063606 35.875459 
L 128.160525 33.441436 
L 129.388168 33.646066 
L 131.585003 32.730615 
L 132.651114 31.492063 
L 132.974177 29.849636 
L 132.984946 27.690248 
L 133.684918 25.164679 
L 135.461769 23.161456 
L 137.809367 22.176 
L 140.221578 22.714501 
L 143.861431 23.048371 
L 145.315218 23.694572 
L 145.713664 25.514705 
L 145.002923 26.117826 
L 143.516829 26.715561 
L 142.019967 27.587933 
L 141.212307 29.04727 
L 143.172228 29.364985 
L 144.916773 30.307362 
L 145.584438 31.303588 
L 144.378333 31.761314 
L 142.472256 32.213654 
L 141.966123 33.366046 
" clip-path="url(#p54541cfcdc)" style="fill: none; stroke: #000000; stroke-width: 2"/>
   </g>
  </g>
 </g>
 <defs>
  <clipPath id="p54541cfcdc">
   <rect x="0" y="-0" width="158.960361" height="266.112"/>
  </clipPath>
 </defs>
</svg>
