<?xml version="1.0" encoding="utf-8" standalone="no"?>
<!DOCTYPE svg PUBLIC "-//W3C//DTD SVG 1.1//EN"
  "http://www.w3.org/Graphics/SVG/1.1/DTD/svg11.dtd">
<svg xmlns:xlink="http://www.w3.org/1999/xlink" width="259.341858pt" height="266.112pt" viewBox="0 0 259.341858 266.112" xmlns="http://www.w3.org/2000/svg" version="1.1">
 <metadata>
  <rdf:RDF xmlns:dc="http://purl.org/dc/elements/1.1/" xmlns:cc="http://creativecommons.org/ns#" xmlns:rdf="http://www.w3.org/1999/02/22-rdf-syntax-ns#">
   <cc:Work>
    <dc:type rdf:resource="http://purl.org/dc/dcmitype/StillImage"/>
    <dc:date>2024-02-02T21:58:05.367197</dc:date>
    <dc:format>image/svg+xml</dc:format>
    <dc:creator>
     <cc:Agent>
      <dc:title>Matplotlib v3.8.2, https://matplotlib.org/</dc:title>
     </cc:Agent>
    </dc:creator>
   </cc:Work>
  </rdf:RDF>
 </metadata>
 <defs>
  <style type="text/css">*{stroke-linejoin: round; stroke-linecap: butt}</style>
 </defs>
 <g id="figure_1">
  <g id="patch_1">
   <path d="M 0 266.112 
L 259.341858 266.112 
L 259.341858 0 
L 0 0 
L 0 266.112 
z
" style="fill: none"/>
  </g>
  <g id="axes_1">
   <g id="PatchCollection_1">
    <path d="M 227.954533 57.376657 
L 226.922218 58.577675 
L 222.75466 61.585198 
L 220.521746 63.882325 
L 219.427181 65.453972 
L 218.814224 67.56733 
L 218.472172 67.928013 
L 217.656721 68.502638 
L 217.421389 68.841379 
L 217.117647 69.76983 
L 214.225258 73.033808 
L 213.251094 74.578027 
L 212.925461 75.414593 
L 212.777695 76.326587 
L 213.240149 78.442687 
L 213.136165 79.225767 
L 212.887151 79.506908 
L 211.477898 80.495702 
L 211.234357 81.018213 
L 211.327395 81.559924 
L 211.661238 82.307347 
L 211.661238 88.861361 
L 211.833632 89.575871 
L 212.263249 89.869355 
L 212.807795 90.021582 
L 213.319505 90.312323 
L 213.94888 91.291517 
L 213.965298 92.195282 
L 213.784695 93.208761 
L 213.828478 94.51161 
L 214.487953 96.246456 
L 214.583728 96.867709 
L 214.583728 99.041409 
L 214.334714 99.956146 
L 213.286668 101.899447 
L 213.136165 103.243438 
L 214.0556 108.967744 
L 215.670084 112.334579 
L 216.138011 114.623478 
L 216.187266 115.972955 
L 215.847951 116.882206 
L 215.267831 117.873742 
L 215.478535 118.778879 
L 216.096965 119.501617 
L 216.753704 119.944586 
L 218.532373 120.424583 
L 219.079656 120.859323 
L 219.284887 121.953715 
L 219.131648 122.753253 
L 218.201267 125.413807 
L 218.269677 126.73037 
L 218.773178 127.620421 
L 220.581947 129.25241 
L 220.91579 129.769436 
L 221.484964 131.608509 
L 221.837961 132.091249 
L 222.932527 133.056728 
L 224.243269 135.507455 
L 225.239324 136.046423 
L 225.46371 136.500363 
L 225.647049 136.470192 
L 226.043829 137.092816 
L 226.550066 138.132352 
L 227.390145 138.975775 
L 227.994892 139.25143 
L 229.800926 139.786284 
L 230.36189 140.157939 
L 231.459192 141.787185 
L 232.006475 142.370038 
L 233.087359 146.135957 
L 234.324218 148.02303 
L 234.354318 148.342571 
L 236.06184 147.97503 
L 236.540713 148.162915 
L 237.282281 148.922681 
L 237.599705 149.591934 
L 237.523085 150.403814 
L 237.098941 151.606549 
L 236.674797 153.836477 
L 236.847191 157.850623 
L 235.982484 159.974951 
L 234.058786 161.975853 
L 233.812508 162.690362 
L 233.686633 163.620185 
L 233.328163 164.661092 
L 232.728794 165.604318 
L 230.955692 166.874563 
L 229.592958 169.016721 
L 227.658313 171.375562 
L 226.922218 172.568697 
L 225.824916 175.259422 
L 227.053566 175.070167 
L 227.630949 175.835419 
L 227.756824 177.036782 
L 227.633686 178.158603 
L 227.26427 178.413687 
L 227.026202 178.591972 
L 226.911272 178.882713 
L 227.023465 178.926598 
L 227.633686 179.425795 
L 228.049621 181.452753 
L 227.814289 181.781894 
L 227.204069 182.138463 
L 227.488656 182.884515 
L 228.071512 183.540054 
L 228.353363 183.627825 
L 228.37799 184.35742 
L 227.833444 186.293864 
L 227.102821 187.366314 
L 226.911272 187.975225 
L 226.875699 188.532021 
L 226.966001 188.88859 
L 227.297107 189.247902 
L 227.994892 189.821155 
L 227.360044 190.166753 
L 227.004311 190.605607 
L 226.166968 193.074163 
L 225.753769 193.888786 
L 221.898162 199.113894 
L 220.040137 202.899012 
L 217.974145 208.135092 
L 217.117647 209.421484 
L 214.583728 211.961353 
L 213.94888 212.216437 
L 213.149847 212.331636 
L 211.981398 212.34535 
L 210.88136 212.962489 
L 209.455688 216.580294 
L 208.85915 217.043834 
L 207.822049 217.153547 
L 206.04338 216.610465 
L 205.277184 216.744864 
L 204.42616 217.781657 
L 203.428737 218.108055 
L 202.409423 218.300054 
L 201.377795 218.327482 
L 200.337957 218.168398 
L 199.722264 217.858457 
L 199.593653 217.430574 
L 199.652486 216.917663 
L 199.584075 216.352638 
L 199.109307 215.145789 
L 199.413049 214.144653 
L 199.555343 214.087053 
L 200.086207 214.010254 
L 200.173773 213.681113 
L 199.53482 211.196101 
L 198.819248 210.790161 
L 197.661745 210.337592 
L 196.773778 210.375992 
L 195.042996 211.3113 
L 192.425617 212.090266 
L 190.393829 211.355185 
L 185.18917 206.275447 
L 184.964784 205.781736 
L 185.137178 205.052141 
L 186.160597 204.012605 
L 186.508122 203.30221 
L 186.220798 202.775585 
L 185.279472 202.885298 
L 183.114968 203.752035 
L 182.055976 204.424031 
L 180.014611 206.160248 
L 177.653086 207.24367 
L 177.231679 207.197041 
L 176.821216 206.766416 
L 177.007293 205.754308 
L 176.758279 205.260597 
L 174.949509 205.411453 
L 170.714909 208.672689 
L 169.479418 208.595889 
L 168.858252 207.822409 
L 168.020909 207.515211 
L 167.08232 207.589267 
L 166.169725 207.962293 
L 165.281759 208.831773 
L 164.987595 209.821938 
L 164.845301 210.792903 
L 164.406107 211.610269 
L 162.895606 212.265808 
L 160.991062 212.230151 
L 158.938752 211.966839 
L 156.979479 211.936667 
L 153.966688 212.208208 
L 152.954215 212.071066 
L 151.843231 212.065581 
L 149.879854 212.984432 
L 145.70135 214.032196 
L 144.651935 213.812769 
L 144.096443 213.368429 
L 143.486223 212.208208 
L 143.092179 211.741926 
L 142.585942 211.470385 
L 138.845265 210.543305 
L 137.950457 210.104451 
L 135.07175 207.729152 
L 133.897828 207.065385 
L 132.636342 206.950186 
L 132.001494 207.155899 
L 131.671756 207.454868 
L 131.265398 208.387433 
L 130.704433 210.647533 
L 130.66886 213.003632 
L 130.395219 213.930711 
L 128.441419 216.679036 
L 127.810676 216.969777 
L 127.214138 216.925892 
L 126.259129 216.421209 
L 125.606494 216.572065 
L 124.916918 217.419603 
L 124.112412 218.944621 
L 123.483037 220.516268 
L 123.329798 221.500947 
L 123.940018 221.906888 
L 126.259129 222.046772 
L 127.240133 222.279914 
L 128.241661 223.206993 
L 128.727374 225.294294 
L 129.442947 226.421601 
L 131.325599 227.806735 
L 133.221934 230.269804 
L 135.030704 231.824994 
L 135.43022 232.424304 
L 135.595773 233.100414 
L 135.318027 234.070008 
L 135.14837 234.74886 
L 135.214044 237.107702 
L 135.509576 239.226545 
L 135.230462 241.138304 
L 133.547567 242.886864 
L 130.061376 243.936 
L 126.725688 243.243433 
L 123.409154 241.904928 
L 119.99411 241.014876 
L 117.443772 241.168475 
L 116.603693 241.069733 
L 115.602165 240.647336 
L 113.700358 239.426772 
L 112.676939 238.994775 
L 111.658993 238.87409 
L 110.10471 239.256716 
L 109.116864 239.360944 
L 108.342459 239.20186 
L 105.588259 238.197981 
L 105.414496 237.582213 
L 105.0916 237.067931 
L 104.626409 236.692162 
L 103.515425 236.334221 
L 103.06939 236.065423 
L 102.693133 235.701997 
L 102.3976 235.249428 
L 100.401386 234.20715 
L 95.210409 234.122122 
L 93.76011 233.525554 
L 88.662171 226.289944 
L 88.276336 224.707326 
L 87.874083 223.549848 
L 87.352797 221.210206 
L 86.681007 220.178899 
L 86.208976 219.926558 
L 84.987167 219.698902 
L 84.495981 219.452047 
L 84.268858 218.977535 
L 84.297591 217.065776 
L 83.706525 215.88087 
L 81.811559 214.224195 
L 81.407938 213.261459 
L 81.748621 212.498949 
L 81.843027 211.947639 
L 81.587173 211.431985 
L 80.710152 210.617362 
L 80.45977 210.151079 
L 80.288744 209.421484 
L 80.398201 208.90583 
L 80.65816 208.318863 
L 80.729307 207.740123 
L 80.288744 207.249155 
L 79.207861 208.044579 
L 78.46082 208.302405 
L 78.118768 207.808694 
L 78.397882 206.020363 
L 78.302108 205.633623 
L 76.964001 204.072948 
L 76.706778 203.592951 
L 76.671205 202.690557 
L 77.065249 201.371251 
L 76.706778 200.69377 
L 75.60674 201.316394 
L 75.185332 201.003711 
L 74.867908 198.913667 
L 74.342517 197.939959 
L 72.97431 196.49174 
L 72.697932 195.797802 
L 73.390245 194.023185 
L 72.878535 193.773587 
L 70.891899 194.168555 
L 70.541638 193.167419 
L 71.4556 191.25566 
L 71.086184 190.90732 
L 70.459546 191.022519 
L 68.902526 191.631429 
L 68.267678 191.403774 
L 67.862689 190.408123 
L 67.438545 190.18321 
L 67.222368 189.634642 
L 66.51911 186.88906 
L 67.011664 186.362435 
L 67.838061 185.704154 
L 68.415444 184.958102 
L 68.160958 184.170907 
L 66.401444 183.984394 
L 65.72555 183.594911 
L 66.437017 182.41549 
L 66.40418 181.998578 
L 66.250941 181.535038 
L 66.157903 180.893214 
L 66.327561 180.706701 
L 67.069129 180.745101 
L 67.241523 180.528416 
L 67.186795 180.127962 
L 66.382289 177.867862 
L 65.468327 177.025811 
L 64.986718 176.057589 
L 65.79396 174.502399 
L 65.566838 174.332343 
L 65.468327 174.173258 
L 64.647403 174.81234 
L 64.122011 174.982396 
L 63.591147 174.894625 
L 63.002818 174.463999 
L 63.101329 174.115659 
L 63.44338 173.693261 
L 63.591147 173.051437 
L 63.021973 171.825388 
L 62.90157 171.241163 
L 62.945353 170.59111 
L 63.29835 168.868607 
L 63.109538 168.235011 
L 62.778432 167.7989 
L 62.660766 167.357303 
L 63.098592 166.693536 
L 63.175212 166.361652 
L 63.29835 164.518464 
L 63.134166 163.773784 
L 61.817951 161.061116 
L 60.143265 162.374936 
L 58.728539 162.616306 
L 57.313813 162.180194 
L 55.641864 161.454713 
L 55.699329 162.416078 
L 55.329913 162.880989 
L 53.833095 163.26773 
L 53.326858 163.806698 
L 52.930078 164.03161 
L 52.308912 163.363729 
L 51.466097 163.26773 
L 50.486461 162.635505 
L 49.805094 162.501106 
L 49.287911 163.543385 
L 48.80083 163.617442 
L 48.223446 163.454243 
L 45.675845 162.030709 
L 43.732991 161.536998 
L 43.295165 161.044659 
L 42.95585 159.859752 
L 42.988687 159.419527 
L 43.286956 158.104335 
L 43.163817 157.101827 
L 43.968323 155.537038 
L 44.044942 154.598987 
L 43.177499 153.615679 
L 41.7573 152.714656 
L 40.930903 152.528143 
L 40.624425 152.079689 
L 40.577906 151.890433 
L 40.156498 151.107353 
L 39.699517 149.793533 
L 37.680044 148.498913 
L 35.091396 147.42372 
L 34.210271 146.861438 
L 33.616469 145.876758 
L 33.301782 144.756308 
L 33.159488 142.348096 
L 32.935102 141.329131 
L 31.8077 138.91269 
L 29.123278 134.973973 
L 28.261307 133.963237 
L 24.777852 131.212169 
L 23.494474 129.596637 
L 22.971819 127.721906 
L 22.279507 123.208564 
L 21.611821 120.922408 
L 21.70486 119.823901 
L 22.440955 118.695223 
L 27.051812 113.974796 
L 27.640141 113.073774 
L 27.982193 112.026009 
L 28.094386 110.690247 
L 27.94662 109.811167 
L 27.659296 109.0034 
L 27.492375 108.168206 
L 27.703079 107.197241 
L 28.225734 106.381246 
L 29.333981 105.009827 
L 29.725289 103.251667 
L 30.699452 100.892825 
L 31.596996 99.389749 
L 32.434338 96.688053 
L 33.381138 95.319376 
L 33.805282 94.397782 
L 33.879165 93.39116 
L 33.438602 92.453109 
L 32.018403 90.63735 
L 31.309672 88.45405 
L 30.431283 87.867082 
L 29.547422 87.418628 
L 29.147905 86.687661 
L 29.511848 84.903444 
L 30.362873 83.684252 
L 32.043031 81.762894 
L 33.121178 79.964963 
L 33.520695 79.589194 
L 34.185643 79.420509 
L 35.868538 79.951248 
L 37.165598 79.771592 
L 37.781291 79.288853 
L 38.577588 77.777548 
L 39.997786 76.408872 
L 41.773719 75.535277 
L 43.763092 75.420078 
L 45.842766 76.326587 
L 48.165982 75.491392 
L 49.38095 75.278822 
L 50.740947 75.207508 
L 51.025534 75.381678 
L 51.838249 76.151045 
L 52.18851 76.326587 
L 52.872614 76.266244 
L 53.764685 75.993332 
L 57.954134 75.562706 
L 59.853205 74.985338 
L 60.70423 74.588998 
L 61.456744 74.482027 
L 62.767486 74.790597 
L 63.29835 74.482027 
L 61.366442 72.737582 
L 61.128374 72.143757 
L 61.358233 70.838165 
L 62.14632 69.048463 
L 62.499318 67.523444 
L 62.846842 66.789735 
L 63.44338 66.477051 
L 64.384707 66.509965 
L 65.055128 66.718421 
L 65.506636 67.26836 
L 65.79396 68.324353 
L 66.61762 67.98287 
L 67.452227 67.501502 
L 68.09802 66.885734 
L 68.35798 66.146539 
L 67.9612 65.083689 
L 66.196213 62.937417 
L 65.566838 61.604397 
L 65.035973 61.44257 
L 64.433962 61.472741 
L 63.987927 61.733311 
L 63.894889 62.242108 
L 64.16853 62.755019 
L 64.71034 63.398214 
L 64.570783 63.750669 
L 64.220522 63.978325 
L 63.763541 64.038667 
L 63.29835 63.907011 
L 63.032918 63.61627 
L 62.937144 63.197987 
L 62.855051 59.49104 
L 62.685394 59.342927 
L 62.351551 59.359384 
L 61.817951 59.229099 
L 61.054491 59.540411 
L 60.583828 59.540411 
L 60.373124 59.048071 
L 60.553727 58.465218 
L 60.986081 57.896079 
L 63.561046 55.305467 
L 64.105593 54.45793 
L 64.316296 53.216795 
L 64.376498 52.078517 
L 64.543419 51.235094 
L 65.034271 50.128725 
L 66.230105 48.930083 
L 67.927975 48.282168 
L 68.643321 47.705524 
L 69.138892 47.05761 
L 69.481482 46.299549 
L 70.754884 40.565504 
L 71.006979 35.533366 
L 71.371116 33.768878 
L 71.489229 32.442642 
L 72.120584 30.28245 
L 72.732909 28.819028 
L 74.13554 26.505753 
L 74.355315 25.909672 
L 74.652658 25.438854 
L 75.094362 25.132174 
L 76.305279 24.918362 
L 77.470949 24.17758 
L 78.440544 23.179791 
L 79.494171 22.890389 
L 80.062197 22.304543 
L 80.450578 22.176 
L 85.193297 23.340367 
L 87.132236 23.556905 
L 89.760368 23.559472 
L 96.178927 23.866943 
L 97.083342 24.211563 
L 98.725426 25.250594 
L 99.695392 25.6696 
L 100.709649 25.93479 
L 103.203262 26.158125 
L 112.302415 28.380909 
L 115.014521 28.495678 
L 129.090057 32.123174 
L 131.145255 32.837146 
L 134.490611 33.158365 
L 135.450603 34.215939 
L 136.209042 34.660841 
L 136.519313 35.369227 
L 136.519313 39.949985 
L 136.543014 39.949985 
L 136.913615 39.949985 
L 137.191565 39.114175 
L 137.282061 38.284844 
L 137.243277 36.48796 
L 137.070905 35.557123 
L 135.583788 32.250196 
L 136.399207 31.178432 
L 135.867549 30.703164 
L 134.599019 30.761055 
L 133.862273 30.140387 
L 133.687695 29.079375 
L 133.925992 28.284181 
L 135.846782 25.889184 
L 136.362606 25.340917 
L 137.135818 24.756585 
L 138.092225 24.39255 
L 139.34236 24.066188 
L 150.30696 23.538304 
L 163.139054 24.176891 
L 166.26436 24.769646 
L 167.75215 25.797149 
L 170.086708 26.695808 
L 171.722092 27.924687 
L 172.329705 28.086665 
L 173.335388 28.163781 
L 174.080559 28.236286 
L 175.367771 27.743271 
L 176.226211 27.663983 
L 178.186062 29.097412 
L 178.594965 29.880761 
L 177.959848 31.435079 
L 177.177682 32.304591 
L 177.244477 32.272195 
L 178.704463 31.78692 
L 179.198359 30.603721 
L 179.249375 29.418757 
L 179.526258 29.011024 
L 180.696334 29.006552 
L 182.445818 30.233423 
L 183.518837 30.458033 
L 184.210482 30.302534 
L 184.641413 30.02609 
L 185.050798 29.931063 
L 186.235859 30.656727 
L 186.686182 30.736637 
L 187.657932 30.458033 
L 188.071626 30.198868 
L 188.715869 29.537995 
L 189.33641 29.404092 
L 189.838445 29.512078 
L 190.370645 29.777723 
L 191.30792 30.458033 
L 191.068754 30.02609 
L 190.293077 29.246433 
L 189.864301 29.011024 
L 189.166192 28.872802 
L 188.683901 28.94593 
L 187.585759 29.707752 
L 186.373722 29.819062 
L 185.560472 29.30464 
L 184.815524 29.138999 
L 183.974468 29.623513 
L 183.176246 29.585508 
L 182.374714 28.922475 
L 181.551635 28.50781 
L 178.479095 27.624486 
L 177.401767 27.108314 
L 176.483883 26.499274 
L 176.091736 25.929109 
L 175.893507 25.371903 
L 175.58415 25.013495 
L 175.935873 24.457349 
L 176.403122 24.157152 
L 177.867173 23.572859 
L 179.537847 23.286626 
L 183.318454 23.140916 
L 196.043856 23.572859 
L 197.009142 23.801789 
L 199.275808 24.054396 
L 201.340921 24.425524 
L 212.025485 25.923457 
L 218.546669 27.367935 
L 223.626471 28.373579 
L 228.040506 29.80148 
L 231.85025 30.893097 
L 233.064952 31.023237 
L 233.722866 31.253007 
L 235.06259 31.157878 
L 235.36907 31.591334 
L 235.92409 31.800143 
L 236.229881 32.336318 
L 236.14413 32.89068 
L 237.426746 35.343194 
L 237.730036 36.289709 
L 237.223652 36.881028 
L 235.358269 40.342408 
L 235.078088 42.455272 
L 234.340722 46.565194 
L 233.771893 48.645001 
L 233.110413 49.86956 
L 232.147282 51.031487 
L 230.733827 52.366191 
L 230.518361 52.862926 
L 230.201627 53.877992 
L 227.95432 57.376732 
L 227.954533 57.376657 
" clip-path="url(#p0cbaab92d8)" style="fill: none; stroke: #000000; stroke-width: 2"/>
   </g>
  </g>
 </g>
 <defs>
  <clipPath id="p0cbaab92d8">
   <rect x="0" y="-0" width="259.341858" height="266.112"/>
  </clipPath>
 </defs>
</svg>
