<?xml version="1.0" encoding="utf-8" standalone="no"?>
<!DOCTYPE svg PUBLIC "-//W3C//DTD SVG 1.1//EN"
  "http://www.w3.org/Graphics/SVG/1.1/DTD/svg11.dtd">
<svg xmlns:xlink="http://www.w3.org/1999/xlink" width="357.12pt" height="175.850417pt" viewBox="0 0 357.12 175.850417" xmlns="http://www.w3.org/2000/svg" version="1.1">
 <metadata>
  <rdf:RDF xmlns:dc="http://purl.org/dc/elements/1.1/" xmlns:cc="http://creativecommons.org/ns#" xmlns:rdf="http://www.w3.org/1999/02/22-rdf-syntax-ns#">
   <cc:Work>
    <dc:type rdf:resource="http://purl.org/dc/dcmitype/StillImage"/>
    <dc:date>2024-02-02T21:58:05.391201</dc:date>
    <dc:format>image/svg+xml</dc:format>
    <dc:creator>
     <cc:Agent>
      <dc:title>Matplotlib v3.8.2, https://matplotlib.org/</dc:title>
     </cc:Agent>
    </dc:creator>
   </cc:Work>
  </rdf:RDF>
 </metadata>
 <defs>
  <style type="text/css">*{stroke-linejoin: round; stroke-linecap: butt}</style>
 </defs>
 <g id="figure_1">
  <g id="patch_1">
   <path d="M 0 175.850417 
L 357.12 175.850417 
L 357.12 -0 
L 0 -0 
L 0 175.850417 
z
" style="fill: none"/>
  </g>
  <g id="axes_1">
   <g id="PatchCollection_1">
    <path d="M 179.305296 31.609138 
L 180.363833 31.502812 
L 182.113659 30.807602 
L 182.594321 31.167475 
L 183.080383 32.664221 
L 183.345017 33.981029 
L 183.571847 38.13184 
L 183.172195 38.724813 
L 183.139791 39.060149 
L 183.323415 39.325965 
L 184.13892 40.062069 
L 184.554774 40.495553 
L 184.651986 40.839068 
L 184.52777 41.28482 
L 183.658258 41.742841 
L 181.681603 44.940805 
L 181.470976 45.98362 
L 182.146063 46.907839 
L 183.463833 47.386307 
L 185.872544 47.566244 
L 187.033693 47.140939 
L 188.78892 45.341573 
L 189.734042 44.646363 
L 191.408258 44.462337 
L 192.861045 45.21071 
L 195.555993 47.725733 
L 197.289617 48.568164 
L 198.310348 47.787075 
L 198.850418 45.807772 
L 199.147456 43.043292 
L 199.79554 42.266293 
L 201.453554 38.225898 
L 201.750592 37.833309 
L 201.880209 37.955993 
L 203.030557 38.090945 
L 203.543624 37.616567 
L 204.683171 36.271132 
L 205.477073 35.829469 
L 209.511394 35.477775 
L 209.770627 35.126081 
L 210.41331 32.90141 
L 210.521324 32.173484 
L 210.715749 31.682748 
L 211.250418 31.28607 
L 211.871498 31.273801 
L 214.010174 32.071248 
L 216.710523 31.969011 
L 216.699721 30.607218 
L 217.515226 30.423192 
L 221.932996 32.651952 
L 223.077944 32.930036 
L 224.314704 32.492463 
L 224.914181 31.936295 
L 225.745889 30.918018 
L 226.280557 30.619486 
L 226.76122 30.586771 
L 227.889965 30.754439 
L 229.86662 30.43955 
L 230.682125 30.582681 
L 235.321324 36.066658 
L 236.147631 36.663721 
L 237.319582 36.843657 
L 238.210697 36.790494 
L 239.031603 36.913178 
L 240.009129 37.632925 
L 240.862439 38.512161 
L 241.710348 39.121491 
L 242.671672 39.301428 
L 243.897631 38.863855 
L 245.026376 37.894651 
L 246.732997 35.420522 
L 247.807735 34.385887 
L 248.628641 34.214129 
L 249.730383 34.201861 
L 250.697108 34.009656 
L 251.123763 33.28582 
L 250.486481 32.091695 
L 249.282125 31.367859 
L 248.644843 30.648113 
L 249.70338 29.478525 
L 250.502683 29.102294 
L 252.625157 28.676989 
L 253.435261 28.750599 
L 254.380383 29.392646 
L 255.125679 30.214629 
L 255.924983 30.758528 
L 257.048328 30.574502 
L 257.944843 29.74434 
L 259.575854 27.356091 
L 260.520976 26.709955 
L 261.244669 26.881712 
L 264.171847 28.423442 
L 269.264704 29.846577 
L 270.128815 29.838398 
L 272.067666 29.417183 
L 272.834564 29.642103 
L 274.57899 28.942804 
L 278.321672 28.525678 
L 279.299199 28.775136 
L 279.828467 29.12683 
L 281.329861 30.427281 
L 281.724111 30.480445 
L 282.534216 30.300508 
L 283.052683 30.451818 
L 283.932997 31.343322 
L 285.688223 34.017835 
L 286.492927 34.663971 
L 287.038397 34.304097 
L 287.778293 33.433041 
L 288.680209 32.615147 
L 289.733345 32.422942 
L 290.689268 32.962752 
L 292.606516 34.708955 
L 295.420279 36.099374 
L 297.305122 37.857846 
L 298.806516 40.262453 
L 299.465401 43.05556 
L 299.811045 45.574673 
L 301.290836 46.650203 
L 304.990314 47.349502 
L 307.296411 48.703116 
L 307.820279 48.735832 
L 309.07324 48.584522 
L 309.505296 48.666311 
L 310.07777 49.300179 
L 310.083171 49.856346 
L 309.937352 50.36753 
L 310.056167 50.866445 
L 310.445017 51.197692 
L 312.896934 51.941975 
L 315.786307 51.831559 
L 316.89885 52.269133 
L 319.545192 54.915019 
L 321.462439 55.499813 
L 325.550767 55.67566 
L 327.36 56.563074 
L 326.960348 57.867615 
L 326.5823 59.67516 
L 326.339268 61.499063 
L 326.360871 62.836319 
L 325.550767 63.52335 
L 323.541707 63.817792 
L 322.623589 64.537538 
L 321.489442 67.858186 
L 320.776551 69.653463 
L 320.679338 71.158388 
L 320.187875 71.865866 
L 318.934913 72.925038 
L 318.438049 73.636605 
L 318.092404 74.60172 
L 318.054599 75.21923 
L 318.157213 75.865366 
L 318.270627 78.548057 
L 318.151812 79.083778 
L 317.789965 79.99164 
L 317.336307 80.645954 
L 316.844843 81.034454 
L 316.445192 81.553816 
L 316.283171 82.612989 
L 316.347979 84.310118 
L 316.013136 85.99089 
L 315.375854 87.467188 
L 314.538746 88.579523 
L 313.906864 88.99256 
L 312.513484 89.438312 
L 311.870801 89.879974 
L 311.476551 90.436142 
L 310.607038 92.274358 
L 307.193798 95.049063 
L 306.410697 96.337245 
L 306.302683 97.940317 
L 306.912962 101.14646 
L 306.729338 102.389658 
L 306.151463 103.677841 
L 306.102857 109.37856 
L 305.11453 110.656519 
L 304.201812 111.386489 
L 303.229686 111.672752 
L 300.102683 111.361952 
L 299.157561 111.423294 
L 298.196237 111.758631 
L 295.468885 111.901762 
L 294.707387 112.204383 
L 293.114181 113.124513 
L 290.862091 113.463939 
L 288.156341 114.860493 
L 286.568537 114.999535 
L 284.932125 114.435188 
L 283.549547 113.402597 
L 282.312787 111.946746 
L 278.958955 106.565006 
L 278.278467 103.29752 
L 277.824808 102.397837 
L 276.933693 102.195409 
L 275.005645 102.22199 
L 274.173937 101.83758 
L 273.822892 101.281412 
L 273.347631 99.747862 
L 273.001986 99.06901 
L 272.553728 98.658018 
L 271.608606 98.283832 
L 269.85338 97.228749 
L 269.091882 96.995649 
L 266.380732 97.860572 
L 264.598502 97.899422 
L 263.723589 98.079359 
L 262.702857 98.686645 
L 262.265401 99.424794 
L 261.968362 100.267224 
L 261.358084 101.154639 
L 260.585784 101.592212 
L 259.991707 101.330486 
L 259.343624 100.780453 
L 258.398502 100.363327 
L 256.664878 100.760005 
L 252.619756 102.706592 
L 251.296585 102.397837 
L 250.243449 101.350933 
L 248.785261 100.686395 
L 247.246063 100.408311 
L 245.939094 100.510548 
L 244.075854 100.342879 
L 241.229686 98.592587 
L 239.587875 98.41674 
L 238.831777 98.218401 
L 237.281777 96.795266 
L 236.471672 96.365871 
L 235.623763 96.380184 
L 224.568537 98.950415 
L 221.328118 99.171247 
L 219.821324 99.780578 
L 219.745714 101.036044 
L 219.821324 103.526531 
L 219.000587 104.710174 
L 217.412613 106.403472 
L 216.629512 107.444242 
L 216.024634 108.673127 
L 213.993972 114.95455 
L 212.903031 117.238519 
L 211.596063 119.258716 
L 210.078467 120.804535 
L 208.884913 121.434313 
L 208.253031 121.162364 
L 207.664355 120.506004 
L 206.622021 119.974373 
L 206.033345 120.236099 
L 204.456341 121.708308 
L 203.581429 122.100897 
L 202.66331 122.002749 
L 202.128641 121.802365 
L 201.680383 121.892334 
L 201.026899 122.677512 
L 200.821672 123.233679 
L 200.535436 124.656814 
L 200.151986 125.364292 
L 199.71993 125.709852 
L 198.731603 126.096307 
L 196.479512 127.494906 
L 194.492056 128.124684 
L 193.2877 128.879191 
L 190.922195 131.118175 
L 189.690836 131.576195 
L 188.605296 131.15498 
L 186.61784 129.331077 
L 185.332474 128.915996 
L 183.447631 129.645966 
L 182.950767 129.580534 
L 182.459303 128.830117 
L 182.58892 128.161489 
L 182.885958 127.478548 
L 182.858955 126.701549 
L 181.930035 125.560587 
L 180.704077 125.356113 
L 178.295366 125.830492 
L 177.771498 125.554453 
L 176.637352 124.133362 
L 176.043275 123.622179 
L 175.519408 123.466779 
L 174.963136 123.448376 
L 170.156516 124.742693 
L 169.254599 125.272279 
L 168.682125 126.423465 
L 168.190662 129.486477 
L 167.569582 130.913701 
L 167.677596 131.776579 
L 167.569582 132.602652 
L 164.772021 134.61876 
L 157.718711 134.467449 
L 154.597108 136.499915 
L 154.024634 136.61851 
L 147.543798 135.814929 
L 144.416794 136.279084 
L 142.21331 136.172758 
L 141.446411 136.53672 
L 133.955645 138.246118 
L 133.042927 139.00267 
L 131.644146 141.955266 
L 131.147282 142.392839 
L 130.131951 142.568686 
L 129.65669 142.85086 
L 128.976202 143.703514 
L 129.046411 143.995911 
L 129.408258 144.312845 
L 129.58108 145.226841 
L 129.057213 148.494326 
L 128.927596 150.160785 
L 129.26784 151.643217 
L 130.796237 153.168589 
L 132.805296 154.66329 
L 132.724996 154.69225 
L 130.256167 155.475049 
L 129.34885 156.16208 
L 127.620627 158.180232 
L 126.346063 158.983813 
L 124.823066 159.147392 
L 123.262265 158.836592 
L 121.36122 157.979848 
L 119.017317 157.806046 
L 108.318537 159.077871 
L 104.408432 160.70139 
L 102.469582 160.889505 
L 96.02655 160.208609 
L 81.034216 161.196215 
L 76.659652 159.979598 
L 73.246411 158.096398 
L 72.700941 157.474799 
L 72.290488 156.660995 
L 71.323763 155.720417 
L 70.238223 154.92706 
L 69.460523 154.530382 
L 68.871847 154.62035 
L 68.347979 154.882076 
L 67.807909 154.902523 
L 67.170627 154.233895 
L 65.404599 151.532801 
L 64.918537 151.205644 
L 63.066098 150.69446 
L 62.553031 150.211903 
L 57.190139 142.899933 
L 55.542927 141.513604 
L 51.593989 140.836402 
L 49.429338 140.221331 
L 47.544495 139.808295 
L 45.638049 140.981973 
L 44.417491 139.867593 
L 42.727073 139.256217 
L 41.528118 138.589634 
L 41.808955 137.291227 
L 40.977247 136.630778 
L 41.544321 134.357034 
L 42.07899 133.688406 
L 41.398502 132.950256 
L 40.366969 131.046609 
L 39.816098 130.68878 
L 38.97899 130.557917 
L 38.260697 130.112165 
L 36.942927 128.648136 
L 36.570279 127.415161 
L 36.564878 125.699629 
L 36.316446 124.268315 
L 35.479338 121.047858 
L 35.500941 119.798526 
L 35.306516 119.524531 
L 34.982474 119.412071 
L 34.404599 118.88044 
L 33.529686 118.399928 
L 32.805993 116.555577 
L 32.579164 116.391999 
L 32.881603 115.53321 
L 33.000418 115.181516 
L 32.762787 114.553782 
L 31.677247 113.492565 
L 31.380209 113.316718 
L 30.327073 113.204258 
L 29.922021 112.956845 
L 29.76 112.480422 
L 29.884216 111.251537 
L 30.013833 111.016392 
L 30.14885 110.517477 
L 30.829338 105.162318 
L 31.358606 104.097012 
L 32.724983 102.113619 
L 33.000418 101.060581 
L 33.389268 100.314253 
L 34.25338 99.612909 
L 35.112091 98.700958 
L 35.500941 97.30236 
L 35.014878 93.601391 
L 35.144495 92.098511 
L 35.970801 91.086368 
L 36.570279 89.984256 
L 39.21122 82.351263 
L 40.496585 80.159308 
L 42.295017 78.60122 
L 43.045714 77.648374 
L 43.353554 76.155718 
L 43.828815 75.419614 
L 46.637178 73.37488 
L 48.975679 72.875964 
L 51.487003 73.530279 
L 57.449373 76.552396 
L 58.35669 76.380639 
L 60.333345 75.084277 
L 61.575505 74.720315 
L 62.337003 75.088367 
L 63.93561 76.777317 
L 65.847456 77.075849 
L 75.887352 73.125422 
L 76.810871 72.360691 
L 78.614704 69.260874 
L 79.457213 68.561575 
L 80.742578 68.340744 
L 81.844321 68.528859 
L 82.843449 68.471607 
L 83.804774 67.535118 
L 84.231429 66.451409 
L 84.636481 64.001818 
L 84.960523 62.82814 
L 85.651812 61.4459 
L 86.748153 60.742511 
L 88.011916 60.546217 
L 90.814878 60.762959 
L 92.548502 59.969602 
L 94.0877 58.542377 
L 95.17324 56.714385 
L 95.518885 54.976361 
L 95.443275 50.964592 
L 95.6323 48.842158 
L 96.296585 46.245345 
L 97.274111 43.832559 
L 98.532474 41.804183 
L 100.071672 40.3606 
L 107.10338 37.645193 
L 110.268188 35.191512 
L 110.397805 31.433291 
L 111.920801 31.772717 
L 113.092753 31.012075 
L 115.31784 28.321205 
L 117.035261 27.409254 
L 117.467317 26.97577 
L 117.731951 26.28056 
L 117.861568 24.808352 
L 118.131603 24.158126 
L 119.206341 23.487453 
L 121.51784 23.8187 
L 123.370279 22.968091 
L 123.732125 23.041701 
L 125.444146 23.892311 
L 126.956341 24.350331 
L 128.41993 24.268542 
L 130.564007 22.321955 
L 131.541533 21.953903 
L 133.680209 21.89665 
L 138.854077 22.366939 
L 140.366272 23.27889 
L 139.907213 24.612057 
L 139.96122 25.74075 
L 140.215052 26.812191 
L 140.35007 27.985869 
L 140.134042 30.586771 
L 140.425679 31.478275 
L 141.446411 31.66639 
L 142.769582 31.564154 
L 144.789443 30.402745 
L 145.92899 30.136929 
L 146.409652 30.300508 
L 147.94885 31.302428 
L 148.48892 31.339233 
L 149.801289 31.081596 
L 151.410697 30.443639 
L 151.788746 29.809772 
L 151.923763 28.82421 
L 152.29101 27.28248 
L 152.44223 27.249764 
L 153.084913 27.233407 
L 153.317143 27.061649 
L 153.441359 26.534107 
L 153.171324 25.920687 
L 153.079512 25.830719 
L 153.91662 23.262533 
L 154.629512 22.137929 
L 155.39101 21.422272 
L 156.244321 21.009235 
L 157.24885 20.796583 
L 159.398328 20.727062 
L 160.138223 20.43262 
L 160.532474 20.097284 
L 165.063659 15.177653 
L 165.263484 14.785064 
L 165.565923 14.654201 
L 166.295017 14.948643 
L 167.175331 16.478104 
L 167.569582 16.891141 
L 168.79554 17.692676 
L 169.427422 19.28348 
L 170.377944 23.274801 
L 171.490488 26.35826 
L 172.387003 27.041202 
L 173.477944 27.331554 
L 175.568014 27.352001 
L 175.324983 27.850916 
L 175.243972 28.28031 
L 175.276376 29.519419 
L 175.162657 30.474454 
L 178.165749 31.486454 
L 179.305296 31.609138 
L 179.305296 31.609138 
" clip-path="url(#pc1abf48b8a)" style="fill: none; stroke: #000000; stroke-width: 2"/>
   </g>
  </g>
 </g>
 <defs>
  <clipPath id="pc1abf48b8a">
   <rect x="0" y="0" width="357.12" height="175.850417"/>
  </clipPath>
 </defs>
</svg>
