<?xml version="1.0" encoding="utf-8" standalone="no"?>
<!DOCTYPE svg PUBLIC "-//W3C//DTD SVG 1.1//EN"
  "http://www.w3.org/Graphics/SVG/1.1/DTD/svg11.dtd">
<svg xmlns:xlink="http://www.w3.org/1999/xlink" width="357.12pt" height="235.677974pt" viewBox="0 0 357.12 235.677974" xmlns="http://www.w3.org/2000/svg" version="1.1">
 <metadata>
  <rdf:RDF xmlns:dc="http://purl.org/dc/elements/1.1/" xmlns:cc="http://creativecommons.org/ns#" xmlns:rdf="http://www.w3.org/1999/02/22-rdf-syntax-ns#">
   <cc:Work>
    <dc:type rdf:resource="http://purl.org/dc/dcmitype/StillImage"/>
    <dc:date>2024-02-02T21:58:05.415207</dc:date>
    <dc:format>image/svg+xml</dc:format>
    <dc:creator>
     <cc:Agent>
      <dc:title>Matplotlib v3.8.2, https://matplotlib.org/</dc:title>
     </cc:Agent>
    </dc:creator>
   </cc:Work>
  </rdf:RDF>
 </metadata>
 <defs>
  <style type="text/css">*{stroke-linejoin: round; stroke-linecap: butt}</style>
 </defs>
 <g id="figure_1">
  <g id="patch_1">
   <path d="M 0 235.677974 
L 357.12 235.677974 
L 357.12 0 
L 0 0 
L 0 235.677974 
z
" style="fill: none"/>
  </g>
  <g id="axes_1">
   <g id="PatchCollection_1">
    <path d="M 311.122036 40.063931 
L 312.430446 39.838445 
L 312.459739 42.13206 
L 313.76815 42.688729 
L 315.525717 42.794425 
L 316.941535 43.735125 
L 317.45904 46.310598 
L 316.15063 47.568387 
L 314.354006 48.424529 
L 313.484986 49.770399 
L 314.236834 51.665891 
L 315.955344 53.039946 
L 319.324014 55.034088 
L 322.809855 60.445752 
L 325.993004 63.158631 
L 327.36 69.03536 
L 325.075163 67.203286 
L 324.147558 66.674803 
L 323.151604 66.505688 
L 321.101109 66.766407 
L 320.280911 66.674803 
L 319.490006 66.104042 
L 317.898432 64.419943 
L 317.058706 63.884414 
L 315.984637 63.799856 
L 314.783633 63.898506 
L 313.582629 63.736438 
L 312.489032 62.86268 
L 311.903176 63.884414 
L 311.861656 63.824897 
L 311.190385 62.86268 
L 309.852682 64.434036 
L 308.026765 65.043553 
L 306.581655 65.934927 
L 303.61332 67.097589 
L 300.869563 70.176883 
L 300.752391 72.167501 
L 301.113669 74.031284 
L 302.236559 77.787035 
L 302.304909 78.889803 
L 302.129152 81.084768 
L 302.383023 82.222768 
L 302.959114 82.916842 
L 304.570217 83.980854 
L 305.009609 84.629126 
L 305.156073 86.147634 
L 304.716681 86.563373 
L 302.55878 86.528141 
L 299.19011 87.356098 
L 298.38944 87.39133 
L 296.797866 87.024915 
L 295.450398 86.232191 
L 293.18509 84.072458 
L 292.267249 83.625009 
L 291.105302 83.850495 
L 290.314397 84.692544 
L 289.591842 85.728371 
L 288.69353 86.485863 
L 287.590169 86.686686 
L 284.153149 85.967949 
L 284.104328 88.406017 
L 284.319142 90.361403 
L 284.309377 92.133582 
L 283.625879 94.004412 
L 282.356525 95.389037 
L 280.491552 96.699674 
L 278.078702 97.819918 
L 276.976418 98.130101 
L 273.832326 98.693816 
L 267.690607 102.076106 
L 263.013526 102.217035 
L 261.50983 102.604589 
L 259.737135 103.547773 
L 258.756309 104.30278 
L 256.842514 107.537095 
L 255.036126 108.706804 
L 246.677919 108.086717 
L 244.646953 109.12959 
L 243.045614 111.306939 
L 241.297812 114.675137 
L 239.94058 118.536584 
L 239.930816 121.9682 
L 241.248991 125.040446 
L 243.865812 127.823789 
L 245.017995 128.51434 
L 247.66411 129.620631 
L 248.816292 130.47325 
L 250.144232 132.50967 
L 249.734133 133.933051 
L 248.630771 135.603057 
L 247.898452 138.379353 
L 248.171851 145.383512 
L 248.025387 147.652465 
L 247.537174 149.357703 
L 246.873204 150.971337 
L 246.502163 152.606111 
L 246.902497 154.346581 
L 248.015623 157.087645 
L 248.074208 159.032462 
L 247.127075 160.399471 
L 245.193752 161.428251 
L 243.348307 161.96378 
L 239.686709 162.097662 
L 233.662161 161.061836 
L 232.754084 161.526901 
L 230.996517 162.99256 
L 230.059149 163.330789 
L 228.975316 163.140535 
L 227.901247 162.781167 
L 226.836943 162.654331 
L 225.801931 163.154628 
L 225.352775 164.430033 
L 225.723817 165.853414 
L 225.870281 167.149958 
L 224.737627 168.087134 
L 212.903344 172.061325 
L 209.095282 174.210489 
L 208.294613 175.154711 
L 207.718522 176.74016 
L 207.904043 177.310921 
L 208.597305 177.656197 
L 209.505381 178.565187 
L 210.44275 180.397261 
L 210.940727 181.066673 
L 211.780454 181.686759 
L 213.010751 182.151824 
L 213.401321 181.877013 
L 213.528256 181.327391 
L 213.957884 180.960976 
L 215.451816 180.460679 
L 215.744743 180.721397 
L 217.453489 182.708493 
L 218.996242 185.301582 
L 219.513748 186.506523 
L 217.560896 186.49243 
L 216.242721 186.957494 
L 215.071009 187.591674 
L 212.29796 188.486571 
L 211.751161 189.501259 
L 211.399648 190.579364 
L 210.755207 191.150125 
L 209.573731 191.763165 
L 209.671374 192.883549 
L 210.345108 194.349208 
L 210.90167 195.998074 
L 211.467998 199.549479 
L 212.22961 202.49489 
L 213.586842 204.820214 
L 218.342037 208.075668 
L 217.43396 208.878962 
L 215.744743 211.281798 
L 214.924545 212.056906 
L 213.870005 212.373995 
L 210.804028 212.310578 
L 201.606095 215.770378 
L 197.358642 215.164385 
L 189.508177 208.364572 
L 184.899446 208.237736 
L 183.962077 207.371025 
L 182.907537 206.870728 
L 180.671521 206.560684 
L 179.04089 205.010468 
L 176.892753 203.587088 
L 175.174243 203.657552 
L 174.832494 206.560684 
L 173.016341 209.745674 
L 168.973938 211.21838 
L 165.038941 210.372807 
L 163.525481 206.532498 
L 154.757175 202.621726 
L 152.882437 200.993999 
L 152.853144 200.289355 
L 153.185129 197.879473 
L 153.009372 196.822507 
L 152.427602 196.055007 
L 151.163927 195.420266 
L 147.922193 192.798991 
L 146.70166 191.502447 
L 145.832641 189.783116 
L 145.744763 187.943996 
L 145.85217 185.442511 
L 145.64712 183.349718 
L 144.612109 182.743725 
L 143.001006 183.441322 
L 142.268687 184.258709 
L 141.087211 187.020912 
L 140.091256 188.486571 
L 137.708777 191.192404 
L 136.829994 192.510087 
L 136.234374 194.250558 
L 135.775454 197.907659 
L 135.277476 199.838383 
L 134.027651 202.135521 
L 130.326996 204.890679 
L 128.579194 206.553638 
L 124.946889 208.64643 
L 120.601793 209.048077 
L 116.217641 208.202504 
L 112.458401 206.532498 
L 110.388377 206.011062 
L 107.966841 206.729799 
L 103.475281 208.864869 
L 100.756602 209.307418 
L 98.505273 209.181959 
L 96.025151 208.315247 
L 93.652436 206.553638 
L 92.40261 205.26414 
L 91.045378 204.538357 
L 87.071324 203.685738 
L 86.417119 204.129663 
L 86.085134 205.095025 
L 86.085134 206.560684 
L 88.086807 208.991705 
L 86.876039 210.675804 
L 82.452829 212.585389 
L 81.076069 213.959444 
L 80.246107 215.277128 
L 79.240388 216.038143 
L 74.192265 215.291221 
L 72.708098 214.812063 
L 71.448508 213.515518 
L 66.986242 210.647618 
L 54.678392 211.21838 
L 50.947675 207.147646 
L 51.147573 206.565067 
L 50.909233 205.405456 
L 51.555058 204.001717 
L 51.555058 203.152815 
L 50.632451 202.969719 
L 49.91743 202.437075 
L 49.363866 201.538238 
L 48.971758 200.273208 
L 50.955363 200.74482 
L 66.385969 198.414502 
L 66.385969 197.571149 
L 65.386478 196.111926 
L 62.495642 192.916061 
L 67.152234 192.503041 
L 70.882181 194.546508 
L 75.344448 194.081443 
L 79.054867 189.430794 
L 79.777422 187.648046 
L 79.630958 187.260492 
L 78.781468 187.197074 
L 77.36565 186.379687 
L 76.350167 185.259303 
L 68.821922 172.434787 
L 62.279868 169.447097 
L 57.636962 165.804089 
L 56.055152 165.310838 
L 52.803654 164.909191 
L 50.167304 163.457625 
L 48.722193 160.582678 
L 49.034649 155.917936 
L 52.715775 147.462211 
L 54.092536 142.029408 
L 52.491197 139.436319 
L 49.259227 140.197334 
L 46.212778 141.670039 
L 43.381143 141.888479 
L 40.774085 138.759861 
L 40.549507 138.386399 
L 40.110116 138.027031 
L 38.879819 136.575465 
L 40.813142 134.933645 
L 41.545462 133.961237 
L 41.809097 133.017014 
L 41.574755 132.136209 
L 40.813142 131.332915 
L 42.971044 128.443876 
L 53.487152 120.396844 
L 56.191852 115.393873 
L 55.469297 112.850109 
L 53.25281 112.420277 
L 50.469996 112.723273 
L 48.067988 112.342766 
L 45.226588 109.517144 
L 43.449493 108.269925 
L 40.813142 107.734395 
L 39.494967 106.980427 
L 36.663332 106.783126 
L 35.198693 106.275783 
L 36.575453 108.685665 
L 33.997689 109.087311 
L 33.19702 107.90351 
L 32.865035 106.015065 
L 31.595681 104.267548 
L 31.019589 100.850026 
L 30.49232 99.229345 
L 29.76 97.862336 
L 32.220594 96.326213 
L 33.968396 93.320907 
L 35.23775 90.424821 
L 36.262997 89.195218 
L 37.512822 89.061336 
L 38.684534 88.490574 
L 40.949842 86.838184 
L 45.324231 84.495244 
L 47.628596 82.092409 
L 49.640033 79.266787 
L 51.954163 77.089438 
L 55.15684 76.670175 
L 57.490499 76.751209 
L 59.25783 75.803463 
L 60.292841 73.664869 
L 60.429541 70.176883 
L 60.956811 69.454623 
L 61.308324 68.60905 
L 61.484081 67.647211 
L 61.474317 66.576153 
L 62.904781 66.695942 
L 69.144143 68.207403 
L 70.433025 68.19331 
L 76.564981 67.189193 
L 79.416145 67.661304 
L 88.057515 71.734145 
L 89.610032 71.924399 
L 92.793181 71.353637 
L 94.453105 71.395916 
L 95.995858 71.853935 
L 97.382383 72.548009 
L 102.69414 77.117624 
L 103.88538 77.44176 
L 123.94117 78.012521 
L 127.124319 77.314924 
L 128.130038 77.54041 
L 128.579194 78.181636 
L 128.881886 78.949697 
L 129.409156 79.583877 
L 132.32867 80.929746 
L 133.91048 81.176372 
L 137.171743 80.401263 
L 138.460625 82.173443 
L 139.524929 84.509337 
L 140.774755 85.816451 
L 142.41515 85.094191 
L 143.293934 82.853424 
L 144.084839 80.214533 
L 145.481128 78.209822 
L 146.398968 77.83636 
L 148.449463 77.653153 
L 149.406361 77.371295 
L 150.382787 76.737116 
L 152.277053 74.764113 
L 152.70668 74.65137 
L 153.96627 74.876856 
L 154.640004 73.192758 
L 155.743365 71.864504 
L 156.21205 70.937898 
L 156.778377 70.289625 
L 158.350423 69.581458 
L 159.190149 70.176883 
L 161.611686 69.775236 
L 163.701237 68.823966 
L 164.228507 68.362425 
L 165.986074 64.356525 
L 167.411656 60.058198 
L 168.485725 57.761059 
L 170.067535 55.478013 
L 171.258775 54.974193 
L 172.586714 55.136261 
L 174.539566 54.875543 
L 177.927764 52.751042 
L 179.284996 53.004714 
L 181.101149 55.597803 
L 184.616282 50.608925 
L 190.054975 48.875501 
L 203.558947 50.320021 
L 220.87098 49.418077 
L 223.653794 50.457427 
L 225.772639 52.307116 
L 227.911011 53.63537 
L 230.742647 53.138596 
L 232.500214 51.764541 
L 233.105598 50.418671 
L 233.40829 48.868455 
L 234.335895 46.927161 
L 235.781005 45.83144 
L 237.802207 45.302957 
L 239.813644 45.274772 
L 241.239226 45.676418 
L 242.459759 45.331143 
L 243.436185 44.60536 
L 244.002512 43.410989 
L 243.992748 41.659949 
L 244.285675 39.602389 
L 245.8089 40.521949 
L 253.044217 41.589485 
L 255.543867 41.448556 
L 261.949222 38.883653 
L 264.575808 38.658166 
L 267.202394 39.172556 
L 273.607748 42.385732 
L 277.445103 43.06219 
L 278.480114 43.780927 
L 280.25721 46.000555 
L 280.25676 45.993659 
L 280.05216 42.85432 
L 278.987856 40.743912 
L 276.976418 39.468507 
L 275.892585 36.132019 
L 275.814471 33.743276 
L 275.960935 31.351011 
L 276.615141 27.116102 
L 276.537026 26.15074 
L 276.117163 25.847743 
L 276.029285 25.548269 
L 276.947125 24.58643 
L 277.503688 24.269341 
L 281.70232 23.240561 
L 287.560876 19.801899 
L 291.46658 20.746122 
L 304.374932 19.639831 
L 305.341594 20.189453 
L 307.196803 22.468976 
L 308.026765 22.905855 
L 309.41329 22.983366 
L 309.833153 23.670394 
L 309.61834 24.889427 
L 309.081305 26.552387 
L 308.067813 28.699825 
L 307.226096 30.131977 
L 306.84529 31.661054 
L 307.060103 32.168397 
L 308.35875 36.08974 
L 309.432819 37.460272 
L 310.243252 39.031628 
L 311.122036 40.063931 
L 311.122036 40.063931 
" clip-path="url(#p60634697cb)" style="fill: none; stroke: #000000; stroke-width: 2"/>
   </g>
  </g>
 </g>
 <defs>
  <clipPath id="p60634697cb">
   <rect x="0" y="0" width="357.12" height="235.677974"/>
  </clipPath>
 </defs>
</svg>
