<?xml version="1.0" encoding="utf-8" standalone="no"?>
<!DOCTYPE svg PUBLIC "-//W3C//DTD SVG 1.1//EN"
  "http://www.w3.org/Graphics/SVG/1.1/DTD/svg11.dtd">
<svg xmlns:xlink="http://www.w3.org/1999/xlink" width="118.365813pt" height="266.112pt" viewBox="0 0 118.365813 266.112" xmlns="http://www.w3.org/2000/svg" version="1.1">
 <metadata>
  <rdf:RDF xmlns:dc="http://purl.org/dc/elements/1.1/" xmlns:cc="http://creativecommons.org/ns#" xmlns:rdf="http://www.w3.org/1999/02/22-rdf-syntax-ns#">
   <cc:Work>
    <dc:type rdf:resource="http://purl.org/dc/dcmitype/StillImage"/>
    <dc:date>2024-02-02T21:58:05.446214</dc:date>
    <dc:format>image/svg+xml</dc:format>
    <dc:creator>
     <cc:Agent>
      <dc:title>Matplotlib v3.8.2, https://matplotlib.org/</dc:title>
     </cc:Agent>
    </dc:creator>
   </cc:Work>
  </rdf:RDF>
 </metadata>
 <defs>
  <style type="text/css">*{stroke-linejoin: round; stroke-linecap: butt}</style>
 </defs>
 <g id="figure_1">
  <g id="patch_1">
   <path d="M 0 266.112 
L 118.365813 266.112 
L 118.365813 0 
L 0 0 
L 0 266.112 
z
" style="fill: none"/>
  </g>
  <g id="axes_1">
   <g id="PatchCollection_1">
    <path d="M 44.370571 231.346117 
L 44.431442 231.38829 
L 44.5083 231.386972 
L 44.597455 231.406081 
L 44.691529 231.402787 
L 44.760394 231.374452 
L 44.752401 231.461433 
L 44.665705 231.558299 
L 44.563638 231.580044 
L 44.545807 231.663072 
L 44.582084 231.842965 
L 44.584543 231.98398 
L 44.573475 232.048557 
L 44.532894 232.088094 
L 44.46403 232.082822 
L 44.430827 232.070302 
L 44.187956 231.83374 
L 44.121551 231.596518 
L 44.216855 231.35666 
L 44.323841 231.284176 
L 44.370571 231.346117 
" clip-path="url(#p88cc2f0caf)" style="fill: none; stroke: #000000; stroke-width: 2"/>
    <path d="M 54.93454 211.538764 
L 55.06735 211.518337 
L 55.165114 211.383911 
L 55.1811 211.499886 
L 55.320059 211.926226 
L 55.112235 211.957197 
L 54.949911 212.15554 
L 54.696588 212.709717 
L 54.879817 213.425335 
L 54.494912 214.701061 
L 54.133373 215.645994 
L 53.950143 216.257499 
L 53.613198 216.480224 
L 53.796427 216.77741 
L 53.880049 216.812334 
L 53.617502 217.154988 
L 53.406604 217.595825 
L 53.506827 218.139458 
L 53.38078 218.591497 
L 53.307611 218.768095 
L 53.078267 219.919938 
L 52.679835 220.248754 
L 52.576538 220.861577 
L 52.539647 221.186439 
L 51.529426 225.41228 
L 51.35173 226.04553 
L 51.119312 227.152565 
L 51.103325 227.685654 
L 50.912718 228.333401 
L 50.395003 229.611104 
L 50.061132 229.761344 
L 49.925247 229.432529 
L 49.941234 228.903393 
L 49.837936 228.461238 
L 49.909261 227.710036 
L 49.861916 224.313153 
L 50.244976 222.966919 
L 51.643176 219.000045 
L 52.349039 218.651461 
L 52.477545 218.03798 
L 53.535725 215.182094 
L 53.769373 213.740972 
L 54.03069 213.499797 
L 54.071271 213.360758 
L 54.125994 212.164107 
L 54.872439 211.303519 
L 54.93454 211.538764 
L 54.93454 211.538764 
" clip-path="url(#p88cc2f0caf)" style="fill: none; stroke: #000000; stroke-width: 2"/>
    <path d="M 67.860814 203.500243 
L 68.005307 203.724286 
L 68.186077 203.109486 
L 68.312124 202.949361 
L 68.335489 202.564535 
L 68.261705 202.324678 
L 68.835373 202.176414 
L 68.835373 202.277233 
L 68.719164 202.559923 
L 68.864887 202.714117 
L 69.048731 202.702914 
L 69.046271 202.488097 
L 69.311892 202.335221 
L 69.562142 202.387937 
L 69.541851 202.640973 
L 69.676506 202.977037 
L 69.870188 203.133867 
L 70.133965 203.724286 
L 69.603338 203.784909 
L 69.38875 204.020813 
L 69.351244 204.619139 
L 69.265163 204.471534 
L 69.102839 204.422113 
L 69.046271 205.282042 
L 68.471989 205.382861 
L 68.032976 205.202968 
L 68.023753 205.309717 
L 68.056956 205.604268 
L 67.74399 207.14555 
L 68.056956 207.261525 
L 67.687423 208.87595 
L 67.798713 209.040688 
L 67.776578 209.449236 
L 67.966571 209.577072 
L 67.90201 209.826155 
L 68.499658 210.047562 
L 68.581434 209.822201 
L 68.680427 209.880189 
L 68.887022 210.156948 
L 68.933136 210.738141 
L 68.809549 210.81985 
L 68.23957 210.930554 
L 67.990551 211.004356 
L 67.537396 211.462985 
L 66.972337 212.290625 
L 67.083012 212.637232 
L 67.306208 212.654365 
L 67.330187 213.163074 
L 67.076249 213.373278 
L 66.199453 213.705389 
L 66.131204 213.980171 
L 65.005389 214.780794 
L 64.849213 215.033171 
L 65.369388 215.033171 
L 65.192307 215.20318 
L 64.653687 215.539903 
L 64.539322 215.756698 
L 64.568835 216.797178 
L 64.957429 217.032423 
L 64.539322 217.143127 
L 64.642619 217.263714 
L 64.363471 217.597802 
L 64.19008 218.042592 
L 63.216751 218.521648 
L 62.982488 218.359547 
L 63.494054 217.182664 
L 63.550622 216.67066 
L 63.941675 216.424872 
L 64.127363 215.595255 
L 63.78304 215.960972 
L 63.621946 216.120438 
L 63.452243 215.917481 
L 63.635473 215.559672 
L 63.657608 214.931693 
L 63.334804 214.751141 
L 63.142352 213.375255 
L 62.685509 212.902789 
L 62.807866 212.286671 
L 63.091319 212.021115 
L 63.227818 211.394454 
L 63.189082 211.151961 
L 63.269014 210.852798 
L 63.112839 210.641275 
L 63.024913 210.402077 
L 63.010157 210.101596 
L 62.848447 209.565211 
L 62.780812 208.820599 
L 62.90317 208.219637 
L 63.154649 207.737286 
L 64.390525 206.20457 
L 65.707563 203.711107 
L 66.196994 203.529237 
L 66.429412 203.633351 
L 66.581284 203.435666 
L 66.776195 202.745746 
L 67.055343 202.297002 
L 67.403356 202.149397 
L 67.65545 202.422202 
L 67.708328 202.923004 
L 67.747065 203.133208 
L 67.798713 203.216236 
L 67.860814 203.500243 
L 67.860814 203.500243 
" clip-path="url(#p88cc2f0caf)" style="fill: none; stroke: #000000; stroke-width: 2"/>
    <path d="M 71.170625 201.060813 
L 71.203212 201.328347 
L 71.30405 201.378427 
L 71.552455 201.28222 
L 71.79963 201.284856 
L 71.916454 201.344161 
L 72.048035 201.492425 
L 72.00069 201.565568 
L 71.952116 201.603787 
L 71.896778 201.61433 
L 71.836522 201.603128 
L 71.727076 201.814651 
L 71.363077 201.672318 
L 71.196449 201.773796 
L 71.041503 201.95303 
L 70.713781 202.101294 
L 70.547153 202.387937 
L 70.647376 202.488756 
L 70.703943 202.585622 
L 70.720544 202.696325 
L 70.701484 202.840635 
L 70.480748 203.295969 
L 70.46968 203.382291 
L 70.347322 203.35791 
L 70.233573 203.287402 
L 70.128431 203.179994 
L 70.031283 203.041614 
L 69.768121 202.437358 
L 69.789026 202.246922 
L 69.843134 202.12897 
L 70.002999 201.8845 
L 70.056492 201.72767 
L 70.093999 201.565568 
L 70.144417 201.413351 
L 70.232958 201.28222 
L 70.35593 201.231481 
L 70.612943 201.241365 
L 70.724849 201.110893 
L 70.790639 201.10694 
L 70.908693 201.156361 
L 71.045192 201.170199 
L 71.170625 201.060813 
" clip-path="url(#p88cc2f0caf)" style="fill: none; stroke: #000000; stroke-width: 2"/>
    <path d="M 14.628395 199.954437 
L 14.625935 200.230537 
L 14.641307 200.326085 
L 14.680043 200.397251 
L 14.604415 200.847314 
L 14.576746 200.939566 
L 14.482057 201.029184 
L 14.412578 201.017322 
L 14.386753 200.910573 
L 14.421801 200.71816 
L 14.298213 200.658195 
L 14.179544 200.801187 
L 14.091004 201.058177 
L 14.028903 201.497037 
L 13.962498 201.624874 
L 13.877646 201.69011 
L 13.722701 201.643324 
L 13.663674 201.737554 
L 13.607721 201.864072 
L 13.540086 201.945123 
L 13.436789 201.941169 
L 13.370384 201.870003 
L 13.323655 201.779068 
L 13.278155 201.723716 
L 13.078939 201.701312 
L 13.034669 201.642665 
L 13.019912 201.443004 
L 12.995932 201.306601 
L 12.948588 201.164268 
L 12.918459 201.021935 
L 12.942439 200.889486 
L 13.02852 200.816343 
L 13.238803 200.863787 
L 13.334722 200.839406 
L 13.180391 200.740564 
L 13.007615 200.741223 
L 12.866811 200.691802 
L 12.808399 200.44799 
L 12.868656 200.156735 
L 13.011304 200.080956 
L 13.334722 200.16596 
L 14.030748 200.16596 
L 14.195531 200.088863 
L 14.327727 199.944553 
L 14.460537 199.857572 
L 14.628395 199.954437 
" clip-path="url(#p88cc2f0caf)" style="fill: none; stroke: #000000; stroke-width: 2"/>
    <path d="M 15.01084 196.912069 
L 15.14365 197.171036 
L 15.194684 197.479424 
L 15.206366 197.837234 
L 15.195299 198.562737 
L 15.126434 198.866512 
L 14.960421 198.954153 
L 14.763665 198.986441 
L 14.397206 199.311962 
L 13.992626 199.153814 
L 13.798329 199.28165 
L 13.672897 198.981829 
L 13.468762 198.908685 
L 13.251101 198.99369 
L 13.080783 199.171606 
L 13.003311 199.337002 
L 12.974412 199.452318 
L 12.947358 199.509647 
L 12.869885 199.503057 
L 12.791183 199.446388 
L 12.551386 199.171606 
L 12.551386 199.73369 
L 12.504656 199.73369 
L 12.455467 199.330413 
L 12.427184 199.226958 
L 12.189846 198.918569 
L 12.118522 198.779531 
L 12.135738 198.542968 
L 12.28761 198.295862 
L 13.034669 197.456361 
L 13.29783 197.346976 
L 13.490897 197.13084 
L 13.591735 197.060333 
L 13.719012 197.054402 
L 13.942207 197.11239 
L 14.056572 197.060333 
L 14.022139 196.884393 
L 14.033207 196.722292 
L 14.084241 196.589843 
L 14.164788 196.507474 
L 14.129126 196.348668 
L 14.10822 196.285408 
L 14.232423 196.186566 
L 14.361544 196.185907 
L 14.628395 196.285408 
L 14.712016 196.645195 
L 14.853435 196.794776 
L 15.01084 196.912069 
" clip-path="url(#p88cc2f0caf)" style="fill: none; stroke: #000000; stroke-width: 2"/>
    <path d="M 53.383239 196.487047 
L 53.28978 196.499567 
L 53.226449 196.441579 
L 53.143442 196.197768 
L 53.113929 195.976361 
L 53.207388 195.876201 
L 53.372172 195.969772 
L 53.452104 196.048846 
L 53.477313 196.15296 
L 53.465631 196.358552 
L 53.383239 196.487047 
" clip-path="url(#p88cc2f0caf)" style="fill: none; stroke: #000000; stroke-width: 2"/>
    <path d="M 71.690184 195.230431 
L 71.381523 195.35036 
L 71.107908 195.158605 
L 70.908693 194.506246 
L 71.170625 194.506246 
L 71.36984 194.650556 
L 71.79963 194.765213 
L 71.996386 194.94906 
L 71.690184 195.230431 
" clip-path="url(#p88cc2f0caf)" style="fill: none; stroke: #000000; stroke-width: 2"/>
    <path d="M 53.319293 194.419923 
L 53.353726 194.462096 
L 53.333435 194.554349 
L 53.255348 194.694046 
L 53.170496 194.742808 
L 53.085645 194.723699 
L 53.224604 194.875916 
L 53.211077 194.92995 
L 53.123767 194.928632 
L 53.075807 195.014296 
L 53.099172 195.138178 
L 53.215996 195.309505 
L 53.399226 195.505872 
L 53.56032 195.497964 
L 53.702968 195.423503 
L 53.766914 195.455133 
L 53.739245 195.476878 
L 53.723874 195.480832 
L 53.686982 195.567813 
L 53.661158 195.617893 
L 53.586144 195.708828 
L 53.486536 195.766815 
L 53.361104 195.773405 
L 53.215996 195.723325 
L 53.075193 195.598125 
L 52.981119 195.409665 
L 52.939308 195.259425 
L 52.899957 195.185622 
L 52.869213 195.099959 
L 52.879666 194.994527 
L 52.84093 194.887777 
L 52.756078 194.747421 
L 52.79297 194.601793 
L 52.927011 194.518107 
L 52.994646 194.496361 
L 53.093024 194.433102 
L 53.144672 194.417288 
L 53.175415 194.439692 
L 53.274408 194.392248 
L 53.319293 194.419923 
" clip-path="url(#p88cc2f0caf)" style="fill: none; stroke: #000000; stroke-width: 2"/>
    <path d="M 64.608187 185.236808 
L 64.495052 185.389684 
L 64.331498 185.495775 
L 64.271856 185.555739 
L 64.21283 185.590663 
L 64.151958 185.578143 
L 64.124289 185.657217 
L 64.196228 185.773192 
L 64.313052 185.825908 
L 64.32535 185.891144 
L 64.113222 185.943201 
L 63.993323 186.017004 
L 63.732621 186.098713 
L 63.569067 186.237093 
L 63.491595 186.239728 
L 63.432568 186.195579 
L 63.397521 186.144181 
L 63.412277 186.001189 
L 63.528486 185.760013 
L 63.645311 185.603183 
L 63.913391 185.362008 
L 64.024066 185.333014 
L 64.128593 185.33565 
L 64.197458 185.311928 
L 64.244188 185.268437 
L 64.363471 185.207814 
L 64.585437 185.037146 
L 64.632781 185.080637 
L 64.608187 185.236808 
" clip-path="url(#p88cc2f0caf)" style="fill: none; stroke: #000000; stroke-width: 2"/>
    <path d="M 63.570912 184.311643 
L 63.564149 184.38281 
L 63.285001 184.523166 
L 63.299757 184.558749 
L 63.335419 184.521189 
L 63.385838 184.513282 
L 63.432568 184.551501 
L 63.404899 184.740619 
L 63.371696 184.807173 
L 63.314514 184.720192 
L 63.254257 184.684608 
L 63.201379 184.751821 
L 63.139278 184.745232 
L 63.053812 184.622667 
L 63.036596 184.637164 
L 63.061805 184.799265 
L 63.058116 184.938304 
L 63.069798 185.082614 
L 63.027988 185.209132 
L 62.925305 185.27898 
L 62.822623 185.236808 
L 62.682434 185.050984 
L 62.650461 185.064163 
L 62.591435 185.110289 
L 62.4783 185.26646 
L 62.362705 185.365303 
L 62.317205 185.340922 
L 62.316591 185.240761 
L 62.331962 185.183433 
L 62.377462 184.949506 
L 62.427266 184.853299 
L 62.508428 184.819693 
L 62.550854 184.761046 
L 62.537941 184.666158 
L 62.560691 184.558749 
L 62.635705 184.42037 
L 62.716867 184.341296 
L 62.88165 184.372266 
L 63.06365 184.293851 
L 63.235197 184.265517 
L 63.570912 184.311643 
" clip-path="url(#p88cc2f0caf)" style="fill: none; stroke: #000000; stroke-width: 2"/>
    <path d="M 59.573685 185.926069 
L 59.522036 185.974172 
L 59.536793 186.096736 
L 59.601353 186.298375 
L 59.553394 186.31419 
L 59.348645 185.960334 
L 59.343726 186.039408 
L 59.276091 186.020957 
L 59.208456 185.825908 
L 59.219523 185.555739 
L 59.169104 185.416701 
L 59.107618 185.408135 
L 59.095936 185.292159 
L 59.114996 185.00947 
L 59.18755 184.744573 
L 59.260104 184.554795 
L 59.276091 184.424323 
L 59.261334 184.328776 
L 59.266253 184.160085 
L 59.244118 183.714635 
L 59.306834 183.549898 
L 59.389226 183.542649 
L 59.408901 183.659283 
L 59.433496 183.754172 
L 59.464239 183.775258 
L 59.498671 183.791732 
L 59.567536 183.892551 
L 59.623489 184.077057 
L 59.675137 184.305713 
L 59.715718 184.572587 
L 59.723096 184.815739 
L 59.68682 184.954119 
L 59.669603 185.08459 
L 59.695428 185.269755 
L 59.699117 185.432516 
L 59.668374 185.59264 
L 59.646239 185.752765 
L 59.625333 185.864127 
L 59.573685 185.926069 
" clip-path="url(#p88cc2f0caf)" style="fill: none; stroke: #000000; stroke-width: 2"/>
    <path d="M 65.380455 183.781848 
L 65.227969 183.902436 
L 65.205219 184.009844 
L 65.18001 184.090236 
L 65.179395 184.193032 
L 65.164638 184.291875 
L 65.142503 184.35777 
L 65.107456 184.432231 
L 65.059497 184.519212 
L 64.99678 184.568633 
L 64.926686 184.535686 
L 64.888564 184.535027 
L 64.852902 184.592355 
L 64.780963 184.596309 
L 64.704105 184.560726 
L 64.620484 184.451999 
L 64.536863 184.291875 
L 64.513498 184.166674 
L 64.54916 184.108028 
L 64.603883 184.113958 
L 64.666599 184.073103 
L 64.64016 183.973602 
L 64.577444 183.851038 
L 64.587281 183.787778 
L 64.632781 183.803593 
L 64.701646 183.771964 
L 64.777889 183.675098 
L 64.796335 183.565713 
L 64.742227 183.51695 
L 64.766207 183.439194 
L 65.073023 183.203291 
L 65.211983 183.021421 
L 65.341104 182.893584 
L 65.455469 182.809239 
L 65.556306 182.819123 
L 65.601806 182.997698 
L 65.601806 183.12817 
L 65.625171 183.169025 
L 65.637468 183.25996 
L 65.616563 183.331127 
L 65.590739 183.368687 
L 65.380455 183.781848 
" clip-path="url(#p88cc2f0caf)" style="fill: none; stroke: #000000; stroke-width: 2"/>
    <path d="M 67.510342 181.505838 
L 66.985249 181.886051 
L 66.918844 181.843219 
L 66.964344 181.664644 
L 67.051654 181.480797 
L 67.154951 181.326603 
L 67.256404 181.283113 
L 67.343099 181.326603 
L 67.554612 181.360869 
L 67.601342 181.385909 
L 67.510342 181.505838 
" clip-path="url(#p88cc2f0caf)" style="fill: none; stroke: #000000; stroke-width: 2"/>
    <path d="M 67.817159 180.496327 
L 67.810396 180.545749 
L 67.811625 180.593193 
L 67.791335 180.624164 
L 67.756288 180.646568 
L 67.705869 180.634707 
L 67.629626 180.561563 
L 67.547849 180.516096 
L 67.505423 180.514119 
L 67.462383 180.522026 
L 67.394748 180.458767 
L 67.409505 180.292712 
L 67.514031 180.089097 
L 67.659139 179.937538 
L 67.796869 179.885481 
L 67.903855 179.90525 
L 67.956733 179.932926 
L 68.003463 179.948082 
L 68.060645 180.023861 
L 68.036665 180.122703 
L 67.96903 180.201777 
L 67.912463 180.284146 
L 67.817159 180.496327 
" clip-path="url(#p88cc2f0caf)" style="fill: none; stroke: #000000; stroke-width: 2"/>
    <path d="M 65.889562 180.033745 
L 66.560993 180.525321 
L 66.17117 180.539818 
L 66.007616 180.498304 
L 65.834224 180.314457 
L 65.842833 180.675562 
L 65.957197 180.790878 
L 66.30275 180.746728 
L 66.102305 181.049845 
L 65.866197 181.005036 
L 65.472685 180.625481 
L 65.186773 180.525321 
L 65.161564 180.483148 
L 65.092699 180.27492 
L 65.055807 180.19387 
L 64.932835 180.0746 
L 64.539322 179.861759 
L 65.422881 179.878233 
L 65.889562 180.033745 
" clip-path="url(#p88cc2f0caf)" style="fill: none; stroke: #000000; stroke-width: 2"/>
    <path d="M 67.209059 178.657859 
L 67.268086 178.696078 
L 67.336951 178.766586 
L 67.459923 178.976791 
L 67.510957 179.013692 
L 67.538626 179.02753 
L 67.557072 179.122418 
L 67.579207 179.333941 
L 67.536167 179.525695 
L 67.424261 179.655508 
L 67.093465 179.845286 
L 67.053499 179.857147 
L 67.020296 179.786639 
L 67.047965 179.671323 
L 67.094695 179.632445 
L 67.116215 179.583024 
L 67.099613 179.486158 
L 67.088546 179.343825 
L 67.042431 179.197539 
L 66.950202 179.088812 
L 66.869655 178.960976 
L 66.833992 178.885197 
L 66.75529 178.748794 
L 66.825384 178.686853 
L 67.132816 178.695419 
L 67.156181 178.655882 
L 67.209059 178.657859 
" clip-path="url(#p88cc2f0caf)" style="fill: none; stroke: #000000; stroke-width: 2"/>
    <path d="M 63.818087 178.769881 
L 63.69327 178.804146 
L 63.62625 178.785695 
L 63.475608 178.782401 
L 63.519264 178.839729 
L 63.615182 179.011056 
L 63.537095 179.17777 
L 63.371081 179.228509 
L 63.185393 179.191608 
L 62.992326 179.063113 
L 62.862589 178.930664 
L 62.818319 178.8081 
L 62.784502 178.683558 
L 62.730394 178.592623 
L 62.740846 178.474012 
L 62.861974 178.4068 
L 63.728932 178.671038 
L 63.818087 178.769881 
" clip-path="url(#p88cc2f0caf)" style="fill: none; stroke: #000000; stroke-width: 2"/>
    <path d="M 68.473833 178.396915 
L 68.40005 178.458198 
L 68.339178 178.402846 
L 68.33057 178.296755 
L 68.388982 178.189346 
L 68.470759 178.232837 
L 68.503962 178.336292 
L 68.473833 178.396915 
" clip-path="url(#p88cc2f0caf)" style="fill: none; stroke: #000000; stroke-width: 2"/>
    <path d="M 69.099149 178.574832 
L 69.019217 178.66379 
L 68.893785 178.564947 
L 68.798481 178.418661 
L 68.763434 178.375829 
L 68.733921 178.331679 
L 68.730231 178.218999 
L 68.796637 178.128064 
L 68.897474 178.134654 
L 69.00569 178.249311 
L 69.054879 178.333656 
L 69.085623 178.41273 
L 69.099149 178.574832 
" clip-path="url(#p88cc2f0caf)" style="fill: none; stroke: #000000; stroke-width: 2"/>
    <path d="M 68.802785 177.940264 
L 68.688421 178.114226 
L 68.525482 178.090504 
L 68.436942 177.833514 
L 68.534705 177.586408 
L 68.724083 177.490201 
L 68.823691 177.46582 
L 68.858123 177.482294 
L 68.91715 177.560709 
L 68.929447 177.67932 
L 68.802785 177.940264 
" clip-path="url(#p88cc2f0caf)" style="fill: none; stroke: #000000; stroke-width: 2"/>
    <path d="M 67.105762 176.04249 
L 67.140194 176.070166 
L 67.172167 176.068189 
L 67.51895 175.956168 
L 67.506653 176.041831 
L 67.083012 176.265874 
L 66.895479 176.501777 
L 66.819236 176.538679 
L 66.75283 176.623683 
L 66.717168 176.778536 
L 66.645844 176.80094 
L 66.53148 176.713959 
L 66.492743 176.723184 
L 66.499507 176.804894 
L 66.466919 176.833888 
L 66.425723 176.823345 
L 66.508115 177.148866 
L 66.481676 177.32151 
L 66.401129 177.380816 
L 66.335953 177.331394 
L 66.30521 177.194992 
L 66.323656 177.732695 
L 66.264629 177.714903 
L 66.182852 177.772231 
L 66.138582 177.869097 
L 66.094927 177.864484 
L 66.055575 177.768278 
L 66.028521 177.627263 
L 65.986711 177.47834 
L 65.915386 177.345232 
L 65.85636 177.193015 
L 65.846522 177.030914 
L 65.821927 176.959747 
L 65.791799 176.883968 
L 65.821312 176.75745 
L 65.90063 176.690896 
L 66.000238 176.682989 
L 66.0814 176.724502 
L 66.14596 176.902419 
L 66.151494 176.888581 
L 66.136737 176.81346 
L 66.162562 176.749542 
L 66.203143 176.724502 
L 66.253561 176.717913 
L 66.299061 176.690896 
L 66.289838 176.669151 
L 66.237575 176.686283 
L 66.192075 176.681012 
L 66.166251 176.641475 
L 66.131204 176.619729 
L 66.075866 176.627637 
L 66.055575 176.572285 
L 66.098616 176.447744 
L 66.164406 176.321225 
L 66.319967 176.123541 
L 66.410966 175.983184 
L 66.541317 175.871822 
L 66.713479 175.803291 
L 66.878263 175.800656 
L 67.030749 175.871822 
L 67.104532 175.968029 
L 67.105762 176.04249 
" clip-path="url(#p88cc2f0caf)" style="fill: none; stroke: #000000; stroke-width: 2"/>
    <path d="M 69.303284 174.617183 
L 69.248561 174.677806 
L 69.150798 174.702187 
L 69.011839 174.684396 
L 68.942359 174.627726 
L 68.831684 175.119302 
L 68.774502 175.262953 
L 68.701948 175.2959 
L 68.625705 175.338073 
L 68.458462 175.251092 
L 68.42157 175.059997 
L 68.495968 174.900531 
L 69.019832 174.196773 
L 69.131122 174.133514 
L 69.224582 174.219836 
L 69.32173 174.44322 
L 69.352473 174.459035 
L 69.386906 174.528884 
L 69.373993 174.597414 
L 69.343865 174.597414 
L 69.303284 174.617183 
" clip-path="url(#p88cc2f0caf)" style="fill: none; stroke: #000000; stroke-width: 2"/>
    <path d="M 67.854666 175.406604 
L 67.755058 175.444823 
L 67.652991 175.43428 
L 67.651146 175.386835 
L 67.785801 175.303149 
L 67.94997 175.16477 
L 68.096922 174.961154 
L 68.168246 174.839908 
L 68.4683 174.465625 
L 68.91838 174.069596 
L 68.91715 174.209952 
L 68.774502 174.447174 
L 68.416651 174.937432 
L 68.388982 174.973015 
L 68.211902 175.12721 
L 68.187922 175.172677 
L 68.189152 175.220121 
L 68.159638 175.25241 
L 68.101841 175.261635 
L 68.045274 175.285357 
L 67.854666 175.406604 
" clip-path="url(#p88cc2f0caf)" style="fill: none; stroke: #000000; stroke-width: 2"/>
    <path d="M 69.433635 171.533301 
L 69.431176 171.630825 
L 69.452081 171.614351 
L 69.462534 171.594583 
L 69.480365 171.606444 
L 69.507419 171.659819 
L 69.504959 171.752731 
L 69.473601 171.839712 
L 69.397973 171.922081 
L 69.27869 171.969525 
L 69.160636 171.962277 
L 69.060413 171.912855 
L 69.003231 171.871342 
L 68.978636 171.912855 
L 68.933136 171.965571 
L 68.866731 171.951075 
L 68.668745 171.985999 
L 68.626934 171.850914 
L 68.716704 171.593924 
L 69.049346 170.973853 
L 69.124974 170.76233 
L 69.181541 170.720816 
L 69.252865 170.751787 
L 69.326034 170.815705 
L 69.399203 170.934316 
L 69.45577 171.112891 
L 69.462534 171.325073 
L 69.433635 171.533301 
" clip-path="url(#p88cc2f0caf)" style="fill: none; stroke: #000000; stroke-width: 2"/>
    <path d="M 67.857125 165.664699 
L 67.861429 165.677878 
L 67.9057 165.660746 
L 67.945666 165.627798 
L 67.981328 165.656792 
L 68.025598 165.792536 
L 68.031132 165.913123 
L 67.842983 166.02778 
L 67.684349 166.083791 
L 67.498045 166.037665 
L 67.40766 165.996151 
L 67.377532 165.903239 
L 67.330802 165.705554 
L 67.322194 165.557291 
L 67.333876 165.473604 
L 67.361545 165.36949 
L 67.404586 165.329953 
L 67.440863 165.327976 
L 67.440863 165.268012 
L 67.316045 165.078235 
L 67.36339 165.008386 
L 67.512802 165.040016 
L 67.624707 165.126338 
L 67.687423 165.223203 
L 67.720626 165.339837 
L 67.772274 165.405073 
L 67.846058 165.43868 
L 67.890328 165.531592 
L 67.889098 165.630434 
L 67.857125 165.664699 
" clip-path="url(#p88cc2f0caf)" style="fill: none; stroke: #000000; stroke-width: 2"/>
    <path d="M 65.253178 161.136401 
L 65.456083 161.344629 
L 65.519414 161.537042 
L 65.393982 161.516614 
L 65.218131 161.354513 
L 65.107456 161.326837 
L 65.181239 161.551539 
L 65.519414 162.321191 
L 65.596272 162.580158 
L 65.669441 162.738965 
L 65.771508 162.74819 
L 65.937522 162.552482 
L 65.957197 162.782456 
L 65.9904 162.935991 
L 66.091237 163.216703 
L 66.12567 163.254263 
L 66.177318 163.277986 
L 66.225278 163.310933 
L 66.246183 163.376828 
L 66.217899 163.534976 
L 66.151494 163.538929 
L 65.820697 163.316205 
L 65.401361 162.783774 
L 64.973416 162.524807 
L 64.875037 162.181494 
L 64.843065 161.745929 
L 64.873193 160.94267 
L 64.866429 160.758164 
L 64.769281 160.410239 
L 64.796335 160.29031 
L 64.882416 160.253409 
L 65.004159 160.32194 
L 65.039821 160.404967 
L 65.125902 160.563774 
L 65.159104 160.652732 
L 65.159104 160.712037 
L 65.144348 160.792429 
L 65.138199 160.884682 
L 65.159104 160.984842 
L 65.253178 161.136401 
" clip-path="url(#p88cc2f0caf)" style="fill: none; stroke: #000000; stroke-width: 2"/>
    <path d="M 62.635705 124.008569 
L 62.714407 124.057331 
L 62.902555 123.952558 
L 63.06365 123.982211 
L 63.142352 124.025701 
L 63.15219 124.154196 
L 63.122677 124.37758 
L 63.056271 124.537705 
L 63.045204 124.63457 
L 63.01569 124.685968 
L 62.925305 124.668177 
L 62.841069 124.683991 
L 62.818934 124.761088 
L 62.875501 124.805897 
L 62.917312 124.894196 
L 62.876731 124.984472 
L 62.531178 125.116921 
L 62.138895 125.039824 
L 61.980875 124.699147 
L 62.054044 124.42766 
L 62.122909 124.228658 
L 62.148733 124.057331 
L 62.244652 123.905772 
L 62.420502 123.851739 
L 62.554543 123.908408 
L 62.635705 124.008569 
" clip-path="url(#p88cc2f0caf)" style="fill: none; stroke: #000000; stroke-width: 2"/>
    <path d="M 83.415016 109.498508 
L 83.285894 109.507733 
L 83.298806 109.353539 
L 83.577954 108.971348 
L 83.610542 108.987822 
L 83.625299 109.090618 
L 83.577954 109.25272 
L 83.514009 109.389122 
L 83.415016 109.498508 
" clip-path="url(#p88cc2f0caf)" style="fill: none; stroke: #000000; stroke-width: 2"/>
    <path d="M 83.91244 108.670868 
L 83.800535 108.757849 
L 83.748887 108.742034 
L 83.692319 108.745988 
L 83.579184 108.868552 
L 83.558894 108.702497 
L 83.700927 107.908463 
L 83.761799 107.785899 
L 83.831278 107.718686 
L 83.898913 107.68508 
L 83.994832 107.555926 
L 84.134406 107.41491 
L 84.211879 107.386576 
L 84.200811 107.417546 
L 84.164534 107.47158 
L 84.152852 107.530886 
L 84.179291 107.604688 
L 84.170683 107.675854 
L 84.119034 107.750975 
L 84.093825 107.861019 
L 84.111656 107.990832 
L 84.122723 108.14898 
L 84.093825 108.347324 
L 84.020041 108.543031 
L 83.91244 108.670868 
" clip-path="url(#p88cc2f0caf)" style="fill: none; stroke: #000000; stroke-width: 2"/>
    <path d="M 83.999751 107.400414 
L 83.645589 107.720663 
L 83.700927 107.611277 
L 83.64313 107.449835 
L 83.569346 107.404367 
L 83.482036 107.43402 
L 83.386117 107.500574 
L 83.580414 107.026789 
L 83.880467 107.080164 
L 83.999751 107.400414 
" clip-path="url(#p88cc2f0caf)" style="fill: none; stroke: #000000; stroke-width: 2"/>
    <path d="M 95.313239 80.255661 
L 95.257286 80.395359 
L 95.086969 80.519241 
L 94.994739 80.566685 
L 94.384795 80.608199 
L 94.311011 80.552188 
L 94.320234 80.374931 
L 94.383565 80.208217 
L 94.471491 80.167362 
L 94.548963 80.21876 
L 94.584011 80.304424 
L 94.668862 80.367683 
L 94.816429 80.266205 
L 94.958462 80.101467 
L 95.109719 80.100149 
L 95.239455 80.169339 
L 95.313239 80.255661 
" clip-path="url(#p88cc2f0caf)" style="fill: none; stroke: #000000; stroke-width: 2"/>
    <path d="M 93.918113 80.677389 
L 93.907046 80.77096 
L 93.817891 80.742625 
L 93.748411 80.68925 
L 93.678317 80.651031 
L 93.316777 80.572616 
L 93.276811 80.503426 
L 93.23377 80.322874 
L 93.244838 80.1812 
L 93.268818 80.117941 
L 93.269432 79.952545 
L 93.339527 79.860292 
L 93.471108 79.860951 
L 93.744722 79.998671 
L 93.783458 80.092242 
L 93.721972 80.155501 
L 93.717053 80.251708 
L 93.794526 80.384815 
L 93.873228 80.470479 
L 93.907046 80.553506 
L 93.918113 80.677389 
" clip-path="url(#p88cc2f0caf)" style="fill: none; stroke: #000000; stroke-width: 2"/>
    <path d="M 96.797519 79.252082 
L 96.72558 79.277781 
L 96.601992 79.248787 
L 96.444587 79.171031 
L 96.334527 78.957531 
L 96.379412 78.825083 
L 96.517141 78.908769 
L 96.588465 78.975323 
L 96.651182 78.987184 
L 96.769235 79.056374 
L 96.819654 79.161806 
L 96.797519 79.252082 
" clip-path="url(#p88cc2f0caf)" style="fill: none; stroke: #000000; stroke-width: 2"/>
    <path d="M 94.448741 79.072189 
L 94.508382 79.074824 
L 94.56372 79.056374 
L 94.625821 79.111726 
L 94.697145 79.236267 
L 94.866848 79.380577 
L 94.863159 79.524887 
L 94.756172 79.600666 
L 94.670091 79.580238 
L 94.582781 79.441859 
L 94.481943 79.335768 
L 94.371883 79.259989 
L 94.263052 79.230336 
L 94.200336 79.285688 
L 94.228619 79.424068 
L 94.20218 79.4412 
L 94.200336 79.495234 
L 94.216937 79.588146 
L 94.298099 79.718618 
L 94.313471 79.781877 
L 94.27289 79.797692 
L 94.164674 79.740363 
L 93.809283 79.335109 
L 93.616215 79.02738 
L 93.567641 78.832331 
L 93.652492 78.765118 
L 93.753945 78.714379 
L 93.86708 78.733489 
L 94.448741 79.072189 
" clip-path="url(#p88cc2f0caf)" style="fill: none; stroke: #000000; stroke-width: 2"/>
    <path d="M 97.002883 78.002055 
L 96.972755 78.154931 
L 96.851627 78.21226 
L 96.79506 78.288039 
L 96.781533 78.411922 
L 96.736648 78.5134 
L 96.670242 78.571387 
L 96.589695 78.552278 
L 96.503614 78.502857 
L 96.478405 78.512741 
L 96.510993 78.567434 
L 96.459959 78.554255 
L 96.23123 78.413898 
L 96.187574 78.346686 
L 96.154372 78.210283 
L 96.205406 78.127256 
L 96.284723 78.120666 
L 96.392939 78.136481 
L 96.52329 78.104851 
L 96.88483 77.932207 
L 97.002883 78.002055 
" clip-path="url(#p88cc2f0caf)" style="fill: none; stroke: #000000; stroke-width: 2"/>
    <path d="M 96.723735 77.820844 
L 96.607526 77.926935 
L 96.464263 77.909802 
L 96.376952 77.809642 
L 96.345594 77.738476 
L 96.448891 77.6225 
L 96.652411 77.615252 
L 96.723735 77.820844 
" clip-path="url(#p88cc2f0caf)" style="fill: none; stroke: #000000; stroke-width: 2"/>
    <path d="M 99.599452 76.201806 
L 99.575472 76.309874 
L 99.49308 76.278903 
L 99.440202 76.276926 
L 99.416837 76.365884 
L 99.431594 76.498333 
L 99.499844 76.739509 
L 99.389169 76.677567 
L 99.162284 76.456819 
L 98.949541 76.183355 
L 98.82165 75.874967 
L 98.852393 75.600844 
L 98.990737 75.513863 
L 99.183189 75.527701 
L 99.381175 75.668057 
L 99.407614 75.795893 
L 99.295094 75.808413 
L 99.303703 75.855858 
L 99.42975 75.94218 
L 99.537351 76.046294 
L 99.599452 76.201806 
" clip-path="url(#p88cc2f0caf)" style="fill: none; stroke: #000000; stroke-width: 2"/>
    <path d="M 105.776985 75.498048 
L 105.752391 75.642358 
L 105.701972 75.745154 
L 105.652783 75.806437 
L 105.629418 75.863765 
L 105.640485 75.911209 
L 105.559323 76.02389 
L 105.290013 76.259135 
L 104.999798 76.085172 
L 104.860839 75.855199 
L 104.862068 75.508592 
L 104.922325 75.42161 
L 104.975203 75.565261 
L 105.03669 75.623249 
L 105.081575 75.555377 
L 105.103095 75.3656 
L 105.146135 75.385368 
L 105.226067 75.473008 
L 105.315838 75.521771 
L 105.406222 75.537585 
L 105.492918 75.490141 
L 105.568546 75.40316 
L 105.616506 75.422928 
L 105.657702 75.499366 
L 105.681066 75.442697 
L 105.700742 75.333311 
L 105.735174 75.335947 
L 105.762228 75.399206 
L 105.776985 75.498048 
" clip-path="url(#p88cc2f0caf)" style="fill: none; stroke: #000000; stroke-width: 2"/>
    <path d="M 98.286718 75.977763 
L 98.241833 76.121414 
L 97.902429 76.068698 
L 97.755476 75.985671 
L 97.690301 75.903302 
L 97.639882 75.81698 
L 97.643571 75.720773 
L 97.675544 75.581076 
L 97.686612 75.372848 
L 97.713666 75.131673 
L 97.799132 75.065778 
L 98.131158 75.391299 
L 98.219083 75.642358 
L 98.286718 75.977763 
" clip-path="url(#p88cc2f0caf)" style="fill: none; stroke: #000000; stroke-width: 2"/>
    <path d="M 96.42652 31.893682 
L 96.884894 32.075281 
L 97.159763 32.037622 
L 97.589245 32.501246 
L 97.812576 32.71632 
L 98.263141 32.564011 
L 98.452894 32.728036 
L 98.984671 33.507995 
L 100.217676 34.258663 
L 100.428512 34.821037 
L 100.884544 35.437807 
L 100.918903 36.064619 
L 100.911875 36.893116 
L 100.963413 36.98266 
L 101.126616 36.979313 
L 101.767716 36.611092 
L 102.027748 36.60105 
L 102.212034 36.889768 
L 102.605596 38.129166 
L 103.373979 38.701582 
L 104.046314 39.391159 
L 104.571063 39.555185 
L 104.714744 39.761891 
L 104.707716 40.046425 
L 104.517963 40.360249 
L 104.270425 40.530133 
L 103.480959 40.86739 
L 103.34821 41.151087 
L 103.336497 41.922677 
L 103.631668 44.581399 
L 103.869836 45.260097 
L 103.894043 45.646728 
L 103.485644 45.982311 
L 103.288863 46.165585 
L 103.373979 46.360575 
L 102.970266 47.290751 
L 103.063971 47.687425 
L 103.316975 47.966101 
L 104.204051 47.807515 
L 104.718648 48.08912 
L 105.398011 48.233479 
L 105.493278 48.350641 
L 105.389421 49.546521 
L 105.647892 49.687533 
L 105.478441 50.190071 
L 105.268385 50.462052 
L 104.26574 50.938647 
L 104.180624 51.509389 
L 104.298537 51.894766 
L 104.048656 52.351276 
L 104.236848 52.88143 
L 104.748322 53.56766 
L 104.878728 54.351384 
L 105.466728 55.245994 
L 105.696306 55.332609 
L 105.882155 55.550194 
L 106.605246 56.717621 
L 106.971477 57.390043 
L 107.261183 58.452443 
L 106.973039 58.496797 
L 106.808274 58.53613 
L 106.449071 59.306046 
L 106.535748 60.233293 
L 106.218712 62.366463 
L 105.814218 62.615012 
L 105.802505 62.794938 
L 105.416752 63.058551 
L 105.235589 63.199981 
L 105.235589 63.458573 
L 104.825628 63.671555 
L 104.641342 63.917175 
L 104.597612 64.480385 
L 104.775652 64.946101 
L 104.731923 66.062061 
L 104.743636 66.400992 
L 105.378489 68.276407 
L 105.647111 68.48646 
L 106.431111 68.738775 
L 106.598218 68.940878 
L 107.154983 70.273168 
L 107.415796 70.555192 
L 107.685199 71.587884 
L 107.841374 72.513457 
L 108.040497 72.828118 
L 108.207605 73.470831 
L 108.501996 73.926086 
L 108.499601 74.219028 
L 108.327439 74.513578 
L 108.061818 74.557069 
L 107.514589 74.429233 
L 107.562549 74.527416 
L 107.669535 74.65064 
L 107.485076 74.746846 
L 107.117387 74.669749 
L 106.900341 74.860186 
L 106.711578 75.227879 
L 106.318065 74.816695 
L 106.252889 74.669749 
L 106.169268 74.762661 
L 105.61835 74.699402 
L 105.298621 74.112278 
L 104.811649 74.175537 
L 104.513441 74.65064 
L 104.367718 74.571566 
L 104.302543 74.429233 
L 103.369795 74.329731 
L 103.365491 74.02991 
L 103.167505 74.09844 
L 103.173653 74.126116 
L 103.00764 74.402875 
L 102.900654 74.550479 
L 103.019937 74.711263 
L 102.949228 75.148146 
L 102.620891 74.988022 
L 102.51083 74.451637 
L 102.539729 74.219028 
L 102.377405 74.240773 
L 101.900886 74.653934 
L 101.192563 74.149838 
L 101.100334 74.268449 
L 101.153212 74.7508 
L 101.507373 75.093454 
L 101.388705 75.175822 
L 100.831638 75.467737 
L 100.682226 75.656196 
L 100.690835 75.962608 
L 100.490389 76.13064 
L 100.30716 76.089126 
L 100.367416 75.757015 
L 100.058755 75.2147 
L 99.634499 75.16462 
L 99.228689 74.93267 
L 98.964298 74.608467 
L 98.655636 74.65064 
L 98.48163 74.46218 
L 98.088732 73.544923 
L 97.090194 72.831281 
L 96.948775 72.882679 
L 97.334295 73.574576 
L 97.360119 74.981432 
L 97.171356 75.274665 
L 97.053302 75.314202 
L 97.090194 74.941895 
L 96.900816 74.742893 
L 96.357277 74.713899 
L 96.020946 74.993293 
L 96.021561 74.673044 
L 96.175892 74.429233 
L 95.961305 74.084602 
L 95.725812 73.827612 
L 95.762704 73.665511 
L 94.952929 73.587096 
L 94.932638 73.886918 
L 94.619058 73.987737 
L 94.932638 74.429233 
L 94.81028 74.642732 
L 94.567409 74.550479 
L 94.654105 74.701379 
L 94.88099 75.2147 
L 94.619673 75.631156 
L 94.313471 75.50332 
L 94.004809 75.230515 
L 93.737344 75.2147 
L 94.04416 75.627202 
L 94.221241 75.711548 
L 94.890213 75.942839 
L 95.087584 76.651209 
L 94.807206 76.688111 
L 94.722355 76.772456 
L 94.645497 76.379722 
L 94.482558 76.192581 
L 94.283342 76.182038 
L 94.160984 76.402127 
L 94.162214 76.634736 
L 94.160984 76.862073 
L 94.309167 77.314771 
L 94.13639 77.411637 
L 93.586087 77.435359 
L 94.427835 77.638974 
L 94.529903 77.148716 
L 94.309167 76.772456 
L 94.371268 76.632759 
L 94.607375 76.860755 
L 94.619058 77.093364 
L 95.061759 77.374736 
L 94.67501 77.757585 
L 94.921571 78.004691 
L 95.264664 78.165475 
L 95.397475 78.651779 
L 95.21855 78.765777 
L 94.576632 78.279473 
L 94.050924 78.098262 
L 94.095194 78.326917 
L 93.881222 78.277496 
L 93.112027 77.764833 
L 92.543894 77.544744 
L 92.203259 77.148716 
L 91.88353 77.068983 
L 91.626517 76.798814 
L 91.044242 76.557639 
L 90.374655 75.757015 
L 90.552966 76.421236 
L 91.00735 76.838351 
L 91.93149 77.314771 
L 92.554961 77.863676 
L 93.158142 78.178654 
L 93.541817 78.658369 
L 93.689999 78.651779 
L 93.493243 78.800702 
L 92.859933 78.872527 
L 92.770163 79.034629 
L 92.654569 79.213204 
L 92.445515 79.038582 
L 92.241381 79.161806 
L 91.049775 78.872527 
L 91.611761 79.615822 
L 91.781463 79.526864 
L 91.565031 79.315341 
L 91.756868 79.292278 
L 92.395097 79.978903 
L 92.138084 80.641806 
L 91.900132 80.517923 
L 91.719977 80.20031 
L 91.672017 80.561414 
L 91.719977 80.873097 
L 91.453741 81.019383 
L 91.314167 80.94031 
L 91.256369 80.762393 
L 90.80383 81.047718 
L 90.571412 81.062874 
L 89.801602 80.86453 
L 89.909818 81.094504 
L 89.369353 81.063533 
L 89.210104 80.762393 
L 88.714524 80.873097 
L 88.714524 80.973916 
L 89.131401 81.195323 
L 88.296417 81.171601 
L 88.151924 81.426614 
L 88.198039 81.445724 
L 88.301336 81.536659 
L 87.992674 81.758065 
L 88.314863 81.901716 
L 88.875003 82.426899 
L 89.013348 82.34453 
L 89.028104 82.090176 
L 89.302948 82.254913 
L 89.90244 82.912544 
L 89.883994 83.144495 
L 89.649116 83.448929 
L 89.306637 83.64266 
L 88.960469 83.686151 
L 88.638896 83.371832 
L 88.300106 82.594931 
L 88.049242 82.357709 
L 87.891837 82.320149 
L 87.690776 82.146187 
L 87.211798 81.505029 
L 86.960318 81.536659 
L 87.074068 81.622322 
L 87.115264 81.647362 
L 87.015041 81.851636 
L 86.700231 81.873382 
L 86.598779 82.090176 
L 87.557966 82.330033 
L 87.790384 82.541556 
L 88.244768 83.315821 
L 88.662875 83.802785 
L 89.276509 85.145064 
L 89.133246 85.290033 
L 88.714524 85.316391 
L 88.810443 85.417869 
L 88.848564 85.728234 
L 88.751416 86.285705 
L 88.752031 86.285705 
L 89.028104 86.422108 
L 88.855942 86.549944 
L 88.222018 86.532811 
L 88.129789 86.643515 
L 88.404633 87.195055 
L 88.022802 87.390763 
L 87.790384 87.305759 
L 87.790384 87.335411 
L 87.735046 87.527165 
L 87.495864 87.759775 
L 87.467581 87.908697 
L 87.579486 88.080024 
L 87.455283 88.189409 
L 86.440144 88.301431 
L 86.322705 89.055269 
L 86.130253 89.185741 
L 86.207111 89.615375 
L 85.905828 89.915856 
L 85.971003 90.200522 
L 85.589788 90.400843 
L 85.336464 90.334948 
L 85.123106 89.797245 
L 84.918357 90.021947 
L 84.920816 90.45883 
L 85.197505 90.864084 
L 85.469889 91.081537 
L 85.764409 91.085491 
L 86.244617 90.955019 
L 86.911744 91.294378 
L 86.863785 91.609356 
L 86.332543 91.627806 
L 86.620299 92.116746 
L 86.960318 92.522659 
L 86.782623 92.613594 
L 86.904981 92.955589 
L 86.70638 92.871902 
L 86.156077 92.411956 
L 85.846801 92.050852 
L 85.688166 91.866346 
L 85.506781 91.919721 
L 85.425619 92.135197 
L 85.528301 92.674876 
L 85.661727 92.85477 
L 86.353448 93.030709 
L 86.491792 93.307468 
L 86.351604 93.329213 
L 86.453056 93.6633 
L 86.944947 93.928198 
L 87.1995 94.461947 
L 87.342149 94.469854 
L 87.427 93.890638 
L 87.579486 93.971029 
L 88.043093 94.627343 
L 88.200498 94.222748 
L 88.301336 94.357174 
L 88.388031 94.92387 
L 88.619835 95.08663 
L 88.771091 95.076746 
L 88.676402 95.183496 
L 88.461815 95.30013 
L 88.352984 95.241483 
L 88.100275 94.855339 
L 87.521689 95.28761 
L 87.295419 94.966043 
L 87.244385 95.021394 
L 87.269595 95.161092 
L 87.373507 95.186132 
L 87.616993 95.555143 
L 87.793458 95.402267 
L 88.198039 95.396995 
L 88.301336 95.849694 
L 88.225093 96.273398 
L 88.458126 96.413095 
L 88.528835 96.361697 
L 88.662875 96.080985 
L 88.972767 96.191688 
L 88.926037 95.960397 
L 89.028104 95.960397 
L 89.174442 96.195642 
L 89.13509 96.571243 
L 88.84549 96.689854 
L 87.420851 98.385989 
L 87.007663 97.840379 
L 87.050703 98.123068 
L 86.991676 98.682516 
L 86.646123 98.855161 
L 86.443833 98.763567 
L 85.455133 100.182943 
L 85.132329 100.145383 
L 84.938647 100.634323 
L 84.211879 101.629996 
L 84.304723 101.908731 
L 84.255534 102.201305 
L 83.902602 103.167983 
L 83.921048 103.135695 
L 83.91121 103.405205 
L 83.855873 103.50866 
L 83.773481 104.07272 
L 83.588407 104.259203 
L 83.129104 105.178437 
L 82.917591 105.851883 
L 82.556051 106.172791 
L 82.144093 106.283495 
L 82.167458 106.609675 
L 82.402336 106.615605 
L 82.142863 107.149354 
L 82.064775 107.117724 
L 81.807148 106.63735 
L 81.674337 106.615605 
L 81.314027 107.002408 
L 81.227946 107.347039 
L 81.145555 107.374715 
L 81.057014 107.279167 
L 81.116041 106.962871 
L 80.84919 106.6189 
L 80.346232 107.604029 
L 80.170381 107.500574 
L 80.212807 107.633682 
L 80.024658 108.900841 
L 79.939807 108.956852 
L 79.725835 108.770369 
L 79.605936 107.782604 
L 79.504484 107.720663 
L 79.438079 107.946023 
L 79.372288 109.33377 
L 79.275755 109.368036 
L 79.067316 109.07085 
L 79.125113 108.71304 
L 79.194593 108.062657 
L 78.904992 108.623423 
L 78.828749 109.022746 
L 78.880398 109.39044 
L 78.703317 109.349585 
L 78.039879 109.497849 
L 77.870177 109.445792 
L 77.741056 109.169033 
L 77.44961 109.187484 
L 77.196901 109.445792 
L 77.147097 109.843797 
L 77.276219 110.173931 
L 76.575274 109.892559 
L 75.159244 111.603191 
L 75.299433 112.469051 
L 75.047954 112.595569 
L 74.68334 112.945471 
L 74.3218 112.726041 
L 74.303354 112.184385 
L 74.1398 112.000538 
L 74.066631 111.767929 
L 73.861882 111.490511 
L 73.365687 111.224955 
L 73.042884 110.838151 
L 72.862114 110.848036 
L 72.666587 111.047697 
L 72.838134 111.203868 
L 73.031816 111.278988 
L 72.92483 111.688855 
L 73.018904 111.819327 
L 73.222424 111.875996 
L 73.445004 112.063138 
L 73.051492 112.474981 
L 73.384133 113.02784 
L 73.32818 113.261108 
L 72.92483 112.947448 
L 72.105832 112.06182 
L 72.098453 112.196246 
L 72.305048 112.726041 
L 72.145183 112.805115 
L 71.705556 112.37548 
L 71.611482 112.490796 
L 71.52663 113.892381 
L 71.449158 114.602069 
L 71.255476 114.656762 
L 71.222273 114.384616 
L 71.058105 114.649513 
L 70.6732 114.764171 
L 70.495504 114.938133 
L 70.541619 114.981624 
L 70.649835 115.169424 
L 70.56191 115.276174 
L 70.336255 115.832327 
L 70.495504 115.832327 
L 70.371917 116.098543 
L 70.22435 116.078774 
L 69.923681 115.712398 
L 69.791486 116.060983 
L 69.916303 116.262621 
L 70.336255 116.375301 
L 70.191147 116.584847 
L 70.002999 116.657332 
L 69.768121 117.049406 
L 69.421953 116.555194 
L 69.201217 116.274482 
L 69.150798 115.94962 
L 68.91469 115.772363 
L 68.628779 115.517349 
L 68.529786 115.571383 
L 68.478137 115.883725 
L 67.74522 115.685382 
L 67.489437 115.832327 
L 67.643768 115.9997 
L 68.835373 116.496548 
L 68.69211 116.72718 
L 68.452313 116.820751 
L 67.953659 116.827999 
L 68.005307 117.049406 
L 67.775963 117.19767 
L 67.643768 116.827999 
L 67.623477 116.567714 
L 67.785801 116.499843 
L 68.159638 116.496548 
L 68.159638 116.375301 
L 67.442707 116.173663 
L 67.22689 116.274482 
L 67.373843 116.513681 
L 67.433484 116.827999 
L 67.643768 117.380858 
L 66.553615 117.033592 
L 66.199453 117.159451 
L 66.533324 117.253022 
L 66.793411 117.551526 
L 66.880722 118.089228 
L 66.767587 118.154464 
L 66.30644 117.914607 
L 66.087548 118.196637 
L 65.885873 118.707981 
L 66.142886 118.707981 
L 65.658988 119.127073 
L 65.547698 119.602834 
L 65.470225 119.547483 
L 65.102537 119.070403 
L 64.8652 119.053271 
L 64.745916 119.160679 
L 65.122213 119.494767 
L 65.214442 119.702336 
L 64.696112 119.56791 
L 64.527025 119.290492 
L 64.508579 119.346503 
L 64.496896 119.516512 
L 64.199917 119.822923 
L 63.760905 119.933627 
L 63.947823 120.087821 
L 66.098616 120.158987 
L 66.291683 120.604437 
L 66.226507 120.684829 
L 66.120751 120.604437 
L 65.98917 120.366556 
L 65.924609 120.678898 
L 65.749373 120.75336 
L 65.53786 120.6901 
L 65.093929 120.427839 
L 64.982024 120.500323 
L 64.900862 120.817937 
L 65.369388 121.149388 
L 65.795488 121.024847 
L 65.885873 121.149388 
L 65.80717 121.483475 
L 65.503428 121.523012 
L 64.957429 121.370795 
L 65.070564 121.596156 
L 65.435793 121.751009 
L 65.49605 122.072576 
L 65.344793 122.244562 
L 65.032443 122.434339 
L 64.702876 122.582602 
L 64.343795 122.37108 
L 64.329039 122.266307 
L 63.961965 121.817563 
L 63.812553 121.813609 
L 63.830999 121.877527 
L 63.864202 122.0449 
L 63.498973 122.0449 
L 63.498973 122.145719 
L 63.598581 122.322977 
L 63.498973 122.597099 
L 63.666831 122.691329 
L 63.91585 122.387554 
L 64.070796 122.496939 
L 63.775662 123.185541 
L 63.559845 123.329851 
L 63.408588 123.535443 
L 63.316359 123.331828 
L 63.342183 122.980608 
L 62.844143 123.646146 
L 62.518881 123.592772 
L 62.574833 123.381249 
L 62.303678 123.237598 
L 62.002395 123.260661 
L 62.191773 122.983903 
L 62.852137 123.075496 
L 63.039055 122.809281 
L 62.571759 122.564811 
L 62.347949 122.313751 
L 61.848679 122.749976 
L 61.691274 123.043208 
L 61.378924 122.809281 
L 61.290383 121.732558 
L 61.378924 121.541463 
L 61.249802 121.295016 
L 61.017999 121.370795 
L 60.551318 120.192594 
L 60.656459 119.933627 
L 60.488601 119.957349 
L 60.136285 120.265737 
L 59.619799 120.034446 
L 60.783736 121.205399 
L 61.101005 122.033039 
L 61.193235 122.533181 
L 61.069647 122.92921 
L 61.578754 123.397064 
L 61.608268 123.452415 
L 61.650693 123.94465 
L 61.899713 124.34002 
L 61.93599 124.824348 
L 61.744768 125.482638 
L 61.691274 125.451008 
L 61.433032 125.261231 
L 60.96635 125.261231 
L 61.115762 125.4688 
L 62.261253 125.984757 
L 62.344259 126.403849 
L 62.419888 126.476992 
L 62.255719 126.536298 
L 61.694964 127.048301 
L 61.648849 126.997562 
L 61.559694 126.168604 
L 61.410897 126.208141 
L 61.279931 126.976476 
L 61.184012 127.2875 
L 61.017999 127.36262 
L 61.124985 127.582709 
L 60.749304 128.194873 
L 60.518115 128.198826 
L 60.318899 127.934588 
L 59.929691 127.934588 
L 59.450712 128.198826 
L 59.357868 128.377402 
L 59.363401 128.653501 
L 59.723711 129.040963 
L 58.623721 128.938826 
L 58.35441 128.598149 
L 57.603662 127.36262 
L 57.447487 127.451578 
L 57.240278 127.934588 
L 56.959285 128.05847 
L 56.876893 128.477562 
L 57.244582 129.230082 
L 57.181866 129.546377 
L 56.928542 129.583279 
L 57.015238 129.679485 
L 57.148048 129.989191 
L 57.099474 130.365451 
L 57.255034 130.737757 
L 57.346649 130.808924 
L 57.687284 130.776635 
L 57.869283 131.063278 
L 58.068499 131.583189 
L 57.950445 131.604935 
L 57.856371 131.703777 
L 58.508741 132.091239 
L 58.660612 132.013483 
L 59.154963 132.227642 
L 59.310523 132.367998 
L 58.492755 132.860233 
L 58.472464 132.783136 
L 58.682133 132.367998 
L 58.420816 132.319235 
L 58.222215 132.588087 
L 58.217911 133.322156 
L 58.145972 133.735317 
L 57.963972 134.236778 
L 57.912324 134.888478 
L 57.758608 135.020927 
L 57.922776 135.118452 
L 57.848993 135.337223 
L 57.598743 135.695032 
L 57.858216 136.071292 
L 57.784432 136.137187 
L 57.34173 136.24789 
L 57.133906 136.80009 
L 57.009704 136.974052 
L 57.009704 137.557222 
L 57.110542 138.07318 
L 56.980191 138.237258 
L 56.974657 138.209582 
L 56.954366 139.071488 
L 57.051515 139.136724 
L 57.443798 139.022066 
L 57.27348 139.336385 
L 57.186785 139.354177 
L 57.186785 139.474765 
L 57.313447 139.553179 
L 57.395223 140.621336 
L 58.029148 140.423651 
L 58.264025 140.759715 
L 58.308296 141.125432 
L 58.175485 141.795584 
L 58.01685 142.137578 
L 57.75 142.070365 
L 57.552014 141.795584 
L 57.11669 140.835495 
L 56.876893 140.690526 
L 56.928542 141.062173 
L 57.030609 141.353429 
L 56.644475 141.146519 
L 56.670299 140.901389 
L 56.393611 140.633197 
L 56.073882 140.542262 
L 55.422126 140.569938 
L 55.63118 140.815067 
L 55.890038 140.801229 
L 56.408367 141.132022 
L 56.341962 141.402191 
L 55.829166 141.673019 
L 55.634869 141.795584 
L 55.840234 141.917489 
L 55.624417 142.013037 
L 55.277634 141.860819 
L 55.113465 142.017649 
L 56.08372 142.246305 
L 56.252192 142.459804 
L 55.954598 142.528994 
L 55.518045 142.312859 
L 55.010168 142.459804 
L 55.398762 142.50659 
L 55.479924 142.680552 
L 55.156505 142.84529 
L 54.804804 142.891416 
L 55.00156 143.068014 
L 55.788585 143.344773 
L 54.984344 143.404737 
L 55.222296 143.551024 
L 55.554322 143.744096 
L 55.634869 143.906857 
L 55.320059 143.906857 
L 55.320059 144.007676 
L 55.681599 144.238967 
L 55.67545 144.539448 
L 55.526653 144.791825 
L 55.736937 145.243206 
L 55.880815 145.160178 
L 55.99272 145.013232 
L 56.052362 145.17797 
L 55.943531 145.344025 
L 55.700045 145.471861 
L 55.634869 145.575975 
L 55.411059 145.241229 
L 55.20385 145.944986 
L 55.641018 146.557809 
L 55.891882 146.681692 
L 55.904179 146.860267 
L 56.464935 147.233891 
L 56.238665 147.294514 
L 55.99395 147.243775 
L 55.526653 147.0026 
L 55.635484 147.324826 
L 56.252192 147.666821 
L 55.928774 147.647052 
L 55.794119 147.603562 
L 55.273944 147.142956 
L 55.113465 147.123188 
L 55.113465 147.233891 
L 55.524194 147.560071 
L 55.891882 148.118201 
L 55.986571 148.508958 
L 55.526653 149.013054 
L 55.788585 149.224576 
L 55.696356 149.766233 
L 55.578302 149.897364 
L 55.760301 150.323704 
L 55.674221 150.456153 
L 55.479924 150.461424 
L 55.840234 150.560925 
L 55.871592 150.855476 
L 55.748004 150.964202 
L 55.634869 151.565823 
L 55.788585 151.78723 
L 55.578302 151.998094 
L 56.161192 151.958557 
L 56.252192 152.11934 
L 55.801497 152.245199 
L 55.646552 152.446179 
L 55.574613 153.154549 
L 55.928774 153.700818 
L 56.017314 153.949242 
L 56.205463 153.897844 
L 56.239895 153.970987 
L 56.450178 154.914603 
L 56.309989 155.114923 
L 56.393611 155.312608 
L 56.511665 155.345555 
L 56.618651 155.999233 
L 56.91563 156.094122 
L 56.733015 156.444683 
L 56.4883 156.59031 
L 56.001328 157.076615 
L 55.786741 157.224878 
L 55.840234 157.3369 
L 56.328435 157.268369 
L 56.479692 157.503614 
L 56.723178 157.614317 
L 57.133906 157.999803 
L 56.825245 158.331913 
L 57.098244 158.449206 
L 57.369399 158.275243 
L 57.505899 158.18299 
L 58.723328 158.021548 
L 59.357868 158.662705 
L 59.265638 158.80438 
L 58.94099 159.054121 
L 59.099625 159.828387 
L 59.201077 160.166428 
L 59.445793 160.350274 
L 59.981339 160.441868 
L 59.872508 159.854086 
L 60.138129 159.391503 
L 60.545169 159.035671 
L 61.547396 158.81031 
L 61.744768 158.994157 
L 61.885571 159.753925 
L 61.688815 160.220461 
L 61.884956 160.239571 
L 62.419888 160.77332 
L 62.709488 161.081708 
L 62.780812 161.43754 
L 63.285001 162.053658 
L 63.91585 162.321191 
L 63.596121 162.624308 
L 63.498973 162.884593 
L 63.709256 163.216703 
L 64.303214 162.733693 
L 65.309131 163.034174 
L 65.349712 163.489508 
L 65.519414 163.769562 
L 65.159104 163.878947 
L 66.206832 164.313854 
L 66.504426 164.653871 
L 66.19392 164.827834 
L 64.961118 164.3099 
L 64.329039 163.316205 
L 64.434795 163.886855 
L 65.317739 165.095367 
L 64.900862 164.754032 
L 64.954355 165.148083 
L 65.107456 165.380033 
L 65.976258 165.940799 
L 66.07894 165.693693 
L 66.12444 166.547691 
L 66.34948 167.316685 
L 66.398669 166.759873 
L 66.30275 166.211627 
L 66.662446 166.071271 
L 66.856128 166.112785 
L 67.1156 166.395474 
L 67.379991 166.472571 
L 67.525714 166.916703 
L 67.56445 167.70876 
L 67.953659 168.433604 
L 67.839294 168.014512 
L 67.624707 167.182918 
L 67.72124 166.715064 
L 68.10676 166.609633 
L 68.133814 166.672892 
L 68.163942 167.40762 
L 68.7579 169.368653 
L 68.901778 169.57754 
L 69.405352 169.820033 
L 69.565831 170.021012 
L 69.562142 170.192998 
L 69.819769 170.42363 
L 69.768121 170.092179 
L 70.031283 170.192998 
L 70.002999 171.207121 
L 69.650682 171.104325 
L 68.861197 169.788403 
L 68.628779 169.649365 
L 69.001386 170.643719 
L 68.916535 170.905981 
L 68.307205 171.824556 
L 67.515261 172.031466 
L 67.479599 172.258145 
L 67.616099 172.256827 
L 67.90201 172.09209 
L 69.807472 171.995883 
L 70.133965 172.202793 
L 69.926756 172.786622 
L 69.761972 172.910504 
L 69.16371 173.060745 
L 68.973717 172.863719 
L 68.835373 172.533586 
L 68.582664 173.022526 
L 68.398205 173.160246 
L 67.660369 173.516738 
L 67.643768 173.750006 
L 67.330187 173.805357 
L 67.238573 174.140104 
L 67.175242 174.192161 
L 67.541085 174.192161 
L 67.302518 174.593461 
L 67.149417 174.598732 
L 66.921303 174.413568 
L 67.121749 174.897895 
L 66.770047 175.256364 
L 66.447858 175.411876 
L 66.019913 175.868527 
L 65.393982 176.25533 
L 64.803098 176.993354 
L 64.541167 177.046728 
L 63.967499 176.976221 
L 63.967499 177.086924 
L 64.225742 177.307672 
L 64.1206 177.411127 
L 63.812553 177.419035 
L 64.070796 177.640442 
L 64.026526 177.865143 
L 64.336417 178.072712 
L 64.487673 178.092481 
L 64.256485 178.282258 
L 63.805175 178.267761 
L 63.358784 178.110272 
L 63.137433 177.871074 
L 63.224129 177.807815 
L 63.410433 177.790682 
L 63.498973 177.871074 
L 63.474993 177.734671 
L 63.400595 177.307672 
L 63.305291 177.287904 
L 62.975109 177.48493 
L 62.832461 177.307672 
L 62.79065 177.345232 
L 62.572989 177.780139 
L 62.67813 178.092481 
L 62.255719 178.273033 
L 62.002395 178.092481 
L 63.039055 179.198197 
L 62.652921 179.22785 
L 62.653536 179.415651 
L 63.24073 179.419604 
L 63.498973 179.320762 
L 63.60104 179.529649 
L 63.859283 178.83314 
L 64.338262 178.620299 
L 64.878727 178.725072 
L 65.317739 178.976791 
L 65.275314 179.028189 
L 65.159104 179.198197 
L 65.486212 179.248937 
L 65.575982 179.076951 
L 65.317739 178.304003 
L 65.679279 178.304003 
L 65.240266 177.918518 
L 65.159104 177.640442 
L 65.793643 177.774208 
L 66.001467 178.027904 
L 66.044508 178.304003 
L 66.560993 178.636114 
L 66.474297 178.837752 
L 66.044508 178.746158 
L 66.476142 178.946479 
L 66.714094 179.09013 
L 66.819236 179.35964 
L 66.762053 179.605428 
L 66.617561 179.715473 
L 65.981792 179.847921 
L 65.730927 179.801795 
L 65.419192 179.64826 
L 65.317739 179.640352 
L 64.688119 179.743148 
L 64.50243 179.565232 
L 64.539322 179.298358 
L 64.2571 179.360299 
L 64.019148 179.640352 
L 64.273701 179.956648 
L 64.329039 180.19387 
L 63.997012 180.267013 
L 64.044972 180.469969 
L 65.049659 181.225784 
L 65.159104 181.520334 
L 64.471072 180.887743 
L 64.305059 180.917396 
L 64.303214 181.111127 
L 64.583592 181.292338 
L 64.747761 181.412267 
L 64.859051 181.743059 
L 65.004159 181.640922 
L 64.939598 181.807636 
L 64.900862 181.973032 
L 65.181239 181.880121 
L 65.194152 182.222115 
L 65.06503 182.440227 
L 64.81724 182.315027 
L 64.258944 182.581901 
L 64.127363 182.755864 
L 64.212215 182.728847 
L 64.347485 182.822418 
L 64.384376 182.957503 
L 63.452243 183.400316 
L 63.553081 183.304769 
L 63.864202 183.068206 
L 63.811324 182.900174 
L 63.864202 182.755864 
L 63.624405 182.772338 
L 62.916082 183.298179 
L 62.661529 183.763397 
L 62.261253 183.740993 
L 62.27601 183.820067 
L 62.316591 184.083647 
L 62.038057 183.980851 
L 61.955051 184.083647 
L 62.074949 184.337342 
L 61.654383 185.489844 
L 61.71218 185.744858 
L 61.543707 186.088829 
L 61.275627 186.167903 
L 61.176634 186.073014 
L 61.121296 186.492765 
L 61.124985 186.958642 
L 61.027222 186.853869 
L 60.916546 186.50858 
L 60.911013 186.084875 
L 60.759141 185.928704 
L 60.656459 185.96297 
L 60.462777 185.778464 
L 60.22421 185.344875 
L 60.328122 185.914207 
L 60.449865 186.193602 
L 60.267251 186.626532 
L 60.230359 186.550752 
L 60.294919 186.073014 
L 60.040366 185.941883 
L 59.981339 184.847369 
L 60.08894 184.605534 
L 60.187933 182.755864 
L 60.005319 182.720281 
L 59.878042 183.012854 
L 59.828238 183.752854 
L 59.747076 183.853014 
L 59.678211 183.78053 
L 59.409516 183.400316 
L 59.431651 183.162436 
L 59.619799 182.579925 
L 59.43903 182.079782 
L 59.357868 181.973032 
L 59.464854 182.525891 
L 59.147584 183.095882 
L 58.996328 183.188794 
L 59.035064 183.879372 
L 59.022152 184.187761 
L 59.151273 184.414439 
L 58.859213 185.568918 
L 58.996328 185.741563 
L 58.921929 185.877306 
L 59.114382 186.039408 
L 58.904713 186.422916 
L 58.428809 186.294421 
L 58.60589 186.645641 
L 58.841997 186.958642 
L 58.682133 186.958642 
L 58.735011 187.031785 
L 58.789734 187.07923 
L 58.577606 187.070004 
L 57.758608 186.405125 
L 57.758608 186.515828 
L 57.892648 186.62719 
L 57.923391 186.806425 
L 57.887729 187.76849 
L 58.068499 187.952996 
L 57.852682 188.085445 
L 56.928542 187.842293 
L 57.226136 188.523646 
L 57.082258 188.737805 
L 56.464935 188.775365 
L 56.464935 189.069256 
L 55.375397 188.958553 
L 54.948682 188.551322 
L 54.592061 188.737805 
L 54.694743 188.805017 
L 55.010168 188.958553 
L 54.964053 189.236629 
L 54.851533 189.401366 
L 55.006479 189.519977 
L 55.479924 189.521295 
L 55.479924 189.621456 
L 54.906871 190.184857 
L 54.46171 189.860654 
L 54.18994 189.803325 
L 54.03069 190.064269 
L 54.391615 190.086674 
L 54.526885 190.216487 
L 54.649858 190.516967 
L 54.477081 190.514991 
L 53.806265 190.773958 
L 48.589764 190.064269 
L 48.685682 190.236255 
L 48.799432 190.488633 
L 48.636493 190.663254 
L 48.177805 190.627012 
L 48.177805 190.727172 
L 48.272494 190.669185 
L 48.441582 190.679069 
L 48.486467 190.848419 
L 48.638953 190.730467 
L 48.980202 190.928152 
L 49.438275 190.605926 
L 49.635032 190.908383 
L 49.668234 191.264216 
L 49.847774 191.309683 
L 49.967058 191.038855 
L 50.146598 190.406264 
L 50.252969 190.441188 
L 50.736252 190.787796 
L 51.790743 190.824697 
L 52.034844 191.097502 
L 52.34289 191.1489 
L 52.477545 191.300458 
L 52.462789 191.220725 
L 52.426512 190.959122 
L 52.787437 191.069826 
L 52.762227 191.627297 
L 52.899957 191.799941 
L 53.097328 191.843432 
L 53.027233 191.938321 
L 52.994031 192.054296 
L 53.200625 192.054296 
L 53.220915 192.410787 
L 53.509901 192.506335 
L 53.927393 192.949149 
L 53.746009 193.073031 
L 53.200625 193.169897 
L 53.267645 193.403165 
L 52.84093 193.693761 
L 52.607282 193.766246 
L 52.422208 193.944821 
L 52.267262 193.833459 
L 51.341278 193.637092 
L 50.90165 193.320796 
L 50.158895 193.032176 
L 49.941234 193.169897 
L 50.210544 193.213387 
L 52.224836 194.506246 
L 52.224836 195.069647 
L 52.289397 195.060422 
L 52.61589 194.933245 
L 52.650937 195.022203 
L 52.679835 195.401758 
L 51.596446 195.170466 
L 52.277715 196.04621 
L 52.317066 195.985587 
L 52.267262 195.733868 
L 52.861835 195.661384 
L 52.746856 195.97702 
L 52.576538 195.953957 
L 52.569775 196.004696 
L 52.52489 196.285408 
L 52.437579 196.346691 
L 52.163965 196.507474 
L 52.335512 196.55426 
L 52.890734 196.939745 
L 52.787437 197.060333 
L 52.971896 197.333138 
L 53.036456 197.993405 
L 52.931315 197.989451 
L 52.779443 197.999335 
L 52.942382 198.277412 
L 52.695822 198.788756 
L 52.27464 198.475756 
L 51.488845 197.613191 
L 51.59952 197.894562 
L 52.009019 198.507385 
L 51.806729 198.507385 
L 52.385316 199.529415 
L 52.224836 199.613761 
L 52.205161 199.938623 
L 52.009019 199.954437 
L 52.52489 200.498071 
L 52.398228 200.672033 
L 52.267262 200.498071 
L 52.012709 200.760991 
L 52.112316 200.939566 
L 51.694824 200.276664 
L 51.592757 200.450626 
L 51.806729 201.060813 
L 52.009019 201.060813 
L 52.013323 201.076628 
L 52.160891 201.516147 
L 52.379782 201.35734 
L 52.469552 201.867367 
L 52.735788 202.277233 
L 52.606667 202.275256 
L 52.318911 202.055826 
L 52.385931 202.298979 
L 52.632491 202.718729 
L 52.551944 202.89401 
L 52.289397 202.789237 
L 52.194093 202.663378 
L 51.983195 202.215951 
L 51.89158 202.660742 
L 51.437196 202.608026 
L 51.435352 202.188934 
L 51.385548 202.055826 
L 51.470399 202.042647 
L 51.694824 202.176414 
L 50.645867 200.931 
L 50.559786 201.160973 
L 50.636029 201.385675 
L 50.843853 201.707901 
L 51.282251 201.945123 
L 51.242285 201.993885 
L 51.127305 202.176414 
L 51.14944 202.619887 
L 51.075657 202.718729 
L 50.787286 202.419566 
L 50.456489 202.277233 
L 50.503834 202.608026 
L 50.301544 202.488097 
L 50.301544 202.608026 
L 52.17646 205.169294 
L 51.516514 204.558515 
L 50.917637 203.509468 
L 49.992882 202.608026 
L 50.140449 203.082469 
L 52.377794 205.771481 
L 52.060668 205.714971 
L 52.163965 205.825675 
L 52.257713 205.997143 
L 51.889851 206.065884 
L 51.409482 205.854999 
L 51.183258 205.604268 
L 51.437196 206.046423 
L 51.490689 206.43652 
L 51.393541 206.460243 
L 51.230602 206.377215 
L 51.381859 206.584784 
L 51.544797 206.709325 
L 51.554635 206.98213 
L 51.411372 207.102059 
L 51.075657 207.494134 
L 51.01663 207.279975 
L 51.024008 206.940617 
L 50.961292 207.020349 
L 50.826637 207.017714 
L 50.756542 206.940617 
L 50.920711 207.261525 
L 50.756542 207.604837 
L 50.920711 207.825585 
L 50.714732 207.825585 
L 50.714732 207.925746 
L 51.300082 207.949468 
L 51.577385 208.078622 
L 52.02931 209.457144 
L 51.806729 209.384 
L 51.861452 209.724018 
L 51.64748 209.826155 
L 51.651784 210.1866 
L 51.905722 210.36847 
L 51.78029 210.469289 
L 51.551561 210.635345 
L 51.596446 210.930554 
L 51.150055 210.822486 
L 50.961292 210.902219 
L 50.864758 211.262664 
L 51.127305 211.484071 
L 50.959447 211.772032 
L 51.075657 211.926226 
L 50.489692 212.325549 
L 50.367949 212.637232 
L 50.559786 213.163074 
L 50.344584 213.404249 
L 50.285557 213.793029 
L 50.456489 214.590358 
L 50.83586 215.20318 
L 50.927475 215.186048 
L 51.127305 215.696074 
L 51.012941 215.788986 
L 51.230602 216.36952 
L 51.134069 216.378746 
L 50.865988 216.140206 
L 50.81065 216.038069 
L 50.762076 216.053884 
L 50.422672 216.354364 
L 50.146598 216.258817 
L 50.400537 216.710856 
L 50.247436 216.716128 
L 50.146598 216.868345 
L 50.146598 217.475237 
L 50.324908 218.093331 
L 50.120159 218.638941 
L 50.120159 219.414524 
L 49.906186 220.349573 
L 50.061747 220.611835 
L 50.393773 220.42667 
L 50.348888 220.802271 
L 50.260348 220.849057 
L 49.941234 220.701452 
L 49.552025 220.922859 
L 49.518207 221.008522 
L 49.699592 222.055593 
L 49.631342 222.581434 
L 49.404458 222.744195 
L 49.279026 222.729698 
L 49.001722 222.581434 
L 48.685067 222.887846 
L 48.486467 223.68781 
L 48.388088 224.570143 
L 48.174116 224.593865 
L 47.543266 226.499546 
L 46.977592 229.300739 
L 46.731646 229.926741 
L 46.31108 230.461807 
L 45.703595 231.892386 
L 45.578162 231.866687 
L 45.22769 231.567524 
L 45.512987 230.710231 
L 45.359271 230.571852 
L 44.792982 230.745155 
L 44.660171 230.461807 
L 44.575935 230.534292 
L 44.165821 230.14024 
L 43.890977 230.550107 
L 43.754515 230.864882 
L 43.51548 230.679407 
L 43.772923 229.991318 
L 43.595843 229.950463 
L 42.93179 230.770196 
L 42.894898 230.832137 
L 42.320616 230.380098 
L 42.114636 230.682555 
L 42.0304 231.006099 
L 41.590158 230.995556 
L 41.499158 230.903962 
L 41.705752 230.803143 
L 41.499158 230.2404 
L 41.336834 230.518477 
L 41.04047 230.745155 
L 40.721971 230.815004 
L 40.373958 230.587667 
L 40.257134 230.682555 
L 39.912195 230.625227 
L 39.839027 230.2404 
L 39.787378 230.250944 
L 39.557419 230.449946 
L 39.638581 230.803143 
L 38.916117 230.490801 
L 38.558266 230.680578 
L 38.121098 230.63577 
L 38.132166 230.903962 
L 37.985828 230.981059 
L 37.565262 230.571852 
L 37.011885 230.677943 
L 36.872925 231.039047 
L 36.918425 231.467364 
L 37.079519 231.641326 
L 37.152688 231.920062 
L 37.513613 232.793828 
L 37.244918 233.06268 
L 37.118871 233.253116 
L 37.080749 233.184585 
L 37.045087 233.015235 
L 36.894446 233.015235 
L 36.735196 233.185244 
L 36.622061 233.123962 
L 36.319548 233.042911 
L 36.361359 232.802395 
L 36.269129 232.546723 
L 36.270974 232.351015 
L 36.111724 232.582306 
L 35.918657 232.394505 
L 35.675171 232.582306 
L 35.330848 232.778014 
L 34.793457 233.662982 
L 34.231472 234.351584 
L 34.066688 234.794398 
L 33.760486 234.99999 
L 33.486257 235.51463 
L 33.288271 236.18544 
L 33.192353 237.73397 
L 33.394028 238.200506 
L 33.780777 238.673632 
L 33.940027 239.523017 
L 34.105425 239.730586 
L 34.489715 240.653115 
L 34.348296 241.217176 
L 33.714372 242.015822 
L 33.081677 243.156463 
L 32.909515 243.21511 
L 32.198118 243.157122 
L 31.980457 243.054326 
L 31.184209 242.477087 
L 30.823899 242.472474 
L 30.414399 242.662251 
L 30.05286 242.563409 
L 28.914133 242.711672 
L 28.545829 243.188752 
L 28.221182 243.116926 
L 27.961094 243.196 
L 27.038799 243.881966 
L 26.276983 243.891191 
L 25.03004 243.327131 
L 24.345697 243.197977 
L 24.000144 242.954825 
L 23.759117 243.068823 
L 23.559902 243.22763 
L 23.154092 243.188093 
L 22.894004 243.29023 
L 22.863876 243.006223 
L 23.189139 242.450729 
L 23.436929 242.716944 
L 23.801543 242.602946 
L 23.652737 241.980087 
L 24.049333 242.231957 
L 23.460066 240.731823 
L 23.406746 240.24766 
L 23.605901 239.840946 
L 24.595332 238.785653 
L 24.571967 238.245974 
L 24.244245 237.689162 
L 23.963867 237.720791 
L 23.899306 237.40186 
L 23.572814 237.348485 
L 23.487348 237.115217 
L 23.582037 237.092154 
L 23.677955 236.895787 
L 23.693942 236.684264 
L 23.598638 235.97853 
L 22.709545 234.746295 
L 22.635147 234.346972 
L 22.379364 233.861326 
L 22.285904 233.346687 
L 21.956952 232.946046 
L 21.875791 232.457105 
L 21.152096 231.296037 
L 20.50403 229.207168 
L 20.41426 228.832226 
L 20.012754 228.361077 
L 21.54069 229.178174 
L 21.752203 229.501059 
L 21.992 229.670409 
L 22.159857 229.577498 
L 22.62285 229.597266 
L 22.853423 229.24341 
L 22.868795 228.780169 
L 22.521397 228.539653 
L 22.130959 227.466224 
L 21.466291 226.877124 
L 21.298434 226.500205 
L 21.565284 225.918353 
L 21.994459 225.722645 
L 22.897694 226.123945 
L 23.327483 225.918353 
L 23.556212 225.432048 
L 23.693942 224.752013 
L 23.661969 224.431763 
L 23.188524 222.773188 
L 22.782714 222.723767 
L 22.244709 222.858193 
L 22.130959 222.812725 
L 21.667352 222.083269 
L 21.507487 221.547543 
L 21.254164 221.144266 
L 21.095529 220.530125 
L 21.122583 219.995718 
L 20.597489 219.467899 
L 20.534773 219.331497 
L 20.373679 219.253082 
L 20.149869 218.845192 
L 19.713931 218.625762 
L 19.435397 218.520989 
L 19.210357 218.046546 
L 19.269384 217.47326 
L 19.278607 217.32895 
L 19.119972 216.7583 
L 18.651446 216.402468 
L 18.471291 216.113189 
L 18.399967 215.779102 
L 18.25363 215.595255 
L 18.397508 215.346831 
L 18.365535 215.129378 
L 18.120819 214.575202 
L 18.048265 214.096146 
L 17.728536 214.047383 
L 18.047036 213.653991 
L 17.793712 213.584801 
L 17.51149 213.438514 
L 17.367612 213.263234 
L 17.784489 213.163074 
L 17.563753 213.047099 
L 17.320267 212.932441 
L 17.714395 212.364427 
L 17.343632 211.484071 
L 17.109369 211.594116 
L 16.978403 211.410269 
L 17.423564 210.710465 
L 17.05772 210.710465 
L 17.297517 210.435024 
L 17.280916 210.245906 
L 16.931673 209.617927 
L 16.65191 210.066013 
L 16.443472 211.484071 
L 16.391823 211.200723 
L 16.100378 211.253439 
L 16.185229 210.81985 
L 16.100378 210.831053 
L 15.871649 210.710465 
L 15.961419 210.564178 
L 15.970027 209.384 
L 16.185229 209.162593 
L 15.923297 208.941186 
L 15.973101 208.923395 
L 16.081932 208.820599 
L 15.871649 208.609076 
L 15.979865 208.359334 
L 15.824919 206.940617 
L 15.692723 207.279975 
L 15.599879 207.260207 
L 15.355163 206.377215 
L 15.427717 206.035879 
L 15.918378 205.973938 
L 16.025365 205.714971 
L 15.862426 205.821721 
L 15.437555 205.869165 
L 15.251866 205.825675 
L 14.69603 205.54035 
L 14.622861 205.869824 
L 14.376301 205.786138 
L 14.383064 205.404606 
L 15.150414 204.334473 
L 14.840523 204.322612 
L 14.726773 204.387189 
L 14.235497 203.531873 
L 14.004923 203.502879 
L 14.365233 203.161543 
L 14.287146 202.826797 
L 14.390443 202.660742 
L 14.78334 202.387937 
L 14.680043 202.387937 
L 14.680043 202.277233 
L 14.78457 202.213974 
L 14.834989 202.055826 
L 14.611793 201.895702 
L 14.665287 201.619602 
L 15.092002 200.541561 
L 15.069252 200.110608 
L 14.962266 199.782452 
L 15.041583 199.28165 
L 15.227887 199.23157 
L 15.305974 198.938997 
L 15.484285 197.723895 
L 15.66321 197.677109 
L 15.768352 197.391784 
L 15.548845 197.365426 
L 15.48244 197.232318 
L 15.353934 196.664304 
L 15.195299 196.396112 
L 15.158407 196.00865 
L 15.286914 195.776041 
L 15.716703 195.512461 
L 15.622629 195.309505 
L 15.464609 195.352995 
L 15.14365 195.61328 
L 14.537395 195.605373 
L 14.421801 195.921669 
L 14.17647 195.923645 
L 13.217283 196.84881 
L 13.019912 196.728222 
L 13.054344 196.809273 
L 13.123209 197.060333 
L 12.868656 196.966103 
L 12.798561 196.718338 
L 12.968263 195.953957 
L 13.333492 195.152675 
L 13.746681 194.616949 
L 13.638465 194.506246 
L 13.859201 194.205106 
L 14.10822 194.065409 
L 13.977254 193.818962 
L 13.798329 193.917145 
L 13.493972 194.406744 
L 13.179776 193.401188 
L 13.228351 193.874313 
L 13.139195 194.99255 
L 12.786264 195.841936 
L 12.567372 196.139122 
L 12.03982 196.617519 
L 12.28761 196.060707 
L 12.39644 195.834028 
L 11.988171 195.953957 
L 11.989401 195.573084 
L 12.168941 195.401758 
L 12.435792 195.368151 
L 12.241495 195.010342 
L 12.250718 194.616949 
L 12.121596 194.629469 
L 11.659834 195.298962 
L 11.962347 194.456825 
L 12.250718 193.733298 
L 11.860279 194.426513 
L 11.653685 194.686139 
L 11.571294 194.94906 
L 11.364699 195.071624 
L 10.962579 194.976735 
L 10.797181 195.401758 
L 10.705566 195.190235 
L 10.721552 194.755329 
L 10.590586 194.406744 
L 10.734464 194.021918 
L 11.003775 194.065409 
L 11.020376 193.579104 
L 11.265706 193.290485 
L 10.952126 193.009772 
L 10.935525 192.505676 
L 10.952126 192.506335 
L 11.04866 191.786762 
L 11.209754 191.511322 
L 11.054808 191.511322 
L 11.04743 191.238517 
L 10.952126 191.069826 
L 10.934295 190.393744 
L 10.637931 189.903486 
L 10.651458 189.398731 
L 10.458391 189.401366 
L 10.387067 189.265623 
L 10.480526 188.708152 
L 10.637931 188.636985 
L 10.653302 188.279835 
L 10.810093 187.814617 
L 10.7566 187.15435 
L 10.579519 187.057484 
L 10.539553 186.523735 
L 10.539553 185.96297 
L 9.952358 185.665784 
L 9.863818 185.460191 
L 9.933912 185.213086 
L 10.435641 184.847369 
L 9.974493 184.803878 
L 9.948669 184.370949 
L 10.024297 184.202916 
L 10.709255 183.248099 
L 11.471686 183.096541 
L 11.726239 183.224377 
L 12.17509 184.68988 
L 12.356954 184.851764 
L 12.470962 185.348025 
L 12.461591 186.391596 
L 12.692731 186.539722 
L 13.179998 186.57487 
L 13.667265 186.438461 
L 14.066293 186.002454 
L 14.677719 183.215692 
L 14.701926 182.439918 
L 15.109544 180.911802 
L 15.179042 180.320975 
L 14.969767 178.868176 
L 14.116269 175.306477 
L 14.145942 174.876328 
L 14.288062 174.630289 
L 15.487488 173.803466 
L 15.825608 173.14569 
L 15.723642 171.665463 
L 15.415648 171.130518 
L 15.465624 170.579861 
L 15.773289 170.250136 
L 16.165289 170.100337 
L 17.687999 170.158917 
L 18.797624 169.182295 
L 20.253178 167.198087 
L 20.462453 166.603076 
L 20.542883 165.313466 
L 20.283632 163.721748 
L 20.4156 163.240551 
L 20.968461 162.426281 
L 21.175393 161.725824 
L 21.200381 160.635389 
L 21.092621 160.174694 
L 20.247712 157.868711 
L 19.246628 155.666081 
L 18.515728 152.29184 
L 18.725003 152.073418 
L 20.905991 151.499328 
L 21.758708 151.666283 
L 21.919569 151.571299 
L 21.992971 151.329026 
L 22.243633 149.866604 
L 22.947202 148.643525 
L 23.059649 148.184923 
L 23.303282 146.465164 
L 23.229099 146.3116 
L 21.009848 143.232772 
L 20.764652 143.138624 
L 19.962692 143.031924 
L 19.748732 142.889657 
L 19.154485 142.068692 
L 18.80309 141.774952 
L 17.823871 140.581163 
L 18.983119 131.724116 
L 18.976445 131.491549 
L 18.713938 130.550783 
L 17.282724 126.305913 
L 17.782485 124.243458 
L 17.306931 121.429916 
L 17.390485 121.172161 
L 18.284588 119.906821 
L 16.544795 115.252175 
L 18.262724 112.250339 
L 18.260381 111.888813 
L 17.888684 110.244372 
L 18.817146 109.291183 
L 20.247712 106.821593 
L 21.754023 104.443221 
L 22.308445 103.875826 
L 24.024812 102.783717 
L 25.926247 102.26486 
L 31.442749 103.582087 
L 31.579403 103.420572 
L 32.925634 100.704106 
L 32.932662 100.40953 
L 32.445395 96.200933 
L 32.172869 96.01766 
L 31.260024 95.77999 
L 29.013833 94.278653 
L 33.016997 87.679132 
L 34.060248 86.17947 
L 34.270304 85.55182 
L 34.585778 83.650881 
L 34.73883 83.405261 
L 35.355722 82.867156 
L 35.598575 82.39098 
L 35.57671 80.787964 
L 35.568901 80.015956 
L 36.021029 75.9354 
L 36.615276 74.547877 
L 36.581698 73.891774 
L 35.796917 69.316212 
L 39.671627 68.86556 
L 42.909142 66.896416 
L 42.984106 66.683852 
L 42.86532 65.59979 
L 42.48903 63.392879 
L 44.326433 61.640482 
L 47.117286 56.974539 
L 47.773222 56.216339 
L 49.17021 54.992842 
L 49.843326 54.571062 
L 49.963581 54.299917 
L 50.13225 51.909411 
L 47.784154 48.307124 
L 48.331549 46.922111 
L 49.596569 46.705363 
L 50.061971 46.505352 
L 50.472712 46.119557 
L 51.423039 44.670943 
L 52.738816 40.627209 
L 52.928569 40.406277 
L 56.041924 38.309929 
L 56.807964 37.253805 
L 61.144172 39.450577 
L 61.337829 39.398691 
L 61.797766 38.697398 
L 63.193973 36.39267 
L 63.359519 35.740752 
L 62.9683 32.055197 
L 63.233017 30.280205 
L 65.230499 29.665946 
L 65.574866 29.858425 
L 66.804747 30.841742 
L 67.225639 30.93296 
L 69.778325 30.770608 
L 73.129847 32.092019 
L 76.524318 33.287899 
L 76.828079 33.270325 
L 77.12325 33.06613 
L 78.903649 31.228374 
L 76.760142 30.194845 
L 78.19227 29.132026 
L 78.83337 28.285955 
L 79.70639 26.235634 
L 79.739187 25.929342 
L 79.622836 24.221299 
L 77.81823 22.406138 
L 81.753848 22.176 
L 82.148972 22.470577 
L 83.054789 22.582717 
L 83.573291 22.986923 
L 83.930151 23.077304 
L 84.106629 23.29991 
L 84.104287 23.590303 
L 83.980127 23.850568 
L 83.752112 23.94597 
L 83.728685 24.275695 
L 83.888765 24.471522 
L 85.145976 24.879075 
L 86.237642 25.72431 
L 86.978694 26.747796 
L 87.671331 26.831482 
L 88.103937 27.835721 
L 88.346009 28.019831 
L 88.9262 28.151219 
L 90.017085 28.931178 
L 90.170136 29.438318 
L 91.546041 29.757164 
L 92.429212 30.756381 
L 92.446392 31.051795 
L 92.701738 31.234232 
L 94.446217 31.248458 
L 94.986583 31.409973 
L 95.012352 31.604963 
L 95.608161 31.642622 
L 96.42652 31.893682 
L 96.42652 31.893682 
" clip-path="url(#p88cc2f0caf)" style="fill: none; stroke: #000000; stroke-width: 2"/>
   </g>
  </g>
 </g>
 <defs>
  <clipPath id="p88cc2f0caf">
   <rect x="0" y="-0" width="118.365813" height="266.112"/>
  </clipPath>
 </defs>
</svg>
