<?xml version="1.0" encoding="utf-8" standalone="no"?>
<!DOCTYPE svg PUBLIC "-//W3C//DTD SVG 1.1//EN"
  "http://www.w3.org/Graphics/SVG/1.1/DTD/svg11.dtd">
<svg xmlns:xlink="http://www.w3.org/1999/xlink" width="201.067955pt" height="266.112pt" viewBox="0 0 201.067955 266.112" xmlns="http://www.w3.org/2000/svg" version="1.1">
 <metadata>
  <rdf:RDF xmlns:dc="http://purl.org/dc/elements/1.1/" xmlns:cc="http://creativecommons.org/ns#" xmlns:rdf="http://www.w3.org/1999/02/22-rdf-syntax-ns#">
   <cc:Work>
    <dc:type rdf:resource="http://purl.org/dc/dcmitype/StillImage"/>
    <dc:date>2024-02-02T21:58:05.475220</dc:date>
    <dc:format>image/svg+xml</dc:format>
    <dc:creator>
     <cc:Agent>
      <dc:title>Matplotlib v3.8.2, https://matplotlib.org/</dc:title>
     </cc:Agent>
    </dc:creator>
   </cc:Work>
  </rdf:RDF>
 </metadata>
 <defs>
  <style type="text/css">*{stroke-linejoin: round; stroke-linecap: butt}</style>
 </defs>
 <g id="figure_1">
  <g id="patch_1">
   <path d="M 0 266.112 
L 201.067955 266.112 
L 201.067955 0 
L 0 0 
L 0 266.112 
z
" style="fill: none"/>
  </g>
  <g id="axes_1">
   <g id="PatchCollection_1">
    <path d="M 152.415282 57.811338 
L 155.996883 56.955626 
L 163.199015 53.34423 
L 166.469172 56.477007 
L 170.076727 58.434993 
L 178.433795 60.596029 
L 176.78574 65.005122 
L 177.447558 70.052374 
L 178.933403 75.244662 
L 179.796361 80.103367 
L 179.342172 83.845295 
L 175.189592 94.940547 
L 174.579681 99.030561 
L 176.143388 113.505151 
L 177.084207 117.435626 
L 183.014611 129.430101 
L 184.312292 140.931453 
L 183.871081 177.103424 
L 181.846698 176.189698 
L 178.758216 173.085928 
L 176.74681 172.694331 
L 168.324857 172.65082 
L 168.59737 176.856863 
L 166.469172 189.257439 
L 164.509673 200.787799 
L 162.303615 213.681496 
L 162.56634 222.335437 
L 162.647501 225.008806 
L 162.965432 235.407885 
L 163.66618 237.467396 
L 164.52265 238.990273 
L 165.158514 240.484144 
L 165.521865 242.07954 
L 165.586749 243.936 
L 154.329362 243.790964 
L 142.267413 243.616921 
L 123.983082 243.37036 
L 110.123844 243.181813 
L 101.701891 241.470388 
L 88.796449 237.032288 
L 79.187118 233.725468 
L 74.738567 232.193391 
L 63.731732 228.402648 
L 61.837117 227.126331 
L 59.897083 225.182849 
L 53.901795 216.147108 
L 41.009329 204.471712 
L 38.193361 199.598504 
L 37.661311 196.103137 
L 38.958993 190.59177 
L 39.114714 187.096403 
L 38.375036 184.311712 
L 37.038424 182.237698 
L 33.443846 178.423252 
L 31.782814 175.885122 
L 29.61137 169.47311 
L 28.973334 167.589065 
L 27.532907 169.373007 
L 25.605851 171.011914 
L 23.477653 172.201209 
L 21.388386 172.607309 
L 19.208281 172.737842 
L 18.3583 169.460029 
L 17.106037 159.82964 
L 16.911385 140.452835 
L 16.755663 125.51413 
L 19.474306 114.999022 
L 31.120997 100.161842 
L 31.122975 100.159325 
L 40.23072 88.573468 
L 48.756488 73.272173 
L 55.517408 56.926619 
L 57.431488 49.529784 
L 59.060078 46.600057 
L 70.181208 36.578072 
L 82.84658 25.178245 
L 86.376273 23.394302 
L 90.723506 22.234014 
L 94.421898 22.176 
L 97.614194 23.249266 
L 110.915429 31.936921 
L 124.216664 40.624576 
L 135.746564 48.166446 
L 137.801464 49.511116 
L 148.801239 56.709065 
L 152.415282 57.811338 
" clip-path="url(#paaa07b73d3)" style="fill: none; stroke: #000000; stroke-width: 2"/>
   </g>
  </g>
 </g>
 <defs>
  <clipPath id="paaa07b73d3">
   <rect x="0" y="-0" width="201.067955" height="266.112"/>
  </clipPath>
 </defs>
</svg>
