<?xml version="1.0" encoding="utf-8" standalone="no"?>
<!DOCTYPE svg PUBLIC "-//W3C//DTD SVG 1.1//EN"
  "http://www.w3.org/Graphics/SVG/1.1/DTD/svg11.dtd">
<svg xmlns:xlink="http://www.w3.org/1999/xlink" width="357.12pt" height="212.795039pt" viewBox="0 0 357.12 212.795039" xmlns="http://www.w3.org/2000/svg" version="1.1">
 <metadata>
  <rdf:RDF xmlns:dc="http://purl.org/dc/elements/1.1/" xmlns:cc="http://creativecommons.org/ns#" xmlns:rdf="http://www.w3.org/1999/02/22-rdf-syntax-ns#">
   <cc:Work>
    <dc:type rdf:resource="http://purl.org/dc/dcmitype/StillImage"/>
    <dc:date>2024-02-02T21:58:05.530232</dc:date>
    <dc:format>image/svg+xml</dc:format>
    <dc:creator>
     <cc:Agent>
      <dc:title>Matplotlib v3.8.2, https://matplotlib.org/</dc:title>
     </cc:Agent>
    </dc:creator>
   </cc:Work>
  </rdf:RDF>
 </metadata>
 <defs>
  <style type="text/css">*{stroke-linejoin: round; stroke-linecap: butt}</style>
 </defs>
 <g id="figure_1">
  <g id="patch_1">
   <path d="M 0 212.795039 
L 357.12 212.795039 
L 357.12 0 
L 0 0 
L 0 212.795039 
z
" style="fill: none"/>
  </g>
  <g id="axes_1">
   <g id="PatchCollection_1">
    <path d="M 38.419097 194.793552 
L 38.118768 195.062119 
L 37.799217 194.929045 
L 37.76558 194.612088 
L 38.015454 194.307228 
L 38.380655 194.087051 
L 38.688192 194.004788 
L 38.623321 194.358038 
L 38.419097 194.793552 
" clip-path="url(#p15a4685847)" style="fill: none; stroke: #000000; stroke-width: 2"/>
    <path d="M 68.389568 193.414424 
L 68.139694 193.799128 
L 68.139694 193.356356 
L 68.305476 193.245058 
L 68.389568 193.414424 
" clip-path="url(#p15a4685847)" style="fill: none; stroke: #000000; stroke-width: 2"/>
    <path d="M 38.990924 184.060551 
L 38.608905 184.215401 
L 37.599798 184.97997 
L 37.059206 185.277571 
L 34.877613 185.221922 
L 32.489394 185.957457 
L 30.557675 186.046979 
L 29.76 184.060551 
L 30.442348 184.897706 
L 31.730161 185.275152 
L 33.099663 185.197727 
L 34.017469 184.667852 
L 34.531633 184.694466 
L 35.329308 184.442836 
L 36.083736 184.101683 
L 36.468157 183.840375 
L 36.650758 184.060551 
L 36.857384 183.840375 
L 37.150506 183.985546 
L 37.477264 184.060551 
L 37.477264 183.840375 
L 37.18174 183.649233 
L 37.006348 183.373407 
L 36.910242 183.029835 
L 36.857384 182.637872 
L 38.265328 183.230655 
L 38.870792 183.651652 
L 39.14229 183.934736 
L 38.990924 184.060551 
" clip-path="url(#p15a4685847)" style="fill: none; stroke: #000000; stroke-width: 2"/>
    <path d="M 36.247115 182.637872 
L 35.761783 183.102421 
L 34.839171 183.213719 
L 33.911754 183.083065 
L 33.412005 182.824176 
L 33.037194 183.029835 
L 32.366859 182.933054 
L 32.018477 183.044352 
L 31.965619 182.947571 
L 31.980035 182.879825 
L 31.956009 182.841112 
L 31.797435 182.824176 
L 31.790227 182.686263 
L 31.845487 182.662068 
L 31.931982 182.671746 
L 32.943492 182.303978 
L 34.079938 182.376564 
L 35.242813 182.584643 
L 36.247115 182.637872 
" clip-path="url(#p15a4685847)" style="fill: none; stroke: #000000; stroke-width: 2"/>
    <path d="M 326.917915 117.702737 
L 326.168293 118.864107 
L 326.514272 117.305935 
L 326.826615 116.698635 
L 327.36 116.408292 
L 327.227855 117.059144 
L 326.917915 117.702737 
" clip-path="url(#p15a4685847)" style="fill: none; stroke: #000000; stroke-width: 2"/>
    <path d="M 222.681992 112.967732 
L 222.840566 113.287109 
L 222.727642 113.258074 
L 222.691602 113.187908 
L 222.691602 113.091127 
L 222.681992 112.967732 
" clip-path="url(#p15a4685847)" style="fill: none; stroke: #000000; stroke-width: 2"/>
    <path d="M 300.623476 79.40654 
L 300.570618 79.512999 
L 300.565813 79.389603 
L 300.652308 79.062968 
L 300.623476 79.40654 
" clip-path="url(#p15a4685847)" style="fill: none; stroke: #000000; stroke-width: 2"/>
    <path d="M 240.461492 66.600009 
L 240.480713 66.786312 
L 240.355776 66.64356 
L 240.278892 66.49597 
L 240.163565 66.166915 
L 240.389413 66.457257 
L 240.461492 66.600009 
" clip-path="url(#p15a4685847)" style="fill: none; stroke: #000000; stroke-width: 2"/>
    <path d="M 301.317903 44.158401 
L 301.280219 44.169244 
L 301.161785 44.033713 
L 301.086417 43.963237 
L 301.091801 43.903604 
L 301.054117 43.854813 
L 301.07565 43.816864 
L 301.129484 43.822285 
L 301.194085 43.849391 
L 301.301753 43.914446 
L 301.36097 44.012028 
L 301.334053 44.104189 
L 301.317903 44.158401 
" clip-path="url(#p15a4685847)" style="fill: none; stroke: #000000; stroke-width: 2"/>
    <path d="M 300.386577 43.75723 
L 300.35966 43.8006 
L 300.268142 43.762652 
L 300.122791 43.740967 
L 300.036657 43.675912 
L 299.99359 43.605436 
L 300.05819 43.545803 
L 300.160475 43.583751 
L 300.289676 43.681333 
L 300.386577 43.75723 
" clip-path="url(#p15a4685847)" style="fill: none; stroke: #000000; stroke-width: 2"/>
    <path d="M 304.029515 42.618231 
L 304.102729 42.670275 
L 304.158716 42.639916 
L 304.231931 42.665938 
L 304.313758 42.87845 
L 304.283611 42.960853 
L 304.188863 42.969527 
L 304.068276 42.926157 
L 303.982141 42.843754 
L 303.874474 42.800384 
L 303.86586 42.670275 
L 303.926154 42.613894 
L 304.029515 42.618231 
" clip-path="url(#p15a4685847)" style="fill: none; stroke: #000000; stroke-width: 2"/>
    <path d="M 304.490333 42.592209 
L 304.438653 42.661601 
L 304.361132 42.626905 
L 304.262078 42.56185 
L 304.210397 42.483785 
L 304.236237 42.41873 
L 304.279304 42.427404 
L 304.352518 42.492459 
L 304.451573 42.518481 
L 304.490333 42.592209 
" clip-path="url(#p15a4685847)" style="fill: none; stroke: #000000; stroke-width: 2"/>
    <path d="M 304.223317 41.733487 
L 304.361132 41.763846 
L 304.48172 41.763846 
L 304.537707 41.798542 
L 304.48172 41.919977 
L 304.386972 42.050087 
L 304.19317 42.128152 
L 304.072582 42.210555 
L 304.016595 42.219229 
L 304.003675 42.132489 
L 304.033822 41.976358 
L 304.016595 41.872271 
L 304.051049 41.807216 
L 304.094116 41.77252 
L 304.223317 41.733487 
" clip-path="url(#p15a4685847)" style="fill: none; stroke: #000000; stroke-width: 2"/>
    <path d="M 317.401652 41.514281 
L 317.245567 41.566675 
L 317.074617 41.551705 
L 316.896233 41.372068 
L 316.881368 41.259795 
L 316.977992 41.184946 
L 317.104347 41.147522 
L 317.230702 41.184946 
L 317.379355 41.379553 
L 317.401652 41.514281 
" clip-path="url(#p15a4685847)" style="fill: none; stroke: #000000; stroke-width: 2"/>
    <path d="M 302.847876 42.495609 
L 302.832899 42.549194 
L 303.061093 42.5371 
L 303.393202 42.969461 
L 304.042726 43.428716 
L 304.595513 43.804469 
L 304.954824 44.166306 
L 304.747529 44.987397 
L 304.858087 45.168316 
L 304.941005 45.850239 
L 304.692251 45.919823 
L 304.609333 46.253826 
L 304.871906 46.838332 
L 304.914582 47.246251 
L 305.13448 47.422837 
L 305.231218 47.840341 
L 304.692251 47.840341 
L 304.236202 47.603756 
L 303.849251 46.921832 
L 303.724874 46.601746 
L 303.4623 46.504328 
L 303.255005 46.643496 
L 303.033891 46.532162 
L 303.172087 45.989407 
L 303.662386 45.992039 
L 303.863071 45.836322 
L 303.669595 45.571903 
L 303.531399 45.390985 
L 303.572858 45.140482 
L 303.4623 44.945647 
L 303.172087 44.917813 
L 302.881874 44.486393 
L 302.605481 44.096722 
L 302.204711 44.054972 
L 301.693383 43.748802 
L 301.430954 43.589173 
L 301.209695 43.581801 
L 300.9949 43.502433 
L 301.008764 43.383385 
L 301.161785 43.35606 
L 301.086417 43.263899 
L 300.849548 43.188002 
L 300.558845 43.253057 
L 300.311209 43.177159 
L 300.144324 43.052471 
L 300.192775 42.949468 
L 300.418877 42.971153 
L 300.499628 42.906098 
L 300.413494 42.754304 
L 300.817248 42.363976 
L 301.000283 42.288079 
L 301.361711 42.259705 
L 301.679563 42.120537 
L 301.81776 41.883951 
L 301.93051 41.647477 
L 302.093889 41.53134 
L 302.173176 41.173251 
L 302.154324 40.668484 
L 302.358497 40.608011 
L 302.56267 40.626153 
L 302.780192 40.659261 
L 303.044797 40.931276 
L 303.144023 41.289337 
L 303.022746 41.422569 
L 302.928981 41.738856 
L 302.928981 41.974701 
L 302.896774 42.320661 
L 302.983026 42.452437 
L 302.847876 42.495609 
" clip-path="url(#p15a4685847)" style="fill: none; stroke: #000000; stroke-width: 2"/>
    <path d="M 297.033939 38.811797 
L 296.493346 38.927934 
L 296.082496 38.436771 
L 295.887882 37.723012 
L 296.005611 37.171361 
L 296.495749 37.333469 
L 297.024329 37.708495 
L 297.298229 38.219014 
L 297.033939 38.811797 
" clip-path="url(#p15a4685847)" style="fill: none; stroke: #000000; stroke-width: 2"/>
    <path d="M 308.572937 34.451648 
L 308.48511 34.451648 
L 308.353371 34.330037 
L 308.452176 34.252649 
L 308.507067 34.307926 
L 308.572937 34.451648 
" clip-path="url(#p15a4685847)" style="fill: none; stroke: #000000; stroke-width: 2"/>
    <path d="M 314.270689 35.070755 
L 314.19384 35.325031 
L 313.985252 35.269754 
L 313.721772 35.004422 
L 313.655902 34.639591 
L 313.809599 34.27476 
L 313.908404 33.976262 
L 314.270689 34.131038 
L 314.468298 34.506925 
L 314.65493 34.794368 
L 314.45732 34.893867 
L 314.270689 35.070755 
" clip-path="url(#p15a4685847)" style="fill: none; stroke: #000000; stroke-width: 2"/>
    <path d="M 316.62005 34.142094 
L 316.587116 34.341093 
L 316.477332 34.285815 
L 316.444397 34.064706 
L 316.510267 33.876762 
L 316.652985 33.965206 
L 316.62005 34.142094 
" clip-path="url(#p15a4685847)" style="fill: none; stroke: #000000; stroke-width: 2"/>
    <path d="M 309.001092 33.876762 
L 308.847395 33.898873 
L 308.836417 33.766207 
L 308.924244 33.699874 
L 309.023049 33.733041 
L 309.001092 33.876762 
" clip-path="url(#p15a4685847)" style="fill: none; stroke: #000000; stroke-width: 2"/>
    <path d="M 315.467326 33.954151 
L 315.291673 33.998373 
L 315.137976 33.83254 
L 314.940367 33.556153 
L 314.995258 33.379265 
L 315.137976 33.412432 
L 315.423413 33.721985 
L 315.467326 33.954151 
" clip-path="url(#p15a4685847)" style="fill: none; stroke: #000000; stroke-width: 2"/>
    <path d="M 311.394367 33.202377 
L 311.624912 33.48982 
L 311.921327 33.357154 
L 312.29459 33.412432 
L 312.58618 33.772293 
L 312.110459 33.794069 
L 312.031172 34.04086 
L 312.023964 34.357817 
L 311.762077 34.59977 
L 311.396876 34.590092 
L 310.983623 34.415886 
L 310.704917 34.127963 
L 310.537149 33.758141 
L 310.137604 33.691042 
L 309.780553 33.644597 
L 309.560987 33.423487 
L 309.537236 33.206125 
L 309.342623 32.756094 
L 309.724642 32.618181 
L 309.926463 32.581888 
L 310.147506 32.57221 
L 310.567967 32.959334 
L 310.965705 33.124903 
L 311.394367 33.202377 
" clip-path="url(#p15a4685847)" style="fill: none; stroke: #000000; stroke-width: 2"/>
    <path d="M 315.148955 32.749102 
L 315.039171 32.760158 
L 314.929388 32.527993 
L 314.929388 32.36216 
L 315.028193 32.373216 
L 315.061128 32.561159 
L 315.148955 32.749102 
" clip-path="url(#p15a4685847)" style="fill: none; stroke: #000000; stroke-width: 2"/>
    <path d="M 310.999147 32.539048 
L 310.988169 32.638548 
L 310.628533 32.514019 
L 310.373369 32.279087 
L 310.461209 32.174217 
L 310.669797 32.174217 
L 311.152844 32.207384 
L 311.284584 32.218439 
L 311.24067 32.36216 
L 310.966212 32.36216 
L 310.999147 32.539048 
" clip-path="url(#p15a4685847)" style="fill: none; stroke: #000000; stroke-width: 2"/>
    <path d="M 309.286528 30.250562 
L 309.187723 30.327951 
L 308.968157 30.30584 
L 308.81446 30.272673 
L 308.847395 30.195285 
L 309.034027 30.184229 
L 309.14381 30.20634 
L 309.286528 30.250562 
" clip-path="url(#p15a4685847)" style="fill: none; stroke: #000000; stroke-width: 2"/>
    <path d="M 308.826072 17.73292 
L 309.008673 18.347479 
L 308.792436 18.345059 
L 308.595419 18.032941 
L 308.826072 17.73292 
" clip-path="url(#p15a4685847)" style="fill: none; stroke: #000000; stroke-width: 2"/>
   </g>
  </g>
 </g>
 <defs>
  <clipPath id="p15a4685847">
   <rect x="0" y="0" width="357.12" height="212.795039"/>
  </clipPath>
 </defs>
</svg>
