<?xml version="1.0" encoding="utf-8" standalone="no"?>
<!DOCTYPE svg PUBLIC "-//W3C//DTD SVG 1.1//EN"
  "http://www.w3.org/Graphics/SVG/1.1/DTD/svg11.dtd">
<svg xmlns:xlink="http://www.w3.org/1999/xlink" width="290.038771pt" height="266.112pt" viewBox="0 0 290.038771 266.112" xmlns="http://www.w3.org/2000/svg" version="1.1">
 <metadata>
  <rdf:RDF xmlns:dc="http://purl.org/dc/elements/1.1/" xmlns:cc="http://creativecommons.org/ns#" xmlns:rdf="http://www.w3.org/1999/02/22-rdf-syntax-ns#">
   <cc:Work>
    <dc:type rdf:resource="http://purl.org/dc/dcmitype/StillImage"/>
    <dc:date>2024-02-02T21:58:05.556239</dc:date>
    <dc:format>image/svg+xml</dc:format>
    <dc:creator>
     <cc:Agent>
      <dc:title>Matplotlib v3.8.2, https://matplotlib.org/</dc:title>
     </cc:Agent>
    </dc:creator>
   </cc:Work>
  </rdf:RDF>
 </metadata>
 <defs>
  <style type="text/css">*{stroke-linejoin: round; stroke-linecap: butt}</style>
 </defs>
 <g id="figure_1">
  <g id="patch_1">
   <path d="M 0 266.112 
L 290.038771 266.112 
L 290.038771 0 
L 0 0 
L 0 266.112 
z
" style="fill: none"/>
  </g>
  <g id="axes_1">
   <g id="PatchCollection_1">
    <path d="M 260.77054 23.884036 
L 261.874303 24.405364 
L 262.080789 24.307043 
L 262.550076 23.872603 
L 262.775334 23.938913 
L 263.274655 24.846664 
L 264.761356 25.943054 
L 264.997877 26.506683 
L 264.348384 28.978419 
L 265.046683 29.808428 
L 265.118014 30.433794 
L 265.144294 31.685667 
L 265.857611 33.155904 
L 265.855078 33.80879 
L 264.731322 34.65358 
L 262.39615 36.818921 
L 246.492953 53.460267 
L 245.531853 54.262839 
L 244.536965 54.724717 
L 230.912626 57.463977 
L 229.842651 57.951007 
L 229.110564 58.945647 
L 225.904395 65.100978 
L 225.607806 66.287686 
L 224.44022 78.129611 
L 224.582883 78.895598 
L 225.517703 81.05408 
L 228.325916 87.097371 
L 228.720117 88.517305 
L 228.892814 89.96925 
L 229.046741 96.053699 
L 228.847763 97.439335 
L 228.273356 98.776953 
L 225.326233 103.180805 
L 224.992101 104.511564 
L 224.672986 108.828528 
L 223.15625 114.293328 
L 222.799592 116.986857 
L 223.261371 134.199835 
L 222.949764 135.290509 
L 216.713879 147.427396 
L 215.407384 150.332429 
L 214.581439 151.512277 
L 213.518973 152.210811 
L 204.598766 154.625384 
L 135.001631 197.0942 
L 115.254035 209.721548 
L 104.302755 216.84408 
L 69.819548 239.644188 
L 63.981618 243.770227 
L 63.516085 243.936 
L 63.005501 243.914278 
L 60.685346 243.283196 
L 59.896944 243.259188 
L 59.266222 243.643324 
L 57.955973 242.616674 
L 51.660019 241.823249 
L 51.070595 241.442542 
L 49.024504 241.228752 
L 48.307433 241.003529 
L 47.770569 240.689131 
L 44.579417 237.569165 
L 42.236737 235.903429 
L 41.054134 234.677851 
L 40.659933 234.454914 
L 40.472218 234.516651 
L 39.879039 234.991105 
L 39.056848 234.773885 
L 37.192648 234.943987 
L 36.624065 234.897357 
L 36.616556 234.707576 
L 36.413824 234.191964 
L 34.43531 230.889075 
L 34.40903 230.057922 
L 34.517905 229.304511 
L 34.348961 228.801475 
L 33.500491 228.734023 
L 32.974889 228.833487 
L 32.595705 228.697438 
L 31.946212 227.964606 
L 32.081367 227.985185 
L 32.19775 227.804549 
L 32.190241 227.222628 
L 32.051332 227.14603 
L 31.401839 227.09001 
L 30.429477 226.226845 
L 26.525009 225.291656 
L 26.040705 224.722311 
L 25.638995 224.73603 
L 25.411889 224.852038 
L 26.378591 223.365257 
L 28.195671 221.153041 
L 28.473488 220.018924 
L 28.33458 219.467871 
L 28.758815 218.149688 
L 29.382028 217.045295 
L 29.641074 216.976699 
L 30.151659 215.976343 
L 29.096702 213.973345 
L 28.616152 209.760419 
L 28.728781 209.173924 
L 27.369726 208.588573 
L 27.369726 207.931197 
L 28.165636 206.410656 
L 28.049253 205.133631 
L 27.230817 204.614589 
L 27.084399 202.546425 
L 26.066985 201.819309 
L 25.811693 201.474044 
L 27.028085 199.713417 
L 25.638995 198.74393 
L 26.434906 198.368939 
L 26.716478 198.056828 
L 27.313411 197.609812 
L 27.568703 196.05383 
L 27.767681 195.78059 
L 27.718875 195.543935 
L 30.166676 194.053119 
L 31.292965 193.082488 
L 31.871126 191.670557 
L 31.379313 190.771952 
L 31.792286 190.185458 
L 32.648265 189.903072 
L 33.500491 189.914504 
L 34.191281 189.590961 
L 34.938386 189.087925 
L 35.497776 188.416829 
L 35.614159 187.595966 
L 35.295044 187.096359 
L 34.686848 186.636767 
L 32.65202 185.66728 
L 31.8486 185.514082 
L 31.368051 185.208831 
L 31.506959 184.263352 
L 31.653377 184.112441 
L 32.299116 183.758029 
L 32.396728 183.332735 
L 32.344167 182.159747 
L 32.614477 181.765321 
L 33.278987 181.144529 
L 33.500491 180.640349 
L 33.999812 179.881222 
L 35.201187 178.837423 
L 36.049657 177.415203 
L 37.938068 176.714382 
L 39.240809 175.902665 
L 39.481084 176.044429 
L 39.942862 176.635497 
L 40.235697 176.824135 
L 40.994065 176.805843 
L 42.638446 175.818063 
L 43.269168 175.941536 
L 45.135053 176.873296 
L 46.505371 177.204842 
L 47.20367 177.090516 
L 47.642923 176.505165 
L 47.571591 175.59627 
L 46.944624 175.204131 
L 45.517991 174.957186 
L 44.219005 173.84136 
L 43.922416 173.258296 
L 45.198876 170.868875 
L 45.769529 170.155478 
L 47.214933 168.87045 
L 48.423816 167.314468 
L 49.189693 166.920042 
L 49.606419 166.956626 
L 50.387313 167.251588 
L 50.886634 167.226437 
L 51.479813 166.925758 
L 51.678791 166.51647 
L 51.750122 165.996285 
L 51.960363 165.37092 
L 52.669925 164.462025 
L 54.295535 163.054667 
L 55.136497 161.626731 
L 56.141539 160.439283 
L 55.947425 160.00787 
L 55.06892 159.127557 
L 54.832399 158.490759 
L 54.659702 157.658463 
L 55.358001 156.023596 
L 55.170286 155.679473 
L 54.408164 155.528563 
L 54.021471 155.102125 
L 53.056617 153.645607 
L 52.959006 153.291196 
L 53.105423 152.697842 
L 53.334435 152.183373 
L 53.492116 150.96694 
L 53.293138 150.579374 
L 52.714976 150.159796 
L 52.448421 150.253544 
L 52.185621 150.078625 
L 51.660019 149.420105 
L 51.044315 149.150294 
L 50.556256 148.73872 
L 50.195844 148.167088 
L 49.963078 147.420537 
L 49.463756 147.243331 
L 48.468868 147.163302 
L 47.406402 147.212463 
L 46.400251 147.458264 
L 46.302639 147.427396 
L 45.837106 146.544797 
L 46.445302 145.893136 
L 47.440191 145.351229 
L 48.149753 144.788744 
L 48.314942 144.093639 
L 48.26989 143.441979 
L 48.344976 142.911505 
L 48.88184 142.575385 
L 49.418705 142.730869 
L 49.805397 143.04641 
L 50.064444 142.840622 
L 50.207107 141.445841 
L 49.328602 141.731656 
L 48.427571 141.749949 
L 47.567837 141.4527 
L 46.835749 140.791894 
L 45.97977 139.227909 
L 45.439151 138.871211 
L 44.684538 139.401685 
L 44.5644 139.740091 
L 44.549383 140.606685 
L 44.414228 141.013687 
L 44.080096 141.374958 
L 43.719684 141.539588 
L 41.305671 141.585319 
L 40.693721 141.18289 
L 40.472218 141.237767 
L 39.879039 141.553307 
L 37.386187 141.372672 
L 36.425087 141.509863 
L 35.595388 141.486998 
L 34.806985 141.256059 
L 33.905954 140.611258 
L 33.586839 140.522083 
L 33.124031 140.539277 
L 32.970322 139.716541 
L 32.308147 138.341024 
L 32.071656 137.159952 
L 31.716919 136.508201 
L 31.637103 136.115711 
L 31.530682 134.03083 
L 30.750262 132.489675 
L 30.5522 131.56066 
L 29.38157 128.399131 
L 29.600324 128.280304 
L 29.623973 128.071456 
L 29.842727 127.78699 
L 29.907762 127.480919 
L 29.842727 127.174849 
L 29.623973 126.890383 
L 29.623973 126.587913 
L 29.819078 126.366462 
L 29.736306 126.299847 
L 29.623973 125.982974 
L 30.126517 125.037756 
L 30.416218 124.746089 
L 30.605411 124.076334 
L 30.274323 122.835848 
L 30.144253 122.331732 
L 30.144253 120.214443 
L 30.374832 119.688722 
L 32.08348 117.056515 
L 32.852076 116.287738 
L 32.520989 115.099464 
L 31.140472 112.30702 
L 31.637103 110.821677 
L 31.459735 110.067303 
L 31.190726 107.201042 
L 31.273498 106.565495 
L 30.906937 106.209013 
L 29.153947 103.848669 
L 28.045395 103.211322 
L 27.891676 102.775621 
L 27.619711 102.527164 
L 27.034396 102.617185 
L 26.271712 102.94126 
L 25.881502 102.736012 
L 25.934712 102.239098 
L 26.120949 101.634158 
L 26.156423 101.101235 
L 25.934712 100.872582 
L 24.666529 100.193826 
L 24.894152 99.290017 
L 24.666529 99.290017 
L 24.169898 99.563681 
L 24.169898 99.290017 
L 24.897108 99.030758 
L 25.621362 98.573452 
L 26.171203 97.934305 
L 26.384045 97.145723 
L 26.301273 96.650609 
L 25.979054 96.043869 
L 25.905151 95.498343 
L 26.103212 95.174268 
L 26.95458 94.893403 
L 28.417868 91.97313 
L 28.409 90.939691 
L 28.258237 90.091696 
L 27.873939 89.052856 
L 27.38322 88.082432 
L 26.901369 87.450487 
L 28.65436 87.558512 
L 29.52642 87.356865 
L 29.895938 86.697913 
L 30.049657 85.844516 
L 30.995593 84.438433 
L 31.34177 84.554753 
L 32.058841 84.410702 
L 32.790929 84.145465 
L 33.500491 84.035711 
L 33.95476 84.547894 
L 33.966023 85.119525 
L 33.857149 85.698017 
L 33.939743 86.226205 
L 34.360224 86.587476 
L 34.923369 86.720094 
L 36.06092 86.754392 
L 37.134649 87.250569 
L 39.248317 88.773396 
L 39.942862 88.649924 
L 40.348326 87.344316 
L 40.569829 84.22092 
L 41.369494 82.935892 
L 42.53708 82.517457 
L 43.411831 82.762116 
L 43.989993 82.624924 
L 44.297845 81.05408 
L 45.01867 80.765977 
L 46.449057 81.319317 
L 47.222442 81.065512 
L 47.132339 79.807922 
L 47.312545 72.760845 
L 47.868181 71.7502 
L 47.346333 71.146557 
L 47.766815 70.728122 
L 48.224839 71.265456 
L 48.679108 71.58557 
L 49.17843 71.752486 
L 50.590045 71.953701 
L 50.897897 71.811936 
L 51.070595 71.560418 
L 51.250801 70.959061 
L 51.660019 70.819583 
L 52.328284 70.716689 
L 55.774727 71.148843 
L 58.34642 70.666386 
L 58.556661 70.298255 
L 58.391472 68.674821 
L 57.783694 67.272006 
L 57.779521 67.264033 
L 57.35904 66.781576 
L 56.765861 66.550637 
L 55.568241 66.427164 
L 55.20032 66.070466 
L 55.365509 66.06132 
L 55.804762 64.998085 
L 55.770973 64.273255 
L 55.493155 63.674185 
L 55.316703 63.548426 
L 54.487004 63.072828 
L 54.295535 62.738995 
L 53.514641 59.604166 
L 53.668567 58.941074 
L 54.753559 57.237611 
L 54.922502 55.326074 
L 54.896222 53.35966 
L 55.388035 51.489281 
L 55.819779 50.453484 
L 56.131386 47.748522 
L 56.581901 46.879642 
L 57.17508 46.095363 
L 57.584298 45.240202 
L 57.460406 44.158674 
L 58.176058 44.19611 
L 64.863878 46.470353 
L 67.157752 46.614404 
L 68.576876 47.053418 
L 69.260158 47.444414 
L 70.927065 48.962668 
L 71.212392 49.532013 
L 71.249935 50.453484 
L 70.934574 51.873417 
L 71.069728 52.381026 
L 71.75301 52.980097 
L 72.470081 53.368806 
L 72.807967 53.272772 
L 73.08954 52.856624 
L 73.652684 52.296425 
L 74.335966 51.994603 
L 74.936653 52.04262 
L 75.533586 52.22097 
L 76.213114 52.307858 
L 78.522006 51.722507 
L 79.329179 51.658484 
L 85.234686 52.726292 
L 86.747668 52.737725 
L 92.097539 49.360524 
L 94.301311 48.404755 
L 100.319447 47.147165 
L 106.14236 44.531378 
L 107.156019 44.261568 
L 111.334551 41.657213 
L 113.771089 40.732313 
L 115.013761 40.605411 
L 117.397738 40.901516 
L 124.301888 42.935382 
L 126.096442 43.909443 
L 130.992043 48.962668 
L 133.203324 50.094499 
L 135.759999 50.4169 
L 141.665506 50.14023 
L 142.465171 49.907004 
L 144.361091 49.774385 
L 149.943728 51.617326 
L 151.895962 51.539584 
L 170.990311 47.961169 
L 178.784229 45.093864 
L 182.395861 42.974253 
L 183.702356 42.537526 
L 185.065165 42.288295 
L 186.424221 41.666359 
L 194.552271 36.374192 
L 195.325656 36.082659 
L 196.117812 35.927176 
L 196.947512 35.881445 
L 198.614419 35.406991 
L 203.472478 32.779771 
L 205.270785 32.106388 
L 212.081078 31.123182 
L 220.749747 32.824358 
L 223.15625 33.677233 
L 233.270323 33.208495 
L 252.503581 28.781778 
L 254.091648 27.851161 
L 256.828529 25.345127 
L 258.653117 22.99915 
L 259.178718 22.692755 
L 259.839475 22.176 
L 260.252447 22.660744 
L 260.274973 23.802864 
L 260.77054 23.884036 
L 260.77054 23.884036 
" clip-path="url(#p8af1601d2d)" style="fill: none; stroke: #000000; stroke-width: 2"/>
   </g>
  </g>
 </g>
 <defs>
  <clipPath id="p8af1601d2d">
   <rect x="0" y="-0" width="290.038771" height="266.112"/>
  </clipPath>
 </defs>
</svg>
