<?xml version="1.0" encoding="utf-8" standalone="no"?>
<!DOCTYPE svg PUBLIC "-//W3C//DTD SVG 1.1//EN"
  "http://www.w3.org/Graphics/SVG/1.1/DTD/svg11.dtd">
<svg xmlns:xlink="http://www.w3.org/1999/xlink" width="357.12pt" height="190.062011pt" viewBox="0 0 357.12 190.062011" xmlns="http://www.w3.org/2000/svg" version="1.1">
 <metadata>
  <rdf:RDF xmlns:dc="http://purl.org/dc/elements/1.1/" xmlns:cc="http://creativecommons.org/ns#" xmlns:rdf="http://www.w3.org/1999/02/22-rdf-syntax-ns#">
   <cc:Work>
    <dc:type rdf:resource="http://purl.org/dc/dcmitype/StillImage"/>
    <dc:date>2024-02-02T21:58:05.582244</dc:date>
    <dc:format>image/svg+xml</dc:format>
    <dc:creator>
     <cc:Agent>
      <dc:title>Matplotlib v3.8.2, https://matplotlib.org/</dc:title>
     </cc:Agent>
    </dc:creator>
   </cc:Work>
  </rdf:RDF>
 </metadata>
 <defs>
  <style type="text/css">*{stroke-linejoin: round; stroke-linecap: butt}</style>
 </defs>
 <g id="figure_1">
  <g id="patch_1">
   <path d="M 0 190.062011 
L 357.12 190.062011 
L 357.12 -0 
L 0 -0 
L 0 190.062011 
z
" style="fill: none"/>
  </g>
  <g id="axes_1">
   <g id="PatchCollection_1">
    <path d="M 206.393126 172.143045 
L 202.596682 174.22351 
L 201.889326 173.79008 
L 204.36955 171.931146 
L 206.017063 170.833123 
L 207.39596 170.33227 
L 206.393126 172.143045 
" clip-path="url(#p078a4dc6de)" style="fill: none; stroke: #000000; stroke-width: 2"/>
    <path d="M 217.478025 169.455778 
L 216.063313 173.183278 
L 214.702323 171.179867 
L 216.134944 167.433104 
L 217.352671 166.11355 
L 217.478025 169.455778 
" clip-path="url(#p078a4dc6de)" style="fill: none; stroke: #000000; stroke-width: 2"/>
    <path d="M 311.440007 166.421767 
L 308.700121 169.369092 
L 307.482394 168.482968 
L 308.574767 164.11014 
L 309.550739 162.087466 
L 311.69967 162.16452 
L 313.365091 163.590024 
L 311.440007 166.421767 
" clip-path="url(#p078a4dc6de)" style="fill: none; stroke: #000000; stroke-width: 2"/>
    <path d="M 326.32135 137.208575 
L 323.841126 140.724175 
L 322.345829 136.235765 
L 322.498045 130.967181 
L 323.706818 125.708228 
L 325.336424 121.316136 
L 327.03766 124.985845 
L 327.36 131.111658 
L 326.32135 137.208575 
" clip-path="url(#p078a4dc6de)" style="fill: none; stroke: #000000; stroke-width: 2"/>
    <path d="M 246.318462 117.376738 
L 246.506493 122.789799 
L 244.760487 125.949023 
L 241.080444 127.06631 
L 237.427262 124.667996 
L 236.961661 120.622648 
L 239.576193 118.782978 
L 242.235494 119.168249 
L 243.730792 117.954645 
L 243.766607 112.310421 
L 245.351443 108.188018 
L 246.076707 108.110964 
L 246.524401 109.526836 
L 246.318462 117.376738 
" clip-path="url(#p078a4dc6de)" style="fill: none; stroke: #000000; stroke-width: 2"/>
    <path d="M 36.206791 90.224747 
L 29.76 93.692188 
L 29.76 92.218525 
L 32.204408 89.772053 
L 33.70866 85.495542 
L 34.353339 80.506279 
L 34.281708 75.921552 
L 40.298713 75.016164 
L 40.334528 81.902888 
L 36.206791 90.224747 
" clip-path="url(#p078a4dc6de)" style="fill: none; stroke: #000000; stroke-width: 2"/>
    <path d="M 254.591844 85.611123 
L 252.022081 86.150503 
L 248.92404 83.010543 
L 243.945684 75.921552 
L 239.334438 73.070545 
L 229.583666 68.842193 
L 225.769315 64.459732 
L 226.790057 63.74698 
L 227.703352 63.380973 
L 228.428616 62.77417 
L 228.912126 61.377562 
L 236.218489 66.183821 
L 240.07761 67.773065 
L 245.449936 69.304518 
L 249.891059 71.163452 
L 254.108335 74.630893 
L 256.284127 79.523838 
L 254.591844 85.611123 
" clip-path="url(#p078a4dc6de)" style="fill: none; stroke: #000000; stroke-width: 2"/>
    <path d="M 177.615366 44.05962 
L 179.701619 44.078883 
L 181.716242 43.529872 
L 183.704002 43.308341 
L 197.215402 45.061325 
L 203.501024 43.770666 
L 206.35731 43.616558 
L 209.249412 45.061325 
L 211.550559 48.027913 
L 216.887069 59.605314 
L 213.117487 58.353183 
L 210.69994 55.059114 
L 208.71218 51.216033 
L 206.24091 48.297603 
L 208.022731 53.585451 
L 212.159422 61.820624 
L 213.753212 66.212716 
L 210.798433 66.809887 
L 208.613687 65.25917 
L 204.736658 59.605314 
L 203.4473 62.032523 
L 203.098099 62.995701 
L 201.728156 62.995701 
L 198.289867 56.532776 
L 192.639971 54.731633 
L 179.05694 56.388299 
L 173.586121 56.889152 
L 171.866977 55.540703 
L 169.915032 51.678358 
L 169.118137 48.933301 
L 168.536135 40.206907 
L 170.362726 40.361016 
L 172.24304 40.784814 
L 173.998 41.507198 
L 177.615366 44.05962 
" clip-path="url(#p078a4dc6de)" style="fill: none; stroke: #000000; stroke-width: 2"/>
    <path d="M 110.085228 40.804078 
L 108.303406 42.431849 
L 106.396231 42.248845 
L 108.187006 40.592178 
L 109.377872 39.821636 
L 110.085228 40.804078 
" clip-path="url(#p078a4dc6de)" style="fill: none; stroke: #000000; stroke-width: 2"/>
    <path d="M 67.912469 41.160453 
L 81.755162 54.018881 
L 84.674126 55.097641 
L 88.989894 55.078377 
L 93.269848 54.33673 
L 96.152996 53.296498 
L 99.30476 50.243223 
L 101.095536 47.719696 
L 103.477267 47.103263 
L 108.303406 49.915742 
L 108.303406 51.678358 
L 102.438617 57.351478 
L 100.66575 59.605314 
L 99.519653 56.1764 
L 99.30476 54.750897 
L 93.144493 57.987175 
L 93.96825 58.276129 
L 94.720375 58.439869 
L 95.436686 58.776981 
L 96.152996 59.605314 
L 92.884831 61.358299 
L 87.324473 60.549229 
L 84.127939 61.377562 
L 84.127939 57.987175 
L 75.415817 65.028007 
L 71.44925 65.615546 
L 68.97798 59.605314 
L 70.330015 59.605314 
L 71.708912 61.618357 
L 73.786212 62.629694 
L 75.326279 62.138473 
L 75.129293 59.605314 
L 73.786212 58.353183 
L 66.103786 54.750897 
L 66.820096 57.987175 
L 66.264955 60.433648 
L 64.456272 62.090314 
L 61.465677 62.995701 
L 60.96426 61.416089 
L 60.856814 60.33733 
L 61.035891 59.335624 
L 61.465677 57.987175 
L 61.832786 59.008144 
L 61.913371 59.162252 
L 62.155126 59.162252 
L 62.960975 59.605314 
L 63.820547 56.503881 
L 66.587295 51.379773 
L 67.473729 48.297603 
L 62.746082 51.967312 
L 61.465677 53.296498 
L 60.812044 50.204696 
L 63.113191 42.778593 
L 62.960975 38.742876 
L 67.912469 41.160453 
" clip-path="url(#p078a4dc6de)" style="fill: none; stroke: #000000; stroke-width: 2"/>
    <path d="M 115.206845 37.62559 
L 113.73841 38.242024 
L 113.326531 36.566094 
L 114.812875 33.994408 
L 115.976879 33.30092 
L 116.523065 34.370048 
L 116.514111 36.306036 
L 115.206845 37.62559 
" clip-path="url(#p078a4dc6de)" style="fill: none; stroke: #000000; stroke-width: 2"/>
    <path d="M 155.248582 18.390923 
L 155.749999 20.26912 
L 155.015781 23.909933 
L 156.931911 37.779698 
L 160.191122 42.595589 
L 167.049791 43.308341 
L 162.671346 46.823941 
L 158.856994 45.908922 
L 155.553014 43.308341 
L 152.687773 41.84431 
L 150.843275 41.247139 
L 148.219789 39.763845 
L 145.739565 37.683381 
L 144.360668 35.371753 
L 144.647192 32.270319 
L 148.031757 26.741677 
L 148.873422 23.909933 
L 147.208001 19.806795 
L 143.590634 21.94505 
L 138.343663 28.013072 
L 137.448275 29.881638 
L 135.317252 30.38249 
L 132.810167 29.881638 
L 130.840314 28.764351 
L 129.927019 26.53941 
L 130.285174 24.227782 
L 130.168773 22.147318 
L 127.697503 20.673655 
L 128.673476 18.853248 
L 130.070281 17.408481 
L 131.834194 16.37788 
L 133.848817 15.838501 
L 146.688676 15.838501 
L 147.995942 16.108191 
L 150.968629 17.321795 
L 152.687773 17.591485 
L 155.248582 18.390923 
" clip-path="url(#p078a4dc6de)" style="fill: none; stroke: #000000; stroke-width: 2"/>
   </g>
  </g>
 </g>
 <defs>
  <clipPath id="p078a4dc6de">
   <rect x="0" y="-0" width="357.12" height="190.062011"/>
  </clipPath>
 </defs>
</svg>
