<?xml version="1.0" encoding="utf-8" standalone="no"?>
<!DOCTYPE svg PUBLIC "-//W3C//DTD SVG 1.1//EN"
  "http://www.w3.org/Graphics/SVG/1.1/DTD/svg11.dtd">
<svg xmlns:xlink="http://www.w3.org/1999/xlink" width="169.004338pt" height="266.112pt" viewBox="0 0 169.004338 266.112" xmlns="http://www.w3.org/2000/svg" version="1.1">
 <metadata>
  <rdf:RDF xmlns:dc="http://purl.org/dc/elements/1.1/" xmlns:cc="http://creativecommons.org/ns#" xmlns:rdf="http://www.w3.org/1999/02/22-rdf-syntax-ns#">
   <cc:Work>
    <dc:type rdf:resource="http://purl.org/dc/dcmitype/StillImage"/>
    <dc:date>2024-02-02T21:58:05.618252</dc:date>
    <dc:format>image/svg+xml</dc:format>
    <dc:creator>
     <cc:Agent>
      <dc:title>Matplotlib v3.8.2, https://matplotlib.org/</dc:title>
     </cc:Agent>
    </dc:creator>
   </cc:Work>
  </rdf:RDF>
 </metadata>
 <defs>
  <style type="text/css">*{stroke-linejoin: round; stroke-linecap: butt}</style>
 </defs>
 <g id="figure_1">
  <g id="patch_1">
   <path d="M 0 266.112 
L 169.004338 266.112 
L 169.004338 0 
L 0 0 
L 0 266.112 
z
" style="fill: none"/>
  </g>
  <g id="axes_1">
   <g id="PatchCollection_1">
    <path d="M 154.879194 76.940669 
L 154.920643 129.297155 
L 154.763136 129.714287 
L 154.401146 129.698519 
L 152.844036 129.160262 
L 151.219225 128.912993 
L 149.684221 128.910843 
L 148.806879 129.102924 
L 147.052194 129.752273 
L 146.046359 129.849748 
L 143.990476 129.411114 
L 143.02609 129.531523 
L 142.676535 129.775209 
L 141.821299 130.819113 
L 140.767106 131.47778 
L 140.514266 131.79027 
L 140.417551 132.22317 
L 140.515647 132.622384 
L 141.025473 133.29216 
L 141.312855 133.684565 
L 141.471743 134.580824 
L 141.19956 136.502712 
L 140.497686 137.737981 
L 139.739165 138.085591 
L 139.475271 138.305625 
L 138.114354 139.86736 
L 137.955465 140.694098 
L 137.093321 141.491451 
L 137.202471 142.610252 
L 137.43735 143.612945 
L 137.300567 143.713286 
L 134.614656 144.440758 
L 134.044038 144.720996 
L 133.503816 145.136695 
L 133.252357 145.630157 
L 133.5577 146.14333 
L 134.073052 146.643959 
L 134.372869 148.291702 
L 134.40741 148.475541 
L 133.968048 149.034225 
L 134.128318 149.49866 
L 134.511033 149.824052 
L 135.503052 150.10859 
L 135.714443 150.824236 
L 135.696481 151.230975 
L 135.497525 151.467852 
L 134.524849 151.83553 
L 133.770473 152.484879 
L 131.262793 153.770319 
L 130.809173 154.270477 
L 129.394814 156.215413 
L 129.378234 156.339764 
L 129.901876 156.91565 
L 129.921219 157.333498 
L 129.921219 157.643122 
L 130.158862 158.180304 
L 131.011335 158.987333 
L 131.207528 159.524515 
L 131.275228 160.588846 
L 131.449315 160.919971 
L 132.082107 161.81874 
L 131.970194 162.397851 
L 131.497673 163.029282 
L 130.042804 164.511461 
L 128.371018 165.226749 
L 127.912312 165.673983 
L 127.525453 166.217616 
L 126.427048 168.345562 
L 125.902024 170.05745 
L 126.265396 170.520094 
L 126.790419 171.527804 
L 127.066748 171.803025 
L 127.536506 172.037393 
L 128.655636 172.149918 
L 129.807925 171.886881 
L 130.319132 171.597326 
L 130.748823 171.178044 
L 131.131537 170.5975 
L 132.806087 171.733503 
L 134.350762 172.432306 
L 133.404338 174.654142 
L 133.846463 175.362979 
L 134.873023 178.791774 
L 134.860588 178.96092 
L 134.516559 180.485386 
L 134.602221 180.450267 
L 134.82881 180.293305 
L 136.220124 179.917743 
L 136.398355 180.030268 
L 136.51165 179.829586 
L 136.57935 179.897675 
L 136.554481 180.35781 
L 136.31822 181.060913 
L 135.572134 185.333288 
L 135.634308 185.997689 
L 135.902346 186.649189 
L 136.311312 187.236542 
L 136.78936 187.705636 
L 137.249447 187.938212 
L 138.325745 188.31234 
L 138.707079 188.7671 
L 138.711223 189.184948 
L 138.843861 189.244436 
L 140.429986 189.11471 
L 140.622034 189.283139 
L 140.803029 190.267197 
L 141.153126 191.478084 
L 141.119425 192.127089 
L 140.767106 193.138383 
L 140.722894 193.569132 
L 140.427222 193.946127 
L 139.90358 195.898118 
L 139.167165 195.823937 
L 138.353378 195.556242 
L 138.016258 195.267045 
L 137.391756 195.122625 
L 136.790742 195.107933 
L 136.424607 194.945954 
L 135.540356 195.047011 
L 135.236395 194.76534 
L 135.11481 194.885391 
L 134.242994 194.893991 
L 133.834028 195.289263 
L 132.482783 195.712129 
L 131.981247 196.038953 
L 131.775382 195.951513 
L 131.07489 196.598354 
L 130.750204 197.325826 
L 130.374398 197.124069 
L 130.163007 197.154888 
L 129.042495 197.037704 
L 128.786892 197.152022 
L 128.458061 197.890244 
L 128.587935 198.180875 
L 128.444245 198.337478 
L 127.398342 198.65857 
L 126.424284 199.351639 
L 126.020845 199.232305 
L 125.435029 199.460939 
L 125.296865 199.603566 
L 124.869938 199.684198 
L 124.684798 199.815358 
L 124.455445 200.715559 
L 124.455445 201.267435 
L 124.655783 202.155094 
L 124.976324 202.648557 
L 124.965271 202.835263 
L 125.064749 202.934528 
L 124.607426 203.933279 
L 124.633677 204.5321 
L 124.234382 204.63925 
L 123.797784 205.405425 
L 122.5999 205.671328 
L 122.309756 205.594998 
L 121.885592 205.865202 
L 121.51393 206.367265 
L 120.463882 208.569032 
L 120.028665 209.019133 
L 119.383439 209.162836 
L 118.651169 208.82311 
L 118.459121 208.982581 
L 117.677111 209.991724 
L 117.527894 210.239351 
L 116.788716 210.734606 
L 116.440542 211.532675 
L 116.430871 211.780302 
L 116.382513 211.777435 
L 116.269219 211.776002 
L 115.856108 212.027571 
L 115.594977 211.876701 
L 115.256475 212.202451 
L 115.215026 212.467638 
L 114.98291 213.054274 
L 114.89034 213.70004 
L 114.701055 213.858793 
L 114.78119 213.961285 
L 114.799152 214.142973 
L 114.52006 214.09782 
L 114.43578 214.340788 
L 114.022669 214.615651 
L 113.856872 214.966128 
L 113.203356 215.667081 
L 112.904921 215.797166 
L 112.621685 216.74288 
L 112.527733 216.702743 
L 112.327395 216.643614 
L 112.194757 216.803084 
L 111.964023 216.994807 
L 111.788555 217.285079 
L 111.689077 217.18223 
L 111.560584 217.285079 
L 110.411058 217.758832 
L 110.585145 218.326834 
L 109.307126 218.240827 
L 108.899542 218.054838 
L 108.693678 218.581986 
L 108.288857 218.758658 
L 108.436692 219.557802 
L 108.096808 219.677136 
L 107.473688 220.599915 
L 107.169727 220.545444 
L 106.460945 220.900938 
L 105.091738 220.900938 
L 104.499014 220.504949 
L 104.30282 220.566946 
L 103.722531 220.900938 
L 103.337053 220.66012 
L 103.121517 220.418943 
L 102.987498 220.557628 
L 102.984734 220.702764 
L 102.465237 220.652236 
L 102.056271 221.142831 
L 101.981662 221.270766 
L 101.896001 221.252848 
L 101.748165 220.986944 
L 101.618291 221.147848 
L 101.563025 221.342438 
L 101.242484 221.36609 
L 100.703644 221.647761 
L 100.512977 221.554946 
L 100.17862 221.872454 
L 98.777636 221.839484 
L 96.844719 222.321479 
L 96.491019 222.076361 
L 95.06102 222.321479 
L 93.915639 222.273817 
L 93.2262 222.510335 
L 92.516036 222.333664 
L 92.362674 222.226514 
L 92.238326 222.383834 
L 91.675998 222.127965 
L 91.401051 222.206446 
L 90.689506 222.30392 
L 90.544433 222.484892 
L 89.63255 222.30392 
L 88.58112 222.720693 
L 88.000831 223.216664 
L 87.912406 223.372551 
L 87.257508 223.649922 
L 87.093092 223.982481 
L 86.854068 223.931235 
L 86.545962 224.400329 
L 86.547344 224.604237 
L 86.77117 224.792376 
L 86.990851 224.668025 
L 87.117962 225.034269 
L 87.340406 225.337442 
L 88.938966 226.043054 
L 89.06055 226.264521 
L 89.676762 226.703513 
L 89.947564 227.022096 
L 89.107526 227.707998 
L 88.561777 228.818199 
L 87.090329 230.657306 
L 86.783605 231.24 
L 86.348388 231.672183 
L 85.497296 232.815353 
L 85.263799 232.936838 
L 83.911172 233.506989 
L 83.456612 233.921254 
L 83.189955 234.46202 
L 83.180283 235.135022 
L 82.797569 235.720941 
L 81.714362 235.959609 
L 75.861728 236.118722 
L 74.615487 236.424045 
L 73.032126 236.933634 
L 72.476706 236.910698 
L 70.105809 236.592474 
L 69.848823 236.679914 
L 69.572495 237.073394 
L 69.035036 237.290561 
L 68.284805 237.408103 
L 68.065124 237.571515 
L 67.946303 237.885439 
L 67.786032 237.992231 
L 67.154622 237.796566 
L 66.708352 238.181445 
L 64.677065 239.009107 
L 64.418972 239.341817 
L 64.286334 239.660758 
L 64.073561 239.656458 
L 62.828702 240.847648 
L 62.758238 240.770242 
L 62.345128 240.593929 
L 62.100577 240.885634 
L 62.072944 241.066248 
L 61.518906 241.007477 
L 61.053293 241.229661 
L 59.956269 241.476929 
L 59.610859 241.773652 
L 59.521052 242.144914 
L 59.598424 242.383582 
L 58.642328 242.74911 
L 58.45857 242.622967 
L 58.165662 242.119112 
L 57.365691 241.297749 
L 56.394397 240.829013 
L 56.362619 240.353111 
L 56.446899 240.070006 
L 56.274194 239.752498 
L 55.671799 239.440008 
L 55.467316 238.978439 
L 55.518436 238.187896 
L 54.757152 238.476018 
L 54.458717 238.800692 
L 54.211403 239.268711 
L 53.895007 239.277312 
L 53.629732 239.213524 
L 53.426631 239.386254 
L 53.357549 239.677242 
L 53.303665 240.813962 
L 53.140631 240.927204 
L 51.684381 241.213176 
L 50.953492 241.744983 
L 49.055117 242.054607 
L 48.53562 242.281091 
L 47.423398 243.384841 
L 47.184374 243.483749 
L 44.953023 243.936 
L 44.440434 243.75467 
L 43.752376 243.093853 
L 43.167942 243.045832 
L 41.707547 243.150474 
L 41.246078 242.997095 
L 41.793208 242.264606 
L 42.153817 241.505598 
L 42.330667 240.682086 
L 42.340338 239.263694 
L 41.337267 239.090248 
L 40.707238 238.612195 
L 40.249915 237.472608 
L 39.431983 234.498932 
L 37.067994 229.469699 
L 36.295656 228.685606 
L 35.509502 227.45607 
L 35.233174 227.24858 
L 34.166547 226.914587 
L 34.134769 226.617148 
L 33.843243 226.051297 
L 33.656721 225.949164 
L 33.470199 225.645632 
L 32.632924 225.109167 
L 32.059543 225.100566 
L 26.119866 220.180633 
L 25.873934 219.738774 
L 25.742678 219.143179 
L 21.934873 214.627119 
L 20.746662 213.670296 
L 20.724555 213.46388 
L 21.536961 212.262297 
L 22.629839 211.286481 
L 23.048476 210.69877 
L 23.87608 208.948895 
L 27.33571 208.711302 
L 31.774925 209.731554 
L 33.45362 209.194372 
L 34.06845 209.217307 
L 35.256662 209.438774 
L 35.773396 209.257085 
L 36.280458 208.902308 
L 36.893907 208.833144 
L 37.688351 208.86683 
L 39.9349 209.61437 
L 40.689277 209.593585 
L 43.922318 208.767206 
L 43.34341 208.23074 
L 42.873652 208.07772 
L 41.982493 207.529428 
L 41.183904 206.805181 
L 40.686513 206.076993 
L 38.699713 204.083433 
L 38.232718 202.86214 
L 38.039288 202.642106 
L 37.733945 201.888832 
L 36.663173 201.411137 
L 36.57613 201.147026 
L 36.665936 200.467574 
L 36.819299 200.003855 
L 36.717057 199.669863 
L 35.696024 197.646201 
L 35.65872 197.124069 
L 35.871492 196.189465 
L 35.65043 195.737931 
L 35.285676 194.851346 
L 35.099155 192.24499 
L 35.260807 191.167041 
L 35.65872 190.478272 
L 35.588256 190.26433 
L 35.476343 190.099126 
L 35.54128 189.727148 
L 35.711222 188.735922 
L 35.832806 188.489729 
L 36.4504 187.797376 
L 36.628632 187.414647 
L 36.471125 186.965979 
L 35.954391 186.234924 
L 35.704314 185.336872 
L 35.832806 184.770662 
L 36.098082 184.595066 
L 35.932285 184.400117 
L 36.29842 183.918481 
L 35.882546 182.970975 
L 35.497068 182.826914 
L 35.376865 182.261421 
L 35.608981 181.784085 
L 35.461145 181.423574 
L 35.517792 181.361936 
L 35.900507 181.300298 
L 35.842478 181.145486 
L 35.476343 180.741972 
L 35.5247 180.380028 
L 35.357522 180.135626 
L 35.476343 179.734262 
L 34.973425 179.400987 
L 34.73302 179.427505 
L 34.344778 179.62532 
L 33.452238 178.78819 
L 33.477107 178.525153 
L 33.633233 178.409045 
L 33.490924 178.133107 
L 33.452238 177.86362 
L 33.543426 177.462256 
L 33.58902 176.373556 
L 33.109591 174.660592 
L 32.804248 174.568852 
L 32.837407 174.323734 
L 32.994915 174.035612 
L 32.398045 172.047427 
L 31.725186 172.124833 
L 31.38392 171.51562 
L 31.190491 171.514903 
L 30.987389 171.857496 
L 30.832645 171.628862 
L 31.028839 171.173744 
L 30.93765 170.945826 
L 30.724877 170.869854 
L 30.329728 170.977362 
L 29.745293 170.535145 
L 29.713516 170.377825 
L 29.521467 170.355606 
L 29.137371 170.575998 
L 29.058618 170.372091 
L 29.058618 170.236272 
L 28.863806 170.271033 
L 28.786434 170.082894 
L 28.786434 169.559329 
L 28.005807 168.614332 
L 28.233778 167.697646 
L 28.081797 167.262596 
L 27.877763 167.030979 
L 27.26801 166.063163 
L 27.037276 165.912651 
L 22.314825 165.956371 
L 16.197607 157.272577 
L 14.08784 147.079368 
L 14.52582 146.461554 
L 15.349279 146.087425 
L 16.424196 145.938347 
L 16.873229 145.558127 
L 16.99205 145.047821 
L 16.862176 144.435741 
L 16.697761 144.233268 
L 16.746118 144.161596 
L 17.010012 143.97489 
L 17.570267 143.38897 
L 18.297011 143.195455 
L 18.415832 142.870422 
L 18.399252 142.588034 
L 18.157465 141.713276 
L 18.24589 141.1528 
L 19.226856 139.027363 
L 26.379614 128.902242 
L 41.038832 113.021133 
L 41.153508 112.3639 
L 44.654588 71.290039 
L 45.273564 69.840829 
L 47.78677 65.287499 
L 47.757755 65.058865 
L 47.252074 64.413816 
L 43.764811 60.633828 
L 42.438435 59.523627 
L 42.090261 58.870694 
L 41.981112 58.245713 
L 42.091643 57.604247 
L 42.421855 57.068857 
L 42.960696 56.767117 
L 38.379172 49.971166 
L 37.282149 49.270213 
L 37.222738 48.683935 
L 37.01411 41.746073 
L 34.546734 28.404141 
L 44.803806 23.577907 
L 47.984345 22.176 
L 135.065071 66.788672 
L 154.879194 76.940669 
L 154.879194 76.940669 
" clip-path="url(#p81d5476a87)" style="fill: none; stroke: #000000; stroke-width: 2"/>
   </g>
  </g>
 </g>
 <defs>
  <clipPath id="p81d5476a87">
   <rect x="0" y="-0" width="169.004338" height="266.112"/>
  </clipPath>
 </defs>
</svg>
