<?xml version="1.0" encoding="utf-8" standalone="no"?>
<!DOCTYPE svg PUBLIC "-//W3C//DTD SVG 1.1//EN"
  "http://www.w3.org/Graphics/SVG/1.1/DTD/svg11.dtd">
<svg xmlns:xlink="http://www.w3.org/1999/xlink" width="101.82852pt" height="266.112pt" viewBox="0 0 101.82852 266.112" xmlns="http://www.w3.org/2000/svg" version="1.1">
 <metadata>
  <rdf:RDF xmlns:dc="http://purl.org/dc/elements/1.1/" xmlns:cc="http://creativecommons.org/ns#" xmlns:rdf="http://www.w3.org/1999/02/22-rdf-syntax-ns#">
   <cc:Work>
    <dc:type rdf:resource="http://purl.org/dc/dcmitype/StillImage"/>
    <dc:date>2024-02-02T21:58:05.645259</dc:date>
    <dc:format>image/svg+xml</dc:format>
    <dc:creator>
     <cc:Agent>
      <dc:title>Matplotlib v3.8.2, https://matplotlib.org/</dc:title>
     </cc:Agent>
    </dc:creator>
   </cc:Work>
  </rdf:RDF>
 </metadata>
 <defs>
  <style type="text/css">*{stroke-linejoin: round; stroke-linecap: butt}</style>
 </defs>
 <g id="figure_1">
  <g id="patch_1">
   <path d="M -0 266.112 
L 101.82852 266.112 
L 101.82852 0 
L -0 0 
L -0 266.112 
z
" style="fill: none"/>
  </g>
  <g id="axes_1">
   <g id="PatchCollection_1">
    <path d="M 36.957456 31.062487 
L 42.399293 29.15385 
L 45.131464 28.626897 
L 54.979884 28.441383 
L 53.86361 31.153537 
L 53.737579 32.028756 
L 53.841104 32.503354 
L 54.205694 33.397921 
L 54.268709 33.874796 
L 53.589042 35.173398 
L 53.503521 35.644582 
L 53.300972 37.103659 
L 52.738333 37.914005 
L 50.370752 40.16977 
L 49.745098 41.642505 
L 50.091683 45.61115 
L 50.060175 47.333134 
L 49.421018 49.786934 
L 48.813369 54.323504 
L 48.849378 55.336436 
L 49.200464 55.999963 
L 73.68648 72.325241 
L 74.244618 73.824152 
L 74.433664 85.641313 
L 74.775748 87.697907 
L 74.568697 90.006026 
L 74.298631 90.564846 
L 73.524441 91.757602 
L 73.344396 92.330079 
L 73.483931 93.226922 
L 73.925039 94.30359 
L 74.568697 94.962564 
L 75.315881 94.597226 
L 75.815504 95.846888 
L 76.112577 100.310618 
L 76.742731 102.066746 
L 77.791489 103.686299 
L 83.976009 110.195241 
L 84.871729 111.773822 
L 85.218314 112.834555 
L 85.452371 114.036416 
L 85.794455 136.172964 
L 86.01501 136.665773 
L 87.140286 138.098673 
L 87.324831 138.528885 
L 87.162792 139.307363 
L 85.73144 141.68377 
L 85.663923 142.057075 
L 85.663923 142.821896 
L 85.44787 143.896287 
L 85.573901 144.080663 
L 85.830464 144.167161 
L 86.051018 144.573471 
L 86.514632 148.352049 
L 86.330087 160.417322 
L 86.519133 204.455965 
L 85.726939 204.692695 
L 82.43663 204.669932 
L 83.282838 207.799779 
L 83.843181 208.583011 
L 84.489135 209.069927 
L 84.880731 209.545664 
L 84.970753 210.157975 
L 84.642172 212.00743 
L 84.669179 212.759731 
L 85.44787 215.483266 
L 85.272327 216.165004 
L 84.282084 217.50344 
L 83.921995 218.491333 
L 84.201064 218.986418 
L 84.763702 219.447359 
L 85.240819 220.329406 
L 85.173303 221.040735 
L 85.146296 221.447046 
L 85.285831 221.897744 
L 85.888979 222.607934 
L 86.595652 223.107572 
L 87.747935 223.225937 
L 87.918977 224.036282 
L 88.643656 224.638351 
L 88.918223 225.013932 
L 88.972236 225.456663 
L 88.86421 226.401308 
L 88.958733 226.785994 
L 89.246804 227.023863 
L 90.556626 227.792098 
L 91.677401 229.609685 
L 93.34281 236.149356 
L 92.438088 236.203986 
L 86.843213 237.540146 
L 85.942992 238.021573 
L 86.257599 238.940569 
L 86.242421 238.944387 
L 77.977399 240.347777 
L 71.07334 242.471681 
L 67.961552 243.846394 
L 67.344908 243.936 
L 67.45695 242.387424 
L 66.943824 241.688615 
L 63.338438 241.274337 
L 62.739791 240.965905 
L 62.271676 240.418466 
L 61.366953 239.139213 
L 60.367708 238.569012 
L 59.692542 237.594776 
L 58.553762 234.064309 
L 55.231946 234.050652 
L 54.340727 233.809369 
L 53.778089 233.380296 
L 52.36024 231.658311 
L 51.266472 230.96064 
L 49.114943 229.890802 
L 48.196717 228.941605 
L 47.508048 227.876319 
L 46.98592 226.830381 
L 46.715853 225.749162 
L 46.792372 224.576892 
L 47.400022 223.191793 
L 46.841884 222.642078 
L 46.445787 222.560133 
L 44.820888 222.557857 
L 44.438294 221.857909 
L 43.254503 220.876845 
L 43.011443 219.956101 
L 43.389536 217.732203 
L 43.344525 217.01746 
L 42.975434 216.306131 
L 42.340778 215.69951 
L 41.580092 215.277265 
L 40.832908 215.117928 
L 40.544837 214.730965 
L 39.284528 212.367078 
L 38.334794 211.70355 
L 38.19526 211.282444 
L 38.487832 210.356009 
L 39.406057 208.810434 
L 39.509583 208.068376 
L 38.996457 207.137389 
L 37.758653 206.172258 
L 37.25903 205.498488 
L 37.893686 205.300454 
L 38.532843 205.252653 
L 40.369294 204.770087 
L 40.931932 204.455965 
L 41.764637 202.939981 
L 41.796145 201.023377 
L 41.602597 199.040762 
L 41.751134 197.315363 
L 42.799891 194.674911 
L 43.204991 192.630837 
L 43.785633 191.014698 
L 43.839647 190.060948 
L 43.141975 187.172385 
L 42.853905 186.787698 
L 41.251511 187.384076 
L 40.387298 187.541138 
L 39.595104 187.431878 
L 38.222267 186.209531 
L 37.520094 184.270164 
L 37.304041 182.100896 
L 37.470582 179.542389 
L 37.628121 179.000641 
L 37.898187 178.529457 
L 38.339295 178.096969 
L 38.910936 177.839753 
L 39.608607 177.648548 
L 40.198252 177.34353 
L 40.445813 176.751704 
L 40.43231 175.554396 
L 40.567343 174.188645 
L 41.12548 173.291802 
L 42.38579 173.505769 
L 42.26426 172.645346 
L 42.358783 170.341779 
L 41.962686 167.824245 
L 41.967483 164.97345 
L 41.539582 162.058499 
L 41.553085 159.572832 
L 41.152487 157.929379 
L 40.990447 155.85799 
L 40.76089 154.77677 
L 40.976943 154.464923 
L 41.319027 154.19974 
L 41.557586 153.629539 
L 41.481067 153.020642 
L 40.661866 151.852925 
L 40.711378 151.282724 
L 40.936433 151.112005 
L 41.269515 151.071032 
L 41.634105 150.895761 
L 43.083461 149.585778 
L 43.81264 149.103212 
L 45.734612 148.247342 
L 46.432284 147.81144 
L 46.760865 147.141083 
L 46.589823 146.057588 
L 46.427783 145.907355 
L 45.905654 145.823134 
L 45.734612 145.672901 
L 45.635588 144.376576 
L 45.554568 143.414859 
L 43.884658 142.022931 
L 43.32202 140.355577 
L 42.561333 138.737162 
L 39.707632 137.390759 
L 38.573353 136.566756 
L 37.520094 135.591382 
L 36.777412 134.727544 
L 35.035484 133.534789 
L 33.302558 131.102614 
L 32.026494 128.34152 
L 31.654028 126.160871 
L 31.949975 125.743179 
L 32.49911 125.640747 
L 33.014487 125.841058 
L 33.480351 126.831227 
L 33.937214 126.322485 
L 34.227535 125.586117 
L 33.993477 125.413122 
L 34.45259 125.259475 
L 35.861436 125.542869 
L 36.340804 125.311829 
L 36.493842 124.730247 
L 36.556857 124.043957 
L 36.782377 123.487085 
L 37.740648 122.105728 
L 37.196014 119.952394 
L 35.086121 116.369574 
L 34.502102 115.002685 
L 34.949963 113.655144 
L 35.687019 112.287117 
L 35.916575 110.867874 
L 35.912074 110.179307 
L 36.187767 109.754786 
L 37.173509 108.872739 
L 37.700138 107.973619 
L 37.686635 107.271396 
L 37.146502 105.695091 
L 37.187012 104.826701 
L 37.542599 104.404457 
L 38.03322 104.117649 
L 38.474328 103.66126 
L 38.654373 103.106993 
L 38.72639 101.816358 
L 39.13149 99.583355 
L 38.861424 98.549937 
L 38.07373 97.859095 
L 36.736902 97.32759 
L 36.745904 97.284341 
L 37.033975 96.791533 
L 37.132999 96.339697 
L 37.05648 95.906071 
L 36.777412 95.514555 
L 34.466094 94.670066 
L 33.648018 94.535767 
L 31.895962 94.633646 
L 30.916972 94.808917 
L 30.256434 95.098001 
L 30.039256 95.446268 
L 29.906473 96.33742 
L 29.735431 96.711864 
L 29.4046 96.991843 
L 27.412861 97.689514 
L 26.602662 97.852266 
L 25.795838 97.763492 
L 25.59779 97.173943 
L 25.953377 96.670891 
L 25.647302 95.96753 
L 25.651803 95.340422 
L 27.466874 94.971669 
L 28.145416 94.706486 
L 28.702427 94.3218 
L 28.868968 93.865411 
L 28.486374 93.388536 
L 27.870848 93.356669 
L 26.7602 93.566084 
L 25.876858 93.066447 
L 25.449253 92.661274 
L 25.434624 92.380157 
L 25.745201 90.857344 
L 27.937239 91.10318 
L 28.983747 91.041721 
L 29.762438 90.53184 
L 30.35996 90.925632 
L 31.163407 91.062207 
L 31.868955 90.861897 
L 32.17053 90.255276 
L 31.796938 89.342499 
L 30.934976 89.176332 
L 29.168292 89.62703 
L 27.811208 89.48135 
L 27.116913 88.55833 
L 27.085405 87.27111 
L 27.708808 86.019171 
L 28.868968 87.241518 
L 29.600398 87.647829 
L 30.38134 87.549951 
L 30.835952 87.007064 
L 30.957482 86.236553 
L 30.858457 85.435313 
L 30.655907 84.787719 
L 29.825453 83.531228 
L 29.762438 82.711777 
L 30.696417 79.288295 
L 30.709921 78.787519 
L 30.512997 77.022286 
L 30.601894 76.407698 
L 30.95298 75.739618 
L 31.814942 74.864399 
L 31.841949 74.503614 
L 31.546001 73.632947 
L 30.95298 72.294511 
L 31.211794 71.333933 
L 30.95298 70.900307 
L 31.715918 70.754627 
L 32.388833 70.866163 
L 32.874953 70.738693 
L 33.059498 69.873718 
L 32.928966 68.982565 
L 32.57788 68.692343 
L 32.098512 68.576254 
L 31.546001 68.220021 
L 31.119521 67.081895 
L 31.347952 63.962292 
L 31.275935 62.479314 
L 31.591012 61.888626 
L 31.922969 60.491008 
L 32.991981 59.69432 
L 32.103013 58.957952 
L 31.685535 58.757642 
L 29.168292 59.083146 
L 29.550886 58.191993 
L 29.092898 57.48977 
L 28.351341 56.819414 
L 27.862971 56.020449 
L 28.049767 54.691118 
L 27.619911 54.259769 
L 27.174302 54.157337 
L 25.876858 54.611449 
L 25.458255 54.552267 
L 24.302596 54.098155 
L 24.070789 54.513571 
L 23.886244 54.773063 
L 23.553162 54.807207 
L 23.427131 54.652422 
L 21.208086 50.515334 
L 20.518292 49.782381 
L 18.213725 48.334685 
L 17.854762 47.901059 
L 17.346137 46.922271 
L 17.001802 46.510269 
L 16.605705 46.267849 
L 15.244121 45.817151 
L 14.267381 45.077369 
L 12.742631 44.813324 
L 12.264388 44.58456 
L 11.881794 44.265885 
L 11.43731 43.355384 
L 11.465442 42.436917 
L 11.881794 40.701275 
L 12.113601 38.859787 
L 12.444433 38.091552 
L 13.058834 37.311936 
L 14.323644 36.351358 
L 14.404664 35.883588 
L 14.148101 34.590677 
L 15.091083 30.165644 
L 15.302635 29.751366 
L 16.032939 29.143607 
L 16.337889 28.840865 
L 16.441415 28.288874 
L 16.565195 26.728504 
L 16.425661 25.365029 
L 15.768499 24.333887 
L 14.314642 23.779619 
L 13.495441 23.793277 
L 12.016828 24.183654 
L 11.219007 24.265599 
L 10.41781 24.060736 
L 9.532217 23.570204 
L 8.80979 22.904401 
L 8.48571 22.176 
L 37.006968 28.043039 
L 37.087988 28.282045 
L 36.781913 29.016137 
L 37.484085 29.192546 
L 36.957456 31.062487 
L 36.957456 31.062487 
" clip-path="url(#p0c1bb57a20)" style="fill: none; stroke: #000000; stroke-width: 2"/>
   </g>
  </g>
 </g>
 <defs>
  <clipPath id="p0c1bb57a20">
   <rect x="0" y="-0" width="101.82852" height="266.112"/>
  </clipPath>
 </defs>
</svg>
