<?xml version="1.0" encoding="utf-8" standalone="no"?>
<!DOCTYPE svg PUBLIC "-//W3C//DTD SVG 1.1//EN"
  "http://www.w3.org/Graphics/SVG/1.1/DTD/svg11.dtd">
<svg xmlns:xlink="http://www.w3.org/1999/xlink" width="357.12pt" height="255.730942pt" viewBox="0 0 357.12 255.730942" xmlns="http://www.w3.org/2000/svg" version="1.1">
 <metadata>
  <rdf:RDF xmlns:dc="http://purl.org/dc/elements/1.1/" xmlns:cc="http://creativecommons.org/ns#" xmlns:rdf="http://www.w3.org/1999/02/22-rdf-syntax-ns#">
   <cc:Work>
    <dc:type rdf:resource="http://purl.org/dc/dcmitype/StillImage"/>
    <dc:date>2024-02-02T21:58:05.703271</dc:date>
    <dc:format>image/svg+xml</dc:format>
    <dc:creator>
     <cc:Agent>
      <dc:title>Matplotlib v3.8.2, https://matplotlib.org/</dc:title>
     </cc:Agent>
    </dc:creator>
   </cc:Work>
  </rdf:RDF>
 </metadata>
 <defs>
  <style type="text/css">*{stroke-linejoin: round; stroke-linecap: butt}</style>
 </defs>
 <g id="figure_1">
  <g id="patch_1">
   <path d="M 0 255.730942 
L 357.12 255.730942 
L 357.12 0 
L 0 0 
L 0 255.730942 
z
" style="fill: none"/>
  </g>
  <g id="axes_1">
   <g id="PatchCollection_1">
    <path d="M 154.455725 79.423087 
L 155.79081 79.468539 
L 156.994156 78.925646 
L 157.462124 79.044325 
L 157.74723 79.945779 
L 157.686276 80.821981 
L 157.294992 81.175492 
L 156.04249 81.420425 
L 154.953187 81.975942 
L 152.998733 83.533916 
L 152.780479 83.362211 
L 151.693142 81.526478 
L 151.315622 81.054288 
L 150.025761 80.16546 
L 149.518468 79.448338 
L 149.231396 78.637787 
L 149.274653 77.882789 
L 149.844866 77.897939 
L 154.455725 79.423087 
" clip-path="url(#p3e491e386d)" style="fill: none; stroke: #000000; stroke-width: 2"/>
    <path d="M 155.35037 25.595971 
L 155.41329 26.431773 
L 154.658249 26.260067 
L 154.017251 25.661624 
L 152.904353 24.199603 
L 152.27122 23.568333 
L 152.231895 23.527931 
L 151.787522 22.520425 
L 152.400993 22.366395 
L 153.449005 22.805759 
L 154.331851 23.580958 
L 154.858807 24.416759 
L 155.35037 25.595971 
" clip-path="url(#p3e491e386d)" style="fill: none; stroke: #000000; stroke-width: 2"/>
    <path d="M 150.442606 24.603615 
L 157.698074 32.673769 
L 157.623356 33.577747 
L 156.874214 33.305039 
L 155.550927 32.181378 
L 154.791954 32.262181 
L 154.434097 32.880825 
L 154.52651 33.721677 
L 155.122284 34.47415 
L 158.602549 35.261975 
L 160.057575 36.085151 
L 159.64073 38.160766 
L 158.917149 38.726384 
L 158.724457 39.145547 
L 157.77869 39.438456 
L 156.663826 40.370211 
L 154.351514 42.226144 
L 153.016429 43.847245 
L 152.530765 44.253782 
L 150.863384 44.905253 
L 150.348226 45.410269 
L 149.048534 47.427807 
L 148.682811 47.574262 
L 146.063765 48.175231 
L 144.93317 48.892353 
L 144.331497 49.839258 
L 144.520257 51.228052 
L 145.515181 52.596645 
L 145.000023 54.296023 
L 146.895489 55.124249 
L 147.693787 55.351506 
L 148.527478 55.278279 
L 149.243193 55.061122 
L 149.966774 54.98537 
L 150.808329 55.331305 
L 151.818982 56.957456 
L 152.326275 59.217402 
L 153.006598 61.293018 
L 154.540274 62.376277 
L 156.144735 62.47728 
L 157.776724 62.345976 
L 163.199645 60.704674 
L 166.571766 60.40419 
L 167.3563 60.479942 
L 168.138868 61.666729 
L 167.505735 62.858567 
L 166.227672 63.790321 
L 165.057752 64.181708 
L 163.026615 63.732244 
L 162.519322 63.909 
L 162.255844 64.136257 
L 161.563724 64.497343 
L 161.538162 64.424116 
L 161.221596 64.214534 
L 160.879468 64.358464 
L 160.643518 64.671574 
L 158.637942 66.229548 
L 156.207655 67.037573 
L 155.198968 67.976903 
L 155.020039 69.229342 
L 155.067229 70.734289 
L 154.740832 72.426092 
L 154.229606 73.312395 
L 153.568946 73.986591 
L 152.808007 74.461306 
L 151.98808 74.754215 
L 150.371821 74.807242 
L 149.927449 75.031974 
L 149.671836 75.466288 
L 149.359202 76.544497 
L 149.026905 76.96871 
L 148.205012 76.680851 
L 147.915973 76.036956 
L 148.024117 75.186004 
L 148.380009 74.271925 
L 148.873538 73.587629 
L 150.690354 72.433668 
L 151.248769 71.347883 
L 150.863384 70.481781 
L 149.974639 69.880812 
L 149.026905 69.585378 
L 145.998878 69.135914 
L 144.547785 68.509694 
L 143.206802 68.340514 
L 142.522546 67.984478 
L 141.913008 67.330482 
L 140.89449 66.055317 
L 140.058833 65.641204 
L 139.183851 65.573027 
L 137.292318 65.694231 
L 136.468458 65.434148 
L 131.043571 61.926813 
L 129.710453 61.787933 
L 114.71582 67.065349 
L 114.082687 67.156252 
L 113.481014 67.0906 
L 113.237199 66.855767 
L 112.836084 66.108344 
L 112.529349 66.014916 
L 112.356319 66.229548 
L 112.084976 67.391084 
L 111.300442 68.524845 
L 110.688937 69.63588 
L 110.44119 70.885794 
L 110.89736 72.726577 
L 111.011403 73.347746 
L 110.979943 73.683582 
L 111.860823 75.269332 
L 111.904081 75.915752 
L 108.242921 77.203542 
L 106.414307 74.107795 
L 105.293544 72.873031 
L 104.766589 72.766978 
L 104.626985 72.870506 
L 104.617153 73.170991 
L 104.450022 73.660856 
L 103.718577 75.266807 
L 101.978444 80.486146 
L 101.553734 82.362279 
L 101.42986 84.293965 
L 101.69727 85.190368 
L 102.269449 85.839314 
L 102.937975 86.407457 
L 103.476728 87.066502 
L 103.759868 87.872003 
L 103.897505 88.796182 
L 103.708745 94.619014 
L 104.247498 95.795701 
L 105.745782 95.187157 
L 105.981732 94.831121 
L 106.213749 94.134199 
L 106.579472 93.975119 
L 106.791827 94.119049 
L 107.713999 95.068479 
L 108.502466 95.336137 
L 110.14232 95.071004 
L 111.695658 94.967475 
L 112.391711 94.722543 
L 113.040574 94.32863 
L 114.314705 93.230221 
L 114.975365 92.965087 
L 118.290465 92.758031 
L 119.847736 92.939837 
L 121.349952 93.439802 
L 122.938683 94.341256 
L 124.417304 94.788195 
L 127.358816 94.189751 
L 128.914121 94.356406 
L 130.060445 94.876573 
L 130.378978 94.624065 
L 130.972786 93.780688 
L 131.617716 93.207495 
L 132.404217 92.962562 
L 133.237907 92.970138 
L 134.016543 93.149418 
L 135.29264 93.889266 
L 135.908077 94.113999 
L 136.537277 93.906942 
L 136.85581 93.437277 
L 137.915619 91.167231 
L 138.503528 90.720292 
L 138.869251 91.197532 
L 139.042281 92.106561 
L 139.050146 92.939837 
L 138.645099 94.694767 
L 138.708019 95.381588 
L 139.364747 95.626521 
L 140.041137 95.464916 
L 143.434887 92.987813 
L 143.92645 92.803482 
L 144.317734 92.848934 
L 145.491586 93.096392 
L 145.723603 92.942362 
L 146.144381 92.417145 
L 148.370177 91.694973 
L 149.026905 91.61417 
L 149.549928 91.826277 
L 150.886979 92.864084 
L 151.551572 92.929736 
L 152.947611 92.672178 
L 153.616136 92.758031 
L 154.540274 93.454953 
L 155.067229 94.48266 
L 155.828169 96.86886 
L 156.237149 97.199645 
L 157.127861 97.575882 
L 157.493584 97.919293 
L 157.709871 98.585914 
L 157.430663 100.5176 
L 158.008741 101.522581 
L 159.015462 102.1185 
L 160.171618 102.320506 
L 161.217663 102.161426 
L 162.833922 101.376127 
L 164.05693 101.300374 
L 164.522932 100.767583 
L 165.240614 100.426697 
L 166.070372 100.813034 
L 167.008274 101.408953 
L 168.048421 101.694287 
L 169.271429 101.073117 
L 169.967482 99.724725 
L 170.527863 98.128875 
L 171.312398 96.772907 
L 172.566866 95.954781 
L 174.147732 95.525518 
L 175.765957 95.434615 
L 178.4027 95.856303 
L 178.813646 95.550769 
L 180.026823 94.167025 
L 180.557711 93.765538 
L 182.154307 92.833783 
L 182.940808 92.088885 
L 183.312429 91.957581 
L 184.393868 91.76315 
L 185.707323 91.152081 
L 186.403376 91.081378 
L 187.677507 91.856578 
L 188.35783 92.447446 
L 188.908381 93.179719 
L 189.136466 93.965019 
L 188.931976 94.694767 
L 187.96458 96.108811 
L 187.642115 96.86886 
L 188.432548 98.570764 
L 190.009481 99.287886 
L 191.853825 99.376264 
L 195.72734 98.563188 
L 196.482381 98.542988 
L 197.084054 99.083355 
L 197.426181 100.19944 
L 197.524494 101.461979 
L 197.382924 102.444235 
L 196.946416 103.176508 
L 196.435191 103.694149 
L 196.045873 104.302694 
L 195.967223 105.307675 
L 196.250363 106.279831 
L 196.804846 107.06008 
L 197.500899 107.590347 
L 198.232344 107.820129 
L 199.62445 107.658524 
L 201.012624 107.062605 
L 205.413094 104.090587 
L 206.832728 103.797678 
L 208.165846 103.07298 
L 208.861899 102.966927 
L 209.514694 103.474468 
L 209.939405 104.542576 
L 210.16749 105.78239 
L 210.23041 106.815148 
L 210.572537 107.549946 
L 211.362971 107.888306 
L 213.002824 108.15849 
L 214.701665 109.224073 
L 214.81964 109.527083 
L 214.925818 110.372984 
L 215.283676 111.174697 
L 215.676926 111.744102 
L 216.109501 111.711276 
L 217.674637 108.299894 
L 218.54372 105.668761 
L 219.003823 104.923863 
L 219.680214 104.67893 
L 220.509972 104.567827 
L 221.929605 103.848179 
L 222.594198 103.822929 
L 223.844734 104.143614 
L 224.485732 104.17644 
L 225.107067 104.077962 
L 226.298615 102.815422 
L 226.715461 102.633616 
L 227.289606 102.797746 
L 228.253069 103.421441 
L 228.874405 103.434066 
L 229.303047 103.161358 
L 230.419878 101.913969 
L 231.080539 101.714487 
L 231.717604 101.749838 
L 238.748919 103.585571 
L 239.326997 103.56032 
L 240.970783 103.209334 
L 241.757283 103.267411 
L 245.371253 103.956758 
L 247.239192 102.969452 
L 247.72289 102.876024 
L 248.190857 103.017428 
L 248.859383 103.343163 
L 250.192501 103.7194 
L 251.403712 103.625972 
L 255.26543 102.297781 
L 257.436171 101.891243 
L 257.699649 101.391277 
L 257.782231 100.704456 
L 258.073236 99.946932 
L 259.00524 99.305562 
L 263.161895 98.280379 
L 264.506811 98.1516 
L 268.010671 98.532887 
L 269.088176 99.083355 
L 269.060649 100.037835 
L 269.512887 103.825454 
L 269.418507 104.608228 
L 268.230891 108.01961 
L 267.932021 109.470268 
L 268.144376 110.860325 
L 269.040986 112.434712 
L 270.653312 114.021724 
L 271.003305 114.699708 
L 271.581383 117.159135 
L 272.006093 117.791667 
L 274.26335 119.528922 
L 275.517818 120.920241 
L 276.064436 121.295215 
L 276.449821 122.119653 
L 276.563864 122.937779 
L 276.367239 123.681415 
L 275.820621 124.281121 
L 274.994795 124.55383 
L 273.170114 124.561405 
L 272.304963 124.969205 
L 271.762278 125.53356 
L 271.23139 126.312547 
L 270.920723 127.197588 
L 271.030833 128.07884 
L 271.490935 128.803538 
L 272.599901 130.05219 
L 273.016746 130.742799 
L 273.134722 131.687179 
L 272.894839 133.833496 
L 273.036409 134.59102 
L 274.400987 136.890105 
L 274.660533 137.594602 
L 275.022323 139.628553 
L 275.356585 140.39744 
L 276.080166 141.191577 
L 276.732961 141.613265 
L 278.769998 142.537445 
L 279.918289 143.610603 
L 280.512096 143.972952 
L 284.165391 144.091631 
L 284.798524 143.936338 
L 285.301885 143.124525 
L 284.999082 142.360689 
L 284.515384 141.551401 
L 284.483924 140.610809 
L 284.774929 140.367139 
L 286.277145 139.85076 
L 286.544555 139.53765 
L 286.682193 138.300361 
L 287.217013 137.492336 
L 287.759699 137.14135 
L 288.408562 137.153975 
L 290.752333 137.979676 
L 291.491644 138.107193 
L 292.341064 138.083205 
L 294.991571 137.153975 
L 295.782004 137.262554 
L 301.200993 139.946713 
L 307.650297 142.436441 
L 308.342417 143.02731 
L 308.924428 143.716657 
L 309.565426 144.250711 
L 310.426644 144.370652 
L 311.299659 144.2949 
L 311.995712 144.446404 
L 312.60525 144.900919 
L 313.828259 146.514444 
L 314.500716 146.905832 
L 314.756329 147.198741 
L 314.917562 148.073681 
L 315.192837 149.466262 
L 315.184972 150.418217 
L 314.960819 151.31462 
L 314.520379 152.106233 
L 312.908053 153.940703 
L 312.546263 154.72474 
L 312.404693 155.608518 
L 312.412558 160.263501 
L 313.151868 165.874228 
L 313.883314 167.254183 
L 316.56528 168.795744 
L 317.037181 170.146662 
L 316.883813 173.229784 
L 317.080438 175.118543 
L 317.831546 175.676585 
L 317.752896 176.022521 
L 317.104033 177.080529 
L 316.828758 177.235822 
L 316.671458 177.48328 
L 316.781568 178.133488 
L 316.974261 178.500887 
L 317.249536 178.767283 
L 319.184327 179.855592 
L 319.648362 180.336619 
L 319.789932 181.216609 
L 319.66016 181.674911 
L 319.380952 182.18119 
L 318.523667 183.45888 
L 318.209066 184.74162 
L 316.781568 186.786934 
L 316.632133 187.717426 
L 317.001788 189.438268 
L 317.882669 190.829586 
L 319.030959 191.912845 
L 322.479764 193.97331 
L 323.14829 194.586904 
L 325.071283 197.187736 
L 326.156654 198.26847 
L 327.36 199.140885 
L 325.499926 199.768367 
L 324.607248 200.225406 
L 324.143213 201.066258 
L 324.048833 202.875477 
L 323.718503 203.465083 
L 320.17925 204.826101 
L 319.270842 204.972556 
L 318.562992 205.401819 
L 317.792221 207.039333 
L 317.017518 207.424408 
L 315.88889 206.765362 
L 314.146791 203.720116 
L 313.069286 202.535854 
L 308.192982 199.46662 
L 307.091882 200.096627 
L 302.895901 200.364286 
L 301.200993 199.851695 
L 300.371235 199.483033 
L 298.983061 199.70019 
L 297.075797 199.349204 
L 296.521315 198.394724 
L 296.147727 198.146004 
L 295.715152 198.177567 
L 295.274711 198.493202 
L 295.074154 197.856882 
L 294.625848 199.163611 
L 293.697778 199.293652 
L 292.592744 198.991905 
L 291.586024 199.008318 
L 290.968621 199.664839 
L 290.905701 201.338966 
L 290.205715 202.182343 
L 289.277645 202.588881 
L 285.050204 203.460033 
L 282.179478 204.533192 
L 281.377247 204.704897 
L 279.234033 205.74523 
L 277.602044 205.935873 
L 276.835206 206.171968 
L 275.388046 207.550662 
L 274.84536 207.679441 
L 274.26335 207.532986 
L 273.406064 207.452183 
L 273.028544 207.593588 
L 272.411141 208.087241 
L 272.002161 208.113754 
L 271.742616 207.910485 
L 270.908925 206.870153 
L 270.126357 206.807026 
L 268.517963 207.323404 
L 267.908426 206.947168 
L 267.74326 205.924511 
L 268.223026 204.967505 
L 269.025256 204.25417 
L 269.823554 203.957474 
L 271.286445 203.803444 
L 271.840928 203.52316 
L 272.497656 202.96133 
L 273.138654 202.184868 
L 273.390334 201.475321 
L 273.441457 199.019681 
L 273.685272 197.784917 
L 272.328558 197.617 
L 270.68084 197.654876 
L 268.038198 196.935228 
L 263.480428 195.215649 
L 261.781586 195.266151 
L 259.41422 196.604443 
L 258.785019 196.416324 
L 258.144022 196.021149 
L 257.239546 195.897421 
L 256.291813 195.998424 
L 255.521042 196.266082 
L 254.919369 196.726909 
L 253.063228 198.768436 
L 252.650315 198.967917 
L 251.828422 198.647232 
L 251.49416 198.768436 
L 250.043066 199.935022 
L 249.445326 200.683708 
L 248.79253 202.110378 
L 248.356023 202.784574 
L 247.585252 203.322416 
L 244.84823 203.603963 
L 242.134803 205.28819 
L 241.29718 206.315898 
L 240.35338 206.654258 
L 238.568024 207.001457 
L 237.05401 207.954674 
L 235.921449 209.555575 
L 234.147891 213.343194 
L 232.563092 215.902361 
L 232.331074 216.844216 
L 231.992879 217.308831 
L 226.32221 218.176195 
L 225.040215 218.840291 
L 222.413303 218.342851 
L 220.702664 218.703937 
L 216.852744 220.314937 
L 215.350528 221.377996 
L 214.973008 221.814835 
L 214.076397 223.047073 
L 212.782604 223.813435 
L 211.787681 224.935833 
L 200.749146 233.417574 
L 199.266593 234.056419 
L 197.398654 234.420031 
L 195.550378 234.420031 
L 193.765021 234.010968 
L 192.168425 233.139815 
L 190.886429 231.751022 
L 190.375204 230.90007 
L 189.954426 229.975891 
L 189.667354 228.978485 
L 189.407808 226.726114 
L 189.026356 225.746383 
L 186.867412 222.13552 
L 186.537082 221.254267 
L 186.419106 220.193734 
L 186.419106 218.192608 
L 186.285401 217.615628 
L 185.400588 216.042503 
L 185.321938 215.44406 
L 185.400588 212.494767 
L 185.919679 209.746218 
L 186.183156 209.305592 
L 186.045519 208.130167 
L 187.449422 205.668215 
L 187.480882 204.30341 
L 187.708967 203.689815 
L 187.811212 202.664633 
L 187.740427 200.604168 
L 187.453355 198.728034 
L 187.57133 198.02985 
L 187.999973 196.935228 
L 188.369628 194.975767 
L 187.834807 191.034118 
L 187.999973 188.894113 
L 188.13761 188.617617 
L 188.782541 187.560871 
L 188.884786 187.067218 
L 189.065681 185.559746 
L 189.561176 183.557358 
L 189.474661 183.022041 
L 189.065681 181.525932 
L 189.380281 180.650992 
L 190.784184 179.724288 
L 191.377992 178.858185 
L 191.527427 177.976933 
L 191.495967 175.749813 
L 191.377992 175.158944 
L 191.661132 174.820583 
L 190.504977 173.368663 
L 189.352753 172.568213 
L 187.988175 172.48236 
L 183.345856 174.108511 
L 182.653735 174.641303 
L 181.898695 175.068041 
L 181.084667 174.712005 
L 179.641438 173.518905 
L 179.23639 173.460828 
L 178.945385 173.550469 
L 178.744828 173.44694 
L 178.603258 172.820721 
L 178.650448 172.303079 
L 179.035833 171.195832 
L 179.291445 169.952231 
L 180.424006 167.785713 
L 180.943097 165.784587 
L 181.647015 164.397056 
L 181.89083 162.967861 
L 182.580984 160.858157 
L 182.78744 159.748385 
L 182.545591 157.576817 
L 181.641116 156.140047 
L 180.337491 155.258794 
L 177.20132 153.933127 
L 174.85165 151.471175 
L 173.384827 150.375291 
L 172.319118 149.827349 
L 171.847218 149.71372 
L 171.389082 149.731395 
L 170.81297 149.885425 
L 170.41972 149.55969 
L 170.171972 149.153152 
L 169.62732 147.8742 
L 168.850651 147.100263 
L 168.41611 146.843967 
L 167.930445 146.708876 
L 167.043666 146.739176 
L 166.766425 147.086375 
L 166.892265 148.196147 
L 166.49115 148.696113 
L 165.578809 148.468856 
L 164.00974 147.708807 
L 163.565368 147.784559 
L 162.945998 148.346389 
L 162.605837 148.324926 
L 161.646306 148.04338 
L 160.44296 148.03833 
L 159.827524 148.182259 
L 159.566012 148.526933 
L 159.094112 149.358946 
L 156.868316 149.596304 
L 156.166364 150.044505 
L 156.166364 150.375291 
L 156.923371 150.961109 
L 156.616635 151.534302 
L 154.919761 152.74634 
L 154.052644 152.693313 
L 153.698718 152.89532 
L 153.537486 153.329633 
L 153.568946 154.746203 
L 153.053788 156.412755 
L 152.672335 156.609712 
L 152.153245 156.749853 
L 151.68921 157.020037 
L 151.337251 158.221975 
L 150.218454 160.447832 
L 149.231396 163.142092 
L 148.763428 163.965268 
L 148.37411 164.36928 
L 147.076384 164.936161 
L 146.673303 165.235382 
L 144.992158 167.005463 
L 142.966919 169.545693 
L 142.046713 170.044396 
L 141.665261 170.740055 
L 140.530734 171.154168 
L 140.387197 172.022796 
L 140.520902 172.424283 
L 140.819772 172.820721 
L 139.929061 173.159081 
L 139.038349 173.310586 
L 138.183029 173.133831 
L 137.418158 172.488673 
L 136.975751 173.731012 
L 137.15468 175.233434 
L 137.685568 176.656316 
L 138.326566 177.676448 
L 138.763074 177.88603 
L 140.013609 178.279942 
L 140.273155 178.690268 
L 140.3754 179.388452 
L 140.629046 180.027297 
L 140.97314 180.544938 
L 141.336897 180.888349 
L 141.126508 181.452704 
L 141.20909 182.133213 
L 141.594475 183.557358 
L 141.639699 184.277006 
L 141.336897 185.711251 
L 140.67427 186.56094 
L 140.51697 186.732645 
L 140.530734 187.894182 
L 140.037204 188.562065 
L 139.911364 188.514089 
L 139.105201 188.562065 
L 138.456338 190.411686 
L 138.200726 190.570766 
L 136.875472 192.261306 
L 135.782237 192.708245 
L 134.637878 192.498664 
L 133.501385 192.076976 
L 132.455339 191.898957 
L 132.695222 192.261306 
L 131.157614 191.898957 
L 130.811553 191.569435 
L 130.469426 190.996242 
L 129.977863 190.897764 
L 129.1717 190.597279 
L 128.404862 189.122633 
L 127.779594 188.562065 
L 126.882983 188.511564 
L 125.286387 189.33979 
L 124.134164 189.743802 
L 123.343731 190.303107 
L 122.66734 189.867531 
L 121.51905 189.561997 
L 120.579182 189.68825 
L 118.970788 190.396535 
L 118.121367 190.564453 
L 112.934396 190.082163 
L 112.173457 190.426836 
L 111.518696 192.478463 
L 110.69287 193.301639 
L 108.868189 194.799011 
L 108.48477 195.6285 
L 107.448555 196.569092 
L 107.216538 197.344291 
L 107.137888 198.250794 
L 107.238166 200.289796 
L 107.594058 200.388274 
L 107.704168 200.604168 
L 107.601923 200.942529 
L 107.499678 200.97283 
L 107.448555 201.119285 
L 107.523273 202.029576 
L 107.833941 202.784574 
L 108.156406 203.51306 
L 108.408086 205.194763 
L 108.72072 205.637914 
L 108.413985 206.713598 
L 109.060881 207.016607 
L 109.758901 207.165587 
L 109.642892 207.790544 
L 108.333368 210.04544 
L 107.704168 210.67166 
L 106.168526 211.674116 
L 105.144109 212.805352 
L 104.562102 213.006134 
L 103.687117 213.199264 
L 102.932076 213.566663 
L 102.167204 213.641153 
L 97.168994 210.04544 
L 96.488671 208.308185 
L 95.802449 207.714792 
L 94.935332 207.131498 
L 94.180292 206.424476 
L 93.61991 204.64682 
L 93.028068 203.788293 
L 92.257298 203.063596 
L 91.504224 202.634332 
L 88.55288 202.194968 
L 88.446703 202.356573 
L 88.645294 202.937342 
L 88.891076 203.252977 
L 89.685441 203.939798 
L 89.819146 204.64682 
L 89.616622 205.081134 
L 89.193878 205.197288 
L 88.645294 204.93973 
L 88.139968 204.24912 
L 87.79784 203.465083 
L 87.369197 202.841389 
L 86.572865 202.634332 
L 85.735242 202.914616 
L 85.597605 203.467608 
L 86.047876 204.93973 
L 86.146189 205.982587 
L 85.984956 206.457302 
L 85.532718 206.421951 
L 83.672645 205.26799 
L 83.175183 205.220013 
L 82.390649 205.303341 
L 80.908095 205.083659 
L 80.219907 205.11901 
L 79.789298 205.637914 
L 80.090135 206.043189 
L 80.310355 206.639108 
L 79.449137 206.776725 
L 78.985101 207.482484 
L 78.623311 208.638971 
L 77.935123 208.745024 
L 76.511557 209.203326 
L 75.752584 209.305592 
L 75.56579 209.520223 
L 75.040801 210.459553 
L 74.702606 210.67166 
L 74.301491 210.704486 
L 72.49254 211.126174 
L 70.131072 211.30798 
L 70.675723 212.449315 
L 70.426009 213.177801 
L 69.6808 213.5654 
L 68.68981 213.673979 
L 67.938702 213.493436 
L 67.199391 213.194214 
L 66.462047 213.136137 
L 65.740433 213.673979 
L 65.45336 214.483267 
L 65.48482 215.46931 
L 65.740433 217.524725 
L 65.339317 218.225434 
L 64.425011 218.217859 
L 62.857908 217.678755 
L 61.862985 217.822684 
L 60.553462 219.070073 
L 59.377643 219.681143 
L 56.471524 222.175921 
L 56.015354 222.370352 
L 55.539521 222.348889 
L 55.193461 222.095118 
L 54.625214 220.87803 
L 52.979462 218.900893 
L 52.078919 218.41229 
L 51.666006 218.042366 
L 50.13233 215.569051 
L 48.41186 215.1461 
L 47.466093 214.649922 
L 46.602909 213.999714 
L 46.134941 213.343194 
L 46.09365 212.61092 
L 46.593077 208.770275 
L 47.310759 207.310779 
L 47.747267 205.654327 
L 47.945858 203.896872 
L 47.81412 201.838932 
L 47.059079 197.978086 
L 47.206548 195.925196 
L 48.272256 192.920352 
L 49.894413 190.044287 
L 51.854766 187.504057 
L 53.907532 185.502932 
L 56.679947 181.561283 
L 57.80071 179.320275 
L 59.420901 174.333243 
L 60.095325 173.631271 
L 61.280975 173.222208 
L 63.636544 172.79547 
L 64.234284 172.348531 
L 64.519391 171.732412 
L 64.989325 170.137824 
L 65.445495 169.207332 
L 66.928048 166.912035 
L 67.871849 164.212725 
L 68.493184 161.349285 
L 68.324087 159.465576 
L 67.403881 157.98083 
L 64.383719 155.256269 
L 62.411569 154.135134 
L 61.76074 153.460938 
L 60.352904 150.858843 
L 58.862486 149.415761 
L 58.500695 148.723889 
L 58.370923 148.013079 
L 58.292273 146.458893 
L 58.075985 145.713994 
L 57.151847 144.2949 
L 56.868707 143.648479 
L 56.768428 142.575321 
L 56.896234 139.767432 
L 56.813652 138.780127 
L 56.304393 136.951969 
L 56.202148 136.058091 
L 56.501018 135.32203 
L 57.462515 134.636471 
L 57.65914 134.337249 
L 57.686667 133.788045 
L 57.179374 132.409351 
L 57.309147 131.351343 
L 57.733857 131.08621 
L 58.408282 131.108936 
L 59.298993 130.924605 
L 59.943924 130.543318 
L 60.525934 130.024414 
L 60.997834 129.364106 
L 61.33603 128.55103 
L 61.379287 127.474084 
L 60.999801 126.489303 
L 59.894768 124.851789 
L 58.610805 122.0035 
L 58.007166 121.286377 
L 57.399595 121.181586 
L 56.790057 121.286377 
L 56.156924 121.753517 
L 55.523791 121.983299 
L 54.898523 121.86462 
L 54.01371 121.118459 
L 53.372712 120.897515 
L 52.826094 120.892465 
L 52.291274 121.036394 
L 51.770217 121.295215 
L 48.881794 122.27242 
L 47.859343 122.290096 
L 42.994838 121.498484 
L 42.297063 120.79576 
L 42.108058 119.604674 
L 42.540634 115.81453 
L 42.464326 115.135969 
L 42.121822 114.55199 
L 41.878007 114.473713 
L 40.985329 114.563353 
L 40.772974 114.334834 
L 40.305006 113.600036 
L 38.80279 112.996542 
L 35.70791 112.880388 
L 31.110815 111.242874 
L 30.039557 110.238088 
L 29.76 108.307469 
L 29.903536 107.269662 
L 30.442289 106.734345 
L 30.847337 106.600516 
L 31.189465 106.706569 
L 31.441145 106.615666 
L 31.728218 104.994565 
L 32.209949 103.350739 
L 32.25124 101.547832 
L 32.502921 99.58332 
L 32.978753 97.702136 
L 33.328746 97.257722 
L 33.906824 97.18702 
L 35.074777 97.277923 
L 35.40904 97.043091 
L 35.538813 96.866335 
L 35.275335 94.702342 
L 36.028409 93.972594 
L 39.0702 93.497879 
L 42.611419 90.9829 
L 44.025153 90.530911 
L 45.810509 90.568787 
L 58.811363 93.914517 
L 64.505627 94.088748 
L 67.61427 95.194733 
L 69.480243 95.328562 
L 71.36981 95.151806 
L 73.707683 94.535687 
L 74.45184 94.176396 
L 74.049811 93.257997 
L 74.564968 92.525724 
L 76.189092 91.498016 
L 77.105365 90.541011 
L 77.612658 89.578956 
L 77.821081 88.404794 
L 78.202533 80.526547 
L 78.595784 79.476114 
L 79.036224 79.50894 
L 79.543517 79.715996 
L 80.83731 78.577186 
L 81.462578 79.044325 
L 82.477164 80.680577 
L 82.988389 80.94066 
L 83.244002 80.6225 
L 83.593994 79.089777 
L 83.723767 79.011499 
L 84.266452 78.844844 
L 84.728522 77.90804 
L 84.738353 77.221218 
L 83.886966 75.428412 
L 83.519277 74.372929 
L 83.383606 73.45885 
L 83.645117 73.077563 
L 84.439483 73.620455 
L 85.214186 75.297108 
L 85.79423 77.410599 
L 86.665279 78.741316 
L 88.283504 78.07217 
L 88.155698 76.986386 
L 84.805205 72.421042 
L 84.616445 71.931177 
L 84.559424 71.471612 
L 84.64004 70.469156 
L 84.510268 70.097969 
L 83.833877 69.562652 
L 83.753261 69.123289 
L 84.24679 68.22436 
L 84.84453 68.699075 
L 85.709681 70.226748 
L 86.201244 70.072718 
L 87.550092 68.911182 
L 88.320863 68.666249 
L 91.089344 69.095513 
L 91.954495 68.956633 
L 92.265163 68.35819 
L 92.32415 67.646117 
L 92.202243 66.898694 
L 91.954495 66.214397 
L 90.180936 64.954383 
L 80.912028 66.737089 
L 79.567112 66.227023 
L 77.864338 65.174065 
L 76.881213 64.103431 
L 77.675578 63.555489 
L 81.340671 62.601009 
L 82.186159 62.525256 
L 84.390326 62.904018 
L 85.281038 62.787865 
L 87.361332 61.732381 
L 93.551091 60.788002 
L 94.418208 60.929406 
L 96.929111 62.176795 
L 100.350388 63.186827 
L 102.243888 63.247429 
L 103.673353 62.601009 
L 103.673353 61.444522 
L 100.904871 58.995195 
L 100.747571 57.55085 
L 101.746427 57.427121 
L 103.211284 57.977589 
L 104.436258 57.770532 
L 104.717432 55.376757 
L 104.475583 54.293498 
L 104.062671 53.366794 
L 102.702025 50.743236 
L 101.884064 47.9909 
L 100.354321 45.45572 
L 100.370051 44.445688 
L 101.732663 43.529085 
L 104.043008 43.339704 
L 104.589626 43.013969 
L 104.746926 42.352398 
L 104.485415 39.754091 
L 104.507043 37.956235 
L 104.774454 36.491689 
L 105.360396 35.219049 
L 106.329758 33.99691 
L 106.870477 33.555021 
L 107.478049 33.226761 
L 108.714821 32.830324 
L 109.403009 32.906076 
L 110.979943 34.158515 
L 112.195086 34.274669 
L 113.056304 35.059969 
L 114.538857 37.314864 
L 114.987163 37.708777 
L 115.946693 38.324896 
L 116.367471 38.819812 
L 117.456774 40.491414 
L 117.93654 40.918153 
L 119.108426 41.342366 
L 120.126944 41.036831 
L 121.035352 40.246482 
L 122.631948 38.266819 
L 123.385022 37.648175 
L 124.222645 37.239112 
L 131.236264 35.087745 
L 134.834503 32.38591 
L 138.782736 30.858237 
L 141.537454 29.239661 
L 143.649208 26.83326 
L 144.701153 21.679573 
L 146.132583 21.310912 
L 147.827492 21.997733 
L 149.243193 23.580958 
L 150.442606 24.603615 
L 150.442606 24.603615 
" clip-path="url(#p3e491e386d)" style="fill: none; stroke: #000000; stroke-width: 2"/>
   </g>
  </g>
 </g>
 <defs>
  <clipPath id="p3e491e386d">
   <rect x="0" y="-0" width="357.12" height="255.730942"/>
  </clipPath>
 </defs>
</svg>
