<?xml version="1.0" encoding="utf-8" standalone="no"?>
<!DOCTYPE svg PUBLIC "-//W3C//DTD SVG 1.1//EN"
  "http://www.w3.org/Graphics/SVG/1.1/DTD/svg11.dtd">
<svg xmlns:xlink="http://www.w3.org/1999/xlink" width="357.12pt" height="247.319463pt" viewBox="0 0 357.12 247.319463" xmlns="http://www.w3.org/2000/svg" version="1.1">
 <metadata>
  <rdf:RDF xmlns:dc="http://purl.org/dc/elements/1.1/" xmlns:cc="http://creativecommons.org/ns#" xmlns:rdf="http://www.w3.org/1999/02/22-rdf-syntax-ns#">
   <cc:Work>
    <dc:type rdf:resource="http://purl.org/dc/dcmitype/StillImage"/>
    <dc:date>2024-02-02T21:58:05.728277</dc:date>
    <dc:format>image/svg+xml</dc:format>
    <dc:creator>
     <cc:Agent>
      <dc:title>Matplotlib v3.8.2, https://matplotlib.org/</dc:title>
     </cc:Agent>
    </dc:creator>
   </cc:Work>
  </rdf:RDF>
 </metadata>
 <defs>
  <style type="text/css">*{stroke-linejoin: round; stroke-linecap: butt}</style>
 </defs>
 <g id="figure_1">
  <g id="patch_1">
   <path d="M 0 247.319463 
L 357.12 247.319463 
L 357.12 0 
L 0 0 
L 0 247.319463 
z
" style="fill: none"/>
  </g>
  <g id="axes_1">
   <g id="PatchCollection_1">
    <path d="M 43.676184 129.339728 
L 43.522773 129.339728 
L 43.468227 128.700667 
L 42.85799 126.386674 
L 42.520485 125.659921 
L 42.38071 125.255438 
L 42.343209 124.979206 
L 42.377301 124.265606 
L 42.331277 123.545429 
L 42.136956 122.302384 
L 42.090932 121.680862 
L 42.165934 121.088936 
L 42.382414 120.559491 
L 42.745488 120.197758 
L 43.250041 120.108969 
L 43.352316 120.282163 
L 43.379589 120.367663 
L 43.379589 120.493721 
L 42.771057 120.934377 
L 42.668782 122.019575 
L 42.950037 124.173528 
L 43.202313 126.419559 
L 43.676184 128.621743 
L 43.590956 128.958264 
L 43.599479 129.101861 
L 43.676184 129.339728 
" clip-path="url(#p32d12d8a9f)" style="fill: none; stroke: #000000; stroke-width: 2"/>
    <path d="M 52.089952 106.951768 
L 52.192227 106.96821 
L 52.282569 106.814748 
L 52.374616 107.402289 
L 52.415526 107.551367 
L 52.843373 108.204678 
L 52.732576 108.526949 
L 52.471777 108.838258 
L 52.14109 109.039952 
L 51.841085 109.039952 
L 51.730288 108.831681 
L 51.493352 107.976677 
L 51.346759 107.643445 
L 51.234257 107.283904 
L 51.351873 106.983557 
L 51.592217 106.757748 
L 51.841085 106.632786 
L 51.975746 106.820229 
L 52.089952 106.951768 
" clip-path="url(#p32d12d8a9f)" style="fill: none; stroke: #000000; stroke-width: 2"/>
    <path d="M 159.091749 20.88838 
L 163.598876 25.928559 
L 165.001671 27.16546 
L 166.473739 27.797483 
L 167.406771 27.956881 
L 168.021576 27.922774 
L 168.625557 27.765465 
L 169.233867 27.484952 
L 169.768575 27.430659 
L 170.272975 27.733446 
L 171.604331 29.05457 
L 171.900909 29.508402 
L 172.100071 30.024183 
L 172.349024 32.08174 
L 172.626119 32.561326 
L 173.227936 32.873858 
L 174.786596 33.14741 
L 175.622212 34.00635 
L 176.146095 34.198462 
L 177.228498 34.229089 
L 181.655528 33.578272 
L 183.473965 33.735582 
L 184.409162 33.626996 
L 185.359512 33.728621 
L 186.019778 34.420506 
L 186.602111 35.28919 
L 187.33598 35.923998 
L 188.749599 36.549061 
L 189.005046 36.900572 
L 188.933607 37.352316 
L 187.816567 38.001741 
L 187.623899 39.250475 
L 188.035213 40.574383 
L 188.100157 41.637965 
L 186.467893 42.20247 
L 186.231929 42.46767 
L 186.199457 42.823357 
L 186.431091 43.205495 
L 186.729834 43.334266 
L 187.816567 43.296679 
L 190.018176 44.096453 
L 190.635145 44.60597 
L 191.667758 45.975818 
L 192.953653 46.783249 
L 193.412592 47.466085 
L 193.451559 47.848919 
L 193.2091 48.199038 
L 192.88005 48.242194 
L 192.470901 48.065394 
L 191.747856 47.624091 
L 190.959866 47.384646 
L 190.30393 47.438939 
L 189.728091 47.822469 
L 189.189055 48.56447 
L 189.379558 49.504849 
L 190.02467 50.70277 
L 191.418805 52.609978 
L 191.609308 53.104877 
L 191.321389 53.444555 
L 190.455466 53.863584 
L 189.825508 54.545724 
L 189.660982 55.006517 
L 189.399041 57.167091 
L 189.544083 57.804683 
L 190.13291 58.369885 
L 194.440875 60.516537 
L 195.705122 61.418633 
L 196.841646 62.52537 
L 197.443462 62.945791 
L 198.173002 63.149041 
L 199.430755 63.118414 
L 201.959249 62.29567 
L 206.178457 62.047872 
L 207.644031 62.391726 
L 208.644171 63.399623 
L 208.919102 63.139296 
L 209.319591 62.472469 
L 209.399689 62.535115 
L 209.581533 63.020966 
L 211.192149 62.826068 
L 213.348296 64.315639 
L 214.199065 64.652533 
L 214.997879 64.626083 
L 215.720924 64.271092 
L 216.309752 63.641852 
L 216.708076 62.796834 
L 217.221135 62.511449 
L 217.424627 61.563413 
L 217.708217 60.99682 
L 218.17798 60.772688 
L 218.950816 60.857607 
L 220.987899 61.379653 
L 222.810666 62.143928 
L 227.493142 65.496159 
L 227.902291 65.931894 
L 229.616818 68.89433 
L 229.688256 69.444219 
L 229.688256 71.943078 
L 229.922055 72.476261 
L 230.581239 74.737068 
L 230.988223 76.541259 
L 231.217692 76.897642 
L 232.146394 78.01134 
L 232.578273 79.666574 
L 232.86078 80.235952 
L 233.763505 81.50696 
L 234.068742 82.358939 
L 234.521187 82.69444 
L 235.515916 82.986786 
L 237.247761 83.965448 
L 237.45017 84.207677 
L 237.645003 85.843421 
L 238.356142 87.39703 
L 238.534738 89.195652 
L 239.177686 90.571069 
L 239.259949 91.144623 
L 238.881107 92.702408 
L 238.939557 93.320511 
L 239.534879 95.553475 
L 241.26456 97.553955 
L 242.474686 98.759533 
L 260.998936 111.887248 
L 262.328128 113.148511 
L 264.579526 116.289139 
L 265.852433 117.599126 
L 275.096157 124.103122 
L 275.715292 124.220061 
L 276.256493 124.103122 
L 277.877933 123.288731 
L 278.510057 123.213556 
L 279.007962 123.523999 
L 280.829647 125.894784 
L 285.240441 129.634025 
L 287.931295 131.200163 
L 291.01398 132.295763 
L 292.421104 133.186721 
L 297.188008 137.567731 
L 305.541997 143.285177 
L 306.955615 143.762675 
L 308.391965 143.644345 
L 308.932084 143.335294 
L 309.945213 142.509765 
L 310.5427 142.26336 
L 311.250592 142.327397 
L 313.361278 143.361744 
L 314.74459 143.587268 
L 315.333417 143.901192 
L 316.631219 144.958509 
L 317.989635 145.351087 
L 318.673714 145.672667 
L 319.288519 146.266408 
L 320.262682 147.515142 
L 323.037964 148.725592 
L 324.639921 148.735337 
L 325.440899 148.95738 
L 326.199664 149.331165 
L 326.910803 149.846947 
L 327.36 151.13814 
L 326.590411 152.665995 
L 325.430075 154.206378 
L 324.700535 155.534463 
L 324.620437 156.591084 
L 324.787127 158.704326 
L 324.70703 159.77626 
L 324.248091 161.590892 
L 324.170157 162.552152 
L 324.455912 163.316427 
L 325.200605 164.0459 
L 325.282868 164.476065 
L 324.951653 165.032218 
L 324.243761 165.905079 
L 324.1983 166.398586 
L 324.716771 166.809263 
L 323.996973 167.368896 
L 323.499067 167.879805 
L 323.281504 167.920176 
L 323.021728 167.786533 
L 322.706748 167.307642 
L 322.494597 167.201145 
L 321.994527 167.267271 
L 320.550601 167.753122 
L 320.00074 167.697437 
L 318.409607 166.523181 
L 318.184467 166.4668 
L 317.249271 166.4668 
L 316.827134 166.246845 
L 316.464528 165.879325 
L 315.883278 165.078854 
L 315.502272 164.743353 
L 310.800312 162.936378 
L 310.253698 162.460272 
L 310.085926 162.202729 
L 309.570702 161.282536 
L 308.836832 161.038915 
L 308.652824 162.130339 
L 308.375729 162.367696 
L 307.152613 162.43939 
L 306.897166 162.5967 
L 306.464204 163.316427 
L 305.994441 164.421773 
L 305.89486 165.025258 
L 306.072374 166.775852 
L 305.959804 167.32226 
L 305.691368 167.701613 
L 305.102541 168.321108 
L 304.132708 169.69374 
L 303.390179 170.093279 
L 294.209234 170.336901 
L 292.659233 170.863819 
L 288.864327 172.969404 
L 288.253851 173.439942 
L 287.864186 174.124866 
L 287.768935 175.175222 
L 288.167259 177.223731 
L 288.253851 178.277567 
L 287.970262 179.189408 
L 284.610482 185.764402 
L 284.274937 187.38344 
L 284.377765 188.477649 
L 284.729546 190.064668 
L 284.63213 191.137995 
L 284.391836 192.13197 
L 284.020572 193.0633 
L 281.94777 196.241515 
L 281.253949 196.824815 
L 280.548222 197.097671 
L 278.622627 197.639206 
L 278.302235 197.860554 
L 278.055448 198.18631 
L 277.724232 199.269382 
L 277.516411 199.45175 
L 276.045425 199.089798 
L 275.266094 199.241539 
L 274.52573 199.624373 
L 272.87723 201.07218 
L 272.700798 201.500954 
L 272.704046 201.981236 
L 272.886972 203.593314 
L 270.307605 202.650847 
L 269.006556 202.964075 
L 267.038747 204.171045 
L 266.196637 204.397961 
L 263.188638 204.662464 
L 262.797891 204.88938 
L 262.507807 205.201215 
L 261.701416 206.203544 
L 260.007455 207.033249 
L 258.179276 207.431396 
L 253.620193 207.324202 
L 253.176408 207.425827 
L 252.852769 207.778034 
L 252.764012 208.244395 
L 253.343098 209.757632 
L 254.848721 211.308457 
L 255.487339 211.660664 
L 255.346626 212.093614 
L 254.764293 212.544661 
L 253.156924 213.09455 
L 252.601652 213.669496 
L 252.565932 214.070428 
L 252.683914 215.775778 
L 253.032448 216.073692 
L 253.106052 216.356293 
L 252.891736 217.202703 
L 252.676337 218.724293 
L 252.395995 219.033344 
L 251.982517 219.147498 
L 250.687963 219.329866 
L 249.283003 220.041241 
L 247.290176 221.675452 
L 245.979508 222.350772 
L 244.578878 223.806932 
L 242.712815 224.587913 
L 242.526642 224.555894 
L 241.684532 224.291391 
L 241.266724 224.373526 
L 241.038337 224.244058 
L 239.662603 222.904837 
L 239.096506 222.938248 
L 238.414592 223.603682 
L 236.376426 226.524355 
L 236.045211 226.709507 
L 235.825483 226.429691 
L 235.307012 225.047313 
L 235.312424 223.48396 
L 234.945489 222.584648 
L 234.638087 222.247755 
L 233.483162 221.711788 
L 232.906241 221.302504 
L 230.758753 219.0765 
L 229.584346 218.351204 
L 228.36123 218.326146 
L 225.841395 219.251907 
L 224.596631 219.35214 
L 221.771559 218.898308 
L 220.388247 218.313617 
L 219.424908 217.185998 
L 217.887443 215.792539 
L 217.208146 215.424963 
L 217.063104 215.107559 
L 217.136708 214.699667 
L 216.467782 214.142818 
L 216.66478 213.768337 
L 216.314081 213.502442 
L 216.136567 213.502442 
L 214.753256 213.836551 
L 213.958772 212.398489 
L 213.986914 211.517275 
L 214.335448 211.035601 
L 214.335448 210.407753 
L 214.469666 209.502874 
L 214.335448 209.305192 
L 214.456677 208.263885 
L 213.967431 205.965491 
L 213.415405 205.162236 
L 213.049553 204.810029 
L 212.625251 204.573368 
L 211.824272 204.353413 
L 212.066731 204.034617 
L 212.748645 203.384496 
L 212.880698 202.137154 
L 213.255209 201.921375 
L 213.776928 200.089342 
L 213.722808 199.277734 
L 213.408911 197.603011 
L 213.034399 196.81507 
L 212.988938 195.908798 
L 212.817919 195.467495 
L 212.52134 195.165405 
L 212.320013 195.074917 
L 212.475879 194.706004 
L 212.177136 193.934768 
L 212.298365 192.613644 
L 212.748645 190.444718 
L 212.588449 189.716637 
L 213.034399 188.335652 
L 212.921829 187.748176 
L 212.748645 187.333324 
L 212.577625 186.417307 
L 210.685584 186.108256 
L 195.328446 186.395033 
L 194.635708 185.995494 
L 194.204911 185.211729 
L 193.596601 183.55928 
L 193.15498 182.822847 
L 190.936054 180.030249 
L 189.968385 178.505179 
L 189.18256 176.781036 
L 188.561261 175.92488 
L 187.773271 175.574066 
L 186.054415 175.258054 
L 185.285908 174.793085 
L 183.911256 173.597252 
L 180.672705 172.57265 
L 180.475708 172.679843 
L 180.083878 173.239476 
L 179.884716 173.282632 
L 179.603291 173.05502 
L 179.209296 171.679603 
L 178.858598 171.291897 
L 178.54903 171.236212 
L 177.71125 171.495843 
L 177.364881 171.265447 
L 177.228498 171.120666 
L 176.884294 171.027394 
L 176.823679 170.834585 
L 177.04449 170.135739 
L 176.527101 169.50302 
L 175.215228 168.385145 
L 174.970605 168.014841 
L 174.509501 165.59394 
L 174.736806 164.564465 
L 174.611247 164.270031 
L 174.676191 163.672115 
L 174.578775 163.316427 
L 173.753984 162.332893 
L 173.271232 162.202729 
L 172.095742 162.75401 
L 171.647627 162.710854 
L 168.852861 160.651905 
L 167.937148 159.79575 
L 167.049578 159.609205 
L 166.755164 159.392034 
L 165.928208 159.003632 
L 164.302438 158.62219 
L 163.04685 157.90664 
L 162.932115 158.093184 
L 162.88016 158.494115 
L 162.6009 158.849802 
L 162.165774 158.943771 
L 161.481695 158.856763 
L 161.018426 159.254214 
L 160.546499 159.305723 
L 160.072406 159.233332 
L 159.167517 158.853283 
L 157.773381 157.720095 
L 157.364233 157.752114 
L 157.039512 157.992255 
L 155.950614 159.446327 
L 153.761995 159.559089 
L 152.945863 159.027298 
L 150.956405 158.638896 
L 150.599212 158.335413 
L 150.497466 158.029146 
L 150.441181 157.164638 
L 150.064505 155.93261 
L 150.06234 155.746066 
L 149.902145 155.563697 
L 149.211571 155.307547 
L 148.505844 155.245597 
L 147.124698 154.914968 
L 143.840686 153.308459 
L 143.115476 153.109386 
L 141.764637 153.113562 
L 141.130348 152.347199 
L 140.610795 152.411236 
L 139.798992 151.828633 
L 139.169034 151.9052 
L 138.147245 151.927474 
L 136.729296 151.566914 
L 135.716167 151.773644 
L 132.702756 150.555537 
L 132.172379 149.83929 
L 132.637812 147.968277 
L 132.533901 147.497044 
L 132.085786 146.849011 
L 131.843328 146.043668 
L 130.912461 144.915353 
L 130.53362 143.982631 
L 129.962111 142.914873 
L 129.895002 142.539696 
L 129.663368 142.387258 
L 128.985783 142.203498 
L 128.756314 142.232733 
L 128.210279 142.612896 
L 128.145838 142.683781 
L 127.474748 143.70003 
L 126.126074 144.635536 
L 125.699607 144.567322 
L 124.868321 144.219292 
L 121.391642 143.512789 
L 120.675091 143.094457 
L 119.653302 142.378906 
L 118.650997 142.552225 
L 116.633397 143.361744 
L 116.087866 143.016498 
L 115.795617 142.835522 
L 115.438424 142.746426 
L 113.51824 142.809072 
L 112.756228 143.104202 
L 112.050501 143.605366 
L 110.729969 144.847139 
L 110.597916 145.214659 
L 111.16726 145.878702 
L 111.266841 146.346455 
L 111.193238 146.846227 
L 110.983252 147.270824 
L 110.654201 147.519318 
L 108.519702 147.777557 
L 107.766349 147.461545 
L 106.91991 147.351567 
L 103.601261 147.888926 
L 103.309012 147.79287 
L 102.386805 147.375233 
L 101.012153 147.258295 
L 100.193856 146.776621 
L 98.897137 146.485667 
L 98.273672 146.484275 
L 94.132397 147.368273 
L 92.801041 147.426742 
L 92.292312 147.636256 
L 89.869893 149.443927 
L 89.631764 149.477338 
L 88.222475 150.063422 
L 88.031972 150.489411 
L 87.77436 150.592428 
L 86.159415 150.965517 
L 85.979736 151.170159 
L 85.59873 151.868308 
L 84.825894 152.147429 
L 84.550963 152.794766 
L 83.572471 153.907768 
L 80.427007 156.115674 
L 79.526447 157.260695 
L 78.99607 159.626607 
L 79.069673 159.773476 
L 79.411712 160.177887 
L 79.43769 160.36652 
L 79.346768 161.398083 
L 78.898653 162.680227 
L 78.368276 163.135451 
L 76.697045 164.228268 
L 76.181821 164.796254 
L 75.867924 164.947995 
L 75.404655 164.954956 
L 74.129584 164.66957 
L 73.655492 164.744745 
L 70.111703 166.849634 
L 69.364845 167.103 
L 67.96205 167.061237 
L 66.808208 167.875628 
L 66.392566 167.898598 
L 60.677587 167.379748 
L 60.382696 164.001384 
L 60.176443 162.931533 
L 59.661662 161.337717 
L 59.564501 160.151672 
L 58.816194 156.554077 
L 58.511076 148.376728 
L 58.797444 147.484454 
L 59.010515 146.171255 
L 59.528705 144.118149 
L 59.446886 143.384818 
L 59.68723 142.539679 
L 59.723026 141.383231 
L 59.583251 139.192008 
L 59.249155 138.304119 
L 59.204836 137.754943 
L 58.860513 135.525355 
L 59.051425 133.351671 
L 59.288361 132.269762 
L 59.615638 131.378584 
L 60.595767 129.807788 
L 60.953727 128.838783 
L 60.74577 128.034202 
L 61.059411 127.777701 
L 61.763399 125.922999 
L 62.123064 125.004417 
L 61.916811 125.074571 
L 61.884424 124.512242 
L 61.604874 124.236009 
L 60.868499 123.925796 
L 60.646905 123.558583 
L 60.319627 123.436909 
L 60.055418 122.792368 
L 60.019622 122.499693 
L 59.780982 121.976825 
L 59.545751 121.79267 
L 58.730965 121.76417 
L 58.030386 121.597554 
L 57.810497 121.687439 
L 57.609357 121.906671 
L 57.380944 121.680862 
L 57.201964 121.275283 
L 56.658206 119.74066 
L 56.455362 119.931392 
L 56.518431 120.355605 
L 56.872982 121.213898 
L 56.535477 121.033032 
L 56.232063 120.626357 
L 56.088879 120.125412 
L 56.312178 119.39537 
L 56.158766 118.637923 
L 56.2832 118.468019 
L 56.872982 118.086555 
L 56.250813 118.024074 
L 56.245699 117.455167 
L 56.716161 116.230757 
L 55.703645 116.916953 
L 55.362731 117.343359 
L 55.657622 117.534091 
L 55.860466 120.493721 
L 54.762722 118.521731 
L 54.738858 117.980228 
L 54.595673 117.579033 
L 54.142257 117.534091 
L 54.322942 116.763491 
L 54.285441 116.3897 
L 54.070665 116.230757 
L 53.954754 116.409431 
L 53.428042 117.534091 
L 53.351336 116.903799 
L 53.450201 116.105795 
L 53.857594 114.57446 
L 53.284858 115.126925 
L 53.71441 113.838938 
L 53.141673 114.021996 
L 53.371791 113.443224 
L 53.310426 113.222896 
L 53.05474 113.357724 
L 52.712121 113.838938 
L 52.55871 113.639436 
L 52.321774 113.778649 
L 51.413237 113.838938 
L 51.016072 114.173266 
L 50.82516 114.153535 
L 50.840501 113.639436 
L 50.697317 113.639436 
L 50.310379 114.173266 
L 50.024011 114.356325 
L 49.695029 114.373863 
L 49.797303 114.20067 
L 49.983101 113.639436 
L 49.367751 113.672321 
L 49.112065 113.838938 
L 48.825697 113.470628 
L 47.681929 113.838938 
L 47.681929 113.639436 
L 47.75693 113.337993 
L 46.764869 112.994895 
L 46.536457 112.918164 
L 46.115427 112.940087 
L 44.678473 113.470628 
L 45.680761 114.021996 
L 45.162571 114.974559 
L 45.143821 115.860255 
L 45.394393 116.981627 
L 45.339847 117.640418 
L 45.138707 117.960497 
L 44.920522 117.903497 
L 44.272785 113.757822 
L 43.396635 112.417219 
L 43.323338 111.953543 
L 43.717094 111.17527 
L 44.320513 110.603075 
L 44.583017 109.704224 
L 45.005751 109.36003 
L 45.271664 108.84922 
L 46.033608 106.753363 
L 46.60123 105.600203 
L 47.317151 104.830699 
L 48.109777 104.992931 
L 47.347833 105.52128 
L 46.657481 106.586747 
L 46.406909 107.452713 
L 45.96372 107.919677 
L 46.08304 108.597103 
L 46.860325 108.701238 
L 49.152975 108.246332 
L 50.477427 108.303333 
L 50.896752 108.448026 
L 51.331418 109.20876 
L 51.556421 109.575974 
L 51.847903 109.789725 
L 52.202454 109.904821 
L 53.070081 109.958533 
L 53.627477 110.138303 
L 53.699069 109.595704 
L 53.504747 109.276722 
L 53.284858 109.224106 
L 53.555885 108.536814 
L 53.814979 108.628892 
L 54.428625 109.408261 
L 54.827495 109.398396 
L 55.437732 108.805374 
L 55.860466 108.673834 
L 56.716161 109.039952 
L 56.95821 108.790027 
L 56.895141 108.51818 
L 56.44343 108.102735 
L 55.976377 107.9131 
L 55.093409 107.702637 
L 54.716698 107.367212 
L 55.054203 107.254308 
L 55.250229 107.060288 
L 55.268979 106.768709 
L 55.079772 106.365323 
L 54.798518 106.084706 
L 54.517263 106.025513 
L 53.511566 106.136225 
L 53.439974 105.968513 
L 53.361563 105.159547 
L 52.967807 104.561044 
L 52.712121 104.409774 
L 52.843373 105.712012 
L 52.712121 105.712012 
L 51.950178 104.518294 
L 51.404714 103.982272 
L 50.840501 103.855118 
L 51.126869 104.609275 
L 50.542201 104.242062 
L 50.554133 104.753968 
L 50.947889 105.269163 
L 50.983685 105.712012 
L 50.267765 105.231894 
L 50.185945 104.269466 
L 50.542201 102.199917 
L 50.037648 102.380783 
L 49.539913 102.199917 
L 49.539913 102.017954 
L 50.235378 101.67376 
L 51.331418 100.147907 
L 51.996201 99.424441 
L 51.697901 98.889516 
L 52.067793 98.723995 
L 52.788827 98.595745 
L 52.785418 98.395148 
L 52.55871 98.155089 
L 53.116105 97.520412 
L 53.41611 97.161968 
L 53.571226 96.666504 
L 53.458724 96.730081 
L 53.284858 96.850659 
L 52.925193 96.494407 
L 52.614961 96.423157 
L 51.841085 96.482349 
L 51.486534 96.361772 
L 50.697317 95.730384 
L 49.960942 95.619672 
L 49.265476 95.929885 
L 48.384213 96.915332 
L 47.941024 97.109353 
L 47.460335 97.41847 
L 47.296696 97.362565 
L 45.148935 95.870693 
L 44.790975 96.007712 
L 44.172215 96.482349 
L 42.66026 96.666504 
L 43.05572 96.07677 
L 43.250041 95.929885 
L 41.799451 96.394657 
L 41.011938 96.494407 
L 40.359087 96.298195 
L 40.019877 95.501287 
L 39.728395 95.218478 
L 39.360208 95.563768 
L 39.356799 95.848769 
L 39.508506 96.20831 
L 39.938058 97.079756 
L 40.198857 98.830323 
L 41.011938 99.792751 
L 41.801155 101.263797 
L 42.66026 102.199917 
L 41.66138 101.649645 
L 41.944339 101.854627 
L 42.520485 102.584669 
L 42.377301 102.752381 
L 41.431263 101.723088 
L 40.832958 100.302465 
L 40.54659 99.937444 
L 39.803397 99.618462 
L 39.554529 99.181094 
L 39.411345 98.617668 
L 39.29373 97.574124 
L 39.11134 97.28693 
L 37.094832 95.685442 
L 36.370388 94.941149 
L 36.060156 94.357993 
L 36.380616 92.54056 
L 36.685734 91.659248 
L 36.470958 91.155015 
L 35.903336 90.396472 
L 36.164135 90.15751 
L 36.070384 89.892239 
L 35.627195 89.460352 
L 35.233439 88.424482 
L 35.296508 87.386419 
L 36.020951 82.748568 
L 36.307319 81.857391 
L 36.772667 80.966213 
L 38.030642 79.246339 
L 38.671561 78.073448 
L 38.777244 77.102251 
L 38.589741 76.944404 
L 38.044278 76.812865 
L 37.928367 76.635287 
L 38.030642 75.717802 
L 38.639174 75.422935 
L 38.777244 75.448147 
L 38.790881 74.903355 
L 38.647697 74.51093 
L 39.140318 72.488516 
L 39.932944 70.448564 
L 40.099992 69.51902 
L 39.799987 67.651165 
L 39.78976 66.569255 
L 40.72557 67.220374 
L 40.815912 67.532779 
L 40.662501 68.425053 
L 40.877277 68.943537 
L 41.790928 70.08135 
L 41.954567 70.53516 
L 42.377301 71.936052 
L 43.098335 72.488516 
L 43.870506 72.443574 
L 44.0921 72.304361 
L 43.764822 72.680344 
L 42.893786 73.066192 
L 43.171631 73.652637 
L 43.676184 74.144813 
L 43.788686 74.953779 
L 44.029031 75.063395 
L 45.356893 75.100664 
L 45.823945 74.895682 
L 46.769983 73.912427 
L 47.107488 73.79185 
L 46.667709 74.925279 
L 46.901235 75.08751 
L 48.650126 74.767432 
L 48.754105 73.876254 
L 49.287636 73.302963 
L 49.539913 73.408194 
L 49.562072 73.561656 
L 49.396729 74.310333 
L 49.577413 74.835393 
L 49.88935 75.254126 
L 50.300152 75.532551 
L 50.900161 75.691494 
L 51.413237 76.000611 
L 51.841085 75.84386 
L 52.127453 75.632301 
L 52.884283 75.284819 
L 53.170651 74.96474 
L 53.284858 74.412276 
L 53.325767 72.823941 
L 53.954754 71.735455 
L 54.414989 71.784782 
L 54.78829 72.061014 
L 54.921247 72.310938 
L 55.299662 72.488516 
L 55.248525 72.825037 
L 55.144546 73.040981 
L 55.369549 73.813773 
L 55.58603 73.960658 
L 55.144546 74.695085 
L 55.383186 75.162049 
L 55.707055 76.247247 
L 56.225244 76.861096 
L 56.608773 76.990443 
L 56.716161 77.269964 
L 56.661615 77.463984 
L 56.300246 78.289392 
L 56.64116 78.947087 
L 57.447423 78.947087 
L 58.396869 78.759644 
L 59.607116 78.933933 
L 60.280422 78.209372 
L 61.390098 77.654715 
L 61.601465 77.69637 
L 62.17761 78.006583 
L 62.709437 78.080025 
L 64.166846 77.588946 
L 64.437873 77.211867 
L 64.478783 77.003597 
L 64.361167 76.974 
L 63.619678 76.533344 
L 64.831629 76.582672 
L 65.445275 76.490594 
L 66.067444 76.145304 
L 67.407238 76.251631 
L 67.311781 76.422632 
L 67.127688 77.292983 
L 67.77713 77.575792 
L 70.937406 77.654715 
L 70.080007 77.269964 
L 70.342511 76.920289 
L 71.174342 76.709826 
L 71.499915 76.367824 
L 69.14931 76.362344 
L 68.98908 76.118996 
L 68.849306 75.056818 
L 68.453845 74.320199 
L 68.319184 73.614272 
L 68.065202 72.948903 
L 68.208386 72.304361 
L 67.869177 72.281342 
L 67.685083 72.230919 
L 67.720879 71.809993 
L 68.208386 71.735455 
L 69.02999 70.913335 
L 69.432269 70.832219 
L 70.035688 71.09749 
L 71.305594 72.09938 
L 71.655031 72.103764 
L 72.241404 72.474266 
L 72.302769 72.860114 
L 71.655031 73.79185 
L 72.432316 73.984774 
L 74.856218 73.530964 
L 75.887484 73.206501 
L 76.257376 72.580594 
L 77.334666 71.961264 
L 78.319908 70.252351 
L 78.403432 69.805118 
L 78.323317 69.358981 
L 78.127292 68.97971 
L 77.607397 68.325303 
L 76.939205 67.267509 
L 76.685224 67.12172 
L 76.685224 66.954007 
L 77.15739 67.023065 
L 77.65683 67.266413 
L 78.558548 67.872589 
L 78.422183 67.638011 
L 77.828991 67.12172 
L 77.532396 66.569255 
L 77.655125 66.221773 
L 77.828991 66.219581 
L 77.482963 65.76029 
L 75.814187 65.281268 
L 75.785209 64.481072 
L 75.060766 63.681971 
L 70.870928 60.538186 
L 68.658393 59.502316 
L 67.889631 58.735004 
L 66.47995 57.890961 
L 65.516867 56.476916 
L 64.760037 56.323453 
L 64.356053 56.072433 
L 63.762862 55.316083 
L 63.350356 54.462175 
L 63.118534 53.52167 
L 63.026487 52.46278 
L 63.019669 50.134537 
L 62.89694 49.156763 
L 62.663413 48.259009 
L 62.320794 47.39085 
L 61.161685 45.25882 
L 61.066229 45.041781 
L 60.449174 44.798433 
L 60.363946 44.47397 
L 60.58554 43.5236 
L 60.449174 42.675173 
L 60.74577 41.737956 
L 60.667359 40.754701 
L 60.319627 39.799946 
L 59.66848 39.182809 
L 58.686647 38.572248 
L 57.622994 38.256554 
L 56.716161 38.528402 
L 55.819556 38.046091 
L 49.396729 39.080866 
L 47.753521 39.799946 
L 46.140996 39.729792 
L 44.969955 39.130193 
L 44.0921 39.499599 
L 40.70682 42.345229 
L 40.219312 43.125694 
L 37.434041 48.797223 
L 37.130628 49.028513 
L 36.973807 49.317899 
L 36.704485 50.662886 
L 36.772667 51.068465 
L 37.028353 51.000503 
L 37.677795 50.171807 
L 37.994846 49.965729 
L 39.036339 50.062191 
L 39.523847 50.281423 
L 39.78976 50.700156 
L 39.765896 51.061888 
L 39.360208 51.903739 
L 39.421572 53.61594 
L 37.928367 57.624595 
L 37.631772 58.644023 
L 37.672681 58.908197 
L 37.928367 59.579047 
L 38.129507 60.70261 
L 38.270986 62.392888 
L 38.424398 62.840121 
L 39.646576 65.5575 
L 39.534074 66.115445 
L 39.089181 66.910161 
L 39.07384 67.504279 
L 38.930656 67.504279 
L 38.814745 67.246682 
L 38.361329 66.769853 
L 38.327237 66.473889 
L 38.490876 65.648481 
L 38.419284 64.463533 
L 38.057915 63.441913 
L 37.580635 62.567177 
L 37.631772 61.787808 
L 37.130628 59.94626 
L 36.869828 59.716067 
L 36.532323 58.691158 
L 36.20334 58.459868 
L 35.923791 58.403964 
L 35.74481 58.242829 
L 35.627195 57.624595 
L 35.470374 57.217919 
L 34.885706 56.731225 
L 34.128876 56.519666 
L 33.404433 55.598892 
L 32.368053 54.86885 
L 32.395326 54.148673 
L 32.903289 53.165418 
L 32.903289 51.364428 
L 32.756696 51.25262 
L 32.472032 50.498462 
L 32.173732 50.284711 
L 31.68452 50.241961 
L 31.369174 49.818843 
L 31.040191 49.679631 
L 30.533933 49.212667 
L 30.022562 49.067974 
L 29.76 48.689018 
L 36.609156 42.091797 
L 41.092471 38.51265 
L 44.367823 37.402432 
L 45.554137 36.723773 
L 50.173835 34.969002 
L 55.245976 34.044633 
L 63.472241 32.6191 
L 65.05255 32.82931 
L 66.574409 33.355532 
L 77.948303 40.625196 
L 81.483432 43.751903 
L 81.981338 44.369309 
L 82.189159 44.89762 
L 82.178335 46.945432 
L 82.396981 47.431282 
L 85.525126 51.510201 
L 88.213816 56.125783 
L 88.858928 56.88449 
L 89.590633 57.508161 
L 90.902506 58.382414 
L 91.233721 58.745758 
L 91.487004 59.203766 
L 92.073666 60.568046 
L 92.42653 61.028838 
L 93.448318 61.676175 
L 94.09776 61.88917 
L 96.740989 61.741605 
L 97.974929 61.278028 
L 99.92109 61.005172 
L 101.791483 60.121175 
L 102.49288 60.064097 
L 103.923817 60.196349 
L 120.995482 61.09566 
L 125.535082 62.017245 
L 125.9399 61.788937 
L 126.585013 60.648789 
L 126.998491 60.187996 
L 128.420769 59.405624 
L 128.702194 58.9504 
L 128.541998 58.832069 
L 127.171675 58.429746 
L 126.875097 58.22232 
L 126.416158 57.721155 
L 126.013504 57.057113 
L 125.732079 56.310935 
L 125.636828 55.564758 
L 125.574048 53.835742 
L 125.333755 53.129936 
L 124.868321 52.390719 
L 124.49381 51.428066 
L 124.517622 50.578871 
L 124.682148 49.712275 
L 124.734103 48.698114 
L 124.270835 46.570951 
L 124.277329 45.532427 
L 124.868321 44.749358 
L 126.879426 43.842391 
L 127.74102 43.214543 
L 128.52468 42.092493 
L 129.674192 40.023103 
L 131.358411 38.437475 
L 133.328385 37.51589 
L 135.339491 37.437931 
L 138.303111 37.932135 
L 139.277274 37.74559 
L 140.840264 37.108694 
L 142.673855 37.087117 
L 143.134959 36.766928 
L 143.070015 36.511474 
L 142.801579 36.222608 
L 142.650043 35.798707 
L 142.821062 35.4465 
L 143.622041 35.198702 
L 143.922949 34.877122 
L 144.957726 32.381047 
L 144.920925 31.961322 
L 144.47281 31.041825 
L 144.353745 30.328362 
L 144.708774 30.040889 
L 145.278118 29.799356 
L 146.602979 28.462222 
L 147.542505 28.393312 
L 147.94083 28.526956 
L 148.243903 28.812341 
L 148.722325 29.491 
L 149.05787 29.678241 
L 149.397745 29.64831 
L 150.536433 29.275917 
L 150.995372 29.354572 
L 153.075751 30.290079 
L 153.785808 30.787066 
L 154.324844 31.476167 
L 154.53916 32.434643 
L 154.348657 33.80658 
L 154.595445 34.169228 
L 154.937485 34.252755 
L 156.283994 34.057858 
L 156.543771 33.907509 
L 156.617375 33.68825 
L 156.522123 33.450893 
L 156.283994 33.240682 
L 155.43972 32.287774 
L 153.885389 29.880099 
L 153.326869 28.623708 
L 152.681756 27.681937 
L 151.943557 27.133441 
L 149.319812 25.960578 
L 148.927982 25.625772 
L 148.808917 25.107207 
L 149.00375 24.713932 
L 149.384756 24.44038 
L 150.17491 24.111839 
L 151.677286 23.348956 
L 152.18818 23.364966 
L 154.448238 24.23365 
L 155.521982 24.471703 
L 156.597891 24.535741 
L 157.463814 24.292119 
L 157.907599 23.508354 
L 158.193354 21.221097 
L 158.580854 20.609955 
L 159.091749 20.88838 
L 159.091749 20.88838 
" clip-path="url(#p32d12d8a9f)" style="fill: none; stroke: #000000; stroke-width: 2"/>
   </g>
  </g>
 </g>
 <defs>
  <clipPath id="p32d12d8a9f">
   <rect x="0" y="0" width="357.12" height="247.319463"/>
  </clipPath>
 </defs>
</svg>
