<?xml version="1.0" encoding="utf-8" standalone="no"?>
<!DOCTYPE svg PUBLIC "-//W3C//DTD SVG 1.1//EN"
  "http://www.w3.org/Graphics/SVG/1.1/DTD/svg11.dtd">
<svg xmlns:xlink="http://www.w3.org/1999/xlink" width="357.12pt" height="150.382032pt" viewBox="0 0 357.12 150.382032" xmlns="http://www.w3.org/2000/svg" version="1.1">
 <metadata>
  <rdf:RDF xmlns:dc="http://purl.org/dc/elements/1.1/" xmlns:cc="http://creativecommons.org/ns#" xmlns:rdf="http://www.w3.org/1999/02/22-rdf-syntax-ns#">
   <cc:Work>
    <dc:type rdf:resource="http://purl.org/dc/dcmitype/StillImage"/>
    <dc:date>2024-02-02T21:58:05.755285</dc:date>
    <dc:format>image/svg+xml</dc:format>
    <dc:creator>
     <cc:Agent>
      <dc:title>Matplotlib v3.8.2, https://matplotlib.org/</dc:title>
     </cc:Agent>
    </dc:creator>
   </cc:Work>
  </rdf:RDF>
 </metadata>
 <defs>
  <style type="text/css">*{stroke-linejoin: round; stroke-linecap: butt}</style>
 </defs>
 <g id="figure_1">
  <g id="patch_1">
   <path d="M 0 150.382032 
L 357.12 150.382032 
L 357.12 0 
L 0 0 
L 0 150.382032 
z
" style="fill: none"/>
  </g>
  <g id="axes_1">
   <g id="PatchCollection_1">
    <path d="M 59.175441 125.279331 
L 58.57119 126.23684 
L 58.346353 128.948203 
L 58.013781 129.649745 
L 57.137851 130.901143 
L 56.824015 131.593205 
L 56.842751 132.218904 
L 57.254954 133.811593 
L 57.161271 134.674299 
L 56.364972 135.935178 
L 55.142417 136.703081 
L 53.601343 137.101253 
L 51.858851 137.271899 
L 50.748716 137.546827 
L 50.378671 137.850196 
L 50.294356 137.679551 
L 50.003941 136.494515 
L 50.003941 135.954138 
L 50.322461 134.333009 
L 50.378671 133.650428 
L 50.060151 132.11462 
L 49.413742 130.540892 
L 48.533129 129.043006 
L 47.502623 127.791608 
L 46.134861 126.625532 
L 44.935727 126.104116 
L 43.680384 126.170478 
L 42.195519 126.786697 
L 40.977649 127.820049 
L 39.160211 130.332326 
L 38.012603 131.033867 
L 35.220869 130.540892 
L 32.719551 128.369906 
L 29.76 123.242225 
L 31.419726 122.786872 
L 38.744652 119.845743 
L 40.337989 119.659123 
L 41.481356 119.069404 
L 43.473028 116.217852 
L 44.328709 115.277287 
L 47.087543 113.993343 
L 53.121571 112.127144 
L 62.002951 110.432635 
L 63.006163 109.89517 
L 63.773325 108.872493 
L 65.573206 108.529112 
L 67.845187 108.409675 
L 67.874694 108.40221 
L 67.962844 110.27203 
L 66.613819 115.343986 
L 66.178196 118.548324 
L 65.826887 119.344669 
L 65.541156 119.7144 
L 65.189847 120.02725 
L 63.447356 122.312 
L 60.744621 124.625191 
L 59.906164 125.080245 
L 59.493961 125.099205 
L 59.175441 125.279331 
" clip-path="url(#pa6346af94c)" style="fill: none; stroke: #000000; stroke-width: 2"/>
    <path d="M 307.02282 33.418335 
L 309.265294 33.627349 
L 311.470886 33.418335 
L 313.064224 32.634532 
L 315.852564 30.641431 
L 316.472195 30.395093 
L 317.645068 30.656361 
L 318.087662 31.246079 
L 318.331089 32.052277 
L 318.943343 32.948053 
L 320.861249 34.105096 
L 324.969994 35.224816 
L 326.703486 36.396789 
L 327.36 38.233128 
L 326.452683 39.800736 
L 319.828531 44.779755 
L 315.675526 48.97497 
L 307.362142 55.469342 
L 301.505152 61.187376 
L 300.88552 62.12794 
L 299.808543 62.217518 
L 293.457323 63.635829 
L 287.622463 67.883298 
L 285.025913 69.174708 
L 271.246496 70.17499 
L 269.269578 70.652737 
L 268.207353 71.160343 
L 265.551791 73.145979 
L 264.8879 73.437106 
L 264.113361 73.608796 
L 262.121689 73.713304 
L 261.192243 74.064149 
L 257.644117 78.139928 
L 254.35417 83.790778 
L 251.145366 86.627401 
L 247.31693 87.717261 
L 223.357858 90.807686 
L 219.374515 92.472336 
L 203.529661 103.408262 
L 201.840428 103.945727 
L 196.507174 103.1246 
L 194.71467 103.266431 
L 193.704081 103.803896 
L 191.727162 105.468546 
L 190.664938 105.826856 
L 186.902891 105.826856 
L 184.999738 106.304603 
L 179.187008 109.581648 
L 177.519905 109.626437 
L 172.91693 108.954605 
L 171.434242 109.268127 
L 169.582725 110.746156 
L 167.723831 111.798693 
L 152.011755 117.651093 
L 148.751315 119.659123 
L 144.081951 123.563211 
L 141.581297 124.653071 
L 140.474813 125.951946 
L 138.792957 128.489976 
L 137.804497 129.579837 
L 136.816038 130.36364 
L 135.50301 130.833922 
L 131.268864 131.147444 
L 129.513242 131.662515 
L 127.978917 132.640403 
L 126.422463 134.178151 
L 123.266206 136.431869 
L 122.296801 130.830217 
L 121.877026 129.469619 
L 119.834751 126.24632 
L 119.745753 125.601661 
L 119.928434 124.160656 
L 119.801963 123.572878 
L 119.300762 122.96614 
L 117.380274 121.762143 
L 115.216212 119.818683 
L 114.597909 118.785332 
L 114.068604 117.192643 
L 113.520562 114.026226 
L 113.867187 111.314862 
L 115.366104 109.475686 
L 118.335834 108.94479 
L 120.190744 108.96375 
L 120.809048 109.134396 
L 121.436719 109.59893 
L 122.51875 110.831368 
L 123.090212 111.182138 
L 124.383029 111.257981 
L 125.165276 110.727084 
L 125.970944 109.92126 
L 127.376179 109.162836 
L 128.369212 109.077514 
L 130.598851 109.219718 
L 131.334258 108.878428 
L 131.629357 107.996761 
L 131.385783 107.01081 
L 131.001685 106.043821 
L 130.823689 105.190594 
L 132.364763 99.426578 
L 132.397552 97.435717 
L 131.638725 95.615501 
L 130.317804 94.146056 
L 128.678363 92.961019 
L 126.973345 91.99403 
L 126.317569 91.396771 
L 125.975628 90.827954 
L 125.549374 90.609907 
L 124.61255 91.02704 
L 124.298715 91.548456 
L 123.89588 93.330751 
L 123.600781 94.003851 
L 122.378227 95.084604 
L 118.082892 96.971182 
L 115.768938 98.478548 
L 114.588541 98.962043 
L 112.953784 99.075807 
L 111.609443 98.706075 
L 110.546148 97.88129 
L 109.792005 96.715214 
L 109.332962 95.312131 
L 109.445381 93.738403 
L 110.653883 90.619387 
L 110.385818 88.389092 
L 113.49135 86.612471 
L 115.394503 84.731342 
L 119.783557 78.027956 
L 120.181892 76.617109 
L 121.02282 75.803447 
L 125.087305 74.295558 
L 126.422463 73.145979 
L 126.776538 71.533583 
L 127.32978 63.322308 
L 128.104319 61.232165 
L 129.277192 59.365966 
L 130.759881 58.067091 
L 132.574515 57.454978 
L 136.727519 56.813006 
L 138.461011 55.872441 
L 139.191291 55.693286 
L 142.510744 56.185963 
L 143.528709 55.9023 
L 146.213778 54.304834 
L 152.218299 52.565537 
L 154.040309 52.363987 
L 160.007948 52.767086 
L 161.866841 52.363987 
L 166.764878 50.139478 
L 168.977847 49.870745 
L 171.323593 50.557507 
L 172.385818 50.497788 
L 174.864343 47.989617 
L 176.531446 48.721167 
L 179.216514 48.795815 
L 184.136681 47.989617 
L 194.781059 44.525951 
L 199.052088 44.279613 
L 208.523593 45.959192 
L 212.152861 47.735814 
L 214.587127 47.989617 
L 216.578798 47.586518 
L 220.421987 46.377221 
L 222.376776 46.108488 
L 226.456014 46.04877 
L 230.100036 45.533699 
L 231.973682 44.593135 
L 235.971779 41.749047 
L 238.863391 40.91299 
L 241.873028 39.218482 
L 242.87624 39.046791 
L 244.683498 39.016932 
L 245.635074 38.591439 
L 247.272671 39.793271 
L 249.197954 40.56961 
L 251.28552 41.010033 
L 253.402594 41.151864 
L 254.730375 41.614681 
L 258.071957 44.794684 
L 261.811874 43.525669 
L 268.767971 40.226229 
L 271.150601 39.576792 
L 272.86934 38.36003 
L 273.606996 38.016649 
L 274.610208 38.009185 
L 276.808424 38.591439 
L 280.777014 37.762846 
L 284.657085 36.016084 
L 293.944176 29.372416 
L 295.980107 28.49157 
L 297.507055 28.84988 
L 298.901225 29.880022 
L 305.274575 32.948053 
L 307.02282 33.418335 
L 307.02282 33.418335 
" clip-path="url(#pa6346af94c)" style="fill: none; stroke: #000000; stroke-width: 2"/>
    <path d="M 170.526924 28.984246 
L 169.671243 29.252979 
L 169.287662 28.84988 
L 168.690161 28.506499 
L 165.769042 27.618189 
L 164.596169 26.946357 
L 163.644592 25.863962 
L 163.334777 24.983116 
L 163.578203 24.08734 
L 164.286353 22.870578 
L 165.414967 21.773253 
L 168.623772 19.332265 
L 169.287662 18.160292 
L 170.276121 16.562826 
L 172.533349 14.181556 
L 175.011874 12.531836 
L 176.656847 13.248456 
L 175.882308 16.174656 
L 172.385818 24.803961 
L 171.766187 27.595794 
L 171.367852 28.334809 
L 170.526924 28.984246 
" clip-path="url(#pa6346af94c)" style="fill: none; stroke: #000000; stroke-width: 2"/>
   </g>
  </g>
 </g>
 <defs>
  <clipPath id="pa6346af94c">
   <rect x="0" y="0" width="357.12" height="150.382032"/>
  </clipPath>
 </defs>
</svg>
