<?xml version="1.0" encoding="utf-8" standalone="no"?>
<!DOCTYPE svg PUBLIC "-//W3C//DTD SVG 1.1//EN"
  "http://www.w3.org/Graphics/SVG/1.1/DTD/svg11.dtd">
<svg xmlns:xlink="http://www.w3.org/1999/xlink" width="85.578258pt" height="266.112pt" viewBox="0 0 85.578258 266.112" xmlns="http://www.w3.org/2000/svg" version="1.1">
 <metadata>
  <rdf:RDF xmlns:dc="http://purl.org/dc/elements/1.1/" xmlns:cc="http://creativecommons.org/ns#" xmlns:rdf="http://www.w3.org/1999/02/22-rdf-syntax-ns#">
   <cc:Work>
    <dc:type rdf:resource="http://purl.org/dc/dcmitype/StillImage"/>
    <dc:date>2024-02-02T21:58:05.782378</dc:date>
    <dc:format>image/svg+xml</dc:format>
    <dc:creator>
     <cc:Agent>
      <dc:title>Matplotlib v3.8.2, https://matplotlib.org/</dc:title>
     </cc:Agent>
    </dc:creator>
   </cc:Work>
  </rdf:RDF>
 </metadata>
 <defs>
  <style type="text/css">*{stroke-linejoin: round; stroke-linecap: butt}</style>
 </defs>
 <g id="figure_1">
  <g id="patch_1">
   <path d="M 0 266.112 
L 85.578258 266.112 
L 85.578258 0 
L 0 0 
L 0 266.112 
z
" style="fill: none"/>
  </g>
  <g id="axes_1">
   <g id="PatchCollection_1">
    <path d="M 7.511708 243.936 
L 7.413514 243.936 
L 7.237269 243.816207 
L 7.131522 243.643174 
L 7.164253 243.480788 
L 7.311544 243.448844 
L 7.598572 243.54734 
L 7.787406 243.712387 
L 7.671588 243.848152 
L 7.511708 243.936 
" clip-path="url(#p90a60803e0)" style="fill: none; stroke: #000000; stroke-width: 2"/>
    <path d="M 47.518173 214.669345 
L 47.321785 214.99944 
L 46.839628 214.7146 
L 46.64324 214.216795 
L 46.250464 213.817487 
L 45.361684 213.151972 
L 45.361684 212.92836 
L 45.483797 212.880443 
L 45.784673 212.702085 
L 45.603392 212.348031 
L 45.57066 211.903468 
L 45.729281 211.522793 
L 46.344882 211.256588 
L 46.541269 211.006354 
L 46.839628 210.468619 
L 46.911385 210.266303 
L 47.140504 209.779146 
L 47.379694 209.446389 
L 47.492995 209.699284 
L 47.685606 210.915844 
L 47.669241 211.410987 
L 47.492995 212.619561 
L 47.518173 214.669345 
" clip-path="url(#p90a60803e0)" style="fill: none; stroke: #000000; stroke-width: 2"/>
    <path d="M 35.096643 204.111627 
L 35.372342 204.122275 
L 37.125984 203.781532 
L 37.411754 203.861393 
L 37.643391 204.045075 
L 37.887616 204.191488 
L 38.084004 204.396467 
L 38.160797 204.755844 
L 37.698782 205.051333 
L 37.48477 205.322863 
L 37.613177 205.658282 
L 37.937972 205.78606 
L 38.247661 205.650296 
L 38.557349 205.426683 
L 38.880886 205.314876 
L 39.262331 205.378766 
L 39.809951 205.68224 
L 40.060471 205.762102 
L 40.519969 205.650296 
L 40.702509 205.30689 
L 40.882531 204.857003 
L 41.329439 204.420425 
L 41.646681 204.27135 
L 42.045751 204.156882 
L 42.461187 204.116951 
L 42.827525 204.196812 
L 43.16491 204.444384 
L 43.280728 204.699941 
L 43.250515 205.211056 
L 42.983629 205.498558 
L 41.223692 206.784332 
L 41.112909 207.06651 
L 41.163265 207.415239 
L 41.269012 207.782603 
L 41.329439 208.126009 
L 41.216138 208.514669 
L 40.94044 208.738282 
L 40.591726 208.850088 
L 40.253083 208.908653 
L 39.584609 208.756916 
L 39.271143 208.485386 
L 38.775138 207.54568 
L 38.368515 207.15702 
L 36.894347 206.427616 
L 36.661451 206.672525 
L 35.894784 206.2253 
L 35.456688 206.054928 
L 35.070207 205.985715 
L 34.776884 205.820667 
L 34.012734 204.755844 
L 33.568343 203.869379 
L 33.862925 203.073424 
L 34.579237 202.471799 
L 35.395002 202.189621 
L 35.00978 202.655481 
L 34.520069 203.073424 
L 34.311092 203.499353 
L 34.761777 203.9732 
L 35.096643 204.111627 
" clip-path="url(#p90a60803e0)" style="fill: none; stroke: #000000; stroke-width: 2"/>
    <path d="M 65.887987 161.518714 
L 65.295047 161.6039 
L 65.058375 161.481445 
L 64.868281 161.337694 
L 64.722249 161.161998 
L 64.622797 160.933061 
L 65.042009 160.783986 
L 65.368063 160.488498 
L 65.594665 160.070555 
L 65.718036 159.570088 
L 65.870363 159.602033 
L 66.209006 159.735136 
L 66.331119 159.814997 
L 66.085634 160.390002 
L 66.044091 161.03422 
L 65.887987 161.518714 
" clip-path="url(#p90a60803e0)" style="fill: none; stroke: #000000; stroke-width: 2"/>
    <path d="M 43.375145 160.272871 
L 43.020137 160.933061 
L 43.020137 160.688152 
L 42.827525 160.933061 
L 42.67394 160.744055 
L 42.511542 160.634911 
L 42.155275 160.485836 
L 42.179194 160.472525 
L 42.143945 160.390002 
L 42.155275 160.262223 
L 41.777606 159.245317 
L 41.751169 158.920546 
L 41.86447 158.297625 
L 42.050786 158.031419 
L 42.329003 157.988826 
L 42.711707 158.010123 
L 43.205194 158.396121 
L 43.431796 159.290572 
L 43.375145 160.272871 
" clip-path="url(#p90a60803e0)" style="fill: none; stroke: #000000; stroke-width: 2"/>
    <path d="M 67.388592 159.224021 
L 66.897622 159.271938 
L 66.44442 159.058973 
L 66.332378 158.696933 
L 66.87748 158.393459 
L 67.187168 157.964868 
L 67.441465 157.51498 
L 67.829206 157.115672 
L 67.991603 157.594842 
L 67.898445 158.015447 
L 67.717164 158.412093 
L 67.617711 158.80874 
L 67.388592 159.224021 
" clip-path="url(#p90a60803e0)" style="fill: none; stroke: #000000; stroke-width: 2"/>
    <path d="M 68.244641 155.859181 
L 68.082244 156.10409 
L 67.617711 155.997608 
L 67.279068 155.513113 
L 66.869927 154.709172 
L 66.727671 154.107547 
L 67.195981 154.211367 
L 67.354602 154.485559 
L 67.509446 155.201653 
L 67.723458 155.345404 
L 68.121269 155.521099 
L 68.244641 155.859181 
" clip-path="url(#p90a60803e0)" style="fill: none; stroke: #000000; stroke-width: 2"/>
    <path d="M 55.979215 128.719509 
L 55.566297 128.748792 
L 55.246537 128.221704 
L 55.335919 127.747858 
L 55.695963 127.508273 
L 56.183156 127.697279 
L 56.400945 128.096588 
L 56.295198 128.471938 
L 55.979215 128.719509 
" clip-path="url(#p90a60803e0)" style="fill: none; stroke: #000000; stroke-width: 2"/>
    <path d="M 78.446737 121.83543 
L 78.419041 122.514254 
L 78.177333 122.844349 
L 77.585652 122.152214 
L 77.249526 122.311938 
L 77.07454 122.50893 
L 77.104753 122.753839 
L 77.372898 123.046666 
L 77.117342 123.368774 
L 76.951168 123.71218 
L 76.516849 123.616346 
L 76.228561 123.957089 
L 76.085047 124.516121 
L 76.086306 125.075153 
L 75.699825 124.856864 
L 75.485813 124.484176 
L 75.261729 123.71218 
L 75.757734 123.512525 
L 75.782912 123.129189 
L 75.594078 122.759163 
L 75.45434 122.59944 
L 75.103108 122.905576 
L 75.001138 123.392733 
L 74.8614 123.706856 
L 74.396867 123.493891 
L 74.366654 123.674911 
L 74.276013 123.71218 
L 74.136276 123.701532 
L 73.954995 123.71218 
L 73.550889 122.745853 
L 74.136276 122.258697 
L 75.006173 121.795499 
L 75.45434 120.911696 
L 75.665835 120.685421 
L 76.16184 120.565628 
L 76.727084 120.52836 
L 77.143779 120.565628 
L 77.61083 120.746648 
L 77.82736 120.956951 
L 78.022489 121.199198 
L 78.411488 121.481376 
L 78.446737 121.83543 
" clip-path="url(#p90a60803e0)" style="fill: none; stroke: #000000; stroke-width: 2"/>
    <path d="M 25.741785 23.549621 
L 25.080865 24.294997 
L 24.160611 24.204487 
L 23.623063 23.576242 
L 23.713703 22.916052 
L 24.319232 22.388965 
L 25.322573 22.176 
L 25.901665 22.62855 
L 25.741785 23.549621 
" clip-path="url(#p90a60803e0)" style="fill: none; stroke: #000000; stroke-width: 2"/>
   </g>
  </g>
 </g>
 <defs>
  <clipPath id="p90a60803e0">
   <rect x="0" y="-0" width="85.578258" height="266.112"/>
  </clipPath>
 </defs>
</svg>
