<?xml version="1.0" encoding="utf-8" standalone="no"?>
<!DOCTYPE svg PUBLIC "-//W3C//DTD SVG 1.1//EN"
  "http://www.w3.org/Graphics/SVG/1.1/DTD/svg11.dtd">
<svg xmlns:xlink="http://www.w3.org/1999/xlink" width="280.98786pt" height="266.112pt" viewBox="0 0 280.98786 266.112" xmlns="http://www.w3.org/2000/svg" version="1.1">
 <metadata>
  <rdf:RDF xmlns:dc="http://purl.org/dc/elements/1.1/" xmlns:cc="http://creativecommons.org/ns#" xmlns:rdf="http://www.w3.org/1999/02/22-rdf-syntax-ns#">
   <cc:Work>
    <dc:type rdf:resource="http://purl.org/dc/dcmitype/StillImage"/>
    <dc:date>2024-02-02T21:58:05.807383</dc:date>
    <dc:format>image/svg+xml</dc:format>
    <dc:creator>
     <cc:Agent>
      <dc:title>Matplotlib v3.8.2, https://matplotlib.org/</dc:title>
     </cc:Agent>
    </dc:creator>
   </cc:Work>
  </rdf:RDF>
 </metadata>
 <defs>
  <style type="text/css">*{stroke-linejoin: round; stroke-linecap: butt}</style>
 </defs>
 <g id="figure_1">
  <g id="patch_1">
   <path d="M 0 266.112 
L 280.98786 266.112 
L 280.98786 0 
L 0 0 
L 0 266.112 
z
" style="fill: none"/>
  </g>
  <g id="axes_1">
   <g id="PatchCollection_1">
    <path d="M 193.446541 109.239376 
L 186.374904 121.716392 
L 177.636961 132.580357 
L 174.541426 132.0151 
L 172.570309 135.261881 
L 171.676194 140.328515 
L 171.859081 145.19524 
L 175.090088 155.493948 
L 175.760674 160.512328 
L 170.944645 164.669036 
L 171.046249 169.425467 
L 173.328952 181.854229 
L 174.182425 184.170405 
L 175.293296 186.321139 
L 178.273679 190.760475 
L 184.457975 195.151557 
L 179.641946 200.362952 
L 177.548904 209.124436 
L 177.460847 219.023328 
L 178.680095 227.640052 
L 175.103635 226.854207 
L 171.093664 228.081228 
L 167.307222 230.424977 
L 164.360707 232.954847 
L 161.420965 234.933247 
L 157.641296 236.353283 
L 150.156469 238.159348 
L 146.11263 238.559164 
L 135.898043 236.890967 
L 132.233526 237.214955 
L 121.632843 239.317436 
L 108.519155 238.159348 
L 94.091389 239.282969 
L 87.439714 238.159348 
L 85.881787 238.545378 
L 81.140267 240.461737 
L 79.277527 240.654752 
L 76.005879 241.440597 
L 74.319253 241.633611 
L 71.968814 241.268262 
L 70.316056 240.392803 
L 68.798769 239.262289 
L 66.881841 238.159348 
L 63.786306 237.235636 
L 60.372412 236.83582 
L 45.951419 236.808246 
L 42.002411 237.276996 
L 38.981386 238.738392 
L 36.54289 240.647858 
L 33.30511 242.584898 
L 29.897989 243.89464 
L 26.992115 243.936 
L 23.415655 241.495744 
L 25.041319 239.200249 
L 30.406009 236.36707 
L 31.19852 235.732879 
L 33.027392 235.167622 
L 38.425951 234.147402 
L 39.523274 233.078928 
L 41.257315 230.535271 
L 43.858377 228.549978 
L 46.642327 227.185089 
L 59.478297 223.338584 
L 66.637991 219.885001 
L 71.677549 215.397411 
L 71.535303 210.289417 
L 73.648666 209.17269 
L 76.168445 209.13133 
L 84.770916 210.6203 
L 93.684973 210.289417 
L 95.568033 209.551826 
L 97.789774 207.745761 
L 99.801533 205.443372 
L 101.081743 203.251278 
L 101.711688 199.866629 
L 101.230762 197.019663 
L 100.390836 194.276098 
L 99.943778 191.09825 
L 99.638967 190.181431 
L 98.182643 188.95441 
L 97.667849 188.209925 
L 97.600113 187.286212 
L 98.053944 187.03805 
L 98.622927 186.920863 
L 98.907418 186.42454 
L 98.744851 185.107904 
L 97.776227 181.792189 
L 97.153056 180.634101 
L 96.787281 178.193845 
L 97.735585 174.850556 
L 99.943778 169.597802 
L 101.054649 163.159386 
L 101.081743 156.500382 
L 99.395117 150.282554 
L 95.405467 145.19524 
L 96.631488 144.15434 
L 89.986588 139.60471 
L 81.858269 135.875392 
L 78.295355 135.11712 
L 69.808036 134.538076 
L 68.751354 134.207194 
L 67.931749 133.297268 
L 66.881841 131.325762 
L 75.531727 125.328522 
L 77.780562 124.384129 
L 84.601576 124.963173 
L 92.262517 123.164001 
L 97.153056 123.226042 
L 99.239324 122.267862 
L 100.512761 120.572091 
L 101.366234 119.87586 
L 102.219708 121.964553 
L 103.459276 121.964553 
L 103.506692 121.399296 
L 103.459276 119.648378 
L 104.48209 119.648378 
L 104.597241 120.503157 
L 104.874959 120.951227 
L 105.267827 121.316576 
L 105.728432 121.964553 
L 104.48209 123.226042 
L 105.863904 122.895159 
L 106.839302 122.109314 
L 107.895984 120.909866 
L 111.10667 120.806466 
L 111.418255 120.909866 
L 112.786523 119.662165 
L 115.936246 115.953527 
L 116.992927 115.029814 
L 119.898802 114.788546 
L 128.718028 115.863913 
L 148.036333 115.946633 
L 152.235964 112.741212 
L 161.942532 111.562444 
L 164.943236 110.287169 
L 186.530697 107.8607 
L 193.446541 109.239376 
L 193.446541 109.239376 
" clip-path="url(#p6fa0ad1938)" style="fill: none; stroke: #000000; stroke-width: 2"/>
    <path d="M 257.409638 23.430595 
L 257.572205 27.635556 
L 256.996449 32.833164 
L 255.750106 36.500441 
L 253.89414 36.059265 
L 252.864553 36.059265 
L 251.84174 38.602922 
L 250.378642 38.885551 
L 248.719111 38.320293 
L 247.0799 38.361654 
L 246.754767 39.106139 
L 244.262082 42.442534 
L 243.672779 42.573508 
L 239.811828 44.965511 
L 238.599354 45.944371 
L 236.756934 47.061098 
L 234.650345 47.040418 
L 232.638586 46.626815 
L 231.067111 46.564775 
L 221.001543 51.652088 
L 218.048254 52.355213 
L 213.564131 56.243079 
L 210.753087 57.380486 
L 209.574481 54.671388 
L 207.075023 55.932877 
L 204.758452 55.539954 
L 203.396959 53.871756 
L 203.783054 51.300526 
L 205.191962 50.590508 
L 207.50176 50.218265 
L 209.655764 49.3497 
L 210.597294 47.143819 
L 212.250053 44.951724 
L 226.339139 35.687023 
L 229.346617 32.709083 
L 231.067111 31.426915 
L 233.180474 30.330867 
L 238.639995 28.311107 
L 243.340873 27.318461 
L 245.298443 26.201733 
L 247.323749 25.822598 
L 249.972226 27.387395 
L 251.198248 27.23574 
L 254.368292 23.471955 
L 256.17007 22.176 
L 257.409638 23.430595 
" clip-path="url(#p6fa0ad1938)" style="fill: none; stroke: #000000; stroke-width: 2"/>
   </g>
  </g>
 </g>
 <defs>
  <clipPath id="p6fa0ad1938">
   <rect x="0" y="-0" width="280.98786" height="266.112"/>
  </clipPath>
 </defs>
</svg>
