<?xml version="1.0" encoding="utf-8" standalone="no"?>
<!DOCTYPE svg PUBLIC "-//W3C//DTD SVG 1.1//EN"
  "http://www.w3.org/Graphics/SVG/1.1/DTD/svg11.dtd">
<svg xmlns:xlink="http://www.w3.org/1999/xlink" width="126.936507pt" height="266.112pt" viewBox="0 0 126.936507 266.112" xmlns="http://www.w3.org/2000/svg" version="1.1">
 <metadata>
  <rdf:RDF xmlns:dc="http://purl.org/dc/elements/1.1/" xmlns:cc="http://creativecommons.org/ns#" xmlns:rdf="http://www.w3.org/1999/02/22-rdf-syntax-ns#">
   <cc:Work>
    <dc:type rdf:resource="http://purl.org/dc/dcmitype/StillImage"/>
    <dc:date>2024-02-02T21:58:05.832388</dc:date>
    <dc:format>image/svg+xml</dc:format>
    <dc:creator>
     <cc:Agent>
      <dc:title>Matplotlib v3.8.2, https://matplotlib.org/</dc:title>
     </cc:Agent>
    </dc:creator>
   </cc:Work>
  </rdf:RDF>
 </metadata>
 <defs>
  <style type="text/css">*{stroke-linejoin: round; stroke-linecap: butt}</style>
 </defs>
 <g id="figure_1">
  <g id="patch_1">
   <path d="M 0 266.112 
L 126.936507 266.112 
L 126.936507 0 
L 0 0 
L 0 266.112 
z
" style="fill: none"/>
  </g>
  <g id="axes_1">
   <g id="PatchCollection_1">
    <path d="M 99.93343 129.651379 
L 100.704845 130.592232 
L 101.526844 131.35303 
L 102.032689 131.667493 
L 102.553288 131.908412 
L 103.004334 132.192444 
L 103.309949 132.629902 
L 101.592182 134.218702 
L 101.160106 134.424117 
L 100.997813 134.562329 
L 100.879783 134.821 
L 100.62686 135.839201 
L 100.464568 135.839201 
L 100.546768 135.015004 
L 100.62686 134.756332 
L 100.222184 134.889472 
L 99.895673 135.87378 
L 99.430657 136.58277 
L 98.995024 137.069878 
L 98.841604 137.634101 
L 98.408321 137.191848 
L 98.400294 136.646296 
L 98.560212 136.135934 
L 98.095938 135.424094 
L 97.659233 135.209007 
L 97.246126 134.84002 
L 96.799296 134.699273 
L 96.31807 135.190026 
L 96.099802 135.653591 
L 95.620613 135.763703 
L 95.018044 135.286454 
L 94.853257 134.813159 
L 94.69819 133.95573 
L 94.711408 133.133436 
L 95.210708 132.255277 
L 94.896983 130.977436 
L 94.910806 130.01149 
L 95.867697 129.651379 
L 97.973279 130.107857 
L 99.100893 130.180133 
L 99.93343 129.651379 
" clip-path="url(#p0a17ef2adf)" style="fill: none; stroke: #000000; stroke-width: 2"/>
    <path d="M 104.231343 106.258694 
L 103.190684 107.069488 
L 102.693162 106.965149 
L 102.17812 106.709519 
L 101.320506 106.29183 
L 100.81866 105.956329 
L 101.070279 105.759176 
L 101.415136 105.485902 
L 104.372224 105.511262 
L 104.618601 105.868388 
L 104.231343 106.258694 
" clip-path="url(#p0a17ef2adf)" style="fill: none; stroke: #000000; stroke-width: 2"/>
    <path d="M 109.013356 102.646858 
L 109.641863 103.288502 
L 109.440879 103.712349 
L 106.918854 104.77103 
L 105.609368 105.563589 
L 105.1341 105.750421 
L 104.915525 105.216471 
L 105.274204 104.796967 
L 105.702351 104.392179 
L 106.167501 103.715493 
L 106.231553 103.284191 
L 106.209078 103.085732 
L 106.229099 102.799018 
L 106.434303 102.681233 
L 106.490452 102.980342 
L 106.880824 103.234736 
L 107.500382 103.121766 
L 107.557176 102.423346 
L 107.381017 102.063172 
L 107.581751 101.63916 
L 107.889234 101.359708 
L 108.100057 101.023884 
L 108.33329 100.68558 
L 108.760434 100.933795 
L 109.504303 101.048428 
L 109.625693 101.325449 
L 108.950126 101.562721 
L 108.85528 101.747849 
L 108.695095 101.946924 
L 108.631865 102.319715 
L 108.866262 102.413423 
L 109.013356 102.646858 
" clip-path="url(#p0a17ef2adf)" style="fill: none; stroke: #000000; stroke-width: 2"/>
    <path d="M 72.253145 23.075009 
L 72.265791 24.482486 
L 71.464869 25.105072 
L 70.480578 25.515903 
L 69.938902 26.285576 
L 70.427886 27.373517 
L 71.08127 28.201519 
L 72.215207 28.351143 
L 72.737914 28.256043 
L 73.313313 27.79576 
L 73.629466 27.377321 
L 73.914004 26.801651 
L 73.905573 26.291916 
L 72.253145 25.646506 
L 71.176116 25.84051 
L 71.176116 25.646506 
L 72.415437 24.777929 
L 72.80536 24.719601 
L 75.326156 25.266107 
L 75.791956 25.221727 
L 77.176707 24.625769 
L 77.398015 24.680293 
L 77.81323 25.300343 
L 79.636381 25.562819 
L 80.477349 26.304596 
L 82.403777 26.969027 
L 82.896977 27.369713 
L 81.682947 27.737432 
L 81.320425 27.988496 
L 81.17921 27.476225 
L 80.45838 27.387465 
L 79.630058 27.597953 
L 79.166366 27.988496 
L 79.356058 28.49823 
L 80.034734 28.746758 
L 80.818795 28.780993 
L 81.320425 28.645318 
L 81.813624 29.564615 
L 81.659763 29.943746 
L 81.482717 29.496144 
L 80.363534 30.557457 
L 80.572195 32.090464 
L 81.548055 33.661512 
L 82.734685 34.836945 
L 83.974006 35.474747 
L 84.840266 36.664127 
L 84.705374 37.028042 
L 84.111006 37.599909 
L 83.860191 38.237711 
L 83.588299 38.487506 
L 83.234207 38.543298 
L 82.896977 38.259267 
L 83.088776 37.785036 
L 82.846392 37.655701 
L 82.399562 37.721636 
L 81.305671 38.173043 
L 80.863056 38.781681 
L 80.730272 39.240696 
L 81.103333 39.395392 
L 81.914793 39.418216 
L 82.252024 39.593199 
L 82.504946 39.357352 
L 82.896977 38.665026 
L 83.453407 39.859478 
L 84.138406 40.762292 
L 85.051035 41.310066 
L 86.286141 41.449546 
L 86.642341 41.360786 
L 87.166456 41.38323 
L 88.480377 40.734677 
L 89.282898 40.543179 
L 89.788436 40.03744 
L 90.531028 37.195418 
L 90.998935 36.792195 
L 91.546934 36.681879 
L 92.750425 36.769371 
L 93.8401 36.565224 
L 94.844827 36.179976 
L 96.133041 35.288558 
L 97.347295 33.922719 
L 99.050308 32.493687 
L 99.117755 32.147524 
L 98.974432 31.729085 
L 99.212601 31.412086 
L 99.771138 31.155951 
L 101.077906 31.024079 
L 102.07695 30.291177 
L 102.612304 30.207489 
L 103.069672 30.430657 
L 103.309949 30.986039 
L 103.274118 31.253587 
L 103.006442 31.62511 
L 102.941103 31.953521 
L 103.000118 32.299684 
L 103.309949 33.026246 
L 103.404795 33.243073 
L 104.02024 34.197874 
L 104.492363 35.999697 
L 105.276047 36.967824 
L 105.128902 37.481732 
L 104.772056 37.968702 
L 103.735264 38.380776 
L 102.321274 39.531048 
L 101.55487 40.908783 
L 100.451094 42.472716 
L 98.627513 45.757305 
L 97.232655 49.14353 
L 96.566169 50.013754 
L 94.422354 50.553921 
L 91.917566 51.933501 
L 91.014288 51.688827 
L 90.117239 52.339377 
L 89.292523 53.579117 
L 88.566898 56.053614 
L 88.26126 57.334498 
L 88.142847 60.590209 
L 88.26801 61.623509 
L 89.27906 64.719817 
L 90.261243 66.028389 
L 90.619551 66.227465 
L 90.929381 66.531784 
L 91.610165 68.587206 
L 91.960041 69.000573 
L 93.814808 70.708564 
L 95.107808 71.273072 
L 96.664404 70.735192 
L 97.166034 70.936803 
L 97.640778 71.370437 
L 97.353795 71.785334 
L 97.20313 72.403731 
L 97.334649 73.035337 
L 97.633941 73.481672 
L 98.679355 73.973655 
L 101.017928 74.873374 
L 102.057981 74.756009 
L 102.809696 75.384676 
L 103.172897 76.109325 
L 102.190766 76.48936 
L 102.057981 77.213386 
L 102.133858 77.9577 
L 102.367812 78.624666 
L 102.764057 79.100164 
L 103.950802 79.46522 
L 103.241999 80.090084 
L 102.927079 81.709862 
L 103.027616 83.065402 
L 102.711013 83.702169 
L 102.841672 84.836039 
L 103.454394 85.807275 
L 104.372224 86.942722 
L 104.909685 87.353553 
L 105.912009 87.833952 
L 105.869996 88.440839 
L 105.149803 88.465708 
L 104.637661 88.85101 
L 104.138783 89.83748 
L 103.377257 90.47007 
L 102.654099 91.921713 
L 102.15915 92.364675 
L 102.329381 93.24777 
L 102.216789 94.192342 
L 101.342967 95.276071 
L 100.345766 95.771014 
L 99.615169 96.584567 
L 99.804164 97.310718 
L 99.585662 97.959076 
L 99.581029 99.197683 
L 98.131356 100.342909 
L 98.025971 100.528036 
L 98.417772 101.572316 
L 97.471513 102.007616 
L 96.859704 102.460032 
L 96.025225 103.37554 
L 95.621889 104.187418 
L 95.11736 104.647757 
L 94.877083 105.203139 
L 94.426038 105.705266 
L 94.008715 105.979153 
L 92.042241 106.686695 
L 91.903134 107.22813 
L 91.355834 108.892757 
L 91.311066 109.445583 
L 90.911992 109.820592 
L 90.336038 110.106932 
L 87.917493 110.466593 
L 87.034371 110.953503 
L 85.65726 113.235942 
L 84.148944 113.542752 
L 83.619914 113.403272 
L 83.152007 113.678428 
L 83.04873 113.869895 
L 82.252024 114.823428 
L 81.914793 114.91092 
L 80.68601 115.452355 
L 80.165411 115.861917 
L 79.130536 116.272748 
L 78.494495 116.944421 
L 78.173785 117.913582 
L 76.697493 120.665821 
L 76.335739 120.793156 
L 75.983755 121.102547 
L 76.228247 121.640177 
L 76.325201 122.260227 
L 76.405293 124.135594 
L 76.866877 125.918397 
L 77.113477 126.93533 
L 77.695199 128.095547 
L 80.32138 131.777809 
L 80.688118 131.974348 
L 84.401867 135.680702 
L 85.371404 136.265248 
L 87.767847 137.242873 
L 88.520292 137.416589 
L 90.310048 137.148605 
L 92.270594 136.590596 
L 93.916409 135.687853 
L 94.409176 135.552634 
L 95.013853 136.654455 
L 94.934385 138.79618 
L 94.173115 139.455527 
L 93.755793 139.629243 
L 93.435424 140.051486 
L 93.306855 140.58024 
L 93.458608 141.070955 
L 94.421822 142.513935 
L 94.965606 142.686382 
L 96.063713 142.445463 
L 98.023864 141.243402 
L 99.402293 140.766636 
L 99.809077 140.284797 
L 100.007199 139.693911 
L 99.838584 139.157548 
L 99.395969 138.640206 
L 99.326416 138.372658 
L 100.095722 137.753876 
L 100.39923 137.966899 
L 100.728029 138.022691 
L 101.008352 137.89082 
L 101.174859 137.540853 
L 101.349798 137.540853 
L 101.765012 137.819812 
L 103.309949 138.62499 
L 103.653502 139.057376 
L 104.637793 140.753956 
L 104.768282 142.3137 
L 104.076982 143.430061 
L 104.617088 145.336514 
L 104.391512 146.23678 
L 105.143639 146.004729 
L 106.167976 147.243561 
L 106.768667 147.57958 
L 107.388328 147.7254 
L 109.354802 148.644698 
L 109.00071 148.856453 
L 106.458837 148.022111 
L 105.208977 147.87756 
L 104.903362 148.856453 
L 105.154177 149.229244 
L 105.978284 150.021742 
L 106.15533 150.695048 
L 106.397714 151.004439 
L 106.96679 151.001903 
L 108.102835 150.791415 
L 109.203048 151.034871 
L 111.388722 151.855265 
L 112.541629 151.855265 
L 112.965274 151.550945 
L 112.821951 151.131239 
L 112.383552 150.759716 
L 111.624784 150.393265 
L 110.8618 149.515811 
L 113.205551 151.204782 
L 114.829912 151.934976 
L 114.854122 153.332569 
L 114.048416 156.77712 
L 114.035032 158.521135 
L 113.571952 160.633116 
L 113.759325 163.862684 
L 113.381901 167.148614 
L 113.400639 168.864448 
L 113.930638 170.069799 
L 115.665182 171.807373 
L 116.267455 172.927375 
L 116.358465 174.239009 
L 115.898061 175.211664 
L 115.057557 176.03053 
L 113.248063 177.261647 
L 98.464287 184.484896 
L 97.757621 185.261088 
L 96.713682 187.736204 
L 95.865147 188.604185 
L 94.925603 189.200017 
L 94.05833 189.923067 
L 93.552422 190.084102 
L 92.125706 189.551075 
L 91.542171 190.190386 
L 91.325353 192.686437 
L 90.98808 193.721895 
L 89.89596 194.770237 
L 89.459647 195.847564 
L 88.769042 196.712325 
L 88.346113 197.061773 
L 86.927427 197.63828 
L 84.017783 197.599631 
L 82.684754 198.701114 
L 80.936826 201.876735 
L 79.282584 203.778565 
L 78.875716 204.500005 
L 78.600009 206.532273 
L 78.648191 207.073353 
L 80.580816 212.403629 
L 81.370462 215.688754 
L 82.189552 217.471418 
L 82.22435 218.051146 
L 82.079805 219.24764 
L 82.194905 220.352344 
L 82.845359 222.535986 
L 82.834652 223.579496 
L 82.425107 224.837184 
L 80.827078 228.281734 
L 78.468848 231.07248 
L 75.73587 235.658773 
L 72.515721 240.001902 
L 71.85456 240.40288 
L 69.96744 240.533319 
L 69.204562 240.744275 
L 63.409365 243.936 
L 51.11498 186.505892 
L 50.823213 185.916502 
L 50.464526 185.476875 
L 36.550699 175.195561 
L 33.373378 173.13189 
L 32.629237 172.302557 
L 32.326763 171.27515 
L 31.727167 163.677493 
L 31.376511 162.681488 
L 26.298686 154.644204 
L 25.720505 154.2859 
L 25.179798 154.409092 
L 24.636415 154.371249 
L 23.603184 153.942089 
L 20.733691 151.844601 
L 19.788793 151.520114 
L 18.546773 151.402558 
L 17.593845 151.111084 
L 16.92733 150.371126 
L 16.531169 148.914559 
L 16.493694 144.654364 
L 16.102886 143.431299 
L 12.473192 137.054291 
L 12.251021 136.25958 
L 11.986021 134.639563 
L 11.062537 132.653189 
L 10.709204 130.938161 
L 10.578042 129.726368 
L 11.116072 126.599058 
L 11.196375 124.301886 
L 11.552385 123.458865 
L 13.161121 121.793757 
L 13.795514 120.951541 
L 14.504857 120.215609 
L 15.511321 119.710762 
L 17.157532 119.446664 
L 17.64738 119.185786 
L 17.971269 118.79447 
L 18.204147 118.288013 
L 19.17849 114.601104 
L 19.687075 113.506868 
L 20.698893 112.774156 
L 22.944699 111.791839 
L 24.026113 111.020479 
L 26.704254 109.706054 
L 27.770908 108.75954 
L 28.587321 108.181422 
L 29.045048 107.170119 
L 29.976562 106.58717 
L 30.174643 106.237723 
L 29.505452 105.192602 
L 29.577724 104.707885 
L 29.882876 104.242493 
L 30.953582 103.039557 
L 31.025855 102.616034 
L 30.544037 99.47262 
L 30.495855 98.313164 
L 30.758178 97.107007 
L 31.376511 95.44351 
L 31.831561 93.148754 
L 32.174187 92.04566 
L 33.397469 90.710676 
L 34.963377 88.337012 
L 35.220346 87.725076 
L 34.328983 87.040675 
L 33.250247 86.708942 
L 32.270551 86.237108 
L 31.673632 85.127573 
L 31.507672 83.850561 
L 31.561208 82.71204 
L 31.842268 81.62505 
L 32.771106 79.415642 
L 32.779136 78.494519 
L 32.431156 74.934023 
L 31.98949 73.914668 
L 30.72338 71.875958 
L 30.415552 70.785747 
L 30.303128 69.463645 
L 30.453027 66.983698 
L 31.106157 64.664786 
L 31.189137 62.948147 
L 31.735197 60.655001 
L 32.26252 59.548687 
L 32.195601 58.986672 
L 31.879743 57.790178 
L 32.002874 56.503504 
L 33.255218 52.998142 
L 33.325196 52.567795 
L 33.314489 50.68368 
L 33.094994 50.110393 
L 32.696156 49.873671 
L 32.206308 49.741622 
L 31.705753 49.490406 
L 29.45727 49.205373 
L 28.398248 48.763843 
L 28.450806 47.709353 
L 29.061109 46.987914 
L 29.807926 46.527352 
L 31.480905 45.915417 
L 34.615397 44.06995 
L 35.196255 43.446742 
L 35.78782 42.354921 
L 36.009992 41.259879 
L 35.488023 40.623789 
L 34.583276 40.163227 
L 34.749235 39.667238 
L 35.549588 39.283973 
L 36.550699 39.166417 
L 37.519688 39.230831 
L 38.411051 39.052082 
L 40.20716 38.353188 
L 40.670241 38.032727 
L 40.691655 37.654293 
L 39.714636 36.018977 
L 39.73605 35.642959 
L 39.65562 34.817925 
L 41.976186 33.887215 
L 42.608493 33.771828 
L 44.821567 33.771828 
L 45.401182 33.572752 
L 46.471888 32.695299 
L 47.454071 32.25784 
L 48.027363 31.721477 
L 48.8325 30.774284 
L 49.629207 29.291996 
L 50.22779 28.949637 
L 51.226835 28.041752 
L 54.388369 26.738251 
L 54.932153 25.886158 
L 55.406383 25.646506 
L 58.82084 25.59959 
L 59.809346 25.221727 
L 60.804176 24.337934 
L 61.419621 24.627037 
L 62.741143 24.265658 
L 63.898264 23.646876 
L 64.265002 23.288033 
L 64.791924 23.577136 
L 65.268262 23.493448 
L 66.764722 22.591903 
L 67.205229 22.480319 
L 68.345489 22.457495 
L 69.234934 22.176 
L 69.981056 22.633747 
L 72.198345 22.778298 
L 72.253145 23.075009 
L 72.253145 23.075009 
" clip-path="url(#p0a17ef2adf)" style="fill: none; stroke: #000000; stroke-width: 2"/>
   </g>
  </g>
 </g>
 <defs>
  <clipPath id="p0a17ef2adf">
   <rect x="0" y="-0" width="126.936507" height="266.112"/>
  </clipPath>
 </defs>
</svg>
