<?xml version="1.0" encoding="utf-8" standalone="no"?>
<!DOCTYPE svg PUBLIC "-//W3C//DTD SVG 1.1//EN"
  "http://www.w3.org/Graphics/SVG/1.1/DTD/svg11.dtd">
<svg xmlns:xlink="http://www.w3.org/1999/xlink" width="357.12pt" height="150.634995pt" viewBox="0 0 357.12 150.634995" xmlns="http://www.w3.org/2000/svg" version="1.1">
 <metadata>
  <rdf:RDF xmlns:dc="http://purl.org/dc/elements/1.1/" xmlns:cc="http://creativecommons.org/ns#" xmlns:rdf="http://www.w3.org/1999/02/22-rdf-syntax-ns#">
   <cc:Work>
    <dc:type rdf:resource="http://purl.org/dc/dcmitype/StillImage"/>
    <dc:date>2024-02-02T21:58:05.857396</dc:date>
    <dc:format>image/svg+xml</dc:format>
    <dc:creator>
     <cc:Agent>
      <dc:title>Matplotlib v3.8.2, https://matplotlib.org/</dc:title>
     </cc:Agent>
    </dc:creator>
   </cc:Work>
  </rdf:RDF>
 </metadata>
 <defs>
  <style type="text/css">*{stroke-linejoin: round; stroke-linecap: butt}</style>
 </defs>
 <g id="figure_1">
  <g id="patch_1">
   <path d="M 0 150.634995 
L 357.12 150.634995 
L 357.12 0 
L 0 0 
L 0 150.634995 
z
" style="fill: none"/>
  </g>
  <g id="axes_1">
   <g id="PatchCollection_1">
    <path d="M 35.617416 57.609516 
L 35.713564 57.62904 
L 35.78947 57.62904 
L 35.857785 57.655884 
L 35.936221 57.758382 
L 36.194302 57.616838 
L 36.285389 57.811257 
L 36.265148 58.51003 
L 36.160144 58.811828 
L 35.91345 58.788238 
L 35.407409 58.441698 
L 34.949443 58.226942 
L 34.740701 58.068315 
L 34.653409 57.826713 
L 34.777389 57.665646 
L 35.060772 57.606262 
L 35.617416 57.609516 
" clip-path="url(#pb4313e0e6a)" style="fill: none; stroke: #000000; stroke-width: 2"/>
    <path d="M 34.420631 51.370184 
L 34.573708 51.448278 
L 34.85456 51.363677 
L 35.086074 51.181459 
L 35.184752 51.181459 
L 35.184752 51.591449 
L 34.843174 51.77448 
L 34.494007 51.897314 
L 33.446503 52.057568 
L 32.760819 52.355299 
L 31.356557 52.569242 
L 31.035221 52.546465 
L 30.660752 52.41631 
L 30.476047 52.313812 
L 30.398876 52.206434 
L 29.76 51.989237 
L 29.76 51.864775 
L 30.116758 51.296158 
L 30.626594 50.769028 
L 31.249023 50.378562 
L 32.304117 50.180888 
L 33.647654 49.687924 
L 33.843745 49.657012 
L 34.034775 49.680602 
L 34.134718 49.773338 
L 34.218215 49.920577 
L 34.339664 50.051546 
L 34.557262 50.090592 
L 34.557262 50.226442 
L 34.516778 50.393204 
L 34.486416 50.647821 
L 34.490211 50.900811 
L 34.557262 51.057811 
L 34.420631 51.370184 
" clip-path="url(#pb4313e0e6a)" style="fill: none; stroke: #000000; stroke-width: 2"/>
    <path d="M 60.413389 45.179661 
L 60.570262 45.317951 
L 60.692976 45.307376 
L 60.753701 45.365132 
L 60.747376 45.5262 
L 60.577852 45.558739 
L 60.357725 45.439972 
L 60.099644 45.380588 
L 59.811201 45.355371 
L 59.588543 45.204878 
L 59.555651 44.984427 
L 59.725174 44.838002 
L 59.854215 44.585012 
L 59.980725 44.406862 
L 60.496886 44.633007 
L 60.522188 44.770484 
L 60.438691 44.948634 
L 60.413389 45.179661 
" clip-path="url(#pb4313e0e6a)" style="fill: none; stroke: #000000; stroke-width: 2"/>
    <path d="M 60.355194 41.247336 
L 60.762557 41.453958 
L 61.007986 41.388067 
L 61.459627 41.456398 
L 61.854339 41.663834 
L 61.930245 42.012813 
L 61.643067 42.222689 
L 61.05606 42.312984 
L 60.762557 42.408161 
L 60.248926 42.854757 
L 59.941507 42.980032 
L 59.596134 42.830353 
L 59.425345 42.823032 
L 59.117926 42.695316 
L 58.872496 42.476492 
L 58.91804 42.049419 
L 58.811772 41.902994 
L 58.723215 41.734606 
L 58.795325 41.514968 
L 58.916775 41.378305 
L 59.026839 41.309973 
L 59.114131 41.362849 
L 59.160939 41.578419 
L 59.54806 41.387253 
L 59.949097 41.251403 
L 60.355194 41.247336 
" clip-path="url(#pb4313e0e6a)" style="fill: none; stroke: #000000; stroke-width: 2"/>
    <path d="M 55.708821 13.379534 
L 56.709782 14.741173 
L 57.082531 15.053172 
L 58.460257 15.863647 
L 59.034645 16.503658 
L 59.2885 16.398281 
L 59.073205 16.309433 
L 59.110158 16.26501 
L 59.256366 16.17358 
L 59.166392 16.120374 
L 59.102125 16.042891 
L 59.593768 15.829554 
L 59.720696 15.669422 
L 59.919924 15.754654 
L 60.012308 15.457635 
L 61.221333 15.15545 
L 61.794917 15.175596 
L 62.818371 15.673554 
L 63.21522 15.591422 
L 63.261011 15.470032 
L 63.019206 15.32643 
L 63.22486 14.624948 
L 64.58411 14.90647 
L 64.796191 14.96949 
L 65.790725 14.957093 
L 66.346843 15.076896 
L 66.743953 16.429925 
L 66.784436 16.722775 
L 66.484607 16.779718 
L 65.939349 16.671526 
L 65.736933 16.779718 
L 65.605362 17.051418 
L 65.558554 17.547636 
L 65.650906 18.081274 
L 66.416292 19.117637 
L 66.890705 20.284156 
L 67.305658 20.686012 
L 67.439758 21.183857 
L 67.277825 21.188737 
L 67.266439 21.314012 
L 67.596631 21.990821 
L 67.847121 22.293433 
L 68.291171 22.545609 
L 68.84908 23.360708 
L 69.704288 24.144082 
L 72.059906 25.574166 
L 75.426339 26.972525 
L 80.208419 29.190864 
L 82.128842 29.622818 
L 82.333788 29.393418 
L 83.091584 29.593533 
L 83.329423 29.815611 
L 82.980255 30.683585 
L 82.709523 31.026871 
L 82.304691 31.367716 
L 82.699402 32.031509 
L 82.599459 32.134006 
L 82.432466 32.884841 
L 82.121251 33.442883 
L 81.453278 34.087153 
L 81.421651 34.467045 
L 81.350805 34.486568 
L 80.705604 34.383257 
L 80.518369 34.603708 
L 79.298812 35.013698 
L 78.864882 35.287025 
L 78.304443 35.206491 
L 78.059013 34.933164 
L 77.671892 34.916081 
L 75.805869 35.151175 
L 75.339047 34.960009 
L 75.468087 34.330381 
L 75.177114 34.079018 
L 75.032892 34.04648 
L 75.141691 33.592562 
L 74.984819 33.190707 
L 74.666013 32.910059 
L 74.291543 32.817323 
L 74.36998 33.107733 
L 74.706496 33.446951 
L 74.835537 33.986283 
L 74.691315 34.552459 
L 74.50155 34.728169 
L 74.052439 34.666345 
L 73.247835 33.862635 
L 72.853124 33.661707 
L 72.338228 33.573852 
L 70.720164 33.102852 
L 70.063577 33.056484 
L 69.765013 32.817323 
L 68.909805 32.966188 
L 68.65552 32.817323 
L 66.044352 33.878904 
L 65.877359 34.04648 
L 65.429513 34.853444 
L 65.452285 35.013698 
L 65.172698 35.097486 
L 63.920248 34.950247 
L 63.214322 34.467045 
L 62.605809 34.300283 
L 62.009946 34.266931 
L 58.689057 34.735491 
L 58.207054 35.013698 
L 57.873067 35.682372 
L 57.482151 37.284099 
L 57.144369 37.892576 
L 55.683178 39.298256 
L 55.01647 40.446066 
L 53.536302 41.549947 
L 53.303523 41.863948 
L 52.331926 42.242212 
L 51.279362 42.272311 
L 51.016221 42.485441 
L 50.381141 43.240343 
L 49.166644 43.501467 
L 47.758587 44.45323 
L 46.800906 44.592334 
L 46.509933 44.766417 
L 45.618037 45.405806 
L 45.314413 46.243682 
L 44.708429 46.665061 
L 44.581919 47.323973 
L 44.346611 47.591606 
L 43.385134 48.440057 
L 42.929698 48.55069 
L 42.39203 49.121747 
L 41.269886 50.124758 
L 40.366604 50.517665 
L 40.417208 50.886168 
L 40.612034 51.261179 
L 40.837221 51.442583 
L 39.860564 52.311372 
L 39.240664 52.660351 
L 38.580282 53.214326 
L 37.590973 53.514497 
L 37.442956 53.405492 
L 37.606154 52.928797 
L 38.126111 52.206434 
L 38.332322 51.591449 
L 39.033188 50.623417 
L 39.222953 49.905121 
L 39.144517 49.358467 
L 38.848483 48.931395 
L 38.385456 48.576721 
L 38.597993 48.311529 
L 38.529678 48.207404 
L 38.258946 48.075622 
L 38.604319 47.713627 
L 38.883906 47.524088 
L 39.987074 47.210901 
L 40.219852 46.808232 
L 40.991564 46.317708 
L 41.722792 45.718179 
L 42.638725 45.384656 
L 43.769725 44.526442 
L 44.678067 44.209188 
L 45.406765 44.299484 
L 45.624362 44.209188 
L 46.160765 43.486011 
L 46.385953 43.240343 
L 46.750302 43.419307 
L 47.248752 43.257426 
L 47.690272 42.897058 
L 47.881302 42.476492 
L 47.281644 41.305092 
L 46.09751 41.490564 
L 45.52695 41.727284 
L 44.46553 41.727284 
L 44.042987 41.856627 
L 42.855057 42.544824 
L 42.164312 42.164119 
L 41.69496 42.212927 
L 41.209161 42.433378 
L 40.794208 42.22757 
L 40.531067 42.256041 
L 39.698631 42.493575 
L 36.414429 42.408161 
L 36.190507 42.280446 
L 35.829953 41.305092 
L 35.941282 41.00004 
L 35.898268 40.563206 
L 35.742661 40.124744 
L 35.511148 39.816438 
L 35.678141 39.748106 
L 36.263199 39.806481 
L 36.740383 39.578164 
L 37.085819 39.175251 
L 37.217566 38.642167 
L 37.455354 38.27438 
L 38.290827 37.569799 
L 38.194426 37.218541 
L 38.512548 36.742278 
L 38.510942 36.532557 
L 38.607342 36.805298 
L 38.713383 36.805298 
L 38.915825 36.507762 
L 39.137546 36.110015 
L 39.381761 36.374491 
L 39.72077 36.338332 
L 39.616336 36.070757 
L 39.571349 35.986042 
L 39.75933 35.799049 
L 40.421282 35.428162 
L 40.532143 35.156454 
L 40.381115 35.08517 
L 40.173853 34.704985 
L 40.352195 34.498364 
L 40.71691 34.365092 
L 40.811704 33.897094 
L 40.398788 33.700803 
L 40.048532 33.038579 
L 40.006759 32.749309 
L 40.271861 32.230688 
L 39.928032 31.911457 
L 40.21884 31.469286 
L 40.034072 31.123194 
L 39.985872 30.768837 
L 40.21884 29.943383 
L 39.977839 29.597291 
L 40.15136 29.439225 
L 41.401355 29.207809 
L 43.392029 27.486648 
L 43.554304 27.687071 
L 44.184121 27.93605 
L 44.473323 27.908157 
L 44.674158 27.714965 
L 44.89106 26.953563 
L 44.821972 26.128108 
L 44.569724 25.152853 
L 44.41709 24.062922 
L 44.251602 23.775718 
L 44.348002 23.577361 
L 44.251602 22.275642 
L 43.955973 22.704383 
L 43.801732 22.549416 
L 43.0964 22.196093 
L 42.214334 21.554532 
L 42.397495 21.010599 
L 41.280854 20.688786 
L 40.861511 20.312734 
L 40.585163 20.227502 
L 40.177067 20.264694 
L 40.019612 20.051874 
L 39.911965 19.65051 
L 39.969805 19.216604 
L 40.18992 18.735175 
L 40.832591 18.193826 
L 42.431236 18.260461 
L 43.173521 18.041442 
L 43.382389 17.766635 
L 43.58988 16.893922 
L 43.650704 16.312016 
L 43.435409 16.119858 
L 43.596077 15.895673 
L 43.710151 15.813541 
L 44.410663 15.179211 
L 44.688618 15.146668 
L 46.44793 15.348125 
L 47.129162 14.858947 
L 47.861807 15.151834 
L 48.375944 14.769583 
L 49.002548 14.658008 
L 49.164019 14.591889 
L 49.590592 14.603253 
L 50.892001 13.050489 
L 51.285058 12.870028 
L 51.841548 12.960092 
L 52.517959 13.27674 
L 53.363072 13.210621 
L 53.904522 12.616066 
L 54.243531 12.570093 
L 54.789802 12.693549 
L 55.286265 12.976621 
L 55.708821 13.379534 
L 55.708821 13.379534 
" clip-path="url(#pb4313e0e6a)" style="fill: none; stroke: #000000; stroke-width: 2"/>
    <path d="M 174.760778 12.705849 
L 174.958134 12.826243 
L 175.061872 12.67331 
L 175.276939 12.678191 
L 175.555261 13.086554 
L 175.66406 13.225658 
L 175.595744 13.496544 
L 176.529389 14.090379 
L 177.146758 13.957783 
L 177.566771 13.645409 
L 177.948831 13.766617 
L 178.267637 14.192063 
L 177.043019 14.13756 
L 176.719154 14.389737 
L 176.440831 15.13325 
L 176.337093 15.966246 
L 176.438301 16.273738 
L 176.85958 17.020506 
L 177.326402 17.612714 
L 178.161368 18.435947 
L 177.948831 18.435947 
L 178.196791 19.018394 
L 178.399207 19.288466 
L 178.847053 19.512985 
L 179.540328 20.222332 
L 180.465117 20.588395 
L 181.139415 20.694146 
L 181.392435 20.856841 
L 181.885825 21.314012 
L 182.45765 21.623132 
L 183.145865 21.839515 
L 183.869503 21.930624 
L 184.867667 21.738645 
L 185.455939 21.386411 
L 186.417415 21.225344 
L 188.431456 20.495659 
L 188.7996 20.376079 
L 189.437211 19.87742 
L 189.778788 19.80014 
L 189.711737 20.059638 
L 189.501731 20.283343 
L 189.346123 20.346794 
L 189.37016 20.648592 
L 189.076657 21.269271 
L 189.133586 21.600354 
L 189.248711 21.600354 
L 189.281603 21.120406 
L 189.640892 20.32483 
L 190.106449 19.931923 
L 191.042623 20.768986 
L 191.042623 20.495659 
L 191.148892 20.495659 
L 192.322905 21.969671 
L 192.540503 22.543169 
L 192.487368 23.559196 
L 192.327966 23.983015 
L 192.374774 24.940471 
L 192.540503 25.285384 
L 193.231248 26.12326 
L 193.63355 26.393333 
L 194.131999 27.345095 
L 194.38755 27.546023 
L 195.733617 28.303366 
L 195.794341 28.747521 
L 196.746962 29.449548 
L 197.173301 29.596786 
L 197.461744 29.713113 
L 197.851395 29.622818 
L 198.501657 29.268957 
L 199.456808 28.375765 
L 199.506147 28.180531 
L 199.807241 27.647707 
L 199.881882 27.197043 
L 200.086828 27.021333 
L 202.234969 27.197043 
L 203.457056 27.506976 
L 205.760804 28.632008 
L 206.233952 29.029796 
L 206.492033 29.665118 
L 206.613482 30.890207 
L 208.102506 31.588167 
L 210.091244 31.563762 
L 210.649153 31.713441 
L 211.180496 32.134006 
L 212.141972 32.351203 
L 212.782113 32.966188 
L 213.477919 33.276121 
L 213.842268 33.661707 
L 214.153482 33.776407 
L 215.330026 33.593376 
L 215.560274 33.349334 
L 215.947395 32.489494 
L 216.443314 31.895659 
L 216.719106 31.713441 
L 216.854472 32.03883 
L 217.112553 32.225929 
L 217.409851 32.227556 
L 217.674257 31.998157 
L 217.780526 32.134006 
L 218.181563 32.068115 
L 218.201804 33.320049 
L 218.475066 33.661707 
L 219.488412 34.208361 
L 219.921076 34.877035 
L 220.527059 34.617537 
L 221.257023 34.715154 
L 223.130637 35.325258 
L 225.025757 35.696201 
L 225.712707 35.511543 
L 226.008741 35.574994 
L 226.685569 36.161507 
L 227.001845 36.161507 
L 227.593912 35.980917 
L 228.5731 36.184285 
L 228.750214 36.043554 
L 229.926757 35.980917 
L 230.167127 35.819036 
L 230.942633 35.150361 
L 231.634643 35.013698 
L 232.233036 35.465175 
L 232.697328 35.423688 
L 234.069962 34.364547 
L 235.413499 33.978148 
L 235.662724 33.766645 
L 235.960022 33.667402 
L 237.736224 33.651946 
L 239.126569 33.290764 
L 239.703455 32.925515 
L 240.506794 33.062178 
L 240.985002 33.459153 
L 241.33417 33.511215 
L 241.596046 33.42336 
L 242.01859 33.158981 
L 242.514509 33.041028 
L 243.774549 32.27067 
L 244.749942 32.500069 
L 246.290834 34.018008 
L 246.881636 34.349905 
L 247.497741 34.467045 
L 248.43518 34.176635 
L 249.031043 34.491449 
L 249.510516 34.513413 
L 250.712361 35.362678 
L 251.010925 35.423688 
L 251.26268 35.243911 
L 252.622663 34.877035 
L 253.964935 35.989865 
L 254.851771 36.063077 
L 257.312391 35.150361 
L 259.859039 33.511215 
L 260.400502 33.744681 
L 260.858469 33.794303 
L 261.297459 33.670655 
L 261.779462 33.374552 
L 262.576475 32.817323 
L 263.295053 32.68066 
L 263.487348 32.557825 
L 264.409606 31.353887 
L 265.673442 30.496487 
L 265.90875 30.535533 
L 266.574193 30.769813 
L 266.966375 30.708803 
L 267.806401 30.210958 
L 268.493351 30.04745 
L 269.132227 29.665118 
L 270.064606 28.810972 
L 271.143737 28.607604 
L 272.608724 27.445966 
L 274.535472 26.716281 
L 274.930183 25.940229 
L 274.989643 25.496073 
L 275.151576 25.398456 
L 276.061183 24.615083 
L 276.27372 24.239258 
L 278.126859 24.94933 
L 278.591189 24.914205 
L 279.100506 24.742708 
L 279.347934 25.331581 
L 280.008279 25.452455 
L 280.816437 26.086784 
L 280.965859 26.003102 
L 281.58925 25.48758 
L 282.289761 24.653861 
L 282.914759 24.412113 
L 284.028186 24.822258 
L 285.239622 24.556749 
L 285.461343 24.653861 
L 286.185955 24.525755 
L 287.039101 24.91937 
L 287.803879 24.877013 
L 290.735286 25.895732 
L 290.922441 25.886361 
L 291.245383 25.679739 
L 292.20457 24.331531 
L 292.509839 23.181679 
L 292.909813 22.920964 
L 293.21517 22.82319 
L 293.999229 22.759138 
L 296.174671 22.939932 
L 296.4703 23.077335 
L 296.298385 23.465785 
L 296.201985 23.841837 
L 295.639647 24.436908 
L 296.038103 24.666258 
L 296.333732 24.980324 
L 296.626147 25.073303 
L 297.217405 24.519557 
L 297.415026 24.898708 
L 297.662455 25.192111 
L 298.215152 25.42766 
L 298.4915 25.649779 
L 298.612001 25.78305 
L 299.301266 26.868848 
L 300.445221 27.625084 
L 301.195539 28.263546 
L 301.675133 28.484632 
L 302.150709 28.645797 
L 301.713693 29.127226 
L 300.872597 29.545635 
L 301.295153 29.675807 
L 301.943448 29.674774 
L 302.257553 30.021899 
L 302.630303 30.910373 
L 302.854434 31.068439 
L 304.737461 30.648997 
L 305.227497 30.777102 
L 305.65166 31.017817 
L 306.071807 31.396968 
L 306.292725 31.869099 
L 306.051723 32.855719 
L 306.180257 33.491082 
L 306.427686 34.062391 
L 306.724921 34.337198 
L 307.390086 34.430178 
L 308.059267 34.756641 
L 308.672215 35.252534 
L 309.337379 36.24122 
L 309.681208 37.875599 
L 310.471694 39.259966 
L 310.526321 39.590561 
L 310.561668 41.137127 
L 310.143932 41.825178 
L 310.262826 42.27768 
L 309.604088 43.034949 
L 309.396826 43.448193 
L 309.412893 43.927556 
L 309.318902 43.855238 
L 309.085934 43.778788 
L 309.134938 43.860404 
L 309.202418 44.063927 
L 308.834489 44.107317 
L 308.498693 44.335634 
L 307.966883 44.957567 
L 308.03115 45.22101 
L 308.976915 46.292119 
L 308.506727 47.605427 
L 308.665788 47.918459 
L 309.085934 48.307941 
L 309.777609 49.19435 
L 310.017004 49.740865 
L 309.732622 49.958851 
L 309.89811 50.311141 
L 310.483744 51.125232 
L 310.331913 51.383509 
L 309.628188 51.534343 
L 309.412893 51.7327 
L 309.613728 52.309175 
L 310.325486 52.697625 
L 311.749003 53.097438 
L 313.448868 54.025171 
L 315.319041 54.339236 
L 315.566469 54.254521 
L 316.107116 53.879502 
L 316.59153 53.833012 
L 316.920899 54.065462 
L 317.846345 53.896032 
L 318.783038 53.643953 
L 319.308422 53.643953 
L 319.877186 53.818549 
L 322.033348 55.065512 
L 323.331543 56.281482 
L 323.578972 56.876554 
L 323.76856 57.183387 
L 324.003135 57.35385 
L 324.113995 57.890034 
L 324.321257 57.763995 
L 325.171189 58.582218 
L 325.572859 58.64937 
L 325.662029 58.804336 
L 327.007622 60.704225 
L 327.18516 61.461495 
L 327.36 61.710582 
L 325.79458 60.548226 
L 324.865117 60.118452 
L 323.993495 59.079144 
L 323.609499 59.191753 
L 321.957834 60.539961 
L 321.888747 60.766212 
L 321.928914 61.734236 
L 321.83653 61.99148 
L 321.250895 63.290099 
L 321.250895 63.900667 
L 321.294276 64.396559 
L 321.136821 64.634175 
L 321.059701 65.080478 
L 321.107901 65.819151 
L 320.846013 66.216899 
L 320.547171 66.434885 
L 319.400003 66.882221 
L 319.00476 66.849162 
L 317.930696 66.31711 
L 317.55875 66.275786 
L 316.356955 66.537163 
L 315.768911 66.501004 
L 315.219427 66.783043 
L 315.045906 67.024791 
L 315.1407 67.266538 
L 315.61949 67.945291 
L 316.11274 69.968637 
L 316.022766 70.503788 
L 316.424435 70.812171 
L 317.716204 71.601983 
L 317.843132 72.093743 
L 317.455922 73.016827 
L 317.59972 73.80509 
L 317.063893 74.766915 
L 317.412542 75.463231 
L 317.52983 75.587721 
L 317.651937 76.240129 
L 318.01344 76.989134 
L 318.265688 77.233464 
L 319.089914 77.630695 
L 319.164624 78.217501 
L 318.680211 80.064702 
L 318.795892 81.061653 
L 318.61273 81.32148 
L 319.321275 81.722843 
L 319.432136 82.053954 
L 319.48114 84.618649 
L 319.282715 85.660024 
L 319.457843 86.95451 
L 319.686795 87.061954 
L 320.463623 87.206073 
L 321.173775 86.862564 
L 321.636498 87.147185 
L 321.946587 87.731409 
L 321.953014 88.049607 
L 321.604365 88.55893 
L 321.042027 89.0042 
L 320.604208 89.507325 
L 320.617061 90.8545 
L 320.304562 91.696484 
L 319.899679 91.928417 
L 319.877989 92.102496 
L 320.004113 92.478548 
L 319.918156 92.603555 
L 319.414463 92.915554 
L 319.141327 93.589141 
L 319.00476 93.895458 
L 318.484196 94.618635 
L 318.257655 95.11866 
L 318.307462 95.654844 
L 318.320315 95.908473 
L 317.956403 96.551067 
L 318.228734 96.988072 
L 318.770185 97.077436 
L 319.963947 97.014933 
L 320.690165 97.411647 
L 321.221172 98.33938 
L 321.429237 98.278426 
L 321.557771 98.471618 
L 321.48547 98.910689 
L 321.599545 99.137457 
L 321.818053 99.160702 
L 322.688069 98.906557 
L 323.122675 99.109563 
L 323.510688 99.453072 
L 324.117209 100.352394 
L 323.958148 100.613254 
L 323.291376 101.232087 
L 323.223093 101.838006 
L 323.946901 102.811712 
L 323.704293 103.707418 
L 323.757313 104.614488 
L 323.819973 104.951799 
L 323.612712 105.547386 
L 323.709113 105.874882 
L 323.917981 105.997306 
L 324.496385 106.052577 
L 324.73578 106.238537 
L 325.100496 106.97721 
L 325.666046 106.889396 
L 325.899014 107.354295 
L 326.029155 107.624454 
L 326.924075 108.213843 
L 327.275937 108.635868 
L 327.227737 109.283111 
L 326.830888 109.655547 
L 326.637283 109.824461 
L 326.528832 110.182433 
L 326.724847 110.925756 
L 326.821248 111.263583 
L 326.724847 111.649966 
L 326.533652 111.305424 
L 326.221957 111.143742 
L 324.301977 110.921623 
L 323.803907 111.160272 
L 322.640672 112.155673 
L 322.264709 112.64795 
L 321.469404 113.192399 
L 320.148714 113.638702 
L 319.725355 114.607759 
L 319.435349 115.088155 
L 319.242548 115.103652 
L 318.456883 114.813864 
L 317.729058 113.149008 
L 317.613377 112.735764 
L 317.623017 112.309606 
L 317.756371 111.904111 
L 318.215881 111.436112 
L 318.54766 111.329185 
L 318.695474 110.899928 
L 318.60068 110.212393 
L 318.284165 109.408118 
L 317.682464 108.906026 
L 315.887875 108.215228 
L 315.368045 108.124995 
L 314.665123 108.23967 
L 314.096359 108.740212 
L 313.161273 109.990791 
L 312.327407 110.146791 
L 311.85183 110.494949 
L 310.880593 109.876116 
L 310.474907 109.836858 
L 308.506727 109.899878 
L 307.308145 109.443243 
L 306.724921 109.621971 
L 306.471066 109.515561 
L 305.748061 108.906026 
L 304.904636 108.411517 
L 304.308478 108.045446 
L 303.884315 108.154955 
L 303.600736 108.334717 
L 303.363751 108.275829 
L 301.054152 107.067607 
L 300.570542 107.113581 
L 299.349466 107.544904 
L 298.952617 107.853287 
L 298.290666 108.08677 
L 297.664061 107.991724 
L 296.245365 107.452957 
L 296.177884 107.108415 
L 295.856549 106.98031 
L 295.718374 106.99219 
L 294.849162 107.384256 
L 294.701347 107.825393 
L 294.6419 107.982943 
L 292.693 110.90406 
L 292.448785 111.555953 
L 292.19975 111.670628 
L 290.861387 111.902044 
L 289.971288 112.205262 
L 289.277203 112.288427 
L 289.235429 111.440244 
L 288.936587 111.065226 
L 289.214543 109.948434 
L 289.007281 109.636435 
L 288.409597 109.090953 
L 288.166989 108.758292 
L 287.877787 108.999006 
L 287.177275 108.64155 
L 287.183702 108.210743 
L 287.006967 107.991724 
L 286.499257 108.363644 
L 285.718412 109.423614 
L 284.547143 110.555902 
L 283.867519 110.976378 
L 275.636508 112.976479 
L 270.972322 113.095286 
L 270.278238 112.802916 
L 266.568418 112.034282 
L 263.653905 112.47852 
L 262.884306 112.78277 
L 260.805265 113.969814 
L 259.736824 114.204846 
L 259.06684 114.406819 
L 256.696368 116.030897 
L 255.006765 117.078957 
L 253.864417 117.38889 
L 252.318793 118.346583 
L 248.983329 119.642103 
L 240.811766 121.258919 
L 239.976293 121.294045 
L 237.587163 120.461359 
L 233.906264 120.751662 
L 232.812117 120.605994 
L 231.865784 120.094605 
L 229.770676 117.811432 
L 229.002684 117.371327 
L 226.048003 116.452376 
L 225.027763 116.318589 
L 224.495952 116.375926 
L 223.453218 116.793819 
L 221.664986 117.970531 
L 221.231183 118.092438 
L 218.739226 119.274316 
L 216.163721 119.842526 
L 215.220601 120.274366 
L 212.931085 121.800269 
L 212.283594 121.795103 
L 209.410854 121.341568 
L 208.422747 121.606044 
L 207.619408 121.464508 
L 207.326993 121.600879 
L 206.820889 122.085407 
L 206.221599 121.639104 
L 206.163758 121.409753 
L 206.282652 120.351849 
L 206.160545 120.094605 
L 205.154764 119.231958 
L 204.54744 119.033601 
L 203.56576 118.968515 
L 200.397391 117.924041 
L 200.450412 118.412702 
L 199.761147 119.989227 
L 199.695273 120.768192 
L 199.510505 121.236191 
L 199.30003 122.081275 
L 199.238977 123.833429 
L 198.708773 124.902697 
L 198.74894 125.233293 
L 199.124903 126.469925 
L 199.674386 127.012307 
L 199.688846 127.339803 
L 199.587626 127.985497 
L 200.354011 128.145629 
L 200.686593 128.671482 
L 200.852081 129.284116 
L 200.776567 129.900882 
L 199.380364 130.113703 
L 197.915074 129.970101 
L 197.683712 130.162259 
L 197.588918 130.41847 
L 197.27883 130.452563 
L 196.639372 130.316192 
L 196.248949 129.928776 
L 196.069001 130.117835 
L 196.292329 130.390576 
L 196.144515 130.696377 
L 196.054541 130.847211 
L 196.025621 131.140614 
L 196.015981 134.599465 
L 195.685005 134.714141 
L 195.072861 134.464128 
L 194.762772 134.599465 
L 194.632631 135.304046 
L 194.385203 135.366033 
L 194.010847 135.25549 
L 193.51117 135.444549 
L 193.168948 136.025157 
L 193.074154 137.436385 
L 192.864734 138.033028 
L 192.603397 138.082078 
L 191.239328 137.169842 
L 190.511503 137.094425 
L 190.331555 136.931194 
L 190.342801 136.431169 
L 190.337981 136.172892 
L 190.143573 135.941475 
L 189.071585 136.123435 
L 189.072862 136.120976 
L 190.088737 134.459865 
L 190.068496 134.109259 
L 189.648482 132.723102 
L 188.153133 130.210286 
L 187.97855 129.590421 
L 187.319432 128.84772 
L 187.144848 128.396243 
L 187.166355 128.076549 
L 187.873546 127.156512 
L 188.302415 127.011714 
L 188.61363 126.388594 
L 189.027318 126.119334 
L 189.448597 125.29366 
L 189.554865 125.196043 
L 190.298744 124.890178 
L 191.31209 123.717964 
L 193.39065 122.404207 
L 193.733492 121.636289 
L 193.801808 121.074993 
L 193.589271 120.359138 
L 193.539932 118.794017 
L 193.38812 118.450732 
L 192.469657 117.100368 
L 191.934519 116.543953 
L 191.361429 116.117693 
L 190.765566 115.95988 
L 190.217778 116.174636 
L 189.686435 116.665974 
L 188.587063 117.967529 
L 188.178435 118.16927 
L 187.425701 118.983556 
L 186.829838 119.130795 
L 185.539435 119.192618 
L 184.973935 119.405748 
L 184.795556 119.592847 
L 184.442593 120.087438 
L 184.503318 119.949148 
L 184.465365 119.771811 
L 184.336325 119.677448 
L 183.956795 120.228982 
L 183.812573 120.471397 
L 183.912516 120.782143 
L 184.14656 120.450246 
L 184.494462 120.560065 
L 184.540006 120.237117 
L 184.628563 120.266402 
L 184.761399 120.497428 
L 184.833509 120.359138 
L 184.8411 120.077676 
L 184.761399 119.950775 
L 184.980261 119.820619 
L 185.239607 120.237117 
L 185.929086 120.087438 
L 185.011888 120.52834 
L 184.583019 120.869998 
L 184.336325 121.328796 
L 184.366687 121.546807 
L 184.575429 121.399569 
L 185.47618 120.423402 
L 185.717815 120.360765 
L 185.043516 121.149833 
L 184.448919 122.473352 
L 184.066858 122.693803 
L 183.372318 122.693803 
L 182.734707 122.14715 
L 182.38554 122.339129 
L 182.346321 122.513212 
L 182.628439 122.595373 
L 183.159781 122.829653 
L 182.503194 122.643368 
L 181.70112 122.59944 
L 181.248214 122.897984 
L 181.050858 123.131451 
L 180.719402 123.251845 
L 180.284207 123.661835 
L 180.124805 123.571539 
L 179.706056 123.102979 
L 179.485929 123.033834 
L 174.629207 120.069541 
L 174.072563 119.925557 
L 173.566523 119.991448 
L 173.356516 120.087438 
L 173.390674 119.994702 
L 173.472905 119.677448 
L 173.250248 119.565189 
L 172.612637 118.859095 
L 171.341211 118.164389 
L 171.251389 118.314068 
L 170.798483 118.05213 
L 170.130509 118.208317 
L 169.101983 118.710229 
L 168.455516 118.859095 
L 167.891281 119.217836 
L 167.658503 119.677448 
L 167.18156 119.950775 
L 165.813986 121.226299 
L 163.653194 122.744238 
L 162.183147 124.815338 
L 161.974405 125.143981 
L 161.651805 125.299354 
L 161.100221 125.890749 
L 160.561288 126.204749 
L 160.523335 126.73676 
L 160.570144 127.904906 
L 160.257664 128.16359 
L 159.355647 128.423088 
L 159.192449 128.84772 
L 159.332875 128.760679 
L 159.294922 128.890834 
L 158.873644 129.543239 
L 158.721832 130.209473 
L 158.44857 130.21354 
L 158.44857 130.088266 
L 158.596587 129.727084 
L 158.519415 129.177177 
L 158.285372 128.67201 
L 157.542758 128.231922 
L 157.355523 128.183927 
L 157.112624 128.383228 
L 156.683754 129.047021 
L 156.421879 129.133249 
L 156.540798 129.165788 
L 156.634415 129.282928 
L 156.463627 129.448063 
L 156.235909 129.867815 
L 155.24913 130.306276 
L 154.701342 131.057924 
L 154.512842 131.739614 
L 154.467298 131.615966 
L 153.875231 130.629225 
L 153.450157 130.771582 
L 153.087073 131.105106 
L 152.398858 131.929967 
L 152.061077 131.864075 
L 152.273613 131.739614 
L 152.273613 131.590749 
L 151.248882 131.36135 
L 150.937667 131.317422 
L 150.602415 131.386567 
L 149.821848 131.739614 
L 148.89453 131.47849 
L 148.607352 131.835604 
L 146.937419 132.012941 
L 145.897506 131.844552 
L 145.115674 132.824786 
L 145.063805 132.762149 
L 144.720963 132.666972 
L 144.231369 132.694631 
L 142.895422 132.409915 
L 141.586043 133.259994 
L 140.762463 133.935989 
L 140.091959 133.889621 
L 138.694023 133.545523 
L 138.098161 133.24047 
L 137.096201 132.557967 
L 136.249848 132.419677 
L 134.906312 131.528111 
L 134.791187 131.290577 
L 133.949895 130.921261 
L 133.023842 129.789721 
L 132.667083 129.4684 
L 132.560815 128.724886 
L 132.196466 128.174979 
L 131.255231 127.314325 
L 130.799795 126.186853 
L 130.575872 125.809402 
L 130.321587 125.709344 
L 129.854765 124.760022 
L 129.623251 124.616851 
L 128.560567 123.55283 
L 127.959644 123.395829 
L 127.774939 123.251845 
L 126.8375 123.230695 
L 126.52755 122.861378 
L 125.697644 122.63686 
L 125.419322 122.693803 
L 125.273835 122.547378 
L 124.677973 122.283813 
L 124.173198 121.638729 
L 123.658302 121.611885 
L 122.216087 120.843967 
L 121.990899 120.57064 
L 119.058396 119.217023 
L 118.60802 119.132421 
L 118.572597 118.646779 
L 118.021013 118.314068 
L 111.785332 117.346036 
L 109.238684 117.494902 
L 108.477094 117.168699 
L 107.849604 116.66272 
L 106.948852 117.294788 
L 106.531369 117.723488 
L 106.035449 118.859095 
L 106.020268 121.072553 
L 105.85707 121.437802 
L 105.849479 122.091833 
L 106.141718 122.693803 
L 106.247986 122.55714 
L 106.210033 122.980145 
L 106.035449 123.922959 
L 105.273859 124.688437 
L 105.086624 125.396971 
L 104.555282 126.450418 
L 104.581849 126.79777 
L 104.750107 127.076791 
L 104.975295 127.210201 
L 104.858906 127.49573 
L 105.258677 127.644595 
L 104.433832 128.724886 
L 104.621067 128.642725 
L 104.762758 128.724886 
L 104.198523 129.245508 
L 103.821523 129.953229 
L 103.373677 130.361592 
L 103.333194 129.170669 
L 103.15102 128.996586 
L 102.78161 129.108845 
L 101.134449 128.31571 
L 100.810584 128.303507 
L 99.641631 128.508502 
L 99.497409 128.684212 
L 99.329151 129.394374 
L 99.310174 129.268286 
L 99.214026 128.996586 
L 99.116614 129.543239 
L 98.896486 129.394374 
L 98.896486 129.679902 
L 98.196886 129.482229 
L 97.926154 129.305705 
L 97.718678 129.394374 
L 98.046339 129.394374 
L 98.046339 129.543239 
L 96.99757 130.125685 
L 96.763527 130.088266 
L 96.400443 130.19239 
L 95.879221 130.099654 
L 94.535684 130.771582 
L 94.652073 130.823644 
L 94.641953 130.921261 
L 94.492671 130.919634 
L 94.10808 131.044095 
L 94.10808 131.180759 
L 94.426886 131.180759 
L 93.994221 131.576106 
L 93.473 131.739614 
L 93.559027 131.524857 
L 93.685537 131.317422 
L 93.366731 131.466287 
L 93.002382 131.195401 
L 92.622852 131.317422 
L 92.083919 132.012941 
L 92.019399 131.604578 
L 91.486792 131.339386 
L 91.329919 130.921261 
L 91.539926 131.031893 
L 91.631013 130.922075 
L 91.495647 130.647934 
L 90.702429 130.771582 
L 90.702429 130.647934 
L 91.160396 130.483613 
L 91.329919 130.498256 
L 90.993402 130.340442 
L 89.318409 130.260722 
L 88.349342 129.679902 
L 88.167167 129.868628 
L 88.086201 129.68641 
L 88.030537 129.133249 
L 87.939449 129.278047 
L 87.723117 129.133249 
L 87.382805 129.394374 
L 87.06653 129.828768 
L 86.929899 129.733592 
L 86.75152 129.399255 
L 86.641456 129.543239 
L 85.621785 128.541041 
L 85.278943 127.996015 
L 84.351624 127.685269 
L 84.094808 127.346864 
L 83.881006 127.49573 
L 83.881006 127.086553 
L 83.881006 126.938501 
L 83.448342 126.938501 
L 83.563466 126.813226 
L 83.282614 126.665174 
L 83.129537 126.663547 
L 83.326892 126.352801 
L 83.650758 126.163262 
L 83.563466 126.119334 
L 83.654553 125.752459 
L 83.562201 125.4108 
L 83.129537 124.890178 
L 83.563466 124.467172 
L 83.41798 123.429995 
L 83.129537 123.525172 
L 82.942302 123.278689 
L 82.197157 123.577234 
L 81.85558 123.525172 
L 82.140228 123.447078 
L 82.204748 123.254285 
L 82.037755 122.558767 
L 82.280654 121.999098 
L 82.499517 122.199212 
L 83.129537 121.602123 
L 83.16749 122.012113 
L 83.350929 121.956797 
L 83.448342 121.799797 
L 83.329423 121.44431 
L 83.129537 121.179931 
L 82.163 120.464889 
L 80.794161 119.74578 
L 80.682832 119.459437 
L 80.141369 120.023987 
L 79.935157 120.360765 
L 80.041426 120.360765 
L 80.041426 120.497428 
L 79.510084 120.633278 
L 79.496168 120.982257 
L 79.493637 121.126242 
L 79.298812 121.179931 
L 79.713765 121.873823 
L 79.923772 121.33205 
L 79.828889 121.05547 
L 80.103416 121.319035 
L 80.004738 121.655812 
L 79.510084 122.14715 
L 79.604966 122.351331 
L 79.435443 122.457896 
L 78.971151 122.433492 
L 78.811748 122.249647 
L 78.811748 122.068243 
L 78.944584 121.929139 
L 79.183688 121.873823 
L 79.183688 121.726584 
L 78.600476 121.379232 
L 78.33354 121.46546 
L 78.253839 120.936703 
L 77.688339 120.53078 
L 76.993798 120.383542 
L 76.421973 120.633278 
L 76.344802 120.264775 
L 76.177808 120.11835 
L 75.971597 120.194816 
L 75.776772 120.497428 
L 75.665443 120.365645 
L 75.468087 119.814111 
L 75.608513 119.542411 
L 75.63255 118.778561 
L 75.483268 118.468628 
L 75.574355 118.450732 
L 75.543993 118.390535 
L 75.509835 118.283156 
L 75.574355 118.164389 
L 75.361819 118.585768 
L 75.274527 118.505234 
L 75.235309 118.325457 
L 75.037953 118.095244 
L 74.576191 118.017151 
L 74.238409 118.219706 
L 74.291543 118.710229 
L 73.982859 118.532079 
L 73.653933 118.450732 
L 73.86647 118.314068 
L 73.86647 118.164389 
L 73.297174 118.1107 
L 73.175725 117.915467 
L 73.12259 117.494902 
L 73.228859 117.50385 
L 73.335127 117.419249 
L 73.185845 116.936046 
L 73.041624 116.825414 
L 72.86704 117.191477 
L 71.953637 117.518493 
L 72.253466 117.77799 
L 72.533053 117.743824 
L 72.689926 117.904078 
L 72.24208 118.695587 
L 71.946047 118.710229 
L 70.885892 118.164389 
L 70.98204 118.585768 
L 70.410215 118.556483 
L 70.344429 118.3824 
L 70.412745 118.202623 
L 70.577208 118.117208 
L 70.98204 118.040742 
L 70.98204 117.904078 
L 70.331778 117.446094 
L 70.083819 117.56242 
L 69.765013 118.221333 
L 69.809292 118.509302 
L 70.025624 118.710229 
L 69.954778 119.148691 
L 70.572147 119.63352 
L 70.673355 120.087438 
L 70.240691 119.866987 
L 70.020564 119.927997 
L 69.919355 120.237117 
L 69.716939 120.087438 
L 69.711879 120.184241 
L 69.716939 120.497428 
L 68.9136 120.791905 
L 68.608711 121.031066 
L 67.456205 122.702751 
L 67.045047 122.55714 
L 66.872993 122.790606 
L 66.736362 122.829653 
L 66.769255 122.893917 
L 66.83251 123.102979 
L 66.488402 123.209544 
L 66.370748 123.14284 
L 66.301168 122.966316 
L 66.14303 123.245337 
L 65.944409 123.288451 
L 65.558554 122.966316 
L 65.664822 122.693803 
L 65.452285 122.433492 
L 66.621238 122.433492 
L 67.103241 122.09346 
L 67.478976 121.602123 
L 67.266439 121.328796 
L 66.83251 121.726584 
L 66.83251 121.602123 
L 66.984322 121.428854 
L 66.986852 120.951345 
L 66.675637 120.672324 
L 66.635154 120.733335 
L 66.546597 121.077434 
L 66.19996 120.98063 
L 66.088631 120.906604 
L 65.777416 120.967615 
L 65.623074 120.887895 
L 65.638255 120.634091 
L 66.194899 120.497428 
L 66.088631 120.360765 
L 66.58708 120.300568 
L 66.736362 120.087438 
L 67.478976 119.950775 
L 67.422047 120.27291 
L 67.649765 120.292433 
L 67.895194 120.108588 
L 67.902785 119.814111 
L 67.756033 119.701039 
L 67.448614 119.667686 
L 67.394215 119.410629 
L 67.796517 118.983556 
L 67.849651 119.121033 
L 68.115322 119.405748 
L 67.926822 118.473509 
L 67.562473 118.45724 
L 67.427107 118.551602 
L 67.160171 118.983556 
L 66.697144 119.195872 
L 66.621238 118.983556 
L 66.392255 119.222717 
L 65.452285 119.542411 
L 65.372584 119.293489 
L 65.033537 119.5538 
L 64.805819 119.677448 
L 64.724852 119.402494 
L 64.616054 119.427712 
L 64.380745 119.677448 
L 64.070795 119.433406 
L 63.850668 119.677448 
L 63.383845 119.33579 
L 63.077691 119.269085 
L 62.787983 119.405748 
L 62.787983 119.269085 
L 62.424899 119.355313 
L 61.983379 119.269085 
L 61.724033 119.360194 
L 61.17751 120.087438 
L 61.217993 120.262334 
L 61.004191 120.891962 
L 60.973829 121.328796 
L 60.176815 120.955413 
L 59.636617 120.943211 
L 59.241906 120.992019 
L 59.160939 120.782143 
L 58.03247 121.317408 
L 57.888248 121.46546 
L 57.15702 121.111599 
L 56.825564 121.179931 
L 56.666161 120.801666 
L 56.494107 120.789464 
L 56.296752 120.906604 
L 56.27904 120.795159 
L 56.180362 120.782143 
L 56.27145 120.536475 
L 56.071564 120.237117 
L 56.521939 120.384355 
L 56.981171 120.298941 
L 57.117802 120.091505 
L 57.182322 119.771811 
L 57.52896 119.405748 
L 57.673181 119.371582 
L 58.051446 119.405748 
L 59.193832 119.231665 
L 60.04651 119.178789 
L 60.231215 118.450732 
L 60.572792 118.356369 
L 61.285043 118.798898 
L 61.506436 118.710229 
L 61.751866 118.851774 
L 62.355319 118.859095 
L 62.962567 118.353115 
L 64.588221 118.369384 
L 65.152456 118.572753 
L 66.249298 118.598784 
L 66.513705 118.859095 
L 66.659191 118.538587 
L 66.947634 118.314068 
L 66.700939 117.952887 
L 66.194899 117.904078 
L 66.447919 117.821104 
L 66.468161 117.703964 
L 66.355567 117.264689 
L 66.416292 117.221575 
L 66.650335 117.233777 
L 66.947634 116.948249 
L 66.416292 116.254357 
L 66.621238 116.402409 
L 66.736362 116.254357 
L 66.64401 116.19416 
L 66.513705 115.968014 
L 67.045047 115.968014 
L 67.045047 115.844367 
L 66.736362 115.844367 
L 66.736362 115.708517 
L 67.252523 115.738615 
L 67.363852 115.844367 
L 67.611812 115.762206 
L 67.796517 115.844367 
L 67.953389 115.732921 
L 68.292436 115.912698 
L 68.530275 115.844367 
L 68.65552 116.254357 
L 68.699798 116.150232 
L 68.639074 115.763019 
L 68.530275 115.708517 
L 68.530275 115.57104 
L 68.894624 115.620662 
L 68.96547 115.708517 
L 69.388013 114.876335 
L 69.178007 114.876335 
L 69.388013 114.478547 
L 69.638503 114.676221 
L 69.888993 114.723402 
L 70.020564 114.61277 
L 69.919355 114.329681 
L 71.205963 113.752116 
L 70.98204 113.511328 
L 70.822637 113.470655 
L 68.795946 113.784655 
L 67.753503 113.844852 
L 67.796517 114.20522 
L 67.530845 114.058795 
L 65.70657 113.841598 
L 65.337161 114.057982 
L 64.31749 113.963619 
L 63.049859 114.395573 
L 62.787983 114.329681 
L 62.672859 114.61521 
L 62.218688 114.549319 
L 62.036513 114.61521 
L 61.729094 114.383371 
L 61.230644 114.37849 
L 60.734725 114.55664 
L 60.434896 114.876335 
L 59.717584 114.521661 
L 59.35703 114.5542 
L 59.277329 115.0252 
L 58.753577 114.661578 
L 58.53345 114.61521 
L 57.888248 114.61521 
L 57.733906 114.464718 
L 57.356906 113.932707 
L 57.124127 113.944096 
L 56.883758 114.150717 
L 56.709174 113.932707 
L 56.499168 114.61521 
L 56.457419 114.438687 
L 56.415671 114.283313 
L 56.392899 113.932707 
L 56.252473 114.031951 
L 55.64902 114.20522 
L 55.616127 114.767329 
L 55.288466 115.221247 
L 55.330215 115.298527 
L 55.188523 115.25704 
L 54.631879 115.21962 
L 54.468681 114.920262 
L 54.096741 113.251017 
L 54.257409 112.828825 
L 54.64706 112.707618 
L 55.117678 112.282172 
L 54.878574 112.13656 
L 54.502839 112.157711 
L 54.472476 112.008845 
L 54.588866 112.133306 
L 54.76345 111.911228 
L 55.250513 112.0967 
L 55.542752 112.008845 
L 55.542752 111.314953 
L 55.819809 111.477648 
L 55.965295 111.886011 
L 56.161386 111.515881 
L 56.28157 111.474394 
L 56.392899 111.599669 
L 56.456154 111.526456 
L 56.499168 111.451617 
L 56.549772 111.886824 
L 56.825564 111.886011 
L 57.15449 112.095887 
L 57.356906 112.008845 
L 57.240517 112.133306 
L 57.46697 112.548177 
L 57.688362 112.697856 
L 57.926201 112.637659 
L 58.958523 111.968985 
L 59.487335 111.886011 
L 59.487335 111.736332 
L 59.160939 111.886011 
L 58.928161 110.92286 
L 58.745986 110.781316 
L 58.745986 110.63245 
L 59.675835 110.51287 
L 59.487335 110.917979 
L 59.785899 110.769927 
L 60.021208 110.495787 
L 59.689752 110.266388 
L 59.737825 109.788066 
L 60.021208 109.539957 
L 60.11609 108.99493 
L 59.780839 108.812713 
L 59.702403 108.99493 
L 59.140698 109.030723 
L 58.787735 109.762848 
L 58.54104 109.902765 
L 58.313322 109.81247 
L 58.589114 109.569242 
L 58.622007 109.307304 
L 58.449953 109.12834 
L 58.051446 109.207247 
L 57.747822 109.448848 
L 57.673181 109.329268 
L 57.814872 108.949376 
L 58.100785 108.58494 
L 58.157715 108.213997 
L 58.179221 107.943111 
L 57.888248 107.616095 
L 57.823728 108.177391 
L 57.475825 108.377505 
L 57.043161 108.300225 
L 56.709174 108.026899 
L 56.582664 107.58437 
L 56.707909 107.177633 
L 56.995087 106.857125 
L 57.356906 106.674094 
L 57.170936 106.371483 
L 56.812913 106.238887 
L 56.549772 106.249462 
L 56.296752 106.388565 
L 55.922282 107.07839 
L 55.542752 107.071882 
L 55.542752 107.219934 
L 55.77047 107.376121 
L 55.675587 107.457468 
L 54.545852 107.599012 
L 54.366208 107.766587 
L 54.142285 107.52824 
L 53.914567 107.470484 
L 53.834866 107.343582 
L 53.627389 107.406219 
L 53.505939 107.343582 
L 53.76655 106.962063 
L 53.728597 106.525229 
L 54.057523 106.251902 
L 53.920892 105.864689 
L 53.999329 104.956041 
L 53.728597 105.036575 
L 53.535037 104.917808 
L 53.303523 105.160222 
L 53.500879 104.237745 
L 53.345272 103.599983 
L 53.409792 103.373837 
L 53.655221 103.540599 
L 53.794382 103.225785 
L 53.781731 102.554671 
L 53.554013 102.471697 
L 52.658322 101.871354 
L 51.299604 101.489836 
L 50.718923 101.178276 
L 50.863144 100.767472 
L 51.136406 100.690192 
L 52.517896 100.721918 
L 54.060054 100.074394 
L 54.529406 99.303222 
L 54.588866 98.174123 
L 54.227047 97.585169 
L 54.310544 97.132878 
L 54.588866 96.80993 
L 54.654651 96.298256 
L 54.588866 96.114411 
L 54.811523 95.914297 
L 54.679953 95.467701 
L 54.257409 94.736389 
L 53.867758 94.876306 
L 52.734228 94.774622 
L 52.268671 94.501296 
L 52.12445 94.241798 
L 51.595637 93.992876 
L 51.546299 93.683756 
L 51.409668 93.581259 
L 50.960557 93.508046 
L 49.751121 93.148491 
L 48.807356 93.438087 
L 48.698557 93.727684 
L 48.566986 93.793575 
L 48.440476 93.688637 
L 48.084983 92.974408 
L 48.153299 92.427755 
L 47.978715 91.870526 
L 47.820577 91.5972 
L 47.332248 91.05136 
L 47.058986 91.192091 
L 46.988141 90.947235 
L 47.022299 90.356655 
L 46.813557 90.162235 
L 46.301191 90.291577 
L 46.005158 90.356655 
L 44.880483 90.424986 
L 44.678067 91.721661 
L 44.597101 91.650075 
L 44.46553 91.5972 
L 44.511074 92.138972 
L 44.432638 92.330138 
L 44.244138 92.41718 
L 44.14546 92.331765 
L 43.819064 91.5972 
L 43.811473 92.016951 
L 43.65207 92.050304 
L 43.137174 91.548391 
L 43.008134 91.182329 
L 43.067594 90.903308 
L 42.638725 91.016381 
L 41.484953 90.084141 
L 41.588691 90.493318 
L 41.484953 90.493318 
L 41.086446 89.816509 
L 41.133255 89.464276 
L 40.953611 89.264161 
L 40.82457 89.801053 
L 40.498174 89.932022 
L 40.103463 89.796172 
L 39.450671 89.276364 
L 38.642272 89.020933 
L 38.618235 88.892405 
L 38.706792 88.581658 
L 39.12048 88.763876 
L 39.439285 88.124487 
L 39.777067 88.036632 
L 39.777067 87.887766 
L 39.486094 87.685212 
L 39.44308 87.319149 
L 39.56706 87.101139 
L 39.777067 87.341113 
L 39.902312 87.02874 
L 39.987074 86.944952 
L 40.061715 87.399683 
L 40.038943 87.863362 
L 40.409617 88.002466 
L 40.531067 88.16028 
L 40.980178 88.129368 
L 41.086446 87.997585 
L 40.953611 87.626642 
L 41.295188 87.790963 
L 41.667127 87.682771 
L 42.393295 87.160522 
L 42.411007 86.761107 
L 42.27058 86.346237 
L 42.013765 86.124972 
L 42.013765 85.97692 
L 42.734872 86.352744 
L 42.970181 85.840257 
L 41.555799 85.104878 
L 41.32555 85.430267 
L 41.024456 85.413997 
L 41.029517 85.33021 
L 41.169943 85.125215 
L 41.272416 84.748577 
L 41.211691 84.507789 
L 40.794208 83.685369 
L 40.593057 82.828783 
L 40.419738 81.790792 
L 40.533597 81.266916 
L 40.918188 81.133506 
L 41.431819 80.913055 
L 42.232627 81.047278 
L 42.855057 81.447507 
L 43.635624 82.391948 
L 43.712795 82.69944 
L 44.602161 83.92697 
L 44.794456 84.114882 
L 44.912111 84.559038 
L 44.77548 85.281401 
L 44.490832 85.130909 
L 44.137869 85.281401 
L 44.40354 85.422946 
L 44.399745 85.603536 
L 44.137869 86.124972 
L 44.506013 86.17378 
L 44.761564 86.696843 
L 44.938678 87.006776 
L 45.209409 87.921932 
L 45.458634 88.353886 
L 45.792621 88.234306 
L 45.876117 87.982943 
L 45.77744 87.810487 
L 45.52695 87.626642 
L 45.420681 86.795273 
L 45.678762 86.103822 
L 45.91407 85.895573 
L 46.173416 85.97692 
L 46.173416 85.840257 
L 46.270829 85.840257 
L 46.626322 86.404807 
L 46.91603 87.216652 
L 46.988141 87.175978 
L 47.234835 87.067786 
L 47.35502 87.325657 
L 47.86106 87.153201 
L 48.138117 87.067786 
L 49.367795 86.944952 
L 50.907423 86.256755 
L 51.200926 86.346237 
L 51.491899 86.24862 
L 51.918238 86.453615 
L 52.278792 86.218521 
L 52.645671 85.825614 
L 53.093517 85.56693 
L 53.093517 85.430267 
L 52.874654 85.324515 
L 52.76459 85.430267 
L 52.658322 85.281401 
L 52.358493 85.420505 
L 50.887181 85.249676 
L 49.536054 85.80121 
L 49.686601 85.56693 
L 49.419664 85.378205 
L 48.949047 84.605406 
L 47.849674 83.975778 
L 47.659909 83.643882 
L 47.886362 83.873281 
L 48.584698 84.349976 
L 48.827597 84.338587 
L 48.827597 84.201924 
L 48.22794 83.641441 
L 47.978715 83.519421 
L 48.191252 82.552202 
L 47.963533 82.335818 
L 47.332248 82.552202 
L 47.447372 82.26586 
L 46.917295 82.119435 
L 46.703493 82.142212 
L 46.733856 82.049476 
L 46.800906 81.732222 
L 46.451738 81.650875 
L 46.173416 81.447507 
L 46.5365 81.175807 
L 46.703493 81.17418 
L 46.278419 80.446936 
L 46.173416 80.0825 
L 46.460594 79.88564 
L 47.258872 79.713184 
L 47.800335 79.426842 
L 47.906604 79.556184 
L 48.589758 79.750604 
L 49.040134 79.809987 
L 48.942721 79.535847 
L 49.343758 79.258453 
L 49.474064 79.399997 
L 49.512017 78.922489 
L 49.474064 78.71668 
L 49.367795 78.867173 
L 48.942721 78.170841 
L 49.571476 77.897514 
L 49.667624 78.327027 
L 49.930765 78.379089 
L 50.096493 78.118778 
L 49.899137 77.612799 
L 50.398852 77.401296 
L 50.74802 77.079161 
L 51.061765 77.292291 
L 51.395752 77.080788 
L 51.514671 76.765161 
L 51.18195 76.669171 
L 51.438765 75.907761 
L 51.18195 75.701139 
L 50.740429 76.061507 
L 50.269812 76.110315 
L 50.191376 76.047678 
L 49.956067 75.701139 
L 49.518342 75.884984 
L 49.367795 75.701139 
L 49.194476 75.863833 
L 48.460718 76.234777 
L 48.296255 76.151802 
L 48.054621 75.78574 
L 47.532134 75.500211 
L 47.387913 75.040599 
L 47.418275 74.536247 
L 47.659909 74.064433 
L 47.332248 74.064433 
L 47.883832 73.556826 
L 48.723859 73.071997 
L 48.601144 72.686411 
L 47.800335 71.523145 
L 47.100735 71.104207 
L 46.679456 70.812171 
L 46.464389 70.560808 
L 46.483366 70.353372 
L 46.168356 69.247864 
L 45.898889 69.125843 
L 44.774215 69.138045 
L 44.46553 69.001382 
L 44.622403 68.842754 
L 44.828614 68.237531 
L 45.029765 68.154557 
L 45.173986 68.241598 
L 45.158805 68.376635 
L 44.880483 68.442526 
L 44.880483 68.566987 
L 45.192963 68.620677 
L 45.420681 68.852516 
L 45.329594 68.54421 
L 45.583879 68.293661 
L 45.739486 68.181402 
L 46.012748 67.768158 
L 47.659909 66.519478 
L 47.447372 66.258353 
L 47.447372 65.836161 
L 48.221614 65.7117 
L 48.411379 65.563648 
L 48.240591 65.270798 
L 48.487285 65.077191 
L 49.447497 64.67859 
L 49.474064 64.471968 
L 49.686601 63.715439 
L 49.571476 63.012599 
L 49.331107 62.864547 
L 48.883262 62.820619 
L 48.526503 62.971112 
L 47.942027 63.37134 
L 47.553641 63.093946 
L 41.745564 64.227926 
L 41.588691 64.403636 
L 41.429289 64.401196 
L 40.43745 64.880331 
L 39.450671 64.755056 
L 38.916799 65.091834 
L 38.86999 65.194331 
L 38.597993 65.016995 
L 37.370846 65.32286 
L 36.750946 65.323674 
L 36.148758 65.016995 
L 36.082973 64.581787 
L 36.471359 63.536475 
L 36.715523 62.550547 
L 37.298735 61.987624 
L 37.43157 61.523945 
L 37.472054 60.211001 
L 37.115295 59.395901 
L 37.203852 59.15186 
L 37.325302 58.987538 
L 37.353134 57.80719 
L 37.115295 57.758382 
L 37.200057 57.529796 
L 37.420185 56.408831 
L 37.36705 55.65881 
L 38.069181 54.334477 
L 38.899087 54.614312 
L 40.485523 53.468943 
L 40.668963 53.076849 
L 40.790413 52.422817 
L 41.107953 52.347978 
L 41.267356 51.732993 
L 41.336936 50.639686 
L 42.779151 50.2541 
L 43.068859 50.010059 
L 43.89497 49.022503 
L 44.244138 48.861436 
L 44.440228 48.705249 
L 46.430231 46.443796 
L 47.069107 46.40475 
L 48.411379 46.517009 
L 49.11351 46.440543 
L 49.520872 46.665061 
L 50.74802 46.665061 
L 51.18195 46.322589 
L 51.562745 45.844267 
L 52.038423 45.469257 
L 52.76459 45.436718 
L 53.888 45.561179 
L 54.233372 45.478205 
L 54.760919 45.15851 
L 55.001288 45.151189 
L 55.256839 45.346422 
L 55.64902 46.243682 
L 55.330215 46.391734 
L 55.254309 46.295745 
L 55.231537 46.334791 
L 55.117678 46.391734 
L 55.788181 47.108403 
L 56.64845 47.67214 
L 57.571973 48.073995 
L 59.110335 48.33756 
L 59.277329 48.304207 
L 60.069282 47.894217 
L 61.235705 48.238316 
L 61.612705 48.030067 
L 61.92898 48.168358 
L 62.397067 48.206591 
L 62.818345 48.104907 
L 63.182694 47.572082 
L 64.023986 47.136875 
L 64.275741 46.788709 
L 63.991094 46.778947 
L 63.214322 46.517009 
L 62.848708 46.656926 
L 62.667798 46.200568 
L 62.470443 46.107019 
L 62.262966 45.749091 
L 62.202241 45.363505 
L 61.823976 45.287852 
L 61.17751 44.592334 
L 61.17751 44.468686 
L 61.516557 44.27752 
L 61.937835 43.904136 
L 62.202241 44.021276 
L 62.355319 43.774794 
L 62.81202 44.231152 
L 63.049859 44.060323 
L 65.618013 44.45567 
L 66.306228 44.692391 
L 66.621238 45.026728 
L 66.346711 45.493661 
L 64.996849 46.176164 
L 64.593282 46.517009 
L 64.662862 47.03031 
L 65.225832 47.193818 
L 66.513705 47.074237 
L 67.826879 46.593475 
L 71.495671 46.434035 
L 72.310396 46.566631 
L 73.653933 46.517009 
L 73.354104 46.627641 
L 73.218738 46.925372 
L 73.851288 46.692719 
L 74.564805 46.688652 
L 75.301094 46.876564 
L 75.999429 47.210901 
L 76.151241 47.114098 
L 76.315704 47.210901 
L 76.740778 46.925372 
L 77.618758 46.786268 
L 78.086845 46.464133 
L 79.828889 46.788709 
L 80.956094 47.250761 
L 82.433731 47.167787 
L 82.652594 47.000211 
L 82.780369 46.741527 
L 83.032124 45.970356 
L 83.481235 46.041941 
L 83.987275 45.833692 
L 83.364845 45.192676 
L 82.652594 44.877862 
L 81.66961 44.942127 
L 81.157245 45.287852 
L 80.336194 45.0975 
L 78.964825 44.255556 
L 78.121003 44.060323 
L 78.408181 43.450219 
L 78.939523 43.103679 
L 80.508248 42.387824 
L 81.419121 41.621533 
L 86.008906 41.198527 
L 86.656637 40.982144 
L 87.723117 40.360651 
L 88.111503 40.78203 
L 88.804778 40.433864 
L 89.081835 40.036076 
L 89.57902 39.967744 
L 89.83204 40.087324 
L 90.061023 40.324045 
L 90.163496 40.697429 
L 90.33555 40.695802 
L 93.341429 40.026314 
L 95.11257 39.939272 
L 95.67807 40.192262 
L 95.998141 40.188195 
L 96.233449 39.816438 
L 96.076577 39.356826 
L 95.469329 39.247821 
L 93.505892 39.462578 
L 93.097265 39.120919 
L 91.987771 38.847593 
L 88.007765 39.093261 
L 87.504255 39.386925 
L 87.180389 39.269785 
L 86.747725 38.710929 
L 86.808449 38.669442 
L 86.970382 38.562064 
L 86.81351 38.221219 
L 86.535188 38.02924 
L 86.466872 38.154514 
L 86.322651 38.02924 
L 86.008906 38.210644 
L 85.588892 38.302566 
L 85.588892 38.177292 
L 85.840647 38.081302 
L 85.900107 37.742897 
L 86.112644 37.892576 
L 86.115174 37.762421 
L 86.216382 37.742897 
L 85.734379 37.123032 
L 85.377621 36.867601 
L 85.058815 36.924544 
L 84.761516 36.639829 
L 83.563466 35.980917 
L 82.92459 35.326071 
L 82.068117 34.877035 
L 82.142758 34.806263 
L 82.173121 34.728169 
L 81.993476 34.652516 
L 81.749312 33.909816 
L 82.03649 33.754443 
L 82.600725 32.993847 
L 83.039714 31.702053 
L 82.705728 31.465332 
L 83.071342 30.913798 
L 83.653288 30.283357 
L 84.269392 29.859538 
L 84.837423 29.937631 
L 84.991765 29.73345 
L 85.234664 29.707419 
L 88.154516 30.235362 
L 91.251483 30.943083 
L 95.383302 31.540985 
L 99.745369 31.588167 
L 100.696724 31.062663 
L 100.915587 30.674637 
L 101.037037 30.769813 
L 101.568379 30.210958 
L 101.77206 30.372839 
L 102.410936 30.504621 
L 102.928362 30.894275 
L 108.046959 32.090079 
L 108.80602 32.68066 
L 110.13058 32.922261 
L 114.130828 32.817323 
L 114.662171 32.557825 
L 116.468734 32.56596 
L 116.591449 32.407333 
L 117.23412 32.163291 
L 117.752812 31.843597 
L 118.828147 30.752731 
L 119.019177 30.158082 
L 119.065986 29.554486 
L 119.24563 28.915097 
L 119.174785 28.804465 
L 118.829412 28.448977 
L 118.996406 28.192733 
L 119.331657 28.070713 
L 120.131201 27.942184 
L 120.468983 27.481759 
L 120.628385 27.445966 
L 122.966291 26.564162 
L 126.272 24.432051 
L 128.16459 23.533978 
L 128.880637 23.012542 
L 130.784614 22.284485 
L 131.041429 21.78664 
L 132.126885 20.563991 
L 132.362194 20.122275 
L 132.885946 19.978291 
L 133.737359 19.936804 
L 133.766456 19.810715 
L 134.056164 19.675679 
L 134.215567 19.403979 
L 134.481238 19.675679 
L 134.754499 19.54715 
L 135.33012 18.980974 
L 137.017765 18.188652 
L 137.250543 18.299284 
L 137.430187 17.986911 
L 137.790741 17.735548 
L 138.21202 17.648506 
L 138.576369 17.82747 
L 138.826859 17.799812 
L 140.242506 17.367045 
L 141.131872 17.232822 
L 141.397543 17.070941 
L 141.569597 17.160423 
L 143.221818 16.644682 
L 143.93913 16.181002 
L 146.3871 15.387867 
L 148.857842 14.147322 
L 149.423342 14.114783 
L 150.565728 14.314897 
L 152.569647 14.373467 
L 153.350214 14.653302 
L 156.672368 14.97381 
L 156.953221 14.874566 
L 157.393476 15.038887 
L 159.415107 14.874566 
L 164.509667 15.568458 
L 166.862754 15.022618 
L 167.552234 15.314654 
L 168.092432 15.490364 
L 170.150751 15.608318 
L 170.961681 15.519649 
L 172.030691 15.144639 
L 173.642429 13.817052 
L 174.001717 13.142684 
L 174.097865 12.552916 
L 174.760778 12.705849 
L 174.760778 12.705849 
" clip-path="url(#pb4313e0e6a)" style="fill: none; stroke: #000000; stroke-width: 2"/>
   </g>
  </g>
 </g>
 <defs>
  <clipPath id="pb4313e0e6a">
   <rect x="0" y="0" width="357.12" height="150.634995"/>
  </clipPath>
 </defs>
</svg>
