<?xml version="1.0" encoding="utf-8" standalone="no"?>
<!DOCTYPE svg PUBLIC "-//W3C//DTD SVG 1.1//EN"
  "http://www.w3.org/Graphics/SVG/1.1/DTD/svg11.dtd">
<svg xmlns:xlink="http://www.w3.org/1999/xlink" width="268.590217pt" height="266.112pt" viewBox="0 0 268.590217 266.112" xmlns="http://www.w3.org/2000/svg" version="1.1">
 <metadata>
  <rdf:RDF xmlns:dc="http://purl.org/dc/elements/1.1/" xmlns:cc="http://creativecommons.org/ns#" xmlns:rdf="http://www.w3.org/1999/02/22-rdf-syntax-ns#">
   <cc:Work>
    <dc:type rdf:resource="http://purl.org/dc/dcmitype/StillImage"/>
    <dc:date>2024-02-02T21:58:05.911406</dc:date>
    <dc:format>image/svg+xml</dc:format>
    <dc:creator>
     <cc:Agent>
      <dc:title>Matplotlib v3.8.2, https://matplotlib.org/</dc:title>
     </cc:Agent>
    </dc:creator>
   </cc:Work>
  </rdf:RDF>
 </metadata>
 <defs>
  <style type="text/css">*{stroke-linejoin: round; stroke-linecap: butt}</style>
 </defs>
 <g id="figure_1">
  <g id="patch_1">
   <path d="M 0 266.112 
L 268.590217 266.112 
L 268.590217 0 
L 0 0 
L 0 266.112 
z
" style="fill: none"/>
  </g>
  <g id="axes_1">
   <g id="PatchCollection_1">
    <path d="M 221.113348 236.773933 
L 219.866697 237.174049 
L 218.184941 236.488517 
L 216.640071 235.384199 
L 215.745416 234.533286 
L 216.014301 233.909106 
L 216.004524 233.319603 
L 215.774749 232.780781 
L 215.368976 232.295307 
L 219.847142 232.295307 
L 219.847142 232.700758 
L 219.72981 232.951497 
L 219.534257 233.508991 
L 219.456036 234.173182 
L 219.661367 234.757351 
L 220.717353 235.570919 
L 221.186681 236.141751 
L 221.113348 236.773933 
" clip-path="url(#p6b3838a3f3)" style="fill: none; stroke: #000000; stroke-width: 2"/>
    <path d="M 215.628084 195.826116 
L 215.613418 196.076855 
L 215.43742 196.028841 
L 215.041425 196.028841 
L 214.836094 195.980827 
L 214.733429 195.85279 
L 214.132103 195.610053 
L 213.486778 194.481727 
L 213.169004 193.510781 
L 213.296113 193.372074 
L 215.593862 193.201358 
L 215.848081 193.350734 
L 216.014301 193.793529 
L 215.833415 194.700457 
L 215.628084 195.068564 
L 215.544974 195.452674 
L 215.628084 195.826116 
" clip-path="url(#p6b3838a3f3)" style="fill: none; stroke: #000000; stroke-width: 2"/>
    <path d="M 126.910535 143.389649 
L 126.196522 143.769051 
L 127.049842 142.520184 
L 130.238027 139.296602 
L 132.660171 136.209399 
L 133.231996 136.042742 
L 131.161307 139.389835 
L 130.149006 140.411288 
L 129.477505 141.233034 
L 128.614841 142.09799 
L 127.935007 142.574963 
L 126.910535 143.389649 
" clip-path="url(#p6b3838a3f3)" style="fill: none; stroke: #000000; stroke-width: 2"/>
    <path d="M 102.212179 133.130688 
L 102.08507 133.424106 
L 103.004169 133.144025 
L 103.70816 133.221381 
L 104.221487 133.184037 
L 104.588149 132.567859 
L 105.658802 134.54443 
L 105.952132 135.467363 
L 105.820134 136.150226 
L 105.380139 135.696762 
L 104.79348 135.312651 
L 104.148155 135.184614 
L 103.248611 135.691427 
L 102.608174 135.768783 
L 102.2904 135.944834 
L 102.114403 136.280931 
L 101.869961 137.211866 
L 101.713519 137.48928 
L 100.647755 138.108125 
L 99.54288 138.262836 
L 98.438005 137.836046 
L 97.328241 136.72906 
L 97.62157 136.150226 
L 98.232674 136.886439 
L 99.146885 137.081162 
L 100.129539 136.809083 
L 100.936195 136.150226 
L 100.378869 135.942166 
L 99.938875 135.675423 
L 99.58199 135.307316 
L 99.259328 134.805838 
L 99.132218 135.016566 
L 99.132218 135.088587 
L 99.088219 135.128598 
L 98.848666 135.253968 
L 98.794889 134.33637 
L 98.848666 133.424106 
L 99.259328 133.424106 
L 99.738433 133.546808 
L 101.434856 132.485169 
L 102.495731 132.11973 
L 102.212179 133.130688 
" clip-path="url(#p6b3838a3f3)" style="fill: none; stroke: #000000; stroke-width: 2"/>
    <path d="M 93.089627 135.253968 
L 92.238971 135.253968 
L 92.385636 134.776497 
L 92.6643 134.491081 
L 93.089627 134.357709 
L 93.666509 134.31503 
L 94.165169 134.122975 
L 94.306946 133.658841 
L 94.321612 132.567859 
L 95.064714 130.196508 
L 95.778482 129.492305 
L 96.741581 130.32988 
L 96.169589 130.671312 
L 95.773594 131.49555 
L 95.142935 133.424106 
L 95.113602 133.944256 
L 95.270044 134.384383 
L 95.201601 134.693806 
L 94.512276 134.805838 
L 94.013616 134.82451 
L 93.66162 134.888529 
L 93.368291 135.024568 
L 93.089627 135.253968 
" clip-path="url(#p6b3838a3f3)" style="fill: none; stroke: #000000; stroke-width: 2"/>
    <path d="M 100.813975 131.17279 
L 100.315314 131.319499 
L 100.061095 130.980734 
L 99.865542 130.191173 
L 99.410881 129.526982 
L 98.418449 128.537363 
L 99.689544 127.60376 
L 100.437535 128.003875 
L 101.170859 128.630723 
L 101.478855 129.302917 
L 100.921529 129.844406 
L 101.146415 130.644637 
L 100.813975 131.17279 
" clip-path="url(#p6b3838a3f3)" style="fill: none; stroke: #000000; stroke-width: 2"/>
    <path d="M 32.597384 73.432941 
L 33.664586 76.297706 
L 33.424338 78.284316 
L 32.549031 79.333827 
L 30.994047 78.364259 
L 29.836043 77.990188 
L 27.987683 78.174303 
L 26.35993 79.198408 
L 25.472855 80.581402 
L 24.705337 80.970674 
L 23.805167 80.544845 
L 23.189175 80.504834 
L 22.646515 80.267432 
L 22.382518 79.797963 
L 22.475406 79.627247 
L 22.974066 79.0004 
L 23.130509 78.712316 
L 23.174508 78.248182 
L 23.150064 77.688021 
L 22.983844 76.703737 
L 22.587849 75.759464 
L 22.534072 75.279326 
L 22.881178 75.0766 
L 24.611572 74.231339 
L 26.9035 75.725142 
L 28.501798 75.5318 
L 28.740806 73.545092 
L 29.270876 72.307801 
L 30.97579 71.961857 
L 32.597384 73.432941 
" clip-path="url(#p6b3838a3f3)" style="fill: none; stroke: #000000; stroke-width: 2"/>
    <path d="M 224.017312 26.411889 
L 224.838635 28.097709 
L 225.723512 27.817628 
L 226.427504 27.737605 
L 226.926164 27.873644 
L 226.896831 28.073702 
L 226.427504 28.764568 
L 226.447059 29.258044 
L 226.6915 29.54346 
L 227.713265 30.359695 
L 228.094594 30.733136 
L 228.974583 31.053229 
L 239.446451 33.565954 
L 240.184664 34.030088 
L 239.813113 34.856993 
L 239.710447 35.518517 
L 239.871779 36.692189 
L 240.429105 38.655423 
L 241.030431 39.573021 
L 241.514425 39.791751 
L 243.113071 39.551681 
L 243.934394 39.637039 
L 244.897493 39.893113 
L 245.748149 40.317236 
L 246.207699 40.893402 
L 241.485092 43.206069 
L 240.223774 44.289049 
L 235.955828 49.439868 
L 235.28117 50.528183 
L 234.748288 52.048621 
L 234.401181 53.790457 
L 234.27896 55.521624 
L 234.337626 57.202109 
L 235.090506 60.70712 
L 235.046506 61.603379 
L 234.723844 62.499637 
L 234.767843 64.332166 
L 235.550055 65.745908 
L 237.036259 66.658171 
L 238.786459 66.978263 
L 238.786459 67.383714 
L 238.043357 67.309025 
L 237.339366 67.381046 
L 236.747818 67.573102 
L 236.32249 67.874522 
L 236.923816 69.01085 
L 237.231812 70.483275 
L 237.041148 71.763644 
L 235.677165 72.534534 
L 235.5745 73.092028 
L 235.750497 73.769557 
L 236.136715 74.383067 
L 236.273602 75.017917 
L 235.69672 75.556739 
L 234.27896 76.375642 
L 232.670536 78.208171 
L 232.616759 78.923044 
L 232.714536 80.507501 
L 231.971434 82.358702 
L 231.726992 84.172559 
L 231.379886 84.786069 
L 232.230542 86.301173 
L 231.912768 86.84533 
L 230.583007 88.13637 
L 229.15058 90.107605 
L 228.094594 90.947848 
L 227.757265 91.395977 
L 227.918596 91.876115 
L 227.727932 92.217547 
L 225.630625 93.914037 
L 224.990188 95.285099 
L 224.335086 98.059233 
L 222.638662 100.534614 
L 222.301333 101.534903 
L 222.345333 102.607212 
L 222.755994 103.799557 
L 223.591984 104.855861 
L 223.60665 105.592074 
L 223.35732 106.416312 
L 222.521331 107.720688 
L 222.345333 108.515584 
L 222.257334 109.97734 
L 221.52401 113.685076 
L 220.072028 117.579534 
L 218.238718 126.710169 
L 217.138732 128.948148 
L 213.574777 149.64212 
L 213.06145 150.757109 
L 211.448137 152.912397 
L 210.846811 154.030053 
L 210.372595 155.43846 
L 210.040154 158.04988 
L 210.069487 160.375885 
L 209.844601 162.589857 
L 208.734838 164.873182 
L 208.260621 165.361323 
L 207.165524 166.161554 
L 206.68153 166.6657 
L 206.441978 167.18585 
L 206.060649 168.516901 
L 204.965552 170.45346 
L 204.290894 173.451658 
L 203.8069 174.804049 
L 201.460263 178.20503 
L 201.166933 178.82921 
L 197.994084 181.533991 
L 197.241205 182.40891 
L 197.13365 183.014418 
L 197.241205 185.097686 
L 196.957653 185.831231 
L 196.46877 186.639464 
L 195.38345 188.026531 
L 194.307908 189.056162 
L 190.63151 191.526208 
L 188.157763 194.257663 
L 187.556438 194.577755 
L 187.072444 195.209938 
L 185.87957 198.298829 
L 185.283133 199.459164 
L 183.444934 201.771831 
L 182.701832 203.148229 
L 182.271615 205.978379 
L 181.176518 209.838159 
L 178.996101 213.692605 
L 178.683216 215.004984 
L 178.301888 218.720723 
L 178.556107 234.023806 
L 178.199222 235.717628 
L 177.617452 237.096693 
L 176.849906 237.667524 
L 175.940584 238.518437 
L 175.969917 240.454995 
L 176.292579 242.567605 
L 176.219247 243.936 
L 175.182816 242.362213 
L 173.637946 241.172536 
L 171.838858 240.350965 
L 170.029992 239.902836 
L 169.956659 241.431277 
L 169.428666 241.978102 
L 168.651342 241.780711 
L 167.810464 241.063171 
L 167.761576 240.521681 
L 168.050017 238.902547 
L 166.788699 236.773933 
L 166.7007 235.741635 
L 166.788699 234.981416 
L 166.788699 232.5007 
L 166.920698 231.77249 
L 167.478024 230.956254 
L 167.605133 230.260053 
L 163.058524 218.339279 
L 162.682084 217.688425 
L 161.415878 216.103968 
L 160.418557 213.831312 
L 159.959007 213.175122 
L 158.101253 211.694695 
L 156.859491 211.003829 
L 156.492829 209.838159 
L 155.490619 209.18197 
L 153.202648 208.077651 
L 152.166217 207.357443 
L 150.562681 206.063737 
L 149.892912 205.770319 
L 149.52625 205.791658 
L 149.105811 205.949037 
L 148.616928 205.962374 
L 145.634743 203.612363 
L 142.867667 199.656554 
L 145.781408 203.204245 
L 145.43919 201.515758 
L 144.568979 199.853945 
L 143.35655 198.461543 
L 141.293465 196.540989 
L 140.501475 195.562039 
L 140.129924 194.476393 
L 140.623695 193.41742 
L 140.882803 192.473148 
L 140.535697 191.144764 
L 139.924593 189.835053 
L 138.805052 188.074545 
L 137.749065 185.732536 
L 137.514401 184.692236 
L 137.538845 184.020042 
L 137.881063 183.190469 
L 137.959285 182.63831 
L 137.832175 182.344891 
L 137.235738 181.827409 
L 137.10374 181.293921 
L 136.282417 179.725469 
L 135.578426 175.153483 
L 135.162875 174.321243 
L 134.273109 173.419649 
L 135.358428 172.643425 
L 135.964643 171.251023 
L 135.720202 170.048009 
L 134.273109 169.839949 
L 133.994446 170.266739 
L 133.754893 171.042963 
L 133.34912 171.659141 
L 132.591352 171.627132 
L 132.293134 171.114984 
L 132.405577 169.50652 
L 132.219801 168.943691 
L 131.290924 168.53824 
L 130.76782 169.010376 
L 130.342492 169.674568 
L 129.716722 169.839949 
L 129.051841 169.263783 
L 128.885621 168.468887 
L 129.037175 167.684661 
L 129.30606 167.153841 
L 129.97583 166.804406 
L 130.826486 166.689707 
L 131.530477 166.462975 
L 131.770029 165.769441 
L 131.442478 165.409337 
L 129.30606 164.873182 
L 129.30606 164.425053 
L 131.095371 164.409049 
L 130.919373 163.806208 
L 129.946497 162.963298 
L 129.30606 162.227086 
L 129.462503 161.309487 
L 130.034495 160.98406 
L 130.655377 160.776 
L 130.958484 160.194499 
L 130.772708 159.295573 
L 130.459823 158.55936 
L 130.989664 157.031197 
L 131.509532 156.42789 
L 131.398478 155.902594 
L 131.506033 155.387778 
L 132.278467 153.333852 
L 132.64024 152.939072 
L 133.2269 152.789695 
L 132.374358 152.218752 
L 132.736824 151.287958 
L 133.617057 151.228128 
L 134.361108 150.895815 
L 134.68377 151.002513 
L 134.493106 150.27697 
L 133.987219 150.643117 
L 133.002014 150.511704 
L 132.992236 149.75682 
L 133.555148 148.464977 
L 135.623386 148.415731 
L 134.786436 146.027744 
L 133.833114 144.184545 
L 134.273109 143.352305 
L 134.273109 142.904176 
L 133.578895 142.562744 
L 133.671783 142.17063 
L 134.067778 141.693159 
L 134.273109 141.114326 
L 135.200839 139.909046 
L 133.247574 140.03126 
L 133.201455 138.037791 
L 134.248399 136.862651 
L 134.199042 133.10531 
L 134.363733 130.301318 
L 135.001773 128.060902 
L 135.997501 126.311264 
L 136.282417 124.021393 
L 137.10374 121.335284 
L 138.511722 119.476081 
L 138.922384 118.507801 
L 140.198367 117.53152 
L 140.560141 116.837986 
L 140.931692 115.22152 
L 141.205466 114.543991 
L 142.823668 112.996878 
L 143.292995 112.346023 
L 143.908987 110.58018 
L 144.847642 108.814337 
L 146.167626 105.143945 
L 146.783618 104.07697 
L 147.472942 103.391439 
L 148.895591 102.439164 
L 149.037367 101.76697 
L 149.306253 101.137455 
L 150.479571 100.219857 
L 150.748457 99.526323 
L 150.885344 97.229661 
L 151.090675 96.597478 
L 151.706667 96.01331 
L 154.439521 92.82839 
L 154.61063 92.078841 
L 155.36351 91.451993 
L 155.871948 89.995573 
L 156.492829 87.197432 
L 158.619469 83.527039 
L 159.264794 81.275723 
L 160.027451 80.027363 
L 164.720725 74.852536 
L 165.146053 73.934938 
L 165.346495 72.438506 
L 165.850044 71.171473 
L 167.199361 68.805457 
L 167.566023 67.389049 
L 167.918018 66.780873 
L 169.462888 66.327409 
L 169.897993 65.84727 
L 170.469986 64.694938 
L 171.428196 63.702651 
L 172.479294 62.931762 
L 173.755278 62.598333 
L 175.397924 62.907755 
L 175.177927 61.66473 
L 175.798808 60.827155 
L 176.649464 59.973575 
L 177.260567 58.258413 
L 178.08189 57.850296 
L 178.419219 56.625942 
L 179.690314 54.051866 
L 180.355195 53.022236 
L 180.345417 52.638125 
L 179.944534 51.715192 
L 180.286751 51.042998 
L 181.039631 50.10406 
L 181.367182 48.575619 
L 181.841399 47.927432 
L 182.447613 47.439291 
L 183.024495 47.244568 
L 182.975606 46.967155 
L 183.12716 46.302963 
L 183.640487 44.923898 
L 186.143567 40.973425 
L 187.732435 39.100885 
L 189.375081 37.724487 
L 193.584362 36.356092 
L 194.567016 35.747917 
L 195.412783 35.011704 
L 196.439437 34.459545 
L 198.482967 33.731335 
L 205.649987 32.450965 
L 206.735307 32.02951 
L 208.563729 30.663783 
L 209.776158 30.56242 
L 210.577925 30.826497 
L 211.008142 31.421335 
L 211.286805 32.042848 
L 211.64369 32.392282 
L 212.43568 32.074857 
L 211.609468 30.79182 
L 210.284596 29.466104 
L 209.585494 29.033979 
L 209.785935 28.423136 
L 210.201486 28.081704 
L 210.636591 27.878979 
L 210.817478 27.670919 
L 211.291694 26.507917 
L 212.02013 25.190203 
L 213.521 23.848483 
L 215.716083 22.744164 
L 218.233829 22.176 
L 220.702687 22.464083 
L 221.729341 23.224303 
L 224.017312 26.411889 
L 224.017312 26.411889 
" clip-path="url(#p6b3838a3f3)" style="fill: none; stroke: #000000; stroke-width: 2"/>
   </g>
  </g>
 </g>
 <defs>
  <clipPath id="p6b3838a3f3">
   <rect x="0" y="-0" width="268.590217" height="266.112"/>
  </clipPath>
 </defs>
</svg>
