<?xml version="1.0" encoding="utf-8" standalone="no"?>
<!DOCTYPE svg PUBLIC "-//W3C//DTD SVG 1.1//EN"
  "http://www.w3.org/Graphics/SVG/1.1/DTD/svg11.dtd">
<svg xmlns:xlink="http://www.w3.org/1999/xlink" width="273.899633pt" height="266.112pt" viewBox="0 0 273.899633 266.112" xmlns="http://www.w3.org/2000/svg" version="1.1">
 <metadata>
  <rdf:RDF xmlns:dc="http://purl.org/dc/elements/1.1/" xmlns:cc="http://creativecommons.org/ns#" xmlns:rdf="http://www.w3.org/1999/02/22-rdf-syntax-ns#">
   <cc:Work>
    <dc:type rdf:resource="http://purl.org/dc/dcmitype/StillImage"/>
    <dc:date>2024-02-02T21:58:05.969420</dc:date>
    <dc:format>image/svg+xml</dc:format>
    <dc:creator>
     <cc:Agent>
      <dc:title>Matplotlib v3.8.2, https://matplotlib.org/</dc:title>
     </cc:Agent>
    </dc:creator>
   </cc:Work>
  </rdf:RDF>
 </metadata>
 <defs>
  <style type="text/css">*{stroke-linejoin: round; stroke-linecap: butt}</style>
 </defs>
 <g id="figure_1">
  <g id="patch_1">
   <path d="M 0 266.112 
L 273.899633 266.112 
L 273.899633 0 
L 0 0 
L 0 266.112 
z
" style="fill: none"/>
  </g>
  <g id="axes_1">
   <g id="PatchCollection_1">
    <path d="M 236.712554 168.283145 
L 236.102875 168.842002 
L 235.761504 168.817667 
L 235.639606 168.477458 
L 235.761588 167.942873 
L 236.005499 167.505456 
L 236.566417 166.824748 
L 237.224904 166.751637 
L 237.688303 166.775794 
L 237.785831 167.06749 
L 237.566242 167.335013 
L 236.712554 168.283145 
" clip-path="url(#pccc708d92f)" style="fill: none; stroke: #000000; stroke-width: 2"/>
    <path d="M 239.670966 161.856405 
L 239.086761 163.196639 
L 238.813018 163.569486 
L 238.772959 163.72232 
L 238.776297 163.85332 
L 238.74959 163.987679 
L 238.609381 164.410911 
L 238.547622 164.521757 
L 238.369022 164.763604 
L 238.332301 164.90972 
L 238.232151 165.156605 
L 237.988454 165.156605 
L 237.42094 164.988656 
L 236.82505 165.183477 
L 236.564661 165.630222 
L 236.439474 166.103838 
L 236.244182 166.382634 
L 235.432971 166.701737 
L 235.01735 166.795788 
L 234.676841 166.805865 
L 234.26289 166.637916 
L 233.720413 166.058492 
L 233.38992 165.806568 
L 233.581873 165.761222 
L 233.929058 165.747786 
L 234.102651 165.677247 
L 234.105989 165.620145 
L 234.159402 165.472349 
L 234.226168 165.33799 
L 234.256213 165.332952 
L 234.30295 165.176759 
L 234.419791 165.13981 
L 234.56 165.149887 
L 234.676841 165.112938 
L 235.561496 164.254718 
L 235.858606 163.782781 
L 235.668322 163.551012 
L 235.783494 163.205036 
L 236.018846 163.043805 
L 236.339324 163.000138 
L 236.714885 163.003497 
L 237.057063 162.934638 
L 237.69802 162.637368 
L 238.048543 162.56683 
L 237.935041 162.40056 
L 237.741418 162.370329 
L 237.210625 162.425752 
L 237.210625 162.298111 
L 237.457661 162.237649 
L 237.674652 162.123444 
L 238.048543 161.861443 
L 238.487532 161.680058 
L 238.676147 161.518827 
L 238.818026 160.989788 
L 238.983273 160.682441 
L 239.18691 160.413722 
L 239.368849 160.299517 
L 239.468998 160.192029 
L 239.677643 159.659631 
L 239.717703 159.453053 
L 240.031505 159.800708 
L 239.998122 160.465786 
L 239.670966 161.856405 
" clip-path="url(#pccc708d92f)" style="fill: none; stroke: #000000; stroke-width: 2"/>
    <path d="M 226.225421 122.685532 
L 225.971443 122.742069 
L 225.745625 122.728025 
L 225.703101 122.431579 
L 225.745199 122.064514 
L 225.801234 121.485645 
L 225.744437 121.062025 
L 225.984248 120.892575 
L 225.97035 121.174997 
L 226.069474 121.542105 
L 226.238931 121.79621 
L 226.097965 122.007986 
L 226.225138 122.276174 
L 226.225421 122.685532 
" clip-path="url(#pccc708d92f)" style="fill: none; stroke: #000000; stroke-width: 2"/>
    <path d="M 228.677883 123.841123 
L 228.858152 124.428945 
L 228.894873 124.732933 
L 228.988346 125.053716 
L 229.382268 125.701999 
L 229.609274 126.647553 
L 229.734461 126.719771 
L 230.170111 126.78863 
L 230.215178 127.065746 
L 230.163434 127.31767 
L 230.074969 127.572953 
L 230.029902 127.851748 
L 230.039917 128.180928 
L 230.079977 128.431173 
L 230.163434 128.661263 
L 230.310321 128.914866 
L 230.064954 129.218854 
L 229.959797 129.386803 
L 229.889692 129.620252 
L 230.186803 129.49429 
L 230.37041 129.620252 
L 230.525642 129.852022 
L 230.730949 130.031728 
L 230.745971 129.72606 
L 230.881173 129.524521 
L 231.04642 129.509406 
L 231.148239 129.76133 
L 231.241711 129.749573 
L 231.266749 129.736137 
L 231.266749 129.700868 
L 231.291786 129.620252 
L 231.62228 129.705906 
L 231.625618 129.275957 
L 231.528807 128.662942 
L 231.572205 128.211159 
L 231.929405 128.683096 
L 232.113013 129.269239 
L 232.493581 132.285605 
L 232.568693 132.472028 
L 233.121185 133.449492 
L 233.027712 134.341302 
L 232.510273 134.961034 
L 231.775842 135.207919 
L 231.021382 134.986226 
L 230.724272 134.719187 
L 230.447192 134.356417 
L 230.246892 133.943262 
L 229.842956 132.184835 
L 229.889692 131.875809 
L 229.429004 132.016886 
L 229.432343 132.240258 
L 229.624296 132.512336 
L 229.749483 132.792811 
L 229.724446 133.256351 
L 229.624296 133.368876 
L 229.051774 133.155581 
L 229.141909 132.759221 
L 229.025068 132.441797 
L 228.490937 131.875809 
L 227.846641 130.878191 
L 227.666372 130.727037 
L 227.509471 130.596037 
L 227.230721 130.74887 
L 227.230721 130.900025 
L 227.350901 130.918499 
L 227.365923 130.978961 
L 227.349232 131.069653 
L 227.370931 131.182179 
L 227.095519 130.990717 
L 227.008723 131.313179 
L 227.080497 131.778398 
L 227.300826 132.016886 
L 227.250751 132.043758 
L 227.219037 132.089104 
L 227.140587 132.099181 
L 226.950303 132.016886 
L 226.765026 131.897642 
L 226.694921 131.818706 
L 226.648185 131.734732 
L 225.613306 130.537254 
L 225.419683 130.213113 
L 225.157625 129.286034 
L 224.977356 128.914866 
L 225.713456 128.012979 
L 225.54654 126.820541 
L 225.165971 125.539089 
L 225.256106 124.38024 
L 225.232738 124.128316 
L 225.252768 123.88647 
L 225.309519 123.676533 
L 225.396315 123.523699 
L 225.458074 123.632866 
L 225.616644 123.844482 
L 225.676734 123.958688 
L 226.018912 123.401097 
L 226.751673 122.789762 
L 227.090512 122.395081 
L 227.259097 121.745118 
L 227.402645 120.218461 
L 227.776537 119.845614 
L 228.016895 120.475423 
L 228.64283 121.6074 
L 228.768017 122.33294 
L 228.6228 123.201237 
L 228.614455 123.523699 
L 228.677883 123.841123 
" clip-path="url(#pccc708d92f)" style="fill: none; stroke: #000000; stroke-width: 2"/>
    <path d="M 234.879854 114.841642 
L 234.327886 114.878422 
L 233.967543 114.590476 
L 233.65509 114.218324 
L 233.474733 113.95415 
L 233.234367 113.702 
L 233.017855 113.401789 
L 233.149714 113.161299 
L 233.329916 113.257263 
L 233.630273 113.449253 
L 233.846663 113.749442 
L 234.087128 114.121673 
L 234.411314 114.241431 
L 234.723362 114.325157 
L 234.927592 114.589243 
L 234.879854 114.841642 
" clip-path="url(#pccc708d92f)" style="fill: none; stroke: #000000; stroke-width: 2"/>
    <path d="M 235.932049 103.512563 
L 235.952079 103.603255 
L 236.179085 103.571345 
L 236.426121 103.168267 
L 236.860102 103.571345 
L 236.930207 103.667076 
L 238.048543 104.372462 
L 238.111972 104.815848 
L 238.197099 104.891425 
L 238.332301 104.730194 
L 238.242166 104.135654 
L 238.485863 103.88541 
L 238.609381 104.308641 
L 238.898146 103.556229 
L 238.903153 102.897869 
L 239.180234 103.079254 
L 239.12682 103.992897 
L 239.358834 104.765463 
L 239.12849 105.13831 
L 238.485863 105.564901 
L 238.587682 105.93103 
L 238.332301 107.126828 
L 238.547622 107.855727 
L 238.736237 107.768393 
L 238.74959 107.267905 
L 239.009979 107.38211 
L 239.043362 107.74488 
L 238.903153 108.5376 
L 238.896476 109.753552 
L 238.74959 110.086091 
L 238.903153 110.240604 
L 238.657787 110.529477 
L 237.891642 112.575097 
L 237.77647 112.793431 
L 237.674652 113.414842 
L 237.494383 113.461868 
L 237.375872 113.295599 
L 237.476022 112.92779 
L 237.364188 112.92779 
L 236.786659 114.153818 
L 236.299264 114.392306 
L 236.244182 114.31505 
L 236.496225 113.915331 
L 235.815208 114.160536 
L 235.668322 113.915331 
L 234.656812 113.841433 
L 234.536632 113.562638 
L 234.626767 112.511276 
L 234.817051 112.225763 
L 234.690195 112.00407 
L 234.947245 111.960403 
L 235.668322 112.084685 
L 235.503075 111.792454 
L 234.95726 110.94599 
L 235.681675 111.058516 
L 236.043883 110.996375 
L 236.244182 110.804913 
L 235.643285 110.559707 
L 235.514759 110.381681 
L 235.835238 110.38504 
L 236.649788 110.240604 
L 237.020341 110.433746 
L 237.223979 110.374963 
L 237.364188 109.95845 
L 236.950237 110.112963 
L 236.449489 109.971886 
L 235.514759 109.380705 
L 235.312791 109.511705 
L 235.062417 109.434448 
L 234.676841 108.957473 
L 235.180928 109.194281 
L 235.37455 109.09855 
L 236.26922 109.26482 
L 236.649788 109.253063 
L 236.496225 109.09855 
L 236.653126 108.698831 
L 236.576345 108.357895 
L 236.356016 108.248728 
L 236.078935 108.5376 
L 236.244182 107.985048 
L 235.963763 107.731444 
L 235.758457 107.723047 
L 235.514759 107.855727 
L 235.873629 106.634737 
L 236.115657 106.750622 
L 236.225821 106.680083 
L 236.078935 106.2938 
L 235.902004 106.189672 
L 235.237679 105.934389 
L 235.297769 105.737888 
L 235.668322 105.294503 
L 235.37455 105.43558 
L 235.207634 105.054336 
L 235.317799 104.755386 
L 235.594879 104.657976 
L 235.952079 104.871271 
L 236.032199 104.540411 
L 235.237679 103.88541 
L 235.227664 103.646922 
L 235.377888 102.755112 
L 235.473031 102.946574 
L 235.932049 103.512563 
L 235.932049 103.512563 
" clip-path="url(#pccc708d92f)" style="fill: none; stroke: #000000; stroke-width: 2"/>
    <path d="M 53.415211 22.359434 
L 53.741666 22.521539 
L 118.794023 22.521539 
L 118.8343 23.061176 
L 119.109878 23.242477 
L 119.870898 23.3022 
L 193.552034 64.692167 
L 193.865769 65.19981 
L 194.684024 70.231448 
L 194.310934 70.259176 
L 194.10743 70.436211 
L 194.035356 70.72416 
L 194.065033 71.093161 
L 193.677104 71.123022 
L 192.731659 71.750111 
L 192.328891 72.266285 
L 192.178383 72.737668 
L 192.21018 72.955229 
L 192.358568 73.106669 
L 192.695622 73.149328 
L 192.799493 73.311433 
L 192.612948 74.339516 
L 194.033236 74.32032 
L 194.853611 74.623199 
L 195.139788 74.887686 
L 195.294536 75.205496 
L 195.856292 76.899061 
L 196.13823 77.270195 
L 225.758523 98.593333 
L 225.890386 99.172758 
L 225.778553 99.841195 
L 225.396315 100.195568 
L 224.837147 100.477722 
L 225.776884 100.801864 
L 225.80359 101.697033 
L 225.593276 102.383945 
L 224.675238 103.75273 
L 224.556728 103.450422 
L 224.825463 102.251265 
L 224.696937 101.888495 
L 224.33473 102.951613 
L 224.020928 103.329498 
L 223.575262 103.297588 
L 223.985876 104.056718 
L 223.995891 105.43558 
L 223.855681 105.524593 
L 223.536872 105.423824 
L 223.283159 105.605209 
L 223.04447 106.287082 
L 223.339911 106.270287 
L 223.995891 105.999889 
L 224.010913 106.310595 
L 224.27464 106.997507 
L 224.191182 107.148661 
L 223.276483 108.01024 
L 222.869208 108.863421 
L 222.174838 109.95845 
L 222.335077 110.109604 
L 222.558744 109.938296 
L 222.875885 109.535218 
L 222.999402 109.788821 
L 221.887742 112.830379 
L 221.386994 113.35606 
L 220.963028 113.633176 
L 220.901269 113.915331 
L 221.151643 114.167254 
L 221.293521 114.293216 
L 221.321897 114.620717 
L 221.046486 115.440309 
L 220.455603 116.651222 
L 219.739534 117.737853 
L 219.068532 118.167802 
L 219.348951 118.295444 
L 219.213749 118.722034 
L 219.197057 119.682703 
L 218.365816 121.160655 
L 217.911804 121.850926 
L 217.688137 122.778005 
L 217.594664 124.309701 
L 217.345959 124.632164 
L 217.250817 124.894164 
L 216.945361 125.839718 
L 216.793468 126.289821 
L 216.890279 126.92131 
L 217.235795 127.352939 
L 217.516214 128.352236 
L 217.636393 128.47148 
L 218.409214 129.03411 
L 218.445936 129.161751 
L 218.47598 130.436485 
L 218.332433 130.88155 
L 218.088735 131.182179 
L 218.245636 131.696103 
L 218.315741 132.853273 
L 218.572792 133.367197 
L 219.348951 134.002045 
L 219.470799 134.455507 
L 219.888089 134.930803 
L 220.470626 135.181047 
L 220.622519 135.422894 
L 222.103064 135.627792 
L 222.083034 135.463202 
L 221.170004 134.986226 
L 222.184853 135.359073 
L 223.319881 136.437307 
L 223.995891 137.253539 
L 224.696937 137.817848 
L 225.18767 138.53835 
L 225.710117 138.90112 
L 225.928777 139.403288 
L 226.084009 140.179213 
L 226.389465 140.743522 
L 226.760018 141.018959 
L 227.090512 140.662906 
L 227.180647 141.260805 
L 227.095519 142.79586 
L 227.509471 143.185502 
L 227.462735 142.649744 
L 227.370931 142.480116 
L 228.043602 142.619514 
L 228.94161 143.057861 
L 229.562537 143.113284 
L 230.123375 143.365208 
L 230.874496 143.35681 
L 231.021382 143.474375 
L 231.108179 143.758209 
L 231.485409 144.257017 
L 231.657332 144.866673 
L 232.703895 146.309356 
L 232.580377 146.635177 
L 232.423476 146.873665 
L 232.577039 148.734541 
L 232.269914 148.705989 
L 232.062938 148.96799 
L 231.787527 149.769107 
L 231.558852 149.950492 
L 231.365229 149.945454 
L 231.218343 149.762389 
L 231.148239 149.411376 
L 230.100006 150.262878 
L 229.609274 151.549368 
L 229.215352 151.811369 
L 228.883189 151.895343 
L 228.931595 152.627601 
L 228.322352 152.661191 
L 228.070309 152.676306 
L 228.612785 153.502616 
L 228.52432 154.24831 
L 228.123722 155.049427 
L 227.581245 155.549916 
L 227.342555 156.3292 
L 227.005385 159.026462 
L 227.090512 159.453053 
L 227.422675 160.501056 
L 227.230721 161.102313 
L 227.541185 161.856405 
L 227.441036 162.219175 
L 226.528005 163.285652 
L 227.155609 163.146254 
L 227.602944 162.634009 
L 228.070309 161.283698 
L 228.632815 161.824495 
L 228.66286 162.120085 
L 228.337374 162.425752 
L 229.459049 162.388804 
L 229.819588 162.642407 
L 230.377087 163.186562 
L 230.443853 163.477114 
L 230.310321 163.987679 
L 229.979827 164.90972 
L 230.200156 165.630222 
L 230.310321 166.805865 
L 230.730949 166.511954 
L 230.665851 167.146802 
L 230.41047 167.729585 
L 229.749483 168.779267 
L 228.768017 171.199414 
L 228.497613 171.172542 
L 228.337374 171.199414 
L 228.480922 171.505081 
L 228.490937 172.608507 
L 228.197165 172.479186 
L 228.193826 172.643776 
L 228.070309 173.031739 
L 227.566222 172.537969 
L 227.370931 172.479186 
L 227.542854 173.021662 
L 227.395968 173.201368 
L 227.090512 173.313893 
L 227.519486 174.383729 
L 227.636327 175.586245 
L 227.499456 176.782043 
L 227.562884 177.363147 
L 228.247239 178.065174 
L 228.68289 179.072868 
L 228.768017 179.539767 
L 228.614455 181.666003 
L 229.454042 181.998542 
L 229.59592 182.307568 
L 230.353719 182.522543 
L 230.45053 183.214494 
L 230.630799 183.552071 
L 231.54216 184.286009 
L 231.777512 185.00819 
L 232.002848 185.340729 
L 232.703895 185.9655 
L 232.173102 186.031 
L 232.026216 185.980616 
L 231.291786 185.340729 
L 230.876166 184.833523 
L 230.564033 184.652138 
L 229.819588 184.831844 
L 229.734461 184.890626 
L 229.31884 185.481807 
L 229.629303 185.599371 
L 230.86782 185.481807 
L 230.527311 186.03268 
L 230.685881 186.151924 
L 231.435334 186.298039 
L 231.438672 186.585232 
L 231.291786 187.453529 
L 231.572205 187.74912 
L 231.572205 188.172351 
L 231.488747 188.504891 
L 231.679031 188.60566 
L 231.725768 188.729942 
L 231.507108 189.438688 
L 231.657332 189.92574 
L 231.572205 190.132318 
L 232.216501 189.902227 
L 233.021035 189.489072 
L 233.318146 189.76115 
L 234.551655 191.470872 
L 234.650135 192.107399 
L 234.311296 192.903478 
L 234.676841 193.398928 
L 234.676841 193.629018 
L 234.536632 194.243712 
L 234.531625 195.175829 
L 233.980802 195.765331 
L 233.600234 195.775408 
L 233.019366 195.926562 
L 232.914209 196.118024 
L 232.984314 196.804936 
L 233.401604 196.672256 
L 233.82557 196.652102 
L 233.979133 196.338037 
L 234.693533 196.747833 
L 234.817051 197.547271 
L 235.307784 197.997375 
L 235.481376 198.403811 
L 235.723404 199.52907 
L 235.938726 199.841456 
L 236.215806 200.036277 
L 236.053898 200.692958 
L 236.542962 201.329485 
L 236.472857 201.749358 
L 236.659803 202.149077 
L 236.492887 202.283436 
L 236.078935 202.441308 
L 235.641616 202.941796 
L 235.808532 203.019053 
L 236.776644 203.019053 
L 237.133844 203.936055 
L 237.631254 204.335774 
L 237.768125 204.570903 
L 237.904996 205.157045 
L 237.756441 205.578597 
L 237.370865 205.780136 
L 236.776644 205.709598 
L 236.950237 205.988393 
L 237.534442 206.436817 
L 237.554472 206.618202 
L 237.334143 206.764318 
L 235.985462 207.454589 
L 236.244182 207.976911 
L 236.204122 208.361514 
L 235.815208 208.885515 
L 235.514759 209.10217 
L 236.042214 209.006439 
L 237.000311 207.852628 
L 237.42094 207.897975 
L 237.694682 208.050808 
L 238.307263 208.007142 
L 238.742914 208.44213 
L 239.589178 208.514348 
L 240.09994 208.905669 
L 241.343464 210.959687 
L 241.381855 212.148767 
L 241.552109 212.766819 
L 241.762423 212.521614 
L 241.870918 211.822945 
L 241.627221 210.91602 
L 242.263171 210.94961 
L 243.596829 211.406432 
L 244.578295 211.70874 
L 244.645061 211.933792 
L 244.471469 212.477947 
L 244.406372 212.780255 
L 244.636716 213.317693 
L 244.224433 213.636796 
L 244.438086 213.814822 
L 244.645061 213.752681 
L 245.147478 213.994527 
L 245.42289 213.472206 
L 245.888585 213.732527 
L 246.618008 214.328746 
L 246.704804 213.898796 
L 246.758217 213.752681 
L 247.041974 213.893758 
L 247.330739 213.752681 
L 246.981885 213.651911 
L 245.91863 213.203487 
L 246.618008 212.343588 
L 246.890081 212.430921 
L 247.359115 213.349603 
L 248.031786 213.752681 
L 248.143619 213.935745 
L 249.011582 215.596762 
L 249.063326 215.561493 
L 249.852839 215.737839 
L 250.515495 215.546377 
L 250.610637 215.138261 
L 250.365271 214.819158 
L 250.004732 214.891376 
L 249.90959 214.64785 
L 249.979695 214.469823 
L 250.42536 214.328746 
L 250.615645 214.399285 
L 251.074663 215.334761 
L 250.886048 215.665621 
L 250.285151 216.302148 
L 250.817613 216.302148 
L 250.56557 217.229227 
L 250.817613 218.005152 
L 250.492853 218.602909 
L 249.839945 219.253459 
L 249.104363 219.778166 
L 247.775228 220.238884 
L 246.999369 220.814782 
L 245.161474 222.742972 
L 244.58912 222.954134 
L 241.634073 225.148944 
L 239.51848 226.046917 
L 237.464363 227.452534 
L 236.945004 227.670095 
L 233.504516 228.418762 
L 231.571229 228.651254 
L 231.246894 228.828289 
L 226.74649 232.285807 
L 226.231371 232.439379 
L 225.686574 232.432981 
L 225.254128 232.275142 
L 224.418914 231.822956 
L 223.935592 231.726973 
L 223.303882 232.010656 
L 222.593738 232.149298 
L 219.91215 232.147165 
L 219.218965 232.305003 
L 218.309557 233.030208 
L 217.610012 233.307492 
L 216.793877 234.079621 
L 216.418666 234.275853 
L 215.280316 234.17987 
L 213.925744 234.813357 
L 213.46362 235.391387 
L 211.44342 236.750079 
L 210.920915 237.370448 
L 210.319909 237.023097 
L 208.693997 236.617836 
L 207.966895 236.248835 
L 206.834904 235.069311 
L 206.099322 234.563801 
L 204.948253 234.472084 
L 204.259308 234.70031 
L 204.015527 234.634189 
L 203.078561 233.996436 
L 202.750903 234.133921 
L 202.287863 234.124413 
L 201.115596 234.322778 
L 200.740386 234.572333 
L 199.565999 234.704576 
L 198.137232 235.608949 
L 198.084236 235.911828 
L 197.605154 237.466751 
L 197.113352 238.334863 
L 197.005241 238.797714 
L 197.249022 239.580508 
L 196.825055 240.081753 
L 196.398969 240.378233 
L 194.906607 241.028784 
L 193.611389 241.969417 
L 192.076631 242.13792 
L 191.334689 242.526118 
L 190.658463 242.726615 
L 189.958918 243.692843 
L 189.100386 243.756832 
L 187.917519 243.389964 
L 187.315487 242.897252 
L 186.963595 242.986836 
L 186.603223 243.178801 
L 185.867641 243.257721 
L 184.973072 243.161738 
L 183.23057 242.769274 
L 182.509827 242.425869 
L 181.793323 241.828642 
L 181.235808 241.137565 
L 180.989907 240.501944 
L 180.292482 240.909339 
L 178.092096 241.020252 
L 177.583336 240.69391 
L 176.635771 240.681113 
L 174.717323 242.892986 
L 173.761278 243.340906 
L 173.500539 243.566999 
L 172.648366 243.731236 
L 171.007616 243.897607 
L 170.248716 243.492346 
L 170.125766 243.008165 
L 169.964659 242.897252 
L 167.471736 242.942044 
L 167.223715 243.134009 
L 165.320106 243.413426 
L 164.75623 243.178801 
L 163.910417 243.321709 
L 163.675116 243.159605 
L 163.49069 242.786338 
L 163.429215 242.36188 
L 163.560645 242.052602 
L 163.376219 241.173825 
L 163.261748 240.78776 
L 159.976008 239.298959 
L 159.579599 239.414138 
L 159.19591 239.21364 
L 159.011484 238.82331 
L 159.206509 238.362592 
L 158.852497 237.938134 
L 158.579038 237.803758 
L 157.67387 237.77603 
L 157.093036 237.53074 
L 156.253582 237.377167 
L 155.982244 237.560601 
L 154.979563 238.644142 
L 153.949324 238.829709 
L 153.571994 239.051536 
L 153.730982 239.503722 
L 153.256139 239.938845 
L 152.73466 240.779228 
L 151.60479 241.065044 
L 151.123588 241.333796 
L 150.231138 241.135432 
L 150.2057 241.489502 
L 149.879246 241.299669 
L 149.716019 241.001056 
L 149.438321 240.851749 
L 148.857487 241.073576 
L 148.162182 240.988258 
L 147.990475 240.742968 
L 147.134063 240.766431 
L 138.578419 240.681113 
L 138.544502 240.501944 
L 138.497866 239.132588 
L 138.165052 238.428713 
L 137.779243 238.046915 
L 137.603297 237.488081 
L 137.132694 237.016698 
L 136.977946 236.59224 
L 136.594256 236.248835 
L 136.098216 235.990747 
L 135.044659 235.672937 
L 134.892031 235.726261 
L 134.495622 235.967285 
L 134.364193 235.809446 
L 133.910548 234.969062 
L 134.330275 234.70031 
L 134.330275 234.572333 
L 134.005941 234.388899 
L 133.738842 234.08602 
L 133.556536 233.685024 
L 133.439946 233.028075 
L 133.149529 232.755057 
L 132.681046 232.533229 
L 132.509339 232.149298 
L 131.532096 231.315313 
L 131.377349 230.952711 
L 131.317993 230.447201 
L 130.955502 229.178093 
L 131.057254 228.657652 
L 131.655047 227.896188 
L 132.076893 226.840376 
L 132.076893 225.925339 
L 132.341872 224.634902 
L 132.263439 224.095264 
L 132.585653 223.468176 
L 132.076893 222.826157 
L 132.348232 222.391034 
L 132.331273 221.940981 
L 132.136249 221.525055 
L 131.640208 220.885169 
L 131.599931 220.247416 
L 131.10813 220.136502 
L 130.807114 219.630992 
L 130.677804 219.072158 
L 130.720201 218.807672 
L 130.955502 218.148589 
L 130.868589 217.764658 
L 130.4743 217.109841 
L 130.383147 216.664054 
L 130.804994 214.19196 
L 130.393746 212.389614 
L 129.71328 210.866685 
L 129.598809 209.958047 
L 129.823512 209.318161 
L 129.795954 209.094201 
L 129.556413 208.388193 
L 128.70636 207.095623 
L 126.17104 204.077494 
L 125.596566 203.444006 
L 125.314628 202.411657 
L 124.701996 202.18983 
L 122.707234 200.091003 
L 122.113681 199.820118 
L 120.403457 198.098131 
L 119.767026 197.680765 
L 119.054763 197.422678 
L 117.988487 198.401704 
L 117.683231 198.920011 
L 118.064801 199.841448 
L 117.795582 201.471024 
L 117.625996 201.682187 
L 117.32286 201.880551 
L 117.32286 202.021326 
L 116.985806 202.386061 
L 116.746265 202.213292 
L 116.523683 201.803765 
L 115.448928 201.0423 
L 114.967726 200.846069 
L 114.435648 200.498397 
L 113.912049 199.971558 
L 113.350294 199.623886 
L 112.692086 199.805187 
L 112.149409 200.1102 
L 111.61762 200.176652 
L 109.758238 199.813719 
L 108.138686 200.455738 
L 106.890104 200.274437 
L 106.574249 200.05261 
L 106.327289 199.666545 
L 105.974337 198.900815 
L 105.594887 198.544612 
L 104.074967 197.599713 
L 103.892661 197.63384 
L 103.392381 197.902593 
L 102.298547 197.819407 
L 101.830064 198.115888 
L 101.152778 197.834338 
L 100.414016 197.638106 
L 99.150596 196.663346 
L 97.764226 195.436898 
L 97.365697 195.453962 
L 96.975648 195.652326 
L 96.659793 195.9872 
L 96.343938 195.786702 
L 94.811299 195.208672 
L 93.708986 194.549589 
L 93.202346 194.532526 
L 93.083636 194.378953 
L 92.943727 193.911836 
L 92.40105 193.468182 
L 90.932006 193.34447 
L 88.118988 192.713116 
L 87.824331 192.26093 
L 87.201101 191.036615 
L 86.45704 190.537503 
L 85.628185 190.33274 
L 82.519451 190.330607 
L 82.106083 190.185566 
L 81.702255 189.884819 
L 80.758127 189.019229 
L 80.337083 188.884464 
L 79.74989 188.995378 
L 79.536847 188.933522 
L 78.946473 188.59225 
L 78.422875 188.517596 
L 77.373557 189.052968 
L 76.502306 188.843938 
L 76.084699 188.033416 
L 76.086819 187.013864 
L 76.472629 186.177746 
L 73.41583 185.343761 
L 72.938868 185.384287 
L 71.819597 185.911127 
L 71.406229 185.908994 
L 71.058577 185.774618 
L 69.085013 184.26022 
L 68.61123 183.628866 
L 68.457542 182.745823 
L 68.459662 181.975827 
L 68.317633 181.45112 
L 67.908506 181.109848 
L 66.793474 180.678991 
L 66.352549 180.171348 
L 66.030334 180.004978 
L 65.178162 179.985781 
L 64.834749 179.661572 
L 64.6906 179.156062 
L 64.44258 179.077143 
L 64.243315 179.215785 
L 64.005894 179.266976 
L 62.349245 179.766087 
L 62.129842 179.60185 
L 61.502372 178.917171 
L 61.008451 178.917171 
L 59.719593 179.657306 
L 58.857881 179.650907 
L 57.951653 179.3203 
L 56.431733 178.292216 
L 55.044303 176.820478 
L 53.739546 174.941346 
L 52.713547 172.897976 
L 51.685428 169.079989 
L 50.184587 165.432638 
L 45.809253 158.600787 
L 45.257036 156.6534 
L 45.056712 155.292576 
L 44.331729 152.696771 
L 42.790611 149.377895 
L 41.564288 147.473167 
L 38.614541 144.024181 
L 37.011948 142.686819 
L 34.148054 141.22148 
L 31.390152 139.120521 
L 30.741484 138.437975 
L 30.27724 137.657314 
L 29.242762 134.880209 
L 27.850032 133.07573 
L 27.269198 132.103103 
L 27.019058 131.29258 
L 26.676705 128.829019 
L 26.058774 126.51903 
L 26.005778 125.699976 
L 26.414906 124.390342 
L 27.949664 122.312845 
L 28.608932 121.150386 
L 28.801837 119.554936 
L 28.413908 117.820845 
L 26.421265 113.102751 
L 25.586051 109.764678 
L 23.989817 106.825468 
L 23.27131 105.017807 
L 22.881145 103.37115 
L 22.824969 101.641324 
L 23.230917 99.894435 
L 24.472079 96.492374 
L 24.668164 94.747618 
L 24.530375 93.664077 
L 29.331795 93.602222 
L 30.340835 93.841112 
L 31.271442 93.943494 
L 31.507803 93.76006 
L 31.786561 92.847156 
L 32.136333 92.682919 
L 32.242325 92.505883 
L 32.322879 92.096356 
L 32.655692 91.891593 
L 33.620216 92.028102 
L 34.70981 91.51406 
L 35.445392 90.82085 
L 36.812684 89.993264 
L 37.071303 89.664789 
L 37.806885 88.099201 
L 39.203855 86.930342 
L 39.822846 86.173144 
L 40.357883 85.20653 
L 40.677138 84.432654 
L 41.03327 82.945985 
L 41.279171 82.52366 
L 42.356046 81.414524 
L 43.144623 80.045168 
L 43.662922 79.712427 
L 44.57763 80.013173 
L 44.647584 79.650571 
L 44.403804 78.264151 
L 44.547952 77.893017 
L 45.547453 76.171724 
L 45.617408 75.132975 
L 46.239579 74.63813 
L 46.368888 74.330985 
L 47.175485 74.245666 
L 47.242259 74.015307 
L 47.929085 73.838272 
L 48.359411 73.375421 
L 49.321815 72.925368 
L 49.860252 72.400661 
L 49.88675 71.850359 
L 49.12467 71.4323 
L 49.88887 70.613246 
L 50.341454 70.331696 
L 51.486164 69.787793 
L 51.548699 69.542503 
L 52.091376 69.813389 
L 52.660551 69.7494 
L 53.154472 69.41026 
L 53.453368 68.736247 
L 53.351616 68.217939 
L 53.642033 67.802013 
L 53.856136 67.051214 
L 53.750145 66.643819 
L 53.410972 66.291882 
L 53.522263 65.788505 
L 53.319819 65.502689 
L 52.815299 65.024908 
L 52.713547 64.722028 
L 52.849216 64.393553 
L 53.68231 63.301481 
L 53.203228 63.297215 
L 51.765982 63.608626 
L 51.495703 63.527574 
L 50.7739 63.124446 
L 49.773339 63.126579 
L 49.574075 62.604005 
L 49.302736 62.488826 
L 47.804015 61.659107 
L 47.274057 61.968385 
L 46.769537 62.57841 
L 46.766896 62.570566 
L 46.680504 62.313923 
L 46.383727 61.972651 
L 46.477 61.746558 
L 46.103909 61.644176 
L 45.792294 61.349828 
L 45.279294 60.682214 
L 45.234778 60.32601 
L 45.470079 59.867425 
L 45.917364 59.259534 
L 45.991558 58.414884 
L 46.156905 58.143999 
L 47.336592 56.898354 
L 47.469081 56.508023 
L 45.431922 57.158574 
L 45.20404 56.936747 
L 45.283534 56.429104 
L 45.451001 56.17315 
L 46.137827 55.447945 
L 47.446823 52.233584 
L 48.126229 51.374004 
L 48.522638 51.139379 
L 49.833754 51.29935 
L 50.063756 51.105251 
L 50.356293 50.550683 
L 50.591595 50.365117 
L 51.077036 50.399244 
L 52.315018 50.970875 
L 52.936129 50.763979 
L 53.864616 50.232873 
L 54.076599 49.846809 
L 54.163512 49.426617 
L 54.076599 48.014601 
L 54.254665 47.105963 
L 54.960569 44.808772 
L 54.788863 44.209412 
L 54.256785 43.595121 
L 53.886874 43.409554 
L 53.503184 43.49274 
L 53.773463 42.291887 
L 53.711988 41.74585 
L 53.097236 41.647735 
L 53.324059 41.346988 
L 53.656872 41.084635 
L 53.500005 40.715634 
L 53.93669 39.738741 
L 53.701389 38.693594 
L 53.93669 38.126228 
L 53.703509 37.654845 
L 53.663232 37.32637 
L 53.945169 35.167821 
L 53.795721 34.730566 
L 53.30816 34.918266 
L 52.987005 34.664444 
L 52.245064 33.026336 
L 51.784 32.301131 
L 51.893172 32.181686 
L 51.994924 31.401025 
L 51.878333 30.861388 
L 51.479804 30.618231 
L 51.077036 30.560641 
L 49.533798 29.939952 
L 49.0102 29.492031 
L 48.141068 29.039845 
L 48.052035 28.555665 
L 48.126229 28.11201 
L 47.935444 27.862455 
L 47.814614 27.442263 
L 47.316453 26.518694 
L 47.148987 25.857478 
L 46.811933 25.697507 
L 46.515157 25.795622 
L 46.301054 25.550333 
L 46.477 25.187731 
L 46.409165 24.906181 
L 46.110269 24.699284 
L 46.042434 24.477457 
L 46.265017 24.018872 
L 46.616909 23.688264 
L 47.023917 23.814108 
L 47.245439 23.982612 
L 49.355732 23.826906 
L 49.849653 23.982612 
L 50.110393 23.765051 
L 51.140631 22.828684 
L 51.91861 22.581261 
L 52.690229 22.176 
L 53.415211 22.359434 
L 53.415211 22.359434 
" clip-path="url(#pccc708d92f)" style="fill: none; stroke: #000000; stroke-width: 2"/>
   </g>
  </g>
 </g>
 <defs>
  <clipPath id="pccc708d92f">
   <rect x="0" y="-0" width="273.899633" height="266.112"/>
  </clipPath>
 </defs>
</svg>
