<?xml version="1.0" encoding="utf-8" standalone="no"?>
<!DOCTYPE svg PUBLIC "-//W3C//DTD SVG 1.1//EN"
  "http://www.w3.org/Graphics/SVG/1.1/DTD/svg11.dtd">
<svg xmlns:xlink="http://www.w3.org/1999/xlink" width="254.969671pt" height="266.112pt" viewBox="0 0 254.969671 266.112" xmlns="http://www.w3.org/2000/svg" version="1.1">
 <metadata>
  <rdf:RDF xmlns:dc="http://purl.org/dc/elements/1.1/" xmlns:cc="http://creativecommons.org/ns#" xmlns:rdf="http://www.w3.org/1999/02/22-rdf-syntax-ns#">
   <cc:Work>
    <dc:type rdf:resource="http://purl.org/dc/dcmitype/StillImage"/>
    <dc:date>2024-02-02T21:58:05.993425</dc:date>
    <dc:format>image/svg+xml</dc:format>
    <dc:creator>
     <cc:Agent>
      <dc:title>Matplotlib v3.8.2, https://matplotlib.org/</dc:title>
     </cc:Agent>
    </dc:creator>
   </cc:Work>
  </rdf:RDF>
 </metadata>
 <defs>
  <style type="text/css">*{stroke-linejoin: round; stroke-linecap: butt}</style>
 </defs>
 <g id="figure_1">
  <g id="patch_1">
   <path d="M 0 266.112 
L 254.969671 266.112 
L 254.969671 0 
L 0 0 
L 0 266.112 
z
" style="fill: none"/>
  </g>
  <g id="axes_1">
   <g id="PatchCollection_1">
    <path d="M 198.74662 35.834394 
L 199.35818 35.713657 
L 200.903173 35.16229 
L 201.659575 35.166315 
L 202.520587 35.616061 
L 202.621172 36.148311 
L 202.198713 36.673518 
L 200.339894 37.63539 
L 200.412315 37.848693 
L 201.023875 38.078093 
L 201.510709 38.670712 
L 200.734189 39.16674 
L 200.47669 39.467577 
L 200.971571 39.65472 
L 201.301491 39.632585 
L 201.973402 39.459528 
L 202.737851 39.409221 
L 203.920736 39.156679 
L 203.944877 39.34684 
L 204.809912 40.463659 
L 205.397331 42.034249 
L 205.847954 42.289809 
L 206.029008 42.126814 
L 206.197991 41.753535 
L 206.604357 41.373212 
L 207.662516 41.066339 
L 208.362591 41.347053 
L 209.625944 42.695285 
L 210.358206 43.077619 
L 211.086445 43.300983 
L 211.65777 43.669231 
L 211.919293 44.488232 
L 211.822731 47.619349 
L 211.4566 49.179878 
L 210.716291 50.316819 
L 209.384539 51.101611 
L 209.416726 51.523185 
L 210.05645 52.784889 
L 209.996099 53.154143 
L 209.489148 54.548658 
L 209.589733 55.014502 
L 210.547307 56.248034 
L 211.050234 57.801519 
L 211.436482 62.582711 
L 211.858941 63.474154 
L 212.671672 63.991312 
L 214.506351 64.516518 
L 215.323105 65.057824 
L 215.781775 65.878836 
L 216.912355 71.768799 
L 217.302627 72.446939 
L 218.537816 73.821331 
L 219.475273 75.117243 
L 220.006364 75.258103 
L 220.247769 75.1756 
L 221.358233 74.376722 
L 221.655966 74.821437 
L 222.963577 75.400976 
L 223.386036 76.075092 
L 224.178649 78.530081 
L 224.770092 81.912735 
L 226.411647 85.325572 
L 226.777778 85.683759 
L 227.312892 85.724005 
L 227.884218 85.11227 
L 228.238279 85.057938 
L 228.62855 85.589182 
L 228.849838 87.527014 
L 229.07515 88.269547 
L 230.137332 89.360207 
L 230.495417 90.024261 
L 230.390808 90.907655 
L 229.815459 91.597869 
L 229.030892 92.044597 
L 228.326794 92.587914 
L 227.984803 93.549787 
L 228.238279 95.079125 
L 232.205369 104.642516 
L 232.209393 105.396117 
L 231.78291 107.890346 
L 231.831191 108.695261 
L 231.992128 109.475022 
L 232.269744 110.157187 
L 232.611735 110.561656 
L 233.525051 111.414866 
L 233.722198 111.848513 
L 233.577355 112.266063 
L 232.849116 113.18769 
L 232.680133 113.661584 
L 232.639899 121.229793 
L 232.40654 122.074953 
L 230.889712 125.133628 
L 230.491393 125.506908 
L 230.105145 125.683989 
L 229.288391 125.851008 
L 228.898119 126.047206 
L 228.000897 127.383365 
L 227.18012 130.527562 
L 224.866654 132.421124 
L 225.011497 133.805577 
L 225.687431 135.389246 
L 226.093797 136.938707 
L 225.602939 138.520364 
L 224.363727 139.081792 
L 221.161085 139.409794 
L 220.352378 139.904817 
L 219.02465 141.180606 
L 217.137667 141.611236 
L 216.872121 142.323585 
L 216.807746 143.200942 
L 216.344015 143.923939 
L 215.57658 144.07025 
L 214.94088 143.71005 
L 214.297133 143.559129 
L 213.500496 144.339896 
L 212.792375 145.828988 
L 212.591204 146.65805 
L 212.567063 148.404715 
L 212.337728 149.20158 
L 211.32785 151.696815 
L 210.205316 153.155723 
L 209.646061 154.723294 
L 208.978174 155.331004 
L 206.479631 156.582647 
L 206.157757 156.924735 
L 205.920376 158.309188 
L 205.292722 159.979386 
L 204.355266 160.985529 
L 203.095936 161.625436 
L 201.514732 162.196926 
L 200.364034 162.985742 
L 199.663848 164.317515 
L 198.6058 168.491358 
L 198.332208 168.89784 
L 197.48729 170.048867 
L 197.527524 170.765241 
L 197.966077 172.185916 
L 197.857445 172.978756 
L 197.523501 173.493902 
L 196.123351 174.580536 
L 190.398026 182.215151 
L 190.277324 182.983844 
L 192.691375 190.996769 
L 192.731609 192.501959 
L 190.446308 212.298833 
L 190.812439 225.531628 
L 71.073489 225.531628 
L 70.453882 225.225761 
L 69.077873 224.879648 
L 67.613349 225.644316 
L 65.573476 226.404961 
L 63.686492 228.288461 
L 62.749036 227.994667 
L 61.900094 227.902102 
L 58.524446 228.187846 
L 58.033589 227.77734 
L 57.550779 227.73307 
L 57.191598 228.034047 
L 56.172758 227.716971 
L 55.643678 227.789414 
L 54.521145 228.171748 
L 53.201463 227.894053 
L 52.557716 227.797463 
L 51.96225 228.010765 
L 51.634342 228.566156 
L 51.181707 230.767598 
L 50.944325 230.964802 
L 50.018939 231.483972 
L 49.906283 231.717397 
L 49.745347 232.534385 
L 48.817949 233.890666 
L 47.085867 235.536716 
L 46.196691 235.979419 
L 45.577085 236.055886 
L 45.271305 236.236992 
L 44.993689 236.768236 
L 44.555137 238.869063 
L 44.132678 239.263471 
L 42.543427 239.883255 
L 41.191559 240.607678 
L 40.684608 241.130873 
L 40.330547 241.980058 
L 39.928205 242.064574 
L 37.284819 243.529518 
L 36.429843 243.847459 
L 35.611077 243.936 
L 34.850651 243.718673 
L 34.182763 243.094864 
L 33.804562 242.269827 
L 33.712023 240.668047 
L 33.539016 239.851059 
L 32.444647 238.261352 
L 32.013842 238.043379 
L 31.668127 237.991706 
L 31.33016 238.09232 
L 30.970064 238.317696 
L 30.618015 238.736252 
L 30.384656 239.504945 
L 30.062783 239.6941 
L 29.793214 239.59751 
L 28.96439 239.094439 
L 28.501696 238.9898 
L 27.556193 239.158832 
L 26.302898 239.93155 
L 25.500226 240.382302 
L 24.776011 240.579506 
L 23.959257 240.639875 
L 22.394147 240.555359 
L 22.760278 238.269401 
L 22.752231 237.524855 
L 22.599341 237.086177 
L 22.144695 236.30541 
L 22.124578 235.890879 
L 22.530943 234.574844 
L 22.301608 233.733708 
L 21.581416 232.510238 
L 21.577393 231.572512 
L 22.088367 228.465542 
L 21.92743 227.712947 
L 21.354093 226.215806 
L 21.247473 225.531628 
L 21.36652 225.05391 
L 21.710166 224.344379 
L 21.541182 222.295872 
L 21.975711 221.611694 
L 23.126409 221.221311 
L 23.564962 220.698116 
L 23.673594 220.134676 
L 23.774179 217.792375 
L 23.685664 216.971362 
L 23.33965 215.454098 
L 23.371838 214.641134 
L 23.987421 211.373181 
L 24.393786 211.014994 
L 24.444079 210.713151 
L 24.353552 210.479726 
L 23.987421 209.83177 
L 24.144334 209.405165 
L 25.23468 209.059052 
L 25.319172 208.515734 
L 25.190423 206.129163 
L 25.009369 205.529501 
L 24.494371 204.450916 
L 24.397809 203.718444 
L 26.914458 188.948261 
L 27.705059 186.783041 
L 27.67086 186.038495 
L 27.210179 184.340125 
L 27.266507 183.668022 
L 27.606486 182.613584 
L 29.531692 179.788334 
L 29.990361 179.969439 
L 30.54157 180.319577 
L 30.927818 180.074078 
L 31.064614 179.77626 
L 32.581443 172.532029 
L 33.028042 171.803581 
L 35.947953 168.303411 
L 36.508299 167.086782 
L 36.411737 165.569518 
L 35.691545 162.422302 
L 35.711662 161.621412 
L 36.190449 158.331324 
L 36.033536 155.922617 
L 36.773845 154.381205 
L 37.276772 154.089424 
L 38.684969 153.004801 
L 40.318477 152.266292 
L 44.474668 151.32253 
L 44.85287 151.107215 
L 45.275329 150.610181 
L 46.281183 148.529476 
L 47.158288 147.607849 
L 47.427858 146.885438 
L 47.206569 144.549174 
L 47.70145 144.084336 
L 47.938832 143.341802 
L 48.123909 142.255167 
L 49.310817 141.037734 
L 49.978705 140.764063 
L 50.336789 140.828456 
L 50.759248 141.168533 
L 51.431159 141.482449 
L 51.907934 140.975353 
L 52.380686 140.190561 
L 53.03248 139.683465 
L 53.487126 139.64322 
L 54.368255 139.739809 
L 54.891299 139.683465 
L 56.170746 139.26491 
L 57.444158 138.258767 
L 65.364258 128.067542 
L 78.76023 117.246472 
L 87.207397 106.618581 
L 88.321884 104.600258 
L 88.605472 102.535583 
L 88.166983 101.864554 
L 85.964161 100.614925 
L 85.155454 99.985079 
L 84.857721 99.314988 
L 84.724948 98.495987 
L 84.666609 96.815728 
L 82.78566 97.526065 
L 81.610822 97.602532 
L 79.904893 97.308738 
L 79.337591 97.01092 
L 79.13642 96.658769 
L 79.542785 96.163747 
L 79.361731 95.712995 
L 77.164945 93.243919 
L 76.509127 92.823352 
L 75.06472 92.817315 
L 74.424996 93.885839 
L 73.883847 95.139493 
L 72.763325 95.680798 
L 72.107507 95.38298 
L 71.383292 94.735024 
L 70.34525 93.33246 
L 70.240641 92.762983 
L 70.160173 91.696471 
L 69.773925 91.473107 
L 67.046047 91.446948 
L 66.486792 91.277916 
L 66.374136 90.609836 
L 66.728197 89.798885 
L 67.516787 88.380223 
L 67.548974 87.68196 
L 67.400108 86.241163 
L 67.448389 85.51674 
L 67.609325 85.118307 
L 68.460278 83.627203 
L 68.578969 82.97321 
L 69.926814 79.26859 
L 70.031423 78.662892 
L 70.196384 78.554229 
L 70.820013 78.387209 
L 71.085559 78.00085 
L 72.047156 75.380853 
L 72.103484 73.82938 
L 71.681025 72.287969 
L 70.783803 70.716373 
L 70.10988 70.096589 
L 68.29733 68.834885 
L 67.830613 68.257359 
L 67.782332 67.510801 
L 67.939246 66.683751 
L 70.132009 60.091501 
L 70.970892 58.624544 
L 71.620674 58.42734 
L 71.7454 58.226111 
L 71.864091 57.628462 
L 72.634575 56.301359 
L 74.05356 54.638694 
L 74.25199 54.351454 
L 74.497418 53.518367 
L 74.424996 53.06359 
L 74.034725 52.246602 
L 73.974374 51.800881 
L 74.223826 50.351028 
L 73.720898 49.423364 
L 73.089222 49.639685 
L 72.352936 50.270537 
L 71.508018 50.582441 
L 71.672978 49.970706 
L 72.525943 48.294472 
L 75.096907 44.550613 
L 75.591788 43.219485 
L 76.022294 42.841175 
L 76.430671 42.700315 
L 77.597462 42.6651 
L 78.126542 42.421614 
L 79.687628 41.322905 
L 80.777974 41.038167 
L 83.262435 39.098323 
L 84.278349 38.81459 
L 86.117051 38.816603 
L 87.710325 39.037954 
L 89.239224 39.523921 
L 97.430904 43.976105 
L 98.143049 44.123002 
L 98.601719 43.719538 
L 99.056365 43.15308 
L 99.740346 42.809985 
L 103.779859 42.217367 
L 104.492004 41.913511 
L 104.854111 41.584503 
L 108.157338 37.903025 
L 109.17124 38.3739 
L 110.092603 39.146618 
L 112.864738 42.245539 
L 113.423993 43.181252 
L 113.570848 43.919761 
L 113.689539 45.711702 
L 113.959108 46.370726 
L 114.490199 46.647415 
L 117.8578 46.854681 
L 118.300377 47.091124 
L 119.052756 48.294472 
L 119.648222 48.909225 
L 120.304039 49.248295 
L 122.750278 49.742312 
L 123.223029 49.724201 
L 123.532087 49.140399 
L 123.651523 48.590278 
L 123.65957 47.986592 
L 123.532832 46.089006 
L 123.993514 45.56078 
L 131.157211 41.203174 
L 132.861129 40.804742 
L 146.130363 39.72515 
L 149.397379 38.741142 
L 152.455177 37.188663 
L 154.816924 35.434955 
L 155.504928 35.18845 
L 156.28346 35.513434 
L 161.198066 39.527946 
L 162.01482 39.957569 
L 163.219834 40.190994 
L 173.026917 40.68501 
L 174.712729 40.475733 
L 176.346237 39.519897 
L 193.648949 22.176 
L 194.775506 22.720324 
L 195.652611 23.409532 
L 196.139445 24.313048 
L 196.135421 26.041602 
L 197.237838 27.303306 
L 197.370611 28.212859 
L 197.105065 29.662712 
L 196.936082 30.032972 
L 196.919988 30.428387 
L 197.225768 31.047165 
L 198.710409 32.307862 
L 198.806971 32.936702 
L 198.392559 33.934796 
L 197.897679 34.832275 
L 197.841351 35.507398 
L 198.74662 35.834394 
L 198.74662 35.834394 
" clip-path="url(#p59332a90fe)" style="fill: none; stroke: #000000; stroke-width: 2"/>
   </g>
  </g>
 </g>
 <defs>
  <clipPath id="p59332a90fe">
   <rect x="0" y="-0" width="254.969671" height="266.112"/>
  </clipPath>
 </defs>
</svg>
