<?xml version="1.0" encoding="utf-8" standalone="no"?>
<!DOCTYPE svg PUBLIC "-//W3C//DTD SVG 1.1//EN"
  "http://www.w3.org/Graphics/SVG/1.1/DTD/svg11.dtd">
<svg xmlns:xlink="http://www.w3.org/1999/xlink" width="357.12pt" height="238.230487pt" viewBox="0 0 357.12 238.230487" xmlns="http://www.w3.org/2000/svg" version="1.1">
 <metadata>
  <rdf:RDF xmlns:dc="http://purl.org/dc/elements/1.1/" xmlns:cc="http://creativecommons.org/ns#" xmlns:rdf="http://www.w3.org/1999/02/22-rdf-syntax-ns#">
   <cc:Work>
    <dc:type rdf:resource="http://purl.org/dc/dcmitype/StillImage"/>
    <dc:date>2024-02-02T21:58:06.017430</dc:date>
    <dc:format>image/svg+xml</dc:format>
    <dc:creator>
     <cc:Agent>
      <dc:title>Matplotlib v3.8.2, https://matplotlib.org/</dc:title>
     </cc:Agent>
    </dc:creator>
   </cc:Work>
  </rdf:RDF>
 </metadata>
 <defs>
  <style type="text/css">*{stroke-linejoin: round; stroke-linecap: butt}</style>
 </defs>
 <g id="figure_1">
  <g id="patch_1">
   <path d="M 0 238.230487 
L 357.12 238.230487 
L 357.12 -0 
L 0 -0 
L 0 238.230487 
z
" style="fill: none"/>
  </g>
  <g id="axes_1">
   <g id="PatchCollection_1">
    <path d="M 156.459177 187.727002 
L 155.196294 188.297365 
L 156.026572 187.818017 
L 156.359759 187.538903 
L 156.491421 187.296196 
L 156.580091 187.062589 
L 156.792363 186.971574 
L 157.047627 186.935168 
L 157.27199 186.862356 
L 157.536658 186.634817 
L 158.013598 186.082657 
L 158.295732 185.829837 
L 160.88733 183.300621 
L 161.717609 182.827341 
L 158.119734 186.431549 
L 156.459177 187.727002 
" clip-path="url(#p4a4a47dce9)" style="fill: none; stroke: #000000; stroke-width: 2"/>
    <path d="M 203.210047 176.650431 
L 205.585343 176.990221 
L 206.721938 176.742457 
L 207.210969 176.764705 
L 207.737619 177.177308 
L 208.418769 176.855721 
L 208.812413 176.817292 
L 208.987067 177.082248 
L 209.15366 177.264279 
L 209.908703 177.199557 
L 210.112914 177.515077 
L 209.825407 177.839698 
L 202.880891 176.650431 
L 203.001806 176.503795 
L 203.078385 176.495704 
L 203.210047 176.650431 
" clip-path="url(#p4a4a47dce9)" style="fill: none; stroke: #000000; stroke-width: 2"/>
    <path d="M 195.182676 174.264816 
L 195.400322 174.429655 
L 195.030862 174.347742 
L 194.336276 173.998849 
L 188.316083 172.654856 
L 185.727172 171.611213 
L 185.209928 171.122763 
L 184.763888 170.357223 
L 184.632226 169.954733 
L 184.484441 169.320659 
L 184.473693 168.862548 
L 184.763888 168.983902 
L 185.035273 170.043726 
L 185.298598 170.776905 
L 185.688211 171.292659 
L 186.351897 171.699194 
L 191.669442 173.057346 
L 193.824405 173.607483 
L 195.182676 174.264816 
" clip-path="url(#p4a4a47dce9)" style="fill: none; stroke: #000000; stroke-width: 2"/>
    <path d="M 212.408312 19.852541 
L 214.023265 20.142157 
L 215.374604 20.192888 
L 216.086958 20.613505 
L 216.383843 20.592956 
L 217.097049 20.130598 
L 217.409291 20.547362 
L 217.303504 21.488132 
L 217.585033 21.875999 
L 217.941636 21.843891 
L 219.072871 20.801017 
L 220.521465 20.17876 
L 221.274768 20.050327 
L 222.023806 20.073445 
L 222.438422 20.208942 
L 222.757488 20.784321 
L 223.016836 21.22035 
L 223.34102 21.512535 
L 224.033752 21.91774 
L 224.344287 22.317808 
L 224.975595 23.437742 
L 226.31499 24.387503 
L 226.845629 25.319925 
L 226.893404 25.833014 
L 226.608463 26.527194 
L 226.999191 28.68358 
L 227.342144 29.208228 
L 227.396744 29.63591 
L 227.261951 30.219637 
L 228.086063 30.224774 
L 228.420485 30.457237 
L 229.348678 31.428832 
L 229.486883 31.643314 
L 229.539776 32.047236 
L 229.734287 32.117231 
L 230.241039 31.974029 
L 230.536218 32.156403 
L 231.406399 32.95654 
L 232.041118 33.553752 
L 232.486446 34.54718 
L 232.510333 35.572074 
L 231.885851 36.264327 
L 231.565079 36.340102 
L 230.595936 36.325332 
L 227.785766 36.95658 
L 227.144221 37.307843 
L 226.985541 37.892213 
L 227.169814 38.138161 
L 227.985395 38.436768 
L 228.058763 38.621069 
L 228.198675 39.361484 
L 228.319817 39.556702 
L 229.229241 40.653518 
L 229.36574 41.081841 
L 229.367446 41.887115 
L 229.174642 42.566525 
L 229.256541 43.509864 
L 229.120042 43.649213 
L 228.760026 43.727557 
L 228.676421 43.875897 
L 228.908469 44.291377 
L 229.478352 44.737681 
L 230.037997 44.898222 
L 230.300758 44.896938 
L 230.628355 44.719701 
L 230.769973 45.559009 
L 230.355357 46.388685 
L 229.700162 47.063599 
L 228.742964 47.689067 
L 230.324645 48.24775 
L 230.618118 48.118675 
L 231.235775 47.633841 
L 231.810777 47.491923 
L 232.425022 47.584394 
L 234.150026 48.170048 
L 235.21813 47.992811 
L 235.716351 48.059596 
L 235.948399 48.28949 
L 236.284528 49.386307 
L 236.526813 49.609138 
L 236.815167 49.708031 
L 238.023182 49.781238 
L 239.169773 49.53272 
L 240.524525 48.99266 
L 241.551679 48.52388 
L 242.172749 48.852668 
L 243.481432 48.715245 
L 243.689593 48.962478 
L 243.819266 49.322732 
L 244.225351 51.605626 
L 244.552948 52.421816 
L 245.030694 52.865551 
L 245.59034 52.907934 
L 246.70963 52.662628 
L 247.603698 52.802619 
L 247.900583 52.965729 
L 248.043907 53.239291 
L 247.905702 53.670183 
L 247.671948 53.87696 
L 246.772761 54.05805 
L 246.841011 54.334181 
L 246.883667 55.258897 
L 247.028697 55.425859 
L 247.615642 55.637774 
L 247.823803 55.966562 
L 247.936414 57.261164 
L 248.417573 58.007359 
L 248.439754 58.915379 
L 248.671802 59.134999 
L 249.270691 59.538278 
L 249.42084 59.781016 
L 249.562457 60.478406 
L 249.535158 61.642007 
L 249.922473 62.113356 
L 248.646208 62.664332 
L 248.391979 62.957159 
L 248.417573 63.274388 
L 249.202441 66.289991 
L 249.55222 66.897478 
L 251.110013 67.543495 
L 251.338649 67.960901 
L 251.594585 69.372378 
L 252.275373 69.987571 
L 252.94763 70.250858 
L 253.295702 70.273976 
L 253.68643 70.150681 
L 254.500305 69.18615 
L 254.966107 69.112944 
L 255.70832 68.314092 
L 256.006911 68.210061 
L 257.566411 68.037961 
L 260.438006 68.262718 
L 260.890159 68.499035 
L 261.014714 68.962677 
L 261.485635 69.192572 
L 263.132153 71.735542 
L 263.510938 71.917916 
L 263.905078 71.897367 
L 264.657528 71.47996 
L 265.096031 71.112642 
L 265.459459 71.158878 
L 266.617994 71.748385 
L 267.293663 71.916632 
L 267.587136 72.141389 
L 267.541067 72.244135 
L 267.51718 73.262608 
L 267.762878 73.455257 
L 268.503385 73.647906 
L 268.875344 73.599102 
L 269.329203 73.204813 
L 269.748937 72.440638 
L 269.96051 72.250557 
L 272.700725 70.683677 
L 273.780773 70.300947 
L 274.871058 70.225172 
L 276.053479 70.394703 
L 278.452447 69.721715 
L 278.942137 69.356966 
L 279.907867 68.407848 
L 280.39585 68.216483 
L 282.054312 67.995578 
L 282.385322 68.167678 
L 283.124122 70.277829 
L 284.579541 70.961092 
L 285.091412 71.499225 
L 285.130656 72.539531 
L 284.917376 73.394893 
L 285.057288 73.834134 
L 285.630583 74.401807 
L 287.212264 76.772676 
L 287.802622 77.173387 
L 289.756262 78.155898 
L 290.31932 78.646511 
L 290.826072 79.270694 
L 291.631415 80.683455 
L 291.715021 81.21902 
L 293.015173 80.470257 
L 293.199446 80.507502 
L 293.67378 80.737397 
L 294.451824 80.205685 
L 294.537136 79.124281 
L 294.417699 77.973523 
L 294.579791 77.23375 
L 294.842552 77.168249 
L 295.898712 77.260721 
L 296.659693 77.22476 
L 296.893448 77.498322 
L 297.586179 79.211615 
L 297.920602 79.351607 
L 298.935812 79.541688 
L 299.321422 79.799837 
L 299.922017 80.016889 
L 301.121501 79.806259 
L 302.090643 79.888456 
L 302.681001 79.594345 
L 302.675882 79.655993 
L 303.054666 80.870967 
L 304.054521 81.576063 
L 305.777819 82.064108 
L 306.340877 82.576555 
L 306.740136 83.187895 
L 307.183758 83.613008 
L 309.028199 83.437055 
L 309.345559 83.175052 
L 310.150902 82.098785 
L 310.789035 81.870174 
L 311.234362 82.245198 
L 312.147199 84.565979 
L 312.524277 85.078426 
L 313.003729 85.387949 
L 313.626505 85.530509 
L 314.279994 85.393086 
L 314.919832 85.084847 
L 315.540902 84.953846 
L 316.457151 85.485558 
L 317.421175 85.588304 
L 317.634454 85.85416 
L 318.501222 88.335482 
L 319.002855 88.674544 
L 319.586388 88.832517 
L 320.255233 89.147177 
L 321.111763 89.952451 
L 321.449598 90.10657 
L 321.898338 90.124551 
L 322.899899 89.831724 
L 323.317927 89.59027 
L 324.297306 88.606475 
L 324.694859 88.465199 
L 325.019044 88.474189 
L 326.682494 88.957001 
L 326.88396 89.171579 
L 326.807179 89.686595 
L 326.55295 90.028226 
L 325.623052 90.663969 
L 325.302279 91.476948 
L 325.401241 92.261673 
L 325.749313 92.998877 
L 326.399389 94.001937 
L 327.170608 94.893261 
L 327.36 95.291403 
L 327.320757 95.731927 
L 327.081884 96.575731 
L 327.064821 97.473476 
L 326.93856 97.709792 
L 326.227059 98.182425 
L 325.360291 99.393547 
L 323.935584 100.48651 
L 323.505613 101.431775 
L 323.38447 102.393737 
L 323.195078 102.523454 
L 322.932317 102.544003 
L 321.944407 102.456669 
L 320.581124 102.930586 
L 319.745068 102.876644 
L 319.461833 103.076999 
L 319.344103 104.324082 
L 319.56762 104.636174 
L 320.202339 105.147336 
L 320.743216 106.18122 
L 321.132238 106.354605 
L 322.44604 106.652569 
L 323.210434 106.603764 
L 323.906578 107.240791 
L 324.2683 107.053279 
L 324.872308 106.370017 
L 325.292042 106.425243 
L 325.61452 106.832375 
L 325.597458 107.316566 
L 325.049756 108.225871 
L 324.317781 108.808956 
L 323.652349 108.883447 
L 321.823264 108.164223 
L 321.444479 108.182204 
L 321.084464 108.360725 
L 320.618661 109.002889 
L 320.372963 109.508914 
L 319.96176 109.675877 
L 319.821849 109.880085 
L 318.646252 113.848659 
L 319.282678 113.811413 
L 319.610275 113.680412 
L 321.57586 113.927003 
L 322.007537 114.182584 
L 322.333428 114.614118 
L 322.504052 115.971653 
L 322.120149 116.032017 
L 322.162805 116.418599 
L 322.493815 116.758304 
L 323.188253 118.535172 
L 323.473194 119.087433 
L 321.686765 120.776325 
L 322.824824 121.501328 
L 323.160953 121.460229 
L 324.022602 121.143642 
L 324.377499 121.225839 
L 324.614666 121.64453 
L 324.57201 122.128722 
L 324.357024 122.583374 
L 324.073789 122.916015 
L 322.971561 123.887609 
L 321.939288 125.95024 
L 321.903457 126.526903 
L 322.133799 127.530606 
L 321.978531 127.535743 
L 320.898484 127.830496 
L 320.79611 128.192035 
L 321.098113 128.605588 
L 321.360874 129.39545 
L 321.267031 129.982388 
L 321.04522 130.578959 
L 321.021333 131.964106 
L 320.748335 132.587005 
L 320.332013 133.008265 
L 319.786018 133.119359 
L 317.627629 132.637094 
L 316.626068 132.840018 
L 315.762713 132.628104 
L 314.682666 132.843871 
L 313.495125 132.26207 
L 311.082507 132.484901 
L 310.091184 132.696173 
L 309.751643 132.608197 
L 308.81458 131.989146 
L 306.190728 131.883836 
L 305.426335 132.206844 
L 304.853039 132.910656 
L 304.436718 133.88225 
L 304.144951 135.017596 
L 304.010159 136.062397 
L 303.834416 136.459255 
L 303.479519 136.494574 
L 302.899399 136.259542 
L 302.640051 136.30642 
L 302.329516 136.549158 
L 301.409855 137.523963 
L 300.990121 137.714685 
L 297.534992 138.200161 
L 296.975347 138.592524 
L 296.5522 139.301473 
L 296.006205 141.037242 
L 296.060804 142.807688 
L 295.966961 143.515353 
L 295.560877 144.281455 
L 294.854495 145.412306 
L 294.823783 145.807879 
L 295.026825 146.065386 
L 295.345891 146.11098 
L 296.260434 146.035847 
L 296.526607 146.154647 
L 296.676756 146.428209 
L 296.630687 146.925244 
L 296.408877 147.295131 
L 295.381722 147.939221 
L 295.067775 148.508821 
L 294.960282 149.252446 
L 295.03365 150.039097 
L 295.282311 150.726218 
L 294.949124 151.063986 
L 294.057045 152.352359 
L 293.492778 152.633496 
L 293.860895 151.836605 
L 293.855521 151.433104 
L 293.430977 151.260175 
L 292.807596 150.850606 
L 292.289008 151.19343 
L 292.141224 151.260175 
L 291.082551 150.904203 
L 290.890432 151.020501 
L 289.415277 150.765658 
L 287.635148 151.417935 
L 286.925784 151.445239 
L 284.786943 151.041738 
L 284.219989 151.260175 
L 283.172064 152.394833 
L 281.438958 154.931128 
L 280.733625 156.209389 
L 280.366851 156.381307 
L 280.4394 155.7533 
L 280.076657 155.270919 
L 279.504329 154.961467 
L 278.948122 154.854271 
L 278.636432 154.939218 
L 277.878702 155.54801 
L 275.492658 156.487491 
L 274.767172 157.058865 
L 274.18947 157.277302 
L 273.321574 158.15914 
L 272.784176 158.247122 
L 272.929274 158.832654 
L 271.794022 161.896838 
L 271.390974 162.30034 
L 270.970461 162.18202 
L 270.970461 161.996955 
L 271.092719 161.996955 
L 271.429935 162.149659 
L 271.737595 161.457942 
L 271.939119 160.129117 
L 271.803427 160.018888 
L 270.954339 159.136039 
L 270.18183 158.756808 
L 269.903727 158.929737 
L 269.613533 158.911534 
L 269.156745 158.756808 
L 268.877299 158.838722 
L 268.431259 159.281663 
L 267.34303 159.281663 
L 266.659192 159.708424 
L 265.830257 159.878319 
L 265.29689 160.149343 
L 264.817263 160.534641 
L 263.70082 161.757281 
L 263.385099 162.32461 
L 263.285681 163.045655 
L 263.162079 163.045655 
L 263.10834 162.594623 
L 262.764406 162.913177 
L 262.748284 162.960707 
L 262.707979 162.631029 
L 262.724101 162.351915 
L 262.498394 162.18202 
L 262.157147 161.672334 
L 261.818586 161.514574 
L 261.525705 161.524686 
L 260.910385 161.672334 
L 259.714676 161.487269 
L 257.066652 161.919086 
L 254.913032 163.198358 
L 254.430718 163.617029 
L 252.560576 165.752856 
L 250.295447 167.007857 
L 248.703408 168.732093 
L 248.457548 168.983902 
L 245.231822 174.525727 
L 244.852957 174.954511 
L 244.18121 175.197218 
L 243.775475 175.552178 
L 243.209865 175.690724 
L 242.818908 176.002199 
L 242.182092 176.311651 
L 241.886524 176.207489 
L 241.940264 175.967815 
L 242.464226 175.338798 
L 242.992219 174.85945 
L 242.91564 174.61472 
L 244.640685 174.06256 
L 245.491116 173.593325 
L 245.943873 172.630585 
L 246.33886 172.171463 
L 246.991797 170.850729 
L 247.830137 169.796973 
L 247.894625 169.168967 
L 247.324984 169.750454 
L 246.998515 169.780792 
L 246.599498 169.416731 
L 246.45037 168.862548 
L 246.548445 168.205215 
L 246.878944 167.27079 
L 246.756686 167.187865 
L 246.19645 167.033139 
L 245.511268 166.304005 
L 245.341988 165.857018 
L 245.290935 165.405987 
L 244.933566 165.885334 
L 245.054481 166.377829 
L 245.516642 167.193933 
L 245.640244 168.289151 
L 245.508581 168.565231 
L 244.952375 169.168967 
L 243.916542 170.808255 
L 243.420793 171.404911 
L 242.689933 171.884259 
L 240.968918 172.299896 
L 240.663945 172.070335 
L 240.610206 171.787176 
L 240.424804 171.884259 
L 240.309263 172.108763 
L 240.236715 172.630585 
L 239.460176 173.091729 
L 239.082654 173.751085 
L 239.098776 174.208185 
L 239.195508 174.61472 
L 239.35807 176.565483 
L 239.516602 176.959883 
L 240.25821 180.308237 
L 240.614236 180.90995 
L 241.491537 183.372422 
L 242.91564 186.341545 
L 247.666231 193.7684 
L 250.118106 195.593764 
L 250.730739 195.651407 
L 253.655523 194.783727 
L 254.002144 194.530907 
L 254.520732 193.780535 
L 254.61209 193.391192 
L 254.938559 193.245567 
L 255.252936 192.748016 
L 255.45446 191.831795 
L 255.672106 191.461666 
L 255.938117 191.29177 
L 256.341165 191.328177 
L 256.380127 191.573918 
L 256.163824 192.401147 
L 256.280708 192.705543 
L 256.562842 192.951284 
L 257.809603 193.746152 
L 258.459854 193.979758 
L 259.059052 193.846269 
L 259.545396 193.172755 
L 259.82753 192.308109 
L 260.28163 192.010792 
L 260.637656 191.634595 
L 260.960094 191.511219 
L 262.85845 191.525377 
L 263.379725 191.14918 
L 263.64305 191.231094 
L 263.765308 191.539535 
L 263.624241 191.984499 
L 263.836513 191.972363 
L 264.312109 191.63055 
L 264.62783 191.699317 
L 265.151793 192.068435 
L 265.489009 192.153383 
L 266.459011 191.915731 
L 266.789511 191.984499 
L 267.48947 192.831953 
L 267.747421 192.748016 
L 268.045677 192.42744 
L 268.319749 192.372831 
L 268.576356 192.526546 
L 268.819529 192.832964 
L 269.229294 194.264939 
L 269.105693 194.530907 
L 268.368115 194.698779 
L 268.181369 194.642148 
L 267.690994 194.361011 
L 267.305412 194.298312 
L 266.985661 194.374158 
L 266.768015 194.63608 
L 266.746519 195.307571 
L 266.899677 195.520952 
L 266.649787 195.817257 
L 266.125825 195.903216 
L 265.909523 196.233905 
L 265.591115 197.280582 
L 265.440644 199.279887 
L 265.538719 199.804742 
L 266.207778 200.71793 
L 266.175534 201.094126 
L 265.956545 201.318631 
L 264.763523 201.782809 
L 263.111027 201.90922 
L 262.882633 202.17013 
L 262.724101 202.72229 
L 262.398975 202.808249 
L 260.935912 202.462391 
L 259.99681 201.842475 
L 259.99681 202.026528 
L 259.480909 201.782809 
L 259.110105 202.177209 
L 258.582112 203.044889 
L 257.317885 202.959942 
L 256.18129 203.183435 
L 255.848103 203.014551 
L 255.603588 202.208559 
L 254.913032 201.364139 
L 253.843612 200.642083 
L 252.649247 200.144533 
L 251.931821 200.0161 
L 251.218427 200.020145 
L 250.538619 200.17386 
L 249.934047 200.484323 
L 248.918366 201.442007 
L 248.796109 202.3825 
L 248.89284 202.495763 
L 249.36978 202.72229 
L 249.36978 202.874994 
L 249.150791 202.984212 
L 248.610707 202.946795 
L 248.356786 203.044889 
L 248.160636 203.329059 
L 248.13511 203.651658 
L 248.243933 204.403041 
L 247.453959 203.73964 
L 247.104651 204.079431 
L 246.692199 203.815486 
L 246.408722 204.021788 
L 246.0312 204.841937 
L 245.732945 205.123074 
L 244.729355 205.452752 
L 244.32362 206.260766 
L 243.971625 207.345871 
L 243.516181 208.120513 
L 242.802786 207.996126 
L 242.276137 207.091028 
L 241.951012 206.964618 
L 241.225525 206.964618 
L 240.904431 207.198224 
L 240.661258 207.456101 
L 240.364346 207.515767 
L 239.824262 207.37621 
L 239.317765 207.671504 
L 238.170422 207.456101 
L 237.575255 207.692741 
L 236.414477 208.530083 
L 235.793783 208.830433 
L 234.475817 209.13584 
L 233.927671 209.391695 
L 233.51925 209.863963 
L 233.504471 209.732497 
L 233.415801 209.710249 
L 232.512973 211.102784 
L 231.95005 212.157551 
L 231.14261 214.291356 
L 231.001544 214.339897 
L 230.147082 214.291356 
L 230.066472 214.53103 
L 229.683577 215.235893 
L 229.467275 215.423992 
L 228.685362 215.599955 
L 228.327992 216.255265 
L 227.926288 216.864057 
L 227.137658 217.359585 
L 226.758793 217.419251 
L 224.645478 218.377946 
L 224.267957 218.31019 
L 223.025226 217.877362 
L 222.497233 218.039167 
L 221.066413 217.91579 
L 219.592601 217.054178 
L 219.401825 216.360439 
L 218.712613 215.494781 
L 217.709024 215.656586 
L 215.310889 213.520759 
L 215.290736 213.223442 
L 215.355224 213.299288 
L 215.99607 213.102088 
L 216.510628 212.76432 
L 217.045338 212.771399 
L 217.418829 212.59038 
L 218.262543 212.572176 
L 218.59976 212.425541 
L 217.687528 212.084739 
L 217.663345 211.715621 
L 218.216864 210.483879 
L 218.189994 210.213867 
L 218.026088 209.710249 
L 217.833969 208.651436 
L 217.687528 208.335916 
L 217.922639 207.996126 
L 218.179246 207.048554 
L 218.402266 206.728989 
L 219.041769 206.491338 
L 219.221797 206.182897 
L 219.397794 205.265664 
L 219.393764 204.698335 
L 219.115661 203.159164 
L 218.76904 202.31171 
L 218.712613 201.67258 
L 218.450632 200.660286 
L 218.036836 200.077788 
L 216.908302 199.296067 
L 215.709906 198.278717 
L 215.027412 198.378834 
L 214.408061 198.633677 
L 213.450151 199.116059 
L 212.771687 198.336361 
L 212.030079 198.108822 
L 211.778845 197.856002 
L 211.1998 197.083382 
L 210.650311 196.61617 
L 210.309064 196.121653 
L 209.877803 195.903216 
L 208.183658 194.482365 
L 207.501164 194.191116 
L 204.682515 194.02122 
L 204.421878 194.217409 
L 203.602347 195.03857 
L 202.420073 195.03857 
L 201.122259 194.530907 
L 200.606358 192.832964 
L 200.829377 192.170574 
L 201.325126 191.608302 
L 203.279909 190.029691 
L 204.54951 189.640347 
L 205.033167 189.086165 
L 205.166173 188.961777 
L 205.582656 188.943574 
L 206.093183 189.100323 
L 206.32292 189.017397 
L 206.298737 188.594682 
L 206.308142 188.194214 
L 206.485483 187.881728 
L 206.987949 187.335636 
L 208.120514 186.529644 
L 212.071727 184.526294 
L 212.077101 184.132906 
L 211.79228 183.895254 
L 211.816463 183.6394 
L 211.95753 183.499843 
L 212.112032 183.602994 
L 212.38073 183.979191 
L 212.963806 184.332128 
L 213.545539 184.260327 
L 215.431803 183.036676 
L 215.932926 182.451144 
L 216.180129 182.342937 
L 217.124604 181.758416 
L 217.915922 182.071913 
L 218.313596 181.942469 
L 218.712613 181.418625 
L 219.397794 181.078834 
L 219.756507 181.222436 
L 219.962061 181.510652 
L 220.042671 181.638073 
L 220.582755 181.602678 
L 220.613656 180.266775 
L 220.863545 180.385095 
L 221.137618 180.227335 
L 221.992079 179.890578 
L 221.374073 179.438535 
L 220.430941 179.17459 
L 219.826369 179.295944 
L 219.597975 179.523483 
L 219.397794 179.365723 
L 219.842491 178.64569 
L 219.788751 178.516246 
L 219.597975 178.433321 
L 219.671867 177.982289 
L 219.767255 177.590923 
L 219.5308 176.456264 
L 219.86936 175.904104 
L 219.788751 175.540043 
L 219.291658 174.532806 
L 219.012212 174.270884 
L 218.59976 174.429655 
L 217.954883 175.121372 
L 217.934731 175.485434 
L 218.374053 175.787807 
L 218.374053 175.97186 
L 217.51153 176.146812 
L 217.348968 176.455253 
L 217.687528 176.990221 
L 217.523622 176.978086 
L 217.179687 176.820326 
L 216.16132 176.817292 
L 216.020253 176.697961 
L 215.508382 175.964781 
L 215.070403 175.56128 
L 214.629738 175.470264 
L 214.295208 175.97186 
L 214.140706 175.8141 
L 213.956648 175.787807 
L 214.409405 175.16688 
L 214.375817 174.885744 
L 214.009044 174.769446 
L 212.707199 174.954511 
L 212.88454 174.311335 
L 213.045759 172.579009 
L 212.662864 173.014872 
L 212.054262 174.335606 
L 211.026489 174.769446 
L 210.869301 174.702701 
L 210.514619 174.429655 
L 209.551334 173.919969 
L 209.700462 174.636968 
L 209.465351 174.968669 
L 207.374875 175.241715 
L 207.119612 175.124406 
L 206.598336 175.124406 
L 205.305896 174.769446 
L 205.058693 174.835179 
L 204.443374 175.157778 
L 202.194366 175.617912 
L 201.631443 176.141756 
L 200.966414 176.249963 
L 197.649329 175.241715 
L 197.286586 174.970691 
L 196.988331 174.954511 
L 196.649771 173.751085 
L 197.059536 173.300053 
L 197.101184 173.057346 
L 196.605435 173.288929 
L 196.174174 173.343539 
L 195.748287 173.252523 
L 194.560639 172.809582 
L 193.941289 171.94089 
L 193.483158 171.529299 
L 192.953821 171.741668 
L 192.134291 171.289625 
L 190.769302 170.188339 
L 190.805576 170.806232 
L 190.83782 171.087369 
L 190.712875 171.204677 
L 189.372069 171.05703 
L 188.899159 170.619145 
L 188.814519 170.233847 
L 189.022761 169.896078 
L 189.63002 169.493588 
L 189.971267 169.454148 
L 190.882155 169.663484 
L 192.280731 169.311557 
L 193.343434 168.427697 
L 193.676621 168.354885 
L 193.539584 168.0515 
L 192.784541 166.983586 
L 192.51853 166.869312 
L 191.905897 166.933022 
L 191.180411 166.811668 
L 188.504172 165.71645 
L 188.138742 165.693191 
L 187.879448 165.828702 
L 187.480431 166.438505 
L 187.480431 167.457878 
L 186.97259 166.253441 
L 186.736136 166.160403 
L 184.804193 164.119636 
L 184.538181 163.538149 
L 185.747325 164.590893 
L 188.633148 164.366389 
L 189.192041 164.540329 
L 190.374315 165.236091 
L 191.782295 165.236091 
L 193.207742 165.55869 
L 194.498838 165.405987 
L 196.312554 165.828702 
L 197.214038 166.438505 
L 197.897876 166.601322 
L 198.615301 166.538622 
L 199.25346 166.253441 
L 199.704874 165.743755 
L 199.397214 165.285644 
L 199.848627 164.642469 
L 201.318409 163.410727 
L 202.081513 163.318701 
L 202.880891 162.645187 
L 203.118689 162.406524 
L 203.312152 161.996955 
L 202.471126 162.525856 
L 202.022399 162.770586 
L 201.631443 162.689683 
L 199.407962 164.002327 
L 198.198818 164.1702 
L 197.101184 163.538149 
L 196.75322 163.045655 
L 196.565131 163.119478 
L 196.1379 163.538149 
L 195.460779 163.708044 
L 195.071166 164.21773 
L 194.836055 163.967944 
L 194.602287 163.058801 
L 194.324184 162.859579 
L 193.031744 162.50563 
L 192.538682 161.802789 
L 192.233709 160.893647 
L 192.01875 160.058328 
L 191.669442 159.281663 
L 191.602267 158.250156 
L 191.908584 157.477536 
L 192.35328 156.759526 
L 192.779167 155.395307 
L 192.765732 155.016076 
L 192.588391 154.770334 
L 191.76483 154.613586 
L 191.596893 154.411329 
L 191.651977 154.084685 
L 192.274014 153.056211 
L 192.175939 152.882271 
L 191.725869 152.817549 
L 190.692723 152.914632 
L 190.430741 152.633496 
L 190.892903 151.58783 
L 190.952017 150.984095 
L 190.712875 150.340919 
L 190.273553 150.066862 
L 190.105616 149.957644 
L 189.926932 149.108167 
L 189.858413 148.647022 
L 189.63002 148.390157 
L 188.654644 147.914854 
L 188.504172 147.610458 
L 188.563286 146.929865 
L 188.391319 146.848963 
L 188.042011 147.525511 
L 188.14546 147.807658 
L 188.721818 148.305209 
L 189.455366 148.499375 
L 189.621959 148.793658 
L 189.683759 150.378337 
L 190.205035 150.595762 
L 190.579869 150.95679 
L 190.217126 151.784019 
L 190.092181 151.953914 
L 189.971267 153.07846 
L 190.492542 153.317122 
L 191.236837 153.211949 
L 191.782295 153.311055 
L 191.075618 154.26975 
L 190.995009 154.684375 
L 191.132045 155.116193 
L 191.427613 155.204174 
L 192.131604 154.854271 
L 192.206839 155.392273 
L 192.050994 156.129497 
L 191.748708 156.779752 
L 191.387308 157.058865 
L 190.981574 157.192355 
L 190.632265 157.556416 
L 190.42268 158.095429 
L 190.430741 158.756808 
L 191.115923 159.794383 
L 191.043374 161.316362 
L 191.14548 161.670311 
L 190.874094 162.145614 
L 190.317888 162.50563 
L 189.596432 162.657322 
L 188.883037 162.546081 
L 187.274876 161.906951 
L 186.290096 161.996955 
L 186.005275 162.155726 
L 185.70299 162.798902 
L 185.201867 162.780699 
L 184.820315 162.50563 
L 184.285604 162.515743 
L 184.153942 162.427761 
L 184.086767 162.075835 
L 184.250674 161.654131 
L 185.39533 159.524371 
L 185.388612 159.281663 
L 185.59148 159.096599 
L 186.351897 157.924523 
L 186.15306 157.602935 
L 186.016023 157.750582 
L 185.78763 158.417017 
L 185.348307 158.665792 
L 185.11857 158.884229 
L 184.538181 159.621454 
L 184.097515 159.281663 
L 183.675659 158.357351 
L 183.421738 158.247122 
L 183.917487 159.617409 
L 184.497876 160.237325 
L 184.041089 161.147478 
L 183.784481 161.359848 
L 183.017347 162.50563 
L 182.694909 162.582487 
L 181.720876 163.198358 
L 181.493826 163.077004 
L 181.028977 163.009248 
L 180.818049 162.859579 
L 180.695791 163.045655 
L 180.384101 162.822161 
L 179.231384 162.50563 
L 178.77997 162.509675 
L 177.932226 162.788789 
L 177.046864 162.913177 
L 175.856529 163.29443 
L 175.328536 163.624108 
L 175.141791 163.535115 
L 174.925489 163.620063 
L 173.744558 164.387626 
L 172.88741 164.21773 
L 172.69126 164.399761 
L 172.100123 165.321039 
L 172.156549 165.650717 
L 172.728877 167.118087 
L 172.573032 167.433607 
L 172.390317 168.289151 
L 171.43375 169.493588 
L 170.544358 169.420776 
L 170.399261 169.578536 
L 170.47584 169.71607 
L 170.971589 170.188339 
L 170.90307 170.697014 
L 170.42613 171.690093 
L 168.276542 174.816976 
L 167.795571 176.141756 
L 165.766897 178.192635 
L 163.953181 180.739043 
L 163.020797 181.724032 
L 161.923163 182.621039 
L 161.964811 182.293384 
L 161.870767 180.896803 
L 161.741792 180.842194 
L 161.463688 181.246707 
L 161.384422 181.534922 
L 161.19902 182.743404 
L 161.02974 182.72419 
L 160.83359 182.590701 
L 160.648188 182.777788 
L 159.87971 182.126522 
L 159.484723 181.942469 
L 159.11795 182.144725 
L 158.984944 182.636208 
L 158.859999 183.809295 
L 158.521439 183.115556 
L 158.632949 182.852623 
L 158.565774 182.711043 
L 158.420677 182.769698 
L 158.295732 183.115556 
L 158.356189 183.871995 
L 158.635636 184.316959 
L 158.521439 184.99654 
L 158.311854 184.590005 
L 157.916867 184.221898 
L 157.923584 184.016608 
L 157.684443 184.031777 
L 157.558154 184.316959 
L 156.727876 184.414042 
L 156.37588 184.665851 
L 156.265714 185.166436 
L 156.389315 185.494091 
L 156.606961 185.654885 
L 157.046283 185.829837 
L 157.409027 186.284914 
L 157.328417 186.369861 
L 157.038222 186.49526 
L 156.494108 186.875502 
L 156.155548 186.709652 
L 156.077625 186.998879 
L 156.155548 187.202146 
L 155.241972 187.727002 
L 155.263468 187.074725 
L 155.080753 186.407279 
L 154.77175 185.885457 
L 154.398259 185.676122 
L 154.442594 185.492069 
L 154.341832 184.316959 
L 154.583661 183.576701 
L 154.255848 183.073082 
L 153.81787 182.651378 
L 153.664712 182.458223 
L 153.551858 182.775765 
L 153.605598 182.947683 
L 153.890418 183.385568 
L 153.825931 183.579734 
L 153.428257 184.316959 
L 153.45244 184.895412 
L 153.653964 185.3515 
L 153.08701 185.813656 
L 152.987591 186.783476 
L 153.023865 187.972743 
L 152.86399 189.100323 
L 153.51424 189.407752 
L 154.137621 189.371346 
L 154.374076 189.198417 
L 154.801307 188.746374 
L 154.594409 189.022454 
L 153.833992 190.117672 
L 153.662025 190.223857 
L 153.378548 190.797254 
L 153.119253 190.891303 
L 153.128658 191.110751 
L 153.523645 191.887416 
L 153.707703 192.014837 
L 153.890418 191.984499 
L 153.922662 191.462677 
L 153.958936 191.209857 
L 154.228979 191.137044 
L 154.277344 191.820671 
L 154.462746 191.722577 
L 154.451998 191.63055 
L 154.828176 191.741791 
L 154.903412 192.153383 
L 155.217789 191.171428 
L 155.467679 191.476835 
L 155.58725 191.879325 
L 155.607402 192.360696 
L 155.474397 192.698464 
L 155.142554 192.66408 
L 155.376322 192.941171 
L 155.575159 193.946386 
L 155.534854 195.436004 
L 155.176141 196.579764 
L 155.147928 197.107653 
L 154.559478 197.608238 
L 154.263909 197.687117 
L 154.009424 197.62965 
L 154.009491 197.6295 
L 154.131817 197.263198 
L 154.012381 196.926704 
L 154.227367 196.211334 
L 154.142055 195.244235 
L 153.863938 194.392725 
L 152.533927 193.179035 
L 150.238186 192.297986 
L 148.806654 192.106621 
L 148.446638 191.964061 
L 147.781206 192.499626 
L 146.89567 192.463664 
L 146.291662 192.900336 
L 146.006721 193.328017 
L 145.470963 193.424342 
L 145.233796 193.686345 
L 144.276597 194.027976 
L 143.205081 194.891044 
L 142.694063 194.950124 
L 142.475665 195.258362 
L 142.350257 195.909517 
L 141.971472 196.058499 
L 141.643875 195.853006 
L 141.161863 195.385511 
L 140.786491 195.313588 
L 140.096319 194.891044 
L 139.657816 195.006634 
L 139.664641 195.736132 
L 139.192014 195.990429 
L 139.209076 196.405267 
L 139.402734 196.698094 
L 139.871096 196.926704 
L 139.475249 197.251639 
L 138.342308 197.354386 
L 136.146382 196.829096 
L 134.777981 196.063636 
L 133.308912 195.661641 
L 132.07189 194.969388 
L 131.751118 194.350342 
L 131.262281 193.008219 
L 131.348446 192.513753 
L 131.025968 192.047542 
L 130.543103 191.759853 
L 130.135312 191.806088 
L 129.913502 191.518399 
L 130.061944 191.030354 
L 130.206974 190.733674 
L 131.085686 190.033716 
L 132.264695 190.13004 
L 133.501716 190.47424 
L 134.559583 190.519192 
L 134.907655 190.350945 
L 134.981023 190.056834 
L 134.936242 188.925497 
L 135.046713 188.803329 
L 135.483509 188.584994 
L 135.255727 188.251068 
L 135.061216 187.212047 
L 134.445265 186.64309 
L 134.559583 186.356684 
L 135.126053 185.547558 
L 135.410994 185.347203 
L 135.888741 185.185377 
L 135.991115 184.986306 
L 135.875091 184.523948 
L 136.14041 184.059021 
L 137.245198 183.944716 
L 137.676876 183.676292 
L 137.712707 183.180541 
L 137.676876 182.813223 
L 137.801431 182.700202 
L 138.281737 182.587182 
L 138.808111 182.178765 
L 138.919869 181.857683 
L 138.874654 180.941957 
L 138.645165 180.081457 
L 138.657962 179.66662 
L 138.840529 179.304439 
L 139.127177 179.106652 
L 142.4168 178.107445 
L 142.450925 177.619401 
L 142.157452 176.534143 
L 142.118209 175.922803 
L 142.24447 175.529799 
L 142.812647 174.858095 
L 143.186312 174.191529 
L 143.38253 173.603307 
L 143.291246 173.062605 
L 142.031191 171.70507 
L 142.020953 171.366007 
L 142.234233 170.562018 
L 142.218877 170.170298 
L 141.79573 168.084549 
L 141.898104 167.385875 
L 142.234233 166.838751 
L 143.464429 165.975682 
L 144.366175 165.623776 
L 145.815622 164.768414 
L 146.170519 164.769698 
L 146.434133 165.119035 
L 146.542479 165.652674 
L 146.52371 168.048588 
L 146.161988 169.016329 
L 146.441811 169.266131 
L 146.808652 169.033667 
L 147.608877 168.264355 
L 147.805094 168.264355 
L 147.927943 167.721726 
L 147.902349 166.917095 
L 148.192409 166.411069 
L 148.424457 166.491982 
L 149.106952 167.804565 
L 149.315113 167.798144 
L 150.340561 166.294196 
L 150.683514 166.095125 
L 151.067417 166.161268 
L 151.18856 166.47657 
L 151.067417 167.575313 
L 151.83693 167.786585 
L 152.067272 167.876488 
L 152.301879 168.096108 
L 152.753178 168.954681 
L 153.01082 169.118433 
L 153.292349 169.149257 
L 153.563641 169.043942 
L 153.785451 168.806984 
L 153.9083 168.401778 
L 153.826401 167.793006 
L 153.932188 167.636318 
L 154.399696 167.630539 
L 154.732412 167.496327 
L 154.913273 167.130293 
L 154.918392 166.431619 
L 155.129965 166.813706 
L 155.99844 167.676133 
L 156.41988 168.449298 
L 156.471067 169.326494 
L 156.800371 169.706655 
L 157.124555 169.655282 
L 158.028861 168.916794 
L 158.295033 168.855146 
L 160.252939 168.972662 
L 160.977237 168.84166 
L 161.407208 168.401778 
L 161.80988 167.633108 
L 161.321896 167.436605 
L 161.072786 167.482841 
L 160.908987 167.633108 
L 160.628311 167.285697 
L 159.869889 166.658945 
L 159.996151 166.444462 
L 159.554236 165.751567 
L 159.460393 165.747714 
L 159.093552 165.867799 
L 158.98094 165.567266 
L 158.252378 165.247468 
L 158.018623 164.948862 
L 157.967436 164.394674 
L 158.615806 164.290002 
L 158.806904 163.755079 
L 158.769367 163.519405 
L 158.503194 162.753303 
L 158.571444 162.189483 
L 158.719886 161.677036 
L 158.830792 159.672842 
L 158.489544 158.715376 
L 158.452007 158.016701 
L 158.274559 157.912028 
L 157.815581 158.080918 
L 157.605714 157.49398 
L 157.52808 157.32188 
L 157.056306 156.913463 
L 156.587091 156.851816 
L 156.100814 156.90062 
L 155.578706 156.817139 
L 155.276702 156.589171 
L 154.621507 155.657391 
L 154.368984 155.561066 
L 153.560228 155.415937 
L 153.009114 154.8945 
L 152.497243 154.91248 
L 152.352213 154.636992 
L 152.456293 153.922263 
L 152.579996 152.996263 
L 153.084188 152.151175 
L 152.949396 151.43452 
L 152.541605 151.015829 
L 152.23107 151.046653 
L 151.715787 151.799269 
L 151.572463 151.647718 
L 151.02988 150.439166 
L 151.067417 150.368528 
L 151.884704 150.214408 
L 152.123577 149.919013 
L 152.219127 149.307673 
L 152.050209 148.006006 
L 152.109927 147.466588 
L 152.517718 147.245684 
L 152.70711 146.815434 
L 152.691754 146.240055 
L 152.317235 145.235068 
L 152.041678 144.982056 
L 151.400986 144.842706 
L 151.067417 144.881236 
L 150.823425 145.647338 
L 150.709108 145.994106 
L 150.420754 146.276658 
L 149.890114 146.335737 
L 149.415781 146.006949 
L 149.197382 145.628073 
L 149.054059 144.522266 
L 148.83822 144.196047 
L 148.095154 143.889092 
L 147.774381 143.061985 
L 147.267629 142.716501 
L 146.969038 142.195706 
L 146.733577 142.064704 
L 146.461433 142.189284 
L 146.134689 142.604764 
L 145.834391 142.368448 
L 145.697892 142.104519 
L 145.067438 140.03354 
L 145.283277 139.379817 
L 146.134689 138.047968 
L 146.305312 137.111051 
L 146.380387 135.456194 
L 147.068 134.49937 
L 147.004016 134.230945 
L 146.793296 134.031875 
L 146.064733 133.661346 
L 146.063027 133.388426 
L 146.412805 132.673055 
L 146.971597 131.987224 
L 147.025344 131.648162 
L 146.859839 131.527435 
L 145.977715 131.144063 
L 145.846335 130.78124 
L 145.571631 129.544432 
L 145.175784 129.031985 
L 144.659647 128.927955 
L 144.136686 129.186747 
L 143.413242 130.148066 
L 142.812647 130.26494 
L 142.07373 129.8726 
L 141.722362 129.599658 
L 141.190016 129.01272 
L 140.475103 127.980763 
L 140.335192 127.668029 
L 140.282299 127.018159 
L 139.964939 126.035006 
L 139.81479 125.656771 
L 139.3524 125.342111 
L 138.755217 125.236796 
L 137.608627 125.220742 
L 136.090076 124.583715 
L 135.561143 124.559313 
L 135.193449 124.728844 
L 134.777981 126.152522 
L 134.709731 126.807529 
L 134.537402 126.821657 
L 134.006762 126.378564 
L 133.537547 125.397337 
L 133.812251 125.087814 
L 133.832726 124.710864 
L 133.674046 124.375012 
L 133.414698 124.192637 
L 133.035914 124.245295 
L 132.390956 125.211109 
L 132.044591 125.278537 
L 131.860317 125.071118 
L 131.829605 124.724991 
L 131.938804 124.378865 
L 132.618739 123.687896 
L 132.728791 123.175449 
L 132.698079 122.703459 
L 132.525749 122.50503 
L 132.242514 122.467785 
L 131.481533 122.557688 
L 130.201856 123.262142 
L 129.920327 123.172881 
L 129.74629 122.891613 
L 129.567136 122.001574 
L 129.295844 122.043314 
L 128.783973 122.480628 
L 128.528038 122.551266 
L 128.159491 122.533928 
L 127.918912 122.348342 
L 128.243096 121.374179 
L 128.152666 120.927875 
L 127.881374 120.608078 
L 127.54354 120.444968 
L 126.076177 120.261309 
L 125.405626 119.999306 
L 124.388709 118.521044 
L 124.141305 118.254546 
L 123.074907 117.460832 
L 122.522087 117.20204 
L 120.46266 117.22002 
L 120.129944 117.05691 
L 120.095819 116.403187 
L 119.735803 116.355667 
L 119.111321 116.695372 
L 118.428826 116.695372 
L 118.050042 117.216167 
L 116.772071 118.208311 
L 116.546848 118.120976 
L 116.077633 117.678525 
L 115.760273 117.596328 
L 115.16309 117.905851 
L 114.180298 119.146512 
L 113.55411 119.472732 
L 113.013233 119.443192 
L 110.546015 118.565996 
L 110.581846 119.219719 
L 110.656921 119.483006 
L 110.568196 119.544012 
L 109.955658 119.429064 
L 109.798684 119.595385 
L 109.174201 119.705195 
L 108.604319 119.357784 
L 108.063442 118.891573 
L 107.51574 118.649477 
L 107.336585 118.708556 
L 107.089181 119.196601 
L 106.612288 119.091286 
L 106.438252 119.334666 
L 106.546598 119.856746 
L 106.645559 120.803938 
L 106.573898 121.125662 
L 106.386212 121.297762 
L 106.059467 121.323448 
L 105.751492 121.182172 
L 105.14919 120.355065 
L 104.825006 120.229201 
L 104.64841 120.76027 
L 104.103268 121.106397 
L 103.814914 121.794797 
L 103.80297 121.999005 
L 103.29963 122.23789 
L 100.943318 122.775381 
L 99.883746 122.88776 
L 99.054515 123.253151 
L 98.6126 123.165175 
L 98.071723 126.108855 
L 97.617864 126.871746 
L 96.983144 127.506204 
L 96.45933 128.605588 
L 95.677874 128.971622 
L 94.085955 128.987034 
L 93.03662 129.307474 
L 91.971929 129.281145 
L 91.472002 129.503334 
L 90.603527 129.613786 
L 89.516655 130.060732 
L 81.414593 130.955909 
L 80.708211 131.455512 
L 79.106055 134.143611 
L 78.413323 134.824305 
L 77.38105 135.280241 
L 75.38646 135.641138 
L 75.075925 135.425371 
L 73.687049 133.29467 
L 72.352773 132.761674 
L 71.79654 132.408484 
L 71.504773 132.066853 
L 71.303437 131.03939 
L 71.045796 130.714455 
L 69.991531 129.99378 
L 69.53407 129.83148 
L 68.600759 129.846892 
L 67.339851 129.626629 
L 66.961066 129.83469 
L 66.316109 130.401721 
L 65.502234 130.428692 
L 64.3983 130.994439 
L 64.03999 130.980311 
L 62.750076 130.559051 
L 62.14948 129.977893 
L 61.821883 129.822489 
L 61.001184 129.59709 
L 60.729892 129.399303 
L 60.20949 129.372332 
L 58.547616 130.064585 
L 58.194425 130.069722 
L 58.081814 129.686351 
L 56.953991 128.74558 
L 55.421791 128.752002 
L 54.742709 128.519538 
L 53.374308 128.292212 
L 52.568965 128.460459 
L 52.319854 128.777688 
L 52.026382 129.127026 
L 51.683428 129.147575 
L 50.516363 128.607515 
L 50.139284 128.653751 
L 50.019848 128.605588 
L 49.647888 128.165064 
L 48.859607 127.485654 
L 47.895584 126.453697 
L 46.371915 125.996476 
L 46.03408 126.160228 
L 45.709895 126.664969 
L 45.117831 128.24983 
L 44.41145 128.814934 
L 44.148689 128.856032 
L 43.621462 128.61201 
L 43.073761 128.294781 
L 42.822944 128.31533 
L 42.684739 128.609441 
L 42.82465 129.112898 
L 42.686445 129.449392 
L 42.055138 129.758915 
L 41.447718 129.260596 
L 41.309512 128.958779 
L 41.591041 128.605588 
L 41.730953 127.987184 
L 41.790671 127.729677 
L 41.50573 126.917981 
L 40.797642 126.174355 
L 39.87798 125.545035 
L 39.314922 125.805111 
L 39.011212 125.905931 
L 37.821966 125.905931 
L 37.562618 126.023447 
L 37.473894 125.921985 
L 37.192365 125.333121 
L 36.741918 124.032096 
L 35.380342 122.358617 
L 35.310386 122.367607 
L 34.735385 122.551266 
L 33.947103 122.394578 
L 33.689462 122.535212 
L 33.462532 122.393294 
L 32.653776 121.135936 
L 32.460972 120.28828 
L 32.498509 119.757852 
L 32.261342 119.527958 
L 31.805777 119.555571 
L 31.80919 119.159356 
L 32.054888 118.408024 
L 31.46453 118.113912 
L 30.901472 118.042632 
L 30.150728 118.4427 
L 29.76 118.374631 
L 29.775356 116.584278 
L 30.015935 115.789279 
L 29.823131 114.782365 
L 29.857255 114.278909 
L 30.10466 113.874346 
L 31.285375 112.821839 
L 31.58226 112.250955 
L 31.785302 112.112247 
L 32.425141 111.842539 
L 32.689607 111.493201 
L 32.890943 111.029559 
L 32.99673 110.5017 
L 33.027442 109.636063 
L 33.566613 108.860329 
L 33.60415 108.692082 
L 33.547844 107.452705 
L 33.814017 106.926131 
L 34.365131 106.371301 
L 34.621067 105.334848 
L 34.979376 104.291974 
L 35.269436 104.065932 
L 35.904156 103.97346 
L 36.160092 103.757693 
L 36.230047 102.764908 
L 36.475745 101.787534 
L 36.823818 101.456177 
L 37.154827 101.557639 
L 37.774191 102.23448 
L 38.180275 102.509326 
L 39.485546 102.561984 
L 40.03666 102.470797 
L 41.352168 103.588162 
L 41.686591 103.730722 
L 41.826502 103.200295 
L 41.486961 102.510611 
L 41.507436 102.172832 
L 41.655878 101.475442 
L 41.456249 101.223714 
L 40.412032 100.591825 
L 39.929167 99.963788 
L 39.217667 99.385841 
L 38.922488 99.706923 
L 38.82182 99.574637 
L 39.405353 97.854922 
L 39.7466 96.737556 
L 39.357578 93.873504 
L 38.785989 93.169693 
L 38.678496 92.749717 
L 38.465217 91.329251 
L 38.147857 90.440496 
L 38.55906 89.481102 
L 39.811437 87.83331 
L 40.215815 86.825112 
L 40.400089 86.669708 
L 40.935847 86.524579 
L 41.213963 86.249733 
L 42.391266 84.260309 
L 43.048167 83.744009 
L 43.269978 83.037629 
L 43.961003 82.34666 
L 45.750845 79.7947 
L 46.407746 79.089604 
L 47.011754 78.629815 
L 47.508268 77.884904 
L 51.280756 73.920184 
L 53.408433 72.321195 
L 54.949812 70.601525 
L 55.338186 69.576586 
L 55.846644 69.22468 
L 56.416527 69.051296 
L 59.407559 69.015335 
L 60.276033 68.668566 
L 60.71283 67.582025 
L 60.760604 66.481355 
L 61.823589 65.947075 
L 62.36276 65.28693 
L 62.277448 65.217577 
L 62.159718 64.888789 
L 61.992507 63.707207 
L 62.370339 63.063965 
L 61.821883 61.575222 
L 61.922551 61.008834 
L 61.47893 60.904803 
L 61.028483 60.635094 
L 60.796435 60.254933 
L 61.011421 59.665426 
L 60.550737 59.611485 
L 60.160009 59.4381 
L 59.916017 59.122156 
L 59.885305 58.646954 
L 60.088347 58.220557 
L 60.467132 57.945711 
L 60.922697 57.887916 
L 61.359493 58.122948 
L 61.695622 57.980388 
L 62.744957 57.875073 
L 62.947999 57.443539 
L 62.734719 57.132731 
L 61.359493 56.409655 
L 60.243615 55.428428 
L 59.90578 54.711773 
L 59.842649 54.284092 
L 59.458746 53.888519 
L 59.127736 53.706144 
L 59.197692 53.356807 
L 58.859857 51.98386 
L 58.182481 50.854936 
L 58.243906 50.626325 
L 58.516904 50.492113 
L 58.33263 50.190296 
L 57.547762 49.4319 
L 56.708293 48.929086 
L 56.336334 48.500762 
L 55.421791 46.608305 
L 55.140262 46.434921 
L 54.821196 46.429141 
L 54.561848 46.302635 
L 54.454356 45.774134 
L 54.54308 45.442777 
L 55.063482 44.783917 
L 55.365486 44.672823 
L 55.283586 44.08139 
L 55.592415 43.823882 
L 55.457622 43.525918 
L 54.759772 42.438092 
L 55.017413 41.941057 
L 54.22572 41.517871 
L 54.084102 41.016341 
L 54.235957 41.12294 
L 54.379281 41.053586 
L 54.415112 40.432614 
L 53.887885 38.840047 
L 54.256432 38.347507 
L 54.459474 38.24155 
L 56.452358 37.858178 
L 58.684115 38.469518 
L 59.61572 39.412857 
L 60.276033 39.311395 
L 62.743251 37.228857 
L 64.614992 36.025442 
L 65.080794 35.412175 
L 65.473228 33.790711 
L 65.727458 33.307804 
L 66.686362 32.126222 
L 67.036141 32.004211 
L 71.146464 31.703036 
L 72.501215 31.946416 
L 77.138765 31.247099 
L 78.62319 30.519527 
L 79.372228 30.290917 
L 80.119559 30.27101 
L 82.904137 30.973537 
L 88.376889 31.059587 
L 89.770884 30.798869 
L 93.290849 31.421126 
L 94.43744 31.387733 
L 94.935661 31.491122 
L 96.002058 32.381161 
L 96.496867 32.583443 
L 100.532115 32.828107 
L 100.523584 33.47284 
L 100.726626 33.738696 
L 100.958674 33.853643 
L 104.592957 33.958316 
L 107.713663 35.251634 
L 108.803948 35.421165 
L 110.467528 34.874042 
L 111.92636 34.926699 
L 112.605442 35.067333 
L 113.047357 35.308145 
L 113.151438 35.696654 
L 113.100251 36.890437 
L 113.231631 37.378481 
L 113.47221 37.592964 
L 114.692169 37.6925 
L 114.642688 38.123392 
L 114.304853 39.07829 
L 114.526664 39.27415 
L 114.88668 39.237546 
L 115.543581 39.039118 
L 116.863355 39.169477 
L 117.22593 39.002514 
L 117.684907 38.528597 
L 117.990324 38.37512 
L 118.570744 38.389365 
L 120.356873 39.065446 
L 121.285065 39.092417 
L 121.54612 39.231125 
L 121.752574 39.749993 
L 121.6229 40.375461 
L 121.109067 41.692467 
L 121.399383 42.057289 
L 121.902723 42.350758 
L 122.16463 42.314796 
L 122.33696 42.159393 
L 123.195197 41.018909 
L 123.256621 40.416559 
L 123.206287 39.832832 
L 123.310368 39.331302 
L 123.525354 38.913253 
L 123.834182 38.64226 
L 124.212967 38.582539 
L 124.566158 38.763629 
L 125.564306 39.783386 
L 126.176844 40.011996 
L 128.108304 39.906681 
L 128.505857 39.569545 
L 129.364094 38.14073 
L 129.717284 37.840197 
L 130.087538 37.67195 
L 130.423666 37.6925 
L 130.666805 37.95386 
L 130.875819 38.919675 
L 131.072889 39.105903 
L 131.752824 39.598442 
L 132.346594 40.823691 
L 132.557315 40.719019 
L 132.984727 40.329225 
L 133.807132 39.805219 
L 134.234545 39.667796 
L 134.682432 39.658806 
L 136.590004 40.117953 
L 136.735034 40.456374 
L 136.775983 40.962399 
L 137.141118 42.700737 
L 137.301504 42.964666 
L 137.574502 43.089246 
L 138.24164 42.874763 
L 138.651137 43.902868 
L 138.948022 43.586281 
L 139.028215 43.219605 
L 139.038452 41.853723 
L 139.362637 41.168534 
L 139.825027 40.638106 
L 140.877775 39.984383 
L 141.36064 39.886132 
L 142.379263 39.876499 
L 142.812647 39.72238 
L 143.1283 39.400656 
L 143.519029 38.614647 
L 143.848332 38.31283 
L 144.510352 38.187608 
L 145.174078 38.341085 
L 145.571631 38.574833 
L 145.777232 38.881145 
L 146.124451 39.783386 
L 146.86837 40.975242 
L 146.933207 41.625754 
L 146.77794 42.269845 
L 146.888845 42.551755 
L 147.163549 42.743762 
L 147.501384 43.116217 
L 148.032023 44.587415 
L 148.410808 44.789697 
L 148.960781 44.504349 
L 149.397012 44.144322 
L 149.777503 44.030016 
L 150.498387 44.309358 
L 150.826838 44.305505 
L 151.309703 43.296665 
L 151.473501 43.003196 
L 151.697018 42.895313 
L 152.509187 42.700737 
L 153.331593 41.80556 
L 154.037974 41.619333 
L 154.399696 41.667495 
L 154.684638 41.853723 
L 155.310826 42.952465 
L 156.808902 43.189424 
L 157.105787 43.116217 
L 157.272998 42.943475 
L 157.760128 42.323787 
L 157.929899 42.338556 
L 158.194366 42.506803 
L 158.40082 42.495887 
L 159.781165 41.894179 
L 162.091409 41.835742 
L 162.564889 41.958395 
L 163.028132 42.281404 
L 163.878691 43.311435 
L 164.923761 43.882319 
L 165.069644 44.216886 
L 165.056847 44.866756 
L 164.872574 45.410669 
L 164.995423 45.674599 
L 165.720573 46.477304 
L 165.973096 46.570417 
L 166.705071 46.624359 
L 166.947357 46.840768 
L 167.315051 47.365416 
L 168.420692 47.795666 
L 168.5461 48.030698 
L 168.728667 47.990242 
L 168.805448 47.824564 
L 168.871991 47.181758 
L 169.16717 46.692429 
L 169.211532 46.328322 
L 169.715725 45.983479 
L 170.175556 45.528185 
L 170.0783 44.8263 
L 170.294992 44.742819 
L 170.161906 44.466046 
L 170.0783 44.332476 
L 169.84284 43.468765 
L 169.470027 43.314004 
L 169.342912 43.254282 
L 169.3122 42.645511 
L 169.436755 42.4702 
L 169.84284 42.26535 
L 169.49818 42.088112 
L 169.359975 41.900601 
L 169.278929 41.601994 
L 169.373625 41.399713 
L 169.131339 41.049733 
L 168.930003 40.907815 
L 169.15352 40.675352 
L 169.278929 40.398579 
L 168.264571 39.889985 
L 168.349883 39.676786 
L 168.604112 39.396161 
L 168.141722 39.056456 
L 168.141722 38.872155 
L 168.826776 38.376404 
L 168.805448 37.975052 
L 169.052852 37.683509 
L 168.953891 37.340594 
L 169.146695 36.815946 
L 169.052852 36.480094 
L 169.259307 36.421015 
L 169.955451 36.326617 
L 170.071475 35.782704 
L 170.121809 35.491803 
L 170.30523 35.308145 
L 170.30523 35.122559 
L 170.172143 35.108432 
L 169.84284 34.95367 
L 170.045882 34.737903 
L 170.707901 34.228025 
L 170.692545 33.842084 
L 170.566284 33.510085 
L 171.103748 32.817832 
L 171.42452 32.328503 
L 171.764061 32.160256 
L 171.881792 31.559191 
L 172.014878 31.516808 
L 172.649598 31.492406 
L 173.019851 31.050597 
L 172.931127 30.778319 
L 172.895296 30.534939 
L 173.598265 30.231196 
L 174.154498 29.677008 
L 174.180092 29.316112 
L 174.541814 29.022643 
L 174.746562 29.206302 
L 175.176534 29.17612 
L 175.32327 28.853754 
L 175.16459 28.523039 
L 174.681725 28.461392 
L 174.903536 27.97142 
L 174.806281 27.551445 
L 175.063922 27.289442 
L 175.475125 27.166147 
L 178.372314 27.1167 
L 178.774986 27.329256 
L 179.529142 27.930322 
L 179.926695 28.07224 
L 180.314011 27.916194 
L 181.172248 26.599116 
L 182.470693 26.102081 
L 183.985831 26.095017 
L 186.876195 26.61517 
L 190.322792 26.540037 
L 190.708401 26.874604 
L 190.873053 28.122971 
L 191.17591 28.299566 
L 191.454026 28.249477 
L 192.334444 27.838492 
L 192.935039 27.784551 
L 194.233485 28.00995 
L 196.507045 27.01267 
L 197.239873 26.470683 
L 197.719326 25.513217 
L 198.074223 23.575165 
L 198.714061 22.878417 
L 198.652637 22.666503 
L 198.260202 21.883063 
L 198.49225 21.029627 
L 199.164508 20.89991 
L 200.589215 21.388597 
L 201.379202 21.163197 
L 204.631288 22.757048 
L 205.129509 22.749343 
L 206.591753 22.502109 
L 206.86987 22.6299 
L 207.361266 22.999786 
L 207.661563 23.029968 
L 207.956742 22.885481 
L 209.960717 21.340435 
L 210.606527 21.298694 
L 210.961424 20.862022 
L 211.489504 20.562774 
L 212.183089 19.893639 
L 212.408312 19.852541 
L 212.408312 19.852541 
" clip-path="url(#p4a4a47dce9)" style="fill: none; stroke: #000000; stroke-width: 2"/>
   </g>
  </g>
 </g>
 <defs>
  <clipPath id="p4a4a47dce9">
   <rect x="0" y="0" width="357.12" height="238.230487"/>
  </clipPath>
 </defs>
</svg>
