<?xml version="1.0" encoding="utf-8" standalone="no"?>
<!DOCTYPE svg PUBLIC "-//W3C//DTD SVG 1.1//EN"
  "http://www.w3.org/Graphics/SVG/1.1/DTD/svg11.dtd">
<svg xmlns:xlink="http://www.w3.org/1999/xlink" width="245.143129pt" height="266.112pt" viewBox="0 0 245.143129 266.112" xmlns="http://www.w3.org/2000/svg" version="1.1">
 <metadata>
  <rdf:RDF xmlns:dc="http://purl.org/dc/elements/1.1/" xmlns:cc="http://creativecommons.org/ns#" xmlns:rdf="http://www.w3.org/1999/02/22-rdf-syntax-ns#">
   <cc:Work>
    <dc:type rdf:resource="http://purl.org/dc/dcmitype/StillImage"/>
    <dc:date>2024-02-02T21:58:06.072444</dc:date>
    <dc:format>image/svg+xml</dc:format>
    <dc:creator>
     <cc:Agent>
      <dc:title>Matplotlib v3.8.2, https://matplotlib.org/</dc:title>
     </cc:Agent>
    </dc:creator>
   </cc:Work>
  </rdf:RDF>
 </metadata>
 <defs>
  <style type="text/css">*{stroke-linejoin: round; stroke-linecap: butt}</style>
 </defs>
 <g id="figure_1">
  <g id="patch_1">
   <path d="M 0 266.112 
L 245.143129 266.112 
L 245.143129 0 
L 0 0 
L 0 266.112 
z
" style="fill: none"/>
  </g>
  <g id="axes_1">
   <g id="PatchCollection_1">
    <path d="M 79.200806 22.707096 
L 80.625275 22.453298 
L 82.079461 22.410998 
L 83.464306 23.402691 
L 84.544049 25.108778 
L 86.92939 26.791365 
L 88.119089 27.378861 
L 88.767926 27.834757 
L 89.344449 28.408153 
L 89.697099 29.023848 
L 89.823895 29.945041 
L 89.703043 30.419738 
L 89.744648 30.715836 
L 90.355842 31.110633 
L 91.114634 31.204632 
L 91.490067 31.256331 
L 92.111167 31.778028 
L 92.449949 32.346723 
L 94.346929 34.414708 
L 94.988832 35.021003 
L 97.031429 36.360493 
L 97.669369 37.032588 
L 99.151292 39.40607 
L 99.664417 39.866667 
L 101.430639 40.886559 
L 103.676307 42.832344 
L 104.936338 43.480939 
L 105.703055 44.232934 
L 106.913556 45.718122 
L 107.233516 46.695715 
L 107.400926 47.137512 
L 107.828861 47.508809 
L 108.90068 48.326603 
L 109.155261 48.7073 
L 110.426188 51.245281 
L 111.002712 51.983175 
L 113.513858 54.069959 
L 114.129014 55.32485 
L 114.3727 56.68784 
L 114.184487 58.036729 
L 113.513858 59.27282 
L 113.354373 60.259813 
L 113.322674 63.23959 
L 113.090876 65.316975 
L 113.098801 66.299267 
L 113.570704 66.97225 
L 114.518316 66.830363 
L 117.041349 66.994862 
L 118.236001 66.745764 
L 119.523768 66.637665 
L 120.001233 66.153568 
L 120.371713 65.598973 
L 122.454924 64.174883 
L 123.012627 63.629687 
L 123.322681 62.924693 
L 123.729814 61.364304 
L 124.228081 60.762709 
L 124.962108 60.67341 
L 126.76102 60.941308 
L 127.262258 60.471311 
L 127.326647 59.606518 
L 127.191926 57.731232 
L 127.380139 56.922838 
L 127.979446 56.316542 
L 128.789748 56.123844 
L 129.596089 56.349442 
L 130.669888 57.627833 
L 132.064639 58.450326 
L 132.684749 58.976722 
L 133.536656 60.048314 
L 135.319719 61.679202 
L 138.156769 64.945677 
L 138.721405 65.805771 
L 138.929429 66.553065 
L 139.062168 68.179253 
L 139.327646 68.959447 
L 139.7536 69.382444 
L 141.027499 70.233138 
L 141.467321 70.933432 
L 142.320219 73.645312 
L 142.919526 74.369106 
L 143.56341 74.773303 
L 145.069107 75.365499 
L 145.784313 75.816695 
L 147.601055 77.503983 
L 148.359847 77.992779 
L 148.942314 78.105578 
L 149.440581 77.82358 
L 149.944791 77.109186 
L 150.66396 75.642797 
L 151.161236 75.468898 
L 151.846724 76.333692 
L 152.465843 77.424083 
L 153.45148 78.744773 
L 154.556979 79.872765 
L 156.110224 80.620059 
L 158.041875 82.575244 
L 159.196903 83.040541 
L 165.547577 83.971134 
L 166.868033 83.966434 
L 167.448519 84.154433 
L 167.947776 84.666729 
L 168.62534 86.095518 
L 169.065162 86.706513 
L 171.085966 88.360901 
L 171.64664 88.967196 
L 172.102311 89.79909 
L 172.262787 90.598084 
L 172.324204 92.44517 
L 172.847235 93.79876 
L 173.891317 94.818652 
L 175.149367 95.744545 
L 176.306376 96.849037 
L 177.477253 98.230826 
L 180.112223 100.688908 
L 182.23803 102.202296 
L 184.124113 103.988283 
L 185.017626 104.622778 
L 185.447542 104.580479 
L 185.81406 104.105782 
L 186.511436 103.443087 
L 187.234566 103.179889 
L 187.987415 103.259788 
L 188.71847 103.588786 
L 189.604058 104.39248 
L 189.946802 105.064575 
L 190.291527 105.379472 
L 190.667952 105.525171 
L 191.929964 105.65207 
L 193.142446 106.107967 
L 194.236057 106.869361 
L 194.683804 107.362858 
L 195.171174 108.777547 
L 196.066668 109.68464 
L 197.126599 110.377885 
L 199.373258 110.861981 
L 199.929969 111.223878 
L 200.157805 111.848974 
L 200.209316 113.451662 
L 201.304909 116.107142 
L 203.25439 119.01642 
L 203.716005 120.28541 
L 203.973558 121.831698 
L 204.09441 124.120581 
L 204.27866 124.891375 
L 204.627348 125.488271 
L 205.60407 126.357764 
L 206.002287 126.90766 
L 206.652114 128.082651 
L 207.444586 129.163643 
L 208.351967 130.103636 
L 210.767026 131.833223 
L 213.029533 134.375904 
L 215.196945 135.109098 
L 216.847268 136.128991 
L 217.497095 136.331089 
L 218.73137 136.340489 
L 220.003288 137.125383 
L 221.239544 137.698779 
L 221.827955 138.131175 
L 224.37179 140.890055 
L 224.714535 141.571549 
L 224.591701 142.398743 
L 224.100369 143.047338 
L 222.711561 144.13303 
L 221.14841 146.121115 
L 218.580801 148.001101 
L 217.507001 149.152592 
L 217.193974 149.975086 
L 217.094915 151.667073 
L 216.837362 152.498967 
L 216.41537 152.997163 
L 211.745729 156.10854 
L 210.434187 157.255331 
L 209.3485 158.71702 
L 208.381685 161.964696 
L 208.409421 165.32047 
L 209.257366 172.154219 
L 208.383666 179.655362 
L 208.274701 183.720832 
L 209.352463 185.586718 
L 210.13701 185.586718 
L 210.822499 185.455119 
L 211.454495 185.459818 
L 212.078567 185.896915 
L 213.195953 187.9508 
L 214.429995 187.87784 
L 213.768389 188.328388 
L 213.061716 188.957517 
L 211.676449 190.645063 
L 210.827818 192.147572 
L 210.347343 193.727796 
L 209.58295 197.502571 
L 208.849758 199.778538 
L 208.64696 201.858365 
L 208.281923 202.509698 
L 206.940337 203.431187 
L 206.297623 204.012207 
L 204.428762 206.384393 
L 202.372702 207.935012 
L 201.705029 208.712171 
L 199.892327 212.335215 
L 199.063975 214.951652 
L 199.686409 216.609592 
L 199.639609 217.423759 
L 198.071825 217.904858 
L 194.52442 219.858859 
L 191.689928 221.827663 
L 185.847787 227.430613 
L 185.381351 228.044939 
L 185.222233 228.822098 
L 185.239393 229.521542 
L 185.031915 230.028546 
L 181.54691 230.798304 
L 180.670198 230.864917 
L 181.060194 230.183978 
L 181.718508 229.599258 
L 181.206833 229.088553 
L 180.932276 228.355803 
L 180.994675 227.789586 
L 181.47827 226.49062 
L 180.915116 225.935506 
L 179.877726 225.498816 
L 178.781057 225.236062 
L 178.027585 225.217558 
L 178.45814 225.528422 
L 179.885526 226.15015 
L 179.578209 226.720067 
L 178.954215 227.345495 
L 178.238182 227.837696 
L 177.648508 228.044939 
L 177.412951 228.348401 
L 177.406711 228.966428 
L 177.690628 229.443826 
L 178.313062 229.343905 
L 178.258462 228.988632 
L 178.829417 229.110758 
L 179.537649 229.695477 
L 179.885526 230.698383 
L 179.581329 231.275702 
L 178.876216 231.85302 
L 169.843906 236.586292 
L 167.46337 237.252428 
L 166.224742 238.270137 
L 165.44163 238.62541 
L 163.809886 239.117611 
L 157.167472 242.244753 
L 156.36252 242.381681 
L 155.595008 242.655537 
L 154.613778 243.776867 
L 153.874345 243.936 
L 154.136422 243.003409 
L 153.735506 242.400185 
L 153.217592 241.893181 
L 152.534318 241.552711 
L 151.019574 241.360271 
L 150.927534 241.182635 
L 150.963414 240.893976 
L 150.710697 240.490593 
L 149.972824 240.042801 
L 149.138232 239.868865 
L 147.31149 239.957684 
L 143.785926 240.76815 
L 142.31018 240.490593 
L 141.30399 239.517293 
L 139.31813 236.904557 
L 137.836145 236.116295 
L 134.337361 235.841442 
L 132.748925 236.007988 
L 130.773081 235.497288 
L 129.215731 234.796086 
L 127.492952 235.191051 
L 125.701913 234.447134 
L 123.284487 235.262282 
L 121.921649 234.874267 
L 118.200905 236.208545 
L 111.279596 240.643612 
L 109.91614 240.525995 
L 108.20268 241.523105 
L 107.965113 242.471055 
L 107.152285 241.340377 
L 106.4921 241.212328 
L 105.783161 240.947871 
L 106.102941 240.538703 
L 106.149175 240.029704 
L 105.722298 239.669782 
L 105.110352 239.586204 
L 104.881952 240.274432 
L 104.121761 240.879173 
L 103.758061 240.882974 
L 102.908779 240.756693 
L 102.015782 240.879173 
L 100.808354 239.868865 
L 98.501137 238.540293 
L 97.906782 238.007383 
L 97.817863 237.333845 
L 99.118226 236.135577 
L 100.098378 235.897553 
L 99.529513 235.265142 
L 96.757189 234.152971 
L 95.351875 233.938212 
L 93.996366 233.996011 
L 93.17379 234.550874 
L 92.556036 234.462056 
L 91.958562 234.184499 
L 89.168911 232.532657 
L 86.59326 231.823054 
L 83.459307 231.434475 
L 80.445876 230.14697 
L 79.801603 229.688076 
L 79.285248 228.570447 
L 78.687774 228.011632 
L 77.417947 227.112347 
L 75.710102 225.321574 
L 75.005812 224.776905 
L 73.973382 224.141774 
L 73.409493 223.64165 
L 73.468066 223.019307 
L 73.218468 222.704743 
L 72.422876 222.116322 
L 71.702163 221.309556 
L 71.00953 220.724836 
L 69.785049 220.176694 
L 67.820836 219.773845 
L 64.410256 219.69468 
L 62.309966 219.836865 
L 61.609978 219.244831 
L 59.837668 219.293271 
L 58.858298 219.887626 
L 58.392245 219.294747 
L 57.413367 219.203942 
L 54.988446 220.298634 
L 53.778426 219.065822 
L 52.799968 219.018937 
L 51.681251 219.245356 
L 50.142122 219.926833 
L 47.996083 220.742447 
L 47.296976 220.648972 
L 46.316307 221.239097 
L 45.197322 221.143696 
L 44.07756 221.276113 
L 42.818357 221.087779 
L 43.192901 220.724525 
L 42.868446 220.03797 
L 41.796068 219.712484 
L 41.09944 218.612014 
L 41.198746 216.784564 
L 40.234157 215.754717 
L 39.468204 214.507561 
L 36.624353 211.180578 
L 35.363885 210.584756 
L 34.91929 209.889013 
L 34.321816 208.401307 
L 33.646342 207.757375 
L 32.696312 207.365095 
L 29.751061 206.921004 
L 29.270586 206.384393 
L 28.82599 204.674643 
L 28.384515 203.708744 
L 25.138187 199.05689 
L 24.436194 198.457367 
L 22.994768 197.59509 
L 22.366095 197.036275 
L 21.83414 196.159195 
L 21.553343 195.226604 
L 20.609552 189.890108 
L 20.428594 185.959902 
L 20.949629 182.066703 
L 20.82483 181.119308 
L 20.593952 180.223725 
L 20.467594 179.272629 
L 20.664152 178.195708 
L 21.186747 177.307526 
L 22.498693 175.582972 
L 22.759211 174.59857 
L 22.517413 173.710388 
L 21.455064 172.822206 
L 21.211706 171.926622 
L 21.455064 171.097652 
L 22.044738 170.368602 
L 23.425324 169.010423 
L 23.82624 168.100037 
L 23.88396 167.056422 
L 23.239686 163.111413 
L 23.205366 161.187018 
L 23.80128 159.728919 
L 25.376865 159.144199 
L 28.939869 159.358843 
L 30.585653 159.218214 
L 31.991199 158.522471 
L 33.432625 157.179095 
L 34.062858 156.357527 
L 34.321816 155.591469 
L 34.385775 154.536753 
L 34.563613 153.718885 
L 35.133008 152.005434 
L 35.413805 150.180959 
L 35.083088 148.81908 
L 34.312456 147.731056 
L 32.654192 145.976896 
L 32.259516 145.221941 
L 32.053598 144.38927 
L 31.991199 143.438175 
L 31.994319 140.351742 
L 31.707282 139.559779 
L 31.991199 139.219309 
L 31.666722 138.049869 
L 31.245526 134.874618 
L 30.790011 134.223284 
L 30.482694 133.505337 
L 29.704262 130.085835 
L 29.615826 128.947445 
L 29.990269 128.453948 
L 30.949161 126.432964 
L 33.378088 122.87979 
L 33.572243 121.498001 
L 33.174026 120.172611 
L 30.554906 116.638238 
L 30.121027 115.674745 
L 30.338957 114.744152 
L 31.184921 113.338862 
L 31.587101 111.581076 
L 31.702009 109.534241 
L 31.559364 107.593156 
L 31.184921 106.169067 
L 29.976401 104.777877 
L 29.50488 103.861384 
L 29.758471 102.926091 
L 30.808497 101.7182 
L 31.412757 101.262304 
L 32.25674 100.891006 
L 34.073482 100.524409 
L 35.000674 100.148412 
L 35.398892 99.495117 
L 37.708948 92.47807 
L 38.055654 90.475885 
L 37.778289 88.4455 
L 36.761944 87.14831 
L 35.325588 86.020318 
L 34.38849 84.854727 
L 34.873879 83.449438 
L 35.602953 82.829043 
L 37.045252 81.936049 
L 37.647531 81.404953 
L 38.019993 80.54956 
L 38.210186 78.486275 
L 38.562837 77.550982 
L 38.826333 77.250185 
L 39.741639 76.446491 
L 40.538073 74.726304 
L 40.910535 74.204608 
L 40.914498 73.024916 
L 40.656944 71.003932 
L 41.144314 68.997047 
L 42.113112 67.478958 
L 42.822374 65.92797 
L 42.51331 63.803586 
L 40.656944 60.852008 
L 40.954121 60.048314 
L 41.669327 59.554818 
L 43.299839 59.117721 
L 44.187407 59.225821 
L 44.662891 59.042522 
L 45.088844 57.261235 
L 45.13243 56.786539 
L 44.963649 53.762474 
L 44.868933 52.937268 
L 43.935797 49.134997 
L 43.079928 47.236211 
L 42.51331 46.357318 
L 41.651497 44.594831 
L 41.498946 42.818244 
L 41.984335 41.182657 
L 43.038323 39.838467 
L 50.58662 32.73682 
L 51.416734 31.279831 
L 51.698062 29.507945 
L 50.980874 26.551667 
L 51.305788 26.11927 
L 52.159677 26.09107 
L 53.112624 27.049863 
L 53.855567 29.428045 
L 55.062106 30.250539 
L 56.020997 30.353938 
L 57.699057 30.043741 
L 58.622287 30.024941 
L 59.133431 30.297539 
L 59.707974 31.218732 
L 60.304309 31.373831 
L 60.682714 31.181132 
L 61.556415 30.377438 
L 62.045766 30.13774 
L 62.794652 30.17064 
L 64.244876 31.110633 
L 64.546016 30.993134 
L 65.245372 30.283439 
L 65.548493 30.443238 
L 66.216151 31.110633 
L 67.460332 30.838035 
L 68.567812 29.935641 
L 69.330566 28.652551 
L 69.540571 27.223762 
L 69.827842 26.062871 
L 70.644089 24.591782 
L 71.690152 23.280492 
L 72.654987 22.594297 
L 73.033392 22.627197 
L 73.750579 22.979694 
L 74.158702 22.984394 
L 75.17901 22.476798 
L 76.585648 22.2042 
L 77.354346 22.176 
L 79.200806 22.707096 
L 79.200806 22.707096 
" clip-path="url(#pe5d3f60aba)" style="fill: none; stroke: #000000; stroke-width: 2"/>
   </g>
  </g>
 </g>
 <defs>
  <clipPath id="pe5d3f60aba">
   <rect x="0" y="-0" width="245.143129" height="266.112"/>
  </clipPath>
 </defs>
</svg>
