<?xml version="1.0" encoding="utf-8" standalone="no"?>
<!DOCTYPE svg PUBLIC "-//W3C//DTD SVG 1.1//EN"
  "http://www.w3.org/Graphics/SVG/1.1/DTD/svg11.dtd">
<svg xmlns:xlink="http://www.w3.org/1999/xlink" width="357.12pt" height="232.044196pt" viewBox="0 0 357.12 232.044196" xmlns="http://www.w3.org/2000/svg" version="1.1">
 <metadata>
  <rdf:RDF xmlns:dc="http://purl.org/dc/elements/1.1/" xmlns:cc="http://creativecommons.org/ns#" xmlns:rdf="http://www.w3.org/1999/02/22-rdf-syntax-ns#">
   <cc:Work>
    <dc:type rdf:resource="http://purl.org/dc/dcmitype/StillImage"/>
    <dc:date>2024-02-02T21:58:06.222477</dc:date>
    <dc:format>image/svg+xml</dc:format>
    <dc:creator>
     <cc:Agent>
      <dc:title>Matplotlib v3.8.2, https://matplotlib.org/</dc:title>
     </cc:Agent>
    </dc:creator>
   </cc:Work>
  </rdf:RDF>
 </metadata>
 <defs>
  <style type="text/css">*{stroke-linejoin: round; stroke-linecap: butt}</style>
 </defs>
 <g id="figure_1">
  <g id="patch_1">
   <path d="M 0 232.044196 
L 357.12 232.044196 
L 357.12 0 
L 0 0 
L 0 232.044196 
z
" style="fill: none"/>
  </g>
  <g id="axes_1">
   <g id="PatchCollection_1">
    <path d="M 303.24852 149.941846 
L 302.979858 149.995547 
L 302.535671 149.857118 
L 302.20074 149.693628 
L 301.828196 149.417962 
L 301.658043 149.085014 
L 301.939243 148.741327 
L 302.374474 148.71746 
L 302.673584 148.565903 
L 303.305834 148.080206 
L 303.737484 147.941776 
L 303.810918 148.181641 
L 303.418672 149.656633 
L 303.24852 149.941846 
" clip-path="url(#pdcd3b62d9d)" style="fill: none; stroke: #000000; stroke-width: 2"/>
    <path d="M 293.059978 146.715003 
L 293.190726 146.734096 
L 293.276698 146.701876 
L 293.468343 146.543159 
L 293.559688 146.489458 
L 294.002084 146.367735 
L 294.220596 146.409503 
L 294.353135 146.624307 
L 294.236715 146.985895 
L 293.434313 147.559901 
L 293.152218 147.842727 
L 293.192517 148.439407 
L 293.955516 149.280725 
L 293.921486 149.991967 
L 293.737005 150.272407 
L 293.497001 150.364295 
L 292.9149 150.377422 
L 292.094587 150.602967 
L 291.838463 150.5791 
L 291.636071 150.386969 
L 291.593981 150.132784 
L 291.510696 149.934686 
L 291.181138 149.917979 
L 290.987702 150.059989 
L 290.749488 150.301047 
L 290.504111 150.456184 
L 290.285599 150.342815 
L 290.256942 149.755682 
L 290.997552 148.561129 
L 290.918745 147.888075 
L 290.71904 147.724585 
L 290.256942 147.623149 
L 290.029475 147.49904 
L 289.832457 147.210247 
L 289.404389 146.247206 
L 289.309462 145.874878 
L 289.328269 145.491809 
L 289.429464 145.084874 
L 289.728574 144.365278 
L 290.273062 144.060971 
L 290.665308 144.311577 
L 290.955462 144.874842 
L 291.194571 145.506129 
L 291.490994 145.888004 
L 291.961152 146.204245 
L 292.932811 146.620727 
L 292.991917 146.673235 
L 293.059978 146.715003 
" clip-path="url(#pdcd3b62d9d)" style="fill: none; stroke: #000000; stroke-width: 2"/>
    <path d="M 134.260394 67.17939 
L 134.647869 67.319393 
L 147.180329 65.181707 
L 155.091517 63.935243 
L 176.51459 65.708575 
L 176.815491 65.624443 
L 184.257416 61.734091 
L 184.810859 61.81882 
L 185.392959 62.321224 
L 189.125564 67.02485 
L 190.850371 68.795199 
L 194.762084 71.266049 
L 195.104179 71.561406 
L 199.92755 81.261031 
L 200.228451 81.294445 
L 205.230929 78.648767 
L 204.310316 91.535855 
L 204.224344 91.734549 
L 203.815978 91.892073 
L 203.713887 92.211297 
L 203.626124 101.456848 
L 203.774784 101.573201 
L 212.212548 101.66867 
L 212.81435 107.504794 
L 214.662741 116.610126 
L 215.402456 120.0112 
L 216.177993 120.961114 
L 217.604586 121.334635 
L 233.968762 120.415749 
L 234.53116 120.662774 
L 235.274457 120.988561 
L 235.607597 120.939633 
L 237.051205 119.983753 
L 237.423749 120.928893 
L 238.364065 122.351378 
L 238.614816 123.434948 
L 238.731236 123.624692 
L 239.159303 123.346639 
L 239.467368 123.502969 
L 239.558713 123.624692 
L 239.798718 123.106774 
L 240.169471 123.06978 
L 240.387982 123.903938 
L 240.411266 123.926612 
L 239.863196 124.296553 
L 239.933944 124.335934 
L 240.087977 124.483911 
L 240.230367 124.75361 
L 240.140813 125.800186 
L 239.798718 126.944618 
L 239.21214 127.993581 
L 238.797505 128.370682 
L 238.032716 128.791938 
L 238.035402 129.013903 
L 238.091821 129.055671 
L 239.041092 129.356397 
L 239.305276 129.50676 
L 241.469793 131.561725 
L 242.053684 132.027135 
L 246.13734 134.202629 
L 246.165997 134.144155 
L 246.407792 133.866102 
L 246.736455 133.799274 
L 247.156462 133.424559 
L 247.603336 133.61669 
L 248.180958 133.826721 
L 248.412007 133.860135 
L 248.834702 133.486614 
L 248.886643 133.335057 
L 248.552607 133.15486 
L 249.008436 132.298028 
L 248.712908 131.60946 
L 248.696789 131.173883 
L 248.093196 130.973399 
L 247.892595 130.573624 
L 247.836176 130.354045 
L 247.726025 128.065182 
L 248.057374 127.491176 
L 248.025135 126.73578 
L 248.028717 126.60809 
L 248.105733 126.652245 
L 248.345738 126.768001 
L 248.535592 126.226215 
L 249.391538 125.726723 
L 250.082187 125.420698 
L 250.431447 124.986315 
L 251.068175 123.137801 
L 251.544601 122.596016 
L 252.734772 122.068551 
L 253.389411 121.019588 
L 254.117484 120.852518 
L 254.490923 120.80359 
L 255.708856 120.083995 
L 256.144087 119.524309 
L 256.375136 116.81061 
L 256.219313 116.531364 
L 256.012443 116.136362 
L 256.235432 115.854729 
L 257.36202 115.358292 
L 257.684414 115.485981 
L 257.859939 115.006251 
L 258.284425 114.587381 
L 259.508626 113.927454 
L 260.148936 114.095717 
L 260.275207 114.076624 
L 261.20388 113.574219 
L 262.335841 113.703102 
L 262.427186 113.526485 
L 262.416439 113.407149 
L 262.064493 112.630272 
L 262.289273 112.026432 
L 262.74958 111.689905 
L 263.736463 111.376051 
L 265.745156 109.696995 
L 266.288748 109.177883 
L 268.626104 108.528099 
L 270.556885 108.455901 
L 271.276898 108.149208 
L 272.310349 106.954655 
L 273.279322 106.599034 
L 274.937859 105.280968 
L 275.158162 105.026186 
L 276.582964 102.743886 
L 277.698805 102.066655 
L 278.040005 101.191922 
L 278.254934 100.719352 
L 278.997336 100.080905 
L 280.814384 99.378613 
L 281.102747 99.515849 
L 281.537083 99.937105 
L 282.052913 100.941317 
L 282.829345 101.142995 
L 283.370251 100.885229 
L 283.898618 99.783162 
L 284.257729 98.985401 
L 284.704603 98.3207 
L 285.130879 97.723423 
L 285.395959 97.12734 
L 285.519543 96.96206 
L 285.933282 96.945353 
L 286.737476 97.166721 
L 287.39301 97.071849 
L 288.044962 96.739499 
L 290.367989 94.874278 
L 290.91785 94.799096 
L 291.469501 95.025238 
L 293.899993 96.752626 
L 294.512541 96.956093 
L 294.252835 97.817699 
L 293.608047 98.266999 
L 292.176977 98.679901 
L 289.728574 100.496791 
L 289.013935 100.666844 
L 288.161382 100.629254 
L 287.446742 100.817208 
L 287.144946 101.662703 
L 287.0939 102.988525 
L 286.901359 103.376367 
L 286.300453 103.604298 
L 284.573854 103.801799 
L 284.041009 104.118636 
L 282.327844 105.581098 
L 281.572009 106.469554 
L 281.065134 107.558495 
L 280.656769 108.167108 
L 278.534342 109.609283 
L 275.72862 111.255522 
L 275.364136 111.853395 
L 275.681157 112.598051 
L 276.320571 112.934579 
L 278.772556 113.215018 
L 279.709289 113.873753 
L 279.962726 114.20312 
L 280.386316 115.002671 
L 280.648709 115.247309 
L 281.065134 115.266403 
L 281.65619 115.039665 
L 283.778616 113.815278 
L 284.367881 113.725776 
L 284.695648 113.931034 
L 284.987593 114.323649 
L 286.124927 116.480049 
L 286.157167 116.96694 
L 285.931491 118.788006 
L 286.14642 119.103053 
L 287.486146 118.998038 
L 288.082574 119.519536 
L 288.637808 120.15321 
L 288.983486 120.190204 
L 289.728574 120.076835 
L 290.939342 120.407395 
L 291.610996 120.869225 
L 292.257575 120.957534 
L 292.535192 121.184272 
L 292.974006 121.927735 
L 293.24625 122.113899 
L 293.416402 121.667583 
L 293.342968 120.449163 
L 293.701183 120.252258 
L 294.113131 120.286866 
L 294.31015 120.566112 
L 294.688962 121.759471 
L 294.91016 121.998143 
L 295.141209 121.981436 
L 295.327481 121.5387 
L 295.760922 120.977821 
L 296.946615 122.00769 
L 297.335279 121.669969 
L 297.428415 120.868032 
L 297.274382 116.882212 
L 297.381847 116.588645 
L 297.619165 116.648313 
L 298.453806 117.434737 
L 299.202477 117.760524 
L 299.793532 117.643575 
L 300.27175 117.139977 
L 301.095645 115.11246 
L 301.17087 114.651823 
L 301.106392 114.22818 
L 300.443693 113.207858 
L 300.997136 112.067006 
L 301.380426 111.91187 
L 301.760135 111.970344 
L 301.980437 112.278231 
L 302.073573 113.207858 
L 301.76909 114.785479 
L 301.933869 114.84634 
L 302.188202 114.278301 
L 302.374474 114.35587 
L 302.46761 114.727004 
L 302.630598 114.802186 
L 302.770302 114.67927 
L 302.893887 114.094524 
L 303.176877 114.281881 
L 304.803175 116.717528 
L 305.080792 117.401323 
L 305.181092 118.162686 
L 305.138106 119.147208 
L 305.229451 120.119796 
L 305.680803 120.340567 
L 307.05635 120.103088 
L 307.475462 120.453936 
L 307.740541 120.834618 
L 308.039651 120.994528 
L 308.931608 120.34176 
L 309.3346 120.075641 
L 309.757294 120.008813 
L 310.19969 120.272546 
L 310.3985 120.716475 
L 310.670743 123.210596 
L 310.670743 123.662879 
L 310.31611 124.625921 
L 312.606898 123.961219 
L 312.897052 123.186729 
L 313.214073 122.928963 
L 313.445122 123.08768 
L 313.94125 123.872911 
L 314.303048 124.102036 
L 314.793803 124.247626 
L 315.805762 124.407536 
L 315.863076 124.621147 
L 315.830837 125.290622 
L 316.144275 125.454112 
L 316.909065 125.615215 
L 317.652362 126.785901 
L 318.189685 127.380194 
L 318.861339 127.678534 
L 319.606427 127.769229 
L 321.8399 127.565165 
L 322.507972 127.748942 
L 322.536629 128.809838 
L 322.758723 128.776424 
L 323.561125 128.209579 
L 324.843537 127.609319 
L 325.121154 127.800256 
L 325.361158 128.139171 
L 325.712209 128.390969 
L 326.733123 128.325335 
L 327.268655 128.448251 
L 327.36 128.913661 
L 326.829841 129.62371 
L 326.007737 130.09628 
L 324.381439 130.706087 
L 322.894845 131.652421 
L 321.039289 132.239553 
L 320.62555 132.883967 
L 320.423158 134.423401 
L 319.918075 134.659686 
L 319.280451 134.363733 
L 318.965222 134.361346 
L 318.807607 135.086909 
L 318.560438 135.699102 
L 318.293568 135.9151 
L 317.605794 135.955674 
L 316.384279 135.103616 
L 315.716208 135.012921 
L 315.216497 134.761122 
L 314.066626 133.567762 
L 313.552587 133.802854 
L 313.493481 134.185922 
L 313.867816 134.82437 
L 313.866025 135.237272 
L 313.753187 135.873333 
L 313.905429 136.082171 
L 314.73334 136.826657 
L 314.840371 137.096526 
L 314.82246 137.635924 
L 314.636188 138.219477 
L 314.283346 138.711141 
L 313.87498 138.798256 
L 313.405718 138.619253 
L 312.126889 137.91159 
L 311.122095 137.87579 
L 311.12426 137.870234 
L 311.206276 137.659792 
L 311.953155 137.487948 
L 312.019285 137.250998 
L 311.860019 137.120393 
L 311.411229 137.090389 
L 310.328648 137.209895 
L 309.175194 137.857889 
L 309.015788 138.096561 
L 308.661155 139.172971 
L 308.202639 139.637188 
L 306.703508 140.414065 
L 306.606789 140.741045 
L 306.730374 141.08712 
L 307.557851 141.56685 
L 307.894574 141.910538 
L 307.781736 142.161143 
L 307.53815 142.224391 
L 306.619327 142.140856 
L 304.620485 141.949919 
L 304.083162 142.501251 
L 303.570914 143.54902 
L 303.291506 143.822299 
L 302.139843 144.445233 
L 301.788792 144.288903 
L 301.681327 143.936862 
L 301.686701 142.989335 
L 301.31953 141.997653 
L 301.013256 141.725567 
L 300.698026 142.01436 
L 300.400707 143.121797 
L 299.97264 143.164758 
L 298.761872 142.842551 
L 298.07768 142.297186 
L 297.773197 141.679026 
L 296.996765 141.433194 
L 296.452278 140.911696 
L 295.032849 140.812647 
L 294.523288 140.212387 
L 294.276119 140.288762 
L 294.005666 140.710018 
L 293.852529 141.220776 
L 293.608047 141.611004 
L 293.059978 141.667092 
L 291.046807 141.371139 
L 290.040222 141.547756 
L 289.413345 142.199331 
L 289.056025 142.16353 
L 287.520176 142.30554 
L 285.050281 143.081223 
L 283.576224 143.095544 
L 282.877704 142.583592 
L 281.876492 139.766071 
L 281.493202 139.602581 
L 280.094371 139.668215 
L 279.231071 139.276794 
L 279.417343 138.375807 
L 278.95435 137.656212 
L 278.926588 137.170514 
L 279.200623 136.723004 
L 279.715558 136.38409 
L 281.074985 136.030856 
L 282.143363 134.728901 
L 282.660984 134.530803 
L 282.882182 134.338672 
L 283.490253 133.572536 
L 285.197149 132.182272 
L 285.541036 132.027135 
L 285.63059 131.823071 
L 285.901261 131.641108 
L 286.089106 130.670286 
L 285.426407 130.281251 
L 283.841304 129.908922 
L 283.569956 129.553301 
L 283.527865 129.155913 
L 283.690853 128.86354 
L 284.036531 128.825352 
L 284.639229 129.356397 
L 284.980429 129.48528 
L 285.014459 129.058057 
L 284.871173 128.855186 
L 280.518856 124.012534 
L 279.746902 123.68794 
L 279.094949 123.862171 
L 278.615836 126.297817 
L 277.654028 127.435088 
L 276.399378 128.200032 
L 274.601137 128.922014 
L 272.962301 130.198909 
L 269.386416 131.408975 
L 269.043425 131.701348 
L 267.902509 133.010463 
L 267.43862 133.15486 
L 266.904879 132.954376 
L 266.50726 132.510446 
L 265.998594 131.728795 
L 265.357388 131.251452 
L 264.682152 130.185782 
L 264.289906 129.814647 
L 263.736463 129.759753 
L 263.24929 129.35759 
L 263.018241 129.167846 
L 262.704803 129.132046 
L 261.864788 129.47454 
L 261.618515 129.683378 
L 261.177014 130.260963 
L 260.910144 130.862417 
L 260.78835 131.554565 
L 260.778499 132.404237 
L 260.825963 133.944864 
L 260.577003 134.098807 
L 259.524745 134.188309 
L 258.904137 134.621499 
L 258.896973 135.098842 
L 259.595493 136.296975 
L 260.134607 138.009446 
L 260.774022 139.2756 
L 260.884173 139.787551 
L 260.756111 140.918856 
L 260.19819 141.016712 
L 259.531014 140.756559 
L 259.076081 140.815034 
L 259.147724 141.497635 
L 260.408642 142.655194 
L 260.408642 143.201753 
L 259.757585 143.507253 
L 258.895182 143.478612 
L 257.336945 143.001268 
L 256.193342 142.411749 
L 255.798409 142.34492 
L 252.634472 142.936827 
L 252.031774 143.290061 
L 251.626095 143.344956 
L 250.237115 143.201753 
L 248.567831 143.652842 
L 248.206034 143.911801 
L 248.653803 144.417786 
L 249.429339 144.915417 
L 250.206391 145.123645 
L 254.263456 144.313963 
L 255.071232 144.90945 
L 255.239593 145.586085 
L 255.212727 145.922612 
L 255.071232 146.205438 
L 254.677195 146.271073 
L 253.416277 146.068202 
L 253.065226 146.183958 
L 252.227002 146.805698 
L 251.832965 146.083715 
L 251.560721 145.859364 
L 251.335941 146.2842 
L 251.372658 146.491844 
L 251.739829 146.92026 
L 251.729082 147.611215 
L 251.815054 147.842727 
L 253.341052 150.000321 
L 253.399262 150.513465 
L 252.662233 150.829706 
L 252.26551 150.200805 
L 252.001326 149.201963 
L 251.648484 148.409573 
L 251.286686 148.153001 
L 251.16758 148.333198 
L 251.396837 149.264018 
L 251.784606 150.111303 
L 251.780128 150.435897 
L 251.504302 150.925174 
L 251.263402 150.994389 
L 250.987576 151.869122 
L 250.754736 151.746206 
L 250.292638 150.972909 
L 250.007857 150.752137 
L 249.418593 151.290342 
L 248.986943 151.176973 
L 248.807835 151.673411 
L 248.539174 155.951604 
L 248.308125 156.406274 
L 247.890804 156.858557 
L 247.151089 157.344254 
L 246.916458 157.690329 
L 247.10273 158.131872 
L 246.760634 158.294169 
L 245.695839 158.585348 
L 244.835226 158.668883 
L 243.98536 158.605635 
L 242.569514 158.082944 
L 239.976034 158.000602 
L 234.054733 156.419401 
L 233.241584 156.401501 
L 232.597692 156.615112 
L 230.984827 157.803698 
L 229.599429 158.028049 
L 229.256438 158.37293 
L 229.317334 159.479174 
L 229.079121 159.610444 
L 228.369855 159.58061 
L 228.210449 159.790641 
L 227.879099 161.608128 
L 227.860293 162.460186 
L 227.395509 164.046161 
L 227.239685 163.99604 
L 226.892216 164.209651 
L 226.774005 164.473383 
L 226.744452 164.802751 
L 226.872514 165.720444 
L 227.359687 166.190031 
L 229.453456 166.963924 
L 230.863034 167.018819 
L 231.622451 167.393534 
L 231.857082 167.759298 
L 231.975293 167.780779 
L 232.374703 167.753928 
L 232.533213 168.034368 
L 232.565453 168.350608 
L 232.368434 170.14184 
L 232.473039 170.728174 
L 232.772322 171.03686 
L 235.453565 171.402625 
L 237.498975 170.75284 
L 237.927042 170.940795 
L 238.193913 171.209897 
L 238.478694 171.265985 
L 239.61961 170.940795 
L 239.884689 171.275532 
L 240.7936 173.120034 
L 241.145608 173.860945 
L 241.125906 174.369913 
L 240.756944 175.066238 
L 240.198128 175.49167 
L 239.291843 175.693348 
L 239.284678 176.426668 
L 239.463786 176.84494 
L 239.361695 177.245909 
L 238.923776 177.569906 
L 238.787655 177.91777 
L 238.834223 178.340219 
L 239.10378 179.670815 
L 239.091242 181.505008 
L 239.2202 181.810508 
L 239.739612 182.833217 
L 239.834539 183.903661 
L 239.999318 184.230641 
L 240.678136 184.912646 
L 241.319342 186.142403 
L 241.615765 186.46103 
L 242.513991 186.990881 
L 243.889538 188.278516 
L 244.30865 188.980211 
L 244.385666 189.870458 
L 244.102676 191.223727 
L 243.672817 192.499428 
L 242.784443 194.032298 
L 242.44593 195.068731 
L 241.908606 195.365877 
L 241.100831 195.481633 
L 240.560821 195.674958 
L 240.253651 196.006711 
L 239.515727 198.363596 
L 239.00527 199.422703 
L 237.742561 201.285537 
L 236.807619 202.231274 
L 235.914767 203.431794 
L 235.175948 204.79103 
L 234.690566 206.211127 
L 234.6234 207.181329 
L 234.967287 209.005975 
L 235.027288 209.978563 
L 234.936839 210.809141 
L 234.738029 211.591985 
L 234.33235 212.621257 
L 234.253543 212.189858 
L 234.050256 211.881971 
L 233.743981 211.685067 
L 233.38487 211.589598 
L 232.546646 211.589598 
L 231.581256 211.142088 
L 230.961543 211.380164 
L 230.721539 211.829463 
L 230.534371 211.904645 
L 230.250486 211.636139 
L 229.923614 210.680855 
L 229.525099 210.47142 
L 229.165093 210.577629 
L 228.846281 210.833605 
L 227.932832 211.719674 
L 227.209237 212.025174 
L 226.344146 212.169571 
L 225.683239 212.626031 
L 225.296366 212.707179 
L 224.908598 212.539512 
L 224.583518 211.757862 
L 224.409783 211.360473 
L 224.060523 211.019172 
L 222.942891 210.47142 
L 222.779903 210.119976 
L 222.493331 209.117554 
L 222.280192 208.908716 
L 221.916604 208.794751 
L 220.908227 208.106182 
L 220.071794 208.087088 
L 218.479527 208.486267 
L 216.030229 208.665868 
L 215.504548 209.052516 
L 214.821252 208.989268 
L 213.675858 208.473737 
L 212.817036 208.459417 
L 212.480314 208.572786 
L 212.051351 208.220745 
L 212.088964 207.797699 
L 212.948681 206.572715 
L 212.88062 206.203967 
L 212.264489 205.578647 
L 212.028067 204.923493 
L 212.092546 204.099478 
L 212.472254 202.543934 
L 212.538524 201.625047 
L 212.400611 199.813528 
L 212.466881 198.907768 
L 213.070474 197.769303 
L 214.030491 196.448851 
L 214.667219 195.139139 
L 214.290197 194.028122 
L 213.707202 193.590159 
L 213.079429 193.269742 
L 212.416731 193.079401 
L 211.091334 193.071047 
L 210.552219 192.900397 
L 208.795173 192.033421 
L 207.480522 190.45401 
L 206.914542 190.178344 
L 205.790641 189.841817 
L 204.229717 188.666358 
L 203.085219 188.473034 
L 201.338919 187.586368 
L 200.753237 187.531473 
L 200.258899 187.742698 
L 198.973801 188.715286 
L 197.785422 188.816721 
L 196.615848 188.407399 
L 189.704082 183.506272 
L 185.76013 179.75077 
L 184.59593 178.98702 
L 182.045436 178.047846 
L 179.819127 176.705317 
L 176.169808 173.499954 
L 174.662616 171.467663 
L 174.250668 171.201544 
L 173.727674 171.265985 
L 172.386157 171.9641 
L 171.938388 172.064342 
L 171.42614 171.9641 
L 170.906728 171.681871 
L 163.778241 166.388725 
L 162.725087 165.265774 
L 160.862367 162.573555 
L 159.762646 161.492372 
L 144.436399 150.238993 
L 143.248019 149.095754 
L 142.004116 147.490686 
L 141.51157 145.576538 
L 141.463211 145.046686 
L 141.679931 144.128993 
L 141.776649 143.711317 
L 141.708588 143.219653 
L 141.176639 142.040614 
L 140.886484 140.079924 
L 140.333041 138.739782 
L 140.279309 137.764807 
L 140.111843 137.557163 
L 138.678981 136.718231 
L 137.855982 136.467626 
L 137.368809 135.975962 
L 137.127013 135.234885 
L 136.24849 133.872069 
L 135.89117 132.453165 
L 135.694151 132.130958 
L 134.932944 131.192977 
L 133.857402 127.251311 
L 133.98815 127.078274 
L 133.90397 126.738167 
L 133.798296 124.637854 
L 133.651428 124.254786 
L 132.04125 121.724864 
L 128.16715 118.851255 
L 126.659063 118.1961 
L 124.334245 117.675796 
L 123.945581 117.867926 
L 123.71095 118.353624 
L 123.542589 119.166301 
L 123.118103 119.41094 
L 122.788545 120.135309 
L 122.301372 120.674708 
L 121.703153 120.979014 
L 121.042245 121.001688 
L 120.338352 120.712895 
L 118.554439 119.436001 
L 118.246374 119.426454 
L 117.221878 119.603071 
L 117.005157 119.132887 
L 116.446341 119.927665 
L 115.618864 119.063672 
L 114.406304 118.768913 
L 110.915495 118.981331 
L 108.823517 119.686606 
L 107.782901 119.71286 
L 107.179308 119.53863 
L 106.681389 119.178235 
L 105.741073 118.229514 
L 104.695084 117.456217 
L 101.130841 115.616057 
L 100.643668 115.131553 
L 100.523666 114.584995 
L 100.876508 112.337899 
L 101.397711 111.753153 
L 102.114142 111.393952 
L 102.352355 111.102772 
L 102.194741 110.678533 
L 101.041287 109.04363 
L 100.507546 108.016745 
L 100.349931 107.21063 
L 100.795909 106.57457 
L 101.272336 106.245799 
L 101.815032 106.199258 
L 102.466984 106.404516 
L 103.403718 106.934368 
L 103.675961 106.897374 
L 103.876562 106.597244 
L 103.844323 106.26907 
L 103.464614 105.683727 
L 103.221028 105.476679 
L 102.141008 104.72367 
L 101.546371 103.817313 
L 101.035914 103.380544 
L 99.214388 102.694959 
L 98.315268 102.727179 
L 98.068099 102.616794 
L 97.876454 102.289216 
L 97.90332 101.984313 
L 98.098547 101.756978 
L 99.449019 101.273071 
L 99.395287 100.361344 
L 99.054982 99.22646 
L 99.214388 98.156016 
L 100.138584 97.599314 
L 100.19769 97.212069 
L 99.986343 96.910746 
L 99.585141 96.673864 
L 98.816769 96.374927 
L 98.209594 95.830756 
L 97.727794 95.086099 
L 97.181516 94.493 
L 96.395233 94.405884 
L 95.621488 94.498966 
L 94.116983 94.364117 
L 90.45423 94.922012 
L 89.558692 94.895758 
L 89.125251 94.731075 
L 88.433895 93.994772 
L 88.027321 93.855746 
L 87.14432 93.760277 
L 86.6464 93.492368 
L 86.417142 93.081255 
L 86.211168 91.31747 
L 85.801012 90.486296 
L 84.699499 89.353797 
L 84.282178 89.094242 
L 83.839782 89.140783 
L 82.836779 89.516094 
L 82.328113 89.545332 
L 81.556159 89.408692 
L 80.338227 88.866907 
L 79.177609 87.806607 
L 75.448586 83.486049 
L 75.025892 83.247378 
L 74.705289 83.771262 
L 74.468867 85.731952 
L 74.101696 86.403813 
L 73.385265 86.612651 
L 72.4951 86.557756 
L 71.606726 86.353692 
L 69.736841 85.609036 
L 69.314147 85.595312 
L 68.989962 85.696151 
L 67.102167 86.765401 
L 66.94097 87.102525 
L 67.039479 87.547051 
L 67.363664 87.834054 
L 69.534449 88.83946 
L 70.145207 89.309643 
L 70.678948 90.116951 
L 71.141046 91.193958 
L 72.427039 93.257873 
L 73.401385 94.458392 
L 73.340488 94.646346 
L 73.125559 94.775229 
L 72.011509 94.942299 
L 71.728519 94.870698 
L 71.524336 94.559828 
L 71.622845 93.805625 
L 71.681951 93.383772 
L 71.504634 92.562144 
L 71.058656 91.971431 
L 70.471183 91.545402 
L 68.370249 90.67604 
L 68.056811 90.727951 
L 67.146944 91.020921 
L 66.869327 90.860414 
L 66.222748 90.034012 
L 65.89319 89.91945 
L 65.115862 89.978521 
L 64.798842 90.123514 
L 64.019723 91.124743 
L 63.254933 91.578219 
L 63.353442 92.189816 
L 63.724195 92.97803 
L 63.754644 93.337828 
L 63.604193 93.876033 
L 62.898509 95.477521 
L 62.649549 95.753187 
L 61.986851 95.965605 
L 61.845355 96.267525 
L 61.970731 96.630903 
L 62.246557 97.097506 
L 61.865057 97.371979 
L 61.531917 97.444774 
L 60.013084 97.469238 
L 59.054857 97.936438 
L 58.248873 98.096348 
L 55.796888 97.672706 
L 54.132977 97.739534 
L 52.503097 98.529538 
L 51.109639 99.888774 
L 50.158577 101.66867 
L 49.510207 102.62455 
L 48.797359 103.162755 
L 47.133448 103.940229 
L 46.644484 104.611494 
L 46.639111 105.50174 
L 47.022401 107.325193 
L 46.823592 109.665371 
L 47.133448 110.490579 
L 47.51853 111.124253 
L 47.717339 111.729286 
L 48.080928 114.490719 
L 48.793776 115.489561 
L 49.304233 115.798641 
L 50.305446 116.113688 
L 50.267833 116.271212 
L 50.072606 116.503917 
L 49.703644 116.768842 
L 48.895868 117.174585 
L 48.553772 117.569587 
L 48.020031 118.546948 
L 47.6851 118.742659 
L 43.929211 117.952655 
L 29.804777 117.181745 
L 29.802986 32.326733 
L 29.804777 32.326733 
L 60.127712 23.211854 
L 72.643759 19.714118 
L 74.047964 19.337016 
L 74.454538 19.372817 
L 74.927383 19.568528 
L 117.456509 46.491909 
L 117.904278 46.972833 
L 118.217717 47.585026 
L 118.328763 48.145905 
L 118.441601 49.341651 
L 118.609962 49.881049 
L 119.629085 51.450317 
L 124.731864 56.829384 
L 133.909343 67.032607 
L 134.260394 67.17939 
M 283.629957 126.026924 
L 283.973844 126.108073 
L 283.945186 125.713071 
L 283.481297 124.76077 
L 283.079201 124.394409 
L 282.601878 124.186764 
L 282.32247 124.259559 
L 282.542773 124.754803 
L 282.831136 125.053143 
L 283.629957 126.026924 
L 283.629957 126.026924 
" clip-path="url(#pdcd3b62d9d)" style="fill: none; stroke: #000000; stroke-width: 2"/>
   </g>
  </g>
 </g>
 <defs>
  <clipPath id="pdcd3b62d9d">
   <rect x="0" y="0" width="357.12" height="232.044196"/>
  </clipPath>
 </defs>
</svg>
