<?xml version="1.0" encoding="utf-8" standalone="no"?>
<!DOCTYPE svg PUBLIC "-//W3C//DTD SVG 1.1//EN"
  "http://www.w3.org/Graphics/SVG/1.1/DTD/svg11.dtd">
<svg xmlns:xlink="http://www.w3.org/1999/xlink" width="109.476744pt" height="266.112pt" viewBox="0 0 109.476744 266.112" xmlns="http://www.w3.org/2000/svg" version="1.1">
 <metadata>
  <rdf:RDF xmlns:dc="http://purl.org/dc/elements/1.1/" xmlns:cc="http://creativecommons.org/ns#" xmlns:rdf="http://www.w3.org/1999/02/22-rdf-syntax-ns#">
   <cc:Work>
    <dc:type rdf:resource="http://purl.org/dc/dcmitype/StillImage"/>
    <dc:date>2024-02-02T21:58:06.276490</dc:date>
    <dc:format>image/svg+xml</dc:format>
    <dc:creator>
     <cc:Agent>
      <dc:title>Matplotlib v3.8.2, https://matplotlib.org/</dc:title>
     </cc:Agent>
    </dc:creator>
   </cc:Work>
  </rdf:RDF>
 </metadata>
 <defs>
  <style type="text/css">*{stroke-linejoin: round; stroke-linecap: butt}</style>
 </defs>
 <g id="figure_1">
  <g id="patch_1">
   <path d="M -0 266.112 
L 109.476744 266.112 
L 109.476744 0 
L -0 0 
L -0 266.112 
z
" style="fill: none"/>
  </g>
  <g id="axes_1">
   <g id="PatchCollection_1">
    <path d="M 16.4834 243.187462 
L 13.632098 243.936 
L 10.184012 243.675146 
L 9.123062 242.17807 
L 10.250321 240.749044 
L 10.52661 239.580871 
L 9.951929 238.560138 
L 10.283476 237.822941 
L 12.250653 237.029038 
L 14.129418 237.596112 
L 17.40068 239.660261 
L 18.141134 242.064656 
L 16.4834 243.187462 
" clip-path="url(#p8a1475249b)" style="fill: none; stroke: #000000; stroke-width: 2"/>
    <path d="M 43.327637 213.71095 
L 40.553696 213.858389 
L 38.111301 212.905705 
L 38.774395 212.055094 
L 41.868831 211.374605 
L 43.305534 209.537285 
L 42.797162 207.064842 
L 42.929781 204.342886 
L 45.383227 202.687029 
L 47.261992 202.505566 
L 48.101911 203.548982 
L 48.632386 206.100816 
L 47.184631 208.040209 
L 45.604259 209.639358 
L 44.830649 212.077777 
L 43.327637 213.71095 
" clip-path="url(#p8a1475249b)" style="fill: none; stroke: #000000; stroke-width: 2"/>
    <path d="M 83.057992 168.33368 
L 82.184919 168.481119 
L 81.930733 165.033309 
L 84.262612 160.780253 
L 86.495027 161.256595 
L 84.152096 166.768556 
L 83.057992 168.33368 
" clip-path="url(#p8a1475249b)" style="fill: none; stroke: #000000; stroke-width: 2"/>
    <path d="M 72.514805 130.214959 
L 68.171542 133.254476 
L 70.193977 133.254476 
L 68.171542 135.329967 
L 66.779046 133.2885 
L 64.623992 132.006913 
L 61.872153 131.45118 
L 58.722459 131.519229 
L 58.722459 129.443738 
L 62.76733 130.713984 
L 68.934099 129.477762 
L 68.945151 127.232149 
L 67.143747 125.179341 
L 66.31488 123.750314 
L 68.569398 121.550066 
L 76.128664 116.650546 
L 79.28941 114.042005 
L 79.676215 115.119446 
L 79.797782 116.128838 
L 80.173535 117.092864 
L 81.322897 118.034207 
L 77.432749 121.822262 
L 72.514805 130.214959 
" clip-path="url(#p8a1475249b)" style="fill: none; stroke: #000000; stroke-width: 2"/>
    <path d="M 88.561668 87.593669 
L 83.710034 91.370383 
L 76.924377 88.115377 
L 60.313883 76.320236 
L 58.136726 68.131686 
L 58.866129 58.650207 
L 62.601556 51.25556 
L 61.894256 50.200802 
L 60.579121 47.444822 
L 67.906305 46.253967 
L 71.044947 39.959444 
L 72.912661 31.929675 
L 76.427057 25.487713 
L 79.930401 23.219416 
L 83.190611 22.266732 
L 86.108222 22.176 
L 92.938086 23.287465 
L 94.894212 24.036003 
L 95.977265 25.907348 
L 97.679205 29.97894 
L 100.353682 42.386521 
L 100.221063 59.466793 
L 96.529843 76.206821 
L 88.561668 87.593669 
" clip-path="url(#p8a1475249b)" style="fill: none; stroke: #000000; stroke-width: 2"/>
   </g>
  </g>
 </g>
 <defs>
  <clipPath id="p8a1475249b">
   <rect x="0" y="-0" width="109.476744" height="266.112"/>
  </clipPath>
 </defs>
</svg>
