<?xml version="1.0" encoding="utf-8" standalone="no"?>
<!DOCTYPE svg PUBLIC "-//W3C//DTD SVG 1.1//EN"
  "http://www.w3.org/Graphics/SVG/1.1/DTD/svg11.dtd">
<svg xmlns:xlink="http://www.w3.org/1999/xlink" width="237.543826pt" height="266.112pt" viewBox="0 0 237.543826 266.112" xmlns="http://www.w3.org/2000/svg" version="1.1">
 <metadata>
  <rdf:RDF xmlns:dc="http://purl.org/dc/elements/1.1/" xmlns:cc="http://creativecommons.org/ns#" xmlns:rdf="http://www.w3.org/1999/02/22-rdf-syntax-ns#">
   <cc:Work>
    <dc:type rdf:resource="http://purl.org/dc/dcmitype/StillImage"/>
    <dc:date>2024-02-02T21:58:06.303495</dc:date>
    <dc:format>image/svg+xml</dc:format>
    <dc:creator>
     <cc:Agent>
      <dc:title>Matplotlib v3.8.2, https://matplotlib.org/</dc:title>
     </cc:Agent>
    </dc:creator>
   </cc:Work>
  </rdf:RDF>
 </metadata>
 <defs>
  <style type="text/css">*{stroke-linejoin: round; stroke-linecap: butt}</style>
 </defs>
 <g id="figure_1">
  <g id="patch_1">
   <path d="M 0 266.112 
L 237.543826 266.112 
L 237.543826 0 
L 0 0 
L 0 266.112 
z
" style="fill: none"/>
  </g>
  <g id="axes_1">
   <g id="PatchCollection_1">
    <path d="M 194.787216 127.09793 
L 195.084789 127.234187 
L 195.45681 127.20947 
L 195.890588 127.234441 
L 196.02677 127.506905 
L 196.039031 127.754532 
L 196.063603 128.064163 
L 196.236961 128.250066 
L 196.44758 128.336874 
L 196.682929 128.485677 
L 196.695158 128.696379 
L 196.633003 128.931868 
L 196.447017 129.018585 
L 196.199202 128.919331 
L 195.852372 128.646538 
L 195.728671 128.361466 
L 195.542938 128.13838 
L 195.146459 128.138089 
L 194.638009 128.162961 
L 194.154139 128.076486 
L 193.856199 127.828945 
L 193.64528 127.680329 
L 193.335006 127.531744 
L 193.06185 127.507066 
L 192.602238 127.321409 
L 192.664485 127.172642 
L 192.962682 127.209682 
L 193.533798 127.29625 
L 194.080038 127.271325 
L 194.415145 127.073123 
L 194.787216 127.09793 
" clip-path="url(#p1409ea97c5)" style="fill: none; stroke: #000000; stroke-width: 2"/>
    <path d="M 200.586728 127.154693 
L 200.395084 127.496362 
L 200.074094 127.649814 
L 199.739458 127.46759 
L 199.719878 127.667197 
L 199.83973 127.863207 
L 199.87177 128.011863 
L 198.635277 128.180899 
L 197.083135 128.048427 
L 196.535495 128.070606 
L 196.695099 127.742124 
L 196.889711 127.441216 
L 197.159081 127.23022 
L 197.539996 127.165483 
L 197.849713 127.258992 
L 198.317254 127.639024 
L 198.635277 127.778689 
L 198.463212 127.538322 
L 198.436513 127.522737 
L 198.467959 127.404651 
L 198.536192 127.321931 
L 198.603831 127.264387 
L 198.635277 127.215834 
L 199.042299 126.772264 
L 199.213177 126.711123 
L 200.160126 126.649982 
L 200.237852 126.66317 
L 200.317951 126.69314 
L 200.365417 126.72491 
L 200.423563 126.753082 
L 200.536295 126.772264 
L 200.586728 127.154693 
" clip-path="url(#p1409ea97c5)" style="fill: none; stroke: #000000; stroke-width: 2"/>
    <path d="M 205.162229 125.439385 
L 205.347925 125.538809 
L 205.794283 125.527448 
L 206.141326 125.577799 
L 206.23999 125.763719 
L 206.189771 126.011147 
L 206.052871 126.270885 
L 205.84205 126.319958 
L 205.569389 126.307009 
L 205.234925 126.194798 
L 204.937448 126.181792 
L 204.652154 126.25555 
L 204.329798 126.267301 
L 204.019853 126.25436 
L 203.808855 126.353066 
L 203.536047 126.3526 
L 203.275699 126.327372 
L 203.251213 126.191061 
L 203.42526 125.980809 
L 203.587047 125.708636 
L 203.786131 125.387043 
L 203.972727 125.077869 
L 204.195952 125.053546 
L 204.456404 125.016928 
L 204.642773 124.831602 
L 204.891059 124.683559 
L 205.089864 124.485907 
L 205.201615 124.411872 
L 205.263503 124.461522 
L 205.188763 124.622291 
L 205.039384 124.894344 
L 205.038748 125.191484 
L 205.162229 125.439385 
" clip-path="url(#p1409ea97c5)" style="fill: none; stroke: #000000; stroke-width: 2"/>
    <path d="M 204.442954 122.708943 
L 204.304233 122.884289 
L 204.391947 123.009901 
L 204.592995 123.085578 
L 204.655259 123.349142 
L 204.692601 123.512323 
L 204.880928 123.700912 
L 205.055989 124.027423 
L 204.867139 124.190083 
L 204.50219 124.415051 
L 204.150183 124.45186 
L 203.835625 124.727209 
L 203.633925 125.1157 
L 203.407263 125.428895 
L 203.293762 125.742532 
L 202.991798 126.055794 
L 202.715161 126.256264 
L 202.162391 126.29293 
L 201.63492 126.229294 
L 201.245394 126.304057 
L 200.931268 126.378831 
L 200.429093 126.227458 
L 199.687567 126.239656 
L 199.10916 126.314764 
L 198.844659 126.465606 
L 198.579965 126.666799 
L 198.403465 126.780069 
L 198.252174 126.868199 
L 198.000367 126.880897 
L 197.89997 126.755168 
L 197.938383 126.453449 
L 197.976556 126.252355 
L 198.002481 125.875389 
L 198.041291 125.347781 
L 198.218118 125.008749 
L 198.634299 124.50673 
L 199.08774 124.168165 
L 199.603551 123.892649 
L 200.01845 123.742597 
L 200.52131 123.555089 
L 200.860554 123.505389 
L 201.187226 123.455693 
L 201.865655 123.368937 
L 202.179826 123.269136 
L 202.343548 123.018634 
L 202.494637 122.83079 
L 202.934396 122.831543 
L 203.713558 122.832962 
L 204.028203 122.645418 
L 204.380532 122.50811 
L 204.442954 122.708943 
" clip-path="url(#p1409ea97c5)" style="fill: none; stroke: #000000; stroke-width: 2"/>
    <path d="M 199.490261 123.452081 
L 199.141978 123.5354 
L 199.963735 122.934782 
L 200.234292 122.682426 
L 200.728533 121.948138 
L 200.895851 121.459611 
L 201.042403 121.315151 
L 201.223961 121.197065 
L 201.387125 121.057401 
L 201.444678 120.906347 
L 201.426878 120.774475 
L 201.451205 120.643202 
L 201.640476 120.499941 
L 201.971552 120.427411 
L 202.293728 120.507134 
L 202.587425 120.68636 
L 202.834842 120.911142 
L 202.529872 120.997459 
L 202.436127 121.002853 
L 202.653284 121.351715 
L 202.446807 121.785096 
L 202.057584 122.180712 
L 201.446458 122.629078 
L 199.490261 123.452081 
" clip-path="url(#p1409ea97c5)" style="fill: none; stroke: #000000; stroke-width: 2"/>
    <path d="M 202.587425 119.893328 
L 202.535806 120.006619 
L 202.535806 119.896925 
L 202.423667 120.157073 
L 202.291355 120.276357 
L 202.092591 120.309325 
L 201.779908 120.308126 
L 201.54139 120.37646 
L 201.3094 120.538903 
L 200.082994 121.675402 
L 200.008235 121.804876 
L 199.917456 122.099791 
L 199.839137 122.219075 
L 199.353202 122.493609 
L 199.232164 122.529574 
L 199.069592 122.383915 
L 199.123585 122.096794 
L 199.257083 121.75992 
L 199.333029 121.465006 
L 199.467121 121.231232 
L 199.785144 121.106553 
L 200.15538 121.021435 
L 200.444923 120.911142 
L 200.709547 120.640205 
L 201.25244 119.945478 
L 201.486804 119.805214 
L 201.843394 119.774643 
L 202.635484 119.503106 
L 202.635484 119.641572 
L 202.620058 119.771047 
L 202.587425 119.893328 
" clip-path="url(#p1409ea97c5)" style="fill: none; stroke: #000000; stroke-width: 2"/>
    <path d="M 202.483593 119.064332 
L 202.327548 119.29271 
L 202.327548 119.201599 
L 202.086064 119.467141 
L 201.357459 119.709906 
L 201.042403 119.896925 
L 201.29694 119.387419 
L 201.319486 118.906684 
L 201.400179 118.494284 
L 201.829747 118.186782 
L 202.342381 118.050114 
L 202.616498 118.060904 
L 202.735163 118.232937 
L 202.701937 118.517661 
L 202.612938 118.799988 
L 202.483593 119.064332 
" clip-path="url(#p1409ea97c5)" style="fill: none; stroke: #000000; stroke-width: 2"/>
    <path d="M 204.436824 118.077088 
L 204.280185 118.14722 
L 204.082014 118.159808 
L 203.838751 118.132235 
L 203.431729 118.388187 
L 203.318997 118.603378 
L 203.215758 118.882707 
L 203.047253 119.11768 
L 202.735163 119.201599 
L 202.856202 118.826962 
L 202.971901 118.154413 
L 203.133879 117.884674 
L 203.352223 117.71384 
L 203.678552 117.549599 
L 204.007849 117.525023 
L 204.237466 117.774981 
L 204.283745 117.841516 
L 204.362065 117.990772 
L 204.436824 118.077088 
" clip-path="url(#p1409ea97c5)" style="fill: none; stroke: #000000; stroke-width: 2"/>
    <path d="M 181.229451 108.217241 
L 181.146385 108.483383 
L 180.958894 108.461204 
L 180.802256 108.069184 
L 180.779709 107.699942 
L 180.810562 107.458975 
L 180.889475 107.304325 
L 181.00636 107.313916 
L 181.068066 107.358273 
L 181.190291 107.512923 
L 181.28285 107.872574 
L 181.229451 108.217241 
" clip-path="url(#p1409ea97c5)" style="fill: none; stroke: #000000; stroke-width: 2"/>
    <path d="M 180.121117 106.510694 
L 179.933626 106.592215 
L 179.764528 106.443559 
L 179.661882 106.182212 
L 179.54381 105.69908 
L 179.536097 105.501871 
L 179.671969 105.462909 
L 179.835727 105.670907 
L 180.015505 106.095296 
L 180.098571 106.131261 
L 180.193503 106.285912 
L 180.121117 106.510694 
" clip-path="url(#p1409ea97c5)" style="fill: none; stroke: #000000; stroke-width: 2"/>
    <path d="M 181.691059 106.364436 
L 181.551034 106.427974 
L 181.542727 106.237359 
L 181.720725 105.828555 
L 181.994842 105.526447 
L 182.260059 105.42095 
L 182.384658 105.429342 
L 182.459417 105.536038 
L 182.533582 105.773408 
L 182.464757 105.983804 
L 182.321172 106.134858 
L 182.13546 106.272125 
L 181.902283 106.336263 
L 181.691059 106.364436 
" clip-path="url(#p1409ea97c5)" style="fill: none; stroke: #000000; stroke-width: 2"/>
    <path d="M 176.275175 101.621231 
L 176.190922 101.621231 
L 176.187362 101.450396 
L 176.133369 101.310132 
L 175.894259 101.094341 
L 175.793393 100.964867 
L 175.538856 100.707716 
L 175.090895 100.370243 
L 174.673193 100.124481 
L 174.412129 99.851745 
L 174.33203 99.5892 
L 174.353983 99.321259 
L 174.374156 99.225352 
L 174.432302 99.040731 
L 174.506468 98.926841 
L 174.566988 98.931037 
L 175.001303 99.407576 
L 175.360858 99.885912 
L 176.197449 100.791035 
L 176.297721 100.882147 
L 176.427066 101.106929 
L 176.403926 101.387457 
L 176.275175 101.621231 
" clip-path="url(#p1409ea97c5)" style="fill: none; stroke: #000000; stroke-width: 2"/>
    <path d="M 158.057678 95.352504 
L 157.673202 95.379478 
L 157.363486 95.226027 
L 157.372979 94.962282 
L 156.98435 94.928115 
L 156.784992 94.867574 
L 156.667514 94.760877 
L 156.655054 94.573859 
L 156.749393 94.413814 
L 156.904251 94.30412 
L 157.075129 94.266956 
L 157.365266 94.403624 
L 157.778221 94.537894 
L 158.13837 94.7375 
L 158.269495 95.071976 
L 158.057678 95.352504 
" clip-path="url(#p1409ea97c5)" style="fill: none; stroke: #000000; stroke-width: 2"/>
    <path d="M 153.958385 93.988825 
L 154.222415 94.008007 
L 154.274628 93.991223 
L 154.40694 94.03618 
L 154.460339 94.226795 
L 154.184442 94.414413 
L 153.790473 94.446182 
L 153.51161 94.307717 
L 153.550769 94.093124 
L 153.76674 94.000814 
L 153.958385 93.988825 
" clip-path="url(#p1409ea97c5)" style="fill: none; stroke: #000000; stroke-width: 2"/>
    <path d="M 138.583515 92.124632 
L 138.832712 92.137219 
L 138.946038 92.130026 
L 139.070043 92.13662 
L 139.115136 92.194764 
L 138.991724 92.346417 
L 139.206508 92.662311 
L 139.163195 92.865514 
L 138.931798 93.010573 
L 138.584702 93.151437 
L 138.641661 93.005778 
L 138.683194 92.950631 
L 138.378224 93.056129 
L 138.113007 93.083702 
L 137.534514 93.060924 
L 137.243784 92.989594 
L 136.974414 92.853525 
L 136.724623 92.768408 
L 136.493226 92.849329 
L 136.147316 92.565205 
L 136.290901 92.216343 
L 136.658764 91.956794 
L 136.98272 91.935814 
L 137.341089 91.786559 
L 137.685812 91.803343 
L 138.433997 92.097058 
L 138.583515 92.124632 
" clip-path="url(#p1409ea97c5)" style="fill: none; stroke: #000000; stroke-width: 2"/>
    <path d="M 159.745098 91.440095 
L 159.829351 91.842904 
L 159.364183 91.743401 
L 159.371302 91.840507 
L 159.357063 92.040113 
L 159.364183 92.137219 
L 159.150585 91.980771 
L 159.023613 91.931619 
L 158.966654 91.990362 
L 158.920968 92.082672 
L 158.604131 92.378785 
L 158.219656 93.151437 
L 157.380099 93.012971 
L 157.075129 93.060924 
L 156.111567 93.394202 
L 155.86237 93.554247 
L 155.903902 93.119668 
L 155.651145 93.063322 
L 155.331936 93.063322 
L 155.036459 92.50826 
L 154.723183 92.287674 
L 154.3838 92.10545 
L 154.169016 91.935814 
L 153.77386 92.275685 
L 153.46177 92.350013 
L 152.394969 92.231328 
L 152.320804 92.197761 
L 152.262064 92.161796 
L 152.178405 92.137219 
L 151.80461 92.149807 
L 151.671111 92.137219 
L 151.060578 91.956794 
L 150.775781 91.935814 
L 151.134744 91.164362 
L 151.183397 90.979741 
L 151.216623 90.668043 
L 151.329355 90.536171 
L 151.541173 90.510995 
L 151.870469 90.518787 
L 152.028887 90.488217 
L 152.143399 90.432471 
L 152.327924 90.271227 
L 152.477442 90.220277 
L 152.775885 90.322777 
L 153.168667 90.158536 
L 153.52407 90.108185 
L 153.841499 90.165729 
L 153.979745 90.37193 
L 153.972031 90.55775 
L 153.987458 90.77414 
L 154.084763 90.954565 
L 154.581971 91.109215 
L 155.118931 91.453881 
L 155.423308 91.533005 
L 156.017821 91.593546 
L 156.267018 91.515622 
L 156.477056 91.231497 
L 156.503755 91.078046 
L 156.477056 90.628481 
L 156.567835 90.49541 
L 156.777872 90.326374 
L 156.866871 90.225671 
L 156.926797 90.063828 
L 156.920271 89.950538 
L 156.93985 89.846838 
L 157.075129 89.713767 
L 157.198541 89.673007 
L 157.534364 89.653825 
L 157.672015 89.613065 
L 157.885613 89.429043 
L 158.248135 88.981277 
L 158.468853 88.817635 
L 158.520472 89.081979 
L 158.69491 89.223442 
L 158.878841 89.322946 
L 158.966654 89.462011 
L 159.01412 89.764118 
L 159.226531 90.310789 
L 159.273997 90.572735 
L 159.745098 91.440095 
" clip-path="url(#p1409ea97c5)" style="fill: none; stroke: #000000; stroke-width: 2"/>
    <path d="M 115.781978 80.3904 
L 115.655006 80.423368 
L 115.499554 80.463529 
L 115.160171 80.45214 
L 115.108552 80.388002 
L 115.421235 80.42157 
L 115.639579 80.392798 
L 115.713745 80.374815 
L 115.765364 80.364625 
L 116.633994 80.001976 
L 116.840472 79.920455 
L 116.947271 79.913262 
L 116.954391 79.93604 
L 116.266132 80.220165 
L 116.197306 80.282505 
L 115.781978 80.3904 
" clip-path="url(#p1409ea97c5)" style="fill: none; stroke: #000000; stroke-width: 2"/>
    <path d="M 118.700551 79.920455 
L 118.926608 79.928847 
L 118.998994 79.920455 
L 118.726064 80.154229 
L 118.211056 80.239346 
L 117.662823 80.164419 
L 117.297333 79.920455 
L 117.739955 80.024754 
L 118.079338 79.963614 
L 118.354641 79.731039 
L 118.600872 79.31744 
L 118.729624 79.415744 
L 118.800823 79.572792 
L 118.79667 79.752618 
L 118.700551 79.920455 
" clip-path="url(#p1409ea97c5)" style="fill: none; stroke: #000000; stroke-width: 2"/>
    <path d="M 125.987787 79.291065 
L 126.069072 79.387572 
L 126.094586 79.674693 
L 125.907688 79.96721 
L 125.482866 79.939637 
L 125.024818 79.714255 
L 124.736461 79.410949 
L 124.951839 79.330027 
L 125.208156 79.30665 
L 125.642471 79.31744 
L 125.987787 79.291065 
" clip-path="url(#p1409ea97c5)" style="fill: none; stroke: #000000; stroke-width: 2"/>
    <path d="M 115.688825 78.592742 
L 116.876072 78.641295 
L 117.128829 78.631704 
L 117.191128 78.671266 
L 116.822672 78.709628 
L 116.771053 78.701237 
L 116.578222 78.752787 
L 116.326651 78.701237 
L 116.190186 78.701237 
L 116.092881 78.664672 
L 115.644326 78.624511 
L 115.688825 78.592742 
" clip-path="url(#p1409ea97c5)" style="fill: none; stroke: #000000; stroke-width: 2"/>
    <path d="M 148.671846 79.322235 
L 148.525887 79.427133 
L 147.902894 79.406154 
L 147.556985 79.34801 
L 147.272782 79.225728 
L 147.314908 79.107643 
L 147.336861 79.071678 
L 147.326774 79.035113 
L 147.272782 78.915829 
L 147.464426 78.767173 
L 147.708877 78.35717 
L 147.879755 78.211511 
L 148.062499 78.309216 
L 148.525887 78.668269 
L 148.614293 78.827115 
L 148.681932 79.083666 
L 148.671846 79.322235 
" clip-path="url(#p1409ea97c5)" style="fill: none; stroke: #000000; stroke-width: 2"/>
    <path d="M 103.69117 77.019266 
L 103.565385 77.039646 
L 103.278808 76.990494 
L 103.165483 76.941342 
L 103.147683 76.877803 
L 103.189809 76.826853 
L 103.260415 76.846633 
L 103.325681 76.908973 
L 103.39332 76.947336 
L 103.525039 76.961722 
L 103.69117 77.019266 
" clip-path="url(#p1409ea97c5)" style="fill: none; stroke: #000000; stroke-width: 2"/>
    <path d="M 103.08657 76.310753 
L 103.066991 76.356308 
L 103.050377 76.345519 
L 103.08657 76.310753 
" clip-path="url(#p1409ea97c5)" style="fill: none; stroke: #000000; stroke-width: 2"/>
    <path d="M 103.12573 76.315548 
L 103.121577 76.328735 
L 103.10793 76.315548 
L 103.11327 76.283179 
L 103.12573 76.315548 
" clip-path="url(#p1409ea97c5)" style="fill: none; stroke: #000000; stroke-width: 2"/>
    <path d="M 103.15065 76.012242 
L 103.129883 76.070985 
L 103.11683 76.042812 
L 103.11327 75.985268 
L 103.15065 76.012242 
" clip-path="url(#p1409ea97c5)" style="fill: none; stroke: #000000; stroke-width: 2"/>
    <path d="M 103.052751 75.78686 
L 103.058091 75.814433 
L 103.008251 75.790457 
L 103.052751 75.78686 
" clip-path="url(#p1409ea97c5)" style="fill: none; stroke: #000000; stroke-width: 2"/>
    <path d="M 102.969685 75.730515 
L 102.966125 75.759287 
L 102.944172 75.708936 
L 102.969685 75.730515 
" clip-path="url(#p1409ea97c5)" style="fill: none; stroke: #000000; stroke-width: 2"/>
    <path d="M 71.915569 77.720587 
L 72.034828 79.618348 
L 72.930751 82.142503 
L 73.61367 83.498988 
L 74.116217 84.124183 
L 74.73209 84.565955 
L 75.241164 84.635487 
L 76.533429 83.962339 
L 78.332395 84.17873 
L 79.339864 83.699794 
L 79.882164 83.560129 
L 82.317176 84.372942 
L 82.922962 84.775751 
L 83.534682 84.883047 
L 86.094293 84.865664 
L 86.319757 85.038297 
L 87.088115 85.767191 
L 87.903938 86.127442 
L 88.33944 86.197574 
L 88.503198 86.178392 
L 88.923273 86.440339 
L 89.075165 86.710077 
L 89.435908 86.987009 
L 90.853958 87.783637 
L 91.356505 88.408232 
L 92.317694 88.817635 
L 92.525952 88.506537 
L 92.715816 88.909347 
L 92.604271 89.188077 
L 92.73955 89.567509 
L 93.307956 90.398304 
L 94.346871 92.554415 
L 94.218119 92.740835 
L 93.520961 92.346417 
L 93.018413 92.558012 
L 92.915174 92.648524 
L 93.399329 92.7768 
L 94.576488 92.883496 
L 94.924178 93.151437 
L 94.76398 93.431965 
L 94.525462 93.547053 
L 93.865683 93.554247 
L 93.644966 93.677127 
L 93.573767 94.302322 
L 93.764818 95.210442 
L 94.415104 96.845058 
L 94.873152 97.666862 
L 95.350779 98.273474 
L 95.911473 98.767396 
L 96.517853 99.002968 
L 98.570762 99.047924 
L 99.263768 99.316464 
L 100.254623 99.169007 
L 100.369728 99.526261 
L 100.480087 99.421962 
L 100.617739 99.204372 
L 101.06392 99.004766 
L 101.650127 98.881285 
L 103.583185 98.733828 
L 104.82027 98.405946 
L 110.509085 97.997742 
L 111.340335 97.562563 
L 112.808225 97.18373 
L 114.652877 97.208906 
L 119.673013 96.867237 
L 121.496898 96.936769 
L 121.66659 97.042267 
L 122.700165 97.18373 
L 123.547435 96.580714 
L 123.898684 96.633463 
L 124.791047 97.092618 
L 125.753423 97.320398 
L 126.047713 97.578747 
L 126.891423 97.695634 
L 126.785218 97.903033 
L 126.076786 98.221924 
L 125.795549 98.189556 
L 125.845388 98.852513 
L 126.293943 99.314066 
L 127.993824 100.607014 
L 128.257261 101.008025 
L 129.289649 101.627825 
L 128.880253 101.596655 
L 128.479758 101.51873 
L 128.384233 101.627825 
L 128.692762 102.030634 
L 129.072491 101.945517 
L 129.446287 102.167302 
L 130.0853 102.734353 
L 130.850691 102.924968 
L 131.687281 102.944749 
L 131.254746 102.663621 
L 129.79635 102.042623 
L 129.48782 101.627825 
L 133.687978 103.456053 
L 135.943212 104.075253 
L 139.679389 104.754395 
L 140.276869 105.066093 
L 140.982334 105.266299 
L 140.982334 105.368201 
L 139.589797 104.9558 
L 139.716769 105.165597 
L 140.285175 105.431739 
L 141.219071 105.419151 
L 141.464709 105.292674 
L 141.906144 105.199764 
L 142.683995 104.754395 
L 142.974131 104.717831 
L 143.779869 104.864689 
L 144.86091 104.934221 
L 145.409143 104.856297 
L 145.985857 104.404934 
L 146.108675 104.183748 
L 146.28252 103.418889 
L 146.277773 102.835055 
L 146.53587 103.038258 
L 146.87466 103.045451 
L 146.707342 103.22168 
L 146.575623 103.246257 
L 146.742348 103.447661 
L 146.998072 103.42848 
L 147.14403 103.290614 
L 146.983832 103.137162 
L 147.151743 103.017278 
L 147.526132 102.532948 
L 148.386456 102.332742 
L 148.323563 102.475403 
L 148.277283 102.532948 
L 148.358569 102.508971 
L 148.57632 102.441237 
L 148.766185 102.595887 
L 148.983342 102.441237 
L 149.580228 102.642641 
L 149.903591 102.525755 
L 150.314767 102.11815 
L 151.128217 101.829229 
L 151.240356 101.757299 
L 151.159664 101.51873 
L 150.760948 101.699755 
L 150.099389 101.57088 
L 149.879265 101.427019 
L 149.976571 101.284957 
L 150.657709 101.37487 
L 151.183397 101.124912 
L 151.183397 100.722701 
L 150.865374 100.722701 
L 150.865374 100.612408 
L 151.322235 100.557262 
L 151.521593 101.19864 
L 151.77969 100.822804 
L 151.787403 100.432583 
L 153.662908 99.716876 
L 153.983898 99.152223 
L 154.641304 99.115059 
L 155.061972 99.21696 
L 155.977475 99.5892 
L 156.662174 99.589799 
L 157.853573 99.420163 
L 158.72161 99.616174 
L 159.352316 99.594594 
L 161.34886 99.121053 
L 161.763595 98.902865 
L 160.319438 98.651108 
L 160.060155 98.4533 
L 158.966654 97.997742 
L 157.845267 97.934203 
L 157.219307 97.623704 
L 156.828305 97.632096 
L 156.070034 97.787345 
L 156.14242 97.715415 
L 156.268798 97.495428 
L 155.906276 97.592534 
L 155.672505 97.787345 
L 155.476707 97.833501 
L 154.268101 97.787345 
L 153.592302 98.177567 
L 153.322932 98.600757 
L 153.100435 98.521035 
L 152.972869 98.114628 
L 152.975243 97.94739 
L 152.844118 97.657271 
L 152.392596 97.056653 
L 152.467355 96.791111 
L 152.727232 96.604092 
L 152.875564 96.278607 
L 153.018556 96.539954 
L 153.222067 96.670627 
L 154.051537 96.855848 
L 154.622317 97.092618 
L 154.819895 97.059051 
L 156.020194 96.580714 
L 156.201159 96.744955 
L 156.268798 96.791111 
L 157.647096 96.776125 
L 157.971052 96.891813 
L 158.185836 96.785716 
L 158.966654 96.580714 
L 159.236024 96.217466 
L 159.472761 95.675591 
L 159.654319 96.006471 
L 160.277312 96.382906 
L 161.790295 96.741359 
L 163.563748 96.891813 
L 164.517223 96.352935 
L 164.866693 96.489003 
L 164.914159 96.297788 
L 165.225062 96.338549 
L 165.490872 96.318169 
L 165.66353 95.885388 
L 165.957227 96.039439 
L 166.062245 95.977699 
L 166.153024 96.077202 
L 166.062245 96.168913 
L 166.360689 96.278607 
L 166.480541 96.091588 
L 166.920789 96.210273 
L 167.156933 96.278607 
L 167.165833 96.222861 
L 167.352731 96.053825 
L 167.65058 96.16232 
L 167.802472 96.095185 
L 168.958272 95.365092 
L 169.310708 95.776294 
L 169.746803 95.694173 
L 169.863688 95.565298 
L 170.111699 95.647419 
L 171.434817 95.613252 
L 172.361593 95.885388 
L 172.710469 95.843429 
L 173.827109 95.532929 
L 175.606496 94.962282 
L 176.104297 95.172679 
L 177.999381 95.272782 
L 181.902283 95.892581 
L 182.950098 95.92435 
L 183.64785 96.077202 
L 184.403154 95.675591 
L 185.793318 95.582681 
L 186.154061 95.365092 
L 186.315446 95.535927 
L 186.710008 95.40825 
L 186.841726 95.565298 
L 187.468279 95.280574 
L 188.145265 95.272782 
L 187.691963 95.541321 
L 187.574484 95.766703 
L 187.548378 96.168913 
L 187.38818 96.01786 
L 186.443604 96.580714 
L 185.837818 96.690408 
L 184.599545 96.888216 
L 183.352373 96.726373 
L 182.212 96.872032 
L 182.035188 97.065045 
L 181.323196 98.117625 
L 181.012293 98.377174 
L 180.706137 98.345405 
L 180.367941 98.158386 
L 179.009816 98.138006 
L 178.713746 98.103239 
L 178.298418 98.189556 
L 177.995228 98.154789 
L 177.048872 97.897039 
L 176.238388 97.834699 
L 172.432792 98.368183 
L 171.768266 99.063509 
L 171.15714 99.50648 
L 171.602135 99.326055 
L 172.858801 98.390961 
L 173.399914 98.357393 
L 173.630718 98.648711 
L 173.709631 100.319892 
L 173.141224 100.361851 
L 172.804808 100.118487 
L 171.839466 100.071732 
L 171.384977 100.179628 
L 171.256819 100.521297 
L 171.355311 100.448767 
L 171.665028 100.319892 
L 171.816919 100.823404 
L 171.953978 100.923507 
L 171.7831 101.024809 
L 171.356498 101.427019 
L 171.627055 101.606845 
L 171.595015 101.765092 
L 171.256819 102.131337 
L 172.311753 101.980283 
L 172.377019 101.718936 
L 172.078576 101.139298 
L 172.153335 100.822804 
L 171.990171 100.714909 
L 171.996697 100.346266 
L 172.153335 100.219189 
L 172.413212 100.211996 
L 172.658849 100.337874 
L 173.067651 100.722701 
L 173.351262 100.577642 
L 173.664538 100.521297 
L 174.207432 100.219189 
L 174.749139 100.364249 
L 175.157941 100.612408 
L 175.363825 101.244196 
L 175.909685 101.669784 
L 176.136929 102.108559 
L 176.154136 102.441237 
L 176.054457 103.045451 
L 176.407486 103.59392 
L 176.512505 103.66585 
L 176.699403 104.501441 
L 176.322047 104.977379 
L 175.653368 105.150012 
L 175.317546 105.138623 
L 174.820338 104.909046 
L 174.34805 105.005552 
L 174.02884 105.538436 
L 173.827109 105.509664 
L 173.709631 105.116445 
L 173.481793 105.003754 
L 173.079518 105.212352 
L 172.824388 105.057702 
L 172.855241 104.764586 
L 172.609603 104.663284 
L 172.260727 104.9558 
L 172.212075 104.802349 
L 172.002037 104.618927 
L 171.854299 104.563181 
L 171.470417 104.76998 
L 171.057461 104.663883 
L 171.123914 104.753197 
L 171.375484 105.027131 
L 171.665028 105.116445 
L 171.864385 104.891063 
L 172.000257 104.890464 
L 172.062556 105.010947 
L 172.247674 106.066524 
L 172.470172 106.07072 
L 172.299294 105.85433 
L 172.559764 104.9558 
L 172.62859 105.050509 
L 172.609603 105.417353 
L 172.837441 105.539635 
L 173.45628 105.368201 
L 174.261424 105.76082 
L 174.088173 106.13306 
L 174.215145 106.246949 
L 174.439422 106.158235 
L 174.560461 105.91607 
L 174.450102 105.160202 
L 174.847631 105.127234 
L 175.266519 105.467704 
L 175.445704 105.474897 
L 176.573024 105.097263 
L 177.048872 104.563181 
L 177.060739 104.225108 
L 176.759922 103.296608 
L 176.862568 102.88181 
L 177.115918 102.785903 
L 177.756117 103.045451 
L 178.349444 103.475235 
L 178.679334 103.951773 
L 179.176541 105.423347 
L 179.453031 105.877707 
L 179.456591 106.172621 
L 179.682055 106.666543 
L 179.456591 107.177848 
L 179.721215 107.185041 
L 180.108064 107.492543 
L 180.390487 107.886961 
L 181.249031 109.6013 
L 181.249031 110.515414 
L 181.656646 110.1168 
L 181.952123 109.625276 
L 182.353211 108.503164 
L 182.382878 108.030222 
L 182.138427 107.104119 
L 182.145547 106.56584 
L 182.659368 107.095727 
L 183.290667 108.454611 
L 183.331607 110.533996 
L 183.160729 111.157392 
L 182.751333 111.521839 
L 183.244388 111.360595 
L 183.527998 110.868472 
L 183.646663 110.222298 
L 183.469852 108.0524 
L 183.05037 107.177848 
L 184.15455 107.345085 
L 184.606665 107.966084 
L 185.478262 108.093161 
L 185.497842 108.038014 
L 185.221945 107.839007 
L 184.579372 107.613026 
L 183.919 107.062759 
L 183.728542 107.003417 
L 182.667674 106.897919 
L 182.443397 106.674935 
L 183.031477 105.898121 
L 185.002772 106.513931 
L 185.52628 106.816187 
L 187.252897 108.19081 
L 187.693368 108.785397 
L 188.354115 109.253037 
L 188.401582 109.560539 
L 188.661459 109.897413 
L 188.487021 110.482446 
L 188.145265 111.328826 
L 188.244943 111.328826 
L 188.643065 110.515414 
L 188.851323 109.710394 
L 189.102894 109.73497 
L 189.639261 110.616116 
L 189.561535 110.900841 
L 189.639261 112.133846 
L 189.828532 111.508052 
L 189.764453 110.562768 
L 189.493896 110.201918 
L 189.349717 109.710394 
L 188.833523 109.41488 
L 188.401932 108.734187 
L 188.957085 108.682499 
L 189.510136 108.793155 
L 190.81464 109.172115 
L 191.838129 109.399895 
L 192.111059 109.214075 
L 192.048166 109.004278 
L 191.488066 108.483383 
L 191.222635 108.212672 
L 191.188653 108.097899 
L 190.978813 108.050453 
L 190.694247 107.712713 
L 190.775907 107.659002 
L 191.336035 107.741643 
L 192.564631 108.444016 
L 193.541522 109.109205 
L 194.320693 110.073225 
L 194.250439 109.667016 
L 193.799007 108.950743 
L 193.364036 108.790637 
L 193.14202 108.551399 
L 193.408453 108.693495 
L 194.074229 108.863044 
L 195.737777 110.579435 
L 197.029332 111.606636 
L 197.178937 112.066294 
L 197.473544 112.413775 
L 197.678835 112.32626 
L 197.440318 112.024152 
L 197.79216 112.020556 
L 198.580691 112.485705 
L 198.93906 112.373014 
L 199.702078 112.356231 
L 201.052489 112.983223 
L 201.133182 113.239775 
L 201.035876 113.22419 
L 200.935011 113.03837 
L 200.935011 113.642584 
L 201.145048 113.727702 
L 201.387125 113.642584 
L 201.939512 113.831401 
L 202.612938 114.342706 
L 203.171258 115.140533 
L 203.431729 115.252025 
L 203.630493 115.931167 
L 203.607353 116.300409 
L 203.431729 116.577341 
L 203.403249 116.453261 
L 203.242457 116.266242 
L 202.879935 116.980151 
L 202.655658 117.026905 
L 202.014272 117.298442 
L 201.540797 117.482464 
L 201.27202 117.791165 
L 200.935011 117.884674 
L 200.125713 118.661522 
L 199.5045 118.970223 
L 199.232164 119.410196 
L 198.844128 120.308126 
L 199.245217 120.044382 
L 199.51162 119.518092 
L 201.073849 118.230539 
L 201.060796 118.634548 
L 200.693527 119.120078 
L 200.586135 119.549262 
L 200.45145 119.779439 
L 200.38203 120.20083 
L 199.938815 120.399238 
L 199.024499 121.503369 
L 198.761062 122.33776 
L 198.734956 122.57513 
L 198.844128 123.024095 
L 198.628751 123.651687 
L 197.852086 124.810964 
L 197.649168 125.446348 
L 197.423704 126.678754 
L 197.076015 126.969473 
L 196.435816 126.973669 
L 195.395714 126.66317 
L 192.850937 126.861577 
L 192.211924 126.71472 
L 191.648264 126.361662 
L 191.070364 126.419206 
L 190.86804 126.568461 
L 190.84312 126.864574 
L 190.971279 127.020423 
L 191.74735 127.46759 
L 192.521641 127.721744 
L 192.643866 127.878792 
L 193.053261 127.800867 
L 193.214053 127.821248 
L 193.709481 128.266017 
L 193.966984 128.325359 
L 194.146169 128.592101 
L 194.431559 128.626867 
L 195.24145 128.483006 
L 195.483527 128.78871 
L 195.640165 129.195716 
L 196.336137 129.799331 
L 196.976336 129.285029 
L 197.147808 128.865436 
L 197.83844 128.382304 
L 198.158836 128.310374 
L 199.091545 128.382304 
L 200.090114 128.271411 
L 200.129273 128.483006 
L 199.892536 128.685011 
L 199.340742 128.77912 
L 199.21555 129.361156 
L 199.282003 129.643482 
L 199.429741 129.709418 
L 199.463561 129.571552 
L 199.507467 128.928974 
L 199.882449 128.755143 
L 200.180893 128.744353 
L 200.618174 127.929143 
L 200.700053 127.245805 
L 200.834145 127.165483 
L 201.110635 127.268583 
L 203.132099 126.955087 
L 204.962511 126.742892 
L 206.218583 127.532327 
L 207.124593 127.577284 
L 208.329046 127.778689 
L 209.172756 126.480347 
L 209.636737 126.290331 
L 212.174988 126.460566 
L 213.324261 126.864574 
L 214.121099 127.325528 
L 214.753715 127.430918 
L 215.647304 128.753944 
L 217.164902 130.463359 
L 217.748507 131.411511 
L 217.73306 131.714494 
L 217.548823 132.039933 
L 217.269266 132.295718 
L 216.667199 132.41143 
L 215.685734 132.702232 
L 215.049759 133.397645 
L 215.06935 133.950702 
L 214.899054 134.171088 
L 214.628162 135.019895 
L 214.381759 135.165677 
L 213.175366 135.226197 
L 212.389817 135.906005 
L 211.689416 136.179298 
L 211.095261 136.862151 
L 210.0667 137.642445 
L 209.949904 137.981206 
L 209.594994 138.249171 
L 208.957135 138.311594 
L 207.720978 138.289518 
L 207.393195 138.399901 
L 207.187859 138.595545 
L 206.489719 139.799862 
L 206.536437 140.239111 
L 206.31264 140.63649 
L 206.292295 141.044527 
L 206.155154 141.148058 
L 205.848469 141.180792 
L 205.273153 142.043303 
L 204.611935 142.256456 
L 204.4066 142.641655 
L 204.504935 143.077859 
L 204.84289 143.701332 
L 205.490168 144.065216 
L 205.534249 144.512077 
L 205.989755 144.908695 
L 206.277978 145.866363 
L 206.212045 145.970656 
L 205.857135 146.291147 
L 205.675535 146.689288 
L 205.682694 147.127775 
L 206.053428 147.724605 
L 207.068802 148.533065 
L 207.259821 148.529259 
L 207.818183 147.72156 
L 208.128635 147.605086 
L 208.68549 147.675123 
L 208.996318 147.857826 
L 209.808618 147.940042 
L 209.991348 148.14406 
L 210.686097 148.599295 
L 210.807792 149.081174 
L 210.632974 149.584369 
L 210.283339 149.961194 
L 209.814646 150.309852 
L 209.692198 150.557262 
L 209.557318 151.287313 
L 209.311668 151.141151 
L 208.921343 151.233263 
L 207.058253 152.398756 
L 205.733933 152.772536 
L 205.49695 152.966277 
L 204.847412 153.813182 
L 204.538467 153.922042 
L 204.320698 153.847058 
L 203.488807 153.419229 
L 202.670856 153.476323 
L 202.015289 153.119672 
L 201.741006 153.163064 
L 201.918085 153.852387 
L 201.442987 154.333885 
L 201.14007 154.378039 
L 200.474331 154.295061 
L 200.2057 154.500221 
L 199.585172 154.358246 
L 199.451422 154.626591 
L 198.859905 154.513924 
L 198.584868 154.567974 
L 197.704751 155.79018 
L 197.387141 156.842626 
L 197.420673 157.144086 
L 198.100729 157.831886 
L 198.4206 158.978348 
L 198.220539 159.35974 
L 198.152345 160.233289 
L 198.338842 160.779114 
L 198.667756 161.044033 
L 198.832401 161.369473 
L 198.705432 162.363682 
L 197.940981 162.584829 
L 197.642209 163.156156 
L 197.227394 163.337717 
L 196.549975 163.533742 
L 196.231987 164.212408 
L 195.334163 165.478768 
L 194.69329 165.914971 
L 194.942707 166.508375 
L 204.271342 176.866874 
L 205.073092 177.070511 
L 205.372995 177.336573 
L 206.329971 179.890608 
L 206.428306 180.58526 
L 206.12652 181.309221 
L 205.14317 182.526479 
L 204.587822 183.022442 
L 203.923967 183.452555 
L 202.392805 184.099248 
L 201.997205 184.138453 
L 201.88606 184.270151 
L 201.483301 185.186331 
L 201.239159 186.126109 
L 200.809273 186.695153 
L 200.303658 186.94066 
L 199.085962 187.097099 
L 198.019725 187.354025 
L 197.766917 187.296931 
L 197.006611 186.976439 
L 195.876324 186.904119 
L 195.768947 187.079971 
L 196.16417 187.666904 
L 196.204861 187.975596 
L 195.983324 188.192556 
L 195.228293 188.404568 
L 193.796973 188.401523 
L 193.159867 188.656165 
L 192.94775 189.055066 
L 192.797422 190.370147 
L 192.426688 190.820053 
L 192.070648 190.897322 
L 191.742488 190.828427 
L 191.012322 190.990196 
L 190.554556 190.856594 
L 189.719651 190.862684 
L 189.116077 191.148158 
L 188.126699 192.129805 
L 187.234526 192.422892 
L 186.620404 192.333443 
L 186.039436 192.124477 
L 185.385377 192.220776 
L 184.276188 193.031521 
L 183.656791 193.245816 
L 183.087127 193.180348 
L 180.294564 192.020564 
L 179.654068 191.877447 
L 179.093446 192.09022 
L 178.967607 192.456387 
L 178.843276 192.525662 
L 178.066392 192.728538 
L 177.928497 192.897919 
L 177.716756 194.019259 
L 177.312867 194.123552 
L 176.117023 193.932856 
L 175.042497 194.074831 
L 174.723756 194.270856 
L 174.658953 194.49657 
L 174.723003 195.096065 
L 174.447966 196.457202 
L 174.966391 197.76429 
L 175.099765 198.377487 
L 175.1073 198.98878 
L 174.966391 199.579139 
L 174.430635 200.403587 
L 174.117923 200.517395 
L 173.770548 200.54404 
L 173.181291 200.977198 
L 172.660606 201.043428 
L 172.028399 200.907923 
L 171.357762 200.481235 
L 169.406886 198.080214 
L 168.497382 197.422863 
L 167.651927 196.247094 
L 167.144805 195.742376 
L 166.186322 195.18399 
L 165.606862 194.994817 
L 165.111796 195.042015 
L 164.778738 195.469083 
L 164.478082 196.531806 
L 163.86848 196.718696 
L 163.233259 196.411907 
L 162.233332 195.530365 
L 161.242447 195.40095 
L 160.072223 195.624761 
L 158.553871 195.315308 
L 157.361041 196.021379 
L 156.785348 196.331974 
L 156.184036 196.306853 
L 155.802752 195.878262 
L 155.580839 195.266968 
L 155.156228 193.720083 
L 154.909072 193.27246 
L 154.594099 192.947401 
L 154.215076 192.758228 
L 153.224944 192.483793 
L 151.41121 192.338772 
L 148.134885 192.824838 
L 147.86437 192.712552 
L 147.677119 192.412234 
L 147.283994 191.513258 
L 147.095021 191.225045 
L 146.527994 190.684549 
L 145.856227 190.338936 
L 145.190111 190.386134 
L 144.994194 190.57074 
L 144.841229 191.172518 
L 144.877775 191.473978 
L 145.049579 191.798656 
L 146.130886 192.502063 
L 147.068648 194.621418 
L 147.358755 194.974263 
L 148.349263 195.839818 
L 148.984108 196.733921 
L 150.980948 198.169281 
L 152.006495 198.640122 
L 152.860992 199.699419 
L 153.77351 200.546323 
L 153.879004 200.909445 
L 153.848109 201.719429 
L 153.742993 201.984729 
L 153.202339 202.781771 
L 153.151852 203.135758 
L 153.579101 205.60339 
L 153.48265 207.480663 
L 153.739602 207.993754 
L 154.203773 208.542624 
L 154.728226 209.494964 
L 155.188253 210.084942 
L 156.309121 212.283468 
L 156.76425 213.638515 
L 156.668552 214.028282 
L 156.555523 215.144292 
L 155.890161 216.519132 
L 155.907492 216.841908 
L 156.033707 217.095408 
L 156.259388 217.217971 
L 156.575868 217.141845 
L 157.43564 217.240048 
L 159.19286 217.724211 
L 160.130244 217.714314 
L 161.048037 217.592512 
L 162.947673 217.639711 
L 163.86848 217.782828 
L 165.994173 217.953351 
L 166.04918 218.14595 
L 165.878884 218.895794 
L 165.881144 220.107724 
L 165.425262 221.261797 
L 165.450128 221.526717 
L 165.310726 221.838073 
L 164.848816 222.017731 
L 163.724557 222.204621 
L 163.12023 222.177216 
L 162.310191 222.548331 
L 159.894391 224.406953 
L 159.61634 224.446539 
L 157.340696 224.470138 
L 156.805693 224.657028 
L 156.199106 225.109979 
L 155.951573 225.604419 
L 155.853992 226.874966 
L 155.625674 227.789623 
L 155.633586 228.967296 
L 155.377764 229.598002 
L 154.841631 230.25421 
L 154.151026 230.650828 
L 153.348146 231.446347 
L 152.03965 232.517444 
L 151.586782 233.380715 
L 151.336612 233.485389 
L 151.052533 233.329711 
L 150.976803 232.992471 
L 151.118843 232.341211 
L 151.428165 231.737911 
L 151.416862 231.447109 
L 151.098498 231.253367 
L 150.769207 231.293714 
L 148.695884 232.589764 
L 148.417834 232.943751 
L 147.922768 233.889619 
L 146.075879 235.122864 
L 145.486246 235.135045 
L 144.494984 234.780296 
L 143.395969 235.606266 
L 142.792395 235.723501 
L 142.64056 235.814852 
L 141.849736 236.648434 
L 141.823739 236.707813 
L 141.282332 236.819718 
L 140.685917 236.764908 
L 140.15732 236.900412 
L 139.815973 237.588594 
L 139.54169 239.427042 
L 139.190924 239.892174 
L 138.602798 240.049755 
L 137.627361 239.9683 
L 137.380581 240.091625 
L 136.318865 241.472555 
L 136.161002 241.953673 
L 136.116544 242.576385 
L 134.892443 243.79745 
L 134.23876 243.936 
L 133.978794 243.837036 
L 133.618233 243.31481 
L 133.587338 242.612926 
L 134.612885 240.791225 
L 134.494582 240.120553 
L 133.988213 239.388979 
L 133.460369 239.011393 
L 132.983765 239.034992 
L 131.638723 239.036515 
L 131.281929 239.150704 
L 130.699078 239.519155 
L 129.148324 240.307823 
L 128.820541 240.616896 
L 127.94796 241.613388 
L 127.368122 241.868411 
L 126.732148 241.907997 
L 126.41529 242.046547 
L 125.949612 242.57334 
L 125.610526 242.730922 
L 125.290278 242.702755 
L 124.526204 242.2597 
L 124.241372 242.264268 
L 123.413248 242.513962 
L 122.521829 242.314511 
L 121.016286 241.123896 
L 114.810257 235.492077 
L 114.433495 234.513093 
L 114.70175 233.967268 
L 114.575157 233.252443 
L 114.272994 232.801014 
L 113.969324 232.514399 
L 113.914316 232.31 
L 113.956514 231.379356 
L 113.308483 229.935241 
L 113.267039 228.959684 
L 111.652989 224.826409 
L 111.266431 224.445397 
L 111.05469 224.174007 
L 111.017768 223.989401 
L 111.316917 223.577558 
L 111.367403 223.319109 
L 111.224233 222.284173 
L 110.395356 221.762708 
L 109.820417 220.119143 
L 109.814389 219.847372 
L 110.454885 219.082303 
L 110.106756 218.116261 
L 109.614705 217.817085 
L 108.968181 217.565868 
L 108.531136 217.170773 
L 108.24329 217.046687 
L 107.886873 216.401137 
L 107.424962 216.116424 
L 107.150679 215.668041 
L 106.908044 215.556897 
L 106.255492 214.899166 
L 106.061836 214.689057 
L 105.913392 214.287872 
L 105.693362 214.089944 
L 105.423601 214.006205 
L 104.768788 213.995547 
L 104.595477 213.857759 
L 104.116235 212.274333 
L 103.851748 212.055851 
L 103.282837 212.233986 
L 102.921145 212.160143 
L 102.037261 211.63335 
L 101.594188 211.789409 
L 100.98308 211.851071 
L 100.507606 212.404509 
L 100.517401 211.396597 
L 100.760036 210.984754 
L 106.568958 205.633079 
L 107.038404 205.517367 
L 107.216989 205.38034 
L 108.476129 203.651513 
L 108.546207 203.036032 
L 108.062444 202.529412 
L 107.299877 202.161722 
L 107.098686 201.875868 
L 106.114583 199.289098 
L 105.700144 198.731474 
L 105.151578 198.472264 
L 104.315166 198.540016 
L 104.033348 198.39766 
L 103.776396 198.08402 
L 103.673916 197.74069 
L 103.453887 196.649421 
L 102.802088 195.313024 
L 102.629531 194.049709 
L 102.534425 193.988509 
L 102.576031 193.743682 
L 102.195501 192.827122 
L 101.52411 192.027796 
L 101.32518 190.067165 
L 101.623576 189.408292 
L 101.576104 189.216835 
L 101.32518 188.699557 
L 101.36587 188.168957 
L 101.126249 188.046013 
L 100.899438 187.336516 
L 100.228802 186.72941 
L 100.337309 186.427188 
L 100.518909 186.235731 
L 100.611592 185.233529 
L 100.730649 184.09468 
L 100.989861 183.621936 
L 101.08782 182.094082 
L 100.926565 181.73705 
L 101.037333 180.826961 
L 101.250581 179.973586 
L 101.32518 179.168931 
L 101.423892 178.911625 
L 100.926565 177.75108 
L 101.108165 176.746975 
L 100.958967 176.268141 
L 100.8271 176.031007 
L 100.686191 175.46577 
L 100.818811 174.846102 
L 101.180503 174.264117 
L 101.790858 173.797463 
L 102.100557 173.74113 
L 102.319832 173.508184 
L 102.87292 173.256586 
L 103.299414 172.84855 
L 103.554106 172.724083 
L 103.802015 172.08272 
L 103.99115 171.866141 
L 103.982108 171.616827 
L 103.714607 171.335921 
L 103.523211 169.503943 
L 103.639254 168.872095 
L 103.872847 168.287826 
L 104.221729 167.756465 
L 105.225424 166.696027 
L 106.122118 165.808014 
L 106.82817 165.433853 
L 106.850023 164.843114 
L 106.739255 164.546602 
L 106.363999 164.276734 
L 105.825983 163.426785 
L 105.887772 162.656387 
L 106.427295 162.197346 
L 106.412546 162.195987 
L 105.836532 162.142916 
L 104.618836 161.191338 
L 102.329628 160.654267 
L 100.752501 160.583089 
L 100.329774 160.990364 
L 99.802307 161.06002 
L 99.512953 161.657992 
L 98.72778 161.90426 
L 98.129482 161.995992 
L 96.270536 161.816715 
L 95.632301 161.90426 
L 93.971533 162.506038 
L 93.432763 162.508322 
L 92.174376 162.206481 
L 91.859403 162.240738 
L 90.787891 162.560468 
L 89.7209 162.683793 
L 89.142947 163.111622 
L 88.792558 163.070514 
L 87.884561 162.719191 
L 87.556777 162.683793 
L 86.316853 162.346934 
L 85.072407 162.333612 
L 84.395365 162.132258 
L 84.137659 162.206481 
L 83.287307 161.890557 
L 82.933904 161.90426 
L 82.655853 162.028726 
L 81.067046 163.45419 
L 80.236662 163.925031 
L 79.908879 163.677621 
L 79.285337 162.95937 
L 78.99297 162.809782 
L 78.602644 162.879818 
L 77.525739 163.312595 
L 77.356314 163.312595 
L 67.834776 151.200529 
L 67.359679 150.786402 
L 66.94298 150.683632 
L 65.871468 150.845781 
L 65.049749 151.310912 
L 64.59123 151.291119 
L 62.517153 150.259609 
L 62.028492 150.300717 
L 61.647962 150.152271 
L 60.806652 149.117715 
L 59.922014 149.299657 
L 59.290184 149.135224 
L 58.988397 148.90989 
L 58.555874 148.919025 
L 56.002179 149.595788 
L 55.845822 149.800567 
L 55.226048 150.242861 
L 54.497767 150.516154 
L 53.707319 150.609789 
L 52.541993 150.585429 
L 52.236816 150.851871 
L 51.835941 150.892979 
L 51.552616 150.713321 
L 50.644618 150.612073 
L 50.557963 150.275595 
L 50.527822 150.104311 
L 50.396709 150.002302 
L 50.174419 149.978703 
L 49.325197 150.076906 
L 48.626679 149.925414 
L 47.84226 150.198708 
L 47.5514 149.955865 
L 47.226631 149.872126 
L 46.651691 149.95282 
L 46.519071 149.774684 
L 45.818293 149.818076 
L 45.615595 149.614058 
L 44.935916 149.623193 
L 44.840971 149.730531 
L 44.898239 149.973374 
L 44.138686 149.889635 
L 43.375366 149.955865 
L 43.321112 150.271028 
L 43.002371 150.246667 
L 42.294058 150.619686 
L 41.81557 150.579339 
L 40.003343 150.100505 
L 39.466834 149.690946 
L 38.89943 149.400905 
L 38.647752 149.104012 
L 37.687008 147.129297 
L 37.55062 146.136611 
L 37.65536 145.46061 
L 37.576994 145.412651 
L 37.073639 144.756442 
L 36.585355 144.617893 
L 35.388005 144.636163 
L 34.034674 144.285982 
L 33.499672 143.896977 
L 33.100304 143.245336 
L 33.052078 142.898201 
L 33.323347 141.974028 
L 33.032487 140.816148 
L 33.166614 139.272307 
L 33.49289 138.113666 
L 33.392671 137.219183 
L 32.967683 136.399303 
L 33.808617 135.790293 
L 34.144689 135.005812 
L 34.725656 135.021799 
L 34.975827 135.023321 
L 35.212433 134.686082 
L 35.184553 134.120083 
L 34.871087 133.114836 
L 34.306697 131.870553 
L 34.342112 130.415399 
L 34.020237 130.013109 
L 33.427333 129.700193 
L 30.523249 126.548186 
L 30.231635 126.052985 
L 28.662043 120.036347 
L 28.414887 119.74897 
L 28.625121 119.410209 
L 28.546001 119.240828 
L 27.917561 118.950787 
L 27.219797 119.013591 
L 26.426336 119.458168 
L 26.150546 119.387371 
L 25.889826 119.027293 
L 25.809953 118.707563 
L 25.789607 117.729722 
L 25.623832 117.266874 
L 25.628353 117.211683 
L 25.357084 116.568035 
L 25.022519 116.579454 
L 24.058761 117.360509 
L 23.430322 117.633803 
L 22.929981 118.106547 
L 22.404021 118.364234 
L 21.797434 118.448734 
L 19.989728 118.493268 
L 19.795319 118.37413 
L 19.79984 118.054019 
L 19.97089 117.768546 
L 20.768873 117.149259 
L 20.952733 116.850083 
L 21.453827 115.589432 
L 22.620283 113.867837 
L 22.896826 113.214293 
L 23.111581 113.018268 
L 23.929155 112.404691 
L 24.082121 112.134062 
L 24.450594 111.136427 
L 25.252344 109.891383 
L 25.825023 108.573637 
L 25.554508 107.347624 
L 25.675825 106.770968 
L 25.678086 106.196595 
L 26.437639 103.607161 
L 26.846803 99.522607 
L 27.5197 98.703108 
L 27.787955 97.929666 
L 28.686156 96.887878 
L 29.08025 96.246514 
L 30.121621 93.583618 
L 30.504411 93.147795 
L 31.411655 92.444008 
L 31.674635 92.084692 
L 32.294786 90.685111 
L 32.721281 90.090946 
L 32.799647 89.6772 
L 33.059613 89.504393 
L 34.810051 89.129091 
L 35.387251 89.09826 
L 35.929789 89.240235 
L 36.185987 89.174767 
L 36.338953 88.984832 
L 40.217344 81.895194 
L 40.502176 81.70564 
L 48.688468 79.490366 
L 49.447268 78.923226 
L 49.886506 78.935079 
L 49.648026 79.560804 
L 49.761944 79.829943 
L 49.24575 79.920455 
L 49.00664 80.332856 
L 48.68387 80.390999 
L 47.85084 80.826178 
L 47.268193 81.000609 
L 44.827841 81.369851 
L 40.656162 82.746717 
L 40.498931 83.283197 
L 40.516137 83.923377 
L 40.965286 85.847513 
L 42.166772 88.260176 
L 43.437677 89.889997 
L 45.361835 91.028893 
L 45.553479 91.442492 
L 44.756642 91.633707 
L 44.815381 91.40353 
L 44.713922 91.211117 
L 44.496765 91.079844 
L 43.75214 90.979741 
L 43.628135 91.123601 
L 43.453697 91.231497 
L 43.581855 91.400533 
L 44.226208 92.079076 
L 44.158569 92.648524 
L 44.548384 93.855754 
L 45.18443 94.832808 
L 45.646038 95.235618 
L 46.258945 95.565298 
L 46.11002 95.892581 
L 45.986608 96.471021 
L 45.761144 96.791111 
L 45.859636 97.057852 
L 45.717237 97.920416 
L 45.462107 98.550406 
L 45.48228 99.499886 
L 45.261563 99.67192 
L 44.865221 99.808587 
L 44.503291 100.219189 
L 44.02151 100.420594 
L 43.302399 101.153684 
L 42.457502 102.734353 
L 41.661257 103.798921 
L 41.572259 104.136994 
L 41.350354 104.288047 
L 40.531564 104.630915 
L 40.199894 105.194369 
L 40.073516 105.815368 
L 39.7371 106.402798 
L 39.443403 107.225202 
L 38.484587 108.307153 
L 38.266837 108.750124 
L 38.311336 108.954526 
L 38.764638 109.802704 
L 40.096062 111.274279 
L 40.85552 112.947258 
L 40.59327 112.801 
L 40.257447 111.932441 
L 40.257447 112.234548 
L 40.029016 112.356231 
L 39.959597 112.435953 
L 40.402812 112.730268 
L 40.656162 113.290126 
L 40.55411 113.579645 
L 40.317966 113.591034 
L 39.859918 113.239775 
L 39.799399 113.511311 
L 40.150055 114.154488 
L 41.008005 113.550873 
L 41.262542 113.843989 
L 41.262542 113.550873 
L 41.41384 113.651576 
L 41.955547 114.198845 
L 42.227291 114.292355 
L 42.349516 114.447005 
L 41.906895 114.360089 
L 41.527759 114.517736 
L 41.337301 114.841423 
L 41.4619 115.252025 
L 41.661257 114.64781 
L 42.507341 114.64781 
L 42.87639 114.872593 
L 43.219333 115.295183 
L 43.567616 115.54634 
L 43.951498 115.252025 
L 43.860126 115.563124 
L 44.04643 115.791502 
L 43.959804 115.859836 
L 43.75214 115.964735 
L 43.932511 116.133771 
L 43.871992 116.656464 
L 43.75214 116.870457 
L 43.606182 116.744579 
L 42.755945 117.482464 
L 42.89419 117.597553 
L 43.214586 117.379364 
L 43.354018 117.583167 
L 43.610335 117.399145 
L 43.660768 117.281059 
L 43.803166 117.418926 
L 43.734934 117.733021 
L 43.951498 117.884674 
L 43.678568 117.910449 
L 43.699334 118.109457 
L 43.951498 118.48829 
L 43.552782 118.991802 
L 43.703487 119.214786 
L 44.126529 119.442565 
L 44.258248 119.545665 
L 44.209002 119.594818 
L 44.187048 119.654759 
L 44.656963 120.006619 
L 45.880996 120.296138 
L 46.530095 120.306928 
L 47.155461 120.197833 
L 49.246344 119.544466 
L 51.147362 118.624957 
L 51.445212 118.278493 
L 51.652282 117.499248 
L 51.928179 117.288252 
L 52.576092 116.628891 
L 53.159925 116.457457 
L 53.752065 116.107396 
L 53.843437 115.563124 
L 53.59246 114.746715 
L 53.375303 113.050358 
L 53.34623 112.737461 
L 53.695699 112.051126 
L 53.952016 111.008736 
L 54.047542 110.216903 
L 54.142474 109.957954 
L 53.866577 109.480217 
L 53.405562 108.957523 
L 53.34623 108.594875 
L 53.600173 108.521146 
L 53.606107 108.281978 
L 53.080419 107.582456 
L 51.980392 106.404597 
L 51.644569 106.47353 
L 51.079722 104.500242 
L 50.756953 103.949975 
L 49.872896 103.142557 
L 49.356109 102.947746 
L 49.220237 102.707978 
L 48.928914 101.935926 
L 48.619197 101.57028 
L 48.359914 100.891738 
L 47.734548 99.977623 
L 47.825327 99.74325 
L 47.862706 98.790773 
L 46.765052 97.866469 
L 46.824978 97.379141 
L 47.369652 96.936769 
L 47.302013 96.898407 
L 46.856424 96.077202 
L 46.913977 95.100149 
L 46.159266 94.266956 
L 47.690048 94.264558 
L 48.159963 94.45877 
L 48.314821 94.124294 
L 48.152843 93.122665 
L 48.508245 92.888891 
L 48.647677 92.648524 
L 48.13445 92.629343 
L 47.814647 92.428537 
L 47.354819 92.045508 
L 47.978998 91.826121 
L 48.560458 91.750594 
L 50.376037 91.653488 
L 52.748157 90.572735 
L 52.879875 90.449854 
L 53.752658 90.124969 
L 56.562059 88.56528 
L 59.246268 87.802819 
L 59.559545 87.940086 
L 60.060906 87.932893 
L 61.750106 87.727292 
L 62.009983 87.569645 
L 62.242567 87.199203 
L 62.101356 87.253751 
L 61.896065 87.459951 
L 61.844445 87.602013 
L 61.798166 87.238166 
L 62.150602 87.109291 
L 62.916007 87.219987 
L 63.39664 87.081701 
L 65.326878 86.207359 
L 65.874333 86.277329 
L 66.618944 85.91225 
L 67.126831 85.137801 
L 67.114698 84.762582 
L 66.846408 84.637058 
L 66.991305 84.533329 
L 67.394246 84.650251 
L 67.794636 85.128875 
L 68.034621 84.918413 
L 68.09158 84.719406 
L 68.39121 84.815313 
L 68.711013 84.961571 
L 68.720506 84.583937 
L 68.567428 84.363351 
L 68.641 84.264447 
L 68.428853 84.191154 
L 68.457582 83.995518 
L 67.447821 83.719575 
L 67.62112 83.638636 
L 67.839439 83.633363 
L 67.549693 83.453456 
L 67.179214 83.296064 
L 66.887316 83.081248 
L 67.45355 83.220426 
L 68.629482 83.814363 
L 69.599092 84.048342 
L 70.031392 83.799719 
L 70.324178 83.89861 
L 70.517769 84.190387 
L 70.713855 84.153044 
L 70.809475 84.40559 
L 71.335766 84.699922 
L 71.509579 85.030404 
L 71.954729 85.186953 
L 72.234186 85.023312 
L 72.317251 84.812915 
L 72.930751 84.37414 
L 72.981777 84.041463 
L 72.67384 83.536152 
L 72.731393 83.24963 
L 72.609761 83.080594 
L 71.926249 81.237979 
L 71.836657 81.237979 
L 71.795124 81.509516 
L 71.678832 81.480144 
L 71.437941 81.237979 
L 71.124665 81.390231 
L 70.98998 81.538887 
L 69.971832 81.782851 
L 70.043624 81.538887 
L 69.288319 81.840995 
L 68.638627 81.901536 
L 68.167526 82.147897 
L 67.22651 82.235413 
L 66.524011 82.57828 
L 66.155556 82.484172 
L 65.891525 82.20724 
L 65.899238 81.741491 
L 66.146656 81.333287 
L 66.043417 81.128285 
L 66.014937 80.71049 
L 65.844059 80.432359 
L 65.931278 80.484509 
L 66.242775 80.633764 
L 66.134196 79.920455 
L 65.978151 79.842531 
L 65.73548 80.232153 
L 65.666061 79.975602 
L 65.000349 78.793547 
L 64.840151 78.815126 
L 65.030015 78.070647 
L 65.108928 77.614489 
L 65.437037 76.848432 
L 65.530783 76.624848 
L 66.134196 75.888761 
L 66.242775 75.075349 
L 67.139884 74.987235 
L 67.391455 74.827789 
L 68.641 73.86752 
L 68.98513 73.79499 
L 70.331981 74.374029 
L 71.645012 76.501368 
L 71.836657 77.095992 
L 71.915569 77.720587 
L 71.915569 77.720587 
" clip-path="url(#p1409ea97c5)" style="fill: none; stroke: #000000; stroke-width: 2"/>
    <path d="M 162.070938 22.275504 
L 162.048392 22.307273 
L 161.984312 22.277901 
L 161.929726 22.210766 
L 161.987872 22.176 
L 162.061445 22.210766 
L 162.070938 22.275504 
" clip-path="url(#p1409ea97c5)" style="fill: none; stroke: #000000; stroke-width: 2"/>
   </g>
  </g>
 </g>
 <defs>
  <clipPath id="p1409ea97c5">
   <rect x="0" y="-0" width="237.543826" height="266.112"/>
  </clipPath>
 </defs>
</svg>
