<?xml version="1.0" encoding="utf-8" standalone="no"?>
<!DOCTYPE svg PUBLIC "-//W3C//DTD SVG 1.1//EN"
  "http://www.w3.org/Graphics/SVG/1.1/DTD/svg11.dtd">
<svg xmlns:xlink="http://www.w3.org/1999/xlink" width="308.497691pt" height="266.112pt" viewBox="0 0 308.497691 266.112" xmlns="http://www.w3.org/2000/svg" version="1.1">
 <metadata>
  <rdf:RDF xmlns:dc="http://purl.org/dc/elements/1.1/" xmlns:cc="http://creativecommons.org/ns#" xmlns:rdf="http://www.w3.org/1999/02/22-rdf-syntax-ns#">
   <cc:Work>
    <dc:type rdf:resource="http://purl.org/dc/dcmitype/StillImage"/>
    <dc:date>2024-02-02T21:58:06.332504</dc:date>
    <dc:format>image/svg+xml</dc:format>
    <dc:creator>
     <cc:Agent>
      <dc:title>Matplotlib v3.8.2, https://matplotlib.org/</dc:title>
     </cc:Agent>
    </dc:creator>
   </cc:Work>
  </rdf:RDF>
 </metadata>
 <defs>
  <style type="text/css">*{stroke-linejoin: round; stroke-linecap: butt}</style>
 </defs>
 <g id="figure_1">
  <g id="patch_1">
   <path d="M 0 266.112 
L 308.497691 266.112 
L 308.497691 0 
L 0 0 
L 0 266.112 
z
" style="fill: none"/>
  </g>
  <g id="axes_1">
   <g id="PatchCollection_1">
    <path d="M 131.010083 242.4671 
L 129.451132 243.936 
L 127.518033 239.441606 
L 122.092883 236.416111 
L 114.214985 234.793744 
L 113.050968 232.645204 
L 117.623891 231.461315 
L 121.282229 231.37362 
L 123.36083 230.58436 
L 125.647292 229.970492 
L 130.199429 231.37362 
L 130.843795 235.188374 
L 131.010083 242.4671 
" clip-path="url(#p5accc83263)" style="fill: none; stroke: #000000; stroke-width: 2"/>
    <path d="M 151.781235 182.266998 
L 157.070535 187.562202 
L 155.393273 190.346368 
L 149.53751 189.508969 
L 140.851011 187.034081 
L 134.429897 190.657543 
L 131.75838 194.870367 
L 127.850609 198.422035 
L 123.111398 199.934782 
L 119.099697 199.145523 
L 116.127298 197.523156 
L 112.863894 196.317343 
L 107.750535 196.580429 
L 108.020753 198.22472 
L 104.009052 202.499876 
L 99.082767 206.117315 
L 96.650804 205.766533 
L 92.285741 211.992914 
L 84.102643 217.85294 
L 76.035243 217.296107 
L 68.806468 217.007901 
L 56.291089 216.16597 
L 63.24844 209.771868 
L 72.420603 208.975231 
L 76.585967 202.051906 
L 81.057049 195.587061 
L 83.011415 186.955895 
L 93.287603 181.168065 
L 100.662504 183.360333 
L 112.736154 180.921078 
L 118.318689 182.56655 
L 134.943289 179.581264 
L 151.781235 182.266998 
" clip-path="url(#p5accc83263)" style="fill: none; stroke: #000000; stroke-width: 2"/>
    <path d="M 51.129435 185.728111 
L 48.011533 188.315128 
L 33.17032 186.188512 
L 25.708141 185.94735 
L 28.555825 181.979128 
L 41.588655 179.1071 
L 48.281752 179.940208 
L 49.445768 181.847585 
L 51.129435 185.728111 
" clip-path="url(#p5accc83263)" style="fill: none; stroke: #000000; stroke-width: 2"/>
    <path d="M 149.530421 172.617634 
L 147.015313 175.116955 
L 146.142301 173.626131 
L 146.599593 170.030616 
L 145.51872 164.089246 
L 146.412519 159.879862 
L 148.969198 158.016332 
L 150.590507 158.849439 
L 150.902298 164.637343 
L 150.777581 167.575142 
L 149.530421 172.617634 
" clip-path="url(#p5accc83263)" style="fill: none; stroke: #000000; stroke-width: 2"/>
    <path d="M 254.541358 148.413675 
L 250.321798 156.437813 
L 240.71866 161.743391 
L 231.07395 164.593495 
L 226.667315 165.141592 
L 222.36461 170.425246 
L 212.574398 178.186298 
L 201.786458 184.544221 
L 194.615283 185.530796 
L 207.294751 168.145163 
L 210.766015 159.507156 
L 208.895274 148.413675 
L 211.160949 148.413675 
L 212.61597 149.202934 
L 213.821559 150.430671 
L 215.526012 151.746104 
L 243.919706 151.132236 
L 254.541358 148.413675 
" clip-path="url(#p5accc83263)" style="fill: none; stroke: #000000; stroke-width: 2"/>
    <path d="M 275.472874 28.731239 
L 282.78955 46.73074 
L 278.299771 46.423806 
L 249.178567 34.014893 
L 226.708887 33.006394 
L 217.438325 29.805509 
L 212.387324 23.009107 
L 257.472186 22.176 
L 275.472874 28.731239 
" clip-path="url(#p5accc83263)" style="fill: none; stroke: #000000; stroke-width: 2"/>
   </g>
  </g>
 </g>
 <defs>
  <clipPath id="p5accc83263">
   <rect x="0" y="-0" width="308.497691" height="266.112"/>
  </clipPath>
 </defs>
</svg>
