<?xml version="1.0" encoding="utf-8" standalone="no"?>
<!DOCTYPE svg PUBLIC "-//W3C//DTD SVG 1.1//EN"
  "http://www.w3.org/Graphics/SVG/1.1/DTD/svg11.dtd">
<svg xmlns:xlink="http://www.w3.org/1999/xlink" width="173.320481pt" height="266.112pt" viewBox="0 0 173.320481 266.112" xmlns="http://www.w3.org/2000/svg" version="1.1">
 <metadata>
  <rdf:RDF xmlns:dc="http://purl.org/dc/elements/1.1/" xmlns:cc="http://creativecommons.org/ns#" xmlns:rdf="http://www.w3.org/1999/02/22-rdf-syntax-ns#">
   <cc:Work>
    <dc:type rdf:resource="http://purl.org/dc/dcmitype/StillImage"/>
    <dc:date>2024-02-02T21:58:06.358508</dc:date>
    <dc:format>image/svg+xml</dc:format>
    <dc:creator>
     <cc:Agent>
      <dc:title>Matplotlib v3.8.2, https://matplotlib.org/</dc:title>
     </cc:Agent>
    </dc:creator>
   </cc:Work>
  </rdf:RDF>
 </metadata>
 <defs>
  <style type="text/css">*{stroke-linejoin: round; stroke-linecap: butt}</style>
 </defs>
 <g id="figure_1">
  <g id="patch_1">
   <path d="M 0 266.112 
L 173.320481 266.112 
L 173.320481 0 
L 0 0 
L 0 266.112 
z
" style="fill: none"/>
  </g>
  <g id="axes_1">
   <g id="PatchCollection_1">
    <path d="M 107.530492 217.936165 
L 113.845199 220.16692 
L 117.039124 221.859217 
L 119.818571 224.397663 
L 126.669662 218.692571 
L 137.433922 216.346432 
L 149.173426 216.987453 
L 158.877107 220.089998 
L 158.877107 222.24383 
L 151.148296 223.077158 
L 144.711683 225.192529 
L 132.094459 231.038646 
L 125.584703 233.077095 
L 63.912688 241.936013 
L 58.280652 243.936 
L 60.474952 238.538598 
L 60.840668 233.961704 
L 60.523714 221.089991 
L 61.438005 217.115658 
L 63.888307 214.602853 
L 75.201141 218.07719 
L 81.564611 215.154132 
L 88.14751 210.923389 
L 95.291175 209.320835 
L 96.034799 210.141343 
L 107.530492 217.936165 
" clip-path="url(#p5249f92b21)" style="fill: none; stroke: #000000; stroke-width: 2"/>
    <path d="M 127.370336 34.675461 
L 128.620006 37.890502 
L 124.503655 38.602655 
L 116.455474 35.92037 
L 114.308238 36.812358 
L 117.525145 41.098968 
L 115.553224 48.418133 
L 105.898668 43.237317 
L 90.87795 44.665053 
L 86.408632 40.559237 
L 90.878471 33.779126 
L 95.886658 31.631262 
L 101.253175 30.024346 
L 100.00173 27.702999 
L 102.685516 26.2747 
L 112.703028 28.954957 
L 117.533009 29.849554 
L 122.004334 31.815891 
L 127.370336 34.675461 
" clip-path="url(#p5249f92b21)" style="fill: none; stroke: #000000; stroke-width: 2"/>
    <path d="M 48.2942 24.138609 
L 59.399706 30.566561 
L 70.320747 36.817273 
L 74.785969 43.950639 
L 71.391976 44.488598 
L 68.724418 43.603513 
L 65.331536 44.853697 
L 63.17379 48.061957 
L 53.688988 44.49618 
L 50.285294 42.354636 
L 47.596445 36.999724 
L 46.341399 39.855658 
L 43.476431 37.893302 
L 37.032347 39.146983 
L 32.374239 38.257507 
L 28.785714 34.32989 
L 19.292173 37.196402 
L 14.443373 32.554744 
L 23.318141 27.847629 
L 30.876285 25.886103 
L 41.853659 26.286037 
L 46.354286 29.510501 
L 49.038837 28.617724 
L 44.175954 24.853968 
L 41.845865 22.176 
L 48.2942 24.138609 
" clip-path="url(#p5249f92b21)" style="fill: none; stroke: #000000; stroke-width: 2"/>
   </g>
  </g>
 </g>
 <defs>
  <clipPath id="p5249f92b21">
   <rect x="0" y="-0" width="173.320481" height="266.112"/>
  </clipPath>
 </defs>
</svg>
