<?xml version="1.0" encoding="utf-8" standalone="no"?>
<!DOCTYPE svg PUBLIC "-//W3C//DTD SVG 1.1//EN"
  "http://www.w3.org/Graphics/SVG/1.1/DTD/svg11.dtd">
<svg xmlns:xlink="http://www.w3.org/1999/xlink" width="127.118222pt" height="266.112pt" viewBox="0 0 127.118222 266.112" xmlns="http://www.w3.org/2000/svg" version="1.1">
 <metadata>
  <rdf:RDF xmlns:dc="http://purl.org/dc/elements/1.1/" xmlns:cc="http://creativecommons.org/ns#" xmlns:rdf="http://www.w3.org/1999/02/22-rdf-syntax-ns#">
   <cc:Work>
    <dc:type rdf:resource="http://purl.org/dc/dcmitype/StillImage"/>
    <dc:date>2024-02-02T21:58:06.385515</dc:date>
    <dc:format>image/svg+xml</dc:format>
    <dc:creator>
     <cc:Agent>
      <dc:title>Matplotlib v3.8.2, https://matplotlib.org/</dc:title>
     </cc:Agent>
    </dc:creator>
   </cc:Work>
  </rdf:RDF>
 </metadata>
 <defs>
  <style type="text/css">*{stroke-linejoin: round; stroke-linecap: butt}</style>
 </defs>
 <g id="figure_1">
  <g id="patch_1">
   <path d="M 0 266.112 
L 127.118222 266.112 
L 127.118222 0 
L 0 0 
L 0 266.112 
z
" style="fill: none"/>
  </g>
  <g id="axes_1">
   <g id="PatchCollection_1">
    <path d="M 76.137264 241.120576 
L 76.096234 241.129721 
L 75.950869 241.120576 
L 76.023552 241.212026 
L 76.037619 241.255921 
L 76.049342 241.325423 
L 75.711722 241.360783 
L 75.716411 241.525392 
L 75.862948 241.744261 
L 75.950869 241.938744 
L 75.767992 241.864975 
L 75.616767 241.8729 
L 75.472575 241.914357 
L 75.307282 241.938744 
L 75.180674 242.00093 
L 75.153712 242.147249 
L 75.16309 242.316735 
L 75.153712 242.450251 
L 75.166607 242.519143 
L 75.191225 242.585596 
L 75.137299 242.634979 
L 74.90753 242.655098 
L 74.836021 242.589254 
L 74.610941 242.285642 
L 74.565221 242.194193 
L 74.729342 241.832663 
L 75.118543 241.437601 
L 75.588632 241.104115 
L 75.988383 240.923045 
L 76.049342 240.946822 
L 76.098578 240.975476 
L 76.13023 241.027298 
L 76.137264 241.120576 
" clip-path="url(#pf52bcc76bb)" style="fill: none; stroke: #000000; stroke-width: 2"/>
    <path d="M 69.539609 228.12378 
L 69.722487 228.310337 
L 70.527851 228.501771 
L 70.710728 228.640774 
L 70.691972 229.015107 
L 70.601705 229.28092 
L 70.39421 229.418704 
L 70.021421 229.411388 
L 70.021421 229.318719 
L 70.094103 229.034616 
L 69.877229 228.716372 
L 69.564228 228.440805 
L 69.342665 228.28656 
L 69.235986 228.379838 
L 69.451688 228.657845 
L 69.694352 228.849279 
L 69.768206 228.959018 
L 69.486856 228.993159 
L 69.336803 228.861472 
L 68.843269 228.072568 
L 68.483375 227.622637 
L 68.319254 227.351946 
L 68.252434 227.101375 
L 68.199681 226.775205 
L 68.070729 226.539875 
L 67.760072 226.120427 
L 67.850338 226.026539 
L 67.883162 226.103356 
L 67.930054 226.149691 
L 68.047283 226.231386 
L 68.743624 227.2544 
L 69.434103 227.955513 
L 69.539609 228.12378 
" clip-path="url(#pf52bcc76bb)" style="fill: none; stroke: #000000; stroke-width: 2"/>
    <path d="M 74.342486 224.870618 
L 74.220568 225.003524 
L 74.009555 224.875495 
L 73.661385 224.313386 
L 73.253428 224.08781 
L 72.588739 223.450713 
L 72.588739 223.357434 
L 72.654387 223.40133 
L 72.884156 223.450713 
L 73.50547 223.902473 
L 73.678969 224.074398 
L 74.153747 224.571883 
L 74.342486 224.870618 
" clip-path="url(#pf52bcc76bb)" style="fill: none; stroke: #000000; stroke-width: 2"/>
    <path d="M 77.139573 219.010537 
L 76.935594 219.050165 
L 76.844155 218.982492 
L 76.722237 218.794106 
L 76.443232 218.671564 
L 74.565221 218.31796 
L 73.875914 218.010689 
L 74.097477 217.9924 
L 74.583978 218.205782 
L 74.973179 218.294792 
L 76.628454 218.314911 
L 76.935594 218.419164 
L 77.262663 218.500859 
L 77.388098 218.584992 
L 77.43499 218.782523 
L 77.343551 218.906894 
L 77.139573 219.010537 
" clip-path="url(#pf52bcc76bb)" style="fill: none; stroke: #000000; stroke-width: 2"/>
    <path d="M 37.762315 215.686654 
L 37.940503 215.862237 
L 37.834997 215.759814 
L 38.875991 216.885251 
L 38.925228 217.1407 
L 38.925228 218.726434 
L 38.366045 220.18048 
L 38.176134 221.005354 
L 38.432865 221.405293 
L 38.327359 221.722318 
L 38.330876 221.903388 
L 38.385974 222.064949 
L 38.432865 222.324665 
L 38.196062 222.192978 
L 38.139793 222.121038 
L 37.84672 221.987521 
L 37.654464 221.327256 
L 37.458691 220.065254 
L 37.075352 218.941035 
L 36.789313 218.457572 
L 36.375494 218.113113 
L 35.82569 217.827791 
L 35.640468 217.636356 
L 35.525583 217.041935 
L 35.476347 216.880984 
L 35.552546 216.837088 
L 36.458727 216.971824 
L 36.740077 216.954753 
L 36.860823 216.829162 
L 36.892475 216.758442 
L 37.047217 216.52616 
L 37.107004 216.475558 
L 37.234784 216.415811 
L 37.282848 216.27193 
L 37.305121 216.101225 
L 37.352013 215.955515 
L 37.455175 215.818341 
L 37.595849 215.700067 
L 37.762315 215.686654 
" clip-path="url(#pf52bcc76bb)" style="fill: none; stroke: #000000; stroke-width: 2"/>
    <path d="M 83.828666 215.880527 
L 83.951756 216.067084 
L 83.870868 216.028675 
L 83.83101 216.017701 
L 83.800531 216.003069 
L 83.747778 215.955515 
L 83.649305 215.955515 
L 83.614136 216.141463 
L 83.509802 216.219499 
L 83.403124 216.284124 
L 83.29879 216.584078 
L 83.167493 216.668211 
L 82.861525 216.773073 
L 82.661064 216.961459 
L 82.358613 217.422365 
L 82.165185 217.601606 
L 81.971757 216.860865 
L 82.052645 216.585297 
L 82.636446 216.431053 
L 83.065504 216.202429 
L 83.156943 216.113418 
L 83.167493 215.958564 
L 83.206179 215.767129 
L 83.275344 215.591547 
L 83.387884 215.483027 
L 83.828666 215.880527 
" clip-path="url(#pf52bcc76bb)" style="fill: none; stroke: #000000; stroke-width: 2"/>
    <path d="M 80.161739 214.847148 
L 80.093746 215.302566 
L 79.786606 216.067084 
L 79.893284 216.067084 
L 79.991757 215.862237 
L 80.301242 216.067084 
L 80.461846 216.204868 
L 80.582592 216.373135 
L 79.879217 216.548108 
L 79.592006 216.679795 
L 79.400922 216.885251 
L 79.295416 216.885251 
L 79.295416 216.612122 
L 79.226251 216.405447 
L 79.14419 216.235351 
L 79.098471 216.067084 
L 79.137157 215.793955 
L 79.35872 215.472662 
L 79.400922 215.239161 
L 79.295416 215.239161 
L 79.295416 215.452543 
L 79.172325 215.101377 
L 79.301277 214.87946 
L 79.566215 214.738018 
L 79.865149 214.634985 
L 80.161739 214.847148 
" clip-path="url(#pf52bcc76bb)" style="fill: none; stroke: #000000; stroke-width: 2"/>
    <path d="M 109.232214 214.688026 
L 109.154842 214.909334 
L 108.858253 214.889215 
L 108.714061 214.73436 
L 108.653102 214.49964 
L 108.70351 214.280771 
L 108.892249 214.17408 
L 109.129052 214.389901 
L 109.232214 214.688026 
" clip-path="url(#pf52bcc76bb)" style="fill: none; stroke: #000000; stroke-width: 2"/>
    <path d="M 79.786606 213.750364 
L 79.822947 213.914973 
L 79.885078 214.078363 
L 79.896801 214.217366 
L 79.786606 214.308816 
L 79.710407 214.258823 
L 79.627174 214.113723 
L 79.499395 213.806453 
L 79.400922 213.806453 
L 79.437263 213.99301 
L 79.569732 214.267358 
L 79.597867 214.467328 
L 79.513462 214.624621 
L 79.323551 214.570971 
L 79.119572 214.42648 
L 78.999999 214.308816 
L 78.978897 214.2637 
L 78.834706 214.027761 
L 78.803054 214.0113 
L 78.834706 213.877174 
L 78.968347 213.75707 
L 78.999999 213.64916 
L 79.055096 213.339451 
L 79.007032 213.1974 
L 78.803054 213.080954 
L 78.803054 212.988895 
L 78.961313 212.944999 
L 79.147707 212.921222 
L 79.295416 212.937683 
L 79.320034 213.045594 
L 79.654137 213.273608 
L 79.725647 213.397979 
L 79.788951 213.435168 
L 79.858116 213.463823 
L 79.893284 213.490648 
L 79.903835 213.602826 
L 79.863977 213.661963 
L 79.812396 213.700372 
L 79.786606 213.750364 
" clip-path="url(#pf52bcc76bb)" style="fill: none; stroke: #000000; stroke-width: 2"/>
    <path d="M 78.94959 215.147712 
L 79.098471 215.452543 
L 79.098471 215.545822 
L 78.865185 215.487294 
L 78.669413 215.403161 
L 78.493569 215.365971 
L 78.310691 215.452543 
L 78.39158 215.494 
L 78.412681 215.49461 
L 78.433782 215.473272 
L 78.507636 215.452543 
L 78.729199 215.663487 
L 78.887459 215.974415 
L 78.876908 216.25486 
L 78.606109 216.373135 
L 78.264972 216.230473 
L 77.908596 215.893939 
L 77.606144 215.487294 
L 77.43499 215.136128 
L 77.382237 214.89836 
L 77.376375 214.719119 
L 77.43499 214.308816 
L 77.416233 214.30028 
L 77.382237 214.195418 
L 77.336518 213.955211 
L 77.385754 213.908877 
L 77.627246 213.869858 
L 77.719857 213.806453 
L 77.825363 213.433339 
L 77.723374 213.08766 
L 77.336518 212.467633 
L 77.664759 212.463975 
L 77.800745 212.511529 
L 77.929697 212.638339 
L 78.060993 212.859037 
L 78.145398 212.950486 
L 78.536944 213.063884 
L 78.717476 213.246783 
L 78.803054 213.478454 
L 78.803054 213.694885 
L 78.701064 213.790602 
L 78.634244 213.892416 
L 78.606109 214.062512 
L 78.640105 214.127136 
L 78.799537 214.367953 
L 78.855807 214.420994 
L 79.003515 214.51854 
L 79.063302 214.724606 
L 78.956624 214.907505 
L 78.606109 214.931891 
L 78.606109 215.034315 
L 78.834706 215.045288 
L 78.94959 215.147712 
" clip-path="url(#pf52bcc76bb)" style="fill: none; stroke: #000000; stroke-width: 2"/>
    <path d="M 114.450081 189.162654 
L 114.563794 189.212037 
L 114.648198 189.283368 
L 114.706813 189.36994 
L 114.745499 189.468705 
L 114.681023 189.526623 
L 114.523936 189.636972 
L 114.450081 189.673552 
L 114.37271 189.574787 
L 114.280099 189.518698 
L 114.172248 189.51504 
L 114.047985 189.571129 
L 114.090188 189.602831 
L 114.108945 189.600392 
L 114.123012 189.610147 
L 114.14763 189.673552 
L 113.862763 189.646727 
L 113.598998 189.501017 
L 113.386813 189.31446 
L 113.253172 189.162654 
L 113.253172 189.060231 
L 113.3493 189.091324 
L 113.556795 189.128513 
L 113.655268 189.162654 
L 113.649406 189.109614 
L 113.655268 188.948663 
L 113.919033 189.056573 
L 114.450081 189.162654 
" clip-path="url(#pf52bcc76bb)" style="fill: none; stroke: #000000; stroke-width: 2"/>
    <path d="M 115.554379 183.925649 
L 115.485214 184.118302 
L 115.250756 184.041485 
L 114.724397 183.664713 
L 114.639992 183.542781 
L 114.552071 183.439138 
L 114.376227 183.392194 
L 114.214451 183.273309 
L 114.334024 183.068463 
L 114.706813 183.022738 
L 115.033882 183.072121 
L 115.239033 183.132477 
L 115.343367 183.285503 
L 115.386742 183.459866 
L 115.49811 183.746408 
L 115.554379 183.925649 
" clip-path="url(#pf52bcc76bb)" style="fill: none; stroke: #000000; stroke-width: 2"/>
    <path d="M 86.447564 60.434745 
L 86.434669 60.637153 
L 86.386605 60.663368 
L 86.315095 60.567651 
L 86.223656 60.518878 
L 86.1076 60.538387 
L 85.955202 60.462789 
L 85.837973 60.200634 
L 85.822733 59.988471 
L 85.879003 59.989691 
L 86.053674 60.187222 
L 86.234207 60.238433 
L 86.400672 60.343295 
L 86.447564 60.434745 
" clip-path="url(#pf52bcc76bb)" style="fill: none; stroke: #000000; stroke-width: 2"/>
    <path d="M 80.829945 59.851297 
L 80.983515 59.997007 
L 81.073782 59.997007 
L 81.089021 59.745826 
L 81.23673 59.694004 
L 81.427813 59.767164 
L 81.57435 59.894583 
L 81.57435 59.997007 
L 81.52863 60.156738 
L 81.700957 60.268307 
L 81.931899 60.322567 
L 82.066712 60.304277 
L 82.165185 60.304277 
L 82.220282 60.405481 
L 82.284758 60.491443 
L 82.362129 60.562774 
L 82.460602 60.620082 
L 82.159323 60.549971 
L 82.066712 60.509124 
L 82.066712 60.620082 
L 82.13705 60.668855 
L 82.179252 60.710312 
L 82.263657 60.815174 
L 82.093675 60.785911 
L 81.990513 60.685926 
L 81.861561 60.415236 
L 81.80998 60.542655 
L 81.81467 60.652394 
L 81.869767 60.744454 
L 81.96824 60.815174 
L 81.96824 60.917598 
L 81.778328 60.987099 
L 81.636481 60.987099 
L 81.511046 60.927352 
L 81.369199 60.815174 
L 81.440709 61.132199 
L 81.880318 61.379722 
L 81.96824 61.643097 
L 81.861561 61.643097 
L 81.861561 61.541283 
L 81.771295 61.541283 
L 81.70213 61.80039 
L 81.57435 62.061326 
L 81.57435 61.735766 
L 81.468844 61.773565 
L 81.426641 61.80039 
L 81.369199 61.847944 
L 81.369199 61.735766 
L 81.278932 61.847944 
L 81.215629 61.771126 
L 81.172254 61.735766 
L 81.172254 61.643097 
L 81.475877 61.643097 
L 81.475877 61.541283 
L 81.418435 61.507752 
L 81.40554 61.49312 
L 81.402023 61.47544 
L 81.369199 61.429715 
L 81.278932 61.429715 
L 81.278932 61.541283 
L 81.172254 61.541283 
L 81.123018 61.471782 
L 81.033924 61.391916 
L 80.983515 61.327291 
L 80.878009 61.327291 
L 80.942485 61.488242 
L 80.983515 61.541283 
L 80.983515 61.643097 
L 80.695132 61.446785 
L 80.368062 61.001731 
L 80.188702 60.815174 
L 79.772538 60.557897 
L 79.611935 60.348782 
L 79.654137 60.073824 
L 79.991757 59.957379 
L 80.090229 59.894583 
L 80.142982 59.794599 
L 80.139466 59.684859 
L 80.161739 59.573901 
L 80.29538 59.476354 
L 80.188702 59.587923 
L 80.385647 59.786063 
L 80.829945 59.851297 
" clip-path="url(#pf52bcc76bb)" style="fill: none; stroke: #000000; stroke-width: 2"/>
    <path d="M 85.894243 59.305649 
L 85.970441 59.33918 
L 86.030228 59.3215 
L 86.181454 59.301991 
L 86.41474 59.309916 
L 86.561276 59.35808 
L 86.602306 59.449529 
L 86.567138 59.509276 
L 86.526107 59.551343 
L 86.526107 59.584874 
L 86.52728 59.616577 
L 86.4968 59.653157 
L 86.304544 59.7379 
L 86.206072 59.751922 
L 86.111116 59.732413 
L 86.011472 59.656815 
L 85.857901 59.467819 
L 85.815699 59.497083 
L 85.741845 59.473916 
L 85.699642 59.378808 
L 85.718399 59.30443 
L 85.79577 59.272727 
L 85.894243 59.305649 
" clip-path="url(#pf52bcc76bb)" style="fill: none; stroke: #000000; stroke-width: 2"/>
    <path d="M 78.606109 59.43002 
L 78.684652 59.637306 
L 79.203977 60.304277 
L 79.274315 60.684707 
L 79.08792 60.783472 
L 78.838222 60.73348 
L 78.712787 60.667026 
L 78.641278 60.422551 
L 78.352894 59.825082 
L 78.310691 59.476354 
L 78.23332 59.606213 
L 78.211047 59.7379 
L 78.239182 59.869587 
L 78.310691 59.997007 
L 78.204013 59.997007 
L 78.018791 59.88239 
L 77.796056 59.842152 
L 77.606144 59.748874 
L 77.533462 59.476354 
L 77.648347 59.053858 
L 77.818329 58.666722 
L 78.382201 58.900833 
L 78.546322 59.092267 
L 78.606109 59.43002 
" clip-path="url(#pf52bcc76bb)" style="fill: none; stroke: #000000; stroke-width: 2"/>
    <path d="M 87.783976 60.409139 
L 87.59172 60.415236 
L 87.827351 59.884829 
L 87.851969 59.64706 
L 87.690192 59.476354 
L 87.690192 59.383076 
L 87.989127 59.371492 
L 88.193105 59.317232 
L 88.344331 59.193471 
L 88.477972 58.973992 
L 88.826143 58.287512 
L 88.878896 58.044256 
L 88.924615 58.09181 
L 88.946889 58.138754 
L 88.96799 58.248493 
L 88.882413 58.589904 
L 88.762839 58.841695 
L 88.080565 59.829959 
L 87.992644 59.997007 
L 87.890654 60.301229 
L 87.783976 60.409139 
" clip-path="url(#pf52bcc76bb)" style="fill: none; stroke: #000000; stroke-width: 2"/>
    <path d="M 92.330121 57.746131 
L 92.330121 57.839409 
L 92.180067 57.780882 
L 92.133176 57.746131 
L 92.044082 57.746131 
L 92.116764 58.040598 
L 92.01243 58.271051 
L 91.801417 58.443585 
L 91.544686 58.564299 
L 91.816657 58.064375 
L 91.840103 57.890621 
L 91.762732 57.799781 
L 91.61854 57.718696 
L 91.535307 57.581522 
L 91.643158 57.327902 
L 91.829552 57.381552 
L 92.330121 57.746131 
" clip-path="url(#pf52bcc76bb)" style="fill: none; stroke: #000000; stroke-width: 2"/>
    <path d="M 92.828344 57.793685 
L 92.688842 57.805878 
L 92.67243 57.542503 
L 92.803726 57.255962 
L 93.040529 57.09684 
L 93.244508 57.13159 
L 93.194099 57.33156 
L 93.073353 57.452273 
L 92.828344 57.793685 
" clip-path="url(#pf52bcc76bb)" style="fill: none; stroke: #000000; stroke-width: 2"/>
    <path d="M 88.583478 57.021851 
L 88.583478 57.327902 
L 88.780423 57.107204 
L 88.864828 57.057212 
L 88.95275 57.109643 
L 88.897652 57.307173 
L 88.674917 57.839409 
L 88.527208 58.365548 
L 88.432253 58.582588 
L 88.281027 58.769145 
L 88.077049 58.883762 
L 87.844935 58.940461 
L 87.493248 58.973992 
L 86.846143 59.136163 
L 86.599962 59.169084 
L 86.599962 59.075806 
L 87.021987 58.898394 
L 87.408843 58.678915 
L 87.741773 58.428344 
L 87.992644 58.155824 
L 87.953958 57.988777 
L 88.003194 57.758324 
L 88.18021 57.327902 
L 88.242342 57.369359 
L 88.397084 57.429716 
L 88.438114 57.296199 
L 88.583478 57.021851 
" clip-path="url(#pf52bcc76bb)" style="fill: none; stroke: #000000; stroke-width: 2"/>
    <path d="M 89.40291 57.508362 
L 89.258718 57.882695 
L 88.96799 57.839409 
L 89.12156 57.780882 
L 89.141489 57.687603 
L 89.103976 57.555916 
L 89.075841 57.379114 
L 89.12156 57.230356 
L 89.324366 57.035264 
L 89.371258 56.866997 
L 89.394704 56.531682 
L 89.424011 56.404872 
L 89.46973 56.295742 
L 89.522483 56.221973 
L 89.858931 55.891536 
L 89.959748 55.82935 
L 90.014846 55.849469 
L 90.011329 55.952502 
L 89.494348 57.043799 
L 89.40291 57.508362 
" clip-path="url(#pf52bcc76bb)" style="fill: none; stroke: #000000; stroke-width: 2"/>
    <path d="M 88.529553 54.583809 
L 88.583478 54.649652 
L 88.674917 54.649652 
L 88.773389 54.592954 
L 89.272785 54.45395 
L 89.598682 54.344211 
L 89.642057 54.372256 
L 89.575237 54.556374 
L 89.41346 54.737444 
L 88.938682 55.056298 
L 88.790974 55.281873 
L 88.674917 55.281873 
L 88.460388 55.2331 
L 88.172004 55.536712 
L 87.690192 56.193319 
L 87.530761 56.278062 
L 87.180246 56.409749 
L 87.000885 56.509734 
L 86.508523 56.918208 
L 86.281099 56.737748 
L 86.378399 56.402433 
L 86.589411 56.02932 
L 86.707813 55.733023 
L 86.735948 55.560489 
L 86.8649 55.137992 
L 86.935237 54.683184 
L 87.032537 54.681964 
L 87.138043 54.805116 
L 87.180246 54.794142 
L 87.195486 54.667333 
L 87.264651 54.584418 
L 87.394775 54.556374 
L 87.331471 54.452731 
L 87.317404 54.221669 
L 87.342022 53.836971 
L 87.378363 53.654682 
L 87.415876 53.562623 
L 87.468629 53.499218 
L 87.523727 53.476051 
L 87.579997 53.473612 
L 87.638612 53.487025 
L 87.699571 53.517508 
L 87.847279 53.632734 
L 88.18021 54.045476 
L 88.276338 54.11193 
L 88.372466 54.130219 
L 88.44632 54.171067 
L 88.477972 54.301535 
L 88.481489 54.423467 
L 88.495556 54.513697 
L 88.529553 54.583809 
" clip-path="url(#pf52bcc76bb)" style="fill: none; stroke: #000000; stroke-width: 2"/>
    <path d="M 92.568096 52.42865 
L 91.15783 53.021852 
L 91.200032 52.983443 
L 91.365325 52.783474 
L 92.202341 52.290866 
L 92.437971 52.199417 
L 92.627883 52.22868 
L 92.658362 52.264651 
L 92.695875 52.325007 
L 92.712288 52.382316 
L 92.679463 52.407921 
L 92.568096 52.42865 
" clip-path="url(#pf52bcc76bb)" style="fill: none; stroke: #000000; stroke-width: 2"/>
    <path d="M 95.290156 51.673887 
L 94.730973 52.028711 
L 94.510582 52.114673 
L 94.395698 51.990302 
L 94.305431 51.990302 
L 94.196408 52.047001 
L 93.2152 52.379877 
L 93.026462 52.407921 
L 93.06163 52.253677 
L 93.127279 52.082361 
L 93.20465 52.232338 
L 93.225751 52.296963 
L 93.289055 52.17503 
L 93.37346 52.0848 
L 93.482483 52.023224 
L 93.185893 52.006763 
L 92.821311 52.082361 
L 92.821311 51.990302 
L 93.299605 51.843373 
L 93.422696 51.785455 
L 95.290156 51.580609 
L 95.290156 51.673887 
" clip-path="url(#pf52bcc76bb)" style="fill: none; stroke: #000000; stroke-width: 2"/>
    <path d="M 57.71029 23.53717 
L 58.305814 23.651375 
L 58.925158 24.74968 
L 59.709017 25.333869 
L 59.803556 25.622285 
L 59.87353 26.533216 
L 60.044743 26.769756 
L 60.252432 26.853377 
L 62.04347 27.005135 
L 63.135512 27.736435 
L 63.32608 28.021754 
L 64.399512 29.092572 
L 64.582635 28.936556 
L 64.718117 28.73873 
L 65.117118 28.780153 
L 65.709664 28.747247 
L 66.129509 28.564519 
L 66.493523 28.032981 
L 67.62204 27.948198 
L 68.953781 28.173124 
L 69.419778 28.458056 
L 69.716796 28.976819 
L 69.875354 29.70386 
L 70.488743 29.895879 
L 71.051513 29.854456 
L 73.328648 29.205616 
L 73.389689 28.86842 
L 73.531126 28.781315 
L 74.88371 29.233103 
L 75.296854 29.868393 
L 75.721909 29.86065 
L 75.966074 29.612109 
L 76.219172 29.739476 
L 76.374008 29.938077 
L 76.802785 30.269466 
L 77.025362 30.69609 
L 77.882172 30.702671 
L 78.01021 30.89469 
L 77.905993 31.078193 
L 77.25985 31.494364 
L 77.157866 31.757617 
L 76.971021 32.499369 
L 76.554898 33.194665 
L 76.302545 33.965066 
L 76.125377 34.119921 
L 75.81496 34.124566 
L 75.580472 33.955001 
L 75.257401 33.507471 
L 74.974527 33.540765 
L 74.697608 34.037848 
L 74.303074 35.690919 
L 74.09464 36.080377 
L 74.204068 36.690504 
L 74.309029 37.47639 
L 74.504063 37.673055 
L 74.822668 37.783776 
L 75.396604 37.810875 
L 75.718932 38.201883 
L 76.019671 39.449235 
L 75.718932 39.786818 
L 75.848458 40.173954 
L 76.033071 40.604449 
L 76.030837 41.05043 
L 76.187162 41.261032 
L 76.125377 42.00743 
L 75.841014 42.841321 
L 75.996595 43.204454 
L 76.222149 43.213746 
L 76.44026 43.053471 
L 77.002286 42.522321 
L 77.284415 42.647753 
L 77.466794 42.870743 
L 78.015421 43.057343 
L 78.961559 43.125479 
L 79.762539 43.891234 
L 80.243424 43.710828 
L 80.495033 43.608624 
L 80.792795 43.615593 
L 81.044404 43.734057 
L 81.200729 43.951627 
L 81.214128 44.261336 
L 80.752597 45.280278 
L 80.951353 45.48546 
L 82.27565 45.95854 
L 83.392257 46.916315 
L 83.965449 47.063426 
L 84.837147 46.867536 
L 85.27709 47.311193 
L 85.714702 48.452819 
L 85.924722 48.64991 
L 86.424962 48.357235 
L 87.04654 47.860152 
L 87.333136 47.936805 
L 87.493183 48.168313 
L 87.550502 48.694818 
L 88.253965 48.913162 
L 88.375303 48.829541 
L 88.588203 48.510541 
L 88.846511 48.478021 
L 89.742775 48.556223 
L 90.852682 48.269742 
L 91.638774 47.778079 
L 92.115193 47.801308 
L 92.899796 48.050623 
L 93.818391 49.098213 
L 94.510688 49.677369 
L 95.188166 50.353357 
L 94.882198 50.501505 
L 94.301914 50.99838 
L 94.108486 50.614293 
L 94.285502 50.280197 
L 94.013531 49.741255 
L 93.613779 49.627858 
L 93.62433 49.801002 
L 93.419179 49.934518 
L 93.338291 49.685776 
L 93.239819 49.824779 
L 93.123762 50.241789 
L 92.951435 50.313119 
L 92.849446 50.214354 
L 92.729872 49.738817 
L 92.620849 49.934518 
L 92.706426 50.044867 
L 92.729872 50.241789 
L 92.620849 50.241789 
L 92.532927 50.036942 
L 92.434455 50.14851 
L 92.379357 49.846727 
L 92.195307 49.774177 
L 91.745147 49.934518 
L 91.745147 50.036942 
L 92.15076 50.092421 
L 92.326604 50.436271 
L 92.129659 50.353357 
L 92.161311 50.450903 
L 92.23751 50.761831 
L 91.96671 50.802069 
L 91.836586 50.966678 
L 91.932714 51.059347 
L 91.692394 51.46904 
L 91.243407 51.525129 
L 91.159002 51.653159 
L 90.765112 51.587925 
L 90.547066 51.46904 
L 90.457972 51.673887 
L 90.552927 51.854957 
L 90.466178 51.965306 
L 90.276267 51.983596 
L 90.057048 51.887879 
L 90.0887 52.004934 
L 90.162554 52.194539 
L 90.001951 52.318911 
L 90.162554 52.501809 
L 90.067599 52.515222 
L 89.860103 52.603014 
L 89.944508 52.638374 
L 89.966782 52.705437 
L 89.899961 52.674954 
L 89.670192 52.603014 
L 89.54124 53.153539 
L 89.416977 53.226699 
L 89.00902 53.164513 
L 88.787457 52.910284 
L 88.618647 52.455475 
L 88.433425 52.407921 
L 88.428736 52.471326 
L 88.527208 52.787132 
L 88.474455 53.021852 
L 88.651471 53.105986 
L 88.495556 53.153539 
L 87.711294 53.07977 
L 86.891862 52.705437 
L 86.801596 52.910284 
L 86.902413 53.00722 
L 87.292786 53.319977 
L 87.011436 53.440691 
L 86.550726 53.428497 
L 86.202555 53.635783 
L 86.251791 53.833923 
L 86.104083 54.045476 
L 86.125184 54.849012 
L 86.378399 54.918514 
L 86.505006 54.863644 
L 86.318612 55.889707 
L 86.104083 56.100041 
L 86.146285 56.365244 
L 86.013816 56.398166 
L 86.301028 57.216943 
L 85.718399 57.542503 
L 84.13815 57.65651 
L 83.951756 57.746131 
L 84.072502 57.806487 
L 84.238968 57.941833 
L 84.004509 58.00097 
L 83.695024 58.338723 
L 83.747778 58.564299 
L 83.05847 58.666722 
L 82.836907 58.456998 
L 81.861561 58.248493 
L 81.861561 58.155824 
L 82.281241 57.622979 
L 83.05847 57.021851 
L 82.51101 57.134029 
L 82.304687 57.314489 
L 82.241383 57.506533 
L 82.058506 57.49373 
L 82.066712 57.123055 
L 81.820531 57.490072 
L 81.739643 57.4224 
L 81.771295 57.123055 
L 81.631792 57.541284 
L 81.57435 57.634562 
L 81.5849 57.420571 
L 81.455948 57.148051 
L 81.278932 57.123055 
L 81.278932 57.216943 
L 81.475877 57.429716 
L 81.430158 57.435203 
L 81.278932 57.429716 
L 81.475877 57.634562 
L 81.134741 57.565061 
L 80.878009 57.327902 
L 80.844012 57.533968 
L 81.209767 57.833922 
L 81.278932 58.044256 
L 81.151153 58.264344 
L 80.651757 58.38018 
L 79.928453 58.238129 
L 79.597867 58.044256 
L 79.085576 57.672971 
L 78.999999 57.839409 
L 78.943729 57.755885 
L 78.803054 57.746131 
L 79.400922 58.360671 
L 79.84522 58.664283 
L 79.935487 58.900833 
L 80.090229 59.075806 
L 79.493533 59.010572 
L 79.098471 58.564299 
L 79.158258 58.810602 
L 79.295416 58.973992 
L 79.007032 59.387344 
L 78.890976 59.287359 
L 78.78078 58.978869 
L 78.539288 58.66977 
L 78.409164 58.564299 
L 78.114919 58.647822 
L 77.786677 58.490529 
L 77.631935 58.268002 
L 78.127814 58.139363 
L 78.325931 57.989386 
L 78.213391 57.770517 
L 78.009413 57.601031 
L 78.204013 57.429716 
L 77.874599 57.217553 
L 77.719857 57.216943 
L 77.751509 57.268765 
L 77.818329 57.429716 
L 77.486571 57.400452 
L 77.031722 57.182802 
L 76.736304 57.429716 
L 76.844155 57.429716 
L 76.844155 57.542503 
L 75.993072 57.257791 
L 75.753925 57.327902 
L 75.906322 57.36753 
L 76.342415 57.634562 
L 76.246287 57.601641 
L 75.950869 57.542503 
L 75.950869 57.634562 
L 76.143125 57.930249 
L 76.246287 58.248493 
L 76.39634 58.338723 
L 76.75975 58.355794 
L 77.382237 58.550886 
L 77.40451 59.009962 
L 77.139573 59.383076 
L 76.844155 59.075806 
L 76.587424 59.386734 
L 76.696447 59.566585 
L 77.228667 59.894583 
L 77.350585 60.240872 
L 77.29666 60.561555 
L 77.114955 60.701777 
L 76.844155 60.509124 
L 77.141917 61.080378 
L 77.631935 61.541283 
L 77.719857 61.429715 
L 77.867565 61.667483 
L 78.113747 62.461265 
L 77.389271 61.985727 
L 76.832432 62.255199 
L 76.64721 62.257637 
L 76.049342 62.155214 
L 76.049342 62.257637 
L 76.629626 62.550885 
L 76.633143 62.729516 
L 76.151331 63.077024 
L 75.688276 63.202615 
L 75.324866 63.091656 
L 74.956767 62.675256 
L 75.138472 63.04776 
L 75.542912 63.622063 
L 75.45499 63.767163 
L 75.215843 63.856783 
L 74.895807 64.145154 
L 73.974387 64.507903 
L 74.436269 64.635933 
L 74.858294 64.414625 
L 74.858294 64.507903 
L 74.68245 64.74872 
L 74.923942 65.180971 
L 74.7692 65.464465 
L 74.239324 65.69004 
L 73.974387 66.060715 
L 74.063481 66.060715 
L 74.595701 65.794902 
L 74.920426 65.753445 
L 75.064617 65.897935 
L 74.919253 66.892296 
L 74.759822 67.092265 
L 74.663694 66.878883 
L 74.619147 66.987403 
L 74.565221 66.980697 
L 74.856136 67.365851 
L 74.981437 68.069169 
L 75.040766 68.486664 
L 74.883258 68.654974 
L 74.239324 67.981154 
L 74.018934 67.916529 
L 73.678969 67.994566 
L 73.749307 68.110402 
L 73.893499 68.201852 
L 74.063481 67.994566 
L 74.513641 68.451814 
L 74.748802 68.917185 
L 74.709762 69.137182 
L 74.297944 69.225998 
L 73.777747 69.361462 
L 71.988526 69.547988 
L 72.092859 69.654069 
L 71.593463 69.963778 
L 71.407069 70.366155 
L 70.905329 70.986183 
L 70.591155 71.195297 
L 70.239467 71.695221 
L 69.906537 71.893971 
L 69.342665 72.421939 
L 69.539609 72.012246 
L 69.432931 71.901287 
L 69.040213 72.72799 
L 68.822167 72.851752 
L 68.047283 73.137684 
L 67.965223 72.913328 
L 68.153961 72.114669 
L 68.002736 72.354876 
L 67.707318 73.137684 
L 67.264192 72.953565 
L 66.866786 72.625567 
L 66.624122 73.010874 
L 65.864477 73.729666 
L 65.776555 74.099122 
L 65.882061 74.476504 
L 65.526857 75.108724 
L 65.479965 75.704975 
L 65.435418 75.648276 
L 65.284193 75.500128 
L 64.987603 75.800082 
L 64.594886 76.011635 
L 64.685152 76.123813 
L 64.876236 76.034802 
L 65.479965 75.909212 
L 65.087248 76.685313 
L 64.995809 76.788346 
L 64.587852 76.792004 
L 63.970054 78.207641 
L 63.897372 78.792308 
L 63.876271 78.456384 
L 63.679326 78.411269 
L 63.49176 78.55454 
L 63.504655 78.792308 
L 63.562097 78.688056 
L 63.7016 78.475893 
L 63.821174 78.920337 
L 63.902062 79.554997 
L 63.740285 80.692628 
L 63.807106 81.255956 
L 63.603127 81.144998 
L 63.406182 81.554082 
L 63.209238 81.460803 
L 63.209238 81.554082 
L 63.434317 81.857084 
L 63.504655 82.278971 
L 63.807106 82.995935 
L 63.504655 82.791088 
L 63.539824 82.937407 
L 63.603127 83.106893 
L 63.778971 83.106893 
L 63.7016 83.516587 
L 63.349912 83.627546 
L 63.224477 84.060406 
L 62.808314 84.121373 
L 62.612541 85.590661 
L 62.716875 85.97109 
L 62.119007 86.380784 
L 61.726289 86.254584 
L 61.37343 86.616723 
L 60.947888 87.61718 
L 61.011192 87.951276 
L 61.437906 89.203524 
L 62.103767 89.682109 
L 62.42263 89.868666 
L 62.224513 90.081438 
L 62.080321 89.850376 
L 61.823589 89.775388 
L 62.11549 90.22288 
L 62.471866 90.239951 
L 62.931405 90.797793 
L 63.012293 91.011784 
L 62.861067 91.727529 
L 62.991191 91.8519 
L 62.971262 92.446931 
L 62.91382 92.648729 
L 63.191653 92.517042 
L 63.110765 91.207486 
L 63.385081 91.383069 
L 63.652364 92.609101 
L 63.997017 93.680889 
L 64.764868 94.923992 
L 65.284193 95.490978 
L 65.776555 95.522071 
L 65.911369 96.098203 
L 66.177479 96.55484 
L 66.620605 96.908445 
L 67.163375 97.601022 
L 68.090658 98.450892 
L 68.119965 98.640498 
L 67.850338 98.702683 
L 67.992185 98.810594 
L 69.114068 98.688051 
L 69.96984 99.326369 
L 70.405933 99.521461 
L 70.809201 100.042113 
L 71.48913 100.59081 
L 71.604014 100.86089 
L 71.498508 100.86089 
L 71.357833 100.77127 
L 71.006146 100.928563 
L 70.917052 101.073663 
L 71.167922 101.120607 
L 71.407069 101.073663 
L 71.350799 101.395565 
L 71.498508 101.688203 
L 71.502025 101.502866 
L 71.693108 101.073663 
L 71.939289 101.029157 
L 72.194849 101.073663 
L 72.316767 100.98831 
L 72.588739 100.656044 
L 72.768099 100.728594 
L 72.746998 100.882229 
L 72.588739 101.167551 
L 72.827886 101.800381 
L 74.063481 103.426962 
L 73.482024 103.845801 
L 73.06 104.349992 
L 72.785684 104.347553 
L 72.785684 104.459731 
L 73.001385 104.591418 
L 73.013108 105.153528 
L 73.348383 106.519783 
L 73.678969 106.914844 
L 73.555879 107.035558 
L 73.397619 107.021535 
L 72.968561 106.834369 
L 72.637975 106.403337 
L 72.419929 106.369806 
L 71.899431 106.096067 
L 70.612256 105.993643 
L 71.153854 106.272869 
L 72.687211 106.719142 
L 72.303872 106.602087 
L 72.022522 106.786815 
L 71.973286 107.092256 
L 72.391794 107.332463 
L 72.194849 107.026413 
L 72.518401 106.880094 
L 72.986145 106.944718 
L 73.770408 107.332463 
L 73.921634 107.525117 
L 74.269804 108.160386 
L 74.65666 108.601782 
L 75.521811 110.271039 
L 75.701171 110.536852 
L 76.063409 110.861193 
L 76.246287 111.127006 
L 77.508844 112.535328 
L 82.520389 116.23964 
L 82.741952 116.667014 
L 82.656375 117.284603 
L 82.819323 117.415071 
L 83.800531 118.846559 
L 83.596552 118.962395 
L 83.465255 119.151391 
L 82.951792 119.544014 
L 83.649305 119.441591 
L 83.638754 119.175777 
L 84.027955 118.941667 
L 84.500388 119.359896 
L 86.839109 121.307769 
L 88.080565 122.221654 
L 89.619784 123.620221 
L 90.060565 123.858599 
L 89.495521 123.697648 
L 87.732395 122.759377 
L 87.296303 122.836194 
L 88.745254 123.547061 
L 88.903514 123.606199 
L 89.186036 123.854941 
L 89.575237 123.906763 
L 90.060565 124.277438 
L 89.762803 124.165869 
L 89.673709 124.379861 
L 90.081666 124.366448 
L 90.461489 124.277438 
L 90.373567 124.372545 
L 90.25751 124.732856 
L 90.310263 124.717614 
L 90.602164 125.094996 
L 90.676018 125.03342 
L 90.951506 124.752975 
L 91.840103 125.607113 
L 92.170689 126.139349 
L 92.433282 126.31676 
L 92.745112 126.739257 
L 93.026462 126.855093 
L 92.993637 126.898989 
L 92.821311 126.946542 
L 92.384046 126.741696 
L 92.353566 126.863628 
L 92.610298 127.853111 
L 93.225751 128.175013 
L 93.478966 128.112218 
L 93.823619 128.37925 
L 94.414454 127.869572 
L 94.305431 127.253203 
L 94.52465 127.198943 
L 95.176443 127.679357 
L 95.487101 127.76532 
L 95.677012 127.535477 
L 95.761417 127.410496 
L 95.933743 127.355626 
L 95.945466 127.452563 
L 96.204543 128.226835 
L 96.675804 129.001716 
L 96.063868 128.618238 
L 95.978291 128.838936 
L 96.092003 129.009642 
L 96.620706 129.146207 
L 96.872749 129.094995 
L 97.492891 129.294355 
L 98.258397 129.298622 
L 98.197438 129.37544 
L 98.040351 129.571751 
L 97.539782 129.985713 
L 97.363939 130.322247 
L 97.372145 130.756936 
L 98.159924 131.466584 
L 98.497544 131.172726 
L 98.60305 131.200771 
L 98.67456 131.989675 
L 98.341629 132.376201 
L 98.159924 132.489599 
L 98.694489 132.255488 
L 98.913707 132.19696 
L 99.045004 132.387175 
L 98.883228 130.916668 
L 98.877366 130.699018 
L 98.553814 130.527093 
L 98.810546 130.238723 
L 98.849231 130.118009 
L 99.045004 130.118009 
L 99.143476 130.118009 
L 99.644045 130.485027 
L 99.886709 130.527093 
L 99.898432 130.454543 
L 100.088343 130.217994 
L 100.136407 130.275303 
L 100.333352 130.527093 
L 99.707348 130.939835 
L 99.341594 131.016653 
L 99.143476 130.936177 
L 99.039143 131.481826 
L 99.335732 132.610312 
L 99.721416 133.216317 
L 101.021487 134.330781 
L 100.747171 134.430156 
L 100.719036 134.501487 
L 100.824542 134.535628 
L 101.219604 134.330781 
L 101.289941 134.53197 
L 101.423583 135.456219 
L 101.873742 136.335963 
L 104.226531 139.598879 
L 104.623937 139.829332 
L 105.159674 139.770804 
L 104.933422 140.296943 
L 104.768129 140.087219 
L 104.381273 140.239025 
L 104.259355 140.415218 
L 104.374239 140.70054 
L 104.714204 140.95416 
L 104.943973 140.818815 
L 105.356619 140.180498 
L 105.534808 140.970621 
L 106.47264 141.908892 
L 106.458573 142.265545 
L 106.494914 142.517336 
L 106.449195 142.653901 
L 106.653173 142.34663 
L 107.145535 142.34663 
L 107.145535 142.244207 
L 106.78447 142.188728 
L 106.674274 141.922305 
L 106.775091 141.608938 
L 107.047063 141.314471 
L 106.84074 141.100479 
L 106.95328 141.157178 
L 107.138502 141.164494 
L 107.23463 141.100479 
L 107.606246 142.095449 
L 108.031788 142.49173 
L 108.085713 143.240396 
L 108.742196 143.72325 
L 109.023546 143.779339 
L 108.753919 144.124408 
L 108.327205 144.299991 
L 108.561663 144.303649 
L 108.629656 144.504838 
L 108.423333 144.39266 
L 108.357684 144.562756 
L 108.246317 145.221192 
L 107.820775 145.136448 
L 107.738715 145.243749 
L 107.933315 145.425429 
L 108.167773 145.410797 
L 108.327205 145.732699 
L 108.35534 145.515659 
L 108.423333 145.331541 
L 108.555802 146.662435 
L 108.893421 147.834817 
L 109.800775 149.944251 
L 109.511219 149.976563 
L 109.579212 150.066184 
L 109.961379 150.329558 
L 110.960171 151.793969 
L 111.089123 152.511542 
L 110.968377 152.453014 
L 110.820668 152.239023 
L 110.833563 152.435944 
L 110.960171 153.742452 
L 110.824185 153.736355 
L 110.599105 154.065573 
L 110.685855 154.260056 
L 110.792533 153.842436 
L 111.277862 155.189182 
L 111.595552 155.745195 
L 111.60962 156.76638 
L 111.87573 157.440668 
L 112.465392 158.147877 
L 112.61779 158.97519 
L 112.470082 159.207471 
L 112.676405 159.723246 
L 113.162906 160.518856 
L 112.892106 160.485325 
L 112.565037 159.997594 
L 112.233279 159.93358 
L 112.206316 160.165861 
L 112.371609 160.469474 
L 112.818252 160.720045 
L 112.967133 160.953546 
L 113.359851 162.022895 
L 113.683403 163.909192 
L 114.14763 164.364001 
L 113.979993 166.173481 
L 113.606032 166.173481 
L 113.572035 166.013139 
L 113.655268 165.140712 
L 113.342266 164.145742 
L 113.121875 164.465205 
L 113.064433 165.029143 
L 112.89914 165.416279 
L 113.064433 165.345558 
L 113.264895 165.81378 
L 113.450117 165.847921 
L 112.978856 166.353331 
L 112.957755 166.675234 
L 113.162906 167.135529 
L 113.196902 167.845177 
L 113.424327 168.420699 
L 114.047985 168.832831 
L 114.09136 169.071209 
L 113.851041 169.242525 
L 113.914344 169.30532 
L 113.957719 169.548575 
L 113.834628 169.418717 
L 112.867488 167.801281 
L 112.761982 167.801281 
L 112.825286 168.150008 
L 113.064433 168.321324 
L 113.440739 169.107789 
L 113.556795 169.273008 
L 113.450117 169.334584 
L 113.851041 169.864991 
L 114.012817 169.782686 
L 114.246103 169.660144 
L 114.094877 170.304558 
L 114.376227 170.455754 
L 114.540348 170.366743 
L 114.61303 170.520378 
L 114.492284 170.720957 
L 114.540348 170.888615 
L 114.308234 171.29526 
L 114.14763 171.399512 
L 114.029229 171.239781 
L 113.717399 171.177595 
L 113.725605 170.93312 
L 114.015161 170.775827 
L 113.961236 170.480141 
L 113.363367 170.17287 
L 113.155872 170.351502 
L 113.064433 170.581954 
L 113.106636 170.821552 
L 113.099602 170.945923 
L 113.253172 171.093462 
L 113.092568 171.350739 
L 113.064433 171.604359 
L 113.311787 171.730559 
L 113.75374 172.209145 
L 114.031573 172.030514 
L 114.168731 172.378631 
L 114.012817 172.546289 
L 113.851041 172.534705 
L 113.851041 172.626764 
L 113.970614 172.890748 
L 113.957719 173.036458 
L 113.887382 172.982198 
L 113.655268 172.840756 
L 113.450117 173.036458 
L 113.774842 173.764395 
L 113.957719 173.966194 
L 113.987026 173.316293 
L 114.14763 173.148026 
L 114.094877 172.952324 
L 114.155836 172.943179 
L 114.302373 173.166316 
L 114.312923 173.727815 
L 114.151147 174.218594 
L 114.210934 174.772168 
L 114.101911 175.237951 
L 114.266032 175.704953 
L 114.493456 176.092698 
L 114.450081 176.226215 
L 114.753705 176.471909 
L 115.051467 177.018167 
L 116.321058 178.632555 
L 116.451182 179.027616 
L 116.319886 179.714097 
L 115.927168 179.815301 
L 115.965854 179.639718 
L 116.202656 179.394024 
L 116.187417 179.342202 
L 116.032674 179.313548 
L 115.684504 179.595822 
L 115.532106 179.918943 
L 115.03271 180.122571 
L 115.142905 180.426183 
L 115.139388 180.84807 
L 116.003367 182.375885 
L 116.221413 182.382592 
L 116.525037 182.642918 
L 116.405463 182.800211 
L 116.221413 182.903854 
L 116.187417 183.12699 
L 116.221413 183.926259 
L 116.061982 184.018318 
L 115.913101 183.849441 
L 115.576653 183.028225 
L 115.828696 182.699007 
L 115.532106 182.177745 
L 115.505143 182.319796 
L 115.299992 182.411246 
L 115.139388 182.382592 
L 115.195658 182.770337 
L 115.139388 182.903854 
L 114.956511 182.645357 
L 114.647026 182.587439 
L 115.139388 182.035694 
L 115.336333 181.815605 
L 115.285925 181.577227 
L 114.942444 181.052917 
L 114.88969 180.531655 
L 114.681023 180.661513 
L 114.594273 180.894404 
L 113.957719 181.360187 
L 113.398536 182.002772 
L 113.084362 182.183232 
L 112.667027 182.934946 
L 112.716263 183.517175 
L 112.60724 183.618988 
L 112.747915 184.248161 
L 112.867488 184.335952 
L 113.002302 183.86956 
L 113.162906 183.731776 
L 113.064433 183.731776 
L 113.064433 183.618988 
L 113.307097 183.704951 
L 113.145321 184.156102 
L 113.064433 184.381677 
L 113.135943 184.652367 
L 113.311787 184.843801 
L 114.092532 185.441271 
L 113.958891 185.899738 
L 114.098394 186.074101 
L 114.569655 186.332599 
L 114.703296 186.539884 
L 114.540348 186.698396 
L 114.647026 186.80082 
L 114.540348 186.902024 
L 114.365676 186.693519 
L 114.003438 187.218439 
L 113.787737 187.14467 
L 112.385677 185.601613 
L 111.974202 185.665627 
L 112.04454 185.753419 
L 112.171147 185.982042 
L 112.022266 185.916199 
L 111.87573 185.879619 
L 111.94724 186.081417 
L 112.268448 186.49355 
L 112.547453 186.442948 
L 112.695162 186.677058 
L 112.906174 187.645813 
L 113.208625 188.034168 
L 113.12422 188.116473 
L 112.867488 188.037216 
L 112.671716 188.538969 
L 112.268448 188.334732 
L 112.348163 188.4652 
L 112.761982 188.752961 
L 112.670543 188.980975 
L 112.854593 189.308973 
L 112.957755 189.468705 
L 112.431396 189.394936 
L 112.375126 189.571129 
L 112.465392 189.468705 
L 112.739709 189.690622 
L 112.805357 190.101535 
L 112.987062 190.411854 
L 112.744398 190.83435 
L 112.896796 191.719581 
L 113.440739 192.676142 
L 113.851041 193.05962 
L 113.802977 193.374816 
L 113.556795 193.579663 
L 113.621271 194.050932 
L 113.957719 194.406976 
L 113.485286 194.48989 
L 112.957755 194.296017 
L 112.839353 193.843647 
L 112.927275 192.75296 
L 112.540419 191.355612 
L 112.266103 190.538054 
L 112.072675 190.7996 
L 112.343474 191.263553 
L 112.346991 191.835417 
L 112.684611 192.153661 
L 112.761982 192.393868 
L 112.582622 193.254713 
L 112.338785 193.650994 
L 111.974202 193.989356 
L 111.696369 194.035081 
L 111.532249 194.521592 
L 111.615481 195.024564 
L 112.072675 195.114185 
L 112.354025 194.680105 
L 112.671716 194.45392 
L 112.498217 195.061754 
L 112.671716 195.319032 
L 112.652959 195.705558 
L 113.219176 196.438373 
L 113.064433 196.760275 
L 112.957755 196.648707 
L 112.73033 197.067545 
L 112.439602 197.523573 
L 112.375126 197.894248 
L 111.580313 198.917263 
L 111.407986 198.766676 
L 110.685855 198.713635 
L 110.521734 198.521591 
L 110.34589 197.894248 
L 110.011787 197.979601 
L 110.032888 198.166768 
L 110.301343 198.448432 
L 110.209904 199.076994 
L 110.301343 199.326956 
L 109.899247 199.326956 
L 110.12081 199.707386 
L 110.127844 200.354848 
L 109.99772 201.372985 
L 109.980135 202.128358 
L 109.231041 202.744727 
L 108.75978 202.798378 
L 107.902836 202.458186 
L 107.387027 202.50513 
L 107.145535 202.610601 
L 106.480846 203.13857 
L 106.231148 203.598255 
L 105.946282 204.618831 
L 105.649692 204.776124 
L 105.260491 204.741983 
L 104.768129 204.571887 
L 103.548946 204.823678 
L 103.373103 205.027306 
L 102.96749 205.16448 
L 102.522019 205.650381 
L 102.397757 205.892417 
L 102.118751 206.664251 
L 101.640456 206.761187 
L 100.97694 207.055045 
L 100.627597 207.119669 
L 100.284116 208.153048 
L 99.858574 208.295099 
L 99.545572 208.766979 
L 99.424826 208.309731 
L 99.040315 208.182921 
L 96.848131 208.687113 
L 96.137722 209.826573 
L 95.933743 210.249069 
L 95.82472 210.865439 
L 95.191683 211.965271 
L 95.035768 211.868944 
L 94.154206 211.639711 
L 93.619641 211.701287 
L 92.777936 212.070133 
L 91.977261 212.701744 
L 91.443869 212.886472 
L 90.194206 213.444313 
L 89.358363 213.850959 
L 89.127421 214.019835 
L 88.276338 214.927624 
L 87.097013 215.425109 
L 85.723088 215.648245 
L 85.605859 215.814683 
L 85.182662 216.215232 
L 84.827458 216.773073 
L 84.574243 216.766977 
L 84.025611 216.427395 
L 83.649305 216.373135 
L 83.835699 216.192674 
L 84.043195 216.067084 
L 83.962307 215.798222 
L 83.444154 215.290373 
L 83.061987 215.283057 
L 82.951792 215.239161 
L 82.951792 215.452543 
L 82.861525 215.452543 
L 82.677476 215.248916 
L 82.390264 215.103206 
L 82.087813 215.07821 
L 81.771295 215.239161 
L 81.820531 215.026389 
L 81.771295 214.829468 
L 81.532147 215.255013 
L 81.369199 215.340975 
L 81.278932 214.931891 
L 80.78657 215.239161 
L 80.828773 215.002612 
L 81.402023 214.414897 
L 81.326996 213.246783 
L 81.073782 212.886472 
L 81.120673 212.922442 
L 81.278932 212.988895 
L 81.274243 212.92549 
L 81.250798 212.610294 
L 81.099572 212.36521 
L 80.681064 211.965271 
L 80.61776 212.18414 
L 81.073782 212.626146 
L 80.94483 213.198009 
L 81.270726 213.39554 
L 81.216801 214.201515 
L 81.278932 214.420994 
L 81.050336 214.368563 
L 80.878009 214.216147 
L 80.983515 214.113723 
L 80.78657 213.806453 
L 80.88387 213.495525 
L 80.78657 213.080954 
L 80.681064 213.950334 
L 80.793604 214.351492 
L 81.073782 214.624621 
L 80.828773 214.759357 
L 80.385647 215.452543 
L 80.293036 215.376945 
L 80.323515 214.774598 
L 80.090229 214.513662 
L 80.019892 213.953992 
L 80.090229 213.444313 
L 79.203977 212.67248 
L 78.440816 213.000479 
L 77.824191 212.253641 
L 77.556908 212.190846 
L 77.185292 212.416421 
L 77.118471 212.582859 
L 77.466642 212.981579 
L 77.582699 213.569904 
L 77.252113 214.04788 
L 77.069235 214.616086 
L 76.42682 214.89775 
L 76.190017 214.889215 
L 75.950869 214.624621 
L 75.979004 215.070285 
L 75.69531 215.267206 
L 75.437406 215.662267 
L 75.064617 215.862237 
L 75.034138 215.421451 
L 74.858294 215.136128 
L 74.956767 215.870772 
L 75.110337 215.955515 
L 75.580425 215.764691 
L 75.950869 215.340975 
L 76.158365 215.962831 
L 76.440887 215.955515 
L 76.559289 215.836631 
L 76.935594 215.340975 
L 77.179431 215.431815 
L 77.857015 216.553595 
L 77.8957 218.175908 
L 77.676482 218.31796 
L 73.246394 217.839374 
L 72.809129 217.621724 
L 72.588739 217.694884 
L 73.42341 218.236265 
L 76.966074 219.500096 
L 77.526429 219.931738 
L 77.994173 220.088421 
L 77.987139 220.565178 
L 77.902734 220.793191 
L 76.888702 221.771091 
L 76.64721 221.711344 
L 76.736304 221.457115 
L 76.64721 221.190692 
L 76.53936 221.190692 
L 76.440887 221.506497 
L 76.137264 221.958258 
L 76.358827 222.263699 
L 76.293178 222.324665 
L 76.023552 222.422211 
L 75.925079 222.668515 
L 75.793782 222.842879 
L 75.018898 222.73192 
L 74.396411 222.213706 
L 73.678969 221.907046 
L 73.259289 221.560148 
L 72.89119 221.102291 
L 71.688419 219.137347 
L 71.275773 218.705705 
L 70.710728 218.522806 
L 70.939325 218.677051 
L 71.537193 219.225138 
L 71.812682 220.10793 
L 73.482024 222.214316 
L 74.593356 222.756306 
L 75.353001 223.357434 
L 76.53467 223.993922 
L 76.335381 224.614559 
L 76.137264 224.798678 
L 76.228702 224.57737 
L 76.214635 224.299973 
L 76.049342 224.185966 
L 75.981349 224.712105 
L 75.692965 225.051078 
L 75.310799 225.185204 
L 74.956767 225.096803 
L 74.619147 224.814529 
L 73.415204 223.58301 
L 72.194849 222.828247 
L 68.338011 218.856292 
L 68.206714 218.876411 
L 68.136377 218.933719 
L 68.202025 219.009317 
L 68.449379 219.145272 
L 68.896022 219.730549 
L 69.128135 220.450561 
L 69.602913 220.94134 
L 70.799822 221.945455 
L 71.006146 222.324665 
L 73.721172 224.930365 
L 73.974387 225.413218 
L 74.25222 226.172248 
L 74.786784 226.353318 
L 74.867672 226.943472 
L 74.79499 227.708599 
L 74.616802 228.222545 
L 74.336625 228.661503 
L 73.667246 229.186422 
L 73.324937 229.156549 
L 73.043588 229.178497 
L 72.83492 229.318719 
L 72.050657 229.212028 
L 71.36135 228.66638 
L 70.110515 227.970145 
L 67.436519 225.376638 
L 65.537408 223.11235 
L 65.122417 222.796544 
L 64.624193 222.663638 
L 64.171689 222.368561 
L 63.897372 222.324665 
L 64.176378 222.752039 
L 67.563127 226.220412 
L 67.843304 227.044676 
L 69.43762 229.533321 
L 69.497407 229.763773 
L 69.469272 230.574625 
L 68.941741 231.161121 
L 69.342665 231.662874 
L 69.153926 232.000017 
L 68.743624 232.080493 
L 66.767141 232.703568 
L 59.50597 235.800047 
L 57.967924 237.488204 
L 57.979647 237.725972 
L 56.638708 240.240291 
L 55.827611 241.015997 
L 55.221612 241.105218 
L 54.750267 241.309419 
L 54.323537 241.834179 
L 53.919505 242.519158 
L 53.561002 242.906709 
L 49.690377 243.88235 
L 49.4313 243.703109 
L 48.107784 243.379987 
L 48.069098 243.214159 
L 48.181638 243.175141 
L 48.355137 243.239765 
L 48.63199 243.186218 
L 49.780643 242.356973 
L 49.560252 242.128349 
L 49.499293 242.058848 
L 49.874426 241.949718 
L 51.030305 242.096037 
L 51.471087 241.810715 
L 51.568387 241.631474 
L 50.76654 241.92777 
L 50.315208 241.933867 
L 49.915457 241.568678 
L 50.144053 241.446136 
L 50.83336 241.392486 
L 51.076025 241.120576 
L 50.893147 240.566392 
L 50.969346 240.284118 
L 49.458263 240.853544 
L 49.098331 240.662442 
L 48.852291 240.155938 
L 49.387044 238.370222 
L 49.320143 236.744229 
L 49.731407 229.093144 
L 50.032979 226.368964 
L 50.554899 224.675003 
L 51.666859 224.636507 
L 51.766504 224.373133 
L 52.003307 224.120123 
L 53.203733 223.291591 
L 53.347925 223.403769 
L 53.38661 223.644585 
L 53.731264 224.585296 
L 53.728919 224.376181 
L 53.361992 222.492932 
L 52.713715 221.618675 
L 51.863804 220.893786 
L 51.578938 220.857816 
L 50.673929 220.985845 
L 50.210874 220.704181 
L 49.288281 219.340974 
L 48.814675 219.048336 
L 48.332864 218.977005 
L 47.883876 219.11296 
L 47.459507 219.595813 
L 47.426683 219.823827 
L 47.178157 219.926251 
L 47.070306 220.279246 
L 46.44782 220.1439 
L 46.525191 219.759203 
L 46.229773 219.29342 
L 46.17702 218.535 
L 46.039862 218.325885 
L 45.638939 218.010689 
L 45.43496 218.215536 
L 45.413859 217.805843 
L 44.925013 216.855988 
L 45.028175 216.859646 
L 45.257944 216.602978 
L 45.336488 216.314607 
L 45.147749 216.159752 
L 44.882811 216.573104 
L 44.458442 216.773073 
L 44.228672 216.752955 
L 44.195848 216.156095 
L 44.662362 216.180313 
L 44.81422 216.035137 
L 45.859365 214.531888 
L 46.085664 214.480012 
L 46.705009 214.452525 
L 49.489083 214.694873 
L 50.001978 214.483109 
L 50.349615 214.113781 
L 51.297242 212.830425 
L 52.710867 212.093318 
L 53.060737 211.746832 
L 53.053293 211.260202 
L 52.31261 209.720175 
L 52.26348 209.201412 
L 52.518066 208.748076 
L 52.902923 208.427915 
L 53.305646 208.320678 
L 53.339145 208.516956 
L 53.504402 208.744205 
L 53.709114 208.815825 
L 55.969871 209.353944 
L 56.678545 209.875416 
L 56.817004 209.734112 
L 57.245781 208.839827 
L 58.012518 208.015228 
L 58.809031 208.332292 
L 58.925158 208.346229 
L 61.533553 207.696228 
L 62.143965 207.307543 
L 62.559343 207.185595 
L 62.944945 207.227019 
L 63.442207 207.970707 
L 64.034753 208.891704 
L 64.30795 209.627262 
L 64.756826 210.036852 
L 65.054588 210.032206 
L 65.35905 209.586226 
L 65.515375 209.013651 
L 67.162743 210.369789 
L 67.544622 210.504512 
L 68.737903 210.68453 
L 69.058742 210.953977 
L 68.688028 209.513831 
L 68.282327 208.547927 
L 68.39771 207.921154 
L 69.2106 207.815853 
L 69.049064 207.517758 
L 68.647086 206.401258 
L 68.389522 206.198785 
L 68.139402 206.158523 
L 67.917569 206.293634 
L 67.752311 206.616892 
L 67.412863 206.062514 
L 66.693767 205.374186 
L 66.129509 204.608431 
L 65.358305 204.414475 
L 65.062032 204.185678 
L 64.682386 203.32701 
L 64.263286 203.11757 
L 64.249142 202.904645 
L 64.663031 200.816433 
L 64.43971 200.025127 
L 64.389834 199.267115 
L 64.230532 199.145941 
L 63.671484 198.97715 
L 63.485383 198.659698 
L 63.528558 198.361604 
L 63.925678 197.849623 
L 64.211922 197.59972 
L 64.457575 197.548618 
L 65.143172 197.807225 
L 65.554828 197.828905 
L 66.260524 196.872679 
L 66.378884 196.486317 
L 66.390795 196.278812 
L 66.726521 195.916453 
L 68.731948 196.278812 
L 70.007858 196.754215 
L 70.64358 197.353502 
L 71.75051 197.144448 
L 72.267871 197.444091 
L 72.638585 197.540875 
L 72.764676 197.29593 
L 72.642307 196.965591 
L 72.234373 196.041885 
L 72.824686 194.519666 
L 72.743546 194.150338 
L 72.180031 192.930085 
L 72.872328 192.854207 
L 73.328648 193.195661 
L 73.772313 192.876661 
L 74.462376 192.885178 
L 75.703299 193.060163 
L 75.588661 192.83485 
L 76.307012 193.001318 
L 76.610729 192.915374 
L 76.892114 192.53211 
L 77.29707 191.693573 
L 77.624608 191.491488 
L 78.071251 191.452 
L 79.703731 191.475228 
L 80.588084 191.020731 
L 83.106405 188.327038 
L 84.191344 187.824171 
L 84.887766 187.602319 
L 85.521999 187.545023 
L 85.862192 187.7564 
L 86.570866 188.689397 
L 86.899893 188.670815 
L 87.386733 187.997198 
L 88.317984 187.325904 
L 88.928396 185.395644 
L 89.025913 184.332569 
L 89.049734 183.391828 
L 88.655944 181.292002 
L 88.629889 180.496825 
L 88.434111 180.079492 
L 87.930149 179.434136 
L 87.648764 178.048577 
L 87.839331 177.662989 
L 87.8036 177.55343 
L 87.57879 177.385026 
L 87.54157 177.170939 
L 89.652702 171.954669 
L 89.704066 171.495912 
L 89.508287 169.477772 
L 88.064886 166.751173 
L 87.294427 165.755847 
L 87.226686 165.37413 
L 87.337603 164.918084 
L 87.181278 164.463974 
L 87.32197 163.610726 
L 87.105348 163.033506 
L 87.114281 162.744315 
L 87.024208 162.600688 
L 86.801631 162.512808 
L 86.261938 162.567394 
L 86.017028 162.475643 
L 85.852515 162.202712 
L 85.875591 161.29333 
L 85.518277 160.71611 
L 85.587507 160.356073 
L 86.147299 158.408779 
L 86.10859 158.117266 
L 85.950032 157.693739 
L 86.081047 157.113422 
L 86.783765 156.023247 
L 87.014531 156.234236 
L 87.474573 156.010859 
L 87.830399 155.187033 
L 87.906328 154.877324 
L 88.187713 154.405406 
L 88.169847 153.490216 
L 88.57927 152.353972 
L 88.084241 151.33503 
L 88.245776 151.144946 
L 87.980768 150.461651 
L 88.095407 150.260727 
L 88.909041 149.383477 
L 88.949983 149.225913 
L 88.827157 149.097771 
L 87.448519 148.009918 
L 87.31527 147.3514 
L 87.327925 147.148154 
L 87.464896 147.017302 
L 88.146436 146.868741 
L 88.619468 146.773406 
L 89.235835 146.820637 
L 89.408537 146.496217 
L 89.271566 146.078884 
L 89.541041 145.808663 
L 89.779995 145.49818 
L 90.081479 144.45601 
L 90.166341 144.49511 
L 90.33011 144.53847 
L 90.371052 144.446718 
L 90.476013 143.504817 
L 90.173041 143.065804 
L 89.359406 142.384058 
L 89.262634 142.11616 
L 89.165861 141.367051 
L 88.912763 141.299303 
L 88.294163 141.394151 
L 88.024688 141.235038 
L 87.970347 140.613685 
L 87.931638 140.31559 
L 87.630154 140.271456 
L 87.484995 140.211838 
L 87.290705 139.899032 
L 87.13438 139.978782 
L 86.744312 139.908323 
L 86.407097 140.20874 
L 86.229928 140.096084 
L 85.282301 138.542507 
L 84.492487 138.072911 
L 84.28852 137.625769 
L 84.160483 136.788394 
L 84.010857 136.628119 
L 83.052808 135.939792 
L 83.072907 135.62776 
L 83.592502 134.652177 
L 83.917807 134.656048 
L 84.182815 134.743541 
L 84.304153 134.710248 
L 85.561453 133.956107 
L 86.319257 133.757893 
L 86.536623 133.507029 
L 87.142569 132.60655 
L 87.298894 132.261999 
L 87.13438 131.971647 
L 87.118748 131.441271 
L 86.837363 131.450562 
L 85.618027 131.705298 
L 85.216049 131.583737 
L 84.884044 131.286417 
L 84.349562 130.600412 
L 83.749571 130.28296 
L 83.353548 130.194693 
L 82.868464 129.776849 
L 82.746114 129.534239 
L 82.469195 128.537751 
L 81.888771 128.188258 
L 81.115867 128.059251 
L 80.438459 128.052282 
L 80.247891 127.843229 
L 80.131764 127.359309 
L 79.302497 126.688789 
L 79.077686 126.292362 
L 78.833522 126.332624 
L 78.930294 126.094148 
L 78.991335 125.595517 
L 78.951138 124.993133 
L 78.701018 124.603675 
L 78.357847 124.589738 
L 77.828575 125.516541 
L 77.374488 125.888966 
L 77.329994 126.128701 
L 76.958366 126.295459 
L 76.914446 126.0655 
L 76.485669 126.13441 
L 76.165575 125.886643 
L 75.942253 125.49099 
L 75.718932 124.727558 
L 75.726376 123.755847 
L 74.750461 123.352451 
L 74.423667 122.989317 
L 74.212256 122.304087 
L 74.188435 117.972034 
L 74.060398 117.723493 
L 73.661397 118.102886 
L 72.430151 117.625161 
L 72.324346 117.343022 
L 72.092191 116.788173 
L 72.19343 116.543503 
L 72.045294 116.283347 
L 71.352253 115.636056 
L 70.837869 114.692218 
L 70.926453 114.072026 
L 70.652512 113.759995 
L 70.603382 113.295431 
L 70.249045 113.228844 
L 69.699674 113.893169 
L 69.490496 113.872264 
L 69.175613 113.705795 
L 66.782352 111.651652 
L 63.909693 108.2495 
L 63.442207 107.942114 
L 62.515423 107.471357 
L 62.382175 107.232107 
L 62.068036 106.413701 
L 61.747942 105.979335 
L 61.375739 105.274747 
L 60.817436 104.762953 
L 60.658133 104.255805 
L 60.791767 103.041042 
L 60.595603 102.642997 
L 60.156404 102.349547 
L 59.851198 101.579534 
L 59.481973 101.338348 
L 59.186445 100.765387 
L 58.956423 100.6717 
L 58.968334 100.636858 
L 59.026398 100.409609 
L 58.822431 99.868005 
L 58.313258 99.574556 
L 58.005819 99.554425 
L 57.661159 99.808387 
L 57.536843 100.246625 
L 57.364886 100.316309 
L 57.332877 100.253593 
L 56.349518 99.648499 
L 56.33984 99.478547 
L 56.410559 98.952816 
L 56.248279 98.782476 
L 56.17756 98.830868 
L 55.497919 98.841708 
L 54.356002 97.787149 
L 54.44533 97.095337 
L 53.251305 95.771719 
L 53.327234 95.15114 
L 53.735912 93.876688 
L 53.94509 93.605693 
L 54.434164 93.616533 
L 54.540614 93.131452 
L 54.44533 93.005245 
L 54.131936 92.794256 
L 53.722513 92.115994 
L 53.376365 92.0827 
L 53.029472 92.141545 
L 52.680346 92.016113 
L 51.722297 91.550775 
L 51.195259 91.624331 
L 50.791791 91.406761 
L 50.64961 91.033174 
L 50.268475 90.922841 
L 49.24194 90.965426 
L 47.814172 90.555836 
L 47.427081 90.170248 
L 47.00277 90.105209 
L 46.394592 89.563606 
L 45.534804 88.99258 
L 44.863351 88.075842 
L 44.3512 87.85982 
L 43.646993 87.849368 
L 43.466847 87.711934 
L 42.810282 86.878818 
L 41.832134 86.390252 
L 41.433783 86.036058 
L 41.145049 85.96479 
L 40.728182 86.086737 
L 40.601633 85.960531 
L 40.548036 85.394538 
L 40.3999 85.250136 
L 39.822241 84.856032 
L 37.926987 84.077114 
L 37.624758 84.0926 
L 37.301687 84.220742 
L 36.338427 83.550222 
L 36.147859 83.192896 
L 35.510649 83.102693 
L 35.630498 82.843699 
L 35.82181 82.698523 
L 36.560259 82.310613 
L 37.014346 81.738426 
L 37.646346 81.499176 
L 38.200183 81.353225 
L 38.245592 81.40936 
L 38.253036 81.402392 
L 38.413083 81.041581 
L 38.565686 80.53482 
L 39.050294 80.171686 
L 39.04806 80.170138 
L 38.882802 79.965343 
L 38.724989 79.218557 
L 37.944108 78.600301 
L 37.624758 77.634009 
L 37.842124 77.339399 
L 38.007382 77.386242 
L 38.972131 77.828739 
L 39.382298 77.692467 
L 39.657728 77.29604 
L 39.972611 77.291781 
L 40.992446 77.018076 
L 41.182269 77.180286 
L 41.684742 77.349464 
L 41.947517 77.784218 
L 42.880256 77.29604 
L 43.337321 77.455153 
L 43.798852 77.92049 
L 44.16361 78.079603 
L 45.225132 78.615786 
L 45.686663 78.524809 
L 46.038022 78.336274 
L 46.542728 78.495 
L 46.669277 78.3355 
L 47.245446 76.939875 
L 47.657847 76.576741 
L 48.306968 76.423822 
L 48.652372 76.111404 
L 49.290327 75.746334 
L 49.457818 74.889215 
L 49.078171 74.715778 
L 48.577931 74.605832 
L 48.668004 74.328642 
L 48.939712 73.990285 
L 50.052597 73.284149 
L 50.281874 72.873011 
L 50.556559 72.830426 
L 51.172926 72.850557 
L 51.371683 72.680604 
L 51.39997 72.290758 
L 51.292031 71.60785 
L 51.586816 71.473127 
L 51.478132 71.237748 
L 50.923551 70.87926 
L 50.729261 70.595877 
L 50.773925 69.986137 
L 49.494294 69.302068 
L 48.912913 69.33149 
L 47.645936 69.668299 
L 47.159096 69.426339 
L 47.086144 68.925772 
L 47.163562 68.423656 
L 47.404749 68.338486 
L 47.51641 68.305967 
L 47.623604 67.968384 
L 47.503011 67.504208 
L 47.293833 67.342385 
L 46.514441 66.968412 
L 45.984425 66.409388 
L 43.922423 66.454295 
L 43.334343 66.310281 
L 42.877279 66.024574 
L 42.972563 65.743514 
L 43.798852 65.189909 
L 44.104058 64.603011 
L 44.459884 64.879426 
L 44.836552 64.942916 
L 45.195356 64.83297 
L 45.510983 64.586751 
L 46.441489 63.33785 
L 46.556128 62.926712 
L 46.347694 62.71611 
L 44.785933 62.093595 
L 44.546235 61.852022 
L 44.409264 61.381265 
L 44.21423 61.172212 
L 43.192162 60.95077 
L 42.884723 60.505563 
L 42.539319 60.341418 
L 42.35024 60.119202 
L 41.841067 59.341832 
L 41.439833 59.144393 
L 40.827932 59.173041 
L 40.486995 58.680604 
L 39.92348 58.510264 
L 39.339867 58.423546 
L 39.023495 58.211395 
L 38.5106 58.247012 
L 37.846591 59.007347 
L 36.716584 59.251243 
L 35.540425 59.656187 
L 35.199487 59.912471 
L 34.60173 59.938022 
L 34.311412 60.383228 
L 34.136477 60.928316 
L 34.158809 61.48192 
L 33.40696 61.994488 
L 33.4948 62.623197 
L 33.03178 62.776503 
L 32.766772 62.653394 
L 31.614434 61.632129 
L 30.226863 61.257381 
L 29.434072 60.316641 
L 29.212984 60.542728 
L 28.52962 60.812175 
L 28.297366 60.790495 
L 27.896131 60.658869 
L 26.848754 60.166432 
L 26.12817 60.209791 
L 25.666639 59.97209 
L 25.161932 59.804073 
L 24.538121 59.098711 
L 24.271624 58.659699 
L 23.277099 56.770475 
L 22.456021 56.358562 
L 21.908883 55.170055 
L 21.691517 55.136761 
L 21.603677 54.841763 
L 21.747347 54.407397 
L 21.533703 54.069814 
L 21.13098 53.859212 
L 20.426773 53.811981 
L 20.592031 53.526275 
L 20.828007 53.346644 
L 21.315593 53.22818 
L 21.491272 53.055518 
L 21.54338 52.803105 
L 21.615588 51.811263 
L 22.108384 50.886007 
L 21.908883 50.847294 
L 21.123536 51.256109 
L 21.776379 50.209294 
L 22.08754 49.935201 
L 22.916063 48.839606 
L 22.724751 48.148181 
L 22.655521 46.78314 
L 22.46272 46.557827 
L 22.38158 46.616671 
L 21.087805 47.07504 
L 20.914358 46.895409 
L 20.867461 46.605832 
L 20.911381 46.008868 
L 20.789298 45.324411 
L 20.504936 45.10297 
L 20.251838 45.339122 
L 20.216107 46.54389 
L 20.043405 47.023938 
L 19.718844 47.428108 
L 19.115876 47.751754 
L 18.256833 47.774208 
L 18.057333 47.387072 
L 17.956093 46.705713 
L 18.025323 45.826914 
L 17.889097 45.214465 
L 17.39779 44.125064 
L 16.954125 43.764253 
L 15.770521 43.282656 
L 15.640994 42.604394 
L 15.83975 42.32643 
L 14.865325 41.545964 
L 14.628604 41.015587 
L 13.010268 39.649772 
L 11.865373 38.969961 
L 11.773067 38.669543 
L 11.085237 37.989732 
L 11.085981 37.665312 
L 10.920723 37.520523 
L 10.593185 36.690504 
L 10.739833 36.490742 
L 11.254217 36.271623 
L 12.024676 36.493839 
L 12.292661 36.00295 
L 12.521938 35.223258 
L 14.393372 33.19544 
L 14.252679 32.971675 
L 14.015959 32.777333 
L 14.109009 32.497046 
L 14.573518 32.45059 
L 14.865325 32.011578 
L 15.01495 31.48004 
L 15.261348 31.182332 
L 15.622384 31.13123 
L 16.005008 31.253953 
L 16.313936 31.481976 
L 16.602021 32.221406 
L 17.033776 32.165658 
L 17.184146 31.951959 
L 17.400023 31.970541 
L 17.706718 32.284896 
L 18.862779 32.600799 
L 19.99353 33.390556 
L 20.866716 33.661552 
L 21.173411 34.129986 
L 21.261995 34.398659 
L 21.885807 35.496576 
L 23.417792 36.199615 
L 23.707365 36.201938 
L 23.938131 36.046309 
L 23.996194 35.802414 
L 23.925476 35.357982 
L 24.360953 35.182996 
L 24.603629 35.079244 
L 25.388231 34.472989 
L 25.373343 34.319683 
L 25.161932 33.98752 
L 25.330912 33.551605 
L 25.71577 33.260479 
L 26.816744 32.627898 
L 26.926172 32.480012 
L 27.177781 31.810267 
L 27.749484 30.841266 
L 27.921441 30.804488 
L 28.601083 31.15291 
L 29.108767 31.800976 
L 29.113233 32.326707 
L 29.208517 32.537309 
L 30.104781 33.782338 
L 30.543979 33.935644 
L 30.697327 33.846603 
L 31.210759 32.928051 
L 31.170768 32.148624 
L 31.598057 31.547015 
L 31.788624 31.139747 
L 32.608214 30.674797 
L 32.774961 30.76229 
L 33.753109 31.914794 
L 34.952345 33.076976 
L 35.449607 33.667746 
L 35.859774 34.052559 
L 36.176146 34.118372 
L 36.619812 34.73237 
L 36.987548 34.908904 
L 37.111119 35.049047 
L 37.483321 34.748629 
L 37.894977 32.293413 
L 38.037159 31.871435 
L 38.945332 30.787067 
L 41.168125 30.295017 
L 40.989468 30.908627 
L 41.105595 31.528432 
L 41.287974 31.734388 
L 42.814749 32.329029 
L 44.444995 31.186978 
L 45.795346 30.145195 
L 45.799812 30.213331 
L 45.8281 30.361604 
L 46.254644 30.525363 
L 46.478709 30.315922 
L 47.788862 30.387155 
L 48.184141 30.074736 
L 48.846661 29.218779 
L 49.620842 28.650463 
L 49.607443 28.348884 
L 49.188343 26.381846 
L 49.383377 26.222733 
L 49.735481 26.169308 
L 50.100983 25.871988 
L 50.383113 25.091134 
L 50.583358 25.111652 
L 51.163994 25.352451 
L 51.309897 25.269217 
L 51.831725 24.811622 
L 52.978853 24.180977 
L 54.227964 23.755128 
L 54.381311 23.681959 
L 54.830187 23.885206 
L 54.993212 23.858106 
L 55.23291 23.688153 
L 55.636378 22.716829 
L 56.329419 22.176 
L 56.595916 22.182968 
L 56.771595 22.618496 
L 57.055214 23.106288 
L 57.71029 23.53717 
L 57.71029 23.53717 
" clip-path="url(#pf52bcc76bb)" style="fill: none; stroke: #000000; stroke-width: 2"/>
   </g>
  </g>
 </g>
 <defs>
  <clipPath id="pf52bcc76bb">
   <rect x="0" y="-0" width="127.118222" height="266.112"/>
  </clipPath>
 </defs>
</svg>
