<?xml version="1.0" encoding="utf-8" standalone="no"?>
<!DOCTYPE svg PUBLIC "-//W3C//DTD SVG 1.1//EN"
  "http://www.w3.org/Graphics/SVG/1.1/DTD/svg11.dtd">
<svg xmlns:xlink="http://www.w3.org/1999/xlink" width="119.821264pt" height="266.112pt" viewBox="0 0 119.821264 266.112" xmlns="http://www.w3.org/2000/svg" version="1.1">
 <metadata>
  <rdf:RDF xmlns:dc="http://purl.org/dc/elements/1.1/" xmlns:cc="http://creativecommons.org/ns#" xmlns:rdf="http://www.w3.org/1999/02/22-rdf-syntax-ns#">
   <cc:Work>
    <dc:type rdf:resource="http://purl.org/dc/dcmitype/StillImage"/>
    <dc:date>2024-02-02T21:58:06.416521</dc:date>
    <dc:format>image/svg+xml</dc:format>
    <dc:creator>
     <cc:Agent>
      <dc:title>Matplotlib v3.8.2, https://matplotlib.org/</dc:title>
     </cc:Agent>
    </dc:creator>
   </cc:Work>
  </rdf:RDF>
 </metadata>
 <defs>
  <style type="text/css">*{stroke-linejoin: round; stroke-linecap: butt}</style>
 </defs>
 <g id="figure_1">
  <g id="patch_1">
   <path d="M 0 266.112 
L 119.821264 266.112 
L 119.821264 0 
L 0 0 
L 0 266.112 
z
" style="fill: none"/>
  </g>
  <g id="axes_1">
   <g id="PatchCollection_1">
    <path d="M 108.039446 243.797916 
L 107.801327 243.936 
L 107.517509 243.667364 
L 107.144697 243.499153 
L 106.387047 243.305836 
L 105.487488 242.884053 
L 105.078598 242.572737 
L 105.030493 241.859722 
L 105.239749 241.081432 
L 105.598129 240.564246 
L 105.978157 240.453779 
L 106.733402 240.323227 
L 107.536751 240.293099 
L 108.104387 240.471353 
L 108.700886 240.925774 
L 109.162692 241.191899 
L 109.537909 241.493173 
L 109.836159 242.060572 
L 109.525883 242.836351 
L 109.323843 243.210433 
L 109.027999 243.514217 
L 108.700886 243.667364 
L 108.039446 243.797916 
" clip-path="url(#p5ee3d301bf)" style="fill: none; stroke: #000000; stroke-width: 2"/>
    <path d="M 96.438983 225.269587 
L 96.159975 225.555797 
L 95.587528 225.498053 
L 94.327184 225.136524 
L 93.83892 224.903037 
L 92.619465 223.471988 
L 92.316405 223.2385 
L 91.724716 223.208373 
L 91.493813 223.117991 
L 91.397604 222.929695 
L 91.306205 222.58323 
L 91.096949 222.33719 
L 90.887693 222.176511 
L 90.793889 222.071065 
L 90.719326 221.830046 
L 89.725963 220.398996 
L 89.603296 220.077638 
L 89.569623 219.615685 
L 89.608106 218.824841 
L 89.769257 218.074168 
L 90.098775 217.740256 
L 90.329678 217.572045 
L 90.329678 217.175368 
L 90.204606 216.459843 
L 90.324867 216.095804 
L 90.461966 215.827169 
L 90.671222 215.613767 
L 90.995929 215.405386 
L 91.587617 215.239685 
L 92.7277 215.224621 
L 93.215964 214.983603 
L 93.697011 215.397854 
L 93.723469 215.814616 
L 93.550292 216.326781 
L 93.43484 217.004647 
L 93.83892 219.321943 
L 94.098686 219.766322 
L 94.719237 220.022404 
L 95.452835 220.213211 
L 96.058955 220.481847 
L 97.01624 220.991501 
L 97.473235 221.322902 
L 98.096192 221.551368 
L 97.915799 221.930471 
L 96.867115 223.2385 
L 96.665075 224.594232 
L 96.438983 225.269587 
" clip-path="url(#p5ee3d301bf)" style="fill: none; stroke: #000000; stroke-width: 2"/>
    <path d="M 88.78792 197.100501 
L 89.985729 197.236074 
L 89.973703 197.193394 
L 90.115612 197.120586 
L 90.320057 197.05531 
L 90.478803 197.025182 
L 90.599065 197.085437 
L 90.579823 197.361605 
L 90.837183 197.509731 
L 90.998334 197.713091 
L 91.137838 197.964152 
L 91.197969 198.180065 
L 90.851615 198.20266 
L 88.977934 198.707294 
L 89.694695 199.580987 
L 89.783689 199.87724 
L 89.978513 199.934984 
L 90.894909 200.401958 
L 91.197969 200.625403 
L 92.092717 201.087356 
L 92.720485 201.63718 
L 93.090891 202.342662 
L 93.215964 203.266568 
L 92.956198 204.054901 
L 92.366915 204.439025 
L 91.748768 204.732767 
L 91.397604 205.254974 
L 90.801105 204.808085 
L 88.189016 203.402141 
L 87.833041 203.309249 
L 87.472255 203.467417 
L 87.231731 203.452354 
L 86.305715 203.186229 
L 86.043544 203.055677 
L 85.735673 202.766956 
L 85.018912 202.25228 
L 84.523433 202.011261 
L 82.892682 201.468969 
L 82.839767 200.946761 
L 83.325625 199.570945 
L 83.33284 199.159204 
L 83.224605 198.805208 
L 83.041807 198.48636 
L 82.796472 198.180065 
L 82.743557 197.95411 
L 82.935976 195.732216 
L 83.116369 195.086989 
L 83.508423 194.47942 
L 84.403171 193.836703 
L 85.567307 193.500281 
L 86.76752 193.535429 
L 87.770505 194.057637 
L 88.068754 194.549717 
L 88.189016 195.159797 
L 88.189016 196.27702 
L 88.354977 196.839397 
L 88.78792 197.100501 
" clip-path="url(#p5ee3d301bf)" style="fill: none; stroke: #000000; stroke-width: 2"/>
    <path d="M 63.516084 160.520859 
L 63.662803 160.716687 
L 64.17993 160.400349 
L 66.217166 160.058906 
L 66.693403 160.144267 
L 67.111915 160.430477 
L 67.181667 160.621283 
L 67.282687 161.17864 
L 67.402949 161.294128 
L 67.653093 161.34183 
L 67.82627 161.474892 
L 68.11971 161.926803 
L 68.360233 162.499222 
L 68.52379 163.10428 
L 68.797987 163.59385 
L 69.348786 163.819805 
L 69.529179 164.1261 
L 69.764892 164.708563 
L 69.954906 164.894348 
L 70.255561 164.959624 
L 70.55381 164.911922 
L 70.80636 164.806477 
L 70.965106 164.683456 
L 71.015616 165.210685 
L 70.135299 166.998242 
L 69.89718 167.781554 
L 69.678304 168.153125 
L 69.283845 168.316315 
L 68.52379 168.474483 
L 68.461253 168.54478 
L 68.379475 168.690396 
L 68.239971 168.83099 
L 68.021095 168.896266 
L 67.869565 168.82848 
L 67.681956 168.685375 
L 67.537642 168.54227 
L 67.51359 168.474483 
L 65.416222 168.981627 
L 65.19013 168.986648 
L 64.673003 168.685375 
L 64.557552 168.454398 
L 64.492611 168.153125 
L 64.362728 168.062743 
L 64.045236 168.474483 
L 64.021184 168.218401 
L 63.896111 167.907084 
L 63.864843 167.651002 
L 63.734961 167.696193 
L 63.718124 167.711257 
L 63.718124 167.746405 
L 63.662803 167.841809 
L 63.419874 167.771511 
L 63.188972 167.781554 
L 62.998958 167.881978 
L 62.854643 168.072785 
L 63.039847 166.998242 
L 62.854643 166.998242 
L 62.551583 167.389898 
L 62.077751 167.595768 
L 61.021852 167.841809 
L 61.021852 167.651002 
L 61.534168 167.264367 
L 62.190798 167.063518 
L 62.717545 166.777308 
L 62.854643 166.134591 
L 62.609309 166.290249 
L 62.407269 166.305313 
L 62.277386 166.159697 
L 62.183582 165.506938 
L 62.053699 165.406513 
L 61.858875 165.381407 
L 61.627972 165.296046 
L 61.151735 165.034942 
L 60.759681 164.979709 
L 60.398895 165.077623 
L 60.011652 165.296046 
L 59.802396 165.522001 
L 59.403127 166.177272 
L 59.203492 166.365568 
L 58.878785 166.435865 
L 58.681555 166.312845 
L 58.594967 165.999018 
L 58.178861 165.732893 
L 58.267854 165.35128 
L 59.001452 163.819805 
L 59.347806 163.443213 
L 60.110267 162.895899 
L 60.415732 162.554456 
L 61.591893 160.807069 
L 62.363975 160.164352 
L 63.258723 160.008694 
L 63.410253 160.1995 
L 63.516084 160.520859 
" clip-path="url(#p5ee3d301bf)" style="fill: none; stroke: #000000; stroke-width: 2"/>
    <path d="M 60.018868 161.163576 
L 59.783154 161.505019 
L 59.855312 160.556007 
L 60.774112 159.677293 
L 61.858875 159.290658 
L 62.443348 159.817887 
L 62.068131 159.948439 
L 61.409095 160.325031 
L 61.014636 160.430477 
L 60.326738 160.897451 
L 60.018868 161.163576 
" clip-path="url(#p5ee3d301bf)" style="fill: none; stroke: #000000; stroke-width: 2"/>
    <path d="M 64.709082 158.35671 
L 64.242466 158.512368 
L 63.588241 158.075521 
L 63.251508 157.37757 
L 63.388606 156.513919 
L 63.718124 156.363283 
L 64.117393 156.687152 
L 64.463748 157.272125 
L 64.709082 158.35671 
" clip-path="url(#p5ee3d301bf)" style="fill: none; stroke: #000000; stroke-width: 2"/>
    <path d="M 63.857628 146.458911 
L 63.554568 146.489039 
L 63.251508 146.335891 
L 63.400632 145.984405 
L 63.746987 145.617856 
L 64.038021 145.417007 
L 65.19013 144.847097 
L 65.59421 144.839566 
L 66.277297 145.015309 
L 66.029558 145.216158 
L 65.271908 145.647983 
L 65.113162 145.83879 
L 64.997711 146.04466 
L 64.838965 146.210361 
L 63.857628 146.458911 
" clip-path="url(#p5ee3d301bf)" style="fill: none; stroke: #000000; stroke-width: 2"/>
    <path d="M 70.568242 141.651086 
L 70.24113 141.836872 
L 69.760082 141.796702 
L 69.457022 141.661129 
L 69.370433 141.400025 
L 69.524369 140.975731 
L 69.4931 140.320461 
L 70.04871 139.845955 
L 70.80636 139.778168 
L 71.35716 140.343056 
L 70.568242 141.651086 
" clip-path="url(#p5ee3d301bf)" style="fill: none; stroke: #000000; stroke-width: 2"/>
    <path d="M 59.181845 130.476344 
L 59.326159 130.626981 
L 59.405532 130.777618 
L 59.499336 130.845405 
L 59.706187 131.109019 
L 60.220908 132.268923 
L 60.516752 132.532537 
L 60.574478 132.75096 
L 60.64423 133.232998 
L 60.774112 133.742653 
L 61.021852 134.023842 
L 61.252755 133.993714 
L 61.741018 133.677377 
L 62.032052 133.60708 
L 62.289412 133.654781 
L 62.522721 133.767759 
L 62.717545 133.903332 
L 62.854643 134.023842 
L 63.164919 134.490816 
L 63.357338 134.967832 
L 63.619509 135.344424 
L 64.155877 135.500082 
L 64.252087 135.665783 
L 64.377159 136.027311 
L 64.656167 136.38884 
L 65.185319 136.549519 
L 66.751129 136.494286 
L 67.429406 136.727773 
L 67.920075 137.41317 
L 67.530426 137.588913 
L 67.602583 138.008186 
L 67.778166 138.492734 
L 67.718035 138.889411 
L 67.407759 138.748817 
L 67.111915 138.889411 
L 65.546105 137.995633 
L 65.065057 137.483467 
L 64.579199 137.24747 
L 64.006752 137.066705 
L 63.561783 136.996408 
L 62.332707 137.262533 
L 61.4572 137.77972 
L 60.596125 138.113631 
L 59.388695 137.834953 
L 59.013478 137.601466 
L 58.142782 136.745347 
L 57.974415 136.456626 
L 58.041762 135.605528 
L 57.974415 135.289191 
L 57.507799 134.887493 
L 57.269681 134.603793 
L 57.276896 134.340179 
L 57.401969 133.971119 
L 57.457289 132.828789 
L 57.587172 132.34173 
L 57.774781 132.118286 
L 57.962389 131.967649 
L 58.11873 131.759268 
L 58.178861 131.372634 
L 58.164429 131.076381 
L 58.121135 130.868 
L 57.974415 130.403537 
L 58.265449 130.594343 
L 58.445842 130.574258 
L 58.626235 130.468813 
L 58.893216 130.403537 
L 59.181845 130.476344 
" clip-path="url(#p5ee3d301bf)" style="fill: none; stroke: #000000; stroke-width: 2"/>
    <path d="M 64.069289 129.361632 
L 63.453548 129.374185 
L 63.049468 129.256186 
L 62.804133 128.909721 
L 62.443348 128.088751 
L 63.302018 127.913008 
L 63.67964 127.900455 
L 64.038021 128.088751 
L 64.38678 128.590874 
L 64.391591 129.057848 
L 64.069289 129.361632 
" clip-path="url(#p5ee3d301bf)" style="fill: none; stroke: #000000; stroke-width: 2"/>
    <path d="M 60.918427 127.983305 
L 60.398895 128.299642 
L 59.922658 128.294621 
L 59.715808 128.008411 
L 60.011652 127.476161 
L 60.293065 126.318768 
L 60.632203 126.062685 
L 61.425932 125.984856 
L 61.151735 126.446809 
L 61.125277 127.521352 
L 60.918427 127.983305 
" clip-path="url(#p5ee3d301bf)" style="fill: none; stroke: #000000; stroke-width: 2"/>
    <path d="M 63.237076 122.545316 
L 62.231687 123.33867 
L 59.102472 123.456668 
L 58.695987 123.562114 
L 58.265449 123.765474 
L 57.849343 123.891005 
L 57.478936 123.75041 
L 57.137393 123.456668 
L 56.742933 123.213139 
L 56.346069 123.107693 
L 55.973257 123.228203 
L 55.191555 122.673357 
L 54.794691 122.600549 
L 54.361748 122.801398 
L 54.07793 122.434849 
L 53.096593 121.832301 
L 52.629976 121.445667 
L 52.204249 121.189584 
L 51.691934 120.978693 
L 51.374442 120.712568 
L 51.537998 120.278231 
L 51.136324 119.916703 
L 51.518756 119.507473 
L 52.245138 119.171051 
L 53.111024 118.96518 
L 53.548777 118.658886 
L 53.837406 118.591099 
L 55.150666 118.591099 
L 55.766407 118.272251 
L 56.872816 117.137454 
L 57.276896 116.888903 
L 57.421211 116.708139 
L 57.878206 115.495512 
L 58.142782 115.369982 
L 58.784981 115.20177 
L 59.369453 115.849509 
L 59.838475 116.873839 
L 60.415732 118.801991 
L 60.531183 119.751003 
L 61.091604 120.320912 
L 63.208213 121.453199 
L 63.424685 121.716813 
L 63.460763 122.173745 
L 63.237076 122.545316 
" clip-path="url(#p5ee3d301bf)" style="fill: none; stroke: #000000; stroke-width: 2"/>
    <path d="M 36.70249 116.168357 
L 37.289368 116.369206 
L 37.741553 116.790989 
L 38.047018 116.888903 
L 38.148038 116.768393 
L 38.068665 115.89721 
L 38.347673 116.218569 
L 38.768589 116.888903 
L 38.739726 117.16256 
L 38.511229 117.504003 
L 38.549713 117.747533 
L 39.555102 118.169316 
L 39.83892 117.850468 
L 39.959182 117.747533 
L 40.168438 118.447994 
L 40.565302 119.030456 
L 40.904441 119.25139 
L 41.979582 119.645557 
L 42.643428 120.280742 
L 43.025861 120.823035 
L 43.446777 121.046479 
L 44.235695 120.715078 
L 44.620534 120.908395 
L 44.620534 121.136861 
L 44.423304 121.58124 
L 44.952456 122.173745 
L 46.232043 123.228203 
L 46.987288 123.092629 
L 47.391368 123.788069 
L 47.643918 125.312012 
L 47.088308 126.336342 
L 47.030582 126.903741 
L 47.482767 127.245185 
L 47.636702 126.258513 
L 48.170665 125.668519 
L 48.473725 125.653455 
L 49.099087 126.845997 
L 48.170665 127.666968 
L 47.788232 127.749818 
L 46.963235 128.907211 
L 46.972856 129.399291 
L 46.636123 129.580055 
L 46.157481 129.585077 
L 45.948225 129.328994 
L 45.630734 128.70134 
L 44.418494 128.425173 
L 44.235695 128.149005 
L 43.098018 128.201728 
L 42.537597 127.973263 
L 41.883373 128.216792 
L 40.947735 128.952402 
L 41.330168 129.323973 
L 41.594744 129.374185 
L 41.306116 129.760819 
L 40.954951 129.903924 
L 40.180464 130.00686 
L 39.555102 130.634513 
L 39.021139 130.446217 
L 38.953793 130.845405 
L 38.768589 130.845405 
L 38.52566 130.529067 
L 37.715095 130.247879 
L 37.354309 129.539885 
L 36.60147 128.774148 
L 36.531718 128.088751 
L 36.731353 128.088751 
L 37.034413 128.470364 
L 37.539513 128.70134 
L 37.289368 127.591649 
L 37.034413 127.004166 
L 36.170932 125.683583 
L 35.990539 124.292703 
L 35.521518 124.086832 
L 35.432524 123.42403 
L 35.463792 121.531028 
L 35.615322 121.136861 
L 35.283399 119.464793 
L 35.235295 118.67897 
L 34.898561 118.485653 
L 34.742221 117.943361 
L 33.686321 116.273803 
L 33.060959 116.695586 
L 32.880567 116.46712 
L 32.404329 117.047072 
L 31.04537 117.958424 
L 30.34304 117.318218 
L 29.948581 117.157539 
L 29.633495 117.32575 
L 29.361703 116.708139 
L 29.229415 116.062911 
L 28.738747 115.533171 
L 28.515059 115.284621 
L 28.41885 114.885433 
L 28.543922 114.154845 
L 29.431455 112.445117 
L 29.330435 110.012332 
L 29.633495 109.354551 
L 29.936555 109.284254 
L 30.84333 108.634005 
L 34.090401 109.916929 
L 34.051917 111.001514 
L 35.822173 113.281151 
L 35.302641 114.358204 
L 35.990539 114.722243 
L 36.105991 115.021006 
L 35.908761 115.412662 
L 36.70249 116.168357 
L 36.70249 116.168357 
" clip-path="url(#p5ee3d301bf)" style="fill: none; stroke: #000000; stroke-width: 2"/>
    <path d="M 31.064612 104.747575 
L 30.23721 105.051359 
L 29.650332 105.036295 
L 29.241441 104.835446 
L 28.41885 104.212814 
L 27.981097 104.037071 
L 27.153695 103.816137 
L 26.790504 103.58014 
L 26.292619 102.736573 
L 26.393639 101.915603 
L 26.963681 101.297992 
L 27.908939 101.049441 
L 30.001497 101.310545 
L 31.059801 101.667052 
L 31.156011 102.216876 
L 30.804846 103.163378 
L 31.016507 104.057156 
L 31.064612 104.747575 
" clip-path="url(#p5ee3d301bf)" style="fill: none; stroke: #000000; stroke-width: 2"/>
    <path d="M 30.347851 100.273661 
L 29.914908 100.617615 
L 29.229415 100.416766 
L 29.1308 100.542297 
L 29.034591 100.587488 
L 28.808499 100.632679 
L 28.377961 100.567403 
L 28.067685 100.454425 
L 27.394219 100.000004 
L 28.808499 98.503679 
L 29.371324 98.272702 
L 29.777809 98.277723 
L 29.852372 98.393212 
L 29.431455 98.503679 
L 29.431455 98.71457 
L 29.734515 98.79742 
L 29.849967 98.963121 
L 29.804267 99.166481 
L 29.633495 99.36733 
L 30.314178 99.738901 
L 30.347851 100.273661 
" clip-path="url(#p5ee3d301bf)" style="fill: none; stroke: #000000; stroke-width: 2"/>
    <path d="M 60.415732 112.445117 
L 59.749481 112.492818 
L 59.398316 112.279416 
L 59.254002 111.835037 
L 59.145766 110.592284 
L 58.619019 108.726898 
L 58.294312 106.359389 
L 57.587172 104.629576 
L 57.325001 103.534948 
L 57.248033 102.322322 
L 57.392348 101.04442 
L 58.113919 98.63423 
L 58.279881 96.168808 
L 58.929295 96.116085 
L 59.116903 97.547135 
L 59.203492 97.850919 
L 59.403127 98.132108 
L 59.590735 98.212447 
L 59.73505 98.363084 
L 59.792775 98.830058 
L 59.561873 100.723061 
L 59.607572 101.240248 
L 60.011652 102.216876 
L 60.011652 103.158356 
L 60.098241 103.587671 
L 60.790949 105.573567 
L 61.021852 107.157764 
L 61.163761 107.612185 
L 61.514926 108.317668 
L 61.627972 108.862471 
L 61.702534 110.080118 
L 61.625567 111.157172 
L 61.245539 111.978142 
L 60.415732 112.445117 
" clip-path="url(#p5ee3d301bf)" style="fill: none; stroke: #000000; stroke-width: 2"/>
    <path d="M 49.621024 96.583059 
L 48.940341 96.83161 
L 45.854421 96.816546 
L 45.226654 96.610676 
L 44.216454 96.098511 
L 44.043276 95.752046 
L 44.324689 95.219796 
L 47.932546 91.747617 
L 48.574745 91.534215 
L 49.075034 91.448854 
L 50.508556 90.881455 
L 53.029246 90.444608 
L 53.784491 90.570139 
L 53.808543 90.871413 
L 53.130266 91.534215 
L 52.745428 92.0037 
L 52.350969 92.636374 
L 52.045504 93.326793 
L 51.922836 93.964489 
L 51.826627 94.531888 
L 51.581293 94.943628 
L 49.621024 96.583059 
" clip-path="url(#p5ee3d301bf)" style="fill: none; stroke: #000000; stroke-width: 2"/>
    <path d="M 28.548733 80.813894 
L 28.284157 80.939425 
L 28.029201 80.916829 
L 27.798298 80.75364 
L 27.144074 80.013008 
L 27.006975 79.681607 
L 27.528912 79.834755 
L 28.288967 80.434792 
L 28.808499 80.525174 
L 28.548733 80.813894 
" clip-path="url(#p5ee3d301bf)" style="fill: none; stroke: #000000; stroke-width: 2"/>
    <path d="M 59.177034 93.15105 
L 59.001452 94.064914 
L 58.619019 93.916787 
L 58.301528 93.916787 
L 57.587172 94.064914 
L 57.757944 93.346878 
L 57.71465 92.57612 
L 57.370701 91.112432 
L 57.570335 90.04291 
L 57.558309 86.738943 
L 57.276896 86.038481 
L 56.562541 81.270826 
L 56.613051 81.029807 
L 56.692423 80.874149 
L 56.680397 80.705938 
L 56.468736 80.42726 
L 56.386958 80.133518 
L 56.492789 79.759436 
L 56.718881 79.433057 
L 56.983457 79.277399 
L 57.344243 79.493311 
L 57.661734 80.035604 
L 57.890232 80.645683 
L 57.974415 81.059934 
L 58.02252 81.772949 
L 58.380901 83.492719 
L 58.392927 83.809056 
L 58.352038 84.456795 
L 58.380901 84.773132 
L 58.72966 85.779888 
L 58.784981 86.131374 
L 58.784981 87.205917 
L 58.878785 87.472042 
L 59.292486 87.969143 
L 59.388695 88.24029 
L 59.297296 90.346695 
L 59.456042 90.796094 
L 59.403127 91.378557 
L 59.203492 92.25225 
L 59.177034 93.15105 
" clip-path="url(#p5ee3d301bf)" style="fill: none; stroke: #000000; stroke-width: 2"/>
    <path d="M 18.634341 86.824304 
L 19.394397 86.839367 
L 20.712467 86.68873 
L 21.785203 86.68622 
L 23.0696 85.089469 
L 23.156189 84.660154 
L 23.26683 80.859085 
L 23.108084 80.374537 
L 23.444818 79.940201 
L 24.38286 79.470716 
L 26.6053 79.681607 
L 26.6053 79.910073 
L 26.068932 80.000455 
L 25.816382 80.261559 
L 25.753846 80.653215 
L 25.835624 81.938649 
L 25.720173 82.254987 
L 25.376224 82.649153 
L 25.866892 82.706897 
L 26.066527 83.073447 
L 26.184384 84.125394 
L 26.790504 86.231799 
L 27.504859 85.70708 
L 27.872861 85.619209 
L 28.41885 85.82759 
L 28.276941 86.392478 
L 28.808499 88.872964 
L 28.666589 89.365045 
L 28.31783 89.580957 
L 28.755583 90.118229 
L 29.431455 90.444608 
L 29.539691 90.61533 
L 29.823509 91.303238 
L 29.626279 92.395355 
L 29.443481 92.568588 
L 29.229415 92.146805 
L 29.027375 92.146805 
L 29.23182 93.178667 
L 29.756162 94.74529 
L 30.448871 96.17634 
L 31.408561 96.932034 
L 31.463881 97.245861 
L 31.266652 97.850919 
L 31.054991 98.029173 
L 29.23182 97.850919 
L 28.808499 98.006577 
L 28.313019 98.398233 
L 26.937223 99.964856 
L 26.415287 100.165705 
L 25.729794 100.135577 
L 24.957712 99.769028 
L 23.834466 99.633455 
L 22.569311 99.668603 
L 21.436444 99.964856 
L 20.712467 100.632679 
L 21.001096 100.933953 
L 20.760572 100.969101 
L 20.1304 100.843571 
L 19.764803 101.084589 
L 19.302998 101.893007 
L 18.706499 102.184238 
L 18.042653 102.123984 
L 17.40286 101.780029 
L 16.883328 101.240248 
L 17.253735 100.657785 
L 17.263356 99.889537 
L 16.950675 99.226735 
L 15.930854 98.759761 
L 15.502721 98.312872 
L 14.848497 97.24335 
L 14.338586 96.070894 
L 13.434217 95.008904 
L 13.340412 94.62227 
L 12.808855 93.753597 
L 12.876202 93.47743 
L 13.150399 92.847266 
L 13.304334 91.943445 
L 13.814244 90.04291 
L 13.787787 88.61186 
L 13.629041 87.898846 
L 12.919496 86.859452 
L 12.746319 86.251884 
L 12.626057 84.96896 
L 12.322997 83.791482 
L 12.344644 83.369699 
L 12.626057 82.860044 
L 12.116146 82.686812 
L 11.803465 82.22737 
L 11.601425 81.059934 
L 11.471542 80.525174 
L 10.591225 79.048933 
L 10.047642 76.696488 
L 10.086125 76.194365 
L 10.297786 75.689732 
L 10.403617 74.944079 
L 10.374754 74.213491 
L 10.187145 73.764091 
L 10.990495 72.076958 
L 10.932769 71.313732 
L 11.0386 70.952204 
L 11.969427 70.658462 
L 12.286918 70.314508 
L 12.626057 70.605739 
L 13.612204 72.699591 
L 13.751708 73.083715 
L 14.439606 73.974982 
L 14.88217 75.087184 
L 15.478669 75.388458 
L 16.681288 76.309853 
L 16.39266 76.616148 
L 16.529758 77.331673 
L 17.063721 78.838041 
L 17.354755 80.269091 
L 17.597684 82.378007 
L 17.893528 82.754599 
L 18.297608 86.573242 
L 18.634341 86.824304 
L 18.634341 86.824304 
" clip-path="url(#p5ee3d301bf)" style="fill: none; stroke: #000000; stroke-width: 2"/>
    <path d="M 39.675364 55.446653 
L 41.488914 56.345453 
L 41.75349 56.558855 
L 41.979582 56.857618 
L 41.784758 58.484496 
L 41.695764 58.750621 
L 41.527397 58.938917 
L 40.767342 60.246947 
L 40.353641 60.683793 
L 40.031339 60.864558 
L 39.706632 60.894685 
L 37.722311 60.723963 
L 37.318231 60.879621 
L 36.892504 60.849494 
L 36.529313 60.693836 
L 36.228658 60.518093 
L 36.014592 60.437753 
L 35.884709 60.267031 
L 36.009781 59.895461 
L 36.308031 59.287892 
L 36.127638 57.595738 
L 36.199795 57.038382 
L 36.39943 56.769747 
L 36.690464 56.596514 
L 37.395198 56.004009 
L 37.606859 55.96384 
L 37.866625 56.019073 
L 38.364509 55.993967 
L 38.624275 55.865926 
L 39.078865 55.456696 
L 39.374709 55.361292 
L 39.675364 55.446653 
" clip-path="url(#p5ee3d301bf)" style="fill: none; stroke: #000000; stroke-width: 2"/>
    <path d="M 41.171422 46.285424 
L 41.330168 46.358231 
L 41.467266 46.323083 
L 41.55626 46.348189 
L 41.594744 46.601761 
L 41.510561 46.72227 
L 41.330168 46.714739 
L 41.113696 46.677079 
L 40.947735 46.707207 
L 40.464282 47.071246 
L 39.930319 47.337371 
L 39.302552 47.493029 
L 38.549713 47.550773 
L 38.650733 47.638644 
L 38.746942 47.688857 
L 38.739726 47.78426 
L 38.549713 47.972556 
L 38.891256 48.695613 
L 38.487176 49.240416 
L 37.866625 49.29565 
L 37.539513 48.514849 
L 37.520271 47.874642 
L 37.40963 47.477965 
L 37.108975 47.151585 
L 36.531718 46.707207 
L 35.831794 45.625132 
L 35.658617 44.987436 
L 35.706721 44.161444 
L 35.937624 43.498642 
L 36.341704 42.988988 
L 36.880477 42.594821 
L 38.160064 42.029933 
L 38.607438 42.022402 
L 39.02595 42.291037 
L 39.555102 42.896095 
L 40.401746 44.530505 
L 40.767342 44.794119 
L 40.399341 45.28871 
L 40.180464 45.426794 
L 40.370478 45.866151 
L 40.613407 46.029341 
L 40.890009 46.104659 
L 41.171422 46.285424 
" clip-path="url(#p5ee3d301bf)" style="fill: none; stroke: #000000; stroke-width: 2"/>
    <path d="M 44.476219 41.090964 
L 43.889341 41.216495 
L 43.389052 41.211473 
L 43.177391 41.547896 
L 42.924841 41.570491 
L 42.879141 41.284281 
L 43.956688 39.810551 
L 44.370389 39.446512 
L 44.923594 39.295875 
L 45.19298 39.484171 
L 45.332484 39.926039 
L 45.337295 40.423141 
L 45.226654 40.78969 
L 44.971698 40.922753 
L 44.476219 41.090964 
" clip-path="url(#p5ee3d301bf)" style="fill: none; stroke: #000000; stroke-width: 2"/>
    <path d="M 34.109643 36.325819 
L 34.410298 36.463903 
L 34.756652 36.388584 
L 35.117438 36.135012 
L 35.052497 36.938409 
L 34.698927 37.247214 
L 34.148127 37.264789 
L 33.484281 37.18947 
L 33.176411 36.732538 
L 32.935887 36.235437 
L 32.923861 35.738335 
L 33.284647 35.296467 
L 34.051917 35.093108 
L 34.540181 35.381828 
L 34.542586 35.783526 
L 33.888361 35.924121 
L 34.109643 36.325819 
" clip-path="url(#p5ee3d301bf)" style="fill: none; stroke: #000000; stroke-width: 2"/>
    <path d="M 14.956732 33.237764 
L 14.482901 34.211882 
L 14.061984 32.991724 
L 14.516574 32.750705 
L 14.956732 33.237764 
" clip-path="url(#p5ee3d301bf)" style="fill: none; stroke: #000000; stroke-width: 2"/>
    <path d="M 13.236987 28.246664 
L 12.719861 28.450024 
L 12.207545 28.327004 
L 11.983858 28.14875 
L 11.825112 27.965475 
L 11.707256 27.742031 
L 11.601425 27.463353 
L 12.058421 27.046591 
L 12.676567 26.815614 
L 13.26585 26.860805 
L 13.636257 27.272546 
L 13.600178 27.817349 
L 13.236987 28.246664 
" clip-path="url(#p5ee3d301bf)" style="fill: none; stroke: #000000; stroke-width: 2"/>
    <path d="M 11.154051 25.901751 
L 10.990495 25.987112 
L 10.514258 25.726008 
L 10.254492 25.414692 
L 10.165498 24.967802 
L 10.187145 24.305 
L 10.360322 23.456413 
L 10.389185 23.125012 
L 10.317028 22.894036 
L 10.158282 22.740888 
L 10.018779 22.54255 
L 9.985105 22.176 
L 10.98809 22.457189 
L 11.192535 22.602804 
L 11.348875 22.924163 
L 11.471542 23.622114 
L 11.601425 23.883217 
L 11.601425 24.074024 
L 11.457111 24.249767 
L 11.399385 24.440574 
L 11.437869 24.656486 
L 11.601425 24.937675 
L 11.428248 25.023036 
L 11.39217 25.151077 
L 11.406601 25.331841 
L 11.399385 25.57035 
L 11.34166 25.69588 
L 11.264692 25.806347 
L 11.154051 25.901751 
" clip-path="url(#p5ee3d301bf)" style="fill: none; stroke: #000000; stroke-width: 2"/>
   </g>
  </g>
 </g>
 <defs>
  <clipPath id="p5ee3d301bf">
   <rect x="0" y="-0" width="119.821264" height="266.112"/>
  </clipPath>
 </defs>
</svg>
