<?xml version="1.0" encoding="utf-8" standalone="no"?>
<!DOCTYPE svg PUBLIC "-//W3C//DTD SVG 1.1//EN"
  "http://www.w3.org/Graphics/SVG/1.1/DTD/svg11.dtd">
<svg xmlns:xlink="http://www.w3.org/1999/xlink" width="357.12pt" height="161.297172pt" viewBox="0 0 357.12 161.297172" xmlns="http://www.w3.org/2000/svg" version="1.1">
 <metadata>
  <rdf:RDF xmlns:dc="http://purl.org/dc/elements/1.1/" xmlns:cc="http://creativecommons.org/ns#" xmlns:rdf="http://www.w3.org/1999/02/22-rdf-syntax-ns#">
   <cc:Work>
    <dc:type rdf:resource="http://purl.org/dc/dcmitype/StillImage"/>
    <dc:date>2024-02-02T21:58:06.491539</dc:date>
    <dc:format>image/svg+xml</dc:format>
    <dc:creator>
     <cc:Agent>
      <dc:title>Matplotlib v3.8.2, https://matplotlib.org/</dc:title>
     </cc:Agent>
    </dc:creator>
   </cc:Work>
  </rdf:RDF>
 </metadata>
 <defs>
  <style type="text/css">*{stroke-linejoin: round; stroke-linecap: butt}</style>
 </defs>
 <g id="figure_1">
  <g id="patch_1">
   <path d="M 0 161.297172 
L 357.12 161.297172 
L 357.12 0 
L 0 0 
L 0 161.297172 
z
" style="fill: none"/>
  </g>
  <g id="axes_1">
   <g id="PatchCollection_1">
    <path d="M 298.079013 121.733015 
L 299.348576 124.291522 
L 309.261973 123.234747 
L 320.354893 128.852338 
L 327.36 137.213836 
L 325.03697 144.370239 
L 325.676253 145.260154 
L 326.684701 147.633262 
L 321.057204 147.855741 
L 305.399259 146.224229 
L 296.04411 147.095605 
L 291.704185 146.706267 
L 287.130156 144.370239 
L 283.519555 146.335469 
L 279.845925 146.11299 
L 272.849822 144.370239 
L 269.284241 144.703957 
L 259.803035 147.633262 
L 257.525025 147.559102 
L 255.589166 146.928746 
L 254.256575 145.668032 
L 253.752352 143.758422 
L 252.82494 141.811732 
L 250.645974 140.884737 
L 246.207005 139.865042 
L 242.27226 137.751493 
L 238.787714 136.546399 
L 235.222132 136.24976 
L 226.497263 137.417774 
L 222.598533 137.287995 
L 219.168012 136.082901 
L 215.989602 133.635634 
L 211.361549 126.275292 
L 209.038519 123.568466 
L 206.913576 124.291522 
L 205.400905 124.291522 
L 201.538192 118.72955 
L 198.945042 117.116579 
L 193.938821 116.504762 
L 189.427821 114.446832 
L 188.842561 109.626457 
L 190.625352 104.361124 
L 193.182486 100.820002 
L 210.632226 94.479355 
L 229.441569 91.47589 
L 239.544049 91.939388 
L 248.890195 94.015857 
L 280.332141 106.493213 
L 289.91239 107.605608 
L 294.729527 109.366899 
L 298.619252 112.296204 
L 300.861247 116.504762 
L 300.501087 118.82225 
L 299.024432 120.194203 
L 298.079013 121.733015 
" clip-path="url(#p4f6a159ce7)" style="fill: none; stroke: #000000; stroke-width: 2"/>
    <path d="M 140.860278 20.449515 
L 153.636946 35.207279 
L 153.835033 36.171354 
L 153.456866 38.748401 
L 153.636946 39.749556 
L 154.798461 40.769251 
L 157.499659 41.881645 
L 158.445078 42.994039 
L 159.210418 45.404227 
L 159.633605 47.851494 
L 159.804681 53.098287 
L 160.831137 57.455165 
L 162.794007 60.106371 
L 164.06357 62.980057 
L 162.965083 68.022911 
L 160.741097 71.564033 
L 158.20197 74.345018 
L 156.131052 77.626581 
L 155.284676 82.891914 
L 155.941968 88.120168 
L 155.806908 90.474736 
L 154.456309 91.47589 
L 149.206981 91.420271 
L 146.892954 90.919693 
L 144.56092 89.807299 
L 141.076374 86.803834 
L 139.266571 84.560506 
L 137.087605 83.373952 
L 132.468556 83.70767 
L 121.357628 87.749369 
L 87.16046 91.47589 
L 85.008506 89.937078 
L 82.739499 86.896534 
L 80.974716 85.135243 
L 77.382123 83.151473 
L 75.66236 81.77952 
L 74.924033 79.77721 
L 74.464829 77.682201 
L 72.384906 73.121385 
L 71.907695 70.358939 
L 70.800203 67.615033 
L 68.180041 65.890822 
L 65.172707 64.685728 
L 62.849677 63.350855 
L 58.095568 55.897813 
L 55.232298 52.412311 
L 49.505758 50.187522 
L 47.263764 48.481851 
L 43.887266 45.330067 
L 43.193959 44.199133 
L 42.941847 41.807485 
L 42.374595 40.583852 
L 41.114036 39.879335 
L 38.187738 40.138894 
L 37.026223 39.749556 
L 34.496101 36.727552 
L 31.110599 31.499298 
L 29.76 26.530604 
L 33.307574 24.305815 
L 40.870928 24.305815 
L 49.109583 27.420519 
L 56.618913 27.642998 
L 61.535094 26.938482 
L 66.766414 24.046257 
L 69.278529 23.37882 
L 74.176701 22.933862 
L 76.976943 22.229346 
L 82.946591 19.151722 
L 85.512729 18.261806 
L 102.944461 18.261806 
L 107.455462 17.55729 
L 116.801607 14.386966 
L 121.906872 13.441431 
L 126.715004 13.478511 
L 131.595169 14.368426 
L 136.37629 16.556135 
L 140.860278 20.449515 
" clip-path="url(#p4f6a159ce7)" style="fill: none; stroke: #000000; stroke-width: 2"/>
   </g>
  </g>
 </g>
 <defs>
  <clipPath id="p4f6a159ce7">
   <rect x="0" y="0" width="357.12" height="161.297172"/>
  </clipPath>
 </defs>
</svg>
