<?xml version="1.0" encoding="utf-8" standalone="no"?>
<!DOCTYPE svg PUBLIC "-//W3C//DTD SVG 1.1//EN"
  "http://www.w3.org/Graphics/SVG/1.1/DTD/svg11.dtd">
<svg xmlns:xlink="http://www.w3.org/1999/xlink" width="357.12pt" height="212.757867pt" viewBox="0 0 357.12 212.757867" xmlns="http://www.w3.org/2000/svg" version="1.1">
 <metadata>
  <rdf:RDF xmlns:dc="http://purl.org/dc/elements/1.1/" xmlns:cc="http://creativecommons.org/ns#" xmlns:rdf="http://www.w3.org/1999/02/22-rdf-syntax-ns#">
   <cc:Work>
    <dc:type rdf:resource="http://purl.org/dc/dcmitype/StillImage"/>
    <dc:date>2024-02-02T21:58:06.517546</dc:date>
    <dc:format>image/svg+xml</dc:format>
    <dc:creator>
     <cc:Agent>
      <dc:title>Matplotlib v3.8.2, https://matplotlib.org/</dc:title>
     </cc:Agent>
    </dc:creator>
   </cc:Work>
  </rdf:RDF>
 </metadata>
 <defs>
  <style type="text/css">*{stroke-linejoin: round; stroke-linecap: butt}</style>
 </defs>
 <g id="figure_1">
  <g id="patch_1">
   <path d="M 0 212.757867 
L 357.12 212.757867 
L 357.12 0 
L 0 0 
L 0 212.757867 
z
" style="fill: none"/>
  </g>
  <g id="axes_1">
   <g id="PatchCollection_1">
    <path d="M 296.791162 194.84903 
L 296.841476 195.028045 
L 296.028357 194.96661 
L 295.670589 194.939818 
L 295.304637 194.774138 
L 295.794535 194.580231 
L 296.261302 194.618713 
L 296.538757 194.759442 
L 296.791162 194.84903 
" clip-path="url(#p699afa0ecd)" style="fill: none; stroke: #000000; stroke-width: 2"/>
    <path d="M 290.09982 193.25385 
L 290.460035 193.393254 
L 290.839589 193.392735 
L 291.200645 193.65403 
L 291.303763 194.072271 
L 291.286508 194.438251 
L 290.925511 194.542852 
L 290.54741 194.595179 
L 289.807657 194.299248 
L 289.309666 193.863932 
L 288.777756 193.707268 
L 288.863477 193.463364 
L 289.241433 193.341169 
L 289.566391 193.376348 
L 289.82466 193.271493 
L 290.09982 193.25385 
" clip-path="url(#p699afa0ecd)" style="fill: none; stroke: #000000; stroke-width: 2"/>
    <path d="M 268.770222 192.388226 
L 269.305086 192.581399 
L 269.711249 192.558433 
L 270.438488 192.686275 
L 271.507463 192.72634 
L 272.256146 193.049593 
L 273.62849 192.73218 
L 273.995974 192.818112 
L 273.997993 192.818112 
L 274.1252 193.073811 
L 273.797135 193.196868 
L 273.540261 193.47965 
L 273.73406 193.63093 
L 273.970352 194.064208 
L 273.263662 193.935795 
L 272.964019 194.001662 
L 272.534112 194.133288 
L 271.395313 193.919506 
L 270.292488 193.857929 
L 270.163569 193.641443 
L 269.899126 193.254058 
L 269.743651 193.246723 
L 269.586158 193.239387 
L 269.063199 193.400771 
L 268.794653 193.446881 
L 268.693695 193.356757 
L 268.415053 192.939674 
L 268.360536 192.81392 
L 268.227272 192.84431 
L 267.723565 192.630392 
L 267.402543 192.696381 
L 267.118761 192.782481 
L 266.957229 192.649392 
L 266.858291 192.566604 
L 266.031316 192.180531 
L 265.922935 191.833737 
L 266.286284 191.723934 
L 266.666472 191.671656 
L 267.270589 191.677267 
L 267.998616 191.848561 
L 268.770222 192.388226 
" clip-path="url(#p699afa0ecd)" style="fill: none; stroke: #000000; stroke-width: 2"/>
    <path d="M 52.170508 181.081084 
L 52.132144 181.449962 
L 51.843407 181.617634 
L 51.671779 181.552661 
L 51.381022 181.242468 
L 51.237663 181.089468 
L 50.948925 181.161776 
L 50.775278 181.078988 
L 50.710665 180.737357 
L 50.896427 180.622083 
L 51.114495 180.564446 
L 51.673798 180.545582 
L 52.002919 180.714302 
L 52.043302 180.80233 
L 52.170508 181.081084 
" clip-path="url(#p699afa0ecd)" style="fill: none; stroke: #000000; stroke-width: 2"/>
    <path d="M 303.379118 179.77299 
L 304.183901 179.870522 
L 304.772827 179.810795 
L 305.38865 179.747596 
L 306.362607 180.64847 
L 308.071719 181.93813 
L 309.192478 182.239639 
L 310.136265 182.481504 
L 310.639864 181.854947 
L 310.877912 181.227554 
L 311.55763 181.079783 
L 312.029927 181.140977 
L 312.470502 181.352916 
L 313.29815 181.23542 
L 314.155509 181.267464 
L 315.074389 180.731476 
L 315.400091 180.612813 
L 315.993271 180.225538 
L 316.26277 179.898998 
L 316.916974 179.841361 
L 317.235817 180.169763 
L 317.589738 180.440324 
L 318.120199 180.771673 
L 318.5065 180.68284 
L 318.805009 180.50369 
L 318.930063 180.565493 
L 319.182456 180.856823 
L 319.382352 181.089468 
L 319.842717 181.105187 
L 320.406059 181.22151 
L 320.637313 181.618364 
L 321.022218 181.769559 
L 321.881028 182.162437 
L 322.890268 182.376331 
L 323.898357 182.95026 
L 324.422726 183.114472 
L 325.632348 183.899008 
L 326.28415 183.812774 
L 326.759532 183.51608 
L 327.026023 183.547504 
L 327.36 183.727155 
L 327.05316 184.056612 
L 326.311589 184.26199 
L 325.777793 184.438625 
L 325.303863 184.525798 
L 325.036672 184.733862 
L 324.987788 185.414515 
L 323.937197 185.865135 
L 323.101572 186.0623 
L 322.096908 186.477253 
L 320.984562 186.378503 
L 320.056747 186.732673 
L 319.846755 186.947502 
L 319.382352 187.611902 
L 319.158226 187.756519 
L 318.516138 188.0468 
L 317.799341 188.631556 
L 317.440554 188.84955 
L 316.701513 188.786032 
L 315.548235 188.870068 
L 315.134311 188.807886 
L 314.720943 188.926388 
L 314.159165 189.402941 
L 313.605573 189.215263 
L 313.599516 189.215263 
L 313.209821 189.093701 
L 312.448102 189.276745 
L 311.385934 189.453133 
L 308.405631 190.043929 
L 307.284478 190.161239 
L 305.839451 190.00856 
L 304.48329 189.587104 
L 303.339036 189.280425 
L 302.839175 188.771285 
L 302.441712 188.272109 
L 302.033844 187.762806 
L 301.68857 187.175955 
L 301.037243 186.948209 
L 300.007587 186.258349 
L 297.436247 184.621056 
L 296.828484 184.050971 
L 296.757814 183.903211 
L 296.975882 183.726107 
L 297.641054 183.923644 
L 298.149896 183.86431 
L 298.68408 183.544812 
L 298.805229 183.455736 
L 298.847631 183.227284 
L 299.057622 182.765138 
L 299.146464 182.495815 
L 298.969285 180.991282 
L 299.334273 180.845306 
L 299.76318 180.761494 
L 300.80656 180.606095 
L 301.042289 180.216916 
L 301.308979 179.828397 
L 301.545741 179.559421 
L 302.019057 179.500542 
L 303.379118 179.77299 
" clip-path="url(#p699afa0ecd)" style="fill: none; stroke: #000000; stroke-width: 2"/>
    <path d="M 33.303602 155.047939 
L 33.301583 155.048986 
L 33.247066 154.734602 
L 33.234951 154.670677 
L 33.234951 154.668581 
L 33.42677 154.136223 
L 34.064821 153.018062 
L 35.118815 152.257251 
L 35.635717 152.057092 
L 35.942627 152.314888 
L 35.865899 152.80952 
L 35.112758 153.618536 
L 34.929015 154.169757 
L 34.676622 154.413929 
L 33.303602 155.047939 
" clip-path="url(#p699afa0ecd)" style="fill: none; stroke: #000000; stroke-width: 2"/>
    <path d="M 35.785133 148.277141 
L 35.615525 148.450052 
L 34.929015 148.431189 
L 35.264194 147.712296 
L 35.264194 147.711249 
L 34.743254 147.508994 
L 34.121357 147.177843 
L 33.897231 146.970349 
L 33.604455 146.699978 
L 33.568111 146.588895 
L 33.386387 146.05025 
L 33.608493 145.661461 
L 34.109242 145.205603 
L 34.678641 144.840917 
L 35.08247 144.723546 
L 35.264194 144.547491 
L 35.962818 145.43196 
L 36.112235 145.793502 
L 36.108197 146.073304 
L 35.773019 147.024842 
L 35.736674 147.830715 
L 35.736674 147.831763 
L 35.785133 148.277141 
" clip-path="url(#p699afa0ecd)" style="fill: none; stroke: #000000; stroke-width: 2"/>
    <path d="M 30.648425 110.549934 
L 30.921009 110.604427 
L 31.246092 110.513255 
L 31.565117 110.330912 
L 31.805396 110.367591 
L 31.803376 110.681975 
L 31.508581 111.670191 
L 31.43993 112.014966 
L 31.490409 112.229796 
L 31.435892 112.431002 
L 31.314743 112.547324 
L 31.338973 112.594482 
L 31.484351 112.547324 
L 31.456083 112.701373 
L 30.955335 113.456944 
L 30.664578 113.727315 
L 30.321323 113.710547 
L 30.048738 113.486286 
L 29.76 113.052436 
L 29.764038 112.471872 
L 30.018451 111.841007 
L 30.087102 110.514303 
L 30.385935 110.073117 
L 30.702941 109.746157 
L 30.94322 109.541807 
L 31.044177 109.324881 
L 31.153211 109.14149 
L 31.698381 108.856448 
L 31.876066 108.936092 
L 31.999234 109.160353 
L 31.363202 109.576389 
L 31.284456 109.743013 
L 31.39147 109.784931 
L 31.403585 109.906493 
L 31.306666 110.065781 
L 31.080522 110.239741 
L 30.727171 110.419988 
L 30.648425 110.549934 
" clip-path="url(#p699afa0ecd)" style="fill: none; stroke: #000000; stroke-width: 2"/>
    <path d="M 286.730318 67.883272 
L 291.376788 78.340177 
L 290.859887 78.608452 
L 289.684743 78.927029 
L 288.768051 78.702767 
L 288.495466 78.956371 
L 287.661558 79.165961 
L 286.908417 79.863895 
L 286.296615 80.060909 
L 285.448574 80.557637 
L 284.406694 80.758843 
L 283.903927 80.981008 
L 282.613692 81.695709 
L 279.160951 82.603233 
L 277.545634 83.361948 
L 274.76325 85.319517 
L 272.237298 87.38188 
L 271.266088 88.599597 
L 270.817837 89.498737 
L 269.826436 90.737412 
L 269.717403 91.324264 
L 269.899126 91.955129 
L 269.711345 92.42985 
L 269.154061 93.070146 
L 268.899648 94.122287 
L 268.301981 94.826509 
L 268.190928 95.29599 
L 268.960223 96.964324 
L 268.685619 98.024849 
L 269.08541 98.409446 
L 269.899126 98.827578 
L 269.921336 99.209031 
L 269.717403 101.042941 
L 269.826436 102.169487 
L 270.068734 103.257257 
L 270.407951 103.696348 
L 270.201998 104.426768 
L 269.998064 104.767352 
L 269.269152 104.886818 
L 265.501424 105.954678 
L 264.752321 106.504851 
L 264.126386 106.59707 
L 262.17589 107.363121 
L 261.210738 107.976171 
L 261.152183 108.690872 
L 261.061321 108.70764 
L 260.99267 109.042983 
L 260.096169 108.564071 
L 259.603497 108.897318 
L 258.347588 109.158258 
L 256.391035 110.243933 
L 256.076048 110.554125 
L 255.948842 110.921955 
L 256.088163 111.423923 
L 256.304212 111.871397 
L 255.779233 112.065268 
L 253.154343 112.316775 
L 252.259861 112.701373 
L 251.8843 112.959168 
L 251.288651 113.66339 
L 250.600122 113.773424 
L 250.527433 113.933761 
L 250.25081 113.947384 
L 248.647608 114.718674 
L 248.017634 114.513276 
L 247.323047 114.796222 
L 246.190306 115.437567 
L 241.253493 116.781038 
L 235.832084 117.803836 
L 231.121415 119.128443 
L 228.456141 119.384143 
L 225.437517 120.752764 
L 223.220494 122.573051 
L 222.208902 122.760634 
L 220.759155 123.541356 
L 219.164029 124.669997 
L 218.804621 124.692004 
L 218.338198 124.503373 
L 217.722358 124.646942 
L 216.207998 125.265232 
L 215.747633 125.315533 
L 215.448799 124.490797 
L 213.274178 124.787367 
L 209.712403 125.987268 
L 204.242535 127.400951 
L 201.322849 129.042039 
L 200.264816 129.47065 
L 199.138133 129.654042 
L 198.633346 129.911837 
L 197.658098 130.607675 
L 195.576358 131.573884 
L 194.617263 132.261338 
L 194.41131 133.085026 
L 194.162955 133.04206 
L 193.298761 132.671086 
L 192.715227 132.733963 
L 192.200345 133.007478 
L 191.83286 133.355397 
L 190.595123 135.151581 
L 190.144854 136.059105 
L 189.904575 137.129061 
L 190.096394 137.261102 
L 190.047935 137.859481 
L 189.989379 138.025057 
L 189.688527 138.228359 
L 188.45079 138.807875 
L 188.305411 139.424069 
L 187.95206 139.645186 
L 187.50381 139.732166 
L 186.978832 140.125147 
L 186.930372 140.347312 
L 186.845568 141.065157 
L 186.498275 141.376398 
L 186.239824 142.089003 
L 185.811765 142.365661 
L 184.8769 142.772265 
L 183.404942 144.633423 
L 182.189416 145.296774 
L 181.995578 145.266384 
L 179.100122 145.203507 
L 178.686197 145.346028 
L 177.339426 146.415984 
L 176.935597 146.473621 
L 176.717529 146.673779 
L 176.263221 146.115222 
L 175.392969 145.955934 
L 173.478818 145.969557 
L 173.551507 146.070161 
L 173.664579 146.321668 
L 172.634814 146.340531 
L 169.769645 147.18413 
L 169.890794 146.559553 
L 169.493022 146.152949 
L 168.570272 145.601727 
L 168.400664 145.793502 
L 167.716173 145.461302 
L 165.505208 144.914273 
L 165.127627 145.123863 
L 163.035791 145.838564 
L 161.775844 147.376953 
L 160.645122 147.974284 
L 156.830954 149.294699 
L 156.29588 149.655194 
L 154.274714 151.820256 
L 151.094558 154.681156 
L 150.155655 155.278487 
L 144.415221 157.062096 
L 138.089235 158.409759 
L 135.914614 159.876887 
L 132.431586 161.140713 
L 131.936895 161.067357 
L 131.052509 160.790698 
L 130.468976 160.788602 
L 129.941978 160.937411 
L 128.367044 161.506447 
L 123.230335 161.492824 
L 122.152111 161.314673 
L 121.283878 160.905973 
L 121.025427 161.102987 
L 120.365166 161.314673 
L 118.22689 161.666784 
L 113.558623 161.959161 
L 112.38146 162.371005 
L 110.885273 162.368909 
L 110.588458 162.56278 
L 107.172062 163.336166 
L 106.336135 163.776305 
L 103.949504 166.254704 
L 102.913682 167.130789 
L 102.598695 168.086518 
L 101.423552 169.611284 
L 100.652238 170.337513 
L 99.715354 170.760884 
L 95.454954 171.817216 
L 94.475668 172.346431 
L 93.246008 173.563099 
L 92.801796 174.531404 
L 92.694781 175.063762 
L 92.05875 176.853659 
L 92.192013 177.898464 
L 92.107209 178.272581 
L 91.628671 178.420342 
L 91.093597 178.329171 
L 90.52016 178.088142 
L 90.14056 177.750703 
L 90.180943 177.36401 
L 90.588811 177.205769 
L 91.525695 177.20053 
L 91.707418 176.757247 
L 91.610499 176.747816 
L 91.150134 176.034163 
L 91.186478 175.822477 
L 90.883606 175.835052 
L 90.683711 176.432383 
L 90.479777 176.458582 
L 90.096139 176.310821 
L 89.278385 176.419808 
L 88.587837 177.308468 
L 88.12949 177.392304 
L 87.794312 177.012947 
L 87.46721 177.203674 
L 87.364234 177.427935 
L 87.473268 178.068231 
L 87.810465 177.861785 
L 88.690813 178.031553 
L 88.488898 178.628884 
L 88.12949 178.923358 
L 87.709508 179.100461 
L 87.386444 179.042824 
L 86.455618 178.612117 
L 86.251684 178.193985 
L 85.932659 178.068231 
L 85.322876 178.008498 
L 84.820109 178.18141 
L 83.899378 178.788172 
L 83.687368 177.807292 
L 83.051337 177.205769 
L 82.027629 176.8327 
L 80.991807 176.790782 
L 80.052904 176.99618 
L 79.309858 177.36401 
L 77.997413 178.492651 
L 76.531512 180.174609 
L 76.151913 180.63885 
L 75.939902 180.250061 
L 72.475047 181.498168 
L 71.511914 181.449962 
L 70.585125 181.952978 
L 70.037937 181.978129 
L 69.549303 181.802073 
L 69.266623 181.441579 
L 70.554838 181.617634 
L 70.764829 181.439483 
L 70.754734 181.099947 
L 70.585125 180.888262 
L 70.300426 181.089468 
L 69.65026 181.004584 
L 68.852698 181.3284 
L 67.388816 182.143704 
L 66.266171 182.35015 
L 65.636197 182.133225 
L 64.885074 182.455993 
L 64.509513 182.495815 
L 64.032995 182.183527 
L 63.59484 181.278099 
L 63.231393 181.089468 
L 62.720549 181.017159 
L 62.312682 180.834816 
L 61.214266 180.169369 
L 60.228922 179.885375 
L 59.33646 179.721895 
L 57.888731 178.962132 
L 56.776182 178.874104 
L 56.156304 178.470644 
L 55.932178 178.420342 
L 55.613153 178.547144 
L 54.070525 180.118019 
L 53.72727 180.303506 
L 53.20633 180.369527 
L 52.642989 180.284643 
L 52.499629 180.041519 
L 52.97009 177.979156 
L 52.988263 176.983604 
L 52.770195 176.093896 
L 52.267427 175.270208 
L 51.516305 174.559699 
L 51.164973 173.767449 
L 50.910561 173.401715 
L 50.779316 172.409307 
L 50.387602 171.546846 
L 49.371971 170.227478 
L 49.335626 170.02732 
L 48.693538 168.555999 
L 47.205427 166.6655 
L 46.646123 164.832637 
L 46.975244 164.027812 
L 47.191293 163.156967 
L 47.33869 158.58267 
L 48.354321 157.062096 
L 48.027219 156.249936 
L 48.110004 154.461087 
L 48.00097 153.546228 
L 47.072163 151.686119 
L 46.815731 149.573454 
L 46.670353 149.339761 
L 45.043012 147.574376 
L 43.960009 145.037533 
L 43.400586 144.227198 
L 42.911115 141.373519 
L 40.869345 134.843484 
L 40.71589 133.789248 
L 40.021303 133.16467 
L 40.186873 132.732915 
L 40.372635 132.779025 
L 40.625028 132.988615 
L 40.885498 133.500014 
L 41.182312 134.67686 
L 41.563931 135.00382 
L 41.527586 133.908714 
L 41.37817 133.595377 
L 41.741616 132.533805 
L 41.467012 131.677631 
L 40.982417 130.897957 
L 40.770406 129.879351 
L 41.055106 129.464363 
L 40.901651 129.187704 
L 40.794636 128.874368 
L 40.201007 128.313715 
L 40.079858 128.140803 
L 39.597282 126.072152 
L 38.414062 124.563106 
L 38.093018 123.091786 
L 38.13542 122.810935 
L 38.329258 122.854949 
L 38.44435 123.056155 
L 38.329258 123.717411 
L 38.807796 124.720298 
L 39.209606 125.187683 
L 39.682086 125.491589 
L 39.847656 123.737322 
L 39.583148 122.815127 
L 39.346908 121.64352 
L 39.134898 121.371054 
L 38.232339 120.423708 
L 38.056673 119.995097 
L 37.990042 119.385191 
L 38.11119 117.99561 
L 37.990042 117.548136 
L 37.656882 117.121621 
L 36.78663 116.726544 
L 35.490338 115.705842 
L 34.416152 115.244745 
L 33.866944 115.116895 
L 33.374272 115.116895 
L 33.014864 115.334868 
L 32.877562 115.860939 
L 32.604978 115.933247 
L 32.041636 115.719465 
L 31.553002 115.290854 
L 31.520696 114.718674 
L 31.357145 114.361324 
L 31.635787 114.333029 
L 32.461618 114.525852 
L 32.885639 114.462975 
L 33.156205 114.286919 
L 33.386387 113.66339 
L 33.362158 113.391971 
L 33.107745 113.010518 
L 33.047171 112.695085 
L 33.895212 111.201758 
L 34.024438 111.531862 
L 33.961844 111.956281 
L 33.572149 112.608105 
L 34.424229 113.066059 
L 35.550912 114.110864 
L 35.60341 114.446208 
L 35.621583 115.095936 
L 35.942627 115.244745 
L 35.93455 114.902065 
L 35.773019 114.718674 
L 36.144542 114.320454 
L 36.293958 113.738842 
L 36.239441 111.76765 
L 36.003201 110.855935 
L 35.502453 109.768164 
L 35.530721 108.298939 
L 35.429764 107.988747 
L 35.074394 107.344258 
L 34.064821 105.954678 
L 34.117318 105.74404 
L 34.416152 105.382498 
L 33.955787 104.822893 
L 33.792236 104.465542 
L 33.725604 104.040075 
L 33.986074 103.126264 
L 33.925499 102.742715 
L 33.386387 102.553036 
L 33.568111 102.157959 
L 34.723062 101.011503 
L 34.888632 99.609347 
L 35.219772 99.110524 
L 36.564524 98.101349 
L 36.820956 97.648635 
L 36.932009 97.060736 
L 37.142 93.536484 
L 37.063253 92.361733 
L 36.38482 88.744214 
L 36.257614 86.650412 
L 35.807515 85.327189 
L 37.865996 84.536762 
L 38.50451 84.092243 
L 38.717348 83.679665 
L 38.717348 82.535096 
L 38.981473 82.420639 
L 40.309789 82.111871 
L 41.930437 81.068449 
L 42.240719 80.626592 
L 42.981806 78.457233 
L 43.13823 77.558879 
L 43.456205 77.424459 
L 44.076769 77.540246 
L 45.073006 77.843691 
L 45.496118 77.763837 
L 45.637543 77.242824 
L 45.49099 76.640561 
L 45.26533 76.247947 
L 45.211479 75.893929 
L 45.791015 75.197871 
L 46.206434 74.962303 
L 46.311571 74.692131 
L 46.278235 74.358076 
L 46.110272 74.078588 
L 45.855123 73.878954 
L 44.934533 73.623422 
L 44.648612 73.389185 
L 44.348587 72.448242 
L 43.825466 71.443416 
L 43.728022 71.006883 
L 43.894703 70.366722 
L 44.402437 68.878781 
L 44.405002 68.317144 
L 43.969068 66.905064 
L 44.115234 66.371375 
L 44.63579 65.35191 
L 44.776828 64.828868 
L 44.753749 64.233958 
L 44.905043 63.725556 
L 45.419189 63.318302 
L 47.198824 62.638214 
L 47.287293 62.121827 
L 47.030862 61.569506 
L 46.543642 61.198186 
L 45.125575 60.732373 
L 45.196093 60.613923 
L 46.3885 59.153931 
L 48.550219 57.303987 
L 50.732452 55.94115 
L 51.274805 55.734862 
L 51.822286 55.660332 
L 52.273606 55.765472 
L 53.519864 55.902555 
L 55.348221 56.687783 
L 56.402155 57.309311 
L 58.133069 59.240439 
L 59.158795 60.049624 
L 59.65499 60.223971 
L 60.105028 60.227964 
L 61.03331 60.122823 
L 62.448813 60.190698 
L 63.178361 60.085558 
L 63.212979 61.086391 
L 63.442485 61.288687 
L 63.736099 61.35257 
L 64.320764 61.266062 
L 64.707975 60.884095 
L 65.402905 59.936497 
L 65.938847 59.653017 
L 66.361959 59.699598 
L 67.314603 60.188037 
L 67.959528 60.281199 
L 68.433927 60.061602 
L 68.810881 59.59845 
L 69.173732 58.960951 
L 69.539147 58.700096 
L 70.044317 58.763979 
L 71.090558 59.066092 
L 71.562392 59.034151 
L 73.467679 58.593624 
L 75.869162 58.342085 
L 77.38339 58.400645 
L 79.086096 58.75067 
L 79.784872 58.709412 
L 81.881201 58.005369 
L 94.756633 58.093208 
L 96.164442 58.376688 
L 100.198111 60.717733 
L 101.331539 61.090384 
L 123.469281 63.355567 
L 133.082902 62.033988 
L 134.003492 62.565015 
L 139.539851 70.237625 
L 139.853979 70.43726 
L 143.470947 70.592974 
L 144.278707 70.479848 
L 145.012101 70.184389 
L 150.90904 66.728424 
L 151.638294 65.755171 
L 154.470582 57.99206 
L 154.889847 57.194854 
L 169.105134 39.536538 
L 169.662873 39.149913 
L 190.78771 28.441531 
L 193.094312 27.607725 
L 263.801485 17.729822 
L 282.44791 61.403144 
L 282.401752 61.416453 
L 282.232508 61.447063 
L 282.599205 61.678639 
L 283.532616 61.731875 
L 283.958292 61.883597 
L 284.219853 62.238946 
L 286.730318 67.883272 
L 286.730318 67.883272 
" clip-path="url(#p699afa0ecd)" style="fill: none; stroke: #000000; stroke-width: 2"/>
   </g>
  </g>
 </g>
 <defs>
  <clipPath id="p699afa0ecd">
   <rect x="0" y="0" width="357.12" height="212.757867"/>
  </clipPath>
 </defs>
</svg>
