<?xml version="1.0" encoding="utf-8" standalone="no"?>
<!DOCTYPE svg PUBLIC "-//W3C//DTD SVG 1.1//EN"
  "http://www.w3.org/Graphics/SVG/1.1/DTD/svg11.dtd">
<svg xmlns:xlink="http://www.w3.org/1999/xlink" width="189.790587pt" height="266.112pt" viewBox="0 0 189.790587 266.112" xmlns="http://www.w3.org/2000/svg" version="1.1">
 <metadata>
  <rdf:RDF xmlns:dc="http://purl.org/dc/elements/1.1/" xmlns:cc="http://creativecommons.org/ns#" xmlns:rdf="http://www.w3.org/1999/02/22-rdf-syntax-ns#">
   <cc:Work>
    <dc:type rdf:resource="http://purl.org/dc/dcmitype/StillImage"/>
    <dc:date>2024-02-02T21:58:06.543550</dc:date>
    <dc:format>image/svg+xml</dc:format>
    <dc:creator>
     <cc:Agent>
      <dc:title>Matplotlib v3.8.2, https://matplotlib.org/</dc:title>
     </cc:Agent>
    </dc:creator>
   </cc:Work>
  </rdf:RDF>
 </metadata>
 <defs>
  <style type="text/css">*{stroke-linejoin: round; stroke-linecap: butt}</style>
 </defs>
 <g id="figure_1">
  <g id="patch_1">
   <path d="M 0 266.112 
L 189.790587 266.112 
L 189.790587 0 
L 0 0 
L 0 266.112 
z
" style="fill: none"/>
  </g>
  <g id="axes_1">
   <g id="PatchCollection_1">
    <path d="M 173.136299 243.713677 
L 172.935226 243.872791 
L 172.715002 243.936 
L 172.653363 243.925102 
L 172.528291 243.879329 
L 171.712626 243.848815 
L 171.601317 243.869158 
L 171.335014 243.834284 
L 171.211737 243.783426 
L 171.104019 243.691881 
L 171.068113 243.623586 
L 171.025026 243.49862 
L 171.015451 243.380193 
L 171.1495 243.27775 
L 171.30988 243.069958 
L 171.379298 243.022006 
L 171.425378 242.97914 
L 171.581569 242.778613 
L 171.655775 242.711045 
L 171.893951 242.652921 
L 172.141703 242.681983 
L 172.822122 242.850541 
L 173.17041 243.189112 
L 173.371484 243.25886 
L 173.291892 243.495714 
L 173.136299 243.713677 
" clip-path="url(#pf6bcac9f17)" style="fill: none; stroke: #000000; stroke-width: 2"/>
    <path d="M 173.964531 241.069779 
L 173.686858 241.156238 
L 173.337373 241.114098 
L 173.116551 240.993492 
L 173.144677 240.797325 
L 173.405594 240.668 
L 173.737725 240.655648 
L 173.974705 240.810403 
L 173.964531 241.069779 
" clip-path="url(#pf6bcac9f17)" style="fill: none; stroke: #000000; stroke-width: 2"/>
    <path d="M 112.819846 22.176 
L 113.04063 22.244281 
L 113.686259 22.26458 
L 114.364568 22.647506 
L 114.545071 22.755463 
L 114.917476 22.817285 
L 116.302975 23.668026 
L 117.186868 23.767679 
L 117.521273 24.055565 
L 118.04568 24.113696 
L 118.76009 23.85995 
L 119.040534 23.811046 
L 120.070348 23.961449 
L 120.412353 23.750147 
L 122.127697 23.687403 
L 123.431876 24.02327 
L 123.785281 23.871945 
L 124.47005 24.239185 
L 124.616352 24.310234 
L 124.787735 24.594429 
L 124.715534 24.754981 
L 126.652041 31.64672 
L 126.542979 34.053154 
L 126.680161 34.370567 
L 127.531373 35.546103 
L 128.113542 37.445506 
L 128.355225 37.778606 
L 128.916873 38.283329 
L 128.961386 38.571936 
L 129.056715 40.364968 
L 129.917807 42.680054 
L 129.897287 43.983846 
L 129.933767 51.157013 
L 129.769605 52.112943 
L 129.833446 53.737839 
L 129.681444 53.94545 
L 129.324239 55.08869 
L 129.354639 55.356277 
L 129.643443 56.384179 
L 129.011874 56.668374 
L 128.800211 56.598248 
L 125.615386 54.40127 
L 125.14418 54.478777 
L 124.937457 54.592271 
L 123.448976 56.141505 
L 123.336874 56.612089 
L 122.940909 57.651985 
L 122.441582 58.625447 
L 121.225945 60.306629 
L 121.066722 60.975596 
L 121.160584 63.771414 
L 121.210364 63.979947 
L 121.58505 63.870144 
L 121.782272 63.652384 
L 121.81964 63.772246 
L 122.044096 64.34165 
L 122.376221 64.893432 
L 122.32226 65.688811 
L 122.487182 65.998842 
L 123.242253 66.741625 
L 123.817961 67.521317 
L 126.534999 68.461561 
L 129.783285 68.509542 
L 129.670803 68.098013 
L 129.629763 67.966987 
L 129.591002 66.584764 
L 129.943647 63.974411 
L 130.554696 64.002092 
L 130.85414 64.257684 
L 131.069603 64.308433 
L 131.656711 64.269679 
L 132.606725 64.438535 
L 136.583974 64.312229 
L 136.491816 64.676228 
L 136.189008 66.789748 
L 135.907146 67.264909 
L 135.759931 67.971111 
L 134.991542 70.334562 
L 134.406274 73.826338 
L 134.416448 73.921516 
L 134.016694 76.311123 
L 133.35722 77.494665 
L 133.24651 77.887 
L 132.982601 78.163087 
L 133.106477 78.137658 
L 133.165721 78.447166 
L 132.806661 79.549335 
L 131.839593 80.451704 
L 131.674425 80.618809 
L 131.440437 81.008238 
L 130.632552 81.751493 
L 130.43088 81.572763 
L 130.14064 81.621442 
L 129.97248 81.811797 
L 130.135254 82.055916 
L 130.1939 81.978902 
L 130.532015 81.805984 
L 130.391982 82.093696 
L 130.105332 82.34944 
L 128.928812 82.928497 
L 128.318409 82.84785 
L 128.369875 83.010596 
L 128.418946 83.091969 
L 128.193935 83.240185 
L 126.299294 85.377681 
L 126.237656 85.467772 
L 126.085055 85.727875 
L 125.69727 86.248082 
L 125.310682 86.599003 
L 125.179027 86.845302 
L 125.006079 87.130834 
L 124.037215 88.543965 
L 122.995941 90.947376 
L 123.073737 91.293212 
L 122.708094 91.363687 
L 122.672188 91.598361 
L 122.783497 91.533698 
L 123.128793 91.348429 
L 123.09169 91.540237 
L 122.837954 91.896244 
L 121.858917 92.916314 
L 121.505243 93.570204 
L 121.092922 94.589547 
L 117.869758 100.473837 
L 117.665094 100.61406 
L 117.432902 101.139352 
L 115.382668 104.0063 
L 114.17862 105.143343 
L 113.412625 105.481186 
L 113.351585 105.636667 
L 112.474281 106.648018 
L 112.177458 106.802046 
L 111.824382 107.146428 
L 110.948275 107.55184 
L 110.975803 107.591074 
L 110.982984 107.628854 
L 110.837565 107.963791 
L 110.580837 108.144701 
L 110.471324 108.481818 
L 109.990781 108.938088 
L 109.526995 109.823021 
L 108.970452 110.164497 
L 108.866325 110.476911 
L 108.664653 110.803857 
L 107.759821 111.813028 
L 107.002802 112.887588 
L 106.546796 113.225432 
L 104.740125 115.074489 
L 104.636596 115.346217 
L 102.152498 117.241047 
L 101.746162 117.36456 
L 101.417621 117.793221 
L 101.293746 118.248039 
L 101.133964 118.434034 
L 99.269245 119.981576 
L 98.76297 120.143595 
L 98.6367 120.224242 
L 97.733664 121.144048 
L 97.096931 121.434666 
L 96.813273 121.743448 
L 96.67324 121.693316 
L 96.620578 121.921451 
L 96.044885 122.443111 
L 94.104763 123.748712 
L 93.99106 123.9427 
L 93.773231 123.992105 
L 92.99407 124.38008 
L 92.65416 124.444016 
L 92.092829 124.853788 
L 91.738556 124.89738 
L 90.788244 125.356557 
L 90.642226 125.405236 
L 90.547075 125.610848 
L 90.387293 125.63555 
L 89.396287 126.075837 
L 89.092881 126.091821 
L 88.273626 126.006088 
L 88.003134 126.094727 
L 87.554308 125.85424 
L 86.575869 125.654441 
L 85.566312 125.599223 
L 84.317381 125.891294 
L 83.535228 126.351924 
L 83.204294 126.887388 
L 83.096576 127.697486 
L 83.308422 127.900918 
L 83.657309 128.285987 
L 83.696805 128.463264 
L 83.671073 128.492326 
L 83.279697 128.47053 
L 82.940385 128.613659 
L 81.1008 128.309237 
L 80.582557 128.01208 
L 79.958391 127.842795 
L 78.626277 127.921262 
L 78.020064 128.143584 
L 77.904566 128.281628 
L 78.008095 128.647807 
L 77.723241 129.040868 
L 77.322291 129.498591 
L 77.491049 129.708563 
L 77.497033 129.849513 
L 77.272022 130.016618 
L 77.024869 129.829896 
L 76.117045 129.705657 
L 75.947689 129.682407 
L 75.342672 129.760148 
L 74.388769 129.420851 
L 73.989015 129.130233 
L 72.965694 128.949323 
L 72.86396 128.875942 
L 72.387607 128.669603 
L 70.913665 128.509763 
L 70.597094 128.39061 
L 69.813146 128.309237 
L 68.162666 128.012806 
L 66.679747 128.458905 
L 66.490642 128.775679 
L 66.670172 129.075742 
L 66.837734 129.162927 
L 64.257288 128.861411 
L 64.195051 128.547544 
L 63.820431 128.426211 
L 63.90122 128.613659 
L 64.046639 128.703024 
L 64.071773 128.949323 
L 63.924559 128.871583 
L 62.777362 128.732086 
L 62.305197 128.365181 
L 62.343497 128.185724 
L 62.456003 128.187177 
L 62.339907 128.086914 
L 61.852782 127.999002 
L 62.135242 128.37172 
L 62.254929 128.426211 
L 62.119683 128.474163 
L 61.94135 128.438562 
L 60.773207 128.1276 
L 60.5087 128.212606 
L 59.830076 128.689946 
L 59.499741 128.766234 
L 58.504546 128.695759 
L 57.6051 129.016892 
L 57.297505 129.4441 
L 57.436342 129.695485 
L 57.567399 129.772499 
L 57.320245 129.911995 
L 56.091063 130.177911 
L 55.883406 130.528106 
L 55.851091 130.919714 
L 55.662584 131.212511 
L 54.927708 131.584503 
L 54.294565 131.667329 
L 53.518995 131.507489 
L 53.080942 131.295338 
L 52.35564 131.504583 
L 52.183291 131.706562 
L 51.377201 131.971025 
L 51.057638 131.944142 
L 49.556766 131.424663 
L 48.490956 131.398507 
L 47.695039 131.734171 
L 47.893719 131.767592 
L 48.158227 132.090178 
L 48.097187 132.276174 
L 47.958948 132.332118 
L 46.659151 132.094537 
L 45.323447 132.380796 
L 45.068514 132.584955 
L 44.528129 133.267181 
L 44.192407 133.483692 
L 44.054169 133.601392 
L 43.563454 133.903635 
L 43.330663 134.180449 
L 42.852514 134.359905 
L 42.100882 135.039952 
L 42.199623 135.335655 
L 41.538354 135.458442 
L 40.968645 135.052303 
L 40.732863 134.873573 
L 39.447427 134.935329 
L 39.223613 135.091536 
L 39.061438 134.955672 
L 39.027327 134.909173 
L 38.656298 134.679585 
L 38.094967 134.1107 
L 37.489352 133.662422 
L 37.176372 133.530917 
L 36.603671 133.695843 
L 36.631199 133.596306 
L 37.105158 132.892284 
L 36.953156 132.362632 
L 36.555796 131.832981 
L 36.46244 131.809732 
L 35.948386 131.91726 
L 35.399024 131.85623 
L 35.047145 131.363633 
L 35.236848 131.328759 
L 35.373291 131.011258 
L 35.449292 130.808552 
L 35.321826 130.88266 
L 35.070484 131.24012 
L 34.201558 131.289525 
L 33.331436 131.514754 
L 33.230899 131.607752 
L 33.079495 131.545269 
L 33.019053 131.349102 
L 33.079495 131.24012 
L 33.084881 130.734445 
L 33.18063 130.625463 
L 33.230899 130.320314 
L 33.115401 129.832076 
L 33.377515 129.522567 
L 32.950233 128.979838 
L 31.826375 128.805467 
L 30.977198 128.929706 
L 30.523585 129.198528 
L 30.304558 129.589409 
L 30.455364 129.827716 
L 30.57146 130.368266 
L 30.535554 131.142037 
L 30.661225 131.24012 
L 30.523585 131.28226 
L 30.165722 131.02361 
L 29.877277 130.52084 
L 29.672613 129.746343 
L 29.392546 129.586503 
L 29.451192 129.275542 
L 29.576863 129.20434 
L 29.702534 128.669603 
L 29.594816 128.685587 
L 29.496673 128.735719 
L 29.381774 128.440015 
L 30.015434 127.267174 
L 30.562483 127.286261 
L 30.628909 126.787125 
L 30.437411 126.263285 
L 30.008932 124.907552 
L 29.941908 124.872678 
L 29.397333 124.239131 
L 29.327316 123.531475 
L 28.935941 122.996738 
L 28.141819 122.430033 
L 28.21423 122.279638 
L 27.986227 121.752893 
L 27.619985 121.058316 
L 26.7355 120.163212 
L 27.11012 120.071667 
L 27.700175 120.943521 
L 27.890477 121.083018 
L 27.974258 120.91446 
L 27.776775 120.673247 
L 27.707955 120.440752 
L 27.589465 120.413143 
L 27.342312 120.071667 
L 27.342312 119.554367 
L 27.063442 119.292811 
L 26.630775 119.310248 
L 26.7355 119.498423 
L 26.645735 119.520219 
L 26.345322 119.581976 
L 26.17417 119.087925 
L 26.189729 118.879407 
L 26.07483 118.275647 
L 26.192123 118.070762 
L 25.940781 117.708942 
L 25.919237 117.597781 
L 25.947962 117.586883 
L 26.09757 117.540384 
L 26.357889 117.192369 
L 26.375243 116.80512 
L 26.650523 116.648186 
L 26.936574 116.616945 
L 26.882117 116.68306 
L 26.968291 116.815292 
L 27.342312 117.170572 
L 27.659482 117.300624 
L 27.940746 117.226516 
L 28.185505 117.031802 
L 29.075376 116.106183 
L 29.352451 115.439215 
L 29.551729 114.356663 
L 29.474531 113.59379 
L 29.427853 113.247228 
L 29.601997 113.009648 
L 29.636108 112.649281 
L 29.351852 111.480997 
L 29.13881 110.139068 
L 29.113676 109.554925 
L 29.02032 109.185114 
L 28.794112 108.709953 
L 28.794112 108.543574 
L 28.514045 107.623042 
L 27.589465 106.15978 
L 27.183129 105.636667 
L 27.023945 105.33733 
L 26.78158 105.112828 
L 24.995255 102.117282 
L 24.763662 101.566561 
L 24.252001 100.808048 
L 23.744529 99.49736 
L 23.654764 99.184219 
L 23.025212 98.175048 
L 23.05274 97.837204 
L 22.872013 97.618514 
L 21.731399 95.252156 
L 21.621287 94.657116 
L 21.135359 93.647945 
L 21.107831 93.299929 
L 20.936679 92.584282 
L 20.322087 90.797708 
L 20.138368 89.707163 
L 20.127596 89.580745 
L 18.307161 84.240637 
L 17.769768 83.686283 
L 17.60101 83.219841 
L 17.270076 82.725791 
L 16.694981 82.076259 
L 16.339512 80.910154 
L 16.292834 80.89199 
L 16.015161 80.411018 
L 15.815882 80.149461 
L 15.938561 79.959833 
L 16.076186 79.661445 
L 16.471392 79.408621 
L 16.752595 79.311737 
L 17.385684 78.68706 
L 17.483726 78.831926 
L 17.535406 79.028464 
L 17.657768 79.042305 
L 18.017253 78.565262 
L 18.192816 77.955349 
L 18.271097 77.882455 
L 18.012693 76.98281 
L 18.207256 76.945902 
L 18.354698 77.031714 
L 18.438299 76.862858 
L 18.388138 76.486391 
L 18.657182 76.45871 
L 18.654142 76.39412 
L 18.51962 76.115461 
L 18.625262 76.116383 
L 18.871505 76.060098 
L 18.952066 75.327464 
L 19.18007 75.151226 
L 19.327512 75.262874 
L 20.432567 74.891944 
L 21.108977 75.858024 
L 21.124937 76.478087 
L 21.280739 76.685697 
L 21.516342 76.733678 
L 22.255833 76.64602 
L 22.652558 78.14266 
L 22.473956 78.443464 
L 22.222392 78.567108 
L 22.097751 78.814395 
L 22.456476 79.607927 
L 22.725519 79.714962 
L 22.806081 79.9115 
L 22.681439 80.90157 
L 22.955803 80.948628 
L 24.000057 80.686578 
L 24.111019 80.770545 
L 24.336742 81.435821 
L 24.738788 81.46627 
L 24.964511 81.319559 
L 25.201634 81.297414 
L 26.695815 81.708943 
L 28.291078 82.665796 
L 28.690083 82.570757 
L 29.501015 82.483099 
L 29.990462 82.639037 
L 30.59239 82.436963 
L 30.715512 82.543998 
L 31.140358 82.33362 
L 32.550178 82.112169 
L 34.208521 82.474795 
L 34.523165 82.902933 
L 34.896331 83.004432 
L 35.020972 83.178824 
L 35.608461 83.054258 
L 36.087267 82.751608 
L 36.212669 82.576293 
L 36.540994 82.497862 
L 36.544794 82.389905 
L 36.221789 81.688644 
L 36.376071 81.243896 
L 36.659555 81.029827 
L 36.913399 81.197761 
L 37.971334 80.669046 
L 38.298898 79.845064 
L 38.40758 79.649449 
L 38.679664 79.302509 
L 38.744265 79.280364 
L 39.609157 79.149339 
L 39.921521 78.962951 
L 40.491529 78.869757 
L 41.096498 78.421319 
L 41.410382 78.446232 
L 41.639145 78.384411 
L 41.649786 75.765753 
L 41.637625 45.620738 
L 41.674106 45.766527 
L 42.567119 46.762134 
L 42.870363 46.857173 
L 42.945604 46.881163 
L 43.507252 47.259476 
L 44.535546 48.242164 
L 45.033353 49.464758 
L 44.968752 49.614238 
L 45.174715 49.827384 
L 45.316077 49.888283 
L 45.390558 50.232455 
L 45.587401 50.446524 
L 45.558521 50.680893 
L 45.665682 50.866358 
L 45.761443 51.242825 
L 46.139169 51.519639 
L 46.163489 51.694954 
L 46.274451 51.678345 
L 46.269891 51.753085 
L 46.23493 51.955159 
L 46.374772 51.961618 
L 46.506254 51.913637 
L 46.602015 52.006831 
L 46.336012 52.299331 
L 46.322331 52.548463 
L 46.652176 52.872335 
L 46.665856 53.196207 
L 46.465213 53.368754 
L 46.564015 53.496089 
L 46.706897 53.564369 
L 46.708417 54.039566 
L 46.97214 54.212114 
L 47.199384 54.963201 
L 47.116542 55.216947 
L 47.216104 55.179116 
L 47.331626 55.142208 
L 47.415227 55.279692 
L 47.613589 55.811174 
L 47.68579 57.394549 
L 47.935834 58.069051 
L 46.888539 59.811132 
L 46.569335 60.3989 
L 46.320051 60.684018 
L 46.22505 61.648253 
L 46.412013 62.278465 
L 46.25393 63.152274 
L 46.470533 64.051919 
L 46.853579 64.719962 
L 46.874099 64.695049 
L 47.505668 64.329655 
L 48.038435 63.958725 
L 48.448841 63.900594 
L 49.05685 64.244766 
L 50.256147 64.476366 
L 51.001717 64.27337 
L 51.311041 64.29736 
L 52.264855 64.102668 
L 54.180842 64.393322 
L 54.73337 63.94027 
L 54.845091 63.619167 
L 54.867891 62.812716 
L 55.295778 62.690918 
L 56.009428 62.685382 
L 56.473794 62.563584 
L 56.90548 62.272006 
L 57.556049 61.393584 
L 57.933015 60.365683 
L 58.373061 59.801905 
L 59.00235 59.591527 
L 60.029884 58.586693 
L 60.489691 58.609761 
L 61.828829 56.257767 
L 61.787789 55.94589 
L 61.693547 55.785338 
L 62.054553 55.025946 
L 61.926111 54.767586 
L 62.068233 54.39112 
L 62.458118 53.78582 
L 62.741602 52.038203 
L 63.008366 51.84997 
L 63.250049 51.316642 
L 63.559374 51.006611 
L 63.886178 50.605231 
L 64.060221 50.503732 
L 64.284424 50.604308 
L 64.361945 50.740869 
L 65.074075 50.330262 
L 65.788485 50.187242 
L 67.011342 50.333031 
L 67.211985 50.349639 
L 67.960596 51.020451 
L 68.884769 51.886878 
L 69.365095 52.094489 
L 69.558138 52.406365 
L 69.772461 52.505096 
L 70.051385 52.911089 
L 70.635073 53.448108 
L 71.175441 53.413045 
L 71.259042 53.556065 
L 71.230162 53.675095 
L 72.53738 53.418581 
L 72.862665 53.624346 
L 73.680436 54.542445 
L 74.252724 54.553517 
L 74.546848 54.464014 
L 75.429221 54.823872 
L 76.07827 55.180962 
L 76.855761 55.174503 
L 77.283647 55.204952 
L 77.868095 55.009337 
L 78.639506 54.464014 
L 79.205714 54.46955 
L 79.849443 54.644866 
L 81.383904 54.468628 
L 81.912872 54.179819 
L 82.860225 53.361373 
L 83.655956 50.597849 
L 84.683491 47.976423 
L 84.697171 47.644247 
L 84.989015 46.812883 
L 85.025496 45.528467 
L 85.267939 45.436196 
L 85.756626 45.387292 
L 85.995269 45.1926 
L 88.290502 44.459043 
L 88.86887 44.552237 
L 89.401637 43.901725 
L 89.801403 42.997467 
L 91.145862 41.723201 
L 92.066235 41.27384 
L 92.143756 41.117902 
L 93.15001 36.108035 
L 93.350653 35.675283 
L 93.468454 35.820148 
L 93.651617 35.924415 
L 93.759538 35.703887 
L 93.701398 35.370787 
L 93.751938 35.396623 
L 93.802099 35.431686 
L 93.824899 35.349565 
L 94.163864 35.002625 
L 94.254305 35.06537 
L 94.286986 34.959258 
L 94.185904 34.662144 
L 94.345507 34.684289 
L 94.404787 34.766411 
L 94.436708 34.705512 
L 94.509669 34.578178 
L 94.56287 34.649226 
L 94.761232 34.644613 
L 94.657111 34.472988 
L 94.738052 34.367799 
L 95.294 34.114053 
L 95.543283 33.876916 
L 95.822587 33.47 
L 95.905049 33.746814 
L 95.97953 33.69791 
L 96.267574 33.450623 
L 96.326095 33.468154 
L 96.272134 33.597334 
L 96.447696 33.604716 
L 96.673419 33.37127 
L 97.137786 33.305757 
L 97.39391 33.035402 
L 97.719954 31.909693 
L 98.093119 31.96967 
L 98.384963 31.702083 
L 98.684408 32.006578 
L 98.83337 31.862635 
L 98.945091 31.2315 
L 98.942051 31.09217 
L 99.021092 31.108779 
L 99.295456 31.072793 
L 99.247576 30.909473 
L 99.834304 30.684331 
L 100.088147 30.484103 
L 100.205949 30.234047 
L 100.142868 29.651816 
L 100.370111 29.5374 
L 100.763037 29.319639 
L 100.96824 29.004995 
L 101.086041 28.446754 
L 101.394606 28.284356 
L 101.526088 28.060137 
L 101.741931 27.939262 
L 101.776891 27.682748 
L 101.813372 27.373639 
L 102.193377 26.967646 
L 102.444941 26.900288 
L 102.821906 26.438009 
L 103.373674 26.180572 
L 103.980542 26.132591 
L 104.56233 26.22763 
L 104.849614 26.046779 
L 105.190099 26.071692 
L 105.448503 25.974807 
L 106.299715 25.523601 
L 106.714681 25.352899 
L 106.827922 25.06409 
L 107.444291 24.982891 
L 107.720175 24.443104 
L 107.663554 23.816583 
L 108.307663 23.013823 
L 109.328357 22.901252 
L 109.589041 22.673342 
L 109.781324 22.647506 
L 110.393892 22.768381 
L 110.627216 22.763768 
L 110.893979 22.673342 
L 111.315785 22.464809 
L 111.866793 22.586607 
L 112.148757 22.314407 
L 112.397281 22.342088 
L 112.819846 22.176 
M 103.076509 80.726255 
L 102.786945 80.924638 
L 102.447221 80.929251 
L 102.206405 80.869062 
L 101.66897 80.994764 
L 100.436992 82.47664 
L 99.952866 82.298557 
L 99.778823 82.692555 
L 99.58274 82.786671 
L 98.745209 82.725772 
L 98.720508 82.945378 
L 98.544566 83.058872 
L 98.482245 83.461174 
L 98.452604 83.458406 
L 98.389524 83.457483 
L 98.065759 83.822878 
L 97.949097 83.857018 
L 97.982918 83.939139 
L 98.13872 84.128295 
L 98.091979 84.137522 
L 97.9146 84.354367 
L 97.922877 84.404186 
L 97.756435 84.736363 
L 97.080025 85.560345 
L 97.064825 85.937734 
L 96.560178 86.217316 
L 96.456056 86.608546 
L 96.266054 86.842915 
L 96.320014 87.081898 
L 96.242493 87.174169 
L 95.027236 88.442899 
L 94.151704 88.735398 
L 93.820339 88.999294 
L 93.706338 88.899641 
L 93.355213 89.270572 
L 93.324052 89.522472 
L 93.8382 90.104704 
L 94.508956 91.768491 
L 94.851674 92.452084 
L 95.3092 92.946658 
L 95.548984 93.644228 
L 95.708206 93.649765 
L 96.053251 93.742959 
L 95.936969 93.949646 
L 95.789907 94.625994 
L 96.026418 95.257724 
L 96.299494 95.304188 
L 96.573478 95.237753 
L 96.681019 95.514566 
L 96.875582 95.751704 
L 97.171043 95.981777 
L 97.194787 96.069117 
L 97.588472 96.610749 
L 97.650793 96.846963 
L 98.098819 97.205898 
L 98.717088 97.828729 
L 99.355497 97.943146 
L 99.645061 97.889628 
L 100.136028 98.190432 
L 101.181803 98.350984 
L 101.183323 98.176592 
L 101.202323 97.708777 
L 101.626409 96.778682 
L 101.524568 96.551695 
L 101.582328 96.445583 
L 102.304339 95.807066 
L 102.336259 95.4103 
L 102.061895 95.157477 
L 102.191097 94.856673 
L 102.479901 94.700734 
L 102.818106 94.580782 
L 103.425354 93.756799 
L 103.602437 93.727273 
L 104.139004 93.713432 
L 104.577531 93.480908 
L 105.306381 93.643306 
L 106.926724 93.061997 
L 108.932392 91.796958 
L 109.063874 91.676083 
L 108.841191 91.071706 
L 108.734029 90.912077 
L 108.79255 90.238497 
L 109.355718 89.316707 
L 110.004767 89.019594 
L 110.014647 88.73263 
L 110.134729 88.644973 
L 109.979717 88.258081 
L 110.035167 87.877276 
L 110.397692 87.612457 
L 110.893979 87.383625 
L 110.989741 87.204619 
L 110.998481 86.935186 
L 111.138703 86.546725 
L 111.000381 86.324351 
L 110.9259 85.940502 
L 110.720697 85.644312 
L 110.483574 85.057467 
L 110.285971 84.857238 
L 110.24873 84.343287 
L 110.025287 84.243634 
L 109.48872 84.156899 
L 108.629148 83.350449 
L 108.366184 83.232342 
L 108.09562 82.773753 
L 107.815176 82.729463 
L 107.41085 82.287484 
L 106.917603 81.513328 
L 106.68504 81.392453 
L 106.394716 81.298336 
L 106.072472 80.769622 
L 105.746427 80.760395 
L 105.668906 80.634906 
L 105.503984 79.94564 
L 105.26686 79.709426 
L 105.157419 79.724189 
L 104.592731 80.066515 
L 103.418514 80.206768 
L 103.076509 80.726255 
L 103.076509 80.726255 
" clip-path="url(#pf6bcac9f17)" style="fill: none; stroke: #000000; stroke-width: 2"/>
   </g>
  </g>
 </g>
 <defs>
  <clipPath id="pf6bcac9f17">
   <rect x="0" y="-0" width="189.790587" height="266.112"/>
  </clipPath>
 </defs>
</svg>
