<?xml version="1.0" encoding="utf-8" standalone="no"?>
<!DOCTYPE svg PUBLIC "-//W3C//DTD SVG 1.1//EN"
  "http://www.w3.org/Graphics/SVG/1.1/DTD/svg11.dtd">
<svg xmlns:xlink="http://www.w3.org/1999/xlink" width="306.895178pt" height="266.112pt" viewBox="0 0 306.895178 266.112" xmlns="http://www.w3.org/2000/svg" version="1.1">
 <metadata>
  <rdf:RDF xmlns:dc="http://purl.org/dc/elements/1.1/" xmlns:cc="http://creativecommons.org/ns#" xmlns:rdf="http://www.w3.org/1999/02/22-rdf-syntax-ns#">
   <cc:Work>
    <dc:type rdf:resource="http://purl.org/dc/dcmitype/StillImage"/>
    <dc:date>2024-02-02T21:58:06.569556</dc:date>
    <dc:format>image/svg+xml</dc:format>
    <dc:creator>
     <cc:Agent>
      <dc:title>Matplotlib v3.8.2, https://matplotlib.org/</dc:title>
     </cc:Agent>
    </dc:creator>
   </cc:Work>
  </rdf:RDF>
 </metadata>
 <defs>
  <style type="text/css">*{stroke-linejoin: round; stroke-linecap: butt}</style>
 </defs>
 <g id="figure_1">
  <g id="patch_1">
   <path d="M 0 266.112 
L 306.895178 266.112 
L 306.895178 0 
L 0 0 
L 0 266.112 
z
" style="fill: none"/>
  </g>
  <g id="axes_1">
   <g id="PatchCollection_1">
    <path d="M 225.458539 31.664002 
L 226.83277 30.858636 
L 227.359408 30.858636 
L 227.614816 31.037348 
L 228.262377 31.78237 
L 228.729119 31.763803 
L 228.897507 31.650076 
L 230.56444 31.002534 
L 230.840191 31.260159 
L 230.987107 31.826468 
L 231.278679 32.021427 
L 232.530857 32.223349 
L 233.000988 32.775732 
L 233.349067 33.000863 
L 234.189879 33.244562 
L 234.626107 33.615913 
L 234.777544 34.186864 
L 234.775283 35.024723 
L 234.939151 35.985592 
L 235.444317 36.67259 
L 237.548608 38.320458 
L 237.919289 38.466677 
L 238.360037 38.468998 
L 238.807567 38.306532 
L 239.553449 37.895726 
L 240.062004 37.851628 
L 243.321283 38.759115 
L 242.909918 39.668924 
L 242.907657 40.778333 
L 243.352926 41.66029 
L 244.281888 41.887742 
L 245.400711 41.305186 
L 245.958993 41.386419 
L 246.815627 41.825077 
L 247.640618 41.713672 
L 248.092667 41.962012 
L 249.327893 43.120161 
L 250.234253 43.33833 
L 253.083296 43.280306 
L 253.967053 43.503116 
L 254.7604 44.046216 
L 254.999986 44.357222 
L 255.739088 45.870475 
L 256.03631 46.072397 
L 256.857911 46.139704 
L 258.738437 46.557473 
L 260.30479 46.692088 
L 260.58054 46.842949 
L 260.964782 47.346593 
L 261.159163 47.850237 
L 261.319641 47.90826 
L 261.85984 47.901297 
L 262.874692 48.585975 
L 264.845629 49.433118 
L 264.997065 51.048492 
L 265.209529 51.227204 
L 265.742947 51.060096 
L 266.40068 51.542852 
L 266.409721 52.15558 
L 266.023218 53.775596 
L 266.289927 54.386003 
L 266.579239 54.483483 
L 267.357895 54.128379 
L 267.598611 54.242105 
L 267.851759 54.966238 
L 268.335452 55.144951 
L 268.527573 54.734144 
L 268.726475 53.487799 
L 269.232771 53.73614 
L 270.412621 53.798805 
L 270.849979 54.112132 
L 271.262474 54.975522 
L 271.234221 55.558078 
L 271.050011 55.950317 
L 271.108777 56.282211 
L 271.31559 56.60018 
L 272.103286 57.205945 
L 272.607322 58.087902 
L 273.13622 58.468536 
L 273.945389 58.770259 
L 274.087785 58.944329 
L 274.571478 60.457582 
L 274.415521 60.931054 
L 273.766829 61.954588 
L 273.240191 63.581567 
L 273.22663 64.161802 
L 273.520462 64.572608 
L 275.306058 65.377974 
L 276.517552 66.50363 
L 277.084874 66.705552 
L 277.491719 67.248652 
L 277.925686 67.557337 
L 278.238731 67.921724 
L 278.289586 68.629611 
L 278.151711 69.88524 
L 278.23082 70.423698 
L 278.990263 72.071565 
L 279.767789 72.816587 
L 280.194976 73.823874 
L 280.532883 74.218434 
L 281.128458 74.297346 
L 281.131849 74.886865 
L 281.32058 75.687589 
L 280.622163 76.546337 
L 279.193686 77.497922 
L 278.129109 78.709453 
L 277.532403 80.002216 
L 277.084874 80.280729 
L 276.752617 80.343394 
L 276.067762 80.877211 
L 274.401959 80.891136 
L 273.554366 81.102342 
L 273.287657 81.336757 
L 272.877422 81.968052 
L 272.555336 82.167653 
L 271.855789 82.169974 
L 271.662538 82.564534 
L 271.643326 82.887145 
L 271.816235 83.010154 
L 272.390338 82.966056 
L 272.706773 83.239927 
L 272.939362 84.626581 
L 273.005126 85.286996 
L 273.217589 85.96239 
L 273.937478 87.14839 
L 274.424562 87.64275 
L 275.125239 88.886774 
L 274.935378 89.557526 
L 274.634765 90.1865 
L 273.067282 92.725609 
L 273.113617 93.115526 
L 272.557596 93.486877 
L 272.375646 94.686803 
L 271.818495 94.222615 
L 271.612812 94.540584 
L 271.689661 96.72923 
L 271.298638 98.021993 
L 271.664798 98.158929 
L 272.77006 98.175175 
L 273.066152 98.516353 
L 273.194986 98.87842 
L 273.443614 102.526938 
L 273.369026 103.34855 
L 273.079714 104.195693 
L 273.081974 104.555439 
L 273.414231 105.367768 
L 273.010776 107.222199 
L 272.150752 109.27391 
L 272.071643 110.018931 
L 272.103286 110.775558 
L 272.268285 111.139945 
L 273.13622 112.042791 
L 273.40971 112.776208 
L 273.796213 114.340521 
L 274.218879 115.006631 
L 274.987363 115.278181 
L 276.598921 114.786142 
L 277.453294 115.087864 
L 278.070342 115.171418 
L 278.104246 115.628643 
L 277.814604 116.047553 
L 277.243091 116.396874 
L 277.084874 116.768224 
L 276.752617 116.828569 
L 276.653167 116.995677 
L 276.635085 117.54806 
L 276.441833 117.814968 
L 275.77845 118.084197 
L 275.529823 118.31397 
L 275.187395 118.83154 
L 274.738736 119.286444 
L 274.239221 119.604413 
L 273.581489 119.657795 
L 273.185945 119.434984 
L 272.912455 119.414096 
L 272.155272 119.588166 
L 271.904385 119.875963 
L 271.540485 120.646515 
L 270.141391 121.574891 
L 270.048721 121.461165 
L 269.636225 120.808981 
L 269.262154 120.769525 
L 268.742297 120.964484 
L 268.353534 121.224429 
L 267.838198 120.743994 
L 267.659638 120.820585 
L 267.119439 121.40082 
L 266.448145 122.744645 
L 265.365486 124.538731 
L 265.288637 124.93097 
L 265.417472 126.578837 
L 265.559867 126.822536 
L 266.149792 127.196207 
L 266.686601 127.695209 
L 266.873072 128.24063 
L 266.77136 128.864963 
L 266.172394 130.236638 
L 265.85709 133.112283 
L 266.118149 133.868909 
L 266.536294 134.645264 
L 266.418762 134.95859 
L 265.761029 135.151228 
L 265.21744 135.845189 
L 264.818506 136.720184 
L 264.21728 139.189664 
L 263.826257 140.050732 
L 263.204688 140.384948 
L 262.802364 140.447613 
L 262.619284 140.691312 
L 262.48819 141.960866 
L 262.203398 142.160467 
L 261.39762 142.281156 
L 260.239242 143.019215 
L 259.518223 142.849786 
L 259.30802 143.023856 
L 259.21309 143.490365 
L 259.470758 144.202894 
L 260.162394 144.360718 
L 260.964782 144.367681 
L 261.543406 144.625305 
L 262.49497 146.06893 
L 262.3085 146.312628 
L 261.504981 146.695583 
L 261.269916 146.946245 
L 261.394229 147.55201 
L 262.024839 147.835165 
L 262.831747 147.997631 
L 263.501911 148.245971 
L 263.823996 148.526805 
L 264.912306 149.870629 
L 265.180145 150.898805 
L 265.360965 151.049666 
L 265.932808 151.119295 
L 266.066163 151.42798 
L 266.025478 151.555631 
L 265.94863 152.68825 
L 266.061642 153.029428 
L 266.572458 153.688575 
L 266.973653 153.593416 
L 267.95347 152.14515 
L 268.258604 151.982684 
L 269.016917 151.759874 
L 269.214689 151.564915 
L 269.424892 150.996285 
L 269.644136 150.870954 
L 269.95605 151.130899 
L 270.636385 152.4167 
L 271.009326 152.866962 
L 249.679362 160.168639 
L 247.085726 160.748874 
L 245.434615 161.510142 
L 237.236694 164.223321 
L 233.699405 166.087036 
L 231.823399 166.783318 
L 220.980987 169.3085 
L 218.808888 169.807502 
L 211.587395 172.451053 
L 207.932573 174.27067 
L 205.65779 174.606921 
L 205.645201 174.753425 
L 205.801159 175.424177 
L 205.90739 177.399296 
L 206.72334 180.205313 
L 207.2658 181.275266 
L 208.567703 182.15026 
L 208.949685 182.96491 
L 209.042355 183.426777 
L 209.167799 185.146594 
L 209.559952 185.808062 
L 209.501185 186.033193 
L 208.956465 187.305068 
L 209.003931 187.616074 
L 209.743032 188.451612 
L 209.943064 189.168782 
L 208.768865 189.642254 
L 208.142776 189.663143 
L 207.094021 189.210559 
L 206.350399 189.205917 
L 205.848624 189.602798 
L 205.500545 189.679389 
L 205.245137 189.588873 
L 204.684596 189.208238 
L 203.8144 189.017921 
L 202.937424 189.145573 
L 201.201553 189.523886 
L 200.257899 189.417123 
L 198.383023 188.908837 
L 197.411116 188.818321 
L 196.907081 188.927405 
L 196.009762 189.340532 
L 195.064978 189.489072 
L 193.281642 189.981111 
L 191.941315 189.737413 
L 191.421458 189.881311 
L 190.219006 190.812008 
L 187.999442 191.051065 
L 183.173811 193.265241 
L 182.201905 194.20058 
L 181.761156 194.309664 
L 180.983631 194.875974 
L 180.768907 195.119672 
L 180.303296 195.994667 
L 180.025285 196.261575 
L 179.494127 196.359054 
L 178.034006 196.463496 
L 177.620381 196.653813 
L 176.413408 197.962824 
L 176.022385 199.030456 
L 176.277793 199.427337 
L 176.15574 200.190926 
L 175.873209 201.123944 
L 175.755676 202.019826 
L 176.128617 202.660406 
L 175.6065 203.862653 
L 175.529651 204.347729 
L 175.61102 204.735326 
L 175.97266 205.675307 
L 175.97718 206.185913 
L 175.362393 207.228015 
L 175.217737 208.040344 
L 174.919384 208.388485 
L 174.053709 209.038348 
L 173.875149 209.421304 
L 173.256971 210.001539 
L 171.298466 210.240595 
L 163.355953 213.334408 
L 161.87775 214.279031 
L 159.721473 216.052229 
L 154.355644 218.345317 
L 153.225519 219.01839 
L 152.359844 219.951408 
L 149.383097 224.382082 
L 149.025978 225.164239 
L 148.580709 226.949041 
L 147.986264 228.079339 
L 146.826756 229.246772 
L 144.59137 231.261348 
L 138.574589 237.527885 
L 138.538425 237.757658 
L 138.619794 238.843858 
L 137.885213 239.735099 
L 136.420572 241.129984 
L 135.498391 241.543111 
L 134.238302 241.682367 
L 133.437044 242.202258 
L 132.917187 242.03515 
L 130.855841 242.970489 
L 129.972083 243.12135 
L 129.687292 243.290779 
L 129.061203 243.859409 
L 128.800145 243.936 
L 128.4871 243.880297 
L 126.891365 243.307025 
L 125.598503 242.302058 
L 125.019879 242.202258 
L 124.108999 241.916782 
L 122.427374 241.011616 
L 121.423824 240.82362 
L 120.451917 240.907174 
L 120.135482 240.647228 
L 119.927539 240.55207 
L 118.722827 240.364074 
L 118.126121 239.749025 
L 117.93174 239.848825 
L 116.959833 240.547428 
L 116.453537 240.642586 
L 115.705395 240.939667 
L 115.551698 241.076602 
L 115.574301 241.450273 
L 114.857802 241.547753 
L 114.509724 241.624344 
L 114.378629 241.898215 
L 114.229453 241.742712 
L 112.769333 242.392575 
L 111.84037 242.357761 
L 110.509084 241.742712 
L 110.28758 241.482767 
L 110.127102 241.116058 
L 110.156485 240.795768 
L 110.509084 240.670438 
L 110.203951 240.285162 
L 109.213962 239.869713 
L 108.811638 239.287158 
L 107.889456 238.77423 
L 107.071246 238.560703 
L 106.524266 238.147576 
L 105.990847 238.203279 
L 104.83134 238.702281 
L 103.233344 239.034175 
L 102.91691 239.289478 
L 102.460339 239.122371 
L 100.578683 239.080594 
L 99.855403 238.816007 
L 98.960345 238.816007 
L 98.530897 238.611764 
L 97.165707 237.474503 
L 96.627768 237.047451 
L 95.793737 236.887306 
L 95.393673 236.432401 
L 95.052375 236.209591 
L 94.975527 235.666491 
L 94.652311 235.332276 
L 94.496354 235.34156 
L 94.304233 235.596863 
L 94.139235 235.290499 
L 93.741431 235.018949 
L 93.486023 234.318025 
L 93.027192 233.881689 
L 92.613567 233.846874 
L 92.362679 233.58925 
L 92.362679 233.433747 
L 92.430487 232.976522 
L 91.589674 233.129704 
L 91.241596 232.87208 
L 90.966022 232.49961 
L 90.703657 232.315054 
L 90.258388 232.516976 
L 89.980378 232.117774 
L 89.397233 231.850866 
L 87.894168 231.551465 
L 86.960686 231.532897 
L 86.587745 231.275273 
L 84.720779 230.982835 
L 83.525108 231.052463 
L 82.684296 231.790522 
L 82.245807 231.904248 
L 81.705608 231.748745 
L 81.203833 231.328655 
L 80.647812 231.231175 
L 80.234186 231.029254 
L 79.578714 230.908565 
L 78.258729 230.509363 
L 77.872227 230.562745 
L 76.780527 230.899281 
L 76.53868 230.762345 
L 74.574524 230.692717 
L 56.230348 234.322667 
L 56.087952 233.744753 
L 56.243909 233.422143 
L 55.744394 233.013657 
L 55.333029 232.516976 
L 54.562284 232.041183 
L 54.243589 231.948346 
L 53.16093 231.941383 
L 52.410528 232.078318 
L 52.033066 231.973876 
L 51.766357 231.693042 
L 51.736974 230.662545 
L 51.508689 230.421167 
L 50.541302 230.049817 
L 50.019185 229.629727 
L 49.481246 229.021641 
L 49.06762 228.35321 
L 48.767007 227.494462 
L 47.537432 226.343276 
L 46.495458 226.062442 
L 45.175473 225.496133 
L 44.585548 225.113178 
L 43.715352 224.335663 
L 42.747966 223.73454 
L 42.544543 223.402645 
L 42.302697 222.355901 
L 41.995303 221.757099 
L 41.552294 221.169901 
L 40.266213 219.895705 
L 38.462535 219.081055 
L 38.41959 218.507783 
L 38.14158 218.222307 
L 37.135769 217.818464 
L 36.943648 217.532988 
L 36.710842 216.901693 
L 34.956889 214.216365 
L 34.753467 214.095676 
L 34.281075 213.970346 
L 33.670808 213.104635 
L 33.311429 212.596349 
L 32.642395 212.445488 
L 32.373425 212.208752 
L 31.679529 212.496549 
L 31.510011 212.515116 
L 31.213918 212.412995 
L 29.331131 210.890458 
L 29.129969 210.20346 
L 29.035039 209.878529 
L 28.797712 209.739272 
L 28.379566 209.68357 
L 28.289157 209.521104 
L 28.361484 208.973362 
L 28.239431 208.650752 
L 27.762519 207.747906 
L 27.895873 206.951824 
L 28.32306 205.988634 
L 27.963681 205.821526 
L 27.235881 205.656739 
L 27.199717 205.522125 
L 27.077663 204.707475 
L 26.718284 204.347729 
L 26.270755 203.133878 
L 26.449314 203.152445 
L 27.003075 203.133878 
L 25.610762 200.708495 
L 25.574598 130.132196 
L 69.766976 130.132196 
L 69.509307 129.315225 
L 69.136366 128.602697 
L 68.650413 127.957475 
L 67.459262 126.725056 
L 67.013993 126.096082 
L 66.815091 125.37659 
L 66.959747 124.48767 
L 67.384674 123.475741 
L 68.458292 119.606734 
L 70.365942 116.673066 
L 70.426968 116.290111 
L 70.212245 115.278181 
L 70.121835 113.906506 
L 69.89807 113.340196 
L 69.344309 112.755319 
L 68.869657 112.059037 
L 68.754384 111.054071 
L 69.032395 105.012664 
L 69.538691 103.692049 
L 69.436979 103.139666 
L 69.344309 101.461626 
L 68.761165 99.488827 
L 68.876438 99.045528 
L 69.265201 98.149645 
L 69.965878 96.940435 
L 69.970398 95.503774 
L 70.207724 95.169558 
L 71.102783 94.324736 
L 71.089221 94.055507 
L 70.124095 91.887749 
L 69.997521 91.314477 
L 70.087931 88.116222 
L 69.660744 88.046594 
L 69.53643 87.735588 
L 69.633621 86.869877 
L 69.694648 85.224331 
L 69.834783 84.792636 
L 69.753414 84.463063 
L 69.190612 83.420961 
L 69.041436 82.318514 
L 69.785058 82.344045 
L 70.811211 82.543645 
L 71.753734 82.891786 
L 72.250989 83.372221 
L 72.253249 83.56718 
L 72.115374 84.175266 
L 72.364001 85.131493 
L 72.327837 85.878836 
L 72.470233 86.157349 
L 73.71789 85.960069 
L 74.958766 86.264112 
L 76.179301 86.315173 
L 76.672035 86.535662 
L 77.304904 86.944147 
L 77.856405 87.436187 
L 78.102772 87.893412 
L 78.025924 88.153357 
L 77.680106 88.566484 
L 77.664284 88.884453 
L 77.788597 89.144398 
L 78.310715 89.673573 
L 78.453111 90.536962 
L 78.331057 91.453734 
L 78.161538 91.8158 
L 77.187371 93.226932 
L 76.276491 93.507765 
L 75.99622 93.746822 
L 76.181561 94.150666 
L 76.53416 94.317773 
L 77.849624 94.396685 
L 78.337838 94.693766 
L 79.079199 95.383085 
L 79.517688 95.596611 
L 80.023983 95.640709 
L 80.489594 95.550192 
L 81.617458 95.188126 
L 82.103412 95.171879 
L 82.315875 94.733222 
L 82.537379 94.33402 
L 82.923882 94.071754 
L 83.644901 93.851264 
L 84.494755 92.857902 
L 85.335567 92.50744 
L 86.985548 92.502798 
L 87.833142 92.317123 
L 89.45826 91.502473 
L 90.373661 91.216998 
L 91.212213 91.291268 
L 94.340397 91.005792 
L 95.64682 90.724958 
L 97.719468 89.675894 
L 98.408844 89.559847 
L 98.675553 89.798903 
L 98.727539 91.555855 
L 98.55802 91.709037 
L 97.848302 92.08735 
L 98.325215 92.665264 
L 98.139874 93.078391 
L 97.701386 93.535617 
L 97.723989 94.085679 
L 97.891247 94.540584 
L 98.548979 95.807817 
L 98.519596 96.021343 
L 98.133094 96.592294 
L 98.19186 97.200381 
L 98.987468 99.412236 
L 99.319724 99.695391 
L 100.212522 99.927485 
L 100.508615 100.301156 
L 101.760792 100.906921 
L 102.181199 101.364147 
L 102.181199 101.605524 
L 101.991338 102.167192 
L 102.129213 102.473556 
L 102.460339 102.624417 
L 103.093209 102.499086 
L 103.38026 102.215932 
L 103.891077 102.102206 
L 104.212032 101.51965 
L 105.213322 101.554464 
L 105.963724 102.03954 
L 106.65536 102.673157 
L 107.491652 103.162875 
L 107.893977 103.237145 
L 109.394782 103.218578 
L 109.989227 102.970237 
L 110.337305 103.088605 
L 110.420934 103.195368 
L 111.614346 104.174805 
L 112.394131 104.587932 
L 112.694744 105.286535 
L 113.361518 105.504703 
L 117.136133 105.451322 
L 118.069615 105.927114 
L 118.512624 106.140641 
L 119.29919 106.08958 
L 120.008908 106.321674 
L 121.722177 105.685737 
L 122.558469 105.662527 
L 123.078326 105.824993 
L 124.188108 106.762653 
L 124.970154 107.020277 
L 126.742188 107.143287 
L 127.564919 107.317357 
L 128.735728 108.034528 
L 129.180997 107.934727 
L 130.098657 106.939044 
L 130.659199 106.932081 
L 131.680831 107.043486 
L 132.609793 106.841565 
L 133.452866 106.351846 
L 134.21683 105.602183 
L 134.646277 104.73183 
L 134.734427 102.893646 
L 134.94689 102.007047 
L 135.830647 100.858182 
L 135.869072 100.257058 
L 135.58541 98.880741 
L 135.880373 98.560451 
L 136.070234 98.5326 
L 136.768651 98.595265 
L 137.595901 98.321395 
L 138.531644 98.240162 
L 139.300129 97.977895 
L 139.67307 98.518674 
L 139.901355 99.54453 
L 139.953341 101.398961 
L 140.482239 103.355513 
L 144.561987 105.889979 
L 145.58588 107.679424 
L 145.67855 108.577628 
L 146.743127 111.676082 
L 147.084424 112.135628 
L 148.379547 113.196298 
L 149.31755 114.236079 
L 149.930077 114.440322 
L 150.904244 114.521555 
L 151.910055 114.475136 
L 152.600561 114.301065 
L 153.543084 113.479453 
L 154.095715 113.535155 
L 154.540984 113.704584 
L 155.784121 114.454247 
L 156.102816 114.860412 
L 156.32658 115.902514 
L 156.814794 116.053375 
L 157.536943 115.962858 
L 159.348533 116.243692 
L 159.570037 116.854099 
L 160.101195 117.281152 
L 160.422151 117.144217 
L 160.745366 116.821606 
L 161.292346 116.680029 
L 161.712752 116.868025 
L 162.424731 117.457544 
L 164.282655 117.54806 
L 164.660116 117.759266 
L 166.475096 119.34911 
L 166.774579 119.831865 
L 167.470735 121.444918 
L 168.208706 122.229396 
L 168.433601 122.651807 
L 168.418909 123.236684 
L 168.168022 123.608034 
L 167.814293 123.861017 
L 167.596179 124.181306 
L 167.747616 124.756899 
L 169.026916 126.367632 
L 169.101505 127.530422 
L 169.33205 127.739307 
L 169.662046 127.753233 
L 170.001083 127.600051 
L 170.213547 127.330822 
L 170.529982 126.683279 
L 170.814773 126.492962 
L 171.836405 126.715773 
L 172.713382 127.62326 
L 174.738564 130.153085 
L 175.023355 131.060572 
L 175.400817 131.262494 
L 175.375954 132.281386 
L 175.692389 132.397433 
L 175.899202 133.177269 
L 176.108275 133.3026 
L 176.734364 133.407042 
L 176.987511 133.743578 
L 177.658805 137.052078 
L 178.013664 137.980454 
L 178.967489 138.990063 
L 179.324608 139.068975 
L 181.243559 138.737081 
L 181.770197 138.730118 
L 182.258411 138.95757 
L 182.79409 139.841848 
L 183.126346 139.909155 
L 183.359152 139.776862 
L 183.779558 139.268576 
L 185.840905 138.040799 
L 189.378193 136.56236 
L 190.646193 135.355471 
L 191.150228 135.132661 
L 191.661044 135.160512 
L 193.118905 136.000692 
L 193.478284 135.940348 
L 193.733692 136.41382 
L 193.611639 136.878008 
L 193.34719 137.163483 
L 192.956167 137.260963 
L 192.768566 137.618388 
L 192.770826 138.277534 
L 192.25775 138.507307 
L 192.341379 139.08058 
L 192.601308 139.558693 
L 193.127946 139.94629 
L 194.470533 140.375664 
L 196.206404 140.331566 
L 196.543181 139.626 
L 196.579345 111.10281 
L 195.634561 111.181722 
L 195.17121 111.344188 
L 194.435499 111.887288 
L 192.917742 112.493053 
L 192.682677 112.363081 
L 192.290523 111.973163 
L 191.7119 111.866399 
L 191.511868 111.947632 
L 190.765986 112.5093 
L 189.80538 112.841194 
L 189.470864 113.091856 
L 189.332988 113.37501 
L 188.865117 115.166776 
L 188.948746 115.343167 
L 189.606478 116.187989 
L 190.546742 116.457218 
L 190.650713 116.861062 
L 190.573865 117.281152 
L 190.354621 117.610726 
L 190.026885 117.817289 
L 189.443741 117.803364 
L 189.156689 117.552702 
L 188.559983 117.552702 
L 187.976839 117.336855 
L 186.896441 116.796076 
L 185.766316 116.73341 
L 185.561764 116.647536 
L 184.675746 115.865379 
L 182.89128 115.897872 
L 181.901291 116.23905 
L 181.52835 116.478107 
L 181.291024 116.04177 
L 180.945206 116.095152 
L 180.570005 116.283148 
L 179.867068 116.150854 
L 179.763096 116.09051 
L 179.670426 115.570619 
L 177.88935 112.270243 
L 177.322028 111.557714 
L 176.026906 110.826618 
L 175.828004 110.562031 
L 175.730813 110.141941 
L 175.195134 109.343538 
L 174.919384 109.092876 
L 173.848026 108.433729 
L 173.723713 108.094872 
L 173.655905 107.468218 
L 173.457003 107.289506 
L 172.693039 107.405553 
L 172.233079 107.284864 
L 170.873539 106.470214 
L 170.487037 105.627713 
L 170.190944 105.407224 
L 169.677868 105.704304 
L 169.350132 105.061404 
L 168.855137 104.643635 
L 168.626852 104.627388 
L 168.33641 104.785212 
L 168.102475 104.439392 
L 167.921655 103.346229 
L 167.657206 103.111814 
L 167.304607 103.00273 
L 167.126047 102.719576 
L 166.843516 100.939415 
L 166.380165 100.431129 
L 166.461534 100.338291 
L 166.475096 100.11316 
L 165.9688 98.572056 
L 165.483977 98.010389 
L 165.008195 96.822067 
L 165.037578 95.22294 
L 166.24003 93.459026 
L 166.843516 93.006442 
L 166.677388 92.170904 
L 166.768928 91.678865 
L 167.589398 90.253808 
L 167.644774 89.125831 
L 167.887751 88.631471 
L 167.87871 88.350637 
L 167.657206 86.937185 
L 168.253911 85.957748 
L 168.353362 85.488918 
L 168.33641 84.783352 
L 168.466375 84.576789 
L 168.931986 83.93853 
L 168.981711 83.706436 
L 169.24616 83.005512 
L 169.354652 81.480655 
L 169.838346 80.484972 
L 170.371764 79.867602 
L 170.527721 79.377883 
L 171.083742 78.649108 
L 171.486067 78.637504 
L 172.134758 78.043343 
L 172.415029 77.625574 
L 172.530301 77.172991 
L 172.412769 77.029092 
L 171.784419 76.40476 
L 171.933596 75.402114 
L 171.115386 74.394826 
L 171.110865 73.32023 
L 171.325589 72.858363 
L 171.33463 72.308301 
L 170.740185 70.551349 
L 170.873539 68.935975 
L 170.588748 68.766547 
L 170.439572 68.307 
L 169.69369 67.661779 
L 169.899372 67.246331 
L 170.439572 66.608072 
L 170.780869 65.916432 
L 170.97525 65.036796 
L 171.035147 63.247352 
L 170.873539 61.629656 
L 170.962819 61.14458 
L 171.635243 59.693993 
L 171.848837 58.72384 
L 172.05904 58.324638 
L 172.505439 58.05773 
L 171.933596 57.463569 
L 171.88161 57.136317 
L 171.553874 56.934395 
L 171.33463 56.781213 
L 171.035147 56.342555 
L 170.901792 55.894614 
L 170.828334 54.606493 
L 170.493818 53.620093 
L 169.992042 52.933095 
L 170.102795 52.810085 
L 170.594399 52.647619 
L 170.740185 52.473549 
L 170.051939 52.489795 
L 169.78523 52.380711 
L 169.677868 52.083631 
L 169.627012 51.410558 
L 169.380645 50.927803 
L 168.595209 50.280261 
L 168.486717 49.929799 
L 168.51384 48.769329 
L 168.06405 48.20534 
L 167.300087 47.796855 
L 166.226469 47.569403 
L 165.289596 47.202694 
L 164.938127 46.381082 
L 165.372095 45.552506 
L 166.307837 44.923531 
L 168.300246 43.964983 
L 170.33108 42.437805 
L 173.96895 38.791608 
L 176.761487 35.013118 
L 177.578566 33.084417 
L 177.688188 31.083767 
L 176.675597 28.665348 
L 177.24631 28.435575 
L 217.416575 22.176 
L 217.988418 24.308944 
L 219.082378 26.532404 
L 220.473561 28.577152 
L 221.952894 30.178601 
L 222.670523 30.749552 
L 223.573492 31.297294 
L 224.539748 31.657039 
L 225.458539 31.664002 
L 225.458539 31.664002 
" clip-path="url(#p009c3ad1c6)" style="fill: none; stroke: #000000; stroke-width: 2"/>
   </g>
  </g>
 </g>
 <defs>
  <clipPath id="p009c3ad1c6">
   <rect x="0" y="-0" width="306.895178" height="266.112"/>
  </clipPath>
 </defs>
</svg>
