<?xml version="1.0" encoding="utf-8" standalone="no"?>
<!DOCTYPE svg PUBLIC "-//W3C//DTD SVG 1.1//EN"
  "http://www.w3.org/Graphics/SVG/1.1/DTD/svg11.dtd">
<svg xmlns:xlink="http://www.w3.org/1999/xlink" width="290.216622pt" height="266.112pt" viewBox="0 0 290.216622 266.112" xmlns="http://www.w3.org/2000/svg" version="1.1">
 <metadata>
  <rdf:RDF xmlns:dc="http://purl.org/dc/elements/1.1/" xmlns:cc="http://creativecommons.org/ns#" xmlns:rdf="http://www.w3.org/1999/02/22-rdf-syntax-ns#">
   <cc:Work>
    <dc:type rdf:resource="http://purl.org/dc/dcmitype/StillImage"/>
    <dc:date>2024-02-02T21:58:06.596562</dc:date>
    <dc:format>image/svg+xml</dc:format>
    <dc:creator>
     <cc:Agent>
      <dc:title>Matplotlib v3.8.2, https://matplotlib.org/</dc:title>
     </cc:Agent>
    </dc:creator>
   </cc:Work>
  </rdf:RDF>
 </metadata>
 <defs>
  <style type="text/css">*{stroke-linejoin: round; stroke-linecap: butt}</style>
 </defs>
 <g id="figure_1">
  <g id="patch_1">
   <path d="M 0 266.112 
L 290.216622 266.112 
L 290.216622 0 
L 0 0 
L 0 266.112 
z
" style="fill: none"/>
  </g>
  <g id="axes_1">
   <g id="PatchCollection_1">
    <path d="M 172.299186 23.203277 
L 173.522863 23.003904 
L 174.752931 22.652467 
L 175.992583 22.466611 
L 177.22265 22.743706 
L 178.376038 23.429683 
L 179.110883 23.152589 
L 179.848923 22.635571 
L 180.628498 22.747085 
L 182.110969 23.406029 
L 182.995978 23.375616 
L 184.219655 22.868736 
L 184.414549 34.810829 
L 198.475655 34.709453 
L 199.849496 35.003443 
L 201.095538 35.898931 
L 202.050837 36.797798 
L 202.566827 36.872141 
L 203.255345 36.564634 
L 203.616377 36.246989 
L 204.188279 35.584666 
L 204.641966 35.344742 
L 204.905552 35.412326 
L 205.149968 35.604941 
L 205.383201 35.618458 
L 205.635605 35.158886 
L 206.410387 34.668902 
L 207.782631 34.777037 
L 211.504782 35.760384 
L 212.012784 36.132096 
L 212.453691 36.699802 
L 213.03358 37.8048 
L 213.42177 38.257613 
L 214.329144 38.815181 
L 214.754077 39.636326 
L 215.111914 39.599155 
L 215.38189 39.670118 
L 215.389878 40.075622 
L 217.278111 40.25472 
L 217.741383 40.589261 
L 218.93311 41.194138 
L 224.093002 41.545574 
L 224.853408 41.893632 
L 225.703272 42.610022 
L 228.172992 45.218765 
L 229.837576 46.225766 
L 230.109149 46.80361 
L 230.260911 48.053914 
L 230.530887 48.550656 
L 231.022913 48.793958 
L 234.233868 49.317734 
L 240.342669 49.162291 
L 242.775646 49.540762 
L 254.563524 54.379776 
L 254.913374 54.710938 
L 255.061941 55.180646 
L 255.084306 55.934208 
L 255.394219 57.225062 
L 256.403832 57.944832 
L 257.100338 57.590016 
L 257.579585 57.508915 
L 258.547664 57.569741 
L 260.443884 57.998899 
L 261.413561 58.063104 
L 261.915172 57.921178 
L 263.356108 57.103411 
L 263.736311 57.056102 
L 262.650018 61.442304 
L 262.119651 62.493235 
L 261.634014 63.142042 
L 259.416698 65.34528 
L 259.458233 65.55479 
L 262.499854 71.04599 
L 263.292209 72.931584 
L 263.713946 74.948966 
L 263.881682 77.206272 
L 264.202778 77.855078 
L 264.474351 78.081485 
L 265.162869 78.473472 
L 265.37853 78.764083 
L 265.40409 79.28448 
L 265.069968 80.020761 
L 264.630905 80.707123 
L 263.215529 83.363174 
L 262.749062 83.758541 
L 262.752257 84.120115 
L 263.215529 85.49545 
L 263.755481 85.924608 
L 264.915258 86.461901 
L 265.340191 87.036365 
L 265.46799 87.712205 
L 265.346581 88.340736 
L 264.835384 89.553869 
L 264.71717 90.807552 
L 264.808227 92.240333 
L 264.682025 93.43657 
L 263.381668 94.210406 
L 263.043 94.757837 
L 262.758647 96.075725 
L 262.806572 96.714394 
L 263.172397 97.630157 
L 263.229907 98.208 
L 263.1069 98.633779 
L 262.464709 99.275827 
L 262.514231 99.583334 
L 262.892836 100.039526 
L 262.765037 101.702093 
L 263.852928 105.074534 
L 263.932802 106.399181 
L 263.416813 107.531213 
L 263.234699 107.781274 
L 263.180384 108.05161 
L 263.317769 108.541594 
L 263.787431 109.23433 
L 265.231561 110.41705 
L 265.790683 111.045581 
L 266.031904 111.670733 
L 265.886532 112.032307 
L 264.995133 112.714906 
L 264.257093 113.647565 
L 264.301822 113.968589 
L 264.694805 114.438298 
L 264.803434 114.772838 
L 264.598955 115.435162 
L 264.047821 115.857562 
L 261.097258 117.232896 
L 260.71386 117.67895 
L 260.637181 118.22976 
L 260.742615 118.902221 
L 261.138792 120.074803 
L 262.068531 121.933363 
L 262.308155 122.825472 
L 262.244255 123.906816 
L 262.028594 124.782029 
L 261.696316 125.484902 
L 261.161157 125.920819 
L 260.346437 125.991782 
L 259.081225 125.893786 
L 258.145096 126.032333 
L 255.17057 127.43808 
L 255.122646 127.73207 
L 255.336709 129.496013 
L 255.534798 129.975859 
L 255.922988 130.236058 
L 254.895802 130.982861 
L 254.851072 131.384986 
L 255.135425 132.473088 
L 255.084306 132.88873 
L 255.159388 133.324646 
L 255.403804 133.584845 
L 255.753654 133.706496 
L 256.173794 133.726771 
L 258.093977 133.43616 
L 258.966206 133.635533 
L 259.145125 133.784218 
L 259.705844 135.044659 
L 260.25538 135.595469 
L 260.451872 136.717363 
L 259.554082 140.769024 
L 259.413503 142.161254 
L 259.16749 142.708685 
L 258.716998 143.431834 
L 257.56361 144.746342 
L 257.490126 145.067366 
L 257.554025 146.027059 
L 257.359131 147.355085 
L 257.394276 148.027546 
L 257.721762 148.416154 
L 259.311264 148.524288 
L 259.522133 149.23392 
L 259.531718 149.835418 
L 259.320849 152.501606 
L 259.442258 153.24841 
L 259.030106 154.17769 
L 259.133943 154.904218 
L 259.486988 155.259034 
L 260.046109 155.387443 
L 260.75859 155.424614 
L 261.455095 155.232 
L 262.378444 154.282445 
L 262.953541 154.086451 
L 263.503077 154.397338 
L 263.547807 155.059661 
L 263.292209 156.326861 
L 263.547807 156.901325 
L 264.062199 157.425101 
L 264.728352 157.847501 
L 265.413675 158.134733 
L 265.723588 158.496307 
L 265.368946 161.240218 
L 264.771484 163.166362 
L 264.65966 165.58249 
L 264.934428 166.599629 
L 263.279429 166.542182 
L 262.857691 166.910515 
L 262.678773 167.910758 
L 262.439149 168.380467 
L 261.44551 168.627149 
L 261.164352 168.921139 
L 260.780955 171.019622 
L 260.292123 172.111104 
L 260.330462 172.33751 
L 260.554111 173.037005 
L 260.164324 174.506957 
L 259.9247 174.925978 
L 256.544412 179.09591 
L 254.563524 182.94144 
L 253.780754 183.796378 
L 252.458032 184.019405 
L 251.001122 183.840307 
L 249.65923 184.012646 
L 248.684761 185.269709 
L 248.358873 186.65856 
L 248.298169 188.01024 
L 249.167203 194.917325 
L 248.975505 196.167629 
L 248.253439 197.60041 
L 244.301249 202.632038 
L 244.472181 202.91927 
L 244.921075 203.199744 
L 245.33802 203.59849 
L 245.563266 203.659315 
L 245.446649 204.085094 
L 245.288498 204.392602 
L 247.620833 208.505088 
L 246.425911 207.741389 
L 238.968828 215.946086 
L 216.294057 240.820378 
L 211.814695 243.936 
L 211.094227 242.895206 
L 210.785912 242.648525 
L 210.479194 242.635008 
L 209.731569 242.874931 
L 208.777867 242.408602 
L 208.560608 242.243021 
L 207.932795 241.492838 
L 207.600517 241.290086 
L 207.14044 241.35767 
L 205.88324 241.895216 
L 205.592472 241.959168 
L 205.057313 241.854413 
L 203.999775 241.394842 
L 200.632266 240.614246 
L 198.774386 240.414874 
L 197.871804 240.17495 
L 196.863788 240.573696 
L 193.421197 240.844032 
L 192.814151 241.033267 
L 191.983456 241.617869 
L 191.520184 241.756416 
L 191.307718 241.688832 
L 190.552105 241.290086 
L 189.657511 241.296845 
L 187.069577 241.087334 
L 186.475311 241.246157 
L 184.727657 241.959168 
L 183.47203 242.175437 
L 182.325032 242.215987 
L 181.267494 241.962547 
L 179.401626 240.627763 
L 178.823335 240.455424 
L 178.059735 240.397978 
L 176.689088 240.583834 
L 176.145942 240.543283 
L 175.404706 240.17495 
L 174.522892 239.539661 
L 174.069205 239.350426 
L 173.078761 239.137536 
L 173.037226 238.99223 
L 172.44935 238.367078 
L 172.133047 238.211635 
L 171.164968 237.941299 
L 170.321494 237.427661 
L 169.871002 237.299251 
L 168.755954 237.201254 
L 167.997146 236.805888 
L 166.941205 236.582861 
L 165.145627 235.40352 
L 164.516216 235.224422 
L 162.431491 235.329178 
L 162.065666 235.467725 
L 161.50335 235.079117 
L 160.873939 235.170355 
L 159.726941 235.687373 
L 158.682183 235.585997 
L 158.091111 235.717786 
L 157.827525 236.258458 
L 157.496845 236.582861 
L 156.726855 236.505139 
L 155.180485 236.136806 
L 154.538294 236.278733 
L 152.742715 237.251942 
L 152.090939 237.187738 
L 151.878473 237.04919 
L 149.320892 234.731059 
L 148.911935 233.791642 
L 148.455052 233.318554 
L 145.534841 233.406413 
L 144.394233 233.20704 
L 143.24404 232.612301 
L 142.309509 231.628954 
L 141.72323 230.382029 
L 141.483607 228.996557 
L 141.611406 227.614464 
L 141.950074 226.91159 
L 142.838278 225.360538 
L 142.764794 224.732006 
L 142.253597 224.33664 
L 141.01714 223.948032 
L 140.464408 223.583078 
L 139.569814 223.370189 
L 137.687971 223.258675 
L 136.755037 223.011994 
L 132.22136 220.923648 
L 130.805984 220.480973 
L 129.609465 219.544934 
L 129.176545 219.406387 
L 128.256391 219.318528 
L 127.269142 219.061709 
L 126.604586 219.274598 
L 124.505484 219.838925 
L 123.840929 219.69024 
L 121.32648 218.399386 
L 120.094815 217.980365 
L 118.949415 217.764096 
L 115.265603 217.710029 
L 112.949243 217.253837 
L 111.160054 217.142323 
L 110.655247 216.980122 
L 110.222328 216.696269 
L 109.671194 216.000154 
L 109.233481 215.067494 
L 109.021015 214.939085 
L 108.696725 214.939085 
L 108.575315 214.62144 
L 108.735064 214.19904 
L 108.61046 214.009805 
L 108.284572 213.878016 
L 108.348472 213.56713 
L 108.690335 212.918323 
L 108.60407 212.580403 
L 107.687111 210.711706 
L 106.984216 209.870285 
L 106.933096 209.623603 
L 106.878781 208.853146 
L 106.588038 208.390195 
L 105.47938 207.065549 
L 104.69022 205.825382 
L 103.770066 204.703488 
L 101.62304 203.142298 
L 101.153378 202.645555 
L 100.089449 201.195878 
L 99.837046 200.577485 
L 99.843436 200.0064 
L 100.261978 197.583514 
L 100.022355 195.427584 
L 100.306708 193.592678 
L 100.696496 192.943872 
L 101.166157 190.294579 
L 101.095868 188.986829 
L 100.327475 186.391603 
L 100.571891 185.219021 
L 100.950496 184.063334 
L 101.041553 182.77248 
L 100.811515 182.198016 
L 100.367413 181.772237 
L 99.817876 181.54583 
L 98.575029 181.528934 
L 97.495126 181.028813 
L 95.741082 181.346458 
L 93.261778 181.028813 
L 89.763275 181.018675 
L 88.689762 181.160602 
L 87.526789 181.762099 
L 88.009231 177.044736 
L 87.453305 173.209344 
L 85.873387 169.164442 
L 85.467625 168.593357 
L 84.910101 168.245299 
L 83.616134 167.951309 
L 82.239098 167.806003 
L 81.903625 167.532288 
L 81.088905 166.454323 
L 80.053731 165.883238 
L 79.053703 165.775104 
L 78.026517 165.788621 
L 76.913066 165.58249 
L 73.414564 163.801651 
L 72.257981 163.585382 
L 71.526331 163.578624 
L 70.912894 163.456973 
L 70.385723 163.179878 
L 69.250157 161.852504 
L 69.146071 161.740339 
L 68.701969 161.490278 
L 66.727471 160.831334 
L 66.305734 160.392038 
L 65.823292 159.040358 
L 65.29612 158.492928 
L 64.046883 157.68192 
L 63.455812 157.441997 
L 61.666623 156.938496 
L 61.078747 156.384307 
L 60.225687 155.059661 
L 59.529182 154.68457 
L 58.343844 154.407475 
L 57.976422 154.096589 
L 58.1809 153.988454 
L 58.404549 153.58295 
L 58.625002 152.900352 
L 58.548323 152.636774 
L 57.998786 151.957555 
L 57.362985 151.575706 
L 55.707986 151.541914 
L 54.327755 151.173581 
L 53.123247 150.420019 
L 52.343672 149.240678 
L 49.378731 140.82647 
L 48.669446 139.39031 
L 47.733317 138.146765 
L 46.726898 136.234138 
L 46.611879 135.446784 
L 46.710923 134.777702 
L 47.21573 133.56457 
L 47.310316 132.854964 
L 46.48408 130.283366 
L 42.605374 126.775757 
L 41.499911 124.315699 
L 41.311407 121.923226 
L 40.956765 120.770918 
L 40.183579 120.064666 
L 38.988657 119.459789 
L 38.100453 118.669056 
L 36.21222 116.107622 
L 35.161071 115.387853 
L 33.122674 113.211648 
L 32.566748 112.113408 
L 32.031589 110.082509 
L 31.03156 108.440218 
L 30.041116 105.915955 
L 29.382951 104.706202 
L 28.453211 103.949261 
L 27.402063 103.32073 
L 26.564978 102.404966 
L 25.286987 100.198349 
L 24.184719 97.15369 
L 24.184719 96.231168 
L 25.433956 93.429811 
L 25.648019 93.652838 
L 26.226311 93.926554 
L 27.16883 94.673357 
L 28.076204 95.014656 
L 29.041088 94.970726 
L 30.395759 95.416781 
L 32.883051 95.453952 
L 33.368688 95.660083 
L 33.544412 95.58912 
L 33.998099 95.214029 
L 36.074836 94.805146 
L 37.71386 94.078618 
L 38.467875 93.997517 
L 39.24106 94.599014 
L 40.397643 94.909901 
L 41.701195 95.656704 
L 42.269901 96.504883 
L 43.669302 97.10976 
L 44.100625 97.670707 
L 43.602208 97.853184 
L 43.560673 98.319514 
L 43.787517 98.853427 
L 44.100625 99.231898 
L 45.982468 100.127386 
L 47.653442 100.127386 
L 49.359561 99.231898 
L 49.57043 99.458304 
L 49.755739 99.059558 
L 50.247766 98.948045 
L 50.826057 98.931149 
L 51.260574 98.806118 
L 51.289329 98.677709 
L 51.260574 98.137037 
L 52.503421 97.630157 
L 53.493865 97.336166 
L 54.867706 96.329165 
L 55.15206 96.444058 
L 55.992339 97.329408 
L 57.708043 97.636915 
L 58.378989 98.069453 
L 59.529182 97.893734 
L 60.947753 98.16745 
L 63.324818 99.485338 
L 64.612394 99.900979 
L 65.430309 100.046285 
L 65.944701 100.255795 
L 66.350463 100.593715 
L 67.257838 101.509478 
L 67.756255 101.769677 
L 69.955998 102.425242 
L 70.325018 102.313728 
L 71.612595 101.239142 
L 72.861832 101.019494 
L 75.775654 99.657677 
L 76.510499 99.900979 
L 77.96741 99.00887 
L 79.42432 98.941286 
L 79.887593 98.806118 
L 80.727872 98.339789 
L 82.798219 96.30889 
L 83.836587 95.011277 
L 83.721568 93.429811 
L 83.772688 93.09527 
L 84.085796 92.618803 
L 92.277724 83.97143 
L 95.437559 81.038285 
L 97.076583 79.338547 
L 97.916863 77.692877 
L 98.546274 75.094272 
L 99.051081 73.955482 
L 103.258869 67.504589 
L 104.482546 66.14615 
L 106.080036 65.166182 
L 113.664918 61.827533 
L 116.712929 59.245824 
L 118.802446 57.87049 
L 130.029604 53.366016 
L 131.4961 53.088922 
L 132.798054 53.017958 
L 133.671881 52.173158 
L 133.924285 51.61559 
L 135.147962 50.669414 
L 135.569699 50.162534 
L 135.895587 48.712858 
L 136.643212 47.462554 
L 136.636822 46.71913 
L 136.010606 44.786227 
L 136.119236 44.079974 
L 136.857276 42.329549 
L 136.330104 41.39689 
L 136.496243 40.092518 
L 136.895616 38.73408 
L 136.991465 37.456742 
L 136.707112 37.04448 
L 136.643212 36.74711 
L 136.739062 36.385536 
L 137.930789 34.621594 
L 138.965963 33.584179 
L 139.550644 33.307085 
L 140.2152 33.182054 
L 141.614601 33.155021 
L 142.365421 33.013094 
L 142.758404 32.624486 
L 143.720092 30.995712 
L 144.215314 30.549658 
L 144.819165 30.171187 
L 145.723345 29.826509 
L 146.816028 28.650547 
L 154.103777 25.322035 
L 156.77478 25.078733 
L 157.324316 24.727296 
L 158.474509 23.723674 
L 159.209354 23.514163 
L 161.854797 23.760845 
L 163.624816 23.152589 
L 164.960318 22.93632 
L 166.228725 22.334822 
L 166.941205 22.176 
L 168.315046 22.307789 
L 170.965282 23.047834 
L 172.299186 23.203277 
L 172.299186 23.203277 
" clip-path="url(#p5862043688)" style="fill: none; stroke: #000000; stroke-width: 2"/>
   </g>
  </g>
 </g>
 <defs>
  <clipPath id="p5862043688">
   <rect x="0" y="-0" width="290.216622" height="266.112"/>
  </clipPath>
 </defs>
</svg>
